<?xml version="1.0" encoding="utf-8"?>
<svg xmlns="http://www.w3.org/2000/svg" xmlns:xlink="http://www.w3.org/1999/xlink" width="600" height="400" viewBox="0 0 2400 1600">
<defs>
  <clipPath id="clip350">
    <rect x="0" y="0" width="2400" height="1600"/>
  </clipPath>
</defs>
<path clip-path="url(#clip350)" d="
M0 1600 L2400 1600 L2400 0 L0 0  Z
  " fill="#ffffff" fill-rule="evenodd" fill-opacity="1"/>
<defs>
  <clipPath id="clip351">
    <rect x="480" y="0" width="1681" height="1600"/>
  </clipPath>
</defs>
<path clip-path="url(#clip350)" d="
M147.478 1423.18 L2352.76 1423.18 L2352.76 47.2441 L147.478 47.2441  Z
  " fill="#ffffff" fill-rule="evenodd" fill-opacity="1"/>
<defs>
  <clipPath id="clip352">
    <rect x="147" y="47" width="2206" height="1377"/>
  </clipPath>
</defs>
<polyline clip-path="url(#clip352)" style="stroke:#000000; stroke-linecap:round; stroke-linejoin:round; stroke-width:2; stroke-opacity:0.1; fill:none" points="
  209.891,1423.18 209.891,47.2441 
  "/>
<polyline clip-path="url(#clip352)" style="stroke:#000000; stroke-linecap:round; stroke-linejoin:round; stroke-width:2; stroke-opacity:0.1; fill:none" points="
  625.982,1423.18 625.982,47.2441 
  "/>
<polyline clip-path="url(#clip352)" style="stroke:#000000; stroke-linecap:round; stroke-linejoin:round; stroke-width:2; stroke-opacity:0.1; fill:none" points="
  1042.07,1423.18 1042.07,47.2441 
  "/>
<polyline clip-path="url(#clip352)" style="stroke:#000000; stroke-linecap:round; stroke-linejoin:round; stroke-width:2; stroke-opacity:0.1; fill:none" points="
  1458.16,1423.18 1458.16,47.2441 
  "/>
<polyline clip-path="url(#clip352)" style="stroke:#000000; stroke-linecap:round; stroke-linejoin:round; stroke-width:2; stroke-opacity:0.1; fill:none" points="
  1874.25,1423.18 1874.25,47.2441 
  "/>
<polyline clip-path="url(#clip352)" style="stroke:#000000; stroke-linecap:round; stroke-linejoin:round; stroke-width:2; stroke-opacity:0.1; fill:none" points="
  2290.34,1423.18 2290.34,47.2441 
  "/>
<polyline clip-path="url(#clip350)" style="stroke:#000000; stroke-linecap:round; stroke-linejoin:round; stroke-width:4; stroke-opacity:1; fill:none" points="
  147.478,1423.18 2352.76,1423.18 
  "/>
<polyline clip-path="url(#clip350)" style="stroke:#000000; stroke-linecap:round; stroke-linejoin:round; stroke-width:4; stroke-opacity:1; fill:none" points="
  209.891,1423.18 209.891,1404.28 
  "/>
<polyline clip-path="url(#clip350)" style="stroke:#000000; stroke-linecap:round; stroke-linejoin:round; stroke-width:4; stroke-opacity:1; fill:none" points="
  625.982,1423.18 625.982,1404.28 
  "/>
<polyline clip-path="url(#clip350)" style="stroke:#000000; stroke-linecap:round; stroke-linejoin:round; stroke-width:4; stroke-opacity:1; fill:none" points="
  1042.07,1423.18 1042.07,1404.28 
  "/>
<polyline clip-path="url(#clip350)" style="stroke:#000000; stroke-linecap:round; stroke-linejoin:round; stroke-width:4; stroke-opacity:1; fill:none" points="
  1458.16,1423.18 1458.16,1404.28 
  "/>
<polyline clip-path="url(#clip350)" style="stroke:#000000; stroke-linecap:round; stroke-linejoin:round; stroke-width:4; stroke-opacity:1; fill:none" points="
  1874.25,1423.18 1874.25,1404.28 
  "/>
<polyline clip-path="url(#clip350)" style="stroke:#000000; stroke-linecap:round; stroke-linejoin:round; stroke-width:4; stroke-opacity:1; fill:none" points="
  2290.34,1423.18 2290.34,1404.28 
  "/>
<path clip-path="url(#clip350)" d="M209.891 1454.1 Q206.28 1454.1 204.452 1457.66 Q202.646 1461.2 202.646 1468.33 Q202.646 1475.44 204.452 1479.01 Q206.28 1482.55 209.891 1482.55 Q213.526 1482.55 215.331 1479.01 Q217.16 1475.44 217.16 1468.33 Q217.16 1461.2 215.331 1457.66 Q213.526 1454.1 209.891 1454.1 M209.891 1450.39 Q215.702 1450.39 218.757 1455 Q221.836 1459.58 221.836 1468.33 Q221.836 1477.06 218.757 1481.67 Q215.702 1486.25 209.891 1486.25 Q204.081 1486.25 201.003 1481.67 Q197.947 1477.06 197.947 1468.33 Q197.947 1459.58 201.003 1455 Q204.081 1450.39 209.891 1450.39 Z" fill="#000000" fill-rule="evenodd" fill-opacity="1" /><path clip-path="url(#clip350)" d="M616.364 1481.64 L624.002 1481.64 L624.002 1455.28 L615.692 1456.95 L615.692 1452.69 L623.956 1451.02 L628.632 1451.02 L628.632 1481.64 L636.271 1481.64 L636.271 1485.58 L616.364 1485.58 L616.364 1481.64 Z" fill="#000000" fill-rule="evenodd" fill-opacity="1" /><path clip-path="url(#clip350)" d="M1036.72 1481.64 L1053.04 1481.64 L1053.04 1485.58 L1031.1 1485.58 L1031.1 1481.64 Q1033.76 1478.89 1038.34 1474.26 Q1042.95 1469.61 1044.13 1468.27 Q1046.38 1465.74 1047.26 1464.01 Q1048.16 1462.25 1048.16 1460.56 Q1048.16 1457.8 1046.22 1456.07 Q1044.29 1454.33 1041.19 1454.33 Q1038.99 1454.33 1036.54 1455.09 Q1034.11 1455.86 1031.33 1457.41 L1031.33 1452.69 Q1034.16 1451.55 1036.61 1450.97 Q1039.06 1450.39 1041.1 1450.39 Q1046.47 1450.39 1049.66 1453.08 Q1052.86 1455.77 1052.86 1460.26 Q1052.86 1462.39 1052.05 1464.31 Q1051.26 1466.2 1049.16 1468.8 Q1048.58 1469.47 1045.47 1472.69 Q1042.37 1475.88 1036.72 1481.64 Z" fill="#000000" fill-rule="evenodd" fill-opacity="1" /><path clip-path="url(#clip350)" d="M1462.41 1466.95 Q1465.77 1467.66 1467.64 1469.93 Q1469.54 1472.2 1469.54 1475.53 Q1469.54 1480.65 1466.02 1483.45 Q1462.5 1486.25 1456.02 1486.25 Q1453.84 1486.25 1451.53 1485.81 Q1449.24 1485.39 1446.78 1484.54 L1446.78 1480.02 Q1448.73 1481.16 1451.04 1481.74 Q1453.36 1482.32 1455.88 1482.32 Q1460.28 1482.32 1462.57 1480.58 Q1464.89 1478.84 1464.89 1475.53 Q1464.89 1472.48 1462.73 1470.77 Q1460.6 1469.03 1456.78 1469.03 L1452.76 1469.03 L1452.76 1465.19 L1456.97 1465.19 Q1460.42 1465.19 1462.25 1463.82 Q1464.08 1462.43 1464.08 1459.84 Q1464.08 1457.18 1462.18 1455.77 Q1460.3 1454.33 1456.78 1454.33 Q1454.86 1454.33 1452.66 1454.75 Q1450.47 1455.16 1447.83 1456.04 L1447.83 1451.88 Q1450.49 1451.14 1452.8 1450.77 Q1455.14 1450.39 1457.2 1450.39 Q1462.53 1450.39 1465.63 1452.83 Q1468.73 1455.23 1468.73 1459.35 Q1468.73 1462.22 1467.09 1464.21 Q1465.44 1466.18 1462.41 1466.95 Z" fill="#000000" fill-rule="evenodd" fill-opacity="1" /><path clip-path="url(#clip350)" d="M1877.26 1455.09 L1865.46 1473.54 L1877.26 1473.54 L1877.26 1455.09 M1876.03 1451.02 L1881.91 1451.02 L1881.91 1473.54 L1886.84 1473.54 L1886.84 1477.43 L1881.91 1477.43 L1881.91 1485.58 L1877.26 1485.58 L1877.26 1477.43 L1861.66 1477.43 L1861.66 1472.92 L1876.03 1451.02 Z" fill="#000000" fill-rule="evenodd" fill-opacity="1" /><path clip-path="url(#clip350)" d="M2280.62 1451.02 L2298.98 1451.02 L2298.98 1454.96 L2284.9 1454.96 L2284.9 1463.43 Q2285.92 1463.08 2286.94 1462.92 Q2287.96 1462.73 2288.98 1462.73 Q2294.76 1462.73 2298.14 1465.9 Q2301.52 1469.08 2301.52 1474.49 Q2301.52 1480.07 2298.05 1483.17 Q2294.58 1486.25 2288.26 1486.25 Q2286.08 1486.25 2283.81 1485.88 Q2281.57 1485.51 2279.16 1484.77 L2279.16 1480.07 Q2281.25 1481.2 2283.47 1481.76 Q2285.69 1482.32 2288.17 1482.32 Q2292.17 1482.32 2294.51 1480.21 Q2296.85 1478.1 2296.85 1474.49 Q2296.85 1470.88 2294.51 1468.77 Q2292.17 1466.67 2288.17 1466.67 Q2286.29 1466.67 2284.42 1467.08 Q2282.56 1467.5 2280.62 1468.38 L2280.62 1451.02 Z" fill="#000000" fill-rule="evenodd" fill-opacity="1" /><path clip-path="url(#clip350)" d="M1198.43 1522.27 L1198.43 1532.4 L1210.49 1532.4 L1210.49 1536.95 L1198.43 1536.95 L1198.43 1556.3 Q1198.43 1560.66 1199.61 1561.9 Q1200.81 1563.14 1204.47 1563.14 L1210.49 1563.14 L1210.49 1568.04 L1204.47 1568.04 Q1197.7 1568.04 1195.12 1565.53 Q1192.54 1562.98 1192.54 1556.3 L1192.54 1536.95 L1188.24 1536.95 L1188.24 1532.4 L1192.54 1532.4 L1192.54 1522.27 L1198.43 1522.27 Z" fill="#000000" fill-rule="evenodd" fill-opacity="1" /><path clip-path="url(#clip350)" d="M1238.37 1518.52 L1251.87 1518.52 L1251.87 1523.07 L1244.23 1523.07 L1244.23 1572.09 L1251.87 1572.09 L1251.87 1576.64 L1238.37 1576.64 L1238.37 1518.52 Z" fill="#000000" fill-rule="evenodd" fill-opacity="1" /><path clip-path="url(#clip350)" d="M1287.07 1533.45 L1287.07 1538.98 Q1284.59 1537.71 1281.91 1537.07 Q1279.24 1536.44 1276.38 1536.44 Q1272.01 1536.44 1269.82 1537.77 Q1267.65 1539.11 1267.65 1541.79 Q1267.65 1543.82 1269.21 1545 Q1270.77 1546.15 1275.48 1547.2 L1277.49 1547.64 Q1283.73 1548.98 1286.34 1551.43 Q1288.98 1553.85 1288.98 1558.21 Q1288.98 1563.17 1285.03 1566.07 Q1281.12 1568.97 1274.24 1568.97 Q1271.38 1568.97 1268.26 1568.39 Q1265.17 1567.85 1261.73 1566.74 L1261.73 1560.69 Q1264.98 1562.38 1268.13 1563.24 Q1271.28 1564.07 1274.37 1564.07 Q1278.51 1564.07 1280.74 1562.66 Q1282.96 1561.23 1282.96 1558.65 Q1282.96 1556.27 1281.34 1554.99 Q1279.75 1553.72 1274.31 1552.54 L1272.27 1552.07 Q1266.83 1550.92 1264.41 1548.56 Q1261.99 1546.18 1261.99 1542.04 Q1261.99 1537.01 1265.55 1534.27 Q1269.12 1531.54 1275.68 1531.54 Q1278.92 1531.54 1281.79 1532.01 Q1284.65 1532.49 1287.07 1533.45 Z" fill="#000000" fill-rule="evenodd" fill-opacity="1" /><path clip-path="url(#clip350)" d="M1311.99 1518.52 L1311.99 1576.64 L1298.5 1576.64 L1298.5 1572.09 L1306.1 1572.09 L1306.1 1523.07 L1298.5 1523.07 L1298.5 1518.52 L1311.99 1518.52 Z" fill="#000000" fill-rule="evenodd" fill-opacity="1" /><polyline clip-path="url(#clip352)" style="stroke:#000000; stroke-linecap:round; stroke-linejoin:round; stroke-width:2; stroke-opacity:0.1; fill:none" points="
  147.478,1368.39 2352.76,1368.39 
  "/>
<polyline clip-path="url(#clip352)" style="stroke:#000000; stroke-linecap:round; stroke-linejoin:round; stroke-width:2; stroke-opacity:0.1; fill:none" points="
  147.478,1052.88 2352.76,1052.88 
  "/>
<polyline clip-path="url(#clip352)" style="stroke:#000000; stroke-linecap:round; stroke-linejoin:round; stroke-width:2; stroke-opacity:0.1; fill:none" points="
  147.478,737.362 2352.76,737.362 
  "/>
<polyline clip-path="url(#clip352)" style="stroke:#000000; stroke-linecap:round; stroke-linejoin:round; stroke-width:2; stroke-opacity:0.1; fill:none" points="
  147.478,421.847 2352.76,421.847 
  "/>
<polyline clip-path="url(#clip352)" style="stroke:#000000; stroke-linecap:round; stroke-linejoin:round; stroke-width:2; stroke-opacity:0.1; fill:none" points="
  147.478,106.331 2352.76,106.331 
  "/>
<polyline clip-path="url(#clip350)" style="stroke:#000000; stroke-linecap:round; stroke-linejoin:round; stroke-width:4; stroke-opacity:1; fill:none" points="
  147.478,1423.18 147.478,47.2441 
  "/>
<polyline clip-path="url(#clip350)" style="stroke:#000000; stroke-linecap:round; stroke-linejoin:round; stroke-width:4; stroke-opacity:1; fill:none" points="
  147.478,1368.39 166.376,1368.39 
  "/>
<polyline clip-path="url(#clip350)" style="stroke:#000000; stroke-linecap:round; stroke-linejoin:round; stroke-width:4; stroke-opacity:1; fill:none" points="
  147.478,1052.88 166.376,1052.88 
  "/>
<polyline clip-path="url(#clip350)" style="stroke:#000000; stroke-linecap:round; stroke-linejoin:round; stroke-width:4; stroke-opacity:1; fill:none" points="
  147.478,737.362 166.376,737.362 
  "/>
<polyline clip-path="url(#clip350)" style="stroke:#000000; stroke-linecap:round; stroke-linejoin:round; stroke-width:4; stroke-opacity:1; fill:none" points="
  147.478,421.847 166.376,421.847 
  "/>
<polyline clip-path="url(#clip350)" style="stroke:#000000; stroke-linecap:round; stroke-linejoin:round; stroke-width:4; stroke-opacity:1; fill:none" points="
  147.478,106.331 166.376,106.331 
  "/>
<path clip-path="url(#clip350)" d="M51.3625 1368.84 L81.0383 1368.84 L81.0383 1372.78 L51.3625 1372.78 L51.3625 1368.84 Z" fill="#000000" fill-rule="evenodd" fill-opacity="1" /><path clip-path="url(#clip350)" d="M95.1586 1381.74 L111.478 1381.74 L111.478 1385.67 L89.5336 1385.67 L89.5336 1381.74 Q92.1956 1378.98 96.7789 1374.35 Q101.385 1369.7 102.566 1368.36 Q104.811 1365.83 105.691 1364.1 Q106.594 1362.34 106.594 1360.65 Q106.594 1357.89 104.649 1356.16 Q102.728 1354.42 99.6261 1354.42 Q97.4271 1354.42 94.9734 1355.19 Q92.5428 1355.95 89.7651 1357.5 L89.7651 1352.78 Q92.5891 1351.64 95.0428 1351.07 Q97.4965 1350.49 99.5335 1350.49 Q104.904 1350.49 108.098 1353.17 Q111.293 1355.86 111.293 1360.35 Q111.293 1362.48 110.483 1364.4 Q109.696 1366.3 107.589 1368.89 Q107.01 1369.56 103.909 1372.78 Q100.807 1375.97 95.1586 1381.74 Z" fill="#000000" fill-rule="evenodd" fill-opacity="1" /><path clip-path="url(#clip350)" d="M50.9921 1053.33 L80.6679 1053.33 L80.6679 1057.26 L50.9921 1057.26 L50.9921 1053.33 Z" fill="#000000" fill-rule="evenodd" fill-opacity="1" /><path clip-path="url(#clip350)" d="M91.5706 1066.22 L99.2095 1066.22 L99.2095 1039.86 L90.8993 1041.52 L90.8993 1037.26 L99.1632 1035.6 L103.839 1035.6 L103.839 1066.22 L111.478 1066.22 L111.478 1070.16 L91.5706 1070.16 L91.5706 1066.22 Z" fill="#000000" fill-rule="evenodd" fill-opacity="1" /><path clip-path="url(#clip350)" d="M99.5335 723.161 Q95.9224 723.161 94.0937 726.725 Q92.2882 730.267 92.2882 737.397 Q92.2882 744.503 94.0937 748.068 Q95.9224 751.609 99.5335 751.609 Q103.168 751.609 104.973 748.068 Q106.802 744.503 106.802 737.397 Q106.802 730.267 104.973 726.725 Q103.168 723.161 99.5335 723.161 M99.5335 719.457 Q105.344 719.457 108.399 724.063 Q111.478 728.647 111.478 737.397 Q111.478 746.123 108.399 750.73 Q105.344 755.313 99.5335 755.313 Q93.7234 755.313 90.6447 750.73 Q87.5892 746.123 87.5892 737.397 Q87.5892 728.647 90.6447 724.063 Q93.7234 719.457 99.5335 719.457 Z" fill="#000000" fill-rule="evenodd" fill-opacity="1" /><path clip-path="url(#clip350)" d="M91.5706 435.191 L99.2095 435.191 L99.2095 408.826 L90.8993 410.492 L90.8993 406.233 L99.1632 404.567 L103.839 404.567 L103.839 435.191 L111.478 435.191 L111.478 439.127 L91.5706 439.127 L91.5706 435.191 Z" fill="#000000" fill-rule="evenodd" fill-opacity="1" /><path clip-path="url(#clip350)" d="M95.1586 119.676 L111.478 119.676 L111.478 123.611 L89.5336 123.611 L89.5336 119.676 Q92.1956 116.922 96.7789 112.292 Q101.385 107.639 102.566 106.297 Q104.811 103.773 105.691 102.037 Q106.594 100.278 106.594 98.5883 Q106.594 95.8337 104.649 94.0976 Q102.728 92.3615 99.6261 92.3615 Q97.4271 92.3615 94.9734 93.1254 Q92.5428 93.8893 89.7651 95.4402 L89.7651 90.718 Q92.5891 89.5837 95.0428 89.005 Q97.4965 88.4263 99.5335 88.4263 Q104.904 88.4263 108.098 91.1115 Q111.293 93.7967 111.293 98.2874 Q111.293 100.417 110.483 102.338 Q109.696 104.236 107.589 106.829 Q107.01 107.5 103.909 110.718 Q100.807 113.912 95.1586 119.676 Z" fill="#000000" fill-rule="evenodd" fill-opacity="1" /><polyline clip-path="url(#clip352)" style="stroke:#009af9; stroke-linecap:round; stroke-linejoin:round; stroke-width:4; stroke-opacity:1; fill:none" points="
  209.891,327.192 214.052,327.227 218.213,327.324 222.374,327.483 226.535,327.703 230.696,327.986 234.857,328.331 239.018,328.738 243.179,329.206 247.34,329.735 
  251.5,330.324 255.661,330.973 259.822,331.682 263.983,332.449 268.144,333.274 272.305,334.156 276.466,335.094 280.627,336.087 284.788,337.135 288.949,338.235 
  293.109,339.386 297.27,340.588 301.431,341.839 305.592,343.14 309.753,344.488 313.914,345.882 318.075,347.318 322.236,348.797 326.397,350.317 330.558,351.879 
  334.718,353.479 338.879,355.118 343.04,356.79 347.201,358.495 351.362,360.232 355.523,362 359.684,363.796 363.845,365.621 368.006,367.47 372.167,369.341 
  376.328,371.232 380.488,373.144 384.649,375.073 388.81,377.018 392.971,378.977 397.132,380.947 401.293,382.925 405.454,384.912 409.615,386.904 413.776,388.901 
  417.937,390.899 422.097,392.897 426.258,394.892 430.419,396.883 434.58,398.868 438.741,400.844 442.902,402.81 447.063,404.764 451.224,406.703 455.385,408.627 
  459.546,410.533 463.706,412.418 467.867,414.282 472.028,416.121 476.189,417.935 480.35,419.723 484.511,421.481 488.672,423.208 492.833,424.903 496.994,426.562 
  501.155,428.185 505.315,429.771 509.476,431.319 513.637,432.826 517.798,434.291 521.959,435.711 526.12,437.085 530.281,438.412 534.442,439.694 538.603,440.926 
  542.764,442.108 546.924,443.237 551.085,444.313 555.246,445.334 559.407,446.302 563.568,447.216 567.729,448.072 571.89,448.871 576.051,449.61 580.212,450.289 
  584.373,450.907 588.534,451.469 592.694,451.969 596.855,452.408 601.016,452.783 605.177,453.095 609.338,453.343 613.499,453.531 617.66,453.657 621.821,453.719 
  625.982,453.717 630.143,453.651 634.303,453.521 638.464,453.327 642.625,453.073 646.786,452.757 650.947,452.377 655.108,451.935 659.269,451.43 663.43,450.862 
  667.591,450.237 671.752,449.553 675.912,448.809 680.073,448.006 684.234,447.145 688.395,446.225 692.556,445.249 696.717,444.221 700.878,443.139 705.039,442.004 
  709.2,440.817 713.361,439.577 717.521,438.287 721.682,436.951 725.843,435.57 730.004,434.142 734.165,432.671 738.326,431.156 742.487,429.599 746.648,428.002 
  750.809,426.37 754.97,424.702 759.13,422.999 763.291,421.262 767.452,419.493 771.613,417.694 775.774,415.87 779.935,414.02 784.096,412.146 788.257,410.249 
  792.418,408.332 796.579,406.396 800.74,404.444 804.9,402.478 809.061,400.5 813.222,398.512 817.383,396.515 821.544,394.511 825.705,392.502 829.866,390.491 
  834.027,388.48 838.188,386.471 842.349,384.465 846.509,382.464 850.67,380.471 854.831,378.488 858.992,376.516 863.153,374.557 867.314,372.614 871.475,370.689 
  875.636,368.783 879.797,366.899 883.958,365.037 888.118,363.199 892.279,361.389 896.44,359.608 900.601,357.857 904.762,356.139 908.923,354.454 913.084,352.804 
  917.245,351.192 921.406,349.618 925.567,348.085 929.727,346.595 933.888,345.149 938.049,343.746 942.21,342.389 946.371,341.08 950.532,339.82 954.693,338.611 
  958.854,337.454 963.015,336.351 967.176,335.298 971.336,334.3 975.497,333.359 979.658,332.475 983.819,331.649 987.98,330.883 992.141,330.174 996.302,329.524 
  1000.46,328.935 1004.62,328.407 1008.78,327.943 1012.95,327.541 1017.11,327.203 1021.27,326.924 1025.43,326.709 1029.59,326.557 1033.75,326.47 1037.91,326.448 
  1042.07,326.491 1046.23,326.595 1050.39,326.762 1054.55,326.992 1058.72,327.286 1062.88,327.644 1067.04,328.066 1071.2,328.551 1075.36,329.093 1079.52,329.697 
  1083.68,330.362 1087.84,331.088 1092,331.875 1096.16,332.721 1100.32,333.622 1104.49,334.579 1108.65,335.591 1112.81,336.659 1116.97,337.782 1121.13,338.959 
  1125.29,340.187 1129.45,341.462 1133.61,342.787 1137.77,344.159 1141.93,345.578 1146.09,347.043 1150.26,348.553 1154.42,350.103 1158.58,351.692 1162.74,353.319 
  1166.9,354.985 1171.06,356.686 1175.22,358.423 1179.38,360.191 1183.54,361.988 1187.7,363.813 1191.86,365.665 1196.03,367.543 1200.19,369.444 1204.35,371.367 
  1208.51,373.308 1212.67,375.265 1216.83,377.238 1220.99,379.224 1225.15,381.222 1229.31,383.23 1233.47,385.245 1237.63,387.265 1241.8,389.288 1245.96,391.312 
  1250.12,393.336 1254.28,395.357 1258.44,397.373 1262.6,399.382 1266.76,401.383 1270.92,403.373 1275.08,405.35 1279.24,407.312 1283.4,409.257 1287.57,411.183 
  1291.73,413.09 1295.89,414.974 1300.05,416.833 1304.21,418.666 1308.37,420.471 1312.53,422.245 1316.69,423.988 1320.85,425.699 1325.01,427.374 1329.17,429.012 
  1333.33,430.611 1337.5,432.17 1341.66,433.686 1345.82,435.162 1349.98,436.592 1354.14,437.977 1358.3,439.314 1362.46,440.601 1366.62,441.836 1370.78,443.023 
  1374.94,444.158 1379.1,445.239 1383.27,446.265 1387.43,447.234 1391.59,448.145 1395.75,448.999 1399.91,449.797 1404.07,450.535 1408.23,451.213 1412.39,451.83 
  1416.55,452.384 1420.71,452.875 1424.87,453.306 1429.04,453.675 1433.2,453.981 1437.36,454.223 1441.52,454.399 1445.68,454.511 1449.84,454.558 1454,454.544 
  1458.16,454.466 1462.32,454.324 1466.48,454.116 1470.64,453.844 1474.81,453.507 1478.97,453.109 1483.13,452.65 1487.29,452.128 1491.45,451.544 1495.61,450.897 
  1499.77,450.189 1503.93,449.42 1508.09,448.596 1512.25,447.713 1516.41,446.772 1520.58,445.774 1524.74,444.72 1528.9,443.609 1533.06,442.447 1537.22,441.235 
  1541.38,439.971 1545.54,438.657 1549.7,437.293 1553.86,435.881 1558.02,434.423 1562.18,432.924 1566.35,431.382 1570.51,429.799 1574.67,428.175 1578.83,426.512 
  1582.99,424.812 1587.15,423.079 1591.31,421.313 1595.47,419.517 1599.63,417.691 1603.79,415.836 1607.95,413.955 1612.12,412.049 1616.28,410.124 1620.44,408.179 
  1624.6,406.215 1628.76,404.235 1632.92,402.24 1637.08,400.232 1641.24,398.215 1645.4,396.19 1649.56,394.159 1653.72,392.124 1657.89,390.087 1662.05,388.049 
  1666.21,386.013 1670.37,383.981 1674.53,381.956 1678.69,379.938 1682.85,377.931 1687.01,375.936 1691.17,373.955 1695.33,371.989 1699.49,370.042 1703.66,368.115 
  1707.82,366.209 1711.98,364.328 1716.14,362.473 1720.3,360.645 1724.46,358.845 1728.62,357.077 1732.78,355.342 1736.94,353.642 1741.1,351.979 1745.26,350.354 
  1749.43,348.768 1753.59,347.223 1757.75,345.72 1761.91,344.262 1766.07,342.851 1770.23,341.488 1774.39,340.173 1778.55,338.906 1782.71,337.69 1786.87,336.527 
  1791.03,335.418 1795.2,334.364 1799.36,333.368 1803.52,332.426 1807.68,331.54 1811.84,330.714 1816,329.947 1820.16,329.241 1824.32,328.598 1828.48,328.016 
  1832.64,327.493 1836.8,327.033 1840.96,326.637 1845.13,326.304 1849.29,326.037 1853.45,325.836 1857.61,325.696 1861.77,325.619 1865.93,325.607 1870.09,325.661 
  1874.25,325.78 1878.41,325.964 1882.57,326.214 1886.73,326.524 1890.9,326.898 1895.06,327.335 1899.22,327.836 1903.38,328.401 1907.54,329.03 1911.7,329.717 
  1915.86,330.463 1920.02,331.269 1924.18,332.135 1928.34,333.06 1932.5,334.044 1936.67,335.085 1940.83,336.177 1944.99,337.324 1949.15,338.524 1953.31,339.776 
  1957.47,341.081 1961.63,342.436 1965.79,343.837 1969.95,345.283 1974.11,346.774 1978.27,348.31 1982.44,349.889 1986.6,351.509 1990.76,353.169 1994.92,354.863 
  1999.08,356.593 2003.24,358.357 2007.4,360.153 2011.56,361.981 2015.72,363.838 2019.88,365.721 2024.04,367.627 2028.21,369.557 2032.37,371.507 2036.53,373.477 
  2040.69,375.465 2044.85,377.469 2049.01,379.483 2053.17,381.509 2057.33,383.544 2061.49,385.587 2065.65,387.634 2069.81,389.685 2073.98,391.736 2078.14,393.786 
  2082.3,395.833 2086.46,397.874 2090.62,399.909 2094.78,401.934 2098.94,403.947 2103.1,405.948 2107.26,407.932 2111.42,409.9 2115.58,411.848 2119.75,413.775 
  2123.91,415.678 2128.07,417.557 2132.23,419.409 2136.39,421.232 2140.55,423.024 2144.71,424.784 2148.87,426.508 2153.03,428.197 2157.19,429.849 2161.35,431.463 
  2165.52,433.035 2169.68,434.564 2173.84,436.049 2178,437.487 2182.16,438.879 2186.32,440.225 2190.48,441.52 2194.64,442.764 2198.8,443.956 2202.96,445.092 
  2207.12,446.174 2211.29,447.203 2215.45,448.175 2219.61,449.089 2223.77,449.944 2227.93,450.738 2232.09,451.471 2236.25,452.145 2240.41,452.758 2244.57,453.31 
  2248.73,453.797 2252.89,454.221 2257.06,454.579 2261.22,454.872 2265.38,455.105 2269.54,455.273 2273.7,455.376 2277.86,455.413 2282.02,455.383 2286.18,455.287 
  2290.34,455.129 
  "/>
<polyline clip-path="url(#clip352)" style="stroke:#e26f46; stroke-linecap:round; stroke-linejoin:round; stroke-width:4; stroke-opacity:1; fill:none" points="
  209.891,737.362 214.052,743.67 218.213,749.969 222.374,756.255 226.535,762.521 230.696,768.761 234.857,774.971 239.018,781.138 243.179,787.262 247.34,793.342 
  251.5,799.362 255.661,805.321 259.822,811.216 263.983,817.038 268.144,822.78 272.305,828.438 276.466,834.005 280.627,839.477 284.788,844.846 288.949,850.111 
  293.109,855.265 297.27,860.302 301.431,865.216 305.592,870.002 309.753,874.654 313.914,879.169 318.075,883.55 322.236,887.785 326.397,891.87 330.558,895.799 
  334.718,899.567 338.879,903.17 343.04,906.616 347.201,909.895 351.362,913.002 355.523,915.932 359.684,918.681 363.845,921.246 368.006,923.628 372.167,925.832 
  376.328,927.849 380.488,929.674 384.649,931.306 388.81,932.74 392.971,933.974 397.132,935.021 401.293,935.875 405.454,936.529 409.615,936.982 413.776,937.234 
  417.937,937.28 422.097,937.127 426.258,936.786 430.419,936.244 434.58,935.503 438.741,934.561 442.902,933.418 447.063,932.073 451.224,930.544 455.385,928.825 
  459.546,926.914 463.706,924.812 467.867,922.519 472.028,920.036 476.189,917.369 480.35,914.534 484.511,911.52 488.672,908.331 492.833,904.969 496.994,901.434 
  501.155,897.731 505.315,893.876 509.476,889.867 513.637,885.705 517.798,881.392 521.959,876.932 526.12,872.328 530.281,867.588 534.442,862.727 538.603,857.739 
  542.764,852.63 546.924,847.403 551.085,842.062 555.246,836.612 559.407,831.069 563.568,825.435 567.729,819.71 571.89,813.902 576.051,808.015 580.212,802.054 
  584.373,796.027 588.534,789.946 592.694,783.811 596.855,777.629 601.016,771.405 605.177,765.145 609.338,758.854 613.499,752.544 617.66,746.219 621.821,739.884 
  625.982,733.545 630.143,727.209 634.303,720.881 638.464,714.569 642.625,708.279 646.786,702.018 650.947,695.792 655.108,689.606 659.269,683.467 663.43,677.381 
  667.591,671.354 671.752,665.391 675.912,659.5 680.073,653.686 684.234,647.955 688.395,642.314 692.556,636.768 696.717,631.318 700.878,625.973 705.039,620.739 
  709.2,615.622 713.361,610.627 717.521,605.762 721.682,601.022 725.843,596.415 730.004,591.95 734.165,587.63 738.326,583.461 742.487,579.448 746.648,575.592 
  750.809,571.891 754.97,568.354 759.13,564.986 763.291,561.793 767.452,558.777 771.613,555.943 775.774,553.282 779.935,550.802 784.096,548.509 788.257,546.405 
  792.418,544.495 796.579,542.781 800.74,541.262 804.9,539.929 809.061,538.793 813.222,537.856 817.383,537.12 821.544,536.589 825.705,536.263 829.866,536.129 
  834.027,536.191 838.188,536.456 842.349,536.923 846.509,537.594 850.67,538.469 854.831,539.543 858.992,540.804 863.153,542.262 867.314,543.916 871.475,545.766 
  875.636,547.811 879.797,550.052 883.958,552.471 888.118,555.07 892.279,557.853 896.44,560.818 900.601,563.962 904.762,567.284 908.923,570.777 913.084,574.427 
  917.245,578.24 921.406,582.214 925.567,586.346 929.727,590.632 933.888,595.07 938.049,599.643 942.21,604.351 946.371,609.193 950.532,614.165 954.693,619.263 
  958.854,624.483 963.015,629.818 967.176,635.253 971.336,640.79 975.497,646.426 979.658,652.154 983.819,657.971 987.98,663.871 992.141,669.84 996.302,675.876 
  1000.46,681.974 1004.62,688.128 1008.78,694.335 1012.95,700.586 1017.11,706.876 1021.27,713.194 1025.43,719.536 1029.59,725.897 1033.75,732.271 1037.91,738.652 
  1042.07,745.034 1046.23,751.407 1050.39,757.767 1054.55,764.107 1058.72,770.421 1062.88,776.703 1067.04,782.947 1071.2,789.146 1075.36,795.295 1079.52,801.387 
  1083.68,807.415 1087.84,813.374 1092,819.257 1096.16,825.058 1100.32,830.774 1104.49,836.399 1108.65,841.925 1112.81,847.347 1116.97,852.659 1121.13,857.854 
  1125.29,862.93 1129.45,867.886 1133.61,872.712 1137.77,877.402 1141.93,881.952 1146.09,886.356 1150.26,890.609 1154.42,894.715 1158.58,898.667 1162.74,902.457 
  1166.9,906.082 1171.06,909.537 1175.22,912.817 1179.38,915.921 1183.54,918.856 1187.7,921.61 1191.86,924.179 1196.03,926.56 1200.19,928.749 1204.35,930.742 
  1208.51,932.551 1212.67,934.168 1216.83,935.589 1220.99,936.81 1225.15,937.829 1229.31,938.643 1233.47,939.255 1237.63,939.677 1241.8,939.897 1245.96,939.913 
  1250.12,939.724 1254.28,939.33 1258.44,938.728 1262.6,937.934 1266.76,936.943 1270.92,935.753 1275.08,934.362 1279.24,932.771 1283.4,930.981 1287.57,928.995 
  1291.73,926.829 1295.89,924.473 1300.05,921.929 1304.21,919.198 1308.37,916.281 1312.53,913.18 1316.69,909.911 1320.85,906.473 1325.01,902.866 1329.17,899.091 
  1333.33,895.151 1337.5,891.048 1341.66,886.791 1345.82,882.394 1349.98,877.851 1354.14,873.166 1358.3,868.343 1362.46,863.385 1366.62,858.297 1370.78,853.093 
  1374.94,847.777 1379.1,842.349 1383.27,836.815 1387.43,831.178 1391.59,825.444 1395.75,819.62 1399.91,813.72 1404.07,807.743 1408.23,801.694 1412.39,795.579 
  1416.55,789.403 1420.71,783.172 1424.87,776.898 1429.04,770.585 1433.2,764.238 1437.36,757.863 1441.52,751.466 1445.68,745.052 1449.84,738.629 1454,732.207 
  1458.16,725.789 1462.32,719.382 1466.48,712.991 1470.64,706.624 1474.81,700.286 1478.97,693.985 1483.13,687.726 1487.29,681.516 1491.45,675.36 1495.61,669.267 
  1499.77,663.241 1503.93,657.289 1508.09,651.413 1512.25,645.623 1516.41,639.924 1520.58,634.322 1524.74,628.824 1528.9,623.435 1533.06,618.156 1537.22,612.993 
  1541.38,607.955 1545.54,603.046 1549.7,598.271 1553.86,593.638 1558.02,589.149 1562.18,584.8 1566.35,580.603 1570.51,576.562 1574.67,572.684 1578.83,568.972 
  1582.99,565.432 1587.15,562.056 1591.31,558.852 1595.47,555.827 1599.63,552.983 1603.79,550.326 1607.95,547.86 1612.12,545.583 1616.28,543.488 1620.44,541.586 
  1624.6,539.881 1628.76,538.375 1632.92,537.071 1637.08,535.972 1641.24,535.066 1645.4,534.358 1649.56,533.852 1653.72,533.552 1657.89,533.459 1662.05,533.573 
  1666.21,533.894 1670.37,534.405 1674.53,535.119 1678.69,536.037 1682.85,537.158 1687.01,538.483 1691.17,540.013 1695.33,541.732 1699.49,543.641 1703.66,545.745 
  1707.82,548.042 1711.98,550.532 1716.14,553.213 1720.3,556.081 1724.46,559.118 1728.62,562.334 1732.78,565.726 1736.94,569.293 1741.1,573.031 1745.26,576.939 
  1749.43,581 1753.59,585.214 1757.75,589.581 1761.91,594.097 1766.07,598.76 1770.23,603.566 1774.39,608.508 1778.55,613.569 1782.71,618.755 1786.87,624.061 
  1791.03,629.482 1795.2,635.015 1799.36,640.655 1803.52,646.386 1807.68,652.206 1811.84,658.112 1816,664.099 1820.16,670.162 1824.32,676.295 1828.48,682.491 
  1832.64,688.737 1836.8,695.032 1840.96,701.371 1845.13,707.748 1849.29,714.157 1853.45,720.591 1857.61,727.04 1861.77,733.5 1865.93,739.964 1870.09,746.427 
  1874.25,752.882 1878.41,759.323 1882.57,765.743 1886.73,772.135 1890.9,778.493 1895.06,784.811 1899.22,791.082 1903.38,797.3 1907.54,803.458 1911.7,809.553 
  1915.86,815.576 1920.02,821.523 1924.18,827.385 1928.34,833.158 1932.5,838.834 1936.67,844.41 1940.83,849.883 1944.99,855.244 1949.15,860.488 1953.31,865.609 
  1957.47,870.6 1961.63,875.457 1965.79,880.18 1969.95,884.764 1974.11,889.201 1978.27,893.485 1982.44,897.613 1986.6,901.577 1990.76,905.377 1994.92,909.019 
  1999.08,912.489 2003.24,915.783 2007.4,918.898 2011.56,921.829 2015.72,924.572 2019.88,927.135 2024.04,929.513 2028.21,931.699 2032.37,933.689 2036.53,935.481 
  2040.69,937.07 2044.85,938.459 2049.01,939.658 2053.17,940.655 2057.33,941.449 2061.49,942.036 2065.65,942.414 2069.81,942.583 2073.98,942.555 2078.14,942.327 
  2082.3,941.894 2086.46,941.254 2090.62,940.407 2094.78,939.353 2098.94,938.095 2103.1,936.648 2107.26,935.002 2111.42,933.157 2115.58,931.114 2119.75,928.874 
  2123.91,926.436 2128.07,923.817 2132.23,921.016 2136.39,918.031 2140.55,914.864 2144.71,911.515 2148.87,907.988 2153.03,904.288 2157.19,900.432 2161.35,896.413 
  2165.52,892.233 2169.68,887.895 2173.84,883.404 2178,878.761 2182.16,873.983 2186.32,869.072 2190.48,864.029 2194.64,858.857 2198.8,853.56 2202.96,848.143 
  2207.12,842.614 2211.29,836.987 2215.45,831.259 2219.61,825.437 2223.77,819.524 2227.93,813.526 2232.09,807.448 2236.25,801.303 2240.41,795.096 2244.57,788.831 
  2248.73,782.513 2252.89,776.147 2257.06,769.74 2261.22,763.299 2265.38,756.835 2269.54,750.351 2273.7,743.853 2277.86,737.346 2282.02,730.839 2286.18,724.336 
  2290.34,717.846 
  "/>
<polyline clip-path="url(#clip352)" style="stroke:#3da44d; stroke-linecap:round; stroke-linejoin:round; stroke-width:4; stroke-opacity:1; fill:none" points="
  209.891,1368.39 214.052,1368.04 218.213,1367.07 222.374,1365.49 226.535,1363.28 230.696,1360.45 234.857,1357 239.018,1352.94 243.179,1348.26 247.34,1342.97 
  251.5,1337.07 255.661,1330.58 259.822,1323.49 263.983,1315.82 268.144,1307.57 272.305,1298.75 276.466,1289.37 280.627,1279.44 284.788,1268.96 288.949,1257.96 
  293.109,1246.45 297.27,1234.44 301.431,1221.92 305.592,1208.92 309.753,1195.43 313.914,1181.49 318.075,1167.14 322.236,1152.35 326.397,1137.14 330.558,1121.53 
  334.718,1105.52 338.879,1089.13 343.04,1072.41 347.201,1055.36 351.362,1037.99 355.523,1020.32 359.684,1002.35 363.845,984.104 368.006,965.61 372.167,946.906 
  376.328,927.989 380.488,908.877 384.649,889.587 388.81,870.137 392.971,850.544 397.132,830.847 401.293,811.059 405.454,791.193 409.615,771.269 413.776,751.306 
  417.937,731.323 422.097,711.342 426.258,691.391 430.419,671.483 434.58,651.638 438.741,631.875 442.902,612.214 447.063,592.676 451.224,573.278 455.385,554.041 
  459.546,534.985 463.706,516.13 467.867,497.495 472.028,479.099 476.189,460.959 480.35,443.084 484.511,425.502 488.672,408.229 492.833,391.286 496.994,374.691 
  501.155,358.463 505.315,342.598 509.476,327.12 513.637,312.05 517.798,297.407 521.959,283.207 526.12,269.467 530.281,256.193 534.442,243.377 538.603,231.053 
  542.764,219.236 546.924,207.94 551.085,197.181 555.246,186.973 559.407,177.289 563.568,168.154 567.729,159.589 571.89,151.605 576.051,144.213 580.212,137.426 
  584.373,131.238 588.534,125.624 592.694,120.621 596.855,116.237 601.016,112.481 605.177,109.359 609.338,106.882 613.499,105.003 617.66,103.745 621.821,103.122 
  625.982,103.139 630.143,103.799 634.303,105.106 638.464,107.048 642.625,109.583 646.786,112.747 650.947,116.54 655.108,120.961 659.269,126.011 663.43,131.69 
  667.591,137.943 671.752,144.785 675.912,152.221 680.073,160.249 684.234,168.865 688.395,178.064 692.556,187.825 696.717,198.102 700.878,208.92 705.039,220.271 
  709.2,232.148 713.361,244.541 717.521,257.445 721.682,270.802 725.843,284.617 730.004,298.888 734.165,313.604 738.326,328.754 742.487,344.325 746.648,360.293 
  750.809,376.612 754.97,393.295 759.13,410.327 763.291,427.693 767.452,445.378 771.613,463.369 775.774,481.617 779.935,500.116 784.096,518.856 788.257,537.82 
  792.418,556.99 796.579,576.35 800.74,595.876 804.9,615.529 809.061,635.308 813.222,655.192 817.383,675.164 821.544,695.204 825.705,715.294 829.866,735.401 
  834.027,755.51 838.188,775.604 842.349,795.664 846.509,815.669 850.67,835.599 854.831,855.435 858.992,875.154 863.153,894.738 867.314,914.168 871.475,933.422 
  875.636,952.482 879.797,971.327 883.958,989.947 888.118,1008.32 892.279,1026.42 896.44,1044.24 900.601,1061.75 904.762,1078.93 908.923,1095.77 913.084,1112.27 
  917.245,1128.4 921.406,1144.13 925.567,1159.46 929.727,1174.36 933.888,1188.82 938.049,1202.85 942.21,1216.42 946.371,1229.51 950.532,1242.11 954.693,1254.2 
  958.854,1265.77 963.015,1276.81 967.176,1287.33 971.336,1297.31 975.497,1306.72 979.658,1315.57 983.819,1323.82 987.98,1331.48 992.141,1338.57 996.302,1345.07 
  1000.46,1350.96 1004.62,1356.24 1008.78,1360.89 1012.95,1364.9 1017.11,1368.28 1021.27,1371.07 1025.43,1373.23 1029.59,1374.74 1033.75,1375.61 1037.91,1375.83 
  1042.07,1375.4 1046.23,1374.36 1050.39,1372.7 1054.55,1370.39 1058.72,1367.45 1062.88,1363.87 1067.04,1359.65 1071.2,1354.81 1075.36,1349.38 1079.52,1343.34 
  1083.68,1336.69 1087.84,1329.43 1092,1321.57 1096.16,1313.1 1100.32,1304.09 1104.49,1294.53 1108.65,1284.4 1112.81,1273.72 1116.97,1262.49 1121.13,1250.73 
  1125.29,1238.44 1129.45,1225.69 1133.61,1212.45 1137.77,1198.72 1141.93,1184.53 1146.09,1169.88 1150.26,1154.78 1154.42,1139.29 1158.58,1123.4 1162.74,1107.12 
  1166.9,1090.47 1171.06,1073.45 1175.22,1056.09 1179.38,1038.4 1183.54,1020.43 1187.7,1002.18 1191.86,983.659 1196.03,964.885 1200.19,945.874 1204.35,926.644 
  1208.51,907.236 1212.67,887.662 1216.83,867.934 1220.99,848.071 1225.15,828.091 1229.31,808.013 1233.47,787.86 1237.63,767.664 1241.8,747.436 1245.96,727.193 
  1250.12,706.957 1254.28,686.747 1258.44,666.582 1262.6,646.488 1266.76,626.483 1270.92,606.585 1275.08,586.816 1279.24,567.196 1283.4,547.743 1287.57,528.478 
  1291.73,509.414 1295.89,490.575 1300.05,471.981 1304.21,453.652 1308.37,435.607 1312.53,417.865 1316.69,400.431 1320.85,383.327 1325.01,366.575 1329.17,350.194 
  1333.33,334.202 1337.5,318.617 1341.66,303.45 1345.82,288.696 1349.98,274.388 1354.14,260.543 1358.3,247.177 1362.46,234.307 1366.62,221.949 1370.78,210.084 
  1374.94,198.736 1379.1,187.925 1383.27,177.667 1387.43,167.973 1391.59,158.859 1395.75,150.325 1399.91,142.345 1404.07,134.96 1408.23,128.178 1412.39,122.012 
  1416.55,116.47 1420.71,111.563 1424.87,107.254 1429.04,103.561 1433.2,100.504 1437.36,98.0872 1441.52,96.3187 1445.68,95.2046 1449.84,94.7363 1454,94.8726 
  1458.16,95.6517 1462.32,97.0759 1466.48,99.1477 1470.64,101.87 1474.81,105.244 1478.97,109.222 1483.13,113.814 1487.29,119.031 1491.45,124.873 1495.61,131.338 
  1499.77,138.423 1503.93,146.112 1508.09,154.356 1512.25,163.184 1516.41,172.59 1520.58,182.57 1524.74,193.116 1528.9,204.224 1533.06,215.841 1537.22,227.966 
  1541.38,240.604 1545.54,253.745 1549.7,267.379 1553.86,281.498 1558.02,296.078 1562.18,311.069 1566.35,326.489 1570.51,342.325 1574.67,358.563 1578.83,375.19 
  1582.99,392.195 1587.15,409.527 1591.31,427.179 1595.47,445.144 1599.63,463.408 1603.79,481.953 1607.95,500.764 1612.12,519.818 1616.28,539.071 1620.44,558.526 
  1624.6,578.163 1628.76,597.965 1632.92,617.914 1637.08,637.992 1641.24,658.162 1645.4,678.409 1649.56,698.719 1653.72,719.071 1657.89,739.446 1662.05,759.825 
  1666.21,780.185 1670.37,800.5 1674.53,820.754 1678.69,840.928 1682.85,861.002 1687.01,880.954 1691.17,900.766 1695.33,920.419 1699.49,939.893 1703.66,959.166 
  1707.82,978.22 1711.98,997.034 1716.14,1015.59 1720.3,1033.86 1724.46,1051.86 1728.62,1069.54 1732.78,1086.89 1736.94,1103.89 1741.1,1120.52 1745.26,1136.77 
  1749.43,1152.63 1753.59,1168.08 1757.75,1183.11 1761.91,1197.69 1766.07,1211.8 1770.23,1225.44 1774.39,1238.58 1778.55,1251.25 1782.71,1263.41 1786.87,1275.05 
  1791.03,1286.14 1795.2,1296.67 1799.36,1306.64 1803.52,1316.06 1807.68,1324.91 1811.84,1333.18 1816,1340.84 1820.16,1347.9 1824.32,1354.34 1828.48,1360.15 
  1832.64,1365.38 1836.8,1369.98 1840.96,1373.95 1845.13,1377.27 1849.29,1379.94 1853.45,1381.96 1857.61,1383.35 1861.77,1384.12 1865.93,1384.24 1870.09,1383.7 
  1874.25,1382.52 1878.41,1380.67 1882.57,1378.17 1886.73,1375.07 1890.9,1371.34 1895.06,1366.96 1899.22,1361.95 1903.38,1356.3 1907.54,1350.02 1911.7,1343.14 
  1915.86,1335.68 1920.02,1327.62 1924.18,1318.96 1928.34,1309.71 1932.5,1299.87 1936.67,1289.46 1940.83,1278.54 1944.99,1267.08 1949.15,1255.08 1953.31,1242.55 
  1957.47,1229.51 1961.63,1215.95 1965.79,1201.95 1969.95,1187.48 1974.11,1172.57 1978.27,1157.21 1982.44,1141.43 1986.6,1125.22 1990.76,1108.63 1994.92,1091.69 
  1999.08,1074.39 2003.24,1056.75 2007.4,1038.78 2011.56,1020.5 2015.72,1001.93 2019.88,983.105 2024.04,964.041 2028.21,944.746 2032.37,925.24 2036.53,905.538 
  2040.69,885.659 2044.85,865.626 2049.01,845.479 2053.17,825.22 2057.33,804.869 2061.49,784.446 2065.65,763.971 2069.81,743.461 2073.98,722.948 2078.14,702.45 
  2082.3,681.983 2086.46,661.569 2090.62,641.226 2094.78,620.977 2098.94,600.84 2103.1,580.837 2107.26,560.988 2111.42,541.312 2115.58,521.831 2119.75,502.564 
  2123.91,483.532 2128.07,464.746 2132.23,446.226 2136.39,427.994 2140.55,410.072 2144.71,392.477 2148.87,375.229 2153.03,358.343 2157.19,341.818 2161.35,325.686 
  2165.52,309.964 2169.68,294.672 2173.84,279.826 2178,265.445 2182.16,251.518 2186.32,238.064 2190.48,225.11 2194.64,212.669 2198.8,200.757 2202.96,189.39 
  2207.12,178.574 2211.29,168.285 2215.45,158.564 2219.61,149.423 2223.77,140.874 2227.93,132.93 2232.09,125.603 2236.25,118.864 2240.41,112.728 2244.57,107.217 
  2248.73,102.34 2252.89,98.1058 2257.06,94.5232 2261.22,91.5893 2265.38,89.2618 2269.54,87.5821 2273.7,86.5551 2277.86,86.1857 2282.02,86.4787 2286.18,87.4391 
  2290.34,89.0237 
  "/>
<path clip-path="url(#clip350)" d="
M1574.83 1377.32 L2279.25 1377.32 L2279.25 1169.96 L1574.83 1169.96  Z
  " fill="#ffffff" fill-rule="evenodd" fill-opacity="1"/>
<polyline clip-path="url(#clip350)" style="stroke:#000000; stroke-linecap:round; stroke-linejoin:round; stroke-width:4; stroke-opacity:1; fill:none" points="
  1574.83,1377.32 2279.25,1377.32 2279.25,1169.96 1574.83,1169.96 1574.83,1377.32 
  "/>
<polyline clip-path="url(#clip350)" style="stroke:#009af9; stroke-linecap:round; stroke-linejoin:round; stroke-width:4; stroke-opacity:1; fill:none" points="
  1599.34,1221.8 1746.35,1221.8 
  "/>
<path clip-path="url(#clip350)" d="M1791.2 1218.13 Q1792.8 1215.26 1795.02 1213.89 Q1797.25 1212.52 1800.26 1212.52 Q1804.31 1212.52 1806.51 1215.37 Q1808.7 1218.2 1808.7 1223.43 L1808.7 1239.08 L1804.42 1239.08 L1804.42 1223.57 Q1804.42 1219.84 1803.1 1218.03 Q1801.78 1216.23 1799.07 1216.23 Q1795.76 1216.23 1793.84 1218.43 Q1791.92 1220.63 1791.92 1224.42 L1791.92 1239.08 L1787.64 1239.08 L1787.64 1223.57 Q1787.64 1219.82 1786.32 1218.03 Q1785 1216.23 1782.25 1216.23 Q1778.98 1216.23 1777.06 1218.45 Q1775.14 1220.65 1775.14 1224.42 L1775.14 1239.08 L1770.86 1239.08 L1770.86 1213.15 L1775.14 1213.15 L1775.14 1217.18 Q1776.6 1214.79 1778.63 1213.66 Q1780.67 1212.52 1783.47 1212.52 Q1786.3 1212.52 1788.26 1213.96 Q1790.26 1215.39 1791.2 1218.13 Z" fill="#000000" fill-rule="evenodd" fill-opacity="1" /><path clip-path="url(#clip350)" d="M1828.98 1226.04 Q1823.82 1226.04 1821.83 1227.22 Q1819.84 1228.4 1819.84 1231.25 Q1819.84 1233.52 1821.32 1234.86 Q1822.82 1236.18 1825.39 1236.18 Q1828.94 1236.18 1831.07 1233.68 Q1833.22 1231.16 1833.22 1226.99 L1833.22 1226.04 L1828.98 1226.04 M1837.48 1224.28 L1837.48 1239.08 L1833.22 1239.08 L1833.22 1235.14 Q1831.76 1237.5 1829.58 1238.64 Q1827.41 1239.75 1824.26 1239.75 Q1820.28 1239.75 1817.92 1237.52 Q1815.58 1235.28 1815.58 1231.53 Q1815.58 1227.15 1818.5 1224.93 Q1821.44 1222.71 1827.25 1222.71 L1833.22 1222.71 L1833.22 1222.29 Q1833.22 1219.35 1831.27 1217.76 Q1829.35 1216.14 1825.86 1216.14 Q1823.63 1216.14 1821.53 1216.67 Q1819.42 1217.2 1817.48 1218.27 L1817.48 1214.33 Q1819.82 1213.43 1822.01 1212.99 Q1824.21 1212.52 1826.3 1212.52 Q1831.92 1212.52 1834.7 1215.44 Q1837.48 1218.36 1837.48 1224.28 Z" fill="#000000" fill-rule="evenodd" fill-opacity="1" /><path clip-path="url(#clip350)" d="M1862.78 1213.91 L1862.78 1217.94 Q1860.97 1217.02 1859.03 1216.55 Q1857.08 1216.09 1855 1216.09 Q1851.83 1216.09 1850.23 1217.06 Q1848.66 1218.03 1848.66 1219.98 Q1848.66 1221.46 1849.79 1222.32 Q1850.93 1223.15 1854.35 1223.91 L1855.81 1224.24 Q1860.35 1225.21 1862.25 1226.99 Q1864.17 1228.75 1864.17 1231.92 Q1864.17 1235.53 1861.3 1237.64 Q1858.45 1239.75 1853.45 1239.75 Q1851.37 1239.75 1849.1 1239.33 Q1846.85 1238.94 1844.35 1238.13 L1844.35 1233.73 Q1846.71 1234.95 1849 1235.58 Q1851.3 1236.18 1853.54 1236.18 Q1856.55 1236.18 1858.17 1235.16 Q1859.79 1234.12 1859.79 1232.25 Q1859.79 1230.51 1858.61 1229.58 Q1857.45 1228.66 1853.5 1227.8 L1852.01 1227.46 Q1848.06 1226.62 1846.3 1224.91 Q1844.54 1223.17 1844.54 1220.16 Q1844.54 1216.51 1847.13 1214.52 Q1849.72 1212.52 1854.49 1212.52 Q1856.85 1212.52 1858.94 1212.87 Q1861.02 1213.22 1862.78 1213.91 Z" fill="#000000" fill-rule="evenodd" fill-opacity="1" /><path clip-path="url(#clip350)" d="M1887.48 1213.91 L1887.48 1217.94 Q1885.67 1217.02 1883.73 1216.55 Q1881.78 1216.09 1879.7 1216.09 Q1876.53 1216.09 1874.93 1217.06 Q1873.36 1218.03 1873.36 1219.98 Q1873.36 1221.46 1874.49 1222.32 Q1875.63 1223.15 1879.05 1223.91 L1880.51 1224.24 Q1885.05 1225.21 1886.94 1226.99 Q1888.87 1228.75 1888.87 1231.92 Q1888.87 1235.53 1886 1237.64 Q1883.15 1239.75 1878.15 1239.75 Q1876.07 1239.75 1873.8 1239.33 Q1871.55 1238.94 1869.05 1238.13 L1869.05 1233.73 Q1871.41 1234.95 1873.7 1235.58 Q1876 1236.18 1878.24 1236.18 Q1881.25 1236.18 1882.87 1235.16 Q1884.49 1234.12 1884.49 1232.25 Q1884.49 1230.51 1883.31 1229.58 Q1882.15 1228.66 1878.19 1227.8 L1876.71 1227.46 Q1872.75 1226.62 1871 1224.91 Q1869.24 1223.17 1869.24 1220.16 Q1869.24 1216.51 1871.83 1214.52 Q1874.42 1212.52 1879.19 1212.52 Q1881.55 1212.52 1883.63 1212.87 Q1885.72 1213.22 1887.48 1213.91 Z" fill="#000000" fill-rule="evenodd" fill-opacity="1" /><path clip-path="url(#clip350)" d="M1896.25 1233.2 L1901.13 1233.2 L1901.13 1239.08 L1896.25 1239.08 L1896.25 1233.2 Z" fill="#000000" fill-rule="evenodd" fill-opacity="1" /><path clip-path="url(#clip350)" d="M1927.25 1213.91 L1927.25 1217.94 Q1925.44 1217.02 1923.5 1216.55 Q1921.55 1216.09 1919.47 1216.09 Q1916.3 1216.09 1914.7 1217.06 Q1913.13 1218.03 1913.13 1219.98 Q1913.13 1221.46 1914.26 1222.32 Q1915.39 1223.15 1918.82 1223.91 L1920.28 1224.24 Q1924.81 1225.21 1926.71 1226.99 Q1928.63 1228.75 1928.63 1231.92 Q1928.63 1235.53 1925.76 1237.64 Q1922.92 1239.75 1917.92 1239.75 Q1915.83 1239.75 1913.56 1239.33 Q1911.32 1238.94 1908.82 1238.13 L1908.82 1233.73 Q1911.18 1234.95 1913.47 1235.58 Q1915.76 1236.18 1918.01 1236.18 Q1921.02 1236.18 1922.64 1235.16 Q1924.26 1234.12 1924.26 1232.25 Q1924.26 1230.51 1923.08 1229.58 Q1921.92 1228.66 1917.96 1227.8 L1916.48 1227.46 Q1912.52 1226.62 1910.76 1224.91 Q1909 1223.17 1909 1220.16 Q1909 1216.51 1911.6 1214.52 Q1914.19 1212.52 1918.96 1212.52 Q1921.32 1212.52 1923.4 1212.87 Q1925.49 1213.22 1927.25 1213.91 Z" fill="#000000" fill-rule="evenodd" fill-opacity="1" /><path clip-path="url(#clip350)" d="M1960.72 1203.1 Q1957.62 1208.43 1956.11 1213.64 Q1954.61 1218.84 1954.61 1224.19 Q1954.61 1229.54 1956.11 1234.79 Q1957.64 1240.02 1960.72 1245.33 L1957.01 1245.33 Q1953.54 1239.89 1951.81 1234.63 Q1950.09 1229.38 1950.09 1224.19 Q1950.09 1219.03 1951.81 1213.8 Q1953.52 1208.57 1957.01 1203.1 L1960.72 1203.1 Z" fill="#000000" fill-rule="evenodd" fill-opacity="1" /><path clip-path="url(#clip350)" d="M1983.75 1220.44 Q1987.11 1221.16 1988.98 1223.43 Q1990.88 1225.7 1990.88 1229.03 Q1990.88 1234.14 1987.36 1236.95 Q1983.84 1239.75 1977.36 1239.75 Q1975.18 1239.75 1972.87 1239.31 Q1970.58 1238.89 1968.12 1238.03 L1968.12 1233.52 Q1970.07 1234.65 1972.38 1235.23 Q1974.7 1235.81 1977.22 1235.81 Q1981.62 1235.81 1983.91 1234.08 Q1986.23 1232.34 1986.23 1229.03 Q1986.23 1225.97 1984.07 1224.26 Q1981.94 1222.52 1978.12 1222.52 L1974.1 1222.52 L1974.1 1218.68 L1978.31 1218.68 Q1981.76 1218.68 1983.59 1217.32 Q1985.42 1215.93 1985.42 1213.33 Q1985.42 1210.67 1983.52 1209.26 Q1981.64 1207.83 1978.12 1207.83 Q1976.2 1207.83 1974 1208.24 Q1971.81 1208.66 1969.17 1209.54 L1969.17 1205.37 Q1971.83 1204.63 1974.14 1204.26 Q1976.48 1203.89 1978.54 1203.89 Q1983.87 1203.89 1986.97 1206.32 Q1990.07 1208.73 1990.07 1212.85 Q1990.07 1215.72 1988.43 1217.71 Q1986.78 1219.68 1983.75 1220.44 Z" fill="#000000" fill-rule="evenodd" fill-opacity="1" /><path clip-path="url(#clip350)" d="M2013.91 1220.44 Q2017.27 1221.16 2019.14 1223.43 Q2021.04 1225.7 2021.04 1229.03 Q2021.04 1234.14 2017.52 1236.95 Q2014 1239.75 2007.52 1239.75 Q2005.35 1239.75 2003.03 1239.31 Q2000.74 1238.89 1998.29 1238.03 L1998.29 1233.52 Q2000.23 1234.65 2002.55 1235.23 Q2004.86 1235.81 2007.38 1235.81 Q2011.78 1235.81 2014.07 1234.08 Q2016.39 1232.34 2016.39 1229.03 Q2016.39 1225.97 2014.24 1224.26 Q2012.11 1222.52 2008.29 1222.52 L2004.26 1222.52 L2004.26 1218.68 L2008.47 1218.68 Q2011.92 1218.68 2013.75 1217.32 Q2015.58 1215.93 2015.58 1213.33 Q2015.58 1210.67 2013.68 1209.26 Q2011.81 1207.83 2008.29 1207.83 Q2006.37 1207.83 2004.17 1208.24 Q2001.97 1208.66 1999.33 1209.54 L1999.33 1205.37 Q2001.99 1204.63 2004.31 1204.26 Q2006.64 1203.89 2008.7 1203.89 Q2014.03 1203.89 2017.13 1206.32 Q2020.23 1208.73 2020.23 1212.85 Q2020.23 1215.72 2018.59 1217.71 Q2016.94 1219.68 2013.91 1220.44 Z" fill="#000000" fill-rule="evenodd" fill-opacity="1" /><path clip-path="url(#clip350)" d="M2029.95 1204.52 L2048.31 1204.52 L2048.31 1208.45 L2034.24 1208.45 L2034.24 1216.92 Q2035.25 1216.58 2036.27 1216.41 Q2037.29 1216.23 2038.31 1216.23 Q2044.1 1216.23 2047.48 1219.4 Q2050.86 1222.57 2050.86 1227.99 Q2050.86 1233.57 2047.38 1236.67 Q2043.91 1239.75 2037.59 1239.75 Q2035.42 1239.75 2033.15 1239.38 Q2030.9 1239.01 2028.49 1238.27 L2028.49 1233.57 Q2030.58 1234.7 2032.8 1235.26 Q2035.02 1235.81 2037.5 1235.81 Q2041.5 1235.81 2043.84 1233.7 Q2046.18 1231.6 2046.18 1227.99 Q2046.18 1224.38 2043.84 1222.27 Q2041.5 1220.16 2037.5 1220.16 Q2035.62 1220.16 2033.75 1220.58 Q2031.9 1221 2029.95 1221.88 L2029.95 1204.52 Z" fill="#000000" fill-rule="evenodd" fill-opacity="1" /><path clip-path="url(#clip350)" d="M2060.11 1204.52 L2078.47 1204.52 L2078.47 1208.45 L2064.4 1208.45 L2064.4 1216.92 Q2065.42 1216.58 2066.43 1216.41 Q2067.45 1216.23 2068.47 1216.23 Q2074.26 1216.23 2077.64 1219.4 Q2081.02 1222.57 2081.02 1227.99 Q2081.02 1233.57 2077.55 1236.67 Q2074.07 1239.75 2067.75 1239.75 Q2065.58 1239.75 2063.31 1239.38 Q2061.06 1239.01 2058.66 1238.27 L2058.66 1233.57 Q2060.74 1234.7 2062.96 1235.26 Q2065.18 1235.81 2067.66 1235.81 Q2071.67 1235.81 2074 1233.7 Q2076.34 1231.6 2076.34 1227.99 Q2076.34 1224.38 2074 1222.27 Q2071.67 1220.16 2067.66 1220.16 Q2065.79 1220.16 2063.91 1220.58 Q2062.06 1221 2060.11 1221.88 L2060.11 1204.52 Z" fill="#000000" fill-rule="evenodd" fill-opacity="1" /><path clip-path="url(#clip350)" d="M2103.08 1208.59 L2091.27 1227.04 L2103.08 1227.04 L2103.08 1208.59 M2101.85 1204.52 L2107.73 1204.52 L2107.73 1227.04 L2112.66 1227.04 L2112.66 1230.93 L2107.73 1230.93 L2107.73 1239.08 L2103.08 1239.08 L2103.08 1230.93 L2087.48 1230.93 L2087.48 1226.41 L2101.85 1204.52 Z" fill="#000000" fill-rule="evenodd" fill-opacity="1" /><path clip-path="url(#clip350)" d="M2133.24 1208.59 L2121.43 1227.04 L2133.24 1227.04 L2133.24 1208.59 M2132.01 1204.52 L2137.89 1204.52 L2137.89 1227.04 L2142.82 1227.04 L2142.82 1230.93 L2137.89 1230.93 L2137.89 1239.08 L2133.24 1239.08 L2133.24 1230.93 L2117.64 1230.93 L2117.64 1226.41 L2132.01 1204.52 Z" fill="#000000" fill-rule="evenodd" fill-opacity="1" /><path clip-path="url(#clip350)" d="M2164.72 1220.44 Q2168.08 1221.16 2169.95 1223.43 Q2171.85 1225.7 2171.85 1229.03 Q2171.85 1234.14 2168.33 1236.95 Q2164.81 1239.75 2158.33 1239.75 Q2156.16 1239.75 2153.84 1239.31 Q2151.55 1238.89 2149.1 1238.03 L2149.1 1233.52 Q2151.04 1234.65 2153.36 1235.23 Q2155.67 1235.81 2158.19 1235.81 Q2162.59 1235.81 2164.88 1234.08 Q2167.2 1232.34 2167.2 1229.03 Q2167.2 1225.97 2165.04 1224.26 Q2162.92 1222.52 2159.1 1222.52 L2155.07 1222.52 L2155.07 1218.68 L2159.28 1218.68 Q2162.73 1218.68 2164.56 1217.32 Q2166.39 1215.93 2166.39 1213.33 Q2166.39 1210.67 2164.49 1209.26 Q2162.61 1207.83 2159.1 1207.83 Q2157.17 1207.83 2154.98 1208.24 Q2152.78 1208.66 2150.14 1209.54 L2150.14 1205.37 Q2152.8 1204.63 2155.11 1204.26 Q2157.45 1203.89 2159.51 1203.89 Q2164.84 1203.89 2167.94 1206.32 Q2171.04 1208.73 2171.04 1212.85 Q2171.04 1215.72 2169.4 1217.71 Q2167.75 1219.68 2164.72 1220.44 Z" fill="#000000" fill-rule="evenodd" fill-opacity="1" /><path clip-path="url(#clip350)" d="M2184.74 1235.14 L2201.06 1235.14 L2201.06 1239.08 L2179.12 1239.08 L2179.12 1235.14 Q2181.78 1232.39 2186.36 1227.76 Q2190.97 1223.1 2192.15 1221.76 Q2194.4 1219.24 2195.28 1217.5 Q2196.18 1215.74 2196.18 1214.05 Q2196.18 1211.3 2194.23 1209.56 Q2192.31 1207.83 2189.21 1207.83 Q2187.01 1207.83 2184.56 1208.59 Q2182.13 1209.35 2179.35 1210.9 L2179.35 1206.18 Q2182.17 1205.05 2184.63 1204.47 Q2187.08 1203.89 2189.12 1203.89 Q2194.49 1203.89 2197.68 1206.58 Q2200.88 1209.26 2200.88 1213.75 Q2200.88 1215.88 2200.07 1217.8 Q2199.28 1219.7 2197.17 1222.29 Q2196.6 1222.96 2193.49 1226.18 Q2190.39 1229.38 2184.74 1235.14 Z" fill="#000000" fill-rule="evenodd" fill-opacity="1" /><path clip-path="url(#clip350)" d="M2209.6 1203.1 L2213.31 1203.1 Q2216.78 1208.57 2218.49 1213.8 Q2220.23 1219.03 2220.23 1224.19 Q2220.23 1229.38 2218.49 1234.63 Q2216.78 1239.89 2213.31 1245.33 L2209.6 1245.33 Q2212.68 1240.02 2214.19 1234.79 Q2215.72 1229.54 2215.72 1224.19 Q2215.72 1218.84 2214.19 1213.64 Q2212.68 1208.43 2209.6 1203.1 Z" fill="#000000" fill-rule="evenodd" fill-opacity="1" /><polyline clip-path="url(#clip350)" style="stroke:#e26f46; stroke-linecap:round; stroke-linejoin:round; stroke-width:4; stroke-opacity:1; fill:none" points="
  1599.34,1273.64 1746.35,1273.64 
  "/>
<path clip-path="url(#clip350)" d="M1791.2 1269.97 Q1792.8 1267.1 1795.02 1265.73 Q1797.25 1264.36 1800.26 1264.36 Q1804.31 1264.36 1806.51 1267.21 Q1808.7 1270.04 1808.7 1275.27 L1808.7 1290.92 L1804.42 1290.92 L1804.42 1275.41 Q1804.42 1271.68 1803.1 1269.87 Q1801.78 1268.07 1799.07 1268.07 Q1795.76 1268.07 1793.84 1270.27 Q1791.92 1272.47 1791.92 1276.26 L1791.92 1290.92 L1787.64 1290.92 L1787.64 1275.41 Q1787.64 1271.66 1786.32 1269.87 Q1785 1268.07 1782.25 1268.07 Q1778.98 1268.07 1777.06 1270.29 Q1775.14 1272.49 1775.14 1276.26 L1775.14 1290.92 L1770.86 1290.92 L1770.86 1264.99 L1775.14 1264.99 L1775.14 1269.02 Q1776.6 1266.63 1778.63 1265.5 Q1780.67 1264.36 1783.47 1264.36 Q1786.3 1264.36 1788.26 1265.8 Q1790.26 1267.23 1791.2 1269.97 Z" fill="#000000" fill-rule="evenodd" fill-opacity="1" /><path clip-path="url(#clip350)" d="M1828.98 1277.88 Q1823.82 1277.88 1821.83 1279.06 Q1819.84 1280.24 1819.84 1283.09 Q1819.84 1285.36 1821.32 1286.7 Q1822.82 1288.02 1825.39 1288.02 Q1828.94 1288.02 1831.07 1285.52 Q1833.22 1283 1833.22 1278.83 L1833.22 1277.88 L1828.98 1277.88 M1837.48 1276.12 L1837.48 1290.92 L1833.22 1290.92 L1833.22 1286.98 Q1831.76 1289.34 1829.58 1290.48 Q1827.41 1291.59 1824.26 1291.59 Q1820.28 1291.59 1817.92 1289.36 Q1815.58 1287.12 1815.58 1283.37 Q1815.58 1278.99 1818.5 1276.77 Q1821.44 1274.55 1827.25 1274.55 L1833.22 1274.55 L1833.22 1274.13 Q1833.22 1271.19 1831.27 1269.6 Q1829.35 1267.98 1825.86 1267.98 Q1823.63 1267.98 1821.53 1268.51 Q1819.42 1269.04 1817.48 1270.11 L1817.48 1266.17 Q1819.82 1265.27 1822.01 1264.83 Q1824.21 1264.36 1826.3 1264.36 Q1831.92 1264.36 1834.7 1267.28 Q1837.48 1270.2 1837.48 1276.12 Z" fill="#000000" fill-rule="evenodd" fill-opacity="1" /><path clip-path="url(#clip350)" d="M1862.78 1265.75 L1862.78 1269.78 Q1860.97 1268.86 1859.03 1268.39 Q1857.08 1267.93 1855 1267.93 Q1851.83 1267.93 1850.23 1268.9 Q1848.66 1269.87 1848.66 1271.82 Q1848.66 1273.3 1849.79 1274.16 Q1850.93 1274.99 1854.35 1275.75 L1855.81 1276.08 Q1860.35 1277.05 1862.25 1278.83 Q1864.17 1280.59 1864.17 1283.76 Q1864.17 1287.37 1861.3 1289.48 Q1858.45 1291.59 1853.45 1291.59 Q1851.37 1291.59 1849.1 1291.17 Q1846.85 1290.78 1844.35 1289.97 L1844.35 1285.57 Q1846.71 1286.79 1849 1287.42 Q1851.3 1288.02 1853.54 1288.02 Q1856.55 1288.02 1858.17 1287 Q1859.79 1285.96 1859.79 1284.09 Q1859.79 1282.35 1858.61 1281.42 Q1857.45 1280.5 1853.5 1279.64 L1852.01 1279.3 Q1848.06 1278.46 1846.3 1276.75 Q1844.54 1275.01 1844.54 1272 Q1844.54 1268.35 1847.13 1266.36 Q1849.72 1264.36 1854.49 1264.36 Q1856.85 1264.36 1858.94 1264.71 Q1861.02 1265.06 1862.78 1265.75 Z" fill="#000000" fill-rule="evenodd" fill-opacity="1" /><path clip-path="url(#clip350)" d="M1887.48 1265.75 L1887.48 1269.78 Q1885.67 1268.86 1883.73 1268.39 Q1881.78 1267.93 1879.7 1267.93 Q1876.53 1267.93 1874.93 1268.9 Q1873.36 1269.87 1873.36 1271.82 Q1873.36 1273.3 1874.49 1274.16 Q1875.63 1274.99 1879.05 1275.75 L1880.51 1276.08 Q1885.05 1277.05 1886.94 1278.83 Q1888.87 1280.59 1888.87 1283.76 Q1888.87 1287.37 1886 1289.48 Q1883.15 1291.59 1878.15 1291.59 Q1876.07 1291.59 1873.8 1291.17 Q1871.55 1290.78 1869.05 1289.97 L1869.05 1285.57 Q1871.41 1286.79 1873.7 1287.42 Q1876 1288.02 1878.24 1288.02 Q1881.25 1288.02 1882.87 1287 Q1884.49 1285.96 1884.49 1284.09 Q1884.49 1282.35 1883.31 1281.42 Q1882.15 1280.5 1878.19 1279.64 L1876.71 1279.3 Q1872.75 1278.46 1871 1276.75 Q1869.24 1275.01 1869.24 1272 Q1869.24 1268.35 1871.83 1266.36 Q1874.42 1264.36 1879.19 1264.36 Q1881.55 1264.36 1883.63 1264.71 Q1885.72 1265.06 1887.48 1265.75 Z" fill="#000000" fill-rule="evenodd" fill-opacity="1" /><path clip-path="url(#clip350)" d="M1896.25 1285.04 L1901.13 1285.04 L1901.13 1290.92 L1896.25 1290.92 L1896.25 1285.04 Z" fill="#000000" fill-rule="evenodd" fill-opacity="1" /><path clip-path="url(#clip350)" d="M1907.66 1264.99 L1912.18 1264.99 L1920.28 1286.75 L1928.38 1264.99 L1932.89 1264.99 L1923.17 1290.92 L1917.38 1290.92 L1907.66 1264.99 Z" fill="#000000" fill-rule="evenodd" fill-opacity="1" /><path clip-path="url(#clip350)" d="M1964.07 1254.94 Q1960.97 1260.27 1959.47 1265.48 Q1957.96 1270.68 1957.96 1276.03 Q1957.96 1281.38 1959.47 1286.63 Q1961 1291.86 1964.07 1297.17 L1960.37 1297.17 Q1956.9 1291.73 1955.16 1286.47 Q1953.45 1281.22 1953.45 1276.03 Q1953.45 1270.87 1955.16 1265.64 Q1956.87 1260.41 1960.37 1254.94 L1964.07 1254.94 Z" fill="#000000" fill-rule="evenodd" fill-opacity="1" /><path clip-path="url(#clip350)" d="M1987.11 1272.28 Q1990.46 1273 1992.34 1275.27 Q1994.24 1277.54 1994.24 1280.87 Q1994.24 1285.98 1990.72 1288.79 Q1987.2 1291.59 1980.72 1291.59 Q1978.54 1291.59 1976.23 1291.15 Q1973.93 1290.73 1971.48 1289.87 L1971.48 1285.36 Q1973.43 1286.49 1975.74 1287.07 Q1978.06 1287.65 1980.58 1287.65 Q1984.98 1287.65 1987.27 1285.92 Q1989.58 1284.18 1989.58 1280.87 Q1989.58 1277.81 1987.43 1276.1 Q1985.3 1274.36 1981.48 1274.36 L1977.45 1274.36 L1977.45 1270.52 L1981.67 1270.52 Q1985.12 1270.52 1986.94 1269.16 Q1988.77 1267.77 1988.77 1265.17 Q1988.77 1262.51 1986.87 1261.1 Q1985 1259.67 1981.48 1259.67 Q1979.56 1259.67 1977.36 1260.08 Q1975.16 1260.5 1972.52 1261.38 L1972.52 1257.21 Q1975.18 1256.47 1977.5 1256.1 Q1979.84 1255.73 1981.9 1255.73 Q1987.22 1255.73 1990.32 1258.16 Q1993.43 1260.57 1993.43 1264.69 Q1993.43 1267.56 1991.78 1269.55 Q1990.14 1271.52 1987.11 1272.28 Z" fill="#000000" fill-rule="evenodd" fill-opacity="1" /><path clip-path="url(#clip350)" d="M2017.27 1272.28 Q2020.62 1273 2022.5 1275.27 Q2024.4 1277.54 2024.4 1280.87 Q2024.4 1285.98 2020.88 1288.79 Q2017.36 1291.59 2010.88 1291.59 Q2008.7 1291.59 2006.39 1291.15 Q2004.1 1290.73 2001.64 1289.87 L2001.64 1285.36 Q2003.59 1286.49 2005.9 1287.07 Q2008.22 1287.65 2010.74 1287.65 Q2015.14 1287.65 2017.43 1285.92 Q2019.74 1284.18 2019.74 1280.87 Q2019.74 1277.81 2017.59 1276.1 Q2015.46 1274.36 2011.64 1274.36 L2007.62 1274.36 L2007.62 1270.52 L2011.83 1270.52 Q2015.28 1270.52 2017.11 1269.16 Q2018.93 1267.77 2018.93 1265.17 Q2018.93 1262.51 2017.04 1261.1 Q2015.16 1259.67 2011.64 1259.67 Q2009.72 1259.67 2007.52 1260.08 Q2005.32 1260.5 2002.68 1261.38 L2002.68 1257.21 Q2005.35 1256.47 2007.66 1256.1 Q2010 1255.73 2012.06 1255.73 Q2017.38 1255.73 2020.49 1258.16 Q2023.59 1260.57 2023.59 1264.69 Q2023.59 1267.56 2021.94 1269.55 Q2020.3 1271.52 2017.27 1272.28 Z" fill="#000000" fill-rule="evenodd" fill-opacity="1" /><path clip-path="url(#clip350)" d="M2033.31 1256.36 L2051.67 1256.36 L2051.67 1260.29 L2037.59 1260.29 L2037.59 1268.76 Q2038.61 1268.42 2039.63 1268.25 Q2040.65 1268.07 2041.67 1268.07 Q2047.45 1268.07 2050.83 1271.24 Q2054.21 1274.41 2054.21 1279.83 Q2054.21 1285.41 2050.74 1288.51 Q2047.27 1291.59 2040.95 1291.59 Q2038.77 1291.59 2036.5 1291.22 Q2034.26 1290.85 2031.85 1290.11 L2031.85 1285.41 Q2033.93 1286.54 2036.16 1287.1 Q2038.38 1287.65 2040.86 1287.65 Q2044.86 1287.65 2047.2 1285.54 Q2049.54 1283.44 2049.54 1279.83 Q2049.54 1276.22 2047.2 1274.11 Q2044.86 1272 2040.86 1272 Q2038.98 1272 2037.11 1272.42 Q2035.25 1272.84 2033.31 1273.72 L2033.31 1256.36 Z" fill="#000000" fill-rule="evenodd" fill-opacity="1" /><path clip-path="url(#clip350)" d="M2063.47 1256.36 L2081.83 1256.36 L2081.83 1260.29 L2067.75 1260.29 L2067.75 1268.76 Q2068.77 1268.42 2069.79 1268.25 Q2070.81 1268.07 2071.83 1268.07 Q2077.61 1268.07 2080.99 1271.24 Q2084.37 1274.41 2084.37 1279.83 Q2084.37 1285.41 2080.9 1288.51 Q2077.43 1291.59 2071.11 1291.59 Q2068.93 1291.59 2066.67 1291.22 Q2064.42 1290.85 2062.01 1290.11 L2062.01 1285.41 Q2064.1 1286.54 2066.32 1287.1 Q2068.54 1287.65 2071.02 1287.65 Q2075.02 1287.65 2077.36 1285.54 Q2079.7 1283.44 2079.7 1279.83 Q2079.7 1276.22 2077.36 1274.11 Q2075.02 1272 2071.02 1272 Q2069.14 1272 2067.27 1272.42 Q2065.42 1272.84 2063.47 1273.72 L2063.47 1256.36 Z" fill="#000000" fill-rule="evenodd" fill-opacity="1" /><path clip-path="url(#clip350)" d="M2106.43 1260.43 L2094.63 1278.88 L2106.43 1278.88 L2106.43 1260.43 M2105.21 1256.36 L2111.09 1256.36 L2111.09 1278.88 L2116.02 1278.88 L2116.02 1282.77 L2111.09 1282.77 L2111.09 1290.92 L2106.43 1290.92 L2106.43 1282.77 L2090.83 1282.77 L2090.83 1278.25 L2105.21 1256.36 Z" fill="#000000" fill-rule="evenodd" fill-opacity="1" /><path clip-path="url(#clip350)" d="M2136.6 1260.43 L2124.79 1278.88 L2136.6 1278.88 L2136.6 1260.43 M2135.37 1256.36 L2141.25 1256.36 L2141.25 1278.88 L2146.18 1278.88 L2146.18 1282.77 L2141.25 1282.77 L2141.25 1290.92 L2136.6 1290.92 L2136.6 1282.77 L2120.99 1282.77 L2120.99 1278.25 L2135.37 1256.36 Z" fill="#000000" fill-rule="evenodd" fill-opacity="1" /><path clip-path="url(#clip350)" d="M2168.08 1272.28 Q2171.43 1273 2173.31 1275.27 Q2175.21 1277.54 2175.21 1280.87 Q2175.21 1285.98 2171.69 1288.79 Q2168.17 1291.59 2161.69 1291.59 Q2159.51 1291.59 2157.2 1291.15 Q2154.91 1290.73 2152.45 1289.87 L2152.45 1285.36 Q2154.4 1286.49 2156.71 1287.07 Q2159.03 1287.65 2161.55 1287.65 Q2165.95 1287.65 2168.24 1285.92 Q2170.55 1284.18 2170.55 1280.87 Q2170.55 1277.81 2168.4 1276.1 Q2166.27 1274.36 2162.45 1274.36 L2158.42 1274.36 L2158.42 1270.52 L2162.64 1270.52 Q2166.09 1270.52 2167.92 1269.16 Q2169.74 1267.77 2169.74 1265.17 Q2169.74 1262.51 2167.85 1261.1 Q2165.97 1259.67 2162.45 1259.67 Q2160.53 1259.67 2158.33 1260.08 Q2156.13 1260.5 2153.49 1261.38 L2153.49 1257.21 Q2156.16 1256.47 2158.47 1256.1 Q2160.81 1255.73 2162.87 1255.73 Q2168.19 1255.73 2171.29 1258.16 Q2174.4 1260.57 2174.4 1264.69 Q2174.4 1267.56 2172.75 1269.55 Q2171.11 1271.52 2168.08 1272.28 Z" fill="#000000" fill-rule="evenodd" fill-opacity="1" /><path clip-path="url(#clip350)" d="M2198.24 1272.28 Q2201.6 1273 2203.47 1275.27 Q2205.37 1277.54 2205.37 1280.87 Q2205.37 1285.98 2201.85 1288.79 Q2198.33 1291.59 2191.85 1291.59 Q2189.67 1291.59 2187.36 1291.15 Q2185.07 1290.73 2182.61 1289.87 L2182.61 1285.36 Q2184.56 1286.49 2186.87 1287.07 Q2189.19 1287.65 2191.71 1287.65 Q2196.11 1287.65 2198.4 1285.92 Q2200.72 1284.18 2200.72 1280.87 Q2200.72 1277.81 2198.56 1276.1 Q2196.43 1274.36 2192.61 1274.36 L2188.59 1274.36 L2188.59 1270.52 L2192.8 1270.52 Q2196.25 1270.52 2198.08 1269.16 Q2199.91 1267.77 2199.91 1265.17 Q2199.91 1262.51 2198.01 1261.1 Q2196.13 1259.67 2192.61 1259.67 Q2190.69 1259.67 2188.49 1260.08 Q2186.29 1260.5 2183.66 1261.38 L2183.66 1257.21 Q2186.32 1256.47 2188.63 1256.1 Q2190.97 1255.73 2193.03 1255.73 Q2198.35 1255.73 2201.46 1258.16 Q2204.56 1260.57 2204.56 1264.69 Q2204.56 1267.56 2202.92 1269.55 Q2201.27 1271.52 2198.24 1272.28 Z" fill="#000000" fill-rule="evenodd" fill-opacity="1" /><path clip-path="url(#clip350)" d="M2212.96 1254.94 L2216.67 1254.94 Q2220.14 1260.41 2221.85 1265.64 Q2223.59 1270.87 2223.59 1276.03 Q2223.59 1281.22 2221.85 1286.47 Q2220.14 1291.73 2216.67 1297.17 L2212.96 1297.17 Q2216.04 1291.86 2217.54 1286.63 Q2219.07 1281.38 2219.07 1276.03 Q2219.07 1270.68 2217.54 1265.48 Q2216.04 1260.27 2212.96 1254.94 Z" fill="#000000" fill-rule="evenodd" fill-opacity="1" /><polyline clip-path="url(#clip350)" style="stroke:#3da44d; stroke-linecap:round; stroke-linejoin:round; stroke-width:4; stroke-opacity:1; fill:none" points="
  1599.34,1325.48 1746.35,1325.48 
  "/>
<path clip-path="url(#clip350)" d="M1791.2 1321.81 Q1792.8 1318.94 1795.02 1317.57 Q1797.25 1316.2 1800.26 1316.2 Q1804.31 1316.2 1806.51 1319.05 Q1808.7 1321.88 1808.7 1327.11 L1808.7 1342.76 L1804.42 1342.76 L1804.42 1327.25 Q1804.42 1323.52 1803.1 1321.71 Q1801.78 1319.91 1799.07 1319.91 Q1795.76 1319.91 1793.84 1322.11 Q1791.92 1324.31 1791.92 1328.1 L1791.92 1342.76 L1787.64 1342.76 L1787.64 1327.25 Q1787.64 1323.5 1786.32 1321.71 Q1785 1319.91 1782.25 1319.91 Q1778.98 1319.91 1777.06 1322.13 Q1775.14 1324.33 1775.14 1328.1 L1775.14 1342.76 L1770.86 1342.76 L1770.86 1316.83 L1775.14 1316.83 L1775.14 1320.86 Q1776.6 1318.47 1778.63 1317.34 Q1780.67 1316.2 1783.47 1316.2 Q1786.3 1316.2 1788.26 1317.64 Q1790.26 1319.07 1791.2 1321.81 Z" fill="#000000" fill-rule="evenodd" fill-opacity="1" /><path clip-path="url(#clip350)" d="M1828.98 1329.72 Q1823.82 1329.72 1821.83 1330.9 Q1819.84 1332.08 1819.84 1334.93 Q1819.84 1337.2 1821.32 1338.54 Q1822.82 1339.86 1825.39 1339.86 Q1828.94 1339.86 1831.07 1337.36 Q1833.22 1334.84 1833.22 1330.67 L1833.22 1329.72 L1828.98 1329.72 M1837.48 1327.96 L1837.48 1342.76 L1833.22 1342.76 L1833.22 1338.82 Q1831.76 1341.18 1829.58 1342.32 Q1827.41 1343.43 1824.26 1343.43 Q1820.28 1343.43 1817.92 1341.2 Q1815.58 1338.96 1815.58 1335.21 Q1815.58 1330.83 1818.5 1328.61 Q1821.44 1326.39 1827.25 1326.39 L1833.22 1326.39 L1833.22 1325.97 Q1833.22 1323.03 1831.27 1321.44 Q1829.35 1319.82 1825.86 1319.82 Q1823.63 1319.82 1821.53 1320.35 Q1819.42 1320.88 1817.48 1321.95 L1817.48 1318.01 Q1819.82 1317.11 1822.01 1316.67 Q1824.21 1316.2 1826.3 1316.2 Q1831.92 1316.2 1834.7 1319.12 Q1837.48 1322.04 1837.48 1327.96 Z" fill="#000000" fill-rule="evenodd" fill-opacity="1" /><path clip-path="url(#clip350)" d="M1862.78 1317.59 L1862.78 1321.62 Q1860.97 1320.7 1859.03 1320.23 Q1857.08 1319.77 1855 1319.77 Q1851.83 1319.77 1850.23 1320.74 Q1848.66 1321.71 1848.66 1323.66 Q1848.66 1325.14 1849.79 1326 Q1850.93 1326.83 1854.35 1327.59 L1855.81 1327.92 Q1860.35 1328.89 1862.25 1330.67 Q1864.17 1332.43 1864.17 1335.6 Q1864.17 1339.21 1861.3 1341.32 Q1858.45 1343.43 1853.45 1343.43 Q1851.37 1343.43 1849.1 1343.01 Q1846.85 1342.62 1844.35 1341.81 L1844.35 1337.41 Q1846.71 1338.63 1849 1339.26 Q1851.3 1339.86 1853.54 1339.86 Q1856.55 1339.86 1858.17 1338.84 Q1859.79 1337.8 1859.79 1335.93 Q1859.79 1334.19 1858.61 1333.26 Q1857.45 1332.34 1853.5 1331.48 L1852.01 1331.14 Q1848.06 1330.3 1846.3 1328.59 Q1844.54 1326.85 1844.54 1323.84 Q1844.54 1320.19 1847.13 1318.2 Q1849.72 1316.2 1854.49 1316.2 Q1856.85 1316.2 1858.94 1316.55 Q1861.02 1316.9 1862.78 1317.59 Z" fill="#000000" fill-rule="evenodd" fill-opacity="1" /><path clip-path="url(#clip350)" d="M1887.48 1317.59 L1887.48 1321.62 Q1885.67 1320.7 1883.73 1320.23 Q1881.78 1319.77 1879.7 1319.77 Q1876.53 1319.77 1874.93 1320.74 Q1873.36 1321.71 1873.36 1323.66 Q1873.36 1325.14 1874.49 1326 Q1875.63 1326.83 1879.05 1327.59 L1880.51 1327.92 Q1885.05 1328.89 1886.94 1330.67 Q1888.87 1332.43 1888.87 1335.6 Q1888.87 1339.21 1886 1341.32 Q1883.15 1343.43 1878.15 1343.43 Q1876.07 1343.43 1873.8 1343.01 Q1871.55 1342.62 1869.05 1341.81 L1869.05 1337.41 Q1871.41 1338.63 1873.7 1339.26 Q1876 1339.86 1878.24 1339.86 Q1881.25 1339.86 1882.87 1338.84 Q1884.49 1337.8 1884.49 1335.93 Q1884.49 1334.19 1883.31 1333.26 Q1882.15 1332.34 1878.19 1331.48 L1876.71 1331.14 Q1872.75 1330.3 1871 1328.59 Q1869.24 1326.85 1869.24 1323.84 Q1869.24 1320.19 1871.83 1318.2 Q1874.42 1316.2 1879.19 1316.2 Q1881.55 1316.2 1883.63 1316.55 Q1885.72 1316.9 1887.48 1317.59 Z" fill="#000000" fill-rule="evenodd" fill-opacity="1" /><path clip-path="url(#clip350)" d="M1896.25 1336.88 L1901.13 1336.88 L1901.13 1342.76 L1896.25 1342.76 L1896.25 1336.88 Z" fill="#000000" fill-rule="evenodd" fill-opacity="1" /><path clip-path="url(#clip350)" d="M1922.5 1329.72 Q1917.34 1329.72 1915.35 1330.9 Q1913.36 1332.08 1913.36 1334.93 Q1913.36 1337.2 1914.84 1338.54 Q1916.34 1339.86 1918.91 1339.86 Q1922.45 1339.86 1924.58 1337.36 Q1926.74 1334.84 1926.74 1330.67 L1926.74 1329.72 L1922.5 1329.72 M1931 1327.96 L1931 1342.76 L1926.74 1342.76 L1926.74 1338.82 Q1925.28 1341.18 1923.1 1342.32 Q1920.93 1343.43 1917.78 1343.43 Q1913.8 1343.43 1911.44 1341.2 Q1909.1 1338.96 1909.1 1335.21 Q1909.1 1330.83 1912.01 1328.61 Q1914.95 1326.39 1920.76 1326.39 L1926.74 1326.39 L1926.74 1325.97 Q1926.74 1323.03 1924.79 1321.44 Q1922.87 1319.82 1919.37 1319.82 Q1917.15 1319.82 1915.05 1320.35 Q1912.94 1320.88 1911 1321.95 L1911 1318.01 Q1913.33 1317.11 1915.53 1316.67 Q1917.73 1316.2 1919.81 1316.2 Q1925.44 1316.2 1928.22 1319.12 Q1931 1322.04 1931 1327.96 Z" fill="#000000" fill-rule="evenodd" fill-opacity="1" /><path clip-path="url(#clip350)" d="M1965.07 1306.78 Q1961.97 1312.11 1960.46 1317.32 Q1958.96 1322.52 1958.96 1327.87 Q1958.96 1333.22 1960.46 1338.47 Q1961.99 1343.7 1965.07 1349.01 L1961.37 1349.01 Q1957.89 1343.57 1956.16 1338.31 Q1954.44 1333.06 1954.44 1327.87 Q1954.44 1322.71 1956.16 1317.48 Q1957.87 1312.25 1961.37 1306.78 L1965.07 1306.78 Z" fill="#000000" fill-rule="evenodd" fill-opacity="1" /><path clip-path="url(#clip350)" d="M1973.98 1308.2 L1992.34 1308.2 L1992.34 1312.13 L1978.26 1312.13 L1978.26 1320.6 Q1979.28 1320.26 1980.3 1320.09 Q1981.32 1319.91 1982.34 1319.91 Q1988.12 1319.91 1991.5 1323.08 Q1994.88 1326.25 1994.88 1331.67 Q1994.88 1337.25 1991.41 1340.35 Q1987.94 1343.43 1981.62 1343.43 Q1979.44 1343.43 1977.18 1343.06 Q1974.93 1342.69 1972.52 1341.95 L1972.52 1337.25 Q1974.61 1338.38 1976.83 1338.94 Q1979.05 1339.49 1981.53 1339.49 Q1985.53 1339.49 1987.87 1337.38 Q1990.21 1335.28 1990.21 1331.67 Q1990.21 1328.06 1987.87 1325.95 Q1985.53 1323.84 1981.53 1323.84 Q1979.65 1323.84 1977.78 1324.26 Q1975.93 1324.68 1973.98 1325.56 L1973.98 1308.2 Z" fill="#000000" fill-rule="evenodd" fill-opacity="1" /><path clip-path="url(#clip350)" d="M2014.1 1326.34 Q2010.76 1326.34 2008.84 1328.13 Q2006.94 1329.91 2006.94 1333.03 Q2006.94 1336.16 2008.84 1337.94 Q2010.76 1339.72 2014.1 1339.72 Q2017.43 1339.72 2019.35 1337.94 Q2021.27 1336.13 2021.27 1333.03 Q2021.27 1329.91 2019.35 1328.13 Q2017.45 1326.34 2014.1 1326.34 M2009.42 1324.35 Q2006.41 1323.61 2004.72 1321.55 Q2003.06 1319.49 2003.06 1316.53 Q2003.06 1312.39 2005.99 1309.98 Q2008.96 1307.57 2014.1 1307.57 Q2019.26 1307.57 2022.2 1309.98 Q2025.14 1312.39 2025.14 1316.53 Q2025.14 1319.49 2023.45 1321.55 Q2021.78 1323.61 2018.8 1324.35 Q2022.18 1325.14 2024.05 1327.43 Q2025.95 1329.72 2025.95 1333.03 Q2025.95 1338.06 2022.87 1340.74 Q2019.81 1343.43 2014.1 1343.43 Q2008.38 1343.43 2005.3 1340.74 Q2002.24 1338.06 2002.24 1333.03 Q2002.24 1329.72 2004.14 1327.43 Q2006.04 1325.14 2009.42 1324.35 M2007.71 1316.97 Q2007.71 1319.65 2009.37 1321.16 Q2011.06 1322.66 2014.1 1322.66 Q2017.11 1322.66 2018.8 1321.16 Q2020.51 1319.65 2020.51 1316.97 Q2020.51 1314.28 2018.8 1312.78 Q2017.11 1311.27 2014.1 1311.27 Q2011.06 1311.27 2009.37 1312.78 Q2007.71 1314.28 2007.71 1316.97 Z" fill="#000000" fill-rule="evenodd" fill-opacity="1" /><path clip-path="url(#clip350)" d="M2033.08 1308.2 L2055.3 1308.2 L2055.3 1310.19 L2042.75 1342.76 L2037.87 1342.76 L2049.68 1312.13 L2033.08 1312.13 L2033.08 1308.2 Z" fill="#000000" fill-rule="evenodd" fill-opacity="1" /><path clip-path="url(#clip350)" d="M2068.45 1338.82 L2084.77 1338.82 L2084.77 1342.76 L2062.82 1342.76 L2062.82 1338.82 Q2065.49 1336.07 2070.07 1331.44 Q2074.68 1326.78 2075.86 1325.44 Q2078.1 1322.92 2078.98 1321.18 Q2079.88 1319.42 2079.88 1317.73 Q2079.88 1314.98 2077.94 1313.24 Q2076.02 1311.51 2072.92 1311.51 Q2070.72 1311.51 2068.26 1312.27 Q2065.83 1313.03 2063.05 1314.58 L2063.05 1309.86 Q2065.88 1308.73 2068.33 1308.15 Q2070.79 1307.57 2072.82 1307.57 Q2078.19 1307.57 2081.39 1310.26 Q2084.58 1312.94 2084.58 1317.43 Q2084.58 1319.56 2083.77 1321.48 Q2082.99 1323.38 2080.88 1325.97 Q2080.3 1326.64 2077.2 1329.86 Q2074.1 1333.06 2068.45 1338.82 Z" fill="#000000" fill-rule="evenodd" fill-opacity="1" /><path clip-path="url(#clip350)" d="M2104.58 1311.27 Q2100.97 1311.27 2099.14 1314.84 Q2097.34 1318.38 2097.34 1325.51 Q2097.34 1332.62 2099.14 1336.18 Q2100.97 1339.72 2104.58 1339.72 Q2108.22 1339.72 2110.02 1336.18 Q2111.85 1332.62 2111.85 1325.51 Q2111.85 1318.38 2110.02 1314.84 Q2108.22 1311.27 2104.58 1311.27 M2104.58 1307.57 Q2110.39 1307.57 2113.45 1312.18 Q2116.53 1316.76 2116.53 1325.51 Q2116.53 1334.24 2113.45 1338.84 Q2110.39 1343.43 2104.58 1343.43 Q2098.77 1343.43 2095.69 1338.84 Q2092.64 1334.24 2092.64 1325.51 Q2092.64 1316.76 2095.69 1312.18 Q2098.77 1307.57 2104.58 1307.57 Z" fill="#000000" fill-rule="evenodd" fill-opacity="1" /><path clip-path="url(#clip350)" d="M2128.77 1338.82 L2145.09 1338.82 L2145.09 1342.76 L2123.15 1342.76 L2123.15 1338.82 Q2125.81 1336.07 2130.39 1331.44 Q2135 1326.78 2136.18 1325.44 Q2138.42 1322.92 2139.3 1321.18 Q2140.21 1319.42 2140.21 1317.73 Q2140.21 1314.98 2138.26 1313.24 Q2136.34 1311.51 2133.24 1311.51 Q2131.04 1311.51 2128.59 1312.27 Q2126.16 1313.03 2123.38 1314.58 L2123.38 1309.86 Q2126.2 1308.73 2128.66 1308.15 Q2131.11 1307.57 2133.15 1307.57 Q2138.52 1307.57 2141.71 1310.26 Q2144.91 1312.94 2144.91 1317.43 Q2144.91 1319.56 2144.1 1321.48 Q2143.31 1323.38 2141.2 1325.97 Q2140.62 1326.64 2137.52 1329.86 Q2134.42 1333.06 2128.77 1338.82 Z" fill="#000000" fill-rule="evenodd" fill-opacity="1" /><path clip-path="url(#clip350)" d="M2154.95 1308.2 L2173.31 1308.2 L2173.31 1312.13 L2159.23 1312.13 L2159.23 1320.6 Q2160.25 1320.26 2161.27 1320.09 Q2162.29 1319.91 2163.31 1319.91 Q2169.1 1319.91 2172.48 1323.08 Q2175.86 1326.25 2175.86 1331.67 Q2175.86 1337.25 2172.38 1340.35 Q2168.91 1343.43 2162.59 1343.43 Q2160.42 1343.43 2158.15 1343.06 Q2155.9 1342.69 2153.49 1341.95 L2153.49 1337.25 Q2155.58 1338.38 2157.8 1338.94 Q2160.02 1339.49 2162.5 1339.49 Q2166.5 1339.49 2168.84 1337.38 Q2171.18 1335.28 2171.18 1331.67 Q2171.18 1328.06 2168.84 1325.95 Q2166.5 1323.84 2162.5 1323.84 Q2160.62 1323.84 2158.75 1324.26 Q2156.9 1324.68 2154.95 1325.56 L2154.95 1308.2 Z" fill="#000000" fill-rule="evenodd" fill-opacity="1" /><path clip-path="url(#clip350)" d="M2195.65 1323.61 Q2192.5 1323.61 2190.65 1325.76 Q2188.82 1327.92 2188.82 1331.67 Q2188.82 1335.39 2190.65 1337.57 Q2192.5 1339.72 2195.65 1339.72 Q2198.79 1339.72 2200.62 1337.57 Q2202.48 1335.39 2202.48 1331.67 Q2202.48 1327.92 2200.62 1325.76 Q2198.79 1323.61 2195.65 1323.61 M2204.93 1308.96 L2204.93 1313.22 Q2203.17 1312.39 2201.36 1311.95 Q2199.58 1311.51 2197.82 1311.51 Q2193.19 1311.51 2190.74 1314.63 Q2188.31 1317.76 2187.96 1324.07 Q2189.33 1322.06 2191.39 1321 Q2193.45 1319.91 2195.92 1319.91 Q2201.13 1319.91 2204.14 1323.08 Q2207.17 1326.23 2207.17 1331.67 Q2207.17 1336.99 2204.03 1340.21 Q2200.88 1343.43 2195.65 1343.43 Q2189.65 1343.43 2186.48 1338.84 Q2183.31 1334.24 2183.31 1325.51 Q2183.31 1317.32 2187.2 1312.45 Q2191.09 1307.57 2197.64 1307.57 Q2199.4 1307.57 2201.18 1307.92 Q2202.98 1308.26 2204.93 1308.96 Z" fill="#000000" fill-rule="evenodd" fill-opacity="1" /><path clip-path="url(#clip350)" d="M2216.04 1338.82 L2223.68 1338.82 L2223.68 1312.45 L2215.37 1314.12 L2215.37 1309.86 L2223.63 1308.2 L2228.31 1308.2 L2228.31 1338.82 L2235.95 1338.82 L2235.95 1342.76 L2216.04 1342.76 L2216.04 1338.82 Z" fill="#000000" fill-rule="evenodd" fill-opacity="1" /><path clip-path="url(#clip350)" d="M2244.12 1306.78 L2247.82 1306.78 Q2251.29 1312.25 2253.01 1317.48 Q2254.74 1322.71 2254.74 1327.87 Q2254.74 1333.06 2253.01 1338.31 Q2251.29 1343.57 2247.82 1349.01 L2244.12 1349.01 Q2247.2 1343.7 2248.7 1338.47 Q2250.23 1333.22 2250.23 1327.87 Q2250.23 1322.52 2248.7 1317.32 Q2247.2 1312.11 2244.12 1306.78 Z" fill="#000000" fill-rule="evenodd" fill-opacity="1" /></svg>
