<?xml version="1.0" encoding="utf-8"?>
<svg xmlns="http://www.w3.org/2000/svg" xmlns:xlink="http://www.w3.org/1999/xlink" width="600" height="400" viewBox="0 0 2400 1600">
<defs>
  <clipPath id="clip620">
    <rect x="0" y="0" width="2400" height="1600"/>
  </clipPath>
</defs>
<path clip-path="url(#clip620)" d="M0 1600 L2400 1600 L2400 0 L0 0  Z" fill="#ffffff" fill-rule="evenodd" fill-opacity="1"/>
<defs>
  <clipPath id="clip621">
    <rect x="480" y="0" width="1681" height="1600"/>
  </clipPath>
</defs>
<path clip-path="url(#clip620)" d="M314.996 1401.58 L2352.76 1401.58 L2352.76 47.2441 L314.996 47.2441  Z" fill="#ffffff" fill-rule="evenodd" fill-opacity="1"/>
<defs>
  <clipPath id="clip622">
    <rect x="314" y="47" width="2039" height="1355"/>
  </clipPath>
</defs>
<polyline clip-path="url(#clip622)" style="stroke:#000000; stroke-linecap:round; stroke-linejoin:round; stroke-width:2; stroke-opacity:0.1; fill:none" points="372.668,1401.58 372.668,47.2441 "/>
<polyline clip-path="url(#clip622)" style="stroke:#000000; stroke-linecap:round; stroke-linejoin:round; stroke-width:2; stroke-opacity:0.1; fill:none" points="757.151,1401.58 757.151,47.2441 "/>
<polyline clip-path="url(#clip622)" style="stroke:#000000; stroke-linecap:round; stroke-linejoin:round; stroke-width:2; stroke-opacity:0.1; fill:none" points="1141.63,1401.58 1141.63,47.2441 "/>
<polyline clip-path="url(#clip622)" style="stroke:#000000; stroke-linecap:round; stroke-linejoin:round; stroke-width:2; stroke-opacity:0.1; fill:none" points="1526.12,1401.58 1526.12,47.2441 "/>
<polyline clip-path="url(#clip622)" style="stroke:#000000; stroke-linecap:round; stroke-linejoin:round; stroke-width:2; stroke-opacity:0.1; fill:none" points="1910.6,1401.58 1910.6,47.2441 "/>
<polyline clip-path="url(#clip622)" style="stroke:#000000; stroke-linecap:round; stroke-linejoin:round; stroke-width:2; stroke-opacity:0.1; fill:none" points="2295.08,1401.58 2295.08,47.2441 "/>
<polyline clip-path="url(#clip620)" style="stroke:#000000; stroke-linecap:round; stroke-linejoin:round; stroke-width:4; stroke-opacity:1; fill:none" points="314.996,1401.58 2352.76,1401.58 "/>
<polyline clip-path="url(#clip620)" style="stroke:#000000; stroke-linecap:round; stroke-linejoin:round; stroke-width:4; stroke-opacity:1; fill:none" points="372.668,1401.58 372.668,1382.68 "/>
<polyline clip-path="url(#clip620)" style="stroke:#000000; stroke-linecap:round; stroke-linejoin:round; stroke-width:4; stroke-opacity:1; fill:none" points="757.151,1401.58 757.151,1382.68 "/>
<polyline clip-path="url(#clip620)" style="stroke:#000000; stroke-linecap:round; stroke-linejoin:round; stroke-width:4; stroke-opacity:1; fill:none" points="1141.63,1401.58 1141.63,1382.68 "/>
<polyline clip-path="url(#clip620)" style="stroke:#000000; stroke-linecap:round; stroke-linejoin:round; stroke-width:4; stroke-opacity:1; fill:none" points="1526.12,1401.58 1526.12,1382.68 "/>
<polyline clip-path="url(#clip620)" style="stroke:#000000; stroke-linecap:round; stroke-linejoin:round; stroke-width:4; stroke-opacity:1; fill:none" points="1910.6,1401.58 1910.6,1382.68 "/>
<polyline clip-path="url(#clip620)" style="stroke:#000000; stroke-linecap:round; stroke-linejoin:round; stroke-width:4; stroke-opacity:1; fill:none" points="2295.08,1401.58 2295.08,1382.68 "/>
<path clip-path="url(#clip620)" d="M372.668 1438.36 Q367.252 1438.36 364.509 1443.71 Q361.8 1449.02 361.8 1459.71 Q361.8 1470.37 364.509 1475.72 Q367.252 1481.03 372.668 1481.03 Q378.12 1481.03 380.828 1475.72 Q383.571 1470.37 383.571 1459.71 Q383.571 1449.02 380.828 1443.71 Q378.12 1438.36 372.668 1438.36 M372.668 1432.8 Q381.384 1432.8 385.967 1439.71 Q390.585 1446.59 390.585 1459.71 Q390.585 1472.8 385.967 1479.71 Q381.384 1486.59 372.668 1486.59 Q363.953 1486.59 359.335 1479.71 Q354.752 1472.8 354.752 1459.71 Q354.752 1446.59 359.335 1439.71 Q363.953 1432.8 372.668 1432.8 Z" fill="#000000" fill-rule="nonzero" fill-opacity="1" /><path clip-path="url(#clip620)" d="M742.724 1479.68 L754.183 1479.68 L754.183 1440.13 L741.717 1442.63 L741.717 1436.24 L754.113 1433.74 L761.127 1433.74 L761.127 1479.68 L772.585 1479.68 L772.585 1485.58 L742.724 1485.58 L742.724 1479.68 Z" fill="#000000" fill-rule="nonzero" fill-opacity="1" /><path clip-path="url(#clip620)" d="M1133.61 1479.68 L1158.09 1479.68 L1158.09 1485.58 L1125.18 1485.58 L1125.18 1479.68 Q1129.17 1475.55 1136.04 1468.6 Q1142.95 1461.62 1144.72 1459.61 Q1148.09 1455.82 1149.41 1453.22 Q1150.77 1450.58 1150.77 1448.05 Q1150.77 1443.91 1147.85 1441.31 Q1144.97 1438.71 1140.31 1438.71 Q1137.02 1438.71 1133.34 1439.85 Q1129.69 1441 1125.52 1443.32 L1125.52 1436.24 Q1129.76 1434.54 1133.44 1433.67 Q1137.12 1432.8 1140.18 1432.8 Q1148.23 1432.8 1153.02 1436.83 Q1157.81 1440.86 1157.81 1447.59 Q1157.81 1450.79 1156.6 1453.67 Q1155.42 1456.52 1152.26 1460.41 Q1151.39 1461.41 1146.74 1466.24 Q1142.09 1471.03 1133.61 1479.68 Z" fill="#000000" fill-rule="nonzero" fill-opacity="1" /><path clip-path="url(#clip620)" d="M1532.49 1457.63 Q1537.52 1458.7 1540.34 1462.11 Q1543.18 1465.51 1543.18 1470.51 Q1543.18 1478.18 1537.91 1482.39 Q1532.63 1486.59 1522.91 1486.59 Q1519.64 1486.59 1516.17 1485.93 Q1512.73 1485.3 1509.05 1484.02 L1509.05 1477.25 Q1511.97 1478.95 1515.44 1479.82 Q1518.91 1480.68 1522.7 1480.68 Q1529.29 1480.68 1532.73 1478.08 Q1536.2 1475.48 1536.2 1470.51 Q1536.2 1465.93 1532.98 1463.36 Q1529.78 1460.75 1524.05 1460.75 L1518.01 1460.75 L1518.01 1454.99 L1524.33 1454.99 Q1529.5 1454.99 1532.25 1452.94 Q1534.99 1450.86 1534.99 1446.97 Q1534.99 1442.98 1532.14 1440.86 Q1529.33 1438.71 1524.05 1438.71 Q1521.17 1438.71 1517.87 1439.33 Q1514.57 1439.96 1510.61 1441.27 L1510.61 1435.02 Q1514.61 1433.91 1518.08 1433.36 Q1521.59 1432.8 1524.68 1432.8 Q1532.66 1432.8 1537.32 1436.45 Q1541.97 1440.06 1541.97 1446.24 Q1541.97 1450.55 1539.5 1453.53 Q1537.04 1456.48 1532.49 1457.63 Z" fill="#000000" fill-rule="nonzero" fill-opacity="1" /><path clip-path="url(#clip620)" d="M1915.11 1439.85 L1897.41 1467.52 L1915.11 1467.52 L1915.11 1439.85 M1913.27 1433.74 L1922.09 1433.74 L1922.09 1467.52 L1929.49 1467.52 L1929.49 1473.36 L1922.09 1473.36 L1922.09 1485.58 L1915.11 1485.58 L1915.11 1473.36 L1891.71 1473.36 L1891.71 1466.59 L1913.27 1433.74 Z" fill="#000000" fill-rule="nonzero" fill-opacity="1" /><path clip-path="url(#clip620)" d="M2280.5 1433.74 L2308.03 1433.74 L2308.03 1439.64 L2286.92 1439.64 L2286.92 1452.35 Q2288.45 1451.83 2289.98 1451.59 Q2291.51 1451.31 2293.03 1451.31 Q2301.72 1451.31 2306.78 1456.07 Q2311.85 1460.82 2311.85 1468.95 Q2311.85 1477.32 2306.65 1481.97 Q2301.44 1486.59 2291.96 1486.59 Q2288.69 1486.59 2285.29 1486.03 Q2281.92 1485.48 2278.31 1484.36 L2278.31 1477.32 Q2281.44 1479.02 2284.77 1479.85 Q2288.1 1480.68 2291.82 1480.68 Q2297.83 1480.68 2301.33 1477.52 Q2304.84 1474.36 2304.84 1468.95 Q2304.84 1463.53 2301.33 1460.37 Q2297.83 1457.21 2291.82 1457.21 Q2289.01 1457.21 2286.19 1457.84 Q2283.42 1458.46 2280.5 1459.78 L2280.5 1433.74 Z" fill="#000000" fill-rule="nonzero" fill-opacity="1" /><path clip-path="url(#clip620)" d="M1277.49 1527.62 L1277.49 1538.66 L1290.65 1538.66 L1290.65 1543.62 L1277.49 1543.62 L1277.49 1564.74 Q1277.49 1569.49 1278.77 1570.85 Q1280.09 1572.2 1284.08 1572.2 L1290.65 1572.2 L1290.65 1577.55 L1284.08 1577.55 Q1276.69 1577.55 1273.88 1574.8 Q1271.06 1572.03 1271.06 1564.74 L1271.06 1543.62 L1266.38 1543.62 L1266.38 1538.66 L1271.06 1538.66 L1271.06 1527.62 L1277.49 1527.62 Z" fill="#000000" fill-rule="nonzero" fill-opacity="1" /><path clip-path="url(#clip620)" d="M1321.06 1523.52 L1335.79 1523.52 L1335.79 1528.49 L1327.45 1528.49 L1327.45 1581.96 L1335.79 1581.96 L1335.79 1586.92 L1321.06 1586.92 L1321.06 1523.52 Z" fill="#000000" fill-rule="nonzero" fill-opacity="1" /><path clip-path="url(#clip620)" d="M1374.19 1539.8 L1374.19 1545.85 Q1371.48 1544.46 1368.56 1543.76 Q1365.65 1543.07 1362.52 1543.07 Q1357.76 1543.07 1355.37 1544.53 Q1353.01 1545.99 1353.01 1548.9 Q1353.01 1551.12 1354.71 1552.41 Q1356.41 1553.66 1361.55 1554.8 L1363.74 1555.29 Q1370.54 1556.75 1373.39 1559.42 Q1376.27 1562.06 1376.27 1566.82 Q1376.27 1572.24 1371.97 1575.4 Q1367.7 1578.55 1360.2 1578.55 Q1357.07 1578.55 1353.67 1577.93 Q1350.3 1577.34 1346.55 1576.12 L1346.55 1569.53 Q1350.09 1571.37 1353.53 1572.3 Q1356.97 1573.21 1360.33 1573.21 Q1364.85 1573.21 1367.28 1571.68 Q1369.71 1570.12 1369.71 1567.3 Q1369.71 1564.7 1367.94 1563.31 Q1366.2 1561.92 1360.26 1560.64 L1358.04 1560.12 Q1352.11 1558.87 1349.47 1556.3 Q1346.83 1553.69 1346.83 1549.18 Q1346.83 1543.69 1350.72 1540.71 Q1354.6 1537.72 1361.76 1537.72 Q1365.3 1537.72 1368.42 1538.24 Q1371.55 1538.76 1374.19 1539.8 Z" fill="#000000" fill-rule="nonzero" fill-opacity="1" /><path clip-path="url(#clip620)" d="M1401.38 1523.52 L1401.38 1586.92 L1386.65 1586.92 L1386.65 1581.96 L1394.95 1581.96 L1394.95 1528.49 L1386.65 1528.49 L1386.65 1523.52 L1401.38 1523.52 Z" fill="#000000" fill-rule="nonzero" fill-opacity="1" /><polyline clip-path="url(#clip622)" style="stroke:#000000; stroke-linecap:round; stroke-linejoin:round; stroke-width:2; stroke-opacity:0.1; fill:none" points="314.996,1255.51 2352.76,1255.51 "/>
<polyline clip-path="url(#clip622)" style="stroke:#000000; stroke-linecap:round; stroke-linejoin:round; stroke-width:2; stroke-opacity:0.1; fill:none" points="314.996,989.905 2352.76,989.905 "/>
<polyline clip-path="url(#clip622)" style="stroke:#000000; stroke-linecap:round; stroke-linejoin:round; stroke-width:2; stroke-opacity:0.1; fill:none" points="314.996,724.304 2352.76,724.304 "/>
<polyline clip-path="url(#clip622)" style="stroke:#000000; stroke-linecap:round; stroke-linejoin:round; stroke-width:2; stroke-opacity:0.1; fill:none" points="314.996,458.703 2352.76,458.703 "/>
<polyline clip-path="url(#clip622)" style="stroke:#000000; stroke-linecap:round; stroke-linejoin:round; stroke-width:2; stroke-opacity:0.1; fill:none" points="314.996,193.102 2352.76,193.102 "/>
<polyline clip-path="url(#clip620)" style="stroke:#000000; stroke-linecap:round; stroke-linejoin:round; stroke-width:4; stroke-opacity:1; fill:none" points="314.996,1401.58 314.996,47.2441 "/>
<polyline clip-path="url(#clip620)" style="stroke:#000000; stroke-linecap:round; stroke-linejoin:round; stroke-width:4; stroke-opacity:1; fill:none" points="314.996,1255.51 333.894,1255.51 "/>
<polyline clip-path="url(#clip620)" style="stroke:#000000; stroke-linecap:round; stroke-linejoin:round; stroke-width:4; stroke-opacity:1; fill:none" points="314.996,989.905 333.894,989.905 "/>
<polyline clip-path="url(#clip620)" style="stroke:#000000; stroke-linecap:round; stroke-linejoin:round; stroke-width:4; stroke-opacity:1; fill:none" points="314.996,724.304 333.894,724.304 "/>
<polyline clip-path="url(#clip620)" style="stroke:#000000; stroke-linecap:round; stroke-linejoin:round; stroke-width:4; stroke-opacity:1; fill:none" points="314.996,458.703 333.894,458.703 "/>
<polyline clip-path="url(#clip620)" style="stroke:#000000; stroke-linecap:round; stroke-linejoin:round; stroke-width:4; stroke-opacity:1; fill:none" points="314.996,193.102 333.894,193.102 "/>
<path clip-path="url(#clip620)" d="M118.58 1256.18 L163.094 1256.18 L163.094 1262.09 L118.58 1262.09 L118.58 1256.18 Z" fill="#000000" fill-rule="nonzero" fill-opacity="1" /><path clip-path="url(#clip620)" d="M178.302 1229.59 L205.837 1229.59 L205.837 1235.49 L184.726 1235.49 L184.726 1248.2 Q186.253 1247.68 187.781 1247.43 Q189.309 1247.15 190.837 1247.15 Q199.517 1247.15 204.587 1251.91 Q209.656 1256.67 209.656 1264.79 Q209.656 1273.16 204.448 1277.81 Q199.239 1282.43 189.76 1282.43 Q186.496 1282.43 183.094 1281.88 Q179.726 1281.32 176.115 1280.21 L176.115 1273.16 Q179.24 1274.86 182.573 1275.7 Q185.906 1276.53 189.621 1276.53 Q195.628 1276.53 199.135 1273.37 Q202.642 1270.21 202.642 1264.79 Q202.642 1259.38 199.135 1256.22 Q195.628 1253.06 189.621 1253.06 Q186.809 1253.06 183.996 1253.68 Q181.219 1254.31 178.302 1255.63 L178.302 1229.59 Z" fill="#000000" fill-rule="nonzero" fill-opacity="1" /><path clip-path="url(#clip620)" d="M223.475 1272.61 L230.802 1272.61 L230.802 1281.43 L223.475 1281.43 L223.475 1272.61 Z" fill="#000000" fill-rule="nonzero" fill-opacity="1" /><path clip-path="url(#clip620)" d="M261.079 1234.2 Q255.663 1234.2 252.92 1239.55 Q250.211 1244.86 250.211 1255.56 Q250.211 1266.22 252.92 1271.56 Q255.663 1276.88 261.079 1276.88 Q266.531 1276.88 269.239 1271.56 Q271.982 1266.22 271.982 1255.56 Q271.982 1244.86 269.239 1239.55 Q266.531 1234.2 261.079 1234.2 M261.079 1228.65 Q269.795 1228.65 274.378 1235.56 Q278.996 1242.43 278.996 1255.56 Q278.996 1268.65 274.378 1275.56 Q269.795 1282.43 261.079 1282.43 Q252.364 1282.43 247.746 1275.56 Q243.163 1268.65 243.163 1255.56 Q243.163 1242.43 247.746 1235.56 Q252.364 1228.65 261.079 1228.65 Z" fill="#000000" fill-rule="nonzero" fill-opacity="1" /><path clip-path="url(#clip620)" d="M120.073 990.582 L164.587 990.582 L164.587 996.484 L120.073 996.484 L120.073 990.582 Z" fill="#000000" fill-rule="nonzero" fill-opacity="1" /><path clip-path="url(#clip620)" d="M185.767 1009.92 L210.246 1009.92 L210.246 1015.82 L177.33 1015.82 L177.33 1009.92 Q181.323 1005.79 188.198 998.845 Q195.108 991.866 196.878 989.852 Q200.246 986.068 201.566 983.464 Q202.92 980.825 202.92 978.29 Q202.92 974.158 200.003 971.554 Q197.121 968.95 192.469 968.95 Q189.17 968.95 185.49 970.096 Q181.844 971.241 177.677 973.568 L177.677 966.485 Q181.913 964.783 185.594 963.915 Q189.274 963.047 192.33 963.047 Q200.385 963.047 205.177 967.075 Q209.969 971.103 209.969 977.839 Q209.969 981.033 208.753 983.915 Q207.573 986.762 204.413 990.651 Q203.545 991.658 198.892 996.484 Q194.239 1001.28 185.767 1009.92 Z" fill="#000000" fill-rule="nonzero" fill-opacity="1" /><path clip-path="url(#clip620)" d="M224.968 1007.01 L232.295 1007.01 L232.295 1015.82 L224.968 1015.82 L224.968 1007.01 Z" fill="#000000" fill-rule="nonzero" fill-opacity="1" /><path clip-path="url(#clip620)" d="M247.642 963.985 L275.177 963.985 L275.177 969.887 L254.066 969.887 L254.066 982.596 Q255.593 982.075 257.121 981.832 Q258.649 981.554 260.177 981.554 Q268.857 981.554 273.927 986.311 Q278.996 991.068 278.996 999.193 Q278.996 1007.56 273.788 1012.21 Q268.579 1016.83 259.1 1016.83 Q255.836 1016.83 252.434 1016.28 Q249.066 1015.72 245.454 1014.61 L245.454 1007.56 Q248.579 1009.26 251.913 1010.1 Q255.246 1010.93 258.961 1010.93 Q264.968 1010.93 268.475 1007.77 Q271.982 1004.61 271.982 999.193 Q271.982 993.776 268.475 990.616 Q264.968 987.457 258.961 987.457 Q256.149 987.457 253.336 988.082 Q250.559 988.707 247.642 990.026 L247.642 963.985 Z" fill="#000000" fill-rule="nonzero" fill-opacity="1" /><path clip-path="url(#clip620)" d="M193.233 703.002 Q187.816 703.002 185.073 708.349 Q182.365 713.661 182.365 724.356 Q182.365 735.015 185.073 740.363 Q187.816 745.675 193.233 745.675 Q198.684 745.675 201.392 740.363 Q204.135 735.015 204.135 724.356 Q204.135 713.661 201.392 708.349 Q198.684 703.002 193.233 703.002 M193.233 697.446 Q201.948 697.446 206.531 704.356 Q211.149 711.231 211.149 724.356 Q211.149 737.446 206.531 744.356 Q201.948 751.231 193.233 751.231 Q184.517 751.231 179.899 744.356 Q175.316 737.446 175.316 724.356 Q175.316 711.231 179.899 704.356 Q184.517 697.446 193.233 697.446 Z" fill="#000000" fill-rule="nonzero" fill-opacity="1" /><path clip-path="url(#clip620)" d="M223.475 741.404 L230.802 741.404 L230.802 750.224 L223.475 750.224 L223.475 741.404 Z" fill="#000000" fill-rule="nonzero" fill-opacity="1" /><path clip-path="url(#clip620)" d="M261.079 703.002 Q255.663 703.002 252.92 708.349 Q250.211 713.661 250.211 724.356 Q250.211 735.015 252.92 740.363 Q255.663 745.675 261.079 745.675 Q266.531 745.675 269.239 740.363 Q271.982 735.015 271.982 724.356 Q271.982 713.661 269.239 708.349 Q266.531 703.002 261.079 703.002 M261.079 697.446 Q269.795 697.446 274.378 704.356 Q278.996 711.231 278.996 724.356 Q278.996 737.446 274.378 744.356 Q269.795 751.231 261.079 751.231 Q252.364 751.231 247.746 744.356 Q243.163 737.446 243.163 724.356 Q243.163 711.231 247.746 704.356 Q252.364 697.446 261.079 697.446 Z" fill="#000000" fill-rule="nonzero" fill-opacity="1" /><path clip-path="url(#clip620)" d="M185.767 478.72 L210.246 478.72 L210.246 484.623 L177.33 484.623 L177.33 478.72 Q181.323 474.588 188.198 467.644 Q195.108 460.664 196.878 458.651 Q200.246 454.866 201.566 452.262 Q202.92 449.623 202.92 447.088 Q202.92 442.956 200.003 440.352 Q197.121 437.748 192.469 437.748 Q189.17 437.748 185.49 438.894 Q181.844 440.04 177.677 442.366 L177.677 435.283 Q181.913 433.581 185.594 432.713 Q189.274 431.845 192.33 431.845 Q200.385 431.845 205.177 435.873 Q209.969 439.901 209.969 446.637 Q209.969 449.831 208.753 452.713 Q207.573 455.56 204.413 459.449 Q203.545 460.456 198.892 465.282 Q194.239 470.074 185.767 478.72 Z" fill="#000000" fill-rule="nonzero" fill-opacity="1" /><path clip-path="url(#clip620)" d="M224.968 475.803 L232.295 475.803 L232.295 484.623 L224.968 484.623 L224.968 475.803 Z" fill="#000000" fill-rule="nonzero" fill-opacity="1" /><path clip-path="url(#clip620)" d="M247.642 432.783 L275.177 432.783 L275.177 438.685 L254.066 438.685 L254.066 451.394 Q255.593 450.873 257.121 450.63 Q258.649 450.352 260.177 450.352 Q268.857 450.352 273.927 455.109 Q278.996 459.866 278.996 467.991 Q278.996 476.359 273.788 481.012 Q268.579 485.63 259.1 485.63 Q255.836 485.63 252.434 485.074 Q249.066 484.518 245.454 483.407 L245.454 476.359 Q248.579 478.06 251.913 478.894 Q255.246 479.727 258.961 479.727 Q264.968 479.727 268.475 476.567 Q271.982 473.407 271.982 467.991 Q271.982 462.574 268.475 459.414 Q264.968 456.255 258.961 456.255 Q256.149 456.255 253.336 456.88 Q250.559 457.505 247.642 458.824 L247.642 432.783 Z" fill="#000000" fill-rule="nonzero" fill-opacity="1" /><path clip-path="url(#clip620)" d="M178.302 167.182 L205.837 167.182 L205.837 173.084 L184.726 173.084 L184.726 185.793 Q186.253 185.272 187.781 185.029 Q189.309 184.751 190.837 184.751 Q199.517 184.751 204.587 189.508 Q209.656 194.265 209.656 202.39 Q209.656 210.758 204.448 215.411 Q199.239 220.029 189.76 220.029 Q186.496 220.029 183.094 219.473 Q179.726 218.918 176.115 217.806 L176.115 210.758 Q179.24 212.459 182.573 213.293 Q185.906 214.126 189.621 214.126 Q195.628 214.126 199.135 210.966 Q202.642 207.807 202.642 202.39 Q202.642 196.973 199.135 193.814 Q195.628 190.654 189.621 190.654 Q186.809 190.654 183.996 191.279 Q181.219 191.904 178.302 193.223 L178.302 167.182 Z" fill="#000000" fill-rule="nonzero" fill-opacity="1" /><path clip-path="url(#clip620)" d="M223.475 210.202 L230.802 210.202 L230.802 219.022 L223.475 219.022 L223.475 210.202 Z" fill="#000000" fill-rule="nonzero" fill-opacity="1" /><path clip-path="url(#clip620)" d="M261.079 171.8 Q255.663 171.8 252.92 177.147 Q250.211 182.459 250.211 193.154 Q250.211 203.813 252.92 209.161 Q255.663 214.473 261.079 214.473 Q266.531 214.473 269.239 209.161 Q271.982 203.813 271.982 193.154 Q271.982 182.459 269.239 177.147 Q266.531 171.8 261.079 171.8 M261.079 166.244 Q269.795 166.244 274.378 173.154 Q278.996 180.029 278.996 193.154 Q278.996 206.244 274.378 213.154 Q269.795 220.029 261.079 220.029 Q252.364 220.029 247.746 213.154 Q243.163 206.244 243.163 193.154 Q243.163 180.029 247.746 173.154 Q252.364 166.244 261.079 166.244 Z" fill="#000000" fill-rule="nonzero" fill-opacity="1" /><path clip-path="url(#clip620)" d="M35.6047 1168 Q31.2992 1165.61 29.2506 1162.27 Q27.202 1158.94 27.202 1154.43 Q27.202 1148.35 31.4728 1145.05 Q35.7089 1141.75 43.5561 1141.75 L67.0282 1141.75 L67.0282 1148.18 L43.7644 1148.18 Q38.1741 1148.18 35.4658 1150.16 Q32.7575 1152.14 32.7575 1156.2 Q32.7575 1161.16 36.0561 1164.05 Q39.3547 1166.93 45.0491 1166.93 L67.0282 1166.93 L67.0282 1173.35 L43.7644 1173.35 Q38.1394 1173.35 35.4658 1175.33 Q32.7575 1177.31 32.7575 1181.44 Q32.7575 1186.34 36.0908 1189.22 Q39.3894 1192.1 45.0491 1192.1 L67.0282 1192.1 L67.0282 1198.52 L28.1395 1198.52 L28.1395 1192.1 L34.1811 1192.1 Q30.6047 1189.91 28.9034 1186.86 Q27.202 1183.8 27.202 1179.6 Q27.202 1175.36 29.3547 1172.41 Q31.5075 1169.43 35.6047 1168 Z" fill="#000000" fill-rule="nonzero" fill-opacity="1" /><path clip-path="url(#clip620)" d="M47.4797 1111.34 Q47.4797 1119.08 49.2505 1122.07 Q51.0213 1125.05 55.2921 1125.05 Q58.6949 1125.05 60.7087 1122.83 Q62.6879 1120.57 62.6879 1116.72 Q62.6879 1111.41 58.9379 1108.21 Q55.1532 1104.98 48.9033 1104.98 L47.4797 1104.98 L47.4797 1111.34 M44.8408 1098.59 L67.0282 1098.59 L67.0282 1104.98 L61.1254 1104.98 Q64.6671 1107.17 66.3684 1110.43 Q68.0351 1113.7 68.0351 1118.42 Q68.0351 1124.39 64.7018 1127.93 Q61.3337 1131.44 55.7088 1131.44 Q49.1463 1131.44 45.813 1127.07 Q42.4797 1122.66 42.4797 1113.94 L42.4797 1104.98 L41.8547 1104.98 Q37.445 1104.98 35.0492 1107.9 Q32.6186 1110.78 32.6186 1116.02 Q32.6186 1119.36 33.4172 1122.52 Q34.2158 1125.68 35.813 1128.59 L29.9103 1128.59 Q28.5561 1125.09 27.8964 1121.79 Q27.202 1118.49 27.202 1115.36 Q27.202 1106.93 31.577 1102.76 Q35.9519 1098.59 44.8408 1098.59 Z" fill="#000000" fill-rule="nonzero" fill-opacity="1" /><path clip-path="url(#clip620)" d="M29.2853 1060.64 L35.3269 1060.64 Q33.9381 1063.35 33.2436 1066.27 Q32.5492 1069.18 32.5492 1072.31 Q32.5492 1077.07 34.0075 1079.46 Q35.4658 1081.82 38.3825 1081.82 Q40.6047 1081.82 41.8894 1080.12 Q43.1394 1078.42 44.2852 1073.28 L44.7713 1071.09 Q46.2297 1064.29 48.9033 1061.44 Q51.5421 1058.56 56.299 1058.56 Q61.7157 1058.56 64.8754 1062.87 Q68.0351 1067.14 68.0351 1074.64 Q68.0351 1077.76 67.4101 1081.16 Q66.8198 1084.53 65.6046 1088.28 L59.0074 1088.28 Q60.8476 1084.74 61.7851 1081.3 Q62.6879 1077.86 62.6879 1074.5 Q62.6879 1069.98 61.1601 1067.55 Q59.5976 1065.12 56.7852 1065.12 Q54.181 1065.12 52.7921 1066.89 Q51.4032 1068.63 50.1185 1074.57 L49.5977 1076.79 Q48.3477 1082.73 45.7783 1085.36 Q43.1741 1088 38.6603 1088 Q33.1742 1088 30.1881 1084.11 Q27.202 1080.23 27.202 1073.07 Q27.202 1069.53 27.7228 1066.41 Q28.2436 1063.28 29.2853 1060.64 Z" fill="#000000" fill-rule="nonzero" fill-opacity="1" /><path clip-path="url(#clip620)" d="M29.2853 1023.59 L35.3269 1023.59 Q33.9381 1026.3 33.2436 1029.22 Q32.5492 1032.14 32.5492 1035.26 Q32.5492 1040.02 34.0075 1042.41 Q35.4658 1044.77 38.3825 1044.77 Q40.6047 1044.77 41.8894 1043.07 Q43.1394 1041.37 44.2852 1036.23 L44.7713 1034.05 Q46.2297 1027.24 48.9033 1024.39 Q51.5421 1021.51 56.299 1021.51 Q61.7157 1021.51 64.8754 1025.82 Q68.0351 1030.09 68.0351 1037.59 Q68.0351 1040.71 67.4101 1044.12 Q66.8198 1047.48 65.6046 1051.23 L59.0074 1051.23 Q60.8476 1047.69 61.7851 1044.25 Q62.6879 1040.82 62.6879 1037.45 Q62.6879 1032.93 61.1601 1030.5 Q59.5976 1028.07 56.7852 1028.07 Q54.181 1028.07 52.7921 1029.84 Q51.4032 1031.58 50.1185 1037.52 L49.5977 1039.74 Q48.3477 1045.68 45.7783 1048.32 Q43.1741 1050.96 38.6603 1050.96 Q33.1742 1050.96 30.1881 1047.07 Q27.202 1043.18 27.202 1036.02 Q27.202 1032.48 27.7228 1029.36 Q28.2436 1026.23 29.2853 1023.59 Z" fill="#000000" fill-rule="nonzero" fill-opacity="1" /><path clip-path="url(#clip620)" d="M47.4797 971.06 Q47.4797 978.803 49.2505 981.789 Q51.0213 984.775 55.2921 984.775 Q58.6949 984.775 60.7087 982.553 Q62.6879 980.296 62.6879 976.442 Q62.6879 971.129 58.9379 967.935 Q55.1532 964.706 48.9033 964.706 L47.4797 964.706 L47.4797 971.06 M44.8408 958.317 L67.0282 958.317 L67.0282 964.706 L61.1254 964.706 Q64.6671 966.893 66.3684 970.157 Q68.0351 973.421 68.0351 978.143 Q68.0351 984.115 64.7018 987.657 Q61.3337 991.164 55.7088 991.164 Q49.1463 991.164 45.813 986.789 Q42.4797 982.379 42.4797 973.664 L42.4797 964.706 L41.8547 964.706 Q37.445 964.706 35.0492 967.622 Q32.6186 970.504 32.6186 975.747 Q32.6186 979.081 33.4172 982.24 Q34.2158 985.4 35.813 988.317 L29.9103 988.317 Q28.5561 984.81 27.8964 981.511 Q27.202 978.213 27.202 975.088 Q27.202 966.65 31.577 962.484 Q35.9519 958.317 44.8408 958.317 Z" fill="#000000" fill-rule="nonzero" fill-opacity="1" /><path clip-path="url(#clip620)" d="M29.6325 917.171 L35.6047 917.171 Q34.1117 919.88 33.3825 922.623 Q32.6186 925.331 32.6186 928.109 Q32.6186 934.324 36.5769 937.762 Q40.5005 941.199 47.6185 941.199 Q54.7366 941.199 58.6949 937.762 Q62.6185 934.324 62.6185 928.109 Q62.6185 925.331 61.8893 922.623 Q61.1254 919.88 59.6324 917.171 L65.5351 917.171 Q66.7851 919.845 67.4101 922.727 Q68.0351 925.574 68.0351 928.803 Q68.0351 937.588 62.5143 942.761 Q56.9935 947.935 47.6185 947.935 Q38.1047 947.935 32.6533 942.727 Q27.202 937.484 27.202 928.387 Q27.202 925.435 27.827 922.623 Q28.4173 919.81 29.6325 917.171 Z" fill="#000000" fill-rule="nonzero" fill-opacity="1" /><path clip-path="url(#clip620)" d="M29.6325 878.074 L35.6047 878.074 Q34.1117 880.783 33.3825 883.526 Q32.6186 886.234 32.6186 889.012 Q32.6186 895.227 36.5769 898.665 Q40.5005 902.102 47.6185 902.102 Q54.7366 902.102 58.6949 898.665 Q62.6185 895.227 62.6185 889.012 Q62.6185 886.234 61.8893 883.526 Q61.1254 880.783 59.6324 878.074 L65.5351 878.074 Q66.7851 880.748 67.4101 883.63 Q68.0351 886.477 68.0351 889.706 Q68.0351 898.491 62.5143 903.664 Q56.9935 908.838 47.6185 908.838 Q38.1047 908.838 32.6533 903.63 Q27.202 898.387 27.202 889.29 Q27.202 886.338 27.827 883.526 Q28.4173 880.713 29.6325 878.074 Z" fill="#000000" fill-rule="nonzero" fill-opacity="1" /><path clip-path="url(#clip620)" d="M45.9866 833.7 L49.1116 833.7 L49.1116 863.074 Q55.7088 862.658 59.181 859.116 Q62.6185 855.54 62.6185 849.186 Q62.6185 845.505 61.7157 842.068 Q60.8129 838.595 59.0074 835.193 L65.049 835.193 Q66.5073 838.63 67.2712 842.241 Q68.0351 845.852 68.0351 849.568 Q68.0351 858.873 62.6185 864.324 Q57.2018 869.741 47.9658 869.741 Q38.4172 869.741 32.827 864.602 Q27.202 859.429 27.202 850.679 Q27.202 842.831 32.2714 838.283 Q37.3061 833.7 45.9866 833.7 M44.1116 840.088 Q38.8686 840.158 35.7436 843.04 Q32.6186 845.887 32.6186 850.609 Q32.6186 855.956 35.6394 859.186 Q38.6603 862.38 44.1463 862.866 L44.1116 840.088 Z" fill="#000000" fill-rule="nonzero" fill-opacity="1" /><path clip-path="url(#clip620)" d="M13.0007 823.214 L13.0007 816.825 L67.0282 816.825 L67.0282 823.214 L13.0007 823.214 Z" fill="#000000" fill-rule="nonzero" fill-opacity="1" /><path clip-path="url(#clip620)" d="M45.9866 770.193 L49.1116 770.193 L49.1116 799.568 Q55.7088 799.151 59.181 795.61 Q62.6185 792.033 62.6185 785.679 Q62.6185 781.998 61.7157 778.561 Q60.8129 775.089 59.0074 771.686 L65.049 771.686 Q66.5073 775.124 67.2712 778.735 Q68.0351 782.346 68.0351 786.061 Q68.0351 795.366 62.6185 800.818 Q57.2018 806.234 47.9658 806.234 Q38.4172 806.234 32.827 801.096 Q27.202 795.922 27.202 787.172 Q27.202 779.325 32.2714 774.776 Q37.3061 770.193 45.9866 770.193 M44.1116 776.582 Q38.8686 776.651 35.7436 779.533 Q32.6186 782.38 32.6186 787.103 Q32.6186 792.45 35.6394 795.679 Q38.6603 798.873 44.1463 799.359 L44.1116 776.582 Z" fill="#000000" fill-rule="nonzero" fill-opacity="1" /><path clip-path="url(#clip620)" d="M34.1117 737.172 Q33.4867 738.249 33.2089 739.533 Q32.8964 740.783 32.8964 742.311 Q32.8964 747.728 36.438 750.644 Q39.945 753.526 46.5422 753.526 L67.0282 753.526 L67.0282 759.95 L28.1395 759.95 L28.1395 753.526 L34.1811 753.526 Q30.6395 751.513 28.9381 748.283 Q27.202 745.054 27.202 740.436 Q27.202 739.776 27.3061 738.978 Q27.3756 738.179 27.5492 737.207 L34.1117 737.172 Z" fill="#000000" fill-rule="nonzero" fill-opacity="1" /><path clip-path="url(#clip620)" d="M47.4797 712.797 Q47.4797 720.54 49.2505 723.527 Q51.0213 726.513 55.2921 726.513 Q58.6949 726.513 60.7087 724.29 Q62.6879 722.034 62.6879 718.179 Q62.6879 712.867 58.9379 709.672 Q55.1532 706.443 48.9033 706.443 L47.4797 706.443 L47.4797 712.797 M44.8408 700.054 L67.0282 700.054 L67.0282 706.443 L61.1254 706.443 Q64.6671 708.631 66.3684 711.895 Q68.0351 715.159 68.0351 719.881 Q68.0351 725.853 64.7018 729.395 Q61.3337 732.902 55.7088 732.902 Q49.1463 732.902 45.813 728.527 Q42.4797 724.117 42.4797 715.402 L42.4797 706.443 L41.8547 706.443 Q37.445 706.443 35.0492 709.36 Q32.6186 712.242 32.6186 717.485 Q32.6186 720.818 33.4172 723.978 Q34.2158 727.138 35.813 730.054 L29.9103 730.054 Q28.5561 726.547 27.8964 723.249 Q27.202 719.95 27.202 716.825 Q27.202 708.388 31.577 704.221 Q35.9519 700.054 44.8408 700.054 Z" fill="#000000" fill-rule="nonzero" fill-opacity="1" /><path clip-path="url(#clip620)" d="M17.0979 680.575 L28.1395 680.575 L28.1395 667.416 L33.1047 667.416 L33.1047 680.575 L54.2157 680.575 Q58.9726 680.575 60.3268 679.291 Q61.681 677.971 61.681 673.978 L61.681 667.416 L67.0282 667.416 L67.0282 673.978 Q67.0282 681.374 64.2851 684.186 Q61.5074 686.999 54.2157 686.999 L33.1047 686.999 L33.1047 691.686 L28.1395 691.686 L28.1395 686.999 L17.0979 686.999 L17.0979 680.575 Z" fill="#000000" fill-rule="nonzero" fill-opacity="1" /><path clip-path="url(#clip620)" d="M28.1395 659.013 L28.1395 652.624 L67.0282 652.624 L67.0282 659.013 L28.1395 659.013 M13.0007 659.013 L13.0007 652.624 L21.0909 652.624 L21.0909 659.013 L13.0007 659.013 Z" fill="#000000" fill-rule="nonzero" fill-opacity="1" /><path clip-path="url(#clip620)" d="M32.6186 624.187 Q32.6186 629.326 36.6464 632.312 Q40.6394 635.298 47.6185 635.298 Q54.5977 635.298 58.6254 632.346 Q62.6185 629.36 62.6185 624.187 Q62.6185 619.083 58.5907 616.097 Q54.5629 613.11 47.6185 613.11 Q40.7089 613.11 36.6811 616.097 Q32.6186 619.083 32.6186 624.187 M27.202 624.187 Q27.202 615.854 32.6186 611.097 Q38.0353 606.34 47.6185 606.34 Q57.1671 606.34 62.6185 611.097 Q68.0351 615.854 68.0351 624.187 Q68.0351 632.555 62.6185 637.312 Q57.1671 642.034 47.6185 642.034 Q38.0353 642.034 32.6186 637.312 Q27.202 632.555 27.202 624.187 Z" fill="#000000" fill-rule="nonzero" fill-opacity="1" /><path clip-path="url(#clip620)" d="M43.5561 563.423 L67.0282 563.423 L67.0282 569.812 L43.7644 569.812 Q38.2436 569.812 35.5005 571.965 Q32.7575 574.118 32.7575 578.423 Q32.7575 583.597 36.0561 586.583 Q39.3547 589.569 45.0491 589.569 L67.0282 589.569 L67.0282 595.993 L28.1395 595.993 L28.1395 589.569 L34.1811 589.569 Q30.6742 587.277 28.9381 584.187 Q27.202 581.062 27.202 577 Q27.202 570.298 31.3686 566.861 Q35.5005 563.423 43.5561 563.423 Z" fill="#000000" fill-rule="nonzero" fill-opacity="1" /><path clip-path="url(#clip620)" d="M13.0007 528.666 L13.0007 513.944 L17.9659 513.944 L17.9659 522.278 L71.4379 522.278 L71.4379 513.944 L76.4031 513.944 L76.4031 528.666 L13.0007 528.666 Z" fill="#000000" fill-rule="nonzero" fill-opacity="1" /><path clip-path="url(#clip620)" d="M35.6047 470.056 Q31.2992 467.66 29.2506 464.327 Q27.202 460.993 27.202 456.479 Q27.202 450.403 31.4728 447.104 Q35.7089 443.806 43.5561 443.806 L67.0282 443.806 L67.0282 450.229 L43.7644 450.229 Q38.1741 450.229 35.4658 452.209 Q32.7575 454.188 32.7575 458.25 Q32.7575 463.215 36.0561 466.097 Q39.3547 468.979 45.0491 468.979 L67.0282 468.979 L67.0282 475.403 L43.7644 475.403 Q38.1394 475.403 35.4658 477.382 Q32.7575 479.361 32.7575 483.493 Q32.7575 488.389 36.0908 491.271 Q39.3894 494.153 45.0491 494.153 L67.0282 494.153 L67.0282 500.576 L28.1395 500.576 L28.1395 494.153 L34.1811 494.153 Q30.6047 491.965 28.9034 488.91 Q27.202 485.854 27.202 481.653 Q27.202 477.417 29.3547 474.465 Q31.5075 471.479 35.6047 470.056 Z" fill="#000000" fill-rule="nonzero" fill-opacity="1" /><path clip-path="url(#clip620)" d="M15.1882 419.709 L15.1882 413.806 L73.6253 431.861 L73.6253 437.764 L15.1882 419.709 Z" fill="#000000" fill-rule="nonzero" fill-opacity="1" /><path clip-path="url(#clip620)" d="M29.2853 382.313 L35.3269 382.313 Q33.9381 385.021 33.2436 387.938 Q32.5492 390.855 32.5492 393.98 Q32.5492 398.737 34.0075 401.132 Q35.4658 403.494 38.3825 403.494 Q40.6047 403.494 41.8894 401.792 Q43.1394 400.091 44.2852 394.952 L44.7713 392.764 Q46.2297 385.959 48.9033 383.112 Q51.5421 380.23 56.299 380.23 Q61.7157 380.23 64.8754 384.535 Q68.0351 388.806 68.0351 396.306 Q68.0351 399.431 67.4101 402.834 Q66.8198 406.202 65.6046 409.952 L59.0074 409.952 Q60.8476 406.41 61.7851 402.973 Q62.6879 399.535 62.6879 396.167 Q62.6879 391.653 61.1601 389.223 Q59.5976 386.792 56.7852 386.792 Q54.181 386.792 52.7921 388.563 Q51.4032 390.299 50.1185 396.237 L49.5977 398.459 Q48.3477 404.396 45.7783 407.035 Q43.1741 409.674 38.6603 409.674 Q33.1742 409.674 30.1881 405.785 Q27.202 401.896 27.202 394.744 Q27.202 391.202 27.7228 388.077 Q28.2436 384.952 29.2853 382.313 Z" fill="#000000" fill-rule="nonzero" fill-opacity="1" /><path clip-path="url(#clip620)" d="M15.1882 343.563 L34.5283 324.709 L34.5283 331.688 L20.8131 346.966 L34.5283 362.244 L34.5283 369.223 L15.1882 350.369 L15.1882 343.563 Z" fill="#000000" fill-rule="nonzero" fill-opacity="1" /><path clip-path="url(#clip620)" d="M61.1254 303.529 L61.1254 279.05 L67.0282 279.05 L67.0282 311.966 L61.1254 311.966 Q56.9935 307.973 50.0491 301.098 Q43.07 294.189 41.0561 292.418 Q37.2714 289.05 34.6672 287.73 Q32.0283 286.376 29.4936 286.376 Q25.3617 286.376 22.7576 289.293 Q20.1534 292.175 20.1534 296.827 Q20.1534 300.126 21.2992 303.807 Q22.4451 307.452 24.7714 311.619 L17.6881 311.619 Q15.9868 307.383 15.1187 303.702 Q14.2507 300.022 14.2507 296.966 Q14.2507 288.911 18.2784 284.119 Q22.3062 279.328 29.0422 279.328 Q32.2367 279.328 35.1186 280.543 Q37.9658 281.723 41.8547 284.883 Q42.8616 285.751 47.688 290.404 Q52.4796 295.057 61.1254 303.529 Z" fill="#000000" fill-rule="nonzero" fill-opacity="1" /><path clip-path="url(#clip620)" d="M13.0007 250.3 L76.4031 250.3 L76.4031 265.022 L71.4379 265.022 L71.4379 256.724 L17.9659 256.724 L17.9659 265.022 L13.0007 265.022 L13.0007 250.3 Z" fill="#000000" fill-rule="nonzero" fill-opacity="1" /><polyline clip-path="url(#clip622)" style="stroke:#009af9; stroke-linecap:round; stroke-linejoin:round; stroke-width:8; stroke-opacity:1; fill:none" points="372.668,86.8614 376.513,87.1936 380.358,88.1549 384.203,89.7482 388.048,91.9741 391.893,94.8307 395.737,98.3173 399.582,102.429 403.427,107.165 407.272,112.517 411.117,118.482 414.962,125.052 418.806,132.221 422.651,139.978 426.496,148.32 430.341,157.239 434.186,166.722 438.031,176.76 441.875,187.347 445.72,198.475 449.565,210.123 453.41,222.285 457.255,234.953 461.1,248.111 464.944,261.741 468.789,275.836 472.634,290.382 476.479,305.358 480.324,320.748 484.168,336.541 488.013,352.721 491.858,369.276 495.703,386.189 499.548,403.445 503.393,421.011 507.237,438.881 511.082,457.039 514.927,475.466 518.772,494.146 522.617,513.061 526.462,532.188 530.306,551.506 534.151,570.999 537.996,590.647 541.841,610.431 545.686,630.331 549.531,650.325 553.375,670.398 557.22,690.527 561.065,710.691 564.91,730.868 568.755,751.038 572.6,771.18 576.444,791.276 580.289,811.311 584.134,831.259 587.979,851.1 591.824,870.812 595.669,890.376 599.513,909.769 603.358,928.985 607.203,947.996 611.048,966.784 614.893,985.327 618.738,1003.61 622.582,1021.61 626.427,1039.31 630.272,1056.7 634.117,1073.76 637.962,1090.46 641.807,1106.81 645.651,1122.76 649.496,1138.32 653.341,1153.46 657.186,1168.18 661.031,1182.45 664.876,1196.27 668.72,1209.61 672.565,1222.46 676.41,1234.81 680.255,1246.66 684.1,1257.99 687.944,1268.78 691.789,1279.02 695.634,1288.71 699.479,1297.84 703.324,1306.39 707.169,1314.36 711.013,1321.74 714.858,1328.52 718.703,1334.7 722.548,1340.26 726.393,1345.21 730.238,1349.54 734.082,1353.24 737.927,1356.32 741.772,1358.76 745.617,1360.57 749.462,1361.74 753.307,1362.27 757.151,1362.16 760.996,1361.42 764.841,1360.04 768.686,1358.02 772.531,1355.37 776.376,1352.08 780.22,1348.17 784.065,1343.64 787.91,1338.48 791.755,1332.71 795.6,1326.33 799.445,1319.35 803.289,1311.77 807.134,1303.61 810.979,1294.86 814.824,1285.54 818.669,1275.67 822.514,1265.24 826.358,1254.27 830.203,1242.77 834.048,1230.75 837.893,1218.22 841.738,1205.2 845.583,1191.7 849.427,1177.73 853.272,1163.31 857.117,1148.44 860.962,1133.15 864.807,1117.45 868.651,1101.36 872.496,1084.9 876.341,1068.07 880.186,1050.9 884.031,1033.4 887.876,1015.58 891.72,997.483 895.565,979.109 899.41,960.481 903.255,941.618 907.1,922.533 910.945,903.249 914.789,883.786 918.634,864.165 922.479,844.405 926.324,824.527 930.169,804.545 934.014,784.481 937.858,764.356 941.703,744.192 945.548,724.009 949.393,703.828 953.238,683.67 957.083,663.546 960.927,643.483 964.772,623.5 968.617,603.619 972.462,583.861 976.307,564.245 980.152,544.788 983.996,525.506 987.841,506.423 991.686,487.559 995.531,468.932 999.376,450.564 1003.22,432.472 1007.07,414.664 1010.91,397.167 1014.76,379.997 1018.6,363.172 1022.44,346.71 1026.29,330.628 1030.13,314.939 1033.98,299.655 1037.82,284.796 1041.67,270.378 1045.51,256.414 1049.36,242.921 1053.2,229.911 1057.05,217.391 1060.89,205.378 1064.74,193.884 1068.58,182.921 1072.43,172.5 1076.27,162.634 1080.12,153.33 1083.96,144.594 1087.81,136.437 1091.65,128.869 1095.5,121.897 1099.34,115.53 1103.19,109.773 1107.03,104.628 1110.88,100.103 1114.72,96.2016 1118.57,92.9294 1122.41,90.2896 1126.26,88.2852 1130.1,86.9176 1133.94,86.1857 1137.79,86.0923 1141.63,86.6377 1145.48,87.8213 1149.32,89.6422 1153.17,92.0988 1157.01,95.1875 1160.86,98.9053 1164.7,103.249 1168.55,108.214 1172.39,113.796 1176.24,119.988 1180.08,126.786 1183.93,134.181 1187.77,142.167 1191.62,150.736 1195.46,159.879 1199.31,169.586 1203.15,179.847 1207,190.654 1210.84,201.996 1214.69,213.861 1218.53,226.236 1222.38,239.11 1226.22,252.468 1230.07,266.297 1233.91,280.588 1237.76,295.322 1241.6,310.486 1245.44,326.064 1249.29,342.04 1253.13,358.396 1256.98,375.119 1260.82,392.195 1264.67,409.603 1268.51,427.326 1272.36,445.346 1276.2,463.642 1280.05,482.198 1283.89,501.001 1287.74,520.028 1291.58,539.259 1295.43,558.675 1299.27,578.256 1303.12,597.981 1306.96,617.832 1310.81,637.794 1314.65,657.844 1318.5,677.959 1322.34,698.12 1326.19,718.305 1330.03,738.494 1333.88,758.673 1337.72,778.82 1341.57,798.913 1345.41,818.93 1349.26,838.851 1353.1,858.655 1356.94,878.324 1360.79,897.845 1364.63,917.192 1368.48,936.346 1372.32,955.287 1376.17,973.995 1380.01,992.45 1383.86,1010.64 1387.7,1028.55 1391.55,1046.15 1395.39,1063.43 1399.24,1080.37 1403.08,1096.95 1406.93,1113.16 1410.77,1128.98 1414.62,1144.4 1418.46,1159.4 1422.31,1173.96 1426.15,1188.07 1430,1201.72 1433.84,1214.89 1437.69,1227.57 1441.53,1239.75 1445.38,1251.41 1449.22,1262.54 1453.07,1273.13 1456.91,1283.17 1460.76,1292.66 1464.6,1301.58 1468.44,1309.92 1472.29,1317.68 1476.13,1324.84 1479.98,1331.39 1483.82,1337.35 1487.67,1342.69 1491.51,1347.41 1495.36,1351.5 1499.2,1354.97 1503.05,1357.81 1506.89,1360.01 1510.74,1361.58 1514.58,1362.51 1518.43,1362.8 1522.27,1362.46 1526.12,1361.47 1529.96,1359.85 1533.81,1357.59 1537.65,1354.7 1541.5,1351.17 1545.34,1347.02 1549.19,1342.25 1553.03,1336.86 1556.88,1330.85 1560.72,1324.24 1564.57,1317.03 1568.41,1309.22 1572.26,1300.83 1576.1,1291.86 1579.95,1282.32 1583.79,1272.23 1587.63,1261.59 1591.48,1250.41 1595.32,1238.7 1599.17,1226.48 1603.01,1213.75 1606.86,1200.54 1610.7,1186.85 1614.55,1172.69 1618.39,1158.09 1622.24,1143.05 1626.08,1127.6 1629.93,1111.74 1633.77,1095.49 1637.62,1078.87 1641.46,1061.9 1645.31,1044.59 1649.15,1026.95 1653,1009.02 1656.84,990.801 1660.69,972.315 1664.53,953.578 1668.38,934.611 1672.22,915.434 1676.07,896.067 1679.91,876.529 1683.76,856.842 1687.6,837.016 1691.45,817.077 1695.29,797.045 1699.13,776.941 1702.98,756.785 1706.82,736.6 1710.67,716.401 1714.51,696.205 1718.36,676.038 1722.2,655.919 1726.05,635.87 1729.89,615.911 1733.74,596.063 1737.58,576.338 1741.43,556.759 1745.27,537.348 1749.12,518.125 1752.96,499.11 1756.81,480.322 1760.65,461.779 1764.5,443.492 1768.34,425.487 1772.19,407.781 1776.03,390.393 1779.88,373.34 1783.72,356.642 1787.57,340.306 1791.41,324.353 1795.26,308.801 1799.1,293.664 1802.95,278.96 1806.79,264.703 1810.63,250.908 1814.48,237.58 1818.32,224.74 1822.17,212.399 1826.01,200.572 1829.86,189.27 1833.7,178.506 1837.55,168.285 1841.39,158.618 1845.24,149.517 1849.08,140.992 1852.93,133.051 1856.77,125.704 1860.62,118.956 1864.46,112.811 1868.31,107.277 1872.15,102.361 1876,98.067 1879.84,94.401 1883.69,91.3664 1887.53,88.9642 1891.38,87.1963 1895.22,86.0659 1899.07,85.5744 1902.91,85.7223 1906.76,86.5097 1910.6,87.9362 1914.45,89.9978 1918.29,92.6942 1922.13,96.0227 1925.98,99.9799 1929.82,104.562 1933.67,109.764 1937.51,115.582 1941.36,122.008 1945.2,129.038 1949.05,136.663 1952.89,144.875 1956.74,153.668 1960.58,163.031 1964.43,172.956 1968.27,183.434 1972.12,194.453 1975.96,206.002 1979.81,218.07 1983.65,230.642 1987.5,243.71 1991.34,257.26 1995.19,271.277 1999.03,285.748 2002.88,300.657 2006.72,315.989 2010.57,331.728 2014.41,347.863 2018.26,364.376 2022.1,381.249 2025.95,398.465 2029.79,416.006 2033.64,433.854 2037.48,451.992 2041.32,470.407 2045.17,489.076 2049.01,507.98 2052.86,527.101 2056.7,546.417 2060.55,565.908 2064.39,585.562 2068.24,605.356 2072.08,625.27 2075.93,645.283 2079.77,665.373 2083.62,685.521 2087.46,705.705 2091.31,725.914 2095.15,746.122 2099,766.309 2102.84,786.452 2106.69,806.531 2110.53,826.525 2114.38,846.42 2118.22,866.196 2122.07,885.831 2125.91,905.303 2129.76,924.593 2133.6,943.68 2137.45,962.546 2141.29,981.18 2145.14,999.557 2148.98,1017.66 2152.82,1035.47 2156.67,1052.96 2160.51,1070.12 2164.36,1086.94 2168.2,1103.4 2172.05,1119.48 2175.89,1135.17 2179.74,1150.44 2183.58,1165.28 2187.43,1179.68 2191.27,1193.64 2195.12,1207.12 2198.96,1220.12 2202.81,1232.62 2206.65,1244.61 2210.5,1256.08 2214.34,1267.02 2218.19,1277.41 2222.03,1287.26 2225.88,1296.54 2229.72,1305.25 2233.57,1313.37 2237.41,1320.91 2241.26,1327.85 2245.1,1334.19 2248.95,1339.91 2252.79,1345.03 2256.64,1349.51 2260.48,1353.38 2264.32,1356.61 2268.17,1359.21 2272.01,1361.18 2275.86,1362.51 2279.7,1363.2 2283.55,1363.25 2287.39,1362.66 2291.24,1361.43 2295.08,1359.57 "/>
<polyline clip-path="url(#clip622)" style="stroke:#e26f46; stroke-linecap:round; stroke-linejoin:round; stroke-width:8; stroke-opacity:1; fill:none" points="372.668,936.784 376.513,936.666 380.358,936.339 384.203,935.806 388.048,935.062 391.893,934.11 395.737,932.948 399.582,931.58 403.427,930.004 407.272,928.222 411.117,926.239 414.962,924.053 418.806,921.666 422.651,919.083 426.496,916.306 430.341,913.335 434.186,910.176 438.031,906.832 441.875,903.303 445.72,899.6 449.565,895.725 453.41,891.678 457.255,887.464 461.1,883.086 464.944,878.546 468.789,873.852 472.634,869.017 476.479,864.037 480.324,858.917 484.168,853.659 488.013,848.269 491.858,842.75 495.703,837.121 499.548,831.38 503.393,825.532 507.237,819.58 511.082,813.53 514.927,807.387 518.772,801.159 522.617,794.861 526.462,788.492 530.306,782.056 534.151,775.561 537.996,769.012 541.841,762.414 545.686,755.782 549.531,749.119 553.375,742.43 557.22,735.721 561.065,728.999 564.91,722.27 568.755,715.542 572.6,708.824 576.444,702.121 580.289,695.438 584.134,688.784 587.979,682.164 591.824,675.585 595.669,669.053 599.513,662.576 603.358,656.159 607.203,649.81 611.048,643.535 614.893,637.341 618.738,631.233 622.582,625.214 626.427,619.294 630.272,613.478 634.117,607.773 637.962,602.185 641.807,596.721 645.651,591.379 649.496,586.167 653.341,581.093 657.186,576.162 661.031,571.38 664.876,566.754 668.72,562.284 672.565,557.969 676.41,553.819 680.255,549.84 684.1,546.037 687.944,542.414 691.789,538.976 695.634,535.716 699.479,532.64 703.324,529.756 707.169,527.067 711.013,524.578 714.858,522.293 718.703,520.209 722.548,518.319 726.393,516.634 730.238,515.158 734.082,513.893 737.927,512.842 741.772,512.008 745.617,511.376 749.462,510.952 753.307,510.742 757.151,510.748 760.996,510.97 764.841,511.41 768.686,512.064 772.531,512.918 776.376,513.983 780.22,515.26 784.065,516.749 787.91,518.449 791.755,520.362 795.6,522.467 799.445,524.771 803.289,527.275 807.134,529.978 810.979,532.879 814.824,535.977 818.669,539.263 822.514,542.724 826.358,546.366 830.203,550.189 834.048,554.188 837.893,558.361 841.738,562.706 845.583,567.203 849.427,571.855 853.272,576.661 857.117,581.616 860.962,586.717 864.807,591.96 868.651,597.337 872.496,602.832 876.341,608.449 880.186,614.184 884.031,620.032 887.876,625.987 891.72,632.045 895.565,638.189 899.41,644.418 903.255,650.728 907.1,657.114 910.945,663.569 914.789,670.088 918.634,676.662 922.479,683.28 926.324,689.94 930.169,696.635 934.014,703.36 937.858,710.108 941.703,716.873 945.548,723.643 949.393,730.414 953.238,737.181 957.083,743.935 960.927,750.671 964.772,757.382 968.617,764.061 972.462,770.701 976.307,777.295 980.152,783.838 983.996,790.321 987.841,796.739 991.686,803.085 995.531,809.354 999.376,815.54 1003.22,821.636 1007.07,827.635 1010.91,833.53 1014.76,839.315 1018.6,844.986 1022.44,850.542 1026.29,855.973 1030.13,861.271 1033.98,866.433 1037.82,871.451 1041.67,876.32 1045.51,881.043 1049.36,885.613 1053.2,890.021 1057.05,894.264 1060.89,898.334 1064.74,902.229 1068.58,905.945 1072.43,909.489 1076.27,912.849 1080.12,916.019 1083.96,918.997 1087.81,921.777 1091.65,924.355 1095.5,926.742 1099.34,928.931 1103.19,930.915 1107.03,932.692 1110.88,934.257 1114.72,935.608 1118.57,936.747 1122.41,937.686 1126.26,938.412 1130.1,938.922 1133.94,939.215 1137.79,939.29 1141.63,939.144 1145.48,938.794 1149.32,938.234 1153.17,937.459 1157.01,936.469 1160.86,935.263 1164.7,933.842 1168.55,932.21 1172.39,930.382 1176.24,928.348 1180.08,926.109 1183.93,923.665 1187.77,921.017 1191.62,918.167 1195.46,915.133 1199.31,911.912 1203.15,908.502 1207,904.906 1210.84,901.126 1214.69,897.164 1218.53,893.027 1222.38,888.733 1226.22,884.274 1230.07,879.653 1233.91,874.874 1237.76,869.941 1241.6,864.857 1245.44,859.639 1249.29,854.289 1253.13,848.808 1256.98,843.201 1260.82,837.471 1264.67,831.624 1268.51,825.669 1272.36,819.619 1276.2,813.473 1280.05,807.237 1283.89,800.915 1287.74,794.514 1291.58,788.039 1295.43,781.504 1299.27,774.913 1303.12,768.27 1306.96,761.582 1310.81,754.854 1314.65,748.093 1318.5,741.307 1322.34,734.507 1326.19,727.696 1330.03,720.88 1333.88,714.066 1337.72,707.26 1341.57,700.471 1345.41,693.704 1349.26,686.968 1353.1,680.269 1356.94,673.612 1360.79,667.005 1364.63,660.455 1368.48,653.968 1372.32,647.549 1376.17,641.205 1380.01,634.945 1383.86,628.773 1387.7,622.696 1391.55,616.723 1395.39,610.852 1399.24,605.093 1403.08,599.452 1406.93,593.936 1410.77,588.551 1414.62,583.304 1418.46,578.197 1422.31,573.229 1426.15,568.411 1430,563.749 1433.84,559.248 1437.69,554.915 1441.53,550.754 1445.38,546.759 1449.22,542.937 1453.07,539.297 1456.91,535.843 1460.76,532.579 1464.6,529.51 1468.44,526.636 1472.29,523.95 1476.13,521.463 1479.98,519.179 1483.82,517.103 1487.67,515.237 1491.51,513.584 1495.36,512.134 1499.2,510.89 1503.05,509.861 1506.89,509.047 1510.74,508.451 1514.58,508.076 1518.43,507.919 1522.27,507.964 1526.12,508.227 1529.96,508.706 1533.81,509.404 1537.65,510.32 1541.5,511.457 1545.34,512.796 1549.19,514.342 1553.03,516.099 1556.88,518.066 1560.72,520.243 1564.57,522.629 1568.41,525.218 1572.26,527.994 1576.1,530.966 1579.95,534.134 1583.79,537.494 1587.63,541.045 1591.48,544.785 1595.32,548.697 1599.17,552.78 1603.01,557.035 1606.86,561.46 1610.7,566.051 1614.55,570.805 1618.39,575.714 1622.24,580.762 1626.08,585.954 1629.93,591.287 1633.77,596.754 1637.62,602.353 1641.46,608.079 1645.31,613.915 1649.15,619.859 1653,625.908 1656.84,632.058 1660.69,638.302 1664.53,644.636 1668.38,651.052 1672.22,657.535 1676.07,664.086 1679.91,670.698 1683.76,677.366 1687.6,684.083 1691.45,690.844 1695.29,697.635 1699.13,704.453 1702.98,711.292 1706.82,718.145 1710.67,725.005 1714.51,731.867 1718.36,738.723 1722.2,745.563 1726.05,752.383 1729.89,759.176 1733.74,765.936 1737.58,772.654 1741.43,779.325 1745.27,785.943 1749.12,792.5 1752.96,798.99 1756.81,805.405 1760.65,811.74 1764.5,817.988 1768.34,824.142 1772.19,830.201 1776.03,836.155 1779.88,841.997 1783.72,847.722 1787.57,853.322 1791.41,858.792 1795.26,864.133 1799.1,869.336 1802.95,874.396 1806.79,879.305 1810.63,884.057 1814.48,888.648 1818.32,893.075 1822.17,897.341 1826.01,901.436 1829.86,905.352 1833.7,909.087 1837.55,912.634 1841.39,915.99 1845.24,919.161 1849.08,922.143 1852.93,924.926 1856.77,927.508 1860.62,929.884 1864.46,932.051 1868.31,934.009 1872.15,935.769 1876,937.319 1879.84,938.654 1883.69,939.773 1887.53,940.673 1891.38,941.351 1895.22,941.822 1899.07,942.08 1902.91,942.12 1906.76,941.94 1910.6,941.54 1914.45,940.918 1918.29,940.077 1922.13,939.034 1925.98,937.775 1929.82,936.302 1933.67,934.615 1937.51,932.713 1941.36,930.597 1945.2,928.283 1949.05,925.77 1952.89,923.055 1956.74,920.14 1960.58,917.025 1964.43,913.712 1968.27,910.208 1972.12,906.53 1975.96,902.669 1979.81,898.628 1983.65,894.41 1987.5,890.019 1991.34,885.455 1995.19,880.738 1999.03,875.869 2002.88,870.847 2006.72,865.676 2010.57,860.36 2014.41,854.905 2018.26,849.316 2022.1,843.611 2025.95,837.787 2029.79,831.847 2033.64,825.797 2037.48,819.643 2041.32,813.389 2045.17,807.05 2049.01,800.631 2052.86,794.134 2056.7,787.566 2060.55,780.932 2064.39,774.238 2068.24,767.493 2072.08,760.709 2075.93,753.887 2079.77,747.035 2083.62,740.158 2087.46,733.263 2091.31,726.357 2095.15,719.45 2099,712.548 2102.84,705.656 2106.69,698.782 2110.53,691.933 2114.38,685.114 2118.22,678.334 2122.07,671.599 2125.91,664.915 2129.76,658.29 2133.6,651.73 2137.45,645.242 2141.29,638.834 2145.14,632.508 2148.98,626.272 2152.82,620.133 2156.67,614.098 2160.51,608.174 2164.36,602.366 2168.2,596.68 2172.05,591.116 2175.89,585.684 2179.74,580.39 2183.58,575.241 2187.43,570.242 2191.27,565.399 2195.12,560.71 2198.96,556.18 2202.81,551.818 2206.65,547.629 2210.5,543.618 2214.34,539.79 2218.19,536.148 2222.03,532.684 2225.88,529.411 2229.72,526.333 2233.57,523.454 2237.41,520.779 2241.26,518.312 2245.1,516.043 2248.95,513.977 2252.79,512.121 2256.64,510.479 2260.48,509.053 2264.32,507.847 2268.17,506.859 2272.01,506.075 2275.86,505.51 2279.7,505.164 2283.55,505.039 2287.39,505.138 2291.24,505.461 2295.08,505.995 "/>
<polyline clip-path="url(#clip622)" style="stroke:#3da44d; stroke-linecap:round; stroke-linejoin:round; stroke-width:8; stroke-opacity:1; fill:none" points="372.668,938.29 376.513,937.982 380.358,937.455 384.203,936.715 388.048,935.767 391.893,934.618 395.737,933.274 399.582,931.741 403.427,930.024 407.272,928.129 411.117,926.062 414.962,923.827 418.806,921.429 422.651,918.872 426.496,916.161 430.341,913.298 434.186,910.287 438.031,907.13 441.875,903.83 445.72,900.388 449.565,896.804 453.41,893.08 457.255,889.214 461.1,885.206 464.944,881.052 468.789,876.75 472.634,872.296 476.479,867.683 480.324,862.909 484.168,857.965 488.013,852.847 491.858,847.548 495.703,842.064 499.548,836.391 503.393,830.527 507.237,824.473 511.082,818.233 514.927,811.813 518.772,805.224 522.617,798.48 526.462,791.6 530.306,784.607 534.151,777.531 537.996,770.409 541.841,763.285 545.686,756.209 549.531,749.228 553.375,742.387 557.22,735.71 561.065,729.199 564.91,722.827 568.755,716.543 572.6,710.285 576.444,703.984 580.289,697.586 584.134,691.052 587.979,684.368 591.824,677.539 595.669,670.589 599.513,663.557 603.358,656.488 607.203,649.433 611.048,642.437 614.893,635.546 618.738,628.794 622.582,622.211 626.427,615.818 630.272,609.629 634.117,603.652 637.962,597.892 641.807,592.346 645.651,587.012 649.496,581.882 653.341,576.949 657.186,572.204 661.031,567.638 664.876,563.243 668.72,559.01 672.565,554.934 676.41,551.01 680.255,547.235 684.1,543.607 687.944,540.128 691.789,536.8 695.634,533.629 699.479,530.621 703.324,527.783 707.169,525.124 711.013,522.654 714.858,520.381 718.703,518.314 722.548,516.462 726.393,514.831 730.238,513.427 734.082,512.256 737.927,511.32 741.772,510.621 745.617,510.158 749.462,509.931 753.307,509.936 757.151,510.171 760.996,510.63 764.841,511.309 768.686,512.202 772.531,513.303 776.376,514.606 780.22,516.105 784.065,517.794 787.91,519.668 791.755,521.719 795.6,523.943 799.445,526.336 803.289,528.89 807.134,531.604 810.979,534.47 814.824,537.487 818.669,540.65 822.514,543.956 826.358,547.403 830.203,550.987 834.048,554.709 837.893,558.567 841.738,562.561 845.583,566.692 849.427,570.961 853.272,575.372 857.117,579.928 860.962,584.633 864.807,589.49 868.651,594.505 872.496,599.682 876.341,605.025 880.186,610.535 884.031,616.214 887.876,622.061 891.72,628.071 895.565,634.237 899.41,640.549 903.255,646.994 907.1,653.558 910.945,660.225 914.789,666.979 918.634,673.802 922.479,680.679 926.324,687.593 930.169,694.525 934.014,701.455 937.858,708.362 941.703,715.233 945.548,722.062 949.393,728.858 953.238,735.641 957.083,742.443 960.927,749.293 964.772,756.217 968.617,763.224 972.462,770.312 976.307,777.46 980.152,784.641 983.996,791.813 987.841,798.936 991.686,805.969 995.531,812.872 999.376,819.614 1003.22,826.17 1007.07,832.521 1010.91,838.657 1014.76,844.571 1018.6,850.261 1022.44,855.732 1026.29,860.989 1030.13,866.041 1033.98,870.898 1037.82,875.57 1041.67,880.068 1045.51,884.402 1049.36,888.58 1053.2,892.61 1057.05,896.498 1060.89,900.246 1064.74,903.856 1068.58,907.328 1072.43,910.658 1076.27,913.84 1080.12,916.869 1083.96,919.735 1087.81,922.429 1091.65,924.942 1095.5,927.263 1099.34,929.383 1103.19,931.292 1107.03,932.983 1110.88,934.45 1114.72,935.688 1118.57,936.692 1122.41,937.462 1126.26,937.997 1130.1,938.298 1133.94,938.369 1137.79,938.213 1141.63,937.834 1145.48,937.239 1149.32,936.431 1153.17,935.419 1157.01,934.207 1160.86,932.802 1164.7,931.209 1168.55,929.435 1172.39,927.484 1176.24,925.363 1180.08,923.075 1183.93,920.626 1187.77,918.02 1191.62,915.259 1195.46,912.348 1199.31,909.29 1203.15,906.086 1207,902.74 1210.84,899.253 1214.69,895.624 1218.53,891.855 1222.38,887.943 1226.22,883.888 1230.07,879.687 1233.91,875.337 1237.76,870.833 1241.6,866.169 1245.44,861.341 1249.29,856.343 1253.13,851.167 1256.98,845.81 1260.82,840.266 1264.67,834.532 1268.51,828.607 1272.36,822.494 1276.2,816.196 1280.05,809.721 1283.89,803.081 1287.74,796.291 1291.58,789.373 1295.43,782.35 1299.27,775.256 1303.12,768.129 1306.96,761.015 1310.81,753.965 1314.65,747.025 1318.5,740.235 1322.34,733.612 1326.19,727.15 1330.03,720.812 1333.88,714.544 1337.72,708.278 1341.57,701.952 1345.41,695.513 1349.26,688.933 1353.1,682.201 1356.94,675.33 1360.79,668.351 1364.63,661.303 1368.48,654.235 1372.32,647.195 1376.17,640.229 1380.01,633.38 1383.86,626.681 1387.7,620.157 1391.55,613.829 1395.39,607.708 1399.24,601.801 1403.08,596.11 1406.93,590.633 1410.77,585.365 1414.62,580.299 1418.46,575.427 1422.31,570.74 1426.15,566.23 1430,561.887 1433.84,557.706 1437.69,553.679 1441.53,549.803 1445.38,546.075 1449.22,542.495 1453.07,539.064 1456.91,535.787 1460.76,532.668 1464.6,529.714 1468.44,526.933 1472.29,524.335 1476.13,521.927 1479.98,519.72 1483.82,517.722 1487.67,515.941 1491.51,514.383 1495.36,513.055 1499.2,511.96 1503.05,511.1 1506.89,510.477 1510.74,510.09 1514.58,509.938 1518.43,510.018 1522.27,510.325 1526.12,510.856 1529.96,511.604 1533.81,512.564 1537.65,513.73 1541.5,515.097 1545.34,516.657 1549.19,518.405 1553.03,520.336 1556.88,522.443 1560.72,524.721 1564.57,527.165 1568.41,529.771 1572.26,532.533 1576.1,535.447 1579.95,538.51 1583.79,541.719 1587.63,545.069 1591.48,548.559 1595.32,552.187 1599.17,555.951 1603.01,559.851 1606.86,563.888 1610.7,568.063 1614.55,572.377 1618.39,576.834 1622.24,581.437 1626.08,586.189 1629.93,591.096 1633.77,596.163 1637.62,601.392 1641.46,606.788 1645.31,612.353 1649.15,618.085 1653,623.984 1656.84,630.044 1660.69,636.257 1664.53,642.613 1668.38,649.097 1672.22,655.695 1676.07,662.391 1679.91,669.167 1683.76,676.008 1687.6,682.898 1691.45,689.819 1695.29,696.751 1699.13,703.675 1702.98,710.572 1706.82,717.429 1710.67,724.246 1714.51,731.035 1718.36,737.82 1722.2,744.634 1726.05,751.505 1729.89,758.454 1733.74,765.487 1737.58,772.596 1741.43,779.756 1745.27,786.936 1749.12,794.094 1752.96,801.19 1756.81,808.181 1760.65,815.034 1764.5,821.716 1768.34,828.207 1772.19,834.489 1776.03,840.552 1779.88,846.393 1783.72,852.012 1787.57,857.413 1791.41,862.604 1795.26,867.592 1799.1,872.389 1802.95,877.004 1806.79,881.448 1810.63,885.732 1814.48,889.862 1818.32,893.846 1822.17,897.689 1826.01,901.393 1829.86,904.959 1833.7,908.385 1837.55,911.667 1841.39,914.801 1845.24,917.777 1849.08,920.588 1852.93,923.224 1856.77,925.675 1860.62,927.932 1864.46,929.984 1868.31,931.823 1872.15,933.442 1876,934.835 1879.84,935.997 1883.69,936.925 1887.53,937.619 1891.38,938.078 1895.22,938.305 1899.07,938.303 1902.91,938.075 1906.76,937.626 1910.6,936.962 1914.45,936.089 1918.29,935.013 1922.13,933.739 1925.98,932.274 1929.82,930.624 1933.67,928.794 1937.51,926.789 1941.36,924.615 1945.2,922.277 1949.05,919.778 1952.89,917.123 1956.74,914.315 1960.58,911.358 1964.43,908.254 1968.27,905.006 1972.12,901.616 1975.96,898.085 1979.81,894.412 1983.65,890.599 1987.5,886.643 1991.34,882.543 1995.19,878.295 1999.03,873.897 2002.88,869.344 2006.72,864.629 2010.57,859.748 2014.41,854.695 2018.26,849.463 2022.1,844.047 2025.95,838.444 2029.79,832.65 2033.64,826.666 2037.48,820.494 2041.32,814.14 2045.17,807.613 2049.01,800.925 2052.86,794.093 2056.7,787.14 2060.55,780.093 2064.39,772.985 2068.24,765.859 2072.08,758.762 2075.93,751.743 2079.77,744.849 2083.62,738.112 2087.46,731.543 2091.31,725.126 2095.15,718.817 2099,712.557 2102.84,706.278 2106.69,699.921 2110.53,693.44 2114.38,686.813 2118.22,680.036 2122.07,673.129 2125.91,666.125 2129.76,659.068 2133.6,652.005 2137.45,644.987 2141.29,638.057 2145.14,631.254 2148.98,624.609 2152.82,618.147 2156.67,611.885 2160.51,605.833 2164.36,599.995 2168.2,594.372 2172.05,588.962 2175.89,583.759 2179.74,578.756 2183.58,573.944 2187.43,569.314 2191.27,564.857 2195.12,560.566 2198.96,556.434 2202.81,552.456 2206.65,548.627 2210.5,544.946 2214.34,541.413 2218.19,538.031 2222.03,534.803 2225.88,531.736 2229.72,528.837 2233.57,526.114 2237.41,523.575 2241.26,521.231 2245.1,519.09 2248.95,517.16 2252.79,515.449 2256.64,513.964 2260.48,512.709 2264.32,511.689 2268.17,510.904 2272.01,510.356 2275.86,510.044 2279.7,509.965 2283.55,510.117 2287.39,510.495 2291.24,511.094 2295.08,511.909 "/>
<path clip-path="url(#clip620)" d="M1461.43 299.749 L2284.83 299.749 L2284.83 92.3886 L1461.43 92.3886  Z" fill="#ffffff" fill-rule="evenodd" fill-opacity="1"/>
<polyline clip-path="url(#clip620)" style="stroke:#000000; stroke-linecap:round; stroke-linejoin:round; stroke-width:4; stroke-opacity:1; fill:none" points="1461.43,299.749 2284.83,299.749 2284.83,92.3886 1461.43,92.3886 1461.43,299.749 "/>
<polyline clip-path="url(#clip620)" style="stroke:#009af9; stroke-linecap:round; stroke-linejoin:round; stroke-width:8; stroke-opacity:1; fill:none" points="1484.07,144.229 1619.92,144.229 "/>
<path clip-path="url(#clip620)" d="M1661.47 139.518 L1661.47 125.49 L1665.73 125.49 L1665.73 161.509 L1661.47 161.509 L1661.47 157.62 Q1660.13 159.935 1658.07 161.069 Q1656.03 162.18 1653.16 162.18 Q1648.47 162.18 1645.5 158.43 Q1642.56 154.68 1642.56 148.569 Q1642.56 142.458 1645.5 138.708 Q1648.47 134.958 1653.16 134.958 Q1656.03 134.958 1658.07 136.092 Q1660.13 137.203 1661.47 139.518 M1646.96 148.569 Q1646.96 153.268 1648.88 155.953 Q1650.83 158.615 1654.21 158.615 Q1657.59 158.615 1659.53 155.953 Q1661.47 153.268 1661.47 148.569 Q1661.47 143.87 1659.53 141.208 Q1657.59 138.523 1654.21 138.523 Q1650.83 138.523 1648.88 141.208 Q1646.96 143.87 1646.96 148.569 Z" fill="#000000" fill-rule="nonzero" fill-opacity="1" /><path clip-path="url(#clip620)" d="M1696.68 147.481 L1696.68 149.564 L1677.1 149.564 Q1677.38 153.962 1679.74 156.277 Q1682.12 158.569 1686.36 158.569 Q1688.81 158.569 1691.1 157.967 Q1693.42 157.365 1695.69 156.161 L1695.69 160.189 Q1693.4 161.161 1690.99 161.671 Q1688.58 162.18 1686.1 162.18 Q1679.9 162.18 1676.27 158.569 Q1672.65 154.958 1672.65 148.8 Q1672.65 142.435 1676.08 138.708 Q1679.53 134.958 1685.36 134.958 Q1690.59 134.958 1693.63 138.337 Q1696.68 141.694 1696.68 147.481 M1692.42 146.231 Q1692.38 142.736 1690.46 140.652 Q1688.56 138.569 1685.41 138.569 Q1681.84 138.569 1679.69 140.583 Q1677.56 142.597 1677.24 146.254 L1692.42 146.231 Z" fill="#000000" fill-rule="nonzero" fill-opacity="1" /><path clip-path="url(#clip620)" d="M1716.8 125.49 L1716.8 129.032 L1712.72 129.032 Q1710.43 129.032 1709.53 129.958 Q1708.65 130.884 1708.65 133.291 L1708.65 135.583 L1715.66 135.583 L1715.66 138.893 L1708.65 138.893 L1708.65 161.509 L1704.37 161.509 L1704.37 138.893 L1700.29 138.893 L1700.29 135.583 L1704.37 135.583 L1704.37 133.777 Q1704.37 129.449 1706.38 127.481 Q1708.4 125.49 1712.77 125.49 L1716.8 125.49 Z" fill="#000000" fill-rule="nonzero" fill-opacity="1" /><path clip-path="url(#clip620)" d="M1732.15 148.476 Q1726.98 148.476 1724.99 149.657 Q1723 150.837 1723 153.685 Q1723 155.953 1724.48 157.296 Q1725.99 158.615 1728.56 158.615 Q1732.1 158.615 1734.23 156.115 Q1736.38 153.592 1736.38 149.425 L1736.38 148.476 L1732.15 148.476 M1740.64 146.717 L1740.64 161.509 L1736.38 161.509 L1736.38 157.573 Q1734.92 159.935 1732.75 161.069 Q1730.57 162.18 1727.42 162.18 Q1723.44 162.18 1721.08 159.958 Q1718.74 157.712 1718.74 153.962 Q1718.74 149.587 1721.66 147.365 Q1724.6 145.143 1730.41 145.143 L1736.38 145.143 L1736.38 144.726 Q1736.38 141.787 1734.44 140.189 Q1732.52 138.569 1729.02 138.569 Q1726.8 138.569 1724.69 139.101 Q1722.59 139.634 1720.64 140.699 L1720.64 136.763 Q1722.98 135.861 1725.18 135.421 Q1727.38 134.958 1729.46 134.958 Q1735.09 134.958 1737.86 137.874 Q1740.64 140.791 1740.64 146.717 Z" fill="#000000" fill-rule="nonzero" fill-opacity="1" /><path clip-path="url(#clip620)" d="M1748.97 151.277 L1748.97 135.583 L1753.23 135.583 L1753.23 151.115 Q1753.23 154.796 1754.67 156.648 Q1756.1 158.476 1758.97 158.476 Q1762.42 158.476 1764.41 156.277 Q1766.43 154.078 1766.43 150.282 L1766.43 135.583 L1770.69 135.583 L1770.69 161.509 L1766.43 161.509 L1766.43 157.527 Q1764.88 159.888 1762.82 161.046 Q1760.78 162.18 1758.07 162.18 Q1753.6 162.18 1751.29 159.402 Q1748.97 156.624 1748.97 151.277 M1759.69 134.958 L1759.69 134.958 Z" fill="#000000" fill-rule="nonzero" fill-opacity="1" /><path clip-path="url(#clip620)" d="M1779.46 125.49 L1783.72 125.49 L1783.72 161.509 L1779.46 161.509 L1779.46 125.49 Z" fill="#000000" fill-rule="nonzero" fill-opacity="1" /><path clip-path="url(#clip620)" d="M1796.84 128.222 L1796.84 135.583 L1805.62 135.583 L1805.62 138.893 L1796.84 138.893 L1796.84 152.967 Q1796.84 156.138 1797.7 157.041 Q1798.58 157.944 1801.24 157.944 L1805.62 157.944 L1805.62 161.509 L1801.24 161.509 Q1796.31 161.509 1794.44 159.68 Q1792.56 157.828 1792.56 152.967 L1792.56 138.893 L1789.44 138.893 L1789.44 135.583 L1792.56 135.583 L1792.56 128.222 L1796.84 128.222 Z" fill="#000000" fill-rule="nonzero" fill-opacity="1" /><path clip-path="url(#clip620)" d="M1811.4 126.949 L1831.27 126.949 L1831.27 130.884 L1816.08 130.884 L1816.08 141.069 L1829.78 141.069 L1829.78 145.004 L1816.08 145.004 L1816.08 161.509 L1811.4 161.509 L1811.4 126.949 Z" fill="#000000" fill-rule="nonzero" fill-opacity="1" /><path clip-path="url(#clip620)" d="M1838.67 126.949 L1845.64 126.949 L1854.46 150.467 L1863.33 126.949 L1870.29 126.949 L1870.29 161.509 L1865.73 161.509 L1865.73 131.162 L1856.82 154.865 L1852.12 154.865 L1843.21 131.162 L1843.21 161.509 L1838.67 161.509 L1838.67 126.949 Z" fill="#000000" fill-rule="nonzero" fill-opacity="1" /><path clip-path="url(#clip620)" d="M1879.04 126.949 L1883.74 126.949 L1883.74 147.944 Q1883.74 153.499 1885.76 155.953 Q1887.77 158.384 1892.28 158.384 Q1896.77 158.384 1898.79 155.953 Q1900.8 153.499 1900.8 147.944 L1900.8 126.949 L1905.5 126.949 L1905.5 148.523 Q1905.5 155.282 1902.14 158.731 Q1898.81 162.18 1892.28 162.18 Q1885.73 162.18 1882.38 158.731 Q1879.04 155.282 1879.04 148.523 L1879.04 126.949 Z" fill="#000000" fill-rule="nonzero" fill-opacity="1" /><polyline clip-path="url(#clip620)" style="stroke:#e26f46; stroke-linecap:round; stroke-linejoin:round; stroke-width:8; stroke-opacity:1; fill:none" points="1484.07,196.069 1619.92,196.069 "/>
<path clip-path="url(#clip620)" d="M1657.75 191.404 Q1657.03 190.988 1656.17 190.802 Q1655.34 190.594 1654.32 190.594 Q1650.71 190.594 1648.77 192.955 Q1646.84 195.293 1646.84 199.691 L1646.84 213.349 L1642.56 213.349 L1642.56 187.423 L1646.84 187.423 L1646.84 191.451 Q1648.19 189.089 1650.34 187.955 Q1652.49 186.798 1655.57 186.798 Q1656.01 186.798 1656.54 186.867 Q1657.08 186.914 1657.72 187.029 L1657.75 191.404 Z" fill="#000000" fill-rule="nonzero" fill-opacity="1" /><path clip-path="url(#clip620)" d="M1683.35 199.321 L1683.35 201.404 L1663.77 201.404 Q1664.04 205.802 1666.4 208.117 Q1668.79 210.409 1673.03 210.409 Q1675.48 210.409 1677.77 209.807 Q1680.09 209.205 1682.35 208.001 L1682.35 212.029 Q1680.06 213.001 1677.65 213.511 Q1675.25 214.02 1672.77 214.02 Q1666.57 214.02 1662.93 210.409 Q1659.32 206.798 1659.32 200.64 Q1659.32 194.275 1662.75 190.548 Q1666.2 186.798 1672.03 186.798 Q1677.26 186.798 1680.29 190.177 Q1683.35 193.534 1683.35 199.321 M1679.09 198.071 Q1679.04 194.576 1677.12 192.492 Q1675.22 190.409 1672.08 190.409 Q1668.51 190.409 1666.36 192.423 Q1664.23 194.437 1663.9 198.094 L1679.09 198.071 Z" fill="#000000" fill-rule="nonzero" fill-opacity="1" /><path clip-path="url(#clip620)" d="M1703.46 177.33 L1703.46 180.872 L1699.39 180.872 Q1697.1 180.872 1696.2 181.798 Q1695.32 182.724 1695.32 185.131 L1695.32 187.423 L1702.33 187.423 L1702.33 190.733 L1695.32 190.733 L1695.32 213.349 L1691.03 213.349 L1691.03 190.733 L1686.96 190.733 L1686.96 187.423 L1691.03 187.423 L1691.03 185.617 Q1691.03 181.289 1693.05 179.321 Q1695.06 177.33 1699.44 177.33 L1703.46 177.33 Z" fill="#000000" fill-rule="nonzero" fill-opacity="1" /><path clip-path="url(#clip620)" d="M1729.21 199.321 L1729.21 201.404 L1709.62 201.404 Q1709.9 205.802 1712.26 208.117 Q1714.65 210.409 1718.88 210.409 Q1721.34 210.409 1723.63 209.807 Q1725.94 209.205 1728.21 208.001 L1728.21 212.029 Q1725.92 213.001 1723.51 213.511 Q1721.1 214.02 1718.63 214.02 Q1712.42 214.02 1708.79 210.409 Q1705.18 206.798 1705.18 200.64 Q1705.18 194.275 1708.6 190.548 Q1712.05 186.798 1717.89 186.798 Q1723.12 186.798 1726.15 190.177 Q1729.21 193.534 1729.21 199.321 M1724.95 198.071 Q1724.9 194.576 1722.98 192.492 Q1721.08 190.409 1717.93 190.409 Q1714.37 190.409 1712.21 192.423 Q1710.09 194.437 1709.76 198.094 L1724.95 198.071 Z" fill="#000000" fill-rule="nonzero" fill-opacity="1" /><path clip-path="url(#clip620)" d="M1751.22 191.404 Q1750.5 190.988 1749.65 190.802 Q1748.81 190.594 1747.79 190.594 Q1744.18 190.594 1742.24 192.955 Q1740.32 195.293 1740.32 199.691 L1740.32 213.349 L1736.03 213.349 L1736.03 187.423 L1740.32 187.423 L1740.32 191.451 Q1741.66 189.089 1743.81 187.955 Q1745.96 186.798 1749.04 186.798 Q1749.48 186.798 1750.02 186.867 Q1750.55 186.914 1751.2 187.029 L1751.22 191.404 Z" fill="#000000" fill-rule="nonzero" fill-opacity="1" /><path clip-path="url(#clip620)" d="M1776.82 199.321 L1776.82 201.404 L1757.24 201.404 Q1757.52 205.802 1759.88 208.117 Q1762.26 210.409 1766.5 210.409 Q1768.95 210.409 1771.24 209.807 Q1773.56 209.205 1775.83 208.001 L1775.83 212.029 Q1773.53 213.001 1771.13 213.511 Q1768.72 214.02 1766.24 214.02 Q1760.04 214.02 1756.4 210.409 Q1752.79 206.798 1752.79 200.64 Q1752.79 194.275 1756.22 190.548 Q1759.67 186.798 1765.5 186.798 Q1770.73 186.798 1773.77 190.177 Q1776.82 193.534 1776.82 199.321 M1772.56 198.071 Q1772.52 194.576 1770.59 192.492 Q1768.7 190.409 1765.55 190.409 Q1761.98 190.409 1759.83 192.423 Q1757.7 194.437 1757.38 198.094 L1772.56 198.071 Z" fill="#000000" fill-rule="nonzero" fill-opacity="1" /><path clip-path="url(#clip620)" d="M1805.36 197.701 L1805.36 213.349 L1801.1 213.349 L1801.1 197.839 Q1801.1 194.159 1799.67 192.33 Q1798.23 190.502 1795.36 190.502 Q1791.91 190.502 1789.92 192.701 Q1787.93 194.9 1787.93 198.696 L1787.93 213.349 L1783.65 213.349 L1783.65 187.423 L1787.93 187.423 L1787.93 191.451 Q1789.46 189.113 1791.52 187.955 Q1793.6 186.798 1796.31 186.798 Q1800.78 186.798 1803.07 189.576 Q1805.36 192.33 1805.36 197.701 Z" fill="#000000" fill-rule="nonzero" fill-opacity="1" /><path clip-path="url(#clip620)" d="M1832.52 188.418 L1832.52 192.4 Q1830.71 191.404 1828.88 190.918 Q1827.08 190.409 1825.22 190.409 Q1821.08 190.409 1818.79 193.048 Q1816.5 195.664 1816.5 200.409 Q1816.5 205.154 1818.79 207.793 Q1821.08 210.409 1825.22 210.409 Q1827.08 210.409 1828.88 209.923 Q1830.71 209.413 1832.52 208.418 L1832.52 212.353 Q1830.73 213.187 1828.81 213.603 Q1826.91 214.02 1824.76 214.02 Q1818.9 214.02 1815.46 210.339 Q1812.01 206.659 1812.01 200.409 Q1812.01 194.066 1815.48 190.432 Q1818.97 186.798 1825.04 186.798 Q1827.01 186.798 1828.88 187.215 Q1830.76 187.608 1832.52 188.418 Z" fill="#000000" fill-rule="nonzero" fill-opacity="1" /><path clip-path="url(#clip620)" d="M1862.1 199.321 L1862.1 201.404 L1842.52 201.404 Q1842.79 205.802 1845.15 208.117 Q1847.54 210.409 1851.77 210.409 Q1854.23 210.409 1856.52 209.807 Q1858.83 209.205 1861.1 208.001 L1861.1 212.029 Q1858.81 213.001 1856.4 213.511 Q1854 214.02 1851.52 214.02 Q1845.32 214.02 1841.68 210.409 Q1838.07 206.798 1838.07 200.64 Q1838.07 194.275 1841.5 190.548 Q1844.95 186.798 1850.78 186.798 Q1856.01 186.798 1859.04 190.177 Q1862.1 193.534 1862.1 199.321 M1857.84 198.071 Q1857.79 194.576 1855.87 192.492 Q1853.97 190.409 1850.83 190.409 Q1847.26 190.409 1845.11 192.423 Q1842.98 194.437 1842.65 198.094 L1857.84 198.071 Z" fill="#000000" fill-rule="nonzero" fill-opacity="1" /><path clip-path="url(#clip620)" d="M1869.27 178.789 L1889.14 178.789 L1889.14 182.724 L1873.95 182.724 L1873.95 192.909 L1887.65 192.909 L1887.65 196.844 L1873.95 196.844 L1873.95 213.349 L1869.27 213.349 L1869.27 178.789 Z" fill="#000000" fill-rule="nonzero" fill-opacity="1" /><path clip-path="url(#clip620)" d="M1896.54 178.789 L1903.51 178.789 L1912.33 202.307 L1921.2 178.789 L1928.16 178.789 L1928.16 213.349 L1923.6 213.349 L1923.6 183.002 L1914.69 206.705 L1909.99 206.705 L1901.08 183.002 L1901.08 213.349 L1896.54 213.349 L1896.54 178.789 Z" fill="#000000" fill-rule="nonzero" fill-opacity="1" /><path clip-path="url(#clip620)" d="M1936.91 178.789 L1941.61 178.789 L1941.61 199.784 Q1941.61 205.339 1943.63 207.793 Q1945.64 210.224 1950.15 210.224 Q1954.64 210.224 1956.66 207.793 Q1958.67 205.339 1958.67 199.784 L1958.67 178.789 L1963.37 178.789 L1963.37 200.363 Q1963.37 207.122 1960.01 210.571 Q1956.68 214.02 1950.15 214.02 Q1943.6 214.02 1940.25 210.571 Q1936.91 207.122 1936.91 200.363 L1936.91 178.789 Z" fill="#000000" fill-rule="nonzero" fill-opacity="1" /><polyline clip-path="url(#clip620)" style="stroke:#3da44d; stroke-linecap:round; stroke-linejoin:round; stroke-width:8; stroke-opacity:1; fill:none" points="1484.07,247.909 1619.92,247.909 "/>
<path clip-path="url(#clip620)" d="M1670.43 233.291 L1670.43 238.221 Q1668.07 236.022 1665.39 234.934 Q1662.72 233.846 1659.72 233.846 Q1653.79 233.846 1650.64 237.48 Q1647.49 241.092 1647.49 247.943 Q1647.49 254.772 1650.64 258.406 Q1653.79 262.017 1659.72 262.017 Q1662.72 262.017 1665.39 260.929 Q1668.07 259.841 1670.43 257.642 L1670.43 262.527 Q1667.98 264.193 1665.22 265.027 Q1662.49 265.86 1659.44 265.86 Q1651.59 265.86 1647.08 261.068 Q1642.56 256.253 1642.56 247.943 Q1642.56 239.61 1647.08 234.818 Q1651.59 230.004 1659.44 230.004 Q1662.54 230.004 1665.27 230.837 Q1668.03 231.647 1670.43 233.291 Z" fill="#000000" fill-rule="nonzero" fill-opacity="1" /><path clip-path="url(#clip620)" d="M1698.37 231.763 L1698.37 236.323 Q1695.71 235.05 1693.35 234.425 Q1690.99 233.8 1688.79 233.8 Q1684.97 233.8 1682.89 235.281 Q1680.83 236.763 1680.83 239.494 Q1680.83 241.786 1682.19 242.967 Q1683.58 244.124 1687.42 244.842 L1690.25 245.42 Q1695.48 246.416 1697.96 248.939 Q1700.46 251.439 1700.46 255.652 Q1700.46 260.675 1697.08 263.267 Q1693.72 265.86 1687.22 265.86 Q1684.76 265.86 1681.98 265.304 Q1679.23 264.749 1676.27 263.661 L1676.27 258.846 Q1679.11 260.443 1681.84 261.253 Q1684.58 262.064 1687.22 262.064 Q1691.22 262.064 1693.4 260.49 Q1695.57 258.916 1695.57 255.999 Q1695.57 253.453 1694 252.017 Q1692.45 250.582 1688.88 249.865 L1686.03 249.309 Q1680.8 248.267 1678.47 246.045 Q1676.13 243.823 1676.13 239.865 Q1676.13 235.281 1679.34 232.642 Q1682.59 230.004 1688.26 230.004 Q1690.69 230.004 1693.21 230.443 Q1695.73 230.883 1698.37 231.763 Z" fill="#000000" fill-rule="nonzero" fill-opacity="1" /><path clip-path="url(#clip620)" d="M1705.41 250.304 L1717.89 250.304 L1717.89 254.101 L1705.41 254.101 L1705.41 250.304 Z" fill="#000000" fill-rule="nonzero" fill-opacity="1" /><path clip-path="url(#clip620)" d="M1724.85 230.629 L1731.15 230.629 L1746.47 259.541 L1746.47 230.629 L1751.01 230.629 L1751.01 265.189 L1744.71 265.189 L1729.39 236.277 L1729.39 265.189 L1724.85 265.189 L1724.85 230.629 Z" fill="#000000" fill-rule="nonzero" fill-opacity="1" /><path clip-path="url(#clip620)" d="M1782.31 251.161 L1782.31 253.244 L1762.72 253.244 Q1763 257.642 1765.36 259.957 Q1767.75 262.249 1771.98 262.249 Q1774.44 262.249 1776.73 261.647 Q1779.04 261.045 1781.31 259.841 L1781.31 263.869 Q1779.02 264.841 1776.61 265.351 Q1774.21 265.86 1771.73 265.86 Q1765.52 265.86 1761.89 262.249 Q1758.28 258.638 1758.28 252.48 Q1758.28 246.115 1761.71 242.388 Q1765.15 238.638 1770.99 238.638 Q1776.22 238.638 1779.25 242.017 Q1782.31 245.374 1782.31 251.161 M1778.05 249.911 Q1778 246.416 1776.08 244.332 Q1774.18 242.249 1771.03 242.249 Q1767.47 242.249 1765.32 244.263 Q1763.19 246.277 1762.86 249.934 L1778.05 249.911 Z" fill="#000000" fill-rule="nonzero" fill-opacity="1" /><path clip-path="url(#clip620)" d="M1788.86 254.957 L1788.86 239.263 L1793.12 239.263 L1793.12 254.795 Q1793.12 258.476 1794.55 260.328 Q1795.99 262.156 1798.86 262.156 Q1802.31 262.156 1804.3 259.957 Q1806.31 257.758 1806.31 253.962 L1806.31 239.263 L1810.57 239.263 L1810.57 265.189 L1806.31 265.189 L1806.31 261.207 Q1804.76 263.568 1802.7 264.726 Q1800.66 265.86 1797.96 265.86 Q1793.49 265.86 1791.17 263.082 Q1788.86 260.304 1788.86 254.957 M1799.58 238.638 L1799.58 238.638 Z" fill="#000000" fill-rule="nonzero" fill-opacity="1" /><path clip-path="url(#clip620)" d="M1834.37 243.244 Q1833.65 242.828 1832.79 242.642 Q1831.96 242.434 1830.94 242.434 Q1827.33 242.434 1825.39 244.795 Q1823.46 247.133 1823.46 251.531 L1823.46 265.189 L1819.18 265.189 L1819.18 239.263 L1823.46 239.263 L1823.46 243.291 Q1824.81 240.929 1826.96 239.795 Q1829.11 238.638 1832.19 238.638 Q1832.63 238.638 1833.16 238.707 Q1833.7 238.754 1834.34 238.869 L1834.37 243.244 Z" fill="#000000" fill-rule="nonzero" fill-opacity="1" /><path clip-path="url(#clip620)" d="M1850.62 252.156 Q1845.45 252.156 1843.46 253.337 Q1841.47 254.517 1841.47 257.365 Q1841.47 259.633 1842.95 260.976 Q1844.46 262.295 1847.03 262.295 Q1850.57 262.295 1852.7 259.795 Q1854.85 257.272 1854.85 253.105 L1854.85 252.156 L1850.62 252.156 M1859.11 250.397 L1859.11 265.189 L1854.85 265.189 L1854.85 261.253 Q1853.39 263.615 1851.22 264.749 Q1849.04 265.86 1845.89 265.86 Q1841.91 265.86 1839.55 263.638 Q1837.21 261.392 1837.21 257.642 Q1837.21 253.267 1840.13 251.045 Q1843.07 248.823 1848.88 248.823 L1854.85 248.823 L1854.85 248.406 Q1854.85 245.467 1852.91 243.869 Q1850.99 242.249 1847.49 242.249 Q1845.27 242.249 1843.16 242.781 Q1841.06 243.314 1839.11 244.379 L1839.11 240.443 Q1841.45 239.541 1843.65 239.101 Q1845.85 238.638 1847.93 238.638 Q1853.56 238.638 1856.33 241.554 Q1859.11 244.471 1859.11 250.397 Z" fill="#000000" fill-rule="nonzero" fill-opacity="1" /><path clip-path="url(#clip620)" d="M1867.89 229.17 L1872.14 229.17 L1872.14 265.189 L1867.89 265.189 L1867.89 229.17 Z" fill="#000000" fill-rule="nonzero" fill-opacity="1" /><path clip-path="url(#clip620)" d="M1881.24 230.629 L1901.1 230.629 L1901.1 234.564 L1885.92 234.564 L1885.92 244.749 L1899.62 244.749 L1899.62 248.684 L1885.92 248.684 L1885.92 265.189 L1881.24 265.189 L1881.24 230.629 Z" fill="#000000" fill-rule="nonzero" fill-opacity="1" /><path clip-path="url(#clip620)" d="M1908.51 230.629 L1915.48 230.629 L1924.3 254.147 L1933.16 230.629 L1940.13 230.629 L1940.13 265.189 L1935.57 265.189 L1935.57 234.842 L1926.66 258.545 L1921.96 258.545 L1913.05 234.842 L1913.05 265.189 L1908.51 265.189 L1908.51 230.629 Z" fill="#000000" fill-rule="nonzero" fill-opacity="1" /><path clip-path="url(#clip620)" d="M1948.88 230.629 L1953.58 230.629 L1953.58 251.624 Q1953.58 257.179 1955.59 259.633 Q1957.61 262.064 1962.12 262.064 Q1966.61 262.064 1968.63 259.633 Q1970.64 257.179 1970.64 251.624 L1970.64 230.629 L1975.34 230.629 L1975.34 252.203 Q1975.34 258.962 1971.98 262.411 Q1968.65 265.86 1962.12 265.86 Q1955.57 265.86 1952.21 262.411 Q1948.88 258.962 1948.88 252.203 L1948.88 230.629 Z" fill="#000000" fill-rule="nonzero" fill-opacity="1" /><path clip-path="url(#clip620)" d="M2009.23 229.217 Q2006.13 234.541 2004.62 239.749 Q2003.12 244.957 2003.12 250.304 Q2003.12 255.652 2004.62 260.906 Q2006.15 266.138 2009.23 271.439 L2005.52 271.439 Q2002.05 265.999 2000.32 260.744 Q1998.6 255.49 1998.6 250.304 Q1998.6 245.142 2000.32 239.911 Q2002.03 234.68 2005.52 229.217 L2009.23 229.217 Z" fill="#000000" fill-rule="nonzero" fill-opacity="1" /><path clip-path="url(#clip620)" d="M2018.9 261.253 L2026.54 261.253 L2026.54 234.888 L2018.23 236.555 L2018.23 232.295 L2026.5 230.629 L2031.17 230.629 L2031.17 261.253 L2038.81 261.253 L2038.81 265.189 L2018.9 265.189 L2018.9 261.253 Z" fill="#000000" fill-rule="nonzero" fill-opacity="1" /><path clip-path="url(#clip620)" d="M2058.25 233.707 Q2054.64 233.707 2052.81 237.272 Q2051.01 240.814 2051.01 247.943 Q2051.01 255.05 2052.81 258.615 Q2054.64 262.156 2058.25 262.156 Q2061.89 262.156 2063.69 258.615 Q2065.52 255.05 2065.52 247.943 Q2065.52 240.814 2063.69 237.272 Q2061.89 233.707 2058.25 233.707 M2058.25 230.004 Q2064.06 230.004 2067.12 234.61 Q2070.2 239.193 2070.2 247.943 Q2070.2 256.67 2067.12 261.277 Q2064.06 265.86 2058.25 265.86 Q2052.44 265.86 2049.37 261.277 Q2046.31 256.67 2046.31 247.943 Q2046.31 239.193 2049.37 234.61 Q2052.44 230.004 2058.25 230.004 Z" fill="#000000" fill-rule="nonzero" fill-opacity="1" /><path clip-path="url(#clip620)" d="M2088.42 233.707 Q2084.81 233.707 2082.98 237.272 Q2081.17 240.814 2081.17 247.943 Q2081.17 255.05 2082.98 258.615 Q2084.81 262.156 2088.42 262.156 Q2092.05 262.156 2093.86 258.615 Q2095.69 255.05 2095.69 247.943 Q2095.69 240.814 2093.86 237.272 Q2092.05 233.707 2088.42 233.707 M2088.42 230.004 Q2094.23 230.004 2097.28 234.61 Q2100.36 239.193 2100.36 247.943 Q2100.36 256.67 2097.28 261.277 Q2094.23 265.86 2088.42 265.86 Q2082.61 265.86 2079.53 261.277 Q2076.47 256.67 2076.47 247.943 Q2076.47 239.193 2079.53 234.61 Q2082.61 230.004 2088.42 230.004 Z" fill="#000000" fill-rule="nonzero" fill-opacity="1" /><path clip-path="url(#clip620)" d="M2118.58 233.707 Q2114.97 233.707 2113.14 237.272 Q2111.33 240.814 2111.33 247.943 Q2111.33 255.05 2113.14 258.615 Q2114.97 262.156 2118.58 262.156 Q2122.21 262.156 2124.02 258.615 Q2125.85 255.05 2125.85 247.943 Q2125.85 240.814 2124.02 237.272 Q2122.21 233.707 2118.58 233.707 M2118.58 230.004 Q2124.39 230.004 2127.44 234.61 Q2130.52 239.193 2130.52 247.943 Q2130.52 256.67 2127.44 261.277 Q2124.39 265.86 2118.58 265.86 Q2112.77 265.86 2109.69 261.277 Q2106.63 256.67 2106.63 247.943 Q2106.63 239.193 2109.69 234.61 Q2112.77 230.004 2118.58 230.004 Z" fill="#000000" fill-rule="nonzero" fill-opacity="1" /><path clip-path="url(#clip620)" d="M2175.38 251.161 L2175.38 253.244 L2155.8 253.244 Q2156.08 257.642 2158.44 259.957 Q2160.82 262.249 2165.06 262.249 Q2167.51 262.249 2169.81 261.647 Q2172.12 261.045 2174.39 259.841 L2174.39 263.869 Q2172.1 264.841 2169.69 265.351 Q2167.28 265.86 2164.81 265.86 Q2158.6 265.86 2154.97 262.249 Q2151.36 258.638 2151.36 252.48 Q2151.36 246.115 2154.78 242.388 Q2158.23 238.638 2164.06 238.638 Q2169.3 238.638 2172.33 242.017 Q2175.38 245.374 2175.38 251.161 M2171.12 249.911 Q2171.08 246.416 2169.16 244.332 Q2167.26 242.249 2164.11 242.249 Q2160.55 242.249 2158.39 244.263 Q2156.26 246.277 2155.94 249.934 L2171.12 249.911 Z" fill="#000000" fill-rule="nonzero" fill-opacity="1" /><path clip-path="url(#clip620)" d="M2186.49 261.3 L2186.49 275.05 L2182.21 275.05 L2182.21 239.263 L2186.49 239.263 L2186.49 243.198 Q2187.84 240.883 2189.87 239.772 Q2191.93 238.638 2194.78 238.638 Q2199.5 238.638 2202.44 242.388 Q2205.41 246.138 2205.41 252.249 Q2205.41 258.36 2202.44 262.11 Q2199.5 265.86 2194.78 265.86 Q2191.93 265.86 2189.87 264.749 Q2187.84 263.615 2186.49 261.3 M2200.99 252.249 Q2200.99 247.55 2199.04 244.888 Q2197.12 242.203 2193.74 242.203 Q2190.36 242.203 2188.42 244.888 Q2186.49 247.55 2186.49 252.249 Q2186.49 256.948 2188.42 259.633 Q2190.36 262.295 2193.74 262.295 Q2197.12 262.295 2199.04 259.633 Q2200.99 256.948 2200.99 252.249 Z" fill="#000000" fill-rule="nonzero" fill-opacity="1" /><path clip-path="url(#clip620)" d="M2228.99 240.027 L2228.99 244.054 Q2227.19 243.129 2225.24 242.666 Q2223.3 242.203 2221.22 242.203 Q2218.05 242.203 2216.45 243.175 Q2214.87 244.147 2214.87 246.091 Q2214.87 247.573 2216.01 248.429 Q2217.14 249.263 2220.57 250.027 L2222.03 250.351 Q2226.56 251.323 2228.46 253.105 Q2230.38 254.865 2230.38 258.036 Q2230.38 261.647 2227.51 263.753 Q2224.67 265.86 2219.67 265.86 Q2217.58 265.86 2215.31 265.443 Q2213.07 265.05 2210.57 264.24 L2210.57 259.841 Q2212.93 261.068 2215.22 261.693 Q2217.51 262.295 2219.76 262.295 Q2222.77 262.295 2224.39 261.277 Q2226.01 260.235 2226.01 258.36 Q2226.01 256.624 2224.83 255.698 Q2223.67 254.772 2219.71 253.916 L2218.23 253.568 Q2214.27 252.735 2212.51 251.022 Q2210.75 249.286 2210.75 246.277 Q2210.75 242.619 2213.35 240.629 Q2215.94 238.638 2220.71 238.638 Q2223.07 238.638 2225.15 238.985 Q2227.24 239.332 2228.99 240.027 Z" fill="#000000" fill-rule="nonzero" fill-opacity="1" /><path clip-path="url(#clip620)" d="M2237.77 259.309 L2242.65 259.309 L2242.65 265.189 L2237.77 265.189 L2237.77 259.309 Z" fill="#000000" fill-rule="nonzero" fill-opacity="1" /><path clip-path="url(#clip620)" d="M2251.56 229.217 L2255.27 229.217 Q2258.74 234.68 2260.45 239.911 Q2262.19 245.142 2262.19 250.304 Q2262.19 255.49 2260.45 260.744 Q2258.74 265.999 2255.27 271.439 L2251.56 271.439 Q2254.64 266.138 2256.15 260.906 Q2257.67 255.652 2257.67 250.304 Q2257.67 244.957 2256.15 239.749 Q2254.64 234.541 2251.56 229.217 Z" fill="#000000" fill-rule="nonzero" fill-opacity="1" /></svg>
