<?xml version="1.0" encoding="utf-8"?>
<svg xmlns="http://www.w3.org/2000/svg" xmlns:xlink="http://www.w3.org/1999/xlink" width="600" height="400" viewBox="0 0 2400 1600">
<defs>
  <clipPath id="clip970">
    <rect x="0" y="0" width="2400" height="1600"/>
  </clipPath>
</defs>
<path clip-path="url(#clip970)" d="
M0 1600 L2400 1600 L2400 0 L0 0  Z
  " fill="#ffffff" fill-rule="evenodd" fill-opacity="1"/>
<defs>
  <clipPath id="clip971">
    <rect x="480" y="0" width="1681" height="1600"/>
  </clipPath>
</defs>
<path clip-path="url(#clip970)" d="
M193.288 1486.45 L2352.76 1486.45 L2352.76 47.2441 L193.288 47.2441  Z
  " fill="#ffffff" fill-rule="evenodd" fill-opacity="1"/>
<defs>
  <clipPath id="clip972">
    <rect x="193" y="47" width="2160" height="1440"/>
  </clipPath>
</defs>
<polyline clip-path="url(#clip972)" style="stroke:#000000; stroke-linecap:round; stroke-linejoin:round; stroke-width:2; stroke-opacity:0.1; fill:none" points="
  254.405,1486.45 254.405,47.2441 
  "/>
<polyline clip-path="url(#clip972)" style="stroke:#000000; stroke-linecap:round; stroke-linejoin:round; stroke-width:2; stroke-opacity:0.1; fill:none" points="
  661.852,1486.45 661.852,47.2441 
  "/>
<polyline clip-path="url(#clip972)" style="stroke:#000000; stroke-linecap:round; stroke-linejoin:round; stroke-width:2; stroke-opacity:0.1; fill:none" points="
  1069.3,1486.45 1069.3,47.2441 
  "/>
<polyline clip-path="url(#clip972)" style="stroke:#000000; stroke-linecap:round; stroke-linejoin:round; stroke-width:2; stroke-opacity:0.1; fill:none" points="
  1476.75,1486.45 1476.75,47.2441 
  "/>
<polyline clip-path="url(#clip972)" style="stroke:#000000; stroke-linecap:round; stroke-linejoin:round; stroke-width:2; stroke-opacity:0.1; fill:none" points="
  1884.19,1486.45 1884.19,47.2441 
  "/>
<polyline clip-path="url(#clip972)" style="stroke:#000000; stroke-linecap:round; stroke-linejoin:round; stroke-width:2; stroke-opacity:0.1; fill:none" points="
  2291.64,1486.45 2291.64,47.2441 
  "/>
<polyline clip-path="url(#clip970)" style="stroke:#000000; stroke-linecap:round; stroke-linejoin:round; stroke-width:4; stroke-opacity:1; fill:none" points="
  193.288,1486.45 2352.76,1486.45 
  "/>
<polyline clip-path="url(#clip970)" style="stroke:#000000; stroke-linecap:round; stroke-linejoin:round; stroke-width:4; stroke-opacity:1; fill:none" points="
  254.405,1486.45 254.405,1467.55 
  "/>
<polyline clip-path="url(#clip970)" style="stroke:#000000; stroke-linecap:round; stroke-linejoin:round; stroke-width:4; stroke-opacity:1; fill:none" points="
  661.852,1486.45 661.852,1467.55 
  "/>
<polyline clip-path="url(#clip970)" style="stroke:#000000; stroke-linecap:round; stroke-linejoin:round; stroke-width:4; stroke-opacity:1; fill:none" points="
  1069.3,1486.45 1069.3,1467.55 
  "/>
<polyline clip-path="url(#clip970)" style="stroke:#000000; stroke-linecap:round; stroke-linejoin:round; stroke-width:4; stroke-opacity:1; fill:none" points="
  1476.75,1486.45 1476.75,1467.55 
  "/>
<polyline clip-path="url(#clip970)" style="stroke:#000000; stroke-linecap:round; stroke-linejoin:round; stroke-width:4; stroke-opacity:1; fill:none" points="
  1884.19,1486.45 1884.19,1467.55 
  "/>
<polyline clip-path="url(#clip970)" style="stroke:#000000; stroke-linecap:round; stroke-linejoin:round; stroke-width:4; stroke-opacity:1; fill:none" points="
  2291.64,1486.45 2291.64,1467.55 
  "/>
<path clip-path="url(#clip970)" d="M254.405 1517.37 Q250.794 1517.37 248.965 1520.93 Q247.16 1524.47 247.16 1531.6 Q247.16 1538.71 248.965 1542.27 Q250.794 1545.82 254.405 1545.82 Q258.039 1545.82 259.845 1542.27 Q261.673 1538.71 261.673 1531.6 Q261.673 1524.47 259.845 1520.93 Q258.039 1517.37 254.405 1517.37 M254.405 1513.66 Q260.215 1513.66 263.271 1518.27 Q266.349 1522.85 266.349 1531.6 Q266.349 1540.33 263.271 1544.94 Q260.215 1549.52 254.405 1549.52 Q248.595 1549.52 245.516 1544.94 Q242.46 1540.33 242.46 1531.6 Q242.46 1522.85 245.516 1518.27 Q248.595 1513.66 254.405 1513.66 Z" fill="#000000" fill-rule="evenodd" fill-opacity="1" /><path clip-path="url(#clip970)" d="M652.234 1544.91 L659.873 1544.91 L659.873 1518.55 L651.562 1520.21 L651.562 1515.95 L659.826 1514.29 L664.502 1514.29 L664.502 1544.91 L672.141 1544.91 L672.141 1548.85 L652.234 1548.85 L652.234 1544.91 Z" fill="#000000" fill-rule="evenodd" fill-opacity="1" /><path clip-path="url(#clip970)" d="M1063.95 1544.91 L1080.27 1544.91 L1080.27 1548.85 L1058.33 1548.85 L1058.33 1544.91 Q1060.99 1542.16 1065.57 1537.53 Q1070.18 1532.88 1071.36 1531.53 Q1073.6 1529.01 1074.48 1527.27 Q1075.39 1525.51 1075.39 1523.82 Q1075.39 1521.07 1073.44 1519.33 Q1071.52 1517.6 1068.42 1517.6 Q1066.22 1517.6 1063.77 1518.36 Q1061.34 1519.13 1058.56 1520.68 L1058.56 1515.95 Q1061.38 1514.82 1063.84 1514.24 Q1066.29 1513.66 1068.33 1513.66 Q1073.7 1513.66 1076.89 1516.35 Q1080.09 1519.03 1080.09 1523.52 Q1080.09 1525.65 1079.28 1527.57 Q1078.49 1529.47 1076.38 1532.07 Q1075.8 1532.74 1072.7 1535.95 Q1069.6 1539.15 1063.95 1544.91 Z" fill="#000000" fill-rule="evenodd" fill-opacity="1" /><path clip-path="url(#clip970)" d="M1480.99 1530.21 Q1484.35 1530.93 1486.22 1533.2 Q1488.12 1535.47 1488.12 1538.8 Q1488.12 1543.92 1484.6 1546.72 Q1481.09 1549.52 1474.6 1549.52 Q1472.43 1549.52 1470.11 1549.08 Q1467.82 1548.66 1465.37 1547.81 L1465.37 1543.29 Q1467.31 1544.43 1469.63 1545.01 Q1471.94 1545.58 1474.47 1545.58 Q1478.86 1545.58 1481.15 1543.85 Q1483.47 1542.11 1483.47 1538.8 Q1483.47 1535.75 1481.32 1534.03 Q1479.19 1532.3 1475.37 1532.3 L1471.34 1532.3 L1471.34 1528.45 L1475.55 1528.45 Q1479 1528.45 1480.83 1527.09 Q1482.66 1525.7 1482.66 1523.11 Q1482.66 1520.45 1480.76 1519.03 Q1478.89 1517.6 1475.37 1517.6 Q1473.45 1517.6 1471.25 1518.01 Q1469.05 1518.43 1466.41 1519.31 L1466.41 1515.14 Q1469.07 1514.4 1471.39 1514.03 Q1473.72 1513.66 1475.78 1513.66 Q1481.11 1513.66 1484.21 1516.09 Q1487.31 1518.5 1487.31 1522.62 Q1487.31 1525.49 1485.67 1527.48 Q1484.03 1529.45 1480.99 1530.21 Z" fill="#000000" fill-rule="evenodd" fill-opacity="1" /><path clip-path="url(#clip970)" d="M1887.2 1518.36 L1875.4 1536.81 L1887.2 1536.81 L1887.2 1518.36 M1885.97 1514.29 L1891.85 1514.29 L1891.85 1536.81 L1896.78 1536.81 L1896.78 1540.7 L1891.85 1540.7 L1891.85 1548.85 L1887.2 1548.85 L1887.2 1540.7 L1871.6 1540.7 L1871.6 1536.19 L1885.97 1514.29 Z" fill="#000000" fill-rule="evenodd" fill-opacity="1" /><path clip-path="url(#clip970)" d="M2281.92 1514.29 L2300.27 1514.29 L2300.27 1518.22 L2286.2 1518.22 L2286.2 1526.7 Q2287.22 1526.35 2288.24 1526.19 Q2289.25 1526 2290.27 1526 Q2296.06 1526 2299.44 1529.17 Q2302.82 1532.34 2302.82 1537.76 Q2302.82 1543.34 2299.35 1546.44 Q2295.87 1549.52 2289.56 1549.52 Q2287.38 1549.52 2285.11 1549.15 Q2282.87 1548.78 2280.46 1548.04 L2280.46 1543.34 Q2282.54 1544.47 2284.76 1545.03 Q2286.99 1545.58 2289.46 1545.58 Q2293.47 1545.58 2295.81 1543.48 Q2298.14 1541.37 2298.14 1537.76 Q2298.14 1534.15 2295.81 1532.04 Q2293.47 1529.94 2289.46 1529.94 Q2287.59 1529.94 2285.71 1530.35 Q2283.86 1530.77 2281.92 1531.65 L2281.92 1514.29 Z" fill="#000000" fill-rule="evenodd" fill-opacity="1" /><polyline clip-path="url(#clip972)" style="stroke:#000000; stroke-linecap:round; stroke-linejoin:round; stroke-width:2; stroke-opacity:0.1; fill:none" points="
  193.288,1448.41 2352.76,1448.41 
  "/>
<polyline clip-path="url(#clip972)" style="stroke:#000000; stroke-linecap:round; stroke-linejoin:round; stroke-width:2; stroke-opacity:0.1; fill:none" points="
  193.288,1221.23 2352.76,1221.23 
  "/>
<polyline clip-path="url(#clip972)" style="stroke:#000000; stroke-linecap:round; stroke-linejoin:round; stroke-width:2; stroke-opacity:0.1; fill:none" points="
  193.288,994.041 2352.76,994.041 
  "/>
<polyline clip-path="url(#clip972)" style="stroke:#000000; stroke-linecap:round; stroke-linejoin:round; stroke-width:2; stroke-opacity:0.1; fill:none" points="
  193.288,766.856 2352.76,766.856 
  "/>
<polyline clip-path="url(#clip972)" style="stroke:#000000; stroke-linecap:round; stroke-linejoin:round; stroke-width:2; stroke-opacity:0.1; fill:none" points="
  193.288,539.67 2352.76,539.67 
  "/>
<polyline clip-path="url(#clip972)" style="stroke:#000000; stroke-linecap:round; stroke-linejoin:round; stroke-width:2; stroke-opacity:0.1; fill:none" points="
  193.288,312.485 2352.76,312.485 
  "/>
<polyline clip-path="url(#clip972)" style="stroke:#000000; stroke-linecap:round; stroke-linejoin:round; stroke-width:2; stroke-opacity:0.1; fill:none" points="
  193.288,85.2998 2352.76,85.2998 
  "/>
<polyline clip-path="url(#clip970)" style="stroke:#000000; stroke-linecap:round; stroke-linejoin:round; stroke-width:4; stroke-opacity:1; fill:none" points="
  193.288,1486.45 193.288,47.2441 
  "/>
<polyline clip-path="url(#clip970)" style="stroke:#000000; stroke-linecap:round; stroke-linejoin:round; stroke-width:4; stroke-opacity:1; fill:none" points="
  193.288,1448.41 212.185,1448.41 
  "/>
<polyline clip-path="url(#clip970)" style="stroke:#000000; stroke-linecap:round; stroke-linejoin:round; stroke-width:4; stroke-opacity:1; fill:none" points="
  193.288,1221.23 212.185,1221.23 
  "/>
<polyline clip-path="url(#clip970)" style="stroke:#000000; stroke-linecap:round; stroke-linejoin:round; stroke-width:4; stroke-opacity:1; fill:none" points="
  193.288,994.041 212.185,994.041 
  "/>
<polyline clip-path="url(#clip970)" style="stroke:#000000; stroke-linecap:round; stroke-linejoin:round; stroke-width:4; stroke-opacity:1; fill:none" points="
  193.288,766.856 212.185,766.856 
  "/>
<polyline clip-path="url(#clip970)" style="stroke:#000000; stroke-linecap:round; stroke-linejoin:round; stroke-width:4; stroke-opacity:1; fill:none" points="
  193.288,539.67 212.185,539.67 
  "/>
<polyline clip-path="url(#clip970)" style="stroke:#000000; stroke-linecap:round; stroke-linejoin:round; stroke-width:4; stroke-opacity:1; fill:none" points="
  193.288,312.485 212.185,312.485 
  "/>
<polyline clip-path="url(#clip970)" style="stroke:#000000; stroke-linecap:round; stroke-linejoin:round; stroke-width:4; stroke-opacity:1; fill:none" points="
  193.288,85.2998 212.185,85.2998 
  "/>
<path clip-path="url(#clip970)" d="M50.9921 1448.86 L80.6679 1448.86 L80.6679 1452.8 L50.9921 1452.8 L50.9921 1448.86 Z" fill="#000000" fill-rule="evenodd" fill-opacity="1" /><path clip-path="url(#clip970)" d="M100.76 1434.21 Q97.1493 1434.21 95.3206 1437.77 Q93.515 1441.32 93.515 1448.45 Q93.515 1455.55 95.3206 1459.12 Q97.1493 1462.66 100.76 1462.66 Q104.395 1462.66 106.2 1459.12 Q108.029 1455.55 108.029 1448.45 Q108.029 1441.32 106.2 1437.77 Q104.395 1434.21 100.76 1434.21 M100.76 1430.51 Q106.571 1430.51 109.626 1435.11 Q112.705 1439.7 112.705 1448.45 Q112.705 1457.17 109.626 1461.78 Q106.571 1466.36 100.76 1466.36 Q94.9502 1466.36 91.8715 1461.78 Q88.816 1457.17 88.816 1448.45 Q88.816 1439.7 91.8715 1435.11 Q94.9502 1430.51 100.76 1430.51 Z" fill="#000000" fill-rule="evenodd" fill-opacity="1" /><path clip-path="url(#clip970)" d="M120.922 1459.81 L125.807 1459.81 L125.807 1465.69 L120.922 1465.69 L120.922 1459.81 Z" fill="#000000" fill-rule="evenodd" fill-opacity="1" /><path clip-path="url(#clip970)" d="M150.158 1447.06 Q153.515 1447.77 155.39 1450.04 Q157.288 1452.31 157.288 1455.65 Q157.288 1460.76 153.769 1463.56 Q150.251 1466.36 143.769 1466.36 Q141.593 1466.36 139.279 1465.92 Q136.987 1465.51 134.533 1464.65 L134.533 1460.14 Q136.478 1461.27 138.793 1461.85 Q141.107 1462.43 143.631 1462.43 Q148.029 1462.43 150.32 1460.69 Q152.635 1458.96 152.635 1455.65 Q152.635 1452.59 150.482 1450.88 Q148.353 1449.14 144.533 1449.14 L140.506 1449.14 L140.506 1445.3 L144.718 1445.3 Q148.168 1445.3 149.996 1443.93 Q151.825 1442.54 151.825 1439.95 Q151.825 1437.29 149.927 1435.88 Q148.052 1434.44 144.533 1434.44 Q142.612 1434.44 140.413 1434.86 Q138.214 1435.27 135.575 1436.15 L135.575 1431.99 Q138.237 1431.25 140.552 1430.88 Q142.89 1430.51 144.95 1430.51 Q150.274 1430.51 153.376 1432.94 Q156.478 1435.34 156.478 1439.46 Q156.478 1442.34 154.834 1444.33 Q153.191 1446.29 150.158 1447.06 Z" fill="#000000" fill-rule="evenodd" fill-opacity="1" /><path clip-path="url(#clip970)" d="M51.9412 1221.68 L81.617 1221.68 L81.617 1225.61 L51.9412 1225.61 L51.9412 1221.68 Z" fill="#000000" fill-rule="evenodd" fill-opacity="1" /><path clip-path="url(#clip970)" d="M101.709 1207.02 Q98.0984 1207.02 96.2697 1210.59 Q94.4641 1214.13 94.4641 1221.26 Q94.4641 1228.37 96.2697 1231.93 Q98.0984 1235.47 101.709 1235.47 Q105.344 1235.47 107.149 1231.93 Q108.978 1228.37 108.978 1221.26 Q108.978 1214.13 107.149 1210.59 Q105.344 1207.02 101.709 1207.02 M101.709 1203.32 Q107.52 1203.32 110.575 1207.93 Q113.654 1212.51 113.654 1221.26 Q113.654 1229.99 110.575 1234.59 Q107.52 1239.18 101.709 1239.18 Q95.8993 1239.18 92.8206 1234.59 Q89.7651 1229.99 89.7651 1221.26 Q89.7651 1212.51 92.8206 1207.93 Q95.8993 1203.32 101.709 1203.32 Z" fill="#000000" fill-rule="evenodd" fill-opacity="1" /><path clip-path="url(#clip970)" d="M121.871 1232.63 L126.756 1232.63 L126.756 1238.51 L121.871 1238.51 L121.871 1232.63 Z" fill="#000000" fill-rule="evenodd" fill-opacity="1" /><path clip-path="url(#clip970)" d="M140.968 1234.57 L157.288 1234.57 L157.288 1238.51 L135.344 1238.51 L135.344 1234.57 Q138.006 1231.82 142.589 1227.19 Q147.195 1222.53 148.376 1221.19 Q150.621 1218.67 151.501 1216.93 Q152.404 1215.17 152.404 1213.48 Q152.404 1210.73 150.459 1208.99 Q148.538 1207.26 145.436 1207.26 Q143.237 1207.26 140.783 1208.02 Q138.353 1208.78 135.575 1210.34 L135.575 1205.61 Q138.399 1204.48 140.853 1203.9 Q143.306 1203.32 145.343 1203.32 Q150.714 1203.32 153.908 1206.01 Q157.103 1208.69 157.103 1213.18 Q157.103 1215.31 156.292 1217.23 Q155.505 1219.13 153.399 1221.72 Q152.82 1222.4 149.718 1225.61 Q146.617 1228.81 140.968 1234.57 Z" fill="#000000" fill-rule="evenodd" fill-opacity="1" /><path clip-path="url(#clip970)" d="M51.5708 994.492 L81.2466 994.492 L81.2466 998.427 L51.5708 998.427 L51.5708 994.492 Z" fill="#000000" fill-rule="evenodd" fill-opacity="1" /><path clip-path="url(#clip970)" d="M101.339 979.84 Q97.728 979.84 95.8993 983.404 Q94.0937 986.946 94.0937 994.076 Q94.0937 1001.18 95.8993 1004.75 Q97.728 1008.29 101.339 1008.29 Q104.973 1008.29 106.779 1004.75 Q108.608 1001.18 108.608 994.076 Q108.608 986.946 106.779 983.404 Q104.973 979.84 101.339 979.84 M101.339 976.136 Q107.149 976.136 110.205 980.742 Q113.283 985.326 113.283 994.076 Q113.283 1002.8 110.205 1007.41 Q107.149 1011.99 101.339 1011.99 Q95.5289 1011.99 92.4502 1007.41 Q89.3947 1002.8 89.3947 994.076 Q89.3947 985.326 92.4502 980.742 Q95.5289 976.136 101.339 976.136 Z" fill="#000000" fill-rule="evenodd" fill-opacity="1" /><path clip-path="url(#clip970)" d="M121.501 1005.44 L126.385 1005.44 L126.385 1011.32 L121.501 1011.32 L121.501 1005.44 Z" fill="#000000" fill-rule="evenodd" fill-opacity="1" /><path clip-path="url(#clip970)" d="M137.381 1007.39 L145.019 1007.39 L145.019 981.02 L136.709 982.687 L136.709 978.428 L144.973 976.761 L149.649 976.761 L149.649 1007.39 L157.288 1007.39 L157.288 1011.32 L137.381 1011.32 L137.381 1007.39 Z" fill="#000000" fill-rule="evenodd" fill-opacity="1" /><path clip-path="url(#clip970)" d="M100.112 752.654 Q96.5011 752.654 94.6724 756.219 Q92.8669 759.761 92.8669 766.89 Q92.8669 773.997 94.6724 777.562 Q96.5011 781.103 100.112 781.103 Q103.746 781.103 105.552 777.562 Q107.381 773.997 107.381 766.89 Q107.381 759.761 105.552 756.219 Q103.746 752.654 100.112 752.654 M100.112 748.951 Q105.922 748.951 108.978 753.557 Q112.057 758.14 112.057 766.89 Q112.057 775.617 108.978 780.224 Q105.922 784.807 100.112 784.807 Q94.3021 784.807 91.2234 780.224 Q88.1679 775.617 88.1679 766.89 Q88.1679 758.14 91.2234 753.557 Q94.3021 748.951 100.112 748.951 Z" fill="#000000" fill-rule="evenodd" fill-opacity="1" /><path clip-path="url(#clip970)" d="M120.274 778.256 L125.158 778.256 L125.158 784.136 L120.274 784.136 L120.274 778.256 Z" fill="#000000" fill-rule="evenodd" fill-opacity="1" /><path clip-path="url(#clip970)" d="M145.343 752.654 Q141.732 752.654 139.904 756.219 Q138.098 759.761 138.098 766.89 Q138.098 773.997 139.904 777.562 Q141.732 781.103 145.343 781.103 Q148.978 781.103 150.783 777.562 Q152.612 773.997 152.612 766.89 Q152.612 759.761 150.783 756.219 Q148.978 752.654 145.343 752.654 M145.343 748.951 Q151.154 748.951 154.209 753.557 Q157.288 758.14 157.288 766.89 Q157.288 775.617 154.209 780.224 Q151.154 784.807 145.343 784.807 Q139.533 784.807 136.455 780.224 Q133.399 775.617 133.399 766.89 Q133.399 758.14 136.455 753.557 Q139.533 748.951 145.343 748.951 Z" fill="#000000" fill-rule="evenodd" fill-opacity="1" /><path clip-path="url(#clip970)" d="M101.339 525.469 Q97.728 525.469 95.8993 529.034 Q94.0937 532.575 94.0937 539.705 Q94.0937 546.812 95.8993 550.376 Q97.728 553.918 101.339 553.918 Q104.973 553.918 106.779 550.376 Q108.608 546.812 108.608 539.705 Q108.608 532.575 106.779 529.034 Q104.973 525.469 101.339 525.469 M101.339 521.765 Q107.149 521.765 110.205 526.372 Q113.283 530.955 113.283 539.705 Q113.283 548.432 110.205 553.038 Q107.149 557.622 101.339 557.622 Q95.5289 557.622 92.4502 553.038 Q89.3947 548.432 89.3947 539.705 Q89.3947 530.955 92.4502 526.372 Q95.5289 521.765 101.339 521.765 Z" fill="#000000" fill-rule="evenodd" fill-opacity="1" /><path clip-path="url(#clip970)" d="M121.501 551.071 L126.385 551.071 L126.385 556.95 L121.501 556.95 L121.501 551.071 Z" fill="#000000" fill-rule="evenodd" fill-opacity="1" /><path clip-path="url(#clip970)" d="M137.381 553.015 L145.019 553.015 L145.019 526.65 L136.709 528.316 L136.709 524.057 L144.973 522.39 L149.649 522.39 L149.649 553.015 L157.288 553.015 L157.288 556.95 L137.381 556.95 L137.381 553.015 Z" fill="#000000" fill-rule="evenodd" fill-opacity="1" /><path clip-path="url(#clip970)" d="M101.709 298.284 Q98.0984 298.284 96.2697 301.849 Q94.4641 305.39 94.4641 312.52 Q94.4641 319.626 96.2697 323.191 Q98.0984 326.733 101.709 326.733 Q105.344 326.733 107.149 323.191 Q108.978 319.626 108.978 312.52 Q108.978 305.39 107.149 301.849 Q105.344 298.284 101.709 298.284 M101.709 294.58 Q107.52 294.58 110.575 299.187 Q113.654 303.77 113.654 312.52 Q113.654 321.247 110.575 325.853 Q107.52 330.436 101.709 330.436 Q95.8993 330.436 92.8206 325.853 Q89.7651 321.247 89.7651 312.52 Q89.7651 303.77 92.8206 299.187 Q95.8993 294.58 101.709 294.58 Z" fill="#000000" fill-rule="evenodd" fill-opacity="1" /><path clip-path="url(#clip970)" d="M121.871 323.885 L126.756 323.885 L126.756 329.765 L121.871 329.765 L121.871 323.885 Z" fill="#000000" fill-rule="evenodd" fill-opacity="1" /><path clip-path="url(#clip970)" d="M140.968 325.83 L157.288 325.83 L157.288 329.765 L135.344 329.765 L135.344 325.83 Q138.006 323.075 142.589 318.446 Q147.195 313.793 148.376 312.45 Q150.621 309.927 151.501 308.191 Q152.404 306.432 152.404 304.742 Q152.404 301.987 150.459 300.251 Q148.538 298.515 145.436 298.515 Q143.237 298.515 140.783 299.279 Q138.353 300.043 135.575 301.594 L135.575 296.872 Q138.399 295.737 140.853 295.159 Q143.306 294.58 145.343 294.58 Q150.714 294.58 153.908 297.265 Q157.103 299.95 157.103 304.441 Q157.103 306.571 156.292 308.492 Q155.505 310.39 153.399 312.983 Q152.82 313.654 149.718 316.872 Q146.617 320.066 140.968 325.83 Z" fill="#000000" fill-rule="evenodd" fill-opacity="1" /><path clip-path="url(#clip970)" d="M100.76 71.0985 Q97.1493 71.0985 95.3206 74.6633 Q93.515 78.2049 93.515 85.3345 Q93.515 92.441 95.3206 96.0058 Q97.1493 99.5474 100.76 99.5474 Q104.395 99.5474 106.2 96.0058 Q108.029 92.441 108.029 85.3345 Q108.029 78.2049 106.2 74.6633 Q104.395 71.0985 100.76 71.0985 M100.76 67.3948 Q106.571 67.3948 109.626 72.0013 Q112.705 76.5846 112.705 85.3345 Q112.705 94.0613 109.626 98.6678 Q106.571 103.251 100.76 103.251 Q94.9502 103.251 91.8715 98.6678 Q88.816 94.0613 88.816 85.3345 Q88.816 76.5846 91.8715 72.0013 Q94.9502 67.3948 100.76 67.3948 Z" fill="#000000" fill-rule="evenodd" fill-opacity="1" /><path clip-path="url(#clip970)" d="M120.922 96.7002 L125.807 96.7002 L125.807 102.58 L120.922 102.58 L120.922 96.7002 Z" fill="#000000" fill-rule="evenodd" fill-opacity="1" /><path clip-path="url(#clip970)" d="M150.158 83.9456 Q153.515 84.6632 155.39 86.9317 Q157.288 89.2002 157.288 92.5336 Q157.288 97.6493 153.769 100.45 Q150.251 103.251 143.769 103.251 Q141.593 103.251 139.279 102.811 Q136.987 102.395 134.533 101.538 L134.533 97.0243 Q136.478 98.1585 138.793 98.7372 Q141.107 99.3159 143.631 99.3159 Q148.029 99.3159 150.32 97.5798 Q152.635 95.8437 152.635 92.5336 Q152.635 89.478 150.482 87.7651 Q148.353 86.029 144.533 86.029 L140.506 86.029 L140.506 82.1864 L144.718 82.1864 Q148.168 82.1864 149.996 80.8207 Q151.825 79.4318 151.825 76.8392 Q151.825 74.1772 149.927 72.7651 Q148.052 71.33 144.533 71.33 Q142.612 71.33 140.413 71.7466 Q138.214 72.1633 135.575 73.0429 L135.575 68.8763 Q138.237 68.1355 140.552 67.7652 Q142.89 67.3948 144.95 67.3948 Q150.274 67.3948 153.376 69.8253 Q156.478 72.2327 156.478 76.3531 Q156.478 79.2234 154.834 81.2142 Q153.191 83.1818 150.158 83.9456 Z" fill="#000000" fill-rule="evenodd" fill-opacity="1" /><polyline clip-path="url(#clip972)" style="stroke:#009af9; stroke-linecap:round; stroke-linejoin:round; stroke-width:8; stroke-opacity:1; fill:none" points="
  254.405,1385.77 258.479,1385.77 262.554,1395.99 266.628,1405.11 270.703,1413.18 274.777,1420.27 278.852,1426.42 282.926,1431.67 287.001,1436.06 291.075,1439.62 
  295.15,1442.35 299.224,1444.28 303.298,1445.41 307.373,1445.72 311.447,1445.2 315.522,1443.83 319.596,1441.58 323.671,1438.41 327.745,1434.25 331.82,1429.07 
  335.894,1422.78 339.969,1415.32 344.043,1406.61 348.118,1396.56 352.192,1385.09 356.267,1372.13 360.341,1357.62 364.416,1341.51 368.49,1323.79 372.564,1304.49 
  376.639,1283.71 380.713,1261.61 384.788,1238.45 388.862,1214.61 392.937,1190.58 397.011,1167 401.086,1144.6 405.16,1124.18 409.235,1106.45 413.309,1091.91 
  417.384,1080.53 421.458,1071.56 425.533,1063.37 429.607,1053.6 433.681,1039.52 437.756,1018.81 441.83,990.179 445.905,953.87 449.979,911.623 454.054,866.301 
  458.128,821.283 462.203,779.879 466.277,744.914 470.352,718.49 474.426,701.92 478.501,695.757 482.575,699.853 486.65,713.44 490.724,735.207 494.798,763.416 
  498.873,796.039 502.947,830.935 507.022,866.019 511.096,899.399 515.171,929.476 519.245,954.98 523.32,974.982 527.394,988.863 531.469,996.284 535.543,997.15 
  539.618,991.57 543.692,979.829 547.767,962.352 551.841,939.675 555.916,912.415 559.99,881.243 564.064,846.857 568.139,809.955 572.213,771.215 576.288,731.28 
  580.362,690.742 584.437,650.131 588.511,609.912 592.586,570.481 596.66,532.168 600.735,495.238 604.809,459.889 608.884,426.272 612.958,394.486 617.033,364.587 
  621.107,336.595 625.181,310.501 629.256,286.275 633.33,263.866 637.405,243.207 641.479,224.227 645.554,206.847 649.628,190.983 653.703,176.551 657.777,163.47 
  661.852,151.661 665.926,141.048 670.001,131.562 674.075,123.138 678.15,115.719 682.224,109.253 686.298,103.698 690.373,99.0158 694.447,95.1785 698.522,92.1649 
  702.596,89.9618 706.671,88.5644 710.745,87.9763 714.82,88.2093 718.894,89.2842 722.969,91.2305 727.043,94.087 731.118,97.9008 735.192,102.728 739.267,108.633 
  743.341,115.687 747.416,123.968 751.49,133.557 755.564,144.535 759.639,156.98 763.713,170.96 767.788,186.525 771.862,203.699 775.937,222.466 780.011,242.757 
  784.086,264.432 788.16,287.264 792.235,310.921 796.309,334.947 800.384,358.758 804.458,381.648 808.533,402.835 812.607,421.551 816.681,437.208 820.756,449.624 
  824.83,459.278 828.905,467.495 832.979,476.429 837.054,488.74 841.128,506.977 845.203,532.848 849.277,566.66 853.352,607.157 857.426,651.798 861.501,697.308 
  865.575,740.294 869.65,777.734 873.724,807.262 877.798,827.296 881.873,837.028 885.947,836.375 890.022,825.904 894.096,806.749 898.171,780.522 902.245,749.164 
  906.32,714.799 910.394,679.553 914.469,645.395 918.543,614.034 922.618,586.851 926.692,564.892 930.767,548.876 934.841,539.236 938.916,536.144 942.99,539.556 
  947.064,549.244 951.139,564.826 955.213,585.8 959.288,611.573 963.362,641.488 967.437,674.859 971.511,710.981 975.586,749.167 979.66,788.761 983.735,829.152 
  987.809,869.789 991.884,910.183 995.958,949.916 1000.03,988.636 1004.11,1026.06 1008.18,1061.96 1012.26,1096.17 1016.33,1128.59 1020.4,1159.13 1024.48,1187.76 
  1028.55,1214.5 1032.63,1239.35 1036.7,1262.37 1040.78,1283.61 1044.85,1303.15 1048.93,1321.07 1053,1337.44 1057.08,1352.35 1061.15,1365.88 1065.22,1378.11 
  1069.3,1389.12 1073.37,1398.98 1077.45,1407.76 1081.52,1415.51 1085.6,1422.3 1089.67,1428.16 1093.75,1433.13 1097.82,1437.25 1101.89,1440.54 1105.97,1443.02 
  1110.04,1444.69 1114.12,1445.55 1118.19,1445.6 1122.27,1444.81 1126.34,1443.16 1130.42,1440.62 1134.49,1437.13 1138.56,1432.65 1142.64,1427.12 1146.71,1420.46 
  1150.79,1412.61 1154.86,1403.47 1158.94,1392.97 1163.01,1381.03 1167.09,1367.58 1171.16,1352.55 1175.23,1335.92 1179.31,1317.69 1183.38,1297.91 1187.46,1276.68 
  1191.53,1254.22 1195.61,1230.8 1199.68,1206.84 1203.76,1182.89 1207.83,1159.61 1211.9,1137.77 1215.98,1118.15 1220.05,1101.41 1224.13,1087.92 1228.2,1077.44 
  1232.28,1068.94 1236.35,1060.53 1240.43,1049.66 1244.5,1033.68 1248.58,1010.51 1252.65,979.334 1256.72,940.886 1260.8,897.326 1264.87,851.747 1268.95,807.562 
  1273.02,767.961 1277.1,735.551 1281.17,712.18 1285.25,698.914 1289.32,696.072 1293.39,703.301 1297.47,719.648 1301.54,743.654 1305.62,773.471 1309.69,807.019 
  1313.77,842.16 1317.84,876.857 1321.92,909.307 1325.99,938.014 1330.06,961.821 1334.14,979.9 1338.21,991.727 1342.29,997.044 1346.36,995.826 1350.44,988.241 
  1354.51,974.622 1358.59,955.432 1362.66,931.237 1366.73,902.674 1370.81,870.424 1374.88,835.184 1378.96,797.648 1383.03,758.486 1387.11,718.325 1391.18,677.736 
  1395.26,637.23 1399.33,597.249 1403.4,558.167 1407.48,520.292 1411.55,483.866 1415.63,449.075 1419.7,416.05 1423.78,384.875 1427.85,355.596 1431.93,328.222 
  1436,302.738 1440.08,279.104 1444.15,257.266 1448.22,237.156 1452.3,218.699 1456.37,201.813 1460.45,186.416 1464.52,172.425 1468.6,159.759 1472.67,148.34 
  1476.75,138.094 1480.82,128.953 1484.89,120.856 1488.97,113.746 1493.04,107.575 1497.12,102.302 1501.19,97.8931 1505.27,94.3219 1509.34,91.5696 1513.42,89.6259 
  1517.49,88.4884 1521.56,88.1633 1525.64,88.665 1529.71,90.0181 1533.79,92.2551 1537.86,95.4169 1541.94,99.5534 1546.01,104.723 1550.09,110.993 1554.16,118.436 
  1558.23,127.13 1562.31,137.16 1566.38,148.605 1570.46,161.539 1574.53,176.026 1578.61,192.107 1582.68,209.795 1586.76,229.058 1590.83,249.805 1594.9,271.873 
  1598.98,295.001 1603.05,318.818 1607.13,342.827 1611.2,366.403 1615.28,388.808 1619.35,409.255 1623.43,427.015 1627.5,441.606 1631.58,453.032 1635.65,462.033 
  1639.72,470.215 1643.8,479.942 1647.87,493.913 1651.95,514.476 1656.02,542.929 1660.1,579.072 1664.17,621.188 1668.25,666.437 1672.32,711.45 1676.39,752.913 
  1680.47,787.996 1684.54,814.585 1688.62,831.352 1692.69,837.732 1696.77,833.858 1700.84,820.488 1704.92,798.919 1708.99,770.881 1713.06,738.394 1717.14,703.594 
  1721.21,668.564 1725.29,635.198 1729.36,605.1 1733.44,579.542 1737.51,559.461 1741.59,545.481 1745.66,537.944 1749.73,536.952 1753.81,542.399 1757.88,554.005 
  1761.96,571.348 1766.03,593.894 1770.11,621.029 1774.18,652.083 1778.26,686.361 1782.33,723.169 1786.4,761.826 1790.48,801.691 1794.55,842.172 1798.63,882.738 
  1802.7,922.922 1806.78,962.329 1810.85,1000.63 1814.93,1037.55 1819,1072.9 1823.08,1106.53 1827.15,1138.33 1831.22,1168.25 1835.3,1196.27 1839.37,1222.38 
  1843.45,1246.64 1847.52,1269.08 1851.6,1289.76 1855.67,1308.77 1859.75,1326.19 1863.82,1342.08 1867.89,1356.54 1871.97,1369.65 1876.04,1381.49 1880.12,1392.13 
  1884.19,1401.64 1888.27,1410.08 1892.34,1417.53 1896.42,1424.01 1900.49,1429.59 1904.56,1434.29 1908.64,1438.15 1912.71,1441.18 1916.79,1443.4 1920.86,1444.81 
  1924.94,1445.42 1929.01,1445.2 1933.09,1444.14 1937.16,1442.21 1941.23,1439.37 1945.31,1435.57 1949.38,1430.76 1953.46,1424.87 1957.53,1417.83 1961.61,1409.57 
  1965.68,1400.01 1969.76,1389.06 1973.83,1376.64 1977.9,1362.69 1981.98,1347.16 1986.05,1330.02 1990.13,1311.29 1994.2,1291.04 1998.28,1269.4 2002.35,1246.61 
  2006.43,1222.99 2010.5,1198.99 2014.58,1175.2 2018.65,1152.32 2022.72,1131.13 2026.8,1112.39 2030.87,1096.69 2034.95,1084.24 2039.02,1074.55 2043.1,1066.32 
  2047.17,1057.42 2051.25,1045.19 2055.32,1027.1 2059.39,1001.41 2063.47,967.783 2067.54,927.45 2071.62,882.925 2075.69,837.462 2079.77,794.45 2083.84,756.918 
  2087.92,727.238 2091.99,707.01 2096.06,697.051 2100.14,697.459 2104.21,707.685 2108.29,726.604 2112.36,752.622 2116.44,783.803 2120.51,818.032 2124.59,853.189 
  2128.66,887.304 2132.73,918.668 2136.81,945.894 2140.88,967.931 2144.96,984.051 2149.03,993.82 2153.11,997.057 2157.18,993.8 2161.26,984.275 2165.33,968.855 
  2169.4,948.041 2173.48,922.42 2177.55,892.647 2181.63,859.409 2185.7,823.405 2189.78,785.322 2193.85,745.815 2197.93,705.495 2202,664.914 2206.08,624.559 
  2210.15,584.853 2214.22,546.147 2218.3,508.729 2222.37,472.822 2226.45,438.594 2230.52,406.16 2234.6,375.592 2238.67,346.923 2242.75,320.155 2246.82,295.265 
  2250.89,272.208 2254.97,250.924 2259.04,231.345 2263.12,213.392 2267.19,196.984 2271.27,182.037 2275.34,168.471 2279.42,156.203 2283.49,145.158 2287.56,135.265 
  2291.64,126.456 
  "/>
<path clip-path="url(#clip970)" d="
M265.27 198.898 L910.057 198.898 L910.057 95.2176 L265.27 95.2176  Z
  " fill="#ffffff" fill-rule="evenodd" fill-opacity="1"/>
<polyline clip-path="url(#clip970)" style="stroke:#000000; stroke-linecap:round; stroke-linejoin:round; stroke-width:4; stroke-opacity:1; fill:none" points="
  265.27,198.898 910.057,198.898 910.057,95.2176 265.27,95.2176 265.27,198.898 
  "/>
<polyline clip-path="url(#clip970)" style="stroke:#009af9; stroke-linecap:round; stroke-linejoin:round; stroke-width:8; stroke-opacity:1; fill:none" points="
  289.264,147.058 433.229,147.058 
  "/>
<path clip-path="url(#clip970)" d="M470.626 151.305 Q465.464 151.305 463.473 152.486 Q461.482 153.666 461.482 156.514 Q461.482 158.782 462.964 160.125 Q464.468 161.444 467.038 161.444 Q470.579 161.444 472.709 158.944 Q474.862 156.421 474.862 152.254 L474.862 151.305 L470.626 151.305 M479.121 149.546 L479.121 164.338 L474.862 164.338 L474.862 160.402 Q473.403 162.763 471.227 163.898 Q469.051 165.009 465.903 165.009 Q461.922 165.009 459.561 162.787 Q457.223 160.541 457.223 156.791 Q457.223 152.416 460.139 150.194 Q463.079 147.972 468.889 147.972 L474.862 147.972 L474.862 147.555 Q474.862 144.615 472.917 143.018 Q470.996 141.398 467.501 141.398 Q465.278 141.398 463.172 141.93 Q461.065 142.463 459.121 143.527 L459.121 139.592 Q461.459 138.69 463.658 138.25 Q465.857 137.787 467.94 137.787 Q473.565 137.787 476.343 140.703 Q479.121 143.62 479.121 149.546 Z" fill="#000000" fill-rule="evenodd" fill-opacity="1" /><path clip-path="url(#clip970)" d="M506.551 139.407 L506.551 143.389 Q504.746 142.393 502.917 141.907 Q501.111 141.398 499.26 141.398 Q495.116 141.398 492.824 144.037 Q490.533 146.652 490.533 151.398 Q490.533 156.143 492.824 158.782 Q495.116 161.398 499.26 161.398 Q501.111 161.398 502.917 160.912 Q504.746 160.402 506.551 159.407 L506.551 163.342 Q504.769 164.176 502.848 164.592 Q500.949 165.009 498.797 165.009 Q492.94 165.009 489.491 161.328 Q486.042 157.648 486.042 151.398 Q486.042 145.055 489.514 141.421 Q493.01 137.787 499.074 137.787 Q501.042 137.787 502.917 138.203 Q504.792 138.597 506.551 139.407 Z" fill="#000000" fill-rule="evenodd" fill-opacity="1" /><path clip-path="url(#clip970)" d="M532.616 139.407 L532.616 143.389 Q530.81 142.393 528.982 141.907 Q527.176 141.398 525.324 141.398 Q521.181 141.398 518.889 144.037 Q516.598 146.652 516.598 151.398 Q516.598 156.143 518.889 158.782 Q521.181 161.398 525.324 161.398 Q527.176 161.398 528.982 160.912 Q530.81 160.402 532.616 159.407 L532.616 163.342 Q530.834 164.176 528.912 164.592 Q527.014 165.009 524.861 165.009 Q519.005 165.009 515.556 161.328 Q512.107 157.648 512.107 151.398 Q512.107 145.055 515.579 141.421 Q519.074 137.787 525.139 137.787 Q527.107 137.787 528.982 138.203 Q530.857 138.597 532.616 139.407 Z" fill="#000000" fill-rule="evenodd" fill-opacity="1" /><path clip-path="url(#clip970)" d="M581.157 132.44 L581.157 137.37 Q578.796 135.171 576.111 134.083 Q573.449 132.995 570.44 132.995 Q564.514 132.995 561.366 136.629 Q558.218 140.24 558.218 147.092 Q558.218 153.921 561.366 157.555 Q564.514 161.166 570.44 161.166 Q573.449 161.166 576.111 160.078 Q578.796 158.99 581.157 156.791 L581.157 161.676 Q578.704 163.342 575.949 164.176 Q573.218 165.009 570.162 165.009 Q562.315 165.009 557.801 160.217 Q553.287 155.402 553.287 147.092 Q553.287 138.759 557.801 133.967 Q562.315 129.153 570.162 129.153 Q573.264 129.153 575.995 129.986 Q578.75 130.796 581.157 132.44 Z" fill="#000000" fill-rule="evenodd" fill-opacity="1" /><path clip-path="url(#clip970)" d="M609.097 130.912 L609.097 135.472 Q606.435 134.199 604.074 133.574 Q601.713 132.949 599.514 132.949 Q595.694 132.949 593.611 134.43 Q591.551 135.912 591.551 138.643 Q591.551 140.935 592.917 142.115 Q594.305 143.273 598.148 143.99 L600.972 144.569 Q606.204 145.565 608.68 148.088 Q611.18 150.588 611.18 154.801 Q611.18 159.824 607.801 162.416 Q604.444 165.009 597.94 165.009 Q595.486 165.009 592.708 164.453 Q589.954 163.898 586.991 162.81 L586.991 157.995 Q589.838 159.592 592.569 160.402 Q595.301 161.213 597.94 161.213 Q601.944 161.213 604.12 159.639 Q606.296 158.064 606.296 155.148 Q606.296 152.602 604.722 151.166 Q603.171 149.731 599.606 149.014 L596.759 148.458 Q591.528 147.416 589.19 145.194 Q586.852 142.972 586.852 139.014 Q586.852 134.43 590.069 131.791 Q593.31 129.153 598.981 129.153 Q601.412 129.153 603.935 129.592 Q606.458 130.032 609.097 130.912 Z" fill="#000000" fill-rule="evenodd" fill-opacity="1" /><path clip-path="url(#clip970)" d="M616.134 149.453 L628.611 149.453 L628.611 153.25 L616.134 153.25 L616.134 149.453 Z" fill="#000000" fill-rule="evenodd" fill-opacity="1" /><path clip-path="url(#clip970)" d="M635.578 129.778 L641.875 129.778 L657.199 158.689 L657.199 129.778 L661.736 129.778 L661.736 164.338 L655.439 164.338 L640.115 135.426 L640.115 164.338 L635.578 164.338 L635.578 129.778 Z" fill="#000000" fill-rule="evenodd" fill-opacity="1" /><path clip-path="url(#clip970)" d="M693.032 150.31 L693.032 152.393 L673.449 152.393 Q673.726 156.791 676.087 159.106 Q678.472 161.398 682.708 161.398 Q685.161 161.398 687.453 160.796 Q689.768 160.194 692.036 158.99 L692.036 163.018 Q689.745 163.99 687.337 164.5 Q684.93 165.009 682.453 165.009 Q676.249 165.009 672.615 161.398 Q669.004 157.787 669.004 151.629 Q669.004 145.264 672.43 141.537 Q675.879 137.787 681.712 137.787 Q686.944 137.787 689.976 141.166 Q693.032 144.523 693.032 150.31 M688.773 149.06 Q688.726 145.565 686.805 143.481 Q684.907 141.398 681.759 141.398 Q678.194 141.398 676.041 143.412 Q673.911 145.426 673.587 149.083 L688.773 149.06 Z" fill="#000000" fill-rule="evenodd" fill-opacity="1" /><path clip-path="url(#clip970)" d="M699.583 154.106 L699.583 138.412 L703.842 138.412 L703.842 153.944 Q703.842 157.625 705.277 159.476 Q706.712 161.305 709.583 161.305 Q713.032 161.305 715.022 159.106 Q717.036 156.907 717.036 153.111 L717.036 138.412 L721.295 138.412 L721.295 164.338 L717.036 164.338 L717.036 160.356 Q715.485 162.717 713.425 163.875 Q711.388 165.009 708.68 165.009 Q704.212 165.009 701.897 162.231 Q699.583 159.453 699.583 154.106 M710.3 137.787 L710.3 137.787 Z" fill="#000000" fill-rule="evenodd" fill-opacity="1" /><path clip-path="url(#clip970)" d="M745.092 142.393 Q744.374 141.977 743.518 141.791 Q742.684 141.583 741.666 141.583 Q738.055 141.583 736.11 143.944 Q734.189 146.282 734.189 150.68 L734.189 164.338 L729.907 164.338 L729.907 138.412 L734.189 138.412 L734.189 142.44 Q735.532 140.078 737.684 138.944 Q739.837 137.787 742.916 137.787 Q743.356 137.787 743.888 137.856 Q744.42 137.903 745.069 138.018 L745.092 142.393 Z" fill="#000000" fill-rule="evenodd" fill-opacity="1" /><path clip-path="url(#clip970)" d="M761.342 151.305 Q756.18 151.305 754.189 152.486 Q752.198 153.666 752.198 156.514 Q752.198 158.782 753.68 160.125 Q755.184 161.444 757.754 161.444 Q761.295 161.444 763.425 158.944 Q765.578 156.421 765.578 152.254 L765.578 151.305 L761.342 151.305 M769.837 149.546 L769.837 164.338 L765.578 164.338 L765.578 160.402 Q764.119 162.763 761.943 163.898 Q759.768 165.009 756.619 165.009 Q752.638 165.009 750.277 162.787 Q747.939 160.541 747.939 156.791 Q747.939 152.416 750.856 150.194 Q753.795 147.972 759.605 147.972 L765.578 147.972 L765.578 147.555 Q765.578 144.615 763.633 143.018 Q761.712 141.398 758.217 141.398 Q755.994 141.398 753.888 141.93 Q751.781 142.463 749.837 143.527 L749.837 139.592 Q752.175 138.69 754.374 138.25 Q756.573 137.787 758.656 137.787 Q764.281 137.787 767.059 140.703 Q769.837 143.62 769.837 149.546 Z" fill="#000000" fill-rule="evenodd" fill-opacity="1" /><path clip-path="url(#clip970)" d="M778.61 128.319 L782.869 128.319 L782.869 164.338 L778.61 164.338 L778.61 128.319 Z" fill="#000000" fill-rule="evenodd" fill-opacity="1" /><path clip-path="url(#clip970)" d="M791.966 129.778 L811.827 129.778 L811.827 133.713 L796.642 133.713 L796.642 143.898 L810.346 143.898 L810.346 147.833 L796.642 147.833 L796.642 164.338 L791.966 164.338 L791.966 129.778 Z" fill="#000000" fill-rule="evenodd" fill-opacity="1" /><path clip-path="url(#clip970)" d="M819.235 129.778 L826.202 129.778 L835.022 153.296 L843.887 129.778 L850.855 129.778 L850.855 164.338 L846.295 164.338 L846.295 133.99 L837.383 157.694 L832.684 157.694 L823.772 133.99 L823.772 164.338 L819.235 164.338 L819.235 129.778 Z" fill="#000000" fill-rule="evenodd" fill-opacity="1" /><path clip-path="url(#clip970)" d="M859.605 129.778 L864.304 129.778 L864.304 150.773 Q864.304 156.328 866.318 158.782 Q868.332 161.213 872.846 161.213 Q877.336 161.213 879.35 158.782 Q881.364 156.328 881.364 150.773 L881.364 129.778 L886.063 129.778 L886.063 151.352 Q886.063 158.111 882.707 161.56 Q879.373 165.009 872.846 165.009 Q866.295 165.009 862.938 161.56 Q859.605 158.111 859.605 151.352 L859.605 129.778 Z" fill="#000000" fill-rule="evenodd" fill-opacity="1" /></svg>
