<?xml version="1.0" encoding="utf-8"?>
<svg xmlns="http://www.w3.org/2000/svg" xmlns:xlink="http://www.w3.org/1999/xlink" width="600" height="400" viewBox="0 0 2400 1600">
<defs>
  <clipPath id="clip850">
    <rect x="0" y="0" width="2400" height="1600"/>
  </clipPath>
</defs>
<path clip-path="url(#clip850)" d="M0 1600 L2400 1600 L2400 0 L0 0  Z" fill="#ffffff" fill-rule="evenodd" fill-opacity="1"/>
<defs>
  <clipPath id="clip851">
    <rect x="480" y="0" width="1681" height="1600"/>
  </clipPath>
</defs>
<path clip-path="url(#clip850)" d="M224.098 1486.45 L2352.76 1486.45 L2352.76 47.2441 L224.098 47.2441  Z" fill="#ffffff" fill-rule="evenodd" fill-opacity="1"/>
<defs>
  <clipPath id="clip852">
    <rect x="224" y="47" width="2130" height="1440"/>
  </clipPath>
</defs>
<polyline clip-path="url(#clip852)" style="stroke:#000000; stroke-linecap:round; stroke-linejoin:round; stroke-width:2; stroke-opacity:0.1; fill:none" points="284.343,1486.45 284.343,47.2441 "/>
<polyline clip-path="url(#clip852)" style="stroke:#000000; stroke-linecap:round; stroke-linejoin:round; stroke-width:2; stroke-opacity:0.1; fill:none" points="685.977,1486.45 685.977,47.2441 "/>
<polyline clip-path="url(#clip852)" style="stroke:#000000; stroke-linecap:round; stroke-linejoin:round; stroke-width:2; stroke-opacity:0.1; fill:none" points="1087.61,1486.45 1087.61,47.2441 "/>
<polyline clip-path="url(#clip852)" style="stroke:#000000; stroke-linecap:round; stroke-linejoin:round; stroke-width:2; stroke-opacity:0.1; fill:none" points="1489.24,1486.45 1489.24,47.2441 "/>
<polyline clip-path="url(#clip852)" style="stroke:#000000; stroke-linecap:round; stroke-linejoin:round; stroke-width:2; stroke-opacity:0.1; fill:none" points="1890.88,1486.45 1890.88,47.2441 "/>
<polyline clip-path="url(#clip852)" style="stroke:#000000; stroke-linecap:round; stroke-linejoin:round; stroke-width:2; stroke-opacity:0.1; fill:none" points="2292.51,1486.45 2292.51,47.2441 "/>
<polyline clip-path="url(#clip850)" style="stroke:#000000; stroke-linecap:round; stroke-linejoin:round; stroke-width:4; stroke-opacity:1; fill:none" points="224.098,1486.45 2352.76,1486.45 "/>
<polyline clip-path="url(#clip850)" style="stroke:#000000; stroke-linecap:round; stroke-linejoin:round; stroke-width:4; stroke-opacity:1; fill:none" points="284.343,1486.45 284.343,1467.55 "/>
<polyline clip-path="url(#clip850)" style="stroke:#000000; stroke-linecap:round; stroke-linejoin:round; stroke-width:4; stroke-opacity:1; fill:none" points="685.977,1486.45 685.977,1467.55 "/>
<polyline clip-path="url(#clip850)" style="stroke:#000000; stroke-linecap:round; stroke-linejoin:round; stroke-width:4; stroke-opacity:1; fill:none" points="1087.61,1486.45 1087.61,1467.55 "/>
<polyline clip-path="url(#clip850)" style="stroke:#000000; stroke-linecap:round; stroke-linejoin:round; stroke-width:4; stroke-opacity:1; fill:none" points="1489.24,1486.45 1489.24,1467.55 "/>
<polyline clip-path="url(#clip850)" style="stroke:#000000; stroke-linecap:round; stroke-linejoin:round; stroke-width:4; stroke-opacity:1; fill:none" points="1890.88,1486.45 1890.88,1467.55 "/>
<polyline clip-path="url(#clip850)" style="stroke:#000000; stroke-linecap:round; stroke-linejoin:round; stroke-width:4; stroke-opacity:1; fill:none" points="2292.51,1486.45 2292.51,1467.55 "/>
<path clip-path="url(#clip850)" d="M284.343 1517.37 Q280.732 1517.37 278.903 1520.93 Q277.098 1524.47 277.098 1531.6 Q277.098 1538.71 278.903 1542.27 Q280.732 1545.82 284.343 1545.82 Q287.977 1545.82 289.783 1542.27 Q291.611 1538.71 291.611 1531.6 Q291.611 1524.47 289.783 1520.93 Q287.977 1517.37 284.343 1517.37 M284.343 1513.66 Q290.153 1513.66 293.209 1518.27 Q296.287 1522.85 296.287 1531.6 Q296.287 1540.33 293.209 1544.94 Q290.153 1549.52 284.343 1549.52 Q278.533 1549.52 275.454 1544.94 Q272.399 1540.33 272.399 1531.6 Q272.399 1522.85 275.454 1518.27 Q278.533 1513.66 284.343 1513.66 Z" fill="#000000" fill-rule="nonzero" fill-opacity="1" /><path clip-path="url(#clip850)" d="M676.358 1544.91 L683.997 1544.91 L683.997 1518.55 L675.687 1520.21 L675.687 1515.95 L683.951 1514.29 L688.627 1514.29 L688.627 1544.91 L696.266 1544.91 L696.266 1548.85 L676.358 1548.85 L676.358 1544.91 Z" fill="#000000" fill-rule="nonzero" fill-opacity="1" /><path clip-path="url(#clip850)" d="M1082.26 1544.91 L1098.58 1544.91 L1098.58 1548.85 L1076.64 1548.85 L1076.64 1544.91 Q1079.3 1542.16 1083.88 1537.53 Q1088.49 1532.88 1089.67 1531.53 Q1091.92 1529.01 1092.8 1527.27 Q1093.7 1525.51 1093.7 1523.82 Q1093.7 1521.07 1091.75 1519.33 Q1089.83 1517.6 1086.73 1517.6 Q1084.53 1517.6 1082.08 1518.36 Q1079.65 1519.13 1076.87 1520.68 L1076.87 1515.95 Q1079.69 1514.82 1082.15 1514.24 Q1084.6 1513.66 1086.64 1513.66 Q1092.01 1513.66 1095.2 1516.35 Q1098.4 1519.03 1098.4 1523.52 Q1098.4 1525.65 1097.59 1527.57 Q1096.8 1529.47 1094.69 1532.07 Q1094.11 1532.74 1091.01 1535.95 Q1087.91 1539.15 1082.26 1544.91 Z" fill="#000000" fill-rule="nonzero" fill-opacity="1" /><path clip-path="url(#clip850)" d="M1493.49 1530.21 Q1496.85 1530.93 1498.72 1533.2 Q1500.62 1535.47 1500.62 1538.8 Q1500.62 1543.92 1497.1 1546.72 Q1493.58 1549.52 1487.1 1549.52 Q1484.93 1549.52 1482.61 1549.08 Q1480.32 1548.66 1477.87 1547.81 L1477.87 1543.29 Q1479.81 1544.43 1482.13 1545.01 Q1484.44 1545.58 1486.96 1545.58 Q1491.36 1545.58 1493.65 1543.85 Q1495.97 1542.11 1495.97 1538.8 Q1495.97 1535.75 1493.82 1534.03 Q1491.69 1532.3 1487.87 1532.3 L1483.84 1532.3 L1483.84 1528.45 L1488.05 1528.45 Q1491.5 1528.45 1493.33 1527.09 Q1495.16 1525.7 1495.16 1523.11 Q1495.16 1520.45 1493.26 1519.03 Q1491.38 1517.6 1487.87 1517.6 Q1485.95 1517.6 1483.75 1518.01 Q1481.55 1518.43 1478.91 1519.31 L1478.91 1515.14 Q1481.57 1514.4 1483.88 1514.03 Q1486.22 1513.66 1488.28 1513.66 Q1493.61 1513.66 1496.71 1516.09 Q1499.81 1518.5 1499.81 1522.62 Q1499.81 1525.49 1498.17 1527.48 Q1496.52 1529.45 1493.49 1530.21 Z" fill="#000000" fill-rule="nonzero" fill-opacity="1" /><path clip-path="url(#clip850)" d="M1893.89 1518.36 L1882.08 1536.81 L1893.89 1536.81 L1893.89 1518.36 M1892.66 1514.29 L1898.54 1514.29 L1898.54 1536.81 L1903.47 1536.81 L1903.47 1540.7 L1898.54 1540.7 L1898.54 1548.85 L1893.89 1548.85 L1893.89 1540.7 L1878.28 1540.7 L1878.28 1536.19 L1892.66 1514.29 Z" fill="#000000" fill-rule="nonzero" fill-opacity="1" /><path clip-path="url(#clip850)" d="M2282.79 1514.29 L2301.15 1514.29 L2301.15 1518.22 L2287.07 1518.22 L2287.07 1526.7 Q2288.09 1526.35 2289.11 1526.19 Q2290.13 1526 2291.15 1526 Q2296.93 1526 2300.31 1529.17 Q2303.69 1532.34 2303.69 1537.76 Q2303.69 1543.34 2300.22 1546.44 Q2296.75 1549.52 2290.43 1549.52 Q2288.25 1549.52 2285.98 1549.15 Q2283.74 1548.78 2281.33 1548.04 L2281.33 1543.34 Q2283.41 1544.47 2285.64 1545.03 Q2287.86 1545.58 2290.33 1545.58 Q2294.34 1545.58 2296.68 1543.48 Q2299.02 1541.37 2299.02 1537.76 Q2299.02 1534.15 2296.68 1532.04 Q2294.34 1529.94 2290.33 1529.94 Q2288.46 1529.94 2286.58 1530.35 Q2284.73 1530.77 2282.79 1531.65 L2282.79 1514.29 Z" fill="#000000" fill-rule="nonzero" fill-opacity="1" /><polyline clip-path="url(#clip852)" style="stroke:#000000; stroke-linecap:round; stroke-linejoin:round; stroke-width:2; stroke-opacity:0.1; fill:none" points="224.098,1346.79 2352.76,1346.79 "/>
<polyline clip-path="url(#clip852)" style="stroke:#000000; stroke-linecap:round; stroke-linejoin:round; stroke-width:2; stroke-opacity:0.1; fill:none" points="224.098,1153.48 2352.76,1153.48 "/>
<polyline clip-path="url(#clip852)" style="stroke:#000000; stroke-linecap:round; stroke-linejoin:round; stroke-width:2; stroke-opacity:0.1; fill:none" points="224.098,960.166 2352.76,960.166 "/>
<polyline clip-path="url(#clip852)" style="stroke:#000000; stroke-linecap:round; stroke-linejoin:round; stroke-width:2; stroke-opacity:0.1; fill:none" points="224.098,766.855 2352.76,766.855 "/>
<polyline clip-path="url(#clip852)" style="stroke:#000000; stroke-linecap:round; stroke-linejoin:round; stroke-width:2; stroke-opacity:0.1; fill:none" points="224.098,573.544 2352.76,573.544 "/>
<polyline clip-path="url(#clip852)" style="stroke:#000000; stroke-linecap:round; stroke-linejoin:round; stroke-width:2; stroke-opacity:0.1; fill:none" points="224.098,380.233 2352.76,380.233 "/>
<polyline clip-path="url(#clip852)" style="stroke:#000000; stroke-linecap:round; stroke-linejoin:round; stroke-width:2; stroke-opacity:0.1; fill:none" points="224.098,186.922 2352.76,186.922 "/>
<polyline clip-path="url(#clip850)" style="stroke:#000000; stroke-linecap:round; stroke-linejoin:round; stroke-width:4; stroke-opacity:1; fill:none" points="224.098,1486.45 224.098,47.2441 "/>
<polyline clip-path="url(#clip850)" style="stroke:#000000; stroke-linecap:round; stroke-linejoin:round; stroke-width:4; stroke-opacity:1; fill:none" points="224.098,1346.79 242.996,1346.79 "/>
<polyline clip-path="url(#clip850)" style="stroke:#000000; stroke-linecap:round; stroke-linejoin:round; stroke-width:4; stroke-opacity:1; fill:none" points="224.098,1153.48 242.996,1153.48 "/>
<polyline clip-path="url(#clip850)" style="stroke:#000000; stroke-linecap:round; stroke-linejoin:round; stroke-width:4; stroke-opacity:1; fill:none" points="224.098,960.166 242.996,960.166 "/>
<polyline clip-path="url(#clip850)" style="stroke:#000000; stroke-linecap:round; stroke-linejoin:round; stroke-width:4; stroke-opacity:1; fill:none" points="224.098,766.855 242.996,766.855 "/>
<polyline clip-path="url(#clip850)" style="stroke:#000000; stroke-linecap:round; stroke-linejoin:round; stroke-width:4; stroke-opacity:1; fill:none" points="224.098,573.544 242.996,573.544 "/>
<polyline clip-path="url(#clip850)" style="stroke:#000000; stroke-linecap:round; stroke-linejoin:round; stroke-width:4; stroke-opacity:1; fill:none" points="224.098,380.233 242.996,380.233 "/>
<polyline clip-path="url(#clip850)" style="stroke:#000000; stroke-linecap:round; stroke-linejoin:round; stroke-width:4; stroke-opacity:1; fill:none" points="224.098,186.922 242.996,186.922 "/>
<path clip-path="url(#clip850)" d="M51.9875 1347.24 L81.6633 1347.24 L81.6633 1351.17 L51.9875 1351.17 L51.9875 1347.24 Z" fill="#000000" fill-rule="nonzero" fill-opacity="1" /><path clip-path="url(#clip850)" d="M101.756 1332.59 Q98.1447 1332.59 96.316 1336.15 Q94.5104 1339.69 94.5104 1346.82 Q94.5104 1353.93 96.316 1357.49 Q98.1447 1361.04 101.756 1361.04 Q105.39 1361.04 107.196 1357.49 Q109.024 1353.93 109.024 1346.82 Q109.024 1339.69 107.196 1336.15 Q105.39 1332.59 101.756 1332.59 M101.756 1328.88 Q107.566 1328.88 110.621 1333.49 Q113.7 1338.07 113.7 1346.82 Q113.7 1355.55 110.621 1360.16 Q107.566 1364.74 101.756 1364.74 Q95.9456 1364.74 92.8669 1360.16 Q89.8114 1355.55 89.8114 1346.82 Q89.8114 1338.07 92.8669 1333.49 Q95.9456 1328.88 101.756 1328.88 Z" fill="#000000" fill-rule="nonzero" fill-opacity="1" /><path clip-path="url(#clip850)" d="M121.918 1358.19 L126.802 1358.19 L126.802 1364.07 L121.918 1364.07 L121.918 1358.19 Z" fill="#000000" fill-rule="nonzero" fill-opacity="1" /><path clip-path="url(#clip850)" d="M135.806 1329.51 L158.029 1329.51 L158.029 1331.5 L145.482 1364.07 L140.598 1364.07 L152.404 1333.44 L135.806 1333.44 L135.806 1329.51 Z" fill="#000000" fill-rule="nonzero" fill-opacity="1" /><path clip-path="url(#clip850)" d="M167.195 1329.51 L185.552 1329.51 L185.552 1333.44 L171.478 1333.44 L171.478 1341.92 Q172.496 1341.57 173.515 1341.41 Q174.533 1341.22 175.552 1341.22 Q181.339 1341.22 184.718 1344.39 Q188.098 1347.56 188.098 1352.98 Q188.098 1358.56 184.626 1361.66 Q181.153 1364.74 174.834 1364.74 Q172.658 1364.74 170.39 1364.37 Q168.144 1364 165.737 1363.26 L165.737 1358.56 Q167.82 1359.69 170.042 1360.25 Q172.265 1360.8 174.741 1360.8 Q178.746 1360.8 181.084 1358.7 Q183.422 1356.59 183.422 1352.98 Q183.422 1349.37 181.084 1347.26 Q178.746 1345.16 174.741 1345.16 Q172.866 1345.16 170.991 1345.57 Q169.14 1345.99 167.195 1346.87 L167.195 1329.51 Z" fill="#000000" fill-rule="nonzero" fill-opacity="1" /><path clip-path="url(#clip850)" d="M50.9921 1153.93 L80.6679 1153.93 L80.6679 1157.86 L50.9921 1157.86 L50.9921 1153.93 Z" fill="#000000" fill-rule="nonzero" fill-opacity="1" /><path clip-path="url(#clip850)" d="M100.76 1139.28 Q97.1493 1139.28 95.3206 1142.84 Q93.515 1146.38 93.515 1153.51 Q93.515 1160.62 95.3206 1164.18 Q97.1493 1167.72 100.76 1167.72 Q104.395 1167.72 106.2 1164.18 Q108.029 1160.62 108.029 1153.51 Q108.029 1146.38 106.2 1142.84 Q104.395 1139.28 100.76 1139.28 M100.76 1135.57 Q106.571 1135.57 109.626 1140.18 Q112.705 1144.76 112.705 1153.51 Q112.705 1162.24 109.626 1166.85 Q106.571 1171.43 100.76 1171.43 Q94.9502 1171.43 91.8715 1166.85 Q88.816 1162.24 88.816 1153.51 Q88.816 1144.76 91.8715 1140.18 Q94.9502 1135.57 100.76 1135.57 Z" fill="#000000" fill-rule="nonzero" fill-opacity="1" /><path clip-path="url(#clip850)" d="M120.922 1164.88 L125.807 1164.88 L125.807 1170.76 L120.922 1170.76 L120.922 1164.88 Z" fill="#000000" fill-rule="nonzero" fill-opacity="1" /><path clip-path="url(#clip850)" d="M136.038 1136.2 L154.394 1136.2 L154.394 1140.13 L140.32 1140.13 L140.32 1148.6 Q141.339 1148.26 142.357 1148.1 Q143.376 1147.91 144.394 1147.91 Q150.181 1147.91 153.561 1151.08 Q156.941 1154.25 156.941 1159.67 Q156.941 1165.25 153.468 1168.35 Q149.996 1171.43 143.677 1171.43 Q141.501 1171.43 139.232 1171.06 Q136.987 1170.69 134.58 1169.95 L134.58 1165.25 Q136.663 1166.38 138.885 1166.94 Q141.107 1167.49 143.584 1167.49 Q147.589 1167.49 149.927 1165.39 Q152.265 1163.28 152.265 1159.67 Q152.265 1156.06 149.927 1153.95 Q147.589 1151.85 143.584 1151.85 Q141.709 1151.85 139.834 1152.26 Q137.982 1152.68 136.038 1153.56 L136.038 1136.2 Z" fill="#000000" fill-rule="nonzero" fill-opacity="1" /><path clip-path="url(#clip850)" d="M176.153 1139.28 Q172.542 1139.28 170.714 1142.84 Q168.908 1146.38 168.908 1153.51 Q168.908 1160.62 170.714 1164.18 Q172.542 1167.72 176.153 1167.72 Q179.788 1167.72 181.593 1164.18 Q183.422 1160.62 183.422 1153.51 Q183.422 1146.38 181.593 1142.84 Q179.788 1139.28 176.153 1139.28 M176.153 1135.57 Q181.964 1135.57 185.019 1140.18 Q188.098 1144.76 188.098 1153.51 Q188.098 1162.24 185.019 1166.85 Q181.964 1171.43 176.153 1171.43 Q170.343 1171.43 167.265 1166.85 Q164.209 1162.24 164.209 1153.51 Q164.209 1144.76 167.265 1140.18 Q170.343 1135.57 176.153 1135.57 Z" fill="#000000" fill-rule="nonzero" fill-opacity="1" /><path clip-path="url(#clip850)" d="M51.9875 960.618 L81.6633 960.618 L81.6633 964.553 L51.9875 964.553 L51.9875 960.618 Z" fill="#000000" fill-rule="nonzero" fill-opacity="1" /><path clip-path="url(#clip850)" d="M101.756 945.965 Q98.1447 945.965 96.316 949.53 Q94.5104 953.071 94.5104 960.201 Q94.5104 967.307 96.316 970.872 Q98.1447 974.414 101.756 974.414 Q105.39 974.414 107.196 970.872 Q109.024 967.307 109.024 960.201 Q109.024 953.071 107.196 949.53 Q105.39 945.965 101.756 945.965 M101.756 942.261 Q107.566 942.261 110.621 946.868 Q113.7 951.451 113.7 960.201 Q113.7 968.928 110.621 973.534 Q107.566 978.117 101.756 978.117 Q95.9456 978.117 92.8669 973.534 Q89.8114 968.928 89.8114 960.201 Q89.8114 951.451 92.8669 946.868 Q95.9456 942.261 101.756 942.261 Z" fill="#000000" fill-rule="nonzero" fill-opacity="1" /><path clip-path="url(#clip850)" d="M121.918 971.567 L126.802 971.567 L126.802 977.446 L121.918 977.446 L121.918 971.567 Z" fill="#000000" fill-rule="nonzero" fill-opacity="1" /><path clip-path="url(#clip850)" d="M141.015 973.511 L157.334 973.511 L157.334 977.446 L135.39 977.446 L135.39 973.511 Q138.052 970.756 142.635 966.127 Q147.242 961.474 148.422 960.131 Q150.668 957.608 151.547 955.872 Q152.45 954.113 152.45 952.423 Q152.45 949.669 150.505 947.932 Q148.584 946.196 145.482 946.196 Q143.283 946.196 140.83 946.96 Q138.399 947.724 135.621 949.275 L135.621 944.553 Q138.445 943.419 140.899 942.84 Q143.353 942.261 145.39 942.261 Q150.76 942.261 153.955 944.946 Q157.149 947.631 157.149 952.122 Q157.149 954.252 156.339 956.173 Q155.552 958.071 153.445 960.664 Q152.867 961.335 149.765 964.553 Q146.663 967.747 141.015 973.511 Z" fill="#000000" fill-rule="nonzero" fill-opacity="1" /><path clip-path="url(#clip850)" d="M167.195 942.886 L185.552 942.886 L185.552 946.821 L171.478 946.821 L171.478 955.293 Q172.496 954.946 173.515 954.784 Q174.533 954.599 175.552 954.599 Q181.339 954.599 184.718 957.77 Q188.098 960.942 188.098 966.358 Q188.098 971.937 184.626 975.039 Q181.153 978.117 174.834 978.117 Q172.658 978.117 170.39 977.747 Q168.144 977.377 165.737 976.636 L165.737 971.937 Q167.82 973.071 170.042 973.627 Q172.265 974.182 174.741 974.182 Q178.746 974.182 181.084 972.076 Q183.422 969.969 183.422 966.358 Q183.422 962.747 181.084 960.641 Q178.746 958.534 174.741 958.534 Q172.866 958.534 170.991 958.951 Q169.14 959.368 167.195 960.247 L167.195 942.886 Z" fill="#000000" fill-rule="nonzero" fill-opacity="1" /><path clip-path="url(#clip850)" d="M100.76 752.654 Q97.1493 752.654 95.3206 756.219 Q93.515 759.76 93.515 766.89 Q93.515 773.996 95.3206 777.561 Q97.1493 781.103 100.76 781.103 Q104.395 781.103 106.2 777.561 Q108.029 773.996 108.029 766.89 Q108.029 759.76 106.2 756.219 Q104.395 752.654 100.76 752.654 M100.76 748.95 Q106.571 748.95 109.626 753.557 Q112.705 758.14 112.705 766.89 Q112.705 775.617 109.626 780.223 Q106.571 784.806 100.76 784.806 Q94.9502 784.806 91.8715 780.223 Q88.816 775.617 88.816 766.89 Q88.816 758.14 91.8715 753.557 Q94.9502 748.95 100.76 748.95 Z" fill="#000000" fill-rule="nonzero" fill-opacity="1" /><path clip-path="url(#clip850)" d="M120.922 778.256 L125.807 778.256 L125.807 784.135 L120.922 784.135 L120.922 778.256 Z" fill="#000000" fill-rule="nonzero" fill-opacity="1" /><path clip-path="url(#clip850)" d="M145.992 752.654 Q142.381 752.654 140.552 756.219 Q138.746 759.76 138.746 766.89 Q138.746 773.996 140.552 777.561 Q142.381 781.103 145.992 781.103 Q149.626 781.103 151.431 777.561 Q153.26 773.996 153.26 766.89 Q153.26 759.76 151.431 756.219 Q149.626 752.654 145.992 752.654 M145.992 748.95 Q151.802 748.95 154.857 753.557 Q157.936 758.14 157.936 766.89 Q157.936 775.617 154.857 780.223 Q151.802 784.806 145.992 784.806 Q140.181 784.806 137.103 780.223 Q134.047 775.617 134.047 766.89 Q134.047 758.14 137.103 753.557 Q140.181 748.95 145.992 748.95 Z" fill="#000000" fill-rule="nonzero" fill-opacity="1" /><path clip-path="url(#clip850)" d="M176.153 752.654 Q172.542 752.654 170.714 756.219 Q168.908 759.76 168.908 766.89 Q168.908 773.996 170.714 777.561 Q172.542 781.103 176.153 781.103 Q179.788 781.103 181.593 777.561 Q183.422 773.996 183.422 766.89 Q183.422 759.76 181.593 756.219 Q179.788 752.654 176.153 752.654 M176.153 748.95 Q181.964 748.95 185.019 753.557 Q188.098 758.14 188.098 766.89 Q188.098 775.617 185.019 780.223 Q181.964 784.806 176.153 784.806 Q170.343 784.806 167.265 780.223 Q164.209 775.617 164.209 766.89 Q164.209 758.14 167.265 753.557 Q170.343 748.95 176.153 748.95 Z" fill="#000000" fill-rule="nonzero" fill-opacity="1" /><path clip-path="url(#clip850)" d="M101.756 559.343 Q98.1447 559.343 96.316 562.908 Q94.5104 566.449 94.5104 573.579 Q94.5104 580.685 96.316 584.25 Q98.1447 587.792 101.756 587.792 Q105.39 587.792 107.196 584.25 Q109.024 580.685 109.024 573.579 Q109.024 566.449 107.196 562.908 Q105.39 559.343 101.756 559.343 M101.756 555.639 Q107.566 555.639 110.621 560.246 Q113.7 564.829 113.7 573.579 Q113.7 582.306 110.621 586.912 Q107.566 591.496 101.756 591.496 Q95.9456 591.496 92.8669 586.912 Q89.8114 582.306 89.8114 573.579 Q89.8114 564.829 92.8669 560.246 Q95.9456 555.639 101.756 555.639 Z" fill="#000000" fill-rule="nonzero" fill-opacity="1" /><path clip-path="url(#clip850)" d="M121.918 584.945 L126.802 584.945 L126.802 590.824 L121.918 590.824 L121.918 584.945 Z" fill="#000000" fill-rule="nonzero" fill-opacity="1" /><path clip-path="url(#clip850)" d="M141.015 586.889 L157.334 586.889 L157.334 590.824 L135.39 590.824 L135.39 586.889 Q138.052 584.134 142.635 579.505 Q147.242 574.852 148.422 573.51 Q150.668 570.986 151.547 569.25 Q152.45 567.491 152.45 565.801 Q152.45 563.047 150.505 561.311 Q148.584 559.574 145.482 559.574 Q143.283 559.574 140.83 560.338 Q138.399 561.102 135.621 562.653 L135.621 557.931 Q138.445 556.797 140.899 556.218 Q143.353 555.639 145.39 555.639 Q150.76 555.639 153.955 558.324 Q157.149 561.01 157.149 565.5 Q157.149 567.63 156.339 569.551 Q155.552 571.449 153.445 574.042 Q152.867 574.713 149.765 577.931 Q146.663 581.125 141.015 586.889 Z" fill="#000000" fill-rule="nonzero" fill-opacity="1" /><path clip-path="url(#clip850)" d="M167.195 556.264 L185.552 556.264 L185.552 560.199 L171.478 560.199 L171.478 568.672 Q172.496 568.324 173.515 568.162 Q174.533 567.977 175.552 567.977 Q181.339 567.977 184.718 571.148 Q188.098 574.32 188.098 579.736 Q188.098 585.315 184.626 588.417 Q181.153 591.496 174.834 591.496 Q172.658 591.496 170.39 591.125 Q168.144 590.755 165.737 590.014 L165.737 585.315 Q167.82 586.449 170.042 587.005 Q172.265 587.56 174.741 587.56 Q178.746 587.56 181.084 585.454 Q183.422 583.347 183.422 579.736 Q183.422 576.125 181.084 574.019 Q178.746 571.912 174.741 571.912 Q172.866 571.912 170.991 572.329 Q169.14 572.746 167.195 573.625 L167.195 556.264 Z" fill="#000000" fill-rule="nonzero" fill-opacity="1" /><path clip-path="url(#clip850)" d="M100.76 366.032 Q97.1493 366.032 95.3206 369.597 Q93.515 373.138 93.515 380.268 Q93.515 387.374 95.3206 390.939 Q97.1493 394.481 100.76 394.481 Q104.395 394.481 106.2 390.939 Q108.029 387.374 108.029 380.268 Q108.029 373.138 106.2 369.597 Q104.395 366.032 100.76 366.032 M100.76 362.328 Q106.571 362.328 109.626 366.935 Q112.705 371.518 112.705 380.268 Q112.705 388.995 109.626 393.601 Q106.571 398.185 100.76 398.185 Q94.9502 398.185 91.8715 393.601 Q88.816 388.995 88.816 380.268 Q88.816 371.518 91.8715 366.935 Q94.9502 362.328 100.76 362.328 Z" fill="#000000" fill-rule="nonzero" fill-opacity="1" /><path clip-path="url(#clip850)" d="M120.922 391.634 L125.807 391.634 L125.807 397.513 L120.922 397.513 L120.922 391.634 Z" fill="#000000" fill-rule="nonzero" fill-opacity="1" /><path clip-path="url(#clip850)" d="M136.038 362.953 L154.394 362.953 L154.394 366.888 L140.32 366.888 L140.32 375.361 Q141.339 375.013 142.357 374.851 Q143.376 374.666 144.394 374.666 Q150.181 374.666 153.561 377.837 Q156.941 381.009 156.941 386.425 Q156.941 392.004 153.468 395.106 Q149.996 398.185 143.677 398.185 Q141.501 398.185 139.232 397.814 Q136.987 397.444 134.58 396.703 L134.58 392.004 Q136.663 393.138 138.885 393.694 Q141.107 394.249 143.584 394.249 Q147.589 394.249 149.927 392.143 Q152.265 390.036 152.265 386.425 Q152.265 382.814 149.927 380.708 Q147.589 378.601 143.584 378.601 Q141.709 378.601 139.834 379.018 Q137.982 379.435 136.038 380.314 L136.038 362.953 Z" fill="#000000" fill-rule="nonzero" fill-opacity="1" /><path clip-path="url(#clip850)" d="M176.153 366.032 Q172.542 366.032 170.714 369.597 Q168.908 373.138 168.908 380.268 Q168.908 387.374 170.714 390.939 Q172.542 394.481 176.153 394.481 Q179.788 394.481 181.593 390.939 Q183.422 387.374 183.422 380.268 Q183.422 373.138 181.593 369.597 Q179.788 366.032 176.153 366.032 M176.153 362.328 Q181.964 362.328 185.019 366.935 Q188.098 371.518 188.098 380.268 Q188.098 388.995 185.019 393.601 Q181.964 398.185 176.153 398.185 Q170.343 398.185 167.265 393.601 Q164.209 388.995 164.209 380.268 Q164.209 371.518 167.265 366.935 Q170.343 362.328 176.153 362.328 Z" fill="#000000" fill-rule="nonzero" fill-opacity="1" /><path clip-path="url(#clip850)" d="M101.756 172.721 Q98.1447 172.721 96.316 176.286 Q94.5104 179.827 94.5104 186.957 Q94.5104 194.064 96.316 197.628 Q98.1447 201.17 101.756 201.17 Q105.39 201.17 107.196 197.628 Q109.024 194.064 109.024 186.957 Q109.024 179.827 107.196 176.286 Q105.39 172.721 101.756 172.721 M101.756 169.017 Q107.566 169.017 110.621 173.624 Q113.7 178.207 113.7 186.957 Q113.7 195.684 110.621 200.29 Q107.566 204.874 101.756 204.874 Q95.9456 204.874 92.8669 200.29 Q89.8114 195.684 89.8114 186.957 Q89.8114 178.207 92.8669 173.624 Q95.9456 169.017 101.756 169.017 Z" fill="#000000" fill-rule="nonzero" fill-opacity="1" /><path clip-path="url(#clip850)" d="M121.918 198.323 L126.802 198.323 L126.802 204.202 L121.918 204.202 L121.918 198.323 Z" fill="#000000" fill-rule="nonzero" fill-opacity="1" /><path clip-path="url(#clip850)" d="M135.806 169.642 L158.029 169.642 L158.029 171.633 L145.482 204.202 L140.598 204.202 L152.404 173.578 L135.806 173.578 L135.806 169.642 Z" fill="#000000" fill-rule="nonzero" fill-opacity="1" /><path clip-path="url(#clip850)" d="M167.195 169.642 L185.552 169.642 L185.552 173.578 L171.478 173.578 L171.478 182.05 Q172.496 181.702 173.515 181.54 Q174.533 181.355 175.552 181.355 Q181.339 181.355 184.718 184.527 Q188.098 187.698 188.098 193.114 Q188.098 198.693 184.626 201.795 Q181.153 204.874 174.834 204.874 Q172.658 204.874 170.39 204.503 Q168.144 204.133 165.737 203.392 L165.737 198.693 Q167.82 199.827 170.042 200.383 Q172.265 200.938 174.741 200.938 Q178.746 200.938 181.084 198.832 Q183.422 196.726 183.422 193.114 Q183.422 189.503 181.084 187.397 Q178.746 185.29 174.741 185.29 Q172.866 185.29 170.991 185.707 Q169.14 186.124 167.195 187.003 L167.195 169.642 Z" fill="#000000" fill-rule="nonzero" fill-opacity="1" /><polyline clip-path="url(#clip852)" style="stroke:#009af9; stroke-linecap:round; stroke-linejoin:round; stroke-width:8; stroke-opacity:1; fill:none" points="284.343,305.871 288.359,290.722 292.376,276.074 296.392,261.932 300.408,248.3 304.425,235.181 308.441,222.581 312.457,210.501 316.474,198.946 320.49,187.92 324.506,177.427 328.523,167.474 332.539,158.066 336.555,149.21 340.572,140.913 344.588,133.183 348.604,126.03 352.621,119.465 356.637,113.496 360.653,108.133 364.67,103.388 368.686,99.2704 372.702,95.7857 376.719,92.9414 380.735,90.7411 384.751,89.1847 388.768,88.2664 392.784,87.9763 396.8,88.2971 400.817,89.2036 404.833,90.661 408.849,92.6242 412.866,95.0365 416.882,97.8286 420.898,100.919 424.915,104.216 428.931,107.615 432.947,111.007 436.964,114.284 440.98,117.341 444.996,120.087 449.013,122.452 453.029,124.388 457.045,125.873 461.062,126.91 465.078,127.539 469.094,127.855 473.111,128.045 477.127,128.417 481.143,129.418 485.16,131.602 489.176,135.566 493.192,141.864 497.209,150.937 501.225,163.07 505.241,178.384 509.258,196.852 513.274,218.321 517.29,242.537 521.307,269.165 525.323,297.811 529.339,328.039 533.356,359.399 537.372,391.443 541.388,423.751 545.405,455.954 549.421,487.747 553.437,518.891 557.454,549.224 561.47,578.652 565.486,607.139 569.503,634.697 573.519,661.374 577.535,687.243 581.552,712.391 585.568,736.906 589.584,760.876 593.601,784.382 597.617,807.494 601.633,830.27 605.65,852.752 609.666,874.973 613.682,896.953 617.699,918.699 621.715,940.209 625.731,961.477 629.748,982.486 633.764,1003.22 637.78,1023.65 641.797,1043.76 645.813,1063.52 649.829,1082.91 653.846,1101.91 657.862,1120.5 661.878,1138.66 665.895,1156.38 669.911,1173.64 673.927,1190.42 677.944,1206.73 681.96,1222.55 685.977,1237.87 689.993,1252.69 694.009,1267.01 698.026,1280.82 702.042,1294.12 706.058,1306.9 710.075,1319.16 714.091,1330.89 718.107,1342.1 722.124,1352.78 726.14,1362.92 730.156,1372.51 734.173,1381.56 738.189,1390.05 742.205,1397.97 746.222,1405.33 750.238,1412.09 754.254,1418.27 758.271,1423.84 762.287,1428.79 766.303,1433.12 770.32,1436.82 774.336,1439.89 778.352,1442.31 782.369,1444.08 786.385,1445.21 790.401,1445.72 794.418,1445.6 798.434,1444.89 802.45,1443.61 806.467,1441.82 810.483,1439.55 814.499,1436.88 818.516,1433.88 822.532,1430.64 826.548,1427.27 830.565,1423.86 834.581,1420.53 838.597,1417.39 842.614,1414.53 846.63,1412.02 850.646,1409.94 854.663,1408.3 858.679,1407.11 862.695,1406.35 866.712,1405.94 870.728,1405.74 874.744,1405.47 878.761,1404.74 882.777,1403.03 886.793,1399.74 890.81,1394.29 894.826,1386.21 898.842,1375.14 902.859,1360.91 906.875,1343.51 910.891,1323.04 914.908,1299.72 918.924,1273.88 922.94,1245.87 926.957,1216.12 930.973,1185.09 934.989,1153.23 939.006,1120.97 943.022,1088.69 947.038,1056.73 951.055,1025.34 955.071,994.71 959.087,964.964 963.104,936.154 967.12,908.282 971.136,881.311 975.153,855.175 979.169,829.792 983.185,805.07 987.202,780.922 991.218,757.265 995.234,734.025 999.251,711.14 1003.27,688.562 1007.28,666.255 1011.3,644.195 1015.32,622.371 1019.33,600.779 1023.35,579.428 1027.37,558.33 1031.38,537.503 1035.4,516.969 1039.41,496.749 1043.43,476.868 1047.45,457.348 1051.46,438.213 1055.48,419.483 1059.5,401.176 1063.51,383.31 1067.53,365.898 1071.54,348.953 1075.56,332.485 1079.58,316.502 1083.59,301.011 1087.61,286.019 1091.63,271.531 1095.64,257.551 1099.66,244.083 1103.68,231.13 1107.69,218.696 1111.71,206.784 1115.72,195.398 1119.74,184.543 1123.76,174.223 1127.77,164.444 1131.79,155.213 1135.81,146.536 1139.82,138.422 1143.84,130.879 1147.86,123.916 1151.87,117.543 1155.89,111.77 1159.9,106.608 1163.92,102.065 1167.94,98.1527 1171.95,94.8764 1175.97,92.2416 1179.99,90.2505 1184,88.9013 1188.02,88.1875 1192.03,88.0962 1196.05,88.6084 1200.07,89.6966 1204.08,91.322 1208.1,93.436 1212.12,95.9779 1216.13,98.8744 1220.15,102.04 1224.17,105.378 1228.18,108.785 1232.2,112.151 1236.21,115.365 1240.23,118.329 1244.25,120.958 1248.26,123.186 1252.28,124.975 1256.3,126.311 1260.31,127.209 1264.33,127.721 1268.35,127.971 1272.36,128.179 1276.38,128.699 1280.39,130.018 1284.41,132.711 1288.43,137.371 1292.44,144.522 1296.46,154.557 1300.48,167.707 1304.49,184.044 1308.51,203.497 1312.52,225.878 1316.54,250.904 1320.56,278.22 1324.57,307.419 1328.59,338.055 1332.61,369.677 1336.62,401.845 1340.64,434.152 1344.66,466.25 1348.67,497.851 1352.69,528.748 1356.7,558.797 1360.72,587.924 1364.74,616.11 1368.75,643.38 1372.77,669.791 1376.79,695.421 1380.8,720.356 1384.82,744.688 1388.84,768.503 1392.85,791.877 1396.87,814.876 1400.88,837.553 1404.9,859.948 1408.92,882.087 1412.93,903.988 1416.95,925.656 1420.97,947.087 1424.98,968.269 1429,989.187 1433.01,1009.82 1437.03,1030.14 1441.05,1050.14 1445.06,1069.78 1449.08,1089.04 1453.1,1107.91 1457.11,1126.36 1461.13,1144.37 1465.15,1161.93 1469.16,1179.03 1473.18,1195.66 1477.19,1211.8 1481.21,1227.46 1485.23,1242.61 1489.24,1257.27 1493.26,1271.42 1497.28,1285.06 1501.29,1298.18 1505.31,1310.79 1509.33,1322.87 1513.34,1334.43 1517.36,1345.47 1521.37,1355.96 1525.39,1365.92 1529.41,1375.34 1533.42,1384.2 1537.44,1392.5 1541.46,1400.24 1545.47,1407.4 1549.49,1413.97 1553.51,1419.94 1557.52,1425.31 1561.54,1430.06 1565.55,1434.19 1569.57,1437.68 1573.59,1440.53 1577.6,1442.74 1581.62,1444.3 1585.64,1445.23 1589.65,1445.53 1593.67,1445.22 1597.68,1444.32 1601.7,1442.88 1605.72,1440.92 1609.73,1438.52 1613.75,1435.74 1617.77,1432.66 1621.78,1429.37 1625.8,1425.98 1629.82,1422.59 1633.83,1419.32 1637.85,1416.26 1641.86,1413.52 1645.88,1411.15 1649.9,1409.21 1653.91,1407.73 1657.93,1406.69 1661.95,1406.06 1665.96,1405.74 1669.98,1405.56 1674,1405.19 1678.01,1404.2 1682.03,1402.04 1686.04,1398.1 1690.06,1391.85 1694.08,1382.82 1698.09,1370.74 1702.11,1355.48 1706.13,1337.07 1710.14,1315.65 1714.16,1291.49 1718.17,1264.91 1722.19,1236.3 1726.21,1206.11 1730.22,1174.78 1734.24,1142.75 1738.26,1110.46 1742.27,1078.26 1746.29,1046.46 1750.31,1015.31 1754.32,984.969 1758.34,955.526 1762.35,927.022 1766.37,899.447 1770.39,872.752 1774.4,846.866 1778.42,821.704 1782.44,797.178 1786.45,773.196 1790.47,749.681 1794.49,726.562 1798.5,703.782 1802.52,681.296 1806.53,659.074 1810.55,637.095 1814.57,615.352 1818.58,593.843 1822.6,572.579 1826.62,551.573 1830.63,530.845 1834.65,510.417 1838.66,490.313 1842.68,470.555 1846.7,451.166 1850.71,432.169 1854.73,413.582 1858.75,395.424 1862.76,377.712 1866.78,360.457 1870.8,343.673 1874.81,327.369 1878.83,311.553 1882.84,296.231 1886.86,281.409 1890.88,267.092 1894.89,253.284 1898.91,239.989 1902.93,227.21 1906.94,214.95 1910.96,203.214 1914.98,192.005 1918.99,181.328 1923.01,171.188 1927.02,161.591 1931.04,152.542 1935.06,144.051 1939.07,136.124 1943.09,128.771 1947.11,122.001 1951.12,115.824 1955.14,110.25 1959.15,105.29 1963.17,100.952 1967.19,97.245 1971.2,94.176 1975.22,91.7491 1979.24,89.9652 1983.25,88.8212 1987.27,88.3087 1991.29,88.4128 1995.3,89.1117 1999.32,90.3738 2003.33,92.158 2007.35,94.4116 2011.37,97.0702 2015.38,100.057 2019.4,103.283 2023.42,106.648 2027.43,110.045 2031.45,113.365 2035.47,116.501 2039.48,119.357 2043.5,121.854 2047.51,123.937 2051.53,125.573 2055.55,126.758 2059.56,127.517 2063.58,127.923 2067.6,128.126 2071.61,128.388 2075.63,129.107 2079.65,130.803 2083.66,134.067 2087.68,139.475 2091.69,147.515 2095.71,158.53 2099.73,172.696 2103.74,190.039 2107.76,210.447 2111.78,233.701 2115.79,259.492 2119.81,287.445 2123.82,317.139 2127.84,348.126 2131.86,379.956 2135.87,412.199 2139.89,444.464 2143.91,476.423 2147.92,507.813 2151.94,538.446 2155.96,568.202 2159.97,597.026 2163.99,624.914 2168,651.902 2172.02,678.055 2176.04,703.454 2180.05,728.188 2184.07,752.346 2188.09,776.011 2192.1,799.257 2196.12,822.146 2200.14,844.726 2204.15,867.034 2208.17,889.093 2212.18,910.916 2216.2,932.503 2220.22,953.85 2224.23,974.944 2228.25,995.767 2232.27,1016.3 2236.28,1036.51 2240.3,1056.39 2244.31,1075.91 2248.33,1095.04 2252.35,1113.77 2256.36,1132.07 2260.38,1149.94 2264.4,1167.35 2268.41,1184.3 2272.43,1200.76 2276.45,1216.75 2280.46,1232.24 2284.48,1247.23 2288.49,1261.73 2292.51,1275.71 "/>
<path clip-path="url(#clip850)" d="M1640.09 1438.47 L2281.8 1438.47 L2281.8 1334.79 L1640.09 1334.79  Z" fill="#ffffff" fill-rule="evenodd" fill-opacity="1"/>
<polyline clip-path="url(#clip850)" style="stroke:#000000; stroke-linecap:round; stroke-linejoin:round; stroke-width:4; stroke-opacity:1; fill:none" points="1640.09,1438.47 2281.8,1438.47 2281.8,1334.79 1640.09,1334.79 1640.09,1438.47 "/>
<polyline clip-path="url(#clip850)" style="stroke:#009af9; stroke-linecap:round; stroke-linejoin:round; stroke-width:8; stroke-opacity:1; fill:none" points="1663.75,1386.63 1805.66,1386.63 "/>
<path clip-path="url(#clip850)" d="M1842.71 1390.88 Q1837.55 1390.88 1835.56 1392.06 Q1833.57 1393.24 1833.57 1396.09 Q1833.57 1398.36 1835.05 1399.7 Q1836.55 1401.02 1839.12 1401.02 Q1842.66 1401.02 1844.79 1398.52 Q1846.95 1396 1846.95 1391.83 L1846.95 1390.88 L1842.71 1390.88 M1851.21 1389.12 L1851.21 1403.91 L1846.95 1403.91 L1846.95 1399.98 Q1845.49 1402.34 1843.31 1403.47 Q1841.14 1404.59 1837.99 1404.59 Q1834.01 1404.59 1831.65 1402.36 Q1829.31 1400.12 1829.31 1396.37 Q1829.31 1391.99 1832.23 1389.77 Q1835.17 1387.55 1840.98 1387.55 L1846.95 1387.55 L1846.95 1387.13 Q1846.95 1384.19 1845 1382.6 Q1843.08 1380.97 1839.59 1380.97 Q1837.36 1380.97 1835.26 1381.51 Q1833.15 1382.04 1831.21 1383.1 L1831.21 1379.17 Q1833.54 1378.27 1835.74 1377.83 Q1837.94 1377.36 1840.03 1377.36 Q1845.65 1377.36 1848.43 1380.28 Q1851.21 1383.2 1851.21 1389.12 Z" fill="#000000" fill-rule="nonzero" fill-opacity="1" /><path clip-path="url(#clip850)" d="M1878.64 1378.98 L1878.64 1382.97 Q1876.83 1381.97 1875 1381.48 Q1873.2 1380.97 1871.35 1380.97 Q1867.2 1380.97 1864.91 1383.61 Q1862.62 1386.23 1862.62 1390.97 Q1862.62 1395.72 1864.91 1398.36 Q1867.2 1400.97 1871.35 1400.97 Q1873.2 1400.97 1875 1400.49 Q1876.83 1399.98 1878.64 1398.98 L1878.64 1402.92 Q1876.85 1403.75 1874.93 1404.17 Q1873.04 1404.59 1870.88 1404.59 Q1865.03 1404.59 1861.58 1400.91 Q1858.13 1397.22 1858.13 1390.97 Q1858.13 1384.63 1861.6 1381 Q1865.1 1377.36 1871.16 1377.36 Q1873.13 1377.36 1875 1377.78 Q1876.88 1378.17 1878.64 1378.98 Z" fill="#000000" fill-rule="nonzero" fill-opacity="1" /><path clip-path="url(#clip850)" d="M1904.7 1378.98 L1904.7 1382.97 Q1902.9 1381.97 1901.07 1381.48 Q1899.26 1380.97 1897.41 1380.97 Q1893.27 1380.97 1890.97 1383.61 Q1888.68 1386.23 1888.68 1390.97 Q1888.68 1395.72 1890.97 1398.36 Q1893.27 1400.97 1897.41 1400.97 Q1899.26 1400.97 1901.07 1400.49 Q1902.9 1399.98 1904.7 1398.98 L1904.7 1402.92 Q1902.92 1403.75 1901 1404.17 Q1899.1 1404.59 1896.95 1404.59 Q1891.09 1404.59 1887.64 1400.91 Q1884.19 1397.22 1884.19 1390.97 Q1884.19 1384.63 1887.66 1381 Q1891.16 1377.36 1897.22 1377.36 Q1899.19 1377.36 1901.07 1377.78 Q1902.94 1378.17 1904.7 1378.98 Z" fill="#000000" fill-rule="nonzero" fill-opacity="1" /><path clip-path="url(#clip850)" d="M1953.24 1372.02 L1953.24 1376.95 Q1950.88 1374.75 1948.2 1373.66 Q1945.53 1372.57 1942.53 1372.57 Q1936.6 1372.57 1933.45 1376.21 Q1930.3 1379.82 1930.3 1386.67 Q1930.3 1393.5 1933.45 1397.13 Q1936.6 1400.74 1942.53 1400.74 Q1945.53 1400.74 1948.2 1399.66 Q1950.88 1398.57 1953.24 1396.37 L1953.24 1401.25 Q1950.79 1402.92 1948.03 1403.75 Q1945.3 1404.59 1942.25 1404.59 Q1934.4 1404.59 1929.89 1399.79 Q1925.37 1394.98 1925.37 1386.67 Q1925.37 1378.34 1929.89 1373.54 Q1934.4 1368.73 1942.25 1368.73 Q1945.35 1368.73 1948.08 1369.56 Q1950.84 1370.37 1953.24 1372.02 Z" fill="#000000" fill-rule="nonzero" fill-opacity="1" /><path clip-path="url(#clip850)" d="M1981.18 1370.49 L1981.18 1375.05 Q1978.52 1373.78 1976.16 1373.15 Q1973.8 1372.53 1971.6 1372.53 Q1967.78 1372.53 1965.7 1374.01 Q1963.64 1375.49 1963.64 1378.22 Q1963.64 1380.51 1965 1381.69 Q1966.39 1382.85 1970.23 1383.57 L1973.06 1384.15 Q1978.29 1385.14 1980.77 1387.66 Q1983.27 1390.16 1983.27 1394.38 Q1983.27 1399.4 1979.89 1401.99 Q1976.53 1404.59 1970.03 1404.59 Q1967.57 1404.59 1964.79 1404.03 Q1962.04 1403.47 1959.08 1402.39 L1959.08 1397.57 Q1961.92 1399.17 1964.66 1399.98 Q1967.39 1400.79 1970.03 1400.79 Q1974.03 1400.79 1976.21 1399.22 Q1978.38 1397.64 1978.38 1394.72 Q1978.38 1392.18 1976.81 1390.74 Q1975.26 1389.31 1971.69 1388.59 L1968.84 1388.03 Q1963.61 1386.99 1961.28 1384.77 Q1958.94 1382.55 1958.94 1378.59 Q1958.94 1374.01 1962.16 1371.37 Q1965.4 1368.73 1971.07 1368.73 Q1973.5 1368.73 1976.02 1369.17 Q1978.54 1369.61 1981.18 1370.49 Z" fill="#000000" fill-rule="nonzero" fill-opacity="1" /><path clip-path="url(#clip850)" d="M1988.22 1389.03 L2000.7 1389.03 L2000.7 1392.83 L1988.22 1392.83 L1988.22 1389.03 Z" fill="#000000" fill-rule="nonzero" fill-opacity="1" /><path clip-path="url(#clip850)" d="M2007.66 1369.35 L2013.96 1369.35 L2029.28 1398.27 L2029.28 1369.35 L2033.82 1369.35 L2033.82 1403.91 L2027.53 1403.91 L2012.2 1375 L2012.2 1403.91 L2007.66 1403.91 L2007.66 1369.35 Z" fill="#000000" fill-rule="nonzero" fill-opacity="1" /><path clip-path="url(#clip850)" d="M2065.12 1389.89 L2065.12 1391.97 L2045.53 1391.97 Q2045.81 1396.37 2048.17 1398.68 Q2050.56 1400.97 2054.79 1400.97 Q2057.25 1400.97 2059.54 1400.37 Q2061.85 1399.77 2064.12 1398.57 L2064.12 1402.59 Q2061.83 1403.57 2059.42 1404.08 Q2057.02 1404.59 2054.54 1404.59 Q2048.34 1404.59 2044.7 1400.97 Q2041.09 1397.36 2041.09 1391.21 Q2041.09 1384.84 2044.52 1381.11 Q2047.96 1377.36 2053.8 1377.36 Q2059.03 1377.36 2062.06 1380.74 Q2065.12 1384.1 2065.12 1389.89 M2060.86 1388.64 Q2060.81 1385.14 2058.89 1383.06 Q2056.99 1380.97 2053.84 1380.97 Q2050.28 1380.97 2048.13 1382.99 Q2046 1385 2045.67 1388.66 L2060.86 1388.64 Z" fill="#000000" fill-rule="nonzero" fill-opacity="1" /><path clip-path="url(#clip850)" d="M2071.67 1393.68 L2071.67 1377.99 L2075.93 1377.99 L2075.93 1393.52 Q2075.93 1397.2 2077.36 1399.05 Q2078.8 1400.88 2081.67 1400.88 Q2085.12 1400.88 2087.11 1398.68 Q2089.12 1396.48 2089.12 1392.69 L2089.12 1377.99 L2093.38 1377.99 L2093.38 1403.91 L2089.12 1403.91 L2089.12 1399.93 Q2087.57 1402.29 2085.51 1403.45 Q2083.47 1404.59 2080.77 1404.59 Q2076.3 1404.59 2073.98 1401.81 Q2071.67 1399.03 2071.67 1393.68 M2082.39 1377.36 L2082.39 1377.36 Z" fill="#000000" fill-rule="nonzero" fill-opacity="1" /><path clip-path="url(#clip850)" d="M2117.18 1381.97 Q2116.46 1381.55 2115.6 1381.37 Q2114.77 1381.16 2113.75 1381.16 Q2110.14 1381.16 2108.2 1383.52 Q2106.27 1385.86 2106.27 1390.26 L2106.27 1403.91 L2101.99 1403.91 L2101.99 1377.99 L2106.27 1377.99 L2106.27 1382.02 Q2107.62 1379.66 2109.77 1378.52 Q2111.92 1377.36 2115 1377.36 Q2115.44 1377.36 2115.97 1377.43 Q2116.51 1377.48 2117.15 1377.6 L2117.18 1381.97 Z" fill="#000000" fill-rule="nonzero" fill-opacity="1" /><path clip-path="url(#clip850)" d="M2133.43 1390.88 Q2128.27 1390.88 2126.27 1392.06 Q2124.28 1393.24 2124.28 1396.09 Q2124.28 1398.36 2125.77 1399.7 Q2127.27 1401.02 2129.84 1401.02 Q2133.38 1401.02 2135.51 1398.52 Q2137.66 1396 2137.66 1391.83 L2137.66 1390.88 L2133.43 1390.88 M2141.92 1389.12 L2141.92 1403.91 L2137.66 1403.91 L2137.66 1399.98 Q2136.21 1402.34 2134.03 1403.47 Q2131.85 1404.59 2128.71 1404.59 Q2124.72 1404.59 2122.36 1402.36 Q2120.02 1400.12 2120.02 1396.37 Q2120.02 1391.99 2122.94 1389.77 Q2125.88 1387.55 2131.69 1387.55 L2137.66 1387.55 L2137.66 1387.13 Q2137.66 1384.19 2135.72 1382.6 Q2133.8 1380.97 2130.3 1380.97 Q2128.08 1380.97 2125.97 1381.51 Q2123.87 1382.04 2121.92 1383.1 L2121.92 1379.17 Q2124.26 1378.27 2126.46 1377.83 Q2128.66 1377.36 2130.74 1377.36 Q2136.37 1377.36 2139.14 1380.28 Q2141.92 1383.2 2141.92 1389.12 Z" fill="#000000" fill-rule="nonzero" fill-opacity="1" /><path clip-path="url(#clip850)" d="M2150.7 1367.9 L2154.95 1367.9 L2154.95 1403.91 L2150.7 1403.91 L2150.7 1367.9 Z" fill="#000000" fill-rule="nonzero" fill-opacity="1" /><path clip-path="url(#clip850)" d="M2164.05 1369.35 L2183.91 1369.35 L2183.91 1373.29 L2168.73 1373.29 L2168.73 1383.47 L2182.43 1383.47 L2182.43 1387.41 L2168.73 1387.41 L2168.73 1403.91 L2164.05 1403.91 L2164.05 1369.35 Z" fill="#000000" fill-rule="nonzero" fill-opacity="1" /><path clip-path="url(#clip850)" d="M2191.32 1369.35 L2198.29 1369.35 L2207.11 1392.87 L2215.97 1369.35 L2222.94 1369.35 L2222.94 1403.91 L2218.38 1403.91 L2218.38 1373.57 L2209.47 1397.27 L2204.77 1397.27 L2195.86 1373.57 L2195.86 1403.91 L2191.32 1403.91 L2191.32 1369.35 Z" fill="#000000" fill-rule="nonzero" fill-opacity="1" /><path clip-path="url(#clip850)" d="M2231.69 1369.35 L2236.39 1369.35 L2236.39 1390.35 Q2236.39 1395.91 2238.4 1398.36 Q2240.42 1400.79 2244.93 1400.79 Q2249.42 1400.79 2251.44 1398.36 Q2253.45 1395.91 2253.45 1390.35 L2253.45 1369.35 L2258.15 1369.35 L2258.15 1390.93 Q2258.15 1397.69 2254.79 1401.14 Q2251.46 1404.59 2244.93 1404.59 Q2238.38 1404.59 2235.02 1401.14 Q2231.69 1397.69 2231.69 1390.93 L2231.69 1369.35 Z" fill="#000000" fill-rule="nonzero" fill-opacity="1" /></svg>
