<?xml version="1.0" encoding="utf-8"?>
<svg xmlns="http://www.w3.org/2000/svg" xmlns:xlink="http://www.w3.org/1999/xlink" width="600" height="400" viewBox="0 0 2400 1600">
<defs>
  <clipPath id="clip890">
    <rect x="0" y="0" width="2400" height="1600"/>
  </clipPath>
</defs>
<path clip-path="url(#clip890)" d="
M0 1600 L2400 1600 L2400 0 L0 0  Z
  " fill="#ffffff" fill-rule="evenodd" fill-opacity="1"/>
<defs>
  <clipPath id="clip891">
    <rect x="480" y="0" width="1681" height="1600"/>
  </clipPath>
</defs>
<path clip-path="url(#clip890)" d="
M149.191 1423.18 L2352.76 1423.18 L2352.76 47.2441 L149.191 47.2441  Z
  " fill="#ffffff" fill-rule="evenodd" fill-opacity="1"/>
<defs>
  <clipPath id="clip892">
    <rect x="149" y="47" width="2205" height="1377"/>
  </clipPath>
</defs>
<polyline clip-path="url(#clip892)" style="stroke:#000000; stroke-linecap:butt; stroke-linejoin:round; stroke-width:2; stroke-opacity:0.1; fill:none" points="
  211.556,1423.18 211.556,47.2441 
  "/>
<polyline clip-path="url(#clip892)" style="stroke:#000000; stroke-linecap:butt; stroke-linejoin:round; stroke-width:2; stroke-opacity:0.1; fill:none" points="
  627.323,1423.18 627.323,47.2441 
  "/>
<polyline clip-path="url(#clip892)" style="stroke:#000000; stroke-linecap:butt; stroke-linejoin:round; stroke-width:2; stroke-opacity:0.1; fill:none" points="
  1043.09,1423.18 1043.09,47.2441 
  "/>
<polyline clip-path="url(#clip892)" style="stroke:#000000; stroke-linecap:butt; stroke-linejoin:round; stroke-width:2; stroke-opacity:0.1; fill:none" points="
  1458.86,1423.18 1458.86,47.2441 
  "/>
<polyline clip-path="url(#clip892)" style="stroke:#000000; stroke-linecap:butt; stroke-linejoin:round; stroke-width:2; stroke-opacity:0.1; fill:none" points="
  1874.62,1423.18 1874.62,47.2441 
  "/>
<polyline clip-path="url(#clip892)" style="stroke:#000000; stroke-linecap:butt; stroke-linejoin:round; stroke-width:2; stroke-opacity:0.1; fill:none" points="
  2290.39,1423.18 2290.39,47.2441 
  "/>
<polyline clip-path="url(#clip890)" style="stroke:#000000; stroke-linecap:butt; stroke-linejoin:round; stroke-width:4; stroke-opacity:1; fill:none" points="
  149.191,1423.18 2352.76,1423.18 
  "/>
<polyline clip-path="url(#clip890)" style="stroke:#000000; stroke-linecap:butt; stroke-linejoin:round; stroke-width:4; stroke-opacity:1; fill:none" points="
  211.556,1423.18 211.556,1404.28 
  "/>
<polyline clip-path="url(#clip890)" style="stroke:#000000; stroke-linecap:butt; stroke-linejoin:round; stroke-width:4; stroke-opacity:1; fill:none" points="
  627.323,1423.18 627.323,1404.28 
  "/>
<polyline clip-path="url(#clip890)" style="stroke:#000000; stroke-linecap:butt; stroke-linejoin:round; stroke-width:4; stroke-opacity:1; fill:none" points="
  1043.09,1423.18 1043.09,1404.28 
  "/>
<polyline clip-path="url(#clip890)" style="stroke:#000000; stroke-linecap:butt; stroke-linejoin:round; stroke-width:4; stroke-opacity:1; fill:none" points="
  1458.86,1423.18 1458.86,1404.28 
  "/>
<polyline clip-path="url(#clip890)" style="stroke:#000000; stroke-linecap:butt; stroke-linejoin:round; stroke-width:4; stroke-opacity:1; fill:none" points="
  1874.62,1423.18 1874.62,1404.28 
  "/>
<polyline clip-path="url(#clip890)" style="stroke:#000000; stroke-linecap:butt; stroke-linejoin:round; stroke-width:4; stroke-opacity:1; fill:none" points="
  2290.39,1423.18 2290.39,1404.28 
  "/>
<path clip-path="url(#clip890)" d="M211.556 1454.1 Q207.945 1454.1 206.116 1457.66 Q204.311 1461.2 204.311 1468.33 Q204.311 1475.44 206.116 1479.01 Q207.945 1482.55 211.556 1482.55 Q215.19 1482.55 216.996 1479.01 Q218.824 1475.44 218.824 1468.33 Q218.824 1461.2 216.996 1457.66 Q215.19 1454.1 211.556 1454.1 M211.556 1450.39 Q217.366 1450.39 220.422 1455 Q223.5 1459.58 223.5 1468.33 Q223.5 1477.06 220.422 1481.67 Q217.366 1486.25 211.556 1486.25 Q205.746 1486.25 202.667 1481.67 Q199.612 1477.06 199.612 1468.33 Q199.612 1459.58 202.667 1455 Q205.746 1450.39 211.556 1450.39 Z" fill="#000000" fill-rule="evenodd" fill-opacity="1" /><path clip-path="url(#clip890)" d="M617.705 1481.64 L625.344 1481.64 L625.344 1455.28 L617.034 1456.95 L617.034 1452.69 L625.297 1451.02 L629.973 1451.02 L629.973 1481.64 L637.612 1481.64 L637.612 1485.58 L617.705 1485.58 L617.705 1481.64 Z" fill="#000000" fill-rule="evenodd" fill-opacity="1" /><path clip-path="url(#clip890)" d="M1037.74 1481.64 L1054.06 1481.64 L1054.06 1485.58 L1032.12 1485.58 L1032.12 1481.64 Q1034.78 1478.89 1039.36 1474.26 Q1043.97 1469.61 1045.15 1468.27 Q1047.4 1465.74 1048.28 1464.01 Q1049.18 1462.25 1049.18 1460.56 Q1049.18 1457.8 1047.23 1456.07 Q1045.31 1454.33 1042.21 1454.33 Q1040.01 1454.33 1037.56 1455.09 Q1035.13 1455.86 1032.35 1457.41 L1032.35 1452.69 Q1035.17 1451.55 1037.63 1450.97 Q1040.08 1450.39 1042.12 1450.39 Q1047.49 1450.39 1050.68 1453.08 Q1053.88 1455.77 1053.88 1460.26 Q1053.88 1462.39 1053.07 1464.31 Q1052.28 1466.2 1050.17 1468.8 Q1049.59 1469.47 1046.49 1472.69 Q1043.39 1475.88 1037.74 1481.64 Z" fill="#000000" fill-rule="evenodd" fill-opacity="1" /><path clip-path="url(#clip890)" d="M1463.1 1466.95 Q1466.46 1467.66 1468.34 1469.93 Q1470.23 1472.2 1470.23 1475.53 Q1470.23 1480.65 1466.72 1483.45 Q1463.2 1486.25 1456.72 1486.25 Q1454.54 1486.25 1452.22 1485.81 Q1449.93 1485.39 1447.48 1484.54 L1447.48 1480.02 Q1449.42 1481.16 1451.74 1481.74 Q1454.05 1482.32 1456.58 1482.32 Q1460.97 1482.32 1463.27 1480.58 Q1465.58 1478.84 1465.58 1475.53 Q1465.58 1472.48 1463.43 1470.77 Q1461.3 1469.03 1457.48 1469.03 L1453.45 1469.03 L1453.45 1465.19 L1457.66 1465.19 Q1461.11 1465.19 1462.94 1463.82 Q1464.77 1462.43 1464.77 1459.84 Q1464.77 1457.18 1462.87 1455.77 Q1461 1454.33 1457.48 1454.33 Q1455.56 1454.33 1453.36 1454.75 Q1451.16 1455.16 1448.52 1456.04 L1448.52 1451.88 Q1451.18 1451.14 1453.5 1450.77 Q1455.84 1450.39 1457.9 1450.39 Q1463.22 1450.39 1466.32 1452.83 Q1469.42 1455.23 1469.42 1459.35 Q1469.42 1462.22 1467.78 1464.21 Q1466.14 1466.18 1463.1 1466.95 Z" fill="#000000" fill-rule="evenodd" fill-opacity="1" /><path clip-path="url(#clip890)" d="M1877.63 1455.09 L1865.83 1473.54 L1877.63 1473.54 L1877.63 1455.09 M1876.41 1451.02 L1882.29 1451.02 L1882.29 1473.54 L1887.22 1473.54 L1887.22 1477.43 L1882.29 1477.43 L1882.29 1485.58 L1877.63 1485.58 L1877.63 1477.43 L1862.03 1477.43 L1862.03 1472.92 L1876.41 1451.02 Z" fill="#000000" fill-rule="evenodd" fill-opacity="1" /><path clip-path="url(#clip890)" d="M2280.67 1451.02 L2299.03 1451.02 L2299.03 1454.96 L2284.95 1454.96 L2284.95 1463.43 Q2285.97 1463.08 2286.99 1462.92 Q2288.01 1462.73 2289.03 1462.73 Q2294.81 1462.73 2298.19 1465.9 Q2301.57 1469.08 2301.57 1474.49 Q2301.57 1480.07 2298.1 1483.17 Q2294.63 1486.25 2288.31 1486.25 Q2286.13 1486.25 2283.86 1485.88 Q2281.62 1485.51 2279.21 1484.77 L2279.21 1480.07 Q2281.29 1481.2 2283.52 1481.76 Q2285.74 1482.32 2288.21 1482.32 Q2292.22 1482.32 2294.56 1480.21 Q2296.9 1478.1 2296.9 1474.49 Q2296.9 1470.88 2294.56 1468.77 Q2292.22 1466.67 2288.21 1466.67 Q2286.34 1466.67 2284.46 1467.08 Q2282.61 1467.5 2280.67 1468.38 L2280.67 1451.02 Z" fill="#000000" fill-rule="evenodd" fill-opacity="1" /><path clip-path="url(#clip890)" d="M1199.28 1522.27 L1199.28 1532.4 L1211.35 1532.4 L1211.35 1536.95 L1199.28 1536.95 L1199.28 1556.3 Q1199.28 1560.66 1200.46 1561.9 Q1201.67 1563.14 1205.33 1563.14 L1211.35 1563.14 L1211.35 1568.04 L1205.33 1568.04 Q1198.55 1568.04 1195.97 1565.53 Q1193.4 1562.98 1193.4 1556.3 L1193.4 1536.95 L1189.1 1536.95 L1189.1 1532.4 L1193.4 1532.4 L1193.4 1522.27 L1199.28 1522.27 Z" fill="#000000" fill-rule="evenodd" fill-opacity="1" /><path clip-path="url(#clip890)" d="M1239.23 1518.52 L1252.72 1518.52 L1252.72 1523.07 L1245.09 1523.07 L1245.09 1572.09 L1252.72 1572.09 L1252.72 1576.64 L1239.23 1576.64 L1239.23 1518.52 Z" fill="#000000" fill-rule="evenodd" fill-opacity="1" /><path clip-path="url(#clip890)" d="M1287.93 1533.45 L1287.93 1538.98 Q1285.44 1537.71 1282.77 1537.07 Q1280.1 1536.44 1277.23 1536.44 Q1272.87 1536.44 1270.68 1537.77 Q1268.51 1539.11 1268.51 1541.79 Q1268.51 1543.82 1270.07 1545 Q1271.63 1546.15 1276.34 1547.2 L1278.35 1547.64 Q1284.58 1548.98 1287.19 1551.43 Q1289.84 1553.85 1289.84 1558.21 Q1289.84 1563.17 1285.89 1566.07 Q1281.97 1568.97 1275.1 1568.97 Q1272.23 1568.97 1269.12 1568.39 Q1266.03 1567.85 1262.59 1566.74 L1262.59 1560.69 Q1265.84 1562.38 1268.99 1563.24 Q1272.14 1564.07 1275.23 1564.07 Q1279.36 1564.07 1281.59 1562.66 Q1283.82 1561.23 1283.82 1558.65 Q1283.82 1556.27 1282.2 1554.99 Q1280.61 1553.72 1275.16 1552.54 L1273.13 1552.07 Q1267.68 1550.92 1265.26 1548.56 Q1262.85 1546.18 1262.85 1542.04 Q1262.85 1537.01 1266.41 1534.27 Q1269.98 1531.54 1276.53 1531.54 Q1279.78 1531.54 1282.64 1532.01 Q1285.51 1532.49 1287.93 1533.45 Z" fill="#000000" fill-rule="evenodd" fill-opacity="1" /><path clip-path="url(#clip890)" d="M1312.85 1518.52 L1312.85 1576.64 L1299.35 1576.64 L1299.35 1572.09 L1306.96 1572.09 L1306.96 1523.07 L1299.35 1523.07 L1299.35 1518.52 L1312.85 1518.52 Z" fill="#000000" fill-rule="evenodd" fill-opacity="1" /><polyline clip-path="url(#clip892)" style="stroke:#000000; stroke-linecap:butt; stroke-linejoin:round; stroke-width:2; stroke-opacity:0.1; fill:none" points="
  149.191,1247.37 2352.76,1247.37 
  "/>
<polyline clip-path="url(#clip892)" style="stroke:#000000; stroke-linecap:butt; stroke-linejoin:round; stroke-width:2; stroke-opacity:0.1; fill:none" points="
  149.191,969.637 2352.76,969.637 
  "/>
<polyline clip-path="url(#clip892)" style="stroke:#000000; stroke-linecap:butt; stroke-linejoin:round; stroke-width:2; stroke-opacity:0.1; fill:none" points="
  149.191,691.907 2352.76,691.907 
  "/>
<polyline clip-path="url(#clip892)" style="stroke:#000000; stroke-linecap:butt; stroke-linejoin:round; stroke-width:2; stroke-opacity:0.1; fill:none" points="
  149.191,414.176 2352.76,414.176 
  "/>
<polyline clip-path="url(#clip892)" style="stroke:#000000; stroke-linecap:butt; stroke-linejoin:round; stroke-width:2; stroke-opacity:0.1; fill:none" points="
  149.191,136.446 2352.76,136.446 
  "/>
<polyline clip-path="url(#clip890)" style="stroke:#000000; stroke-linecap:butt; stroke-linejoin:round; stroke-width:4; stroke-opacity:1; fill:none" points="
  149.191,1423.18 149.191,47.2441 
  "/>
<polyline clip-path="url(#clip890)" style="stroke:#000000; stroke-linecap:butt; stroke-linejoin:round; stroke-width:4; stroke-opacity:1; fill:none" points="
  149.191,1247.37 168.089,1247.37 
  "/>
<polyline clip-path="url(#clip890)" style="stroke:#000000; stroke-linecap:butt; stroke-linejoin:round; stroke-width:4; stroke-opacity:1; fill:none" points="
  149.191,969.637 168.089,969.637 
  "/>
<polyline clip-path="url(#clip890)" style="stroke:#000000; stroke-linecap:butt; stroke-linejoin:round; stroke-width:4; stroke-opacity:1; fill:none" points="
  149.191,691.907 168.089,691.907 
  "/>
<polyline clip-path="url(#clip890)" style="stroke:#000000; stroke-linecap:butt; stroke-linejoin:round; stroke-width:4; stroke-opacity:1; fill:none" points="
  149.191,414.176 168.089,414.176 
  "/>
<polyline clip-path="url(#clip890)" style="stroke:#000000; stroke-linecap:butt; stroke-linejoin:round; stroke-width:4; stroke-opacity:1; fill:none" points="
  149.191,136.446 168.089,136.446 
  "/>
<path clip-path="url(#clip890)" d="M50.9921 1247.82 L80.6679 1247.82 L80.6679 1251.75 L50.9921 1251.75 L50.9921 1247.82 Z" fill="#000000" fill-rule="evenodd" fill-opacity="1" /><path clip-path="url(#clip890)" d="M103.608 1234.16 L91.8021 1252.61 L103.608 1252.61 L103.608 1234.16 M102.381 1230.09 L108.26 1230.09 L108.26 1252.61 L113.191 1252.61 L113.191 1256.5 L108.26 1256.5 L108.26 1264.65 L103.608 1264.65 L103.608 1256.5 L88.0058 1256.5 L88.0058 1251.99 L102.381 1230.09 Z" fill="#000000" fill-rule="evenodd" fill-opacity="1" /><path clip-path="url(#clip890)" d="M53.0754 970.088 L82.7512 970.088 L82.7512 974.023 L53.0754 974.023 L53.0754 970.088 Z" fill="#000000" fill-rule="evenodd" fill-opacity="1" /><path clip-path="url(#clip890)" d="M96.8715 982.982 L113.191 982.982 L113.191 986.917 L91.2465 986.917 L91.2465 982.982 Q93.9086 980.227 98.4919 975.597 Q103.098 970.945 104.279 969.602 Q106.524 967.079 107.404 965.343 Q108.307 963.584 108.307 961.894 Q108.307 959.139 106.362 957.403 Q104.441 955.667 101.339 955.667 Q99.14 955.667 96.6863 956.431 Q94.2558 957.195 91.478 958.746 L91.478 954.024 Q94.3021 952.889 96.7558 952.311 Q99.2095 951.732 101.246 951.732 Q106.617 951.732 109.811 954.417 Q113.006 957.102 113.006 961.593 Q113.006 963.723 112.196 965.644 Q111.408 967.542 109.302 970.135 Q108.723 970.806 105.621 974.023 Q102.52 977.218 96.8715 982.982 Z" fill="#000000" fill-rule="evenodd" fill-opacity="1" /><path clip-path="url(#clip890)" d="M101.246 677.705 Q97.6354 677.705 95.8067 681.27 Q94.0012 684.812 94.0012 691.941 Q94.0012 699.048 95.8067 702.613 Q97.6354 706.154 101.246 706.154 Q104.881 706.154 106.686 702.613 Q108.515 699.048 108.515 691.941 Q108.515 684.812 106.686 681.27 Q104.881 677.705 101.246 677.705 M101.246 674.002 Q107.057 674.002 110.112 678.608 Q113.191 683.191 113.191 691.941 Q113.191 700.668 110.112 705.275 Q107.057 709.858 101.246 709.858 Q95.4363 709.858 92.3576 705.275 Q89.3021 700.668 89.3021 691.941 Q89.3021 683.191 92.3576 678.608 Q95.4363 674.002 101.246 674.002 Z" fill="#000000" fill-rule="evenodd" fill-opacity="1" /><path clip-path="url(#clip890)" d="M96.8715 427.521 L113.191 427.521 L113.191 431.456 L91.2465 431.456 L91.2465 427.521 Q93.9086 424.766 98.4919 420.137 Q103.098 415.484 104.279 414.142 Q106.524 411.618 107.404 409.882 Q108.307 408.123 108.307 406.433 Q108.307 403.679 106.362 401.943 Q104.441 400.206 101.339 400.206 Q99.14 400.206 96.6863 400.97 Q94.2558 401.734 91.478 403.285 L91.478 398.563 Q94.3021 397.429 96.7558 396.85 Q99.2095 396.271 101.246 396.271 Q106.617 396.271 109.811 398.956 Q113.006 401.642 113.006 406.132 Q113.006 408.262 112.196 410.183 Q111.408 412.081 109.302 414.674 Q108.723 415.345 105.621 418.563 Q102.52 421.757 96.8715 427.521 Z" fill="#000000" fill-rule="evenodd" fill-opacity="1" /><path clip-path="url(#clip890)" d="M103.608 123.24 L91.8021 141.689 L103.608 141.689 L103.608 123.24 M102.381 119.166 L108.26 119.166 L108.26 141.689 L113.191 141.689 L113.191 145.578 L108.26 145.578 L108.26 153.726 L103.608 153.726 L103.608 145.578 L88.0058 145.578 L88.0058 141.064 L102.381 119.166 Z" fill="#000000" fill-rule="evenodd" fill-opacity="1" /><polyline clip-path="url(#clip892)" style="stroke:#009af9; stroke-linecap:butt; stroke-linejoin:round; stroke-width:4; stroke-opacity:1; fill:none" points="
  211.556,622.474 215.714,622.444 219.871,622.355 224.029,622.206 228.187,621.997 232.344,621.727 236.502,621.397 240.66,621.006 244.817,620.555 248.975,620.043 
  253.133,619.472 257.29,618.841 261.448,618.15 265.606,617.401 269.763,616.593 273.921,615.728 278.079,614.806 282.236,613.828 286.394,612.795 290.552,611.708 
  294.709,610.567 298.867,609.375 303.025,608.131 307.182,606.837 311.34,605.495 315.498,604.105 319.655,602.669 323.813,601.189 327.971,599.665 332.128,598.1 
  336.286,596.494 340.444,594.85 344.601,593.17 348.759,591.453 352.917,589.703 357.074,587.921 361.232,586.109 365.39,584.269 369.547,582.403 373.705,580.512 
  377.863,578.598 382.02,576.663 386.178,574.71 390.336,572.739 394.493,570.754 398.651,568.756 402.809,566.748 406.966,564.731 411.124,562.707 415.282,560.678 
  419.439,558.647 423.597,556.615 427.755,554.585 431.912,552.558 436.07,550.536 440.228,548.522 444.385,546.517 448.543,544.523 452.701,542.543 456.858,540.578 
  461.016,538.63 465.174,536.702 469.331,534.794 473.489,532.91 477.647,531.051 481.804,529.219 485.962,527.416 490.12,525.643 494.277,523.902 498.435,522.195 
  502.593,520.525 506.75,518.891 510.908,517.297 515.066,515.743 519.223,514.232 523.381,512.765 527.539,511.343 531.696,509.968 535.854,508.641 540.012,507.363 
  544.17,506.137 548.327,504.963 552.485,503.842 556.643,502.776 560.8,501.766 564.958,500.812 569.116,499.917 573.273,499.081 577.431,498.305 581.589,497.59 
  585.746,496.936 589.904,496.346 594.062,495.819 598.219,495.356 602.377,494.959 606.535,494.627 610.692,494.362 614.85,494.164 619.008,494.034 623.165,493.973 
  627.323,493.977 631.481,494.032 635.638,494.136 639.796,494.289 643.954,494.492 648.111,494.745 652.269,495.048 656.427,495.401 660.584,495.804 664.742,496.257 
  668.9,496.759 673.057,497.31 677.215,497.911 681.373,498.56 685.53,499.257 689.688,500.001 693.846,500.792 698.003,501.63 702.161,502.513 706.319,503.44 
  710.476,504.412 714.634,505.427 718.792,506.484 722.949,507.581 727.107,508.719 731.265,509.896 735.422,511.111 739.58,512.362 743.738,513.648 747.895,514.969 
  752.053,516.323 756.211,517.709 760.368,519.125 764.526,520.57 768.684,522.042 772.841,523.54 776.999,525.063 781.157,526.609 785.314,528.176 789.472,529.763 
  793.63,531.369 797.787,532.991 801.945,534.628 806.103,536.279 810.26,537.941 814.418,539.614 818.576,541.295 822.733,542.983 826.891,544.676 831.049,546.373 
  835.206,548.071 839.364,549.77 843.522,551.467 847.679,553.161 851.837,554.849 855.995,556.531 860.152,558.204 864.31,559.868 868.468,561.519 872.625,563.157 
  876.783,564.78 880.941,566.387 885.098,567.975 889.256,569.543 893.414,571.09 897.571,572.613 901.729,574.112 905.887,575.585 910.044,577.03 914.202,578.447 
  918.36,579.832 922.517,581.186 926.675,582.507 930.833,583.792 934.99,585.042 939.148,586.255 943.306,587.429 947.463,588.563 951.621,589.656 955.779,590.707 
  959.936,591.715 964.094,592.679 968.252,593.597 972.41,594.469 976.567,595.293 980.725,596.069 984.883,596.796 989.04,597.473 993.198,598.098 997.356,598.672 
  1001.51,599.193 1005.67,599.661 1009.83,600.075 1013.99,600.435 1018.14,600.739 1022.3,600.987 1026.46,601.178 1030.62,601.313 1034.77,601.389 1038.93,601.407 
  1043.09,601.381 1047.25,601.316 1051.41,601.213 1055.56,601.071 1059.72,600.89 1063.88,600.67 1068.04,600.411 1072.19,600.113 1076.35,599.776 1080.51,599.4 
  1084.67,598.985 1088.82,598.532 1092.98,598.04 1097.14,597.511 1101.3,596.944 1105.45,596.339 1109.61,595.699 1113.77,595.022 1117.93,594.31 1122.09,593.562 
  1126.24,592.781 1130.4,591.965 1134.56,591.116 1138.72,590.236 1142.87,589.323 1147.03,588.38 1151.19,587.408 1155.35,586.406 1159.5,585.377 1163.66,584.321 
  1167.82,583.24 1171.98,582.133 1176.14,581.003 1180.29,579.85 1184.45,578.676 1188.61,577.482 1192.77,576.268 1196.92,575.036 1201.08,573.788 1205.24,572.524 
  1209.4,571.246 1213.55,569.955 1217.71,568.652 1221.87,567.338 1226.03,566.015 1230.19,564.684 1234.34,563.347 1238.5,562.005 1242.66,560.659 1246.82,559.311 
  1250.97,557.961 1255.13,556.611 1259.29,555.263 1263.45,553.918 1267.6,552.578 1271.76,551.243 1275.92,549.915 1280.08,548.595 1284.23,547.285 1288.39,545.986 
  1292.55,544.699 1296.71,543.426 1300.87,542.168 1305.02,540.926 1309.18,539.701 1313.34,538.495 1317.5,537.309 1321.65,536.144 1325.81,535.002 1329.97,533.883 
  1334.13,532.788 1338.28,531.719 1342.44,530.677 1346.6,529.663 1350.76,528.678 1354.92,527.723 1359.07,526.799 1363.23,525.907 1367.39,525.048 1371.55,524.223 
  1375.7,523.433 1379.86,522.678 1384.02,521.96 1388.18,521.28 1392.33,520.638 1396.49,520.035 1400.65,519.471 1404.81,518.948 1408.96,518.467 1413.12,518.027 
  1417.28,517.63 1421.44,517.276 1425.6,516.965 1429.75,516.699 1433.91,516.478 1438.07,516.302 1442.23,516.172 1446.38,516.088 1450.54,516.051 1454.7,516.056 
  1458.86,516.089 1463.01,516.148 1467.17,516.235 1471.33,516.349 1475.49,516.49 1479.65,516.658 1483.8,516.855 1487.96,517.078 1492.12,517.329 1496.28,517.607 
  1500.43,517.913 1504.59,518.246 1508.75,518.605 1512.91,518.991 1517.06,519.404 1521.22,519.843 1525.38,520.307 1529.54,520.798 1533.69,521.313 1537.85,521.853 
  1542.01,522.418 1546.17,523.006 1550.33,523.617 1554.48,524.251 1558.64,524.908 1562.8,525.586 1566.96,526.286 1571.11,527.005 1575.27,527.745 1579.43,528.504 
  1583.59,529.282 1587.74,530.077 1591.9,530.889 1596.06,531.717 1600.22,532.56 1604.38,533.418 1608.53,534.29 1612.69,535.175 1616.85,536.071 1621.01,536.979 
  1625.16,537.897 1629.32,538.825 1633.48,539.761 1637.64,540.704 1641.79,541.654 1645.95,542.61 1650.11,543.571 1654.27,544.535 1658.43,545.502 1662.58,546.471 
  1666.74,547.441 1670.9,548.411 1675.06,549.38 1679.21,550.346 1683.37,551.31 1687.53,552.27 1691.69,553.225 1695.84,554.174 1700,555.116 1704.16,556.05 
  1708.32,556.976 1712.47,557.892 1716.63,558.797 1720.79,559.69 1724.95,560.571 1729.11,561.439 1733.26,562.292 1737.42,563.13 1741.58,563.952 1745.74,564.757 
  1749.89,565.545 1754.05,566.313 1758.21,567.062 1762.37,567.791 1766.52,568.499 1770.68,569.185 1774.84,569.849 1779,570.489 1783.16,571.105 1787.31,571.696 
  1791.47,572.262 1795.63,572.802 1799.79,573.315 1803.94,573.801 1808.1,574.259 1812.26,574.688 1816.42,575.088 1820.57,575.458 1824.73,575.798 1828.89,576.108 
  1833.05,576.386 1837.2,576.632 1841.36,576.846 1845.52,577.028 1849.68,577.177 1853.84,577.292 1857.99,577.373 1862.15,577.42 1866.31,577.433 1870.47,577.424 
  1874.62,577.401 1878.78,577.363 1882.94,577.312 1887.1,577.246 1891.25,577.165 1895.41,577.071 1899.57,576.961 1903.73,576.838 1907.89,576.699 1912.04,576.546 
  1916.2,576.379 1920.36,576.198 1924.52,576.002 1928.67,575.792 1932.83,575.568 1936.99,575.33 1941.15,575.078 1945.3,574.812 1949.46,574.533 1953.62,574.241 
  1957.78,573.936 1961.93,573.618 1966.09,573.287 1970.25,572.944 1974.41,572.589 1978.57,572.222 1982.72,571.844 1986.88,571.455 1991.04,571.054 1995.2,570.643 
  1999.35,570.223 2003.51,569.792 2007.67,569.352 2011.83,568.903 2015.98,568.446 2020.14,567.98 2024.3,567.507 2028.46,567.026 2032.62,566.538 2036.77,566.045 
  2040.93,565.545 2045.09,565.04 2049.25,564.53 2053.4,564.015 2057.56,563.496 2061.72,562.975 2065.88,562.45 2070.03,561.922 2074.19,561.393 2078.35,560.862 
  2082.51,560.331 2086.67,559.799 2090.82,559.267 2094.98,558.736 2099.14,558.207 2103.3,557.679 2107.45,557.153 2111.61,556.63 2115.77,556.111 2119.93,555.596 
  2124.08,555.085 2128.24,554.579 2132.4,554.079 2136.56,553.585 2140.71,553.097 2144.87,552.616 2149.03,552.143 2153.19,551.679 2157.35,551.223 2161.5,550.776 
  2165.66,550.338 2169.82,549.911 2173.98,549.494 2178.13,549.089 2182.29,548.695 2186.45,548.313 2190.61,547.943 2194.76,547.586 2198.92,547.243 2203.08,546.913 
  2207.24,546.598 2211.4,546.296 2215.55,546.01 2219.71,545.739 2223.87,545.484 2228.03,545.245 2232.18,545.022 2236.34,544.816 2240.5,544.627 2244.66,544.455 
  2248.81,544.301 2252.97,544.164 2257.13,544.046 2261.29,543.947 2265.44,543.866 2269.6,543.804 2273.76,543.761 2277.92,543.737 2282.08,543.733 2286.23,543.733 
  2290.39,543.733 
  "/>
<polyline clip-path="url(#clip892)" style="stroke:#e26f46; stroke-linecap:butt; stroke-linejoin:round; stroke-width:4; stroke-opacity:1; fill:none" points="
  211.556,691.907 215.714,685.979 219.871,680.007 224.029,673.999 228.187,667.966 232.344,661.916 236.502,655.86 240.66,649.806 244.817,643.764 248.975,637.743 
  253.133,631.751 257.29,625.797 261.448,619.889 265.606,614.035 269.763,608.242 273.921,602.519 278.079,596.872 282.236,591.309 286.394,585.836 290.552,580.46 
  294.709,575.187 298.867,570.025 303.025,564.977 307.182,560.05 311.34,555.251 315.498,550.585 319.655,546.056 323.813,541.669 327.971,537.43 332.128,533.344 
  336.286,529.413 340.444,525.644 344.601,522.04 348.759,518.604 352.917,515.34 357.074,512.253 361.232,509.344 365.39,506.617 369.547,504.075 373.705,501.72 
  377.863,499.556 382.02,497.583 386.178,495.804 390.336,494.222 394.493,492.837 398.651,491.652 402.809,490.667 406.966,489.883 411.124,489.301 415.282,488.921 
  419.439,488.745 423.597,488.772 427.755,489.002 431.912,489.435 436.07,490.071 440.228,490.908 444.385,491.947 448.543,493.185 452.701,494.623 456.858,496.258 
  461.016,498.088 465.174,500.113 469.331,502.33 473.489,504.737 477.647,507.331 481.804,510.111 485.962,513.073 490.12,516.215 494.277,519.533 498.435,523.025 
  502.593,526.687 506.75,530.517 510.908,534.509 515.066,538.662 519.223,542.969 523.381,547.429 527.539,552.038 531.696,556.79 535.854,561.681 540.012,566.708 
  544.17,571.866 548.327,577.151 552.485,582.558 556.643,588.082 560.8,593.721 564.958,599.469 569.116,605.322 573.273,611.277 577.431,617.327 581.589,623.469 
  585.746,629.7 589.904,636.015 594.062,642.411 598.219,648.885 602.377,655.433 606.535,662.053 610.692,668.744 614.85,675.503 619.008,682.328 623.165,689.219 
  627.323,694.895 631.481,699.806 635.638,704.751 639.796,709.72 643.954,714.709 648.111,719.707 652.269,724.71 656.427,729.709 660.584,734.698 664.742,739.668 
  668.9,744.613 673.057,749.526 677.215,754.4 681.373,759.23 685.53,764.008 689.688,768.728 693.846,773.385 698.003,777.972 702.161,782.485 706.319,786.916 
  710.476,791.262 714.634,795.516 718.792,799.674 722.949,803.731 727.107,807.683 731.265,811.524 735.422,815.251 739.58,818.86 743.738,822.345 747.895,825.702 
  752.053,828.93 756.211,832.022 760.368,834.977 764.526,837.791 768.684,840.461 772.841,842.983 776.999,845.357 781.157,847.578 785.314,849.645 789.472,851.555 
  793.63,853.306 797.787,854.897 801.945,856.325 806.103,857.59 810.26,858.69 814.418,859.623 818.576,860.389 822.733,860.987 826.891,861.416 831.049,861.675 
  835.206,861.765 839.364,861.685 843.522,861.435 847.679,861.016 851.837,860.427 855.995,859.669 860.152,858.743 864.31,857.65 868.468,856.391 872.625,854.966 
  876.783,853.378 880.941,851.627 885.098,849.716 889.256,847.645 893.414,845.418 897.571,843.036 901.729,840.501 905.887,837.815 910.044,834.982 914.202,832.003 
  918.36,828.881 922.517,825.62 926.675,822.222 930.833,818.689 934.99,815.026 939.148,811.236 943.306,807.321 947.463,803.285 951.621,799.131 955.779,794.862 
  959.936,790.484 964.094,785.998 968.252,781.409 972.41,776.719 976.567,771.932 980.725,767.053 984.883,762.085 989.04,757.032 993.198,751.895 997.356,746.68 
  1001.51,741.389 1005.67,736.025 1009.83,730.591 1013.99,725.09 1018.14,719.524 1022.3,713.895 1026.46,708.206 1030.62,702.458 1034.77,696.654 1038.93,691.191 
  1043.09,687.373 1047.25,683.525 1051.41,679.654 1055.56,675.765 1059.72,671.864 1063.88,667.954 1068.04,664.042 1072.19,660.134 1076.35,656.234 1080.51,652.349 
  1084.67,648.484 1088.82,644.643 1092.98,640.831 1097.14,637.055 1101.3,633.318 1105.45,629.625 1109.61,625.982 1113.77,622.391 1117.93,618.859 1122.09,615.389 
  1126.24,611.985 1130.4,608.654 1134.56,605.397 1138.72,602.219 1142.87,599.124 1147.03,596.115 1151.19,593.196 1155.35,590.371 1159.5,587.642 1163.66,585.013 
  1167.82,582.486 1171.98,580.065 1176.14,577.753 1180.29,575.551 1184.45,573.462 1188.61,571.489 1192.77,569.635 1196.92,567.9 1201.08,566.287 1205.24,564.798 
  1209.4,563.435 1213.55,562.198 1217.71,561.09 1221.87,560.112 1226.03,559.265 1230.19,558.55 1234.34,557.967 1238.5,557.518 1242.66,557.203 1246.82,557.023 
  1250.97,556.977 1255.13,557.067 1259.29,557.291 1263.45,557.651 1267.6,558.145 1271.76,558.774 1275.92,559.536 1280.08,560.432 1284.23,561.46 1288.39,562.62 
  1292.55,563.911 1296.71,565.331 1300.87,566.879 1305.02,568.555 1309.18,570.356 1313.34,572.281 1317.5,574.327 1321.65,576.495 1325.81,578.78 1329.97,581.182 
  1334.13,583.699 1338.28,586.329 1342.44,589.068 1346.6,591.915 1350.76,594.867 1354.92,597.922 1359.07,601.078 1363.23,604.332 1367.39,607.681 1371.55,611.122 
  1375.7,614.653 1379.86,618.272 1384.02,621.975 1388.18,625.76 1392.33,629.624 1396.49,633.564 1400.65,637.578 1404.81,641.662 1408.96,645.814 1413.12,650.033 
  1417.28,654.314 1421.44,658.657 1425.6,663.057 1429.75,667.513 1433.91,672.022 1438.07,676.583 1442.23,681.193 1446.38,685.852 1450.54,690.557 1454.7,693.813 
  1458.86,696.498 1463.01,699.203 1467.17,701.923 1471.33,704.655 1475.49,707.395 1479.65,710.141 1483.8,712.888 1487.96,715.634 1492.12,718.375 1496.28,721.106 
  1500.43,723.825 1504.59,726.528 1508.75,729.211 1512.91,731.871 1517.06,734.505 1521.22,737.109 1525.38,739.681 1529.54,742.216 1533.69,744.712 1537.85,747.165 
  1542.01,749.573 1546.17,751.933 1550.33,754.242 1554.48,756.497 1558.64,758.695 1562.8,760.832 1566.96,762.908 1571.11,764.919 1575.27,766.863 1579.43,768.737 
  1583.59,770.539 1587.74,772.268 1591.9,773.92 1596.06,775.495 1600.22,776.99 1604.38,778.404 1608.53,779.734 1612.69,780.979 1616.85,782.138 1621.01,783.209 
  1625.16,784.192 1629.32,785.084 1633.48,785.885 1637.64,786.593 1641.79,787.208 1645.95,787.729 1650.11,788.155 1654.27,788.485 1658.43,788.72 1662.58,788.858 
  1666.74,788.899 1670.9,788.843 1675.06,788.69 1679.21,788.44 1683.37,788.092 1687.53,787.648 1691.69,787.107 1695.84,786.469 1700,785.736 1704.16,784.907 
  1708.32,783.983 1712.47,782.965 1716.63,781.853 1720.79,780.649 1724.95,779.353 1729.11,777.967 1733.26,776.492 1737.42,774.928 1741.58,773.277 1745.74,771.54 
  1749.89,769.718 1754.05,767.814 1758.21,765.829 1762.37,763.763 1766.52,761.619 1770.68,759.399 1774.84,757.104 1779,754.735 1783.16,752.296 1787.31,749.786 
  1791.47,747.209 1795.63,744.567 1799.79,741.86 1803.94,739.092 1808.1,736.263 1812.26,733.377 1816.42,730.434 1820.57,727.438 1824.73,724.389 1828.89,721.29 
  1833.05,718.143 1837.2,714.949 1841.36,711.711 1845.52,708.43 1849.68,705.108 1853.84,701.747 1857.99,698.349 1862.15,694.915 1866.31,691.722 1870.47,690.316 
  1874.62,688.899 1878.78,687.472 1882.94,686.037 1887.1,684.596 1891.25,683.15 1895.41,681.701 1899.57,680.25 1903.73,678.799 1907.89,677.349 1912.04,675.903 
  1916.2,674.462 1920.36,673.028 1924.52,671.603 1928.67,670.188 1932.83,668.785 1936.99,667.395 1941.15,666.022 1945.3,664.665 1949.46,663.327 1953.62,662.01 
  1957.78,660.714 1961.93,659.443 1966.09,658.196 1970.25,656.976 1974.41,655.784 1978.57,654.622 1982.72,653.491 1986.88,652.392 1991.04,651.328 1995.2,650.299 
  1999.35,649.306 2003.51,648.35 2007.67,647.434 2011.83,646.559 2015.98,645.724 2020.14,644.931 2024.3,644.182 2028.46,643.478 2032.62,642.819 2036.77,642.206 
  2040.93,641.64 2045.09,641.122 2049.25,640.652 2053.4,640.232 2057.56,639.862 2061.72,639.543 2065.88,639.274 2070.03,639.057 2074.19,638.893 2078.35,638.78 
  2082.51,638.72 2086.67,638.714 2090.82,638.761 2094.98,638.861 2099.14,639.014 2103.3,639.222 2107.45,639.483 2111.61,639.798 2115.77,640.166 2119.93,640.588 
  2124.08,641.064 2128.24,641.592 2132.4,642.173 2136.56,642.807 2140.71,643.493 2144.87,644.23 2149.03,645.018 2153.19,645.858 2157.35,646.747 2161.5,647.685 
  2165.66,648.673 2169.82,649.709 2173.98,650.792 2178.13,651.921 2182.29,653.097 2186.45,654.318 2190.61,655.583 2194.76,656.891 2198.92,658.241 2203.08,659.633 
  2207.24,661.066 2211.4,662.538 2215.55,664.048 2219.71,665.596 2223.87,667.179 2228.03,668.799 2232.18,670.452 2236.34,672.138 2240.5,673.856 2244.66,675.604 
  2248.81,677.382 2252.97,679.188 2257.13,681.021 2261.29,682.88 2265.44,684.763 2269.6,686.67 2273.76,688.599 2277.92,690.548 2282.08,691.907 2286.23,691.907 
  2290.39,691.907 
  "/>
<polyline clip-path="url(#clip892)" style="stroke:#3da44d; stroke-linecap:butt; stroke-linejoin:round; stroke-width:4; stroke-opacity:1; fill:none" points="
  211.556,101.73 215.714,96.6426 219.871,92.579 224.029,89.5214 228.187,87.451 232.344,86.3465 236.502,86.1857 240.66,86.946 244.817,88.6044 248.975,91.1371 
  253.133,94.5199 257.29,98.7307 261.448,103.744 265.606,109.541 269.763,116.094 273.921,123.386 278.079,131.391 282.236,140.089 286.394,149.458 290.552,159.476 
  294.709,170.125 298.867,181.386 303.025,193.234 307.182,205.652 311.34,218.621 315.498,232.123 319.655,246.134 323.813,260.637 327.971,275.613 332.128,291.041 
  336.286,306.903 340.444,323.178 344.601,339.846 348.759,356.891 352.917,374.292 357.074,392.029 361.232,410.079 365.39,428.424 369.547,447.041 373.705,465.909 
  377.863,485.021 382.02,504.347 386.178,523.867 390.336,543.558 394.493,563.4 398.651,583.369 402.809,603.443 406.966,623.612 411.124,643.849 415.282,664.134 
  419.439,684.445 423.597,704.763 427.755,725.069 431.912,745.343 436.07,765.564 440.228,785.712 444.385,805.768 448.543,825.713 452.701,845.527 456.858,865.191 
  461.016,884.685 465.174,903.994 469.331,923.098 473.489,941.978 477.647,960.617 481.804,978.998 485.962,997.106 490.12,1014.92 494.277,1032.44 498.435,1049.63 
  502.593,1066.48 506.75,1082.99 510.908,1099.13 515.066,1114.9 519.223,1130.29 523.381,1145.28 527.539,1159.86 531.696,1174.03 535.854,1187.78 540.012,1201.1 
  544.17,1213.99 548.327,1226.45 552.485,1238.46 556.643,1250.03 560.8,1261.17 564.958,1271.87 569.116,1282.15 573.273,1292 577.431,1301.43 581.589,1310.47 
  585.746,1319.13 589.904,1327.42 594.062,1335.36 598.219,1342.99 602.377,1350.33 606.535,1357.43 610.692,1364.31 614.85,1371.04 619.008,1377.66 623.165,1384.24 
  627.323,1181.18 631.481,1184.93 635.638,1187.9 639.796,1190.1 643.954,1191.55 648.111,1192.24 652.269,1192.19 656.427,1191.42 660.584,1189.94 664.742,1187.75 
  668.9,1184.88 673.057,1181.34 677.215,1177.14 681.373,1172.31 685.53,1166.85 689.688,1160.79 693.846,1154.13 698.003,1146.9 702.161,1139.11 706.319,1130.78 
  710.476,1121.92 714.634,1112.54 718.792,1102.67 722.949,1092.33 727.107,1081.52 731.265,1070.26 735.422,1058.58 739.58,1046.49 743.738,1033.99 747.895,1021.11 
  752.053,1007.87 756.211,994.282 760.368,980.359 764.526,966.12 768.684,951.584 772.841,936.766 776.999,921.684 781.157,906.354 785.314,890.795 789.472,875.022 
  793.63,859.054 797.787,842.907 801.945,826.598 806.103,810.146 810.26,793.566 814.418,776.877 818.576,760.094 822.733,743.236 826.891,726.32 831.049,709.364 
  835.206,692.383 839.364,675.395 843.522,658.416 847.679,641.464 851.837,624.557 855.995,607.711 860.152,590.94 864.31,574.26 868.468,557.69 872.625,541.245 
  876.783,524.942 880.941,508.793 885.098,492.813 889.256,477.017 893.414,461.422 897.571,446.04 901.729,430.885 905.887,415.968 910.044,401.302 914.202,386.901 
  918.36,372.776 922.517,358.938 926.675,345.396 930.833,332.159 934.99,319.238 939.148,306.641 943.306,294.376 947.463,282.446 951.621,270.86 955.779,259.622 
  959.936,248.736 964.094,238.205 968.252,228.029 972.41,218.209 976.567,208.743 980.725,199.631 984.883,190.867 989.04,182.445 993.198,174.359 997.356,166.598 
  1001.51,159.151 1005.67,152.005 1009.83,145.142 1013.99,138.544 1018.14,132.188 1022.3,126.051 1026.46,120.101 1030.62,114.308 1034.77,108.632 1038.93,311.718 
  1043.09,308.497 1047.25,305.829 1051.41,303.718 1055.56,302.162 1059.72,301.159 1063.88,300.706 1068.04,300.798 1072.19,301.431 1076.35,302.599 1080.51,304.293 
  1084.67,306.507 1088.82,309.234 1092.98,312.462 1097.14,316.184 1101.3,320.39 1105.45,325.07 1109.61,330.214 1113.77,335.808 1117.93,341.841 1122.09,348.305 
  1126.24,355.189 1130.4,362.483 1134.56,370.172 1138.72,378.245 1142.87,386.691 1147.03,395.497 1151.19,404.65 1155.35,414.136 1159.5,423.944 1163.66,434.061 
  1167.82,444.473 1171.98,455.166 1176.14,466.129 1180.29,477.347 1184.45,488.808 1188.61,500.498 1192.77,512.405 1196.92,524.513 1201.08,536.81 1205.24,549.283 
  1209.4,561.915 1213.55,574.697 1217.71,587.614 1221.87,600.652 1226.03,613.796 1230.19,627.033 1234.34,640.347 1238.5,653.725 1242.66,667.155 1246.82,680.626 
  1250.97,694.121 1255.13,707.626 1259.29,721.126 1263.45,734.609 1267.6,748.061 1271.76,761.471 1275.92,774.827 1280.08,788.113 1284.23,801.318 1288.39,814.429 
  1292.55,827.434 1296.71,840.32 1300.87,853.078 1305.02,865.694 1309.18,878.158 1313.34,890.46 1317.5,902.59 1321.65,914.536 1325.81,926.29 1329.97,937.841 
  1334.13,949.181 1338.28,960.302 1342.44,971.195 1346.6,981.855 1350.76,992.273 1354.92,1002.44 1359.07,1012.36 1363.23,1022.02 1367.39,1031.41 1371.55,1040.54 
  1375.7,1049.4 1379.86,1057.98 1384.02,1066.29 1388.18,1074.33 1392.33,1082.09 1396.49,1089.57 1400.65,1096.79 1404.81,1103.74 1408.96,1110.42 1413.12,1116.85 
  1417.28,1123.02 1421.44,1128.95 1425.6,1134.65 1429.75,1140.13 1433.91,1145.39 1438.07,1150.47 1442.23,1155.36 1446.38,1160.1 1450.54,1164.69 1454.7,959.396 
  1458.86,961.498 1463.01,963.251 1467.17,964.65 1471.33,965.694 1475.49,966.381 1479.65,966.712 1483.8,966.685 1487.96,966.303 1492.12,965.566 1496.28,964.475 
  1500.43,963.035 1504.59,961.247 1508.75,959.117 1512.91,956.647 1517.06,953.842 1521.22,950.708 1525.38,947.249 1529.54,943.471 1533.69,939.381 1537.85,934.984 
  1542.01,930.286 1546.17,925.299 1550.33,920.027 1554.48,914.476 1558.64,908.654 1562.8,902.567 1566.96,896.227 1571.11,889.64 1575.27,882.814 1579.43,875.759 
  1583.59,868.483 1587.74,860.996 1591.9,853.307 1596.06,845.424 1600.22,837.358 1604.38,829.118 1608.53,820.713 1612.69,812.153 1616.85,803.447 1621.01,794.606 
  1625.16,785.638 1629.32,776.553 1633.48,767.362 1637.64,758.074 1641.79,748.699 1645.95,739.247 1650.11,729.727 1654.27,720.149 1658.43,710.524 1662.58,700.861 
  1666.74,691.17 1670.9,681.461 1675.06,671.742 1679.21,662.024 1683.37,652.317 1687.53,642.629 1691.69,632.971 1695.84,623.35 1700,613.777 1704.16,604.26 
  1708.32,594.807 1712.47,585.428 1716.63,576.13 1720.79,566.923 1724.95,557.813 1729.11,548.809 1733.26,539.919 1737.42,531.148 1741.58,522.505 1745.74,513.997 
  1749.89,505.629 1754.05,497.409 1758.21,489.341 1762.37,481.432 1766.52,473.687 1770.68,466.111 1774.84,458.708 1779,451.483 1783.16,444.439 1787.31,437.58 
  1791.47,430.908 1795.63,424.427 1799.79,418.139 1803.94,412.045 1808.1,406.146 1812.26,400.442 1816.42,394.935 1820.57,389.624 1824.73,384.507 1828.89,379.584 
  1833.05,374.852 1837.2,370.308 1841.36,365.949 1845.52,361.771 1849.68,357.769 1853.84,353.938 1857.99,350.271 1862.15,346.762 1866.31,551.962 1870.47,550.739 
  1874.62,549.67 1878.78,548.762 1882.94,548.017 1887.1,547.438 1891.25,547.025 1895.41,546.782 1899.57,546.708 1903.73,546.805 1907.89,547.072 1912.04,547.512 
  1916.2,548.124 1920.36,548.907 1924.52,549.863 1928.67,550.989 1932.83,552.284 1936.99,553.748 1941.15,555.379 1945.3,557.177 1949.46,559.138 1953.62,561.26 
  1957.78,563.543 1961.93,565.984 1966.09,568.578 1970.25,571.325 1974.41,574.22 1978.57,577.263 1982.72,580.446 1986.88,583.768 1991.04,587.226 1995.2,590.817 
  1999.35,594.533 2003.51,598.373 2007.67,602.333 2011.83,606.408 2015.98,610.592 2020.14,614.883 2024.3,619.276 2028.46,623.766 2032.62,628.346 2036.77,633.014 
  2040.93,637.765 2045.09,642.592 2049.25,647.491 2053.4,652.457 2057.56,657.487 2061.72,662.571 2065.88,667.708 2070.03,672.891 2074.19,678.115 2078.35,683.375 
  2082.51,688.665 2086.67,693.981 2090.82,699.318 2094.98,704.669 2099.14,710.029 2103.3,715.395 2107.45,720.76 2111.61,726.12 2115.77,731.469 2119.93,736.802 
  2124.08,742.114 2128.24,747.402 2132.4,752.658 2136.56,757.88 2140.71,763.062 2144.87,768.199 2149.03,773.288 2153.19,778.323 2157.35,783.301 2161.5,788.217 
  2165.66,793.067 2169.82,797.847 2173.98,802.554 2178.13,807.183 2182.29,811.731 2186.45,816.195 2190.61,820.571 2194.76,824.855 2198.92,829.046 2203.08,833.14 
  2207.24,837.133 2211.4,841.025 2215.55,844.812 2219.71,848.491 2223.87,852.061 2228.03,855.52 2232.18,858.865 2236.34,862.096 2240.5,865.21 2244.66,868.206 
  2248.81,871.083 2252.97,873.84 2257.13,876.476 2261.29,878.991 2265.44,881.383 2269.6,883.651 2273.76,885.797 2277.92,887.818 2282.08,691.907 2286.23,691.907 
  2290.39,691.907 
  "/>
<polyline clip-path="url(#clip892)" style="stroke:#c271d2; stroke-linecap:butt; stroke-linejoin:round; stroke-width:4; stroke-opacity:1; fill:none" points="
  211.556,587.758 215.714,593.143 219.871,598.099 224.029,602.647 228.187,606.81 232.344,610.611 236.502,614.074 240.66,617.221 244.817,620.075 248.975,622.657 
  253.133,624.988 257.29,627.09 261.448,628.98 265.606,630.677 269.763,632.198 273.921,633.558 278.079,634.773 282.236,635.855 286.394,636.817 290.552,637.671 
  294.709,638.427 298.867,639.096 303.025,639.685 307.182,640.203 311.34,640.657 315.498,641.054 319.655,641.4 323.813,641.701 327.971,641.962 332.128,642.186 
  336.286,642.379 340.444,642.544 344.601,642.684 348.759,642.803 352.917,642.902 357.074,642.985 361.232,643.054 365.39,643.111 369.547,643.157 373.705,643.194 
  377.863,643.223 382.02,643.247 386.178,643.265 390.336,643.278 394.493,643.289 398.651,643.296 402.809,643.302 406.966,643.305 411.124,643.308 415.282,643.309 
  419.439,643.31 423.597,643.31 427.755,643.309 431.912,643.307 436.07,643.304 440.228,643.3 444.385,643.294 448.543,643.286 452.701,643.275 456.858,643.26 
  461.016,643.241 465.174,643.216 469.331,643.185 473.489,643.145 477.647,643.097 481.804,643.037 485.962,642.964 490.12,642.877 494.277,642.772 498.435,642.648 
  502.593,642.5 506.75,642.327 510.908,642.125 515.066,641.889 519.223,641.616 523.381,641.299 527.539,640.935 531.696,640.517 535.854,640.037 540.012,639.49 
  544.17,638.865 548.327,638.155 552.485,637.348 556.643,636.434 560.8,635.399 564.958,634.229 569.116,632.909 573.273,631.42 577.431,629.744 581.589,627.857 
  585.746,625.736 589.904,623.353 594.062,620.677 598.219,617.674 602.377,614.306 606.535,610.529 610.692,606.295 614.85,601.547 619.008,596.226 623.165,590.26 
  627.323,793.28 631.481,788.984 635.638,784.972 639.796,781.234 643.954,777.759 648.111,774.536 652.269,771.552 656.427,768.795 660.584,766.252 664.742,763.911 
  668.9,761.759 673.057,759.784 677.215,757.975 681.373,756.32 685.53,754.808 689.688,753.428 693.846,752.171 698.003,751.028 702.161,749.988 706.319,749.045 
  710.476,748.191 714.634,747.417 718.792,746.717 722.949,746.085 727.107,745.515 731.265,745.002 735.422,744.541 739.58,744.126 743.738,743.754 747.895,743.421 
  752.053,743.123 756.211,742.858 760.368,742.621 764.526,742.41 768.684,742.223 772.841,742.058 776.999,741.912 781.157,741.783 785.314,741.67 789.472,741.571 
  793.63,741.485 797.787,741.411 801.945,741.347 806.103,741.293 810.26,741.248 814.418,741.21 818.576,741.181 822.733,741.158 826.891,741.142 831.049,741.132 
  835.206,741.129 839.364,741.132 843.522,741.141 847.679,741.157 851.837,741.179 855.995,741.209 860.152,741.245 864.31,741.29 868.468,741.344 872.625,741.408 
  876.783,741.482 880.941,741.568 885.098,741.666 889.256,741.779 893.414,741.908 897.571,742.055 901.729,742.221 905.887,742.408 910.044,742.62 914.202,742.859 
  918.36,743.128 922.517,743.429 926.675,743.767 930.833,744.145 934.99,744.567 939.148,745.039 943.306,745.566 947.463,746.152 951.621,746.805 955.779,747.532 
  959.936,748.339 964.094,749.235 968.252,750.229 972.41,751.331 976.567,752.553 980.725,753.905 984.883,755.402 989.04,757.057 993.198,758.887 997.356,760.909 
  1001.51,763.142 1005.67,765.608 1009.83,768.331 1013.99,771.335 1018.14,774.65 1022.3,778.308 1026.46,782.343 1030.62,786.794 1034.77,791.704 1038.93,588.434 
  1043.09,591.92 1047.25,595.234 1051.41,598.377 1055.56,601.353 1059.72,604.165 1063.88,606.818 1068.04,609.316 1072.19,611.665 1076.35,613.869 1080.51,615.936 
  1084.67,617.869 1088.82,619.677 1092.98,621.364 1097.14,622.936 1101.3,624.4 1105.45,625.762 1109.61,627.028 1113.77,628.202 1117.93,629.291 1122.09,630.3 
  1126.24,631.233 1130.4,632.095 1134.56,632.891 1138.72,633.626 1142.87,634.303 1147.03,634.927 1151.19,635.5 1155.35,636.027 1159.5,636.51 1163.66,636.954 
  1167.82,637.359 1171.98,637.73 1176.14,638.069 1180.29,638.378 1184.45,638.658 1188.61,638.913 1192.77,639.143 1196.92,639.351 1201.08,639.538 1205.24,639.704 
  1209.4,639.853 1213.55,639.983 1217.71,640.098 1221.87,640.197 1226.03,640.28 1230.19,640.35 1234.34,640.406 1238.5,640.448 1242.66,640.478 1246.82,640.495 
  1250.97,640.499 1255.13,640.491 1259.29,640.47 1263.45,640.436 1267.6,640.389 1271.76,640.328 1275.92,640.254 1280.08,640.164 1284.23,640.06 1288.39,639.939 
  1292.55,639.801 1296.71,639.645 1300.87,639.47 1305.02,639.273 1309.18,639.055 1313.34,638.812 1317.5,638.544 1321.65,638.247 1325.81,637.921 1329.97,637.561 
  1334.13,637.167 1338.28,636.734 1342.44,636.261 1346.6,635.742 1350.76,635.175 1354.92,634.556 1359.07,633.88 1363.23,633.142 1367.39,632.338 1371.55,631.461 
  1375.7,630.506 1379.86,629.466 1384.02,628.334 1388.18,627.102 1392.33,625.763 1396.49,624.307 1400.65,622.724 1404.81,621.004 1408.96,619.137 1413.12,617.109 
  1417.28,614.906 1421.44,612.516 1425.6,609.922 1429.75,607.107 1433.91,604.054 1438.07,600.742 1442.23,597.15 1446.38,593.253 1450.54,589.027 1454.7,794.27 
  1458.86,791.842 1463.01,789.494 1467.17,787.229 1471.33,785.047 1475.49,782.947 1479.65,780.931 1483.8,778.996 1487.96,777.144 1492.12,775.371 1496.28,773.678 
  1500.43,772.063 1504.59,770.525 1508.75,769.06 1512.91,767.668 1517.06,766.346 1521.22,765.093 1525.38,763.905 1529.54,762.78 1533.69,761.717 1537.85,760.713 
  1542.01,759.766 1546.17,758.873 1550.33,758.031 1554.48,757.24 1558.64,756.497 1562.8,755.799 1566.96,755.145 1571.11,754.533 1575.27,753.96 1579.43,753.426 
  1583.59,752.927 1587.74,752.464 1591.9,752.033 1596.06,751.634 1600.22,751.265 1604.38,750.925 1608.53,750.612 1612.69,750.326 1616.85,750.065 1621.01,749.829 
  1625.16,749.616 1629.32,749.426 1633.48,749.258 1637.64,749.112 1641.79,748.986 1645.95,748.88 1650.11,748.795 1654.27,748.729 1658.43,748.682 1662.58,748.655 
  1666.74,748.647 1670.9,748.658 1675.06,748.688 1679.21,748.738 1683.37,748.807 1687.53,748.897 1691.69,749.006 1695.84,749.137 1700,749.289 1704.16,749.464 
  1708.32,749.661 1712.47,749.883 1716.63,750.129 1720.79,750.401 1724.95,750.701 1729.11,751.029 1733.26,751.387 1737.42,751.777 1741.58,752.199 1745.74,752.657 
  1749.89,753.152 1754.05,753.687 1758.21,754.262 1762.37,754.882 1766.52,755.548 1770.68,756.264 1774.84,757.032 1779,757.856 1783.16,758.738 1787.31,759.684 
  1791.47,760.696 1795.63,761.778 1799.79,762.935 1803.94,764.173 1808.1,765.494 1812.26,766.906 1816.42,768.413 1820.57,770.021 1824.73,771.737 1828.89,773.567 
  1833.05,775.518 1837.2,777.598 1841.36,779.815 1845.52,782.177 1849.68,784.693 1853.84,787.372 1857.99,790.225 1862.15,793.262 1866.31,587.933 1870.47,589.251 
  1874.62,590.551 1878.78,591.832 1882.94,593.092 1887.1,594.331 1891.25,595.547 1895.41,596.739 1899.57,597.906 1903.73,599.047 1907.89,600.163 1912.04,601.251 
  1916.2,602.311 1920.36,603.343 1924.52,604.347 1928.67,605.322 1932.83,606.268 1936.99,607.184 1941.15,608.071 1945.3,608.928 1949.46,609.757 1953.62,610.555 
  1957.78,611.325 1961.93,612.065 1966.09,612.777 1970.25,613.461 1974.41,614.115 1978.57,614.742 1982.72,615.341 1986.88,615.913 1991.04,616.458 1995.2,616.976 
  1999.35,617.468 2003.51,617.934 2007.67,618.374 2011.83,618.789 2015.98,619.179 2020.14,619.545 2024.3,619.886 2028.46,620.203 2032.62,620.497 2036.77,620.767 
  2040.93,621.014 2045.09,621.239 2049.25,621.44 2053.4,621.619 2057.56,621.776 2061.72,621.911 2065.88,622.024 2070.03,622.114 2074.19,622.183 2078.35,622.229 
  2082.51,622.254 2086.67,622.257 2090.82,622.238 2094.98,622.196 2099.14,622.132 2103.3,622.045 2107.45,621.936 2111.61,621.803 2115.77,621.647 2119.93,621.468 
  2124.08,621.264 2128.24,621.035 2132.4,620.781 2136.56,620.502 2140.71,620.196 2144.87,619.864 2149.03,619.505 2153.19,619.117 2157.35,618.7 2161.5,618.254 
  2165.66,617.777 2169.82,617.269 2173.98,616.729 2178.13,616.156 2182.29,615.548 2186.45,614.905 2190.61,614.225 2194.76,613.508 2198.92,612.752 2203.08,611.955 
  2207.24,611.118 2211.4,610.237 2215.55,609.313 2219.71,608.342 2223.87,607.325 2228.03,606.258 2232.18,605.142 2236.34,603.973 2240.5,602.75 2244.66,601.473 
  2248.81,600.138 2252.97,598.744 2257.13,597.289 2261.29,595.771 2265.44,594.189 2269.6,592.54 2273.76,590.823 2277.92,589.035 2282.08,784.993 2286.23,784.993 
  2290.39,784.993 
  "/>
<path clip-path="url(#clip890)" d="
M1390.67 352.309 L2279.3 352.309 L2279.3 93.1086 L1390.67 93.1086  Z
  " fill="#ffffff" fill-rule="evenodd" fill-opacity="1"/>
<polyline clip-path="url(#clip890)" style="stroke:#000000; stroke-linecap:butt; stroke-linejoin:round; stroke-width:4; stroke-opacity:1; fill:none" points="
  1390.67,352.309 2279.3,352.309 2279.3,93.1086 1390.67,93.1086 1390.67,352.309 
  "/>
<polyline clip-path="url(#clip890)" style="stroke:#009af9; stroke-linecap:butt; stroke-linejoin:round; stroke-width:4; stroke-opacity:1; fill:none" points="
  1415.15,144.949 1562.06,144.949 
  "/>
<path clip-path="url(#clip890)" d="M1606.89 141.28 Q1608.49 138.409 1610.71 137.044 Q1612.93 135.678 1615.94 135.678 Q1619.99 135.678 1622.19 138.525 Q1624.39 141.349 1624.39 146.581 L1624.39 162.229 L1620.11 162.229 L1620.11 146.719 Q1620.11 142.993 1618.79 141.187 Q1617.47 139.382 1614.76 139.382 Q1611.45 139.382 1609.53 141.581 Q1607.61 143.78 1607.61 147.576 L1607.61 162.229 L1603.33 162.229 L1603.33 146.719 Q1603.33 142.969 1602.01 141.187 Q1600.69 139.382 1597.93 139.382 Q1594.67 139.382 1592.75 141.604 Q1590.83 143.803 1590.83 147.576 L1590.83 162.229 L1586.54 162.229 L1586.54 136.303 L1590.83 136.303 L1590.83 140.331 Q1592.28 137.946 1594.32 136.812 Q1596.36 135.678 1599.16 135.678 Q1601.98 135.678 1603.95 137.113 Q1605.94 138.548 1606.89 141.28 Z" fill="#000000" fill-rule="evenodd" fill-opacity="1" /><path clip-path="url(#clip890)" d="M1644.67 149.196 Q1639.51 149.196 1637.51 150.377 Q1635.52 151.557 1635.52 154.405 Q1635.52 156.673 1637.01 158.016 Q1638.51 159.335 1641.08 159.335 Q1644.62 159.335 1646.75 156.835 Q1648.9 154.312 1648.9 150.145 L1648.9 149.196 L1644.67 149.196 M1653.16 147.437 L1653.16 162.229 L1648.9 162.229 L1648.9 158.293 Q1647.45 160.655 1645.27 161.789 Q1643.09 162.9 1639.95 162.9 Q1635.96 162.9 1633.6 160.678 Q1631.26 158.432 1631.26 154.682 Q1631.26 150.307 1634.18 148.085 Q1637.12 145.863 1642.93 145.863 L1648.9 145.863 L1648.9 145.446 Q1648.9 142.507 1646.96 140.909 Q1645.04 139.289 1641.54 139.289 Q1639.32 139.289 1637.21 139.821 Q1635.11 140.354 1633.16 141.419 L1633.16 137.483 Q1635.5 136.581 1637.7 136.141 Q1639.9 135.678 1641.98 135.678 Q1647.61 135.678 1650.39 138.594 Q1653.16 141.511 1653.16 147.437 Z" fill="#000000" fill-rule="evenodd" fill-opacity="1" /><path clip-path="url(#clip890)" d="M1678.46 137.067 L1678.46 141.094 Q1676.66 140.169 1674.71 139.706 Q1672.77 139.243 1670.69 139.243 Q1667.51 139.243 1665.92 140.215 Q1664.34 141.187 1664.34 143.131 Q1664.34 144.613 1665.48 145.469 Q1666.61 146.303 1670.04 147.067 L1671.5 147.391 Q1676.03 148.363 1677.93 150.145 Q1679.85 151.905 1679.85 155.076 Q1679.85 158.687 1676.98 160.793 Q1674.13 162.9 1669.13 162.9 Q1667.05 162.9 1664.78 162.483 Q1662.54 162.09 1660.04 161.28 L1660.04 156.881 Q1662.4 158.108 1664.69 158.733 Q1666.98 159.335 1669.23 159.335 Q1672.24 159.335 1673.86 158.317 Q1675.48 157.275 1675.48 155.4 Q1675.48 153.664 1674.3 152.738 Q1673.14 151.812 1669.18 150.956 L1667.7 150.608 Q1663.74 149.775 1661.98 148.062 Q1660.22 146.326 1660.22 143.317 Q1660.22 139.659 1662.82 137.669 Q1665.41 135.678 1670.18 135.678 Q1672.54 135.678 1674.62 136.025 Q1676.7 136.372 1678.46 137.067 Z" fill="#000000" fill-rule="evenodd" fill-opacity="1" /><path clip-path="url(#clip890)" d="M1703.16 137.067 L1703.16 141.094 Q1701.36 140.169 1699.41 139.706 Q1697.47 139.243 1695.38 139.243 Q1692.21 139.243 1690.62 140.215 Q1689.04 141.187 1689.04 143.131 Q1689.04 144.613 1690.18 145.469 Q1691.31 146.303 1694.74 147.067 L1696.19 147.391 Q1700.73 148.363 1702.63 150.145 Q1704.55 151.905 1704.55 155.076 Q1704.55 158.687 1701.68 160.793 Q1698.83 162.9 1693.83 162.9 Q1691.75 162.9 1689.48 162.483 Q1687.24 162.09 1684.74 161.28 L1684.74 156.881 Q1687.1 158.108 1689.39 158.733 Q1691.68 159.335 1693.93 159.335 Q1696.94 159.335 1698.56 158.317 Q1700.18 157.275 1700.18 155.4 Q1700.18 153.664 1699 152.738 Q1697.84 151.812 1693.88 150.956 L1692.4 150.608 Q1688.44 149.775 1686.68 148.062 Q1684.92 146.326 1684.92 143.317 Q1684.92 139.659 1687.51 137.669 Q1690.11 135.678 1694.88 135.678 Q1697.24 135.678 1699.32 136.025 Q1701.4 136.372 1703.16 137.067 Z" fill="#000000" fill-rule="evenodd" fill-opacity="1" /><path clip-path="url(#clip890)" d="M1711.94 156.349 L1716.82 156.349 L1716.82 162.229 L1711.94 162.229 L1711.94 156.349 Z" fill="#000000" fill-rule="evenodd" fill-opacity="1" /><path clip-path="url(#clip890)" d="M1742.93 137.067 L1742.93 141.094 Q1741.13 140.169 1739.18 139.706 Q1737.24 139.243 1735.15 139.243 Q1731.98 139.243 1730.38 140.215 Q1728.81 141.187 1728.81 143.131 Q1728.81 144.613 1729.94 145.469 Q1731.08 146.303 1734.5 147.067 L1735.96 147.391 Q1740.5 148.363 1742.4 150.145 Q1744.32 151.905 1744.32 155.076 Q1744.32 158.687 1741.45 160.793 Q1738.6 162.9 1733.6 162.9 Q1731.52 162.9 1729.25 162.483 Q1727 162.09 1724.51 161.28 L1724.51 156.881 Q1726.87 158.108 1729.16 158.733 Q1731.45 159.335 1733.69 159.335 Q1736.7 159.335 1738.32 158.317 Q1739.94 157.275 1739.94 155.4 Q1739.94 153.664 1738.76 152.738 Q1737.61 151.812 1733.65 150.956 L1732.17 150.608 Q1728.21 149.775 1726.45 148.062 Q1724.69 146.326 1724.69 143.317 Q1724.69 139.659 1727.28 137.669 Q1729.88 135.678 1734.64 135.678 Q1737 135.678 1739.09 136.025 Q1741.17 136.372 1742.93 137.067 Z" fill="#000000" fill-rule="evenodd" fill-opacity="1" /><path clip-path="url(#clip890)" d="M1776.4 126.257 Q1773.3 131.581 1771.8 136.789 Q1770.29 141.997 1770.29 147.344 Q1770.29 152.692 1771.8 157.946 Q1773.32 163.178 1776.4 168.479 L1772.7 168.479 Q1769.23 163.039 1767.49 157.784 Q1765.78 152.53 1765.78 147.344 Q1765.78 142.182 1767.49 136.951 Q1769.2 131.72 1772.7 126.257 L1776.4 126.257 Z" fill="#000000" fill-rule="evenodd" fill-opacity="1" /><path clip-path="url(#clip890)" d="M1799.44 143.594 Q1802.79 144.312 1804.67 146.581 Q1806.56 148.849 1806.56 152.182 Q1806.56 157.298 1803.05 160.099 Q1799.53 162.9 1793.05 162.9 Q1790.87 162.9 1788.56 162.46 Q1786.26 162.043 1783.81 161.187 L1783.81 156.673 Q1785.75 157.807 1788.07 158.386 Q1790.38 158.965 1792.91 158.965 Q1797.31 158.965 1799.6 157.229 Q1801.91 155.493 1801.91 152.182 Q1801.91 149.127 1799.76 147.414 Q1797.63 145.678 1793.81 145.678 L1789.78 145.678 L1789.78 141.835 L1794 141.835 Q1797.44 141.835 1799.27 140.469 Q1801.1 139.081 1801.1 136.488 Q1801.1 133.826 1799.2 132.414 Q1797.33 130.979 1793.81 130.979 Q1791.89 130.979 1789.69 131.395 Q1787.49 131.812 1784.85 132.692 L1784.85 128.525 Q1787.51 127.784 1789.83 127.414 Q1792.17 127.044 1794.23 127.044 Q1799.55 127.044 1802.65 129.474 Q1805.75 131.882 1805.75 136.002 Q1805.75 138.872 1804.11 140.863 Q1802.47 142.831 1799.44 143.594 Z" fill="#000000" fill-rule="evenodd" fill-opacity="1" /><path clip-path="url(#clip890)" d="M1829.6 143.594 Q1832.95 144.312 1834.83 146.581 Q1836.73 148.849 1836.73 152.182 Q1836.73 157.298 1833.21 160.099 Q1829.69 162.9 1823.21 162.9 Q1821.03 162.9 1818.72 162.46 Q1816.43 162.043 1813.97 161.187 L1813.97 156.673 Q1815.92 157.807 1818.23 158.386 Q1820.55 158.965 1823.07 158.965 Q1827.47 158.965 1829.76 157.229 Q1832.07 155.493 1832.07 152.182 Q1832.07 149.127 1829.92 147.414 Q1827.79 145.678 1823.97 145.678 L1819.94 145.678 L1819.94 141.835 L1824.16 141.835 Q1827.61 141.835 1829.43 140.469 Q1831.26 139.081 1831.26 136.488 Q1831.26 133.826 1829.37 132.414 Q1827.49 130.979 1823.97 130.979 Q1822.05 130.979 1819.85 131.395 Q1817.65 131.812 1815.01 132.692 L1815.01 128.525 Q1817.68 127.784 1819.99 127.414 Q1822.33 127.044 1824.39 127.044 Q1829.71 127.044 1832.81 129.474 Q1835.92 131.882 1835.92 136.002 Q1835.92 138.872 1834.27 140.863 Q1832.63 142.831 1829.6 143.594 Z" fill="#000000" fill-rule="evenodd" fill-opacity="1" /><path clip-path="url(#clip890)" d="M1845.64 127.669 L1863.99 127.669 L1863.99 131.604 L1849.92 131.604 L1849.92 140.076 Q1850.94 139.729 1851.96 139.567 Q1852.98 139.382 1854 139.382 Q1859.78 139.382 1863.16 142.553 Q1866.54 145.724 1866.54 151.141 Q1866.54 156.719 1863.07 159.821 Q1859.6 162.9 1853.28 162.9 Q1851.1 162.9 1848.83 162.53 Q1846.59 162.159 1844.18 161.418 L1844.18 156.719 Q1846.26 157.854 1848.49 158.409 Q1850.71 158.965 1853.18 158.965 Q1857.19 158.965 1859.53 156.858 Q1861.87 154.752 1861.87 151.141 Q1861.87 147.53 1859.53 145.423 Q1857.19 143.317 1853.18 143.317 Q1851.31 143.317 1849.43 143.733 Q1847.58 144.15 1845.64 145.03 L1845.64 127.669 Z" fill="#000000" fill-rule="evenodd" fill-opacity="1" /><path clip-path="url(#clip890)" d="M1875.8 127.669 L1894.16 127.669 L1894.16 131.604 L1880.08 131.604 L1880.08 140.076 Q1881.1 139.729 1882.12 139.567 Q1883.14 139.382 1884.16 139.382 Q1889.94 139.382 1893.32 142.553 Q1896.7 145.724 1896.7 151.141 Q1896.7 156.719 1893.23 159.821 Q1889.76 162.9 1883.44 162.9 Q1881.26 162.9 1878.99 162.53 Q1876.75 162.159 1874.34 161.418 L1874.34 156.719 Q1876.43 157.854 1878.65 158.409 Q1880.87 158.965 1883.35 158.965 Q1887.35 158.965 1889.69 156.858 Q1892.03 154.752 1892.03 151.141 Q1892.03 147.53 1889.69 145.423 Q1887.35 143.317 1883.35 143.317 Q1881.47 143.317 1879.6 143.733 Q1877.74 144.15 1875.8 145.03 L1875.8 127.669 Z" fill="#000000" fill-rule="evenodd" fill-opacity="1" /><path clip-path="url(#clip890)" d="M1918.76 131.743 L1906.96 150.192 L1918.76 150.192 L1918.76 131.743 M1917.54 127.669 L1923.42 127.669 L1923.42 150.192 L1928.35 150.192 L1928.35 154.081 L1923.42 154.081 L1923.42 162.229 L1918.76 162.229 L1918.76 154.081 L1903.16 154.081 L1903.16 149.567 L1917.54 127.669 Z" fill="#000000" fill-rule="evenodd" fill-opacity="1" /><path clip-path="url(#clip890)" d="M1948.93 131.743 L1937.12 150.192 L1948.93 150.192 L1948.93 131.743 M1947.7 127.669 L1953.58 127.669 L1953.58 150.192 L1958.51 150.192 L1958.51 154.081 L1953.58 154.081 L1953.58 162.229 L1948.93 162.229 L1948.93 154.081 L1933.32 154.081 L1933.32 149.567 L1947.7 127.669 Z" fill="#000000" fill-rule="evenodd" fill-opacity="1" /><path clip-path="url(#clip890)" d="M1980.41 143.594 Q1983.76 144.312 1985.64 146.581 Q1987.54 148.849 1987.54 152.182 Q1987.54 157.298 1984.02 160.099 Q1980.5 162.9 1974.02 162.9 Q1971.84 162.9 1969.53 162.46 Q1967.24 162.043 1964.78 161.187 L1964.78 156.673 Q1966.73 157.807 1969.04 158.386 Q1971.36 158.965 1973.88 158.965 Q1978.28 158.965 1980.57 157.229 Q1982.88 155.493 1982.88 152.182 Q1982.88 149.127 1980.73 147.414 Q1978.6 145.678 1974.78 145.678 L1970.75 145.678 L1970.75 141.835 L1974.97 141.835 Q1978.42 141.835 1980.24 140.469 Q1982.07 139.081 1982.07 136.488 Q1982.07 133.826 1980.17 132.414 Q1978.3 130.979 1974.78 130.979 Q1972.86 130.979 1970.66 131.395 Q1968.46 131.812 1965.82 132.692 L1965.82 128.525 Q1968.49 127.784 1970.8 127.414 Q1973.14 127.044 1975.2 127.044 Q1980.52 127.044 1983.62 129.474 Q1986.73 131.882 1986.73 136.002 Q1986.73 138.872 1985.08 140.863 Q1983.44 142.831 1980.41 143.594 Z" fill="#000000" fill-rule="evenodd" fill-opacity="1" /><path clip-path="url(#clip890)" d="M2000.43 158.293 L2016.75 158.293 L2016.75 162.229 L1994.8 162.229 L1994.8 158.293 Q1997.47 155.539 2002.05 150.909 Q2006.66 146.256 2007.84 144.914 Q2010.08 142.391 2010.96 140.655 Q2011.86 138.895 2011.86 137.206 Q2011.86 134.451 2009.92 132.715 Q2008 130.979 2004.9 130.979 Q2002.7 130.979 2000.24 131.743 Q1997.81 132.507 1995.04 134.057 L1995.04 129.335 Q1997.86 128.201 2000.31 127.622 Q2002.77 127.044 2004.8 127.044 Q2010.17 127.044 2013.37 129.729 Q2016.56 132.414 2016.56 136.905 Q2016.56 139.034 2015.75 140.956 Q2014.97 142.854 2012.86 145.446 Q2012.28 146.118 2009.18 149.335 Q2006.08 152.53 2000.43 158.293 Z" fill="#000000" fill-rule="evenodd" fill-opacity="1" /><path clip-path="url(#clip890)" d="M2025.29 126.257 L2028.99 126.257 Q2032.47 131.72 2034.18 136.951 Q2035.92 142.182 2035.92 147.344 Q2035.92 152.53 2034.18 157.784 Q2032.47 163.039 2028.99 168.479 L2025.29 168.479 Q2028.37 163.178 2029.87 157.946 Q2031.4 152.692 2031.4 147.344 Q2031.4 141.997 2029.87 136.789 Q2028.37 131.581 2025.29 126.257 Z" fill="#000000" fill-rule="evenodd" fill-opacity="1" /><polyline clip-path="url(#clip890)" style="stroke:#e26f46; stroke-linecap:butt; stroke-linejoin:round; stroke-width:4; stroke-opacity:1; fill:none" points="
  1415.15,196.789 1562.06,196.789 
  "/>
<path clip-path="url(#clip890)" d="M1606.89 193.12 Q1608.49 190.249 1610.71 188.884 Q1612.93 187.518 1615.94 187.518 Q1619.99 187.518 1622.19 190.365 Q1624.39 193.189 1624.39 198.421 L1624.39 214.069 L1620.11 214.069 L1620.11 198.559 Q1620.11 194.833 1618.79 193.027 Q1617.47 191.222 1614.76 191.222 Q1611.45 191.222 1609.53 193.421 Q1607.61 195.62 1607.61 199.416 L1607.61 214.069 L1603.33 214.069 L1603.33 198.559 Q1603.33 194.809 1602.01 193.027 Q1600.69 191.222 1597.93 191.222 Q1594.67 191.222 1592.75 193.444 Q1590.83 195.643 1590.83 199.416 L1590.83 214.069 L1586.54 214.069 L1586.54 188.143 L1590.83 188.143 L1590.83 192.171 Q1592.28 189.786 1594.32 188.652 Q1596.36 187.518 1599.16 187.518 Q1601.98 187.518 1603.95 188.953 Q1605.94 190.388 1606.89 193.12 Z" fill="#000000" fill-rule="evenodd" fill-opacity="1" /><path clip-path="url(#clip890)" d="M1644.67 201.036 Q1639.51 201.036 1637.51 202.217 Q1635.52 203.397 1635.52 206.245 Q1635.52 208.513 1637.01 209.856 Q1638.51 211.175 1641.08 211.175 Q1644.62 211.175 1646.75 208.675 Q1648.9 206.152 1648.9 201.985 L1648.9 201.036 L1644.67 201.036 M1653.16 199.277 L1653.16 214.069 L1648.9 214.069 L1648.9 210.133 Q1647.45 212.495 1645.27 213.629 Q1643.09 214.74 1639.95 214.74 Q1635.96 214.74 1633.6 212.518 Q1631.26 210.272 1631.26 206.522 Q1631.26 202.147 1634.18 199.925 Q1637.12 197.703 1642.93 197.703 L1648.9 197.703 L1648.9 197.286 Q1648.9 194.347 1646.96 192.749 Q1645.04 191.129 1641.54 191.129 Q1639.32 191.129 1637.21 191.661 Q1635.11 192.194 1633.16 193.259 L1633.16 189.323 Q1635.5 188.421 1637.7 187.981 Q1639.9 187.518 1641.98 187.518 Q1647.61 187.518 1650.39 190.434 Q1653.16 193.351 1653.16 199.277 Z" fill="#000000" fill-rule="evenodd" fill-opacity="1" /><path clip-path="url(#clip890)" d="M1678.46 188.907 L1678.46 192.934 Q1676.66 192.009 1674.71 191.546 Q1672.77 191.083 1670.69 191.083 Q1667.51 191.083 1665.92 192.055 Q1664.34 193.027 1664.34 194.971 Q1664.34 196.453 1665.48 197.309 Q1666.61 198.143 1670.04 198.907 L1671.5 199.231 Q1676.03 200.203 1677.93 201.985 Q1679.85 203.745 1679.85 206.916 Q1679.85 210.527 1676.98 212.633 Q1674.13 214.74 1669.13 214.74 Q1667.05 214.74 1664.78 214.323 Q1662.54 213.93 1660.04 213.12 L1660.04 208.721 Q1662.4 209.948 1664.69 210.573 Q1666.98 211.175 1669.23 211.175 Q1672.24 211.175 1673.86 210.157 Q1675.48 209.115 1675.48 207.24 Q1675.48 205.504 1674.3 204.578 Q1673.14 203.652 1669.18 202.796 L1667.7 202.448 Q1663.74 201.615 1661.98 199.902 Q1660.22 198.166 1660.22 195.157 Q1660.22 191.499 1662.82 189.509 Q1665.41 187.518 1670.18 187.518 Q1672.54 187.518 1674.62 187.865 Q1676.7 188.212 1678.46 188.907 Z" fill="#000000" fill-rule="evenodd" fill-opacity="1" /><path clip-path="url(#clip890)" d="M1703.16 188.907 L1703.16 192.934 Q1701.36 192.009 1699.41 191.546 Q1697.47 191.083 1695.38 191.083 Q1692.21 191.083 1690.62 192.055 Q1689.04 193.027 1689.04 194.971 Q1689.04 196.453 1690.18 197.309 Q1691.31 198.143 1694.74 198.907 L1696.19 199.231 Q1700.73 200.203 1702.63 201.985 Q1704.55 203.745 1704.55 206.916 Q1704.55 210.527 1701.68 212.633 Q1698.83 214.74 1693.83 214.74 Q1691.75 214.74 1689.48 214.323 Q1687.24 213.93 1684.74 213.12 L1684.74 208.721 Q1687.1 209.948 1689.39 210.573 Q1691.68 211.175 1693.93 211.175 Q1696.94 211.175 1698.56 210.157 Q1700.18 209.115 1700.18 207.24 Q1700.18 205.504 1699 204.578 Q1697.84 203.652 1693.88 202.796 L1692.4 202.448 Q1688.44 201.615 1686.68 199.902 Q1684.92 198.166 1684.92 195.157 Q1684.92 191.499 1687.51 189.509 Q1690.11 187.518 1694.88 187.518 Q1697.24 187.518 1699.32 187.865 Q1701.4 188.212 1703.16 188.907 Z" fill="#000000" fill-rule="evenodd" fill-opacity="1" /><path clip-path="url(#clip890)" d="M1711.94 208.189 L1716.82 208.189 L1716.82 214.069 L1711.94 214.069 L1711.94 208.189 Z" fill="#000000" fill-rule="evenodd" fill-opacity="1" /><path clip-path="url(#clip890)" d="M1723.35 188.143 L1727.86 188.143 L1735.96 209.902 L1744.07 188.143 L1748.58 188.143 L1738.86 214.069 L1733.07 214.069 L1723.35 188.143 Z" fill="#000000" fill-rule="evenodd" fill-opacity="1" /><path clip-path="url(#clip890)" d="M1779.76 178.097 Q1776.66 183.421 1775.15 188.629 Q1773.65 193.837 1773.65 199.184 Q1773.65 204.532 1775.15 209.786 Q1776.68 215.018 1779.76 220.319 L1776.06 220.319 Q1772.58 214.879 1770.85 209.624 Q1769.13 204.37 1769.13 199.184 Q1769.13 194.022 1770.85 188.791 Q1772.56 183.56 1776.06 178.097 L1779.76 178.097 Z" fill="#000000" fill-rule="evenodd" fill-opacity="1" /><path clip-path="url(#clip890)" d="M1802.79 195.434 Q1806.15 196.152 1808.02 198.421 Q1809.92 200.689 1809.92 204.022 Q1809.92 209.138 1806.4 211.939 Q1802.88 214.74 1796.4 214.74 Q1794.23 214.74 1791.91 214.3 Q1789.62 213.883 1787.17 213.027 L1787.17 208.513 Q1789.11 209.647 1791.43 210.226 Q1793.74 210.805 1796.26 210.805 Q1800.66 210.805 1802.95 209.069 Q1805.27 207.333 1805.27 204.022 Q1805.27 200.967 1803.12 199.254 Q1800.99 197.518 1797.17 197.518 L1793.14 197.518 L1793.14 193.675 L1797.35 193.675 Q1800.8 193.675 1802.63 192.309 Q1804.46 190.921 1804.46 188.328 Q1804.46 185.666 1802.56 184.254 Q1800.69 182.819 1797.17 182.819 Q1795.25 182.819 1793.05 183.235 Q1790.85 183.652 1788.21 184.532 L1788.21 180.365 Q1790.87 179.624 1793.19 179.254 Q1795.52 178.884 1797.58 178.884 Q1802.91 178.884 1806.01 181.314 Q1809.11 183.722 1809.11 187.842 Q1809.11 190.712 1807.47 192.703 Q1805.82 194.671 1802.79 195.434 Z" fill="#000000" fill-rule="evenodd" fill-opacity="1" /><path clip-path="url(#clip890)" d="M1832.95 195.434 Q1836.31 196.152 1838.18 198.421 Q1840.08 200.689 1840.08 204.022 Q1840.08 209.138 1836.56 211.939 Q1833.05 214.74 1826.56 214.74 Q1824.39 214.74 1822.07 214.3 Q1819.78 213.883 1817.33 213.027 L1817.33 208.513 Q1819.27 209.647 1821.59 210.226 Q1823.9 210.805 1826.43 210.805 Q1830.82 210.805 1833.12 209.069 Q1835.43 207.333 1835.43 204.022 Q1835.43 200.967 1833.28 199.254 Q1831.15 197.518 1827.33 197.518 L1823.3 197.518 L1823.3 193.675 L1827.51 193.675 Q1830.96 193.675 1832.79 192.309 Q1834.62 190.921 1834.62 188.328 Q1834.62 185.666 1832.72 184.254 Q1830.85 182.819 1827.33 182.819 Q1825.41 182.819 1823.21 183.235 Q1821.01 183.652 1818.37 184.532 L1818.37 180.365 Q1821.03 179.624 1823.35 179.254 Q1825.69 178.884 1827.75 178.884 Q1833.07 178.884 1836.17 181.314 Q1839.27 183.722 1839.27 187.842 Q1839.27 190.712 1837.63 192.703 Q1835.99 194.671 1832.95 195.434 Z" fill="#000000" fill-rule="evenodd" fill-opacity="1" /><path clip-path="url(#clip890)" d="M1849 179.509 L1867.35 179.509 L1867.35 183.444 L1853.28 183.444 L1853.28 191.916 Q1854.3 191.569 1855.31 191.407 Q1856.33 191.222 1857.35 191.222 Q1863.14 191.222 1866.52 194.393 Q1869.9 197.564 1869.9 202.981 Q1869.9 208.559 1866.43 211.661 Q1862.95 214.74 1856.63 214.74 Q1854.46 214.74 1852.19 214.37 Q1849.94 213.999 1847.54 213.258 L1847.54 208.559 Q1849.62 209.694 1851.84 210.249 Q1854.06 210.805 1856.54 210.805 Q1860.55 210.805 1862.88 208.698 Q1865.22 206.592 1865.22 202.981 Q1865.22 199.37 1862.88 197.263 Q1860.55 195.157 1856.54 195.157 Q1854.67 195.157 1852.79 195.573 Q1850.94 195.99 1849 196.87 L1849 179.509 Z" fill="#000000" fill-rule="evenodd" fill-opacity="1" /><path clip-path="url(#clip890)" d="M1879.16 179.509 L1897.51 179.509 L1897.51 183.444 L1883.44 183.444 L1883.44 191.916 Q1884.46 191.569 1885.48 191.407 Q1886.49 191.222 1887.51 191.222 Q1893.3 191.222 1896.68 194.393 Q1900.06 197.564 1900.06 202.981 Q1900.06 208.559 1896.59 211.661 Q1893.12 214.74 1886.8 214.74 Q1884.62 214.74 1882.35 214.37 Q1880.11 213.999 1877.7 213.258 L1877.7 208.559 Q1879.78 209.694 1882 210.249 Q1884.23 210.805 1886.7 210.805 Q1890.71 210.805 1893.05 208.698 Q1895.38 206.592 1895.38 202.981 Q1895.38 199.37 1893.05 197.263 Q1890.71 195.157 1886.7 195.157 Q1884.83 195.157 1882.95 195.573 Q1881.1 195.99 1879.16 196.87 L1879.16 179.509 Z" fill="#000000" fill-rule="evenodd" fill-opacity="1" /><path clip-path="url(#clip890)" d="M1922.12 183.583 L1910.31 202.032 L1922.12 202.032 L1922.12 183.583 M1920.89 179.509 L1926.77 179.509 L1926.77 202.032 L1931.7 202.032 L1931.7 205.921 L1926.77 205.921 L1926.77 214.069 L1922.12 214.069 L1922.12 205.921 L1906.52 205.921 L1906.52 201.407 L1920.89 179.509 Z" fill="#000000" fill-rule="evenodd" fill-opacity="1" /><path clip-path="url(#clip890)" d="M1952.28 183.583 L1940.48 202.032 L1952.28 202.032 L1952.28 183.583 M1951.05 179.509 L1956.93 179.509 L1956.93 202.032 L1961.86 202.032 L1961.86 205.921 L1956.93 205.921 L1956.93 214.069 L1952.28 214.069 L1952.28 205.921 L1936.68 205.921 L1936.68 201.407 L1951.05 179.509 Z" fill="#000000" fill-rule="evenodd" fill-opacity="1" /><path clip-path="url(#clip890)" d="M1983.76 195.434 Q1987.12 196.152 1988.99 198.421 Q1990.89 200.689 1990.89 204.022 Q1990.89 209.138 1987.37 211.939 Q1983.86 214.74 1977.37 214.74 Q1975.2 214.74 1972.88 214.3 Q1970.59 213.883 1968.14 213.027 L1968.14 208.513 Q1970.08 209.647 1972.4 210.226 Q1974.71 210.805 1977.24 210.805 Q1981.63 210.805 1983.92 209.069 Q1986.24 207.333 1986.24 204.022 Q1986.24 200.967 1984.09 199.254 Q1981.96 197.518 1978.14 197.518 L1974.11 197.518 L1974.11 193.675 L1978.32 193.675 Q1981.77 193.675 1983.6 192.309 Q1985.43 190.921 1985.43 188.328 Q1985.43 185.666 1983.53 184.254 Q1981.66 182.819 1978.14 182.819 Q1976.22 182.819 1974.02 183.235 Q1971.82 183.652 1969.18 184.532 L1969.18 180.365 Q1971.84 179.624 1974.16 179.254 Q1976.49 178.884 1978.55 178.884 Q1983.88 178.884 1986.98 181.314 Q1990.08 183.722 1990.08 187.842 Q1990.08 190.712 1988.44 192.703 Q1986.8 194.671 1983.76 195.434 Z" fill="#000000" fill-rule="evenodd" fill-opacity="1" /><path clip-path="url(#clip890)" d="M2013.92 195.434 Q2017.28 196.152 2019.16 198.421 Q2021.05 200.689 2021.05 204.022 Q2021.05 209.138 2017.54 211.939 Q2014.02 214.74 2007.54 214.74 Q2005.36 214.74 2003.05 214.3 Q2000.75 213.883 1998.3 213.027 L1998.3 208.513 Q2000.24 209.647 2002.56 210.226 Q2004.87 210.805 2007.4 210.805 Q2011.8 210.805 2014.09 209.069 Q2016.4 207.333 2016.4 204.022 Q2016.4 200.967 2014.25 199.254 Q2012.12 197.518 2008.3 197.518 L2004.27 197.518 L2004.27 193.675 L2008.48 193.675 Q2011.93 193.675 2013.76 192.309 Q2015.59 190.921 2015.59 188.328 Q2015.59 185.666 2013.69 184.254 Q2011.82 182.819 2008.3 182.819 Q2006.38 182.819 2004.18 183.235 Q2001.98 183.652 1999.34 184.532 L1999.34 180.365 Q2002 179.624 2004.32 179.254 Q2006.66 178.884 2008.72 178.884 Q2014.04 178.884 2017.14 181.314 Q2020.24 183.722 2020.24 187.842 Q2020.24 190.712 2018.6 192.703 Q2016.96 194.671 2013.92 195.434 Z" fill="#000000" fill-rule="evenodd" fill-opacity="1" /><path clip-path="url(#clip890)" d="M2028.65 178.097 L2032.35 178.097 Q2035.82 183.56 2037.54 188.791 Q2039.27 194.022 2039.27 199.184 Q2039.27 204.37 2037.54 209.624 Q2035.82 214.879 2032.35 220.319 L2028.65 220.319 Q2031.73 215.018 2033.23 209.786 Q2034.76 204.532 2034.76 199.184 Q2034.76 193.837 2033.23 188.629 Q2031.73 183.421 2028.65 178.097 Z" fill="#000000" fill-rule="evenodd" fill-opacity="1" /><polyline clip-path="url(#clip890)" style="stroke:#3da44d; stroke-linecap:butt; stroke-linejoin:round; stroke-width:4; stroke-opacity:1; fill:none" points="
  1415.15,248.629 1562.06,248.629 
  "/>
<path clip-path="url(#clip890)" d="M1606.89 244.96 Q1608.49 242.089 1610.71 240.724 Q1612.93 239.358 1615.94 239.358 Q1619.99 239.358 1622.19 242.205 Q1624.39 245.029 1624.39 250.261 L1624.39 265.909 L1620.11 265.909 L1620.11 250.399 Q1620.11 246.673 1618.79 244.867 Q1617.47 243.062 1614.76 243.062 Q1611.45 243.062 1609.53 245.261 Q1607.61 247.46 1607.61 251.256 L1607.61 265.909 L1603.33 265.909 L1603.33 250.399 Q1603.33 246.649 1602.01 244.867 Q1600.69 243.062 1597.93 243.062 Q1594.67 243.062 1592.75 245.284 Q1590.83 247.483 1590.83 251.256 L1590.83 265.909 L1586.54 265.909 L1586.54 239.983 L1590.83 239.983 L1590.83 244.011 Q1592.28 241.626 1594.32 240.492 Q1596.36 239.358 1599.16 239.358 Q1601.98 239.358 1603.95 240.793 Q1605.94 242.228 1606.89 244.96 Z" fill="#000000" fill-rule="evenodd" fill-opacity="1" /><path clip-path="url(#clip890)" d="M1644.67 252.876 Q1639.51 252.876 1637.51 254.057 Q1635.52 255.237 1635.52 258.085 Q1635.52 260.353 1637.01 261.696 Q1638.51 263.015 1641.08 263.015 Q1644.62 263.015 1646.75 260.515 Q1648.9 257.992 1648.9 253.825 L1648.9 252.876 L1644.67 252.876 M1653.16 251.117 L1653.16 265.909 L1648.9 265.909 L1648.9 261.973 Q1647.45 264.335 1645.27 265.469 Q1643.09 266.58 1639.95 266.58 Q1635.96 266.58 1633.6 264.358 Q1631.26 262.112 1631.26 258.362 Q1631.26 253.987 1634.18 251.765 Q1637.12 249.543 1642.93 249.543 L1648.9 249.543 L1648.9 249.126 Q1648.9 246.187 1646.96 244.589 Q1645.04 242.969 1641.54 242.969 Q1639.32 242.969 1637.21 243.501 Q1635.11 244.034 1633.16 245.099 L1633.16 241.163 Q1635.5 240.261 1637.7 239.821 Q1639.9 239.358 1641.98 239.358 Q1647.61 239.358 1650.39 242.274 Q1653.16 245.191 1653.16 251.117 Z" fill="#000000" fill-rule="evenodd" fill-opacity="1" /><path clip-path="url(#clip890)" d="M1678.46 240.747 L1678.46 244.774 Q1676.66 243.849 1674.71 243.386 Q1672.77 242.923 1670.69 242.923 Q1667.51 242.923 1665.92 243.895 Q1664.34 244.867 1664.34 246.811 Q1664.34 248.293 1665.48 249.149 Q1666.61 249.983 1670.04 250.747 L1671.5 251.071 Q1676.03 252.043 1677.93 253.825 Q1679.85 255.585 1679.85 258.756 Q1679.85 262.367 1676.98 264.473 Q1674.13 266.58 1669.13 266.58 Q1667.05 266.58 1664.78 266.163 Q1662.54 265.77 1660.04 264.96 L1660.04 260.561 Q1662.4 261.788 1664.69 262.413 Q1666.98 263.015 1669.23 263.015 Q1672.24 263.015 1673.86 261.997 Q1675.48 260.955 1675.48 259.08 Q1675.48 257.344 1674.3 256.418 Q1673.14 255.492 1669.18 254.636 L1667.7 254.288 Q1663.74 253.455 1661.98 251.742 Q1660.22 250.006 1660.22 246.997 Q1660.22 243.339 1662.82 241.349 Q1665.41 239.358 1670.18 239.358 Q1672.54 239.358 1674.62 239.705 Q1676.7 240.052 1678.46 240.747 Z" fill="#000000" fill-rule="evenodd" fill-opacity="1" /><path clip-path="url(#clip890)" d="M1703.16 240.747 L1703.16 244.774 Q1701.36 243.849 1699.41 243.386 Q1697.47 242.923 1695.38 242.923 Q1692.21 242.923 1690.62 243.895 Q1689.04 244.867 1689.04 246.811 Q1689.04 248.293 1690.18 249.149 Q1691.31 249.983 1694.74 250.747 L1696.19 251.071 Q1700.73 252.043 1702.63 253.825 Q1704.55 255.585 1704.55 258.756 Q1704.55 262.367 1701.68 264.473 Q1698.83 266.58 1693.83 266.58 Q1691.75 266.58 1689.48 266.163 Q1687.24 265.77 1684.74 264.96 L1684.74 260.561 Q1687.1 261.788 1689.39 262.413 Q1691.68 263.015 1693.93 263.015 Q1696.94 263.015 1698.56 261.997 Q1700.18 260.955 1700.18 259.08 Q1700.18 257.344 1699 256.418 Q1697.84 255.492 1693.88 254.636 L1692.4 254.288 Q1688.44 253.455 1686.68 251.742 Q1684.92 250.006 1684.92 246.997 Q1684.92 243.339 1687.51 241.349 Q1690.11 239.358 1694.88 239.358 Q1697.24 239.358 1699.32 239.705 Q1701.4 240.052 1703.16 240.747 Z" fill="#000000" fill-rule="evenodd" fill-opacity="1" /><path clip-path="url(#clip890)" d="M1711.94 260.029 L1716.82 260.029 L1716.82 265.909 L1711.94 265.909 L1711.94 260.029 Z" fill="#000000" fill-rule="evenodd" fill-opacity="1" /><path clip-path="url(#clip890)" d="M1738.19 252.876 Q1733.02 252.876 1731.03 254.057 Q1729.04 255.237 1729.04 258.085 Q1729.04 260.353 1730.52 261.696 Q1732.03 263.015 1734.6 263.015 Q1738.14 263.015 1740.27 260.515 Q1742.42 257.992 1742.42 253.825 L1742.42 252.876 L1738.19 252.876 M1746.68 251.117 L1746.68 265.909 L1742.42 265.909 L1742.42 261.973 Q1740.96 264.335 1738.79 265.469 Q1736.61 266.58 1733.46 266.58 Q1729.48 266.58 1727.12 264.358 Q1724.78 262.112 1724.78 258.362 Q1724.78 253.987 1727.7 251.765 Q1730.64 249.543 1736.45 249.543 L1742.42 249.543 L1742.42 249.126 Q1742.42 246.187 1740.48 244.589 Q1738.56 242.969 1735.06 242.969 Q1732.84 242.969 1730.73 243.501 Q1728.63 244.034 1726.68 245.099 L1726.68 241.163 Q1729.02 240.261 1731.22 239.821 Q1733.42 239.358 1735.5 239.358 Q1741.13 239.358 1743.9 242.274 Q1746.68 245.191 1746.68 251.117 Z" fill="#000000" fill-rule="evenodd" fill-opacity="1" /><path clip-path="url(#clip890)" d="M1775.15 273.779 L1775.15 277.089 L1750.52 277.089 L1750.52 273.779 L1775.15 273.779 Z" fill="#000000" fill-rule="evenodd" fill-opacity="1" /><path clip-path="url(#clip890)" d="M1794.18 243.964 Q1793.46 243.548 1792.61 243.362 Q1791.77 243.154 1790.75 243.154 Q1787.14 243.154 1785.2 245.515 Q1783.28 247.853 1783.28 252.251 L1783.28 265.909 L1779 265.909 L1779 239.983 L1783.28 239.983 L1783.28 244.011 Q1784.62 241.649 1786.77 240.515 Q1788.93 239.358 1792 239.358 Q1792.44 239.358 1792.98 239.427 Q1793.51 239.474 1794.16 239.589 L1794.18 243.964 Z" fill="#000000" fill-rule="evenodd" fill-opacity="1" /><path clip-path="url(#clip890)" d="M1819.78 251.881 L1819.78 253.964 L1800.2 253.964 Q1800.48 258.362 1802.84 260.677 Q1805.22 262.969 1809.46 262.969 Q1811.91 262.969 1814.2 262.367 Q1816.52 261.765 1818.79 260.561 L1818.79 264.589 Q1816.5 265.561 1814.09 266.071 Q1811.68 266.58 1809.2 266.58 Q1803 266.58 1799.37 262.969 Q1795.75 259.358 1795.75 253.2 Q1795.75 246.835 1799.18 243.108 Q1802.63 239.358 1808.46 239.358 Q1813.69 239.358 1816.73 242.737 Q1819.78 246.094 1819.78 251.881 M1815.52 250.631 Q1815.48 247.136 1813.56 245.052 Q1811.66 242.969 1808.51 242.969 Q1804.94 242.969 1802.79 244.983 Q1800.66 246.997 1800.34 250.654 L1815.52 250.631 Z" fill="#000000" fill-rule="evenodd" fill-opacity="1" /><path clip-path="url(#clip890)" d="M1826.77 229.89 L1831.03 229.89 L1831.03 265.909 L1826.77 265.909 L1826.77 229.89 Z" fill="#000000" fill-rule="evenodd" fill-opacity="1" /><path clip-path="url(#clip890)" d="M1853.07 229.89 L1853.07 233.432 L1849 233.432 Q1846.7 233.432 1845.8 234.358 Q1844.92 235.284 1844.92 237.691 L1844.92 239.983 L1851.93 239.983 L1851.93 243.293 L1844.92 243.293 L1844.92 265.909 L1840.64 265.909 L1840.64 243.293 L1836.56 243.293 L1836.56 239.983 L1840.64 239.983 L1840.64 238.177 Q1840.64 233.849 1842.65 231.881 Q1844.67 229.89 1849.04 229.89 L1853.07 229.89 Z" fill="#000000" fill-rule="evenodd" fill-opacity="1" /><path clip-path="url(#clip890)" d="M1871.66 243.964 Q1870.94 243.548 1870.08 243.362 Q1869.25 243.154 1868.23 243.154 Q1864.62 243.154 1862.68 245.515 Q1860.75 247.853 1860.75 252.251 L1860.75 265.909 L1856.47 265.909 L1856.47 239.983 L1860.75 239.983 L1860.75 244.011 Q1862.1 241.649 1864.25 240.515 Q1866.4 239.358 1869.48 239.358 Q1869.92 239.358 1870.45 239.427 Q1870.99 239.474 1871.63 239.589 L1871.66 243.964 Z" fill="#000000" fill-rule="evenodd" fill-opacity="1" /><path clip-path="url(#clip890)" d="M1876.12 239.983 L1880.38 239.983 L1880.38 265.909 L1876.12 265.909 L1876.12 239.983 M1876.12 229.89 L1880.38 229.89 L1880.38 235.284 L1876.12 235.284 L1876.12 229.89 Z" fill="#000000" fill-rule="evenodd" fill-opacity="1" /><path clip-path="url(#clip890)" d="M1907.95 240.978 L1907.95 244.96 Q1906.15 243.964 1904.32 243.478 Q1902.51 242.969 1900.66 242.969 Q1896.52 242.969 1894.23 245.608 Q1891.93 248.224 1891.93 252.969 Q1891.93 257.714 1894.23 260.353 Q1896.52 262.969 1900.66 262.969 Q1902.51 262.969 1904.32 262.483 Q1906.15 261.973 1907.95 260.978 L1907.95 264.913 Q1906.17 265.747 1904.25 266.163 Q1902.35 266.58 1900.2 266.58 Q1894.34 266.58 1890.89 262.899 Q1887.44 259.219 1887.44 252.969 Q1887.44 246.626 1890.92 242.992 Q1894.41 239.358 1900.48 239.358 Q1902.44 239.358 1904.32 239.775 Q1906.19 240.168 1907.95 240.978 Z" fill="#000000" fill-rule="evenodd" fill-opacity="1" /><path clip-path="url(#clip890)" d="M1940.66 229.937 Q1937.56 235.261 1936.05 240.469 Q1934.55 245.677 1934.55 251.024 Q1934.55 256.372 1936.05 261.626 Q1937.58 266.858 1940.66 272.159 L1936.96 272.159 Q1933.49 266.719 1931.75 261.464 Q1930.04 256.21 1930.04 251.024 Q1930.04 245.862 1931.75 240.631 Q1933.46 235.4 1936.96 229.937 L1940.66 229.937 Z" fill="#000000" fill-rule="evenodd" fill-opacity="1" /><path clip-path="url(#clip890)" d="M1949.57 231.349 L1967.93 231.349 L1967.93 235.284 L1953.86 235.284 L1953.86 243.756 Q1954.87 243.409 1955.89 243.247 Q1956.91 243.062 1957.93 243.062 Q1963.72 243.062 1967.1 246.233 Q1970.48 249.404 1970.48 254.821 Q1970.48 260.399 1967 263.501 Q1963.53 266.58 1957.21 266.58 Q1955.04 266.58 1952.77 266.21 Q1950.52 265.839 1948.11 265.098 L1948.11 260.399 Q1950.2 261.534 1952.42 262.089 Q1954.64 262.645 1957.12 262.645 Q1961.12 262.645 1963.46 260.538 Q1965.8 258.432 1965.8 254.821 Q1965.8 251.21 1963.46 249.103 Q1961.12 246.997 1957.12 246.997 Q1955.24 246.997 1953.37 247.413 Q1951.52 247.83 1949.57 248.71 L1949.57 231.349 Z" fill="#000000" fill-rule="evenodd" fill-opacity="1" /><path clip-path="url(#clip890)" d="M1989.69 249.497 Q1986.36 249.497 1984.43 251.279 Q1982.54 253.061 1982.54 256.186 Q1982.54 259.311 1984.43 261.094 Q1986.36 262.876 1989.69 262.876 Q1993.02 262.876 1994.94 261.094 Q1996.86 259.288 1996.86 256.186 Q1996.86 253.061 1994.94 251.279 Q1993.05 249.497 1989.69 249.497 M1985.01 247.506 Q1982 246.765 1980.31 244.705 Q1978.65 242.645 1978.65 239.682 Q1978.65 235.538 1981.59 233.131 Q1984.55 230.724 1989.69 230.724 Q1994.85 230.724 1997.79 233.131 Q2000.73 235.538 2000.73 239.682 Q2000.73 242.645 1999.04 244.705 Q1997.37 246.765 1994.39 247.506 Q1997.77 248.293 1999.64 250.585 Q2001.54 252.876 2001.54 256.186 Q2001.54 261.21 1998.46 263.895 Q1995.41 266.58 1989.69 266.58 Q1983.97 266.58 1980.89 263.895 Q1977.84 261.21 1977.84 256.186 Q1977.84 252.876 1979.74 250.585 Q1981.63 248.293 1985.01 247.506 M1983.3 240.122 Q1983.3 242.807 1984.97 244.312 Q1986.66 245.816 1989.69 245.816 Q1992.7 245.816 1994.39 244.312 Q1996.1 242.807 1996.1 240.122 Q1996.1 237.437 1994.39 235.932 Q1992.7 234.427 1989.69 234.427 Q1986.66 234.427 1984.97 235.932 Q1983.3 237.437 1983.3 240.122 Z" fill="#000000" fill-rule="evenodd" fill-opacity="1" /><path clip-path="url(#clip890)" d="M2008.67 231.349 L2030.89 231.349 L2030.89 233.339 L2018.35 265.909 L2013.46 265.909 L2025.27 235.284 L2008.67 235.284 L2008.67 231.349 Z" fill="#000000" fill-rule="evenodd" fill-opacity="1" /><path clip-path="url(#clip890)" d="M2044.04 261.973 L2060.36 261.973 L2060.36 265.909 L2038.42 265.909 L2038.42 261.973 Q2041.08 259.219 2045.66 254.589 Q2050.27 249.936 2051.45 248.594 Q2053.69 246.071 2054.57 244.335 Q2055.48 242.575 2055.48 240.886 Q2055.48 238.131 2053.53 236.395 Q2051.61 234.659 2048.51 234.659 Q2046.31 234.659 2043.86 235.423 Q2041.42 236.187 2038.65 237.737 L2038.65 233.015 Q2041.47 231.881 2043.92 231.302 Q2046.38 230.724 2048.42 230.724 Q2053.79 230.724 2056.98 233.409 Q2060.17 236.094 2060.17 240.585 Q2060.17 242.714 2059.36 244.636 Q2058.58 246.534 2056.47 249.126 Q2055.89 249.798 2052.79 253.015 Q2049.69 256.21 2044.04 261.973 Z" fill="#000000" fill-rule="evenodd" fill-opacity="1" /><path clip-path="url(#clip890)" d="M2080.17 234.427 Q2076.56 234.427 2074.73 237.992 Q2072.93 241.534 2072.93 248.663 Q2072.93 255.77 2074.73 259.335 Q2076.56 262.876 2080.17 262.876 Q2083.81 262.876 2085.61 259.335 Q2087.44 255.77 2087.44 248.663 Q2087.44 241.534 2085.61 237.992 Q2083.81 234.427 2080.17 234.427 M2080.17 230.724 Q2085.98 230.724 2089.04 235.33 Q2092.12 239.913 2092.12 248.663 Q2092.12 257.39 2089.04 261.997 Q2085.98 266.58 2080.17 266.58 Q2074.36 266.58 2071.29 261.997 Q2068.23 257.39 2068.23 248.663 Q2068.23 239.913 2071.29 235.33 Q2074.36 230.724 2080.17 230.724 Z" fill="#000000" fill-rule="evenodd" fill-opacity="1" /><path clip-path="url(#clip890)" d="M2104.36 261.973 L2120.68 261.973 L2120.68 265.909 L2098.74 265.909 L2098.74 261.973 Q2101.4 259.219 2105.98 254.589 Q2110.59 249.936 2111.77 248.594 Q2114.02 246.071 2114.9 244.335 Q2115.8 242.575 2115.8 240.886 Q2115.8 238.131 2113.85 236.395 Q2111.93 234.659 2108.83 234.659 Q2106.63 234.659 2104.18 235.423 Q2101.75 236.187 2098.97 237.737 L2098.97 233.015 Q2101.79 231.881 2104.25 231.302 Q2106.7 230.724 2108.74 230.724 Q2114.11 230.724 2117.3 233.409 Q2120.5 236.094 2120.5 240.585 Q2120.5 242.714 2119.69 244.636 Q2118.9 246.534 2116.79 249.126 Q2116.22 249.798 2113.11 253.015 Q2110.01 256.21 2104.36 261.973 Z" fill="#000000" fill-rule="evenodd" fill-opacity="1" /><path clip-path="url(#clip890)" d="M2130.54 231.349 L2148.9 231.349 L2148.9 235.284 L2134.83 235.284 L2134.83 243.756 Q2135.85 243.409 2136.86 243.247 Q2137.88 243.062 2138.9 243.062 Q2144.69 243.062 2148.07 246.233 Q2151.45 249.404 2151.45 254.821 Q2151.45 260.399 2147.97 263.501 Q2144.5 266.58 2138.18 266.58 Q2136.01 266.58 2133.74 266.21 Q2131.49 265.839 2129.09 265.098 L2129.09 260.399 Q2131.17 261.534 2133.39 262.089 Q2135.61 262.645 2138.09 262.645 Q2142.1 262.645 2144.43 260.538 Q2146.77 258.432 2146.77 254.821 Q2146.77 251.21 2144.43 249.103 Q2142.1 246.997 2138.09 246.997 Q2136.22 246.997 2134.34 247.413 Q2132.49 247.83 2130.54 248.71 L2130.54 231.349 Z" fill="#000000" fill-rule="evenodd" fill-opacity="1" /><path clip-path="url(#clip890)" d="M2171.24 246.765 Q2168.09 246.765 2166.24 248.918 Q2164.41 251.071 2164.41 254.821 Q2164.41 258.548 2166.24 260.723 Q2168.09 262.876 2171.24 262.876 Q2174.39 262.876 2176.22 260.723 Q2178.07 258.548 2178.07 254.821 Q2178.07 251.071 2176.22 248.918 Q2174.39 246.765 2171.24 246.765 M2180.52 232.113 L2180.52 236.372 Q2178.76 235.538 2176.96 235.099 Q2175.17 234.659 2173.41 234.659 Q2168.79 234.659 2166.33 237.784 Q2163.9 240.909 2163.55 247.228 Q2164.92 245.214 2166.98 244.149 Q2169.04 243.062 2171.52 243.062 Q2176.72 243.062 2179.73 246.233 Q2182.77 249.381 2182.77 254.821 Q2182.77 260.145 2179.62 263.362 Q2176.47 266.58 2171.24 266.58 Q2165.24 266.58 2162.07 261.997 Q2158.9 257.39 2158.9 248.663 Q2158.9 240.469 2162.79 235.608 Q2166.68 230.724 2173.23 230.724 Q2174.99 230.724 2176.77 231.071 Q2178.58 231.418 2180.52 232.113 Z" fill="#000000" fill-rule="evenodd" fill-opacity="1" /><path clip-path="url(#clip890)" d="M2191.63 261.973 L2199.27 261.973 L2199.27 235.608 L2190.96 237.275 L2190.96 233.015 L2199.22 231.349 L2203.9 231.349 L2203.9 261.973 L2211.54 261.973 L2211.54 265.909 L2191.63 265.909 L2191.63 261.973 Z" fill="#000000" fill-rule="evenodd" fill-opacity="1" /><path clip-path="url(#clip890)" d="M2219.71 229.937 L2223.41 229.937 Q2226.89 235.4 2228.6 240.631 Q2230.34 245.862 2230.34 251.024 Q2230.34 256.21 2228.6 261.464 Q2226.89 266.719 2223.41 272.159 L2219.71 272.159 Q2222.79 266.858 2224.29 261.626 Q2225.82 256.372 2225.82 251.024 Q2225.82 245.677 2224.29 240.469 Q2222.79 235.261 2219.71 229.937 Z" fill="#000000" fill-rule="evenodd" fill-opacity="1" /><polyline clip-path="url(#clip890)" style="stroke:#c271d2; stroke-linecap:butt; stroke-linejoin:round; stroke-width:4; stroke-opacity:1; fill:none" points="
  1415.15,300.469 1562.06,300.469 
  "/>
<path clip-path="url(#clip890)" d="M1606.89 296.8 Q1608.49 293.929 1610.71 292.564 Q1612.93 291.198 1615.94 291.198 Q1619.99 291.198 1622.19 294.045 Q1624.39 296.869 1624.39 302.101 L1624.39 317.749 L1620.11 317.749 L1620.11 302.239 Q1620.11 298.513 1618.79 296.707 Q1617.47 294.902 1614.76 294.902 Q1611.45 294.902 1609.53 297.101 Q1607.61 299.3 1607.61 303.096 L1607.61 317.749 L1603.33 317.749 L1603.33 302.239 Q1603.33 298.489 1602.01 296.707 Q1600.69 294.902 1597.93 294.902 Q1594.67 294.902 1592.75 297.124 Q1590.83 299.323 1590.83 303.096 L1590.83 317.749 L1586.54 317.749 L1586.54 291.823 L1590.83 291.823 L1590.83 295.851 Q1592.28 293.466 1594.32 292.332 Q1596.36 291.198 1599.16 291.198 Q1601.98 291.198 1603.95 292.633 Q1605.94 294.068 1606.89 296.8 Z" fill="#000000" fill-rule="evenodd" fill-opacity="1" /><path clip-path="url(#clip890)" d="M1644.67 304.716 Q1639.51 304.716 1637.51 305.897 Q1635.52 307.077 1635.52 309.925 Q1635.52 312.193 1637.01 313.536 Q1638.51 314.855 1641.08 314.855 Q1644.62 314.855 1646.75 312.355 Q1648.9 309.832 1648.9 305.665 L1648.9 304.716 L1644.67 304.716 M1653.16 302.957 L1653.16 317.749 L1648.9 317.749 L1648.9 313.813 Q1647.45 316.175 1645.27 317.309 Q1643.09 318.42 1639.95 318.42 Q1635.96 318.42 1633.6 316.198 Q1631.26 313.952 1631.26 310.202 Q1631.26 305.827 1634.18 303.605 Q1637.12 301.383 1642.93 301.383 L1648.9 301.383 L1648.9 300.966 Q1648.9 298.027 1646.96 296.429 Q1645.04 294.809 1641.54 294.809 Q1639.32 294.809 1637.21 295.341 Q1635.11 295.874 1633.16 296.939 L1633.16 293.003 Q1635.5 292.101 1637.7 291.661 Q1639.9 291.198 1641.98 291.198 Q1647.61 291.198 1650.39 294.114 Q1653.16 297.031 1653.16 302.957 Z" fill="#000000" fill-rule="evenodd" fill-opacity="1" /><path clip-path="url(#clip890)" d="M1678.46 292.587 L1678.46 296.614 Q1676.66 295.689 1674.71 295.226 Q1672.77 294.763 1670.69 294.763 Q1667.51 294.763 1665.92 295.735 Q1664.34 296.707 1664.34 298.651 Q1664.34 300.133 1665.48 300.989 Q1666.61 301.823 1670.04 302.587 L1671.5 302.911 Q1676.03 303.883 1677.93 305.665 Q1679.85 307.425 1679.85 310.596 Q1679.85 314.207 1676.98 316.313 Q1674.13 318.42 1669.13 318.42 Q1667.05 318.42 1664.78 318.003 Q1662.54 317.61 1660.04 316.8 L1660.04 312.401 Q1662.4 313.628 1664.69 314.253 Q1666.98 314.855 1669.23 314.855 Q1672.24 314.855 1673.86 313.837 Q1675.48 312.795 1675.48 310.92 Q1675.48 309.184 1674.3 308.258 Q1673.14 307.332 1669.18 306.476 L1667.7 306.128 Q1663.74 305.295 1661.98 303.582 Q1660.22 301.846 1660.22 298.837 Q1660.22 295.179 1662.82 293.189 Q1665.41 291.198 1670.18 291.198 Q1672.54 291.198 1674.62 291.545 Q1676.7 291.892 1678.46 292.587 Z" fill="#000000" fill-rule="evenodd" fill-opacity="1" /><path clip-path="url(#clip890)" d="M1703.16 292.587 L1703.16 296.614 Q1701.36 295.689 1699.41 295.226 Q1697.47 294.763 1695.38 294.763 Q1692.21 294.763 1690.62 295.735 Q1689.04 296.707 1689.04 298.651 Q1689.04 300.133 1690.18 300.989 Q1691.31 301.823 1694.74 302.587 L1696.19 302.911 Q1700.73 303.883 1702.63 305.665 Q1704.55 307.425 1704.55 310.596 Q1704.55 314.207 1701.68 316.313 Q1698.83 318.42 1693.83 318.42 Q1691.75 318.42 1689.48 318.003 Q1687.24 317.61 1684.74 316.8 L1684.74 312.401 Q1687.1 313.628 1689.39 314.253 Q1691.68 314.855 1693.93 314.855 Q1696.94 314.855 1698.56 313.837 Q1700.18 312.795 1700.18 310.92 Q1700.18 309.184 1699 308.258 Q1697.84 307.332 1693.88 306.476 L1692.4 306.128 Q1688.44 305.295 1686.68 303.582 Q1684.92 301.846 1684.92 298.837 Q1684.92 295.179 1687.51 293.189 Q1690.11 291.198 1694.88 291.198 Q1697.24 291.198 1699.32 291.545 Q1701.4 291.892 1703.16 292.587 Z" fill="#000000" fill-rule="evenodd" fill-opacity="1" /><path clip-path="url(#clip890)" d="M1711.94 311.869 L1716.82 311.869 L1716.82 317.749 L1711.94 317.749 L1711.94 311.869 Z" fill="#000000" fill-rule="evenodd" fill-opacity="1" /><path clip-path="url(#clip890)" d="M1739.53 281.73 L1739.53 285.272 L1735.45 285.272 Q1733.16 285.272 1732.26 286.198 Q1731.38 287.124 1731.38 289.531 L1731.38 291.823 L1738.39 291.823 L1738.39 295.133 L1731.38 295.133 L1731.38 317.749 L1727.1 317.749 L1727.1 295.133 L1723.02 295.133 L1723.02 291.823 L1727.1 291.823 L1727.1 290.017 Q1727.1 285.689 1729.11 283.721 Q1731.13 281.73 1735.5 281.73 L1739.53 281.73 Z" fill="#000000" fill-rule="evenodd" fill-opacity="1" /><path clip-path="url(#clip890)" d="M1768.39 281.777 Q1765.29 287.101 1763.79 292.309 Q1762.28 297.517 1762.28 302.864 Q1762.28 308.212 1763.79 313.466 Q1765.31 318.698 1768.39 323.999 L1764.69 323.999 Q1761.22 318.559 1759.48 313.304 Q1757.77 308.05 1757.77 302.864 Q1757.77 297.702 1759.48 292.471 Q1761.19 287.24 1764.69 281.777 L1768.39 281.777 Z" fill="#000000" fill-rule="evenodd" fill-opacity="1" /><path clip-path="url(#clip890)" d="M1787.84 298.605 Q1784.69 298.605 1782.84 300.758 Q1781.01 302.911 1781.01 306.661 Q1781.01 310.388 1782.84 312.563 Q1784.69 314.716 1787.84 314.716 Q1790.99 314.716 1792.81 312.563 Q1794.67 310.388 1794.67 306.661 Q1794.67 302.911 1792.81 300.758 Q1790.99 298.605 1787.84 298.605 M1797.12 283.953 L1797.12 288.212 Q1795.36 287.378 1793.56 286.939 Q1791.77 286.499 1790.01 286.499 Q1785.38 286.499 1782.93 289.624 Q1780.5 292.749 1780.15 299.068 Q1781.52 297.054 1783.58 295.989 Q1785.64 294.902 1788.12 294.902 Q1793.32 294.902 1796.33 298.073 Q1799.37 301.221 1799.37 306.661 Q1799.37 311.985 1796.22 315.202 Q1793.07 318.42 1787.84 318.42 Q1781.84 318.42 1778.67 313.837 Q1775.5 309.23 1775.5 300.503 Q1775.5 292.309 1779.39 287.448 Q1783.28 282.564 1789.83 282.564 Q1791.59 282.564 1793.37 282.911 Q1795.18 283.258 1797.12 283.953 Z" fill="#000000" fill-rule="evenodd" fill-opacity="1" /><path clip-path="url(#clip890)" d="M1821.59 299.114 Q1824.94 299.832 1826.82 302.101 Q1828.72 304.369 1828.72 307.702 Q1828.72 312.818 1825.2 315.619 Q1821.68 318.42 1815.2 318.42 Q1813.02 318.42 1810.71 317.98 Q1808.42 317.563 1805.96 316.707 L1805.96 312.193 Q1807.91 313.327 1810.22 313.906 Q1812.54 314.485 1815.06 314.485 Q1819.46 314.485 1821.75 312.749 Q1824.06 311.013 1824.06 307.702 Q1824.06 304.647 1821.91 302.934 Q1819.78 301.198 1815.96 301.198 L1811.94 301.198 L1811.94 297.355 L1816.15 297.355 Q1819.6 297.355 1821.43 295.989 Q1823.25 294.601 1823.25 292.008 Q1823.25 289.346 1821.36 287.934 Q1819.48 286.499 1815.96 286.499 Q1814.04 286.499 1811.84 286.915 Q1809.64 287.332 1807 288.212 L1807 284.045 Q1809.67 283.304 1811.98 282.934 Q1814.32 282.564 1816.38 282.564 Q1821.7 282.564 1824.81 284.994 Q1827.91 287.402 1827.91 291.522 Q1827.91 294.392 1826.26 296.383 Q1824.62 298.351 1821.59 299.114 Z" fill="#000000" fill-rule="evenodd" fill-opacity="1" /><path clip-path="url(#clip890)" d="M1836.4 283.189 L1858.62 283.189 L1858.62 285.179 L1846.08 317.749 L1841.19 317.749 L1853 287.124 L1836.4 287.124 L1836.4 283.189 Z" fill="#000000" fill-rule="evenodd" fill-opacity="1" /><path clip-path="url(#clip890)" d="M1867.79 283.189 L1886.15 283.189 L1886.15 287.124 L1872.07 287.124 L1872.07 295.596 Q1873.09 295.249 1874.11 295.087 Q1875.13 294.902 1876.15 294.902 Q1881.93 294.902 1885.31 298.073 Q1888.69 301.244 1888.69 306.661 Q1888.69 312.239 1885.22 315.341 Q1881.75 318.42 1875.43 318.42 Q1873.25 318.42 1870.99 318.05 Q1868.74 317.679 1866.33 316.938 L1866.33 312.239 Q1868.42 313.374 1870.64 313.929 Q1872.86 314.485 1875.34 314.485 Q1879.34 314.485 1881.68 312.378 Q1884.02 310.272 1884.02 306.661 Q1884.02 303.05 1881.68 300.943 Q1879.34 298.837 1875.34 298.837 Q1873.46 298.837 1871.59 299.253 Q1869.74 299.67 1867.79 300.55 L1867.79 283.189 Z" fill="#000000" fill-rule="evenodd" fill-opacity="1" /><path clip-path="url(#clip890)" d="M1912.07 299.114 Q1915.43 299.832 1917.3 302.101 Q1919.2 304.369 1919.2 307.702 Q1919.2 312.818 1915.68 315.619 Q1912.17 318.42 1905.68 318.42 Q1903.51 318.42 1901.19 317.98 Q1898.9 317.563 1896.45 316.707 L1896.45 312.193 Q1898.39 313.327 1900.71 313.906 Q1903.02 314.485 1905.55 314.485 Q1909.94 314.485 1912.24 312.749 Q1914.55 311.013 1914.55 307.702 Q1914.55 304.647 1912.4 302.934 Q1910.27 301.198 1906.45 301.198 L1902.42 301.198 L1902.42 297.355 L1906.63 297.355 Q1910.08 297.355 1911.91 295.989 Q1913.74 294.601 1913.74 292.008 Q1913.74 289.346 1911.84 287.934 Q1909.97 286.499 1906.45 286.499 Q1904.53 286.499 1902.33 286.915 Q1900.13 287.332 1897.49 288.212 L1897.49 284.045 Q1900.15 283.304 1902.47 282.934 Q1904.8 282.564 1906.87 282.564 Q1912.19 282.564 1915.29 284.994 Q1918.39 287.402 1918.39 291.522 Q1918.39 294.392 1916.75 296.383 Q1915.11 298.351 1912.07 299.114 Z" fill="#000000" fill-rule="evenodd" fill-opacity="1" /><path clip-path="url(#clip890)" d="M1940.92 287.263 L1929.11 305.712 L1940.92 305.712 L1940.92 287.263 M1939.69 283.189 L1945.57 283.189 L1945.57 305.712 L1950.5 305.712 L1950.5 309.601 L1945.57 309.601 L1945.57 317.749 L1940.92 317.749 L1940.92 309.601 L1925.31 309.601 L1925.31 305.087 L1939.69 283.189 Z" fill="#000000" fill-rule="evenodd" fill-opacity="1" /><path clip-path="url(#clip890)" d="M1962.26 313.813 L1978.58 313.813 L1978.58 317.749 L1956.63 317.749 L1956.63 313.813 Q1959.3 311.059 1963.88 306.429 Q1968.49 301.776 1969.67 300.434 Q1971.91 297.911 1972.79 296.175 Q1973.69 294.415 1973.69 292.726 Q1973.69 289.971 1971.75 288.235 Q1969.83 286.499 1966.73 286.499 Q1964.53 286.499 1962.07 287.263 Q1959.64 288.027 1956.86 289.577 L1956.86 284.855 Q1959.69 283.721 1962.14 283.142 Q1964.6 282.564 1966.63 282.564 Q1972 282.564 1975.2 285.249 Q1978.39 287.934 1978.39 292.425 Q1978.39 294.554 1977.58 296.476 Q1976.8 298.374 1974.69 300.966 Q1974.11 301.638 1971.01 304.855 Q1967.91 308.05 1962.26 313.813 Z" fill="#000000" fill-rule="evenodd" fill-opacity="1" /><path clip-path="url(#clip890)" d="M1989.2 313.813 L1996.84 313.813 L1996.84 287.448 L1988.53 289.115 L1988.53 284.855 L1996.8 283.189 L2001.47 283.189 L2001.47 313.813 L2009.11 313.813 L2009.11 317.749 L1989.2 317.749 L1989.2 313.813 Z" fill="#000000" fill-rule="evenodd" fill-opacity="1" /><path clip-path="url(#clip890)" d="M2019.36 313.813 L2027 313.813 L2027 287.448 L2018.69 289.115 L2018.69 284.855 L2026.96 283.189 L2031.63 283.189 L2031.63 313.813 L2039.27 313.813 L2039.27 317.749 L2019.36 317.749 L2019.36 313.813 Z" fill="#000000" fill-rule="evenodd" fill-opacity="1" /><path clip-path="url(#clip890)" d="M2047.44 281.777 L2051.15 281.777 Q2054.62 287.24 2056.33 292.471 Q2058.07 297.702 2058.07 302.864 Q2058.07 308.05 2056.33 313.304 Q2054.62 318.559 2051.15 323.999 L2047.44 323.999 Q2050.52 318.698 2052.03 313.466 Q2053.55 308.212 2053.55 302.864 Q2053.55 297.517 2052.03 292.309 Q2050.52 287.101 2047.44 281.777 Z" fill="#000000" fill-rule="evenodd" fill-opacity="1" /></svg>
