<?xml version="1.0" encoding="utf-8"?>
<svg xmlns="http://www.w3.org/2000/svg" xmlns:xlink="http://www.w3.org/1999/xlink" width="600" height="400" viewBox="0 0 2400 1600">
<defs>
  <clipPath id="clip070">
    <rect x="0" y="0" width="2400" height="1600"/>
  </clipPath>
</defs>
<path clip-path="url(#clip070)" d="
M0 1600 L2400 1600 L2400 0 L0 0  Z
  " fill="#ffffff" fill-rule="evenodd" fill-opacity="1"/>
<defs>
  <clipPath id="clip071">
    <rect x="480" y="0" width="1681" height="1600"/>
  </clipPath>
</defs>
<path clip-path="url(#clip070)" d="
M186.274 1423.18 L2352.76 1423.18 L2352.76 47.2441 L186.274 47.2441  Z
  " fill="#ffffff" fill-rule="evenodd" fill-opacity="1"/>
<defs>
  <clipPath id="clip072">
    <rect x="186" y="47" width="2167" height="1377"/>
  </clipPath>
</defs>
<polyline clip-path="url(#clip072)" style="stroke:#000000; stroke-linecap:butt; stroke-linejoin:round; stroke-width:2; stroke-opacity:0.1; fill:none" points="
  247.59,1423.18 247.59,47.2441 
  "/>
<polyline clip-path="url(#clip072)" style="stroke:#000000; stroke-linecap:butt; stroke-linejoin:round; stroke-width:2; stroke-opacity:0.1; fill:none" points="
  656.36,1423.18 656.36,47.2441 
  "/>
<polyline clip-path="url(#clip072)" style="stroke:#000000; stroke-linecap:butt; stroke-linejoin:round; stroke-width:2; stroke-opacity:0.1; fill:none" points="
  1065.13,1423.18 1065.13,47.2441 
  "/>
<polyline clip-path="url(#clip072)" style="stroke:#000000; stroke-linecap:butt; stroke-linejoin:round; stroke-width:2; stroke-opacity:0.1; fill:none" points="
  1473.9,1423.18 1473.9,47.2441 
  "/>
<polyline clip-path="url(#clip072)" style="stroke:#000000; stroke-linecap:butt; stroke-linejoin:round; stroke-width:2; stroke-opacity:0.1; fill:none" points="
  1882.67,1423.18 1882.67,47.2441 
  "/>
<polyline clip-path="url(#clip072)" style="stroke:#000000; stroke-linecap:butt; stroke-linejoin:round; stroke-width:2; stroke-opacity:0.1; fill:none" points="
  2291.44,1423.18 2291.44,47.2441 
  "/>
<polyline clip-path="url(#clip070)" style="stroke:#000000; stroke-linecap:butt; stroke-linejoin:round; stroke-width:4; stroke-opacity:1; fill:none" points="
  186.274,1423.18 2352.76,1423.18 
  "/>
<polyline clip-path="url(#clip070)" style="stroke:#000000; stroke-linecap:butt; stroke-linejoin:round; stroke-width:4; stroke-opacity:1; fill:none" points="
  247.59,1423.18 247.59,1404.28 
  "/>
<polyline clip-path="url(#clip070)" style="stroke:#000000; stroke-linecap:butt; stroke-linejoin:round; stroke-width:4; stroke-opacity:1; fill:none" points="
  656.36,1423.18 656.36,1404.28 
  "/>
<polyline clip-path="url(#clip070)" style="stroke:#000000; stroke-linecap:butt; stroke-linejoin:round; stroke-width:4; stroke-opacity:1; fill:none" points="
  1065.13,1423.18 1065.13,1404.28 
  "/>
<polyline clip-path="url(#clip070)" style="stroke:#000000; stroke-linecap:butt; stroke-linejoin:round; stroke-width:4; stroke-opacity:1; fill:none" points="
  1473.9,1423.18 1473.9,1404.28 
  "/>
<polyline clip-path="url(#clip070)" style="stroke:#000000; stroke-linecap:butt; stroke-linejoin:round; stroke-width:4; stroke-opacity:1; fill:none" points="
  1882.67,1423.18 1882.67,1404.28 
  "/>
<polyline clip-path="url(#clip070)" style="stroke:#000000; stroke-linecap:butt; stroke-linejoin:round; stroke-width:4; stroke-opacity:1; fill:none" points="
  2291.44,1423.18 2291.44,1404.28 
  "/>
<path clip-path="url(#clip070)" d="M247.59 1454.1 Q243.978 1454.1 242.15 1457.66 Q240.344 1461.2 240.344 1468.33 Q240.344 1475.44 242.15 1479.01 Q243.978 1482.55 247.59 1482.55 Q251.224 1482.55 253.029 1479.01 Q254.858 1475.44 254.858 1468.33 Q254.858 1461.2 253.029 1457.66 Q251.224 1454.1 247.59 1454.1 M247.59 1450.39 Q253.4 1450.39 256.455 1455 Q259.534 1459.58 259.534 1468.33 Q259.534 1477.06 256.455 1481.67 Q253.4 1486.25 247.59 1486.25 Q241.779 1486.25 238.701 1481.67 Q235.645 1477.06 235.645 1468.33 Q235.645 1459.58 238.701 1455 Q241.779 1450.39 247.59 1450.39 Z" fill="#000000" fill-rule="evenodd" fill-opacity="1" /><path clip-path="url(#clip070)" d="M646.742 1481.64 L654.381 1481.64 L654.381 1455.28 L646.07 1456.95 L646.07 1452.69 L654.334 1451.02 L659.01 1451.02 L659.01 1481.64 L666.649 1481.64 L666.649 1485.58 L646.742 1485.58 L646.742 1481.64 Z" fill="#000000" fill-rule="evenodd" fill-opacity="1" /><path clip-path="url(#clip070)" d="M1059.78 1481.64 L1076.1 1481.64 L1076.1 1485.58 L1054.16 1485.58 L1054.16 1481.64 Q1056.82 1478.89 1061.4 1474.26 Q1066.01 1469.61 1067.19 1468.27 Q1069.44 1465.74 1070.32 1464.01 Q1071.22 1462.25 1071.22 1460.56 Q1071.22 1457.8 1069.27 1456.07 Q1067.35 1454.33 1064.25 1454.33 Q1062.05 1454.33 1059.6 1455.09 Q1057.17 1455.86 1054.39 1457.41 L1054.39 1452.69 Q1057.21 1451.55 1059.67 1450.97 Q1062.12 1450.39 1064.16 1450.39 Q1069.53 1450.39 1072.72 1453.08 Q1075.92 1455.77 1075.92 1460.26 Q1075.92 1462.39 1075.11 1464.31 Q1074.32 1466.2 1072.21 1468.8 Q1071.63 1469.47 1068.53 1472.69 Q1065.43 1475.88 1059.78 1481.64 Z" fill="#000000" fill-rule="evenodd" fill-opacity="1" /><path clip-path="url(#clip070)" d="M1478.15 1466.95 Q1481.5 1467.66 1483.38 1469.93 Q1485.28 1472.2 1485.28 1475.53 Q1485.28 1480.65 1481.76 1483.45 Q1478.24 1486.25 1471.76 1486.25 Q1469.58 1486.25 1467.27 1485.81 Q1464.98 1485.39 1462.52 1484.54 L1462.52 1480.02 Q1464.47 1481.16 1466.78 1481.74 Q1469.1 1482.32 1471.62 1482.32 Q1476.02 1482.32 1478.31 1480.58 Q1480.62 1478.84 1480.62 1475.53 Q1480.62 1472.48 1478.47 1470.77 Q1476.34 1469.03 1472.52 1469.03 L1468.49 1469.03 L1468.49 1465.19 L1472.71 1465.19 Q1476.16 1465.19 1477.99 1463.82 Q1479.81 1462.43 1479.81 1459.84 Q1479.81 1457.18 1477.92 1455.77 Q1476.04 1454.33 1472.52 1454.33 Q1470.6 1454.33 1468.4 1454.75 Q1466.2 1455.16 1463.56 1456.04 L1463.56 1451.88 Q1466.23 1451.14 1468.54 1450.77 Q1470.88 1450.39 1472.94 1450.39 Q1478.26 1450.39 1481.37 1452.83 Q1484.47 1455.23 1484.47 1459.35 Q1484.47 1462.22 1482.82 1464.21 Q1481.18 1466.18 1478.15 1466.95 Z" fill="#000000" fill-rule="evenodd" fill-opacity="1" /><path clip-path="url(#clip070)" d="M1885.68 1455.09 L1873.87 1473.54 L1885.68 1473.54 L1885.68 1455.09 M1884.45 1451.02 L1890.33 1451.02 L1890.33 1473.54 L1895.26 1473.54 L1895.26 1477.43 L1890.33 1477.43 L1890.33 1485.58 L1885.68 1485.58 L1885.68 1477.43 L1870.08 1477.43 L1870.08 1472.92 L1884.45 1451.02 Z" fill="#000000" fill-rule="evenodd" fill-opacity="1" /><path clip-path="url(#clip070)" d="M2281.72 1451.02 L2300.07 1451.02 L2300.07 1454.96 L2286 1454.96 L2286 1463.43 Q2287.02 1463.08 2288.04 1462.92 Q2289.06 1462.73 2290.07 1462.73 Q2295.86 1462.73 2299.24 1465.9 Q2302.62 1469.08 2302.62 1474.49 Q2302.62 1480.07 2299.15 1483.17 Q2295.68 1486.25 2289.36 1486.25 Q2287.18 1486.25 2284.91 1485.88 Q2282.67 1485.51 2280.26 1484.77 L2280.26 1480.07 Q2282.34 1481.2 2284.57 1481.76 Q2286.79 1482.32 2289.26 1482.32 Q2293.27 1482.32 2295.61 1480.21 Q2297.94 1478.1 2297.94 1474.49 Q2297.94 1470.88 2295.61 1468.77 Q2293.27 1466.67 2289.26 1466.67 Q2287.39 1466.67 2285.51 1467.08 Q2283.66 1467.5 2281.72 1468.38 L2281.72 1451.02 Z" fill="#000000" fill-rule="evenodd" fill-opacity="1" /><path clip-path="url(#clip070)" d="M1217.83 1522.27 L1217.83 1532.4 L1229.89 1532.4 L1229.89 1536.95 L1217.83 1536.95 L1217.83 1556.3 Q1217.83 1560.66 1219 1561.9 Q1220.21 1563.14 1223.87 1563.14 L1229.89 1563.14 L1229.89 1568.04 L1223.87 1568.04 Q1217.09 1568.04 1214.52 1565.53 Q1211.94 1562.98 1211.94 1556.3 L1211.94 1536.95 L1207.64 1536.95 L1207.64 1532.4 L1211.94 1532.4 L1211.94 1522.27 L1217.83 1522.27 Z" fill="#000000" fill-rule="evenodd" fill-opacity="1" /><path clip-path="url(#clip070)" d="M1257.77 1518.52 L1271.27 1518.52 L1271.27 1523.07 L1263.63 1523.07 L1263.63 1572.09 L1271.27 1572.09 L1271.27 1576.64 L1257.77 1576.64 L1257.77 1518.52 Z" fill="#000000" fill-rule="evenodd" fill-opacity="1" /><path clip-path="url(#clip070)" d="M1306.47 1533.45 L1306.47 1538.98 Q1303.99 1537.71 1301.31 1537.07 Q1298.64 1536.44 1295.77 1536.44 Q1291.41 1536.44 1289.22 1537.77 Q1287.05 1539.11 1287.05 1541.79 Q1287.05 1543.82 1288.61 1545 Q1290.17 1546.15 1294.88 1547.2 L1296.89 1547.64 Q1303.13 1548.98 1305.74 1551.43 Q1308.38 1553.85 1308.38 1558.21 Q1308.38 1563.17 1304.43 1566.07 Q1300.52 1568.97 1293.64 1568.97 Q1290.78 1568.97 1287.66 1568.39 Q1284.57 1567.85 1281.13 1566.74 L1281.13 1560.69 Q1284.38 1562.38 1287.53 1563.24 Q1290.68 1564.07 1293.77 1564.07 Q1297.91 1564.07 1300.13 1562.66 Q1302.36 1561.23 1302.36 1558.65 Q1302.36 1556.27 1300.74 1554.99 Q1299.15 1553.72 1293.7 1552.54 L1291.67 1552.07 Q1286.22 1550.92 1283.81 1548.56 Q1281.39 1546.18 1281.39 1542.04 Q1281.39 1537.01 1284.95 1534.27 Q1288.52 1531.54 1295.07 1531.54 Q1298.32 1531.54 1301.18 1532.01 Q1304.05 1532.49 1306.47 1533.45 Z" fill="#000000" fill-rule="evenodd" fill-opacity="1" /><path clip-path="url(#clip070)" d="M1331.39 1518.52 L1331.39 1576.64 L1317.89 1576.64 L1317.89 1572.09 L1325.5 1572.09 L1325.5 1523.07 L1317.89 1523.07 L1317.89 1518.52 L1331.39 1518.52 Z" fill="#000000" fill-rule="evenodd" fill-opacity="1" /><polyline clip-path="url(#clip072)" style="stroke:#000000; stroke-linecap:butt; stroke-linejoin:round; stroke-width:2; stroke-opacity:0.1; fill:none" points="
  186.274,1384.24 2352.76,1384.24 
  "/>
<polyline clip-path="url(#clip072)" style="stroke:#000000; stroke-linecap:butt; stroke-linejoin:round; stroke-width:2; stroke-opacity:0.1; fill:none" points="
  186.274,1095.64 2352.76,1095.64 
  "/>
<polyline clip-path="url(#clip072)" style="stroke:#000000; stroke-linecap:butt; stroke-linejoin:round; stroke-width:2; stroke-opacity:0.1; fill:none" points="
  186.274,807.038 2352.76,807.038 
  "/>
<polyline clip-path="url(#clip072)" style="stroke:#000000; stroke-linecap:butt; stroke-linejoin:round; stroke-width:2; stroke-opacity:0.1; fill:none" points="
  186.274,518.438 2352.76,518.438 
  "/>
<polyline clip-path="url(#clip072)" style="stroke:#000000; stroke-linecap:butt; stroke-linejoin:round; stroke-width:2; stroke-opacity:0.1; fill:none" points="
  186.274,229.838 2352.76,229.838 
  "/>
<polyline clip-path="url(#clip070)" style="stroke:#000000; stroke-linecap:butt; stroke-linejoin:round; stroke-width:4; stroke-opacity:1; fill:none" points="
  186.274,1423.18 186.274,47.2441 
  "/>
<polyline clip-path="url(#clip070)" style="stroke:#000000; stroke-linecap:butt; stroke-linejoin:round; stroke-width:4; stroke-opacity:1; fill:none" points="
  186.274,1384.24 205.172,1384.24 
  "/>
<polyline clip-path="url(#clip070)" style="stroke:#000000; stroke-linecap:butt; stroke-linejoin:round; stroke-width:4; stroke-opacity:1; fill:none" points="
  186.274,1095.64 205.172,1095.64 
  "/>
<polyline clip-path="url(#clip070)" style="stroke:#000000; stroke-linecap:butt; stroke-linejoin:round; stroke-width:4; stroke-opacity:1; fill:none" points="
  186.274,807.038 205.172,807.038 
  "/>
<polyline clip-path="url(#clip070)" style="stroke:#000000; stroke-linecap:butt; stroke-linejoin:round; stroke-width:4; stroke-opacity:1; fill:none" points="
  186.274,518.438 205.172,518.438 
  "/>
<polyline clip-path="url(#clip070)" style="stroke:#000000; stroke-linecap:butt; stroke-linejoin:round; stroke-width:4; stroke-opacity:1; fill:none" points="
  186.274,229.838 205.172,229.838 
  "/>
<path clip-path="url(#clip070)" d="M62.9365 1370.04 Q59.3254 1370.04 57.4967 1373.6 Q55.6912 1377.14 55.6912 1384.27 Q55.6912 1391.38 57.4967 1394.94 Q59.3254 1398.49 62.9365 1398.49 Q66.5707 1398.49 68.3763 1394.94 Q70.205 1391.38 70.205 1384.27 Q70.205 1377.14 68.3763 1373.6 Q66.5707 1370.04 62.9365 1370.04 M62.9365 1366.33 Q68.7467 1366.33 71.8022 1370.94 Q74.8809 1375.52 74.8809 1384.27 Q74.8809 1393 71.8022 1397.61 Q68.7467 1402.19 62.9365 1402.19 Q57.1264 1402.19 54.0477 1397.61 Q50.9921 1393 50.9921 1384.27 Q50.9921 1375.52 54.0477 1370.94 Q57.1264 1366.33 62.9365 1366.33 Z" fill="#000000" fill-rule="evenodd" fill-opacity="1" /><path clip-path="url(#clip070)" d="M83.0984 1395.64 L87.9827 1395.64 L87.9827 1401.52 L83.0984 1401.52 L83.0984 1395.64 Z" fill="#000000" fill-rule="evenodd" fill-opacity="1" /><path clip-path="url(#clip070)" d="M108.168 1370.04 Q104.557 1370.04 102.728 1373.6 Q100.922 1377.14 100.922 1384.27 Q100.922 1391.38 102.728 1394.94 Q104.557 1398.49 108.168 1398.49 Q111.802 1398.49 113.608 1394.94 Q115.436 1391.38 115.436 1384.27 Q115.436 1377.14 113.608 1373.6 Q111.802 1370.04 108.168 1370.04 M108.168 1366.33 Q113.978 1366.33 117.033 1370.94 Q120.112 1375.52 120.112 1384.27 Q120.112 1393 117.033 1397.61 Q113.978 1402.19 108.168 1402.19 Q102.358 1402.19 99.2789 1397.61 Q96.2234 1393 96.2234 1384.27 Q96.2234 1375.52 99.2789 1370.94 Q102.358 1366.33 108.168 1366.33 Z" fill="#000000" fill-rule="evenodd" fill-opacity="1" /><path clip-path="url(#clip070)" d="M138.33 1370.04 Q134.719 1370.04 132.89 1373.6 Q131.084 1377.14 131.084 1384.27 Q131.084 1391.38 132.89 1394.94 Q134.719 1398.49 138.33 1398.49 Q141.964 1398.49 143.769 1394.94 Q145.598 1391.38 145.598 1384.27 Q145.598 1377.14 143.769 1373.6 Q141.964 1370.04 138.33 1370.04 M138.33 1366.33 Q144.14 1366.33 147.195 1370.94 Q150.274 1375.52 150.274 1384.27 Q150.274 1393 147.195 1397.61 Q144.14 1402.19 138.33 1402.19 Q132.519 1402.19 129.441 1397.61 Q126.385 1393 126.385 1384.27 Q126.385 1375.52 129.441 1370.94 Q132.519 1366.33 138.33 1366.33 Z" fill="#000000" fill-rule="evenodd" fill-opacity="1" /><path clip-path="url(#clip070)" d="M63.9319 1081.44 Q60.3208 1081.44 58.4921 1085 Q56.6865 1088.54 56.6865 1095.67 Q56.6865 1102.78 58.4921 1106.34 Q60.3208 1109.89 63.9319 1109.89 Q67.5661 1109.89 69.3717 1106.34 Q71.2004 1102.78 71.2004 1095.67 Q71.2004 1088.54 69.3717 1085 Q67.5661 1081.44 63.9319 1081.44 M63.9319 1077.73 Q69.742 1077.73 72.7976 1082.34 Q75.8763 1086.92 75.8763 1095.67 Q75.8763 1104.4 72.7976 1109.01 Q69.742 1113.59 63.9319 1113.59 Q58.1217 1113.59 55.043 1109.01 Q51.9875 1104.4 51.9875 1095.67 Q51.9875 1086.92 55.043 1082.34 Q58.1217 1077.73 63.9319 1077.73 Z" fill="#000000" fill-rule="evenodd" fill-opacity="1" /><path clip-path="url(#clip070)" d="M84.0938 1107.04 L88.978 1107.04 L88.978 1112.92 L84.0938 1112.92 L84.0938 1107.04 Z" fill="#000000" fill-rule="evenodd" fill-opacity="1" /><path clip-path="url(#clip070)" d="M103.191 1108.98 L119.51 1108.98 L119.51 1112.92 L97.566 1112.92 L97.566 1108.98 Q100.228 1106.23 104.811 1101.6 Q109.418 1096.95 110.598 1095.6 Q112.844 1093.08 113.723 1091.34 Q114.626 1089.59 114.626 1087.9 Q114.626 1085.14 112.682 1083.4 Q110.76 1081.67 107.658 1081.67 Q105.459 1081.67 103.006 1082.43 Q100.575 1083.2 97.7974 1084.75 L97.7974 1080.02 Q100.621 1078.89 103.075 1078.31 Q105.529 1077.73 107.566 1077.73 Q112.936 1077.73 116.131 1080.42 Q119.325 1083.1 119.325 1087.59 Q119.325 1089.72 118.515 1091.65 Q117.728 1093.54 115.621 1096.14 Q115.043 1096.81 111.941 1100.02 Q108.839 1103.22 103.191 1108.98 Z" fill="#000000" fill-rule="evenodd" fill-opacity="1" /><path clip-path="url(#clip070)" d="M129.371 1078.36 L147.728 1078.36 L147.728 1082.29 L133.654 1082.29 L133.654 1090.77 Q134.672 1090.42 135.691 1090.26 Q136.709 1090.07 137.728 1090.07 Q143.515 1090.07 146.894 1093.24 Q150.274 1096.41 150.274 1101.83 Q150.274 1107.41 146.802 1110.51 Q143.33 1113.59 137.01 1113.59 Q134.834 1113.59 132.566 1113.22 Q130.32 1112.85 127.913 1112.11 L127.913 1107.41 Q129.996 1108.54 132.219 1109.1 Q134.441 1109.65 136.918 1109.65 Q140.922 1109.65 143.26 1107.55 Q145.598 1105.44 145.598 1101.83 Q145.598 1098.22 143.26 1096.11 Q140.922 1094.01 136.918 1094.01 Q135.043 1094.01 133.168 1094.42 Q131.316 1094.84 129.371 1095.72 L129.371 1078.36 Z" fill="#000000" fill-rule="evenodd" fill-opacity="1" /><path clip-path="url(#clip070)" d="M62.9365 792.837 Q59.3254 792.837 57.4967 796.402 Q55.6912 799.943 55.6912 807.073 Q55.6912 814.179 57.4967 817.744 Q59.3254 821.286 62.9365 821.286 Q66.5707 821.286 68.3763 817.744 Q70.205 814.179 70.205 807.073 Q70.205 799.943 68.3763 796.402 Q66.5707 792.837 62.9365 792.837 M62.9365 789.133 Q68.7467 789.133 71.8022 793.74 Q74.8809 798.323 74.8809 807.073 Q74.8809 815.8 71.8022 820.406 Q68.7467 824.99 62.9365 824.99 Q57.1264 824.99 54.0477 820.406 Q50.9921 815.8 50.9921 807.073 Q50.9921 798.323 54.0477 793.74 Q57.1264 789.133 62.9365 789.133 Z" fill="#000000" fill-rule="evenodd" fill-opacity="1" /><path clip-path="url(#clip070)" d="M83.0984 818.439 L87.9827 818.439 L87.9827 824.318 L83.0984 824.318 L83.0984 818.439 Z" fill="#000000" fill-rule="evenodd" fill-opacity="1" /><path clip-path="url(#clip070)" d="M98.2141 789.758 L116.57 789.758 L116.57 793.693 L102.496 793.693 L102.496 802.166 Q103.515 801.818 104.534 801.656 Q105.552 801.471 106.571 801.471 Q112.358 801.471 115.737 804.642 Q119.117 807.814 119.117 813.23 Q119.117 818.809 115.645 821.911 Q112.172 824.99 105.853 824.99 Q103.677 824.99 101.409 824.619 Q99.1632 824.249 96.7558 823.508 L96.7558 818.809 Q98.8391 819.943 101.061 820.499 Q103.284 821.054 105.76 821.054 Q109.765 821.054 112.103 818.948 Q114.441 816.841 114.441 813.23 Q114.441 809.619 112.103 807.513 Q109.765 805.406 105.76 805.406 Q103.885 805.406 102.01 805.823 Q100.159 806.24 98.2141 807.119 L98.2141 789.758 Z" fill="#000000" fill-rule="evenodd" fill-opacity="1" /><path clip-path="url(#clip070)" d="M138.33 792.837 Q134.719 792.837 132.89 796.402 Q131.084 799.943 131.084 807.073 Q131.084 814.179 132.89 817.744 Q134.719 821.286 138.33 821.286 Q141.964 821.286 143.769 817.744 Q145.598 814.179 145.598 807.073 Q145.598 799.943 143.769 796.402 Q141.964 792.837 138.33 792.837 M138.33 789.133 Q144.14 789.133 147.195 793.74 Q150.274 798.323 150.274 807.073 Q150.274 815.8 147.195 820.406 Q144.14 824.99 138.33 824.99 Q132.519 824.99 129.441 820.406 Q126.385 815.8 126.385 807.073 Q126.385 798.323 129.441 793.74 Q132.519 789.133 138.33 789.133 Z" fill="#000000" fill-rule="evenodd" fill-opacity="1" /><path clip-path="url(#clip070)" d="M63.9319 504.237 Q60.3208 504.237 58.4921 507.802 Q56.6865 511.343 56.6865 518.473 Q56.6865 525.579 58.4921 529.144 Q60.3208 532.686 63.9319 532.686 Q67.5661 532.686 69.3717 529.144 Q71.2004 525.579 71.2004 518.473 Q71.2004 511.343 69.3717 507.802 Q67.5661 504.237 63.9319 504.237 M63.9319 500.533 Q69.742 500.533 72.7976 505.14 Q75.8763 509.723 75.8763 518.473 Q75.8763 527.2 72.7976 531.806 Q69.742 536.389 63.9319 536.389 Q58.1217 536.389 55.043 531.806 Q51.9875 527.2 51.9875 518.473 Q51.9875 509.723 55.043 505.14 Q58.1217 500.533 63.9319 500.533 Z" fill="#000000" fill-rule="evenodd" fill-opacity="1" /><path clip-path="url(#clip070)" d="M84.0938 529.839 L88.978 529.839 L88.978 535.718 L84.0938 535.718 L84.0938 529.839 Z" fill="#000000" fill-rule="evenodd" fill-opacity="1" /><path clip-path="url(#clip070)" d="M97.9826 501.158 L120.205 501.158 L120.205 503.149 L107.658 535.718 L102.774 535.718 L114.58 505.093 L97.9826 505.093 L97.9826 501.158 Z" fill="#000000" fill-rule="evenodd" fill-opacity="1" /><path clip-path="url(#clip070)" d="M129.371 501.158 L147.728 501.158 L147.728 505.093 L133.654 505.093 L133.654 513.566 Q134.672 513.218 135.691 513.056 Q136.709 512.871 137.728 512.871 Q143.515 512.871 146.894 516.042 Q150.274 519.214 150.274 524.63 Q150.274 530.209 146.802 533.311 Q143.33 536.389 137.01 536.389 Q134.834 536.389 132.566 536.019 Q130.32 535.649 127.913 534.908 L127.913 530.209 Q129.996 531.343 132.219 531.899 Q134.441 532.454 136.918 532.454 Q140.922 532.454 143.26 530.348 Q145.598 528.241 145.598 524.63 Q145.598 521.019 143.26 518.913 Q140.922 516.806 136.918 516.806 Q135.043 516.806 133.168 517.223 Q131.316 517.64 129.371 518.519 L129.371 501.158 Z" fill="#000000" fill-rule="evenodd" fill-opacity="1" /><path clip-path="url(#clip070)" d="M53.7467 243.183 L61.3856 243.183 L61.3856 216.817 L53.0754 218.484 L53.0754 214.225 L61.3393 212.558 L66.0152 212.558 L66.0152 243.183 L73.654 243.183 L73.654 247.118 L53.7467 247.118 L53.7467 243.183 Z" fill="#000000" fill-rule="evenodd" fill-opacity="1" /><path clip-path="url(#clip070)" d="M83.0984 241.239 L87.9827 241.239 L87.9827 247.118 L83.0984 247.118 L83.0984 241.239 Z" fill="#000000" fill-rule="evenodd" fill-opacity="1" /><path clip-path="url(#clip070)" d="M108.168 215.637 Q104.557 215.637 102.728 219.202 Q100.922 222.743 100.922 229.873 Q100.922 236.979 102.728 240.544 Q104.557 244.086 108.168 244.086 Q111.802 244.086 113.608 240.544 Q115.436 236.979 115.436 229.873 Q115.436 222.743 113.608 219.202 Q111.802 215.637 108.168 215.637 M108.168 211.933 Q113.978 211.933 117.033 216.54 Q120.112 221.123 120.112 229.873 Q120.112 238.6 117.033 243.206 Q113.978 247.789 108.168 247.789 Q102.358 247.789 99.2789 243.206 Q96.2234 238.6 96.2234 229.873 Q96.2234 221.123 99.2789 216.54 Q102.358 211.933 108.168 211.933 Z" fill="#000000" fill-rule="evenodd" fill-opacity="1" /><path clip-path="url(#clip070)" d="M138.33 215.637 Q134.719 215.637 132.89 219.202 Q131.084 222.743 131.084 229.873 Q131.084 236.979 132.89 240.544 Q134.719 244.086 138.33 244.086 Q141.964 244.086 143.769 240.544 Q145.598 236.979 145.598 229.873 Q145.598 222.743 143.769 219.202 Q141.964 215.637 138.33 215.637 M138.33 211.933 Q144.14 211.933 147.195 216.54 Q150.274 221.123 150.274 229.873 Q150.274 238.6 147.195 243.206 Q144.14 247.789 138.33 247.789 Q132.519 247.789 129.441 243.206 Q126.385 238.6 126.385 229.873 Q126.385 221.123 129.441 216.54 Q132.519 211.933 138.33 211.933 Z" fill="#000000" fill-rule="evenodd" fill-opacity="1" /><polyline clip-path="url(#clip072)" style="stroke:#009af9; stroke-linecap:butt; stroke-linejoin:round; stroke-width:4; stroke-opacity:1; fill:none" points="
  247.59,807.038 251.677,796.396 255.765,785.758 259.853,775.127 263.94,764.501 268.028,753.881 272.116,743.266 276.203,732.657 280.291,722.053 284.379,711.456 
  288.467,700.864 292.554,690.278 296.642,679.698 300.73,669.124 304.817,658.557 308.905,647.996 312.993,637.442 317.08,626.895 321.168,616.355 325.256,605.824 
  329.344,595.301 333.431,584.787 337.519,574.283 341.607,563.79 345.694,553.308 349.782,542.839 353.87,532.384 357.957,521.944 362.045,511.52 366.133,501.113 
  370.221,490.727 374.308,480.362 378.396,470.023 382.484,459.711 386.571,449.429 390.659,439.183 394.747,428.974 398.834,418.809 402.922,408.69 407.01,398.623 
  411.098,388.613 415.185,378.665 419.273,368.785 423.361,358.983 427.448,349.268 431.536,339.648 435.624,330.132 439.712,320.731 443.799,311.452 447.887,302.306 
  451.975,293.302 456.062,284.45 460.15,275.76 464.238,267.24 468.325,258.902 472.413,250.755 476.501,242.808 480.589,235.074 484.676,227.56 488.764,220.278 
  492.852,213.236 496.939,206.434 501.027,199.876 505.115,193.563 509.202,187.496 513.29,181.676 517.378,176.102 521.466,170.772 525.553,165.685 529.641,160.836 
  533.729,156.222 537.816,151.838 541.904,147.678 545.992,143.736 550.079,140.004 554.167,136.475 558.255,133.139 562.343,129.987 566.43,127.009 570.518,124.199 
  574.606,121.55 578.693,119.056 582.781,116.708 586.869,114.501 590.956,112.427 595.044,110.481 599.132,108.655 603.22,106.944 607.307,105.343 611.395,103.844 
  615.483,102.443 619.57,101.134 623.658,99.9114 627.746,98.771 631.833,97.7073 635.921,96.7157 640.009,95.7916 644.097,94.9305 648.184,94.1282 652.272,93.3814 
  656.36,92.6873 660.447,92.0435 664.535,91.4475 668.623,90.8968 672.711,90.3891 676.798,89.9222 680.886,89.4937 684.974,89.1015 689.061,88.7434 693.149,88.4175 
  697.237,88.1216 701.324,87.8539 705.412,87.6125 709.5,87.3955 713.588,87.2011 717.675,87.0277 721.763,86.8736 725.851,86.7372 729.938,86.6176 734.026,86.5141 
  738.114,86.426 742.201,86.3527 746.289,86.2936 750.377,86.248 754.465,86.2152 758.552,86.1947 762.64,86.1857 766.728,86.1876 770.815,86.1999 774.903,86.2217 
  778.991,86.2527 783.078,86.292 787.166,86.339 791.254,86.3932 795.342,86.4539 799.429,86.5205 803.517,86.5923 807.605,86.6687 811.692,86.7492 815.78,86.833 
  819.868,86.9198 823.955,87.01 828.043,87.1035 832.131,87.2002 836.219,87.2999 840.306,87.4026 844.394,87.508 848.482,87.6161 852.569,87.7266 856.657,87.8396 
  860.745,87.9547 864.832,88.0719 868.92,88.191 873.008,88.3118 877.096,88.4343 881.183,88.5581 885.271,88.6833 889.359,88.8096 893.446,88.9368 897.534,89.0648 
  901.622,89.1934 905.71,89.3224 909.797,89.4517 913.885,89.5811 917.973,89.7104 922.06,89.8395 926.148,89.9685 930.236,90.0975 934.323,90.2265 938.411,90.3555 
  942.499,90.4844 946.587,90.6133 950.674,90.7422 954.762,90.8711 958.85,90.9999 962.937,91.1286 967.025,91.2573 971.113,91.3859 975.2,91.5143 979.288,91.6426 
  983.376,91.7707 987.464,91.8986 991.551,92.0263 995.639,92.1537 999.727,92.2809 1003.81,92.4076 1007.9,92.534 1011.99,92.66 1016.08,92.7855 1020.17,92.9106 
  1024.25,93.035 1028.34,93.1588 1032.43,93.282 1036.52,93.4044 1040.6,93.526 1044.69,93.6468 1048.78,93.7668 1052.87,93.8862 1056.95,94.0049 1061.04,94.123 
  1065.13,94.2405 1069.22,94.3575 1073.31,94.4738 1077.39,94.5896 1081.48,94.7048 1085.57,94.8195 1089.66,94.9336 1093.74,95.0471 1097.83,95.1601 1101.92,95.2725 
  1106.01,95.3844 1110.09,95.4957 1114.18,95.6065 1118.27,95.7168 1122.36,95.8265 1126.45,95.9357 1130.53,96.0443 1134.62,96.1524 1138.71,96.2599 1142.8,96.3668 
  1146.88,96.4732 1150.97,96.579 1155.06,96.6842 1159.15,96.7888 1163.23,96.8929 1167.32,96.9963 1171.41,97.0991 1175.5,97.2013 1179.59,97.3029 1183.67,97.4037 
  1187.76,97.504 1191.85,97.6035 1195.94,97.7024 1200.02,97.8007 1204.11,97.8983 1208.2,97.9954 1212.29,98.092 1216.37,98.1879 1220.46,98.2833 1224.55,98.3782 
  1228.64,98.4725 1232.73,98.5662 1236.81,98.6594 1240.9,98.7521 1244.99,98.8442 1249.08,98.9358 1253.16,99.0269 1257.25,99.1175 1261.34,99.2075 1265.43,99.297 
  1269.51,99.3861 1273.6,99.4746 1277.69,99.5626 1281.78,99.6501 1285.87,99.7371 1289.95,99.8236 1294.04,99.9096 1298.13,99.9951 1302.22,100.08 1306.3,100.165 
  1310.39,100.249 1314.48,100.332 1318.57,100.415 1322.66,100.498 1326.74,100.58 1330.83,100.662 1334.92,100.743 1339.01,100.824 1343.09,100.904 1347.18,100.984 
  1351.27,101.063 1355.36,101.142 1359.44,101.22 1363.53,101.298 1367.62,101.375 1371.71,101.452 1375.8,101.528 1379.88,101.604 1383.97,101.68 1388.06,101.755 
  1392.15,101.829 1396.23,101.903 1400.32,101.977 1404.41,102.05 1408.5,102.123 1412.58,102.196 1416.67,102.268 1420.76,102.339 1424.85,102.41 1428.94,102.481 
  1433.02,102.551 1437.11,102.621 1441.2,102.691 1445.29,102.76 1449.37,102.829 1453.46,102.897 1457.55,102.965 1461.64,103.032 1465.72,103.099 1469.81,103.166 
  1473.9,103.232 1477.99,103.298 1482.08,103.363 1486.16,103.428 1490.25,103.493 1494.34,103.557 1498.43,103.621 1502.51,103.685 1506.6,103.748 1510.69,103.811 
  1514.78,103.873 1518.86,103.935 1522.95,103.997 1527.04,104.058 1531.13,104.119 1535.22,104.179 1539.3,104.24 1543.39,104.299 1547.48,104.359 1551.57,104.418 
  1555.65,104.477 1559.74,104.535 1563.83,104.593 1567.92,104.651 1572,104.708 1576.09,104.765 1580.18,104.821 1584.27,104.878 1588.36,104.934 1592.44,104.989 
  1596.53,105.045 1600.62,105.1 1604.71,105.154 1608.79,105.209 1612.88,105.263 1616.97,105.316 1621.06,105.37 1625.15,105.423 1629.23,105.476 1633.32,105.528 
  1637.41,105.58 1641.5,105.632 1645.58,105.684 1649.67,105.735 1653.76,105.786 1657.85,105.837 1661.93,105.888 1666.02,105.938 1670.11,105.988 1674.2,106.038 
  1678.29,106.088 1682.37,106.137 1686.46,106.186 1690.55,106.235 1694.64,106.284 1698.72,106.332 1702.81,106.38 1706.9,106.428 1710.99,106.476 1715.07,106.523 
  1719.16,106.57 1723.25,106.617 1727.34,106.663 1731.43,106.709 1735.51,106.755 1739.6,106.8 1743.69,106.846 1747.78,106.891 1751.86,106.935 1755.95,106.979 
  1760.04,107.023 1764.13,107.067 1768.21,107.111 1772.3,107.154 1776.39,107.196 1780.48,107.239 1784.57,107.281 1788.65,107.323 1792.74,107.365 1796.83,107.406 
  1800.92,107.447 1805,107.488 1809.09,107.528 1813.18,107.568 1817.27,107.608 1821.35,107.647 1825.44,107.687 1829.53,107.726 1833.62,107.764 1837.71,107.803 
  1841.79,107.841 1845.88,107.879 1849.97,107.916 1854.06,107.954 1858.14,107.991 1862.23,108.028 1866.32,108.064 1870.41,108.101 1874.49,108.137 1878.58,108.173 
  1882.67,108.209 1886.76,108.244 1890.85,108.28 1894.93,108.315 1899.02,108.35 1903.11,108.385 1907.2,108.42 1911.28,108.454 1915.37,108.488 1919.46,108.523 
  1923.55,108.557 1927.63,108.591 1931.72,108.624 1935.81,108.658 1939.9,108.692 1943.99,108.725 1948.07,108.759 1952.16,108.792 1956.25,108.826 1960.34,108.859 
  1964.42,108.893 1968.51,108.926 1972.6,108.96 1976.69,108.993 1980.78,109.027 1984.86,109.06 1988.95,109.094 1993.04,109.127 1997.13,109.16 2001.21,109.194 
  2005.3,109.227 2009.39,109.259 2013.48,109.292 2017.56,109.324 2021.65,109.356 2025.74,109.388 2029.83,109.42 2033.92,109.451 2038,109.482 2042.09,109.513 
  2046.18,109.543 2050.27,109.573 2054.35,109.603 2058.44,109.632 2062.53,109.661 2066.62,109.69 2070.7,109.718 2074.79,109.746 2078.88,109.774 2082.97,109.801 
  2087.06,109.828 2091.14,109.854 2095.23,109.88 2099.32,109.906 2103.41,109.931 2107.49,109.956 2111.58,109.981 2115.67,110.005 2119.76,110.029 2123.84,110.053 
  2127.93,110.076 2132.02,110.099 2136.11,110.122 2140.2,110.145 2144.28,110.167 2148.37,110.189 2152.46,110.211 2156.55,110.232 2160.63,110.254 2164.72,110.275 
  2168.81,110.296 2172.9,110.317 2176.98,110.338 2181.07,110.359 2185.16,110.38 2189.25,110.401 2193.34,110.422 2197.42,110.443 2201.51,110.464 2205.6,110.485 
  2209.69,110.506 2213.77,110.528 2217.86,110.549 2221.95,110.571 2226.04,110.593 2230.12,110.616 2234.21,110.639 2238.3,110.662 2242.39,110.686 2246.48,110.709 
  2250.56,110.733 2254.65,110.756 2258.74,110.779 2262.83,110.801 2266.91,110.824 2271,110.846 2275.09,110.868 2279.18,110.89 2283.26,110.911 2287.35,110.933 
  2291.44,110.954 
  "/>
<polyline clip-path="url(#clip072)" style="stroke:#e26f46; stroke-linecap:butt; stroke-linejoin:round; stroke-width:4; stroke-opacity:1; fill:none" points="
  247.59,1384.24 251.677,1376.5 255.765,1368.75 259.853,1360.97 263.94,1353.18 268.028,1345.37 272.116,1337.54 276.203,1329.68 280.291,1321.81 284.379,1313.92 
  288.467,1306.01 292.554,1298.07 296.642,1290.12 300.73,1282.14 304.817,1274.14 308.905,1266.12 312.993,1258.08 317.08,1250.02 321.168,1241.94 325.256,1233.84 
  329.344,1225.72 333.431,1217.58 337.519,1209.43 341.607,1201.26 345.694,1193.07 349.782,1184.87 353.87,1176.66 357.957,1168.43 362.045,1160.2 366.133,1151.96 
  370.221,1143.72 374.308,1135.48 378.396,1127.25 382.484,1119.02 386.571,1110.81 390.659,1102.61 394.747,1094.44 398.834,1086.29 402.922,1078.19 407.01,1070.12 
  411.098,1062.1 415.185,1054.14 419.273,1046.25 423.361,1038.43 427.448,1030.69 431.536,1023.06 435.624,1015.53 439.712,1008.13 443.799,1000.86 447.887,993.728 
  451.975,986.754 456.062,979.945 460.15,973.314 464.238,966.871 468.325,960.627 472.413,954.594 476.501,948.783 480.589,943.204 484.676,937.869 488.764,932.79 
  492.852,927.973 496.939,923.421 501.027,919.136 505.115,915.12 509.202,911.373 513.29,907.895 517.378,904.684 521.466,901.739 525.553,899.057 529.641,896.634 
  533.729,894.464 537.816,892.542 541.904,890.862 545.992,889.415 550.079,888.193 554.167,887.187 558.255,886.385 562.343,885.778 566.43,885.353 570.518,885.106 
  574.606,885.026 578.693,885.107 582.781,885.339 586.869,885.716 590.956,886.23 595.044,886.872 599.132,887.637 603.22,888.518 607.307,889.507 611.395,890.597 
  615.483,891.784 619.57,893.059 623.658,894.419 627.746,895.856 631.833,897.365 635.921,898.941 640.009,900.579 644.097,902.274 648.184,904.021 652.272,905.817 
  656.36,907.657 660.447,909.54 664.535,911.463 668.623,913.423 672.711,915.417 676.798,917.443 680.886,919.498 684.974,921.581 689.061,923.688 693.149,925.817 
  697.237,927.967 701.324,930.134 705.412,932.318 709.5,934.515 713.588,936.725 717.675,938.944 721.763,941.172 725.851,943.406 729.938,945.646 734.026,947.891 
  738.114,950.14 742.201,952.392 746.289,954.647 750.377,956.905 754.465,959.164 758.552,961.424 762.64,963.684 766.728,965.944 770.815,968.202 774.903,970.459 
  778.991,972.713 783.078,974.964 787.166,977.212 791.254,979.455 795.342,981.693 799.429,983.925 803.517,986.151 807.605,988.371 811.692,990.582 815.78,992.785 
  819.868,994.98 823.955,997.167 828.043,999.345 832.131,1001.52 836.219,1003.68 840.306,1005.83 844.394,1007.98 848.482,1010.11 852.569,1012.24 856.657,1014.36 
  860.745,1016.47 864.832,1018.57 868.92,1020.66 873.008,1022.75 877.096,1024.82 881.183,1026.88 885.271,1028.94 889.359,1030.98 893.446,1033.02 897.534,1035.04 
  901.622,1037.06 905.71,1039.06 909.797,1041.06 913.885,1043.04 917.973,1045.01 922.06,1046.98 926.148,1048.93 930.236,1050.87 934.323,1052.8 938.411,1054.72 
  942.499,1056.63 946.587,1058.53 950.674,1060.42 954.762,1062.3 958.85,1064.17 962.937,1066.03 967.025,1067.88 971.113,1069.73 975.2,1071.56 979.288,1073.38 
  983.376,1075.19 987.464,1076.99 991.551,1078.78 995.639,1080.56 999.727,1082.33 1003.81,1084.09 1007.9,1085.85 1011.99,1087.59 1016.08,1089.32 1020.17,1091.04 
  1024.25,1092.76 1028.34,1094.46 1032.43,1096.15 1036.52,1097.84 1040.6,1099.51 1044.69,1101.17 1048.78,1102.83 1052.87,1104.47 1056.95,1106.11 1061.04,1107.73 
  1065.13,1109.35 1069.22,1110.96 1073.31,1112.56 1077.39,1114.14 1081.48,1115.72 1085.57,1117.29 1089.66,1118.86 1093.74,1120.41 1097.83,1121.95 1101.92,1123.49 
  1106.01,1125.01 1110.09,1126.53 1114.18,1128.04 1118.27,1129.54 1122.36,1131.03 1126.45,1132.52 1130.53,1133.99 1134.62,1135.46 1138.71,1136.91 1142.8,1138.36 
  1146.88,1139.81 1150.97,1141.24 1155.06,1142.66 1159.15,1144.08 1163.23,1145.49 1167.32,1146.89 1171.41,1148.28 1175.5,1149.66 1179.59,1151.04 1183.67,1152.4 
  1187.76,1153.76 1191.85,1155.11 1195.94,1156.46 1200.02,1157.79 1204.11,1159.12 1208.2,1160.44 1212.29,1161.75 1216.37,1163.06 1220.46,1164.35 1224.55,1165.64 
  1228.64,1166.92 1232.73,1168.2 1236.81,1169.47 1240.9,1170.73 1244.99,1171.98 1249.08,1173.22 1253.16,1174.46 1257.25,1175.69 1261.34,1176.91 1265.43,1178.13 
  1269.51,1179.34 1273.6,1180.54 1277.69,1181.74 1281.78,1182.93 1285.87,1184.11 1289.95,1185.28 1294.04,1186.45 1298.13,1187.61 1302.22,1188.76 1306.3,1189.91 
  1310.39,1191.05 1314.48,1192.19 1318.57,1193.31 1322.66,1194.43 1326.74,1195.55 1330.83,1196.66 1334.92,1197.76 1339.01,1198.85 1343.09,1199.94 1347.18,1201.02 
  1351.27,1202.1 1355.36,1203.17 1359.44,1204.23 1363.53,1205.29 1367.62,1206.34 1371.71,1207.38 1375.8,1208.42 1379.88,1209.45 1383.97,1210.48 1388.06,1211.5 
  1392.15,1212.51 1396.23,1213.52 1400.32,1214.52 1404.41,1215.52 1408.5,1216.51 1412.58,1217.5 1416.67,1218.48 1420.76,1219.45 1424.85,1220.42 1428.94,1221.38 
  1433.02,1222.34 1437.11,1223.29 1441.2,1224.23 1445.29,1225.17 1449.37,1226.11 1453.46,1227.04 1457.55,1227.96 1461.64,1228.88 1465.72,1229.79 1469.81,1230.7 
  1473.9,1231.6 1477.99,1232.5 1482.08,1233.39 1486.16,1234.27 1490.25,1235.15 1494.34,1236.03 1498.43,1236.9 1502.51,1237.77 1506.6,1238.63 1510.69,1239.48 
  1514.78,1240.33 1518.86,1241.18 1522.95,1242.02 1527.04,1242.85 1531.13,1243.68 1535.22,1244.51 1539.3,1245.33 1543.39,1246.15 1547.48,1246.96 1551.57,1247.76 
  1555.65,1248.57 1559.74,1249.36 1563.83,1250.16 1567.92,1250.94 1572,1251.73 1576.09,1252.5 1580.18,1253.28 1584.27,1254.05 1588.36,1254.81 1592.44,1255.57 
  1596.53,1256.33 1600.62,1257.08 1604.71,1257.83 1608.79,1258.57 1612.88,1259.31 1616.97,1260.04 1621.06,1260.77 1625.15,1261.5 1629.23,1262.22 1633.32,1262.94 
  1637.41,1263.65 1641.5,1264.36 1645.58,1265.06 1649.67,1265.76 1653.76,1266.46 1657.85,1267.15 1661.93,1267.84 1666.02,1268.52 1670.11,1269.2 1674.2,1269.88 
  1678.29,1270.55 1682.37,1271.22 1686.46,1271.89 1690.55,1272.55 1694.64,1273.2 1698.72,1273.86 1702.81,1274.51 1706.9,1275.15 1710.99,1275.79 1715.07,1276.43 
  1719.16,1277.07 1723.25,1277.7 1727.34,1278.32 1731.43,1278.95 1735.51,1279.57 1739.6,1280.18 1743.69,1280.8 1747.78,1281.4 1751.86,1282.01 1755.95,1282.61 
  1760.04,1283.21 1764.13,1283.8 1768.21,1284.39 1772.3,1284.98 1776.39,1285.56 1780.48,1286.14 1784.57,1286.72 1788.65,1287.29 1792.74,1287.86 1796.83,1288.43 
  1800.92,1288.99 1805,1289.55 1809.09,1290.11 1813.18,1290.66 1817.27,1291.21 1821.35,1291.76 1825.44,1292.3 1829.53,1292.84 1833.62,1293.38 1837.71,1293.91 
  1841.79,1294.44 1845.88,1294.97 1849.97,1295.49 1854.06,1296.01 1858.14,1296.53 1862.23,1297.05 1866.32,1297.56 1870.41,1298.07 1874.49,1298.57 1878.58,1299.07 
  1882.67,1299.57 1886.76,1300.07 1890.85,1300.56 1894.93,1301.06 1899.02,1301.54 1903.11,1302.03 1907.2,1302.51 1911.28,1302.99 1915.37,1303.47 1919.46,1303.94 
  1923.55,1304.41 1927.63,1304.88 1931.72,1305.35 1935.81,1305.81 1939.9,1306.27 1943.99,1306.73 1948.07,1307.19 1952.16,1307.64 1956.25,1308.09 1960.34,1308.54 
  1964.42,1308.99 1968.51,1309.43 1972.6,1309.87 1976.69,1310.31 1980.78,1310.75 1984.86,1311.18 1988.95,1311.61 1993.04,1312.04 1997.13,1312.47 2001.21,1312.89 
  2005.3,1313.32 2009.39,1313.74 2013.48,1314.15 2017.56,1314.57 2021.65,1314.98 2025.74,1315.39 2029.83,1315.8 2033.92,1316.2 2038,1316.6 2042.09,1317 
  2046.18,1317.4 2050.27,1317.8 2054.35,1318.19 2058.44,1318.58 2062.53,1318.96 2066.62,1319.35 2070.7,1319.73 2074.79,1320.11 2078.88,1320.49 2082.97,1320.86 
  2087.06,1321.24 2091.14,1321.61 2095.23,1321.97 2099.32,1322.34 2103.41,1322.7 2107.49,1323.06 2111.58,1323.42 2115.67,1323.78 2119.76,1324.13 2123.84,1324.48 
  2127.93,1324.83 2132.02,1325.18 2136.11,1325.52 2140.2,1325.86 2144.28,1326.2 2148.37,1326.54 2152.46,1326.88 2156.55,1327.21 2160.63,1327.54 2164.72,1327.87 
  2168.81,1328.2 2172.9,1328.53 2176.98,1328.85 2181.07,1329.17 2185.16,1329.49 2189.25,1329.81 2193.34,1330.13 2197.42,1330.44 2201.51,1330.76 2205.6,1331.07 
  2209.69,1331.38 2213.77,1331.69 2217.86,1332 2221.95,1332.3 2226.04,1332.61 2230.12,1332.91 2234.21,1333.22 2238.3,1333.52 2242.39,1333.82 2246.48,1334.12 
  2250.56,1334.41 2254.65,1334.71 2258.74,1335 2262.83,1335.29 2266.91,1335.58 2271,1335.87 2275.09,1336.15 2279.18,1336.44 2283.26,1336.72 2287.35,1337 
  2291.44,1337.28 
  "/>
<path clip-path="url(#clip070)" d="
M1587.09 248.629 L2280.54 248.629 L2280.54 93.1086 L1587.09 93.1086  Z
  " fill="#ffffff" fill-rule="evenodd" fill-opacity="1"/>
<polyline clip-path="url(#clip070)" style="stroke:#000000; stroke-linecap:butt; stroke-linejoin:round; stroke-width:4; stroke-opacity:1; fill:none" points="
  1587.09,248.629 2280.54,248.629 2280.54,93.1086 1587.09,93.1086 1587.09,248.629 
  "/>
<polyline clip-path="url(#clip070)" style="stroke:#009af9; stroke-linecap:butt; stroke-linejoin:round; stroke-width:4; stroke-opacity:1; fill:none" points="
  1611.16,144.949 1755.59,144.949 
  "/>
<path clip-path="url(#clip070)" d="M1800.01 141.28 Q1801.61 138.409 1803.83 137.044 Q1806.06 135.678 1809.06 135.678 Q1813.12 135.678 1815.31 138.525 Q1817.51 141.349 1817.51 146.581 L1817.51 162.229 L1813.23 162.229 L1813.23 146.719 Q1813.23 142.993 1811.91 141.187 Q1810.59 139.382 1807.88 139.382 Q1804.57 139.382 1802.65 141.581 Q1800.73 143.78 1800.73 147.576 L1800.73 162.229 L1796.45 162.229 L1796.45 146.719 Q1796.45 142.969 1795.13 141.187 Q1793.81 139.382 1791.06 139.382 Q1787.79 139.382 1785.87 141.604 Q1783.95 143.803 1783.95 147.576 L1783.95 162.229 L1779.67 162.229 L1779.67 136.303 L1783.95 136.303 L1783.95 140.331 Q1785.41 137.946 1787.44 136.812 Q1789.48 135.678 1792.28 135.678 Q1795.11 135.678 1797.07 137.113 Q1799.06 138.548 1800.01 141.28 Z" fill="#000000" fill-rule="evenodd" fill-opacity="1" /><path clip-path="url(#clip070)" d="M1837.79 149.196 Q1832.63 149.196 1830.64 150.377 Q1828.65 151.557 1828.65 154.405 Q1828.65 156.673 1830.13 158.016 Q1831.63 159.335 1834.2 159.335 Q1837.75 159.335 1839.87 156.835 Q1842.03 154.312 1842.03 150.145 L1842.03 149.196 L1837.79 149.196 M1846.29 147.437 L1846.29 162.229 L1842.03 162.229 L1842.03 158.293 Q1840.57 160.655 1838.39 161.789 Q1836.22 162.9 1833.07 162.9 Q1829.09 162.9 1826.73 160.678 Q1824.39 158.432 1824.39 154.682 Q1824.39 150.307 1827.31 148.085 Q1830.25 145.863 1836.06 145.863 L1842.03 145.863 L1842.03 145.446 Q1842.03 142.507 1840.08 140.909 Q1838.16 139.289 1834.67 139.289 Q1832.44 139.289 1830.34 139.821 Q1828.23 140.354 1826.29 141.419 L1826.29 137.483 Q1828.62 136.581 1830.82 136.141 Q1833.02 135.678 1835.11 135.678 Q1840.73 135.678 1843.51 138.594 Q1846.29 141.511 1846.29 147.437 Z" fill="#000000" fill-rule="evenodd" fill-opacity="1" /><path clip-path="url(#clip070)" d="M1871.59 137.067 L1871.59 141.094 Q1869.78 140.169 1867.84 139.706 Q1865.89 139.243 1863.81 139.243 Q1860.64 139.243 1859.04 140.215 Q1857.47 141.187 1857.47 143.131 Q1857.47 144.613 1858.6 145.469 Q1859.74 146.303 1863.16 147.067 L1864.62 147.391 Q1869.16 148.363 1871.06 150.145 Q1872.98 151.905 1872.98 155.076 Q1872.98 158.687 1870.11 160.793 Q1867.26 162.9 1862.26 162.9 Q1860.18 162.9 1857.91 162.483 Q1855.66 162.09 1853.16 161.28 L1853.16 156.881 Q1855.52 158.108 1857.81 158.733 Q1860.11 159.335 1862.35 159.335 Q1865.36 159.335 1866.98 158.317 Q1868.6 157.275 1868.6 155.4 Q1868.6 153.664 1867.42 152.738 Q1866.26 151.812 1862.31 150.956 L1860.82 150.608 Q1856.87 149.775 1855.11 148.062 Q1853.35 146.326 1853.35 143.317 Q1853.35 139.659 1855.94 137.669 Q1858.53 135.678 1863.3 135.678 Q1865.66 135.678 1867.74 136.025 Q1869.83 136.372 1871.59 137.067 Z" fill="#000000" fill-rule="evenodd" fill-opacity="1" /><path clip-path="url(#clip070)" d="M1896.29 137.067 L1896.29 141.094 Q1894.48 140.169 1892.54 139.706 Q1890.59 139.243 1888.51 139.243 Q1885.34 139.243 1883.74 140.215 Q1882.17 141.187 1882.17 143.131 Q1882.17 144.613 1883.3 145.469 Q1884.43 146.303 1887.86 147.067 L1889.32 147.391 Q1893.86 148.363 1895.75 150.145 Q1897.68 151.905 1897.68 155.076 Q1897.68 158.687 1894.81 160.793 Q1891.96 162.9 1886.96 162.9 Q1884.87 162.9 1882.61 162.483 Q1880.36 162.09 1877.86 161.28 L1877.86 156.881 Q1880.22 158.108 1882.51 158.733 Q1884.81 159.335 1887.05 159.335 Q1890.06 159.335 1891.68 158.317 Q1893.3 157.275 1893.3 155.4 Q1893.3 153.664 1892.12 152.738 Q1890.96 151.812 1887 150.956 L1885.52 150.608 Q1881.56 149.775 1879.81 148.062 Q1878.05 146.326 1878.05 143.317 Q1878.05 139.659 1880.64 137.669 Q1883.23 135.678 1888 135.678 Q1890.36 135.678 1892.44 136.025 Q1894.53 136.372 1896.29 137.067 Z" fill="#000000" fill-rule="evenodd" fill-opacity="1" /><path clip-path="url(#clip070)" d="M1905.06 156.349 L1909.94 156.349 L1909.94 162.229 L1905.06 162.229 L1905.06 156.349 Z" fill="#000000" fill-rule="evenodd" fill-opacity="1" /><path clip-path="url(#clip070)" d="M1936.05 137.067 L1936.05 141.094 Q1934.25 140.169 1932.3 139.706 Q1930.36 139.243 1928.28 139.243 Q1925.11 139.243 1923.51 140.215 Q1921.93 141.187 1921.93 143.131 Q1921.93 144.613 1923.07 145.469 Q1924.2 146.303 1927.63 147.067 L1929.09 147.391 Q1933.62 148.363 1935.52 150.145 Q1937.44 151.905 1937.44 155.076 Q1937.44 158.687 1934.57 160.793 Q1931.73 162.9 1926.73 162.9 Q1924.64 162.9 1922.37 162.483 Q1920.13 162.09 1917.63 161.28 L1917.63 156.881 Q1919.99 158.108 1922.28 158.733 Q1924.57 159.335 1926.82 159.335 Q1929.83 159.335 1931.45 158.317 Q1933.07 157.275 1933.07 155.4 Q1933.07 153.664 1931.89 152.738 Q1930.73 151.812 1926.77 150.956 L1925.29 150.608 Q1921.33 149.775 1919.57 148.062 Q1917.81 146.326 1917.81 143.317 Q1917.81 139.659 1920.41 137.669 Q1923 135.678 1927.77 135.678 Q1930.13 135.678 1932.21 136.025 Q1934.3 136.372 1936.05 137.067 Z" fill="#000000" fill-rule="evenodd" fill-opacity="1" /><path clip-path="url(#clip070)" d="M1969.53 126.257 Q1966.43 131.581 1964.92 136.789 Q1963.42 141.997 1963.42 147.344 Q1963.42 152.692 1964.92 157.946 Q1966.45 163.178 1969.53 168.479 L1965.82 168.479 Q1962.35 163.039 1960.61 157.784 Q1958.9 152.53 1958.9 147.344 Q1958.9 142.182 1960.61 136.951 Q1962.33 131.72 1965.82 126.257 L1969.53 126.257 Z" fill="#000000" fill-rule="evenodd" fill-opacity="1" /><path clip-path="url(#clip070)" d="M1992.56 143.594 Q1995.92 144.312 1997.79 146.581 Q1999.69 148.849 1999.69 152.182 Q1999.69 157.298 1996.17 160.099 Q1992.65 162.9 1986.17 162.9 Q1983.99 162.9 1981.68 162.46 Q1979.39 162.043 1976.93 161.187 L1976.93 156.673 Q1978.88 157.807 1981.19 158.386 Q1983.51 158.965 1986.03 158.965 Q1990.43 158.965 1992.72 157.229 Q1995.04 155.493 1995.04 152.182 Q1995.04 149.127 1992.88 147.414 Q1990.75 145.678 1986.93 145.678 L1982.91 145.678 L1982.91 141.835 L1987.12 141.835 Q1990.57 141.835 1992.4 140.469 Q1994.23 139.081 1994.23 136.488 Q1994.23 133.826 1992.33 132.414 Q1990.45 130.979 1986.93 130.979 Q1985.01 130.979 1982.81 131.395 Q1980.61 131.812 1977.98 132.692 L1977.98 128.525 Q1980.64 127.784 1982.95 127.414 Q1985.29 127.044 1987.35 127.044 Q1992.67 127.044 1995.78 129.474 Q1998.88 131.882 1998.88 136.002 Q1998.88 138.872 1997.24 140.863 Q1995.59 142.831 1992.56 143.594 Z" fill="#000000" fill-rule="evenodd" fill-opacity="1" /><path clip-path="url(#clip070)" d="M2022.72 143.594 Q2026.08 144.312 2027.95 146.581 Q2029.85 148.849 2029.85 152.182 Q2029.85 157.298 2026.33 160.099 Q2022.81 162.9 2016.33 162.9 Q2014.16 162.9 2011.84 162.46 Q2009.55 162.043 2007.1 161.187 L2007.1 156.673 Q2009.04 157.807 2011.36 158.386 Q2013.67 158.965 2016.19 158.965 Q2020.59 158.965 2022.88 157.229 Q2025.2 155.493 2025.2 152.182 Q2025.2 149.127 2023.05 147.414 Q2020.92 145.678 2017.1 145.678 L2013.07 145.678 L2013.07 141.835 L2017.28 141.835 Q2020.73 141.835 2022.56 140.469 Q2024.39 139.081 2024.39 136.488 Q2024.39 133.826 2022.49 132.414 Q2020.61 130.979 2017.1 130.979 Q2015.17 130.979 2012.98 131.395 Q2010.78 131.812 2008.14 132.692 L2008.14 128.525 Q2010.8 127.784 2013.11 127.414 Q2015.45 127.044 2017.51 127.044 Q2022.84 127.044 2025.94 129.474 Q2029.04 131.882 2029.04 136.002 Q2029.04 138.872 2027.4 140.863 Q2025.75 142.831 2022.72 143.594 Z" fill="#000000" fill-rule="evenodd" fill-opacity="1" /><path clip-path="url(#clip070)" d="M2038.76 127.669 L2057.12 127.669 L2057.12 131.604 L2043.04 131.604 L2043.04 140.076 Q2044.06 139.729 2045.08 139.567 Q2046.1 139.382 2047.12 139.382 Q2052.91 139.382 2056.29 142.553 Q2059.67 145.724 2059.67 151.141 Q2059.67 156.719 2056.19 159.821 Q2052.72 162.9 2046.4 162.9 Q2044.23 162.9 2041.96 162.53 Q2039.71 162.159 2037.3 161.418 L2037.3 156.719 Q2039.39 157.854 2041.61 158.409 Q2043.83 158.965 2046.31 158.965 Q2050.31 158.965 2052.65 156.858 Q2054.99 154.752 2054.99 151.141 Q2054.99 147.53 2052.65 145.423 Q2050.31 143.317 2046.31 143.317 Q2044.43 143.317 2042.56 143.733 Q2040.71 144.15 2038.76 145.03 L2038.76 127.669 Z" fill="#000000" fill-rule="evenodd" fill-opacity="1" /><path clip-path="url(#clip070)" d="M2068.92 127.669 L2087.28 127.669 L2087.28 131.604 L2073.21 131.604 L2073.21 140.076 Q2074.23 139.729 2075.24 139.567 Q2076.26 139.382 2077.28 139.382 Q2083.07 139.382 2086.45 142.553 Q2089.83 145.724 2089.83 151.141 Q2089.83 156.719 2086.35 159.821 Q2082.88 162.9 2076.56 162.9 Q2074.39 162.9 2072.12 162.53 Q2069.87 162.159 2067.47 161.418 L2067.47 156.719 Q2069.55 157.854 2071.77 158.409 Q2073.99 158.965 2076.47 158.965 Q2080.48 158.965 2082.81 156.858 Q2085.15 154.752 2085.15 151.141 Q2085.15 147.53 2082.81 145.423 Q2080.48 143.317 2076.47 143.317 Q2074.6 143.317 2072.72 143.733 Q2070.87 144.15 2068.92 145.03 L2068.92 127.669 Z" fill="#000000" fill-rule="evenodd" fill-opacity="1" /><path clip-path="url(#clip070)" d="M2111.89 131.743 L2100.08 150.192 L2111.89 150.192 L2111.89 131.743 M2110.66 127.669 L2116.54 127.669 L2116.54 150.192 L2121.47 150.192 L2121.47 154.081 L2116.54 154.081 L2116.54 162.229 L2111.89 162.229 L2111.89 154.081 L2096.29 154.081 L2096.29 149.567 L2110.66 127.669 Z" fill="#000000" fill-rule="evenodd" fill-opacity="1" /><path clip-path="url(#clip070)" d="M2142.05 131.743 L2130.24 150.192 L2142.05 150.192 L2142.05 131.743 M2140.82 127.669 L2146.7 127.669 L2146.7 150.192 L2151.63 150.192 L2151.63 154.081 L2146.7 154.081 L2146.7 162.229 L2142.05 162.229 L2142.05 154.081 L2126.45 154.081 L2126.45 149.567 L2140.82 127.669 Z" fill="#000000" fill-rule="evenodd" fill-opacity="1" /><path clip-path="url(#clip070)" d="M2173.53 143.594 Q2176.89 144.312 2178.76 146.581 Q2180.66 148.849 2180.66 152.182 Q2180.66 157.298 2177.14 160.099 Q2173.62 162.9 2167.14 162.9 Q2164.97 162.9 2162.65 162.46 Q2160.36 162.043 2157.91 161.187 L2157.91 156.673 Q2159.85 157.807 2162.16 158.386 Q2164.48 158.965 2167 158.965 Q2171.4 158.965 2173.69 157.229 Q2176.01 155.493 2176.01 152.182 Q2176.01 149.127 2173.85 147.414 Q2171.72 145.678 2167.91 145.678 L2163.88 145.678 L2163.88 141.835 L2168.09 141.835 Q2171.54 141.835 2173.37 140.469 Q2175.2 139.081 2175.2 136.488 Q2175.2 133.826 2173.3 132.414 Q2171.42 130.979 2167.91 130.979 Q2165.98 130.979 2163.79 131.395 Q2161.59 131.812 2158.95 132.692 L2158.95 128.525 Q2161.61 127.784 2163.92 127.414 Q2166.26 127.044 2168.32 127.044 Q2173.65 127.044 2176.75 129.474 Q2179.85 131.882 2179.85 136.002 Q2179.85 138.872 2178.21 140.863 Q2176.56 142.831 2173.53 143.594 Z" fill="#000000" fill-rule="evenodd" fill-opacity="1" /><path clip-path="url(#clip070)" d="M2193.55 158.293 L2209.87 158.293 L2209.87 162.229 L2187.93 162.229 L2187.93 158.293 Q2190.59 155.539 2195.17 150.909 Q2199.78 146.256 2200.96 144.914 Q2203.21 142.391 2204.09 140.655 Q2204.99 138.895 2204.99 137.206 Q2204.99 134.451 2203.04 132.715 Q2201.12 130.979 2198.02 130.979 Q2195.82 130.979 2193.37 131.743 Q2190.94 132.507 2188.16 134.057 L2188.16 129.335 Q2190.98 128.201 2193.44 127.622 Q2195.89 127.044 2197.93 127.044 Q2203.3 127.044 2206.49 129.729 Q2209.69 132.414 2209.69 136.905 Q2209.69 139.034 2208.88 140.956 Q2208.09 142.854 2205.98 145.446 Q2205.41 146.118 2202.3 149.335 Q2199.2 152.53 2193.55 158.293 Z" fill="#000000" fill-rule="evenodd" fill-opacity="1" /><path clip-path="url(#clip070)" d="M2218.41 126.257 L2222.12 126.257 Q2225.59 131.72 2227.3 136.951 Q2229.04 142.182 2229.04 147.344 Q2229.04 152.53 2227.3 157.784 Q2225.59 163.039 2222.12 168.479 L2218.41 168.479 Q2221.49 163.178 2223 157.946 Q2224.53 152.692 2224.53 147.344 Q2224.53 141.997 2223 136.789 Q2221.49 131.581 2218.41 126.257 Z" fill="#000000" fill-rule="evenodd" fill-opacity="1" /><polyline clip-path="url(#clip070)" style="stroke:#e26f46; stroke-linecap:butt; stroke-linejoin:round; stroke-width:4; stroke-opacity:1; fill:none" points="
  1611.16,196.789 1755.59,196.789 
  "/>
<path clip-path="url(#clip070)" d="M1800.01 193.12 Q1801.61 190.249 1803.83 188.884 Q1806.06 187.518 1809.06 187.518 Q1813.12 187.518 1815.31 190.365 Q1817.51 193.189 1817.51 198.421 L1817.51 214.069 L1813.23 214.069 L1813.23 198.559 Q1813.23 194.833 1811.91 193.027 Q1810.59 191.222 1807.88 191.222 Q1804.57 191.222 1802.65 193.421 Q1800.73 195.62 1800.73 199.416 L1800.73 214.069 L1796.45 214.069 L1796.45 198.559 Q1796.45 194.809 1795.13 193.027 Q1793.81 191.222 1791.06 191.222 Q1787.79 191.222 1785.87 193.444 Q1783.95 195.643 1783.95 199.416 L1783.95 214.069 L1779.67 214.069 L1779.67 188.143 L1783.95 188.143 L1783.95 192.171 Q1785.41 189.786 1787.44 188.652 Q1789.48 187.518 1792.28 187.518 Q1795.11 187.518 1797.07 188.953 Q1799.06 190.388 1800.01 193.12 Z" fill="#000000" fill-rule="evenodd" fill-opacity="1" /><path clip-path="url(#clip070)" d="M1837.79 201.036 Q1832.63 201.036 1830.64 202.217 Q1828.65 203.397 1828.65 206.245 Q1828.65 208.513 1830.13 209.856 Q1831.63 211.175 1834.2 211.175 Q1837.75 211.175 1839.87 208.675 Q1842.03 206.152 1842.03 201.985 L1842.03 201.036 L1837.79 201.036 M1846.29 199.277 L1846.29 214.069 L1842.03 214.069 L1842.03 210.133 Q1840.57 212.495 1838.39 213.629 Q1836.22 214.74 1833.07 214.74 Q1829.09 214.74 1826.73 212.518 Q1824.39 210.272 1824.39 206.522 Q1824.39 202.147 1827.31 199.925 Q1830.25 197.703 1836.06 197.703 L1842.03 197.703 L1842.03 197.286 Q1842.03 194.347 1840.08 192.749 Q1838.16 191.129 1834.67 191.129 Q1832.44 191.129 1830.34 191.661 Q1828.23 192.194 1826.29 193.259 L1826.29 189.323 Q1828.62 188.421 1830.82 187.981 Q1833.02 187.518 1835.11 187.518 Q1840.73 187.518 1843.51 190.434 Q1846.29 193.351 1846.29 199.277 Z" fill="#000000" fill-rule="evenodd" fill-opacity="1" /><path clip-path="url(#clip070)" d="M1871.59 188.907 L1871.59 192.934 Q1869.78 192.009 1867.84 191.546 Q1865.89 191.083 1863.81 191.083 Q1860.64 191.083 1859.04 192.055 Q1857.47 193.027 1857.47 194.971 Q1857.47 196.453 1858.6 197.309 Q1859.74 198.143 1863.16 198.907 L1864.62 199.231 Q1869.16 200.203 1871.06 201.985 Q1872.98 203.745 1872.98 206.916 Q1872.98 210.527 1870.11 212.633 Q1867.26 214.74 1862.26 214.74 Q1860.18 214.74 1857.91 214.323 Q1855.66 213.93 1853.16 213.12 L1853.16 208.721 Q1855.52 209.948 1857.81 210.573 Q1860.11 211.175 1862.35 211.175 Q1865.36 211.175 1866.98 210.157 Q1868.6 209.115 1868.6 207.24 Q1868.6 205.504 1867.42 204.578 Q1866.26 203.652 1862.31 202.796 L1860.82 202.448 Q1856.87 201.615 1855.11 199.902 Q1853.35 198.166 1853.35 195.157 Q1853.35 191.499 1855.94 189.509 Q1858.53 187.518 1863.3 187.518 Q1865.66 187.518 1867.74 187.865 Q1869.83 188.212 1871.59 188.907 Z" fill="#000000" fill-rule="evenodd" fill-opacity="1" /><path clip-path="url(#clip070)" d="M1896.29 188.907 L1896.29 192.934 Q1894.48 192.009 1892.54 191.546 Q1890.59 191.083 1888.51 191.083 Q1885.34 191.083 1883.74 192.055 Q1882.17 193.027 1882.17 194.971 Q1882.17 196.453 1883.3 197.309 Q1884.43 198.143 1887.86 198.907 L1889.32 199.231 Q1893.86 200.203 1895.75 201.985 Q1897.68 203.745 1897.68 206.916 Q1897.68 210.527 1894.81 212.633 Q1891.96 214.74 1886.96 214.74 Q1884.87 214.74 1882.61 214.323 Q1880.36 213.93 1877.86 213.12 L1877.86 208.721 Q1880.22 209.948 1882.51 210.573 Q1884.81 211.175 1887.05 211.175 Q1890.06 211.175 1891.68 210.157 Q1893.3 209.115 1893.3 207.24 Q1893.3 205.504 1892.12 204.578 Q1890.96 203.652 1887 202.796 L1885.52 202.448 Q1881.56 201.615 1879.81 199.902 Q1878.05 198.166 1878.05 195.157 Q1878.05 191.499 1880.64 189.509 Q1883.23 187.518 1888 187.518 Q1890.36 187.518 1892.44 187.865 Q1894.53 188.212 1896.29 188.907 Z" fill="#000000" fill-rule="evenodd" fill-opacity="1" /><path clip-path="url(#clip070)" d="M1905.06 208.189 L1909.94 208.189 L1909.94 214.069 L1905.06 214.069 L1905.06 208.189 Z" fill="#000000" fill-rule="evenodd" fill-opacity="1" /><path clip-path="url(#clip070)" d="M1916.47 188.143 L1920.99 188.143 L1929.09 209.902 L1937.19 188.143 L1941.7 188.143 L1931.98 214.069 L1926.19 214.069 L1916.47 188.143 Z" fill="#000000" fill-rule="evenodd" fill-opacity="1" /><path clip-path="url(#clip070)" d="M1972.88 178.097 Q1969.78 183.421 1968.28 188.629 Q1966.77 193.837 1966.77 199.184 Q1966.77 204.532 1968.28 209.786 Q1969.8 215.018 1972.88 220.319 L1969.18 220.319 Q1965.71 214.879 1963.97 209.624 Q1962.26 204.37 1962.26 199.184 Q1962.26 194.022 1963.97 188.791 Q1965.68 183.56 1969.18 178.097 L1972.88 178.097 Z" fill="#000000" fill-rule="evenodd" fill-opacity="1" /><path clip-path="url(#clip070)" d="M1995.92 195.434 Q1999.27 196.152 2001.15 198.421 Q2003.05 200.689 2003.05 204.022 Q2003.05 209.138 1999.53 211.939 Q1996.01 214.74 1989.53 214.74 Q1987.35 214.74 1985.04 214.3 Q1982.74 213.883 1980.29 213.027 L1980.29 208.513 Q1982.24 209.647 1984.55 210.226 Q1986.86 210.805 1989.39 210.805 Q1993.79 210.805 1996.08 209.069 Q1998.39 207.333 1998.39 204.022 Q1998.39 200.967 1996.24 199.254 Q1994.11 197.518 1990.29 197.518 L1986.26 197.518 L1986.26 193.675 L1990.48 193.675 Q1993.92 193.675 1995.75 192.309 Q1997.58 190.921 1997.58 188.328 Q1997.58 185.666 1995.68 184.254 Q1993.81 182.819 1990.29 182.819 Q1988.37 182.819 1986.17 183.235 Q1983.97 183.652 1981.33 184.532 L1981.33 180.365 Q1983.99 179.624 1986.31 179.254 Q1988.65 178.884 1990.71 178.884 Q1996.03 178.884 1999.13 181.314 Q2002.23 183.722 2002.23 187.842 Q2002.23 190.712 2000.59 192.703 Q1998.95 194.671 1995.92 195.434 Z" fill="#000000" fill-rule="evenodd" fill-opacity="1" /><path clip-path="url(#clip070)" d="M2026.08 195.434 Q2029.43 196.152 2031.31 198.421 Q2033.21 200.689 2033.21 204.022 Q2033.21 209.138 2029.69 211.939 Q2026.17 214.74 2019.69 214.74 Q2017.51 214.74 2015.2 214.3 Q2012.91 213.883 2010.45 213.027 L2010.45 208.513 Q2012.4 209.647 2014.71 210.226 Q2017.03 210.805 2019.55 210.805 Q2023.95 210.805 2026.24 209.069 Q2028.55 207.333 2028.55 204.022 Q2028.55 200.967 2026.4 199.254 Q2024.27 197.518 2020.45 197.518 L2016.42 197.518 L2016.42 193.675 L2020.64 193.675 Q2024.09 193.675 2025.92 192.309 Q2027.74 190.921 2027.74 188.328 Q2027.74 185.666 2025.85 184.254 Q2023.97 182.819 2020.45 182.819 Q2018.53 182.819 2016.33 183.235 Q2014.13 183.652 2011.49 184.532 L2011.49 180.365 Q2014.16 179.624 2016.47 179.254 Q2018.81 178.884 2020.87 178.884 Q2026.19 178.884 2029.3 181.314 Q2032.4 183.722 2032.4 187.842 Q2032.4 190.712 2030.75 192.703 Q2029.11 194.671 2026.08 195.434 Z" fill="#000000" fill-rule="evenodd" fill-opacity="1" /><path clip-path="url(#clip070)" d="M2042.12 179.509 L2060.48 179.509 L2060.48 183.444 L2046.4 183.444 L2046.4 191.916 Q2047.42 191.569 2048.44 191.407 Q2049.46 191.222 2050.48 191.222 Q2056.26 191.222 2059.64 194.393 Q2063.02 197.564 2063.02 202.981 Q2063.02 208.559 2059.55 211.661 Q2056.08 214.74 2049.76 214.74 Q2047.58 214.74 2045.31 214.37 Q2043.07 213.999 2040.66 213.258 L2040.66 208.559 Q2042.74 209.694 2044.97 210.249 Q2047.19 210.805 2049.67 210.805 Q2053.67 210.805 2056.01 208.698 Q2058.35 206.592 2058.35 202.981 Q2058.35 199.37 2056.01 197.263 Q2053.67 195.157 2049.67 195.157 Q2047.79 195.157 2045.92 195.573 Q2044.06 195.99 2042.12 196.87 L2042.12 179.509 Z" fill="#000000" fill-rule="evenodd" fill-opacity="1" /><path clip-path="url(#clip070)" d="M2072.28 179.509 L2090.64 179.509 L2090.64 183.444 L2076.56 183.444 L2076.56 191.916 Q2077.58 191.569 2078.6 191.407 Q2079.62 191.222 2080.64 191.222 Q2086.42 191.222 2089.8 194.393 Q2093.18 197.564 2093.18 202.981 Q2093.18 208.559 2089.71 211.661 Q2086.24 214.74 2079.92 214.74 Q2077.74 214.74 2075.48 214.37 Q2073.23 213.999 2070.82 213.258 L2070.82 208.559 Q2072.91 209.694 2075.13 210.249 Q2077.35 210.805 2079.83 210.805 Q2083.83 210.805 2086.17 208.698 Q2088.51 206.592 2088.51 202.981 Q2088.51 199.37 2086.17 197.263 Q2083.83 195.157 2079.83 195.157 Q2077.95 195.157 2076.08 195.573 Q2074.23 195.99 2072.28 196.87 L2072.28 179.509 Z" fill="#000000" fill-rule="evenodd" fill-opacity="1" /><path clip-path="url(#clip070)" d="M2115.24 183.583 L2103.44 202.032 L2115.24 202.032 L2115.24 183.583 M2114.02 179.509 L2119.9 179.509 L2119.9 202.032 L2124.83 202.032 L2124.83 205.921 L2119.9 205.921 L2119.9 214.069 L2115.24 214.069 L2115.24 205.921 L2099.64 205.921 L2099.64 201.407 L2114.02 179.509 Z" fill="#000000" fill-rule="evenodd" fill-opacity="1" /><path clip-path="url(#clip070)" d="M2145.41 183.583 L2133.6 202.032 L2145.41 202.032 L2145.41 183.583 M2144.18 179.509 L2150.06 179.509 L2150.06 202.032 L2154.99 202.032 L2154.99 205.921 L2150.06 205.921 L2150.06 214.069 L2145.41 214.069 L2145.41 205.921 L2129.8 205.921 L2129.8 201.407 L2144.18 179.509 Z" fill="#000000" fill-rule="evenodd" fill-opacity="1" /><path clip-path="url(#clip070)" d="M2176.89 195.434 Q2180.24 196.152 2182.12 198.421 Q2184.02 200.689 2184.02 204.022 Q2184.02 209.138 2180.5 211.939 Q2176.98 214.74 2170.5 214.74 Q2168.32 214.74 2166.01 214.3 Q2163.72 213.883 2161.26 213.027 L2161.26 208.513 Q2163.21 209.647 2165.52 210.226 Q2167.84 210.805 2170.36 210.805 Q2174.76 210.805 2177.05 209.069 Q2179.36 207.333 2179.36 204.022 Q2179.36 200.967 2177.21 199.254 Q2175.08 197.518 2171.26 197.518 L2167.23 197.518 L2167.23 193.675 L2171.45 193.675 Q2174.9 193.675 2176.72 192.309 Q2178.55 190.921 2178.55 188.328 Q2178.55 185.666 2176.66 184.254 Q2174.78 182.819 2171.26 182.819 Q2169.34 182.819 2167.14 183.235 Q2164.94 183.652 2162.3 184.532 L2162.3 180.365 Q2164.97 179.624 2167.28 179.254 Q2169.62 178.884 2171.68 178.884 Q2177 178.884 2180.1 181.314 Q2183.21 183.722 2183.21 187.842 Q2183.21 190.712 2181.56 192.703 Q2179.92 194.671 2176.89 195.434 Z" fill="#000000" fill-rule="evenodd" fill-opacity="1" /><path clip-path="url(#clip070)" d="M2207.05 195.434 Q2210.41 196.152 2212.28 198.421 Q2214.18 200.689 2214.18 204.022 Q2214.18 209.138 2210.66 211.939 Q2207.14 214.74 2200.66 214.74 Q2198.48 214.74 2196.17 214.3 Q2193.88 213.883 2191.42 213.027 L2191.42 208.513 Q2193.37 209.647 2195.68 210.226 Q2198 210.805 2200.52 210.805 Q2204.92 210.805 2207.21 209.069 Q2209.53 207.333 2209.53 204.022 Q2209.53 200.967 2207.37 199.254 Q2205.24 197.518 2201.42 197.518 L2197.4 197.518 L2197.4 193.675 L2201.61 193.675 Q2205.06 193.675 2206.89 192.309 Q2208.72 190.921 2208.72 188.328 Q2208.72 185.666 2206.82 184.254 Q2204.94 182.819 2201.42 182.819 Q2199.5 182.819 2197.3 183.235 Q2195.1 183.652 2192.47 184.532 L2192.47 180.365 Q2195.13 179.624 2197.44 179.254 Q2199.78 178.884 2201.84 178.884 Q2207.16 178.884 2210.27 181.314 Q2213.37 183.722 2213.37 187.842 Q2213.37 190.712 2211.72 192.703 Q2210.08 194.671 2207.05 195.434 Z" fill="#000000" fill-rule="evenodd" fill-opacity="1" /><path clip-path="url(#clip070)" d="M2221.77 178.097 L2225.47 178.097 Q2228.95 183.56 2230.66 188.791 Q2232.4 194.022 2232.4 199.184 Q2232.4 204.37 2230.66 209.624 Q2228.95 214.879 2225.47 220.319 L2221.77 220.319 Q2224.85 215.018 2226.35 209.786 Q2227.88 204.532 2227.88 199.184 Q2227.88 193.837 2226.35 188.629 Q2224.85 183.421 2221.77 178.097 Z" fill="#000000" fill-rule="evenodd" fill-opacity="1" /></svg>
