<?xml version="1.0" encoding="utf-8"?>
<svg xmlns="http://www.w3.org/2000/svg" xmlns:xlink="http://www.w3.org/1999/xlink" width="600" height="400" viewBox="0 0 2400 1600">
<defs>
  <clipPath id="clip520">
    <rect x="0" y="0" width="2400" height="1600"/>
  </clipPath>
</defs>
<path clip-path="url(#clip520)" d="
M0 1600 L2400 1600 L2400 0 L0 0  Z
  " fill="#ffffff" fill-rule="evenodd" fill-opacity="1"/>
<defs>
  <clipPath id="clip521">
    <rect x="480" y="0" width="1681" height="1600"/>
  </clipPath>
</defs>
<path clip-path="url(#clip520)" d="
M303.503 1401.58 L2352.76 1401.58 L2352.76 47.2441 L303.503 47.2441  Z
  " fill="#ffffff" fill-rule="evenodd" fill-opacity="1"/>
<defs>
  <clipPath id="clip522">
    <rect x="303" y="47" width="2050" height="1355"/>
  </clipPath>
</defs>
<polyline clip-path="url(#clip522)" style="stroke:#000000; stroke-linecap:butt; stroke-linejoin:round; stroke-width:2; stroke-opacity:0.1; fill:none" points="
  361.501,1401.58 361.501,47.2441 
  "/>
<polyline clip-path="url(#clip522)" style="stroke:#000000; stroke-linecap:butt; stroke-linejoin:round; stroke-width:2; stroke-opacity:0.1; fill:none" points="
  748.152,1401.58 748.152,47.2441 
  "/>
<polyline clip-path="url(#clip522)" style="stroke:#000000; stroke-linecap:butt; stroke-linejoin:round; stroke-width:2; stroke-opacity:0.1; fill:none" points="
  1134.8,1401.58 1134.8,47.2441 
  "/>
<polyline clip-path="url(#clip522)" style="stroke:#000000; stroke-linecap:butt; stroke-linejoin:round; stroke-width:2; stroke-opacity:0.1; fill:none" points="
  1521.46,1401.58 1521.46,47.2441 
  "/>
<polyline clip-path="url(#clip522)" style="stroke:#000000; stroke-linecap:butt; stroke-linejoin:round; stroke-width:2; stroke-opacity:0.1; fill:none" points="
  1908.11,1401.58 1908.11,47.2441 
  "/>
<polyline clip-path="url(#clip522)" style="stroke:#000000; stroke-linecap:butt; stroke-linejoin:round; stroke-width:2; stroke-opacity:0.1; fill:none" points="
  2294.76,1401.58 2294.76,47.2441 
  "/>
<polyline clip-path="url(#clip520)" style="stroke:#000000; stroke-linecap:butt; stroke-linejoin:round; stroke-width:4; stroke-opacity:1; fill:none" points="
  303.503,1401.58 2352.76,1401.58 
  "/>
<polyline clip-path="url(#clip520)" style="stroke:#000000; stroke-linecap:butt; stroke-linejoin:round; stroke-width:4; stroke-opacity:1; fill:none" points="
  361.501,1401.58 361.501,1382.68 
  "/>
<polyline clip-path="url(#clip520)" style="stroke:#000000; stroke-linecap:butt; stroke-linejoin:round; stroke-width:4; stroke-opacity:1; fill:none" points="
  748.152,1401.58 748.152,1382.68 
  "/>
<polyline clip-path="url(#clip520)" style="stroke:#000000; stroke-linecap:butt; stroke-linejoin:round; stroke-width:4; stroke-opacity:1; fill:none" points="
  1134.8,1401.58 1134.8,1382.68 
  "/>
<polyline clip-path="url(#clip520)" style="stroke:#000000; stroke-linecap:butt; stroke-linejoin:round; stroke-width:4; stroke-opacity:1; fill:none" points="
  1521.46,1401.58 1521.46,1382.68 
  "/>
<polyline clip-path="url(#clip520)" style="stroke:#000000; stroke-linecap:butt; stroke-linejoin:round; stroke-width:4; stroke-opacity:1; fill:none" points="
  1908.11,1401.58 1908.11,1382.68 
  "/>
<polyline clip-path="url(#clip520)" style="stroke:#000000; stroke-linecap:butt; stroke-linejoin:round; stroke-width:4; stroke-opacity:1; fill:none" points="
  2294.76,1401.58 2294.76,1382.68 
  "/>
<path clip-path="url(#clip520)" d="M361.501 1438.36 Q356.084 1438.36 353.341 1443.71 Q350.633 1449.02 350.633 1459.71 Q350.633 1470.37 353.341 1475.72 Q356.084 1481.03 361.501 1481.03 Q366.952 1481.03 369.66 1475.72 Q372.403 1470.37 372.403 1459.71 Q372.403 1449.02 369.66 1443.71 Q366.952 1438.36 361.501 1438.36 M361.501 1432.8 Q370.216 1432.8 374.799 1439.71 Q379.417 1446.59 379.417 1459.71 Q379.417 1472.8 374.799 1479.71 Q370.216 1486.59 361.501 1486.59 Q352.785 1486.59 348.167 1479.71 Q343.584 1472.8 343.584 1459.71 Q343.584 1446.59 348.167 1439.71 Q352.785 1432.8 361.501 1432.8 Z" fill="#000000" fill-rule="evenodd" fill-opacity="1" /><path clip-path="url(#clip520)" d="M733.725 1479.68 L745.183 1479.68 L745.183 1440.13 L732.718 1442.63 L732.718 1436.24 L745.114 1433.74 L752.128 1433.74 L752.128 1479.68 L763.586 1479.68 L763.586 1485.58 L733.725 1485.58 L733.725 1479.68 Z" fill="#000000" fill-rule="evenodd" fill-opacity="1" /><path clip-path="url(#clip520)" d="M1126.78 1479.68 L1151.26 1479.68 L1151.26 1485.58 L1118.35 1485.58 L1118.35 1479.68 Q1122.34 1475.55 1129.21 1468.6 Q1136.12 1461.62 1137.89 1459.61 Q1141.26 1455.82 1142.58 1453.22 Q1143.94 1450.58 1143.94 1448.05 Q1143.94 1443.91 1141.02 1441.31 Q1138.14 1438.71 1133.48 1438.71 Q1130.19 1438.71 1126.51 1439.85 Q1122.86 1441 1118.69 1443.32 L1118.69 1436.24 Q1122.93 1434.54 1126.61 1433.67 Q1130.29 1432.8 1133.35 1432.8 Q1141.4 1432.8 1146.19 1436.83 Q1150.98 1440.86 1150.98 1447.59 Q1150.98 1450.79 1149.77 1453.67 Q1148.59 1456.52 1145.43 1460.41 Q1144.56 1461.41 1139.91 1466.24 Q1135.26 1471.03 1126.78 1479.68 Z" fill="#000000" fill-rule="evenodd" fill-opacity="1" /><path clip-path="url(#clip520)" d="M1527.83 1457.63 Q1532.86 1458.7 1535.67 1462.11 Q1538.52 1465.51 1538.52 1470.51 Q1538.52 1478.18 1533.24 1482.39 Q1527.97 1486.59 1518.24 1486.59 Q1514.98 1486.59 1511.51 1485.93 Q1508.07 1485.3 1504.39 1484.02 L1504.39 1477.25 Q1507.31 1478.95 1510.78 1479.82 Q1514.25 1480.68 1518.04 1480.68 Q1524.63 1480.68 1528.07 1478.08 Q1531.54 1475.48 1531.54 1470.51 Q1531.54 1465.93 1528.31 1463.36 Q1525.12 1460.75 1519.39 1460.75 L1513.35 1460.75 L1513.35 1454.99 L1519.67 1454.99 Q1524.84 1454.99 1527.58 1452.94 Q1530.33 1450.86 1530.33 1446.97 Q1530.33 1442.98 1527.48 1440.86 Q1524.67 1438.71 1519.39 1438.71 Q1516.51 1438.71 1513.21 1439.33 Q1509.91 1439.96 1505.95 1441.27 L1505.95 1435.02 Q1509.94 1433.91 1513.42 1433.36 Q1516.92 1432.8 1520.01 1432.8 Q1528 1432.8 1532.65 1436.45 Q1537.31 1440.06 1537.31 1446.24 Q1537.31 1450.55 1534.84 1453.53 Q1532.38 1456.48 1527.83 1457.63 Z" fill="#000000" fill-rule="evenodd" fill-opacity="1" /><path clip-path="url(#clip520)" d="M1912.62 1439.85 L1894.91 1467.52 L1912.62 1467.52 L1912.62 1439.85 M1910.78 1433.74 L1919.6 1433.74 L1919.6 1467.52 L1927 1467.52 L1927 1473.36 L1919.6 1473.36 L1919.6 1485.58 L1912.62 1485.58 L1912.62 1473.36 L1889.22 1473.36 L1889.22 1466.59 L1910.78 1433.74 Z" fill="#000000" fill-rule="evenodd" fill-opacity="1" /><path clip-path="url(#clip520)" d="M2280.17 1433.74 L2307.71 1433.74 L2307.71 1439.64 L2286.6 1439.64 L2286.6 1452.35 Q2288.13 1451.83 2289.65 1451.59 Q2291.18 1451.31 2292.71 1451.31 Q2301.39 1451.31 2306.46 1456.07 Q2311.53 1460.82 2311.53 1468.95 Q2311.53 1477.32 2306.32 1481.97 Q2301.11 1486.59 2291.63 1486.59 Q2288.37 1486.59 2284.97 1486.03 Q2281.6 1485.48 2277.99 1484.36 L2277.99 1477.32 Q2281.11 1479.02 2284.45 1479.85 Q2287.78 1480.68 2291.49 1480.68 Q2297.5 1480.68 2301.01 1477.52 Q2304.52 1474.36 2304.52 1468.95 Q2304.52 1463.53 2301.01 1460.37 Q2297.5 1457.21 2291.49 1457.21 Q2288.68 1457.21 2285.87 1457.84 Q2283.09 1458.46 2280.17 1459.78 L2280.17 1433.74 Z" fill="#000000" fill-rule="evenodd" fill-opacity="1" /><path clip-path="url(#clip520)" d="M1271.74 1527.62 L1271.74 1538.66 L1284.9 1538.66 L1284.9 1543.62 L1271.74 1543.62 L1271.74 1564.74 Q1271.74 1569.49 1273.03 1570.85 Q1274.35 1572.2 1278.34 1572.2 L1284.9 1572.2 L1284.9 1577.55 L1278.34 1577.55 Q1270.94 1577.55 1268.13 1574.8 Q1265.32 1572.03 1265.32 1564.74 L1265.32 1543.62 L1260.63 1543.62 L1260.63 1538.66 L1265.32 1538.66 L1265.32 1527.62 L1271.74 1527.62 Z" fill="#000000" fill-rule="evenodd" fill-opacity="1" /><path clip-path="url(#clip520)" d="M1315.32 1523.52 L1330.04 1523.52 L1330.04 1528.49 L1321.71 1528.49 L1321.71 1581.96 L1330.04 1581.96 L1330.04 1586.92 L1315.32 1586.92 L1315.32 1523.52 Z" fill="#000000" fill-rule="evenodd" fill-opacity="1" /><path clip-path="url(#clip520)" d="M1368.44 1539.8 L1368.44 1545.85 Q1365.73 1544.46 1362.82 1543.76 Q1359.9 1543.07 1356.78 1543.07 Q1352.02 1543.07 1349.62 1544.53 Q1347.26 1545.99 1347.26 1548.9 Q1347.26 1551.12 1348.96 1552.41 Q1350.66 1553.66 1355.8 1554.8 L1357.99 1555.29 Q1364.8 1556.75 1367.64 1559.42 Q1370.53 1562.06 1370.53 1566.82 Q1370.53 1572.24 1366.22 1575.4 Q1361.95 1578.55 1354.45 1578.55 Q1351.32 1578.55 1347.92 1577.93 Q1344.55 1577.34 1340.8 1576.12 L1340.8 1569.53 Q1344.34 1571.37 1347.78 1572.3 Q1351.22 1573.21 1354.59 1573.21 Q1359.1 1573.21 1361.53 1571.68 Q1363.96 1570.12 1363.96 1567.3 Q1363.96 1564.7 1362.19 1563.31 Q1360.46 1561.92 1354.52 1560.64 L1352.3 1560.12 Q1346.36 1558.87 1343.72 1556.3 Q1341.08 1553.69 1341.08 1549.18 Q1341.08 1543.69 1344.97 1540.71 Q1348.86 1537.72 1356.01 1537.72 Q1359.55 1537.72 1362.68 1538.24 Q1365.8 1538.76 1368.44 1539.8 Z" fill="#000000" fill-rule="evenodd" fill-opacity="1" /><path clip-path="url(#clip520)" d="M1395.63 1523.52 L1395.63 1586.92 L1380.91 1586.92 L1380.91 1581.96 L1389.21 1581.96 L1389.21 1528.49 L1380.91 1528.49 L1380.91 1523.52 L1395.63 1523.52 Z" fill="#000000" fill-rule="evenodd" fill-opacity="1" /><polyline clip-path="url(#clip522)" style="stroke:#000000; stroke-linecap:butt; stroke-linejoin:round; stroke-width:2; stroke-opacity:0.1; fill:none" points="
  303.503,1361.96 2352.76,1361.96 
  "/>
<polyline clip-path="url(#clip522)" style="stroke:#000000; stroke-linecap:butt; stroke-linejoin:round; stroke-width:2; stroke-opacity:0.1; fill:none" points="
  303.503,1096.36 2352.76,1096.36 
  "/>
<polyline clip-path="url(#clip522)" style="stroke:#000000; stroke-linecap:butt; stroke-linejoin:round; stroke-width:2; stroke-opacity:0.1; fill:none" points="
  303.503,830.761 2352.76,830.761 
  "/>
<polyline clip-path="url(#clip522)" style="stroke:#000000; stroke-linecap:butt; stroke-linejoin:round; stroke-width:2; stroke-opacity:0.1; fill:none" points="
  303.503,565.16 2352.76,565.16 
  "/>
<polyline clip-path="url(#clip522)" style="stroke:#000000; stroke-linecap:butt; stroke-linejoin:round; stroke-width:2; stroke-opacity:0.1; fill:none" points="
  303.503,299.559 2352.76,299.559 
  "/>
<polyline clip-path="url(#clip520)" style="stroke:#000000; stroke-linecap:butt; stroke-linejoin:round; stroke-width:4; stroke-opacity:1; fill:none" points="
  303.503,1401.58 303.503,47.2441 
  "/>
<polyline clip-path="url(#clip520)" style="stroke:#000000; stroke-linecap:butt; stroke-linejoin:round; stroke-width:4; stroke-opacity:1; fill:none" points="
  303.503,1361.96 322.401,1361.96 
  "/>
<polyline clip-path="url(#clip520)" style="stroke:#000000; stroke-linecap:butt; stroke-linejoin:round; stroke-width:4; stroke-opacity:1; fill:none" points="
  303.503,1096.36 322.401,1096.36 
  "/>
<polyline clip-path="url(#clip520)" style="stroke:#000000; stroke-linecap:butt; stroke-linejoin:round; stroke-width:4; stroke-opacity:1; fill:none" points="
  303.503,830.761 322.401,830.761 
  "/>
<polyline clip-path="url(#clip520)" style="stroke:#000000; stroke-linecap:butt; stroke-linejoin:round; stroke-width:4; stroke-opacity:1; fill:none" points="
  303.503,565.16 322.401,565.16 
  "/>
<polyline clip-path="url(#clip520)" style="stroke:#000000; stroke-linecap:butt; stroke-linejoin:round; stroke-width:4; stroke-opacity:1; fill:none" points="
  303.503,299.559 322.401,299.559 
  "/>
<path clip-path="url(#clip520)" d="M136.497 1340.66 Q131.08 1340.66 128.337 1346.01 Q125.629 1351.32 125.629 1362.01 Q125.629 1372.67 128.337 1378.02 Q131.08 1383.33 136.497 1383.33 Q141.948 1383.33 144.656 1378.02 Q147.399 1372.67 147.399 1362.01 Q147.399 1351.32 144.656 1346.01 Q141.948 1340.66 136.497 1340.66 M136.497 1335.11 Q145.212 1335.11 149.795 1342.01 Q154.413 1348.89 154.413 1362.01 Q154.413 1375.1 149.795 1382.01 Q145.212 1388.89 136.497 1388.89 Q127.781 1388.89 123.163 1382.01 Q118.58 1375.1 118.58 1362.01 Q118.58 1348.89 123.163 1342.01 Q127.781 1335.11 136.497 1335.11 Z" fill="#000000" fill-rule="evenodd" fill-opacity="1" /><path clip-path="url(#clip520)" d="M166.74 1379.06 L174.066 1379.06 L174.066 1387.88 L166.74 1387.88 L166.74 1379.06 Z" fill="#000000" fill-rule="evenodd" fill-opacity="1" /><path clip-path="url(#clip520)" d="M189.413 1336.04 L216.948 1336.04 L216.948 1341.95 L195.837 1341.95 L195.837 1354.65 Q197.364 1354.13 198.892 1353.89 Q200.42 1353.61 201.948 1353.61 Q210.628 1353.61 215.698 1358.37 Q220.767 1363.13 220.767 1371.25 Q220.767 1379.62 215.559 1384.27 Q210.35 1388.89 200.871 1388.89 Q197.608 1388.89 194.205 1388.33 Q190.837 1387.78 187.226 1386.67 L187.226 1379.62 Q190.351 1381.32 193.684 1382.15 Q197.017 1382.99 200.732 1382.99 Q206.739 1382.99 210.246 1379.83 Q213.753 1376.67 213.753 1371.25 Q213.753 1365.83 210.246 1362.67 Q206.739 1359.51 200.732 1359.51 Q197.92 1359.51 195.108 1360.14 Q192.33 1360.76 189.413 1362.08 L189.413 1336.04 Z" fill="#000000" fill-rule="evenodd" fill-opacity="1" /><path clip-path="url(#clip520)" d="M249.586 1340.66 Q244.17 1340.66 241.427 1346.01 Q238.718 1351.32 238.718 1362.01 Q238.718 1372.67 241.427 1378.02 Q244.17 1383.33 249.586 1383.33 Q255.038 1383.33 257.746 1378.02 Q260.489 1372.67 260.489 1362.01 Q260.489 1351.32 257.746 1346.01 Q255.038 1340.66 249.586 1340.66 M249.586 1335.11 Q258.302 1335.11 262.885 1342.01 Q267.503 1348.89 267.503 1362.01 Q267.503 1375.1 262.885 1382.01 Q258.302 1388.89 249.586 1388.89 Q240.871 1388.89 236.253 1382.01 Q231.67 1375.1 231.67 1362.01 Q231.67 1348.89 236.253 1342.01 Q240.871 1335.11 249.586 1335.11 Z" fill="#000000" fill-rule="evenodd" fill-opacity="1" /><path clip-path="url(#clip520)" d="M137.99 1075.06 Q132.573 1075.06 129.83 1080.41 Q127.122 1085.72 127.122 1096.41 Q127.122 1107.07 129.83 1112.42 Q132.573 1117.73 137.99 1117.73 Q143.441 1117.73 146.149 1112.42 Q148.892 1107.07 148.892 1096.41 Q148.892 1085.72 146.149 1080.41 Q143.441 1075.06 137.99 1075.06 M137.99 1069.5 Q146.705 1069.5 151.288 1076.41 Q155.906 1083.29 155.906 1096.41 Q155.906 1109.5 151.288 1116.41 Q146.705 1123.29 137.99 1123.29 Q129.275 1123.29 124.657 1116.41 Q120.073 1109.5 120.073 1096.41 Q120.073 1083.29 124.657 1076.41 Q129.275 1069.5 137.99 1069.5 Z" fill="#000000" fill-rule="evenodd" fill-opacity="1" /><path clip-path="url(#clip520)" d="M168.233 1113.46 L175.559 1113.46 L175.559 1122.28 L168.233 1122.28 L168.233 1113.46 Z" fill="#000000" fill-rule="evenodd" fill-opacity="1" /><path clip-path="url(#clip520)" d="M189.066 1070.44 L222.399 1070.44 L222.399 1073.43 L203.58 1122.28 L196.253 1122.28 L213.962 1076.34 L189.066 1076.34 L189.066 1070.44 Z" fill="#000000" fill-rule="evenodd" fill-opacity="1" /><path clip-path="url(#clip520)" d="M236.149 1070.44 L263.684 1070.44 L263.684 1076.34 L242.573 1076.34 L242.573 1089.05 Q244.1 1088.53 245.628 1088.29 Q247.156 1088.01 248.684 1088.01 Q257.364 1088.01 262.434 1092.77 Q267.503 1097.52 267.503 1105.65 Q267.503 1114.02 262.295 1118.67 Q257.086 1123.29 247.607 1123.29 Q244.343 1123.29 240.941 1122.73 Q237.573 1122.18 233.961 1121.07 L233.961 1114.02 Q237.086 1115.72 240.42 1116.55 Q243.753 1117.39 247.468 1117.39 Q253.475 1117.39 256.982 1114.23 Q260.489 1111.07 260.489 1105.65 Q260.489 1100.23 256.982 1097.07 Q253.475 1093.91 247.468 1093.91 Q244.656 1093.91 241.843 1094.54 Q239.066 1095.16 236.149 1096.48 L236.149 1070.44 Z" fill="#000000" fill-rule="evenodd" fill-opacity="1" /><path clip-path="url(#clip520)" d="M122.712 850.778 L134.17 850.778 L134.17 811.23 L121.705 813.73 L121.705 807.341 L134.101 804.841 L141.115 804.841 L141.115 850.778 L152.573 850.778 L152.573 856.681 L122.712 856.681 L122.712 850.778 Z" fill="#000000" fill-rule="evenodd" fill-opacity="1" /><path clip-path="url(#clip520)" d="M166.74 847.861 L174.066 847.861 L174.066 856.681 L166.74 856.681 L166.74 847.861 Z" fill="#000000" fill-rule="evenodd" fill-opacity="1" /><path clip-path="url(#clip520)" d="M204.344 809.459 Q198.927 809.459 196.184 814.806 Q193.476 820.118 193.476 830.813 Q193.476 841.472 196.184 846.82 Q198.927 852.132 204.344 852.132 Q209.795 852.132 212.503 846.82 Q215.246 841.472 215.246 830.813 Q215.246 820.118 212.503 814.806 Q209.795 809.459 204.344 809.459 M204.344 803.903 Q213.059 803.903 217.642 810.813 Q222.26 817.688 222.26 830.813 Q222.26 843.903 217.642 850.813 Q213.059 857.688 204.344 857.688 Q195.628 857.688 191.01 850.813 Q186.427 843.903 186.427 830.813 Q186.427 817.688 191.01 810.813 Q195.628 803.903 204.344 803.903 Z" fill="#000000" fill-rule="evenodd" fill-opacity="1" /><path clip-path="url(#clip520)" d="M249.586 809.459 Q244.17 809.459 241.427 814.806 Q238.718 820.118 238.718 830.813 Q238.718 841.472 241.427 846.82 Q244.17 852.132 249.586 852.132 Q255.038 852.132 257.746 846.82 Q260.489 841.472 260.489 830.813 Q260.489 820.118 257.746 814.806 Q255.038 809.459 249.586 809.459 M249.586 803.903 Q258.302 803.903 262.885 810.813 Q267.503 817.688 267.503 830.813 Q267.503 843.903 262.885 850.813 Q258.302 857.688 249.586 857.688 Q240.871 857.688 236.253 850.813 Q231.67 843.903 231.67 830.813 Q231.67 817.688 236.253 810.813 Q240.871 803.903 249.586 803.903 Z" fill="#000000" fill-rule="evenodd" fill-opacity="1" /><path clip-path="url(#clip520)" d="M124.205 585.177 L135.663 585.177 L135.663 545.629 L123.198 548.129 L123.198 541.74 L135.594 539.24 L142.608 539.24 L142.608 585.177 L154.066 585.177 L154.066 591.08 L124.205 591.08 L124.205 585.177 Z" fill="#000000" fill-rule="evenodd" fill-opacity="1" /><path clip-path="url(#clip520)" d="M168.233 582.26 L175.559 582.26 L175.559 591.08 L168.233 591.08 L168.233 582.26 Z" fill="#000000" fill-rule="evenodd" fill-opacity="1" /><path clip-path="url(#clip520)" d="M196.878 585.177 L221.357 585.177 L221.357 591.08 L188.441 591.08 L188.441 585.177 Q192.434 581.045 199.309 574.101 Q206.219 567.122 207.989 565.108 Q211.357 561.323 212.677 558.719 Q214.031 556.08 214.031 553.545 Q214.031 549.413 211.114 546.809 Q208.232 544.205 203.58 544.205 Q200.281 544.205 196.601 545.351 Q192.955 546.497 188.788 548.823 L188.788 541.74 Q193.024 540.038 196.705 539.17 Q200.385 538.302 203.441 538.302 Q211.496 538.302 216.288 542.33 Q221.08 546.358 221.08 553.094 Q221.08 556.288 219.864 559.17 Q218.684 562.017 215.524 565.906 Q214.656 566.913 210.003 571.74 Q205.351 576.531 196.878 585.177 Z" fill="#000000" fill-rule="evenodd" fill-opacity="1" /><path clip-path="url(#clip520)" d="M236.149 539.24 L263.684 539.24 L263.684 545.143 L242.573 545.143 L242.573 557.851 Q244.1 557.33 245.628 557.087 Q247.156 556.809 248.684 556.809 Q257.364 556.809 262.434 561.566 Q267.503 566.323 267.503 574.448 Q267.503 582.816 262.295 587.469 Q257.086 592.087 247.607 592.087 Q244.343 592.087 240.941 591.531 Q237.573 590.976 233.961 589.865 L233.961 582.816 Q237.086 584.517 240.42 585.351 Q243.753 586.184 247.468 586.184 Q253.475 586.184 256.982 583.024 Q260.489 579.865 260.489 574.448 Q260.489 569.031 256.982 565.872 Q253.475 562.712 247.468 562.712 Q244.656 562.712 241.843 563.337 Q239.066 563.962 236.149 565.281 L236.149 539.24 Z" fill="#000000" fill-rule="evenodd" fill-opacity="1" /><path clip-path="url(#clip520)" d="M122.712 319.576 L134.17 319.576 L134.17 280.028 L121.705 282.528 L121.705 276.139 L134.101 273.639 L141.115 273.639 L141.115 319.576 L152.573 319.576 L152.573 325.479 L122.712 325.479 L122.712 319.576 Z" fill="#000000" fill-rule="evenodd" fill-opacity="1" /><path clip-path="url(#clip520)" d="M166.74 316.659 L174.066 316.659 L174.066 325.479 L166.74 325.479 L166.74 316.659 Z" fill="#000000" fill-rule="evenodd" fill-opacity="1" /><path clip-path="url(#clip520)" d="M189.413 273.639 L216.948 273.639 L216.948 279.542 L195.837 279.542 L195.837 292.25 Q197.364 291.729 198.892 291.486 Q200.42 291.208 201.948 291.208 Q210.628 291.208 215.698 295.965 Q220.767 300.722 220.767 308.847 Q220.767 317.215 215.559 321.868 Q210.35 326.486 200.871 326.486 Q197.608 326.486 194.205 325.93 Q190.837 325.375 187.226 324.264 L187.226 317.215 Q190.351 318.916 193.684 319.75 Q197.017 320.583 200.732 320.583 Q206.739 320.583 210.246 317.423 Q213.753 314.264 213.753 308.847 Q213.753 303.43 210.246 300.271 Q206.739 297.111 200.732 297.111 Q197.92 297.111 195.108 297.736 Q192.33 298.361 189.413 299.68 L189.413 273.639 Z" fill="#000000" fill-rule="evenodd" fill-opacity="1" /><path clip-path="url(#clip520)" d="M249.586 278.257 Q244.17 278.257 241.427 283.604 Q238.718 288.917 238.718 299.611 Q238.718 310.271 241.427 315.618 Q244.17 320.93 249.586 320.93 Q255.038 320.93 257.746 315.618 Q260.489 310.271 260.489 299.611 Q260.489 288.917 257.746 283.604 Q255.038 278.257 249.586 278.257 M249.586 272.701 Q258.302 272.701 262.885 279.611 Q267.503 286.486 267.503 299.611 Q267.503 312.701 262.885 319.611 Q258.302 326.486 249.586 326.486 Q240.871 326.486 236.253 319.611 Q231.67 312.701 231.67 299.611 Q231.67 286.486 236.253 279.611 Q240.871 272.701 249.586 272.701 Z" fill="#000000" fill-rule="evenodd" fill-opacity="1" /><path clip-path="url(#clip520)" d="M35.6047 1006.89 Q31.2992 1004.5 29.2506 1001.16 Q27.202 997.831 27.202 993.317 Q27.202 987.24 31.4728 983.942 Q35.7089 980.643 43.5561 980.643 L67.0282 980.643 L67.0282 987.067 L43.7644 987.067 Q38.1741 987.067 35.4658 989.046 Q32.7575 991.025 32.7575 995.088 Q32.7575 1000.05 36.0561 1002.93 Q39.3547 1005.82 45.0491 1005.82 L67.0282 1005.82 L67.0282 1012.24 L43.7644 1012.24 Q38.1394 1012.24 35.4658 1014.22 Q32.7575 1016.2 32.7575 1020.33 Q32.7575 1025.23 36.0908 1028.11 Q39.3894 1030.99 45.0491 1030.99 L67.0282 1030.99 L67.0282 1037.41 L28.1395 1037.41 L28.1395 1030.99 L34.1811 1030.99 Q30.6047 1028.8 28.9034 1025.75 Q27.202 1022.69 27.202 1018.49 Q27.202 1014.25 29.3547 1011.3 Q31.5075 1008.32 35.6047 1006.89 Z" fill="#000000" fill-rule="evenodd" fill-opacity="1" /><path clip-path="url(#clip520)" d="M47.4797 950.227 Q47.4797 957.97 49.2505 960.956 Q51.0213 963.942 55.2921 963.942 Q58.6949 963.942 60.7087 961.72 Q62.6879 959.463 62.6879 955.609 Q62.6879 950.296 58.9379 947.102 Q55.1532 943.873 48.9033 943.873 L47.4797 943.873 L47.4797 950.227 M44.8408 937.484 L67.0282 937.484 L67.0282 943.873 L61.1254 943.873 Q64.6671 946.06 66.3684 949.324 Q68.0351 952.588 68.0351 957.31 Q68.0351 963.282 64.7018 966.824 Q61.3337 970.331 55.7088 970.331 Q49.1463 970.331 45.813 965.956 Q42.4797 961.546 42.4797 952.831 L42.4797 943.873 L41.8547 943.873 Q37.445 943.873 35.0492 946.789 Q32.6186 949.671 32.6186 954.914 Q32.6186 958.248 33.4172 961.407 Q34.2158 964.567 35.813 967.484 L29.9103 967.484 Q28.5561 963.977 27.8964 960.678 Q27.202 957.379 27.202 954.254 Q27.202 945.817 31.577 941.65 Q35.9519 937.484 44.8408 937.484 Z" fill="#000000" fill-rule="evenodd" fill-opacity="1" /><path clip-path="url(#clip520)" d="M29.2853 899.533 L35.3269 899.533 Q33.9381 902.241 33.2436 905.158 Q32.5492 908.074 32.5492 911.199 Q32.5492 915.956 34.0075 918.352 Q35.4658 920.713 38.3825 920.713 Q40.6047 920.713 41.8894 919.012 Q43.1394 917.31 44.2852 912.171 L44.7713 909.984 Q46.2297 903.178 48.9033 900.331 Q51.5421 897.449 56.299 897.449 Q61.7157 897.449 64.8754 901.755 Q68.0351 906.026 68.0351 913.526 Q68.0351 916.651 67.4101 920.053 Q66.8198 923.421 65.6046 927.171 L59.0074 927.171 Q60.8476 923.63 61.7851 920.192 Q62.6879 916.755 62.6879 913.387 Q62.6879 908.873 61.1601 906.442 Q59.5976 904.012 56.7852 904.012 Q54.181 904.012 52.7921 905.783 Q51.4032 907.519 50.1185 913.456 L49.5977 915.678 Q48.3477 921.616 45.7783 924.255 Q43.1741 926.894 38.6603 926.894 Q33.1742 926.894 30.1881 923.005 Q27.202 919.116 27.202 911.963 Q27.202 908.421 27.7228 905.296 Q28.2436 902.171 29.2853 899.533 Z" fill="#000000" fill-rule="evenodd" fill-opacity="1" /><path clip-path="url(#clip520)" d="M29.2853 862.484 L35.3269 862.484 Q33.9381 865.192 33.2436 868.109 Q32.5492 871.026 32.5492 874.151 Q32.5492 878.908 34.0075 881.303 Q35.4658 883.665 38.3825 883.665 Q40.6047 883.665 41.8894 881.963 Q43.1394 880.262 44.2852 875.123 L44.7713 872.935 Q46.2297 866.13 48.9033 863.283 Q51.5421 860.401 56.299 860.401 Q61.7157 860.401 64.8754 864.706 Q68.0351 868.977 68.0351 876.477 Q68.0351 879.602 67.4101 883.005 Q66.8198 886.373 65.6046 890.123 L59.0074 890.123 Q60.8476 886.581 61.7851 883.144 Q62.6879 879.706 62.6879 876.338 Q62.6879 871.824 61.1601 869.394 Q59.5976 866.963 56.7852 866.963 Q54.181 866.963 52.7921 868.734 Q51.4032 870.47 50.1185 876.408 L49.5977 878.63 Q48.3477 884.567 45.7783 887.206 Q43.1741 889.845 38.6603 889.845 Q33.1742 889.845 30.1881 885.956 Q27.202 882.067 27.202 874.915 Q27.202 871.373 27.7228 868.248 Q28.2436 865.123 29.2853 862.484 Z" fill="#000000" fill-rule="evenodd" fill-opacity="1" /><path clip-path="url(#clip520)" d="M61.1949 821.443 L81.8197 821.443 L81.8197 827.866 L28.1395 827.866 L28.1395 821.443 L34.0422 821.443 Q30.57 819.429 28.9034 816.373 Q27.202 813.283 27.202 809.012 Q27.202 801.929 32.827 797.519 Q38.4519 793.075 47.6185 793.075 Q56.7852 793.075 62.4101 797.519 Q68.0351 801.929 68.0351 809.012 Q68.0351 813.283 66.3684 816.373 Q64.6671 819.429 61.1949 821.443 M47.6185 799.707 Q40.57 799.707 36.5769 802.623 Q32.5492 805.505 32.5492 810.575 Q32.5492 815.644 36.5769 818.561 Q40.57 821.443 47.6185 821.443 Q54.6671 821.443 58.6949 818.561 Q62.6879 815.644 62.6879 810.575 Q62.6879 805.505 58.6949 802.623 Q54.6671 799.707 47.6185 799.707 Z" fill="#000000" fill-rule="evenodd" fill-opacity="1" /><path clip-path="url(#clip520)" d="M32.6186 767.415 Q32.6186 772.554 36.6464 775.54 Q40.6394 778.526 47.6185 778.526 Q54.5977 778.526 58.6254 775.575 Q62.6185 772.589 62.6185 767.415 Q62.6185 762.311 58.5907 759.325 Q54.5629 756.339 47.6185 756.339 Q40.7089 756.339 36.6811 759.325 Q32.6186 762.311 32.6186 767.415 M27.202 767.415 Q27.202 759.082 32.6186 754.325 Q38.0353 749.568 47.6185 749.568 Q57.1671 749.568 62.6185 754.325 Q68.0351 759.082 68.0351 767.415 Q68.0351 775.783 62.6185 780.54 Q57.1671 785.262 47.6185 785.262 Q38.0353 785.262 32.6186 780.54 Q27.202 775.783 27.202 767.415 Z" fill="#000000" fill-rule="evenodd" fill-opacity="1" /><path clip-path="url(#clip520)" d="M29.2853 714.186 L35.3269 714.186 Q33.9381 716.895 33.2436 719.811 Q32.5492 722.728 32.5492 725.853 Q32.5492 730.61 34.0075 733.006 Q35.4658 735.367 38.3825 735.367 Q40.6047 735.367 41.8894 733.665 Q43.1394 731.964 44.2852 726.825 L44.7713 724.638 Q46.2297 717.832 48.9033 714.985 Q51.5421 712.103 56.299 712.103 Q61.7157 712.103 64.8754 716.409 Q68.0351 720.679 68.0351 728.179 Q68.0351 731.304 67.4101 734.707 Q66.8198 738.075 65.6046 741.825 L59.0074 741.825 Q60.8476 738.283 61.7851 734.846 Q62.6879 731.408 62.6879 728.04 Q62.6879 723.527 61.1601 721.096 Q59.5976 718.665 56.7852 718.665 Q54.181 718.665 52.7921 720.436 Q51.4032 722.172 50.1185 728.11 L49.5977 730.332 Q48.3477 736.27 45.7783 738.908 Q43.1741 741.547 38.6603 741.547 Q33.1742 741.547 30.1881 737.658 Q27.202 733.77 27.202 726.617 Q27.202 723.075 27.7228 719.95 Q28.2436 716.825 29.2853 714.186 Z" fill="#000000" fill-rule="evenodd" fill-opacity="1" /><path clip-path="url(#clip520)" d="M28.1395 701.929 L28.1395 695.541 L67.0282 695.541 L67.0282 701.929 L28.1395 701.929 M13.0007 701.929 L13.0007 695.541 L21.0909 695.541 L21.0909 701.929 L13.0007 701.929 Z" fill="#000000" fill-rule="evenodd" fill-opacity="1" /><path clip-path="url(#clip520)" d="M17.0979 675.853 L28.1395 675.853 L28.1395 662.694 L33.1047 662.694 L33.1047 675.853 L54.2157 675.853 Q58.9726 675.853 60.3268 674.568 Q61.681 673.249 61.681 669.256 L61.681 662.694 L67.0282 662.694 L67.0282 669.256 Q67.0282 676.652 64.2851 679.464 Q61.5074 682.277 54.2157 682.277 L33.1047 682.277 L33.1047 686.964 L28.1395 686.964 L28.1395 682.277 L17.0979 682.277 L17.0979 675.853 Z" fill="#000000" fill-rule="evenodd" fill-opacity="1" /><path clip-path="url(#clip520)" d="M28.1395 654.291 L28.1395 647.902 L67.0282 647.902 L67.0282 654.291 L28.1395 654.291 M13.0007 654.291 L13.0007 647.902 L21.0909 647.902 L21.0909 654.291 L13.0007 654.291 Z" fill="#000000" fill-rule="evenodd" fill-opacity="1" /><path clip-path="url(#clip520)" d="M32.6186 619.465 Q32.6186 624.603 36.6464 627.59 Q40.6394 630.576 47.6185 630.576 Q54.5977 630.576 58.6254 627.624 Q62.6185 624.638 62.6185 619.465 Q62.6185 614.36 58.5907 611.374 Q54.5629 608.388 47.6185 608.388 Q40.7089 608.388 36.6811 611.374 Q32.6186 614.36 32.6186 619.465 M27.202 619.465 Q27.202 611.131 32.6186 606.374 Q38.0353 601.617 47.6185 601.617 Q57.1671 601.617 62.6185 606.374 Q68.0351 611.131 68.0351 619.465 Q68.0351 627.833 62.6185 632.59 Q57.1671 637.312 47.6185 637.312 Q38.0353 637.312 32.6186 632.59 Q27.202 627.833 27.202 619.465 Z" fill="#000000" fill-rule="evenodd" fill-opacity="1" /><path clip-path="url(#clip520)" d="M43.5561 558.701 L67.0282 558.701 L67.0282 565.09 L43.7644 565.09 Q38.2436 565.09 35.5005 567.243 Q32.7575 569.395 32.7575 573.701 Q32.7575 578.875 36.0561 581.861 Q39.3547 584.847 45.0491 584.847 L67.0282 584.847 L67.0282 591.27 L28.1395 591.27 L28.1395 584.847 L34.1811 584.847 Q30.6742 582.555 28.9381 579.465 Q27.202 576.34 27.202 572.277 Q27.202 565.576 31.3686 562.139 Q35.5005 558.701 43.5561 558.701 Z" fill="#000000" fill-rule="evenodd" fill-opacity="1" /><path clip-path="url(#clip520)" d="M13.0007 523.944 L13.0007 509.222 L17.9659 509.222 L17.9659 517.555 L71.4379 517.555 L71.4379 509.222 L76.4031 509.222 L76.4031 523.944 L13.0007 523.944 Z" fill="#000000" fill-rule="evenodd" fill-opacity="1" /><path clip-path="url(#clip520)" d="M35.6047 465.333 Q31.2992 462.938 29.2506 459.604 Q27.202 456.271 27.202 451.757 Q27.202 445.681 31.4728 442.382 Q35.7089 439.084 43.5561 439.084 L67.0282 439.084 L67.0282 445.507 L43.7644 445.507 Q38.1741 445.507 35.4658 447.486 Q32.7575 449.466 32.7575 453.528 Q32.7575 458.493 36.0561 461.375 Q39.3547 464.257 45.0491 464.257 L67.0282 464.257 L67.0282 470.681 L43.7644 470.681 Q38.1394 470.681 35.4658 472.66 Q32.7575 474.639 32.7575 478.771 Q32.7575 483.667 36.0908 486.549 Q39.3894 489.431 45.0491 489.431 L67.0282 489.431 L67.0282 495.854 L28.1395 495.854 L28.1395 489.431 L34.1811 489.431 Q30.6047 487.243 28.9034 484.188 Q27.202 481.132 27.202 476.931 Q27.202 472.695 29.3547 469.743 Q31.5075 466.757 35.6047 465.333 Z" fill="#000000" fill-rule="evenodd" fill-opacity="1" /><path clip-path="url(#clip520)" d="M13.0007 411.41 L76.4031 411.41 L76.4031 426.132 L71.4379 426.132 L71.4379 417.834 L17.9659 417.834 L17.9659 426.132 L13.0007 426.132 L13.0007 411.41 Z" fill="#000000" fill-rule="evenodd" fill-opacity="1" /><polyline clip-path="url(#clip522)" style="stroke:#009af9; stroke-linecap:butt; stroke-linejoin:round; stroke-width:8; stroke-opacity:1; fill:none" points="
  361.501,1361.96 365.367,1361.63 369.234,1360.67 373.1,1359.08 376.967,1356.85 380.833,1353.99 384.7,1350.51 388.566,1346.39 392.433,1341.66 396.299,1336.31 
  400.166,1330.34 404.032,1323.77 407.899,1316.6 411.765,1308.85 415.632,1300.5 419.498,1291.59 423.365,1282.1 427.231,1272.06 431.098,1261.48 434.964,1250.35 
  438.831,1238.7 442.698,1226.54 446.564,1213.87 450.431,1200.71 454.297,1187.08 458.164,1172.99 462.03,1158.44 465.897,1143.47 469.763,1128.08 473.63,1112.28 
  477.496,1096.1 481.363,1079.55 485.229,1062.63 489.096,1045.38 492.962,1027.81 496.829,1009.94 500.695,991.785 504.562,973.358 508.428,954.678 512.295,935.763 
  516.161,916.636 520.028,897.318 523.894,877.825 527.761,858.176 531.627,838.392 535.494,818.493 539.36,798.499 543.227,778.426 547.093,758.297 550.96,738.133 
  554.826,717.956 558.693,697.786 562.559,677.644 566.426,657.548 570.293,637.513 574.159,617.565 578.026,597.724 581.892,578.011 585.759,558.448 589.625,539.055 
  593.492,519.839 597.358,500.828 601.225,482.04 605.091,463.496 608.958,445.216 612.824,427.217 616.691,409.516 620.557,392.125 624.424,375.067 628.29,358.359 
  632.157,342.018 636.023,326.062 639.89,310.507 643.756,295.363 647.623,280.646 651.489,266.373 655.356,252.559 659.222,239.218 663.089,226.365 666.955,214.011 
  670.822,202.163 674.688,190.837 678.555,180.046 682.421,169.8 686.288,160.111 690.154,150.988 694.021,142.437 697.887,134.466 701.754,127.085 705.621,120.303 
  709.487,114.126 713.354,108.561 717.22,103.613 721.087,99.2832 724.953,95.579 728.82,92.5042 732.686,90.0622 736.553,88.2558 740.419,87.087 744.286,86.5554 
  748.152,86.6609 752.019,87.4047 755.885,88.7862 759.752,90.8041 763.618,93.4565 767.485,96.7409 771.351,100.653 775.218,105.189 779.084,110.344 782.951,116.115 
  786.817,122.494 790.684,129.476 794.55,137.053 798.417,145.218 802.283,153.963 806.15,163.279 810.016,173.157 813.883,183.586 817.749,194.555 821.616,206.056 
  825.482,218.077 829.349,230.604 833.216,243.626 837.082,257.128 840.949,271.096 844.815,285.519 848.682,300.383 852.548,315.672 856.415,331.37 860.281,347.461 
  864.148,363.928 868.014,380.754 871.881,397.927 875.747,415.429 879.614,433.239 883.48,451.341 887.347,469.715 891.213,488.343 895.08,507.206 898.946,526.291 
  902.813,545.575 906.679,565.038 910.546,584.659 914.412,604.419 918.279,624.297 922.145,644.279 926.012,664.343 929.878,684.468 933.745,704.632 937.611,724.815 
  941.478,744.995 945.344,765.154 949.211,785.278 953.077,805.341 956.944,825.324 960.811,845.205 964.677,864.963 968.544,884.578 972.41,904.036 976.277,923.318 
  980.143,942.401 984.01,961.265 987.876,979.892 991.743,998.26 995.609,1016.35 999.476,1034.16 1003.34,1051.66 1007.21,1068.83 1011.08,1085.65 1014.94,1102.11 
  1018.81,1118.2 1022.67,1133.88 1026.54,1149.17 1030.41,1164.03 1034.27,1178.45 1038.14,1192.41 1042.01,1205.9 1045.87,1218.91 1049.74,1231.43 1053.61,1243.45 
  1057.47,1254.94 1061.34,1265.9 1065.21,1276.32 1069.07,1286.19 1072.94,1295.49 1076.81,1304.23 1080.67,1312.39 1084.54,1319.95 1088.41,1326.93 1092.27,1333.29 
  1096.14,1339.05 1100.01,1344.2 1103.87,1348.72 1107.74,1352.62 1111.6,1355.89 1115.47,1358.53 1119.34,1360.54 1123.2,1361.91 1127.07,1362.64 1130.94,1362.73 
  1134.8,1362.19 1138.67,1361 1142.54,1359.18 1146.4,1356.73 1150.27,1353.64 1154.14,1349.92 1158,1345.58 1161.87,1340.61 1165.74,1335.03 1169.6,1328.84 
  1173.47,1322.04 1177.34,1314.64 1181.2,1306.66 1185.07,1298.09 1188.93,1288.95 1192.8,1279.24 1196.67,1268.98 1200.53,1258.17 1204.4,1246.83 1208.27,1234.96 
  1212.13,1222.59 1216,1209.71 1219.87,1196.36 1223.73,1182.53 1227.6,1168.24 1231.47,1153.5 1235.33,1138.34 1239.2,1122.76 1243.07,1106.78 1246.93,1090.43 
  1250.8,1073.7 1254.67,1056.63 1258.53,1039.22 1262.4,1021.5 1266.27,1003.48 1270.13,985.181 1274,966.626 1277.86,947.823 1281.73,928.796 1285.6,909.565 
  1289.46,890.149 1293.33,870.568 1297.2,850.843 1301.06,830.992 1304.93,811.03 1308.8,790.98 1312.66,770.865 1316.53,750.704 1320.4,730.518 1324.26,710.33 
  1328.13,690.15 1332,670.004 1335.86,649.911 1339.73,629.894 1343.6,609.973 1347.46,590.169 1351.33,570.5 1355.2,550.979 1359.06,531.632 1362.93,512.478 
  1366.79,493.537 1370.66,474.829 1374.53,456.374 1378.39,438.183 1382.26,420.276 1386.13,402.673 1389.99,385.393 1393.86,368.453 1397.73,351.872 1401.59,335.665 
  1405.46,319.841 1409.33,304.422 1413.19,289.424 1417.06,274.862 1420.93,260.751 1424.79,247.106 1428.66,233.938 1432.53,221.256 1436.39,209.079 1440.26,197.417 
  1444.12,186.284 1447.99,175.691 1451.86,165.65 1455.72,156.162 1459.59,147.243 1463.46,138.902 1467.32,131.147 1471.19,123.987 1475.06,117.429 1478.92,111.479 
  1482.79,106.139 1486.66,101.418 1490.52,97.3201 1494.39,93.8508 1498.26,91.0134 1502.12,88.8112 1505.99,87.2427 1509.86,86.3116 1513.72,86.0191 1517.59,86.3658 
  1521.46,87.3514 1525.32,88.9751 1529.19,91.2349 1533.05,94.1275 1536.92,97.6508 1540.79,101.802 1544.65,106.575 1548.52,111.968 1552.39,117.973 1556.25,124.585 
  1560.12,131.798 1563.99,139.604 1567.85,147.996 1571.72,156.964 1575.59,166.499 1579.45,176.593 1583.32,187.236 1587.19,198.417 1591.05,210.125 1594.92,222.347 
  1598.79,235.071 1602.65,248.284 1606.52,261.974 1610.39,276.129 1614.25,290.733 1618.12,305.77 1621.98,321.226 1625.85,337.084 1629.72,353.329 1633.58,369.949 
  1637.45,386.925 1641.32,404.238 1645.18,421.871 1649.05,439.805 1652.92,458.023 1656.78,476.509 1660.65,495.246 1664.52,514.213 1668.38,533.39 1672.25,552.757 
  1676.12,572.294 1679.98,591.982 1683.85,611.808 1687.72,631.747 1691.58,651.779 1695.45,671.883 1699.31,692.039 1703.18,712.224 1707.05,732.423 1710.91,752.619 
  1714.78,772.786 1718.65,792.905 1722.51,812.954 1726.38,832.913 1730.25,852.761 1734.11,872.486 1737.98,892.065 1741.85,911.476 1745.71,930.699 1749.58,949.714 
  1753.45,968.502 1757.31,987.045 1761.18,1005.33 1765.05,1023.34 1768.91,1041.04 1772.78,1058.43 1776.65,1075.48 1780.51,1092.18 1784.38,1108.52 1788.24,1124.47 
  1792.11,1140.02 1795.98,1155.16 1799.84,1169.86 1803.71,1184.12 1807.58,1197.92 1811.44,1211.24 1815.31,1224.08 1819.18,1236.42 1823.04,1248.25 1826.91,1259.55 
  1830.78,1270.32 1834.64,1280.54 1838.51,1290.21 1842.38,1299.31 1846.24,1307.83 1850.11,1315.77 1853.98,1323.12 1857.84,1329.87 1861.71,1336.01 1865.58,1341.55 
  1869.44,1346.46 1873.31,1350.76 1877.17,1354.42 1881.04,1357.46 1884.91,1359.86 1888.77,1361.63 1892.64,1362.76 1896.51,1363.25 1900.37,1363.1 1904.24,1362.31 
  1908.11,1360.89 1911.97,1358.83 1915.84,1356.13 1919.71,1352.8 1923.57,1348.84 1927.44,1344.26 1931.31,1339.06 1935.17,1333.24 1939.04,1326.82 1942.91,1319.79 
  1946.77,1312.16 1950.64,1303.95 1954.5,1295.16 1958.37,1285.79 1962.24,1275.87 1966.1,1265.39 1969.97,1254.37 1973.84,1242.82 1977.7,1230.75 1981.57,1218.18 
  1985.44,1205.11 1989.3,1191.56 1993.17,1177.55 1997.04,1163.08 2000.9,1148.17 2004.77,1132.83 2008.64,1117.1 2012.5,1100.96 2016.37,1084.45 2020.24,1067.57 
  2024.1,1050.36 2027.97,1032.82 2031.84,1014.97 2035.7,996.832 2039.57,978.417 2043.43,959.748 2047.3,940.843 2051.17,921.723 2055.03,902.407 2058.9,882.916 
  2062.77,863.262 2066.63,843.467 2070.5,823.554 2074.37,803.541 2078.23,783.451 2082.1,763.303 2085.97,743.119 2089.83,722.909 2093.7,702.701 2097.57,682.515 
  2101.43,662.372 2105.3,642.293 2109.17,622.298 2113.03,602.404 2116.9,582.628 2120.77,562.993 2124.63,543.521 2128.5,524.231 2132.36,505.144 2136.23,486.278 
  2140.1,467.644 2143.96,449.267 2147.83,431.165 2151.7,413.358 2155.56,395.864 2159.43,378.7 2163.3,361.882 2167.16,345.422 2171.03,329.342 2174.9,313.657 
  2178.76,298.384 2182.63,283.54 2186.5,269.139 2190.36,255.189 2194.23,241.707 2198.1,228.708 2201.96,216.206 2205.83,204.214 2209.69,192.745 2213.56,181.808 
  2217.43,171.409 2221.29,161.564 2225.16,152.283 2229.03,143.575 2232.89,135.449 2236.76,127.915 2240.63,120.974 2244.49,114.637 2248.36,108.91 2252.23,103.799 
  2256.09,99.3096 2259.96,95.4472 2263.83,92.2148 2267.69,89.6125 2271.56,87.6455 2275.43,86.3159 2279.29,85.6252 2283.16,85.5744 2287.03,86.1637 2290.89,87.3909 
  2294.76,89.2551 
  "/>
<polyline clip-path="url(#clip522)" style="stroke:#e26f46; stroke-linecap:butt; stroke-linejoin:round; stroke-width:8; stroke-opacity:1; fill:none" points="
  361.501,1361.96 365.367,1361.73 369.234,1361.04 373.1,1359.89 376.967,1358.29 380.833,1356.23 384.7,1353.7 388.566,1350.71 392.433,1347.26 396.299,1343.35 
  400.166,1338.99 404.032,1334.16 407.899,1328.88 411.765,1323.15 415.632,1316.98 419.498,1310.37 423.365,1303.32 427.231,1295.85 431.098,1287.95 434.964,1279.64 
  438.831,1270.92 442.698,1261.8 446.564,1252.29 450.431,1242.4 454.297,1232.13 458.164,1221.51 462.03,1210.54 465.897,1199.23 469.763,1187.59 473.63,1175.62 
  477.496,1163.35 481.363,1150.78 485.229,1137.94 489.096,1124.83 492.962,1111.45 496.829,1097.84 500.695,1083.99 504.562,1069.92 508.428,1055.64 512.295,1041.18 
  516.161,1026.55 520.028,1011.75 523.894,996.814 527.761,981.742 531.627,966.555 535.494,951.267 539.36,935.893 543.227,920.45 547.093,904.955 550.96,889.422 
  554.826,873.87 558.693,858.31 562.559,842.756 566.426,827.226 570.293,811.737 574.159,796.306 578.026,780.948 581.892,765.681 585.759,750.51 589.625,735.456 
  593.492,720.534 597.358,705.762 601.225,691.153 605.091,676.724 608.958,662.485 612.824,648.449 616.691,634.633 620.557,621.051 624.424,607.718 628.29,594.646 
  632.157,581.851 636.023,569.339 639.89,557.126 643.756,545.225 647.623,533.648 651.489,522.408 655.356,511.517 659.222,500.985 663.089,490.819 666.955,481.033 
  670.822,471.637 674.688,462.642 678.555,454.057 682.421,445.892 686.288,438.154 690.154,430.851 694.021,423.992 697.887,417.587 701.754,411.641 705.621,406.164 
  709.487,401.161 713.354,396.639 717.22,392.604 721.087,389.063 724.953,386.021 728.82,383.484 732.686,381.457 736.553,379.945 740.419,378.952 744.286,378.483 
  748.152,378.547 752.019,378.979 755.885,379.782 759.752,380.96 763.618,382.516 767.485,384.454 771.351,386.774 775.218,389.476 779.084,392.559 782.951,396.024 
  786.817,399.868 790.684,404.09 794.55,408.686 798.417,413.652 802.283,418.98 806.15,424.671 810.016,430.721 813.883,437.128 817.749,443.883 821.616,450.97 
  825.482,458.394 829.349,466.15 833.216,474.233 837.082,482.635 840.949,491.332 844.815,500.328 848.682,509.618 852.548,519.194 856.415,529.047 860.281,539.152 
  864.148,549.51 868.014,560.113 871.881,570.952 875.747,582.019 879.614,593.286 883.48,604.754 887.347,616.412 891.213,628.249 895.08,640.256 898.946,652.409 
  902.813,664.704 906.679,677.128 910.546,689.671 914.412,702.32 918.279,715.058 922.145,727.874 926.012,740.756 929.878,753.692 933.745,766.671 937.611,779.675 
  941.478,792.693 945.344,805.712 949.211,818.72 953.077,831.704 956.944,844.651 960.811,857.546 964.677,870.377 968.544,883.133 972.41,895.798 976.277,908.362 
  980.143,920.813 984.01,933.136 987.876,945.319 991.743,957.349 995.609,969.216 999.476,980.909 1003.34,992.415 1007.21,1003.72 1011.08,1014.81 1014.94,1025.68 
  1018.81,1036.32 1022.67,1046.72 1026.54,1056.86 1030.41,1066.74 1034.27,1076.33 1038.14,1085.65 1042.01,1094.67 1045.87,1103.39 1049.74,1111.79 1053.61,1119.86 
  1057.47,1127.62 1061.34,1135.03 1065.21,1142.09 1069.07,1148.8 1072.94,1155.13 1076.81,1161.11 1080.67,1166.71 1084.54,1171.92 1088.41,1176.74 1092.27,1181.16 
  1096.14,1185.18 1100.01,1188.79 1103.87,1191.99 1107.74,1194.76 1111.6,1197.11 1115.47,1199.03 1119.34,1200.53 1123.2,1201.58 1127.07,1202.19 1130.94,1202.35 
  1134.8,1202.1 1138.67,1201.6 1142.54,1200.81 1146.4,1199.72 1150.27,1198.34 1154.14,1196.66 1158,1194.68 1161.87,1192.4 1165.74,1189.82 1169.6,1186.94 
  1173.47,1183.76 1177.34,1180.29 1181.2,1176.52 1185.07,1172.47 1188.93,1168.12 1192.8,1163.49 1196.67,1158.58 1200.53,1153.39 1204.4,1147.92 1208.27,1142.19 
  1212.13,1136.19 1216,1129.94 1219.87,1123.43 1223.73,1116.67 1227.6,1109.67 1231.47,1102.44 1235.33,1094.99 1239.2,1087.31 1243.07,1079.41 1246.93,1071.31 
  1250.8,1063.01 1254.67,1054.52 1258.53,1045.84 1262.4,1036.99 1266.27,1027.98 1270.13,1018.81 1274,1009.49 1277.86,1000.03 1281.73,990.443 1285.6,980.738 
  1289.46,970.923 1293.33,961.008 1297.2,951.001 1301.06,940.912 1304.93,930.749 1308.8,920.523 1312.66,910.25 1316.53,899.936 1320.4,889.592 1324.26,879.226 
  1328.13,868.85 1332,858.473 1335.86,848.107 1339.73,837.76 1343.6,827.444 1347.46,817.169 1351.33,806.946 1355.2,796.786 1359.06,786.698 1362.93,776.694 
  1366.79,766.785 1370.66,756.977 1374.53,747.279 1378.39,737.703 1382.26,728.261 1386.13,718.961 1389.99,709.815 1393.86,700.833 1397.73,692.024 1401.59,683.39 
  1405.46,674.943 1409.33,666.693 1413.19,658.651 1417.06,650.824 1420.93,643.222 1424.79,635.852 1428.66,628.724 1432.53,621.837 1436.39,615.204 1440.26,608.833 
  1444.12,602.73 1447.99,596.904 1451.86,591.361 1455.72,586.108 1459.59,581.15 1463.46,576.489 1467.32,572.136 1471.19,568.094 1475.06,564.371 1478.92,560.97 
  1482.79,557.897 1486.66,555.157 1490.52,552.752 1494.39,550.688 1498.26,548.968 1502.12,547.597 1505.99,546.577 1509.86,545.913 1513.72,545.607 1517.59,545.677 
  1521.46,545.954 1525.32,546.426 1529.19,547.091 1533.05,547.964 1536.92,549.046 1540.79,550.338 1544.65,551.842 1548.52,553.556 1552.39,555.482 1556.25,557.619 
  1560.12,559.966 1563.99,562.521 1567.85,565.286 1571.72,568.255 1575.59,571.43 1579.45,574.807 1583.32,578.384 1587.19,582.158 1591.05,586.126 1594.92,590.279 
  1598.79,594.619 1602.65,599.144 1606.52,603.85 1610.39,608.736 1614.25,613.794 1618.12,619.01 1621.98,624.389 1625.85,629.928 1629.72,635.622 1633.58,641.469 
  1637.45,647.462 1641.32,653.58 1645.18,659.83 1649.05,666.207 1652.92,672.706 1656.78,679.322 1660.65,686.051 1664.52,692.869 1668.38,699.781 1672.25,706.782 
  1676.12,713.864 1679.98,721.024 1683.85,728.253 1687.72,735.537 1691.58,742.871 1695.45,750.252 1699.31,757.671 1703.18,765.123 1707.05,772.6 1710.91,780.09 
  1714.78,787.588 1718.65,795.086 1722.51,802.578 1726.38,810.057 1730.25,817.515 1734.11,824.944 1737.98,832.335 1741.85,839.682 1745.71,846.977 1749.58,854.213 
  1753.45,861.383 1757.31,868.48 1761.18,875.496 1765.05,882.424 1768.91,889.256 1772.78,895.985 1776.65,902.605 1780.51,909.107 1784.38,915.489 1788.24,921.742 
  1792.11,927.857 1795.98,933.829 1799.84,939.65 1803.71,945.313 1807.58,950.82 1811.44,956.16 1815.31,961.325 1819.18,966.309 1823.04,971.106 1826.91,975.709 
  1830.78,980.124 1834.64,984.338 1838.51,988.345 1842.38,992.139 1846.24,995.715 1850.11,999.067 1853.98,1002.2 1857.84,1005.11 1861.71,1007.78 1865.58,1010.21 
  1869.44,1012.4 1873.31,1014.34 1877.17,1016.04 1881.04,1017.48 1884.91,1018.67 1888.77,1019.6 1892.64,1020.27 1896.51,1020.67 1900.37,1020.8 1904.24,1020.73 
  1908.11,1020.56 1911.97,1020.27 1915.84,1019.88 1919.71,1019.36 1923.57,1018.74 1927.44,1018 1931.31,1017.15 1935.17,1016.19 1939.04,1015.11 1942.91,1013.92 
  1946.77,1012.62 1950.64,1011.2 1954.5,1009.67 1958.37,1008.03 1962.24,1006.28 1966.1,1004.42 1969.97,1002.46 1973.84,1000.38 1977.7,998.199 1981.57,995.914 
  1985.44,993.529 1989.3,991.043 1993.17,988.456 1997.04,985.77 2000.9,982.988 2004.77,980.117 2008.64,977.155 2012.5,974.105 2016.37,970.966 2020.24,967.743 
  2024.1,964.444 2027.97,961.068 2031.84,957.616 2035.7,954.093 2039.57,950.499 2043.43,946.843 2047.3,943.126 2051.17,939.352 2055.03,935.522 2058.9,931.64 
  2062.77,927.71 2066.63,923.739 2070.5,919.729 2074.37,915.682 2078.23,911.603 2082.1,907.494 2085.97,903.363 2089.83,899.213 2093.7,895.046 2097.57,890.867 
  2101.43,886.68 2105.3,882.49 2109.17,878.302 2113.03,874.118 2116.9,869.943 2120.77,865.781 2124.63,861.636 2128.5,857.514 2132.36,853.418 2136.23,849.351 
  2140.1,845.319 2143.96,841.326 2147.83,837.375 2151.7,833.471 2155.56,829.618 2159.43,825.82 2163.3,822.079 2167.16,818.402 2171.03,814.791 2174.9,811.251 
  2178.76,807.786 2182.63,804.4 2186.5,801.096 2190.36,797.88 2194.23,794.754 2198.1,791.72 2201.96,788.781 2205.83,785.942 2209.69,783.208 2213.56,780.581 
  2217.43,778.064 2221.29,775.663 2225.16,773.379 2229.03,771.217 2232.89,769.176 2236.76,767.259 2240.63,765.47 2244.49,763.812 2248.36,762.288 2252.23,760.901 
  2256.09,759.653 2259.96,758.547 2263.83,757.586 2267.69,756.771 2271.56,756.103 2275.43,755.584 2279.29,755.216 2283.16,755.001 2287.03,754.94 2290.89,754.94 
  2294.76,754.94 
  "/>
<polyline clip-path="url(#clip522)" style="stroke:#3da44d; stroke-linecap:butt; stroke-linejoin:round; stroke-width:8; stroke-opacity:1; fill:none" points="
  361.501,1361.96 365.367,1352.15 369.234,1342.34 373.1,1332.53 376.967,1322.73 380.833,1312.94 384.7,1303.16 388.566,1293.38 392.433,1283.61 396.299,1273.84 
  400.166,1264.08 404.032,1254.33 407.899,1244.58 411.765,1234.84 415.632,1225.1 419.498,1215.37 423.365,1205.65 427.231,1195.94 431.098,1186.23 434.964,1176.53 
  438.831,1166.84 442.698,1157.15 446.564,1147.48 450.431,1137.81 454.297,1128.15 458.164,1118.51 462.03,1108.88 465.897,1099.26 469.763,1089.66 473.63,1080.07 
  477.496,1070.51 481.363,1060.97 485.229,1051.45 489.096,1041.96 492.962,1032.49 496.829,1023.07 500.695,1013.68 504.562,1004.34 508.428,995.044 512.295,985.808 
  516.161,976.636 520.028,967.536 523.894,958.516 527.761,949.585 531.627,940.753 535.494,932.029 539.36,923.425 543.227,914.952 547.093,906.622 550.96,898.446 
  554.826,890.439 558.693,882.617 562.559,874.997 566.426,867.591 570.293,860.413 574.159,853.474 578.026,846.784 581.892,840.35 585.759,834.181 589.625,828.281 
  593.492,822.656 597.358,817.307 601.225,812.236 605.091,807.444 608.958,802.929 612.824,798.688 616.691,794.714 620.557,790.995 624.424,787.522 628.29,784.282 
  632.157,781.265 636.023,778.462 639.89,775.861 643.756,773.452 647.623,771.225 651.489,769.172 655.356,767.281 659.222,765.543 663.089,763.949 666.955,762.49 
  670.822,761.157 674.688,759.94 678.555,758.831 682.421,757.82 686.288,756.902 690.154,756.07 694.021,755.321 697.887,754.648 701.754,754.049 705.621,753.517 
  709.487,753.048 713.354,752.639 717.22,752.284 721.087,751.981 724.953,751.725 728.82,751.512 732.686,751.34 736.553,751.204 740.419,751.101 744.286,751.028 
  748.152,750.983 752.019,750.964 755.885,750.97 759.752,751.001 763.618,751.054 767.485,751.13 771.351,751.226 775.218,751.342 779.084,751.476 782.951,751.627 
  786.817,751.795 790.684,751.978 794.55,752.175 798.417,752.385 802.283,752.606 806.15,752.838 810.016,753.079 813.883,753.328 817.749,753.585 821.616,753.847 
  825.482,754.114 829.349,754.388 833.216,754.667 837.082,754.951 840.949,755.241 844.815,755.537 848.682,755.837 852.548,756.143 856.415,756.453 860.281,756.768 
  864.148,757.087 868.014,757.411 871.881,757.738 875.747,758.069 879.614,758.403 883.48,758.74 887.347,759.081 891.213,759.423 895.08,759.768 898.946,760.114 
  902.813,760.462 906.679,760.81 910.546,761.16 914.412,761.509 918.279,761.859 922.145,762.21 926.012,762.562 929.878,762.915 933.745,763.269 937.611,763.624 
  941.478,763.98 945.344,764.337 949.211,764.695 953.077,765.055 956.944,765.415 960.811,765.776 964.677,766.138 968.544,766.501 972.41,766.865 976.277,767.229 
  980.143,767.595 984.01,767.961 987.876,768.328 991.743,768.695 995.609,769.063 999.476,769.432 1003.34,769.8 1007.21,770.169 1011.08,770.538 1014.94,770.907 
  1018.81,771.276 1022.67,771.644 1026.54,772.013 1030.41,772.38 1034.27,772.748 1038.14,773.117 1042.01,773.485 1045.87,773.854 1049.74,774.222 1053.61,774.591 
  1057.47,774.96 1061.34,775.329 1065.21,775.699 1069.07,776.068 1072.94,776.438 1076.81,776.808 1080.67,777.178 1084.54,777.548 1088.41,777.919 1092.27,778.289 
  1096.14,778.66 1100.01,779.031 1103.87,779.402 1107.74,779.773 1111.6,780.144 1115.47,780.515 1119.34,780.887 1123.2,781.258 1127.07,781.63 1130.94,782.002 
  1134.8,782.373 1138.67,782.745 1142.54,783.117 1146.4,783.489 1150.27,783.86 1154.14,784.232 1158,784.604 1161.87,784.976 1165.74,785.347 1169.6,785.719 
  1173.47,786.091 1177.34,786.463 1181.2,786.837 1185.07,787.212 1188.93,787.587 1192.8,787.963 1196.67,788.339 1200.53,788.716 1204.4,789.093 1208.27,789.47 
  1212.13,789.847 1216,790.224 1219.87,790.601 1223.73,790.977 1227.6,791.354 1231.47,791.73 1235.33,792.105 1239.2,792.48 1243.07,792.855 1246.93,793.229 
  1250.8,793.603 1254.67,793.976 1258.53,794.348 1262.4,794.72 1266.27,795.09 1270.13,795.461 1274,795.83 1277.86,796.199 1281.73,796.568 1285.6,796.935 
  1289.46,797.302 1293.33,797.669 1297.2,798.035 1301.06,798.4 1304.93,798.765 1308.8,799.129 1312.66,799.493 1316.53,799.857 1320.4,800.221 1324.26,800.584 
  1328.13,800.948 1332,801.311 1335.86,801.675 1339.73,802.039 1343.6,802.403 1347.46,802.767 1351.33,803.132 1355.2,803.498 1359.06,803.865 1362.93,804.232 
  1366.79,804.601 1370.66,804.97 1374.53,805.342 1378.39,805.714 1382.26,806.089 1386.13,806.465 1389.99,806.843 1393.86,807.223 1397.73,807.605 1401.59,807.987 
  1405.46,808.371 1409.33,808.755 1413.19,809.139 1417.06,809.523 1420.93,809.908 1424.79,810.292 1428.66,810.675 1432.53,811.058 1436.39,811.44 1440.26,811.821 
  1444.12,812.2 1447.99,812.579 1451.86,812.956 1455.72,813.332 1459.59,813.707 1463.46,814.08 1467.32,814.451 1471.19,814.821 1475.06,815.189 1478.92,815.556 
  1482.79,815.921 1486.66,816.285 1490.52,816.647 1494.39,817.008 1498.26,817.368 1502.12,817.727 1505.99,818.084 1509.86,818.441 1513.72,818.798 1517.59,819.153 
  1521.46,819.509 1525.32,819.864 1529.19,820.219 1533.05,820.575 1536.92,820.931 1540.79,821.288 1544.65,821.646 1548.52,822.006 1552.39,822.367 1556.25,822.73 
  1560.12,823.096 1563.99,823.465 1567.85,823.837 1571.72,824.212 1575.59,824.591 1579.45,824.973 1583.32,825.358 1587.19,825.745 1591.05,826.133 1594.92,826.523 
  1598.79,826.913 1602.65,827.304 1606.52,827.695 1610.39,828.086 1614.25,828.476 1618.12,828.865 1621.98,829.254 1625.85,829.64 1629.72,830.026 1633.58,830.409 
  1637.45,830.791 1641.32,831.17 1645.18,831.548 1649.05,831.923 1652.92,832.295 1656.78,832.666 1660.65,833.034 1664.52,833.399 1668.38,833.762 1672.25,834.123 
  1676.12,834.481 1679.98,834.837 1683.85,835.191 1687.72,835.543 1691.58,835.893 1695.45,836.241 1699.31,836.589 1703.18,836.935 1707.05,837.28 1710.91,837.624 
  1714.78,837.968 1718.65,838.312 1722.51,838.656 1726.38,839.001 1730.25,839.347 1734.11,839.695 1737.98,840.045 1741.85,840.397 1745.71,840.752 1749.58,841.11 
  1753.45,841.473 1757.31,841.839 1761.18,842.212 1765.05,842.589 1768.91,842.973 1772.78,843.36 1776.65,843.751 1780.51,844.145 1784.38,844.541 1788.24,844.938 
  1792.11,845.336 1795.98,845.735 1799.84,846.134 1803.71,846.532 1807.58,846.929 1811.44,847.325 1815.31,847.72 1819.18,848.112 1823.04,848.502 1826.91,848.889 
  1830.78,849.274 1834.64,849.656 1838.51,850.034 1842.38,850.41 1846.24,850.782 1850.11,851.15 1853.98,851.515 1857.84,851.877 1861.71,852.235 1865.58,852.59 
  1869.44,852.941 1873.31,853.29 1877.17,853.636 1881.04,853.978 1884.91,854.319 1888.77,854.657 1892.64,854.993 1896.51,855.327 1900.37,855.661 1904.24,855.993 
  1908.11,856.325 1911.97,856.657 1915.84,856.989 1919.71,857.323 1923.57,857.658 1927.44,857.995 1931.31,858.335 1935.17,858.679 1939.04,859.027 1942.91,859.379 
  1946.77,859.738 1950.64,860.103 1954.5,860.475 1958.37,860.855 1962.24,861.242 1966.1,861.634 1969.97,862.029 1973.84,862.428 1977.7,862.828 1981.57,863.231 
  1985.44,863.633 1989.3,864.037 1993.17,864.44 1997.04,864.842 2000.9,865.243 2004.77,865.642 2008.64,866.039 2012.5,866.433 2016.37,866.825 2020.24,867.213 
  2024.1,867.599 2027.97,867.98 2031.84,868.358 2035.7,868.732 2039.57,869.102 2043.43,869.468 2047.3,869.83 2051.17,870.188 2055.03,870.542 2058.9,870.892 
  2062.77,871.239 2066.63,871.581 2070.5,871.921 2074.37,872.257 2078.23,872.591 2082.1,872.922 2085.97,873.251 2089.83,873.578 2093.7,873.904 2097.57,874.229 
  2101.43,874.553 2105.3,874.878 2109.17,875.204 2113.03,875.531 2116.9,875.861 2120.77,876.193 2124.63,876.529 2128.5,876.869 2132.36,877.215 2136.23,877.566 
  2140.1,877.925 2143.96,878.291 2147.83,878.667 2151.7,879.051 2155.56,879.437 2159.43,879.823 2163.3,880.208 2167.16,880.594 2171.03,880.978 2174.9,881.362 
  2178.76,881.745 2182.63,882.127 2186.5,882.507 2190.36,882.886 2194.23,883.264 2198.1,883.64 2201.96,884.014 2205.83,884.387 2209.69,884.758 2213.56,885.127 
  2217.43,885.494 2221.29,885.86 2225.16,886.225 2229.03,886.587 2232.89,886.949 2236.76,887.309 2240.63,887.668 2244.49,888.025 2248.36,888.382 2252.23,888.738 
  2256.09,889.094 2259.96,889.449 2263.83,889.804 2267.69,890.159 2271.56,890.515 2275.43,890.871 2279.29,891.228 2283.16,891.587 2287.03,891.948 2290.89,892.31 
  2294.76,892.675 
  "/>
<path clip-path="url(#clip520)" d="
M1479.53 299.749 L2284.45 299.749 L2284.45 92.3886 L1479.53 92.3886  Z
  " fill="#ffffff" fill-rule="evenodd" fill-opacity="1"/>
<polyline clip-path="url(#clip520)" style="stroke:#000000; stroke-linecap:butt; stroke-linejoin:round; stroke-width:4; stroke-opacity:1; fill:none" points="
  1479.53,299.749 2284.45,299.749 2284.45,92.3886 1479.53,92.3886 1479.53,299.749 
  "/>
<polyline clip-path="url(#clip520)" style="stroke:#009af9; stroke-linecap:butt; stroke-linejoin:round; stroke-width:4; stroke-opacity:1; fill:none" points="
  1502.3,144.229 1638.92,144.229 
  "/>
<path clip-path="url(#clip520)" d="M1683.93 128.083 L1683.93 132.643 Q1681.27 131.37 1678.91 130.745 Q1676.55 130.12 1674.35 130.12 Q1670.53 130.12 1668.45 131.601 Q1666.39 133.083 1666.39 135.814 Q1666.39 138.106 1667.75 139.287 Q1669.14 140.444 1672.99 141.162 L1675.81 141.74 Q1681.04 142.736 1683.52 145.259 Q1686.02 147.759 1686.02 151.972 Q1686.02 156.995 1682.64 159.587 Q1679.28 162.18 1672.78 162.18 Q1670.32 162.18 1667.55 161.624 Q1664.79 161.069 1661.83 159.981 L1661.83 155.166 Q1664.68 156.763 1667.41 157.573 Q1670.14 158.384 1672.78 158.384 Q1676.78 158.384 1678.96 156.81 Q1681.13 155.236 1681.13 152.319 Q1681.13 149.773 1679.56 148.337 Q1678.01 146.902 1674.44 146.185 L1671.6 145.629 Q1666.37 144.587 1664.03 142.365 Q1661.69 140.143 1661.69 136.185 Q1661.69 131.601 1664.91 128.962 Q1668.15 126.324 1673.82 126.324 Q1676.25 126.324 1678.77 126.763 Q1681.3 127.203 1683.93 128.083 Z" fill="#000000" fill-rule="evenodd" fill-opacity="1" /><path clip-path="url(#clip520)" d="M1693.12 135.583 L1697.38 135.583 L1697.38 161.509 L1693.12 161.509 L1693.12 135.583 M1693.12 125.49 L1697.38 125.49 L1697.38 130.884 L1693.12 130.884 L1693.12 125.49 Z" fill="#000000" fill-rule="evenodd" fill-opacity="1" /><path clip-path="url(#clip520)" d="M1726.48 140.56 Q1728.08 137.689 1730.3 136.324 Q1732.52 134.958 1735.53 134.958 Q1739.58 134.958 1741.78 137.805 Q1743.98 140.629 1743.98 145.861 L1743.98 161.509 L1739.7 161.509 L1739.7 145.999 Q1739.7 142.273 1738.38 140.467 Q1737.06 138.662 1734.35 138.662 Q1731.04 138.662 1729.12 140.861 Q1727.2 143.06 1727.2 146.856 L1727.2 161.509 L1722.92 161.509 L1722.92 145.999 Q1722.92 142.249 1721.6 140.467 Q1720.28 138.662 1717.52 138.662 Q1714.26 138.662 1712.34 140.884 Q1710.42 143.083 1710.42 146.856 L1710.42 161.509 L1706.13 161.509 L1706.13 135.583 L1710.42 135.583 L1710.42 139.611 Q1711.87 137.226 1713.91 136.092 Q1715.95 134.958 1718.75 134.958 Q1721.57 134.958 1723.54 136.393 Q1725.53 137.828 1726.48 140.56 Z" fill="#000000" fill-rule="evenodd" fill-opacity="1" /><path clip-path="url(#clip520)" d="M1756.6 157.62 L1756.6 171.37 L1752.31 171.37 L1752.31 135.583 L1756.6 135.583 L1756.6 139.518 Q1757.94 137.203 1759.98 136.092 Q1762.04 134.958 1764.88 134.958 Q1769.61 134.958 1772.55 138.708 Q1775.51 142.458 1775.51 148.569 Q1775.51 154.68 1772.55 158.43 Q1769.61 162.18 1764.88 162.18 Q1762.04 162.18 1759.98 161.069 Q1757.94 159.935 1756.6 157.62 M1771.09 148.569 Q1771.09 143.87 1769.14 141.208 Q1767.22 138.523 1763.84 138.523 Q1760.46 138.523 1758.52 141.208 Q1756.6 143.87 1756.6 148.569 Q1756.6 153.268 1758.52 155.953 Q1760.46 158.615 1763.84 158.615 Q1767.22 158.615 1769.14 155.953 Q1771.09 153.268 1771.09 148.569 Z" fill="#000000" fill-rule="evenodd" fill-opacity="1" /><path clip-path="url(#clip520)" d="M1782.57 125.49 L1786.83 125.49 L1786.83 161.509 L1782.57 161.509 L1782.57 125.49 Z" fill="#000000" fill-rule="evenodd" fill-opacity="1" /><path clip-path="url(#clip520)" d="M1817.92 147.481 L1817.92 149.564 L1798.33 149.564 Q1798.61 153.962 1800.97 156.277 Q1803.36 158.569 1807.59 158.569 Q1810.05 158.569 1812.34 157.967 Q1814.65 157.365 1816.92 156.161 L1816.92 160.189 Q1814.63 161.161 1812.22 161.671 Q1809.81 162.18 1807.34 162.18 Q1801.13 162.18 1797.5 158.569 Q1793.89 154.958 1793.89 148.8 Q1793.89 142.435 1797.31 138.708 Q1800.76 134.958 1806.6 134.958 Q1811.83 134.958 1814.86 138.337 Q1817.92 141.694 1817.92 147.481 M1813.66 146.231 Q1813.61 142.736 1811.69 140.652 Q1809.79 138.569 1806.64 138.569 Q1803.08 138.569 1800.92 140.583 Q1798.8 142.597 1798.47 146.254 L1813.66 146.231 Z" fill="#000000" fill-rule="evenodd" fill-opacity="1" /><path clip-path="url(#clip520)" d="M1825.09 126.949 L1844.95 126.949 L1844.95 130.884 L1829.77 130.884 L1829.77 141.069 L1843.47 141.069 L1843.47 145.004 L1829.77 145.004 L1829.77 161.509 L1825.09 161.509 L1825.09 126.949 Z" fill="#000000" fill-rule="evenodd" fill-opacity="1" /><path clip-path="url(#clip520)" d="M1852.36 126.949 L1859.33 126.949 L1868.15 150.467 L1877.01 126.949 L1883.98 126.949 L1883.98 161.509 L1879.42 161.509 L1879.42 131.162 L1870.51 154.865 L1865.81 154.865 L1856.9 131.162 L1856.9 161.509 L1852.36 161.509 L1852.36 126.949 Z" fill="#000000" fill-rule="evenodd" fill-opacity="1" /><path clip-path="url(#clip520)" d="M1892.73 126.949 L1897.43 126.949 L1897.43 147.944 Q1897.43 153.499 1899.44 155.953 Q1901.46 158.384 1905.97 158.384 Q1910.46 158.384 1912.48 155.953 Q1914.49 153.499 1914.49 147.944 L1914.49 126.949 L1919.19 126.949 L1919.19 148.523 Q1919.19 155.282 1915.83 158.731 Q1912.5 162.18 1905.97 162.18 Q1899.42 162.18 1896.06 158.731 Q1892.73 155.282 1892.73 148.523 L1892.73 126.949 Z" fill="#000000" fill-rule="evenodd" fill-opacity="1" /><polyline clip-path="url(#clip520)" style="stroke:#e26f46; stroke-linecap:butt; stroke-linejoin:round; stroke-width:4; stroke-opacity:1; fill:none" points="
  1502.3,196.069 1638.92,196.069 
  "/>
<path clip-path="url(#clip520)" d="M1678.08 197.145 Q1679.58 197.654 1680.99 199.321 Q1682.43 200.988 1683.87 203.904 L1688.61 213.349 L1683.59 213.349 L1679.17 204.483 Q1677.45 201.011 1675.83 199.876 Q1674.24 198.742 1671.46 198.742 L1666.37 198.742 L1666.37 213.349 L1661.69 213.349 L1661.69 178.789 L1672.24 178.789 Q1678.17 178.789 1681.09 181.265 Q1684 183.742 1684 188.742 Q1684 192.006 1682.48 194.159 Q1680.97 196.312 1678.08 197.145 M1666.37 182.631 L1666.37 194.9 L1672.24 194.9 Q1675.62 194.9 1677.34 193.349 Q1679.07 191.775 1679.07 188.742 Q1679.07 185.71 1677.34 184.182 Q1675.62 182.631 1672.24 182.631 L1666.37 182.631 Z" fill="#000000" fill-rule="evenodd" fill-opacity="1" /><path clip-path="url(#clip520)" d="M1714.49 199.321 L1714.49 201.404 L1694.91 201.404 Q1695.18 205.802 1697.55 208.117 Q1699.93 210.409 1704.17 210.409 Q1706.62 210.409 1708.91 209.807 Q1711.23 209.205 1713.49 208.001 L1713.49 212.029 Q1711.2 213.001 1708.8 213.511 Q1706.39 214.02 1703.91 214.02 Q1697.71 214.02 1694.07 210.409 Q1690.46 206.798 1690.46 200.64 Q1690.46 194.275 1693.89 190.548 Q1697.34 186.798 1703.17 186.798 Q1708.4 186.798 1711.43 190.177 Q1714.49 193.534 1714.49 199.321 M1710.23 198.071 Q1710.18 194.576 1708.26 192.492 Q1706.37 190.409 1703.22 190.409 Q1699.65 190.409 1697.5 192.423 Q1695.37 194.437 1695.05 198.094 L1710.23 198.071 Z" fill="#000000" fill-rule="evenodd" fill-opacity="1" /><path clip-path="url(#clip520)" d="M1733.26 200.316 Q1728.1 200.316 1726.11 201.497 Q1724.12 202.677 1724.12 205.525 Q1724.12 207.793 1725.6 209.136 Q1727.11 210.455 1729.68 210.455 Q1733.22 210.455 1735.35 207.955 Q1737.5 205.432 1737.5 201.265 L1737.5 200.316 L1733.26 200.316 M1741.76 198.557 L1741.76 213.349 L1737.5 213.349 L1737.5 209.413 Q1736.04 211.775 1733.86 212.909 Q1731.69 214.02 1728.54 214.02 Q1724.56 214.02 1722.2 211.798 Q1719.86 209.552 1719.86 205.802 Q1719.86 201.427 1722.78 199.205 Q1725.72 196.983 1731.53 196.983 L1737.5 196.983 L1737.5 196.566 Q1737.5 193.627 1735.55 192.029 Q1733.63 190.409 1730.14 190.409 Q1727.92 190.409 1725.81 190.941 Q1723.7 191.474 1721.76 192.539 L1721.76 188.603 Q1724.1 187.701 1726.3 187.261 Q1728.49 186.798 1730.58 186.798 Q1736.2 186.798 1738.98 189.714 Q1741.76 192.631 1741.76 198.557 Z" fill="#000000" fill-rule="evenodd" fill-opacity="1" /><path clip-path="url(#clip520)" d="M1750.53 177.33 L1754.79 177.33 L1754.79 213.349 L1750.53 213.349 L1750.53 177.33 Z" fill="#000000" fill-rule="evenodd" fill-opacity="1" /><path clip-path="url(#clip520)" d="M1763.89 178.789 L1783.75 178.789 L1783.75 182.724 L1768.56 182.724 L1768.56 192.909 L1782.27 192.909 L1782.27 196.844 L1768.56 196.844 L1768.56 213.349 L1763.89 213.349 L1763.89 178.789 Z" fill="#000000" fill-rule="evenodd" fill-opacity="1" /><path clip-path="url(#clip520)" d="M1791.16 178.789 L1798.12 178.789 L1806.94 202.307 L1815.81 178.789 L1822.78 178.789 L1822.78 213.349 L1818.22 213.349 L1818.22 183.002 L1809.3 206.705 L1804.61 206.705 L1795.69 183.002 L1795.69 213.349 L1791.16 213.349 L1791.16 178.789 Z" fill="#000000" fill-rule="evenodd" fill-opacity="1" /><path clip-path="url(#clip520)" d="M1831.53 178.789 L1836.23 178.789 L1836.23 199.784 Q1836.23 205.339 1838.24 207.793 Q1840.25 210.224 1844.77 210.224 Q1849.26 210.224 1851.27 207.793 Q1853.29 205.339 1853.29 199.784 L1853.29 178.789 L1857.98 178.789 L1857.98 200.363 Q1857.98 207.122 1854.63 210.571 Q1851.29 214.02 1844.77 214.02 Q1838.22 214.02 1834.86 210.571 Q1831.53 207.122 1831.53 200.363 L1831.53 178.789 Z" fill="#000000" fill-rule="evenodd" fill-opacity="1" /><polyline clip-path="url(#clip520)" style="stroke:#3da44d; stroke-linecap:butt; stroke-linejoin:round; stroke-width:4; stroke-opacity:1; fill:none" points="
  1502.3,247.909 1638.92,247.909 
  "/>
<path clip-path="url(#clip520)" d="M1661.69 230.629 L1667.99 230.629 L1683.31 259.541 L1683.31 230.629 L1687.85 230.629 L1687.85 265.189 L1681.55 265.189 L1666.23 236.277 L1666.23 265.189 L1661.69 265.189 L1661.69 230.629 Z" fill="#000000" fill-rule="evenodd" fill-opacity="1" /><path clip-path="url(#clip520)" d="M1719.14 251.161 L1719.14 253.244 L1699.56 253.244 Q1699.84 257.642 1702.2 259.957 Q1704.58 262.249 1708.82 262.249 Q1711.27 262.249 1713.56 261.647 Q1715.88 261.045 1718.15 259.841 L1718.15 263.869 Q1715.86 264.841 1713.45 265.351 Q1711.04 265.86 1708.56 265.86 Q1702.36 265.86 1698.73 262.249 Q1695.12 258.638 1695.12 252.48 Q1695.12 246.115 1698.54 242.388 Q1701.99 238.638 1707.82 238.638 Q1713.05 238.638 1716.09 242.017 Q1719.14 245.374 1719.14 251.161 M1714.88 249.911 Q1714.84 246.416 1712.92 244.332 Q1711.02 242.249 1707.87 242.249 Q1704.3 242.249 1702.15 244.263 Q1700.02 246.277 1699.7 249.934 L1714.88 249.911 Z" fill="#000000" fill-rule="evenodd" fill-opacity="1" /><path clip-path="url(#clip520)" d="M1725.69 254.957 L1725.69 239.263 L1729.95 239.263 L1729.95 254.795 Q1729.95 258.476 1731.39 260.328 Q1732.82 262.156 1735.69 262.156 Q1739.14 262.156 1741.13 259.957 Q1743.15 257.758 1743.15 253.962 L1743.15 239.263 L1747.41 239.263 L1747.41 265.189 L1743.15 265.189 L1743.15 261.207 Q1741.6 263.568 1739.54 264.726 Q1737.5 265.86 1734.79 265.86 Q1730.32 265.86 1728.01 263.082 Q1725.69 260.304 1725.69 254.957 M1736.41 238.638 L1736.41 238.638 Z" fill="#000000" fill-rule="evenodd" fill-opacity="1" /><path clip-path="url(#clip520)" d="M1771.2 243.244 Q1770.49 242.828 1769.63 242.642 Q1768.8 242.434 1767.78 242.434 Q1764.17 242.434 1762.22 244.795 Q1760.3 247.133 1760.3 251.531 L1760.3 265.189 L1756.02 265.189 L1756.02 239.263 L1760.3 239.263 L1760.3 243.291 Q1761.64 240.929 1763.8 239.795 Q1765.95 238.638 1769.03 238.638 Q1769.47 238.638 1770 238.707 Q1770.53 238.754 1771.18 238.869 L1771.2 243.244 Z" fill="#000000" fill-rule="evenodd" fill-opacity="1" /><path clip-path="url(#clip520)" d="M1787.45 252.156 Q1782.29 252.156 1780.3 253.337 Q1778.31 254.517 1778.31 257.365 Q1778.31 259.633 1779.79 260.976 Q1781.3 262.295 1783.86 262.295 Q1787.41 262.295 1789.54 259.795 Q1791.69 257.272 1791.69 253.105 L1791.69 252.156 L1787.45 252.156 M1795.95 250.397 L1795.95 265.189 L1791.69 265.189 L1791.69 261.253 Q1790.23 263.615 1788.05 264.749 Q1785.88 265.86 1782.73 265.86 Q1778.75 265.86 1776.39 263.638 Q1774.05 261.392 1774.05 257.642 Q1774.05 253.267 1776.97 251.045 Q1779.91 248.823 1785.72 248.823 L1791.69 248.823 L1791.69 248.406 Q1791.69 245.467 1789.74 243.869 Q1787.82 242.249 1784.33 242.249 Q1782.11 242.249 1780 242.781 Q1777.89 243.314 1775.95 244.379 L1775.95 240.443 Q1778.29 239.541 1780.49 239.101 Q1782.68 238.638 1784.77 238.638 Q1790.39 238.638 1793.17 241.554 Q1795.95 244.471 1795.95 250.397 Z" fill="#000000" fill-rule="evenodd" fill-opacity="1" /><path clip-path="url(#clip520)" d="M1804.72 229.17 L1808.98 229.17 L1808.98 265.189 L1804.72 265.189 L1804.72 229.17 Z" fill="#000000" fill-rule="evenodd" fill-opacity="1" /><path clip-path="url(#clip520)" d="M1818.08 230.629 L1837.94 230.629 L1837.94 234.564 L1822.75 234.564 L1822.75 244.749 L1836.46 244.749 L1836.46 248.684 L1822.75 248.684 L1822.75 265.189 L1818.08 265.189 L1818.08 230.629 Z" fill="#000000" fill-rule="evenodd" fill-opacity="1" /><path clip-path="url(#clip520)" d="M1845.35 230.629 L1852.31 230.629 L1861.13 254.147 L1870 230.629 L1876.97 230.629 L1876.97 265.189 L1872.41 265.189 L1872.41 234.842 L1863.49 258.545 L1858.79 258.545 L1849.88 234.842 L1849.88 265.189 L1845.35 265.189 L1845.35 230.629 Z" fill="#000000" fill-rule="evenodd" fill-opacity="1" /><path clip-path="url(#clip520)" d="M1885.72 230.629 L1890.42 230.629 L1890.42 251.624 Q1890.42 257.179 1892.43 259.633 Q1894.44 262.064 1898.96 262.064 Q1903.45 262.064 1905.46 259.633 Q1907.48 257.179 1907.48 251.624 L1907.48 230.629 L1912.17 230.629 L1912.17 252.203 Q1912.17 258.962 1908.82 262.411 Q1905.48 265.86 1898.96 265.86 Q1892.41 265.86 1889.05 262.411 Q1885.72 258.962 1885.72 252.203 L1885.72 230.629 Z" fill="#000000" fill-rule="evenodd" fill-opacity="1" /><path clip-path="url(#clip520)" d="M1946.06 229.217 Q1942.96 234.541 1941.46 239.749 Q1939.95 244.957 1939.95 250.304 Q1939.95 255.652 1941.46 260.906 Q1942.98 266.138 1946.06 271.439 L1942.36 271.439 Q1938.89 265.999 1937.15 260.744 Q1935.44 255.49 1935.44 250.304 Q1935.44 245.142 1937.15 239.911 Q1938.86 234.68 1942.36 229.217 L1946.06 229.217 Z" fill="#000000" fill-rule="evenodd" fill-opacity="1" /><path clip-path="url(#clip520)" d="M1969.1 246.554 Q1972.45 247.272 1974.33 249.541 Q1976.22 251.809 1976.22 255.142 Q1976.22 260.258 1972.71 263.059 Q1969.19 265.86 1962.71 265.86 Q1960.53 265.86 1958.22 265.42 Q1955.92 265.003 1953.47 264.147 L1953.47 259.633 Q1955.41 260.767 1957.73 261.346 Q1960.04 261.925 1962.57 261.925 Q1966.97 261.925 1969.26 260.189 Q1971.57 258.453 1971.57 255.142 Q1971.57 252.087 1969.42 250.374 Q1967.29 248.638 1963.47 248.638 L1959.44 248.638 L1959.44 244.795 L1963.66 244.795 Q1967.1 244.795 1968.93 243.429 Q1970.76 242.041 1970.76 239.448 Q1970.76 236.786 1968.86 235.374 Q1966.99 233.939 1963.47 233.939 Q1961.55 233.939 1959.35 234.355 Q1957.15 234.772 1954.51 235.652 L1954.51 231.485 Q1957.17 230.744 1959.49 230.374 Q1961.83 230.004 1963.89 230.004 Q1969.21 230.004 1972.31 232.434 Q1975.41 234.842 1975.41 238.962 Q1975.41 241.832 1973.77 243.823 Q1972.13 245.791 1969.1 246.554 Z" fill="#000000" fill-rule="evenodd" fill-opacity="1" /><path clip-path="url(#clip520)" d="M1995.09 233.707 Q1991.48 233.707 1989.65 237.272 Q1987.85 240.814 1987.85 247.943 Q1987.85 255.05 1989.65 258.615 Q1991.48 262.156 1995.09 262.156 Q1998.72 262.156 2000.53 258.615 Q2002.36 255.05 2002.36 247.943 Q2002.36 240.814 2000.53 237.272 Q1998.72 233.707 1995.09 233.707 M1995.09 230.004 Q2000.9 230.004 2003.96 234.61 Q2007.03 239.193 2007.03 247.943 Q2007.03 256.67 2003.96 261.277 Q2000.9 265.86 1995.09 265.86 Q1989.28 265.86 1986.2 261.277 Q1983.15 256.67 1983.15 247.943 Q1983.15 239.193 1986.2 234.61 Q1989.28 230.004 1995.09 230.004 Z" fill="#000000" fill-rule="evenodd" fill-opacity="1" /><path clip-path="url(#clip520)" d="M2025.25 233.707 Q2021.64 233.707 2019.81 237.272 Q2018.01 240.814 2018.01 247.943 Q2018.01 255.05 2019.81 258.615 Q2021.64 262.156 2025.25 262.156 Q2028.89 262.156 2030.69 258.615 Q2032.52 255.05 2032.52 247.943 Q2032.52 240.814 2030.69 237.272 Q2028.89 233.707 2025.25 233.707 M2025.25 230.004 Q2031.06 230.004 2034.12 234.61 Q2037.2 239.193 2037.2 247.943 Q2037.2 256.67 2034.12 261.277 Q2031.06 265.86 2025.25 265.86 Q2019.44 265.86 2016.36 261.277 Q2013.31 256.67 2013.31 247.943 Q2013.31 239.193 2016.36 234.61 Q2019.44 230.004 2025.25 230.004 Z" fill="#000000" fill-rule="evenodd" fill-opacity="1" /><path clip-path="url(#clip520)" d="M2082.06 251.161 L2082.06 253.244 L2062.47 253.244 Q2062.75 257.642 2065.11 259.957 Q2067.5 262.249 2071.73 262.249 Q2074.19 262.249 2076.48 261.647 Q2078.79 261.045 2081.06 259.841 L2081.06 263.869 Q2078.77 264.841 2076.36 265.351 Q2073.96 265.86 2071.48 265.86 Q2065.28 265.86 2061.64 262.249 Q2058.03 258.638 2058.03 252.48 Q2058.03 246.115 2061.46 242.388 Q2064.9 238.638 2070.74 238.638 Q2075.97 238.638 2079 242.017 Q2082.06 245.374 2082.06 251.161 M2077.8 249.911 Q2077.75 246.416 2075.83 244.332 Q2073.93 242.249 2070.78 242.249 Q2067.22 242.249 2065.07 244.263 Q2062.94 246.277 2062.61 249.934 L2077.8 249.911 Z" fill="#000000" fill-rule="evenodd" fill-opacity="1" /><path clip-path="url(#clip520)" d="M2093.17 261.3 L2093.17 275.05 L2088.89 275.05 L2088.89 239.263 L2093.17 239.263 L2093.17 243.198 Q2094.51 240.883 2096.55 239.772 Q2098.61 238.638 2101.46 238.638 Q2106.18 238.638 2109.12 242.388 Q2112.08 246.138 2112.08 252.249 Q2112.08 258.36 2109.12 262.11 Q2106.18 265.86 2101.46 265.86 Q2098.61 265.86 2096.55 264.749 Q2094.51 263.615 2093.17 261.3 M2107.66 252.249 Q2107.66 247.55 2105.71 244.888 Q2103.79 242.203 2100.41 242.203 Q2097.03 242.203 2095.09 244.888 Q2093.17 247.55 2093.17 252.249 Q2093.17 256.948 2095.09 259.633 Q2097.03 262.295 2100.41 262.295 Q2103.79 262.295 2105.71 259.633 Q2107.66 256.948 2107.66 252.249 Z" fill="#000000" fill-rule="evenodd" fill-opacity="1" /><path clip-path="url(#clip520)" d="M2129.19 242.249 Q2125.76 242.249 2123.77 244.934 Q2121.78 247.596 2121.78 252.249 Q2121.78 256.902 2123.75 259.587 Q2125.74 262.249 2129.19 262.249 Q2132.59 262.249 2134.58 259.564 Q2136.57 256.878 2136.57 252.249 Q2136.57 247.642 2134.58 244.957 Q2132.59 242.249 2129.19 242.249 M2129.19 238.638 Q2134.74 238.638 2137.91 242.249 Q2141.08 245.86 2141.08 252.249 Q2141.08 258.615 2137.91 262.249 Q2134.74 265.86 2129.19 265.86 Q2123.61 265.86 2120.44 262.249 Q2117.29 258.615 2117.29 252.249 Q2117.29 245.86 2120.44 242.249 Q2123.61 238.638 2129.19 238.638 Z" fill="#000000" fill-rule="evenodd" fill-opacity="1" /><path clip-path="url(#clip520)" d="M2166.8 240.258 L2166.8 244.24 Q2165 243.244 2163.17 242.758 Q2161.36 242.249 2159.51 242.249 Q2155.37 242.249 2153.08 244.888 Q2150.78 247.504 2150.78 252.249 Q2150.78 256.994 2153.08 259.633 Q2155.37 262.249 2159.51 262.249 Q2161.36 262.249 2163.17 261.763 Q2165 261.253 2166.8 260.258 L2166.8 264.193 Q2165.02 265.027 2163.1 265.443 Q2161.2 265.86 2159.05 265.86 Q2153.19 265.86 2149.74 262.179 Q2146.29 258.499 2146.29 252.249 Q2146.29 245.906 2149.77 242.272 Q2153.26 238.638 2159.33 238.638 Q2161.29 238.638 2163.17 239.055 Q2165.04 239.448 2166.8 240.258 Z" fill="#000000" fill-rule="evenodd" fill-opacity="1" /><path clip-path="url(#clip520)" d="M2195.76 249.541 L2195.76 265.189 L2191.5 265.189 L2191.5 249.679 Q2191.5 245.999 2190.07 244.17 Q2188.63 242.342 2185.76 242.342 Q2182.31 242.342 2180.32 244.541 Q2178.33 246.74 2178.33 250.536 L2178.33 265.189 L2174.05 265.189 L2174.05 229.17 L2178.33 229.17 L2178.33 243.291 Q2179.86 240.953 2181.92 239.795 Q2184 238.638 2186.71 238.638 Q2191.18 238.638 2193.47 241.416 Q2195.76 244.17 2195.76 249.541 Z" fill="#000000" fill-rule="evenodd" fill-opacity="1" /><path clip-path="url(#clip520)" d="M2220.78 240.027 L2220.78 244.054 Q2218.98 243.129 2217.03 242.666 Q2215.09 242.203 2213.01 242.203 Q2209.83 242.203 2208.24 243.175 Q2206.66 244.147 2206.66 246.091 Q2206.66 247.573 2207.8 248.429 Q2208.93 249.263 2212.36 250.027 L2213.82 250.351 Q2218.35 251.323 2220.25 253.105 Q2222.17 254.865 2222.17 258.036 Q2222.17 261.647 2219.3 263.753 Q2216.45 265.86 2211.45 265.86 Q2209.37 265.86 2207.1 265.443 Q2204.86 265.05 2202.36 264.24 L2202.36 259.841 Q2204.72 261.068 2207.01 261.693 Q2209.3 262.295 2211.55 262.295 Q2214.56 262.295 2216.18 261.277 Q2217.8 260.235 2217.8 258.36 Q2217.8 256.624 2216.62 255.698 Q2215.46 254.772 2211.5 253.916 L2210.02 253.568 Q2206.06 252.735 2204.3 251.022 Q2202.54 249.286 2202.54 246.277 Q2202.54 242.619 2205.14 240.629 Q2207.73 238.638 2212.5 238.638 Q2214.86 238.638 2216.94 238.985 Q2219.02 239.332 2220.78 240.027 Z" fill="#000000" fill-rule="evenodd" fill-opacity="1" /><path clip-path="url(#clip520)" d="M2228.28 229.217 L2231.99 229.217 Q2235.46 234.68 2237.17 239.911 Q2238.91 245.142 2238.91 250.304 Q2238.91 255.49 2237.17 260.744 Q2235.46 265.999 2231.99 271.439 L2228.28 271.439 Q2231.36 266.138 2232.87 260.906 Q2234.39 255.652 2234.39 250.304 Q2234.39 244.957 2232.87 239.749 Q2231.36 234.541 2228.28 229.217 Z" fill="#000000" fill-rule="evenodd" fill-opacity="1" /></svg>
