<?xml version="1.0" encoding="utf-8"?>
<svg xmlns="http://www.w3.org/2000/svg" xmlns:xlink="http://www.w3.org/1999/xlink" width="600" height="400" viewBox="0 0 2400 1600">
<defs>
  <clipPath id="clip520">
    <rect x="0" y="0" width="2400" height="1600"/>
  </clipPath>
</defs>
<path clip-path="url(#clip520)" d="
M0 1600 L2400 1600 L2400 0 L0 0  Z
  " fill="#ffffff" fill-rule="evenodd" fill-opacity="1"/>
<defs>
  <clipPath id="clip521">
    <rect x="480" y="0" width="1681" height="1600"/>
  </clipPath>
</defs>
<path clip-path="url(#clip520)" d="
M303.503 1401.58 L2352.76 1401.58 L2352.76 47.2441 L303.503 47.2441  Z
  " fill="#ffffff" fill-rule="evenodd" fill-opacity="1"/>
<defs>
  <clipPath id="clip522">
    <rect x="303" y="47" width="2050" height="1355"/>
  </clipPath>
</defs>
<polyline clip-path="url(#clip522)" style="stroke:#000000; stroke-linecap:butt; stroke-linejoin:round; stroke-width:2; stroke-opacity:0.1; fill:none" points="
  361.501,1401.58 361.501,47.2441 
  "/>
<polyline clip-path="url(#clip522)" style="stroke:#000000; stroke-linecap:butt; stroke-linejoin:round; stroke-width:2; stroke-opacity:0.1; fill:none" points="
  748.152,1401.58 748.152,47.2441 
  "/>
<polyline clip-path="url(#clip522)" style="stroke:#000000; stroke-linecap:butt; stroke-linejoin:round; stroke-width:2; stroke-opacity:0.1; fill:none" points="
  1134.8,1401.58 1134.8,47.2441 
  "/>
<polyline clip-path="url(#clip522)" style="stroke:#000000; stroke-linecap:butt; stroke-linejoin:round; stroke-width:2; stroke-opacity:0.1; fill:none" points="
  1521.46,1401.58 1521.46,47.2441 
  "/>
<polyline clip-path="url(#clip522)" style="stroke:#000000; stroke-linecap:butt; stroke-linejoin:round; stroke-width:2; stroke-opacity:0.1; fill:none" points="
  1908.11,1401.58 1908.11,47.2441 
  "/>
<polyline clip-path="url(#clip522)" style="stroke:#000000; stroke-linecap:butt; stroke-linejoin:round; stroke-width:2; stroke-opacity:0.1; fill:none" points="
  2294.76,1401.58 2294.76,47.2441 
  "/>
<polyline clip-path="url(#clip520)" style="stroke:#000000; stroke-linecap:butt; stroke-linejoin:round; stroke-width:4; stroke-opacity:1; fill:none" points="
  303.503,1401.58 2352.76,1401.58 
  "/>
<polyline clip-path="url(#clip520)" style="stroke:#000000; stroke-linecap:butt; stroke-linejoin:round; stroke-width:4; stroke-opacity:1; fill:none" points="
  361.501,1401.58 361.501,1385.33 
  "/>
<polyline clip-path="url(#clip520)" style="stroke:#000000; stroke-linecap:butt; stroke-linejoin:round; stroke-width:4; stroke-opacity:1; fill:none" points="
  748.152,1401.58 748.152,1385.33 
  "/>
<polyline clip-path="url(#clip520)" style="stroke:#000000; stroke-linecap:butt; stroke-linejoin:round; stroke-width:4; stroke-opacity:1; fill:none" points="
  1134.8,1401.58 1134.8,1385.33 
  "/>
<polyline clip-path="url(#clip520)" style="stroke:#000000; stroke-linecap:butt; stroke-linejoin:round; stroke-width:4; stroke-opacity:1; fill:none" points="
  1521.46,1401.58 1521.46,1385.33 
  "/>
<polyline clip-path="url(#clip520)" style="stroke:#000000; stroke-linecap:butt; stroke-linejoin:round; stroke-width:4; stroke-opacity:1; fill:none" points="
  1908.11,1401.58 1908.11,1385.33 
  "/>
<polyline clip-path="url(#clip520)" style="stroke:#000000; stroke-linecap:butt; stroke-linejoin:round; stroke-width:4; stroke-opacity:1; fill:none" points="
  2294.76,1401.58 2294.76,1385.33 
  "/>
<path clip-path="url(#clip520)" d="M361.501 1435.77 Q356.084 1435.77 353.341 1441.11 Q350.633 1446.43 350.633 1457.12 Q350.633 1467.78 353.341 1473.13 Q356.084 1478.44 361.501 1478.44 Q366.952 1478.44 369.66 1473.13 Q372.403 1467.78 372.403 1457.12 Q372.403 1446.43 369.66 1441.11 Q366.952 1435.77 361.501 1435.77 M361.501 1430.21 Q370.216 1430.21 374.799 1437.12 Q379.417 1443.99 379.417 1457.12 Q379.417 1470.21 374.799 1477.12 Q370.216 1483.99 361.501 1483.99 Q352.785 1483.99 348.167 1477.12 Q343.584 1470.21 343.584 1457.12 Q343.584 1443.99 348.167 1437.12 Q352.785 1430.21 361.501 1430.21 Z" fill="#000000" fill-rule="evenodd" fill-opacity="1" /><path clip-path="url(#clip520)" d="M733.725 1477.09 L745.183 1477.09 L745.183 1437.54 L732.718 1440.04 L732.718 1433.65 L745.114 1431.15 L752.128 1431.15 L752.128 1477.09 L763.586 1477.09 L763.586 1482.99 L733.725 1482.99 L733.725 1477.09 Z" fill="#000000" fill-rule="evenodd" fill-opacity="1" /><path clip-path="url(#clip520)" d="M1126.78 1477.09 L1151.26 1477.09 L1151.26 1482.99 L1118.35 1482.99 L1118.35 1477.09 Q1122.34 1472.95 1129.21 1466.01 Q1136.12 1459.03 1137.89 1457.02 Q1141.26 1453.23 1142.58 1450.63 Q1143.94 1447.99 1143.94 1445.45 Q1143.94 1441.32 1141.02 1438.72 Q1138.14 1436.11 1133.48 1436.11 Q1130.19 1436.11 1126.51 1437.26 Q1122.86 1438.4 1118.69 1440.73 L1118.69 1433.65 Q1122.93 1431.95 1126.61 1431.08 Q1130.29 1430.21 1133.35 1430.21 Q1141.4 1430.21 1146.19 1434.24 Q1150.98 1438.27 1150.98 1445 Q1150.98 1448.2 1149.77 1451.08 Q1148.59 1453.93 1145.43 1457.81 Q1144.56 1458.82 1139.91 1463.65 Q1135.26 1468.44 1126.78 1477.09 Z" fill="#000000" fill-rule="evenodd" fill-opacity="1" /><path clip-path="url(#clip520)" d="M1527.83 1455.04 Q1532.86 1456.11 1535.67 1459.52 Q1538.52 1462.92 1538.52 1467.92 Q1538.52 1475.59 1533.24 1479.79 Q1527.97 1483.99 1518.24 1483.99 Q1514.98 1483.99 1511.51 1483.34 Q1508.07 1482.71 1504.39 1481.43 L1504.39 1474.65 Q1507.31 1476.36 1510.78 1477.22 Q1514.25 1478.09 1518.04 1478.09 Q1524.63 1478.09 1528.07 1475.49 Q1531.54 1472.88 1531.54 1467.92 Q1531.54 1463.34 1528.31 1460.77 Q1525.12 1458.16 1519.39 1458.16 L1513.35 1458.16 L1513.35 1452.4 L1519.67 1452.4 Q1524.84 1452.4 1527.58 1450.35 Q1530.33 1448.27 1530.33 1444.38 Q1530.33 1440.38 1527.48 1438.27 Q1524.67 1436.11 1519.39 1436.11 Q1516.51 1436.11 1513.21 1436.74 Q1509.91 1437.36 1505.95 1438.68 L1505.95 1432.43 Q1509.94 1431.32 1513.42 1430.77 Q1516.92 1430.21 1520.01 1430.21 Q1528 1430.21 1532.65 1433.86 Q1537.31 1437.47 1537.31 1443.65 Q1537.31 1447.95 1534.84 1450.94 Q1532.38 1453.89 1527.83 1455.04 Z" fill="#000000" fill-rule="evenodd" fill-opacity="1" /><path clip-path="url(#clip520)" d="M1912.62 1437.26 L1894.91 1464.93 L1912.62 1464.93 L1912.62 1437.26 M1910.78 1431.15 L1919.6 1431.15 L1919.6 1464.93 L1927 1464.93 L1927 1470.77 L1919.6 1470.77 L1919.6 1482.99 L1912.62 1482.99 L1912.62 1470.77 L1889.22 1470.77 L1889.22 1463.99 L1910.78 1431.15 Z" fill="#000000" fill-rule="evenodd" fill-opacity="1" /><path clip-path="url(#clip520)" d="M2280.17 1431.15 L2307.71 1431.15 L2307.71 1437.05 L2286.6 1437.05 L2286.6 1449.76 Q2288.13 1449.24 2289.65 1448.99 Q2291.18 1448.72 2292.71 1448.72 Q2301.39 1448.72 2306.46 1453.47 Q2311.53 1458.23 2311.53 1466.36 Q2311.53 1474.72 2306.32 1479.38 Q2301.11 1483.99 2291.63 1483.99 Q2288.37 1483.99 2284.97 1483.44 Q2281.6 1482.88 2277.99 1481.77 L2277.99 1474.72 Q2281.11 1476.43 2284.45 1477.26 Q2287.78 1478.09 2291.49 1478.09 Q2297.5 1478.09 2301.01 1474.93 Q2304.52 1471.77 2304.52 1466.36 Q2304.52 1460.94 2301.01 1457.78 Q2297.5 1454.62 2291.49 1454.62 Q2288.68 1454.62 2285.87 1455.24 Q2283.09 1455.87 2280.17 1457.19 L2280.17 1431.15 Z" fill="#000000" fill-rule="evenodd" fill-opacity="1" /><path clip-path="url(#clip520)" d="M1271.74 1527.62 L1271.74 1538.66 L1284.9 1538.66 L1284.9 1543.62 L1271.74 1543.62 L1271.74 1564.74 Q1271.74 1569.49 1273.03 1570.85 Q1274.35 1572.2 1278.34 1572.2 L1284.9 1572.2 L1284.9 1577.55 L1278.34 1577.55 Q1270.94 1577.55 1268.13 1574.8 Q1265.32 1572.03 1265.32 1564.74 L1265.32 1543.62 L1260.63 1543.62 L1260.63 1538.66 L1265.32 1538.66 L1265.32 1527.62 L1271.74 1527.62 Z" fill="#000000" fill-rule="evenodd" fill-opacity="1" /><path clip-path="url(#clip520)" d="M1315.32 1523.52 L1330.04 1523.52 L1330.04 1528.49 L1321.71 1528.49 L1321.71 1581.96 L1330.04 1581.96 L1330.04 1586.92 L1315.32 1586.92 L1315.32 1523.52 Z" fill="#000000" fill-rule="evenodd" fill-opacity="1" /><path clip-path="url(#clip520)" d="M1368.44 1539.8 L1368.44 1545.85 Q1365.73 1544.46 1362.82 1543.76 Q1359.9 1543.07 1356.78 1543.07 Q1352.02 1543.07 1349.62 1544.53 Q1347.26 1545.99 1347.26 1548.9 Q1347.26 1551.12 1348.96 1552.41 Q1350.66 1553.66 1355.8 1554.8 L1357.99 1555.29 Q1364.8 1556.75 1367.64 1559.42 Q1370.53 1562.06 1370.53 1566.82 Q1370.53 1572.24 1366.22 1575.4 Q1361.95 1578.55 1354.45 1578.55 Q1351.32 1578.55 1347.92 1577.93 Q1344.55 1577.34 1340.8 1576.12 L1340.8 1569.53 Q1344.34 1571.37 1347.78 1572.3 Q1351.22 1573.21 1354.59 1573.21 Q1359.1 1573.21 1361.53 1571.68 Q1363.96 1570.12 1363.96 1567.3 Q1363.96 1564.7 1362.19 1563.31 Q1360.46 1561.92 1354.52 1560.64 L1352.3 1560.12 Q1346.36 1558.87 1343.72 1556.3 Q1341.08 1553.69 1341.08 1549.18 Q1341.08 1543.69 1344.97 1540.71 Q1348.86 1537.72 1356.01 1537.72 Q1359.55 1537.72 1362.68 1538.24 Q1365.8 1538.76 1368.44 1539.8 Z" fill="#000000" fill-rule="evenodd" fill-opacity="1" /><path clip-path="url(#clip520)" d="M1395.63 1523.52 L1395.63 1586.92 L1380.91 1586.92 L1380.91 1581.96 L1389.21 1581.96 L1389.21 1528.49 L1380.91 1528.49 L1380.91 1523.52 L1395.63 1523.52 Z" fill="#000000" fill-rule="evenodd" fill-opacity="1" /><polyline clip-path="url(#clip522)" style="stroke:#000000; stroke-linecap:butt; stroke-linejoin:round; stroke-width:2; stroke-opacity:0.1; fill:none" points="
  303.503,1363.25 2352.76,1363.25 
  "/>
<polyline clip-path="url(#clip522)" style="stroke:#000000; stroke-linecap:butt; stroke-linejoin:round; stroke-width:2; stroke-opacity:0.1; fill:none" points="
  303.503,1097.07 2352.76,1097.07 
  "/>
<polyline clip-path="url(#clip522)" style="stroke:#000000; stroke-linecap:butt; stroke-linejoin:round; stroke-width:2; stroke-opacity:0.1; fill:none" points="
  303.503,830.899 2352.76,830.899 
  "/>
<polyline clip-path="url(#clip522)" style="stroke:#000000; stroke-linecap:butt; stroke-linejoin:round; stroke-width:2; stroke-opacity:0.1; fill:none" points="
  303.503,564.724 2352.76,564.724 
  "/>
<polyline clip-path="url(#clip522)" style="stroke:#000000; stroke-linecap:butt; stroke-linejoin:round; stroke-width:2; stroke-opacity:0.1; fill:none" points="
  303.503,298.549 2352.76,298.549 
  "/>
<polyline clip-path="url(#clip520)" style="stroke:#000000; stroke-linecap:butt; stroke-linejoin:round; stroke-width:4; stroke-opacity:1; fill:none" points="
  303.503,1401.58 303.503,47.2441 
  "/>
<polyline clip-path="url(#clip520)" style="stroke:#000000; stroke-linecap:butt; stroke-linejoin:round; stroke-width:4; stroke-opacity:1; fill:none" points="
  303.503,1363.25 328.094,1363.25 
  "/>
<polyline clip-path="url(#clip520)" style="stroke:#000000; stroke-linecap:butt; stroke-linejoin:round; stroke-width:4; stroke-opacity:1; fill:none" points="
  303.503,1097.07 328.094,1097.07 
  "/>
<polyline clip-path="url(#clip520)" style="stroke:#000000; stroke-linecap:butt; stroke-linejoin:round; stroke-width:4; stroke-opacity:1; fill:none" points="
  303.503,830.899 328.094,830.899 
  "/>
<polyline clip-path="url(#clip520)" style="stroke:#000000; stroke-linecap:butt; stroke-linejoin:round; stroke-width:4; stroke-opacity:1; fill:none" points="
  303.503,564.724 328.094,564.724 
  "/>
<polyline clip-path="url(#clip520)" style="stroke:#000000; stroke-linecap:butt; stroke-linejoin:round; stroke-width:4; stroke-opacity:1; fill:none" points="
  303.503,298.549 328.094,298.549 
  "/>
<path clip-path="url(#clip520)" d="M136.497 1341.95 Q131.08 1341.95 128.337 1347.29 Q125.629 1352.61 125.629 1363.3 Q125.629 1373.96 128.337 1379.31 Q131.08 1384.62 136.497 1384.62 Q141.948 1384.62 144.656 1379.31 Q147.399 1373.96 147.399 1363.3 Q147.399 1352.61 144.656 1347.29 Q141.948 1341.95 136.497 1341.95 M136.497 1336.39 Q145.212 1336.39 149.795 1343.3 Q154.413 1350.18 154.413 1363.3 Q154.413 1376.39 149.795 1383.3 Q145.212 1390.18 136.497 1390.18 Q127.781 1390.18 123.163 1383.3 Q118.58 1376.39 118.58 1363.3 Q118.58 1350.18 123.163 1343.3 Q127.781 1336.39 136.497 1336.39 Z" fill="#000000" fill-rule="evenodd" fill-opacity="1" /><path clip-path="url(#clip520)" d="M166.74 1380.35 L174.066 1380.35 L174.066 1389.17 L166.74 1389.17 L166.74 1380.35 Z" fill="#000000" fill-rule="evenodd" fill-opacity="1" /><path clip-path="url(#clip520)" d="M189.413 1337.33 L216.948 1337.33 L216.948 1343.23 L195.837 1343.23 L195.837 1355.94 Q197.364 1355.42 198.892 1355.18 Q200.42 1354.9 201.948 1354.9 Q210.628 1354.9 215.698 1359.66 Q220.767 1364.41 220.767 1372.54 Q220.767 1380.91 215.559 1385.56 Q210.35 1390.18 200.871 1390.18 Q197.608 1390.18 194.205 1389.62 Q190.837 1389.07 187.226 1387.95 L187.226 1380.91 Q190.351 1382.61 193.684 1383.44 Q197.017 1384.27 200.732 1384.27 Q206.739 1384.27 210.246 1381.11 Q213.753 1377.95 213.753 1372.54 Q213.753 1367.12 210.246 1363.96 Q206.739 1360.8 200.732 1360.8 Q197.92 1360.8 195.108 1361.43 Q192.33 1362.05 189.413 1363.37 L189.413 1337.33 Z" fill="#000000" fill-rule="evenodd" fill-opacity="1" /><path clip-path="url(#clip520)" d="M249.586 1341.95 Q244.17 1341.95 241.427 1347.29 Q238.718 1352.61 238.718 1363.3 Q238.718 1373.96 241.427 1379.31 Q244.17 1384.62 249.586 1384.62 Q255.038 1384.62 257.746 1379.31 Q260.489 1373.96 260.489 1363.3 Q260.489 1352.61 257.746 1347.29 Q255.038 1341.95 249.586 1341.95 M249.586 1336.39 Q258.302 1336.39 262.885 1343.3 Q267.503 1350.18 267.503 1363.3 Q267.503 1376.39 262.885 1383.3 Q258.302 1390.18 249.586 1390.18 Q240.871 1390.18 236.253 1383.3 Q231.67 1376.39 231.67 1363.3 Q231.67 1350.18 236.253 1343.3 Q240.871 1336.39 249.586 1336.39 Z" fill="#000000" fill-rule="evenodd" fill-opacity="1" /><path clip-path="url(#clip520)" d="M137.99 1075.77 Q132.573 1075.77 129.83 1081.12 Q127.122 1086.43 127.122 1097.13 Q127.122 1107.79 129.83 1113.13 Q132.573 1118.45 137.99 1118.45 Q143.441 1118.45 146.149 1113.13 Q148.892 1107.79 148.892 1097.13 Q148.892 1086.43 146.149 1081.12 Q143.441 1075.77 137.99 1075.77 M137.99 1070.22 Q146.705 1070.22 151.288 1077.13 Q155.906 1084 155.906 1097.13 Q155.906 1110.22 151.288 1117.13 Q146.705 1124 137.99 1124 Q129.275 1124 124.657 1117.13 Q120.073 1110.22 120.073 1097.13 Q120.073 1084 124.657 1077.13 Q129.275 1070.22 137.99 1070.22 Z" fill="#000000" fill-rule="evenodd" fill-opacity="1" /><path clip-path="url(#clip520)" d="M168.233 1114.17 L175.559 1114.17 L175.559 1122.99 L168.233 1122.99 L168.233 1114.17 Z" fill="#000000" fill-rule="evenodd" fill-opacity="1" /><path clip-path="url(#clip520)" d="M189.066 1071.15 L222.399 1071.15 L222.399 1074.14 L203.58 1122.99 L196.253 1122.99 L213.962 1077.06 L189.066 1077.06 L189.066 1071.15 Z" fill="#000000" fill-rule="evenodd" fill-opacity="1" /><path clip-path="url(#clip520)" d="M236.149 1071.15 L263.684 1071.15 L263.684 1077.06 L242.573 1077.06 L242.573 1089.77 Q244.1 1089.24 245.628 1089 Q247.156 1088.72 248.684 1088.72 Q257.364 1088.72 262.434 1093.48 Q267.503 1098.24 267.503 1106.36 Q267.503 1114.73 262.295 1119.38 Q257.086 1124 247.607 1124 Q244.343 1124 240.941 1123.45 Q237.573 1122.89 233.961 1121.78 L233.961 1114.73 Q237.086 1116.43 240.42 1117.27 Q243.753 1118.1 247.468 1118.1 Q253.475 1118.1 256.982 1114.94 Q260.489 1111.78 260.489 1106.36 Q260.489 1100.95 256.982 1097.79 Q253.475 1094.63 247.468 1094.63 Q244.656 1094.63 241.843 1095.25 Q239.066 1095.88 236.149 1097.2 L236.149 1071.15 Z" fill="#000000" fill-rule="evenodd" fill-opacity="1" /><path clip-path="url(#clip520)" d="M122.712 850.916 L134.17 850.916 L134.17 811.368 L121.705 813.868 L121.705 807.479 L134.101 804.979 L141.115 804.979 L141.115 850.916 L152.573 850.916 L152.573 856.819 L122.712 856.819 L122.712 850.916 Z" fill="#000000" fill-rule="evenodd" fill-opacity="1" /><path clip-path="url(#clip520)" d="M166.74 848 L174.066 848 L174.066 856.819 L166.74 856.819 L166.74 848 Z" fill="#000000" fill-rule="evenodd" fill-opacity="1" /><path clip-path="url(#clip520)" d="M204.344 809.597 Q198.927 809.597 196.184 814.944 Q193.476 820.257 193.476 830.951 Q193.476 841.611 196.184 846.958 Q198.927 852.271 204.344 852.271 Q209.795 852.271 212.503 846.958 Q215.246 841.611 215.246 830.951 Q215.246 820.257 212.503 814.944 Q209.795 809.597 204.344 809.597 M204.344 804.042 Q213.059 804.042 217.642 810.951 Q222.26 817.826 222.26 830.951 Q222.26 844.041 217.642 850.951 Q213.059 857.826 204.344 857.826 Q195.628 857.826 191.01 850.951 Q186.427 844.041 186.427 830.951 Q186.427 817.826 191.01 810.951 Q195.628 804.042 204.344 804.042 Z" fill="#000000" fill-rule="evenodd" fill-opacity="1" /><path clip-path="url(#clip520)" d="M249.586 809.597 Q244.17 809.597 241.427 814.944 Q238.718 820.257 238.718 830.951 Q238.718 841.611 241.427 846.958 Q244.17 852.271 249.586 852.271 Q255.038 852.271 257.746 846.958 Q260.489 841.611 260.489 830.951 Q260.489 820.257 257.746 814.944 Q255.038 809.597 249.586 809.597 M249.586 804.042 Q258.302 804.042 262.885 810.951 Q267.503 817.826 267.503 830.951 Q267.503 844.041 262.885 850.951 Q258.302 857.826 249.586 857.826 Q240.871 857.826 236.253 850.951 Q231.67 844.041 231.67 830.951 Q231.67 817.826 236.253 810.951 Q240.871 804.042 249.586 804.042 Z" fill="#000000" fill-rule="evenodd" fill-opacity="1" /><path clip-path="url(#clip520)" d="M124.205 584.741 L135.663 584.741 L135.663 545.193 L123.198 547.693 L123.198 541.304 L135.594 538.804 L142.608 538.804 L142.608 584.741 L154.066 584.741 L154.066 590.644 L124.205 590.644 L124.205 584.741 Z" fill="#000000" fill-rule="evenodd" fill-opacity="1" /><path clip-path="url(#clip520)" d="M168.233 581.825 L175.559 581.825 L175.559 590.644 L168.233 590.644 L168.233 581.825 Z" fill="#000000" fill-rule="evenodd" fill-opacity="1" /><path clip-path="url(#clip520)" d="M196.878 584.741 L221.357 584.741 L221.357 590.644 L188.441 590.644 L188.441 584.741 Q192.434 580.609 199.309 573.665 Q206.219 566.686 207.989 564.672 Q211.357 560.887 212.677 558.283 Q214.031 555.644 214.031 553.109 Q214.031 548.978 211.114 546.373 Q208.232 543.769 203.58 543.769 Q200.281 543.769 196.601 544.915 Q192.955 546.061 188.788 548.387 L188.788 541.304 Q193.024 539.603 196.705 538.735 Q200.385 537.867 203.441 537.867 Q211.496 537.867 216.288 541.894 Q221.08 545.922 221.08 552.658 Q221.08 555.853 219.864 558.734 Q218.684 561.582 215.524 565.471 Q214.656 566.477 210.003 571.304 Q205.351 576.095 196.878 584.741 Z" fill="#000000" fill-rule="evenodd" fill-opacity="1" /><path clip-path="url(#clip520)" d="M236.149 538.804 L263.684 538.804 L263.684 544.707 L242.573 544.707 L242.573 557.415 Q244.1 556.894 245.628 556.651 Q247.156 556.373 248.684 556.373 Q257.364 556.373 262.434 561.13 Q267.503 565.887 267.503 574.012 Q267.503 582.38 262.295 587.033 Q257.086 591.651 247.607 591.651 Q244.343 591.651 240.941 591.095 Q237.573 590.54 233.961 589.429 L233.961 582.38 Q237.086 584.082 240.42 584.915 Q243.753 585.748 247.468 585.748 Q253.475 585.748 256.982 582.588 Q260.489 579.429 260.489 574.012 Q260.489 568.596 256.982 565.436 Q253.475 562.276 247.468 562.276 Q244.656 562.276 241.843 562.901 Q239.066 563.526 236.149 564.846 L236.149 538.804 Z" fill="#000000" fill-rule="evenodd" fill-opacity="1" /><path clip-path="url(#clip520)" d="M122.712 318.566 L134.17 318.566 L134.17 279.018 L121.705 281.518 L121.705 275.129 L134.101 272.629 L141.115 272.629 L141.115 318.566 L152.573 318.566 L152.573 324.469 L122.712 324.469 L122.712 318.566 Z" fill="#000000" fill-rule="evenodd" fill-opacity="1" /><path clip-path="url(#clip520)" d="M166.74 315.649 L174.066 315.649 L174.066 324.469 L166.74 324.469 L166.74 315.649 Z" fill="#000000" fill-rule="evenodd" fill-opacity="1" /><path clip-path="url(#clip520)" d="M189.413 272.629 L216.948 272.629 L216.948 278.532 L195.837 278.532 L195.837 291.24 Q197.364 290.719 198.892 290.476 Q200.42 290.198 201.948 290.198 Q210.628 290.198 215.698 294.955 Q220.767 299.712 220.767 307.837 Q220.767 316.205 215.559 320.858 Q210.35 325.476 200.871 325.476 Q197.608 325.476 194.205 324.92 Q190.837 324.365 187.226 323.254 L187.226 316.205 Q190.351 317.906 193.684 318.74 Q197.017 319.573 200.732 319.573 Q206.739 319.573 210.246 316.413 Q213.753 313.254 213.753 307.837 Q213.753 302.42 210.246 299.261 Q206.739 296.101 200.732 296.101 Q197.92 296.101 195.108 296.726 Q192.33 297.351 189.413 298.67 L189.413 272.629 Z" fill="#000000" fill-rule="evenodd" fill-opacity="1" /><path clip-path="url(#clip520)" d="M249.586 277.247 Q244.17 277.247 241.427 282.594 Q238.718 287.907 238.718 298.601 Q238.718 309.261 241.427 314.608 Q244.17 319.92 249.586 319.92 Q255.038 319.92 257.746 314.608 Q260.489 309.261 260.489 298.601 Q260.489 287.907 257.746 282.594 Q255.038 277.247 249.586 277.247 M249.586 271.691 Q258.302 271.691 262.885 278.601 Q267.503 285.476 267.503 298.601 Q267.503 311.691 262.885 318.601 Q258.302 325.476 249.586 325.476 Q240.871 325.476 236.253 318.601 Q231.67 311.691 231.67 298.601 Q231.67 285.476 236.253 278.601 Q240.871 271.691 249.586 271.691 Z" fill="#000000" fill-rule="evenodd" fill-opacity="1" /><path clip-path="url(#clip520)" d="M35.6047 1006.89 Q31.2992 1004.5 29.2506 1001.16 Q27.202 997.831 27.202 993.317 Q27.202 987.24 31.4728 983.942 Q35.7089 980.643 43.5561 980.643 L67.0282 980.643 L67.0282 987.067 L43.7644 987.067 Q38.1741 987.067 35.4658 989.046 Q32.7575 991.025 32.7575 995.088 Q32.7575 1000.05 36.0561 1002.93 Q39.3547 1005.82 45.0491 1005.82 L67.0282 1005.82 L67.0282 1012.24 L43.7644 1012.24 Q38.1394 1012.24 35.4658 1014.22 Q32.7575 1016.2 32.7575 1020.33 Q32.7575 1025.23 36.0908 1028.11 Q39.3894 1030.99 45.0491 1030.99 L67.0282 1030.99 L67.0282 1037.41 L28.1395 1037.41 L28.1395 1030.99 L34.1811 1030.99 Q30.6047 1028.8 28.9034 1025.75 Q27.202 1022.69 27.202 1018.49 Q27.202 1014.25 29.3547 1011.3 Q31.5075 1008.32 35.6047 1006.89 Z" fill="#000000" fill-rule="evenodd" fill-opacity="1" /><path clip-path="url(#clip520)" d="M47.4797 950.227 Q47.4797 957.97 49.2505 960.956 Q51.0213 963.942 55.2921 963.942 Q58.6949 963.942 60.7087 961.72 Q62.6879 959.463 62.6879 955.609 Q62.6879 950.296 58.9379 947.102 Q55.1532 943.873 48.9033 943.873 L47.4797 943.873 L47.4797 950.227 M44.8408 937.484 L67.0282 937.484 L67.0282 943.873 L61.1254 943.873 Q64.6671 946.06 66.3684 949.324 Q68.0351 952.588 68.0351 957.31 Q68.0351 963.282 64.7018 966.824 Q61.3337 970.331 55.7088 970.331 Q49.1463 970.331 45.813 965.956 Q42.4797 961.546 42.4797 952.831 L42.4797 943.873 L41.8547 943.873 Q37.445 943.873 35.0492 946.789 Q32.6186 949.671 32.6186 954.914 Q32.6186 958.248 33.4172 961.407 Q34.2158 964.567 35.813 967.484 L29.9103 967.484 Q28.5561 963.977 27.8964 960.678 Q27.202 957.379 27.202 954.254 Q27.202 945.817 31.577 941.65 Q35.9519 937.484 44.8408 937.484 Z" fill="#000000" fill-rule="evenodd" fill-opacity="1" /><path clip-path="url(#clip520)" d="M29.2853 899.533 L35.3269 899.533 Q33.9381 902.241 33.2436 905.158 Q32.5492 908.074 32.5492 911.199 Q32.5492 915.956 34.0075 918.352 Q35.4658 920.713 38.3825 920.713 Q40.6047 920.713 41.8894 919.012 Q43.1394 917.31 44.2852 912.171 L44.7713 909.984 Q46.2297 903.178 48.9033 900.331 Q51.5421 897.449 56.299 897.449 Q61.7157 897.449 64.8754 901.755 Q68.0351 906.026 68.0351 913.526 Q68.0351 916.651 67.4101 920.053 Q66.8198 923.421 65.6046 927.171 L59.0074 927.171 Q60.8476 923.63 61.7851 920.192 Q62.6879 916.755 62.6879 913.387 Q62.6879 908.873 61.1601 906.442 Q59.5976 904.012 56.7852 904.012 Q54.181 904.012 52.7921 905.783 Q51.4032 907.519 50.1185 913.456 L49.5977 915.678 Q48.3477 921.616 45.7783 924.255 Q43.1741 926.894 38.6603 926.894 Q33.1742 926.894 30.1881 923.005 Q27.202 919.116 27.202 911.963 Q27.202 908.421 27.7228 905.296 Q28.2436 902.171 29.2853 899.533 Z" fill="#000000" fill-rule="evenodd" fill-opacity="1" /><path clip-path="url(#clip520)" d="M29.2853 862.484 L35.3269 862.484 Q33.9381 865.192 33.2436 868.109 Q32.5492 871.026 32.5492 874.151 Q32.5492 878.908 34.0075 881.303 Q35.4658 883.665 38.3825 883.665 Q40.6047 883.665 41.8894 881.963 Q43.1394 880.262 44.2852 875.123 L44.7713 872.935 Q46.2297 866.13 48.9033 863.283 Q51.5421 860.401 56.299 860.401 Q61.7157 860.401 64.8754 864.706 Q68.0351 868.977 68.0351 876.477 Q68.0351 879.602 67.4101 883.005 Q66.8198 886.373 65.6046 890.123 L59.0074 890.123 Q60.8476 886.581 61.7851 883.144 Q62.6879 879.706 62.6879 876.338 Q62.6879 871.824 61.1601 869.394 Q59.5976 866.963 56.7852 866.963 Q54.181 866.963 52.7921 868.734 Q51.4032 870.47 50.1185 876.408 L49.5977 878.63 Q48.3477 884.567 45.7783 887.206 Q43.1741 889.845 38.6603 889.845 Q33.1742 889.845 30.1881 885.956 Q27.202 882.067 27.202 874.915 Q27.202 871.373 27.7228 868.248 Q28.2436 865.123 29.2853 862.484 Z" fill="#000000" fill-rule="evenodd" fill-opacity="1" /><path clip-path="url(#clip520)" d="M61.1949 821.443 L81.8197 821.443 L81.8197 827.866 L28.1395 827.866 L28.1395 821.443 L34.0422 821.443 Q30.57 819.429 28.9034 816.373 Q27.202 813.283 27.202 809.012 Q27.202 801.929 32.827 797.519 Q38.4519 793.075 47.6185 793.075 Q56.7852 793.075 62.4101 797.519 Q68.0351 801.929 68.0351 809.012 Q68.0351 813.283 66.3684 816.373 Q64.6671 819.429 61.1949 821.443 M47.6185 799.707 Q40.57 799.707 36.5769 802.623 Q32.5492 805.505 32.5492 810.575 Q32.5492 815.644 36.5769 818.561 Q40.57 821.443 47.6185 821.443 Q54.6671 821.443 58.6949 818.561 Q62.6879 815.644 62.6879 810.575 Q62.6879 805.505 58.6949 802.623 Q54.6671 799.707 47.6185 799.707 Z" fill="#000000" fill-rule="evenodd" fill-opacity="1" /><path clip-path="url(#clip520)" d="M32.6186 767.415 Q32.6186 772.554 36.6464 775.54 Q40.6394 778.526 47.6185 778.526 Q54.5977 778.526 58.6254 775.575 Q62.6185 772.589 62.6185 767.415 Q62.6185 762.311 58.5907 759.325 Q54.5629 756.339 47.6185 756.339 Q40.7089 756.339 36.6811 759.325 Q32.6186 762.311 32.6186 767.415 M27.202 767.415 Q27.202 759.082 32.6186 754.325 Q38.0353 749.568 47.6185 749.568 Q57.1671 749.568 62.6185 754.325 Q68.0351 759.082 68.0351 767.415 Q68.0351 775.783 62.6185 780.54 Q57.1671 785.262 47.6185 785.262 Q38.0353 785.262 32.6186 780.54 Q27.202 775.783 27.202 767.415 Z" fill="#000000" fill-rule="evenodd" fill-opacity="1" /><path clip-path="url(#clip520)" d="M29.2853 714.186 L35.3269 714.186 Q33.9381 716.895 33.2436 719.811 Q32.5492 722.728 32.5492 725.853 Q32.5492 730.61 34.0075 733.006 Q35.4658 735.367 38.3825 735.367 Q40.6047 735.367 41.8894 733.665 Q43.1394 731.964 44.2852 726.825 L44.7713 724.638 Q46.2297 717.832 48.9033 714.985 Q51.5421 712.103 56.299 712.103 Q61.7157 712.103 64.8754 716.409 Q68.0351 720.679 68.0351 728.179 Q68.0351 731.304 67.4101 734.707 Q66.8198 738.075 65.6046 741.825 L59.0074 741.825 Q60.8476 738.283 61.7851 734.846 Q62.6879 731.408 62.6879 728.04 Q62.6879 723.527 61.1601 721.096 Q59.5976 718.665 56.7852 718.665 Q54.181 718.665 52.7921 720.436 Q51.4032 722.172 50.1185 728.11 L49.5977 730.332 Q48.3477 736.27 45.7783 738.908 Q43.1741 741.547 38.6603 741.547 Q33.1742 741.547 30.1881 737.658 Q27.202 733.77 27.202 726.617 Q27.202 723.075 27.7228 719.95 Q28.2436 716.825 29.2853 714.186 Z" fill="#000000" fill-rule="evenodd" fill-opacity="1" /><path clip-path="url(#clip520)" d="M28.1395 701.929 L28.1395 695.541 L67.0282 695.541 L67.0282 701.929 L28.1395 701.929 M13.0007 701.929 L13.0007 695.541 L21.0909 695.541 L21.0909 701.929 L13.0007 701.929 Z" fill="#000000" fill-rule="evenodd" fill-opacity="1" /><path clip-path="url(#clip520)" d="M17.0979 675.853 L28.1395 675.853 L28.1395 662.694 L33.1047 662.694 L33.1047 675.853 L54.2157 675.853 Q58.9726 675.853 60.3268 674.568 Q61.681 673.249 61.681 669.256 L61.681 662.694 L67.0282 662.694 L67.0282 669.256 Q67.0282 676.652 64.2851 679.464 Q61.5074 682.277 54.2157 682.277 L33.1047 682.277 L33.1047 686.964 L28.1395 686.964 L28.1395 682.277 L17.0979 682.277 L17.0979 675.853 Z" fill="#000000" fill-rule="evenodd" fill-opacity="1" /><path clip-path="url(#clip520)" d="M28.1395 654.291 L28.1395 647.902 L67.0282 647.902 L67.0282 654.291 L28.1395 654.291 M13.0007 654.291 L13.0007 647.902 L21.0909 647.902 L21.0909 654.291 L13.0007 654.291 Z" fill="#000000" fill-rule="evenodd" fill-opacity="1" /><path clip-path="url(#clip520)" d="M32.6186 619.465 Q32.6186 624.603 36.6464 627.59 Q40.6394 630.576 47.6185 630.576 Q54.5977 630.576 58.6254 627.624 Q62.6185 624.638 62.6185 619.465 Q62.6185 614.36 58.5907 611.374 Q54.5629 608.388 47.6185 608.388 Q40.7089 608.388 36.6811 611.374 Q32.6186 614.36 32.6186 619.465 M27.202 619.465 Q27.202 611.131 32.6186 606.374 Q38.0353 601.617 47.6185 601.617 Q57.1671 601.617 62.6185 606.374 Q68.0351 611.131 68.0351 619.465 Q68.0351 627.833 62.6185 632.59 Q57.1671 637.312 47.6185 637.312 Q38.0353 637.312 32.6186 632.59 Q27.202 627.833 27.202 619.465 Z" fill="#000000" fill-rule="evenodd" fill-opacity="1" /><path clip-path="url(#clip520)" d="M43.5561 558.701 L67.0282 558.701 L67.0282 565.09 L43.7644 565.09 Q38.2436 565.09 35.5005 567.243 Q32.7575 569.395 32.7575 573.701 Q32.7575 578.875 36.0561 581.861 Q39.3547 584.847 45.0491 584.847 L67.0282 584.847 L67.0282 591.27 L28.1395 591.27 L28.1395 584.847 L34.1811 584.847 Q30.6742 582.555 28.9381 579.465 Q27.202 576.34 27.202 572.277 Q27.202 565.576 31.3686 562.139 Q35.5005 558.701 43.5561 558.701 Z" fill="#000000" fill-rule="evenodd" fill-opacity="1" /><path clip-path="url(#clip520)" d="M13.0007 523.944 L13.0007 509.222 L17.9659 509.222 L17.9659 517.555 L71.4379 517.555 L71.4379 509.222 L76.4031 509.222 L76.4031 523.944 L13.0007 523.944 Z" fill="#000000" fill-rule="evenodd" fill-opacity="1" /><path clip-path="url(#clip520)" d="M35.6047 465.333 Q31.2992 462.938 29.2506 459.604 Q27.202 456.271 27.202 451.757 Q27.202 445.681 31.4728 442.382 Q35.7089 439.084 43.5561 439.084 L67.0282 439.084 L67.0282 445.507 L43.7644 445.507 Q38.1741 445.507 35.4658 447.486 Q32.7575 449.466 32.7575 453.528 Q32.7575 458.493 36.0561 461.375 Q39.3547 464.257 45.0491 464.257 L67.0282 464.257 L67.0282 470.681 L43.7644 470.681 Q38.1394 470.681 35.4658 472.66 Q32.7575 474.639 32.7575 478.771 Q32.7575 483.667 36.0908 486.549 Q39.3894 489.431 45.0491 489.431 L67.0282 489.431 L67.0282 495.854 L28.1395 495.854 L28.1395 489.431 L34.1811 489.431 Q30.6047 487.243 28.9034 484.188 Q27.202 481.132 27.202 476.931 Q27.202 472.695 29.3547 469.743 Q31.5075 466.757 35.6047 465.333 Z" fill="#000000" fill-rule="evenodd" fill-opacity="1" /><path clip-path="url(#clip520)" d="M13.0007 411.41 L76.4031 411.41 L76.4031 426.132 L71.4379 426.132 L71.4379 417.834 L17.9659 417.834 L17.9659 426.132 L13.0007 426.132 L13.0007 411.41 Z" fill="#000000" fill-rule="evenodd" fill-opacity="1" /><polyline clip-path="url(#clip522)" style="stroke:#009af9; stroke-linecap:butt; stroke-linejoin:round; stroke-width:8; stroke-opacity:1; fill:none" points="
  361.501,1363.25 365.367,1362.93 369.234,1361.97 373.1,1360.38 376.967,1358.14 380.833,1355.28 384.7,1351.79 388.566,1347.66 392.433,1342.92 396.299,1337.56 
  400.166,1331.58 404.032,1325 407.899,1317.81 411.765,1310.04 415.632,1301.68 419.498,1292.74 423.365,1283.23 427.231,1273.17 431.098,1262.55 434.964,1251.4 
  438.831,1239.73 442.698,1227.53 446.564,1214.83 450.431,1201.64 454.297,1187.98 458.164,1173.85 462.03,1159.26 465.897,1144.25 469.763,1128.81 473.63,1112.97 
  477.496,1096.74 481.363,1080.14 485.229,1063.18 489.096,1045.88 492.962,1028.26 496.829,1010.34 500.695,992.133 504.562,973.658 508.428,954.933 512.295,935.977 
  516.161,916.811 520.028,897.452 523.894,877.919 527.761,858.233 531.627,838.414 535.494,818.481 539.36,798.453 543.227,778.351 547.093,758.195 550.96,738.006 
  554.826,717.803 558.693,697.606 562.559,677.437 566.426,657.315 570.293,637.259 574.159,617.29 578.026,597.429 581.892,577.695 585.759,558.107 589.625,538.686 
  593.492,519.451 597.358,500.42 601.225,481.613 605.091,463.05 608.958,444.747 612.824,426.725 616.691,409 620.557,391.59 624.424,374.514 628.29,357.787 
  632.157,341.426 636.023,325.449 639.89,309.871 643.756,294.708 647.623,279.973 651.489,265.684 655.356,251.853 659.222,238.495 663.089,225.623 666.955,213.249 
  670.822,201.387 674.688,190.048 678.555,179.243 682.421,168.983 686.288,159.279 690.154,150.14 694.021,141.575 697.887,133.593 701.754,126.203 705.621,119.41 
  709.487,113.222 713.354,107.645 717.22,102.685 721.087,98.3472 724.953,94.6352 728.82,91.553 732.686,89.1038 736.553,87.2898 740.419,86.1129 744.286,85.5744 
  748.152,85.6748 752.019,86.4139 755.885,87.791 759.752,89.8048 763.618,92.4532 767.485,95.7336 771.351,99.6427 775.218,104.177 779.084,109.331 782.951,115.1 
  786.817,121.479 790.684,128.46 794.55,136.038 798.417,144.204 802.283,152.951 806.15,162.269 810.016,172.15 813.883,182.583 817.749,193.558 821.616,205.063 
  825.482,217.088 829.349,229.621 833.216,242.648 837.082,256.156 840.949,270.133 844.815,284.564 848.682,299.435 852.548,314.73 856.415,330.436 860.281,346.535 
  864.148,363.012 868.014,379.85 871.881,397.033 875.747,414.543 879.614,432.363 883.48,450.475 887.347,468.861 891.213,487.503 895.08,506.381 898.946,525.478 
  902.813,544.774 906.679,564.249 910.546,583.884 914.412,603.66 918.279,623.557 922.145,643.556 926.012,663.635 929.878,683.775 933.745,703.955 937.611,724.156 
  941.478,744.357 945.344,764.539 949.211,784.682 953.077,804.764 956.944,824.765 960.811,844.666 964.677,864.447 968.544,884.086 972.41,903.567 976.277,922.869 
  980.143,941.973 984.01,960.859 987.876,979.508 991.743,997.901 995.609,1016.02 999.476,1033.85 1003.34,1051.37 1007.21,1068.56 1011.08,1085.4 1014.94,1101.89 
  1018.81,1118 1022.67,1133.71 1026.54,1149.02 1030.41,1163.9 1034.27,1178.34 1038.14,1192.32 1042.01,1205.84 1045.87,1218.87 1049.74,1231.41 1053.61,1243.45 
  1057.47,1254.96 1061.34,1265.95 1065.21,1276.39 1069.07,1286.28 1072.94,1295.61 1076.81,1304.37 1080.67,1312.54 1084.54,1320.13 1088.41,1327.13 1092.27,1333.52 
  1096.14,1339.3 1100.01,1344.47 1103.87,1349.01 1107.74,1352.93 1111.6,1356.23 1115.47,1358.89 1119.34,1360.92 1123.2,1362.31 1127.07,1363.06 1130.94,1363.17 
  1134.8,1362.65 1138.67,1361.49 1142.54,1359.69 1146.4,1357.25 1150.27,1354.19 1154.14,1350.49 1158,1346.16 1161.87,1341.22 1165.74,1335.65 1169.6,1329.48 
  1173.47,1322.7 1177.34,1315.33 1181.2,1307.36 1185.07,1298.81 1188.93,1289.68 1192.8,1279.99 1196.67,1269.74 1200.53,1258.95 1204.4,1247.63 1208.27,1235.78 
  1212.13,1223.42 1216,1210.56 1219.87,1197.21 1223.73,1183.39 1227.6,1169.12 1231.47,1154.39 1235.33,1139.24 1239.2,1123.68 1243.07,1107.71 1246.93,1091.37 
  1250.8,1074.65 1254.67,1057.58 1258.53,1040.19 1262.4,1022.47 1266.27,1004.46 1270.13,986.17 1274,967.617 1277.86,948.82 1281.73,929.799 1285.6,910.573 
  1289.46,891.161 1293.33,871.583 1297.2,851.859 1301.06,832.006 1304.93,812.045 1308.8,791.997 1312.66,771.882 1316.53,751.719 1320.4,731.53 1324.26,711.334 
  1328.13,691.152 1332,671.002 1335.86,650.905 1339.73,630.882 1343.6,610.954 1347.46,591.138 1351.33,571.457 1355.2,551.928 1359.06,532.573 1362.93,513.409 
  1366.79,494.456 1370.66,475.733 1374.53,457.26 1378.39,439.053 1382.26,421.132 1386.13,403.515 1389.99,386.219 1393.86,369.261 1397.73,352.658 1401.59,336.428 
  1405.46,320.585 1409.33,305.147 1413.19,290.127 1417.06,275.542 1420.93,261.407 1424.79,247.734 1428.66,234.539 1432.53,221.834 1436.39,209.631 1440.26,197.943 
  1444.12,186.78 1447.99,176.156 1451.86,166.081 1455.72,156.565 1459.59,147.617 1463.46,139.245 1467.32,131.459 1471.19,124.264 1475.06,117.67 1478.92,111.683 
  1482.79,106.31 1486.66,101.555 1490.52,97.4234 1494.39,93.9183 1498.26,91.0433 1502.12,88.8011 1505.99,87.1936 1509.86,86.2257 1513.72,85.8961 1517.59,86.2052 
  1521.46,87.1523 1525.32,88.7365 1529.19,90.9559 1533.05,93.8078 1536.92,97.2902 1540.79,101.402 1544.65,106.136 1548.52,111.489 1552.39,117.455 1556.25,124.027 
  1560.12,131.199 1563.99,138.963 1567.85,147.314 1571.72,156.243 1575.59,165.74 1579.45,175.796 1583.32,186.4 1587.19,197.541 1591.05,209.209 1594.92,221.391 
  1598.79,234.077 1602.65,247.255 1606.52,260.91 1610.39,275.027 1614.25,289.595 1618.12,304.596 1621.98,320.016 1625.85,335.84 1629.72,352.054 1633.58,368.641 
  1637.45,385.584 1641.32,402.865 1645.18,420.467 1649.05,438.373 1652.92,456.563 1656.78,475.022 1660.65,493.732 1664.52,512.672 1668.38,531.823 1672.25,551.167 
  1676.12,570.684 1679.98,590.354 1683.85,610.157 1687.72,630.075 1691.58,650.088 1695.45,670.175 1699.31,690.316 1703.18,710.491 1707.05,730.679 1710.91,750.861 
  1714.78,771.016 1718.65,791.125 1722.51,811.167 1726.38,831.122 1730.25,850.971 1734.11,870.692 1737.98,890.267 1741.85,909.676 1745.71,928.899 1749.58,947.918 
  1753.45,966.714 1757.31,985.267 1761.18,1003.56 1765.05,1021.57 1768.91,1039.29 1772.78,1056.69 1776.65,1073.76 1780.51,1090.47 1784.38,1106.83 1788.24,1122.8 
  1792.11,1138.37 1795.98,1153.52 1799.84,1168.25 1803.71,1182.54 1807.58,1196.36 1811.44,1209.71 1815.31,1222.58 1819.18,1234.95 1823.04,1246.81 1826.91,1258.15 
  1830.78,1268.95 1834.64,1279.21 1838.51,1288.91 1842.38,1298.05 1846.24,1306.62 1850.11,1314.6 1853.98,1321.99 1857.84,1328.79 1861.71,1334.98 1865.58,1340.56 
  1869.44,1345.52 1873.31,1349.86 1877.17,1353.58 1881.04,1356.67 1884.91,1359.12 1888.77,1360.94 1892.64,1362.13 1896.51,1362.68 1900.37,1362.59 1904.24,1361.86 
  1908.11,1360.49 1911.97,1358.49 1915.84,1355.85 1919.71,1352.59 1923.57,1348.69 1927.44,1344.17 1931.31,1339.04 1935.17,1333.28 1939.04,1326.92 1942.91,1319.96 
  1946.77,1312.4 1950.64,1304.25 1954.5,1295.52 1958.37,1286.22 1962.24,1276.36 1966.1,1265.95 1969.97,1255 1973.84,1243.51 1977.7,1231.51 1981.57,1219 
  1985.44,1205.99 1989.3,1192.5 1993.17,1178.55 1997.04,1164.14 2000.9,1149.29 2004.77,1134.02 2008.64,1118.34 2012.5,1102.26 2016.37,1085.8 2020.24,1068.99 
  2024.1,1051.83 2027.97,1034.34 2031.84,1016.54 2035.7,998.455 2039.57,980.091 2043.43,961.472 2047.3,942.617 2051.17,923.543 2055.03,904.269 2058.9,884.816 
  2062.77,865.203 2066.63,845.449 2070.5,825.574 2074.37,805.598 2078.23,785.54 2082.1,765.422 2085.97,745.263 2089.83,725.083 2093.7,704.902 2097.57,684.741 
  2101.43,664.619 2105.3,644.557 2109.17,624.576 2113.03,604.694 2116.9,584.932 2120.77,565.309 2124.63,545.846 2128.5,526.561 2132.36,507.474 2136.23,488.604 
  2140.1,469.97 2143.96,451.591 2147.83,433.484 2151.7,415.668 2155.56,398.161 2159.43,380.981 2163.3,364.143 2167.16,347.667 2171.03,331.566 2174.9,315.859 
  2178.76,300.56 2182.63,285.685 2186.5,271.249 2190.36,257.266 2194.23,243.751 2198.1,230.716 2201.96,218.174 2205.83,206.139 2209.69,194.622 2213.56,183.635 
  2217.43,173.189 2221.29,163.294 2225.16,153.959 2229.03,145.196 2232.89,137.012 2236.76,129.415 2240.63,122.413 2244.49,116.013 2248.36,110.222 2252.23,105.044 
  2256.09,100.487 2259.96,96.5526 2263.83,93.2463 2267.69,90.5709 2271.56,88.5297 2275.43,87.1245 2279.29,86.3566 2283.16,86.2266 2287.03,86.7345 2290.89,87.8799 
  2294.76,89.6624 
  "/>
<polyline clip-path="url(#clip522)" style="stroke:#e26f46; stroke-linecap:butt; stroke-linejoin:round; stroke-width:8; stroke-opacity:1; fill:none" points="
  361.501,1363.25 365.367,1363.02 369.234,1362.34 373.1,1361.19 376.967,1359.59 380.833,1357.52 384.7,1354.99 388.566,1351.99 392.433,1348.54 396.299,1344.61 
  400.166,1340.23 404.032,1335.39 407.899,1330.1 411.765,1324.35 415.632,1318.16 419.498,1311.53 423.365,1304.46 427.231,1296.96 431.098,1289.04 434.964,1280.7 
  438.831,1271.96 442.698,1262.81 446.564,1253.28 450.431,1243.36 454.297,1233.07 458.164,1222.41 462.03,1211.4 465.897,1200.05 469.763,1188.37 473.63,1176.37 
  477.496,1164.06 481.363,1151.46 485.229,1138.57 489.096,1125.41 492.962,1111.99 496.829,1098.33 500.695,1084.44 504.562,1070.33 508.428,1056.02 512.295,1041.52 
  516.161,1026.85 520.028,1012.01 523.894,997.032 527.761,981.924 531.627,966.704 535.494,951.387 539.36,935.992 543.227,920.525 547.093,905.007 550.96,889.453 
  554.826,873.88 558.693,858.302 562.559,842.733 566.426,827.191 570.293,811.689 574.159,796.245 578.026,780.872 581.892,765.586 585.759,750.403 589.625,735.337 
  593.492,720.405 597.358,705.62 601.225,690.997 605.091,676.552 608.958,662.298 612.824,648.251 616.691,634.423 620.557,620.829 624.424,607.483 628.29,594.398 
  632.157,581.588 636.023,569.064 639.89,556.84 643.756,544.929 647.623,533.343 651.489,522.093 655.356,511.19 659.222,500.646 663.089,490.472 666.955,480.679 
  670.822,471.275 674.688,462.272 678.555,453.68 682.421,445.506 686.288,437.761 690.154,430.452 694.021,423.588 697.887,417.177 701.754,411.226 705.621,405.742 
  709.487,400.734 713.354,396.206 717.22,392.165 721.087,388.618 724.953,385.571 728.82,383.028 732.686,380.995 736.553,379.479 740.419,378.483 744.286,378.012 
  748.152,378.044 752.019,378.463 755.885,379.259 759.752,380.434 763.618,381.992 767.485,383.932 771.351,386.255 775.218,388.962 779.084,392.051 782.951,395.522 
  786.817,399.373 790.684,403.601 794.55,408.205 798.417,413.179 802.283,418.522 806.15,424.23 810.016,430.296 813.883,436.718 817.749,443.488 821.616,450.601 
  825.482,458.051 829.349,465.83 833.216,473.933 837.082,482.35 840.949,491.074 844.815,500.097 848.682,509.409 852.548,519.001 856.415,528.865 860.281,538.994 
  864.148,549.375 868.014,559.999 871.881,570.855 875.747,581.933 879.614,593.222 883.48,604.71 887.347,616.386 891.213,628.238 895.08,640.254 898.946,652.423 
  902.813,664.732 906.679,677.169 910.546,689.722 914.412,702.378 918.279,715.125 922.145,727.949 926.012,740.839 929.878,753.782 933.745,766.764 937.611,779.772 
  941.478,792.794 945.344,805.817 949.211,818.828 953.077,831.813 956.944,844.759 960.811,857.653 964.677,870.483 968.544,883.237 972.41,895.9 976.277,908.46 
  980.143,920.903 984.01,933.22 987.876,945.396 991.743,957.42 995.609,969.278 999.476,980.959 1003.34,992.452 1007.21,1003.75 1011.08,1014.83 1014.94,1025.69 
  1018.81,1036.31 1022.67,1046.69 1026.54,1056.81 1030.41,1066.67 1034.27,1076.25 1038.14,1085.55 1042.01,1094.55 1045.87,1103.25 1049.74,1111.63 1053.61,1119.69 
  1057.47,1127.42 1061.34,1134.8 1065.21,1141.84 1069.07,1148.53 1072.94,1154.85 1076.81,1160.8 1080.67,1166.37 1084.54,1171.56 1088.41,1176.36 1092.27,1180.76 
  1096.14,1184.75 1100.01,1188.34 1103.87,1191.52 1107.74,1194.27 1111.6,1196.6 1115.47,1198.5 1119.34,1199.97 1123.2,1201 1127.07,1201.59 1130.94,1201.73 
  1134.8,1201.53 1138.67,1201.03 1142.54,1200.24 1146.4,1199.15 1150.27,1197.76 1154.14,1196.08 1158,1194.09 1161.87,1191.81 1165.74,1189.22 1169.6,1186.34 
  1173.47,1183.16 1177.34,1179.68 1181.2,1175.91 1185.07,1171.85 1188.93,1167.5 1192.8,1162.87 1196.67,1157.96 1200.53,1152.77 1204.4,1147.31 1208.27,1141.58 
  1212.13,1135.59 1216,1129.33 1219.87,1122.83 1223.73,1116.07 1227.6,1109.08 1231.47,1101.85 1235.33,1094.39 1239.2,1086.71 1243.07,1078.82 1246.93,1070.73 
  1250.8,1062.43 1254.67,1053.95 1258.53,1045.28 1262.4,1036.45 1266.27,1027.44 1270.13,1018.29 1274,1008.98 1277.86,999.537 1281.73,989.966 1285.6,980.275 
  1289.46,970.476 1293.33,960.576 1297.2,950.585 1301.06,940.513 1304.93,930.37 1308.8,920.168 1312.66,909.917 1316.53,899.628 1320.4,889.308 1324.26,878.966 
  1328.13,868.616 1332,858.269 1335.86,847.933 1339.73,837.622 1343.6,827.344 1347.46,817.109 1351.33,806.926 1355.2,796.807 1359.06,786.763 1362.93,776.803 
  1366.79,766.938 1370.66,757.178 1374.53,747.531 1378.39,738.008 1382.26,728.619 1386.13,719.373 1389.99,710.28 1393.86,701.347 1397.73,692.586 1401.59,684.005 
  1405.46,675.613 1409.33,667.418 1413.19,659.429 1417.06,651.653 1420.93,644.1 1424.79,636.777 1428.66,629.692 1432.53,622.854 1436.39,616.268 1440.26,609.942 
  1444.12,603.884 1447.99,598.099 1451.86,592.595 1455.72,587.379 1459.59,582.455 1463.46,577.831 1467.32,573.512 1471.19,569.503 1475.06,565.81 1478.92,562.438 
  1482.79,559.392 1486.66,556.677 1490.52,554.298 1494.39,552.257 1498.26,550.561 1502.12,549.211 1505.99,548.213 1509.86,547.57 1513.72,547.286 1517.59,547.327 
  1521.46,547.577 1525.32,548.033 1529.19,548.697 1533.05,549.57 1536.92,550.653 1540.79,551.946 1544.65,553.449 1548.52,555.163 1552.39,557.087 1556.25,559.221 
  1560.12,561.563 1563.99,564.114 1567.85,566.87 1571.72,569.831 1575.59,572.995 1579.45,576.359 1583.32,579.922 1587.19,583.681 1591.05,587.632 1594.92,591.773 
  1598.79,596.101 1602.65,600.61 1606.52,605.297 1610.39,610.159 1614.25,615.193 1618.12,620.395 1621.98,625.758 1625.85,631.277 1629.72,636.95 1633.58,642.769 
  1637.45,648.729 1641.32,654.825 1645.18,661.051 1649.05,667.401 1652.92,673.868 1656.78,680.447 1660.65,687.131 1664.52,693.913 1668.38,700.788 1672.25,707.748 
  1676.12,714.787 1679.98,721.898 1683.85,729.074 1687.72,736.308 1691.58,743.592 1695.45,750.92 1699.31,758.284 1703.18,765.678 1707.05,773.094 1710.91,780.524 
  1714.78,787.96 1718.65,795.396 1722.51,802.824 1726.38,810.237 1730.25,817.627 1734.11,824.986 1737.98,832.307 1741.85,839.583 1745.71,846.806 1749.58,853.97 
  1753.45,861.066 1757.31,868.087 1761.18,875.027 1765.05,881.877 1768.91,888.632 1772.78,895.284 1776.65,901.826 1780.51,908.252 1784.38,914.554 1788.24,920.727 
  1792.11,926.763 1795.98,932.656 1799.84,938.4 1803.71,943.989 1807.58,949.416 1811.44,954.676 1815.31,959.763 1819.18,964.672 1823.04,969.395 1826.91,973.93 
  1830.78,978.269 1834.64,982.408 1838.51,986.342 1842.38,990.066 1846.24,993.576 1850.11,996.866 1853.98,999.933 1857.84,1002.77 1861.71,1005.38 1865.58,1007.75 
  1869.44,1009.88 1873.31,1011.77 1877.17,1013.42 1881.04,1014.81 1884.91,1015.95 1888.77,1016.83 1892.64,1017.45 1896.51,1017.82 1900.37,1017.91 1904.24,1017.84 
  1908.11,1017.66 1911.97,1017.38 1915.84,1016.98 1919.71,1016.48 1923.57,1015.86 1927.44,1015.14 1931.31,1014.3 1935.17,1013.35 1939.04,1012.29 1942.91,1011.12 
  1946.77,1009.83 1950.64,1008.44 1954.5,1006.94 1958.37,1005.33 1962.24,1003.61 1966.1,1001.79 1969.97,999.855 1973.84,997.819 1977.7,995.681 1981.57,993.441 
  1985.44,991.101 1989.3,988.661 1993.17,986.126 1997.04,983.497 2000.9,980.775 2004.77,977.961 2008.64,975.061 2012.5,972.076 2016.37,969.007 2020.24,965.857 
  2024.1,962.63 2027.97,959.329 2031.84,955.955 2035.7,952.513 2039.57,949.005 2043.43,945.435 2047.3,941.805 2051.17,938.12 2055.03,934.383 2058.9,930.597 
  2062.77,926.765 2066.63,922.892 2070.5,918.981 2074.37,915.036 2078.23,911.06 2082.1,907.058 2085.97,903.033 2089.83,898.99 2093.7,894.932 2097.57,890.863 
  2101.43,886.788 2105.3,882.71 2109.17,878.633 2113.03,874.563 2116.9,870.501 2120.77,866.454 2124.63,862.424 2128.5,858.417 2132.36,854.435 2136.23,850.484 
  2140.1,846.567 2143.96,842.689 2147.83,838.853 2151.7,835.063 2155.56,831.325 2159.43,827.64 2163.3,824.014 2167.16,820.451 2171.03,816.954 2174.9,813.527 
  2178.76,810.174 2182.63,806.898 2186.5,803.704 2190.36,800.594 2194.23,797.573 2198.1,794.644 2201.96,791.81 2205.83,789.075 2209.69,786.442 2213.56,783.913 
  2217.43,781.493 2221.29,779.185 2225.16,776.991 2229.03,774.914 2232.89,772.957 2236.76,771.122 2240.63,769.414 2244.49,767.833 2248.36,766.382 2252.23,765.065 
  2256.09,763.882 2259.96,762.837 2263.83,761.932 2267.69,761.168 2271.56,760.547 2275.43,760.071 2279.29,759.743 2283.16,759.564 2287.03,759.528 2290.89,759.528 
  2294.76,759.528 
  "/>
<polyline clip-path="url(#clip522)" style="stroke:#3da44d; stroke-linecap:butt; stroke-linejoin:round; stroke-width:8; stroke-opacity:1; fill:none" points="
  361.501,1363.25 365.367,1357.57 369.234,1351.77 373.1,1345.88 376.967,1339.87 380.833,1333.75 384.7,1327.52 388.566,1321.17 392.433,1314.71 396.299,1308.13 
  400.166,1301.43 404.032,1294.61 407.899,1287.66 411.765,1280.59 415.632,1273.39 419.498,1266.05 423.365,1258.58 427.231,1250.97 431.098,1243.22 434.964,1235.32 
  438.831,1227.27 442.698,1219.07 446.564,1210.71 450.431,1202.18 454.297,1193.49 458.164,1184.62 462.03,1175.57 465.897,1166.33 469.763,1156.89 473.63,1147.25 
  477.496,1137.4 481.363,1127.32 485.229,1117.02 489.096,1106.47 492.962,1095.67 496.829,1084.61 500.695,1073.26 504.562,1061.62 508.428,1049.67 512.295,1037.4 
  516.161,1024.78 520.028,1011.81 523.894,998.463 527.761,984.721 531.627,970.565 535.494,955.976 539.36,940.931 543.227,925.411 547.093,909.391 550.96,892.79 
  554.826,875.6 558.693,857.926 562.559,839.867 566.426,821.523 570.293,802.991 574.159,784.362 578.026,765.727 581.892,747.173 585.759,728.786 589.625,710.647 
  593.492,692.835 597.358,675.427 601.225,658.496 605.091,642.113 608.958,626.346 612.824,611.24 616.691,596.782 620.557,582.968 624.424,569.792 628.29,557.248 
  632.157,545.33 636.023,534.028 639.89,523.331 643.756,513.226 647.623,503.7 651.489,494.737 655.356,486.32 659.222,478.429 663.089,471.044 666.955,464.143 
  670.822,457.704 674.688,451.719 678.555,446.174 682.421,441.058 686.288,436.358 690.154,432.064 694.021,428.162 697.887,424.644 701.754,421.499 705.621,418.717 
  709.487,416.289 713.354,414.206 717.22,412.46 721.087,411.042 724.953,409.946 728.82,409.164 732.686,408.69 736.553,408.518 740.419,408.643 744.286,409.058 
  748.152,409.76 752.019,410.744 755.885,412.007 759.752,413.546 763.618,415.356 767.485,417.434 771.351,419.777 775.218,422.381 779.084,425.245 782.951,428.368 
  786.817,431.747 790.684,435.383 794.55,439.274 798.417,443.423 802.283,447.828 806.15,452.492 810.016,457.416 813.883,462.603 817.749,468.056 821.616,473.777 
  825.482,479.771 829.349,486.041 833.216,492.593 837.082,499.432 840.949,506.563 844.815,513.992 848.682,521.656 852.548,529.558 856.415,537.746 860.281,546.258 
  864.148,555.128 868.014,564.384 871.881,574.049 875.747,584.139 879.614,594.664 883.48,605.629 887.347,617.033 891.213,628.869 895.08,641.122 898.946,653.776 
  902.813,666.804 906.679,680.176 910.546,693.856 914.412,707.801 918.279,721.963 922.145,736.289 926.012,750.717 929.878,765.183 933.745,779.614 937.611,793.932 
  941.478,808.056 945.344,821.894 949.211,835.408 953.077,848.639 956.944,861.579 960.811,874.217 964.677,886.549 968.544,898.566 972.41,910.264 976.277,921.639 
  980.143,932.69 984.01,943.414 987.876,953.812 991.743,963.885 995.609,973.635 999.476,983.067 1003.34,992.185 1007.21,1000.99 1011.08,1009.5 1014.94,1017.72 
  1018.81,1025.66 1022.67,1033.33 1026.54,1040.73 1030.41,1047.87 1034.27,1054.76 1038.14,1061.39 1042.01,1067.77 1045.87,1073.9 1049.74,1079.79 1053.61,1085.43 
  1057.47,1090.84 1061.34,1096.02 1065.21,1100.96 1069.07,1105.68 1072.94,1110.17 1076.81,1114.44 1080.67,1118.5 1084.54,1122.33 1088.41,1125.96 1092.27,1129.37 
  1096.14,1132.58 1100.01,1135.58 1103.87,1138.38 1107.74,1140.98 1111.6,1143.38 1115.47,1145.59 1119.34,1147.6 1123.2,1149.43 1127.07,1151.07 1130.94,1152.52 
  1134.8,1153.79 1138.67,1154.87 1142.54,1155.78 1146.4,1156.51 1150.27,1157.06 1154.14,1157.44 1158,1157.65 1161.87,1157.69 1165.74,1157.56 1169.6,1157.26 
  1173.47,1156.8 1177.34,1156.17 1181.2,1155.39 1185.07,1154.45 1188.93,1153.35 1192.8,1152.09 1196.67,1150.68 1200.53,1149.11 1204.4,1147.4 1208.27,1145.53 
  1212.13,1143.51 1216,1141.35 1219.87,1139.03 1223.73,1136.57 1227.6,1133.96 1231.47,1131.21 1235.33,1128.31 1239.2,1125.27 1243.07,1122.08 1246.93,1118.75 
  1250.8,1115.28 1254.67,1111.66 1258.53,1107.9 1262.4,1103.99 1266.27,1099.95 1270.13,1095.76 1274,1091.43 1277.86,1086.96 1281.73,1082.36 1285.6,1077.61 
  1289.46,1072.71 1293.33,1067.65 1297.2,1062.44 1301.06,1057.07 1304.93,1051.54 1308.8,1045.85 1312.66,1039.99 1316.53,1033.96 1320.4,1027.76 1324.26,1021.39 
  1328.13,1014.84 1332,1008.12 1335.86,1001.22 1339.73,994.151 1343.6,986.901 1347.46,979.475 1351.33,971.871 1355.2,964.091 1359.06,956.134 1362.93,948.002 
  1366.79,939.696 1370.66,931.216 1374.53,922.564 1378.39,913.742 1382.26,904.751 1386.13,895.594 1389.99,886.274 1393.86,876.792 1397.73,867.152 1401.59,857.356 
  1405.46,847.409 1409.33,837.313 1413.19,827.072 1417.06,816.691 1420.93,806.173 1424.79,795.523 1428.66,784.746 1432.53,773.856 1436.39,762.965 1440.26,752.157 
  1444.12,741.497 1447.99,731.041 1451.86,720.84 1455.72,710.943 1459.59,701.389 1463.46,692.214 1467.32,683.448 1471.19,675.115 1475.06,667.235 1478.92,659.822 
  1482.79,652.883 1486.66,646.42 1490.52,640.432 1494.39,634.91 1498.26,629.84 1502.12,625.203 1505.99,620.991 1509.86,617.221 1513.72,613.885 1517.59,610.973 
  1521.46,608.475 1525.32,606.384 1529.19,604.691 1533.05,603.388 1536.92,602.468 1540.79,601.924 1544.65,601.749 1548.52,601.938 1552.39,602.485 1556.25,603.386 
  1560.12,604.635 1563.99,606.228 1567.85,608.162 1571.72,610.433 1575.59,613.039 1579.45,615.974 1583.32,619.216 1587.19,622.769 1591.05,626.643 1594.92,630.848 
  1598.79,635.389 1602.65,640.271 1606.52,645.498 1610.39,651.068 1614.25,656.98 1618.12,663.23 1621.98,669.811 1625.85,676.717 1629.72,683.936 1633.58,691.455 
  1637.45,699.261 1641.32,707.335 1645.18,715.661 1649.05,724.216 1652.92,732.977 1656.78,741.92 1660.65,751.017 1664.52,760.238 1668.38,769.552 1672.25,778.925 
  1676.12,788.318 1679.98,797.7 1683.85,807.041 1687.72,816.313 1691.58,825.491 1695.45,834.552 1699.31,843.475 1703.18,852.242 1707.05,860.836 1710.91,869.242 
  1714.78,877.449 1718.65,885.446 1722.51,893.226 1726.38,900.783 1730.25,908.114 1734.11,915.217 1737.98,922.094 1741.85,928.747 1745.71,935.181 1749.58,941.395 
  1753.45,947.383 1757.31,953.147 1761.18,958.688 1765.05,964.009 1768.91,969.112 1772.78,973.999 1776.65,978.672 1780.51,983.133 1784.38,987.384 1788.24,991.428 
  1792.11,995.266 1795.98,998.901 1799.84,1002.33 1803.71,1005.57 1807.58,1008.61 1811.44,1011.45 1815.31,1014.1 1819.18,1016.56 1823.04,1018.83 1826.91,1020.92 
  1830.78,1022.83 1834.64,1024.55 1838.51,1026.09 1842.38,1027.46 1846.24,1028.65 1850.11,1029.67 1853.98,1030.52 1857.84,1031.2 1861.71,1031.72 1865.58,1032.06 
  1869.44,1032.25 1873.31,1032.27 1877.17,1032.13 1881.04,1031.84 1884.91,1031.38 1888.77,1030.77 1892.64,1030.01 1896.51,1029.09 1900.37,1028.03 1904.24,1026.81 
  1908.11,1025.44 1911.97,1023.93 1915.84,1022.27 1919.71,1020.47 1923.57,1018.52 1927.44,1016.43 1931.31,1014.19 1935.17,1011.82 1939.04,1009.31 1942.91,1006.65 
  1946.77,1003.86 1950.64,1000.93 1954.5,997.859 1958.37,994.66 1962.24,991.329 1966.1,987.865 1969.97,984.268 1973.84,980.536 1977.7,976.67 1981.57,972.668 
  1985.44,968.53 1989.3,964.256 1993.17,959.847 1997.04,955.302 2000.9,950.623 2004.77,945.811 2008.64,940.866 2012.5,935.789 2016.37,930.583 2020.24,925.248 
  2024.1,919.787 2027.97,914.201 2031.84,908.493 2035.7,902.666 2039.57,896.722 2043.43,890.663 2047.3,884.494 2051.17,878.217 2055.03,871.836 2058.9,865.355 
  2062.77,858.777 2066.63,852.107 2070.5,845.349 2074.37,838.506 2078.23,831.58 2082.1,824.59 2085.97,817.556 2089.83,810.502 2093.7,803.449 2097.57,796.418 
  2101.43,789.43 2105.3,782.505 2109.17,775.664 2113.03,768.926 2116.9,762.312 2120.77,755.841 2124.63,749.532 2128.5,743.404 2132.36,737.475 2136.23,731.763 
  2140.1,726.287 2143.96,721.063 2147.83,716.11 2151.7,711.444 2155.56,707.082 2159.43,703.04 2163.3,699.335 2167.16,695.981 2171.03,692.981 2174.9,690.314 
  2178.76,687.981 2182.63,685.982 2186.5,684.319 2190.36,682.99 2194.23,681.995 2198.1,681.334 2201.96,681.005 2205.83,681.006 2209.69,681.336 2213.56,681.991 
  2217.43,682.97 2221.29,684.268 2225.16,685.883 2229.03,687.809 2232.89,690.044 2236.76,692.582 2240.63,695.418 2244.49,698.546 2248.36,701.961 2252.23,705.658 
  2256.09,709.633 2259.96,713.88 2263.83,718.391 2267.69,723.157 2271.56,728.167 2275.43,733.409 2279.29,738.87 2283.16,744.534 2287.03,750.386 2290.89,756.408 
  2294.76,762.581 
  "/>
<path clip-path="url(#clip520)" d="
M1479.53 334.309 L2284.45 334.309 L2284.45 92.3886 L1479.53 92.3886  Z
  " fill="#ffffff" fill-rule="evenodd" fill-opacity="1"/>
<polyline clip-path="url(#clip520)" style="stroke:#000000; stroke-linecap:butt; stroke-linejoin:round; stroke-width:4; stroke-opacity:1; fill:none" points="
  1479.53,334.309 2284.45,334.309 2284.45,92.3886 1479.53,92.3886 1479.53,334.309 
  "/>
<polyline clip-path="url(#clip520)" style="stroke:#009af9; stroke-linecap:butt; stroke-linejoin:round; stroke-width:4; stroke-opacity:1; fill:none" points="
  1502.3,152.869 1638.92,152.869 
  "/>
<path clip-path="url(#clip520)" d="M1683.93 136.723 L1683.93 141.283 Q1681.27 140.01 1678.91 139.385 Q1676.55 138.76 1674.35 138.76 Q1670.53 138.76 1668.45 140.241 Q1666.39 141.723 1666.39 144.454 Q1666.39 146.746 1667.75 147.927 Q1669.14 149.084 1672.99 149.802 L1675.81 150.38 Q1681.04 151.376 1683.52 153.899 Q1686.02 156.399 1686.02 160.612 Q1686.02 165.635 1682.64 168.227 Q1679.28 170.82 1672.78 170.82 Q1670.32 170.82 1667.55 170.264 Q1664.79 169.709 1661.83 168.621 L1661.83 163.806 Q1664.68 165.403 1667.41 166.213 Q1670.14 167.024 1672.78 167.024 Q1676.78 167.024 1678.96 165.45 Q1681.13 163.876 1681.13 160.959 Q1681.13 158.413 1679.56 156.977 Q1678.01 155.542 1674.44 154.825 L1671.6 154.269 Q1666.37 153.227 1664.03 151.005 Q1661.69 148.783 1661.69 144.825 Q1661.69 140.241 1664.91 137.602 Q1668.15 134.964 1673.82 134.964 Q1676.25 134.964 1678.77 135.403 Q1681.3 135.843 1683.93 136.723 Z" fill="#000000" fill-rule="evenodd" fill-opacity="1" /><path clip-path="url(#clip520)" d="M1693.12 144.223 L1697.38 144.223 L1697.38 170.149 L1693.12 170.149 L1693.12 144.223 M1693.12 134.13 L1697.38 134.13 L1697.38 139.524 L1693.12 139.524 L1693.12 134.13 Z" fill="#000000" fill-rule="evenodd" fill-opacity="1" /><path clip-path="url(#clip520)" d="M1726.48 149.2 Q1728.08 146.329 1730.3 144.964 Q1732.52 143.598 1735.53 143.598 Q1739.58 143.598 1741.78 146.445 Q1743.98 149.269 1743.98 154.501 L1743.98 170.149 L1739.7 170.149 L1739.7 154.639 Q1739.7 150.913 1738.38 149.107 Q1737.06 147.302 1734.35 147.302 Q1731.04 147.302 1729.12 149.501 Q1727.2 151.7 1727.2 155.496 L1727.2 170.149 L1722.92 170.149 L1722.92 154.639 Q1722.92 150.889 1721.6 149.107 Q1720.28 147.302 1717.52 147.302 Q1714.26 147.302 1712.34 149.524 Q1710.42 151.723 1710.42 155.496 L1710.42 170.149 L1706.13 170.149 L1706.13 144.223 L1710.42 144.223 L1710.42 148.251 Q1711.87 145.866 1713.91 144.732 Q1715.95 143.598 1718.75 143.598 Q1721.57 143.598 1723.54 145.033 Q1725.53 146.468 1726.48 149.2 Z" fill="#000000" fill-rule="evenodd" fill-opacity="1" /><path clip-path="url(#clip520)" d="M1756.6 166.26 L1756.6 180.01 L1752.31 180.01 L1752.31 144.223 L1756.6 144.223 L1756.6 148.158 Q1757.94 145.843 1759.98 144.732 Q1762.04 143.598 1764.88 143.598 Q1769.61 143.598 1772.55 147.348 Q1775.51 151.098 1775.51 157.209 Q1775.51 163.32 1772.55 167.07 Q1769.61 170.82 1764.88 170.82 Q1762.04 170.82 1759.98 169.709 Q1757.94 168.575 1756.6 166.26 M1771.09 157.209 Q1771.09 152.51 1769.14 149.848 Q1767.22 147.163 1763.84 147.163 Q1760.46 147.163 1758.52 149.848 Q1756.6 152.51 1756.6 157.209 Q1756.6 161.908 1758.52 164.593 Q1760.46 167.255 1763.84 167.255 Q1767.22 167.255 1769.14 164.593 Q1771.09 161.908 1771.09 157.209 Z" fill="#000000" fill-rule="evenodd" fill-opacity="1" /><path clip-path="url(#clip520)" d="M1782.57 134.13 L1786.83 134.13 L1786.83 170.149 L1782.57 170.149 L1782.57 134.13 Z" fill="#000000" fill-rule="evenodd" fill-opacity="1" /><path clip-path="url(#clip520)" d="M1817.92 156.121 L1817.92 158.204 L1798.33 158.204 Q1798.61 162.602 1800.97 164.917 Q1803.36 167.209 1807.59 167.209 Q1810.05 167.209 1812.34 166.607 Q1814.65 166.005 1816.92 164.801 L1816.92 168.829 Q1814.63 169.801 1812.22 170.311 Q1809.81 170.82 1807.34 170.82 Q1801.13 170.82 1797.5 167.209 Q1793.89 163.598 1793.89 157.44 Q1793.89 151.075 1797.31 147.348 Q1800.76 143.598 1806.6 143.598 Q1811.83 143.598 1814.86 146.977 Q1817.92 150.334 1817.92 156.121 M1813.66 154.871 Q1813.61 151.376 1811.69 149.292 Q1809.79 147.209 1806.64 147.209 Q1803.08 147.209 1800.92 149.223 Q1798.8 151.237 1798.47 154.894 L1813.66 154.871 Z" fill="#000000" fill-rule="evenodd" fill-opacity="1" /><path clip-path="url(#clip520)" d="M1825.09 135.589 L1844.95 135.589 L1844.95 139.524 L1829.77 139.524 L1829.77 149.709 L1843.47 149.709 L1843.47 153.644 L1829.77 153.644 L1829.77 170.149 L1825.09 170.149 L1825.09 135.589 Z" fill="#000000" fill-rule="evenodd" fill-opacity="1" /><path clip-path="url(#clip520)" d="M1852.36 135.589 L1859.33 135.589 L1868.15 159.107 L1877.01 135.589 L1883.98 135.589 L1883.98 170.149 L1879.42 170.149 L1879.42 139.802 L1870.51 163.505 L1865.81 163.505 L1856.9 139.802 L1856.9 170.149 L1852.36 170.149 L1852.36 135.589 Z" fill="#000000" fill-rule="evenodd" fill-opacity="1" /><path clip-path="url(#clip520)" d="M1892.73 135.589 L1897.43 135.589 L1897.43 156.584 Q1897.43 162.139 1899.44 164.593 Q1901.46 167.024 1905.97 167.024 Q1910.46 167.024 1912.48 164.593 Q1914.49 162.139 1914.49 156.584 L1914.49 135.589 L1919.19 135.589 L1919.19 157.163 Q1919.19 163.922 1915.83 167.371 Q1912.5 170.82 1905.97 170.82 Q1899.42 170.82 1896.06 167.371 Q1892.73 163.922 1892.73 157.163 L1892.73 135.589 Z" fill="#000000" fill-rule="evenodd" fill-opacity="1" /><polyline clip-path="url(#clip520)" style="stroke:#e26f46; stroke-linecap:butt; stroke-linejoin:round; stroke-width:4; stroke-opacity:1; fill:none" points="
  1502.3,213.349 1638.92,213.349 
  "/>
<path clip-path="url(#clip520)" d="M1678.08 214.425 Q1679.58 214.934 1680.99 216.601 Q1682.43 218.268 1683.87 221.184 L1688.61 230.629 L1683.59 230.629 L1679.17 221.763 Q1677.45 218.291 1675.83 217.156 Q1674.24 216.022 1671.46 216.022 L1666.37 216.022 L1666.37 230.629 L1661.69 230.629 L1661.69 196.069 L1672.24 196.069 Q1678.17 196.069 1681.09 198.545 Q1684 201.022 1684 206.022 Q1684 209.286 1682.48 211.439 Q1680.97 213.592 1678.08 214.425 M1666.37 199.911 L1666.37 212.18 L1672.24 212.18 Q1675.62 212.18 1677.34 210.629 Q1679.07 209.055 1679.07 206.022 Q1679.07 202.99 1677.34 201.462 Q1675.62 199.911 1672.24 199.911 L1666.37 199.911 Z" fill="#000000" fill-rule="evenodd" fill-opacity="1" /><path clip-path="url(#clip520)" d="M1714.49 216.601 L1714.49 218.684 L1694.91 218.684 Q1695.18 223.082 1697.55 225.397 Q1699.93 227.689 1704.17 227.689 Q1706.62 227.689 1708.91 227.087 Q1711.23 226.485 1713.49 225.281 L1713.49 229.309 Q1711.2 230.281 1708.8 230.791 Q1706.39 231.3 1703.91 231.3 Q1697.71 231.3 1694.07 227.689 Q1690.46 224.078 1690.46 217.92 Q1690.46 211.555 1693.89 207.828 Q1697.34 204.078 1703.17 204.078 Q1708.4 204.078 1711.43 207.457 Q1714.49 210.814 1714.49 216.601 M1710.23 215.351 Q1710.18 211.856 1708.26 209.772 Q1706.37 207.689 1703.22 207.689 Q1699.65 207.689 1697.5 209.703 Q1695.37 211.717 1695.05 215.374 L1710.23 215.351 Z" fill="#000000" fill-rule="evenodd" fill-opacity="1" /><path clip-path="url(#clip520)" d="M1733.26 217.596 Q1728.1 217.596 1726.11 218.777 Q1724.12 219.957 1724.12 222.805 Q1724.12 225.073 1725.6 226.416 Q1727.11 227.735 1729.68 227.735 Q1733.22 227.735 1735.35 225.235 Q1737.5 222.712 1737.5 218.545 L1737.5 217.596 L1733.26 217.596 M1741.76 215.837 L1741.76 230.629 L1737.5 230.629 L1737.5 226.693 Q1736.04 229.055 1733.86 230.189 Q1731.69 231.3 1728.54 231.3 Q1724.56 231.3 1722.2 229.078 Q1719.86 226.832 1719.86 223.082 Q1719.86 218.707 1722.78 216.485 Q1725.72 214.263 1731.53 214.263 L1737.5 214.263 L1737.5 213.846 Q1737.5 210.907 1735.55 209.309 Q1733.63 207.689 1730.14 207.689 Q1727.92 207.689 1725.81 208.221 Q1723.7 208.754 1721.76 209.819 L1721.76 205.883 Q1724.1 204.981 1726.3 204.541 Q1728.49 204.078 1730.58 204.078 Q1736.2 204.078 1738.98 206.994 Q1741.76 209.911 1741.76 215.837 Z" fill="#000000" fill-rule="evenodd" fill-opacity="1" /><path clip-path="url(#clip520)" d="M1750.53 194.61 L1754.79 194.61 L1754.79 230.629 L1750.53 230.629 L1750.53 194.61 Z" fill="#000000" fill-rule="evenodd" fill-opacity="1" /><path clip-path="url(#clip520)" d="M1763.89 196.069 L1783.75 196.069 L1783.75 200.004 L1768.56 200.004 L1768.56 210.189 L1782.27 210.189 L1782.27 214.124 L1768.56 214.124 L1768.56 230.629 L1763.89 230.629 L1763.89 196.069 Z" fill="#000000" fill-rule="evenodd" fill-opacity="1" /><path clip-path="url(#clip520)" d="M1791.16 196.069 L1798.12 196.069 L1806.94 219.587 L1815.81 196.069 L1822.78 196.069 L1822.78 230.629 L1818.22 230.629 L1818.22 200.282 L1809.3 223.985 L1804.61 223.985 L1795.69 200.282 L1795.69 230.629 L1791.16 230.629 L1791.16 196.069 Z" fill="#000000" fill-rule="evenodd" fill-opacity="1" /><path clip-path="url(#clip520)" d="M1831.53 196.069 L1836.23 196.069 L1836.23 217.064 Q1836.23 222.619 1838.24 225.073 Q1840.25 227.504 1844.77 227.504 Q1849.26 227.504 1851.27 225.073 Q1853.29 222.619 1853.29 217.064 L1853.29 196.069 L1857.98 196.069 L1857.98 217.643 Q1857.98 224.402 1854.63 227.851 Q1851.29 231.3 1844.77 231.3 Q1838.22 231.3 1834.86 227.851 Q1831.53 224.402 1831.53 217.643 L1831.53 196.069 Z" fill="#000000" fill-rule="evenodd" fill-opacity="1" /><polyline clip-path="url(#clip520)" style="stroke:#3da44d; stroke-linecap:butt; stroke-linejoin:round; stroke-width:4; stroke-opacity:1; fill:none" points="
  1502.3,273.829 1638.92,273.829 
  "/>
<path clip-path="url(#clip520)" d="M1661.69 256.549 L1667.99 256.549 L1683.31 285.461 L1683.31 256.549 L1687.85 256.549 L1687.85 291.109 L1681.55 291.109 L1666.23 262.197 L1666.23 291.109 L1661.69 291.109 L1661.69 256.549 Z" fill="#000000" fill-rule="evenodd" fill-opacity="1" /><path clip-path="url(#clip520)" d="M1719.14 277.081 L1719.14 279.164 L1699.56 279.164 Q1699.84 283.562 1702.2 285.877 Q1704.58 288.169 1708.82 288.169 Q1711.27 288.169 1713.56 287.567 Q1715.88 286.965 1718.15 285.761 L1718.15 289.789 Q1715.86 290.761 1713.45 291.271 Q1711.04 291.78 1708.56 291.78 Q1702.36 291.78 1698.73 288.169 Q1695.12 284.558 1695.12 278.4 Q1695.12 272.035 1698.54 268.308 Q1701.99 264.558 1707.82 264.558 Q1713.05 264.558 1716.09 267.937 Q1719.14 271.294 1719.14 277.081 M1714.88 275.831 Q1714.84 272.336 1712.92 270.252 Q1711.02 268.169 1707.87 268.169 Q1704.3 268.169 1702.15 270.183 Q1700.02 272.197 1699.7 275.854 L1714.88 275.831 Z" fill="#000000" fill-rule="evenodd" fill-opacity="1" /><path clip-path="url(#clip520)" d="M1725.69 280.877 L1725.69 265.183 L1729.95 265.183 L1729.95 280.715 Q1729.95 284.396 1731.39 286.248 Q1732.82 288.076 1735.69 288.076 Q1739.14 288.076 1741.13 285.877 Q1743.15 283.678 1743.15 279.882 L1743.15 265.183 L1747.41 265.183 L1747.41 291.109 L1743.15 291.109 L1743.15 287.127 Q1741.6 289.488 1739.54 290.646 Q1737.5 291.78 1734.79 291.78 Q1730.32 291.78 1728.01 289.002 Q1725.69 286.224 1725.69 280.877 M1736.41 264.558 L1736.41 264.558 Z" fill="#000000" fill-rule="evenodd" fill-opacity="1" /><path clip-path="url(#clip520)" d="M1771.2 269.164 Q1770.49 268.748 1769.63 268.562 Q1768.8 268.354 1767.78 268.354 Q1764.17 268.354 1762.22 270.715 Q1760.3 273.053 1760.3 277.451 L1760.3 291.109 L1756.02 291.109 L1756.02 265.183 L1760.3 265.183 L1760.3 269.211 Q1761.64 266.849 1763.8 265.715 Q1765.95 264.558 1769.03 264.558 Q1769.47 264.558 1770 264.627 Q1770.53 264.674 1771.18 264.789 L1771.2 269.164 Z" fill="#000000" fill-rule="evenodd" fill-opacity="1" /><path clip-path="url(#clip520)" d="M1787.45 278.076 Q1782.29 278.076 1780.3 279.257 Q1778.31 280.437 1778.31 283.285 Q1778.31 285.553 1779.79 286.896 Q1781.3 288.215 1783.86 288.215 Q1787.41 288.215 1789.54 285.715 Q1791.69 283.192 1791.69 279.025 L1791.69 278.076 L1787.45 278.076 M1795.95 276.317 L1795.95 291.109 L1791.69 291.109 L1791.69 287.173 Q1790.23 289.535 1788.05 290.669 Q1785.88 291.78 1782.73 291.78 Q1778.75 291.78 1776.39 289.558 Q1774.05 287.312 1774.05 283.562 Q1774.05 279.187 1776.97 276.965 Q1779.91 274.743 1785.72 274.743 L1791.69 274.743 L1791.69 274.326 Q1791.69 271.387 1789.74 269.789 Q1787.82 268.169 1784.33 268.169 Q1782.11 268.169 1780 268.701 Q1777.89 269.234 1775.95 270.299 L1775.95 266.363 Q1778.29 265.461 1780.49 265.021 Q1782.68 264.558 1784.77 264.558 Q1790.39 264.558 1793.17 267.474 Q1795.95 270.391 1795.95 276.317 Z" fill="#000000" fill-rule="evenodd" fill-opacity="1" /><path clip-path="url(#clip520)" d="M1804.72 255.09 L1808.98 255.09 L1808.98 291.109 L1804.72 291.109 L1804.72 255.09 Z" fill="#000000" fill-rule="evenodd" fill-opacity="1" /><path clip-path="url(#clip520)" d="M1818.08 256.549 L1837.94 256.549 L1837.94 260.484 L1822.75 260.484 L1822.75 270.669 L1836.46 270.669 L1836.46 274.604 L1822.75 274.604 L1822.75 291.109 L1818.08 291.109 L1818.08 256.549 Z" fill="#000000" fill-rule="evenodd" fill-opacity="1" /><path clip-path="url(#clip520)" d="M1845.35 256.549 L1852.31 256.549 L1861.13 280.067 L1870 256.549 L1876.97 256.549 L1876.97 291.109 L1872.41 291.109 L1872.41 260.762 L1863.49 284.465 L1858.79 284.465 L1849.88 260.762 L1849.88 291.109 L1845.35 291.109 L1845.35 256.549 Z" fill="#000000" fill-rule="evenodd" fill-opacity="1" /><path clip-path="url(#clip520)" d="M1885.72 256.549 L1890.42 256.549 L1890.42 277.544 Q1890.42 283.099 1892.43 285.553 Q1894.44 287.984 1898.96 287.984 Q1903.45 287.984 1905.46 285.553 Q1907.48 283.099 1907.48 277.544 L1907.48 256.549 L1912.17 256.549 L1912.17 278.123 Q1912.17 284.882 1908.82 288.331 Q1905.48 291.78 1898.96 291.78 Q1892.41 291.78 1889.05 288.331 Q1885.72 284.882 1885.72 278.123 L1885.72 256.549 Z" fill="#000000" fill-rule="evenodd" fill-opacity="1" /><path clip-path="url(#clip520)" d="M1946.06 255.137 Q1942.96 260.461 1941.46 265.669 Q1939.95 270.877 1939.95 276.224 Q1939.95 281.572 1941.46 286.826 Q1942.98 292.058 1946.06 297.359 L1942.36 297.359 Q1938.89 291.919 1937.15 286.664 Q1935.44 281.41 1935.44 276.224 Q1935.44 271.062 1937.15 265.831 Q1938.86 260.6 1942.36 255.137 L1946.06 255.137 Z" fill="#000000" fill-rule="evenodd" fill-opacity="1" /><path clip-path="url(#clip520)" d="M1969.1 272.474 Q1972.45 273.192 1974.33 275.461 Q1976.22 277.729 1976.22 281.062 Q1976.22 286.178 1972.71 288.979 Q1969.19 291.78 1962.71 291.78 Q1960.53 291.78 1958.22 291.34 Q1955.92 290.923 1953.47 290.067 L1953.47 285.553 Q1955.41 286.687 1957.73 287.266 Q1960.04 287.845 1962.57 287.845 Q1966.97 287.845 1969.26 286.109 Q1971.57 284.373 1971.57 281.062 Q1971.57 278.007 1969.42 276.294 Q1967.29 274.558 1963.47 274.558 L1959.44 274.558 L1959.44 270.715 L1963.66 270.715 Q1967.1 270.715 1968.93 269.349 Q1970.76 267.961 1970.76 265.368 Q1970.76 262.706 1968.86 261.294 Q1966.99 259.859 1963.47 259.859 Q1961.55 259.859 1959.35 260.275 Q1957.15 260.692 1954.51 261.572 L1954.51 257.405 Q1957.17 256.664 1959.49 256.294 Q1961.83 255.924 1963.89 255.924 Q1969.21 255.924 1972.31 258.354 Q1975.41 260.762 1975.41 264.882 Q1975.41 267.752 1973.77 269.743 Q1972.13 271.711 1969.1 272.474 Z" fill="#000000" fill-rule="evenodd" fill-opacity="1" /><path clip-path="url(#clip520)" d="M1995.09 259.627 Q1991.48 259.627 1989.65 263.192 Q1987.85 266.734 1987.85 273.863 Q1987.85 280.97 1989.65 284.535 Q1991.48 288.076 1995.09 288.076 Q1998.72 288.076 2000.53 284.535 Q2002.36 280.97 2002.36 273.863 Q2002.36 266.734 2000.53 263.192 Q1998.72 259.627 1995.09 259.627 M1995.09 255.924 Q2000.9 255.924 2003.96 260.53 Q2007.03 265.113 2007.03 273.863 Q2007.03 282.59 2003.96 287.197 Q2000.9 291.78 1995.09 291.78 Q1989.28 291.78 1986.2 287.197 Q1983.15 282.59 1983.15 273.863 Q1983.15 265.113 1986.2 260.53 Q1989.28 255.924 1995.09 255.924 Z" fill="#000000" fill-rule="evenodd" fill-opacity="1" /><path clip-path="url(#clip520)" d="M2025.25 259.627 Q2021.64 259.627 2019.81 263.192 Q2018.01 266.734 2018.01 273.863 Q2018.01 280.97 2019.81 284.535 Q2021.64 288.076 2025.25 288.076 Q2028.89 288.076 2030.69 284.535 Q2032.52 280.97 2032.52 273.863 Q2032.52 266.734 2030.69 263.192 Q2028.89 259.627 2025.25 259.627 M2025.25 255.924 Q2031.06 255.924 2034.12 260.53 Q2037.2 265.113 2037.2 273.863 Q2037.2 282.59 2034.12 287.197 Q2031.06 291.78 2025.25 291.78 Q2019.44 291.78 2016.36 287.197 Q2013.31 282.59 2013.31 273.863 Q2013.31 265.113 2016.36 260.53 Q2019.44 255.924 2025.25 255.924 Z" fill="#000000" fill-rule="evenodd" fill-opacity="1" /><path clip-path="url(#clip520)" d="M2082.06 277.081 L2082.06 279.164 L2062.47 279.164 Q2062.75 283.562 2065.11 285.877 Q2067.5 288.169 2071.73 288.169 Q2074.19 288.169 2076.48 287.567 Q2078.79 286.965 2081.06 285.761 L2081.06 289.789 Q2078.77 290.761 2076.36 291.271 Q2073.96 291.78 2071.48 291.78 Q2065.28 291.78 2061.64 288.169 Q2058.03 284.558 2058.03 278.4 Q2058.03 272.035 2061.46 268.308 Q2064.9 264.558 2070.74 264.558 Q2075.97 264.558 2079 267.937 Q2082.06 271.294 2082.06 277.081 M2077.8 275.831 Q2077.75 272.336 2075.83 270.252 Q2073.93 268.169 2070.78 268.169 Q2067.22 268.169 2065.07 270.183 Q2062.94 272.197 2062.61 275.854 L2077.8 275.831 Z" fill="#000000" fill-rule="evenodd" fill-opacity="1" /><path clip-path="url(#clip520)" d="M2093.17 287.22 L2093.17 300.97 L2088.89 300.97 L2088.89 265.183 L2093.17 265.183 L2093.17 269.118 Q2094.51 266.803 2096.55 265.692 Q2098.61 264.558 2101.46 264.558 Q2106.18 264.558 2109.12 268.308 Q2112.08 272.058 2112.08 278.169 Q2112.08 284.28 2109.12 288.03 Q2106.18 291.78 2101.46 291.78 Q2098.61 291.78 2096.55 290.669 Q2094.51 289.535 2093.17 287.22 M2107.66 278.169 Q2107.66 273.47 2105.71 270.808 Q2103.79 268.123 2100.41 268.123 Q2097.03 268.123 2095.09 270.808 Q2093.17 273.47 2093.17 278.169 Q2093.17 282.868 2095.09 285.553 Q2097.03 288.215 2100.41 288.215 Q2103.79 288.215 2105.71 285.553 Q2107.66 282.868 2107.66 278.169 Z" fill="#000000" fill-rule="evenodd" fill-opacity="1" /><path clip-path="url(#clip520)" d="M2129.19 268.169 Q2125.76 268.169 2123.77 270.854 Q2121.78 273.516 2121.78 278.169 Q2121.78 282.822 2123.75 285.507 Q2125.74 288.169 2129.19 288.169 Q2132.59 288.169 2134.58 285.484 Q2136.57 282.798 2136.57 278.169 Q2136.57 273.562 2134.58 270.877 Q2132.59 268.169 2129.19 268.169 M2129.19 264.558 Q2134.74 264.558 2137.91 268.169 Q2141.08 271.78 2141.08 278.169 Q2141.08 284.535 2137.91 288.169 Q2134.74 291.78 2129.19 291.78 Q2123.61 291.78 2120.44 288.169 Q2117.29 284.535 2117.29 278.169 Q2117.29 271.78 2120.44 268.169 Q2123.61 264.558 2129.19 264.558 Z" fill="#000000" fill-rule="evenodd" fill-opacity="1" /><path clip-path="url(#clip520)" d="M2166.8 266.178 L2166.8 270.16 Q2165 269.164 2163.17 268.678 Q2161.36 268.169 2159.51 268.169 Q2155.37 268.169 2153.08 270.808 Q2150.78 273.424 2150.78 278.169 Q2150.78 282.914 2153.08 285.553 Q2155.37 288.169 2159.51 288.169 Q2161.36 288.169 2163.17 287.683 Q2165 287.173 2166.8 286.178 L2166.8 290.113 Q2165.02 290.947 2163.1 291.363 Q2161.2 291.78 2159.05 291.78 Q2153.19 291.78 2149.74 288.099 Q2146.29 284.419 2146.29 278.169 Q2146.29 271.826 2149.77 268.192 Q2153.26 264.558 2159.33 264.558 Q2161.29 264.558 2163.17 264.975 Q2165.04 265.368 2166.8 266.178 Z" fill="#000000" fill-rule="evenodd" fill-opacity="1" /><path clip-path="url(#clip520)" d="M2195.76 275.461 L2195.76 291.109 L2191.5 291.109 L2191.5 275.599 Q2191.5 271.919 2190.07 270.09 Q2188.63 268.262 2185.76 268.262 Q2182.31 268.262 2180.32 270.461 Q2178.33 272.66 2178.33 276.456 L2178.33 291.109 L2174.05 291.109 L2174.05 255.09 L2178.33 255.09 L2178.33 269.211 Q2179.86 266.873 2181.92 265.715 Q2184 264.558 2186.71 264.558 Q2191.18 264.558 2193.47 267.336 Q2195.76 270.09 2195.76 275.461 Z" fill="#000000" fill-rule="evenodd" fill-opacity="1" /><path clip-path="url(#clip520)" d="M2220.78 265.947 L2220.78 269.974 Q2218.98 269.049 2217.03 268.586 Q2215.09 268.123 2213.01 268.123 Q2209.83 268.123 2208.24 269.095 Q2206.66 270.067 2206.66 272.011 Q2206.66 273.493 2207.8 274.349 Q2208.93 275.183 2212.36 275.947 L2213.82 276.271 Q2218.35 277.243 2220.25 279.025 Q2222.17 280.785 2222.17 283.956 Q2222.17 287.567 2219.3 289.673 Q2216.45 291.78 2211.45 291.78 Q2209.37 291.78 2207.1 291.363 Q2204.86 290.97 2202.36 290.16 L2202.36 285.761 Q2204.72 286.988 2207.01 287.613 Q2209.3 288.215 2211.55 288.215 Q2214.56 288.215 2216.18 287.197 Q2217.8 286.155 2217.8 284.28 Q2217.8 282.544 2216.62 281.618 Q2215.46 280.692 2211.5 279.836 L2210.02 279.488 Q2206.06 278.655 2204.3 276.942 Q2202.54 275.206 2202.54 272.197 Q2202.54 268.539 2205.14 266.549 Q2207.73 264.558 2212.5 264.558 Q2214.86 264.558 2216.94 264.905 Q2219.02 265.252 2220.78 265.947 Z" fill="#000000" fill-rule="evenodd" fill-opacity="1" /><path clip-path="url(#clip520)" d="M2228.28 255.137 L2231.99 255.137 Q2235.46 260.6 2237.17 265.831 Q2238.91 271.062 2238.91 276.224 Q2238.91 281.41 2237.17 286.664 Q2235.46 291.919 2231.99 297.359 L2228.28 297.359 Q2231.36 292.058 2232.87 286.826 Q2234.39 281.572 2234.39 276.224 Q2234.39 270.877 2232.87 265.669 Q2231.36 260.461 2228.28 255.137 Z" fill="#000000" fill-rule="evenodd" fill-opacity="1" /></svg>
