<?xml version="1.0" encoding="utf-8"?>
<svg xmlns="http://www.w3.org/2000/svg" xmlns:xlink="http://www.w3.org/1999/xlink" width="600" height="400" viewBox="0 0 2400 1600">
<defs>
  <clipPath id="clip480">
    <rect x="0" y="0" width="2400" height="1600"/>
  </clipPath>
</defs>
<path clip-path="url(#clip480)" d="
M0 1600 L2400 1600 L2400 0 L0 0  Z
  " fill="#ffffff" fill-rule="evenodd" fill-opacity="1"/>
<defs>
  <clipPath id="clip481">
    <rect x="480" y="0" width="1681" height="1600"/>
  </clipPath>
</defs>
<path clip-path="url(#clip480)" d="
M193.936 1423.18 L2352.76 1423.18 L2352.76 47.2441 L193.936 47.2441  Z
  " fill="#ffffff" fill-rule="evenodd" fill-opacity="1"/>
<defs>
  <clipPath id="clip482">
    <rect x="193" y="47" width="2160" height="1377"/>
  </clipPath>
</defs>
<polyline clip-path="url(#clip482)" style="stroke:#000000; stroke-linecap:butt; stroke-linejoin:round; stroke-width:2; stroke-opacity:0.1; fill:none" points="
  255.035,1423.18 255.035,47.2441 
  "/>
<polyline clip-path="url(#clip482)" style="stroke:#000000; stroke-linecap:butt; stroke-linejoin:round; stroke-width:2; stroke-opacity:0.1; fill:none" points="
  662.359,1423.18 662.359,47.2441 
  "/>
<polyline clip-path="url(#clip482)" style="stroke:#000000; stroke-linecap:butt; stroke-linejoin:round; stroke-width:2; stroke-opacity:0.1; fill:none" points="
  1069.68,1423.18 1069.68,47.2441 
  "/>
<polyline clip-path="url(#clip482)" style="stroke:#000000; stroke-linecap:butt; stroke-linejoin:round; stroke-width:2; stroke-opacity:0.1; fill:none" points="
  1477.01,1423.18 1477.01,47.2441 
  "/>
<polyline clip-path="url(#clip482)" style="stroke:#000000; stroke-linecap:butt; stroke-linejoin:round; stroke-width:2; stroke-opacity:0.1; fill:none" points="
  1884.33,1423.18 1884.33,47.2441 
  "/>
<polyline clip-path="url(#clip482)" style="stroke:#000000; stroke-linecap:butt; stroke-linejoin:round; stroke-width:2; stroke-opacity:0.1; fill:none" points="
  2291.66,1423.18 2291.66,47.2441 
  "/>
<polyline clip-path="url(#clip480)" style="stroke:#000000; stroke-linecap:butt; stroke-linejoin:round; stroke-width:4; stroke-opacity:1; fill:none" points="
  193.936,1423.18 2352.76,1423.18 
  "/>
<polyline clip-path="url(#clip480)" style="stroke:#000000; stroke-linecap:butt; stroke-linejoin:round; stroke-width:4; stroke-opacity:1; fill:none" points="
  255.035,1423.18 255.035,1406.67 
  "/>
<polyline clip-path="url(#clip480)" style="stroke:#000000; stroke-linecap:butt; stroke-linejoin:round; stroke-width:4; stroke-opacity:1; fill:none" points="
  662.359,1423.18 662.359,1406.67 
  "/>
<polyline clip-path="url(#clip480)" style="stroke:#000000; stroke-linecap:butt; stroke-linejoin:round; stroke-width:4; stroke-opacity:1; fill:none" points="
  1069.68,1423.18 1069.68,1406.67 
  "/>
<polyline clip-path="url(#clip480)" style="stroke:#000000; stroke-linecap:butt; stroke-linejoin:round; stroke-width:4; stroke-opacity:1; fill:none" points="
  1477.01,1423.18 1477.01,1406.67 
  "/>
<polyline clip-path="url(#clip480)" style="stroke:#000000; stroke-linecap:butt; stroke-linejoin:round; stroke-width:4; stroke-opacity:1; fill:none" points="
  1884.33,1423.18 1884.33,1406.67 
  "/>
<polyline clip-path="url(#clip480)" style="stroke:#000000; stroke-linecap:butt; stroke-linejoin:round; stroke-width:4; stroke-opacity:1; fill:none" points="
  2291.66,1423.18 2291.66,1406.67 
  "/>
<path clip-path="url(#clip480)" d="M255.035 1452.37 Q251.424 1452.37 249.595 1455.94 Q247.789 1459.48 247.789 1466.61 Q247.789 1473.71 249.595 1477.28 Q251.424 1480.82 255.035 1480.82 Q258.669 1480.82 260.474 1477.28 Q262.303 1473.71 262.303 1466.61 Q262.303 1459.48 260.474 1455.94 Q258.669 1452.37 255.035 1452.37 M255.035 1448.67 Q260.845 1448.67 263.9 1453.27 Q266.979 1457.86 266.979 1466.61 Q266.979 1475.33 263.9 1479.94 Q260.845 1484.52 255.035 1484.52 Q249.225 1484.52 246.146 1479.94 Q243.09 1475.33 243.09 1466.61 Q243.09 1457.86 246.146 1453.27 Q249.225 1448.67 255.035 1448.67 Z" fill="#000000" fill-rule="evenodd" fill-opacity="1" /><path clip-path="url(#clip480)" d="M652.741 1479.92 L660.38 1479.92 L660.38 1453.55 L652.07 1455.22 L652.07 1450.96 L660.334 1449.29 L665.01 1449.29 L665.01 1479.92 L672.648 1479.92 L672.648 1483.85 L652.741 1483.85 L652.741 1479.92 Z" fill="#000000" fill-rule="evenodd" fill-opacity="1" /><path clip-path="url(#clip480)" d="M1064.34 1479.92 L1080.66 1479.92 L1080.66 1483.85 L1058.71 1483.85 L1058.71 1479.92 Q1061.37 1477.16 1065.96 1472.53 Q1070.56 1467.88 1071.74 1466.54 Q1073.99 1464.01 1074.87 1462.28 Q1075.77 1460.52 1075.77 1458.83 Q1075.77 1456.07 1073.83 1454.34 Q1071.91 1452.6 1068.8 1452.6 Q1066.61 1452.6 1064.15 1453.37 Q1061.72 1454.13 1058.94 1455.68 L1058.94 1450.96 Q1061.77 1449.82 1064.22 1449.25 Q1066.67 1448.67 1068.71 1448.67 Q1074.08 1448.67 1077.28 1451.35 Q1080.47 1454.04 1080.47 1458.53 Q1080.47 1460.66 1079.66 1462.58 Q1078.87 1464.48 1076.77 1467.07 Q1076.19 1467.74 1073.09 1470.96 Q1069.98 1474.15 1064.34 1479.92 Z" fill="#000000" fill-rule="evenodd" fill-opacity="1" /><path clip-path="url(#clip480)" d="M1481.26 1465.22 Q1484.61 1465.94 1486.49 1468.2 Q1488.39 1470.47 1488.39 1473.81 Q1488.39 1478.92 1484.87 1481.72 Q1481.35 1484.52 1474.87 1484.52 Q1472.69 1484.52 1470.38 1484.08 Q1468.08 1483.67 1465.63 1482.81 L1465.63 1478.3 Q1467.58 1479.43 1469.89 1480.01 Q1472.2 1480.59 1474.73 1480.59 Q1479.13 1480.59 1481.42 1478.85 Q1483.73 1477.12 1483.73 1473.81 Q1483.73 1470.75 1481.58 1469.04 Q1479.45 1467.3 1475.63 1467.3 L1471.6 1467.3 L1471.6 1463.46 L1475.82 1463.46 Q1479.27 1463.46 1481.09 1462.09 Q1482.92 1460.7 1482.92 1458.11 Q1482.92 1455.45 1481.02 1454.04 Q1479.15 1452.6 1475.63 1452.6 Q1473.71 1452.6 1471.51 1453.02 Q1469.31 1453.44 1466.67 1454.31 L1466.67 1450.15 Q1469.33 1449.41 1471.65 1449.04 Q1473.99 1448.67 1476.05 1448.67 Q1481.37 1448.67 1484.47 1451.1 Q1487.58 1453.5 1487.58 1457.63 Q1487.58 1460.5 1485.93 1462.49 Q1484.29 1464.45 1481.26 1465.22 Z" fill="#000000" fill-rule="evenodd" fill-opacity="1" /><path clip-path="url(#clip480)" d="M1887.34 1453.37 L1875.54 1471.81 L1887.34 1471.81 L1887.34 1453.37 M1886.12 1449.29 L1891.99 1449.29 L1891.99 1471.81 L1896.93 1471.81 L1896.93 1475.7 L1891.99 1475.7 L1891.99 1483.85 L1887.34 1483.85 L1887.34 1475.7 L1871.74 1475.7 L1871.74 1471.19 L1886.12 1449.29 Z" fill="#000000" fill-rule="evenodd" fill-opacity="1" /><path clip-path="url(#clip480)" d="M2281.94 1449.29 L2300.29 1449.29 L2300.29 1453.23 L2286.22 1453.23 L2286.22 1461.7 Q2287.24 1461.35 2288.25 1461.19 Q2289.27 1461 2290.29 1461 Q2296.08 1461 2299.46 1464.18 Q2302.84 1467.35 2302.84 1472.76 Q2302.84 1478.34 2299.37 1481.44 Q2295.89 1484.52 2289.57 1484.52 Q2287.4 1484.52 2285.13 1484.15 Q2282.88 1483.78 2280.48 1483.04 L2280.48 1478.34 Q2282.56 1479.48 2284.78 1480.03 Q2287 1480.59 2289.48 1480.59 Q2293.49 1480.59 2295.82 1478.48 Q2298.16 1476.38 2298.16 1472.76 Q2298.16 1469.15 2295.82 1467.05 Q2293.49 1464.94 2289.48 1464.94 Q2287.61 1464.94 2285.73 1465.36 Q2283.88 1465.77 2281.94 1466.65 L2281.94 1449.29 Z" fill="#000000" fill-rule="evenodd" fill-opacity="1" /><path clip-path="url(#clip480)" d="M1221.66 1522.27 L1221.66 1532.4 L1233.72 1532.4 L1233.72 1536.95 L1221.66 1536.95 L1221.66 1556.3 Q1221.66 1560.66 1222.83 1561.9 Q1224.04 1563.14 1227.7 1563.14 L1233.72 1563.14 L1233.72 1568.04 L1227.7 1568.04 Q1220.92 1568.04 1218.35 1565.53 Q1215.77 1562.98 1215.77 1556.3 L1215.77 1536.95 L1211.47 1536.95 L1211.47 1532.4 L1215.77 1532.4 L1215.77 1522.27 L1221.66 1522.27 Z" fill="#000000" fill-rule="evenodd" fill-opacity="1" /><path clip-path="url(#clip480)" d="M1261.6 1518.52 L1275.1 1518.52 L1275.1 1523.07 L1267.46 1523.07 L1267.46 1572.09 L1275.1 1572.09 L1275.1 1576.64 L1261.6 1576.64 L1261.6 1518.52 Z" fill="#000000" fill-rule="evenodd" fill-opacity="1" /><path clip-path="url(#clip480)" d="M1310.3 1533.45 L1310.3 1538.98 Q1307.82 1537.71 1305.14 1537.07 Q1302.47 1536.44 1299.6 1536.44 Q1295.24 1536.44 1293.05 1537.77 Q1290.88 1539.11 1290.88 1541.79 Q1290.88 1543.82 1292.44 1545 Q1294 1546.15 1298.71 1547.2 L1300.72 1547.64 Q1306.96 1548.98 1309.57 1551.43 Q1312.21 1553.85 1312.21 1558.21 Q1312.21 1563.17 1308.26 1566.07 Q1304.35 1568.97 1297.47 1568.97 Q1294.61 1568.97 1291.49 1568.39 Q1288.4 1567.85 1284.96 1566.74 L1284.96 1560.69 Q1288.21 1562.38 1291.36 1563.24 Q1294.51 1564.07 1297.6 1564.07 Q1301.74 1564.07 1303.97 1562.66 Q1306.19 1561.23 1306.19 1558.65 Q1306.19 1556.27 1304.57 1554.99 Q1302.98 1553.72 1297.54 1552.54 L1295.5 1552.07 Q1290.06 1550.92 1287.64 1548.56 Q1285.22 1546.18 1285.22 1542.04 Q1285.22 1537.01 1288.78 1534.27 Q1292.35 1531.54 1298.9 1531.54 Q1302.15 1531.54 1305.02 1532.01 Q1307.88 1532.49 1310.3 1533.45 Z" fill="#000000" fill-rule="evenodd" fill-opacity="1" /><path clip-path="url(#clip480)" d="M1335.22 1518.52 L1335.22 1576.64 L1321.73 1576.64 L1321.73 1572.09 L1329.33 1572.09 L1329.33 1523.07 L1321.73 1523.07 L1321.73 1518.52 L1335.22 1518.52 Z" fill="#000000" fill-rule="evenodd" fill-opacity="1" /><polyline clip-path="url(#clip482)" style="stroke:#000000; stroke-linecap:butt; stroke-linejoin:round; stroke-width:2; stroke-opacity:0.1; fill:none" points="
  193.936,1396.37 2352.76,1396.37 
  "/>
<polyline clip-path="url(#clip482)" style="stroke:#000000; stroke-linecap:butt; stroke-linejoin:round; stroke-width:2; stroke-opacity:0.1; fill:none" points="
  193.936,1088.48 2352.76,1088.48 
  "/>
<polyline clip-path="url(#clip482)" style="stroke:#000000; stroke-linecap:butt; stroke-linejoin:round; stroke-width:2; stroke-opacity:0.1; fill:none" points="
  193.936,780.59 2352.76,780.59 
  "/>
<polyline clip-path="url(#clip482)" style="stroke:#000000; stroke-linecap:butt; stroke-linejoin:round; stroke-width:2; stroke-opacity:0.1; fill:none" points="
  193.936,472.702 2352.76,472.702 
  "/>
<polyline clip-path="url(#clip482)" style="stroke:#000000; stroke-linecap:butt; stroke-linejoin:round; stroke-width:2; stroke-opacity:0.1; fill:none" points="
  193.936,164.815 2352.76,164.815 
  "/>
<polyline clip-path="url(#clip480)" style="stroke:#000000; stroke-linecap:butt; stroke-linejoin:round; stroke-width:4; stroke-opacity:1; fill:none" points="
  193.936,1423.18 193.936,47.2441 
  "/>
<polyline clip-path="url(#clip480)" style="stroke:#000000; stroke-linecap:butt; stroke-linejoin:round; stroke-width:4; stroke-opacity:1; fill:none" points="
  193.936,1396.37 219.842,1396.37 
  "/>
<polyline clip-path="url(#clip480)" style="stroke:#000000; stroke-linecap:butt; stroke-linejoin:round; stroke-width:4; stroke-opacity:1; fill:none" points="
  193.936,1088.48 219.842,1088.48 
  "/>
<polyline clip-path="url(#clip480)" style="stroke:#000000; stroke-linecap:butt; stroke-linejoin:round; stroke-width:4; stroke-opacity:1; fill:none" points="
  193.936,780.59 219.842,780.59 
  "/>
<polyline clip-path="url(#clip480)" style="stroke:#000000; stroke-linecap:butt; stroke-linejoin:round; stroke-width:4; stroke-opacity:1; fill:none" points="
  193.936,472.702 219.842,472.702 
  "/>
<polyline clip-path="url(#clip480)" style="stroke:#000000; stroke-linecap:butt; stroke-linejoin:round; stroke-width:4; stroke-opacity:1; fill:none" points="
  193.936,164.815 219.842,164.815 
  "/>
<path clip-path="url(#clip480)" d="M50.9921 1396.82 L80.6679 1396.82 L80.6679 1400.75 L50.9921 1400.75 L50.9921 1396.82 Z" fill="#000000" fill-rule="evenodd" fill-opacity="1" /><path clip-path="url(#clip480)" d="M91.5706 1409.71 L99.2095 1409.71 L99.2095 1383.34 L90.8993 1385.01 L90.8993 1380.75 L99.1632 1379.09 L103.839 1379.09 L103.839 1409.71 L111.478 1409.71 L111.478 1413.65 L91.5706 1413.65 L91.5706 1409.71 Z" fill="#000000" fill-rule="evenodd" fill-opacity="1" /><path clip-path="url(#clip480)" d="M120.922 1407.77 L125.807 1407.77 L125.807 1413.65 L120.922 1413.65 L120.922 1407.77 Z" fill="#000000" fill-rule="evenodd" fill-opacity="1" /><path clip-path="url(#clip480)" d="M145.992 1382.16 Q142.381 1382.16 140.552 1385.73 Q138.746 1389.27 138.746 1396.4 Q138.746 1403.51 140.552 1407.07 Q142.381 1410.61 145.992 1410.61 Q149.626 1410.61 151.431 1407.07 Q153.26 1403.51 153.26 1396.4 Q153.26 1389.27 151.431 1385.73 Q149.626 1382.16 145.992 1382.16 M145.992 1378.46 Q151.802 1378.46 154.857 1383.07 Q157.936 1387.65 157.936 1396.4 Q157.936 1405.13 154.857 1409.73 Q151.802 1414.32 145.992 1414.32 Q140.181 1414.32 137.103 1409.73 Q134.047 1405.13 134.047 1396.4 Q134.047 1387.65 137.103 1383.07 Q140.181 1378.46 145.992 1378.46 Z" fill="#000000" fill-rule="evenodd" fill-opacity="1" /><path clip-path="url(#clip480)" d="M51.9875 1088.93 L81.6633 1088.93 L81.6633 1092.86 L51.9875 1092.86 L51.9875 1088.93 Z" fill="#000000" fill-rule="evenodd" fill-opacity="1" /><path clip-path="url(#clip480)" d="M101.756 1074.28 Q98.1447 1074.28 96.316 1077.84 Q94.5104 1081.38 94.5104 1088.51 Q94.5104 1095.62 96.316 1099.18 Q98.1447 1102.73 101.756 1102.73 Q105.39 1102.73 107.196 1099.18 Q109.024 1095.62 109.024 1088.51 Q109.024 1081.38 107.196 1077.84 Q105.39 1074.28 101.756 1074.28 M101.756 1070.57 Q107.566 1070.57 110.621 1075.18 Q113.7 1079.76 113.7 1088.51 Q113.7 1097.24 110.621 1101.85 Q107.566 1106.43 101.756 1106.43 Q95.9456 1106.43 92.8669 1101.85 Q89.8114 1097.24 89.8114 1088.51 Q89.8114 1079.76 92.8669 1075.18 Q95.9456 1070.57 101.756 1070.57 Z" fill="#000000" fill-rule="evenodd" fill-opacity="1" /><path clip-path="url(#clip480)" d="M121.918 1099.88 L126.802 1099.88 L126.802 1105.76 L121.918 1105.76 L121.918 1099.88 Z" fill="#000000" fill-rule="evenodd" fill-opacity="1" /><path clip-path="url(#clip480)" d="M137.033 1071.2 L155.39 1071.2 L155.39 1075.13 L141.316 1075.13 L141.316 1083.6 Q142.334 1083.26 143.353 1083.1 Q144.371 1082.91 145.39 1082.91 Q151.177 1082.91 154.556 1086.08 Q157.936 1089.25 157.936 1094.67 Q157.936 1100.25 154.464 1103.35 Q150.992 1106.43 144.672 1106.43 Q142.496 1106.43 140.228 1106.06 Q137.982 1105.69 135.575 1104.95 L135.575 1100.25 Q137.658 1101.38 139.881 1101.94 Q142.103 1102.49 144.58 1102.49 Q148.584 1102.49 150.922 1100.39 Q153.26 1098.28 153.26 1094.67 Q153.26 1091.06 150.922 1088.95 Q148.584 1086.85 144.58 1086.85 Q142.705 1086.85 140.83 1087.26 Q138.978 1087.68 137.033 1088.56 L137.033 1071.2 Z" fill="#000000" fill-rule="evenodd" fill-opacity="1" /><path clip-path="url(#clip480)" d="M100.76 766.389 Q97.1493 766.389 95.3206 769.954 Q93.515 773.495 93.515 780.625 Q93.515 787.731 95.3206 791.296 Q97.1493 794.838 100.76 794.838 Q104.395 794.838 106.2 791.296 Q108.029 787.731 108.029 780.625 Q108.029 773.495 106.2 769.954 Q104.395 766.389 100.76 766.389 M100.76 762.685 Q106.571 762.685 109.626 767.291 Q112.705 771.875 112.705 780.625 Q112.705 789.352 109.626 793.958 Q106.571 798.541 100.76 798.541 Q94.9502 798.541 91.8715 793.958 Q88.816 789.352 88.816 780.625 Q88.816 771.875 91.8715 767.291 Q94.9502 762.685 100.76 762.685 Z" fill="#000000" fill-rule="evenodd" fill-opacity="1" /><path clip-path="url(#clip480)" d="M120.922 791.99 L125.807 791.99 L125.807 797.87 L120.922 797.87 L120.922 791.99 Z" fill="#000000" fill-rule="evenodd" fill-opacity="1" /><path clip-path="url(#clip480)" d="M145.992 766.389 Q142.381 766.389 140.552 769.954 Q138.746 773.495 138.746 780.625 Q138.746 787.731 140.552 791.296 Q142.381 794.838 145.992 794.838 Q149.626 794.838 151.431 791.296 Q153.26 787.731 153.26 780.625 Q153.26 773.495 151.431 769.954 Q149.626 766.389 145.992 766.389 M145.992 762.685 Q151.802 762.685 154.857 767.291 Q157.936 771.875 157.936 780.625 Q157.936 789.352 154.857 793.958 Q151.802 798.541 145.992 798.541 Q140.181 798.541 137.103 793.958 Q134.047 789.352 134.047 780.625 Q134.047 771.875 137.103 767.291 Q140.181 762.685 145.992 762.685 Z" fill="#000000" fill-rule="evenodd" fill-opacity="1" /><path clip-path="url(#clip480)" d="M101.756 458.501 Q98.1447 458.501 96.316 462.066 Q94.5104 465.608 94.5104 472.737 Q94.5104 479.844 96.316 483.408 Q98.1447 486.95 101.756 486.95 Q105.39 486.95 107.196 483.408 Q109.024 479.844 109.024 472.737 Q109.024 465.608 107.196 462.066 Q105.39 458.501 101.756 458.501 M101.756 454.797 Q107.566 454.797 110.621 459.404 Q113.7 463.987 113.7 472.737 Q113.7 481.464 110.621 486.07 Q107.566 490.654 101.756 490.654 Q95.9456 490.654 92.8669 486.07 Q89.8114 481.464 89.8114 472.737 Q89.8114 463.987 92.8669 459.404 Q95.9456 454.797 101.756 454.797 Z" fill="#000000" fill-rule="evenodd" fill-opacity="1" /><path clip-path="url(#clip480)" d="M121.918 484.103 L126.802 484.103 L126.802 489.982 L121.918 489.982 L121.918 484.103 Z" fill="#000000" fill-rule="evenodd" fill-opacity="1" /><path clip-path="url(#clip480)" d="M137.033 455.422 L155.39 455.422 L155.39 459.358 L141.316 459.358 L141.316 467.83 Q142.334 467.483 143.353 467.321 Q144.371 467.135 145.39 467.135 Q151.177 467.135 154.556 470.307 Q157.936 473.478 157.936 478.895 Q157.936 484.473 154.464 487.575 Q150.992 490.654 144.672 490.654 Q142.496 490.654 140.228 490.283 Q137.982 489.913 135.575 489.172 L135.575 484.473 Q137.658 485.608 139.881 486.163 Q142.103 486.719 144.58 486.719 Q148.584 486.719 150.922 484.612 Q153.26 482.506 153.26 478.895 Q153.26 475.283 150.922 473.177 Q148.584 471.071 144.58 471.071 Q142.705 471.071 140.83 471.487 Q138.978 471.904 137.033 472.784 L137.033 455.422 Z" fill="#000000" fill-rule="evenodd" fill-opacity="1" /><path clip-path="url(#clip480)" d="M91.5706 178.16 L99.2095 178.16 L99.2095 151.794 L90.8993 153.461 L90.8993 149.202 L99.1632 147.535 L103.839 147.535 L103.839 178.16 L111.478 178.16 L111.478 182.095 L91.5706 182.095 L91.5706 178.16 Z" fill="#000000" fill-rule="evenodd" fill-opacity="1" /><path clip-path="url(#clip480)" d="M120.922 176.215 L125.807 176.215 L125.807 182.095 L120.922 182.095 L120.922 176.215 Z" fill="#000000" fill-rule="evenodd" fill-opacity="1" /><path clip-path="url(#clip480)" d="M145.992 150.614 Q142.381 150.614 140.552 154.178 Q138.746 157.72 138.746 164.85 Q138.746 171.956 140.552 175.521 Q142.381 179.063 145.992 179.063 Q149.626 179.063 151.431 175.521 Q153.26 171.956 153.26 164.85 Q153.26 157.72 151.431 154.178 Q149.626 150.614 145.992 150.614 M145.992 146.91 Q151.802 146.91 154.857 151.516 Q157.936 156.1 157.936 164.85 Q157.936 173.576 154.857 178.183 Q151.802 182.766 145.992 182.766 Q140.181 182.766 137.103 178.183 Q134.047 173.576 134.047 164.85 Q134.047 156.1 137.103 151.516 Q140.181 146.91 145.992 146.91 Z" fill="#000000" fill-rule="evenodd" fill-opacity="1" /><polyline clip-path="url(#clip482)" style="stroke:#009af9; stroke-linecap:butt; stroke-linejoin:round; stroke-width:4; stroke-opacity:1; fill:none" points="
  255.035,472.702 259.108,471.119 263.181,469.529 267.254,467.932 271.328,466.33 275.401,464.721 279.474,463.106 283.547,461.484 287.621,459.857 291.694,458.222 
  295.767,456.582 299.84,454.935 303.914,453.281 307.987,451.621 312.06,449.955 316.133,448.282 320.207,446.602 324.28,444.915 328.353,443.222 332.426,441.523 
  336.5,439.816 340.573,438.103 344.646,436.383 348.719,434.656 352.793,432.923 356.866,431.182 360.939,429.435 365.012,427.681 369.086,425.92 373.159,424.152 
  377.232,422.377 381.305,420.595 385.379,418.806 389.452,417.01 393.525,415.207 397.598,413.397 401.671,411.58 405.745,409.756 409.818,407.925 413.891,406.086 
  417.964,404.241 422.038,402.388 426.111,400.528 430.184,398.661 434.257,396.787 438.331,394.906 442.404,393.018 446.477,391.122 450.55,389.219 454.624,387.309 
  458.697,385.392 462.77,383.468 466.843,381.536 470.917,379.597 474.99,377.652 479.063,375.699 483.136,373.739 487.21,371.771 491.283,369.797 495.356,367.816 
  499.429,365.828 503.503,363.833 507.576,361.831 511.649,359.822 515.722,357.807 519.796,355.784 523.869,353.755 527.942,351.72 532.015,349.678 536.089,347.629 
  540.162,345.574 544.235,343.512 548.308,341.444 552.382,339.37 556.455,337.29 560.528,335.204 564.601,333.112 568.675,331.014 572.748,328.91 576.821,326.801 
  580.894,324.687 584.968,322.567 589.041,320.442 593.114,318.312 597.187,316.178 601.261,314.038 605.334,311.895 609.407,309.747 613.48,307.595 617.553,305.439 
  621.627,303.28 625.7,301.117 629.773,298.952 633.846,296.783 637.92,294.612 641.993,292.438 646.066,290.262 650.139,288.085 654.213,285.906 658.286,283.726 
  662.359,281.545 666.432,279.363 670.506,277.181 674.579,275 678.652,272.818 682.725,270.638 686.799,268.459 690.872,266.281 694.945,264.105 699.018,261.932 
  703.092,259.761 707.165,257.594 711.238,255.43 715.311,253.27 719.385,251.114 723.458,248.964 727.531,246.819 731.604,244.681 735.678,242.549 739.751,240.424 
  743.824,238.305 747.897,236.194 751.971,234.09 756.044,231.995 760.117,229.907 764.19,227.828 768.264,225.757 772.337,223.695 776.41,221.643 780.483,219.6 
  784.557,217.567 788.63,215.544 792.703,213.531 796.776,211.529 800.85,209.538 804.923,207.558 808.996,205.589 813.069,203.632 817.142,201.687 821.216,199.754 
  825.289,197.833 829.362,195.925 833.435,194.03 837.509,192.148 841.582,190.28 845.655,188.425 849.728,186.584 853.802,184.757 857.875,182.945 861.948,181.147 
  866.021,179.364 870.095,177.596 874.168,175.843 878.241,174.106 882.314,172.384 886.388,170.678 890.461,168.989 894.534,167.316 898.607,165.659 902.681,164.019 
  906.754,162.396 910.827,160.79 914.9,159.202 918.974,157.631 923.047,156.078 927.12,154.543 931.193,153.027 935.267,151.528 939.34,150.048 943.413,148.588 
  947.486,147.146 951.56,145.724 955.633,144.322 959.706,142.939 963.779,141.577 967.853,140.235 971.926,138.912 975.999,137.611 980.072,136.329 984.146,135.068 
  988.219,133.828 992.292,132.609 996.365,131.41 1000.44,130.232 1004.51,129.074 1008.59,127.938 1012.66,126.822 1016.73,125.727 1020.8,124.652 1024.88,123.598 
  1028.95,122.565 1033.02,121.553 1037.1,120.56 1041.17,119.588 1045.24,118.637 1049.32,117.705 1053.39,116.793 1057.46,115.901 1061.54,115.029 1065.61,114.176 
  1069.68,113.343 1073.76,112.529 1077.83,111.733 1081.9,110.956 1085.98,110.198 1090.05,109.457 1094.12,108.735 1098.2,108.03 1102.27,107.342 1106.34,106.671 
  1110.42,106.017 1114.49,105.379 1118.56,104.757 1122.64,104.151 1126.71,103.56 1130.78,102.984 1134.86,102.422 1138.93,101.875 1143,101.34 1147.08,100.82 
  1151.15,100.313 1155.22,99.8187 1159.3,99.3376 1163.37,98.8692 1167.44,98.4134 1171.51,97.9698 1175.59,97.5383 1179.66,97.1187 1183.73,96.7108 1187.81,96.3143 
  1191.88,95.9291 1195.95,95.555 1200.03,95.1918 1204.1,94.8392 1208.17,94.4971 1212.25,94.1652 1216.32,93.8434 1220.39,93.5315 1224.47,93.2292 1228.54,92.9364 
  1232.61,92.6529 1236.69,92.3785 1240.76,92.1129 1244.83,91.8561 1248.91,91.6077 1252.98,91.3676 1257.05,91.1357 1261.13,90.9117 1265.2,90.6954 1269.27,90.4867 
  1273.35,90.2853 1277.42,90.0911 1281.49,89.9039 1285.57,89.7235 1289.64,89.5497 1293.71,89.3824 1297.79,89.2213 1301.86,89.0662 1305.93,88.9171 1310.01,88.7737 
  1314.08,88.6357 1318.15,88.5032 1322.22,88.3758 1326.3,88.2534 1330.37,88.1358 1334.44,88.0229 1338.52,87.9144 1342.59,87.8102 1346.66,87.7101 1350.74,87.614 
  1354.81,87.5217 1358.88,87.4329 1362.96,87.3476 1367.03,87.2657 1371.1,87.1872 1375.18,87.1123 1379.25,87.0409 1383.32,86.9729 1387.4,86.9082 1391.47,86.8468 
  1395.54,86.7886 1399.62,86.7336 1403.69,86.6816 1407.76,86.6326 1411.84,86.5865 1415.91,86.5434 1419.98,86.503 1424.06,86.4653 1428.13,86.4304 1432.2,86.398 
  1436.28,86.3682 1440.35,86.3409 1444.42,86.316 1448.5,86.2935 1452.57,86.2733 1456.64,86.2553 1460.72,86.2396 1464.79,86.226 1468.86,86.2144 1472.93,86.2049 
  1477.01,86.1973 1481.08,86.1917 1485.15,86.1879 1489.23,86.1859 1493.3,86.1857 1497.37,86.1871 1501.45,86.1903 1505.52,86.195 1509.59,86.2012 1513.67,86.209 
  1517.74,86.2182 1521.81,86.2288 1525.89,86.2408 1529.96,86.2541 1534.03,86.2686 1538.11,86.2844 1542.18,86.3013 1546.25,86.3194 1550.33,86.3386 1554.4,86.3587 
  1558.47,86.3799 1562.55,86.4021 1566.62,86.4252 1570.69,86.4491 1574.77,86.474 1578.84,86.4997 1582.91,86.5262 1586.99,86.5536 1591.06,86.5818 1595.13,86.6107 
  1599.21,86.6405 1603.28,86.671 1607.35,86.7023 1611.43,86.7343 1615.5,86.7671 1619.57,86.8005 1623.65,86.8347 1627.72,86.8695 1631.79,86.9049 1635.86,86.941 
  1639.94,86.9778 1644.01,87.0151 1648.08,87.0531 1652.16,87.0916 1656.23,87.1307 1660.3,87.1703 1664.38,87.2105 1668.45,87.2512 1672.52,87.2924 1676.6,87.3341 
  1680.67,87.3763 1684.74,87.419 1688.82,87.4621 1692.89,87.5056 1696.96,87.5496 1701.04,87.5939 1705.11,87.6387 1709.18,87.6838 1713.26,87.7293 1717.33,87.7752 
  1721.4,87.8214 1725.48,87.8679 1729.55,87.9147 1733.62,87.9618 1737.7,88.0092 1741.77,88.0569 1745.84,88.1048 1749.92,88.153 1753.99,88.2014 1758.06,88.25 
  1762.14,88.2988 1766.21,88.3478 1770.28,88.397 1774.36,88.4464 1778.43,88.4959 1782.5,88.5455 1786.57,88.5953 1790.65,88.6451 1794.72,88.6951 1798.79,88.7452 
  1802.87,88.7953 1806.94,88.8455 1811.01,88.8958 1815.09,88.946 1819.16,88.9964 1823.23,89.0467 1827.31,89.097 1831.38,89.1474 1835.45,89.1979 1839.53,89.2484 
  1843.6,89.2989 1847.67,89.3495 1851.75,89.4002 1855.82,89.4508 1859.89,89.5015 1863.97,89.5522 1868.04,89.603 1872.11,89.6538 1876.19,89.7046 1880.26,89.7554 
  1884.33,89.8062 1888.41,89.8571 1892.48,89.9079 1896.55,89.9588 1900.63,90.0097 1904.7,90.0606 1908.77,90.1114 1912.85,90.1623 1916.92,90.2131 1920.99,90.264 
  1925.07,90.3148 1929.14,90.3656 1933.21,90.4164 1937.28,90.4672 1941.36,90.518 1945.43,90.5687 1949.5,90.6194 1953.58,90.67 1957.65,90.7206 1961.72,90.7712 
  1965.8,90.8218 1969.87,90.8723 1973.94,90.9227 1978.02,90.9731 1982.09,91.0234 1986.16,91.0737 1990.24,91.1239 1994.31,91.1741 1998.38,91.2242 2002.46,91.2742 
  2006.53,91.3241 2010.6,91.374 2014.68,91.4238 2018.75,91.4735 2022.82,91.5231 2026.9,91.5726 2030.97,91.6221 2035.04,91.6714 2039.12,91.7207 2043.19,91.7699 
  2047.26,91.8189 2051.34,91.8679 2055.41,91.9167 2059.48,91.9654 2063.56,92.014 2067.63,92.0625 2071.7,92.1109 2075.78,92.1592 2079.85,92.2073 2083.92,92.2553 
  2087.99,92.3031 2092.07,92.3509 2096.14,92.3984 2100.21,92.4459 2104.29,92.4932 2108.36,92.5404 2112.43,92.5875 2116.51,92.6344 2120.58,92.6813 2124.65,92.728 
  2128.73,92.7746 2132.8,92.8211 2136.87,92.8674 2140.95,92.9136 2145.02,92.9597 2149.09,93.0057 2153.17,93.0515 2157.24,93.0972 2161.31,93.1428 2165.39,93.1883 
  2169.46,93.2336 2173.53,93.2788 2177.61,93.3238 2181.68,93.3688 2185.75,93.4136 2189.83,93.4582 2193.9,93.5028 2197.97,93.5472 2202.05,93.5914 2206.12,93.6356 
  2210.19,93.6796 2214.27,93.7234 2218.34,93.7671 2222.41,93.8107 2226.49,93.8542 2230.56,93.8975 2234.63,93.9406 2238.71,93.9837 2242.78,94.0265 2246.85,94.0693 
  2250.92,94.1119 2255,94.1544 2259.07,94.1967 2263.14,94.2389 2267.22,94.2809 2271.29,94.3228 2275.36,94.3646 2279.44,94.4062 2283.51,94.4476 2287.58,94.489 
  2291.66,94.5301 
  "/>
<polyline clip-path="url(#clip482)" style="stroke:#e26f46; stroke-linecap:butt; stroke-linejoin:round; stroke-width:4; stroke-opacity:1; fill:none" points="
  255.035,780.59 259.108,784.577 263.181,788.574 267.254,792.581 271.328,796.598 275.401,800.625 279.474,804.662 283.547,808.71 287.621,812.767 291.694,816.835 
  295.767,820.912 299.84,825 303.914,829.098 307.987,833.205 312.06,837.323 316.133,841.45 320.207,845.588 324.28,849.735 328.353,853.892 332.426,858.059 
  336.5,862.236 340.573,866.422 344.646,870.618 348.719,874.823 352.793,879.038 356.866,883.263 360.939,887.497 365.012,891.74 369.086,895.992 373.159,900.254 
  377.232,904.524 381.305,908.804 385.379,913.092 389.452,917.389 393.525,921.695 397.598,926.01 401.671,930.332 405.745,934.664 409.818,939.003 413.891,943.35 
  417.964,947.706 422.038,952.069 426.111,956.439 430.184,960.818 434.257,965.203 438.331,969.596 442.404,973.995 446.477,978.401 450.55,982.814 454.624,987.234 
  458.697,991.659 462.77,996.091 466.843,1000.53 470.917,1004.97 474.99,1009.42 479.063,1013.87 483.136,1018.33 487.21,1022.79 491.283,1027.26 495.356,1031.73 
  499.429,1036.2 503.503,1040.68 507.576,1045.16 511.649,1049.64 515.722,1054.12 519.796,1058.61 523.869,1063.1 527.942,1067.59 532.015,1072.07 536.089,1076.56 
  540.162,1081.05 544.235,1085.54 548.308,1090.03 552.382,1094.51 556.455,1098.99 560.528,1103.47 564.601,1107.95 568.675,1112.42 572.748,1116.89 576.821,1121.35 
  580.894,1125.81 584.968,1130.26 589.041,1134.71 593.114,1139.14 597.187,1143.57 601.261,1147.99 605.334,1152.4 609.407,1156.8 613.48,1161.18 617.553,1165.56 
  621.627,1169.92 625.7,1174.27 629.773,1178.6 633.846,1182.92 637.92,1187.22 641.993,1191.51 646.066,1195.77 650.139,1200.02 654.213,1204.24 658.286,1208.44 
  662.359,1212.63 666.432,1216.78 670.506,1220.91 674.579,1225.02 678.652,1229.1 682.725,1233.15 686.799,1237.17 690.872,1241.16 694.945,1245.12 699.018,1249.05 
  703.092,1252.94 707.165,1256.8 711.238,1260.62 715.311,1264.4 719.385,1268.14 723.458,1271.84 727.531,1275.51 731.604,1279.13 735.678,1282.7 739.751,1286.23 
  743.824,1289.72 747.897,1293.16 751.971,1296.54 756.044,1299.88 760.117,1303.16 764.19,1306.39 768.264,1309.56 772.337,1312.67 776.41,1315.73 780.483,1318.73 
  784.557,1321.66 788.63,1324.54 792.703,1327.35 796.776,1330.11 800.85,1332.79 804.923,1335.41 808.996,1337.97 813.069,1340.46 817.142,1342.88 821.216,1345.23 
  825.289,1347.52 829.362,1349.74 833.435,1351.89 837.509,1353.96 841.582,1355.97 845.655,1357.91 849.728,1359.78 853.802,1361.58 857.875,1363.3 861.948,1364.96 
  866.021,1366.54 870.095,1368.06 874.168,1369.5 878.241,1370.87 882.314,1372.18 886.388,1373.41 890.461,1374.57 894.534,1375.67 898.607,1376.69 902.681,1377.65 
  906.754,1378.53 910.827,1379.36 914.9,1380.11 918.974,1380.8 923.047,1381.42 927.12,1381.98 931.193,1382.48 935.267,1382.91 939.34,1383.28 943.413,1383.59 
  947.486,1383.83 951.56,1384.02 955.633,1384.15 959.706,1384.22 963.779,1384.24 967.853,1384.2 971.926,1384.1 975.999,1383.96 980.072,1383.76 984.146,1383.51 
  988.219,1383.21 992.292,1382.86 996.365,1382.46 1000.44,1382.02 1004.51,1381.53 1008.59,1380.99 1012.66,1380.42 1016.73,1379.8 1020.8,1379.13 1024.88,1378.43 
  1028.95,1377.69 1033.02,1376.91 1037.1,1376.09 1041.17,1375.24 1045.24,1374.34 1049.32,1373.42 1053.39,1372.46 1057.46,1371.46 1061.54,1370.44 1065.61,1369.38 
  1069.68,1368.3 1073.76,1367.18 1077.83,1366.03 1081.9,1364.86 1085.98,1363.66 1090.05,1362.44 1094.12,1361.18 1098.2,1359.91 1102.27,1358.61 1106.34,1357.29 
  1110.42,1355.94 1114.49,1354.58 1118.56,1353.19 1122.64,1351.78 1126.71,1350.36 1130.78,1348.91 1134.86,1347.45 1138.93,1345.98 1143,1344.48 1147.08,1342.97 
  1151.15,1341.45 1155.22,1339.91 1159.3,1338.36 1163.37,1336.79 1167.44,1335.21 1171.51,1333.61 1175.59,1332 1179.66,1330.38 1183.73,1328.75 1187.81,1327.11 
  1191.88,1325.45 1195.95,1323.79 1200.03,1322.11 1204.1,1320.42 1208.17,1318.72 1212.25,1317.02 1216.32,1315.3 1220.39,1313.58 1224.47,1311.85 1228.54,1310.1 
  1232.61,1308.36 1236.69,1306.6 1240.76,1304.84 1244.83,1303.07 1248.91,1301.29 1252.98,1299.51 1257.05,1297.72 1261.13,1295.93 1265.2,1294.13 1269.27,1292.33 
  1273.35,1290.52 1277.42,1288.71 1281.49,1286.89 1285.57,1285.07 1289.64,1283.25 1293.71,1281.43 1297.79,1279.6 1301.86,1277.77 1305.93,1275.94 1310.01,1274.1 
  1314.08,1272.27 1318.15,1270.43 1322.22,1268.59 1326.3,1266.75 1330.37,1264.91 1334.44,1263.07 1338.52,1261.23 1342.59,1259.39 1346.66,1257.55 1350.74,1255.71 
  1354.81,1253.87 1358.88,1252.04 1362.96,1250.2 1367.03,1248.37 1371.1,1246.53 1375.18,1244.7 1379.25,1242.87 1383.32,1241.04 1387.4,1239.21 1391.47,1237.38 
  1395.54,1235.56 1399.62,1233.73 1403.69,1231.91 1407.76,1230.09 1411.84,1228.27 1415.91,1226.45 1419.98,1224.63 1424.06,1222.82 1428.13,1221 1432.2,1219.19 
  1436.28,1217.39 1440.35,1215.58 1444.42,1213.78 1448.5,1211.98 1452.57,1210.18 1456.64,1208.38 1460.72,1206.59 1464.79,1204.8 1468.86,1203.01 1472.93,1201.23 
  1477.01,1199.45 1481.08,1197.67 1485.15,1195.9 1489.23,1194.12 1493.3,1192.36 1497.37,1190.59 1501.45,1188.83 1505.52,1187.07 1509.59,1185.32 1513.67,1183.57 
  1517.74,1181.82 1521.81,1180.08 1525.89,1178.34 1529.96,1176.6 1534.03,1174.87 1538.11,1173.15 1542.18,1171.42 1546.25,1169.71 1550.33,1167.99 1554.4,1166.28 
  1558.47,1164.58 1562.55,1162.88 1566.62,1161.18 1570.69,1159.49 1574.77,1157.8 1578.84,1156.12 1582.91,1154.44 1586.99,1152.77 1591.06,1151.1 1595.13,1149.44 
  1599.21,1147.78 1603.28,1146.13 1607.35,1144.48 1611.43,1142.83 1615.5,1141.19 1619.57,1139.56 1623.65,1137.93 1627.72,1136.3 1631.79,1134.68 1635.86,1133.07 
  1639.94,1131.46 1644.01,1129.85 1648.08,1128.25 1652.16,1126.65 1656.23,1125.06 1660.3,1123.47 1664.38,1121.89 1668.45,1120.32 1672.52,1118.74 1676.6,1117.18 
  1680.67,1115.61 1684.74,1114.06 1688.82,1112.51 1692.89,1110.96 1696.96,1109.42 1701.04,1107.88 1705.11,1106.35 1709.18,1104.82 1713.26,1103.3 1717.33,1101.78 
  1721.4,1100.27 1725.48,1098.77 1729.55,1097.26 1733.62,1095.77 1737.7,1094.28 1741.77,1092.79 1745.84,1091.31 1749.92,1089.84 1753.99,1088.37 1758.06,1086.9 
  1762.14,1085.44 1766.21,1083.99 1770.28,1082.54 1774.36,1081.09 1778.43,1079.66 1782.5,1078.22 1786.57,1076.8 1790.65,1075.37 1794.72,1073.96 1798.79,1072.54 
  1802.87,1071.14 1806.94,1069.74 1811.01,1068.34 1815.09,1066.95 1819.16,1065.57 1823.23,1064.19 1827.31,1062.81 1831.38,1061.45 1835.45,1060.08 1839.53,1058.72 
  1843.6,1057.37 1847.67,1056.02 1851.75,1054.68 1855.82,1053.35 1859.89,1052.01 1863.97,1050.69 1868.04,1049.37 1872.11,1048.05 1876.19,1046.74 1880.26,1045.44 
  1884.33,1044.14 1888.41,1042.84 1892.48,1041.55 1896.55,1040.27 1900.63,1038.99 1904.7,1037.71 1908.77,1036.45 1912.85,1035.18 1916.92,1033.92 1920.99,1032.67 
  1925.07,1031.42 1929.14,1030.18 1933.21,1028.94 1937.28,1027.71 1941.36,1026.48 1945.43,1025.26 1949.5,1024.04 1953.58,1022.83 1957.65,1021.62 1961.72,1020.42 
  1965.8,1019.22 1969.87,1018.02 1973.94,1016.84 1978.02,1015.65 1982.09,1014.48 1986.16,1013.3 1990.24,1012.14 1994.31,1010.97 1998.38,1009.82 2002.46,1008.66 
  2006.53,1007.52 2010.6,1006.37 2014.68,1005.24 2018.75,1004.1 2022.82,1002.98 2026.9,1001.85 2030.97,1000.73 2035.04,999.62 2039.12,998.512 2043.19,997.409 
  2047.26,996.31 2051.34,995.216 2055.41,994.127 2059.48,993.043 2063.56,991.964 2067.63,990.889 2071.7,989.819 2075.78,988.754 2079.85,987.694 2083.92,986.639 
  2087.99,985.589 2092.07,984.543 2096.14,983.502 2100.21,982.466 2104.29,981.434 2108.36,980.407 2112.43,979.385 2116.51,978.367 2120.58,977.355 2124.65,976.346 
  2128.73,975.342 2132.8,974.343 2136.87,973.349 2140.95,972.359 2145.02,971.373 2149.09,970.392 2153.17,969.416 2157.24,968.444 2161.31,967.476 2165.39,966.513 
  2169.46,965.555 2173.53,964.601 2177.61,963.651 2181.68,962.706 2185.75,961.765 2189.83,960.828 2193.9,959.896 2197.97,958.968 2202.05,958.045 2206.12,957.126 
  2210.19,956.211 2214.27,955.3 2218.34,954.394 2222.41,953.492 2226.49,952.594 2230.56,951.701 2234.63,950.812 2238.71,949.927 2242.78,949.046 2246.85,948.169 
  2250.92,947.297 2255,946.428 2259.07,945.564 2263.14,944.704 2267.22,943.848 2271.29,942.996 2275.36,942.148 2279.44,941.305 2283.51,940.465 2287.58,939.629 
  2291.66,938.798 
  "/>
<path clip-path="url(#clip480)" d="
M1588.2 274.549 L2280.8 274.549 L2280.8 93.1086 L1588.2 93.1086  Z
  " fill="#ffffff" fill-rule="evenodd" fill-opacity="1"/>
<polyline clip-path="url(#clip480)" style="stroke:#000000; stroke-linecap:butt; stroke-linejoin:round; stroke-width:4; stroke-opacity:1; fill:none" points="
  1588.2,274.549 2280.8,274.549 2280.8,93.1086 1588.2,93.1086 1588.2,274.549 
  "/>
<polyline clip-path="url(#clip480)" style="stroke:#009af9; stroke-linecap:butt; stroke-linejoin:round; stroke-width:4; stroke-opacity:1; fill:none" points="
  1612.18,153.589 1756.11,153.589 
  "/>
<path clip-path="url(#clip480)" d="M1800.44 149.92 Q1802.04 147.049 1804.26 145.684 Q1806.48 144.318 1809.49 144.318 Q1813.54 144.318 1815.74 147.165 Q1817.94 149.989 1817.94 155.221 L1817.94 170.869 L1813.66 170.869 L1813.66 155.359 Q1813.66 151.633 1812.34 149.827 Q1811.02 148.022 1808.31 148.022 Q1805 148.022 1803.08 150.221 Q1801.16 152.42 1801.16 156.216 L1801.16 170.869 L1796.87 170.869 L1796.87 155.359 Q1796.87 151.609 1795.56 149.827 Q1794.24 148.022 1791.48 148.022 Q1788.22 148.022 1786.3 150.244 Q1784.37 152.443 1784.37 156.216 L1784.37 170.869 L1780.09 170.869 L1780.09 144.943 L1784.37 144.943 L1784.37 148.971 Q1785.83 146.586 1787.87 145.452 Q1789.91 144.318 1792.71 144.318 Q1795.53 144.318 1797.5 145.753 Q1799.49 147.188 1800.44 149.92 Z" fill="#000000" fill-rule="evenodd" fill-opacity="1" /><path clip-path="url(#clip480)" d="M1838.22 157.836 Q1833.06 157.836 1831.06 159.017 Q1829.07 160.197 1829.07 163.045 Q1829.07 165.313 1830.56 166.656 Q1832.06 167.975 1834.63 167.975 Q1838.17 167.975 1840.3 165.475 Q1842.45 162.952 1842.45 158.785 L1842.45 157.836 L1838.22 157.836 M1846.71 156.077 L1846.71 170.869 L1842.45 170.869 L1842.45 166.933 Q1840.99 169.295 1838.82 170.429 Q1836.64 171.54 1833.49 171.54 Q1829.51 171.54 1827.15 169.318 Q1824.81 167.072 1824.81 163.322 Q1824.81 158.947 1827.73 156.725 Q1830.67 154.503 1836.48 154.503 L1842.45 154.503 L1842.45 154.086 Q1842.45 151.147 1840.51 149.549 Q1838.59 147.929 1835.09 147.929 Q1832.87 147.929 1830.76 148.461 Q1828.66 148.994 1826.71 150.059 L1826.71 146.123 Q1829.05 145.221 1831.25 144.781 Q1833.45 144.318 1835.53 144.318 Q1841.16 144.318 1843.93 147.234 Q1846.71 150.151 1846.71 156.077 Z" fill="#000000" fill-rule="evenodd" fill-opacity="1" /><path clip-path="url(#clip480)" d="M1872.01 145.707 L1872.01 149.734 Q1870.21 148.809 1868.26 148.346 Q1866.32 147.883 1864.24 147.883 Q1861.06 147.883 1859.47 148.855 Q1857.89 149.827 1857.89 151.771 Q1857.89 153.253 1859.03 154.109 Q1860.16 154.943 1863.59 155.707 L1865.05 156.031 Q1869.58 157.003 1871.48 158.785 Q1873.4 160.545 1873.4 163.716 Q1873.4 167.327 1870.53 169.433 Q1867.68 171.54 1862.68 171.54 Q1860.6 171.54 1858.33 171.123 Q1856.09 170.73 1853.59 169.92 L1853.59 165.521 Q1855.95 166.748 1858.24 167.373 Q1860.53 167.975 1862.78 167.975 Q1865.79 167.975 1867.41 166.957 Q1869.03 165.915 1869.03 164.04 Q1869.03 162.304 1867.85 161.378 Q1866.69 160.452 1862.73 159.596 L1861.25 159.248 Q1857.29 158.415 1855.53 156.702 Q1853.77 154.966 1853.77 151.957 Q1853.77 148.299 1856.37 146.309 Q1858.96 144.318 1863.73 144.318 Q1866.09 144.318 1868.17 144.665 Q1870.25 145.012 1872.01 145.707 Z" fill="#000000" fill-rule="evenodd" fill-opacity="1" /><path clip-path="url(#clip480)" d="M1896.71 145.707 L1896.71 149.734 Q1894.91 148.809 1892.96 148.346 Q1891.02 147.883 1888.93 147.883 Q1885.76 147.883 1884.17 148.855 Q1882.59 149.827 1882.59 151.771 Q1882.59 153.253 1883.73 154.109 Q1884.86 154.943 1888.29 155.707 L1889.74 156.031 Q1894.28 157.003 1896.18 158.785 Q1898.1 160.545 1898.1 163.716 Q1898.1 167.327 1895.23 169.433 Q1892.38 171.54 1887.38 171.54 Q1885.3 171.54 1883.03 171.123 Q1880.79 170.73 1878.29 169.92 L1878.29 165.521 Q1880.65 166.748 1882.94 167.373 Q1885.23 167.975 1887.48 167.975 Q1890.49 167.975 1892.11 166.957 Q1893.73 165.915 1893.73 164.04 Q1893.73 162.304 1892.55 161.378 Q1891.39 160.452 1887.43 159.596 L1885.95 159.248 Q1881.99 158.415 1880.23 156.702 Q1878.47 154.966 1878.47 151.957 Q1878.47 148.299 1881.06 146.309 Q1883.66 144.318 1888.43 144.318 Q1890.79 144.318 1892.87 144.665 Q1894.95 145.012 1896.71 145.707 Z" fill="#000000" fill-rule="evenodd" fill-opacity="1" /><path clip-path="url(#clip480)" d="M1905.49 164.989 L1910.37 164.989 L1910.37 170.869 L1905.49 170.869 L1905.49 164.989 Z" fill="#000000" fill-rule="evenodd" fill-opacity="1" /><path clip-path="url(#clip480)" d="M1936.48 145.707 L1936.48 149.734 Q1934.67 148.809 1932.73 148.346 Q1930.79 147.883 1928.7 147.883 Q1925.53 147.883 1923.93 148.855 Q1922.36 149.827 1922.36 151.771 Q1922.36 153.253 1923.49 154.109 Q1924.63 154.943 1928.05 155.707 L1929.51 156.031 Q1934.05 157.003 1935.95 158.785 Q1937.87 160.545 1937.87 163.716 Q1937.87 167.327 1935 169.433 Q1932.15 171.54 1927.15 171.54 Q1925.07 171.54 1922.8 171.123 Q1920.55 170.73 1918.05 169.92 L1918.05 165.521 Q1920.42 166.748 1922.71 167.373 Q1925 167.975 1927.24 167.975 Q1930.25 167.975 1931.87 166.957 Q1933.49 165.915 1933.49 164.04 Q1933.49 162.304 1932.31 161.378 Q1931.16 160.452 1927.2 159.596 L1925.72 159.248 Q1921.76 158.415 1920 156.702 Q1918.24 154.966 1918.24 151.957 Q1918.24 148.299 1920.83 146.309 Q1923.42 144.318 1928.19 144.318 Q1930.55 144.318 1932.64 144.665 Q1934.72 145.012 1936.48 145.707 Z" fill="#000000" fill-rule="evenodd" fill-opacity="1" /><path clip-path="url(#clip480)" d="M1969.95 134.897 Q1966.85 140.221 1965.35 145.429 Q1963.84 150.637 1963.84 155.984 Q1963.84 161.332 1965.35 166.586 Q1966.87 171.818 1969.95 177.119 L1966.25 177.119 Q1962.78 171.679 1961.04 166.424 Q1959.33 161.17 1959.33 155.984 Q1959.33 150.822 1961.04 145.591 Q1962.75 140.36 1966.25 134.897 L1969.95 134.897 Z" fill="#000000" fill-rule="evenodd" fill-opacity="1" /><path clip-path="url(#clip480)" d="M1992.98 152.234 Q1996.34 152.952 1998.22 155.221 Q2000.11 157.489 2000.11 160.822 Q2000.11 165.938 1996.6 168.739 Q1993.08 171.54 1986.6 171.54 Q1984.42 171.54 1982.11 171.1 Q1979.81 170.683 1977.36 169.827 L1977.36 165.313 Q1979.3 166.447 1981.62 167.026 Q1983.93 167.605 1986.46 167.605 Q1990.86 167.605 1993.15 165.869 Q1995.46 164.133 1995.46 160.822 Q1995.46 157.767 1993.31 156.054 Q1991.18 154.318 1987.36 154.318 L1983.33 154.318 L1983.33 150.475 L1987.55 150.475 Q1990.99 150.475 1992.82 149.109 Q1994.65 147.721 1994.65 145.128 Q1994.65 142.466 1992.75 141.054 Q1990.88 139.619 1987.36 139.619 Q1985.44 139.619 1983.24 140.035 Q1981.04 140.452 1978.4 141.332 L1978.4 137.165 Q1981.06 136.424 1983.38 136.054 Q1985.72 135.684 1987.78 135.684 Q1993.1 135.684 1996.2 138.114 Q1999.3 140.522 1999.3 144.642 Q1999.3 147.512 1997.66 149.503 Q1996.02 151.471 1992.98 152.234 Z" fill="#000000" fill-rule="evenodd" fill-opacity="1" /><path clip-path="url(#clip480)" d="M2023.15 152.234 Q2026.5 152.952 2028.38 155.221 Q2030.28 157.489 2030.28 160.822 Q2030.28 165.938 2026.76 168.739 Q2023.24 171.54 2016.76 171.54 Q2014.58 171.54 2012.27 171.1 Q2009.98 170.683 2007.52 169.827 L2007.52 165.313 Q2009.47 166.447 2011.78 167.026 Q2014.1 167.605 2016.62 167.605 Q2021.02 167.605 2023.31 165.869 Q2025.62 164.133 2025.62 160.822 Q2025.62 157.767 2023.47 156.054 Q2021.34 154.318 2017.52 154.318 L2013.49 154.318 L2013.49 150.475 L2017.71 150.475 Q2021.16 150.475 2022.98 149.109 Q2024.81 147.721 2024.81 145.128 Q2024.81 142.466 2022.92 141.054 Q2021.04 139.619 2017.52 139.619 Q2015.6 139.619 2013.4 140.035 Q2011.2 140.452 2008.56 141.332 L2008.56 137.165 Q2011.23 136.424 2013.54 136.054 Q2015.88 135.684 2017.94 135.684 Q2023.26 135.684 2026.36 138.114 Q2029.47 140.522 2029.47 144.642 Q2029.47 147.512 2027.82 149.503 Q2026.18 151.471 2023.15 152.234 Z" fill="#000000" fill-rule="evenodd" fill-opacity="1" /><path clip-path="url(#clip480)" d="M2039.19 136.309 L2057.54 136.309 L2057.54 140.244 L2043.47 140.244 L2043.47 148.716 Q2044.49 148.369 2045.51 148.207 Q2046.53 148.022 2047.54 148.022 Q2053.33 148.022 2056.71 151.193 Q2060.09 154.364 2060.09 159.781 Q2060.09 165.359 2056.62 168.461 Q2053.15 171.54 2046.83 171.54 Q2044.65 171.54 2042.38 171.17 Q2040.14 170.799 2037.73 170.058 L2037.73 165.359 Q2039.81 166.494 2042.04 167.049 Q2044.26 167.605 2046.73 167.605 Q2050.74 167.605 2053.08 165.498 Q2055.42 163.392 2055.42 159.781 Q2055.42 156.17 2053.08 154.063 Q2050.74 151.957 2046.73 151.957 Q2044.86 151.957 2042.98 152.373 Q2041.13 152.79 2039.19 153.67 L2039.19 136.309 Z" fill="#000000" fill-rule="evenodd" fill-opacity="1" /><path clip-path="url(#clip480)" d="M2069.35 136.309 L2087.71 136.309 L2087.71 140.244 L2073.63 140.244 L2073.63 148.716 Q2074.65 148.369 2075.67 148.207 Q2076.69 148.022 2077.71 148.022 Q2083.49 148.022 2086.87 151.193 Q2090.25 154.364 2090.25 159.781 Q2090.25 165.359 2086.78 168.461 Q2083.31 171.54 2076.99 171.54 Q2074.81 171.54 2072.54 171.17 Q2070.3 170.799 2067.89 170.058 L2067.89 165.359 Q2069.98 166.494 2072.2 167.049 Q2074.42 167.605 2076.9 167.605 Q2080.9 167.605 2083.24 165.498 Q2085.58 163.392 2085.58 159.781 Q2085.58 156.17 2083.24 154.063 Q2080.9 151.957 2076.9 151.957 Q2075.02 151.957 2073.15 152.373 Q2071.29 152.79 2069.35 153.67 L2069.35 136.309 Z" fill="#000000" fill-rule="evenodd" fill-opacity="1" /><path clip-path="url(#clip480)" d="M2112.31 140.383 L2100.51 158.832 L2112.31 158.832 L2112.31 140.383 M2111.09 136.309 L2116.97 136.309 L2116.97 158.832 L2121.9 158.832 L2121.9 162.721 L2116.97 162.721 L2116.97 170.869 L2112.31 170.869 L2112.31 162.721 L2096.71 162.721 L2096.71 158.207 L2111.09 136.309 Z" fill="#000000" fill-rule="evenodd" fill-opacity="1" /><path clip-path="url(#clip480)" d="M2142.47 140.383 L2130.67 158.832 L2142.47 158.832 L2142.47 140.383 M2141.25 136.309 L2147.13 136.309 L2147.13 158.832 L2152.06 158.832 L2152.06 162.721 L2147.13 162.721 L2147.13 170.869 L2142.47 170.869 L2142.47 162.721 L2126.87 162.721 L2126.87 158.207 L2141.25 136.309 Z" fill="#000000" fill-rule="evenodd" fill-opacity="1" /><path clip-path="url(#clip480)" d="M2173.96 152.234 Q2177.31 152.952 2179.19 155.221 Q2181.09 157.489 2181.09 160.822 Q2181.09 165.938 2177.57 168.739 Q2174.05 171.54 2167.57 171.54 Q2165.39 171.54 2163.08 171.1 Q2160.78 170.683 2158.33 169.827 L2158.33 165.313 Q2160.28 166.447 2162.59 167.026 Q2164.91 167.605 2167.43 167.605 Q2171.83 167.605 2174.12 165.869 Q2176.43 164.133 2176.43 160.822 Q2176.43 157.767 2174.28 156.054 Q2172.15 154.318 2168.33 154.318 L2164.3 154.318 L2164.3 150.475 L2168.52 150.475 Q2171.97 150.475 2173.79 149.109 Q2175.62 147.721 2175.62 145.128 Q2175.62 142.466 2173.72 141.054 Q2171.85 139.619 2168.33 139.619 Q2166.41 139.619 2164.21 140.035 Q2162.01 140.452 2159.37 141.332 L2159.37 137.165 Q2162.03 136.424 2164.35 136.054 Q2166.69 135.684 2168.75 135.684 Q2174.07 135.684 2177.17 138.114 Q2180.28 140.522 2180.28 144.642 Q2180.28 147.512 2178.63 149.503 Q2176.99 151.471 2173.96 152.234 Z" fill="#000000" fill-rule="evenodd" fill-opacity="1" /><path clip-path="url(#clip480)" d="M2193.98 166.933 L2210.3 166.933 L2210.3 170.869 L2188.35 170.869 L2188.35 166.933 Q2191.02 164.179 2195.6 159.549 Q2200.21 154.896 2201.39 153.554 Q2203.63 151.031 2204.51 149.295 Q2205.41 147.535 2205.41 145.846 Q2205.41 143.091 2203.47 141.355 Q2201.55 139.619 2198.45 139.619 Q2196.25 139.619 2193.79 140.383 Q2191.36 141.147 2188.59 142.697 L2188.59 137.975 Q2191.41 136.841 2193.86 136.262 Q2196.32 135.684 2198.35 135.684 Q2203.72 135.684 2206.92 138.369 Q2210.11 141.054 2210.11 145.545 Q2210.11 147.674 2209.3 149.596 Q2208.52 151.494 2206.41 154.086 Q2205.83 154.758 2202.73 157.975 Q2199.63 161.17 2193.98 166.933 Z" fill="#000000" fill-rule="evenodd" fill-opacity="1" /><path clip-path="url(#clip480)" d="M2218.84 134.897 L2222.54 134.897 Q2226.02 140.36 2227.73 145.591 Q2229.47 150.822 2229.47 155.984 Q2229.47 161.17 2227.73 166.424 Q2226.02 171.679 2222.54 177.119 L2218.84 177.119 Q2221.92 171.818 2223.42 166.586 Q2224.95 161.332 2224.95 155.984 Q2224.95 150.637 2223.42 145.429 Q2221.92 140.221 2218.84 134.897 Z" fill="#000000" fill-rule="evenodd" fill-opacity="1" /><polyline clip-path="url(#clip480)" style="stroke:#e26f46; stroke-linecap:butt; stroke-linejoin:round; stroke-width:4; stroke-opacity:1; fill:none" points="
  1612.18,214.069 1756.11,214.069 
  "/>
<path clip-path="url(#clip480)" d="M1800.44 210.4 Q1802.04 207.529 1804.26 206.164 Q1806.48 204.798 1809.49 204.798 Q1813.54 204.798 1815.74 207.645 Q1817.94 210.469 1817.94 215.701 L1817.94 231.349 L1813.66 231.349 L1813.66 215.839 Q1813.66 212.113 1812.34 210.307 Q1811.02 208.502 1808.31 208.502 Q1805 208.502 1803.08 210.701 Q1801.16 212.9 1801.16 216.696 L1801.16 231.349 L1796.87 231.349 L1796.87 215.839 Q1796.87 212.089 1795.56 210.307 Q1794.24 208.502 1791.48 208.502 Q1788.22 208.502 1786.3 210.724 Q1784.37 212.923 1784.37 216.696 L1784.37 231.349 L1780.09 231.349 L1780.09 205.423 L1784.37 205.423 L1784.37 209.451 Q1785.83 207.066 1787.87 205.932 Q1789.91 204.798 1792.71 204.798 Q1795.53 204.798 1797.5 206.233 Q1799.49 207.668 1800.44 210.4 Z" fill="#000000" fill-rule="evenodd" fill-opacity="1" /><path clip-path="url(#clip480)" d="M1838.22 218.316 Q1833.06 218.316 1831.06 219.497 Q1829.07 220.677 1829.07 223.525 Q1829.07 225.793 1830.56 227.136 Q1832.06 228.455 1834.63 228.455 Q1838.17 228.455 1840.3 225.955 Q1842.45 223.432 1842.45 219.265 L1842.45 218.316 L1838.22 218.316 M1846.71 216.557 L1846.71 231.349 L1842.45 231.349 L1842.45 227.413 Q1840.99 229.775 1838.82 230.909 Q1836.64 232.02 1833.49 232.02 Q1829.51 232.02 1827.15 229.798 Q1824.81 227.552 1824.81 223.802 Q1824.81 219.427 1827.73 217.205 Q1830.67 214.983 1836.48 214.983 L1842.45 214.983 L1842.45 214.566 Q1842.45 211.627 1840.51 210.029 Q1838.59 208.409 1835.09 208.409 Q1832.87 208.409 1830.76 208.941 Q1828.66 209.474 1826.71 210.539 L1826.71 206.603 Q1829.05 205.701 1831.25 205.261 Q1833.45 204.798 1835.53 204.798 Q1841.16 204.798 1843.93 207.714 Q1846.71 210.631 1846.71 216.557 Z" fill="#000000" fill-rule="evenodd" fill-opacity="1" /><path clip-path="url(#clip480)" d="M1872.01 206.187 L1872.01 210.214 Q1870.21 209.289 1868.26 208.826 Q1866.32 208.363 1864.24 208.363 Q1861.06 208.363 1859.47 209.335 Q1857.89 210.307 1857.89 212.251 Q1857.89 213.733 1859.03 214.589 Q1860.16 215.423 1863.59 216.187 L1865.05 216.511 Q1869.58 217.483 1871.48 219.265 Q1873.4 221.025 1873.4 224.196 Q1873.4 227.807 1870.53 229.913 Q1867.68 232.02 1862.68 232.02 Q1860.6 232.02 1858.33 231.603 Q1856.09 231.21 1853.59 230.4 L1853.59 226.001 Q1855.95 227.228 1858.24 227.853 Q1860.53 228.455 1862.78 228.455 Q1865.79 228.455 1867.41 227.437 Q1869.03 226.395 1869.03 224.52 Q1869.03 222.784 1867.85 221.858 Q1866.69 220.932 1862.73 220.076 L1861.25 219.728 Q1857.29 218.895 1855.53 217.182 Q1853.77 215.446 1853.77 212.437 Q1853.77 208.779 1856.37 206.789 Q1858.96 204.798 1863.73 204.798 Q1866.09 204.798 1868.17 205.145 Q1870.25 205.492 1872.01 206.187 Z" fill="#000000" fill-rule="evenodd" fill-opacity="1" /><path clip-path="url(#clip480)" d="M1896.71 206.187 L1896.71 210.214 Q1894.91 209.289 1892.96 208.826 Q1891.02 208.363 1888.93 208.363 Q1885.76 208.363 1884.17 209.335 Q1882.59 210.307 1882.59 212.251 Q1882.59 213.733 1883.73 214.589 Q1884.86 215.423 1888.29 216.187 L1889.74 216.511 Q1894.28 217.483 1896.18 219.265 Q1898.1 221.025 1898.1 224.196 Q1898.1 227.807 1895.23 229.913 Q1892.38 232.02 1887.38 232.02 Q1885.3 232.02 1883.03 231.603 Q1880.79 231.21 1878.29 230.4 L1878.29 226.001 Q1880.65 227.228 1882.94 227.853 Q1885.23 228.455 1887.48 228.455 Q1890.49 228.455 1892.11 227.437 Q1893.73 226.395 1893.73 224.52 Q1893.73 222.784 1892.55 221.858 Q1891.39 220.932 1887.43 220.076 L1885.95 219.728 Q1881.99 218.895 1880.23 217.182 Q1878.47 215.446 1878.47 212.437 Q1878.47 208.779 1881.06 206.789 Q1883.66 204.798 1888.43 204.798 Q1890.79 204.798 1892.87 205.145 Q1894.95 205.492 1896.71 206.187 Z" fill="#000000" fill-rule="evenodd" fill-opacity="1" /><path clip-path="url(#clip480)" d="M1905.49 225.469 L1910.37 225.469 L1910.37 231.349 L1905.49 231.349 L1905.49 225.469 Z" fill="#000000" fill-rule="evenodd" fill-opacity="1" /><path clip-path="url(#clip480)" d="M1916.9 205.423 L1921.41 205.423 L1929.51 227.182 L1937.61 205.423 L1942.13 205.423 L1932.41 231.349 L1926.62 231.349 L1916.9 205.423 Z" fill="#000000" fill-rule="evenodd" fill-opacity="1" /><path clip-path="url(#clip480)" d="M1973.31 195.377 Q1970.21 200.701 1968.7 205.909 Q1967.2 211.117 1967.2 216.464 Q1967.2 221.812 1968.7 227.066 Q1970.23 232.298 1973.31 237.599 L1969.61 237.599 Q1966.13 232.159 1964.4 226.904 Q1962.68 221.65 1962.68 216.464 Q1962.68 211.302 1964.4 206.071 Q1966.11 200.84 1969.61 195.377 L1973.31 195.377 Z" fill="#000000" fill-rule="evenodd" fill-opacity="1" /><path clip-path="url(#clip480)" d="M1996.34 212.714 Q1999.7 213.432 2001.57 215.701 Q2003.47 217.969 2003.47 221.302 Q2003.47 226.418 1999.95 229.219 Q1996.43 232.02 1989.95 232.02 Q1987.78 232.02 1985.46 231.58 Q1983.17 231.163 1980.72 230.307 L1980.72 225.793 Q1982.66 226.927 1984.98 227.506 Q1987.29 228.085 1989.81 228.085 Q1994.21 228.085 1996.5 226.349 Q1998.82 224.613 1998.82 221.302 Q1998.82 218.247 1996.67 216.534 Q1994.54 214.798 1990.72 214.798 L1986.69 214.798 L1986.69 210.955 L1990.9 210.955 Q1994.35 210.955 1996.18 209.589 Q1998.01 208.201 1998.01 205.608 Q1998.01 202.946 1996.11 201.534 Q1994.23 200.099 1990.72 200.099 Q1988.79 200.099 1986.6 200.515 Q1984.4 200.932 1981.76 201.812 L1981.76 197.645 Q1984.42 196.904 1986.73 196.534 Q1989.07 196.164 1991.13 196.164 Q1996.46 196.164 1999.56 198.594 Q2002.66 201.002 2002.66 205.122 Q2002.66 207.992 2001.02 209.983 Q1999.37 211.951 1996.34 212.714 Z" fill="#000000" fill-rule="evenodd" fill-opacity="1" /><path clip-path="url(#clip480)" d="M2026.5 212.714 Q2029.86 213.432 2031.73 215.701 Q2033.63 217.969 2033.63 221.302 Q2033.63 226.418 2030.11 229.219 Q2026.6 232.02 2020.11 232.02 Q2017.94 232.02 2015.62 231.58 Q2013.33 231.163 2010.88 230.307 L2010.88 225.793 Q2012.82 226.927 2015.14 227.506 Q2017.45 228.085 2019.98 228.085 Q2024.37 228.085 2026.67 226.349 Q2028.98 224.613 2028.98 221.302 Q2028.98 218.247 2026.83 216.534 Q2024.7 214.798 2020.88 214.798 L2016.85 214.798 L2016.85 210.955 L2021.06 210.955 Q2024.51 210.955 2026.34 209.589 Q2028.17 208.201 2028.17 205.608 Q2028.17 202.946 2026.27 201.534 Q2024.4 200.099 2020.88 200.099 Q2018.96 200.099 2016.76 200.515 Q2014.56 200.932 2011.92 201.812 L2011.92 197.645 Q2014.58 196.904 2016.9 196.534 Q2019.23 196.164 2021.29 196.164 Q2026.62 196.164 2029.72 198.594 Q2032.82 201.002 2032.82 205.122 Q2032.82 207.992 2031.18 209.983 Q2029.54 211.951 2026.5 212.714 Z" fill="#000000" fill-rule="evenodd" fill-opacity="1" /><path clip-path="url(#clip480)" d="M2042.54 196.789 L2060.9 196.789 L2060.9 200.724 L2046.83 200.724 L2046.83 209.196 Q2047.85 208.849 2048.86 208.687 Q2049.88 208.502 2050.9 208.502 Q2056.69 208.502 2060.07 211.673 Q2063.45 214.844 2063.45 220.261 Q2063.45 225.839 2059.98 228.941 Q2056.5 232.02 2050.18 232.02 Q2048.01 232.02 2045.74 231.65 Q2043.49 231.279 2041.09 230.538 L2041.09 225.839 Q2043.17 226.974 2045.39 227.529 Q2047.61 228.085 2050.09 228.085 Q2054.1 228.085 2056.43 225.978 Q2058.77 223.872 2058.77 220.261 Q2058.77 216.65 2056.43 214.543 Q2054.1 212.437 2050.09 212.437 Q2048.22 212.437 2046.34 212.853 Q2044.49 213.27 2042.54 214.15 L2042.54 196.789 Z" fill="#000000" fill-rule="evenodd" fill-opacity="1" /><path clip-path="url(#clip480)" d="M2072.71 196.789 L2091.06 196.789 L2091.06 200.724 L2076.99 200.724 L2076.99 209.196 Q2078.01 208.849 2079.03 208.687 Q2080.04 208.502 2081.06 208.502 Q2086.85 208.502 2090.23 211.673 Q2093.61 214.844 2093.61 220.261 Q2093.61 225.839 2090.14 228.941 Q2086.66 232.02 2080.35 232.02 Q2078.17 232.02 2075.9 231.65 Q2073.66 231.279 2071.25 230.538 L2071.25 225.839 Q2073.33 226.974 2075.55 227.529 Q2077.78 228.085 2080.25 228.085 Q2084.26 228.085 2086.6 225.978 Q2088.93 223.872 2088.93 220.261 Q2088.93 216.65 2086.6 214.543 Q2084.26 212.437 2080.25 212.437 Q2078.38 212.437 2076.5 212.853 Q2074.65 213.27 2072.71 214.15 L2072.71 196.789 Z" fill="#000000" fill-rule="evenodd" fill-opacity="1" /><path clip-path="url(#clip480)" d="M2115.67 200.863 L2103.86 219.312 L2115.67 219.312 L2115.67 200.863 M2114.44 196.789 L2120.32 196.789 L2120.32 219.312 L2125.25 219.312 L2125.25 223.201 L2120.32 223.201 L2120.32 231.349 L2115.67 231.349 L2115.67 223.201 L2100.07 223.201 L2100.07 218.687 L2114.44 196.789 Z" fill="#000000" fill-rule="evenodd" fill-opacity="1" /><path clip-path="url(#clip480)" d="M2145.83 200.863 L2134.03 219.312 L2145.83 219.312 L2145.83 200.863 M2144.6 196.789 L2150.48 196.789 L2150.48 219.312 L2155.41 219.312 L2155.41 223.201 L2150.48 223.201 L2150.48 231.349 L2145.83 231.349 L2145.83 223.201 L2130.23 223.201 L2130.23 218.687 L2144.6 196.789 Z" fill="#000000" fill-rule="evenodd" fill-opacity="1" /><path clip-path="url(#clip480)" d="M2177.31 212.714 Q2180.67 213.432 2182.54 215.701 Q2184.44 217.969 2184.44 221.302 Q2184.44 226.418 2180.92 229.219 Q2177.41 232.02 2170.92 232.02 Q2168.75 232.02 2166.43 231.58 Q2164.14 231.163 2161.69 230.307 L2161.69 225.793 Q2163.63 226.927 2165.95 227.506 Q2168.26 228.085 2170.78 228.085 Q2175.18 228.085 2177.47 226.349 Q2179.79 224.613 2179.79 221.302 Q2179.79 218.247 2177.64 216.534 Q2175.51 214.798 2171.69 214.798 L2167.66 214.798 L2167.66 210.955 L2171.87 210.955 Q2175.32 210.955 2177.15 209.589 Q2178.98 208.201 2178.98 205.608 Q2178.98 202.946 2177.08 201.534 Q2175.21 200.099 2171.69 200.099 Q2169.77 200.099 2167.57 200.515 Q2165.37 200.932 2162.73 201.812 L2162.73 197.645 Q2165.39 196.904 2167.71 196.534 Q2170.04 196.164 2172.1 196.164 Q2177.43 196.164 2180.53 198.594 Q2183.63 201.002 2183.63 205.122 Q2183.63 207.992 2181.99 209.983 Q2180.34 211.951 2177.31 212.714 Z" fill="#000000" fill-rule="evenodd" fill-opacity="1" /><path clip-path="url(#clip480)" d="M2207.47 212.714 Q2210.83 213.432 2212.71 215.701 Q2214.6 217.969 2214.6 221.302 Q2214.6 226.418 2211.09 229.219 Q2207.57 232.02 2201.09 232.02 Q2198.91 232.02 2196.59 231.58 Q2194.3 231.163 2191.85 230.307 L2191.85 225.793 Q2193.79 226.927 2196.11 227.506 Q2198.42 228.085 2200.95 228.085 Q2205.34 228.085 2207.64 226.349 Q2209.95 224.613 2209.95 221.302 Q2209.95 218.247 2207.8 216.534 Q2205.67 214.798 2201.85 214.798 L2197.82 214.798 L2197.82 210.955 L2202.03 210.955 Q2205.48 210.955 2207.31 209.589 Q2209.14 208.201 2209.14 205.608 Q2209.14 202.946 2207.24 201.534 Q2205.37 200.099 2201.85 200.099 Q2199.93 200.099 2197.73 200.515 Q2195.53 200.932 2192.89 201.812 L2192.89 197.645 Q2195.55 196.904 2197.87 196.534 Q2200.21 196.164 2202.27 196.164 Q2207.59 196.164 2210.69 198.594 Q2213.79 201.002 2213.79 205.122 Q2213.79 207.992 2212.15 209.983 Q2210.51 211.951 2207.47 212.714 Z" fill="#000000" fill-rule="evenodd" fill-opacity="1" /><path clip-path="url(#clip480)" d="M2222.2 195.377 L2225.9 195.377 Q2229.37 200.84 2231.09 206.071 Q2232.82 211.302 2232.82 216.464 Q2232.82 221.65 2231.09 226.904 Q2229.37 232.159 2225.9 237.599 L2222.2 237.599 Q2225.28 232.298 2226.78 227.066 Q2228.31 221.812 2228.31 216.464 Q2228.31 211.117 2226.78 205.909 Q2225.28 200.701 2222.2 195.377 Z" fill="#000000" fill-rule="evenodd" fill-opacity="1" /></svg>
