<?xml version="1.0" encoding="utf-8"?>
<svg xmlns="http://www.w3.org/2000/svg" xmlns:xlink="http://www.w3.org/1999/xlink" width="600" height="400" viewBox="0 0 2400 1600">
<defs>
  <clipPath id="clip990">
    <rect x="0" y="0" width="2400" height="1600"/>
  </clipPath>
</defs>
<path clip-path="url(#clip990)" d="
M0 1600 L2400 1600 L2400 0 L0 0  Z
  " fill="#ffffff" fill-rule="evenodd" fill-opacity="1"/>
<defs>
  <clipPath id="clip991">
    <rect x="480" y="0" width="1681" height="1600"/>
  </clipPath>
</defs>
<path clip-path="url(#clip990)" d="
M193.936 1423.18 L2352.76 1423.18 L2352.76 47.2441 L193.936 47.2441  Z
  " fill="#ffffff" fill-rule="evenodd" fill-opacity="1"/>
<defs>
  <clipPath id="clip992">
    <rect x="193" y="47" width="2160" height="1377"/>
  </clipPath>
</defs>
<polyline clip-path="url(#clip992)" style="stroke:#000000; stroke-linecap:butt; stroke-linejoin:round; stroke-width:2; stroke-opacity:0.1; fill:none" points="
  255.035,1423.18 255.035,47.2441 
  "/>
<polyline clip-path="url(#clip992)" style="stroke:#000000; stroke-linecap:butt; stroke-linejoin:round; stroke-width:2; stroke-opacity:0.1; fill:none" points="
  662.359,1423.18 662.359,47.2441 
  "/>
<polyline clip-path="url(#clip992)" style="stroke:#000000; stroke-linecap:butt; stroke-linejoin:round; stroke-width:2; stroke-opacity:0.1; fill:none" points="
  1069.68,1423.18 1069.68,47.2441 
  "/>
<polyline clip-path="url(#clip992)" style="stroke:#000000; stroke-linecap:butt; stroke-linejoin:round; stroke-width:2; stroke-opacity:0.1; fill:none" points="
  1477.01,1423.18 1477.01,47.2441 
  "/>
<polyline clip-path="url(#clip992)" style="stroke:#000000; stroke-linecap:butt; stroke-linejoin:round; stroke-width:2; stroke-opacity:0.1; fill:none" points="
  1884.33,1423.18 1884.33,47.2441 
  "/>
<polyline clip-path="url(#clip992)" style="stroke:#000000; stroke-linecap:butt; stroke-linejoin:round; stroke-width:2; stroke-opacity:0.1; fill:none" points="
  2291.66,1423.18 2291.66,47.2441 
  "/>
<polyline clip-path="url(#clip990)" style="stroke:#000000; stroke-linecap:butt; stroke-linejoin:round; stroke-width:4; stroke-opacity:1; fill:none" points="
  193.936,1423.18 2352.76,1423.18 
  "/>
<polyline clip-path="url(#clip990)" style="stroke:#000000; stroke-linecap:butt; stroke-linejoin:round; stroke-width:4; stroke-opacity:1; fill:none" points="
  255.035,1423.18 255.035,1406.67 
  "/>
<polyline clip-path="url(#clip990)" style="stroke:#000000; stroke-linecap:butt; stroke-linejoin:round; stroke-width:4; stroke-opacity:1; fill:none" points="
  662.359,1423.18 662.359,1406.67 
  "/>
<polyline clip-path="url(#clip990)" style="stroke:#000000; stroke-linecap:butt; stroke-linejoin:round; stroke-width:4; stroke-opacity:1; fill:none" points="
  1069.68,1423.18 1069.68,1406.67 
  "/>
<polyline clip-path="url(#clip990)" style="stroke:#000000; stroke-linecap:butt; stroke-linejoin:round; stroke-width:4; stroke-opacity:1; fill:none" points="
  1477.01,1423.18 1477.01,1406.67 
  "/>
<polyline clip-path="url(#clip990)" style="stroke:#000000; stroke-linecap:butt; stroke-linejoin:round; stroke-width:4; stroke-opacity:1; fill:none" points="
  1884.33,1423.18 1884.33,1406.67 
  "/>
<polyline clip-path="url(#clip990)" style="stroke:#000000; stroke-linecap:butt; stroke-linejoin:round; stroke-width:4; stroke-opacity:1; fill:none" points="
  2291.66,1423.18 2291.66,1406.67 
  "/>
<path clip-path="url(#clip990)" d="M255.035 1452.37 Q251.424 1452.37 249.595 1455.94 Q247.789 1459.48 247.789 1466.61 Q247.789 1473.71 249.595 1477.28 Q251.424 1480.82 255.035 1480.82 Q258.669 1480.82 260.474 1477.28 Q262.303 1473.71 262.303 1466.61 Q262.303 1459.48 260.474 1455.94 Q258.669 1452.37 255.035 1452.37 M255.035 1448.67 Q260.845 1448.67 263.9 1453.27 Q266.979 1457.86 266.979 1466.61 Q266.979 1475.33 263.9 1479.94 Q260.845 1484.52 255.035 1484.52 Q249.225 1484.52 246.146 1479.94 Q243.09 1475.33 243.09 1466.61 Q243.09 1457.86 246.146 1453.27 Q249.225 1448.67 255.035 1448.67 Z" fill="#000000" fill-rule="evenodd" fill-opacity="1" /><path clip-path="url(#clip990)" d="M652.741 1479.92 L660.38 1479.92 L660.38 1453.55 L652.07 1455.22 L652.07 1450.96 L660.334 1449.29 L665.01 1449.29 L665.01 1479.92 L672.648 1479.92 L672.648 1483.85 L652.741 1483.85 L652.741 1479.92 Z" fill="#000000" fill-rule="evenodd" fill-opacity="1" /><path clip-path="url(#clip990)" d="M1064.34 1479.92 L1080.66 1479.92 L1080.66 1483.85 L1058.71 1483.85 L1058.71 1479.92 Q1061.37 1477.16 1065.96 1472.53 Q1070.56 1467.88 1071.74 1466.54 Q1073.99 1464.01 1074.87 1462.28 Q1075.77 1460.52 1075.77 1458.83 Q1075.77 1456.07 1073.83 1454.34 Q1071.91 1452.6 1068.8 1452.6 Q1066.61 1452.6 1064.15 1453.37 Q1061.72 1454.13 1058.94 1455.68 L1058.94 1450.96 Q1061.77 1449.82 1064.22 1449.25 Q1066.67 1448.67 1068.71 1448.67 Q1074.08 1448.67 1077.28 1451.35 Q1080.47 1454.04 1080.47 1458.53 Q1080.47 1460.66 1079.66 1462.58 Q1078.87 1464.48 1076.77 1467.07 Q1076.19 1467.74 1073.09 1470.96 Q1069.98 1474.15 1064.34 1479.92 Z" fill="#000000" fill-rule="evenodd" fill-opacity="1" /><path clip-path="url(#clip990)" d="M1481.26 1465.22 Q1484.61 1465.94 1486.49 1468.2 Q1488.39 1470.47 1488.39 1473.81 Q1488.39 1478.92 1484.87 1481.72 Q1481.35 1484.52 1474.87 1484.52 Q1472.69 1484.52 1470.38 1484.08 Q1468.08 1483.67 1465.63 1482.81 L1465.63 1478.3 Q1467.58 1479.43 1469.89 1480.01 Q1472.2 1480.59 1474.73 1480.59 Q1479.13 1480.59 1481.42 1478.85 Q1483.73 1477.12 1483.73 1473.81 Q1483.73 1470.75 1481.58 1469.04 Q1479.45 1467.3 1475.63 1467.3 L1471.6 1467.3 L1471.6 1463.46 L1475.82 1463.46 Q1479.27 1463.46 1481.09 1462.09 Q1482.92 1460.7 1482.92 1458.11 Q1482.92 1455.45 1481.02 1454.04 Q1479.15 1452.6 1475.63 1452.6 Q1473.71 1452.6 1471.51 1453.02 Q1469.31 1453.44 1466.67 1454.31 L1466.67 1450.15 Q1469.33 1449.41 1471.65 1449.04 Q1473.99 1448.67 1476.05 1448.67 Q1481.37 1448.67 1484.47 1451.1 Q1487.58 1453.5 1487.58 1457.63 Q1487.58 1460.5 1485.93 1462.49 Q1484.29 1464.45 1481.26 1465.22 Z" fill="#000000" fill-rule="evenodd" fill-opacity="1" /><path clip-path="url(#clip990)" d="M1887.34 1453.37 L1875.54 1471.81 L1887.34 1471.81 L1887.34 1453.37 M1886.12 1449.29 L1891.99 1449.29 L1891.99 1471.81 L1896.93 1471.81 L1896.93 1475.7 L1891.99 1475.7 L1891.99 1483.85 L1887.34 1483.85 L1887.34 1475.7 L1871.74 1475.7 L1871.74 1471.19 L1886.12 1449.29 Z" fill="#000000" fill-rule="evenodd" fill-opacity="1" /><path clip-path="url(#clip990)" d="M2281.94 1449.29 L2300.29 1449.29 L2300.29 1453.23 L2286.22 1453.23 L2286.22 1461.7 Q2287.24 1461.35 2288.25 1461.19 Q2289.27 1461 2290.29 1461 Q2296.08 1461 2299.46 1464.18 Q2302.84 1467.35 2302.84 1472.76 Q2302.84 1478.34 2299.37 1481.44 Q2295.89 1484.52 2289.57 1484.52 Q2287.4 1484.52 2285.13 1484.15 Q2282.88 1483.78 2280.48 1483.04 L2280.48 1478.34 Q2282.56 1479.48 2284.78 1480.03 Q2287 1480.59 2289.48 1480.59 Q2293.49 1480.59 2295.82 1478.48 Q2298.16 1476.38 2298.16 1472.76 Q2298.16 1469.15 2295.82 1467.05 Q2293.49 1464.94 2289.48 1464.94 Q2287.61 1464.94 2285.73 1465.36 Q2283.88 1465.77 2281.94 1466.65 L2281.94 1449.29 Z" fill="#000000" fill-rule="evenodd" fill-opacity="1" /><path clip-path="url(#clip990)" d="M1221.66 1522.27 L1221.66 1532.4 L1233.72 1532.4 L1233.72 1536.95 L1221.66 1536.95 L1221.66 1556.3 Q1221.66 1560.66 1222.83 1561.9 Q1224.04 1563.14 1227.7 1563.14 L1233.72 1563.14 L1233.72 1568.04 L1227.7 1568.04 Q1220.92 1568.04 1218.35 1565.53 Q1215.77 1562.98 1215.77 1556.3 L1215.77 1536.95 L1211.47 1536.95 L1211.47 1532.4 L1215.77 1532.4 L1215.77 1522.27 L1221.66 1522.27 Z" fill="#000000" fill-rule="evenodd" fill-opacity="1" /><path clip-path="url(#clip990)" d="M1261.6 1518.52 L1275.1 1518.52 L1275.1 1523.07 L1267.46 1523.07 L1267.46 1572.09 L1275.1 1572.09 L1275.1 1576.64 L1261.6 1576.64 L1261.6 1518.52 Z" fill="#000000" fill-rule="evenodd" fill-opacity="1" /><path clip-path="url(#clip990)" d="M1310.3 1533.45 L1310.3 1538.98 Q1307.82 1537.71 1305.14 1537.07 Q1302.47 1536.44 1299.6 1536.44 Q1295.24 1536.44 1293.05 1537.77 Q1290.88 1539.11 1290.88 1541.79 Q1290.88 1543.82 1292.44 1545 Q1294 1546.15 1298.71 1547.2 L1300.72 1547.64 Q1306.96 1548.98 1309.57 1551.43 Q1312.21 1553.85 1312.21 1558.21 Q1312.21 1563.17 1308.26 1566.07 Q1304.35 1568.97 1297.47 1568.97 Q1294.61 1568.97 1291.49 1568.39 Q1288.4 1567.85 1284.96 1566.74 L1284.96 1560.69 Q1288.21 1562.38 1291.36 1563.24 Q1294.51 1564.07 1297.6 1564.07 Q1301.74 1564.07 1303.97 1562.66 Q1306.19 1561.23 1306.19 1558.65 Q1306.19 1556.27 1304.57 1554.99 Q1302.98 1553.72 1297.54 1552.54 L1295.5 1552.07 Q1290.06 1550.92 1287.64 1548.56 Q1285.22 1546.18 1285.22 1542.04 Q1285.22 1537.01 1288.78 1534.27 Q1292.35 1531.54 1298.9 1531.54 Q1302.15 1531.54 1305.02 1532.01 Q1307.88 1532.49 1310.3 1533.45 Z" fill="#000000" fill-rule="evenodd" fill-opacity="1" /><path clip-path="url(#clip990)" d="M1335.22 1518.52 L1335.22 1576.64 L1321.73 1576.64 L1321.73 1572.09 L1329.33 1572.09 L1329.33 1523.07 L1321.73 1523.07 L1321.73 1518.52 L1335.22 1518.52 Z" fill="#000000" fill-rule="evenodd" fill-opacity="1" /><polyline clip-path="url(#clip992)" style="stroke:#000000; stroke-linecap:butt; stroke-linejoin:round; stroke-width:2; stroke-opacity:0.1; fill:none" points="
  193.936,1276.04 2352.76,1276.04 
  "/>
<polyline clip-path="url(#clip992)" style="stroke:#000000; stroke-linecap:butt; stroke-linejoin:round; stroke-width:2; stroke-opacity:0.1; fill:none" points="
  193.936,1005.61 2352.76,1005.61 
  "/>
<polyline clip-path="url(#clip992)" style="stroke:#000000; stroke-linecap:butt; stroke-linejoin:round; stroke-width:2; stroke-opacity:0.1; fill:none" points="
  193.936,735.195 2352.76,735.195 
  "/>
<polyline clip-path="url(#clip992)" style="stroke:#000000; stroke-linecap:butt; stroke-linejoin:round; stroke-width:2; stroke-opacity:0.1; fill:none" points="
  193.936,464.774 2352.76,464.774 
  "/>
<polyline clip-path="url(#clip992)" style="stroke:#000000; stroke-linecap:butt; stroke-linejoin:round; stroke-width:2; stroke-opacity:0.1; fill:none" points="
  193.936,194.354 2352.76,194.354 
  "/>
<polyline clip-path="url(#clip990)" style="stroke:#000000; stroke-linecap:butt; stroke-linejoin:round; stroke-width:4; stroke-opacity:1; fill:none" points="
  193.936,1423.18 193.936,47.2441 
  "/>
<polyline clip-path="url(#clip990)" style="stroke:#000000; stroke-linecap:butt; stroke-linejoin:round; stroke-width:4; stroke-opacity:1; fill:none" points="
  193.936,1276.04 219.842,1276.04 
  "/>
<polyline clip-path="url(#clip990)" style="stroke:#000000; stroke-linecap:butt; stroke-linejoin:round; stroke-width:4; stroke-opacity:1; fill:none" points="
  193.936,1005.61 219.842,1005.61 
  "/>
<polyline clip-path="url(#clip990)" style="stroke:#000000; stroke-linecap:butt; stroke-linejoin:round; stroke-width:4; stroke-opacity:1; fill:none" points="
  193.936,735.195 219.842,735.195 
  "/>
<polyline clip-path="url(#clip990)" style="stroke:#000000; stroke-linecap:butt; stroke-linejoin:round; stroke-width:4; stroke-opacity:1; fill:none" points="
  193.936,464.774 219.842,464.774 
  "/>
<polyline clip-path="url(#clip990)" style="stroke:#000000; stroke-linecap:butt; stroke-linejoin:round; stroke-width:4; stroke-opacity:1; fill:none" points="
  193.936,194.354 219.842,194.354 
  "/>
<path clip-path="url(#clip990)" d="M50.9921 1276.49 L80.6679 1276.49 L80.6679 1280.42 L50.9921 1280.42 L50.9921 1276.49 Z" fill="#000000" fill-rule="evenodd" fill-opacity="1" /><path clip-path="url(#clip990)" d="M90.8067 1258.76 L109.163 1258.76 L109.163 1262.69 L95.0891 1262.69 L95.0891 1271.16 Q96.1076 1270.82 97.1261 1270.65 Q98.1447 1270.47 99.1632 1270.47 Q104.95 1270.47 108.33 1273.64 Q111.709 1276.81 111.709 1282.23 Q111.709 1287.81 108.237 1290.91 Q104.765 1293.99 98.4456 1293.99 Q96.2697 1293.99 94.0012 1293.62 Q91.7558 1293.25 89.3484 1292.51 L89.3484 1287.81 Q91.4317 1288.94 93.6539 1289.5 Q95.8761 1290.05 98.353 1290.05 Q102.358 1290.05 104.696 1287.94 Q107.033 1285.84 107.033 1282.23 Q107.033 1278.62 104.696 1276.51 Q102.358 1274.4 98.353 1274.4 Q96.478 1274.4 94.603 1274.82 Q92.7512 1275.24 90.8067 1276.12 L90.8067 1258.76 Z" fill="#000000" fill-rule="evenodd" fill-opacity="1" /><path clip-path="url(#clip990)" d="M120.922 1287.44 L125.807 1287.44 L125.807 1293.32 L120.922 1293.32 L120.922 1287.44 Z" fill="#000000" fill-rule="evenodd" fill-opacity="1" /><path clip-path="url(#clip990)" d="M145.992 1261.83 Q142.381 1261.83 140.552 1265.4 Q138.746 1268.94 138.746 1276.07 Q138.746 1283.18 140.552 1286.74 Q142.381 1290.28 145.992 1290.28 Q149.626 1290.28 151.431 1286.74 Q153.26 1283.18 153.26 1276.07 Q153.26 1268.94 151.431 1265.4 Q149.626 1261.83 145.992 1261.83 M145.992 1258.13 Q151.802 1258.13 154.857 1262.74 Q157.936 1267.32 157.936 1276.07 Q157.936 1284.8 154.857 1289.4 Q151.802 1293.99 145.992 1293.99 Q140.181 1293.99 137.103 1289.4 Q134.047 1284.8 134.047 1276.07 Q134.047 1267.32 137.103 1262.74 Q140.181 1258.13 145.992 1258.13 Z" fill="#000000" fill-rule="evenodd" fill-opacity="1" /><path clip-path="url(#clip990)" d="M51.9875 1006.07 L81.6633 1006.07 L81.6633 1010 L51.9875 1010 L51.9875 1006.07 Z" fill="#000000" fill-rule="evenodd" fill-opacity="1" /><path clip-path="url(#clip990)" d="M95.7836 1018.96 L112.103 1018.96 L112.103 1022.89 L90.1586 1022.89 L90.1586 1018.96 Q92.8206 1016.21 97.4039 1011.58 Q102.01 1006.92 103.191 1005.58 Q105.436 1003.06 106.316 1001.32 Q107.219 999.562 107.219 997.872 Q107.219 995.117 105.274 993.381 Q103.353 991.645 100.251 991.645 Q98.0521 991.645 95.5984 992.409 Q93.1678 993.173 90.3901 994.724 L90.3901 990.002 Q93.2141 988.867 95.6678 988.289 Q98.1215 987.71 100.159 987.71 Q105.529 987.71 108.723 990.395 Q111.918 993.08 111.918 997.571 Q111.918 999.701 111.108 1001.62 Q110.321 1003.52 108.214 1006.11 Q107.635 1006.78 104.534 1010 Q101.432 1013.2 95.7836 1018.96 Z" fill="#000000" fill-rule="evenodd" fill-opacity="1" /><path clip-path="url(#clip990)" d="M121.918 1017.02 L126.802 1017.02 L126.802 1022.89 L121.918 1022.89 L121.918 1017.02 Z" fill="#000000" fill-rule="evenodd" fill-opacity="1" /><path clip-path="url(#clip990)" d="M137.033 988.335 L155.39 988.335 L155.39 992.27 L141.316 992.27 L141.316 1000.74 Q142.334 1000.4 143.353 1000.23 Q144.371 1000.05 145.39 1000.05 Q151.177 1000.05 154.556 1003.22 Q157.936 1006.39 157.936 1011.81 Q157.936 1017.39 154.464 1020.49 Q150.992 1023.57 144.672 1023.57 Q142.496 1023.57 140.228 1023.2 Q137.982 1022.83 135.575 1022.08 L135.575 1017.39 Q137.658 1018.52 139.881 1019.08 Q142.103 1019.63 144.58 1019.63 Q148.584 1019.63 150.922 1017.52 Q153.26 1015.42 153.26 1011.81 Q153.26 1008.2 150.922 1006.09 Q148.584 1003.98 144.58 1003.98 Q142.705 1003.98 140.83 1004.4 Q138.978 1004.82 137.033 1005.7 L137.033 988.335 Z" fill="#000000" fill-rule="evenodd" fill-opacity="1" /><path clip-path="url(#clip990)" d="M100.76 720.993 Q97.1493 720.993 95.3206 724.558 Q93.515 728.1 93.515 735.229 Q93.515 742.336 95.3206 745.9 Q97.1493 749.442 100.76 749.442 Q104.395 749.442 106.2 745.9 Q108.029 742.336 108.029 735.229 Q108.029 728.1 106.2 724.558 Q104.395 720.993 100.76 720.993 M100.76 717.29 Q106.571 717.29 109.626 721.896 Q112.705 726.479 112.705 735.229 Q112.705 743.956 109.626 748.563 Q106.571 753.146 100.76 753.146 Q94.9502 753.146 91.8715 748.563 Q88.816 743.956 88.816 735.229 Q88.816 726.479 91.8715 721.896 Q94.9502 717.29 100.76 717.29 Z" fill="#000000" fill-rule="evenodd" fill-opacity="1" /><path clip-path="url(#clip990)" d="M120.922 746.595 L125.807 746.595 L125.807 752.475 L120.922 752.475 L120.922 746.595 Z" fill="#000000" fill-rule="evenodd" fill-opacity="1" /><path clip-path="url(#clip990)" d="M145.992 720.993 Q142.381 720.993 140.552 724.558 Q138.746 728.1 138.746 735.229 Q138.746 742.336 140.552 745.9 Q142.381 749.442 145.992 749.442 Q149.626 749.442 151.431 745.9 Q153.26 742.336 153.26 735.229 Q153.26 728.1 151.431 724.558 Q149.626 720.993 145.992 720.993 M145.992 717.29 Q151.802 717.29 154.857 721.896 Q157.936 726.479 157.936 735.229 Q157.936 743.956 154.857 748.563 Q151.802 753.146 145.992 753.146 Q140.181 753.146 137.103 748.563 Q134.047 743.956 134.047 735.229 Q134.047 726.479 137.103 721.896 Q140.181 717.29 145.992 717.29 Z" fill="#000000" fill-rule="evenodd" fill-opacity="1" /><path clip-path="url(#clip990)" d="M95.7836 478.119 L112.103 478.119 L112.103 482.054 L90.1586 482.054 L90.1586 478.119 Q92.8206 475.364 97.4039 470.735 Q102.01 466.082 103.191 464.739 Q105.436 462.216 106.316 460.48 Q107.219 458.721 107.219 457.031 Q107.219 454.277 105.274 452.54 Q103.353 450.804 100.251 450.804 Q98.0521 450.804 95.5984 451.568 Q93.1678 452.332 90.3901 453.883 L90.3901 449.161 Q93.2141 448.027 95.6678 447.448 Q98.1215 446.869 100.159 446.869 Q105.529 446.869 108.723 449.554 Q111.918 452.24 111.918 456.73 Q111.918 458.86 111.108 460.781 Q110.321 462.679 108.214 465.272 Q107.635 465.943 104.534 469.161 Q101.432 472.355 95.7836 478.119 Z" fill="#000000" fill-rule="evenodd" fill-opacity="1" /><path clip-path="url(#clip990)" d="M121.918 476.175 L126.802 476.175 L126.802 482.054 L121.918 482.054 L121.918 476.175 Z" fill="#000000" fill-rule="evenodd" fill-opacity="1" /><path clip-path="url(#clip990)" d="M137.033 447.494 L155.39 447.494 L155.39 451.429 L141.316 451.429 L141.316 459.902 Q142.334 459.554 143.353 459.392 Q144.371 459.207 145.39 459.207 Q151.177 459.207 154.556 462.378 Q157.936 465.55 157.936 470.966 Q157.936 476.545 154.464 479.647 Q150.992 482.725 144.672 482.725 Q142.496 482.725 140.228 482.355 Q137.982 481.985 135.575 481.244 L135.575 476.545 Q137.658 477.679 139.881 478.235 Q142.103 478.79 144.58 478.79 Q148.584 478.79 150.922 476.684 Q153.26 474.577 153.26 470.966 Q153.26 467.355 150.922 465.249 Q148.584 463.142 144.58 463.142 Q142.705 463.142 140.83 463.559 Q138.978 463.976 137.033 464.855 L137.033 447.494 Z" fill="#000000" fill-rule="evenodd" fill-opacity="1" /><path clip-path="url(#clip990)" d="M90.8067 177.074 L109.163 177.074 L109.163 181.009 L95.0891 181.009 L95.0891 189.481 Q96.1076 189.134 97.1261 188.972 Q98.1447 188.787 99.1632 188.787 Q104.95 188.787 108.33 191.958 Q111.709 195.129 111.709 200.546 Q111.709 206.125 108.237 209.226 Q104.765 212.305 98.4456 212.305 Q96.2697 212.305 94.0012 211.935 Q91.7558 211.564 89.3484 210.824 L89.3484 206.125 Q91.4317 207.259 93.6539 207.814 Q95.8761 208.37 98.353 208.37 Q102.358 208.37 104.696 206.263 Q107.033 204.157 107.033 200.546 Q107.033 196.935 104.696 194.828 Q102.358 192.722 98.353 192.722 Q96.478 192.722 94.603 193.139 Q92.7512 193.555 90.8067 194.435 L90.8067 177.074 Z" fill="#000000" fill-rule="evenodd" fill-opacity="1" /><path clip-path="url(#clip990)" d="M120.922 205.754 L125.807 205.754 L125.807 211.634 L120.922 211.634 L120.922 205.754 Z" fill="#000000" fill-rule="evenodd" fill-opacity="1" /><path clip-path="url(#clip990)" d="M145.992 180.153 Q142.381 180.153 140.552 183.717 Q138.746 187.259 138.746 194.389 Q138.746 201.495 140.552 205.06 Q142.381 208.601 145.992 208.601 Q149.626 208.601 151.431 205.06 Q153.26 201.495 153.26 194.389 Q153.26 187.259 151.431 183.717 Q149.626 180.153 145.992 180.153 M145.992 176.449 Q151.802 176.449 154.857 181.055 Q157.936 185.639 157.936 194.389 Q157.936 203.115 154.857 207.722 Q151.802 212.305 145.992 212.305 Q140.181 212.305 137.103 207.722 Q134.047 203.115 134.047 194.389 Q134.047 185.639 137.103 181.055 Q140.181 176.449 145.992 176.449 Z" fill="#000000" fill-rule="evenodd" fill-opacity="1" /><polyline clip-path="url(#clip992)" style="stroke:#009af9; stroke-linecap:butt; stroke-linejoin:round; stroke-width:4; stroke-opacity:1; fill:none" points="
  255.035,681.11 259.108,681.078 263.181,680.981 267.254,680.818 271.328,680.592 275.401,680.301 279.474,679.946 283.547,679.527 287.621,679.045 291.694,678.5 
  295.767,677.893 299.84,677.224 303.914,676.494 307.987,675.704 312.06,674.855 316.133,673.947 320.207,672.981 324.28,671.958 328.353,670.88 332.426,669.748 
  336.5,668.561 340.573,667.322 344.646,666.032 348.719,664.692 352.793,663.304 356.866,661.868 360.939,660.387 365.012,658.861 369.086,657.293 373.159,655.683 
  377.232,654.034 381.305,652.348 385.379,650.625 389.452,648.868 393.525,647.078 397.598,645.257 401.671,643.407 405.745,641.53 409.818,639.628 413.891,637.702 
  417.964,635.755 422.038,633.788 426.111,631.803 430.184,629.803 434.257,627.79 438.331,625.765 442.404,623.73 446.477,621.688 450.55,619.64 454.624,617.589 
  458.697,615.536 462.77,613.485 466.843,611.435 470.917,609.391 474.99,607.354 479.063,605.325 483.136,603.307 487.21,601.302 491.283,599.312 495.356,597.339 
  499.429,595.385 503.503,593.451 507.576,591.541 511.649,589.655 515.722,587.795 519.796,585.964 523.869,584.164 527.942,582.395 532.015,580.66 536.089,578.961 
  540.162,577.298 544.235,575.675 548.308,574.093 552.382,572.552 556.455,571.055 560.528,569.603 564.601,568.198 568.675,566.841 572.748,565.533 576.821,564.276 
  580.894,563.071 584.968,561.919 589.041,560.821 593.114,559.779 597.187,558.793 601.261,557.865 605.334,556.995 609.407,556.184 613.48,555.433 617.553,554.743 
  621.627,554.114 625.7,553.547 629.773,553.044 633.846,552.603 637.92,552.226 641.993,551.913 646.066,551.664 650.139,551.479 654.213,551.36 658.286,551.305 
  662.359,551.315 666.432,551.39 670.506,551.53 674.579,551.735 678.652,552.004 682.725,552.337 686.799,552.734 690.872,553.195 694.945,553.719 699.018,554.305 
  703.092,554.953 707.165,555.662 711.238,556.432 715.311,557.262 719.385,558.15 723.458,559.097 727.531,560.101 731.604,561.161 735.678,562.276 739.751,563.445 
  743.824,564.666 747.897,565.94 751.971,567.263 756.044,568.635 760.117,570.055 764.19,571.522 768.264,573.032 772.337,574.586 776.41,576.182 780.483,577.817 
  784.557,579.491 788.63,581.202 792.703,582.948 796.776,584.727 800.85,586.537 804.923,588.377 808.996,590.245 813.069,592.139 817.142,594.057 821.216,595.997 
  825.289,597.957 829.362,599.936 833.435,601.931 837.509,603.94 841.582,605.962 845.655,607.993 849.728,610.033 853.802,612.079 857.875,614.13 861.948,616.182 
  866.021,618.234 870.095,620.285 874.168,622.331 878.241,624.371 882.314,626.403 886.388,628.425 890.461,630.435 894.534,632.43 898.607,634.409 902.681,636.37 
  906.754,638.311 910.827,640.23 914.9,642.124 918.974,643.993 923.047,645.834 927.12,647.645 931.193,649.425 935.267,651.171 939.34,652.883 943.413,654.558 
  947.486,656.194 951.56,657.791 955.633,659.345 959.706,660.857 963.779,662.324 967.853,663.745 971.926,665.118 975.999,666.443 980.072,667.717 984.146,668.939 
  988.219,670.109 992.292,671.225 996.365,672.286 1000.44,673.291 1004.51,674.239 1008.59,675.128 1012.66,675.959 1016.73,676.73 1020.8,677.441 1024.88,678.09 
  1028.95,678.677 1033.02,679.202 1037.1,679.664 1041.17,680.062 1045.24,680.397 1049.32,680.668 1053.39,680.874 1057.46,681.015 1061.54,681.091 1065.61,681.103 
  1069.68,681.049 1073.76,680.931 1077.83,680.748 1081.9,680.501 1085.98,680.19 1090.05,679.814 1094.12,679.374 1098.2,678.872 1102.27,678.307 1106.34,677.679 
  1110.42,676.991 1114.49,676.242 1118.56,675.432 1122.64,674.563 1126.71,673.636 1130.78,672.651 1134.86,671.611 1138.93,670.514 1143,669.364 1147.08,668.16 
  1151.15,666.904 1155.22,665.598 1159.3,664.242 1163.37,662.838 1167.44,661.387 1171.51,659.892 1175.59,658.353 1179.66,656.771 1183.73,655.149 1187.81,653.488 
  1191.88,651.79 1195.95,650.056 1200.03,648.289 1204.1,646.489 1208.17,644.659 1212.25,642.801 1216.32,640.916 1220.39,639.007 1224.47,637.074 1228.54,635.121 
  1232.61,633.149 1236.69,631.16 1240.76,629.156 1244.83,627.139 1248.91,625.111 1252.98,623.074 1257.05,621.031 1261.13,618.982 1265.2,616.931 1269.27,614.879 
  1273.35,612.829 1277.42,610.782 1281.49,608.74 1285.57,606.706 1289.64,604.681 1293.71,602.668 1297.79,600.668 1301.86,598.684 1305.93,596.718 1310.01,594.771 
  1314.08,592.845 1318.15,590.943 1322.22,589.067 1326.3,587.217 1330.37,585.396 1334.44,583.606 1338.52,581.849 1342.59,580.126 1346.66,578.44 1350.74,576.791 
  1354.81,575.181 1358.88,573.613 1362.96,572.087 1367.03,570.605 1371.1,569.169 1375.18,567.78 1379.25,566.439 1383.32,565.148 1387.4,563.909 1391.47,562.721 
  1395.54,561.587 1399.62,560.508 1403.69,559.484 1407.76,558.518 1411.84,557.608 1415.91,556.758 1419.98,555.967 1424.06,555.236 1428.13,554.566 1432.2,553.958 
  1436.28,553.412 1440.35,552.929 1444.42,552.509 1448.5,552.153 1452.57,551.861 1456.64,551.633 1460.72,551.47 1464.79,551.371 1468.86,551.338 1472.93,551.369 
  1477.01,551.466 1481.08,551.626 1485.15,551.852 1489.23,552.142 1493.3,552.495 1497.37,552.913 1501.45,553.394 1505.52,553.938 1509.59,554.544 1513.67,555.212 
  1517.74,555.94 1521.81,556.729 1525.89,557.578 1529.96,558.485 1534.03,559.45 1538.11,560.471 1542.18,561.549 1546.25,562.68 1550.33,563.866 1554.4,565.103 
  1558.47,566.392 1562.55,567.731 1566.62,569.118 1570.69,570.553 1574.77,572.033 1578.84,573.557 1582.91,575.123 1586.99,576.731 1591.06,578.378 1595.13,580.063 
  1599.21,581.785 1603.28,583.54 1607.35,585.329 1611.43,587.148 1615.5,588.996 1619.57,590.871 1623.65,592.772 1627.72,594.696 1631.79,596.642 1635.86,598.607 
  1639.94,600.59 1644.01,602.588 1648.08,604.6 1652.16,606.624 1656.23,608.657 1660.3,610.698 1664.38,612.744 1668.45,614.794 1672.52,616.845 1676.6,618.895 
  1680.67,620.943 1684.74,622.986 1688.82,625.022 1692.89,627.049 1696.96,629.066 1701.04,631.069 1705.11,633.058 1709.18,635.03 1713.26,636.983 1717.33,638.915 
  1721.4,640.824 1725.48,642.709 1729.55,644.568 1733.62,646.398 1737.7,648.198 1741.77,649.965 1745.84,651.699 1749.92,653.398 1753.99,655.059 1758.06,656.682 
  1762.14,658.263 1766.21,659.803 1770.28,661.3 1774.36,662.751 1778.43,664.155 1782.5,665.512 1786.57,666.819 1790.65,668.076 1794.72,669.281 1798.79,670.433 
  1802.87,671.53 1806.94,672.573 1811.01,673.558 1815.09,674.487 1819.16,675.357 1823.23,676.168 1827.31,676.919 1831.38,677.609 1835.45,678.238 1839.53,678.805 
  1843.6,679.309 1847.67,679.75 1851.75,680.128 1855.82,680.442 1859.89,680.691 1863.97,680.876 1868.04,680.997 1872.11,681.052 1876.19,681.043 1880.26,680.969 
  1884.33,680.83 1888.41,680.627 1892.48,680.359 1896.55,680.027 1900.63,679.632 1904.7,679.173 1908.77,678.65 1912.85,678.066 1916.92,677.42 1920.99,676.712 
  1925.07,675.944 1929.14,675.116 1933.21,674.23 1937.28,673.285 1941.36,672.283 1945.43,671.225 1949.5,670.112 1953.58,668.946 1957.65,667.726 1961.72,666.455 
  1965.8,665.134 1969.87,663.764 1973.94,662.346 1978.02,660.882 1982.09,659.373 1986.16,657.822 1990.24,656.228 1994.31,654.595 1998.38,652.923 2002.46,651.215 
  2006.53,649.472 2010.6,647.695 2014.68,645.887 2018.75,644.049 2022.82,642.184 2026.9,640.292 2030.97,638.376 2035.04,636.438 2039.12,634.48 2043.19,632.504 
  2047.26,630.511 2051.34,628.505 2055.41,626.485 2059.48,624.456 2063.56,622.418 2067.63,620.374 2071.7,618.326 2075.78,616.276 2079.85,614.226 2083.92,612.177 
  2087.99,610.133 2092.07,608.095 2096.14,606.065 2100.21,604.045 2104.29,602.037 2108.36,600.044 2112.43,598.066 2116.51,596.107 2120.58,594.168 2124.65,592.251 
  2128.73,590.358 2132.8,588.491 2136.87,586.651 2140.95,584.841 2145.02,583.062 2149.09,581.317 2153.17,579.606 2157.24,577.932 2161.31,576.297 2165.39,574.701 
  2169.46,573.147 2173.53,571.635 2177.61,570.169 2181.68,568.748 2185.75,567.375 2189.83,566.051 2193.9,564.777 2197.97,563.554 2202.05,562.384 2206.12,561.268 
  2210.19,560.206 2214.27,559.201 2218.34,558.253 2222.41,557.362 2226.49,556.531 2230.56,555.759 2234.63,555.048 2238.71,554.398 2242.78,553.809 2246.85,553.283 
  2250.92,552.82 2255,552.421 2259.07,552.085 2263.14,551.813 2267.22,551.605 2271.29,551.463 2275.36,551.385 2279.44,551.371 2283.51,551.423 2287.58,551.539 
  2291.66,551.721 
  "/>
<polyline clip-path="url(#clip992)" style="stroke:#e26f46; stroke-linecap:butt; stroke-linejoin:round; stroke-width:4; stroke-opacity:1; fill:none" points="
  255.035,735.195 259.108,728.706 263.181,722.224 267.254,715.754 271.328,709.304 275.401,702.88 279.474,696.488 283.547,690.135 287.621,683.826 291.694,677.569 
  295.767,671.37 299.84,665.234 303.914,659.169 307.987,653.179 312.06,647.271 316.133,641.451 320.207,635.725 324.28,630.098 328.353,624.576 332.426,619.164 
  336.5,613.868 340.573,608.694 344.646,603.646 348.719,598.73 352.793,593.95 356.866,589.312 360.939,584.819 365.012,580.477 369.086,576.29 373.159,572.261 
  377.232,568.396 381.305,564.697 385.379,561.169 389.452,557.815 393.525,554.638 397.598,551.642 401.671,548.829 405.745,546.203 409.818,543.766 413.891,541.52 
  417.964,539.468 422.038,537.611 426.111,535.952 430.184,534.493 434.257,533.234 438.331,532.177 442.404,531.323 446.477,530.673 450.55,530.227 454.624,529.986 
  458.697,529.951 462.77,530.121 466.843,530.496 470.917,531.076 474.99,531.859 479.063,532.846 483.136,534.036 487.21,535.426 491.283,537.017 495.356,538.805 
  499.429,540.79 503.503,542.97 507.576,545.341 511.649,547.903 515.722,550.652 519.796,553.585 523.869,556.7 527.942,559.993 532.015,563.462 536.089,567.102 
  540.162,570.911 544.235,574.883 548.308,579.016 552.382,583.306 556.455,587.747 560.528,592.335 564.601,597.067 568.675,601.936 572.748,606.939 576.821,612.07 
  580.894,617.325 584.968,622.697 589.041,628.181 593.114,633.773 597.187,639.466 601.261,645.255 605.334,651.134 609.407,657.096 613.48,663.137 617.553,669.25 
  621.627,675.429 625.7,681.668 629.773,687.96 633.846,694.299 637.92,700.68 641.993,707.095 646.066,713.537 650.139,720.002 654.213,726.482 658.286,732.971 
  662.359,739.461 666.432,745.948 670.506,752.424 674.579,758.882 678.652,765.317 682.725,771.722 686.799,778.09 690.872,784.415 694.945,790.691 699.018,796.912 
  703.092,803.071 707.165,809.162 711.238,815.179 715.311,821.116 719.385,826.968 723.458,832.728 727.531,838.391 731.604,843.95 735.678,849.4 739.751,854.736 
  743.824,859.953 747.897,865.045 751.971,870.007 756.044,874.833 760.117,879.52 764.19,884.062 768.264,888.456 772.337,892.696 776.41,896.779 780.483,900.7 
  784.557,904.455 788.63,908.042 792.703,911.455 796.776,914.693 800.85,917.75 804.923,920.626 808.996,923.316 813.069,925.818 817.142,928.129 821.216,930.247 
  825.289,932.171 829.362,933.897 833.435,935.425 837.509,936.753 841.582,937.879 845.655,938.802 849.728,939.522 853.802,940.037 857.875,940.348 861.948,940.453 
  866.021,940.353 870.095,940.047 874.168,939.537 878.241,938.822 882.314,937.904 886.388,936.783 890.461,935.46 894.534,933.938 898.607,932.216 902.681,930.296 
  906.754,928.182 910.827,925.875 914.9,923.376 918.974,920.69 923.047,917.819 927.12,914.765 931.193,911.531 935.267,908.121 939.34,904.537 943.413,900.785 
  947.486,896.866 951.56,892.787 955.633,888.55 959.706,884.16 963.779,879.62 967.853,874.936 971.926,870.112 975.999,865.154 980.072,860.065 984.146,854.852 
  988.219,849.52 992.292,844.073 996.365,838.517 1000.44,832.858 1004.51,827.101 1008.59,821.252 1012.66,815.318 1016.73,809.303 1020.8,803.215 1024.88,797.058 
  1028.95,790.84 1033.02,784.565 1037.1,778.242 1041.17,771.875 1045.24,765.472 1049.32,759.039 1053.39,752.582 1057.46,746.107 1061.54,739.622 1065.61,733.132 
  1069.68,726.644 1073.76,720.165 1077.83,713.701 1081.9,707.259 1085.98,700.845 1090.05,694.465 1094.12,688.125 1098.2,681.833 1102.27,675.594 1106.34,669.415 
  1110.42,663.302 1114.49,657.261 1118.56,651.297 1122.64,645.418 1126.71,639.628 1130.78,633.934 1134.86,628.342 1138.93,622.856 1143,617.483 1147.08,612.227 
  1151.15,607.095 1155.22,602.09 1159.3,597.219 1163.37,592.486 1167.44,587.895 1171.51,583.452 1175.59,579.161 1179.66,575.025 1183.73,571.05 1187.81,567.24 
  1191.88,563.597 1195.95,560.126 1200.03,556.83 1204.1,553.712 1208.17,550.775 1212.25,548.024 1216.32,545.459 1220.39,543.085 1224.47,540.902 1228.54,538.914 
  1232.61,537.122 1236.69,535.528 1240.76,534.133 1244.83,532.94 1248.91,531.949 1252.98,531.162 1257.05,530.578 1261.13,530.199 1265.2,530.025 1269.27,530.056 
  1273.35,530.292 1277.42,530.734 1281.49,531.38 1285.57,532.23 1289.64,533.282 1293.71,534.537 1297.79,535.992 1301.86,537.646 1305.93,539.497 1310.01,541.545 
  1314.08,543.787 1318.15,546.22 1322.22,548.841 1326.3,551.649 1330.37,554.64 1334.44,557.812 1338.52,561.161 1342.59,564.685 1346.66,568.379 1350.74,572.24 
  1354.81,576.264 1358.88,580.446 1362.96,584.783 1367.03,589.27 1371.1,593.904 1375.18,598.679 1379.25,603.59 1383.32,608.634 1387.4,613.803 1391.47,619.094 
  1395.54,624.5 1399.62,630.017 1403.69,635.64 1407.76,641.362 1411.84,647.178 1415.91,653.082 1419.98,659.068 1424.06,665.13 1428.13,671.262 1432.2,677.458 
  1436.28,683.712 1440.35,690.017 1444.42,696.367 1448.5,702.756 1452.57,709.178 1456.64,715.625 1460.72,722.091 1464.79,728.571 1468.86,735.058 1472.93,741.545 
  1477.01,748.025 1481.08,754.492 1485.15,760.94 1489.23,767.362 1493.3,773.752 1497.37,780.104 1501.45,786.41 1505.52,792.665 1509.59,798.863 1513.67,804.997 
  1517.74,811.061 1521.81,817.049 1525.89,822.955 1529.96,828.773 1534.03,834.498 1538.11,840.123 1542.18,845.644 1546.25,851.054 1550.33,856.348 1554.4,861.521 
  1558.47,866.567 1562.55,871.482 1566.62,876.26 1570.69,880.898 1574.77,885.39 1578.84,889.731 1582.91,893.919 1586.99,897.947 1591.06,901.812 1595.13,905.511 
  1599.21,909.039 1603.28,912.394 1607.35,915.571 1611.43,918.568 1615.5,921.382 1619.57,924.009 1623.65,926.448 1627.72,928.695 1631.79,930.748 1635.86,932.606 
  1639.94,934.267 1644.01,935.728 1648.08,936.99 1652.16,938.049 1656.23,938.905 1660.3,939.557 1664.38,940.005 1668.45,940.248 1672.52,940.287 1676.6,940.12 
  1680.67,939.749 1684.74,939.172 1688.82,938.392 1692.89,937.408 1696.96,936.222 1701.04,934.835 1705.11,933.249 1709.18,931.465 1713.26,929.485 1717.33,927.309 
  1721.4,924.942 1725.48,922.385 1729.55,919.641 1733.62,916.712 1737.7,913.602 1741.77,910.314 1745.84,906.851 1749.92,903.216 1753.99,899.412 1758.06,895.445 
  1762.14,891.317 1766.21,887.034 1770.28,882.598 1774.36,878.016 1778.43,873.29 1782.5,868.427 1786.57,863.429 1790.65,858.304 1794.72,853.056 1798.79,847.69 
  1802.87,842.212 1806.94,836.627 1811.01,830.94 1815.09,825.157 1819.16,819.284 1823.23,813.328 1827.31,807.293 1831.38,801.186 1835.45,795.014 1839.53,788.782 
  1843.6,782.496 1847.67,776.163 1851.75,769.788 1855.82,763.38 1859.89,756.943 1863.97,750.484 1868.04,744.011 1872.11,737.529 1876.19,731.044 1880.26,724.564 
  1884.33,718.094 1888.41,711.642 1892.48,705.213 1896.55,698.814 1900.63,692.451 1904.7,686.132 1908.77,679.861 1912.85,673.646 1916.92,667.492 1920.99,661.406 
  1925.07,655.394 1929.14,649.461 1933.21,643.614 1937.28,637.859 1941.36,632.201 1945.43,626.646 1949.5,621.2 1953.58,615.868 1957.65,610.655 1961.72,605.566 
  1965.8,600.607 1969.87,595.783 1973.94,591.098 1978.02,586.557 1982.09,582.165 1986.16,577.926 1990.24,573.844 1994.31,569.924 1998.38,566.169 2002.46,562.582 
  2006.53,559.169 2010.6,555.931 2014.68,552.873 2018.75,549.997 2022.82,547.307 2026.9,544.804 2030.97,542.491 2035.04,540.371 2039.12,538.446 2043.19,536.718 
  2047.26,535.188 2051.34,533.859 2055.41,532.73 2059.48,531.804 2063.56,531.082 2067.63,530.563 2071.7,530.249 2075.78,530.14 2079.85,530.236 2083.92,530.537 
  2087.99,531.043 2092.07,531.753 2096.14,532.666 2100.21,533.781 2104.29,535.099 2108.36,536.616 2112.43,538.332 2116.51,540.244 2120.58,542.352 2124.65,544.652 
  2128.73,547.143 2132.8,549.822 2136.87,552.687 2140.95,555.733 2145.02,558.96 2149.09,562.362 2153.17,565.937 2157.24,569.682 2161.31,573.592 2165.39,577.664 
  2169.46,581.893 2173.53,586.275 2177.61,590.806 2181.68,595.482 2185.75,600.298 2189.83,605.248 2193.9,610.328 2197.97,615.533 2202.05,620.858 2206.12,626.297 
  2210.19,631.845 2214.27,637.496 2218.34,643.245 2222.41,649.085 2226.49,655.012 2230.56,661.019 2234.63,667.101 2238.71,673.25 2242.78,679.461 2246.85,685.728 
  2250.92,692.045 2255,698.404 2259.07,704.801 2263.14,711.227 2267.22,717.678 2271.29,724.146 2275.36,730.625 2279.44,737.109 2283.51,743.591 2287.58,750.064 
  2291.66,756.523 
  "/>
<polyline clip-path="url(#clip992)" style="stroke:#3da44d; stroke-linecap:butt; stroke-linejoin:round; stroke-width:4; stroke-opacity:1; fill:none" points="
  255.035,86.1857 259.108,86.5121 263.181,87.4852 267.254,89.1057 271.328,91.3722 275.401,94.2819 279.474,97.832 283.547,102.019 287.621,106.839 291.694,112.288 
  295.767,118.359 299.84,125.048 303.914,132.345 307.987,140.247 312.06,148.741 316.133,157.821 320.207,167.478 324.28,177.705 328.353,188.486 332.426,199.814 
  336.5,211.679 340.573,224.07 344.646,236.97 348.719,250.369 352.793,264.253 356.866,278.61 360.939,293.424 365.012,308.68 369.086,324.363 373.159,340.457 
  377.232,356.946 381.305,373.813 385.379,391.042 389.452,408.614 393.525,426.514 397.598,444.722 401.671,463.221 405.745,481.991 409.818,501.015 413.891,520.272 
  417.964,539.745 422.038,559.413 426.111,579.256 430.184,599.256 434.257,619.392 438.331,639.643 442.404,659.99 446.477,680.413 450.55,700.89 454.624,721.401 
  458.697,741.926 462.77,762.445 466.843,782.936 470.917,803.38 474.99,823.755 479.063,844.042 483.136,864.22 487.21,884.269 491.283,904.169 495.356,923.9 
  499.429,943.442 503.503,962.776 507.576,981.883 511.649,1000.74 515.722,1019.34 519.796,1037.65 523.869,1055.65 527.942,1073.34 532.015,1090.69 536.089,1107.68 
  540.162,1124.31 544.235,1140.54 548.308,1156.36 552.382,1171.77 556.455,1186.74 560.528,1201.26 564.601,1215.31 568.675,1228.88 572.748,1241.96 576.821,1254.53 
  580.894,1266.58 584.968,1278.1 589.041,1289.08 593.114,1299.5 597.187,1309.36 601.261,1318.64 605.334,1327.34 609.407,1335.45 613.48,1342.96 617.553,1349.86 
  621.627,1356.15 625.7,1361.82 629.773,1366.85 633.846,1371.26 637.92,1375.03 641.993,1378.16 646.066,1380.65 650.139,1382.5 654.213,1383.69 658.286,1384.24 
  662.359,1384.14 666.432,1383.39 670.506,1381.99 674.579,1379.94 678.652,1377.25 682.725,1373.92 686.799,1369.95 690.872,1365.34 694.945,1360.1 699.018,1354.24 
  703.092,1347.76 707.165,1340.67 711.238,1332.97 715.311,1324.67 719.385,1315.79 723.458,1306.32 727.531,1296.28 731.604,1285.68 735.678,1274.53 739.751,1262.84 
  743.824,1250.63 747.897,1237.89 751.971,1224.66 756.044,1210.94 760.117,1196.74 764.19,1182.08 768.264,1166.97 772.337,1151.43 776.41,1135.47 780.483,1119.12 
  784.557,1102.38 788.63,1085.27 792.703,1067.81 796.776,1050.02 800.85,1031.92 804.923,1013.52 808.996,994.838 813.069,975.9 817.142,956.72 821.216,937.319 
  825.289,917.715 829.362,897.93 833.435,877.981 837.509,857.89 841.582,837.675 845.655,817.358 849.728,796.958 853.802,776.497 857.875,755.995 861.948,735.472 
  866.021,714.949 870.095,694.445 874.168,673.981 878.241,653.579 882.314,633.258 886.388,613.04 890.461,592.944 894.534,572.991 898.607,553.199 902.681,533.589 
  906.754,514.181 910.827,494.994 914.9,476.048 918.974,457.361 923.047,438.952 927.12,420.841 931.193,403.043 935.267,385.578 939.34,368.462 943.413,351.714 
  947.486,335.349 951.56,319.385 955.633,303.836 959.706,288.719 963.779,274.049 967.853,259.841 971.926,246.108 975.999,232.865 980.072,220.124 984.146,207.897 
  988.219,196.198 992.292,185.038 996.365,174.429 1000.44,164.381 1004.51,154.905 1008.59,146.008 1012.66,137.7 1016.73,129.989 1020.8,122.883 1024.88,116.39 
  1028.95,110.517 1033.02,105.269 1037.1,100.65 1041.17,96.6656 1045.24,93.3193 1049.32,90.6143 1053.39,88.5535 1057.46,87.1413 1061.54,86.3772 1065.61,86.2619 
  1069.68,86.7954 1073.76,87.9771 1077.83,89.8054 1081.9,92.2782 1085.98,95.3945 1090.05,99.1522 1094.12,103.546 1098.2,108.571 1102.27,114.223 1106.34,120.495 
  1110.42,127.382 1114.49,134.875 1118.56,142.97 1122.64,151.658 1126.71,160.93 1130.78,170.775 1134.86,181.185 1138.93,192.149 1143,203.654 1147.08,215.69 
  1151.15,228.248 1155.22,241.313 1159.3,254.872 1163.37,268.911 1167.44,283.416 1171.51,298.371 1175.59,313.763 1179.66,329.576 1183.73,345.796 1187.81,362.406 
  1191.88,379.388 1195.95,396.726 1200.03,414.402 1204.1,432.398 1208.17,450.696 1212.25,469.279 1216.32,488.128 1220.39,507.225 1224.47,526.55 1228.54,546.082 
  1232.61,565.804 1236.69,585.694 1240.76,605.733 1244.83,625.902 1248.91,646.181 1252.98,666.549 1257.05,686.985 1261.13,707.469 1265.2,727.98 1269.27,748.498 
  1273.35,769.003 1277.42,789.474 1281.49,809.891 1285.57,830.233 1289.64,850.48 1293.71,870.611 1297.79,890.607 1301.86,910.446 1305.93,930.111 1310.01,949.58 
  1314.08,968.835 1318.15,987.857 1322.22,1006.62 1326.3,1025.12 1330.37,1043.33 1334.44,1061.23 1338.52,1078.8 1342.59,1096.03 1346.66,1112.89 1350.74,1129.38 
  1354.81,1145.48 1358.88,1161.16 1362.96,1176.42 1367.03,1191.24 1371.1,1205.6 1375.18,1219.49 1379.25,1232.9 1383.32,1245.81 1387.4,1258.2 1391.47,1270.08 
  1395.54,1281.42 1399.62,1292.21 1403.69,1302.45 1407.76,1312.12 1411.84,1321.21 1415.91,1329.71 1419.98,1337.62 1424.06,1344.93 1428.13,1351.63 1432.2,1357.71 
  1436.28,1363.17 1440.35,1368 1444.42,1372.2 1448.5,1375.76 1452.57,1378.68 1456.64,1380.96 1460.72,1382.59 1464.79,1383.58 1468.86,1383.91 1472.93,1383.6 
  1477.01,1382.64 1481.08,1381.03 1485.15,1378.77 1489.23,1375.87 1493.3,1372.34 1497.37,1368.16 1501.45,1363.35 1505.52,1357.91 1509.59,1351.85 1513.67,1345.17 
  1517.74,1337.89 1521.81,1330 1525.89,1321.51 1529.96,1312.44 1534.03,1302.79 1538.11,1292.58 1542.18,1281.8 1546.25,1270.49 1550.33,1258.63 1554.4,1246.26 
  1558.47,1233.37 1562.55,1219.98 1566.62,1206.11 1570.69,1191.76 1574.77,1176.96 1578.84,1161.72 1582.91,1146.06 1586.99,1129.98 1591.06,1113.51 1595.13,1096.66 
  1599.21,1079.44 1603.28,1061.89 1607.35,1044 1611.43,1025.81 1615.5,1007.33 1619.57,988.579 1623.65,969.571 1627.72,950.329 1631.79,930.872 1635.86,911.22 
  1639.94,891.392 1644.01,871.408 1648.08,851.29 1652.16,831.054 1656.23,810.722 1660.3,790.314 1664.38,769.852 1668.45,749.355 1672.52,728.845 1676.6,708.341 
  1680.67,687.865 1684.74,667.435 1688.82,647.073 1692.89,626.8 1696.96,606.635 1701.04,586.599 1705.11,566.712 1709.18,546.993 1713.26,527.463 1717.33,508.141 
  1721.4,489.046 1725.48,470.197 1729.55,451.613 1733.62,433.313 1737.7,415.315 1741.77,397.637 1745.84,380.297 1749.92,363.312 1753.99,346.699 1758.06,330.475 
  1762.14,314.656 1766.21,299.257 1770.28,284.294 1774.36,269.782 1778.43,255.736 1782.5,242.169 1786.57,229.096 1790.65,216.529 1794.72,204.481 1798.79,192.963 
  1802.87,181.988 1806.94,171.565 1811.01,161.707 1815.09,152.423 1819.16,143.722 1823.23,135.612 1827.31,128.102 1831.38,121.198 1835.45,114.908 1839.53,109.239 
  1843.6,104.196 1847.67,99.7854 1851.75,96.0098 1855.82,92.8732 1859.89,90.3787 1863.97,88.5284 1868.04,87.3239 1872.11,86.7676 1876.19,86.8599 1880.26,87.6003 
  1884.33,88.9879 1888.41,91.0213 1892.48,93.6985 1896.55,97.0174 1900.63,100.974 1904.7,105.565 1908.77,110.786 1912.85,116.63 1916.92,123.094 1920.99,130.169 
  1925.07,137.85 1929.14,146.128 1933.21,154.994 1937.28,164.441 1941.36,174.459 1945.43,185.038 1949.5,196.167 1953.58,207.835 1957.65,220.03 1961.72,232.739 
  1965.8,245.952 1969.87,259.654 1973.94,273.832 1978.02,288.471 1982.09,303.556 1986.16,319.072 1990.24,335.005 1994.31,351.339 1998.38,368.055 2002.46,385.139 
  2006.53,402.573 2010.6,420.339 2014.68,438.421 2018.75,456.799 2022.82,475.455 2026.9,494.371 2030.97,513.527 2035.04,532.906 2039.12,552.486 2043.19,572.249 
  2047.26,592.176 2051.34,612.245 2055.41,632.437 2059.48,652.731 2063.56,673.109 2067.63,693.548 2071.7,714.029 2075.78,734.531 2079.85,755.033 2083.92,775.516 
  2087.99,795.958 2092.07,816.34 2096.14,836.64 2100.21,856.839 2104.29,876.917 2108.36,896.852 2112.43,916.626 2116.51,936.218 2120.58,955.61 2124.65,974.78 
  2128.73,993.712 2132.8,1012.38 2136.87,1030.78 2140.95,1048.88 2145.02,1066.67 2149.09,1084.12 2153.17,1101.23 2157.24,1117.97 2161.31,1134.32 2165.39,1150.28 
  2169.46,1165.82 2173.53,1180.94 2177.61,1195.6 2181.68,1209.81 2185.75,1223.54 2189.83,1236.78 2193.9,1249.52 2197.97,1261.75 2202.05,1273.45 2206.12,1284.61 
  2210.19,1295.23 2214.27,1305.28 2218.34,1314.76 2222.41,1323.67 2226.49,1331.98 2230.56,1339.7 2234.63,1346.81 2238.71,1353.31 2242.78,1359.2 2246.85,1364.46 
  2250.92,1369.09 2255,1373.08 2259.07,1376.44 2263.14,1379.16 2267.22,1381.24 2271.29,1382.66 2275.36,1383.44 2279.44,1383.58 2283.51,1383.06 2287.58,1381.9 
  2291.66,1380.09 
  "/>
<path clip-path="url(#clip990)" d="
M1557.04 335.029 L2280.8 335.029 L2280.8 93.1086 L1557.04 93.1086  Z
  " fill="#ffffff" fill-rule="evenodd" fill-opacity="1"/>
<polyline clip-path="url(#clip990)" style="stroke:#000000; stroke-linecap:butt; stroke-linejoin:round; stroke-width:4; stroke-opacity:1; fill:none" points="
  1557.04,335.029 2280.8,335.029 2280.8,93.1086 1557.04,93.1086 1557.04,335.029 
  "/>
<polyline clip-path="url(#clip990)" style="stroke:#009af9; stroke-linecap:butt; stroke-linejoin:round; stroke-width:4; stroke-opacity:1; fill:none" points="
  1581.03,153.589 1724.95,153.589 
  "/>
<path clip-path="url(#clip990)" d="M1769.28 149.92 Q1770.88 147.049 1773.1 145.684 Q1775.32 144.318 1778.33 144.318 Q1782.38 144.318 1784.58 147.165 Q1786.78 149.989 1786.78 155.221 L1786.78 170.869 L1782.5 170.869 L1782.5 155.359 Q1782.5 151.633 1781.18 149.827 Q1779.86 148.022 1777.15 148.022 Q1773.84 148.022 1771.92 150.221 Q1770 152.42 1770 156.216 L1770 170.869 L1765.72 170.869 L1765.72 155.359 Q1765.72 151.609 1764.4 149.827 Q1763.08 148.022 1760.32 148.022 Q1757.06 148.022 1755.14 150.244 Q1753.22 152.443 1753.22 156.216 L1753.22 170.869 L1748.94 170.869 L1748.94 144.943 L1753.22 144.943 L1753.22 148.971 Q1754.68 146.586 1756.71 145.452 Q1758.75 144.318 1761.55 144.318 Q1764.37 144.318 1766.34 145.753 Q1768.33 147.188 1769.28 149.92 Z" fill="#000000" fill-rule="evenodd" fill-opacity="1" /><path clip-path="url(#clip990)" d="M1807.06 157.836 Q1801.9 157.836 1799.91 159.017 Q1797.92 160.197 1797.92 163.045 Q1797.92 165.313 1799.4 166.656 Q1800.9 167.975 1803.47 167.975 Q1807.01 167.975 1809.14 165.475 Q1811.3 162.952 1811.3 158.785 L1811.3 157.836 L1807.06 157.836 M1815.56 156.077 L1815.56 170.869 L1811.3 170.869 L1811.3 166.933 Q1809.84 169.295 1807.66 170.429 Q1805.49 171.54 1802.34 171.54 Q1798.36 171.54 1796 169.318 Q1793.66 167.072 1793.66 163.322 Q1793.66 158.947 1796.57 156.725 Q1799.51 154.503 1805.32 154.503 L1811.3 154.503 L1811.3 154.086 Q1811.3 151.147 1809.35 149.549 Q1807.43 147.929 1803.93 147.929 Q1801.71 147.929 1799.61 148.461 Q1797.5 148.994 1795.56 150.059 L1795.56 146.123 Q1797.89 145.221 1800.09 144.781 Q1802.29 144.318 1804.37 144.318 Q1810 144.318 1812.78 147.234 Q1815.56 150.151 1815.56 156.077 Z" fill="#000000" fill-rule="evenodd" fill-opacity="1" /><path clip-path="url(#clip990)" d="M1840.86 145.707 L1840.86 149.734 Q1839.05 148.809 1837.11 148.346 Q1835.16 147.883 1833.08 147.883 Q1829.91 147.883 1828.31 148.855 Q1826.74 149.827 1826.74 151.771 Q1826.74 153.253 1827.87 154.109 Q1829 154.943 1832.43 155.707 L1833.89 156.031 Q1838.43 157.003 1840.32 158.785 Q1842.24 160.545 1842.24 163.716 Q1842.24 167.327 1839.37 169.433 Q1836.53 171.54 1831.53 171.54 Q1829.44 171.54 1827.18 171.123 Q1824.93 170.73 1822.43 169.92 L1822.43 165.521 Q1824.79 166.748 1827.08 167.373 Q1829.37 167.975 1831.62 167.975 Q1834.63 167.975 1836.25 166.957 Q1837.87 165.915 1837.87 164.04 Q1837.87 162.304 1836.69 161.378 Q1835.53 160.452 1831.57 159.596 L1830.09 159.248 Q1826.13 158.415 1824.37 156.702 Q1822.62 154.966 1822.62 151.957 Q1822.62 148.299 1825.21 146.309 Q1827.8 144.318 1832.57 144.318 Q1834.93 144.318 1837.01 144.665 Q1839.1 145.012 1840.86 145.707 Z" fill="#000000" fill-rule="evenodd" fill-opacity="1" /><path clip-path="url(#clip990)" d="M1865.55 145.707 L1865.55 149.734 Q1863.75 148.809 1861.8 148.346 Q1859.86 147.883 1857.78 147.883 Q1854.61 147.883 1853.01 148.855 Q1851.43 149.827 1851.43 151.771 Q1851.43 153.253 1852.57 154.109 Q1853.7 154.943 1857.13 155.707 L1858.59 156.031 Q1863.12 157.003 1865.02 158.785 Q1866.94 160.545 1866.94 163.716 Q1866.94 167.327 1864.07 169.433 Q1861.23 171.54 1856.23 171.54 Q1854.14 171.54 1851.87 171.123 Q1849.63 170.73 1847.13 169.92 L1847.13 165.521 Q1849.49 166.748 1851.78 167.373 Q1854.07 167.975 1856.32 167.975 Q1859.33 167.975 1860.95 166.957 Q1862.57 165.915 1862.57 164.04 Q1862.57 162.304 1861.39 161.378 Q1860.23 160.452 1856.27 159.596 L1854.79 159.248 Q1850.83 158.415 1849.07 156.702 Q1847.31 154.966 1847.31 151.957 Q1847.31 148.299 1849.91 146.309 Q1852.5 144.318 1857.27 144.318 Q1859.63 144.318 1861.71 144.665 Q1863.8 145.012 1865.55 145.707 Z" fill="#000000" fill-rule="evenodd" fill-opacity="1" /><path clip-path="url(#clip990)" d="M1874.33 164.989 L1879.21 164.989 L1879.21 170.869 L1874.33 170.869 L1874.33 164.989 Z" fill="#000000" fill-rule="evenodd" fill-opacity="1" /><path clip-path="url(#clip990)" d="M1905.32 145.707 L1905.32 149.734 Q1903.52 148.809 1901.57 148.346 Q1899.63 147.883 1897.55 147.883 Q1894.37 147.883 1892.78 148.855 Q1891.2 149.827 1891.2 151.771 Q1891.2 153.253 1892.34 154.109 Q1893.47 154.943 1896.9 155.707 L1898.36 156.031 Q1902.89 157.003 1904.79 158.785 Q1906.71 160.545 1906.71 163.716 Q1906.71 167.327 1903.84 169.433 Q1900.99 171.54 1895.99 171.54 Q1893.91 171.54 1891.64 171.123 Q1889.4 170.73 1886.9 169.92 L1886.9 165.521 Q1889.26 166.748 1891.55 167.373 Q1893.84 167.975 1896.09 167.975 Q1899.1 167.975 1900.72 166.957 Q1902.34 165.915 1902.34 164.04 Q1902.34 162.304 1901.16 161.378 Q1900 160.452 1896.04 159.596 L1894.56 159.248 Q1890.6 158.415 1888.84 156.702 Q1887.08 154.966 1887.08 151.957 Q1887.08 148.299 1889.68 146.309 Q1892.27 144.318 1897.04 144.318 Q1899.4 144.318 1901.48 144.665 Q1903.56 145.012 1905.32 145.707 Z" fill="#000000" fill-rule="evenodd" fill-opacity="1" /><path clip-path="url(#clip990)" d="M1938.8 134.897 Q1935.69 140.221 1934.19 145.429 Q1932.68 150.637 1932.68 155.984 Q1932.68 161.332 1934.19 166.586 Q1935.72 171.818 1938.8 177.119 L1935.09 177.119 Q1931.62 171.679 1929.88 166.424 Q1928.17 161.17 1928.17 155.984 Q1928.17 150.822 1929.88 145.591 Q1931.6 140.36 1935.09 134.897 L1938.8 134.897 Z" fill="#000000" fill-rule="evenodd" fill-opacity="1" /><path clip-path="url(#clip990)" d="M1961.83 152.234 Q1965.18 152.952 1967.06 155.221 Q1968.96 157.489 1968.96 160.822 Q1968.96 165.938 1965.44 168.739 Q1961.92 171.54 1955.44 171.54 Q1953.26 171.54 1950.95 171.1 Q1948.66 170.683 1946.2 169.827 L1946.2 165.313 Q1948.15 166.447 1950.46 167.026 Q1952.78 167.605 1955.3 167.605 Q1959.7 167.605 1961.99 165.869 Q1964.3 164.133 1964.3 160.822 Q1964.3 157.767 1962.15 156.054 Q1960.02 154.318 1956.2 154.318 L1952.17 154.318 L1952.17 150.475 L1956.39 150.475 Q1959.84 150.475 1961.67 149.109 Q1963.49 147.721 1963.49 145.128 Q1963.49 142.466 1961.6 141.054 Q1959.72 139.619 1956.2 139.619 Q1954.28 139.619 1952.08 140.035 Q1949.88 140.452 1947.24 141.332 L1947.24 137.165 Q1949.91 136.424 1952.22 136.054 Q1954.56 135.684 1956.62 135.684 Q1961.94 135.684 1965.05 138.114 Q1968.15 140.522 1968.15 144.642 Q1968.15 147.512 1966.5 149.503 Q1964.86 151.471 1961.83 152.234 Z" fill="#000000" fill-rule="evenodd" fill-opacity="1" /><path clip-path="url(#clip990)" d="M1991.99 152.234 Q1995.35 152.952 1997.22 155.221 Q1999.12 157.489 1999.12 160.822 Q1999.12 165.938 1995.6 168.739 Q1992.08 171.54 1985.6 171.54 Q1983.42 171.54 1981.11 171.1 Q1978.82 170.683 1976.36 169.827 L1976.36 165.313 Q1978.31 166.447 1980.62 167.026 Q1982.94 167.605 1985.46 167.605 Q1989.86 167.605 1992.15 165.869 Q1994.47 164.133 1994.47 160.822 Q1994.47 157.767 1992.31 156.054 Q1990.18 154.318 1986.36 154.318 L1982.34 154.318 L1982.34 150.475 L1986.55 150.475 Q1990 150.475 1991.83 149.109 Q1993.66 147.721 1993.66 145.128 Q1993.66 142.466 1991.76 141.054 Q1989.88 139.619 1986.36 139.619 Q1984.44 139.619 1982.24 140.035 Q1980.05 140.452 1977.41 141.332 L1977.41 137.165 Q1980.07 136.424 1982.38 136.054 Q1984.72 135.684 1986.78 135.684 Q1992.11 135.684 1995.21 138.114 Q1998.31 140.522 1998.31 144.642 Q1998.31 147.512 1996.67 149.503 Q1995.02 151.471 1991.99 152.234 Z" fill="#000000" fill-rule="evenodd" fill-opacity="1" /><path clip-path="url(#clip990)" d="M2008.03 136.309 L2026.39 136.309 L2026.39 140.244 L2012.31 140.244 L2012.31 148.716 Q2013.33 148.369 2014.35 148.207 Q2015.37 148.022 2016.39 148.022 Q2022.17 148.022 2025.55 151.193 Q2028.93 154.364 2028.93 159.781 Q2028.93 165.359 2025.46 168.461 Q2021.99 171.54 2015.67 171.54 Q2013.49 171.54 2011.23 171.17 Q2008.98 170.799 2006.57 170.058 L2006.57 165.359 Q2008.66 166.494 2010.88 167.049 Q2013.1 167.605 2015.58 167.605 Q2019.58 167.605 2021.92 165.498 Q2024.26 163.392 2024.26 159.781 Q2024.26 156.17 2021.92 154.063 Q2019.58 151.957 2015.58 151.957 Q2013.7 151.957 2011.83 152.373 Q2009.98 152.79 2008.03 153.67 L2008.03 136.309 Z" fill="#000000" fill-rule="evenodd" fill-opacity="1" /><path clip-path="url(#clip990)" d="M2038.19 136.309 L2056.55 136.309 L2056.55 140.244 L2042.48 140.244 L2042.48 148.716 Q2043.49 148.369 2044.51 148.207 Q2045.53 148.022 2046.55 148.022 Q2052.34 148.022 2055.72 151.193 Q2059.1 154.364 2059.1 159.781 Q2059.1 165.359 2055.62 168.461 Q2052.15 171.54 2045.83 171.54 Q2043.66 171.54 2041.39 171.17 Q2039.14 170.799 2036.73 170.058 L2036.73 165.359 Q2038.82 166.494 2041.04 167.049 Q2043.26 167.605 2045.74 167.605 Q2049.74 167.605 2052.08 165.498 Q2054.42 163.392 2054.42 159.781 Q2054.42 156.17 2052.08 154.063 Q2049.74 151.957 2045.74 151.957 Q2043.86 151.957 2041.99 152.373 Q2040.14 152.79 2038.19 153.67 L2038.19 136.309 Z" fill="#000000" fill-rule="evenodd" fill-opacity="1" /><path clip-path="url(#clip990)" d="M2081.16 140.383 L2069.35 158.832 L2081.16 158.832 L2081.16 140.383 M2079.93 136.309 L2085.81 136.309 L2085.81 158.832 L2090.74 158.832 L2090.74 162.721 L2085.81 162.721 L2085.81 170.869 L2081.16 170.869 L2081.16 162.721 L2065.55 162.721 L2065.55 158.207 L2079.93 136.309 Z" fill="#000000" fill-rule="evenodd" fill-opacity="1" /><path clip-path="url(#clip990)" d="M2111.32 140.383 L2099.51 158.832 L2111.32 158.832 L2111.32 140.383 M2110.09 136.309 L2115.97 136.309 L2115.97 158.832 L2120.9 158.832 L2120.9 162.721 L2115.97 162.721 L2115.97 170.869 L2111.32 170.869 L2111.32 162.721 L2095.72 162.721 L2095.72 158.207 L2110.09 136.309 Z" fill="#000000" fill-rule="evenodd" fill-opacity="1" /><path clip-path="url(#clip990)" d="M2142.8 152.234 Q2146.16 152.952 2148.03 155.221 Q2149.93 157.489 2149.93 160.822 Q2149.93 165.938 2146.41 168.739 Q2142.89 171.54 2136.41 171.54 Q2134.23 171.54 2131.92 171.1 Q2129.63 170.683 2127.17 169.827 L2127.17 165.313 Q2129.12 166.447 2131.43 167.026 Q2133.75 167.605 2136.27 167.605 Q2140.67 167.605 2142.96 165.869 Q2145.28 164.133 2145.28 160.822 Q2145.28 157.767 2143.12 156.054 Q2140.99 154.318 2137.17 154.318 L2133.15 154.318 L2133.15 150.475 L2137.36 150.475 Q2140.81 150.475 2142.64 149.109 Q2144.47 147.721 2144.47 145.128 Q2144.47 142.466 2142.57 141.054 Q2140.69 139.619 2137.17 139.619 Q2135.25 139.619 2133.05 140.035 Q2130.85 140.452 2128.22 141.332 L2128.22 137.165 Q2130.88 136.424 2133.19 136.054 Q2135.53 135.684 2137.59 135.684 Q2142.91 135.684 2146.02 138.114 Q2149.12 140.522 2149.12 144.642 Q2149.12 147.512 2147.47 149.503 Q2145.83 151.471 2142.8 152.234 Z" fill="#000000" fill-rule="evenodd" fill-opacity="1" /><path clip-path="url(#clip990)" d="M2162.82 166.933 L2179.14 166.933 L2179.14 170.869 L2157.2 170.869 L2157.2 166.933 Q2159.86 164.179 2164.44 159.549 Q2169.05 154.896 2170.23 153.554 Q2172.47 151.031 2173.35 149.295 Q2174.26 147.535 2174.26 145.846 Q2174.26 143.091 2172.31 141.355 Q2170.39 139.619 2167.29 139.619 Q2165.09 139.619 2162.64 140.383 Q2160.21 141.147 2157.43 142.697 L2157.43 137.975 Q2160.25 136.841 2162.71 136.262 Q2165.16 135.684 2167.2 135.684 Q2172.57 135.684 2175.76 138.369 Q2178.96 141.054 2178.96 145.545 Q2178.96 147.674 2178.15 149.596 Q2177.36 151.494 2175.25 154.086 Q2174.67 154.758 2171.57 157.975 Q2168.47 161.17 2162.82 166.933 Z" fill="#000000" fill-rule="evenodd" fill-opacity="1" /><path clip-path="url(#clip990)" d="M2187.68 134.897 L2191.39 134.897 Q2194.86 140.36 2196.57 145.591 Q2198.31 150.822 2198.31 155.984 Q2198.31 161.17 2196.57 166.424 Q2194.86 171.679 2191.39 177.119 L2187.68 177.119 Q2190.76 171.818 2192.27 166.586 Q2193.79 161.332 2193.79 155.984 Q2193.79 150.637 2192.27 145.429 Q2190.76 140.221 2187.68 134.897 Z" fill="#000000" fill-rule="evenodd" fill-opacity="1" /><polyline clip-path="url(#clip990)" style="stroke:#e26f46; stroke-linecap:butt; stroke-linejoin:round; stroke-width:4; stroke-opacity:1; fill:none" points="
  1581.03,214.069 1724.95,214.069 
  "/>
<path clip-path="url(#clip990)" d="M1769.28 210.4 Q1770.88 207.529 1773.1 206.164 Q1775.32 204.798 1778.33 204.798 Q1782.38 204.798 1784.58 207.645 Q1786.78 210.469 1786.78 215.701 L1786.78 231.349 L1782.5 231.349 L1782.5 215.839 Q1782.5 212.113 1781.18 210.307 Q1779.86 208.502 1777.15 208.502 Q1773.84 208.502 1771.92 210.701 Q1770 212.9 1770 216.696 L1770 231.349 L1765.72 231.349 L1765.72 215.839 Q1765.72 212.089 1764.4 210.307 Q1763.08 208.502 1760.32 208.502 Q1757.06 208.502 1755.14 210.724 Q1753.22 212.923 1753.22 216.696 L1753.22 231.349 L1748.94 231.349 L1748.94 205.423 L1753.22 205.423 L1753.22 209.451 Q1754.68 207.066 1756.71 205.932 Q1758.75 204.798 1761.55 204.798 Q1764.37 204.798 1766.34 206.233 Q1768.33 207.668 1769.28 210.4 Z" fill="#000000" fill-rule="evenodd" fill-opacity="1" /><path clip-path="url(#clip990)" d="M1807.06 218.316 Q1801.9 218.316 1799.91 219.497 Q1797.92 220.677 1797.92 223.525 Q1797.92 225.793 1799.4 227.136 Q1800.9 228.455 1803.47 228.455 Q1807.01 228.455 1809.14 225.955 Q1811.3 223.432 1811.3 219.265 L1811.3 218.316 L1807.06 218.316 M1815.56 216.557 L1815.56 231.349 L1811.3 231.349 L1811.3 227.413 Q1809.84 229.775 1807.66 230.909 Q1805.49 232.02 1802.34 232.02 Q1798.36 232.02 1796 229.798 Q1793.66 227.552 1793.66 223.802 Q1793.66 219.427 1796.57 217.205 Q1799.51 214.983 1805.32 214.983 L1811.3 214.983 L1811.3 214.566 Q1811.3 211.627 1809.35 210.029 Q1807.43 208.409 1803.93 208.409 Q1801.71 208.409 1799.61 208.941 Q1797.5 209.474 1795.56 210.539 L1795.56 206.603 Q1797.89 205.701 1800.09 205.261 Q1802.29 204.798 1804.37 204.798 Q1810 204.798 1812.78 207.714 Q1815.56 210.631 1815.56 216.557 Z" fill="#000000" fill-rule="evenodd" fill-opacity="1" /><path clip-path="url(#clip990)" d="M1840.86 206.187 L1840.86 210.214 Q1839.05 209.289 1837.11 208.826 Q1835.16 208.363 1833.08 208.363 Q1829.91 208.363 1828.31 209.335 Q1826.74 210.307 1826.74 212.251 Q1826.74 213.733 1827.87 214.589 Q1829 215.423 1832.43 216.187 L1833.89 216.511 Q1838.43 217.483 1840.32 219.265 Q1842.24 221.025 1842.24 224.196 Q1842.24 227.807 1839.37 229.913 Q1836.53 232.02 1831.53 232.02 Q1829.44 232.02 1827.18 231.603 Q1824.93 231.21 1822.43 230.4 L1822.43 226.001 Q1824.79 227.228 1827.08 227.853 Q1829.37 228.455 1831.62 228.455 Q1834.63 228.455 1836.25 227.437 Q1837.87 226.395 1837.87 224.52 Q1837.87 222.784 1836.69 221.858 Q1835.53 220.932 1831.57 220.076 L1830.09 219.728 Q1826.13 218.895 1824.37 217.182 Q1822.62 215.446 1822.62 212.437 Q1822.62 208.779 1825.21 206.789 Q1827.8 204.798 1832.57 204.798 Q1834.93 204.798 1837.01 205.145 Q1839.1 205.492 1840.86 206.187 Z" fill="#000000" fill-rule="evenodd" fill-opacity="1" /><path clip-path="url(#clip990)" d="M1865.55 206.187 L1865.55 210.214 Q1863.75 209.289 1861.8 208.826 Q1859.86 208.363 1857.78 208.363 Q1854.61 208.363 1853.01 209.335 Q1851.43 210.307 1851.43 212.251 Q1851.43 213.733 1852.57 214.589 Q1853.7 215.423 1857.13 216.187 L1858.59 216.511 Q1863.12 217.483 1865.02 219.265 Q1866.94 221.025 1866.94 224.196 Q1866.94 227.807 1864.07 229.913 Q1861.23 232.02 1856.23 232.02 Q1854.14 232.02 1851.87 231.603 Q1849.63 231.21 1847.13 230.4 L1847.13 226.001 Q1849.49 227.228 1851.78 227.853 Q1854.07 228.455 1856.32 228.455 Q1859.33 228.455 1860.95 227.437 Q1862.57 226.395 1862.57 224.52 Q1862.57 222.784 1861.39 221.858 Q1860.23 220.932 1856.27 220.076 L1854.79 219.728 Q1850.83 218.895 1849.07 217.182 Q1847.31 215.446 1847.31 212.437 Q1847.31 208.779 1849.91 206.789 Q1852.5 204.798 1857.27 204.798 Q1859.63 204.798 1861.71 205.145 Q1863.8 205.492 1865.55 206.187 Z" fill="#000000" fill-rule="evenodd" fill-opacity="1" /><path clip-path="url(#clip990)" d="M1874.33 225.469 L1879.21 225.469 L1879.21 231.349 L1874.33 231.349 L1874.33 225.469 Z" fill="#000000" fill-rule="evenodd" fill-opacity="1" /><path clip-path="url(#clip990)" d="M1885.74 205.423 L1890.25 205.423 L1898.36 227.182 L1906.46 205.423 L1910.97 205.423 L1901.25 231.349 L1895.46 231.349 L1885.74 205.423 Z" fill="#000000" fill-rule="evenodd" fill-opacity="1" /><path clip-path="url(#clip990)" d="M1942.15 195.377 Q1939.05 200.701 1937.55 205.909 Q1936.04 211.117 1936.04 216.464 Q1936.04 221.812 1937.55 227.066 Q1939.07 232.298 1942.15 237.599 L1938.45 237.599 Q1934.98 232.159 1933.24 226.904 Q1931.53 221.65 1931.53 216.464 Q1931.53 211.302 1933.24 206.071 Q1934.95 200.84 1938.45 195.377 L1942.15 195.377 Z" fill="#000000" fill-rule="evenodd" fill-opacity="1" /><path clip-path="url(#clip990)" d="M1965.18 212.714 Q1968.54 213.432 1970.42 215.701 Q1972.31 217.969 1972.31 221.302 Q1972.31 226.418 1968.8 229.219 Q1965.28 232.02 1958.8 232.02 Q1956.62 232.02 1954.3 231.58 Q1952.01 231.163 1949.56 230.307 L1949.56 225.793 Q1951.5 226.927 1953.82 227.506 Q1956.13 228.085 1958.66 228.085 Q1963.05 228.085 1965.35 226.349 Q1967.66 224.613 1967.66 221.302 Q1967.66 218.247 1965.51 216.534 Q1963.38 214.798 1959.56 214.798 L1955.53 214.798 L1955.53 210.955 L1959.74 210.955 Q1963.19 210.955 1965.02 209.589 Q1966.85 208.201 1966.85 205.608 Q1966.85 202.946 1964.95 201.534 Q1963.08 200.099 1959.56 200.099 Q1957.64 200.099 1955.44 200.515 Q1953.24 200.932 1950.6 201.812 L1950.6 197.645 Q1953.26 196.904 1955.58 196.534 Q1957.92 196.164 1959.98 196.164 Q1965.3 196.164 1968.4 198.594 Q1971.5 201.002 1971.5 205.122 Q1971.5 207.992 1969.86 209.983 Q1968.22 211.951 1965.18 212.714 Z" fill="#000000" fill-rule="evenodd" fill-opacity="1" /><path clip-path="url(#clip990)" d="M1995.35 212.714 Q1998.7 213.432 2000.58 215.701 Q2002.48 217.969 2002.48 221.302 Q2002.48 226.418 1998.96 229.219 Q1995.44 232.02 1988.96 232.02 Q1986.78 232.02 1984.47 231.58 Q1982.17 231.163 1979.72 230.307 L1979.72 225.793 Q1981.67 226.927 1983.98 227.506 Q1986.3 228.085 1988.82 228.085 Q1993.22 228.085 1995.51 226.349 Q1997.82 224.613 1997.82 221.302 Q1997.82 218.247 1995.67 216.534 Q1993.54 214.798 1989.72 214.798 L1985.69 214.798 L1985.69 210.955 L1989.91 210.955 Q1993.36 210.955 1995.18 209.589 Q1997.01 208.201 1997.01 205.608 Q1997.01 202.946 1995.11 201.534 Q1993.24 200.099 1989.72 200.099 Q1987.8 200.099 1985.6 200.515 Q1983.4 200.932 1980.76 201.812 L1980.76 197.645 Q1983.42 196.904 1985.74 196.534 Q1988.08 196.164 1990.14 196.164 Q1995.46 196.164 1998.56 198.594 Q2001.67 201.002 2001.67 205.122 Q2001.67 207.992 2000.02 209.983 Q1998.38 211.951 1995.35 212.714 Z" fill="#000000" fill-rule="evenodd" fill-opacity="1" /><path clip-path="url(#clip990)" d="M2011.39 196.789 L2029.74 196.789 L2029.74 200.724 L2015.67 200.724 L2015.67 209.196 Q2016.69 208.849 2017.71 208.687 Q2018.73 208.502 2019.74 208.502 Q2025.53 208.502 2028.91 211.673 Q2032.29 214.844 2032.29 220.261 Q2032.29 225.839 2028.82 228.941 Q2025.35 232.02 2019.03 232.02 Q2016.85 232.02 2014.58 231.65 Q2012.34 231.279 2009.93 230.538 L2009.93 225.839 Q2012.01 226.974 2014.23 227.529 Q2016.46 228.085 2018.93 228.085 Q2022.94 228.085 2025.28 225.978 Q2027.61 223.872 2027.61 220.261 Q2027.61 216.65 2025.28 214.543 Q2022.94 212.437 2018.93 212.437 Q2017.06 212.437 2015.18 212.853 Q2013.33 213.27 2011.39 214.15 L2011.39 196.789 Z" fill="#000000" fill-rule="evenodd" fill-opacity="1" /><path clip-path="url(#clip990)" d="M2041.55 196.789 L2059.91 196.789 L2059.91 200.724 L2045.83 200.724 L2045.83 209.196 Q2046.85 208.849 2047.87 208.687 Q2048.89 208.502 2049.91 208.502 Q2055.69 208.502 2059.07 211.673 Q2062.45 214.844 2062.45 220.261 Q2062.45 225.839 2058.98 228.941 Q2055.51 232.02 2049.19 232.02 Q2047.01 232.02 2044.74 231.65 Q2042.5 231.279 2040.09 230.538 L2040.09 225.839 Q2042.17 226.974 2044.4 227.529 Q2046.62 228.085 2049.1 228.085 Q2053.1 228.085 2055.44 225.978 Q2057.78 223.872 2057.78 220.261 Q2057.78 216.65 2055.44 214.543 Q2053.1 212.437 2049.1 212.437 Q2047.22 212.437 2045.35 212.853 Q2043.49 213.27 2041.55 214.15 L2041.55 196.789 Z" fill="#000000" fill-rule="evenodd" fill-opacity="1" /><path clip-path="url(#clip990)" d="M2084.51 200.863 L2072.71 219.312 L2084.51 219.312 L2084.51 200.863 M2083.29 196.789 L2089.16 196.789 L2089.16 219.312 L2094.1 219.312 L2094.1 223.201 L2089.16 223.201 L2089.16 231.349 L2084.51 231.349 L2084.51 223.201 L2068.91 223.201 L2068.91 218.687 L2083.29 196.789 Z" fill="#000000" fill-rule="evenodd" fill-opacity="1" /><path clip-path="url(#clip990)" d="M2114.67 200.863 L2102.87 219.312 L2114.67 219.312 L2114.67 200.863 M2113.45 196.789 L2119.33 196.789 L2119.33 219.312 L2124.26 219.312 L2124.26 223.201 L2119.33 223.201 L2119.33 231.349 L2114.67 231.349 L2114.67 223.201 L2099.07 223.201 L2099.07 218.687 L2113.45 196.789 Z" fill="#000000" fill-rule="evenodd" fill-opacity="1" /><path clip-path="url(#clip990)" d="M2146.16 212.714 Q2149.51 213.432 2151.39 215.701 Q2153.28 217.969 2153.28 221.302 Q2153.28 226.418 2149.77 229.219 Q2146.25 232.02 2139.77 232.02 Q2137.59 232.02 2135.28 231.58 Q2132.98 231.163 2130.53 230.307 L2130.53 225.793 Q2132.47 226.927 2134.79 227.506 Q2137.1 228.085 2139.63 228.085 Q2144.03 228.085 2146.32 226.349 Q2148.63 224.613 2148.63 221.302 Q2148.63 218.247 2146.48 216.534 Q2144.35 214.798 2140.53 214.798 L2136.5 214.798 L2136.5 210.955 L2140.72 210.955 Q2144.16 210.955 2145.99 209.589 Q2147.82 208.201 2147.82 205.608 Q2147.82 202.946 2145.92 201.534 Q2144.05 200.099 2140.53 200.099 Q2138.61 200.099 2136.41 200.515 Q2134.21 200.932 2131.57 201.812 L2131.57 197.645 Q2134.23 196.904 2136.55 196.534 Q2138.89 196.164 2140.95 196.164 Q2146.27 196.164 2149.37 198.594 Q2152.47 201.002 2152.47 205.122 Q2152.47 207.992 2150.83 209.983 Q2149.19 211.951 2146.16 212.714 Z" fill="#000000" fill-rule="evenodd" fill-opacity="1" /><path clip-path="url(#clip990)" d="M2176.32 212.714 Q2179.67 213.432 2181.55 215.701 Q2183.45 217.969 2183.45 221.302 Q2183.45 226.418 2179.93 229.219 Q2176.41 232.02 2169.93 232.02 Q2167.75 232.02 2165.44 231.58 Q2163.15 231.163 2160.69 230.307 L2160.69 225.793 Q2162.64 226.927 2164.95 227.506 Q2167.27 228.085 2169.79 228.085 Q2174.19 228.085 2176.48 226.349 Q2178.79 224.613 2178.79 221.302 Q2178.79 218.247 2176.64 216.534 Q2174.51 214.798 2170.69 214.798 L2166.66 214.798 L2166.66 210.955 L2170.88 210.955 Q2174.33 210.955 2176.16 209.589 Q2177.98 208.201 2177.98 205.608 Q2177.98 202.946 2176.09 201.534 Q2174.21 200.099 2170.69 200.099 Q2168.77 200.099 2166.57 200.515 Q2164.37 200.932 2161.73 201.812 L2161.73 197.645 Q2164.4 196.904 2166.71 196.534 Q2169.05 196.164 2171.11 196.164 Q2176.43 196.164 2179.53 198.594 Q2182.64 201.002 2182.64 205.122 Q2182.64 207.992 2180.99 209.983 Q2179.35 211.951 2176.32 212.714 Z" fill="#000000" fill-rule="evenodd" fill-opacity="1" /><path clip-path="url(#clip990)" d="M2191.04 195.377 L2194.74 195.377 Q2198.22 200.84 2199.93 206.071 Q2201.66 211.302 2201.66 216.464 Q2201.66 221.65 2199.93 226.904 Q2198.22 232.159 2194.74 237.599 L2191.04 237.599 Q2194.12 232.298 2195.62 227.066 Q2197.15 221.812 2197.15 216.464 Q2197.15 211.117 2195.62 205.909 Q2194.12 200.701 2191.04 195.377 Z" fill="#000000" fill-rule="evenodd" fill-opacity="1" /><polyline clip-path="url(#clip990)" style="stroke:#3da44d; stroke-linecap:butt; stroke-linejoin:round; stroke-width:4; stroke-opacity:1; fill:none" points="
  1581.03,274.549 1724.95,274.549 
  "/>
<path clip-path="url(#clip990)" d="M1769.28 270.88 Q1770.88 268.009 1773.1 266.644 Q1775.32 265.278 1778.33 265.278 Q1782.38 265.278 1784.58 268.125 Q1786.78 270.949 1786.78 276.181 L1786.78 291.829 L1782.5 291.829 L1782.5 276.319 Q1782.5 272.593 1781.18 270.787 Q1779.86 268.982 1777.15 268.982 Q1773.84 268.982 1771.92 271.181 Q1770 273.38 1770 277.176 L1770 291.829 L1765.72 291.829 L1765.72 276.319 Q1765.72 272.569 1764.4 270.787 Q1763.08 268.982 1760.32 268.982 Q1757.06 268.982 1755.14 271.204 Q1753.22 273.403 1753.22 277.176 L1753.22 291.829 L1748.94 291.829 L1748.94 265.903 L1753.22 265.903 L1753.22 269.931 Q1754.68 267.546 1756.71 266.412 Q1758.75 265.278 1761.55 265.278 Q1764.37 265.278 1766.34 266.713 Q1768.33 268.148 1769.28 270.88 Z" fill="#000000" fill-rule="evenodd" fill-opacity="1" /><path clip-path="url(#clip990)" d="M1807.06 278.796 Q1801.9 278.796 1799.91 279.977 Q1797.92 281.157 1797.92 284.005 Q1797.92 286.273 1799.4 287.616 Q1800.9 288.935 1803.47 288.935 Q1807.01 288.935 1809.14 286.435 Q1811.3 283.912 1811.3 279.745 L1811.3 278.796 L1807.06 278.796 M1815.56 277.037 L1815.56 291.829 L1811.3 291.829 L1811.3 287.893 Q1809.84 290.255 1807.66 291.389 Q1805.49 292.5 1802.34 292.5 Q1798.36 292.5 1796 290.278 Q1793.66 288.032 1793.66 284.282 Q1793.66 279.907 1796.57 277.685 Q1799.51 275.463 1805.32 275.463 L1811.3 275.463 L1811.3 275.046 Q1811.3 272.107 1809.35 270.509 Q1807.43 268.889 1803.93 268.889 Q1801.71 268.889 1799.61 269.421 Q1797.5 269.954 1795.56 271.019 L1795.56 267.083 Q1797.89 266.181 1800.09 265.741 Q1802.29 265.278 1804.37 265.278 Q1810 265.278 1812.78 268.194 Q1815.56 271.111 1815.56 277.037 Z" fill="#000000" fill-rule="evenodd" fill-opacity="1" /><path clip-path="url(#clip990)" d="M1840.86 266.667 L1840.86 270.694 Q1839.05 269.769 1837.11 269.306 Q1835.16 268.843 1833.08 268.843 Q1829.91 268.843 1828.31 269.815 Q1826.74 270.787 1826.74 272.731 Q1826.74 274.213 1827.87 275.069 Q1829 275.903 1832.43 276.667 L1833.89 276.991 Q1838.43 277.963 1840.32 279.745 Q1842.24 281.505 1842.24 284.676 Q1842.24 288.287 1839.37 290.393 Q1836.53 292.5 1831.53 292.5 Q1829.44 292.5 1827.18 292.083 Q1824.93 291.69 1822.43 290.88 L1822.43 286.481 Q1824.79 287.708 1827.08 288.333 Q1829.37 288.935 1831.62 288.935 Q1834.63 288.935 1836.25 287.917 Q1837.87 286.875 1837.87 285 Q1837.87 283.264 1836.69 282.338 Q1835.53 281.412 1831.57 280.556 L1830.09 280.208 Q1826.13 279.375 1824.37 277.662 Q1822.62 275.926 1822.62 272.917 Q1822.62 269.259 1825.21 267.269 Q1827.8 265.278 1832.57 265.278 Q1834.93 265.278 1837.01 265.625 Q1839.1 265.972 1840.86 266.667 Z" fill="#000000" fill-rule="evenodd" fill-opacity="1" /><path clip-path="url(#clip990)" d="M1865.55 266.667 L1865.55 270.694 Q1863.75 269.769 1861.8 269.306 Q1859.86 268.843 1857.78 268.843 Q1854.61 268.843 1853.01 269.815 Q1851.43 270.787 1851.43 272.731 Q1851.43 274.213 1852.57 275.069 Q1853.7 275.903 1857.13 276.667 L1858.59 276.991 Q1863.12 277.963 1865.02 279.745 Q1866.94 281.505 1866.94 284.676 Q1866.94 288.287 1864.07 290.393 Q1861.23 292.5 1856.23 292.5 Q1854.14 292.5 1851.87 292.083 Q1849.63 291.69 1847.13 290.88 L1847.13 286.481 Q1849.49 287.708 1851.78 288.333 Q1854.07 288.935 1856.32 288.935 Q1859.33 288.935 1860.95 287.917 Q1862.57 286.875 1862.57 285 Q1862.57 283.264 1861.39 282.338 Q1860.23 281.412 1856.27 280.556 L1854.79 280.208 Q1850.83 279.375 1849.07 277.662 Q1847.31 275.926 1847.31 272.917 Q1847.31 269.259 1849.91 267.269 Q1852.5 265.278 1857.27 265.278 Q1859.63 265.278 1861.71 265.625 Q1863.8 265.972 1865.55 266.667 Z" fill="#000000" fill-rule="evenodd" fill-opacity="1" /><path clip-path="url(#clip990)" d="M1874.33 285.949 L1879.21 285.949 L1879.21 291.829 L1874.33 291.829 L1874.33 285.949 Z" fill="#000000" fill-rule="evenodd" fill-opacity="1" /><path clip-path="url(#clip990)" d="M1900.58 278.796 Q1895.42 278.796 1893.43 279.977 Q1891.43 281.157 1891.43 284.005 Q1891.43 286.273 1892.92 287.616 Q1894.42 288.935 1896.99 288.935 Q1900.53 288.935 1902.66 286.435 Q1904.81 283.912 1904.81 279.745 L1904.81 278.796 L1900.58 278.796 M1909.07 277.037 L1909.07 291.829 L1904.81 291.829 L1904.81 287.893 Q1903.36 290.255 1901.18 291.389 Q1899 292.5 1895.86 292.5 Q1891.87 292.5 1889.51 290.278 Q1887.18 288.032 1887.18 284.282 Q1887.18 279.907 1890.09 277.685 Q1893.03 275.463 1898.84 275.463 L1904.81 275.463 L1904.81 275.046 Q1904.81 272.107 1902.87 270.509 Q1900.95 268.889 1897.45 268.889 Q1895.23 268.889 1893.12 269.421 Q1891.02 269.954 1889.07 271.019 L1889.07 267.083 Q1891.41 266.181 1893.61 265.741 Q1895.81 265.278 1897.89 265.278 Q1903.52 265.278 1906.3 268.194 Q1909.07 271.111 1909.07 277.037 Z" fill="#000000" fill-rule="evenodd" fill-opacity="1" /><path clip-path="url(#clip990)" d="M1943.15 255.857 Q1940.05 261.181 1938.54 266.389 Q1937.04 271.597 1937.04 276.944 Q1937.04 282.292 1938.54 287.546 Q1940.07 292.778 1943.15 298.079 L1939.44 298.079 Q1935.97 292.639 1934.24 287.384 Q1932.52 282.13 1932.52 276.944 Q1932.52 271.782 1934.24 266.551 Q1935.95 261.32 1939.44 255.857 L1943.15 255.857 Z" fill="#000000" fill-rule="evenodd" fill-opacity="1" /><path clip-path="url(#clip990)" d="M1952.06 257.269 L1970.42 257.269 L1970.42 261.204 L1956.34 261.204 L1956.34 269.676 Q1957.36 269.329 1958.38 269.167 Q1959.4 268.982 1960.42 268.982 Q1966.2 268.982 1969.58 272.153 Q1972.96 275.324 1972.96 280.741 Q1972.96 286.319 1969.49 289.421 Q1966.02 292.5 1959.7 292.5 Q1957.52 292.5 1955.25 292.13 Q1953.01 291.759 1950.6 291.018 L1950.6 286.319 Q1952.68 287.454 1954.91 288.009 Q1957.13 288.565 1959.61 288.565 Q1963.61 288.565 1965.95 286.458 Q1968.29 284.352 1968.29 280.741 Q1968.29 277.13 1965.95 275.023 Q1963.61 272.917 1959.61 272.917 Q1957.73 272.917 1955.86 273.333 Q1954 273.75 1952.06 274.63 L1952.06 257.269 Z" fill="#000000" fill-rule="evenodd" fill-opacity="1" /><path clip-path="url(#clip990)" d="M1992.17 275.417 Q1988.84 275.417 1986.92 277.199 Q1985.02 278.981 1985.02 282.106 Q1985.02 285.231 1986.92 287.014 Q1988.84 288.796 1992.17 288.796 Q1995.51 288.796 1997.43 287.014 Q1999.35 285.208 1999.35 282.106 Q1999.35 278.981 1997.43 277.199 Q1995.53 275.417 1992.17 275.417 M1987.5 273.426 Q1984.49 272.685 1982.8 270.625 Q1981.13 268.565 1981.13 265.602 Q1981.13 261.458 1984.07 259.051 Q1987.04 256.644 1992.17 256.644 Q1997.34 256.644 2000.28 259.051 Q2003.22 261.458 2003.22 265.602 Q2003.22 268.565 2001.53 270.625 Q1999.86 272.685 1996.87 273.426 Q2000.25 274.213 2002.13 276.505 Q2004.03 278.796 2004.03 282.106 Q2004.03 287.13 2000.95 289.815 Q1997.89 292.5 1992.17 292.5 Q1986.46 292.5 1983.38 289.815 Q1980.32 287.13 1980.32 282.106 Q1980.32 278.796 1982.22 276.505 Q1984.12 274.213 1987.5 273.426 M1985.79 266.042 Q1985.79 268.727 1987.45 270.232 Q1989.14 271.736 1992.17 271.736 Q1995.18 271.736 1996.87 270.232 Q1998.59 268.727 1998.59 266.042 Q1998.59 263.357 1996.87 261.852 Q1995.18 260.347 1992.17 260.347 Q1989.14 260.347 1987.45 261.852 Q1985.79 263.357 1985.79 266.042 Z" fill="#000000" fill-rule="evenodd" fill-opacity="1" /><path clip-path="url(#clip990)" d="M2011.16 257.269 L2033.38 257.269 L2033.38 259.259 L2020.83 291.829 L2015.95 291.829 L2027.75 261.204 L2011.16 261.204 L2011.16 257.269 Z" fill="#000000" fill-rule="evenodd" fill-opacity="1" /><path clip-path="url(#clip990)" d="M2046.53 287.893 L2062.85 287.893 L2062.85 291.829 L2040.9 291.829 L2040.9 287.893 Q2043.56 285.139 2048.15 280.509 Q2052.75 275.856 2053.93 274.514 Q2056.18 271.991 2057.06 270.255 Q2057.96 268.495 2057.96 266.806 Q2057.96 264.051 2056.02 262.315 Q2054.1 260.579 2050.99 260.579 Q2048.79 260.579 2046.34 261.343 Q2043.91 262.107 2041.13 263.657 L2041.13 258.935 Q2043.96 257.801 2046.41 257.222 Q2048.86 256.644 2050.9 256.644 Q2056.27 256.644 2059.47 259.329 Q2062.66 262.014 2062.66 266.505 Q2062.66 268.634 2061.85 270.556 Q2061.06 272.454 2058.96 275.046 Q2058.38 275.718 2055.28 278.935 Q2052.17 282.13 2046.53 287.893 Z" fill="#000000" fill-rule="evenodd" fill-opacity="1" /><path clip-path="url(#clip990)" d="M2082.66 260.347 Q2079.05 260.347 2077.22 263.912 Q2075.41 267.454 2075.41 274.583 Q2075.41 281.69 2077.22 285.255 Q2079.05 288.796 2082.66 288.796 Q2086.29 288.796 2088.1 285.255 Q2089.93 281.69 2089.93 274.583 Q2089.93 267.454 2088.1 263.912 Q2086.29 260.347 2082.66 260.347 M2082.66 256.644 Q2088.47 256.644 2091.53 261.25 Q2094.6 265.833 2094.6 274.583 Q2094.6 283.31 2091.53 287.917 Q2088.47 292.5 2082.66 292.5 Q2076.85 292.5 2073.77 287.917 Q2070.72 283.31 2070.72 274.583 Q2070.72 265.833 2073.77 261.25 Q2076.85 256.644 2082.66 256.644 Z" fill="#000000" fill-rule="evenodd" fill-opacity="1" /><path clip-path="url(#clip990)" d="M2106.85 287.893 L2123.17 287.893 L2123.17 291.829 L2101.22 291.829 L2101.22 287.893 Q2103.89 285.139 2108.47 280.509 Q2113.08 275.856 2114.26 274.514 Q2116.5 271.991 2117.38 270.255 Q2118.29 268.495 2118.29 266.806 Q2118.29 264.051 2116.34 262.315 Q2114.42 260.579 2111.32 260.579 Q2109.12 260.579 2106.66 261.343 Q2104.23 262.107 2101.46 263.657 L2101.46 258.935 Q2104.28 257.801 2106.73 257.222 Q2109.19 256.644 2111.22 256.644 Q2116.6 256.644 2119.79 259.329 Q2122.98 262.014 2122.98 266.505 Q2122.98 268.634 2122.17 270.556 Q2121.39 272.454 2119.28 275.046 Q2118.7 275.718 2115.6 278.935 Q2112.5 282.13 2106.85 287.893 Z" fill="#000000" fill-rule="evenodd" fill-opacity="1" /><path clip-path="url(#clip990)" d="M2133.03 257.269 L2151.39 257.269 L2151.39 261.204 L2137.31 261.204 L2137.31 269.676 Q2138.33 269.329 2139.35 269.167 Q2140.37 268.982 2141.39 268.982 Q2147.17 268.982 2150.55 272.153 Q2153.93 275.324 2153.93 280.741 Q2153.93 286.319 2150.46 289.421 Q2146.99 292.5 2140.67 292.5 Q2138.49 292.5 2136.22 292.13 Q2133.98 291.759 2131.57 291.018 L2131.57 286.319 Q2133.66 287.454 2135.88 288.009 Q2138.1 288.565 2140.58 288.565 Q2144.58 288.565 2146.92 286.458 Q2149.26 284.352 2149.26 280.741 Q2149.26 277.13 2146.92 275.023 Q2144.58 272.917 2140.58 272.917 Q2138.7 272.917 2136.83 273.333 Q2134.97 273.75 2133.03 274.63 L2133.03 257.269 Z" fill="#000000" fill-rule="evenodd" fill-opacity="1" /><path clip-path="url(#clip990)" d="M2173.72 272.685 Q2170.58 272.685 2168.72 274.838 Q2166.9 276.991 2166.9 280.741 Q2166.9 284.468 2168.72 286.643 Q2170.58 288.796 2173.72 288.796 Q2176.87 288.796 2178.7 286.643 Q2180.55 284.468 2180.55 280.741 Q2180.55 276.991 2178.7 274.838 Q2176.87 272.685 2173.72 272.685 M2183.01 258.033 L2183.01 262.292 Q2181.25 261.458 2179.44 261.019 Q2177.66 260.579 2175.9 260.579 Q2171.27 260.579 2168.82 263.704 Q2166.39 266.829 2166.04 273.148 Q2167.41 271.134 2169.47 270.069 Q2171.53 268.982 2174 268.982 Q2179.21 268.982 2182.22 272.153 Q2185.25 275.301 2185.25 280.741 Q2185.25 286.065 2182.1 289.282 Q2178.96 292.5 2173.72 292.5 Q2167.73 292.5 2164.56 287.917 Q2161.39 283.31 2161.39 274.583 Q2161.39 266.389 2165.28 261.528 Q2169.16 256.644 2175.72 256.644 Q2177.47 256.644 2179.26 256.991 Q2181.06 257.338 2183.01 258.033 Z" fill="#000000" fill-rule="evenodd" fill-opacity="1" /><path clip-path="url(#clip990)" d="M2194.12 287.893 L2201.76 287.893 L2201.76 261.528 L2193.45 263.195 L2193.45 258.935 L2201.71 257.269 L2206.39 257.269 L2206.39 287.893 L2214.03 287.893 L2214.03 291.829 L2194.12 291.829 L2194.12 287.893 Z" fill="#000000" fill-rule="evenodd" fill-opacity="1" /><path clip-path="url(#clip990)" d="M2222.2 255.857 L2225.9 255.857 Q2229.37 261.32 2231.09 266.551 Q2232.82 271.782 2232.82 276.944 Q2232.82 282.13 2231.09 287.384 Q2229.37 292.639 2225.9 298.079 L2222.2 298.079 Q2225.28 292.778 2226.78 287.546 Q2228.31 282.292 2228.31 276.944 Q2228.31 271.597 2226.78 266.389 Q2225.28 261.181 2222.2 255.857 Z" fill="#000000" fill-rule="evenodd" fill-opacity="1" /></svg>
