<?xml version="1.0" encoding="utf-8"?>
<svg xmlns="http://www.w3.org/2000/svg" xmlns:xlink="http://www.w3.org/1999/xlink" width="600" height="400" viewBox="0 0 2400 1600">
<defs>
  <clipPath id="clip320">
    <rect x="0" y="0" width="2400" height="1600"/>
  </clipPath>
</defs>
<path clip-path="url(#clip320)" d="
M0 1600 L2400 1600 L2400 0 L0 0  Z
  " fill="#ffffff" fill-rule="evenodd" fill-opacity="1"/>
<defs>
  <clipPath id="clip321">
    <rect x="480" y="0" width="1681" height="1600"/>
  </clipPath>
</defs>
<path clip-path="url(#clip320)" d="
M303.503 1401.58 L2352.76 1401.58 L2352.76 47.2441 L303.503 47.2441  Z
  " fill="#ffffff" fill-rule="evenodd" fill-opacity="1"/>
<defs>
  <clipPath id="clip322">
    <rect x="303" y="47" width="2050" height="1355"/>
  </clipPath>
</defs>
<polyline clip-path="url(#clip322)" style="stroke:#000000; stroke-linecap:round; stroke-linejoin:round; stroke-width:2; stroke-opacity:0.1; fill:none" points="
  361.501,1401.58 361.501,47.2441 
  "/>
<polyline clip-path="url(#clip322)" style="stroke:#000000; stroke-linecap:round; stroke-linejoin:round; stroke-width:2; stroke-opacity:0.1; fill:none" points="
  748.152,1401.58 748.152,47.2441 
  "/>
<polyline clip-path="url(#clip322)" style="stroke:#000000; stroke-linecap:round; stroke-linejoin:round; stroke-width:2; stroke-opacity:0.1; fill:none" points="
  1134.8,1401.58 1134.8,47.2441 
  "/>
<polyline clip-path="url(#clip322)" style="stroke:#000000; stroke-linecap:round; stroke-linejoin:round; stroke-width:2; stroke-opacity:0.1; fill:none" points="
  1521.46,1401.58 1521.46,47.2441 
  "/>
<polyline clip-path="url(#clip322)" style="stroke:#000000; stroke-linecap:round; stroke-linejoin:round; stroke-width:2; stroke-opacity:0.1; fill:none" points="
  1908.11,1401.58 1908.11,47.2441 
  "/>
<polyline clip-path="url(#clip322)" style="stroke:#000000; stroke-linecap:round; stroke-linejoin:round; stroke-width:2; stroke-opacity:0.1; fill:none" points="
  2294.76,1401.58 2294.76,47.2441 
  "/>
<polyline clip-path="url(#clip320)" style="stroke:#000000; stroke-linecap:round; stroke-linejoin:round; stroke-width:4; stroke-opacity:1; fill:none" points="
  303.503,1401.58 2352.76,1401.58 
  "/>
<polyline clip-path="url(#clip320)" style="stroke:#000000; stroke-linecap:round; stroke-linejoin:round; stroke-width:4; stroke-opacity:1; fill:none" points="
  361.501,1401.58 361.501,1382.68 
  "/>
<polyline clip-path="url(#clip320)" style="stroke:#000000; stroke-linecap:round; stroke-linejoin:round; stroke-width:4; stroke-opacity:1; fill:none" points="
  748.152,1401.58 748.152,1382.68 
  "/>
<polyline clip-path="url(#clip320)" style="stroke:#000000; stroke-linecap:round; stroke-linejoin:round; stroke-width:4; stroke-opacity:1; fill:none" points="
  1134.8,1401.58 1134.8,1382.68 
  "/>
<polyline clip-path="url(#clip320)" style="stroke:#000000; stroke-linecap:round; stroke-linejoin:round; stroke-width:4; stroke-opacity:1; fill:none" points="
  1521.46,1401.58 1521.46,1382.68 
  "/>
<polyline clip-path="url(#clip320)" style="stroke:#000000; stroke-linecap:round; stroke-linejoin:round; stroke-width:4; stroke-opacity:1; fill:none" points="
  1908.11,1401.58 1908.11,1382.68 
  "/>
<polyline clip-path="url(#clip320)" style="stroke:#000000; stroke-linecap:round; stroke-linejoin:round; stroke-width:4; stroke-opacity:1; fill:none" points="
  2294.76,1401.58 2294.76,1382.68 
  "/>
<path clip-path="url(#clip320)" d="M361.501 1438.36 Q356.084 1438.36 353.341 1443.71 Q350.633 1449.02 350.633 1459.71 Q350.633 1470.37 353.341 1475.72 Q356.084 1481.03 361.501 1481.03 Q366.952 1481.03 369.66 1475.72 Q372.403 1470.37 372.403 1459.71 Q372.403 1449.02 369.66 1443.71 Q366.952 1438.36 361.501 1438.36 M361.501 1432.8 Q370.216 1432.8 374.799 1439.71 Q379.417 1446.59 379.417 1459.71 Q379.417 1472.8 374.799 1479.71 Q370.216 1486.59 361.501 1486.59 Q352.785 1486.59 348.167 1479.71 Q343.584 1472.8 343.584 1459.71 Q343.584 1446.59 348.167 1439.71 Q352.785 1432.8 361.501 1432.8 Z" fill="#000000" fill-rule="evenodd" fill-opacity="1" /><path clip-path="url(#clip320)" d="M733.725 1479.68 L745.183 1479.68 L745.183 1440.13 L732.718 1442.63 L732.718 1436.24 L745.114 1433.74 L752.128 1433.74 L752.128 1479.68 L763.586 1479.68 L763.586 1485.58 L733.725 1485.58 L733.725 1479.68 Z" fill="#000000" fill-rule="evenodd" fill-opacity="1" /><path clip-path="url(#clip320)" d="M1126.78 1479.68 L1151.26 1479.68 L1151.26 1485.58 L1118.35 1485.58 L1118.35 1479.68 Q1122.34 1475.55 1129.21 1468.6 Q1136.12 1461.62 1137.89 1459.61 Q1141.26 1455.82 1142.58 1453.22 Q1143.94 1450.58 1143.94 1448.05 Q1143.94 1443.91 1141.02 1441.31 Q1138.14 1438.71 1133.48 1438.71 Q1130.19 1438.71 1126.51 1439.85 Q1122.86 1441 1118.69 1443.32 L1118.69 1436.24 Q1122.93 1434.54 1126.61 1433.67 Q1130.29 1432.8 1133.35 1432.8 Q1141.4 1432.8 1146.19 1436.83 Q1150.98 1440.86 1150.98 1447.59 Q1150.98 1450.79 1149.77 1453.67 Q1148.59 1456.52 1145.43 1460.41 Q1144.56 1461.41 1139.91 1466.24 Q1135.26 1471.03 1126.78 1479.68 Z" fill="#000000" fill-rule="evenodd" fill-opacity="1" /><path clip-path="url(#clip320)" d="M1527.83 1457.63 Q1532.86 1458.7 1535.67 1462.11 Q1538.52 1465.51 1538.52 1470.51 Q1538.52 1478.18 1533.24 1482.39 Q1527.97 1486.59 1518.24 1486.59 Q1514.98 1486.59 1511.51 1485.93 Q1508.07 1485.3 1504.39 1484.02 L1504.39 1477.25 Q1507.31 1478.95 1510.78 1479.82 Q1514.25 1480.68 1518.04 1480.68 Q1524.63 1480.68 1528.07 1478.08 Q1531.54 1475.48 1531.54 1470.51 Q1531.54 1465.93 1528.31 1463.36 Q1525.12 1460.75 1519.39 1460.75 L1513.35 1460.75 L1513.35 1454.99 L1519.67 1454.99 Q1524.84 1454.99 1527.58 1452.94 Q1530.33 1450.86 1530.33 1446.97 Q1530.33 1442.98 1527.48 1440.86 Q1524.67 1438.71 1519.39 1438.71 Q1516.51 1438.71 1513.21 1439.33 Q1509.91 1439.96 1505.95 1441.27 L1505.95 1435.02 Q1509.94 1433.91 1513.42 1433.36 Q1516.92 1432.8 1520.01 1432.8 Q1528 1432.8 1532.65 1436.45 Q1537.31 1440.06 1537.31 1446.24 Q1537.31 1450.55 1534.84 1453.53 Q1532.38 1456.48 1527.83 1457.63 Z" fill="#000000" fill-rule="evenodd" fill-opacity="1" /><path clip-path="url(#clip320)" d="M1912.62 1439.85 L1894.91 1467.52 L1912.62 1467.52 L1912.62 1439.85 M1910.78 1433.74 L1919.6 1433.74 L1919.6 1467.52 L1927 1467.52 L1927 1473.36 L1919.6 1473.36 L1919.6 1485.58 L1912.62 1485.58 L1912.62 1473.36 L1889.22 1473.36 L1889.22 1466.59 L1910.78 1433.74 Z" fill="#000000" fill-rule="evenodd" fill-opacity="1" /><path clip-path="url(#clip320)" d="M2280.17 1433.74 L2307.71 1433.74 L2307.71 1439.64 L2286.6 1439.64 L2286.6 1452.35 Q2288.13 1451.83 2289.65 1451.59 Q2291.18 1451.31 2292.71 1451.31 Q2301.39 1451.31 2306.46 1456.07 Q2311.53 1460.82 2311.53 1468.95 Q2311.53 1477.32 2306.32 1481.97 Q2301.11 1486.59 2291.63 1486.59 Q2288.37 1486.59 2284.97 1486.03 Q2281.6 1485.48 2277.99 1484.36 L2277.99 1477.32 Q2281.11 1479.02 2284.45 1479.85 Q2287.78 1480.68 2291.49 1480.68 Q2297.5 1480.68 2301.01 1477.52 Q2304.52 1474.36 2304.52 1468.95 Q2304.52 1463.53 2301.01 1460.37 Q2297.5 1457.21 2291.49 1457.21 Q2288.68 1457.21 2285.87 1457.84 Q2283.09 1458.46 2280.17 1459.78 L2280.17 1433.74 Z" fill="#000000" fill-rule="evenodd" fill-opacity="1" /><path clip-path="url(#clip320)" d="M1271.74 1527.62 L1271.74 1538.66 L1284.9 1538.66 L1284.9 1543.62 L1271.74 1543.62 L1271.74 1564.74 Q1271.74 1569.49 1273.03 1570.85 Q1274.35 1572.2 1278.34 1572.2 L1284.9 1572.2 L1284.9 1577.55 L1278.34 1577.55 Q1270.94 1577.55 1268.13 1574.8 Q1265.32 1572.03 1265.32 1564.74 L1265.32 1543.62 L1260.63 1543.62 L1260.63 1538.66 L1265.32 1538.66 L1265.32 1527.62 L1271.74 1527.62 Z" fill="#000000" fill-rule="evenodd" fill-opacity="1" /><path clip-path="url(#clip320)" d="M1315.32 1523.52 L1330.04 1523.52 L1330.04 1528.49 L1321.71 1528.49 L1321.71 1581.96 L1330.04 1581.96 L1330.04 1586.92 L1315.32 1586.92 L1315.32 1523.52 Z" fill="#000000" fill-rule="evenodd" fill-opacity="1" /><path clip-path="url(#clip320)" d="M1368.44 1539.8 L1368.44 1545.85 Q1365.73 1544.46 1362.82 1543.76 Q1359.9 1543.07 1356.78 1543.07 Q1352.02 1543.07 1349.62 1544.53 Q1347.26 1545.99 1347.26 1548.9 Q1347.26 1551.12 1348.96 1552.41 Q1350.66 1553.66 1355.8 1554.8 L1357.99 1555.29 Q1364.8 1556.75 1367.64 1559.42 Q1370.53 1562.06 1370.53 1566.82 Q1370.53 1572.24 1366.22 1575.4 Q1361.95 1578.55 1354.45 1578.55 Q1351.32 1578.55 1347.92 1577.93 Q1344.55 1577.34 1340.8 1576.12 L1340.8 1569.53 Q1344.34 1571.37 1347.78 1572.3 Q1351.22 1573.21 1354.59 1573.21 Q1359.1 1573.21 1361.53 1571.68 Q1363.96 1570.12 1363.96 1567.3 Q1363.96 1564.7 1362.19 1563.31 Q1360.46 1561.92 1354.52 1560.64 L1352.3 1560.12 Q1346.36 1558.87 1343.72 1556.3 Q1341.08 1553.69 1341.08 1549.18 Q1341.08 1543.69 1344.97 1540.71 Q1348.86 1537.72 1356.01 1537.72 Q1359.55 1537.72 1362.68 1538.24 Q1365.8 1538.76 1368.44 1539.8 Z" fill="#000000" fill-rule="evenodd" fill-opacity="1" /><path clip-path="url(#clip320)" d="M1395.63 1523.52 L1395.63 1586.92 L1380.91 1586.92 L1380.91 1581.96 L1389.21 1581.96 L1389.21 1528.49 L1380.91 1528.49 L1380.91 1523.52 L1395.63 1523.52 Z" fill="#000000" fill-rule="evenodd" fill-opacity="1" /><polyline clip-path="url(#clip322)" style="stroke:#000000; stroke-linecap:round; stroke-linejoin:round; stroke-width:2; stroke-opacity:0.1; fill:none" points="
  303.503,1361.96 2352.76,1361.96 
  "/>
<polyline clip-path="url(#clip322)" style="stroke:#000000; stroke-linecap:round; stroke-linejoin:round; stroke-width:2; stroke-opacity:0.1; fill:none" points="
  303.503,1096.36 2352.76,1096.36 
  "/>
<polyline clip-path="url(#clip322)" style="stroke:#000000; stroke-linecap:round; stroke-linejoin:round; stroke-width:2; stroke-opacity:0.1; fill:none" points="
  303.503,830.761 2352.76,830.761 
  "/>
<polyline clip-path="url(#clip322)" style="stroke:#000000; stroke-linecap:round; stroke-linejoin:round; stroke-width:2; stroke-opacity:0.1; fill:none" points="
  303.503,565.16 2352.76,565.16 
  "/>
<polyline clip-path="url(#clip322)" style="stroke:#000000; stroke-linecap:round; stroke-linejoin:round; stroke-width:2; stroke-opacity:0.1; fill:none" points="
  303.503,299.559 2352.76,299.559 
  "/>
<polyline clip-path="url(#clip320)" style="stroke:#000000; stroke-linecap:round; stroke-linejoin:round; stroke-width:4; stroke-opacity:1; fill:none" points="
  303.503,1401.58 303.503,47.2441 
  "/>
<polyline clip-path="url(#clip320)" style="stroke:#000000; stroke-linecap:round; stroke-linejoin:round; stroke-width:4; stroke-opacity:1; fill:none" points="
  303.503,1361.96 322.401,1361.96 
  "/>
<polyline clip-path="url(#clip320)" style="stroke:#000000; stroke-linecap:round; stroke-linejoin:round; stroke-width:4; stroke-opacity:1; fill:none" points="
  303.503,1096.36 322.401,1096.36 
  "/>
<polyline clip-path="url(#clip320)" style="stroke:#000000; stroke-linecap:round; stroke-linejoin:round; stroke-width:4; stroke-opacity:1; fill:none" points="
  303.503,830.761 322.401,830.761 
  "/>
<polyline clip-path="url(#clip320)" style="stroke:#000000; stroke-linecap:round; stroke-linejoin:round; stroke-width:4; stroke-opacity:1; fill:none" points="
  303.503,565.16 322.401,565.16 
  "/>
<polyline clip-path="url(#clip320)" style="stroke:#000000; stroke-linecap:round; stroke-linejoin:round; stroke-width:4; stroke-opacity:1; fill:none" points="
  303.503,299.559 322.401,299.559 
  "/>
<path clip-path="url(#clip320)" d="M136.497 1340.66 Q131.08 1340.66 128.337 1346.01 Q125.629 1351.32 125.629 1362.01 Q125.629 1372.67 128.337 1378.02 Q131.08 1383.33 136.497 1383.33 Q141.948 1383.33 144.656 1378.02 Q147.399 1372.67 147.399 1362.01 Q147.399 1351.32 144.656 1346.01 Q141.948 1340.66 136.497 1340.66 M136.497 1335.11 Q145.212 1335.11 149.795 1342.01 Q154.413 1348.89 154.413 1362.01 Q154.413 1375.1 149.795 1382.01 Q145.212 1388.89 136.497 1388.89 Q127.781 1388.89 123.163 1382.01 Q118.58 1375.1 118.58 1362.01 Q118.58 1348.89 123.163 1342.01 Q127.781 1335.11 136.497 1335.11 Z" fill="#000000" fill-rule="evenodd" fill-opacity="1" /><path clip-path="url(#clip320)" d="M166.74 1379.06 L174.066 1379.06 L174.066 1387.88 L166.74 1387.88 L166.74 1379.06 Z" fill="#000000" fill-rule="evenodd" fill-opacity="1" /><path clip-path="url(#clip320)" d="M189.413 1336.04 L216.948 1336.04 L216.948 1341.95 L195.837 1341.95 L195.837 1354.65 Q197.364 1354.13 198.892 1353.89 Q200.42 1353.61 201.948 1353.61 Q210.628 1353.61 215.698 1358.37 Q220.767 1363.13 220.767 1371.25 Q220.767 1379.62 215.559 1384.27 Q210.35 1388.89 200.871 1388.89 Q197.608 1388.89 194.205 1388.33 Q190.837 1387.78 187.226 1386.67 L187.226 1379.62 Q190.351 1381.32 193.684 1382.15 Q197.017 1382.99 200.732 1382.99 Q206.739 1382.99 210.246 1379.83 Q213.753 1376.67 213.753 1371.25 Q213.753 1365.83 210.246 1362.67 Q206.739 1359.51 200.732 1359.51 Q197.92 1359.51 195.108 1360.14 Q192.33 1360.76 189.413 1362.08 L189.413 1336.04 Z" fill="#000000" fill-rule="evenodd" fill-opacity="1" /><path clip-path="url(#clip320)" d="M249.586 1340.66 Q244.17 1340.66 241.427 1346.01 Q238.718 1351.32 238.718 1362.01 Q238.718 1372.67 241.427 1378.02 Q244.17 1383.33 249.586 1383.33 Q255.038 1383.33 257.746 1378.02 Q260.489 1372.67 260.489 1362.01 Q260.489 1351.32 257.746 1346.01 Q255.038 1340.66 249.586 1340.66 M249.586 1335.11 Q258.302 1335.11 262.885 1342.01 Q267.503 1348.89 267.503 1362.01 Q267.503 1375.1 262.885 1382.01 Q258.302 1388.89 249.586 1388.89 Q240.871 1388.89 236.253 1382.01 Q231.67 1375.1 231.67 1362.01 Q231.67 1348.89 236.253 1342.01 Q240.871 1335.11 249.586 1335.11 Z" fill="#000000" fill-rule="evenodd" fill-opacity="1" /><path clip-path="url(#clip320)" d="M137.99 1075.06 Q132.573 1075.06 129.83 1080.41 Q127.122 1085.72 127.122 1096.41 Q127.122 1107.07 129.83 1112.42 Q132.573 1117.73 137.99 1117.73 Q143.441 1117.73 146.149 1112.42 Q148.892 1107.07 148.892 1096.41 Q148.892 1085.72 146.149 1080.41 Q143.441 1075.06 137.99 1075.06 M137.99 1069.5 Q146.705 1069.5 151.288 1076.41 Q155.906 1083.29 155.906 1096.41 Q155.906 1109.5 151.288 1116.41 Q146.705 1123.29 137.99 1123.29 Q129.275 1123.29 124.657 1116.41 Q120.073 1109.5 120.073 1096.41 Q120.073 1083.29 124.657 1076.41 Q129.275 1069.5 137.99 1069.5 Z" fill="#000000" fill-rule="evenodd" fill-opacity="1" /><path clip-path="url(#clip320)" d="M168.233 1113.46 L175.559 1113.46 L175.559 1122.28 L168.233 1122.28 L168.233 1113.46 Z" fill="#000000" fill-rule="evenodd" fill-opacity="1" /><path clip-path="url(#clip320)" d="M189.066 1070.44 L222.399 1070.44 L222.399 1073.43 L203.58 1122.28 L196.253 1122.28 L213.962 1076.34 L189.066 1076.34 L189.066 1070.44 Z" fill="#000000" fill-rule="evenodd" fill-opacity="1" /><path clip-path="url(#clip320)" d="M236.149 1070.44 L263.684 1070.44 L263.684 1076.34 L242.573 1076.34 L242.573 1089.05 Q244.1 1088.53 245.628 1088.29 Q247.156 1088.01 248.684 1088.01 Q257.364 1088.01 262.434 1092.77 Q267.503 1097.52 267.503 1105.65 Q267.503 1114.02 262.295 1118.67 Q257.086 1123.29 247.607 1123.29 Q244.343 1123.29 240.941 1122.73 Q237.573 1122.18 233.961 1121.07 L233.961 1114.02 Q237.086 1115.72 240.42 1116.55 Q243.753 1117.39 247.468 1117.39 Q253.475 1117.39 256.982 1114.23 Q260.489 1111.07 260.489 1105.65 Q260.489 1100.23 256.982 1097.07 Q253.475 1093.91 247.468 1093.91 Q244.656 1093.91 241.843 1094.54 Q239.066 1095.16 236.149 1096.48 L236.149 1070.44 Z" fill="#000000" fill-rule="evenodd" fill-opacity="1" /><path clip-path="url(#clip320)" d="M122.712 850.778 L134.17 850.778 L134.17 811.23 L121.705 813.73 L121.705 807.341 L134.101 804.841 L141.115 804.841 L141.115 850.778 L152.573 850.778 L152.573 856.681 L122.712 856.681 L122.712 850.778 Z" fill="#000000" fill-rule="evenodd" fill-opacity="1" /><path clip-path="url(#clip320)" d="M166.74 847.861 L174.066 847.861 L174.066 856.681 L166.74 856.681 L166.74 847.861 Z" fill="#000000" fill-rule="evenodd" fill-opacity="1" /><path clip-path="url(#clip320)" d="M204.344 809.459 Q198.927 809.459 196.184 814.806 Q193.476 820.118 193.476 830.813 Q193.476 841.472 196.184 846.82 Q198.927 852.132 204.344 852.132 Q209.795 852.132 212.503 846.82 Q215.246 841.472 215.246 830.813 Q215.246 820.118 212.503 814.806 Q209.795 809.459 204.344 809.459 M204.344 803.903 Q213.059 803.903 217.642 810.813 Q222.26 817.688 222.26 830.813 Q222.26 843.903 217.642 850.813 Q213.059 857.688 204.344 857.688 Q195.628 857.688 191.01 850.813 Q186.427 843.903 186.427 830.813 Q186.427 817.688 191.01 810.813 Q195.628 803.903 204.344 803.903 Z" fill="#000000" fill-rule="evenodd" fill-opacity="1" /><path clip-path="url(#clip320)" d="M249.586 809.459 Q244.17 809.459 241.427 814.806 Q238.718 820.118 238.718 830.813 Q238.718 841.472 241.427 846.82 Q244.17 852.132 249.586 852.132 Q255.038 852.132 257.746 846.82 Q260.489 841.472 260.489 830.813 Q260.489 820.118 257.746 814.806 Q255.038 809.459 249.586 809.459 M249.586 803.903 Q258.302 803.903 262.885 810.813 Q267.503 817.688 267.503 830.813 Q267.503 843.903 262.885 850.813 Q258.302 857.688 249.586 857.688 Q240.871 857.688 236.253 850.813 Q231.67 843.903 231.67 830.813 Q231.67 817.688 236.253 810.813 Q240.871 803.903 249.586 803.903 Z" fill="#000000" fill-rule="evenodd" fill-opacity="1" /><path clip-path="url(#clip320)" d="M124.205 585.177 L135.663 585.177 L135.663 545.629 L123.198 548.129 L123.198 541.74 L135.594 539.24 L142.608 539.24 L142.608 585.177 L154.066 585.177 L154.066 591.08 L124.205 591.08 L124.205 585.177 Z" fill="#000000" fill-rule="evenodd" fill-opacity="1" /><path clip-path="url(#clip320)" d="M168.233 582.26 L175.559 582.26 L175.559 591.08 L168.233 591.08 L168.233 582.26 Z" fill="#000000" fill-rule="evenodd" fill-opacity="1" /><path clip-path="url(#clip320)" d="M196.878 585.177 L221.357 585.177 L221.357 591.08 L188.441 591.08 L188.441 585.177 Q192.434 581.045 199.309 574.101 Q206.219 567.122 207.989 565.108 Q211.357 561.323 212.677 558.719 Q214.031 556.08 214.031 553.545 Q214.031 549.413 211.114 546.809 Q208.232 544.205 203.58 544.205 Q200.281 544.205 196.601 545.351 Q192.955 546.497 188.788 548.823 L188.788 541.74 Q193.024 540.038 196.705 539.17 Q200.385 538.302 203.441 538.302 Q211.496 538.302 216.288 542.33 Q221.08 546.358 221.08 553.094 Q221.08 556.288 219.864 559.17 Q218.684 562.017 215.524 565.906 Q214.656 566.913 210.003 571.74 Q205.351 576.531 196.878 585.177 Z" fill="#000000" fill-rule="evenodd" fill-opacity="1" /><path clip-path="url(#clip320)" d="M236.149 539.24 L263.684 539.24 L263.684 545.143 L242.573 545.143 L242.573 557.851 Q244.1 557.33 245.628 557.087 Q247.156 556.809 248.684 556.809 Q257.364 556.809 262.434 561.566 Q267.503 566.323 267.503 574.448 Q267.503 582.816 262.295 587.469 Q257.086 592.087 247.607 592.087 Q244.343 592.087 240.941 591.531 Q237.573 590.976 233.961 589.865 L233.961 582.816 Q237.086 584.517 240.42 585.351 Q243.753 586.184 247.468 586.184 Q253.475 586.184 256.982 583.024 Q260.489 579.865 260.489 574.448 Q260.489 569.031 256.982 565.872 Q253.475 562.712 247.468 562.712 Q244.656 562.712 241.843 563.337 Q239.066 563.962 236.149 565.281 L236.149 539.24 Z" fill="#000000" fill-rule="evenodd" fill-opacity="1" /><path clip-path="url(#clip320)" d="M122.712 319.576 L134.17 319.576 L134.17 280.028 L121.705 282.528 L121.705 276.139 L134.101 273.639 L141.115 273.639 L141.115 319.576 L152.573 319.576 L152.573 325.479 L122.712 325.479 L122.712 319.576 Z" fill="#000000" fill-rule="evenodd" fill-opacity="1" /><path clip-path="url(#clip320)" d="M166.74 316.659 L174.066 316.659 L174.066 325.479 L166.74 325.479 L166.74 316.659 Z" fill="#000000" fill-rule="evenodd" fill-opacity="1" /><path clip-path="url(#clip320)" d="M189.413 273.639 L216.948 273.639 L216.948 279.542 L195.837 279.542 L195.837 292.25 Q197.364 291.729 198.892 291.486 Q200.42 291.208 201.948 291.208 Q210.628 291.208 215.698 295.965 Q220.767 300.722 220.767 308.847 Q220.767 317.215 215.559 321.868 Q210.35 326.486 200.871 326.486 Q197.608 326.486 194.205 325.93 Q190.837 325.375 187.226 324.264 L187.226 317.215 Q190.351 318.916 193.684 319.75 Q197.017 320.583 200.732 320.583 Q206.739 320.583 210.246 317.423 Q213.753 314.264 213.753 308.847 Q213.753 303.43 210.246 300.271 Q206.739 297.111 200.732 297.111 Q197.92 297.111 195.108 297.736 Q192.33 298.361 189.413 299.68 L189.413 273.639 Z" fill="#000000" fill-rule="evenodd" fill-opacity="1" /><path clip-path="url(#clip320)" d="M249.586 278.257 Q244.17 278.257 241.427 283.604 Q238.718 288.917 238.718 299.611 Q238.718 310.271 241.427 315.618 Q244.17 320.93 249.586 320.93 Q255.038 320.93 257.746 315.618 Q260.489 310.271 260.489 299.611 Q260.489 288.917 257.746 283.604 Q255.038 278.257 249.586 278.257 M249.586 272.701 Q258.302 272.701 262.885 279.611 Q267.503 286.486 267.503 299.611 Q267.503 312.701 262.885 319.611 Q258.302 326.486 249.586 326.486 Q240.871 326.486 236.253 319.611 Q231.67 312.701 231.67 299.611 Q231.67 286.486 236.253 279.611 Q240.871 272.701 249.586 272.701 Z" fill="#000000" fill-rule="evenodd" fill-opacity="1" /><path clip-path="url(#clip320)" d="M35.6047 1006.89 Q31.2992 1004.5 29.2506 1001.16 Q27.202 997.831 27.202 993.317 Q27.202 987.24 31.4728 983.942 Q35.7089 980.643 43.5561 980.643 L67.0282 980.643 L67.0282 987.067 L43.7644 987.067 Q38.1741 987.067 35.4658 989.046 Q32.7575 991.025 32.7575 995.088 Q32.7575 1000.05 36.0561 1002.93 Q39.3547 1005.82 45.0491 1005.82 L67.0282 1005.82 L67.0282 1012.24 L43.7644 1012.24 Q38.1394 1012.24 35.4658 1014.22 Q32.7575 1016.2 32.7575 1020.33 Q32.7575 1025.23 36.0908 1028.11 Q39.3894 1030.99 45.0491 1030.99 L67.0282 1030.99 L67.0282 1037.41 L28.1395 1037.41 L28.1395 1030.99 L34.1811 1030.99 Q30.6047 1028.8 28.9034 1025.75 Q27.202 1022.69 27.202 1018.49 Q27.202 1014.25 29.3547 1011.3 Q31.5075 1008.32 35.6047 1006.89 Z" fill="#000000" fill-rule="evenodd" fill-opacity="1" /><path clip-path="url(#clip320)" d="M47.4797 950.227 Q47.4797 957.97 49.2505 960.956 Q51.0213 963.942 55.2921 963.942 Q58.6949 963.942 60.7087 961.72 Q62.6879 959.463 62.6879 955.609 Q62.6879 950.296 58.9379 947.102 Q55.1532 943.873 48.9033 943.873 L47.4797 943.873 L47.4797 950.227 M44.8408 937.484 L67.0282 937.484 L67.0282 943.873 L61.1254 943.873 Q64.6671 946.06 66.3684 949.324 Q68.0351 952.588 68.0351 957.31 Q68.0351 963.282 64.7018 966.824 Q61.3337 970.331 55.7088 970.331 Q49.1463 970.331 45.813 965.956 Q42.4797 961.546 42.4797 952.831 L42.4797 943.873 L41.8547 943.873 Q37.445 943.873 35.0492 946.789 Q32.6186 949.671 32.6186 954.914 Q32.6186 958.248 33.4172 961.407 Q34.2158 964.567 35.813 967.484 L29.9103 967.484 Q28.5561 963.977 27.8964 960.678 Q27.202 957.379 27.202 954.254 Q27.202 945.817 31.577 941.65 Q35.9519 937.484 44.8408 937.484 Z" fill="#000000" fill-rule="evenodd" fill-opacity="1" /><path clip-path="url(#clip320)" d="M29.2853 899.533 L35.3269 899.533 Q33.9381 902.241 33.2436 905.158 Q32.5492 908.074 32.5492 911.199 Q32.5492 915.956 34.0075 918.352 Q35.4658 920.713 38.3825 920.713 Q40.6047 920.713 41.8894 919.012 Q43.1394 917.31 44.2852 912.171 L44.7713 909.984 Q46.2297 903.178 48.9033 900.331 Q51.5421 897.449 56.299 897.449 Q61.7157 897.449 64.8754 901.755 Q68.0351 906.026 68.0351 913.526 Q68.0351 916.651 67.4101 920.053 Q66.8198 923.421 65.6046 927.171 L59.0074 927.171 Q60.8476 923.63 61.7851 920.192 Q62.6879 916.755 62.6879 913.387 Q62.6879 908.873 61.1601 906.442 Q59.5976 904.012 56.7852 904.012 Q54.181 904.012 52.7921 905.783 Q51.4032 907.519 50.1185 913.456 L49.5977 915.678 Q48.3477 921.616 45.7783 924.255 Q43.1741 926.894 38.6603 926.894 Q33.1742 926.894 30.1881 923.005 Q27.202 919.116 27.202 911.963 Q27.202 908.421 27.7228 905.296 Q28.2436 902.171 29.2853 899.533 Z" fill="#000000" fill-rule="evenodd" fill-opacity="1" /><path clip-path="url(#clip320)" d="M29.2853 862.484 L35.3269 862.484 Q33.9381 865.192 33.2436 868.109 Q32.5492 871.026 32.5492 874.151 Q32.5492 878.908 34.0075 881.303 Q35.4658 883.665 38.3825 883.665 Q40.6047 883.665 41.8894 881.963 Q43.1394 880.262 44.2852 875.123 L44.7713 872.935 Q46.2297 866.13 48.9033 863.283 Q51.5421 860.401 56.299 860.401 Q61.7157 860.401 64.8754 864.706 Q68.0351 868.977 68.0351 876.477 Q68.0351 879.602 67.4101 883.005 Q66.8198 886.373 65.6046 890.123 L59.0074 890.123 Q60.8476 886.581 61.7851 883.144 Q62.6879 879.706 62.6879 876.338 Q62.6879 871.824 61.1601 869.394 Q59.5976 866.963 56.7852 866.963 Q54.181 866.963 52.7921 868.734 Q51.4032 870.47 50.1185 876.408 L49.5977 878.63 Q48.3477 884.567 45.7783 887.206 Q43.1741 889.845 38.6603 889.845 Q33.1742 889.845 30.1881 885.956 Q27.202 882.067 27.202 874.915 Q27.202 871.373 27.7228 868.248 Q28.2436 865.123 29.2853 862.484 Z" fill="#000000" fill-rule="evenodd" fill-opacity="1" /><path clip-path="url(#clip320)" d="M61.1949 821.443 L81.8197 821.443 L81.8197 827.866 L28.1395 827.866 L28.1395 821.443 L34.0422 821.443 Q30.57 819.429 28.9034 816.373 Q27.202 813.283 27.202 809.012 Q27.202 801.929 32.827 797.519 Q38.4519 793.075 47.6185 793.075 Q56.7852 793.075 62.4101 797.519 Q68.0351 801.929 68.0351 809.012 Q68.0351 813.283 66.3684 816.373 Q64.6671 819.429 61.1949 821.443 M47.6185 799.707 Q40.57 799.707 36.5769 802.623 Q32.5492 805.505 32.5492 810.575 Q32.5492 815.644 36.5769 818.561 Q40.57 821.443 47.6185 821.443 Q54.6671 821.443 58.6949 818.561 Q62.6879 815.644 62.6879 810.575 Q62.6879 805.505 58.6949 802.623 Q54.6671 799.707 47.6185 799.707 Z" fill="#000000" fill-rule="evenodd" fill-opacity="1" /><path clip-path="url(#clip320)" d="M32.6186 767.415 Q32.6186 772.554 36.6464 775.54 Q40.6394 778.526 47.6185 778.526 Q54.5977 778.526 58.6254 775.575 Q62.6185 772.589 62.6185 767.415 Q62.6185 762.311 58.5907 759.325 Q54.5629 756.339 47.6185 756.339 Q40.7089 756.339 36.6811 759.325 Q32.6186 762.311 32.6186 767.415 M27.202 767.415 Q27.202 759.082 32.6186 754.325 Q38.0353 749.568 47.6185 749.568 Q57.1671 749.568 62.6185 754.325 Q68.0351 759.082 68.0351 767.415 Q68.0351 775.783 62.6185 780.54 Q57.1671 785.262 47.6185 785.262 Q38.0353 785.262 32.6186 780.54 Q27.202 775.783 27.202 767.415 Z" fill="#000000" fill-rule="evenodd" fill-opacity="1" /><path clip-path="url(#clip320)" d="M29.2853 714.186 L35.3269 714.186 Q33.9381 716.895 33.2436 719.811 Q32.5492 722.728 32.5492 725.853 Q32.5492 730.61 34.0075 733.006 Q35.4658 735.367 38.3825 735.367 Q40.6047 735.367 41.8894 733.665 Q43.1394 731.964 44.2852 726.825 L44.7713 724.638 Q46.2297 717.832 48.9033 714.985 Q51.5421 712.103 56.299 712.103 Q61.7157 712.103 64.8754 716.409 Q68.0351 720.679 68.0351 728.179 Q68.0351 731.304 67.4101 734.707 Q66.8198 738.075 65.6046 741.825 L59.0074 741.825 Q60.8476 738.283 61.7851 734.846 Q62.6879 731.408 62.6879 728.04 Q62.6879 723.527 61.1601 721.096 Q59.5976 718.665 56.7852 718.665 Q54.181 718.665 52.7921 720.436 Q51.4032 722.172 50.1185 728.11 L49.5977 730.332 Q48.3477 736.27 45.7783 738.908 Q43.1741 741.547 38.6603 741.547 Q33.1742 741.547 30.1881 737.658 Q27.202 733.77 27.202 726.617 Q27.202 723.075 27.7228 719.95 Q28.2436 716.825 29.2853 714.186 Z" fill="#000000" fill-rule="evenodd" fill-opacity="1" /><path clip-path="url(#clip320)" d="M28.1395 701.929 L28.1395 695.541 L67.0282 695.541 L67.0282 701.929 L28.1395 701.929 M13.0007 701.929 L13.0007 695.541 L21.0909 695.541 L21.0909 701.929 L13.0007 701.929 Z" fill="#000000" fill-rule="evenodd" fill-opacity="1" /><path clip-path="url(#clip320)" d="M17.0979 675.853 L28.1395 675.853 L28.1395 662.694 L33.1047 662.694 L33.1047 675.853 L54.2157 675.853 Q58.9726 675.853 60.3268 674.568 Q61.681 673.249 61.681 669.256 L61.681 662.694 L67.0282 662.694 L67.0282 669.256 Q67.0282 676.652 64.2851 679.464 Q61.5074 682.277 54.2157 682.277 L33.1047 682.277 L33.1047 686.964 L28.1395 686.964 L28.1395 682.277 L17.0979 682.277 L17.0979 675.853 Z" fill="#000000" fill-rule="evenodd" fill-opacity="1" /><path clip-path="url(#clip320)" d="M28.1395 654.291 L28.1395 647.902 L67.0282 647.902 L67.0282 654.291 L28.1395 654.291 M13.0007 654.291 L13.0007 647.902 L21.0909 647.902 L21.0909 654.291 L13.0007 654.291 Z" fill="#000000" fill-rule="evenodd" fill-opacity="1" /><path clip-path="url(#clip320)" d="M32.6186 619.465 Q32.6186 624.603 36.6464 627.59 Q40.6394 630.576 47.6185 630.576 Q54.5977 630.576 58.6254 627.624 Q62.6185 624.638 62.6185 619.465 Q62.6185 614.36 58.5907 611.374 Q54.5629 608.388 47.6185 608.388 Q40.7089 608.388 36.6811 611.374 Q32.6186 614.36 32.6186 619.465 M27.202 619.465 Q27.202 611.131 32.6186 606.374 Q38.0353 601.617 47.6185 601.617 Q57.1671 601.617 62.6185 606.374 Q68.0351 611.131 68.0351 619.465 Q68.0351 627.833 62.6185 632.59 Q57.1671 637.312 47.6185 637.312 Q38.0353 637.312 32.6186 632.59 Q27.202 627.833 27.202 619.465 Z" fill="#000000" fill-rule="evenodd" fill-opacity="1" /><path clip-path="url(#clip320)" d="M43.5561 558.701 L67.0282 558.701 L67.0282 565.09 L43.7644 565.09 Q38.2436 565.09 35.5005 567.243 Q32.7575 569.395 32.7575 573.701 Q32.7575 578.875 36.0561 581.861 Q39.3547 584.847 45.0491 584.847 L67.0282 584.847 L67.0282 591.27 L28.1395 591.27 L28.1395 584.847 L34.1811 584.847 Q30.6742 582.555 28.9381 579.465 Q27.202 576.34 27.202 572.277 Q27.202 565.576 31.3686 562.139 Q35.5005 558.701 43.5561 558.701 Z" fill="#000000" fill-rule="evenodd" fill-opacity="1" /><path clip-path="url(#clip320)" d="M13.0007 523.944 L13.0007 509.222 L17.9659 509.222 L17.9659 517.555 L71.4379 517.555 L71.4379 509.222 L76.4031 509.222 L76.4031 523.944 L13.0007 523.944 Z" fill="#000000" fill-rule="evenodd" fill-opacity="1" /><path clip-path="url(#clip320)" d="M35.6047 465.333 Q31.2992 462.938 29.2506 459.604 Q27.202 456.271 27.202 451.757 Q27.202 445.681 31.4728 442.382 Q35.7089 439.084 43.5561 439.084 L67.0282 439.084 L67.0282 445.507 L43.7644 445.507 Q38.1741 445.507 35.4658 447.486 Q32.7575 449.466 32.7575 453.528 Q32.7575 458.493 36.0561 461.375 Q39.3547 464.257 45.0491 464.257 L67.0282 464.257 L67.0282 470.681 L43.7644 470.681 Q38.1394 470.681 35.4658 472.66 Q32.7575 474.639 32.7575 478.771 Q32.7575 483.667 36.0908 486.549 Q39.3894 489.431 45.0491 489.431 L67.0282 489.431 L67.0282 495.854 L28.1395 495.854 L28.1395 489.431 L34.1811 489.431 Q30.6047 487.243 28.9034 484.188 Q27.202 481.132 27.202 476.931 Q27.202 472.695 29.3547 469.743 Q31.5075 466.757 35.6047 465.333 Z" fill="#000000" fill-rule="evenodd" fill-opacity="1" /><path clip-path="url(#clip320)" d="M13.0007 411.41 L76.4031 411.41 L76.4031 426.132 L71.4379 426.132 L71.4379 417.834 L17.9659 417.834 L17.9659 426.132 L13.0007 426.132 L13.0007 411.41 Z" fill="#000000" fill-rule="evenodd" fill-opacity="1" /><polyline clip-path="url(#clip322)" style="stroke:#009af9; stroke-linecap:round; stroke-linejoin:round; stroke-width:8; stroke-opacity:1; fill:none" points="
  361.501,1361.96 365.367,1361.63 369.234,1360.67 373.1,1359.08 376.967,1356.85 380.833,1353.99 384.7,1350.51 388.566,1346.39 392.433,1341.66 396.299,1336.31 
  400.166,1330.34 404.032,1323.77 407.899,1316.6 411.765,1308.85 415.632,1300.5 419.498,1291.59 423.365,1282.1 427.231,1272.06 431.098,1261.48 434.964,1250.35 
  438.831,1238.7 442.698,1226.54 446.564,1213.87 450.431,1200.71 454.297,1187.08 458.164,1172.99 462.03,1158.44 465.897,1143.47 469.763,1128.08 473.63,1112.28 
  477.496,1096.1 481.363,1079.55 485.229,1062.63 489.096,1045.38 492.962,1027.81 496.829,1009.94 500.695,991.785 504.562,973.358 508.428,954.678 512.295,935.763 
  516.161,916.636 520.028,897.318 523.894,877.825 527.761,858.176 531.627,838.392 535.494,818.493 539.36,798.499 543.227,778.426 547.093,758.297 550.96,738.133 
  554.826,717.956 558.693,697.786 562.559,677.644 566.426,657.548 570.293,637.513 574.159,617.565 578.026,597.724 581.892,578.011 585.759,558.448 589.625,539.055 
  593.492,519.839 597.358,500.828 601.225,482.04 605.091,463.496 608.958,445.216 612.824,427.217 616.691,409.516 620.557,392.125 624.424,375.067 628.29,358.359 
  632.157,342.018 636.023,326.062 639.89,310.507 643.756,295.363 647.623,280.646 651.489,266.373 655.356,252.559 659.222,239.218 663.089,226.365 666.955,214.011 
  670.822,202.163 674.688,190.837 678.555,180.046 682.421,169.8 686.288,160.111 690.154,150.988 694.021,142.437 697.887,134.466 701.754,127.085 705.621,120.303 
  709.487,114.126 713.354,108.561 717.22,103.613 721.087,99.2832 724.953,95.579 728.82,92.5042 732.686,90.0622 736.553,88.2558 740.419,87.087 744.286,86.5554 
  748.152,86.6609 752.019,87.4047 755.885,88.7862 759.752,90.8041 763.618,93.4565 767.485,96.7409 771.351,100.653 775.218,105.189 779.084,110.344 782.951,116.115 
  786.817,122.494 790.684,129.476 794.55,137.053 798.417,145.218 802.283,153.963 806.15,163.279 810.016,173.157 813.883,183.586 817.749,194.555 821.616,206.056 
  825.482,218.077 829.349,230.604 833.216,243.626 837.082,257.128 840.949,271.096 844.815,285.519 848.682,300.383 852.548,315.672 856.415,331.37 860.281,347.461 
  864.148,363.928 868.014,380.754 871.881,397.927 875.747,415.429 879.614,433.239 883.48,451.341 887.347,469.715 891.213,488.343 895.08,507.206 898.946,526.291 
  902.813,545.575 906.679,565.038 910.546,584.659 914.412,604.419 918.279,624.297 922.145,644.279 926.012,664.343 929.878,684.468 933.745,704.632 937.611,724.815 
  941.478,744.995 945.344,765.154 949.211,785.278 953.077,805.341 956.944,825.324 960.811,845.205 964.677,864.963 968.544,884.578 972.41,904.036 976.277,923.318 
  980.143,942.401 984.01,961.265 987.876,979.892 991.743,998.26 995.609,1016.35 999.476,1034.16 1003.34,1051.66 1007.21,1068.83 1011.08,1085.65 1014.94,1102.11 
  1018.81,1118.2 1022.67,1133.88 1026.54,1149.17 1030.41,1164.03 1034.27,1178.45 1038.14,1192.41 1042.01,1205.9 1045.87,1218.91 1049.74,1231.43 1053.61,1243.45 
  1057.47,1254.94 1061.34,1265.9 1065.21,1276.32 1069.07,1286.19 1072.94,1295.49 1076.81,1304.23 1080.67,1312.39 1084.54,1319.95 1088.41,1326.93 1092.27,1333.29 
  1096.14,1339.05 1100.01,1344.2 1103.87,1348.72 1107.74,1352.62 1111.6,1355.89 1115.47,1358.53 1119.34,1360.54 1123.2,1361.91 1127.07,1362.64 1130.94,1362.73 
  1134.8,1362.19 1138.67,1361 1142.54,1359.18 1146.4,1356.73 1150.27,1353.64 1154.14,1349.92 1158,1345.58 1161.87,1340.61 1165.74,1335.03 1169.6,1328.84 
  1173.47,1322.04 1177.34,1314.64 1181.2,1306.66 1185.07,1298.09 1188.93,1288.95 1192.8,1279.24 1196.67,1268.98 1200.53,1258.17 1204.4,1246.83 1208.27,1234.96 
  1212.13,1222.59 1216,1209.71 1219.87,1196.36 1223.73,1182.53 1227.6,1168.24 1231.47,1153.5 1235.33,1138.34 1239.2,1122.76 1243.07,1106.78 1246.93,1090.43 
  1250.8,1073.7 1254.67,1056.63 1258.53,1039.22 1262.4,1021.5 1266.27,1003.48 1270.13,985.181 1274,966.626 1277.86,947.823 1281.73,928.796 1285.6,909.565 
  1289.46,890.149 1293.33,870.568 1297.2,850.843 1301.06,830.992 1304.93,811.03 1308.8,790.98 1312.66,770.865 1316.53,750.704 1320.4,730.518 1324.26,710.33 
  1328.13,690.15 1332,670.004 1335.86,649.911 1339.73,629.894 1343.6,609.973 1347.46,590.169 1351.33,570.5 1355.2,550.979 1359.06,531.632 1362.93,512.478 
  1366.79,493.537 1370.66,474.829 1374.53,456.374 1378.39,438.183 1382.26,420.276 1386.13,402.673 1389.99,385.393 1393.86,368.453 1397.73,351.872 1401.59,335.665 
  1405.46,319.841 1409.33,304.422 1413.19,289.424 1417.06,274.862 1420.93,260.751 1424.79,247.106 1428.66,233.938 1432.53,221.256 1436.39,209.079 1440.26,197.417 
  1444.12,186.284 1447.99,175.691 1451.86,165.65 1455.72,156.162 1459.59,147.243 1463.46,138.902 1467.32,131.147 1471.19,123.987 1475.06,117.429 1478.92,111.479 
  1482.79,106.139 1486.66,101.418 1490.52,97.3201 1494.39,93.8508 1498.26,91.0134 1502.12,88.8112 1505.99,87.2427 1509.86,86.3116 1513.72,86.0191 1517.59,86.3658 
  1521.46,87.3514 1525.32,88.9751 1529.19,91.2349 1533.05,94.1275 1536.92,97.6508 1540.79,101.802 1544.65,106.575 1548.52,111.968 1552.39,117.973 1556.25,124.585 
  1560.12,131.798 1563.99,139.604 1567.85,147.996 1571.72,156.964 1575.59,166.499 1579.45,176.593 1583.32,187.236 1587.19,198.417 1591.05,210.125 1594.92,222.347 
  1598.79,235.071 1602.65,248.284 1606.52,261.974 1610.39,276.129 1614.25,290.733 1618.12,305.77 1621.98,321.226 1625.85,337.084 1629.72,353.329 1633.58,369.949 
  1637.45,386.925 1641.32,404.238 1645.18,421.871 1649.05,439.805 1652.92,458.023 1656.78,476.509 1660.65,495.246 1664.52,514.213 1668.38,533.39 1672.25,552.757 
  1676.12,572.294 1679.98,591.982 1683.85,611.808 1687.72,631.747 1691.58,651.779 1695.45,671.883 1699.31,692.039 1703.18,712.224 1707.05,732.423 1710.91,752.619 
  1714.78,772.786 1718.65,792.905 1722.51,812.954 1726.38,832.913 1730.25,852.761 1734.11,872.486 1737.98,892.065 1741.85,911.476 1745.71,930.699 1749.58,949.714 
  1753.45,968.502 1757.31,987.045 1761.18,1005.33 1765.05,1023.34 1768.91,1041.04 1772.78,1058.43 1776.65,1075.48 1780.51,1092.18 1784.38,1108.52 1788.24,1124.47 
  1792.11,1140.02 1795.98,1155.16 1799.84,1169.86 1803.71,1184.12 1807.58,1197.92 1811.44,1211.24 1815.31,1224.08 1819.18,1236.42 1823.04,1248.25 1826.91,1259.55 
  1830.78,1270.32 1834.64,1280.54 1838.51,1290.21 1842.38,1299.31 1846.24,1307.83 1850.11,1315.77 1853.98,1323.12 1857.84,1329.87 1861.71,1336.01 1865.58,1341.55 
  1869.44,1346.46 1873.31,1350.76 1877.17,1354.42 1881.04,1357.46 1884.91,1359.86 1888.77,1361.63 1892.64,1362.76 1896.51,1363.25 1900.37,1363.1 1904.24,1362.31 
  1908.11,1360.89 1911.97,1358.83 1915.84,1356.13 1919.71,1352.8 1923.57,1348.84 1927.44,1344.26 1931.31,1339.06 1935.17,1333.24 1939.04,1326.82 1942.91,1319.79 
  1946.77,1312.16 1950.64,1303.95 1954.5,1295.16 1958.37,1285.79 1962.24,1275.87 1966.1,1265.39 1969.97,1254.37 1973.84,1242.82 1977.7,1230.75 1981.57,1218.18 
  1985.44,1205.11 1989.3,1191.56 1993.17,1177.55 1997.04,1163.08 2000.9,1148.17 2004.77,1132.83 2008.64,1117.1 2012.5,1100.96 2016.37,1084.45 2020.24,1067.57 
  2024.1,1050.36 2027.97,1032.82 2031.84,1014.97 2035.7,996.832 2039.57,978.417 2043.43,959.748 2047.3,940.843 2051.17,921.723 2055.03,902.407 2058.9,882.916 
  2062.77,863.262 2066.63,843.467 2070.5,823.554 2074.37,803.541 2078.23,783.451 2082.1,763.303 2085.97,743.119 2089.83,722.909 2093.7,702.701 2097.57,682.515 
  2101.43,662.372 2105.3,642.293 2109.17,622.298 2113.03,602.404 2116.9,582.628 2120.77,562.993 2124.63,543.521 2128.5,524.231 2132.36,505.144 2136.23,486.278 
  2140.1,467.644 2143.96,449.267 2147.83,431.165 2151.7,413.358 2155.56,395.864 2159.43,378.7 2163.3,361.882 2167.16,345.422 2171.03,329.342 2174.9,313.657 
  2178.76,298.384 2182.63,283.54 2186.5,269.139 2190.36,255.189 2194.23,241.707 2198.1,228.708 2201.96,216.206 2205.83,204.214 2209.69,192.745 2213.56,181.808 
  2217.43,171.409 2221.29,161.564 2225.16,152.283 2229.03,143.575 2232.89,135.449 2236.76,127.915 2240.63,120.974 2244.49,114.637 2248.36,108.91 2252.23,103.799 
  2256.09,99.3096 2259.96,95.4472 2263.83,92.2148 2267.69,89.6125 2271.56,87.6455 2275.43,86.3159 2279.29,85.6252 2283.16,85.5744 2287.03,86.1637 2290.89,87.3909 
  2294.76,89.2551 
  "/>
<polyline clip-path="url(#clip322)" style="stroke:#e26f46; stroke-linecap:round; stroke-linejoin:round; stroke-width:8; stroke-opacity:1; fill:none" points="
  361.501,1361.96 365.367,1361.73 369.234,1361.04 373.1,1359.89 376.967,1358.29 380.833,1356.23 384.7,1353.7 388.566,1350.71 392.433,1347.26 396.299,1343.35 
  400.166,1338.99 404.032,1334.16 407.899,1328.88 411.765,1323.15 415.632,1316.98 419.498,1310.37 423.365,1303.32 427.231,1295.85 431.098,1287.95 434.964,1279.64 
  438.831,1270.92 442.698,1261.8 446.564,1252.29 450.431,1242.4 454.297,1232.13 458.164,1221.51 462.03,1210.54 465.897,1199.23 469.763,1187.59 473.63,1175.62 
  477.496,1163.35 481.363,1150.78 485.229,1137.94 489.096,1124.83 492.962,1111.45 496.829,1097.84 500.695,1083.99 504.562,1069.92 508.428,1055.64 512.295,1041.18 
  516.161,1026.55 520.028,1011.75 523.894,996.814 527.761,981.742 531.627,966.555 535.494,951.267 539.36,935.893 543.227,920.45 547.093,904.955 550.96,889.422 
  554.826,873.87 558.693,858.31 562.559,842.756 566.426,827.226 570.293,811.737 574.159,796.306 578.026,780.948 581.892,765.681 585.759,750.51 589.625,735.456 
  593.492,720.534 597.358,705.762 601.225,691.153 605.091,676.724 608.958,662.485 612.824,648.449 616.691,634.633 620.557,621.051 624.424,607.718 628.29,594.646 
  632.157,581.851 636.023,569.339 639.89,557.126 643.756,545.225 647.623,533.648 651.489,522.408 655.356,511.517 659.222,500.985 663.089,490.819 666.955,481.033 
  670.822,471.637 674.688,462.642 678.555,454.057 682.421,445.892 686.288,438.154 690.154,430.851 694.021,423.992 697.887,417.587 701.754,411.641 705.621,406.164 
  709.487,401.161 713.354,396.639 717.22,392.604 721.087,389.063 724.953,386.021 728.82,383.484 732.686,381.457 736.553,379.945 740.419,378.952 744.286,378.483 
  748.152,378.547 752.019,378.979 755.885,379.782 759.752,380.96 763.618,382.516 767.485,384.454 771.351,386.774 775.218,389.476 779.084,392.559 782.951,396.024 
  786.817,399.868 790.684,404.09 794.55,408.686 798.417,413.652 802.283,418.98 806.15,424.671 810.016,430.721 813.883,437.128 817.749,443.883 821.616,450.97 
  825.482,458.394 829.349,466.15 833.216,474.233 837.082,482.635 840.949,491.332 844.815,500.328 848.682,509.618 852.548,519.194 856.415,529.047 860.281,539.152 
  864.148,549.51 868.014,560.113 871.881,570.952 875.747,582.019 879.614,593.286 883.48,604.754 887.347,616.412 891.213,628.249 895.08,640.256 898.946,652.409 
  902.813,664.704 906.679,677.128 910.546,689.671 914.412,702.32 918.279,715.058 922.145,727.874 926.012,740.756 929.878,753.692 933.745,766.671 937.611,779.675 
  941.478,792.693 945.344,805.712 949.211,818.72 953.077,831.704 956.944,844.651 960.811,857.546 964.677,870.377 968.544,883.133 972.41,895.798 976.277,908.362 
  980.143,920.813 984.01,933.136 987.876,945.319 991.743,957.349 995.609,969.216 999.476,980.909 1003.34,992.415 1007.21,1003.72 1011.08,1014.81 1014.94,1025.68 
  1018.81,1036.32 1022.67,1046.72 1026.54,1056.86 1030.41,1066.74 1034.27,1076.33 1038.14,1085.65 1042.01,1094.67 1045.87,1103.39 1049.74,1111.79 1053.61,1119.86 
  1057.47,1127.62 1061.34,1135.03 1065.21,1142.09 1069.07,1148.8 1072.94,1155.13 1076.81,1161.11 1080.67,1166.71 1084.54,1171.92 1088.41,1176.74 1092.27,1181.16 
  1096.14,1185.18 1100.01,1188.79 1103.87,1191.99 1107.74,1194.76 1111.6,1197.11 1115.47,1199.03 1119.34,1200.53 1123.2,1201.58 1127.07,1202.19 1130.94,1202.35 
  1134.8,1202.1 1138.67,1201.6 1142.54,1200.81 1146.4,1199.72 1150.27,1198.34 1154.14,1196.66 1158,1194.68 1161.87,1192.4 1165.74,1189.82 1169.6,1186.94 
  1173.47,1183.76 1177.34,1180.29 1181.2,1176.52 1185.07,1172.47 1188.93,1168.12 1192.8,1163.49 1196.67,1158.58 1200.53,1153.39 1204.4,1147.92 1208.27,1142.19 
  1212.13,1136.19 1216,1129.94 1219.87,1123.43 1223.73,1116.67 1227.6,1109.67 1231.47,1102.44 1235.33,1094.99 1239.2,1087.31 1243.07,1079.41 1246.93,1071.31 
  1250.8,1063.01 1254.67,1054.52 1258.53,1045.84 1262.4,1036.99 1266.27,1027.98 1270.13,1018.81 1274,1009.49 1277.86,1000.03 1281.73,990.443 1285.6,980.738 
  1289.46,970.923 1293.33,961.008 1297.2,951.001 1301.06,940.912 1304.93,930.749 1308.8,920.523 1312.66,910.25 1316.53,899.936 1320.4,889.592 1324.26,879.226 
  1328.13,868.85 1332,858.473 1335.86,848.107 1339.73,837.76 1343.6,827.444 1347.46,817.169 1351.33,806.946 1355.2,796.786 1359.06,786.698 1362.93,776.694 
  1366.79,766.785 1370.66,756.977 1374.53,747.279 1378.39,737.703 1382.26,728.261 1386.13,718.961 1389.99,709.815 1393.86,700.833 1397.73,692.024 1401.59,683.39 
  1405.46,674.943 1409.33,666.693 1413.19,658.651 1417.06,650.824 1420.93,643.222 1424.79,635.852 1428.66,628.724 1432.53,621.837 1436.39,615.204 1440.26,608.833 
  1444.12,602.73 1447.99,596.904 1451.86,591.361 1455.72,586.108 1459.59,581.15 1463.46,576.489 1467.32,572.136 1471.19,568.094 1475.06,564.371 1478.92,560.97 
  1482.79,557.897 1486.66,555.157 1490.52,552.752 1494.39,550.688 1498.26,548.968 1502.12,547.597 1505.99,546.577 1509.86,545.913 1513.72,545.607 1517.59,545.677 
  1521.46,545.954 1525.32,546.426 1529.19,547.091 1533.05,547.964 1536.92,549.046 1540.79,550.338 1544.65,551.842 1548.52,553.556 1552.39,555.482 1556.25,557.619 
  1560.12,559.966 1563.99,562.521 1567.85,565.286 1571.72,568.255 1575.59,571.43 1579.45,574.807 1583.32,578.384 1587.19,582.158 1591.05,586.126 1594.92,590.279 
  1598.79,594.619 1602.65,599.144 1606.52,603.85 1610.39,608.736 1614.25,613.794 1618.12,619.01 1621.98,624.389 1625.85,629.928 1629.72,635.622 1633.58,641.469 
  1637.45,647.462 1641.32,653.58 1645.18,659.83 1649.05,666.207 1652.92,672.706 1656.78,679.322 1660.65,686.051 1664.52,692.869 1668.38,699.781 1672.25,706.782 
  1676.12,713.864 1679.98,721.024 1683.85,728.253 1687.72,735.537 1691.58,742.871 1695.45,750.252 1699.31,757.671 1703.18,765.123 1707.05,772.6 1710.91,780.09 
  1714.78,787.588 1718.65,795.086 1722.51,802.578 1726.38,810.057 1730.25,817.515 1734.11,824.944 1737.98,832.335 1741.85,839.682 1745.71,846.977 1749.58,854.213 
  1753.45,861.383 1757.31,868.48 1761.18,875.496 1765.05,882.424 1768.91,889.256 1772.78,895.985 1776.65,902.605 1780.51,909.107 1784.38,915.489 1788.24,921.742 
  1792.11,927.857 1795.98,933.829 1799.84,939.65 1803.71,945.313 1807.58,950.82 1811.44,956.16 1815.31,961.325 1819.18,966.309 1823.04,971.106 1826.91,975.709 
  1830.78,980.124 1834.64,984.338 1838.51,988.345 1842.38,992.139 1846.24,995.715 1850.11,999.067 1853.98,1002.2 1857.84,1005.11 1861.71,1007.78 1865.58,1010.21 
  1869.44,1012.4 1873.31,1014.34 1877.17,1016.04 1881.04,1017.48 1884.91,1018.67 1888.77,1019.6 1892.64,1020.27 1896.51,1020.67 1900.37,1020.8 1904.24,1020.73 
  1908.11,1020.56 1911.97,1020.27 1915.84,1019.88 1919.71,1019.36 1923.57,1018.74 1927.44,1018 1931.31,1017.15 1935.17,1016.19 1939.04,1015.11 1942.91,1013.92 
  1946.77,1012.62 1950.64,1011.2 1954.5,1009.67 1958.37,1008.03 1962.24,1006.28 1966.1,1004.42 1969.97,1002.46 1973.84,1000.38 1977.7,998.199 1981.57,995.914 
  1985.44,993.529 1989.3,991.043 1993.17,988.456 1997.04,985.77 2000.9,982.988 2004.77,980.117 2008.64,977.155 2012.5,974.105 2016.37,970.966 2020.24,967.743 
  2024.1,964.444 2027.97,961.068 2031.84,957.616 2035.7,954.093 2039.57,950.499 2043.43,946.843 2047.3,943.126 2051.17,939.352 2055.03,935.522 2058.9,931.64 
  2062.77,927.71 2066.63,923.739 2070.5,919.729 2074.37,915.682 2078.23,911.603 2082.1,907.494 2085.97,903.363 2089.83,899.213 2093.7,895.046 2097.57,890.867 
  2101.43,886.68 2105.3,882.49 2109.17,878.302 2113.03,874.118 2116.9,869.943 2120.77,865.781 2124.63,861.636 2128.5,857.514 2132.36,853.418 2136.23,849.351 
  2140.1,845.319 2143.96,841.326 2147.83,837.375 2151.7,833.471 2155.56,829.618 2159.43,825.82 2163.3,822.079 2167.16,818.402 2171.03,814.791 2174.9,811.251 
  2178.76,807.786 2182.63,804.4 2186.5,801.096 2190.36,797.88 2194.23,794.754 2198.1,791.72 2201.96,788.781 2205.83,785.942 2209.69,783.208 2213.56,780.581 
  2217.43,778.064 2221.29,775.663 2225.16,773.379 2229.03,771.217 2232.89,769.176 2236.76,767.259 2240.63,765.47 2244.49,763.812 2248.36,762.288 2252.23,760.901 
  2256.09,759.653 2259.96,758.547 2263.83,757.586 2267.69,756.771 2271.56,756.103 2275.43,755.584 2279.29,755.216 2283.16,755.001 2287.03,754.94 2290.89,754.94 
  2294.76,754.94 
  "/>
<polyline clip-path="url(#clip322)" style="stroke:#3da44d; stroke-linecap:round; stroke-linejoin:round; stroke-width:8; stroke-opacity:1; fill:none" points="
  361.501,1361.96 365.367,1352.14 369.234,1342.33 373.1,1332.53 376.967,1322.73 380.833,1312.94 384.7,1303.15 388.566,1293.37 392.433,1283.6 396.299,1273.83 
  400.166,1264.07 404.032,1254.31 407.899,1244.56 411.765,1234.82 415.632,1225.09 419.498,1215.36 423.365,1205.63 427.231,1195.92 431.098,1186.21 434.964,1176.51 
  438.831,1166.81 442.698,1157.13 446.564,1147.45 450.431,1137.78 454.297,1128.13 458.164,1118.48 462.03,1108.85 465.897,1099.23 469.763,1089.63 473.63,1080.04 
  477.496,1070.47 481.363,1060.93 485.229,1051.41 489.096,1041.92 492.962,1032.46 496.829,1023.03 500.695,1013.64 504.562,1004.3 508.428,995.004 512.295,985.767 
  516.161,976.595 520.028,967.494 523.894,958.473 527.761,949.542 531.627,940.709 535.494,931.985 539.36,923.381 543.227,914.907 547.093,906.577 550.96,898.401 
  554.826,890.394 558.693,882.572 562.559,874.952 566.426,867.546 570.293,860.368 574.159,853.43 578.026,846.739 581.892,840.306 585.759,834.137 589.625,828.238 
  593.492,822.613 597.358,817.265 601.225,812.195 605.091,807.404 608.958,802.889 612.824,798.649 616.691,794.675 620.557,790.958 624.424,787.485 628.29,784.245 
  632.157,781.23 636.023,778.427 639.89,775.826 643.756,773.418 647.623,771.192 651.489,769.139 655.356,767.248 659.222,765.511 663.089,763.918 666.955,762.459 
  670.822,761.126 674.688,759.909 678.555,758.801 682.421,757.79 686.288,756.872 690.154,756.041 694.021,755.292 697.887,754.62 701.754,754.02 705.621,753.489 
  709.487,753.02 713.354,752.611 717.22,752.257 721.087,751.954 724.953,751.698 728.82,751.486 732.686,751.313 736.553,751.177 740.419,751.075 744.286,751.002 
  748.152,750.957 752.019,750.938 755.885,750.945 759.752,750.976 763.618,751.029 767.485,751.105 771.351,751.201 775.218,751.317 779.084,751.451 782.951,751.603 
  786.817,751.771 790.684,751.954 794.55,752.151 798.417,752.361 802.283,752.582 806.15,752.814 810.016,753.055 813.883,753.305 817.749,753.561 821.616,753.824 
  825.482,754.091 829.349,754.365 833.216,754.644 837.082,754.929 840.949,755.219 844.815,755.514 848.682,755.815 852.548,756.121 856.415,756.431 860.281,756.746 
  864.148,757.066 868.014,757.389 871.881,757.717 875.747,758.048 879.614,758.382 883.48,758.72 887.347,759.06 891.213,759.402 895.08,759.747 898.946,760.093 
  902.813,760.441 906.679,760.79 910.546,761.14 914.412,761.489 918.279,761.84 922.145,762.191 926.012,762.543 929.878,762.896 933.745,763.25 937.611,763.605 
  941.478,763.961 945.344,764.319 949.211,764.677 953.077,765.036 956.944,765.396 960.811,765.757 964.677,766.12 968.544,766.483 972.41,766.847 976.277,767.212 
  980.143,767.577 984.01,767.944 987.876,768.311 991.743,768.678 995.609,769.046 999.476,769.415 1003.34,769.784 1007.21,770.152 1011.08,770.522 1014.94,770.891 
  1018.81,771.26 1022.67,771.628 1026.54,771.997 1030.41,772.365 1034.27,772.733 1038.14,773.101 1042.01,773.469 1045.87,773.838 1049.74,774.207 1053.61,774.576 
  1057.47,774.945 1061.34,775.314 1065.21,775.684 1069.07,776.054 1072.94,776.424 1076.81,776.794 1080.67,777.164 1084.54,777.534 1088.41,777.905 1092.27,778.275 
  1096.14,778.646 1100.01,779.017 1103.87,779.388 1107.74,779.759 1111.6,780.131 1115.47,780.502 1119.34,780.874 1123.2,781.245 1127.07,781.617 1130.94,781.989 
  1134.8,782.361 1138.67,782.733 1142.54,783.105 1146.4,783.477 1150.27,783.848 1154.14,784.22 1158,784.592 1161.87,784.964 1165.74,785.336 1169.6,785.707 
  1173.47,786.079 1177.34,786.452 1181.2,786.826 1185.07,787.201 1188.93,787.576 1192.8,787.952 1196.67,788.329 1200.53,788.705 1204.4,789.082 1208.27,789.46 
  1212.13,789.837 1216,790.214 1219.87,790.591 1223.73,790.968 1227.6,791.344 1231.47,791.72 1235.33,792.096 1239.2,792.471 1243.07,792.846 1246.93,793.22 
  1250.8,793.594 1254.67,793.967 1258.53,794.339 1262.4,794.711 1266.27,795.082 1270.13,795.453 1274,795.822 1277.86,796.191 1281.73,796.56 1285.6,796.928 
  1289.46,797.295 1293.33,797.661 1297.2,798.027 1301.06,798.393 1304.93,798.758 1308.8,799.122 1312.66,799.487 1316.53,799.851 1320.4,800.214 1324.26,800.578 
  1328.13,800.941 1332,801.305 1335.86,801.668 1339.73,802.032 1343.6,802.396 1347.46,802.761 1351.33,803.126 1355.2,803.492 1359.06,803.859 1362.93,804.226 
  1366.79,804.595 1370.66,804.965 1374.53,805.336 1378.39,805.709 1382.26,806.083 1386.13,806.459 1389.99,806.838 1393.86,807.218 1397.73,807.599 1401.59,807.982 
  1405.46,808.366 1409.33,808.75 1413.19,809.134 1417.06,809.519 1420.93,809.903 1424.79,810.287 1428.66,810.671 1432.53,811.054 1436.39,811.436 1440.26,811.817 
  1444.12,812.197 1447.99,812.575 1451.86,812.953 1455.72,813.329 1459.59,813.703 1463.46,814.077 1467.32,814.448 1471.19,814.818 1475.06,815.186 1478.92,815.553 
  1482.79,815.919 1486.66,816.283 1490.52,816.645 1494.39,817.006 1498.26,817.366 1502.12,817.725 1505.99,818.083 1509.86,818.44 1513.72,818.796 1517.59,819.152 
  1521.46,819.507 1525.32,819.863 1529.19,820.218 1533.05,820.574 1536.92,820.93 1540.79,821.287 1544.65,821.645 1548.52,822.005 1552.39,822.366 1556.25,822.73 
  1560.12,823.096 1563.99,823.464 1567.85,823.836 1571.72,824.211 1575.59,824.59 1579.45,824.973 1583.32,825.357 1587.19,825.744 1591.05,826.133 1594.92,826.522 
  1598.79,826.913 1602.65,827.304 1606.52,827.695 1610.39,828.086 1614.25,828.476 1618.12,828.866 1621.98,829.254 1625.85,829.641 1629.72,830.026 1633.58,830.41 
  1637.45,830.792 1641.32,831.171 1645.18,831.549 1649.05,831.924 1652.92,832.297 1656.78,832.667 1660.65,833.035 1664.52,833.401 1668.38,833.764 1672.25,834.125 
  1676.12,834.483 1679.98,834.839 1683.85,835.193 1687.72,835.546 1691.58,835.896 1695.45,836.244 1699.31,836.592 1703.18,836.938 1707.05,837.283 1710.91,837.627 
  1714.78,837.972 1718.65,838.316 1722.51,838.66 1726.38,839.005 1730.25,839.351 1734.11,839.699 1737.98,840.049 1741.85,840.401 1745.71,840.756 1749.58,841.114 
  1753.45,841.477 1757.31,841.844 1761.18,842.216 1765.05,842.593 1768.91,842.977 1772.78,843.365 1776.65,843.756 1780.51,844.149 1784.38,844.545 1788.24,844.943 
  1792.11,845.341 1795.98,845.74 1799.84,846.138 1803.71,846.537 1807.58,846.934 1811.44,847.33 1815.31,847.724 1819.18,848.117 1823.04,848.507 1826.91,848.895 
  1830.78,849.279 1834.64,849.661 1838.51,850.04 1842.38,850.415 1846.24,850.787 1850.11,851.156 1853.98,851.521 1857.84,851.883 1861.71,852.241 1865.58,852.596 
  1869.44,852.948 1873.31,853.297 1877.17,853.643 1881.04,853.986 1884.91,854.326 1888.77,854.664 1892.64,855 1896.51,855.335 1900.37,855.668 1904.24,856.001 
  1908.11,856.333 1911.97,856.665 1915.84,856.998 1919.71,857.331 1923.57,857.666 1927.44,858.004 1931.31,858.344 1935.17,858.688 1939.04,859.035 1942.91,859.388 
  1946.77,859.746 1950.64,860.111 1954.5,860.483 1958.37,860.863 1962.24,861.251 1966.1,861.642 1969.97,862.038 1973.84,862.436 1977.7,862.837 1981.57,863.239 
  1985.44,863.642 1989.3,864.045 1993.17,864.448 1997.04,864.85 2000.9,865.251 2004.77,865.651 2008.64,866.048 2012.5,866.442 2016.37,866.834 2020.24,867.223 
  2024.1,867.608 2027.97,867.99 2031.84,868.368 2035.7,868.742 2039.57,869.112 2043.43,869.478 2047.3,869.841 2051.17,870.199 2055.03,870.553 2058.9,870.903 
  2062.77,871.25 2066.63,871.593 2070.5,871.932 2074.37,872.269 2078.23,872.602 2082.1,872.934 2085.97,873.263 2089.83,873.59 2093.7,873.916 2097.57,874.241 
  2101.43,874.566 2105.3,874.891 2109.17,875.217 2113.03,875.544 2116.9,875.874 2120.77,876.206 2124.63,876.542 2128.5,876.882 2132.36,877.228 2136.23,877.579 
  2140.1,877.938 2143.96,878.304 2147.83,878.679 2151.7,879.064 2155.56,879.449 2159.43,879.835 2163.3,880.221 2167.16,880.606 2171.03,880.991 2174.9,881.375 
  2178.76,881.758 2182.63,882.14 2186.5,882.52 2190.36,882.899 2194.23,883.277 2198.1,883.653 2201.96,884.027 2205.83,884.4 2209.69,884.771 2213.56,885.141 
  2217.43,885.508 2221.29,885.874 2225.16,886.239 2229.03,886.602 2232.89,886.963 2236.76,887.323 2240.63,887.682 2244.49,888.04 2248.36,888.397 2252.23,888.753 
  2256.09,889.109 2259.96,889.464 2263.83,889.819 2267.69,890.174 2271.56,890.53 2275.43,890.887 2279.29,891.244 2283.16,891.603 2287.03,891.964 2290.89,892.326 
  2294.76,892.691 
  "/>
<polyline clip-path="url(#clip322)" style="stroke:#c271d2; stroke-linecap:round; stroke-linejoin:round; stroke-width:8; stroke-opacity:1; fill:none" points="
  361.501,1361.96 365.367,1354.4 369.234,1346.76 373.1,1339.02 376.967,1331.2 380.833,1323.29 384.7,1315.29 388.566,1307.19 392.433,1299.01 396.299,1290.74 
  400.166,1282.37 404.032,1273.91 407.899,1265.35 411.765,1256.69 415.632,1247.94 419.498,1239.08 423.365,1230.12 427.231,1221.05 431.098,1211.88 434.964,1202.59 
  438.831,1193.18 442.698,1183.65 446.564,1174 450.431,1164.22 454.297,1154.31 458.164,1144.26 462.03,1134.07 465.897,1123.73 469.763,1113.23 473.63,1102.57 
  477.496,1091.75 481.363,1080.75 485.229,1069.57 489.096,1058.2 492.962,1046.64 496.829,1034.88 500.695,1022.91 504.562,1010.72 508.428,998.31 512.295,985.663 
  516.161,972.778 520.028,959.654 523.894,946.291 527.761,932.692 531.627,918.86 535.494,904.802 539.36,890.527 543.227,876.046 547.093,861.372 550.96,846.519 
  554.826,831.505 558.693,816.348 562.559,801.072 566.426,785.711 570.293,770.306 574.159,754.901 578.026,739.539 581.892,724.262 585.759,709.115 589.625,694.141 
  593.492,679.385 597.358,664.892 601.225,650.707 605.091,636.875 608.958,623.443 612.824,610.461 616.691,597.981 620.557,586.006 624.424,574.532 628.29,563.554 
  632.157,553.066 636.023,543.063 639.89,533.538 643.756,524.482 647.623,515.887 651.489,507.746 655.356,500.047 659.222,492.782 663.089,485.939 666.955,479.506 
  670.822,473.471 674.688,467.821 678.555,462.543 682.421,457.623 686.288,453.045 690.154,448.794 694.021,444.853 697.887,441.206 701.754,437.848 705.621,434.781 
  709.487,432.002 713.354,429.505 717.22,427.287 721.087,425.343 724.953,423.671 728.82,422.267 732.686,421.127 736.553,420.251 740.419,419.634 744.286,419.276 
  748.152,419.174 752.019,419.327 755.885,419.734 759.752,420.394 763.618,421.307 767.485,422.472 771.351,423.888 775.218,425.557 779.084,427.476 782.951,429.644 
  786.817,432.061 790.684,434.725 794.55,437.638 798.417,440.798 802.283,444.205 806.15,447.86 810.016,451.763 813.883,455.914 817.749,460.315 821.616,464.967 
  825.482,469.869 829.349,475.025 833.216,480.435 837.082,486.102 840.949,492.026 844.815,498.211 848.682,504.658 852.548,511.37 856.415,518.351 860.281,525.602 
  864.148,533.127 868.014,540.929 871.881,549.012 875.747,557.379 879.614,566.034 883.48,574.984 887.347,584.234 891.213,593.786 895.08,603.634 898.946,613.777 
  902.813,624.207 906.679,634.919 910.546,645.906 914.412,657.157 918.279,668.665 922.145,680.417 926.012,692.402 929.878,704.606 933.745,717.016 937.611,729.614 
  941.478,742.385 945.344,755.311 949.211,768.373 953.077,781.551 956.944,794.823 960.811,808.167 964.677,821.559 968.544,834.975 972.41,848.39 976.277,861.775 
  980.143,875.103 984.01,888.345 987.876,901.47 991.743,914.446 995.609,927.241 999.476,939.827 1003.34,952.205 1007.21,964.359 1011.08,976.271 1014.94,987.925 
  1018.81,999.305 1022.67,1010.4 1026.54,1021.19 1030.41,1031.67 1034.27,1041.83 1038.14,1051.65 1042.01,1061.14 1045.87,1070.29 1049.74,1079.08 1053.61,1087.52 
  1057.47,1095.61 1061.34,1103.34 1065.21,1110.72 1069.07,1117.74 1072.94,1124.42 1076.81,1130.74 1080.67,1136.73 1084.54,1142.39 1088.41,1147.73 1092.27,1152.75 
  1096.14,1157.46 1100.01,1161.88 1103.87,1166 1107.74,1169.83 1111.6,1173.38 1115.47,1176.65 1119.34,1179.65 1123.2,1182.38 1127.07,1184.85 1130.94,1187.06 
  1134.8,1189.03 1138.67,1190.76 1142.54,1192.24 1146.4,1193.49 1150.27,1194.51 1154.14,1195.31 1158,1195.88 1161.87,1196.24 1165.74,1196.39 1169.6,1196.33 
  1173.47,1196.06 1177.34,1195.59 1181.2,1194.92 1185.07,1194.06 1188.93,1193 1192.8,1191.75 1196.67,1190.32 1200.53,1188.7 1204.4,1186.9 1208.27,1184.91 
  1212.13,1182.75 1216,1180.41 1219.87,1177.89 1223.73,1175.19 1227.6,1172.33 1231.47,1169.29 1235.33,1166.09 1239.2,1162.72 1243.07,1159.18 1246.93,1155.49 
  1250.8,1151.63 1254.67,1147.61 1258.53,1143.44 1262.4,1139.11 1266.27,1134.63 1270.13,1129.99 1274,1125.2 1277.86,1120.26 1281.73,1115.17 1285.6,1109.93 
  1289.46,1104.54 1293.33,1099 1297.2,1093.32 1301.06,1087.48 1304.93,1081.51 1308.8,1075.38 1312.66,1069.11 1316.53,1062.7 1320.4,1056.14 1324.26,1049.44 
  1328.13,1042.59 1332,1035.59 1335.86,1028.45 1339.73,1021.17 1343.6,1013.74 1347.46,1006.16 1351.33,998.452 1355.2,990.601 1359.06,982.609 1362.93,974.475 
  1366.79,966.198 1370.66,957.782 1374.53,949.228 1378.39,940.541 1382.26,931.726 1386.13,922.789 1389.99,913.739 1393.86,904.585 1397.73,895.337 1401.59,886.006 
  1405.46,876.606 1409.33,867.151 1413.19,857.657 1417.06,848.139 1420.93,838.617 1424.79,829.108 1428.66,819.635 1432.53,810.218 1436.39,800.88 1440.26,791.64 
  1444.12,782.532 1447.99,773.589 1451.86,764.84 1455.72,756.315 1459.59,748.039 1463.46,740.037 1467.32,732.33 1471.19,724.935 1475.06,717.871 1478.92,711.152 
  1482.79,704.788 1486.66,698.79 1490.52,693.165 1494.39,687.918 1498.26,683.051 1502.12,678.564 1505.99,674.459 1509.86,670.732 1513.72,667.38 1517.59,664.4 
  1521.46,661.786 1525.32,659.535 1529.19,657.644 1533.05,656.107 1536.92,654.921 1540.79,654.082 1544.65,653.585 1548.52,653.426 1552.39,653.6 1556.25,654.104 
  1560.12,654.933 1563.99,656.081 1567.85,657.542 1571.72,659.315 1575.59,661.399 1579.45,663.791 1583.32,666.49 1587.19,669.491 1591.05,672.792 1594.92,676.387 
  1598.79,680.273 1602.65,684.443 1606.52,688.891 1610.39,693.611 1614.25,698.596 1618.12,703.838 1621.98,709.329 1625.85,715.058 1629.72,721.018 1633.58,727.198 
  1637.45,733.587 1641.32,740.174 1645.18,746.948 1649.05,753.895 1652.92,761.006 1656.78,768.268 1660.65,775.66 1664.52,783.161 1668.38,790.753 1672.25,798.415 
  1676.12,806.13 1679.98,813.877 1683.85,821.638 1687.72,829.395 1691.58,837.13 1695.45,844.824 1699.31,852.461 1703.18,860.023 1707.05,867.492 1710.91,874.853 
  1714.78,882.088 1718.65,889.181 1722.51,896.116 1726.38,902.878 1730.25,909.452 1734.11,915.83 1737.98,922.001 1741.85,927.957 1745.71,933.69 1749.58,939.192 
  1753.45,944.458 1757.31,949.482 1761.18,954.26 1765.05,958.787 1768.91,963.06 1772.78,967.078 1776.65,970.839 1780.51,974.342 1784.38,977.589 1788.24,980.58 
  1792.11,983.318 1795.98,985.805 1799.84,988.046 1803.71,990.044 1807.58,991.805 1811.44,993.336 1815.31,994.644 1819.18,995.736 1823.04,996.617 1826.91,997.28 
  1830.78,997.73 1834.64,997.968 1838.51,998.001 1842.38,997.83 1846.24,997.461 1850.11,996.897 1853.98,996.141 1857.84,995.198 1861.71,994.071 1865.58,992.765 
  1869.44,991.282 1873.31,989.626 1877.17,987.802 1881.04,985.812 1884.91,983.66 1888.77,981.351 1892.64,978.886 1896.51,976.271 1900.37,973.509 1904.24,970.602 
  1908.11,967.557 1911.97,964.377 1915.84,961.065 1919.71,957.624 1923.57,954.057 1927.44,950.368 1931.31,946.562 1935.17,942.642 1939.04,938.613 1942.91,934.479 
  1946.77,930.247 1950.64,925.921 1954.5,921.507 1958.37,917.011 1962.24,912.439 1966.1,907.797 1969.97,903.093 1973.84,898.333 1977.7,893.524 1981.57,888.675 
  1985.44,883.792 1989.3,878.885 1993.17,873.961 1997.04,869.029 2000.9,864.099 2004.77,859.178 2008.64,854.278 2012.5,849.406 2016.37,844.57 2020.24,839.783 
  2024.1,835.057 2027.97,830.404 2031.84,825.837 2035.7,821.367 2039.57,817.005 2043.43,812.761 2047.3,808.645 2051.17,804.666 2055.03,800.834 2058.9,797.157 
  2062.77,793.643 2066.63,790.299 2070.5,787.133 2074.37,784.15 2078.23,781.357 2082.1,778.76 2085.97,776.364 2089.83,774.172 2093.7,772.19 2097.57,770.42 
  2101.43,768.866 2105.3,767.526 2109.17,766.398 2113.03,765.483 2116.9,764.782 2120.77,764.295 2124.63,764.021 2128.5,763.959 2132.36,764.108 2136.23,764.464 
  2140.1,765.026 2143.96,765.791 2147.83,766.754 2151.7,767.911 2155.56,769.258 2159.43,770.79 2163.3,772.5 2167.16,774.382 2171.03,776.43 2174.9,778.637 
  2178.76,780.993 2182.63,783.492 2186.5,786.124 2190.36,788.881 2194.23,791.761 2198.1,794.756 2201.96,797.858 2205.83,801.056 2209.69,804.342 2213.56,807.706 
  2217.43,811.14 2221.29,814.634 2225.16,818.18 2229.03,821.767 2232.89,825.388 2236.76,829.032 2240.63,832.691 2244.49,836.356 2248.36,840.017 2252.23,843.666 
  2256.09,847.294 2259.96,850.891 2263.83,854.449 2267.69,857.959 2271.56,861.411 2275.43,864.797 2279.29,868.113 2283.16,871.352 2287.03,874.507 2290.89,877.573 
  2294.76,880.545 
  "/>
<path clip-path="url(#clip320)" d="
M1449.37 351.589 L2284.45 351.589 L2284.45 92.3886 L1449.37 92.3886  Z
  " fill="#ffffff" fill-rule="evenodd" fill-opacity="1"/>
<polyline clip-path="url(#clip320)" style="stroke:#000000; stroke-linecap:round; stroke-linejoin:round; stroke-width:4; stroke-opacity:1; fill:none" points="
  1449.37,351.589 2284.45,351.589 2284.45,92.3886 1449.37,92.3886 1449.37,351.589 
  "/>
<polyline clip-path="url(#clip320)" style="stroke:#009af9; stroke-linecap:round; stroke-linejoin:round; stroke-width:4; stroke-opacity:1; fill:none" points="
  1472.14,144.229 1608.76,144.229 
  "/>
<path clip-path="url(#clip320)" d="M1653.77 128.083 L1653.77 132.643 Q1651.11 131.37 1648.75 130.745 Q1646.39 130.12 1644.19 130.12 Q1640.37 130.12 1638.29 131.601 Q1636.23 133.083 1636.23 135.814 Q1636.23 138.106 1637.59 139.287 Q1638.98 140.444 1642.82 141.162 L1645.65 141.74 Q1650.88 142.736 1653.36 145.259 Q1655.86 147.759 1655.86 151.972 Q1655.86 156.995 1652.48 159.587 Q1649.12 162.18 1642.62 162.18 Q1640.16 162.18 1637.38 161.624 Q1634.63 161.069 1631.67 159.981 L1631.67 155.166 Q1634.51 156.763 1637.25 157.573 Q1639.98 158.384 1642.62 158.384 Q1646.62 158.384 1648.8 156.81 Q1650.97 155.236 1650.97 152.319 Q1650.97 149.773 1649.4 148.337 Q1647.85 146.902 1644.28 146.185 L1641.43 145.629 Q1636.2 144.587 1633.87 142.365 Q1631.53 140.143 1631.53 136.185 Q1631.53 131.601 1634.75 128.962 Q1637.99 126.324 1643.66 126.324 Q1646.09 126.324 1648.61 126.763 Q1651.13 127.203 1653.77 128.083 Z" fill="#000000" fill-rule="evenodd" fill-opacity="1" /><path clip-path="url(#clip320)" d="M1662.96 135.583 L1667.22 135.583 L1667.22 161.509 L1662.96 161.509 L1662.96 135.583 M1662.96 125.49 L1667.22 125.49 L1667.22 130.884 L1662.96 130.884 L1662.96 125.49 Z" fill="#000000" fill-rule="evenodd" fill-opacity="1" /><path clip-path="url(#clip320)" d="M1696.32 140.56 Q1697.92 137.689 1700.14 136.324 Q1702.36 134.958 1705.37 134.958 Q1709.42 134.958 1711.62 137.805 Q1713.82 140.629 1713.82 145.861 L1713.82 161.509 L1709.54 161.509 L1709.54 145.999 Q1709.54 142.273 1708.22 140.467 Q1706.9 138.662 1704.19 138.662 Q1700.88 138.662 1698.96 140.861 Q1697.04 143.06 1697.04 146.856 L1697.04 161.509 L1692.75 161.509 L1692.75 145.999 Q1692.75 142.249 1691.43 140.467 Q1690.12 138.662 1687.36 138.662 Q1684.1 138.662 1682.18 140.884 Q1680.25 143.083 1680.25 146.856 L1680.25 161.509 L1675.97 161.509 L1675.97 135.583 L1680.25 135.583 L1680.25 139.611 Q1681.71 137.226 1683.75 136.092 Q1685.79 134.958 1688.59 134.958 Q1691.41 134.958 1693.38 136.393 Q1695.37 137.828 1696.32 140.56 Z" fill="#000000" fill-rule="evenodd" fill-opacity="1" /><path clip-path="url(#clip320)" d="M1726.43 157.62 L1726.43 171.37 L1722.15 171.37 L1722.15 135.583 L1726.43 135.583 L1726.43 139.518 Q1727.78 137.203 1729.81 136.092 Q1731.87 134.958 1734.72 134.958 Q1739.44 134.958 1742.38 138.708 Q1745.35 142.458 1745.35 148.569 Q1745.35 154.68 1742.38 158.43 Q1739.44 162.18 1734.72 162.18 Q1731.87 162.18 1729.81 161.069 Q1727.78 159.935 1726.43 157.62 M1740.93 148.569 Q1740.93 143.87 1738.98 141.208 Q1737.06 138.523 1733.68 138.523 Q1730.3 138.523 1728.36 141.208 Q1726.43 143.87 1726.43 148.569 Q1726.43 153.268 1728.36 155.953 Q1730.3 158.615 1733.68 158.615 Q1737.06 158.615 1738.98 155.953 Q1740.93 153.268 1740.93 148.569 Z" fill="#000000" fill-rule="evenodd" fill-opacity="1" /><path clip-path="url(#clip320)" d="M1752.41 125.49 L1756.67 125.49 L1756.67 161.509 L1752.41 161.509 L1752.41 125.49 Z" fill="#000000" fill-rule="evenodd" fill-opacity="1" /><path clip-path="url(#clip320)" d="M1787.75 147.481 L1787.75 149.564 L1768.17 149.564 Q1768.45 153.962 1770.81 156.277 Q1773.19 158.569 1777.43 158.569 Q1779.88 158.569 1782.17 157.967 Q1784.49 157.365 1786.76 156.161 L1786.76 160.189 Q1784.47 161.161 1782.06 161.671 Q1779.65 162.18 1777.17 162.18 Q1770.97 162.18 1767.34 158.569 Q1763.73 154.958 1763.73 148.8 Q1763.73 142.435 1767.15 138.708 Q1770.6 134.958 1776.43 134.958 Q1781.67 134.958 1784.7 138.337 Q1787.75 141.694 1787.75 147.481 M1783.49 146.231 Q1783.45 142.736 1781.53 140.652 Q1779.63 138.569 1776.48 138.569 Q1772.92 138.569 1770.76 140.583 Q1768.63 142.597 1768.31 146.254 L1783.49 146.231 Z" fill="#000000" fill-rule="evenodd" fill-opacity="1" /><path clip-path="url(#clip320)" d="M1794.93 126.949 L1814.79 126.949 L1814.79 130.884 L1799.61 130.884 L1799.61 141.069 L1813.31 141.069 L1813.31 145.004 L1799.61 145.004 L1799.61 161.509 L1794.93 161.509 L1794.93 126.949 Z" fill="#000000" fill-rule="evenodd" fill-opacity="1" /><path clip-path="url(#clip320)" d="M1822.2 126.949 L1829.17 126.949 L1837.98 150.467 L1846.85 126.949 L1853.82 126.949 L1853.82 161.509 L1849.26 161.509 L1849.26 131.162 L1840.35 154.865 L1835.65 154.865 L1826.73 131.162 L1826.73 161.509 L1822.2 161.509 L1822.2 126.949 Z" fill="#000000" fill-rule="evenodd" fill-opacity="1" /><path clip-path="url(#clip320)" d="M1862.57 126.949 L1867.27 126.949 L1867.27 147.944 Q1867.27 153.499 1869.28 155.953 Q1871.29 158.384 1875.81 158.384 Q1880.3 158.384 1882.31 155.953 Q1884.33 153.499 1884.33 147.944 L1884.33 126.949 L1889.03 126.949 L1889.03 148.523 Q1889.03 155.282 1885.67 158.731 Q1882.34 162.18 1875.81 162.18 Q1869.26 162.18 1865.9 158.731 Q1862.57 155.282 1862.57 148.523 L1862.57 126.949 Z" fill="#000000" fill-rule="evenodd" fill-opacity="1" /><polyline clip-path="url(#clip320)" style="stroke:#e26f46; stroke-linecap:round; stroke-linejoin:round; stroke-width:4; stroke-opacity:1; fill:none" points="
  1472.14,196.069 1608.76,196.069 
  "/>
<path clip-path="url(#clip320)" d="M1647.92 197.145 Q1649.42 197.654 1650.83 199.321 Q1652.27 200.988 1653.7 203.904 L1658.45 213.349 L1653.43 213.349 L1649 204.483 Q1647.29 201.011 1645.67 199.876 Q1644.07 198.742 1641.3 198.742 L1636.2 198.742 L1636.2 213.349 L1631.53 213.349 L1631.53 178.789 L1642.08 178.789 Q1648.01 178.789 1650.93 181.265 Q1653.84 183.742 1653.84 188.742 Q1653.84 192.006 1652.31 194.159 Q1650.81 196.312 1647.92 197.145 M1636.2 182.631 L1636.2 194.9 L1642.08 194.9 Q1645.46 194.9 1647.18 193.349 Q1648.91 191.775 1648.91 188.742 Q1648.91 185.71 1647.18 184.182 Q1645.46 182.631 1642.08 182.631 L1636.2 182.631 Z" fill="#000000" fill-rule="evenodd" fill-opacity="1" /><path clip-path="url(#clip320)" d="M1684.33 199.321 L1684.33 201.404 L1664.74 201.404 Q1665.02 205.802 1667.38 208.117 Q1669.77 210.409 1674 210.409 Q1676.46 210.409 1678.75 209.807 Q1681.06 209.205 1683.33 208.001 L1683.33 212.029 Q1681.04 213.001 1678.63 213.511 Q1676.23 214.02 1673.75 214.02 Q1667.55 214.02 1663.91 210.409 Q1660.3 206.798 1660.3 200.64 Q1660.3 194.275 1663.73 190.548 Q1667.18 186.798 1673.01 186.798 Q1678.24 186.798 1681.27 190.177 Q1684.33 193.534 1684.33 199.321 M1680.07 198.071 Q1680.02 194.576 1678.1 192.492 Q1676.2 190.409 1673.06 190.409 Q1669.49 190.409 1667.34 192.423 Q1665.21 194.437 1664.88 198.094 L1680.07 198.071 Z" fill="#000000" fill-rule="evenodd" fill-opacity="1" /><path clip-path="url(#clip320)" d="M1703.1 200.316 Q1697.94 200.316 1695.95 201.497 Q1693.96 202.677 1693.96 205.525 Q1693.96 207.793 1695.44 209.136 Q1696.94 210.455 1699.51 210.455 Q1703.05 210.455 1705.18 207.955 Q1707.34 205.432 1707.34 201.265 L1707.34 200.316 L1703.1 200.316 M1711.6 198.557 L1711.6 213.349 L1707.34 213.349 L1707.34 209.413 Q1705.88 211.775 1703.7 212.909 Q1701.53 214.02 1698.38 214.02 Q1694.4 214.02 1692.04 211.798 Q1689.7 209.552 1689.7 205.802 Q1689.7 201.427 1692.62 199.205 Q1695.55 196.983 1701.37 196.983 L1707.34 196.983 L1707.34 196.566 Q1707.34 193.627 1705.39 192.029 Q1703.47 190.409 1699.98 190.409 Q1697.75 190.409 1695.65 190.941 Q1693.54 191.474 1691.6 192.539 L1691.6 188.603 Q1693.93 187.701 1696.13 187.261 Q1698.33 186.798 1700.42 186.798 Q1706.04 186.798 1708.82 189.714 Q1711.6 192.631 1711.6 198.557 Z" fill="#000000" fill-rule="evenodd" fill-opacity="1" /><path clip-path="url(#clip320)" d="M1720.37 177.33 L1724.63 177.33 L1724.63 213.349 L1720.37 213.349 L1720.37 177.33 Z" fill="#000000" fill-rule="evenodd" fill-opacity="1" /><path clip-path="url(#clip320)" d="M1733.73 178.789 L1753.59 178.789 L1753.59 182.724 L1738.4 182.724 L1738.4 192.909 L1752.11 192.909 L1752.11 196.844 L1738.4 196.844 L1738.4 213.349 L1733.73 213.349 L1733.73 178.789 Z" fill="#000000" fill-rule="evenodd" fill-opacity="1" /><path clip-path="url(#clip320)" d="M1760.99 178.789 L1767.96 178.789 L1776.78 202.307 L1785.65 178.789 L1792.61 178.789 L1792.61 213.349 L1788.05 213.349 L1788.05 183.002 L1779.14 206.705 L1774.44 206.705 L1765.53 183.002 L1765.53 213.349 L1760.99 213.349 L1760.99 178.789 Z" fill="#000000" fill-rule="evenodd" fill-opacity="1" /><path clip-path="url(#clip320)" d="M1801.36 178.789 L1806.06 178.789 L1806.06 199.784 Q1806.06 205.339 1808.08 207.793 Q1810.09 210.224 1814.61 210.224 Q1819.1 210.224 1821.11 207.793 Q1823.12 205.339 1823.12 199.784 L1823.12 178.789 L1827.82 178.789 L1827.82 200.363 Q1827.82 207.122 1824.47 210.571 Q1821.13 214.02 1814.61 214.02 Q1808.05 214.02 1804.7 210.571 Q1801.36 207.122 1801.36 200.363 L1801.36 178.789 Z" fill="#000000" fill-rule="evenodd" fill-opacity="1" /><polyline clip-path="url(#clip320)" style="stroke:#3da44d; stroke-linecap:round; stroke-linejoin:round; stroke-width:4; stroke-opacity:1; fill:none" points="
  1472.14,247.909 1608.76,247.909 
  "/>
<path clip-path="url(#clip320)" d="M1631.53 230.629 L1637.82 230.629 L1653.15 259.541 L1653.15 230.629 L1657.68 230.629 L1657.68 265.189 L1651.39 265.189 L1636.06 236.277 L1636.06 265.189 L1631.53 265.189 L1631.53 230.629 Z" fill="#000000" fill-rule="evenodd" fill-opacity="1" /><path clip-path="url(#clip320)" d="M1688.98 251.161 L1688.98 253.244 L1669.4 253.244 Q1669.68 257.642 1672.04 259.957 Q1674.42 262.249 1678.66 262.249 Q1681.11 262.249 1683.4 261.647 Q1685.72 261.045 1687.99 259.841 L1687.99 263.869 Q1685.69 264.841 1683.29 265.351 Q1680.88 265.86 1678.4 265.86 Q1672.2 265.86 1668.56 262.249 Q1664.95 258.638 1664.95 252.48 Q1664.95 246.115 1668.38 242.388 Q1671.83 238.638 1677.66 238.638 Q1682.89 238.638 1685.93 242.017 Q1688.98 245.374 1688.98 251.161 M1684.72 249.911 Q1684.68 246.416 1682.75 244.332 Q1680.86 242.249 1677.71 242.249 Q1674.14 242.249 1671.99 244.263 Q1669.86 246.277 1669.54 249.934 L1684.72 249.911 Z" fill="#000000" fill-rule="evenodd" fill-opacity="1" /><path clip-path="url(#clip320)" d="M1695.53 254.957 L1695.53 239.263 L1699.79 239.263 L1699.79 254.795 Q1699.79 258.476 1701.23 260.328 Q1702.66 262.156 1705.53 262.156 Q1708.98 262.156 1710.97 259.957 Q1712.99 257.758 1712.99 253.962 L1712.99 239.263 L1717.24 239.263 L1717.24 265.189 L1712.99 265.189 L1712.99 261.207 Q1711.43 263.568 1709.37 264.726 Q1707.34 265.86 1704.63 265.86 Q1700.16 265.86 1697.85 263.082 Q1695.53 260.304 1695.53 254.957 M1706.25 238.638 L1706.25 238.638 Z" fill="#000000" fill-rule="evenodd" fill-opacity="1" /><path clip-path="url(#clip320)" d="M1741.04 243.244 Q1740.32 242.828 1739.47 242.642 Q1738.63 242.434 1737.61 242.434 Q1734 242.434 1732.06 244.795 Q1730.14 247.133 1730.14 251.531 L1730.14 265.189 L1725.86 265.189 L1725.86 239.263 L1730.14 239.263 L1730.14 243.291 Q1731.48 240.929 1733.63 239.795 Q1735.79 238.638 1738.86 238.638 Q1739.3 238.638 1739.84 238.707 Q1740.37 238.754 1741.02 238.869 L1741.04 243.244 Z" fill="#000000" fill-rule="evenodd" fill-opacity="1" /><path clip-path="url(#clip320)" d="M1757.29 252.156 Q1752.13 252.156 1750.14 253.337 Q1748.15 254.517 1748.15 257.365 Q1748.15 259.633 1749.63 260.976 Q1751.13 262.295 1753.7 262.295 Q1757.24 262.295 1759.37 259.795 Q1761.53 257.272 1761.53 253.105 L1761.53 252.156 L1757.29 252.156 M1765.79 250.397 L1765.79 265.189 L1761.53 265.189 L1761.53 261.253 Q1760.07 263.615 1757.89 264.749 Q1755.72 265.86 1752.57 265.86 Q1748.59 265.86 1746.23 263.638 Q1743.89 261.392 1743.89 257.642 Q1743.89 253.267 1746.8 251.045 Q1749.74 248.823 1755.55 248.823 L1761.53 248.823 L1761.53 248.406 Q1761.53 245.467 1759.58 243.869 Q1757.66 242.249 1754.17 242.249 Q1751.94 242.249 1749.84 242.781 Q1747.73 243.314 1745.79 244.379 L1745.79 240.443 Q1748.12 239.541 1750.32 239.101 Q1752.52 238.638 1754.61 238.638 Q1760.23 238.638 1763.01 241.554 Q1765.79 244.471 1765.79 250.397 Z" fill="#000000" fill-rule="evenodd" fill-opacity="1" /><path clip-path="url(#clip320)" d="M1774.56 229.17 L1778.82 229.17 L1778.82 265.189 L1774.56 265.189 L1774.56 229.17 Z" fill="#000000" fill-rule="evenodd" fill-opacity="1" /><path clip-path="url(#clip320)" d="M1787.92 230.629 L1807.78 230.629 L1807.78 234.564 L1792.59 234.564 L1792.59 244.749 L1806.3 244.749 L1806.3 248.684 L1792.59 248.684 L1792.59 265.189 L1787.92 265.189 L1787.92 230.629 Z" fill="#000000" fill-rule="evenodd" fill-opacity="1" /><path clip-path="url(#clip320)" d="M1815.18 230.629 L1822.15 230.629 L1830.97 254.147 L1839.84 230.629 L1846.8 230.629 L1846.8 265.189 L1842.24 265.189 L1842.24 234.842 L1833.33 258.545 L1828.63 258.545 L1819.72 234.842 L1819.72 265.189 L1815.18 265.189 L1815.18 230.629 Z" fill="#000000" fill-rule="evenodd" fill-opacity="1" /><path clip-path="url(#clip320)" d="M1855.55 230.629 L1860.25 230.629 L1860.25 251.624 Q1860.25 257.179 1862.27 259.633 Q1864.28 262.064 1868.79 262.064 Q1873.29 262.064 1875.3 259.633 Q1877.31 257.179 1877.31 251.624 L1877.31 230.629 L1882.01 230.629 L1882.01 252.203 Q1882.01 258.962 1878.66 262.411 Q1875.32 265.86 1868.79 265.86 Q1862.24 265.86 1858.89 262.411 Q1855.55 258.962 1855.55 252.203 L1855.55 230.629 Z" fill="#000000" fill-rule="evenodd" fill-opacity="1" /><path clip-path="url(#clip320)" d="M1915.9 229.217 Q1912.8 234.541 1911.29 239.749 Q1909.79 244.957 1909.79 250.304 Q1909.79 255.652 1911.29 260.906 Q1912.82 266.138 1915.9 271.439 L1912.2 271.439 Q1908.73 265.999 1906.99 260.744 Q1905.28 255.49 1905.28 250.304 Q1905.28 245.142 1906.99 239.911 Q1908.7 234.68 1912.2 229.217 L1915.9 229.217 Z" fill="#000000" fill-rule="evenodd" fill-opacity="1" /><path clip-path="url(#clip320)" d="M1938.93 246.554 Q1942.29 247.272 1944.16 249.541 Q1946.06 251.809 1946.06 255.142 Q1946.06 260.258 1942.54 263.059 Q1939.03 265.86 1932.54 265.86 Q1930.37 265.86 1928.05 265.42 Q1925.76 265.003 1923.31 264.147 L1923.31 259.633 Q1925.25 260.767 1927.57 261.346 Q1929.88 261.925 1932.41 261.925 Q1936.8 261.925 1939.1 260.189 Q1941.41 258.453 1941.41 255.142 Q1941.41 252.087 1939.26 250.374 Q1937.13 248.638 1933.31 248.638 L1929.28 248.638 L1929.28 244.795 L1933.49 244.795 Q1936.94 244.795 1938.77 243.429 Q1940.6 242.041 1940.6 239.448 Q1940.6 236.786 1938.7 235.374 Q1936.83 233.939 1933.31 233.939 Q1931.39 233.939 1929.19 234.355 Q1926.99 234.772 1924.35 235.652 L1924.35 231.485 Q1927.01 230.744 1929.33 230.374 Q1931.66 230.004 1933.72 230.004 Q1939.05 230.004 1942.15 232.434 Q1945.25 234.842 1945.25 238.962 Q1945.25 241.832 1943.61 243.823 Q1941.97 245.791 1938.93 246.554 Z" fill="#000000" fill-rule="evenodd" fill-opacity="1" /><path clip-path="url(#clip320)" d="M1964.93 233.707 Q1961.32 233.707 1959.49 237.272 Q1957.68 240.814 1957.68 247.943 Q1957.68 255.05 1959.49 258.615 Q1961.32 262.156 1964.93 262.156 Q1968.56 262.156 1970.37 258.615 Q1972.2 255.05 1972.2 247.943 Q1972.2 240.814 1970.37 237.272 Q1968.56 233.707 1964.93 233.707 M1964.93 230.004 Q1970.74 230.004 1973.79 234.61 Q1976.87 239.193 1976.87 247.943 Q1976.87 256.67 1973.79 261.277 Q1970.74 265.86 1964.93 265.86 Q1959.12 265.86 1956.04 261.277 Q1952.98 256.67 1952.98 247.943 Q1952.98 239.193 1956.04 234.61 Q1959.12 230.004 1964.93 230.004 Z" fill="#000000" fill-rule="evenodd" fill-opacity="1" /><path clip-path="url(#clip320)" d="M1995.09 233.707 Q1991.48 233.707 1989.65 237.272 Q1987.85 240.814 1987.85 247.943 Q1987.85 255.05 1989.65 258.615 Q1991.48 262.156 1995.09 262.156 Q1998.72 262.156 2000.53 258.615 Q2002.36 255.05 2002.36 247.943 Q2002.36 240.814 2000.53 237.272 Q1998.72 233.707 1995.09 233.707 M1995.09 230.004 Q2000.9 230.004 2003.96 234.61 Q2007.03 239.193 2007.03 247.943 Q2007.03 256.67 2003.96 261.277 Q2000.9 265.86 1995.09 265.86 Q1989.28 265.86 1986.2 261.277 Q1983.15 256.67 1983.15 247.943 Q1983.15 239.193 1986.2 234.61 Q1989.28 230.004 1995.09 230.004 Z" fill="#000000" fill-rule="evenodd" fill-opacity="1" /><path clip-path="url(#clip320)" d="M2051.9 251.161 L2051.9 253.244 L2032.31 253.244 Q2032.59 257.642 2034.95 259.957 Q2037.34 262.249 2041.57 262.249 Q2044.03 262.249 2046.32 261.647 Q2048.63 261.045 2050.9 259.841 L2050.9 263.869 Q2048.61 264.841 2046.2 265.351 Q2043.79 265.86 2041.32 265.86 Q2035.11 265.86 2031.48 262.249 Q2027.87 258.638 2027.87 252.48 Q2027.87 246.115 2031.29 242.388 Q2034.74 238.638 2040.58 238.638 Q2045.81 238.638 2048.84 242.017 Q2051.9 245.374 2051.9 251.161 M2047.64 249.911 Q2047.59 246.416 2045.67 244.332 Q2043.77 242.249 2040.62 242.249 Q2037.06 242.249 2034.9 244.263 Q2032.78 246.277 2032.45 249.934 L2047.64 249.911 Z" fill="#000000" fill-rule="evenodd" fill-opacity="1" /><path clip-path="url(#clip320)" d="M2063.01 261.3 L2063.01 275.05 L2058.72 275.05 L2058.72 239.263 L2063.01 239.263 L2063.01 243.198 Q2064.35 240.883 2066.39 239.772 Q2068.45 238.638 2071.29 238.638 Q2076.02 238.638 2078.96 242.388 Q2081.92 246.138 2081.92 252.249 Q2081.92 258.36 2078.96 262.11 Q2076.02 265.86 2071.29 265.86 Q2068.45 265.86 2066.39 264.749 Q2064.35 263.615 2063.01 261.3 M2077.5 252.249 Q2077.5 247.55 2075.55 244.888 Q2073.63 242.203 2070.25 242.203 Q2066.87 242.203 2064.93 244.888 Q2063.01 247.55 2063.01 252.249 Q2063.01 256.948 2064.93 259.633 Q2066.87 262.295 2070.25 262.295 Q2073.63 262.295 2075.55 259.633 Q2077.5 256.948 2077.5 252.249 Z" fill="#000000" fill-rule="evenodd" fill-opacity="1" /><path clip-path="url(#clip320)" d="M2099.03 242.249 Q2095.6 242.249 2093.61 244.934 Q2091.62 247.596 2091.62 252.249 Q2091.62 256.902 2093.59 259.587 Q2095.58 262.249 2099.03 262.249 Q2102.43 262.249 2104.42 259.564 Q2106.41 256.878 2106.41 252.249 Q2106.41 247.642 2104.42 244.957 Q2102.43 242.249 2099.03 242.249 M2099.03 238.638 Q2104.58 238.638 2107.75 242.249 Q2110.92 245.86 2110.92 252.249 Q2110.92 258.615 2107.75 262.249 Q2104.58 265.86 2099.03 265.86 Q2093.45 265.86 2090.28 262.249 Q2087.13 258.615 2087.13 252.249 Q2087.13 245.86 2090.28 242.249 Q2093.45 238.638 2099.03 238.638 Z" fill="#000000" fill-rule="evenodd" fill-opacity="1" /><path clip-path="url(#clip320)" d="M2136.64 240.258 L2136.64 244.24 Q2134.84 243.244 2133.01 242.758 Q2131.2 242.249 2129.35 242.249 Q2125.21 242.249 2122.91 244.888 Q2120.62 247.504 2120.62 252.249 Q2120.62 256.994 2122.91 259.633 Q2125.21 262.249 2129.35 262.249 Q2131.2 262.249 2133.01 261.763 Q2134.84 261.253 2136.64 260.258 L2136.64 264.193 Q2134.86 265.027 2132.94 265.443 Q2131.04 265.86 2128.89 265.86 Q2123.03 265.86 2119.58 262.179 Q2116.13 258.499 2116.13 252.249 Q2116.13 245.906 2119.6 242.272 Q2123.1 238.638 2129.16 238.638 Q2131.13 238.638 2133.01 239.055 Q2134.88 239.448 2136.64 240.258 Z" fill="#000000" fill-rule="evenodd" fill-opacity="1" /><path clip-path="url(#clip320)" d="M2165.6 249.541 L2165.6 265.189 L2161.34 265.189 L2161.34 249.679 Q2161.34 245.999 2159.9 244.17 Q2158.47 242.342 2155.6 242.342 Q2152.15 242.342 2150.16 244.541 Q2148.17 246.74 2148.17 250.536 L2148.17 265.189 L2143.89 265.189 L2143.89 229.17 L2148.17 229.17 L2148.17 243.291 Q2149.7 240.953 2151.76 239.795 Q2153.84 238.638 2156.55 238.638 Q2161.02 238.638 2163.31 241.416 Q2165.6 244.17 2165.6 249.541 Z" fill="#000000" fill-rule="evenodd" fill-opacity="1" /><path clip-path="url(#clip320)" d="M2190.62 240.027 L2190.62 244.054 Q2188.82 243.129 2186.87 242.666 Q2184.93 242.203 2182.84 242.203 Q2179.67 242.203 2178.08 243.175 Q2176.5 244.147 2176.5 246.091 Q2176.5 247.573 2177.64 248.429 Q2178.77 249.263 2182.2 250.027 L2183.65 250.351 Q2188.19 251.323 2190.09 253.105 Q2192.01 254.865 2192.01 258.036 Q2192.01 261.647 2189.14 263.753 Q2186.29 265.86 2181.29 265.86 Q2179.21 265.86 2176.94 265.443 Q2174.7 265.05 2172.2 264.24 L2172.2 259.841 Q2174.56 261.068 2176.85 261.693 Q2179.14 262.295 2181.39 262.295 Q2184.39 262.295 2186.02 261.277 Q2187.64 260.235 2187.64 258.36 Q2187.64 256.624 2186.46 255.698 Q2185.3 254.772 2181.34 253.916 L2179.86 253.568 Q2175.9 252.735 2174.14 251.022 Q2172.38 249.286 2172.38 246.277 Q2172.38 242.619 2174.97 240.629 Q2177.57 238.638 2182.33 238.638 Q2184.7 238.638 2186.78 238.985 Q2188.86 239.332 2190.62 240.027 Z" fill="#000000" fill-rule="evenodd" fill-opacity="1" /><path clip-path="url(#clip320)" d="M2198.12 229.217 L2201.83 229.217 Q2205.3 234.68 2207.01 239.911 Q2208.75 245.142 2208.75 250.304 Q2208.75 255.49 2207.01 260.744 Q2205.3 265.999 2201.83 271.439 L2198.12 271.439 Q2201.2 266.138 2202.71 260.906 Q2204.23 255.652 2204.23 250.304 Q2204.23 244.957 2202.71 239.749 Q2201.2 234.541 2198.12 229.217 Z" fill="#000000" fill-rule="evenodd" fill-opacity="1" /><polyline clip-path="url(#clip320)" style="stroke:#c271d2; stroke-linecap:round; stroke-linejoin:round; stroke-width:4; stroke-opacity:1; fill:none" points="
  1472.14,299.749 1608.76,299.749 
  "/>
<path clip-path="url(#clip320)" d="M1631.53 282.469 L1637.82 282.469 L1653.15 311.381 L1653.15 282.469 L1657.68 282.469 L1657.68 317.029 L1651.39 317.029 L1636.06 288.117 L1636.06 317.029 L1631.53 317.029 L1631.53 282.469 Z" fill="#000000" fill-rule="evenodd" fill-opacity="1" /><path clip-path="url(#clip320)" d="M1688.98 303.001 L1688.98 305.084 L1669.4 305.084 Q1669.68 309.482 1672.04 311.797 Q1674.42 314.089 1678.66 314.089 Q1681.11 314.089 1683.4 313.487 Q1685.72 312.885 1687.99 311.681 L1687.99 315.709 Q1685.69 316.681 1683.29 317.191 Q1680.88 317.7 1678.4 317.7 Q1672.2 317.7 1668.56 314.089 Q1664.95 310.478 1664.95 304.32 Q1664.95 297.955 1668.38 294.228 Q1671.83 290.478 1677.66 290.478 Q1682.89 290.478 1685.93 293.857 Q1688.98 297.214 1688.98 303.001 M1684.72 301.751 Q1684.68 298.256 1682.75 296.172 Q1680.86 294.089 1677.71 294.089 Q1674.14 294.089 1671.99 296.103 Q1669.86 298.117 1669.54 301.774 L1684.72 301.751 Z" fill="#000000" fill-rule="evenodd" fill-opacity="1" /><path clip-path="url(#clip320)" d="M1695.53 306.797 L1695.53 291.103 L1699.79 291.103 L1699.79 306.635 Q1699.79 310.316 1701.23 312.168 Q1702.66 313.996 1705.53 313.996 Q1708.98 313.996 1710.97 311.797 Q1712.99 309.598 1712.99 305.802 L1712.99 291.103 L1717.24 291.103 L1717.24 317.029 L1712.99 317.029 L1712.99 313.047 Q1711.43 315.408 1709.37 316.566 Q1707.34 317.7 1704.63 317.7 Q1700.16 317.7 1697.85 314.922 Q1695.53 312.144 1695.53 306.797 M1706.25 290.478 L1706.25 290.478 Z" fill="#000000" fill-rule="evenodd" fill-opacity="1" /><path clip-path="url(#clip320)" d="M1741.04 295.084 Q1740.32 294.668 1739.47 294.482 Q1738.63 294.274 1737.61 294.274 Q1734 294.274 1732.06 296.635 Q1730.14 298.973 1730.14 303.371 L1730.14 317.029 L1725.86 317.029 L1725.86 291.103 L1730.14 291.103 L1730.14 295.131 Q1731.48 292.769 1733.63 291.635 Q1735.79 290.478 1738.86 290.478 Q1739.3 290.478 1739.84 290.547 Q1740.37 290.594 1741.02 290.709 L1741.04 295.084 Z" fill="#000000" fill-rule="evenodd" fill-opacity="1" /><path clip-path="url(#clip320)" d="M1757.29 303.996 Q1752.13 303.996 1750.14 305.177 Q1748.15 306.357 1748.15 309.205 Q1748.15 311.473 1749.63 312.816 Q1751.13 314.135 1753.7 314.135 Q1757.24 314.135 1759.37 311.635 Q1761.53 309.112 1761.53 304.945 L1761.53 303.996 L1757.29 303.996 M1765.79 302.237 L1765.79 317.029 L1761.53 317.029 L1761.53 313.093 Q1760.07 315.455 1757.89 316.589 Q1755.72 317.7 1752.57 317.7 Q1748.59 317.7 1746.23 315.478 Q1743.89 313.232 1743.89 309.482 Q1743.89 305.107 1746.8 302.885 Q1749.74 300.663 1755.55 300.663 L1761.53 300.663 L1761.53 300.246 Q1761.53 297.307 1759.58 295.709 Q1757.66 294.089 1754.17 294.089 Q1751.94 294.089 1749.84 294.621 Q1747.73 295.154 1745.79 296.219 L1745.79 292.283 Q1748.12 291.381 1750.32 290.941 Q1752.52 290.478 1754.61 290.478 Q1760.23 290.478 1763.01 293.394 Q1765.79 296.311 1765.79 302.237 Z" fill="#000000" fill-rule="evenodd" fill-opacity="1" /><path clip-path="url(#clip320)" d="M1774.56 281.01 L1778.82 281.01 L1778.82 317.029 L1774.56 317.029 L1774.56 281.01 Z" fill="#000000" fill-rule="evenodd" fill-opacity="1" /><path clip-path="url(#clip320)" d="M1787.92 282.469 L1807.78 282.469 L1807.78 286.404 L1792.59 286.404 L1792.59 296.589 L1806.3 296.589 L1806.3 300.524 L1792.59 300.524 L1792.59 317.029 L1787.92 317.029 L1787.92 282.469 Z" fill="#000000" fill-rule="evenodd" fill-opacity="1" /><path clip-path="url(#clip320)" d="M1815.18 282.469 L1822.15 282.469 L1830.97 305.987 L1839.84 282.469 L1846.8 282.469 L1846.8 317.029 L1842.24 317.029 L1842.24 286.682 L1833.33 310.385 L1828.63 310.385 L1819.72 286.682 L1819.72 317.029 L1815.18 317.029 L1815.18 282.469 Z" fill="#000000" fill-rule="evenodd" fill-opacity="1" /><path clip-path="url(#clip320)" d="M1855.55 282.469 L1860.25 282.469 L1860.25 303.464 Q1860.25 309.019 1862.27 311.473 Q1864.28 313.904 1868.79 313.904 Q1873.29 313.904 1875.3 311.473 Q1877.31 309.019 1877.31 303.464 L1877.31 282.469 L1882.01 282.469 L1882.01 304.043 Q1882.01 310.802 1878.66 314.251 Q1875.32 317.7 1868.79 317.7 Q1862.24 317.7 1858.89 314.251 Q1855.55 310.802 1855.55 304.043 L1855.55 282.469 Z" fill="#000000" fill-rule="evenodd" fill-opacity="1" /><path clip-path="url(#clip320)" d="M1915.9 281.057 Q1912.8 286.381 1911.29 291.589 Q1909.79 296.797 1909.79 302.144 Q1909.79 307.492 1911.29 312.746 Q1912.82 317.978 1915.9 323.279 L1912.2 323.279 Q1908.73 317.839 1906.99 312.584 Q1905.28 307.33 1905.28 302.144 Q1905.28 296.982 1906.99 291.751 Q1908.7 286.52 1912.2 281.057 L1915.9 281.057 Z" fill="#000000" fill-rule="evenodd" fill-opacity="1" /><path clip-path="url(#clip320)" d="M1925.58 313.093 L1933.22 313.093 L1933.22 286.728 L1924.91 288.395 L1924.91 284.135 L1933.17 282.469 L1937.85 282.469 L1937.85 313.093 L1945.48 313.093 L1945.48 317.029 L1925.58 317.029 L1925.58 313.093 Z" fill="#000000" fill-rule="evenodd" fill-opacity="1" /><path clip-path="url(#clip320)" d="M1964.93 285.547 Q1961.32 285.547 1959.49 289.112 Q1957.68 292.654 1957.68 299.783 Q1957.68 306.89 1959.49 310.455 Q1961.32 313.996 1964.93 313.996 Q1968.56 313.996 1970.37 310.455 Q1972.2 306.89 1972.2 299.783 Q1972.2 292.654 1970.37 289.112 Q1968.56 285.547 1964.93 285.547 M1964.93 281.844 Q1970.74 281.844 1973.79 286.45 Q1976.87 291.033 1976.87 299.783 Q1976.87 308.51 1973.79 313.117 Q1970.74 317.7 1964.93 317.7 Q1959.12 317.7 1956.04 313.117 Q1952.98 308.51 1952.98 299.783 Q1952.98 291.033 1956.04 286.45 Q1959.12 281.844 1964.93 281.844 Z" fill="#000000" fill-rule="evenodd" fill-opacity="1" /><path clip-path="url(#clip320)" d="M1995.09 285.547 Q1991.48 285.547 1989.65 289.112 Q1987.85 292.654 1987.85 299.783 Q1987.85 306.89 1989.65 310.455 Q1991.48 313.996 1995.09 313.996 Q1998.72 313.996 2000.53 310.455 Q2002.36 306.89 2002.36 299.783 Q2002.36 292.654 2000.53 289.112 Q1998.72 285.547 1995.09 285.547 M1995.09 281.844 Q2000.9 281.844 2003.96 286.45 Q2007.03 291.033 2007.03 299.783 Q2007.03 308.51 2003.96 313.117 Q2000.9 317.7 1995.09 317.7 Q1989.28 317.7 1986.2 313.117 Q1983.15 308.51 1983.15 299.783 Q1983.15 291.033 1986.2 286.45 Q1989.28 281.844 1995.09 281.844 Z" fill="#000000" fill-rule="evenodd" fill-opacity="1" /><path clip-path="url(#clip320)" d="M2025.25 285.547 Q2021.64 285.547 2019.81 289.112 Q2018.01 292.654 2018.01 299.783 Q2018.01 306.89 2019.81 310.455 Q2021.64 313.996 2025.25 313.996 Q2028.89 313.996 2030.69 310.455 Q2032.52 306.89 2032.52 299.783 Q2032.52 292.654 2030.69 289.112 Q2028.89 285.547 2025.25 285.547 M2025.25 281.844 Q2031.06 281.844 2034.12 286.45 Q2037.2 291.033 2037.2 299.783 Q2037.2 308.51 2034.12 313.117 Q2031.06 317.7 2025.25 317.7 Q2019.44 317.7 2016.36 313.117 Q2013.31 308.51 2013.31 299.783 Q2013.31 291.033 2016.36 286.45 Q2019.44 281.844 2025.25 281.844 Z" fill="#000000" fill-rule="evenodd" fill-opacity="1" /><path clip-path="url(#clip320)" d="M2082.06 303.001 L2082.06 305.084 L2062.47 305.084 Q2062.75 309.482 2065.11 311.797 Q2067.5 314.089 2071.73 314.089 Q2074.19 314.089 2076.48 313.487 Q2078.79 312.885 2081.06 311.681 L2081.06 315.709 Q2078.77 316.681 2076.36 317.191 Q2073.96 317.7 2071.48 317.7 Q2065.28 317.7 2061.64 314.089 Q2058.03 310.478 2058.03 304.32 Q2058.03 297.955 2061.46 294.228 Q2064.9 290.478 2070.74 290.478 Q2075.97 290.478 2079 293.857 Q2082.06 297.214 2082.06 303.001 M2077.8 301.751 Q2077.75 298.256 2075.83 296.172 Q2073.93 294.089 2070.78 294.089 Q2067.22 294.089 2065.07 296.103 Q2062.94 298.117 2062.61 301.774 L2077.8 301.751 Z" fill="#000000" fill-rule="evenodd" fill-opacity="1" /><path clip-path="url(#clip320)" d="M2093.17 313.14 L2093.17 326.89 L2088.89 326.89 L2088.89 291.103 L2093.17 291.103 L2093.17 295.038 Q2094.51 292.723 2096.55 291.612 Q2098.61 290.478 2101.46 290.478 Q2106.18 290.478 2109.12 294.228 Q2112.08 297.978 2112.08 304.089 Q2112.08 310.2 2109.12 313.95 Q2106.18 317.7 2101.46 317.7 Q2098.61 317.7 2096.55 316.589 Q2094.51 315.455 2093.17 313.14 M2107.66 304.089 Q2107.66 299.39 2105.71 296.728 Q2103.79 294.043 2100.41 294.043 Q2097.03 294.043 2095.09 296.728 Q2093.17 299.39 2093.17 304.089 Q2093.17 308.788 2095.09 311.473 Q2097.03 314.135 2100.41 314.135 Q2103.79 314.135 2105.71 311.473 Q2107.66 308.788 2107.66 304.089 Z" fill="#000000" fill-rule="evenodd" fill-opacity="1" /><path clip-path="url(#clip320)" d="M2129.19 294.089 Q2125.76 294.089 2123.77 296.774 Q2121.78 299.436 2121.78 304.089 Q2121.78 308.742 2123.75 311.427 Q2125.74 314.089 2129.19 314.089 Q2132.59 314.089 2134.58 311.404 Q2136.57 308.718 2136.57 304.089 Q2136.57 299.482 2134.58 296.797 Q2132.59 294.089 2129.19 294.089 M2129.19 290.478 Q2134.74 290.478 2137.91 294.089 Q2141.08 297.7 2141.08 304.089 Q2141.08 310.455 2137.91 314.089 Q2134.74 317.7 2129.19 317.7 Q2123.61 317.7 2120.44 314.089 Q2117.29 310.455 2117.29 304.089 Q2117.29 297.7 2120.44 294.089 Q2123.61 290.478 2129.19 290.478 Z" fill="#000000" fill-rule="evenodd" fill-opacity="1" /><path clip-path="url(#clip320)" d="M2166.8 292.098 L2166.8 296.08 Q2165 295.084 2163.17 294.598 Q2161.36 294.089 2159.51 294.089 Q2155.37 294.089 2153.08 296.728 Q2150.78 299.344 2150.78 304.089 Q2150.78 308.834 2153.08 311.473 Q2155.37 314.089 2159.51 314.089 Q2161.36 314.089 2163.17 313.603 Q2165 313.093 2166.8 312.098 L2166.8 316.033 Q2165.02 316.867 2163.1 317.283 Q2161.2 317.7 2159.05 317.7 Q2153.19 317.7 2149.74 314.019 Q2146.29 310.339 2146.29 304.089 Q2146.29 297.746 2149.77 294.112 Q2153.26 290.478 2159.33 290.478 Q2161.29 290.478 2163.17 290.895 Q2165.04 291.288 2166.8 292.098 Z" fill="#000000" fill-rule="evenodd" fill-opacity="1" /><path clip-path="url(#clip320)" d="M2195.76 301.381 L2195.76 317.029 L2191.5 317.029 L2191.5 301.519 Q2191.5 297.839 2190.07 296.01 Q2188.63 294.182 2185.76 294.182 Q2182.31 294.182 2180.32 296.381 Q2178.33 298.58 2178.33 302.376 L2178.33 317.029 L2174.05 317.029 L2174.05 281.01 L2178.33 281.01 L2178.33 295.131 Q2179.86 292.793 2181.92 291.635 Q2184 290.478 2186.71 290.478 Q2191.18 290.478 2193.47 293.256 Q2195.76 296.01 2195.76 301.381 Z" fill="#000000" fill-rule="evenodd" fill-opacity="1" /><path clip-path="url(#clip320)" d="M2220.78 291.867 L2220.78 295.894 Q2218.98 294.969 2217.03 294.506 Q2215.09 294.043 2213.01 294.043 Q2209.83 294.043 2208.24 295.015 Q2206.66 295.987 2206.66 297.931 Q2206.66 299.413 2207.8 300.269 Q2208.93 301.103 2212.36 301.867 L2213.82 302.191 Q2218.35 303.163 2220.25 304.945 Q2222.17 306.705 2222.17 309.876 Q2222.17 313.487 2219.3 315.593 Q2216.45 317.7 2211.45 317.7 Q2209.37 317.7 2207.1 317.283 Q2204.86 316.89 2202.36 316.08 L2202.36 311.681 Q2204.72 312.908 2207.01 313.533 Q2209.3 314.135 2211.55 314.135 Q2214.56 314.135 2216.18 313.117 Q2217.8 312.075 2217.8 310.2 Q2217.8 308.464 2216.62 307.538 Q2215.46 306.612 2211.5 305.756 L2210.02 305.408 Q2206.06 304.575 2204.3 302.862 Q2202.54 301.126 2202.54 298.117 Q2202.54 294.459 2205.14 292.469 Q2207.73 290.478 2212.5 290.478 Q2214.86 290.478 2216.94 290.825 Q2219.02 291.172 2220.78 291.867 Z" fill="#000000" fill-rule="evenodd" fill-opacity="1" /><path clip-path="url(#clip320)" d="M2228.28 281.057 L2231.99 281.057 Q2235.46 286.52 2237.17 291.751 Q2238.91 296.982 2238.91 302.144 Q2238.91 307.33 2237.17 312.584 Q2235.46 317.839 2231.99 323.279 L2228.28 323.279 Q2231.36 317.978 2232.87 312.746 Q2234.39 307.492 2234.39 302.144 Q2234.39 296.797 2232.87 291.589 Q2231.36 286.381 2228.28 281.057 Z" fill="#000000" fill-rule="evenodd" fill-opacity="1" /></svg>
