<?xml version="1.0" standalone="no"?>
<!DOCTYPE svg PUBLIC "-//W3C//DTD SVG 20010904//EN"
 "http://www.w3.org/TR/2001/REC-SVG-20010904/DTD/svg10.dtd">
<svg version="1.0" xmlns="http://www.w3.org/2000/svg"
 width="1811.000000pt" height="427.000000pt" viewBox="0 0 1811.000000 427.000000"
 preserveAspectRatio="xMidYMid meet">

<g transform="translate(0.000000,427.000000) scale(0.100000,-0.100000)"
fill="#000000" stroke="none">
<path d="M9270 4050 c0 -27 3 -30 30 -30 27 0 30 3 30 30 0 27 -3 30 -30 30
-27 0 -30 -3 -30 -30z"/>
<path d="M929 4044 c-11 -13 45 -73 419 -447 l432 -432 0 -400 0 -400 -415
415 c-395 394 -416 414 -432 397 -17 -16 3 -38 415 -450 l432 -432 0 -400 0
-400 -413 413 c-394 394 -414 412 -430 395 -15 -18 5 -40 413 -448 l430 -430
0 -400 0 -400 -413 413 c-392 392 -413 411 -430 395 -16 -17 4 -39 413 -448
399 -399 433 -431 461 -427 l29 4 0 854 0 854 295 0 295 0 0 -110 0 -110 250
0 250 0 0 110 0 110 1930 0 1930 0 0 -110 0 -110 245 0 245 0 0 115 0 115 308
0 307 0 155 -310 c128 -257 158 -310 174 -308 15 2 85 147 305 620 157 340
288 618 291 618 3 0 154 -278 335 -618 253 -473 335 -618 350 -620 17 -2 64
86 331 620 l311 623 157 -313 156 -312 315 0 315 0 0 -115 0 -115 250 0 250 0
0 110 0 110 830 0 830 0 0 -110 0 -110 250 0 250 0 0 110 0 110 345 0 345 0 2
-312 3 -313 1199 -3 c878 -1 1202 1 1212 9 11 9 14 72 14 315 l0 304 345 0
345 0 0 -110 0 -110 250 0 250 0 0 250 0 250 -250 0 -250 0 0 -110 0 -110
-345 0 -345 0 0 309 c0 248 -3 311 -14 320 -10 8 -334 10 -1212 9 l-1199 -3
-3 -317 -2 -318 -345 0 -345 0 0 110 0 110 -250 0 -250 0 0 -110 0 -110 -830
0 -830 0 0 110 0 110 -250 0 -250 0 0 -115 0 -115 -305 0 -305 0 -160 320
c-88 176 -166 320 -173 320 -6 0 -152 -279 -322 -621 -171 -341 -313 -622
-316 -625 -4 -2 -157 277 -340 621 -224 418 -339 624 -350 625 -11 0 -65 -107
-184 -362 -351 -758 -408 -878 -414 -878 -3 0 -74 135 -156 300 l-150 300
-315 2 -315 3 -3 113 -3 112 -244 0 -245 0 0 -110 0 -110 -1930 0 -1930 0 0
110 0 110 -250 0 -250 0 0 -110 0 -110 -295 0 -295 0 0 860 0 860 -30 0 -30 0
0 -407 0 -408 -413 413 c-226 226 -415 412 -418 412 -4 0 -12 -7 -20 -16z
m15879 -1136 c9 -9 12 -157 12 -604 0 -538 -1 -593 -17 -605 -23 -20 -2252
-26 -2265 -7 -9 15 -11 1212 -1 1221 3 4 513 7 1133 7 862 0 1129 -3 1138 -12z
m-13918 -608 l0 -210 -210 0 -210 0 0 210 0 210 210 0 210 0 0 -210z m8660 0
l0 -210 -207 2 -208 3 -3 208 -2 207 210 0 210 0 0 -210z m6460 0 l0 -210
-205 0 -205 0 0 210 0 210 205 0 205 0 0 -210z"/>
<path d="M8313 3940 c-46 -15 -73 -54 -73 -107 0 -59 28 -83 127 -112 90 -26
103 -35 103 -67 0 -55 -109 -76 -155 -29 -14 13 -25 31 -25 40 0 12 -6 14 -27
9 -37 -9 -36 -9 -29 -39 22 -88 178 -124 255 -59 42 35 56 83 37 127 -16 40
-43 56 -136 81 -62 17 -100 39 -100 58 0 24 42 48 85 48 44 0 85 -24 85 -50 0
-9 47 -4 60 7 10 9 -34 72 -58 83 -36 16 -111 21 -149 10z"/>
<path d="M8750 3943 c-8 -3 -27 -17 -42 -31 l-28 -26 0 27 c0 23 -4 27 -30 27
l-30 0 0 -270 0 -270 30 0 30 0 0 95 0 96 28 -21 c70 -52 167 -23 210 62 48
93 23 239 -49 291 -27 19 -93 31 -119 20z m80 -66 c39 -30 50 -61 50 -135 0
-71 -1 -75 -34 -108 -64 -64 -145 -37 -165 56 -15 71 -1 137 38 172 34 30 84
37 111 15z"/>
<path d="M9135 3939 c-11 -6 -28 -21 -37 -33 l-18 -21 0 28 c0 22 -4 27 -25
27 l-25 0 0 -195 0 -195 30 0 30 0 0 123 c0 180 20 227 91 213 22 -4 31 -1 40
15 6 12 7 25 2 30 -15 15 -67 20 -88 8z"/>
<path d="M9564 3931 c-23 -11 -44 -25 -47 -32 -3 -8 -6 -2 -6 14 -1 23 -5 27
-31 27 l-30 0 0 -195 0 -195 30 0 30 0 0 125 c0 175 19 215 104 215 23 0 43
-7 56 -20 18 -18 20 -33 20 -170 l0 -150 36 0 37 0 -5 160 c-6 178 -13 201
-73 226 -45 19 -71 17 -121 -5z"/>
<path d="M9915 3943 c-11 -3 -33 -14 -49 -26 -91 -65 -87 -272 7 -341 36 -27
121 -28 160 -2 l27 18 0 -44 c0 -65 -35 -98 -102 -98 -38 0 -54 5 -73 24 -28
28 -75 40 -75 19 0 -30 30 -71 62 -84 49 -21 137 -17 178 7 69 40 74 63 79
307 l3 217 -31 0 c-24 0 -31 -4 -31 -20 0 -21 0 -21 -28 0 -30 22 -91 33 -127
23z m104 -69 c30 -21 51 -73 51 -124 0 -121 -103 -185 -176 -109 -27 28 -29
35 -29 110 0 78 1 81 33 110 37 33 84 38 121 13z"/>
<path d="M9270 3745 l0 -195 30 0 30 0 0 195 0 195 -30 0 -30 0 0 -195z"/>
<path d="M14962 3833 c-19 -9 -36 -22 -39 -30 -9 -22 -23 -15 -23 12 0 20 -5
25 -25 25 l-25 0 0 -195 0 -195 30 0 30 0 0 125 c0 171 20 215 98 215 55 0 62
-20 62 -188 l0 -152 35 0 35 0 0 145 c0 145 0 146 26 170 34 31 86 33 114 5
18 -18 20 -33 20 -170 l0 -150 30 0 30 0 0 159 c0 147 -2 160 -22 191 -40 59
-121 63 -182 9 -34 -29 -35 -29 -41 -8 -7 22 -60 49 -97 49 -13 0 -38 -8 -56
-17z"/>
<path d="M15539 3838 c-39 -10 -83 -50 -93 -84 -5 -18 -2 -23 21 -27 16 -3 30
-1 32 6 12 34 51 57 98 57 64 0 95 -21 91 -63 -3 -34 -1 -34 -159 -61 -71 -12
-111 -74 -93 -144 13 -52 53 -77 123 -77 46 1 67 6 99 28 l41 26 3 -22 c2 -17
11 -23 37 -25 29 -3 33 -1 26 15 -4 10 -11 86 -14 169 -5 130 -9 155 -25 173
-34 37 -112 49 -187 29z m151 -235 c-1 -64 -46 -103 -119 -103 -42 0 -81 26
-81 54 0 41 48 62 193 85 4 0 7 -16 7 -36z"/>
<path d="M15933 3840 c-46 -15 -73 -54 -73 -107 0 -59 28 -83 127 -112 90 -26
103 -35 103 -67 0 -55 -109 -76 -155 -29 -14 13 -25 31 -25 40 0 12 -6 14 -27
9 -37 -9 -36 -9 -29 -39 22 -88 178 -124 255 -59 42 35 56 83 37 127 -16 40
-43 56 -136 81 -62 17 -100 39 -100 58 0 24 42 48 85 48 44 0 85 -24 85 -50 0
-9 47 -4 60 7 10 9 -34 72 -58 83 -36 16 -111 21 -149 10z"/>
<path d="M16293 3840 c-46 -15 -73 -54 -73 -107 0 -59 28 -83 127 -112 90 -26
103 -35 103 -67 0 -55 -109 -76 -155 -29 -14 13 -25 31 -25 40 0 12 -6 14 -27
9 -37 -9 -36 -9 -29 -39 22 -88 178 -124 255 -59 42 35 56 83 37 127 -16 40
-43 56 -136 81 -62 17 -100 39 -100 58 0 24 42 48 85 48 44 0 85 -24 85 -50 0
-9 47 -4 60 7 10 9 -34 72 -58 83 -36 16 -111 21 -149 10z"/>
<path d="M388 3023 l-3 -28 -162 -3 -163 -2 0 -30 0 -30 165 0 165 0 0 -35 c0
-31 3 -35 25 -35 22 0 25 4 25 35 0 33 2 35 33 35 42 0 57 -15 57 -56 0 -24 5
-34 20 -39 11 -3 24 -3 30 0 15 9 12 82 -5 114 -17 34 -33 41 -91 41 -42 0
-44 1 -44 30 0 25 -4 30 -24 30 -19 0 -25 -6 -28 -27z"/>
<path d="M60 2790 l0 -30 190 0 190 0 0 30 0 30 -190 0 -190 0 0 -30z"/>
<path d="M510 2790 c0 -28 3 -30 35 -30 32 0 35 2 35 30 0 28 -3 30 -35 30
-32 0 -35 -2 -35 -30z"/>
<path d="M60 2642 c0 -36 4 -41 70 -86 39 -27 70 -49 70 -51 0 -1 -31 -23 -70
-49 -65 -43 -70 -49 -70 -82 l0 -36 28 18 c15 9 58 39 96 65 l69 49 31 -22
c17 -12 54 -39 83 -60 29 -21 57 -38 63 -38 5 0 10 13 10 28 0 31 -20 53 -87
97 -24 15 -43 30 -43 34 0 3 30 25 65 49 59 38 65 45 65 77 0 19 -3 35 -6 35
-3 0 -43 -27 -90 -60 -46 -33 -87 -60 -90 -60 -3 0 -48 29 -100 65 l-94 66 0
-39z"/>
<path d="M135 2318 c-98 -56 -114 -213 -29 -287 39 -34 59 -39 68 -15 11 28 6
41 -19 52 -54 25 -70 117 -28 165 17 19 72 47 93 47 6 0 10 -52 10 -146 l0
-147 52 7 c105 14 158 71 158 169 0 69 -17 106 -67 144 -32 24 -47 28 -117 31
-69 2 -87 -1 -121 -20z m195 -53 c41 -21 60 -53 60 -103 0 -35 -6 -49 -29 -73
-17 -17 -40 -29 -55 -29 l-26 0 0 110 c0 70 4 110 10 110 6 0 24 -7 40 -15z"/>
<path d="M144 1911 c-85 -39 -119 -142 -70 -213 24 -36 24 -38 6 -38 -15 0
-20 -7 -20 -25 l0 -25 260 0 260 0 0 30 0 30 -91 0 -90 0 20 26 c28 36 29 117
1 162 -41 68 -184 95 -276 53z m173 -52 c69 -26 95 -94 57 -148 -34 -48 -138
-66 -209 -37 -41 17 -71 71 -62 108 8 31 52 76 80 81 44 8 106 7 134 -4z"/>
<path d="M9390 980 l0 -200 25 0 24 0 3 157 3 156 104 -156 c85 -129 108 -157
127 -157 l24 0 0 200 c0 193 -1 200 -20 200 -19 0 -20 -7 -20 -156 0 -137 -2
-155 -15 -144 -8 7 -56 77 -107 156 -82 127 -96 143 -120 144 l-28 0 0 -200z"/>
<path d="M9875 1168 c-3 -7 -29 -97 -59 -200 -46 -164 -51 -188 -36 -188 14 0
27 37 69 183 29 100 54 190 57 200 6 20 -24 25 -31 5z"/>
<path d="M16220 980 c0 -193 1 -200 20 -200 18 0 20 7 20 58 0 45 4 63 19 76
19 17 21 15 68 -58 41 -65 52 -76 76 -76 l28 0 -62 91 -61 91 53 54 c49 50 51
54 28 54 -17 0 -42 -17 -79 -55 -30 -30 -58 -55 -62 -55 -4 0 -8 50 -8 110 0
103 -1 110 -20 110 -19 0 -20 -7 -20 -200z"/>
<path d="M8727 1144 c-10 -13 -36 -36 -58 -51 -22 -14 -39 -34 -39 -44 0 -25
8 -24 52 6 20 14 39 25 42 25 4 0 6 -67 6 -150 0 -143 1 -150 20 -150 19 0 20
7 20 195 0 206 -4 223 -43 169z"/>
<path d="M8991 1157 c-49 -25 -66 -62 -69 -156 -6 -141 21 -203 95 -217 53
-10 102 14 127 61 30 58 30 202 -1 261 -31 58 -96 80 -152 51z m100 -56 c22
-17 24 -28 27 -113 3 -105 -8 -137 -51 -152 -42 -15 -80 3 -94 44 -25 73 -10
209 25 229 27 16 68 13 93 -8z"/>
<path d="M15557 1144 c-10 -13 -36 -36 -58 -51 -22 -14 -39 -34 -39 -44 0 -25
8 -24 52 6 20 14 39 25 42 25 4 0 6 -67 6 -150 0 -143 1 -150 20 -150 19 0 20
7 20 195 0 206 -4 223 -43 169z"/>
<path d="M15821 1157 c-49 -25 -66 -62 -69 -156 -6 -141 21 -203 95 -217 53
-10 102 14 127 61 30 58 30 202 -1 261 -31 58 -96 80 -152 51z m100 -56 c22
-17 24 -28 27 -113 3 -105 -8 -137 -51 -152 -42 -15 -80 3 -94 44 -25 73 -10
209 25 229 27 16 68 13 93 -8z"/>
<path d="M8063 1065 c-17 -7 -39 -28 -48 -46 -24 -46 -23 -138 1 -180 42 -72
162 -76 204 -6 25 41 25 44 -5 49 -16 4 -25 1 -25 -8 0 -19 -41 -44 -73 -44
-46 0 -77 40 -77 100 0 41 5 56 25 75 32 33 86 34 112 2 17 -22 53 -26 53 -6
0 24 -24 52 -55 65 -42 17 -71 17 -112 -1z"/>
<path d="M10011 1054 c-30 -25 -31 -25 -31 -5 0 14 -6 21 -20 21 -19 0 -20 -7
-20 -145 0 -135 1 -145 19 -145 17 0 19 10 23 104 4 117 18 146 69 146 51 0
59 -20 59 -141 0 -101 1 -109 19 -109 17 0 19 10 23 104 3 116 17 146 69 146
47 0 59 -30 59 -147 0 -96 1 -103 20 -103 19 0 20 7 20 124 0 141 -9 162 -71
172 -29 5 -41 1 -68 -22 -29 -24 -35 -26 -45 -13 -32 44 -82 49 -125 13z"/>
<path d="M14691 1054 c-30 -25 -31 -25 -31 -5 0 14 -6 21 -20 21 -19 0 -20 -7
-20 -145 0 -135 1 -145 19 -145 17 0 19 10 23 104 4 117 18 146 69 146 51 0
59 -20 59 -141 0 -101 1 -109 19 -109 17 0 19 10 23 104 3 116 17 146 69 146
47 0 59 -30 59 -147 0 -96 1 -103 20 -103 19 0 20 7 20 124 0 141 -9 162 -71
172 -29 5 -41 1 -68 -22 -29 -24 -35 -26 -45 -13 -32 44 -82 49 -125 13z"/>
<path d="M16539 1057 c-67 -45 -77 -175 -19 -240 24 -27 35 -32 73 -32 30 0
52 6 66 19 21 19 21 19 21 -17 0 -26 -6 -40 -22 -51 -28 -20 -102 -21 -117 -2
-6 8 -21 16 -31 19 -27 7 -26 -15 4 -49 20 -24 31 -28 78 -28 30 -1 66 5 79
12 49 26 54 46 57 220 4 159 3 162 -17 162 -12 0 -21 -6 -21 -15 0 -12 -6 -11
-32 5 -43 26 -77 25 -119 -3z m122 -53 c19 -20 24 -37 24 -74 0 -37 -5 -54
-24 -74 -31 -33 -76 -34 -108 -4 -32 30 -33 121 -1 155 30 32 77 31 109 -3z"/>
<path d="M8280 1035 l0 -25 130 0 130 0 0 25 0 25 -130 0 -130 0 0 -25z"/>
<path d="M15110 1035 l0 -25 130 0 130 0 0 25 0 25 -130 0 -130 0 0 -25z"/>
<path d="M8280 915 l0 -25 130 0 130 0 0 25 0 25 -130 0 -130 0 0 -25z"/>
<path d="M15110 915 l0 -25 130 0 130 0 0 25 0 25 -130 0 -130 0 0 -25z"/>
<path d="M9592 568 c-7 -7 -12 -42 -12 -85 l0 -73 -840 0 -840 0 0 -30 0 -30
840 0 840 0 0 -99 c0 -83 3 -100 17 -105 9 -4 163 42 355 106 273 91 338 116
338 130 0 10 -2 18 -4 18 -2 0 -156 41 -341 90 -185 50 -338 90 -339 90 -1 0
-7 -5 -14 -12z"/>
<path d="M16052 568 c-7 -7 -12 -42 -12 -85 l0 -73 -840 0 -840 0 0 -30 0 -30
840 0 840 0 0 -99 c0 -83 3 -100 17 -105 9 -4 163 42 355 106 270 90 338 116
338 130 0 11 -12 21 -37 27 -21 5 -174 46 -340 90 -166 45 -304 81 -305 81 -2
0 -9 -5 -16 -12z"/>
</g>
</svg>
