<?xml version="1.0" encoding="utf-8"?>
<svg xmlns="http://www.w3.org/2000/svg" xmlns:xlink="http://www.w3.org/1999/xlink" width="600" height="400" viewBox="0 0 2400 1600">
<defs>
  <clipPath id="clip530">
    <rect x="0" y="0" width="2400" height="1600"/>
  </clipPath>
</defs>
<path clip-path="url(#clip530)" d="
M0 1600 L2400 1600 L2400 0 L0 0  Z
  " fill="#ffffff" fill-rule="evenodd" fill-opacity="1"/>
<defs>
  <clipPath id="clip531">
    <rect x="480" y="0" width="1681" height="1600"/>
  </clipPath>
</defs>
<path clip-path="url(#clip530)" d="
M156.598 1423.18 L2352.76 1423.18 L2352.76 47.2441 L156.598 47.2441  Z
  " fill="#ffffff" fill-rule="evenodd" fill-opacity="1"/>
<defs>
  <clipPath id="clip532">
    <rect x="156" y="47" width="2197" height="1377"/>
  </clipPath>
</defs>
<polyline clip-path="url(#clip532)" style="stroke:#000000; stroke-linecap:round; stroke-linejoin:round; stroke-width:2; stroke-opacity:0.1; fill:none" points="
  218.754,1423.18 218.754,47.2441 
  "/>
<polyline clip-path="url(#clip532)" style="stroke:#000000; stroke-linecap:round; stroke-linejoin:round; stroke-width:2; stroke-opacity:0.1; fill:none" points="
  633.123,1423.18 633.123,47.2441 
  "/>
<polyline clip-path="url(#clip532)" style="stroke:#000000; stroke-linecap:round; stroke-linejoin:round; stroke-width:2; stroke-opacity:0.1; fill:none" points="
  1047.49,1423.18 1047.49,47.2441 
  "/>
<polyline clip-path="url(#clip532)" style="stroke:#000000; stroke-linecap:round; stroke-linejoin:round; stroke-width:2; stroke-opacity:0.1; fill:none" points="
  1461.86,1423.18 1461.86,47.2441 
  "/>
<polyline clip-path="url(#clip532)" style="stroke:#000000; stroke-linecap:round; stroke-linejoin:round; stroke-width:2; stroke-opacity:0.1; fill:none" points="
  1876.23,1423.18 1876.23,47.2441 
  "/>
<polyline clip-path="url(#clip532)" style="stroke:#000000; stroke-linecap:round; stroke-linejoin:round; stroke-width:2; stroke-opacity:0.1; fill:none" points="
  2290.6,1423.18 2290.6,47.2441 
  "/>
<polyline clip-path="url(#clip530)" style="stroke:#000000; stroke-linecap:round; stroke-linejoin:round; stroke-width:4; stroke-opacity:1; fill:none" points="
  156.598,1423.18 2352.76,1423.18 
  "/>
<polyline clip-path="url(#clip530)" style="stroke:#000000; stroke-linecap:round; stroke-linejoin:round; stroke-width:4; stroke-opacity:1; fill:none" points="
  218.754,1423.18 218.754,1404.28 
  "/>
<polyline clip-path="url(#clip530)" style="stroke:#000000; stroke-linecap:round; stroke-linejoin:round; stroke-width:4; stroke-opacity:1; fill:none" points="
  633.123,1423.18 633.123,1404.28 
  "/>
<polyline clip-path="url(#clip530)" style="stroke:#000000; stroke-linecap:round; stroke-linejoin:round; stroke-width:4; stroke-opacity:1; fill:none" points="
  1047.49,1423.18 1047.49,1404.28 
  "/>
<polyline clip-path="url(#clip530)" style="stroke:#000000; stroke-linecap:round; stroke-linejoin:round; stroke-width:4; stroke-opacity:1; fill:none" points="
  1461.86,1423.18 1461.86,1404.28 
  "/>
<polyline clip-path="url(#clip530)" style="stroke:#000000; stroke-linecap:round; stroke-linejoin:round; stroke-width:4; stroke-opacity:1; fill:none" points="
  1876.23,1423.18 1876.23,1404.28 
  "/>
<polyline clip-path="url(#clip530)" style="stroke:#000000; stroke-linecap:round; stroke-linejoin:round; stroke-width:4; stroke-opacity:1; fill:none" points="
  2290.6,1423.18 2290.6,1404.28 
  "/>
<path clip-path="url(#clip530)" d="M218.754 1454.1 Q215.143 1454.1 213.314 1457.66 Q211.508 1461.2 211.508 1468.33 Q211.508 1475.44 213.314 1479.01 Q215.143 1482.55 218.754 1482.55 Q222.388 1482.55 224.193 1479.01 Q226.022 1475.44 226.022 1468.33 Q226.022 1461.2 224.193 1457.66 Q222.388 1454.1 218.754 1454.1 M218.754 1450.39 Q224.564 1450.39 227.619 1455 Q230.698 1459.58 230.698 1468.33 Q230.698 1477.06 227.619 1481.67 Q224.564 1486.25 218.754 1486.25 Q212.943 1486.25 209.865 1481.67 Q206.809 1477.06 206.809 1468.33 Q206.809 1459.58 209.865 1455 Q212.943 1450.39 218.754 1450.39 Z" fill="#000000" fill-rule="evenodd" fill-opacity="1" /><path clip-path="url(#clip530)" d="M623.505 1481.64 L631.144 1481.64 L631.144 1455.28 L622.834 1456.95 L622.834 1452.69 L631.098 1451.02 L635.773 1451.02 L635.773 1481.64 L643.412 1481.64 L643.412 1485.58 L623.505 1485.58 L623.505 1481.64 Z" fill="#000000" fill-rule="evenodd" fill-opacity="1" /><path clip-path="url(#clip530)" d="M1042.15 1481.64 L1058.46 1481.64 L1058.46 1485.58 L1036.52 1485.58 L1036.52 1481.64 Q1039.18 1478.89 1043.77 1474.26 Q1048.37 1469.61 1049.55 1468.27 Q1051.8 1465.74 1052.68 1464.01 Q1053.58 1462.25 1053.58 1460.56 Q1053.58 1457.8 1051.64 1456.07 Q1049.71 1454.33 1046.61 1454.33 Q1044.41 1454.33 1041.96 1455.09 Q1039.53 1455.86 1036.75 1457.41 L1036.75 1452.69 Q1039.58 1451.55 1042.03 1450.97 Q1044.48 1450.39 1046.52 1450.39 Q1051.89 1450.39 1055.08 1453.08 Q1058.28 1455.77 1058.28 1460.26 Q1058.28 1462.39 1057.47 1464.31 Q1056.68 1466.2 1054.58 1468.8 Q1054 1469.47 1050.9 1472.69 Q1047.79 1475.88 1042.15 1481.64 Z" fill="#000000" fill-rule="evenodd" fill-opacity="1" /><path clip-path="url(#clip530)" d="M1466.11 1466.95 Q1469.47 1467.66 1471.34 1469.93 Q1473.24 1472.2 1473.24 1475.53 Q1473.24 1480.65 1469.72 1483.45 Q1466.2 1486.25 1459.72 1486.25 Q1457.54 1486.25 1455.23 1485.81 Q1452.94 1485.39 1450.48 1484.54 L1450.48 1480.02 Q1452.43 1481.16 1454.74 1481.74 Q1457.06 1482.32 1459.58 1482.32 Q1463.98 1482.32 1466.27 1480.58 Q1468.59 1478.84 1468.59 1475.53 Q1468.59 1472.48 1466.43 1470.77 Q1464.3 1469.03 1460.48 1469.03 L1456.46 1469.03 L1456.46 1465.19 L1460.67 1465.19 Q1464.12 1465.19 1465.95 1463.82 Q1467.78 1462.43 1467.78 1459.84 Q1467.78 1457.18 1465.88 1455.77 Q1464 1454.33 1460.48 1454.33 Q1458.56 1454.33 1456.36 1454.75 Q1454.17 1455.16 1451.53 1456.04 L1451.53 1451.88 Q1454.19 1451.14 1456.5 1450.77 Q1458.84 1450.39 1460.9 1450.39 Q1466.23 1450.39 1469.33 1452.83 Q1472.43 1455.23 1472.43 1459.35 Q1472.43 1462.22 1470.79 1464.21 Q1469.14 1466.18 1466.11 1466.95 Z" fill="#000000" fill-rule="evenodd" fill-opacity="1" /><path clip-path="url(#clip530)" d="M1879.24 1455.09 L1867.43 1473.54 L1879.24 1473.54 L1879.24 1455.09 M1878.01 1451.02 L1883.89 1451.02 L1883.89 1473.54 L1888.82 1473.54 L1888.82 1477.43 L1883.89 1477.43 L1883.89 1485.58 L1879.24 1485.58 L1879.24 1477.43 L1863.64 1477.43 L1863.64 1472.92 L1878.01 1451.02 Z" fill="#000000" fill-rule="evenodd" fill-opacity="1" /><path clip-path="url(#clip530)" d="M2280.88 1451.02 L2299.23 1451.02 L2299.23 1454.96 L2285.16 1454.96 L2285.16 1463.43 Q2286.18 1463.08 2287.2 1462.92 Q2288.22 1462.73 2289.23 1462.73 Q2295.02 1462.73 2298.4 1465.9 Q2301.78 1469.08 2301.78 1474.49 Q2301.78 1480.07 2298.31 1483.17 Q2294.84 1486.25 2288.52 1486.25 Q2286.34 1486.25 2284.07 1485.88 Q2281.83 1485.51 2279.42 1484.77 L2279.42 1480.07 Q2281.5 1481.2 2283.73 1481.76 Q2285.95 1482.32 2288.42 1482.32 Q2292.43 1482.32 2294.77 1480.21 Q2297.11 1478.1 2297.11 1474.49 Q2297.11 1470.88 2294.77 1468.77 Q2292.43 1466.67 2288.42 1466.67 Q2286.55 1466.67 2284.67 1467.08 Q2282.82 1467.5 2280.88 1468.38 L2280.88 1451.02 Z" fill="#000000" fill-rule="evenodd" fill-opacity="1" /><path clip-path="url(#clip530)" d="M1202.99 1522.27 L1202.99 1532.4 L1215.05 1532.4 L1215.05 1536.95 L1202.99 1536.95 L1202.99 1556.3 Q1202.99 1560.66 1204.17 1561.9 Q1205.37 1563.14 1209.03 1563.14 L1215.05 1563.14 L1215.05 1568.04 L1209.03 1568.04 Q1202.26 1568.04 1199.68 1565.53 Q1197.1 1562.98 1197.1 1556.3 L1197.1 1536.95 L1192.8 1536.95 L1192.8 1532.4 L1197.1 1532.4 L1197.1 1522.27 L1202.99 1522.27 Z" fill="#000000" fill-rule="evenodd" fill-opacity="1" /><path clip-path="url(#clip530)" d="M1242.93 1518.52 L1256.43 1518.52 L1256.43 1523.07 L1248.79 1523.07 L1248.79 1572.09 L1256.43 1572.09 L1256.43 1576.64 L1242.93 1576.64 L1242.93 1518.52 Z" fill="#000000" fill-rule="evenodd" fill-opacity="1" /><path clip-path="url(#clip530)" d="M1291.63 1533.45 L1291.63 1538.98 Q1289.15 1537.71 1286.47 1537.07 Q1283.8 1536.44 1280.94 1536.44 Q1276.58 1536.44 1274.38 1537.77 Q1272.21 1539.11 1272.21 1541.79 Q1272.21 1543.82 1273.77 1545 Q1275.33 1546.15 1280.04 1547.2 L1282.05 1547.64 Q1288.29 1548.98 1290.9 1551.43 Q1293.54 1553.85 1293.54 1558.21 Q1293.54 1563.17 1289.59 1566.07 Q1285.68 1568.97 1278.8 1568.97 Q1275.94 1568.97 1272.82 1568.39 Q1269.73 1567.85 1266.29 1566.74 L1266.29 1560.69 Q1269.54 1562.38 1272.69 1563.24 Q1275.84 1564.07 1278.93 1564.07 Q1283.07 1564.07 1285.3 1562.66 Q1287.52 1561.23 1287.52 1558.65 Q1287.52 1556.27 1285.9 1554.99 Q1284.31 1553.72 1278.87 1552.54 L1276.83 1552.07 Q1271.39 1550.92 1268.97 1548.56 Q1266.55 1546.18 1266.55 1542.04 Q1266.55 1537.01 1270.11 1534.27 Q1273.68 1531.54 1280.24 1531.54 Q1283.48 1531.54 1286.35 1532.01 Q1289.21 1532.49 1291.63 1533.45 Z" fill="#000000" fill-rule="evenodd" fill-opacity="1" /><path clip-path="url(#clip530)" d="M1316.55 1518.52 L1316.55 1576.64 L1303.06 1576.64 L1303.06 1572.09 L1310.66 1572.09 L1310.66 1523.07 L1303.06 1523.07 L1303.06 1518.52 L1316.55 1518.52 Z" fill="#000000" fill-rule="evenodd" fill-opacity="1" /><polyline clip-path="url(#clip532)" style="stroke:#000000; stroke-linecap:round; stroke-linejoin:round; stroke-width:2; stroke-opacity:0.1; fill:none" points="
  156.598,1384.24 2352.76,1384.24 
  "/>
<polyline clip-path="url(#clip532)" style="stroke:#000000; stroke-linecap:round; stroke-linejoin:round; stroke-width:2; stroke-opacity:0.1; fill:none" points="
  156.598,1176.41 2352.76,1176.41 
  "/>
<polyline clip-path="url(#clip532)" style="stroke:#000000; stroke-linecap:round; stroke-linejoin:round; stroke-width:2; stroke-opacity:0.1; fill:none" points="
  156.598,968.582 2352.76,968.582 
  "/>
<polyline clip-path="url(#clip532)" style="stroke:#000000; stroke-linecap:round; stroke-linejoin:round; stroke-width:2; stroke-opacity:0.1; fill:none" points="
  156.598,760.754 2352.76,760.754 
  "/>
<polyline clip-path="url(#clip532)" style="stroke:#000000; stroke-linecap:round; stroke-linejoin:round; stroke-width:2; stroke-opacity:0.1; fill:none" points="
  156.598,552.926 2352.76,552.926 
  "/>
<polyline clip-path="url(#clip532)" style="stroke:#000000; stroke-linecap:round; stroke-linejoin:round; stroke-width:2; stroke-opacity:0.1; fill:none" points="
  156.598,345.098 2352.76,345.098 
  "/>
<polyline clip-path="url(#clip532)" style="stroke:#000000; stroke-linecap:round; stroke-linejoin:round; stroke-width:2; stroke-opacity:0.1; fill:none" points="
  156.598,137.27 2352.76,137.27 
  "/>
<polyline clip-path="url(#clip530)" style="stroke:#000000; stroke-linecap:round; stroke-linejoin:round; stroke-width:4; stroke-opacity:1; fill:none" points="
  156.598,1423.18 156.598,47.2441 
  "/>
<polyline clip-path="url(#clip530)" style="stroke:#000000; stroke-linecap:round; stroke-linejoin:round; stroke-width:4; stroke-opacity:1; fill:none" points="
  156.598,1384.24 175.496,1384.24 
  "/>
<polyline clip-path="url(#clip530)" style="stroke:#000000; stroke-linecap:round; stroke-linejoin:round; stroke-width:4; stroke-opacity:1; fill:none" points="
  156.598,1176.41 175.496,1176.41 
  "/>
<polyline clip-path="url(#clip530)" style="stroke:#000000; stroke-linecap:round; stroke-linejoin:round; stroke-width:4; stroke-opacity:1; fill:none" points="
  156.598,968.582 175.496,968.582 
  "/>
<polyline clip-path="url(#clip530)" style="stroke:#000000; stroke-linecap:round; stroke-linejoin:round; stroke-width:4; stroke-opacity:1; fill:none" points="
  156.598,760.754 175.496,760.754 
  "/>
<polyline clip-path="url(#clip530)" style="stroke:#000000; stroke-linecap:round; stroke-linejoin:round; stroke-width:4; stroke-opacity:1; fill:none" points="
  156.598,552.926 175.496,552.926 
  "/>
<polyline clip-path="url(#clip530)" style="stroke:#000000; stroke-linecap:round; stroke-linejoin:round; stroke-width:4; stroke-opacity:1; fill:none" points="
  156.598,345.098 175.496,345.098 
  "/>
<polyline clip-path="url(#clip530)" style="stroke:#000000; stroke-linecap:round; stroke-linejoin:round; stroke-width:4; stroke-opacity:1; fill:none" points="
  156.598,137.27 175.496,137.27 
  "/>
<path clip-path="url(#clip530)" d="M63.4226 1370.04 Q59.8115 1370.04 57.9828 1373.6 Q56.1773 1377.14 56.1773 1384.27 Q56.1773 1391.38 57.9828 1394.94 Q59.8115 1398.49 63.4226 1398.49 Q67.0569 1398.49 68.8624 1394.94 Q70.6911 1391.38 70.6911 1384.27 Q70.6911 1377.14 68.8624 1373.6 Q67.0569 1370.04 63.4226 1370.04 M63.4226 1366.33 Q69.2328 1366.33 72.2883 1370.94 Q75.367 1375.52 75.367 1384.27 Q75.367 1393 72.2883 1397.61 Q69.2328 1402.19 63.4226 1402.19 Q57.6125 1402.19 54.5338 1397.61 Q51.4782 1393 51.4782 1384.27 Q51.4782 1375.52 54.5338 1370.94 Q57.6125 1366.33 63.4226 1366.33 Z" fill="#000000" fill-rule="evenodd" fill-opacity="1" /><path clip-path="url(#clip530)" d="M83.5845 1395.64 L88.4688 1395.64 L88.4688 1401.52 L83.5845 1401.52 L83.5845 1395.64 Z" fill="#000000" fill-rule="evenodd" fill-opacity="1" /><path clip-path="url(#clip530)" d="M108.654 1370.04 Q105.043 1370.04 103.214 1373.6 Q101.409 1377.14 101.409 1384.27 Q101.409 1391.38 103.214 1394.94 Q105.043 1398.49 108.654 1398.49 Q112.288 1398.49 114.094 1394.94 Q115.922 1391.38 115.922 1384.27 Q115.922 1377.14 114.094 1373.6 Q112.288 1370.04 108.654 1370.04 M108.654 1366.33 Q114.464 1366.33 117.52 1370.94 Q120.598 1375.52 120.598 1384.27 Q120.598 1393 117.52 1397.61 Q114.464 1402.19 108.654 1402.19 Q102.844 1402.19 99.765 1397.61 Q96.7095 1393 96.7095 1384.27 Q96.7095 1375.52 99.765 1370.94 Q102.844 1366.33 108.654 1366.33 Z" fill="#000000" fill-rule="evenodd" fill-opacity="1" /><path clip-path="url(#clip530)" d="M65.0198 1162.21 Q61.4087 1162.21 59.58 1165.77 Q57.7745 1169.32 57.7745 1176.44 Q57.7745 1183.55 59.58 1187.12 Q61.4087 1190.66 65.0198 1190.66 Q68.6541 1190.66 70.4596 1187.12 Q72.2883 1183.55 72.2883 1176.44 Q72.2883 1169.32 70.4596 1165.77 Q68.6541 1162.21 65.0198 1162.21 M65.0198 1158.51 Q70.83 1158.51 73.8855 1163.11 Q76.9642 1167.69 76.9642 1176.44 Q76.9642 1185.17 73.8855 1189.78 Q70.83 1194.36 65.0198 1194.36 Q59.2097 1194.36 56.131 1189.78 Q53.0754 1185.17 53.0754 1176.44 Q53.0754 1167.69 56.131 1163.11 Q59.2097 1158.51 65.0198 1158.51 Z" fill="#000000" fill-rule="evenodd" fill-opacity="1" /><path clip-path="url(#clip530)" d="M85.1818 1187.81 L90.066 1187.81 L90.066 1193.69 L85.1818 1193.69 L85.1818 1187.81 Z" fill="#000000" fill-rule="evenodd" fill-opacity="1" /><path clip-path="url(#clip530)" d="M104.279 1189.75 L120.598 1189.75 L120.598 1193.69 L98.6539 1193.69 L98.6539 1189.75 Q101.316 1187 105.899 1182.37 Q110.506 1177.72 111.686 1176.38 Q113.932 1173.85 114.811 1172.12 Q115.714 1170.36 115.714 1168.67 Q115.714 1165.91 113.77 1164.18 Q111.848 1162.44 108.746 1162.44 Q106.547 1162.44 104.094 1163.2 Q101.663 1163.97 98.8854 1165.52 L98.8854 1160.8 Q101.709 1159.66 104.163 1159.08 Q106.617 1158.51 108.654 1158.51 Q114.024 1158.51 117.219 1161.19 Q120.413 1163.88 120.413 1168.37 Q120.413 1170.5 119.603 1172.42 Q118.816 1174.32 116.709 1176.91 Q116.131 1177.58 113.029 1180.8 Q109.927 1183.99 104.279 1189.75 Z" fill="#000000" fill-rule="evenodd" fill-opacity="1" /><path clip-path="url(#clip530)" d="M62.9365 954.381 Q59.3254 954.381 57.4967 957.946 Q55.6912 961.487 55.6912 968.617 Q55.6912 975.723 57.4967 979.288 Q59.3254 982.83 62.9365 982.83 Q66.5707 982.83 68.3763 979.288 Q70.205 975.723 70.205 968.617 Q70.205 961.487 68.3763 957.946 Q66.5707 954.381 62.9365 954.381 M62.9365 950.677 Q68.7467 950.677 71.8022 955.283 Q74.8809 959.867 74.8809 968.617 Q74.8809 977.344 71.8022 981.95 Q68.7467 986.533 62.9365 986.533 Q57.1264 986.533 54.0477 981.95 Q50.9921 977.344 50.9921 968.617 Q50.9921 959.867 54.0477 955.283 Q57.1264 950.677 62.9365 950.677 Z" fill="#000000" fill-rule="evenodd" fill-opacity="1" /><path clip-path="url(#clip530)" d="M83.0984 979.982 L87.9827 979.982 L87.9827 985.862 L83.0984 985.862 L83.0984 979.982 Z" fill="#000000" fill-rule="evenodd" fill-opacity="1" /><path clip-path="url(#clip530)" d="M111.015 955.376 L99.2095 973.825 L111.015 973.825 L111.015 955.376 M109.788 951.302 L115.668 951.302 L115.668 973.825 L120.598 973.825 L120.598 977.714 L115.668 977.714 L115.668 985.862 L111.015 985.862 L111.015 977.714 L95.4132 977.714 L95.4132 973.2 L109.788 951.302 Z" fill="#000000" fill-rule="evenodd" fill-opacity="1" /><path clip-path="url(#clip530)" d="M63.2606 746.553 Q59.6495 746.553 57.8208 750.117 Q56.0152 753.659 56.0152 760.789 Q56.0152 767.895 57.8208 771.46 Q59.6495 775.002 63.2606 775.002 Q66.8948 775.002 68.7004 771.46 Q70.5291 767.895 70.5291 760.789 Q70.5291 753.659 68.7004 750.117 Q66.8948 746.553 63.2606 746.553 M63.2606 742.849 Q69.0707 742.849 72.1263 747.455 Q75.205 752.039 75.205 760.789 Q75.205 769.515 72.1263 774.122 Q69.0707 778.705 63.2606 778.705 Q57.4504 778.705 54.3717 774.122 Q51.3162 769.515 51.3162 760.789 Q51.3162 752.039 54.3717 747.455 Q57.4504 742.849 63.2606 742.849 Z" fill="#000000" fill-rule="evenodd" fill-opacity="1" /><path clip-path="url(#clip530)" d="M83.4225 772.154 L88.3067 772.154 L88.3067 778.034 L83.4225 778.034 L83.4225 772.154 Z" fill="#000000" fill-rule="evenodd" fill-opacity="1" /><path clip-path="url(#clip530)" d="M109.071 758.891 Q105.922 758.891 104.071 761.043 Q102.242 763.196 102.242 766.946 Q102.242 770.673 104.071 772.849 Q105.922 775.002 109.071 775.002 Q112.219 775.002 114.047 772.849 Q115.899 770.673 115.899 766.946 Q115.899 763.196 114.047 761.043 Q112.219 758.891 109.071 758.891 M118.353 744.238 L118.353 748.497 Q116.594 747.664 114.788 747.224 Q113.006 746.784 111.246 746.784 Q106.617 746.784 104.163 749.909 Q101.733 753.034 101.385 759.353 Q102.751 757.34 104.811 756.275 Q106.871 755.187 109.348 755.187 Q114.557 755.187 117.566 758.358 Q120.598 761.506 120.598 766.946 Q120.598 772.27 117.45 775.488 Q114.302 778.705 109.071 778.705 Q103.075 778.705 99.9039 774.122 Q96.7326 769.515 96.7326 760.789 Q96.7326 752.594 100.621 747.733 Q104.51 742.849 111.061 742.849 Q112.82 742.849 114.603 743.196 Q116.408 743.543 118.353 744.238 Z" fill="#000000" fill-rule="evenodd" fill-opacity="1" /><path clip-path="url(#clip530)" d="M63.5152 538.724 Q59.9041 538.724 58.0754 542.289 Q56.2699 545.831 56.2699 552.961 Q56.2699 560.067 58.0754 563.632 Q59.9041 567.173 63.5152 567.173 Q67.1494 567.173 68.955 563.632 Q70.7837 560.067 70.7837 552.961 Q70.7837 545.831 68.955 542.289 Q67.1494 538.724 63.5152 538.724 M63.5152 535.021 Q69.3254 535.021 72.3809 539.627 Q75.4596 544.211 75.4596 552.961 Q75.4596 561.687 72.3809 566.294 Q69.3254 570.877 63.5152 570.877 Q57.7051 570.877 54.6264 566.294 Q51.5708 561.687 51.5708 552.961 Q51.5708 544.211 54.6264 539.627 Q57.7051 535.021 63.5152 535.021 Z" fill="#000000" fill-rule="evenodd" fill-opacity="1" /><path clip-path="url(#clip530)" d="M83.6771 564.326 L88.5614 564.326 L88.5614 570.206 L83.6771 570.206 L83.6771 564.326 Z" fill="#000000" fill-rule="evenodd" fill-opacity="1" /><path clip-path="url(#clip530)" d="M108.746 553.794 Q105.413 553.794 103.492 555.576 Q101.594 557.359 101.594 560.484 Q101.594 563.609 103.492 565.391 Q105.413 567.173 108.746 567.173 Q112.08 567.173 114.001 565.391 Q115.922 563.585 115.922 560.484 Q115.922 557.359 114.001 555.576 Q112.103 553.794 108.746 553.794 M104.071 551.803 Q101.061 551.062 99.3715 549.002 Q97.7048 546.942 97.7048 543.979 Q97.7048 539.836 100.645 537.428 Q103.608 535.021 108.746 535.021 Q113.908 535.021 116.848 537.428 Q119.788 539.836 119.788 543.979 Q119.788 546.942 118.098 549.002 Q116.432 551.062 113.445 551.803 Q116.825 552.59 118.7 554.882 Q120.598 557.173 120.598 560.484 Q120.598 565.507 117.52 568.192 Q114.464 570.877 108.746 570.877 Q103.029 570.877 99.9502 568.192 Q96.8947 565.507 96.8947 560.484 Q96.8947 557.173 98.7928 554.882 Q100.691 552.59 104.071 551.803 M102.358 544.419 Q102.358 547.104 104.024 548.609 Q105.714 550.113 108.746 550.113 Q111.756 550.113 113.445 548.609 Q115.158 547.104 115.158 544.419 Q115.158 541.734 113.445 540.229 Q111.756 538.724 108.746 538.724 Q105.714 538.724 104.024 540.229 Q102.358 541.734 102.358 544.419 Z" fill="#000000" fill-rule="evenodd" fill-opacity="1" /><path clip-path="url(#clip530)" d="M54.2328 358.443 L61.8717 358.443 L61.8717 332.077 L53.5616 333.744 L53.5616 329.484 L61.8254 327.818 L66.5013 327.818 L66.5013 358.443 L74.1402 358.443 L74.1402 362.378 L54.2328 362.378 L54.2328 358.443 Z" fill="#000000" fill-rule="evenodd" fill-opacity="1" /><path clip-path="url(#clip530)" d="M83.5845 356.498 L88.4688 356.498 L88.4688 362.378 L83.5845 362.378 L83.5845 356.498 Z" fill="#000000" fill-rule="evenodd" fill-opacity="1" /><path clip-path="url(#clip530)" d="M108.654 330.896 Q105.043 330.896 103.214 334.461 Q101.409 338.003 101.409 345.132 Q101.409 352.239 103.214 355.804 Q105.043 359.345 108.654 359.345 Q112.288 359.345 114.094 355.804 Q115.922 352.239 115.922 345.132 Q115.922 338.003 114.094 334.461 Q112.288 330.896 108.654 330.896 M108.654 327.193 Q114.464 327.193 117.52 331.799 Q120.598 336.382 120.598 345.132 Q120.598 353.859 117.52 358.466 Q114.464 363.049 108.654 363.049 Q102.844 363.049 99.765 358.466 Q96.7095 353.859 96.7095 345.132 Q96.7095 336.382 99.765 331.799 Q102.844 327.193 108.654 327.193 Z" fill="#000000" fill-rule="evenodd" fill-opacity="1" /><path clip-path="url(#clip530)" d="M55.8301 150.614 L63.4689 150.614 L63.4689 124.249 L55.1588 125.915 L55.1588 121.656 L63.4226 119.99 L68.0985 119.99 L68.0985 150.614 L75.7374 150.614 L75.7374 154.55 L55.8301 154.55 L55.8301 150.614 Z" fill="#000000" fill-rule="evenodd" fill-opacity="1" /><path clip-path="url(#clip530)" d="M85.1818 148.67 L90.066 148.67 L90.066 154.55 L85.1818 154.55 L85.1818 148.67 Z" fill="#000000" fill-rule="evenodd" fill-opacity="1" /><path clip-path="url(#clip530)" d="M104.279 150.614 L120.598 150.614 L120.598 154.55 L98.6539 154.55 L98.6539 150.614 Q101.316 147.86 105.899 143.23 Q110.506 138.577 111.686 137.235 Q113.932 134.712 114.811 132.976 Q115.714 131.216 115.714 129.527 Q115.714 126.772 113.77 125.036 Q111.848 123.3 108.746 123.3 Q106.547 123.3 104.094 124.064 Q101.663 124.828 98.8854 126.378 L98.8854 121.656 Q101.709 120.522 104.163 119.943 Q106.617 119.365 108.654 119.365 Q114.024 119.365 117.219 122.05 Q120.413 124.735 120.413 129.226 Q120.413 131.355 119.603 133.277 Q118.816 135.175 116.709 137.767 Q116.131 138.439 113.029 141.656 Q109.927 144.851 104.279 150.614 Z" fill="#000000" fill-rule="evenodd" fill-opacity="1" /><polyline clip-path="url(#clip532)" style="stroke:#009af9; stroke-linecap:round; stroke-linejoin:round; stroke-width:4; stroke-opacity:1; fill:none" points="
  218.754,864.668 260.191,662.003 301.628,507.055 343.064,389.64 384.501,302.314 425.938,234.49 467.375,184.471 508.812,148.542 550.249,123.35 591.686,106.326 
  633.123,95.4645 674.56,89.2357 715.997,86.4474 757.434,86.1857 798.871,87.7733 840.308,90.6838 881.745,94.5358 923.182,99.0579 964.619,104.05 1006.06,109.376 
  1047.49,114.944 1088.93,120.689 1130.37,126.568 1171.8,132.546 1213.24,138.578 1254.68,144.614 1296.11,150.598 1337.55,156.466 1378.99,162.123 1420.42,167.476 
  1461.86,172.443 1503.3,176.95 1544.74,180.934 1586.17,184.36 1627.61,187.218 1669.05,189.518 1710.48,191.293 1751.92,192.586 1793.36,193.453 1834.79,193.95 
  1876.23,194.134 1917.67,194.059 1959.11,193.783 2000.54,193.356 2041.98,192.822 2083.42,192.218 2124.85,191.576 2166.29,190.925 2207.73,190.291 2249.16,189.691 
  2290.6,189.138 
  "/>
<polyline clip-path="url(#clip532)" style="stroke:#e26f46; stroke-linecap:round; stroke-linejoin:round; stroke-width:4; stroke-opacity:1; fill:none" points="
  218.754,1384.24 260.191,1061.76 301.628,834.92 343.064,681.256 384.501,582.829 425.938,526.66 467.375,502.97 508.812,503.148 550.249,520.579 591.686,550.244 
  633.123,588.288 674.56,631.831 715.997,678.682 757.434,727.201 798.871,776.209 840.308,824.796 881.745,872.31 923.182,918.291 964.619,962.366 1006.06,1004.26 
  1047.49,1043.75 1088.93,1080.68 1130.37,1114.88 1171.8,1146.22 1213.24,1174.59 1254.68,1199.9 1296.11,1222.11 1337.55,1241.21 1378.99,1257.24 1420.42,1270.31 
  1461.86,1280.57 1503.3,1288.23 1544.74,1293.55 1586.17,1296.81 1627.61,1298.32 1669.05,1298.37 1710.48,1297.25 1751.92,1295.23 1793.36,1292.57 1834.79,1289.48 
  1876.23,1286.15 1917.67,1282.73 1959.11,1279.36 2000.54,1276.14 2041.98,1273.16 2083.42,1270.46 2124.85,1268.07 2166.29,1266.01 2207.73,1264.3 2249.16,1262.92 
  2290.6,1261.84 
  "/>
<path clip-path="url(#clip530)" d="
M229.803 1377.32 L902.148 1377.32 L902.148 1221.8 L229.803 1221.8  Z
  " fill="#ffffff" fill-rule="evenodd" fill-opacity="1"/>
<polyline clip-path="url(#clip530)" style="stroke:#000000; stroke-linecap:round; stroke-linejoin:round; stroke-width:4; stroke-opacity:1; fill:none" points="
  229.803,1377.32 902.148,1377.32 902.148,1221.8 229.803,1221.8 229.803,1377.32 
  "/>
<polyline clip-path="url(#clip530)" style="stroke:#009af9; stroke-linecap:round; stroke-linejoin:round; stroke-width:4; stroke-opacity:1; fill:none" points="
  254.205,1273.64 400.616,1273.64 
  "/>
<path clip-path="url(#clip530)" d="M445.365 1269.97 Q446.962 1267.1 449.184 1265.73 Q451.406 1264.36 454.415 1264.36 Q458.466 1264.36 460.665 1267.21 Q462.865 1270.04 462.865 1275.27 L462.865 1290.92 L458.582 1290.92 L458.582 1275.41 Q458.582 1271.68 457.263 1269.87 Q455.943 1268.07 453.235 1268.07 Q449.925 1268.07 448.003 1270.27 Q446.082 1272.47 446.082 1276.26 L446.082 1290.92 L441.8 1290.92 L441.8 1275.41 Q441.8 1271.66 440.48 1269.87 Q439.161 1268.07 436.406 1268.07 Q433.142 1268.07 431.221 1270.29 Q429.3 1272.49 429.3 1276.26 L429.3 1290.92 L425.018 1290.92 L425.018 1264.99 L429.3 1264.99 L429.3 1269.02 Q430.758 1266.63 432.795 1265.5 Q434.832 1264.36 437.633 1264.36 Q440.457 1264.36 442.425 1265.8 Q444.416 1267.23 445.365 1269.97 Z" fill="#000000" fill-rule="evenodd" fill-opacity="1" /><path clip-path="url(#clip530)" d="M483.142 1277.88 Q477.98 1277.88 475.989 1279.06 Q473.999 1280.24 473.999 1283.09 Q473.999 1285.36 475.48 1286.7 Q476.985 1288.02 479.554 1288.02 Q483.096 1288.02 485.226 1285.52 Q487.378 1283 487.378 1278.83 L487.378 1277.88 L483.142 1277.88 M491.638 1276.12 L491.638 1290.92 L487.378 1290.92 L487.378 1286.98 Q485.92 1289.34 483.744 1290.48 Q481.568 1291.59 478.42 1291.59 Q474.439 1291.59 472.077 1289.36 Q469.739 1287.12 469.739 1283.37 Q469.739 1278.99 472.656 1276.77 Q475.596 1274.55 481.406 1274.55 L487.378 1274.55 L487.378 1274.13 Q487.378 1271.19 485.434 1269.6 Q483.513 1267.98 480.017 1267.98 Q477.795 1267.98 475.689 1268.51 Q473.582 1269.04 471.638 1270.11 L471.638 1266.17 Q473.976 1265.27 476.175 1264.83 Q478.374 1264.36 480.457 1264.36 Q486.082 1264.36 488.86 1267.28 Q491.638 1270.2 491.638 1276.12 Z" fill="#000000" fill-rule="evenodd" fill-opacity="1" /><path clip-path="url(#clip530)" d="M516.938 1265.75 L516.938 1269.78 Q515.133 1268.86 513.188 1268.39 Q511.244 1267.93 509.161 1267.93 Q505.989 1267.93 504.392 1268.9 Q502.818 1269.87 502.818 1271.82 Q502.818 1273.3 503.952 1274.16 Q505.087 1274.99 508.512 1275.75 L509.971 1276.08 Q514.508 1277.05 516.406 1278.83 Q518.327 1280.59 518.327 1283.76 Q518.327 1287.37 515.457 1289.48 Q512.61 1291.59 507.61 1291.59 Q505.526 1291.59 503.258 1291.17 Q501.012 1290.78 498.512 1289.97 L498.512 1285.57 Q500.874 1286.79 503.165 1287.42 Q505.457 1288.02 507.702 1288.02 Q510.711 1288.02 512.332 1287 Q513.952 1285.96 513.952 1284.09 Q513.952 1282.35 512.772 1281.42 Q511.614 1280.5 507.656 1279.64 L506.174 1279.3 Q502.216 1278.46 500.457 1276.75 Q498.698 1275.01 498.698 1272 Q498.698 1268.35 501.29 1266.36 Q503.883 1264.36 508.651 1264.36 Q511.012 1264.36 513.096 1264.71 Q515.179 1265.06 516.938 1265.75 Z" fill="#000000" fill-rule="evenodd" fill-opacity="1" /><path clip-path="url(#clip530)" d="M541.637 1265.75 L541.637 1269.78 Q539.832 1268.86 537.887 1268.39 Q535.943 1267.93 533.86 1267.93 Q530.688 1267.93 529.091 1268.9 Q527.517 1269.87 527.517 1271.82 Q527.517 1273.3 528.651 1274.16 Q529.785 1274.99 533.211 1275.75 L534.67 1276.08 Q539.207 1277.05 541.105 1278.83 Q543.026 1280.59 543.026 1283.76 Q543.026 1287.37 540.156 1289.48 Q537.309 1291.59 532.309 1291.59 Q530.225 1291.59 527.957 1291.17 Q525.711 1290.78 523.211 1289.97 L523.211 1285.57 Q525.573 1286.79 527.864 1287.42 Q530.156 1288.02 532.401 1288.02 Q535.41 1288.02 537.031 1287 Q538.651 1285.96 538.651 1284.09 Q538.651 1282.35 537.471 1281.42 Q536.313 1280.5 532.355 1279.64 L530.873 1279.3 Q526.915 1278.46 525.156 1276.75 Q523.397 1275.01 523.397 1272 Q523.397 1268.35 525.989 1266.36 Q528.582 1264.36 533.35 1264.36 Q535.711 1264.36 537.795 1264.71 Q539.878 1265.06 541.637 1265.75 Z" fill="#000000" fill-rule="evenodd" fill-opacity="1" /><path clip-path="url(#clip530)" d="M550.41 1285.04 L555.295 1285.04 L555.295 1290.92 L550.41 1290.92 L550.41 1285.04 Z" fill="#000000" fill-rule="evenodd" fill-opacity="1" /><path clip-path="url(#clip530)" d="M581.406 1265.75 L581.406 1269.78 Q579.6 1268.86 577.656 1268.39 Q575.711 1267.93 573.628 1267.93 Q570.457 1267.93 568.859 1268.9 Q567.285 1269.87 567.285 1271.82 Q567.285 1273.3 568.42 1274.16 Q569.554 1274.99 572.98 1275.75 L574.438 1276.08 Q578.975 1277.05 580.873 1278.83 Q582.794 1280.59 582.794 1283.76 Q582.794 1287.37 579.924 1289.48 Q577.077 1291.59 572.077 1291.59 Q569.994 1291.59 567.725 1291.17 Q565.48 1290.78 562.98 1289.97 L562.98 1285.57 Q565.341 1286.79 567.632 1287.42 Q569.924 1288.02 572.169 1288.02 Q575.179 1288.02 576.799 1287 Q578.419 1285.96 578.419 1284.09 Q578.419 1282.35 577.239 1281.42 Q576.082 1280.5 572.123 1279.64 L570.642 1279.3 Q566.683 1278.46 564.924 1276.75 Q563.165 1275.01 563.165 1272 Q563.165 1268.35 565.757 1266.36 Q568.35 1264.36 573.119 1264.36 Q575.48 1264.36 577.563 1264.71 Q579.646 1265.06 581.406 1265.75 Z" fill="#000000" fill-rule="evenodd" fill-opacity="1" /><path clip-path="url(#clip530)" d="M614.878 1254.94 Q611.776 1260.27 610.271 1265.48 Q608.767 1270.68 608.767 1276.03 Q608.767 1281.38 610.271 1286.63 Q611.799 1291.86 614.878 1297.17 L611.174 1297.17 Q607.702 1291.73 605.966 1286.47 Q604.253 1281.22 604.253 1276.03 Q604.253 1270.87 605.966 1265.64 Q607.679 1260.41 611.174 1254.94 L614.878 1254.94 Z" fill="#000000" fill-rule="evenodd" fill-opacity="1" /><path clip-path="url(#clip530)" d="M637.91 1272.28 Q641.266 1273 643.141 1275.27 Q645.039 1277.54 645.039 1280.87 Q645.039 1285.98 641.521 1288.79 Q638.002 1291.59 631.521 1291.59 Q629.345 1291.59 627.03 1291.15 Q624.739 1290.73 622.285 1289.87 L622.285 1285.36 Q624.229 1286.49 626.544 1287.07 Q628.859 1287.65 631.382 1287.65 Q635.78 1287.65 638.072 1285.92 Q640.387 1284.18 640.387 1280.87 Q640.387 1277.81 638.234 1276.1 Q636.104 1274.36 632.285 1274.36 L628.257 1274.36 L628.257 1270.52 L632.47 1270.52 Q635.919 1270.52 637.748 1269.16 Q639.577 1267.77 639.577 1265.17 Q639.577 1262.51 637.678 1261.1 Q635.803 1259.67 632.285 1259.67 Q630.364 1259.67 628.165 1260.08 Q625.966 1260.5 623.327 1261.38 L623.327 1257.21 Q625.989 1256.47 628.303 1256.1 Q630.641 1255.73 632.702 1255.73 Q638.026 1255.73 641.127 1258.16 Q644.229 1260.57 644.229 1264.69 Q644.229 1267.56 642.586 1269.55 Q640.942 1271.52 637.91 1272.28 Z" fill="#000000" fill-rule="evenodd" fill-opacity="1" /><path clip-path="url(#clip530)" d="M668.072 1272.28 Q671.428 1273 673.303 1275.27 Q675.201 1277.54 675.201 1280.87 Q675.201 1285.98 671.683 1288.79 Q668.164 1291.59 661.683 1291.59 Q659.507 1291.59 657.192 1291.15 Q654.901 1290.73 652.447 1289.87 L652.447 1285.36 Q654.391 1286.49 656.706 1287.07 Q659.021 1287.65 661.544 1287.65 Q665.942 1287.65 668.234 1285.92 Q670.549 1284.18 670.549 1280.87 Q670.549 1277.81 668.396 1276.1 Q666.266 1274.36 662.447 1274.36 L658.419 1274.36 L658.419 1270.52 L662.632 1270.52 Q666.081 1270.52 667.91 1269.16 Q669.738 1267.77 669.738 1265.17 Q669.738 1262.51 667.84 1261.1 Q665.965 1259.67 662.447 1259.67 Q660.526 1259.67 658.326 1260.08 Q656.127 1260.5 653.489 1261.38 L653.489 1257.21 Q656.151 1256.47 658.465 1256.1 Q660.803 1255.73 662.863 1255.73 Q668.187 1255.73 671.289 1258.16 Q674.391 1260.57 674.391 1264.69 Q674.391 1267.56 672.748 1269.55 Q671.104 1271.52 668.072 1272.28 Z" fill="#000000" fill-rule="evenodd" fill-opacity="1" /><path clip-path="url(#clip530)" d="M684.113 1256.36 L702.47 1256.36 L702.47 1260.29 L688.396 1260.29 L688.396 1268.76 Q689.414 1268.42 690.433 1268.25 Q691.451 1268.07 692.47 1268.07 Q698.257 1268.07 701.636 1271.24 Q705.016 1274.41 705.016 1279.83 Q705.016 1285.41 701.544 1288.51 Q698.072 1291.59 691.752 1291.59 Q689.576 1291.59 687.308 1291.22 Q685.062 1290.85 682.655 1290.11 L682.655 1285.41 Q684.738 1286.54 686.961 1287.1 Q689.183 1287.65 691.66 1287.65 Q695.664 1287.65 698.002 1285.54 Q700.34 1283.44 700.34 1279.83 Q700.34 1276.22 698.002 1274.11 Q695.664 1272 691.66 1272 Q689.785 1272 687.91 1272.42 Q686.058 1272.84 684.113 1273.72 L684.113 1256.36 Z" fill="#000000" fill-rule="evenodd" fill-opacity="1" /><path clip-path="url(#clip530)" d="M714.275 1256.36 L732.632 1256.36 L732.632 1260.29 L718.558 1260.29 L718.558 1268.76 Q719.576 1268.42 720.595 1268.25 Q721.613 1268.07 722.632 1268.07 Q728.419 1268.07 731.798 1271.24 Q735.178 1274.41 735.178 1279.83 Q735.178 1285.41 731.706 1288.51 Q728.233 1291.59 721.914 1291.59 Q719.738 1291.59 717.47 1291.22 Q715.224 1290.85 712.817 1290.11 L712.817 1285.41 Q714.9 1286.54 717.122 1287.1 Q719.345 1287.65 721.821 1287.65 Q725.826 1287.65 728.164 1285.54 Q730.502 1283.44 730.502 1279.83 Q730.502 1276.22 728.164 1274.11 Q725.826 1272 721.821 1272 Q719.946 1272 718.071 1272.42 Q716.22 1272.84 714.275 1273.72 L714.275 1256.36 Z" fill="#000000" fill-rule="evenodd" fill-opacity="1" /><path clip-path="url(#clip530)" d="M757.238 1260.43 L745.432 1278.88 L757.238 1278.88 L757.238 1260.43 M756.011 1256.36 L761.891 1256.36 L761.891 1278.88 L766.821 1278.88 L766.821 1282.77 L761.891 1282.77 L761.891 1290.92 L757.238 1290.92 L757.238 1282.77 L741.636 1282.77 L741.636 1278.25 L756.011 1256.36 Z" fill="#000000" fill-rule="evenodd" fill-opacity="1" /><path clip-path="url(#clip530)" d="M787.4 1260.43 L775.594 1278.88 L787.4 1278.88 L787.4 1260.43 M786.173 1256.36 L792.053 1256.36 L792.053 1278.88 L796.983 1278.88 L796.983 1282.77 L792.053 1282.77 L792.053 1290.92 L787.4 1290.92 L787.4 1282.77 L771.798 1282.77 L771.798 1278.25 L786.173 1256.36 Z" fill="#000000" fill-rule="evenodd" fill-opacity="1" /><path clip-path="url(#clip530)" d="M818.881 1272.28 Q822.238 1273 824.113 1275.27 Q826.011 1277.54 826.011 1280.87 Q826.011 1285.98 822.492 1288.79 Q818.974 1291.59 812.492 1291.59 Q810.316 1291.59 808.002 1291.15 Q805.71 1290.73 803.256 1289.87 L803.256 1285.36 Q805.201 1286.49 807.515 1287.07 Q809.83 1287.65 812.353 1287.65 Q816.752 1287.65 819.043 1285.92 Q821.358 1284.18 821.358 1280.87 Q821.358 1277.81 819.205 1276.1 Q817.076 1274.36 813.256 1274.36 L809.228 1274.36 L809.228 1270.52 L813.441 1270.52 Q816.89 1270.52 818.719 1269.16 Q820.548 1267.77 820.548 1265.17 Q820.548 1262.51 818.65 1261.1 Q816.775 1259.67 813.256 1259.67 Q811.335 1259.67 809.136 1260.08 Q806.937 1260.5 804.298 1261.38 L804.298 1257.21 Q806.96 1256.47 809.275 1256.1 Q811.613 1255.73 813.673 1255.73 Q818.997 1255.73 822.099 1258.16 Q825.201 1260.57 825.201 1264.69 Q825.201 1267.56 823.557 1269.55 Q821.914 1271.52 818.881 1272.28 Z" fill="#000000" fill-rule="evenodd" fill-opacity="1" /><path clip-path="url(#clip530)" d="M838.904 1286.98 L855.224 1286.98 L855.224 1290.92 L833.279 1290.92 L833.279 1286.98 Q835.941 1284.23 840.525 1279.6 Q845.131 1274.94 846.312 1273.6 Q848.557 1271.08 849.437 1269.34 Q850.339 1267.58 850.339 1265.89 Q850.339 1263.14 848.395 1261.4 Q846.474 1259.67 843.372 1259.67 Q841.173 1259.67 838.719 1260.43 Q836.288 1261.19 833.511 1262.74 L833.511 1258.02 Q836.335 1256.89 838.788 1256.31 Q841.242 1255.73 843.279 1255.73 Q848.649 1255.73 851.844 1258.42 Q855.038 1261.1 855.038 1265.59 Q855.038 1267.72 854.228 1269.64 Q853.441 1271.54 851.335 1274.13 Q850.756 1274.8 847.654 1278.02 Q844.552 1281.22 838.904 1286.98 Z" fill="#000000" fill-rule="evenodd" fill-opacity="1" /><path clip-path="url(#clip530)" d="M863.765 1254.94 L867.469 1254.94 Q870.941 1260.41 872.654 1265.64 Q874.39 1270.87 874.39 1276.03 Q874.39 1281.22 872.654 1286.47 Q870.941 1291.73 867.469 1297.17 L863.765 1297.17 Q866.844 1291.86 868.348 1286.63 Q869.876 1281.38 869.876 1276.03 Q869.876 1270.68 868.348 1265.48 Q866.844 1260.27 863.765 1254.94 Z" fill="#000000" fill-rule="evenodd" fill-opacity="1" /><polyline clip-path="url(#clip530)" style="stroke:#e26f46; stroke-linecap:round; stroke-linejoin:round; stroke-width:4; stroke-opacity:1; fill:none" points="
  254.205,1325.48 400.616,1325.48 
  "/>
<path clip-path="url(#clip530)" d="M445.365 1321.81 Q446.962 1318.94 449.184 1317.57 Q451.406 1316.2 454.415 1316.2 Q458.466 1316.2 460.665 1319.05 Q462.865 1321.88 462.865 1327.11 L462.865 1342.76 L458.582 1342.76 L458.582 1327.25 Q458.582 1323.52 457.263 1321.71 Q455.943 1319.91 453.235 1319.91 Q449.925 1319.91 448.003 1322.11 Q446.082 1324.31 446.082 1328.1 L446.082 1342.76 L441.8 1342.76 L441.8 1327.25 Q441.8 1323.5 440.48 1321.71 Q439.161 1319.91 436.406 1319.91 Q433.142 1319.91 431.221 1322.13 Q429.3 1324.33 429.3 1328.1 L429.3 1342.76 L425.018 1342.76 L425.018 1316.83 L429.3 1316.83 L429.3 1320.86 Q430.758 1318.47 432.795 1317.34 Q434.832 1316.2 437.633 1316.2 Q440.457 1316.2 442.425 1317.64 Q444.416 1319.07 445.365 1321.81 Z" fill="#000000" fill-rule="evenodd" fill-opacity="1" /><path clip-path="url(#clip530)" d="M483.142 1329.72 Q477.98 1329.72 475.989 1330.9 Q473.999 1332.08 473.999 1334.93 Q473.999 1337.2 475.48 1338.54 Q476.985 1339.86 479.554 1339.86 Q483.096 1339.86 485.226 1337.36 Q487.378 1334.84 487.378 1330.67 L487.378 1329.72 L483.142 1329.72 M491.638 1327.96 L491.638 1342.76 L487.378 1342.76 L487.378 1338.82 Q485.92 1341.18 483.744 1342.32 Q481.568 1343.43 478.42 1343.43 Q474.439 1343.43 472.077 1341.2 Q469.739 1338.96 469.739 1335.21 Q469.739 1330.83 472.656 1328.61 Q475.596 1326.39 481.406 1326.39 L487.378 1326.39 L487.378 1325.97 Q487.378 1323.03 485.434 1321.44 Q483.513 1319.82 480.017 1319.82 Q477.795 1319.82 475.689 1320.35 Q473.582 1320.88 471.638 1321.95 L471.638 1318.01 Q473.976 1317.11 476.175 1316.67 Q478.374 1316.2 480.457 1316.2 Q486.082 1316.2 488.86 1319.12 Q491.638 1322.04 491.638 1327.96 Z" fill="#000000" fill-rule="evenodd" fill-opacity="1" /><path clip-path="url(#clip530)" d="M516.938 1317.59 L516.938 1321.62 Q515.133 1320.7 513.188 1320.23 Q511.244 1319.77 509.161 1319.77 Q505.989 1319.77 504.392 1320.74 Q502.818 1321.71 502.818 1323.66 Q502.818 1325.14 503.952 1326 Q505.087 1326.83 508.512 1327.59 L509.971 1327.92 Q514.508 1328.89 516.406 1330.67 Q518.327 1332.43 518.327 1335.6 Q518.327 1339.21 515.457 1341.32 Q512.61 1343.43 507.61 1343.43 Q505.526 1343.43 503.258 1343.01 Q501.012 1342.62 498.512 1341.81 L498.512 1337.41 Q500.874 1338.63 503.165 1339.26 Q505.457 1339.86 507.702 1339.86 Q510.711 1339.86 512.332 1338.84 Q513.952 1337.8 513.952 1335.93 Q513.952 1334.19 512.772 1333.26 Q511.614 1332.34 507.656 1331.48 L506.174 1331.14 Q502.216 1330.3 500.457 1328.59 Q498.698 1326.85 498.698 1323.84 Q498.698 1320.19 501.29 1318.2 Q503.883 1316.2 508.651 1316.2 Q511.012 1316.2 513.096 1316.55 Q515.179 1316.9 516.938 1317.59 Z" fill="#000000" fill-rule="evenodd" fill-opacity="1" /><path clip-path="url(#clip530)" d="M541.637 1317.59 L541.637 1321.62 Q539.832 1320.7 537.887 1320.23 Q535.943 1319.77 533.86 1319.77 Q530.688 1319.77 529.091 1320.74 Q527.517 1321.71 527.517 1323.66 Q527.517 1325.14 528.651 1326 Q529.785 1326.83 533.211 1327.59 L534.67 1327.92 Q539.207 1328.89 541.105 1330.67 Q543.026 1332.43 543.026 1335.6 Q543.026 1339.21 540.156 1341.32 Q537.309 1343.43 532.309 1343.43 Q530.225 1343.43 527.957 1343.01 Q525.711 1342.62 523.211 1341.81 L523.211 1337.41 Q525.573 1338.63 527.864 1339.26 Q530.156 1339.86 532.401 1339.86 Q535.41 1339.86 537.031 1338.84 Q538.651 1337.8 538.651 1335.93 Q538.651 1334.19 537.471 1333.26 Q536.313 1332.34 532.355 1331.48 L530.873 1331.14 Q526.915 1330.3 525.156 1328.59 Q523.397 1326.85 523.397 1323.84 Q523.397 1320.19 525.989 1318.2 Q528.582 1316.2 533.35 1316.2 Q535.711 1316.2 537.795 1316.55 Q539.878 1316.9 541.637 1317.59 Z" fill="#000000" fill-rule="evenodd" fill-opacity="1" /><path clip-path="url(#clip530)" d="M550.41 1336.88 L555.295 1336.88 L555.295 1342.76 L550.41 1342.76 L550.41 1336.88 Z" fill="#000000" fill-rule="evenodd" fill-opacity="1" /><path clip-path="url(#clip530)" d="M561.822 1316.83 L566.336 1316.83 L574.438 1338.59 L582.54 1316.83 L587.054 1316.83 L577.332 1342.76 L571.544 1342.76 L561.822 1316.83 Z" fill="#000000" fill-rule="evenodd" fill-opacity="1" /><path clip-path="url(#clip530)" d="M618.234 1306.78 Q615.132 1312.11 613.628 1317.32 Q612.123 1322.52 612.123 1327.87 Q612.123 1333.22 613.628 1338.47 Q615.155 1343.7 618.234 1349.01 L614.53 1349.01 Q611.058 1343.57 609.322 1338.31 Q607.609 1333.06 607.609 1327.87 Q607.609 1322.71 609.322 1317.48 Q611.035 1312.25 614.53 1306.78 L618.234 1306.78 Z" fill="#000000" fill-rule="evenodd" fill-opacity="1" /><path clip-path="url(#clip530)" d="M641.266 1324.12 Q644.623 1324.84 646.498 1327.11 Q648.396 1329.38 648.396 1332.71 Q648.396 1337.82 644.877 1340.63 Q641.359 1343.43 634.877 1343.43 Q632.702 1343.43 630.387 1342.99 Q628.095 1342.57 625.641 1341.71 L625.641 1337.2 Q627.586 1338.33 629.901 1338.91 Q632.215 1339.49 634.739 1339.49 Q639.137 1339.49 641.428 1337.76 Q643.743 1336.02 643.743 1332.71 Q643.743 1329.65 641.59 1327.94 Q639.461 1326.2 635.641 1326.2 L631.614 1326.2 L631.614 1322.36 L635.827 1322.36 Q639.276 1322.36 641.104 1321 Q642.933 1319.61 642.933 1317.01 Q642.933 1314.35 641.035 1312.94 Q639.16 1311.51 635.641 1311.51 Q633.72 1311.51 631.521 1311.92 Q629.322 1312.34 626.683 1313.22 L626.683 1309.05 Q629.345 1308.31 631.66 1307.94 Q633.998 1307.57 636.058 1307.57 Q641.382 1307.57 644.484 1310 Q647.586 1312.41 647.586 1316.53 Q647.586 1319.4 645.942 1321.39 Q644.299 1323.36 641.266 1324.12 Z" fill="#000000" fill-rule="evenodd" fill-opacity="1" /><path clip-path="url(#clip530)" d="M671.428 1324.12 Q674.785 1324.84 676.66 1327.11 Q678.558 1329.38 678.558 1332.71 Q678.558 1337.82 675.039 1340.63 Q671.521 1343.43 665.039 1343.43 Q662.863 1343.43 660.549 1342.99 Q658.257 1342.57 655.803 1341.71 L655.803 1337.2 Q657.748 1338.33 660.063 1338.91 Q662.377 1339.49 664.9 1339.49 Q669.299 1339.49 671.59 1337.76 Q673.905 1336.02 673.905 1332.71 Q673.905 1329.65 671.752 1327.94 Q669.623 1326.2 665.803 1326.2 L661.775 1326.2 L661.775 1322.36 L665.988 1322.36 Q669.437 1322.36 671.266 1321 Q673.095 1319.61 673.095 1317.01 Q673.095 1314.35 671.197 1312.94 Q669.322 1311.51 665.803 1311.51 Q663.882 1311.51 661.683 1311.92 Q659.484 1312.34 656.845 1313.22 L656.845 1309.05 Q659.507 1308.31 661.822 1307.94 Q664.16 1307.57 666.22 1307.57 Q671.544 1307.57 674.646 1310 Q677.748 1312.41 677.748 1316.53 Q677.748 1319.4 676.104 1321.39 Q674.461 1323.36 671.428 1324.12 Z" fill="#000000" fill-rule="evenodd" fill-opacity="1" /><path clip-path="url(#clip530)" d="M687.47 1308.2 L705.826 1308.2 L705.826 1312.13 L691.752 1312.13 L691.752 1320.6 Q692.771 1320.26 693.789 1320.09 Q694.808 1319.91 695.826 1319.91 Q701.613 1319.91 704.993 1323.08 Q708.372 1326.25 708.372 1331.67 Q708.372 1337.25 704.9 1340.35 Q701.428 1343.43 695.109 1343.43 Q692.933 1343.43 690.664 1343.06 Q688.419 1342.69 686.011 1341.95 L686.011 1337.25 Q688.095 1338.38 690.317 1338.94 Q692.539 1339.49 695.016 1339.49 Q699.021 1339.49 701.359 1337.38 Q703.697 1335.28 703.697 1331.67 Q703.697 1328.06 701.359 1325.95 Q699.021 1323.84 695.016 1323.84 Q693.141 1323.84 691.266 1324.26 Q689.414 1324.68 687.47 1325.56 L687.47 1308.2 Z" fill="#000000" fill-rule="evenodd" fill-opacity="1" /><path clip-path="url(#clip530)" d="M717.632 1308.2 L735.988 1308.2 L735.988 1312.13 L721.914 1312.13 L721.914 1320.6 Q722.933 1320.26 723.951 1320.09 Q724.97 1319.91 725.988 1319.91 Q731.775 1319.91 735.155 1323.08 Q738.534 1326.25 738.534 1331.67 Q738.534 1337.25 735.062 1340.35 Q731.59 1343.43 725.271 1343.43 Q723.095 1343.43 720.826 1343.06 Q718.581 1342.69 716.173 1341.95 L716.173 1337.25 Q718.257 1338.38 720.479 1338.94 Q722.701 1339.49 725.178 1339.49 Q729.183 1339.49 731.52 1337.38 Q733.858 1335.28 733.858 1331.67 Q733.858 1328.06 731.52 1325.95 Q729.183 1323.84 725.178 1323.84 Q723.303 1323.84 721.428 1324.26 Q719.576 1324.68 717.632 1325.56 L717.632 1308.2 Z" fill="#000000" fill-rule="evenodd" fill-opacity="1" /><path clip-path="url(#clip530)" d="M760.594 1312.27 L748.789 1330.72 L760.594 1330.72 L760.594 1312.27 M759.368 1308.2 L765.247 1308.2 L765.247 1330.72 L770.178 1330.72 L770.178 1334.61 L765.247 1334.61 L765.247 1342.76 L760.594 1342.76 L760.594 1334.61 L744.993 1334.61 L744.993 1330.09 L759.368 1308.2 Z" fill="#000000" fill-rule="evenodd" fill-opacity="1" /><path clip-path="url(#clip530)" d="M790.756 1312.27 L778.951 1330.72 L790.756 1330.72 L790.756 1312.27 M789.529 1308.2 L795.409 1308.2 L795.409 1330.72 L800.34 1330.72 L800.34 1334.61 L795.409 1334.61 L795.409 1342.76 L790.756 1342.76 L790.756 1334.61 L775.155 1334.61 L775.155 1330.09 L789.529 1308.2 Z" fill="#000000" fill-rule="evenodd" fill-opacity="1" /><path clip-path="url(#clip530)" d="M822.238 1324.12 Q825.594 1324.84 827.469 1327.11 Q829.367 1329.38 829.367 1332.71 Q829.367 1337.82 825.849 1340.63 Q822.33 1343.43 815.849 1343.43 Q813.673 1343.43 811.358 1342.99 Q809.066 1342.57 806.613 1341.71 L806.613 1337.2 Q808.557 1338.33 810.872 1338.91 Q813.187 1339.49 815.71 1339.49 Q820.108 1339.49 822.4 1337.76 Q824.714 1336.02 824.714 1332.71 Q824.714 1329.65 822.562 1327.94 Q820.432 1326.2 816.613 1326.2 L812.585 1326.2 L812.585 1322.36 L816.798 1322.36 Q820.247 1322.36 822.076 1321 Q823.904 1319.61 823.904 1317.01 Q823.904 1314.35 822.006 1312.94 Q820.131 1311.51 816.613 1311.51 Q814.691 1311.51 812.492 1311.92 Q810.293 1312.34 807.654 1313.22 L807.654 1309.05 Q810.316 1308.31 812.631 1307.94 Q814.969 1307.57 817.029 1307.57 Q822.353 1307.57 825.455 1310 Q828.557 1312.41 828.557 1316.53 Q828.557 1319.4 826.914 1321.39 Q825.27 1323.36 822.238 1324.12 Z" fill="#000000" fill-rule="evenodd" fill-opacity="1" /><path clip-path="url(#clip530)" d="M852.399 1324.12 Q855.756 1324.84 857.631 1327.11 Q859.529 1329.38 859.529 1332.71 Q859.529 1337.82 856.011 1340.63 Q852.492 1343.43 846.011 1343.43 Q843.835 1343.43 841.52 1342.99 Q839.228 1342.57 836.775 1341.71 L836.775 1337.2 Q838.719 1338.33 841.034 1338.91 Q843.349 1339.49 845.872 1339.49 Q850.27 1339.49 852.562 1337.76 Q854.876 1336.02 854.876 1332.71 Q854.876 1329.65 852.724 1327.94 Q850.594 1326.2 846.775 1326.2 L842.747 1326.2 L842.747 1322.36 L846.96 1322.36 Q850.409 1322.36 852.237 1321 Q854.066 1319.61 854.066 1317.01 Q854.066 1314.35 852.168 1312.94 Q850.293 1311.51 846.775 1311.51 Q844.853 1311.51 842.654 1311.92 Q840.455 1312.34 837.816 1313.22 L837.816 1309.05 Q840.478 1308.31 842.793 1307.94 Q845.131 1307.57 847.191 1307.57 Q852.515 1307.57 855.617 1310 Q858.719 1312.41 858.719 1316.53 Q858.719 1319.4 857.075 1321.39 Q855.432 1323.36 852.399 1324.12 Z" fill="#000000" fill-rule="evenodd" fill-opacity="1" /><path clip-path="url(#clip530)" d="M867.122 1306.78 L870.825 1306.78 Q874.298 1312.25 876.01 1317.48 Q877.747 1322.71 877.747 1327.87 Q877.747 1333.06 876.01 1338.31 Q874.298 1343.57 870.825 1349.01 L867.122 1349.01 Q870.2 1343.7 871.705 1338.47 Q873.233 1333.22 873.233 1327.87 Q873.233 1322.52 871.705 1317.32 Q870.2 1312.11 867.122 1306.78 Z" fill="#000000" fill-rule="evenodd" fill-opacity="1" /></svg>
