<?xml version="1.0" encoding="utf-8"?>
<svg xmlns="http://www.w3.org/2000/svg" xmlns:xlink="http://www.w3.org/1999/xlink" width="600" height="400" viewBox="0 0 2400 1600">
<defs>
  <clipPath id="clip480">
    <rect x="0" y="0" width="2400" height="1600"/>
  </clipPath>
</defs>
<path clip-path="url(#clip480)" d="
M0 1600 L2400 1600 L2400 0 L0 0  Z
  " fill="#ffffff" fill-rule="evenodd" fill-opacity="1"/>
<defs>
  <clipPath id="clip481">
    <rect x="480" y="0" width="1681" height="1600"/>
  </clipPath>
</defs>
<path clip-path="url(#clip480)" d="
M193.936 1423.18 L2352.76 1423.18 L2352.76 47.2441 L193.936 47.2441  Z
  " fill="#ffffff" fill-rule="evenodd" fill-opacity="1"/>
<defs>
  <clipPath id="clip482">
    <rect x="193" y="47" width="2160" height="1377"/>
  </clipPath>
</defs>
<polyline clip-path="url(#clip482)" style="stroke:#000000; stroke-linecap:round; stroke-linejoin:round; stroke-width:2; stroke-opacity:0.1; fill:none" points="
  255.035,1423.18 255.035,47.2441 
  "/>
<polyline clip-path="url(#clip482)" style="stroke:#000000; stroke-linecap:round; stroke-linejoin:round; stroke-width:2; stroke-opacity:0.1; fill:none" points="
  662.359,1423.18 662.359,47.2441 
  "/>
<polyline clip-path="url(#clip482)" style="stroke:#000000; stroke-linecap:round; stroke-linejoin:round; stroke-width:2; stroke-opacity:0.1; fill:none" points="
  1069.68,1423.18 1069.68,47.2441 
  "/>
<polyline clip-path="url(#clip482)" style="stroke:#000000; stroke-linecap:round; stroke-linejoin:round; stroke-width:2; stroke-opacity:0.1; fill:none" points="
  1477.01,1423.18 1477.01,47.2441 
  "/>
<polyline clip-path="url(#clip482)" style="stroke:#000000; stroke-linecap:round; stroke-linejoin:round; stroke-width:2; stroke-opacity:0.1; fill:none" points="
  1884.33,1423.18 1884.33,47.2441 
  "/>
<polyline clip-path="url(#clip482)" style="stroke:#000000; stroke-linecap:round; stroke-linejoin:round; stroke-width:2; stroke-opacity:0.1; fill:none" points="
  2291.66,1423.18 2291.66,47.2441 
  "/>
<polyline clip-path="url(#clip480)" style="stroke:#000000; stroke-linecap:round; stroke-linejoin:round; stroke-width:4; stroke-opacity:1; fill:none" points="
  193.936,1423.18 2352.76,1423.18 
  "/>
<polyline clip-path="url(#clip480)" style="stroke:#000000; stroke-linecap:round; stroke-linejoin:round; stroke-width:4; stroke-opacity:1; fill:none" points="
  255.035,1423.18 255.035,1404.28 
  "/>
<polyline clip-path="url(#clip480)" style="stroke:#000000; stroke-linecap:round; stroke-linejoin:round; stroke-width:4; stroke-opacity:1; fill:none" points="
  662.359,1423.18 662.359,1404.28 
  "/>
<polyline clip-path="url(#clip480)" style="stroke:#000000; stroke-linecap:round; stroke-linejoin:round; stroke-width:4; stroke-opacity:1; fill:none" points="
  1069.68,1423.18 1069.68,1404.28 
  "/>
<polyline clip-path="url(#clip480)" style="stroke:#000000; stroke-linecap:round; stroke-linejoin:round; stroke-width:4; stroke-opacity:1; fill:none" points="
  1477.01,1423.18 1477.01,1404.28 
  "/>
<polyline clip-path="url(#clip480)" style="stroke:#000000; stroke-linecap:round; stroke-linejoin:round; stroke-width:4; stroke-opacity:1; fill:none" points="
  1884.33,1423.18 1884.33,1404.28 
  "/>
<polyline clip-path="url(#clip480)" style="stroke:#000000; stroke-linecap:round; stroke-linejoin:round; stroke-width:4; stroke-opacity:1; fill:none" points="
  2291.66,1423.18 2291.66,1404.28 
  "/>
<path clip-path="url(#clip480)" d="M255.035 1454.1 Q251.424 1454.1 249.595 1457.66 Q247.789 1461.2 247.789 1468.33 Q247.789 1475.44 249.595 1479.01 Q251.424 1482.55 255.035 1482.55 Q258.669 1482.55 260.474 1479.01 Q262.303 1475.44 262.303 1468.33 Q262.303 1461.2 260.474 1457.66 Q258.669 1454.1 255.035 1454.1 M255.035 1450.39 Q260.845 1450.39 263.9 1455 Q266.979 1459.58 266.979 1468.33 Q266.979 1477.06 263.9 1481.67 Q260.845 1486.25 255.035 1486.25 Q249.225 1486.25 246.146 1481.67 Q243.09 1477.06 243.09 1468.33 Q243.09 1459.58 246.146 1455 Q249.225 1450.39 255.035 1450.39 Z" fill="#000000" fill-rule="evenodd" fill-opacity="1" /><path clip-path="url(#clip480)" d="M652.741 1481.64 L660.38 1481.64 L660.38 1455.28 L652.07 1456.95 L652.07 1452.69 L660.334 1451.02 L665.01 1451.02 L665.01 1481.64 L672.648 1481.64 L672.648 1485.58 L652.741 1485.58 L652.741 1481.64 Z" fill="#000000" fill-rule="evenodd" fill-opacity="1" /><path clip-path="url(#clip480)" d="M1064.34 1481.64 L1080.66 1481.64 L1080.66 1485.58 L1058.71 1485.58 L1058.71 1481.64 Q1061.37 1478.89 1065.96 1474.26 Q1070.56 1469.61 1071.74 1468.27 Q1073.99 1465.74 1074.87 1464.01 Q1075.77 1462.25 1075.77 1460.56 Q1075.77 1457.8 1073.83 1456.07 Q1071.91 1454.33 1068.8 1454.33 Q1066.61 1454.33 1064.15 1455.09 Q1061.72 1455.86 1058.94 1457.41 L1058.94 1452.69 Q1061.77 1451.55 1064.22 1450.97 Q1066.67 1450.39 1068.71 1450.39 Q1074.08 1450.39 1077.28 1453.08 Q1080.47 1455.77 1080.47 1460.26 Q1080.47 1462.39 1079.66 1464.31 Q1078.87 1466.2 1076.77 1468.8 Q1076.19 1469.47 1073.09 1472.69 Q1069.98 1475.88 1064.34 1481.64 Z" fill="#000000" fill-rule="evenodd" fill-opacity="1" /><path clip-path="url(#clip480)" d="M1481.26 1466.95 Q1484.61 1467.66 1486.49 1469.93 Q1488.39 1472.2 1488.39 1475.53 Q1488.39 1480.65 1484.87 1483.45 Q1481.35 1486.25 1474.87 1486.25 Q1472.69 1486.25 1470.38 1485.81 Q1468.08 1485.39 1465.63 1484.54 L1465.63 1480.02 Q1467.58 1481.16 1469.89 1481.74 Q1472.2 1482.32 1474.73 1482.32 Q1479.13 1482.32 1481.42 1480.58 Q1483.73 1478.84 1483.73 1475.53 Q1483.73 1472.48 1481.58 1470.77 Q1479.45 1469.03 1475.63 1469.03 L1471.6 1469.03 L1471.6 1465.19 L1475.82 1465.19 Q1479.27 1465.19 1481.09 1463.82 Q1482.92 1462.43 1482.92 1459.84 Q1482.92 1457.18 1481.02 1455.77 Q1479.15 1454.33 1475.63 1454.33 Q1473.71 1454.33 1471.51 1454.75 Q1469.31 1455.16 1466.67 1456.04 L1466.67 1451.88 Q1469.33 1451.14 1471.65 1450.77 Q1473.99 1450.39 1476.05 1450.39 Q1481.37 1450.39 1484.47 1452.83 Q1487.58 1455.23 1487.58 1459.35 Q1487.58 1462.22 1485.93 1464.21 Q1484.29 1466.18 1481.26 1466.95 Z" fill="#000000" fill-rule="evenodd" fill-opacity="1" /><path clip-path="url(#clip480)" d="M1887.34 1455.09 L1875.54 1473.54 L1887.34 1473.54 L1887.34 1455.09 M1886.12 1451.02 L1891.99 1451.02 L1891.99 1473.54 L1896.93 1473.54 L1896.93 1477.43 L1891.99 1477.43 L1891.99 1485.58 L1887.34 1485.58 L1887.34 1477.43 L1871.74 1477.43 L1871.74 1472.92 L1886.12 1451.02 Z" fill="#000000" fill-rule="evenodd" fill-opacity="1" /><path clip-path="url(#clip480)" d="M2281.94 1451.02 L2300.29 1451.02 L2300.29 1454.96 L2286.22 1454.96 L2286.22 1463.43 Q2287.24 1463.08 2288.25 1462.92 Q2289.27 1462.73 2290.29 1462.73 Q2296.08 1462.73 2299.46 1465.9 Q2302.84 1469.08 2302.84 1474.49 Q2302.84 1480.07 2299.37 1483.17 Q2295.89 1486.25 2289.57 1486.25 Q2287.4 1486.25 2285.13 1485.88 Q2282.88 1485.51 2280.48 1484.77 L2280.48 1480.07 Q2282.56 1481.2 2284.78 1481.76 Q2287 1482.32 2289.48 1482.32 Q2293.49 1482.32 2295.82 1480.21 Q2298.16 1478.1 2298.16 1474.49 Q2298.16 1470.88 2295.82 1468.77 Q2293.49 1466.67 2289.48 1466.67 Q2287.61 1466.67 2285.73 1467.08 Q2283.88 1467.5 2281.94 1468.38 L2281.94 1451.02 Z" fill="#000000" fill-rule="evenodd" fill-opacity="1" /><path clip-path="url(#clip480)" d="M1221.66 1522.27 L1221.66 1532.4 L1233.72 1532.4 L1233.72 1536.95 L1221.66 1536.95 L1221.66 1556.3 Q1221.66 1560.66 1222.83 1561.9 Q1224.04 1563.14 1227.7 1563.14 L1233.72 1563.14 L1233.72 1568.04 L1227.7 1568.04 Q1220.92 1568.04 1218.35 1565.53 Q1215.77 1562.98 1215.77 1556.3 L1215.77 1536.95 L1211.47 1536.95 L1211.47 1532.4 L1215.77 1532.4 L1215.77 1522.27 L1221.66 1522.27 Z" fill="#000000" fill-rule="evenodd" fill-opacity="1" /><path clip-path="url(#clip480)" d="M1261.6 1518.52 L1275.1 1518.52 L1275.1 1523.07 L1267.46 1523.07 L1267.46 1572.09 L1275.1 1572.09 L1275.1 1576.64 L1261.6 1576.64 L1261.6 1518.52 Z" fill="#000000" fill-rule="evenodd" fill-opacity="1" /><path clip-path="url(#clip480)" d="M1310.3 1533.45 L1310.3 1538.98 Q1307.82 1537.71 1305.14 1537.07 Q1302.47 1536.44 1299.6 1536.44 Q1295.24 1536.44 1293.05 1537.77 Q1290.88 1539.11 1290.88 1541.79 Q1290.88 1543.82 1292.44 1545 Q1294 1546.15 1298.71 1547.2 L1300.72 1547.64 Q1306.96 1548.98 1309.57 1551.43 Q1312.21 1553.85 1312.21 1558.21 Q1312.21 1563.17 1308.26 1566.07 Q1304.35 1568.97 1297.47 1568.97 Q1294.61 1568.97 1291.49 1568.39 Q1288.4 1567.85 1284.96 1566.74 L1284.96 1560.69 Q1288.21 1562.38 1291.36 1563.24 Q1294.51 1564.07 1297.6 1564.07 Q1301.74 1564.07 1303.97 1562.66 Q1306.19 1561.23 1306.19 1558.65 Q1306.19 1556.27 1304.57 1554.99 Q1302.98 1553.72 1297.54 1552.54 L1295.5 1552.07 Q1290.06 1550.92 1287.64 1548.56 Q1285.22 1546.18 1285.22 1542.04 Q1285.22 1537.01 1288.78 1534.27 Q1292.35 1531.54 1298.9 1531.54 Q1302.15 1531.54 1305.02 1532.01 Q1307.88 1532.49 1310.3 1533.45 Z" fill="#000000" fill-rule="evenodd" fill-opacity="1" /><path clip-path="url(#clip480)" d="M1335.22 1518.52 L1335.22 1576.64 L1321.73 1576.64 L1321.73 1572.09 L1329.33 1572.09 L1329.33 1523.07 L1321.73 1523.07 L1321.73 1518.52 L1335.22 1518.52 Z" fill="#000000" fill-rule="evenodd" fill-opacity="1" /><polyline clip-path="url(#clip482)" style="stroke:#000000; stroke-linecap:round; stroke-linejoin:round; stroke-width:2; stroke-opacity:0.1; fill:none" points="
  193.936,1275.7 2352.76,1275.7 
  "/>
<polyline clip-path="url(#clip482)" style="stroke:#000000; stroke-linecap:round; stroke-linejoin:round; stroke-width:2; stroke-opacity:0.1; fill:none" points="
  193.936,1005.41 2352.76,1005.41 
  "/>
<polyline clip-path="url(#clip482)" style="stroke:#000000; stroke-linecap:round; stroke-linejoin:round; stroke-width:2; stroke-opacity:0.1; fill:none" points="
  193.936,735.116 2352.76,735.116 
  "/>
<polyline clip-path="url(#clip482)" style="stroke:#000000; stroke-linecap:round; stroke-linejoin:round; stroke-width:2; stroke-opacity:0.1; fill:none" points="
  193.936,464.824 2352.76,464.824 
  "/>
<polyline clip-path="url(#clip482)" style="stroke:#000000; stroke-linecap:round; stroke-linejoin:round; stroke-width:2; stroke-opacity:0.1; fill:none" points="
  193.936,194.532 2352.76,194.532 
  "/>
<polyline clip-path="url(#clip480)" style="stroke:#000000; stroke-linecap:round; stroke-linejoin:round; stroke-width:4; stroke-opacity:1; fill:none" points="
  193.936,1423.18 193.936,47.2441 
  "/>
<polyline clip-path="url(#clip480)" style="stroke:#000000; stroke-linecap:round; stroke-linejoin:round; stroke-width:4; stroke-opacity:1; fill:none" points="
  193.936,1275.7 212.834,1275.7 
  "/>
<polyline clip-path="url(#clip480)" style="stroke:#000000; stroke-linecap:round; stroke-linejoin:round; stroke-width:4; stroke-opacity:1; fill:none" points="
  193.936,1005.41 212.834,1005.41 
  "/>
<polyline clip-path="url(#clip480)" style="stroke:#000000; stroke-linecap:round; stroke-linejoin:round; stroke-width:4; stroke-opacity:1; fill:none" points="
  193.936,735.116 212.834,735.116 
  "/>
<polyline clip-path="url(#clip480)" style="stroke:#000000; stroke-linecap:round; stroke-linejoin:round; stroke-width:4; stroke-opacity:1; fill:none" points="
  193.936,464.824 212.834,464.824 
  "/>
<polyline clip-path="url(#clip480)" style="stroke:#000000; stroke-linecap:round; stroke-linejoin:round; stroke-width:4; stroke-opacity:1; fill:none" points="
  193.936,194.532 212.834,194.532 
  "/>
<path clip-path="url(#clip480)" d="M50.9921 1276.15 L80.6679 1276.15 L80.6679 1280.09 L50.9921 1280.09 L50.9921 1276.15 Z" fill="#000000" fill-rule="evenodd" fill-opacity="1" /><path clip-path="url(#clip480)" d="M90.8067 1258.42 L109.163 1258.42 L109.163 1262.35 L95.0891 1262.35 L95.0891 1270.83 Q96.1076 1270.48 97.1261 1270.32 Q98.1447 1270.13 99.1632 1270.13 Q104.95 1270.13 108.33 1273.3 Q111.709 1276.47 111.709 1281.89 Q111.709 1287.47 108.237 1290.57 Q104.765 1293.65 98.4456 1293.65 Q96.2697 1293.65 94.0012 1293.28 Q91.7558 1292.91 89.3484 1292.17 L89.3484 1287.47 Q91.4317 1288.6 93.6539 1289.16 Q95.8761 1289.72 98.353 1289.72 Q102.358 1289.72 104.696 1287.61 Q107.033 1285.5 107.033 1281.89 Q107.033 1278.28 104.696 1276.17 Q102.358 1274.07 98.353 1274.07 Q96.478 1274.07 94.603 1274.48 Q92.7512 1274.9 90.8067 1275.78 L90.8067 1258.42 Z" fill="#000000" fill-rule="evenodd" fill-opacity="1" /><path clip-path="url(#clip480)" d="M120.922 1287.1 L125.807 1287.1 L125.807 1292.98 L120.922 1292.98 L120.922 1287.1 Z" fill="#000000" fill-rule="evenodd" fill-opacity="1" /><path clip-path="url(#clip480)" d="M145.992 1261.5 Q142.381 1261.5 140.552 1265.06 Q138.746 1268.6 138.746 1275.73 Q138.746 1282.84 140.552 1286.4 Q142.381 1289.95 145.992 1289.95 Q149.626 1289.95 151.431 1286.4 Q153.26 1282.84 153.26 1275.73 Q153.26 1268.6 151.431 1265.06 Q149.626 1261.5 145.992 1261.5 M145.992 1257.79 Q151.802 1257.79 154.857 1262.4 Q157.936 1266.98 157.936 1275.73 Q157.936 1284.46 154.857 1289.07 Q151.802 1293.65 145.992 1293.65 Q140.181 1293.65 137.103 1289.07 Q134.047 1284.46 134.047 1275.73 Q134.047 1266.98 137.103 1262.4 Q140.181 1257.79 145.992 1257.79 Z" fill="#000000" fill-rule="evenodd" fill-opacity="1" /><path clip-path="url(#clip480)" d="M51.9875 1005.86 L81.6633 1005.86 L81.6633 1009.79 L51.9875 1009.79 L51.9875 1005.86 Z" fill="#000000" fill-rule="evenodd" fill-opacity="1" /><path clip-path="url(#clip480)" d="M95.7836 1018.75 L112.103 1018.75 L112.103 1022.69 L90.1586 1022.69 L90.1586 1018.75 Q92.8206 1016 97.4039 1011.37 Q102.01 1006.72 103.191 1005.37 Q105.436 1002.85 106.316 1001.11 Q107.219 999.354 107.219 997.664 Q107.219 994.91 105.274 993.174 Q103.353 991.437 100.251 991.437 Q98.0521 991.437 95.5984 992.201 Q93.1678 992.965 90.3901 994.516 L90.3901 989.794 Q93.2141 988.66 95.6678 988.081 Q98.1215 987.502 100.159 987.502 Q105.529 987.502 108.723 990.187 Q111.918 992.873 111.918 997.363 Q111.918 999.493 111.108 1001.41 Q110.321 1003.31 108.214 1005.91 Q107.635 1006.58 104.534 1009.79 Q101.432 1012.99 95.7836 1018.75 Z" fill="#000000" fill-rule="evenodd" fill-opacity="1" /><path clip-path="url(#clip480)" d="M121.918 1016.81 L126.802 1016.81 L126.802 1022.69 L121.918 1022.69 L121.918 1016.81 Z" fill="#000000" fill-rule="evenodd" fill-opacity="1" /><path clip-path="url(#clip480)" d="M137.033 988.127 L155.39 988.127 L155.39 992.062 L141.316 992.062 L141.316 1000.53 Q142.334 1000.19 143.353 1000.03 Q144.371 999.84 145.39 999.84 Q151.177 999.84 154.556 1003.01 Q157.936 1006.18 157.936 1011.6 Q157.936 1017.18 154.464 1020.28 Q150.992 1023.36 144.672 1023.36 Q142.496 1023.36 140.228 1022.99 Q137.982 1022.62 135.575 1021.88 L135.575 1017.18 Q137.658 1018.31 139.881 1018.87 Q142.103 1019.42 144.58 1019.42 Q148.584 1019.42 150.922 1017.32 Q153.26 1015.21 153.26 1011.6 Q153.26 1007.99 150.922 1005.88 Q148.584 1003.78 144.58 1003.78 Q142.705 1003.78 140.83 1004.19 Q138.978 1004.61 137.033 1005.49 L137.033 988.127 Z" fill="#000000" fill-rule="evenodd" fill-opacity="1" /><path clip-path="url(#clip480)" d="M100.76 720.914 Q97.1493 720.914 95.3206 724.479 Q93.515 728.021 93.515 735.15 Q93.515 742.257 95.3206 745.822 Q97.1493 749.363 100.76 749.363 Q104.395 749.363 106.2 745.822 Q108.029 742.257 108.029 735.15 Q108.029 728.021 106.2 724.479 Q104.395 720.914 100.76 720.914 M100.76 717.211 Q106.571 717.211 109.626 721.817 Q112.705 726.4 112.705 735.15 Q112.705 743.877 109.626 748.484 Q106.571 753.067 100.76 753.067 Q94.9502 753.067 91.8715 748.484 Q88.816 743.877 88.816 735.15 Q88.816 726.4 91.8715 721.817 Q94.9502 717.211 100.76 717.211 Z" fill="#000000" fill-rule="evenodd" fill-opacity="1" /><path clip-path="url(#clip480)" d="M120.922 746.516 L125.807 746.516 L125.807 752.396 L120.922 752.396 L120.922 746.516 Z" fill="#000000" fill-rule="evenodd" fill-opacity="1" /><path clip-path="url(#clip480)" d="M145.992 720.914 Q142.381 720.914 140.552 724.479 Q138.746 728.021 138.746 735.15 Q138.746 742.257 140.552 745.822 Q142.381 749.363 145.992 749.363 Q149.626 749.363 151.431 745.822 Q153.26 742.257 153.26 735.15 Q153.26 728.021 151.431 724.479 Q149.626 720.914 145.992 720.914 M145.992 717.211 Q151.802 717.211 154.857 721.817 Q157.936 726.4 157.936 735.15 Q157.936 743.877 154.857 748.484 Q151.802 753.067 145.992 753.067 Q140.181 753.067 137.103 748.484 Q134.047 743.877 134.047 735.15 Q134.047 726.4 137.103 721.817 Q140.181 717.211 145.992 717.211 Z" fill="#000000" fill-rule="evenodd" fill-opacity="1" /><path clip-path="url(#clip480)" d="M95.7836 478.169 L112.103 478.169 L112.103 482.104 L90.1586 482.104 L90.1586 478.169 Q92.8206 475.414 97.4039 470.785 Q102.01 466.132 103.191 464.789 Q105.436 462.266 106.316 460.53 Q107.219 458.771 107.219 457.081 Q107.219 454.326 105.274 452.59 Q103.353 450.854 100.251 450.854 Q98.0521 450.854 95.5984 451.618 Q93.1678 452.382 90.3901 453.933 L90.3901 449.211 Q93.2141 448.076 95.6678 447.498 Q98.1215 446.919 100.159 446.919 Q105.529 446.919 108.723 449.604 Q111.918 452.289 111.918 456.78 Q111.918 458.91 111.108 460.831 Q110.321 462.729 108.214 465.322 Q107.635 465.993 104.534 469.211 Q101.432 472.405 95.7836 478.169 Z" fill="#000000" fill-rule="evenodd" fill-opacity="1" /><path clip-path="url(#clip480)" d="M121.918 476.224 L126.802 476.224 L126.802 482.104 L121.918 482.104 L121.918 476.224 Z" fill="#000000" fill-rule="evenodd" fill-opacity="1" /><path clip-path="url(#clip480)" d="M137.033 447.544 L155.39 447.544 L155.39 451.479 L141.316 451.479 L141.316 459.951 Q142.334 459.604 143.353 459.442 Q144.371 459.257 145.39 459.257 Q151.177 459.257 154.556 462.428 Q157.936 465.599 157.936 471.016 Q157.936 476.595 154.464 479.697 Q150.992 482.775 144.672 482.775 Q142.496 482.775 140.228 482.405 Q137.982 482.035 135.575 481.294 L135.575 476.595 Q137.658 477.729 139.881 478.285 Q142.103 478.84 144.58 478.84 Q148.584 478.84 150.922 476.734 Q153.26 474.627 153.26 471.016 Q153.26 467.405 150.922 465.299 Q148.584 463.192 144.58 463.192 Q142.705 463.192 140.83 463.609 Q138.978 464.025 137.033 464.905 L137.033 447.544 Z" fill="#000000" fill-rule="evenodd" fill-opacity="1" /><path clip-path="url(#clip480)" d="M90.8067 177.252 L109.163 177.252 L109.163 181.188 L95.0891 181.188 L95.0891 189.66 Q96.1076 189.312 97.1261 189.15 Q98.1447 188.965 99.1632 188.965 Q104.95 188.965 108.33 192.137 Q111.709 195.308 111.709 200.724 Q111.709 206.303 108.237 209.405 Q104.765 212.484 98.4456 212.484 Q96.2697 212.484 94.0012 212.113 Q91.7558 211.743 89.3484 211.002 L89.3484 206.303 Q91.4317 207.437 93.6539 207.993 Q95.8761 208.549 98.353 208.549 Q102.358 208.549 104.696 206.442 Q107.033 204.336 107.033 200.724 Q107.033 197.113 104.696 195.007 Q102.358 192.9 98.353 192.9 Q96.478 192.9 94.603 193.317 Q92.7512 193.734 90.8067 194.613 L90.8067 177.252 Z" fill="#000000" fill-rule="evenodd" fill-opacity="1" /><path clip-path="url(#clip480)" d="M120.922 205.933 L125.807 205.933 L125.807 211.812 L120.922 211.812 L120.922 205.933 Z" fill="#000000" fill-rule="evenodd" fill-opacity="1" /><path clip-path="url(#clip480)" d="M145.992 180.331 Q142.381 180.331 140.552 183.896 Q138.746 187.438 138.746 194.567 Q138.746 201.674 140.552 205.238 Q142.381 208.78 145.992 208.78 Q149.626 208.78 151.431 205.238 Q153.26 201.674 153.26 194.567 Q153.26 187.438 151.431 183.896 Q149.626 180.331 145.992 180.331 M145.992 176.627 Q151.802 176.627 154.857 181.234 Q157.936 185.817 157.936 194.567 Q157.936 203.294 154.857 207.9 Q151.802 212.484 145.992 212.484 Q140.181 212.484 137.103 207.9 Q134.047 203.294 134.047 194.567 Q134.047 185.817 137.103 181.234 Q140.181 176.627 145.992 176.627 Z" fill="#000000" fill-rule="evenodd" fill-opacity="1" /><polyline clip-path="url(#clip482)" style="stroke:#009af9; stroke-linecap:round; stroke-linejoin:round; stroke-width:4; stroke-opacity:1; fill:none" points="
  255.035,681.057 295.767,677.839 336.5,668.512 377.232,654 417.964,635.738 458.697,615.52 499.429,595.358 540.162,577.262 580.894,563.029 621.627,554.07 
  662.359,551.275 703.092,554.922 743.824,564.649 784.557,579.492 825.289,597.977 866.021,618.272 906.754,638.361 947.486,656.251 988.219,670.167 1028.95,678.727 
  1069.68,681.08 1110.42,676.994 1151.15,666.873 1191.88,651.721 1232.61,633.041 1273.35,612.688 1314.08,592.679 1354.81,575.003 1395.54,561.411 1436.28,553.256 
  1477.01,551.344 1517.74,555.868 1558.47,566.379 1599.21,581.833 1639.94,600.699 1680.67,621.102 1721.4,641.02 1762.14,658.474 1802.87,671.734 1843.6,679.482 
  1884.33,680.949 1925.07,675.989 1965.8,665.094 2006.53,649.344 2047.26,630.303 2087.99,609.859 2128.73,590.041 2169.46,572.817 2210.19,559.895 2250.92,552.559 
  2291.66,551.538 
  "/>
<polyline clip-path="url(#clip482)" style="stroke:#e26f46; stroke-linecap:round; stroke-linejoin:round; stroke-width:4; stroke-opacity:1; fill:none" points="
  255.035,735.116 295.767,671.329 336.5,613.85 377.232,568.379 417.964,539.406 458.697,529.849 499.429,540.684 540.162,570.819 580.894,617.258 621.627,675.399 
  662.359,739.469 703.092,803.115 743.824,860.014 784.557,904.526 825.289,932.226 866.021,940.368 906.754,928.141 947.486,896.756 988.219,849.327 1028.95,790.56 
  1069.68,726.286 1110.42,662.882 1151.15,606.643 1191.88,563.148 1232.61,536.717 1273.35,529.973 1314.08,543.588 1354.81,576.21 1395.54,624.607 1436.28,683.972 
  1477.01,748.422 1517.74,811.552 1558.47,867.105 1599.21,909.56 1639.94,934.709 1680.67,940.05 1721.4,925.055 1762.14,891.208 1802.87,841.866 1843.6,781.928 
  1884.33,717.337 1925.07,654.508 1965.8,599.671 2006.53,558.273 2047.26,534.421 2087.99,530.486 2128.73,546.857 2169.46,581.914 2210.19,632.177 2250.92,692.66 
  2291.66,757.361 
  "/>
<polyline clip-path="url(#clip482)" style="stroke:#3da44d; stroke-linecap:round; stroke-linejoin:round; stroke-width:4; stroke-opacity:1; fill:none" points="
  255.035,86.4157 295.767,118.604 336.5,211.867 377.232,356.984 417.964,539.613 458.697,741.794 499.429,943.407 540.162,1124.37 580.894,1266.7 621.627,1356.29 
  662.359,1384.24 703.092,1347.77 743.824,1250.5 784.557,1102.07 825.289,917.216 866.021,714.268 906.754,513.38 947.486,334.475 988.219,195.321 1028.95,109.723 
  1069.68,86.1857 1110.42,127.047 1151.15,228.258 1191.88,379.778 1232.61,566.577 1273.35,770.113 1314.08,970.198 1354.81,1146.96 1395.54,1282.88 1436.28,1364.43 
  1477.01,1383.54 1517.74,1338.3 1558.47,1233.2 1599.21,1078.66 1639.94,890.002 1680.67,685.97 1721.4,486.788 1762.14,312.246 1802.87,179.646 1843.6,102.17 
  1884.33,87.4974 1925.07,137.097 1965.8,246.05 2006.53,403.546 2047.26,593.963 2087.99,798.401 2128.73,996.577 2169.46,1168.82 2210.19,1298.03 2250.92,1371.39 
  2291.66,1381.61 
  "/>
<path clip-path="url(#clip480)" d="
M1581.03 300.469 L2280.8 300.469 L2280.8 93.1086 L1581.03 93.1086  Z
  " fill="#ffffff" fill-rule="evenodd" fill-opacity="1"/>
<polyline clip-path="url(#clip480)" style="stroke:#000000; stroke-linecap:round; stroke-linejoin:round; stroke-width:4; stroke-opacity:1; fill:none" points="
  1581.03,300.469 2280.8,300.469 2280.8,93.1086 1581.03,93.1086 1581.03,300.469 
  "/>
<polyline clip-path="url(#clip480)" style="stroke:#009af9; stroke-linecap:round; stroke-linejoin:round; stroke-width:4; stroke-opacity:1; fill:none" points="
  1605.01,144.949 1748.94,144.949 
  "/>
<path clip-path="url(#clip480)" d="M1793.27 141.28 Q1794.87 138.409 1797.09 137.044 Q1799.31 135.678 1802.32 135.678 Q1806.37 135.678 1808.57 138.525 Q1810.77 141.349 1810.77 146.581 L1810.77 162.229 L1806.49 162.229 L1806.49 146.719 Q1806.49 142.993 1805.17 141.187 Q1803.85 139.382 1801.14 139.382 Q1797.83 139.382 1795.91 141.581 Q1793.99 143.78 1793.99 147.576 L1793.99 162.229 L1789.7 162.229 L1789.7 146.719 Q1789.7 142.969 1788.38 141.187 Q1787.07 139.382 1784.31 139.382 Q1781.05 139.382 1779.13 141.604 Q1777.2 143.803 1777.2 147.576 L1777.2 162.229 L1772.92 162.229 L1772.92 136.303 L1777.2 136.303 L1777.2 140.331 Q1778.66 137.946 1780.7 136.812 Q1782.74 135.678 1785.54 135.678 Q1788.36 135.678 1790.33 137.113 Q1792.32 138.548 1793.27 141.28 Z" fill="#000000" fill-rule="evenodd" fill-opacity="1" /><path clip-path="url(#clip480)" d="M1831.05 149.196 Q1825.88 149.196 1823.89 150.377 Q1821.9 151.557 1821.9 154.405 Q1821.9 156.673 1823.38 158.016 Q1824.89 159.335 1827.46 159.335 Q1831 159.335 1833.13 156.835 Q1835.28 154.312 1835.28 150.145 L1835.28 149.196 L1831.05 149.196 M1839.54 147.437 L1839.54 162.229 L1835.28 162.229 L1835.28 158.293 Q1833.82 160.655 1831.65 161.789 Q1829.47 162.9 1826.32 162.9 Q1822.34 162.9 1819.98 160.678 Q1817.64 158.432 1817.64 154.682 Q1817.64 150.307 1820.56 148.085 Q1823.5 145.863 1829.31 145.863 L1835.28 145.863 L1835.28 145.446 Q1835.28 142.507 1833.34 140.909 Q1831.42 139.289 1827.92 139.289 Q1825.7 139.289 1823.59 139.821 Q1821.49 140.354 1819.54 141.419 L1819.54 137.483 Q1821.88 136.581 1824.08 136.141 Q1826.28 135.678 1828.36 135.678 Q1833.99 135.678 1836.76 138.594 Q1839.54 141.511 1839.54 147.437 Z" fill="#000000" fill-rule="evenodd" fill-opacity="1" /><path clip-path="url(#clip480)" d="M1864.84 137.067 L1864.84 141.094 Q1863.04 140.169 1861.09 139.706 Q1859.15 139.243 1857.07 139.243 Q1853.89 139.243 1852.3 140.215 Q1850.72 141.187 1850.72 143.131 Q1850.72 144.613 1851.86 145.469 Q1852.99 146.303 1856.42 147.067 L1857.88 147.391 Q1862.41 148.363 1864.31 150.145 Q1866.23 151.905 1866.23 155.076 Q1866.23 158.687 1863.36 160.793 Q1860.51 162.9 1855.51 162.9 Q1853.43 162.9 1851.16 162.483 Q1848.92 162.09 1846.42 161.28 L1846.42 156.881 Q1848.78 158.108 1851.07 158.733 Q1853.36 159.335 1855.61 159.335 Q1858.62 159.335 1860.24 158.317 Q1861.86 157.275 1861.86 155.4 Q1861.86 153.664 1860.68 152.738 Q1859.52 151.812 1855.56 150.956 L1854.08 150.608 Q1850.12 149.775 1848.36 148.062 Q1846.6 146.326 1846.6 143.317 Q1846.6 139.659 1849.19 137.669 Q1851.79 135.678 1856.56 135.678 Q1858.92 135.678 1861 136.025 Q1863.08 136.372 1864.84 137.067 Z" fill="#000000" fill-rule="evenodd" fill-opacity="1" /><path clip-path="url(#clip480)" d="M1889.54 137.067 L1889.54 141.094 Q1887.74 140.169 1885.79 139.706 Q1883.85 139.243 1881.76 139.243 Q1878.59 139.243 1877 140.215 Q1875.42 141.187 1875.42 143.131 Q1875.42 144.613 1876.56 145.469 Q1877.69 146.303 1881.12 147.067 L1882.57 147.391 Q1887.11 148.363 1889.01 150.145 Q1890.93 151.905 1890.93 155.076 Q1890.93 158.687 1888.06 160.793 Q1885.21 162.9 1880.21 162.9 Q1878.13 162.9 1875.86 162.483 Q1873.62 162.09 1871.12 161.28 L1871.12 156.881 Q1873.48 158.108 1875.77 158.733 Q1878.06 159.335 1880.31 159.335 Q1883.31 159.335 1884.94 158.317 Q1886.56 157.275 1886.56 155.4 Q1886.56 153.664 1885.38 152.738 Q1884.22 151.812 1880.26 150.956 L1878.78 150.608 Q1874.82 149.775 1873.06 148.062 Q1871.3 146.326 1871.3 143.317 Q1871.3 139.659 1873.89 137.669 Q1876.49 135.678 1881.25 135.678 Q1883.62 135.678 1885.7 136.025 Q1887.78 136.372 1889.54 137.067 Z" fill="#000000" fill-rule="evenodd" fill-opacity="1" /><path clip-path="url(#clip480)" d="M1898.31 156.349 L1903.2 156.349 L1903.2 162.229 L1898.31 162.229 L1898.31 156.349 Z" fill="#000000" fill-rule="evenodd" fill-opacity="1" /><path clip-path="url(#clip480)" d="M1929.31 137.067 L1929.31 141.094 Q1927.5 140.169 1925.56 139.706 Q1923.62 139.243 1921.53 139.243 Q1918.36 139.243 1916.76 140.215 Q1915.19 141.187 1915.19 143.131 Q1915.19 144.613 1916.32 145.469 Q1917.46 146.303 1920.88 147.067 L1922.34 147.391 Q1926.88 148.363 1928.78 150.145 Q1930.7 151.905 1930.7 155.076 Q1930.7 158.687 1927.83 160.793 Q1924.98 162.9 1919.98 162.9 Q1917.9 162.9 1915.63 162.483 Q1913.38 162.09 1910.88 161.28 L1910.88 156.881 Q1913.25 158.108 1915.54 158.733 Q1917.83 159.335 1920.07 159.335 Q1923.08 159.335 1924.7 158.317 Q1926.32 157.275 1926.32 155.4 Q1926.32 153.664 1925.14 152.738 Q1923.99 151.812 1920.03 150.956 L1918.55 150.608 Q1914.59 149.775 1912.83 148.062 Q1911.07 146.326 1911.07 143.317 Q1911.07 139.659 1913.66 137.669 Q1916.25 135.678 1921.02 135.678 Q1923.38 135.678 1925.47 136.025 Q1927.55 136.372 1929.31 137.067 Z" fill="#000000" fill-rule="evenodd" fill-opacity="1" /><path clip-path="url(#clip480)" d="M1962.78 126.257 Q1959.68 131.581 1958.18 136.789 Q1956.67 141.997 1956.67 147.344 Q1956.67 152.692 1958.18 157.946 Q1959.7 163.178 1962.78 168.479 L1959.08 168.479 Q1955.61 163.039 1953.87 157.784 Q1952.16 152.53 1952.16 147.344 Q1952.16 142.182 1953.87 136.951 Q1955.58 131.72 1959.08 126.257 L1962.78 126.257 Z" fill="#000000" fill-rule="evenodd" fill-opacity="1" /><path clip-path="url(#clip480)" d="M1985.81 143.594 Q1989.17 144.312 1991.05 146.581 Q1992.94 148.849 1992.94 152.182 Q1992.94 157.298 1989.43 160.099 Q1985.91 162.9 1979.43 162.9 Q1977.25 162.9 1974.93 162.46 Q1972.64 162.043 1970.19 161.187 L1970.19 156.673 Q1972.13 157.807 1974.45 158.386 Q1976.76 158.965 1979.29 158.965 Q1983.68 158.965 1985.98 157.229 Q1988.29 155.493 1988.29 152.182 Q1988.29 149.127 1986.14 147.414 Q1984.01 145.678 1980.19 145.678 L1976.16 145.678 L1976.16 141.835 L1980.37 141.835 Q1983.82 141.835 1985.65 140.469 Q1987.48 139.081 1987.48 136.488 Q1987.48 133.826 1985.58 132.414 Q1983.71 130.979 1980.19 130.979 Q1978.27 130.979 1976.07 131.395 Q1973.87 131.812 1971.23 132.692 L1971.23 128.525 Q1973.89 127.784 1976.21 127.414 Q1978.55 127.044 1980.61 127.044 Q1985.93 127.044 1989.03 129.474 Q1992.13 131.882 1992.13 136.002 Q1992.13 138.872 1990.49 140.863 Q1988.85 142.831 1985.81 143.594 Z" fill="#000000" fill-rule="evenodd" fill-opacity="1" /><path clip-path="url(#clip480)" d="M2015.98 143.594 Q2019.33 144.312 2021.21 146.581 Q2023.11 148.849 2023.11 152.182 Q2023.11 157.298 2019.59 160.099 Q2016.07 162.9 2009.59 162.9 Q2007.41 162.9 2005.1 162.46 Q2002.81 162.043 2000.35 161.187 L2000.35 156.673 Q2002.3 157.807 2004.61 158.386 Q2006.93 158.965 2009.45 158.965 Q2013.85 158.965 2016.14 157.229 Q2018.45 155.493 2018.45 152.182 Q2018.45 149.127 2016.3 147.414 Q2014.17 145.678 2010.35 145.678 L2006.32 145.678 L2006.32 141.835 L2010.54 141.835 Q2013.99 141.835 2015.81 140.469 Q2017.64 139.081 2017.64 136.488 Q2017.64 133.826 2015.74 132.414 Q2013.87 130.979 2010.35 130.979 Q2008.43 130.979 2006.23 131.395 Q2004.03 131.812 2001.39 132.692 L2001.39 128.525 Q2004.06 127.784 2006.37 127.414 Q2008.71 127.044 2010.77 127.044 Q2016.09 127.044 2019.19 129.474 Q2022.3 131.882 2022.3 136.002 Q2022.3 138.872 2020.65 140.863 Q2019.01 142.831 2015.98 143.594 Z" fill="#000000" fill-rule="evenodd" fill-opacity="1" /><path clip-path="url(#clip480)" d="M2032.02 127.669 L2050.37 127.669 L2050.37 131.604 L2036.3 131.604 L2036.3 140.076 Q2037.32 139.729 2038.34 139.567 Q2039.36 139.382 2040.37 139.382 Q2046.16 139.382 2049.54 142.553 Q2052.92 145.724 2052.92 151.141 Q2052.92 156.719 2049.45 159.821 Q2045.98 162.9 2039.66 162.9 Q2037.48 162.9 2035.21 162.53 Q2032.97 162.159 2030.56 161.418 L2030.56 156.719 Q2032.64 157.854 2034.87 158.409 Q2037.09 158.965 2039.56 158.965 Q2043.57 158.965 2045.91 156.858 Q2048.24 154.752 2048.24 151.141 Q2048.24 147.53 2045.91 145.423 Q2043.57 143.317 2039.56 143.317 Q2037.69 143.317 2035.81 143.733 Q2033.96 144.15 2032.02 145.03 L2032.02 127.669 Z" fill="#000000" fill-rule="evenodd" fill-opacity="1" /><path clip-path="url(#clip480)" d="M2062.18 127.669 L2080.54 127.669 L2080.54 131.604 L2066.46 131.604 L2066.46 140.076 Q2067.48 139.729 2068.5 139.567 Q2069.52 139.382 2070.54 139.382 Q2076.32 139.382 2079.7 142.553 Q2083.08 145.724 2083.08 151.141 Q2083.08 156.719 2079.61 159.821 Q2076.14 162.9 2069.82 162.9 Q2067.64 162.9 2065.37 162.53 Q2063.13 162.159 2060.72 161.418 L2060.72 156.719 Q2062.8 157.854 2065.03 158.409 Q2067.25 158.965 2069.73 158.965 Q2073.73 158.965 2076.07 156.858 Q2078.41 154.752 2078.41 151.141 Q2078.41 147.53 2076.07 145.423 Q2073.73 143.317 2069.73 143.317 Q2067.85 143.317 2065.98 143.733 Q2064.12 144.15 2062.18 145.03 L2062.18 127.669 Z" fill="#000000" fill-rule="evenodd" fill-opacity="1" /><path clip-path="url(#clip480)" d="M2105.14 131.743 L2093.34 150.192 L2105.14 150.192 L2105.14 131.743 M2103.92 127.669 L2109.8 127.669 L2109.8 150.192 L2114.73 150.192 L2114.73 154.081 L2109.8 154.081 L2109.8 162.229 L2105.14 162.229 L2105.14 154.081 L2089.54 154.081 L2089.54 149.567 L2103.92 127.669 Z" fill="#000000" fill-rule="evenodd" fill-opacity="1" /><path clip-path="url(#clip480)" d="M2135.3 131.743 L2123.5 150.192 L2135.3 150.192 L2135.3 131.743 M2134.08 127.669 L2139.96 127.669 L2139.96 150.192 L2144.89 150.192 L2144.89 154.081 L2139.96 154.081 L2139.96 162.229 L2135.3 162.229 L2135.3 154.081 L2119.7 154.081 L2119.7 149.567 L2134.08 127.669 Z" fill="#000000" fill-rule="evenodd" fill-opacity="1" /><path clip-path="url(#clip480)" d="M2166.79 143.594 Q2170.14 144.312 2172.02 146.581 Q2173.92 148.849 2173.92 152.182 Q2173.92 157.298 2170.4 160.099 Q2166.88 162.9 2160.4 162.9 Q2158.22 162.9 2155.91 162.46 Q2153.61 162.043 2151.16 161.187 L2151.16 156.673 Q2153.11 157.807 2155.42 158.386 Q2157.73 158.965 2160.26 158.965 Q2164.66 158.965 2166.95 157.229 Q2169.26 155.493 2169.26 152.182 Q2169.26 149.127 2167.11 147.414 Q2164.98 145.678 2161.16 145.678 L2157.13 145.678 L2157.13 141.835 L2161.35 141.835 Q2164.79 141.835 2166.62 140.469 Q2168.45 139.081 2168.45 136.488 Q2168.45 133.826 2166.55 132.414 Q2164.68 130.979 2161.16 130.979 Q2159.24 130.979 2157.04 131.395 Q2154.84 131.812 2152.2 132.692 L2152.2 128.525 Q2154.86 127.784 2157.18 127.414 Q2159.52 127.044 2161.58 127.044 Q2166.9 127.044 2170 129.474 Q2173.11 131.882 2173.11 136.002 Q2173.11 138.872 2171.46 140.863 Q2169.82 142.831 2166.79 143.594 Z" fill="#000000" fill-rule="evenodd" fill-opacity="1" /><path clip-path="url(#clip480)" d="M2186.81 158.293 L2203.13 158.293 L2203.13 162.229 L2181.18 162.229 L2181.18 158.293 Q2183.85 155.539 2188.43 150.909 Q2193.04 146.256 2194.22 144.914 Q2196.46 142.391 2197.34 140.655 Q2198.24 138.895 2198.24 137.206 Q2198.24 134.451 2196.3 132.715 Q2194.38 130.979 2191.28 130.979 Q2189.08 130.979 2186.62 131.743 Q2184.19 132.507 2181.42 134.057 L2181.42 129.335 Q2184.24 128.201 2186.69 127.622 Q2189.15 127.044 2191.18 127.044 Q2196.55 127.044 2199.75 129.729 Q2202.94 132.414 2202.94 136.905 Q2202.94 139.034 2202.13 140.956 Q2201.35 142.854 2199.24 145.446 Q2198.66 146.118 2195.56 149.335 Q2192.46 152.53 2186.81 158.293 Z" fill="#000000" fill-rule="evenodd" fill-opacity="1" /><path clip-path="url(#clip480)" d="M2211.67 126.257 L2215.37 126.257 Q2218.85 131.72 2220.56 136.951 Q2222.29 142.182 2222.29 147.344 Q2222.29 152.53 2220.56 157.784 Q2218.85 163.039 2215.37 168.479 L2211.67 168.479 Q2214.75 163.178 2216.25 157.946 Q2217.78 152.692 2217.78 147.344 Q2217.78 141.997 2216.25 136.789 Q2214.75 131.581 2211.67 126.257 Z" fill="#000000" fill-rule="evenodd" fill-opacity="1" /><polyline clip-path="url(#clip480)" style="stroke:#e26f46; stroke-linecap:round; stroke-linejoin:round; stroke-width:4; stroke-opacity:1; fill:none" points="
  1605.01,196.789 1748.94,196.789 
  "/>
<path clip-path="url(#clip480)" d="M1793.27 193.12 Q1794.87 190.249 1797.09 188.884 Q1799.31 187.518 1802.32 187.518 Q1806.37 187.518 1808.57 190.365 Q1810.77 193.189 1810.77 198.421 L1810.77 214.069 L1806.49 214.069 L1806.49 198.559 Q1806.49 194.833 1805.17 193.027 Q1803.85 191.222 1801.14 191.222 Q1797.83 191.222 1795.91 193.421 Q1793.99 195.62 1793.99 199.416 L1793.99 214.069 L1789.7 214.069 L1789.7 198.559 Q1789.7 194.809 1788.38 193.027 Q1787.07 191.222 1784.31 191.222 Q1781.05 191.222 1779.13 193.444 Q1777.2 195.643 1777.2 199.416 L1777.2 214.069 L1772.92 214.069 L1772.92 188.143 L1777.2 188.143 L1777.2 192.171 Q1778.66 189.786 1780.7 188.652 Q1782.74 187.518 1785.54 187.518 Q1788.36 187.518 1790.33 188.953 Q1792.32 190.388 1793.27 193.12 Z" fill="#000000" fill-rule="evenodd" fill-opacity="1" /><path clip-path="url(#clip480)" d="M1831.05 201.036 Q1825.88 201.036 1823.89 202.217 Q1821.9 203.397 1821.9 206.245 Q1821.9 208.513 1823.38 209.856 Q1824.89 211.175 1827.46 211.175 Q1831 211.175 1833.13 208.675 Q1835.28 206.152 1835.28 201.985 L1835.28 201.036 L1831.05 201.036 M1839.54 199.277 L1839.54 214.069 L1835.28 214.069 L1835.28 210.133 Q1833.82 212.495 1831.65 213.629 Q1829.47 214.74 1826.32 214.74 Q1822.34 214.74 1819.98 212.518 Q1817.64 210.272 1817.64 206.522 Q1817.64 202.147 1820.56 199.925 Q1823.5 197.703 1829.31 197.703 L1835.28 197.703 L1835.28 197.286 Q1835.28 194.347 1833.34 192.749 Q1831.42 191.129 1827.92 191.129 Q1825.7 191.129 1823.59 191.661 Q1821.49 192.194 1819.54 193.259 L1819.54 189.323 Q1821.88 188.421 1824.08 187.981 Q1826.28 187.518 1828.36 187.518 Q1833.99 187.518 1836.76 190.434 Q1839.54 193.351 1839.54 199.277 Z" fill="#000000" fill-rule="evenodd" fill-opacity="1" /><path clip-path="url(#clip480)" d="M1864.84 188.907 L1864.84 192.934 Q1863.04 192.009 1861.09 191.546 Q1859.15 191.083 1857.07 191.083 Q1853.89 191.083 1852.3 192.055 Q1850.72 193.027 1850.72 194.971 Q1850.72 196.453 1851.86 197.309 Q1852.99 198.143 1856.42 198.907 L1857.88 199.231 Q1862.41 200.203 1864.31 201.985 Q1866.23 203.745 1866.23 206.916 Q1866.23 210.527 1863.36 212.633 Q1860.51 214.74 1855.51 214.74 Q1853.43 214.74 1851.16 214.323 Q1848.92 213.93 1846.42 213.12 L1846.42 208.721 Q1848.78 209.948 1851.07 210.573 Q1853.36 211.175 1855.61 211.175 Q1858.62 211.175 1860.24 210.157 Q1861.86 209.115 1861.86 207.24 Q1861.86 205.504 1860.68 204.578 Q1859.52 203.652 1855.56 202.796 L1854.08 202.448 Q1850.12 201.615 1848.36 199.902 Q1846.6 198.166 1846.6 195.157 Q1846.6 191.499 1849.19 189.509 Q1851.79 187.518 1856.56 187.518 Q1858.92 187.518 1861 187.865 Q1863.08 188.212 1864.84 188.907 Z" fill="#000000" fill-rule="evenodd" fill-opacity="1" /><path clip-path="url(#clip480)" d="M1889.54 188.907 L1889.54 192.934 Q1887.74 192.009 1885.79 191.546 Q1883.85 191.083 1881.76 191.083 Q1878.59 191.083 1877 192.055 Q1875.42 193.027 1875.42 194.971 Q1875.42 196.453 1876.56 197.309 Q1877.69 198.143 1881.12 198.907 L1882.57 199.231 Q1887.11 200.203 1889.01 201.985 Q1890.93 203.745 1890.93 206.916 Q1890.93 210.527 1888.06 212.633 Q1885.21 214.74 1880.21 214.74 Q1878.13 214.74 1875.86 214.323 Q1873.62 213.93 1871.12 213.12 L1871.12 208.721 Q1873.48 209.948 1875.77 210.573 Q1878.06 211.175 1880.31 211.175 Q1883.31 211.175 1884.94 210.157 Q1886.56 209.115 1886.56 207.24 Q1886.56 205.504 1885.38 204.578 Q1884.22 203.652 1880.26 202.796 L1878.78 202.448 Q1874.82 201.615 1873.06 199.902 Q1871.3 198.166 1871.3 195.157 Q1871.3 191.499 1873.89 189.509 Q1876.49 187.518 1881.25 187.518 Q1883.62 187.518 1885.7 187.865 Q1887.78 188.212 1889.54 188.907 Z" fill="#000000" fill-rule="evenodd" fill-opacity="1" /><path clip-path="url(#clip480)" d="M1898.31 208.189 L1903.2 208.189 L1903.2 214.069 L1898.31 214.069 L1898.31 208.189 Z" fill="#000000" fill-rule="evenodd" fill-opacity="1" /><path clip-path="url(#clip480)" d="M1909.73 188.143 L1914.24 188.143 L1922.34 209.902 L1930.44 188.143 L1934.96 188.143 L1925.24 214.069 L1919.45 214.069 L1909.73 188.143 Z" fill="#000000" fill-rule="evenodd" fill-opacity="1" /><path clip-path="url(#clip480)" d="M1966.14 178.097 Q1963.04 183.421 1961.53 188.629 Q1960.03 193.837 1960.03 199.184 Q1960.03 204.532 1961.53 209.786 Q1963.06 215.018 1966.14 220.319 L1962.43 220.319 Q1958.96 214.879 1957.23 209.624 Q1955.51 204.37 1955.51 199.184 Q1955.51 194.022 1957.23 188.791 Q1958.94 183.56 1962.43 178.097 L1966.14 178.097 Z" fill="#000000" fill-rule="evenodd" fill-opacity="1" /><path clip-path="url(#clip480)" d="M1989.17 195.434 Q1992.53 196.152 1994.4 198.421 Q1996.3 200.689 1996.3 204.022 Q1996.3 209.138 1992.78 211.939 Q1989.26 214.74 1982.78 214.74 Q1980.61 214.74 1978.29 214.3 Q1976 213.883 1973.55 213.027 L1973.55 208.513 Q1975.49 209.647 1977.81 210.226 Q1980.12 210.805 1982.64 210.805 Q1987.04 210.805 1989.33 209.069 Q1991.65 207.333 1991.65 204.022 Q1991.65 200.967 1989.49 199.254 Q1987.37 197.518 1983.55 197.518 L1979.52 197.518 L1979.52 193.675 L1983.73 193.675 Q1987.18 193.675 1989.01 192.309 Q1990.84 190.921 1990.84 188.328 Q1990.84 185.666 1988.94 184.254 Q1987.06 182.819 1983.55 182.819 Q1981.62 182.819 1979.43 183.235 Q1977.23 183.652 1974.59 184.532 L1974.59 180.365 Q1977.25 179.624 1979.56 179.254 Q1981.9 178.884 1983.96 178.884 Q1989.29 178.884 1992.39 181.314 Q1995.49 183.722 1995.49 187.842 Q1995.49 190.712 1993.85 192.703 Q1992.2 194.671 1989.17 195.434 Z" fill="#000000" fill-rule="evenodd" fill-opacity="1" /><path clip-path="url(#clip480)" d="M2019.33 195.434 Q2022.69 196.152 2024.56 198.421 Q2026.46 200.689 2026.46 204.022 Q2026.46 209.138 2022.94 211.939 Q2019.43 214.74 2012.94 214.74 Q2010.77 214.74 2008.45 214.3 Q2006.16 213.883 2003.71 213.027 L2003.71 208.513 Q2005.65 209.647 2007.97 210.226 Q2010.28 210.805 2012.81 210.805 Q2017.2 210.805 2019.49 209.069 Q2021.81 207.333 2021.81 204.022 Q2021.81 200.967 2019.66 199.254 Q2017.53 197.518 2013.71 197.518 L2009.68 197.518 L2009.68 193.675 L2013.89 193.675 Q2017.34 193.675 2019.17 192.309 Q2021 190.921 2021 188.328 Q2021 185.666 2019.1 184.254 Q2017.23 182.819 2013.71 182.819 Q2011.79 182.819 2009.59 183.235 Q2007.39 183.652 2004.75 184.532 L2004.75 180.365 Q2007.41 179.624 2009.73 179.254 Q2012.06 178.884 2014.12 178.884 Q2019.45 178.884 2022.55 181.314 Q2025.65 183.722 2025.65 187.842 Q2025.65 190.712 2024.01 192.703 Q2022.37 194.671 2019.33 195.434 Z" fill="#000000" fill-rule="evenodd" fill-opacity="1" /><path clip-path="url(#clip480)" d="M2035.37 179.509 L2053.73 179.509 L2053.73 183.444 L2039.66 183.444 L2039.66 191.916 Q2040.68 191.569 2041.69 191.407 Q2042.71 191.222 2043.73 191.222 Q2049.52 191.222 2052.9 194.393 Q2056.28 197.564 2056.28 202.981 Q2056.28 208.559 2052.8 211.661 Q2049.33 214.74 2043.01 214.74 Q2040.84 214.74 2038.57 214.37 Q2036.32 213.999 2033.92 213.258 L2033.92 208.559 Q2036 209.694 2038.22 210.249 Q2040.44 210.805 2042.92 210.805 Q2046.93 210.805 2049.26 208.698 Q2051.6 206.592 2051.6 202.981 Q2051.6 199.37 2049.26 197.263 Q2046.93 195.157 2042.92 195.157 Q2041.05 195.157 2039.17 195.573 Q2037.32 195.99 2035.37 196.87 L2035.37 179.509 Z" fill="#000000" fill-rule="evenodd" fill-opacity="1" /><path clip-path="url(#clip480)" d="M2065.54 179.509 L2083.89 179.509 L2083.89 183.444 L2069.82 183.444 L2069.82 191.916 Q2070.84 191.569 2071.86 191.407 Q2072.87 191.222 2073.89 191.222 Q2079.68 191.222 2083.06 194.393 Q2086.44 197.564 2086.44 202.981 Q2086.44 208.559 2082.97 211.661 Q2079.49 214.74 2073.18 214.74 Q2071 214.74 2068.73 214.37 Q2066.49 213.999 2064.08 213.258 L2064.08 208.559 Q2066.16 209.694 2068.38 210.249 Q2070.61 210.805 2073.08 210.805 Q2077.09 210.805 2079.43 208.698 Q2081.76 206.592 2081.76 202.981 Q2081.76 199.37 2079.43 197.263 Q2077.09 195.157 2073.08 195.157 Q2071.21 195.157 2069.33 195.573 Q2067.48 195.99 2065.54 196.87 L2065.54 179.509 Z" fill="#000000" fill-rule="evenodd" fill-opacity="1" /><path clip-path="url(#clip480)" d="M2108.5 183.583 L2096.69 202.032 L2108.5 202.032 L2108.5 183.583 M2107.27 179.509 L2113.15 179.509 L2113.15 202.032 L2118.08 202.032 L2118.08 205.921 L2113.15 205.921 L2113.15 214.069 L2108.5 214.069 L2108.5 205.921 L2092.9 205.921 L2092.9 201.407 L2107.27 179.509 Z" fill="#000000" fill-rule="evenodd" fill-opacity="1" /><path clip-path="url(#clip480)" d="M2138.66 183.583 L2126.86 202.032 L2138.66 202.032 L2138.66 183.583 M2137.43 179.509 L2143.31 179.509 L2143.31 202.032 L2148.24 202.032 L2148.24 205.921 L2143.31 205.921 L2143.31 214.069 L2138.66 214.069 L2138.66 205.921 L2123.06 205.921 L2123.06 201.407 L2137.43 179.509 Z" fill="#000000" fill-rule="evenodd" fill-opacity="1" /><path clip-path="url(#clip480)" d="M2170.14 195.434 Q2173.5 196.152 2175.37 198.421 Q2177.27 200.689 2177.27 204.022 Q2177.27 209.138 2173.75 211.939 Q2170.23 214.74 2163.75 214.74 Q2161.58 214.74 2159.26 214.3 Q2156.97 213.883 2154.52 213.027 L2154.52 208.513 Q2156.46 209.647 2158.78 210.226 Q2161.09 210.805 2163.61 210.805 Q2168.01 210.805 2170.3 209.069 Q2172.62 207.333 2172.62 204.022 Q2172.62 200.967 2170.47 199.254 Q2168.34 197.518 2164.52 197.518 L2160.49 197.518 L2160.49 193.675 L2164.7 193.675 Q2168.15 193.675 2169.98 192.309 Q2171.81 190.921 2171.81 188.328 Q2171.81 185.666 2169.91 184.254 Q2168.04 182.819 2164.52 182.819 Q2162.6 182.819 2160.4 183.235 Q2158.2 183.652 2155.56 184.532 L2155.56 180.365 Q2158.22 179.624 2160.54 179.254 Q2162.87 178.884 2164.93 178.884 Q2170.26 178.884 2173.36 181.314 Q2176.46 183.722 2176.46 187.842 Q2176.46 190.712 2174.82 192.703 Q2173.17 194.671 2170.14 195.434 Z" fill="#000000" fill-rule="evenodd" fill-opacity="1" /><path clip-path="url(#clip480)" d="M2200.3 195.434 Q2203.66 196.152 2205.54 198.421 Q2207.43 200.689 2207.43 204.022 Q2207.43 209.138 2203.92 211.939 Q2200.4 214.74 2193.92 214.74 Q2191.74 214.74 2189.42 214.3 Q2187.13 213.883 2184.68 213.027 L2184.68 208.513 Q2186.62 209.647 2188.94 210.226 Q2191.25 210.805 2193.78 210.805 Q2198.17 210.805 2200.47 209.069 Q2202.78 207.333 2202.78 204.022 Q2202.78 200.967 2200.63 199.254 Q2198.5 197.518 2194.68 197.518 L2190.65 197.518 L2190.65 193.675 L2194.86 193.675 Q2198.31 193.675 2200.14 192.309 Q2201.97 190.921 2201.97 188.328 Q2201.97 185.666 2200.07 184.254 Q2198.2 182.819 2194.68 182.819 Q2192.76 182.819 2190.56 183.235 Q2188.36 183.652 2185.72 184.532 L2185.72 180.365 Q2188.38 179.624 2190.7 179.254 Q2193.04 178.884 2195.1 178.884 Q2200.42 178.884 2203.52 181.314 Q2206.62 183.722 2206.62 187.842 Q2206.62 190.712 2204.98 192.703 Q2203.34 194.671 2200.3 195.434 Z" fill="#000000" fill-rule="evenodd" fill-opacity="1" /><path clip-path="url(#clip480)" d="M2215.03 178.097 L2218.73 178.097 Q2222.2 183.56 2223.92 188.791 Q2225.65 194.022 2225.65 199.184 Q2225.65 204.37 2223.92 209.624 Q2222.2 214.879 2218.73 220.319 L2215.03 220.319 Q2218.1 215.018 2219.61 209.786 Q2221.14 204.532 2221.14 199.184 Q2221.14 193.837 2219.61 188.629 Q2218.1 183.421 2215.03 178.097 Z" fill="#000000" fill-rule="evenodd" fill-opacity="1" /><polyline clip-path="url(#clip480)" style="stroke:#3da44d; stroke-linecap:round; stroke-linejoin:round; stroke-width:4; stroke-opacity:1; fill:none" points="
  1605.01,248.629 1748.94,248.629 
  "/>
<path clip-path="url(#clip480)" d="M1793.27 244.96 Q1794.87 242.089 1797.09 240.724 Q1799.31 239.358 1802.32 239.358 Q1806.37 239.358 1808.57 242.205 Q1810.77 245.029 1810.77 250.261 L1810.77 265.909 L1806.49 265.909 L1806.49 250.399 Q1806.49 246.673 1805.17 244.867 Q1803.85 243.062 1801.14 243.062 Q1797.83 243.062 1795.91 245.261 Q1793.99 247.46 1793.99 251.256 L1793.99 265.909 L1789.7 265.909 L1789.7 250.399 Q1789.7 246.649 1788.38 244.867 Q1787.07 243.062 1784.31 243.062 Q1781.05 243.062 1779.13 245.284 Q1777.2 247.483 1777.2 251.256 L1777.2 265.909 L1772.92 265.909 L1772.92 239.983 L1777.2 239.983 L1777.2 244.011 Q1778.66 241.626 1780.7 240.492 Q1782.74 239.358 1785.54 239.358 Q1788.36 239.358 1790.33 240.793 Q1792.32 242.228 1793.27 244.96 Z" fill="#000000" fill-rule="evenodd" fill-opacity="1" /><path clip-path="url(#clip480)" d="M1831.05 252.876 Q1825.88 252.876 1823.89 254.057 Q1821.9 255.237 1821.9 258.085 Q1821.9 260.353 1823.38 261.696 Q1824.89 263.015 1827.46 263.015 Q1831 263.015 1833.13 260.515 Q1835.28 257.992 1835.28 253.825 L1835.28 252.876 L1831.05 252.876 M1839.54 251.117 L1839.54 265.909 L1835.28 265.909 L1835.28 261.973 Q1833.82 264.335 1831.65 265.469 Q1829.47 266.58 1826.32 266.58 Q1822.34 266.58 1819.98 264.358 Q1817.64 262.112 1817.64 258.362 Q1817.64 253.987 1820.56 251.765 Q1823.5 249.543 1829.31 249.543 L1835.28 249.543 L1835.28 249.126 Q1835.28 246.187 1833.34 244.589 Q1831.42 242.969 1827.92 242.969 Q1825.7 242.969 1823.59 243.501 Q1821.49 244.034 1819.54 245.099 L1819.54 241.163 Q1821.88 240.261 1824.08 239.821 Q1826.28 239.358 1828.36 239.358 Q1833.99 239.358 1836.76 242.274 Q1839.54 245.191 1839.54 251.117 Z" fill="#000000" fill-rule="evenodd" fill-opacity="1" /><path clip-path="url(#clip480)" d="M1864.84 240.747 L1864.84 244.774 Q1863.04 243.849 1861.09 243.386 Q1859.15 242.923 1857.07 242.923 Q1853.89 242.923 1852.3 243.895 Q1850.72 244.867 1850.72 246.811 Q1850.72 248.293 1851.86 249.149 Q1852.99 249.983 1856.42 250.747 L1857.88 251.071 Q1862.41 252.043 1864.31 253.825 Q1866.23 255.585 1866.23 258.756 Q1866.23 262.367 1863.36 264.473 Q1860.51 266.58 1855.51 266.58 Q1853.43 266.58 1851.16 266.163 Q1848.92 265.77 1846.42 264.96 L1846.42 260.561 Q1848.78 261.788 1851.07 262.413 Q1853.36 263.015 1855.61 263.015 Q1858.62 263.015 1860.24 261.997 Q1861.86 260.955 1861.86 259.08 Q1861.86 257.344 1860.68 256.418 Q1859.52 255.492 1855.56 254.636 L1854.08 254.288 Q1850.12 253.455 1848.36 251.742 Q1846.6 250.006 1846.6 246.997 Q1846.6 243.339 1849.19 241.349 Q1851.79 239.358 1856.56 239.358 Q1858.92 239.358 1861 239.705 Q1863.08 240.052 1864.84 240.747 Z" fill="#000000" fill-rule="evenodd" fill-opacity="1" /><path clip-path="url(#clip480)" d="M1889.54 240.747 L1889.54 244.774 Q1887.74 243.849 1885.79 243.386 Q1883.85 242.923 1881.76 242.923 Q1878.59 242.923 1877 243.895 Q1875.42 244.867 1875.42 246.811 Q1875.42 248.293 1876.56 249.149 Q1877.69 249.983 1881.12 250.747 L1882.57 251.071 Q1887.11 252.043 1889.01 253.825 Q1890.93 255.585 1890.93 258.756 Q1890.93 262.367 1888.06 264.473 Q1885.21 266.58 1880.21 266.58 Q1878.13 266.58 1875.86 266.163 Q1873.62 265.77 1871.12 264.96 L1871.12 260.561 Q1873.48 261.788 1875.77 262.413 Q1878.06 263.015 1880.31 263.015 Q1883.31 263.015 1884.94 261.997 Q1886.56 260.955 1886.56 259.08 Q1886.56 257.344 1885.38 256.418 Q1884.22 255.492 1880.26 254.636 L1878.78 254.288 Q1874.82 253.455 1873.06 251.742 Q1871.3 250.006 1871.3 246.997 Q1871.3 243.339 1873.89 241.349 Q1876.49 239.358 1881.25 239.358 Q1883.62 239.358 1885.7 239.705 Q1887.78 240.052 1889.54 240.747 Z" fill="#000000" fill-rule="evenodd" fill-opacity="1" /><path clip-path="url(#clip480)" d="M1898.31 260.029 L1903.2 260.029 L1903.2 265.909 L1898.31 265.909 L1898.31 260.029 Z" fill="#000000" fill-rule="evenodd" fill-opacity="1" /><path clip-path="url(#clip480)" d="M1924.56 252.876 Q1919.4 252.876 1917.41 254.057 Q1915.42 255.237 1915.42 258.085 Q1915.42 260.353 1916.9 261.696 Q1918.41 263.015 1920.98 263.015 Q1924.52 263.015 1926.65 260.515 Q1928.8 257.992 1928.8 253.825 L1928.8 252.876 L1924.56 252.876 M1933.06 251.117 L1933.06 265.909 L1928.8 265.909 L1928.8 261.973 Q1927.34 264.335 1925.17 265.469 Q1922.99 266.58 1919.84 266.58 Q1915.86 266.58 1913.5 264.358 Q1911.16 262.112 1911.16 258.362 Q1911.16 253.987 1914.08 251.765 Q1917.02 249.543 1922.83 249.543 L1928.8 249.543 L1928.8 249.126 Q1928.8 246.187 1926.86 244.589 Q1924.94 242.969 1921.44 242.969 Q1919.22 242.969 1917.11 243.501 Q1915 244.034 1913.06 245.099 L1913.06 241.163 Q1915.4 240.261 1917.6 239.821 Q1919.8 239.358 1921.88 239.358 Q1927.5 239.358 1930.28 242.274 Q1933.06 245.191 1933.06 251.117 Z" fill="#000000" fill-rule="evenodd" fill-opacity="1" /><path clip-path="url(#clip480)" d="M1967.13 229.937 Q1964.03 235.261 1962.53 240.469 Q1961.02 245.677 1961.02 251.024 Q1961.02 256.372 1962.53 261.626 Q1964.06 266.858 1967.13 272.159 L1963.43 272.159 Q1959.96 266.719 1958.22 261.464 Q1956.51 256.21 1956.51 251.024 Q1956.51 245.862 1958.22 240.631 Q1959.93 235.4 1963.43 229.937 L1967.13 229.937 Z" fill="#000000" fill-rule="evenodd" fill-opacity="1" /><path clip-path="url(#clip480)" d="M1976.05 231.349 L1994.4 231.349 L1994.4 235.284 L1980.33 235.284 L1980.33 243.756 Q1981.35 243.409 1982.37 243.247 Q1983.38 243.062 1984.4 243.062 Q1990.19 243.062 1993.57 246.233 Q1996.95 249.404 1996.95 254.821 Q1996.95 260.399 1993.48 263.501 Q1990 266.58 1983.68 266.58 Q1981.51 266.58 1979.24 266.21 Q1977 265.839 1974.59 265.098 L1974.59 260.399 Q1976.67 261.534 1978.89 262.089 Q1981.12 262.645 1983.59 262.645 Q1987.6 262.645 1989.93 260.538 Q1992.27 258.432 1992.27 254.821 Q1992.27 251.21 1989.93 249.103 Q1987.6 246.997 1983.59 246.997 Q1981.72 246.997 1979.84 247.413 Q1977.99 247.83 1976.05 248.71 L1976.05 231.349 Z" fill="#000000" fill-rule="evenodd" fill-opacity="1" /><path clip-path="url(#clip480)" d="M2016.16 249.497 Q2012.83 249.497 2010.91 251.279 Q2009.01 253.061 2009.01 256.186 Q2009.01 259.311 2010.91 261.094 Q2012.83 262.876 2016.16 262.876 Q2019.49 262.876 2021.42 261.094 Q2023.34 259.288 2023.34 256.186 Q2023.34 253.061 2021.42 251.279 Q2019.52 249.497 2016.16 249.497 M2011.49 247.506 Q2008.48 246.765 2006.79 244.705 Q2005.12 242.645 2005.12 239.682 Q2005.12 235.538 2008.06 233.131 Q2011.02 230.724 2016.16 230.724 Q2021.32 230.724 2024.26 233.131 Q2027.2 235.538 2027.2 239.682 Q2027.2 242.645 2025.51 244.705 Q2023.85 246.765 2020.86 247.506 Q2024.24 248.293 2026.12 250.585 Q2028.01 252.876 2028.01 256.186 Q2028.01 261.21 2024.93 263.895 Q2021.88 266.58 2016.16 266.58 Q2010.44 266.58 2007.37 263.895 Q2004.31 261.21 2004.31 256.186 Q2004.31 252.876 2006.21 250.585 Q2008.11 248.293 2011.49 247.506 M2009.77 240.122 Q2009.77 242.807 2011.44 244.312 Q2013.13 245.816 2016.16 245.816 Q2019.17 245.816 2020.86 244.312 Q2022.57 242.807 2022.57 240.122 Q2022.57 237.437 2020.86 235.932 Q2019.17 234.427 2016.16 234.427 Q2013.13 234.427 2011.44 235.932 Q2009.77 237.437 2009.77 240.122 Z" fill="#000000" fill-rule="evenodd" fill-opacity="1" /><path clip-path="url(#clip480)" d="M2035.14 231.349 L2057.36 231.349 L2057.36 233.339 L2044.82 265.909 L2039.93 265.909 L2051.74 235.284 L2035.14 235.284 L2035.14 231.349 Z" fill="#000000" fill-rule="evenodd" fill-opacity="1" /><path clip-path="url(#clip480)" d="M2070.51 261.973 L2086.83 261.973 L2086.83 265.909 L2064.89 265.909 L2064.89 261.973 Q2067.55 259.219 2072.13 254.589 Q2076.74 249.936 2077.92 248.594 Q2080.17 246.071 2081.05 244.335 Q2081.95 242.575 2081.95 240.886 Q2081.95 238.131 2080 236.395 Q2078.08 234.659 2074.98 234.659 Q2072.78 234.659 2070.33 235.423 Q2067.9 236.187 2065.12 237.737 L2065.12 233.015 Q2067.94 231.881 2070.4 231.302 Q2072.85 230.724 2074.89 230.724 Q2080.26 230.724 2083.45 233.409 Q2086.65 236.094 2086.65 240.585 Q2086.65 242.714 2085.84 244.636 Q2085.05 246.534 2082.94 249.126 Q2082.36 249.798 2079.26 253.015 Q2076.16 256.21 2070.51 261.973 Z" fill="#000000" fill-rule="evenodd" fill-opacity="1" /><path clip-path="url(#clip480)" d="M2106.65 234.427 Q2103.04 234.427 2101.21 237.992 Q2099.4 241.534 2099.4 248.663 Q2099.4 255.77 2101.21 259.335 Q2103.04 262.876 2106.65 262.876 Q2110.28 262.876 2112.09 259.335 Q2113.92 255.77 2113.92 248.663 Q2113.92 241.534 2112.09 237.992 Q2110.28 234.427 2106.65 234.427 M2106.65 230.724 Q2112.46 230.724 2115.51 235.33 Q2118.59 239.913 2118.59 248.663 Q2118.59 257.39 2115.51 261.997 Q2112.46 266.58 2106.65 266.58 Q2100.84 266.58 2097.76 261.997 Q2094.7 257.39 2094.7 248.663 Q2094.7 239.913 2097.76 235.33 Q2100.84 230.724 2106.65 230.724 Z" fill="#000000" fill-rule="evenodd" fill-opacity="1" /><path clip-path="url(#clip480)" d="M2130.84 261.973 L2147.16 261.973 L2147.16 265.909 L2125.21 265.909 L2125.21 261.973 Q2127.87 259.219 2132.46 254.589 Q2137.06 249.936 2138.24 248.594 Q2140.49 246.071 2141.37 244.335 Q2142.27 242.575 2142.27 240.886 Q2142.27 238.131 2140.33 236.395 Q2138.41 234.659 2135.3 234.659 Q2133.11 234.659 2130.65 235.423 Q2128.22 236.187 2125.44 237.737 L2125.44 233.015 Q2128.27 231.881 2130.72 231.302 Q2133.17 230.724 2135.21 230.724 Q2140.58 230.724 2143.78 233.409 Q2146.97 236.094 2146.97 240.585 Q2146.97 242.714 2146.16 244.636 Q2145.37 246.534 2143.27 249.126 Q2142.69 249.798 2139.59 253.015 Q2136.48 256.21 2130.84 261.973 Z" fill="#000000" fill-rule="evenodd" fill-opacity="1" /><path clip-path="url(#clip480)" d="M2157.02 231.349 L2175.37 231.349 L2175.37 235.284 L2161.3 235.284 L2161.3 243.756 Q2162.32 243.409 2163.34 243.247 Q2164.36 243.062 2165.37 243.062 Q2171.16 243.062 2174.54 246.233 Q2177.92 249.404 2177.92 254.821 Q2177.92 260.399 2174.45 263.501 Q2170.98 266.58 2164.66 266.58 Q2162.48 266.58 2160.21 266.21 Q2157.97 265.839 2155.56 265.098 L2155.56 260.399 Q2157.64 261.534 2159.86 262.089 Q2162.09 262.645 2164.56 262.645 Q2168.57 262.645 2170.91 260.538 Q2173.24 258.432 2173.24 254.821 Q2173.24 251.21 2170.91 249.103 Q2168.57 246.997 2164.56 246.997 Q2162.69 246.997 2160.81 247.413 Q2158.96 247.83 2157.02 248.71 L2157.02 231.349 Z" fill="#000000" fill-rule="evenodd" fill-opacity="1" /><path clip-path="url(#clip480)" d="M2197.71 246.765 Q2194.56 246.765 2192.71 248.918 Q2190.88 251.071 2190.88 254.821 Q2190.88 258.548 2192.71 260.723 Q2194.56 262.876 2197.71 262.876 Q2200.86 262.876 2202.69 260.723 Q2204.54 258.548 2204.54 254.821 Q2204.54 251.071 2202.69 248.918 Q2200.86 246.765 2197.71 246.765 M2206.99 232.113 L2206.99 236.372 Q2205.23 235.538 2203.43 235.099 Q2201.65 234.659 2199.89 234.659 Q2195.26 234.659 2192.8 237.784 Q2190.37 240.909 2190.03 247.228 Q2191.39 245.214 2193.45 244.149 Q2195.51 243.062 2197.99 243.062 Q2203.2 243.062 2206.21 246.233 Q2209.24 249.381 2209.24 254.821 Q2209.24 260.145 2206.09 263.362 Q2202.94 266.58 2197.71 266.58 Q2191.72 266.58 2188.54 261.997 Q2185.37 257.39 2185.37 248.663 Q2185.37 240.469 2189.26 235.608 Q2193.15 230.724 2199.7 230.724 Q2201.46 230.724 2203.24 231.071 Q2205.05 231.418 2206.99 232.113 Z" fill="#000000" fill-rule="evenodd" fill-opacity="1" /><path clip-path="url(#clip480)" d="M2218.1 261.973 L2225.74 261.973 L2225.74 235.608 L2217.43 237.275 L2217.43 233.015 L2225.7 231.349 L2230.37 231.349 L2230.37 261.973 L2238.01 261.973 L2238.01 265.909 L2218.1 265.909 L2218.1 261.973 Z" fill="#000000" fill-rule="evenodd" fill-opacity="1" /><path clip-path="url(#clip480)" d="M2246.18 229.937 L2249.89 229.937 Q2253.36 235.4 2255.07 240.631 Q2256.81 245.862 2256.81 251.024 Q2256.81 256.21 2255.07 261.464 Q2253.36 266.719 2249.89 272.159 L2246.18 272.159 Q2249.26 266.858 2250.77 261.626 Q2252.29 256.372 2252.29 251.024 Q2252.29 245.677 2250.77 240.469 Q2249.26 235.261 2246.18 229.937 Z" fill="#000000" fill-rule="evenodd" fill-opacity="1" /></svg>
