<?xml version="1.0" encoding="utf-8"?>
<svg xmlns="http://www.w3.org/2000/svg" xmlns:xlink="http://www.w3.org/1999/xlink" width="600" height="400" viewBox="0 0 2400 1600">
<defs>
  <clipPath id="clip520">
    <rect x="0" y="0" width="2400" height="1600"/>
  </clipPath>
</defs>
<path clip-path="url(#clip520)" d="
M0 1600 L2400 1600 L2400 0 L0 0  Z
  " fill="#ffffff" fill-rule="evenodd" fill-opacity="1"/>
<defs>
  <clipPath id="clip521">
    <rect x="480" y="0" width="1681" height="1600"/>
  </clipPath>
</defs>
<path clip-path="url(#clip520)" d="
M156.598 1423.18 L2352.76 1423.18 L2352.76 47.2441 L156.598 47.2441  Z
  " fill="#ffffff" fill-rule="evenodd" fill-opacity="1"/>
<defs>
  <clipPath id="clip522">
    <rect x="156" y="47" width="2197" height="1377"/>
  </clipPath>
</defs>
<polyline clip-path="url(#clip522)" style="stroke:#000000; stroke-linecap:round; stroke-linejoin:round; stroke-width:2; stroke-opacity:0.1; fill:none" points="
  218.754,1423.18 218.754,47.2441 
  "/>
<polyline clip-path="url(#clip522)" style="stroke:#000000; stroke-linecap:round; stroke-linejoin:round; stroke-width:2; stroke-opacity:0.1; fill:none" points="
  633.123,1423.18 633.123,47.2441 
  "/>
<polyline clip-path="url(#clip522)" style="stroke:#000000; stroke-linecap:round; stroke-linejoin:round; stroke-width:2; stroke-opacity:0.1; fill:none" points="
  1047.49,1423.18 1047.49,47.2441 
  "/>
<polyline clip-path="url(#clip522)" style="stroke:#000000; stroke-linecap:round; stroke-linejoin:round; stroke-width:2; stroke-opacity:0.1; fill:none" points="
  1461.86,1423.18 1461.86,47.2441 
  "/>
<polyline clip-path="url(#clip522)" style="stroke:#000000; stroke-linecap:round; stroke-linejoin:round; stroke-width:2; stroke-opacity:0.1; fill:none" points="
  1876.23,1423.18 1876.23,47.2441 
  "/>
<polyline clip-path="url(#clip522)" style="stroke:#000000; stroke-linecap:round; stroke-linejoin:round; stroke-width:2; stroke-opacity:0.1; fill:none" points="
  2290.6,1423.18 2290.6,47.2441 
  "/>
<polyline clip-path="url(#clip520)" style="stroke:#000000; stroke-linecap:round; stroke-linejoin:round; stroke-width:4; stroke-opacity:1; fill:none" points="
  156.598,1423.18 2352.76,1423.18 
  "/>
<polyline clip-path="url(#clip520)" style="stroke:#000000; stroke-linecap:round; stroke-linejoin:round; stroke-width:4; stroke-opacity:1; fill:none" points="
  218.754,1423.18 218.754,1404.28 
  "/>
<polyline clip-path="url(#clip520)" style="stroke:#000000; stroke-linecap:round; stroke-linejoin:round; stroke-width:4; stroke-opacity:1; fill:none" points="
  633.123,1423.18 633.123,1404.28 
  "/>
<polyline clip-path="url(#clip520)" style="stroke:#000000; stroke-linecap:round; stroke-linejoin:round; stroke-width:4; stroke-opacity:1; fill:none" points="
  1047.49,1423.18 1047.49,1404.28 
  "/>
<polyline clip-path="url(#clip520)" style="stroke:#000000; stroke-linecap:round; stroke-linejoin:round; stroke-width:4; stroke-opacity:1; fill:none" points="
  1461.86,1423.18 1461.86,1404.28 
  "/>
<polyline clip-path="url(#clip520)" style="stroke:#000000; stroke-linecap:round; stroke-linejoin:round; stroke-width:4; stroke-opacity:1; fill:none" points="
  1876.23,1423.18 1876.23,1404.28 
  "/>
<polyline clip-path="url(#clip520)" style="stroke:#000000; stroke-linecap:round; stroke-linejoin:round; stroke-width:4; stroke-opacity:1; fill:none" points="
  2290.6,1423.18 2290.6,1404.28 
  "/>
<path clip-path="url(#clip520)" d="M218.754 1454.1 Q215.143 1454.1 213.314 1457.66 Q211.508 1461.2 211.508 1468.33 Q211.508 1475.44 213.314 1479.01 Q215.143 1482.55 218.754 1482.55 Q222.388 1482.55 224.193 1479.01 Q226.022 1475.44 226.022 1468.33 Q226.022 1461.2 224.193 1457.66 Q222.388 1454.1 218.754 1454.1 M218.754 1450.39 Q224.564 1450.39 227.619 1455 Q230.698 1459.58 230.698 1468.33 Q230.698 1477.06 227.619 1481.67 Q224.564 1486.25 218.754 1486.25 Q212.943 1486.25 209.865 1481.67 Q206.809 1477.06 206.809 1468.33 Q206.809 1459.58 209.865 1455 Q212.943 1450.39 218.754 1450.39 Z" fill="#000000" fill-rule="evenodd" fill-opacity="1" /><path clip-path="url(#clip520)" d="M623.505 1481.64 L631.144 1481.64 L631.144 1455.28 L622.834 1456.95 L622.834 1452.69 L631.098 1451.02 L635.773 1451.02 L635.773 1481.64 L643.412 1481.64 L643.412 1485.58 L623.505 1485.58 L623.505 1481.64 Z" fill="#000000" fill-rule="evenodd" fill-opacity="1" /><path clip-path="url(#clip520)" d="M1042.15 1481.64 L1058.46 1481.64 L1058.46 1485.58 L1036.52 1485.58 L1036.52 1481.64 Q1039.18 1478.89 1043.77 1474.26 Q1048.37 1469.61 1049.55 1468.27 Q1051.8 1465.74 1052.68 1464.01 Q1053.58 1462.25 1053.58 1460.56 Q1053.58 1457.8 1051.64 1456.07 Q1049.71 1454.33 1046.61 1454.33 Q1044.41 1454.33 1041.96 1455.09 Q1039.53 1455.86 1036.75 1457.41 L1036.75 1452.69 Q1039.58 1451.55 1042.03 1450.97 Q1044.48 1450.39 1046.52 1450.39 Q1051.89 1450.39 1055.08 1453.08 Q1058.28 1455.77 1058.28 1460.26 Q1058.28 1462.39 1057.47 1464.31 Q1056.68 1466.2 1054.58 1468.8 Q1054 1469.47 1050.9 1472.69 Q1047.79 1475.88 1042.15 1481.64 Z" fill="#000000" fill-rule="evenodd" fill-opacity="1" /><path clip-path="url(#clip520)" d="M1466.11 1466.95 Q1469.47 1467.66 1471.34 1469.93 Q1473.24 1472.2 1473.24 1475.53 Q1473.24 1480.65 1469.72 1483.45 Q1466.2 1486.25 1459.72 1486.25 Q1457.54 1486.25 1455.23 1485.81 Q1452.94 1485.39 1450.48 1484.54 L1450.48 1480.02 Q1452.43 1481.16 1454.74 1481.74 Q1457.06 1482.32 1459.58 1482.32 Q1463.98 1482.32 1466.27 1480.58 Q1468.59 1478.84 1468.59 1475.53 Q1468.59 1472.48 1466.43 1470.77 Q1464.3 1469.03 1460.48 1469.03 L1456.46 1469.03 L1456.46 1465.19 L1460.67 1465.19 Q1464.12 1465.19 1465.95 1463.82 Q1467.78 1462.43 1467.78 1459.84 Q1467.78 1457.18 1465.88 1455.77 Q1464 1454.33 1460.48 1454.33 Q1458.56 1454.33 1456.36 1454.75 Q1454.17 1455.16 1451.53 1456.04 L1451.53 1451.88 Q1454.19 1451.14 1456.5 1450.77 Q1458.84 1450.39 1460.9 1450.39 Q1466.23 1450.39 1469.33 1452.83 Q1472.43 1455.23 1472.43 1459.35 Q1472.43 1462.22 1470.79 1464.21 Q1469.14 1466.18 1466.11 1466.95 Z" fill="#000000" fill-rule="evenodd" fill-opacity="1" /><path clip-path="url(#clip520)" d="M1879.24 1455.09 L1867.43 1473.54 L1879.24 1473.54 L1879.24 1455.09 M1878.01 1451.02 L1883.89 1451.02 L1883.89 1473.54 L1888.82 1473.54 L1888.82 1477.43 L1883.89 1477.43 L1883.89 1485.58 L1879.24 1485.58 L1879.24 1477.43 L1863.64 1477.43 L1863.64 1472.92 L1878.01 1451.02 Z" fill="#000000" fill-rule="evenodd" fill-opacity="1" /><path clip-path="url(#clip520)" d="M2280.88 1451.02 L2299.23 1451.02 L2299.23 1454.96 L2285.16 1454.96 L2285.16 1463.43 Q2286.18 1463.08 2287.2 1462.92 Q2288.22 1462.73 2289.23 1462.73 Q2295.02 1462.73 2298.4 1465.9 Q2301.78 1469.08 2301.78 1474.49 Q2301.78 1480.07 2298.31 1483.17 Q2294.84 1486.25 2288.52 1486.25 Q2286.34 1486.25 2284.07 1485.88 Q2281.83 1485.51 2279.42 1484.77 L2279.42 1480.07 Q2281.5 1481.2 2283.73 1481.76 Q2285.95 1482.32 2288.42 1482.32 Q2292.43 1482.32 2294.77 1480.21 Q2297.11 1478.1 2297.11 1474.49 Q2297.11 1470.88 2294.77 1468.77 Q2292.43 1466.67 2288.42 1466.67 Q2286.55 1466.67 2284.67 1467.08 Q2282.82 1467.5 2280.88 1468.38 L2280.88 1451.02 Z" fill="#000000" fill-rule="evenodd" fill-opacity="1" /><path clip-path="url(#clip520)" d="M1202.99 1522.27 L1202.99 1532.4 L1215.05 1532.4 L1215.05 1536.95 L1202.99 1536.95 L1202.99 1556.3 Q1202.99 1560.66 1204.17 1561.9 Q1205.37 1563.14 1209.03 1563.14 L1215.05 1563.14 L1215.05 1568.04 L1209.03 1568.04 Q1202.26 1568.04 1199.68 1565.53 Q1197.1 1562.98 1197.1 1556.3 L1197.1 1536.95 L1192.8 1536.95 L1192.8 1532.4 L1197.1 1532.4 L1197.1 1522.27 L1202.99 1522.27 Z" fill="#000000" fill-rule="evenodd" fill-opacity="1" /><path clip-path="url(#clip520)" d="M1242.93 1518.52 L1256.43 1518.52 L1256.43 1523.07 L1248.79 1523.07 L1248.79 1572.09 L1256.43 1572.09 L1256.43 1576.64 L1242.93 1576.64 L1242.93 1518.52 Z" fill="#000000" fill-rule="evenodd" fill-opacity="1" /><path clip-path="url(#clip520)" d="M1291.63 1533.45 L1291.63 1538.98 Q1289.15 1537.71 1286.47 1537.07 Q1283.8 1536.44 1280.94 1536.44 Q1276.58 1536.44 1274.38 1537.77 Q1272.21 1539.11 1272.21 1541.79 Q1272.21 1543.82 1273.77 1545 Q1275.33 1546.15 1280.04 1547.2 L1282.05 1547.64 Q1288.29 1548.98 1290.9 1551.43 Q1293.54 1553.85 1293.54 1558.21 Q1293.54 1563.17 1289.59 1566.07 Q1285.68 1568.97 1278.8 1568.97 Q1275.94 1568.97 1272.82 1568.39 Q1269.73 1567.85 1266.29 1566.74 L1266.29 1560.69 Q1269.54 1562.38 1272.69 1563.24 Q1275.84 1564.07 1278.93 1564.07 Q1283.07 1564.07 1285.3 1562.66 Q1287.52 1561.23 1287.52 1558.65 Q1287.52 1556.27 1285.9 1554.99 Q1284.31 1553.72 1278.87 1552.54 L1276.83 1552.07 Q1271.39 1550.92 1268.97 1548.56 Q1266.55 1546.18 1266.55 1542.04 Q1266.55 1537.01 1270.11 1534.27 Q1273.68 1531.54 1280.24 1531.54 Q1283.48 1531.54 1286.35 1532.01 Q1289.21 1532.49 1291.63 1533.45 Z" fill="#000000" fill-rule="evenodd" fill-opacity="1" /><path clip-path="url(#clip520)" d="M1316.55 1518.52 L1316.55 1576.64 L1303.06 1576.64 L1303.06 1572.09 L1310.66 1572.09 L1310.66 1523.07 L1303.06 1523.07 L1303.06 1518.52 L1316.55 1518.52 Z" fill="#000000" fill-rule="evenodd" fill-opacity="1" /><polyline clip-path="url(#clip522)" style="stroke:#000000; stroke-linecap:round; stroke-linejoin:round; stroke-width:2; stroke-opacity:0.1; fill:none" points="
  156.598,1384.24 2352.76,1384.24 
  "/>
<polyline clip-path="url(#clip522)" style="stroke:#000000; stroke-linecap:round; stroke-linejoin:round; stroke-width:2; stroke-opacity:0.1; fill:none" points="
  156.598,1181.29 2352.76,1181.29 
  "/>
<polyline clip-path="url(#clip522)" style="stroke:#000000; stroke-linecap:round; stroke-linejoin:round; stroke-width:2; stroke-opacity:0.1; fill:none" points="
  156.598,978.339 2352.76,978.339 
  "/>
<polyline clip-path="url(#clip522)" style="stroke:#000000; stroke-linecap:round; stroke-linejoin:round; stroke-width:2; stroke-opacity:0.1; fill:none" points="
  156.598,775.39 2352.76,775.39 
  "/>
<polyline clip-path="url(#clip522)" style="stroke:#000000; stroke-linecap:round; stroke-linejoin:round; stroke-width:2; stroke-opacity:0.1; fill:none" points="
  156.598,572.441 2352.76,572.441 
  "/>
<polyline clip-path="url(#clip522)" style="stroke:#000000; stroke-linecap:round; stroke-linejoin:round; stroke-width:2; stroke-opacity:0.1; fill:none" points="
  156.598,369.491 2352.76,369.491 
  "/>
<polyline clip-path="url(#clip522)" style="stroke:#000000; stroke-linecap:round; stroke-linejoin:round; stroke-width:2; stroke-opacity:0.1; fill:none" points="
  156.598,166.542 2352.76,166.542 
  "/>
<polyline clip-path="url(#clip520)" style="stroke:#000000; stroke-linecap:round; stroke-linejoin:round; stroke-width:4; stroke-opacity:1; fill:none" points="
  156.598,1423.18 156.598,47.2441 
  "/>
<polyline clip-path="url(#clip520)" style="stroke:#000000; stroke-linecap:round; stroke-linejoin:round; stroke-width:4; stroke-opacity:1; fill:none" points="
  156.598,1384.24 175.496,1384.24 
  "/>
<polyline clip-path="url(#clip520)" style="stroke:#000000; stroke-linecap:round; stroke-linejoin:round; stroke-width:4; stroke-opacity:1; fill:none" points="
  156.598,1181.29 175.496,1181.29 
  "/>
<polyline clip-path="url(#clip520)" style="stroke:#000000; stroke-linecap:round; stroke-linejoin:round; stroke-width:4; stroke-opacity:1; fill:none" points="
  156.598,978.339 175.496,978.339 
  "/>
<polyline clip-path="url(#clip520)" style="stroke:#000000; stroke-linecap:round; stroke-linejoin:round; stroke-width:4; stroke-opacity:1; fill:none" points="
  156.598,775.39 175.496,775.39 
  "/>
<polyline clip-path="url(#clip520)" style="stroke:#000000; stroke-linecap:round; stroke-linejoin:round; stroke-width:4; stroke-opacity:1; fill:none" points="
  156.598,572.441 175.496,572.441 
  "/>
<polyline clip-path="url(#clip520)" style="stroke:#000000; stroke-linecap:round; stroke-linejoin:round; stroke-width:4; stroke-opacity:1; fill:none" points="
  156.598,369.491 175.496,369.491 
  "/>
<polyline clip-path="url(#clip520)" style="stroke:#000000; stroke-linecap:round; stroke-linejoin:round; stroke-width:4; stroke-opacity:1; fill:none" points="
  156.598,166.542 175.496,166.542 
  "/>
<path clip-path="url(#clip520)" d="M63.4226 1370.04 Q59.8115 1370.04 57.9828 1373.6 Q56.1773 1377.14 56.1773 1384.27 Q56.1773 1391.38 57.9828 1394.94 Q59.8115 1398.49 63.4226 1398.49 Q67.0569 1398.49 68.8624 1394.94 Q70.6911 1391.38 70.6911 1384.27 Q70.6911 1377.14 68.8624 1373.6 Q67.0569 1370.04 63.4226 1370.04 M63.4226 1366.33 Q69.2328 1366.33 72.2883 1370.94 Q75.367 1375.52 75.367 1384.27 Q75.367 1393 72.2883 1397.61 Q69.2328 1402.19 63.4226 1402.19 Q57.6125 1402.19 54.5338 1397.61 Q51.4782 1393 51.4782 1384.27 Q51.4782 1375.52 54.5338 1370.94 Q57.6125 1366.33 63.4226 1366.33 Z" fill="#000000" fill-rule="evenodd" fill-opacity="1" /><path clip-path="url(#clip520)" d="M83.5845 1395.64 L88.4688 1395.64 L88.4688 1401.52 L83.5845 1401.52 L83.5845 1395.64 Z" fill="#000000" fill-rule="evenodd" fill-opacity="1" /><path clip-path="url(#clip520)" d="M108.654 1370.04 Q105.043 1370.04 103.214 1373.6 Q101.409 1377.14 101.409 1384.27 Q101.409 1391.38 103.214 1394.94 Q105.043 1398.49 108.654 1398.49 Q112.288 1398.49 114.094 1394.94 Q115.922 1391.38 115.922 1384.27 Q115.922 1377.14 114.094 1373.6 Q112.288 1370.04 108.654 1370.04 M108.654 1366.33 Q114.464 1366.33 117.52 1370.94 Q120.598 1375.52 120.598 1384.27 Q120.598 1393 117.52 1397.61 Q114.464 1402.19 108.654 1402.19 Q102.844 1402.19 99.765 1397.61 Q96.7095 1393 96.7095 1384.27 Q96.7095 1375.52 99.765 1370.94 Q102.844 1366.33 108.654 1366.33 Z" fill="#000000" fill-rule="evenodd" fill-opacity="1" /><path clip-path="url(#clip520)" d="M65.0198 1167.09 Q61.4087 1167.09 59.58 1170.65 Q57.7745 1174.19 57.7745 1181.32 Q57.7745 1188.43 59.58 1191.99 Q61.4087 1195.54 65.0198 1195.54 Q68.6541 1195.54 70.4596 1191.99 Q72.2883 1188.43 72.2883 1181.32 Q72.2883 1174.19 70.4596 1170.65 Q68.6541 1167.09 65.0198 1167.09 M65.0198 1163.38 Q70.83 1163.38 73.8855 1167.99 Q76.9642 1172.57 76.9642 1181.32 Q76.9642 1190.05 73.8855 1194.66 Q70.83 1199.24 65.0198 1199.24 Q59.2097 1199.24 56.131 1194.66 Q53.0754 1190.05 53.0754 1181.32 Q53.0754 1172.57 56.131 1167.99 Q59.2097 1163.38 65.0198 1163.38 Z" fill="#000000" fill-rule="evenodd" fill-opacity="1" /><path clip-path="url(#clip520)" d="M85.1818 1192.69 L90.066 1192.69 L90.066 1198.57 L85.1818 1198.57 L85.1818 1192.69 Z" fill="#000000" fill-rule="evenodd" fill-opacity="1" /><path clip-path="url(#clip520)" d="M104.279 1194.63 L120.598 1194.63 L120.598 1198.57 L98.6539 1198.57 L98.6539 1194.63 Q101.316 1191.88 105.899 1187.25 Q110.506 1182.6 111.686 1181.25 Q113.932 1178.73 114.811 1176.99 Q115.714 1175.24 115.714 1173.55 Q115.714 1170.79 113.77 1169.06 Q111.848 1167.32 108.746 1167.32 Q106.547 1167.32 104.094 1168.08 Q101.663 1168.85 98.8854 1170.4 L98.8854 1165.68 Q101.709 1164.54 104.163 1163.96 Q106.617 1163.38 108.654 1163.38 Q114.024 1163.38 117.219 1166.07 Q120.413 1168.75 120.413 1173.24 Q120.413 1175.37 119.603 1177.3 Q118.816 1179.19 116.709 1181.79 Q116.131 1182.46 113.029 1185.68 Q109.927 1188.87 104.279 1194.63 Z" fill="#000000" fill-rule="evenodd" fill-opacity="1" /><path clip-path="url(#clip520)" d="M62.9365 964.138 Q59.3254 964.138 57.4967 967.703 Q55.6912 971.245 55.6912 978.374 Q55.6912 985.481 57.4967 989.045 Q59.3254 992.587 62.9365 992.587 Q66.5707 992.587 68.3763 989.045 Q70.205 985.481 70.205 978.374 Q70.205 971.245 68.3763 967.703 Q66.5707 964.138 62.9365 964.138 M62.9365 960.434 Q68.7467 960.434 71.8022 965.041 Q74.8809 969.624 74.8809 978.374 Q74.8809 987.101 71.8022 991.707 Q68.7467 996.291 62.9365 996.291 Q57.1264 996.291 54.0477 991.707 Q50.9921 987.101 50.9921 978.374 Q50.9921 969.624 54.0477 965.041 Q57.1264 960.434 62.9365 960.434 Z" fill="#000000" fill-rule="evenodd" fill-opacity="1" /><path clip-path="url(#clip520)" d="M83.0984 989.74 L87.9827 989.74 L87.9827 995.619 L83.0984 995.619 L83.0984 989.74 Z" fill="#000000" fill-rule="evenodd" fill-opacity="1" /><path clip-path="url(#clip520)" d="M111.015 965.133 L99.2095 983.582 L111.015 983.582 L111.015 965.133 M109.788 961.059 L115.668 961.059 L115.668 983.582 L120.598 983.582 L120.598 987.471 L115.668 987.471 L115.668 995.619 L111.015 995.619 L111.015 987.471 L95.4132 987.471 L95.4132 982.957 L109.788 961.059 Z" fill="#000000" fill-rule="evenodd" fill-opacity="1" /><path clip-path="url(#clip520)" d="M63.2606 761.189 Q59.6495 761.189 57.8208 764.753 Q56.0152 768.295 56.0152 775.425 Q56.0152 782.531 57.8208 786.096 Q59.6495 789.638 63.2606 789.638 Q66.8948 789.638 68.7004 786.096 Q70.5291 782.531 70.5291 775.425 Q70.5291 768.295 68.7004 764.753 Q66.8948 761.189 63.2606 761.189 M63.2606 757.485 Q69.0707 757.485 72.1263 762.091 Q75.205 766.675 75.205 775.425 Q75.205 784.152 72.1263 788.758 Q69.0707 793.341 63.2606 793.341 Q57.4504 793.341 54.3717 788.758 Q51.3162 784.152 51.3162 775.425 Q51.3162 766.675 54.3717 762.091 Q57.4504 757.485 63.2606 757.485 Z" fill="#000000" fill-rule="evenodd" fill-opacity="1" /><path clip-path="url(#clip520)" d="M83.4225 786.79 L88.3067 786.79 L88.3067 792.67 L83.4225 792.67 L83.4225 786.79 Z" fill="#000000" fill-rule="evenodd" fill-opacity="1" /><path clip-path="url(#clip520)" d="M109.071 773.527 Q105.922 773.527 104.071 775.679 Q102.242 777.832 102.242 781.582 Q102.242 785.309 104.071 787.485 Q105.922 789.638 109.071 789.638 Q112.219 789.638 114.047 787.485 Q115.899 785.309 115.899 781.582 Q115.899 777.832 114.047 775.679 Q112.219 773.527 109.071 773.527 M118.353 758.874 L118.353 763.133 Q116.594 762.3 114.788 761.86 Q113.006 761.42 111.246 761.42 Q106.617 761.42 104.163 764.545 Q101.733 767.67 101.385 773.99 Q102.751 771.976 104.811 770.911 Q106.871 769.823 109.348 769.823 Q114.557 769.823 117.566 772.994 Q120.598 776.142 120.598 781.582 Q120.598 786.906 117.45 790.124 Q114.302 793.341 109.071 793.341 Q103.075 793.341 99.9039 788.758 Q96.7326 784.152 96.7326 775.425 Q96.7326 767.23 100.621 762.369 Q104.51 757.485 111.061 757.485 Q112.82 757.485 114.603 757.832 Q116.408 758.179 118.353 758.874 Z" fill="#000000" fill-rule="evenodd" fill-opacity="1" /><path clip-path="url(#clip520)" d="M63.5152 558.239 Q59.9041 558.239 58.0754 561.804 Q56.2699 565.346 56.2699 572.475 Q56.2699 579.582 58.0754 583.147 Q59.9041 586.688 63.5152 586.688 Q67.1494 586.688 68.955 583.147 Q70.7837 579.582 70.7837 572.475 Q70.7837 565.346 68.955 561.804 Q67.1494 558.239 63.5152 558.239 M63.5152 554.536 Q69.3254 554.536 72.3809 559.142 Q75.4596 563.725 75.4596 572.475 Q75.4596 581.202 72.3809 585.809 Q69.3254 590.392 63.5152 590.392 Q57.7051 590.392 54.6264 585.809 Q51.5708 581.202 51.5708 572.475 Q51.5708 563.725 54.6264 559.142 Q57.7051 554.536 63.5152 554.536 Z" fill="#000000" fill-rule="evenodd" fill-opacity="1" /><path clip-path="url(#clip520)" d="M83.6771 583.841 L88.5614 583.841 L88.5614 589.721 L83.6771 589.721 L83.6771 583.841 Z" fill="#000000" fill-rule="evenodd" fill-opacity="1" /><path clip-path="url(#clip520)" d="M108.746 573.309 Q105.413 573.309 103.492 575.091 Q101.594 576.873 101.594 579.998 Q101.594 583.123 103.492 584.906 Q105.413 586.688 108.746 586.688 Q112.08 586.688 114.001 584.906 Q115.922 583.1 115.922 579.998 Q115.922 576.873 114.001 575.091 Q112.103 573.309 108.746 573.309 M104.071 571.318 Q101.061 570.577 99.3715 568.517 Q97.7048 566.457 97.7048 563.494 Q97.7048 559.35 100.645 556.943 Q103.608 554.536 108.746 554.536 Q113.908 554.536 116.848 556.943 Q119.788 559.35 119.788 563.494 Q119.788 566.457 118.098 568.517 Q116.432 570.577 113.445 571.318 Q116.825 572.105 118.7 574.397 Q120.598 576.688 120.598 579.998 Q120.598 585.022 117.52 587.707 Q114.464 590.392 108.746 590.392 Q103.029 590.392 99.9502 587.707 Q96.8947 585.022 96.8947 579.998 Q96.8947 576.688 98.7928 574.397 Q100.691 572.105 104.071 571.318 M102.358 563.934 Q102.358 566.619 104.024 568.123 Q105.714 569.628 108.746 569.628 Q111.756 569.628 113.445 568.123 Q115.158 566.619 115.158 563.934 Q115.158 561.248 113.445 559.744 Q111.756 558.239 108.746 558.239 Q105.714 558.239 104.024 559.744 Q102.358 561.248 102.358 563.934 Z" fill="#000000" fill-rule="evenodd" fill-opacity="1" /><path clip-path="url(#clip520)" d="M54.2328 382.836 L61.8717 382.836 L61.8717 356.47 L53.5616 358.137 L53.5616 353.878 L61.8254 352.211 L66.5013 352.211 L66.5013 382.836 L74.1402 382.836 L74.1402 386.771 L54.2328 386.771 L54.2328 382.836 Z" fill="#000000" fill-rule="evenodd" fill-opacity="1" /><path clip-path="url(#clip520)" d="M83.5845 380.892 L88.4688 380.892 L88.4688 386.771 L83.5845 386.771 L83.5845 380.892 Z" fill="#000000" fill-rule="evenodd" fill-opacity="1" /><path clip-path="url(#clip520)" d="M108.654 355.29 Q105.043 355.29 103.214 358.855 Q101.409 362.396 101.409 369.526 Q101.409 376.632 103.214 380.197 Q105.043 383.739 108.654 383.739 Q112.288 383.739 114.094 380.197 Q115.922 376.632 115.922 369.526 Q115.922 362.396 114.094 358.855 Q112.288 355.29 108.654 355.29 M108.654 351.586 Q114.464 351.586 117.52 356.193 Q120.598 360.776 120.598 369.526 Q120.598 378.253 117.52 382.859 Q114.464 387.442 108.654 387.442 Q102.844 387.442 99.765 382.859 Q96.7095 378.253 96.7095 369.526 Q96.7095 360.776 99.765 356.193 Q102.844 351.586 108.654 351.586 Z" fill="#000000" fill-rule="evenodd" fill-opacity="1" /><path clip-path="url(#clip520)" d="M55.8301 179.887 L63.4689 179.887 L63.4689 153.521 L55.1588 155.188 L55.1588 150.928 L63.4226 149.262 L68.0985 149.262 L68.0985 179.887 L75.7374 179.887 L75.7374 183.822 L55.8301 183.822 L55.8301 179.887 Z" fill="#000000" fill-rule="evenodd" fill-opacity="1" /><path clip-path="url(#clip520)" d="M85.1818 177.942 L90.066 177.942 L90.066 183.822 L85.1818 183.822 L85.1818 177.942 Z" fill="#000000" fill-rule="evenodd" fill-opacity="1" /><path clip-path="url(#clip520)" d="M104.279 179.887 L120.598 179.887 L120.598 183.822 L98.6539 183.822 L98.6539 179.887 Q101.316 177.132 105.899 172.502 Q110.506 167.85 111.686 166.507 Q113.932 163.984 114.811 162.248 Q115.714 160.488 115.714 158.799 Q115.714 156.044 113.77 154.308 Q111.848 152.572 108.746 152.572 Q106.547 152.572 104.094 153.336 Q101.663 154.1 98.8854 155.651 L98.8854 150.928 Q101.709 149.794 104.163 149.215 Q106.617 148.637 108.654 148.637 Q114.024 148.637 117.219 151.322 Q120.413 154.007 120.413 158.498 Q120.413 160.627 119.603 162.549 Q118.816 164.447 116.709 167.039 Q116.131 167.711 113.029 170.928 Q109.927 174.123 104.279 179.887 Z" fill="#000000" fill-rule="evenodd" fill-opacity="1" /><polyline clip-path="url(#clip522)" style="stroke:#009af9; stroke-linecap:round; stroke-linejoin:round; stroke-width:4; stroke-opacity:1; fill:none" points="
  218.754,876.865 260.191,666.416 301.628,511.432 343.064,397.209 384.501,315.779 425.938,255.034 467.375,209.457 508.812,175.794 550.249,151.013 591.686,132.806 
  633.123,119.458 674.56,109.706 715.997,102.592 757.434,97.4463 798.871,93.743 840.308,91.0952 881.745,89.2432 923.182,87.9748 964.619,87.1238 1006.06,86.5917 
  1047.49,86.3021 1088.93,86.1857 1130.37,86.1879 1171.8,86.2854 1213.24,86.459 1254.68,86.6889 1296.11,86.9545 1337.55,87.2439 1378.99,87.5558 1420.42,87.8877 
  1461.86,88.2355 1503.3,88.5941 1544.74,88.957 1586.17,89.323 1627.61,89.6941 1669.05,90.0707 1710.48,90.4525 1751.92,90.8388 1793.36,91.2281 1834.79,91.6184 
  1876.23,92.0084 1917.67,92.3996 1959.11,92.793 2000.54,93.1891 2041.98,93.5881 2083.42,93.99 2124.85,94.3944 2166.29,94.8006 2207.73,95.2077 2249.16,95.6146 
  2290.6,96.0225 
  "/>
<polyline clip-path="url(#clip522)" style="stroke:#e26f46; stroke-linecap:round; stroke-linejoin:round; stroke-width:4; stroke-opacity:1; fill:none" points="
  218.754,1384.24 260.191,1176.61 301.628,1025.07 343.064,914.588 384.501,835.471 425.938,775.635 467.375,732.755 508.812,702.358 550.249,681.13 591.686,666.652 
  633.123,657.154 674.56,651.34 715.997,648.233 757.434,647.147 798.871,647.548 840.308,649.04 881.745,651.36 923.182,654.293 964.619,657.667 1006.06,661.384 
  1047.49,665.366 1088.93,669.542 1130.37,673.856 1171.8,678.284 1213.24,682.807 1254.68,687.405 1296.11,692.057 1337.55,696.749 1378.99,701.481 1420.42,706.251 
  1461.86,711.053 1503.3,715.883 1544.74,720.733 1586.17,725.603 1627.61,730.494 1669.05,735.406 1710.48,740.34 1751.92,745.293 1793.36,750.265 1834.79,755.253 
  1876.23,760.256 1917.67,765.275 1959.11,770.31 2000.54,775.363 2041.98,780.433 2083.42,785.52 2124.85,790.623 2166.29,795.742 2207.73,800.875 2249.16,806.021 
  2290.6,811.18 
  "/>
<path clip-path="url(#clip520)" d="
M1607.21 1377.32 L2279.55 1377.32 L2279.55 1221.8 L1607.21 1221.8  Z
  " fill="#ffffff" fill-rule="evenodd" fill-opacity="1"/>
<polyline clip-path="url(#clip520)" style="stroke:#000000; stroke-linecap:round; stroke-linejoin:round; stroke-width:4; stroke-opacity:1; fill:none" points="
  1607.21,1377.32 2279.55,1377.32 2279.55,1221.8 1607.21,1221.8 1607.21,1377.32 
  "/>
<polyline clip-path="url(#clip520)" style="stroke:#009af9; stroke-linecap:round; stroke-linejoin:round; stroke-width:4; stroke-opacity:1; fill:none" points="
  1631.61,1273.64 1778.02,1273.64 
  "/>
<path clip-path="url(#clip520)" d="M1822.77 1269.97 Q1824.36 1267.1 1826.59 1265.73 Q1828.81 1264.36 1831.82 1264.36 Q1835.87 1264.36 1838.07 1267.21 Q1840.27 1270.04 1840.27 1275.27 L1840.27 1290.92 L1835.98 1290.92 L1835.98 1275.41 Q1835.98 1271.68 1834.67 1269.87 Q1833.35 1268.07 1830.64 1268.07 Q1827.33 1268.07 1825.41 1270.27 Q1823.48 1272.47 1823.48 1276.26 L1823.48 1290.92 L1819.2 1290.92 L1819.2 1275.41 Q1819.2 1271.66 1817.88 1269.87 Q1816.56 1268.07 1813.81 1268.07 Q1810.54 1268.07 1808.62 1270.29 Q1806.7 1272.49 1806.7 1276.26 L1806.7 1290.92 L1802.42 1290.92 L1802.42 1264.99 L1806.7 1264.99 L1806.7 1269.02 Q1808.16 1266.63 1810.2 1265.5 Q1812.23 1264.36 1815.04 1264.36 Q1817.86 1264.36 1819.83 1265.8 Q1821.82 1267.23 1822.77 1269.97 Z" fill="#000000" fill-rule="evenodd" fill-opacity="1" /><path clip-path="url(#clip520)" d="M1860.54 1277.88 Q1855.38 1277.88 1853.39 1279.06 Q1851.4 1280.24 1851.4 1283.09 Q1851.4 1285.36 1852.88 1286.7 Q1854.39 1288.02 1856.96 1288.02 Q1860.5 1288.02 1862.63 1285.52 Q1864.78 1283 1864.78 1278.83 L1864.78 1277.88 L1860.54 1277.88 M1869.04 1276.12 L1869.04 1290.92 L1864.78 1290.92 L1864.78 1286.98 Q1863.32 1289.34 1861.15 1290.48 Q1858.97 1291.59 1855.82 1291.59 Q1851.84 1291.59 1849.48 1289.36 Q1847.14 1287.12 1847.14 1283.37 Q1847.14 1278.99 1850.06 1276.77 Q1853 1274.55 1858.81 1274.55 L1864.78 1274.55 L1864.78 1274.13 Q1864.78 1271.19 1862.84 1269.6 Q1860.91 1267.98 1857.42 1267.98 Q1855.2 1267.98 1853.09 1268.51 Q1850.98 1269.04 1849.04 1270.11 L1849.04 1266.17 Q1851.38 1265.27 1853.58 1264.83 Q1855.78 1264.36 1857.86 1264.36 Q1863.48 1264.36 1866.26 1267.28 Q1869.04 1270.2 1869.04 1276.12 Z" fill="#000000" fill-rule="evenodd" fill-opacity="1" /><path clip-path="url(#clip520)" d="M1894.34 1265.75 L1894.34 1269.78 Q1892.54 1268.86 1890.59 1268.39 Q1888.65 1267.93 1886.56 1267.93 Q1883.39 1267.93 1881.79 1268.9 Q1880.22 1269.87 1880.22 1271.82 Q1880.22 1273.3 1881.35 1274.16 Q1882.49 1274.99 1885.91 1275.75 L1887.37 1276.08 Q1891.91 1277.05 1893.81 1278.83 Q1895.73 1280.59 1895.73 1283.76 Q1895.73 1287.37 1892.86 1289.48 Q1890.01 1291.59 1885.01 1291.59 Q1882.93 1291.59 1880.66 1291.17 Q1878.41 1290.78 1875.91 1289.97 L1875.91 1285.57 Q1878.28 1286.79 1880.57 1287.42 Q1882.86 1288.02 1885.1 1288.02 Q1888.11 1288.02 1889.73 1287 Q1891.35 1285.96 1891.35 1284.09 Q1891.35 1282.35 1890.17 1281.42 Q1889.02 1280.5 1885.06 1279.64 L1883.58 1279.3 Q1879.62 1278.46 1877.86 1276.75 Q1876.1 1275.01 1876.1 1272 Q1876.1 1268.35 1878.69 1266.36 Q1881.29 1264.36 1886.05 1264.36 Q1888.41 1264.36 1890.5 1264.71 Q1892.58 1265.06 1894.34 1265.75 Z" fill="#000000" fill-rule="evenodd" fill-opacity="1" /><path clip-path="url(#clip520)" d="M1919.04 1265.75 L1919.04 1269.78 Q1917.23 1268.86 1915.29 1268.39 Q1913.35 1267.93 1911.26 1267.93 Q1908.09 1267.93 1906.49 1268.9 Q1904.92 1269.87 1904.92 1271.82 Q1904.92 1273.3 1906.05 1274.16 Q1907.19 1274.99 1910.61 1275.75 L1912.07 1276.08 Q1916.61 1277.05 1918.51 1278.83 Q1920.43 1280.59 1920.43 1283.76 Q1920.43 1287.37 1917.56 1289.48 Q1914.71 1291.59 1909.71 1291.59 Q1907.63 1291.59 1905.36 1291.17 Q1903.11 1290.78 1900.61 1289.97 L1900.61 1285.57 Q1902.97 1286.79 1905.27 1287.42 Q1907.56 1288.02 1909.8 1288.02 Q1912.81 1288.02 1914.43 1287 Q1916.05 1285.96 1916.05 1284.09 Q1916.05 1282.35 1914.87 1281.42 Q1913.72 1280.5 1909.76 1279.64 L1908.28 1279.3 Q1904.32 1278.46 1902.56 1276.75 Q1900.8 1275.01 1900.8 1272 Q1900.8 1268.35 1903.39 1266.36 Q1905.98 1264.36 1910.75 1264.36 Q1913.11 1264.36 1915.2 1264.71 Q1917.28 1265.06 1919.04 1265.75 Z" fill="#000000" fill-rule="evenodd" fill-opacity="1" /><path clip-path="url(#clip520)" d="M1927.81 1285.04 L1932.7 1285.04 L1932.7 1290.92 L1927.81 1290.92 L1927.81 1285.04 Z" fill="#000000" fill-rule="evenodd" fill-opacity="1" /><path clip-path="url(#clip520)" d="M1958.81 1265.75 L1958.81 1269.78 Q1957 1268.86 1955.06 1268.39 Q1953.11 1267.93 1951.03 1267.93 Q1947.86 1267.93 1946.26 1268.9 Q1944.69 1269.87 1944.69 1271.82 Q1944.69 1273.3 1945.82 1274.16 Q1946.96 1274.99 1950.38 1275.75 L1951.84 1276.08 Q1956.38 1277.05 1958.28 1278.83 Q1960.2 1280.59 1960.2 1283.76 Q1960.2 1287.37 1957.33 1289.48 Q1954.48 1291.59 1949.48 1291.59 Q1947.4 1291.59 1945.13 1291.17 Q1942.88 1290.78 1940.38 1289.97 L1940.38 1285.57 Q1942.74 1286.79 1945.03 1287.42 Q1947.33 1288.02 1949.57 1288.02 Q1952.58 1288.02 1954.2 1287 Q1955.82 1285.96 1955.82 1284.09 Q1955.82 1282.35 1954.64 1281.42 Q1953.48 1280.5 1949.53 1279.64 L1948.04 1279.3 Q1944.09 1278.46 1942.33 1276.75 Q1940.57 1275.01 1940.57 1272 Q1940.57 1268.35 1943.16 1266.36 Q1945.75 1264.36 1950.52 1264.36 Q1952.88 1264.36 1954.97 1264.71 Q1957.05 1265.06 1958.81 1265.75 Z" fill="#000000" fill-rule="evenodd" fill-opacity="1" /><path clip-path="url(#clip520)" d="M1992.28 1254.94 Q1989.18 1260.27 1987.67 1265.48 Q1986.17 1270.68 1986.17 1276.03 Q1986.17 1281.38 1987.67 1286.63 Q1989.2 1291.86 1992.28 1297.17 L1988.58 1297.17 Q1985.1 1291.73 1983.37 1286.47 Q1981.65 1281.22 1981.65 1276.03 Q1981.65 1270.87 1983.37 1265.64 Q1985.08 1260.41 1988.58 1254.94 L1992.28 1254.94 Z" fill="#000000" fill-rule="evenodd" fill-opacity="1" /><path clip-path="url(#clip520)" d="M2015.31 1272.28 Q2018.67 1273 2020.54 1275.27 Q2022.44 1277.54 2022.44 1280.87 Q2022.44 1285.98 2018.92 1288.79 Q2015.4 1291.59 2008.92 1291.59 Q2006.75 1291.59 2004.43 1291.15 Q2002.14 1290.73 1999.69 1289.87 L1999.69 1285.36 Q2001.63 1286.49 2003.95 1287.07 Q2006.26 1287.65 2008.78 1287.65 Q2013.18 1287.65 2015.47 1285.92 Q2017.79 1284.18 2017.79 1280.87 Q2017.79 1277.81 2015.64 1276.1 Q2013.51 1274.36 2009.69 1274.36 L2005.66 1274.36 L2005.66 1270.52 L2009.87 1270.52 Q2013.32 1270.52 2015.15 1269.16 Q2016.98 1267.77 2016.98 1265.17 Q2016.98 1262.51 2015.08 1261.1 Q2013.21 1259.67 2009.69 1259.67 Q2007.77 1259.67 2005.57 1260.08 Q2003.37 1260.5 2000.73 1261.38 L2000.73 1257.21 Q2003.39 1256.47 2005.71 1256.1 Q2008.04 1255.73 2010.1 1255.73 Q2015.43 1255.73 2018.53 1258.16 Q2021.63 1260.57 2021.63 1264.69 Q2021.63 1267.56 2019.99 1269.55 Q2018.34 1271.52 2015.31 1272.28 Z" fill="#000000" fill-rule="evenodd" fill-opacity="1" /><path clip-path="url(#clip520)" d="M2045.47 1272.28 Q2048.83 1273 2050.71 1275.27 Q2052.6 1277.54 2052.6 1280.87 Q2052.6 1285.98 2049.09 1288.79 Q2045.57 1291.59 2039.09 1291.59 Q2036.91 1291.59 2034.59 1291.15 Q2032.3 1290.73 2029.85 1289.87 L2029.85 1285.36 Q2031.79 1286.49 2034.11 1287.07 Q2036.42 1287.65 2038.95 1287.65 Q2043.34 1287.65 2045.64 1285.92 Q2047.95 1284.18 2047.95 1280.87 Q2047.95 1277.81 2045.8 1276.1 Q2043.67 1274.36 2039.85 1274.36 L2035.82 1274.36 L2035.82 1270.52 L2040.03 1270.52 Q2043.48 1270.52 2045.31 1269.16 Q2047.14 1267.77 2047.14 1265.17 Q2047.14 1262.51 2045.24 1261.1 Q2043.37 1259.67 2039.85 1259.67 Q2037.93 1259.67 2035.73 1260.08 Q2033.53 1260.5 2030.89 1261.38 L2030.89 1257.21 Q2033.55 1256.47 2035.87 1256.1 Q2038.21 1255.73 2040.27 1255.73 Q2045.59 1255.73 2048.69 1258.16 Q2051.79 1260.57 2051.79 1264.69 Q2051.79 1267.56 2050.15 1269.55 Q2048.51 1271.52 2045.47 1272.28 Z" fill="#000000" fill-rule="evenodd" fill-opacity="1" /><path clip-path="url(#clip520)" d="M2061.52 1256.36 L2079.87 1256.36 L2079.87 1260.29 L2065.8 1260.29 L2065.8 1268.76 Q2066.82 1268.42 2067.84 1268.25 Q2068.85 1268.07 2069.87 1268.07 Q2075.66 1268.07 2079.04 1271.24 Q2082.42 1274.41 2082.42 1279.83 Q2082.42 1285.41 2078.95 1288.51 Q2075.47 1291.59 2069.15 1291.59 Q2066.98 1291.59 2064.71 1291.22 Q2062.46 1290.85 2060.06 1290.11 L2060.06 1285.41 Q2062.14 1286.54 2064.36 1287.1 Q2066.59 1287.65 2069.06 1287.65 Q2073.07 1287.65 2075.4 1285.54 Q2077.74 1283.44 2077.74 1279.83 Q2077.74 1276.22 2075.4 1274.11 Q2073.07 1272 2069.06 1272 Q2067.19 1272 2065.31 1272.42 Q2063.46 1272.84 2061.52 1273.72 L2061.52 1256.36 Z" fill="#000000" fill-rule="evenodd" fill-opacity="1" /><path clip-path="url(#clip520)" d="M2091.68 1256.36 L2110.03 1256.36 L2110.03 1260.29 L2095.96 1260.29 L2095.96 1268.76 Q2096.98 1268.42 2098 1268.25 Q2099.02 1268.07 2100.03 1268.07 Q2105.82 1268.07 2109.2 1271.24 Q2112.58 1274.41 2112.58 1279.83 Q2112.58 1285.41 2109.11 1288.51 Q2105.64 1291.59 2099.32 1291.59 Q2097.14 1291.59 2094.87 1291.22 Q2092.63 1290.85 2090.22 1290.11 L2090.22 1285.41 Q2092.3 1286.54 2094.52 1287.1 Q2096.75 1287.65 2099.22 1287.65 Q2103.23 1287.65 2105.57 1285.54 Q2107.9 1283.44 2107.9 1279.83 Q2107.9 1276.22 2105.57 1274.11 Q2103.23 1272 2099.22 1272 Q2097.35 1272 2095.47 1272.42 Q2093.62 1272.84 2091.68 1273.72 L2091.68 1256.36 Z" fill="#000000" fill-rule="evenodd" fill-opacity="1" /><path clip-path="url(#clip520)" d="M2134.64 1260.43 L2122.83 1278.88 L2134.64 1278.88 L2134.64 1260.43 M2133.41 1256.36 L2139.29 1256.36 L2139.29 1278.88 L2144.22 1278.88 L2144.22 1282.77 L2139.29 1282.77 L2139.29 1290.92 L2134.64 1290.92 L2134.64 1282.77 L2119.04 1282.77 L2119.04 1278.25 L2133.41 1256.36 Z" fill="#000000" fill-rule="evenodd" fill-opacity="1" /><path clip-path="url(#clip520)" d="M2164.8 1260.43 L2153 1278.88 L2164.8 1278.88 L2164.8 1260.43 M2163.58 1256.36 L2169.45 1256.36 L2169.45 1278.88 L2174.39 1278.88 L2174.39 1282.77 L2169.45 1282.77 L2169.45 1290.92 L2164.8 1290.92 L2164.8 1282.77 L2149.2 1282.77 L2149.2 1278.25 L2163.58 1256.36 Z" fill="#000000" fill-rule="evenodd" fill-opacity="1" /><path clip-path="url(#clip520)" d="M2196.28 1272.28 Q2199.64 1273 2201.51 1275.27 Q2203.41 1277.54 2203.41 1280.87 Q2203.41 1285.98 2199.89 1288.79 Q2196.38 1291.59 2189.89 1291.59 Q2187.72 1291.59 2185.4 1291.15 Q2183.11 1290.73 2180.66 1289.87 L2180.66 1285.36 Q2182.6 1286.49 2184.92 1287.07 Q2187.23 1287.65 2189.76 1287.65 Q2194.15 1287.65 2196.45 1285.92 Q2198.76 1284.18 2198.76 1280.87 Q2198.76 1277.81 2196.61 1276.1 Q2194.48 1274.36 2190.66 1274.36 L2186.63 1274.36 L2186.63 1270.52 L2190.84 1270.52 Q2194.29 1270.52 2196.12 1269.16 Q2197.95 1267.77 2197.95 1265.17 Q2197.95 1262.51 2196.05 1261.1 Q2194.18 1259.67 2190.66 1259.67 Q2188.74 1259.67 2186.54 1260.08 Q2184.34 1260.5 2181.7 1261.38 L2181.7 1257.21 Q2184.36 1256.47 2186.68 1256.1 Q2189.01 1255.73 2191.08 1255.73 Q2196.4 1255.73 2199.5 1258.16 Q2202.6 1260.57 2202.6 1264.69 Q2202.6 1267.56 2200.96 1269.55 Q2199.32 1271.52 2196.28 1272.28 Z" fill="#000000" fill-rule="evenodd" fill-opacity="1" /><path clip-path="url(#clip520)" d="M2216.31 1286.98 L2232.63 1286.98 L2232.63 1290.92 L2210.68 1290.92 L2210.68 1286.98 Q2213.34 1284.23 2217.93 1279.6 Q2222.53 1274.94 2223.71 1273.6 Q2225.96 1271.08 2226.84 1269.34 Q2227.74 1267.58 2227.74 1265.89 Q2227.74 1263.14 2225.8 1261.4 Q2223.88 1259.67 2220.77 1259.67 Q2218.58 1259.67 2216.12 1260.43 Q2213.69 1261.19 2210.91 1262.74 L2210.91 1258.02 Q2213.74 1256.89 2216.19 1256.31 Q2218.64 1255.73 2220.68 1255.73 Q2226.05 1255.73 2229.25 1258.42 Q2232.44 1261.1 2232.44 1265.59 Q2232.44 1267.72 2231.63 1269.64 Q2230.84 1271.54 2228.74 1274.13 Q2228.16 1274.8 2225.06 1278.02 Q2221.95 1281.22 2216.31 1286.98 Z" fill="#000000" fill-rule="evenodd" fill-opacity="1" /><path clip-path="url(#clip520)" d="M2241.17 1254.94 L2244.87 1254.94 Q2248.34 1260.41 2250.06 1265.64 Q2251.79 1270.87 2251.79 1276.03 Q2251.79 1281.22 2250.06 1286.47 Q2248.34 1291.73 2244.87 1297.17 L2241.17 1297.17 Q2244.25 1291.86 2245.75 1286.63 Q2247.28 1281.38 2247.28 1276.03 Q2247.28 1270.68 2245.75 1265.48 Q2244.25 1260.27 2241.17 1254.94 Z" fill="#000000" fill-rule="evenodd" fill-opacity="1" /><polyline clip-path="url(#clip520)" style="stroke:#e26f46; stroke-linecap:round; stroke-linejoin:round; stroke-width:4; stroke-opacity:1; fill:none" points="
  1631.61,1325.48 1778.02,1325.48 
  "/>
<path clip-path="url(#clip520)" d="M1822.77 1321.81 Q1824.36 1318.94 1826.59 1317.57 Q1828.81 1316.2 1831.82 1316.2 Q1835.87 1316.2 1838.07 1319.05 Q1840.27 1321.88 1840.27 1327.11 L1840.27 1342.76 L1835.98 1342.76 L1835.98 1327.25 Q1835.98 1323.52 1834.67 1321.71 Q1833.35 1319.91 1830.64 1319.91 Q1827.33 1319.91 1825.41 1322.11 Q1823.48 1324.31 1823.48 1328.1 L1823.48 1342.76 L1819.2 1342.76 L1819.2 1327.25 Q1819.2 1323.5 1817.88 1321.71 Q1816.56 1319.91 1813.81 1319.91 Q1810.54 1319.91 1808.62 1322.13 Q1806.7 1324.33 1806.7 1328.1 L1806.7 1342.76 L1802.42 1342.76 L1802.42 1316.83 L1806.7 1316.83 L1806.7 1320.86 Q1808.16 1318.47 1810.2 1317.34 Q1812.23 1316.2 1815.04 1316.2 Q1817.86 1316.2 1819.83 1317.64 Q1821.82 1319.07 1822.77 1321.81 Z" fill="#000000" fill-rule="evenodd" fill-opacity="1" /><path clip-path="url(#clip520)" d="M1860.54 1329.72 Q1855.38 1329.72 1853.39 1330.9 Q1851.4 1332.08 1851.4 1334.93 Q1851.4 1337.2 1852.88 1338.54 Q1854.39 1339.86 1856.96 1339.86 Q1860.5 1339.86 1862.63 1337.36 Q1864.78 1334.84 1864.78 1330.67 L1864.78 1329.72 L1860.54 1329.72 M1869.04 1327.96 L1869.04 1342.76 L1864.78 1342.76 L1864.78 1338.82 Q1863.32 1341.18 1861.15 1342.32 Q1858.97 1343.43 1855.82 1343.43 Q1851.84 1343.43 1849.48 1341.2 Q1847.14 1338.96 1847.14 1335.21 Q1847.14 1330.83 1850.06 1328.61 Q1853 1326.39 1858.81 1326.39 L1864.78 1326.39 L1864.78 1325.97 Q1864.78 1323.03 1862.84 1321.44 Q1860.91 1319.82 1857.42 1319.82 Q1855.2 1319.82 1853.09 1320.35 Q1850.98 1320.88 1849.04 1321.95 L1849.04 1318.01 Q1851.38 1317.11 1853.58 1316.67 Q1855.78 1316.2 1857.86 1316.2 Q1863.48 1316.2 1866.26 1319.12 Q1869.04 1322.04 1869.04 1327.96 Z" fill="#000000" fill-rule="evenodd" fill-opacity="1" /><path clip-path="url(#clip520)" d="M1894.34 1317.59 L1894.34 1321.62 Q1892.54 1320.7 1890.59 1320.23 Q1888.65 1319.77 1886.56 1319.77 Q1883.39 1319.77 1881.79 1320.74 Q1880.22 1321.71 1880.22 1323.66 Q1880.22 1325.14 1881.35 1326 Q1882.49 1326.83 1885.91 1327.59 L1887.37 1327.92 Q1891.91 1328.89 1893.81 1330.67 Q1895.73 1332.43 1895.73 1335.6 Q1895.73 1339.21 1892.86 1341.32 Q1890.01 1343.43 1885.01 1343.43 Q1882.93 1343.43 1880.66 1343.01 Q1878.41 1342.62 1875.91 1341.81 L1875.91 1337.41 Q1878.28 1338.63 1880.57 1339.26 Q1882.86 1339.86 1885.1 1339.86 Q1888.11 1339.86 1889.73 1338.84 Q1891.35 1337.8 1891.35 1335.93 Q1891.35 1334.19 1890.17 1333.26 Q1889.02 1332.34 1885.06 1331.48 L1883.58 1331.14 Q1879.62 1330.3 1877.86 1328.59 Q1876.1 1326.85 1876.1 1323.84 Q1876.1 1320.19 1878.69 1318.2 Q1881.29 1316.2 1886.05 1316.2 Q1888.41 1316.2 1890.5 1316.55 Q1892.58 1316.9 1894.34 1317.59 Z" fill="#000000" fill-rule="evenodd" fill-opacity="1" /><path clip-path="url(#clip520)" d="M1919.04 1317.59 L1919.04 1321.62 Q1917.23 1320.7 1915.29 1320.23 Q1913.35 1319.77 1911.26 1319.77 Q1908.09 1319.77 1906.49 1320.74 Q1904.92 1321.71 1904.92 1323.66 Q1904.92 1325.14 1906.05 1326 Q1907.19 1326.83 1910.61 1327.59 L1912.07 1327.92 Q1916.61 1328.89 1918.51 1330.67 Q1920.43 1332.43 1920.43 1335.6 Q1920.43 1339.21 1917.56 1341.32 Q1914.71 1343.43 1909.71 1343.43 Q1907.63 1343.43 1905.36 1343.01 Q1903.11 1342.62 1900.61 1341.81 L1900.61 1337.41 Q1902.97 1338.63 1905.27 1339.26 Q1907.56 1339.86 1909.8 1339.86 Q1912.81 1339.86 1914.43 1338.84 Q1916.05 1337.8 1916.05 1335.93 Q1916.05 1334.19 1914.87 1333.26 Q1913.72 1332.34 1909.76 1331.48 L1908.28 1331.14 Q1904.32 1330.3 1902.56 1328.59 Q1900.8 1326.85 1900.8 1323.84 Q1900.8 1320.19 1903.39 1318.2 Q1905.98 1316.2 1910.75 1316.2 Q1913.11 1316.2 1915.2 1316.55 Q1917.28 1316.9 1919.04 1317.59 Z" fill="#000000" fill-rule="evenodd" fill-opacity="1" /><path clip-path="url(#clip520)" d="M1927.81 1336.88 L1932.7 1336.88 L1932.7 1342.76 L1927.81 1342.76 L1927.81 1336.88 Z" fill="#000000" fill-rule="evenodd" fill-opacity="1" /><path clip-path="url(#clip520)" d="M1939.22 1316.83 L1943.74 1316.83 L1951.84 1338.59 L1959.94 1316.83 L1964.46 1316.83 L1954.73 1342.76 L1948.95 1342.76 L1939.22 1316.83 Z" fill="#000000" fill-rule="evenodd" fill-opacity="1" /><path clip-path="url(#clip520)" d="M1995.64 1306.78 Q1992.53 1312.11 1991.03 1317.32 Q1989.53 1322.52 1989.53 1327.87 Q1989.53 1333.22 1991.03 1338.47 Q1992.56 1343.7 1995.64 1349.01 L1991.93 1349.01 Q1988.46 1343.57 1986.72 1338.31 Q1985.01 1333.06 1985.01 1327.87 Q1985.01 1322.71 1986.72 1317.48 Q1988.44 1312.25 1991.93 1306.78 L1995.64 1306.78 Z" fill="#000000" fill-rule="evenodd" fill-opacity="1" /><path clip-path="url(#clip520)" d="M2018.67 1324.12 Q2022.03 1324.84 2023.9 1327.11 Q2025.8 1329.38 2025.8 1332.71 Q2025.8 1337.82 2022.28 1340.63 Q2018.76 1343.43 2012.28 1343.43 Q2010.1 1343.43 2007.79 1342.99 Q2005.5 1342.57 2003.04 1341.71 L2003.04 1337.2 Q2004.99 1338.33 2007.3 1338.91 Q2009.62 1339.49 2012.14 1339.49 Q2016.54 1339.49 2018.83 1337.76 Q2021.15 1336.02 2021.15 1332.71 Q2021.15 1329.65 2018.99 1327.94 Q2016.86 1326.2 2013.04 1326.2 L2009.02 1326.2 L2009.02 1322.36 L2013.23 1322.36 Q2016.68 1322.36 2018.51 1321 Q2020.34 1319.61 2020.34 1317.01 Q2020.34 1314.35 2018.44 1312.94 Q2016.56 1311.51 2013.04 1311.51 Q2011.12 1311.51 2008.92 1311.92 Q2006.72 1312.34 2004.09 1313.22 L2004.09 1309.05 Q2006.75 1308.31 2009.06 1307.94 Q2011.4 1307.57 2013.46 1307.57 Q2018.78 1307.57 2021.89 1310 Q2024.99 1312.41 2024.99 1316.53 Q2024.99 1319.4 2023.34 1321.39 Q2021.7 1323.36 2018.67 1324.12 Z" fill="#000000" fill-rule="evenodd" fill-opacity="1" /><path clip-path="url(#clip520)" d="M2048.83 1324.12 Q2052.19 1324.84 2054.06 1327.11 Q2055.96 1329.38 2055.96 1332.71 Q2055.96 1337.82 2052.44 1340.63 Q2048.92 1343.43 2042.44 1343.43 Q2040.27 1343.43 2037.95 1342.99 Q2035.66 1342.57 2033.21 1341.71 L2033.21 1337.2 Q2035.15 1338.33 2037.46 1338.91 Q2039.78 1339.49 2042.3 1339.49 Q2046.7 1339.49 2048.99 1337.76 Q2051.31 1336.02 2051.31 1332.71 Q2051.31 1329.65 2049.15 1327.94 Q2047.03 1326.2 2043.21 1326.2 L2039.18 1326.2 L2039.18 1322.36 L2043.39 1322.36 Q2046.84 1322.36 2048.67 1321 Q2050.5 1319.61 2050.5 1317.01 Q2050.5 1314.35 2048.6 1312.94 Q2046.72 1311.51 2043.21 1311.51 Q2041.28 1311.51 2039.09 1311.92 Q2036.89 1312.34 2034.25 1313.22 L2034.25 1309.05 Q2036.91 1308.31 2039.22 1307.94 Q2041.56 1307.57 2043.62 1307.57 Q2048.95 1307.57 2052.05 1310 Q2055.15 1312.41 2055.15 1316.53 Q2055.15 1319.4 2053.51 1321.39 Q2051.86 1323.36 2048.83 1324.12 Z" fill="#000000" fill-rule="evenodd" fill-opacity="1" /><path clip-path="url(#clip520)" d="M2064.87 1308.2 L2083.23 1308.2 L2083.23 1312.13 L2069.15 1312.13 L2069.15 1320.6 Q2070.17 1320.26 2071.19 1320.09 Q2072.21 1319.91 2073.23 1319.91 Q2079.02 1319.91 2082.4 1323.08 Q2085.77 1326.25 2085.77 1331.67 Q2085.77 1337.25 2082.3 1340.35 Q2078.83 1343.43 2072.51 1343.43 Q2070.34 1343.43 2068.07 1343.06 Q2065.82 1342.69 2063.41 1341.95 L2063.41 1337.25 Q2065.5 1338.38 2067.72 1338.94 Q2069.94 1339.49 2072.42 1339.49 Q2076.42 1339.49 2078.76 1337.38 Q2081.1 1335.28 2081.1 1331.67 Q2081.1 1328.06 2078.76 1325.95 Q2076.42 1323.84 2072.42 1323.84 Q2070.54 1323.84 2068.67 1324.26 Q2066.82 1324.68 2064.87 1325.56 L2064.87 1308.2 Z" fill="#000000" fill-rule="evenodd" fill-opacity="1" /><path clip-path="url(#clip520)" d="M2095.03 1308.2 L2113.39 1308.2 L2113.39 1312.13 L2099.32 1312.13 L2099.32 1320.6 Q2100.33 1320.26 2101.35 1320.09 Q2102.37 1319.91 2103.39 1319.91 Q2109.18 1319.91 2112.56 1323.08 Q2115.94 1326.25 2115.94 1331.67 Q2115.94 1337.25 2112.46 1340.35 Q2108.99 1343.43 2102.67 1343.43 Q2100.5 1343.43 2098.23 1343.06 Q2095.98 1342.69 2093.58 1341.95 L2093.58 1337.25 Q2095.66 1338.38 2097.88 1338.94 Q2100.1 1339.49 2102.58 1339.49 Q2106.58 1339.49 2108.92 1337.38 Q2111.26 1335.28 2111.26 1331.67 Q2111.26 1328.06 2108.92 1325.95 Q2106.58 1323.84 2102.58 1323.84 Q2100.71 1323.84 2098.83 1324.26 Q2096.98 1324.68 2095.03 1325.56 L2095.03 1308.2 Z" fill="#000000" fill-rule="evenodd" fill-opacity="1" /><path clip-path="url(#clip520)" d="M2138 1312.27 L2126.19 1330.72 L2138 1330.72 L2138 1312.27 M2136.77 1308.2 L2142.65 1308.2 L2142.65 1330.72 L2147.58 1330.72 L2147.58 1334.61 L2142.65 1334.61 L2142.65 1342.76 L2138 1342.76 L2138 1334.61 L2122.39 1334.61 L2122.39 1330.09 L2136.77 1308.2 Z" fill="#000000" fill-rule="evenodd" fill-opacity="1" /><path clip-path="url(#clip520)" d="M2168.16 1312.27 L2156.35 1330.72 L2168.16 1330.72 L2168.16 1312.27 M2166.93 1308.2 L2172.81 1308.2 L2172.81 1330.72 L2177.74 1330.72 L2177.74 1334.61 L2172.81 1334.61 L2172.81 1342.76 L2168.16 1342.76 L2168.16 1334.61 L2152.56 1334.61 L2152.56 1330.09 L2166.93 1308.2 Z" fill="#000000" fill-rule="evenodd" fill-opacity="1" /><path clip-path="url(#clip520)" d="M2199.64 1324.12 Q2203 1324.84 2204.87 1327.11 Q2206.77 1329.38 2206.77 1332.71 Q2206.77 1337.82 2203.25 1340.63 Q2199.73 1343.43 2193.25 1343.43 Q2191.08 1343.43 2188.76 1342.99 Q2186.47 1342.57 2184.02 1341.71 L2184.02 1337.2 Q2185.96 1338.33 2188.27 1338.91 Q2190.59 1339.49 2193.11 1339.49 Q2197.51 1339.49 2199.8 1337.76 Q2202.12 1336.02 2202.12 1332.71 Q2202.12 1329.65 2199.96 1327.94 Q2197.83 1326.2 2194.01 1326.2 L2189.99 1326.2 L2189.99 1322.36 L2194.2 1322.36 Q2197.65 1322.36 2199.48 1321 Q2201.31 1319.61 2201.31 1317.01 Q2201.31 1314.35 2199.41 1312.94 Q2197.53 1311.51 2194.01 1311.51 Q2192.09 1311.51 2189.89 1311.92 Q2187.7 1312.34 2185.06 1313.22 L2185.06 1309.05 Q2187.72 1308.31 2190.03 1307.94 Q2192.37 1307.57 2194.43 1307.57 Q2199.76 1307.57 2202.86 1310 Q2205.96 1312.41 2205.96 1316.53 Q2205.96 1319.4 2204.32 1321.39 Q2202.67 1323.36 2199.64 1324.12 Z" fill="#000000" fill-rule="evenodd" fill-opacity="1" /><path clip-path="url(#clip520)" d="M2229.8 1324.12 Q2233.16 1324.84 2235.03 1327.11 Q2236.93 1329.38 2236.93 1332.71 Q2236.93 1337.82 2233.41 1340.63 Q2229.89 1343.43 2223.41 1343.43 Q2221.24 1343.43 2218.92 1342.99 Q2216.63 1342.57 2214.18 1341.71 L2214.18 1337.2 Q2216.12 1338.33 2218.44 1338.91 Q2220.75 1339.49 2223.27 1339.49 Q2227.67 1339.49 2229.96 1337.76 Q2232.28 1336.02 2232.28 1332.71 Q2232.28 1329.65 2230.13 1327.94 Q2228 1326.2 2224.18 1326.2 L2220.15 1326.2 L2220.15 1322.36 L2224.36 1322.36 Q2227.81 1322.36 2229.64 1321 Q2231.47 1319.61 2231.47 1317.01 Q2231.47 1314.35 2229.57 1312.94 Q2227.7 1311.51 2224.18 1311.51 Q2222.26 1311.51 2220.06 1311.92 Q2217.86 1312.34 2215.22 1313.22 L2215.22 1309.05 Q2217.88 1308.31 2220.2 1307.94 Q2222.53 1307.57 2224.59 1307.57 Q2229.92 1307.57 2233.02 1310 Q2236.12 1312.41 2236.12 1316.53 Q2236.12 1319.4 2234.48 1321.39 Q2232.83 1323.36 2229.8 1324.12 Z" fill="#000000" fill-rule="evenodd" fill-opacity="1" /><path clip-path="url(#clip520)" d="M2244.52 1306.78 L2248.23 1306.78 Q2251.7 1312.25 2253.41 1317.48 Q2255.15 1322.71 2255.15 1327.87 Q2255.15 1333.06 2253.41 1338.31 Q2251.7 1343.57 2248.23 1349.01 L2244.52 1349.01 Q2247.6 1343.7 2249.11 1338.47 Q2250.64 1333.22 2250.64 1327.87 Q2250.64 1322.52 2249.11 1317.32 Q2247.6 1312.11 2244.52 1306.78 Z" fill="#000000" fill-rule="evenodd" fill-opacity="1" /></svg>
