<?xml version="1.0" encoding="utf-8"?>
<svg xmlns="http://www.w3.org/2000/svg" xmlns:xlink="http://www.w3.org/1999/xlink" width="600" height="400" viewBox="0 0 2400 1600">
<defs>
  <clipPath id="clip990">
    <rect x="0" y="0" width="2400" height="1600"/>
  </clipPath>
</defs>
<path clip-path="url(#clip990)" d="M0 1600 L2400 1600 L2400 0 L0 0  Z" fill="#ffffff" fill-rule="evenodd" fill-opacity="1"/>
<defs>
  <clipPath id="clip991">
    <rect x="480" y="0" width="1681" height="1600"/>
  </clipPath>
</defs>
<path clip-path="url(#clip990)" d="M303.503 1401.58 L2352.76 1401.58 L2352.76 47.2441 L303.503 47.2441  Z" fill="#ffffff" fill-rule="evenodd" fill-opacity="1"/>
<defs>
  <clipPath id="clip992">
    <rect x="303" y="47" width="2050" height="1355"/>
  </clipPath>
</defs>
<polyline clip-path="url(#clip992)" style="stroke:#000000; stroke-linecap:round; stroke-linejoin:round; stroke-width:2; stroke-opacity:0.1; fill:none" points="361.501,1401.58 361.501,47.2441 "/>
<polyline clip-path="url(#clip992)" style="stroke:#000000; stroke-linecap:round; stroke-linejoin:round; stroke-width:2; stroke-opacity:0.1; fill:none" points="748.152,1401.58 748.152,47.2441 "/>
<polyline clip-path="url(#clip992)" style="stroke:#000000; stroke-linecap:round; stroke-linejoin:round; stroke-width:2; stroke-opacity:0.1; fill:none" points="1134.8,1401.58 1134.8,47.2441 "/>
<polyline clip-path="url(#clip992)" style="stroke:#000000; stroke-linecap:round; stroke-linejoin:round; stroke-width:2; stroke-opacity:0.1; fill:none" points="1521.46,1401.58 1521.46,47.2441 "/>
<polyline clip-path="url(#clip992)" style="stroke:#000000; stroke-linecap:round; stroke-linejoin:round; stroke-width:2; stroke-opacity:0.1; fill:none" points="1908.11,1401.58 1908.11,47.2441 "/>
<polyline clip-path="url(#clip992)" style="stroke:#000000; stroke-linecap:round; stroke-linejoin:round; stroke-width:2; stroke-opacity:0.1; fill:none" points="2294.76,1401.58 2294.76,47.2441 "/>
<polyline clip-path="url(#clip990)" style="stroke:#000000; stroke-linecap:round; stroke-linejoin:round; stroke-width:4; stroke-opacity:1; fill:none" points="303.503,1401.58 2352.76,1401.58 "/>
<polyline clip-path="url(#clip990)" style="stroke:#000000; stroke-linecap:round; stroke-linejoin:round; stroke-width:4; stroke-opacity:1; fill:none" points="361.501,1401.58 361.501,1382.68 "/>
<polyline clip-path="url(#clip990)" style="stroke:#000000; stroke-linecap:round; stroke-linejoin:round; stroke-width:4; stroke-opacity:1; fill:none" points="748.152,1401.58 748.152,1382.68 "/>
<polyline clip-path="url(#clip990)" style="stroke:#000000; stroke-linecap:round; stroke-linejoin:round; stroke-width:4; stroke-opacity:1; fill:none" points="1134.8,1401.58 1134.8,1382.68 "/>
<polyline clip-path="url(#clip990)" style="stroke:#000000; stroke-linecap:round; stroke-linejoin:round; stroke-width:4; stroke-opacity:1; fill:none" points="1521.46,1401.58 1521.46,1382.68 "/>
<polyline clip-path="url(#clip990)" style="stroke:#000000; stroke-linecap:round; stroke-linejoin:round; stroke-width:4; stroke-opacity:1; fill:none" points="1908.11,1401.58 1908.11,1382.68 "/>
<polyline clip-path="url(#clip990)" style="stroke:#000000; stroke-linecap:round; stroke-linejoin:round; stroke-width:4; stroke-opacity:1; fill:none" points="2294.76,1401.58 2294.76,1382.68 "/>
<path clip-path="url(#clip990)" d="M361.501 1438.36 Q356.084 1438.36 353.341 1443.71 Q350.633 1449.02 350.633 1459.71 Q350.633 1470.37 353.341 1475.72 Q356.084 1481.03 361.501 1481.03 Q366.952 1481.03 369.66 1475.72 Q372.403 1470.37 372.403 1459.71 Q372.403 1449.02 369.66 1443.71 Q366.952 1438.36 361.501 1438.36 M361.501 1432.8 Q370.216 1432.8 374.799 1439.71 Q379.417 1446.59 379.417 1459.71 Q379.417 1472.8 374.799 1479.71 Q370.216 1486.59 361.501 1486.59 Q352.785 1486.59 348.167 1479.71 Q343.584 1472.8 343.584 1459.71 Q343.584 1446.59 348.167 1439.71 Q352.785 1432.8 361.501 1432.8 Z" fill="#000000" fill-rule="nonzero" fill-opacity="1" /><path clip-path="url(#clip990)" d="M733.725 1479.68 L745.183 1479.68 L745.183 1440.13 L732.718 1442.63 L732.718 1436.24 L745.114 1433.74 L752.128 1433.74 L752.128 1479.68 L763.586 1479.68 L763.586 1485.58 L733.725 1485.58 L733.725 1479.68 Z" fill="#000000" fill-rule="nonzero" fill-opacity="1" /><path clip-path="url(#clip990)" d="M1126.78 1479.68 L1151.26 1479.68 L1151.26 1485.58 L1118.35 1485.58 L1118.35 1479.68 Q1122.34 1475.55 1129.21 1468.6 Q1136.12 1461.62 1137.89 1459.61 Q1141.26 1455.82 1142.58 1453.22 Q1143.94 1450.58 1143.94 1448.05 Q1143.94 1443.91 1141.02 1441.31 Q1138.14 1438.71 1133.48 1438.71 Q1130.19 1438.71 1126.51 1439.85 Q1122.86 1441 1118.69 1443.32 L1118.69 1436.24 Q1122.93 1434.54 1126.61 1433.67 Q1130.29 1432.8 1133.35 1432.8 Q1141.4 1432.8 1146.19 1436.83 Q1150.98 1440.86 1150.98 1447.59 Q1150.98 1450.79 1149.77 1453.67 Q1148.59 1456.52 1145.43 1460.41 Q1144.56 1461.41 1139.91 1466.24 Q1135.26 1471.03 1126.78 1479.68 Z" fill="#000000" fill-rule="nonzero" fill-opacity="1" /><path clip-path="url(#clip990)" d="M1527.83 1457.63 Q1532.86 1458.7 1535.67 1462.11 Q1538.52 1465.51 1538.52 1470.51 Q1538.52 1478.18 1533.24 1482.39 Q1527.97 1486.59 1518.24 1486.59 Q1514.98 1486.59 1511.51 1485.93 Q1508.07 1485.3 1504.39 1484.02 L1504.39 1477.25 Q1507.31 1478.95 1510.78 1479.82 Q1514.25 1480.68 1518.04 1480.68 Q1524.63 1480.68 1528.07 1478.08 Q1531.54 1475.48 1531.54 1470.51 Q1531.54 1465.93 1528.31 1463.36 Q1525.12 1460.75 1519.39 1460.75 L1513.35 1460.75 L1513.35 1454.99 L1519.67 1454.99 Q1524.84 1454.99 1527.58 1452.94 Q1530.33 1450.86 1530.33 1446.97 Q1530.33 1442.98 1527.48 1440.86 Q1524.67 1438.71 1519.39 1438.71 Q1516.51 1438.71 1513.21 1439.33 Q1509.91 1439.96 1505.95 1441.27 L1505.95 1435.02 Q1509.94 1433.91 1513.42 1433.36 Q1516.92 1432.8 1520.01 1432.8 Q1528 1432.8 1532.65 1436.45 Q1537.31 1440.06 1537.31 1446.24 Q1537.31 1450.55 1534.84 1453.53 Q1532.38 1456.48 1527.83 1457.63 Z" fill="#000000" fill-rule="nonzero" fill-opacity="1" /><path clip-path="url(#clip990)" d="M1912.62 1439.85 L1894.91 1467.52 L1912.62 1467.52 L1912.62 1439.85 M1910.78 1433.74 L1919.6 1433.74 L1919.6 1467.52 L1927 1467.52 L1927 1473.36 L1919.6 1473.36 L1919.6 1485.58 L1912.62 1485.58 L1912.62 1473.36 L1889.22 1473.36 L1889.22 1466.59 L1910.78 1433.74 Z" fill="#000000" fill-rule="nonzero" fill-opacity="1" /><path clip-path="url(#clip990)" d="M2280.17 1433.74 L2307.71 1433.74 L2307.71 1439.64 L2286.6 1439.64 L2286.6 1452.35 Q2288.13 1451.83 2289.65 1451.59 Q2291.18 1451.31 2292.71 1451.31 Q2301.39 1451.31 2306.46 1456.07 Q2311.53 1460.82 2311.53 1468.95 Q2311.53 1477.32 2306.32 1481.97 Q2301.11 1486.59 2291.63 1486.59 Q2288.37 1486.59 2284.97 1486.03 Q2281.6 1485.48 2277.99 1484.36 L2277.99 1477.32 Q2281.11 1479.02 2284.45 1479.85 Q2287.78 1480.68 2291.49 1480.68 Q2297.5 1480.68 2301.01 1477.52 Q2304.52 1474.36 2304.52 1468.95 Q2304.52 1463.53 2301.01 1460.37 Q2297.5 1457.21 2291.49 1457.21 Q2288.68 1457.21 2285.87 1457.84 Q2283.09 1458.46 2280.17 1459.78 L2280.17 1433.74 Z" fill="#000000" fill-rule="nonzero" fill-opacity="1" /><path clip-path="url(#clip990)" d="M1271.74 1527.62 L1271.74 1538.66 L1284.9 1538.66 L1284.9 1543.62 L1271.74 1543.62 L1271.74 1564.74 Q1271.74 1569.49 1273.03 1570.85 Q1274.35 1572.2 1278.34 1572.2 L1284.9 1572.2 L1284.9 1577.55 L1278.34 1577.55 Q1270.94 1577.55 1268.13 1574.8 Q1265.32 1572.03 1265.32 1564.74 L1265.32 1543.62 L1260.63 1543.62 L1260.63 1538.66 L1265.32 1538.66 L1265.32 1527.62 L1271.74 1527.62 Z" fill="#000000" fill-rule="nonzero" fill-opacity="1" /><path clip-path="url(#clip990)" d="M1315.32 1523.52 L1330.04 1523.52 L1330.04 1528.49 L1321.71 1528.49 L1321.71 1581.96 L1330.04 1581.96 L1330.04 1586.92 L1315.32 1586.92 L1315.32 1523.52 Z" fill="#000000" fill-rule="nonzero" fill-opacity="1" /><path clip-path="url(#clip990)" d="M1368.44 1539.8 L1368.44 1545.85 Q1365.73 1544.46 1362.82 1543.76 Q1359.9 1543.07 1356.78 1543.07 Q1352.02 1543.07 1349.62 1544.53 Q1347.26 1545.99 1347.26 1548.9 Q1347.26 1551.12 1348.96 1552.41 Q1350.66 1553.66 1355.8 1554.8 L1357.99 1555.29 Q1364.8 1556.75 1367.64 1559.42 Q1370.53 1562.06 1370.53 1566.82 Q1370.53 1572.24 1366.22 1575.4 Q1361.95 1578.55 1354.45 1578.55 Q1351.32 1578.55 1347.92 1577.93 Q1344.55 1577.34 1340.8 1576.12 L1340.8 1569.53 Q1344.34 1571.37 1347.78 1572.3 Q1351.22 1573.21 1354.59 1573.21 Q1359.1 1573.21 1361.53 1571.68 Q1363.96 1570.12 1363.96 1567.3 Q1363.96 1564.7 1362.19 1563.31 Q1360.46 1561.92 1354.52 1560.64 L1352.3 1560.12 Q1346.36 1558.87 1343.72 1556.3 Q1341.08 1553.69 1341.08 1549.18 Q1341.08 1543.69 1344.97 1540.71 Q1348.86 1537.72 1356.01 1537.72 Q1359.55 1537.72 1362.68 1538.24 Q1365.8 1538.76 1368.44 1539.8 Z" fill="#000000" fill-rule="nonzero" fill-opacity="1" /><path clip-path="url(#clip990)" d="M1395.63 1523.52 L1395.63 1586.92 L1380.91 1586.92 L1380.91 1581.96 L1389.21 1581.96 L1389.21 1528.49 L1380.91 1528.49 L1380.91 1523.52 L1395.63 1523.52 Z" fill="#000000" fill-rule="nonzero" fill-opacity="1" /><polyline clip-path="url(#clip992)" style="stroke:#000000; stroke-linecap:round; stroke-linejoin:round; stroke-width:2; stroke-opacity:0.1; fill:none" points="303.503,1363.02 2352.76,1363.02 "/>
<polyline clip-path="url(#clip992)" style="stroke:#000000; stroke-linecap:round; stroke-linejoin:round; stroke-width:2; stroke-opacity:0.1; fill:none" points="303.503,1096.97 2352.76,1096.97 "/>
<polyline clip-path="url(#clip992)" style="stroke:#000000; stroke-linecap:round; stroke-linejoin:round; stroke-width:2; stroke-opacity:0.1; fill:none" points="303.503,830.926 2352.76,830.926 "/>
<polyline clip-path="url(#clip992)" style="stroke:#000000; stroke-linecap:round; stroke-linejoin:round; stroke-width:2; stroke-opacity:0.1; fill:none" points="303.503,564.878 2352.76,564.878 "/>
<polyline clip-path="url(#clip992)" style="stroke:#000000; stroke-linecap:round; stroke-linejoin:round; stroke-width:2; stroke-opacity:0.1; fill:none" points="303.503,298.829 2352.76,298.829 "/>
<polyline clip-path="url(#clip990)" style="stroke:#000000; stroke-linecap:round; stroke-linejoin:round; stroke-width:4; stroke-opacity:1; fill:none" points="303.503,1401.58 303.503,47.2441 "/>
<polyline clip-path="url(#clip990)" style="stroke:#000000; stroke-linecap:round; stroke-linejoin:round; stroke-width:4; stroke-opacity:1; fill:none" points="303.503,1363.02 322.401,1363.02 "/>
<polyline clip-path="url(#clip990)" style="stroke:#000000; stroke-linecap:round; stroke-linejoin:round; stroke-width:4; stroke-opacity:1; fill:none" points="303.503,1096.97 322.401,1096.97 "/>
<polyline clip-path="url(#clip990)" style="stroke:#000000; stroke-linecap:round; stroke-linejoin:round; stroke-width:4; stroke-opacity:1; fill:none" points="303.503,830.926 322.401,830.926 "/>
<polyline clip-path="url(#clip990)" style="stroke:#000000; stroke-linecap:round; stroke-linejoin:round; stroke-width:4; stroke-opacity:1; fill:none" points="303.503,564.878 322.401,564.878 "/>
<polyline clip-path="url(#clip990)" style="stroke:#000000; stroke-linecap:round; stroke-linejoin:round; stroke-width:4; stroke-opacity:1; fill:none" points="303.503,298.829 322.401,298.829 "/>
<path clip-path="url(#clip990)" d="M136.497 1341.72 Q131.08 1341.72 128.337 1347.07 Q125.629 1352.38 125.629 1363.08 Q125.629 1373.73 128.337 1379.08 Q131.08 1384.39 136.497 1384.39 Q141.948 1384.39 144.656 1379.08 Q147.399 1373.73 147.399 1363.08 Q147.399 1352.38 144.656 1347.07 Q141.948 1341.72 136.497 1341.72 M136.497 1336.17 Q145.212 1336.17 149.795 1343.08 Q154.413 1349.95 154.413 1363.08 Q154.413 1376.17 149.795 1383.08 Q145.212 1389.95 136.497 1389.95 Q127.781 1389.95 123.163 1383.08 Q118.58 1376.17 118.58 1363.08 Q118.58 1349.95 123.163 1343.08 Q127.781 1336.17 136.497 1336.17 Z" fill="#000000" fill-rule="nonzero" fill-opacity="1" /><path clip-path="url(#clip990)" d="M166.74 1380.12 L174.066 1380.12 L174.066 1388.94 L166.74 1388.94 L166.74 1380.12 Z" fill="#000000" fill-rule="nonzero" fill-opacity="1" /><path clip-path="url(#clip990)" d="M189.413 1337.1 L216.948 1337.1 L216.948 1343.01 L195.837 1343.01 L195.837 1355.71 Q197.364 1355.19 198.892 1354.95 Q200.42 1354.67 201.948 1354.67 Q210.628 1354.67 215.698 1359.43 Q220.767 1364.19 220.767 1372.31 Q220.767 1380.68 215.559 1385.33 Q210.35 1389.95 200.871 1389.95 Q197.608 1389.95 194.205 1389.39 Q190.837 1388.84 187.226 1387.73 L187.226 1380.68 Q190.351 1382.38 193.684 1383.21 Q197.017 1384.05 200.732 1384.05 Q206.739 1384.05 210.246 1380.89 Q213.753 1377.73 213.753 1372.31 Q213.753 1366.89 210.246 1363.73 Q206.739 1360.58 200.732 1360.58 Q197.92 1360.58 195.108 1361.2 Q192.33 1361.83 189.413 1363.14 L189.413 1337.1 Z" fill="#000000" fill-rule="nonzero" fill-opacity="1" /><path clip-path="url(#clip990)" d="M249.586 1341.72 Q244.17 1341.72 241.427 1347.07 Q238.718 1352.38 238.718 1363.08 Q238.718 1373.73 241.427 1379.08 Q244.17 1384.39 249.586 1384.39 Q255.038 1384.39 257.746 1379.08 Q260.489 1373.73 260.489 1363.08 Q260.489 1352.38 257.746 1347.07 Q255.038 1341.72 249.586 1341.72 M249.586 1336.17 Q258.302 1336.17 262.885 1343.08 Q267.503 1349.95 267.503 1363.08 Q267.503 1376.17 262.885 1383.08 Q258.302 1389.95 249.586 1389.95 Q240.871 1389.95 236.253 1383.08 Q231.67 1376.17 231.67 1363.08 Q231.67 1349.95 236.253 1343.08 Q240.871 1336.17 249.586 1336.17 Z" fill="#000000" fill-rule="nonzero" fill-opacity="1" /><path clip-path="url(#clip990)" d="M137.99 1075.67 Q132.573 1075.67 129.83 1081.02 Q127.122 1086.33 127.122 1097.03 Q127.122 1107.69 129.83 1113.03 Q132.573 1118.35 137.99 1118.35 Q143.441 1118.35 146.149 1113.03 Q148.892 1107.69 148.892 1097.03 Q148.892 1086.33 146.149 1081.02 Q143.441 1075.67 137.99 1075.67 M137.99 1070.12 Q146.705 1070.12 151.288 1077.03 Q155.906 1083.9 155.906 1097.03 Q155.906 1110.12 151.288 1117.03 Q146.705 1123.9 137.99 1123.9 Q129.275 1123.9 124.657 1117.03 Q120.073 1110.12 120.073 1097.03 Q120.073 1083.9 124.657 1077.03 Q129.275 1070.12 137.99 1070.12 Z" fill="#000000" fill-rule="nonzero" fill-opacity="1" /><path clip-path="url(#clip990)" d="M168.233 1114.08 L175.559 1114.08 L175.559 1122.89 L168.233 1122.89 L168.233 1114.08 Z" fill="#000000" fill-rule="nonzero" fill-opacity="1" /><path clip-path="url(#clip990)" d="M189.066 1071.05 L222.399 1071.05 L222.399 1074.04 L203.58 1122.89 L196.253 1122.89 L213.962 1076.96 L189.066 1076.96 L189.066 1071.05 Z" fill="#000000" fill-rule="nonzero" fill-opacity="1" /><path clip-path="url(#clip990)" d="M236.149 1071.05 L263.684 1071.05 L263.684 1076.96 L242.573 1076.96 L242.573 1089.67 Q244.1 1089.14 245.628 1088.9 Q247.156 1088.62 248.684 1088.62 Q257.364 1088.62 262.434 1093.38 Q267.503 1098.14 267.503 1106.26 Q267.503 1114.63 262.295 1119.28 Q257.086 1123.9 247.607 1123.9 Q244.343 1123.9 240.941 1123.35 Q237.573 1122.79 233.961 1121.68 L233.961 1114.63 Q237.086 1116.33 240.42 1117.17 Q243.753 1118 247.468 1118 Q253.475 1118 256.982 1114.84 Q260.489 1111.68 260.489 1106.26 Q260.489 1100.85 256.982 1097.69 Q253.475 1094.53 247.468 1094.53 Q244.656 1094.53 241.843 1095.15 Q239.066 1095.78 236.149 1097.1 L236.149 1071.05 Z" fill="#000000" fill-rule="nonzero" fill-opacity="1" /><path clip-path="url(#clip990)" d="M122.712 850.943 L134.17 850.943 L134.17 811.395 L121.705 813.895 L121.705 807.506 L134.101 805.006 L141.115 805.006 L141.115 850.943 L152.573 850.943 L152.573 856.846 L122.712 856.846 L122.712 850.943 Z" fill="#000000" fill-rule="nonzero" fill-opacity="1" /><path clip-path="url(#clip990)" d="M166.74 848.027 L174.066 848.027 L174.066 856.846 L166.74 856.846 L166.74 848.027 Z" fill="#000000" fill-rule="nonzero" fill-opacity="1" /><path clip-path="url(#clip990)" d="M204.344 809.624 Q198.927 809.624 196.184 814.971 Q193.476 820.284 193.476 830.978 Q193.476 841.638 196.184 846.985 Q198.927 852.298 204.344 852.298 Q209.795 852.298 212.503 846.985 Q215.246 841.638 215.246 830.978 Q215.246 820.284 212.503 814.971 Q209.795 809.624 204.344 809.624 M204.344 804.069 Q213.059 804.069 217.642 810.978 Q222.26 817.853 222.26 830.978 Q222.26 844.068 217.642 850.978 Q213.059 857.853 204.344 857.853 Q195.628 857.853 191.01 850.978 Q186.427 844.068 186.427 830.978 Q186.427 817.853 191.01 810.978 Q195.628 804.069 204.344 804.069 Z" fill="#000000" fill-rule="nonzero" fill-opacity="1" /><path clip-path="url(#clip990)" d="M249.586 809.624 Q244.17 809.624 241.427 814.971 Q238.718 820.284 238.718 830.978 Q238.718 841.638 241.427 846.985 Q244.17 852.298 249.586 852.298 Q255.038 852.298 257.746 846.985 Q260.489 841.638 260.489 830.978 Q260.489 820.284 257.746 814.971 Q255.038 809.624 249.586 809.624 M249.586 804.069 Q258.302 804.069 262.885 810.978 Q267.503 817.853 267.503 830.978 Q267.503 844.068 262.885 850.978 Q258.302 857.853 249.586 857.853 Q240.871 857.853 236.253 850.978 Q231.67 844.068 231.67 830.978 Q231.67 817.853 236.253 810.978 Q240.871 804.069 249.586 804.069 Z" fill="#000000" fill-rule="nonzero" fill-opacity="1" /><path clip-path="url(#clip990)" d="M124.205 584.895 L135.663 584.895 L135.663 545.347 L123.198 547.846 L123.198 541.458 L135.594 538.958 L142.608 538.958 L142.608 584.895 L154.066 584.895 L154.066 590.798 L124.205 590.798 L124.205 584.895 Z" fill="#000000" fill-rule="nonzero" fill-opacity="1" /><path clip-path="url(#clip990)" d="M168.233 581.978 L175.559 581.978 L175.559 590.798 L168.233 590.798 L168.233 581.978 Z" fill="#000000" fill-rule="nonzero" fill-opacity="1" /><path clip-path="url(#clip990)" d="M196.878 584.895 L221.357 584.895 L221.357 590.798 L188.441 590.798 L188.441 584.895 Q192.434 580.763 199.309 573.819 Q206.219 566.839 207.989 564.826 Q211.357 561.041 212.677 558.437 Q214.031 555.798 214.031 553.263 Q214.031 549.131 211.114 546.527 Q208.232 543.923 203.58 543.923 Q200.281 543.923 196.601 545.069 Q192.955 546.215 188.788 548.541 L188.788 541.458 Q193.024 539.756 196.705 538.888 Q200.385 538.02 203.441 538.02 Q211.496 538.02 216.288 542.048 Q221.08 546.076 221.08 552.812 Q221.08 556.006 219.864 558.888 Q218.684 561.735 215.524 565.624 Q214.656 566.631 210.003 571.457 Q205.351 576.249 196.878 584.895 Z" fill="#000000" fill-rule="nonzero" fill-opacity="1" /><path clip-path="url(#clip990)" d="M236.149 538.958 L263.684 538.958 L263.684 544.86 L242.573 544.86 L242.573 557.569 Q244.1 557.048 245.628 556.805 Q247.156 556.527 248.684 556.527 Q257.364 556.527 262.434 561.284 Q267.503 566.041 267.503 574.166 Q267.503 582.534 262.295 587.187 Q257.086 591.805 247.607 591.805 Q244.343 591.805 240.941 591.249 Q237.573 590.693 233.961 589.582 L233.961 582.534 Q237.086 584.235 240.42 585.069 Q243.753 585.902 247.468 585.902 Q253.475 585.902 256.982 582.742 Q260.489 579.582 260.489 574.166 Q260.489 568.749 256.982 565.589 Q253.475 562.43 247.468 562.43 Q244.656 562.43 241.843 563.055 Q239.066 563.68 236.149 564.999 L236.149 538.958 Z" fill="#000000" fill-rule="nonzero" fill-opacity="1" /><path clip-path="url(#clip990)" d="M122.712 318.846 L134.17 318.846 L134.17 279.298 L121.705 281.798 L121.705 275.409 L134.101 272.909 L141.115 272.909 L141.115 318.846 L152.573 318.846 L152.573 324.749 L122.712 324.749 L122.712 318.846 Z" fill="#000000" fill-rule="nonzero" fill-opacity="1" /><path clip-path="url(#clip990)" d="M166.74 315.93 L174.066 315.93 L174.066 324.749 L166.74 324.749 L166.74 315.93 Z" fill="#000000" fill-rule="nonzero" fill-opacity="1" /><path clip-path="url(#clip990)" d="M189.413 272.909 L216.948 272.909 L216.948 278.812 L195.837 278.812 L195.837 291.52 Q197.364 290.999 198.892 290.756 Q200.42 290.479 201.948 290.479 Q210.628 290.479 215.698 295.235 Q220.767 299.992 220.767 308.117 Q220.767 316.485 215.559 321.138 Q210.35 325.756 200.871 325.756 Q197.608 325.756 194.205 325.201 Q190.837 324.645 187.226 323.534 L187.226 316.485 Q190.351 318.187 193.684 319.02 Q197.017 319.853 200.732 319.853 Q206.739 319.853 210.246 316.694 Q213.753 313.534 213.753 308.117 Q213.753 302.701 210.246 299.541 Q206.739 296.381 200.732 296.381 Q197.92 296.381 195.108 297.006 Q192.33 297.631 189.413 298.951 L189.413 272.909 Z" fill="#000000" fill-rule="nonzero" fill-opacity="1" /><path clip-path="url(#clip990)" d="M249.586 277.527 Q244.17 277.527 241.427 282.874 Q238.718 288.187 238.718 298.881 Q238.718 309.541 241.427 314.888 Q244.17 320.201 249.586 320.201 Q255.038 320.201 257.746 314.888 Q260.489 309.541 260.489 298.881 Q260.489 288.187 257.746 282.874 Q255.038 277.527 249.586 277.527 M249.586 271.972 Q258.302 271.972 262.885 278.881 Q267.503 285.756 267.503 298.881 Q267.503 311.971 262.885 318.881 Q258.302 325.756 249.586 325.756 Q240.871 325.756 236.253 318.881 Q231.67 311.971 231.67 298.881 Q231.67 285.756 236.253 278.881 Q240.871 271.972 249.586 271.972 Z" fill="#000000" fill-rule="nonzero" fill-opacity="1" /><path clip-path="url(#clip990)" d="M35.6047 1006.89 Q31.2992 1004.5 29.2506 1001.16 Q27.202 997.831 27.202 993.317 Q27.202 987.24 31.4728 983.942 Q35.7089 980.643 43.5561 980.643 L67.0282 980.643 L67.0282 987.067 L43.7644 987.067 Q38.1741 987.067 35.4658 989.046 Q32.7575 991.025 32.7575 995.088 Q32.7575 1000.05 36.0561 1002.93 Q39.3547 1005.82 45.0491 1005.82 L67.0282 1005.82 L67.0282 1012.24 L43.7644 1012.24 Q38.1394 1012.24 35.4658 1014.22 Q32.7575 1016.2 32.7575 1020.33 Q32.7575 1025.23 36.0908 1028.11 Q39.3894 1030.99 45.0491 1030.99 L67.0282 1030.99 L67.0282 1037.41 L28.1395 1037.41 L28.1395 1030.99 L34.1811 1030.99 Q30.6047 1028.8 28.9034 1025.75 Q27.202 1022.69 27.202 1018.49 Q27.202 1014.25 29.3547 1011.3 Q31.5075 1008.32 35.6047 1006.89 Z" fill="#000000" fill-rule="nonzero" fill-opacity="1" /><path clip-path="url(#clip990)" d="M47.4797 950.227 Q47.4797 957.97 49.2505 960.956 Q51.0213 963.942 55.2921 963.942 Q58.6949 963.942 60.7087 961.72 Q62.6879 959.463 62.6879 955.609 Q62.6879 950.296 58.9379 947.102 Q55.1532 943.873 48.9033 943.873 L47.4797 943.873 L47.4797 950.227 M44.8408 937.484 L67.0282 937.484 L67.0282 943.873 L61.1254 943.873 Q64.6671 946.06 66.3684 949.324 Q68.0351 952.588 68.0351 957.31 Q68.0351 963.282 64.7018 966.824 Q61.3337 970.331 55.7088 970.331 Q49.1463 970.331 45.813 965.956 Q42.4797 961.546 42.4797 952.831 L42.4797 943.873 L41.8547 943.873 Q37.445 943.873 35.0492 946.789 Q32.6186 949.671 32.6186 954.914 Q32.6186 958.248 33.4172 961.407 Q34.2158 964.567 35.813 967.484 L29.9103 967.484 Q28.5561 963.977 27.8964 960.678 Q27.202 957.379 27.202 954.254 Q27.202 945.817 31.577 941.65 Q35.9519 937.484 44.8408 937.484 Z" fill="#000000" fill-rule="nonzero" fill-opacity="1" /><path clip-path="url(#clip990)" d="M29.2853 899.533 L35.3269 899.533 Q33.9381 902.241 33.2436 905.158 Q32.5492 908.074 32.5492 911.199 Q32.5492 915.956 34.0075 918.352 Q35.4658 920.713 38.3825 920.713 Q40.6047 920.713 41.8894 919.012 Q43.1394 917.31 44.2852 912.171 L44.7713 909.984 Q46.2297 903.178 48.9033 900.331 Q51.5421 897.449 56.299 897.449 Q61.7157 897.449 64.8754 901.755 Q68.0351 906.026 68.0351 913.526 Q68.0351 916.651 67.4101 920.053 Q66.8198 923.421 65.6046 927.171 L59.0074 927.171 Q60.8476 923.63 61.7851 920.192 Q62.6879 916.755 62.6879 913.387 Q62.6879 908.873 61.1601 906.442 Q59.5976 904.012 56.7852 904.012 Q54.181 904.012 52.7921 905.783 Q51.4032 907.519 50.1185 913.456 L49.5977 915.678 Q48.3477 921.616 45.7783 924.255 Q43.1741 926.894 38.6603 926.894 Q33.1742 926.894 30.1881 923.005 Q27.202 919.116 27.202 911.963 Q27.202 908.421 27.7228 905.296 Q28.2436 902.171 29.2853 899.533 Z" fill="#000000" fill-rule="nonzero" fill-opacity="1" /><path clip-path="url(#clip990)" d="M29.2853 862.484 L35.3269 862.484 Q33.9381 865.192 33.2436 868.109 Q32.5492 871.026 32.5492 874.151 Q32.5492 878.908 34.0075 881.303 Q35.4658 883.665 38.3825 883.665 Q40.6047 883.665 41.8894 881.963 Q43.1394 880.262 44.2852 875.123 L44.7713 872.935 Q46.2297 866.13 48.9033 863.283 Q51.5421 860.401 56.299 860.401 Q61.7157 860.401 64.8754 864.706 Q68.0351 868.977 68.0351 876.477 Q68.0351 879.602 67.4101 883.005 Q66.8198 886.373 65.6046 890.123 L59.0074 890.123 Q60.8476 886.581 61.7851 883.144 Q62.6879 879.706 62.6879 876.338 Q62.6879 871.824 61.1601 869.394 Q59.5976 866.963 56.7852 866.963 Q54.181 866.963 52.7921 868.734 Q51.4032 870.47 50.1185 876.408 L49.5977 878.63 Q48.3477 884.567 45.7783 887.206 Q43.1741 889.845 38.6603 889.845 Q33.1742 889.845 30.1881 885.956 Q27.202 882.067 27.202 874.915 Q27.202 871.373 27.7228 868.248 Q28.2436 865.123 29.2853 862.484 Z" fill="#000000" fill-rule="nonzero" fill-opacity="1" /><path clip-path="url(#clip990)" d="M61.1949 821.443 L81.8197 821.443 L81.8197 827.866 L28.1395 827.866 L28.1395 821.443 L34.0422 821.443 Q30.57 819.429 28.9034 816.373 Q27.202 813.283 27.202 809.012 Q27.202 801.929 32.827 797.519 Q38.4519 793.075 47.6185 793.075 Q56.7852 793.075 62.4101 797.519 Q68.0351 801.929 68.0351 809.012 Q68.0351 813.283 66.3684 816.373 Q64.6671 819.429 61.1949 821.443 M47.6185 799.707 Q40.57 799.707 36.5769 802.623 Q32.5492 805.505 32.5492 810.575 Q32.5492 815.644 36.5769 818.561 Q40.57 821.443 47.6185 821.443 Q54.6671 821.443 58.6949 818.561 Q62.6879 815.644 62.6879 810.575 Q62.6879 805.505 58.6949 802.623 Q54.6671 799.707 47.6185 799.707 Z" fill="#000000" fill-rule="nonzero" fill-opacity="1" /><path clip-path="url(#clip990)" d="M32.6186 767.415 Q32.6186 772.554 36.6464 775.54 Q40.6394 778.526 47.6185 778.526 Q54.5977 778.526 58.6254 775.575 Q62.6185 772.589 62.6185 767.415 Q62.6185 762.311 58.5907 759.325 Q54.5629 756.339 47.6185 756.339 Q40.7089 756.339 36.6811 759.325 Q32.6186 762.311 32.6186 767.415 M27.202 767.415 Q27.202 759.082 32.6186 754.325 Q38.0353 749.568 47.6185 749.568 Q57.1671 749.568 62.6185 754.325 Q68.0351 759.082 68.0351 767.415 Q68.0351 775.783 62.6185 780.54 Q57.1671 785.262 47.6185 785.262 Q38.0353 785.262 32.6186 780.54 Q27.202 775.783 27.202 767.415 Z" fill="#000000" fill-rule="nonzero" fill-opacity="1" /><path clip-path="url(#clip990)" d="M29.2853 714.186 L35.3269 714.186 Q33.9381 716.895 33.2436 719.811 Q32.5492 722.728 32.5492 725.853 Q32.5492 730.61 34.0075 733.006 Q35.4658 735.367 38.3825 735.367 Q40.6047 735.367 41.8894 733.665 Q43.1394 731.964 44.2852 726.825 L44.7713 724.638 Q46.2297 717.832 48.9033 714.985 Q51.5421 712.103 56.299 712.103 Q61.7157 712.103 64.8754 716.409 Q68.0351 720.679 68.0351 728.179 Q68.0351 731.304 67.4101 734.707 Q66.8198 738.075 65.6046 741.825 L59.0074 741.825 Q60.8476 738.283 61.7851 734.846 Q62.6879 731.408 62.6879 728.04 Q62.6879 723.527 61.1601 721.096 Q59.5976 718.665 56.7852 718.665 Q54.181 718.665 52.7921 720.436 Q51.4032 722.172 50.1185 728.11 L49.5977 730.332 Q48.3477 736.27 45.7783 738.908 Q43.1741 741.547 38.6603 741.547 Q33.1742 741.547 30.1881 737.658 Q27.202 733.77 27.202 726.617 Q27.202 723.075 27.7228 719.95 Q28.2436 716.825 29.2853 714.186 Z" fill="#000000" fill-rule="nonzero" fill-opacity="1" /><path clip-path="url(#clip990)" d="M28.1395 701.929 L28.1395 695.541 L67.0282 695.541 L67.0282 701.929 L28.1395 701.929 M13.0007 701.929 L13.0007 695.541 L21.0909 695.541 L21.0909 701.929 L13.0007 701.929 Z" fill="#000000" fill-rule="nonzero" fill-opacity="1" /><path clip-path="url(#clip990)" d="M17.0979 675.853 L28.1395 675.853 L28.1395 662.694 L33.1047 662.694 L33.1047 675.853 L54.2157 675.853 Q58.9726 675.853 60.3268 674.568 Q61.681 673.249 61.681 669.256 L61.681 662.694 L67.0282 662.694 L67.0282 669.256 Q67.0282 676.652 64.2851 679.464 Q61.5074 682.277 54.2157 682.277 L33.1047 682.277 L33.1047 686.964 L28.1395 686.964 L28.1395 682.277 L17.0979 682.277 L17.0979 675.853 Z" fill="#000000" fill-rule="nonzero" fill-opacity="1" /><path clip-path="url(#clip990)" d="M28.1395 654.291 L28.1395 647.902 L67.0282 647.902 L67.0282 654.291 L28.1395 654.291 M13.0007 654.291 L13.0007 647.902 L21.0909 647.902 L21.0909 654.291 L13.0007 654.291 Z" fill="#000000" fill-rule="nonzero" fill-opacity="1" /><path clip-path="url(#clip990)" d="M32.6186 619.465 Q32.6186 624.603 36.6464 627.59 Q40.6394 630.576 47.6185 630.576 Q54.5977 630.576 58.6254 627.624 Q62.6185 624.638 62.6185 619.465 Q62.6185 614.36 58.5907 611.374 Q54.5629 608.388 47.6185 608.388 Q40.7089 608.388 36.6811 611.374 Q32.6186 614.36 32.6186 619.465 M27.202 619.465 Q27.202 611.131 32.6186 606.374 Q38.0353 601.617 47.6185 601.617 Q57.1671 601.617 62.6185 606.374 Q68.0351 611.131 68.0351 619.465 Q68.0351 627.833 62.6185 632.59 Q57.1671 637.312 47.6185 637.312 Q38.0353 637.312 32.6186 632.59 Q27.202 627.833 27.202 619.465 Z" fill="#000000" fill-rule="nonzero" fill-opacity="1" /><path clip-path="url(#clip990)" d="M43.5561 558.701 L67.0282 558.701 L67.0282 565.09 L43.7644 565.09 Q38.2436 565.09 35.5005 567.243 Q32.7575 569.395 32.7575 573.701 Q32.7575 578.875 36.0561 581.861 Q39.3547 584.847 45.0491 584.847 L67.0282 584.847 L67.0282 591.27 L28.1395 591.27 L28.1395 584.847 L34.1811 584.847 Q30.6742 582.555 28.9381 579.465 Q27.202 576.34 27.202 572.277 Q27.202 565.576 31.3686 562.139 Q35.5005 558.701 43.5561 558.701 Z" fill="#000000" fill-rule="nonzero" fill-opacity="1" /><path clip-path="url(#clip990)" d="M13.0007 523.944 L13.0007 509.222 L17.9659 509.222 L17.9659 517.555 L71.4379 517.555 L71.4379 509.222 L76.4031 509.222 L76.4031 523.944 L13.0007 523.944 Z" fill="#000000" fill-rule="nonzero" fill-opacity="1" /><path clip-path="url(#clip990)" d="M35.6047 465.333 Q31.2992 462.938 29.2506 459.604 Q27.202 456.271 27.202 451.757 Q27.202 445.681 31.4728 442.382 Q35.7089 439.084 43.5561 439.084 L67.0282 439.084 L67.0282 445.507 L43.7644 445.507 Q38.1741 445.507 35.4658 447.486 Q32.7575 449.466 32.7575 453.528 Q32.7575 458.493 36.0561 461.375 Q39.3547 464.257 45.0491 464.257 L67.0282 464.257 L67.0282 470.681 L43.7644 470.681 Q38.1394 470.681 35.4658 472.66 Q32.7575 474.639 32.7575 478.771 Q32.7575 483.667 36.0908 486.549 Q39.3894 489.431 45.0491 489.431 L67.0282 489.431 L67.0282 495.854 L28.1395 495.854 L28.1395 489.431 L34.1811 489.431 Q30.6047 487.243 28.9034 484.188 Q27.202 481.132 27.202 476.931 Q27.202 472.695 29.3547 469.743 Q31.5075 466.757 35.6047 465.333 Z" fill="#000000" fill-rule="nonzero" fill-opacity="1" /><path clip-path="url(#clip990)" d="M13.0007 411.41 L76.4031 411.41 L76.4031 426.132 L71.4379 426.132 L71.4379 417.834 L17.9659 417.834 L17.9659 426.132 L13.0007 426.132 L13.0007 411.41 Z" fill="#000000" fill-rule="nonzero" fill-opacity="1" /><polyline clip-path="url(#clip992)" style="stroke:#009af9; stroke-linecap:round; stroke-linejoin:round; stroke-width:8; stroke-opacity:1; fill:none" points="361.501,1363.02 400.166,1331.34 438.831,1239.54 477.496,1096.7 516.161,916.94 554.826,717.934 593.492,519.485 632.157,341.362 670.822,201.271 709.487,113.085 748.152,85.5744 786.817,121.468 825.482,217.213 864.148,363.313 902.813,545.265 941.478,745.027 980.143,942.762 1018.81,1118.86 1057.47,1255.83 1096.14,1340.08 1134.8,1363.25 1173.47,1323.03 1212.13,1223.41 1250.8,1074.27 1289.46,890.399 1328.13,690.058 1366.79,493.114 1405.46,319.126 1444.12,185.346 1482.79,105.071 1521.46,86.2574 1560.12,130.787 1598.79,234.243 1637.45,386.358 1676.12,572.052 1714.78,772.881 1753.45,968.936 1792.11,1140.74 1830.78,1271.26 1869.44,1347.52 1908.11,1361.96 1946.77,1313.14 1985.44,1205.89 2024.1,1050.87 2062.77,863.443 2101.43,662.215 2140.1,467.15 2178.76,297.612 2217.43,170.425 2256.09,98.2167 2294.76,88.1573 "/>
<polyline clip-path="url(#clip992)" style="stroke:#e26f46; stroke-linecap:round; stroke-linejoin:round; stroke-width:8; stroke-opacity:1; fill:none" points="361.501,1363.02 400.166,1340 438.831,1271.82 477.496,1164.1 516.161,1027.11 554.826,874.165 593.492,720.438 632.157,581.369 670.822,470.861 709.487,400.228 748.152,377.604 786.817,399.031 825.482,457.754 864.148,549.143 902.813,664.659 941.478,792.99 980.143,921.437 1018.81,1037.23 1057.47,1128.72 1096.14,1186.39 1134.8,1203.26 1173.47,1184.78 1212.13,1136.99 1250.8,1063.53 1289.46,971.135 1328.13,868.754 1366.79,766.411 1405.46,674.351 1444.12,602.002 1482.79,557.13 1521.46,545.246 1560.12,559.369 1598.79,594.205 1637.45,647.284 1676.12,713.954 1714.78,787.948 1753.45,861.991 1792.11,928.663 1830.78,981.059 1869.44,1013.38 1908.11,1021.44 1946.77,1013.39 1985.44,994.11 2024.1,964.79 2062.77,927.844 2101.43,886.569 2140.1,844.957 2178.76,807.201 2217.43,777.324 2256.09,758.815 2294.76,754.091 "/>
<polyline clip-path="url(#clip992)" style="stroke:#3da44d; stroke-linecap:round; stroke-linejoin:round; stroke-width:8; stroke-opacity:1; fill:none" points="361.501,1363.02 400.166,1326.45 438.831,1255.76 477.496,1153.46 516.161,1023.45 554.826,864.393 593.492,707.491 632.157,572.555 670.822,467.339 709.487,400.605 748.152,377.978 786.817,402.927 825.482,478.257 864.148,599.089 902.813,727.589 941.478,843.83 980.143,943.46 1018.81,1025.07 1057.47,1088.13 1096.14,1131.14 1134.8,1152.43 1173.47,1150.7 1212.13,1125.48 1250.8,1077.41 1289.46,1008.25 1328.13,920.974 1366.79,819.441 1405.46,717.706 1444.12,631.577 1482.79,567.221 1521.46,530.956 1560.12,527.117 1598.79,558.862 1637.45,624.581 1676.12,704.288 1714.78,780.05 1753.45,847.195 1792.11,902.96 1830.78,945.854 1869.44,975.184 1908.11,990.373 1946.77,990.965 1985.44,976.999 2024.1,949.196 2062.77,909.231 2101.43,860.165 2140.1,809.289 2178.76,764.774 2217.43,728.215 2256.09,699.51 2294.76,679.091 "/>
<path clip-path="url(#clip990)" d="M1822.02 299.749 L2284.45 299.749 L2284.45 92.3886 L1822.02 92.3886  Z" fill="#ffffff" fill-rule="evenodd" fill-opacity="1"/>
<polyline clip-path="url(#clip990)" style="stroke:#000000; stroke-linecap:round; stroke-linejoin:round; stroke-width:4; stroke-opacity:1; fill:none" points="1822.02,299.749 2284.45,299.749 2284.45,92.3886 1822.02,92.3886 1822.02,299.749 "/>
<polyline clip-path="url(#clip990)" style="stroke:#009af9; stroke-linecap:round; stroke-linejoin:round; stroke-width:8; stroke-opacity:1; fill:none" points="1844.79,144.229 1981.41,144.229 "/>
<path clip-path="url(#clip990)" d="M2026.42 128.083 L2026.42 132.643 Q2023.76 131.37 2021.4 130.745 Q2019.04 130.12 2016.84 130.12 Q2013.02 130.12 2010.94 131.601 Q2008.88 133.083 2008.88 135.814 Q2008.88 138.106 2010.24 139.287 Q2011.63 140.444 2015.48 141.162 L2018.3 141.74 Q2023.53 142.736 2026.01 145.259 Q2028.51 147.759 2028.51 151.972 Q2028.51 156.995 2025.13 159.587 Q2021.77 162.18 2015.27 162.18 Q2012.81 162.18 2010.04 161.624 Q2007.28 161.069 2004.32 159.981 L2004.32 155.166 Q2007.17 156.763 2009.9 157.573 Q2012.63 158.384 2015.27 158.384 Q2019.27 158.384 2021.45 156.81 Q2023.62 155.236 2023.62 152.319 Q2023.62 149.773 2022.05 148.337 Q2020.5 146.902 2016.93 146.185 L2014.09 145.629 Q2008.86 144.587 2006.52 142.365 Q2004.18 140.143 2004.18 136.185 Q2004.18 131.601 2007.4 128.962 Q2010.64 126.324 2016.31 126.324 Q2018.74 126.324 2021.26 126.763 Q2023.79 127.203 2026.42 128.083 Z" fill="#000000" fill-rule="nonzero" fill-opacity="1" /><path clip-path="url(#clip990)" d="M2035.61 135.583 L2039.87 135.583 L2039.87 161.509 L2035.61 161.509 L2035.61 135.583 M2035.61 125.49 L2039.87 125.49 L2039.87 130.884 L2035.61 130.884 L2035.61 125.49 Z" fill="#000000" fill-rule="nonzero" fill-opacity="1" /><path clip-path="url(#clip990)" d="M2068.97 140.56 Q2070.57 137.689 2072.79 136.324 Q2075.01 134.958 2078.02 134.958 Q2082.07 134.958 2084.27 137.805 Q2086.47 140.629 2086.47 145.861 L2086.47 161.509 L2082.19 161.509 L2082.19 145.999 Q2082.19 142.273 2080.87 140.467 Q2079.55 138.662 2076.84 138.662 Q2073.53 138.662 2071.61 140.861 Q2069.69 143.06 2069.69 146.856 L2069.69 161.509 L2065.41 161.509 L2065.41 145.999 Q2065.41 142.249 2064.09 140.467 Q2062.77 138.662 2060.01 138.662 Q2056.75 138.662 2054.83 140.884 Q2052.91 143.083 2052.91 146.856 L2052.91 161.509 L2048.62 161.509 L2048.62 135.583 L2052.91 135.583 L2052.91 139.611 Q2054.36 137.226 2056.4 136.092 Q2058.44 134.958 2061.24 134.958 Q2064.06 134.958 2066.03 136.393 Q2068.02 137.828 2068.97 140.56 Z" fill="#000000" fill-rule="nonzero" fill-opacity="1" /><path clip-path="url(#clip990)" d="M2099.09 157.62 L2099.09 171.37 L2094.8 171.37 L2094.8 135.583 L2099.09 135.583 L2099.09 139.518 Q2100.43 137.203 2102.47 136.092 Q2104.53 134.958 2107.37 134.958 Q2112.1 134.958 2115.04 138.708 Q2118 142.458 2118 148.569 Q2118 154.68 2115.04 158.43 Q2112.1 162.18 2107.37 162.18 Q2104.53 162.18 2102.47 161.069 Q2100.43 159.935 2099.09 157.62 M2113.58 148.569 Q2113.58 143.87 2111.63 141.208 Q2109.71 138.523 2106.33 138.523 Q2102.95 138.523 2101.01 141.208 Q2099.09 143.87 2099.09 148.569 Q2099.09 153.268 2101.01 155.953 Q2102.95 158.615 2106.33 158.615 Q2109.71 158.615 2111.63 155.953 Q2113.58 153.268 2113.58 148.569 Z" fill="#000000" fill-rule="nonzero" fill-opacity="1" /><path clip-path="url(#clip990)" d="M2125.06 125.49 L2129.32 125.49 L2129.32 161.509 L2125.06 161.509 L2125.06 125.49 Z" fill="#000000" fill-rule="nonzero" fill-opacity="1" /><path clip-path="url(#clip990)" d="M2160.41 147.481 L2160.41 149.564 L2140.82 149.564 Q2141.1 153.962 2143.46 156.277 Q2145.85 158.569 2150.08 158.569 Q2152.54 158.569 2154.83 157.967 Q2157.14 157.365 2159.41 156.161 L2159.41 160.189 Q2157.12 161.161 2154.71 161.671 Q2152.3 162.18 2149.83 162.18 Q2143.62 162.18 2139.99 158.569 Q2136.38 154.958 2136.38 148.8 Q2136.38 142.435 2139.8 138.708 Q2143.25 134.958 2149.09 134.958 Q2154.32 134.958 2157.35 138.337 Q2160.41 141.694 2160.41 147.481 M2156.15 146.231 Q2156.1 142.736 2154.18 140.652 Q2152.28 138.569 2149.13 138.569 Q2145.57 138.569 2143.41 140.583 Q2141.29 142.597 2140.96 146.254 L2156.15 146.231 Z" fill="#000000" fill-rule="nonzero" fill-opacity="1" /><path clip-path="url(#clip990)" d="M2167.58 126.949 L2187.44 126.949 L2187.44 130.884 L2172.26 130.884 L2172.26 141.069 L2185.96 141.069 L2185.96 145.004 L2172.26 145.004 L2172.26 161.509 L2167.58 161.509 L2167.58 126.949 Z" fill="#000000" fill-rule="nonzero" fill-opacity="1" /><path clip-path="url(#clip990)" d="M2194.85 126.949 L2201.82 126.949 L2210.64 150.467 L2219.5 126.949 L2226.47 126.949 L2226.47 161.509 L2221.91 161.509 L2221.91 131.162 L2213 154.865 L2208.3 154.865 L2199.39 131.162 L2199.39 161.509 L2194.85 161.509 L2194.85 126.949 Z" fill="#000000" fill-rule="nonzero" fill-opacity="1" /><path clip-path="url(#clip990)" d="M2235.22 126.949 L2239.92 126.949 L2239.92 147.944 Q2239.92 153.499 2241.93 155.953 Q2243.95 158.384 2248.46 158.384 Q2252.95 158.384 2254.97 155.953 Q2256.98 153.499 2256.98 147.944 L2256.98 126.949 L2261.68 126.949 L2261.68 148.523 Q2261.68 155.282 2258.32 158.731 Q2254.99 162.18 2248.46 162.18 Q2241.91 162.18 2238.55 158.731 Q2235.22 155.282 2235.22 148.523 L2235.22 126.949 Z" fill="#000000" fill-rule="nonzero" fill-opacity="1" /><polyline clip-path="url(#clip990)" style="stroke:#e26f46; stroke-linecap:round; stroke-linejoin:round; stroke-width:8; stroke-opacity:1; fill:none" points="1844.79,196.069 1981.41,196.069 "/>
<path clip-path="url(#clip990)" d="M2020.57 197.145 Q2022.07 197.654 2023.48 199.321 Q2024.92 200.988 2026.36 203.904 L2031.1 213.349 L2026.08 213.349 L2021.66 204.483 Q2019.94 201.011 2018.32 199.876 Q2016.73 198.742 2013.95 198.742 L2008.86 198.742 L2008.86 213.349 L2004.18 213.349 L2004.18 178.789 L2014.73 178.789 Q2020.66 178.789 2023.58 181.265 Q2026.49 183.742 2026.49 188.742 Q2026.49 192.006 2024.97 194.159 Q2023.46 196.312 2020.57 197.145 M2008.86 182.631 L2008.86 194.9 L2014.73 194.9 Q2018.11 194.9 2019.83 193.349 Q2021.56 191.775 2021.56 188.742 Q2021.56 185.71 2019.83 184.182 Q2018.11 182.631 2014.73 182.631 L2008.86 182.631 Z" fill="#000000" fill-rule="nonzero" fill-opacity="1" /><path clip-path="url(#clip990)" d="M2056.98 199.321 L2056.98 201.404 L2037.4 201.404 Q2037.67 205.802 2040.04 208.117 Q2042.42 210.409 2046.66 210.409 Q2049.11 210.409 2051.4 209.807 Q2053.72 209.205 2055.98 208.001 L2055.98 212.029 Q2053.69 213.001 2051.29 213.511 Q2048.88 214.02 2046.4 214.02 Q2040.2 214.02 2036.56 210.409 Q2032.95 206.798 2032.95 200.64 Q2032.95 194.275 2036.38 190.548 Q2039.83 186.798 2045.66 186.798 Q2050.89 186.798 2053.92 190.177 Q2056.98 193.534 2056.98 199.321 M2052.72 198.071 Q2052.67 194.576 2050.75 192.492 Q2048.86 190.409 2045.71 190.409 Q2042.14 190.409 2039.99 192.423 Q2037.86 194.437 2037.54 198.094 L2052.72 198.071 Z" fill="#000000" fill-rule="nonzero" fill-opacity="1" /><path clip-path="url(#clip990)" d="M2075.75 200.316 Q2070.59 200.316 2068.6 201.497 Q2066.61 202.677 2066.61 205.525 Q2066.61 207.793 2068.09 209.136 Q2069.6 210.455 2072.17 210.455 Q2075.71 210.455 2077.84 207.955 Q2079.99 205.432 2079.99 201.265 L2079.99 200.316 L2075.75 200.316 M2084.25 198.557 L2084.25 213.349 L2079.99 213.349 L2079.99 209.413 Q2078.53 211.775 2076.35 212.909 Q2074.18 214.02 2071.03 214.02 Q2067.05 214.02 2064.69 211.798 Q2062.35 209.552 2062.35 205.802 Q2062.35 201.427 2065.27 199.205 Q2068.21 196.983 2074.02 196.983 L2079.99 196.983 L2079.99 196.566 Q2079.99 193.627 2078.04 192.029 Q2076.12 190.409 2072.63 190.409 Q2070.41 190.409 2068.3 190.941 Q2066.19 191.474 2064.25 192.539 L2064.25 188.603 Q2066.59 187.701 2068.79 187.261 Q2070.98 186.798 2073.07 186.798 Q2078.69 186.798 2081.47 189.714 Q2084.25 192.631 2084.25 198.557 Z" fill="#000000" fill-rule="nonzero" fill-opacity="1" /><path clip-path="url(#clip990)" d="M2093.02 177.33 L2097.28 177.33 L2097.28 213.349 L2093.02 213.349 L2093.02 177.33 Z" fill="#000000" fill-rule="nonzero" fill-opacity="1" /><path clip-path="url(#clip990)" d="M2106.38 178.789 L2126.24 178.789 L2126.24 182.724 L2111.05 182.724 L2111.05 192.909 L2124.76 192.909 L2124.76 196.844 L2111.05 196.844 L2111.05 213.349 L2106.38 213.349 L2106.38 178.789 Z" fill="#000000" fill-rule="nonzero" fill-opacity="1" /><path clip-path="url(#clip990)" d="M2133.65 178.789 L2140.61 178.789 L2149.43 202.307 L2158.3 178.789 L2165.27 178.789 L2165.27 213.349 L2160.71 213.349 L2160.71 183.002 L2151.79 206.705 L2147.1 206.705 L2138.18 183.002 L2138.18 213.349 L2133.65 213.349 L2133.65 178.789 Z" fill="#000000" fill-rule="nonzero" fill-opacity="1" /><path clip-path="url(#clip990)" d="M2174.02 178.789 L2178.72 178.789 L2178.72 199.784 Q2178.72 205.339 2180.73 207.793 Q2182.74 210.224 2187.26 210.224 Q2191.75 210.224 2193.76 207.793 Q2195.78 205.339 2195.78 199.784 L2195.78 178.789 L2200.47 178.789 L2200.47 200.363 Q2200.47 207.122 2197.12 210.571 Q2193.78 214.02 2187.26 214.02 Q2180.71 214.02 2177.35 210.571 Q2174.02 207.122 2174.02 200.363 L2174.02 178.789 Z" fill="#000000" fill-rule="nonzero" fill-opacity="1" /><polyline clip-path="url(#clip990)" style="stroke:#3da44d; stroke-linecap:round; stroke-linejoin:round; stroke-width:8; stroke-opacity:1; fill:none" points="1844.79,247.909 1981.41,247.909 "/>
<path clip-path="url(#clip990)" d="M2004.18 230.629 L2010.48 230.629 L2025.8 259.541 L2025.8 230.629 L2030.34 230.629 L2030.34 265.189 L2024.04 265.189 L2008.72 236.277 L2008.72 265.189 L2004.18 265.189 L2004.18 230.629 Z" fill="#000000" fill-rule="nonzero" fill-opacity="1" /><path clip-path="url(#clip990)" d="M2061.63 251.161 L2061.63 253.244 L2042.05 253.244 Q2042.33 257.642 2044.69 259.957 Q2047.07 262.249 2051.31 262.249 Q2053.76 262.249 2056.05 261.647 Q2058.37 261.045 2060.64 259.841 L2060.64 263.869 Q2058.35 264.841 2055.94 265.351 Q2053.53 265.86 2051.05 265.86 Q2044.85 265.86 2041.22 262.249 Q2037.61 258.638 2037.61 252.48 Q2037.61 246.115 2041.03 242.388 Q2044.48 238.638 2050.31 238.638 Q2055.54 238.638 2058.58 242.017 Q2061.63 245.374 2061.63 251.161 M2057.37 249.911 Q2057.33 246.416 2055.41 244.332 Q2053.51 242.249 2050.36 242.249 Q2046.79 242.249 2044.64 244.263 Q2042.51 246.277 2042.19 249.934 L2057.37 249.911 Z" fill="#000000" fill-rule="nonzero" fill-opacity="1" /><path clip-path="url(#clip990)" d="M2068.18 254.957 L2068.18 239.263 L2072.44 239.263 L2072.44 254.795 Q2072.44 258.476 2073.88 260.328 Q2075.31 262.156 2078.18 262.156 Q2081.63 262.156 2083.62 259.957 Q2085.64 257.758 2085.64 253.962 L2085.64 239.263 L2089.9 239.263 L2089.9 265.189 L2085.64 265.189 L2085.64 261.207 Q2084.09 263.568 2082.03 264.726 Q2079.99 265.86 2077.28 265.86 Q2072.81 265.86 2070.5 263.082 Q2068.18 260.304 2068.18 254.957 M2078.9 238.638 L2078.9 238.638 Z" fill="#000000" fill-rule="nonzero" fill-opacity="1" /><path clip-path="url(#clip990)" d="M2113.69 243.244 Q2112.98 242.828 2112.12 242.642 Q2111.29 242.434 2110.27 242.434 Q2106.66 242.434 2104.71 244.795 Q2102.79 247.133 2102.79 251.531 L2102.79 265.189 L2098.51 265.189 L2098.51 239.263 L2102.79 239.263 L2102.79 243.291 Q2104.13 240.929 2106.29 239.795 Q2108.44 238.638 2111.52 238.638 Q2111.96 238.638 2112.49 238.707 Q2113.02 238.754 2113.67 238.869 L2113.69 243.244 Z" fill="#000000" fill-rule="nonzero" fill-opacity="1" /><path clip-path="url(#clip990)" d="M2129.94 252.156 Q2124.78 252.156 2122.79 253.337 Q2120.8 254.517 2120.8 257.365 Q2120.8 259.633 2122.28 260.976 Q2123.79 262.295 2126.35 262.295 Q2129.9 262.295 2132.03 259.795 Q2134.18 257.272 2134.18 253.105 L2134.18 252.156 L2129.94 252.156 M2138.44 250.397 L2138.44 265.189 L2134.18 265.189 L2134.18 261.253 Q2132.72 263.615 2130.54 264.749 Q2128.37 265.86 2125.22 265.86 Q2121.24 265.86 2118.88 263.638 Q2116.54 261.392 2116.54 257.642 Q2116.54 253.267 2119.46 251.045 Q2122.4 248.823 2128.21 248.823 L2134.18 248.823 L2134.18 248.406 Q2134.18 245.467 2132.23 243.869 Q2130.31 242.249 2126.82 242.249 Q2124.6 242.249 2122.49 242.781 Q2120.38 243.314 2118.44 244.379 L2118.44 240.443 Q2120.78 239.541 2122.98 239.101 Q2125.17 238.638 2127.26 238.638 Q2132.88 238.638 2135.66 241.554 Q2138.44 244.471 2138.44 250.397 Z" fill="#000000" fill-rule="nonzero" fill-opacity="1" /><path clip-path="url(#clip990)" d="M2147.21 229.17 L2151.47 229.17 L2151.47 265.189 L2147.21 265.189 L2147.21 229.17 Z" fill="#000000" fill-rule="nonzero" fill-opacity="1" /><path clip-path="url(#clip990)" d="M2160.57 230.629 L2180.43 230.629 L2180.43 234.564 L2165.24 234.564 L2165.24 244.749 L2178.95 244.749 L2178.95 248.684 L2165.24 248.684 L2165.24 265.189 L2160.57 265.189 L2160.57 230.629 Z" fill="#000000" fill-rule="nonzero" fill-opacity="1" /><path clip-path="url(#clip990)" d="M2187.84 230.629 L2194.8 230.629 L2203.62 254.147 L2212.49 230.629 L2219.46 230.629 L2219.46 265.189 L2214.9 265.189 L2214.9 234.842 L2205.98 258.545 L2201.28 258.545 L2192.37 234.842 L2192.37 265.189 L2187.84 265.189 L2187.84 230.629 Z" fill="#000000" fill-rule="nonzero" fill-opacity="1" /><path clip-path="url(#clip990)" d="M2228.21 230.629 L2232.91 230.629 L2232.91 251.624 Q2232.91 257.179 2234.92 259.633 Q2236.93 262.064 2241.45 262.064 Q2245.94 262.064 2247.95 259.633 Q2249.97 257.179 2249.97 251.624 L2249.97 230.629 L2254.66 230.629 L2254.66 252.203 Q2254.66 258.962 2251.31 262.411 Q2247.97 265.86 2241.45 265.86 Q2234.9 265.86 2231.54 262.411 Q2228.21 258.962 2228.21 252.203 L2228.21 230.629 Z" fill="#000000" fill-rule="nonzero" fill-opacity="1" /></svg>
