<?xml version="1.0" encoding="utf-8"?>
<svg xmlns="http://www.w3.org/2000/svg" xmlns:xlink="http://www.w3.org/1999/xlink" width="600" height="400" viewBox="0 0 2400 1600">
<defs>
  <clipPath id="clip420">
    <rect x="0" y="0" width="2400" height="1600"/>
  </clipPath>
</defs>
<path clip-path="url(#clip420)" d="
M0 1600 L2400 1600 L2400 0 L0 0  Z
  " fill="#ffffff" fill-rule="evenodd" fill-opacity="1"/>
<defs>
  <clipPath id="clip421">
    <rect x="480" y="0" width="1681" height="1600"/>
  </clipPath>
</defs>
<path clip-path="url(#clip420)" d="
M149.191 1423.18 L2352.76 1423.18 L2352.76 47.2441 L149.191 47.2441  Z
  " fill="#ffffff" fill-rule="evenodd" fill-opacity="1"/>
<defs>
  <clipPath id="clip422">
    <rect x="149" y="47" width="2205" height="1377"/>
  </clipPath>
</defs>
<polyline clip-path="url(#clip422)" style="stroke:#000000; stroke-linecap:butt; stroke-linejoin:round; stroke-width:2; stroke-opacity:0.1; fill:none" points="
  211.556,1423.18 211.556,47.2441 
  "/>
<polyline clip-path="url(#clip422)" style="stroke:#000000; stroke-linecap:butt; stroke-linejoin:round; stroke-width:2; stroke-opacity:0.1; fill:none" points="
  627.323,1423.18 627.323,47.2441 
  "/>
<polyline clip-path="url(#clip422)" style="stroke:#000000; stroke-linecap:butt; stroke-linejoin:round; stroke-width:2; stroke-opacity:0.1; fill:none" points="
  1043.09,1423.18 1043.09,47.2441 
  "/>
<polyline clip-path="url(#clip422)" style="stroke:#000000; stroke-linecap:butt; stroke-linejoin:round; stroke-width:2; stroke-opacity:0.1; fill:none" points="
  1458.86,1423.18 1458.86,47.2441 
  "/>
<polyline clip-path="url(#clip422)" style="stroke:#000000; stroke-linecap:butt; stroke-linejoin:round; stroke-width:2; stroke-opacity:0.1; fill:none" points="
  1874.62,1423.18 1874.62,47.2441 
  "/>
<polyline clip-path="url(#clip422)" style="stroke:#000000; stroke-linecap:butt; stroke-linejoin:round; stroke-width:2; stroke-opacity:0.1; fill:none" points="
  2290.39,1423.18 2290.39,47.2441 
  "/>
<polyline clip-path="url(#clip420)" style="stroke:#000000; stroke-linecap:butt; stroke-linejoin:round; stroke-width:4; stroke-opacity:1; fill:none" points="
  149.191,1423.18 2352.76,1423.18 
  "/>
<polyline clip-path="url(#clip420)" style="stroke:#000000; stroke-linecap:butt; stroke-linejoin:round; stroke-width:4; stroke-opacity:1; fill:none" points="
  211.556,1423.18 211.556,1404.28 
  "/>
<polyline clip-path="url(#clip420)" style="stroke:#000000; stroke-linecap:butt; stroke-linejoin:round; stroke-width:4; stroke-opacity:1; fill:none" points="
  627.323,1423.18 627.323,1404.28 
  "/>
<polyline clip-path="url(#clip420)" style="stroke:#000000; stroke-linecap:butt; stroke-linejoin:round; stroke-width:4; stroke-opacity:1; fill:none" points="
  1043.09,1423.18 1043.09,1404.28 
  "/>
<polyline clip-path="url(#clip420)" style="stroke:#000000; stroke-linecap:butt; stroke-linejoin:round; stroke-width:4; stroke-opacity:1; fill:none" points="
  1458.86,1423.18 1458.86,1404.28 
  "/>
<polyline clip-path="url(#clip420)" style="stroke:#000000; stroke-linecap:butt; stroke-linejoin:round; stroke-width:4; stroke-opacity:1; fill:none" points="
  1874.62,1423.18 1874.62,1404.28 
  "/>
<polyline clip-path="url(#clip420)" style="stroke:#000000; stroke-linecap:butt; stroke-linejoin:round; stroke-width:4; stroke-opacity:1; fill:none" points="
  2290.39,1423.18 2290.39,1404.28 
  "/>
<path clip-path="url(#clip420)" d="M211.556 1454.1 Q207.945 1454.1 206.116 1457.66 Q204.311 1461.2 204.311 1468.33 Q204.311 1475.44 206.116 1479.01 Q207.945 1482.55 211.556 1482.55 Q215.19 1482.55 216.996 1479.01 Q218.824 1475.44 218.824 1468.33 Q218.824 1461.2 216.996 1457.66 Q215.19 1454.1 211.556 1454.1 M211.556 1450.39 Q217.366 1450.39 220.422 1455 Q223.5 1459.58 223.5 1468.33 Q223.5 1477.06 220.422 1481.67 Q217.366 1486.25 211.556 1486.25 Q205.746 1486.25 202.667 1481.67 Q199.612 1477.06 199.612 1468.33 Q199.612 1459.58 202.667 1455 Q205.746 1450.39 211.556 1450.39 Z" fill="#000000" fill-rule="evenodd" fill-opacity="1" /><path clip-path="url(#clip420)" d="M617.705 1481.64 L625.344 1481.64 L625.344 1455.28 L617.034 1456.95 L617.034 1452.69 L625.297 1451.02 L629.973 1451.02 L629.973 1481.64 L637.612 1481.64 L637.612 1485.58 L617.705 1485.58 L617.705 1481.64 Z" fill="#000000" fill-rule="evenodd" fill-opacity="1" /><path clip-path="url(#clip420)" d="M1037.74 1481.64 L1054.06 1481.64 L1054.06 1485.58 L1032.12 1485.58 L1032.12 1481.64 Q1034.78 1478.89 1039.36 1474.26 Q1043.97 1469.61 1045.15 1468.27 Q1047.4 1465.74 1048.28 1464.01 Q1049.18 1462.25 1049.18 1460.56 Q1049.18 1457.8 1047.23 1456.07 Q1045.31 1454.33 1042.21 1454.33 Q1040.01 1454.33 1037.56 1455.09 Q1035.13 1455.86 1032.35 1457.41 L1032.35 1452.69 Q1035.17 1451.55 1037.63 1450.97 Q1040.08 1450.39 1042.12 1450.39 Q1047.49 1450.39 1050.68 1453.08 Q1053.88 1455.77 1053.88 1460.26 Q1053.88 1462.39 1053.07 1464.31 Q1052.28 1466.2 1050.17 1468.8 Q1049.59 1469.47 1046.49 1472.69 Q1043.39 1475.88 1037.74 1481.64 Z" fill="#000000" fill-rule="evenodd" fill-opacity="1" /><path clip-path="url(#clip420)" d="M1463.1 1466.95 Q1466.46 1467.66 1468.34 1469.93 Q1470.23 1472.2 1470.23 1475.53 Q1470.23 1480.65 1466.72 1483.45 Q1463.2 1486.25 1456.72 1486.25 Q1454.54 1486.25 1452.22 1485.81 Q1449.93 1485.39 1447.48 1484.54 L1447.48 1480.02 Q1449.42 1481.16 1451.74 1481.74 Q1454.05 1482.32 1456.58 1482.32 Q1460.97 1482.32 1463.27 1480.58 Q1465.58 1478.84 1465.58 1475.53 Q1465.58 1472.48 1463.43 1470.77 Q1461.3 1469.03 1457.48 1469.03 L1453.45 1469.03 L1453.45 1465.19 L1457.66 1465.19 Q1461.11 1465.19 1462.94 1463.82 Q1464.77 1462.43 1464.77 1459.84 Q1464.77 1457.18 1462.87 1455.77 Q1461 1454.33 1457.48 1454.33 Q1455.56 1454.33 1453.36 1454.75 Q1451.16 1455.16 1448.52 1456.04 L1448.52 1451.88 Q1451.18 1451.14 1453.5 1450.77 Q1455.84 1450.39 1457.9 1450.39 Q1463.22 1450.39 1466.32 1452.83 Q1469.42 1455.23 1469.42 1459.35 Q1469.42 1462.22 1467.78 1464.21 Q1466.14 1466.18 1463.1 1466.95 Z" fill="#000000" fill-rule="evenodd" fill-opacity="1" /><path clip-path="url(#clip420)" d="M1877.63 1455.09 L1865.83 1473.54 L1877.63 1473.54 L1877.63 1455.09 M1876.41 1451.02 L1882.29 1451.02 L1882.29 1473.54 L1887.22 1473.54 L1887.22 1477.43 L1882.29 1477.43 L1882.29 1485.58 L1877.63 1485.58 L1877.63 1477.43 L1862.03 1477.43 L1862.03 1472.92 L1876.41 1451.02 Z" fill="#000000" fill-rule="evenodd" fill-opacity="1" /><path clip-path="url(#clip420)" d="M2280.67 1451.02 L2299.03 1451.02 L2299.03 1454.96 L2284.95 1454.96 L2284.95 1463.43 Q2285.97 1463.08 2286.99 1462.92 Q2288.01 1462.73 2289.03 1462.73 Q2294.81 1462.73 2298.19 1465.9 Q2301.57 1469.08 2301.57 1474.49 Q2301.57 1480.07 2298.1 1483.17 Q2294.63 1486.25 2288.31 1486.25 Q2286.13 1486.25 2283.86 1485.88 Q2281.62 1485.51 2279.21 1484.77 L2279.21 1480.07 Q2281.29 1481.2 2283.52 1481.76 Q2285.74 1482.32 2288.21 1482.32 Q2292.22 1482.32 2294.56 1480.21 Q2296.9 1478.1 2296.9 1474.49 Q2296.9 1470.88 2294.56 1468.77 Q2292.22 1466.67 2288.21 1466.67 Q2286.34 1466.67 2284.46 1467.08 Q2282.61 1467.5 2280.67 1468.38 L2280.67 1451.02 Z" fill="#000000" fill-rule="evenodd" fill-opacity="1" /><path clip-path="url(#clip420)" d="M1199.28 1522.27 L1199.28 1532.4 L1211.35 1532.4 L1211.35 1536.95 L1199.28 1536.95 L1199.28 1556.3 Q1199.28 1560.66 1200.46 1561.9 Q1201.67 1563.14 1205.33 1563.14 L1211.35 1563.14 L1211.35 1568.04 L1205.33 1568.04 Q1198.55 1568.04 1195.97 1565.53 Q1193.4 1562.98 1193.4 1556.3 L1193.4 1536.95 L1189.1 1536.95 L1189.1 1532.4 L1193.4 1532.4 L1193.4 1522.27 L1199.28 1522.27 Z" fill="#000000" fill-rule="evenodd" fill-opacity="1" /><path clip-path="url(#clip420)" d="M1239.23 1518.52 L1252.72 1518.52 L1252.72 1523.07 L1245.09 1523.07 L1245.09 1572.09 L1252.72 1572.09 L1252.72 1576.64 L1239.23 1576.64 L1239.23 1518.52 Z" fill="#000000" fill-rule="evenodd" fill-opacity="1" /><path clip-path="url(#clip420)" d="M1287.93 1533.45 L1287.93 1538.98 Q1285.44 1537.71 1282.77 1537.07 Q1280.1 1536.44 1277.23 1536.44 Q1272.87 1536.44 1270.68 1537.77 Q1268.51 1539.11 1268.51 1541.79 Q1268.51 1543.82 1270.07 1545 Q1271.63 1546.15 1276.34 1547.2 L1278.35 1547.64 Q1284.58 1548.98 1287.19 1551.43 Q1289.84 1553.85 1289.84 1558.21 Q1289.84 1563.17 1285.89 1566.07 Q1281.97 1568.97 1275.1 1568.97 Q1272.23 1568.97 1269.12 1568.39 Q1266.03 1567.85 1262.59 1566.74 L1262.59 1560.69 Q1265.84 1562.38 1268.99 1563.24 Q1272.14 1564.07 1275.23 1564.07 Q1279.36 1564.07 1281.59 1562.66 Q1283.82 1561.23 1283.82 1558.65 Q1283.82 1556.27 1282.2 1554.99 Q1280.61 1553.72 1275.16 1552.54 L1273.13 1552.07 Q1267.68 1550.92 1265.26 1548.56 Q1262.85 1546.18 1262.85 1542.04 Q1262.85 1537.01 1266.41 1534.27 Q1269.98 1531.54 1276.53 1531.54 Q1279.78 1531.54 1282.64 1532.01 Q1285.51 1532.49 1287.93 1533.45 Z" fill="#000000" fill-rule="evenodd" fill-opacity="1" /><path clip-path="url(#clip420)" d="M1312.85 1518.52 L1312.85 1576.64 L1299.35 1576.64 L1299.35 1572.09 L1306.96 1572.09 L1306.96 1523.07 L1299.35 1523.07 L1299.35 1518.52 L1312.85 1518.52 Z" fill="#000000" fill-rule="evenodd" fill-opacity="1" /><polyline clip-path="url(#clip422)" style="stroke:#000000; stroke-linecap:butt; stroke-linejoin:round; stroke-width:2; stroke-opacity:0.1; fill:none" points="
  149.191,1307.23 2352.76,1307.23 
  "/>
<polyline clip-path="url(#clip422)" style="stroke:#000000; stroke-linecap:butt; stroke-linejoin:round; stroke-width:2; stroke-opacity:0.1; fill:none" points="
  149.191,1013.06 2352.76,1013.06 
  "/>
<polyline clip-path="url(#clip422)" style="stroke:#000000; stroke-linecap:butt; stroke-linejoin:round; stroke-width:2; stroke-opacity:0.1; fill:none" points="
  149.191,718.889 2352.76,718.889 
  "/>
<polyline clip-path="url(#clip422)" style="stroke:#000000; stroke-linecap:butt; stroke-linejoin:round; stroke-width:2; stroke-opacity:0.1; fill:none" points="
  149.191,424.721 2352.76,424.721 
  "/>
<polyline clip-path="url(#clip422)" style="stroke:#000000; stroke-linecap:butt; stroke-linejoin:round; stroke-width:2; stroke-opacity:0.1; fill:none" points="
  149.191,130.552 2352.76,130.552 
  "/>
<polyline clip-path="url(#clip420)" style="stroke:#000000; stroke-linecap:butt; stroke-linejoin:round; stroke-width:4; stroke-opacity:1; fill:none" points="
  149.191,1423.18 149.191,47.2441 
  "/>
<polyline clip-path="url(#clip420)" style="stroke:#000000; stroke-linecap:butt; stroke-linejoin:round; stroke-width:4; stroke-opacity:1; fill:none" points="
  149.191,1307.23 168.089,1307.23 
  "/>
<polyline clip-path="url(#clip420)" style="stroke:#000000; stroke-linecap:butt; stroke-linejoin:round; stroke-width:4; stroke-opacity:1; fill:none" points="
  149.191,1013.06 168.089,1013.06 
  "/>
<polyline clip-path="url(#clip420)" style="stroke:#000000; stroke-linecap:butt; stroke-linejoin:round; stroke-width:4; stroke-opacity:1; fill:none" points="
  149.191,718.889 168.089,718.889 
  "/>
<polyline clip-path="url(#clip420)" style="stroke:#000000; stroke-linecap:butt; stroke-linejoin:round; stroke-width:4; stroke-opacity:1; fill:none" points="
  149.191,424.721 168.089,424.721 
  "/>
<polyline clip-path="url(#clip420)" style="stroke:#000000; stroke-linecap:butt; stroke-linejoin:round; stroke-width:4; stroke-opacity:1; fill:none" points="
  149.191,130.552 168.089,130.552 
  "/>
<path clip-path="url(#clip420)" d="M50.9921 1307.68 L80.6679 1307.68 L80.6679 1311.61 L50.9921 1311.61 L50.9921 1307.68 Z" fill="#000000" fill-rule="evenodd" fill-opacity="1" /><path clip-path="url(#clip420)" d="M103.608 1294.02 L91.8021 1312.47 L103.608 1312.47 L103.608 1294.02 M102.381 1289.95 L108.26 1289.95 L108.26 1312.47 L113.191 1312.47 L113.191 1316.36 L108.26 1316.36 L108.26 1324.51 L103.608 1324.51 L103.608 1316.36 L88.0058 1316.36 L88.0058 1311.84 L102.381 1289.95 Z" fill="#000000" fill-rule="evenodd" fill-opacity="1" /><path clip-path="url(#clip420)" d="M53.0754 1013.51 L82.7512 1013.51 L82.7512 1017.44 L53.0754 1017.44 L53.0754 1013.51 Z" fill="#000000" fill-rule="evenodd" fill-opacity="1" /><path clip-path="url(#clip420)" d="M96.8715 1026.4 L113.191 1026.4 L113.191 1030.34 L91.2465 1030.34 L91.2465 1026.4 Q93.9086 1023.65 98.4919 1019.02 Q103.098 1014.37 104.279 1013.02 Q106.524 1010.5 107.404 1008.76 Q108.307 1007 108.307 1005.31 Q108.307 1002.56 106.362 1000.82 Q104.441 999.087 101.339 999.087 Q99.14 999.087 96.6863 999.851 Q94.2558 1000.62 91.478 1002.17 L91.478 997.444 Q94.3021 996.31 96.7558 995.731 Q99.2095 995.152 101.246 995.152 Q106.617 995.152 109.811 997.837 Q113.006 1000.52 113.006 1005.01 Q113.006 1007.14 112.196 1009.06 Q111.408 1010.96 109.302 1013.55 Q108.723 1014.23 105.621 1017.44 Q102.52 1020.64 96.8715 1026.4 Z" fill="#000000" fill-rule="evenodd" fill-opacity="1" /><path clip-path="url(#clip420)" d="M101.246 704.688 Q97.6354 704.688 95.8067 708.252 Q94.0012 711.794 94.0012 718.924 Q94.0012 726.03 95.8067 729.595 Q97.6354 733.137 101.246 733.137 Q104.881 733.137 106.686 729.595 Q108.515 726.03 108.515 718.924 Q108.515 711.794 106.686 708.252 Q104.881 704.688 101.246 704.688 M101.246 700.984 Q107.057 700.984 110.112 705.59 Q113.191 710.174 113.191 718.924 Q113.191 727.651 110.112 732.257 Q107.057 736.84 101.246 736.84 Q95.4363 736.84 92.3576 732.257 Q89.3021 727.651 89.3021 718.924 Q89.3021 710.174 92.3576 705.59 Q95.4363 700.984 101.246 700.984 Z" fill="#000000" fill-rule="evenodd" fill-opacity="1" /><path clip-path="url(#clip420)" d="M96.8715 438.066 L113.191 438.066 L113.191 442.001 L91.2465 442.001 L91.2465 438.066 Q93.9086 435.311 98.4919 430.681 Q103.098 426.029 104.279 424.686 Q106.524 422.163 107.404 420.427 Q108.307 418.668 108.307 416.978 Q108.307 414.223 106.362 412.487 Q104.441 410.751 101.339 410.751 Q99.14 410.751 96.6863 411.515 Q94.2558 412.279 91.478 413.83 L91.478 409.107 Q94.3021 407.973 96.7558 407.394 Q99.2095 406.816 101.246 406.816 Q106.617 406.816 109.811 409.501 Q113.006 412.186 113.006 416.677 Q113.006 418.806 112.196 420.728 Q111.408 422.626 109.302 425.218 Q108.723 425.89 105.621 429.107 Q102.52 432.302 96.8715 438.066 Z" fill="#000000" fill-rule="evenodd" fill-opacity="1" /><path clip-path="url(#clip420)" d="M103.608 117.347 L91.8021 135.795 L103.608 135.795 L103.608 117.347 M102.381 113.272 L108.26 113.272 L108.26 135.795 L113.191 135.795 L113.191 139.684 L108.26 139.684 L108.26 147.832 L103.608 147.832 L103.608 139.684 L88.0058 139.684 L88.0058 135.17 L102.381 113.272 Z" fill="#000000" fill-rule="evenodd" fill-opacity="1" /><polyline clip-path="url(#clip422)" style="stroke:#009af9; stroke-linecap:butt; stroke-linejoin:round; stroke-width:4; stroke-opacity:1; fill:none" points="
  211.556,645.347 253.133,642.165 294.709,632.742 336.286,617.853 377.863,598.92 419.439,577.781 461.016,556.534 502.593,537.313 544.17,522.04 585.746,512.277 
  627.323,509.15 668.9,512.112 710.476,520.228 752.053,532.859 793.63,548.825 835.206,566.562 876.783,584.315 918.36,600.318 959.936,612.964 1001.51,620.934 
  1043.09,623.265 1084.67,620.711 1126.24,614.106 1167.82,603.953 1209.4,591.183 1250.97,577.033 1292.55,562.888 1334.13,550.164 1375.7,540.165 1417.28,533.963 
  1458.86,532.321 1500.43,534.273 1542.01,539.087 1583.59,546.423 1625.16,555.638 1666.74,565.865 1708.32,576.098 1749.89,585.313 1791.47,592.555 1833.05,597.022 
  1874.62,598.136 1916.2,597.023 1957.78,594.359 1999.35,590.306 2040.93,585.2 2082.51,579.495 2124.08,573.744 2165.66,568.526 2207.24,564.396 2248.81,561.838 
  2290.39,561.185 
  "/>
<polyline clip-path="url(#clip422)" style="stroke:#e26f46; stroke-linecap:butt; stroke-linejoin:round; stroke-width:4; stroke-opacity:1; fill:none" points="
  211.556,718.889 253.133,655.223 294.709,595.313 336.286,546.767 377.863,515.004 419.439,503.416 461.016,513.271 502.593,543.602 544.17,591.553 585.746,652.963 
  627.323,722.126 668.9,774.863 710.476,824.379 752.053,864.398 793.63,890.332 835.206,899.371 876.783,890.515 918.36,864.537 959.936,823.765 1001.51,771.579 
  1043.09,714.091 1084.67,672.68 1126.24,633.798 1167.82,602.326 1209.4,581.961 1250.97,574.982 1292.55,582.3 1334.13,603.374 1375.7,636.405 1417.28,678.746 
  1458.86,723.727 1500.43,752.995 1542.01,780.591 1583.59,803.103 1625.16,817.828 1666.74,822.974 1708.32,817.807 1749.89,802.603 1791.47,778.517 1833.05,747.354 
  1874.62,715.711 1916.2,699.898 1957.78,684.837 1999.35,672.311 2040.93,663.854 2082.51,660.582 2124.08,663.057 2165.66,671.299 2207.24,684.799 2248.81,702.62 
  2290.39,718.889 
  "/>
<polyline clip-path="url(#clip422)" style="stroke:#3da44d; stroke-linecap:butt; stroke-linejoin:round; stroke-width:4; stroke-opacity:1; fill:none" points="
  211.556,93.7814 253.133,86.1857 294.709,166.17 336.286,310.866 377.863,499.297 419.439,710.6 461.016,923.139 502.593,1116.12 544.17,1272.7 585.746,1384.24 
  627.323,1238.12 668.9,1241.89 710.476,1175.09 752.053,1054.13 793.63,896.2 835.206,719.206 876.783,541.311 918.36,379.555 959.936,247.614 1001.51,152.267 
  1043.09,310.191 1084.67,308.138 1126.24,360.024 1167.82,455.076 1209.4,580.148 1250.97,720.966 1292.55,863.136 1334.13,993.13 1375.7,1100.14 1417.28,1178.69 
  1458.86,1007.86 1500.43,1009.48 1542.01,974.429 1583.59,908.322 1625.16,819.686 1666.74,718.455 1708.32,615.078 1749.89,519.288 1791.47,438.946 1833.05,378.586 
  1874.62,562.943 1916.2,561.235 1957.78,578.109 1999.35,612.01 2040.93,659.256 2082.51,714.952 2124.08,773.481 2165.66,829.334 2207.24,877.71 2248.81,915.086 
  2290.39,718.889 
  "/>
<polyline clip-path="url(#clip422)" style="stroke:#c271d2; stroke-linecap:butt; stroke-linejoin:round; stroke-width:4; stroke-opacity:1; fill:none" points="
  211.556,608.576 253.133,647.991 294.709,662.238 336.286,666.431 377.863,667.326 419.439,667.417 461.016,667.347 502.593,666.571 544.17,662.732 585.746,648.815 
  627.323,826.198 668.9,792.813 710.476,778.456 752.053,773.104 793.63,771.379 835.206,771.004 876.783,771.37 918.36,773.092 959.936,778.572 1001.51,794.218 
  1043.09,612.981 1084.67,640.575 1126.24,654.741 1167.82,661.217 1209.4,663.845 1250.97,664.53 1292.55,663.809 1334.13,661.053 1375.7,654.037 1417.28,637.504 
  1458.86,824.761 1500.43,803.617 1542.01,790.526 1583.59,783.271 1625.16,779.761 1666.74,778.724 1708.32,779.766 1749.89,783.406 1791.47,791.331 1833.05,807.022 
  1874.62,611.527 1916.2,624.363 1957.78,634.13 1999.35,640.752 2040.93,644.57 2082.51,645.921 2124.08,644.905 2165.66,641.235 2207.24,634.152 2248.81,622.358 
  2290.39,825.084 
  "/>
<path clip-path="url(#clip420)" d="
M1390.67 352.309 L2279.3 352.309 L2279.3 93.1086 L1390.67 93.1086  Z
  " fill="#ffffff" fill-rule="evenodd" fill-opacity="1"/>
<polyline clip-path="url(#clip420)" style="stroke:#000000; stroke-linecap:butt; stroke-linejoin:round; stroke-width:4; stroke-opacity:1; fill:none" points="
  1390.67,352.309 2279.3,352.309 2279.3,93.1086 1390.67,93.1086 1390.67,352.309 
  "/>
<polyline clip-path="url(#clip420)" style="stroke:#009af9; stroke-linecap:butt; stroke-linejoin:round; stroke-width:4; stroke-opacity:1; fill:none" points="
  1415.15,144.949 1562.06,144.949 
  "/>
<path clip-path="url(#clip420)" d="M1606.89 141.28 Q1608.49 138.409 1610.71 137.044 Q1612.93 135.678 1615.94 135.678 Q1619.99 135.678 1622.19 138.525 Q1624.39 141.349 1624.39 146.581 L1624.39 162.229 L1620.11 162.229 L1620.11 146.719 Q1620.11 142.993 1618.79 141.187 Q1617.47 139.382 1614.76 139.382 Q1611.45 139.382 1609.53 141.581 Q1607.61 143.78 1607.61 147.576 L1607.61 162.229 L1603.33 162.229 L1603.33 146.719 Q1603.33 142.969 1602.01 141.187 Q1600.69 139.382 1597.93 139.382 Q1594.67 139.382 1592.75 141.604 Q1590.83 143.803 1590.83 147.576 L1590.83 162.229 L1586.54 162.229 L1586.54 136.303 L1590.83 136.303 L1590.83 140.331 Q1592.28 137.946 1594.32 136.812 Q1596.36 135.678 1599.16 135.678 Q1601.98 135.678 1603.95 137.113 Q1605.94 138.548 1606.89 141.28 Z" fill="#000000" fill-rule="evenodd" fill-opacity="1" /><path clip-path="url(#clip420)" d="M1644.67 149.196 Q1639.51 149.196 1637.51 150.377 Q1635.52 151.557 1635.52 154.405 Q1635.52 156.673 1637.01 158.016 Q1638.51 159.335 1641.08 159.335 Q1644.62 159.335 1646.75 156.835 Q1648.9 154.312 1648.9 150.145 L1648.9 149.196 L1644.67 149.196 M1653.16 147.437 L1653.16 162.229 L1648.9 162.229 L1648.9 158.293 Q1647.45 160.655 1645.27 161.789 Q1643.09 162.9 1639.95 162.9 Q1635.96 162.9 1633.6 160.678 Q1631.26 158.432 1631.26 154.682 Q1631.26 150.307 1634.18 148.085 Q1637.12 145.863 1642.93 145.863 L1648.9 145.863 L1648.9 145.446 Q1648.9 142.507 1646.96 140.909 Q1645.04 139.289 1641.54 139.289 Q1639.32 139.289 1637.21 139.821 Q1635.11 140.354 1633.16 141.419 L1633.16 137.483 Q1635.5 136.581 1637.7 136.141 Q1639.9 135.678 1641.98 135.678 Q1647.61 135.678 1650.39 138.594 Q1653.16 141.511 1653.16 147.437 Z" fill="#000000" fill-rule="evenodd" fill-opacity="1" /><path clip-path="url(#clip420)" d="M1678.46 137.067 L1678.46 141.094 Q1676.66 140.169 1674.71 139.706 Q1672.77 139.243 1670.69 139.243 Q1667.51 139.243 1665.92 140.215 Q1664.34 141.187 1664.34 143.131 Q1664.34 144.613 1665.48 145.469 Q1666.61 146.303 1670.04 147.067 L1671.5 147.391 Q1676.03 148.363 1677.93 150.145 Q1679.85 151.905 1679.85 155.076 Q1679.85 158.687 1676.98 160.793 Q1674.13 162.9 1669.13 162.9 Q1667.05 162.9 1664.78 162.483 Q1662.54 162.09 1660.04 161.28 L1660.04 156.881 Q1662.4 158.108 1664.69 158.733 Q1666.98 159.335 1669.23 159.335 Q1672.24 159.335 1673.86 158.317 Q1675.48 157.275 1675.48 155.4 Q1675.48 153.664 1674.3 152.738 Q1673.14 151.812 1669.18 150.956 L1667.7 150.608 Q1663.74 149.775 1661.98 148.062 Q1660.22 146.326 1660.22 143.317 Q1660.22 139.659 1662.82 137.669 Q1665.41 135.678 1670.18 135.678 Q1672.54 135.678 1674.62 136.025 Q1676.7 136.372 1678.46 137.067 Z" fill="#000000" fill-rule="evenodd" fill-opacity="1" /><path clip-path="url(#clip420)" d="M1703.16 137.067 L1703.16 141.094 Q1701.36 140.169 1699.41 139.706 Q1697.47 139.243 1695.38 139.243 Q1692.21 139.243 1690.62 140.215 Q1689.04 141.187 1689.04 143.131 Q1689.04 144.613 1690.18 145.469 Q1691.31 146.303 1694.74 147.067 L1696.19 147.391 Q1700.73 148.363 1702.63 150.145 Q1704.55 151.905 1704.55 155.076 Q1704.55 158.687 1701.68 160.793 Q1698.83 162.9 1693.83 162.9 Q1691.75 162.9 1689.48 162.483 Q1687.24 162.09 1684.74 161.28 L1684.74 156.881 Q1687.1 158.108 1689.39 158.733 Q1691.68 159.335 1693.93 159.335 Q1696.94 159.335 1698.56 158.317 Q1700.18 157.275 1700.18 155.4 Q1700.18 153.664 1699 152.738 Q1697.84 151.812 1693.88 150.956 L1692.4 150.608 Q1688.44 149.775 1686.68 148.062 Q1684.92 146.326 1684.92 143.317 Q1684.92 139.659 1687.51 137.669 Q1690.11 135.678 1694.88 135.678 Q1697.24 135.678 1699.32 136.025 Q1701.4 136.372 1703.16 137.067 Z" fill="#000000" fill-rule="evenodd" fill-opacity="1" /><path clip-path="url(#clip420)" d="M1711.94 156.349 L1716.82 156.349 L1716.82 162.229 L1711.94 162.229 L1711.94 156.349 Z" fill="#000000" fill-rule="evenodd" fill-opacity="1" /><path clip-path="url(#clip420)" d="M1742.93 137.067 L1742.93 141.094 Q1741.13 140.169 1739.18 139.706 Q1737.24 139.243 1735.15 139.243 Q1731.98 139.243 1730.38 140.215 Q1728.81 141.187 1728.81 143.131 Q1728.81 144.613 1729.94 145.469 Q1731.08 146.303 1734.5 147.067 L1735.96 147.391 Q1740.5 148.363 1742.4 150.145 Q1744.32 151.905 1744.32 155.076 Q1744.32 158.687 1741.45 160.793 Q1738.6 162.9 1733.6 162.9 Q1731.52 162.9 1729.25 162.483 Q1727 162.09 1724.51 161.28 L1724.51 156.881 Q1726.87 158.108 1729.16 158.733 Q1731.45 159.335 1733.69 159.335 Q1736.7 159.335 1738.32 158.317 Q1739.94 157.275 1739.94 155.4 Q1739.94 153.664 1738.76 152.738 Q1737.61 151.812 1733.65 150.956 L1732.17 150.608 Q1728.21 149.775 1726.45 148.062 Q1724.69 146.326 1724.69 143.317 Q1724.69 139.659 1727.28 137.669 Q1729.88 135.678 1734.64 135.678 Q1737 135.678 1739.09 136.025 Q1741.17 136.372 1742.93 137.067 Z" fill="#000000" fill-rule="evenodd" fill-opacity="1" /><path clip-path="url(#clip420)" d="M1776.4 126.257 Q1773.3 131.581 1771.8 136.789 Q1770.29 141.997 1770.29 147.344 Q1770.29 152.692 1771.8 157.946 Q1773.32 163.178 1776.4 168.479 L1772.7 168.479 Q1769.23 163.039 1767.49 157.784 Q1765.78 152.53 1765.78 147.344 Q1765.78 142.182 1767.49 136.951 Q1769.2 131.72 1772.7 126.257 L1776.4 126.257 Z" fill="#000000" fill-rule="evenodd" fill-opacity="1" /><path clip-path="url(#clip420)" d="M1799.44 143.594 Q1802.79 144.312 1804.67 146.581 Q1806.56 148.849 1806.56 152.182 Q1806.56 157.298 1803.05 160.099 Q1799.53 162.9 1793.05 162.9 Q1790.87 162.9 1788.56 162.46 Q1786.26 162.043 1783.81 161.187 L1783.81 156.673 Q1785.75 157.807 1788.07 158.386 Q1790.38 158.965 1792.91 158.965 Q1797.31 158.965 1799.6 157.229 Q1801.91 155.493 1801.91 152.182 Q1801.91 149.127 1799.76 147.414 Q1797.63 145.678 1793.81 145.678 L1789.78 145.678 L1789.78 141.835 L1794 141.835 Q1797.44 141.835 1799.27 140.469 Q1801.1 139.081 1801.1 136.488 Q1801.1 133.826 1799.2 132.414 Q1797.33 130.979 1793.81 130.979 Q1791.89 130.979 1789.69 131.395 Q1787.49 131.812 1784.85 132.692 L1784.85 128.525 Q1787.51 127.784 1789.83 127.414 Q1792.17 127.044 1794.23 127.044 Q1799.55 127.044 1802.65 129.474 Q1805.75 131.882 1805.75 136.002 Q1805.75 138.872 1804.11 140.863 Q1802.47 142.831 1799.44 143.594 Z" fill="#000000" fill-rule="evenodd" fill-opacity="1" /><path clip-path="url(#clip420)" d="M1829.6 143.594 Q1832.95 144.312 1834.83 146.581 Q1836.73 148.849 1836.73 152.182 Q1836.73 157.298 1833.21 160.099 Q1829.69 162.9 1823.21 162.9 Q1821.03 162.9 1818.72 162.46 Q1816.43 162.043 1813.97 161.187 L1813.97 156.673 Q1815.92 157.807 1818.23 158.386 Q1820.55 158.965 1823.07 158.965 Q1827.47 158.965 1829.76 157.229 Q1832.07 155.493 1832.07 152.182 Q1832.07 149.127 1829.92 147.414 Q1827.79 145.678 1823.97 145.678 L1819.94 145.678 L1819.94 141.835 L1824.16 141.835 Q1827.61 141.835 1829.43 140.469 Q1831.26 139.081 1831.26 136.488 Q1831.26 133.826 1829.37 132.414 Q1827.49 130.979 1823.97 130.979 Q1822.05 130.979 1819.85 131.395 Q1817.65 131.812 1815.01 132.692 L1815.01 128.525 Q1817.68 127.784 1819.99 127.414 Q1822.33 127.044 1824.39 127.044 Q1829.71 127.044 1832.81 129.474 Q1835.92 131.882 1835.92 136.002 Q1835.92 138.872 1834.27 140.863 Q1832.63 142.831 1829.6 143.594 Z" fill="#000000" fill-rule="evenodd" fill-opacity="1" /><path clip-path="url(#clip420)" d="M1845.64 127.669 L1863.99 127.669 L1863.99 131.604 L1849.92 131.604 L1849.92 140.076 Q1850.94 139.729 1851.96 139.567 Q1852.98 139.382 1854 139.382 Q1859.78 139.382 1863.16 142.553 Q1866.54 145.724 1866.54 151.141 Q1866.54 156.719 1863.07 159.821 Q1859.6 162.9 1853.28 162.9 Q1851.1 162.9 1848.83 162.53 Q1846.59 162.159 1844.18 161.418 L1844.18 156.719 Q1846.26 157.854 1848.49 158.409 Q1850.71 158.965 1853.18 158.965 Q1857.19 158.965 1859.53 156.858 Q1861.87 154.752 1861.87 151.141 Q1861.87 147.53 1859.53 145.423 Q1857.19 143.317 1853.18 143.317 Q1851.31 143.317 1849.43 143.733 Q1847.58 144.15 1845.64 145.03 L1845.64 127.669 Z" fill="#000000" fill-rule="evenodd" fill-opacity="1" /><path clip-path="url(#clip420)" d="M1875.8 127.669 L1894.16 127.669 L1894.16 131.604 L1880.08 131.604 L1880.08 140.076 Q1881.1 139.729 1882.12 139.567 Q1883.14 139.382 1884.16 139.382 Q1889.94 139.382 1893.32 142.553 Q1896.7 145.724 1896.7 151.141 Q1896.7 156.719 1893.23 159.821 Q1889.76 162.9 1883.44 162.9 Q1881.26 162.9 1878.99 162.53 Q1876.75 162.159 1874.34 161.418 L1874.34 156.719 Q1876.43 157.854 1878.65 158.409 Q1880.87 158.965 1883.35 158.965 Q1887.35 158.965 1889.69 156.858 Q1892.03 154.752 1892.03 151.141 Q1892.03 147.53 1889.69 145.423 Q1887.35 143.317 1883.35 143.317 Q1881.47 143.317 1879.6 143.733 Q1877.74 144.15 1875.8 145.03 L1875.8 127.669 Z" fill="#000000" fill-rule="evenodd" fill-opacity="1" /><path clip-path="url(#clip420)" d="M1918.76 131.743 L1906.96 150.192 L1918.76 150.192 L1918.76 131.743 M1917.54 127.669 L1923.42 127.669 L1923.42 150.192 L1928.35 150.192 L1928.35 154.081 L1923.42 154.081 L1923.42 162.229 L1918.76 162.229 L1918.76 154.081 L1903.16 154.081 L1903.16 149.567 L1917.54 127.669 Z" fill="#000000" fill-rule="evenodd" fill-opacity="1" /><path clip-path="url(#clip420)" d="M1948.93 131.743 L1937.12 150.192 L1948.93 150.192 L1948.93 131.743 M1947.7 127.669 L1953.58 127.669 L1953.58 150.192 L1958.51 150.192 L1958.51 154.081 L1953.58 154.081 L1953.58 162.229 L1948.93 162.229 L1948.93 154.081 L1933.32 154.081 L1933.32 149.567 L1947.7 127.669 Z" fill="#000000" fill-rule="evenodd" fill-opacity="1" /><path clip-path="url(#clip420)" d="M1980.41 143.594 Q1983.76 144.312 1985.64 146.581 Q1987.54 148.849 1987.54 152.182 Q1987.54 157.298 1984.02 160.099 Q1980.5 162.9 1974.02 162.9 Q1971.84 162.9 1969.53 162.46 Q1967.24 162.043 1964.78 161.187 L1964.78 156.673 Q1966.73 157.807 1969.04 158.386 Q1971.36 158.965 1973.88 158.965 Q1978.28 158.965 1980.57 157.229 Q1982.88 155.493 1982.88 152.182 Q1982.88 149.127 1980.73 147.414 Q1978.6 145.678 1974.78 145.678 L1970.75 145.678 L1970.75 141.835 L1974.97 141.835 Q1978.42 141.835 1980.24 140.469 Q1982.07 139.081 1982.07 136.488 Q1982.07 133.826 1980.17 132.414 Q1978.3 130.979 1974.78 130.979 Q1972.86 130.979 1970.66 131.395 Q1968.46 131.812 1965.82 132.692 L1965.82 128.525 Q1968.49 127.784 1970.8 127.414 Q1973.14 127.044 1975.2 127.044 Q1980.52 127.044 1983.62 129.474 Q1986.73 131.882 1986.73 136.002 Q1986.73 138.872 1985.08 140.863 Q1983.44 142.831 1980.41 143.594 Z" fill="#000000" fill-rule="evenodd" fill-opacity="1" /><path clip-path="url(#clip420)" d="M2000.43 158.293 L2016.75 158.293 L2016.75 162.229 L1994.8 162.229 L1994.8 158.293 Q1997.47 155.539 2002.05 150.909 Q2006.66 146.256 2007.84 144.914 Q2010.08 142.391 2010.96 140.655 Q2011.86 138.895 2011.86 137.206 Q2011.86 134.451 2009.92 132.715 Q2008 130.979 2004.9 130.979 Q2002.7 130.979 2000.24 131.743 Q1997.81 132.507 1995.04 134.057 L1995.04 129.335 Q1997.86 128.201 2000.31 127.622 Q2002.77 127.044 2004.8 127.044 Q2010.17 127.044 2013.37 129.729 Q2016.56 132.414 2016.56 136.905 Q2016.56 139.034 2015.75 140.956 Q2014.97 142.854 2012.86 145.446 Q2012.28 146.118 2009.18 149.335 Q2006.08 152.53 2000.43 158.293 Z" fill="#000000" fill-rule="evenodd" fill-opacity="1" /><path clip-path="url(#clip420)" d="M2025.29 126.257 L2028.99 126.257 Q2032.47 131.72 2034.18 136.951 Q2035.92 142.182 2035.92 147.344 Q2035.92 152.53 2034.18 157.784 Q2032.47 163.039 2028.99 168.479 L2025.29 168.479 Q2028.37 163.178 2029.87 157.946 Q2031.4 152.692 2031.4 147.344 Q2031.4 141.997 2029.87 136.789 Q2028.37 131.581 2025.29 126.257 Z" fill="#000000" fill-rule="evenodd" fill-opacity="1" /><polyline clip-path="url(#clip420)" style="stroke:#e26f46; stroke-linecap:butt; stroke-linejoin:round; stroke-width:4; stroke-opacity:1; fill:none" points="
  1415.15,196.789 1562.06,196.789 
  "/>
<path clip-path="url(#clip420)" d="M1606.89 193.12 Q1608.49 190.249 1610.71 188.884 Q1612.93 187.518 1615.94 187.518 Q1619.99 187.518 1622.19 190.365 Q1624.39 193.189 1624.39 198.421 L1624.39 214.069 L1620.11 214.069 L1620.11 198.559 Q1620.11 194.833 1618.79 193.027 Q1617.47 191.222 1614.76 191.222 Q1611.45 191.222 1609.53 193.421 Q1607.61 195.62 1607.61 199.416 L1607.61 214.069 L1603.33 214.069 L1603.33 198.559 Q1603.33 194.809 1602.01 193.027 Q1600.69 191.222 1597.93 191.222 Q1594.67 191.222 1592.75 193.444 Q1590.83 195.643 1590.83 199.416 L1590.83 214.069 L1586.54 214.069 L1586.54 188.143 L1590.83 188.143 L1590.83 192.171 Q1592.28 189.786 1594.32 188.652 Q1596.36 187.518 1599.16 187.518 Q1601.98 187.518 1603.95 188.953 Q1605.94 190.388 1606.89 193.12 Z" fill="#000000" fill-rule="evenodd" fill-opacity="1" /><path clip-path="url(#clip420)" d="M1644.67 201.036 Q1639.51 201.036 1637.51 202.217 Q1635.52 203.397 1635.52 206.245 Q1635.52 208.513 1637.01 209.856 Q1638.51 211.175 1641.08 211.175 Q1644.62 211.175 1646.75 208.675 Q1648.9 206.152 1648.9 201.985 L1648.9 201.036 L1644.67 201.036 M1653.16 199.277 L1653.16 214.069 L1648.9 214.069 L1648.9 210.133 Q1647.45 212.495 1645.27 213.629 Q1643.09 214.74 1639.95 214.74 Q1635.96 214.74 1633.6 212.518 Q1631.26 210.272 1631.26 206.522 Q1631.26 202.147 1634.18 199.925 Q1637.12 197.703 1642.93 197.703 L1648.9 197.703 L1648.9 197.286 Q1648.9 194.347 1646.96 192.749 Q1645.04 191.129 1641.54 191.129 Q1639.32 191.129 1637.21 191.661 Q1635.11 192.194 1633.16 193.259 L1633.16 189.323 Q1635.5 188.421 1637.7 187.981 Q1639.9 187.518 1641.98 187.518 Q1647.61 187.518 1650.39 190.434 Q1653.16 193.351 1653.16 199.277 Z" fill="#000000" fill-rule="evenodd" fill-opacity="1" /><path clip-path="url(#clip420)" d="M1678.46 188.907 L1678.46 192.934 Q1676.66 192.009 1674.71 191.546 Q1672.77 191.083 1670.69 191.083 Q1667.51 191.083 1665.92 192.055 Q1664.34 193.027 1664.34 194.971 Q1664.34 196.453 1665.48 197.309 Q1666.61 198.143 1670.04 198.907 L1671.5 199.231 Q1676.03 200.203 1677.93 201.985 Q1679.85 203.745 1679.85 206.916 Q1679.85 210.527 1676.98 212.633 Q1674.13 214.74 1669.13 214.74 Q1667.05 214.74 1664.78 214.323 Q1662.54 213.93 1660.04 213.12 L1660.04 208.721 Q1662.4 209.948 1664.69 210.573 Q1666.98 211.175 1669.23 211.175 Q1672.24 211.175 1673.86 210.157 Q1675.48 209.115 1675.48 207.24 Q1675.48 205.504 1674.3 204.578 Q1673.14 203.652 1669.18 202.796 L1667.7 202.448 Q1663.74 201.615 1661.98 199.902 Q1660.22 198.166 1660.22 195.157 Q1660.22 191.499 1662.82 189.509 Q1665.41 187.518 1670.18 187.518 Q1672.54 187.518 1674.62 187.865 Q1676.7 188.212 1678.46 188.907 Z" fill="#000000" fill-rule="evenodd" fill-opacity="1" /><path clip-path="url(#clip420)" d="M1703.16 188.907 L1703.16 192.934 Q1701.36 192.009 1699.41 191.546 Q1697.47 191.083 1695.38 191.083 Q1692.21 191.083 1690.62 192.055 Q1689.04 193.027 1689.04 194.971 Q1689.04 196.453 1690.18 197.309 Q1691.31 198.143 1694.74 198.907 L1696.19 199.231 Q1700.73 200.203 1702.63 201.985 Q1704.55 203.745 1704.55 206.916 Q1704.55 210.527 1701.68 212.633 Q1698.83 214.74 1693.83 214.74 Q1691.75 214.74 1689.48 214.323 Q1687.24 213.93 1684.74 213.12 L1684.74 208.721 Q1687.1 209.948 1689.39 210.573 Q1691.68 211.175 1693.93 211.175 Q1696.94 211.175 1698.56 210.157 Q1700.18 209.115 1700.18 207.24 Q1700.18 205.504 1699 204.578 Q1697.84 203.652 1693.88 202.796 L1692.4 202.448 Q1688.44 201.615 1686.68 199.902 Q1684.92 198.166 1684.92 195.157 Q1684.92 191.499 1687.51 189.509 Q1690.11 187.518 1694.88 187.518 Q1697.24 187.518 1699.32 187.865 Q1701.4 188.212 1703.16 188.907 Z" fill="#000000" fill-rule="evenodd" fill-opacity="1" /><path clip-path="url(#clip420)" d="M1711.94 208.189 L1716.82 208.189 L1716.82 214.069 L1711.94 214.069 L1711.94 208.189 Z" fill="#000000" fill-rule="evenodd" fill-opacity="1" /><path clip-path="url(#clip420)" d="M1723.35 188.143 L1727.86 188.143 L1735.96 209.902 L1744.07 188.143 L1748.58 188.143 L1738.86 214.069 L1733.07 214.069 L1723.35 188.143 Z" fill="#000000" fill-rule="evenodd" fill-opacity="1" /><path clip-path="url(#clip420)" d="M1779.76 178.097 Q1776.66 183.421 1775.15 188.629 Q1773.65 193.837 1773.65 199.184 Q1773.65 204.532 1775.15 209.786 Q1776.68 215.018 1779.76 220.319 L1776.06 220.319 Q1772.58 214.879 1770.85 209.624 Q1769.13 204.37 1769.13 199.184 Q1769.13 194.022 1770.85 188.791 Q1772.56 183.56 1776.06 178.097 L1779.76 178.097 Z" fill="#000000" fill-rule="evenodd" fill-opacity="1" /><path clip-path="url(#clip420)" d="M1802.79 195.434 Q1806.15 196.152 1808.02 198.421 Q1809.92 200.689 1809.92 204.022 Q1809.92 209.138 1806.4 211.939 Q1802.88 214.74 1796.4 214.74 Q1794.23 214.74 1791.91 214.3 Q1789.62 213.883 1787.17 213.027 L1787.17 208.513 Q1789.11 209.647 1791.43 210.226 Q1793.74 210.805 1796.26 210.805 Q1800.66 210.805 1802.95 209.069 Q1805.27 207.333 1805.27 204.022 Q1805.27 200.967 1803.12 199.254 Q1800.99 197.518 1797.17 197.518 L1793.14 197.518 L1793.14 193.675 L1797.35 193.675 Q1800.8 193.675 1802.63 192.309 Q1804.46 190.921 1804.46 188.328 Q1804.46 185.666 1802.56 184.254 Q1800.69 182.819 1797.17 182.819 Q1795.25 182.819 1793.05 183.235 Q1790.85 183.652 1788.21 184.532 L1788.21 180.365 Q1790.87 179.624 1793.19 179.254 Q1795.52 178.884 1797.58 178.884 Q1802.91 178.884 1806.01 181.314 Q1809.11 183.722 1809.11 187.842 Q1809.11 190.712 1807.47 192.703 Q1805.82 194.671 1802.79 195.434 Z" fill="#000000" fill-rule="evenodd" fill-opacity="1" /><path clip-path="url(#clip420)" d="M1832.95 195.434 Q1836.31 196.152 1838.18 198.421 Q1840.08 200.689 1840.08 204.022 Q1840.08 209.138 1836.56 211.939 Q1833.05 214.74 1826.56 214.74 Q1824.39 214.74 1822.07 214.3 Q1819.78 213.883 1817.33 213.027 L1817.33 208.513 Q1819.27 209.647 1821.59 210.226 Q1823.9 210.805 1826.43 210.805 Q1830.82 210.805 1833.12 209.069 Q1835.43 207.333 1835.43 204.022 Q1835.43 200.967 1833.28 199.254 Q1831.15 197.518 1827.33 197.518 L1823.3 197.518 L1823.3 193.675 L1827.51 193.675 Q1830.96 193.675 1832.79 192.309 Q1834.62 190.921 1834.62 188.328 Q1834.62 185.666 1832.72 184.254 Q1830.85 182.819 1827.33 182.819 Q1825.41 182.819 1823.21 183.235 Q1821.01 183.652 1818.37 184.532 L1818.37 180.365 Q1821.03 179.624 1823.35 179.254 Q1825.69 178.884 1827.75 178.884 Q1833.07 178.884 1836.17 181.314 Q1839.27 183.722 1839.27 187.842 Q1839.27 190.712 1837.63 192.703 Q1835.99 194.671 1832.95 195.434 Z" fill="#000000" fill-rule="evenodd" fill-opacity="1" /><path clip-path="url(#clip420)" d="M1849 179.509 L1867.35 179.509 L1867.35 183.444 L1853.28 183.444 L1853.28 191.916 Q1854.3 191.569 1855.31 191.407 Q1856.33 191.222 1857.35 191.222 Q1863.14 191.222 1866.52 194.393 Q1869.9 197.564 1869.9 202.981 Q1869.9 208.559 1866.43 211.661 Q1862.95 214.74 1856.63 214.74 Q1854.46 214.74 1852.19 214.37 Q1849.94 213.999 1847.54 213.258 L1847.54 208.559 Q1849.62 209.694 1851.84 210.249 Q1854.06 210.805 1856.54 210.805 Q1860.55 210.805 1862.88 208.698 Q1865.22 206.592 1865.22 202.981 Q1865.22 199.37 1862.88 197.263 Q1860.55 195.157 1856.54 195.157 Q1854.67 195.157 1852.79 195.573 Q1850.94 195.99 1849 196.87 L1849 179.509 Z" fill="#000000" fill-rule="evenodd" fill-opacity="1" /><path clip-path="url(#clip420)" d="M1879.16 179.509 L1897.51 179.509 L1897.51 183.444 L1883.44 183.444 L1883.44 191.916 Q1884.46 191.569 1885.48 191.407 Q1886.49 191.222 1887.51 191.222 Q1893.3 191.222 1896.68 194.393 Q1900.06 197.564 1900.06 202.981 Q1900.06 208.559 1896.59 211.661 Q1893.12 214.74 1886.8 214.74 Q1884.62 214.74 1882.35 214.37 Q1880.11 213.999 1877.7 213.258 L1877.7 208.559 Q1879.78 209.694 1882 210.249 Q1884.23 210.805 1886.7 210.805 Q1890.71 210.805 1893.05 208.698 Q1895.38 206.592 1895.38 202.981 Q1895.38 199.37 1893.05 197.263 Q1890.71 195.157 1886.7 195.157 Q1884.83 195.157 1882.95 195.573 Q1881.1 195.99 1879.16 196.87 L1879.16 179.509 Z" fill="#000000" fill-rule="evenodd" fill-opacity="1" /><path clip-path="url(#clip420)" d="M1922.12 183.583 L1910.31 202.032 L1922.12 202.032 L1922.12 183.583 M1920.89 179.509 L1926.77 179.509 L1926.77 202.032 L1931.7 202.032 L1931.7 205.921 L1926.77 205.921 L1926.77 214.069 L1922.12 214.069 L1922.12 205.921 L1906.52 205.921 L1906.52 201.407 L1920.89 179.509 Z" fill="#000000" fill-rule="evenodd" fill-opacity="1" /><path clip-path="url(#clip420)" d="M1952.28 183.583 L1940.48 202.032 L1952.28 202.032 L1952.28 183.583 M1951.05 179.509 L1956.93 179.509 L1956.93 202.032 L1961.86 202.032 L1961.86 205.921 L1956.93 205.921 L1956.93 214.069 L1952.28 214.069 L1952.28 205.921 L1936.68 205.921 L1936.68 201.407 L1951.05 179.509 Z" fill="#000000" fill-rule="evenodd" fill-opacity="1" /><path clip-path="url(#clip420)" d="M1983.76 195.434 Q1987.12 196.152 1988.99 198.421 Q1990.89 200.689 1990.89 204.022 Q1990.89 209.138 1987.37 211.939 Q1983.86 214.74 1977.37 214.74 Q1975.2 214.74 1972.88 214.3 Q1970.59 213.883 1968.14 213.027 L1968.14 208.513 Q1970.08 209.647 1972.4 210.226 Q1974.71 210.805 1977.24 210.805 Q1981.63 210.805 1983.92 209.069 Q1986.24 207.333 1986.24 204.022 Q1986.24 200.967 1984.09 199.254 Q1981.96 197.518 1978.14 197.518 L1974.11 197.518 L1974.11 193.675 L1978.32 193.675 Q1981.77 193.675 1983.6 192.309 Q1985.43 190.921 1985.43 188.328 Q1985.43 185.666 1983.53 184.254 Q1981.66 182.819 1978.14 182.819 Q1976.22 182.819 1974.02 183.235 Q1971.82 183.652 1969.18 184.532 L1969.18 180.365 Q1971.84 179.624 1974.16 179.254 Q1976.49 178.884 1978.55 178.884 Q1983.88 178.884 1986.98 181.314 Q1990.08 183.722 1990.08 187.842 Q1990.08 190.712 1988.44 192.703 Q1986.8 194.671 1983.76 195.434 Z" fill="#000000" fill-rule="evenodd" fill-opacity="1" /><path clip-path="url(#clip420)" d="M2013.92 195.434 Q2017.28 196.152 2019.16 198.421 Q2021.05 200.689 2021.05 204.022 Q2021.05 209.138 2017.54 211.939 Q2014.02 214.74 2007.54 214.74 Q2005.36 214.74 2003.05 214.3 Q2000.75 213.883 1998.3 213.027 L1998.3 208.513 Q2000.24 209.647 2002.56 210.226 Q2004.87 210.805 2007.4 210.805 Q2011.8 210.805 2014.09 209.069 Q2016.4 207.333 2016.4 204.022 Q2016.4 200.967 2014.25 199.254 Q2012.12 197.518 2008.3 197.518 L2004.27 197.518 L2004.27 193.675 L2008.48 193.675 Q2011.93 193.675 2013.76 192.309 Q2015.59 190.921 2015.59 188.328 Q2015.59 185.666 2013.69 184.254 Q2011.82 182.819 2008.3 182.819 Q2006.38 182.819 2004.18 183.235 Q2001.98 183.652 1999.34 184.532 L1999.34 180.365 Q2002 179.624 2004.32 179.254 Q2006.66 178.884 2008.72 178.884 Q2014.04 178.884 2017.14 181.314 Q2020.24 183.722 2020.24 187.842 Q2020.24 190.712 2018.6 192.703 Q2016.96 194.671 2013.92 195.434 Z" fill="#000000" fill-rule="evenodd" fill-opacity="1" /><path clip-path="url(#clip420)" d="M2028.65 178.097 L2032.35 178.097 Q2035.82 183.56 2037.54 188.791 Q2039.27 194.022 2039.27 199.184 Q2039.27 204.37 2037.54 209.624 Q2035.82 214.879 2032.35 220.319 L2028.65 220.319 Q2031.73 215.018 2033.23 209.786 Q2034.76 204.532 2034.76 199.184 Q2034.76 193.837 2033.23 188.629 Q2031.73 183.421 2028.65 178.097 Z" fill="#000000" fill-rule="evenodd" fill-opacity="1" /><polyline clip-path="url(#clip420)" style="stroke:#3da44d; stroke-linecap:butt; stroke-linejoin:round; stroke-width:4; stroke-opacity:1; fill:none" points="
  1415.15,248.629 1562.06,248.629 
  "/>
<path clip-path="url(#clip420)" d="M1606.89 244.96 Q1608.49 242.089 1610.71 240.724 Q1612.93 239.358 1615.94 239.358 Q1619.99 239.358 1622.19 242.205 Q1624.39 245.029 1624.39 250.261 L1624.39 265.909 L1620.11 265.909 L1620.11 250.399 Q1620.11 246.673 1618.79 244.867 Q1617.47 243.062 1614.76 243.062 Q1611.45 243.062 1609.53 245.261 Q1607.61 247.46 1607.61 251.256 L1607.61 265.909 L1603.33 265.909 L1603.33 250.399 Q1603.33 246.649 1602.01 244.867 Q1600.69 243.062 1597.93 243.062 Q1594.67 243.062 1592.75 245.284 Q1590.83 247.483 1590.83 251.256 L1590.83 265.909 L1586.54 265.909 L1586.54 239.983 L1590.83 239.983 L1590.83 244.011 Q1592.28 241.626 1594.32 240.492 Q1596.36 239.358 1599.16 239.358 Q1601.98 239.358 1603.95 240.793 Q1605.94 242.228 1606.89 244.96 Z" fill="#000000" fill-rule="evenodd" fill-opacity="1" /><path clip-path="url(#clip420)" d="M1644.67 252.876 Q1639.51 252.876 1637.51 254.057 Q1635.52 255.237 1635.52 258.085 Q1635.52 260.353 1637.01 261.696 Q1638.51 263.015 1641.08 263.015 Q1644.62 263.015 1646.75 260.515 Q1648.9 257.992 1648.9 253.825 L1648.9 252.876 L1644.67 252.876 M1653.16 251.117 L1653.16 265.909 L1648.9 265.909 L1648.9 261.973 Q1647.45 264.335 1645.27 265.469 Q1643.09 266.58 1639.95 266.58 Q1635.96 266.58 1633.6 264.358 Q1631.26 262.112 1631.26 258.362 Q1631.26 253.987 1634.18 251.765 Q1637.12 249.543 1642.93 249.543 L1648.9 249.543 L1648.9 249.126 Q1648.9 246.187 1646.96 244.589 Q1645.04 242.969 1641.54 242.969 Q1639.32 242.969 1637.21 243.501 Q1635.11 244.034 1633.16 245.099 L1633.16 241.163 Q1635.5 240.261 1637.7 239.821 Q1639.9 239.358 1641.98 239.358 Q1647.61 239.358 1650.39 242.274 Q1653.16 245.191 1653.16 251.117 Z" fill="#000000" fill-rule="evenodd" fill-opacity="1" /><path clip-path="url(#clip420)" d="M1678.46 240.747 L1678.46 244.774 Q1676.66 243.849 1674.71 243.386 Q1672.77 242.923 1670.69 242.923 Q1667.51 242.923 1665.92 243.895 Q1664.34 244.867 1664.34 246.811 Q1664.34 248.293 1665.48 249.149 Q1666.61 249.983 1670.04 250.747 L1671.5 251.071 Q1676.03 252.043 1677.93 253.825 Q1679.85 255.585 1679.85 258.756 Q1679.85 262.367 1676.98 264.473 Q1674.13 266.58 1669.13 266.58 Q1667.05 266.58 1664.78 266.163 Q1662.54 265.77 1660.04 264.96 L1660.04 260.561 Q1662.4 261.788 1664.69 262.413 Q1666.98 263.015 1669.23 263.015 Q1672.24 263.015 1673.86 261.997 Q1675.48 260.955 1675.48 259.08 Q1675.48 257.344 1674.3 256.418 Q1673.14 255.492 1669.18 254.636 L1667.7 254.288 Q1663.74 253.455 1661.98 251.742 Q1660.22 250.006 1660.22 246.997 Q1660.22 243.339 1662.82 241.349 Q1665.41 239.358 1670.18 239.358 Q1672.54 239.358 1674.62 239.705 Q1676.7 240.052 1678.46 240.747 Z" fill="#000000" fill-rule="evenodd" fill-opacity="1" /><path clip-path="url(#clip420)" d="M1703.16 240.747 L1703.16 244.774 Q1701.36 243.849 1699.41 243.386 Q1697.47 242.923 1695.38 242.923 Q1692.21 242.923 1690.62 243.895 Q1689.04 244.867 1689.04 246.811 Q1689.04 248.293 1690.18 249.149 Q1691.31 249.983 1694.74 250.747 L1696.19 251.071 Q1700.73 252.043 1702.63 253.825 Q1704.55 255.585 1704.55 258.756 Q1704.55 262.367 1701.68 264.473 Q1698.83 266.58 1693.83 266.58 Q1691.75 266.58 1689.48 266.163 Q1687.24 265.77 1684.74 264.96 L1684.74 260.561 Q1687.1 261.788 1689.39 262.413 Q1691.68 263.015 1693.93 263.015 Q1696.94 263.015 1698.56 261.997 Q1700.18 260.955 1700.18 259.08 Q1700.18 257.344 1699 256.418 Q1697.84 255.492 1693.88 254.636 L1692.4 254.288 Q1688.44 253.455 1686.68 251.742 Q1684.92 250.006 1684.92 246.997 Q1684.92 243.339 1687.51 241.349 Q1690.11 239.358 1694.88 239.358 Q1697.24 239.358 1699.32 239.705 Q1701.4 240.052 1703.16 240.747 Z" fill="#000000" fill-rule="evenodd" fill-opacity="1" /><path clip-path="url(#clip420)" d="M1711.94 260.029 L1716.82 260.029 L1716.82 265.909 L1711.94 265.909 L1711.94 260.029 Z" fill="#000000" fill-rule="evenodd" fill-opacity="1" /><path clip-path="url(#clip420)" d="M1738.19 252.876 Q1733.02 252.876 1731.03 254.057 Q1729.04 255.237 1729.04 258.085 Q1729.04 260.353 1730.52 261.696 Q1732.03 263.015 1734.6 263.015 Q1738.14 263.015 1740.27 260.515 Q1742.42 257.992 1742.42 253.825 L1742.42 252.876 L1738.19 252.876 M1746.68 251.117 L1746.68 265.909 L1742.42 265.909 L1742.42 261.973 Q1740.96 264.335 1738.79 265.469 Q1736.61 266.58 1733.46 266.58 Q1729.48 266.58 1727.12 264.358 Q1724.78 262.112 1724.78 258.362 Q1724.78 253.987 1727.7 251.765 Q1730.64 249.543 1736.45 249.543 L1742.42 249.543 L1742.42 249.126 Q1742.42 246.187 1740.48 244.589 Q1738.56 242.969 1735.06 242.969 Q1732.84 242.969 1730.73 243.501 Q1728.63 244.034 1726.68 245.099 L1726.68 241.163 Q1729.02 240.261 1731.22 239.821 Q1733.42 239.358 1735.5 239.358 Q1741.13 239.358 1743.9 242.274 Q1746.68 245.191 1746.68 251.117 Z" fill="#000000" fill-rule="evenodd" fill-opacity="1" /><path clip-path="url(#clip420)" d="M1775.15 273.779 L1775.15 277.089 L1750.52 277.089 L1750.52 273.779 L1775.15 273.779 Z" fill="#000000" fill-rule="evenodd" fill-opacity="1" /><path clip-path="url(#clip420)" d="M1794.18 243.964 Q1793.46 243.548 1792.61 243.362 Q1791.77 243.154 1790.75 243.154 Q1787.14 243.154 1785.2 245.515 Q1783.28 247.853 1783.28 252.251 L1783.28 265.909 L1779 265.909 L1779 239.983 L1783.28 239.983 L1783.28 244.011 Q1784.62 241.649 1786.77 240.515 Q1788.93 239.358 1792 239.358 Q1792.44 239.358 1792.98 239.427 Q1793.51 239.474 1794.16 239.589 L1794.18 243.964 Z" fill="#000000" fill-rule="evenodd" fill-opacity="1" /><path clip-path="url(#clip420)" d="M1819.78 251.881 L1819.78 253.964 L1800.2 253.964 Q1800.48 258.362 1802.84 260.677 Q1805.22 262.969 1809.46 262.969 Q1811.91 262.969 1814.2 262.367 Q1816.52 261.765 1818.79 260.561 L1818.79 264.589 Q1816.5 265.561 1814.09 266.071 Q1811.68 266.58 1809.2 266.58 Q1803 266.58 1799.37 262.969 Q1795.75 259.358 1795.75 253.2 Q1795.75 246.835 1799.18 243.108 Q1802.63 239.358 1808.46 239.358 Q1813.69 239.358 1816.73 242.737 Q1819.78 246.094 1819.78 251.881 M1815.52 250.631 Q1815.48 247.136 1813.56 245.052 Q1811.66 242.969 1808.51 242.969 Q1804.94 242.969 1802.79 244.983 Q1800.66 246.997 1800.34 250.654 L1815.52 250.631 Z" fill="#000000" fill-rule="evenodd" fill-opacity="1" /><path clip-path="url(#clip420)" d="M1826.77 229.89 L1831.03 229.89 L1831.03 265.909 L1826.77 265.909 L1826.77 229.89 Z" fill="#000000" fill-rule="evenodd" fill-opacity="1" /><path clip-path="url(#clip420)" d="M1853.07 229.89 L1853.07 233.432 L1849 233.432 Q1846.7 233.432 1845.8 234.358 Q1844.92 235.284 1844.92 237.691 L1844.92 239.983 L1851.93 239.983 L1851.93 243.293 L1844.92 243.293 L1844.92 265.909 L1840.64 265.909 L1840.64 243.293 L1836.56 243.293 L1836.56 239.983 L1840.64 239.983 L1840.64 238.177 Q1840.64 233.849 1842.65 231.881 Q1844.67 229.89 1849.04 229.89 L1853.07 229.89 Z" fill="#000000" fill-rule="evenodd" fill-opacity="1" /><path clip-path="url(#clip420)" d="M1871.66 243.964 Q1870.94 243.548 1870.08 243.362 Q1869.25 243.154 1868.23 243.154 Q1864.62 243.154 1862.68 245.515 Q1860.75 247.853 1860.75 252.251 L1860.75 265.909 L1856.47 265.909 L1856.47 239.983 L1860.75 239.983 L1860.75 244.011 Q1862.1 241.649 1864.25 240.515 Q1866.4 239.358 1869.48 239.358 Q1869.92 239.358 1870.45 239.427 Q1870.99 239.474 1871.63 239.589 L1871.66 243.964 Z" fill="#000000" fill-rule="evenodd" fill-opacity="1" /><path clip-path="url(#clip420)" d="M1876.12 239.983 L1880.38 239.983 L1880.38 265.909 L1876.12 265.909 L1876.12 239.983 M1876.12 229.89 L1880.38 229.89 L1880.38 235.284 L1876.12 235.284 L1876.12 229.89 Z" fill="#000000" fill-rule="evenodd" fill-opacity="1" /><path clip-path="url(#clip420)" d="M1907.95 240.978 L1907.95 244.96 Q1906.15 243.964 1904.32 243.478 Q1902.51 242.969 1900.66 242.969 Q1896.52 242.969 1894.23 245.608 Q1891.93 248.224 1891.93 252.969 Q1891.93 257.714 1894.23 260.353 Q1896.52 262.969 1900.66 262.969 Q1902.51 262.969 1904.32 262.483 Q1906.15 261.973 1907.95 260.978 L1907.95 264.913 Q1906.17 265.747 1904.25 266.163 Q1902.35 266.58 1900.2 266.58 Q1894.34 266.58 1890.89 262.899 Q1887.44 259.219 1887.44 252.969 Q1887.44 246.626 1890.92 242.992 Q1894.41 239.358 1900.48 239.358 Q1902.44 239.358 1904.32 239.775 Q1906.19 240.168 1907.95 240.978 Z" fill="#000000" fill-rule="evenodd" fill-opacity="1" /><path clip-path="url(#clip420)" d="M1940.66 229.937 Q1937.56 235.261 1936.05 240.469 Q1934.55 245.677 1934.55 251.024 Q1934.55 256.372 1936.05 261.626 Q1937.58 266.858 1940.66 272.159 L1936.96 272.159 Q1933.49 266.719 1931.75 261.464 Q1930.04 256.21 1930.04 251.024 Q1930.04 245.862 1931.75 240.631 Q1933.46 235.4 1936.96 229.937 L1940.66 229.937 Z" fill="#000000" fill-rule="evenodd" fill-opacity="1" /><path clip-path="url(#clip420)" d="M1949.57 231.349 L1967.93 231.349 L1967.93 235.284 L1953.86 235.284 L1953.86 243.756 Q1954.87 243.409 1955.89 243.247 Q1956.91 243.062 1957.93 243.062 Q1963.72 243.062 1967.1 246.233 Q1970.48 249.404 1970.48 254.821 Q1970.48 260.399 1967 263.501 Q1963.53 266.58 1957.21 266.58 Q1955.04 266.58 1952.77 266.21 Q1950.52 265.839 1948.11 265.098 L1948.11 260.399 Q1950.2 261.534 1952.42 262.089 Q1954.64 262.645 1957.12 262.645 Q1961.12 262.645 1963.46 260.538 Q1965.8 258.432 1965.8 254.821 Q1965.8 251.21 1963.46 249.103 Q1961.12 246.997 1957.12 246.997 Q1955.24 246.997 1953.37 247.413 Q1951.52 247.83 1949.57 248.71 L1949.57 231.349 Z" fill="#000000" fill-rule="evenodd" fill-opacity="1" /><path clip-path="url(#clip420)" d="M1989.69 249.497 Q1986.36 249.497 1984.43 251.279 Q1982.54 253.061 1982.54 256.186 Q1982.54 259.311 1984.43 261.094 Q1986.36 262.876 1989.69 262.876 Q1993.02 262.876 1994.94 261.094 Q1996.86 259.288 1996.86 256.186 Q1996.86 253.061 1994.94 251.279 Q1993.05 249.497 1989.69 249.497 M1985.01 247.506 Q1982 246.765 1980.31 244.705 Q1978.65 242.645 1978.65 239.682 Q1978.65 235.538 1981.59 233.131 Q1984.55 230.724 1989.69 230.724 Q1994.85 230.724 1997.79 233.131 Q2000.73 235.538 2000.73 239.682 Q2000.73 242.645 1999.04 244.705 Q1997.37 246.765 1994.39 247.506 Q1997.77 248.293 1999.64 250.585 Q2001.54 252.876 2001.54 256.186 Q2001.54 261.21 1998.46 263.895 Q1995.41 266.58 1989.69 266.58 Q1983.97 266.58 1980.89 263.895 Q1977.84 261.21 1977.84 256.186 Q1977.84 252.876 1979.74 250.585 Q1981.63 248.293 1985.01 247.506 M1983.3 240.122 Q1983.3 242.807 1984.97 244.312 Q1986.66 245.816 1989.69 245.816 Q1992.7 245.816 1994.39 244.312 Q1996.1 242.807 1996.1 240.122 Q1996.1 237.437 1994.39 235.932 Q1992.7 234.427 1989.69 234.427 Q1986.66 234.427 1984.97 235.932 Q1983.3 237.437 1983.3 240.122 Z" fill="#000000" fill-rule="evenodd" fill-opacity="1" /><path clip-path="url(#clip420)" d="M2008.67 231.349 L2030.89 231.349 L2030.89 233.339 L2018.35 265.909 L2013.46 265.909 L2025.27 235.284 L2008.67 235.284 L2008.67 231.349 Z" fill="#000000" fill-rule="evenodd" fill-opacity="1" /><path clip-path="url(#clip420)" d="M2044.04 261.973 L2060.36 261.973 L2060.36 265.909 L2038.42 265.909 L2038.42 261.973 Q2041.08 259.219 2045.66 254.589 Q2050.27 249.936 2051.45 248.594 Q2053.69 246.071 2054.57 244.335 Q2055.48 242.575 2055.48 240.886 Q2055.48 238.131 2053.53 236.395 Q2051.61 234.659 2048.51 234.659 Q2046.31 234.659 2043.86 235.423 Q2041.42 236.187 2038.65 237.737 L2038.65 233.015 Q2041.47 231.881 2043.92 231.302 Q2046.38 230.724 2048.42 230.724 Q2053.79 230.724 2056.98 233.409 Q2060.17 236.094 2060.17 240.585 Q2060.17 242.714 2059.36 244.636 Q2058.58 246.534 2056.47 249.126 Q2055.89 249.798 2052.79 253.015 Q2049.69 256.21 2044.04 261.973 Z" fill="#000000" fill-rule="evenodd" fill-opacity="1" /><path clip-path="url(#clip420)" d="M2080.17 234.427 Q2076.56 234.427 2074.73 237.992 Q2072.93 241.534 2072.93 248.663 Q2072.93 255.77 2074.73 259.335 Q2076.56 262.876 2080.17 262.876 Q2083.81 262.876 2085.61 259.335 Q2087.44 255.77 2087.44 248.663 Q2087.44 241.534 2085.61 237.992 Q2083.81 234.427 2080.17 234.427 M2080.17 230.724 Q2085.98 230.724 2089.04 235.33 Q2092.12 239.913 2092.12 248.663 Q2092.12 257.39 2089.04 261.997 Q2085.98 266.58 2080.17 266.58 Q2074.36 266.58 2071.29 261.997 Q2068.23 257.39 2068.23 248.663 Q2068.23 239.913 2071.29 235.33 Q2074.36 230.724 2080.17 230.724 Z" fill="#000000" fill-rule="evenodd" fill-opacity="1" /><path clip-path="url(#clip420)" d="M2104.36 261.973 L2120.68 261.973 L2120.68 265.909 L2098.74 265.909 L2098.74 261.973 Q2101.4 259.219 2105.98 254.589 Q2110.59 249.936 2111.77 248.594 Q2114.02 246.071 2114.9 244.335 Q2115.8 242.575 2115.8 240.886 Q2115.8 238.131 2113.85 236.395 Q2111.93 234.659 2108.83 234.659 Q2106.63 234.659 2104.18 235.423 Q2101.75 236.187 2098.97 237.737 L2098.97 233.015 Q2101.79 231.881 2104.25 231.302 Q2106.7 230.724 2108.74 230.724 Q2114.11 230.724 2117.3 233.409 Q2120.5 236.094 2120.5 240.585 Q2120.5 242.714 2119.69 244.636 Q2118.9 246.534 2116.79 249.126 Q2116.22 249.798 2113.11 253.015 Q2110.01 256.21 2104.36 261.973 Z" fill="#000000" fill-rule="evenodd" fill-opacity="1" /><path clip-path="url(#clip420)" d="M2130.54 231.349 L2148.9 231.349 L2148.9 235.284 L2134.83 235.284 L2134.83 243.756 Q2135.85 243.409 2136.86 243.247 Q2137.88 243.062 2138.9 243.062 Q2144.69 243.062 2148.07 246.233 Q2151.45 249.404 2151.45 254.821 Q2151.45 260.399 2147.97 263.501 Q2144.5 266.58 2138.18 266.58 Q2136.01 266.58 2133.74 266.21 Q2131.49 265.839 2129.09 265.098 L2129.09 260.399 Q2131.17 261.534 2133.39 262.089 Q2135.61 262.645 2138.09 262.645 Q2142.1 262.645 2144.43 260.538 Q2146.77 258.432 2146.77 254.821 Q2146.77 251.21 2144.43 249.103 Q2142.1 246.997 2138.09 246.997 Q2136.22 246.997 2134.34 247.413 Q2132.49 247.83 2130.54 248.71 L2130.54 231.349 Z" fill="#000000" fill-rule="evenodd" fill-opacity="1" /><path clip-path="url(#clip420)" d="M2171.24 246.765 Q2168.09 246.765 2166.24 248.918 Q2164.41 251.071 2164.41 254.821 Q2164.41 258.548 2166.24 260.723 Q2168.09 262.876 2171.24 262.876 Q2174.39 262.876 2176.22 260.723 Q2178.07 258.548 2178.07 254.821 Q2178.07 251.071 2176.22 248.918 Q2174.39 246.765 2171.24 246.765 M2180.52 232.113 L2180.52 236.372 Q2178.76 235.538 2176.96 235.099 Q2175.17 234.659 2173.41 234.659 Q2168.79 234.659 2166.33 237.784 Q2163.9 240.909 2163.55 247.228 Q2164.92 245.214 2166.98 244.149 Q2169.04 243.062 2171.52 243.062 Q2176.72 243.062 2179.73 246.233 Q2182.77 249.381 2182.77 254.821 Q2182.77 260.145 2179.62 263.362 Q2176.47 266.58 2171.24 266.58 Q2165.24 266.58 2162.07 261.997 Q2158.9 257.39 2158.9 248.663 Q2158.9 240.469 2162.79 235.608 Q2166.68 230.724 2173.23 230.724 Q2174.99 230.724 2176.77 231.071 Q2178.58 231.418 2180.52 232.113 Z" fill="#000000" fill-rule="evenodd" fill-opacity="1" /><path clip-path="url(#clip420)" d="M2191.63 261.973 L2199.27 261.973 L2199.27 235.608 L2190.96 237.275 L2190.96 233.015 L2199.22 231.349 L2203.9 231.349 L2203.9 261.973 L2211.54 261.973 L2211.54 265.909 L2191.63 265.909 L2191.63 261.973 Z" fill="#000000" fill-rule="evenodd" fill-opacity="1" /><path clip-path="url(#clip420)" d="M2219.71 229.937 L2223.41 229.937 Q2226.89 235.4 2228.6 240.631 Q2230.34 245.862 2230.34 251.024 Q2230.34 256.21 2228.6 261.464 Q2226.89 266.719 2223.41 272.159 L2219.71 272.159 Q2222.79 266.858 2224.29 261.626 Q2225.82 256.372 2225.82 251.024 Q2225.82 245.677 2224.29 240.469 Q2222.79 235.261 2219.71 229.937 Z" fill="#000000" fill-rule="evenodd" fill-opacity="1" /><polyline clip-path="url(#clip420)" style="stroke:#c271d2; stroke-linecap:butt; stroke-linejoin:round; stroke-width:4; stroke-opacity:1; fill:none" points="
  1415.15,300.469 1562.06,300.469 
  "/>
<path clip-path="url(#clip420)" d="M1606.89 296.8 Q1608.49 293.929 1610.71 292.564 Q1612.93 291.198 1615.94 291.198 Q1619.99 291.198 1622.19 294.045 Q1624.39 296.869 1624.39 302.101 L1624.39 317.749 L1620.11 317.749 L1620.11 302.239 Q1620.11 298.513 1618.79 296.707 Q1617.47 294.902 1614.76 294.902 Q1611.45 294.902 1609.53 297.101 Q1607.61 299.3 1607.61 303.096 L1607.61 317.749 L1603.33 317.749 L1603.33 302.239 Q1603.33 298.489 1602.01 296.707 Q1600.69 294.902 1597.93 294.902 Q1594.67 294.902 1592.75 297.124 Q1590.83 299.323 1590.83 303.096 L1590.83 317.749 L1586.54 317.749 L1586.54 291.823 L1590.83 291.823 L1590.83 295.851 Q1592.28 293.466 1594.32 292.332 Q1596.36 291.198 1599.16 291.198 Q1601.98 291.198 1603.95 292.633 Q1605.94 294.068 1606.89 296.8 Z" fill="#000000" fill-rule="evenodd" fill-opacity="1" /><path clip-path="url(#clip420)" d="M1644.67 304.716 Q1639.51 304.716 1637.51 305.897 Q1635.52 307.077 1635.52 309.925 Q1635.52 312.193 1637.01 313.536 Q1638.51 314.855 1641.08 314.855 Q1644.62 314.855 1646.75 312.355 Q1648.9 309.832 1648.9 305.665 L1648.9 304.716 L1644.67 304.716 M1653.16 302.957 L1653.16 317.749 L1648.9 317.749 L1648.9 313.813 Q1647.45 316.175 1645.27 317.309 Q1643.09 318.42 1639.95 318.42 Q1635.96 318.42 1633.6 316.198 Q1631.26 313.952 1631.26 310.202 Q1631.26 305.827 1634.18 303.605 Q1637.12 301.383 1642.93 301.383 L1648.9 301.383 L1648.9 300.966 Q1648.9 298.027 1646.96 296.429 Q1645.04 294.809 1641.54 294.809 Q1639.32 294.809 1637.21 295.341 Q1635.11 295.874 1633.16 296.939 L1633.16 293.003 Q1635.5 292.101 1637.7 291.661 Q1639.9 291.198 1641.98 291.198 Q1647.61 291.198 1650.39 294.114 Q1653.16 297.031 1653.16 302.957 Z" fill="#000000" fill-rule="evenodd" fill-opacity="1" /><path clip-path="url(#clip420)" d="M1678.46 292.587 L1678.46 296.614 Q1676.66 295.689 1674.71 295.226 Q1672.77 294.763 1670.69 294.763 Q1667.51 294.763 1665.92 295.735 Q1664.34 296.707 1664.34 298.651 Q1664.34 300.133 1665.48 300.989 Q1666.61 301.823 1670.04 302.587 L1671.5 302.911 Q1676.03 303.883 1677.93 305.665 Q1679.85 307.425 1679.85 310.596 Q1679.85 314.207 1676.98 316.313 Q1674.13 318.42 1669.13 318.42 Q1667.05 318.42 1664.78 318.003 Q1662.54 317.61 1660.04 316.8 L1660.04 312.401 Q1662.4 313.628 1664.69 314.253 Q1666.98 314.855 1669.23 314.855 Q1672.24 314.855 1673.86 313.837 Q1675.48 312.795 1675.48 310.92 Q1675.48 309.184 1674.3 308.258 Q1673.14 307.332 1669.18 306.476 L1667.7 306.128 Q1663.74 305.295 1661.98 303.582 Q1660.22 301.846 1660.22 298.837 Q1660.22 295.179 1662.82 293.189 Q1665.41 291.198 1670.18 291.198 Q1672.54 291.198 1674.62 291.545 Q1676.7 291.892 1678.46 292.587 Z" fill="#000000" fill-rule="evenodd" fill-opacity="1" /><path clip-path="url(#clip420)" d="M1703.16 292.587 L1703.16 296.614 Q1701.36 295.689 1699.41 295.226 Q1697.47 294.763 1695.38 294.763 Q1692.21 294.763 1690.62 295.735 Q1689.04 296.707 1689.04 298.651 Q1689.04 300.133 1690.18 300.989 Q1691.31 301.823 1694.74 302.587 L1696.19 302.911 Q1700.73 303.883 1702.63 305.665 Q1704.55 307.425 1704.55 310.596 Q1704.55 314.207 1701.68 316.313 Q1698.83 318.42 1693.83 318.42 Q1691.75 318.42 1689.48 318.003 Q1687.24 317.61 1684.74 316.8 L1684.74 312.401 Q1687.1 313.628 1689.39 314.253 Q1691.68 314.855 1693.93 314.855 Q1696.94 314.855 1698.56 313.837 Q1700.18 312.795 1700.18 310.92 Q1700.18 309.184 1699 308.258 Q1697.84 307.332 1693.88 306.476 L1692.4 306.128 Q1688.44 305.295 1686.68 303.582 Q1684.92 301.846 1684.92 298.837 Q1684.92 295.179 1687.51 293.189 Q1690.11 291.198 1694.88 291.198 Q1697.24 291.198 1699.32 291.545 Q1701.4 291.892 1703.16 292.587 Z" fill="#000000" fill-rule="evenodd" fill-opacity="1" /><path clip-path="url(#clip420)" d="M1711.94 311.869 L1716.82 311.869 L1716.82 317.749 L1711.94 317.749 L1711.94 311.869 Z" fill="#000000" fill-rule="evenodd" fill-opacity="1" /><path clip-path="url(#clip420)" d="M1739.53 281.73 L1739.53 285.272 L1735.45 285.272 Q1733.16 285.272 1732.26 286.198 Q1731.38 287.124 1731.38 289.531 L1731.38 291.823 L1738.39 291.823 L1738.39 295.133 L1731.38 295.133 L1731.38 317.749 L1727.1 317.749 L1727.1 295.133 L1723.02 295.133 L1723.02 291.823 L1727.1 291.823 L1727.1 290.017 Q1727.1 285.689 1729.11 283.721 Q1731.13 281.73 1735.5 281.73 L1739.53 281.73 Z" fill="#000000" fill-rule="evenodd" fill-opacity="1" /><path clip-path="url(#clip420)" d="M1768.39 281.777 Q1765.29 287.101 1763.79 292.309 Q1762.28 297.517 1762.28 302.864 Q1762.28 308.212 1763.79 313.466 Q1765.31 318.698 1768.39 323.999 L1764.69 323.999 Q1761.22 318.559 1759.48 313.304 Q1757.77 308.05 1757.77 302.864 Q1757.77 297.702 1759.48 292.471 Q1761.19 287.24 1764.69 281.777 L1768.39 281.777 Z" fill="#000000" fill-rule="evenodd" fill-opacity="1" /><path clip-path="url(#clip420)" d="M1787.84 298.605 Q1784.69 298.605 1782.84 300.758 Q1781.01 302.911 1781.01 306.661 Q1781.01 310.388 1782.84 312.563 Q1784.69 314.716 1787.84 314.716 Q1790.99 314.716 1792.81 312.563 Q1794.67 310.388 1794.67 306.661 Q1794.67 302.911 1792.81 300.758 Q1790.99 298.605 1787.84 298.605 M1797.12 283.953 L1797.12 288.212 Q1795.36 287.378 1793.56 286.939 Q1791.77 286.499 1790.01 286.499 Q1785.38 286.499 1782.93 289.624 Q1780.5 292.749 1780.15 299.068 Q1781.52 297.054 1783.58 295.989 Q1785.64 294.902 1788.12 294.902 Q1793.32 294.902 1796.33 298.073 Q1799.37 301.221 1799.37 306.661 Q1799.37 311.985 1796.22 315.202 Q1793.07 318.42 1787.84 318.42 Q1781.84 318.42 1778.67 313.837 Q1775.5 309.23 1775.5 300.503 Q1775.5 292.309 1779.39 287.448 Q1783.28 282.564 1789.83 282.564 Q1791.59 282.564 1793.37 282.911 Q1795.18 283.258 1797.12 283.953 Z" fill="#000000" fill-rule="evenodd" fill-opacity="1" /><path clip-path="url(#clip420)" d="M1821.59 299.114 Q1824.94 299.832 1826.82 302.101 Q1828.72 304.369 1828.72 307.702 Q1828.72 312.818 1825.2 315.619 Q1821.68 318.42 1815.2 318.42 Q1813.02 318.42 1810.71 317.98 Q1808.42 317.563 1805.96 316.707 L1805.96 312.193 Q1807.91 313.327 1810.22 313.906 Q1812.54 314.485 1815.06 314.485 Q1819.46 314.485 1821.75 312.749 Q1824.06 311.013 1824.06 307.702 Q1824.06 304.647 1821.91 302.934 Q1819.78 301.198 1815.96 301.198 L1811.94 301.198 L1811.94 297.355 L1816.15 297.355 Q1819.6 297.355 1821.43 295.989 Q1823.25 294.601 1823.25 292.008 Q1823.25 289.346 1821.36 287.934 Q1819.48 286.499 1815.96 286.499 Q1814.04 286.499 1811.84 286.915 Q1809.64 287.332 1807 288.212 L1807 284.045 Q1809.67 283.304 1811.98 282.934 Q1814.32 282.564 1816.38 282.564 Q1821.7 282.564 1824.81 284.994 Q1827.91 287.402 1827.91 291.522 Q1827.91 294.392 1826.26 296.383 Q1824.62 298.351 1821.59 299.114 Z" fill="#000000" fill-rule="evenodd" fill-opacity="1" /><path clip-path="url(#clip420)" d="M1836.4 283.189 L1858.62 283.189 L1858.62 285.179 L1846.08 317.749 L1841.19 317.749 L1853 287.124 L1836.4 287.124 L1836.4 283.189 Z" fill="#000000" fill-rule="evenodd" fill-opacity="1" /><path clip-path="url(#clip420)" d="M1867.79 283.189 L1886.15 283.189 L1886.15 287.124 L1872.07 287.124 L1872.07 295.596 Q1873.09 295.249 1874.11 295.087 Q1875.13 294.902 1876.15 294.902 Q1881.93 294.902 1885.31 298.073 Q1888.69 301.244 1888.69 306.661 Q1888.69 312.239 1885.22 315.341 Q1881.75 318.42 1875.43 318.42 Q1873.25 318.42 1870.99 318.05 Q1868.74 317.679 1866.33 316.938 L1866.33 312.239 Q1868.42 313.374 1870.64 313.929 Q1872.86 314.485 1875.34 314.485 Q1879.34 314.485 1881.68 312.378 Q1884.02 310.272 1884.02 306.661 Q1884.02 303.05 1881.68 300.943 Q1879.34 298.837 1875.34 298.837 Q1873.46 298.837 1871.59 299.253 Q1869.74 299.67 1867.79 300.55 L1867.79 283.189 Z" fill="#000000" fill-rule="evenodd" fill-opacity="1" /><path clip-path="url(#clip420)" d="M1912.07 299.114 Q1915.43 299.832 1917.3 302.101 Q1919.2 304.369 1919.2 307.702 Q1919.2 312.818 1915.68 315.619 Q1912.17 318.42 1905.68 318.42 Q1903.51 318.42 1901.19 317.98 Q1898.9 317.563 1896.45 316.707 L1896.45 312.193 Q1898.39 313.327 1900.71 313.906 Q1903.02 314.485 1905.55 314.485 Q1909.94 314.485 1912.24 312.749 Q1914.55 311.013 1914.55 307.702 Q1914.55 304.647 1912.4 302.934 Q1910.27 301.198 1906.45 301.198 L1902.42 301.198 L1902.42 297.355 L1906.63 297.355 Q1910.08 297.355 1911.91 295.989 Q1913.74 294.601 1913.74 292.008 Q1913.74 289.346 1911.84 287.934 Q1909.97 286.499 1906.45 286.499 Q1904.53 286.499 1902.33 286.915 Q1900.13 287.332 1897.49 288.212 L1897.49 284.045 Q1900.15 283.304 1902.47 282.934 Q1904.8 282.564 1906.87 282.564 Q1912.19 282.564 1915.29 284.994 Q1918.39 287.402 1918.39 291.522 Q1918.39 294.392 1916.75 296.383 Q1915.11 298.351 1912.07 299.114 Z" fill="#000000" fill-rule="evenodd" fill-opacity="1" /><path clip-path="url(#clip420)" d="M1940.92 287.263 L1929.11 305.712 L1940.92 305.712 L1940.92 287.263 M1939.69 283.189 L1945.57 283.189 L1945.57 305.712 L1950.5 305.712 L1950.5 309.601 L1945.57 309.601 L1945.57 317.749 L1940.92 317.749 L1940.92 309.601 L1925.31 309.601 L1925.31 305.087 L1939.69 283.189 Z" fill="#000000" fill-rule="evenodd" fill-opacity="1" /><path clip-path="url(#clip420)" d="M1962.26 313.813 L1978.58 313.813 L1978.58 317.749 L1956.63 317.749 L1956.63 313.813 Q1959.3 311.059 1963.88 306.429 Q1968.49 301.776 1969.67 300.434 Q1971.91 297.911 1972.79 296.175 Q1973.69 294.415 1973.69 292.726 Q1973.69 289.971 1971.75 288.235 Q1969.83 286.499 1966.73 286.499 Q1964.53 286.499 1962.07 287.263 Q1959.64 288.027 1956.86 289.577 L1956.86 284.855 Q1959.69 283.721 1962.14 283.142 Q1964.6 282.564 1966.63 282.564 Q1972 282.564 1975.2 285.249 Q1978.39 287.934 1978.39 292.425 Q1978.39 294.554 1977.58 296.476 Q1976.8 298.374 1974.69 300.966 Q1974.11 301.638 1971.01 304.855 Q1967.91 308.05 1962.26 313.813 Z" fill="#000000" fill-rule="evenodd" fill-opacity="1" /><path clip-path="url(#clip420)" d="M1989.2 313.813 L1996.84 313.813 L1996.84 287.448 L1988.53 289.115 L1988.53 284.855 L1996.8 283.189 L2001.47 283.189 L2001.47 313.813 L2009.11 313.813 L2009.11 317.749 L1989.2 317.749 L1989.2 313.813 Z" fill="#000000" fill-rule="evenodd" fill-opacity="1" /><path clip-path="url(#clip420)" d="M2019.36 313.813 L2027 313.813 L2027 287.448 L2018.69 289.115 L2018.69 284.855 L2026.96 283.189 L2031.63 283.189 L2031.63 313.813 L2039.27 313.813 L2039.27 317.749 L2019.36 317.749 L2019.36 313.813 Z" fill="#000000" fill-rule="evenodd" fill-opacity="1" /><path clip-path="url(#clip420)" d="M2047.44 281.777 L2051.15 281.777 Q2054.62 287.24 2056.33 292.471 Q2058.07 297.702 2058.07 302.864 Q2058.07 308.05 2056.33 313.304 Q2054.62 318.559 2051.15 323.999 L2047.44 323.999 Q2050.52 318.698 2052.03 313.466 Q2053.55 308.212 2053.55 302.864 Q2053.55 297.517 2052.03 292.309 Q2050.52 287.101 2047.44 281.777 Z" fill="#000000" fill-rule="evenodd" fill-opacity="1" /></svg>
