<?xml version="1.0" encoding="utf-8"?>
<svg xmlns="http://www.w3.org/2000/svg" xmlns:xlink="http://www.w3.org/1999/xlink" width="600" height="400" viewBox="0 0 2400 1600">
<defs>
  <clipPath id="clip090">
    <rect x="0" y="0" width="2400" height="1600"/>
  </clipPath>
</defs>
<path clip-path="url(#clip090)" d="
M0 1600 L2400 1600 L2400 0 L0 0  Z
  " fill="#ffffff" fill-rule="evenodd" fill-opacity="1"/>
<defs>
  <clipPath id="clip091">
    <rect x="480" y="0" width="1681" height="1600"/>
  </clipPath>
</defs>
<path clip-path="url(#clip090)" d="
M112.177 1423.18 L2352.76 1423.18 L2352.76 47.2441 L112.177 47.2441  Z
  " fill="#ffffff" fill-rule="evenodd" fill-opacity="1"/>
<defs>
  <clipPath id="clip092">
    <rect x="112" y="47" width="2242" height="1377"/>
  </clipPath>
</defs>
<polyline clip-path="url(#clip092)" style="stroke:#000000; stroke-linecap:round; stroke-linejoin:round; stroke-width:2; stroke-opacity:0.1; fill:none" points="
  175.59,1423.18 175.59,47.2441 
  "/>
<polyline clip-path="url(#clip092)" style="stroke:#000000; stroke-linecap:round; stroke-linejoin:round; stroke-width:2; stroke-opacity:0.1; fill:none" points="
  598.34,1423.18 598.34,47.2441 
  "/>
<polyline clip-path="url(#clip092)" style="stroke:#000000; stroke-linecap:round; stroke-linejoin:round; stroke-width:2; stroke-opacity:0.1; fill:none" points="
  1021.09,1423.18 1021.09,47.2441 
  "/>
<polyline clip-path="url(#clip092)" style="stroke:#000000; stroke-linecap:round; stroke-linejoin:round; stroke-width:2; stroke-opacity:0.1; fill:none" points="
  1443.84,1423.18 1443.84,47.2441 
  "/>
<polyline clip-path="url(#clip092)" style="stroke:#000000; stroke-linecap:round; stroke-linejoin:round; stroke-width:2; stroke-opacity:0.1; fill:none" points="
  1866.59,1423.18 1866.59,47.2441 
  "/>
<polyline clip-path="url(#clip092)" style="stroke:#000000; stroke-linecap:round; stroke-linejoin:round; stroke-width:2; stroke-opacity:0.1; fill:none" points="
  2289.34,1423.18 2289.34,47.2441 
  "/>
<polyline clip-path="url(#clip090)" style="stroke:#000000; stroke-linecap:round; stroke-linejoin:round; stroke-width:4; stroke-opacity:1; fill:none" points="
  112.177,1423.18 2352.76,1423.18 
  "/>
<polyline clip-path="url(#clip090)" style="stroke:#000000; stroke-linecap:round; stroke-linejoin:round; stroke-width:4; stroke-opacity:1; fill:none" points="
  175.59,1423.18 175.59,1404.28 
  "/>
<polyline clip-path="url(#clip090)" style="stroke:#000000; stroke-linecap:round; stroke-linejoin:round; stroke-width:4; stroke-opacity:1; fill:none" points="
  598.34,1423.18 598.34,1404.28 
  "/>
<polyline clip-path="url(#clip090)" style="stroke:#000000; stroke-linecap:round; stroke-linejoin:round; stroke-width:4; stroke-opacity:1; fill:none" points="
  1021.09,1423.18 1021.09,1404.28 
  "/>
<polyline clip-path="url(#clip090)" style="stroke:#000000; stroke-linecap:round; stroke-linejoin:round; stroke-width:4; stroke-opacity:1; fill:none" points="
  1443.84,1423.18 1443.84,1404.28 
  "/>
<polyline clip-path="url(#clip090)" style="stroke:#000000; stroke-linecap:round; stroke-linejoin:round; stroke-width:4; stroke-opacity:1; fill:none" points="
  1866.59,1423.18 1866.59,1404.28 
  "/>
<polyline clip-path="url(#clip090)" style="stroke:#000000; stroke-linecap:round; stroke-linejoin:round; stroke-width:4; stroke-opacity:1; fill:none" points="
  2289.34,1423.18 2289.34,1404.28 
  "/>
<path clip-path="url(#clip090)" d="M175.59 1454.1 Q171.979 1454.1 170.15 1457.66 Q168.344 1461.2 168.344 1468.33 Q168.344 1475.44 170.15 1479.01 Q171.979 1482.55 175.59 1482.55 Q179.224 1482.55 181.03 1479.01 Q182.858 1475.44 182.858 1468.33 Q182.858 1461.2 181.03 1457.66 Q179.224 1454.1 175.59 1454.1 M175.59 1450.39 Q181.4 1450.39 184.455 1455 Q187.534 1459.58 187.534 1468.33 Q187.534 1477.06 184.455 1481.67 Q181.4 1486.25 175.59 1486.25 Q169.78 1486.25 166.701 1481.67 Q163.645 1477.06 163.645 1468.33 Q163.645 1459.58 166.701 1455 Q169.78 1450.39 175.59 1450.39 Z" fill="#000000" fill-rule="evenodd" fill-opacity="1" /><path clip-path="url(#clip090)" d="M588.722 1481.64 L596.361 1481.64 L596.361 1455.28 L588.051 1456.95 L588.051 1452.69 L596.315 1451.02 L600.991 1451.02 L600.991 1481.64 L608.63 1481.64 L608.63 1485.58 L588.722 1485.58 L588.722 1481.64 Z" fill="#000000" fill-rule="evenodd" fill-opacity="1" /><path clip-path="url(#clip090)" d="M1015.74 1481.64 L1032.06 1481.64 L1032.06 1485.58 L1010.12 1485.58 L1010.12 1481.64 Q1012.78 1478.89 1017.36 1474.26 Q1021.97 1469.61 1023.15 1468.27 Q1025.4 1465.74 1026.28 1464.01 Q1027.18 1462.25 1027.18 1460.56 Q1027.18 1457.8 1025.23 1456.07 Q1023.31 1454.33 1020.21 1454.33 Q1018.01 1454.33 1015.56 1455.09 Q1013.13 1455.86 1010.35 1457.41 L1010.35 1452.69 Q1013.17 1451.55 1015.63 1450.97 Q1018.08 1450.39 1020.12 1450.39 Q1025.49 1450.39 1028.68 1453.08 Q1031.88 1455.77 1031.88 1460.26 Q1031.88 1462.39 1031.07 1464.31 Q1030.28 1466.2 1028.17 1468.8 Q1027.6 1469.47 1024.49 1472.69 Q1021.39 1475.88 1015.74 1481.64 Z" fill="#000000" fill-rule="evenodd" fill-opacity="1" /><path clip-path="url(#clip090)" d="M1448.09 1466.95 Q1451.45 1467.66 1453.32 1469.93 Q1455.22 1472.2 1455.22 1475.53 Q1455.22 1480.65 1451.7 1483.45 Q1448.18 1486.25 1441.7 1486.25 Q1439.52 1486.25 1437.21 1485.81 Q1434.92 1485.39 1432.46 1484.54 L1432.46 1480.02 Q1434.41 1481.16 1436.72 1481.74 Q1439.04 1482.32 1441.56 1482.32 Q1445.96 1482.32 1448.25 1480.58 Q1450.57 1478.84 1450.57 1475.53 Q1450.57 1472.48 1448.41 1470.77 Q1446.28 1469.03 1442.46 1469.03 L1438.44 1469.03 L1438.44 1465.19 L1442.65 1465.19 Q1446.1 1465.19 1447.93 1463.82 Q1449.76 1462.43 1449.76 1459.84 Q1449.76 1457.18 1447.86 1455.77 Q1445.98 1454.33 1442.46 1454.33 Q1440.54 1454.33 1438.34 1454.75 Q1436.15 1455.16 1433.51 1456.04 L1433.51 1451.88 Q1436.17 1451.14 1438.48 1450.77 Q1440.82 1450.39 1442.88 1450.39 Q1448.21 1450.39 1451.31 1452.83 Q1454.41 1455.23 1454.41 1459.35 Q1454.41 1462.22 1452.77 1464.21 Q1451.12 1466.18 1448.09 1466.95 Z" fill="#000000" fill-rule="evenodd" fill-opacity="1" /><path clip-path="url(#clip090)" d="M1869.6 1455.09 L1857.8 1473.54 L1869.6 1473.54 L1869.6 1455.09 M1868.37 1451.02 L1874.25 1451.02 L1874.25 1473.54 L1879.19 1473.54 L1879.19 1477.43 L1874.25 1477.43 L1874.25 1485.58 L1869.6 1485.58 L1869.6 1477.43 L1854 1477.43 L1854 1472.92 L1868.37 1451.02 Z" fill="#000000" fill-rule="evenodd" fill-opacity="1" /><path clip-path="url(#clip090)" d="M2279.62 1451.02 L2297.98 1451.02 L2297.98 1454.96 L2283.9 1454.96 L2283.9 1463.43 Q2284.92 1463.08 2285.94 1462.92 Q2286.96 1462.73 2287.98 1462.73 Q2293.76 1462.73 2297.14 1465.9 Q2300.52 1469.08 2300.52 1474.49 Q2300.52 1480.07 2297.05 1483.17 Q2293.58 1486.25 2287.26 1486.25 Q2285.08 1486.25 2282.82 1485.88 Q2280.57 1485.51 2278.16 1484.77 L2278.16 1480.07 Q2280.25 1481.2 2282.47 1481.76 Q2284.69 1482.32 2287.17 1482.32 Q2291.17 1482.32 2293.51 1480.21 Q2295.85 1478.1 2295.85 1474.49 Q2295.85 1470.88 2293.51 1468.77 Q2291.17 1466.67 2287.17 1466.67 Q2285.29 1466.67 2283.42 1467.08 Q2281.57 1467.5 2279.62 1468.38 L2279.62 1451.02 Z" fill="#000000" fill-rule="evenodd" fill-opacity="1" /><path clip-path="url(#clip090)" d="M1180.78 1522.27 L1180.78 1532.4 L1192.84 1532.4 L1192.84 1536.95 L1180.78 1536.95 L1180.78 1556.3 Q1180.78 1560.66 1181.95 1561.9 Q1183.16 1563.14 1186.82 1563.14 L1192.84 1563.14 L1192.84 1568.04 L1186.82 1568.04 Q1180.04 1568.04 1177.47 1565.53 Q1174.89 1562.98 1174.89 1556.3 L1174.89 1536.95 L1170.59 1536.95 L1170.59 1532.4 L1174.89 1532.4 L1174.89 1522.27 L1180.78 1522.27 Z" fill="#000000" fill-rule="evenodd" fill-opacity="1" /><path clip-path="url(#clip090)" d="M1220.72 1518.52 L1234.22 1518.52 L1234.22 1523.07 L1226.58 1523.07 L1226.58 1572.09 L1234.22 1572.09 L1234.22 1576.64 L1220.72 1576.64 L1220.72 1518.52 Z" fill="#000000" fill-rule="evenodd" fill-opacity="1" /><path clip-path="url(#clip090)" d="M1269.42 1533.45 L1269.42 1538.98 Q1266.94 1537.71 1264.26 1537.07 Q1261.59 1536.44 1258.73 1536.44 Q1254.36 1536.44 1252.17 1537.77 Q1250 1539.11 1250 1541.79 Q1250 1543.82 1251.56 1545 Q1253.12 1546.15 1257.83 1547.2 L1259.84 1547.64 Q1266.08 1548.98 1268.69 1551.43 Q1271.33 1553.85 1271.33 1558.21 Q1271.33 1563.17 1267.38 1566.07 Q1263.47 1568.97 1256.59 1568.97 Q1253.73 1568.97 1250.61 1568.39 Q1247.52 1567.85 1244.08 1566.74 L1244.08 1560.69 Q1247.33 1562.38 1250.48 1563.24 Q1253.63 1564.07 1256.72 1564.07 Q1260.86 1564.07 1263.09 1562.66 Q1265.31 1561.23 1265.31 1558.65 Q1265.31 1556.27 1263.69 1554.99 Q1262.1 1553.72 1256.66 1552.54 L1254.62 1552.07 Q1249.18 1550.92 1246.76 1548.56 Q1244.34 1546.18 1244.34 1542.04 Q1244.34 1537.01 1247.9 1534.27 Q1251.47 1531.54 1258.02 1531.54 Q1261.27 1531.54 1264.14 1532.01 Q1267 1532.49 1269.42 1533.45 Z" fill="#000000" fill-rule="evenodd" fill-opacity="1" /><path clip-path="url(#clip090)" d="M1294.34 1518.52 L1294.34 1576.64 L1280.85 1576.64 L1280.85 1572.09 L1288.45 1572.09 L1288.45 1523.07 L1280.85 1523.07 L1280.85 1518.52 L1294.34 1518.52 Z" fill="#000000" fill-rule="evenodd" fill-opacity="1" /><polyline clip-path="url(#clip092)" style="stroke:#000000; stroke-linecap:round; stroke-linejoin:round; stroke-width:2; stroke-opacity:0.1; fill:none" points="
  112.177,1384.24 2352.76,1384.24 
  "/>
<polyline clip-path="url(#clip092)" style="stroke:#000000; stroke-linecap:round; stroke-linejoin:round; stroke-width:2; stroke-opacity:0.1; fill:none" points="
  112.177,1062.59 2352.76,1062.59 
  "/>
<polyline clip-path="url(#clip092)" style="stroke:#000000; stroke-linecap:round; stroke-linejoin:round; stroke-width:2; stroke-opacity:0.1; fill:none" points="
  112.177,740.95 2352.76,740.95 
  "/>
<polyline clip-path="url(#clip092)" style="stroke:#000000; stroke-linecap:round; stroke-linejoin:round; stroke-width:2; stroke-opacity:0.1; fill:none" points="
  112.177,419.306 2352.76,419.306 
  "/>
<polyline clip-path="url(#clip092)" style="stroke:#000000; stroke-linecap:round; stroke-linejoin:round; stroke-width:2; stroke-opacity:0.1; fill:none" points="
  112.177,97.6618 2352.76,97.6618 
  "/>
<polyline clip-path="url(#clip090)" style="stroke:#000000; stroke-linecap:round; stroke-linejoin:round; stroke-width:4; stroke-opacity:1; fill:none" points="
  112.177,1423.18 112.177,47.2441 
  "/>
<polyline clip-path="url(#clip090)" style="stroke:#000000; stroke-linecap:round; stroke-linejoin:round; stroke-width:4; stroke-opacity:1; fill:none" points="
  112.177,1384.24 131.075,1384.24 
  "/>
<polyline clip-path="url(#clip090)" style="stroke:#000000; stroke-linecap:round; stroke-linejoin:round; stroke-width:4; stroke-opacity:1; fill:none" points="
  112.177,1062.59 131.075,1062.59 
  "/>
<polyline clip-path="url(#clip090)" style="stroke:#000000; stroke-linecap:round; stroke-linejoin:round; stroke-width:4; stroke-opacity:1; fill:none" points="
  112.177,740.95 131.075,740.95 
  "/>
<polyline clip-path="url(#clip090)" style="stroke:#000000; stroke-linecap:round; stroke-linejoin:round; stroke-width:4; stroke-opacity:1; fill:none" points="
  112.177,419.306 131.075,419.306 
  "/>
<polyline clip-path="url(#clip090)" style="stroke:#000000; stroke-linecap:round; stroke-linejoin:round; stroke-width:4; stroke-opacity:1; fill:none" points="
  112.177,97.6618 131.075,97.6618 
  "/>
<path clip-path="url(#clip090)" d="M64.2328 1370.04 Q60.6217 1370.04 58.793 1373.6 Q56.9875 1377.14 56.9875 1384.27 Q56.9875 1391.38 58.793 1394.94 Q60.6217 1398.49 64.2328 1398.49 Q67.867 1398.49 69.6726 1394.94 Q71.5013 1391.38 71.5013 1384.27 Q71.5013 1377.14 69.6726 1373.6 Q67.867 1370.04 64.2328 1370.04 M64.2328 1366.33 Q70.0429 1366.33 73.0985 1370.94 Q76.1772 1375.52 76.1772 1384.27 Q76.1772 1393 73.0985 1397.61 Q70.0429 1402.19 64.2328 1402.19 Q58.4226 1402.19 55.344 1397.61 Q52.2884 1393 52.2884 1384.27 Q52.2884 1375.52 55.344 1370.94 Q58.4226 1366.33 64.2328 1366.33 Z" fill="#000000" fill-rule="evenodd" fill-opacity="1" /><path clip-path="url(#clip090)" d="M56.2699 1075.94 L63.9087 1075.94 L63.9087 1049.57 L55.5986 1051.24 L55.5986 1046.98 L63.8624 1045.31 L68.5383 1045.31 L68.5383 1075.94 L76.1772 1075.94 L76.1772 1079.87 L56.2699 1079.87 L56.2699 1075.94 Z" fill="#000000" fill-rule="evenodd" fill-opacity="1" /><path clip-path="url(#clip090)" d="M59.8578 754.295 L76.1772 754.295 L76.1772 758.23 L54.2328 758.23 L54.2328 754.295 Q56.8949 751.54 61.4782 746.911 Q66.0846 742.258 67.2652 740.915 Q69.5105 738.392 70.3902 736.656 Q71.2929 734.897 71.2929 733.207 Q71.2929 730.452 69.3485 728.716 Q67.4272 726.98 64.3254 726.98 Q62.1263 726.98 59.6726 727.744 Q57.2421 728.508 54.4643 730.059 L54.4643 725.337 Q57.2884 724.202 59.7421 723.624 Q62.1958 723.045 64.2328 723.045 Q69.6031 723.045 72.7976 725.73 Q75.992 728.415 75.992 732.906 Q75.992 735.036 75.1818 736.957 Q74.3948 738.855 72.2883 741.448 Q71.7096 742.119 68.6078 745.337 Q65.5059 748.531 59.8578 754.295 Z" fill="#000000" fill-rule="evenodd" fill-opacity="1" /><path clip-path="url(#clip090)" d="M69.0476 417.952 Q72.404 418.669 74.279 420.938 Q76.1772 423.206 76.1772 426.54 Q76.1772 431.655 72.6587 434.456 Q69.1402 437.257 62.6587 437.257 Q60.4828 437.257 58.168 436.817 Q55.8764 436.401 53.4227 435.544 L53.4227 431.03 Q55.3671 432.165 57.6819 432.743 Q59.9967 433.322 62.5198 433.322 Q66.918 433.322 69.2096 431.586 Q71.5244 429.85 71.5244 426.54 Q71.5244 423.484 69.3717 421.771 Q67.242 420.035 63.4226 420.035 L59.3949 420.035 L59.3949 416.193 L63.6078 416.193 Q67.0569 416.193 68.8855 414.827 Q70.7142 413.438 70.7142 410.845 Q70.7142 408.183 68.8161 406.771 Q66.9411 405.336 63.4226 405.336 Q61.5013 405.336 59.3023 405.753 Q57.1032 406.169 54.4643 407.049 L54.4643 402.882 Q57.1264 402.142 59.4412 401.771 Q61.7791 401.401 63.8393 401.401 Q69.1633 401.401 72.2652 403.831 Q75.367 406.239 75.367 410.359 Q75.367 413.23 73.7235 415.22 Q72.08 417.188 69.0476 417.952 Z" fill="#000000" fill-rule="evenodd" fill-opacity="1" /><path clip-path="url(#clip090)" d="M66.5939 84.4559 L54.7884 102.905 L66.5939 102.905 L66.5939 84.4559 M65.367 80.3818 L71.2466 80.3818 L71.2466 102.905 L76.1772 102.905 L76.1772 106.794 L71.2466 106.794 L71.2466 114.942 L66.5939 114.942 L66.5939 106.794 L50.9921 106.794 L50.9921 102.28 L65.367 80.3818 Z" fill="#000000" fill-rule="evenodd" fill-opacity="1" /><polyline clip-path="url(#clip092)" style="stroke:#009af9; stroke-linecap:round; stroke-linejoin:round; stroke-width:4; stroke-opacity:1; fill:none" points="
  175.59,1223.42 217.865,1141.47 260.14,1090.87 302.415,1059.44 344.69,1039.85 386.965,1026.95 429.24,1018.88 471.515,1013.82 513.79,1010.5 556.065,1008.23 
  598.34,1006.57 640.616,1005.28 682.891,1004.18 725.166,1003.2 767.441,1002.26 809.716,1001.34 851.991,1000.43 894.266,999.492 936.541,998.529 978.816,997.539 
  1021.09,996.518 1063.37,995.464 1105.64,994.376 1147.92,993.255 1190.19,992.096 1232.47,990.897 1274.74,989.661 1317.02,988.389 1359.29,987.087 1401.57,985.749 
  1443.84,984.37 1486.12,982.948 1528.39,981.482 1570.67,979.975 1612.94,978.433 1655.22,976.857 1697.49,975.239 1739.77,973.573 1782.04,971.855 1824.32,970.086 
  1866.59,968.267 1908.87,966.402 1951.14,964.499 1993.42,962.556 2035.69,960.56 2077.97,958.502 2120.24,956.377 2162.52,954.185 2204.79,951.928 2247.07,949.615 
  2289.34,947.256 
  "/>
<polyline clip-path="url(#clip092)" style="stroke:#e26f46; stroke-linecap:round; stroke-linejoin:round; stroke-width:4; stroke-opacity:1; fill:none" points="
  175.59,1384.24 217.865,1337.21 260.14,1303.41 302.415,1277.73 344.69,1257.92 386.965,1241.15 429.24,1225.76 471.515,1211.09 513.79,1196.67 556.065,1182.22 
  598.34,1167.56 640.616,1152.58 682.891,1137.22 725.166,1121.42 767.441,1105.15 809.716,1088.4 851.991,1071.15 894.266,1053.39 936.541,1035.1 978.816,1016.27 
  1021.09,996.9 1063.37,976.971 1105.64,956.476 1147.92,935.403 1190.19,913.738 1232.47,891.468 1274.74,868.58 1317.02,845.062 1359.29,820.901 1401.57,796.079 
  1443.84,770.577 1486.12,744.377 1528.39,717.462 1570.67,689.814 1612.94,661.417 1655.22,632.251 1697.49,602.294 1739.77,571.52 1782.04,539.908 1824.32,507.433 
  1866.59,474.074 1908.87,439.809 1951.14,404.616 1993.42,368.468 2035.69,331.336 2077.97,293.187 2120.24,253.991 2162.52,213.721 2204.79,172.347 2247.07,129.844 
  2289.34,86.1857 
  "/>
<path clip-path="url(#clip090)" d="
M1576.39 248.629 L2278.07 248.629 L2278.07 93.1086 L1576.39 93.1086  Z
  " fill="#ffffff" fill-rule="evenodd" fill-opacity="1"/>
<polyline clip-path="url(#clip090)" style="stroke:#000000; stroke-linecap:round; stroke-linejoin:round; stroke-width:4; stroke-opacity:1; fill:none" points="
  1576.39,248.629 2278.07,248.629 2278.07,93.1086 1576.39,93.1086 1576.39,248.629 
  "/>
<polyline clip-path="url(#clip090)" style="stroke:#009af9; stroke-linecap:round; stroke-linejoin:round; stroke-width:4; stroke-opacity:1; fill:none" points="
  1601.28,144.949 1750.65,144.949 
  "/>
<path clip-path="url(#clip090)" d="M1795.9 141.28 Q1797.49 138.409 1799.72 137.044 Q1801.94 135.678 1804.95 135.678 Q1809 135.678 1811.2 138.525 Q1813.4 141.349 1813.4 146.581 L1813.4 162.229 L1809.11 162.229 L1809.11 146.719 Q1809.11 142.993 1807.8 141.187 Q1806.48 139.382 1803.77 139.382 Q1800.46 139.382 1798.54 141.581 Q1796.61 143.78 1796.61 147.576 L1796.61 162.229 L1792.33 162.229 L1792.33 146.719 Q1792.33 142.969 1791.01 141.187 Q1789.69 139.382 1786.94 139.382 Q1783.68 139.382 1781.75 141.604 Q1779.83 143.803 1779.83 147.576 L1779.83 162.229 L1775.55 162.229 L1775.55 136.303 L1779.83 136.303 L1779.83 140.331 Q1781.29 137.946 1783.33 136.812 Q1785.37 135.678 1788.17 135.678 Q1790.99 135.678 1792.96 137.113 Q1794.95 138.548 1795.9 141.28 Z" fill="#000000" fill-rule="evenodd" fill-opacity="1" /><path clip-path="url(#clip090)" d="M1833.67 149.196 Q1828.51 149.196 1826.52 150.377 Q1824.53 151.557 1824.53 154.405 Q1824.53 156.673 1826.01 158.016 Q1827.52 159.335 1830.09 159.335 Q1833.63 159.335 1835.76 156.835 Q1837.91 154.312 1837.91 150.145 L1837.91 149.196 L1833.67 149.196 M1842.17 147.437 L1842.17 162.229 L1837.91 162.229 L1837.91 158.293 Q1836.45 160.655 1834.28 161.789 Q1832.1 162.9 1828.95 162.9 Q1824.97 162.9 1822.61 160.678 Q1820.27 158.432 1820.27 154.682 Q1820.27 150.307 1823.19 148.085 Q1826.13 145.863 1831.94 145.863 L1837.91 145.863 L1837.91 145.446 Q1837.91 142.507 1835.97 140.909 Q1834.05 139.289 1830.55 139.289 Q1828.33 139.289 1826.22 139.821 Q1824.11 140.354 1822.17 141.419 L1822.17 137.483 Q1824.51 136.581 1826.71 136.141 Q1828.91 135.678 1830.99 135.678 Q1836.61 135.678 1839.39 138.594 Q1842.17 141.511 1842.17 147.437 Z" fill="#000000" fill-rule="evenodd" fill-opacity="1" /><path clip-path="url(#clip090)" d="M1867.47 137.067 L1867.47 141.094 Q1865.67 140.169 1863.72 139.706 Q1861.78 139.243 1859.69 139.243 Q1856.52 139.243 1854.92 140.215 Q1853.35 141.187 1853.35 143.131 Q1853.35 144.613 1854.49 145.469 Q1855.62 146.303 1859.05 147.067 L1860.5 147.391 Q1865.04 148.363 1866.94 150.145 Q1868.86 151.905 1868.86 155.076 Q1868.86 158.687 1865.99 160.793 Q1863.14 162.9 1858.14 162.9 Q1856.06 162.9 1853.79 162.483 Q1851.55 162.09 1849.05 161.28 L1849.05 156.881 Q1851.41 158.108 1853.7 158.733 Q1855.99 159.335 1858.23 159.335 Q1861.24 159.335 1862.86 158.317 Q1864.48 157.275 1864.48 155.4 Q1864.48 153.664 1863.3 152.738 Q1862.15 151.812 1858.19 150.956 L1856.71 150.608 Q1852.75 149.775 1850.99 148.062 Q1849.23 146.326 1849.23 143.317 Q1849.23 139.659 1851.82 137.669 Q1854.42 135.678 1859.18 135.678 Q1861.55 135.678 1863.63 136.025 Q1865.71 136.372 1867.47 137.067 Z" fill="#000000" fill-rule="evenodd" fill-opacity="1" /><path clip-path="url(#clip090)" d="M1892.17 137.067 L1892.17 141.094 Q1890.36 140.169 1888.42 139.706 Q1886.48 139.243 1884.39 139.243 Q1881.22 139.243 1879.62 140.215 Q1878.05 141.187 1878.05 143.131 Q1878.05 144.613 1879.18 145.469 Q1880.32 146.303 1883.74 147.067 L1885.2 147.391 Q1889.74 148.363 1891.64 150.145 Q1893.56 151.905 1893.56 155.076 Q1893.56 158.687 1890.69 160.793 Q1887.84 162.9 1882.84 162.9 Q1880.76 162.9 1878.49 162.483 Q1876.24 162.09 1873.74 161.28 L1873.74 156.881 Q1876.11 158.108 1878.4 158.733 Q1880.69 159.335 1882.93 159.335 Q1885.94 159.335 1887.56 158.317 Q1889.18 157.275 1889.18 155.4 Q1889.18 153.664 1888 152.738 Q1886.85 151.812 1882.89 150.956 L1881.41 150.608 Q1877.45 149.775 1875.69 148.062 Q1873.93 146.326 1873.93 143.317 Q1873.93 139.659 1876.52 137.669 Q1879.11 135.678 1883.88 135.678 Q1886.24 135.678 1888.33 136.025 Q1890.41 136.372 1892.17 137.067 Z" fill="#000000" fill-rule="evenodd" fill-opacity="1" /><path clip-path="url(#clip090)" d="M1900.94 156.349 L1905.83 156.349 L1905.83 162.229 L1900.94 162.229 L1900.94 156.349 Z" fill="#000000" fill-rule="evenodd" fill-opacity="1" /><path clip-path="url(#clip090)" d="M1931.94 137.067 L1931.94 141.094 Q1930.13 140.169 1928.19 139.706 Q1926.24 139.243 1924.16 139.243 Q1920.99 139.243 1919.39 140.215 Q1917.82 141.187 1917.82 143.131 Q1917.82 144.613 1918.95 145.469 Q1920.09 146.303 1923.51 147.067 L1924.97 147.391 Q1929.51 148.363 1931.41 150.145 Q1933.33 151.905 1933.33 155.076 Q1933.33 158.687 1930.46 160.793 Q1927.61 162.9 1922.61 162.9 Q1920.53 162.9 1918.26 162.483 Q1916.01 162.09 1913.51 161.28 L1913.51 156.881 Q1915.87 158.108 1918.17 158.733 Q1920.46 159.335 1922.7 159.335 Q1925.71 159.335 1927.33 158.317 Q1928.95 157.275 1928.95 155.4 Q1928.95 153.664 1927.77 152.738 Q1926.61 151.812 1922.66 150.956 L1921.17 150.608 Q1917.22 149.775 1915.46 148.062 Q1913.7 146.326 1913.7 143.317 Q1913.7 139.659 1916.29 137.669 Q1918.88 135.678 1923.65 135.678 Q1926.01 135.678 1928.1 136.025 Q1930.18 136.372 1931.94 137.067 Z" fill="#000000" fill-rule="evenodd" fill-opacity="1" /><path clip-path="url(#clip090)" d="M1965.41 126.257 Q1962.31 131.581 1960.8 136.789 Q1959.3 141.997 1959.3 147.344 Q1959.3 152.692 1960.8 157.946 Q1962.33 163.178 1965.41 168.479 L1961.71 168.479 Q1958.23 163.039 1956.5 157.784 Q1954.79 152.53 1954.79 147.344 Q1954.79 142.182 1956.5 136.951 Q1958.21 131.72 1961.71 126.257 L1965.41 126.257 Z" fill="#000000" fill-rule="evenodd" fill-opacity="1" /><path clip-path="url(#clip090)" d="M1988.44 143.594 Q1991.8 144.312 1993.67 146.581 Q1995.57 148.849 1995.57 152.182 Q1995.57 157.298 1992.05 160.099 Q1988.54 162.9 1982.05 162.9 Q1979.88 162.9 1977.56 162.46 Q1975.27 162.043 1972.82 161.187 L1972.82 156.673 Q1974.76 157.807 1977.08 158.386 Q1979.39 158.965 1981.91 158.965 Q1986.31 158.965 1988.6 157.229 Q1990.92 155.493 1990.92 152.182 Q1990.92 149.127 1988.77 147.414 Q1986.64 145.678 1982.82 145.678 L1978.79 145.678 L1978.79 141.835 L1983 141.835 Q1986.45 141.835 1988.28 140.469 Q1990.11 139.081 1990.11 136.488 Q1990.11 133.826 1988.21 132.414 Q1986.34 130.979 1982.82 130.979 Q1980.9 130.979 1978.7 131.395 Q1976.5 131.812 1973.86 132.692 L1973.86 128.525 Q1976.52 127.784 1978.84 127.414 Q1981.17 127.044 1983.23 127.044 Q1988.56 127.044 1991.66 129.474 Q1994.76 131.882 1994.76 136.002 Q1994.76 138.872 1993.12 140.863 Q1991.48 142.831 1988.44 143.594 Z" fill="#000000" fill-rule="evenodd" fill-opacity="1" /><path clip-path="url(#clip090)" d="M2018.6 143.594 Q2021.96 144.312 2023.84 146.581 Q2025.73 148.849 2025.73 152.182 Q2025.73 157.298 2022.22 160.099 Q2018.7 162.9 2012.22 162.9 Q2010.04 162.9 2007.72 162.46 Q2005.43 162.043 2002.98 161.187 L2002.98 156.673 Q2004.92 157.807 2007.24 158.386 Q2009.55 158.965 2012.08 158.965 Q2016.47 158.965 2018.77 157.229 Q2021.08 155.493 2021.08 152.182 Q2021.08 149.127 2018.93 147.414 Q2016.8 145.678 2012.98 145.678 L2008.95 145.678 L2008.95 141.835 L2013.16 141.835 Q2016.61 141.835 2018.44 140.469 Q2020.27 139.081 2020.27 136.488 Q2020.27 133.826 2018.37 132.414 Q2016.5 130.979 2012.98 130.979 Q2011.06 130.979 2008.86 131.395 Q2006.66 131.812 2004.02 132.692 L2004.02 128.525 Q2006.68 127.784 2009 127.414 Q2011.34 127.044 2013.4 127.044 Q2018.72 127.044 2021.82 129.474 Q2024.92 131.882 2024.92 136.002 Q2024.92 138.872 2023.28 140.863 Q2021.64 142.831 2018.6 143.594 Z" fill="#000000" fill-rule="evenodd" fill-opacity="1" /><path clip-path="url(#clip090)" d="M2034.65 127.669 L2053 127.669 L2053 131.604 L2038.93 131.604 L2038.93 140.076 Q2039.95 139.729 2040.97 139.567 Q2041.98 139.382 2043 139.382 Q2048.79 139.382 2052.17 142.553 Q2055.55 145.724 2055.55 151.141 Q2055.55 156.719 2052.08 159.821 Q2048.6 162.9 2042.28 162.9 Q2040.11 162.9 2037.84 162.53 Q2035.6 162.159 2033.19 161.418 L2033.19 156.719 Q2035.27 157.854 2037.49 158.409 Q2039.72 158.965 2042.19 158.965 Q2046.2 158.965 2048.53 156.858 Q2050.87 154.752 2050.87 151.141 Q2050.87 147.53 2048.53 145.423 Q2046.2 143.317 2042.19 143.317 Q2040.32 143.317 2038.44 143.733 Q2036.59 144.15 2034.65 145.03 L2034.65 127.669 Z" fill="#000000" fill-rule="evenodd" fill-opacity="1" /><path clip-path="url(#clip090)" d="M2064.81 127.669 L2083.16 127.669 L2083.16 131.604 L2069.09 131.604 L2069.09 140.076 Q2070.11 139.729 2071.13 139.567 Q2072.15 139.382 2073.16 139.382 Q2078.95 139.382 2082.33 142.553 Q2085.71 145.724 2085.71 151.141 Q2085.71 156.719 2082.24 159.821 Q2078.77 162.9 2072.45 162.9 Q2070.27 162.9 2068 162.53 Q2065.76 162.159 2063.35 161.418 L2063.35 156.719 Q2065.43 157.854 2067.66 158.409 Q2069.88 158.965 2072.35 158.965 Q2076.36 158.965 2078.7 156.858 Q2081.03 154.752 2081.03 151.141 Q2081.03 147.53 2078.7 145.423 Q2076.36 143.317 2072.35 143.317 Q2070.48 143.317 2068.6 143.733 Q2066.75 144.15 2064.81 145.03 L2064.81 127.669 Z" fill="#000000" fill-rule="evenodd" fill-opacity="1" /><path clip-path="url(#clip090)" d="M2107.77 131.743 L2095.97 150.192 L2107.77 150.192 L2107.77 131.743 M2106.54 127.669 L2112.42 127.669 L2112.42 150.192 L2117.35 150.192 L2117.35 154.081 L2112.42 154.081 L2112.42 162.229 L2107.77 162.229 L2107.77 154.081 L2092.17 154.081 L2092.17 149.567 L2106.54 127.669 Z" fill="#000000" fill-rule="evenodd" fill-opacity="1" /><path clip-path="url(#clip090)" d="M2137.93 131.743 L2126.13 150.192 L2137.93 150.192 L2137.93 131.743 M2136.71 127.669 L2142.59 127.669 L2142.59 150.192 L2147.52 150.192 L2147.52 154.081 L2142.59 154.081 L2142.59 162.229 L2137.93 162.229 L2137.93 154.081 L2122.33 154.081 L2122.33 149.567 L2136.71 127.669 Z" fill="#000000" fill-rule="evenodd" fill-opacity="1" /><path clip-path="url(#clip090)" d="M2169.41 143.594 Q2172.77 144.312 2174.65 146.581 Q2176.54 148.849 2176.54 152.182 Q2176.54 157.298 2173.02 160.099 Q2169.51 162.9 2163.03 162.9 Q2160.85 162.9 2158.53 162.46 Q2156.24 162.043 2153.79 161.187 L2153.79 156.673 Q2155.73 157.807 2158.05 158.386 Q2160.36 158.965 2162.89 158.965 Q2167.28 158.965 2169.58 157.229 Q2171.89 155.493 2171.89 152.182 Q2171.89 149.127 2169.74 147.414 Q2167.61 145.678 2163.79 145.678 L2159.76 145.678 L2159.76 141.835 L2163.97 141.835 Q2167.42 141.835 2169.25 140.469 Q2171.08 139.081 2171.08 136.488 Q2171.08 133.826 2169.18 132.414 Q2167.31 130.979 2163.79 130.979 Q2161.87 130.979 2159.67 131.395 Q2157.47 131.812 2154.83 132.692 L2154.83 128.525 Q2157.49 127.784 2159.81 127.414 Q2162.15 127.044 2164.21 127.044 Q2169.53 127.044 2172.63 129.474 Q2175.73 131.882 2175.73 136.002 Q2175.73 138.872 2174.09 140.863 Q2172.45 142.831 2169.41 143.594 Z" fill="#000000" fill-rule="evenodd" fill-opacity="1" /><path clip-path="url(#clip090)" d="M2189.44 158.293 L2205.76 158.293 L2205.76 162.229 L2183.81 162.229 L2183.81 158.293 Q2186.47 155.539 2191.06 150.909 Q2195.66 146.256 2196.84 144.914 Q2199.09 142.391 2199.97 140.655 Q2200.87 138.895 2200.87 137.206 Q2200.87 134.451 2198.93 132.715 Q2197.01 130.979 2193.9 130.979 Q2191.71 130.979 2189.25 131.743 Q2186.82 132.507 2184.04 134.057 L2184.04 129.335 Q2186.87 128.201 2189.32 127.622 Q2191.77 127.044 2193.81 127.044 Q2199.18 127.044 2202.38 129.729 Q2205.57 132.414 2205.57 136.905 Q2205.57 139.034 2204.76 140.956 Q2203.97 142.854 2201.87 145.446 Q2201.29 146.118 2198.19 149.335 Q2195.09 152.53 2189.44 158.293 Z" fill="#000000" fill-rule="evenodd" fill-opacity="1" /><path clip-path="url(#clip090)" d="M2214.3 126.257 L2218 126.257 Q2221.47 131.72 2223.19 136.951 Q2224.92 142.182 2224.92 147.344 Q2224.92 152.53 2223.19 157.784 Q2221.47 163.039 2218 168.479 L2214.3 168.479 Q2217.38 163.178 2218.88 157.946 Q2220.41 152.692 2220.41 147.344 Q2220.41 141.997 2218.88 136.789 Q2217.38 131.581 2214.3 126.257 Z" fill="#000000" fill-rule="evenodd" fill-opacity="1" /><polyline clip-path="url(#clip090)" style="stroke:#e26f46; stroke-linecap:round; stroke-linejoin:round; stroke-width:4; stroke-opacity:1; fill:none" points="
  1601.28,196.789 1750.65,196.789 
  "/>
<path clip-path="url(#clip090)" d="M1795.9 193.12 Q1797.49 190.249 1799.72 188.884 Q1801.94 187.518 1804.95 187.518 Q1809 187.518 1811.2 190.365 Q1813.4 193.189 1813.4 198.421 L1813.4 214.069 L1809.11 214.069 L1809.11 198.559 Q1809.11 194.833 1807.8 193.027 Q1806.48 191.222 1803.77 191.222 Q1800.46 191.222 1798.54 193.421 Q1796.61 195.62 1796.61 199.416 L1796.61 214.069 L1792.33 214.069 L1792.33 198.559 Q1792.33 194.809 1791.01 193.027 Q1789.69 191.222 1786.94 191.222 Q1783.68 191.222 1781.75 193.444 Q1779.83 195.643 1779.83 199.416 L1779.83 214.069 L1775.55 214.069 L1775.55 188.143 L1779.83 188.143 L1779.83 192.171 Q1781.29 189.786 1783.33 188.652 Q1785.37 187.518 1788.17 187.518 Q1790.99 187.518 1792.96 188.953 Q1794.95 190.388 1795.9 193.12 Z" fill="#000000" fill-rule="evenodd" fill-opacity="1" /><path clip-path="url(#clip090)" d="M1833.67 201.036 Q1828.51 201.036 1826.52 202.217 Q1824.53 203.397 1824.53 206.245 Q1824.53 208.513 1826.01 209.856 Q1827.52 211.175 1830.09 211.175 Q1833.63 211.175 1835.76 208.675 Q1837.91 206.152 1837.91 201.985 L1837.91 201.036 L1833.67 201.036 M1842.17 199.277 L1842.17 214.069 L1837.91 214.069 L1837.91 210.133 Q1836.45 212.495 1834.28 213.629 Q1832.1 214.74 1828.95 214.74 Q1824.97 214.74 1822.61 212.518 Q1820.27 210.272 1820.27 206.522 Q1820.27 202.147 1823.19 199.925 Q1826.13 197.703 1831.94 197.703 L1837.91 197.703 L1837.91 197.286 Q1837.91 194.347 1835.97 192.749 Q1834.05 191.129 1830.55 191.129 Q1828.33 191.129 1826.22 191.661 Q1824.11 192.194 1822.17 193.259 L1822.17 189.323 Q1824.51 188.421 1826.71 187.981 Q1828.91 187.518 1830.99 187.518 Q1836.61 187.518 1839.39 190.434 Q1842.17 193.351 1842.17 199.277 Z" fill="#000000" fill-rule="evenodd" fill-opacity="1" /><path clip-path="url(#clip090)" d="M1867.47 188.907 L1867.47 192.934 Q1865.67 192.009 1863.72 191.546 Q1861.78 191.083 1859.69 191.083 Q1856.52 191.083 1854.92 192.055 Q1853.35 193.027 1853.35 194.971 Q1853.35 196.453 1854.49 197.309 Q1855.62 198.143 1859.05 198.907 L1860.5 199.231 Q1865.04 200.203 1866.94 201.985 Q1868.86 203.745 1868.86 206.916 Q1868.86 210.527 1865.99 212.633 Q1863.14 214.74 1858.14 214.74 Q1856.06 214.74 1853.79 214.323 Q1851.55 213.93 1849.05 213.12 L1849.05 208.721 Q1851.41 209.948 1853.7 210.573 Q1855.99 211.175 1858.23 211.175 Q1861.24 211.175 1862.86 210.157 Q1864.48 209.115 1864.48 207.24 Q1864.48 205.504 1863.3 204.578 Q1862.15 203.652 1858.19 202.796 L1856.71 202.448 Q1852.75 201.615 1850.99 199.902 Q1849.23 198.166 1849.23 195.157 Q1849.23 191.499 1851.82 189.509 Q1854.42 187.518 1859.18 187.518 Q1861.55 187.518 1863.63 187.865 Q1865.71 188.212 1867.47 188.907 Z" fill="#000000" fill-rule="evenodd" fill-opacity="1" /><path clip-path="url(#clip090)" d="M1892.17 188.907 L1892.17 192.934 Q1890.36 192.009 1888.42 191.546 Q1886.48 191.083 1884.39 191.083 Q1881.22 191.083 1879.62 192.055 Q1878.05 193.027 1878.05 194.971 Q1878.05 196.453 1879.18 197.309 Q1880.32 198.143 1883.74 198.907 L1885.2 199.231 Q1889.74 200.203 1891.64 201.985 Q1893.56 203.745 1893.56 206.916 Q1893.56 210.527 1890.69 212.633 Q1887.84 214.74 1882.84 214.74 Q1880.76 214.74 1878.49 214.323 Q1876.24 213.93 1873.74 213.12 L1873.74 208.721 Q1876.11 209.948 1878.4 210.573 Q1880.69 211.175 1882.93 211.175 Q1885.94 211.175 1887.56 210.157 Q1889.18 209.115 1889.18 207.24 Q1889.18 205.504 1888 204.578 Q1886.85 203.652 1882.89 202.796 L1881.41 202.448 Q1877.45 201.615 1875.69 199.902 Q1873.93 198.166 1873.93 195.157 Q1873.93 191.499 1876.52 189.509 Q1879.11 187.518 1883.88 187.518 Q1886.24 187.518 1888.33 187.865 Q1890.41 188.212 1892.17 188.907 Z" fill="#000000" fill-rule="evenodd" fill-opacity="1" /><path clip-path="url(#clip090)" d="M1900.94 208.189 L1905.83 208.189 L1905.83 214.069 L1900.94 214.069 L1900.94 208.189 Z" fill="#000000" fill-rule="evenodd" fill-opacity="1" /><path clip-path="url(#clip090)" d="M1912.36 188.143 L1916.87 188.143 L1924.97 209.902 L1933.07 188.143 L1937.59 188.143 L1927.86 214.069 L1922.08 214.069 L1912.36 188.143 Z" fill="#000000" fill-rule="evenodd" fill-opacity="1" /><path clip-path="url(#clip090)" d="M1968.77 178.097 Q1965.66 183.421 1964.16 188.629 Q1962.66 193.837 1962.66 199.184 Q1962.66 204.532 1964.16 209.786 Q1965.69 215.018 1968.77 220.319 L1965.06 220.319 Q1961.59 214.879 1959.85 209.624 Q1958.14 204.37 1958.14 199.184 Q1958.14 194.022 1959.85 188.791 Q1961.57 183.56 1965.06 178.097 L1968.77 178.097 Z" fill="#000000" fill-rule="evenodd" fill-opacity="1" /><path clip-path="url(#clip090)" d="M1991.8 195.434 Q1995.16 196.152 1997.03 198.421 Q1998.93 200.689 1998.93 204.022 Q1998.93 209.138 1995.41 211.939 Q1991.89 214.74 1985.41 214.74 Q1983.23 214.74 1980.92 214.3 Q1978.63 213.883 1976.17 213.027 L1976.17 208.513 Q1978.12 209.647 1980.43 210.226 Q1982.75 210.805 1985.27 210.805 Q1989.67 210.805 1991.96 209.069 Q1994.28 207.333 1994.28 204.022 Q1994.28 200.967 1992.12 199.254 Q1989.99 197.518 1986.17 197.518 L1982.15 197.518 L1982.15 193.675 L1986.36 193.675 Q1989.81 193.675 1991.64 192.309 Q1993.47 190.921 1993.47 188.328 Q1993.47 185.666 1991.57 184.254 Q1989.69 182.819 1986.17 182.819 Q1984.25 182.819 1982.05 183.235 Q1979.85 183.652 1977.22 184.532 L1977.22 180.365 Q1979.88 179.624 1982.19 179.254 Q1984.53 178.884 1986.59 178.884 Q1991.91 178.884 1995.02 181.314 Q1998.12 183.722 1998.12 187.842 Q1998.12 190.712 1996.47 192.703 Q1994.83 194.671 1991.8 195.434 Z" fill="#000000" fill-rule="evenodd" fill-opacity="1" /><path clip-path="url(#clip090)" d="M2021.96 195.434 Q2025.32 196.152 2027.19 198.421 Q2029.09 200.689 2029.09 204.022 Q2029.09 209.138 2025.57 211.939 Q2022.05 214.74 2015.57 214.74 Q2013.4 214.74 2011.08 214.3 Q2008.79 213.883 2006.34 213.027 L2006.34 208.513 Q2008.28 209.647 2010.6 210.226 Q2012.91 210.805 2015.43 210.805 Q2019.83 210.805 2022.12 209.069 Q2024.44 207.333 2024.44 204.022 Q2024.44 200.967 2022.29 199.254 Q2020.16 197.518 2016.34 197.518 L2012.31 197.518 L2012.31 193.675 L2016.52 193.675 Q2019.97 193.675 2021.8 192.309 Q2023.63 190.921 2023.63 188.328 Q2023.63 185.666 2021.73 184.254 Q2019.85 182.819 2016.34 182.819 Q2014.41 182.819 2012.22 183.235 Q2010.02 183.652 2007.38 184.532 L2007.38 180.365 Q2010.04 179.624 2012.35 179.254 Q2014.69 178.884 2016.75 178.884 Q2022.08 178.884 2025.18 181.314 Q2028.28 183.722 2028.28 187.842 Q2028.28 190.712 2026.64 192.703 Q2024.99 194.671 2021.96 195.434 Z" fill="#000000" fill-rule="evenodd" fill-opacity="1" /><path clip-path="url(#clip090)" d="M2038 179.509 L2056.36 179.509 L2056.36 183.444 L2042.28 183.444 L2042.28 191.916 Q2043.3 191.569 2044.32 191.407 Q2045.34 191.222 2046.36 191.222 Q2052.15 191.222 2055.53 194.393 Q2058.91 197.564 2058.91 202.981 Q2058.91 208.559 2055.43 211.661 Q2051.96 214.74 2045.64 214.74 Q2043.47 214.74 2041.2 214.37 Q2038.95 213.999 2036.54 213.258 L2036.54 208.559 Q2038.63 209.694 2040.85 210.249 Q2043.07 210.805 2045.55 210.805 Q2049.55 210.805 2051.89 208.698 Q2054.23 206.592 2054.23 202.981 Q2054.23 199.37 2051.89 197.263 Q2049.55 195.157 2045.55 195.157 Q2043.67 195.157 2041.8 195.573 Q2039.95 195.99 2038 196.87 L2038 179.509 Z" fill="#000000" fill-rule="evenodd" fill-opacity="1" /><path clip-path="url(#clip090)" d="M2068.16 179.509 L2086.52 179.509 L2086.52 183.444 L2072.45 183.444 L2072.45 191.916 Q2073.47 191.569 2074.48 191.407 Q2075.5 191.222 2076.52 191.222 Q2082.31 191.222 2085.69 194.393 Q2089.07 197.564 2089.07 202.981 Q2089.07 208.559 2085.59 211.661 Q2082.12 214.74 2075.8 214.74 Q2073.63 214.74 2071.36 214.37 Q2069.11 213.999 2066.71 213.258 L2066.71 208.559 Q2068.79 209.694 2071.01 210.249 Q2073.23 210.805 2075.71 210.805 Q2079.72 210.805 2082.05 208.698 Q2084.39 206.592 2084.39 202.981 Q2084.39 199.37 2082.05 197.263 Q2079.72 195.157 2075.71 195.157 Q2073.84 195.157 2071.96 195.573 Q2070.11 195.99 2068.16 196.87 L2068.16 179.509 Z" fill="#000000" fill-rule="evenodd" fill-opacity="1" /><path clip-path="url(#clip090)" d="M2111.13 183.583 L2099.32 202.032 L2111.13 202.032 L2111.13 183.583 M2109.9 179.509 L2115.78 179.509 L2115.78 202.032 L2120.71 202.032 L2120.71 205.921 L2115.78 205.921 L2115.78 214.069 L2111.13 214.069 L2111.13 205.921 L2095.53 205.921 L2095.53 201.407 L2109.9 179.509 Z" fill="#000000" fill-rule="evenodd" fill-opacity="1" /><path clip-path="url(#clip090)" d="M2141.29 183.583 L2129.48 202.032 L2141.29 202.032 L2141.29 183.583 M2140.06 179.509 L2145.94 179.509 L2145.94 202.032 L2150.87 202.032 L2150.87 205.921 L2145.94 205.921 L2145.94 214.069 L2141.29 214.069 L2141.29 205.921 L2125.69 205.921 L2125.69 201.407 L2140.06 179.509 Z" fill="#000000" fill-rule="evenodd" fill-opacity="1" /><path clip-path="url(#clip090)" d="M2172.77 195.434 Q2176.13 196.152 2178 198.421 Q2179.9 200.689 2179.9 204.022 Q2179.9 209.138 2176.38 211.939 Q2172.86 214.74 2166.38 214.74 Q2164.21 214.74 2161.89 214.3 Q2159.6 213.883 2157.15 213.027 L2157.15 208.513 Q2159.09 209.647 2161.4 210.226 Q2163.72 210.805 2166.24 210.805 Q2170.64 210.805 2172.93 209.069 Q2175.25 207.333 2175.25 204.022 Q2175.25 200.967 2173.09 199.254 Q2170.96 197.518 2167.15 197.518 L2163.12 197.518 L2163.12 193.675 L2167.33 193.675 Q2170.78 193.675 2172.61 192.309 Q2174.44 190.921 2174.44 188.328 Q2174.44 185.666 2172.54 184.254 Q2170.66 182.819 2167.15 182.819 Q2165.22 182.819 2163.03 183.235 Q2160.83 183.652 2158.19 184.532 L2158.19 180.365 Q2160.85 179.624 2163.16 179.254 Q2165.5 178.884 2167.56 178.884 Q2172.89 178.884 2175.99 181.314 Q2179.09 183.722 2179.09 187.842 Q2179.09 190.712 2177.45 192.703 Q2175.8 194.671 2172.77 195.434 Z" fill="#000000" fill-rule="evenodd" fill-opacity="1" /><path clip-path="url(#clip090)" d="M2202.93 195.434 Q2206.29 196.152 2208.16 198.421 Q2210.06 200.689 2210.06 204.022 Q2210.06 209.138 2206.54 211.939 Q2203.02 214.74 2196.54 214.74 Q2194.37 214.74 2192.05 214.3 Q2189.76 213.883 2187.31 213.027 L2187.31 208.513 Q2189.25 209.647 2191.57 210.226 Q2193.88 210.805 2196.4 210.805 Q2200.8 210.805 2203.09 209.069 Q2205.41 207.333 2205.41 204.022 Q2205.41 200.967 2203.26 199.254 Q2201.13 197.518 2197.31 197.518 L2193.28 197.518 L2193.28 193.675 L2197.49 193.675 Q2200.94 193.675 2202.77 192.309 Q2204.6 190.921 2204.6 188.328 Q2204.6 185.666 2202.7 184.254 Q2200.83 182.819 2197.31 182.819 Q2195.39 182.819 2193.19 183.235 Q2190.99 183.652 2188.35 184.532 L2188.35 180.365 Q2191.01 179.624 2193.33 179.254 Q2195.66 178.884 2197.72 178.884 Q2203.05 178.884 2206.15 181.314 Q2209.25 183.722 2209.25 187.842 Q2209.25 190.712 2207.61 192.703 Q2205.96 194.671 2202.93 195.434 Z" fill="#000000" fill-rule="evenodd" fill-opacity="1" /><path clip-path="url(#clip090)" d="M2217.65 178.097 L2221.36 178.097 Q2224.83 183.56 2226.54 188.791 Q2228.28 194.022 2228.28 199.184 Q2228.28 204.37 2226.54 209.624 Q2224.83 214.879 2221.36 220.319 L2217.65 220.319 Q2220.73 215.018 2222.24 209.786 Q2223.77 204.532 2223.77 199.184 Q2223.77 193.837 2222.24 188.629 Q2220.73 183.421 2217.65 178.097 Z" fill="#000000" fill-rule="evenodd" fill-opacity="1" /></svg>
