<?xml version="1.0" encoding="utf-8"?>
<svg xmlns="http://www.w3.org/2000/svg" xmlns:xlink="http://www.w3.org/1999/xlink" width="600" height="400" viewBox="0 0 2400 1600">
<defs>
  <clipPath id="clip530">
    <rect x="0" y="0" width="2400" height="1600"/>
  </clipPath>
</defs>
<path clip-path="url(#clip530)" d="
M0 1600 L2400 1600 L2400 0 L0 0  Z
  " fill="#ffffff" fill-rule="evenodd" fill-opacity="1"/>
<defs>
  <clipPath id="clip531">
    <rect x="480" y="0" width="1681" height="1600"/>
  </clipPath>
</defs>
<path clip-path="url(#clip530)" d="
M245.309 1401.58 L2352.76 1401.58 L2352.76 123.472 L245.309 123.472  Z
  " fill="#ffffff" fill-rule="evenodd" fill-opacity="1"/>
<defs>
  <clipPath id="clip532">
    <rect x="245" y="123" width="2108" height="1279"/>
  </clipPath>
</defs>
<polyline clip-path="url(#clip532)" style="stroke:#000000; stroke-linecap:round; stroke-linejoin:round; stroke-width:2; stroke-opacity:0.1; fill:none" points="
  456.054,1401.58 456.054,123.472 
  "/>
<polyline clip-path="url(#clip532)" style="stroke:#000000; stroke-linecap:round; stroke-linejoin:round; stroke-width:2; stroke-opacity:0.1; fill:none" points="
  877.543,1401.58 877.543,123.472 
  "/>
<polyline clip-path="url(#clip532)" style="stroke:#000000; stroke-linecap:round; stroke-linejoin:round; stroke-width:2; stroke-opacity:0.1; fill:none" points="
  1299.03,1401.58 1299.03,123.472 
  "/>
<polyline clip-path="url(#clip532)" style="stroke:#000000; stroke-linecap:round; stroke-linejoin:round; stroke-width:2; stroke-opacity:0.1; fill:none" points="
  1720.52,1401.58 1720.52,123.472 
  "/>
<polyline clip-path="url(#clip532)" style="stroke:#000000; stroke-linecap:round; stroke-linejoin:round; stroke-width:2; stroke-opacity:0.1; fill:none" points="
  2142.01,1401.58 2142.01,123.472 
  "/>
<polyline clip-path="url(#clip530)" style="stroke:#000000; stroke-linecap:round; stroke-linejoin:round; stroke-width:4; stroke-opacity:1; fill:none" points="
  245.309,1401.58 2352.76,1401.58 
  "/>
<polyline clip-path="url(#clip530)" style="stroke:#000000; stroke-linecap:round; stroke-linejoin:round; stroke-width:4; stroke-opacity:1; fill:none" points="
  456.054,1401.58 456.054,1382.68 
  "/>
<polyline clip-path="url(#clip530)" style="stroke:#000000; stroke-linecap:round; stroke-linejoin:round; stroke-width:4; stroke-opacity:1; fill:none" points="
  877.543,1401.58 877.543,1382.68 
  "/>
<polyline clip-path="url(#clip530)" style="stroke:#000000; stroke-linecap:round; stroke-linejoin:round; stroke-width:4; stroke-opacity:1; fill:none" points="
  1299.03,1401.58 1299.03,1382.68 
  "/>
<polyline clip-path="url(#clip530)" style="stroke:#000000; stroke-linecap:round; stroke-linejoin:round; stroke-width:4; stroke-opacity:1; fill:none" points="
  1720.52,1401.58 1720.52,1382.68 
  "/>
<polyline clip-path="url(#clip530)" style="stroke:#000000; stroke-linecap:round; stroke-linejoin:round; stroke-width:4; stroke-opacity:1; fill:none" points="
  2142.01,1401.58 2142.01,1382.68 
  "/>
<path clip-path="url(#clip530)" d="M375.846 1460.34 L420.359 1460.34 L420.359 1466.24 L375.846 1466.24 L375.846 1460.34 Z" fill="#000000" fill-rule="evenodd" fill-opacity="1" /><path clip-path="url(#clip530)" d="M436.713 1479.68 L448.172 1479.68 L448.172 1440.13 L435.706 1442.63 L435.706 1436.24 L448.102 1433.74 L455.116 1433.74 L455.116 1479.68 L466.574 1479.68 L466.574 1485.58 L436.713 1485.58 L436.713 1479.68 Z" fill="#000000" fill-rule="evenodd" fill-opacity="1" /><path clip-path="url(#clip530)" d="M480.741 1476.76 L488.067 1476.76 L488.067 1485.58 L480.741 1485.58 L480.741 1476.76 Z" fill="#000000" fill-rule="evenodd" fill-opacity="1" /><path clip-path="url(#clip530)" d="M518.345 1438.36 Q512.928 1438.36 510.185 1443.71 Q507.477 1449.02 507.477 1459.71 Q507.477 1470.37 510.185 1475.72 Q512.928 1481.03 518.345 1481.03 Q523.796 1481.03 526.505 1475.72 Q529.248 1470.37 529.248 1459.71 Q529.248 1449.02 526.505 1443.71 Q523.796 1438.36 518.345 1438.36 M518.345 1432.8 Q527.06 1432.8 531.643 1439.71 Q536.261 1446.59 536.261 1459.71 Q536.261 1472.8 531.643 1479.71 Q527.06 1486.59 518.345 1486.59 Q509.63 1486.59 505.012 1479.71 Q500.428 1472.8 500.428 1459.71 Q500.428 1446.59 505.012 1439.71 Q509.63 1432.8 518.345 1432.8 Z" fill="#000000" fill-rule="evenodd" fill-opacity="1" /><path clip-path="url(#clip530)" d="M798.082 1460.34 L842.595 1460.34 L842.595 1466.24 L798.082 1466.24 L798.082 1460.34 Z" fill="#000000" fill-rule="evenodd" fill-opacity="1" /><path clip-path="url(#clip530)" d="M872.734 1438.36 Q867.317 1438.36 864.574 1443.71 Q861.866 1449.02 861.866 1459.71 Q861.866 1470.37 864.574 1475.72 Q867.317 1481.03 872.734 1481.03 Q878.185 1481.03 880.894 1475.72 Q883.637 1470.37 883.637 1459.71 Q883.637 1449.02 880.894 1443.71 Q878.185 1438.36 872.734 1438.36 M872.734 1432.8 Q881.449 1432.8 886.032 1439.71 Q890.651 1446.59 890.651 1459.71 Q890.651 1472.8 886.032 1479.71 Q881.449 1486.59 872.734 1486.59 Q864.019 1486.59 859.401 1479.71 Q854.817 1472.8 854.817 1459.71 Q854.817 1446.59 859.401 1439.71 Q864.019 1432.8 872.734 1432.8 Z" fill="#000000" fill-rule="evenodd" fill-opacity="1" /><path clip-path="url(#clip530)" d="M902.977 1476.76 L910.303 1476.76 L910.303 1485.58 L902.977 1485.58 L902.977 1476.76 Z" fill="#000000" fill-rule="evenodd" fill-opacity="1" /><path clip-path="url(#clip530)" d="M925.65 1433.74 L953.185 1433.74 L953.185 1439.64 L932.074 1439.64 L932.074 1452.35 Q933.602 1451.83 935.129 1451.59 Q936.657 1451.31 938.185 1451.31 Q946.866 1451.31 951.935 1456.07 Q957.004 1460.82 957.004 1468.95 Q957.004 1477.32 951.796 1481.97 Q946.588 1486.59 937.109 1486.59 Q933.845 1486.59 930.442 1486.03 Q927.074 1485.48 923.463 1484.36 L923.463 1477.32 Q926.588 1479.02 929.921 1479.85 Q933.254 1480.68 936.97 1480.68 Q942.977 1480.68 946.484 1477.52 Q949.99 1474.36 949.99 1468.95 Q949.99 1463.53 946.484 1460.37 Q942.977 1457.21 936.97 1457.21 Q934.157 1457.21 931.345 1457.84 Q928.567 1458.46 925.65 1459.78 L925.65 1433.74 Z" fill="#000000" fill-rule="evenodd" fill-opacity="1" /><path clip-path="url(#clip530)" d="M1265.11 1438.36 Q1259.69 1438.36 1256.95 1443.71 Q1254.24 1449.02 1254.24 1459.71 Q1254.24 1470.37 1256.95 1475.72 Q1259.69 1481.03 1265.11 1481.03 Q1270.56 1481.03 1273.27 1475.72 Q1276.01 1470.37 1276.01 1459.71 Q1276.01 1449.02 1273.27 1443.71 Q1270.56 1438.36 1265.11 1438.36 M1265.11 1432.8 Q1273.82 1432.8 1278.41 1439.71 Q1283.03 1446.59 1283.03 1459.71 Q1283.03 1472.8 1278.41 1479.71 Q1273.82 1486.59 1265.11 1486.59 Q1256.39 1486.59 1251.78 1479.71 Q1247.19 1472.8 1247.19 1459.71 Q1247.19 1446.59 1251.78 1439.71 Q1256.39 1432.8 1265.11 1432.8 Z" fill="#000000" fill-rule="evenodd" fill-opacity="1" /><path clip-path="url(#clip530)" d="M1295.35 1476.76 L1302.68 1476.76 L1302.68 1485.58 L1295.35 1485.58 L1295.35 1476.76 Z" fill="#000000" fill-rule="evenodd" fill-opacity="1" /><path clip-path="url(#clip530)" d="M1332.96 1438.36 Q1327.54 1438.36 1324.8 1443.71 Q1322.09 1449.02 1322.09 1459.71 Q1322.09 1470.37 1324.8 1475.72 Q1327.54 1481.03 1332.96 1481.03 Q1338.41 1481.03 1341.12 1475.72 Q1343.86 1470.37 1343.86 1459.71 Q1343.86 1449.02 1341.12 1443.71 Q1338.41 1438.36 1332.96 1438.36 M1332.96 1432.8 Q1341.67 1432.8 1346.25 1439.71 Q1350.87 1446.59 1350.87 1459.71 Q1350.87 1472.8 1346.25 1479.71 Q1341.67 1486.59 1332.96 1486.59 Q1324.24 1486.59 1319.62 1479.71 Q1315.04 1472.8 1315.04 1459.71 Q1315.04 1446.59 1319.62 1439.71 Q1324.24 1432.8 1332.96 1432.8 Z" fill="#000000" fill-rule="evenodd" fill-opacity="1" /><path clip-path="url(#clip530)" d="M1687.34 1438.36 Q1681.93 1438.36 1679.19 1443.71 Q1676.48 1449.02 1676.48 1459.71 Q1676.48 1470.37 1679.19 1475.72 Q1681.93 1481.03 1687.34 1481.03 Q1692.8 1481.03 1695.5 1475.72 Q1698.25 1470.37 1698.25 1459.71 Q1698.25 1449.02 1695.5 1443.71 Q1692.8 1438.36 1687.34 1438.36 M1687.34 1432.8 Q1696.06 1432.8 1700.64 1439.71 Q1705.26 1446.59 1705.26 1459.71 Q1705.26 1472.8 1700.64 1479.71 Q1696.06 1486.59 1687.34 1486.59 Q1678.63 1486.59 1674.01 1479.71 Q1669.43 1472.8 1669.43 1459.71 Q1669.43 1446.59 1674.01 1439.71 Q1678.63 1432.8 1687.34 1432.8 Z" fill="#000000" fill-rule="evenodd" fill-opacity="1" /><path clip-path="url(#clip530)" d="M1717.59 1476.76 L1724.91 1476.76 L1724.91 1485.58 L1717.59 1485.58 L1717.59 1476.76 Z" fill="#000000" fill-rule="evenodd" fill-opacity="1" /><path clip-path="url(#clip530)" d="M1740.26 1433.74 L1767.8 1433.74 L1767.8 1439.64 L1746.68 1439.64 L1746.68 1452.35 Q1748.21 1451.83 1749.74 1451.59 Q1751.27 1451.31 1752.8 1451.31 Q1761.48 1451.31 1766.55 1456.07 Q1771.62 1460.82 1771.62 1468.95 Q1771.62 1477.32 1766.41 1481.97 Q1761.2 1486.59 1751.72 1486.59 Q1748.46 1486.59 1745.05 1486.03 Q1741.68 1485.48 1738.07 1484.36 L1738.07 1477.32 Q1741.2 1479.02 1744.53 1479.85 Q1747.87 1480.68 1751.58 1480.68 Q1757.59 1480.68 1761.09 1477.52 Q1764.6 1474.36 1764.6 1468.95 Q1764.6 1463.53 1761.09 1460.37 Q1757.59 1457.21 1751.58 1457.21 Q1748.77 1457.21 1745.96 1457.84 Q1743.18 1458.46 1740.26 1459.78 L1740.26 1433.74 Z" fill="#000000" fill-rule="evenodd" fill-opacity="1" /><path clip-path="url(#clip530)" d="M2092.74 1479.68 L2104.2 1479.68 L2104.2 1440.13 L2091.73 1442.63 L2091.73 1436.24 L2104.13 1433.74 L2111.14 1433.74 L2111.14 1479.68 L2122.6 1479.68 L2122.6 1485.58 L2092.74 1485.58 L2092.74 1479.68 Z" fill="#000000" fill-rule="evenodd" fill-opacity="1" /><path clip-path="url(#clip530)" d="M2136.77 1476.76 L2144.09 1476.76 L2144.09 1485.58 L2136.77 1485.58 L2136.77 1476.76 Z" fill="#000000" fill-rule="evenodd" fill-opacity="1" /><path clip-path="url(#clip530)" d="M2174.37 1438.36 Q2168.96 1438.36 2166.21 1443.71 Q2163.5 1449.02 2163.5 1459.71 Q2163.5 1470.37 2166.21 1475.72 Q2168.96 1481.03 2174.37 1481.03 Q2179.82 1481.03 2182.53 1475.72 Q2185.27 1470.37 2185.27 1459.71 Q2185.27 1449.02 2182.53 1443.71 Q2179.82 1438.36 2174.37 1438.36 M2174.37 1432.8 Q2183.09 1432.8 2187.67 1439.71 Q2192.29 1446.59 2192.29 1459.71 Q2192.29 1472.8 2187.67 1479.71 Q2183.09 1486.59 2174.37 1486.59 Q2165.66 1486.59 2161.04 1479.71 Q2156.46 1472.8 2156.46 1459.71 Q2156.46 1446.59 2161.04 1439.71 Q2165.66 1432.8 2174.37 1432.8 Z" fill="#000000" fill-rule="evenodd" fill-opacity="1" /><path clip-path="url(#clip530)" d="M1177.92 1538.66 L1184.69 1538.66 L1196.85 1571.3 L1209 1538.66 L1215.77 1538.66 L1201.19 1577.55 L1192.51 1577.55 L1177.92 1538.66 Z" fill="#000000" fill-rule="evenodd" fill-opacity="1" /><path clip-path="url(#clip530)" d="M1246.6 1523.52 L1261.32 1523.52 L1261.32 1528.49 L1252.99 1528.49 L1252.99 1581.96 L1261.32 1581.96 L1261.32 1586.92 L1246.6 1586.92 L1246.6 1523.52 Z" fill="#000000" fill-rule="evenodd" fill-opacity="1" /><path clip-path="url(#clip530)" d="M1305.21 1546.12 Q1307.61 1541.82 1310.94 1539.77 Q1314.28 1537.72 1318.79 1537.72 Q1324.87 1537.72 1328.16 1541.99 Q1331.46 1546.23 1331.46 1554.08 L1331.46 1577.55 L1325.04 1577.55 L1325.04 1554.28 Q1325.04 1548.69 1323.06 1545.99 Q1321.08 1543.28 1317.02 1543.28 Q1312.05 1543.28 1309.17 1546.58 Q1306.29 1549.87 1306.29 1555.57 L1306.29 1577.55 L1299.87 1577.55 L1299.87 1554.28 Q1299.87 1548.66 1297.89 1545.99 Q1295.91 1543.28 1291.78 1543.28 Q1286.88 1543.28 1284 1546.61 Q1281.12 1549.91 1281.12 1555.57 L1281.12 1577.55 L1274.69 1577.55 L1274.69 1538.66 L1281.12 1538.66 L1281.12 1544.7 Q1283.3 1541.12 1286.36 1539.42 Q1289.41 1537.72 1293.62 1537.72 Q1297.85 1537.72 1300.8 1539.87 Q1303.79 1542.03 1305.21 1546.12 Z" fill="#000000" fill-rule="evenodd" fill-opacity="1" /><path clip-path="url(#clip530)" d="M1355.56 1525.71 L1361.46 1525.71 L1343.41 1584.15 L1337.5 1584.15 L1355.56 1525.71 Z" fill="#000000" fill-rule="evenodd" fill-opacity="1" /><path clip-path="url(#clip530)" d="M1392.96 1539.8 L1392.96 1545.85 Q1390.25 1544.46 1387.33 1543.76 Q1384.41 1543.07 1381.29 1543.07 Q1376.53 1543.07 1374.14 1544.53 Q1371.78 1545.99 1371.78 1548.9 Q1371.78 1551.12 1373.48 1552.41 Q1375.18 1553.66 1380.32 1554.8 L1382.5 1555.29 Q1389.31 1556.75 1392.16 1559.42 Q1395.04 1562.06 1395.04 1566.82 Q1395.04 1572.24 1390.73 1575.4 Q1386.46 1578.55 1378.96 1578.55 Q1375.84 1578.55 1372.43 1577.93 Q1369.07 1577.34 1365.32 1576.12 L1365.32 1569.53 Q1368.86 1571.37 1372.3 1572.3 Q1375.73 1573.21 1379.1 1573.21 Q1383.62 1573.21 1386.05 1571.68 Q1388.48 1570.12 1388.48 1567.3 Q1388.48 1564.7 1386.71 1563.31 Q1384.97 1561.92 1379.03 1560.64 L1376.81 1560.12 Q1370.87 1558.87 1368.23 1556.3 Q1365.59 1553.69 1365.59 1549.18 Q1365.59 1543.69 1369.48 1540.71 Q1373.37 1537.72 1380.52 1537.72 Q1384.07 1537.72 1387.19 1538.24 Q1390.32 1538.76 1392.96 1539.8 Z" fill="#000000" fill-rule="evenodd" fill-opacity="1" /><path clip-path="url(#clip530)" d="M1420.14 1523.52 L1420.14 1586.92 L1405.42 1586.92 L1405.42 1581.96 L1413.72 1581.96 L1413.72 1528.49 L1405.42 1528.49 L1405.42 1523.52 L1420.14 1523.52 Z" fill="#000000" fill-rule="evenodd" fill-opacity="1" /><polyline clip-path="url(#clip532)" style="stroke:#000000; stroke-linecap:round; stroke-linejoin:round; stroke-width:2; stroke-opacity:0.1; fill:none" points="
  245.309,1272.06 2352.76,1272.06 
  "/>
<polyline clip-path="url(#clip532)" style="stroke:#000000; stroke-linecap:round; stroke-linejoin:round; stroke-width:2; stroke-opacity:0.1; fill:none" points="
  245.309,1078.23 2352.76,1078.23 
  "/>
<polyline clip-path="url(#clip532)" style="stroke:#000000; stroke-linecap:round; stroke-linejoin:round; stroke-width:2; stroke-opacity:0.1; fill:none" points="
  245.309,884.406 2352.76,884.406 
  "/>
<polyline clip-path="url(#clip532)" style="stroke:#000000; stroke-linecap:round; stroke-linejoin:round; stroke-width:2; stroke-opacity:0.1; fill:none" points="
  245.309,690.579 2352.76,690.579 
  "/>
<polyline clip-path="url(#clip532)" style="stroke:#000000; stroke-linecap:round; stroke-linejoin:round; stroke-width:2; stroke-opacity:0.1; fill:none" points="
  245.309,496.751 2352.76,496.751 
  "/>
<polyline clip-path="url(#clip532)" style="stroke:#000000; stroke-linecap:round; stroke-linejoin:round; stroke-width:2; stroke-opacity:0.1; fill:none" points="
  245.309,302.924 2352.76,302.924 
  "/>
<polyline clip-path="url(#clip530)" style="stroke:#000000; stroke-linecap:round; stroke-linejoin:round; stroke-width:4; stroke-opacity:1; fill:none" points="
  245.309,1401.58 245.309,123.472 
  "/>
<polyline clip-path="url(#clip530)" style="stroke:#000000; stroke-linecap:round; stroke-linejoin:round; stroke-width:4; stroke-opacity:1; fill:none" points="
  245.309,1272.06 264.206,1272.06 
  "/>
<polyline clip-path="url(#clip530)" style="stroke:#000000; stroke-linecap:round; stroke-linejoin:round; stroke-width:4; stroke-opacity:1; fill:none" points="
  245.309,1078.23 264.206,1078.23 
  "/>
<polyline clip-path="url(#clip530)" style="stroke:#000000; stroke-linecap:round; stroke-linejoin:round; stroke-width:4; stroke-opacity:1; fill:none" points="
  245.309,884.406 264.206,884.406 
  "/>
<polyline clip-path="url(#clip530)" style="stroke:#000000; stroke-linecap:round; stroke-linejoin:round; stroke-width:4; stroke-opacity:1; fill:none" points="
  245.309,690.579 264.206,690.579 
  "/>
<polyline clip-path="url(#clip530)" style="stroke:#000000; stroke-linecap:round; stroke-linejoin:round; stroke-width:4; stroke-opacity:1; fill:none" points="
  245.309,496.751 264.206,496.751 
  "/>
<polyline clip-path="url(#clip530)" style="stroke:#000000; stroke-linecap:round; stroke-linejoin:round; stroke-width:4; stroke-opacity:1; fill:none" points="
  245.309,302.924 264.206,302.924 
  "/>
<path clip-path="url(#clip530)" d="M119.136 1272.74 L163.649 1272.74 L163.649 1278.64 L119.136 1278.64 L119.136 1272.74 Z" fill="#000000" fill-rule="evenodd" fill-opacity="1" /><path clip-path="url(#clip530)" d="M184.83 1292.08 L209.309 1292.08 L209.309 1297.98 L176.392 1297.98 L176.392 1292.08 Q180.385 1287.95 187.26 1281 Q194.17 1274.02 195.941 1272.01 Q199.309 1268.22 200.628 1265.62 Q201.982 1262.98 201.982 1260.45 Q201.982 1256.31 199.066 1253.71 Q196.184 1251.11 191.531 1251.11 Q188.233 1251.11 184.552 1252.25 Q180.906 1253.4 176.74 1255.72 L176.74 1248.64 Q180.976 1246.94 184.656 1246.07 Q188.337 1245.2 191.392 1245.2 Q199.448 1245.2 204.239 1249.23 Q209.031 1253.26 209.031 1259.99 Q209.031 1263.19 207.816 1266.07 Q206.635 1268.92 203.476 1272.81 Q202.607 1273.81 197.955 1278.64 Q193.302 1283.43 184.83 1292.08 Z" fill="#000000" fill-rule="evenodd" fill-opacity="1" /><path clip-path="url(#clip530)" d="M118.58 1078.91 L163.094 1078.91 L163.094 1084.81 L118.58 1084.81 L118.58 1078.91 Z" fill="#000000" fill-rule="evenodd" fill-opacity="1" /><path clip-path="url(#clip530)" d="M179.448 1098.25 L190.906 1098.25 L190.906 1058.7 L178.441 1061.2 L178.441 1054.81 L190.837 1052.31 L197.851 1052.31 L197.851 1098.25 L209.309 1098.25 L209.309 1104.15 L179.448 1104.15 L179.448 1098.25 Z" fill="#000000" fill-rule="evenodd" fill-opacity="1" /><path clip-path="url(#clip530)" d="M191.392 863.104 Q185.976 863.104 183.233 868.451 Q180.524 873.763 180.524 884.458 Q180.524 895.117 183.233 900.465 Q185.976 905.777 191.392 905.777 Q196.844 905.777 199.552 900.465 Q202.295 895.117 202.295 884.458 Q202.295 873.763 199.552 868.451 Q196.844 863.104 191.392 863.104 M191.392 857.548 Q200.107 857.548 204.691 864.458 Q209.309 871.333 209.309 884.458 Q209.309 897.548 204.691 904.458 Q200.107 911.333 191.392 911.333 Q182.677 911.333 178.059 904.458 Q173.476 897.548 173.476 884.458 Q173.476 871.333 178.059 864.458 Q182.677 857.548 191.392 857.548 Z" fill="#000000" fill-rule="evenodd" fill-opacity="1" /><path clip-path="url(#clip530)" d="M179.448 710.596 L190.906 710.596 L190.906 671.047 L178.441 673.547 L178.441 667.159 L190.837 664.659 L197.851 664.659 L197.851 710.596 L209.309 710.596 L209.309 716.499 L179.448 716.499 L179.448 710.596 Z" fill="#000000" fill-rule="evenodd" fill-opacity="1" /><path clip-path="url(#clip530)" d="M184.83 516.769 L209.309 516.769 L209.309 522.671 L176.392 522.671 L176.392 516.769 Q180.385 512.637 187.26 505.692 Q194.17 498.713 195.941 496.699 Q199.309 492.915 200.628 490.31 Q201.982 487.672 201.982 485.137 Q201.982 481.005 199.066 478.401 Q196.184 475.797 191.531 475.797 Q188.233 475.797 184.552 476.943 Q180.906 478.088 176.74 480.415 L176.74 473.331 Q180.976 471.63 184.656 470.762 Q188.337 469.894 191.392 469.894 Q199.448 469.894 204.239 473.922 Q209.031 477.949 209.031 484.686 Q209.031 487.88 207.816 490.762 Q206.635 493.609 203.476 497.498 Q202.607 498.505 197.955 503.331 Q193.302 508.123 184.83 516.769 Z" fill="#000000" fill-rule="evenodd" fill-opacity="1" /><path clip-path="url(#clip530)" d="M198.614 300.893 Q203.649 301.969 206.462 305.372 Q209.309 308.775 209.309 313.775 Q209.309 321.449 204.031 325.65 Q198.753 329.851 189.031 329.851 Q185.767 329.851 182.295 329.192 Q178.858 328.567 175.177 327.282 L175.177 320.511 Q178.094 322.212 181.566 323.08 Q185.038 323.949 188.823 323.949 Q195.42 323.949 198.858 321.344 Q202.33 318.74 202.33 313.775 Q202.33 309.192 199.101 306.622 Q195.906 304.018 190.177 304.018 L184.135 304.018 L184.135 298.254 L190.455 298.254 Q195.628 298.254 198.371 296.206 Q201.114 294.122 201.114 290.233 Q201.114 286.24 198.267 284.122 Q195.455 281.97 190.177 281.97 Q187.295 281.97 183.996 282.595 Q180.698 283.22 176.74 284.539 L176.74 278.289 Q180.733 277.178 184.205 276.622 Q187.712 276.067 190.802 276.067 Q198.788 276.067 203.441 279.713 Q208.094 283.324 208.094 289.504 Q208.094 293.81 205.628 296.796 Q203.163 299.747 198.614 300.893 Z" fill="#000000" fill-rule="evenodd" fill-opacity="1" /><path clip-path="url(#clip530)" d="M13.0007 1025.04 L18.3131 1025.04 L18.3131 1031.15 Q18.3131 1034.59 19.702 1035.94 Q21.0909 1037.26 24.702 1037.26 L28.1395 1037.26 L28.1395 1026.74 L33.1047 1026.74 L33.1047 1037.26 L67.0282 1037.26 L67.0282 1043.69 L33.1047 1043.69 L33.1047 1049.8 L28.1395 1049.8 L28.1395 1043.69 L25.4312 1043.69 Q18.9381 1043.69 15.9868 1040.67 Q13.0007 1037.65 13.0007 1031.08 L13.0007 1025.04 Z" fill="#000000" fill-rule="evenodd" fill-opacity="1" /><path clip-path="url(#clip530)" d="M34.1117 997.16 Q33.4867 998.237 33.2089 999.521 Q32.8964 1000.77 32.8964 1002.3 Q32.8964 1007.72 36.438 1010.63 Q39.945 1013.51 46.5422 1013.51 L67.0282 1013.51 L67.0282 1019.94 L28.1395 1019.94 L28.1395 1013.51 L34.1811 1013.51 Q30.6395 1011.5 28.9381 1008.27 Q27.202 1005.04 27.202 1000.42 Q27.202 999.764 27.3061 998.966 Q27.3756 998.167 27.5492 997.195 L34.1117 997.16 Z" fill="#000000" fill-rule="evenodd" fill-opacity="1" /><path clip-path="url(#clip530)" d="M28.1395 990.459 L28.1395 984.07 L67.0282 984.07 L67.0282 990.459 L28.1395 990.459 M13.0007 990.459 L13.0007 984.07 L21.0909 984.07 L21.0909 990.459 L13.0007 990.459 Z" fill="#000000" fill-rule="evenodd" fill-opacity="1" /><path clip-path="url(#clip530)" d="M29.6325 942.716 L35.6047 942.716 Q34.1117 945.424 33.3825 948.167 Q32.6186 950.876 32.6186 953.653 Q32.6186 959.869 36.5769 963.306 Q40.5005 966.744 47.6185 966.744 Q54.7366 966.744 58.6949 963.306 Q62.6185 959.869 62.6185 953.653 Q62.6185 950.876 61.8893 948.167 Q61.1254 945.424 59.6324 942.716 L65.5351 942.716 Q66.7851 945.39 67.4101 948.272 Q68.0351 951.119 68.0351 954.348 Q68.0351 963.133 62.5143 968.306 Q56.9935 973.48 47.6185 973.48 Q38.1047 973.48 32.6533 968.271 Q27.202 963.028 27.202 953.931 Q27.202 950.98 27.827 948.167 Q28.4173 945.355 29.6325 942.716 Z" fill="#000000" fill-rule="evenodd" fill-opacity="1" /><path clip-path="url(#clip530)" d="M17.0979 925.286 L28.1395 925.286 L28.1395 912.126 L33.1047 912.126 L33.1047 925.286 L54.2157 925.286 Q58.9726 925.286 60.3268 924.001 Q61.681 922.681 61.681 918.688 L61.681 912.126 L67.0282 912.126 L67.0282 918.688 Q67.0282 926.084 64.2851 928.897 Q61.5074 931.709 54.2157 931.709 L33.1047 931.709 L33.1047 936.397 L28.1395 936.397 L28.1395 931.709 L17.0979 931.709 L17.0979 925.286 Z" fill="#000000" fill-rule="evenodd" fill-opacity="1" /><path clip-path="url(#clip530)" d="M28.1395 903.723 L28.1395 897.334 L67.0282 897.334 L67.0282 903.723 L28.1395 903.723 M13.0007 903.723 L13.0007 897.334 L21.0909 897.334 L21.0909 903.723 L13.0007 903.723 Z" fill="#000000" fill-rule="evenodd" fill-opacity="1" /><path clip-path="url(#clip530)" d="M32.6186 868.897 Q32.6186 874.036 36.6464 877.022 Q40.6394 880.008 47.6185 880.008 Q54.5977 880.008 58.6254 877.057 Q62.6185 874.071 62.6185 868.897 Q62.6185 863.793 58.5907 860.807 Q54.5629 857.821 47.6185 857.821 Q40.7089 857.821 36.6811 860.807 Q32.6186 863.793 32.6186 868.897 M27.202 868.897 Q27.202 860.564 32.6186 855.807 Q38.0353 851.05 47.6185 851.05 Q57.1671 851.05 62.6185 855.807 Q68.0351 860.564 68.0351 868.897 Q68.0351 877.265 62.6185 882.022 Q57.1671 886.744 47.6185 886.744 Q38.0353 886.744 32.6186 882.022 Q27.202 877.265 27.202 868.897 Z" fill="#000000" fill-rule="evenodd" fill-opacity="1" /><path clip-path="url(#clip530)" d="M43.5561 808.133 L67.0282 808.133 L67.0282 814.522 L43.7644 814.522 Q38.2436 814.522 35.5005 816.675 Q32.7575 818.828 32.7575 823.133 Q32.7575 828.307 36.0561 831.293 Q39.3547 834.279 45.0491 834.279 L67.0282 834.279 L67.0282 840.703 L28.1395 840.703 L28.1395 834.279 L34.1811 834.279 Q30.6742 831.987 28.9381 828.897 Q27.202 825.772 27.202 821.71 Q27.202 815.008 31.3686 811.571 Q35.5005 808.133 43.5561 808.133 Z" fill="#000000" fill-rule="evenodd" fill-opacity="1" /><path clip-path="url(#clip530)" d="M13.0007 753.099 L18.3131 753.099 L18.3131 759.21 Q18.3131 762.648 19.702 764.002 Q21.0909 765.321 24.702 765.321 L28.1395 765.321 L28.1395 754.8 L33.1047 754.8 L33.1047 765.321 L67.0282 765.321 L67.0282 771.745 L33.1047 771.745 L33.1047 777.856 L28.1395 777.856 L28.1395 771.745 L25.4312 771.745 Q18.9381 771.745 15.9868 768.724 Q13.0007 765.703 13.0007 759.141 L13.0007 753.099 Z" fill="#000000" fill-rule="evenodd" fill-opacity="1" /><path clip-path="url(#clip530)" d="M32.6186 732.682 Q32.6186 737.821 36.6464 740.807 Q40.6394 743.793 47.6185 743.793 Q54.5977 743.793 58.6254 740.842 Q62.6185 737.856 62.6185 732.682 Q62.6185 727.578 58.5907 724.592 Q54.5629 721.606 47.6185 721.606 Q40.7089 721.606 36.6811 724.592 Q32.6186 727.578 32.6186 732.682 M27.202 732.682 Q27.202 724.349 32.6186 719.592 Q38.0353 714.835 47.6185 714.835 Q57.1671 714.835 62.6185 719.592 Q68.0351 724.349 68.0351 732.682 Q68.0351 741.05 62.6185 745.807 Q57.1671 750.53 47.6185 750.53 Q38.0353 750.53 32.6186 745.807 Q27.202 741.05 27.202 732.682 Z" fill="#000000" fill-rule="evenodd" fill-opacity="1" /><path clip-path="url(#clip530)" d="M34.1117 681.71 Q33.4867 682.787 33.2089 684.072 Q32.8964 685.322 32.8964 686.849 Q32.8964 692.266 36.438 695.183 Q39.945 698.065 46.5422 698.065 L67.0282 698.065 L67.0282 704.488 L28.1395 704.488 L28.1395 698.065 L34.1811 698.065 Q30.6395 696.051 28.9381 692.821 Q27.202 689.592 27.202 684.974 Q27.202 684.315 27.3061 683.516 Q27.3756 682.717 27.5492 681.745 L34.1117 681.71 Z" fill="#000000" fill-rule="evenodd" fill-opacity="1" /><path clip-path="url(#clip530)" d="M29.6325 648.586 L35.6047 648.586 Q34.1117 651.294 33.3825 654.037 Q32.6186 656.745 32.6186 659.523 Q32.6186 665.738 36.5769 669.176 Q40.5005 672.613 47.6185 672.613 Q54.7366 672.613 58.6949 669.176 Q62.6185 665.738 62.6185 659.523 Q62.6185 656.745 61.8893 654.037 Q61.1254 651.294 59.6324 648.586 L65.5351 648.586 Q66.7851 651.259 67.4101 654.141 Q68.0351 656.988 68.0351 660.218 Q68.0351 669.002 62.5143 674.176 Q56.9935 679.349 47.6185 679.349 Q38.1047 679.349 32.6533 674.141 Q27.202 668.898 27.202 659.801 Q27.202 656.849 27.827 654.037 Q28.4173 651.224 29.6325 648.586 Z" fill="#000000" fill-rule="evenodd" fill-opacity="1" /><path clip-path="url(#clip530)" d="M45.9866 604.211 L49.1116 604.211 L49.1116 633.586 Q55.7088 633.169 59.181 629.627 Q62.6185 626.051 62.6185 619.697 Q62.6185 616.016 61.7157 612.579 Q60.8129 609.107 59.0074 605.704 L65.049 605.704 Q66.5073 609.141 67.2712 612.752 Q68.0351 616.364 68.0351 620.079 Q68.0351 629.384 62.6185 634.836 Q57.2018 640.252 47.9658 640.252 Q38.4172 640.252 32.827 635.113 Q27.202 629.94 27.202 621.19 Q27.202 613.343 32.2714 608.794 Q37.3061 604.211 45.9866 604.211 M44.1116 610.6 Q38.8686 610.669 35.7436 613.551 Q32.6186 616.398 32.6186 621.12 Q32.6186 626.468 35.6394 629.697 Q38.6603 632.891 44.1463 633.377 L44.1116 610.6 Z" fill="#000000" fill-rule="evenodd" fill-opacity="1" /><path clip-path="url(#clip530)" d="M13.0007 571.711 L13.0007 556.989 L17.9659 556.989 L17.9659 565.322 L71.4379 565.322 L71.4379 556.989 L76.4031 556.989 L76.4031 571.711 L13.0007 571.711 Z" fill="#000000" fill-rule="evenodd" fill-opacity="1" /><path clip-path="url(#clip530)" d="M15.1882 543.1 L15.1882 533.656 L58.556 510.67 L15.1882 510.67 L15.1882 503.864 L67.0282 503.864 L67.0282 513.309 L23.6603 536.295 L67.0282 536.295 L67.0282 543.1 L15.1882 543.1 Z" fill="#000000" fill-rule="evenodd" fill-opacity="1" /><path clip-path="url(#clip530)" d="M13.0007 475.253 L76.4031 475.253 L76.4031 489.975 L71.4379 489.975 L71.4379 481.677 L17.9659 481.677 L17.9659 489.975 L13.0007 489.975 L13.0007 475.253 Z" fill="#000000" fill-rule="evenodd" fill-opacity="1" /><path clip-path="url(#clip530)" d="M973.319 12.096 L1008.08 12.096 L1008.08 18.9825 L981.502 18.9825 L981.502 36.8065 L1005.48 36.8065 L1005.48 43.6931 L981.502 43.6931 L981.502 72.576 L973.319 72.576 L973.319 12.096 Z" fill="#000000" fill-rule="evenodd" fill-opacity="1" /><path clip-path="url(#clip530)" d="M1040.97 34.1734 Q1039.71 33.4443 1038.21 33.1202 Q1036.76 32.7556 1034.97 32.7556 Q1028.65 32.7556 1025.25 36.8875 Q1021.89 40.9789 1021.89 48.6757 L1021.89 72.576 L1014.4 72.576 L1014.4 27.2059 L1021.89 27.2059 L1021.89 34.2544 Q1024.24 30.1225 1028.01 28.1376 Q1031.77 26.1121 1037.16 26.1121 Q1037.93 26.1121 1038.86 26.2337 Q1039.79 26.3147 1040.93 26.5172 L1040.97 34.1734 Z" fill="#000000" fill-rule="evenodd" fill-opacity="1" /><path clip-path="url(#clip530)" d="M1048.79 27.2059 L1056.24 27.2059 L1056.24 72.576 L1048.79 72.576 L1048.79 27.2059 M1048.79 9.54393 L1056.24 9.54393 L1056.24 18.9825 L1048.79 18.9825 L1048.79 9.54393 Z" fill="#000000" fill-rule="evenodd" fill-opacity="1" /><path clip-path="url(#clip530)" d="M1104.49 28.9478 L1104.49 35.9153 Q1101.33 34.1734 1098.13 33.3227 Q1094.97 32.4315 1091.73 32.4315 Q1084.48 32.4315 1080.47 37.0496 Q1076.46 41.6271 1076.46 49.9314 Q1076.46 58.2358 1080.47 62.8538 Q1084.48 67.4314 1091.73 67.4314 Q1094.97 67.4314 1098.13 66.5807 Q1101.33 65.6895 1104.49 63.9476 L1104.49 70.8341 Q1101.37 72.2924 1098.01 73.0216 Q1094.68 73.7508 1090.92 73.7508 Q1080.67 73.7508 1074.63 67.3098 Q1068.6 60.8689 1068.6 49.9314 Q1068.6 38.832 1074.67 32.472 Q1080.79 26.1121 1091.4 26.1121 Q1094.85 26.1121 1098.13 26.8413 Q1101.41 27.5299 1104.49 28.9478 Z" fill="#000000" fill-rule="evenodd" fill-opacity="1" /><path clip-path="url(#clip530)" d="M1124.82 14.324 L1124.82 27.2059 L1140.18 27.2059 L1140.18 32.9987 L1124.82 32.9987 L1124.82 57.6282 Q1124.82 63.1779 1126.32 64.7578 Q1127.86 66.3376 1132.52 66.3376 L1140.18 66.3376 L1140.18 72.576 L1132.52 72.576 Q1123.89 72.576 1120.61 69.3758 Q1117.33 66.1351 1117.33 57.6282 L1117.33 32.9987 L1111.86 32.9987 L1111.86 27.2059 L1117.33 27.2059 L1117.33 14.324 L1124.82 14.324 Z" fill="#000000" fill-rule="evenodd" fill-opacity="1" /><path clip-path="url(#clip530)" d="M1149.98 27.2059 L1157.43 27.2059 L1157.43 72.576 L1149.98 72.576 L1149.98 27.2059 M1149.98 9.54393 L1157.43 9.54393 L1157.43 18.9825 L1149.98 18.9825 L1149.98 9.54393 Z" fill="#000000" fill-rule="evenodd" fill-opacity="1" /><path clip-path="url(#clip530)" d="M1190.61 32.4315 Q1184.61 32.4315 1181.13 37.1306 Q1177.65 41.7891 1177.65 49.9314 Q1177.65 58.0738 1181.09 62.7728 Q1184.57 67.4314 1190.61 67.4314 Q1196.56 67.4314 1200.05 62.7323 Q1203.53 58.0333 1203.53 49.9314 Q1203.53 41.8701 1200.05 37.1711 Q1196.56 32.4315 1190.61 32.4315 M1190.61 26.1121 Q1200.33 26.1121 1205.88 32.4315 Q1211.43 38.7509 1211.43 49.9314 Q1211.43 61.0714 1205.88 67.4314 Q1200.33 73.7508 1190.61 73.7508 Q1180.85 73.7508 1175.3 67.4314 Q1169.79 61.0714 1169.79 49.9314 Q1169.79 38.7509 1175.3 32.4315 Q1180.85 26.1121 1190.61 26.1121 Z" fill="#000000" fill-rule="evenodd" fill-opacity="1" /><path clip-path="url(#clip530)" d="M1261.5 45.1919 L1261.5 72.576 L1254.05 72.576 L1254.05 45.4349 Q1254.05 38.994 1251.54 35.7938 Q1249.02 32.5936 1244 32.5936 Q1237.96 32.5936 1234.48 36.4419 Q1231 40.2903 1231 46.9338 L1231 72.576 L1223.5 72.576 L1223.5 27.2059 L1231 27.2059 L1231 34.2544 Q1233.67 30.163 1237.28 28.1376 Q1240.92 26.1121 1245.66 26.1121 Q1253.48 26.1121 1257.49 30.9732 Q1261.5 35.7938 1261.5 45.1919 Z" fill="#000000" fill-rule="evenodd" fill-opacity="1" /><path clip-path="url(#clip530)" d="M1338.06 35.9153 Q1340.86 30.8922 1344.75 28.5022 Q1348.64 26.1121 1353.9 26.1121 Q1360.99 26.1121 1364.84 31.0947 Q1368.69 36.0368 1368.69 45.1919 L1368.69 72.576 L1361.19 72.576 L1361.19 45.4349 Q1361.19 38.913 1358.88 35.7533 Q1356.58 32.5936 1351.84 32.5936 Q1346.04 32.5936 1342.68 36.4419 Q1339.32 40.2903 1339.32 46.9338 L1339.32 72.576 L1331.82 72.576 L1331.82 45.4349 Q1331.82 38.8725 1329.52 35.7533 Q1327.21 32.5936 1322.39 32.5936 Q1316.67 32.5936 1313.31 36.4824 Q1309.95 40.3308 1309.95 46.9338 L1309.95 72.576 L1302.46 72.576 L1302.46 27.2059 L1309.95 27.2059 L1309.95 34.2544 Q1312.5 30.082 1316.07 28.0971 Q1319.63 26.1121 1324.53 26.1121 Q1329.47 26.1121 1332.92 28.6237 Q1336.4 31.1352 1338.06 35.9153 Z" fill="#000000" fill-rule="evenodd" fill-opacity="1" /><path clip-path="url(#clip530)" d="M1401.14 32.4315 Q1395.14 32.4315 1391.66 37.1306 Q1388.17 41.7891 1388.17 49.9314 Q1388.17 58.0738 1391.62 62.7728 Q1395.1 67.4314 1401.14 67.4314 Q1407.09 67.4314 1410.57 62.7323 Q1414.06 58.0333 1414.06 49.9314 Q1414.06 41.8701 1410.57 37.1711 Q1407.09 32.4315 1401.14 32.4315 M1401.14 26.1121 Q1410.86 26.1121 1416.41 32.4315 Q1421.96 38.7509 1421.96 49.9314 Q1421.96 61.0714 1416.41 67.4314 Q1410.86 73.7508 1401.14 73.7508 Q1391.37 73.7508 1385.82 67.4314 Q1380.31 61.0714 1380.31 49.9314 Q1380.31 38.7509 1385.82 32.4315 Q1391.37 26.1121 1401.14 26.1121 Z" fill="#000000" fill-rule="evenodd" fill-opacity="1" /><path clip-path="url(#clip530)" d="M1464.17 34.0924 L1464.17 9.54393 L1471.62 9.54393 L1471.62 72.576 L1464.17 72.576 L1464.17 65.7705 Q1461.82 69.8214 1458.21 71.8063 Q1454.65 73.7508 1449.62 73.7508 Q1441.4 73.7508 1436.22 67.1883 Q1431.07 60.6258 1431.07 49.9314 Q1431.07 39.2371 1436.22 32.6746 Q1441.4 26.1121 1449.62 26.1121 Q1454.65 26.1121 1458.21 28.0971 Q1461.82 30.0415 1464.17 34.0924 M1438.77 49.9314 Q1438.77 58.1548 1442.13 62.8538 Q1445.53 67.5124 1451.45 67.5124 Q1457.36 67.5124 1460.76 62.8538 Q1464.17 58.1548 1464.17 49.9314 Q1464.17 41.7081 1460.76 37.0496 Q1457.36 32.3505 1451.45 32.3505 Q1445.53 32.3505 1442.13 37.0496 Q1438.77 41.7081 1438.77 49.9314 Z" fill="#000000" fill-rule="evenodd" fill-opacity="1" /><path clip-path="url(#clip530)" d="M1525.78 48.0275 L1525.78 51.6733 L1491.51 51.6733 Q1492 59.3701 1496.13 63.421 Q1500.3 67.4314 1507.71 67.4314 Q1512.01 67.4314 1516.02 66.3781 Q1520.07 65.3249 1524.04 63.2184 L1524.04 70.267 Q1520.03 71.9684 1515.82 72.8596 Q1511.6 73.7508 1507.27 73.7508 Q1496.41 73.7508 1490.05 67.4314 Q1483.73 61.1119 1483.73 50.3365 Q1483.73 39.1965 1489.73 32.6746 Q1495.76 26.1121 1505.97 26.1121 Q1515.13 26.1121 1520.43 32.0264 Q1525.78 37.9003 1525.78 48.0275 M1518.33 45.84 Q1518.25 39.7232 1514.88 36.0774 Q1511.56 32.4315 1506.05 32.4315 Q1499.82 32.4315 1496.05 35.9558 Q1492.32 39.4801 1491.75 45.8805 L1518.33 45.84 Z" fill="#000000" fill-rule="evenodd" fill-opacity="1" /><path clip-path="url(#clip530)" d="M1538.02 9.54393 L1545.47 9.54393 L1545.47 72.576 L1538.02 72.576 L1538.02 9.54393 Z" fill="#000000" fill-rule="evenodd" fill-opacity="1" /><path clip-path="url(#clip530)" d="M1589.91 65.6895 L1603.28 65.6895 L1603.28 19.5497 L1588.73 22.4663 L1588.73 15.0127 L1603.19 12.096 L1611.38 12.096 L1611.38 65.6895 L1624.75 65.6895 L1624.75 72.576 L1589.91 72.576 L1589.91 65.6895 Z" fill="#000000" fill-rule="evenodd" fill-opacity="1" /><polyline clip-path="url(#clip532)" style="stroke:#009af9; stroke-linecap:round; stroke-linejoin:round; stroke-width:8; stroke-opacity:1; fill:none" points="
  1299.03,884.406 1335.02,884.406 1371.26,884.406 1407.71,884.406 1444.3,884.406 1480.98,884.406 1517.72,884.406 1554.42,884.406 1591.06,884.406 1627.57,884.406 
  1663.92,884.406 1700.04,884.406 1735.89,884.406 1771.42,884.406 1806.58,884.406 1841.33,884.406 1875.61,884.406 1909.39,884.406 1942.62,884.406 1975.27,884.406 
  2007.29,884.406 2038.64,884.406 2069.3,884.406 2099.22,884.406 2128.36,884.406 2156.71,884.406 2184.24,884.406 2210.91,884.406 2236.69,884.406 2261.54,884.406 
  2285.44,884.406 2308.34,884.406 2330.29,884.406 2351.22,884.406 2371.1,884.406 2389.91,884.406 2407.62,884.406 2424.21,884.406 2439.69,884.406 2454.04,884.406 
  2467.24,884.406 2479.27,884.406 2490.11,884.406 2499.76,884.406 2508.2,884.406 2515.44,884.406 2521.46,884.406 2526.25,884.406 2529.82,884.406 2532.15,884.406 
  2533.24,884.406 2533.1,884.406 2531.72,884.406 2529.11,884.406 2525.26,884.406 2520.19,884.406 2513.89,884.406 2506.38,884.406 2497.66,884.406 2487.74,884.406 
  2476.62,884.406 2464.33,884.406 2450.87,884.406 2436.26,884.406 2420.51,884.406 2403.62,884.406 2385.63,884.406 2366.55,884.406 2346.39,884.406 2325.18,884.406 
  2302.94,884.406 2279.68,884.406 2255.42,884.406 2230.19,884.406 2204.02,884.406 2176.92,884.406 2148.93,884.406 2120.07,884.406 2090.34,884.406 2059.8,884.406 
  2028.45,884.406 1996.34,884.406 1963.48,884.406 1929.92,884.406 1895.65,884.406 1860.71,884.406 1825.13,884.406 1788.94,884.406 1752.17,884.406 1714.84,884.406 
  1676.98,884.406 1638.58,884.406 1599.67,884.406 1560.29,884.406 1520.46,884.406 1480.21,884.406 1439.54,884.406 1398.5,884.406 1357.09,884.406 1315.35,884.406 
  1280.89,884.406 1251.04,884.406 1221,884.406 1190.81,884.406 1160.52,884.406 1130.16,884.406 1099.79,884.406 1069.43,884.406 1039.14,884.406 1008.95,884.406 
  978.914,884.406 949.068,884.406 919.455,884.406 890.112,884.406 861.067,884.406 832.368,884.406 804.056,884.406 776.172,884.406 748.743,884.406 721.777,884.406 
  695.334,884.406 669.449,884.406 644.159,884.406 619.491,884.406 595.433,884.406 572.045,884.406 549.36,884.406 527.407,884.406 506.212,884.406 485.757,884.406 
  466.095,884.406 447.254,884.406 429.26,884.406 412.137,884.406 395.854,884.406 380.463,884.406 365.985,884.406 352.442,884.406 339.854,884.406 328.188,884.406 
  317.484,884.406 307.76,884.406 299.032,884.406 291.317,884.406 284.582,884.406 278.851,884.406 274.141,884.406 270.463,884.406 267.828,884.406 266.207,884.406 
  265.604,884.406 266.039,884.406 267.515,884.406 270.038,884.406 273.581,884.406 278.134,884.406 283.712,884.406 290.317,884.406 297.948,884.406 306.578,884.406 
  316.186,884.406 326.784,884.406 338.368,884.406 350.931,884.406 364.451,884.406 378.893,884.406 394.267,884.406 410.564,884.406 427.773,884.406 445.872,884.406 
  464.819,884.406 484.62,884.406 505.261,884.406 526.727,884.406 548.998,884.406 572.029,884.406 595.819,884.406 620.351,884.406 645.607,884.406 671.568,884.406 
  698.19,884.406 725.467,884.406 753.379,884.406 781.906,884.406 811.027,884.406 840.711,884.406 870.944,884.406 901.703,884.406 932.967,884.406 964.716,884.406 
  996.939,884.406 1029.61,884.406 1062.71,884.406 1096.22,884.406 1130.12,884.406 1164.37,884.406 1198.93,884.406 1233.8,884.406 1268.95,884.406 1302.52,884.406 
  1325.84,884.406 1349.32,884.406 1372.93,884.406 1396.63,884.406 1420.42,884.406 1444.24,884.406 1468.08,884.406 1491.89,884.406 1515.65,884.406 1539.33,884.406 
  1562.88,884.406 1586.29,884.406 1609.53,884.406 1632.55,884.406 1655.35,884.406 1677.88,884.406 1700.11,884.406 1722.02,884.406 1743.58,884.406 1764.75,884.406 
  1785.53,884.406 1805.88,884.406 1825.77,884.406 1845.18,884.406 1864.09,884.406 1882.48,884.406 1900.33,884.406 1917.61,884.406 1934.3,884.406 1950.38,884.406 
  1965.84,884.406 1980.67,884.406 1994.82,884.406 2008.29,884.406 2021.09,884.406 2033.19,884.406 2044.55,884.406 2055.18,884.406 2065.08,884.406 2074.24,884.406 
  2082.63,884.406 2090.26,884.406 2097.1,884.406 2103.14,884.406 2108.38,884.406 2112.79,884.406 2116.43,884.406 2119.26,884.406 2121.28,884.406 2122.47,884.406 
  2122.83,884.406 2122.36,884.406 2121.05,884.406 2118.91,884.406 2115.97,884.406 2112.21,884.406 2107.63,884.406 2102.23,884.406 2096.02,884.406 2089,884.406 
  2081.18,884.406 2072.56,884.406 2063.16,884.406 2052.98,884.406 2042.03,884.406 2030.32,884.406 2017.87,884.406 2004.67,884.406 1990.75,884.406 1976.11,884.406 
  1960.77,884.406 1944.73,884.406 1928.02,884.406 1910.66,884.406 1892.65,884.406 1874.01,884.406 1854.76,884.406 1834.89,884.406 1814.44,884.406 1793.43,884.406 
  1771.86,884.406 1749.76,884.406 1727.15,884.406 1704.05,884.406 1680.45,884.406 1656.38,884.406 1631.85,884.406 1606.89,884.406 1581.51,884.406 1555.74,884.406 
  1529.59,884.406 1503.08,884.406 1476.23,884.406 1449.05,884.406 1421.56,884.406 1393.79,884.406 1365.75,884.406 1337.46,884.406 1308.95,884.406 1288.31,884.406 
  1271.83,884.406 1255.25,884.406 1238.58,884.406 1221.83,884.406 1205.05,884.406 1188.22,884.406 1171.39,884.406 1154.58,884.406 1137.8,884.406 1121.07,884.406 
  1104.42,884.406 1087.86,884.406 1071.41,884.406 1055.1,884.406 1038.96,884.406 1022.99,884.406 1007.21,884.406 991.665,884.406 976.351,884.406 961.287,884.406 
  946.498,884.406 932.004,884.406 917.825,884.406 903.983,884.406 890.487,884.406 877.334,884.406 864.56,884.406 852.182,884.406 840.219,884.406 828.689,884.406 
  817.603,884.406 806.939,884.406 796.737,884.406 787.014,884.406 777.783,884.406 769.06,884.406 760.858,884.406 753.142,884.406 745.953,884.406 739.303,884.406 
  733.204,884.406 727.668,884.406 722.705,884.406 718.28,884.406 714.42,884.406 711.139,884.406 708.445,884.406 706.345,884.406 704.849,884.406 703.924,884.406 
  703.58,884.406 703.832,884.406 704.686,884.406 706.145,884.406 708.213,884.406 710.867,884.406 714.095,884.406 717.916,884.406 722.332,884.406 727.343,884.406 
  732.948,884.406 739.131,884.406 745.864,884.406 753.167,884.406 761.037,884.406 769.472,884.406 778.468,884.406 788.013,884.406 798.068,884.406 808.652,884.406 
  819.758,884.406 831.382,884.406 843.516,884.406 856.152,884.406 869.246,884.406 882.814,884.406 896.845,884.406 911.333,884.406 926.267,884.406 941.639,884.406 
  957.413,884.406 973.592,884.406 990.167,884.406 1007.13,884.406 1024.46,884.406 1042.16,884.406 1060.2,884.406 1078.58,884.406 1097.28,884.406 1116.29,884.406 
  1135.6,884.406 1155.2,884.406 1175.08,884.406 1195.22,884.406 1215.62,884.406 1236.26,884.406 1257.14,884.406 1278.23,884.406 1299.21,884.406 1308.01,884.406 
  1316.88,884.406 
  "/>
<polyline clip-path="url(#clip532)" style="stroke:#e26f46; stroke-linecap:round; stroke-linejoin:round; stroke-width:8; stroke-opacity:1; fill:none" points="
  1299.03,739.035 1335.02,746.553 1371.26,753.467 1407.71,759.813 1444.3,765.618 1480.98,770.92 1517.72,775.751 1554.42,780.139 1591.06,784.12 1627.57,787.722 
  1663.92,790.977 1700.04,793.911 1735.89,796.551 1771.42,798.921 1806.58,801.046 1841.33,802.946 1875.61,804.643 1909.39,806.155 1942.62,807.5 1975.27,808.694 
  2007.29,809.751 2038.64,810.685 2069.3,811.508 2099.22,812.232 2128.36,812.867 2156.71,813.422 2184.24,813.907 2210.91,814.328 2236.69,814.692 2261.54,815.006 
  2285.44,815.276 2308.34,815.506 2330.29,815.702 2351.22,815.868 2371.1,816.007 2389.91,816.124 2407.62,816.22 2424.21,816.299 2439.69,816.363 2454.04,816.414 
  2467.24,816.456 2479.27,816.488 2490.11,816.513 2499.76,816.532 2508.2,816.546 2515.44,816.557 2521.46,816.564 2526.25,816.569 2529.82,816.573 2532.15,816.575 
  2533.24,816.576 2533.1,816.575 2531.72,816.574 2529.11,816.572 2525.26,816.568 2520.19,816.563 2513.89,816.554 2506.38,816.543 2497.66,816.528 2487.74,816.508 
  2476.62,816.481 2464.33,816.447 2450.87,816.404 2436.26,816.349 2420.51,816.282 2403.62,816.199 2385.63,816.098 2366.55,815.977 2346.39,815.832 2325.18,815.659 
  2302.94,815.454 2279.68,815.214 2255.42,814.932 2230.19,814.604 2204.02,814.223 2176.92,813.783 2148.93,813.276 2120.07,812.693 2090.34,812.025 2059.8,811.262 
  2028.45,810.392 1996.34,809.401 1963.48,808.277 1929.92,807.002 1895.65,805.559 1860.71,803.927 1825.13,802.084 1788.94,800.006 1752.17,797.666 1714.84,795.032 
  1676.98,792.071 1638.58,788.741 1599.67,785.001 1560.29,780.803 1520.46,776.094 1480.21,770.813 1439.54,764.894 1398.5,758.264 1357.09,750.839 1315.35,742.527 
  1280.89,1025.9 1251.04,1019.9 1221,1014.29 1190.81,1009.08 1160.52,1004.22 1130.16,999.725 1099.79,995.56 1069.43,991.711 1039.14,988.162 1008.95,984.893 
  978.914,981.889 949.068,979.132 919.455,976.606 890.112,974.295 861.067,972.183 832.368,970.256 804.056,968.501 776.172,966.905 748.743,965.454 721.777,964.136 
  695.334,962.942 669.449,961.861 644.159,960.885 619.491,960.003 595.433,959.208 572.045,958.491 549.36,957.847 527.407,957.269 506.212,956.75 485.757,956.286 
  466.095,955.87 447.254,955.5 429.26,955.17 412.137,954.877 395.854,954.616 380.463,954.385 365.985,954.182 352.442,954.002 339.854,953.845 328.188,953.708 
  317.484,953.588 307.76,953.484 299.032,953.396 291.317,953.32 284.582,953.257 278.851,953.205 274.141,953.164 270.463,953.132 267.828,953.109 266.207,953.096 
  265.604,953.091 266.039,953.094 267.515,953.107 270.038,953.128 273.581,953.159 278.134,953.199 283.712,953.249 290.317,953.311 297.948,953.385 306.578,953.472 
  316.186,953.574 326.784,953.692 338.368,953.827 350.931,953.983 364.451,954.161 378.893,954.363 394.267,954.592 410.564,954.851 427.773,955.144 445.872,955.474 
  464.819,955.844 484.62,956.261 505.261,956.728 526.727,957.251 548.998,957.837 572.029,958.491 595.819,959.22 620.351,960.033 645.607,960.939 671.568,961.947 
  698.19,963.066 725.467,964.31 753.379,965.691 781.906,967.223 811.027,968.92 840.711,970.801 870.944,972.883 901.703,975.186 932.967,977.734 964.716,980.55 
  996.939,983.663 1029.61,987.102 1062.71,990.9 1096.22,995.092 1130.12,999.719 1164.37,1004.82 1198.93,1010.44 1233.8,1016.63 1268.95,1023.45 1302.52,739.793 
  1325.84,744.7 1349.32,749.357 1372.93,753.771 1396.63,757.946 1420.42,761.892 1444.24,765.61 1468.08,769.112 1491.89,772.403 1515.65,775.491 1539.33,778.386 
  1562.88,781.093 1586.29,783.623 1609.53,785.986 1632.55,788.188 1655.35,790.238 1677.88,792.145 1700.11,793.916 1722.02,795.56 1743.58,797.083 1764.75,798.494 
  1785.53,799.799 1805.88,801.005 1825.77,802.119 1845.18,803.146 1864.09,804.092 1882.48,804.963 1900.33,805.765 1917.61,806.501 1934.3,807.176 1950.38,807.795 
  1965.84,808.362 1980.67,808.88 1994.82,809.352 2008.29,809.782 2021.09,810.174 2033.19,810.529 2044.55,810.85 2055.18,811.14 2065.08,811.4 2074.24,811.633 
  2082.63,811.84 2090.26,812.023 2097.1,812.183 2103.14,812.321 2108.38,812.439 2112.79,812.536 2116.43,812.615 2119.26,812.676 2121.28,812.719 2122.47,812.744 
  2122.83,812.752 2122.36,812.742 2121.05,812.714 2118.91,812.668 2115.97,812.605 2112.21,812.523 2107.63,812.422 2102.23,812.301 2096.02,812.158 2089,811.993 
  2081.18,811.805 2072.56,811.591 2063.16,811.35 2052.98,811.081 2042.03,810.78 2030.32,810.446 2017.87,810.077 2004.67,809.668 1990.75,809.218 1976.11,808.723 
  1960.77,808.179 1944.73,807.581 1928.02,806.926 1910.66,806.209 1892.65,805.425 1874.01,804.568 1854.76,803.632 1834.89,802.609 1814.44,801.493 1793.43,800.275 
  1771.86,798.949 1749.76,797.504 1727.15,795.931 1704.05,794.219 1680.45,792.356 1656.38,790.328 1631.85,788.122 1606.89,785.725 1581.51,783.12 1555.74,780.29 
  1529.59,777.217 1503.08,773.881 1476.23,770.261 1449.05,766.333 1421.56,762.074 1393.79,757.458 1365.75,752.456 1337.46,747.039 1308.95,741.175 1288.31,1027.47 
  1271.83,1024.03 1255.25,1020.72 1238.58,1017.52 1221.83,1014.44 1205.05,1011.49 1188.22,1008.65 1171.39,1005.92 1154.58,1003.32 1137.8,1000.82 1121.07,998.443 
  1104.42,996.174 1087.86,994.011 1071.41,991.953 1055.1,989.998 1038.96,988.141 1022.99,986.38 1007.21,984.713 991.665,983.135 976.351,981.643 961.287,980.234 
  946.498,978.905 932.004,977.652 917.825,976.473 903.983,975.365 890.487,974.324 877.334,973.345 864.56,972.428 852.182,971.57 840.219,970.768 828.689,970.02 
  817.603,969.324 806.939,968.674 796.737,968.07 787.014,967.51 777.783,966.993 769.06,966.517 760.858,966.08 753.142,965.679 745.953,965.313 739.303,964.981 
  733.204,964.682 727.668,964.415 722.705,964.18 718.28,963.973 714.42,963.794 711.139,963.644 708.445,963.522 706.345,963.428 704.849,963.361 703.924,963.32 
  703.58,963.304 703.832,963.315 704.686,963.354 706.145,963.419 708.213,963.512 710.867,963.632 714.095,963.779 717.916,963.956 722.332,964.162 727.343,964.4 
  732.948,964.669 739.131,964.972 745.864,965.308 753.167,965.68 761.037,966.09 769.472,966.54 778.468,967.031 788.013,967.567 798.068,968.147 808.652,968.777 
  819.758,969.457 831.382,970.193 843.516,970.987 856.152,971.842 869.246,972.761 882.814,973.749 896.845,974.809 911.333,975.948 926.267,977.17 941.639,978.479 
  957.413,979.881 973.592,981.381 990.167,982.986 1007.13,984.704 1024.46,986.54 1042.16,988.503 1060.2,990.6 1078.58,992.839 1097.28,995.23 1116.29,997.782 
  1135.6,1000.5 1155.2,1003.41 1175.08,1006.51 1195.22,1009.81 1215.62,1013.33 1236.26,1017.09 1257.14,1021.09 1278.23,1025.35 1299.21,739.073 1308.01,740.975 
  1316.88,742.849 
  "/>
<polyline clip-path="url(#clip532)" style="stroke:#008000; stroke-linecap:round; stroke-linejoin:round; stroke-width:8; stroke-opacity:1; fill:none" stroke-dasharray="4, 8" points="
  1299.03,634.546 1335.02,655.215 1371.26,676.239 1407.71,697.592 1444.3,719.216 1480.98,741.08 1517.72,763.138 1554.42,785.325 1591.06,807.61 1627.57,829.933 
  1663.92,852.258 1700.04,874.522 1735.89,896.681 1771.42,918.683 1806.58,940.478 1841.33,962.025 1875.61,983.274 1909.39,1004.18 1942.62,1024.7 1975.27,1044.81 
  2007.29,1064.46 2038.64,1083.61 2069.3,1102.26 2099.22,1120.35 2128.36,1137.87 2156.71,1154.81 2184.24,1171.15 2210.91,1186.86 2236.69,1201.93 2261.54,1216.35 
  2285.44,1230.11 2308.34,1243.19 2330.29,1255.63 2351.22,1267.39 2371.1,1278.48 2389.91,1288.89 2407.62,1298.61 2424.21,1307.66 2439.69,1316.04 2454.04,1323.76 
  2467.24,1330.81 2479.27,1337.2 2490.11,1342.93 2499.76,1348 2508.2,1352.41 2515.44,1356.19 2521.46,1359.31 2526.25,1361.8 2529.82,1363.64 2532.15,1364.84 
  2533.24,1365.41 2533.1,1365.33 2531.72,1364.62 2529.11,1363.27 2525.26,1361.28 2520.19,1358.65 2513.89,1355.38 2506.38,1351.46 2497.66,1346.89 2487.74,1341.67 
  2476.62,1335.8 2464.33,1329.26 2450.87,1322.06 2436.26,1314.19 2420.51,1305.65 2403.62,1296.43 2385.63,1286.53 2366.55,1275.95 2346.39,1264.69 2325.18,1252.74 
  2302.94,1240.12 2279.68,1226.8 2255.42,1212.81 2230.19,1198.14 2204.02,1182.81 2176.92,1166.82 2148.93,1150.18 2120.07,1132.9 2090.34,1115 2059.8,1096.49 
  2028.45,1077.4 1996.34,1057.75 1963.48,1037.56 1929.92,1016.86 1895.65,995.681 1860.71,974.041 1825.13,951.983 1788.94,929.542 1752.17,906.757 1714.84,883.666 
  1676.98,860.303 1638.58,836.685 1599.67,812.868 1560.29,788.89 1520.46,764.792 1480.21,740.614 1439.54,716.396 1398.5,692.177 1357.09,667.995 1315.35,643.889 
  1280.89,624.209 1251.04,607.33 1221,590.508 1190.81,573.773 1160.52,557.155 1130.16,540.685 1099.79,524.395 1069.43,508.305 1039.14,492.446 1008.95,476.838 
  978.914,461.508 949.068,446.475 919.455,431.758 890.112,417.374 861.067,403.331 832.368,389.65 804.056,376.342 776.172,363.421 748.743,350.891 721.777,338.747 
  695.334,327.008 669.449,315.679 644.159,304.766 619.491,294.27 595.433,284.174 572.045,274.493 549.36,265.228 527.407,256.38 506.212,247.947 485.757,239.909 
  466.095,232.278 447.254,225.051 429.26,218.228 412.137,211.806 395.854,205.763 380.463,200.108 365.985,194.84 352.442,189.955 339.854,185.454 328.188,181.315 
  317.484,177.545 307.76,174.143 299.032,171.108 291.317,168.439 284.582,166.121 278.851,164.157 274.141,162.548 270.463,161.295 267.828,160.4 266.207,159.849 
  265.604,159.645 266.039,159.792 267.515,160.293 270.038,161.151 273.581,162.357 278.134,163.912 283.712,165.823 290.317,168.095 297.948,170.732 306.578,173.731 
  316.186,177.089 326.784,180.819 338.368,184.925 350.931,189.413 364.451,194.284 378.893,199.534 394.267,205.177 410.564,211.219 427.773,217.667 445.872,224.524 
  464.819,231.786 484.62,239.466 505.261,247.571 526.727,256.108 548.998,265.082 572.029,274.486 595.819,284.335 620.351,294.633 645.607,305.387 671.568,316.6 
  698.19,328.268 725.467,340.398 753.379,352.996 781.906,366.063 811.027,379.601 840.711,393.607 870.944,408.084 901.703,423.032 932.967,438.449 964.716,454.332 
  996.939,470.684 1029.61,487.499 1062.71,504.772 1096.22,522.497 1130.12,540.665 1164.37,559.255 1198.93,578.255 1233.8,597.656 1268.95,617.442 1302.52,636.539 
  1325.84,649.924 1349.32,663.486 1372.93,677.214 1396.63,691.083 1420.42,705.085 1444.24,719.184 1468.08,733.371 1491.89,747.614 1515.65,761.892 1539.33,776.188 
  1562.88,790.46 1586.29,804.702 1609.53,818.89 1632.55,832.991 1655.35,846.988 1677.88,860.854 1700.11,874.566 1722.02,888.101 1743.58,901.437 1764.75,914.551 
  1785.53,927.426 1805.88,940.044 1825.77,952.381 1845.18,964.417 1864.09,976.134 1882.48,987.53 1900.33,998.578 1917.61,1009.26 1934.3,1019.57 1950.38,1029.49 
  1965.84,1039.01 1980.67,1048.13 1994.82,1056.82 2008.29,1065.07 2021.09,1072.9 2033.19,1080.29 2044.55,1087.22 2055.18,1093.69 2065.08,1099.7 2074.24,1105.25 
  2082.63,1110.34 2090.26,1114.95 2097.1,1119.08 2103.14,1122.72 2108.38,1125.87 2112.79,1128.53 2116.43,1130.71 2119.26,1132.42 2121.28,1133.63 2122.47,1134.34 
  2122.83,1134.56 2122.36,1134.28 2121.05,1133.49 2118.91,1132.21 2115.97,1130.44 2112.21,1128.18 2107.63,1125.42 2102.23,1122.17 2096.02,1118.43 2089,1114.19 
  2081.18,1109.46 2072.56,1104.24 2063.16,1098.53 2052.98,1092.35 2042.03,1085.68 2030.32,1078.54 2017.87,1070.93 2004.67,1062.85 1990.75,1054.32 1976.11,1045.33 
  1960.77,1035.89 1944.73,1026.01 1928.02,1015.69 1910.66,1004.96 1892.65,993.821 1874.01,982.281 1854.76,970.353 1834.89,958.037 1814.44,945.356 1793.43,932.324 
  1771.86,918.955 1749.76,905.266 1727.15,891.274 1704.05,876.996 1680.45,862.442 1656.38,847.62 1631.85,832.559 1606.89,817.278 1581.51,801.794 1555.74,786.128 
  1529.59,770.3 1503.08,754.331 1476.23,738.236 1449.05,722.037 1421.56,705.756 1393.79,689.414 1365.75,673.03 1337.46,656.626 1308.95,640.221 1288.31,628.432 
  1271.83,619.069 1255.25,609.7 1238.58,600.331 1221.83,590.973 1205.05,581.641 1188.22,572.344 1171.39,563.098 1154.58,553.917 1137.8,544.813 1121.07,535.788 
  1104.42,526.865 1087.86,518.049 1071.41,509.349 1055.1,500.781 1038.96,492.351 1022.99,484.07 1007.21,475.947 991.665,467.991 976.351,460.209 961.287,452.605 
  946.498,445.19 932.004,437.97 917.825,430.954 903.983,424.149 890.487,417.556 877.334,411.172 864.56,405.009 852.182,399.075 840.219,393.373 828.689,387.91 
  817.603,382.686 806.939,377.688 796.737,372.932 787.014,368.423 777.783,364.162 769.06,360.154 760.858,356.403 753.142,352.888 745.953,349.626 739.303,346.62 
  733.204,343.872 727.668,341.385 722.705,339.162 718.28,337.185 714.42,335.464 711.139,334.004 708.445,332.807 706.345,331.876 704.849,331.213 703.924,330.803 
  703.58,330.65 703.832,330.762 704.686,331.14 706.145,331.787 708.213,332.705 710.867,333.883 714.095,335.319 717.916,337.023 722.332,338.995 727.343,341.239 
  732.948,343.757 739.131,346.542 745.864,349.586 753.167,352.899 761.037,356.485 769.472,360.343 778.468,364.478 788.013,368.885 798.068,373.551 808.652,378.489 
  819.758,383.699 831.382,389.183 843.516,394.941 856.152,400.975 869.246,407.266 882.814,413.827 896.845,420.657 911.333,427.757 926.267,435.126 941.639,442.764 
  957.413,450.658 973.592,458.813 990.167,467.228 1007.13,475.902 1024.46,484.834 1042.16,494.02 1060.2,503.454 1078.58,513.133 1097.28,523.057 1116.29,533.221 
  1135.6,543.621 1155.2,554.255 1175.08,565.118 1195.22,576.205 1215.62,587.513 1236.26,599.035 1257.14,610.767 1278.23,622.702 1299.21,634.646 1308.01,639.684 
  1316.88,644.771 
  "/>
<path clip-path="url(#clip530)" d="
M1413.49 477.116 L2282.51 477.116 L2282.51 166.076 L1413.49 166.076  Z
  " fill="#ffffff" fill-rule="evenodd" fill-opacity="1"/>
<polyline clip-path="url(#clip530)" style="stroke:#000000; stroke-linecap:round; stroke-linejoin:round; stroke-width:4; stroke-opacity:1; fill:none" points="
  1413.49,477.116 2282.51,477.116 2282.51,166.076 1413.49,166.076 1413.49,477.116 
  "/>
<polyline clip-path="url(#clip530)" style="stroke:#009af9; stroke-linecap:round; stroke-linejoin:round; stroke-width:6; stroke-opacity:1; fill:none" points="
  1436.91,243.836 1577.4,243.836 
  "/>
<path clip-path="url(#clip530)" d="M1634.19 219.617 L1634.19 226.457 Q1630.19 224.548 1626.65 223.61 Q1623.11 222.673 1619.81 222.673 Q1614.08 222.673 1610.96 224.895 Q1607.87 227.117 1607.87 231.214 Q1607.87 234.652 1609.91 236.423 Q1612 238.159 1617.76 239.235 L1622 240.103 Q1629.85 241.596 1633.56 245.381 Q1637.31 249.131 1637.31 255.45 Q1637.31 262.985 1632.24 266.874 Q1627.21 270.763 1617.45 270.763 Q1613.77 270.763 1609.6 269.929 Q1605.47 269.096 1601.03 267.464 L1601.03 260.242 Q1605.3 262.638 1609.39 263.853 Q1613.49 265.068 1617.45 265.068 Q1623.46 265.068 1626.72 262.707 Q1629.98 260.346 1629.98 255.971 Q1629.98 252.152 1627.62 249.999 Q1625.3 247.846 1619.95 246.77 L1615.68 245.936 Q1607.83 244.374 1604.32 241.041 Q1600.82 237.707 1600.82 231.77 Q1600.82 224.895 1605.64 220.937 Q1610.51 216.978 1619.01 216.978 Q1622.66 216.978 1626.44 217.638 Q1630.23 218.298 1634.19 219.617 Z" fill="#000000" fill-rule="evenodd" fill-opacity="1" /><path clip-path="url(#clip530)" d="M1647.97 230.867 L1654.36 230.867 L1654.36 269.756 L1647.97 269.756 L1647.97 230.867 M1647.97 215.728 L1654.36 215.728 L1654.36 223.818 L1647.97 223.818 L1647.97 215.728 Z" fill="#000000" fill-rule="evenodd" fill-opacity="1" /><path clip-path="url(#clip530)" d="M1698 238.332 Q1700.4 234.027 1703.73 231.978 Q1707.07 229.93 1711.58 229.93 Q1717.66 229.93 1720.96 234.2 Q1724.25 238.436 1724.25 246.284 L1724.25 269.756 L1717.83 269.756 L1717.83 246.492 Q1717.83 240.902 1715.85 238.193 Q1713.87 235.485 1709.81 235.485 Q1704.85 235.485 1701.96 238.784 Q1699.08 242.082 1699.08 247.777 L1699.08 269.756 L1692.66 269.756 L1692.66 246.492 Q1692.66 240.867 1690.68 238.193 Q1688.7 235.485 1684.57 235.485 Q1679.67 235.485 1676.79 238.818 Q1673.91 242.117 1673.91 247.777 L1673.91 269.756 L1667.48 269.756 L1667.48 230.867 L1673.91 230.867 L1673.91 236.909 Q1676.1 233.332 1679.15 231.631 Q1682.21 229.93 1686.41 229.93 Q1690.64 229.93 1693.6 232.082 Q1696.58 234.235 1698 238.332 Z" fill="#000000" fill-rule="evenodd" fill-opacity="1" /><path clip-path="url(#clip530)" d="M1743.18 263.922 L1743.18 284.547 L1736.75 284.547 L1736.75 230.867 L1743.18 230.867 L1743.18 236.77 Q1745.19 233.298 1748.25 231.631 Q1751.34 229.93 1755.61 229.93 Q1762.69 229.93 1767.1 235.555 Q1771.55 241.179 1771.55 250.346 Q1771.55 259.513 1767.1 265.138 Q1762.69 270.763 1755.61 270.763 Q1751.34 270.763 1748.25 269.096 Q1745.19 267.395 1743.18 263.922 M1764.91 250.346 Q1764.91 243.298 1762 239.304 Q1759.12 235.277 1754.05 235.277 Q1748.98 235.277 1746.06 239.304 Q1743.18 243.298 1743.18 250.346 Q1743.18 257.395 1746.06 261.422 Q1748.98 265.415 1754.05 265.415 Q1759.12 265.415 1762 261.422 Q1764.91 257.395 1764.91 250.346 Z" fill="#000000" fill-rule="evenodd" fill-opacity="1" /><path clip-path="url(#clip530)" d="M1782.14 215.728 L1788.53 215.728 L1788.53 269.756 L1782.14 269.756 L1782.14 215.728 Z" fill="#000000" fill-rule="evenodd" fill-opacity="1" /><path clip-path="url(#clip530)" d="M1835.16 248.714 L1835.16 251.839 L1805.78 251.839 Q1806.2 258.436 1809.74 261.909 Q1813.32 265.346 1819.67 265.346 Q1823.35 265.346 1826.79 264.443 Q1830.26 263.54 1833.66 261.735 L1833.66 267.777 Q1830.23 269.235 1826.62 269.999 Q1823 270.763 1819.29 270.763 Q1809.98 270.763 1804.53 265.346 Q1799.12 259.929 1799.12 250.693 Q1799.12 241.145 1804.25 235.555 Q1809.43 229.93 1818.18 229.93 Q1826.02 229.93 1830.57 234.999 Q1835.16 240.034 1835.16 248.714 M1828.77 246.839 Q1828.7 241.596 1825.82 238.471 Q1822.97 235.346 1818.25 235.346 Q1812.9 235.346 1809.67 238.367 Q1806.48 241.388 1805.99 246.874 L1828.77 246.839 Z" fill="#000000" fill-rule="evenodd" fill-opacity="1" /><path clip-path="url(#clip530)" d="M1845.92 217.916 L1875.71 217.916 L1875.71 223.818 L1852.93 223.818 L1852.93 239.096 L1873.49 239.096 L1873.49 244.999 L1852.93 244.999 L1852.93 269.756 L1845.92 269.756 L1845.92 217.916 Z" fill="#000000" fill-rule="evenodd" fill-opacity="1" /><path clip-path="url(#clip530)" d="M1886.82 217.916 L1897.27 217.916 L1910.5 253.193 L1923.8 217.916 L1934.25 217.916 L1934.25 269.756 L1927.41 269.756 L1927.41 224.235 L1914.05 259.79 L1907 259.79 L1893.63 224.235 L1893.63 269.756 L1886.82 269.756 L1886.82 217.916 Z" fill="#000000" fill-rule="evenodd" fill-opacity="1" /><path clip-path="url(#clip530)" d="M1947.38 217.916 L1954.43 217.916 L1954.43 249.409 Q1954.43 257.742 1957.45 261.422 Q1960.47 265.068 1967.24 265.068 Q1973.98 265.068 1977 261.422 Q1980.02 257.742 1980.02 249.409 L1980.02 217.916 L1987.07 217.916 L1987.07 250.277 Q1987.07 260.415 1982.03 265.589 Q1977.03 270.763 1967.24 270.763 Q1957.41 270.763 1952.38 265.589 Q1947.38 260.415 1947.38 250.277 L1947.38 217.916 Z" fill="#000000" fill-rule="evenodd" fill-opacity="1" /><polyline clip-path="url(#clip530)" style="stroke:#e26f46; stroke-linecap:round; stroke-linejoin:round; stroke-width:6; stroke-opacity:1; fill:none" points="
  1436.91,321.596 1577.4,321.596 
  "/>
<path clip-path="url(#clip530)" d="M1623.6 314.599 Q1622.52 313.974 1621.23 313.696 Q1619.98 313.384 1618.46 313.384 Q1613.04 313.384 1610.12 316.926 Q1607.24 320.433 1607.24 327.03 L1607.24 347.516 L1600.82 347.516 L1600.82 308.627 L1607.24 308.627 L1607.24 314.669 Q1609.26 311.127 1612.48 309.426 Q1615.71 307.69 1620.33 307.69 Q1620.99 307.69 1621.79 307.794 Q1622.59 307.863 1623.56 308.037 L1623.6 314.599 Z" fill="#000000" fill-rule="evenodd" fill-opacity="1" /><path clip-path="url(#clip530)" d="M1662 326.474 L1662 329.599 L1632.62 329.599 Q1633.04 336.196 1636.58 339.669 Q1640.16 343.106 1646.51 343.106 Q1650.19 343.106 1653.63 342.203 Q1657.1 341.3 1660.5 339.495 L1660.5 345.537 Q1657.07 346.995 1653.46 347.759 Q1649.85 348.523 1646.13 348.523 Q1636.82 348.523 1631.37 343.106 Q1625.96 337.689 1625.96 328.453 Q1625.96 318.905 1631.1 313.315 Q1636.27 307.69 1645.02 307.69 Q1652.87 307.69 1657.41 312.759 Q1662 317.794 1662 326.474 M1655.61 324.599 Q1655.54 319.356 1652.66 316.231 Q1649.81 313.106 1645.09 313.106 Q1639.74 313.106 1636.51 316.127 Q1633.32 319.148 1632.83 324.634 L1655.61 324.599 Z" fill="#000000" fill-rule="evenodd" fill-opacity="1" /><path clip-path="url(#clip530)" d="M1692.17 293.488 L1692.17 298.801 L1686.06 298.801 Q1682.62 298.801 1681.27 300.19 Q1679.95 301.578 1679.95 305.19 L1679.95 308.627 L1690.47 308.627 L1690.47 313.592 L1679.95 313.592 L1679.95 347.516 L1673.53 347.516 L1673.53 313.592 L1667.41 313.592 L1667.41 308.627 L1673.53 308.627 L1673.53 305.919 Q1673.53 299.426 1676.55 296.474 Q1679.57 293.488 1686.13 293.488 L1692.17 293.488 Z" fill="#000000" fill-rule="evenodd" fill-opacity="1" /><path clip-path="url(#clip530)" d="M1730.78 326.474 L1730.78 329.599 L1701.41 329.599 Q1701.82 336.196 1705.37 339.669 Q1708.94 343.106 1715.3 343.106 Q1718.98 343.106 1722.41 342.203 Q1725.89 341.3 1729.29 339.495 L1729.29 345.537 Q1725.85 346.995 1722.24 347.759 Q1718.63 348.523 1714.91 348.523 Q1705.61 348.523 1700.16 343.106 Q1694.74 337.689 1694.74 328.453 Q1694.74 318.905 1699.88 313.315 Q1705.05 307.69 1713.8 307.69 Q1721.65 307.69 1726.2 312.759 Q1730.78 317.794 1730.78 326.474 M1724.39 324.599 Q1724.32 319.356 1721.44 316.231 Q1718.59 313.106 1713.87 313.106 Q1708.53 313.106 1705.3 316.127 Q1702.1 319.148 1701.62 324.634 L1724.39 324.599 Z" fill="#000000" fill-rule="evenodd" fill-opacity="1" /><path clip-path="url(#clip530)" d="M1763.8 314.599 Q1762.73 313.974 1761.44 313.696 Q1760.19 313.384 1758.66 313.384 Q1753.25 313.384 1750.33 316.926 Q1747.45 320.433 1747.45 327.03 L1747.45 347.516 L1741.03 347.516 L1741.03 308.627 L1747.45 308.627 L1747.45 314.669 Q1749.46 311.127 1752.69 309.426 Q1755.92 307.69 1760.54 307.69 Q1761.2 307.69 1762 307.794 Q1762.8 307.863 1763.77 308.037 L1763.8 314.599 Z" fill="#000000" fill-rule="evenodd" fill-opacity="1" /><path clip-path="url(#clip530)" d="M1802.21 326.474 L1802.21 329.599 L1772.83 329.599 Q1773.25 336.196 1776.79 339.669 Q1780.37 343.106 1786.72 343.106 Q1790.4 343.106 1793.84 342.203 Q1797.31 341.3 1800.71 339.495 L1800.71 345.537 Q1797.28 346.995 1793.66 347.759 Q1790.05 348.523 1786.34 348.523 Q1777.03 348.523 1771.58 343.106 Q1766.16 337.689 1766.16 328.453 Q1766.16 318.905 1771.3 313.315 Q1776.48 307.69 1785.23 307.69 Q1793.07 307.69 1797.62 312.759 Q1802.21 317.794 1802.21 326.474 M1795.82 324.599 Q1795.75 319.356 1792.87 316.231 Q1790.02 313.106 1785.3 313.106 Q1779.95 313.106 1776.72 316.127 Q1773.53 319.148 1773.04 324.634 L1795.82 324.599 Z" fill="#000000" fill-rule="evenodd" fill-opacity="1" /><path clip-path="url(#clip530)" d="M1845.02 324.044 L1845.02 347.516 L1838.63 347.516 L1838.63 324.252 Q1838.63 318.731 1836.48 315.988 Q1834.32 313.245 1830.02 313.245 Q1824.84 313.245 1821.86 316.544 Q1818.87 319.842 1818.87 325.537 L1818.87 347.516 L1812.45 347.516 L1812.45 308.627 L1818.87 308.627 L1818.87 314.669 Q1821.16 311.162 1824.25 309.426 Q1827.38 307.69 1831.44 307.69 Q1838.14 307.69 1841.58 311.856 Q1845.02 315.988 1845.02 324.044 Z" fill="#000000" fill-rule="evenodd" fill-opacity="1" /><path clip-path="url(#clip530)" d="M1885.75 310.12 L1885.75 316.092 Q1883.04 314.599 1880.3 313.87 Q1877.59 313.106 1874.81 313.106 Q1868.59 313.106 1865.16 317.064 Q1861.72 320.988 1861.72 328.106 Q1861.72 335.224 1865.16 339.182 Q1868.59 343.106 1874.81 343.106 Q1877.59 343.106 1880.3 342.377 Q1883.04 341.613 1885.75 340.12 L1885.75 346.023 Q1883.07 347.273 1880.19 347.898 Q1877.34 348.523 1874.11 348.523 Q1865.33 348.523 1860.16 343.002 Q1854.98 337.481 1854.98 328.106 Q1854.98 318.592 1860.19 313.141 Q1865.43 307.69 1874.53 307.69 Q1877.48 307.69 1880.3 308.315 Q1883.11 308.905 1885.75 310.12 Z" fill="#000000" fill-rule="evenodd" fill-opacity="1" /><path clip-path="url(#clip530)" d="M1930.12 326.474 L1930.12 329.599 L1900.75 329.599 Q1901.16 336.196 1904.71 339.669 Q1908.28 343.106 1914.64 343.106 Q1918.32 343.106 1921.75 342.203 Q1925.23 341.3 1928.63 339.495 L1928.63 345.537 Q1925.19 346.995 1921.58 347.759 Q1917.97 348.523 1914.25 348.523 Q1904.95 348.523 1899.5 343.106 Q1894.08 337.689 1894.08 328.453 Q1894.08 318.905 1899.22 313.315 Q1904.39 307.69 1913.14 307.69 Q1920.99 307.69 1925.54 312.759 Q1930.12 317.794 1930.12 326.474 M1923.73 324.599 Q1923.66 319.356 1920.78 316.231 Q1917.93 313.106 1913.21 313.106 Q1907.86 313.106 1904.64 316.127 Q1901.44 319.148 1900.96 324.634 L1923.73 324.599 Z" fill="#000000" fill-rule="evenodd" fill-opacity="1" /><polyline clip-path="url(#clip530)" style="stroke:#008000; stroke-linecap:round; stroke-linejoin:round; stroke-width:6; stroke-opacity:1; fill:none" stroke-dasharray="3, 6" points="
  1436.91,399.356 1577.4,399.356 
  "/>
<path clip-path="url(#clip530)" d="M1600.82 373.436 L1610.26 373.436 L1633.25 416.804 L1633.25 373.436 L1640.05 373.436 L1640.05 425.276 L1630.61 425.276 L1607.62 381.908 L1607.62 425.276 L1600.82 425.276 L1600.82 373.436 Z" fill="#000000" fill-rule="evenodd" fill-opacity="1" /><path clip-path="url(#clip530)" d="M1687 404.234 L1687 407.359 L1657.62 407.359 Q1658.04 413.956 1661.58 417.429 Q1665.16 420.866 1671.51 420.866 Q1675.19 420.866 1678.63 419.963 Q1682.1 419.06 1685.5 417.255 L1685.5 423.297 Q1682.07 424.755 1678.46 425.519 Q1674.85 426.283 1671.13 426.283 Q1661.82 426.283 1656.37 420.866 Q1650.96 415.449 1650.96 406.213 Q1650.96 396.665 1656.1 391.075 Q1661.27 385.45 1670.02 385.45 Q1677.87 385.45 1682.41 390.519 Q1687 395.554 1687 404.234 M1680.61 402.359 Q1680.54 397.116 1677.66 393.991 Q1674.81 390.866 1670.09 390.866 Q1664.74 390.866 1661.51 393.887 Q1658.32 396.908 1657.83 402.394 L1680.61 402.359 Z" fill="#000000" fill-rule="evenodd" fill-opacity="1" /><path clip-path="url(#clip530)" d="M1696.82 409.929 L1696.82 386.387 L1703.21 386.387 L1703.21 409.686 Q1703.21 415.206 1705.37 417.984 Q1707.52 420.727 1711.82 420.727 Q1717 420.727 1719.98 417.429 Q1723 414.13 1723 408.436 L1723 386.387 L1729.39 386.387 L1729.39 425.276 L1723 425.276 L1723 419.304 Q1720.68 422.845 1717.59 424.581 Q1714.53 426.283 1710.47 426.283 Q1703.77 426.283 1700.3 422.116 Q1696.82 417.949 1696.82 409.929 M1712.9 385.45 L1712.9 385.45 Z" fill="#000000" fill-rule="evenodd" fill-opacity="1" /><path clip-path="url(#clip530)" d="M1765.09 392.359 Q1764.01 391.734 1762.73 391.456 Q1761.48 391.144 1759.95 391.144 Q1754.53 391.144 1751.62 394.686 Q1748.73 398.193 1748.73 404.79 L1748.73 425.276 L1742.31 425.276 L1742.31 386.387 L1748.73 386.387 L1748.73 392.429 Q1750.75 388.887 1753.98 387.186 Q1757.21 385.45 1761.82 385.45 Q1762.48 385.45 1763.28 385.554 Q1764.08 385.623 1765.05 385.797 L1765.09 392.359 Z" fill="#000000" fill-rule="evenodd" fill-opacity="1" /><path clip-path="url(#clip530)" d="M1789.46 405.727 Q1781.72 405.727 1778.73 407.498 Q1775.75 409.269 1775.75 413.54 Q1775.75 416.942 1777.97 418.956 Q1780.23 420.935 1784.08 420.935 Q1789.39 420.935 1792.59 417.185 Q1795.82 413.401 1795.82 407.151 L1795.82 405.727 L1789.46 405.727 M1802.21 403.088 L1802.21 425.276 L1795.82 425.276 L1795.82 419.373 Q1793.63 422.915 1790.37 424.616 Q1787.1 426.283 1782.38 426.283 Q1776.41 426.283 1772.87 422.949 Q1769.36 419.581 1769.36 413.956 Q1769.36 407.394 1773.73 404.061 Q1778.14 400.727 1786.86 400.727 L1795.82 400.727 L1795.82 400.102 Q1795.82 395.693 1792.9 393.297 Q1790.02 390.866 1784.78 390.866 Q1781.44 390.866 1778.28 391.665 Q1775.12 392.463 1772.21 394.061 L1772.21 388.158 Q1775.71 386.804 1779.01 386.144 Q1782.31 385.45 1785.43 385.45 Q1793.87 385.45 1798.04 389.825 Q1802.21 394.199 1802.21 403.088 Z" fill="#000000" fill-rule="evenodd" fill-opacity="1" /><path clip-path="url(#clip530)" d="M1815.37 371.248 L1821.75 371.248 L1821.75 425.276 L1815.37 425.276 L1815.37 371.248 Z" fill="#000000" fill-rule="evenodd" fill-opacity="1" /><path clip-path="url(#clip530)" d="M1835.4 373.436 L1865.19 373.436 L1865.19 379.338 L1842.41 379.338 L1842.41 394.616 L1862.97 394.616 L1862.97 400.519 L1842.41 400.519 L1842.41 425.276 L1835.4 425.276 L1835.4 373.436 Z" fill="#000000" fill-rule="evenodd" fill-opacity="1" /><path clip-path="url(#clip530)" d="M1876.3 373.436 L1886.75 373.436 L1899.98 408.713 L1913.28 373.436 L1923.73 373.436 L1923.73 425.276 L1916.89 425.276 L1916.89 379.755 L1903.52 415.31 L1896.48 415.31 L1883.11 379.755 L1883.11 425.276 L1876.3 425.276 L1876.3 373.436 Z" fill="#000000" fill-rule="evenodd" fill-opacity="1" /><path clip-path="url(#clip530)" d="M1936.86 373.436 L1943.91 373.436 L1943.91 404.929 Q1943.91 413.262 1946.93 416.942 Q1949.95 420.588 1956.72 420.588 Q1963.45 420.588 1966.48 416.942 Q1969.5 413.262 1969.5 404.929 L1969.5 373.436 L1976.54 373.436 L1976.54 405.797 Q1976.54 415.935 1971.51 421.109 Q1966.51 426.283 1956.72 426.283 Q1946.89 426.283 1941.86 421.109 Q1936.86 415.935 1936.86 405.797 L1936.86 373.436 Z" fill="#000000" fill-rule="evenodd" fill-opacity="1" /><path clip-path="url(#clip530)" d="M2027.38 371.318 Q2022.73 379.304 2020.47 387.116 Q2018.21 394.929 2018.21 402.949 Q2018.21 410.97 2020.47 418.852 Q2022.76 426.699 2027.38 434.651 L2021.82 434.651 Q2016.61 426.491 2014.01 418.609 Q2011.44 410.727 2011.44 402.949 Q2011.44 395.206 2014.01 387.359 Q2016.58 379.512 2021.82 371.318 L2027.38 371.318 Z" fill="#000000" fill-rule="evenodd" fill-opacity="1" /><path clip-path="url(#clip530)" d="M2046.72 419.373 L2071.2 419.373 L2071.2 425.276 L2038.28 425.276 L2038.28 419.373 Q2042.27 415.241 2049.15 408.297 Q2056.06 401.318 2057.83 399.304 Q2061.2 395.519 2062.52 392.915 Q2063.87 390.276 2063.87 387.741 Q2063.87 383.609 2060.95 381.005 Q2058.07 378.401 2053.42 378.401 Q2050.12 378.401 2046.44 379.547 Q2042.79 380.693 2038.63 383.019 L2038.63 375.936 Q2042.86 374.234 2046.54 373.366 Q2050.23 372.498 2053.28 372.498 Q2061.34 372.498 2066.13 376.526 Q2070.92 380.554 2070.92 387.29 Q2070.92 390.484 2069.7 393.366 Q2068.52 396.213 2065.36 400.102 Q2064.5 401.109 2059.84 405.936 Q2055.19 410.727 2046.72 419.373 Z" fill="#000000" fill-rule="evenodd" fill-opacity="1" /><path clip-path="url(#clip530)" d="M2085.99 373.436 L2113.52 373.436 L2113.52 379.338 L2092.41 379.338 L2092.41 392.047 Q2093.94 391.526 2095.47 391.283 Q2097 391.005 2098.52 391.005 Q2107.2 391.005 2112.27 395.762 Q2117.34 400.519 2117.34 408.644 Q2117.34 417.012 2112.13 421.665 Q2106.93 426.283 2097.45 426.283 Q2094.18 426.283 2090.78 425.727 Q2087.41 425.172 2083.8 424.06 L2083.8 417.012 Q2086.93 418.713 2090.26 419.547 Q2093.59 420.38 2097.31 420.38 Q2103.32 420.38 2106.82 417.22 Q2110.33 414.06 2110.33 408.644 Q2110.33 403.227 2106.82 400.068 Q2103.32 396.908 2097.31 396.908 Q2094.5 396.908 2091.68 397.533 Q2088.91 398.158 2085.99 399.477 L2085.99 373.436 Z" fill="#000000" fill-rule="evenodd" fill-opacity="1" /><path clip-path="url(#clip530)" d="M2146.16 378.054 Q2140.75 378.054 2138 383.401 Q2135.29 388.713 2135.29 399.408 Q2135.29 410.067 2138 415.415 Q2140.75 420.727 2146.16 420.727 Q2151.61 420.727 2154.32 415.415 Q2157.06 410.067 2157.06 399.408 Q2157.06 388.713 2154.32 383.401 Q2151.61 378.054 2146.16 378.054 M2146.16 372.498 Q2154.88 372.498 2159.46 379.408 Q2164.08 386.283 2164.08 399.408 Q2164.08 412.498 2159.46 419.408 Q2154.88 426.283 2146.16 426.283 Q2137.45 426.283 2132.83 419.408 Q2128.25 412.498 2128.25 399.408 Q2128.25 386.283 2132.83 379.408 Q2137.45 372.498 2146.16 372.498 Z" fill="#000000" fill-rule="evenodd" fill-opacity="1" /><path clip-path="url(#clip530)" d="M2191.4 378.054 Q2185.99 378.054 2183.25 383.401 Q2180.54 388.713 2180.54 399.408 Q2180.54 410.067 2183.25 415.415 Q2185.99 420.727 2191.4 420.727 Q2196.86 420.727 2199.56 415.415 Q2202.31 410.067 2202.31 399.408 Q2202.31 388.713 2199.56 383.401 Q2196.86 378.054 2191.4 378.054 M2191.4 372.498 Q2200.12 372.498 2204.7 379.408 Q2209.32 386.283 2209.32 399.408 Q2209.32 412.498 2204.7 419.408 Q2200.12 426.283 2191.4 426.283 Q2182.69 426.283 2178.07 419.408 Q2173.49 412.498 2173.49 399.408 Q2173.49 386.283 2178.07 379.408 Q2182.69 372.498 2191.4 372.498 Z" fill="#000000" fill-rule="evenodd" fill-opacity="1" /><path clip-path="url(#clip530)" d="M2219.74 371.318 L2225.29 371.318 Q2230.5 379.512 2233.07 387.359 Q2235.68 395.206 2235.68 402.949 Q2235.68 410.727 2233.07 418.609 Q2230.5 426.491 2225.29 434.651 L2219.74 434.651 Q2224.36 426.699 2226.61 418.852 Q2228.9 410.97 2228.9 402.949 Q2228.9 394.929 2226.61 387.116 Q2224.36 379.304 2219.74 371.318 Z" fill="#000000" fill-rule="evenodd" fill-opacity="1" /></svg>
