<?xml version="1.0" encoding="utf-8"?>
<svg xmlns="http://www.w3.org/2000/svg" xmlns:xlink="http://www.w3.org/1999/xlink" width="600" height="400" viewBox="0 0 2400 1600">
<defs>
  <clipPath id="clip810">
    <rect x="0" y="0" width="2400" height="1600"/>
  </clipPath>
</defs>
<path clip-path="url(#clip810)" d="
M0 1600 L2400 1600 L2400 0 L0 0  Z
  " fill="#ffffff" fill-rule="evenodd" fill-opacity="1"/>
<defs>
  <clipPath id="clip811">
    <rect x="480" y="0" width="1681" height="1600"/>
  </clipPath>
</defs>
<path clip-path="url(#clip810)" d="
M360.239 1401.58 L2352.76 1401.58 L2352.76 123.472 L360.239 123.472  Z
  " fill="#ffffff" fill-rule="evenodd" fill-opacity="1"/>
<defs>
  <clipPath id="clip812">
    <rect x="360" y="123" width="1994" height="1279"/>
  </clipPath>
</defs>
<polyline clip-path="url(#clip812)" style="stroke:#000000; stroke-linecap:round; stroke-linejoin:round; stroke-width:2; stroke-opacity:0.1; fill:none" points="
  416.631,1401.58 416.631,123.472 
  "/>
<polyline clip-path="url(#clip812)" style="stroke:#000000; stroke-linecap:round; stroke-linejoin:round; stroke-width:2; stroke-opacity:0.1; fill:none" points="
  886.564,1401.58 886.564,123.472 
  "/>
<polyline clip-path="url(#clip812)" style="stroke:#000000; stroke-linecap:round; stroke-linejoin:round; stroke-width:2; stroke-opacity:0.1; fill:none" points="
  1356.5,1401.58 1356.5,123.472 
  "/>
<polyline clip-path="url(#clip812)" style="stroke:#000000; stroke-linecap:round; stroke-linejoin:round; stroke-width:2; stroke-opacity:0.1; fill:none" points="
  1826.43,1401.58 1826.43,123.472 
  "/>
<polyline clip-path="url(#clip812)" style="stroke:#000000; stroke-linecap:round; stroke-linejoin:round; stroke-width:2; stroke-opacity:0.1; fill:none" points="
  2296.36,1401.58 2296.36,123.472 
  "/>
<polyline clip-path="url(#clip810)" style="stroke:#000000; stroke-linecap:round; stroke-linejoin:round; stroke-width:4; stroke-opacity:1; fill:none" points="
  360.239,1401.58 2352.76,1401.58 
  "/>
<polyline clip-path="url(#clip810)" style="stroke:#000000; stroke-linecap:round; stroke-linejoin:round; stroke-width:4; stroke-opacity:1; fill:none" points="
  416.631,1401.58 416.631,1382.68 
  "/>
<polyline clip-path="url(#clip810)" style="stroke:#000000; stroke-linecap:round; stroke-linejoin:round; stroke-width:4; stroke-opacity:1; fill:none" points="
  886.564,1401.58 886.564,1382.68 
  "/>
<polyline clip-path="url(#clip810)" style="stroke:#000000; stroke-linecap:round; stroke-linejoin:round; stroke-width:4; stroke-opacity:1; fill:none" points="
  1356.5,1401.58 1356.5,1382.68 
  "/>
<polyline clip-path="url(#clip810)" style="stroke:#000000; stroke-linecap:round; stroke-linejoin:round; stroke-width:4; stroke-opacity:1; fill:none" points="
  1826.43,1401.58 1826.43,1382.68 
  "/>
<polyline clip-path="url(#clip810)" style="stroke:#000000; stroke-linecap:round; stroke-linejoin:round; stroke-width:4; stroke-opacity:1; fill:none" points="
  2296.36,1401.58 2296.36,1382.68 
  "/>
<path clip-path="url(#clip810)" d="M416.631 1438.36 Q411.214 1438.36 408.471 1443.71 Q405.763 1449.02 405.763 1459.71 Q405.763 1470.37 408.471 1475.72 Q411.214 1481.03 416.631 1481.03 Q422.082 1481.03 424.79 1475.72 Q427.533 1470.37 427.533 1459.71 Q427.533 1449.02 424.79 1443.71 Q422.082 1438.36 416.631 1438.36 M416.631 1432.8 Q425.346 1432.8 429.929 1439.71 Q434.547 1446.59 434.547 1459.71 Q434.547 1472.8 429.929 1479.71 Q425.346 1486.59 416.631 1486.59 Q407.916 1486.59 403.298 1479.71 Q398.714 1472.8 398.714 1459.71 Q398.714 1446.59 403.298 1439.71 Q407.916 1432.8 416.631 1432.8 Z" fill="#000000" fill-rule="evenodd" fill-opacity="1" /><path clip-path="url(#clip810)" d="M872.137 1479.68 L883.595 1479.68 L883.595 1440.13 L871.13 1442.63 L871.13 1436.24 L883.526 1433.74 L890.54 1433.74 L890.54 1479.68 L901.998 1479.68 L901.998 1485.58 L872.137 1485.58 L872.137 1479.68 Z" fill="#000000" fill-rule="evenodd" fill-opacity="1" /><path clip-path="url(#clip810)" d="M1348.48 1479.68 L1372.96 1479.68 L1372.96 1485.58 L1340.04 1485.58 L1340.04 1479.68 Q1344.03 1475.55 1350.91 1468.6 Q1357.82 1461.62 1359.59 1459.61 Q1362.96 1455.82 1364.28 1453.22 Q1365.63 1450.58 1365.63 1448.05 Q1365.63 1443.91 1362.71 1441.31 Q1359.83 1438.71 1355.18 1438.71 Q1351.88 1438.71 1348.2 1439.85 Q1344.55 1441 1340.39 1443.32 L1340.39 1436.24 Q1344.62 1434.54 1348.3 1433.67 Q1351.98 1432.8 1355.04 1432.8 Q1363.09 1432.8 1367.89 1436.83 Q1372.68 1440.86 1372.68 1447.59 Q1372.68 1450.79 1371.46 1453.67 Q1370.28 1456.52 1367.12 1460.41 Q1366.25 1461.41 1361.6 1466.24 Q1356.95 1471.03 1348.48 1479.68 Z" fill="#000000" fill-rule="evenodd" fill-opacity="1" /><path clip-path="url(#clip810)" d="M1832.8 1457.63 Q1837.84 1458.7 1840.65 1462.11 Q1843.5 1465.51 1843.5 1470.51 Q1843.5 1478.18 1838.22 1482.39 Q1832.94 1486.59 1823.22 1486.59 Q1819.95 1486.59 1816.48 1485.93 Q1813.05 1485.3 1809.36 1484.02 L1809.36 1477.25 Q1812.28 1478.95 1815.75 1479.82 Q1819.23 1480.68 1823.01 1480.68 Q1829.61 1480.68 1833.05 1478.08 Q1836.52 1475.48 1836.52 1470.51 Q1836.52 1465.93 1833.29 1463.36 Q1830.09 1460.75 1824.36 1460.75 L1818.32 1460.75 L1818.32 1454.99 L1824.64 1454.99 Q1829.82 1454.99 1832.56 1452.94 Q1835.3 1450.86 1835.3 1446.97 Q1835.3 1442.98 1832.45 1440.86 Q1829.64 1438.71 1824.36 1438.71 Q1821.48 1438.71 1818.18 1439.33 Q1814.89 1439.96 1810.93 1441.27 L1810.93 1435.02 Q1814.92 1433.91 1818.39 1433.36 Q1821.9 1432.8 1824.99 1432.8 Q1832.98 1432.8 1837.63 1436.45 Q1842.28 1440.06 1842.28 1446.24 Q1842.28 1450.55 1839.82 1453.53 Q1837.35 1456.48 1832.8 1457.63 Z" fill="#000000" fill-rule="evenodd" fill-opacity="1" /><path clip-path="url(#clip810)" d="M2300.88 1439.85 L2283.17 1467.52 L2300.88 1467.52 L2300.88 1439.85 M2299.04 1433.74 L2307.86 1433.74 L2307.86 1467.52 L2315.25 1467.52 L2315.25 1473.36 L2307.86 1473.36 L2307.86 1485.58 L2300.88 1485.58 L2300.88 1473.36 L2277.48 1473.36 L2277.48 1466.59 L2299.04 1433.74 Z" fill="#000000" fill-rule="evenodd" fill-opacity="1" /><path clip-path="url(#clip810)" d="M1300.11 1527.62 L1300.11 1538.66 L1313.27 1538.66 L1313.27 1543.62 L1300.11 1543.62 L1300.11 1564.74 Q1300.11 1569.49 1301.39 1570.85 Q1302.71 1572.2 1306.71 1572.2 L1313.27 1572.2 L1313.27 1577.55 L1306.71 1577.55 Q1299.31 1577.55 1296.5 1574.8 Q1293.69 1572.03 1293.69 1564.74 L1293.69 1543.62 L1289 1543.62 L1289 1538.66 L1293.69 1538.66 L1293.69 1527.62 L1300.11 1527.62 Z" fill="#000000" fill-rule="evenodd" fill-opacity="1" /><path clip-path="url(#clip810)" d="M1343.68 1523.52 L1358.41 1523.52 L1358.41 1528.49 L1350.07 1528.49 L1350.07 1581.96 L1358.41 1581.96 L1358.41 1586.92 L1343.68 1586.92 L1343.68 1523.52 Z" fill="#000000" fill-rule="evenodd" fill-opacity="1" /><path clip-path="url(#clip810)" d="M1396.81 1539.8 L1396.81 1545.85 Q1394.1 1544.46 1391.18 1543.76 Q1388.27 1543.07 1385.14 1543.07 Q1380.39 1543.07 1377.99 1544.53 Q1375.63 1545.99 1375.63 1548.9 Q1375.63 1551.12 1377.33 1552.41 Q1379.03 1553.66 1384.17 1554.8 L1386.36 1555.29 Q1393.16 1556.75 1396.01 1559.42 Q1398.89 1562.06 1398.89 1566.82 Q1398.89 1572.24 1394.59 1575.4 Q1390.32 1578.55 1382.82 1578.55 Q1379.69 1578.55 1376.29 1577.93 Q1372.92 1577.34 1369.17 1576.12 L1369.17 1569.53 Q1372.71 1571.37 1376.15 1572.3 Q1379.59 1573.21 1382.96 1573.21 Q1387.47 1573.21 1389.9 1571.68 Q1392.33 1570.12 1392.33 1567.3 Q1392.33 1564.7 1390.56 1563.31 Q1388.82 1561.92 1382.89 1560.64 L1380.66 1560.12 Q1374.73 1558.87 1372.09 1556.3 Q1369.45 1553.69 1369.45 1549.18 Q1369.45 1543.69 1373.34 1540.71 Q1377.23 1537.72 1384.38 1537.72 Q1387.92 1537.72 1391.05 1538.24 Q1394.17 1538.76 1396.81 1539.8 Z" fill="#000000" fill-rule="evenodd" fill-opacity="1" /><path clip-path="url(#clip810)" d="M1424 1523.52 L1424 1586.92 L1409.27 1586.92 L1409.27 1581.96 L1417.57 1581.96 L1417.57 1528.49 L1409.27 1528.49 L1409.27 1523.52 L1424 1523.52 Z" fill="#000000" fill-rule="evenodd" fill-opacity="1" /><polyline clip-path="url(#clip812)" style="stroke:#000000; stroke-linecap:round; stroke-linejoin:round; stroke-width:2; stroke-opacity:0.1; fill:none" points="
  360.239,1249.59 2352.76,1249.59 
  "/>
<polyline clip-path="url(#clip812)" style="stroke:#000000; stroke-linecap:round; stroke-linejoin:round; stroke-width:2; stroke-opacity:0.1; fill:none" points="
  360.239,1031.6 2352.76,1031.6 
  "/>
<polyline clip-path="url(#clip812)" style="stroke:#000000; stroke-linecap:round; stroke-linejoin:round; stroke-width:2; stroke-opacity:0.1; fill:none" points="
  360.239,813.613 2352.76,813.613 
  "/>
<polyline clip-path="url(#clip812)" style="stroke:#000000; stroke-linecap:round; stroke-linejoin:round; stroke-width:2; stroke-opacity:0.1; fill:none" points="
  360.239,595.623 2352.76,595.623 
  "/>
<polyline clip-path="url(#clip812)" style="stroke:#000000; stroke-linecap:round; stroke-linejoin:round; stroke-width:2; stroke-opacity:0.1; fill:none" points="
  360.239,377.634 2352.76,377.634 
  "/>
<polyline clip-path="url(#clip812)" style="stroke:#000000; stroke-linecap:round; stroke-linejoin:round; stroke-width:2; stroke-opacity:0.1; fill:none" points="
  360.239,159.645 2352.76,159.645 
  "/>
<polyline clip-path="url(#clip810)" style="stroke:#000000; stroke-linecap:round; stroke-linejoin:round; stroke-width:4; stroke-opacity:1; fill:none" points="
  360.239,1401.58 360.239,123.472 
  "/>
<polyline clip-path="url(#clip810)" style="stroke:#000000; stroke-linecap:round; stroke-linejoin:round; stroke-width:4; stroke-opacity:1; fill:none" points="
  360.239,1249.59 379.136,1249.59 
  "/>
<polyline clip-path="url(#clip810)" style="stroke:#000000; stroke-linecap:round; stroke-linejoin:round; stroke-width:4; stroke-opacity:1; fill:none" points="
  360.239,1031.6 379.136,1031.6 
  "/>
<polyline clip-path="url(#clip810)" style="stroke:#000000; stroke-linecap:round; stroke-linejoin:round; stroke-width:4; stroke-opacity:1; fill:none" points="
  360.239,813.613 379.136,813.613 
  "/>
<polyline clip-path="url(#clip810)" style="stroke:#000000; stroke-linecap:round; stroke-linejoin:round; stroke-width:4; stroke-opacity:1; fill:none" points="
  360.239,595.623 379.136,595.623 
  "/>
<polyline clip-path="url(#clip810)" style="stroke:#000000; stroke-linecap:round; stroke-linejoin:round; stroke-width:4; stroke-opacity:1; fill:none" points="
  360.239,377.634 379.136,377.634 
  "/>
<polyline clip-path="url(#clip810)" style="stroke:#000000; stroke-linecap:round; stroke-linejoin:round; stroke-width:4; stroke-opacity:1; fill:none" points="
  360.239,159.645 379.136,159.645 
  "/>
<path clip-path="url(#clip810)" d="M120.073 1250.27 L164.587 1250.27 L164.587 1256.17 L120.073 1256.17 L120.073 1250.27 Z" fill="#000000" fill-rule="evenodd" fill-opacity="1" /><path clip-path="url(#clip810)" d="M194.726 1228.29 Q189.309 1228.29 186.566 1233.64 Q183.858 1238.95 183.858 1249.64 Q183.858 1260.3 186.566 1265.65 Q189.309 1270.96 194.726 1270.96 Q200.177 1270.96 202.885 1265.65 Q205.628 1260.3 205.628 1249.64 Q205.628 1238.95 202.885 1233.64 Q200.177 1228.29 194.726 1228.29 M194.726 1222.73 Q203.441 1222.73 208.024 1229.64 Q212.642 1236.52 212.642 1249.64 Q212.642 1262.73 208.024 1269.64 Q203.441 1276.52 194.726 1276.52 Q186.01 1276.52 181.392 1269.64 Q176.809 1262.73 176.809 1249.64 Q176.809 1236.52 181.392 1229.64 Q186.01 1222.73 194.726 1222.73 Z" fill="#000000" fill-rule="evenodd" fill-opacity="1" /><path clip-path="url(#clip810)" d="M224.968 1266.69 L232.295 1266.69 L232.295 1275.51 L224.968 1275.51 L224.968 1266.69 Z" fill="#000000" fill-rule="evenodd" fill-opacity="1" /><path clip-path="url(#clip810)" d="M248.788 1269.61 L260.246 1269.61 L260.246 1230.06 L247.781 1232.56 L247.781 1226.17 L260.177 1223.67 L267.19 1223.67 L267.19 1269.61 L278.649 1269.61 L278.649 1275.51 L248.788 1275.51 L248.788 1269.61 Z" fill="#000000" fill-rule="evenodd" fill-opacity="1" /><path clip-path="url(#clip810)" d="M292.885 1223.67 L320.419 1223.67 L320.419 1229.57 L299.308 1229.57 L299.308 1242.28 Q300.836 1241.76 302.364 1241.52 Q303.892 1241.24 305.419 1241.24 Q314.1 1241.24 319.169 1246 Q324.239 1250.75 324.239 1258.88 Q324.239 1267.25 319.03 1271.9 Q313.822 1276.52 304.343 1276.52 Q301.079 1276.52 297.676 1275.96 Q294.308 1275.41 290.697 1274.3 L290.697 1267.25 Q293.822 1268.95 297.156 1269.78 Q300.489 1270.62 304.204 1270.62 Q310.211 1270.62 313.718 1267.46 Q317.225 1264.3 317.225 1258.88 Q317.225 1253.46 313.718 1250.3 Q310.211 1247.14 304.204 1247.14 Q301.392 1247.14 298.579 1247.77 Q295.801 1248.39 292.885 1249.71 L292.885 1223.67 Z" fill="#000000" fill-rule="evenodd" fill-opacity="1" /><path clip-path="url(#clip810)" d="M118.58 1032.28 L163.094 1032.28 L163.094 1038.18 L118.58 1038.18 L118.58 1032.28 Z" fill="#000000" fill-rule="evenodd" fill-opacity="1" /><path clip-path="url(#clip810)" d="M193.233 1010.3 Q187.816 1010.3 185.073 1015.65 Q182.365 1020.96 182.365 1031.65 Q182.365 1042.31 185.073 1047.66 Q187.816 1052.97 193.233 1052.97 Q198.684 1052.97 201.392 1047.66 Q204.135 1042.31 204.135 1031.65 Q204.135 1020.96 201.392 1015.65 Q198.684 1010.3 193.233 1010.3 M193.233 1004.74 Q201.948 1004.74 206.531 1011.65 Q211.149 1018.53 211.149 1031.65 Q211.149 1044.74 206.531 1051.65 Q201.948 1058.53 193.233 1058.53 Q184.517 1058.53 179.899 1051.65 Q175.316 1044.74 175.316 1031.65 Q175.316 1018.53 179.899 1011.65 Q184.517 1004.74 193.233 1004.74 Z" fill="#000000" fill-rule="evenodd" fill-opacity="1" /><path clip-path="url(#clip810)" d="M223.475 1048.7 L230.802 1048.7 L230.802 1057.52 L223.475 1057.52 L223.475 1048.7 Z" fill="#000000" fill-rule="evenodd" fill-opacity="1" /><path clip-path="url(#clip810)" d="M247.295 1051.62 L258.753 1051.62 L258.753 1012.07 L246.288 1014.57 L246.288 1008.18 L258.684 1005.68 L265.697 1005.68 L265.697 1051.62 L277.156 1051.62 L277.156 1057.52 L247.295 1057.52 L247.295 1051.62 Z" fill="#000000" fill-rule="evenodd" fill-opacity="1" /><path clip-path="url(#clip810)" d="M306.322 1010.3 Q300.906 1010.3 298.163 1015.65 Q295.454 1020.96 295.454 1031.65 Q295.454 1042.31 298.163 1047.66 Q300.906 1052.97 306.322 1052.97 Q311.774 1052.97 314.482 1047.66 Q317.225 1042.31 317.225 1031.65 Q317.225 1020.96 314.482 1015.65 Q311.774 1010.3 306.322 1010.3 M306.322 1004.74 Q315.037 1004.74 319.621 1011.65 Q324.239 1018.53 324.239 1031.65 Q324.239 1044.74 319.621 1051.65 Q315.037 1058.53 306.322 1058.53 Q297.607 1058.53 292.989 1051.65 Q288.406 1044.74 288.406 1031.65 Q288.406 1018.53 292.989 1011.65 Q297.607 1004.74 306.322 1004.74 Z" fill="#000000" fill-rule="evenodd" fill-opacity="1" /><path clip-path="url(#clip810)" d="M120.073 814.29 L164.587 814.29 L164.587 820.192 L120.073 820.192 L120.073 814.29 Z" fill="#000000" fill-rule="evenodd" fill-opacity="1" /><path clip-path="url(#clip810)" d="M194.726 792.311 Q189.309 792.311 186.566 797.658 Q183.858 802.97 183.858 813.665 Q183.858 824.324 186.566 829.672 Q189.309 834.984 194.726 834.984 Q200.177 834.984 202.885 829.672 Q205.628 824.324 205.628 813.665 Q205.628 802.97 202.885 797.658 Q200.177 792.311 194.726 792.311 M194.726 786.755 Q203.441 786.755 208.024 793.665 Q212.642 800.54 212.642 813.665 Q212.642 826.755 208.024 833.665 Q203.441 840.54 194.726 840.54 Q186.01 840.54 181.392 833.665 Q176.809 826.755 176.809 813.665 Q176.809 800.54 181.392 793.665 Q186.01 786.755 194.726 786.755 Z" fill="#000000" fill-rule="evenodd" fill-opacity="1" /><path clip-path="url(#clip810)" d="M224.968 830.713 L232.295 830.713 L232.295 839.533 L224.968 839.533 L224.968 830.713 Z" fill="#000000" fill-rule="evenodd" fill-opacity="1" /><path clip-path="url(#clip810)" d="M262.572 792.311 Q257.156 792.311 254.413 797.658 Q251.704 802.97 251.704 813.665 Q251.704 824.324 254.413 829.672 Q257.156 834.984 262.572 834.984 Q268.024 834.984 270.732 829.672 Q273.475 824.324 273.475 813.665 Q273.475 802.97 270.732 797.658 Q268.024 792.311 262.572 792.311 M262.572 786.755 Q271.288 786.755 275.871 793.665 Q280.489 800.54 280.489 813.665 Q280.489 826.755 275.871 833.665 Q271.288 840.54 262.572 840.54 Q253.857 840.54 249.239 833.665 Q244.656 826.755 244.656 813.665 Q244.656 800.54 249.239 793.665 Q253.857 786.755 262.572 786.755 Z" fill="#000000" fill-rule="evenodd" fill-opacity="1" /><path clip-path="url(#clip810)" d="M292.885 787.693 L320.419 787.693 L320.419 793.595 L299.308 793.595 L299.308 806.304 Q300.836 805.783 302.364 805.54 Q303.892 805.262 305.419 805.262 Q314.1 805.262 319.169 810.019 Q324.239 814.776 324.239 822.901 Q324.239 831.269 319.03 835.921 Q313.822 840.54 304.343 840.54 Q301.079 840.54 297.676 839.984 Q294.308 839.428 290.697 838.317 L290.697 831.269 Q293.822 832.97 297.156 833.803 Q300.489 834.637 304.204 834.637 Q310.211 834.637 313.718 831.477 Q317.225 828.317 317.225 822.901 Q317.225 817.484 313.718 814.324 Q310.211 811.165 304.204 811.165 Q301.392 811.165 298.579 811.79 Q295.801 812.415 292.885 813.734 L292.885 787.693 Z" fill="#000000" fill-rule="evenodd" fill-opacity="1" /><path clip-path="url(#clip810)" d="M193.233 574.321 Q187.816 574.321 185.073 579.669 Q182.365 584.981 182.365 595.675 Q182.365 606.335 185.073 611.682 Q187.816 616.995 193.233 616.995 Q198.684 616.995 201.392 611.682 Q204.135 606.335 204.135 595.675 Q204.135 584.981 201.392 579.669 Q198.684 574.321 193.233 574.321 M193.233 568.766 Q201.948 568.766 206.531 575.676 Q211.149 582.551 211.149 595.675 Q211.149 608.766 206.531 615.675 Q201.948 622.55 193.233 622.55 Q184.517 622.55 179.899 615.675 Q175.316 608.766 175.316 595.675 Q175.316 582.551 179.899 575.676 Q184.517 568.766 193.233 568.766 Z" fill="#000000" fill-rule="evenodd" fill-opacity="1" /><path clip-path="url(#clip810)" d="M223.475 612.724 L230.802 612.724 L230.802 621.543 L223.475 621.543 L223.475 612.724 Z" fill="#000000" fill-rule="evenodd" fill-opacity="1" /><path clip-path="url(#clip810)" d="M261.079 574.321 Q255.663 574.321 252.92 579.669 Q250.211 584.981 250.211 595.675 Q250.211 606.335 252.92 611.682 Q255.663 616.995 261.079 616.995 Q266.531 616.995 269.239 611.682 Q271.982 606.335 271.982 595.675 Q271.982 584.981 269.239 579.669 Q266.531 574.321 261.079 574.321 M261.079 568.766 Q269.795 568.766 274.378 575.676 Q278.996 582.551 278.996 595.675 Q278.996 608.766 274.378 615.675 Q269.795 622.55 261.079 622.55 Q252.364 622.55 247.746 615.675 Q243.163 608.766 243.163 595.675 Q243.163 582.551 247.746 575.676 Q252.364 568.766 261.079 568.766 Z" fill="#000000" fill-rule="evenodd" fill-opacity="1" /><path clip-path="url(#clip810)" d="M306.322 574.321 Q300.906 574.321 298.163 579.669 Q295.454 584.981 295.454 595.675 Q295.454 606.335 298.163 611.682 Q300.906 616.995 306.322 616.995 Q311.774 616.995 314.482 611.682 Q317.225 606.335 317.225 595.675 Q317.225 584.981 314.482 579.669 Q311.774 574.321 306.322 574.321 M306.322 568.766 Q315.037 568.766 319.621 575.676 Q324.239 582.551 324.239 595.675 Q324.239 608.766 319.621 615.675 Q315.037 622.55 306.322 622.55 Q297.607 622.55 292.989 615.675 Q288.406 608.766 288.406 595.675 Q288.406 582.551 292.989 575.676 Q297.607 568.766 306.322 568.766 Z" fill="#000000" fill-rule="evenodd" fill-opacity="1" /><path clip-path="url(#clip810)" d="M194.726 356.332 Q189.309 356.332 186.566 361.679 Q183.858 366.992 183.858 377.686 Q183.858 388.346 186.566 393.693 Q189.309 399.006 194.726 399.006 Q200.177 399.006 202.885 393.693 Q205.628 388.346 205.628 377.686 Q205.628 366.992 202.885 361.679 Q200.177 356.332 194.726 356.332 M194.726 350.777 Q203.441 350.777 208.024 357.686 Q212.642 364.561 212.642 377.686 Q212.642 390.776 208.024 397.686 Q203.441 404.561 194.726 404.561 Q186.01 404.561 181.392 397.686 Q176.809 390.776 176.809 377.686 Q176.809 364.561 181.392 357.686 Q186.01 350.777 194.726 350.777 Z" fill="#000000" fill-rule="evenodd" fill-opacity="1" /><path clip-path="url(#clip810)" d="M224.968 394.735 L232.295 394.735 L232.295 403.554 L224.968 403.554 L224.968 394.735 Z" fill="#000000" fill-rule="evenodd" fill-opacity="1" /><path clip-path="url(#clip810)" d="M262.572 356.332 Q257.156 356.332 254.413 361.679 Q251.704 366.992 251.704 377.686 Q251.704 388.346 254.413 393.693 Q257.156 399.006 262.572 399.006 Q268.024 399.006 270.732 393.693 Q273.475 388.346 273.475 377.686 Q273.475 366.992 270.732 361.679 Q268.024 356.332 262.572 356.332 M262.572 350.777 Q271.288 350.777 275.871 357.686 Q280.489 364.561 280.489 377.686 Q280.489 390.776 275.871 397.686 Q271.288 404.561 262.572 404.561 Q253.857 404.561 249.239 397.686 Q244.656 390.776 244.656 377.686 Q244.656 364.561 249.239 357.686 Q253.857 350.777 262.572 350.777 Z" fill="#000000" fill-rule="evenodd" fill-opacity="1" /><path clip-path="url(#clip810)" d="M292.885 351.714 L320.419 351.714 L320.419 357.617 L299.308 357.617 L299.308 370.325 Q300.836 369.804 302.364 369.561 Q303.892 369.284 305.419 369.284 Q314.1 369.284 319.169 374.04 Q324.239 378.797 324.239 386.922 Q324.239 395.29 319.03 399.943 Q313.822 404.561 304.343 404.561 Q301.079 404.561 297.676 404.006 Q294.308 403.45 290.697 402.339 L290.697 395.29 Q293.822 396.992 297.156 397.825 Q300.489 398.658 304.204 398.658 Q310.211 398.658 313.718 395.499 Q317.225 392.339 317.225 386.922 Q317.225 381.506 313.718 378.346 Q310.211 375.186 304.204 375.186 Q301.392 375.186 298.579 375.811 Q295.801 376.436 292.885 377.756 L292.885 351.714 Z" fill="#000000" fill-rule="evenodd" fill-opacity="1" /><path clip-path="url(#clip810)" d="M193.233 138.343 Q187.816 138.343 185.073 143.69 Q182.365 149.003 182.365 159.697 Q182.365 170.357 185.073 175.704 Q187.816 181.016 193.233 181.016 Q198.684 181.016 201.392 175.704 Q204.135 170.357 204.135 159.697 Q204.135 149.003 201.392 143.69 Q198.684 138.343 193.233 138.343 M193.233 132.787 Q201.948 132.787 206.531 139.697 Q211.149 146.572 211.149 159.697 Q211.149 172.787 206.531 179.697 Q201.948 186.572 193.233 186.572 Q184.517 186.572 179.899 179.697 Q175.316 172.787 175.316 159.697 Q175.316 146.572 179.899 139.697 Q184.517 132.787 193.233 132.787 Z" fill="#000000" fill-rule="evenodd" fill-opacity="1" /><path clip-path="url(#clip810)" d="M223.475 176.746 L230.802 176.746 L230.802 185.565 L223.475 185.565 L223.475 176.746 Z" fill="#000000" fill-rule="evenodd" fill-opacity="1" /><path clip-path="url(#clip810)" d="M247.295 179.662 L258.753 179.662 L258.753 140.114 L246.288 142.614 L246.288 136.225 L258.684 133.725 L265.697 133.725 L265.697 179.662 L277.156 179.662 L277.156 185.565 L247.295 185.565 L247.295 179.662 Z" fill="#000000" fill-rule="evenodd" fill-opacity="1" /><path clip-path="url(#clip810)" d="M306.322 138.343 Q300.906 138.343 298.163 143.69 Q295.454 149.003 295.454 159.697 Q295.454 170.357 298.163 175.704 Q300.906 181.016 306.322 181.016 Q311.774 181.016 314.482 175.704 Q317.225 170.357 317.225 159.697 Q317.225 149.003 314.482 143.69 Q311.774 138.343 306.322 138.343 M306.322 132.787 Q315.037 132.787 319.621 139.697 Q324.239 146.572 324.239 159.697 Q324.239 172.787 319.621 179.697 Q315.037 186.572 306.322 186.572 Q297.607 186.572 292.989 179.697 Q288.406 172.787 288.406 159.697 Q288.406 146.572 292.989 139.697 Q297.607 132.787 306.322 132.787 Z" fill="#000000" fill-rule="evenodd" fill-opacity="1" /><path clip-path="url(#clip810)" d="M34.0422 1042.44 L13.0007 1042.44 L13.0007 1036.05 L67.0282 1036.05 L67.0282 1042.44 L61.1949 1042.44 Q64.6671 1044.45 66.3684 1047.54 Q68.0351 1050.6 68.0351 1054.9 Q68.0351 1061.95 62.4101 1066.4 Q56.7852 1070.81 47.6185 1070.81 Q38.4519 1070.81 32.827 1066.4 Q27.202 1061.95 27.202 1054.9 Q27.202 1050.6 28.9034 1047.54 Q30.57 1044.45 34.0422 1042.44 M47.6185 1064.21 Q54.6671 1064.21 58.6949 1061.33 Q62.6879 1058.41 62.6879 1053.34 Q62.6879 1048.27 58.6949 1045.35 Q54.6671 1042.44 47.6185 1042.44 Q40.57 1042.44 36.5769 1045.35 Q32.5492 1048.27 32.5492 1053.34 Q32.5492 1058.41 36.5769 1061.33 Q40.57 1064.21 47.6185 1064.21 Z" fill="#000000" fill-rule="evenodd" fill-opacity="1" /><path clip-path="url(#clip810)" d="M28.1395 1022.89 L28.1395 1016.5 L67.0282 1016.5 L67.0282 1022.89 L28.1395 1022.89 M13.0007 1022.89 L13.0007 1016.5 L21.0909 1016.5 L21.0909 1022.89 L13.0007 1022.89 Z" fill="#000000" fill-rule="evenodd" fill-opacity="1" /><path clip-path="url(#clip810)" d="M29.2853 978.341 L35.3269 978.341 Q33.9381 981.049 33.2436 983.966 Q32.5492 986.882 32.5492 990.007 Q32.5492 994.764 34.0075 997.16 Q35.4658 999.521 38.3825 999.521 Q40.6047 999.521 41.8894 997.82 Q43.1394 996.118 44.2852 990.98 L44.7713 988.792 Q46.2297 981.987 48.9033 979.139 Q51.5421 976.257 56.299 976.257 Q61.7157 976.257 64.8754 980.563 Q68.0351 984.834 68.0351 992.334 Q68.0351 995.459 67.4101 998.862 Q66.8198 1002.23 65.6046 1005.98 L59.0074 1005.98 Q60.8476 1002.44 61.7851 999 Q62.6879 995.563 62.6879 992.195 Q62.6879 987.681 61.1601 985.25 Q59.5976 982.82 56.7852 982.82 Q54.181 982.82 52.7921 984.591 Q51.4032 986.327 50.1185 992.264 L49.5977 994.487 Q48.3477 1000.42 45.7783 1003.06 Q43.1741 1005.7 38.6603 1005.7 Q33.1742 1005.7 30.1881 1001.81 Q27.202 997.924 27.202 990.771 Q27.202 987.23 27.7228 984.105 Q28.2436 980.98 29.2853 978.341 Z" fill="#000000" fill-rule="evenodd" fill-opacity="1" /><path clip-path="url(#clip810)" d="M61.1949 959.903 L81.8197 959.903 L81.8197 966.327 L28.1395 966.327 L28.1395 959.903 L34.0422 959.903 Q30.57 957.89 28.9034 954.834 Q27.202 951.744 27.202 947.473 Q27.202 940.39 32.827 935.98 Q38.4519 931.535 47.6185 931.535 Q56.7852 931.535 62.4101 935.98 Q68.0351 940.39 68.0351 947.473 Q68.0351 951.744 66.3684 954.834 Q64.6671 957.89 61.1949 959.903 M47.6185 938.167 Q40.57 938.167 36.5769 941.084 Q32.5492 943.966 32.5492 949.035 Q32.5492 954.105 36.5769 957.021 Q40.57 959.903 47.6185 959.903 Q54.6671 959.903 58.6949 957.021 Q62.6879 954.105 62.6879 949.035 Q62.6879 943.966 58.6949 941.084 Q54.6671 938.167 47.6185 938.167 Z" fill="#000000" fill-rule="evenodd" fill-opacity="1" /><path clip-path="url(#clip810)" d="M13.0007 920.945 L13.0007 914.556 L67.0282 914.556 L67.0282 920.945 L13.0007 920.945 Z" fill="#000000" fill-rule="evenodd" fill-opacity="1" /><path clip-path="url(#clip810)" d="M47.4797 883.515 Q47.4797 891.258 49.2505 894.244 Q51.0213 897.23 55.2921 897.23 Q58.6949 897.23 60.7087 895.008 Q62.6879 892.751 62.6879 888.897 Q62.6879 883.584 58.9379 880.39 Q55.1532 877.161 48.9033 877.161 L47.4797 877.161 L47.4797 883.515 M44.8408 870.772 L67.0282 870.772 L67.0282 877.161 L61.1254 877.161 Q64.6671 879.348 66.3684 882.612 Q68.0351 885.876 68.0351 890.598 Q68.0351 896.57 64.7018 900.112 Q61.3337 903.619 55.7088 903.619 Q49.1463 903.619 45.813 899.244 Q42.4797 894.834 42.4797 886.119 L42.4797 877.161 L41.8547 877.161 Q37.445 877.161 35.0492 880.077 Q32.6186 882.959 32.6186 888.202 Q32.6186 891.536 33.4172 894.695 Q34.2158 897.855 35.813 900.772 L29.9103 900.772 Q28.5561 897.265 27.8964 893.966 Q27.202 890.668 27.202 887.543 Q27.202 879.105 31.577 874.939 Q35.9519 870.772 44.8408 870.772 Z" fill="#000000" fill-rule="evenodd" fill-opacity="1" /><path clip-path="url(#clip810)" d="M29.6325 829.626 L35.6047 829.626 Q34.1117 832.335 33.3825 835.078 Q32.6186 837.786 32.6186 840.564 Q32.6186 846.779 36.5769 850.216 Q40.5005 853.654 47.6185 853.654 Q54.7366 853.654 58.6949 850.216 Q62.6185 846.779 62.6185 840.564 Q62.6185 837.786 61.8893 835.078 Q61.1254 832.335 59.6324 829.626 L65.5351 829.626 Q66.7851 832.3 67.4101 835.182 Q68.0351 838.029 68.0351 841.258 Q68.0351 850.043 62.5143 855.216 Q56.9935 860.39 47.6185 860.39 Q38.1047 860.39 32.6533 855.182 Q27.202 849.939 27.202 840.842 Q27.202 837.89 27.827 835.078 Q28.4173 832.265 29.6325 829.626 Z" fill="#000000" fill-rule="evenodd" fill-opacity="1" /><path clip-path="url(#clip810)" d="M45.9866 785.252 L49.1116 785.252 L49.1116 814.626 Q55.7088 814.21 59.181 810.668 Q62.6185 807.092 62.6185 800.738 Q62.6185 797.057 61.7157 793.62 Q60.8129 790.147 59.0074 786.745 L65.049 786.745 Q66.5073 790.182 67.2712 793.793 Q68.0351 797.404 68.0351 801.12 Q68.0351 810.425 62.6185 815.876 Q57.2018 821.293 47.9658 821.293 Q38.4172 821.293 32.827 816.154 Q27.202 810.981 27.202 802.231 Q27.202 794.383 32.2714 789.835 Q37.3061 785.252 45.9866 785.252 M44.1116 791.64 Q38.8686 791.71 35.7436 794.592 Q32.6186 797.439 32.6186 802.161 Q32.6186 807.508 35.6394 810.738 Q38.6603 813.932 44.1463 814.418 L44.1116 791.64 Z" fill="#000000" fill-rule="evenodd" fill-opacity="1" /><path clip-path="url(#clip810)" d="M35.6047 744.488 Q31.2992 742.092 29.2506 738.759 Q27.202 735.425 27.202 730.912 Q27.202 724.835 31.4728 721.537 Q35.7089 718.238 43.5561 718.238 L67.0282 718.238 L67.0282 724.662 L43.7644 724.662 Q38.1741 724.662 35.4658 726.641 Q32.7575 728.62 32.7575 732.682 Q32.7575 737.648 36.0561 740.53 Q39.3547 743.412 45.0491 743.412 L67.0282 743.412 L67.0282 749.835 L43.7644 749.835 Q38.1394 749.835 35.4658 751.814 Q32.7575 753.793 32.7575 757.925 Q32.7575 762.821 36.0908 765.703 Q39.3894 768.585 45.0491 768.585 L67.0282 768.585 L67.0282 775.009 L28.1395 775.009 L28.1395 768.585 L34.1811 768.585 Q30.6047 766.397 28.9034 763.342 Q27.202 760.286 27.202 756.085 Q27.202 751.849 29.3547 748.898 Q31.5075 745.911 35.6047 744.488 Z" fill="#000000" fill-rule="evenodd" fill-opacity="1" /><path clip-path="url(#clip810)" d="M45.9866 672.231 L49.1116 672.231 L49.1116 701.606 Q55.7088 701.19 59.181 697.648 Q62.6185 694.071 62.6185 687.717 Q62.6185 684.037 61.7157 680.599 Q60.8129 677.127 59.0074 673.724 L65.049 673.724 Q66.5073 677.162 67.2712 680.773 Q68.0351 684.384 68.0351 688.099 Q68.0351 697.405 62.6185 702.856 Q57.2018 708.273 47.9658 708.273 Q38.4172 708.273 32.827 703.134 Q27.202 697.96 27.202 689.21 Q27.202 681.363 32.2714 676.815 Q37.3061 672.231 45.9866 672.231 M44.1116 678.62 Q38.8686 678.69 35.7436 681.572 Q32.6186 684.419 32.6186 689.141 Q32.6186 694.488 35.6394 697.717 Q38.6603 700.912 44.1463 701.398 L44.1116 678.62 Z" fill="#000000" fill-rule="evenodd" fill-opacity="1" /><path clip-path="url(#clip810)" d="M43.5561 629.419 L67.0282 629.419 L67.0282 635.808 L43.7644 635.808 Q38.2436 635.808 35.5005 637.961 Q32.7575 640.113 32.7575 644.419 Q32.7575 649.593 36.0561 652.579 Q39.3547 655.565 45.0491 655.565 L67.0282 655.565 L67.0282 661.988 L28.1395 661.988 L28.1395 655.565 L34.1811 655.565 Q30.6742 653.273 28.9381 650.183 Q27.202 647.058 27.202 642.995 Q27.202 636.294 31.3686 632.857 Q35.5005 629.419 43.5561 629.419 Z" fill="#000000" fill-rule="evenodd" fill-opacity="1" /><path clip-path="url(#clip810)" d="M17.0979 610.357 L28.1395 610.357 L28.1395 597.197 L33.1047 597.197 L33.1047 610.357 L54.2157 610.357 Q58.9726 610.357 60.3268 609.072 Q61.681 607.753 61.681 603.759 L61.681 597.197 L67.0282 597.197 L67.0282 603.759 Q67.0282 611.155 64.2851 613.968 Q61.5074 616.78 54.2157 616.78 L33.1047 616.78 L33.1047 621.468 L28.1395 621.468 L28.1395 616.78 L17.0979 616.78 L17.0979 610.357 Z" fill="#000000" fill-rule="evenodd" fill-opacity="1" /><path clip-path="url(#clip810)" d="M13.0007 566.781 L13.0007 552.058 L17.9659 552.058 L17.9659 560.392 L71.4379 560.392 L71.4379 552.058 L76.4031 552.058 L76.4031 566.781 L13.0007 566.781 Z" fill="#000000" fill-rule="evenodd" fill-opacity="1" /><path clip-path="url(#clip810)" d="M35.6047 508.17 Q31.2992 505.774 29.2506 502.441 Q27.202 499.107 27.202 494.593 Q27.202 488.517 31.4728 485.218 Q35.7089 481.92 43.5561 481.92 L67.0282 481.92 L67.0282 488.343 L43.7644 488.343 Q38.1741 488.343 35.4658 490.323 Q32.7575 492.302 32.7575 496.364 Q32.7575 501.329 36.0561 504.211 Q39.3547 507.093 45.0491 507.093 L67.0282 507.093 L67.0282 513.517 L43.7644 513.517 Q38.1394 513.517 35.4658 515.496 Q32.7575 517.475 32.7575 521.607 Q32.7575 526.503 36.0908 529.385 Q39.3894 532.267 45.0491 532.267 L67.0282 532.267 L67.0282 538.69 L28.1395 538.69 L28.1395 532.267 L34.1811 532.267 Q30.6047 530.079 28.9034 527.024 Q27.202 523.968 27.202 519.767 Q27.202 515.531 29.3547 512.579 Q31.5075 509.593 35.6047 508.17 Z" fill="#000000" fill-rule="evenodd" fill-opacity="1" /><path clip-path="url(#clip810)" d="M13.0007 454.246 L76.4031 454.246 L76.4031 468.969 L71.4379 468.969 L71.4379 460.67 L17.9659 460.67 L17.9659 468.969 L13.0007 468.969 L13.0007 454.246 Z" fill="#000000" fill-rule="evenodd" fill-opacity="1" /><path clip-path="url(#clip810)" d="M905.814 18.8205 L905.814 65.8515 L915.698 65.8515 Q928.215 65.8515 934.008 60.1802 Q939.842 54.509 939.842 42.2752 Q939.842 30.1225 934.008 24.4918 Q928.215 18.8205 915.698 18.8205 L905.814 18.8205 M897.631 12.096 L914.442 12.096 Q932.023 12.096 940.247 19.4281 Q948.47 26.7198 948.47 42.2752 Q948.47 57.9117 940.206 65.2439 Q931.942 72.576 914.442 72.576 L897.631 72.576 L897.631 12.096 Z" fill="#000000" fill-rule="evenodd" fill-opacity="1" /><path clip-path="url(#clip810)" d="M961.19 27.2059 L968.644 27.2059 L968.644 72.576 L961.19 72.576 L961.19 27.2059 M961.19 9.54393 L968.644 9.54393 L968.644 18.9825 L961.19 18.9825 L961.19 9.54393 Z" fill="#000000" fill-rule="evenodd" fill-opacity="1" /><path clip-path="url(#clip810)" d="M1013.16 28.5427 L1013.16 35.5912 Q1010 33.9709 1006.6 33.1607 Q1003.2 32.3505 999.552 32.3505 Q994.002 32.3505 991.207 34.0519 Q988.452 35.7533 988.452 39.156 Q988.452 41.7486 990.437 43.2475 Q992.422 44.7058 998.418 46.0426 L1000.97 46.6097 Q1008.91 48.3111 1012.23 51.4303 Q1015.59 54.509 1015.59 60.0587 Q1015.59 66.3781 1010.57 70.0644 Q1005.59 73.7508 996.838 73.7508 Q993.192 73.7508 989.222 73.0216 Q985.293 72.3329 980.918 70.9151 L980.918 63.2184 Q985.05 65.3654 989.06 66.4591 Q993.07 67.5124 997 67.5124 Q1002.27 67.5124 1005.1 65.73 Q1007.94 63.9071 1007.94 60.6258 Q1007.94 57.5877 1005.87 55.9673 Q1003.85 54.3469 996.919 52.8481 L994.326 52.2405 Q987.399 50.7821 984.321 47.7845 Q981.242 44.7463 981.242 39.4801 Q981.242 33.0797 985.779 29.5959 Q990.316 26.1121 998.661 26.1121 Q1002.79 26.1121 1006.44 26.7198 Q1010.08 27.3274 1013.16 28.5427 Z" fill="#000000" fill-rule="evenodd" fill-opacity="1" /><path clip-path="url(#clip810)" d="M1034.67 65.7705 L1034.67 89.8329 L1027.18 89.8329 L1027.18 27.2059 L1034.67 27.2059 L1034.67 34.0924 Q1037.02 30.0415 1040.59 28.0971 Q1044.19 26.1121 1049.18 26.1121 Q1057.44 26.1121 1062.58 32.6746 Q1067.77 39.2371 1067.77 49.9314 Q1067.77 60.6258 1062.58 67.1883 Q1057.44 73.7508 1049.18 73.7508 Q1044.19 73.7508 1040.59 71.8063 Q1037.02 69.8214 1034.67 65.7705 M1060.03 49.9314 Q1060.03 41.7081 1056.63 37.0496 Q1053.27 32.3505 1047.35 32.3505 Q1041.44 32.3505 1038.04 37.0496 Q1034.67 41.7081 1034.67 49.9314 Q1034.67 58.1548 1038.04 62.8538 Q1041.44 67.5124 1047.35 67.5124 Q1053.27 67.5124 1056.63 62.8538 Q1060.03 58.1548 1060.03 49.9314 Z" fill="#000000" fill-rule="evenodd" fill-opacity="1" /><path clip-path="url(#clip810)" d="M1080.12 9.54393 L1087.58 9.54393 L1087.58 72.576 L1080.12 72.576 L1080.12 9.54393 Z" fill="#000000" fill-rule="evenodd" fill-opacity="1" /><path clip-path="url(#clip810)" d="M1123.79 49.7694 Q1114.76 49.7694 1111.28 51.8354 Q1107.79 53.9013 1107.79 58.8839 Q1107.79 62.8538 1110.38 65.2034 Q1113.02 67.5124 1117.51 67.5124 Q1123.71 67.5124 1127.44 63.1374 Q1131.21 58.7219 1131.21 51.4303 L1131.21 49.7694 L1123.79 49.7694 M1138.66 46.6907 L1138.66 72.576 L1131.21 72.576 L1131.21 65.6895 Q1128.65 69.8214 1124.85 71.8063 Q1121.04 73.7508 1115.53 73.7508 Q1108.56 73.7508 1104.43 69.8619 Q1100.34 65.9325 1100.34 59.3701 Q1100.34 51.7138 1105.44 47.825 Q1110.59 43.9361 1120.75 43.9361 L1131.21 43.9361 L1131.21 43.2069 Q1131.21 38.0623 1127.8 35.2672 Q1124.44 32.4315 1118.32 32.4315 Q1114.44 32.4315 1110.75 33.3632 Q1107.06 34.295 1103.66 36.1584 L1103.66 29.2718 Q1107.75 27.692 1111.6 26.9223 Q1115.45 26.1121 1119.09 26.1121 Q1128.94 26.1121 1133.8 31.2163 Q1138.66 36.3204 1138.66 46.6907 Z" fill="#000000" fill-rule="evenodd" fill-opacity="1" /><path clip-path="url(#clip810)" d="M1186.66 28.9478 L1186.66 35.9153 Q1183.5 34.1734 1180.3 33.3227 Q1177.14 32.4315 1173.9 32.4315 Q1166.65 32.4315 1162.64 37.0496 Q1158.63 41.6271 1158.63 49.9314 Q1158.63 58.2358 1162.64 62.8538 Q1166.65 67.4314 1173.9 67.4314 Q1177.14 67.4314 1180.3 66.5807 Q1183.5 65.6895 1186.66 63.9476 L1186.66 70.8341 Q1183.54 72.2924 1180.18 73.0216 Q1176.86 73.7508 1173.09 73.7508 Q1162.84 73.7508 1156.81 67.3098 Q1150.77 60.8689 1150.77 49.9314 Q1150.77 38.832 1156.85 32.472 Q1162.97 26.1121 1173.58 26.1121 Q1177.02 26.1121 1180.3 26.8413 Q1183.58 27.5299 1186.66 28.9478 Z" fill="#000000" fill-rule="evenodd" fill-opacity="1" /><path clip-path="url(#clip810)" d="M1238.43 48.0275 L1238.43 51.6733 L1204.16 51.6733 Q1204.65 59.3701 1208.78 63.421 Q1212.95 67.4314 1220.37 67.4314 Q1224.66 67.4314 1228.67 66.3781 Q1232.72 65.3249 1236.69 63.2184 L1236.69 70.267 Q1232.68 71.9684 1228.47 72.8596 Q1224.26 73.7508 1219.92 73.7508 Q1209.06 73.7508 1202.7 67.4314 Q1196.39 61.1119 1196.39 50.3365 Q1196.39 39.1965 1202.38 32.6746 Q1208.42 26.1121 1218.62 26.1121 Q1227.78 26.1121 1233.09 32.0264 Q1238.43 37.9003 1238.43 48.0275 M1230.98 45.84 Q1230.9 39.7232 1227.54 36.0774 Q1224.22 32.4315 1218.71 32.4315 Q1212.47 32.4315 1208.7 35.9558 Q1204.97 39.4801 1204.41 45.8805 L1230.98 45.84 Z" fill="#000000" fill-rule="evenodd" fill-opacity="1" /><path clip-path="url(#clip810)" d="M1285.99 35.9153 Q1288.79 30.8922 1292.68 28.5022 Q1296.56 26.1121 1301.83 26.1121 Q1308.92 26.1121 1312.77 31.0947 Q1316.62 36.0368 1316.62 45.1919 L1316.62 72.576 L1309.12 72.576 L1309.12 45.4349 Q1309.12 38.913 1306.81 35.7533 Q1304.5 32.5936 1299.76 32.5936 Q1293.97 32.5936 1290.61 36.4419 Q1287.25 40.2903 1287.25 46.9338 L1287.25 72.576 L1279.75 72.576 L1279.75 45.4349 Q1279.75 38.8725 1277.44 35.7533 Q1275.13 32.5936 1270.31 32.5936 Q1264.6 32.5936 1261.24 36.4824 Q1257.88 40.3308 1257.88 46.9338 L1257.88 72.576 L1250.38 72.576 L1250.38 27.2059 L1257.88 27.2059 L1257.88 34.2544 Q1260.43 30.082 1263.99 28.0971 Q1267.56 26.1121 1272.46 26.1121 Q1277.4 26.1121 1280.85 28.6237 Q1284.33 31.1352 1285.99 35.9153 Z" fill="#000000" fill-rule="evenodd" fill-opacity="1" /><path clip-path="url(#clip810)" d="M1370.29 48.0275 L1370.29 51.6733 L1336.02 51.6733 Q1336.51 59.3701 1340.64 63.421 Q1344.81 67.4314 1352.22 67.4314 Q1356.52 67.4314 1360.53 66.3781 Q1364.58 65.3249 1368.55 63.2184 L1368.55 70.267 Q1364.54 71.9684 1360.33 72.8596 Q1356.11 73.7508 1351.78 73.7508 Q1340.92 73.7508 1334.56 67.4314 Q1328.24 61.1119 1328.24 50.3365 Q1328.24 39.1965 1334.24 32.6746 Q1340.27 26.1121 1350.48 26.1121 Q1359.64 26.1121 1364.94 32.0264 Q1370.29 37.9003 1370.29 48.0275 M1362.84 45.84 Q1362.76 39.7232 1359.39 36.0774 Q1356.07 32.4315 1350.56 32.4315 Q1344.32 32.4315 1340.56 35.9558 Q1336.83 39.4801 1336.26 45.8805 L1362.84 45.84 Z" fill="#000000" fill-rule="evenodd" fill-opacity="1" /><path clip-path="url(#clip810)" d="M1420.24 45.1919 L1420.24 72.576 L1412.78 72.576 L1412.78 45.4349 Q1412.78 38.994 1410.27 35.7938 Q1407.76 32.5936 1402.74 32.5936 Q1396.7 32.5936 1393.22 36.4419 Q1389.74 40.2903 1389.74 46.9338 L1389.74 72.576 L1382.24 72.576 L1382.24 27.2059 L1389.74 27.2059 L1389.74 34.2544 Q1392.41 30.163 1396.01 28.1376 Q1399.66 26.1121 1404.4 26.1121 Q1412.22 26.1121 1416.23 30.9732 Q1420.24 35.7938 1420.24 45.1919 Z" fill="#000000" fill-rule="evenodd" fill-opacity="1" /><path clip-path="url(#clip810)" d="M1442.48 14.324 L1442.48 27.2059 L1457.83 27.2059 L1457.83 32.9987 L1442.48 32.9987 L1442.48 57.6282 Q1442.48 63.1779 1443.98 64.7578 Q1445.52 66.3376 1450.17 66.3376 L1457.83 66.3376 L1457.83 72.576 L1450.17 72.576 Q1441.55 72.576 1438.26 69.3758 Q1434.98 66.1351 1434.98 57.6282 L1434.98 32.9987 L1429.51 32.9987 L1429.51 27.2059 L1434.98 27.2059 L1434.98 14.324 L1442.48 14.324 Z" fill="#000000" fill-rule="evenodd" fill-opacity="1" /><path clip-path="url(#clip810)" d="M1529.33 35.9153 Q1532.12 30.8922 1536.01 28.5022 Q1539.9 26.1121 1545.17 26.1121 Q1552.26 26.1121 1556.11 31.0947 Q1559.95 36.0368 1559.95 45.1919 L1559.95 72.576 L1552.46 72.576 L1552.46 45.4349 Q1552.46 38.913 1550.15 35.7533 Q1547.84 32.5936 1543.1 32.5936 Q1537.31 32.5936 1533.95 36.4419 Q1530.58 40.2903 1530.58 46.9338 L1530.58 72.576 L1523.09 72.576 L1523.09 45.4349 Q1523.09 38.8725 1520.78 35.7533 Q1518.47 32.5936 1513.65 32.5936 Q1507.94 32.5936 1504.58 36.4824 Q1501.22 40.3308 1501.22 46.9338 L1501.22 72.576 L1493.72 72.576 L1493.72 27.2059 L1501.22 27.2059 L1501.22 34.2544 Q1503.77 30.082 1507.33 28.0971 Q1510.9 26.1121 1515.8 26.1121 Q1520.74 26.1121 1524.18 28.6237 Q1527.67 31.1352 1529.33 35.9153 Z" fill="#000000" fill-rule="evenodd" fill-opacity="1" /><path clip-path="url(#clip810)" d="M1592.4 32.4315 Q1586.41 32.4315 1582.92 37.1306 Q1579.44 41.7891 1579.44 49.9314 Q1579.44 58.0738 1582.88 62.7728 Q1586.37 67.4314 1592.4 67.4314 Q1598.36 67.4314 1601.84 62.7323 Q1605.32 58.0333 1605.32 49.9314 Q1605.32 41.8701 1601.84 37.1711 Q1598.36 32.4315 1592.4 32.4315 M1592.4 26.1121 Q1602.12 26.1121 1607.67 32.4315 Q1613.22 38.7509 1613.22 49.9314 Q1613.22 61.0714 1607.67 67.4314 Q1602.12 73.7508 1592.4 73.7508 Q1582.64 73.7508 1577.09 67.4314 Q1571.58 61.0714 1571.58 49.9314 Q1571.58 38.7509 1577.09 32.4315 Q1582.64 26.1121 1592.4 26.1121 Z" fill="#000000" fill-rule="evenodd" fill-opacity="1" /><path clip-path="url(#clip810)" d="M1655.43 34.0924 L1655.43 9.54393 L1662.89 9.54393 L1662.89 72.576 L1655.43 72.576 L1655.43 65.7705 Q1653.08 69.8214 1649.48 71.8063 Q1645.91 73.7508 1640.89 73.7508 Q1632.67 73.7508 1627.48 67.1883 Q1622.34 60.6258 1622.34 49.9314 Q1622.34 39.2371 1627.48 32.6746 Q1632.67 26.1121 1640.89 26.1121 Q1645.91 26.1121 1649.48 28.0971 Q1653.08 30.0415 1655.43 34.0924 M1630.03 49.9314 Q1630.03 58.1548 1633.4 62.8538 Q1636.8 67.5124 1642.71 67.5124 Q1648.63 67.5124 1652.03 62.8538 Q1655.43 58.1548 1655.43 49.9314 Q1655.43 41.7081 1652.03 37.0496 Q1648.63 32.3505 1642.71 32.3505 Q1636.8 32.3505 1633.4 37.0496 Q1630.03 41.7081 1630.03 49.9314 Z" fill="#000000" fill-rule="evenodd" fill-opacity="1" /><path clip-path="url(#clip810)" d="M1717.05 48.0275 L1717.05 51.6733 L1682.78 51.6733 Q1683.26 59.3701 1687.4 63.421 Q1691.57 67.4314 1698.98 67.4314 Q1703.27 67.4314 1707.29 66.3781 Q1711.34 65.3249 1715.31 63.2184 L1715.31 70.267 Q1711.3 71.9684 1707.08 72.8596 Q1702.87 73.7508 1698.54 73.7508 Q1687.68 73.7508 1681.32 67.4314 Q1675 61.1119 1675 50.3365 Q1675 39.1965 1681 32.6746 Q1687.03 26.1121 1697.24 26.1121 Q1706.39 26.1121 1711.7 32.0264 Q1717.05 37.9003 1717.05 48.0275 M1709.59 45.84 Q1709.51 39.7232 1706.15 36.0774 Q1702.83 32.4315 1697.32 32.4315 Q1691.08 32.4315 1687.31 35.9558 Q1683.59 39.4801 1683.02 45.8805 L1709.59 45.84 Z" fill="#000000" fill-rule="evenodd" fill-opacity="1" /><path clip-path="url(#clip810)" d="M1729.28 9.54393 L1736.74 9.54393 L1736.74 72.576 L1729.28 72.576 L1729.28 9.54393 Z" fill="#000000" fill-rule="evenodd" fill-opacity="1" /><path clip-path="url(#clip810)" d="M1786.8 65.6895 L1815.36 65.6895 L1815.36 72.576 L1776.96 72.576 L1776.96 65.6895 Q1781.62 60.8689 1789.64 52.7671 Q1797.7 44.6248 1799.77 42.2752 Q1803.7 37.8598 1805.24 34.8216 Q1806.82 31.7429 1806.82 28.7857 Q1806.82 23.9651 1803.41 20.927 Q1800.05 17.8888 1794.62 17.8888 Q1790.77 17.8888 1786.48 19.2256 Q1782.23 20.5624 1777.37 23.2765 L1777.37 15.0127 Q1782.31 13.0277 1786.6 12.015 Q1790.9 11.0023 1794.46 11.0023 Q1803.86 11.0023 1809.45 15.7013 Q1815.04 20.4004 1815.04 28.2591 Q1815.04 31.9859 1813.62 35.3482 Q1812.24 38.6699 1808.56 43.2069 Q1807.55 44.3817 1802.12 50.0125 Q1796.69 55.6027 1786.8 65.6895 Z" fill="#000000" fill-rule="evenodd" fill-opacity="1" /><polyline clip-path="url(#clip812)" style="stroke:#009af9; stroke-linecap:round; stroke-linejoin:round; stroke-width:8; stroke-opacity:1; fill:none" points="
  416.631,159.645 2296.36,159.645 
  "/>
<polyline clip-path="url(#clip812)" style="stroke:#e26f46; stroke-linecap:round; stroke-linejoin:round; stroke-width:8; stroke-opacity:1; fill:none" points="
  416.631,595.623 2296.36,595.623 
  "/>
<polyline clip-path="url(#clip812)" style="stroke:#008000; stroke-linecap:round; stroke-linejoin:round; stroke-width:8; stroke-opacity:1; fill:none" stroke-dasharray="4, 8" points="
  416.631,1315.35 421.33,1315.29 426.029,1315.1 430.729,1314.78 435.428,1314.34 440.127,1313.77 444.827,1313.07 449.526,1312.24 454.225,1311.29 458.925,1310.21 
  463.624,1309 468.323,1307.67 473.023,1306.21 477.722,1304.62 482.421,1302.92 487.121,1301.09 491.82,1299.14 496.519,1297.08 501.219,1294.89 505.918,1292.59 
  510.617,1290.18 515.317,1287.66 520.016,1285.03 524.715,1282.3 529.415,1279.46 534.114,1276.52 538.813,1273.49 543.513,1270.36 548.212,1267.14 552.911,1263.84 
  557.611,1260.44 562.31,1256.97 567.009,1253.42 571.709,1249.79 576.408,1246.09 581.107,1242.33 585.807,1238.5 590.506,1234.61 595.205,1230.66 599.905,1226.67 
  604.604,1222.62 609.303,1218.53 614.003,1214.4 618.702,1210.23 623.401,1206.03 628.101,1201.8 632.8,1197.55 637.499,1193.28 642.199,1189 646.898,1184.71 
  651.597,1180.41 656.297,1176.1 660.996,1171.8 665.695,1167.51 670.395,1163.23 675.094,1158.96 679.793,1154.72 684.493,1150.49 689.192,1146.3 693.891,1142.14 
  698.591,1138.01 703.29,1133.93 707.989,1129.89 712.689,1125.9 717.388,1121.96 722.087,1118.08 726.787,1114.26 731.486,1110.51 736.185,1106.82 740.885,1103.21 
  745.584,1099.67 750.283,1096.21 754.983,1092.83 759.682,1089.54 764.381,1086.34 769.081,1083.23 773.78,1080.22 778.479,1077.31 783.179,1074.5 787.878,1071.79 
  792.577,1069.2 797.277,1066.71 801.976,1064.34 806.675,1062.08 811.375,1059.94 816.074,1057.92 820.773,1056.02 825.473,1054.25 830.172,1052.61 834.871,1051.09 
  839.571,1049.71 844.27,1048.46 848.969,1047.35 853.669,1046.37 858.368,1045.53 863.067,1044.82 867.767,1044.26 872.466,1043.85 877.165,1043.57 881.865,1043.44 
  886.564,1043.46 891.263,1043.58 895.963,1043.8 900.662,1044.13 905.361,1044.56 910.061,1045.09 914.76,1045.73 919.459,1046.48 924.159,1047.33 928.858,1048.29 
  933.557,1049.35 938.257,1050.52 942.956,1051.79 947.655,1053.16 952.355,1054.64 957.054,1056.21 961.753,1057.88 966.453,1059.66 971.152,1061.52 975.851,1063.48 
  980.551,1065.54 985.25,1067.68 989.949,1069.91 994.649,1072.24 999.348,1074.64 1004.05,1077.13 1008.75,1079.7 1013.45,1082.35 1018.15,1085.07 1022.84,1087.86 
  1027.54,1090.73 1032.24,1093.66 1036.94,1096.66 1041.64,1099.72 1046.34,1102.83 1051.04,1106 1055.74,1109.22 1060.44,1112.5 1065.14,1115.82 1069.84,1119.18 
  1074.54,1122.58 1079.24,1126.01 1083.94,1129.48 1088.64,1132.98 1093.33,1136.5 1098.03,1140.04 1102.73,1143.6 1107.43,1147.18 1112.13,1150.77 1116.83,1154.36 
  1121.53,1157.96 1126.23,1161.56 1130.93,1165.16 1135.63,1168.75 1140.33,1172.33 1145.03,1175.89 1149.73,1179.44 1154.43,1182.97 1159.13,1186.47 1163.82,1189.94 
  1168.52,1193.39 1173.22,1196.79 1177.92,1200.16 1182.62,1203.49 1187.32,1206.77 1192.02,1210 1196.72,1213.18 1201.42,1216.31 1206.12,1219.37 1210.82,1222.38 
  1215.52,1225.32 1220.22,1228.2 1224.92,1231 1229.62,1233.73 1234.31,1236.38 1239.01,1238.96 1243.71,1241.45 1248.41,1243.86 1253.11,1246.19 1257.81,1248.42 
  1262.51,1250.56 1267.21,1252.61 1271.91,1254.56 1276.61,1256.42 1281.31,1258.17 1286.01,1259.82 1290.71,1261.37 1295.41,1262.81 1300.11,1264.14 1304.8,1265.36 
  1309.5,1266.48 1314.2,1267.48 1318.9,1268.36 1323.6,1269.13 1328.3,1269.78 1333,1270.31 1337.7,1270.72 1342.4,1271.01 1347.1,1271.18 1351.8,1271.22 
  1356.5,1271.16 1361.2,1271.02 1365.9,1270.8 1370.6,1270.5 1375.29,1270.12 1379.99,1269.65 1384.69,1269.1 1389.39,1268.47 1394.09,1267.76 1398.79,1266.96 
  1403.49,1266.09 1408.19,1265.13 1412.89,1264.08 1417.59,1262.96 1422.29,1261.76 1426.99,1260.48 1431.69,1259.12 1436.39,1257.69 1441.09,1256.18 1445.78,1254.59 
  1450.48,1252.93 1455.18,1251.2 1459.88,1249.4 1464.58,1247.54 1469.28,1245.6 1473.98,1243.6 1478.68,1241.54 1483.38,1239.42 1488.08,1237.23 1492.78,1234.99 
  1497.48,1232.7 1502.18,1230.35 1506.88,1227.95 1511.58,1225.51 1516.27,1223.01 1520.97,1220.48 1525.67,1217.9 1530.37,1215.29 1535.07,1212.64 1539.77,1209.95 
  1544.47,1207.24 1549.17,1204.5 1553.87,1201.73 1558.57,1198.94 1563.27,1196.13 1567.97,1193.3 1572.67,1190.46 1577.37,1187.61 1582.07,1184.75 1586.76,1181.89 
  1591.46,1179.02 1596.16,1176.15 1600.86,1173.28 1605.56,1170.42 1610.26,1167.57 1614.96,1164.73 1619.66,1161.9 1624.36,1159.09 1629.06,1156.3 1633.76,1153.54 
  1638.46,1150.8 1643.16,1148.09 1647.86,1145.41 1652.56,1142.76 1657.25,1140.15 1661.95,1137.58 1666.65,1135.05 1671.35,1132.56 1676.05,1130.13 1680.75,1127.74 
  1685.45,1125.41 1690.15,1123.13 1694.85,1120.9 1699.55,1118.74 1704.25,1116.64 1708.95,1114.6 1713.65,1112.63 1718.35,1110.72 1723.05,1108.89 1727.74,1107.13 
  1732.44,1105.44 1737.14,1103.83 1741.84,1102.3 1746.54,1100.85 1751.24,1099.47 1755.94,1098.19 1760.64,1096.98 1765.34,1095.87 1770.04,1094.84 1774.74,1093.9 
  1779.44,1093.05 1784.14,1092.29 1788.84,1091.62 1793.54,1091.05 1798.23,1090.58 1802.93,1090.2 1807.63,1089.92 1812.33,1089.73 1817.03,1089.65 1821.73,1089.67 
  1826.43,1089.74 1831.13,1089.87 1835.83,1090.06 1840.53,1090.3 1845.23,1090.6 1849.93,1090.96 1854.63,1091.37 1859.33,1091.85 1864.03,1092.38 1868.72,1092.97 
  1873.42,1093.62 1878.12,1094.32 1882.82,1095.09 1887.52,1095.91 1892.22,1096.79 1896.92,1097.72 1901.62,1098.71 1906.32,1099.75 1911.02,1100.85 1915.72,1102 
  1920.42,1103.2 1925.12,1104.45 1929.82,1105.75 1934.52,1107.1 1939.21,1108.5 1943.91,1109.94 1948.61,1111.43 1953.31,1112.96 1958.01,1114.54 1962.71,1116.15 
  1967.41,1117.81 1972.11,1119.5 1976.81,1121.23 1981.51,1122.99 1986.21,1124.79 1990.91,1126.62 1995.61,1128.48 2000.31,1130.36 2005.01,1132.27 2009.7,1134.21 
  2014.4,1136.17 2019.1,1138.15 2023.8,1140.15 2028.5,1142.16 2033.2,1144.19 2037.9,1146.23 2042.6,1148.28 2047.3,1150.34 2052,1152.41 2056.7,1154.48 
  2061.4,1156.55 2066.1,1158.62 2070.8,1160.7 2075.5,1162.76 2080.19,1164.83 2084.89,1166.88 2089.59,1168.92 2094.29,1170.95 2098.99,1172.97 2103.69,1174.97 
  2108.39,1176.95 2113.09,1178.92 2117.79,1180.86 2122.49,1182.77 2127.19,1184.66 2131.89,1186.52 2136.59,1188.35 2141.29,1190.15 2145.99,1191.91 2150.68,1193.64 
  2155.38,1195.33 2160.08,1196.98 2164.78,1198.59 2169.48,1200.16 2174.18,1201.68 2178.88,1203.16 2183.58,1204.59 2188.28,1205.96 2192.98,1207.29 2197.68,1208.56 
  2202.38,1209.78 2207.08,1210.95 2211.78,1212.06 2216.48,1213.11 2221.17,1214.09 2225.87,1215.02 2230.57,1215.89 2235.27,1216.69 2239.97,1217.43 2244.67,1218.1 
  2249.37,1218.71 2254.07,1219.24 2258.77,1219.71 2263.47,1220.11 2268.17,1220.44 2272.87,1220.7 2277.57,1220.88 2282.27,1220.99 2286.97,1221.03 2291.66,1221.01 
  2296.36,1220.96 
  "/>
<polyline clip-path="url(#clip812)" style="stroke:#008000; stroke-linecap:round; stroke-linejoin:round; stroke-width:8; stroke-opacity:1; fill:none" points="
  416.631,1365.41 421.33,1365.35 426.029,1365.19 430.729,1364.91 435.428,1364.53 440.127,1364.04 444.827,1363.44 449.526,1362.73 454.225,1361.91 458.925,1360.98 
  463.624,1359.94 468.323,1358.79 473.023,1357.53 477.722,1356.17 482.421,1354.7 487.121,1353.12 491.82,1351.45 496.519,1349.67 501.219,1347.79 505.918,1345.81 
  510.617,1343.73 515.317,1341.56 520.016,1339.3 524.715,1336.94 529.415,1334.5 534.114,1331.97 538.813,1329.36 543.513,1326.66 548.212,1323.89 552.911,1321.04 
  557.611,1318.12 562.31,1315.13 567.009,1312.07 571.709,1308.95 576.408,1305.77 581.107,1302.53 585.807,1299.23 590.506,1295.88 595.205,1292.48 599.905,1289.04 
  604.604,1285.55 609.303,1282.03 614.003,1278.47 618.702,1274.89 623.401,1271.27 628.101,1267.63 632.8,1263.97 637.499,1260.29 642.199,1256.6 646.898,1252.91 
  651.597,1249.2 656.297,1245.5 660.996,1241.8 665.695,1238.1 670.395,1234.41 675.094,1230.74 679.793,1227.08 684.493,1223.45 689.192,1219.83 693.891,1216.25 
  698.591,1212.7 703.29,1209.18 707.989,1205.7 712.689,1202.27 717.388,1198.88 722.087,1195.54 726.787,1192.25 731.486,1189.01 736.185,1185.84 740.885,1182.73 
  745.584,1179.68 750.283,1176.7 754.983,1173.79 759.682,1170.96 764.381,1168.21 769.081,1165.53 773.78,1162.94 778.479,1160.43 783.179,1158.01 787.878,1155.68 
  792.577,1153.44 797.277,1151.3 801.976,1149.26 806.675,1147.31 811.375,1145.47 816.074,1143.73 820.773,1142.1 825.473,1140.57 830.172,1139.16 834.871,1137.85 
  839.571,1136.66 844.27,1135.59 848.969,1134.63 853.669,1133.78 858.368,1133.06 863.067,1132.45 867.767,1131.97 872.466,1131.61 877.165,1131.38 881.865,1131.26 
  886.564,1131.28 891.263,1131.38 895.963,1131.57 900.662,1131.85 905.361,1132.22 910.061,1132.69 914.76,1133.24 919.459,1133.88 924.159,1134.62 928.858,1135.44 
  933.557,1136.36 938.257,1137.36 942.956,1138.45 947.655,1139.64 952.355,1140.91 957.054,1142.26 961.753,1143.7 966.453,1145.23 971.152,1146.83 975.851,1148.52 
  980.551,1150.29 985.25,1152.14 989.949,1154.06 994.649,1156.06 999.348,1158.13 1004.05,1160.27 1008.75,1162.48 1013.45,1164.76 1018.15,1167.11 1022.84,1169.52 
  1027.54,1171.98 1032.24,1174.51 1036.94,1177.09 1041.64,1179.72 1046.34,1182.4 1051.04,1185.13 1055.74,1187.91 1060.44,1190.73 1065.14,1193.59 1069.84,1196.48 
  1074.54,1199.41 1079.24,1202.36 1083.94,1205.35 1088.64,1208.36 1093.33,1211.39 1098.03,1214.45 1102.73,1217.51 1107.43,1220.59 1112.13,1223.68 1116.83,1226.78 
  1121.53,1229.88 1126.23,1232.98 1130.93,1236.07 1135.63,1239.17 1140.33,1242.25 1145.03,1245.32 1149.73,1248.37 1154.43,1251.41 1159.13,1254.42 1163.82,1257.42 
  1168.52,1260.38 1173.22,1263.31 1177.92,1266.21 1182.62,1269.08 1187.32,1271.9 1192.02,1274.69 1196.72,1277.43 1201.42,1280.12 1206.12,1282.76 1210.82,1285.35 
  1215.52,1287.88 1220.22,1290.36 1224.92,1292.77 1229.62,1295.12 1234.31,1297.41 1239.01,1299.62 1243.71,1301.77 1248.41,1303.85 1253.11,1305.85 1257.81,1307.77 
  1262.51,1309.61 1267.21,1311.38 1271.91,1313.06 1276.61,1314.66 1281.31,1316.17 1286.01,1317.59 1290.71,1318.92 1295.41,1320.16 1300.11,1321.31 1304.8,1322.36 
  1309.5,1323.32 1314.2,1324.18 1318.9,1324.94 1323.6,1325.6 1328.3,1326.16 1333,1326.62 1337.7,1326.97 1342.4,1327.22 1347.1,1327.37 1351.8,1327.41 
  1356.5,1327.35 1361.2,1327.23 1365.9,1327.04 1370.6,1326.78 1375.29,1326.45 1379.99,1326.05 1384.69,1325.58 1389.39,1325.04 1394.09,1324.42 1398.79,1323.74 
  1403.49,1322.98 1408.19,1322.16 1412.89,1321.26 1417.59,1320.29 1422.29,1319.26 1426.99,1318.16 1431.69,1316.99 1436.39,1315.75 1441.09,1314.45 1445.78,1313.08 
  1450.48,1311.66 1455.18,1310.17 1459.88,1308.62 1464.58,1307.01 1469.28,1305.34 1473.98,1303.62 1478.68,1301.85 1483.38,1300.02 1488.08,1298.14 1492.78,1296.21 
  1497.48,1294.23 1502.18,1292.21 1506.88,1290.15 1511.58,1288.04 1516.27,1285.89 1520.97,1283.71 1525.67,1281.49 1530.37,1279.24 1535.07,1276.96 1539.77,1274.65 
  1544.47,1272.31 1549.17,1269.95 1553.87,1267.57 1558.57,1265.16 1563.27,1262.75 1567.97,1260.31 1572.67,1257.86 1577.37,1255.41 1582.07,1252.95 1586.76,1250.48 
  1591.46,1248.01 1596.16,1245.54 1600.86,1243.07 1605.56,1240.61 1610.26,1238.15 1614.96,1235.7 1619.66,1233.27 1624.36,1230.85 1629.06,1228.45 1633.76,1226.07 
  1638.46,1223.71 1643.16,1221.37 1647.86,1219.07 1652.56,1216.79 1657.25,1214.54 1661.95,1212.32 1666.65,1210.15 1671.35,1208.01 1676.05,1205.91 1680.75,1203.86 
  1685.45,1201.84 1690.15,1199.88 1694.85,1197.97 1699.55,1196.1 1704.25,1194.29 1708.95,1192.54 1713.65,1190.84 1718.35,1189.2 1723.05,1187.62 1727.74,1186.1 
  1732.44,1184.65 1737.14,1183.26 1741.84,1181.95 1746.54,1180.69 1751.24,1179.51 1755.94,1178.4 1760.64,1177.37 1765.34,1176.41 1770.04,1175.52 1774.74,1174.71 
  1779.44,1173.98 1784.14,1173.33 1788.84,1172.75 1793.54,1172.26 1798.23,1171.85 1802.93,1171.53 1807.63,1171.28 1812.33,1171.13 1817.03,1171.05 1821.73,1171.07 
  1826.43,1171.13 1831.13,1171.25 1835.83,1171.41 1840.53,1171.61 1845.23,1171.87 1849.93,1172.18 1854.63,1172.54 1859.33,1172.94 1864.03,1173.4 1868.72,1173.91 
  1873.42,1174.47 1878.12,1175.08 1882.82,1175.74 1887.52,1176.44 1892.22,1177.2 1896.92,1178 1901.62,1178.86 1906.32,1179.75 1911.02,1180.7 1915.72,1181.69 
  1920.42,1182.72 1925.12,1183.8 1929.82,1184.92 1934.52,1186.08 1939.21,1187.29 1943.91,1188.53 1948.61,1189.81 1953.31,1191.13 1958.01,1192.48 1962.71,1193.87 
  1967.41,1195.3 1972.11,1196.76 1976.81,1198.25 1981.51,1199.76 1986.21,1201.31 1990.91,1202.89 1995.61,1204.49 2000.31,1206.11 2005.01,1207.76 2009.7,1209.42 
  2014.4,1211.11 2019.1,1212.81 2023.8,1214.54 2028.5,1216.27 2033.2,1218.02 2037.9,1219.77 2042.6,1221.54 2047.3,1223.31 2052,1225.09 2056.7,1226.88 
  2061.4,1228.66 2066.1,1230.45 2070.8,1232.23 2075.5,1234.01 2080.19,1235.79 2084.89,1237.56 2089.59,1239.32 2094.29,1241.06 2098.99,1242.8 2103.69,1244.52 
  2108.39,1246.23 2113.09,1247.92 2117.79,1249.59 2122.49,1251.24 2127.19,1252.87 2131.89,1254.47 2136.59,1256.04 2141.29,1257.59 2145.99,1259.11 2150.68,1260.6 
  2155.38,1262.06 2160.08,1263.48 2164.78,1264.86 2169.48,1266.21 2174.18,1267.52 2178.88,1268.8 2183.58,1270.02 2188.28,1271.21 2192.98,1272.35 2197.68,1273.45 
  2202.38,1274.5 2207.08,1275.5 2211.78,1276.46 2216.48,1277.36 2221.17,1278.21 2225.87,1279.01 2230.57,1279.76 2235.27,1280.45 2239.97,1281.08 2244.67,1281.66 
  2249.37,1282.18 2254.07,1282.65 2258.77,1283.05 2263.47,1283.39 2268.17,1283.68 2272.87,1283.9 2277.57,1284.06 2282.27,1284.15 2286.97,1284.19 2291.66,1284.17 
  2296.36,1284.13 
  "/>
<path clip-path="url(#clip810)" d="
M1430.09 554.876 L2286.34 554.876 L2286.34 166.076 L1430.09 166.076  Z
  " fill="#ffffff" fill-rule="evenodd" fill-opacity="1"/>
<polyline clip-path="url(#clip810)" style="stroke:#000000; stroke-linecap:round; stroke-linejoin:round; stroke-width:4; stroke-opacity:1; fill:none" points="
  1430.09,554.876 2286.34,554.876 2286.34,166.076 1430.09,166.076 1430.09,554.876 
  "/>
<polyline clip-path="url(#clip810)" style="stroke:#009af9; stroke-linecap:round; stroke-linejoin:round; stroke-width:6; stroke-opacity:1; fill:none" points="
  1452.23,243.836 1585.06,243.836 
  "/>
<path clip-path="url(#clip810)" d="M1634.84 232.013 L1634.84 238.054 Q1632.13 236.666 1629.22 235.971 Q1626.3 235.277 1623.17 235.277 Q1618.42 235.277 1616.02 236.735 Q1613.66 238.193 1613.66 241.11 Q1613.66 243.332 1615.36 244.617 Q1617.06 245.867 1622.2 247.013 L1624.39 247.499 Q1631.2 248.957 1634.04 251.631 Q1636.92 254.27 1636.92 259.027 Q1636.92 264.443 1632.62 267.603 Q1628.35 270.763 1620.85 270.763 Q1617.72 270.763 1614.32 270.138 Q1610.95 269.547 1607.2 268.332 L1607.2 261.735 Q1610.74 263.575 1614.18 264.513 Q1617.62 265.415 1620.99 265.415 Q1625.5 265.415 1627.93 263.888 Q1630.36 262.325 1630.36 259.513 Q1630.36 256.909 1628.59 255.52 Q1626.86 254.131 1620.92 252.846 L1618.7 252.325 Q1612.76 251.075 1610.12 248.506 Q1607.48 245.902 1607.48 241.388 Q1607.48 235.902 1611.37 232.916 Q1615.26 229.93 1622.41 229.93 Q1625.95 229.93 1629.08 230.45 Q1632.2 230.971 1634.84 232.013 Z" fill="#000000" fill-rule="evenodd" fill-opacity="1" /><path clip-path="url(#clip810)" d="M1647.1 230.867 L1653.49 230.867 L1653.49 269.756 L1647.1 269.756 L1647.1 230.867 M1647.1 215.728 L1653.49 215.728 L1653.49 223.818 L1647.1 223.818 L1647.1 215.728 Z" fill="#000000" fill-rule="evenodd" fill-opacity="1" /><path clip-path="url(#clip810)" d="M1697.13 238.332 Q1699.53 234.027 1702.86 231.978 Q1706.2 229.93 1710.71 229.93 Q1716.79 229.93 1720.08 234.2 Q1723.38 238.436 1723.38 246.284 L1723.38 269.756 L1716.96 269.756 L1716.96 246.492 Q1716.96 240.902 1714.98 238.193 Q1713 235.485 1708.94 235.485 Q1703.97 235.485 1701.09 238.784 Q1698.21 242.082 1698.21 247.777 L1698.21 269.756 L1691.79 269.756 L1691.79 246.492 Q1691.79 240.867 1689.81 238.193 Q1687.83 235.485 1683.7 235.485 Q1678.8 235.485 1675.92 238.818 Q1673.04 242.117 1673.04 247.777 L1673.04 269.756 L1666.61 269.756 L1666.61 230.867 L1673.04 230.867 L1673.04 236.909 Q1675.22 233.332 1678.28 231.631 Q1681.33 229.93 1685.54 229.93 Q1689.77 229.93 1692.72 232.082 Q1695.71 234.235 1697.13 238.332 Z" fill="#000000" fill-rule="evenodd" fill-opacity="1" /><path clip-path="url(#clip810)" d="M1742.31 263.922 L1742.31 284.547 L1735.88 284.547 L1735.88 230.867 L1742.31 230.867 L1742.31 236.77 Q1744.32 233.298 1747.38 231.631 Q1750.47 229.93 1754.74 229.93 Q1761.82 229.93 1766.23 235.555 Q1770.67 241.179 1770.67 250.346 Q1770.67 259.513 1766.23 265.138 Q1761.82 270.763 1754.74 270.763 Q1750.47 270.763 1747.38 269.096 Q1744.32 267.395 1742.31 263.922 M1764.04 250.346 Q1764.04 243.298 1761.13 239.304 Q1758.24 235.277 1753.17 235.277 Q1748.1 235.277 1745.19 239.304 Q1742.31 243.298 1742.31 250.346 Q1742.31 257.395 1745.19 261.422 Q1748.1 265.415 1753.17 265.415 Q1758.24 265.415 1761.13 261.422 Q1764.04 257.395 1764.04 250.346 Z" fill="#000000" fill-rule="evenodd" fill-opacity="1" /><path clip-path="url(#clip810)" d="M1781.26 215.728 L1787.65 215.728 L1787.65 269.756 L1781.26 269.756 L1781.26 215.728 Z" fill="#000000" fill-rule="evenodd" fill-opacity="1" /><path clip-path="url(#clip810)" d="M1834.28 248.714 L1834.28 251.839 L1804.91 251.839 Q1805.33 258.436 1808.87 261.909 Q1812.44 265.346 1818.8 265.346 Q1822.48 265.346 1825.92 264.443 Q1829.39 263.54 1832.79 261.735 L1832.79 267.777 Q1829.35 269.235 1825.74 269.999 Q1822.13 270.763 1818.42 270.763 Q1809.11 270.763 1803.66 265.346 Q1798.24 259.929 1798.24 250.693 Q1798.24 241.145 1803.38 235.555 Q1808.56 229.93 1817.31 229.93 Q1825.15 229.93 1829.7 234.999 Q1834.28 240.034 1834.28 248.714 M1827.9 246.839 Q1827.83 241.596 1824.94 238.471 Q1822.1 235.346 1817.38 235.346 Q1812.03 235.346 1808.8 238.367 Q1805.6 241.388 1805.12 246.874 L1827.9 246.839 Z" fill="#000000" fill-rule="evenodd" fill-opacity="1" /><path clip-path="url(#clip810)" d="M1845.05 217.916 L1874.84 217.916 L1874.84 223.818 L1852.06 223.818 L1852.06 239.096 L1872.62 239.096 L1872.62 244.999 L1852.06 244.999 L1852.06 269.756 L1845.05 269.756 L1845.05 217.916 Z" fill="#000000" fill-rule="evenodd" fill-opacity="1" /><path clip-path="url(#clip810)" d="M1885.95 217.916 L1896.4 217.916 L1909.63 253.193 L1922.93 217.916 L1933.38 217.916 L1933.38 269.756 L1926.54 269.756 L1926.54 224.235 L1913.17 259.79 L1906.12 259.79 L1892.76 224.235 L1892.76 269.756 L1885.95 269.756 L1885.95 217.916 Z" fill="#000000" fill-rule="evenodd" fill-opacity="1" /><path clip-path="url(#clip810)" d="M1946.51 217.916 L1953.56 217.916 L1953.56 249.409 Q1953.56 257.742 1956.58 261.422 Q1959.6 265.068 1966.37 265.068 Q1973.1 265.068 1976.12 261.422 Q1979.15 257.742 1979.15 249.409 L1979.15 217.916 L1986.19 217.916 L1986.19 250.277 Q1986.19 260.415 1981.16 265.589 Q1976.16 270.763 1966.37 270.763 Q1956.54 270.763 1951.51 265.589 Q1946.51 260.415 1946.51 250.277 L1946.51 217.916 Z" fill="#000000" fill-rule="evenodd" fill-opacity="1" /><polyline clip-path="url(#clip810)" style="stroke:#e26f46; stroke-linecap:round; stroke-linejoin:round; stroke-width:6; stroke-opacity:1; fill:none" points="
  1452.23,321.596 1585.06,321.596 
  "/>
<path clip-path="url(#clip810)" d="M1629.98 314.599 Q1628.9 313.974 1627.62 313.696 Q1626.37 313.384 1624.84 313.384 Q1619.42 313.384 1616.51 316.926 Q1613.63 320.433 1613.63 327.03 L1613.63 347.516 L1607.2 347.516 L1607.2 308.627 L1613.63 308.627 L1613.63 314.669 Q1615.64 311.127 1618.87 309.426 Q1622.1 307.69 1626.72 307.69 Q1627.38 307.69 1628.17 307.794 Q1628.97 307.863 1629.95 308.037 L1629.98 314.599 Z" fill="#000000" fill-rule="evenodd" fill-opacity="1" /><path clip-path="url(#clip810)" d="M1668.38 326.474 L1668.38 329.599 L1639.01 329.599 Q1639.42 336.196 1642.97 339.669 Q1646.54 343.106 1652.9 343.106 Q1656.58 343.106 1660.02 342.203 Q1663.49 341.3 1666.89 339.495 L1666.89 345.537 Q1663.45 346.995 1659.84 347.759 Q1656.23 348.523 1652.52 348.523 Q1643.21 348.523 1637.76 343.106 Q1632.34 337.689 1632.34 328.453 Q1632.34 318.905 1637.48 313.315 Q1642.65 307.69 1651.4 307.69 Q1659.25 307.69 1663.8 312.759 Q1668.38 317.794 1668.38 326.474 M1661.99 324.599 Q1661.92 319.356 1659.04 316.231 Q1656.2 313.106 1651.47 313.106 Q1646.13 313.106 1642.9 316.127 Q1639.7 319.148 1639.22 324.634 L1661.99 324.599 Z" fill="#000000" fill-rule="evenodd" fill-opacity="1" /><path clip-path="url(#clip810)" d="M1698.56 293.488 L1698.56 298.801 L1692.45 298.801 Q1689.01 298.801 1687.65 300.19 Q1686.33 301.578 1686.33 305.19 L1686.33 308.627 L1696.86 308.627 L1696.86 313.592 L1686.33 313.592 L1686.33 347.516 L1679.91 347.516 L1679.91 313.592 L1673.8 313.592 L1673.8 308.627 L1679.91 308.627 L1679.91 305.919 Q1679.91 299.426 1682.93 296.474 Q1685.95 293.488 1692.51 293.488 L1698.56 293.488 Z" fill="#000000" fill-rule="evenodd" fill-opacity="1" /><path clip-path="url(#clip810)" d="M1737.17 326.474 L1737.17 329.599 L1707.79 329.599 Q1708.21 336.196 1711.75 339.669 Q1715.33 343.106 1721.68 343.106 Q1725.36 343.106 1728.8 342.203 Q1732.27 341.3 1735.67 339.495 L1735.67 345.537 Q1732.24 346.995 1728.63 347.759 Q1725.01 348.523 1721.3 348.523 Q1711.99 348.523 1706.54 343.106 Q1701.13 337.689 1701.13 328.453 Q1701.13 318.905 1706.26 313.315 Q1711.44 307.69 1720.19 307.69 Q1728.04 307.69 1732.58 312.759 Q1737.17 317.794 1737.17 326.474 M1730.78 324.599 Q1730.71 319.356 1727.83 316.231 Q1724.98 313.106 1720.26 313.106 Q1714.91 313.106 1711.68 316.127 Q1708.49 319.148 1708 324.634 L1730.78 324.599 Z" fill="#000000" fill-rule="evenodd" fill-opacity="1" /><path clip-path="url(#clip810)" d="M1770.19 314.599 Q1769.11 313.974 1767.83 313.696 Q1766.58 313.384 1765.05 313.384 Q1759.63 313.384 1756.72 316.926 Q1753.83 320.433 1753.83 327.03 L1753.83 347.516 L1747.41 347.516 L1747.41 308.627 L1753.83 308.627 L1753.83 314.669 Q1755.85 311.127 1759.08 309.426 Q1762.31 307.69 1766.92 307.69 Q1767.58 307.69 1768.38 307.794 Q1769.18 307.863 1770.15 308.037 L1770.19 314.599 Z" fill="#000000" fill-rule="evenodd" fill-opacity="1" /><path clip-path="url(#clip810)" d="M1808.59 326.474 L1808.59 329.599 L1779.22 329.599 Q1779.63 336.196 1783.17 339.669 Q1786.75 343.106 1793.1 343.106 Q1796.79 343.106 1800.22 342.203 Q1803.69 341.3 1807.1 339.495 L1807.1 345.537 Q1803.66 346.995 1800.05 347.759 Q1796.44 348.523 1792.72 348.523 Q1783.42 348.523 1777.97 343.106 Q1772.55 337.689 1772.55 328.453 Q1772.55 318.905 1777.69 313.315 Q1782.86 307.69 1791.61 307.69 Q1799.46 307.69 1804.01 312.759 Q1808.59 317.794 1808.59 326.474 M1802.2 324.599 Q1802.13 319.356 1799.25 316.231 Q1796.4 313.106 1791.68 313.106 Q1786.33 313.106 1783.1 316.127 Q1779.91 319.148 1779.42 324.634 L1802.2 324.599 Z" fill="#000000" fill-rule="evenodd" fill-opacity="1" /><path clip-path="url(#clip810)" d="M1851.4 324.044 L1851.4 347.516 L1845.01 347.516 L1845.01 324.252 Q1845.01 318.731 1842.86 315.988 Q1840.71 313.245 1836.4 313.245 Q1831.23 313.245 1828.24 316.544 Q1825.26 319.842 1825.26 325.537 L1825.26 347.516 L1818.83 347.516 L1818.83 308.627 L1825.26 308.627 L1825.26 314.669 Q1827.55 311.162 1830.64 309.426 Q1833.76 307.69 1837.83 307.69 Q1844.53 307.69 1847.97 311.856 Q1851.4 315.988 1851.4 324.044 Z" fill="#000000" fill-rule="evenodd" fill-opacity="1" /><path clip-path="url(#clip810)" d="M1892.13 310.12 L1892.13 316.092 Q1889.42 314.599 1886.68 313.87 Q1883.97 313.106 1881.19 313.106 Q1874.98 313.106 1871.54 317.064 Q1868.1 320.988 1868.1 328.106 Q1868.1 335.224 1871.54 339.182 Q1874.98 343.106 1881.19 343.106 Q1883.97 343.106 1886.68 342.377 Q1889.42 341.613 1892.13 340.12 L1892.13 346.023 Q1889.46 347.273 1886.58 347.898 Q1883.73 348.523 1880.5 348.523 Q1871.72 348.523 1866.54 343.002 Q1861.37 337.481 1861.37 328.106 Q1861.37 318.592 1866.58 313.141 Q1871.82 307.69 1880.92 307.69 Q1883.87 307.69 1886.68 308.315 Q1889.49 308.905 1892.13 310.12 Z" fill="#000000" fill-rule="evenodd" fill-opacity="1" /><path clip-path="url(#clip810)" d="M1936.51 326.474 L1936.51 329.599 L1907.13 329.599 Q1907.55 336.196 1911.09 339.669 Q1914.67 343.106 1921.02 343.106 Q1924.7 343.106 1928.14 342.203 Q1931.61 341.3 1935.01 339.495 L1935.01 345.537 Q1931.58 346.995 1927.96 347.759 Q1924.35 348.523 1920.64 348.523 Q1911.33 348.523 1905.88 343.106 Q1900.47 337.689 1900.47 328.453 Q1900.47 318.905 1905.6 313.315 Q1910.78 307.69 1919.53 307.69 Q1927.37 307.69 1931.92 312.759 Q1936.51 317.794 1936.51 326.474 M1930.12 324.599 Q1930.05 319.356 1927.17 316.231 Q1924.32 313.106 1919.6 313.106 Q1914.25 313.106 1911.02 316.127 Q1907.83 319.148 1907.34 324.634 L1930.12 324.599 Z" fill="#000000" fill-rule="evenodd" fill-opacity="1" /><polyline clip-path="url(#clip810)" style="stroke:#008000; stroke-linecap:round; stroke-linejoin:round; stroke-width:6; stroke-opacity:1; fill:none" stroke-dasharray="3, 6" points="
  1452.23,399.356 1585.06,399.356 
  "/>
<path clip-path="url(#clip810)" d="M1607.2 373.436 L1616.65 373.436 L1639.63 416.804 L1639.63 373.436 L1646.44 373.436 L1646.44 425.276 L1636.99 425.276 L1614.01 381.908 L1614.01 425.276 L1607.2 425.276 L1607.2 373.436 Z" fill="#000000" fill-rule="evenodd" fill-opacity="1" /><path clip-path="url(#clip810)" d="M1693.38 404.234 L1693.38 407.359 L1664.01 407.359 Q1664.42 413.956 1667.97 417.429 Q1671.54 420.866 1677.9 420.866 Q1681.58 420.866 1685.01 419.963 Q1688.49 419.06 1691.89 417.255 L1691.89 423.297 Q1688.45 424.755 1684.84 425.519 Q1681.23 426.283 1677.51 426.283 Q1668.21 426.283 1662.76 420.866 Q1657.34 415.449 1657.34 406.213 Q1657.34 396.665 1662.48 391.075 Q1667.65 385.45 1676.4 385.45 Q1684.25 385.45 1688.8 390.519 Q1693.38 395.554 1693.38 404.234 M1686.99 402.359 Q1686.92 397.116 1684.04 393.991 Q1681.2 390.866 1676.47 390.866 Q1671.13 390.866 1667.9 393.887 Q1664.7 396.908 1664.22 402.394 L1686.99 402.359 Z" fill="#000000" fill-rule="evenodd" fill-opacity="1" /><path clip-path="url(#clip810)" d="M1703.21 409.929 L1703.21 386.387 L1709.6 386.387 L1709.6 409.686 Q1709.6 415.206 1711.75 417.984 Q1713.9 420.727 1718.21 420.727 Q1723.38 420.727 1726.37 417.429 Q1729.39 414.13 1729.39 408.436 L1729.39 386.387 L1735.78 386.387 L1735.78 425.276 L1729.39 425.276 L1729.39 419.304 Q1727.06 422.845 1723.97 424.581 Q1720.92 426.283 1716.85 426.283 Q1710.15 426.283 1706.68 422.116 Q1703.21 417.949 1703.21 409.929 M1719.29 385.45 L1719.29 385.45 Z" fill="#000000" fill-rule="evenodd" fill-opacity="1" /><path clip-path="url(#clip810)" d="M1771.47 392.359 Q1770.4 391.734 1769.11 391.456 Q1767.86 391.144 1766.33 391.144 Q1760.92 391.144 1758 394.686 Q1755.12 398.193 1755.12 404.79 L1755.12 425.276 L1748.7 425.276 L1748.7 386.387 L1755.12 386.387 L1755.12 392.429 Q1757.13 388.887 1760.36 387.186 Q1763.59 385.45 1768.21 385.45 Q1768.87 385.45 1769.67 385.554 Q1770.47 385.623 1771.44 385.797 L1771.47 392.359 Z" fill="#000000" fill-rule="evenodd" fill-opacity="1" /><path clip-path="url(#clip810)" d="M1795.85 405.727 Q1788.1 405.727 1785.12 407.498 Q1782.13 409.269 1782.13 413.54 Q1782.13 416.942 1784.35 418.956 Q1786.61 420.935 1790.47 420.935 Q1795.78 420.935 1798.97 417.185 Q1802.2 413.401 1802.2 407.151 L1802.2 405.727 L1795.85 405.727 M1808.59 403.088 L1808.59 425.276 L1802.2 425.276 L1802.2 419.373 Q1800.01 422.915 1796.75 424.616 Q1793.49 426.283 1788.76 426.283 Q1782.79 426.283 1779.25 422.949 Q1775.74 419.581 1775.74 413.956 Q1775.74 407.394 1780.12 404.061 Q1784.53 400.727 1793.24 400.727 L1802.2 400.727 L1802.2 400.102 Q1802.2 395.693 1799.29 393.297 Q1796.4 390.866 1791.16 390.866 Q1787.83 390.866 1784.67 391.665 Q1781.51 392.463 1778.59 394.061 L1778.59 388.158 Q1782.1 386.804 1785.4 386.144 Q1788.69 385.45 1791.82 385.45 Q1800.26 385.45 1804.42 389.825 Q1808.59 394.199 1808.59 403.088 Z" fill="#000000" fill-rule="evenodd" fill-opacity="1" /><path clip-path="url(#clip810)" d="M1821.75 371.248 L1828.14 371.248 L1828.14 425.276 L1821.75 425.276 L1821.75 371.248 Z" fill="#000000" fill-rule="evenodd" fill-opacity="1" /><path clip-path="url(#clip810)" d="M1841.78 373.436 L1871.58 373.436 L1871.58 379.338 L1848.8 379.338 L1848.8 394.616 L1869.35 394.616 L1869.35 400.519 L1848.8 400.519 L1848.8 425.276 L1841.78 425.276 L1841.78 373.436 Z" fill="#000000" fill-rule="evenodd" fill-opacity="1" /><path clip-path="url(#clip810)" d="M1882.69 373.436 L1893.14 373.436 L1906.37 408.713 L1919.67 373.436 L1930.12 373.436 L1930.12 425.276 L1923.28 425.276 L1923.28 379.755 L1909.91 415.31 L1902.86 415.31 L1889.49 379.755 L1889.49 425.276 L1882.69 425.276 L1882.69 373.436 Z" fill="#000000" fill-rule="evenodd" fill-opacity="1" /><path clip-path="url(#clip810)" d="M1943.24 373.436 L1950.29 373.436 L1950.29 404.929 Q1950.29 413.262 1953.31 416.942 Q1956.33 420.588 1963.1 420.588 Q1969.84 420.588 1972.86 416.942 Q1975.88 413.262 1975.88 404.929 L1975.88 373.436 L1982.93 373.436 L1982.93 405.797 Q1982.93 415.935 1977.9 421.109 Q1972.9 426.283 1963.1 426.283 Q1953.28 426.283 1948.24 421.109 Q1943.24 415.935 1943.24 405.797 L1943.24 373.436 Z" fill="#000000" fill-rule="evenodd" fill-opacity="1" /><path clip-path="url(#clip810)" d="M2033.76 371.318 Q2029.11 379.304 2026.85 387.116 Q2024.6 394.929 2024.6 402.949 Q2024.6 410.97 2026.85 418.852 Q2029.14 426.699 2033.76 434.651 L2028.21 434.651 Q2023 426.491 2020.4 418.609 Q2017.83 410.727 2017.83 402.949 Q2017.83 395.206 2020.4 387.359 Q2022.96 379.512 2028.21 371.318 L2033.76 371.318 Z" fill="#000000" fill-rule="evenodd" fill-opacity="1" /><path clip-path="url(#clip810)" d="M2053.1 419.373 L2077.58 419.373 L2077.58 425.276 L2044.67 425.276 L2044.67 419.373 Q2048.66 415.241 2055.53 408.297 Q2062.44 401.318 2064.21 399.304 Q2067.58 395.519 2068.9 392.915 Q2070.26 390.276 2070.26 387.741 Q2070.26 383.609 2067.34 381.005 Q2064.46 378.401 2059.8 378.401 Q2056.51 378.401 2052.83 379.547 Q2049.18 380.693 2045.01 383.019 L2045.01 375.936 Q2049.25 374.234 2052.93 373.366 Q2056.61 372.498 2059.67 372.498 Q2067.72 372.498 2072.51 376.526 Q2077.3 380.554 2077.3 387.29 Q2077.3 390.484 2076.09 393.366 Q2074.91 396.213 2071.75 400.102 Q2070.88 401.109 2066.23 405.936 Q2061.58 410.727 2053.1 419.373 Z" fill="#000000" fill-rule="evenodd" fill-opacity="1" /><path clip-path="url(#clip810)" d="M2092.37 373.436 L2119.91 373.436 L2119.91 379.338 L2098.8 379.338 L2098.8 392.047 Q2100.33 391.526 2101.85 391.283 Q2103.38 391.005 2104.91 391.005 Q2113.59 391.005 2118.66 395.762 Q2123.73 400.519 2123.73 408.644 Q2123.73 417.012 2118.52 421.665 Q2113.31 426.283 2103.83 426.283 Q2100.57 426.283 2097.17 425.727 Q2093.8 425.172 2090.19 424.06 L2090.19 417.012 Q2093.31 418.713 2096.64 419.547 Q2099.98 420.38 2103.69 420.38 Q2109.7 420.38 2113.21 417.22 Q2116.71 414.06 2116.71 408.644 Q2116.71 403.227 2113.21 400.068 Q2109.7 396.908 2103.69 396.908 Q2100.88 396.908 2098.07 397.533 Q2095.29 398.158 2092.37 399.477 L2092.37 373.436 Z" fill="#000000" fill-rule="evenodd" fill-opacity="1" /><path clip-path="url(#clip810)" d="M2152.55 378.054 Q2147.13 378.054 2144.39 383.401 Q2141.68 388.713 2141.68 399.408 Q2141.68 410.067 2144.39 415.415 Q2147.13 420.727 2152.55 420.727 Q2158 420.727 2160.71 415.415 Q2163.45 410.067 2163.45 399.408 Q2163.45 388.713 2160.71 383.401 Q2158 378.054 2152.55 378.054 M2152.55 372.498 Q2161.26 372.498 2165.85 379.408 Q2170.46 386.283 2170.46 399.408 Q2170.46 412.498 2165.85 419.408 Q2161.26 426.283 2152.55 426.283 Q2143.83 426.283 2139.21 419.408 Q2134.63 412.498 2134.63 399.408 Q2134.63 386.283 2139.21 379.408 Q2143.83 372.498 2152.55 372.498 Z" fill="#000000" fill-rule="evenodd" fill-opacity="1" /><path clip-path="url(#clip810)" d="M2197.79 378.054 Q2192.37 378.054 2189.63 383.401 Q2186.92 388.713 2186.92 399.408 Q2186.92 410.067 2189.63 415.415 Q2192.37 420.727 2197.79 420.727 Q2203.24 420.727 2205.95 415.415 Q2208.69 410.067 2208.69 399.408 Q2208.69 388.713 2205.95 383.401 Q2203.24 378.054 2197.79 378.054 M2197.79 372.498 Q2206.51 372.498 2211.09 379.408 Q2215.71 386.283 2215.71 399.408 Q2215.71 412.498 2211.09 419.408 Q2206.51 426.283 2197.79 426.283 Q2189.07 426.283 2184.46 419.408 Q2179.87 412.498 2179.87 399.408 Q2179.87 386.283 2184.46 379.408 Q2189.07 372.498 2197.79 372.498 Z" fill="#000000" fill-rule="evenodd" fill-opacity="1" /><path clip-path="url(#clip810)" d="M2226.12 371.318 L2231.68 371.318 Q2236.89 379.512 2239.46 387.359 Q2242.06 395.206 2242.06 402.949 Q2242.06 410.727 2239.46 418.609 Q2236.89 426.491 2231.68 434.651 L2226.12 434.651 Q2230.74 426.699 2233 418.852 Q2235.29 410.97 2235.29 402.949 Q2235.29 394.929 2233 387.116 Q2230.74 379.304 2226.12 371.318 Z" fill="#000000" fill-rule="evenodd" fill-opacity="1" /><polyline clip-path="url(#clip810)" style="stroke:#008000; stroke-linecap:round; stroke-linejoin:round; stroke-width:6; stroke-opacity:1; fill:none" points="
  1452.23,477.116 1585.06,477.116 
  "/>
<path clip-path="url(#clip810)" d="M1607.2 451.196 L1616.65 451.196 L1639.63 494.564 L1639.63 451.196 L1646.44 451.196 L1646.44 503.036 L1636.99 503.036 L1614.01 459.668 L1614.01 503.036 L1607.2 503.036 L1607.2 451.196 Z" fill="#000000" fill-rule="evenodd" fill-opacity="1" /><path clip-path="url(#clip810)" d="M1693.38 481.994 L1693.38 485.119 L1664.01 485.119 Q1664.42 491.716 1667.97 495.189 Q1671.54 498.626 1677.9 498.626 Q1681.58 498.626 1685.01 497.723 Q1688.49 496.82 1691.89 495.015 L1691.89 501.057 Q1688.45 502.515 1684.84 503.279 Q1681.23 504.043 1677.51 504.043 Q1668.21 504.043 1662.76 498.626 Q1657.34 493.209 1657.34 483.973 Q1657.34 474.425 1662.48 468.835 Q1667.65 463.21 1676.4 463.21 Q1684.25 463.21 1688.8 468.279 Q1693.38 473.314 1693.38 481.994 M1686.99 480.119 Q1686.92 474.876 1684.04 471.751 Q1681.2 468.626 1676.47 468.626 Q1671.13 468.626 1667.9 471.647 Q1664.7 474.668 1664.22 480.154 L1686.99 480.119 Z" fill="#000000" fill-rule="evenodd" fill-opacity="1" /><path clip-path="url(#clip810)" d="M1703.21 487.689 L1703.21 464.147 L1709.6 464.147 L1709.6 487.446 Q1709.6 492.966 1711.75 495.744 Q1713.9 498.487 1718.21 498.487 Q1723.38 498.487 1726.37 495.189 Q1729.39 491.89 1729.39 486.196 L1729.39 464.147 L1735.78 464.147 L1735.78 503.036 L1729.39 503.036 L1729.39 497.064 Q1727.06 500.605 1723.97 502.341 Q1720.92 504.043 1716.85 504.043 Q1710.15 504.043 1706.68 499.876 Q1703.21 495.709 1703.21 487.689 M1719.29 463.21 L1719.29 463.21 Z" fill="#000000" fill-rule="evenodd" fill-opacity="1" /><path clip-path="url(#clip810)" d="M1771.47 470.119 Q1770.4 469.494 1769.11 469.216 Q1767.86 468.904 1766.33 468.904 Q1760.92 468.904 1758 472.446 Q1755.12 475.953 1755.12 482.55 L1755.12 503.036 L1748.7 503.036 L1748.7 464.147 L1755.12 464.147 L1755.12 470.189 Q1757.13 466.647 1760.36 464.946 Q1763.59 463.21 1768.21 463.21 Q1768.87 463.21 1769.67 463.314 Q1770.47 463.383 1771.44 463.557 L1771.47 470.119 Z" fill="#000000" fill-rule="evenodd" fill-opacity="1" /><path clip-path="url(#clip810)" d="M1795.85 483.487 Q1788.1 483.487 1785.12 485.258 Q1782.13 487.029 1782.13 491.3 Q1782.13 494.702 1784.35 496.716 Q1786.61 498.695 1790.47 498.695 Q1795.78 498.695 1798.97 494.945 Q1802.2 491.161 1802.2 484.911 L1802.2 483.487 L1795.85 483.487 M1808.59 480.848 L1808.59 503.036 L1802.2 503.036 L1802.2 497.133 Q1800.01 500.675 1796.75 502.376 Q1793.49 504.043 1788.76 504.043 Q1782.79 504.043 1779.25 500.709 Q1775.74 497.341 1775.74 491.716 Q1775.74 485.154 1780.12 481.821 Q1784.53 478.487 1793.24 478.487 L1802.2 478.487 L1802.2 477.862 Q1802.2 473.453 1799.29 471.057 Q1796.4 468.626 1791.16 468.626 Q1787.83 468.626 1784.67 469.425 Q1781.51 470.223 1778.59 471.821 L1778.59 465.918 Q1782.1 464.564 1785.4 463.904 Q1788.69 463.21 1791.82 463.21 Q1800.26 463.21 1804.42 467.585 Q1808.59 471.959 1808.59 480.848 Z" fill="#000000" fill-rule="evenodd" fill-opacity="1" /><path clip-path="url(#clip810)" d="M1821.75 449.008 L1828.14 449.008 L1828.14 503.036 L1821.75 503.036 L1821.75 449.008 Z" fill="#000000" fill-rule="evenodd" fill-opacity="1" /><path clip-path="url(#clip810)" d="M1841.78 451.196 L1871.58 451.196 L1871.58 457.098 L1848.8 457.098 L1848.8 472.376 L1869.35 472.376 L1869.35 478.279 L1848.8 478.279 L1848.8 503.036 L1841.78 503.036 L1841.78 451.196 Z" fill="#000000" fill-rule="evenodd" fill-opacity="1" /><path clip-path="url(#clip810)" d="M1882.69 451.196 L1893.14 451.196 L1906.37 486.473 L1919.67 451.196 L1930.12 451.196 L1930.12 503.036 L1923.28 503.036 L1923.28 457.515 L1909.91 493.07 L1902.86 493.07 L1889.49 457.515 L1889.49 503.036 L1882.69 503.036 L1882.69 451.196 Z" fill="#000000" fill-rule="evenodd" fill-opacity="1" /><path clip-path="url(#clip810)" d="M1943.24 451.196 L1950.29 451.196 L1950.29 482.689 Q1950.29 491.022 1953.31 494.702 Q1956.33 498.348 1963.1 498.348 Q1969.84 498.348 1972.86 494.702 Q1975.88 491.022 1975.88 482.689 L1975.88 451.196 L1982.93 451.196 L1982.93 483.557 Q1982.93 493.695 1977.9 498.869 Q1972.9 504.043 1963.1 504.043 Q1953.28 504.043 1948.24 498.869 Q1943.24 493.695 1943.24 483.557 L1943.24 451.196 Z" fill="#000000" fill-rule="evenodd" fill-opacity="1" /><path clip-path="url(#clip810)" d="M2033.76 449.078 Q2029.11 457.064 2026.85 464.876 Q2024.6 472.689 2024.6 480.709 Q2024.6 488.73 2026.85 496.612 Q2029.14 504.459 2033.76 512.411 L2028.21 512.411 Q2023 504.251 2020.4 496.369 Q2017.83 488.487 2017.83 480.709 Q2017.83 472.966 2020.4 465.119 Q2022.96 457.272 2028.21 449.078 L2033.76 449.078 Z" fill="#000000" fill-rule="evenodd" fill-opacity="1" /><path clip-path="url(#clip810)" d="M2047.13 451.196 L2074.67 451.196 L2074.67 457.098 L2053.55 457.098 L2053.55 469.807 Q2055.08 469.286 2056.61 469.043 Q2058.14 468.765 2059.67 468.765 Q2068.35 468.765 2073.42 473.522 Q2078.48 478.279 2078.48 486.404 Q2078.48 494.772 2073.28 499.425 Q2068.07 504.043 2058.59 504.043 Q2055.33 504.043 2051.92 503.487 Q2048.55 502.932 2044.94 501.82 L2044.94 494.772 Q2048.07 496.473 2051.4 497.307 Q2054.74 498.14 2058.45 498.14 Q2064.46 498.14 2067.96 494.98 Q2071.47 491.82 2071.47 486.404 Q2071.47 480.987 2067.96 477.828 Q2064.46 474.668 2058.45 474.668 Q2055.64 474.668 2052.83 475.293 Q2050.05 475.918 2047.13 477.237 L2047.13 451.196 Z" fill="#000000" fill-rule="evenodd" fill-opacity="1" /><path clip-path="url(#clip810)" d="M2107.3 455.814 Q2101.89 455.814 2099.14 461.161 Q2096.44 466.473 2096.44 477.168 Q2096.44 487.827 2099.14 493.175 Q2101.89 498.487 2107.3 498.487 Q2112.76 498.487 2115.46 493.175 Q2118.21 487.827 2118.21 477.168 Q2118.21 466.473 2115.46 461.161 Q2112.76 455.814 2107.3 455.814 M2107.3 450.258 Q2116.02 450.258 2120.6 457.168 Q2125.22 464.043 2125.22 477.168 Q2125.22 490.258 2120.6 497.168 Q2116.02 504.043 2107.3 504.043 Q2098.59 504.043 2093.97 497.168 Q2089.39 490.258 2089.39 477.168 Q2089.39 464.043 2093.97 457.168 Q2098.59 450.258 2107.3 450.258 Z" fill="#000000" fill-rule="evenodd" fill-opacity="1" /><path clip-path="url(#clip810)" d="M2152.55 455.814 Q2147.13 455.814 2144.39 461.161 Q2141.68 466.473 2141.68 477.168 Q2141.68 487.827 2144.39 493.175 Q2147.13 498.487 2152.55 498.487 Q2158 498.487 2160.71 493.175 Q2163.45 487.827 2163.45 477.168 Q2163.45 466.473 2160.71 461.161 Q2158 455.814 2152.55 455.814 M2152.55 450.258 Q2161.26 450.258 2165.85 457.168 Q2170.46 464.043 2170.46 477.168 Q2170.46 490.258 2165.85 497.168 Q2161.26 504.043 2152.55 504.043 Q2143.83 504.043 2139.21 497.168 Q2134.63 490.258 2134.63 477.168 Q2134.63 464.043 2139.21 457.168 Q2143.83 450.258 2152.55 450.258 Z" fill="#000000" fill-rule="evenodd" fill-opacity="1" /><path clip-path="url(#clip810)" d="M2197.79 455.814 Q2192.37 455.814 2189.63 461.161 Q2186.92 466.473 2186.92 477.168 Q2186.92 487.827 2189.63 493.175 Q2192.37 498.487 2197.79 498.487 Q2203.24 498.487 2205.95 493.175 Q2208.69 487.827 2208.69 477.168 Q2208.69 466.473 2205.95 461.161 Q2203.24 455.814 2197.79 455.814 M2197.79 450.258 Q2206.51 450.258 2211.09 457.168 Q2215.71 464.043 2215.71 477.168 Q2215.71 490.258 2211.09 497.168 Q2206.51 504.043 2197.79 504.043 Q2189.07 504.043 2184.46 497.168 Q2179.87 490.258 2179.87 477.168 Q2179.87 464.043 2184.46 457.168 Q2189.07 450.258 2197.79 450.258 Z" fill="#000000" fill-rule="evenodd" fill-opacity="1" /><path clip-path="url(#clip810)" d="M2226.12 449.078 L2231.68 449.078 Q2236.89 457.272 2239.46 465.119 Q2242.06 472.966 2242.06 480.709 Q2242.06 488.487 2239.46 496.369 Q2236.89 504.251 2231.68 512.411 L2226.12 512.411 Q2230.74 504.459 2233 496.612 Q2235.29 488.73 2235.29 480.709 Q2235.29 472.689 2233 464.876 Q2230.74 457.064 2226.12 449.078 Z" fill="#000000" fill-rule="evenodd" fill-opacity="1" /></svg>
