<?xml version="1.0" encoding="utf-8"?>
<svg xmlns="http://www.w3.org/2000/svg" xmlns:xlink="http://www.w3.org/1999/xlink" width="600" height="400" viewBox="0 0 2400 1600">
<defs>
  <clipPath id="clip780">
    <rect x="0" y="0" width="2400" height="1600"/>
  </clipPath>
</defs>
<path clip-path="url(#clip780)" d="
M0 1600 L2400 1600 L2400 0 L0 0  Z
  " fill="#ffffff" fill-rule="evenodd" fill-opacity="1"/>
<defs>
  <clipPath id="clip781">
    <rect x="480" y="0" width="1681" height="1600"/>
  </clipPath>
</defs>
<path clip-path="url(#clip780)" d="
M315.725 1401.58 L2352.76 1401.58 L2352.76 123.472 L315.725 123.472  Z
  " fill="#ffffff" fill-rule="evenodd" fill-opacity="1"/>
<defs>
  <clipPath id="clip782">
    <rect x="315" y="123" width="2038" height="1279"/>
  </clipPath>
</defs>
<polyline clip-path="url(#clip782)" style="stroke:#000000; stroke-linecap:butt; stroke-linejoin:round; stroke-width:2; stroke-opacity:0.1; fill:none" points="
  519.428,1401.58 519.428,123.472 
  "/>
<polyline clip-path="url(#clip782)" style="stroke:#000000; stroke-linecap:butt; stroke-linejoin:round; stroke-width:2; stroke-opacity:0.1; fill:none" points="
  926.834,1401.58 926.834,123.472 
  "/>
<polyline clip-path="url(#clip782)" style="stroke:#000000; stroke-linecap:butt; stroke-linejoin:round; stroke-width:2; stroke-opacity:0.1; fill:none" points="
  1334.24,1401.58 1334.24,123.472 
  "/>
<polyline clip-path="url(#clip782)" style="stroke:#000000; stroke-linecap:butt; stroke-linejoin:round; stroke-width:2; stroke-opacity:0.1; fill:none" points="
  1741.65,1401.58 1741.65,123.472 
  "/>
<polyline clip-path="url(#clip782)" style="stroke:#000000; stroke-linecap:butt; stroke-linejoin:round; stroke-width:2; stroke-opacity:0.1; fill:none" points="
  2149.05,1401.58 2149.05,123.472 
  "/>
<polyline clip-path="url(#clip780)" style="stroke:#000000; stroke-linecap:butt; stroke-linejoin:round; stroke-width:4; stroke-opacity:1; fill:none" points="
  315.725,1401.58 2352.76,1401.58 
  "/>
<polyline clip-path="url(#clip780)" style="stroke:#000000; stroke-linecap:butt; stroke-linejoin:round; stroke-width:4; stroke-opacity:1; fill:none" points="
  519.428,1401.58 519.428,1382.68 
  "/>
<polyline clip-path="url(#clip780)" style="stroke:#000000; stroke-linecap:butt; stroke-linejoin:round; stroke-width:4; stroke-opacity:1; fill:none" points="
  926.834,1401.58 926.834,1382.68 
  "/>
<polyline clip-path="url(#clip780)" style="stroke:#000000; stroke-linecap:butt; stroke-linejoin:round; stroke-width:4; stroke-opacity:1; fill:none" points="
  1334.24,1401.58 1334.24,1382.68 
  "/>
<polyline clip-path="url(#clip780)" style="stroke:#000000; stroke-linecap:butt; stroke-linejoin:round; stroke-width:4; stroke-opacity:1; fill:none" points="
  1741.65,1401.58 1741.65,1382.68 
  "/>
<polyline clip-path="url(#clip780)" style="stroke:#000000; stroke-linecap:butt; stroke-linejoin:round; stroke-width:4; stroke-opacity:1; fill:none" points="
  2149.05,1401.58 2149.05,1382.68 
  "/>
<path clip-path="url(#clip780)" d="M439.22 1460.34 L483.734 1460.34 L483.734 1466.24 L439.22 1466.24 L439.22 1460.34 Z" fill="#000000" fill-rule="evenodd" fill-opacity="1" /><path clip-path="url(#clip780)" d="M500.088 1479.68 L511.546 1479.68 L511.546 1440.13 L499.081 1442.63 L499.081 1436.24 L511.477 1433.74 L518.491 1433.74 L518.491 1479.68 L529.949 1479.68 L529.949 1485.58 L500.088 1485.58 L500.088 1479.68 Z" fill="#000000" fill-rule="evenodd" fill-opacity="1" /><path clip-path="url(#clip780)" d="M544.116 1476.76 L551.442 1476.76 L551.442 1485.58 L544.116 1485.58 L544.116 1476.76 Z" fill="#000000" fill-rule="evenodd" fill-opacity="1" /><path clip-path="url(#clip780)" d="M581.72 1438.36 Q576.303 1438.36 573.56 1443.71 Q570.852 1449.02 570.852 1459.71 Q570.852 1470.37 573.56 1475.72 Q576.303 1481.03 581.72 1481.03 Q587.171 1481.03 589.879 1475.72 Q592.622 1470.37 592.622 1459.71 Q592.622 1449.02 589.879 1443.71 Q587.171 1438.36 581.72 1438.36 M581.72 1432.8 Q590.435 1432.8 595.018 1439.71 Q599.636 1446.59 599.636 1459.71 Q599.636 1472.8 595.018 1479.71 Q590.435 1486.59 581.72 1486.59 Q573.004 1486.59 568.386 1479.71 Q563.803 1472.8 563.803 1459.71 Q563.803 1446.59 568.386 1439.71 Q573.004 1432.8 581.72 1432.8 Z" fill="#000000" fill-rule="evenodd" fill-opacity="1" /><path clip-path="url(#clip780)" d="M847.373 1460.34 L891.887 1460.34 L891.887 1466.24 L847.373 1466.24 L847.373 1460.34 Z" fill="#000000" fill-rule="evenodd" fill-opacity="1" /><path clip-path="url(#clip780)" d="M922.025 1438.36 Q916.609 1438.36 913.866 1443.71 Q911.157 1449.02 911.157 1459.71 Q911.157 1470.37 913.866 1475.72 Q916.609 1481.03 922.025 1481.03 Q927.477 1481.03 930.185 1475.72 Q932.928 1470.37 932.928 1459.71 Q932.928 1449.02 930.185 1443.71 Q927.477 1438.36 922.025 1438.36 M922.025 1432.8 Q930.741 1432.8 935.324 1439.71 Q939.942 1446.59 939.942 1459.71 Q939.942 1472.8 935.324 1479.71 Q930.741 1486.59 922.025 1486.59 Q913.31 1486.59 908.692 1479.71 Q904.109 1472.8 904.109 1459.71 Q904.109 1446.59 908.692 1439.71 Q913.31 1432.8 922.025 1432.8 Z" fill="#000000" fill-rule="evenodd" fill-opacity="1" /><path clip-path="url(#clip780)" d="M952.268 1476.76 L959.595 1476.76 L959.595 1485.58 L952.268 1485.58 L952.268 1476.76 Z" fill="#000000" fill-rule="evenodd" fill-opacity="1" /><path clip-path="url(#clip780)" d="M974.942 1433.74 L1002.48 1433.74 L1002.48 1439.64 L981.365 1439.64 L981.365 1452.35 Q982.893 1451.83 984.421 1451.59 Q985.949 1451.31 987.476 1451.31 Q996.157 1451.31 1001.23 1456.07 Q1006.3 1460.82 1006.3 1468.95 Q1006.3 1477.32 1001.09 1481.97 Q995.879 1486.59 986.4 1486.59 Q983.136 1486.59 979.733 1486.03 Q976.365 1485.48 972.754 1484.36 L972.754 1477.32 Q975.879 1479.02 979.213 1479.85 Q982.546 1480.68 986.261 1480.68 Q992.268 1480.68 995.775 1477.52 Q999.282 1474.36 999.282 1468.95 Q999.282 1463.53 995.775 1460.37 Q992.268 1457.21 986.261 1457.21 Q983.449 1457.21 980.636 1457.84 Q977.858 1458.46 974.942 1459.78 L974.942 1433.74 Z" fill="#000000" fill-rule="evenodd" fill-opacity="1" /><path clip-path="url(#clip780)" d="M1300.32 1438.36 Q1294.9 1438.36 1292.16 1443.71 Q1289.45 1449.02 1289.45 1459.71 Q1289.45 1470.37 1292.16 1475.72 Q1294.9 1481.03 1300.32 1481.03 Q1305.77 1481.03 1308.48 1475.72 Q1311.22 1470.37 1311.22 1459.71 Q1311.22 1449.02 1308.48 1443.71 Q1305.77 1438.36 1300.32 1438.36 M1300.32 1432.8 Q1309.03 1432.8 1313.62 1439.71 Q1318.23 1446.59 1318.23 1459.71 Q1318.23 1472.8 1313.62 1479.71 Q1309.03 1486.59 1300.32 1486.59 Q1291.6 1486.59 1286.98 1479.71 Q1282.4 1472.8 1282.4 1459.71 Q1282.4 1446.59 1286.98 1439.71 Q1291.6 1432.8 1300.32 1432.8 Z" fill="#000000" fill-rule="evenodd" fill-opacity="1" /><path clip-path="url(#clip780)" d="M1330.56 1476.76 L1337.89 1476.76 L1337.89 1485.58 L1330.56 1485.58 L1330.56 1476.76 Z" fill="#000000" fill-rule="evenodd" fill-opacity="1" /><path clip-path="url(#clip780)" d="M1368.16 1438.36 Q1362.75 1438.36 1360 1443.71 Q1357.3 1449.02 1357.3 1459.71 Q1357.3 1470.37 1360 1475.72 Q1362.75 1481.03 1368.16 1481.03 Q1373.62 1481.03 1376.32 1475.72 Q1379.07 1470.37 1379.07 1459.71 Q1379.07 1449.02 1376.32 1443.71 Q1373.62 1438.36 1368.16 1438.36 M1368.16 1432.8 Q1376.88 1432.8 1381.46 1439.71 Q1386.08 1446.59 1386.08 1459.71 Q1386.08 1472.8 1381.46 1479.71 Q1376.88 1486.59 1368.16 1486.59 Q1359.45 1486.59 1354.83 1479.71 Q1350.25 1472.8 1350.25 1459.71 Q1350.25 1446.59 1354.83 1439.71 Q1359.45 1432.8 1368.16 1432.8 Z" fill="#000000" fill-rule="evenodd" fill-opacity="1" /><path clip-path="url(#clip780)" d="M1708.47 1438.36 Q1703.05 1438.36 1700.31 1443.71 Q1697.6 1449.02 1697.6 1459.71 Q1697.6 1470.37 1700.31 1475.72 Q1703.05 1481.03 1708.47 1481.03 Q1713.92 1481.03 1716.63 1475.72 Q1719.37 1470.37 1719.37 1459.71 Q1719.37 1449.02 1716.63 1443.71 Q1713.92 1438.36 1708.47 1438.36 M1708.47 1432.8 Q1717.18 1432.8 1721.77 1439.71 Q1726.39 1446.59 1726.39 1459.71 Q1726.39 1472.8 1721.77 1479.71 Q1717.18 1486.59 1708.47 1486.59 Q1699.75 1486.59 1695.14 1479.71 Q1690.55 1472.8 1690.55 1459.71 Q1690.55 1446.59 1695.14 1439.71 Q1699.75 1432.8 1708.47 1432.8 Z" fill="#000000" fill-rule="evenodd" fill-opacity="1" /><path clip-path="url(#clip780)" d="M1738.71 1476.76 L1746.04 1476.76 L1746.04 1485.58 L1738.71 1485.58 L1738.71 1476.76 Z" fill="#000000" fill-rule="evenodd" fill-opacity="1" /><path clip-path="url(#clip780)" d="M1761.39 1433.74 L1788.92 1433.74 L1788.92 1439.64 L1767.81 1439.64 L1767.81 1452.35 Q1769.34 1451.83 1770.87 1451.59 Q1772.39 1451.31 1773.92 1451.31 Q1782.6 1451.31 1787.67 1456.07 Q1792.74 1460.82 1792.74 1468.95 Q1792.74 1477.32 1787.53 1481.97 Q1782.32 1486.59 1772.84 1486.59 Q1769.58 1486.59 1766.18 1486.03 Q1762.81 1485.48 1759.2 1484.36 L1759.2 1477.32 Q1762.32 1479.02 1765.66 1479.85 Q1768.99 1480.68 1772.71 1480.68 Q1778.71 1480.68 1782.22 1477.52 Q1785.73 1474.36 1785.73 1468.95 Q1785.73 1463.53 1782.22 1460.37 Q1778.71 1457.21 1772.71 1457.21 Q1769.89 1457.21 1767.08 1457.84 Q1764.3 1458.46 1761.39 1459.78 L1761.39 1433.74 Z" fill="#000000" fill-rule="evenodd" fill-opacity="1" /><path clip-path="url(#clip780)" d="M2099.78 1479.68 L2111.24 1479.68 L2111.24 1440.13 L2098.78 1442.63 L2098.78 1436.24 L2111.17 1433.74 L2118.18 1433.74 L2118.18 1479.68 L2129.64 1479.68 L2129.64 1485.58 L2099.78 1485.58 L2099.78 1479.68 Z" fill="#000000" fill-rule="evenodd" fill-opacity="1" /><path clip-path="url(#clip780)" d="M2143.81 1476.76 L2151.14 1476.76 L2151.14 1485.58 L2143.81 1485.58 L2143.81 1476.76 Z" fill="#000000" fill-rule="evenodd" fill-opacity="1" /><path clip-path="url(#clip780)" d="M2181.41 1438.36 Q2176 1438.36 2173.25 1443.71 Q2170.55 1449.02 2170.55 1459.71 Q2170.55 1470.37 2173.25 1475.72 Q2176 1481.03 2181.41 1481.03 Q2186.87 1481.03 2189.57 1475.72 Q2192.32 1470.37 2192.32 1459.71 Q2192.32 1449.02 2189.57 1443.71 Q2186.87 1438.36 2181.41 1438.36 M2181.41 1432.8 Q2190.13 1432.8 2194.71 1439.71 Q2199.33 1446.59 2199.33 1459.71 Q2199.33 1472.8 2194.71 1479.71 Q2190.13 1486.59 2181.41 1486.59 Q2172.7 1486.59 2168.08 1479.71 Q2163.5 1472.8 2163.5 1459.71 Q2163.5 1446.59 2168.08 1439.71 Q2172.7 1432.8 2181.41 1432.8 Z" fill="#000000" fill-rule="evenodd" fill-opacity="1" /><path clip-path="url(#clip780)" d="M1213.13 1538.66 L1219.9 1538.66 L1232.05 1571.3 L1244.21 1538.66 L1250.98 1538.66 L1236.39 1577.55 L1227.71 1577.55 L1213.13 1538.66 Z" fill="#000000" fill-rule="evenodd" fill-opacity="1" /><path clip-path="url(#clip780)" d="M1281.81 1523.52 L1296.53 1523.52 L1296.53 1528.49 L1288.2 1528.49 L1288.2 1581.96 L1296.53 1581.96 L1296.53 1586.92 L1281.81 1586.92 L1281.81 1523.52 Z" fill="#000000" fill-rule="evenodd" fill-opacity="1" /><path clip-path="url(#clip780)" d="M1340.42 1546.12 Q1342.82 1541.82 1346.15 1539.77 Q1349.48 1537.72 1354 1537.72 Q1360.07 1537.72 1363.37 1541.99 Q1366.67 1546.23 1366.67 1554.08 L1366.67 1577.55 L1360.25 1577.55 L1360.25 1554.28 Q1360.25 1548.69 1358.27 1545.99 Q1356.29 1543.28 1352.23 1543.28 Q1347.26 1543.28 1344.38 1546.58 Q1341.5 1549.87 1341.5 1555.57 L1341.5 1577.55 L1335.07 1577.55 L1335.07 1554.28 Q1335.07 1548.66 1333.09 1545.99 Q1331.12 1543.28 1326.98 1543.28 Q1322.09 1543.28 1319.21 1546.61 Q1316.32 1549.91 1316.32 1555.57 L1316.32 1577.55 L1309.9 1577.55 L1309.9 1538.66 L1316.32 1538.66 L1316.32 1544.7 Q1318.51 1541.12 1321.57 1539.42 Q1324.62 1537.72 1328.82 1537.72 Q1333.06 1537.72 1336.01 1539.87 Q1339 1542.03 1340.42 1546.12 Z" fill="#000000" fill-rule="evenodd" fill-opacity="1" /><path clip-path="url(#clip780)" d="M1390.77 1525.71 L1396.67 1525.71 L1378.62 1584.15 L1372.71 1584.15 L1390.77 1525.71 Z" fill="#000000" fill-rule="evenodd" fill-opacity="1" /><path clip-path="url(#clip780)" d="M1428.16 1539.8 L1428.16 1545.85 Q1425.46 1544.46 1422.54 1543.76 Q1419.62 1543.07 1416.5 1543.07 Q1411.74 1543.07 1409.34 1544.53 Q1406.98 1545.99 1406.98 1548.9 Q1406.98 1551.12 1408.68 1552.41 Q1410.39 1553.66 1415.52 1554.8 L1417.71 1555.29 Q1424.52 1556.75 1427.37 1559.42 Q1430.25 1562.06 1430.25 1566.82 Q1430.25 1572.24 1425.94 1575.4 Q1421.67 1578.55 1414.17 1578.55 Q1411.05 1578.55 1407.64 1577.93 Q1404.27 1577.34 1400.52 1576.12 L1400.52 1569.53 Q1404.07 1571.37 1407.5 1572.3 Q1410.94 1573.21 1414.31 1573.21 Q1418.82 1573.21 1421.25 1571.68 Q1423.68 1570.12 1423.68 1567.3 Q1423.68 1564.7 1421.91 1563.31 Q1420.18 1561.92 1414.24 1560.64 L1412.02 1560.12 Q1406.08 1558.87 1403.44 1556.3 Q1400.8 1553.69 1400.8 1549.18 Q1400.8 1543.69 1404.69 1540.71 Q1408.58 1537.72 1415.73 1537.72 Q1419.27 1537.72 1422.4 1538.24 Q1425.52 1538.76 1428.16 1539.8 Z" fill="#000000" fill-rule="evenodd" fill-opacity="1" /><path clip-path="url(#clip780)" d="M1455.35 1523.52 L1455.35 1586.92 L1440.63 1586.92 L1440.63 1581.96 L1448.93 1581.96 L1448.93 1528.49 L1440.63 1528.49 L1440.63 1523.52 L1455.35 1523.52 Z" fill="#000000" fill-rule="evenodd" fill-opacity="1" /><polyline clip-path="url(#clip782)" style="stroke:#000000; stroke-linecap:butt; stroke-linejoin:round; stroke-width:2; stroke-opacity:0.1; fill:none" points="
  315.725,1264.92 2352.76,1264.92 
  "/>
<polyline clip-path="url(#clip782)" style="stroke:#000000; stroke-linecap:butt; stroke-linejoin:round; stroke-width:2; stroke-opacity:0.1; fill:none" points="
  315.725,1119.36 2352.76,1119.36 
  "/>
<polyline clip-path="url(#clip782)" style="stroke:#000000; stroke-linecap:butt; stroke-linejoin:round; stroke-width:2; stroke-opacity:0.1; fill:none" points="
  315.725,973.808 2352.76,973.808 
  "/>
<polyline clip-path="url(#clip782)" style="stroke:#000000; stroke-linecap:butt; stroke-linejoin:round; stroke-width:2; stroke-opacity:0.1; fill:none" points="
  315.725,828.253 2352.76,828.253 
  "/>
<polyline clip-path="url(#clip782)" style="stroke:#000000; stroke-linecap:butt; stroke-linejoin:round; stroke-width:2; stroke-opacity:0.1; fill:none" points="
  315.725,682.699 2352.76,682.699 
  "/>
<polyline clip-path="url(#clip782)" style="stroke:#000000; stroke-linecap:butt; stroke-linejoin:round; stroke-width:2; stroke-opacity:0.1; fill:none" points="
  315.725,537.144 2352.76,537.144 
  "/>
<polyline clip-path="url(#clip782)" style="stroke:#000000; stroke-linecap:butt; stroke-linejoin:round; stroke-width:2; stroke-opacity:0.1; fill:none" points="
  315.725,391.589 2352.76,391.589 
  "/>
<polyline clip-path="url(#clip782)" style="stroke:#000000; stroke-linecap:butt; stroke-linejoin:round; stroke-width:2; stroke-opacity:0.1; fill:none" points="
  315.725,246.034 2352.76,246.034 
  "/>
<polyline clip-path="url(#clip780)" style="stroke:#000000; stroke-linecap:butt; stroke-linejoin:round; stroke-width:4; stroke-opacity:1; fill:none" points="
  315.725,1401.58 315.725,123.472 
  "/>
<polyline clip-path="url(#clip780)" style="stroke:#000000; stroke-linecap:butt; stroke-linejoin:round; stroke-width:4; stroke-opacity:1; fill:none" points="
  315.725,1264.92 334.623,1264.92 
  "/>
<polyline clip-path="url(#clip780)" style="stroke:#000000; stroke-linecap:butt; stroke-linejoin:round; stroke-width:4; stroke-opacity:1; fill:none" points="
  315.725,1119.36 334.623,1119.36 
  "/>
<polyline clip-path="url(#clip780)" style="stroke:#000000; stroke-linecap:butt; stroke-linejoin:round; stroke-width:4; stroke-opacity:1; fill:none" points="
  315.725,973.808 334.623,973.808 
  "/>
<polyline clip-path="url(#clip780)" style="stroke:#000000; stroke-linecap:butt; stroke-linejoin:round; stroke-width:4; stroke-opacity:1; fill:none" points="
  315.725,828.253 334.623,828.253 
  "/>
<polyline clip-path="url(#clip780)" style="stroke:#000000; stroke-linecap:butt; stroke-linejoin:round; stroke-width:4; stroke-opacity:1; fill:none" points="
  315.725,682.699 334.623,682.699 
  "/>
<polyline clip-path="url(#clip780)" style="stroke:#000000; stroke-linecap:butt; stroke-linejoin:round; stroke-width:4; stroke-opacity:1; fill:none" points="
  315.725,537.144 334.623,537.144 
  "/>
<polyline clip-path="url(#clip780)" style="stroke:#000000; stroke-linecap:butt; stroke-linejoin:round; stroke-width:4; stroke-opacity:1; fill:none" points="
  315.725,391.589 334.623,391.589 
  "/>
<polyline clip-path="url(#clip780)" style="stroke:#000000; stroke-linecap:butt; stroke-linejoin:round; stroke-width:4; stroke-opacity:1; fill:none" points="
  315.725,246.034 334.623,246.034 
  "/>
<path clip-path="url(#clip780)" d="M119.066 1265.59 L163.58 1265.59 L163.58 1271.5 L119.066 1271.5 L119.066 1265.59 Z" fill="#000000" fill-rule="evenodd" fill-opacity="1" /><path clip-path="url(#clip780)" d="M193.719 1243.62 Q188.302 1243.62 185.559 1248.96 Q182.851 1254.28 182.851 1264.97 Q182.851 1275.63 185.559 1280.98 Q188.302 1286.29 193.719 1286.29 Q199.17 1286.29 201.878 1280.98 Q204.621 1275.63 204.621 1264.97 Q204.621 1254.28 201.878 1248.96 Q199.17 1243.62 193.719 1243.62 M193.719 1238.06 Q202.434 1238.06 207.017 1244.97 Q211.635 1251.84 211.635 1264.97 Q211.635 1278.06 207.017 1284.97 Q202.434 1291.84 193.719 1291.84 Q185.003 1291.84 180.385 1284.97 Q175.802 1278.06 175.802 1264.97 Q175.802 1251.84 180.385 1244.97 Q185.003 1238.06 193.719 1238.06 Z" fill="#000000" fill-rule="evenodd" fill-opacity="1" /><path clip-path="url(#clip780)" d="M223.962 1282.02 L231.288 1282.02 L231.288 1290.84 L223.962 1290.84 L223.962 1282.02 Z" fill="#000000" fill-rule="evenodd" fill-opacity="1" /><path clip-path="url(#clip780)" d="M262.434 1262.12 Q257.711 1262.12 254.934 1265.35 Q252.191 1268.58 252.191 1274.21 Q252.191 1279.8 254.934 1283.06 Q257.711 1286.29 262.434 1286.29 Q267.156 1286.29 269.899 1283.06 Q272.677 1279.8 272.677 1274.21 Q272.677 1268.58 269.899 1265.35 Q267.156 1262.12 262.434 1262.12 M276.357 1240.14 L276.357 1246.53 Q273.718 1245.28 271.01 1244.62 Q268.336 1243.96 265.697 1243.96 Q258.753 1243.96 255.072 1248.65 Q251.427 1253.34 250.906 1262.82 Q252.954 1259.8 256.045 1258.2 Q259.135 1256.57 262.85 1256.57 Q270.663 1256.57 275.177 1261.32 Q279.725 1266.05 279.725 1274.21 Q279.725 1282.19 275.003 1287.02 Q270.281 1291.84 262.434 1291.84 Q253.441 1291.84 248.684 1284.97 Q243.927 1278.06 243.927 1264.97 Q243.927 1252.68 249.76 1245.39 Q255.593 1238.06 265.42 1238.06 Q268.059 1238.06 270.732 1238.58 Q273.44 1239.1 276.357 1240.14 Z" fill="#000000" fill-rule="evenodd" fill-opacity="1" /><path clip-path="url(#clip780)" d="M118.58 1120.04 L163.094 1120.04 L163.094 1125.94 L118.58 1125.94 L118.58 1120.04 Z" fill="#000000" fill-rule="evenodd" fill-opacity="1" /><path clip-path="url(#clip780)" d="M193.233 1098.06 Q187.816 1098.06 185.073 1103.41 Q182.365 1108.72 182.365 1119.41 Q182.365 1130.07 185.073 1135.42 Q187.816 1140.73 193.233 1140.73 Q198.684 1140.73 201.392 1135.42 Q204.135 1130.07 204.135 1119.41 Q204.135 1108.72 201.392 1103.41 Q198.684 1098.06 193.233 1098.06 M193.233 1092.51 Q201.948 1092.51 206.531 1099.41 Q211.149 1106.29 211.149 1119.41 Q211.149 1132.5 206.531 1139.41 Q201.948 1146.29 193.233 1146.29 Q184.517 1146.29 179.899 1139.41 Q175.316 1132.5 175.316 1119.41 Q175.316 1106.29 179.899 1099.41 Q184.517 1092.51 193.233 1092.51 Z" fill="#000000" fill-rule="evenodd" fill-opacity="1" /><path clip-path="url(#clip780)" d="M223.475 1136.46 L230.802 1136.46 L230.802 1145.28 L223.475 1145.28 L223.475 1136.46 Z" fill="#000000" fill-rule="evenodd" fill-opacity="1" /><path clip-path="url(#clip780)" d="M265.35 1099.55 L247.642 1127.23 L265.35 1127.23 L265.35 1099.55 M263.51 1093.44 L272.329 1093.44 L272.329 1127.23 L279.725 1127.23 L279.725 1133.06 L272.329 1133.06 L272.329 1145.28 L265.35 1145.28 L265.35 1133.06 L241.948 1133.06 L241.948 1126.29 L263.51 1093.44 Z" fill="#000000" fill-rule="evenodd" fill-opacity="1" /><path clip-path="url(#clip780)" d="M121.705 974.485 L166.219 974.485 L166.219 980.388 L121.705 980.388 L121.705 974.485 Z" fill="#000000" fill-rule="evenodd" fill-opacity="1" /><path clip-path="url(#clip780)" d="M196.358 952.506 Q190.941 952.506 188.198 957.853 Q185.49 963.166 185.49 973.86 Q185.49 984.52 188.198 989.867 Q190.941 995.179 196.358 995.179 Q201.809 995.179 204.517 989.867 Q207.26 984.52 207.26 973.86 Q207.26 963.166 204.517 957.853 Q201.809 952.506 196.358 952.506 M196.358 946.95 Q205.073 946.95 209.656 953.86 Q214.274 960.735 214.274 973.86 Q214.274 986.95 209.656 993.86 Q205.073 1000.73 196.358 1000.73 Q187.642 1000.73 183.024 993.86 Q178.441 986.95 178.441 973.86 Q178.441 960.735 183.024 953.86 Q187.642 946.95 196.358 946.95 Z" fill="#000000" fill-rule="evenodd" fill-opacity="1" /><path clip-path="url(#clip780)" d="M226.6 990.909 L233.927 990.909 L233.927 999.728 L226.6 999.728 L226.6 990.909 Z" fill="#000000" fill-rule="evenodd" fill-opacity="1" /><path clip-path="url(#clip780)" d="M255.246 993.825 L279.725 993.825 L279.725 999.728 L246.809 999.728 L246.809 993.825 Q250.802 989.693 257.677 982.749 Q264.586 975.77 266.357 973.756 Q269.725 969.971 271.045 967.367 Q272.399 964.728 272.399 962.193 Q272.399 958.061 269.482 955.457 Q266.6 952.853 261.947 952.853 Q258.649 952.853 254.968 953.999 Q251.323 955.145 247.156 957.471 L247.156 950.388 Q251.392 948.687 255.072 947.818 Q258.753 946.95 261.809 946.95 Q269.864 946.95 274.656 950.978 Q279.447 955.006 279.447 961.742 Q279.447 964.936 278.232 967.818 Q277.052 970.666 273.892 974.554 Q273.024 975.561 268.371 980.388 Q263.718 985.179 255.246 993.825 Z" fill="#000000" fill-rule="evenodd" fill-opacity="1" /><path clip-path="url(#clip780)" d="M193.962 806.951 Q188.545 806.951 185.802 812.298 Q183.094 817.611 183.094 828.305 Q183.094 838.965 185.802 844.312 Q188.545 849.625 193.962 849.625 Q199.413 849.625 202.121 844.312 Q204.864 838.965 204.864 828.305 Q204.864 817.611 202.121 812.298 Q199.413 806.951 193.962 806.951 M193.962 801.396 Q202.677 801.396 207.26 808.305 Q211.878 815.18 211.878 828.305 Q211.878 841.396 207.26 848.305 Q202.677 855.18 193.962 855.18 Q185.246 855.18 180.628 848.305 Q176.045 841.396 176.045 828.305 Q176.045 815.18 180.628 808.305 Q185.246 801.396 193.962 801.396 Z" fill="#000000" fill-rule="evenodd" fill-opacity="1" /><path clip-path="url(#clip780)" d="M224.205 845.354 L231.531 845.354 L231.531 854.173 L224.205 854.173 L224.205 845.354 Z" fill="#000000" fill-rule="evenodd" fill-opacity="1" /><path clip-path="url(#clip780)" d="M261.809 806.951 Q256.392 806.951 253.649 812.298 Q250.941 817.611 250.941 828.305 Q250.941 838.965 253.649 844.312 Q256.392 849.625 261.809 849.625 Q267.26 849.625 269.968 844.312 Q272.711 838.965 272.711 828.305 Q272.711 817.611 269.968 812.298 Q267.26 806.951 261.809 806.951 M261.809 801.396 Q270.524 801.396 275.107 808.305 Q279.725 815.18 279.725 828.305 Q279.725 841.396 275.107 848.305 Q270.524 855.18 261.809 855.18 Q253.093 855.18 248.475 848.305 Q243.892 841.396 243.892 828.305 Q243.892 815.18 248.475 808.305 Q253.093 801.396 261.809 801.396 Z" fill="#000000" fill-rule="evenodd" fill-opacity="1" /><path clip-path="url(#clip780)" d="M196.358 661.397 Q190.941 661.397 188.198 666.744 Q185.49 672.056 185.49 682.751 Q185.49 693.41 188.198 698.757 Q190.941 704.07 196.358 704.07 Q201.809 704.07 204.517 698.757 Q207.26 693.41 207.26 682.751 Q207.26 672.056 204.517 666.744 Q201.809 661.397 196.358 661.397 M196.358 655.841 Q205.073 655.841 209.656 662.751 Q214.274 669.626 214.274 682.751 Q214.274 695.841 209.656 702.751 Q205.073 709.625 196.358 709.625 Q187.642 709.625 183.024 702.751 Q178.441 695.841 178.441 682.751 Q178.441 669.626 183.024 662.751 Q187.642 655.841 196.358 655.841 Z" fill="#000000" fill-rule="evenodd" fill-opacity="1" /><path clip-path="url(#clip780)" d="M226.6 699.799 L233.927 699.799 L233.927 708.619 L226.6 708.619 L226.6 699.799 Z" fill="#000000" fill-rule="evenodd" fill-opacity="1" /><path clip-path="url(#clip780)" d="M255.246 702.716 L279.725 702.716 L279.725 708.619 L246.809 708.619 L246.809 702.716 Q250.802 698.584 257.677 691.639 Q264.586 684.66 266.357 682.646 Q269.725 678.862 271.045 676.258 Q272.399 673.619 272.399 671.084 Q272.399 666.952 269.482 664.348 Q266.6 661.744 261.947 661.744 Q258.649 661.744 254.968 662.89 Q251.323 664.035 247.156 666.362 L247.156 659.279 Q251.392 657.577 255.072 656.709 Q258.753 655.841 261.809 655.841 Q269.864 655.841 274.656 659.869 Q279.447 663.897 279.447 670.633 Q279.447 673.827 278.232 676.709 Q277.052 679.556 273.892 683.445 Q273.024 684.452 268.371 689.278 Q263.718 694.07 255.246 702.716 Z" fill="#000000" fill-rule="evenodd" fill-opacity="1" /><path clip-path="url(#clip780)" d="M193.233 515.842 Q187.816 515.842 185.073 521.189 Q182.365 526.502 182.365 537.196 Q182.365 547.856 185.073 553.203 Q187.816 558.515 193.233 558.515 Q198.684 558.515 201.392 553.203 Q204.135 547.856 204.135 537.196 Q204.135 526.502 201.392 521.189 Q198.684 515.842 193.233 515.842 M193.233 510.286 Q201.948 510.286 206.531 517.196 Q211.149 524.071 211.149 537.196 Q211.149 550.286 206.531 557.196 Q201.948 564.071 193.233 564.071 Q184.517 564.071 179.899 557.196 Q175.316 550.286 175.316 537.196 Q175.316 524.071 179.899 517.196 Q184.517 510.286 193.233 510.286 Z" fill="#000000" fill-rule="evenodd" fill-opacity="1" /><path clip-path="url(#clip780)" d="M223.475 554.244 L230.802 554.244 L230.802 563.064 L223.475 563.064 L223.475 554.244 Z" fill="#000000" fill-rule="evenodd" fill-opacity="1" /><path clip-path="url(#clip780)" d="M265.35 517.335 L247.642 545.008 L265.35 545.008 L265.35 517.335 M263.51 511.224 L272.329 511.224 L272.329 545.008 L279.725 545.008 L279.725 550.842 L272.329 550.842 L272.329 563.064 L265.35 563.064 L265.35 550.842 L241.948 550.842 L241.948 544.071 L263.51 511.224 Z" fill="#000000" fill-rule="evenodd" fill-opacity="1" /><path clip-path="url(#clip780)" d="M193.719 370.287 Q188.302 370.287 185.559 375.634 Q182.851 380.947 182.851 391.641 Q182.851 402.301 185.559 407.648 Q188.302 412.961 193.719 412.961 Q199.17 412.961 201.878 407.648 Q204.621 402.301 204.621 391.641 Q204.621 380.947 201.878 375.634 Q199.17 370.287 193.719 370.287 M193.719 364.732 Q202.434 364.732 207.017 371.641 Q211.635 378.516 211.635 391.641 Q211.635 404.731 207.017 411.641 Q202.434 418.516 193.719 418.516 Q185.003 418.516 180.385 411.641 Q175.802 404.731 175.802 391.641 Q175.802 378.516 180.385 371.641 Q185.003 364.732 193.719 364.732 Z" fill="#000000" fill-rule="evenodd" fill-opacity="1" /><path clip-path="url(#clip780)" d="M223.962 408.69 L231.288 408.69 L231.288 417.509 L223.962 417.509 L223.962 408.69 Z" fill="#000000" fill-rule="evenodd" fill-opacity="1" /><path clip-path="url(#clip780)" d="M262.434 388.794 Q257.711 388.794 254.934 392.023 Q252.191 395.252 252.191 400.877 Q252.191 406.468 254.934 409.731 Q257.711 412.961 262.434 412.961 Q267.156 412.961 269.899 409.731 Q272.677 406.468 272.677 400.877 Q272.677 395.252 269.899 392.023 Q267.156 388.794 262.434 388.794 M276.357 366.815 L276.357 373.204 Q273.718 371.954 271.01 371.294 Q268.336 370.634 265.697 370.634 Q258.753 370.634 255.072 375.322 Q251.427 380.009 250.906 389.488 Q252.954 386.468 256.045 384.87 Q259.135 383.239 262.85 383.239 Q270.663 383.239 275.177 387.995 Q279.725 392.718 279.725 400.877 Q279.725 408.863 275.003 413.69 Q270.281 418.516 262.434 418.516 Q253.441 418.516 248.684 411.641 Q243.927 404.731 243.927 391.641 Q243.927 379.35 249.76 372.058 Q255.593 364.732 265.42 364.732 Q268.059 364.732 270.732 365.252 Q273.44 365.773 276.357 366.815 Z" fill="#000000" fill-rule="evenodd" fill-opacity="1" /><path clip-path="url(#clip780)" d="M194.101 224.732 Q188.684 224.732 185.941 230.08 Q183.233 235.392 183.233 246.087 Q183.233 256.746 185.941 262.093 Q188.684 267.406 194.101 267.406 Q199.552 267.406 202.26 262.093 Q205.003 256.746 205.003 246.087 Q205.003 235.392 202.26 230.08 Q199.552 224.732 194.101 224.732 M194.101 219.177 Q202.816 219.177 207.399 226.087 Q212.017 232.962 212.017 246.087 Q212.017 259.177 207.399 266.086 Q202.816 272.961 194.101 272.961 Q185.385 272.961 180.767 266.086 Q176.184 259.177 176.184 246.087 Q176.184 232.962 180.767 226.087 Q185.385 219.177 194.101 219.177 Z" fill="#000000" fill-rule="evenodd" fill-opacity="1" /><path clip-path="url(#clip780)" d="M224.343 263.135 L231.67 263.135 L231.67 271.954 L224.343 271.954 L224.343 263.135 Z" fill="#000000" fill-rule="evenodd" fill-opacity="1" /><path clip-path="url(#clip780)" d="M261.947 247.337 Q256.947 247.337 254.066 250.01 Q251.218 252.684 251.218 257.371 Q251.218 262.059 254.066 264.732 Q256.947 267.406 261.947 267.406 Q266.947 267.406 269.829 264.732 Q272.711 262.024 272.711 257.371 Q272.711 252.684 269.829 250.01 Q266.982 247.337 261.947 247.337 M254.934 244.35 Q250.42 243.239 247.885 240.149 Q245.385 237.059 245.385 232.614 Q245.385 226.399 249.795 222.788 Q254.239 219.177 261.947 219.177 Q269.69 219.177 274.1 222.788 Q278.51 226.399 278.51 232.614 Q278.51 237.059 275.975 240.149 Q273.475 243.239 268.996 244.35 Q274.065 245.531 276.878 248.968 Q279.725 252.406 279.725 257.371 Q279.725 264.906 275.107 268.934 Q270.524 272.961 261.947 272.961 Q253.371 272.961 248.753 268.934 Q244.17 264.906 244.17 257.371 Q244.17 252.406 247.017 248.968 Q249.864 245.531 254.934 244.35 M252.364 233.274 Q252.364 237.302 254.864 239.559 Q257.399 241.816 261.947 241.816 Q266.461 241.816 268.996 239.559 Q271.565 237.302 271.565 233.274 Q271.565 229.246 268.996 226.989 Q266.461 224.732 261.947 224.732 Q257.399 224.732 254.864 226.989 Q252.364 229.246 252.364 233.274 Z" fill="#000000" fill-rule="evenodd" fill-opacity="1" /><path clip-path="url(#clip780)" d="M13.0007 1025.04 L18.3131 1025.04 L18.3131 1031.15 Q18.3131 1034.59 19.702 1035.94 Q21.0909 1037.26 24.702 1037.26 L28.1395 1037.26 L28.1395 1026.74 L33.1047 1026.74 L33.1047 1037.26 L67.0282 1037.26 L67.0282 1043.69 L33.1047 1043.69 L33.1047 1049.8 L28.1395 1049.8 L28.1395 1043.69 L25.4312 1043.69 Q18.9381 1043.69 15.9868 1040.67 Q13.0007 1037.65 13.0007 1031.08 L13.0007 1025.04 Z" fill="#000000" fill-rule="evenodd" fill-opacity="1" /><path clip-path="url(#clip780)" d="M34.1117 997.16 Q33.4867 998.237 33.2089 999.521 Q32.8964 1000.77 32.8964 1002.3 Q32.8964 1007.72 36.438 1010.63 Q39.945 1013.51 46.5422 1013.51 L67.0282 1013.51 L67.0282 1019.94 L28.1395 1019.94 L28.1395 1013.51 L34.1811 1013.51 Q30.6395 1011.5 28.9381 1008.27 Q27.202 1005.04 27.202 1000.42 Q27.202 999.764 27.3061 998.966 Q27.3756 998.167 27.5492 997.195 L34.1117 997.16 Z" fill="#000000" fill-rule="evenodd" fill-opacity="1" /><path clip-path="url(#clip780)" d="M28.1395 990.459 L28.1395 984.07 L67.0282 984.07 L67.0282 990.459 L28.1395 990.459 M13.0007 990.459 L13.0007 984.07 L21.0909 984.07 L21.0909 990.459 L13.0007 990.459 Z" fill="#000000" fill-rule="evenodd" fill-opacity="1" /><path clip-path="url(#clip780)" d="M29.6325 942.716 L35.6047 942.716 Q34.1117 945.424 33.3825 948.167 Q32.6186 950.876 32.6186 953.653 Q32.6186 959.869 36.5769 963.306 Q40.5005 966.744 47.6185 966.744 Q54.7366 966.744 58.6949 963.306 Q62.6185 959.869 62.6185 953.653 Q62.6185 950.876 61.8893 948.167 Q61.1254 945.424 59.6324 942.716 L65.5351 942.716 Q66.7851 945.39 67.4101 948.272 Q68.0351 951.119 68.0351 954.348 Q68.0351 963.133 62.5143 968.306 Q56.9935 973.48 47.6185 973.48 Q38.1047 973.48 32.6533 968.271 Q27.202 963.028 27.202 953.931 Q27.202 950.98 27.827 948.167 Q28.4173 945.355 29.6325 942.716 Z" fill="#000000" fill-rule="evenodd" fill-opacity="1" /><path clip-path="url(#clip780)" d="M17.0979 925.286 L28.1395 925.286 L28.1395 912.126 L33.1047 912.126 L33.1047 925.286 L54.2157 925.286 Q58.9726 925.286 60.3268 924.001 Q61.681 922.681 61.681 918.688 L61.681 912.126 L67.0282 912.126 L67.0282 918.688 Q67.0282 926.084 64.2851 928.897 Q61.5074 931.709 54.2157 931.709 L33.1047 931.709 L33.1047 936.397 L28.1395 936.397 L28.1395 931.709 L17.0979 931.709 L17.0979 925.286 Z" fill="#000000" fill-rule="evenodd" fill-opacity="1" /><path clip-path="url(#clip780)" d="M28.1395 903.723 L28.1395 897.334 L67.0282 897.334 L67.0282 903.723 L28.1395 903.723 M13.0007 903.723 L13.0007 897.334 L21.0909 897.334 L21.0909 903.723 L13.0007 903.723 Z" fill="#000000" fill-rule="evenodd" fill-opacity="1" /><path clip-path="url(#clip780)" d="M32.6186 868.897 Q32.6186 874.036 36.6464 877.022 Q40.6394 880.008 47.6185 880.008 Q54.5977 880.008 58.6254 877.057 Q62.6185 874.071 62.6185 868.897 Q62.6185 863.793 58.5907 860.807 Q54.5629 857.821 47.6185 857.821 Q40.7089 857.821 36.6811 860.807 Q32.6186 863.793 32.6186 868.897 M27.202 868.897 Q27.202 860.564 32.6186 855.807 Q38.0353 851.05 47.6185 851.05 Q57.1671 851.05 62.6185 855.807 Q68.0351 860.564 68.0351 868.897 Q68.0351 877.265 62.6185 882.022 Q57.1671 886.744 47.6185 886.744 Q38.0353 886.744 32.6186 882.022 Q27.202 877.265 27.202 868.897 Z" fill="#000000" fill-rule="evenodd" fill-opacity="1" /><path clip-path="url(#clip780)" d="M43.5561 808.133 L67.0282 808.133 L67.0282 814.522 L43.7644 814.522 Q38.2436 814.522 35.5005 816.675 Q32.7575 818.828 32.7575 823.133 Q32.7575 828.307 36.0561 831.293 Q39.3547 834.279 45.0491 834.279 L67.0282 834.279 L67.0282 840.703 L28.1395 840.703 L28.1395 834.279 L34.1811 834.279 Q30.6742 831.987 28.9381 828.897 Q27.202 825.772 27.202 821.71 Q27.202 815.008 31.3686 811.571 Q35.5005 808.133 43.5561 808.133 Z" fill="#000000" fill-rule="evenodd" fill-opacity="1" /><path clip-path="url(#clip780)" d="M13.0007 753.099 L18.3131 753.099 L18.3131 759.21 Q18.3131 762.648 19.702 764.002 Q21.0909 765.321 24.702 765.321 L28.1395 765.321 L28.1395 754.8 L33.1047 754.8 L33.1047 765.321 L67.0282 765.321 L67.0282 771.745 L33.1047 771.745 L33.1047 777.856 L28.1395 777.856 L28.1395 771.745 L25.4312 771.745 Q18.9381 771.745 15.9868 768.724 Q13.0007 765.703 13.0007 759.141 L13.0007 753.099 Z" fill="#000000" fill-rule="evenodd" fill-opacity="1" /><path clip-path="url(#clip780)" d="M32.6186 732.682 Q32.6186 737.821 36.6464 740.807 Q40.6394 743.793 47.6185 743.793 Q54.5977 743.793 58.6254 740.842 Q62.6185 737.856 62.6185 732.682 Q62.6185 727.578 58.5907 724.592 Q54.5629 721.606 47.6185 721.606 Q40.7089 721.606 36.6811 724.592 Q32.6186 727.578 32.6186 732.682 M27.202 732.682 Q27.202 724.349 32.6186 719.592 Q38.0353 714.835 47.6185 714.835 Q57.1671 714.835 62.6185 719.592 Q68.0351 724.349 68.0351 732.682 Q68.0351 741.05 62.6185 745.807 Q57.1671 750.53 47.6185 750.53 Q38.0353 750.53 32.6186 745.807 Q27.202 741.05 27.202 732.682 Z" fill="#000000" fill-rule="evenodd" fill-opacity="1" /><path clip-path="url(#clip780)" d="M34.1117 681.71 Q33.4867 682.787 33.2089 684.072 Q32.8964 685.322 32.8964 686.849 Q32.8964 692.266 36.438 695.183 Q39.945 698.065 46.5422 698.065 L67.0282 698.065 L67.0282 704.488 L28.1395 704.488 L28.1395 698.065 L34.1811 698.065 Q30.6395 696.051 28.9381 692.821 Q27.202 689.592 27.202 684.974 Q27.202 684.315 27.3061 683.516 Q27.3756 682.717 27.5492 681.745 L34.1117 681.71 Z" fill="#000000" fill-rule="evenodd" fill-opacity="1" /><path clip-path="url(#clip780)" d="M29.6325 648.586 L35.6047 648.586 Q34.1117 651.294 33.3825 654.037 Q32.6186 656.745 32.6186 659.523 Q32.6186 665.738 36.5769 669.176 Q40.5005 672.613 47.6185 672.613 Q54.7366 672.613 58.6949 669.176 Q62.6185 665.738 62.6185 659.523 Q62.6185 656.745 61.8893 654.037 Q61.1254 651.294 59.6324 648.586 L65.5351 648.586 Q66.7851 651.259 67.4101 654.141 Q68.0351 656.988 68.0351 660.218 Q68.0351 669.002 62.5143 674.176 Q56.9935 679.349 47.6185 679.349 Q38.1047 679.349 32.6533 674.141 Q27.202 668.898 27.202 659.801 Q27.202 656.849 27.827 654.037 Q28.4173 651.224 29.6325 648.586 Z" fill="#000000" fill-rule="evenodd" fill-opacity="1" /><path clip-path="url(#clip780)" d="M45.9866 604.211 L49.1116 604.211 L49.1116 633.586 Q55.7088 633.169 59.181 629.627 Q62.6185 626.051 62.6185 619.697 Q62.6185 616.016 61.7157 612.579 Q60.8129 609.107 59.0074 605.704 L65.049 605.704 Q66.5073 609.141 67.2712 612.752 Q68.0351 616.364 68.0351 620.079 Q68.0351 629.384 62.6185 634.836 Q57.2018 640.252 47.9658 640.252 Q38.4172 640.252 32.827 635.113 Q27.202 629.94 27.202 621.19 Q27.202 613.343 32.2714 608.794 Q37.3061 604.211 45.9866 604.211 M44.1116 610.6 Q38.8686 610.669 35.7436 613.551 Q32.6186 616.398 32.6186 621.12 Q32.6186 626.468 35.6394 629.697 Q38.6603 632.891 44.1463 633.377 L44.1116 610.6 Z" fill="#000000" fill-rule="evenodd" fill-opacity="1" /><path clip-path="url(#clip780)" d="M13.0007 571.711 L13.0007 556.989 L17.9659 556.989 L17.9659 565.322 L71.4379 565.322 L71.4379 556.989 L76.4031 556.989 L76.4031 571.711 L13.0007 571.711 Z" fill="#000000" fill-rule="evenodd" fill-opacity="1" /><path clip-path="url(#clip780)" d="M15.1882 543.1 L15.1882 533.656 L58.556 510.67 L15.1882 510.67 L15.1882 503.864 L67.0282 503.864 L67.0282 513.309 L23.6603 536.295 L67.0282 536.295 L67.0282 543.1 L15.1882 543.1 Z" fill="#000000" fill-rule="evenodd" fill-opacity="1" /><path clip-path="url(#clip780)" d="M13.0007 475.253 L76.4031 475.253 L76.4031 489.975 L71.4379 489.975 L71.4379 481.677 L17.9659 481.677 L17.9659 489.975 L13.0007 489.975 L13.0007 475.253 Z" fill="#000000" fill-rule="evenodd" fill-opacity="1" /><path clip-path="url(#clip780)" d="M1008.85 12.096 L1043.61 12.096 L1043.61 18.9825 L1017.03 18.9825 L1017.03 36.8065 L1041.02 36.8065 L1041.02 43.6931 L1017.03 43.6931 L1017.03 72.576 L1008.85 72.576 L1008.85 12.096 Z" fill="#000000" fill-rule="evenodd" fill-opacity="1" /><path clip-path="url(#clip780)" d="M1076.5 34.1734 Q1075.25 33.4443 1073.75 33.1202 Q1072.29 32.7556 1070.51 32.7556 Q1064.19 32.7556 1060.78 36.8875 Q1057.42 40.9789 1057.42 48.6757 L1057.42 72.576 L1049.93 72.576 L1049.93 27.2059 L1057.42 27.2059 L1057.42 34.2544 Q1059.77 30.1225 1063.54 28.1376 Q1067.31 26.1121 1072.69 26.1121 Q1073.46 26.1121 1074.4 26.2337 Q1075.33 26.3147 1076.46 26.5172 L1076.5 34.1734 Z" fill="#000000" fill-rule="evenodd" fill-opacity="1" /><path clip-path="url(#clip780)" d="M1084.32 27.2059 L1091.77 27.2059 L1091.77 72.576 L1084.32 72.576 L1084.32 27.2059 M1084.32 9.54393 L1091.77 9.54393 L1091.77 18.9825 L1084.32 18.9825 L1084.32 9.54393 Z" fill="#000000" fill-rule="evenodd" fill-opacity="1" /><path clip-path="url(#clip780)" d="M1140.02 28.9478 L1140.02 35.9153 Q1136.86 34.1734 1133.66 33.3227 Q1130.5 32.4315 1127.26 32.4315 Q1120.01 32.4315 1116 37.0496 Q1111.99 41.6271 1111.99 49.9314 Q1111.99 58.2358 1116 62.8538 Q1120.01 67.4314 1127.26 67.4314 Q1130.5 67.4314 1133.66 66.5807 Q1136.86 65.6895 1140.02 63.9476 L1140.02 70.8341 Q1136.9 72.2924 1133.54 73.0216 Q1130.22 73.7508 1126.45 73.7508 Q1116.2 73.7508 1110.16 67.3098 Q1104.13 60.8689 1104.13 49.9314 Q1104.13 38.832 1110.21 32.472 Q1116.32 26.1121 1126.94 26.1121 Q1130.38 26.1121 1133.66 26.8413 Q1136.94 27.5299 1140.02 28.9478 Z" fill="#000000" fill-rule="evenodd" fill-opacity="1" /><path clip-path="url(#clip780)" d="M1160.36 14.324 L1160.36 27.2059 L1175.71 27.2059 L1175.71 32.9987 L1160.36 32.9987 L1160.36 57.6282 Q1160.36 63.1779 1161.85 64.7578 Q1163.39 66.3376 1168.05 66.3376 L1175.71 66.3376 L1175.71 72.576 L1168.05 72.576 Q1159.42 72.576 1156.14 69.3758 Q1152.86 66.1351 1152.86 57.6282 L1152.86 32.9987 L1147.39 32.9987 L1147.39 27.2059 L1152.86 27.2059 L1152.86 14.324 L1160.36 14.324 Z" fill="#000000" fill-rule="evenodd" fill-opacity="1" /><path clip-path="url(#clip780)" d="M1185.51 27.2059 L1192.97 27.2059 L1192.97 72.576 L1185.51 72.576 L1185.51 27.2059 M1185.51 9.54393 L1192.97 9.54393 L1192.97 18.9825 L1185.51 18.9825 L1185.51 9.54393 Z" fill="#000000" fill-rule="evenodd" fill-opacity="1" /><path clip-path="url(#clip780)" d="M1226.14 32.4315 Q1220.15 32.4315 1216.66 37.1306 Q1213.18 41.7891 1213.18 49.9314 Q1213.18 58.0738 1216.62 62.7728 Q1220.11 67.4314 1226.14 67.4314 Q1232.1 67.4314 1235.58 62.7323 Q1239.06 58.0333 1239.06 49.9314 Q1239.06 41.8701 1235.58 37.1711 Q1232.1 32.4315 1226.14 32.4315 M1226.14 26.1121 Q1235.86 26.1121 1241.41 32.4315 Q1246.96 38.7509 1246.96 49.9314 Q1246.96 61.0714 1241.41 67.4314 Q1235.86 73.7508 1226.14 73.7508 Q1216.38 73.7508 1210.83 67.4314 Q1205.32 61.0714 1205.32 49.9314 Q1205.32 38.7509 1210.83 32.4315 Q1216.38 26.1121 1226.14 26.1121 Z" fill="#000000" fill-rule="evenodd" fill-opacity="1" /><path clip-path="url(#clip780)" d="M1297.03 45.1919 L1297.03 72.576 L1289.58 72.576 L1289.58 45.4349 Q1289.58 38.994 1287.07 35.7938 Q1284.56 32.5936 1279.53 32.5936 Q1273.5 32.5936 1270.01 36.4419 Q1266.53 40.2903 1266.53 46.9338 L1266.53 72.576 L1259.04 72.576 L1259.04 27.2059 L1266.53 27.2059 L1266.53 34.2544 Q1269.2 30.163 1272.81 28.1376 Q1276.45 26.1121 1281.19 26.1121 Q1289.01 26.1121 1293.02 30.9732 Q1297.03 35.7938 1297.03 45.1919 Z" fill="#000000" fill-rule="evenodd" fill-opacity="1" /><path clip-path="url(#clip780)" d="M1373.6 35.9153 Q1376.39 30.8922 1380.28 28.5022 Q1384.17 26.1121 1389.43 26.1121 Q1396.52 26.1121 1400.37 31.0947 Q1404.22 36.0368 1404.22 45.1919 L1404.22 72.576 L1396.73 72.576 L1396.73 45.4349 Q1396.73 38.913 1394.42 35.7533 Q1392.11 32.5936 1387.37 32.5936 Q1381.58 32.5936 1378.21 36.4419 Q1374.85 40.2903 1374.85 46.9338 L1374.85 72.576 L1367.36 72.576 L1367.36 45.4349 Q1367.36 38.8725 1365.05 35.7533 Q1362.74 32.5936 1357.92 32.5936 Q1352.21 32.5936 1348.84 36.4824 Q1345.48 40.3308 1345.48 46.9338 L1345.48 72.576 L1337.99 72.576 L1337.99 27.2059 L1345.48 27.2059 L1345.48 34.2544 Q1348.03 30.082 1351.6 28.0971 Q1355.16 26.1121 1360.07 26.1121 Q1365.01 26.1121 1368.45 28.6237 Q1371.93 31.1352 1373.6 35.9153 Z" fill="#000000" fill-rule="evenodd" fill-opacity="1" /><path clip-path="url(#clip780)" d="M1436.67 32.4315 Q1430.67 32.4315 1427.19 37.1306 Q1423.7 41.7891 1423.7 49.9314 Q1423.7 58.0738 1427.15 62.7728 Q1430.63 67.4314 1436.67 67.4314 Q1442.62 67.4314 1446.11 62.7323 Q1449.59 58.0333 1449.59 49.9314 Q1449.59 41.8701 1446.11 37.1711 Q1442.62 32.4315 1436.67 32.4315 M1436.67 26.1121 Q1446.39 26.1121 1451.94 32.4315 Q1457.49 38.7509 1457.49 49.9314 Q1457.49 61.0714 1451.94 67.4314 Q1446.39 73.7508 1436.67 73.7508 Q1426.9 73.7508 1421.36 67.4314 Q1415.85 61.0714 1415.85 49.9314 Q1415.85 38.7509 1421.36 32.4315 Q1426.9 26.1121 1436.67 26.1121 Z" fill="#000000" fill-rule="evenodd" fill-opacity="1" /><path clip-path="url(#clip780)" d="M1499.7 34.0924 L1499.7 9.54393 L1507.15 9.54393 L1507.15 72.576 L1499.7 72.576 L1499.7 65.7705 Q1497.35 69.8214 1493.74 71.8063 Q1490.18 73.7508 1485.16 73.7508 Q1476.93 73.7508 1471.75 67.1883 Q1466.6 60.6258 1466.6 49.9314 Q1466.6 39.2371 1471.75 32.6746 Q1476.93 26.1121 1485.16 26.1121 Q1490.18 26.1121 1493.74 28.0971 Q1497.35 30.0415 1499.7 34.0924 M1474.3 49.9314 Q1474.3 58.1548 1477.66 62.8538 Q1481.07 67.5124 1486.98 67.5124 Q1492.89 67.5124 1496.3 62.8538 Q1499.7 58.1548 1499.7 49.9314 Q1499.7 41.7081 1496.3 37.0496 Q1492.89 32.3505 1486.98 32.3505 Q1481.07 32.3505 1477.66 37.0496 Q1474.3 41.7081 1474.3 49.9314 Z" fill="#000000" fill-rule="evenodd" fill-opacity="1" /><path clip-path="url(#clip780)" d="M1561.31 48.0275 L1561.31 51.6733 L1527.04 51.6733 Q1527.53 59.3701 1531.66 63.421 Q1535.83 67.4314 1543.25 67.4314 Q1547.54 67.4314 1551.55 66.3781 Q1555.6 65.3249 1559.57 63.2184 L1559.57 70.267 Q1555.56 71.9684 1551.35 72.8596 Q1547.14 73.7508 1542.8 73.7508 Q1531.94 73.7508 1525.58 67.4314 Q1519.27 61.1119 1519.27 50.3365 Q1519.27 39.1965 1525.26 32.6746 Q1531.3 26.1121 1541.51 26.1121 Q1550.66 26.1121 1555.97 32.0264 Q1561.31 37.9003 1561.31 48.0275 M1553.86 45.84 Q1553.78 39.7232 1550.42 36.0774 Q1547.1 32.4315 1541.59 32.4315 Q1535.35 32.4315 1531.58 35.9558 Q1527.85 39.4801 1527.29 45.8805 L1553.86 45.84 Z" fill="#000000" fill-rule="evenodd" fill-opacity="1" /><path clip-path="url(#clip780)" d="M1573.55 9.54393 L1581 9.54393 L1581 72.576 L1573.55 72.576 L1573.55 9.54393 Z" fill="#000000" fill-rule="evenodd" fill-opacity="1" /><path clip-path="url(#clip780)" d="M1631.07 65.6895 L1659.63 65.6895 L1659.63 72.576 L1621.23 72.576 L1621.23 65.6895 Q1625.89 60.8689 1633.91 52.7671 Q1641.97 44.6248 1644.03 42.2752 Q1647.96 37.8598 1649.5 34.8216 Q1651.08 31.7429 1651.08 28.7857 Q1651.08 23.9651 1647.68 20.927 Q1644.32 17.8888 1638.89 17.8888 Q1635.04 17.8888 1630.75 19.2256 Q1626.49 20.5624 1621.63 23.2765 L1621.63 15.0127 Q1626.57 13.0277 1630.87 12.015 Q1635.16 11.0023 1638.73 11.0023 Q1648.12 11.0023 1653.72 15.7013 Q1659.31 20.4004 1659.31 28.2591 Q1659.31 31.9859 1657.89 35.3482 Q1656.51 38.6699 1652.82 43.2069 Q1651.81 44.3817 1646.38 50.0125 Q1640.95 55.6027 1631.07 65.6895 Z" fill="#000000" fill-rule="evenodd" fill-opacity="1" /><polyline clip-path="url(#clip782)" style="stroke:#009af9; stroke-linecap:butt; stroke-linejoin:round; stroke-width:8; stroke-opacity:1; fill:none" points="
  1334.24,828.253 1369.03,828.253 1404.05,828.253 1439.29,828.253 1474.65,828.253 1510.11,828.253 1545.62,828.253 1581.09,828.253 1616.51,828.253 1651.8,828.253 
  1686.93,828.253 1721.85,828.253 1756.5,828.253 1790.84,828.253 1824.83,828.253 1858.41,828.253 1891.56,828.253 1924.2,828.253 1956.32,828.253 1987.88,828.253 
  2018.83,828.253 2049.13,828.253 2078.77,828.253 2107.69,828.253 2135.86,828.253 2163.26,828.253 2189.87,828.253 2215.65,828.253 2240.57,828.253 2264.59,828.253 
  2287.69,828.253 2309.83,828.253 2331.04,828.253 2351.27,828.253 2370.49,828.253 2388.67,828.253 2405.78,828.253 2421.82,828.253 2436.78,828.253 2450.66,828.253 
  2463.42,828.253 2475.04,828.253 2485.53,828.253 2494.85,828.253 2503.01,828.253 2510,828.253 2515.82,828.253 2520.46,828.253 2523.9,828.253 2526.15,828.253 
  2527.21,828.253 2527.07,828.253 2525.74,828.253 2523.21,828.253 2519.5,828.253 2514.59,828.253 2508.51,828.253 2501.25,828.253 2492.82,828.253 2483.23,828.253 
  2472.49,828.253 2460.6,828.253 2447.59,828.253 2433.47,828.253 2418.24,828.253 2401.92,828.253 2384.53,828.253 2366.09,828.253 2346.6,828.253 2326.1,828.253 
  2304.6,828.253 2282.12,828.253 2258.67,828.253 2234.29,828.253 2208.99,828.253 2182.8,828.253 2155.74,828.253 2127.84,828.253 2099.11,828.253 2069.58,828.253 
  2039.29,828.253 2008.25,828.253 1976.49,828.253 1944.05,828.253 1910.92,828.253 1877.15,828.253 1842.76,828.253 1807.78,828.253 1772.24,828.253 1736.16,828.253 
  1699.56,828.253 1662.44,828.253 1624.83,828.253 1586.77,828.253 1548.27,828.253 1509.36,828.253 1470.06,828.253 1430.38,828.253 1390.36,828.253 1350.01,828.253 
  1316.7,828.253 1287.85,828.253 1258.82,828.253 1229.64,828.253 1200.36,828.253 1171.01,828.253 1141.65,828.253 1112.31,828.253 1083.03,828.253 1053.85,828.253 
  1024.82,828.253 995.969,828.253 967.346,828.253 938.983,828.253 910.909,828.253 883.169,828.253 855.803,828.253 828.85,828.253 802.338,828.253 776.273,828.253 
  750.713,828.253 725.693,828.253 701.249,828.253 677.405,828.253 654.151,828.253 631.544,828.253 609.617,828.253 588.397,828.253 567.911,828.253 548.139,828.253 
  529.135,828.253 510.923,828.253 493.53,828.253 476.979,828.253 461.24,828.253 446.363,828.253 432.37,828.253 419.279,828.253 407.111,828.253 395.835,828.253 
  385.489,828.253 376.09,828.253 367.654,828.253 360.196,828.253 353.686,828.253 348.146,828.253 343.594,828.253 340.039,828.253 337.492,828.253 335.925,828.253 
  335.342,828.253 335.762,828.253 337.189,828.253 339.628,828.253 343.052,828.253 347.453,828.253 352.846,828.253 359.23,828.253 366.605,828.253 374.947,828.253 
  384.234,828.253 394.478,828.253 405.675,828.253 417.818,828.253 430.887,828.253 444.846,828.253 459.707,828.253 475.459,828.253 492.092,828.253 509.587,828.253 
  527.901,828.253 547.04,828.253 566.991,828.253 587.74,828.253 609.268,828.253 631.528,828.253 654.523,828.253 678.236,828.253 702.648,828.253 727.741,828.253 
  753.474,828.253 779.84,828.253 806.819,828.253 834.393,828.253 862.541,828.253 891.233,828.253 920.456,828.253 950.187,828.253 980.407,828.253 1011.09,828.253 
  1042.24,828.253 1073.82,828.253 1105.82,828.253 1138.21,828.253 1170.98,828.253 1204.07,828.253 1237.48,828.253 1271.19,828.253 1305.17,828.253 1337.61,828.253 
  1360.16,828.253 1382.85,828.253 1405.67,828.253 1428.58,828.253 1451.58,828.253 1474.6,828.253 1497.64,828.253 1520.66,828.253 1543.62,828.253 1566.51,828.253 
  1589.27,828.253 1611.9,828.253 1634.36,828.253 1656.62,828.253 1678.65,828.253 1700.43,828.253 1721.92,828.253 1743.09,828.253 1763.93,828.253 1784.4,828.253 
  1804.48,828.253 1824.15,828.253 1843.38,828.253 1862.14,828.253 1880.42,828.253 1898.2,828.253 1915.45,828.253 1932.15,828.253 1948.28,828.253 1963.82,828.253 
  1978.77,828.253 1993.1,828.253 2006.78,828.253 2019.8,828.253 2032.17,828.253 2043.86,828.253 2054.85,828.253 2065.13,828.253 2074.69,828.253 2083.54,828.253 
  2091.66,828.253 2099.03,828.253 2105.64,828.253 2111.48,828.253 2116.54,828.253 2120.81,828.253 2124.32,828.253 2127.06,828.253 2129.01,828.253 2130.16,828.253 
  2130.51,828.253 2130.06,828.253 2128.79,828.253 2126.72,828.253 2123.88,828.253 2120.25,828.253 2115.82,828.253 2110.6,828.253 2104.6,828.253 2097.81,828.253 
  2090.25,828.253 2081.93,828.253 2072.84,828.253 2063,828.253 2052.42,828.253 2041.1,828.253 2029.06,828.253 2016.3,828.253 2002.85,828.253 1988.7,828.253 
  1973.86,828.253 1958.37,828.253 1942.22,828.253 1925.43,828.253 1908.02,828.253 1890,828.253 1871.4,828.253 1852.2,828.253 1832.43,828.253 1812.12,828.253 
  1791.27,828.253 1769.91,828.253 1748.05,828.253 1725.72,828.253 1702.92,828.253 1679.64,828.253 1655.94,828.253 1631.81,828.253 1607.28,828.253 1582.37,828.253 
  1557.1,828.253 1531.47,828.253 1505.52,828.253 1479.24,828.253 1452.68,828.253 1425.83,828.253 1398.73,828.253 1371.39,828.253 1343.83,828.253 1323.88,828.253 
  1307.94,828.253 1291.92,828.253 1275.8,828.253 1259.62,828.253 1243.39,828.253 1227.13,828.253 1210.86,828.253 1194.61,828.253 1178.4,828.253 1162.22,828.253 
  1146.13,828.253 1130.12,828.253 1114.22,828.253 1098.46,828.253 1082.85,828.253 1067.42,828.253 1052.17,828.253 1037.14,828.253 1022.34,828.253 1007.78,828.253 
  993.485,828.253 979.475,828.253 965.771,828.253 952.391,828.253 939.346,828.253 926.632,828.253 914.285,828.253 902.321,828.253 890.758,828.253 879.613,828.253 
  868.897,828.253 858.589,828.253 848.728,828.253 839.33,828.253 830.408,828.253 821.976,828.253 814.049,828.253 806.59,828.253 799.641,828.253 793.213,828.253 
  787.318,828.253 781.967,828.253 777.17,828.253 772.893,828.253 769.162,828.253 765.99,828.253 763.386,828.253 761.357,828.253 759.91,828.253 759.017,828.253 
  758.684,828.253 758.928,828.253 759.753,828.253 761.163,828.253 763.162,828.253 765.727,828.253 768.847,828.253 772.541,828.253 776.81,828.253 781.653,828.253 
  787.071,828.253 793.047,828.253 799.555,828.253 806.614,828.253 814.222,828.253 822.375,828.253 831.07,828.253 840.296,828.253 850.015,828.253 860.245,828.253 
  870.981,828.253 882.216,828.253 893.945,828.253 906.158,828.253 918.815,828.253 931.929,828.253 945.492,828.253 959.495,828.253 973.93,828.253 988.789,828.253 
  1004.04,828.253 1019.67,828.253 1035.7,828.253 1052.09,828.253 1068.85,828.253 1085.95,828.253 1103.39,828.253 1121.15,828.253 1139.23,828.253 1157.6,828.253 
  1176.27,828.253 1195.21,828.253 1214.43,828.253 1233.9,828.253 1253.62,828.253 1273.57,828.253 1293.75,828.253 1314.14,828.253 1334.41,828.253 1342.92,828.253 
  1351.49,828.253 
  "/>
<polyline clip-path="url(#clip782)" style="stroke:#e26f46; stroke-linecap:butt; stroke-linejoin:round; stroke-width:8; stroke-opacity:1; fill:none" points="
  1334.24,282.423 1369.03,310.651 1404.05,336.611 1439.29,360.437 1474.65,382.236 1510.11,402.143 1545.62,420.281 1581.09,436.758 1616.51,451.704 1651.8,465.23 
  1686.93,477.451 1721.85,488.467 1756.5,498.379 1790.84,507.28 1824.83,515.256 1858.41,522.393 1891.56,528.766 1924.2,534.443 1956.32,539.492 1987.88,543.974 
  2018.83,547.943 2049.13,551.449 2078.77,554.541 2107.69,557.259 2135.86,559.643 2163.26,561.728 2189.87,563.547 2215.65,565.127 2240.57,566.495 2264.59,567.675 
  2287.69,568.687 2309.83,569.552 2331.04,570.289 2351.27,570.912 2370.49,571.435 2388.67,571.871 2405.78,572.232 2421.82,572.528 2436.78,572.769 2450.66,572.963 
  2463.42,573.117 2475.04,573.238 2485.53,573.332 2494.85,573.404 2503.01,573.457 2510,573.496 2515.82,573.525 2520.46,573.544 2523.9,573.557 2526.15,573.564 
  2527.21,573.568 2527.07,573.567 2525.74,573.563 2523.21,573.554 2519.5,573.54 2514.59,573.519 2508.51,573.489 2501.25,573.446 2492.82,573.389 2483.23,573.313 
  2472.49,573.213 2460.6,573.085 2447.59,572.922 2433.47,572.718 2418.24,572.465 2401.92,572.154 2384.53,571.777 2366.09,571.321 2346.6,570.775 2326.1,570.125 
  2304.6,569.357 2282.12,568.454 2258.67,567.397 2234.29,566.165 2208.99,564.735 2182.8,563.082 2155.74,561.178 2127.84,558.99 2099.11,556.482 2069.58,553.617 
  2039.29,550.349 2008.25,546.631 1976.49,542.408 1944.05,537.622 1910.92,532.203 1877.15,526.074 1842.76,519.155 1807.78,511.354 1772.24,502.566 1736.16,492.678 
  1699.56,481.561 1662.44,469.058 1624.83,455.015 1586.77,439.252 1548.27,421.568 1509.36,401.74 1470.06,379.517 1430.38,354.621 1390.36,326.743 1350.01,295.535 
  1316.7,1359.53 1287.85,1336.99 1258.82,1315.95 1229.64,1296.36 1200.36,1278.14 1171.01,1261.25 1141.65,1245.61 1112.31,1231.16 1083.03,1217.83 1053.85,1205.56 
  1024.82,1194.28 995.969,1183.93 967.346,1174.44 938.983,1165.77 910.909,1157.84 883.169,1150.6 855.803,1144.01 828.85,1138.02 802.338,1132.57 776.273,1127.62 
  750.713,1123.14 725.693,1119.08 701.249,1115.41 677.405,1112.1 654.151,1109.12 631.544,1106.43 609.617,1104.01 588.397,1101.84 567.911,1099.89 548.139,1098.15 
  529.135,1096.59 510.923,1095.19 493.53,1093.96 476.979,1092.85 461.24,1091.88 446.363,1091.01 432.37,1090.24 419.279,1089.57 407.111,1088.98 395.835,1088.47 
  385.489,1088.02 376.09,1087.63 367.654,1087.29 360.196,1087.01 353.686,1086.77 348.146,1086.58 343.594,1086.42 340.039,1086.3 337.492,1086.22 335.925,1086.17 
  335.342,1086.15 335.762,1086.16 337.189,1086.21 339.628,1086.29 343.052,1086.4 347.453,1086.55 352.846,1086.74 359.23,1086.98 366.605,1087.25 374.947,1087.58 
  384.234,1087.96 394.478,1088.4 405.675,1088.91 417.818,1089.5 430.887,1090.17 444.846,1090.92 459.707,1091.78 475.459,1092.76 492.092,1093.86 509.587,1095.1 
  527.901,1096.49 547.04,1098.05 566.991,1099.81 587.74,1101.77 609.268,1103.97 631.528,1106.42 654.523,1109.16 678.236,1112.22 702.648,1115.62 727.741,1119.4 
  753.474,1123.61 779.84,1128.28 806.819,1133.46 834.393,1139.21 862.541,1145.59 891.233,1152.65 920.456,1160.46 950.187,1169.11 980.407,1178.68 1011.09,1189.25 
  1042.24,1200.94 1073.82,1213.85 1105.82,1228.11 1138.21,1243.86 1170.98,1261.23 1204.07,1280.38 1237.48,1301.48 1271.19,1324.72 1305.17,1350.32 1337.61,285.27 
  1360.16,303.692 1382.85,321.177 1405.67,337.752 1428.58,353.428 1451.58,368.244 1474.6,382.205 1497.64,395.354 1520.66,407.711 1543.62,419.305 1566.51,430.175 
  1589.27,440.338 1611.9,449.839 1634.36,458.71 1656.62,466.978 1678.65,474.677 1700.43,481.837 1721.92,488.488 1743.09,494.659 1763.93,500.379 1784.4,505.675 
  1804.48,510.576 1824.15,515.105 1843.38,519.287 1862.14,523.143 1880.42,526.695 1898.2,529.967 1915.45,532.977 1932.15,535.74 1948.28,538.275 1963.82,540.599 
  1978.77,542.727 1993.1,544.672 2006.78,546.446 2019.8,548.061 2032.17,549.531 2043.86,550.865 2054.85,552.071 2065.13,553.157 2074.69,554.134 2083.54,555.009 
  2091.66,555.787 2099.03,556.475 2105.64,557.076 2111.48,557.595 2116.54,558.035 2120.81,558.401 2124.32,558.697 2127.06,558.925 2129.01,559.086 2130.16,559.181 
  2130.51,559.21 2130.06,559.172 2128.79,559.068 2126.72,558.897 2123.88,558.66 2120.25,558.353 2115.82,557.973 2110.6,557.517 2104.6,556.982 2097.81,556.363 
  2090.25,555.654 2081.93,554.851 2072.84,553.947 2063,552.935 2052.42,551.807 2041.1,550.554 2029.06,549.166 2016.3,547.633 2002.85,545.944 1988.7,544.084 
  1973.86,542.039 1958.37,539.796 1942.22,537.337 1925.43,534.645 1908.02,531.7 1890,528.482 1871.4,524.966 1852.2,521.126 1832.43,516.935 1812.12,512.365 
  1791.27,507.384 1769.91,501.959 1748.05,496.052 1725.72,489.624 1702.92,482.628 1679.64,475.013 1655.94,466.733 1631.81,457.731 1607.28,447.949 1582.37,437.323 
  1557.1,425.785 1531.47,413.26 1505.52,399.667 1479.24,384.92 1452.68,368.929 1425.83,351.596 1398.73,332.816 1371.39,312.476 1343.83,290.459 1323.88,1365.41 
  1307.94,1352.51 1291.92,1340.07 1275.8,1328.07 1259.62,1316.52 1243.39,1305.41 1227.13,1294.74 1210.86,1284.52 1194.61,1274.73 1178.4,1265.38 1162.22,1256.44 
  1146.13,1247.92 1130.12,1239.8 1114.22,1232.07 1098.46,1224.73 1082.85,1217.75 1067.42,1211.14 1052.17,1204.88 1037.14,1198.96 1022.34,1193.36 1007.78,1188.07 
  993.485,1183.07 979.475,1178.37 965.771,1173.94 952.391,1169.78 939.346,1165.87 926.632,1162.2 914.285,1158.76 902.321,1155.53 890.758,1152.52 879.613,1149.72 
  868.897,1147.1 858.589,1144.66 848.728,1142.39 839.33,1140.29 830.408,1138.35 821.976,1136.56 814.049,1134.92 806.59,1133.41 799.641,1132.04 793.213,1130.79 
  787.318,1129.67 781.967,1128.67 777.17,1127.79 772.893,1127.01 769.162,1126.34 765.99,1125.78 763.386,1125.32 761.357,1124.96 759.91,1124.71 759.017,1124.56 
  758.684,1124.5 758.928,1124.54 759.753,1124.68 761.163,1124.93 763.162,1125.28 765.727,1125.73 768.847,1126.28 772.541,1126.94 776.81,1127.72 781.653,1128.61 
  787.071,1129.62 793.047,1130.76 799.555,1132.02 806.614,1133.42 814.222,1134.96 822.375,1136.65 831.07,1138.49 840.296,1140.5 850.015,1142.68 860.245,1145.05 
  870.981,1147.6 882.216,1150.36 893.945,1153.34 906.158,1156.56 918.815,1160.01 931.929,1163.71 945.492,1167.7 959.495,1171.97 973.93,1176.56 988.789,1181.48 
  1004.04,1186.74 1019.67,1192.37 1035.7,1198.4 1052.09,1204.85 1068.85,1211.74 1085.95,1219.12 1103.39,1226.99 1121.15,1235.4 1139.23,1244.37 1157.6,1253.95 
  1176.27,1264.18 1195.21,1275.09 1214.43,1286.72 1233.9,1299.12 1253.62,1312.35 1273.57,1326.45 1293.75,1341.46 1314.14,1357.46 1334.41,282.566 1342.92,289.707 
  1351.49,296.742 
  "/>
<polyline clip-path="url(#clip782)" style="stroke:#008000; stroke-linecap:butt; stroke-linejoin:round; stroke-width:8; stroke-opacity:1; fill:none" stroke-dasharray="4, 8" points="
  1334.24,548.425 1369.03,561.051 1404.05,573.885 1439.29,586.903 1474.65,600.064 1510.11,613.341 1545.62,626.7 1581.09,640.096 1616.51,653.503 1651.8,666.881 
  1686.93,680.202 1721.85,693.426 1756.5,706.523 1790.84,719.46 1824.83,732.206 1858.41,744.736 1891.56,757.022 1924.2,769.038 1956.32,780.765 1987.88,792.183 
  2018.83,803.274 2049.13,814.02 2078.77,824.415 2107.69,834.444 2135.86,844.097 2163.26,853.373 2189.87,862.267 2215.65,870.773 2240.57,878.887 2264.59,886.608 
  2287.69,893.934 2309.83,900.867 2331.04,907.424 2351.27,913.597 2370.49,919.388 2388.67,924.8 2405.78,929.838 2421.82,934.504 2436.78,938.811 2450.66,942.764 
  2463.42,946.365 2475.04,949.617 2485.53,952.525 2494.85,955.093 2503.01,957.325 2510,959.228 2515.82,960.802 2520.46,962.052 2523.9,962.977 2526.15,963.581 
  2527.21,963.864 2527.07,963.827 2525.74,963.47 2523.21,962.793 2519.5,961.793 2514.59,960.47 2508.51,958.822 2501.25,956.845 2492.82,954.535 2483.23,951.89 
  2472.49,948.904 2460.6,945.574 2447.59,941.894 2433.47,937.861 2418.24,933.467 2401.92,928.707 2384.53,923.576 2366.09,918.068 2346.6,912.18 2326.1,905.905 
  2304.6,899.24 2282.12,892.177 2258.67,884.715 2234.29,876.852 2208.99,868.585 2182.8,859.914 2155.74,850.84 2127.84,841.363 2099.11,831.482 2069.58,821.206 
  2039.29,810.54 2008.25,799.492 1976.49,788.073 1944.05,776.295 1910.92,764.162 1877.15,751.693 1842.76,738.905 1807.78,725.819 1772.24,712.456 1736.16,698.839 
  1699.56,684.988 1662.44,670.916 1624.83,656.659 1586.77,642.244 1548.27,627.701 1509.36,613.059 1470.06,598.349 1430.38,583.604 1390.36,568.854 1350.01,554.133 
  1316.7,542.108 1287.85,531.794 1258.82,521.518 1229.64,511.303 1200.36,501.17 1171.01,491.142 1141.65,481.242 1112.31,471.486 1083.03,461.895 1053.85,452.485 
  1024.82,443.273 995.969,434.274 967.346,425.502 938.983,416.967 910.909,408.675 883.169,400.639 855.803,392.866 828.85,385.362 802.338,378.131 776.273,371.168 
  750.713,364.481 725.693,358.072 701.249,351.943 677.405,346.09 654.151,340.502 631.544,335.183 609.617,330.132 588.397,325.345 567.911,320.817 548.139,316.535 
  529.135,312.5 510.923,308.707 493.53,305.153 476.979,301.832 461.24,298.73 446.363,295.847 432.37,293.178 419.279,290.72 407.111,288.469 395.835,286.411 
  385.489,284.546 376.09,282.872 367.654,281.385 360.196,280.083 353.686,278.956 348.146,278.005 343.594,277.227 340.039,276.623 337.492,276.192 335.925,275.928 
  335.342,275.83 335.762,275.9 337.189,276.141 339.628,276.554 343.052,277.135 347.453,277.886 352.846,278.812 359.23,279.915 366.605,281.201 374.947,282.669 
  384.234,284.321 394.478,286.165 405.675,288.205 417.818,290.448 430.887,292.898 444.846,295.555 459.707,298.43 475.459,301.53 492.092,304.862 509.587,308.432 
  527.901,312.24 547.04,316.299 566.991,320.616 587.74,325.198 609.268,330.053 631.528,335.18 654.523,340.59 678.236,346.292 702.648,352.29 727.741,358.592 
  753.474,365.196 779.84,372.112 806.819,379.343 834.393,386.893 862.541,394.765 891.233,402.959 920.456,411.477 950.187,420.319 980.407,429.485 1011.09,438.973 
  1042.24,448.783 1073.82,458.909 1105.82,469.347 1138.21,480.09 1170.98,491.13 1204.07,502.45 1237.48,514.038 1271.19,525.884 1305.17,537.973 1337.61,549.642 
  1360.16,557.819 1382.85,566.101 1405.67,574.48 1428.58,582.937 1451.58,591.467 1474.6,600.044 1497.64,608.664 1520.66,617.303 1543.62,625.947 1566.51,634.585 
  1589.27,643.19 1611.9,651.757 1634.36,660.27 1656.62,668.709 1678.65,677.063 1700.43,685.316 1721.92,693.452 1743.09,701.46 1763.93,709.325 1784.4,717.035 
  1804.48,724.582 1824.15,731.953 1843.38,739.137 1862.14,746.123 1880.42,752.902 1898.2,759.474 1915.45,765.826 1932.15,771.949 1948.28,777.836 1963.82,783.487 
  1978.77,788.898 1993.1,794.06 2006.78,798.969 2019.8,803.619 2032.17,808.019 2043.86,812.159 2054.85,816.035 2065.13,819.645 2074.69,822.992 2083.54,826.079 
  2091.66,828.9 2099.03,831.454 2105.64,833.738 2111.48,835.751 2116.54,837.491 2120.81,838.955 2124.32,840.159 2127.06,841.096 2129.01,841.762 2130.16,842.155 
  2130.51,842.274 2130.06,842.119 2128.79,841.688 2126.72,840.98 2123.88,840.009 2120.25,838.763 2115.82,837.243 2110.6,835.449 2104.6,833.379 2097.81,831.034 
  2090.25,828.413 2081.93,825.516 2072.84,822.345 2063,818.898 2052.42,815.177 2041.1,811.181 2029.06,806.912 2016.3,802.371 2002.85,797.56 1988.7,792.476 
  1973.86,787.124 1958.37,781.507 1942.22,775.627 1925.43,769.488 1908.02,763.094 1890,756.45 1871.4,749.56 1852.2,742.423 1832.43,735.049 1812.12,727.445 
  1791.27,719.619 1769.91,711.579 1748.05,703.333 1725.72,694.892 1702.92,686.259 1679.64,677.44 1655.94,668.451 1631.81,659.303 1607.28,650.009 1582.37,640.58 
  1557.1,631.03 1531.47,621.371 1505.52,611.616 1479.24,601.779 1452.68,591.875 1425.83,581.92 1398.73,571.927 1371.39,561.913 1343.83,551.892 1323.88,544.688 
  1307.94,538.967 1291.92,533.242 1275.8,527.518 1259.62,521.802 1243.39,516.105 1227.13,510.431 1210.86,504.792 1194.61,499.197 1178.4,493.654 1162.22,488.164 
  1146.13,482.742 1130.12,477.392 1114.22,472.118 1098.46,466.932 1082.85,461.837 1067.42,456.841 1052.17,451.948 1037.14,447.165 1022.34,442.494 1007.78,437.94 
  993.485,433.507 979.475,429.2 965.771,425.024 952.391,420.982 939.346,417.075 926.632,413.299 914.285,409.664 902.321,406.17 890.758,402.822 879.613,399.62 
  868.897,396.566 858.589,393.65 848.728,390.881 839.33,388.262 830.408,385.792 821.976,383.473 814.049,381.307 806.59,379.281 799.641,377.404 793.213,375.677 
  787.318,374.101 781.967,372.676 777.17,371.405 772.893,370.275 769.162,369.293 765.99,368.461 763.386,367.779 761.357,367.248 759.91,366.871 759.017,366.638 
  758.684,366.551 758.928,366.615 759.753,366.83 761.163,367.198 763.162,367.72 765.727,368.392 768.847,369.21 772.541,370.183 776.81,371.31 781.653,372.593 
  787.071,374.035 793.047,375.632 799.555,377.381 806.614,379.287 814.222,381.354 822.375,383.582 831.07,385.975 840.296,388.53 850.015,391.241 860.245,394.117 
  870.981,397.158 882.216,400.365 893.945,403.742 906.158,407.288 918.815,410.994 931.929,414.868 945.492,418.911 959.495,423.124 973.93,427.506 988.789,432.059 
  1004.04,436.775 1019.67,441.657 1035.7,446.706 1052.09,451.921 1068.85,457.301 1085.95,462.846 1103.39,468.549 1121.15,474.411 1139.23,480.43 1157.6,486.603 
  1176.27,492.929 1195.21,499.403 1214.43,506.024 1233.9,512.787 1253.62,519.689 1273.57,526.726 1293.75,533.894 1314.14,541.187 1334.41,548.485 1342.92,551.563 
  1351.49,554.672 
  "/>
<polyline clip-path="url(#clip782)" style="stroke:#008000; stroke-linecap:butt; stroke-linejoin:round; stroke-width:8; stroke-opacity:1; fill:none" points="
  1334.24,282.017 1369.03,288.286 1404.05,294.704 1439.29,301.262 1474.65,307.941 1510.11,314.731 1545.62,321.616 1581.09,328.577 1616.51,335.6 1651.8,342.667 
  1686.93,349.764 1721.85,356.87 1756.5,363.971 1790.84,371.046 1824.83,378.081 1858.41,385.059 1891.56,391.963 1924.2,398.777 1956.32,405.487 1987.88,412.081 
  2018.83,418.543 2049.13,424.861 2078.77,431.026 2107.69,437.026 2135.86,442.849 2163.26,448.493 2189.87,453.948 2215.65,459.207 2240.57,464.262 2264.59,469.108 
  2287.69,473.738 2309.83,478.151 2331.04,482.352 2351.27,486.331 2370.49,490.087 2388.67,493.616 2405.78,496.919 2421.82,499.993 2436.78,502.844 2450.66,505.472 
  2463.42,507.874 2475.04,510.052 2485.53,512.006 2494.85,513.736 2503.01,515.243 2510,516.532 2515.82,517.6 2520.46,518.448 2523.9,519.077 2526.15,519.488 
  2527.21,519.681 2527.07,519.656 2525.74,519.413 2523.21,518.952 2519.5,518.272 2514.59,517.374 2508.51,516.257 2501.25,514.919 2492.82,513.36 2483.23,511.578 
  2472.49,509.574 2460.6,507.346 2447.59,504.893 2433.47,502.214 2418.24,499.309 2401.92,496.176 2384.53,492.816 2366.09,489.229 2346.6,485.415 2326.1,481.376 
  2304.6,477.113 2282.12,472.625 2258.67,467.916 2234.29,462.99 2208.99,457.85 2182.8,452.5 2155.74,446.947 2127.84,441.195 2099.11,435.248 2069.58,429.117 
  2039.29,422.809 2008.25,416.333 1976.49,409.701 1944.05,402.922 1910.92,396.004 1877.15,388.96 1842.76,381.804 1807.78,374.548 1772.24,367.208 1736.16,359.797 
  1699.56,352.329 1662.44,344.81 1624.83,337.262 1586.77,329.698 1548.27,322.134 1509.36,314.586 1470.06,307.068 1430.38,299.595 1390.36,292.183 1350.01,284.846 
  1316.7,278.897 1287.85,273.826 1258.82,268.803 1229.64,263.837 1200.36,258.939 1171.01,254.12 1141.65,249.389 1112.31,244.752 1083.03,240.22 1053.85,235.798 
  1024.82,231.495 995.969,227.315 967.346,223.264 938.983,219.345 910.909,215.561 883.169,211.916 855.803,208.412 828.85,205.051 802.338,201.832 776.273,198.753 
  750.713,195.816 725.693,193.02 701.249,190.366 677.405,187.848 654.151,185.463 631.544,183.21 609.617,181.086 588.397,179.089 567.911,177.215 548.139,175.456 
  529.135,173.813 510.923,172.281 493.53,170.857 476.979,169.538 461.24,168.315 446.363,167.187 432.37,166.152 419.279,165.206 407.111,164.346 395.835,163.565 
  385.489,162.862 376.09,162.236 367.654,161.683 360.196,161.201 353.686,160.786 348.146,160.437 343.594,160.153 340.039,159.933 337.492,159.777 335.925,159.681 
  335.342,159.645 335.762,159.671 337.189,159.758 339.628,159.908 343.052,160.12 347.453,160.394 352.846,160.733 359.23,161.139 366.605,161.614 374.947,162.16 
  384.234,162.778 394.478,163.472 405.675,164.245 417.818,165.102 430.887,166.044 444.846,167.074 459.707,168.197 475.459,169.418 492.092,170.741 509.587,172.171 
  527.901,173.708 547.04,175.36 566.991,177.132 587.74,179.028 609.268,181.053 631.528,183.208 654.523,185.501 678.236,187.935 702.648,190.515 727.741,193.246 
  753.474,196.129 779.84,199.169 806.819,202.37 834.393,205.734 862.541,209.266 891.233,212.966 920.456,216.837 950.187,220.882 980.407,225.1 1011.09,229.494 
  1042.24,234.066 1073.82,238.814 1105.82,243.739 1138.21,248.84 1170.98,254.114 1204.07,259.556 1237.48,265.164 1271.19,270.933 1305.17,276.86 1337.61,282.619 
  1360.16,286.677 1382.85,290.806 1405.67,295.002 1428.58,299.259 1451.58,303.572 1474.6,307.931 1497.64,312.333 1520.66,316.767 1543.62,321.227 1566.51,325.706 
  1589.27,330.192 1611.9,334.682 1634.36,339.167 1656.62,343.637 1678.65,348.086 1700.43,352.504 1721.92,356.884 1743.09,361.218 1763.93,365.498 1784.4,369.715 
  1804.48,373.865 1824.15,377.94 1843.38,381.932 1862.14,385.835 1880.42,389.64 1898.2,393.348 1915.45,396.949 1932.15,400.437 1948.28,403.806 1963.82,407.054 
  1978.77,410.178 1993.1,413.171 2006.78,416.028 2019.8,418.746 2032.17,421.326 2043.86,423.763 2054.85,426.052 2065.13,428.19 2074.69,430.178 2083.54,432.018 
  2091.66,433.703 2099.03,435.231 2105.64,436.601 2111.48,437.811 2116.54,438.858 2120.81,439.741 2124.32,440.468 2127.06,441.034 2129.01,441.436 2130.16,441.674 
  2130.51,441.746 2130.06,441.652 2128.79,441.391 2126.72,440.964 2123.88,440.377 2120.25,439.625 2115.82,438.709 2110.6,437.629 2104.6,436.386 2097.81,434.98 
  2090.25,433.411 2081.93,431.682 2072.84,429.794 2063,427.747 2052.42,425.544 2041.1,423.186 2029.06,420.676 2016.3,418.015 2002.85,415.207 1988.7,412.251 
  1973.86,409.152 1958.37,405.914 1942.22,402.54 1925.43,399.033 1908.02,395.398 1890,391.64 1871.4,387.762 1852.2,383.765 1832.43,379.658 1812.12,375.446 
  1791.27,371.134 1769.91,366.728 1748.05,362.236 1725.72,357.662 1702.92,353.011 1679.64,348.287 1655.94,343.5 1631.81,338.657 1607.28,333.764 1582.37,328.829 
  1557.1,323.86 1531.47,318.863 1505.52,313.846 1479.24,308.815 1452.68,303.779 1425.83,298.745 1398.73,293.722 1371.39,288.715 1343.83,283.734 1323.88,280.17 
  1307.94,277.349 1291.92,274.536 1275.8,271.732 1259.62,268.941 1243.39,266.168 1227.13,263.415 1210.86,260.687 1194.61,257.989 1178.4,255.325 1162.22,252.694 
  1146.13,250.104 1130.12,247.555 1114.22,245.052 1098.46,242.597 1082.85,240.193 1067.42,237.842 1052.17,235.547 1037.14,233.31 1022.34,231.132 1007.78,229.015 
  993.485,226.96 979.475,224.969 965.771,223.044 952.391,221.186 939.346,219.395 926.632,217.669 914.285,216.011 902.321,214.423 890.758,212.904 879.613,211.455 
  868.897,210.077 858.589,208.764 848.728,207.521 839.33,206.347 830.408,205.242 821.976,204.208 814.049,203.243 806.59,202.342 799.641,201.509 793.213,200.744 
  787.318,200.047 781.967,199.418 777.17,198.857 772.893,198.36 769.162,197.927 765.99,197.561 763.386,197.262 761.357,197.029 759.91,196.863 759.017,196.761 
  758.684,196.723 758.928,196.751 759.753,196.845 761.163,197.007 763.162,197.236 765.727,197.531 768.847,197.891 772.541,198.319 776.81,198.815 781.653,199.381 
  787.071,200.018 793.047,200.725 799.555,201.499 806.614,202.345 814.222,203.264 822.375,204.256 831.07,205.324 840.296,206.467 850.015,207.682 860.245,208.974 
  870.981,210.344 882.216,211.792 893.945,213.321 906.158,214.93 918.815,216.617 931.929,218.386 945.492,220.236 959.495,222.17 973.93,224.187 988.789,226.29 
  1004.04,228.474 1019.67,230.742 1035.7,233.096 1052.09,235.534 1068.85,238.058 1085.95,240.668 1103.39,243.362 1121.15,246.139 1139.23,249.001 1157.6,251.947 
  1176.27,254.976 1195.21,258.088 1214.43,261.282 1233.9,264.557 1253.62,267.911 1273.57,271.345 1293.75,274.856 1314.14,278.443 1334.41,282.047 1342.92,283.571 
  1351.49,285.113 
  "/>
<path clip-path="url(#clip780)" d="
M1423.66 554.876 L2284.85 554.876 L2284.85 166.076 L1423.66 166.076  Z
  " fill="#ffffff" fill-rule="evenodd" fill-opacity="1"/>
<polyline clip-path="url(#clip780)" style="stroke:#000000; stroke-linecap:butt; stroke-linejoin:round; stroke-width:4; stroke-opacity:1; fill:none" points="
  1423.66,554.876 2284.85,554.876 2284.85,166.076 1423.66,166.076 1423.66,554.876 
  "/>
<polyline clip-path="url(#clip780)" style="stroke:#009af9; stroke-linecap:butt; stroke-linejoin:round; stroke-width:6; stroke-opacity:1; fill:none" points="
  1446.29,243.836 1582.1,243.836 
  "/>
<path clip-path="url(#clip780)" d="M1638.1 219.617 L1638.1 226.457 Q1634.1 224.548 1630.56 223.61 Q1627.02 222.673 1623.72 222.673 Q1617.99 222.673 1614.87 224.895 Q1611.78 227.117 1611.78 231.214 Q1611.78 234.652 1613.83 236.423 Q1615.91 238.159 1621.67 239.235 L1625.91 240.103 Q1633.76 241.596 1637.47 245.381 Q1641.22 249.131 1641.22 255.45 Q1641.22 262.985 1636.15 266.874 Q1631.12 270.763 1621.36 270.763 Q1617.68 270.763 1613.51 269.929 Q1609.38 269.096 1604.94 267.464 L1604.94 260.242 Q1609.21 262.638 1613.31 263.853 Q1617.4 265.068 1621.36 265.068 Q1627.37 265.068 1630.63 262.707 Q1633.9 260.346 1633.9 255.971 Q1633.9 252.152 1631.54 249.999 Q1629.21 247.846 1623.86 246.77 L1619.59 245.936 Q1611.74 244.374 1608.24 241.041 Q1604.73 237.707 1604.73 231.77 Q1604.73 224.895 1609.56 220.937 Q1614.42 216.978 1622.92 216.978 Q1626.57 216.978 1630.35 217.638 Q1634.14 218.298 1638.1 219.617 Z" fill="#000000" fill-rule="evenodd" fill-opacity="1" /><path clip-path="url(#clip780)" d="M1651.88 230.867 L1658.27 230.867 L1658.27 269.756 L1651.88 269.756 L1651.88 230.867 M1651.88 215.728 L1658.27 215.728 L1658.27 223.818 L1651.88 223.818 L1651.88 215.728 Z" fill="#000000" fill-rule="evenodd" fill-opacity="1" /><path clip-path="url(#clip780)" d="M1701.92 238.332 Q1704.31 234.027 1707.65 231.978 Q1710.98 229.93 1715.49 229.93 Q1721.57 229.93 1724.87 234.2 Q1728.17 238.436 1728.17 246.284 L1728.17 269.756 L1721.74 269.756 L1721.74 246.492 Q1721.74 240.902 1719.76 238.193 Q1717.78 235.485 1713.72 235.485 Q1708.76 235.485 1705.88 238.784 Q1702.99 242.082 1702.99 247.777 L1702.99 269.756 L1696.57 269.756 L1696.57 246.492 Q1696.57 240.867 1694.59 238.193 Q1692.61 235.485 1688.48 235.485 Q1683.58 235.485 1680.7 238.818 Q1677.82 242.117 1677.82 247.777 L1677.82 269.756 L1671.4 269.756 L1671.4 230.867 L1677.82 230.867 L1677.82 236.909 Q1680.01 233.332 1683.06 231.631 Q1686.12 229.93 1690.32 229.93 Q1694.56 229.93 1697.51 232.082 Q1700.49 234.235 1701.92 238.332 Z" fill="#000000" fill-rule="evenodd" fill-opacity="1" /><path clip-path="url(#clip780)" d="M1747.09 263.922 L1747.09 284.547 L1740.67 284.547 L1740.67 230.867 L1747.09 230.867 L1747.09 236.77 Q1749.1 233.298 1752.16 231.631 Q1755.25 229.93 1759.52 229.93 Q1766.6 229.93 1771.01 235.555 Q1775.46 241.179 1775.46 250.346 Q1775.46 259.513 1771.01 265.138 Q1766.6 270.763 1759.52 270.763 Q1755.25 270.763 1752.16 269.096 Q1749.1 267.395 1747.09 263.922 M1768.83 250.346 Q1768.83 243.298 1765.91 239.304 Q1763.03 235.277 1757.96 235.277 Q1752.89 235.277 1749.97 239.304 Q1747.09 243.298 1747.09 250.346 Q1747.09 257.395 1749.97 261.422 Q1752.89 265.415 1757.96 265.415 Q1763.03 265.415 1765.91 261.422 Q1768.83 257.395 1768.83 250.346 Z" fill="#000000" fill-rule="evenodd" fill-opacity="1" /><path clip-path="url(#clip780)" d="M1786.05 215.728 L1792.44 215.728 L1792.44 269.756 L1786.05 269.756 L1786.05 215.728 Z" fill="#000000" fill-rule="evenodd" fill-opacity="1" /><path clip-path="url(#clip780)" d="M1839.07 248.714 L1839.07 251.839 L1809.69 251.839 Q1810.11 258.436 1813.65 261.909 Q1817.23 265.346 1823.58 265.346 Q1827.26 265.346 1830.7 264.443 Q1834.17 263.54 1837.58 261.735 L1837.58 267.777 Q1834.14 269.235 1830.53 269.999 Q1826.92 270.763 1823.2 270.763 Q1813.9 270.763 1808.44 265.346 Q1803.03 259.929 1803.03 250.693 Q1803.03 241.145 1808.17 235.555 Q1813.34 229.93 1822.09 229.93 Q1829.94 229.93 1834.49 234.999 Q1839.07 240.034 1839.07 248.714 M1832.68 246.839 Q1832.61 241.596 1829.73 238.471 Q1826.88 235.346 1822.16 235.346 Q1816.81 235.346 1813.58 238.367 Q1810.39 241.388 1809.9 246.874 L1832.68 246.839 Z" fill="#000000" fill-rule="evenodd" fill-opacity="1" /><path clip-path="url(#clip780)" d="M1849.83 217.916 L1879.62 217.916 L1879.62 223.818 L1856.85 223.818 L1856.85 239.096 L1877.4 239.096 L1877.4 244.999 L1856.85 244.999 L1856.85 269.756 L1849.83 269.756 L1849.83 217.916 Z" fill="#000000" fill-rule="evenodd" fill-opacity="1" /><path clip-path="url(#clip780)" d="M1890.74 217.916 L1901.19 217.916 L1914.42 253.193 L1927.71 217.916 L1938.17 217.916 L1938.17 269.756 L1931.33 269.756 L1931.33 224.235 L1917.96 259.79 L1910.91 259.79 L1897.54 224.235 L1897.54 269.756 L1890.74 269.756 L1890.74 217.916 Z" fill="#000000" fill-rule="evenodd" fill-opacity="1" /><path clip-path="url(#clip780)" d="M1951.29 217.916 L1958.34 217.916 L1958.34 249.409 Q1958.34 257.742 1961.36 261.422 Q1964.38 265.068 1971.15 265.068 Q1977.89 265.068 1980.91 261.422 Q1983.93 257.742 1983.93 249.409 L1983.93 217.916 L1990.98 217.916 L1990.98 250.277 Q1990.98 260.415 1985.94 265.589 Q1980.94 270.763 1971.15 270.763 Q1961.33 270.763 1956.29 265.589 Q1951.29 260.415 1951.29 250.277 L1951.29 217.916 Z" fill="#000000" fill-rule="evenodd" fill-opacity="1" /><polyline clip-path="url(#clip780)" style="stroke:#e26f46; stroke-linecap:butt; stroke-linejoin:round; stroke-width:6; stroke-opacity:1; fill:none" points="
  1446.29,321.596 1582.1,321.596 
  "/>
<path clip-path="url(#clip780)" d="M1627.51 314.599 Q1626.43 313.974 1625.15 313.696 Q1623.9 313.384 1622.37 313.384 Q1616.95 313.384 1614.04 316.926 Q1611.15 320.433 1611.15 327.03 L1611.15 347.516 L1604.73 347.516 L1604.73 308.627 L1611.15 308.627 L1611.15 314.669 Q1613.17 311.127 1616.4 309.426 Q1619.63 307.69 1624.24 307.69 Q1624.9 307.69 1625.7 307.794 Q1626.5 307.863 1627.47 308.037 L1627.51 314.599 Z" fill="#000000" fill-rule="evenodd" fill-opacity="1" /><path clip-path="url(#clip780)" d="M1665.91 326.474 L1665.91 329.599 L1636.54 329.599 Q1636.95 336.196 1640.49 339.669 Q1644.07 343.106 1650.42 343.106 Q1654.1 343.106 1657.54 342.203 Q1661.01 341.3 1664.42 339.495 L1664.42 345.537 Q1660.98 346.995 1657.37 347.759 Q1653.76 348.523 1650.04 348.523 Q1640.74 348.523 1635.29 343.106 Q1629.87 337.689 1629.87 328.453 Q1629.87 318.905 1635.01 313.315 Q1640.18 307.69 1648.93 307.69 Q1656.78 307.69 1661.33 312.759 Q1665.91 317.794 1665.91 326.474 M1659.52 324.599 Q1659.45 319.356 1656.57 316.231 Q1653.72 313.106 1649 313.106 Q1643.65 313.106 1640.42 316.127 Q1637.23 319.148 1636.74 324.634 L1659.52 324.599 Z" fill="#000000" fill-rule="evenodd" fill-opacity="1" /><path clip-path="url(#clip780)" d="M1696.08 293.488 L1696.08 298.801 L1689.97 298.801 Q1686.53 298.801 1685.18 300.19 Q1683.86 301.578 1683.86 305.19 L1683.86 308.627 L1694.38 308.627 L1694.38 313.592 L1683.86 313.592 L1683.86 347.516 L1677.44 347.516 L1677.44 313.592 L1671.33 313.592 L1671.33 308.627 L1677.44 308.627 L1677.44 305.919 Q1677.44 299.426 1680.46 296.474 Q1683.48 293.488 1690.04 293.488 L1696.08 293.488 Z" fill="#000000" fill-rule="evenodd" fill-opacity="1" /><path clip-path="url(#clip780)" d="M1734.69 326.474 L1734.69 329.599 L1705.32 329.599 Q1705.74 336.196 1709.28 339.669 Q1712.85 343.106 1719.21 343.106 Q1722.89 343.106 1726.33 342.203 Q1729.8 341.3 1733.2 339.495 L1733.2 345.537 Q1729.76 346.995 1726.15 347.759 Q1722.54 348.523 1718.83 348.523 Q1709.52 348.523 1704.07 343.106 Q1698.65 337.689 1698.65 328.453 Q1698.65 318.905 1703.79 313.315 Q1708.97 307.69 1717.72 307.69 Q1725.56 307.69 1730.11 312.759 Q1734.69 317.794 1734.69 326.474 M1728.31 324.599 Q1728.24 319.356 1725.35 316.231 Q1722.51 313.106 1717.78 313.106 Q1712.44 313.106 1709.21 316.127 Q1706.01 319.148 1705.53 324.634 L1728.31 324.599 Z" fill="#000000" fill-rule="evenodd" fill-opacity="1" /><path clip-path="url(#clip780)" d="M1767.72 314.599 Q1766.64 313.974 1765.35 313.696 Q1764.1 313.384 1762.58 313.384 Q1757.16 313.384 1754.24 316.926 Q1751.36 320.433 1751.36 327.03 L1751.36 347.516 L1744.94 347.516 L1744.94 308.627 L1751.36 308.627 L1751.36 314.669 Q1753.37 311.127 1756.6 309.426 Q1759.83 307.69 1764.45 307.69 Q1765.11 307.69 1765.91 307.794 Q1766.71 307.863 1767.68 308.037 L1767.72 314.599 Z" fill="#000000" fill-rule="evenodd" fill-opacity="1" /><path clip-path="url(#clip780)" d="M1806.12 326.474 L1806.12 329.599 L1776.74 329.599 Q1777.16 336.196 1780.7 339.669 Q1784.28 343.106 1790.63 343.106 Q1794.31 343.106 1797.75 342.203 Q1801.22 341.3 1804.62 339.495 L1804.62 345.537 Q1801.19 346.995 1797.58 347.759 Q1793.96 348.523 1790.25 348.523 Q1780.94 348.523 1775.49 343.106 Q1770.08 337.689 1770.08 328.453 Q1770.08 318.905 1775.22 313.315 Q1780.39 307.69 1789.14 307.69 Q1796.99 307.69 1801.53 312.759 Q1806.12 317.794 1806.12 326.474 M1799.73 324.599 Q1799.66 319.356 1796.78 316.231 Q1793.93 313.106 1789.21 313.106 Q1783.86 313.106 1780.63 316.127 Q1777.44 319.148 1776.95 324.634 L1799.73 324.599 Z" fill="#000000" fill-rule="evenodd" fill-opacity="1" /><path clip-path="url(#clip780)" d="M1848.93 324.044 L1848.93 347.516 L1842.54 347.516 L1842.54 324.252 Q1842.54 318.731 1840.39 315.988 Q1838.24 313.245 1833.93 313.245 Q1828.76 313.245 1825.77 316.544 Q1822.78 319.842 1822.78 325.537 L1822.78 347.516 L1816.36 347.516 L1816.36 308.627 L1822.78 308.627 L1822.78 314.669 Q1825.08 311.162 1828.17 309.426 Q1831.29 307.69 1835.35 307.69 Q1842.05 307.69 1845.49 311.856 Q1848.93 315.988 1848.93 324.044 Z" fill="#000000" fill-rule="evenodd" fill-opacity="1" /><path clip-path="url(#clip780)" d="M1889.66 310.12 L1889.66 316.092 Q1886.95 314.599 1884.21 313.87 Q1881.5 313.106 1878.72 313.106 Q1872.51 313.106 1869.07 317.064 Q1865.63 320.988 1865.63 328.106 Q1865.63 335.224 1869.07 339.182 Q1872.51 343.106 1878.72 343.106 Q1881.5 343.106 1884.21 342.377 Q1886.95 341.613 1889.66 340.12 L1889.66 346.023 Q1886.99 347.273 1884.1 347.898 Q1881.26 348.523 1878.03 348.523 Q1869.24 348.523 1864.07 343.002 Q1858.9 337.481 1858.9 328.106 Q1858.9 318.592 1864.1 313.141 Q1869.35 307.69 1878.44 307.69 Q1881.4 307.69 1884.21 308.315 Q1887.02 308.905 1889.66 310.12 Z" fill="#000000" fill-rule="evenodd" fill-opacity="1" /><path clip-path="url(#clip780)" d="M1934.03 326.474 L1934.03 329.599 L1904.66 329.599 Q1905.08 336.196 1908.62 339.669 Q1912.19 343.106 1918.55 343.106 Q1922.23 343.106 1925.67 342.203 Q1929.14 341.3 1932.54 339.495 L1932.54 345.537 Q1929.1 346.995 1925.49 347.759 Q1921.88 348.523 1918.17 348.523 Q1908.86 348.523 1903.41 343.106 Q1897.99 337.689 1897.99 328.453 Q1897.99 318.905 1903.13 313.315 Q1908.3 307.69 1917.05 307.69 Q1924.9 307.69 1929.45 312.759 Q1934.03 317.794 1934.03 326.474 M1927.64 324.599 Q1927.58 319.356 1924.69 316.231 Q1921.85 313.106 1917.12 313.106 Q1911.78 313.106 1908.55 316.127 Q1905.35 319.148 1904.87 324.634 L1927.64 324.599 Z" fill="#000000" fill-rule="evenodd" fill-opacity="1" /><polyline clip-path="url(#clip780)" style="stroke:#008000; stroke-linecap:butt; stroke-linejoin:round; stroke-width:6; stroke-opacity:1; fill:none" stroke-dasharray="3, 6" points="
  1446.29,399.356 1582.1,399.356 
  "/>
<path clip-path="url(#clip780)" d="M1604.73 373.436 L1614.17 373.436 L1637.16 416.804 L1637.16 373.436 L1643.97 373.436 L1643.97 425.276 L1634.52 425.276 L1611.54 381.908 L1611.54 425.276 L1604.73 425.276 L1604.73 373.436 Z" fill="#000000" fill-rule="evenodd" fill-opacity="1" /><path clip-path="url(#clip780)" d="M1690.91 404.234 L1690.91 407.359 L1661.54 407.359 Q1661.95 413.956 1665.49 417.429 Q1669.07 420.866 1675.42 420.866 Q1679.1 420.866 1682.54 419.963 Q1686.01 419.06 1689.42 417.255 L1689.42 423.297 Q1685.98 424.755 1682.37 425.519 Q1678.76 426.283 1675.04 426.283 Q1665.74 426.283 1660.29 420.866 Q1654.87 415.449 1654.87 406.213 Q1654.87 396.665 1660.01 391.075 Q1665.18 385.45 1673.93 385.45 Q1681.78 385.45 1686.33 390.519 Q1690.91 395.554 1690.91 404.234 M1684.52 402.359 Q1684.45 397.116 1681.57 393.991 Q1678.72 390.866 1674 390.866 Q1668.65 390.866 1665.42 393.887 Q1662.23 396.908 1661.74 402.394 L1684.52 402.359 Z" fill="#000000" fill-rule="evenodd" fill-opacity="1" /><path clip-path="url(#clip780)" d="M1700.74 409.929 L1700.74 386.387 L1707.13 386.387 L1707.13 409.686 Q1707.13 415.206 1709.28 417.984 Q1711.43 420.727 1715.74 420.727 Q1720.91 420.727 1723.9 417.429 Q1726.92 414.13 1726.92 408.436 L1726.92 386.387 L1733.31 386.387 L1733.31 425.276 L1726.92 425.276 L1726.92 419.304 Q1724.59 422.845 1721.5 424.581 Q1718.44 426.283 1714.38 426.283 Q1707.68 426.283 1704.21 422.116 Q1700.74 417.949 1700.74 409.929 M1716.81 385.45 L1716.81 385.45 Z" fill="#000000" fill-rule="evenodd" fill-opacity="1" /><path clip-path="url(#clip780)" d="M1769 392.359 Q1767.92 391.734 1766.64 391.456 Q1765.39 391.144 1763.86 391.144 Q1758.44 391.144 1755.53 394.686 Q1752.65 398.193 1752.65 404.79 L1752.65 425.276 L1746.22 425.276 L1746.22 386.387 L1752.65 386.387 L1752.65 392.429 Q1754.66 388.887 1757.89 387.186 Q1761.12 385.45 1765.74 385.45 Q1766.4 385.45 1767.19 385.554 Q1767.99 385.623 1768.97 385.797 L1769 392.359 Z" fill="#000000" fill-rule="evenodd" fill-opacity="1" /><path clip-path="url(#clip780)" d="M1793.37 405.727 Q1785.63 405.727 1782.65 407.498 Q1779.66 409.269 1779.66 413.54 Q1779.66 416.942 1781.88 418.956 Q1784.14 420.935 1787.99 420.935 Q1793.31 420.935 1796.5 417.185 Q1799.73 413.401 1799.73 407.151 L1799.73 405.727 L1793.37 405.727 M1806.12 403.088 L1806.12 425.276 L1799.73 425.276 L1799.73 419.373 Q1797.54 422.915 1794.28 424.616 Q1791.01 426.283 1786.29 426.283 Q1780.32 426.283 1776.78 422.949 Q1773.27 419.581 1773.27 413.956 Q1773.27 407.394 1777.65 404.061 Q1782.06 400.727 1790.77 400.727 L1799.73 400.727 L1799.73 400.102 Q1799.73 395.693 1796.81 393.297 Q1793.93 390.866 1788.69 390.866 Q1785.35 390.866 1782.19 391.665 Q1779.03 392.463 1776.12 394.061 L1776.12 388.158 Q1779.62 386.804 1782.92 386.144 Q1786.22 385.45 1789.35 385.45 Q1797.78 385.45 1801.95 389.825 Q1806.12 394.199 1806.12 403.088 Z" fill="#000000" fill-rule="evenodd" fill-opacity="1" /><path clip-path="url(#clip780)" d="M1819.28 371.248 L1825.67 371.248 L1825.67 425.276 L1819.28 425.276 L1819.28 371.248 Z" fill="#000000" fill-rule="evenodd" fill-opacity="1" /><path clip-path="url(#clip780)" d="M1839.31 373.436 L1869.1 373.436 L1869.1 379.338 L1846.33 379.338 L1846.33 394.616 L1866.88 394.616 L1866.88 400.519 L1846.33 400.519 L1846.33 425.276 L1839.31 425.276 L1839.31 373.436 Z" fill="#000000" fill-rule="evenodd" fill-opacity="1" /><path clip-path="url(#clip780)" d="M1880.21 373.436 L1890.67 373.436 L1903.89 408.713 L1917.19 373.436 L1927.64 373.436 L1927.64 425.276 L1920.8 425.276 L1920.8 379.755 L1907.44 415.31 L1900.39 415.31 L1887.02 379.755 L1887.02 425.276 L1880.21 425.276 L1880.21 373.436 Z" fill="#000000" fill-rule="evenodd" fill-opacity="1" /><path clip-path="url(#clip780)" d="M1940.77 373.436 L1947.82 373.436 L1947.82 404.929 Q1947.82 413.262 1950.84 416.942 Q1953.86 420.588 1960.63 420.588 Q1967.37 420.588 1970.39 416.942 Q1973.41 413.262 1973.41 404.929 L1973.41 373.436 L1980.46 373.436 L1980.46 405.797 Q1980.46 415.935 1975.42 421.109 Q1970.42 426.283 1960.63 426.283 Q1950.8 426.283 1945.77 421.109 Q1940.77 415.935 1940.77 405.797 L1940.77 373.436 Z" fill="#000000" fill-rule="evenodd" fill-opacity="1" /><path clip-path="url(#clip780)" d="M2031.29 371.318 Q2026.64 379.304 2024.38 387.116 Q2022.12 394.929 2022.12 402.949 Q2022.12 410.97 2024.38 418.852 Q2026.67 426.699 2031.29 434.651 L2025.73 434.651 Q2020.53 426.491 2017.92 418.609 Q2015.35 410.727 2015.35 402.949 Q2015.35 395.206 2017.92 387.359 Q2020.49 379.512 2025.73 371.318 L2031.29 371.318 Z" fill="#000000" fill-rule="evenodd" fill-opacity="1" /><path clip-path="url(#clip780)" d="M2050.63 419.373 L2075.11 419.373 L2075.11 425.276 L2042.19 425.276 L2042.19 419.373 Q2046.19 415.241 2053.06 408.297 Q2059.97 401.318 2061.74 399.304 Q2065.11 395.519 2066.43 392.915 Q2067.78 390.276 2067.78 387.741 Q2067.78 383.609 2064.87 381.005 Q2061.98 378.401 2057.33 378.401 Q2054.03 378.401 2050.35 379.547 Q2046.71 380.693 2042.54 383.019 L2042.54 375.936 Q2046.78 374.234 2050.46 373.366 Q2054.14 372.498 2057.19 372.498 Q2065.25 372.498 2070.04 376.526 Q2074.83 380.554 2074.83 387.29 Q2074.83 390.484 2073.62 393.366 Q2072.44 396.213 2069.28 400.102 Q2068.41 401.109 2063.76 405.936 Q2059.1 410.727 2050.63 419.373 Z" fill="#000000" fill-rule="evenodd" fill-opacity="1" /><path clip-path="url(#clip780)" d="M2089.9 373.436 L2117.44 373.436 L2117.44 379.338 L2096.32 379.338 L2096.32 392.047 Q2097.85 391.526 2099.38 391.283 Q2100.91 391.005 2102.44 391.005 Q2111.12 391.005 2116.19 395.762 Q2121.25 400.519 2121.25 408.644 Q2121.25 417.012 2116.05 421.665 Q2110.84 426.283 2101.36 426.283 Q2098.1 426.283 2094.69 425.727 Q2091.32 425.172 2087.71 424.06 L2087.71 417.012 Q2090.84 418.713 2094.17 419.547 Q2097.5 420.38 2101.22 420.38 Q2107.23 420.38 2110.73 417.22 Q2114.24 414.06 2114.24 408.644 Q2114.24 403.227 2110.73 400.068 Q2107.23 396.908 2101.22 396.908 Q2098.41 396.908 2095.6 397.533 Q2092.82 398.158 2089.9 399.477 L2089.9 373.436 Z" fill="#000000" fill-rule="evenodd" fill-opacity="1" /><path clip-path="url(#clip780)" d="M2150.07 378.054 Q2144.66 378.054 2141.91 383.401 Q2139.21 388.713 2139.21 399.408 Q2139.21 410.067 2141.91 415.415 Q2144.66 420.727 2150.07 420.727 Q2155.53 420.727 2158.23 415.415 Q2160.98 410.067 2160.98 399.408 Q2160.98 388.713 2158.23 383.401 Q2155.53 378.054 2150.07 378.054 M2150.07 372.498 Q2158.79 372.498 2163.37 379.408 Q2167.99 386.283 2167.99 399.408 Q2167.99 412.498 2163.37 419.408 Q2158.79 426.283 2150.07 426.283 Q2141.36 426.283 2136.74 419.408 Q2132.16 412.498 2132.16 399.408 Q2132.16 386.283 2136.74 379.408 Q2141.36 372.498 2150.07 372.498 Z" fill="#000000" fill-rule="evenodd" fill-opacity="1" /><path clip-path="url(#clip780)" d="M2195.32 378.054 Q2189.9 378.054 2187.16 383.401 Q2184.45 388.713 2184.45 399.408 Q2184.45 410.067 2187.16 415.415 Q2189.9 420.727 2195.32 420.727 Q2200.77 420.727 2203.48 415.415 Q2206.22 410.067 2206.22 399.408 Q2206.22 388.713 2203.48 383.401 Q2200.77 378.054 2195.32 378.054 M2195.32 372.498 Q2204.03 372.498 2208.62 379.408 Q2213.23 386.283 2213.23 399.408 Q2213.23 412.498 2208.62 419.408 Q2204.03 426.283 2195.32 426.283 Q2186.6 426.283 2181.98 419.408 Q2177.4 412.498 2177.4 399.408 Q2177.4 386.283 2181.98 379.408 Q2186.6 372.498 2195.32 372.498 Z" fill="#000000" fill-rule="evenodd" fill-opacity="1" /><path clip-path="url(#clip780)" d="M2223.65 371.318 L2229.21 371.318 Q2234.41 379.512 2236.98 387.359 Q2239.59 395.206 2239.59 402.949 Q2239.59 410.727 2236.98 418.609 Q2234.41 426.491 2229.21 434.651 L2223.65 434.651 Q2228.27 426.699 2230.53 418.852 Q2232.82 410.97 2232.82 402.949 Q2232.82 394.929 2230.53 387.116 Q2228.27 379.304 2223.65 371.318 Z" fill="#000000" fill-rule="evenodd" fill-opacity="1" /><polyline clip-path="url(#clip780)" style="stroke:#008000; stroke-linecap:butt; stroke-linejoin:round; stroke-width:6; stroke-opacity:1; fill:none" points="
  1446.29,477.116 1582.1,477.116 
  "/>
<path clip-path="url(#clip780)" d="M1604.73 451.196 L1614.17 451.196 L1637.16 494.564 L1637.16 451.196 L1643.97 451.196 L1643.97 503.036 L1634.52 503.036 L1611.54 459.668 L1611.54 503.036 L1604.73 503.036 L1604.73 451.196 Z" fill="#000000" fill-rule="evenodd" fill-opacity="1" /><path clip-path="url(#clip780)" d="M1690.91 481.994 L1690.91 485.119 L1661.54 485.119 Q1661.95 491.716 1665.49 495.189 Q1669.07 498.626 1675.42 498.626 Q1679.1 498.626 1682.54 497.723 Q1686.01 496.82 1689.42 495.015 L1689.42 501.057 Q1685.98 502.515 1682.37 503.279 Q1678.76 504.043 1675.04 504.043 Q1665.74 504.043 1660.29 498.626 Q1654.87 493.209 1654.87 483.973 Q1654.87 474.425 1660.01 468.835 Q1665.18 463.21 1673.93 463.21 Q1681.78 463.21 1686.33 468.279 Q1690.91 473.314 1690.91 481.994 M1684.52 480.119 Q1684.45 474.876 1681.57 471.751 Q1678.72 468.626 1674 468.626 Q1668.65 468.626 1665.42 471.647 Q1662.23 474.668 1661.74 480.154 L1684.52 480.119 Z" fill="#000000" fill-rule="evenodd" fill-opacity="1" /><path clip-path="url(#clip780)" d="M1700.74 487.689 L1700.74 464.147 L1707.13 464.147 L1707.13 487.446 Q1707.13 492.966 1709.28 495.744 Q1711.43 498.487 1715.74 498.487 Q1720.91 498.487 1723.9 495.189 Q1726.92 491.89 1726.92 486.196 L1726.92 464.147 L1733.31 464.147 L1733.31 503.036 L1726.92 503.036 L1726.92 497.064 Q1724.59 500.605 1721.5 502.341 Q1718.44 504.043 1714.38 504.043 Q1707.68 504.043 1704.21 499.876 Q1700.74 495.709 1700.74 487.689 M1716.81 463.21 L1716.81 463.21 Z" fill="#000000" fill-rule="evenodd" fill-opacity="1" /><path clip-path="url(#clip780)" d="M1769 470.119 Q1767.92 469.494 1766.64 469.216 Q1765.39 468.904 1763.86 468.904 Q1758.44 468.904 1755.53 472.446 Q1752.65 475.953 1752.65 482.55 L1752.65 503.036 L1746.22 503.036 L1746.22 464.147 L1752.65 464.147 L1752.65 470.189 Q1754.66 466.647 1757.89 464.946 Q1761.12 463.21 1765.74 463.21 Q1766.4 463.21 1767.19 463.314 Q1767.99 463.383 1768.97 463.557 L1769 470.119 Z" fill="#000000" fill-rule="evenodd" fill-opacity="1" /><path clip-path="url(#clip780)" d="M1793.37 483.487 Q1785.63 483.487 1782.65 485.258 Q1779.66 487.029 1779.66 491.3 Q1779.66 494.702 1781.88 496.716 Q1784.14 498.695 1787.99 498.695 Q1793.31 498.695 1796.5 494.945 Q1799.73 491.161 1799.73 484.911 L1799.73 483.487 L1793.37 483.487 M1806.12 480.848 L1806.12 503.036 L1799.73 503.036 L1799.73 497.133 Q1797.54 500.675 1794.28 502.376 Q1791.01 504.043 1786.29 504.043 Q1780.32 504.043 1776.78 500.709 Q1773.27 497.341 1773.27 491.716 Q1773.27 485.154 1777.65 481.821 Q1782.06 478.487 1790.77 478.487 L1799.73 478.487 L1799.73 477.862 Q1799.73 473.453 1796.81 471.057 Q1793.93 468.626 1788.69 468.626 Q1785.35 468.626 1782.19 469.425 Q1779.03 470.223 1776.12 471.821 L1776.12 465.918 Q1779.62 464.564 1782.92 463.904 Q1786.22 463.21 1789.35 463.21 Q1797.78 463.21 1801.95 467.585 Q1806.12 471.959 1806.12 480.848 Z" fill="#000000" fill-rule="evenodd" fill-opacity="1" /><path clip-path="url(#clip780)" d="M1819.28 449.008 L1825.67 449.008 L1825.67 503.036 L1819.28 503.036 L1819.28 449.008 Z" fill="#000000" fill-rule="evenodd" fill-opacity="1" /><path clip-path="url(#clip780)" d="M1839.31 451.196 L1869.1 451.196 L1869.1 457.098 L1846.33 457.098 L1846.33 472.376 L1866.88 472.376 L1866.88 478.279 L1846.33 478.279 L1846.33 503.036 L1839.31 503.036 L1839.31 451.196 Z" fill="#000000" fill-rule="evenodd" fill-opacity="1" /><path clip-path="url(#clip780)" d="M1880.21 451.196 L1890.67 451.196 L1903.89 486.473 L1917.19 451.196 L1927.64 451.196 L1927.64 503.036 L1920.8 503.036 L1920.8 457.515 L1907.44 493.07 L1900.39 493.07 L1887.02 457.515 L1887.02 503.036 L1880.21 503.036 L1880.21 451.196 Z" fill="#000000" fill-rule="evenodd" fill-opacity="1" /><path clip-path="url(#clip780)" d="M1940.77 451.196 L1947.82 451.196 L1947.82 482.689 Q1947.82 491.022 1950.84 494.702 Q1953.86 498.348 1960.63 498.348 Q1967.37 498.348 1970.39 494.702 Q1973.41 491.022 1973.41 482.689 L1973.41 451.196 L1980.46 451.196 L1980.46 483.557 Q1980.46 493.695 1975.42 498.869 Q1970.42 504.043 1960.63 504.043 Q1950.8 504.043 1945.77 498.869 Q1940.77 493.695 1940.77 483.557 L1940.77 451.196 Z" fill="#000000" fill-rule="evenodd" fill-opacity="1" /><path clip-path="url(#clip780)" d="M2031.29 449.078 Q2026.64 457.064 2024.38 464.876 Q2022.12 472.689 2022.12 480.709 Q2022.12 488.73 2024.38 496.612 Q2026.67 504.459 2031.29 512.411 L2025.73 512.411 Q2020.53 504.251 2017.92 496.369 Q2015.35 488.487 2015.35 480.709 Q2015.35 472.966 2017.92 465.119 Q2020.49 457.272 2025.73 449.078 L2031.29 449.078 Z" fill="#000000" fill-rule="evenodd" fill-opacity="1" /><path clip-path="url(#clip780)" d="M2044.66 451.196 L2072.19 451.196 L2072.19 457.098 L2051.08 457.098 L2051.08 469.807 Q2052.61 469.286 2054.14 469.043 Q2055.66 468.765 2057.19 468.765 Q2065.87 468.765 2070.94 473.522 Q2076.01 478.279 2076.01 486.404 Q2076.01 494.772 2070.8 499.425 Q2065.6 504.043 2056.12 504.043 Q2052.85 504.043 2049.45 503.487 Q2046.08 502.932 2042.47 501.82 L2042.47 494.772 Q2045.6 496.473 2048.93 497.307 Q2052.26 498.14 2055.98 498.14 Q2061.98 498.14 2065.49 494.98 Q2069 491.82 2069 486.404 Q2069 480.987 2065.49 477.828 Q2061.98 474.668 2055.98 474.668 Q2053.16 474.668 2050.35 475.293 Q2047.57 475.918 2044.66 477.237 L2044.66 451.196 Z" fill="#000000" fill-rule="evenodd" fill-opacity="1" /><path clip-path="url(#clip780)" d="M2104.83 455.814 Q2099.41 455.814 2096.67 461.161 Q2093.96 466.473 2093.96 477.168 Q2093.96 487.827 2096.67 493.175 Q2099.41 498.487 2104.83 498.487 Q2110.28 498.487 2112.99 493.175 Q2115.73 487.827 2115.73 477.168 Q2115.73 466.473 2112.99 461.161 Q2110.28 455.814 2104.83 455.814 M2104.83 450.258 Q2113.55 450.258 2118.13 457.168 Q2122.75 464.043 2122.75 477.168 Q2122.75 490.258 2118.13 497.168 Q2113.55 504.043 2104.83 504.043 Q2096.12 504.043 2091.5 497.168 Q2086.91 490.258 2086.91 477.168 Q2086.91 464.043 2091.5 457.168 Q2096.12 450.258 2104.83 450.258 Z" fill="#000000" fill-rule="evenodd" fill-opacity="1" /><path clip-path="url(#clip780)" d="M2150.07 455.814 Q2144.66 455.814 2141.91 461.161 Q2139.21 466.473 2139.21 477.168 Q2139.21 487.827 2141.91 493.175 Q2144.66 498.487 2150.07 498.487 Q2155.53 498.487 2158.23 493.175 Q2160.98 487.827 2160.98 477.168 Q2160.98 466.473 2158.23 461.161 Q2155.53 455.814 2150.07 455.814 M2150.07 450.258 Q2158.79 450.258 2163.37 457.168 Q2167.99 464.043 2167.99 477.168 Q2167.99 490.258 2163.37 497.168 Q2158.79 504.043 2150.07 504.043 Q2141.36 504.043 2136.74 497.168 Q2132.16 490.258 2132.16 477.168 Q2132.16 464.043 2136.74 457.168 Q2141.36 450.258 2150.07 450.258 Z" fill="#000000" fill-rule="evenodd" fill-opacity="1" /><path clip-path="url(#clip780)" d="M2195.32 455.814 Q2189.9 455.814 2187.16 461.161 Q2184.45 466.473 2184.45 477.168 Q2184.45 487.827 2187.16 493.175 Q2189.9 498.487 2195.32 498.487 Q2200.77 498.487 2203.48 493.175 Q2206.22 487.827 2206.22 477.168 Q2206.22 466.473 2203.48 461.161 Q2200.77 455.814 2195.32 455.814 M2195.32 450.258 Q2204.03 450.258 2208.62 457.168 Q2213.23 464.043 2213.23 477.168 Q2213.23 490.258 2208.62 497.168 Q2204.03 504.043 2195.32 504.043 Q2186.6 504.043 2181.98 497.168 Q2177.4 490.258 2177.4 477.168 Q2177.4 464.043 2181.98 457.168 Q2186.6 450.258 2195.32 450.258 Z" fill="#000000" fill-rule="evenodd" fill-opacity="1" /><path clip-path="url(#clip780)" d="M2223.65 449.078 L2229.21 449.078 Q2234.41 457.272 2236.98 465.119 Q2239.59 472.966 2239.59 480.709 Q2239.59 488.487 2236.98 496.369 Q2234.41 504.251 2229.21 512.411 L2223.65 512.411 Q2228.27 504.459 2230.53 496.612 Q2232.82 488.73 2232.82 480.709 Q2232.82 472.689 2230.53 464.876 Q2228.27 457.064 2223.65 449.078 Z" fill="#000000" fill-rule="evenodd" fill-opacity="1" /></svg>
