<?xml version="1.0" encoding="utf-8"?>
<svg xmlns="http://www.w3.org/2000/svg" xmlns:xlink="http://www.w3.org/1999/xlink" width="600" height="400" viewBox="0 0 2400 1600">
<defs>
  <clipPath id="clip330">
    <rect x="0" y="0" width="2400" height="1600"/>
  </clipPath>
</defs>
<path clip-path="url(#clip330)" d="
M0 1600 L2400 1600 L2400 0 L0 0  Z
  " fill="#ffffff" fill-rule="evenodd" fill-opacity="1"/>
<defs>
  <clipPath id="clip331">
    <rect x="480" y="0" width="1681" height="1600"/>
  </clipPath>
</defs>
<path clip-path="url(#clip330)" d="
M193.936 1423.18 L2352.76 1423.18 L2352.76 47.2441 L193.936 47.2441  Z
  " fill="#ffffff" fill-rule="evenodd" fill-opacity="1"/>
<defs>
  <clipPath id="clip332">
    <rect x="193" y="47" width="2160" height="1377"/>
  </clipPath>
</defs>
<polyline clip-path="url(#clip332)" style="stroke:#000000; stroke-linecap:round; stroke-linejoin:round; stroke-width:2; stroke-opacity:0.1; fill:none" points="
  255.035,1423.18 255.035,47.2441 
  "/>
<polyline clip-path="url(#clip332)" style="stroke:#000000; stroke-linecap:round; stroke-linejoin:round; stroke-width:2; stroke-opacity:0.1; fill:none" points="
  764.19,1423.18 764.19,47.2441 
  "/>
<polyline clip-path="url(#clip332)" style="stroke:#000000; stroke-linecap:round; stroke-linejoin:round; stroke-width:2; stroke-opacity:0.1; fill:none" points="
  1273.35,1423.18 1273.35,47.2441 
  "/>
<polyline clip-path="url(#clip332)" style="stroke:#000000; stroke-linecap:round; stroke-linejoin:round; stroke-width:2; stroke-opacity:0.1; fill:none" points="
  1782.5,1423.18 1782.5,47.2441 
  "/>
<polyline clip-path="url(#clip332)" style="stroke:#000000; stroke-linecap:round; stroke-linejoin:round; stroke-width:2; stroke-opacity:0.1; fill:none" points="
  2291.66,1423.18 2291.66,47.2441 
  "/>
<polyline clip-path="url(#clip330)" style="stroke:#000000; stroke-linecap:round; stroke-linejoin:round; stroke-width:4; stroke-opacity:1; fill:none" points="
  193.936,1423.18 2352.76,1423.18 
  "/>
<polyline clip-path="url(#clip330)" style="stroke:#000000; stroke-linecap:round; stroke-linejoin:round; stroke-width:4; stroke-opacity:1; fill:none" points="
  255.035,1423.18 255.035,1404.28 
  "/>
<polyline clip-path="url(#clip330)" style="stroke:#000000; stroke-linecap:round; stroke-linejoin:round; stroke-width:4; stroke-opacity:1; fill:none" points="
  764.19,1423.18 764.19,1404.28 
  "/>
<polyline clip-path="url(#clip330)" style="stroke:#000000; stroke-linecap:round; stroke-linejoin:round; stroke-width:4; stroke-opacity:1; fill:none" points="
  1273.35,1423.18 1273.35,1404.28 
  "/>
<polyline clip-path="url(#clip330)" style="stroke:#000000; stroke-linecap:round; stroke-linejoin:round; stroke-width:4; stroke-opacity:1; fill:none" points="
  1782.5,1423.18 1782.5,1404.28 
  "/>
<polyline clip-path="url(#clip330)" style="stroke:#000000; stroke-linecap:round; stroke-linejoin:round; stroke-width:4; stroke-opacity:1; fill:none" points="
  2291.66,1423.18 2291.66,1404.28 
  "/>
<path clip-path="url(#clip330)" d="M255.035 1454.1 Q251.424 1454.1 249.595 1457.66 Q247.789 1461.2 247.789 1468.33 Q247.789 1475.44 249.595 1479.01 Q251.424 1482.55 255.035 1482.55 Q258.669 1482.55 260.474 1479.01 Q262.303 1475.44 262.303 1468.33 Q262.303 1461.2 260.474 1457.66 Q258.669 1454.1 255.035 1454.1 M255.035 1450.39 Q260.845 1450.39 263.9 1455 Q266.979 1459.58 266.979 1468.33 Q266.979 1477.06 263.9 1481.67 Q260.845 1486.25 255.035 1486.25 Q249.225 1486.25 246.146 1481.67 Q243.09 1477.06 243.09 1468.33 Q243.09 1459.58 246.146 1455 Q249.225 1450.39 255.035 1450.39 Z" fill="#000000" fill-rule="evenodd" fill-opacity="1" /><path clip-path="url(#clip330)" d="M754.572 1481.64 L762.211 1481.64 L762.211 1455.28 L753.901 1456.95 L753.901 1452.69 L762.165 1451.02 L766.841 1451.02 L766.841 1481.64 L774.48 1481.64 L774.48 1485.58 L754.572 1485.58 L754.572 1481.64 Z" fill="#000000" fill-rule="evenodd" fill-opacity="1" /><path clip-path="url(#clip330)" d="M1268 1481.64 L1284.32 1481.64 L1284.32 1485.58 L1262.37 1485.58 L1262.37 1481.64 Q1265.04 1478.89 1269.62 1474.26 Q1274.23 1469.61 1275.41 1468.27 Q1277.65 1465.74 1278.53 1464.01 Q1279.43 1462.25 1279.43 1460.56 Q1279.43 1457.8 1277.49 1456.07 Q1275.57 1454.33 1272.47 1454.33 Q1270.27 1454.33 1267.81 1455.09 Q1265.38 1455.86 1262.61 1457.41 L1262.61 1452.69 Q1265.43 1451.55 1267.88 1450.97 Q1270.34 1450.39 1272.37 1450.39 Q1277.74 1450.39 1280.94 1453.08 Q1284.13 1455.77 1284.13 1460.26 Q1284.13 1462.39 1283.32 1464.31 Q1282.54 1466.2 1280.43 1468.8 Q1279.85 1469.47 1276.75 1472.69 Q1273.65 1475.88 1268 1481.64 Z" fill="#000000" fill-rule="evenodd" fill-opacity="1" /><path clip-path="url(#clip330)" d="M1786.75 1466.95 Q1790.11 1467.66 1791.98 1469.93 Q1793.88 1472.2 1793.88 1475.53 Q1793.88 1480.65 1790.36 1483.45 Q1786.84 1486.25 1780.36 1486.25 Q1778.18 1486.25 1775.87 1485.81 Q1773.58 1485.39 1771.12 1484.54 L1771.12 1480.02 Q1773.07 1481.16 1775.38 1481.74 Q1777.7 1482.32 1780.22 1482.32 Q1784.62 1482.32 1786.91 1480.58 Q1789.23 1478.84 1789.23 1475.53 Q1789.23 1472.48 1787.07 1470.77 Q1784.94 1469.03 1781.12 1469.03 L1777.1 1469.03 L1777.1 1465.19 L1781.31 1465.19 Q1784.76 1465.19 1786.59 1463.82 Q1788.42 1462.43 1788.42 1459.84 Q1788.42 1457.18 1786.52 1455.77 Q1784.64 1454.33 1781.12 1454.33 Q1779.2 1454.33 1777 1454.75 Q1774.8 1455.16 1772.17 1456.04 L1772.17 1451.88 Q1774.83 1451.14 1777.14 1450.77 Q1779.48 1450.39 1781.54 1450.39 Q1786.86 1450.39 1789.97 1452.83 Q1793.07 1455.23 1793.07 1459.35 Q1793.07 1462.22 1791.43 1464.21 Q1789.78 1466.18 1786.75 1466.95 Z" fill="#000000" fill-rule="evenodd" fill-opacity="1" /><path clip-path="url(#clip330)" d="M2294.67 1455.09 L2282.86 1473.54 L2294.67 1473.54 L2294.67 1455.09 M2293.44 1451.02 L2299.32 1451.02 L2299.32 1473.54 L2304.25 1473.54 L2304.25 1477.43 L2299.32 1477.43 L2299.32 1485.58 L2294.67 1485.58 L2294.67 1477.43 L2279.06 1477.43 L2279.06 1472.92 L2293.44 1451.02 Z" fill="#000000" fill-rule="evenodd" fill-opacity="1" /><path clip-path="url(#clip330)" d="M1221.66 1522.27 L1221.66 1532.4 L1233.72 1532.4 L1233.72 1536.95 L1221.66 1536.95 L1221.66 1556.3 Q1221.66 1560.66 1222.83 1561.9 Q1224.04 1563.14 1227.7 1563.14 L1233.72 1563.14 L1233.72 1568.04 L1227.7 1568.04 Q1220.92 1568.04 1218.35 1565.53 Q1215.77 1562.98 1215.77 1556.3 L1215.77 1536.95 L1211.47 1536.95 L1211.47 1532.4 L1215.77 1532.4 L1215.77 1522.27 L1221.66 1522.27 Z" fill="#000000" fill-rule="evenodd" fill-opacity="1" /><path clip-path="url(#clip330)" d="M1261.6 1518.52 L1275.1 1518.52 L1275.1 1523.07 L1267.46 1523.07 L1267.46 1572.09 L1275.1 1572.09 L1275.1 1576.64 L1261.6 1576.64 L1261.6 1518.52 Z" fill="#000000" fill-rule="evenodd" fill-opacity="1" /><path clip-path="url(#clip330)" d="M1310.3 1533.45 L1310.3 1538.98 Q1307.82 1537.71 1305.14 1537.07 Q1302.47 1536.44 1299.6 1536.44 Q1295.24 1536.44 1293.05 1537.77 Q1290.88 1539.11 1290.88 1541.79 Q1290.88 1543.82 1292.44 1545 Q1294 1546.15 1298.71 1547.2 L1300.72 1547.64 Q1306.96 1548.98 1309.57 1551.43 Q1312.21 1553.85 1312.21 1558.21 Q1312.21 1563.17 1308.26 1566.07 Q1304.35 1568.97 1297.47 1568.97 Q1294.61 1568.97 1291.49 1568.39 Q1288.4 1567.85 1284.96 1566.74 L1284.96 1560.69 Q1288.21 1562.38 1291.36 1563.24 Q1294.51 1564.07 1297.6 1564.07 Q1301.74 1564.07 1303.97 1562.66 Q1306.19 1561.23 1306.19 1558.65 Q1306.19 1556.27 1304.57 1554.99 Q1302.98 1553.72 1297.54 1552.54 L1295.5 1552.07 Q1290.06 1550.92 1287.64 1548.56 Q1285.22 1546.18 1285.22 1542.04 Q1285.22 1537.01 1288.78 1534.27 Q1292.35 1531.54 1298.9 1531.54 Q1302.15 1531.54 1305.02 1532.01 Q1307.88 1532.49 1310.3 1533.45 Z" fill="#000000" fill-rule="evenodd" fill-opacity="1" /><path clip-path="url(#clip330)" d="M1335.22 1518.52 L1335.22 1576.64 L1321.73 1576.64 L1321.73 1572.09 L1329.33 1572.09 L1329.33 1523.07 L1321.73 1523.07 L1321.73 1518.52 L1335.22 1518.52 Z" fill="#000000" fill-rule="evenodd" fill-opacity="1" /><polyline clip-path="url(#clip332)" style="stroke:#000000; stroke-linecap:round; stroke-linejoin:round; stroke-width:2; stroke-opacity:0.1; fill:none" points="
  193.936,1097.82 2352.76,1097.82 
  "/>
<polyline clip-path="url(#clip332)" style="stroke:#000000; stroke-linecap:round; stroke-linejoin:round; stroke-width:2; stroke-opacity:0.1; fill:none" points="
  193.936,760.606 2352.76,760.606 
  "/>
<polyline clip-path="url(#clip332)" style="stroke:#000000; stroke-linecap:round; stroke-linejoin:round; stroke-width:2; stroke-opacity:0.1; fill:none" points="
  193.936,423.396 2352.76,423.396 
  "/>
<polyline clip-path="url(#clip332)" style="stroke:#000000; stroke-linecap:round; stroke-linejoin:round; stroke-width:2; stroke-opacity:0.1; fill:none" points="
  193.936,86.1857 2352.76,86.1857 
  "/>
<polyline clip-path="url(#clip330)" style="stroke:#000000; stroke-linecap:round; stroke-linejoin:round; stroke-width:4; stroke-opacity:1; fill:none" points="
  193.936,1423.18 193.936,47.2441 
  "/>
<polyline clip-path="url(#clip330)" style="stroke:#000000; stroke-linecap:round; stroke-linejoin:round; stroke-width:4; stroke-opacity:1; fill:none" points="
  193.936,1097.82 212.834,1097.82 
  "/>
<polyline clip-path="url(#clip330)" style="stroke:#000000; stroke-linecap:round; stroke-linejoin:round; stroke-width:4; stroke-opacity:1; fill:none" points="
  193.936,760.606 212.834,760.606 
  "/>
<polyline clip-path="url(#clip330)" style="stroke:#000000; stroke-linecap:round; stroke-linejoin:round; stroke-width:4; stroke-opacity:1; fill:none" points="
  193.936,423.396 212.834,423.396 
  "/>
<polyline clip-path="url(#clip330)" style="stroke:#000000; stroke-linecap:round; stroke-linejoin:round; stroke-width:4; stroke-opacity:1; fill:none" points="
  193.936,86.1857 212.834,86.1857 
  "/>
<path clip-path="url(#clip330)" d="M50.9921 1098.27 L80.6679 1098.27 L80.6679 1102.2 L50.9921 1102.2 L50.9921 1098.27 Z" fill="#000000" fill-rule="evenodd" fill-opacity="1" /><path clip-path="url(#clip330)" d="M91.5706 1111.16 L99.2095 1111.16 L99.2095 1084.8 L90.8993 1086.46 L90.8993 1082.2 L99.1632 1080.54 L103.839 1080.54 L103.839 1111.16 L111.478 1111.16 L111.478 1115.1 L91.5706 1115.1 L91.5706 1111.16 Z" fill="#000000" fill-rule="evenodd" fill-opacity="1" /><path clip-path="url(#clip330)" d="M120.922 1109.22 L125.807 1109.22 L125.807 1115.1 L120.922 1115.1 L120.922 1109.22 Z" fill="#000000" fill-rule="evenodd" fill-opacity="1" /><path clip-path="url(#clip330)" d="M145.992 1083.62 Q142.381 1083.62 140.552 1087.18 Q138.746 1090.72 138.746 1097.85 Q138.746 1104.96 140.552 1108.52 Q142.381 1112.06 145.992 1112.06 Q149.626 1112.06 151.431 1108.52 Q153.26 1104.96 153.26 1097.85 Q153.26 1090.72 151.431 1087.18 Q149.626 1083.62 145.992 1083.62 M145.992 1079.91 Q151.802 1079.91 154.857 1084.52 Q157.936 1089.1 157.936 1097.85 Q157.936 1106.58 154.857 1111.18 Q151.802 1115.77 145.992 1115.77 Q140.181 1115.77 137.103 1111.18 Q134.047 1106.58 134.047 1097.85 Q134.047 1089.1 137.103 1084.52 Q140.181 1079.91 145.992 1079.91 Z" fill="#000000" fill-rule="evenodd" fill-opacity="1" /><path clip-path="url(#clip330)" d="M51.9875 761.058 L81.6633 761.058 L81.6633 764.993 L51.9875 764.993 L51.9875 761.058 Z" fill="#000000" fill-rule="evenodd" fill-opacity="1" /><path clip-path="url(#clip330)" d="M101.756 746.405 Q98.1447 746.405 96.316 749.97 Q94.5104 753.512 94.5104 760.641 Q94.5104 767.748 96.316 771.312 Q98.1447 774.854 101.756 774.854 Q105.39 774.854 107.196 771.312 Q109.024 767.748 109.024 760.641 Q109.024 753.512 107.196 749.97 Q105.39 746.405 101.756 746.405 M101.756 742.701 Q107.566 742.701 110.621 747.308 Q113.7 751.891 113.7 760.641 Q113.7 769.368 110.621 773.974 Q107.566 778.558 101.756 778.558 Q95.9456 778.558 92.8669 773.974 Q89.8114 769.368 89.8114 760.641 Q89.8114 751.891 92.8669 747.308 Q95.9456 742.701 101.756 742.701 Z" fill="#000000" fill-rule="evenodd" fill-opacity="1" /><path clip-path="url(#clip330)" d="M121.918 772.007 L126.802 772.007 L126.802 777.886 L121.918 777.886 L121.918 772.007 Z" fill="#000000" fill-rule="evenodd" fill-opacity="1" /><path clip-path="url(#clip330)" d="M137.033 743.326 L155.39 743.326 L155.39 747.262 L141.316 747.262 L141.316 755.734 Q142.334 755.387 143.353 755.225 Q144.371 755.039 145.39 755.039 Q151.177 755.039 154.556 758.211 Q157.936 761.382 157.936 766.799 Q157.936 772.377 154.464 775.479 Q150.992 778.558 144.672 778.558 Q142.496 778.558 140.228 778.187 Q137.982 777.817 135.575 777.076 L135.575 772.377 Q137.658 773.511 139.881 774.067 Q142.103 774.623 144.58 774.623 Q148.584 774.623 150.922 772.516 Q153.26 770.41 153.26 766.799 Q153.26 763.187 150.922 761.081 Q148.584 758.974 144.58 758.974 Q142.705 758.974 140.83 759.391 Q138.978 759.808 137.033 760.687 L137.033 743.326 Z" fill="#000000" fill-rule="evenodd" fill-opacity="1" /><path clip-path="url(#clip330)" d="M100.76 409.195 Q97.1493 409.195 95.3206 412.76 Q93.515 416.301 93.515 423.431 Q93.515 430.537 95.3206 434.102 Q97.1493 437.644 100.76 437.644 Q104.395 437.644 106.2 434.102 Q108.029 430.537 108.029 423.431 Q108.029 416.301 106.2 412.76 Q104.395 409.195 100.76 409.195 M100.76 405.491 Q106.571 405.491 109.626 410.098 Q112.705 414.681 112.705 423.431 Q112.705 432.158 109.626 436.764 Q106.571 441.347 100.76 441.347 Q94.9502 441.347 91.8715 436.764 Q88.816 432.158 88.816 423.431 Q88.816 414.681 91.8715 410.098 Q94.9502 405.491 100.76 405.491 Z" fill="#000000" fill-rule="evenodd" fill-opacity="1" /><path clip-path="url(#clip330)" d="M120.922 434.796 L125.807 434.796 L125.807 440.676 L120.922 440.676 L120.922 434.796 Z" fill="#000000" fill-rule="evenodd" fill-opacity="1" /><path clip-path="url(#clip330)" d="M145.992 409.195 Q142.381 409.195 140.552 412.76 Q138.746 416.301 138.746 423.431 Q138.746 430.537 140.552 434.102 Q142.381 437.644 145.992 437.644 Q149.626 437.644 151.431 434.102 Q153.26 430.537 153.26 423.431 Q153.26 416.301 151.431 412.76 Q149.626 409.195 145.992 409.195 M145.992 405.491 Q151.802 405.491 154.857 410.098 Q157.936 414.681 157.936 423.431 Q157.936 432.158 154.857 436.764 Q151.802 441.347 145.992 441.347 Q140.181 441.347 137.103 436.764 Q134.047 432.158 134.047 423.431 Q134.047 414.681 137.103 410.098 Q140.181 405.491 145.992 405.491 Z" fill="#000000" fill-rule="evenodd" fill-opacity="1" /><path clip-path="url(#clip330)" d="M101.756 71.9844 Q98.1447 71.9844 96.316 75.5492 Q94.5104 79.0908 94.5104 86.2204 Q94.5104 93.3268 96.316 96.8916 Q98.1447 100.433 101.756 100.433 Q105.39 100.433 107.196 96.8916 Q109.024 93.3268 109.024 86.2204 Q109.024 79.0908 107.196 75.5492 Q105.39 71.9844 101.756 71.9844 M101.756 68.2807 Q107.566 68.2807 110.621 72.8871 Q113.7 77.4704 113.7 86.2204 Q113.7 94.9472 110.621 99.5537 Q107.566 104.137 101.756 104.137 Q95.9456 104.137 92.8669 99.5537 Q89.8114 94.9472 89.8114 86.2204 Q89.8114 77.4704 92.8669 72.8871 Q95.9456 68.2807 101.756 68.2807 Z" fill="#000000" fill-rule="evenodd" fill-opacity="1" /><path clip-path="url(#clip330)" d="M121.918 97.5861 L126.802 97.5861 L126.802 103.466 L121.918 103.466 L121.918 97.5861 Z" fill="#000000" fill-rule="evenodd" fill-opacity="1" /><path clip-path="url(#clip330)" d="M137.033 68.9057 L155.39 68.9057 L155.39 72.8408 L141.316 72.8408 L141.316 81.313 Q142.334 80.9658 143.353 80.8038 Q144.371 80.6186 145.39 80.6186 Q151.177 80.6186 154.556 83.7899 Q157.936 86.9611 157.936 92.3778 Q157.936 97.9564 154.464 101.058 Q150.992 104.137 144.672 104.137 Q142.496 104.137 140.228 103.767 Q137.982 103.396 135.575 102.655 L135.575 97.9564 Q137.658 99.0907 139.881 99.6462 Q142.103 100.202 144.58 100.202 Q148.584 100.202 150.922 98.0953 Q153.26 95.9889 153.26 92.3778 Q153.26 88.7667 150.922 86.6602 Q148.584 84.5537 144.58 84.5537 Q142.705 84.5537 140.83 84.9704 Q138.978 85.3871 137.033 86.2667 L137.033 68.9057 Z" fill="#000000" fill-rule="evenodd" fill-opacity="1" /><polyline clip-path="url(#clip332)" style="stroke:#009af9; stroke-linecap:round; stroke-linejoin:round; stroke-width:4; stroke-opacity:1; fill:none" points="
  255.035,86.1857 260.126,91.528 265.218,96.8769 270.309,102.232 275.401,107.595 280.492,112.964 285.584,118.339 290.676,123.722 295.767,129.111 300.859,134.507 
  305.95,139.91 311.042,145.32 316.133,150.738 321.225,156.162 326.316,161.593 331.408,167.031 336.5,172.477 341.591,177.93 346.683,183.39 351.774,188.857 
  356.866,194.332 361.957,199.814 367.049,205.303 372.14,210.8 377.232,216.304 382.324,221.816 387.415,227.336 392.507,232.863 397.598,238.398 402.69,243.941 
  407.781,249.491 412.873,255.049 417.964,260.615 423.056,266.189 428.148,271.77 433.239,277.36 438.331,282.957 443.422,288.563 448.514,294.177 453.605,299.798 
  458.697,305.428 463.788,311.066 468.88,316.711 473.972,322.366 479.063,328.028 484.155,333.698 489.246,339.377 494.338,345.064 499.429,350.759 504.521,356.463 
  509.612,362.175 514.704,367.895 519.796,373.624 524.887,379.361 529.979,385.107 535.07,390.861 540.162,396.623 545.253,402.393 550.345,408.172 555.437,413.96 
  560.528,419.756 565.62,425.56 570.711,431.373 575.803,437.194 580.894,443.024 585.986,448.862 591.077,454.709 596.169,460.565 601.261,466.429 606.352,472.301 
  611.444,478.182 616.535,484.071 621.627,489.968 626.718,495.874 631.81,501.788 636.901,507.711 641.993,513.641 647.085,519.58 652.176,525.526 657.268,531.481 
  662.359,537.443 667.451,543.413 672.542,549.391 677.634,555.376 682.725,561.369 687.817,567.37 692.909,573.377 698,579.392 703.092,585.413 708.183,591.442 
  713.275,597.477 718.366,603.519 723.458,609.567 728.549,615.622 733.641,621.683 738.733,627.75 743.824,633.822 748.916,639.901 754.007,645.985 759.099,652.074 
  764.19,658.168 769.282,664.267 774.373,670.371 779.465,676.479 784.557,682.591 789.648,688.707 794.74,694.826 799.831,700.948 804.923,707.073 810.014,713.2 
  815.106,719.329 820.197,725.46 825.289,731.593 830.381,737.726 835.472,743.859 840.564,749.993 845.655,756.126 850.747,762.258 855.838,768.388 860.93,774.516 
  866.021,780.641 871.113,786.763 876.205,792.881 881.296,798.994 886.388,805.102 891.479,811.204 896.571,817.299 901.662,823.386 906.754,829.465 911.845,835.535 
  916.937,841.595 922.029,847.644 927.12,853.681 932.212,859.706 937.303,865.717 942.395,871.714 947.486,877.695 952.578,883.66 957.669,889.607 962.761,895.536 
  967.853,901.446 972.944,907.334 978.036,913.201 983.127,919.046 988.219,924.866 993.31,930.66 998.402,936.429 1003.49,942.17 1008.59,947.881 1013.68,953.563 
  1018.77,959.214 1023.86,964.833 1028.95,970.418 1034.04,975.967 1039.13,981.48 1044.23,986.954 1049.32,992.388 1054.41,997.782 1059.5,1003.13 1064.59,1008.44 
  1069.68,1013.7 1074.78,1018.92 1079.87,1024.09 1084.96,1029.21 1090.05,1034.29 1095.14,1039.31 1100.23,1044.28 1105.32,1049.2 1110.42,1054.07 1115.51,1058.88 
  1120.6,1063.64 1125.69,1068.35 1130.78,1073 1135.87,1077.6 1140.97,1082.13 1146.06,1086.61 1151.15,1091.04 1156.24,1095.4 1161.33,1099.71 1166.42,1103.96 
  1171.51,1108.15 1176.61,1112.28 1181.7,1116.35 1186.79,1120.37 1191.88,1124.32 1196.97,1128.21 1202.06,1132.05 1207.16,1135.83 1212.25,1139.54 1217.34,1143.2 
  1222.43,1146.8 1227.52,1150.34 1232.61,1153.82 1237.71,1157.25 1242.8,1160.62 1247.89,1163.93 1252.98,1167.18 1258.07,1170.38 1263.16,1173.52 1268.25,1176.61 
  1273.35,1179.64 1278.44,1182.63 1283.53,1185.56 1288.62,1188.43 1293.71,1191.26 1298.8,1194.04 1303.9,1196.76 1308.99,1199.44 1314.08,1202.08 1319.17,1204.66 
  1324.26,1207.2 1329.35,1209.7 1334.44,1212.15 1339.54,1214.56 1344.63,1216.92 1349.72,1219.24 1354.81,1221.53 1359.9,1223.77 1364.99,1225.97 1370.09,1228.14 
  1375.18,1230.26 1380.27,1232.35 1385.36,1234.41 1390.45,1236.42 1395.54,1238.41 1400.63,1240.35 1405.73,1242.27 1410.82,1244.15 1415.91,1246 1421,1247.82 
  1426.09,1249.6 1431.18,1251.36 1436.28,1253.09 1441.37,1254.78 1446.46,1256.45 1451.55,1258.1 1456.64,1259.71 1461.73,1261.3 1466.83,1262.86 1471.92,1264.4 
  1477.01,1265.91 1482.1,1267.4 1487.19,1268.87 1492.28,1270.31 1497.37,1271.73 1502.47,1273.13 1507.56,1274.51 1512.65,1275.86 1517.74,1277.2 1522.83,1278.52 
  1527.92,1279.82 1533.02,1281.1 1538.11,1282.36 1543.2,1283.61 1548.29,1284.83 1553.38,1286.04 1558.47,1287.24 1563.56,1288.41 1568.66,1289.57 1573.75,1290.72 
  1578.84,1291.85 1583.93,1292.96 1589.02,1294.06 1594.11,1295.15 1599.21,1296.22 1604.3,1297.28 1609.39,1298.32 1614.48,1299.35 1619.57,1300.37 1624.66,1301.37 
  1629.75,1302.36 1634.85,1303.34 1639.94,1304.31 1645.03,1305.27 1650.12,1306.21 1655.21,1307.15 1660.3,1308.07 1665.4,1308.99 1670.49,1309.89 1675.58,1310.78 
  1680.67,1311.67 1685.76,1312.54 1690.85,1313.4 1695.95,1314.26 1701.04,1315.11 1706.13,1315.94 1711.22,1316.77 1716.31,1317.6 1721.4,1318.41 1726.49,1319.22 
  1731.59,1320.02 1736.68,1320.81 1741.77,1321.59 1746.86,1322.37 1751.95,1323.14 1757.04,1323.91 1762.14,1324.66 1767.23,1325.42 1772.32,1326.16 1777.41,1326.9 
  1782.5,1327.64 1787.59,1328.37 1792.68,1329.09 1797.78,1329.81 1802.87,1330.52 1807.96,1331.23 1813.05,1331.93 1818.14,1332.63 1823.23,1333.32 1828.33,1334 
  1833.42,1334.69 1838.51,1335.36 1843.6,1336.04 1848.69,1336.7 1853.78,1337.37 1858.87,1338.02 1863.97,1338.68 1869.06,1339.33 1874.15,1339.97 1879.24,1340.61 
  1884.33,1341.25 1889.42,1341.88 1894.52,1342.51 1899.61,1343.14 1904.7,1343.76 1909.79,1344.38 1914.88,1344.99 1919.97,1345.6 1925.07,1346.21 1930.16,1346.81 
  1935.25,1347.41 1940.34,1348.01 1945.43,1348.6 1950.52,1349.19 1955.61,1349.78 1960.71,1350.36 1965.8,1350.95 1970.89,1351.52 1975.98,1352.1 1981.07,1352.67 
  1986.16,1353.24 1991.26,1353.81 1996.35,1354.38 2001.44,1354.94 2006.53,1355.5 2011.62,1356.06 2016.71,1356.62 2021.8,1357.17 2026.9,1357.72 2031.99,1358.28 
  2037.08,1358.82 2042.17,1359.37 2047.26,1359.92 2052.35,1360.46 2057.45,1361 2062.54,1361.54 2067.63,1362.08 2072.72,1362.61 2077.81,1363.15 2082.9,1363.68 
  2087.99,1364.21 2093.09,1364.74 2098.18,1365.27 2103.27,1365.79 2108.36,1366.31 2113.45,1366.84 2118.54,1367.36 2123.64,1367.87 2128.73,1368.39 2133.82,1368.91 
  2138.91,1369.42 2144,1369.93 2149.09,1370.44 2154.19,1370.95 2159.28,1371.46 2164.37,1371.97 2169.46,1372.47 2174.55,1372.98 2179.64,1373.48 2184.73,1373.98 
  2189.83,1374.48 2194.92,1374.98 2200.01,1375.48 2205.1,1375.97 2210.19,1376.47 2215.28,1376.96 2220.38,1377.46 2225.47,1377.95 2230.56,1378.44 2235.65,1378.93 
  2240.74,1379.41 2245.83,1379.9 2250.92,1380.39 2256.02,1380.87 2261.11,1381.36 2266.2,1381.84 2271.29,1382.32 2276.38,1382.8 2281.47,1383.28 2286.57,1383.76 
  2291.66,1384.24 
  "/>
<polyline clip-path="url(#clip332)" style="stroke:#e26f46; stroke-linecap:round; stroke-linejoin:round; stroke-width:4; stroke-opacity:1; fill:none" points="
  255.035,423.396 260.126,427.515 265.218,431.628 270.309,435.736 275.401,439.838 280.492,443.935 285.584,448.025 290.676,452.11 295.767,456.189 300.859,460.262 
  305.95,464.329 311.042,468.39 316.133,472.445 321.225,476.494 326.316,480.537 331.408,484.573 336.5,488.603 341.591,492.627 346.683,496.644 351.774,500.655 
  356.866,504.659 361.957,508.656 367.049,512.647 372.14,516.631 377.232,520.609 382.324,524.579 387.415,528.542 392.507,532.499 397.598,536.448 402.69,540.391 
  407.781,544.326 412.873,548.253 417.964,552.174 423.056,556.087 428.148,559.992 433.239,563.89 438.331,567.78 443.422,571.663 448.514,575.538 453.605,579.405 
  458.697,583.263 463.788,587.114 468.88,590.957 473.972,594.792 479.063,598.618 484.155,602.436 489.246,606.245 494.338,610.046 499.429,613.838 504.521,617.622 
  509.612,621.396 514.704,625.162 519.796,628.919 524.887,632.667 529.979,636.405 535.07,640.135 540.162,643.854 545.253,647.565 550.345,651.266 555.437,654.957 
  560.528,658.639 565.62,662.31 570.711,665.972 575.803,669.624 580.894,673.265 585.986,676.896 591.077,680.517 596.169,684.127 601.261,687.726 606.352,691.315 
  611.444,694.893 616.535,698.46 621.627,702.016 626.718,705.56 631.81,709.094 636.901,712.616 641.993,716.126 647.085,719.624 652.176,723.111 657.268,726.586 
  662.359,730.049 667.451,733.499 672.542,736.937 677.634,740.363 682.725,743.776 687.817,747.177 692.909,750.564 698,753.939 703.092,757.3 708.183,760.649 
  713.275,763.984 718.366,767.305 723.458,770.613 728.549,773.907 733.641,777.187 738.733,780.452 743.824,783.704 748.916,786.941 754.007,790.164 759.099,793.372 
  764.19,796.566 769.282,799.744 774.373,802.907 779.465,806.055 784.557,809.188 789.648,812.306 794.74,815.408 799.831,818.495 804.923,821.565 810.014,824.62 
  815.106,827.658 820.197,830.68 825.289,833.686 830.381,836.675 835.472,839.647 840.564,842.602 845.655,845.541 850.747,848.462 855.838,851.366 860.93,854.252 
  866.021,857.122 871.113,859.974 876.205,862.808 881.296,865.625 886.388,868.424 891.479,871.205 896.571,873.969 901.662,876.715 906.754,879.443 911.845,882.153 
  916.937,884.846 922.029,887.521 927.12,890.177 932.212,892.817 937.303,895.438 942.395,898.042 947.486,900.628 952.578,903.196 957.669,905.747 962.761,908.28 
  967.853,910.796 972.944,913.294 978.036,915.775 983.127,918.239 988.219,920.686 993.31,923.115 998.402,925.528 1003.49,927.925 1008.59,930.304 1013.68,932.667 
  1018.77,935.013 1023.86,937.343 1028.95,939.656 1034.04,941.953 1039.13,944.235 1044.23,946.501 1049.32,948.753 1054.41,950.99 1059.5,953.213 1064.59,955.422 
  1069.68,957.617 1074.78,959.798 1079.87,961.967 1084.96,964.123 1090.05,966.266 1095.14,968.396 1100.23,970.515 1105.32,972.622 1110.42,974.717 1115.51,976.8 
  1120.6,978.873 1125.69,980.934 1130.78,982.985 1135.87,985.025 1140.97,987.055 1146.06,989.075 1151.15,991.084 1156.24,993.084 1161.33,995.074 1166.42,997.055 
  1171.51,999.026 1176.61,1000.99 1181.7,1002.94 1186.79,1004.88 1191.88,1006.82 1196.97,1008.74 1202.06,1010.66 1207.16,1012.57 1212.25,1014.47 1217.34,1016.36 
  1222.43,1018.25 1227.52,1020.12 1232.61,1021.99 1237.71,1023.85 1242.8,1025.7 1247.89,1027.54 1252.98,1029.38 1258.07,1031.2 1263.16,1033.02 1268.25,1034.83 
  1273.35,1036.63 1278.44,1038.43 1283.53,1040.22 1288.62,1041.99 1293.71,1043.77 1298.8,1045.53 1303.9,1047.29 1308.99,1049.04 1314.08,1050.78 1319.17,1052.52 
  1324.26,1054.25 1329.35,1055.97 1334.44,1057.69 1339.54,1059.39 1344.63,1061.09 1349.72,1062.79 1354.81,1064.47 1359.9,1066.15 1364.99,1067.83 1370.09,1069.49 
  1375.18,1071.15 1380.27,1072.8 1385.36,1074.45 1390.45,1076.09 1395.54,1077.72 1400.63,1079.34 1405.73,1080.96 1410.82,1082.58 1415.91,1084.18 1421,1085.78 
  1426.09,1087.37 1431.18,1088.96 1436.28,1090.54 1441.37,1092.11 1446.46,1093.68 1451.55,1095.24 1456.64,1096.8 1461.73,1098.35 1466.83,1099.9 1471.92,1101.44 
  1477.01,1102.97 1482.1,1104.5 1487.19,1106.02 1492.28,1107.54 1497.37,1109.05 1502.47,1110.56 1507.56,1112.07 1512.65,1113.57 1517.74,1115.06 1522.83,1116.55 
  1527.92,1118.04 1533.02,1119.52 1538.11,1121 1543.2,1122.47 1548.29,1123.94 1553.38,1125.4 1558.47,1126.86 1563.56,1128.32 1568.66,1129.77 1573.75,1131.21 
  1578.84,1132.66 1583.93,1134.09 1589.02,1135.53 1594.11,1136.96 1599.21,1138.39 1604.3,1139.81 1609.39,1141.23 1614.48,1142.64 1619.57,1144.05 1624.66,1145.46 
  1629.75,1146.86 1634.85,1148.26 1639.94,1149.65 1645.03,1151.05 1650.12,1152.44 1655.21,1153.82 1660.3,1155.2 1665.4,1156.58 1670.49,1157.95 1675.58,1159.33 
  1680.67,1160.69 1685.76,1162.06 1690.85,1163.42 1695.95,1164.78 1701.04,1166.13 1706.13,1167.49 1711.22,1168.84 1716.31,1170.18 1721.4,1171.53 1726.49,1172.87 
  1731.59,1174.2 1736.68,1175.54 1741.77,1176.87 1746.86,1178.2 1751.95,1179.53 1757.04,1180.86 1762.14,1182.18 1767.23,1183.5 1772.32,1184.82 1777.41,1186.13 
  1782.5,1187.45 1787.59,1188.76 1792.68,1190.06 1797.78,1191.37 1802.87,1192.67 1807.96,1193.98 1813.05,1195.27 1818.14,1196.57 1823.23,1197.87 1828.33,1199.16 
  1833.42,1200.45 1838.51,1201.74 1843.6,1203.02 1848.69,1204.31 1853.78,1205.59 1858.87,1206.87 1863.97,1208.14 1869.06,1209.42 1874.15,1210.69 1879.24,1211.96 
  1884.33,1213.23 1889.42,1214.5 1894.52,1215.76 1899.61,1217.03 1904.7,1218.29 1909.79,1219.55 1914.88,1220.8 1919.97,1222.06 1925.07,1223.31 1930.16,1224.56 
  1935.25,1225.81 1940.34,1227.06 1945.43,1228.3 1950.52,1229.55 1955.61,1230.79 1960.71,1232.03 1965.8,1233.27 1970.89,1234.5 1975.98,1235.74 1981.07,1236.97 
  1986.16,1238.2 1991.26,1239.43 1996.35,1240.66 2001.44,1241.89 2006.53,1243.11 2011.62,1244.34 2016.71,1245.56 2021.8,1246.78 2026.9,1248 2031.99,1249.21 
  2037.08,1250.43 2042.17,1251.64 2047.26,1252.85 2052.35,1254.07 2057.45,1255.28 2062.54,1256.48 2067.63,1257.69 2072.72,1258.89 2077.81,1260.1 2082.9,1261.3 
  2087.99,1262.5 2093.09,1263.7 2098.18,1264.9 2103.27,1266.09 2108.36,1267.29 2113.45,1268.48 2118.54,1269.67 2123.64,1270.86 2128.73,1272.05 2133.82,1273.24 
  2138.91,1274.43 2144,1275.61 2149.09,1276.8 2154.19,1277.98 2159.28,1279.16 2164.37,1280.34 2169.46,1281.51 2174.55,1282.69 2179.64,1283.87 2184.73,1285.04 
  2189.83,1286.21 2194.92,1287.38 2200.01,1288.55 2205.1,1289.72 2210.19,1290.89 2215.28,1292.05 2220.38,1293.22 2225.47,1294.38 2230.56,1295.54 2235.65,1296.7 
  2240.74,1297.86 2245.83,1299.02 2250.92,1300.18 2256.02,1301.33 2261.11,1302.49 2266.2,1303.64 2271.29,1304.79 2276.38,1305.94 2281.47,1307.09 2286.57,1308.24 
  2291.66,1309.38 
  "/>
<path clip-path="url(#clip330)" d="
M1588.2 248.629 L2280.8 248.629 L2280.8 93.1086 L1588.2 93.1086  Z
  " fill="#ffffff" fill-rule="evenodd" fill-opacity="1"/>
<polyline clip-path="url(#clip330)" style="stroke:#000000; stroke-linecap:round; stroke-linejoin:round; stroke-width:4; stroke-opacity:1; fill:none" points="
  1588.2,248.629 2280.8,248.629 2280.8,93.1086 1588.2,93.1086 1588.2,248.629 
  "/>
<polyline clip-path="url(#clip330)" style="stroke:#009af9; stroke-linecap:round; stroke-linejoin:round; stroke-width:4; stroke-opacity:1; fill:none" points="
  1612.18,144.949 1756.11,144.949 
  "/>
<path clip-path="url(#clip330)" d="M1800.44 141.28 Q1802.04 138.409 1804.26 137.044 Q1806.48 135.678 1809.49 135.678 Q1813.54 135.678 1815.74 138.525 Q1817.94 141.349 1817.94 146.581 L1817.94 162.229 L1813.66 162.229 L1813.66 146.719 Q1813.66 142.993 1812.34 141.187 Q1811.02 139.382 1808.31 139.382 Q1805 139.382 1803.08 141.581 Q1801.16 143.78 1801.16 147.576 L1801.16 162.229 L1796.87 162.229 L1796.87 146.719 Q1796.87 142.969 1795.56 141.187 Q1794.24 139.382 1791.48 139.382 Q1788.22 139.382 1786.3 141.604 Q1784.37 143.803 1784.37 147.576 L1784.37 162.229 L1780.09 162.229 L1780.09 136.303 L1784.37 136.303 L1784.37 140.331 Q1785.83 137.946 1787.87 136.812 Q1789.91 135.678 1792.71 135.678 Q1795.53 135.678 1797.5 137.113 Q1799.49 138.548 1800.44 141.28 Z" fill="#000000" fill-rule="evenodd" fill-opacity="1" /><path clip-path="url(#clip330)" d="M1838.22 149.196 Q1833.06 149.196 1831.06 150.377 Q1829.07 151.557 1829.07 154.405 Q1829.07 156.673 1830.56 158.016 Q1832.06 159.335 1834.63 159.335 Q1838.17 159.335 1840.3 156.835 Q1842.45 154.312 1842.45 150.145 L1842.45 149.196 L1838.22 149.196 M1846.71 147.437 L1846.71 162.229 L1842.45 162.229 L1842.45 158.293 Q1840.99 160.655 1838.82 161.789 Q1836.64 162.9 1833.49 162.9 Q1829.51 162.9 1827.15 160.678 Q1824.81 158.432 1824.81 154.682 Q1824.81 150.307 1827.73 148.085 Q1830.67 145.863 1836.48 145.863 L1842.45 145.863 L1842.45 145.446 Q1842.45 142.507 1840.51 140.909 Q1838.59 139.289 1835.09 139.289 Q1832.87 139.289 1830.76 139.821 Q1828.66 140.354 1826.71 141.419 L1826.71 137.483 Q1829.05 136.581 1831.25 136.141 Q1833.45 135.678 1835.53 135.678 Q1841.16 135.678 1843.93 138.594 Q1846.71 141.511 1846.71 147.437 Z" fill="#000000" fill-rule="evenodd" fill-opacity="1" /><path clip-path="url(#clip330)" d="M1872.01 137.067 L1872.01 141.094 Q1870.21 140.169 1868.26 139.706 Q1866.32 139.243 1864.24 139.243 Q1861.06 139.243 1859.47 140.215 Q1857.89 141.187 1857.89 143.131 Q1857.89 144.613 1859.03 145.469 Q1860.16 146.303 1863.59 147.067 L1865.05 147.391 Q1869.58 148.363 1871.48 150.145 Q1873.4 151.905 1873.4 155.076 Q1873.4 158.687 1870.53 160.793 Q1867.68 162.9 1862.68 162.9 Q1860.6 162.9 1858.33 162.483 Q1856.09 162.09 1853.59 161.28 L1853.59 156.881 Q1855.95 158.108 1858.24 158.733 Q1860.53 159.335 1862.78 159.335 Q1865.79 159.335 1867.41 158.317 Q1869.03 157.275 1869.03 155.4 Q1869.03 153.664 1867.85 152.738 Q1866.69 151.812 1862.73 150.956 L1861.25 150.608 Q1857.29 149.775 1855.53 148.062 Q1853.77 146.326 1853.77 143.317 Q1853.77 139.659 1856.37 137.669 Q1858.96 135.678 1863.73 135.678 Q1866.09 135.678 1868.17 136.025 Q1870.25 136.372 1872.01 137.067 Z" fill="#000000" fill-rule="evenodd" fill-opacity="1" /><path clip-path="url(#clip330)" d="M1896.71 137.067 L1896.71 141.094 Q1894.91 140.169 1892.96 139.706 Q1891.02 139.243 1888.93 139.243 Q1885.76 139.243 1884.17 140.215 Q1882.59 141.187 1882.59 143.131 Q1882.59 144.613 1883.73 145.469 Q1884.86 146.303 1888.29 147.067 L1889.74 147.391 Q1894.28 148.363 1896.18 150.145 Q1898.1 151.905 1898.1 155.076 Q1898.1 158.687 1895.23 160.793 Q1892.38 162.9 1887.38 162.9 Q1885.3 162.9 1883.03 162.483 Q1880.79 162.09 1878.29 161.28 L1878.29 156.881 Q1880.65 158.108 1882.94 158.733 Q1885.23 159.335 1887.48 159.335 Q1890.49 159.335 1892.11 158.317 Q1893.73 157.275 1893.73 155.4 Q1893.73 153.664 1892.55 152.738 Q1891.39 151.812 1887.43 150.956 L1885.95 150.608 Q1881.99 149.775 1880.23 148.062 Q1878.47 146.326 1878.47 143.317 Q1878.47 139.659 1881.06 137.669 Q1883.66 135.678 1888.43 135.678 Q1890.79 135.678 1892.87 136.025 Q1894.95 136.372 1896.71 137.067 Z" fill="#000000" fill-rule="evenodd" fill-opacity="1" /><path clip-path="url(#clip330)" d="M1905.49 156.349 L1910.37 156.349 L1910.37 162.229 L1905.49 162.229 L1905.49 156.349 Z" fill="#000000" fill-rule="evenodd" fill-opacity="1" /><path clip-path="url(#clip330)" d="M1936.48 137.067 L1936.48 141.094 Q1934.67 140.169 1932.73 139.706 Q1930.79 139.243 1928.7 139.243 Q1925.53 139.243 1923.93 140.215 Q1922.36 141.187 1922.36 143.131 Q1922.36 144.613 1923.49 145.469 Q1924.63 146.303 1928.05 147.067 L1929.51 147.391 Q1934.05 148.363 1935.95 150.145 Q1937.87 151.905 1937.87 155.076 Q1937.87 158.687 1935 160.793 Q1932.15 162.9 1927.15 162.9 Q1925.07 162.9 1922.8 162.483 Q1920.55 162.09 1918.05 161.28 L1918.05 156.881 Q1920.42 158.108 1922.71 158.733 Q1925 159.335 1927.24 159.335 Q1930.25 159.335 1931.87 158.317 Q1933.49 157.275 1933.49 155.4 Q1933.49 153.664 1932.31 152.738 Q1931.16 151.812 1927.2 150.956 L1925.72 150.608 Q1921.76 149.775 1920 148.062 Q1918.24 146.326 1918.24 143.317 Q1918.24 139.659 1920.83 137.669 Q1923.42 135.678 1928.19 135.678 Q1930.55 135.678 1932.64 136.025 Q1934.72 136.372 1936.48 137.067 Z" fill="#000000" fill-rule="evenodd" fill-opacity="1" /><path clip-path="url(#clip330)" d="M1969.95 126.257 Q1966.85 131.581 1965.35 136.789 Q1963.84 141.997 1963.84 147.344 Q1963.84 152.692 1965.35 157.946 Q1966.87 163.178 1969.95 168.479 L1966.25 168.479 Q1962.78 163.039 1961.04 157.784 Q1959.33 152.53 1959.33 147.344 Q1959.33 142.182 1961.04 136.951 Q1962.75 131.72 1966.25 126.257 L1969.95 126.257 Z" fill="#000000" fill-rule="evenodd" fill-opacity="1" /><path clip-path="url(#clip330)" d="M1992.98 143.594 Q1996.34 144.312 1998.22 146.581 Q2000.11 148.849 2000.11 152.182 Q2000.11 157.298 1996.6 160.099 Q1993.08 162.9 1986.6 162.9 Q1984.42 162.9 1982.11 162.46 Q1979.81 162.043 1977.36 161.187 L1977.36 156.673 Q1979.3 157.807 1981.62 158.386 Q1983.93 158.965 1986.46 158.965 Q1990.86 158.965 1993.15 157.229 Q1995.46 155.493 1995.46 152.182 Q1995.46 149.127 1993.31 147.414 Q1991.18 145.678 1987.36 145.678 L1983.33 145.678 L1983.33 141.835 L1987.55 141.835 Q1990.99 141.835 1992.82 140.469 Q1994.65 139.081 1994.65 136.488 Q1994.65 133.826 1992.75 132.414 Q1990.88 130.979 1987.36 130.979 Q1985.44 130.979 1983.24 131.395 Q1981.04 131.812 1978.4 132.692 L1978.4 128.525 Q1981.06 127.784 1983.38 127.414 Q1985.72 127.044 1987.78 127.044 Q1993.1 127.044 1996.2 129.474 Q1999.3 131.882 1999.3 136.002 Q1999.3 138.872 1997.66 140.863 Q1996.02 142.831 1992.98 143.594 Z" fill="#000000" fill-rule="evenodd" fill-opacity="1" /><path clip-path="url(#clip330)" d="M2023.15 143.594 Q2026.5 144.312 2028.38 146.581 Q2030.28 148.849 2030.28 152.182 Q2030.28 157.298 2026.76 160.099 Q2023.24 162.9 2016.76 162.9 Q2014.58 162.9 2012.27 162.46 Q2009.98 162.043 2007.52 161.187 L2007.52 156.673 Q2009.47 157.807 2011.78 158.386 Q2014.1 158.965 2016.62 158.965 Q2021.02 158.965 2023.31 157.229 Q2025.62 155.493 2025.62 152.182 Q2025.62 149.127 2023.47 147.414 Q2021.34 145.678 2017.52 145.678 L2013.49 145.678 L2013.49 141.835 L2017.71 141.835 Q2021.16 141.835 2022.98 140.469 Q2024.81 139.081 2024.81 136.488 Q2024.81 133.826 2022.92 132.414 Q2021.04 130.979 2017.52 130.979 Q2015.6 130.979 2013.4 131.395 Q2011.2 131.812 2008.56 132.692 L2008.56 128.525 Q2011.23 127.784 2013.54 127.414 Q2015.88 127.044 2017.94 127.044 Q2023.26 127.044 2026.36 129.474 Q2029.47 131.882 2029.47 136.002 Q2029.47 138.872 2027.82 140.863 Q2026.18 142.831 2023.15 143.594 Z" fill="#000000" fill-rule="evenodd" fill-opacity="1" /><path clip-path="url(#clip330)" d="M2039.19 127.669 L2057.54 127.669 L2057.54 131.604 L2043.47 131.604 L2043.47 140.076 Q2044.49 139.729 2045.51 139.567 Q2046.53 139.382 2047.54 139.382 Q2053.33 139.382 2056.71 142.553 Q2060.09 145.724 2060.09 151.141 Q2060.09 156.719 2056.62 159.821 Q2053.15 162.9 2046.83 162.9 Q2044.65 162.9 2042.38 162.53 Q2040.14 162.159 2037.73 161.418 L2037.73 156.719 Q2039.81 157.854 2042.04 158.409 Q2044.26 158.965 2046.73 158.965 Q2050.74 158.965 2053.08 156.858 Q2055.42 154.752 2055.42 151.141 Q2055.42 147.53 2053.08 145.423 Q2050.74 143.317 2046.73 143.317 Q2044.86 143.317 2042.98 143.733 Q2041.13 144.15 2039.19 145.03 L2039.19 127.669 Z" fill="#000000" fill-rule="evenodd" fill-opacity="1" /><path clip-path="url(#clip330)" d="M2069.35 127.669 L2087.71 127.669 L2087.71 131.604 L2073.63 131.604 L2073.63 140.076 Q2074.65 139.729 2075.67 139.567 Q2076.69 139.382 2077.71 139.382 Q2083.49 139.382 2086.87 142.553 Q2090.25 145.724 2090.25 151.141 Q2090.25 156.719 2086.78 159.821 Q2083.31 162.9 2076.99 162.9 Q2074.81 162.9 2072.54 162.53 Q2070.3 162.159 2067.89 161.418 L2067.89 156.719 Q2069.98 157.854 2072.2 158.409 Q2074.42 158.965 2076.9 158.965 Q2080.9 158.965 2083.24 156.858 Q2085.58 154.752 2085.58 151.141 Q2085.58 147.53 2083.24 145.423 Q2080.9 143.317 2076.9 143.317 Q2075.02 143.317 2073.15 143.733 Q2071.29 144.15 2069.35 145.03 L2069.35 127.669 Z" fill="#000000" fill-rule="evenodd" fill-opacity="1" /><path clip-path="url(#clip330)" d="M2112.31 131.743 L2100.51 150.192 L2112.31 150.192 L2112.31 131.743 M2111.09 127.669 L2116.97 127.669 L2116.97 150.192 L2121.9 150.192 L2121.9 154.081 L2116.97 154.081 L2116.97 162.229 L2112.31 162.229 L2112.31 154.081 L2096.71 154.081 L2096.71 149.567 L2111.09 127.669 Z" fill="#000000" fill-rule="evenodd" fill-opacity="1" /><path clip-path="url(#clip330)" d="M2142.47 131.743 L2130.67 150.192 L2142.47 150.192 L2142.47 131.743 M2141.25 127.669 L2147.13 127.669 L2147.13 150.192 L2152.06 150.192 L2152.06 154.081 L2147.13 154.081 L2147.13 162.229 L2142.47 162.229 L2142.47 154.081 L2126.87 154.081 L2126.87 149.567 L2141.25 127.669 Z" fill="#000000" fill-rule="evenodd" fill-opacity="1" /><path clip-path="url(#clip330)" d="M2173.96 143.594 Q2177.31 144.312 2179.19 146.581 Q2181.09 148.849 2181.09 152.182 Q2181.09 157.298 2177.57 160.099 Q2174.05 162.9 2167.57 162.9 Q2165.39 162.9 2163.08 162.46 Q2160.78 162.043 2158.33 161.187 L2158.33 156.673 Q2160.28 157.807 2162.59 158.386 Q2164.91 158.965 2167.43 158.965 Q2171.83 158.965 2174.12 157.229 Q2176.43 155.493 2176.43 152.182 Q2176.43 149.127 2174.28 147.414 Q2172.15 145.678 2168.33 145.678 L2164.3 145.678 L2164.3 141.835 L2168.52 141.835 Q2171.97 141.835 2173.79 140.469 Q2175.62 139.081 2175.62 136.488 Q2175.62 133.826 2173.72 132.414 Q2171.85 130.979 2168.33 130.979 Q2166.41 130.979 2164.21 131.395 Q2162.01 131.812 2159.37 132.692 L2159.37 128.525 Q2162.03 127.784 2164.35 127.414 Q2166.69 127.044 2168.75 127.044 Q2174.07 127.044 2177.17 129.474 Q2180.28 131.882 2180.28 136.002 Q2180.28 138.872 2178.63 140.863 Q2176.99 142.831 2173.96 143.594 Z" fill="#000000" fill-rule="evenodd" fill-opacity="1" /><path clip-path="url(#clip330)" d="M2193.98 158.293 L2210.3 158.293 L2210.3 162.229 L2188.35 162.229 L2188.35 158.293 Q2191.02 155.539 2195.6 150.909 Q2200.21 146.256 2201.39 144.914 Q2203.63 142.391 2204.51 140.655 Q2205.41 138.895 2205.41 137.206 Q2205.41 134.451 2203.47 132.715 Q2201.55 130.979 2198.45 130.979 Q2196.25 130.979 2193.79 131.743 Q2191.36 132.507 2188.59 134.057 L2188.59 129.335 Q2191.41 128.201 2193.86 127.622 Q2196.32 127.044 2198.35 127.044 Q2203.72 127.044 2206.92 129.729 Q2210.11 132.414 2210.11 136.905 Q2210.11 139.034 2209.3 140.956 Q2208.52 142.854 2206.41 145.446 Q2205.83 146.118 2202.73 149.335 Q2199.63 152.53 2193.98 158.293 Z" fill="#000000" fill-rule="evenodd" fill-opacity="1" /><path clip-path="url(#clip330)" d="M2218.84 126.257 L2222.54 126.257 Q2226.02 131.72 2227.73 136.951 Q2229.47 142.182 2229.47 147.344 Q2229.47 152.53 2227.73 157.784 Q2226.02 163.039 2222.54 168.479 L2218.84 168.479 Q2221.92 163.178 2223.42 157.946 Q2224.95 152.692 2224.95 147.344 Q2224.95 141.997 2223.42 136.789 Q2221.92 131.581 2218.84 126.257 Z" fill="#000000" fill-rule="evenodd" fill-opacity="1" /><polyline clip-path="url(#clip330)" style="stroke:#e26f46; stroke-linecap:round; stroke-linejoin:round; stroke-width:4; stroke-opacity:1; fill:none" points="
  1612.18,196.789 1756.11,196.789 
  "/>
<path clip-path="url(#clip330)" d="M1800.44 193.12 Q1802.04 190.249 1804.26 188.884 Q1806.48 187.518 1809.49 187.518 Q1813.54 187.518 1815.74 190.365 Q1817.94 193.189 1817.94 198.421 L1817.94 214.069 L1813.66 214.069 L1813.66 198.559 Q1813.66 194.833 1812.34 193.027 Q1811.02 191.222 1808.31 191.222 Q1805 191.222 1803.08 193.421 Q1801.16 195.62 1801.16 199.416 L1801.16 214.069 L1796.87 214.069 L1796.87 198.559 Q1796.87 194.809 1795.56 193.027 Q1794.24 191.222 1791.48 191.222 Q1788.22 191.222 1786.3 193.444 Q1784.37 195.643 1784.37 199.416 L1784.37 214.069 L1780.09 214.069 L1780.09 188.143 L1784.37 188.143 L1784.37 192.171 Q1785.83 189.786 1787.87 188.652 Q1789.91 187.518 1792.71 187.518 Q1795.53 187.518 1797.5 188.953 Q1799.49 190.388 1800.44 193.12 Z" fill="#000000" fill-rule="evenodd" fill-opacity="1" /><path clip-path="url(#clip330)" d="M1838.22 201.036 Q1833.06 201.036 1831.06 202.217 Q1829.07 203.397 1829.07 206.245 Q1829.07 208.513 1830.56 209.856 Q1832.06 211.175 1834.63 211.175 Q1838.17 211.175 1840.3 208.675 Q1842.45 206.152 1842.45 201.985 L1842.45 201.036 L1838.22 201.036 M1846.71 199.277 L1846.71 214.069 L1842.45 214.069 L1842.45 210.133 Q1840.99 212.495 1838.82 213.629 Q1836.64 214.74 1833.49 214.74 Q1829.51 214.74 1827.15 212.518 Q1824.81 210.272 1824.81 206.522 Q1824.81 202.147 1827.73 199.925 Q1830.67 197.703 1836.48 197.703 L1842.45 197.703 L1842.45 197.286 Q1842.45 194.347 1840.51 192.749 Q1838.59 191.129 1835.09 191.129 Q1832.87 191.129 1830.76 191.661 Q1828.66 192.194 1826.71 193.259 L1826.71 189.323 Q1829.05 188.421 1831.25 187.981 Q1833.45 187.518 1835.53 187.518 Q1841.16 187.518 1843.93 190.434 Q1846.71 193.351 1846.71 199.277 Z" fill="#000000" fill-rule="evenodd" fill-opacity="1" /><path clip-path="url(#clip330)" d="M1872.01 188.907 L1872.01 192.934 Q1870.21 192.009 1868.26 191.546 Q1866.32 191.083 1864.24 191.083 Q1861.06 191.083 1859.47 192.055 Q1857.89 193.027 1857.89 194.971 Q1857.89 196.453 1859.03 197.309 Q1860.16 198.143 1863.59 198.907 L1865.05 199.231 Q1869.58 200.203 1871.48 201.985 Q1873.4 203.745 1873.4 206.916 Q1873.4 210.527 1870.53 212.633 Q1867.68 214.74 1862.68 214.74 Q1860.6 214.74 1858.33 214.323 Q1856.09 213.93 1853.59 213.12 L1853.59 208.721 Q1855.95 209.948 1858.24 210.573 Q1860.53 211.175 1862.78 211.175 Q1865.79 211.175 1867.41 210.157 Q1869.03 209.115 1869.03 207.24 Q1869.03 205.504 1867.85 204.578 Q1866.69 203.652 1862.73 202.796 L1861.25 202.448 Q1857.29 201.615 1855.53 199.902 Q1853.77 198.166 1853.77 195.157 Q1853.77 191.499 1856.37 189.509 Q1858.96 187.518 1863.73 187.518 Q1866.09 187.518 1868.17 187.865 Q1870.25 188.212 1872.01 188.907 Z" fill="#000000" fill-rule="evenodd" fill-opacity="1" /><path clip-path="url(#clip330)" d="M1896.71 188.907 L1896.71 192.934 Q1894.91 192.009 1892.96 191.546 Q1891.02 191.083 1888.93 191.083 Q1885.76 191.083 1884.17 192.055 Q1882.59 193.027 1882.59 194.971 Q1882.59 196.453 1883.73 197.309 Q1884.86 198.143 1888.29 198.907 L1889.74 199.231 Q1894.28 200.203 1896.18 201.985 Q1898.1 203.745 1898.1 206.916 Q1898.1 210.527 1895.23 212.633 Q1892.38 214.74 1887.38 214.74 Q1885.3 214.74 1883.03 214.323 Q1880.79 213.93 1878.29 213.12 L1878.29 208.721 Q1880.65 209.948 1882.94 210.573 Q1885.23 211.175 1887.48 211.175 Q1890.49 211.175 1892.11 210.157 Q1893.73 209.115 1893.73 207.24 Q1893.73 205.504 1892.55 204.578 Q1891.39 203.652 1887.43 202.796 L1885.95 202.448 Q1881.99 201.615 1880.23 199.902 Q1878.47 198.166 1878.47 195.157 Q1878.47 191.499 1881.06 189.509 Q1883.66 187.518 1888.43 187.518 Q1890.79 187.518 1892.87 187.865 Q1894.95 188.212 1896.71 188.907 Z" fill="#000000" fill-rule="evenodd" fill-opacity="1" /><path clip-path="url(#clip330)" d="M1905.49 208.189 L1910.37 208.189 L1910.37 214.069 L1905.49 214.069 L1905.49 208.189 Z" fill="#000000" fill-rule="evenodd" fill-opacity="1" /><path clip-path="url(#clip330)" d="M1916.9 188.143 L1921.41 188.143 L1929.51 209.902 L1937.61 188.143 L1942.13 188.143 L1932.41 214.069 L1926.62 214.069 L1916.9 188.143 Z" fill="#000000" fill-rule="evenodd" fill-opacity="1" /><path clip-path="url(#clip330)" d="M1973.31 178.097 Q1970.21 183.421 1968.7 188.629 Q1967.2 193.837 1967.2 199.184 Q1967.2 204.532 1968.7 209.786 Q1970.23 215.018 1973.31 220.319 L1969.61 220.319 Q1966.13 214.879 1964.4 209.624 Q1962.68 204.37 1962.68 199.184 Q1962.68 194.022 1964.4 188.791 Q1966.11 183.56 1969.61 178.097 L1973.31 178.097 Z" fill="#000000" fill-rule="evenodd" fill-opacity="1" /><path clip-path="url(#clip330)" d="M1996.34 195.434 Q1999.7 196.152 2001.57 198.421 Q2003.47 200.689 2003.47 204.022 Q2003.47 209.138 1999.95 211.939 Q1996.43 214.74 1989.95 214.74 Q1987.78 214.74 1985.46 214.3 Q1983.17 213.883 1980.72 213.027 L1980.72 208.513 Q1982.66 209.647 1984.98 210.226 Q1987.29 210.805 1989.81 210.805 Q1994.21 210.805 1996.5 209.069 Q1998.82 207.333 1998.82 204.022 Q1998.82 200.967 1996.67 199.254 Q1994.54 197.518 1990.72 197.518 L1986.69 197.518 L1986.69 193.675 L1990.9 193.675 Q1994.35 193.675 1996.18 192.309 Q1998.01 190.921 1998.01 188.328 Q1998.01 185.666 1996.11 184.254 Q1994.23 182.819 1990.72 182.819 Q1988.79 182.819 1986.6 183.235 Q1984.4 183.652 1981.76 184.532 L1981.76 180.365 Q1984.42 179.624 1986.73 179.254 Q1989.07 178.884 1991.13 178.884 Q1996.46 178.884 1999.56 181.314 Q2002.66 183.722 2002.66 187.842 Q2002.66 190.712 2001.02 192.703 Q1999.37 194.671 1996.34 195.434 Z" fill="#000000" fill-rule="evenodd" fill-opacity="1" /><path clip-path="url(#clip330)" d="M2026.5 195.434 Q2029.86 196.152 2031.73 198.421 Q2033.63 200.689 2033.63 204.022 Q2033.63 209.138 2030.11 211.939 Q2026.6 214.74 2020.11 214.74 Q2017.94 214.74 2015.62 214.3 Q2013.33 213.883 2010.88 213.027 L2010.88 208.513 Q2012.82 209.647 2015.14 210.226 Q2017.45 210.805 2019.98 210.805 Q2024.37 210.805 2026.67 209.069 Q2028.98 207.333 2028.98 204.022 Q2028.98 200.967 2026.83 199.254 Q2024.7 197.518 2020.88 197.518 L2016.85 197.518 L2016.85 193.675 L2021.06 193.675 Q2024.51 193.675 2026.34 192.309 Q2028.17 190.921 2028.17 188.328 Q2028.17 185.666 2026.27 184.254 Q2024.4 182.819 2020.88 182.819 Q2018.96 182.819 2016.76 183.235 Q2014.56 183.652 2011.92 184.532 L2011.92 180.365 Q2014.58 179.624 2016.9 179.254 Q2019.23 178.884 2021.29 178.884 Q2026.62 178.884 2029.72 181.314 Q2032.82 183.722 2032.82 187.842 Q2032.82 190.712 2031.18 192.703 Q2029.54 194.671 2026.5 195.434 Z" fill="#000000" fill-rule="evenodd" fill-opacity="1" /><path clip-path="url(#clip330)" d="M2042.54 179.509 L2060.9 179.509 L2060.9 183.444 L2046.83 183.444 L2046.83 191.916 Q2047.85 191.569 2048.86 191.407 Q2049.88 191.222 2050.9 191.222 Q2056.69 191.222 2060.07 194.393 Q2063.45 197.564 2063.45 202.981 Q2063.45 208.559 2059.98 211.661 Q2056.5 214.74 2050.18 214.74 Q2048.01 214.74 2045.74 214.37 Q2043.49 213.999 2041.09 213.258 L2041.09 208.559 Q2043.17 209.694 2045.39 210.249 Q2047.61 210.805 2050.09 210.805 Q2054.1 210.805 2056.43 208.698 Q2058.77 206.592 2058.77 202.981 Q2058.77 199.37 2056.43 197.263 Q2054.1 195.157 2050.09 195.157 Q2048.22 195.157 2046.34 195.573 Q2044.49 195.99 2042.54 196.87 L2042.54 179.509 Z" fill="#000000" fill-rule="evenodd" fill-opacity="1" /><path clip-path="url(#clip330)" d="M2072.71 179.509 L2091.06 179.509 L2091.06 183.444 L2076.99 183.444 L2076.99 191.916 Q2078.01 191.569 2079.03 191.407 Q2080.04 191.222 2081.06 191.222 Q2086.85 191.222 2090.23 194.393 Q2093.61 197.564 2093.61 202.981 Q2093.61 208.559 2090.14 211.661 Q2086.66 214.74 2080.35 214.74 Q2078.17 214.74 2075.9 214.37 Q2073.66 213.999 2071.25 213.258 L2071.25 208.559 Q2073.33 209.694 2075.55 210.249 Q2077.78 210.805 2080.25 210.805 Q2084.26 210.805 2086.6 208.698 Q2088.93 206.592 2088.93 202.981 Q2088.93 199.37 2086.6 197.263 Q2084.26 195.157 2080.25 195.157 Q2078.38 195.157 2076.5 195.573 Q2074.65 195.99 2072.71 196.87 L2072.71 179.509 Z" fill="#000000" fill-rule="evenodd" fill-opacity="1" /><path clip-path="url(#clip330)" d="M2115.67 183.583 L2103.86 202.032 L2115.67 202.032 L2115.67 183.583 M2114.44 179.509 L2120.32 179.509 L2120.32 202.032 L2125.25 202.032 L2125.25 205.921 L2120.32 205.921 L2120.32 214.069 L2115.67 214.069 L2115.67 205.921 L2100.07 205.921 L2100.07 201.407 L2114.44 179.509 Z" fill="#000000" fill-rule="evenodd" fill-opacity="1" /><path clip-path="url(#clip330)" d="M2145.83 183.583 L2134.03 202.032 L2145.83 202.032 L2145.83 183.583 M2144.6 179.509 L2150.48 179.509 L2150.48 202.032 L2155.41 202.032 L2155.41 205.921 L2150.48 205.921 L2150.48 214.069 L2145.83 214.069 L2145.83 205.921 L2130.23 205.921 L2130.23 201.407 L2144.6 179.509 Z" fill="#000000" fill-rule="evenodd" fill-opacity="1" /><path clip-path="url(#clip330)" d="M2177.31 195.434 Q2180.67 196.152 2182.54 198.421 Q2184.44 200.689 2184.44 204.022 Q2184.44 209.138 2180.92 211.939 Q2177.41 214.74 2170.92 214.74 Q2168.75 214.74 2166.43 214.3 Q2164.14 213.883 2161.69 213.027 L2161.69 208.513 Q2163.63 209.647 2165.95 210.226 Q2168.26 210.805 2170.78 210.805 Q2175.18 210.805 2177.47 209.069 Q2179.79 207.333 2179.79 204.022 Q2179.79 200.967 2177.64 199.254 Q2175.51 197.518 2171.69 197.518 L2167.66 197.518 L2167.66 193.675 L2171.87 193.675 Q2175.32 193.675 2177.15 192.309 Q2178.98 190.921 2178.98 188.328 Q2178.98 185.666 2177.08 184.254 Q2175.21 182.819 2171.69 182.819 Q2169.77 182.819 2167.57 183.235 Q2165.37 183.652 2162.73 184.532 L2162.73 180.365 Q2165.39 179.624 2167.71 179.254 Q2170.04 178.884 2172.1 178.884 Q2177.43 178.884 2180.53 181.314 Q2183.63 183.722 2183.63 187.842 Q2183.63 190.712 2181.99 192.703 Q2180.34 194.671 2177.31 195.434 Z" fill="#000000" fill-rule="evenodd" fill-opacity="1" /><path clip-path="url(#clip330)" d="M2207.47 195.434 Q2210.83 196.152 2212.71 198.421 Q2214.6 200.689 2214.6 204.022 Q2214.6 209.138 2211.09 211.939 Q2207.57 214.74 2201.09 214.74 Q2198.91 214.74 2196.59 214.3 Q2194.3 213.883 2191.85 213.027 L2191.85 208.513 Q2193.79 209.647 2196.11 210.226 Q2198.42 210.805 2200.95 210.805 Q2205.34 210.805 2207.64 209.069 Q2209.95 207.333 2209.95 204.022 Q2209.95 200.967 2207.8 199.254 Q2205.67 197.518 2201.85 197.518 L2197.82 197.518 L2197.82 193.675 L2202.03 193.675 Q2205.48 193.675 2207.31 192.309 Q2209.14 190.921 2209.14 188.328 Q2209.14 185.666 2207.24 184.254 Q2205.37 182.819 2201.85 182.819 Q2199.93 182.819 2197.73 183.235 Q2195.53 183.652 2192.89 184.532 L2192.89 180.365 Q2195.55 179.624 2197.87 179.254 Q2200.21 178.884 2202.27 178.884 Q2207.59 178.884 2210.69 181.314 Q2213.79 183.722 2213.79 187.842 Q2213.79 190.712 2212.15 192.703 Q2210.51 194.671 2207.47 195.434 Z" fill="#000000" fill-rule="evenodd" fill-opacity="1" /><path clip-path="url(#clip330)" d="M2222.2 178.097 L2225.9 178.097 Q2229.37 183.56 2231.09 188.791 Q2232.82 194.022 2232.82 199.184 Q2232.82 204.37 2231.09 209.624 Q2229.37 214.879 2225.9 220.319 L2222.2 220.319 Q2225.28 215.018 2226.78 209.786 Q2228.31 204.532 2228.31 199.184 Q2228.31 193.837 2226.78 188.629 Q2225.28 183.421 2222.2 178.097 Z" fill="#000000" fill-rule="evenodd" fill-opacity="1" /></svg>
