<?xml version="1.0" encoding="utf-8"?>
<svg xmlns="http://www.w3.org/2000/svg" xmlns:xlink="http://www.w3.org/1999/xlink" width="600" height="400" viewBox="0 0 2400 1600">
<defs>
  <clipPath id="clip250">
    <rect x="0" y="0" width="2400" height="1600"/>
  </clipPath>
</defs>
<path clip-path="url(#clip250)" d="
M0 1600 L2400 1600 L2400 0 L0 0  Z
  " fill="#ffffff" fill-rule="evenodd" fill-opacity="1"/>
<defs>
  <clipPath id="clip251">
    <rect x="480" y="0" width="1681" height="1600"/>
  </clipPath>
</defs>
<path clip-path="url(#clip250)" d="
M358.746 1401.58 L2352.76 1401.58 L2352.76 123.472 L358.746 123.472  Z
  " fill="#ffffff" fill-rule="evenodd" fill-opacity="1"/>
<defs>
  <clipPath id="clip252">
    <rect x="358" y="123" width="1995" height="1279"/>
  </clipPath>
</defs>
<polyline clip-path="url(#clip252)" style="stroke:#000000; stroke-linecap:round; stroke-linejoin:round; stroke-width:2; stroke-opacity:0.1; fill:none" points="
  415.18,1401.58 415.18,123.472 
  "/>
<polyline clip-path="url(#clip252)" style="stroke:#000000; stroke-linecap:round; stroke-linejoin:round; stroke-width:2; stroke-opacity:0.1; fill:none" points="
  885.465,1401.58 885.465,123.472 
  "/>
<polyline clip-path="url(#clip252)" style="stroke:#000000; stroke-linecap:round; stroke-linejoin:round; stroke-width:2; stroke-opacity:0.1; fill:none" points="
  1355.75,1401.58 1355.75,123.472 
  "/>
<polyline clip-path="url(#clip252)" style="stroke:#000000; stroke-linecap:round; stroke-linejoin:round; stroke-width:2; stroke-opacity:0.1; fill:none" points="
  1826.04,1401.58 1826.04,123.472 
  "/>
<polyline clip-path="url(#clip252)" style="stroke:#000000; stroke-linecap:round; stroke-linejoin:round; stroke-width:2; stroke-opacity:0.1; fill:none" points="
  2296.32,1401.58 2296.32,123.472 
  "/>
<polyline clip-path="url(#clip250)" style="stroke:#000000; stroke-linecap:round; stroke-linejoin:round; stroke-width:4; stroke-opacity:1; fill:none" points="
  358.746,1401.58 2352.76,1401.58 
  "/>
<polyline clip-path="url(#clip250)" style="stroke:#000000; stroke-linecap:round; stroke-linejoin:round; stroke-width:4; stroke-opacity:1; fill:none" points="
  415.18,1401.58 415.18,1382.68 
  "/>
<polyline clip-path="url(#clip250)" style="stroke:#000000; stroke-linecap:round; stroke-linejoin:round; stroke-width:4; stroke-opacity:1; fill:none" points="
  885.465,1401.58 885.465,1382.68 
  "/>
<polyline clip-path="url(#clip250)" style="stroke:#000000; stroke-linecap:round; stroke-linejoin:round; stroke-width:4; stroke-opacity:1; fill:none" points="
  1355.75,1401.58 1355.75,1382.68 
  "/>
<polyline clip-path="url(#clip250)" style="stroke:#000000; stroke-linecap:round; stroke-linejoin:round; stroke-width:4; stroke-opacity:1; fill:none" points="
  1826.04,1401.58 1826.04,1382.68 
  "/>
<polyline clip-path="url(#clip250)" style="stroke:#000000; stroke-linecap:round; stroke-linejoin:round; stroke-width:4; stroke-opacity:1; fill:none" points="
  2296.32,1401.58 2296.32,1382.68 
  "/>
<path clip-path="url(#clip250)" d="M415.18 1438.36 Q409.763 1438.36 407.02 1443.71 Q404.312 1449.02 404.312 1459.71 Q404.312 1470.37 407.02 1475.72 Q409.763 1481.03 415.18 1481.03 Q420.631 1481.03 423.34 1475.72 Q426.083 1470.37 426.083 1459.71 Q426.083 1449.02 423.34 1443.71 Q420.631 1438.36 415.18 1438.36 M415.18 1432.8 Q423.895 1432.8 428.479 1439.71 Q433.097 1446.59 433.097 1459.71 Q433.097 1472.8 428.479 1479.71 Q423.895 1486.59 415.18 1486.59 Q406.465 1486.59 401.847 1479.71 Q397.263 1472.8 397.263 1459.71 Q397.263 1446.59 401.847 1439.71 Q406.465 1432.8 415.18 1432.8 Z" fill="#000000" fill-rule="evenodd" fill-opacity="1" /><path clip-path="url(#clip250)" d="M871.038 1479.68 L882.497 1479.68 L882.497 1440.13 L870.031 1442.63 L870.031 1436.24 L882.427 1433.74 L889.441 1433.74 L889.441 1479.68 L900.899 1479.68 L900.899 1485.58 L871.038 1485.58 L871.038 1479.68 Z" fill="#000000" fill-rule="evenodd" fill-opacity="1" /><path clip-path="url(#clip250)" d="M1347.73 1479.68 L1372.21 1479.68 L1372.21 1485.58 L1339.29 1485.58 L1339.29 1479.68 Q1343.29 1475.55 1350.16 1468.6 Q1357.07 1461.62 1358.84 1459.61 Q1362.21 1455.82 1363.53 1453.22 Q1364.88 1450.58 1364.88 1448.05 Q1364.88 1443.91 1361.97 1441.31 Q1359.08 1438.71 1354.43 1438.71 Q1351.13 1438.71 1347.45 1439.85 Q1343.81 1441 1339.64 1443.32 L1339.64 1436.24 Q1343.88 1434.54 1347.56 1433.67 Q1351.24 1432.8 1354.29 1432.8 Q1362.35 1432.8 1367.14 1436.83 Q1371.93 1440.86 1371.93 1447.59 Q1371.93 1450.79 1370.72 1453.67 Q1369.54 1456.52 1366.38 1460.41 Q1365.51 1461.41 1360.85 1466.24 Q1356.2 1471.03 1347.73 1479.68 Z" fill="#000000" fill-rule="evenodd" fill-opacity="1" /><path clip-path="url(#clip250)" d="M1832.41 1457.63 Q1837.44 1458.7 1840.25 1462.11 Q1843.1 1465.51 1843.1 1470.51 Q1843.1 1478.18 1837.82 1482.39 Q1832.55 1486.59 1822.82 1486.59 Q1819.56 1486.59 1816.09 1485.93 Q1812.65 1485.3 1808.97 1484.02 L1808.97 1477.25 Q1811.89 1478.95 1815.36 1479.82 Q1818.83 1480.68 1822.62 1480.68 Q1829.21 1480.68 1832.65 1478.08 Q1836.12 1475.48 1836.12 1470.51 Q1836.12 1465.93 1832.89 1463.36 Q1829.7 1460.75 1823.97 1460.75 L1817.93 1460.75 L1817.93 1454.99 L1824.25 1454.99 Q1829.42 1454.99 1832.16 1452.94 Q1834.91 1450.86 1834.91 1446.97 Q1834.91 1442.98 1832.06 1440.86 Q1829.25 1438.71 1823.97 1438.71 Q1821.09 1438.71 1817.79 1439.33 Q1814.49 1439.96 1810.53 1441.27 L1810.53 1435.02 Q1814.53 1433.91 1818 1433.36 Q1821.51 1432.8 1824.6 1432.8 Q1832.58 1432.8 1837.23 1436.45 Q1841.89 1440.06 1841.89 1446.24 Q1841.89 1450.55 1839.42 1453.53 Q1836.96 1456.48 1832.41 1457.63 Z" fill="#000000" fill-rule="evenodd" fill-opacity="1" /><path clip-path="url(#clip250)" d="M2300.84 1439.85 L2283.13 1467.52 L2300.84 1467.52 L2300.84 1439.85 M2299 1433.74 L2307.81 1433.74 L2307.81 1467.52 L2315.21 1467.52 L2315.21 1473.36 L2307.81 1473.36 L2307.81 1485.58 L2300.84 1485.58 L2300.84 1473.36 L2277.43 1473.36 L2277.43 1466.59 L2299 1433.74 Z" fill="#000000" fill-rule="evenodd" fill-opacity="1" /><path clip-path="url(#clip250)" d="M1299.36 1527.62 L1299.36 1538.66 L1312.52 1538.66 L1312.52 1543.62 L1299.36 1543.62 L1299.36 1564.74 Q1299.36 1569.49 1300.65 1570.85 Q1301.97 1572.2 1305.96 1572.2 L1312.52 1572.2 L1312.52 1577.55 L1305.96 1577.55 Q1298.56 1577.55 1295.75 1574.8 Q1292.94 1572.03 1292.94 1564.74 L1292.94 1543.62 L1288.25 1543.62 L1288.25 1538.66 L1292.94 1538.66 L1292.94 1527.62 L1299.36 1527.62 Z" fill="#000000" fill-rule="evenodd" fill-opacity="1" /><path clip-path="url(#clip250)" d="M1342.94 1523.52 L1357.66 1523.52 L1357.66 1528.49 L1349.33 1528.49 L1349.33 1581.96 L1357.66 1581.96 L1357.66 1586.92 L1342.94 1586.92 L1342.94 1523.52 Z" fill="#000000" fill-rule="evenodd" fill-opacity="1" /><path clip-path="url(#clip250)" d="M1396.06 1539.8 L1396.06 1545.85 Q1393.35 1544.46 1390.44 1543.76 Q1387.52 1543.07 1384.4 1543.07 Q1379.64 1543.07 1377.24 1544.53 Q1374.88 1545.99 1374.88 1548.9 Q1374.88 1551.12 1376.58 1552.41 Q1378.29 1553.66 1383.42 1554.8 L1385.61 1555.29 Q1392.42 1556.75 1395.26 1559.42 Q1398.15 1562.06 1398.15 1566.82 Q1398.15 1572.24 1393.84 1575.4 Q1389.57 1578.55 1382.07 1578.55 Q1378.95 1578.55 1375.54 1577.93 Q1372.17 1577.34 1368.42 1576.12 L1368.42 1569.53 Q1371.97 1571.37 1375.4 1572.3 Q1378.84 1573.21 1382.21 1573.21 Q1386.72 1573.21 1389.15 1571.68 Q1391.58 1570.12 1391.58 1567.3 Q1391.58 1564.7 1389.81 1563.31 Q1388.08 1561.92 1382.14 1560.64 L1379.92 1560.12 Q1373.98 1558.87 1371.34 1556.3 Q1368.7 1553.69 1368.7 1549.18 Q1368.7 1543.69 1372.59 1540.71 Q1376.48 1537.72 1383.63 1537.72 Q1387.17 1537.72 1390.3 1538.24 Q1393.42 1538.76 1396.06 1539.8 Z" fill="#000000" fill-rule="evenodd" fill-opacity="1" /><path clip-path="url(#clip250)" d="M1423.25 1523.52 L1423.25 1586.92 L1408.53 1586.92 L1408.53 1581.96 L1416.83 1581.96 L1416.83 1528.49 L1408.53 1528.49 L1408.53 1523.52 L1423.25 1523.52 Z" fill="#000000" fill-rule="evenodd" fill-opacity="1" /><polyline clip-path="url(#clip252)" style="stroke:#000000; stroke-linecap:round; stroke-linejoin:round; stroke-width:2; stroke-opacity:0.1; fill:none" points="
  358.746,1119.01 2352.76,1119.01 
  "/>
<polyline clip-path="url(#clip252)" style="stroke:#000000; stroke-linecap:round; stroke-linejoin:round; stroke-width:2; stroke-opacity:0.1; fill:none" points="
  358.746,799.22 2352.76,799.22 
  "/>
<polyline clip-path="url(#clip252)" style="stroke:#000000; stroke-linecap:round; stroke-linejoin:round; stroke-width:2; stroke-opacity:0.1; fill:none" points="
  358.746,479.432 2352.76,479.432 
  "/>
<polyline clip-path="url(#clip252)" style="stroke:#000000; stroke-linecap:round; stroke-linejoin:round; stroke-width:2; stroke-opacity:0.1; fill:none" points="
  358.746,159.645 2352.76,159.645 
  "/>
<polyline clip-path="url(#clip250)" style="stroke:#000000; stroke-linecap:round; stroke-linejoin:round; stroke-width:4; stroke-opacity:1; fill:none" points="
  358.746,1401.58 358.746,123.472 
  "/>
<polyline clip-path="url(#clip250)" style="stroke:#000000; stroke-linecap:round; stroke-linejoin:round; stroke-width:4; stroke-opacity:1; fill:none" points="
  358.746,1119.01 377.643,1119.01 
  "/>
<polyline clip-path="url(#clip250)" style="stroke:#000000; stroke-linecap:round; stroke-linejoin:round; stroke-width:4; stroke-opacity:1; fill:none" points="
  358.746,799.22 377.643,799.22 
  "/>
<polyline clip-path="url(#clip250)" style="stroke:#000000; stroke-linecap:round; stroke-linejoin:round; stroke-width:4; stroke-opacity:1; fill:none" points="
  358.746,479.432 377.643,479.432 
  "/>
<polyline clip-path="url(#clip250)" style="stroke:#000000; stroke-linecap:round; stroke-linejoin:round; stroke-width:4; stroke-opacity:1; fill:none" points="
  358.746,159.645 377.643,159.645 
  "/>
<path clip-path="url(#clip250)" d="M118.58 1119.68 L163.094 1119.68 L163.094 1125.59 L118.58 1125.59 L118.58 1119.68 Z" fill="#000000" fill-rule="evenodd" fill-opacity="1" /><path clip-path="url(#clip250)" d="M193.233 1097.71 Q187.816 1097.71 185.073 1103.05 Q182.365 1108.36 182.365 1119.06 Q182.365 1129.72 185.073 1135.07 Q187.816 1140.38 193.233 1140.38 Q198.684 1140.38 201.392 1135.07 Q204.135 1129.72 204.135 1119.06 Q204.135 1108.36 201.392 1103.05 Q198.684 1097.71 193.233 1097.71 M193.233 1092.15 Q201.948 1092.15 206.531 1099.06 Q211.149 1105.93 211.149 1119.06 Q211.149 1132.15 206.531 1139.06 Q201.948 1145.93 193.233 1145.93 Q184.517 1145.93 179.899 1139.06 Q175.316 1132.15 175.316 1119.06 Q175.316 1105.93 179.899 1099.06 Q184.517 1092.15 193.233 1092.15 Z" fill="#000000" fill-rule="evenodd" fill-opacity="1" /><path clip-path="url(#clip250)" d="M223.475 1136.11 L230.802 1136.11 L230.802 1144.93 L223.475 1144.93 L223.475 1136.11 Z" fill="#000000" fill-rule="evenodd" fill-opacity="1" /><path clip-path="url(#clip250)" d="M261.079 1097.71 Q255.663 1097.71 252.92 1103.05 Q250.211 1108.36 250.211 1119.06 Q250.211 1129.72 252.92 1135.07 Q255.663 1140.38 261.079 1140.38 Q266.531 1140.38 269.239 1135.07 Q271.982 1129.72 271.982 1119.06 Q271.982 1108.36 269.239 1103.05 Q266.531 1097.71 261.079 1097.71 M261.079 1092.15 Q269.795 1092.15 274.378 1099.06 Q278.996 1105.93 278.996 1119.06 Q278.996 1132.15 274.378 1139.06 Q269.795 1145.93 261.079 1145.93 Q252.364 1145.93 247.746 1139.06 Q243.163 1132.15 243.163 1119.06 Q243.163 1105.93 247.746 1099.06 Q252.364 1092.15 261.079 1092.15 Z" fill="#000000" fill-rule="evenodd" fill-opacity="1" /><path clip-path="url(#clip250)" d="M291.392 1093.09 L318.926 1093.09 L318.926 1098.99 L297.815 1098.99 L297.815 1111.7 Q299.343 1111.18 300.871 1110.93 Q302.399 1110.66 303.926 1110.66 Q312.607 1110.66 317.676 1115.41 Q322.746 1120.17 322.746 1128.3 Q322.746 1136.66 317.537 1141.32 Q312.329 1145.93 302.85 1145.93 Q299.586 1145.93 296.183 1145.38 Q292.815 1144.82 289.204 1143.71 L289.204 1136.66 Q292.329 1138.36 295.663 1139.2 Q298.996 1140.03 302.711 1140.03 Q308.718 1140.03 312.225 1136.87 Q315.732 1133.71 315.732 1128.3 Q315.732 1122.88 312.225 1119.72 Q308.718 1116.56 302.711 1116.56 Q299.899 1116.56 297.086 1117.18 Q294.308 1117.81 291.392 1119.13 L291.392 1093.09 Z" fill="#000000" fill-rule="evenodd" fill-opacity="1" /><path clip-path="url(#clip250)" d="M191.739 777.918 Q186.323 777.918 183.58 783.265 Q180.871 788.577 180.871 799.272 Q180.871 809.931 183.58 815.279 Q186.323 820.591 191.739 820.591 Q197.191 820.591 199.899 815.279 Q202.642 809.931 202.642 799.272 Q202.642 788.577 199.899 783.265 Q197.191 777.918 191.739 777.918 M191.739 772.362 Q200.455 772.362 205.038 779.272 Q209.656 786.147 209.656 799.272 Q209.656 812.362 205.038 819.272 Q200.455 826.147 191.739 826.147 Q183.024 826.147 178.406 819.272 Q173.823 812.362 173.823 799.272 Q173.823 786.147 178.406 779.272 Q183.024 772.362 191.739 772.362 Z" fill="#000000" fill-rule="evenodd" fill-opacity="1" /><path clip-path="url(#clip250)" d="M221.982 816.32 L229.309 816.32 L229.309 825.14 L221.982 825.14 L221.982 816.32 Z" fill="#000000" fill-rule="evenodd" fill-opacity="1" /><path clip-path="url(#clip250)" d="M259.586 777.918 Q254.17 777.918 251.427 783.265 Q248.718 788.577 248.718 799.272 Q248.718 809.931 251.427 815.279 Q254.17 820.591 259.586 820.591 Q265.038 820.591 267.746 815.279 Q270.489 809.931 270.489 799.272 Q270.489 788.577 267.746 783.265 Q265.038 777.918 259.586 777.918 M259.586 772.362 Q268.302 772.362 272.885 779.272 Q277.503 786.147 277.503 799.272 Q277.503 812.362 272.885 819.272 Q268.302 826.147 259.586 826.147 Q250.871 826.147 246.253 819.272 Q241.67 812.362 241.67 799.272 Q241.67 786.147 246.253 779.272 Q250.871 772.362 259.586 772.362 Z" fill="#000000" fill-rule="evenodd" fill-opacity="1" /><path clip-path="url(#clip250)" d="M304.829 777.918 Q299.413 777.918 296.669 783.265 Q293.961 788.577 293.961 799.272 Q293.961 809.931 296.669 815.279 Q299.413 820.591 304.829 820.591 Q310.281 820.591 312.989 815.279 Q315.732 809.931 315.732 799.272 Q315.732 788.577 312.989 783.265 Q310.281 777.918 304.829 777.918 M304.829 772.362 Q313.544 772.362 318.128 779.272 Q322.746 786.147 322.746 799.272 Q322.746 812.362 318.128 819.272 Q313.544 826.147 304.829 826.147 Q296.114 826.147 291.496 819.272 Q286.913 812.362 286.913 799.272 Q286.913 786.147 291.496 779.272 Q296.114 772.362 304.829 772.362 Z" fill="#000000" fill-rule="evenodd" fill-opacity="1" /><path clip-path="url(#clip250)" d="M193.233 458.13 Q187.816 458.13 185.073 463.478 Q182.365 468.79 182.365 479.484 Q182.365 490.144 185.073 495.491 Q187.816 500.804 193.233 500.804 Q198.684 500.804 201.392 495.491 Q204.135 490.144 204.135 479.484 Q204.135 468.79 201.392 463.478 Q198.684 458.13 193.233 458.13 M193.233 452.575 Q201.948 452.575 206.531 459.485 Q211.149 466.359 211.149 479.484 Q211.149 492.575 206.531 499.484 Q201.948 506.359 193.233 506.359 Q184.517 506.359 179.899 499.484 Q175.316 492.575 175.316 479.484 Q175.316 466.359 179.899 459.485 Q184.517 452.575 193.233 452.575 Z" fill="#000000" fill-rule="evenodd" fill-opacity="1" /><path clip-path="url(#clip250)" d="M223.475 496.533 L230.802 496.533 L230.802 505.352 L223.475 505.352 L223.475 496.533 Z" fill="#000000" fill-rule="evenodd" fill-opacity="1" /><path clip-path="url(#clip250)" d="M261.079 458.13 Q255.663 458.13 252.92 463.478 Q250.211 468.79 250.211 479.484 Q250.211 490.144 252.92 495.491 Q255.663 500.804 261.079 500.804 Q266.531 500.804 269.239 495.491 Q271.982 490.144 271.982 479.484 Q271.982 468.79 269.239 463.478 Q266.531 458.13 261.079 458.13 M261.079 452.575 Q269.795 452.575 274.378 459.485 Q278.996 466.359 278.996 479.484 Q278.996 492.575 274.378 499.484 Q269.795 506.359 261.079 506.359 Q252.364 506.359 247.746 499.484 Q243.163 492.575 243.163 479.484 Q243.163 466.359 247.746 459.485 Q252.364 452.575 261.079 452.575 Z" fill="#000000" fill-rule="evenodd" fill-opacity="1" /><path clip-path="url(#clip250)" d="M291.392 453.512 L318.926 453.512 L318.926 459.415 L297.815 459.415 L297.815 472.123 Q299.343 471.602 300.871 471.359 Q302.399 471.082 303.926 471.082 Q312.607 471.082 317.676 475.839 Q322.746 480.596 322.746 488.72 Q322.746 497.088 317.537 501.741 Q312.329 506.359 302.85 506.359 Q299.586 506.359 296.183 505.804 Q292.815 505.248 289.204 504.137 L289.204 497.088 Q292.329 498.79 295.663 499.623 Q298.996 500.457 302.711 500.457 Q308.718 500.457 312.225 497.297 Q315.732 494.137 315.732 488.72 Q315.732 483.304 312.225 480.144 Q308.718 476.984 302.711 476.984 Q299.899 476.984 297.086 477.609 Q294.308 478.234 291.392 479.554 L291.392 453.512 Z" fill="#000000" fill-rule="evenodd" fill-opacity="1" /><path clip-path="url(#clip250)" d="M191.739 138.343 Q186.323 138.343 183.58 143.69 Q180.871 149.003 180.871 159.697 Q180.871 170.357 183.58 175.704 Q186.323 181.016 191.739 181.016 Q197.191 181.016 199.899 175.704 Q202.642 170.357 202.642 159.697 Q202.642 149.003 199.899 143.69 Q197.191 138.343 191.739 138.343 M191.739 132.787 Q200.455 132.787 205.038 139.697 Q209.656 146.572 209.656 159.697 Q209.656 172.787 205.038 179.697 Q200.455 186.572 191.739 186.572 Q183.024 186.572 178.406 179.697 Q173.823 172.787 173.823 159.697 Q173.823 146.572 178.406 139.697 Q183.024 132.787 191.739 132.787 Z" fill="#000000" fill-rule="evenodd" fill-opacity="1" /><path clip-path="url(#clip250)" d="M221.982 176.746 L229.309 176.746 L229.309 185.565 L221.982 185.565 L221.982 176.746 Z" fill="#000000" fill-rule="evenodd" fill-opacity="1" /><path clip-path="url(#clip250)" d="M245.802 179.662 L257.26 179.662 L257.26 140.114 L244.795 142.614 L244.795 136.225 L257.191 133.725 L264.204 133.725 L264.204 179.662 L275.663 179.662 L275.663 185.565 L245.802 185.565 L245.802 179.662 Z" fill="#000000" fill-rule="evenodd" fill-opacity="1" /><path clip-path="url(#clip250)" d="M304.829 138.343 Q299.413 138.343 296.669 143.69 Q293.961 149.003 293.961 159.697 Q293.961 170.357 296.669 175.704 Q299.413 181.016 304.829 181.016 Q310.281 181.016 312.989 175.704 Q315.732 170.357 315.732 159.697 Q315.732 149.003 312.989 143.69 Q310.281 138.343 304.829 138.343 M304.829 132.787 Q313.544 132.787 318.128 139.697 Q322.746 146.572 322.746 159.697 Q322.746 172.787 318.128 179.697 Q313.544 186.572 304.829 186.572 Q296.114 186.572 291.496 179.697 Q286.913 172.787 286.913 159.697 Q286.913 146.572 291.496 139.697 Q296.114 132.787 304.829 132.787 Z" fill="#000000" fill-rule="evenodd" fill-opacity="1" /><path clip-path="url(#clip250)" d="M34.0422 1042.44 L13.0007 1042.44 L13.0007 1036.05 L67.0282 1036.05 L67.0282 1042.44 L61.1949 1042.44 Q64.6671 1044.45 66.3684 1047.54 Q68.0351 1050.6 68.0351 1054.9 Q68.0351 1061.95 62.4101 1066.4 Q56.7852 1070.81 47.6185 1070.81 Q38.4519 1070.81 32.827 1066.4 Q27.202 1061.95 27.202 1054.9 Q27.202 1050.6 28.9034 1047.54 Q30.57 1044.45 34.0422 1042.44 M47.6185 1064.21 Q54.6671 1064.21 58.6949 1061.33 Q62.6879 1058.41 62.6879 1053.34 Q62.6879 1048.27 58.6949 1045.35 Q54.6671 1042.44 47.6185 1042.44 Q40.57 1042.44 36.5769 1045.35 Q32.5492 1048.27 32.5492 1053.34 Q32.5492 1058.41 36.5769 1061.33 Q40.57 1064.21 47.6185 1064.21 Z" fill="#000000" fill-rule="evenodd" fill-opacity="1" /><path clip-path="url(#clip250)" d="M28.1395 1022.89 L28.1395 1016.5 L67.0282 1016.5 L67.0282 1022.89 L28.1395 1022.89 M13.0007 1022.89 L13.0007 1016.5 L21.0909 1016.5 L21.0909 1022.89 L13.0007 1022.89 Z" fill="#000000" fill-rule="evenodd" fill-opacity="1" /><path clip-path="url(#clip250)" d="M29.2853 978.341 L35.3269 978.341 Q33.9381 981.049 33.2436 983.966 Q32.5492 986.882 32.5492 990.007 Q32.5492 994.764 34.0075 997.16 Q35.4658 999.521 38.3825 999.521 Q40.6047 999.521 41.8894 997.82 Q43.1394 996.118 44.2852 990.98 L44.7713 988.792 Q46.2297 981.987 48.9033 979.139 Q51.5421 976.257 56.299 976.257 Q61.7157 976.257 64.8754 980.563 Q68.0351 984.834 68.0351 992.334 Q68.0351 995.459 67.4101 998.862 Q66.8198 1002.23 65.6046 1005.98 L59.0074 1005.98 Q60.8476 1002.44 61.7851 999 Q62.6879 995.563 62.6879 992.195 Q62.6879 987.681 61.1601 985.25 Q59.5976 982.82 56.7852 982.82 Q54.181 982.82 52.7921 984.591 Q51.4032 986.327 50.1185 992.264 L49.5977 994.487 Q48.3477 1000.42 45.7783 1003.06 Q43.1741 1005.7 38.6603 1005.7 Q33.1742 1005.7 30.1881 1001.81 Q27.202 997.924 27.202 990.771 Q27.202 987.23 27.7228 984.105 Q28.2436 980.98 29.2853 978.341 Z" fill="#000000" fill-rule="evenodd" fill-opacity="1" /><path clip-path="url(#clip250)" d="M61.1949 959.903 L81.8197 959.903 L81.8197 966.327 L28.1395 966.327 L28.1395 959.903 L34.0422 959.903 Q30.57 957.89 28.9034 954.834 Q27.202 951.744 27.202 947.473 Q27.202 940.39 32.827 935.98 Q38.4519 931.535 47.6185 931.535 Q56.7852 931.535 62.4101 935.98 Q68.0351 940.39 68.0351 947.473 Q68.0351 951.744 66.3684 954.834 Q64.6671 957.89 61.1949 959.903 M47.6185 938.167 Q40.57 938.167 36.5769 941.084 Q32.5492 943.966 32.5492 949.035 Q32.5492 954.105 36.5769 957.021 Q40.57 959.903 47.6185 959.903 Q54.6671 959.903 58.6949 957.021 Q62.6879 954.105 62.6879 949.035 Q62.6879 943.966 58.6949 941.084 Q54.6671 938.167 47.6185 938.167 Z" fill="#000000" fill-rule="evenodd" fill-opacity="1" /><path clip-path="url(#clip250)" d="M13.0007 920.945 L13.0007 914.556 L67.0282 914.556 L67.0282 920.945 L13.0007 920.945 Z" fill="#000000" fill-rule="evenodd" fill-opacity="1" /><path clip-path="url(#clip250)" d="M47.4797 883.515 Q47.4797 891.258 49.2505 894.244 Q51.0213 897.23 55.2921 897.23 Q58.6949 897.23 60.7087 895.008 Q62.6879 892.751 62.6879 888.897 Q62.6879 883.584 58.9379 880.39 Q55.1532 877.161 48.9033 877.161 L47.4797 877.161 L47.4797 883.515 M44.8408 870.772 L67.0282 870.772 L67.0282 877.161 L61.1254 877.161 Q64.6671 879.348 66.3684 882.612 Q68.0351 885.876 68.0351 890.598 Q68.0351 896.57 64.7018 900.112 Q61.3337 903.619 55.7088 903.619 Q49.1463 903.619 45.813 899.244 Q42.4797 894.834 42.4797 886.119 L42.4797 877.161 L41.8547 877.161 Q37.445 877.161 35.0492 880.077 Q32.6186 882.959 32.6186 888.202 Q32.6186 891.536 33.4172 894.695 Q34.2158 897.855 35.813 900.772 L29.9103 900.772 Q28.5561 897.265 27.8964 893.966 Q27.202 890.668 27.202 887.543 Q27.202 879.105 31.577 874.939 Q35.9519 870.772 44.8408 870.772 Z" fill="#000000" fill-rule="evenodd" fill-opacity="1" /><path clip-path="url(#clip250)" d="M29.6325 829.626 L35.6047 829.626 Q34.1117 832.335 33.3825 835.078 Q32.6186 837.786 32.6186 840.564 Q32.6186 846.779 36.5769 850.216 Q40.5005 853.654 47.6185 853.654 Q54.7366 853.654 58.6949 850.216 Q62.6185 846.779 62.6185 840.564 Q62.6185 837.786 61.8893 835.078 Q61.1254 832.335 59.6324 829.626 L65.5351 829.626 Q66.7851 832.3 67.4101 835.182 Q68.0351 838.029 68.0351 841.258 Q68.0351 850.043 62.5143 855.216 Q56.9935 860.39 47.6185 860.39 Q38.1047 860.39 32.6533 855.182 Q27.202 849.939 27.202 840.842 Q27.202 837.89 27.827 835.078 Q28.4173 832.265 29.6325 829.626 Z" fill="#000000" fill-rule="evenodd" fill-opacity="1" /><path clip-path="url(#clip250)" d="M45.9866 785.252 L49.1116 785.252 L49.1116 814.626 Q55.7088 814.21 59.181 810.668 Q62.6185 807.092 62.6185 800.738 Q62.6185 797.057 61.7157 793.62 Q60.8129 790.147 59.0074 786.745 L65.049 786.745 Q66.5073 790.182 67.2712 793.793 Q68.0351 797.404 68.0351 801.12 Q68.0351 810.425 62.6185 815.876 Q57.2018 821.293 47.9658 821.293 Q38.4172 821.293 32.827 816.154 Q27.202 810.981 27.202 802.231 Q27.202 794.383 32.2714 789.835 Q37.3061 785.252 45.9866 785.252 M44.1116 791.64 Q38.8686 791.71 35.7436 794.592 Q32.6186 797.439 32.6186 802.161 Q32.6186 807.508 35.6394 810.738 Q38.6603 813.932 44.1463 814.418 L44.1116 791.64 Z" fill="#000000" fill-rule="evenodd" fill-opacity="1" /><path clip-path="url(#clip250)" d="M35.6047 744.488 Q31.2992 742.092 29.2506 738.759 Q27.202 735.425 27.202 730.912 Q27.202 724.835 31.4728 721.537 Q35.7089 718.238 43.5561 718.238 L67.0282 718.238 L67.0282 724.662 L43.7644 724.662 Q38.1741 724.662 35.4658 726.641 Q32.7575 728.62 32.7575 732.682 Q32.7575 737.648 36.0561 740.53 Q39.3547 743.412 45.0491 743.412 L67.0282 743.412 L67.0282 749.835 L43.7644 749.835 Q38.1394 749.835 35.4658 751.814 Q32.7575 753.793 32.7575 757.925 Q32.7575 762.821 36.0908 765.703 Q39.3894 768.585 45.0491 768.585 L67.0282 768.585 L67.0282 775.009 L28.1395 775.009 L28.1395 768.585 L34.1811 768.585 Q30.6047 766.397 28.9034 763.342 Q27.202 760.286 27.202 756.085 Q27.202 751.849 29.3547 748.898 Q31.5075 745.911 35.6047 744.488 Z" fill="#000000" fill-rule="evenodd" fill-opacity="1" /><path clip-path="url(#clip250)" d="M45.9866 672.231 L49.1116 672.231 L49.1116 701.606 Q55.7088 701.19 59.181 697.648 Q62.6185 694.071 62.6185 687.717 Q62.6185 684.037 61.7157 680.599 Q60.8129 677.127 59.0074 673.724 L65.049 673.724 Q66.5073 677.162 67.2712 680.773 Q68.0351 684.384 68.0351 688.099 Q68.0351 697.405 62.6185 702.856 Q57.2018 708.273 47.9658 708.273 Q38.4172 708.273 32.827 703.134 Q27.202 697.96 27.202 689.21 Q27.202 681.363 32.2714 676.815 Q37.3061 672.231 45.9866 672.231 M44.1116 678.62 Q38.8686 678.69 35.7436 681.572 Q32.6186 684.419 32.6186 689.141 Q32.6186 694.488 35.6394 697.717 Q38.6603 700.912 44.1463 701.398 L44.1116 678.62 Z" fill="#000000" fill-rule="evenodd" fill-opacity="1" /><path clip-path="url(#clip250)" d="M43.5561 629.419 L67.0282 629.419 L67.0282 635.808 L43.7644 635.808 Q38.2436 635.808 35.5005 637.961 Q32.7575 640.113 32.7575 644.419 Q32.7575 649.593 36.0561 652.579 Q39.3547 655.565 45.0491 655.565 L67.0282 655.565 L67.0282 661.988 L28.1395 661.988 L28.1395 655.565 L34.1811 655.565 Q30.6742 653.273 28.9381 650.183 Q27.202 647.058 27.202 642.995 Q27.202 636.294 31.3686 632.857 Q35.5005 629.419 43.5561 629.419 Z" fill="#000000" fill-rule="evenodd" fill-opacity="1" /><path clip-path="url(#clip250)" d="M17.0979 610.357 L28.1395 610.357 L28.1395 597.197 L33.1047 597.197 L33.1047 610.357 L54.2157 610.357 Q58.9726 610.357 60.3268 609.072 Q61.681 607.753 61.681 603.759 L61.681 597.197 L67.0282 597.197 L67.0282 603.759 Q67.0282 611.155 64.2851 613.968 Q61.5074 616.78 54.2157 616.78 L33.1047 616.78 L33.1047 621.468 L28.1395 621.468 L28.1395 616.78 L17.0979 616.78 L17.0979 610.357 Z" fill="#000000" fill-rule="evenodd" fill-opacity="1" /><path clip-path="url(#clip250)" d="M13.0007 566.781 L13.0007 552.058 L17.9659 552.058 L17.9659 560.392 L71.4379 560.392 L71.4379 552.058 L76.4031 552.058 L76.4031 566.781 L13.0007 566.781 Z" fill="#000000" fill-rule="evenodd" fill-opacity="1" /><path clip-path="url(#clip250)" d="M35.6047 508.17 Q31.2992 505.774 29.2506 502.441 Q27.202 499.107 27.202 494.593 Q27.202 488.517 31.4728 485.218 Q35.7089 481.92 43.5561 481.92 L67.0282 481.92 L67.0282 488.343 L43.7644 488.343 Q38.1741 488.343 35.4658 490.323 Q32.7575 492.302 32.7575 496.364 Q32.7575 501.329 36.0561 504.211 Q39.3547 507.093 45.0491 507.093 L67.0282 507.093 L67.0282 513.517 L43.7644 513.517 Q38.1394 513.517 35.4658 515.496 Q32.7575 517.475 32.7575 521.607 Q32.7575 526.503 36.0908 529.385 Q39.3894 532.267 45.0491 532.267 L67.0282 532.267 L67.0282 538.69 L28.1395 538.69 L28.1395 532.267 L34.1811 532.267 Q30.6047 530.079 28.9034 527.024 Q27.202 523.968 27.202 519.767 Q27.202 515.531 29.3547 512.579 Q31.5075 509.593 35.6047 508.17 Z" fill="#000000" fill-rule="evenodd" fill-opacity="1" /><path clip-path="url(#clip250)" d="M13.0007 454.246 L76.4031 454.246 L76.4031 468.969 L71.4379 468.969 L71.4379 460.67 L17.9659 460.67 L17.9659 468.969 L13.0007 468.969 L13.0007 454.246 Z" fill="#000000" fill-rule="evenodd" fill-opacity="1" /><path clip-path="url(#clip250)" d="M905.067 18.8205 L905.067 65.8515 L914.952 65.8515 Q927.469 65.8515 933.262 60.1802 Q939.095 54.509 939.095 42.2752 Q939.095 30.1225 933.262 24.4918 Q927.469 18.8205 914.952 18.8205 L905.067 18.8205 M896.885 12.096 L913.696 12.096 Q931.277 12.096 939.5 19.4281 Q947.723 26.7198 947.723 42.2752 Q947.723 57.9117 939.46 65.2439 Q931.196 72.576 913.696 72.576 L896.885 72.576 L896.885 12.096 Z" fill="#000000" fill-rule="evenodd" fill-opacity="1" /><path clip-path="url(#clip250)" d="M960.443 27.2059 L967.897 27.2059 L967.897 72.576 L960.443 72.576 L960.443 27.2059 M960.443 9.54393 L967.897 9.54393 L967.897 18.9825 L960.443 18.9825 L960.443 9.54393 Z" fill="#000000" fill-rule="evenodd" fill-opacity="1" /><path clip-path="url(#clip250)" d="M1012.42 28.5427 L1012.42 35.5912 Q1009.26 33.9709 1005.85 33.1607 Q1002.45 32.3505 998.805 32.3505 Q993.256 32.3505 990.461 34.0519 Q987.706 35.7533 987.706 39.156 Q987.706 41.7486 989.691 43.2475 Q991.676 44.7058 997.671 46.0426 L1000.22 46.6097 Q1008.16 48.3111 1011.48 51.4303 Q1014.85 54.509 1014.85 60.0587 Q1014.85 66.3781 1009.82 70.0644 Q1004.84 73.7508 996.091 73.7508 Q992.445 73.7508 988.476 73.0216 Q984.546 72.3329 980.171 70.9151 L980.171 63.2184 Q984.303 65.3654 988.314 66.4591 Q992.324 67.5124 996.253 67.5124 Q1001.52 67.5124 1004.36 65.73 Q1007.19 63.9071 1007.19 60.6258 Q1007.19 57.5877 1005.12 55.9673 Q1003.1 54.3469 996.172 52.8481 L993.58 52.2405 Q986.653 50.7821 983.574 47.7845 Q980.495 44.7463 980.495 39.4801 Q980.495 33.0797 985.032 29.5959 Q989.569 26.1121 997.914 26.1121 Q1002.05 26.1121 1005.69 26.7198 Q1009.34 27.3274 1012.42 28.5427 Z" fill="#000000" fill-rule="evenodd" fill-opacity="1" /><path clip-path="url(#clip250)" d="M1033.93 65.7705 L1033.93 89.8329 L1026.43 89.8329 L1026.43 27.2059 L1033.93 27.2059 L1033.93 34.0924 Q1036.28 30.0415 1039.84 28.0971 Q1043.45 26.1121 1048.43 26.1121 Q1056.69 26.1121 1061.84 32.6746 Q1067.02 39.2371 1067.02 49.9314 Q1067.02 60.6258 1061.84 67.1883 Q1056.69 73.7508 1048.43 73.7508 Q1043.45 73.7508 1039.84 71.8063 Q1036.28 69.8214 1033.93 65.7705 M1059.29 49.9314 Q1059.29 41.7081 1055.88 37.0496 Q1052.52 32.3505 1046.61 32.3505 Q1040.69 32.3505 1037.29 37.0496 Q1033.93 41.7081 1033.93 49.9314 Q1033.93 58.1548 1037.29 62.8538 Q1040.69 67.5124 1046.61 67.5124 Q1052.52 67.5124 1055.88 62.8538 Q1059.29 58.1548 1059.29 49.9314 Z" fill="#000000" fill-rule="evenodd" fill-opacity="1" /><path clip-path="url(#clip250)" d="M1079.38 9.54393 L1086.83 9.54393 L1086.83 72.576 L1079.38 72.576 L1079.38 9.54393 Z" fill="#000000" fill-rule="evenodd" fill-opacity="1" /><path clip-path="url(#clip250)" d="M1123.05 49.7694 Q1114.01 49.7694 1110.53 51.8354 Q1107.05 53.9013 1107.05 58.8839 Q1107.05 62.8538 1109.64 65.2034 Q1112.27 67.5124 1116.77 67.5124 Q1122.97 67.5124 1126.69 63.1374 Q1130.46 58.7219 1130.46 51.4303 L1130.46 49.7694 L1123.05 49.7694 M1137.91 46.6907 L1137.91 72.576 L1130.46 72.576 L1130.46 65.6895 Q1127.91 69.8214 1124.1 71.8063 Q1120.29 73.7508 1114.78 73.7508 Q1107.82 73.7508 1103.68 69.8619 Q1099.59 65.9325 1099.59 59.3701 Q1099.59 51.7138 1104.7 47.825 Q1109.84 43.9361 1120.01 43.9361 L1130.46 43.9361 L1130.46 43.2069 Q1130.46 38.0623 1127.06 35.2672 Q1123.69 32.4315 1117.58 32.4315 Q1113.69 32.4315 1110 33.3632 Q1106.32 34.295 1102.91 36.1584 L1102.91 29.2718 Q1107.01 27.692 1110.85 26.9223 Q1114.7 26.1121 1118.35 26.1121 Q1128.19 26.1121 1133.05 31.2163 Q1137.91 36.3204 1137.91 46.6907 Z" fill="#000000" fill-rule="evenodd" fill-opacity="1" /><path clip-path="url(#clip250)" d="M1185.92 28.9478 L1185.92 35.9153 Q1182.76 34.1734 1179.56 33.3227 Q1176.4 32.4315 1173.16 32.4315 Q1165.91 32.4315 1161.89 37.0496 Q1157.88 41.6271 1157.88 49.9314 Q1157.88 58.2358 1161.89 62.8538 Q1165.91 67.4314 1173.16 67.4314 Q1176.4 67.4314 1179.56 66.5807 Q1182.76 65.6895 1185.92 63.9476 L1185.92 70.8341 Q1182.8 72.2924 1179.44 73.0216 Q1176.11 73.7508 1172.35 73.7508 Q1162.1 73.7508 1156.06 67.3098 Q1150.03 60.8689 1150.03 49.9314 Q1150.03 38.832 1156.1 32.472 Q1162.22 26.1121 1172.83 26.1121 Q1176.28 26.1121 1179.56 26.8413 Q1182.84 27.5299 1185.92 28.9478 Z" fill="#000000" fill-rule="evenodd" fill-opacity="1" /><path clip-path="url(#clip250)" d="M1237.69 48.0275 L1237.69 51.6733 L1203.42 51.6733 Q1203.9 59.3701 1208.03 63.421 Q1212.21 67.4314 1219.62 67.4314 Q1223.91 67.4314 1227.92 66.3781 Q1231.98 65.3249 1235.95 63.2184 L1235.95 70.267 Q1231.93 71.9684 1227.72 72.8596 Q1223.51 73.7508 1219.17 73.7508 Q1208.32 73.7508 1201.96 67.4314 Q1195.64 61.1119 1195.64 50.3365 Q1195.64 39.1965 1201.63 32.6746 Q1207.67 26.1121 1217.88 26.1121 Q1227.03 26.1121 1232.34 32.0264 Q1237.69 37.9003 1237.69 48.0275 M1230.23 45.84 Q1230.15 39.7232 1226.79 36.0774 Q1223.47 32.4315 1217.96 32.4315 Q1211.72 32.4315 1207.95 35.9558 Q1204.23 39.4801 1203.66 45.8805 L1230.23 45.84 Z" fill="#000000" fill-rule="evenodd" fill-opacity="1" /><path clip-path="url(#clip250)" d="M1285.24 35.9153 Q1288.04 30.8922 1291.93 28.5022 Q1295.82 26.1121 1301.08 26.1121 Q1308.17 26.1121 1312.02 31.0947 Q1315.87 36.0368 1315.87 45.1919 L1315.87 72.576 L1308.38 72.576 L1308.38 45.4349 Q1308.38 38.913 1306.07 35.7533 Q1303.76 32.5936 1299.02 32.5936 Q1293.23 32.5936 1289.86 36.4419 Q1286.5 40.2903 1286.5 46.9338 L1286.5 72.576 L1279.01 72.576 L1279.01 45.4349 Q1279.01 38.8725 1276.7 35.7533 Q1274.39 32.5936 1269.57 32.5936 Q1263.86 32.5936 1260.49 36.4824 Q1257.13 40.3308 1257.13 46.9338 L1257.13 72.576 L1249.64 72.576 L1249.64 27.2059 L1257.13 27.2059 L1257.13 34.2544 Q1259.68 30.082 1263.25 28.0971 Q1266.81 26.1121 1271.71 26.1121 Q1276.66 26.1121 1280.1 28.6237 Q1283.58 31.1352 1285.24 35.9153 Z" fill="#000000" fill-rule="evenodd" fill-opacity="1" /><path clip-path="url(#clip250)" d="M1369.54 48.0275 L1369.54 51.6733 L1335.27 51.6733 Q1335.76 59.3701 1339.89 63.421 Q1344.06 67.4314 1351.48 67.4314 Q1355.77 67.4314 1359.78 66.3781 Q1363.83 65.3249 1367.8 63.2184 L1367.8 70.267 Q1363.79 71.9684 1359.58 72.8596 Q1355.37 73.7508 1351.03 73.7508 Q1340.18 73.7508 1333.82 67.4314 Q1327.5 61.1119 1327.5 50.3365 Q1327.5 39.1965 1333.49 32.6746 Q1339.53 26.1121 1349.74 26.1121 Q1358.89 26.1121 1364.2 32.0264 Q1369.54 37.9003 1369.54 48.0275 M1362.09 45.84 Q1362.01 39.7232 1358.65 36.0774 Q1355.33 32.4315 1349.82 32.4315 Q1343.58 32.4315 1339.81 35.9558 Q1336.08 39.4801 1335.52 45.8805 L1362.09 45.84 Z" fill="#000000" fill-rule="evenodd" fill-opacity="1" /><path clip-path="url(#clip250)" d="M1419.49 45.1919 L1419.49 72.576 L1412.04 72.576 L1412.04 45.4349 Q1412.04 38.994 1409.53 35.7938 Q1407.02 32.5936 1401.99 32.5936 Q1395.96 32.5936 1392.47 36.4419 Q1388.99 40.2903 1388.99 46.9338 L1388.99 72.576 L1381.49 72.576 L1381.49 27.2059 L1388.99 27.2059 L1388.99 34.2544 Q1391.66 30.163 1395.27 28.1376 Q1398.91 26.1121 1403.65 26.1121 Q1411.47 26.1121 1415.48 30.9732 Q1419.49 35.7938 1419.49 45.1919 Z" fill="#000000" fill-rule="evenodd" fill-opacity="1" /><path clip-path="url(#clip250)" d="M1441.73 14.324 L1441.73 27.2059 L1457.08 27.2059 L1457.08 32.9987 L1441.73 32.9987 L1441.73 57.6282 Q1441.73 63.1779 1443.23 64.7578 Q1444.77 66.3376 1449.43 66.3376 L1457.08 66.3376 L1457.08 72.576 L1449.43 72.576 Q1440.8 72.576 1437.52 69.3758 Q1434.24 66.1351 1434.24 57.6282 L1434.24 32.9987 L1428.77 32.9987 L1428.77 27.2059 L1434.24 27.2059 L1434.24 14.324 L1441.73 14.324 Z" fill="#000000" fill-rule="evenodd" fill-opacity="1" /><path clip-path="url(#clip250)" d="M1528.58 35.9153 Q1531.38 30.8922 1535.27 28.5022 Q1539.16 26.1121 1544.42 26.1121 Q1551.51 26.1121 1555.36 31.0947 Q1559.21 36.0368 1559.21 45.1919 L1559.21 72.576 L1551.71 72.576 L1551.71 45.4349 Q1551.71 38.913 1549.4 35.7533 Q1547.1 32.5936 1542.36 32.5936 Q1536.56 32.5936 1533.2 36.4419 Q1529.84 40.2903 1529.84 46.9338 L1529.84 72.576 L1522.34 72.576 L1522.34 45.4349 Q1522.34 38.8725 1520.04 35.7533 Q1517.73 32.5936 1512.91 32.5936 Q1507.19 32.5936 1503.83 36.4824 Q1500.47 40.3308 1500.47 46.9338 L1500.47 72.576 L1492.98 72.576 L1492.98 27.2059 L1500.47 27.2059 L1500.47 34.2544 Q1503.02 30.082 1506.59 28.0971 Q1510.15 26.1121 1515.05 26.1121 Q1519.99 26.1121 1523.44 28.6237 Q1526.92 31.1352 1528.58 35.9153 Z" fill="#000000" fill-rule="evenodd" fill-opacity="1" /><path clip-path="url(#clip250)" d="M1591.66 32.4315 Q1585.66 32.4315 1582.18 37.1306 Q1578.69 41.7891 1578.69 49.9314 Q1578.69 58.0738 1582.14 62.7728 Q1585.62 67.4314 1591.66 67.4314 Q1597.61 67.4314 1601.09 62.7323 Q1604.58 58.0333 1604.58 49.9314 Q1604.58 41.8701 1601.09 37.1711 Q1597.61 32.4315 1591.66 32.4315 M1591.66 26.1121 Q1601.38 26.1121 1606.93 32.4315 Q1612.48 38.7509 1612.48 49.9314 Q1612.48 61.0714 1606.93 67.4314 Q1601.38 73.7508 1591.66 73.7508 Q1581.89 73.7508 1576.34 67.4314 Q1570.83 61.0714 1570.83 49.9314 Q1570.83 38.7509 1576.34 32.4315 Q1581.89 26.1121 1591.66 26.1121 Z" fill="#000000" fill-rule="evenodd" fill-opacity="1" /><path clip-path="url(#clip250)" d="M1654.69 34.0924 L1654.69 9.54393 L1662.14 9.54393 L1662.14 72.576 L1654.69 72.576 L1654.69 65.7705 Q1652.34 69.8214 1648.73 71.8063 Q1645.17 73.7508 1640.14 73.7508 Q1631.92 73.7508 1626.74 67.1883 Q1621.59 60.6258 1621.59 49.9314 Q1621.59 39.2371 1626.74 32.6746 Q1631.92 26.1121 1640.14 26.1121 Q1645.17 26.1121 1648.73 28.0971 Q1652.34 30.0415 1654.69 34.0924 M1629.29 49.9314 Q1629.29 58.1548 1632.65 62.8538 Q1636.05 67.5124 1641.97 67.5124 Q1647.88 67.5124 1651.28 62.8538 Q1654.69 58.1548 1654.69 49.9314 Q1654.69 41.7081 1651.28 37.0496 Q1647.88 32.3505 1641.97 32.3505 Q1636.05 32.3505 1632.65 37.0496 Q1629.29 41.7081 1629.29 49.9314 Z" fill="#000000" fill-rule="evenodd" fill-opacity="1" /><path clip-path="url(#clip250)" d="M1716.3 48.0275 L1716.3 51.6733 L1682.03 51.6733 Q1682.52 59.3701 1686.65 63.421 Q1690.82 67.4314 1698.23 67.4314 Q1702.53 67.4314 1706.54 66.3781 Q1710.59 65.3249 1714.56 63.2184 L1714.56 70.267 Q1710.55 71.9684 1706.34 72.8596 Q1702.12 73.7508 1697.79 73.7508 Q1686.93 73.7508 1680.57 67.4314 Q1674.25 61.1119 1674.25 50.3365 Q1674.25 39.1965 1680.25 32.6746 Q1686.28 26.1121 1696.49 26.1121 Q1705.65 26.1121 1710.95 32.0264 Q1716.3 37.9003 1716.3 48.0275 M1708.85 45.84 Q1708.77 39.7232 1705.4 36.0774 Q1702.08 32.4315 1696.57 32.4315 Q1690.34 32.4315 1686.57 35.9558 Q1682.84 39.4801 1682.27 45.8805 L1708.85 45.84 Z" fill="#000000" fill-rule="evenodd" fill-opacity="1" /><path clip-path="url(#clip250)" d="M1728.54 9.54393 L1735.99 9.54393 L1735.99 72.576 L1728.54 72.576 L1728.54 9.54393 Z" fill="#000000" fill-rule="evenodd" fill-opacity="1" /><path clip-path="url(#clip250)" d="M1786.06 65.6895 L1814.62 65.6895 L1814.62 72.576 L1776.21 72.576 L1776.21 65.6895 Q1780.87 60.8689 1788.89 52.7671 Q1796.96 44.6248 1799.02 42.2752 Q1802.95 37.8598 1804.49 34.8216 Q1806.07 31.7429 1806.07 28.7857 Q1806.07 23.9651 1802.67 20.927 Q1799.3 17.8888 1793.88 17.8888 Q1790.03 17.8888 1785.73 19.2256 Q1781.48 20.5624 1776.62 23.2765 L1776.62 15.0127 Q1781.56 13.0277 1785.86 12.015 Q1790.15 11.0023 1793.71 11.0023 Q1803.11 11.0023 1808.7 15.7013 Q1814.29 20.4004 1814.29 28.2591 Q1814.29 31.9859 1812.88 35.3482 Q1811.5 38.6699 1807.81 43.2069 Q1806.8 44.3817 1801.37 50.0125 Q1795.94 55.6027 1786.06 65.6895 Z" fill="#000000" fill-rule="evenodd" fill-opacity="1" /><polyline clip-path="url(#clip252)" style="stroke:#009af9; stroke-linecap:round; stroke-linejoin:round; stroke-width:8; stroke-opacity:1; fill:none" points="
  415.18,159.645 2296.32,159.645 
  "/>
<polyline clip-path="url(#clip252)" style="stroke:#e26f46; stroke-linecap:round; stroke-linejoin:round; stroke-width:8; stroke-opacity:1; fill:none" points="
  415.18,799.22 2296.32,799.22 
  "/>
<polyline clip-path="url(#clip252)" style="stroke:#008000; stroke-linecap:round; stroke-linejoin:round; stroke-width:8; stroke-opacity:1; fill:none" stroke-dasharray="4, 8" points="
  415.18,1082.59 419.883,1082.58 424.586,1082.57 429.289,1082.54 433.991,1082.5 438.694,1082.45 443.397,1082.39 448.1,1082.32 452.803,1082.24 457.506,1082.15 
  462.209,1082.05 466.911,1081.93 471.614,1081.81 476.317,1081.67 481.02,1081.53 485.723,1081.37 490.426,1081.2 495.129,1081.03 499.831,1080.84 504.534,1080.64 
  509.237,1080.44 513.94,1080.22 518.643,1080 523.346,1079.76 528.048,1079.52 532.751,1079.27 537.454,1079.01 542.157,1078.74 546.86,1078.47 551.563,1078.19 
  556.266,1077.9 560.968,1077.6 565.671,1077.3 570.374,1076.99 575.077,1076.67 579.78,1076.35 584.483,1076.02 589.186,1075.69 593.888,1075.35 598.591,1075.01 
  603.294,1074.66 607.997,1074.31 612.7,1073.96 617.403,1073.6 622.106,1073.25 626.808,1072.88 631.511,1072.52 636.214,1072.16 640.917,1071.79 645.62,1071.42 
  650.323,1071.06 655.026,1070.69 659.728,1070.32 664.431,1069.95 669.134,1069.59 673.837,1069.22 678.54,1068.86 683.243,1068.5 687.946,1068.14 692.648,1067.78 
  697.351,1067.43 702.054,1067.08 706.757,1066.74 711.46,1066.4 716.163,1066.06 720.866,1065.73 725.568,1065.4 730.271,1065.08 734.974,1064.77 739.677,1064.46 
  744.38,1064.16 749.083,1063.86 753.785,1063.57 758.488,1063.29 763.191,1063.02 767.894,1062.75 772.597,1062.49 777.3,1062.24 782.003,1062 786.705,1061.77 
  791.408,1061.55 796.111,1061.34 800.814,1061.14 805.517,1060.94 810.22,1060.76 814.923,1060.59 819.625,1060.43 824.328,1060.27 829.031,1060.13 833.734,1060 
  838.437,1059.89 843.14,1059.78 847.843,1059.68 852.545,1059.6 857.248,1059.53 861.951,1059.47 866.654,1059.42 871.357,1059.38 876.06,1059.36 880.763,1059.35 
  885.465,1059.35 890.168,1059.36 894.871,1059.38 899.574,1059.41 904.277,1059.45 908.98,1059.49 913.683,1059.55 918.385,1059.61 923.088,1059.68 927.791,1059.76 
  932.494,1059.86 937.197,1059.95 941.9,1060.06 946.603,1060.18 951.305,1060.31 956.008,1060.44 960.711,1060.58 965.414,1060.74 970.117,1060.9 974.82,1061.06 
  979.522,1061.24 984.225,1061.42 988.928,1061.61 993.631,1061.81 998.334,1062.02 1003.04,1062.23 1007.74,1062.45 1012.44,1062.67 1017.15,1062.91 1021.85,1063.15 
  1026.55,1063.39 1031.25,1063.64 1035.96,1063.9 1040.66,1064.16 1045.36,1064.43 1050.07,1064.7 1054.77,1064.97 1059.47,1065.25 1064.17,1065.54 1068.88,1065.82 
  1073.58,1066.11 1078.28,1066.41 1082.99,1066.7 1087.69,1067 1092.39,1067.3 1097.09,1067.61 1101.8,1067.91 1106.5,1068.22 1111.2,1068.52 1115.91,1068.83 
  1120.61,1069.14 1125.31,1069.45 1130.01,1069.75 1134.72,1070.06 1139.42,1070.37 1144.12,1070.67 1148.83,1070.97 1153.53,1071.27 1158.23,1071.57 1162.93,1071.87 
  1167.64,1072.16 1172.34,1072.46 1177.04,1072.74 1181.75,1073.03 1186.45,1073.31 1191.15,1073.58 1195.85,1073.86 1200.56,1074.12 1205.26,1074.39 1209.96,1074.64 
  1214.67,1074.89 1219.37,1075.14 1224.07,1075.38 1228.77,1075.61 1233.48,1075.84 1238.18,1076.06 1242.88,1076.27 1247.59,1076.48 1252.29,1076.68 1256.99,1076.87 
  1261.69,1077.05 1266.4,1077.23 1271.1,1077.39 1275.8,1077.55 1280.51,1077.7 1285.21,1077.84 1289.91,1077.98 1294.61,1078.1 1299.32,1078.21 1304.02,1078.32 
  1308.72,1078.41 1313.43,1078.5 1318.13,1078.57 1322.83,1078.64 1327.53,1078.69 1332.24,1078.74 1336.94,1078.77 1341.64,1078.8 1346.35,1078.81 1351.05,1078.82 
  1355.75,1078.81 1360.45,1078.8 1365.16,1078.78 1369.86,1078.76 1374.56,1078.72 1379.27,1078.68 1383.97,1078.64 1388.67,1078.58 1393.37,1078.52 1398.08,1078.45 
  1402.78,1078.38 1407.48,1078.3 1412.19,1078.21 1416.89,1078.11 1421.59,1078.01 1426.29,1077.9 1431,1077.78 1435.7,1077.66 1440.4,1077.53 1445.11,1077.4 
  1449.81,1077.25 1454.51,1077.11 1459.21,1076.95 1463.92,1076.79 1468.62,1076.63 1473.32,1076.46 1478.03,1076.28 1482.73,1076.1 1487.43,1075.91 1492.13,1075.72 
  1496.84,1075.52 1501.54,1075.32 1506.24,1075.12 1510.95,1074.91 1515.65,1074.7 1520.35,1074.48 1525.05,1074.26 1529.76,1074.04 1534.46,1073.81 1539.16,1073.58 
  1543.86,1073.35 1548.57,1073.11 1553.27,1072.88 1557.97,1072.64 1562.68,1072.4 1567.38,1072.16 1572.08,1071.92 1576.78,1071.67 1581.49,1071.43 1586.19,1071.18 
  1590.89,1070.94 1595.6,1070.69 1600.3,1070.45 1605,1070.2 1609.7,1069.96 1614.41,1069.72 1619.11,1069.47 1623.81,1069.23 1628.52,1069 1633.22,1068.76 
  1637.92,1068.53 1642.62,1068.29 1647.33,1068.06 1652.03,1067.84 1656.73,1067.61 1661.44,1067.4 1666.14,1067.18 1670.84,1066.97 1675.54,1066.76 1680.25,1066.55 
  1684.95,1066.36 1689.65,1066.16 1694.36,1065.97 1699.06,1065.79 1703.76,1065.61 1708.46,1065.43 1713.17,1065.26 1717.87,1065.1 1722.57,1064.94 1727.28,1064.79 
  1731.98,1064.65 1736.68,1064.51 1741.38,1064.38 1746.09,1064.26 1750.79,1064.14 1755.49,1064.03 1760.2,1063.93 1764.9,1063.83 1769.6,1063.74 1774.3,1063.66 
  1779.01,1063.59 1783.71,1063.52 1788.41,1063.47 1793.12,1063.42 1797.82,1063.38 1802.52,1063.35 1807.22,1063.32 1811.93,1063.31 1816.63,1063.3 1821.33,1063.3 
  1826.04,1063.31 1830.74,1063.32 1835.44,1063.33 1840.14,1063.35 1844.85,1063.38 1849.55,1063.41 1854.25,1063.45 1858.96,1063.49 1863.66,1063.53 1868.36,1063.58 
  1873.06,1063.64 1877.77,1063.7 1882.47,1063.76 1887.17,1063.83 1891.88,1063.91 1896.58,1063.99 1901.28,1064.07 1905.98,1064.16 1910.69,1064.26 1915.39,1064.35 
  1920.09,1064.46 1924.8,1064.56 1929.5,1064.68 1934.2,1064.79 1938.9,1064.91 1943.61,1065.03 1948.31,1065.16 1953.01,1065.29 1957.72,1065.43 1962.42,1065.56 
  1967.12,1065.71 1971.82,1065.85 1976.53,1066 1981.23,1066.15 1985.93,1066.3 1990.64,1066.46 1995.34,1066.62 2000.04,1066.78 2004.74,1066.94 2009.45,1067.11 
  2014.15,1067.27 2018.85,1067.44 2023.56,1067.61 2028.26,1067.79 2032.96,1067.96 2037.66,1068.13 2042.37,1068.31 2047.07,1068.49 2051.77,1068.66 2056.48,1068.84 
  2061.18,1069.02 2065.88,1069.19 2070.58,1069.37 2075.29,1069.55 2079.99,1069.72 2084.69,1069.9 2089.4,1070.07 2094.1,1070.25 2098.8,1070.42 2103.5,1070.59 
  2108.21,1070.76 2112.91,1070.93 2117.61,1071.09 2122.32,1071.26 2127.02,1071.42 2131.72,1071.58 2136.42,1071.73 2141.13,1071.89 2145.83,1072.04 2150.53,1072.19 
  2155.24,1072.33 2159.94,1072.47 2164.64,1072.61 2169.34,1072.74 2174.05,1072.87 2178.75,1073 2183.45,1073.12 2188.16,1073.24 2192.86,1073.35 2197.56,1073.46 
  2202.26,1073.57 2206.97,1073.67 2211.67,1073.76 2216.37,1073.85 2221.08,1073.93 2225.78,1074.01 2230.48,1074.09 2235.18,1074.16 2239.89,1074.22 2244.59,1074.28 
  2249.29,1074.33 2254,1074.37 2258.7,1074.41 2263.4,1074.45 2268.1,1074.48 2272.81,1074.5 2277.51,1074.52 2282.21,1074.52 2286.92,1074.53 2291.62,1074.53 
  2296.32,1074.52 
  "/>
<polyline clip-path="url(#clip252)" style="stroke:#008000; stroke-linecap:round; stroke-linejoin:round; stroke-width:8; stroke-opacity:1; fill:none" points="
  415.18,1284.03 419.883,1284.05 424.586,1284.1 429.289,1284.2 433.991,1284.33 438.694,1284.5 443.397,1284.71 448.1,1284.96 452.803,1285.24 457.506,1285.57 
  462.209,1285.93 466.911,1286.33 471.614,1286.76 476.317,1287.24 481.02,1287.75 485.723,1288.3 490.426,1288.88 495.129,1289.5 499.831,1290.15 504.534,1290.84 
  509.237,1291.56 513.94,1292.32 518.643,1293.1 523.346,1293.92 528.048,1294.77 532.751,1295.65 537.454,1296.56 542.157,1297.49 546.86,1298.46 551.563,1299.45 
  556.266,1300.46 560.968,1301.5 565.671,1302.56 570.374,1303.65 575.077,1304.76 579.78,1305.88 584.483,1307.03 589.186,1308.19 593.888,1309.37 598.591,1310.57 
  603.294,1311.78 607.997,1313.01 612.7,1314.24 617.403,1315.49 622.106,1316.75 626.808,1318.01 631.511,1319.28 636.214,1320.56 640.917,1321.84 645.62,1323.13 
  650.323,1324.42 655.026,1325.7 659.728,1326.99 664.431,1328.28 669.134,1329.56 673.837,1330.83 678.54,1332.1 683.243,1333.37 687.946,1334.62 692.648,1335.87 
  697.351,1337.1 702.054,1338.33 706.757,1339.53 711.46,1340.73 716.163,1341.91 720.866,1343.07 725.568,1344.21 730.271,1345.34 734.974,1346.44 739.677,1347.52 
  744.38,1348.58 749.083,1349.61 753.785,1350.62 758.488,1351.61 763.191,1352.57 767.894,1353.5 772.597,1354.4 777.3,1355.27 782.003,1356.11 786.705,1356.92 
  791.408,1357.7 796.111,1358.44 800.814,1359.15 805.517,1359.83 810.22,1360.47 814.923,1361.07 819.625,1361.64 824.328,1362.17 829.031,1362.66 833.734,1363.12 
  838.437,1363.53 843.14,1363.9 847.843,1364.24 852.545,1364.53 857.248,1364.78 861.951,1364.99 866.654,1365.16 871.357,1365.29 876.06,1365.37 880.763,1365.41 
  885.465,1365.4 890.168,1365.37 894.871,1365.3 899.574,1365.2 904.277,1365.07 908.98,1364.91 913.683,1364.72 918.385,1364.5 923.088,1364.24 927.791,1363.96 
  932.494,1363.64 937.197,1363.29 941.9,1362.91 946.603,1362.5 951.305,1362.06 956.008,1361.59 960.711,1361.08 965.414,1360.55 970.117,1360 974.82,1359.41 
  979.522,1358.79 984.225,1358.15 988.928,1357.48 993.631,1356.79 998.334,1356.07 1003.04,1355.32 1007.74,1354.56 1012.44,1353.76 1017.15,1352.95 1021.85,1352.11 
  1026.55,1351.26 1031.25,1350.38 1035.96,1349.48 1040.66,1348.57 1045.36,1347.63 1050.07,1346.68 1054.77,1345.72 1059.47,1344.74 1064.17,1343.75 1068.88,1342.74 
  1073.58,1341.72 1078.28,1340.7 1082.99,1339.66 1087.69,1338.61 1092.39,1337.56 1097.09,1336.5 1101.8,1335.43 1106.5,1334.36 1111.2,1333.29 1115.91,1332.21 
  1120.61,1331.13 1125.31,1330.06 1130.01,1328.98 1134.72,1327.9 1139.42,1326.83 1144.12,1325.77 1148.83,1324.7 1153.53,1323.65 1158.23,1322.6 1162.93,1321.56 
  1167.64,1320.53 1172.34,1319.51 1177.04,1318.5 1181.75,1317.51 1186.45,1316.53 1191.15,1315.56 1195.85,1314.61 1200.56,1313.67 1205.26,1312.75 1209.96,1311.85 
  1214.67,1310.97 1219.37,1310.11 1224.07,1309.27 1228.77,1308.46 1233.48,1307.66 1238.18,1306.89 1242.88,1306.14 1247.59,1305.42 1252.29,1304.73 1256.99,1304.06 
  1261.69,1303.42 1266.4,1302.81 1271.1,1302.22 1275.8,1301.67 1280.51,1301.14 1285.21,1300.65 1289.91,1300.18 1294.61,1299.75 1299.32,1299.35 1304.02,1298.99 
  1308.72,1298.66 1313.43,1298.36 1318.13,1298.09 1322.83,1297.86 1327.53,1297.67 1332.24,1297.51 1336.94,1297.39 1341.64,1297.3 1346.35,1297.25 1351.05,1297.24 
  1355.75,1297.26 1360.45,1297.3 1365.16,1297.36 1369.86,1297.45 1374.56,1297.57 1379.27,1297.71 1383.97,1297.87 1388.67,1298.06 1393.37,1298.27 1398.08,1298.51 
  1402.78,1298.77 1407.48,1299.06 1412.19,1299.37 1416.89,1299.71 1421.59,1300.07 1426.29,1300.45 1431,1300.86 1435.7,1301.29 1440.4,1301.74 1445.11,1302.21 
  1449.81,1302.71 1454.51,1303.23 1459.21,1303.77 1463.92,1304.32 1468.62,1304.9 1473.32,1305.5 1478.03,1306.12 1482.73,1306.75 1487.43,1307.41 1492.13,1308.08 
  1496.84,1308.76 1501.54,1309.47 1506.24,1310.19 1510.95,1310.92 1515.65,1311.66 1520.35,1312.42 1525.05,1313.19 1529.76,1313.98 1534.46,1314.77 1539.16,1315.57 
  1543.86,1316.38 1548.57,1317.21 1553.27,1318.03 1557.97,1318.87 1562.68,1319.71 1567.38,1320.56 1572.08,1321.41 1576.78,1322.26 1581.49,1323.11 1586.19,1323.97 
  1590.89,1324.83 1595.6,1325.69 1600.3,1326.55 1605,1327.4 1609.7,1328.26 1614.41,1329.11 1619.11,1329.95 1623.81,1330.79 1628.52,1331.63 1633.22,1332.46 
  1637.92,1333.28 1642.62,1334.09 1647.33,1334.89 1652.03,1335.68 1656.73,1336.46 1661.44,1337.23 1666.14,1337.99 1670.84,1338.73 1675.54,1339.46 1680.25,1340.18 
  1684.95,1340.88 1689.65,1341.56 1694.36,1342.22 1699.06,1342.87 1703.76,1343.5 1708.46,1344.11 1713.17,1344.7 1717.87,1345.27 1722.57,1345.82 1727.28,1346.35 
  1731.98,1346.85 1736.68,1347.33 1741.38,1347.79 1746.09,1348.23 1750.79,1348.64 1755.49,1349.02 1760.2,1349.38 1764.9,1349.72 1769.6,1350.03 1774.3,1350.31 
  1779.01,1350.56 1783.71,1350.79 1788.41,1350.99 1793.12,1351.16 1797.82,1351.3 1802.52,1351.41 1807.22,1351.5 1811.93,1351.55 1816.63,1351.58 1821.33,1351.57 
  1826.04,1351.55 1830.74,1351.51 1835.44,1351.46 1840.14,1351.38 1844.85,1351.29 1849.55,1351.19 1854.25,1351.06 1858.96,1350.92 1863.66,1350.76 1868.36,1350.58 
  1873.06,1350.39 1877.77,1350.18 1882.47,1349.95 1887.17,1349.7 1891.88,1349.44 1896.58,1349.16 1901.28,1348.87 1905.98,1348.55 1910.69,1348.23 1915.39,1347.88 
  1920.09,1347.52 1924.8,1347.15 1929.5,1346.76 1934.2,1346.35 1938.9,1345.94 1943.61,1345.5 1948.31,1345.06 1953.01,1344.6 1957.72,1344.13 1962.42,1343.65 
  1967.12,1343.15 1971.82,1342.64 1976.53,1342.13 1981.23,1341.6 1985.93,1341.06 1990.64,1340.51 1995.34,1339.96 2000.04,1339.39 2004.74,1338.82 2009.45,1338.24 
  2014.15,1337.66 2018.85,1337.06 2023.56,1336.46 2028.26,1335.86 2032.96,1335.26 2037.66,1334.64 2042.37,1334.03 2047.07,1333.41 2051.77,1332.8 2056.48,1332.18 
  2061.18,1331.55 2065.88,1330.93 2070.58,1330.31 2075.29,1329.7 2079.99,1329.08 2084.69,1328.46 2089.4,1327.85 2094.1,1327.24 2098.8,1326.64 2103.5,1326.04 
  2108.21,1325.45 2112.91,1324.86 2117.61,1324.28 2122.32,1323.71 2127.02,1323.14 2131.72,1322.59 2136.42,1322.04 2141.13,1321.5 2145.83,1320.97 2150.53,1320.45 
  2155.24,1319.95 2159.94,1319.45 2164.64,1318.97 2169.34,1318.5 2174.05,1318.05 2178.75,1317.61 2183.45,1317.18 2188.16,1316.77 2192.86,1316.37 2197.56,1315.99 
  2202.26,1315.62 2206.97,1315.27 2211.67,1314.94 2216.37,1314.63 2221.08,1314.33 2225.78,1314.06 2230.48,1313.8 2235.18,1313.56 2239.89,1313.33 2244.59,1313.13 
  2249.29,1312.95 2254,1312.79 2258.7,1312.65 2263.4,1312.53 2268.1,1312.43 2272.81,1312.36 2277.51,1312.3 2282.21,1312.27 2286.92,1312.26 2291.62,1312.26 
  2296.32,1312.28 
  "/>
<path clip-path="url(#clip250)" d="
M1429.87 554.876 L2286.29 554.876 L2286.29 166.076 L1429.87 166.076  Z
  " fill="#ffffff" fill-rule="evenodd" fill-opacity="1"/>
<polyline clip-path="url(#clip250)" style="stroke:#000000; stroke-linecap:round; stroke-linejoin:round; stroke-width:4; stroke-opacity:1; fill:none" points="
  1429.87,554.876 2286.29,554.876 2286.29,166.076 1429.87,166.076 1429.87,554.876 
  "/>
<polyline clip-path="url(#clip250)" style="stroke:#009af9; stroke-linecap:round; stroke-linejoin:round; stroke-width:6; stroke-opacity:1; fill:none" points="
  1452.03,243.836 1584.96,243.836 
  "/>
<path clip-path="url(#clip250)" d="M1634.76 232.013 L1634.76 238.054 Q1632.05 236.666 1629.13 235.971 Q1626.22 235.277 1623.09 235.277 Q1618.34 235.277 1615.94 236.735 Q1613.58 238.193 1613.58 241.11 Q1613.58 243.332 1615.28 244.617 Q1616.98 245.867 1622.12 247.013 L1624.31 247.499 Q1631.11 248.957 1633.96 251.631 Q1636.84 254.27 1636.84 259.027 Q1636.84 264.443 1632.54 267.603 Q1628.27 270.763 1620.77 270.763 Q1617.64 270.763 1614.24 270.138 Q1610.87 269.547 1607.12 268.332 L1607.12 261.735 Q1610.66 263.575 1614.1 264.513 Q1617.54 265.415 1620.9 265.415 Q1625.42 265.415 1627.85 263.888 Q1630.28 262.325 1630.28 259.513 Q1630.28 256.909 1628.51 255.52 Q1626.77 254.131 1620.84 252.846 L1618.61 252.325 Q1612.68 251.075 1610.04 248.506 Q1607.4 245.902 1607.4 241.388 Q1607.4 235.902 1611.29 232.916 Q1615.18 229.93 1622.33 229.93 Q1625.87 229.93 1628.99 230.45 Q1632.12 230.971 1634.76 232.013 Z" fill="#000000" fill-rule="evenodd" fill-opacity="1" /><path clip-path="url(#clip250)" d="M1647.02 230.867 L1653.4 230.867 L1653.4 269.756 L1647.02 269.756 L1647.02 230.867 M1647.02 215.728 L1653.4 215.728 L1653.4 223.818 L1647.02 223.818 L1647.02 215.728 Z" fill="#000000" fill-rule="evenodd" fill-opacity="1" /><path clip-path="url(#clip250)" d="M1697.05 238.332 Q1699.45 234.027 1702.78 231.978 Q1706.11 229.93 1710.63 229.93 Q1716.7 229.93 1720 234.2 Q1723.3 238.436 1723.3 246.284 L1723.3 269.756 L1716.88 269.756 L1716.88 246.492 Q1716.88 240.902 1714.9 238.193 Q1712.92 235.485 1708.86 235.485 Q1703.89 235.485 1701.01 238.784 Q1698.13 242.082 1698.13 247.777 L1698.13 269.756 L1691.7 269.756 L1691.7 246.492 Q1691.7 240.867 1689.72 238.193 Q1687.74 235.485 1683.61 235.485 Q1678.72 235.485 1675.83 238.818 Q1672.95 242.117 1672.95 247.777 L1672.95 269.756 L1666.53 269.756 L1666.53 230.867 L1672.95 230.867 L1672.95 236.909 Q1675.14 233.332 1678.2 231.631 Q1681.25 229.93 1685.45 229.93 Q1689.69 229.93 1692.64 232.082 Q1695.63 234.235 1697.05 238.332 Z" fill="#000000" fill-rule="evenodd" fill-opacity="1" /><path clip-path="url(#clip250)" d="M1742.22 263.922 L1742.22 284.547 L1735.8 284.547 L1735.8 230.867 L1742.22 230.867 L1742.22 236.77 Q1744.24 233.298 1747.29 231.631 Q1750.38 229.93 1754.65 229.93 Q1761.74 229.93 1766.15 235.555 Q1770.59 241.179 1770.59 250.346 Q1770.59 259.513 1766.15 265.138 Q1761.74 270.763 1754.65 270.763 Q1750.38 270.763 1747.29 269.096 Q1744.24 267.395 1742.22 263.922 M1763.96 250.346 Q1763.96 243.298 1761.04 239.304 Q1758.16 235.277 1753.09 235.277 Q1748.02 235.277 1745.11 239.304 Q1742.22 243.298 1742.22 250.346 Q1742.22 257.395 1745.11 261.422 Q1748.02 265.415 1753.09 265.415 Q1758.16 265.415 1761.04 261.422 Q1763.96 257.395 1763.96 250.346 Z" fill="#000000" fill-rule="evenodd" fill-opacity="1" /><path clip-path="url(#clip250)" d="M1781.18 215.728 L1787.57 215.728 L1787.57 269.756 L1781.18 269.756 L1781.18 215.728 Z" fill="#000000" fill-rule="evenodd" fill-opacity="1" /><path clip-path="url(#clip250)" d="M1834.2 248.714 L1834.2 251.839 L1804.83 251.839 Q1805.24 258.436 1808.79 261.909 Q1812.36 265.346 1818.72 265.346 Q1822.4 265.346 1825.83 264.443 Q1829.31 263.54 1832.71 261.735 L1832.71 267.777 Q1829.27 269.235 1825.66 269.999 Q1822.05 270.763 1818.33 270.763 Q1809.03 270.763 1803.58 265.346 Q1798.16 259.929 1798.16 250.693 Q1798.16 241.145 1803.3 235.555 Q1808.47 229.93 1817.22 229.93 Q1825.07 229.93 1829.62 234.999 Q1834.2 240.034 1834.2 248.714 M1827.81 246.839 Q1827.74 241.596 1824.86 238.471 Q1822.01 235.346 1817.29 235.346 Q1811.95 235.346 1808.72 238.367 Q1805.52 241.388 1805.04 246.874 L1827.81 246.839 Z" fill="#000000" fill-rule="evenodd" fill-opacity="1" /><path clip-path="url(#clip250)" d="M1844.97 217.916 L1874.76 217.916 L1874.76 223.818 L1851.98 223.818 L1851.98 239.096 L1872.54 239.096 L1872.54 244.999 L1851.98 244.999 L1851.98 269.756 L1844.97 269.756 L1844.97 217.916 Z" fill="#000000" fill-rule="evenodd" fill-opacity="1" /><path clip-path="url(#clip250)" d="M1885.87 217.916 L1896.32 217.916 L1909.55 253.193 L1922.85 217.916 L1933.3 217.916 L1933.3 269.756 L1926.46 269.756 L1926.46 224.235 L1913.09 259.79 L1906.04 259.79 L1892.67 224.235 L1892.67 269.756 L1885.87 269.756 L1885.87 217.916 Z" fill="#000000" fill-rule="evenodd" fill-opacity="1" /><path clip-path="url(#clip250)" d="M1946.42 217.916 L1953.47 217.916 L1953.47 249.409 Q1953.47 257.742 1956.49 261.422 Q1959.51 265.068 1966.28 265.068 Q1973.02 265.068 1976.04 261.422 Q1979.06 257.742 1979.06 249.409 L1979.06 217.916 L1986.11 217.916 L1986.11 250.277 Q1986.11 260.415 1981.08 265.589 Q1976.08 270.763 1966.28 270.763 Q1956.46 270.763 1951.42 265.589 Q1946.42 260.415 1946.42 250.277 L1946.42 217.916 Z" fill="#000000" fill-rule="evenodd" fill-opacity="1" /><polyline clip-path="url(#clip250)" style="stroke:#e26f46; stroke-linecap:round; stroke-linejoin:round; stroke-width:6; stroke-opacity:1; fill:none" points="
  1452.03,321.596 1584.96,321.596 
  "/>
<path clip-path="url(#clip250)" d="M1629.9 314.599 Q1628.82 313.974 1627.54 313.696 Q1626.29 313.384 1624.76 313.384 Q1619.34 313.384 1616.43 316.926 Q1613.54 320.433 1613.54 327.03 L1613.54 347.516 L1607.12 347.516 L1607.12 308.627 L1613.54 308.627 L1613.54 314.669 Q1615.56 311.127 1618.79 309.426 Q1622.02 307.69 1626.63 307.69 Q1627.29 307.69 1628.09 307.794 Q1628.89 307.863 1629.86 308.037 L1629.9 314.599 Z" fill="#000000" fill-rule="evenodd" fill-opacity="1" /><path clip-path="url(#clip250)" d="M1668.3 326.474 L1668.3 329.599 L1638.93 329.599 Q1639.34 336.196 1642.88 339.669 Q1646.46 343.106 1652.81 343.106 Q1656.49 343.106 1659.93 342.203 Q1663.4 341.3 1666.81 339.495 L1666.81 345.537 Q1663.37 346.995 1659.76 347.759 Q1656.15 348.523 1652.43 348.523 Q1643.13 348.523 1637.68 343.106 Q1632.26 337.689 1632.26 328.453 Q1632.26 318.905 1637.4 313.315 Q1642.57 307.69 1651.32 307.69 Q1659.17 307.69 1663.72 312.759 Q1668.3 317.794 1668.3 326.474 M1661.91 324.599 Q1661.84 319.356 1658.96 316.231 Q1656.11 313.106 1651.39 313.106 Q1646.04 313.106 1642.81 316.127 Q1639.62 319.148 1639.13 324.634 L1661.91 324.599 Z" fill="#000000" fill-rule="evenodd" fill-opacity="1" /><path clip-path="url(#clip250)" d="M1698.47 293.488 L1698.47 298.801 L1692.36 298.801 Q1688.92 298.801 1687.57 300.19 Q1686.25 301.578 1686.25 305.19 L1686.25 308.627 L1696.77 308.627 L1696.77 313.592 L1686.25 313.592 L1686.25 347.516 L1679.83 347.516 L1679.83 313.592 L1673.72 313.592 L1673.72 308.627 L1679.83 308.627 L1679.83 305.919 Q1679.83 299.426 1682.85 296.474 Q1685.87 293.488 1692.43 293.488 L1698.47 293.488 Z" fill="#000000" fill-rule="evenodd" fill-opacity="1" /><path clip-path="url(#clip250)" d="M1737.08 326.474 L1737.08 329.599 L1707.71 329.599 Q1708.13 336.196 1711.67 339.669 Q1715.24 343.106 1721.6 343.106 Q1725.28 343.106 1728.72 342.203 Q1732.19 341.3 1735.59 339.495 L1735.59 345.537 Q1732.15 346.995 1728.54 347.759 Q1724.93 348.523 1721.22 348.523 Q1711.91 348.523 1706.46 343.106 Q1701.04 337.689 1701.04 328.453 Q1701.04 318.905 1706.18 313.315 Q1711.36 307.69 1720.11 307.69 Q1727.95 307.69 1732.5 312.759 Q1737.08 317.794 1737.08 326.474 M1730.7 324.599 Q1730.63 319.356 1727.74 316.231 Q1724.9 313.106 1720.17 313.106 Q1714.83 313.106 1711.6 316.127 Q1708.4 319.148 1707.92 324.634 L1730.7 324.599 Z" fill="#000000" fill-rule="evenodd" fill-opacity="1" /><path clip-path="url(#clip250)" d="M1770.11 314.599 Q1769.03 313.974 1767.74 313.696 Q1766.49 313.384 1764.97 313.384 Q1759.55 313.384 1756.63 316.926 Q1753.75 320.433 1753.75 327.03 L1753.75 347.516 L1747.33 347.516 L1747.33 308.627 L1753.75 308.627 L1753.75 314.669 Q1755.76 311.127 1758.99 309.426 Q1762.22 307.69 1766.84 307.69 Q1767.5 307.69 1768.3 307.794 Q1769.1 307.863 1770.07 308.037 L1770.11 314.599 Z" fill="#000000" fill-rule="evenodd" fill-opacity="1" /><path clip-path="url(#clip250)" d="M1808.51 326.474 L1808.51 329.599 L1779.13 329.599 Q1779.55 336.196 1783.09 339.669 Q1786.67 343.106 1793.02 343.106 Q1796.7 343.106 1800.14 342.203 Q1803.61 341.3 1807.01 339.495 L1807.01 345.537 Q1803.58 346.995 1799.97 347.759 Q1796.35 348.523 1792.64 348.523 Q1783.33 348.523 1777.88 343.106 Q1772.47 337.689 1772.47 328.453 Q1772.47 318.905 1777.61 313.315 Q1782.78 307.69 1791.53 307.69 Q1799.38 307.69 1803.92 312.759 Q1808.51 317.794 1808.51 326.474 M1802.12 324.599 Q1802.05 319.356 1799.17 316.231 Q1796.32 313.106 1791.6 313.106 Q1786.25 313.106 1783.02 316.127 Q1779.83 319.148 1779.34 324.634 L1802.12 324.599 Z" fill="#000000" fill-rule="evenodd" fill-opacity="1" /><path clip-path="url(#clip250)" d="M1851.32 324.044 L1851.32 347.516 L1844.93 347.516 L1844.93 324.252 Q1844.93 318.731 1842.78 315.988 Q1840.63 313.245 1836.32 313.245 Q1831.15 313.245 1828.16 316.544 Q1825.17 319.842 1825.17 325.537 L1825.17 347.516 L1818.75 347.516 L1818.75 308.627 L1825.17 308.627 L1825.17 314.669 Q1827.47 311.162 1830.56 309.426 Q1833.68 307.69 1837.74 307.69 Q1844.44 307.69 1847.88 311.856 Q1851.32 315.988 1851.32 324.044 Z" fill="#000000" fill-rule="evenodd" fill-opacity="1" /><path clip-path="url(#clip250)" d="M1892.05 310.12 L1892.05 316.092 Q1889.34 314.599 1886.6 313.87 Q1883.89 313.106 1881.11 313.106 Q1874.9 313.106 1871.46 317.064 Q1868.02 320.988 1868.02 328.106 Q1868.02 335.224 1871.46 339.182 Q1874.9 343.106 1881.11 343.106 Q1883.89 343.106 1886.6 342.377 Q1889.34 341.613 1892.05 340.12 L1892.05 346.023 Q1889.38 347.273 1886.49 347.898 Q1883.65 348.523 1880.42 348.523 Q1871.63 348.523 1866.46 343.002 Q1861.29 337.481 1861.29 328.106 Q1861.29 318.592 1866.49 313.141 Q1871.74 307.69 1880.83 307.69 Q1883.79 307.69 1886.6 308.315 Q1889.41 308.905 1892.05 310.12 Z" fill="#000000" fill-rule="evenodd" fill-opacity="1" /><path clip-path="url(#clip250)" d="M1936.42 326.474 L1936.42 329.599 L1907.05 329.599 Q1907.47 336.196 1911.01 339.669 Q1914.58 343.106 1920.94 343.106 Q1924.62 343.106 1928.06 342.203 Q1931.53 341.3 1934.93 339.495 L1934.93 345.537 Q1931.49 346.995 1927.88 347.759 Q1924.27 348.523 1920.56 348.523 Q1911.25 348.523 1905.8 343.106 Q1900.38 337.689 1900.38 328.453 Q1900.38 318.905 1905.52 313.315 Q1910.69 307.69 1919.44 307.69 Q1927.29 307.69 1931.84 312.759 Q1936.42 317.794 1936.42 326.474 M1930.03 324.599 Q1929.97 319.356 1927.08 316.231 Q1924.24 313.106 1919.51 313.106 Q1914.17 313.106 1910.94 316.127 Q1907.74 319.148 1907.26 324.634 L1930.03 324.599 Z" fill="#000000" fill-rule="evenodd" fill-opacity="1" /><polyline clip-path="url(#clip250)" style="stroke:#008000; stroke-linecap:round; stroke-linejoin:round; stroke-width:6; stroke-opacity:1; fill:none" stroke-dasharray="3, 6" points="
  1452.03,399.356 1584.96,399.356 
  "/>
<path clip-path="url(#clip250)" d="M1607.12 373.436 L1616.56 373.436 L1639.55 416.804 L1639.55 373.436 L1646.36 373.436 L1646.36 425.276 L1636.91 425.276 L1613.93 381.908 L1613.93 425.276 L1607.12 425.276 L1607.12 373.436 Z" fill="#000000" fill-rule="evenodd" fill-opacity="1" /><path clip-path="url(#clip250)" d="M1693.3 404.234 L1693.3 407.359 L1663.93 407.359 Q1664.34 413.956 1667.88 417.429 Q1671.46 420.866 1677.81 420.866 Q1681.49 420.866 1684.93 419.963 Q1688.4 419.06 1691.81 417.255 L1691.81 423.297 Q1688.37 424.755 1684.76 425.519 Q1681.15 426.283 1677.43 426.283 Q1668.13 426.283 1662.68 420.866 Q1657.26 415.449 1657.26 406.213 Q1657.26 396.665 1662.4 391.075 Q1667.57 385.45 1676.32 385.45 Q1684.17 385.45 1688.72 390.519 Q1693.3 395.554 1693.3 404.234 M1686.91 402.359 Q1686.84 397.116 1683.96 393.991 Q1681.11 390.866 1676.39 390.866 Q1671.04 390.866 1667.81 393.887 Q1664.62 396.908 1664.13 402.394 L1686.91 402.359 Z" fill="#000000" fill-rule="evenodd" fill-opacity="1" /><path clip-path="url(#clip250)" d="M1703.13 409.929 L1703.13 386.387 L1709.52 386.387 L1709.52 409.686 Q1709.52 415.206 1711.67 417.984 Q1713.82 420.727 1718.13 420.727 Q1723.3 420.727 1726.29 417.429 Q1729.31 414.13 1729.31 408.436 L1729.31 386.387 L1735.7 386.387 L1735.7 425.276 L1729.31 425.276 L1729.31 419.304 Q1726.98 422.845 1723.89 424.581 Q1720.83 426.283 1716.77 426.283 Q1710.07 426.283 1706.6 422.116 Q1703.13 417.949 1703.13 409.929 M1719.2 385.45 L1719.2 385.45 Z" fill="#000000" fill-rule="evenodd" fill-opacity="1" /><path clip-path="url(#clip250)" d="M1771.39 392.359 Q1770.31 391.734 1769.03 391.456 Q1767.78 391.144 1766.25 391.144 Q1760.83 391.144 1757.92 394.686 Q1755.04 398.193 1755.04 404.79 L1755.04 425.276 L1748.61 425.276 L1748.61 386.387 L1755.04 386.387 L1755.04 392.429 Q1757.05 388.887 1760.28 387.186 Q1763.51 385.45 1768.13 385.45 Q1768.79 385.45 1769.58 385.554 Q1770.38 385.623 1771.36 385.797 L1771.39 392.359 Z" fill="#000000" fill-rule="evenodd" fill-opacity="1" /><path clip-path="url(#clip250)" d="M1795.76 405.727 Q1788.02 405.727 1785.04 407.498 Q1782.05 409.269 1782.05 413.54 Q1782.05 416.942 1784.27 418.956 Q1786.53 420.935 1790.38 420.935 Q1795.7 420.935 1798.89 417.185 Q1802.12 413.401 1802.12 407.151 L1802.12 405.727 L1795.76 405.727 M1808.51 403.088 L1808.51 425.276 L1802.12 425.276 L1802.12 419.373 Q1799.93 422.915 1796.67 424.616 Q1793.4 426.283 1788.68 426.283 Q1782.71 426.283 1779.17 422.949 Q1775.66 419.581 1775.66 413.956 Q1775.66 407.394 1780.04 404.061 Q1784.45 400.727 1793.16 400.727 L1802.12 400.727 L1802.12 400.102 Q1802.12 395.693 1799.2 393.297 Q1796.32 390.866 1791.08 390.866 Q1787.74 390.866 1784.58 391.665 Q1781.42 392.463 1778.51 394.061 L1778.51 388.158 Q1782.01 386.804 1785.31 386.144 Q1788.61 385.45 1791.74 385.45 Q1800.17 385.45 1804.34 389.825 Q1808.51 394.199 1808.51 403.088 Z" fill="#000000" fill-rule="evenodd" fill-opacity="1" /><path clip-path="url(#clip250)" d="M1821.67 371.248 L1828.06 371.248 L1828.06 425.276 L1821.67 425.276 L1821.67 371.248 Z" fill="#000000" fill-rule="evenodd" fill-opacity="1" /><path clip-path="url(#clip250)" d="M1841.7 373.436 L1871.49 373.436 L1871.49 379.338 L1848.72 379.338 L1848.72 394.616 L1869.27 394.616 L1869.27 400.519 L1848.72 400.519 L1848.72 425.276 L1841.7 425.276 L1841.7 373.436 Z" fill="#000000" fill-rule="evenodd" fill-opacity="1" /><path clip-path="url(#clip250)" d="M1882.6 373.436 L1893.06 373.436 L1906.28 408.713 L1919.58 373.436 L1930.03 373.436 L1930.03 425.276 L1923.19 425.276 L1923.19 379.755 L1909.83 415.31 L1902.78 415.31 L1889.41 379.755 L1889.41 425.276 L1882.6 425.276 L1882.6 373.436 Z" fill="#000000" fill-rule="evenodd" fill-opacity="1" /><path clip-path="url(#clip250)" d="M1943.16 373.436 L1950.21 373.436 L1950.21 404.929 Q1950.21 413.262 1953.23 416.942 Q1956.25 420.588 1963.02 420.588 Q1969.76 420.588 1972.78 416.942 Q1975.8 413.262 1975.8 404.929 L1975.8 373.436 L1982.85 373.436 L1982.85 405.797 Q1982.85 415.935 1977.81 421.109 Q1972.81 426.283 1963.02 426.283 Q1953.19 426.283 1948.16 421.109 Q1943.16 415.935 1943.16 405.797 L1943.16 373.436 Z" fill="#000000" fill-rule="evenodd" fill-opacity="1" /><path clip-path="url(#clip250)" d="M2033.68 371.318 Q2029.03 379.304 2026.77 387.116 Q2024.51 394.929 2024.51 402.949 Q2024.51 410.97 2026.77 418.852 Q2029.06 426.699 2033.68 434.651 L2028.12 434.651 Q2022.92 426.491 2020.31 418.609 Q2017.74 410.727 2017.74 402.949 Q2017.74 395.206 2020.31 387.359 Q2022.88 379.512 2028.12 371.318 L2033.68 371.318 Z" fill="#000000" fill-rule="evenodd" fill-opacity="1" /><path clip-path="url(#clip250)" d="M2053.02 419.373 L2077.5 419.373 L2077.5 425.276 L2044.58 425.276 L2044.58 419.373 Q2048.58 415.241 2055.45 408.297 Q2062.36 401.318 2064.13 399.304 Q2067.5 395.519 2068.82 392.915 Q2070.17 390.276 2070.17 387.741 Q2070.17 383.609 2067.26 381.005 Q2064.37 378.401 2059.72 378.401 Q2056.42 378.401 2052.74 379.547 Q2049.1 380.693 2044.93 383.019 L2044.93 375.936 Q2049.17 374.234 2052.85 373.366 Q2056.53 372.498 2059.58 372.498 Q2067.64 372.498 2072.43 376.526 Q2077.22 380.554 2077.22 387.29 Q2077.22 390.484 2076.01 393.366 Q2074.83 396.213 2071.67 400.102 Q2070.8 401.109 2066.15 405.936 Q2061.49 410.727 2053.02 419.373 Z" fill="#000000" fill-rule="evenodd" fill-opacity="1" /><path clip-path="url(#clip250)" d="M2092.29 373.436 L2119.83 373.436 L2119.83 379.338 L2098.71 379.338 L2098.71 392.047 Q2100.24 391.526 2101.77 391.283 Q2103.3 391.005 2104.83 391.005 Q2113.51 391.005 2118.58 395.762 Q2123.64 400.519 2123.64 408.644 Q2123.64 417.012 2118.44 421.665 Q2113.23 426.283 2103.75 426.283 Q2100.49 426.283 2097.08 425.727 Q2093.71 425.172 2090.1 424.06 L2090.1 417.012 Q2093.23 418.713 2096.56 419.547 Q2099.89 420.38 2103.61 420.38 Q2109.62 420.38 2113.12 417.22 Q2116.63 414.06 2116.63 408.644 Q2116.63 403.227 2113.12 400.068 Q2109.62 396.908 2103.61 396.908 Q2100.8 396.908 2097.99 397.533 Q2095.21 398.158 2092.29 399.477 L2092.29 373.436 Z" fill="#000000" fill-rule="evenodd" fill-opacity="1" /><path clip-path="url(#clip250)" d="M2152.46 378.054 Q2147.05 378.054 2144.3 383.401 Q2141.6 388.713 2141.6 399.408 Q2141.6 410.067 2144.3 415.415 Q2147.05 420.727 2152.46 420.727 Q2157.92 420.727 2160.62 415.415 Q2163.37 410.067 2163.37 399.408 Q2163.37 388.713 2160.62 383.401 Q2157.92 378.054 2152.46 378.054 M2152.46 372.498 Q2161.18 372.498 2165.76 379.408 Q2170.38 386.283 2170.38 399.408 Q2170.38 412.498 2165.76 419.408 Q2161.18 426.283 2152.46 426.283 Q2143.75 426.283 2139.13 419.408 Q2134.55 412.498 2134.55 399.408 Q2134.55 386.283 2139.13 379.408 Q2143.75 372.498 2152.46 372.498 Z" fill="#000000" fill-rule="evenodd" fill-opacity="1" /><path clip-path="url(#clip250)" d="M2197.71 378.054 Q2192.29 378.054 2189.55 383.401 Q2186.84 388.713 2186.84 399.408 Q2186.84 410.067 2189.55 415.415 Q2192.29 420.727 2197.71 420.727 Q2203.16 420.727 2205.87 415.415 Q2208.61 410.067 2208.61 399.408 Q2208.61 388.713 2205.87 383.401 Q2203.16 378.054 2197.71 378.054 M2197.71 372.498 Q2206.42 372.498 2211.01 379.408 Q2215.62 386.283 2215.62 399.408 Q2215.62 412.498 2211.01 419.408 Q2206.42 426.283 2197.71 426.283 Q2188.99 426.283 2184.37 419.408 Q2179.79 412.498 2179.79 399.408 Q2179.79 386.283 2184.37 379.408 Q2188.99 372.498 2197.71 372.498 Z" fill="#000000" fill-rule="evenodd" fill-opacity="1" /><path clip-path="url(#clip250)" d="M2226.04 371.318 L2231.6 371.318 Q2236.8 379.512 2239.37 387.359 Q2241.98 395.206 2241.98 402.949 Q2241.98 410.727 2239.37 418.609 Q2236.8 426.491 2231.6 434.651 L2226.04 434.651 Q2230.66 426.699 2232.92 418.852 Q2235.21 410.97 2235.21 402.949 Q2235.21 394.929 2232.92 387.116 Q2230.66 379.304 2226.04 371.318 Z" fill="#000000" fill-rule="evenodd" fill-opacity="1" /><polyline clip-path="url(#clip250)" style="stroke:#008000; stroke-linecap:round; stroke-linejoin:round; stroke-width:6; stroke-opacity:1; fill:none" points="
  1452.03,477.116 1584.96,477.116 
  "/>
<path clip-path="url(#clip250)" d="M1607.12 451.196 L1616.56 451.196 L1639.55 494.564 L1639.55 451.196 L1646.36 451.196 L1646.36 503.036 L1636.91 503.036 L1613.93 459.668 L1613.93 503.036 L1607.12 503.036 L1607.12 451.196 Z" fill="#000000" fill-rule="evenodd" fill-opacity="1" /><path clip-path="url(#clip250)" d="M1693.3 481.994 L1693.3 485.119 L1663.93 485.119 Q1664.34 491.716 1667.88 495.189 Q1671.46 498.626 1677.81 498.626 Q1681.49 498.626 1684.93 497.723 Q1688.4 496.82 1691.81 495.015 L1691.81 501.057 Q1688.37 502.515 1684.76 503.279 Q1681.15 504.043 1677.43 504.043 Q1668.13 504.043 1662.68 498.626 Q1657.26 493.209 1657.26 483.973 Q1657.26 474.425 1662.4 468.835 Q1667.57 463.21 1676.32 463.21 Q1684.17 463.21 1688.72 468.279 Q1693.3 473.314 1693.3 481.994 M1686.91 480.119 Q1686.84 474.876 1683.96 471.751 Q1681.11 468.626 1676.39 468.626 Q1671.04 468.626 1667.81 471.647 Q1664.62 474.668 1664.13 480.154 L1686.91 480.119 Z" fill="#000000" fill-rule="evenodd" fill-opacity="1" /><path clip-path="url(#clip250)" d="M1703.13 487.689 L1703.13 464.147 L1709.52 464.147 L1709.52 487.446 Q1709.52 492.966 1711.67 495.744 Q1713.82 498.487 1718.13 498.487 Q1723.3 498.487 1726.29 495.189 Q1729.31 491.89 1729.31 486.196 L1729.31 464.147 L1735.7 464.147 L1735.7 503.036 L1729.31 503.036 L1729.31 497.064 Q1726.98 500.605 1723.89 502.341 Q1720.83 504.043 1716.77 504.043 Q1710.07 504.043 1706.6 499.876 Q1703.13 495.709 1703.13 487.689 M1719.2 463.21 L1719.2 463.21 Z" fill="#000000" fill-rule="evenodd" fill-opacity="1" /><path clip-path="url(#clip250)" d="M1771.39 470.119 Q1770.31 469.494 1769.03 469.216 Q1767.78 468.904 1766.25 468.904 Q1760.83 468.904 1757.92 472.446 Q1755.04 475.953 1755.04 482.55 L1755.04 503.036 L1748.61 503.036 L1748.61 464.147 L1755.04 464.147 L1755.04 470.189 Q1757.05 466.647 1760.28 464.946 Q1763.51 463.21 1768.13 463.21 Q1768.79 463.21 1769.58 463.314 Q1770.38 463.383 1771.36 463.557 L1771.39 470.119 Z" fill="#000000" fill-rule="evenodd" fill-opacity="1" /><path clip-path="url(#clip250)" d="M1795.76 483.487 Q1788.02 483.487 1785.04 485.258 Q1782.05 487.029 1782.05 491.3 Q1782.05 494.702 1784.27 496.716 Q1786.53 498.695 1790.38 498.695 Q1795.7 498.695 1798.89 494.945 Q1802.12 491.161 1802.12 484.911 L1802.12 483.487 L1795.76 483.487 M1808.51 480.848 L1808.51 503.036 L1802.12 503.036 L1802.12 497.133 Q1799.93 500.675 1796.67 502.376 Q1793.4 504.043 1788.68 504.043 Q1782.71 504.043 1779.17 500.709 Q1775.66 497.341 1775.66 491.716 Q1775.66 485.154 1780.04 481.821 Q1784.45 478.487 1793.16 478.487 L1802.12 478.487 L1802.12 477.862 Q1802.12 473.453 1799.2 471.057 Q1796.32 468.626 1791.08 468.626 Q1787.74 468.626 1784.58 469.425 Q1781.42 470.223 1778.51 471.821 L1778.51 465.918 Q1782.01 464.564 1785.31 463.904 Q1788.61 463.21 1791.74 463.21 Q1800.17 463.21 1804.34 467.585 Q1808.51 471.959 1808.51 480.848 Z" fill="#000000" fill-rule="evenodd" fill-opacity="1" /><path clip-path="url(#clip250)" d="M1821.67 449.008 L1828.06 449.008 L1828.06 503.036 L1821.67 503.036 L1821.67 449.008 Z" fill="#000000" fill-rule="evenodd" fill-opacity="1" /><path clip-path="url(#clip250)" d="M1841.7 451.196 L1871.49 451.196 L1871.49 457.098 L1848.72 457.098 L1848.72 472.376 L1869.27 472.376 L1869.27 478.279 L1848.72 478.279 L1848.72 503.036 L1841.7 503.036 L1841.7 451.196 Z" fill="#000000" fill-rule="evenodd" fill-opacity="1" /><path clip-path="url(#clip250)" d="M1882.6 451.196 L1893.06 451.196 L1906.28 486.473 L1919.58 451.196 L1930.03 451.196 L1930.03 503.036 L1923.19 503.036 L1923.19 457.515 L1909.83 493.07 L1902.78 493.07 L1889.41 457.515 L1889.41 503.036 L1882.6 503.036 L1882.6 451.196 Z" fill="#000000" fill-rule="evenodd" fill-opacity="1" /><path clip-path="url(#clip250)" d="M1943.16 451.196 L1950.21 451.196 L1950.21 482.689 Q1950.21 491.022 1953.23 494.702 Q1956.25 498.348 1963.02 498.348 Q1969.76 498.348 1972.78 494.702 Q1975.8 491.022 1975.8 482.689 L1975.8 451.196 L1982.85 451.196 L1982.85 483.557 Q1982.85 493.695 1977.81 498.869 Q1972.81 504.043 1963.02 504.043 Q1953.19 504.043 1948.16 498.869 Q1943.16 493.695 1943.16 483.557 L1943.16 451.196 Z" fill="#000000" fill-rule="evenodd" fill-opacity="1" /><path clip-path="url(#clip250)" d="M2033.68 449.078 Q2029.03 457.064 2026.77 464.876 Q2024.51 472.689 2024.51 480.709 Q2024.51 488.73 2026.77 496.612 Q2029.06 504.459 2033.68 512.411 L2028.12 512.411 Q2022.92 504.251 2020.31 496.369 Q2017.74 488.487 2017.74 480.709 Q2017.74 472.966 2020.31 465.119 Q2022.88 457.272 2028.12 449.078 L2033.68 449.078 Z" fill="#000000" fill-rule="evenodd" fill-opacity="1" /><path clip-path="url(#clip250)" d="M2047.05 451.196 L2074.58 451.196 L2074.58 457.098 L2053.47 457.098 L2053.47 469.807 Q2055 469.286 2056.53 469.043 Q2058.05 468.765 2059.58 468.765 Q2068.26 468.765 2073.33 473.522 Q2078.4 478.279 2078.4 486.404 Q2078.4 494.772 2073.19 499.425 Q2067.99 504.043 2058.51 504.043 Q2055.24 504.043 2051.84 503.487 Q2048.47 502.932 2044.86 501.82 L2044.86 494.772 Q2047.99 496.473 2051.32 497.307 Q2054.65 498.14 2058.37 498.14 Q2064.37 498.14 2067.88 494.98 Q2071.39 491.82 2071.39 486.404 Q2071.39 480.987 2067.88 477.828 Q2064.37 474.668 2058.37 474.668 Q2055.55 474.668 2052.74 475.293 Q2049.96 475.918 2047.05 477.237 L2047.05 451.196 Z" fill="#000000" fill-rule="evenodd" fill-opacity="1" /><path clip-path="url(#clip250)" d="M2107.22 455.814 Q2101.8 455.814 2099.06 461.161 Q2096.35 466.473 2096.35 477.168 Q2096.35 487.827 2099.06 493.175 Q2101.8 498.487 2107.22 498.487 Q2112.67 498.487 2115.38 493.175 Q2118.12 487.827 2118.12 477.168 Q2118.12 466.473 2115.38 461.161 Q2112.67 455.814 2107.22 455.814 M2107.22 450.258 Q2115.94 450.258 2120.52 457.168 Q2125.14 464.043 2125.14 477.168 Q2125.14 490.258 2120.52 497.168 Q2115.94 504.043 2107.22 504.043 Q2098.51 504.043 2093.89 497.168 Q2089.3 490.258 2089.3 477.168 Q2089.3 464.043 2093.89 457.168 Q2098.51 450.258 2107.22 450.258 Z" fill="#000000" fill-rule="evenodd" fill-opacity="1" /><path clip-path="url(#clip250)" d="M2152.46 455.814 Q2147.05 455.814 2144.3 461.161 Q2141.6 466.473 2141.6 477.168 Q2141.6 487.827 2144.3 493.175 Q2147.05 498.487 2152.46 498.487 Q2157.92 498.487 2160.62 493.175 Q2163.37 487.827 2163.37 477.168 Q2163.37 466.473 2160.62 461.161 Q2157.92 455.814 2152.46 455.814 M2152.46 450.258 Q2161.18 450.258 2165.76 457.168 Q2170.38 464.043 2170.38 477.168 Q2170.38 490.258 2165.76 497.168 Q2161.18 504.043 2152.46 504.043 Q2143.75 504.043 2139.13 497.168 Q2134.55 490.258 2134.55 477.168 Q2134.55 464.043 2139.13 457.168 Q2143.75 450.258 2152.46 450.258 Z" fill="#000000" fill-rule="evenodd" fill-opacity="1" /><path clip-path="url(#clip250)" d="M2197.71 455.814 Q2192.29 455.814 2189.55 461.161 Q2186.84 466.473 2186.84 477.168 Q2186.84 487.827 2189.55 493.175 Q2192.29 498.487 2197.71 498.487 Q2203.16 498.487 2205.87 493.175 Q2208.61 487.827 2208.61 477.168 Q2208.61 466.473 2205.87 461.161 Q2203.16 455.814 2197.71 455.814 M2197.71 450.258 Q2206.42 450.258 2211.01 457.168 Q2215.62 464.043 2215.62 477.168 Q2215.62 490.258 2211.01 497.168 Q2206.42 504.043 2197.71 504.043 Q2188.99 504.043 2184.37 497.168 Q2179.79 490.258 2179.79 477.168 Q2179.79 464.043 2184.37 457.168 Q2188.99 450.258 2197.71 450.258 Z" fill="#000000" fill-rule="evenodd" fill-opacity="1" /><path clip-path="url(#clip250)" d="M2226.04 449.078 L2231.6 449.078 Q2236.8 457.272 2239.37 465.119 Q2241.98 472.966 2241.98 480.709 Q2241.98 488.487 2239.37 496.369 Q2236.8 504.251 2231.6 512.411 L2226.04 512.411 Q2230.66 504.459 2232.92 496.612 Q2235.21 488.73 2235.21 480.709 Q2235.21 472.689 2232.92 464.876 Q2230.66 457.064 2226.04 449.078 Z" fill="#000000" fill-rule="evenodd" fill-opacity="1" /></svg>
