<?xml version="1.0" encoding="utf-8"?>
<svg xmlns="http://www.w3.org/2000/svg" xmlns:xlink="http://www.w3.org/1999/xlink" width="600" height="400" viewBox="0 0 2400 1600">
<defs>
  <clipPath id="clip930">
    <rect x="0" y="0" width="2400" height="1600"/>
  </clipPath>
</defs>
<path clip-path="url(#clip930)" d="
M0 1600 L2400 1600 L2400 0 L0 0  Z
  " fill="#ffffff" fill-rule="evenodd" fill-opacity="1"/>
<defs>
  <clipPath id="clip931">
    <rect x="480" y="0" width="1681" height="1600"/>
  </clipPath>
</defs>
<path clip-path="url(#clip930)" d="
M360.239 1401.58 L2352.76 1401.58 L2352.76 123.472 L360.239 123.472  Z
  " fill="#ffffff" fill-rule="evenodd" fill-opacity="1"/>
<defs>
  <clipPath id="clip932">
    <rect x="360" y="123" width="1994" height="1279"/>
  </clipPath>
</defs>
<polyline clip-path="url(#clip932)" style="stroke:#000000; stroke-linecap:round; stroke-linejoin:round; stroke-width:2; stroke-opacity:0.1; fill:none" points="
  416.631,1401.58 416.631,123.472 
  "/>
<polyline clip-path="url(#clip932)" style="stroke:#000000; stroke-linecap:round; stroke-linejoin:round; stroke-width:2; stroke-opacity:0.1; fill:none" points="
  886.564,1401.58 886.564,123.472 
  "/>
<polyline clip-path="url(#clip932)" style="stroke:#000000; stroke-linecap:round; stroke-linejoin:round; stroke-width:2; stroke-opacity:0.1; fill:none" points="
  1356.5,1401.58 1356.5,123.472 
  "/>
<polyline clip-path="url(#clip932)" style="stroke:#000000; stroke-linecap:round; stroke-linejoin:round; stroke-width:2; stroke-opacity:0.1; fill:none" points="
  1826.43,1401.58 1826.43,123.472 
  "/>
<polyline clip-path="url(#clip932)" style="stroke:#000000; stroke-linecap:round; stroke-linejoin:round; stroke-width:2; stroke-opacity:0.1; fill:none" points="
  2296.36,1401.58 2296.36,123.472 
  "/>
<polyline clip-path="url(#clip930)" style="stroke:#000000; stroke-linecap:round; stroke-linejoin:round; stroke-width:4; stroke-opacity:1; fill:none" points="
  360.239,1401.58 2352.76,1401.58 
  "/>
<polyline clip-path="url(#clip930)" style="stroke:#000000; stroke-linecap:round; stroke-linejoin:round; stroke-width:4; stroke-opacity:1; fill:none" points="
  416.631,1401.58 416.631,1382.68 
  "/>
<polyline clip-path="url(#clip930)" style="stroke:#000000; stroke-linecap:round; stroke-linejoin:round; stroke-width:4; stroke-opacity:1; fill:none" points="
  886.564,1401.58 886.564,1382.68 
  "/>
<polyline clip-path="url(#clip930)" style="stroke:#000000; stroke-linecap:round; stroke-linejoin:round; stroke-width:4; stroke-opacity:1; fill:none" points="
  1356.5,1401.58 1356.5,1382.68 
  "/>
<polyline clip-path="url(#clip930)" style="stroke:#000000; stroke-linecap:round; stroke-linejoin:round; stroke-width:4; stroke-opacity:1; fill:none" points="
  1826.43,1401.58 1826.43,1382.68 
  "/>
<polyline clip-path="url(#clip930)" style="stroke:#000000; stroke-linecap:round; stroke-linejoin:round; stroke-width:4; stroke-opacity:1; fill:none" points="
  2296.36,1401.58 2296.36,1382.68 
  "/>
<path clip-path="url(#clip930)" d="M416.631 1438.36 Q411.214 1438.36 408.471 1443.71 Q405.763 1449.02 405.763 1459.71 Q405.763 1470.37 408.471 1475.72 Q411.214 1481.03 416.631 1481.03 Q422.082 1481.03 424.79 1475.72 Q427.533 1470.37 427.533 1459.71 Q427.533 1449.02 424.79 1443.71 Q422.082 1438.36 416.631 1438.36 M416.631 1432.8 Q425.346 1432.8 429.929 1439.71 Q434.547 1446.59 434.547 1459.71 Q434.547 1472.8 429.929 1479.71 Q425.346 1486.59 416.631 1486.59 Q407.916 1486.59 403.298 1479.71 Q398.714 1472.8 398.714 1459.71 Q398.714 1446.59 403.298 1439.71 Q407.916 1432.8 416.631 1432.8 Z" fill="#000000" fill-rule="evenodd" fill-opacity="1" /><path clip-path="url(#clip930)" d="M872.137 1479.68 L883.595 1479.68 L883.595 1440.13 L871.13 1442.63 L871.13 1436.24 L883.526 1433.74 L890.54 1433.74 L890.54 1479.68 L901.998 1479.68 L901.998 1485.58 L872.137 1485.58 L872.137 1479.68 Z" fill="#000000" fill-rule="evenodd" fill-opacity="1" /><path clip-path="url(#clip930)" d="M1348.48 1479.68 L1372.96 1479.68 L1372.96 1485.58 L1340.04 1485.58 L1340.04 1479.68 Q1344.03 1475.55 1350.91 1468.6 Q1357.82 1461.62 1359.59 1459.61 Q1362.96 1455.82 1364.28 1453.22 Q1365.63 1450.58 1365.63 1448.05 Q1365.63 1443.91 1362.71 1441.31 Q1359.83 1438.71 1355.18 1438.71 Q1351.88 1438.71 1348.2 1439.85 Q1344.55 1441 1340.39 1443.32 L1340.39 1436.24 Q1344.62 1434.54 1348.3 1433.67 Q1351.98 1432.8 1355.04 1432.8 Q1363.09 1432.8 1367.89 1436.83 Q1372.68 1440.86 1372.68 1447.59 Q1372.68 1450.79 1371.46 1453.67 Q1370.28 1456.52 1367.12 1460.41 Q1366.25 1461.41 1361.6 1466.24 Q1356.95 1471.03 1348.48 1479.68 Z" fill="#000000" fill-rule="evenodd" fill-opacity="1" /><path clip-path="url(#clip930)" d="M1832.8 1457.63 Q1837.84 1458.7 1840.65 1462.11 Q1843.5 1465.51 1843.5 1470.51 Q1843.5 1478.18 1838.22 1482.39 Q1832.94 1486.59 1823.22 1486.59 Q1819.95 1486.59 1816.48 1485.93 Q1813.05 1485.3 1809.36 1484.02 L1809.36 1477.25 Q1812.28 1478.95 1815.75 1479.82 Q1819.23 1480.68 1823.01 1480.68 Q1829.61 1480.68 1833.05 1478.08 Q1836.52 1475.48 1836.52 1470.51 Q1836.52 1465.93 1833.29 1463.36 Q1830.09 1460.75 1824.36 1460.75 L1818.32 1460.75 L1818.32 1454.99 L1824.64 1454.99 Q1829.82 1454.99 1832.56 1452.94 Q1835.3 1450.86 1835.3 1446.97 Q1835.3 1442.98 1832.45 1440.86 Q1829.64 1438.71 1824.36 1438.71 Q1821.48 1438.71 1818.18 1439.33 Q1814.89 1439.96 1810.93 1441.27 L1810.93 1435.02 Q1814.92 1433.91 1818.39 1433.36 Q1821.9 1432.8 1824.99 1432.8 Q1832.98 1432.8 1837.63 1436.45 Q1842.28 1440.06 1842.28 1446.24 Q1842.28 1450.55 1839.82 1453.53 Q1837.35 1456.48 1832.8 1457.63 Z" fill="#000000" fill-rule="evenodd" fill-opacity="1" /><path clip-path="url(#clip930)" d="M2300.88 1439.85 L2283.17 1467.52 L2300.88 1467.52 L2300.88 1439.85 M2299.04 1433.74 L2307.86 1433.74 L2307.86 1467.52 L2315.25 1467.52 L2315.25 1473.36 L2307.86 1473.36 L2307.86 1485.58 L2300.88 1485.58 L2300.88 1473.36 L2277.48 1473.36 L2277.48 1466.59 L2299.04 1433.74 Z" fill="#000000" fill-rule="evenodd" fill-opacity="1" /><path clip-path="url(#clip930)" d="M1300.11 1527.62 L1300.11 1538.66 L1313.27 1538.66 L1313.27 1543.62 L1300.11 1543.62 L1300.11 1564.74 Q1300.11 1569.49 1301.39 1570.85 Q1302.71 1572.2 1306.71 1572.2 L1313.27 1572.2 L1313.27 1577.55 L1306.71 1577.55 Q1299.31 1577.55 1296.5 1574.8 Q1293.69 1572.03 1293.69 1564.74 L1293.69 1543.62 L1289 1543.62 L1289 1538.66 L1293.69 1538.66 L1293.69 1527.62 L1300.11 1527.62 Z" fill="#000000" fill-rule="evenodd" fill-opacity="1" /><path clip-path="url(#clip930)" d="M1343.68 1523.52 L1358.41 1523.52 L1358.41 1528.49 L1350.07 1528.49 L1350.07 1581.96 L1358.41 1581.96 L1358.41 1586.92 L1343.68 1586.92 L1343.68 1523.52 Z" fill="#000000" fill-rule="evenodd" fill-opacity="1" /><path clip-path="url(#clip930)" d="M1396.81 1539.8 L1396.81 1545.85 Q1394.1 1544.46 1391.18 1543.76 Q1388.27 1543.07 1385.14 1543.07 Q1380.39 1543.07 1377.99 1544.53 Q1375.63 1545.99 1375.63 1548.9 Q1375.63 1551.12 1377.33 1552.41 Q1379.03 1553.66 1384.17 1554.8 L1386.36 1555.29 Q1393.16 1556.75 1396.01 1559.42 Q1398.89 1562.06 1398.89 1566.82 Q1398.89 1572.24 1394.59 1575.4 Q1390.32 1578.55 1382.82 1578.55 Q1379.69 1578.55 1376.29 1577.93 Q1372.92 1577.34 1369.17 1576.12 L1369.17 1569.53 Q1372.71 1571.37 1376.15 1572.3 Q1379.59 1573.21 1382.96 1573.21 Q1387.47 1573.21 1389.9 1571.68 Q1392.33 1570.12 1392.33 1567.3 Q1392.33 1564.7 1390.56 1563.31 Q1388.82 1561.92 1382.89 1560.64 L1380.66 1560.12 Q1374.73 1558.87 1372.09 1556.3 Q1369.45 1553.69 1369.45 1549.18 Q1369.45 1543.69 1373.34 1540.71 Q1377.23 1537.72 1384.38 1537.72 Q1387.92 1537.72 1391.05 1538.24 Q1394.17 1538.76 1396.81 1539.8 Z" fill="#000000" fill-rule="evenodd" fill-opacity="1" /><path clip-path="url(#clip930)" d="M1424 1523.52 L1424 1586.92 L1409.27 1586.92 L1409.27 1581.96 L1417.57 1581.96 L1417.57 1528.49 L1409.27 1528.49 L1409.27 1523.52 L1424 1523.52 Z" fill="#000000" fill-rule="evenodd" fill-opacity="1" /><polyline clip-path="url(#clip932)" style="stroke:#000000; stroke-linecap:round; stroke-linejoin:round; stroke-width:2; stroke-opacity:0.1; fill:none" points="
  360.239,1297.08 2352.76,1297.08 
  "/>
<polyline clip-path="url(#clip932)" style="stroke:#000000; stroke-linecap:round; stroke-linejoin:round; stroke-width:2; stroke-opacity:0.1; fill:none" points="
  360.239,1069.59 2352.76,1069.59 
  "/>
<polyline clip-path="url(#clip932)" style="stroke:#000000; stroke-linecap:round; stroke-linejoin:round; stroke-width:2; stroke-opacity:0.1; fill:none" points="
  360.239,842.103 2352.76,842.103 
  "/>
<polyline clip-path="url(#clip932)" style="stroke:#000000; stroke-linecap:round; stroke-linejoin:round; stroke-width:2; stroke-opacity:0.1; fill:none" points="
  360.239,614.617 2352.76,614.617 
  "/>
<polyline clip-path="url(#clip932)" style="stroke:#000000; stroke-linecap:round; stroke-linejoin:round; stroke-width:2; stroke-opacity:0.1; fill:none" points="
  360.239,387.131 2352.76,387.131 
  "/>
<polyline clip-path="url(#clip932)" style="stroke:#000000; stroke-linecap:round; stroke-linejoin:round; stroke-width:2; stroke-opacity:0.1; fill:none" points="
  360.239,159.645 2352.76,159.645 
  "/>
<polyline clip-path="url(#clip930)" style="stroke:#000000; stroke-linecap:round; stroke-linejoin:round; stroke-width:4; stroke-opacity:1; fill:none" points="
  360.239,1401.58 360.239,123.472 
  "/>
<polyline clip-path="url(#clip930)" style="stroke:#000000; stroke-linecap:round; stroke-linejoin:round; stroke-width:4; stroke-opacity:1; fill:none" points="
  360.239,1297.08 379.136,1297.08 
  "/>
<polyline clip-path="url(#clip930)" style="stroke:#000000; stroke-linecap:round; stroke-linejoin:round; stroke-width:4; stroke-opacity:1; fill:none" points="
  360.239,1069.59 379.136,1069.59 
  "/>
<polyline clip-path="url(#clip930)" style="stroke:#000000; stroke-linecap:round; stroke-linejoin:round; stroke-width:4; stroke-opacity:1; fill:none" points="
  360.239,842.103 379.136,842.103 
  "/>
<polyline clip-path="url(#clip930)" style="stroke:#000000; stroke-linecap:round; stroke-linejoin:round; stroke-width:4; stroke-opacity:1; fill:none" points="
  360.239,614.617 379.136,614.617 
  "/>
<polyline clip-path="url(#clip930)" style="stroke:#000000; stroke-linecap:round; stroke-linejoin:round; stroke-width:4; stroke-opacity:1; fill:none" points="
  360.239,387.131 379.136,387.131 
  "/>
<polyline clip-path="url(#clip930)" style="stroke:#000000; stroke-linecap:round; stroke-linejoin:round; stroke-width:4; stroke-opacity:1; fill:none" points="
  360.239,159.645 379.136,159.645 
  "/>
<path clip-path="url(#clip930)" d="M120.073 1297.75 L164.587 1297.75 L164.587 1303.66 L120.073 1303.66 L120.073 1297.75 Z" fill="#000000" fill-rule="evenodd" fill-opacity="1" /><path clip-path="url(#clip930)" d="M194.726 1275.77 Q189.309 1275.77 186.566 1281.12 Q183.858 1286.43 183.858 1297.13 Q183.858 1307.79 186.566 1313.13 Q189.309 1318.45 194.726 1318.45 Q200.177 1318.45 202.885 1313.13 Q205.628 1307.79 205.628 1297.13 Q205.628 1286.43 202.885 1281.12 Q200.177 1275.77 194.726 1275.77 M194.726 1270.22 Q203.441 1270.22 208.024 1277.13 Q212.642 1284 212.642 1297.13 Q212.642 1310.22 208.024 1317.13 Q203.441 1324 194.726 1324 Q186.01 1324 181.392 1317.13 Q176.809 1310.22 176.809 1297.13 Q176.809 1284 181.392 1277.13 Q186.01 1270.22 194.726 1270.22 Z" fill="#000000" fill-rule="evenodd" fill-opacity="1" /><path clip-path="url(#clip930)" d="M224.968 1314.18 L232.295 1314.18 L232.295 1323 L224.968 1323 L224.968 1314.18 Z" fill="#000000" fill-rule="evenodd" fill-opacity="1" /><path clip-path="url(#clip930)" d="M248.788 1317.09 L260.246 1317.09 L260.246 1277.54 L247.781 1280.04 L247.781 1273.66 L260.177 1271.16 L267.19 1271.16 L267.19 1317.09 L278.649 1317.09 L278.649 1323 L248.788 1323 L248.788 1317.09 Z" fill="#000000" fill-rule="evenodd" fill-opacity="1" /><path clip-path="url(#clip930)" d="M292.885 1271.16 L320.419 1271.16 L320.419 1277.06 L299.308 1277.06 L299.308 1289.77 Q300.836 1289.25 302.364 1289 Q303.892 1288.72 305.419 1288.72 Q314.1 1288.72 319.169 1293.48 Q324.239 1298.24 324.239 1306.36 Q324.239 1314.73 319.03 1319.38 Q313.822 1324 304.343 1324 Q301.079 1324 297.676 1323.45 Q294.308 1322.89 290.697 1321.78 L290.697 1314.73 Q293.822 1316.43 297.156 1317.27 Q300.489 1318.1 304.204 1318.1 Q310.211 1318.1 313.718 1314.94 Q317.225 1311.78 317.225 1306.36 Q317.225 1300.95 313.718 1297.79 Q310.211 1294.63 304.204 1294.63 Q301.392 1294.63 298.579 1295.25 Q295.801 1295.88 292.885 1297.2 L292.885 1271.16 Z" fill="#000000" fill-rule="evenodd" fill-opacity="1" /><path clip-path="url(#clip930)" d="M118.58 1070.27 L163.094 1070.27 L163.094 1076.17 L118.58 1076.17 L118.58 1070.27 Z" fill="#000000" fill-rule="evenodd" fill-opacity="1" /><path clip-path="url(#clip930)" d="M193.233 1048.29 Q187.816 1048.29 185.073 1053.63 Q182.365 1058.95 182.365 1069.64 Q182.365 1080.3 185.073 1085.65 Q187.816 1090.96 193.233 1090.96 Q198.684 1090.96 201.392 1085.65 Q204.135 1080.3 204.135 1069.64 Q204.135 1058.95 201.392 1053.63 Q198.684 1048.29 193.233 1048.29 M193.233 1042.73 Q201.948 1042.73 206.531 1049.64 Q211.149 1056.52 211.149 1069.64 Q211.149 1082.73 206.531 1089.64 Q201.948 1096.52 193.233 1096.52 Q184.517 1096.52 179.899 1089.64 Q175.316 1082.73 175.316 1069.64 Q175.316 1056.52 179.899 1049.64 Q184.517 1042.73 193.233 1042.73 Z" fill="#000000" fill-rule="evenodd" fill-opacity="1" /><path clip-path="url(#clip930)" d="M223.475 1086.69 L230.802 1086.69 L230.802 1095.51 L223.475 1095.51 L223.475 1086.69 Z" fill="#000000" fill-rule="evenodd" fill-opacity="1" /><path clip-path="url(#clip930)" d="M247.295 1089.61 L258.753 1089.61 L258.753 1050.06 L246.288 1052.56 L246.288 1046.17 L258.684 1043.67 L265.697 1043.67 L265.697 1089.61 L277.156 1089.61 L277.156 1095.51 L247.295 1095.51 L247.295 1089.61 Z" fill="#000000" fill-rule="evenodd" fill-opacity="1" /><path clip-path="url(#clip930)" d="M306.322 1048.29 Q300.906 1048.29 298.163 1053.63 Q295.454 1058.95 295.454 1069.64 Q295.454 1080.3 298.163 1085.65 Q300.906 1090.96 306.322 1090.96 Q311.774 1090.96 314.482 1085.65 Q317.225 1080.3 317.225 1069.64 Q317.225 1058.95 314.482 1053.63 Q311.774 1048.29 306.322 1048.29 M306.322 1042.73 Q315.037 1042.73 319.621 1049.64 Q324.239 1056.52 324.239 1069.64 Q324.239 1082.73 319.621 1089.64 Q315.037 1096.52 306.322 1096.52 Q297.607 1096.52 292.989 1089.64 Q288.406 1082.73 288.406 1069.64 Q288.406 1056.52 292.989 1049.64 Q297.607 1042.73 306.322 1042.73 Z" fill="#000000" fill-rule="evenodd" fill-opacity="1" /><path clip-path="url(#clip930)" d="M120.073 842.78 L164.587 842.78 L164.587 848.683 L120.073 848.683 L120.073 842.78 Z" fill="#000000" fill-rule="evenodd" fill-opacity="1" /><path clip-path="url(#clip930)" d="M194.726 820.801 Q189.309 820.801 186.566 826.148 Q183.858 831.461 183.858 842.155 Q183.858 852.815 186.566 858.162 Q189.309 863.475 194.726 863.475 Q200.177 863.475 202.885 858.162 Q205.628 852.815 205.628 842.155 Q205.628 831.461 202.885 826.148 Q200.177 820.801 194.726 820.801 M194.726 815.246 Q203.441 815.246 208.024 822.155 Q212.642 829.03 212.642 842.155 Q212.642 855.245 208.024 862.155 Q203.441 869.03 194.726 869.03 Q186.01 869.03 181.392 862.155 Q176.809 855.245 176.809 842.155 Q176.809 829.03 181.392 822.155 Q186.01 815.246 194.726 815.246 Z" fill="#000000" fill-rule="evenodd" fill-opacity="1" /><path clip-path="url(#clip930)" d="M224.968 859.204 L232.295 859.204 L232.295 868.023 L224.968 868.023 L224.968 859.204 Z" fill="#000000" fill-rule="evenodd" fill-opacity="1" /><path clip-path="url(#clip930)" d="M262.572 820.801 Q257.156 820.801 254.413 826.148 Q251.704 831.461 251.704 842.155 Q251.704 852.815 254.413 858.162 Q257.156 863.475 262.572 863.475 Q268.024 863.475 270.732 858.162 Q273.475 852.815 273.475 842.155 Q273.475 831.461 270.732 826.148 Q268.024 820.801 262.572 820.801 M262.572 815.246 Q271.288 815.246 275.871 822.155 Q280.489 829.03 280.489 842.155 Q280.489 855.245 275.871 862.155 Q271.288 869.03 262.572 869.03 Q253.857 869.03 249.239 862.155 Q244.656 855.245 244.656 842.155 Q244.656 829.03 249.239 822.155 Q253.857 815.246 262.572 815.246 Z" fill="#000000" fill-rule="evenodd" fill-opacity="1" /><path clip-path="url(#clip930)" d="M292.885 816.183 L320.419 816.183 L320.419 822.086 L299.308 822.086 L299.308 834.794 Q300.836 834.273 302.364 834.03 Q303.892 833.752 305.419 833.752 Q314.1 833.752 319.169 838.509 Q324.239 843.266 324.239 851.391 Q324.239 859.759 319.03 864.412 Q313.822 869.03 304.343 869.03 Q301.079 869.03 297.676 868.475 Q294.308 867.919 290.697 866.808 L290.697 859.759 Q293.822 861.461 297.156 862.294 Q300.489 863.127 304.204 863.127 Q310.211 863.127 313.718 859.968 Q317.225 856.808 317.225 851.391 Q317.225 845.975 313.718 842.815 Q310.211 839.655 304.204 839.655 Q301.392 839.655 298.579 840.28 Q295.801 840.905 292.885 842.225 L292.885 816.183 Z" fill="#000000" fill-rule="evenodd" fill-opacity="1" /><path clip-path="url(#clip930)" d="M193.233 593.315 Q187.816 593.315 185.073 598.662 Q182.365 603.975 182.365 614.669 Q182.365 625.329 185.073 630.676 Q187.816 635.988 193.233 635.988 Q198.684 635.988 201.392 630.676 Q204.135 625.329 204.135 614.669 Q204.135 603.975 201.392 598.662 Q198.684 593.315 193.233 593.315 M193.233 587.76 Q201.948 587.76 206.531 594.669 Q211.149 601.544 211.149 614.669 Q211.149 627.759 206.531 634.669 Q201.948 641.544 193.233 641.544 Q184.517 641.544 179.899 634.669 Q175.316 627.759 175.316 614.669 Q175.316 601.544 179.899 594.669 Q184.517 587.76 193.233 587.76 Z" fill="#000000" fill-rule="evenodd" fill-opacity="1" /><path clip-path="url(#clip930)" d="M223.475 631.718 L230.802 631.718 L230.802 640.537 L223.475 640.537 L223.475 631.718 Z" fill="#000000" fill-rule="evenodd" fill-opacity="1" /><path clip-path="url(#clip930)" d="M261.079 593.315 Q255.663 593.315 252.92 598.662 Q250.211 603.975 250.211 614.669 Q250.211 625.329 252.92 630.676 Q255.663 635.988 261.079 635.988 Q266.531 635.988 269.239 630.676 Q271.982 625.329 271.982 614.669 Q271.982 603.975 269.239 598.662 Q266.531 593.315 261.079 593.315 M261.079 587.76 Q269.795 587.76 274.378 594.669 Q278.996 601.544 278.996 614.669 Q278.996 627.759 274.378 634.669 Q269.795 641.544 261.079 641.544 Q252.364 641.544 247.746 634.669 Q243.163 627.759 243.163 614.669 Q243.163 601.544 247.746 594.669 Q252.364 587.76 261.079 587.76 Z" fill="#000000" fill-rule="evenodd" fill-opacity="1" /><path clip-path="url(#clip930)" d="M306.322 593.315 Q300.906 593.315 298.163 598.662 Q295.454 603.975 295.454 614.669 Q295.454 625.329 298.163 630.676 Q300.906 635.988 306.322 635.988 Q311.774 635.988 314.482 630.676 Q317.225 625.329 317.225 614.669 Q317.225 603.975 314.482 598.662 Q311.774 593.315 306.322 593.315 M306.322 587.76 Q315.037 587.76 319.621 594.669 Q324.239 601.544 324.239 614.669 Q324.239 627.759 319.621 634.669 Q315.037 641.544 306.322 641.544 Q297.607 641.544 292.989 634.669 Q288.406 627.759 288.406 614.669 Q288.406 601.544 292.989 594.669 Q297.607 587.76 306.322 587.76 Z" fill="#000000" fill-rule="evenodd" fill-opacity="1" /><path clip-path="url(#clip930)" d="M194.726 365.829 Q189.309 365.829 186.566 371.176 Q183.858 376.489 183.858 387.183 Q183.858 397.843 186.566 403.19 Q189.309 408.502 194.726 408.502 Q200.177 408.502 202.885 403.19 Q205.628 397.843 205.628 387.183 Q205.628 376.489 202.885 371.176 Q200.177 365.829 194.726 365.829 M194.726 360.274 Q203.441 360.274 208.024 367.183 Q212.642 374.058 212.642 387.183 Q212.642 400.273 208.024 407.183 Q203.441 414.058 194.726 414.058 Q186.01 414.058 181.392 407.183 Q176.809 400.273 176.809 387.183 Q176.809 374.058 181.392 367.183 Q186.01 360.274 194.726 360.274 Z" fill="#000000" fill-rule="evenodd" fill-opacity="1" /><path clip-path="url(#clip930)" d="M224.968 404.232 L232.295 404.232 L232.295 413.051 L224.968 413.051 L224.968 404.232 Z" fill="#000000" fill-rule="evenodd" fill-opacity="1" /><path clip-path="url(#clip930)" d="M262.572 365.829 Q257.156 365.829 254.413 371.176 Q251.704 376.489 251.704 387.183 Q251.704 397.843 254.413 403.19 Q257.156 408.502 262.572 408.502 Q268.024 408.502 270.732 403.19 Q273.475 397.843 273.475 387.183 Q273.475 376.489 270.732 371.176 Q268.024 365.829 262.572 365.829 M262.572 360.274 Q271.288 360.274 275.871 367.183 Q280.489 374.058 280.489 387.183 Q280.489 400.273 275.871 407.183 Q271.288 414.058 262.572 414.058 Q253.857 414.058 249.239 407.183 Q244.656 400.273 244.656 387.183 Q244.656 374.058 249.239 367.183 Q253.857 360.274 262.572 360.274 Z" fill="#000000" fill-rule="evenodd" fill-opacity="1" /><path clip-path="url(#clip930)" d="M292.885 361.211 L320.419 361.211 L320.419 367.114 L299.308 367.114 L299.308 379.822 Q300.836 379.301 302.364 379.058 Q303.892 378.78 305.419 378.78 Q314.1 378.78 319.169 383.537 Q324.239 388.294 324.239 396.419 Q324.239 404.787 319.03 409.44 Q313.822 414.058 304.343 414.058 Q301.079 414.058 297.676 413.502 Q294.308 412.947 290.697 411.836 L290.697 404.787 Q293.822 406.489 297.156 407.322 Q300.489 408.155 304.204 408.155 Q310.211 408.155 313.718 404.996 Q317.225 401.836 317.225 396.419 Q317.225 391.003 313.718 387.843 Q310.211 384.683 304.204 384.683 Q301.392 384.683 298.579 385.308 Q295.801 385.933 292.885 387.253 L292.885 361.211 Z" fill="#000000" fill-rule="evenodd" fill-opacity="1" /><path clip-path="url(#clip930)" d="M193.233 138.343 Q187.816 138.343 185.073 143.69 Q182.365 149.003 182.365 159.697 Q182.365 170.357 185.073 175.704 Q187.816 181.016 193.233 181.016 Q198.684 181.016 201.392 175.704 Q204.135 170.357 204.135 159.697 Q204.135 149.003 201.392 143.69 Q198.684 138.343 193.233 138.343 M193.233 132.787 Q201.948 132.787 206.531 139.697 Q211.149 146.572 211.149 159.697 Q211.149 172.787 206.531 179.697 Q201.948 186.572 193.233 186.572 Q184.517 186.572 179.899 179.697 Q175.316 172.787 175.316 159.697 Q175.316 146.572 179.899 139.697 Q184.517 132.787 193.233 132.787 Z" fill="#000000" fill-rule="evenodd" fill-opacity="1" /><path clip-path="url(#clip930)" d="M223.475 176.746 L230.802 176.746 L230.802 185.565 L223.475 185.565 L223.475 176.746 Z" fill="#000000" fill-rule="evenodd" fill-opacity="1" /><path clip-path="url(#clip930)" d="M247.295 179.662 L258.753 179.662 L258.753 140.114 L246.288 142.614 L246.288 136.225 L258.684 133.725 L265.697 133.725 L265.697 179.662 L277.156 179.662 L277.156 185.565 L247.295 185.565 L247.295 179.662 Z" fill="#000000" fill-rule="evenodd" fill-opacity="1" /><path clip-path="url(#clip930)" d="M306.322 138.343 Q300.906 138.343 298.163 143.69 Q295.454 149.003 295.454 159.697 Q295.454 170.357 298.163 175.704 Q300.906 181.016 306.322 181.016 Q311.774 181.016 314.482 175.704 Q317.225 170.357 317.225 159.697 Q317.225 149.003 314.482 143.69 Q311.774 138.343 306.322 138.343 M306.322 132.787 Q315.037 132.787 319.621 139.697 Q324.239 146.572 324.239 159.697 Q324.239 172.787 319.621 179.697 Q315.037 186.572 306.322 186.572 Q297.607 186.572 292.989 179.697 Q288.406 172.787 288.406 159.697 Q288.406 146.572 292.989 139.697 Q297.607 132.787 306.322 132.787 Z" fill="#000000" fill-rule="evenodd" fill-opacity="1" /><path clip-path="url(#clip930)" d="M34.0422 1042.44 L13.0007 1042.44 L13.0007 1036.05 L67.0282 1036.05 L67.0282 1042.44 L61.1949 1042.44 Q64.6671 1044.45 66.3684 1047.54 Q68.0351 1050.6 68.0351 1054.9 Q68.0351 1061.95 62.4101 1066.4 Q56.7852 1070.81 47.6185 1070.81 Q38.4519 1070.81 32.827 1066.4 Q27.202 1061.95 27.202 1054.9 Q27.202 1050.6 28.9034 1047.54 Q30.57 1044.45 34.0422 1042.44 M47.6185 1064.21 Q54.6671 1064.21 58.6949 1061.33 Q62.6879 1058.41 62.6879 1053.34 Q62.6879 1048.27 58.6949 1045.35 Q54.6671 1042.44 47.6185 1042.44 Q40.57 1042.44 36.5769 1045.35 Q32.5492 1048.27 32.5492 1053.34 Q32.5492 1058.41 36.5769 1061.33 Q40.57 1064.21 47.6185 1064.21 Z" fill="#000000" fill-rule="evenodd" fill-opacity="1" /><path clip-path="url(#clip930)" d="M28.1395 1022.89 L28.1395 1016.5 L67.0282 1016.5 L67.0282 1022.89 L28.1395 1022.89 M13.0007 1022.89 L13.0007 1016.5 L21.0909 1016.5 L21.0909 1022.89 L13.0007 1022.89 Z" fill="#000000" fill-rule="evenodd" fill-opacity="1" /><path clip-path="url(#clip930)" d="M29.2853 978.341 L35.3269 978.341 Q33.9381 981.049 33.2436 983.966 Q32.5492 986.882 32.5492 990.007 Q32.5492 994.764 34.0075 997.16 Q35.4658 999.521 38.3825 999.521 Q40.6047 999.521 41.8894 997.82 Q43.1394 996.118 44.2852 990.98 L44.7713 988.792 Q46.2297 981.987 48.9033 979.139 Q51.5421 976.257 56.299 976.257 Q61.7157 976.257 64.8754 980.563 Q68.0351 984.834 68.0351 992.334 Q68.0351 995.459 67.4101 998.862 Q66.8198 1002.23 65.6046 1005.98 L59.0074 1005.98 Q60.8476 1002.44 61.7851 999 Q62.6879 995.563 62.6879 992.195 Q62.6879 987.681 61.1601 985.25 Q59.5976 982.82 56.7852 982.82 Q54.181 982.82 52.7921 984.591 Q51.4032 986.327 50.1185 992.264 L49.5977 994.487 Q48.3477 1000.42 45.7783 1003.06 Q43.1741 1005.7 38.6603 1005.7 Q33.1742 1005.7 30.1881 1001.81 Q27.202 997.924 27.202 990.771 Q27.202 987.23 27.7228 984.105 Q28.2436 980.98 29.2853 978.341 Z" fill="#000000" fill-rule="evenodd" fill-opacity="1" /><path clip-path="url(#clip930)" d="M61.1949 959.903 L81.8197 959.903 L81.8197 966.327 L28.1395 966.327 L28.1395 959.903 L34.0422 959.903 Q30.57 957.89 28.9034 954.834 Q27.202 951.744 27.202 947.473 Q27.202 940.39 32.827 935.98 Q38.4519 931.535 47.6185 931.535 Q56.7852 931.535 62.4101 935.98 Q68.0351 940.39 68.0351 947.473 Q68.0351 951.744 66.3684 954.834 Q64.6671 957.89 61.1949 959.903 M47.6185 938.167 Q40.57 938.167 36.5769 941.084 Q32.5492 943.966 32.5492 949.035 Q32.5492 954.105 36.5769 957.021 Q40.57 959.903 47.6185 959.903 Q54.6671 959.903 58.6949 957.021 Q62.6879 954.105 62.6879 949.035 Q62.6879 943.966 58.6949 941.084 Q54.6671 938.167 47.6185 938.167 Z" fill="#000000" fill-rule="evenodd" fill-opacity="1" /><path clip-path="url(#clip930)" d="M13.0007 920.945 L13.0007 914.556 L67.0282 914.556 L67.0282 920.945 L13.0007 920.945 Z" fill="#000000" fill-rule="evenodd" fill-opacity="1" /><path clip-path="url(#clip930)" d="M47.4797 883.515 Q47.4797 891.258 49.2505 894.244 Q51.0213 897.23 55.2921 897.23 Q58.6949 897.23 60.7087 895.008 Q62.6879 892.751 62.6879 888.897 Q62.6879 883.584 58.9379 880.39 Q55.1532 877.161 48.9033 877.161 L47.4797 877.161 L47.4797 883.515 M44.8408 870.772 L67.0282 870.772 L67.0282 877.161 L61.1254 877.161 Q64.6671 879.348 66.3684 882.612 Q68.0351 885.876 68.0351 890.598 Q68.0351 896.57 64.7018 900.112 Q61.3337 903.619 55.7088 903.619 Q49.1463 903.619 45.813 899.244 Q42.4797 894.834 42.4797 886.119 L42.4797 877.161 L41.8547 877.161 Q37.445 877.161 35.0492 880.077 Q32.6186 882.959 32.6186 888.202 Q32.6186 891.536 33.4172 894.695 Q34.2158 897.855 35.813 900.772 L29.9103 900.772 Q28.5561 897.265 27.8964 893.966 Q27.202 890.668 27.202 887.543 Q27.202 879.105 31.577 874.939 Q35.9519 870.772 44.8408 870.772 Z" fill="#000000" fill-rule="evenodd" fill-opacity="1" /><path clip-path="url(#clip930)" d="M29.6325 829.626 L35.6047 829.626 Q34.1117 832.335 33.3825 835.078 Q32.6186 837.786 32.6186 840.564 Q32.6186 846.779 36.5769 850.216 Q40.5005 853.654 47.6185 853.654 Q54.7366 853.654 58.6949 850.216 Q62.6185 846.779 62.6185 840.564 Q62.6185 837.786 61.8893 835.078 Q61.1254 832.335 59.6324 829.626 L65.5351 829.626 Q66.7851 832.3 67.4101 835.182 Q68.0351 838.029 68.0351 841.258 Q68.0351 850.043 62.5143 855.216 Q56.9935 860.39 47.6185 860.39 Q38.1047 860.39 32.6533 855.182 Q27.202 849.939 27.202 840.842 Q27.202 837.89 27.827 835.078 Q28.4173 832.265 29.6325 829.626 Z" fill="#000000" fill-rule="evenodd" fill-opacity="1" /><path clip-path="url(#clip930)" d="M45.9866 785.252 L49.1116 785.252 L49.1116 814.626 Q55.7088 814.21 59.181 810.668 Q62.6185 807.092 62.6185 800.738 Q62.6185 797.057 61.7157 793.62 Q60.8129 790.147 59.0074 786.745 L65.049 786.745 Q66.5073 790.182 67.2712 793.793 Q68.0351 797.404 68.0351 801.12 Q68.0351 810.425 62.6185 815.876 Q57.2018 821.293 47.9658 821.293 Q38.4172 821.293 32.827 816.154 Q27.202 810.981 27.202 802.231 Q27.202 794.383 32.2714 789.835 Q37.3061 785.252 45.9866 785.252 M44.1116 791.64 Q38.8686 791.71 35.7436 794.592 Q32.6186 797.439 32.6186 802.161 Q32.6186 807.508 35.6394 810.738 Q38.6603 813.932 44.1463 814.418 L44.1116 791.64 Z" fill="#000000" fill-rule="evenodd" fill-opacity="1" /><path clip-path="url(#clip930)" d="M35.6047 744.488 Q31.2992 742.092 29.2506 738.759 Q27.202 735.425 27.202 730.912 Q27.202 724.835 31.4728 721.537 Q35.7089 718.238 43.5561 718.238 L67.0282 718.238 L67.0282 724.662 L43.7644 724.662 Q38.1741 724.662 35.4658 726.641 Q32.7575 728.62 32.7575 732.682 Q32.7575 737.648 36.0561 740.53 Q39.3547 743.412 45.0491 743.412 L67.0282 743.412 L67.0282 749.835 L43.7644 749.835 Q38.1394 749.835 35.4658 751.814 Q32.7575 753.793 32.7575 757.925 Q32.7575 762.821 36.0908 765.703 Q39.3894 768.585 45.0491 768.585 L67.0282 768.585 L67.0282 775.009 L28.1395 775.009 L28.1395 768.585 L34.1811 768.585 Q30.6047 766.397 28.9034 763.342 Q27.202 760.286 27.202 756.085 Q27.202 751.849 29.3547 748.898 Q31.5075 745.911 35.6047 744.488 Z" fill="#000000" fill-rule="evenodd" fill-opacity="1" /><path clip-path="url(#clip930)" d="M45.9866 672.231 L49.1116 672.231 L49.1116 701.606 Q55.7088 701.19 59.181 697.648 Q62.6185 694.071 62.6185 687.717 Q62.6185 684.037 61.7157 680.599 Q60.8129 677.127 59.0074 673.724 L65.049 673.724 Q66.5073 677.162 67.2712 680.773 Q68.0351 684.384 68.0351 688.099 Q68.0351 697.405 62.6185 702.856 Q57.2018 708.273 47.9658 708.273 Q38.4172 708.273 32.827 703.134 Q27.202 697.96 27.202 689.21 Q27.202 681.363 32.2714 676.815 Q37.3061 672.231 45.9866 672.231 M44.1116 678.62 Q38.8686 678.69 35.7436 681.572 Q32.6186 684.419 32.6186 689.141 Q32.6186 694.488 35.6394 697.717 Q38.6603 700.912 44.1463 701.398 L44.1116 678.62 Z" fill="#000000" fill-rule="evenodd" fill-opacity="1" /><path clip-path="url(#clip930)" d="M43.5561 629.419 L67.0282 629.419 L67.0282 635.808 L43.7644 635.808 Q38.2436 635.808 35.5005 637.961 Q32.7575 640.113 32.7575 644.419 Q32.7575 649.593 36.0561 652.579 Q39.3547 655.565 45.0491 655.565 L67.0282 655.565 L67.0282 661.988 L28.1395 661.988 L28.1395 655.565 L34.1811 655.565 Q30.6742 653.273 28.9381 650.183 Q27.202 647.058 27.202 642.995 Q27.202 636.294 31.3686 632.857 Q35.5005 629.419 43.5561 629.419 Z" fill="#000000" fill-rule="evenodd" fill-opacity="1" /><path clip-path="url(#clip930)" d="M17.0979 610.357 L28.1395 610.357 L28.1395 597.197 L33.1047 597.197 L33.1047 610.357 L54.2157 610.357 Q58.9726 610.357 60.3268 609.072 Q61.681 607.753 61.681 603.759 L61.681 597.197 L67.0282 597.197 L67.0282 603.759 Q67.0282 611.155 64.2851 613.968 Q61.5074 616.78 54.2157 616.78 L33.1047 616.78 L33.1047 621.468 L28.1395 621.468 L28.1395 616.78 L17.0979 616.78 L17.0979 610.357 Z" fill="#000000" fill-rule="evenodd" fill-opacity="1" /><path clip-path="url(#clip930)" d="M13.0007 566.781 L13.0007 552.058 L17.9659 552.058 L17.9659 560.392 L71.4379 560.392 L71.4379 552.058 L76.4031 552.058 L76.4031 566.781 L13.0007 566.781 Z" fill="#000000" fill-rule="evenodd" fill-opacity="1" /><path clip-path="url(#clip930)" d="M35.6047 508.17 Q31.2992 505.774 29.2506 502.441 Q27.202 499.107 27.202 494.593 Q27.202 488.517 31.4728 485.218 Q35.7089 481.92 43.5561 481.92 L67.0282 481.92 L67.0282 488.343 L43.7644 488.343 Q38.1741 488.343 35.4658 490.323 Q32.7575 492.302 32.7575 496.364 Q32.7575 501.329 36.0561 504.211 Q39.3547 507.093 45.0491 507.093 L67.0282 507.093 L67.0282 513.517 L43.7644 513.517 Q38.1394 513.517 35.4658 515.496 Q32.7575 517.475 32.7575 521.607 Q32.7575 526.503 36.0908 529.385 Q39.3894 532.267 45.0491 532.267 L67.0282 532.267 L67.0282 538.69 L28.1395 538.69 L28.1395 532.267 L34.1811 532.267 Q30.6047 530.079 28.9034 527.024 Q27.202 523.968 27.202 519.767 Q27.202 515.531 29.3547 512.579 Q31.5075 509.593 35.6047 508.17 Z" fill="#000000" fill-rule="evenodd" fill-opacity="1" /><path clip-path="url(#clip930)" d="M13.0007 454.246 L76.4031 454.246 L76.4031 468.969 L71.4379 468.969 L71.4379 460.67 L17.9659 460.67 L17.9659 468.969 L13.0007 468.969 L13.0007 454.246 Z" fill="#000000" fill-rule="evenodd" fill-opacity="1" /><path clip-path="url(#clip930)" d="M905.49 18.8205 L905.49 65.8515 L915.374 65.8515 Q927.891 65.8515 933.684 60.1802 Q939.518 54.509 939.518 42.2752 Q939.518 30.1225 933.684 24.4918 Q927.891 18.8205 915.374 18.8205 L905.49 18.8205 M897.307 12.096 L914.118 12.096 Q931.699 12.096 939.923 19.4281 Q948.146 26.7198 948.146 42.2752 Q948.146 57.9117 939.882 65.2439 Q931.618 72.576 914.118 72.576 L897.307 72.576 L897.307 12.096 Z" fill="#000000" fill-rule="evenodd" fill-opacity="1" /><path clip-path="url(#clip930)" d="M960.866 27.2059 L968.319 27.2059 L968.319 72.576 L960.866 72.576 L960.866 27.2059 M960.866 9.54393 L968.319 9.54393 L968.319 18.9825 L960.866 18.9825 L960.866 9.54393 Z" fill="#000000" fill-rule="evenodd" fill-opacity="1" /><path clip-path="url(#clip930)" d="M1012.84 28.5427 L1012.84 35.5912 Q1009.68 33.9709 1006.28 33.1607 Q1002.87 32.3505 999.228 32.3505 Q993.678 32.3505 990.883 34.0519 Q988.128 35.7533 988.128 39.156 Q988.128 41.7486 990.113 43.2475 Q992.098 44.7058 998.094 46.0426 L1000.65 46.6097 Q1008.59 48.3111 1011.91 51.4303 Q1015.27 54.509 1015.27 60.0587 Q1015.27 66.3781 1010.25 70.0644 Q1005.26 73.7508 996.514 73.7508 Q992.868 73.7508 988.898 73.0216 Q984.969 72.3329 980.594 70.9151 L980.594 63.2184 Q984.726 65.3654 988.736 66.4591 Q992.746 67.5124 996.676 67.5124 Q1001.94 67.5124 1004.78 65.73 Q1007.61 63.9071 1007.61 60.6258 Q1007.61 57.5877 1005.55 55.9673 Q1003.52 54.3469 996.595 52.8481 L994.002 52.2405 Q987.075 50.7821 983.996 47.7845 Q980.918 44.7463 980.918 39.4801 Q980.918 33.0797 985.455 29.5959 Q989.992 26.1121 998.337 26.1121 Q1002.47 26.1121 1006.11 26.7198 Q1009.76 27.3274 1012.84 28.5427 Z" fill="#000000" fill-rule="evenodd" fill-opacity="1" /><path clip-path="url(#clip930)" d="M1034.35 65.7705 L1034.35 89.8329 L1026.86 89.8329 L1026.86 27.2059 L1034.35 27.2059 L1034.35 34.0924 Q1036.7 30.0415 1040.26 28.0971 Q1043.87 26.1121 1048.85 26.1121 Q1057.12 26.1121 1062.26 32.6746 Q1067.45 39.2371 1067.45 49.9314 Q1067.45 60.6258 1062.26 67.1883 Q1057.12 73.7508 1048.85 73.7508 Q1043.87 73.7508 1040.26 71.8063 Q1036.7 69.8214 1034.35 65.7705 M1059.71 49.9314 Q1059.71 41.7081 1056.31 37.0496 Q1052.94 32.3505 1047.03 32.3505 Q1041.11 32.3505 1037.71 37.0496 Q1034.35 41.7081 1034.35 49.9314 Q1034.35 58.1548 1037.71 62.8538 Q1041.11 67.5124 1047.03 67.5124 Q1052.94 67.5124 1056.31 62.8538 Q1059.71 58.1548 1059.71 49.9314 Z" fill="#000000" fill-rule="evenodd" fill-opacity="1" /><path clip-path="url(#clip930)" d="M1079.8 9.54393 L1087.25 9.54393 L1087.25 72.576 L1079.8 72.576 L1079.8 9.54393 Z" fill="#000000" fill-rule="evenodd" fill-opacity="1" /><path clip-path="url(#clip930)" d="M1123.47 49.7694 Q1114.44 49.7694 1110.95 51.8354 Q1107.47 53.9013 1107.47 58.8839 Q1107.47 62.8538 1110.06 65.2034 Q1112.69 67.5124 1117.19 67.5124 Q1123.39 67.5124 1127.11 63.1374 Q1130.88 58.7219 1130.88 51.4303 L1130.88 49.7694 L1123.47 49.7694 M1138.34 46.6907 L1138.34 72.576 L1130.88 72.576 L1130.88 65.6895 Q1128.33 69.8214 1124.52 71.8063 Q1120.71 73.7508 1115.21 73.7508 Q1108.24 73.7508 1104.11 69.8619 Q1100.01 65.9325 1100.01 59.3701 Q1100.01 51.7138 1105.12 47.825 Q1110.26 43.9361 1120.43 43.9361 L1130.88 43.9361 L1130.88 43.2069 Q1130.88 38.0623 1127.48 35.2672 Q1124.12 32.4315 1118 32.4315 Q1114.11 32.4315 1110.43 33.3632 Q1106.74 34.295 1103.34 36.1584 L1103.34 29.2718 Q1107.43 27.692 1111.28 26.9223 Q1115.12 26.1121 1118.77 26.1121 Q1128.61 26.1121 1133.47 31.2163 Q1138.34 36.3204 1138.34 46.6907 Z" fill="#000000" fill-rule="evenodd" fill-opacity="1" /><path clip-path="url(#clip930)" d="M1186.34 28.9478 L1186.34 35.9153 Q1183.18 34.1734 1179.98 33.3227 Q1176.82 32.4315 1173.58 32.4315 Q1166.33 32.4315 1162.32 37.0496 Q1158.31 41.6271 1158.31 49.9314 Q1158.31 58.2358 1162.32 62.8538 Q1166.33 67.4314 1173.58 67.4314 Q1176.82 67.4314 1179.98 66.5807 Q1183.18 65.6895 1186.34 63.9476 L1186.34 70.8341 Q1183.22 72.2924 1179.86 73.0216 Q1176.54 73.7508 1172.77 73.7508 Q1162.52 73.7508 1156.48 67.3098 Q1150.45 60.8689 1150.45 49.9314 Q1150.45 38.832 1156.52 32.472 Q1162.64 26.1121 1173.25 26.1121 Q1176.7 26.1121 1179.98 26.8413 Q1183.26 27.5299 1186.34 28.9478 Z" fill="#000000" fill-rule="evenodd" fill-opacity="1" /><path clip-path="url(#clip930)" d="M1238.11 48.0275 L1238.11 51.6733 L1203.84 51.6733 Q1204.33 59.3701 1208.46 63.421 Q1212.63 67.4314 1220.04 67.4314 Q1224.34 67.4314 1228.35 66.3781 Q1232.4 65.3249 1236.37 63.2184 L1236.37 70.267 Q1232.36 71.9684 1228.14 72.8596 Q1223.93 73.7508 1219.6 73.7508 Q1208.74 73.7508 1202.38 67.4314 Q1196.06 61.1119 1196.06 50.3365 Q1196.06 39.1965 1202.06 32.6746 Q1208.09 26.1121 1218.3 26.1121 Q1227.46 26.1121 1232.76 32.0264 Q1238.11 37.9003 1238.11 48.0275 M1230.66 45.84 Q1230.57 39.7232 1227.21 36.0774 Q1223.89 32.4315 1218.38 32.4315 Q1212.14 32.4315 1208.38 35.9558 Q1204.65 39.4801 1204.08 45.8805 L1230.66 45.84 Z" fill="#000000" fill-rule="evenodd" fill-opacity="1" /><path clip-path="url(#clip930)" d="M1285.67 35.9153 Q1288.46 30.8922 1292.35 28.5022 Q1296.24 26.1121 1301.51 26.1121 Q1308.6 26.1121 1312.44 31.0947 Q1316.29 36.0368 1316.29 45.1919 L1316.29 72.576 L1308.8 72.576 L1308.8 45.4349 Q1308.8 38.913 1306.49 35.7533 Q1304.18 32.5936 1299.44 32.5936 Q1293.65 32.5936 1290.29 36.4419 Q1286.92 40.2903 1286.92 46.9338 L1286.92 72.576 L1279.43 72.576 L1279.43 45.4349 Q1279.43 38.8725 1277.12 35.7533 Q1274.81 32.5936 1269.99 32.5936 Q1264.28 32.5936 1260.92 36.4824 Q1257.55 40.3308 1257.55 46.9338 L1257.55 72.576 L1250.06 72.576 L1250.06 27.2059 L1257.55 27.2059 L1257.55 34.2544 Q1260.11 30.082 1263.67 28.0971 Q1267.24 26.1121 1272.14 26.1121 Q1277.08 26.1121 1280.52 28.6237 Q1284.01 31.1352 1285.67 35.9153 Z" fill="#000000" fill-rule="evenodd" fill-opacity="1" /><path clip-path="url(#clip930)" d="M1369.97 48.0275 L1369.97 51.6733 L1335.7 51.6733 Q1336.18 59.3701 1340.31 63.421 Q1344.49 67.4314 1351.9 67.4314 Q1356.19 67.4314 1360.2 66.3781 Q1364.25 65.3249 1368.22 63.2184 L1368.22 70.267 Q1364.21 71.9684 1360 72.8596 Q1355.79 73.7508 1351.45 73.7508 Q1340.6 73.7508 1334.24 67.4314 Q1327.92 61.1119 1327.92 50.3365 Q1327.92 39.1965 1333.91 32.6746 Q1339.95 26.1121 1350.16 26.1121 Q1359.31 26.1121 1364.62 32.0264 Q1369.97 37.9003 1369.97 48.0275 M1362.51 45.84 Q1362.43 39.7232 1359.07 36.0774 Q1355.75 32.4315 1350.24 32.4315 Q1344 32.4315 1340.23 35.9558 Q1336.51 39.4801 1335.94 45.8805 L1362.51 45.84 Z" fill="#000000" fill-rule="evenodd" fill-opacity="1" /><path clip-path="url(#clip930)" d="M1419.91 45.1919 L1419.91 72.576 L1412.46 72.576 L1412.46 45.4349 Q1412.46 38.994 1409.95 35.7938 Q1407.44 32.5936 1402.41 32.5936 Q1396.38 32.5936 1392.89 36.4419 Q1389.41 40.2903 1389.41 46.9338 L1389.41 72.576 L1381.92 72.576 L1381.92 27.2059 L1389.41 27.2059 L1389.41 34.2544 Q1392.08 30.163 1395.69 28.1376 Q1399.34 26.1121 1404.08 26.1121 Q1411.89 26.1121 1415.9 30.9732 Q1419.91 35.7938 1419.91 45.1919 Z" fill="#000000" fill-rule="evenodd" fill-opacity="1" /><path clip-path="url(#clip930)" d="M1442.15 14.324 L1442.15 27.2059 L1457.51 27.2059 L1457.51 32.9987 L1442.15 32.9987 L1442.15 57.6282 Q1442.15 63.1779 1443.65 64.7578 Q1445.19 66.3376 1449.85 66.3376 L1457.51 66.3376 L1457.51 72.576 L1449.85 72.576 Q1441.22 72.576 1437.94 69.3758 Q1434.66 66.1351 1434.66 57.6282 L1434.66 32.9987 L1429.19 32.9987 L1429.19 27.2059 L1434.66 27.2059 L1434.66 14.324 L1442.15 14.324 Z" fill="#000000" fill-rule="evenodd" fill-opacity="1" /><path clip-path="url(#clip930)" d="M1529.01 35.9153 Q1531.8 30.8922 1535.69 28.5022 Q1539.58 26.1121 1544.84 26.1121 Q1551.93 26.1121 1555.78 31.0947 Q1559.63 36.0368 1559.63 45.1919 L1559.63 72.576 L1552.14 72.576 L1552.14 45.4349 Q1552.14 38.913 1549.83 35.7533 Q1547.52 32.5936 1542.78 32.5936 Q1536.99 32.5936 1533.62 36.4419 Q1530.26 40.2903 1530.26 46.9338 L1530.26 72.576 L1522.77 72.576 L1522.77 45.4349 Q1522.77 38.8725 1520.46 35.7533 Q1518.15 32.5936 1513.33 32.5936 Q1507.62 32.5936 1504.25 36.4824 Q1500.89 40.3308 1500.89 46.9338 L1500.89 72.576 L1493.4 72.576 L1493.4 27.2059 L1500.89 27.2059 L1500.89 34.2544 Q1503.44 30.082 1507.01 28.0971 Q1510.57 26.1121 1515.48 26.1121 Q1520.42 26.1121 1523.86 28.6237 Q1527.34 31.1352 1529.01 35.9153 Z" fill="#000000" fill-rule="evenodd" fill-opacity="1" /><path clip-path="url(#clip930)" d="M1592.08 32.4315 Q1586.08 32.4315 1582.6 37.1306 Q1579.11 41.7891 1579.11 49.9314 Q1579.11 58.0738 1582.56 62.7728 Q1586.04 67.4314 1592.08 67.4314 Q1598.03 67.4314 1601.52 62.7323 Q1605 58.0333 1605 49.9314 Q1605 41.8701 1601.52 37.1711 Q1598.03 32.4315 1592.08 32.4315 M1592.08 26.1121 Q1601.8 26.1121 1607.35 32.4315 Q1612.9 38.7509 1612.9 49.9314 Q1612.9 61.0714 1607.35 67.4314 Q1601.8 73.7508 1592.08 73.7508 Q1582.31 73.7508 1576.77 67.4314 Q1571.26 61.0714 1571.26 49.9314 Q1571.26 38.7509 1576.77 32.4315 Q1582.31 26.1121 1592.08 26.1121 Z" fill="#000000" fill-rule="evenodd" fill-opacity="1" /><path clip-path="url(#clip930)" d="M1655.11 34.0924 L1655.11 9.54393 L1662.56 9.54393 L1662.56 72.576 L1655.11 72.576 L1655.11 65.7705 Q1652.76 69.8214 1649.15 71.8063 Q1645.59 73.7508 1640.57 73.7508 Q1632.34 73.7508 1627.16 67.1883 Q1622.01 60.6258 1622.01 49.9314 Q1622.01 39.2371 1627.16 32.6746 Q1632.34 26.1121 1640.57 26.1121 Q1645.59 26.1121 1649.15 28.0971 Q1652.76 30.0415 1655.11 34.0924 M1629.71 49.9314 Q1629.71 58.1548 1633.07 62.8538 Q1636.48 67.5124 1642.39 67.5124 Q1648.3 67.5124 1651.71 62.8538 Q1655.11 58.1548 1655.11 49.9314 Q1655.11 41.7081 1651.71 37.0496 Q1648.3 32.3505 1642.39 32.3505 Q1636.48 32.3505 1633.07 37.0496 Q1629.71 41.7081 1629.71 49.9314 Z" fill="#000000" fill-rule="evenodd" fill-opacity="1" /><path clip-path="url(#clip930)" d="M1716.72 48.0275 L1716.72 51.6733 L1682.45 51.6733 Q1682.94 59.3701 1687.07 63.421 Q1691.24 67.4314 1698.66 67.4314 Q1702.95 67.4314 1706.96 66.3781 Q1711.01 65.3249 1714.98 63.2184 L1714.98 70.267 Q1710.97 71.9684 1706.76 72.8596 Q1702.55 73.7508 1698.21 73.7508 Q1687.35 73.7508 1681 67.4314 Q1674.68 61.1119 1674.68 50.3365 Q1674.68 39.1965 1680.67 32.6746 Q1686.71 26.1121 1696.92 26.1121 Q1706.07 26.1121 1711.38 32.0264 Q1716.72 37.9003 1716.72 48.0275 M1709.27 45.84 Q1709.19 39.7232 1705.83 36.0774 Q1702.51 32.4315 1697 32.4315 Q1690.76 32.4315 1686.99 35.9558 Q1683.26 39.4801 1682.7 45.8805 L1709.27 45.84 Z" fill="#000000" fill-rule="evenodd" fill-opacity="1" /><path clip-path="url(#clip930)" d="M1728.96 9.54393 L1736.41 9.54393 L1736.41 72.576 L1728.96 72.576 L1728.96 9.54393 Z" fill="#000000" fill-rule="evenodd" fill-opacity="1" /><path clip-path="url(#clip930)" d="M1780.85 65.6895 L1794.22 65.6895 L1794.22 19.5497 L1779.68 22.4663 L1779.68 15.0127 L1794.14 12.096 L1802.32 12.096 L1802.32 65.6895 L1815.69 65.6895 L1815.69 72.576 L1780.85 72.576 L1780.85 65.6895 Z" fill="#000000" fill-rule="evenodd" fill-opacity="1" /><polyline clip-path="url(#clip932)" style="stroke:#009af9; stroke-linecap:round; stroke-linejoin:round; stroke-width:8; stroke-opacity:1; fill:none" points="
  416.631,159.645 2296.36,159.645 
  "/>
<polyline clip-path="url(#clip932)" style="stroke:#e26f46; stroke-linecap:round; stroke-linejoin:round; stroke-width:8; stroke-opacity:1; fill:none" points="
  416.631,614.617 2296.36,614.617 
  "/>
<polyline clip-path="url(#clip932)" style="stroke:#008000; stroke-linecap:round; stroke-linejoin:round; stroke-width:8; stroke-opacity:1; fill:none" stroke-dasharray="4, 8" points="
  416.631,1365.41 421.33,1365.34 426.029,1365.14 430.729,1364.81 435.428,1364.35 440.127,1363.75 444.827,1363.02 449.526,1362.16 454.225,1361.16 458.925,1360.04 
  463.624,1358.78 468.323,1357.38 473.023,1355.86 477.722,1354.21 482.421,1352.42 487.121,1350.52 491.82,1348.48 496.519,1346.32 501.219,1344.04 505.918,1341.65 
  510.617,1339.13 515.317,1336.5 520.016,1333.75 524.715,1330.9 529.415,1327.93 534.114,1324.87 538.813,1321.7 543.513,1318.44 548.212,1315.08 552.911,1311.62 
  557.611,1308.08 562.31,1304.45 567.009,1300.75 571.709,1296.96 576.408,1293.1 581.107,1289.17 585.807,1285.17 590.506,1281.11 595.205,1276.99 599.905,1272.82 
  604.604,1268.6 609.303,1264.33 614.003,1260.01 618.702,1255.66 623.401,1251.28 628.101,1246.87 632.8,1242.43 637.499,1237.97 642.199,1233.5 646.898,1229.02 
  651.597,1224.53 656.297,1220.04 660.996,1215.55 665.695,1211.06 670.395,1206.59 675.094,1202.14 679.793,1197.71 684.493,1193.3 689.192,1188.92 693.891,1184.58 
  698.591,1180.27 703.29,1176.01 707.989,1171.79 712.689,1167.62 717.388,1163.51 722.087,1159.46 726.787,1155.48 731.486,1151.56 736.185,1147.71 740.885,1143.93 
  745.584,1140.24 750.283,1136.63 754.983,1133.1 759.682,1129.67 764.381,1126.33 769.081,1123.08 773.78,1119.94 778.479,1116.9 783.179,1113.97 787.878,1111.14 
  792.577,1108.43 797.277,1105.83 801.976,1103.36 806.675,1101 811.375,1098.77 816.074,1096.66 820.773,1094.68 825.473,1092.83 830.172,1091.11 834.871,1089.53 
  839.571,1088.09 844.27,1086.78 848.969,1085.62 853.669,1084.6 858.368,1083.72 863.067,1082.99 867.767,1082.4 872.466,1081.96 877.165,1081.68 881.865,1081.54 
  886.564,1081.56 891.263,1081.69 895.963,1081.92 900.662,1082.26 905.361,1082.71 910.061,1083.27 914.76,1083.94 919.459,1084.72 924.159,1085.61 928.858,1086.61 
  933.557,1087.71 938.257,1088.93 942.956,1090.26 947.655,1091.69 952.355,1093.23 957.054,1094.87 961.753,1096.62 966.453,1098.47 971.152,1100.42 975.851,1102.46 
  980.551,1104.61 985.25,1106.85 989.949,1109.18 994.649,1111.6 999.348,1114.11 1004.05,1116.71 1008.75,1119.39 1013.45,1122.16 1018.15,1125 1022.84,1127.92 
  1027.54,1130.91 1032.24,1133.97 1036.94,1137.1 1041.64,1140.29 1046.34,1143.54 1051.04,1146.85 1055.74,1150.22 1060.44,1153.63 1065.14,1157.1 1069.84,1160.61 
  1074.54,1164.16 1079.24,1167.74 1083.94,1171.36 1088.64,1175.01 1093.33,1178.69 1098.03,1182.39 1102.73,1186.11 1107.43,1189.84 1112.13,1193.59 1116.83,1197.34 
  1121.53,1201.1 1126.23,1204.85 1130.93,1208.61 1135.63,1212.36 1140.33,1216.09 1145.03,1219.82 1149.73,1223.52 1154.43,1227.2 1159.13,1230.86 1163.82,1234.48 
  1168.52,1238.08 1173.22,1241.63 1177.92,1245.15 1182.62,1248.62 1187.32,1252.05 1192.02,1255.42 1196.72,1258.74 1201.42,1262.01 1206.12,1265.21 1210.82,1268.35 
  1215.52,1271.42 1220.22,1274.42 1224.92,1277.34 1229.62,1280.19 1234.31,1282.96 1239.01,1285.65 1243.71,1288.26 1248.41,1290.77 1253.11,1293.2 1257.81,1295.53 
  1262.51,1297.77 1267.21,1299.91 1271.91,1301.95 1276.61,1303.88 1281.31,1305.71 1286.01,1307.43 1290.71,1309.05 1295.41,1310.55 1300.11,1311.95 1304.8,1313.22 
  1309.5,1314.38 1314.2,1315.42 1318.9,1316.35 1323.6,1317.15 1328.3,1317.83 1333,1318.38 1337.7,1318.81 1342.4,1319.12 1347.1,1319.29 1351.8,1319.34 
  1356.5,1319.27 1361.2,1319.12 1365.9,1318.89 1370.6,1318.58 1375.29,1318.18 1379.99,1317.69 1384.69,1317.12 1389.39,1316.46 1394.09,1315.72 1398.79,1314.89 
  1403.49,1313.97 1408.19,1312.97 1412.89,1311.88 1417.59,1310.71 1422.29,1309.46 1426.99,1308.12 1431.69,1306.7 1436.39,1305.21 1441.09,1303.63 1445.78,1301.97 
  1450.48,1300.24 1455.18,1298.44 1459.88,1296.56 1464.58,1294.61 1469.28,1292.59 1473.98,1290.5 1478.68,1288.35 1483.38,1286.13 1488.08,1283.85 1492.78,1281.51 
  1497.48,1279.12 1502.18,1276.67 1506.88,1274.16 1511.58,1271.61 1516.27,1269.01 1520.97,1266.36 1525.67,1263.67 1530.37,1260.94 1535.07,1258.17 1539.77,1255.37 
  1544.47,1252.54 1549.17,1249.68 1553.87,1246.79 1558.57,1243.88 1563.27,1240.94 1567.97,1237.99 1572.67,1235.03 1577.37,1232.05 1582.07,1229.07 1586.76,1226.07 
  1591.46,1223.08 1596.16,1220.08 1600.86,1217.09 1605.56,1214.1 1610.26,1211.13 1614.96,1208.16 1619.66,1205.21 1624.36,1202.28 1629.06,1199.37 1633.76,1196.48 
  1638.46,1193.62 1643.16,1190.79 1647.86,1187.99 1652.56,1185.23 1657.25,1182.5 1661.95,1179.82 1666.65,1177.18 1671.35,1174.58 1676.05,1172.04 1680.75,1169.55 
  1685.45,1167.11 1690.15,1164.73 1694.85,1162.41 1699.55,1160.15 1704.25,1157.95 1708.95,1155.83 1713.65,1153.77 1718.35,1151.78 1723.05,1149.87 1727.74,1148.03 
  1732.44,1146.27 1737.14,1144.59 1741.84,1142.99 1746.54,1141.47 1751.24,1140.04 1755.94,1138.69 1760.64,1137.44 1765.34,1136.27 1770.04,1135.2 1774.74,1134.21 
  1779.44,1133.33 1784.14,1132.54 1788.84,1131.84 1793.54,1131.25 1798.23,1130.75 1802.93,1130.35 1807.63,1130.06 1812.33,1129.87 1817.03,1129.78 1821.73,1129.8 
  1826.43,1129.88 1831.13,1130.02 1835.83,1130.21 1840.53,1130.46 1845.23,1130.77 1849.93,1131.15 1854.63,1131.58 1859.33,1132.07 1864.03,1132.63 1868.72,1133.25 
  1873.42,1133.92 1878.12,1134.66 1882.82,1135.46 1887.52,1136.32 1892.22,1137.23 1896.92,1138.21 1901.62,1139.24 1906.32,1140.33 1911.02,1141.47 1915.72,1142.67 
  1920.42,1143.93 1925.12,1145.23 1929.82,1146.59 1934.52,1148 1939.21,1149.46 1943.91,1150.97 1948.61,1152.52 1953.31,1154.12 1958.01,1155.76 1962.71,1157.45 
  1967.41,1159.18 1972.11,1160.94 1976.81,1162.75 1981.51,1164.59 1986.21,1166.46 1990.91,1168.37 1995.61,1170.32 2000.31,1172.28 2005.01,1174.28 2009.7,1176.3 
  2014.4,1178.34 2019.1,1180.41 2023.8,1182.5 2028.5,1184.6 2033.2,1186.72 2037.9,1188.85 2042.6,1190.99 2047.3,1193.14 2052,1195.3 2056.7,1197.46 
  2061.4,1199.62 2066.1,1201.79 2070.8,1203.95 2075.5,1206.11 2080.19,1208.26 2084.89,1210.41 2089.59,1212.54 2094.29,1214.66 2098.99,1216.77 2103.69,1218.85 
  2108.39,1220.92 2113.09,1222.97 2117.79,1225 2122.49,1227 2127.19,1228.97 2131.89,1230.91 2136.59,1232.82 2141.29,1234.7 2145.99,1236.54 2150.68,1238.34 
  2155.38,1240.11 2160.08,1241.83 2164.78,1243.51 2169.48,1245.15 2174.18,1246.74 2178.88,1248.28 2183.58,1249.77 2188.28,1251.21 2192.98,1252.59 2197.68,1253.92 
  2202.38,1255.2 2207.08,1256.41 2211.78,1257.57 2216.48,1258.66 2221.17,1259.7 2225.87,1260.66 2230.57,1261.57 2235.27,1262.41 2239.97,1263.18 2244.67,1263.88 
  2249.37,1264.51 2254.07,1265.07 2258.77,1265.56 2263.47,1265.98 2268.17,1266.32 2272.87,1266.59 2277.57,1266.78 2282.27,1266.9 2286.97,1266.94 2291.66,1266.92 
  2296.36,1266.87 
  "/>
<path clip-path="url(#clip930)" d="
M1430.09 477.116 L2286.34 477.116 L2286.34 166.076 L1430.09 166.076  Z
  " fill="#ffffff" fill-rule="evenodd" fill-opacity="1"/>
<polyline clip-path="url(#clip930)" style="stroke:#000000; stroke-linecap:round; stroke-linejoin:round; stroke-width:4; stroke-opacity:1; fill:none" points="
  1430.09,477.116 2286.34,477.116 2286.34,166.076 1430.09,166.076 1430.09,477.116 
  "/>
<polyline clip-path="url(#clip930)" style="stroke:#009af9; stroke-linecap:round; stroke-linejoin:round; stroke-width:6; stroke-opacity:1; fill:none" points="
  1452.23,243.836 1585.06,243.836 
  "/>
<path clip-path="url(#clip930)" d="M1634.84 232.013 L1634.84 238.054 Q1632.13 236.666 1629.22 235.971 Q1626.3 235.277 1623.17 235.277 Q1618.42 235.277 1616.02 236.735 Q1613.66 238.193 1613.66 241.11 Q1613.66 243.332 1615.36 244.617 Q1617.06 245.867 1622.2 247.013 L1624.39 247.499 Q1631.2 248.957 1634.04 251.631 Q1636.92 254.27 1636.92 259.027 Q1636.92 264.443 1632.62 267.603 Q1628.35 270.763 1620.85 270.763 Q1617.72 270.763 1614.32 270.138 Q1610.95 269.547 1607.2 268.332 L1607.2 261.735 Q1610.74 263.575 1614.18 264.513 Q1617.62 265.415 1620.99 265.415 Q1625.5 265.415 1627.93 263.888 Q1630.36 262.325 1630.36 259.513 Q1630.36 256.909 1628.59 255.52 Q1626.86 254.131 1620.92 252.846 L1618.7 252.325 Q1612.76 251.075 1610.12 248.506 Q1607.48 245.902 1607.48 241.388 Q1607.48 235.902 1611.37 232.916 Q1615.26 229.93 1622.41 229.93 Q1625.95 229.93 1629.08 230.45 Q1632.2 230.971 1634.84 232.013 Z" fill="#000000" fill-rule="evenodd" fill-opacity="1" /><path clip-path="url(#clip930)" d="M1647.1 230.867 L1653.49 230.867 L1653.49 269.756 L1647.1 269.756 L1647.1 230.867 M1647.1 215.728 L1653.49 215.728 L1653.49 223.818 L1647.1 223.818 L1647.1 215.728 Z" fill="#000000" fill-rule="evenodd" fill-opacity="1" /><path clip-path="url(#clip930)" d="M1697.13 238.332 Q1699.53 234.027 1702.86 231.978 Q1706.2 229.93 1710.71 229.93 Q1716.79 229.93 1720.08 234.2 Q1723.38 238.436 1723.38 246.284 L1723.38 269.756 L1716.96 269.756 L1716.96 246.492 Q1716.96 240.902 1714.98 238.193 Q1713 235.485 1708.94 235.485 Q1703.97 235.485 1701.09 238.784 Q1698.21 242.082 1698.21 247.777 L1698.21 269.756 L1691.79 269.756 L1691.79 246.492 Q1691.79 240.867 1689.81 238.193 Q1687.83 235.485 1683.7 235.485 Q1678.8 235.485 1675.92 238.818 Q1673.04 242.117 1673.04 247.777 L1673.04 269.756 L1666.61 269.756 L1666.61 230.867 L1673.04 230.867 L1673.04 236.909 Q1675.22 233.332 1678.28 231.631 Q1681.33 229.93 1685.54 229.93 Q1689.77 229.93 1692.72 232.082 Q1695.71 234.235 1697.13 238.332 Z" fill="#000000" fill-rule="evenodd" fill-opacity="1" /><path clip-path="url(#clip930)" d="M1742.31 263.922 L1742.31 284.547 L1735.88 284.547 L1735.88 230.867 L1742.31 230.867 L1742.31 236.77 Q1744.32 233.298 1747.38 231.631 Q1750.47 229.93 1754.74 229.93 Q1761.82 229.93 1766.23 235.555 Q1770.67 241.179 1770.67 250.346 Q1770.67 259.513 1766.23 265.138 Q1761.82 270.763 1754.74 270.763 Q1750.47 270.763 1747.38 269.096 Q1744.32 267.395 1742.31 263.922 M1764.04 250.346 Q1764.04 243.298 1761.13 239.304 Q1758.24 235.277 1753.17 235.277 Q1748.1 235.277 1745.19 239.304 Q1742.31 243.298 1742.31 250.346 Q1742.31 257.395 1745.19 261.422 Q1748.1 265.415 1753.17 265.415 Q1758.24 265.415 1761.13 261.422 Q1764.04 257.395 1764.04 250.346 Z" fill="#000000" fill-rule="evenodd" fill-opacity="1" /><path clip-path="url(#clip930)" d="M1781.26 215.728 L1787.65 215.728 L1787.65 269.756 L1781.26 269.756 L1781.26 215.728 Z" fill="#000000" fill-rule="evenodd" fill-opacity="1" /><path clip-path="url(#clip930)" d="M1834.28 248.714 L1834.28 251.839 L1804.91 251.839 Q1805.33 258.436 1808.87 261.909 Q1812.44 265.346 1818.8 265.346 Q1822.48 265.346 1825.92 264.443 Q1829.39 263.54 1832.79 261.735 L1832.79 267.777 Q1829.35 269.235 1825.74 269.999 Q1822.13 270.763 1818.42 270.763 Q1809.11 270.763 1803.66 265.346 Q1798.24 259.929 1798.24 250.693 Q1798.24 241.145 1803.38 235.555 Q1808.56 229.93 1817.31 229.93 Q1825.15 229.93 1829.7 234.999 Q1834.28 240.034 1834.28 248.714 M1827.9 246.839 Q1827.83 241.596 1824.94 238.471 Q1822.1 235.346 1817.38 235.346 Q1812.03 235.346 1808.8 238.367 Q1805.6 241.388 1805.12 246.874 L1827.9 246.839 Z" fill="#000000" fill-rule="evenodd" fill-opacity="1" /><path clip-path="url(#clip930)" d="M1845.05 217.916 L1874.84 217.916 L1874.84 223.818 L1852.06 223.818 L1852.06 239.096 L1872.62 239.096 L1872.62 244.999 L1852.06 244.999 L1852.06 269.756 L1845.05 269.756 L1845.05 217.916 Z" fill="#000000" fill-rule="evenodd" fill-opacity="1" /><path clip-path="url(#clip930)" d="M1885.95 217.916 L1896.4 217.916 L1909.63 253.193 L1922.93 217.916 L1933.38 217.916 L1933.38 269.756 L1926.54 269.756 L1926.54 224.235 L1913.17 259.79 L1906.12 259.79 L1892.76 224.235 L1892.76 269.756 L1885.95 269.756 L1885.95 217.916 Z" fill="#000000" fill-rule="evenodd" fill-opacity="1" /><path clip-path="url(#clip930)" d="M1946.51 217.916 L1953.56 217.916 L1953.56 249.409 Q1953.56 257.742 1956.58 261.422 Q1959.6 265.068 1966.37 265.068 Q1973.1 265.068 1976.12 261.422 Q1979.15 257.742 1979.15 249.409 L1979.15 217.916 L1986.19 217.916 L1986.19 250.277 Q1986.19 260.415 1981.16 265.589 Q1976.16 270.763 1966.37 270.763 Q1956.54 270.763 1951.51 265.589 Q1946.51 260.415 1946.51 250.277 L1946.51 217.916 Z" fill="#000000" fill-rule="evenodd" fill-opacity="1" /><polyline clip-path="url(#clip930)" style="stroke:#e26f46; stroke-linecap:round; stroke-linejoin:round; stroke-width:6; stroke-opacity:1; fill:none" points="
  1452.23,321.596 1585.06,321.596 
  "/>
<path clip-path="url(#clip930)" d="M1629.98 314.599 Q1628.9 313.974 1627.62 313.696 Q1626.37 313.384 1624.84 313.384 Q1619.42 313.384 1616.51 316.926 Q1613.63 320.433 1613.63 327.03 L1613.63 347.516 L1607.2 347.516 L1607.2 308.627 L1613.63 308.627 L1613.63 314.669 Q1615.64 311.127 1618.87 309.426 Q1622.1 307.69 1626.72 307.69 Q1627.38 307.69 1628.17 307.794 Q1628.97 307.863 1629.95 308.037 L1629.98 314.599 Z" fill="#000000" fill-rule="evenodd" fill-opacity="1" /><path clip-path="url(#clip930)" d="M1668.38 326.474 L1668.38 329.599 L1639.01 329.599 Q1639.42 336.196 1642.97 339.669 Q1646.54 343.106 1652.9 343.106 Q1656.58 343.106 1660.02 342.203 Q1663.49 341.3 1666.89 339.495 L1666.89 345.537 Q1663.45 346.995 1659.84 347.759 Q1656.23 348.523 1652.52 348.523 Q1643.21 348.523 1637.76 343.106 Q1632.34 337.689 1632.34 328.453 Q1632.34 318.905 1637.48 313.315 Q1642.65 307.69 1651.4 307.69 Q1659.25 307.69 1663.8 312.759 Q1668.38 317.794 1668.38 326.474 M1661.99 324.599 Q1661.92 319.356 1659.04 316.231 Q1656.2 313.106 1651.47 313.106 Q1646.13 313.106 1642.9 316.127 Q1639.7 319.148 1639.22 324.634 L1661.99 324.599 Z" fill="#000000" fill-rule="evenodd" fill-opacity="1" /><path clip-path="url(#clip930)" d="M1698.56 293.488 L1698.56 298.801 L1692.45 298.801 Q1689.01 298.801 1687.65 300.19 Q1686.33 301.578 1686.33 305.19 L1686.33 308.627 L1696.86 308.627 L1696.86 313.592 L1686.33 313.592 L1686.33 347.516 L1679.91 347.516 L1679.91 313.592 L1673.8 313.592 L1673.8 308.627 L1679.91 308.627 L1679.91 305.919 Q1679.91 299.426 1682.93 296.474 Q1685.95 293.488 1692.51 293.488 L1698.56 293.488 Z" fill="#000000" fill-rule="evenodd" fill-opacity="1" /><path clip-path="url(#clip930)" d="M1737.17 326.474 L1737.17 329.599 L1707.79 329.599 Q1708.21 336.196 1711.75 339.669 Q1715.33 343.106 1721.68 343.106 Q1725.36 343.106 1728.8 342.203 Q1732.27 341.3 1735.67 339.495 L1735.67 345.537 Q1732.24 346.995 1728.63 347.759 Q1725.01 348.523 1721.3 348.523 Q1711.99 348.523 1706.54 343.106 Q1701.13 337.689 1701.13 328.453 Q1701.13 318.905 1706.26 313.315 Q1711.44 307.69 1720.19 307.69 Q1728.04 307.69 1732.58 312.759 Q1737.17 317.794 1737.17 326.474 M1730.78 324.599 Q1730.71 319.356 1727.83 316.231 Q1724.98 313.106 1720.26 313.106 Q1714.91 313.106 1711.68 316.127 Q1708.49 319.148 1708 324.634 L1730.78 324.599 Z" fill="#000000" fill-rule="evenodd" fill-opacity="1" /><path clip-path="url(#clip930)" d="M1770.19 314.599 Q1769.11 313.974 1767.83 313.696 Q1766.58 313.384 1765.05 313.384 Q1759.63 313.384 1756.72 316.926 Q1753.83 320.433 1753.83 327.03 L1753.83 347.516 L1747.41 347.516 L1747.41 308.627 L1753.83 308.627 L1753.83 314.669 Q1755.85 311.127 1759.08 309.426 Q1762.31 307.69 1766.92 307.69 Q1767.58 307.69 1768.38 307.794 Q1769.18 307.863 1770.15 308.037 L1770.19 314.599 Z" fill="#000000" fill-rule="evenodd" fill-opacity="1" /><path clip-path="url(#clip930)" d="M1808.59 326.474 L1808.59 329.599 L1779.22 329.599 Q1779.63 336.196 1783.17 339.669 Q1786.75 343.106 1793.1 343.106 Q1796.79 343.106 1800.22 342.203 Q1803.69 341.3 1807.1 339.495 L1807.1 345.537 Q1803.66 346.995 1800.05 347.759 Q1796.44 348.523 1792.72 348.523 Q1783.42 348.523 1777.97 343.106 Q1772.55 337.689 1772.55 328.453 Q1772.55 318.905 1777.69 313.315 Q1782.86 307.69 1791.61 307.69 Q1799.46 307.69 1804.01 312.759 Q1808.59 317.794 1808.59 326.474 M1802.2 324.599 Q1802.13 319.356 1799.25 316.231 Q1796.4 313.106 1791.68 313.106 Q1786.33 313.106 1783.1 316.127 Q1779.91 319.148 1779.42 324.634 L1802.2 324.599 Z" fill="#000000" fill-rule="evenodd" fill-opacity="1" /><path clip-path="url(#clip930)" d="M1851.4 324.044 L1851.4 347.516 L1845.01 347.516 L1845.01 324.252 Q1845.01 318.731 1842.86 315.988 Q1840.71 313.245 1836.4 313.245 Q1831.23 313.245 1828.24 316.544 Q1825.26 319.842 1825.26 325.537 L1825.26 347.516 L1818.83 347.516 L1818.83 308.627 L1825.26 308.627 L1825.26 314.669 Q1827.55 311.162 1830.64 309.426 Q1833.76 307.69 1837.83 307.69 Q1844.53 307.69 1847.97 311.856 Q1851.4 315.988 1851.4 324.044 Z" fill="#000000" fill-rule="evenodd" fill-opacity="1" /><path clip-path="url(#clip930)" d="M1892.13 310.12 L1892.13 316.092 Q1889.42 314.599 1886.68 313.87 Q1883.97 313.106 1881.19 313.106 Q1874.98 313.106 1871.54 317.064 Q1868.1 320.988 1868.1 328.106 Q1868.1 335.224 1871.54 339.182 Q1874.98 343.106 1881.19 343.106 Q1883.97 343.106 1886.68 342.377 Q1889.42 341.613 1892.13 340.12 L1892.13 346.023 Q1889.46 347.273 1886.58 347.898 Q1883.73 348.523 1880.5 348.523 Q1871.72 348.523 1866.54 343.002 Q1861.37 337.481 1861.37 328.106 Q1861.37 318.592 1866.58 313.141 Q1871.82 307.69 1880.92 307.69 Q1883.87 307.69 1886.68 308.315 Q1889.49 308.905 1892.13 310.12 Z" fill="#000000" fill-rule="evenodd" fill-opacity="1" /><path clip-path="url(#clip930)" d="M1936.51 326.474 L1936.51 329.599 L1907.13 329.599 Q1907.55 336.196 1911.09 339.669 Q1914.67 343.106 1921.02 343.106 Q1924.7 343.106 1928.14 342.203 Q1931.61 341.3 1935.01 339.495 L1935.01 345.537 Q1931.58 346.995 1927.96 347.759 Q1924.35 348.523 1920.64 348.523 Q1911.33 348.523 1905.88 343.106 Q1900.47 337.689 1900.47 328.453 Q1900.47 318.905 1905.6 313.315 Q1910.78 307.69 1919.53 307.69 Q1927.37 307.69 1931.92 312.759 Q1936.51 317.794 1936.51 326.474 M1930.12 324.599 Q1930.05 319.356 1927.17 316.231 Q1924.32 313.106 1919.6 313.106 Q1914.25 313.106 1911.02 316.127 Q1907.83 319.148 1907.34 324.634 L1930.12 324.599 Z" fill="#000000" fill-rule="evenodd" fill-opacity="1" /><polyline clip-path="url(#clip930)" style="stroke:#008000; stroke-linecap:round; stroke-linejoin:round; stroke-width:6; stroke-opacity:1; fill:none" stroke-dasharray="3, 6" points="
  1452.23,399.356 1585.06,399.356 
  "/>
<path clip-path="url(#clip930)" d="M1607.2 373.436 L1616.65 373.436 L1639.63 416.804 L1639.63 373.436 L1646.44 373.436 L1646.44 425.276 L1636.99 425.276 L1614.01 381.908 L1614.01 425.276 L1607.2 425.276 L1607.2 373.436 Z" fill="#000000" fill-rule="evenodd" fill-opacity="1" /><path clip-path="url(#clip930)" d="M1693.38 404.234 L1693.38 407.359 L1664.01 407.359 Q1664.42 413.956 1667.97 417.429 Q1671.54 420.866 1677.9 420.866 Q1681.58 420.866 1685.01 419.963 Q1688.49 419.06 1691.89 417.255 L1691.89 423.297 Q1688.45 424.755 1684.84 425.519 Q1681.23 426.283 1677.51 426.283 Q1668.21 426.283 1662.76 420.866 Q1657.34 415.449 1657.34 406.213 Q1657.34 396.665 1662.48 391.075 Q1667.65 385.45 1676.4 385.45 Q1684.25 385.45 1688.8 390.519 Q1693.38 395.554 1693.38 404.234 M1686.99 402.359 Q1686.92 397.116 1684.04 393.991 Q1681.2 390.866 1676.47 390.866 Q1671.13 390.866 1667.9 393.887 Q1664.7 396.908 1664.22 402.394 L1686.99 402.359 Z" fill="#000000" fill-rule="evenodd" fill-opacity="1" /><path clip-path="url(#clip930)" d="M1703.21 409.929 L1703.21 386.387 L1709.6 386.387 L1709.6 409.686 Q1709.6 415.206 1711.75 417.984 Q1713.9 420.727 1718.21 420.727 Q1723.38 420.727 1726.37 417.429 Q1729.39 414.13 1729.39 408.436 L1729.39 386.387 L1735.78 386.387 L1735.78 425.276 L1729.39 425.276 L1729.39 419.304 Q1727.06 422.845 1723.97 424.581 Q1720.92 426.283 1716.85 426.283 Q1710.15 426.283 1706.68 422.116 Q1703.21 417.949 1703.21 409.929 M1719.29 385.45 L1719.29 385.45 Z" fill="#000000" fill-rule="evenodd" fill-opacity="1" /><path clip-path="url(#clip930)" d="M1771.47 392.359 Q1770.4 391.734 1769.11 391.456 Q1767.86 391.144 1766.33 391.144 Q1760.92 391.144 1758 394.686 Q1755.12 398.193 1755.12 404.79 L1755.12 425.276 L1748.7 425.276 L1748.7 386.387 L1755.12 386.387 L1755.12 392.429 Q1757.13 388.887 1760.36 387.186 Q1763.59 385.45 1768.21 385.45 Q1768.87 385.45 1769.67 385.554 Q1770.47 385.623 1771.44 385.797 L1771.47 392.359 Z" fill="#000000" fill-rule="evenodd" fill-opacity="1" /><path clip-path="url(#clip930)" d="M1795.85 405.727 Q1788.1 405.727 1785.12 407.498 Q1782.13 409.269 1782.13 413.54 Q1782.13 416.942 1784.35 418.956 Q1786.61 420.935 1790.47 420.935 Q1795.78 420.935 1798.97 417.185 Q1802.2 413.401 1802.2 407.151 L1802.2 405.727 L1795.85 405.727 M1808.59 403.088 L1808.59 425.276 L1802.2 425.276 L1802.2 419.373 Q1800.01 422.915 1796.75 424.616 Q1793.49 426.283 1788.76 426.283 Q1782.79 426.283 1779.25 422.949 Q1775.74 419.581 1775.74 413.956 Q1775.74 407.394 1780.12 404.061 Q1784.53 400.727 1793.24 400.727 L1802.2 400.727 L1802.2 400.102 Q1802.2 395.693 1799.29 393.297 Q1796.4 390.866 1791.16 390.866 Q1787.83 390.866 1784.67 391.665 Q1781.51 392.463 1778.59 394.061 L1778.59 388.158 Q1782.1 386.804 1785.4 386.144 Q1788.69 385.45 1791.82 385.45 Q1800.26 385.45 1804.42 389.825 Q1808.59 394.199 1808.59 403.088 Z" fill="#000000" fill-rule="evenodd" fill-opacity="1" /><path clip-path="url(#clip930)" d="M1821.75 371.248 L1828.14 371.248 L1828.14 425.276 L1821.75 425.276 L1821.75 371.248 Z" fill="#000000" fill-rule="evenodd" fill-opacity="1" /><path clip-path="url(#clip930)" d="M1841.78 373.436 L1871.58 373.436 L1871.58 379.338 L1848.8 379.338 L1848.8 394.616 L1869.35 394.616 L1869.35 400.519 L1848.8 400.519 L1848.8 425.276 L1841.78 425.276 L1841.78 373.436 Z" fill="#000000" fill-rule="evenodd" fill-opacity="1" /><path clip-path="url(#clip930)" d="M1882.69 373.436 L1893.14 373.436 L1906.37 408.713 L1919.67 373.436 L1930.12 373.436 L1930.12 425.276 L1923.28 425.276 L1923.28 379.755 L1909.91 415.31 L1902.86 415.31 L1889.49 379.755 L1889.49 425.276 L1882.69 425.276 L1882.69 373.436 Z" fill="#000000" fill-rule="evenodd" fill-opacity="1" /><path clip-path="url(#clip930)" d="M1943.24 373.436 L1950.29 373.436 L1950.29 404.929 Q1950.29 413.262 1953.31 416.942 Q1956.33 420.588 1963.1 420.588 Q1969.84 420.588 1972.86 416.942 Q1975.88 413.262 1975.88 404.929 L1975.88 373.436 L1982.93 373.436 L1982.93 405.797 Q1982.93 415.935 1977.9 421.109 Q1972.9 426.283 1963.1 426.283 Q1953.28 426.283 1948.24 421.109 Q1943.24 415.935 1943.24 405.797 L1943.24 373.436 Z" fill="#000000" fill-rule="evenodd" fill-opacity="1" /><path clip-path="url(#clip930)" d="M2033.76 371.318 Q2029.11 379.304 2026.85 387.116 Q2024.6 394.929 2024.6 402.949 Q2024.6 410.97 2026.85 418.852 Q2029.14 426.699 2033.76 434.651 L2028.21 434.651 Q2023 426.491 2020.4 418.609 Q2017.83 410.727 2017.83 402.949 Q2017.83 395.206 2020.4 387.359 Q2022.96 379.512 2028.21 371.318 L2033.76 371.318 Z" fill="#000000" fill-rule="evenodd" fill-opacity="1" /><path clip-path="url(#clip930)" d="M2053.1 419.373 L2077.58 419.373 L2077.58 425.276 L2044.67 425.276 L2044.67 419.373 Q2048.66 415.241 2055.53 408.297 Q2062.44 401.318 2064.21 399.304 Q2067.58 395.519 2068.9 392.915 Q2070.26 390.276 2070.26 387.741 Q2070.26 383.609 2067.34 381.005 Q2064.46 378.401 2059.8 378.401 Q2056.51 378.401 2052.83 379.547 Q2049.18 380.693 2045.01 383.019 L2045.01 375.936 Q2049.25 374.234 2052.93 373.366 Q2056.61 372.498 2059.67 372.498 Q2067.72 372.498 2072.51 376.526 Q2077.3 380.554 2077.3 387.29 Q2077.3 390.484 2076.09 393.366 Q2074.91 396.213 2071.75 400.102 Q2070.88 401.109 2066.23 405.936 Q2061.58 410.727 2053.1 419.373 Z" fill="#000000" fill-rule="evenodd" fill-opacity="1" /><path clip-path="url(#clip930)" d="M2092.37 373.436 L2119.91 373.436 L2119.91 379.338 L2098.8 379.338 L2098.8 392.047 Q2100.33 391.526 2101.85 391.283 Q2103.38 391.005 2104.91 391.005 Q2113.59 391.005 2118.66 395.762 Q2123.73 400.519 2123.73 408.644 Q2123.73 417.012 2118.52 421.665 Q2113.31 426.283 2103.83 426.283 Q2100.57 426.283 2097.17 425.727 Q2093.8 425.172 2090.19 424.06 L2090.19 417.012 Q2093.31 418.713 2096.64 419.547 Q2099.98 420.38 2103.69 420.38 Q2109.7 420.38 2113.21 417.22 Q2116.71 414.06 2116.71 408.644 Q2116.71 403.227 2113.21 400.068 Q2109.7 396.908 2103.69 396.908 Q2100.88 396.908 2098.07 397.533 Q2095.29 398.158 2092.37 399.477 L2092.37 373.436 Z" fill="#000000" fill-rule="evenodd" fill-opacity="1" /><path clip-path="url(#clip930)" d="M2152.55 378.054 Q2147.13 378.054 2144.39 383.401 Q2141.68 388.713 2141.68 399.408 Q2141.68 410.067 2144.39 415.415 Q2147.13 420.727 2152.55 420.727 Q2158 420.727 2160.71 415.415 Q2163.45 410.067 2163.45 399.408 Q2163.45 388.713 2160.71 383.401 Q2158 378.054 2152.55 378.054 M2152.55 372.498 Q2161.26 372.498 2165.85 379.408 Q2170.46 386.283 2170.46 399.408 Q2170.46 412.498 2165.85 419.408 Q2161.26 426.283 2152.55 426.283 Q2143.83 426.283 2139.21 419.408 Q2134.63 412.498 2134.63 399.408 Q2134.63 386.283 2139.21 379.408 Q2143.83 372.498 2152.55 372.498 Z" fill="#000000" fill-rule="evenodd" fill-opacity="1" /><path clip-path="url(#clip930)" d="M2197.79 378.054 Q2192.37 378.054 2189.63 383.401 Q2186.92 388.713 2186.92 399.408 Q2186.92 410.067 2189.63 415.415 Q2192.37 420.727 2197.79 420.727 Q2203.24 420.727 2205.95 415.415 Q2208.69 410.067 2208.69 399.408 Q2208.69 388.713 2205.95 383.401 Q2203.24 378.054 2197.79 378.054 M2197.79 372.498 Q2206.51 372.498 2211.09 379.408 Q2215.71 386.283 2215.71 399.408 Q2215.71 412.498 2211.09 419.408 Q2206.51 426.283 2197.79 426.283 Q2189.07 426.283 2184.46 419.408 Q2179.87 412.498 2179.87 399.408 Q2179.87 386.283 2184.46 379.408 Q2189.07 372.498 2197.79 372.498 Z" fill="#000000" fill-rule="evenodd" fill-opacity="1" /><path clip-path="url(#clip930)" d="M2226.12 371.318 L2231.68 371.318 Q2236.89 379.512 2239.46 387.359 Q2242.06 395.206 2242.06 402.949 Q2242.06 410.727 2239.46 418.609 Q2236.89 426.491 2231.68 434.651 L2226.12 434.651 Q2230.74 426.699 2233 418.852 Q2235.29 410.97 2235.29 402.949 Q2235.29 394.929 2233 387.116 Q2230.74 379.304 2226.12 371.318 Z" fill="#000000" fill-rule="evenodd" fill-opacity="1" /></svg>
