<?xml version="1.0" encoding="utf-8"?>
<svg xmlns="http://www.w3.org/2000/svg" xmlns:xlink="http://www.w3.org/1999/xlink" width="600" height="400" viewBox="0 0 2400 1600">
<defs>
  <clipPath id="clip370">
    <rect x="0" y="0" width="2400" height="1600"/>
  </clipPath>
</defs>
<path clip-path="url(#clip370)" d="
M0 1600 L2400 1600 L2400 0 L0 0  Z
  " fill="#ffffff" fill-rule="evenodd" fill-opacity="1"/>
<defs>
  <clipPath id="clip371">
    <rect x="480" y="0" width="1681" height="1600"/>
  </clipPath>
</defs>
<path clip-path="url(#clip370)" d="
M315.239 1401.58 L2352.76 1401.58 L2352.76 123.472 L315.239 123.472  Z
  " fill="#ffffff" fill-rule="evenodd" fill-opacity="1"/>
<defs>
  <clipPath id="clip372">
    <rect x="315" y="123" width="2039" height="1279"/>
  </clipPath>
</defs>
<polyline clip-path="url(#clip372)" style="stroke:#000000; stroke-linecap:butt; stroke-linejoin:round; stroke-width:2; stroke-opacity:0.1; fill:none" points="
  518.991,1401.58 518.991,123.472 
  "/>
<polyline clip-path="url(#clip372)" style="stroke:#000000; stroke-linecap:butt; stroke-linejoin:round; stroke-width:2; stroke-opacity:0.1; fill:none" points="
  926.494,1401.58 926.494,123.472 
  "/>
<polyline clip-path="url(#clip372)" style="stroke:#000000; stroke-linecap:butt; stroke-linejoin:round; stroke-width:2; stroke-opacity:0.1; fill:none" points="
  1334,1401.58 1334,123.472 
  "/>
<polyline clip-path="url(#clip372)" style="stroke:#000000; stroke-linecap:butt; stroke-linejoin:round; stroke-width:2; stroke-opacity:0.1; fill:none" points="
  1741.5,1401.58 1741.5,123.472 
  "/>
<polyline clip-path="url(#clip372)" style="stroke:#000000; stroke-linecap:butt; stroke-linejoin:round; stroke-width:2; stroke-opacity:0.1; fill:none" points="
  2149,1401.58 2149,123.472 
  "/>
<polyline clip-path="url(#clip370)" style="stroke:#000000; stroke-linecap:butt; stroke-linejoin:round; stroke-width:4; stroke-opacity:1; fill:none" points="
  315.239,1401.58 2352.76,1401.58 
  "/>
<polyline clip-path="url(#clip370)" style="stroke:#000000; stroke-linecap:butt; stroke-linejoin:round; stroke-width:4; stroke-opacity:1; fill:none" points="
  518.991,1401.58 518.991,1382.68 
  "/>
<polyline clip-path="url(#clip370)" style="stroke:#000000; stroke-linecap:butt; stroke-linejoin:round; stroke-width:4; stroke-opacity:1; fill:none" points="
  926.494,1401.58 926.494,1382.68 
  "/>
<polyline clip-path="url(#clip370)" style="stroke:#000000; stroke-linecap:butt; stroke-linejoin:round; stroke-width:4; stroke-opacity:1; fill:none" points="
  1334,1401.58 1334,1382.68 
  "/>
<polyline clip-path="url(#clip370)" style="stroke:#000000; stroke-linecap:butt; stroke-linejoin:round; stroke-width:4; stroke-opacity:1; fill:none" points="
  1741.5,1401.58 1741.5,1382.68 
  "/>
<polyline clip-path="url(#clip370)" style="stroke:#000000; stroke-linecap:butt; stroke-linejoin:round; stroke-width:4; stroke-opacity:1; fill:none" points="
  2149,1401.58 2149,1382.68 
  "/>
<path clip-path="url(#clip370)" d="M438.783 1460.34 L483.296 1460.34 L483.296 1466.24 L438.783 1466.24 L438.783 1460.34 Z" fill="#000000" fill-rule="evenodd" fill-opacity="1" /><path clip-path="url(#clip370)" d="M499.651 1479.68 L511.109 1479.68 L511.109 1440.13 L498.644 1442.63 L498.644 1436.24 L511.039 1433.74 L518.053 1433.74 L518.053 1479.68 L529.511 1479.68 L529.511 1485.58 L499.651 1485.58 L499.651 1479.68 Z" fill="#000000" fill-rule="evenodd" fill-opacity="1" /><path clip-path="url(#clip370)" d="M543.678 1476.76 L551.004 1476.76 L551.004 1485.58 L543.678 1485.58 L543.678 1476.76 Z" fill="#000000" fill-rule="evenodd" fill-opacity="1" /><path clip-path="url(#clip370)" d="M581.282 1438.36 Q575.865 1438.36 573.122 1443.71 Q570.414 1449.02 570.414 1459.71 Q570.414 1470.37 573.122 1475.72 Q575.865 1481.03 581.282 1481.03 Q586.733 1481.03 589.442 1475.72 Q592.185 1470.37 592.185 1459.71 Q592.185 1449.02 589.442 1443.71 Q586.733 1438.36 581.282 1438.36 M581.282 1432.8 Q589.997 1432.8 594.581 1439.71 Q599.199 1446.59 599.199 1459.71 Q599.199 1472.8 594.581 1479.71 Q589.997 1486.59 581.282 1486.59 Q572.567 1486.59 567.949 1479.71 Q563.365 1472.8 563.365 1459.71 Q563.365 1446.59 567.949 1439.71 Q572.567 1432.8 581.282 1432.8 Z" fill="#000000" fill-rule="evenodd" fill-opacity="1" /><path clip-path="url(#clip370)" d="M847.033 1460.34 L891.546 1460.34 L891.546 1466.24 L847.033 1466.24 L847.033 1460.34 Z" fill="#000000" fill-rule="evenodd" fill-opacity="1" /><path clip-path="url(#clip370)" d="M921.685 1438.36 Q916.268 1438.36 913.525 1443.71 Q910.817 1449.02 910.817 1459.71 Q910.817 1470.37 913.525 1475.72 Q916.268 1481.03 921.685 1481.03 Q927.136 1481.03 929.845 1475.72 Q932.588 1470.37 932.588 1459.71 Q932.588 1449.02 929.845 1443.71 Q927.136 1438.36 921.685 1438.36 M921.685 1432.8 Q930.4 1432.8 934.984 1439.71 Q939.602 1446.59 939.602 1459.71 Q939.602 1472.8 934.984 1479.71 Q930.4 1486.59 921.685 1486.59 Q912.97 1486.59 908.352 1479.71 Q903.769 1472.8 903.769 1459.71 Q903.769 1446.59 908.352 1439.71 Q912.97 1432.8 921.685 1432.8 Z" fill="#000000" fill-rule="evenodd" fill-opacity="1" /><path clip-path="url(#clip370)" d="M951.928 1476.76 L959.254 1476.76 L959.254 1485.58 L951.928 1485.58 L951.928 1476.76 Z" fill="#000000" fill-rule="evenodd" fill-opacity="1" /><path clip-path="url(#clip370)" d="M974.601 1433.74 L1002.14 1433.74 L1002.14 1439.64 L981.025 1439.64 L981.025 1452.35 Q982.553 1451.83 984.081 1451.59 Q985.608 1451.31 987.136 1451.31 Q995.817 1451.31 1000.89 1456.07 Q1005.96 1460.82 1005.96 1468.95 Q1005.96 1477.32 1000.75 1481.97 Q995.539 1486.59 986.06 1486.59 Q982.796 1486.59 979.393 1486.03 Q976.025 1485.48 972.414 1484.36 L972.414 1477.32 Q975.539 1479.02 978.872 1479.85 Q982.206 1480.68 985.921 1480.68 Q991.928 1480.68 995.435 1477.52 Q998.942 1474.36 998.942 1468.95 Q998.942 1463.53 995.435 1460.37 Q991.928 1457.21 985.921 1457.21 Q983.108 1457.21 980.296 1457.84 Q977.518 1458.46 974.601 1459.78 L974.601 1433.74 Z" fill="#000000" fill-rule="evenodd" fill-opacity="1" /><path clip-path="url(#clip370)" d="M1300.07 1438.36 Q1294.66 1438.36 1291.91 1443.71 Q1289.21 1449.02 1289.21 1459.71 Q1289.21 1470.37 1291.91 1475.72 Q1294.66 1481.03 1300.07 1481.03 Q1305.53 1481.03 1308.23 1475.72 Q1310.98 1470.37 1310.98 1459.71 Q1310.98 1449.02 1308.23 1443.71 Q1305.53 1438.36 1300.07 1438.36 M1300.07 1432.8 Q1308.79 1432.8 1313.37 1439.71 Q1317.99 1446.59 1317.99 1459.71 Q1317.99 1472.8 1313.37 1479.71 Q1308.79 1486.59 1300.07 1486.59 Q1291.36 1486.59 1286.74 1479.71 Q1282.16 1472.8 1282.16 1459.71 Q1282.16 1446.59 1286.74 1439.71 Q1291.36 1432.8 1300.07 1432.8 Z" fill="#000000" fill-rule="evenodd" fill-opacity="1" /><path clip-path="url(#clip370)" d="M1330.32 1476.76 L1337.64 1476.76 L1337.64 1485.58 L1330.32 1485.58 L1330.32 1476.76 Z" fill="#000000" fill-rule="evenodd" fill-opacity="1" /><path clip-path="url(#clip370)" d="M1367.92 1438.36 Q1362.5 1438.36 1359.76 1443.71 Q1357.05 1449.02 1357.05 1459.71 Q1357.05 1470.37 1359.76 1475.72 Q1362.5 1481.03 1367.92 1481.03 Q1373.37 1481.03 1376.08 1475.72 Q1378.82 1470.37 1378.82 1459.71 Q1378.82 1449.02 1376.08 1443.71 Q1373.37 1438.36 1367.92 1438.36 M1367.92 1432.8 Q1376.64 1432.8 1381.22 1439.71 Q1385.84 1446.59 1385.84 1459.71 Q1385.84 1472.8 1381.22 1479.71 Q1376.64 1486.59 1367.92 1486.59 Q1359.21 1486.59 1354.59 1479.71 Q1350 1472.8 1350 1459.71 Q1350 1446.59 1354.59 1439.71 Q1359.21 1432.8 1367.92 1432.8 Z" fill="#000000" fill-rule="evenodd" fill-opacity="1" /><path clip-path="url(#clip370)" d="M1708.32 1438.36 Q1702.91 1438.36 1700.16 1443.71 Q1697.46 1449.02 1697.46 1459.71 Q1697.46 1470.37 1700.16 1475.72 Q1702.91 1481.03 1708.32 1481.03 Q1713.78 1481.03 1716.48 1475.72 Q1719.23 1470.37 1719.23 1459.71 Q1719.23 1449.02 1716.48 1443.71 Q1713.78 1438.36 1708.32 1438.36 M1708.32 1432.8 Q1717.04 1432.8 1721.62 1439.71 Q1726.24 1446.59 1726.24 1459.71 Q1726.24 1472.8 1721.62 1479.71 Q1717.04 1486.59 1708.32 1486.59 Q1699.61 1486.59 1694.99 1479.71 Q1690.41 1472.8 1690.41 1459.71 Q1690.41 1446.59 1694.99 1439.71 Q1699.61 1432.8 1708.32 1432.8 Z" fill="#000000" fill-rule="evenodd" fill-opacity="1" /><path clip-path="url(#clip370)" d="M1738.57 1476.76 L1745.89 1476.76 L1745.89 1485.58 L1738.57 1485.58 L1738.57 1476.76 Z" fill="#000000" fill-rule="evenodd" fill-opacity="1" /><path clip-path="url(#clip370)" d="M1761.24 1433.74 L1788.77 1433.74 L1788.77 1439.64 L1767.66 1439.64 L1767.66 1452.35 Q1769.19 1451.83 1770.72 1451.59 Q1772.25 1451.31 1773.77 1451.31 Q1782.46 1451.31 1787.52 1456.07 Q1792.59 1460.82 1792.59 1468.95 Q1792.59 1477.32 1787.39 1481.97 Q1782.18 1486.59 1772.7 1486.59 Q1769.43 1486.59 1766.03 1486.03 Q1762.66 1485.48 1759.05 1484.36 L1759.05 1477.32 Q1762.18 1479.02 1765.51 1479.85 Q1768.84 1480.68 1772.56 1480.68 Q1778.57 1480.68 1782.07 1477.52 Q1785.58 1474.36 1785.58 1468.95 Q1785.58 1463.53 1782.07 1460.37 Q1778.57 1457.21 1772.56 1457.21 Q1769.75 1457.21 1766.93 1457.84 Q1764.16 1458.46 1761.24 1459.78 L1761.24 1433.74 Z" fill="#000000" fill-rule="evenodd" fill-opacity="1" /><path clip-path="url(#clip370)" d="M2099.73 1479.68 L2111.19 1479.68 L2111.19 1440.13 L2098.73 1442.63 L2098.73 1436.24 L2111.12 1433.74 L2118.14 1433.74 L2118.14 1479.68 L2129.59 1479.68 L2129.59 1485.58 L2099.73 1485.58 L2099.73 1479.68 Z" fill="#000000" fill-rule="evenodd" fill-opacity="1" /><path clip-path="url(#clip370)" d="M2143.76 1476.76 L2151.09 1476.76 L2151.09 1485.58 L2143.76 1485.58 L2143.76 1476.76 Z" fill="#000000" fill-rule="evenodd" fill-opacity="1" /><path clip-path="url(#clip370)" d="M2181.37 1438.36 Q2175.95 1438.36 2173.21 1443.71 Q2170.5 1449.02 2170.5 1459.71 Q2170.5 1470.37 2173.21 1475.72 Q2175.95 1481.03 2181.37 1481.03 Q2186.82 1481.03 2189.52 1475.72 Q2192.27 1470.37 2192.27 1459.71 Q2192.27 1449.02 2189.52 1443.71 Q2186.82 1438.36 2181.37 1438.36 M2181.37 1432.8 Q2190.08 1432.8 2194.66 1439.71 Q2199.28 1446.59 2199.28 1459.71 Q2199.28 1472.8 2194.66 1479.71 Q2190.08 1486.59 2181.37 1486.59 Q2172.65 1486.59 2168.03 1479.71 Q2163.45 1472.8 2163.45 1459.71 Q2163.45 1446.59 2168.03 1439.71 Q2172.65 1432.8 2181.37 1432.8 Z" fill="#000000" fill-rule="evenodd" fill-opacity="1" /><path clip-path="url(#clip370)" d="M1212.89 1538.66 L1219.66 1538.66 L1231.81 1571.3 L1243.96 1538.66 L1250.73 1538.66 L1236.15 1577.55 L1227.47 1577.55 L1212.89 1538.66 Z" fill="#000000" fill-rule="evenodd" fill-opacity="1" /><path clip-path="url(#clip370)" d="M1281.57 1523.52 L1296.29 1523.52 L1296.29 1528.49 L1287.96 1528.49 L1287.96 1581.96 L1296.29 1581.96 L1296.29 1586.92 L1281.57 1586.92 L1281.57 1523.52 Z" fill="#000000" fill-rule="evenodd" fill-opacity="1" /><path clip-path="url(#clip370)" d="M1340.18 1546.12 Q1342.57 1541.82 1345.91 1539.77 Q1349.24 1537.72 1353.75 1537.72 Q1359.83 1537.72 1363.13 1541.99 Q1366.43 1546.23 1366.43 1554.08 L1366.43 1577.55 L1360 1577.55 L1360 1554.28 Q1360 1548.69 1358.03 1545.99 Q1356.05 1543.28 1351.98 1543.28 Q1347.02 1543.28 1344.14 1546.58 Q1341.25 1549.87 1341.25 1555.57 L1341.25 1577.55 L1334.83 1577.55 L1334.83 1554.28 Q1334.83 1548.66 1332.85 1545.99 Q1330.87 1543.28 1326.74 1543.28 Q1321.84 1543.28 1318.96 1546.61 Q1316.08 1549.91 1316.08 1555.57 L1316.08 1577.55 L1309.66 1577.55 L1309.66 1538.66 L1316.08 1538.66 L1316.08 1544.7 Q1318.27 1541.12 1321.32 1539.42 Q1324.38 1537.72 1328.58 1537.72 Q1332.82 1537.72 1335.77 1539.87 Q1338.75 1542.03 1340.18 1546.12 Z" fill="#000000" fill-rule="evenodd" fill-opacity="1" /><path clip-path="url(#clip370)" d="M1390.52 1525.71 L1396.43 1525.71 L1378.37 1584.15 L1372.47 1584.15 L1390.52 1525.71 Z" fill="#000000" fill-rule="evenodd" fill-opacity="1" /><path clip-path="url(#clip370)" d="M1427.92 1539.8 L1427.92 1545.85 Q1425.21 1544.46 1422.3 1543.76 Q1419.38 1543.07 1416.25 1543.07 Q1411.5 1543.07 1409.1 1544.53 Q1406.74 1545.99 1406.74 1548.9 Q1406.74 1551.12 1408.44 1552.41 Q1410.14 1553.66 1415.28 1554.8 L1417.47 1555.29 Q1424.27 1556.75 1427.12 1559.42 Q1430 1562.06 1430 1566.82 Q1430 1572.24 1425.7 1575.4 Q1421.43 1578.55 1413.93 1578.55 Q1410.8 1578.55 1407.4 1577.93 Q1404.03 1577.34 1400.28 1576.12 L1400.28 1569.53 Q1403.82 1571.37 1407.26 1572.3 Q1410.7 1573.21 1414.07 1573.21 Q1418.58 1573.21 1421.01 1571.68 Q1423.44 1570.12 1423.44 1567.3 Q1423.44 1564.7 1421.67 1563.31 Q1419.93 1561.92 1414 1560.64 L1411.77 1560.12 Q1405.84 1558.87 1403.2 1556.3 Q1400.56 1553.69 1400.56 1549.18 Q1400.56 1543.69 1404.45 1540.71 Q1408.34 1537.72 1415.49 1537.72 Q1419.03 1537.72 1422.16 1538.24 Q1425.28 1538.76 1427.92 1539.8 Z" fill="#000000" fill-rule="evenodd" fill-opacity="1" /><path clip-path="url(#clip370)" d="M1455.11 1523.52 L1455.11 1586.92 L1440.39 1586.92 L1440.39 1581.96 L1448.68 1581.96 L1448.68 1528.49 L1440.39 1528.49 L1440.39 1523.52 L1455.11 1523.52 Z" fill="#000000" fill-rule="evenodd" fill-opacity="1" /><polyline clip-path="url(#clip372)" style="stroke:#000000; stroke-linecap:butt; stroke-linejoin:round; stroke-width:2; stroke-opacity:0.1; fill:none" points="
  315.239,1254.2 2352.76,1254.2 
  "/>
<polyline clip-path="url(#clip372)" style="stroke:#000000; stroke-linecap:butt; stroke-linejoin:round; stroke-width:2; stroke-opacity:0.1; fill:none" points="
  315.239,1012.59 2352.76,1012.59 
  "/>
<polyline clip-path="url(#clip372)" style="stroke:#000000; stroke-linecap:butt; stroke-linejoin:round; stroke-width:2; stroke-opacity:0.1; fill:none" points="
  315.239,770.975 2352.76,770.975 
  "/>
<polyline clip-path="url(#clip372)" style="stroke:#000000; stroke-linecap:butt; stroke-linejoin:round; stroke-width:2; stroke-opacity:0.1; fill:none" points="
  315.239,529.362 2352.76,529.362 
  "/>
<polyline clip-path="url(#clip372)" style="stroke:#000000; stroke-linecap:butt; stroke-linejoin:round; stroke-width:2; stroke-opacity:0.1; fill:none" points="
  315.239,287.748 2352.76,287.748 
  "/>
<polyline clip-path="url(#clip370)" style="stroke:#000000; stroke-linecap:butt; stroke-linejoin:round; stroke-width:4; stroke-opacity:1; fill:none" points="
  315.239,1401.58 315.239,123.472 
  "/>
<polyline clip-path="url(#clip370)" style="stroke:#000000; stroke-linecap:butt; stroke-linejoin:round; stroke-width:4; stroke-opacity:1; fill:none" points="
  315.239,1254.2 334.137,1254.2 
  "/>
<polyline clip-path="url(#clip370)" style="stroke:#000000; stroke-linecap:butt; stroke-linejoin:round; stroke-width:4; stroke-opacity:1; fill:none" points="
  315.239,1012.59 334.137,1012.59 
  "/>
<polyline clip-path="url(#clip370)" style="stroke:#000000; stroke-linecap:butt; stroke-linejoin:round; stroke-width:4; stroke-opacity:1; fill:none" points="
  315.239,770.975 334.137,770.975 
  "/>
<polyline clip-path="url(#clip370)" style="stroke:#000000; stroke-linecap:butt; stroke-linejoin:round; stroke-width:4; stroke-opacity:1; fill:none" points="
  315.239,529.362 334.137,529.362 
  "/>
<polyline clip-path="url(#clip370)" style="stroke:#000000; stroke-linecap:butt; stroke-linejoin:round; stroke-width:4; stroke-opacity:1; fill:none" points="
  315.239,287.748 334.137,287.748 
  "/>
<path clip-path="url(#clip370)" d="M118.58 1254.88 L163.094 1254.88 L163.094 1260.78 L118.58 1260.78 L118.58 1254.88 Z" fill="#000000" fill-rule="evenodd" fill-opacity="1" /><path clip-path="url(#clip370)" d="M193.233 1232.9 Q187.816 1232.9 185.073 1238.25 Q182.365 1243.56 182.365 1254.25 Q182.365 1264.91 185.073 1270.26 Q187.816 1275.57 193.233 1275.57 Q198.684 1275.57 201.392 1270.26 Q204.135 1264.91 204.135 1254.25 Q204.135 1243.56 201.392 1238.25 Q198.684 1232.9 193.233 1232.9 M193.233 1227.34 Q201.948 1227.34 206.531 1234.25 Q211.149 1241.13 211.149 1254.25 Q211.149 1267.34 206.531 1274.25 Q201.948 1281.13 193.233 1281.13 Q184.517 1281.13 179.899 1274.25 Q175.316 1267.34 175.316 1254.25 Q175.316 1241.13 179.899 1234.25 Q184.517 1227.34 193.233 1227.34 Z" fill="#000000" fill-rule="evenodd" fill-opacity="1" /><path clip-path="url(#clip370)" d="M223.475 1271.3 L230.802 1271.3 L230.802 1280.12 L223.475 1280.12 L223.475 1271.3 Z" fill="#000000" fill-rule="evenodd" fill-opacity="1" /><path clip-path="url(#clip370)" d="M261.947 1251.41 Q257.225 1251.41 254.447 1254.64 Q251.704 1257.86 251.704 1263.49 Q251.704 1269.08 254.447 1272.34 Q257.225 1275.57 261.947 1275.57 Q266.67 1275.57 269.413 1272.34 Q272.19 1269.08 272.19 1263.49 Q272.19 1257.86 269.413 1254.64 Q266.67 1251.41 261.947 1251.41 M275.871 1229.43 L275.871 1235.82 Q273.232 1234.57 270.524 1233.91 Q267.85 1233.25 265.211 1233.25 Q258.267 1233.25 254.586 1237.93 Q250.941 1242.62 250.42 1252.1 Q252.468 1249.08 255.559 1247.48 Q258.649 1245.85 262.364 1245.85 Q270.177 1245.85 274.69 1250.61 Q279.239 1255.33 279.239 1263.49 Q279.239 1271.48 274.517 1276.3 Q269.795 1281.13 261.947 1281.13 Q252.954 1281.13 248.198 1274.25 Q243.441 1267.34 243.441 1254.25 Q243.441 1241.96 249.274 1234.67 Q255.107 1227.34 264.934 1227.34 Q267.572 1227.34 270.246 1227.87 Q272.954 1228.39 275.871 1229.43 Z" fill="#000000" fill-rule="evenodd" fill-opacity="1" /><path clip-path="url(#clip370)" d="M119.795 1013.27 L164.309 1013.27 L164.309 1019.17 L119.795 1019.17 L119.795 1013.27 Z" fill="#000000" fill-rule="evenodd" fill-opacity="1" /><path clip-path="url(#clip370)" d="M194.448 991.286 Q189.031 991.286 186.288 996.634 Q183.58 1001.95 183.58 1012.64 Q183.58 1023.3 186.288 1028.65 Q189.031 1033.96 194.448 1033.96 Q199.899 1033.96 202.607 1028.65 Q205.351 1023.3 205.351 1012.64 Q205.351 1001.95 202.607 996.634 Q199.899 991.286 194.448 991.286 M194.448 985.731 Q203.163 985.731 207.746 992.641 Q212.364 999.516 212.364 1012.64 Q212.364 1025.73 207.746 1032.64 Q203.163 1039.52 194.448 1039.52 Q185.733 1039.52 181.115 1032.64 Q176.531 1025.73 176.531 1012.64 Q176.531 999.516 181.115 992.641 Q185.733 985.731 194.448 985.731 Z" fill="#000000" fill-rule="evenodd" fill-opacity="1" /><path clip-path="url(#clip370)" d="M224.691 1029.69 L232.017 1029.69 L232.017 1038.51 L224.691 1038.51 L224.691 1029.69 Z" fill="#000000" fill-rule="evenodd" fill-opacity="1" /><path clip-path="url(#clip370)" d="M268.545 1010.56 Q273.579 1011.63 276.392 1015.04 Q279.239 1018.44 279.239 1023.44 Q279.239 1031.11 273.961 1035.31 Q268.684 1039.52 258.961 1039.52 Q255.697 1039.52 252.225 1038.86 Q248.788 1038.23 245.107 1036.95 L245.107 1030.18 Q248.024 1031.88 251.496 1032.74 Q254.968 1033.61 258.753 1033.61 Q265.35 1033.61 268.788 1031.01 Q272.26 1028.4 272.26 1023.44 Q272.26 1018.86 269.031 1016.29 Q265.836 1013.68 260.107 1013.68 L254.066 1013.68 L254.066 1007.92 L260.385 1007.92 Q265.559 1007.92 268.302 1005.87 Q271.045 1003.79 271.045 999.898 Q271.045 995.905 268.197 993.786 Q265.385 991.634 260.107 991.634 Q257.225 991.634 253.927 992.259 Q250.628 992.884 246.67 994.203 L246.67 987.953 Q250.663 986.842 254.135 986.287 Q257.642 985.731 260.732 985.731 Q268.718 985.731 273.371 989.377 Q278.024 992.988 278.024 999.168 Q278.024 1003.47 275.558 1006.46 Q273.093 1009.41 268.545 1010.56 Z" fill="#000000" fill-rule="evenodd" fill-opacity="1" /><path clip-path="url(#clip370)" d="M193.476 749.673 Q188.059 749.673 185.316 755.02 Q182.608 760.333 182.608 771.027 Q182.608 781.687 185.316 787.034 Q188.059 792.346 193.476 792.346 Q198.927 792.346 201.635 787.034 Q204.378 781.687 204.378 771.027 Q204.378 760.333 201.635 755.02 Q198.927 749.673 193.476 749.673 M193.476 744.118 Q202.191 744.118 206.774 751.027 Q211.392 757.902 211.392 771.027 Q211.392 784.117 206.774 791.027 Q202.191 797.902 193.476 797.902 Q184.76 797.902 180.142 791.027 Q175.559 784.117 175.559 771.027 Q175.559 757.902 180.142 751.027 Q184.76 744.118 193.476 744.118 Z" fill="#000000" fill-rule="evenodd" fill-opacity="1" /><path clip-path="url(#clip370)" d="M223.718 788.076 L231.045 788.076 L231.045 796.895 L223.718 796.895 L223.718 788.076 Z" fill="#000000" fill-rule="evenodd" fill-opacity="1" /><path clip-path="url(#clip370)" d="M261.322 749.673 Q255.906 749.673 253.163 755.02 Q250.454 760.333 250.454 771.027 Q250.454 781.687 253.163 787.034 Q255.906 792.346 261.322 792.346 Q266.774 792.346 269.482 787.034 Q272.225 781.687 272.225 771.027 Q272.225 760.333 269.482 755.02 Q266.774 749.673 261.322 749.673 M261.322 744.118 Q270.038 744.118 274.621 751.027 Q279.239 757.902 279.239 771.027 Q279.239 784.117 274.621 791.027 Q270.038 797.902 261.322 797.902 Q252.607 797.902 247.989 791.027 Q243.406 784.117 243.406 771.027 Q243.406 757.902 247.989 751.027 Q252.607 744.118 261.322 744.118 Z" fill="#000000" fill-rule="evenodd" fill-opacity="1" /><path clip-path="url(#clip370)" d="M194.448 508.06 Q189.031 508.06 186.288 513.407 Q183.58 518.719 183.58 529.414 Q183.58 540.073 186.288 545.421 Q189.031 550.733 194.448 550.733 Q199.899 550.733 202.607 545.421 Q205.351 540.073 205.351 529.414 Q205.351 518.719 202.607 513.407 Q199.899 508.06 194.448 508.06 M194.448 502.504 Q203.163 502.504 207.746 509.414 Q212.364 516.289 212.364 529.414 Q212.364 542.504 207.746 549.414 Q203.163 556.289 194.448 556.289 Q185.733 556.289 181.115 549.414 Q176.531 542.504 176.531 529.414 Q176.531 516.289 181.115 509.414 Q185.733 502.504 194.448 502.504 Z" fill="#000000" fill-rule="evenodd" fill-opacity="1" /><path clip-path="url(#clip370)" d="M224.691 546.462 L232.017 546.462 L232.017 555.282 L224.691 555.282 L224.691 546.462 Z" fill="#000000" fill-rule="evenodd" fill-opacity="1" /><path clip-path="url(#clip370)" d="M268.545 527.33 Q273.579 528.407 276.392 531.81 Q279.239 535.212 279.239 540.212 Q279.239 547.886 273.961 552.087 Q268.684 556.289 258.961 556.289 Q255.697 556.289 252.225 555.629 Q248.788 555.004 245.107 553.719 L245.107 546.948 Q248.024 548.65 251.496 549.518 Q254.968 550.386 258.753 550.386 Q265.35 550.386 268.788 547.782 Q272.26 545.178 272.26 540.212 Q272.26 535.629 269.031 533.06 Q265.836 530.455 260.107 530.455 L254.066 530.455 L254.066 524.692 L260.385 524.692 Q265.559 524.692 268.302 522.643 Q271.045 520.56 271.045 516.671 Q271.045 512.678 268.197 510.56 Q265.385 508.407 260.107 508.407 Q257.225 508.407 253.927 509.032 Q250.628 509.657 246.67 510.976 L246.67 504.726 Q250.663 503.615 254.135 503.06 Q257.642 502.504 260.732 502.504 Q268.718 502.504 273.371 506.15 Q278.024 509.761 278.024 515.942 Q278.024 520.247 275.558 523.233 Q273.093 526.185 268.545 527.33 Z" fill="#000000" fill-rule="evenodd" fill-opacity="1" /><path clip-path="url(#clip370)" d="M193.233 266.446 Q187.816 266.446 185.073 271.794 Q182.365 277.106 182.365 287.8 Q182.365 298.46 185.073 303.807 Q187.816 309.12 193.233 309.12 Q198.684 309.12 201.392 303.807 Q204.135 298.46 204.135 287.8 Q204.135 277.106 201.392 271.794 Q198.684 266.446 193.233 266.446 M193.233 260.891 Q201.948 260.891 206.531 267.801 Q211.149 274.675 211.149 287.8 Q211.149 300.891 206.531 307.8 Q201.948 314.675 193.233 314.675 Q184.517 314.675 179.899 307.8 Q175.316 300.891 175.316 287.8 Q175.316 274.675 179.899 267.801 Q184.517 260.891 193.233 260.891 Z" fill="#000000" fill-rule="evenodd" fill-opacity="1" /><path clip-path="url(#clip370)" d="M223.475 304.849 L230.802 304.849 L230.802 313.668 L223.475 313.668 L223.475 304.849 Z" fill="#000000" fill-rule="evenodd" fill-opacity="1" /><path clip-path="url(#clip370)" d="M261.947 284.953 Q257.225 284.953 254.447 288.182 Q251.704 291.411 251.704 297.036 Q251.704 302.627 254.447 305.891 Q257.225 309.12 261.947 309.12 Q266.67 309.12 269.413 305.891 Q272.19 302.627 272.19 297.036 Q272.19 291.411 269.413 288.182 Q266.67 284.953 261.947 284.953 M275.871 262.974 L275.871 269.363 Q273.232 268.113 270.524 267.453 Q267.85 266.794 265.211 266.794 Q258.267 266.794 254.586 271.481 Q250.941 276.169 250.42 285.648 Q252.468 282.627 255.559 281.03 Q258.649 279.398 262.364 279.398 Q270.177 279.398 274.69 284.155 Q279.239 288.877 279.239 297.036 Q279.239 305.023 274.517 309.849 Q269.795 314.675 261.947 314.675 Q252.954 314.675 248.198 307.8 Q243.441 300.891 243.441 287.8 Q243.441 275.509 249.274 268.217 Q255.107 260.891 264.934 260.891 Q267.572 260.891 270.246 261.412 Q272.954 261.932 275.871 262.974 Z" fill="#000000" fill-rule="evenodd" fill-opacity="1" /><path clip-path="url(#clip370)" d="M13.0007 1025.04 L18.3131 1025.04 L18.3131 1031.15 Q18.3131 1034.59 19.702 1035.94 Q21.0909 1037.26 24.702 1037.26 L28.1395 1037.26 L28.1395 1026.74 L33.1047 1026.74 L33.1047 1037.26 L67.0282 1037.26 L67.0282 1043.69 L33.1047 1043.69 L33.1047 1049.8 L28.1395 1049.8 L28.1395 1043.69 L25.4312 1043.69 Q18.9381 1043.69 15.9868 1040.67 Q13.0007 1037.65 13.0007 1031.08 L13.0007 1025.04 Z" fill="#000000" fill-rule="evenodd" fill-opacity="1" /><path clip-path="url(#clip370)" d="M34.1117 997.16 Q33.4867 998.237 33.2089 999.521 Q32.8964 1000.77 32.8964 1002.3 Q32.8964 1007.72 36.438 1010.63 Q39.945 1013.51 46.5422 1013.51 L67.0282 1013.51 L67.0282 1019.94 L28.1395 1019.94 L28.1395 1013.51 L34.1811 1013.51 Q30.6395 1011.5 28.9381 1008.27 Q27.202 1005.04 27.202 1000.42 Q27.202 999.764 27.3061 998.966 Q27.3756 998.167 27.5492 997.195 L34.1117 997.16 Z" fill="#000000" fill-rule="evenodd" fill-opacity="1" /><path clip-path="url(#clip370)" d="M28.1395 990.459 L28.1395 984.07 L67.0282 984.07 L67.0282 990.459 L28.1395 990.459 M13.0007 990.459 L13.0007 984.07 L21.0909 984.07 L21.0909 990.459 L13.0007 990.459 Z" fill="#000000" fill-rule="evenodd" fill-opacity="1" /><path clip-path="url(#clip370)" d="M29.6325 942.716 L35.6047 942.716 Q34.1117 945.424 33.3825 948.167 Q32.6186 950.876 32.6186 953.653 Q32.6186 959.869 36.5769 963.306 Q40.5005 966.744 47.6185 966.744 Q54.7366 966.744 58.6949 963.306 Q62.6185 959.869 62.6185 953.653 Q62.6185 950.876 61.8893 948.167 Q61.1254 945.424 59.6324 942.716 L65.5351 942.716 Q66.7851 945.39 67.4101 948.272 Q68.0351 951.119 68.0351 954.348 Q68.0351 963.133 62.5143 968.306 Q56.9935 973.48 47.6185 973.48 Q38.1047 973.48 32.6533 968.271 Q27.202 963.028 27.202 953.931 Q27.202 950.98 27.827 948.167 Q28.4173 945.355 29.6325 942.716 Z" fill="#000000" fill-rule="evenodd" fill-opacity="1" /><path clip-path="url(#clip370)" d="M17.0979 925.286 L28.1395 925.286 L28.1395 912.126 L33.1047 912.126 L33.1047 925.286 L54.2157 925.286 Q58.9726 925.286 60.3268 924.001 Q61.681 922.681 61.681 918.688 L61.681 912.126 L67.0282 912.126 L67.0282 918.688 Q67.0282 926.084 64.2851 928.897 Q61.5074 931.709 54.2157 931.709 L33.1047 931.709 L33.1047 936.397 L28.1395 936.397 L28.1395 931.709 L17.0979 931.709 L17.0979 925.286 Z" fill="#000000" fill-rule="evenodd" fill-opacity="1" /><path clip-path="url(#clip370)" d="M28.1395 903.723 L28.1395 897.334 L67.0282 897.334 L67.0282 903.723 L28.1395 903.723 M13.0007 903.723 L13.0007 897.334 L21.0909 897.334 L21.0909 903.723 L13.0007 903.723 Z" fill="#000000" fill-rule="evenodd" fill-opacity="1" /><path clip-path="url(#clip370)" d="M32.6186 868.897 Q32.6186 874.036 36.6464 877.022 Q40.6394 880.008 47.6185 880.008 Q54.5977 880.008 58.6254 877.057 Q62.6185 874.071 62.6185 868.897 Q62.6185 863.793 58.5907 860.807 Q54.5629 857.821 47.6185 857.821 Q40.7089 857.821 36.6811 860.807 Q32.6186 863.793 32.6186 868.897 M27.202 868.897 Q27.202 860.564 32.6186 855.807 Q38.0353 851.05 47.6185 851.05 Q57.1671 851.05 62.6185 855.807 Q68.0351 860.564 68.0351 868.897 Q68.0351 877.265 62.6185 882.022 Q57.1671 886.744 47.6185 886.744 Q38.0353 886.744 32.6186 882.022 Q27.202 877.265 27.202 868.897 Z" fill="#000000" fill-rule="evenodd" fill-opacity="1" /><path clip-path="url(#clip370)" d="M43.5561 808.133 L67.0282 808.133 L67.0282 814.522 L43.7644 814.522 Q38.2436 814.522 35.5005 816.675 Q32.7575 818.828 32.7575 823.133 Q32.7575 828.307 36.0561 831.293 Q39.3547 834.279 45.0491 834.279 L67.0282 834.279 L67.0282 840.703 L28.1395 840.703 L28.1395 834.279 L34.1811 834.279 Q30.6742 831.987 28.9381 828.897 Q27.202 825.772 27.202 821.71 Q27.202 815.008 31.3686 811.571 Q35.5005 808.133 43.5561 808.133 Z" fill="#000000" fill-rule="evenodd" fill-opacity="1" /><path clip-path="url(#clip370)" d="M13.0007 753.099 L18.3131 753.099 L18.3131 759.21 Q18.3131 762.648 19.702 764.002 Q21.0909 765.321 24.702 765.321 L28.1395 765.321 L28.1395 754.8 L33.1047 754.8 L33.1047 765.321 L67.0282 765.321 L67.0282 771.745 L33.1047 771.745 L33.1047 777.856 L28.1395 777.856 L28.1395 771.745 L25.4312 771.745 Q18.9381 771.745 15.9868 768.724 Q13.0007 765.703 13.0007 759.141 L13.0007 753.099 Z" fill="#000000" fill-rule="evenodd" fill-opacity="1" /><path clip-path="url(#clip370)" d="M32.6186 732.682 Q32.6186 737.821 36.6464 740.807 Q40.6394 743.793 47.6185 743.793 Q54.5977 743.793 58.6254 740.842 Q62.6185 737.856 62.6185 732.682 Q62.6185 727.578 58.5907 724.592 Q54.5629 721.606 47.6185 721.606 Q40.7089 721.606 36.6811 724.592 Q32.6186 727.578 32.6186 732.682 M27.202 732.682 Q27.202 724.349 32.6186 719.592 Q38.0353 714.835 47.6185 714.835 Q57.1671 714.835 62.6185 719.592 Q68.0351 724.349 68.0351 732.682 Q68.0351 741.05 62.6185 745.807 Q57.1671 750.53 47.6185 750.53 Q38.0353 750.53 32.6186 745.807 Q27.202 741.05 27.202 732.682 Z" fill="#000000" fill-rule="evenodd" fill-opacity="1" /><path clip-path="url(#clip370)" d="M34.1117 681.71 Q33.4867 682.787 33.2089 684.072 Q32.8964 685.322 32.8964 686.849 Q32.8964 692.266 36.438 695.183 Q39.945 698.065 46.5422 698.065 L67.0282 698.065 L67.0282 704.488 L28.1395 704.488 L28.1395 698.065 L34.1811 698.065 Q30.6395 696.051 28.9381 692.821 Q27.202 689.592 27.202 684.974 Q27.202 684.315 27.3061 683.516 Q27.3756 682.717 27.5492 681.745 L34.1117 681.71 Z" fill="#000000" fill-rule="evenodd" fill-opacity="1" /><path clip-path="url(#clip370)" d="M29.6325 648.586 L35.6047 648.586 Q34.1117 651.294 33.3825 654.037 Q32.6186 656.745 32.6186 659.523 Q32.6186 665.738 36.5769 669.176 Q40.5005 672.613 47.6185 672.613 Q54.7366 672.613 58.6949 669.176 Q62.6185 665.738 62.6185 659.523 Q62.6185 656.745 61.8893 654.037 Q61.1254 651.294 59.6324 648.586 L65.5351 648.586 Q66.7851 651.259 67.4101 654.141 Q68.0351 656.988 68.0351 660.218 Q68.0351 669.002 62.5143 674.176 Q56.9935 679.349 47.6185 679.349 Q38.1047 679.349 32.6533 674.141 Q27.202 668.898 27.202 659.801 Q27.202 656.849 27.827 654.037 Q28.4173 651.224 29.6325 648.586 Z" fill="#000000" fill-rule="evenodd" fill-opacity="1" /><path clip-path="url(#clip370)" d="M45.9866 604.211 L49.1116 604.211 L49.1116 633.586 Q55.7088 633.169 59.181 629.627 Q62.6185 626.051 62.6185 619.697 Q62.6185 616.016 61.7157 612.579 Q60.8129 609.107 59.0074 605.704 L65.049 605.704 Q66.5073 609.141 67.2712 612.752 Q68.0351 616.364 68.0351 620.079 Q68.0351 629.384 62.6185 634.836 Q57.2018 640.252 47.9658 640.252 Q38.4172 640.252 32.827 635.113 Q27.202 629.94 27.202 621.19 Q27.202 613.343 32.2714 608.794 Q37.3061 604.211 45.9866 604.211 M44.1116 610.6 Q38.8686 610.669 35.7436 613.551 Q32.6186 616.398 32.6186 621.12 Q32.6186 626.468 35.6394 629.697 Q38.6603 632.891 44.1463 633.377 L44.1116 610.6 Z" fill="#000000" fill-rule="evenodd" fill-opacity="1" /><path clip-path="url(#clip370)" d="M13.0007 571.711 L13.0007 556.989 L17.9659 556.989 L17.9659 565.322 L71.4379 565.322 L71.4379 556.989 L76.4031 556.989 L76.4031 571.711 L13.0007 571.711 Z" fill="#000000" fill-rule="evenodd" fill-opacity="1" /><path clip-path="url(#clip370)" d="M15.1882 543.1 L15.1882 533.656 L58.556 510.67 L15.1882 510.67 L15.1882 503.864 L67.0282 503.864 L67.0282 513.309 L23.6603 536.295 L67.0282 536.295 L67.0282 543.1 L15.1882 543.1 Z" fill="#000000" fill-rule="evenodd" fill-opacity="1" /><path clip-path="url(#clip370)" d="M13.0007 475.253 L76.4031 475.253 L76.4031 489.975 L71.4379 489.975 L71.4379 481.677 L17.9659 481.677 L17.9659 489.975 L13.0007 489.975 L13.0007 475.253 Z" fill="#000000" fill-rule="evenodd" fill-opacity="1" /><path clip-path="url(#clip370)" d="M1008.28 12.096 L1043.04 12.096 L1043.04 18.9825 L1016.47 18.9825 L1016.47 36.8065 L1040.45 36.8065 L1040.45 43.6931 L1016.47 43.6931 L1016.47 72.576 L1008.28 72.576 L1008.28 12.096 Z" fill="#000000" fill-rule="evenodd" fill-opacity="1" /><path clip-path="url(#clip370)" d="M1075.93 34.1734 Q1074.68 33.4443 1073.18 33.1202 Q1071.72 32.7556 1069.94 32.7556 Q1063.62 32.7556 1060.22 36.8875 Q1056.85 40.9789 1056.85 48.6757 L1056.85 72.576 L1049.36 72.576 L1049.36 27.2059 L1056.85 27.2059 L1056.85 34.2544 Q1059.2 30.1225 1062.97 28.1376 Q1066.74 26.1121 1072.13 26.1121 Q1072.9 26.1121 1073.83 26.2337 Q1074.76 26.3147 1075.89 26.5172 L1075.93 34.1734 Z" fill="#000000" fill-rule="evenodd" fill-opacity="1" /><path clip-path="url(#clip370)" d="M1083.75 27.2059 L1091.21 27.2059 L1091.21 72.576 L1083.75 72.576 L1083.75 27.2059 M1083.75 9.54393 L1091.21 9.54393 L1091.21 18.9825 L1083.75 18.9825 L1083.75 9.54393 Z" fill="#000000" fill-rule="evenodd" fill-opacity="1" /><path clip-path="url(#clip370)" d="M1139.45 28.9478 L1139.45 35.9153 Q1136.29 34.1734 1133.09 33.3227 Q1129.93 32.4315 1126.69 32.4315 Q1119.44 32.4315 1115.43 37.0496 Q1111.42 41.6271 1111.42 49.9314 Q1111.42 58.2358 1115.43 62.8538 Q1119.44 67.4314 1126.69 67.4314 Q1129.93 67.4314 1133.09 66.5807 Q1136.29 65.6895 1139.45 63.9476 L1139.45 70.8341 Q1136.33 72.2924 1132.97 73.0216 Q1129.65 73.7508 1125.88 73.7508 Q1115.63 73.7508 1109.6 67.3098 Q1103.56 60.8689 1103.56 49.9314 Q1103.56 38.832 1109.64 32.472 Q1115.75 26.1121 1126.37 26.1121 Q1129.81 26.1121 1133.09 26.8413 Q1136.37 27.5299 1139.45 28.9478 Z" fill="#000000" fill-rule="evenodd" fill-opacity="1" /><path clip-path="url(#clip370)" d="M1159.79 14.324 L1159.79 27.2059 L1175.14 27.2059 L1175.14 32.9987 L1159.79 32.9987 L1159.79 57.6282 Q1159.79 63.1779 1161.29 64.7578 Q1162.83 66.3376 1167.49 66.3376 L1175.14 66.3376 L1175.14 72.576 L1167.49 72.576 Q1158.86 72.576 1155.58 69.3758 Q1152.29 66.1351 1152.29 57.6282 L1152.29 32.9987 L1146.83 32.9987 L1146.83 27.2059 L1152.29 27.2059 L1152.29 14.324 L1159.79 14.324 Z" fill="#000000" fill-rule="evenodd" fill-opacity="1" /><path clip-path="url(#clip370)" d="M1184.94 27.2059 L1192.4 27.2059 L1192.4 72.576 L1184.94 72.576 L1184.94 27.2059 M1184.94 9.54393 L1192.4 9.54393 L1192.4 18.9825 L1184.94 18.9825 L1184.94 9.54393 Z" fill="#000000" fill-rule="evenodd" fill-opacity="1" /><path clip-path="url(#clip370)" d="M1225.58 32.4315 Q1219.58 32.4315 1216.1 37.1306 Q1212.61 41.7891 1212.61 49.9314 Q1212.61 58.0738 1216.06 62.7728 Q1219.54 67.4314 1225.58 67.4314 Q1231.53 67.4314 1235.01 62.7323 Q1238.5 58.0333 1238.5 49.9314 Q1238.5 41.8701 1235.01 37.1711 Q1231.53 32.4315 1225.58 32.4315 M1225.58 26.1121 Q1235.3 26.1121 1240.85 32.4315 Q1246.4 38.7509 1246.4 49.9314 Q1246.4 61.0714 1240.85 67.4314 Q1235.3 73.7508 1225.58 73.7508 Q1215.81 73.7508 1210.26 67.4314 Q1204.75 61.0714 1204.75 49.9314 Q1204.75 38.7509 1210.26 32.4315 Q1215.81 26.1121 1225.58 26.1121 Z" fill="#000000" fill-rule="evenodd" fill-opacity="1" /><path clip-path="url(#clip370)" d="M1296.47 45.1919 L1296.47 72.576 L1289.01 72.576 L1289.01 45.4349 Q1289.01 38.994 1286.5 35.7938 Q1283.99 32.5936 1278.97 32.5936 Q1272.93 32.5936 1269.45 36.4419 Q1265.96 40.2903 1265.96 46.9338 L1265.96 72.576 L1258.47 72.576 L1258.47 27.2059 L1265.96 27.2059 L1265.96 34.2544 Q1268.64 30.163 1272.24 28.1376 Q1275.89 26.1121 1280.63 26.1121 Q1288.45 26.1121 1292.46 30.9732 Q1296.47 35.7938 1296.47 45.1919 Z" fill="#000000" fill-rule="evenodd" fill-opacity="1" /><path clip-path="url(#clip370)" d="M1373.03 35.9153 Q1375.82 30.8922 1379.71 28.5022 Q1383.6 26.1121 1388.87 26.1121 Q1395.96 26.1121 1399.8 31.0947 Q1403.65 36.0368 1403.65 45.1919 L1403.65 72.576 L1396.16 72.576 L1396.16 45.4349 Q1396.16 38.913 1393.85 35.7533 Q1391.54 32.5936 1386.8 32.5936 Q1381.01 32.5936 1377.65 36.4419 Q1374.28 40.2903 1374.28 46.9338 L1374.28 72.576 L1366.79 72.576 L1366.79 45.4349 Q1366.79 38.8725 1364.48 35.7533 Q1362.17 32.5936 1357.35 32.5936 Q1351.64 32.5936 1348.28 36.4824 Q1344.91 40.3308 1344.91 46.9338 L1344.91 72.576 L1337.42 72.576 L1337.42 27.2059 L1344.91 27.2059 L1344.91 34.2544 Q1347.47 30.082 1351.03 28.0971 Q1354.6 26.1121 1359.5 26.1121 Q1364.44 26.1121 1367.88 28.6237 Q1371.37 31.1352 1373.03 35.9153 Z" fill="#000000" fill-rule="evenodd" fill-opacity="1" /><path clip-path="url(#clip370)" d="M1436.1 32.4315 Q1430.11 32.4315 1426.62 37.1306 Q1423.14 41.7891 1423.14 49.9314 Q1423.14 58.0738 1426.58 62.7728 Q1430.06 67.4314 1436.1 67.4314 Q1442.06 67.4314 1445.54 62.7323 Q1449.02 58.0333 1449.02 49.9314 Q1449.02 41.8701 1445.54 37.1711 Q1442.06 32.4315 1436.1 32.4315 M1436.1 26.1121 Q1445.82 26.1121 1451.37 32.4315 Q1456.92 38.7509 1456.92 49.9314 Q1456.92 61.0714 1451.37 67.4314 Q1445.82 73.7508 1436.1 73.7508 Q1426.34 73.7508 1420.79 67.4314 Q1415.28 61.0714 1415.28 49.9314 Q1415.28 38.7509 1420.79 32.4315 Q1426.34 26.1121 1436.1 26.1121 Z" fill="#000000" fill-rule="evenodd" fill-opacity="1" /><path clip-path="url(#clip370)" d="M1499.13 34.0924 L1499.13 9.54393 L1506.59 9.54393 L1506.59 72.576 L1499.13 72.576 L1499.13 65.7705 Q1496.78 69.8214 1493.18 71.8063 Q1489.61 73.7508 1484.59 73.7508 Q1476.37 73.7508 1471.18 67.1883 Q1466.04 60.6258 1466.04 49.9314 Q1466.04 39.2371 1471.18 32.6746 Q1476.37 26.1121 1484.59 26.1121 Q1489.61 26.1121 1493.18 28.0971 Q1496.78 30.0415 1499.13 34.0924 M1473.73 49.9314 Q1473.73 58.1548 1477.1 62.8538 Q1480.5 67.5124 1486.41 67.5124 Q1492.33 67.5124 1495.73 62.8538 Q1499.13 58.1548 1499.13 49.9314 Q1499.13 41.7081 1495.73 37.0496 Q1492.33 32.3505 1486.41 32.3505 Q1480.5 32.3505 1477.1 37.0496 Q1473.73 41.7081 1473.73 49.9314 Z" fill="#000000" fill-rule="evenodd" fill-opacity="1" /><path clip-path="url(#clip370)" d="M1560.75 48.0275 L1560.75 51.6733 L1526.48 51.6733 Q1526.96 59.3701 1531.09 63.421 Q1535.27 67.4314 1542.68 67.4314 Q1546.97 67.4314 1550.98 66.3781 Q1555.04 65.3249 1559 63.2184 L1559 70.267 Q1554.99 71.9684 1550.78 72.8596 Q1546.57 73.7508 1542.23 73.7508 Q1531.38 73.7508 1525.02 67.4314 Q1518.7 61.1119 1518.7 50.3365 Q1518.7 39.1965 1524.69 32.6746 Q1530.73 26.1121 1540.94 26.1121 Q1550.09 26.1121 1555.4 32.0264 Q1560.75 37.9003 1560.75 48.0275 M1553.29 45.84 Q1553.21 39.7232 1549.85 36.0774 Q1546.53 32.4315 1541.02 32.4315 Q1534.78 32.4315 1531.01 35.9558 Q1527.29 39.4801 1526.72 45.8805 L1553.29 45.84 Z" fill="#000000" fill-rule="evenodd" fill-opacity="1" /><path clip-path="url(#clip370)" d="M1572.98 9.54393 L1580.43 9.54393 L1580.43 72.576 L1572.98 72.576 L1572.98 9.54393 Z" fill="#000000" fill-rule="evenodd" fill-opacity="1" /><path clip-path="url(#clip370)" d="M1624.87 65.6895 L1638.24 65.6895 L1638.24 19.5497 L1623.7 22.4663 L1623.7 15.0127 L1638.16 12.096 L1646.34 12.096 L1646.34 65.6895 L1659.71 65.6895 L1659.71 72.576 L1624.87 72.576 L1624.87 65.6895 Z" fill="#000000" fill-rule="evenodd" fill-opacity="1" /><polyline clip-path="url(#clip372)" style="stroke:#009af9; stroke-linecap:butt; stroke-linejoin:round; stroke-width:8; stroke-opacity:1; fill:none" points="
  1334,770.975 1368.79,770.975 1403.83,770.975 1439.07,770.975 1474.44,770.975 1509.91,770.975 1545.43,770.975 1580.91,770.975 1616.33,770.975 1651.63,770.975 
  1686.77,770.975 1721.7,770.975 1756.36,770.975 1790.71,770.975 1824.7,770.975 1858.3,770.975 1891.44,770.975 1924.1,770.975 1956.23,770.975 1987.8,770.975 
  2018.75,770.975 2049.06,770.975 2078.7,770.975 2107.63,770.975 2135.81,770.975 2163.22,770.975 2189.83,770.975 2215.62,770.975 2240.54,770.975 2264.57,770.975 
  2287.67,770.975 2309.82,770.975 2331.04,770.975 2351.27,770.975 2370.49,770.975 2388.67,770.975 2405.8,770.975 2421.84,770.975 2436.8,770.975 2450.68,770.975 
  2463.44,770.975 2475.07,770.975 2485.56,770.975 2494.88,770.975 2503.04,770.975 2510.04,770.975 2515.86,770.975 2520.5,770.975 2523.94,770.975 2526.19,770.975 
  2527.25,770.975 2527.11,770.975 2525.78,770.975 2523.25,770.975 2519.54,770.975 2514.63,770.975 2508.55,770.975 2501.29,770.975 2492.85,770.975 2483.26,770.975 
  2472.51,770.975 2460.63,770.975 2447.62,770.975 2433.49,770.975 2418.26,770.975 2401.94,770.975 2384.54,770.975 2366.09,770.975 2346.6,770.975 2326.1,770.975 
  2304.59,770.975 2282.1,770.975 2258.65,770.975 2234.26,770.975 2208.96,770.975 2182.76,770.975 2155.7,770.975 2127.79,770.975 2099.05,770.975 2069.52,770.975 
  2039.21,770.975 2008.16,770.975 1976.4,770.975 1943.95,770.975 1910.82,770.975 1877.04,770.975 1842.64,770.975 1807.65,770.975 1772.1,770.975 1736.01,770.975 
  1699.41,770.975 1662.27,770.975 1624.66,770.975 1586.59,770.975 1548.08,770.975 1509.16,770.975 1469.85,770.975 1430.16,770.975 1390.13,770.975 1349.77,770.975 
  1316.46,770.975 1287.6,770.975 1258.56,770.975 1229.37,770.975 1200.08,770.975 1170.73,770.975 1141.36,770.975 1112.01,770.975 1082.73,770.975 1053.54,770.975 
  1024.5,770.975 995.646,770.975 967.016,770.975 938.646,770.975 910.565,770.975 882.818,770.975 855.445,770.975 828.487,770.975 801.968,770.975 775.897,770.975 
  750.331,770.975 725.305,770.975 700.855,770.975 677.005,770.975 653.745,770.975 631.134,770.975 609.201,770.975 587.976,770.975 567.485,770.975 547.708,770.975 
  528.699,770.975 510.484,770.975 493.086,770.975 476.532,770.975 460.789,770.975 445.908,770.975 431.911,770.975 418.817,770.975 406.647,770.975 395.368,770.975 
  385.019,770.975 375.618,770.975 367.18,770.975 359.72,770.975 353.209,770.975 347.668,770.975 343.114,770.975 339.559,770.975 337.011,770.975 335.443,770.975 
  334.861,770.975 335.281,770.975 336.708,770.975 339.148,770.975 342.573,770.975 346.974,770.975 352.368,770.975 358.754,770.975 366.131,770.975 374.475,770.975 
  383.764,770.975 394.011,770.975 405.21,770.975 417.357,770.975 430.428,770.975 444.391,770.975 459.255,770.975 475.011,770.975 491.648,770.975 509.147,770.975 
  527.465,770.975 546.609,770.975 566.565,770.975 587.319,770.975 608.851,770.975 631.117,770.975 654.118,770.975 677.836,770.975 702.254,770.975 727.354,770.975 
  753.092,770.975 779.464,770.975 806.45,770.975 834.03,770.975 862.185,770.975 890.885,770.975 920.114,770.975 949.852,770.975 980.079,770.975 1010.77,770.975 
  1041.93,770.975 1073.52,770.975 1105.52,770.975 1137.92,770.975 1170.69,770.975 1203.8,770.975 1237.22,770.975 1270.93,770.975 1304.92,770.975 1337.37,770.975 
  1359.92,770.975 1382.62,770.975 1405.44,770.975 1428.36,770.975 1451.36,770.975 1474.39,770.975 1497.44,770.975 1520.46,770.975 1543.43,770.975 1566.32,770.975 
  1589.09,770.975 1611.72,770.975 1634.19,770.975 1656.45,770.975 1678.49,770.975 1700.27,770.975 1721.77,770.975 1742.95,770.975 1763.79,770.975 1784.26,770.975 
  1804.35,770.975 1824.02,770.975 1843.26,770.975 1862.03,770.975 1880.3,770.975 1898.09,770.975 1915.35,770.975 1932.05,770.975 1948.18,770.975 1963.73,770.975 
  1978.68,770.975 1993.01,770.975 2006.7,770.975 2019.72,770.975 2032.1,770.975 2043.79,770.975 2054.78,770.975 2065.06,770.975 2074.62,770.975 2083.48,770.975 
  2091.6,770.975 2098.97,770.975 2105.58,770.975 2111.42,770.975 2116.49,770.975 2120.75,770.975 2124.27,770.975 2127.01,770.975 2128.96,770.975 2130.11,770.975 
  2130.46,770.975 2130,770.975 2128.74,770.975 2126.67,770.975 2123.83,770.975 2120.19,770.975 2115.76,770.975 2110.55,770.975 2104.54,770.975 2097.75,770.975 
  2090.19,770.975 2081.86,770.975 2072.77,770.975 2062.93,770.975 2052.34,770.975 2041.02,770.975 2028.98,770.975 2016.22,770.975 2002.76,770.975 1988.61,770.975 
  1973.77,770.975 1958.27,770.975 1942.12,770.975 1925.33,770.975 1907.91,770.975 1889.89,770.975 1871.28,770.975 1852.08,770.975 1832.31,770.975 1811.99,770.975 
  1791.13,770.975 1769.77,770.975 1747.91,770.975 1725.57,770.975 1702.76,770.975 1679.48,770.975 1655.77,770.975 1631.64,770.975 1607.11,770.975 1582.19,770.975 
  1556.91,770.975 1531.28,770.975 1505.31,770.975 1479.03,770.975 1452.46,770.975 1425.61,770.975 1398.5,770.975 1371.15,770.975 1343.59,770.975 1323.63,770.975 
  1307.7,770.975 1291.66,770.975 1275.55,770.975 1259.36,770.975 1243.13,770.975 1226.86,770.975 1210.59,770.975 1194.34,770.975 1178.12,770.975 1161.94,770.975 
  1145.84,770.975 1129.83,770.975 1113.93,770.975 1098.16,770.975 1082.55,770.975 1067.11,770.975 1051.86,770.975 1036.83,770.975 1022.02,770.975 1007.46,770.975 
  993.161,770.975 979.148,770.975 965.44,770.975 952.057,770.975 939.009,770.975 926.292,770.975 913.941,770.975 901.975,770.975 890.409,770.975 879.262,770.975 
  868.543,770.975 858.233,770.975 848.37,770.975 838.969,770.975 830.044,770.975 821.611,770.975 813.681,770.975 806.221,770.975 799.27,770.975 792.841,770.975 
  786.945,770.975 781.592,770.975 776.794,770.975 772.516,770.975 768.784,770.975 765.612,770.975 763.007,770.975 760.977,770.975 759.53,770.975 758.636,770.975 
  758.303,770.975 758.547,770.975 759.373,770.975 760.783,770.975 762.783,770.975 765.348,770.975 768.469,770.975 772.164,770.975 776.434,770.975 781.278,770.975 
  786.697,770.975 792.675,770.975 799.184,770.975 806.245,770.975 813.854,770.975 822.009,770.975 830.707,770.975 839.935,770.975 849.656,770.975 859.889,770.975 
  870.627,770.975 881.865,770.975 893.597,770.975 905.813,770.975 918.473,770.975 931.59,770.975 945.156,770.975 959.163,770.975 973.601,770.975 988.463,770.975 
  1003.71,770.975 1019.36,770.975 1035.38,770.975 1051.78,770.975 1068.54,770.975 1085.65,770.975 1103.09,770.975 1120.86,770.975 1138.94,770.975 1157.32,770.975 
  1175.99,770.975 1194.94,770.975 1214.15,770.975 1233.63,770.975 1253.35,770.975 1273.31,770.975 1293.49,770.975 1313.89,770.975 1334.17,770.975 1342.68,770.975 
  1351.26,770.975 
  "/>
<polyline clip-path="url(#clip372)" style="stroke:#e26f46; stroke-linecap:butt; stroke-linejoin:round; stroke-width:8; stroke-opacity:1; fill:none" points="
  1334,166.942 1368.79,198.179 1403.83,226.908 1439.07,253.275 1474.44,277.398 1509.91,299.428 1545.43,319.499 1580.91,337.733 1616.33,354.274 1651.63,369.242 
  1686.77,382.766 1721.7,394.956 1756.36,405.925 1790.71,415.775 1824.7,424.602 1858.3,432.501 1891.44,439.552 1924.1,445.835 1956.23,451.423 1987.8,456.382 
  2018.75,460.774 2049.06,464.654 2078.7,468.076 2107.63,471.084 2135.81,473.722 2163.22,476.029 2189.83,478.042 2215.62,479.791 2240.54,481.305 2264.57,482.611 
  2287.67,483.731 2309.82,484.688 2331.04,485.503 2351.27,486.192 2370.49,486.771 2388.67,487.254 2405.8,487.653 2421.84,487.981 2436.8,488.247 2450.68,488.462 
  2463.44,488.633 2475.07,488.767 2485.56,488.871 2494.88,488.95 2503.04,489.009 2510.04,489.053 2515.86,489.084 2520.5,489.105 2523.94,489.12 2526.19,489.128 
  2527.25,489.132 2527.11,489.131 2525.78,489.127 2523.25,489.117 2519.54,489.101 2514.63,489.078 2508.55,489.044 2501.29,488.997 2492.85,488.934 2483.26,488.85 
  2472.51,488.74 2460.63,488.598 2447.62,488.417 2433.49,488.192 2418.26,487.912 2401.94,487.568 2384.54,487.15 2366.09,486.645 2346.6,486.041 2326.1,485.322 
  2304.59,484.472 2282.1,483.473 2258.65,482.303 2234.26,480.939 2208.96,479.357 2182.76,477.528 2155.7,475.421 2127.79,473 2099.05,470.225 2069.52,467.053 
  2039.21,463.437 2008.16,459.322 1976.4,454.65 1943.95,449.354 1910.82,443.356 1877.04,436.574 1842.64,428.917 1807.65,420.284 1772.1,410.559 1736.01,399.617 
  1699.41,387.314 1662.27,373.478 1624.66,357.937 1586.59,340.493 1548.08,320.924 1509.16,298.982 1469.85,274.389 1430.16,246.839 1390.13,215.987 1349.77,181.452 
  1316.46,1358.91 1287.6,1333.96 1258.56,1310.68 1229.37,1288.99 1200.08,1268.84 1170.73,1250.14 1141.36,1232.84 1112.01,1216.84 1082.73,1202.09 1053.54,1188.51 
  1024.5,1176.03 995.646,1164.58 967.016,1154.08 938.646,1144.48 910.565,1135.7 882.818,1127.7 855.445,1120.4 828.487,1113.77 801.968,1107.74 775.897,1102.27 
  750.331,1097.3 725.305,1092.81 700.855,1088.76 677.005,1085.09 653.745,1081.79 631.134,1078.81 609.201,1076.13 587.976,1073.73 567.485,1071.58 547.708,1069.65 
  528.699,1067.92 510.484,1066.38 493.086,1065.01 476.532,1063.79 460.789,1062.71 445.908,1061.75 431.911,1060.9 418.817,1060.16 406.647,1059.51 395.368,1058.93 
  385.019,1058.44 375.618,1058.01 367.18,1057.64 359.72,1057.32 353.209,1057.06 347.668,1056.85 343.114,1056.67 339.559,1056.54 337.011,1056.45 335.443,1056.39 
  334.861,1056.37 335.281,1056.39 336.708,1056.44 339.148,1056.53 342.573,1056.65 346.974,1056.82 352.368,1057.03 358.754,1057.29 366.131,1057.59 374.475,1057.96 
  383.764,1058.38 394.011,1058.87 405.21,1059.43 417.357,1060.08 430.428,1060.82 444.391,1061.66 459.255,1062.61 475.011,1063.68 491.648,1064.9 509.147,1066.27 
  527.465,1067.81 546.609,1069.54 566.565,1071.48 587.319,1073.66 608.851,1076.09 631.117,1078.81 654.118,1081.84 677.836,1085.22 702.254,1088.98 727.354,1093.17 
  753.092,1097.82 779.464,1102.99 806.45,1108.73 834.03,1115.09 862.185,1122.15 890.885,1129.96 920.114,1138.61 949.852,1148.18 980.079,1158.77 1010.77,1170.47 
  1041.93,1183.4 1073.52,1197.69 1105.52,1213.47 1137.92,1230.89 1170.69,1250.12 1203.8,1271.31 1237.22,1294.66 1270.93,1320.39 1304.92,1348.71 1337.37,170.092 
  1359.92,190.479 1382.62,209.828 1405.44,228.17 1428.36,245.518 1451.36,261.913 1474.39,277.363 1497.44,291.915 1520.46,305.589 1543.43,318.42 1566.32,330.448 
  1589.09,341.695 1611.72,352.21 1634.19,362.027 1656.45,371.176 1678.49,379.696 1700.27,387.62 1721.77,394.98 1742.95,401.809 1763.79,408.139 1784.26,414 
  1804.35,419.423 1824.02,424.435 1843.26,429.063 1862.03,433.33 1880.3,437.26 1898.09,440.882 1915.35,444.212 1932.05,447.271 1948.18,450.076 1963.73,452.647 
  1978.68,455.002 1993.01,457.154 2006.7,459.117 2019.72,460.905 2032.1,462.532 2043.79,464.008 2054.78,465.342 2065.06,466.545 2074.62,467.626 2083.48,468.594 
  2091.6,469.456 2098.97,470.216 2105.58,470.881 2111.42,471.456 2116.49,471.943 2120.75,472.347 2124.27,472.675 2127.01,472.928 2128.96,473.106 2130.11,473.211 
  2130.46,473.242 2130,473.201 2128.74,473.086 2126.67,472.897 2123.83,472.635 2120.19,472.295 2115.76,471.874 2110.55,471.37 2104.54,470.778 2097.75,470.092 
  2090.19,469.308 2081.86,468.42 2072.77,467.419 2062.93,466.299 2052.34,465.051 2041.02,463.664 2028.98,462.128 2016.22,460.432 2002.76,458.562 1988.61,456.504 
  1973.77,454.241 1958.27,451.759 1942.12,449.038 1925.33,446.059 1907.91,442.8 1889.89,439.238 1871.28,435.348 1852.08,431.098 1832.31,426.46 1811.99,421.403 
  1791.13,415.891 1769.77,409.887 1747.91,403.35 1725.57,396.237 1702.76,388.495 1679.48,380.068 1655.77,370.905 1631.64,360.943 1607.11,350.118 1582.19,338.359 
  1556.91,325.59 1531.28,311.73 1505.31,296.687 1479.03,280.368 1452.46,262.672 1425.61,243.491 1398.5,222.708 1371.15,200.199 1343.59,175.834 1323.63,1365.41 
  1307.7,1351.14 1291.66,1337.37 1275.55,1324.09 1259.36,1311.3 1243.13,1299.01 1226.86,1287.21 1210.59,1275.89 1194.34,1265.06 1178.12,1254.71 1161.94,1244.82 
  1145.84,1235.39 1129.83,1226.4 1113.93,1217.85 1098.16,1209.72 1082.55,1202.01 1067.11,1194.69 1051.86,1187.76 1036.83,1181.21 1022.02,1175.01 1007.46,1169.16 
  993.161,1163.63 979.148,1158.43 965.44,1153.53 952.057,1148.92 939.009,1144.6 926.292,1140.53 913.941,1136.72 901.975,1133.16 890.409,1129.82 879.262,1126.72 
  868.543,1123.82 858.233,1121.12 848.37,1118.61 838.969,1116.29 830.044,1114.14 821.611,1112.16 813.681,1110.35 806.221,1108.68 799.27,1107.15 792.841,1105.78 
  786.945,1104.53 781.592,1103.43 776.794,1102.45 772.516,1101.59 768.784,1100.85 765.612,1100.22 763.007,1099.72 760.977,1099.32 759.53,1099.04 758.636,1098.87 
  758.303,1098.81 758.547,1098.86 759.373,1099.01 760.783,1099.29 762.783,1099.67 765.348,1100.17 768.469,1100.78 772.164,1101.52 776.434,1102.37 781.278,1103.36 
  786.697,1104.48 792.675,1105.74 799.184,1107.14 806.245,1108.68 813.854,1110.38 822.009,1112.25 830.707,1114.3 839.935,1116.52 849.656,1118.93 859.889,1121.55 
  870.627,1124.38 881.865,1127.43 893.597,1130.73 905.813,1134.29 918.473,1138.1 931.59,1142.21 945.156,1146.61 959.163,1151.35 973.601,1156.42 988.463,1161.86 
  1003.71,1167.69 1019.36,1173.92 1035.38,1180.59 1051.78,1187.73 1068.54,1195.36 1085.65,1203.52 1103.09,1212.23 1120.86,1221.53 1138.94,1231.47 1157.32,1242.07 
  1175.99,1253.38 1194.94,1265.45 1214.15,1278.33 1233.63,1292.06 1253.35,1306.69 1273.31,1322.29 1293.49,1338.91 1313.89,1356.61 1334.17,167.1 1342.68,175.002 
  1351.26,182.787 
  "/>
<polyline clip-path="url(#clip372)" style="stroke:#008000; stroke-linecap:butt; stroke-linejoin:round; stroke-width:8; stroke-opacity:1; fill:none" stroke-dasharray="4, 8" points="
  1334,461.307 1368.79,475.28 1403.83,489.483 1439.07,503.889 1474.44,518.454 1509.91,533.147 1545.43,547.93 1580.91,562.754 1616.33,577.591 1651.63,592.395 
  1686.77,607.137 1721.7,621.771 1756.36,636.265 1790.71,650.581 1824.7,664.686 1858.3,678.553 1891.44,692.149 1924.1,705.446 1956.23,718.423 1987.8,731.059 
  2018.75,743.332 2049.06,755.224 2078.7,766.728 2107.63,777.826 2135.81,788.508 2163.22,798.773 2189.83,808.616 2215.62,818.029 2240.54,827.008 2264.57,835.553 
  2287.67,843.66 2309.82,851.332 2331.04,858.588 2351.27,865.419 2370.49,871.828 2388.67,877.817 2405.8,883.392 2421.84,888.556 2436.8,893.322 2450.68,897.696 
  2463.44,901.681 2475.07,905.28 2485.56,908.498 2494.88,911.34 2503.04,913.81 2510.04,915.916 2515.86,917.658 2520.5,919.041 2523.94,920.065 2526.19,920.733 
  2527.25,921.047 2527.11,921.006 2525.78,920.611 2523.25,919.861 2519.54,918.755 2514.63,917.291 2508.55,915.467 2501.29,913.279 2492.85,910.723 2483.26,907.795 
  2472.51,904.491 2460.63,900.806 2447.62,896.734 2433.49,892.27 2418.26,887.408 2401.94,882.14 2384.54,876.462 2366.09,870.368 2346.6,863.851 2326.1,856.907 
  2304.59,849.531 2282.1,841.716 2258.65,833.458 2234.26,824.756 2208.96,815.607 2182.76,806.012 2155.7,795.97 2127.79,785.483 2099.05,774.549 2069.52,763.177 
  2039.21,751.373 2008.16,739.147 1976.4,726.51 1943.95,713.476 1910.82,700.05 1877.04,686.251 1842.64,672.1 1807.65,657.618 1772.1,642.83 1736.01,627.761 
  1699.41,612.433 1662.27,596.861 1624.66,581.083 1586.59,565.131 1548.08,549.037 1509.16,532.834 1469.85,516.556 1430.16,500.238 1390.13,483.916 1349.77,467.625 
  1316.46,454.317 1287.6,442.903 1258.56,431.532 1229.37,420.228 1200.08,409.014 1170.73,397.917 1141.36,386.962 1112.01,376.165 1082.73,365.551 1053.54,355.137 
  1024.5,344.943 995.646,334.985 967.016,325.278 938.646,315.832 910.565,306.656 882.818,297.763 855.445,289.161 828.487,280.858 801.968,272.855 775.897,265.149 
  750.331,257.75 725.305,250.658 700.855,243.875 677.005,237.397 653.745,231.213 631.134,225.328 609.201,219.738 587.976,214.44 567.485,209.43 547.708,204.691 
  528.699,200.225 510.484,196.029 493.086,192.095 476.532,188.421 460.789,184.987 445.908,181.797 431.911,178.844 418.817,176.124 406.647,173.632 395.368,171.354 
  385.019,169.291 375.618,167.438 367.18,165.793 359.72,164.352 353.209,163.105 347.668,162.052 343.114,161.192 339.559,160.524 337.011,160.046 335.443,159.754 
  334.861,159.645 335.281,159.723 336.708,159.99 339.148,160.446 342.573,161.09 346.974,161.921 352.368,162.945 358.754,164.166 366.131,165.589 374.475,167.214 
  383.764,169.042 394.011,171.082 405.21,173.34 417.357,175.823 430.428,178.533 444.391,181.474 459.255,184.656 475.011,188.086 491.648,191.774 509.147,195.724 
  527.465,199.938 546.609,204.43 566.565,209.207 587.319,214.278 608.851,219.65 631.117,225.324 654.118,231.312 677.836,237.621 702.254,244.259 727.354,251.233 
  753.092,258.541 779.464,266.194 806.45,274.196 834.03,282.551 862.185,291.263 890.885,300.331 920.114,309.757 949.852,319.542 980.079,329.686 1010.77,340.185 
  1041.93,351.04 1073.52,362.247 1105.52,373.798 1137.92,385.686 1170.69,397.904 1203.8,410.43 1237.22,423.254 1270.93,436.363 1304.92,449.741 1337.37,462.655 
  1359.92,471.704 1382.62,480.869 1405.44,490.141 1428.36,499.5 1451.36,508.94 1474.39,518.432 1497.44,527.97 1520.46,537.53 1543.43,547.096 1566.32,556.655 
  1589.09,566.178 1611.72,575.658 1634.19,585.079 1656.45,594.418 1678.49,603.663 1700.27,612.796 1721.77,621.8 1742.95,630.661 1763.79,639.365 1784.26,647.898 
  1804.35,656.249 1824.02,664.406 1843.26,672.356 1862.03,680.087 1880.3,687.589 1898.09,694.862 1915.35,701.891 1932.05,708.667 1948.18,715.182 1963.73,721.435 
  1978.68,727.423 1993.01,733.136 2006.7,738.568 2019.72,743.715 2032.1,748.584 2043.79,753.165 2054.78,757.454 2065.06,761.449 2074.62,765.152 2083.48,768.569 
  2091.6,771.691 2098.97,774.517 2105.58,777.045 2111.42,779.272 2116.49,781.198 2120.75,782.818 2124.27,784.151 2127.01,785.187 2128.96,785.924 2130.11,786.359 
  2130.46,786.491 2130,786.319 2128.74,785.842 2126.67,785.059 2123.83,783.984 2120.19,782.605 2115.76,780.924 2110.55,778.938 2104.54,776.647 2097.75,774.052 
  2090.19,771.151 2081.86,767.946 2072.77,764.437 2062.93,760.623 2052.34,756.504 2041.02,752.083 2028.98,747.358 2016.22,742.333 2002.76,737.008 1988.61,731.383 
  1973.77,725.46 1958.27,719.244 1942.12,712.737 1925.33,705.943 1907.91,698.867 1889.89,691.515 1871.28,683.891 1852.08,675.992 1832.31,667.832 1811.99,659.418 
  1791.13,650.757 1769.77,641.86 1747.91,632.735 1725.57,623.393 1702.76,613.839 1679.48,604.08 1655.77,594.133 1631.64,584.01 1607.11,573.724 1582.19,563.29 
  1556.91,552.721 1531.28,542.033 1505.31,531.237 1479.03,520.351 1452.46,509.392 1425.61,498.374 1398.5,487.316 1371.15,476.234 1343.59,465.145 1323.63,457.173 
  1307.7,450.841 1291.66,444.506 1275.55,438.171 1259.36,431.846 1243.13,425.541 1226.86,419.263 1210.59,413.022 1194.34,406.831 1178.12,400.697 1161.94,394.621 
  1145.84,388.621 1129.83,382.7 1113.93,376.865 1098.16,371.125 1082.55,365.487 1067.11,359.958 1051.86,354.544 1036.83,349.25 1022.02,344.082 1007.46,339.041 
  993.161,334.136 979.148,329.37 965.44,324.748 952.057,320.275 939.009,315.952 926.292,311.774 913.941,307.75 901.975,303.884 890.409,300.179 879.262,296.636 
  868.543,293.256 858.233,290.029 848.37,286.965 838.969,284.066 830.044,281.333 821.611,278.767 813.681,276.369 806.221,274.127 799.27,272.05 792.841,270.139 
  786.945,268.395 781.592,266.819 776.794,265.412 772.516,264.162 768.784,263.075 765.612,262.154 763.007,261.399 760.977,260.812 759.53,260.394 758.636,260.136 
  758.303,260.04 758.547,260.111 759.373,260.349 760.783,260.756 762.783,261.334 765.348,262.077 768.469,262.983 772.164,264.059 776.434,265.306 781.278,266.726 
  786.697,268.322 792.675,270.09 799.184,272.025 806.245,274.135 813.854,276.422 822.009,278.888 830.707,281.535 839.935,284.363 849.656,287.363 859.889,290.545 
  870.627,293.911 881.865,297.461 893.597,301.197 905.813,305.121 918.473,309.223 931.59,313.51 945.156,317.984 959.163,322.645 973.601,327.495 988.463,332.534 
  1003.71,337.752 1019.36,343.155 1035.38,348.743 1051.78,354.514 1068.54,360.468 1085.65,366.603 1103.09,372.915 1120.86,379.402 1138.94,386.062 1157.32,392.894 
  1175.99,399.894 1194.94,407.059 1214.15,414.385 1233.63,421.87 1253.35,429.508 1273.31,437.296 1293.49,445.227 1313.89,453.298 1334.17,461.375 1342.68,464.781 
  1351.26,468.221 
  "/>
<path clip-path="url(#clip370)" d="
M1423.59 477.116 L2284.84 477.116 L2284.84 166.076 L1423.59 166.076  Z
  " fill="#ffffff" fill-rule="evenodd" fill-opacity="1"/>
<polyline clip-path="url(#clip370)" style="stroke:#000000; stroke-linecap:butt; stroke-linejoin:round; stroke-width:4; stroke-opacity:1; fill:none" points="
  1423.59,477.116 2284.84,477.116 2284.84,166.076 1423.59,166.076 1423.59,477.116 
  "/>
<polyline clip-path="url(#clip370)" style="stroke:#009af9; stroke-linecap:butt; stroke-linejoin:round; stroke-width:6; stroke-opacity:1; fill:none" points="
  1446.23,243.836 1582.06,243.836 
  "/>
<path clip-path="url(#clip370)" d="M1638.07 219.617 L1638.07 226.457 Q1634.08 224.548 1630.54 223.61 Q1626.99 222.673 1623.7 222.673 Q1617.97 222.673 1614.84 224.895 Q1611.75 227.117 1611.75 231.214 Q1611.75 234.652 1613.8 236.423 Q1615.88 238.159 1621.65 239.235 L1625.88 240.103 Q1633.73 241.596 1637.45 245.381 Q1641.2 249.131 1641.2 255.45 Q1641.2 262.985 1636.13 266.874 Q1631.09 270.763 1621.33 270.763 Q1617.65 270.763 1613.49 269.929 Q1609.36 269.096 1604.91 267.464 L1604.91 260.242 Q1609.18 262.638 1613.28 263.853 Q1617.38 265.068 1621.33 265.068 Q1627.34 265.068 1630.61 262.707 Q1633.87 260.346 1633.87 255.971 Q1633.87 252.152 1631.51 249.999 Q1629.18 247.846 1623.83 246.77 L1619.56 245.936 Q1611.72 244.374 1608.21 241.041 Q1604.7 237.707 1604.7 231.77 Q1604.7 224.895 1609.53 220.937 Q1614.39 216.978 1622.9 216.978 Q1626.54 216.978 1630.33 217.638 Q1634.11 218.298 1638.07 219.617 Z" fill="#000000" fill-rule="evenodd" fill-opacity="1" /><path clip-path="url(#clip370)" d="M1651.86 230.867 L1658.24 230.867 L1658.24 269.756 L1651.86 269.756 L1651.86 230.867 M1651.86 215.728 L1658.24 215.728 L1658.24 223.818 L1651.86 223.818 L1651.86 215.728 Z" fill="#000000" fill-rule="evenodd" fill-opacity="1" /><path clip-path="url(#clip370)" d="M1701.89 238.332 Q1704.29 234.027 1707.62 231.978 Q1710.95 229.93 1715.47 229.93 Q1721.54 229.93 1724.84 234.2 Q1728.14 238.436 1728.14 246.284 L1728.14 269.756 L1721.72 269.756 L1721.72 246.492 Q1721.72 240.902 1719.74 238.193 Q1717.76 235.485 1713.7 235.485 Q1708.73 235.485 1705.85 238.784 Q1702.97 242.082 1702.97 247.777 L1702.97 269.756 L1696.54 269.756 L1696.54 246.492 Q1696.54 240.867 1694.56 238.193 Q1692.58 235.485 1688.45 235.485 Q1683.56 235.485 1680.67 238.818 Q1677.79 242.117 1677.79 247.777 L1677.79 269.756 L1671.37 269.756 L1671.37 230.867 L1677.79 230.867 L1677.79 236.909 Q1679.98 233.332 1683.04 231.631 Q1686.09 229.93 1690.29 229.93 Q1694.53 229.93 1697.48 232.082 Q1700.47 234.235 1701.89 238.332 Z" fill="#000000" fill-rule="evenodd" fill-opacity="1" /><path clip-path="url(#clip370)" d="M1747.06 263.922 L1747.06 284.547 L1740.64 284.547 L1740.64 230.867 L1747.06 230.867 L1747.06 236.77 Q1749.08 233.298 1752.13 231.631 Q1755.22 229.93 1759.49 229.93 Q1766.58 229.93 1770.99 235.555 Q1775.43 241.179 1775.43 250.346 Q1775.43 259.513 1770.99 265.138 Q1766.58 270.763 1759.49 270.763 Q1755.22 270.763 1752.13 269.096 Q1749.08 267.395 1747.06 263.922 M1768.8 250.346 Q1768.8 243.298 1765.88 239.304 Q1763 235.277 1757.93 235.277 Q1752.86 235.277 1749.95 239.304 Q1747.06 243.298 1747.06 250.346 Q1747.06 257.395 1749.95 261.422 Q1752.86 265.415 1757.93 265.415 Q1763 265.415 1765.88 261.422 Q1768.8 257.395 1768.8 250.346 Z" fill="#000000" fill-rule="evenodd" fill-opacity="1" /><path clip-path="url(#clip370)" d="M1786.02 215.728 L1792.41 215.728 L1792.41 269.756 L1786.02 269.756 L1786.02 215.728 Z" fill="#000000" fill-rule="evenodd" fill-opacity="1" /><path clip-path="url(#clip370)" d="M1839.04 248.714 L1839.04 251.839 L1809.67 251.839 Q1810.08 258.436 1813.63 261.909 Q1817.2 265.346 1823.56 265.346 Q1827.24 265.346 1830.67 264.443 Q1834.15 263.54 1837.55 261.735 L1837.55 267.777 Q1834.11 269.235 1830.5 269.999 Q1826.89 270.763 1823.17 270.763 Q1813.87 270.763 1808.42 265.346 Q1803 259.929 1803 250.693 Q1803 241.145 1808.14 235.555 Q1813.31 229.93 1822.06 229.93 Q1829.91 229.93 1834.46 234.999 Q1839.04 240.034 1839.04 248.714 M1832.65 246.839 Q1832.58 241.596 1829.7 238.471 Q1826.85 235.346 1822.13 235.346 Q1816.79 235.346 1813.56 238.367 Q1810.36 241.388 1809.88 246.874 L1832.65 246.839 Z" fill="#000000" fill-rule="evenodd" fill-opacity="1" /><path clip-path="url(#clip370)" d="M1849.81 217.916 L1879.6 217.916 L1879.6 223.818 L1856.82 223.818 L1856.82 239.096 L1877.37 239.096 L1877.37 244.999 L1856.82 244.999 L1856.82 269.756 L1849.81 269.756 L1849.81 217.916 Z" fill="#000000" fill-rule="evenodd" fill-opacity="1" /><path clip-path="url(#clip370)" d="M1890.71 217.916 L1901.16 217.916 L1914.39 253.193 L1927.69 217.916 L1938.14 217.916 L1938.14 269.756 L1931.3 269.756 L1931.3 224.235 L1917.93 259.79 L1910.88 259.79 L1897.51 224.235 L1897.51 269.756 L1890.71 269.756 L1890.71 217.916 Z" fill="#000000" fill-rule="evenodd" fill-opacity="1" /><path clip-path="url(#clip370)" d="M1951.26 217.916 L1958.31 217.916 L1958.31 249.409 Q1958.31 257.742 1961.33 261.422 Q1964.35 265.068 1971.12 265.068 Q1977.86 265.068 1980.88 261.422 Q1983.9 257.742 1983.9 249.409 L1983.9 217.916 L1990.95 217.916 L1990.95 250.277 Q1990.95 260.415 1985.92 265.589 Q1980.92 270.763 1971.12 270.763 Q1961.3 270.763 1956.26 265.589 Q1951.26 260.415 1951.26 250.277 L1951.26 217.916 Z" fill="#000000" fill-rule="evenodd" fill-opacity="1" /><polyline clip-path="url(#clip370)" style="stroke:#e26f46; stroke-linecap:butt; stroke-linejoin:round; stroke-width:6; stroke-opacity:1; fill:none" points="
  1446.23,321.596 1582.06,321.596 
  "/>
<path clip-path="url(#clip370)" d="M1627.48 314.599 Q1626.4 313.974 1625.12 313.696 Q1623.87 313.384 1622.34 313.384 Q1616.92 313.384 1614.01 316.926 Q1611.13 320.433 1611.13 327.03 L1611.13 347.516 L1604.7 347.516 L1604.7 308.627 L1611.13 308.627 L1611.13 314.669 Q1613.14 311.127 1616.37 309.426 Q1619.6 307.69 1624.22 307.69 Q1624.88 307.69 1625.67 307.794 Q1626.47 307.863 1627.45 308.037 L1627.48 314.599 Z" fill="#000000" fill-rule="evenodd" fill-opacity="1" /><path clip-path="url(#clip370)" d="M1665.88 326.474 L1665.88 329.599 L1636.51 329.599 Q1636.92 336.196 1640.47 339.669 Q1644.04 343.106 1650.4 343.106 Q1654.08 343.106 1657.52 342.203 Q1660.99 341.3 1664.39 339.495 L1664.39 345.537 Q1660.95 346.995 1657.34 347.759 Q1653.73 348.523 1650.02 348.523 Q1640.71 348.523 1635.26 343.106 Q1629.84 337.689 1629.84 328.453 Q1629.84 318.905 1634.98 313.315 Q1640.15 307.69 1648.9 307.69 Q1656.75 307.69 1661.3 312.759 Q1665.88 317.794 1665.88 326.474 M1659.49 324.599 Q1659.42 319.356 1656.54 316.231 Q1653.7 313.106 1648.97 313.106 Q1643.63 313.106 1640.4 316.127 Q1637.2 319.148 1636.72 324.634 L1659.49 324.599 Z" fill="#000000" fill-rule="evenodd" fill-opacity="1" /><path clip-path="url(#clip370)" d="M1696.06 293.488 L1696.06 298.801 L1689.95 298.801 Q1686.51 298.801 1685.15 300.19 Q1683.83 301.578 1683.83 305.19 L1683.83 308.627 L1694.36 308.627 L1694.36 313.592 L1683.83 313.592 L1683.83 347.516 L1677.41 347.516 L1677.41 313.592 L1671.3 313.592 L1671.3 308.627 L1677.41 308.627 L1677.41 305.919 Q1677.41 299.426 1680.43 296.474 Q1683.45 293.488 1690.01 293.488 L1696.06 293.488 Z" fill="#000000" fill-rule="evenodd" fill-opacity="1" /><path clip-path="url(#clip370)" d="M1734.67 326.474 L1734.67 329.599 L1705.29 329.599 Q1705.71 336.196 1709.25 339.669 Q1712.83 343.106 1719.18 343.106 Q1722.86 343.106 1726.3 342.203 Q1729.77 341.3 1733.17 339.495 L1733.17 345.537 Q1729.74 346.995 1726.13 347.759 Q1722.51 348.523 1718.8 348.523 Q1709.49 348.523 1704.04 343.106 Q1698.63 337.689 1698.63 328.453 Q1698.63 318.905 1703.76 313.315 Q1708.94 307.69 1717.69 307.69 Q1725.54 307.69 1730.08 312.759 Q1734.67 317.794 1734.67 326.474 M1728.28 324.599 Q1728.21 319.356 1725.33 316.231 Q1722.48 313.106 1717.76 313.106 Q1712.41 313.106 1709.18 316.127 Q1705.99 319.148 1705.5 324.634 L1728.28 324.599 Z" fill="#000000" fill-rule="evenodd" fill-opacity="1" /><path clip-path="url(#clip370)" d="M1767.69 314.599 Q1766.61 313.974 1765.33 313.696 Q1764.08 313.384 1762.55 313.384 Q1757.13 313.384 1754.22 316.926 Q1751.33 320.433 1751.33 327.03 L1751.33 347.516 L1744.91 347.516 L1744.91 308.627 L1751.33 308.627 L1751.33 314.669 Q1753.35 311.127 1756.58 309.426 Q1759.81 307.69 1764.42 307.69 Q1765.08 307.69 1765.88 307.794 Q1766.68 307.863 1767.65 308.037 L1767.69 314.599 Z" fill="#000000" fill-rule="evenodd" fill-opacity="1" /><path clip-path="url(#clip370)" d="M1806.09 326.474 L1806.09 329.599 L1776.72 329.599 Q1777.13 336.196 1780.67 339.669 Q1784.25 343.106 1790.6 343.106 Q1794.29 343.106 1797.72 342.203 Q1801.19 341.3 1804.6 339.495 L1804.6 345.537 Q1801.16 346.995 1797.55 347.759 Q1793.94 348.523 1790.22 348.523 Q1780.92 348.523 1775.47 343.106 Q1770.05 337.689 1770.05 328.453 Q1770.05 318.905 1775.19 313.315 Q1780.36 307.69 1789.11 307.69 Q1796.96 307.69 1801.51 312.759 Q1806.09 317.794 1806.09 326.474 M1799.7 324.599 Q1799.63 319.356 1796.75 316.231 Q1793.9 313.106 1789.18 313.106 Q1783.83 313.106 1780.6 316.127 Q1777.41 319.148 1776.92 324.634 L1799.7 324.599 Z" fill="#000000" fill-rule="evenodd" fill-opacity="1" /><path clip-path="url(#clip370)" d="M1848.9 324.044 L1848.9 347.516 L1842.51 347.516 L1842.51 324.252 Q1842.51 318.731 1840.36 315.988 Q1838.21 313.245 1833.9 313.245 Q1828.73 313.245 1825.74 316.544 Q1822.76 319.842 1822.76 325.537 L1822.76 347.516 L1816.33 347.516 L1816.33 308.627 L1822.76 308.627 L1822.76 314.669 Q1825.05 311.162 1828.14 309.426 Q1831.26 307.69 1835.33 307.69 Q1842.03 307.69 1845.47 311.856 Q1848.9 315.988 1848.9 324.044 Z" fill="#000000" fill-rule="evenodd" fill-opacity="1" /><path clip-path="url(#clip370)" d="M1889.63 310.12 L1889.63 316.092 Q1886.92 314.599 1884.18 313.87 Q1881.47 313.106 1878.69 313.106 Q1872.48 313.106 1869.04 317.064 Q1865.6 320.988 1865.6 328.106 Q1865.6 335.224 1869.04 339.182 Q1872.48 343.106 1878.69 343.106 Q1881.47 343.106 1884.18 342.377 Q1886.92 341.613 1889.63 340.12 L1889.63 346.023 Q1886.96 347.273 1884.08 347.898 Q1881.23 348.523 1878 348.523 Q1869.22 348.523 1864.04 343.002 Q1858.87 337.481 1858.87 328.106 Q1858.87 318.592 1864.08 313.141 Q1869.32 307.69 1878.42 307.69 Q1881.37 307.69 1884.18 308.315 Q1886.99 308.905 1889.63 310.12 Z" fill="#000000" fill-rule="evenodd" fill-opacity="1" /><path clip-path="url(#clip370)" d="M1934.01 326.474 L1934.01 329.599 L1904.63 329.599 Q1905.05 336.196 1908.59 339.669 Q1912.17 343.106 1918.52 343.106 Q1922.2 343.106 1925.64 342.203 Q1929.11 341.3 1932.51 339.495 L1932.51 345.537 Q1929.08 346.995 1925.46 347.759 Q1921.85 348.523 1918.14 348.523 Q1908.83 348.523 1903.38 343.106 Q1897.97 337.689 1897.97 328.453 Q1897.97 318.905 1903.1 313.315 Q1908.28 307.69 1917.03 307.69 Q1924.87 307.69 1929.42 312.759 Q1934.01 317.794 1934.01 326.474 M1927.62 324.599 Q1927.55 319.356 1924.67 316.231 Q1921.82 313.106 1917.1 313.106 Q1911.75 313.106 1908.52 316.127 Q1905.33 319.148 1904.84 324.634 L1927.62 324.599 Z" fill="#000000" fill-rule="evenodd" fill-opacity="1" /><polyline clip-path="url(#clip370)" style="stroke:#008000; stroke-linecap:butt; stroke-linejoin:round; stroke-width:6; stroke-opacity:1; fill:none" stroke-dasharray="3, 6" points="
  1446.23,399.356 1582.06,399.356 
  "/>
<path clip-path="url(#clip370)" d="M1604.7 373.436 L1614.15 373.436 L1637.13 416.804 L1637.13 373.436 L1643.94 373.436 L1643.94 425.276 L1634.49 425.276 L1611.51 381.908 L1611.51 425.276 L1604.7 425.276 L1604.7 373.436 Z" fill="#000000" fill-rule="evenodd" fill-opacity="1" /><path clip-path="url(#clip370)" d="M1690.88 404.234 L1690.88 407.359 L1661.51 407.359 Q1661.92 413.956 1665.47 417.429 Q1669.04 420.866 1675.4 420.866 Q1679.08 420.866 1682.51 419.963 Q1685.99 419.06 1689.39 417.255 L1689.39 423.297 Q1685.95 424.755 1682.34 425.519 Q1678.73 426.283 1675.01 426.283 Q1665.71 426.283 1660.26 420.866 Q1654.84 415.449 1654.84 406.213 Q1654.84 396.665 1659.98 391.075 Q1665.15 385.45 1673.9 385.45 Q1681.75 385.45 1686.3 390.519 Q1690.88 395.554 1690.88 404.234 M1684.49 402.359 Q1684.42 397.116 1681.54 393.991 Q1678.7 390.866 1673.97 390.866 Q1668.63 390.866 1665.4 393.887 Q1662.2 396.908 1661.72 402.394 L1684.49 402.359 Z" fill="#000000" fill-rule="evenodd" fill-opacity="1" /><path clip-path="url(#clip370)" d="M1700.71 409.929 L1700.71 386.387 L1707.1 386.387 L1707.1 409.686 Q1707.1 415.206 1709.25 417.984 Q1711.4 420.727 1715.71 420.727 Q1720.88 420.727 1723.87 417.429 Q1726.89 414.13 1726.89 408.436 L1726.89 386.387 L1733.28 386.387 L1733.28 425.276 L1726.89 425.276 L1726.89 419.304 Q1724.56 422.845 1721.47 424.581 Q1718.42 426.283 1714.36 426.283 Q1707.65 426.283 1704.18 422.116 Q1700.71 417.949 1700.71 409.929 M1716.79 385.45 L1716.79 385.45 Z" fill="#000000" fill-rule="evenodd" fill-opacity="1" /><path clip-path="url(#clip370)" d="M1768.97 392.359 Q1767.9 391.734 1766.61 391.456 Q1765.36 391.144 1763.83 391.144 Q1758.42 391.144 1755.5 394.686 Q1752.62 398.193 1752.62 404.79 L1752.62 425.276 L1746.2 425.276 L1746.2 386.387 L1752.62 386.387 L1752.62 392.429 Q1754.63 388.887 1757.86 387.186 Q1761.09 385.45 1765.71 385.45 Q1766.37 385.45 1767.17 385.554 Q1767.97 385.623 1768.94 385.797 L1768.97 392.359 Z" fill="#000000" fill-rule="evenodd" fill-opacity="1" /><path clip-path="url(#clip370)" d="M1793.35 405.727 Q1785.6 405.727 1782.62 407.498 Q1779.63 409.269 1779.63 413.54 Q1779.63 416.942 1781.85 418.956 Q1784.11 420.935 1787.97 420.935 Q1793.28 420.935 1796.47 417.185 Q1799.7 413.401 1799.7 407.151 L1799.7 405.727 L1793.35 405.727 M1806.09 403.088 L1806.09 425.276 L1799.7 425.276 L1799.7 419.373 Q1797.51 422.915 1794.25 424.616 Q1790.99 426.283 1786.26 426.283 Q1780.29 426.283 1776.75 422.949 Q1773.24 419.581 1773.24 413.956 Q1773.24 407.394 1777.62 404.061 Q1782.03 400.727 1790.74 400.727 L1799.7 400.727 L1799.7 400.102 Q1799.7 395.693 1796.79 393.297 Q1793.9 390.866 1788.66 390.866 Q1785.33 390.866 1782.17 391.665 Q1779.01 392.463 1776.09 394.061 L1776.09 388.158 Q1779.6 386.804 1782.9 386.144 Q1786.19 385.45 1789.32 385.45 Q1797.76 385.45 1801.92 389.825 Q1806.09 394.199 1806.09 403.088 Z" fill="#000000" fill-rule="evenodd" fill-opacity="1" /><path clip-path="url(#clip370)" d="M1819.25 371.248 L1825.64 371.248 L1825.64 425.276 L1819.25 425.276 L1819.25 371.248 Z" fill="#000000" fill-rule="evenodd" fill-opacity="1" /><path clip-path="url(#clip370)" d="M1839.28 373.436 L1869.08 373.436 L1869.08 379.338 L1846.3 379.338 L1846.3 394.616 L1866.85 394.616 L1866.85 400.519 L1846.3 400.519 L1846.3 425.276 L1839.28 425.276 L1839.28 373.436 Z" fill="#000000" fill-rule="evenodd" fill-opacity="1" /><path clip-path="url(#clip370)" d="M1880.19 373.436 L1890.64 373.436 L1903.87 408.713 L1917.17 373.436 L1927.62 373.436 L1927.62 425.276 L1920.78 425.276 L1920.78 379.755 L1907.41 415.31 L1900.36 415.31 L1886.99 379.755 L1886.99 425.276 L1880.19 425.276 L1880.19 373.436 Z" fill="#000000" fill-rule="evenodd" fill-opacity="1" /><path clip-path="url(#clip370)" d="M1940.74 373.436 L1947.79 373.436 L1947.79 404.929 Q1947.79 413.262 1950.81 416.942 Q1953.83 420.588 1960.6 420.588 Q1967.34 420.588 1970.36 416.942 Q1973.38 413.262 1973.38 404.929 L1973.38 373.436 L1980.43 373.436 L1980.43 405.797 Q1980.43 415.935 1975.4 421.109 Q1970.4 426.283 1960.6 426.283 Q1950.78 426.283 1945.74 421.109 Q1940.74 415.935 1940.74 405.797 L1940.74 373.436 Z" fill="#000000" fill-rule="evenodd" fill-opacity="1" /><path clip-path="url(#clip370)" d="M2031.26 371.318 Q2026.61 379.304 2024.35 387.116 Q2022.1 394.929 2022.1 402.949 Q2022.1 410.97 2024.35 418.852 Q2026.64 426.699 2031.26 434.651 L2025.71 434.651 Q2020.5 426.491 2017.9 418.609 Q2015.33 410.727 2015.33 402.949 Q2015.33 395.206 2017.9 387.359 Q2020.46 379.512 2025.71 371.318 L2031.26 371.318 Z" fill="#000000" fill-rule="evenodd" fill-opacity="1" /><path clip-path="url(#clip370)" d="M2050.6 419.373 L2075.08 419.373 L2075.08 425.276 L2042.17 425.276 L2042.17 419.373 Q2046.16 415.241 2053.03 408.297 Q2059.94 401.318 2061.71 399.304 Q2065.08 395.519 2066.4 392.915 Q2067.76 390.276 2067.76 387.741 Q2067.76 383.609 2064.84 381.005 Q2061.96 378.401 2057.3 378.401 Q2054.01 378.401 2050.33 379.547 Q2046.68 380.693 2042.51 383.019 L2042.51 375.936 Q2046.75 374.234 2050.43 373.366 Q2054.11 372.498 2057.17 372.498 Q2065.22 372.498 2070.01 376.526 Q2074.8 380.554 2074.8 387.29 Q2074.8 390.484 2073.59 393.366 Q2072.41 396.213 2069.25 400.102 Q2068.38 401.109 2063.73 405.936 Q2059.08 410.727 2050.6 419.373 Z" fill="#000000" fill-rule="evenodd" fill-opacity="1" /><path clip-path="url(#clip370)" d="M2089.87 373.436 L2117.41 373.436 L2117.41 379.338 L2096.3 379.338 L2096.3 392.047 Q2097.83 391.526 2099.35 391.283 Q2100.88 391.005 2102.41 391.005 Q2111.09 391.005 2116.16 395.762 Q2121.23 400.519 2121.23 408.644 Q2121.23 417.012 2116.02 421.665 Q2110.81 426.283 2101.33 426.283 Q2098.07 426.283 2094.67 425.727 Q2091.3 425.172 2087.69 424.06 L2087.69 417.012 Q2090.81 418.713 2094.14 419.547 Q2097.48 420.38 2101.19 420.38 Q2107.2 420.38 2110.71 417.22 Q2114.21 414.06 2114.21 408.644 Q2114.21 403.227 2110.71 400.068 Q2107.2 396.908 2101.19 396.908 Q2098.38 396.908 2095.57 397.533 Q2092.79 398.158 2089.87 399.477 L2089.87 373.436 Z" fill="#000000" fill-rule="evenodd" fill-opacity="1" /><path clip-path="url(#clip370)" d="M2150.05 378.054 Q2144.63 378.054 2141.89 383.401 Q2139.18 388.713 2139.18 399.408 Q2139.18 410.067 2141.89 415.415 Q2144.63 420.727 2150.05 420.727 Q2155.5 420.727 2158.21 415.415 Q2160.95 410.067 2160.95 399.408 Q2160.95 388.713 2158.21 383.401 Q2155.5 378.054 2150.05 378.054 M2150.05 372.498 Q2158.76 372.498 2163.35 379.408 Q2167.96 386.283 2167.96 399.408 Q2167.96 412.498 2163.35 419.408 Q2158.76 426.283 2150.05 426.283 Q2141.33 426.283 2136.71 419.408 Q2132.13 412.498 2132.13 399.408 Q2132.13 386.283 2136.71 379.408 Q2141.33 372.498 2150.05 372.498 Z" fill="#000000" fill-rule="evenodd" fill-opacity="1" /><path clip-path="url(#clip370)" d="M2195.29 378.054 Q2189.87 378.054 2187.13 383.401 Q2184.42 388.713 2184.42 399.408 Q2184.42 410.067 2187.13 415.415 Q2189.87 420.727 2195.29 420.727 Q2200.74 420.727 2203.45 415.415 Q2206.19 410.067 2206.19 399.408 Q2206.19 388.713 2203.45 383.401 Q2200.74 378.054 2195.29 378.054 M2195.29 372.498 Q2204.01 372.498 2208.59 379.408 Q2213.21 386.283 2213.21 399.408 Q2213.21 412.498 2208.59 419.408 Q2204.01 426.283 2195.29 426.283 Q2186.57 426.283 2181.96 419.408 Q2177.37 412.498 2177.37 399.408 Q2177.37 386.283 2181.96 379.408 Q2186.57 372.498 2195.29 372.498 Z" fill="#000000" fill-rule="evenodd" fill-opacity="1" /><path clip-path="url(#clip370)" d="M2223.62 371.318 L2229.18 371.318 Q2234.39 379.512 2236.96 387.359 Q2239.56 395.206 2239.56 402.949 Q2239.56 410.727 2236.96 418.609 Q2234.39 426.491 2229.18 434.651 L2223.62 434.651 Q2228.24 426.699 2230.5 418.852 Q2232.79 410.97 2232.79 402.949 Q2232.79 394.929 2230.5 387.116 Q2228.24 379.304 2223.62 371.318 Z" fill="#000000" fill-rule="evenodd" fill-opacity="1" /></svg>
