<?xml version="1.0" encoding="utf-8"?>
<svg xmlns="http://www.w3.org/2000/svg" xmlns:xlink="http://www.w3.org/1999/xlink" width="600" height="400" viewBox="0 0 2400 1600">
<defs>
  <clipPath id="clip310">
    <rect x="0" y="0" width="2400" height="1600"/>
  </clipPath>
</defs>
<path clip-path="url(#clip310)" d="
M0 1600 L2400 1600 L2400 0 L0 0  Z
  " fill="#ffffff" fill-rule="evenodd" fill-opacity="1"/>
<defs>
  <clipPath id="clip311">
    <rect x="480" y="0" width="1681" height="1600"/>
  </clipPath>
</defs>
<path clip-path="url(#clip310)" d="
M149.191 1423.18 L2352.76 1423.18 L2352.76 47.2441 L149.191 47.2441  Z
  " fill="#ffffff" fill-rule="evenodd" fill-opacity="1"/>
<defs>
  <clipPath id="clip312">
    <rect x="149" y="47" width="2205" height="1377"/>
  </clipPath>
</defs>
<polyline clip-path="url(#clip312)" style="stroke:#000000; stroke-linecap:round; stroke-linejoin:round; stroke-width:2; stroke-opacity:0.1; fill:none" points="
  211.556,1423.18 211.556,47.2441 
  "/>
<polyline clip-path="url(#clip312)" style="stroke:#000000; stroke-linecap:round; stroke-linejoin:round; stroke-width:2; stroke-opacity:0.1; fill:none" points="
  731.265,1423.18 731.265,47.2441 
  "/>
<polyline clip-path="url(#clip312)" style="stroke:#000000; stroke-linecap:round; stroke-linejoin:round; stroke-width:2; stroke-opacity:0.1; fill:none" points="
  1250.97,1423.18 1250.97,47.2441 
  "/>
<polyline clip-path="url(#clip312)" style="stroke:#000000; stroke-linecap:round; stroke-linejoin:round; stroke-width:2; stroke-opacity:0.1; fill:none" points="
  1770.68,1423.18 1770.68,47.2441 
  "/>
<polyline clip-path="url(#clip312)" style="stroke:#000000; stroke-linecap:round; stroke-linejoin:round; stroke-width:2; stroke-opacity:0.1; fill:none" points="
  2290.39,1423.18 2290.39,47.2441 
  "/>
<polyline clip-path="url(#clip310)" style="stroke:#000000; stroke-linecap:round; stroke-linejoin:round; stroke-width:4; stroke-opacity:1; fill:none" points="
  149.191,1423.18 2352.76,1423.18 
  "/>
<polyline clip-path="url(#clip310)" style="stroke:#000000; stroke-linecap:round; stroke-linejoin:round; stroke-width:4; stroke-opacity:1; fill:none" points="
  211.556,1423.18 211.556,1404.28 
  "/>
<polyline clip-path="url(#clip310)" style="stroke:#000000; stroke-linecap:round; stroke-linejoin:round; stroke-width:4; stroke-opacity:1; fill:none" points="
  731.265,1423.18 731.265,1404.28 
  "/>
<polyline clip-path="url(#clip310)" style="stroke:#000000; stroke-linecap:round; stroke-linejoin:round; stroke-width:4; stroke-opacity:1; fill:none" points="
  1250.97,1423.18 1250.97,1404.28 
  "/>
<polyline clip-path="url(#clip310)" style="stroke:#000000; stroke-linecap:round; stroke-linejoin:round; stroke-width:4; stroke-opacity:1; fill:none" points="
  1770.68,1423.18 1770.68,1404.28 
  "/>
<polyline clip-path="url(#clip310)" style="stroke:#000000; stroke-linecap:round; stroke-linejoin:round; stroke-width:4; stroke-opacity:1; fill:none" points="
  2290.39,1423.18 2290.39,1404.28 
  "/>
<path clip-path="url(#clip310)" d="M211.556 1454.1 Q207.945 1454.1 206.116 1457.66 Q204.311 1461.2 204.311 1468.33 Q204.311 1475.44 206.116 1479.01 Q207.945 1482.55 211.556 1482.55 Q215.19 1482.55 216.996 1479.01 Q218.824 1475.44 218.824 1468.33 Q218.824 1461.2 216.996 1457.66 Q215.19 1454.1 211.556 1454.1 M211.556 1450.39 Q217.366 1450.39 220.422 1455 Q223.5 1459.58 223.5 1468.33 Q223.5 1477.06 220.422 1481.67 Q217.366 1486.25 211.556 1486.25 Q205.746 1486.25 202.667 1481.67 Q199.612 1477.06 199.612 1468.33 Q199.612 1459.58 202.667 1455 Q205.746 1450.39 211.556 1450.39 Z" fill="#000000" fill-rule="evenodd" fill-opacity="1" /><path clip-path="url(#clip310)" d="M721.647 1481.64 L729.285 1481.64 L729.285 1455.28 L720.975 1456.95 L720.975 1452.69 L729.239 1451.02 L733.915 1451.02 L733.915 1481.64 L741.554 1481.64 L741.554 1485.58 L721.647 1485.58 L721.647 1481.64 Z" fill="#000000" fill-rule="evenodd" fill-opacity="1" /><path clip-path="url(#clip310)" d="M1245.63 1481.64 L1261.95 1481.64 L1261.95 1485.58 L1240 1485.58 L1240 1481.64 Q1242.66 1478.89 1247.25 1474.26 Q1251.85 1469.61 1253.03 1468.27 Q1255.28 1465.74 1256.16 1464.01 Q1257.06 1462.25 1257.06 1460.56 Q1257.06 1457.8 1255.12 1456.07 Q1253.2 1454.33 1250.09 1454.33 Q1247.89 1454.33 1245.44 1455.09 Q1243.01 1455.86 1240.23 1457.41 L1240.23 1452.69 Q1243.06 1451.55 1245.51 1450.97 Q1247.96 1450.39 1250 1450.39 Q1255.37 1450.39 1258.57 1453.08 Q1261.76 1455.77 1261.76 1460.26 Q1261.76 1462.39 1260.95 1464.31 Q1260.16 1466.2 1258.06 1468.8 Q1257.48 1469.47 1254.38 1472.69 Q1251.27 1475.88 1245.63 1481.64 Z" fill="#000000" fill-rule="evenodd" fill-opacity="1" /><path clip-path="url(#clip310)" d="M1774.93 1466.95 Q1778.29 1467.66 1780.16 1469.93 Q1782.06 1472.2 1782.06 1475.53 Q1782.06 1480.65 1778.54 1483.45 Q1775.02 1486.25 1768.54 1486.25 Q1766.37 1486.25 1764.05 1485.81 Q1761.76 1485.39 1759.3 1484.54 L1759.3 1480.02 Q1761.25 1481.16 1763.56 1481.74 Q1765.88 1482.32 1768.4 1482.32 Q1772.8 1482.32 1775.09 1480.58 Q1777.41 1478.84 1777.41 1475.53 Q1777.41 1472.48 1775.25 1470.77 Q1773.12 1469.03 1769.3 1469.03 L1765.28 1469.03 L1765.28 1465.19 L1769.49 1465.19 Q1772.94 1465.19 1774.77 1463.82 Q1776.6 1462.43 1776.6 1459.84 Q1776.6 1457.18 1774.7 1455.77 Q1772.82 1454.33 1769.3 1454.33 Q1767.38 1454.33 1765.18 1454.75 Q1762.99 1455.16 1760.35 1456.04 L1760.35 1451.88 Q1763.01 1451.14 1765.32 1450.77 Q1767.66 1450.39 1769.72 1450.39 Q1775.05 1450.39 1778.15 1452.83 Q1781.25 1455.23 1781.25 1459.35 Q1781.25 1462.22 1779.61 1464.21 Q1777.96 1466.18 1774.93 1466.95 Z" fill="#000000" fill-rule="evenodd" fill-opacity="1" /><path clip-path="url(#clip310)" d="M2293.4 1455.09 L2281.59 1473.54 L2293.4 1473.54 L2293.4 1455.09 M2292.17 1451.02 L2298.05 1451.02 L2298.05 1473.54 L2302.98 1473.54 L2302.98 1477.43 L2298.05 1477.43 L2298.05 1485.58 L2293.4 1485.58 L2293.4 1477.43 L2277.8 1477.43 L2277.8 1472.92 L2292.17 1451.02 Z" fill="#000000" fill-rule="evenodd" fill-opacity="1" /><path clip-path="url(#clip310)" d="M1199.28 1522.27 L1199.28 1532.4 L1211.35 1532.4 L1211.35 1536.95 L1199.28 1536.95 L1199.28 1556.3 Q1199.28 1560.66 1200.46 1561.9 Q1201.67 1563.14 1205.33 1563.14 L1211.35 1563.14 L1211.35 1568.04 L1205.33 1568.04 Q1198.55 1568.04 1195.97 1565.53 Q1193.4 1562.98 1193.4 1556.3 L1193.4 1536.95 L1189.1 1536.95 L1189.1 1532.4 L1193.4 1532.4 L1193.4 1522.27 L1199.28 1522.27 Z" fill="#000000" fill-rule="evenodd" fill-opacity="1" /><path clip-path="url(#clip310)" d="M1239.23 1518.52 L1252.72 1518.52 L1252.72 1523.07 L1245.09 1523.07 L1245.09 1572.09 L1252.72 1572.09 L1252.72 1576.64 L1239.23 1576.64 L1239.23 1518.52 Z" fill="#000000" fill-rule="evenodd" fill-opacity="1" /><path clip-path="url(#clip310)" d="M1287.93 1533.45 L1287.93 1538.98 Q1285.44 1537.71 1282.77 1537.07 Q1280.1 1536.44 1277.23 1536.44 Q1272.87 1536.44 1270.68 1537.77 Q1268.51 1539.11 1268.51 1541.79 Q1268.51 1543.82 1270.07 1545 Q1271.63 1546.15 1276.34 1547.2 L1278.35 1547.64 Q1284.58 1548.98 1287.19 1551.43 Q1289.84 1553.85 1289.84 1558.21 Q1289.84 1563.17 1285.89 1566.07 Q1281.97 1568.97 1275.1 1568.97 Q1272.23 1568.97 1269.12 1568.39 Q1266.03 1567.85 1262.59 1566.74 L1262.59 1560.69 Q1265.84 1562.38 1268.99 1563.24 Q1272.14 1564.07 1275.23 1564.07 Q1279.36 1564.07 1281.59 1562.66 Q1283.82 1561.23 1283.82 1558.65 Q1283.82 1556.27 1282.2 1554.99 Q1280.61 1553.72 1275.16 1552.54 L1273.13 1552.07 Q1267.68 1550.92 1265.26 1548.56 Q1262.85 1546.18 1262.85 1542.04 Q1262.85 1537.01 1266.41 1534.27 Q1269.98 1531.54 1276.53 1531.54 Q1279.78 1531.54 1282.64 1532.01 Q1285.51 1532.49 1287.93 1533.45 Z" fill="#000000" fill-rule="evenodd" fill-opacity="1" /><path clip-path="url(#clip310)" d="M1312.85 1518.52 L1312.85 1576.64 L1299.35 1576.64 L1299.35 1572.09 L1306.96 1572.09 L1306.96 1523.07 L1299.35 1523.07 L1299.35 1518.52 L1312.85 1518.52 Z" fill="#000000" fill-rule="evenodd" fill-opacity="1" /><polyline clip-path="url(#clip312)" style="stroke:#000000; stroke-linecap:round; stroke-linejoin:round; stroke-width:2; stroke-opacity:0.1; fill:none" points="
  149.191,1246.93 2352.76,1246.93 
  "/>
<polyline clip-path="url(#clip312)" style="stroke:#000000; stroke-linecap:round; stroke-linejoin:round; stroke-width:2; stroke-opacity:0.1; fill:none" points="
  149.191,969.298 2352.76,969.298 
  "/>
<polyline clip-path="url(#clip312)" style="stroke:#000000; stroke-linecap:round; stroke-linejoin:round; stroke-width:2; stroke-opacity:0.1; fill:none" points="
  149.191,691.662 2352.76,691.662 
  "/>
<polyline clip-path="url(#clip312)" style="stroke:#000000; stroke-linecap:round; stroke-linejoin:round; stroke-width:2; stroke-opacity:0.1; fill:none" points="
  149.191,414.026 2352.76,414.026 
  "/>
<polyline clip-path="url(#clip312)" style="stroke:#000000; stroke-linecap:round; stroke-linejoin:round; stroke-width:2; stroke-opacity:0.1; fill:none" points="
  149.191,136.39 2352.76,136.39 
  "/>
<polyline clip-path="url(#clip310)" style="stroke:#000000; stroke-linecap:round; stroke-linejoin:round; stroke-width:4; stroke-opacity:1; fill:none" points="
  149.191,1423.18 149.191,47.2441 
  "/>
<polyline clip-path="url(#clip310)" style="stroke:#000000; stroke-linecap:round; stroke-linejoin:round; stroke-width:4; stroke-opacity:1; fill:none" points="
  149.191,1246.93 168.089,1246.93 
  "/>
<polyline clip-path="url(#clip310)" style="stroke:#000000; stroke-linecap:round; stroke-linejoin:round; stroke-width:4; stroke-opacity:1; fill:none" points="
  149.191,969.298 168.089,969.298 
  "/>
<polyline clip-path="url(#clip310)" style="stroke:#000000; stroke-linecap:round; stroke-linejoin:round; stroke-width:4; stroke-opacity:1; fill:none" points="
  149.191,691.662 168.089,691.662 
  "/>
<polyline clip-path="url(#clip310)" style="stroke:#000000; stroke-linecap:round; stroke-linejoin:round; stroke-width:4; stroke-opacity:1; fill:none" points="
  149.191,414.026 168.089,414.026 
  "/>
<polyline clip-path="url(#clip310)" style="stroke:#000000; stroke-linecap:round; stroke-linejoin:round; stroke-width:4; stroke-opacity:1; fill:none" points="
  149.191,136.39 168.089,136.39 
  "/>
<path clip-path="url(#clip310)" d="M50.9921 1247.38 L80.6679 1247.38 L80.6679 1251.32 L50.9921 1251.32 L50.9921 1247.38 Z" fill="#000000" fill-rule="evenodd" fill-opacity="1" /><path clip-path="url(#clip310)" d="M103.608 1233.73 L91.8021 1252.18 L103.608 1252.18 L103.608 1233.73 M102.381 1229.65 L108.26 1229.65 L108.26 1252.18 L113.191 1252.18 L113.191 1256.07 L108.26 1256.07 L108.26 1264.21 L103.608 1264.21 L103.608 1256.07 L88.0058 1256.07 L88.0058 1251.55 L102.381 1229.65 Z" fill="#000000" fill-rule="evenodd" fill-opacity="1" /><path clip-path="url(#clip310)" d="M53.0754 969.749 L82.7512 969.749 L82.7512 973.684 L53.0754 973.684 L53.0754 969.749 Z" fill="#000000" fill-rule="evenodd" fill-opacity="1" /><path clip-path="url(#clip310)" d="M96.8715 982.643 L113.191 982.643 L113.191 986.578 L91.2465 986.578 L91.2465 982.643 Q93.9086 979.888 98.4919 975.258 Q103.098 970.606 104.279 969.263 Q106.524 966.74 107.404 965.004 Q108.307 963.245 108.307 961.555 Q108.307 958.8 106.362 957.064 Q104.441 955.328 101.339 955.328 Q99.14 955.328 96.6863 956.092 Q94.2558 956.856 91.478 958.407 L91.478 953.684 Q94.3021 952.55 96.7558 951.972 Q99.2095 951.393 101.246 951.393 Q106.617 951.393 109.811 954.078 Q113.006 956.763 113.006 961.254 Q113.006 963.384 112.196 965.305 Q111.408 967.203 109.302 969.796 Q108.723 970.467 105.621 973.684 Q102.52 976.879 96.8715 982.643 Z" fill="#000000" fill-rule="evenodd" fill-opacity="1" /><path clip-path="url(#clip310)" d="M101.246 677.461 Q97.6354 677.461 95.8067 681.026 Q94.0012 684.567 94.0012 691.697 Q94.0012 698.803 95.8067 702.368 Q97.6354 705.91 101.246 705.91 Q104.881 705.91 106.686 702.368 Q108.515 698.803 108.515 691.697 Q108.515 684.567 106.686 681.026 Q104.881 677.461 101.246 677.461 M101.246 673.757 Q107.057 673.757 110.112 678.364 Q113.191 682.947 113.191 691.697 Q113.191 700.424 110.112 705.03 Q107.057 709.613 101.246 709.613 Q95.4363 709.613 92.3576 705.03 Q89.3021 700.424 89.3021 691.697 Q89.3021 682.947 92.3576 678.364 Q95.4363 673.757 101.246 673.757 Z" fill="#000000" fill-rule="evenodd" fill-opacity="1" /><path clip-path="url(#clip310)" d="M96.8715 427.371 L113.191 427.371 L113.191 431.306 L91.2465 431.306 L91.2465 427.371 Q93.9086 424.616 98.4919 419.987 Q103.098 415.334 104.279 413.992 Q106.524 411.468 107.404 409.732 Q108.307 407.973 108.307 406.283 Q108.307 403.529 106.362 401.793 Q104.441 400.056 101.339 400.056 Q99.14 400.056 96.6863 400.82 Q94.2558 401.584 91.478 403.135 L91.478 398.413 Q94.3021 397.279 96.7558 396.7 Q99.2095 396.121 101.246 396.121 Q106.617 396.121 109.811 398.806 Q113.006 401.492 113.006 405.982 Q113.006 408.112 112.196 410.033 Q111.408 411.931 109.302 414.524 Q108.723 415.195 105.621 418.413 Q102.52 421.607 96.8715 427.371 Z" fill="#000000" fill-rule="evenodd" fill-opacity="1" /><path clip-path="url(#clip310)" d="M103.608 123.185 L91.8021 141.634 L103.608 141.634 L103.608 123.185 M102.381 119.11 L108.26 119.11 L108.26 141.634 L113.191 141.634 L113.191 145.522 L108.26 145.522 L108.26 153.67 L103.608 153.67 L103.608 145.522 L88.0058 145.522 L88.0058 141.009 L102.381 119.11 Z" fill="#000000" fill-rule="evenodd" fill-opacity="1" /><polyline clip-path="url(#clip312)" style="stroke:#009af9; stroke-linecap:round; stroke-linejoin:round; stroke-width:4; stroke-opacity:1; fill:none" points="
  211.556,622.253 216.753,622.222 221.95,622.132 227.147,621.983 232.344,621.773 237.541,621.504 242.738,621.174 247.936,620.783 253.133,620.333 258.33,619.822 
  263.527,619.251 268.724,618.62 273.921,617.931 279.118,617.182 284.315,616.376 289.512,615.512 294.709,614.591 299.906,613.614 305.103,612.582 310.301,611.496 
  315.498,610.357 320.695,609.165 325.892,607.923 331.089,606.631 336.286,605.289 341.483,603.901 346.68,602.468 351.877,600.99 357.074,599.468 362.271,597.905 
  367.469,596.302 372.666,594.659 377.863,592.981 383.06,591.268 388.257,589.521 393.454,587.742 398.651,585.932 403.848,584.093 409.045,582.228 414.242,580.339 
  419.439,578.427 424.636,576.494 429.834,574.541 435.031,572.572 440.228,570.588 445.425,568.59 450.622,566.581 455.819,564.563 461.016,562.539 466.213,560.509 
  471.41,558.477 476.607,556.444 481.804,554.411 487.002,552.382 492.199,550.358 497.396,548.342 502.593,546.335 507.79,544.341 512.987,542.358 518.184,540.391 
  523.381,538.442 528.578,536.511 533.775,534.602 538.972,532.717 544.17,530.857 549.367,529.023 554.564,527.217 559.761,525.443 564.958,523.7 570.155,521.993 
  575.352,520.321 580.549,518.686 585.746,517.09 590.943,515.535 596.14,514.022 601.337,512.554 606.535,511.131 611.732,509.754 616.929,508.426 622.126,507.147 
  627.323,505.92 632.52,504.744 637.717,503.623 642.914,502.556 648.111,501.545 653.308,500.59 658.505,499.694 663.703,498.857 668.9,498.08 674.097,497.365 
  679.294,496.711 684.491,496.12 689.688,495.593 694.885,495.13 700.082,494.733 705.279,494.401 710.476,494.136 715.673,493.939 720.87,493.809 726.068,493.748 
  731.265,493.756 736.462,493.813 741.659,493.918 746.856,494.071 752.053,494.275 757.25,494.528 762.447,494.831 767.644,495.184 772.841,495.587 778.038,496.04 
  783.236,496.542 788.433,497.094 793.63,497.694 798.827,498.343 804.024,499.039 809.221,499.783 814.418,500.573 819.615,501.41 824.812,502.293 830.009,503.219 
  835.206,504.189 840.403,505.203 845.601,506.259 850.798,507.357 855.995,508.493 861.192,509.669 866.389,510.882 871.586,512.134 876.783,513.421 881.98,514.741 
  887.177,516.095 892.374,517.48 897.571,518.897 902.769,520.343 907.966,521.815 913.163,523.313 918.36,524.836 923.557,526.383 928.754,527.952 933.951,529.54 
  939.148,531.146 944.345,532.77 949.542,534.409 954.739,536.062 959.936,537.726 965.134,539.401 970.331,541.084 975.528,542.774 980.725,544.47 985.922,546.169 
  991.119,547.87 996.316,549.571 1001.51,551.271 1006.71,552.967 1011.91,554.659 1017.1,556.344 1022.3,558.021 1027.5,559.687 1032.7,561.342 1037.89,562.984 
  1043.09,564.611 1048.29,566.221 1053.48,567.813 1058.68,569.385 1063.88,570.935 1069.08,572.463 1074.27,573.966 1079.47,575.444 1084.67,576.893 1089.86,578.313 
  1095.06,579.704 1100.26,581.062 1105.45,582.387 1110.65,583.677 1115.85,584.931 1121.05,586.149 1126.24,587.328 1131.44,588.467 1136.64,589.565 1141.83,590.62 
  1147.03,591.633 1152.23,592.601 1157.43,593.524 1162.62,594.4 1167.82,595.228 1173.02,596.009 1178.21,596.74 1183.41,597.421 1188.61,598.051 1193.81,598.628 
  1199,599.154 1204.2,599.626 1209.4,600.044 1214.59,600.406 1219.79,600.713 1224.99,600.964 1230.19,601.159 1235.38,601.297 1240.58,601.376 1245.78,601.397 
  1250.97,601.365 1256.17,601.299 1261.37,601.196 1266.56,601.054 1271.76,600.874 1276.96,600.654 1282.16,600.395 1287.35,600.097 1292.55,599.76 1297.75,599.384 
  1302.94,598.969 1308.14,598.515 1313.34,598.023 1318.54,597.493 1323.73,596.925 1328.93,596.32 1334.13,595.678 1339.32,595 1344.52,594.286 1349.72,593.536 
  1354.92,592.753 1360.11,591.936 1365.31,591.085 1370.51,590.202 1375.7,589.288 1380.9,588.343 1386.1,587.369 1391.29,586.365 1396.49,585.334 1401.69,584.275 
  1406.89,583.191 1412.08,582.081 1417.28,580.948 1422.48,579.791 1427.67,578.614 1432.87,577.415 1438.07,576.198 1443.27,574.962 1448.46,573.709 1453.66,572.441 
  1458.86,571.158 1464.05,569.863 1469.25,568.555 1474.45,567.237 1479.65,565.909 1484.84,564.573 1490.04,563.23 1495.24,561.883 1500.43,560.531 1505.63,559.177 
  1510.83,557.821 1516.02,556.465 1521.22,555.111 1526.42,553.759 1531.62,552.411 1536.81,551.068 1542.01,549.732 1547.21,548.405 1552.4,547.087 1557.6,545.78 
  1562.8,544.485 1568,543.203 1573.19,541.936 1578.39,540.685 1583.59,539.451 1588.78,538.236 1593.98,537.041 1599.18,535.867 1604.38,534.716 1609.57,533.588 
  1614.77,532.484 1619.97,531.406 1625.16,530.356 1630.36,529.333 1635.56,528.34 1640.75,527.377 1645.95,526.445 1651.15,525.545 1656.35,524.679 1661.54,523.846 
  1666.74,523.049 1671.94,522.288 1677.13,521.563 1682.33,520.877 1687.53,520.229 1692.73,519.62 1697.92,519.051 1703.12,518.523 1708.32,518.037 1713.51,517.592 
  1718.71,517.191 1723.91,516.833 1729.11,516.518 1734.3,516.249 1739.5,516.024 1744.7,515.845 1749.89,515.712 1755.09,515.625 1760.29,515.585 1765.49,515.594 
  1770.68,515.63 1775.88,515.692 1781.08,515.779 1786.27,515.893 1791.47,516.034 1796.67,516.203 1801.86,516.399 1807.06,516.624 1812.26,516.875 1817.46,517.154 
  1822.65,517.461 1827.85,517.795 1833.05,518.156 1838.24,518.544 1843.44,518.959 1848.64,519.4 1853.84,519.868 1859.03,520.361 1864.23,520.879 1869.43,521.422 
  1874.62,521.989 1879.82,522.58 1885.02,523.195 1890.22,523.834 1895.41,524.494 1900.61,525.176 1905.81,525.879 1911,526.603 1916.2,527.347 1921.4,528.111 
  1926.59,528.894 1931.79,529.693 1936.99,530.51 1942.19,531.343 1947.38,532.192 1952.58,533.057 1957.78,533.936 1962.97,534.827 1968.17,535.73 1973.37,536.645 
  1978.57,537.57 1983.76,538.505 1988.96,539.45 1994.16,540.402 1999.35,541.36 2004.55,542.325 2009.75,543.294 2014.95,544.268 2020.14,545.245 2025.34,546.223 
  2030.54,547.203 2035.73,548.183 2040.93,549.162 2046.13,550.139 2051.32,551.113 2056.52,552.084 2061.72,553.05 2066.92,554.01 2072.11,554.963 2077.31,555.909 
  2082.51,556.845 2087.7,557.773 2092.9,558.689 2098.1,559.595 2103.3,560.487 2108.49,561.367 2113.69,562.232 2118.89,563.081 2124.08,563.915 2129.28,564.732 
  2134.48,565.531 2139.68,566.311 2144.87,567.072 2150.07,567.812 2155.27,568.532 2160.46,569.229 2165.66,569.904 2170.86,570.555 2176.05,571.182 2181.25,571.784 
  2186.45,572.361 2191.65,572.911 2196.84,573.435 2202.04,573.93 2207.24,574.398 2212.43,574.836 2217.63,575.245 2222.83,575.625 2228.03,575.974 2233.22,576.292 
  2238.42,576.578 2243.62,576.831 2248.81,577.053 2254.01,577.242 2259.21,577.398 2264.41,577.519 2269.6,577.607 2274.8,577.659 2280,577.676 2285.19,577.667 
  2290.39,577.644 
  "/>
<polyline clip-path="url(#clip312)" style="stroke:#e26f46; stroke-linecap:round; stroke-linejoin:round; stroke-width:4; stroke-opacity:1; fill:none" points="
  211.556,691.662 216.753,685.736 221.95,679.768 227.147,673.765 232.344,667.74 237.541,661.699 242.738,655.65 247.936,649.606 253.133,643.573 258.33,637.561 
  263.527,631.575 268.724,625.626 273.921,619.722 279.118,613.871 284.315,608.082 289.512,602.36 294.709,596.714 299.906,591.151 305.103,585.679 310.301,580.302 
  315.498,575.029 320.695,569.867 325.892,564.818 331.089,559.891 336.286,555.092 341.483,550.423 346.68,545.89 351.877,541.498 357.074,537.253 362.271,533.16 
  367.469,529.226 372.666,525.453 377.863,521.839 383.06,518.393 388.257,515.119 393.454,512.022 398.651,509.105 403.848,506.373 409.045,503.824 414.242,501.46 
  419.439,499.287 424.636,497.306 429.834,495.52 435.031,493.931 440.228,492.542 445.425,491.35 450.622,490.358 455.819,489.569 461.016,488.982 466.213,488.598 
  471.41,488.418 476.607,488.442 481.804,488.669 487.002,489.099 492.199,489.732 497.396,490.568 502.593,491.604 507.79,492.841 512.987,494.277 518.184,495.911 
  523.381,497.742 528.578,499.766 533.775,501.982 538.972,504.389 544.17,506.983 549.367,509.763 554.564,512.726 559.761,515.868 564.958,519.188 570.155,522.68 
  575.352,526.343 580.549,530.174 585.746,534.168 590.943,538.323 596.14,542.633 601.337,547.095 606.535,551.704 611.732,556.458 616.929,561.352 622.126,566.383 
  627.323,571.545 632.52,576.833 637.717,582.243 642.914,587.77 648.111,593.414 653.308,599.168 658.505,605.027 663.703,610.986 668.9,617.042 674.097,623.188 
  679.294,629.423 684.491,635.748 689.688,642.154 694.885,648.639 700.082,655.198 705.279,661.827 710.476,668.523 715.673,675.283 720.87,682.101 726.068,688.975 
  731.265,694.65 736.462,699.566 741.659,704.512 746.856,709.483 752.053,714.472 757.25,719.471 762.447,724.473 767.644,729.472 772.841,734.46 778.038,739.431 
  783.236,744.378 788.433,749.293 793.63,754.169 798.827,759.001 804.024,763.784 809.221,768.51 814.418,773.173 819.615,777.764 824.812,782.281 830.009,786.722 
  835.206,791.076 840.403,795.339 845.601,799.504 850.798,803.566 855.995,807.528 861.192,811.379 866.389,815.115 871.586,818.73 876.783,822.22 881.98,825.589 
  887.177,828.826 892.374,831.929 897.571,834.892 902.769,837.712 907.966,840.393 913.163,842.928 918.36,845.312 923.557,847.542 928.754,849.615 933.951,851.536 
  939.148,853.299 944.345,854.9 949.542,856.337 954.739,857.608 959.936,858.717 965.134,859.661 970.331,860.436 975.528,861.042 980.725,861.476 985.922,861.743 
  991.119,861.842 996.316,861.771 1001.51,861.528 1006.71,861.112 1011.91,860.529 1017.1,859.779 1022.3,858.86 1027.5,857.773 1032.7,856.516 1037.89,855.095 
  1043.09,853.513 1048.29,851.767 1053.48,849.86 1058.68,847.791 1063.88,845.565 1069.08,843.186 1074.27,840.655 1079.47,837.971 1084.67,835.137 1089.86,832.157 
  1095.06,829.036 1100.26,825.776 1105.45,822.377 1110.65,818.842 1115.85,815.174 1121.05,811.382 1126.24,807.464 1131.44,803.424 1136.64,799.265 1141.83,794.99 
  1147.03,790.606 1152.23,786.114 1157.43,781.518 1162.62,776.82 1167.82,772.025 1173.02,767.136 1178.21,762.158 1183.41,757.092 1188.61,751.944 1193.81,746.716 
  1199,741.409 1204.2,736.029 1209.4,730.578 1214.59,725.059 1219.79,719.477 1224.99,713.838 1230.19,708.146 1235.38,702.404 1240.58,696.615 1245.78,691.088 
  1250.97,687.247 1256.17,683.381 1261.37,679.493 1266.56,675.589 1271.76,671.672 1276.96,667.75 1282.16,663.824 1287.35,659.902 1292.55,655.99 1297.75,652.09 
  1302.94,648.213 1308.14,644.358 1313.34,640.531 1318.54,636.739 1323.73,632.986 1328.93,629.276 1334.13,625.614 1339.32,622.007 1344.52,618.457 1349.72,614.97 
  1354.92,611.548 1360.11,608.197 1365.31,604.921 1370.51,601.724 1375.7,598.611 1380.9,595.582 1386.1,592.643 1391.29,589.797 1396.49,587.05 1401.69,584.401 
  1406.89,581.854 1412.08,579.414 1417.28,577.083 1422.48,574.864 1427.67,572.756 1432.87,570.765 1438.07,568.893 1443.27,567.142 1448.46,565.513 1453.66,564.005 
  1458.86,562.622 1464.05,561.367 1469.25,560.24 1474.45,559.245 1479.65,558.383 1484.84,557.656 1490.04,557.057 1495.24,556.591 1500.43,556.259 1505.63,556.063 
  1510.83,556.003 1516.02,556.08 1521.22,556.296 1526.42,556.648 1531.62,557.132 1536.81,557.751 1542.01,558.506 1547.21,559.395 1552.4,560.418 1557.6,561.573 
  1562.8,562.862 1568,564.28 1573.19,565.829 1578.39,567.505 1583.59,569.308 1588.78,571.236 1593.98,573.288 1599.18,575.461 1604.38,577.753 1609.57,580.164 
  1614.77,582.691 1619.97,585.331 1625.16,588.082 1630.36,590.943 1635.56,593.908 1640.75,596.978 1645.95,600.148 1651.15,603.419 1656.35,606.786 1661.54,610.248 
  1666.74,613.799 1671.94,617.438 1677.13,621.162 1682.33,624.966 1687.53,628.851 1692.73,632.816 1697.92,636.855 1703.12,640.966 1708.32,645.144 1713.51,649.388 
  1718.71,653.695 1723.91,658.06 1729.11,662.482 1734.3,666.958 1739.5,671.485 1744.7,676.058 1749.89,680.675 1755.09,685.333 1760.29,690.029 1765.49,693.428 
  1770.68,696.142 1775.88,698.873 1781.08,701.618 1786.27,704.375 1791.47,707.139 1796.67,709.91 1801.86,712.681 1807.06,715.45 1812.26,718.213 1817.46,720.968 
  1822.65,723.71 1827.85,726.437 1833.05,729.146 1838.24,731.831 1843.44,734.49 1848.64,737.12 1853.84,739.717 1859.03,742.278 1864.23,744.8 1869.43,747.28 
  1874.62,749.716 1879.82,752.103 1885.02,754.437 1890.22,756.717 1895.41,758.939 1900.61,761.105 1905.81,763.209 1911,765.247 1916.2,767.217 1921.4,769.116 
  1926.59,770.942 1931.79,772.698 1936.99,774.378 1942.19,775.979 1947.38,777.499 1952.58,778.936 1957.78,780.286 1962.97,781.557 1968.17,782.741 1973.37,783.836 
  1978.57,784.84 1983.76,785.752 1988.96,786.569 1994.16,787.298 1999.35,787.933 2004.55,788.474 2009.75,788.917 2014.95,789.263 2020.14,789.509 2025.34,789.662 
  2030.54,789.718 2035.73,789.677 2040.93,789.536 2046.13,789.296 2051.32,788.955 2056.52,788.518 2061.72,787.987 2066.92,787.358 2072.11,786.63 2077.31,785.805 
  2082.51,784.882 2087.7,783.864 2092.9,782.755 2098.1,781.553 2103.3,780.257 2108.49,778.868 2113.69,777.386 2118.89,775.814 2124.08,774.159 2129.28,772.416 
  2134.48,770.587 2139.68,768.673 2144.87,766.674 2150.07,764.593 2155.27,762.437 2160.46,760.203 2165.66,757.892 2170.86,755.507 2176.05,753.047 2181.25,750.516 
  2186.45,747.918 2191.65,745.254 2196.84,742.525 2202.04,739.732 2207.24,736.877 2212.43,733.962 2217.63,730.991 2222.83,727.965 2228.03,724.886 2233.22,721.756 
  2238.42,718.576 2243.62,715.348 2248.81,712.075 2254.01,708.757 2259.21,705.398 2264.41,701.998 2269.6,698.561 2274.8,695.087 2280,691.633 2285.19,690.183 
  2290.39,688.722 
  "/>
<polyline clip-path="url(#clip312)" style="stroke:#3da44d; stroke-linecap:round; stroke-linejoin:round; stroke-width:4; stroke-opacity:1; fill:none" points="
  211.556,101.686 216.753,96.6121 221.95,92.5599 227.147,89.5093 232.344,87.4464 237.541,86.3455 242.738,86.1857 247.936,86.9467 253.133,88.6024 258.33,91.1309 
  263.527,94.5079 268.724,98.7107 273.921,103.718 279.118,109.504 284.315,116.05 289.512,123.327 294.709,131.317 299.906,140.003 305.103,149.36 310.301,159.363 
  315.498,169.999 320.695,181.249 325.892,193.082 331.089,205.487 336.286,218.446 341.483,231.93 346.68,245.919 351.877,260.397 357.074,275.347 362.271,290.753 
  367.469,306.596 372.666,322.857 377.863,339.497 383.06,356.512 388.257,373.883 393.454,391.592 398.651,409.62 403.848,427.95 409.045,446.554 414.242,465.409 
  419.439,484.502 424.636,503.81 429.834,523.315 435.031,542.994 440.228,562.828 445.425,582.797 450.622,602.88 455.819,623.054 461.016,643.299 466.213,663.593 
  471.41,683.913 476.607,704.244 481.804,724.569 487.002,744.863 492.199,765.104 497.396,785.271 502.593,805.343 507.79,825.3 512.987,845.135 518.184,864.82 
  523.381,884.335 528.578,903.662 533.775,922.782 538.972,941.675 544.17,960.327 549.367,978.727 554.564,996.851 559.761,1014.68 564.958,1032.21 570.155,1049.41 
  575.352,1066.28 580.549,1082.8 585.746,1098.96 590.943,1114.75 596.14,1130.15 601.337,1145.15 606.535,1159.74 611.732,1173.92 616.929,1187.68 622.126,1201.02 
  627.323,1213.92 632.52,1226.38 637.717,1238.4 642.914,1249.98 648.111,1261.13 653.308,1271.84 658.505,1282.12 663.703,1291.98 668.9,1301.42 674.097,1310.47 
  679.294,1319.12 684.491,1327.42 689.688,1335.37 694.885,1343 700.082,1350.35 705.279,1357.45 710.476,1364.33 715.673,1371.06 720.87,1377.67 726.068,1384.24 
  731.265,1181.2 736.462,1184.94 741.659,1187.9 746.856,1190.1 752.053,1191.54 757.25,1192.23 762.447,1192.19 767.644,1191.41 772.841,1189.92 778.038,1187.74 
  783.236,1184.87 788.433,1181.32 793.63,1177.13 798.827,1172.29 804.024,1166.84 809.221,1160.79 814.418,1154.14 819.615,1146.91 824.812,1139.13 830.009,1130.81 
  835.206,1121.96 840.403,1112.6 845.601,1102.74 850.798,1092.39 855.995,1081.6 861.192,1070.36 866.389,1058.68 871.586,1046.58 876.783,1034.08 881.98,1021.21 
  887.177,1007.97 892.374,994.384 897.571,980.457 902.769,966.207 907.966,951.671 913.163,936.852 918.36,921.766 923.557,906.427 928.754,890.851 933.951,875.069 
  939.148,859.091 944.345,842.931 949.542,826.606 954.739,810.131 959.936,793.533 965.134,776.825 970.331,760.022 975.528,743.142 980.725,726.199 985.922,709.217 
  991.119,692.211 996.316,675.197 1001.51,658.191 1006.71,641.211 1011.91,624.273 1017.1,607.394 1022.3,590.592 1027.5,573.881 1032.7,557.279 1037.89,540.8 
  1043.09,524.459 1048.29,508.272 1053.48,492.256 1058.68,476.425 1063.88,460.793 1069.08,445.369 1074.27,430.172 1079.47,415.215 1084.67,400.511 1089.86,386.071 
  1095.06,371.902 1100.26,358.018 1105.45,344.433 1110.65,331.157 1115.85,318.198 1121.05,305.555 1126.24,293.244 1131.44,281.271 1136.64,269.646 1141.83,258.373 
  1147.03,247.442 1152.23,236.866 1157.43,226.648 1162.62,216.791 1167.82,207.294 1173.02,198.14 1178.21,189.334 1183.41,180.874 1188.61,172.753 1193.81,164.964 
  1199,157.48 1204.2,150.296 1209.4,143.398 1214.59,136.768 1219.79,130.388 1224.99,124.223 1230.19,118.248 1235.38,112.437 1240.58,106.758 1245.78,309.705 
  1250.97,306.509 1256.17,303.833 1261.37,301.703 1266.56,300.132 1271.76,299.112 1276.96,298.647 1282.16,298.727 1287.35,299.351 1292.55,300.51 1297.75,302.199 
  1302.94,304.409 1308.14,307.132 1313.34,310.361 1318.54,314.083 1323.73,318.293 1328.93,322.979 1334.13,328.129 1339.32,333.736 1344.52,339.786 1349.72,346.269 
  1354.92,353.171 1360.11,360.478 1365.31,368.184 1370.51,376.276 1375.7,384.745 1380.9,393.566 1386.1,402.736 1391.29,412.244 1396.49,422.08 1401.69,432.223 
  1406.89,442.66 1412.08,453.382 1417.28,464.378 1422.48,475.637 1427.67,487.132 1432.87,498.859 1438.07,510.806 1443.27,522.959 1448.46,535.302 1453.66,547.815 
  1458.86,560.491 1464.05,573.316 1469.25,586.277 1474.45,599.361 1479.65,612.555 1484.84,625.848 1490.04,639.215 1495.24,652.647 1500.43,666.133 1505.63,679.659 
  1510.83,693.211 1516.02,706.777 1521.22,720.343 1526.42,733.895 1531.62,747.419 1536.81,760.903 1542.01,774.333 1547.21,787.696 1552.4,800.979 1557.6,814.169 
  1562.8,827.252 1568,840.22 1573.19,853.065 1578.39,865.77 1583.59,878.323 1588.78,890.713 1593.98,902.928 1599.18,914.957 1604.38,926.789 1609.57,938.426 
  1614.77,949.853 1619.97,961.06 1625.16,972.038 1630.36,982.778 1635.56,993.274 1640.75,1003.52 1645.95,1013.5 1651.15,1023.23 1656.35,1032.7 1661.54,1041.9 
  1666.74,1050.82 1671.94,1059.47 1677.13,1067.84 1682.33,1075.93 1687.53,1083.74 1692.73,1091.28 1697.92,1098.55 1703.12,1105.55 1708.32,1112.28 1713.51,1118.75 
  1718.71,1124.96 1723.91,1130.93 1729.11,1136.67 1734.3,1142.18 1739.5,1147.48 1744.7,1152.57 1749.89,1157.49 1755.09,1162.24 1760.29,1166.84 1765.49,961.706 
  1770.68,963.803 1775.88,965.56 1781.08,966.979 1786.27,968.042 1791.47,968.747 1796.67,969.094 1801.86,969.08 1807.06,968.706 1812.26,967.974 1817.46,966.886 
  1822.65,965.446 1827.85,963.655 1833.05,961.517 1838.24,959.038 1843.44,956.219 1848.64,953.067 1853.84,949.588 1859.03,945.786 1864.23,941.671 1869.43,937.253 
  1874.62,932.534 1879.82,927.519 1885.02,922.214 1890.22,916.623 1895.41,910.76 1900.61,904.646 1905.81,898.274 1911,891.652 1916.2,884.785 1921.4,877.681 
  1926.59,870.35 1931.79,862.821 1936.99,855.087 1942.19,847.155 1947.38,839.033 1952.58,830.729 1957.78,822.251 1962.97,813.63 1968.17,804.86 1973.37,795.951 
  1978.57,786.91 1983.76,777.746 1988.96,768.469 1994.16,759.1 1999.35,749.644 2004.55,740.108 2009.75,730.501 2014.95,720.832 2020.14,711.11 2025.34,701.352 
  2030.54,691.567 2035.73,681.761 2040.93,671.944 2046.13,662.125 2051.32,652.314 2056.52,642.521 2061.72,632.758 2066.92,623.032 2072.11,613.352 2077.31,603.727 
  2082.51,594.165 2087.7,584.676 2092.9,575.268 2098.1,565.949 2103.3,556.728 2108.49,547.613 2113.69,538.612 2118.89,529.732 2124.08,520.977 2129.28,512.356 
  2134.48,503.878 2139.68,495.548 2144.87,487.374 2150.07,479.362 2155.27,471.508 2160.46,463.824 2165.66,456.315 2170.86,448.987 2176.05,441.844 2181.25,434.891 
  2186.45,428.119 2191.65,421.539 2196.84,415.154 2202.04,408.966 2207.24,402.978 2212.43,397.192 2217.63,391.597 2222.83,386.196 2228.03,380.993 2233.22,375.987 
  2238.42,371.176 2243.62,366.56 2248.81,362.126 2254.01,357.869 2259.21,353.789 2264.41,349.884 2269.6,346.147 2274.8,342.573 2280,547.431 2285.19,546.162 
  2290.39,545.048 
  "/>
<polyline clip-path="url(#clip312)" style="stroke:#c271d2; stroke-linecap:round; stroke-linejoin:round; stroke-width:4; stroke-opacity:1; fill:none" points="
  211.556,587.549 216.753,592.933 221.95,597.885 227.147,602.429 232.344,606.587 237.541,610.384 242.738,613.844 247.936,616.987 253.133,619.838 258.33,622.418 
  263.527,624.749 268.724,626.85 273.921,628.741 279.118,630.438 284.315,631.96 289.512,633.321 294.709,634.537 299.906,635.62 305.103,636.583 310.301,637.438 
  315.498,638.195 320.695,638.863 325.892,639.453 331.089,639.972 336.286,640.426 341.483,640.824 346.68,641.171 351.877,641.473 357.074,641.734 362.271,641.959 
  367.469,642.152 372.666,642.317 377.863,642.457 383.06,642.576 388.257,642.676 393.454,642.759 398.651,642.828 403.848,642.884 409.045,642.93 414.242,642.967 
  419.439,642.997 424.636,643.02 429.834,643.038 435.031,643.051 440.228,643.061 445.425,643.069 450.622,643.074 455.819,643.078 461.016,643.08 466.213,643.082 
  471.41,643.083 476.607,643.082 481.804,643.082 487.002,643.08 492.199,643.077 497.396,643.073 502.593,643.067 507.79,643.059 512.987,643.048 518.184,643.034 
  523.381,643.015 528.578,642.99 533.775,642.959 538.972,642.92 544.17,642.872 549.367,642.813 554.564,642.741 559.761,642.654 564.958,642.55 570.155,642.426 
  575.352,642.279 580.549,642.107 585.746,641.905 590.943,641.67 596.14,641.398 601.337,641.082 606.535,640.719 611.732,640.302 616.929,639.824 622.126,639.277 
  627.323,638.654 632.52,637.944 637.717,637.139 642.914,636.226 648.111,635.192 653.308,634.023 658.505,632.704 663.703,631.216 668.9,629.539 674.097,627.653 
  679.294,625.533 684.491,623.148 689.688,620.469 694.885,617.463 700.082,614.09 705.279,610.308 710.476,606.069 715.673,601.32 720.87,596.002 726.068,590.05 
  731.265,793 736.462,788.701 741.659,784.687 746.856,780.95 752.053,777.475 757.25,774.253 762.447,771.27 767.644,768.514 772.841,765.971 778.038,763.631 
  783.236,761.479 788.433,759.505 793.63,757.696 798.827,756.041 804.024,754.528 809.221,753.148 814.418,751.891 819.615,750.747 824.812,749.708 830.009,748.765 
  835.206,747.909 840.403,747.135 845.601,746.436 850.798,745.805 855.995,745.235 861.192,744.722 866.389,744.26 871.586,743.846 876.783,743.475 881.98,743.142 
  887.177,742.845 892.374,742.579 897.571,742.343 902.769,742.133 907.966,741.946 913.163,741.781 918.36,741.635 923.557,741.507 928.754,741.394 933.951,741.296 
  939.148,741.21 944.345,741.136 949.542,741.072 954.739,741.018 959.936,740.973 965.134,740.936 970.331,740.906 975.528,740.883 980.725,740.867 985.922,740.858 
  991.119,740.854 996.316,740.857 1001.51,740.865 1006.71,740.881 1011.91,740.903 1017.1,740.931 1022.3,740.967 1027.5,741.012 1032.7,741.065 1037.89,741.127 
  1043.09,741.2 1048.29,741.284 1053.48,741.381 1058.68,741.493 1063.88,741.62 1069.08,741.765 1074.27,741.929 1079.47,742.114 1084.67,742.324 1089.86,742.561 
  1095.06,742.826 1100.26,743.124 1105.45,743.459 1110.65,743.834 1115.85,744.253 1121.05,744.721 1126.24,745.244 1131.44,745.826 1136.64,746.474 1141.83,747.196 
  1147.03,747.998 1152.23,748.889 1157.43,749.878 1162.62,750.975 1167.82,752.191 1173.02,753.538 1178.21,755.029 1183.41,756.679 1188.61,758.503 1193.81,760.52 
  1199,762.75 1204.2,765.213 1209.4,767.933 1214.59,770.935 1219.79,774.249 1224.99,777.902 1230.19,781.927 1235.38,786.361 1240.58,791.243 1245.78,588.092 
  1250.97,591.606 1256.17,594.941 1261.37,598.102 1266.56,601.092 1271.76,603.918 1276.96,606.581 1282.16,609.089 1287.35,611.446 1292.55,613.658 1297.75,615.731 
  1302.94,617.67 1308.14,619.482 1313.34,621.174 1318.54,622.751 1323.73,624.22 1328.93,625.585 1334.13,626.854 1339.32,628.031 1344.52,629.122 1349.72,630.132 
  1354.92,631.067 1360.11,631.931 1365.31,632.729 1370.51,633.464 1375.7,634.142 1380.9,634.766 1386.1,635.34 1391.29,635.867 1396.49,636.351 1401.69,636.794 
  1406.89,637.2 1412.08,637.571 1417.28,637.909 1422.48,638.217 1427.67,638.498 1432.87,638.752 1438.07,638.982 1443.27,639.189 1448.46,639.376 1453.66,639.543 
  1458.86,639.691 1464.05,639.822 1469.25,639.937 1474.45,640.036 1479.65,640.12 1484.84,640.189 1490.04,640.246 1495.24,640.29 1500.43,640.32 1505.63,640.338 
  1510.83,640.344 1516.02,640.337 1521.22,640.317 1526.42,640.284 1531.62,640.239 1536.81,640.18 1542.01,640.108 1547.21,640.021 1552.4,639.919 1557.6,639.801 
  1562.8,639.666 1568,639.512 1573.19,639.34 1578.39,639.147 1583.59,638.932 1588.78,638.693 1593.98,638.428 1599.18,638.136 1604.38,637.813 1609.57,637.459 
  1614.77,637.069 1619.97,636.641 1625.16,636.172 1630.36,635.658 1635.56,635.097 1640.75,634.483 1645.95,633.812 1651.15,633.08 1656.35,632.28 1661.54,631.408 
  1666.74,630.458 1671.94,629.424 1677.13,628.297 1682.33,627.071 1687.53,625.736 1692.73,624.284 1697.92,622.704 1703.12,620.987 1708.32,619.122 1713.51,617.095 
  1718.71,614.894 1723.91,612.505 1729.11,609.912 1734.3,607.099 1739.5,604.049 1744.7,600.743 1749.89,597.161 1755.09,593.281 1760.29,589.081 1765.49,794.121 
  1770.68,791.661 1775.88,789.287 1781.08,786.999 1786.27,784.795 1791.47,782.676 1796.67,780.642 1801.86,778.691 1807.06,776.825 1812.26,775.04 1817.46,773.335 
  1822.65,771.71 1827.85,770.161 1833.05,768.687 1838.24,767.286 1843.44,765.957 1848.64,764.696 1853.84,763.501 1859.03,762.371 1864.23,761.303 1869.43,760.294 
  1874.62,759.342 1879.82,758.445 1885.02,757.6 1890.22,756.806 1895.41,756.061 1900.61,755.36 1905.81,754.703 1911,754.089 1916.2,753.515 1921.4,752.979 
  1926.59,752.48 1931.79,752.014 1936.99,751.582 1942.19,751.181 1947.38,750.811 1952.58,750.47 1957.78,750.157 1962.97,749.869 1968.17,749.607 1973.37,749.369 
  1978.57,749.155 1983.76,748.964 1988.96,748.796 1994.16,748.648 1999.35,748.52 2004.55,748.412 2009.75,748.325 2014.95,748.257 2020.14,748.209 2025.34,748.18 
  2030.54,748.169 2035.73,748.177 2040.93,748.204 2046.13,748.251 2051.32,748.317 2056.52,748.403 2061.72,748.509 2066.92,748.635 2072.11,748.783 2077.31,748.953 
  2082.51,749.146 2087.7,749.363 2092.9,749.604 2098.1,749.87 2103.3,750.164 2108.49,750.486 2113.69,750.838 2118.89,751.222 2124.08,751.637 2129.28,752.088 
  2134.48,752.576 2139.68,753.102 2144.87,753.671 2150.07,754.284 2155.27,754.942 2160.46,755.649 2165.66,756.409 2170.86,757.224 2176.05,758.099 2181.25,759.037 
  2186.45,760.041 2191.65,761.115 2196.84,762.265 2202.04,763.495 2207.24,764.81 2212.43,766.216 2217.63,767.718 2222.83,769.322 2228.03,771.034 2233.22,772.861 
  2238.42,774.812 2243.62,776.892 2248.81,779.111 2254.01,781.478 2259.21,784 2264.41,786.689 2269.6,789.553 2274.8,792.605 2280,587.576 2285.19,588.938 
  2290.39,590.28 
  "/>
<path clip-path="url(#clip310)" d="
M1390.67 352.309 L2279.3 352.309 L2279.3 93.1086 L1390.67 93.1086  Z
  " fill="#ffffff" fill-rule="evenodd" fill-opacity="1"/>
<polyline clip-path="url(#clip310)" style="stroke:#000000; stroke-linecap:round; stroke-linejoin:round; stroke-width:4; stroke-opacity:1; fill:none" points="
  1390.67,352.309 2279.3,352.309 2279.3,93.1086 1390.67,93.1086 1390.67,352.309 
  "/>
<polyline clip-path="url(#clip310)" style="stroke:#009af9; stroke-linecap:round; stroke-linejoin:round; stroke-width:4; stroke-opacity:1; fill:none" points="
  1415.15,144.949 1562.06,144.949 
  "/>
<path clip-path="url(#clip310)" d="M1606.89 141.28 Q1608.49 138.409 1610.71 137.044 Q1612.93 135.678 1615.94 135.678 Q1619.99 135.678 1622.19 138.525 Q1624.39 141.349 1624.39 146.581 L1624.39 162.229 L1620.11 162.229 L1620.11 146.719 Q1620.11 142.993 1618.79 141.187 Q1617.47 139.382 1614.76 139.382 Q1611.45 139.382 1609.53 141.581 Q1607.61 143.78 1607.61 147.576 L1607.61 162.229 L1603.33 162.229 L1603.33 146.719 Q1603.33 142.969 1602.01 141.187 Q1600.69 139.382 1597.93 139.382 Q1594.67 139.382 1592.75 141.604 Q1590.83 143.803 1590.83 147.576 L1590.83 162.229 L1586.54 162.229 L1586.54 136.303 L1590.83 136.303 L1590.83 140.331 Q1592.28 137.946 1594.32 136.812 Q1596.36 135.678 1599.16 135.678 Q1601.98 135.678 1603.95 137.113 Q1605.94 138.548 1606.89 141.28 Z" fill="#000000" fill-rule="evenodd" fill-opacity="1" /><path clip-path="url(#clip310)" d="M1644.67 149.196 Q1639.51 149.196 1637.51 150.377 Q1635.52 151.557 1635.52 154.405 Q1635.52 156.673 1637.01 158.016 Q1638.51 159.335 1641.08 159.335 Q1644.62 159.335 1646.75 156.835 Q1648.9 154.312 1648.9 150.145 L1648.9 149.196 L1644.67 149.196 M1653.16 147.437 L1653.16 162.229 L1648.9 162.229 L1648.9 158.293 Q1647.45 160.655 1645.27 161.789 Q1643.09 162.9 1639.95 162.9 Q1635.96 162.9 1633.6 160.678 Q1631.26 158.432 1631.26 154.682 Q1631.26 150.307 1634.18 148.085 Q1637.12 145.863 1642.93 145.863 L1648.9 145.863 L1648.9 145.446 Q1648.9 142.507 1646.96 140.909 Q1645.04 139.289 1641.54 139.289 Q1639.32 139.289 1637.21 139.821 Q1635.11 140.354 1633.16 141.419 L1633.16 137.483 Q1635.5 136.581 1637.7 136.141 Q1639.9 135.678 1641.98 135.678 Q1647.61 135.678 1650.39 138.594 Q1653.16 141.511 1653.16 147.437 Z" fill="#000000" fill-rule="evenodd" fill-opacity="1" /><path clip-path="url(#clip310)" d="M1678.46 137.067 L1678.46 141.094 Q1676.66 140.169 1674.71 139.706 Q1672.77 139.243 1670.69 139.243 Q1667.51 139.243 1665.92 140.215 Q1664.34 141.187 1664.34 143.131 Q1664.34 144.613 1665.48 145.469 Q1666.61 146.303 1670.04 147.067 L1671.5 147.391 Q1676.03 148.363 1677.93 150.145 Q1679.85 151.905 1679.85 155.076 Q1679.85 158.687 1676.98 160.793 Q1674.13 162.9 1669.13 162.9 Q1667.05 162.9 1664.78 162.483 Q1662.54 162.09 1660.04 161.28 L1660.04 156.881 Q1662.4 158.108 1664.69 158.733 Q1666.98 159.335 1669.23 159.335 Q1672.24 159.335 1673.86 158.317 Q1675.48 157.275 1675.48 155.4 Q1675.48 153.664 1674.3 152.738 Q1673.14 151.812 1669.18 150.956 L1667.7 150.608 Q1663.74 149.775 1661.98 148.062 Q1660.22 146.326 1660.22 143.317 Q1660.22 139.659 1662.82 137.669 Q1665.41 135.678 1670.18 135.678 Q1672.54 135.678 1674.62 136.025 Q1676.7 136.372 1678.46 137.067 Z" fill="#000000" fill-rule="evenodd" fill-opacity="1" /><path clip-path="url(#clip310)" d="M1703.16 137.067 L1703.16 141.094 Q1701.36 140.169 1699.41 139.706 Q1697.47 139.243 1695.38 139.243 Q1692.21 139.243 1690.62 140.215 Q1689.04 141.187 1689.04 143.131 Q1689.04 144.613 1690.18 145.469 Q1691.31 146.303 1694.74 147.067 L1696.19 147.391 Q1700.73 148.363 1702.63 150.145 Q1704.55 151.905 1704.55 155.076 Q1704.55 158.687 1701.68 160.793 Q1698.83 162.9 1693.83 162.9 Q1691.75 162.9 1689.48 162.483 Q1687.24 162.09 1684.74 161.28 L1684.74 156.881 Q1687.1 158.108 1689.39 158.733 Q1691.68 159.335 1693.93 159.335 Q1696.94 159.335 1698.56 158.317 Q1700.18 157.275 1700.18 155.4 Q1700.18 153.664 1699 152.738 Q1697.84 151.812 1693.88 150.956 L1692.4 150.608 Q1688.44 149.775 1686.68 148.062 Q1684.92 146.326 1684.92 143.317 Q1684.92 139.659 1687.51 137.669 Q1690.11 135.678 1694.88 135.678 Q1697.24 135.678 1699.32 136.025 Q1701.4 136.372 1703.16 137.067 Z" fill="#000000" fill-rule="evenodd" fill-opacity="1" /><path clip-path="url(#clip310)" d="M1711.94 156.349 L1716.82 156.349 L1716.82 162.229 L1711.94 162.229 L1711.94 156.349 Z" fill="#000000" fill-rule="evenodd" fill-opacity="1" /><path clip-path="url(#clip310)" d="M1742.93 137.067 L1742.93 141.094 Q1741.13 140.169 1739.18 139.706 Q1737.24 139.243 1735.15 139.243 Q1731.98 139.243 1730.38 140.215 Q1728.81 141.187 1728.81 143.131 Q1728.81 144.613 1729.94 145.469 Q1731.08 146.303 1734.5 147.067 L1735.96 147.391 Q1740.5 148.363 1742.4 150.145 Q1744.32 151.905 1744.32 155.076 Q1744.32 158.687 1741.45 160.793 Q1738.6 162.9 1733.6 162.9 Q1731.52 162.9 1729.25 162.483 Q1727 162.09 1724.51 161.28 L1724.51 156.881 Q1726.87 158.108 1729.16 158.733 Q1731.45 159.335 1733.69 159.335 Q1736.7 159.335 1738.32 158.317 Q1739.94 157.275 1739.94 155.4 Q1739.94 153.664 1738.76 152.738 Q1737.61 151.812 1733.65 150.956 L1732.17 150.608 Q1728.21 149.775 1726.45 148.062 Q1724.69 146.326 1724.69 143.317 Q1724.69 139.659 1727.28 137.669 Q1729.88 135.678 1734.64 135.678 Q1737 135.678 1739.09 136.025 Q1741.17 136.372 1742.93 137.067 Z" fill="#000000" fill-rule="evenodd" fill-opacity="1" /><path clip-path="url(#clip310)" d="M1776.4 126.257 Q1773.3 131.581 1771.8 136.789 Q1770.29 141.997 1770.29 147.344 Q1770.29 152.692 1771.8 157.946 Q1773.32 163.178 1776.4 168.479 L1772.7 168.479 Q1769.23 163.039 1767.49 157.784 Q1765.78 152.53 1765.78 147.344 Q1765.78 142.182 1767.49 136.951 Q1769.2 131.72 1772.7 126.257 L1776.4 126.257 Z" fill="#000000" fill-rule="evenodd" fill-opacity="1" /><path clip-path="url(#clip310)" d="M1799.44 143.594 Q1802.79 144.312 1804.67 146.581 Q1806.56 148.849 1806.56 152.182 Q1806.56 157.298 1803.05 160.099 Q1799.53 162.9 1793.05 162.9 Q1790.87 162.9 1788.56 162.46 Q1786.26 162.043 1783.81 161.187 L1783.81 156.673 Q1785.75 157.807 1788.07 158.386 Q1790.38 158.965 1792.91 158.965 Q1797.31 158.965 1799.6 157.229 Q1801.91 155.493 1801.91 152.182 Q1801.91 149.127 1799.76 147.414 Q1797.63 145.678 1793.81 145.678 L1789.78 145.678 L1789.78 141.835 L1794 141.835 Q1797.44 141.835 1799.27 140.469 Q1801.1 139.081 1801.1 136.488 Q1801.1 133.826 1799.2 132.414 Q1797.33 130.979 1793.81 130.979 Q1791.89 130.979 1789.69 131.395 Q1787.49 131.812 1784.85 132.692 L1784.85 128.525 Q1787.51 127.784 1789.83 127.414 Q1792.17 127.044 1794.23 127.044 Q1799.55 127.044 1802.65 129.474 Q1805.75 131.882 1805.75 136.002 Q1805.75 138.872 1804.11 140.863 Q1802.47 142.831 1799.44 143.594 Z" fill="#000000" fill-rule="evenodd" fill-opacity="1" /><path clip-path="url(#clip310)" d="M1829.6 143.594 Q1832.95 144.312 1834.83 146.581 Q1836.73 148.849 1836.73 152.182 Q1836.73 157.298 1833.21 160.099 Q1829.69 162.9 1823.21 162.9 Q1821.03 162.9 1818.72 162.46 Q1816.43 162.043 1813.97 161.187 L1813.97 156.673 Q1815.92 157.807 1818.23 158.386 Q1820.55 158.965 1823.07 158.965 Q1827.47 158.965 1829.76 157.229 Q1832.07 155.493 1832.07 152.182 Q1832.07 149.127 1829.92 147.414 Q1827.79 145.678 1823.97 145.678 L1819.94 145.678 L1819.94 141.835 L1824.16 141.835 Q1827.61 141.835 1829.43 140.469 Q1831.26 139.081 1831.26 136.488 Q1831.26 133.826 1829.37 132.414 Q1827.49 130.979 1823.97 130.979 Q1822.05 130.979 1819.85 131.395 Q1817.65 131.812 1815.01 132.692 L1815.01 128.525 Q1817.68 127.784 1819.99 127.414 Q1822.33 127.044 1824.39 127.044 Q1829.71 127.044 1832.81 129.474 Q1835.92 131.882 1835.92 136.002 Q1835.92 138.872 1834.27 140.863 Q1832.63 142.831 1829.6 143.594 Z" fill="#000000" fill-rule="evenodd" fill-opacity="1" /><path clip-path="url(#clip310)" d="M1845.64 127.669 L1863.99 127.669 L1863.99 131.604 L1849.92 131.604 L1849.92 140.076 Q1850.94 139.729 1851.96 139.567 Q1852.98 139.382 1854 139.382 Q1859.78 139.382 1863.16 142.553 Q1866.54 145.724 1866.54 151.141 Q1866.54 156.719 1863.07 159.821 Q1859.6 162.9 1853.28 162.9 Q1851.1 162.9 1848.83 162.53 Q1846.59 162.159 1844.18 161.418 L1844.18 156.719 Q1846.26 157.854 1848.49 158.409 Q1850.71 158.965 1853.18 158.965 Q1857.19 158.965 1859.53 156.858 Q1861.87 154.752 1861.87 151.141 Q1861.87 147.53 1859.53 145.423 Q1857.19 143.317 1853.18 143.317 Q1851.31 143.317 1849.43 143.733 Q1847.58 144.15 1845.64 145.03 L1845.64 127.669 Z" fill="#000000" fill-rule="evenodd" fill-opacity="1" /><path clip-path="url(#clip310)" d="M1875.8 127.669 L1894.16 127.669 L1894.16 131.604 L1880.08 131.604 L1880.08 140.076 Q1881.1 139.729 1882.12 139.567 Q1883.14 139.382 1884.16 139.382 Q1889.94 139.382 1893.32 142.553 Q1896.7 145.724 1896.7 151.141 Q1896.7 156.719 1893.23 159.821 Q1889.76 162.9 1883.44 162.9 Q1881.26 162.9 1878.99 162.53 Q1876.75 162.159 1874.34 161.418 L1874.34 156.719 Q1876.43 157.854 1878.65 158.409 Q1880.87 158.965 1883.35 158.965 Q1887.35 158.965 1889.69 156.858 Q1892.03 154.752 1892.03 151.141 Q1892.03 147.53 1889.69 145.423 Q1887.35 143.317 1883.35 143.317 Q1881.47 143.317 1879.6 143.733 Q1877.74 144.15 1875.8 145.03 L1875.8 127.669 Z" fill="#000000" fill-rule="evenodd" fill-opacity="1" /><path clip-path="url(#clip310)" d="M1918.76 131.743 L1906.96 150.192 L1918.76 150.192 L1918.76 131.743 M1917.54 127.669 L1923.42 127.669 L1923.42 150.192 L1928.35 150.192 L1928.35 154.081 L1923.42 154.081 L1923.42 162.229 L1918.76 162.229 L1918.76 154.081 L1903.16 154.081 L1903.16 149.567 L1917.54 127.669 Z" fill="#000000" fill-rule="evenodd" fill-opacity="1" /><path clip-path="url(#clip310)" d="M1948.93 131.743 L1937.12 150.192 L1948.93 150.192 L1948.93 131.743 M1947.7 127.669 L1953.58 127.669 L1953.58 150.192 L1958.51 150.192 L1958.51 154.081 L1953.58 154.081 L1953.58 162.229 L1948.93 162.229 L1948.93 154.081 L1933.32 154.081 L1933.32 149.567 L1947.7 127.669 Z" fill="#000000" fill-rule="evenodd" fill-opacity="1" /><path clip-path="url(#clip310)" d="M1980.41 143.594 Q1983.76 144.312 1985.64 146.581 Q1987.54 148.849 1987.54 152.182 Q1987.54 157.298 1984.02 160.099 Q1980.5 162.9 1974.02 162.9 Q1971.84 162.9 1969.53 162.46 Q1967.24 162.043 1964.78 161.187 L1964.78 156.673 Q1966.73 157.807 1969.04 158.386 Q1971.36 158.965 1973.88 158.965 Q1978.28 158.965 1980.57 157.229 Q1982.88 155.493 1982.88 152.182 Q1982.88 149.127 1980.73 147.414 Q1978.6 145.678 1974.78 145.678 L1970.75 145.678 L1970.75 141.835 L1974.97 141.835 Q1978.42 141.835 1980.24 140.469 Q1982.07 139.081 1982.07 136.488 Q1982.07 133.826 1980.17 132.414 Q1978.3 130.979 1974.78 130.979 Q1972.86 130.979 1970.66 131.395 Q1968.46 131.812 1965.82 132.692 L1965.82 128.525 Q1968.49 127.784 1970.8 127.414 Q1973.14 127.044 1975.2 127.044 Q1980.52 127.044 1983.62 129.474 Q1986.73 131.882 1986.73 136.002 Q1986.73 138.872 1985.08 140.863 Q1983.44 142.831 1980.41 143.594 Z" fill="#000000" fill-rule="evenodd" fill-opacity="1" /><path clip-path="url(#clip310)" d="M2000.43 158.293 L2016.75 158.293 L2016.75 162.229 L1994.8 162.229 L1994.8 158.293 Q1997.47 155.539 2002.05 150.909 Q2006.66 146.256 2007.84 144.914 Q2010.08 142.391 2010.96 140.655 Q2011.86 138.895 2011.86 137.206 Q2011.86 134.451 2009.92 132.715 Q2008 130.979 2004.9 130.979 Q2002.7 130.979 2000.24 131.743 Q1997.81 132.507 1995.04 134.057 L1995.04 129.335 Q1997.86 128.201 2000.31 127.622 Q2002.77 127.044 2004.8 127.044 Q2010.17 127.044 2013.37 129.729 Q2016.56 132.414 2016.56 136.905 Q2016.56 139.034 2015.75 140.956 Q2014.97 142.854 2012.86 145.446 Q2012.28 146.118 2009.18 149.335 Q2006.08 152.53 2000.43 158.293 Z" fill="#000000" fill-rule="evenodd" fill-opacity="1" /><path clip-path="url(#clip310)" d="M2025.29 126.257 L2028.99 126.257 Q2032.47 131.72 2034.18 136.951 Q2035.92 142.182 2035.92 147.344 Q2035.92 152.53 2034.18 157.784 Q2032.47 163.039 2028.99 168.479 L2025.29 168.479 Q2028.37 163.178 2029.87 157.946 Q2031.4 152.692 2031.4 147.344 Q2031.4 141.997 2029.87 136.789 Q2028.37 131.581 2025.29 126.257 Z" fill="#000000" fill-rule="evenodd" fill-opacity="1" /><polyline clip-path="url(#clip310)" style="stroke:#e26f46; stroke-linecap:round; stroke-linejoin:round; stroke-width:4; stroke-opacity:1; fill:none" points="
  1415.15,196.789 1562.06,196.789 
  "/>
<path clip-path="url(#clip310)" d="M1606.89 193.12 Q1608.49 190.249 1610.71 188.884 Q1612.93 187.518 1615.94 187.518 Q1619.99 187.518 1622.19 190.365 Q1624.39 193.189 1624.39 198.421 L1624.39 214.069 L1620.11 214.069 L1620.11 198.559 Q1620.11 194.833 1618.79 193.027 Q1617.47 191.222 1614.76 191.222 Q1611.45 191.222 1609.53 193.421 Q1607.61 195.62 1607.61 199.416 L1607.61 214.069 L1603.33 214.069 L1603.33 198.559 Q1603.33 194.809 1602.01 193.027 Q1600.69 191.222 1597.93 191.222 Q1594.67 191.222 1592.75 193.444 Q1590.83 195.643 1590.83 199.416 L1590.83 214.069 L1586.54 214.069 L1586.54 188.143 L1590.83 188.143 L1590.83 192.171 Q1592.28 189.786 1594.32 188.652 Q1596.36 187.518 1599.16 187.518 Q1601.98 187.518 1603.95 188.953 Q1605.94 190.388 1606.89 193.12 Z" fill="#000000" fill-rule="evenodd" fill-opacity="1" /><path clip-path="url(#clip310)" d="M1644.67 201.036 Q1639.51 201.036 1637.51 202.217 Q1635.52 203.397 1635.52 206.245 Q1635.52 208.513 1637.01 209.856 Q1638.51 211.175 1641.08 211.175 Q1644.62 211.175 1646.75 208.675 Q1648.9 206.152 1648.9 201.985 L1648.9 201.036 L1644.67 201.036 M1653.16 199.277 L1653.16 214.069 L1648.9 214.069 L1648.9 210.133 Q1647.45 212.495 1645.27 213.629 Q1643.09 214.74 1639.95 214.74 Q1635.96 214.74 1633.6 212.518 Q1631.26 210.272 1631.26 206.522 Q1631.26 202.147 1634.18 199.925 Q1637.12 197.703 1642.93 197.703 L1648.9 197.703 L1648.9 197.286 Q1648.9 194.347 1646.96 192.749 Q1645.04 191.129 1641.54 191.129 Q1639.32 191.129 1637.21 191.661 Q1635.11 192.194 1633.16 193.259 L1633.16 189.323 Q1635.5 188.421 1637.7 187.981 Q1639.9 187.518 1641.98 187.518 Q1647.61 187.518 1650.39 190.434 Q1653.16 193.351 1653.16 199.277 Z" fill="#000000" fill-rule="evenodd" fill-opacity="1" /><path clip-path="url(#clip310)" d="M1678.46 188.907 L1678.46 192.934 Q1676.66 192.009 1674.71 191.546 Q1672.77 191.083 1670.69 191.083 Q1667.51 191.083 1665.92 192.055 Q1664.34 193.027 1664.34 194.971 Q1664.34 196.453 1665.48 197.309 Q1666.61 198.143 1670.04 198.907 L1671.5 199.231 Q1676.03 200.203 1677.93 201.985 Q1679.85 203.745 1679.85 206.916 Q1679.85 210.527 1676.98 212.633 Q1674.13 214.74 1669.13 214.74 Q1667.05 214.74 1664.78 214.323 Q1662.54 213.93 1660.04 213.12 L1660.04 208.721 Q1662.4 209.948 1664.69 210.573 Q1666.98 211.175 1669.23 211.175 Q1672.24 211.175 1673.86 210.157 Q1675.48 209.115 1675.48 207.24 Q1675.48 205.504 1674.3 204.578 Q1673.14 203.652 1669.18 202.796 L1667.7 202.448 Q1663.74 201.615 1661.98 199.902 Q1660.22 198.166 1660.22 195.157 Q1660.22 191.499 1662.82 189.509 Q1665.41 187.518 1670.18 187.518 Q1672.54 187.518 1674.62 187.865 Q1676.7 188.212 1678.46 188.907 Z" fill="#000000" fill-rule="evenodd" fill-opacity="1" /><path clip-path="url(#clip310)" d="M1703.16 188.907 L1703.16 192.934 Q1701.36 192.009 1699.41 191.546 Q1697.47 191.083 1695.38 191.083 Q1692.21 191.083 1690.62 192.055 Q1689.04 193.027 1689.04 194.971 Q1689.04 196.453 1690.18 197.309 Q1691.31 198.143 1694.74 198.907 L1696.19 199.231 Q1700.73 200.203 1702.63 201.985 Q1704.55 203.745 1704.55 206.916 Q1704.55 210.527 1701.68 212.633 Q1698.83 214.74 1693.83 214.74 Q1691.75 214.74 1689.48 214.323 Q1687.24 213.93 1684.74 213.12 L1684.74 208.721 Q1687.1 209.948 1689.39 210.573 Q1691.68 211.175 1693.93 211.175 Q1696.94 211.175 1698.56 210.157 Q1700.18 209.115 1700.18 207.24 Q1700.18 205.504 1699 204.578 Q1697.84 203.652 1693.88 202.796 L1692.4 202.448 Q1688.44 201.615 1686.68 199.902 Q1684.92 198.166 1684.92 195.157 Q1684.92 191.499 1687.51 189.509 Q1690.11 187.518 1694.88 187.518 Q1697.24 187.518 1699.32 187.865 Q1701.4 188.212 1703.16 188.907 Z" fill="#000000" fill-rule="evenodd" fill-opacity="1" /><path clip-path="url(#clip310)" d="M1711.94 208.189 L1716.82 208.189 L1716.82 214.069 L1711.94 214.069 L1711.94 208.189 Z" fill="#000000" fill-rule="evenodd" fill-opacity="1" /><path clip-path="url(#clip310)" d="M1723.35 188.143 L1727.86 188.143 L1735.96 209.902 L1744.07 188.143 L1748.58 188.143 L1738.86 214.069 L1733.07 214.069 L1723.35 188.143 Z" fill="#000000" fill-rule="evenodd" fill-opacity="1" /><path clip-path="url(#clip310)" d="M1779.76 178.097 Q1776.66 183.421 1775.15 188.629 Q1773.65 193.837 1773.65 199.184 Q1773.65 204.532 1775.15 209.786 Q1776.68 215.018 1779.76 220.319 L1776.06 220.319 Q1772.58 214.879 1770.85 209.624 Q1769.13 204.37 1769.13 199.184 Q1769.13 194.022 1770.85 188.791 Q1772.56 183.56 1776.06 178.097 L1779.76 178.097 Z" fill="#000000" fill-rule="evenodd" fill-opacity="1" /><path clip-path="url(#clip310)" d="M1802.79 195.434 Q1806.15 196.152 1808.02 198.421 Q1809.92 200.689 1809.92 204.022 Q1809.92 209.138 1806.4 211.939 Q1802.88 214.74 1796.4 214.74 Q1794.23 214.74 1791.91 214.3 Q1789.62 213.883 1787.17 213.027 L1787.17 208.513 Q1789.11 209.647 1791.43 210.226 Q1793.74 210.805 1796.26 210.805 Q1800.66 210.805 1802.95 209.069 Q1805.27 207.333 1805.27 204.022 Q1805.27 200.967 1803.12 199.254 Q1800.99 197.518 1797.17 197.518 L1793.14 197.518 L1793.14 193.675 L1797.35 193.675 Q1800.8 193.675 1802.63 192.309 Q1804.46 190.921 1804.46 188.328 Q1804.46 185.666 1802.56 184.254 Q1800.69 182.819 1797.17 182.819 Q1795.25 182.819 1793.05 183.235 Q1790.85 183.652 1788.21 184.532 L1788.21 180.365 Q1790.87 179.624 1793.19 179.254 Q1795.52 178.884 1797.58 178.884 Q1802.91 178.884 1806.01 181.314 Q1809.11 183.722 1809.11 187.842 Q1809.11 190.712 1807.47 192.703 Q1805.82 194.671 1802.79 195.434 Z" fill="#000000" fill-rule="evenodd" fill-opacity="1" /><path clip-path="url(#clip310)" d="M1832.95 195.434 Q1836.31 196.152 1838.18 198.421 Q1840.08 200.689 1840.08 204.022 Q1840.08 209.138 1836.56 211.939 Q1833.05 214.74 1826.56 214.74 Q1824.39 214.74 1822.07 214.3 Q1819.78 213.883 1817.33 213.027 L1817.33 208.513 Q1819.27 209.647 1821.59 210.226 Q1823.9 210.805 1826.43 210.805 Q1830.82 210.805 1833.12 209.069 Q1835.43 207.333 1835.43 204.022 Q1835.43 200.967 1833.28 199.254 Q1831.15 197.518 1827.33 197.518 L1823.3 197.518 L1823.3 193.675 L1827.51 193.675 Q1830.96 193.675 1832.79 192.309 Q1834.62 190.921 1834.62 188.328 Q1834.62 185.666 1832.72 184.254 Q1830.85 182.819 1827.33 182.819 Q1825.41 182.819 1823.21 183.235 Q1821.01 183.652 1818.37 184.532 L1818.37 180.365 Q1821.03 179.624 1823.35 179.254 Q1825.69 178.884 1827.75 178.884 Q1833.07 178.884 1836.17 181.314 Q1839.27 183.722 1839.27 187.842 Q1839.27 190.712 1837.63 192.703 Q1835.99 194.671 1832.95 195.434 Z" fill="#000000" fill-rule="evenodd" fill-opacity="1" /><path clip-path="url(#clip310)" d="M1849 179.509 L1867.35 179.509 L1867.35 183.444 L1853.28 183.444 L1853.28 191.916 Q1854.3 191.569 1855.31 191.407 Q1856.33 191.222 1857.35 191.222 Q1863.14 191.222 1866.52 194.393 Q1869.9 197.564 1869.9 202.981 Q1869.9 208.559 1866.43 211.661 Q1862.95 214.74 1856.63 214.74 Q1854.46 214.74 1852.19 214.37 Q1849.94 213.999 1847.54 213.258 L1847.54 208.559 Q1849.62 209.694 1851.84 210.249 Q1854.06 210.805 1856.54 210.805 Q1860.55 210.805 1862.88 208.698 Q1865.22 206.592 1865.22 202.981 Q1865.22 199.37 1862.88 197.263 Q1860.55 195.157 1856.54 195.157 Q1854.67 195.157 1852.79 195.573 Q1850.94 195.99 1849 196.87 L1849 179.509 Z" fill="#000000" fill-rule="evenodd" fill-opacity="1" /><path clip-path="url(#clip310)" d="M1879.16 179.509 L1897.51 179.509 L1897.51 183.444 L1883.44 183.444 L1883.44 191.916 Q1884.46 191.569 1885.48 191.407 Q1886.49 191.222 1887.51 191.222 Q1893.3 191.222 1896.68 194.393 Q1900.06 197.564 1900.06 202.981 Q1900.06 208.559 1896.59 211.661 Q1893.12 214.74 1886.8 214.74 Q1884.62 214.74 1882.35 214.37 Q1880.11 213.999 1877.7 213.258 L1877.7 208.559 Q1879.78 209.694 1882 210.249 Q1884.23 210.805 1886.7 210.805 Q1890.71 210.805 1893.05 208.698 Q1895.38 206.592 1895.38 202.981 Q1895.38 199.37 1893.05 197.263 Q1890.71 195.157 1886.7 195.157 Q1884.83 195.157 1882.95 195.573 Q1881.1 195.99 1879.16 196.87 L1879.16 179.509 Z" fill="#000000" fill-rule="evenodd" fill-opacity="1" /><path clip-path="url(#clip310)" d="M1922.12 183.583 L1910.31 202.032 L1922.12 202.032 L1922.12 183.583 M1920.89 179.509 L1926.77 179.509 L1926.77 202.032 L1931.7 202.032 L1931.7 205.921 L1926.77 205.921 L1926.77 214.069 L1922.12 214.069 L1922.12 205.921 L1906.52 205.921 L1906.52 201.407 L1920.89 179.509 Z" fill="#000000" fill-rule="evenodd" fill-opacity="1" /><path clip-path="url(#clip310)" d="M1952.28 183.583 L1940.48 202.032 L1952.28 202.032 L1952.28 183.583 M1951.05 179.509 L1956.93 179.509 L1956.93 202.032 L1961.86 202.032 L1961.86 205.921 L1956.93 205.921 L1956.93 214.069 L1952.28 214.069 L1952.28 205.921 L1936.68 205.921 L1936.68 201.407 L1951.05 179.509 Z" fill="#000000" fill-rule="evenodd" fill-opacity="1" /><path clip-path="url(#clip310)" d="M1983.76 195.434 Q1987.12 196.152 1988.99 198.421 Q1990.89 200.689 1990.89 204.022 Q1990.89 209.138 1987.37 211.939 Q1983.86 214.74 1977.37 214.74 Q1975.2 214.74 1972.88 214.3 Q1970.59 213.883 1968.14 213.027 L1968.14 208.513 Q1970.08 209.647 1972.4 210.226 Q1974.71 210.805 1977.24 210.805 Q1981.63 210.805 1983.92 209.069 Q1986.24 207.333 1986.24 204.022 Q1986.24 200.967 1984.09 199.254 Q1981.96 197.518 1978.14 197.518 L1974.11 197.518 L1974.11 193.675 L1978.32 193.675 Q1981.77 193.675 1983.6 192.309 Q1985.43 190.921 1985.43 188.328 Q1985.43 185.666 1983.53 184.254 Q1981.66 182.819 1978.14 182.819 Q1976.22 182.819 1974.02 183.235 Q1971.82 183.652 1969.18 184.532 L1969.18 180.365 Q1971.84 179.624 1974.16 179.254 Q1976.49 178.884 1978.55 178.884 Q1983.88 178.884 1986.98 181.314 Q1990.08 183.722 1990.08 187.842 Q1990.08 190.712 1988.44 192.703 Q1986.8 194.671 1983.76 195.434 Z" fill="#000000" fill-rule="evenodd" fill-opacity="1" /><path clip-path="url(#clip310)" d="M2013.92 195.434 Q2017.28 196.152 2019.16 198.421 Q2021.05 200.689 2021.05 204.022 Q2021.05 209.138 2017.54 211.939 Q2014.02 214.74 2007.54 214.74 Q2005.36 214.74 2003.05 214.3 Q2000.75 213.883 1998.3 213.027 L1998.3 208.513 Q2000.24 209.647 2002.56 210.226 Q2004.87 210.805 2007.4 210.805 Q2011.8 210.805 2014.09 209.069 Q2016.4 207.333 2016.4 204.022 Q2016.4 200.967 2014.25 199.254 Q2012.12 197.518 2008.3 197.518 L2004.27 197.518 L2004.27 193.675 L2008.48 193.675 Q2011.93 193.675 2013.76 192.309 Q2015.59 190.921 2015.59 188.328 Q2015.59 185.666 2013.69 184.254 Q2011.82 182.819 2008.3 182.819 Q2006.38 182.819 2004.18 183.235 Q2001.98 183.652 1999.34 184.532 L1999.34 180.365 Q2002 179.624 2004.32 179.254 Q2006.66 178.884 2008.72 178.884 Q2014.04 178.884 2017.14 181.314 Q2020.24 183.722 2020.24 187.842 Q2020.24 190.712 2018.6 192.703 Q2016.96 194.671 2013.92 195.434 Z" fill="#000000" fill-rule="evenodd" fill-opacity="1" /><path clip-path="url(#clip310)" d="M2028.65 178.097 L2032.35 178.097 Q2035.82 183.56 2037.54 188.791 Q2039.27 194.022 2039.27 199.184 Q2039.27 204.37 2037.54 209.624 Q2035.82 214.879 2032.35 220.319 L2028.65 220.319 Q2031.73 215.018 2033.23 209.786 Q2034.76 204.532 2034.76 199.184 Q2034.76 193.837 2033.23 188.629 Q2031.73 183.421 2028.65 178.097 Z" fill="#000000" fill-rule="evenodd" fill-opacity="1" /><polyline clip-path="url(#clip310)" style="stroke:#3da44d; stroke-linecap:round; stroke-linejoin:round; stroke-width:4; stroke-opacity:1; fill:none" points="
  1415.15,248.629 1562.06,248.629 
  "/>
<path clip-path="url(#clip310)" d="M1606.89 244.96 Q1608.49 242.089 1610.71 240.724 Q1612.93 239.358 1615.94 239.358 Q1619.99 239.358 1622.19 242.205 Q1624.39 245.029 1624.39 250.261 L1624.39 265.909 L1620.11 265.909 L1620.11 250.399 Q1620.11 246.673 1618.79 244.867 Q1617.47 243.062 1614.76 243.062 Q1611.45 243.062 1609.53 245.261 Q1607.61 247.46 1607.61 251.256 L1607.61 265.909 L1603.33 265.909 L1603.33 250.399 Q1603.33 246.649 1602.01 244.867 Q1600.69 243.062 1597.93 243.062 Q1594.67 243.062 1592.75 245.284 Q1590.83 247.483 1590.83 251.256 L1590.83 265.909 L1586.54 265.909 L1586.54 239.983 L1590.83 239.983 L1590.83 244.011 Q1592.28 241.626 1594.32 240.492 Q1596.36 239.358 1599.16 239.358 Q1601.98 239.358 1603.95 240.793 Q1605.94 242.228 1606.89 244.96 Z" fill="#000000" fill-rule="evenodd" fill-opacity="1" /><path clip-path="url(#clip310)" d="M1644.67 252.876 Q1639.51 252.876 1637.51 254.057 Q1635.52 255.237 1635.52 258.085 Q1635.52 260.353 1637.01 261.696 Q1638.51 263.015 1641.08 263.015 Q1644.62 263.015 1646.75 260.515 Q1648.9 257.992 1648.9 253.825 L1648.9 252.876 L1644.67 252.876 M1653.16 251.117 L1653.16 265.909 L1648.9 265.909 L1648.9 261.973 Q1647.45 264.335 1645.27 265.469 Q1643.09 266.58 1639.95 266.58 Q1635.96 266.58 1633.6 264.358 Q1631.26 262.112 1631.26 258.362 Q1631.26 253.987 1634.18 251.765 Q1637.12 249.543 1642.93 249.543 L1648.9 249.543 L1648.9 249.126 Q1648.9 246.187 1646.96 244.589 Q1645.04 242.969 1641.54 242.969 Q1639.32 242.969 1637.21 243.501 Q1635.11 244.034 1633.16 245.099 L1633.16 241.163 Q1635.5 240.261 1637.7 239.821 Q1639.9 239.358 1641.98 239.358 Q1647.61 239.358 1650.39 242.274 Q1653.16 245.191 1653.16 251.117 Z" fill="#000000" fill-rule="evenodd" fill-opacity="1" /><path clip-path="url(#clip310)" d="M1678.46 240.747 L1678.46 244.774 Q1676.66 243.849 1674.71 243.386 Q1672.77 242.923 1670.69 242.923 Q1667.51 242.923 1665.92 243.895 Q1664.34 244.867 1664.34 246.811 Q1664.34 248.293 1665.48 249.149 Q1666.61 249.983 1670.04 250.747 L1671.5 251.071 Q1676.03 252.043 1677.93 253.825 Q1679.85 255.585 1679.85 258.756 Q1679.85 262.367 1676.98 264.473 Q1674.13 266.58 1669.13 266.58 Q1667.05 266.58 1664.78 266.163 Q1662.54 265.77 1660.04 264.96 L1660.04 260.561 Q1662.4 261.788 1664.69 262.413 Q1666.98 263.015 1669.23 263.015 Q1672.24 263.015 1673.86 261.997 Q1675.48 260.955 1675.48 259.08 Q1675.48 257.344 1674.3 256.418 Q1673.14 255.492 1669.18 254.636 L1667.7 254.288 Q1663.74 253.455 1661.98 251.742 Q1660.22 250.006 1660.22 246.997 Q1660.22 243.339 1662.82 241.349 Q1665.41 239.358 1670.18 239.358 Q1672.54 239.358 1674.62 239.705 Q1676.7 240.052 1678.46 240.747 Z" fill="#000000" fill-rule="evenodd" fill-opacity="1" /><path clip-path="url(#clip310)" d="M1703.16 240.747 L1703.16 244.774 Q1701.36 243.849 1699.41 243.386 Q1697.47 242.923 1695.38 242.923 Q1692.21 242.923 1690.62 243.895 Q1689.04 244.867 1689.04 246.811 Q1689.04 248.293 1690.18 249.149 Q1691.31 249.983 1694.74 250.747 L1696.19 251.071 Q1700.73 252.043 1702.63 253.825 Q1704.55 255.585 1704.55 258.756 Q1704.55 262.367 1701.68 264.473 Q1698.83 266.58 1693.83 266.58 Q1691.75 266.58 1689.48 266.163 Q1687.24 265.77 1684.74 264.96 L1684.74 260.561 Q1687.1 261.788 1689.39 262.413 Q1691.68 263.015 1693.93 263.015 Q1696.94 263.015 1698.56 261.997 Q1700.18 260.955 1700.18 259.08 Q1700.18 257.344 1699 256.418 Q1697.84 255.492 1693.88 254.636 L1692.4 254.288 Q1688.44 253.455 1686.68 251.742 Q1684.92 250.006 1684.92 246.997 Q1684.92 243.339 1687.51 241.349 Q1690.11 239.358 1694.88 239.358 Q1697.24 239.358 1699.32 239.705 Q1701.4 240.052 1703.16 240.747 Z" fill="#000000" fill-rule="evenodd" fill-opacity="1" /><path clip-path="url(#clip310)" d="M1711.94 260.029 L1716.82 260.029 L1716.82 265.909 L1711.94 265.909 L1711.94 260.029 Z" fill="#000000" fill-rule="evenodd" fill-opacity="1" /><path clip-path="url(#clip310)" d="M1738.19 252.876 Q1733.02 252.876 1731.03 254.057 Q1729.04 255.237 1729.04 258.085 Q1729.04 260.353 1730.52 261.696 Q1732.03 263.015 1734.6 263.015 Q1738.14 263.015 1740.27 260.515 Q1742.42 257.992 1742.42 253.825 L1742.42 252.876 L1738.19 252.876 M1746.68 251.117 L1746.68 265.909 L1742.42 265.909 L1742.42 261.973 Q1740.96 264.335 1738.79 265.469 Q1736.61 266.58 1733.46 266.58 Q1729.48 266.58 1727.12 264.358 Q1724.78 262.112 1724.78 258.362 Q1724.78 253.987 1727.7 251.765 Q1730.64 249.543 1736.45 249.543 L1742.42 249.543 L1742.42 249.126 Q1742.42 246.187 1740.48 244.589 Q1738.56 242.969 1735.06 242.969 Q1732.84 242.969 1730.73 243.501 Q1728.63 244.034 1726.68 245.099 L1726.68 241.163 Q1729.02 240.261 1731.22 239.821 Q1733.42 239.358 1735.5 239.358 Q1741.13 239.358 1743.9 242.274 Q1746.68 245.191 1746.68 251.117 Z" fill="#000000" fill-rule="evenodd" fill-opacity="1" /><path clip-path="url(#clip310)" d="M1775.15 273.779 L1775.15 277.089 L1750.52 277.089 L1750.52 273.779 L1775.15 273.779 Z" fill="#000000" fill-rule="evenodd" fill-opacity="1" /><path clip-path="url(#clip310)" d="M1794.18 243.964 Q1793.46 243.548 1792.61 243.362 Q1791.77 243.154 1790.75 243.154 Q1787.14 243.154 1785.2 245.515 Q1783.28 247.853 1783.28 252.251 L1783.28 265.909 L1779 265.909 L1779 239.983 L1783.28 239.983 L1783.28 244.011 Q1784.62 241.649 1786.77 240.515 Q1788.93 239.358 1792 239.358 Q1792.44 239.358 1792.98 239.427 Q1793.51 239.474 1794.16 239.589 L1794.18 243.964 Z" fill="#000000" fill-rule="evenodd" fill-opacity="1" /><path clip-path="url(#clip310)" d="M1819.78 251.881 L1819.78 253.964 L1800.2 253.964 Q1800.48 258.362 1802.84 260.677 Q1805.22 262.969 1809.46 262.969 Q1811.91 262.969 1814.2 262.367 Q1816.52 261.765 1818.79 260.561 L1818.79 264.589 Q1816.5 265.561 1814.09 266.071 Q1811.68 266.58 1809.2 266.58 Q1803 266.58 1799.37 262.969 Q1795.75 259.358 1795.75 253.2 Q1795.75 246.835 1799.18 243.108 Q1802.63 239.358 1808.46 239.358 Q1813.69 239.358 1816.73 242.737 Q1819.78 246.094 1819.78 251.881 M1815.52 250.631 Q1815.48 247.136 1813.56 245.052 Q1811.66 242.969 1808.51 242.969 Q1804.94 242.969 1802.79 244.983 Q1800.66 246.997 1800.34 250.654 L1815.52 250.631 Z" fill="#000000" fill-rule="evenodd" fill-opacity="1" /><path clip-path="url(#clip310)" d="M1826.77 229.89 L1831.03 229.89 L1831.03 265.909 L1826.77 265.909 L1826.77 229.89 Z" fill="#000000" fill-rule="evenodd" fill-opacity="1" /><path clip-path="url(#clip310)" d="M1853.07 229.89 L1853.07 233.432 L1849 233.432 Q1846.7 233.432 1845.8 234.358 Q1844.92 235.284 1844.92 237.691 L1844.92 239.983 L1851.93 239.983 L1851.93 243.293 L1844.92 243.293 L1844.92 265.909 L1840.64 265.909 L1840.64 243.293 L1836.56 243.293 L1836.56 239.983 L1840.64 239.983 L1840.64 238.177 Q1840.64 233.849 1842.65 231.881 Q1844.67 229.89 1849.04 229.89 L1853.07 229.89 Z" fill="#000000" fill-rule="evenodd" fill-opacity="1" /><path clip-path="url(#clip310)" d="M1871.66 243.964 Q1870.94 243.548 1870.08 243.362 Q1869.25 243.154 1868.23 243.154 Q1864.62 243.154 1862.68 245.515 Q1860.75 247.853 1860.75 252.251 L1860.75 265.909 L1856.47 265.909 L1856.47 239.983 L1860.75 239.983 L1860.75 244.011 Q1862.1 241.649 1864.25 240.515 Q1866.4 239.358 1869.48 239.358 Q1869.92 239.358 1870.45 239.427 Q1870.99 239.474 1871.63 239.589 L1871.66 243.964 Z" fill="#000000" fill-rule="evenodd" fill-opacity="1" /><path clip-path="url(#clip310)" d="M1876.12 239.983 L1880.38 239.983 L1880.38 265.909 L1876.12 265.909 L1876.12 239.983 M1876.12 229.89 L1880.38 229.89 L1880.38 235.284 L1876.12 235.284 L1876.12 229.89 Z" fill="#000000" fill-rule="evenodd" fill-opacity="1" /><path clip-path="url(#clip310)" d="M1907.95 240.978 L1907.95 244.96 Q1906.15 243.964 1904.32 243.478 Q1902.51 242.969 1900.66 242.969 Q1896.52 242.969 1894.23 245.608 Q1891.93 248.224 1891.93 252.969 Q1891.93 257.714 1894.23 260.353 Q1896.52 262.969 1900.66 262.969 Q1902.51 262.969 1904.32 262.483 Q1906.15 261.973 1907.95 260.978 L1907.95 264.913 Q1906.17 265.747 1904.25 266.163 Q1902.35 266.58 1900.2 266.58 Q1894.34 266.58 1890.89 262.899 Q1887.44 259.219 1887.44 252.969 Q1887.44 246.626 1890.92 242.992 Q1894.41 239.358 1900.48 239.358 Q1902.44 239.358 1904.32 239.775 Q1906.19 240.168 1907.95 240.978 Z" fill="#000000" fill-rule="evenodd" fill-opacity="1" /><path clip-path="url(#clip310)" d="M1940.66 229.937 Q1937.56 235.261 1936.05 240.469 Q1934.55 245.677 1934.55 251.024 Q1934.55 256.372 1936.05 261.626 Q1937.58 266.858 1940.66 272.159 L1936.96 272.159 Q1933.49 266.719 1931.75 261.464 Q1930.04 256.21 1930.04 251.024 Q1930.04 245.862 1931.75 240.631 Q1933.46 235.4 1936.96 229.937 L1940.66 229.937 Z" fill="#000000" fill-rule="evenodd" fill-opacity="1" /><path clip-path="url(#clip310)" d="M1949.57 231.349 L1967.93 231.349 L1967.93 235.284 L1953.86 235.284 L1953.86 243.756 Q1954.87 243.409 1955.89 243.247 Q1956.91 243.062 1957.93 243.062 Q1963.72 243.062 1967.1 246.233 Q1970.48 249.404 1970.48 254.821 Q1970.48 260.399 1967 263.501 Q1963.53 266.58 1957.21 266.58 Q1955.04 266.58 1952.77 266.21 Q1950.52 265.839 1948.11 265.098 L1948.11 260.399 Q1950.2 261.534 1952.42 262.089 Q1954.64 262.645 1957.12 262.645 Q1961.12 262.645 1963.46 260.538 Q1965.8 258.432 1965.8 254.821 Q1965.8 251.21 1963.46 249.103 Q1961.12 246.997 1957.12 246.997 Q1955.24 246.997 1953.37 247.413 Q1951.52 247.83 1949.57 248.71 L1949.57 231.349 Z" fill="#000000" fill-rule="evenodd" fill-opacity="1" /><path clip-path="url(#clip310)" d="M1989.69 249.497 Q1986.36 249.497 1984.43 251.279 Q1982.54 253.061 1982.54 256.186 Q1982.54 259.311 1984.43 261.094 Q1986.36 262.876 1989.69 262.876 Q1993.02 262.876 1994.94 261.094 Q1996.86 259.288 1996.86 256.186 Q1996.86 253.061 1994.94 251.279 Q1993.05 249.497 1989.69 249.497 M1985.01 247.506 Q1982 246.765 1980.31 244.705 Q1978.65 242.645 1978.65 239.682 Q1978.65 235.538 1981.59 233.131 Q1984.55 230.724 1989.69 230.724 Q1994.85 230.724 1997.79 233.131 Q2000.73 235.538 2000.73 239.682 Q2000.73 242.645 1999.04 244.705 Q1997.37 246.765 1994.39 247.506 Q1997.77 248.293 1999.64 250.585 Q2001.54 252.876 2001.54 256.186 Q2001.54 261.21 1998.46 263.895 Q1995.41 266.58 1989.69 266.58 Q1983.97 266.58 1980.89 263.895 Q1977.84 261.21 1977.84 256.186 Q1977.84 252.876 1979.74 250.585 Q1981.63 248.293 1985.01 247.506 M1983.3 240.122 Q1983.3 242.807 1984.97 244.312 Q1986.66 245.816 1989.69 245.816 Q1992.7 245.816 1994.39 244.312 Q1996.1 242.807 1996.1 240.122 Q1996.1 237.437 1994.39 235.932 Q1992.7 234.427 1989.69 234.427 Q1986.66 234.427 1984.97 235.932 Q1983.3 237.437 1983.3 240.122 Z" fill="#000000" fill-rule="evenodd" fill-opacity="1" /><path clip-path="url(#clip310)" d="M2008.67 231.349 L2030.89 231.349 L2030.89 233.339 L2018.35 265.909 L2013.46 265.909 L2025.27 235.284 L2008.67 235.284 L2008.67 231.349 Z" fill="#000000" fill-rule="evenodd" fill-opacity="1" /><path clip-path="url(#clip310)" d="M2044.04 261.973 L2060.36 261.973 L2060.36 265.909 L2038.42 265.909 L2038.42 261.973 Q2041.08 259.219 2045.66 254.589 Q2050.27 249.936 2051.45 248.594 Q2053.69 246.071 2054.57 244.335 Q2055.48 242.575 2055.48 240.886 Q2055.48 238.131 2053.53 236.395 Q2051.61 234.659 2048.51 234.659 Q2046.31 234.659 2043.86 235.423 Q2041.42 236.187 2038.65 237.737 L2038.65 233.015 Q2041.47 231.881 2043.92 231.302 Q2046.38 230.724 2048.42 230.724 Q2053.79 230.724 2056.98 233.409 Q2060.17 236.094 2060.17 240.585 Q2060.17 242.714 2059.36 244.636 Q2058.58 246.534 2056.47 249.126 Q2055.89 249.798 2052.79 253.015 Q2049.69 256.21 2044.04 261.973 Z" fill="#000000" fill-rule="evenodd" fill-opacity="1" /><path clip-path="url(#clip310)" d="M2080.17 234.427 Q2076.56 234.427 2074.73 237.992 Q2072.93 241.534 2072.93 248.663 Q2072.93 255.77 2074.73 259.335 Q2076.56 262.876 2080.17 262.876 Q2083.81 262.876 2085.61 259.335 Q2087.44 255.77 2087.44 248.663 Q2087.44 241.534 2085.61 237.992 Q2083.81 234.427 2080.17 234.427 M2080.17 230.724 Q2085.98 230.724 2089.04 235.33 Q2092.12 239.913 2092.12 248.663 Q2092.12 257.39 2089.04 261.997 Q2085.98 266.58 2080.17 266.58 Q2074.36 266.58 2071.29 261.997 Q2068.23 257.39 2068.23 248.663 Q2068.23 239.913 2071.29 235.33 Q2074.36 230.724 2080.17 230.724 Z" fill="#000000" fill-rule="evenodd" fill-opacity="1" /><path clip-path="url(#clip310)" d="M2104.36 261.973 L2120.68 261.973 L2120.68 265.909 L2098.74 265.909 L2098.74 261.973 Q2101.4 259.219 2105.98 254.589 Q2110.59 249.936 2111.77 248.594 Q2114.02 246.071 2114.9 244.335 Q2115.8 242.575 2115.8 240.886 Q2115.8 238.131 2113.85 236.395 Q2111.93 234.659 2108.83 234.659 Q2106.63 234.659 2104.18 235.423 Q2101.75 236.187 2098.97 237.737 L2098.97 233.015 Q2101.79 231.881 2104.25 231.302 Q2106.7 230.724 2108.74 230.724 Q2114.11 230.724 2117.3 233.409 Q2120.5 236.094 2120.5 240.585 Q2120.5 242.714 2119.69 244.636 Q2118.9 246.534 2116.79 249.126 Q2116.22 249.798 2113.11 253.015 Q2110.01 256.21 2104.36 261.973 Z" fill="#000000" fill-rule="evenodd" fill-opacity="1" /><path clip-path="url(#clip310)" d="M2130.54 231.349 L2148.9 231.349 L2148.9 235.284 L2134.83 235.284 L2134.83 243.756 Q2135.85 243.409 2136.86 243.247 Q2137.88 243.062 2138.9 243.062 Q2144.69 243.062 2148.07 246.233 Q2151.45 249.404 2151.45 254.821 Q2151.45 260.399 2147.97 263.501 Q2144.5 266.58 2138.18 266.58 Q2136.01 266.58 2133.74 266.21 Q2131.49 265.839 2129.09 265.098 L2129.09 260.399 Q2131.17 261.534 2133.39 262.089 Q2135.61 262.645 2138.09 262.645 Q2142.1 262.645 2144.43 260.538 Q2146.77 258.432 2146.77 254.821 Q2146.77 251.21 2144.43 249.103 Q2142.1 246.997 2138.09 246.997 Q2136.22 246.997 2134.34 247.413 Q2132.49 247.83 2130.54 248.71 L2130.54 231.349 Z" fill="#000000" fill-rule="evenodd" fill-opacity="1" /><path clip-path="url(#clip310)" d="M2171.24 246.765 Q2168.09 246.765 2166.24 248.918 Q2164.41 251.071 2164.41 254.821 Q2164.41 258.548 2166.24 260.723 Q2168.09 262.876 2171.24 262.876 Q2174.39 262.876 2176.22 260.723 Q2178.07 258.548 2178.07 254.821 Q2178.07 251.071 2176.22 248.918 Q2174.39 246.765 2171.24 246.765 M2180.52 232.113 L2180.52 236.372 Q2178.76 235.538 2176.96 235.099 Q2175.17 234.659 2173.41 234.659 Q2168.79 234.659 2166.33 237.784 Q2163.9 240.909 2163.55 247.228 Q2164.92 245.214 2166.98 244.149 Q2169.04 243.062 2171.52 243.062 Q2176.72 243.062 2179.73 246.233 Q2182.77 249.381 2182.77 254.821 Q2182.77 260.145 2179.62 263.362 Q2176.47 266.58 2171.24 266.58 Q2165.24 266.58 2162.07 261.997 Q2158.9 257.39 2158.9 248.663 Q2158.9 240.469 2162.79 235.608 Q2166.68 230.724 2173.23 230.724 Q2174.99 230.724 2176.77 231.071 Q2178.58 231.418 2180.52 232.113 Z" fill="#000000" fill-rule="evenodd" fill-opacity="1" /><path clip-path="url(#clip310)" d="M2191.63 261.973 L2199.27 261.973 L2199.27 235.608 L2190.96 237.275 L2190.96 233.015 L2199.22 231.349 L2203.9 231.349 L2203.9 261.973 L2211.54 261.973 L2211.54 265.909 L2191.63 265.909 L2191.63 261.973 Z" fill="#000000" fill-rule="evenodd" fill-opacity="1" /><path clip-path="url(#clip310)" d="M2219.71 229.937 L2223.41 229.937 Q2226.89 235.4 2228.6 240.631 Q2230.34 245.862 2230.34 251.024 Q2230.34 256.21 2228.6 261.464 Q2226.89 266.719 2223.41 272.159 L2219.71 272.159 Q2222.79 266.858 2224.29 261.626 Q2225.82 256.372 2225.82 251.024 Q2225.82 245.677 2224.29 240.469 Q2222.79 235.261 2219.71 229.937 Z" fill="#000000" fill-rule="evenodd" fill-opacity="1" /><polyline clip-path="url(#clip310)" style="stroke:#c271d2; stroke-linecap:round; stroke-linejoin:round; stroke-width:4; stroke-opacity:1; fill:none" points="
  1415.15,300.469 1562.06,300.469 
  "/>
<path clip-path="url(#clip310)" d="M1606.89 296.8 Q1608.49 293.929 1610.71 292.564 Q1612.93 291.198 1615.94 291.198 Q1619.99 291.198 1622.19 294.045 Q1624.39 296.869 1624.39 302.101 L1624.39 317.749 L1620.11 317.749 L1620.11 302.239 Q1620.11 298.513 1618.79 296.707 Q1617.47 294.902 1614.76 294.902 Q1611.45 294.902 1609.53 297.101 Q1607.61 299.3 1607.61 303.096 L1607.61 317.749 L1603.33 317.749 L1603.33 302.239 Q1603.33 298.489 1602.01 296.707 Q1600.69 294.902 1597.93 294.902 Q1594.67 294.902 1592.75 297.124 Q1590.83 299.323 1590.83 303.096 L1590.83 317.749 L1586.54 317.749 L1586.54 291.823 L1590.83 291.823 L1590.83 295.851 Q1592.28 293.466 1594.32 292.332 Q1596.36 291.198 1599.16 291.198 Q1601.98 291.198 1603.95 292.633 Q1605.94 294.068 1606.89 296.8 Z" fill="#000000" fill-rule="evenodd" fill-opacity="1" /><path clip-path="url(#clip310)" d="M1644.67 304.716 Q1639.51 304.716 1637.51 305.897 Q1635.52 307.077 1635.52 309.925 Q1635.52 312.193 1637.01 313.536 Q1638.51 314.855 1641.08 314.855 Q1644.62 314.855 1646.75 312.355 Q1648.9 309.832 1648.9 305.665 L1648.9 304.716 L1644.67 304.716 M1653.16 302.957 L1653.16 317.749 L1648.9 317.749 L1648.9 313.813 Q1647.45 316.175 1645.27 317.309 Q1643.09 318.42 1639.95 318.42 Q1635.96 318.42 1633.6 316.198 Q1631.26 313.952 1631.26 310.202 Q1631.26 305.827 1634.18 303.605 Q1637.12 301.383 1642.93 301.383 L1648.9 301.383 L1648.9 300.966 Q1648.9 298.027 1646.96 296.429 Q1645.04 294.809 1641.54 294.809 Q1639.32 294.809 1637.21 295.341 Q1635.11 295.874 1633.16 296.939 L1633.16 293.003 Q1635.5 292.101 1637.7 291.661 Q1639.9 291.198 1641.98 291.198 Q1647.61 291.198 1650.39 294.114 Q1653.16 297.031 1653.16 302.957 Z" fill="#000000" fill-rule="evenodd" fill-opacity="1" /><path clip-path="url(#clip310)" d="M1678.46 292.587 L1678.46 296.614 Q1676.66 295.689 1674.71 295.226 Q1672.77 294.763 1670.69 294.763 Q1667.51 294.763 1665.92 295.735 Q1664.34 296.707 1664.34 298.651 Q1664.34 300.133 1665.48 300.989 Q1666.61 301.823 1670.04 302.587 L1671.5 302.911 Q1676.03 303.883 1677.93 305.665 Q1679.85 307.425 1679.85 310.596 Q1679.85 314.207 1676.98 316.313 Q1674.13 318.42 1669.13 318.42 Q1667.05 318.42 1664.78 318.003 Q1662.54 317.61 1660.04 316.8 L1660.04 312.401 Q1662.4 313.628 1664.69 314.253 Q1666.98 314.855 1669.23 314.855 Q1672.24 314.855 1673.86 313.837 Q1675.48 312.795 1675.48 310.92 Q1675.48 309.184 1674.3 308.258 Q1673.14 307.332 1669.18 306.476 L1667.7 306.128 Q1663.74 305.295 1661.98 303.582 Q1660.22 301.846 1660.22 298.837 Q1660.22 295.179 1662.82 293.189 Q1665.41 291.198 1670.18 291.198 Q1672.54 291.198 1674.62 291.545 Q1676.7 291.892 1678.46 292.587 Z" fill="#000000" fill-rule="evenodd" fill-opacity="1" /><path clip-path="url(#clip310)" d="M1703.16 292.587 L1703.16 296.614 Q1701.36 295.689 1699.41 295.226 Q1697.47 294.763 1695.38 294.763 Q1692.21 294.763 1690.62 295.735 Q1689.04 296.707 1689.04 298.651 Q1689.04 300.133 1690.18 300.989 Q1691.31 301.823 1694.74 302.587 L1696.19 302.911 Q1700.73 303.883 1702.63 305.665 Q1704.55 307.425 1704.55 310.596 Q1704.55 314.207 1701.68 316.313 Q1698.83 318.42 1693.83 318.42 Q1691.75 318.42 1689.48 318.003 Q1687.24 317.61 1684.74 316.8 L1684.74 312.401 Q1687.1 313.628 1689.39 314.253 Q1691.68 314.855 1693.93 314.855 Q1696.94 314.855 1698.56 313.837 Q1700.18 312.795 1700.18 310.92 Q1700.18 309.184 1699 308.258 Q1697.84 307.332 1693.88 306.476 L1692.4 306.128 Q1688.44 305.295 1686.68 303.582 Q1684.92 301.846 1684.92 298.837 Q1684.92 295.179 1687.51 293.189 Q1690.11 291.198 1694.88 291.198 Q1697.24 291.198 1699.32 291.545 Q1701.4 291.892 1703.16 292.587 Z" fill="#000000" fill-rule="evenodd" fill-opacity="1" /><path clip-path="url(#clip310)" d="M1711.94 311.869 L1716.82 311.869 L1716.82 317.749 L1711.94 317.749 L1711.94 311.869 Z" fill="#000000" fill-rule="evenodd" fill-opacity="1" /><path clip-path="url(#clip310)" d="M1739.53 281.73 L1739.53 285.272 L1735.45 285.272 Q1733.16 285.272 1732.26 286.198 Q1731.38 287.124 1731.38 289.531 L1731.38 291.823 L1738.39 291.823 L1738.39 295.133 L1731.38 295.133 L1731.38 317.749 L1727.1 317.749 L1727.1 295.133 L1723.02 295.133 L1723.02 291.823 L1727.1 291.823 L1727.1 290.017 Q1727.1 285.689 1729.11 283.721 Q1731.13 281.73 1735.5 281.73 L1739.53 281.73 Z" fill="#000000" fill-rule="evenodd" fill-opacity="1" /><path clip-path="url(#clip310)" d="M1768.39 281.777 Q1765.29 287.101 1763.79 292.309 Q1762.28 297.517 1762.28 302.864 Q1762.28 308.212 1763.79 313.466 Q1765.31 318.698 1768.39 323.999 L1764.69 323.999 Q1761.22 318.559 1759.48 313.304 Q1757.77 308.05 1757.77 302.864 Q1757.77 297.702 1759.48 292.471 Q1761.19 287.24 1764.69 281.777 L1768.39 281.777 Z" fill="#000000" fill-rule="evenodd" fill-opacity="1" /><path clip-path="url(#clip310)" d="M1787.84 298.605 Q1784.69 298.605 1782.84 300.758 Q1781.01 302.911 1781.01 306.661 Q1781.01 310.388 1782.84 312.563 Q1784.69 314.716 1787.84 314.716 Q1790.99 314.716 1792.81 312.563 Q1794.67 310.388 1794.67 306.661 Q1794.67 302.911 1792.81 300.758 Q1790.99 298.605 1787.84 298.605 M1797.12 283.953 L1797.12 288.212 Q1795.36 287.378 1793.56 286.939 Q1791.77 286.499 1790.01 286.499 Q1785.38 286.499 1782.93 289.624 Q1780.5 292.749 1780.15 299.068 Q1781.52 297.054 1783.58 295.989 Q1785.64 294.902 1788.12 294.902 Q1793.32 294.902 1796.33 298.073 Q1799.37 301.221 1799.37 306.661 Q1799.37 311.985 1796.22 315.202 Q1793.07 318.42 1787.84 318.42 Q1781.84 318.42 1778.67 313.837 Q1775.5 309.23 1775.5 300.503 Q1775.5 292.309 1779.39 287.448 Q1783.28 282.564 1789.83 282.564 Q1791.59 282.564 1793.37 282.911 Q1795.18 283.258 1797.12 283.953 Z" fill="#000000" fill-rule="evenodd" fill-opacity="1" /><path clip-path="url(#clip310)" d="M1821.59 299.114 Q1824.94 299.832 1826.82 302.101 Q1828.72 304.369 1828.72 307.702 Q1828.72 312.818 1825.2 315.619 Q1821.68 318.42 1815.2 318.42 Q1813.02 318.42 1810.71 317.98 Q1808.42 317.563 1805.96 316.707 L1805.96 312.193 Q1807.91 313.327 1810.22 313.906 Q1812.54 314.485 1815.06 314.485 Q1819.46 314.485 1821.75 312.749 Q1824.06 311.013 1824.06 307.702 Q1824.06 304.647 1821.91 302.934 Q1819.78 301.198 1815.96 301.198 L1811.94 301.198 L1811.94 297.355 L1816.15 297.355 Q1819.6 297.355 1821.43 295.989 Q1823.25 294.601 1823.25 292.008 Q1823.25 289.346 1821.36 287.934 Q1819.48 286.499 1815.96 286.499 Q1814.04 286.499 1811.84 286.915 Q1809.64 287.332 1807 288.212 L1807 284.045 Q1809.67 283.304 1811.98 282.934 Q1814.32 282.564 1816.38 282.564 Q1821.7 282.564 1824.81 284.994 Q1827.91 287.402 1827.91 291.522 Q1827.91 294.392 1826.26 296.383 Q1824.62 298.351 1821.59 299.114 Z" fill="#000000" fill-rule="evenodd" fill-opacity="1" /><path clip-path="url(#clip310)" d="M1836.4 283.189 L1858.62 283.189 L1858.62 285.179 L1846.08 317.749 L1841.19 317.749 L1853 287.124 L1836.4 287.124 L1836.4 283.189 Z" fill="#000000" fill-rule="evenodd" fill-opacity="1" /><path clip-path="url(#clip310)" d="M1867.79 283.189 L1886.15 283.189 L1886.15 287.124 L1872.07 287.124 L1872.07 295.596 Q1873.09 295.249 1874.11 295.087 Q1875.13 294.902 1876.15 294.902 Q1881.93 294.902 1885.31 298.073 Q1888.69 301.244 1888.69 306.661 Q1888.69 312.239 1885.22 315.341 Q1881.75 318.42 1875.43 318.42 Q1873.25 318.42 1870.99 318.05 Q1868.74 317.679 1866.33 316.938 L1866.33 312.239 Q1868.42 313.374 1870.64 313.929 Q1872.86 314.485 1875.34 314.485 Q1879.34 314.485 1881.68 312.378 Q1884.02 310.272 1884.02 306.661 Q1884.02 303.05 1881.68 300.943 Q1879.34 298.837 1875.34 298.837 Q1873.46 298.837 1871.59 299.253 Q1869.74 299.67 1867.79 300.55 L1867.79 283.189 Z" fill="#000000" fill-rule="evenodd" fill-opacity="1" /><path clip-path="url(#clip310)" d="M1912.07 299.114 Q1915.43 299.832 1917.3 302.101 Q1919.2 304.369 1919.2 307.702 Q1919.2 312.818 1915.68 315.619 Q1912.17 318.42 1905.68 318.42 Q1903.51 318.42 1901.19 317.98 Q1898.9 317.563 1896.45 316.707 L1896.45 312.193 Q1898.39 313.327 1900.71 313.906 Q1903.02 314.485 1905.55 314.485 Q1909.94 314.485 1912.24 312.749 Q1914.55 311.013 1914.55 307.702 Q1914.55 304.647 1912.4 302.934 Q1910.27 301.198 1906.45 301.198 L1902.42 301.198 L1902.42 297.355 L1906.63 297.355 Q1910.08 297.355 1911.91 295.989 Q1913.74 294.601 1913.74 292.008 Q1913.74 289.346 1911.84 287.934 Q1909.97 286.499 1906.45 286.499 Q1904.53 286.499 1902.33 286.915 Q1900.13 287.332 1897.49 288.212 L1897.49 284.045 Q1900.15 283.304 1902.47 282.934 Q1904.8 282.564 1906.87 282.564 Q1912.19 282.564 1915.29 284.994 Q1918.39 287.402 1918.39 291.522 Q1918.39 294.392 1916.75 296.383 Q1915.11 298.351 1912.07 299.114 Z" fill="#000000" fill-rule="evenodd" fill-opacity="1" /><path clip-path="url(#clip310)" d="M1940.92 287.263 L1929.11 305.712 L1940.92 305.712 L1940.92 287.263 M1939.69 283.189 L1945.57 283.189 L1945.57 305.712 L1950.5 305.712 L1950.5 309.601 L1945.57 309.601 L1945.57 317.749 L1940.92 317.749 L1940.92 309.601 L1925.31 309.601 L1925.31 305.087 L1939.69 283.189 Z" fill="#000000" fill-rule="evenodd" fill-opacity="1" /><path clip-path="url(#clip310)" d="M1962.26 313.813 L1978.58 313.813 L1978.58 317.749 L1956.63 317.749 L1956.63 313.813 Q1959.3 311.059 1963.88 306.429 Q1968.49 301.776 1969.67 300.434 Q1971.91 297.911 1972.79 296.175 Q1973.69 294.415 1973.69 292.726 Q1973.69 289.971 1971.75 288.235 Q1969.83 286.499 1966.73 286.499 Q1964.53 286.499 1962.07 287.263 Q1959.64 288.027 1956.86 289.577 L1956.86 284.855 Q1959.69 283.721 1962.14 283.142 Q1964.6 282.564 1966.63 282.564 Q1972 282.564 1975.2 285.249 Q1978.39 287.934 1978.39 292.425 Q1978.39 294.554 1977.58 296.476 Q1976.8 298.374 1974.69 300.966 Q1974.11 301.638 1971.01 304.855 Q1967.91 308.05 1962.26 313.813 Z" fill="#000000" fill-rule="evenodd" fill-opacity="1" /><path clip-path="url(#clip310)" d="M1989.2 313.813 L1996.84 313.813 L1996.84 287.448 L1988.53 289.115 L1988.53 284.855 L1996.8 283.189 L2001.47 283.189 L2001.47 313.813 L2009.11 313.813 L2009.11 317.749 L1989.2 317.749 L1989.2 313.813 Z" fill="#000000" fill-rule="evenodd" fill-opacity="1" /><path clip-path="url(#clip310)" d="M2019.36 313.813 L2027 313.813 L2027 287.448 L2018.69 289.115 L2018.69 284.855 L2026.96 283.189 L2031.63 283.189 L2031.63 313.813 L2039.27 313.813 L2039.27 317.749 L2019.36 317.749 L2019.36 313.813 Z" fill="#000000" fill-rule="evenodd" fill-opacity="1" /><path clip-path="url(#clip310)" d="M2047.44 281.777 L2051.15 281.777 Q2054.62 287.24 2056.33 292.471 Q2058.07 297.702 2058.07 302.864 Q2058.07 308.05 2056.33 313.304 Q2054.62 318.559 2051.15 323.999 L2047.44 323.999 Q2050.52 318.698 2052.03 313.466 Q2053.55 308.212 2053.55 302.864 Q2053.55 297.517 2052.03 292.309 Q2050.52 287.101 2047.44 281.777 Z" fill="#000000" fill-rule="evenodd" fill-opacity="1" /></svg>
