<?xml version="1.0" encoding="utf-8"?>
<svg xmlns="http://www.w3.org/2000/svg" xmlns:xlink="http://www.w3.org/1999/xlink" width="600" height="400" viewBox="0 0 2400 1600">
<defs>
  <clipPath id="clip520">
    <rect x="0" y="0" width="2400" height="1600"/>
  </clipPath>
</defs>
<path clip-path="url(#clip520)" d="
M0 1600 L2400 1600 L2400 0 L0 0  Z
  " fill="#ffffff" fill-rule="evenodd" fill-opacity="1"/>
<defs>
  <clipPath id="clip521">
    <rect x="480" y="0" width="1681" height="1600"/>
  </clipPath>
</defs>
<path clip-path="url(#clip520)" d="
M245.309 1401.58 L2352.76 1401.58 L2352.76 123.472 L245.309 123.472  Z
  " fill="#ffffff" fill-rule="evenodd" fill-opacity="1"/>
<defs>
  <clipPath id="clip522">
    <rect x="245" y="123" width="2108" height="1279"/>
  </clipPath>
</defs>
<polyline clip-path="url(#clip522)" style="stroke:#000000; stroke-linecap:round; stroke-linejoin:round; stroke-width:2; stroke-opacity:0.1; fill:none" points="
  456.054,1401.58 456.054,123.472 
  "/>
<polyline clip-path="url(#clip522)" style="stroke:#000000; stroke-linecap:round; stroke-linejoin:round; stroke-width:2; stroke-opacity:0.1; fill:none" points="
  877.543,1401.58 877.543,123.472 
  "/>
<polyline clip-path="url(#clip522)" style="stroke:#000000; stroke-linecap:round; stroke-linejoin:round; stroke-width:2; stroke-opacity:0.1; fill:none" points="
  1299.03,1401.58 1299.03,123.472 
  "/>
<polyline clip-path="url(#clip522)" style="stroke:#000000; stroke-linecap:round; stroke-linejoin:round; stroke-width:2; stroke-opacity:0.1; fill:none" points="
  1720.52,1401.58 1720.52,123.472 
  "/>
<polyline clip-path="url(#clip522)" style="stroke:#000000; stroke-linecap:round; stroke-linejoin:round; stroke-width:2; stroke-opacity:0.1; fill:none" points="
  2142.01,1401.58 2142.01,123.472 
  "/>
<polyline clip-path="url(#clip520)" style="stroke:#000000; stroke-linecap:round; stroke-linejoin:round; stroke-width:4; stroke-opacity:1; fill:none" points="
  245.309,1401.58 2352.76,1401.58 
  "/>
<polyline clip-path="url(#clip520)" style="stroke:#000000; stroke-linecap:round; stroke-linejoin:round; stroke-width:4; stroke-opacity:1; fill:none" points="
  456.054,1401.58 456.054,1382.68 
  "/>
<polyline clip-path="url(#clip520)" style="stroke:#000000; stroke-linecap:round; stroke-linejoin:round; stroke-width:4; stroke-opacity:1; fill:none" points="
  877.543,1401.58 877.543,1382.68 
  "/>
<polyline clip-path="url(#clip520)" style="stroke:#000000; stroke-linecap:round; stroke-linejoin:round; stroke-width:4; stroke-opacity:1; fill:none" points="
  1299.03,1401.58 1299.03,1382.68 
  "/>
<polyline clip-path="url(#clip520)" style="stroke:#000000; stroke-linecap:round; stroke-linejoin:round; stroke-width:4; stroke-opacity:1; fill:none" points="
  1720.52,1401.58 1720.52,1382.68 
  "/>
<polyline clip-path="url(#clip520)" style="stroke:#000000; stroke-linecap:round; stroke-linejoin:round; stroke-width:4; stroke-opacity:1; fill:none" points="
  2142.01,1401.58 2142.01,1382.68 
  "/>
<path clip-path="url(#clip520)" d="M375.846 1460.34 L420.359 1460.34 L420.359 1466.24 L375.846 1466.24 L375.846 1460.34 Z" fill="#000000" fill-rule="evenodd" fill-opacity="1" /><path clip-path="url(#clip520)" d="M436.713 1479.68 L448.172 1479.68 L448.172 1440.13 L435.706 1442.63 L435.706 1436.24 L448.102 1433.74 L455.116 1433.74 L455.116 1479.68 L466.574 1479.68 L466.574 1485.58 L436.713 1485.58 L436.713 1479.68 Z" fill="#000000" fill-rule="evenodd" fill-opacity="1" /><path clip-path="url(#clip520)" d="M480.741 1476.76 L488.067 1476.76 L488.067 1485.58 L480.741 1485.58 L480.741 1476.76 Z" fill="#000000" fill-rule="evenodd" fill-opacity="1" /><path clip-path="url(#clip520)" d="M518.345 1438.36 Q512.928 1438.36 510.185 1443.71 Q507.477 1449.02 507.477 1459.71 Q507.477 1470.37 510.185 1475.72 Q512.928 1481.03 518.345 1481.03 Q523.796 1481.03 526.505 1475.72 Q529.248 1470.37 529.248 1459.71 Q529.248 1449.02 526.505 1443.71 Q523.796 1438.36 518.345 1438.36 M518.345 1432.8 Q527.06 1432.8 531.643 1439.71 Q536.261 1446.59 536.261 1459.71 Q536.261 1472.8 531.643 1479.71 Q527.06 1486.59 518.345 1486.59 Q509.63 1486.59 505.012 1479.71 Q500.428 1472.8 500.428 1459.71 Q500.428 1446.59 505.012 1439.71 Q509.63 1432.8 518.345 1432.8 Z" fill="#000000" fill-rule="evenodd" fill-opacity="1" /><path clip-path="url(#clip520)" d="M798.082 1460.34 L842.595 1460.34 L842.595 1466.24 L798.082 1466.24 L798.082 1460.34 Z" fill="#000000" fill-rule="evenodd" fill-opacity="1" /><path clip-path="url(#clip520)" d="M872.734 1438.36 Q867.317 1438.36 864.574 1443.71 Q861.866 1449.02 861.866 1459.71 Q861.866 1470.37 864.574 1475.72 Q867.317 1481.03 872.734 1481.03 Q878.185 1481.03 880.894 1475.72 Q883.637 1470.37 883.637 1459.71 Q883.637 1449.02 880.894 1443.71 Q878.185 1438.36 872.734 1438.36 M872.734 1432.8 Q881.449 1432.8 886.032 1439.71 Q890.651 1446.59 890.651 1459.71 Q890.651 1472.8 886.032 1479.71 Q881.449 1486.59 872.734 1486.59 Q864.019 1486.59 859.401 1479.71 Q854.817 1472.8 854.817 1459.71 Q854.817 1446.59 859.401 1439.71 Q864.019 1432.8 872.734 1432.8 Z" fill="#000000" fill-rule="evenodd" fill-opacity="1" /><path clip-path="url(#clip520)" d="M902.977 1476.76 L910.303 1476.76 L910.303 1485.58 L902.977 1485.58 L902.977 1476.76 Z" fill="#000000" fill-rule="evenodd" fill-opacity="1" /><path clip-path="url(#clip520)" d="M925.65 1433.74 L953.185 1433.74 L953.185 1439.64 L932.074 1439.64 L932.074 1452.35 Q933.602 1451.83 935.129 1451.59 Q936.657 1451.31 938.185 1451.31 Q946.866 1451.31 951.935 1456.07 Q957.004 1460.82 957.004 1468.95 Q957.004 1477.32 951.796 1481.97 Q946.588 1486.59 937.109 1486.59 Q933.845 1486.59 930.442 1486.03 Q927.074 1485.48 923.463 1484.36 L923.463 1477.32 Q926.588 1479.02 929.921 1479.85 Q933.254 1480.68 936.97 1480.68 Q942.977 1480.68 946.484 1477.52 Q949.99 1474.36 949.99 1468.95 Q949.99 1463.53 946.484 1460.37 Q942.977 1457.21 936.97 1457.21 Q934.157 1457.21 931.345 1457.84 Q928.567 1458.46 925.65 1459.78 L925.65 1433.74 Z" fill="#000000" fill-rule="evenodd" fill-opacity="1" /><path clip-path="url(#clip520)" d="M1265.11 1438.36 Q1259.69 1438.36 1256.95 1443.71 Q1254.24 1449.02 1254.24 1459.71 Q1254.24 1470.37 1256.95 1475.72 Q1259.69 1481.03 1265.11 1481.03 Q1270.56 1481.03 1273.27 1475.72 Q1276.01 1470.37 1276.01 1459.71 Q1276.01 1449.02 1273.27 1443.71 Q1270.56 1438.36 1265.11 1438.36 M1265.11 1432.8 Q1273.82 1432.8 1278.41 1439.71 Q1283.03 1446.59 1283.03 1459.71 Q1283.03 1472.8 1278.41 1479.71 Q1273.82 1486.59 1265.11 1486.59 Q1256.39 1486.59 1251.78 1479.71 Q1247.19 1472.8 1247.19 1459.71 Q1247.19 1446.59 1251.78 1439.71 Q1256.39 1432.8 1265.11 1432.8 Z" fill="#000000" fill-rule="evenodd" fill-opacity="1" /><path clip-path="url(#clip520)" d="M1295.35 1476.76 L1302.68 1476.76 L1302.68 1485.58 L1295.35 1485.58 L1295.35 1476.76 Z" fill="#000000" fill-rule="evenodd" fill-opacity="1" /><path clip-path="url(#clip520)" d="M1332.96 1438.36 Q1327.54 1438.36 1324.8 1443.71 Q1322.09 1449.02 1322.09 1459.71 Q1322.09 1470.37 1324.8 1475.72 Q1327.54 1481.03 1332.96 1481.03 Q1338.41 1481.03 1341.12 1475.72 Q1343.86 1470.37 1343.86 1459.71 Q1343.86 1449.02 1341.12 1443.71 Q1338.41 1438.36 1332.96 1438.36 M1332.96 1432.8 Q1341.67 1432.8 1346.25 1439.71 Q1350.87 1446.59 1350.87 1459.71 Q1350.87 1472.8 1346.25 1479.71 Q1341.67 1486.59 1332.96 1486.59 Q1324.24 1486.59 1319.62 1479.71 Q1315.04 1472.8 1315.04 1459.71 Q1315.04 1446.59 1319.62 1439.71 Q1324.24 1432.8 1332.96 1432.8 Z" fill="#000000" fill-rule="evenodd" fill-opacity="1" /><path clip-path="url(#clip520)" d="M1687.34 1438.36 Q1681.93 1438.36 1679.19 1443.71 Q1676.48 1449.02 1676.48 1459.71 Q1676.48 1470.37 1679.19 1475.72 Q1681.93 1481.03 1687.34 1481.03 Q1692.8 1481.03 1695.5 1475.72 Q1698.25 1470.37 1698.25 1459.71 Q1698.25 1449.02 1695.5 1443.71 Q1692.8 1438.36 1687.34 1438.36 M1687.34 1432.8 Q1696.06 1432.8 1700.64 1439.71 Q1705.26 1446.59 1705.26 1459.71 Q1705.26 1472.8 1700.64 1479.71 Q1696.06 1486.59 1687.34 1486.59 Q1678.63 1486.59 1674.01 1479.71 Q1669.43 1472.8 1669.43 1459.71 Q1669.43 1446.59 1674.01 1439.71 Q1678.63 1432.8 1687.34 1432.8 Z" fill="#000000" fill-rule="evenodd" fill-opacity="1" /><path clip-path="url(#clip520)" d="M1717.59 1476.76 L1724.91 1476.76 L1724.91 1485.58 L1717.59 1485.58 L1717.59 1476.76 Z" fill="#000000" fill-rule="evenodd" fill-opacity="1" /><path clip-path="url(#clip520)" d="M1740.26 1433.74 L1767.8 1433.74 L1767.8 1439.64 L1746.68 1439.64 L1746.68 1452.35 Q1748.21 1451.83 1749.74 1451.59 Q1751.27 1451.31 1752.8 1451.31 Q1761.48 1451.31 1766.55 1456.07 Q1771.62 1460.82 1771.62 1468.95 Q1771.62 1477.32 1766.41 1481.97 Q1761.2 1486.59 1751.72 1486.59 Q1748.46 1486.59 1745.05 1486.03 Q1741.68 1485.48 1738.07 1484.36 L1738.07 1477.32 Q1741.2 1479.02 1744.53 1479.85 Q1747.87 1480.68 1751.58 1480.68 Q1757.59 1480.68 1761.09 1477.52 Q1764.6 1474.36 1764.6 1468.95 Q1764.6 1463.53 1761.09 1460.37 Q1757.59 1457.21 1751.58 1457.21 Q1748.77 1457.21 1745.96 1457.84 Q1743.18 1458.46 1740.26 1459.78 L1740.26 1433.74 Z" fill="#000000" fill-rule="evenodd" fill-opacity="1" /><path clip-path="url(#clip520)" d="M2092.74 1479.68 L2104.2 1479.68 L2104.2 1440.13 L2091.73 1442.63 L2091.73 1436.24 L2104.13 1433.74 L2111.14 1433.74 L2111.14 1479.68 L2122.6 1479.68 L2122.6 1485.58 L2092.74 1485.58 L2092.74 1479.68 Z" fill="#000000" fill-rule="evenodd" fill-opacity="1" /><path clip-path="url(#clip520)" d="M2136.77 1476.76 L2144.09 1476.76 L2144.09 1485.58 L2136.77 1485.58 L2136.77 1476.76 Z" fill="#000000" fill-rule="evenodd" fill-opacity="1" /><path clip-path="url(#clip520)" d="M2174.37 1438.36 Q2168.96 1438.36 2166.21 1443.71 Q2163.5 1449.02 2163.5 1459.71 Q2163.5 1470.37 2166.21 1475.72 Q2168.96 1481.03 2174.37 1481.03 Q2179.82 1481.03 2182.53 1475.72 Q2185.27 1470.37 2185.27 1459.71 Q2185.27 1449.02 2182.53 1443.71 Q2179.82 1438.36 2174.37 1438.36 M2174.37 1432.8 Q2183.09 1432.8 2187.67 1439.71 Q2192.29 1446.59 2192.29 1459.71 Q2192.29 1472.8 2187.67 1479.71 Q2183.09 1486.59 2174.37 1486.59 Q2165.66 1486.59 2161.04 1479.71 Q2156.46 1472.8 2156.46 1459.71 Q2156.46 1446.59 2161.04 1439.71 Q2165.66 1432.8 2174.37 1432.8 Z" fill="#000000" fill-rule="evenodd" fill-opacity="1" /><path clip-path="url(#clip520)" d="M1177.92 1538.66 L1184.69 1538.66 L1196.85 1571.3 L1209 1538.66 L1215.77 1538.66 L1201.19 1577.55 L1192.51 1577.55 L1177.92 1538.66 Z" fill="#000000" fill-rule="evenodd" fill-opacity="1" /><path clip-path="url(#clip520)" d="M1246.6 1523.52 L1261.32 1523.52 L1261.32 1528.49 L1252.99 1528.49 L1252.99 1581.96 L1261.32 1581.96 L1261.32 1586.92 L1246.6 1586.92 L1246.6 1523.52 Z" fill="#000000" fill-rule="evenodd" fill-opacity="1" /><path clip-path="url(#clip520)" d="M1305.21 1546.12 Q1307.61 1541.82 1310.94 1539.77 Q1314.28 1537.72 1318.79 1537.72 Q1324.87 1537.72 1328.16 1541.99 Q1331.46 1546.23 1331.46 1554.08 L1331.46 1577.55 L1325.04 1577.55 L1325.04 1554.28 Q1325.04 1548.69 1323.06 1545.99 Q1321.08 1543.28 1317.02 1543.28 Q1312.05 1543.28 1309.17 1546.58 Q1306.29 1549.87 1306.29 1555.57 L1306.29 1577.55 L1299.87 1577.55 L1299.87 1554.28 Q1299.87 1548.66 1297.89 1545.99 Q1295.91 1543.28 1291.78 1543.28 Q1286.88 1543.28 1284 1546.61 Q1281.12 1549.91 1281.12 1555.57 L1281.12 1577.55 L1274.69 1577.55 L1274.69 1538.66 L1281.12 1538.66 L1281.12 1544.7 Q1283.3 1541.12 1286.36 1539.42 Q1289.41 1537.72 1293.62 1537.72 Q1297.85 1537.72 1300.8 1539.87 Q1303.79 1542.03 1305.21 1546.12 Z" fill="#000000" fill-rule="evenodd" fill-opacity="1" /><path clip-path="url(#clip520)" d="M1355.56 1525.71 L1361.46 1525.71 L1343.41 1584.15 L1337.5 1584.15 L1355.56 1525.71 Z" fill="#000000" fill-rule="evenodd" fill-opacity="1" /><path clip-path="url(#clip520)" d="M1392.96 1539.8 L1392.96 1545.85 Q1390.25 1544.46 1387.33 1543.76 Q1384.41 1543.07 1381.29 1543.07 Q1376.53 1543.07 1374.14 1544.53 Q1371.78 1545.99 1371.78 1548.9 Q1371.78 1551.12 1373.48 1552.41 Q1375.18 1553.66 1380.32 1554.8 L1382.5 1555.29 Q1389.31 1556.75 1392.16 1559.42 Q1395.04 1562.06 1395.04 1566.82 Q1395.04 1572.24 1390.73 1575.4 Q1386.46 1578.55 1378.96 1578.55 Q1375.84 1578.55 1372.43 1577.93 Q1369.07 1577.34 1365.32 1576.12 L1365.32 1569.53 Q1368.86 1571.37 1372.3 1572.3 Q1375.73 1573.21 1379.1 1573.21 Q1383.62 1573.21 1386.05 1571.68 Q1388.48 1570.12 1388.48 1567.3 Q1388.48 1564.7 1386.71 1563.31 Q1384.97 1561.92 1379.03 1560.64 L1376.81 1560.12 Q1370.87 1558.87 1368.23 1556.3 Q1365.59 1553.69 1365.59 1549.18 Q1365.59 1543.69 1369.48 1540.71 Q1373.37 1537.72 1380.52 1537.72 Q1384.07 1537.72 1387.19 1538.24 Q1390.32 1538.76 1392.96 1539.8 Z" fill="#000000" fill-rule="evenodd" fill-opacity="1" /><path clip-path="url(#clip520)" d="M1420.14 1523.52 L1420.14 1586.92 L1405.42 1586.92 L1405.42 1581.96 L1413.72 1581.96 L1413.72 1528.49 L1405.42 1528.49 L1405.42 1523.52 L1420.14 1523.52 Z" fill="#000000" fill-rule="evenodd" fill-opacity="1" /><polyline clip-path="url(#clip522)" style="stroke:#000000; stroke-linecap:round; stroke-linejoin:round; stroke-width:2; stroke-opacity:0.1; fill:none" points="
  245.309,1274.39 2352.76,1274.39 
  "/>
<polyline clip-path="url(#clip522)" style="stroke:#000000; stroke-linecap:round; stroke-linejoin:round; stroke-width:2; stroke-opacity:0.1; fill:none" points="
  245.309,1086.88 2352.76,1086.88 
  "/>
<polyline clip-path="url(#clip522)" style="stroke:#000000; stroke-linecap:round; stroke-linejoin:round; stroke-width:2; stroke-opacity:0.1; fill:none" points="
  245.309,899.365 2352.76,899.365 
  "/>
<polyline clip-path="url(#clip522)" style="stroke:#000000; stroke-linecap:round; stroke-linejoin:round; stroke-width:2; stroke-opacity:0.1; fill:none" points="
  245.309,711.851 2352.76,711.851 
  "/>
<polyline clip-path="url(#clip522)" style="stroke:#000000; stroke-linecap:round; stroke-linejoin:round; stroke-width:2; stroke-opacity:0.1; fill:none" points="
  245.309,524.336 2352.76,524.336 
  "/>
<polyline clip-path="url(#clip522)" style="stroke:#000000; stroke-linecap:round; stroke-linejoin:round; stroke-width:2; stroke-opacity:0.1; fill:none" points="
  245.309,336.822 2352.76,336.822 
  "/>
<polyline clip-path="url(#clip522)" style="stroke:#000000; stroke-linecap:round; stroke-linejoin:round; stroke-width:2; stroke-opacity:0.1; fill:none" points="
  245.309,149.308 2352.76,149.308 
  "/>
<polyline clip-path="url(#clip520)" style="stroke:#000000; stroke-linecap:round; stroke-linejoin:round; stroke-width:4; stroke-opacity:1; fill:none" points="
  245.309,1401.58 245.309,123.472 
  "/>
<polyline clip-path="url(#clip520)" style="stroke:#000000; stroke-linecap:round; stroke-linejoin:round; stroke-width:4; stroke-opacity:1; fill:none" points="
  245.309,1274.39 264.206,1274.39 
  "/>
<polyline clip-path="url(#clip520)" style="stroke:#000000; stroke-linecap:round; stroke-linejoin:round; stroke-width:4; stroke-opacity:1; fill:none" points="
  245.309,1086.88 264.206,1086.88 
  "/>
<polyline clip-path="url(#clip520)" style="stroke:#000000; stroke-linecap:round; stroke-linejoin:round; stroke-width:4; stroke-opacity:1; fill:none" points="
  245.309,899.365 264.206,899.365 
  "/>
<polyline clip-path="url(#clip520)" style="stroke:#000000; stroke-linecap:round; stroke-linejoin:round; stroke-width:4; stroke-opacity:1; fill:none" points="
  245.309,711.851 264.206,711.851 
  "/>
<polyline clip-path="url(#clip520)" style="stroke:#000000; stroke-linecap:round; stroke-linejoin:round; stroke-width:4; stroke-opacity:1; fill:none" points="
  245.309,524.336 264.206,524.336 
  "/>
<polyline clip-path="url(#clip520)" style="stroke:#000000; stroke-linecap:round; stroke-linejoin:round; stroke-width:4; stroke-opacity:1; fill:none" points="
  245.309,336.822 264.206,336.822 
  "/>
<polyline clip-path="url(#clip520)" style="stroke:#000000; stroke-linecap:round; stroke-linejoin:round; stroke-width:4; stroke-opacity:1; fill:none" points="
  245.309,149.308 264.206,149.308 
  "/>
<path clip-path="url(#clip520)" d="M119.136 1275.07 L163.649 1275.07 L163.649 1280.97 L119.136 1280.97 L119.136 1275.07 Z" fill="#000000" fill-rule="evenodd" fill-opacity="1" /><path clip-path="url(#clip520)" d="M184.83 1294.41 L209.309 1294.41 L209.309 1300.31 L176.392 1300.31 L176.392 1294.41 Q180.385 1290.28 187.26 1283.33 Q194.17 1276.36 195.941 1274.34 Q199.309 1270.56 200.628 1267.95 Q201.982 1265.31 201.982 1262.78 Q201.982 1258.65 199.066 1256.04 Q196.184 1253.44 191.531 1253.44 Q188.233 1253.44 184.552 1254.58 Q180.906 1255.73 176.74 1258.06 L176.74 1250.97 Q180.976 1249.27 184.656 1248.4 Q188.337 1247.54 191.392 1247.54 Q199.448 1247.54 204.239 1251.56 Q209.031 1255.59 209.031 1262.33 Q209.031 1265.52 207.816 1268.4 Q206.635 1271.25 203.476 1275.14 Q202.607 1276.15 197.955 1280.97 Q193.302 1285.76 184.83 1294.41 Z" fill="#000000" fill-rule="evenodd" fill-opacity="1" /><path clip-path="url(#clip520)" d="M118.58 1087.56 L163.094 1087.56 L163.094 1093.46 L118.58 1093.46 L118.58 1087.56 Z" fill="#000000" fill-rule="evenodd" fill-opacity="1" /><path clip-path="url(#clip520)" d="M179.448 1106.9 L190.906 1106.9 L190.906 1067.35 L178.441 1069.85 L178.441 1063.46 L190.837 1060.96 L197.851 1060.96 L197.851 1106.9 L209.309 1106.9 L209.309 1112.8 L179.448 1112.8 L179.448 1106.9 Z" fill="#000000" fill-rule="evenodd" fill-opacity="1" /><path clip-path="url(#clip520)" d="M191.392 878.063 Q185.976 878.063 183.233 883.41 Q180.524 888.722 180.524 899.417 Q180.524 910.077 183.233 915.424 Q185.976 920.736 191.392 920.736 Q196.844 920.736 199.552 915.424 Q202.295 910.077 202.295 899.417 Q202.295 888.722 199.552 883.41 Q196.844 878.063 191.392 878.063 M191.392 872.507 Q200.107 872.507 204.691 879.417 Q209.309 886.292 209.309 899.417 Q209.309 912.507 204.691 919.417 Q200.107 926.292 191.392 926.292 Q182.677 926.292 178.059 919.417 Q173.476 912.507 173.476 899.417 Q173.476 886.292 178.059 879.417 Q182.677 872.507 191.392 872.507 Z" fill="#000000" fill-rule="evenodd" fill-opacity="1" /><path clip-path="url(#clip520)" d="M179.448 731.868 L190.906 731.868 L190.906 692.319 L178.441 694.819 L178.441 688.431 L190.837 685.931 L197.851 685.931 L197.851 731.868 L209.309 731.868 L209.309 737.771 L179.448 737.771 L179.448 731.868 Z" fill="#000000" fill-rule="evenodd" fill-opacity="1" /><path clip-path="url(#clip520)" d="M184.83 544.354 L209.309 544.354 L209.309 550.256 L176.392 550.256 L176.392 544.354 Q180.385 540.222 187.26 533.277 Q194.17 526.298 195.941 524.284 Q199.309 520.5 200.628 517.895 Q201.982 515.257 201.982 512.722 Q201.982 508.59 199.066 505.986 Q196.184 503.382 191.531 503.382 Q188.233 503.382 184.552 504.527 Q180.906 505.673 176.74 508 L176.74 500.916 Q180.976 499.215 184.656 498.347 Q188.337 497.479 191.392 497.479 Q199.448 497.479 204.239 501.507 Q209.031 505.534 209.031 512.27 Q209.031 515.465 207.816 518.347 Q206.635 521.194 203.476 525.083 Q202.607 526.09 197.955 530.916 Q193.302 535.708 184.83 544.354 Z" fill="#000000" fill-rule="evenodd" fill-opacity="1" /><path clip-path="url(#clip520)" d="M198.614 334.791 Q203.649 335.867 206.462 339.27 Q209.309 342.673 209.309 347.673 Q209.309 355.346 204.031 359.548 Q198.753 363.749 189.031 363.749 Q185.767 363.749 182.295 363.089 Q178.858 362.464 175.177 361.18 L175.177 354.409 Q178.094 356.11 181.566 356.978 Q185.038 357.846 188.823 357.846 Q195.42 357.846 198.858 355.242 Q202.33 352.638 202.33 347.673 Q202.33 343.089 199.101 340.52 Q195.906 337.916 190.177 337.916 L184.135 337.916 L184.135 332.152 L190.455 332.152 Q195.628 332.152 198.371 330.103 Q201.114 328.02 201.114 324.131 Q201.114 320.138 198.267 318.02 Q195.455 315.867 190.177 315.867 Q187.295 315.867 183.996 316.492 Q180.698 317.117 176.74 318.437 L176.74 312.187 Q180.733 311.076 184.205 310.52 Q187.712 309.965 190.802 309.965 Q198.788 309.965 203.441 313.61 Q208.094 317.221 208.094 323.402 Q208.094 327.708 205.628 330.694 Q203.163 333.645 198.614 334.791 Z" fill="#000000" fill-rule="evenodd" fill-opacity="1" /><path clip-path="url(#clip520)" d="M194.934 129.499 L177.226 157.172 L194.934 157.172 L194.934 129.499 M193.094 123.388 L201.913 123.388 L201.913 157.172 L209.309 157.172 L209.309 163.006 L201.913 163.006 L201.913 175.228 L194.934 175.228 L194.934 163.006 L171.531 163.006 L171.531 156.235 L193.094 123.388 Z" fill="#000000" fill-rule="evenodd" fill-opacity="1" /><path clip-path="url(#clip520)" d="M13.0007 1025.04 L18.3131 1025.04 L18.3131 1031.15 Q18.3131 1034.59 19.702 1035.94 Q21.0909 1037.26 24.702 1037.26 L28.1395 1037.26 L28.1395 1026.74 L33.1047 1026.74 L33.1047 1037.26 L67.0282 1037.26 L67.0282 1043.69 L33.1047 1043.69 L33.1047 1049.8 L28.1395 1049.8 L28.1395 1043.69 L25.4312 1043.69 Q18.9381 1043.69 15.9868 1040.67 Q13.0007 1037.65 13.0007 1031.08 L13.0007 1025.04 Z" fill="#000000" fill-rule="evenodd" fill-opacity="1" /><path clip-path="url(#clip520)" d="M34.1117 997.16 Q33.4867 998.237 33.2089 999.521 Q32.8964 1000.77 32.8964 1002.3 Q32.8964 1007.72 36.438 1010.63 Q39.945 1013.51 46.5422 1013.51 L67.0282 1013.51 L67.0282 1019.94 L28.1395 1019.94 L28.1395 1013.51 L34.1811 1013.51 Q30.6395 1011.5 28.9381 1008.27 Q27.202 1005.04 27.202 1000.42 Q27.202 999.764 27.3061 998.966 Q27.3756 998.167 27.5492 997.195 L34.1117 997.16 Z" fill="#000000" fill-rule="evenodd" fill-opacity="1" /><path clip-path="url(#clip520)" d="M28.1395 990.459 L28.1395 984.07 L67.0282 984.07 L67.0282 990.459 L28.1395 990.459 M13.0007 990.459 L13.0007 984.07 L21.0909 984.07 L21.0909 990.459 L13.0007 990.459 Z" fill="#000000" fill-rule="evenodd" fill-opacity="1" /><path clip-path="url(#clip520)" d="M29.6325 942.716 L35.6047 942.716 Q34.1117 945.424 33.3825 948.167 Q32.6186 950.876 32.6186 953.653 Q32.6186 959.869 36.5769 963.306 Q40.5005 966.744 47.6185 966.744 Q54.7366 966.744 58.6949 963.306 Q62.6185 959.869 62.6185 953.653 Q62.6185 950.876 61.8893 948.167 Q61.1254 945.424 59.6324 942.716 L65.5351 942.716 Q66.7851 945.39 67.4101 948.272 Q68.0351 951.119 68.0351 954.348 Q68.0351 963.133 62.5143 968.306 Q56.9935 973.48 47.6185 973.48 Q38.1047 973.48 32.6533 968.271 Q27.202 963.028 27.202 953.931 Q27.202 950.98 27.827 948.167 Q28.4173 945.355 29.6325 942.716 Z" fill="#000000" fill-rule="evenodd" fill-opacity="1" /><path clip-path="url(#clip520)" d="M17.0979 925.286 L28.1395 925.286 L28.1395 912.126 L33.1047 912.126 L33.1047 925.286 L54.2157 925.286 Q58.9726 925.286 60.3268 924.001 Q61.681 922.681 61.681 918.688 L61.681 912.126 L67.0282 912.126 L67.0282 918.688 Q67.0282 926.084 64.2851 928.897 Q61.5074 931.709 54.2157 931.709 L33.1047 931.709 L33.1047 936.397 L28.1395 936.397 L28.1395 931.709 L17.0979 931.709 L17.0979 925.286 Z" fill="#000000" fill-rule="evenodd" fill-opacity="1" /><path clip-path="url(#clip520)" d="M28.1395 903.723 L28.1395 897.334 L67.0282 897.334 L67.0282 903.723 L28.1395 903.723 M13.0007 903.723 L13.0007 897.334 L21.0909 897.334 L21.0909 903.723 L13.0007 903.723 Z" fill="#000000" fill-rule="evenodd" fill-opacity="1" /><path clip-path="url(#clip520)" d="M32.6186 868.897 Q32.6186 874.036 36.6464 877.022 Q40.6394 880.008 47.6185 880.008 Q54.5977 880.008 58.6254 877.057 Q62.6185 874.071 62.6185 868.897 Q62.6185 863.793 58.5907 860.807 Q54.5629 857.821 47.6185 857.821 Q40.7089 857.821 36.6811 860.807 Q32.6186 863.793 32.6186 868.897 M27.202 868.897 Q27.202 860.564 32.6186 855.807 Q38.0353 851.05 47.6185 851.05 Q57.1671 851.05 62.6185 855.807 Q68.0351 860.564 68.0351 868.897 Q68.0351 877.265 62.6185 882.022 Q57.1671 886.744 47.6185 886.744 Q38.0353 886.744 32.6186 882.022 Q27.202 877.265 27.202 868.897 Z" fill="#000000" fill-rule="evenodd" fill-opacity="1" /><path clip-path="url(#clip520)" d="M43.5561 808.133 L67.0282 808.133 L67.0282 814.522 L43.7644 814.522 Q38.2436 814.522 35.5005 816.675 Q32.7575 818.828 32.7575 823.133 Q32.7575 828.307 36.0561 831.293 Q39.3547 834.279 45.0491 834.279 L67.0282 834.279 L67.0282 840.703 L28.1395 840.703 L28.1395 834.279 L34.1811 834.279 Q30.6742 831.987 28.9381 828.897 Q27.202 825.772 27.202 821.71 Q27.202 815.008 31.3686 811.571 Q35.5005 808.133 43.5561 808.133 Z" fill="#000000" fill-rule="evenodd" fill-opacity="1" /><path clip-path="url(#clip520)" d="M13.0007 753.099 L18.3131 753.099 L18.3131 759.21 Q18.3131 762.648 19.702 764.002 Q21.0909 765.321 24.702 765.321 L28.1395 765.321 L28.1395 754.8 L33.1047 754.8 L33.1047 765.321 L67.0282 765.321 L67.0282 771.745 L33.1047 771.745 L33.1047 777.856 L28.1395 777.856 L28.1395 771.745 L25.4312 771.745 Q18.9381 771.745 15.9868 768.724 Q13.0007 765.703 13.0007 759.141 L13.0007 753.099 Z" fill="#000000" fill-rule="evenodd" fill-opacity="1" /><path clip-path="url(#clip520)" d="M32.6186 732.682 Q32.6186 737.821 36.6464 740.807 Q40.6394 743.793 47.6185 743.793 Q54.5977 743.793 58.6254 740.842 Q62.6185 737.856 62.6185 732.682 Q62.6185 727.578 58.5907 724.592 Q54.5629 721.606 47.6185 721.606 Q40.7089 721.606 36.6811 724.592 Q32.6186 727.578 32.6186 732.682 M27.202 732.682 Q27.202 724.349 32.6186 719.592 Q38.0353 714.835 47.6185 714.835 Q57.1671 714.835 62.6185 719.592 Q68.0351 724.349 68.0351 732.682 Q68.0351 741.05 62.6185 745.807 Q57.1671 750.53 47.6185 750.53 Q38.0353 750.53 32.6186 745.807 Q27.202 741.05 27.202 732.682 Z" fill="#000000" fill-rule="evenodd" fill-opacity="1" /><path clip-path="url(#clip520)" d="M34.1117 681.71 Q33.4867 682.787 33.2089 684.072 Q32.8964 685.322 32.8964 686.849 Q32.8964 692.266 36.438 695.183 Q39.945 698.065 46.5422 698.065 L67.0282 698.065 L67.0282 704.488 L28.1395 704.488 L28.1395 698.065 L34.1811 698.065 Q30.6395 696.051 28.9381 692.821 Q27.202 689.592 27.202 684.974 Q27.202 684.315 27.3061 683.516 Q27.3756 682.717 27.5492 681.745 L34.1117 681.71 Z" fill="#000000" fill-rule="evenodd" fill-opacity="1" /><path clip-path="url(#clip520)" d="M29.6325 648.586 L35.6047 648.586 Q34.1117 651.294 33.3825 654.037 Q32.6186 656.745 32.6186 659.523 Q32.6186 665.738 36.5769 669.176 Q40.5005 672.613 47.6185 672.613 Q54.7366 672.613 58.6949 669.176 Q62.6185 665.738 62.6185 659.523 Q62.6185 656.745 61.8893 654.037 Q61.1254 651.294 59.6324 648.586 L65.5351 648.586 Q66.7851 651.259 67.4101 654.141 Q68.0351 656.988 68.0351 660.218 Q68.0351 669.002 62.5143 674.176 Q56.9935 679.349 47.6185 679.349 Q38.1047 679.349 32.6533 674.141 Q27.202 668.898 27.202 659.801 Q27.202 656.849 27.827 654.037 Q28.4173 651.224 29.6325 648.586 Z" fill="#000000" fill-rule="evenodd" fill-opacity="1" /><path clip-path="url(#clip520)" d="M45.9866 604.211 L49.1116 604.211 L49.1116 633.586 Q55.7088 633.169 59.181 629.627 Q62.6185 626.051 62.6185 619.697 Q62.6185 616.016 61.7157 612.579 Q60.8129 609.107 59.0074 605.704 L65.049 605.704 Q66.5073 609.141 67.2712 612.752 Q68.0351 616.364 68.0351 620.079 Q68.0351 629.384 62.6185 634.836 Q57.2018 640.252 47.9658 640.252 Q38.4172 640.252 32.827 635.113 Q27.202 629.94 27.202 621.19 Q27.202 613.343 32.2714 608.794 Q37.3061 604.211 45.9866 604.211 M44.1116 610.6 Q38.8686 610.669 35.7436 613.551 Q32.6186 616.398 32.6186 621.12 Q32.6186 626.468 35.6394 629.697 Q38.6603 632.891 44.1463 633.377 L44.1116 610.6 Z" fill="#000000" fill-rule="evenodd" fill-opacity="1" /><path clip-path="url(#clip520)" d="M13.0007 571.711 L13.0007 556.989 L17.9659 556.989 L17.9659 565.322 L71.4379 565.322 L71.4379 556.989 L76.4031 556.989 L76.4031 571.711 L13.0007 571.711 Z" fill="#000000" fill-rule="evenodd" fill-opacity="1" /><path clip-path="url(#clip520)" d="M15.1882 543.1 L15.1882 533.656 L58.556 510.67 L15.1882 510.67 L15.1882 503.864 L67.0282 503.864 L67.0282 513.309 L23.6603 536.295 L67.0282 536.295 L67.0282 543.1 L15.1882 543.1 Z" fill="#000000" fill-rule="evenodd" fill-opacity="1" /><path clip-path="url(#clip520)" d="M13.0007 475.253 L76.4031 475.253 L76.4031 489.975 L71.4379 489.975 L71.4379 481.677 L17.9659 481.677 L17.9659 489.975 L13.0007 489.975 L13.0007 475.253 Z" fill="#000000" fill-rule="evenodd" fill-opacity="1" /><path clip-path="url(#clip520)" d="M973.643 12.096 L1008.4 12.096 L1008.4 18.9825 L981.826 18.9825 L981.826 36.8065 L1005.81 36.8065 L1005.81 43.6931 L981.826 43.6931 L981.826 72.576 L973.643 72.576 L973.643 12.096 Z" fill="#000000" fill-rule="evenodd" fill-opacity="1" /><path clip-path="url(#clip520)" d="M1041.29 34.1734 Q1040.04 33.4443 1038.54 33.1202 Q1037.08 32.7556 1035.3 32.7556 Q1028.98 32.7556 1025.58 36.8875 Q1022.21 40.9789 1022.21 48.6757 L1022.21 72.576 L1014.72 72.576 L1014.72 27.2059 L1022.21 27.2059 L1022.21 34.2544 Q1024.56 30.1225 1028.33 28.1376 Q1032.1 26.1121 1037.49 26.1121 Q1038.26 26.1121 1039.19 26.2337 Q1040.12 26.3147 1041.25 26.5172 L1041.29 34.1734 Z" fill="#000000" fill-rule="evenodd" fill-opacity="1" /><path clip-path="url(#clip520)" d="M1049.11 27.2059 L1056.57 27.2059 L1056.57 72.576 L1049.11 72.576 L1049.11 27.2059 M1049.11 9.54393 L1056.57 9.54393 L1056.57 18.9825 L1049.11 18.9825 L1049.11 9.54393 Z" fill="#000000" fill-rule="evenodd" fill-opacity="1" /><path clip-path="url(#clip520)" d="M1104.81 28.9478 L1104.81 35.9153 Q1101.65 34.1734 1098.45 33.3227 Q1095.29 32.4315 1092.05 32.4315 Q1084.8 32.4315 1080.79 37.0496 Q1076.78 41.6271 1076.78 49.9314 Q1076.78 58.2358 1080.79 62.8538 Q1084.8 67.4314 1092.05 67.4314 Q1095.29 67.4314 1098.45 66.5807 Q1101.65 65.6895 1104.81 63.9476 L1104.81 70.8341 Q1101.69 72.2924 1098.33 73.0216 Q1095.01 73.7508 1091.24 73.7508 Q1080.99 73.7508 1074.96 67.3098 Q1068.92 60.8689 1068.92 49.9314 Q1068.92 38.832 1075 32.472 Q1081.11 26.1121 1091.73 26.1121 Q1095.17 26.1121 1098.45 26.8413 Q1101.73 27.5299 1104.81 28.9478 Z" fill="#000000" fill-rule="evenodd" fill-opacity="1" /><path clip-path="url(#clip520)" d="M1125.15 14.324 L1125.15 27.2059 L1140.5 27.2059 L1140.5 32.9987 L1125.15 32.9987 L1125.15 57.6282 Q1125.15 63.1779 1126.65 64.7578 Q1128.19 66.3376 1132.84 66.3376 L1140.5 66.3376 L1140.5 72.576 L1132.84 72.576 Q1124.22 72.576 1120.93 69.3758 Q1117.65 66.1351 1117.65 57.6282 L1117.65 32.9987 L1112.18 32.9987 L1112.18 27.2059 L1117.65 27.2059 L1117.65 14.324 L1125.15 14.324 Z" fill="#000000" fill-rule="evenodd" fill-opacity="1" /><path clip-path="url(#clip520)" d="M1150.3 27.2059 L1157.76 27.2059 L1157.76 72.576 L1150.3 72.576 L1150.3 27.2059 M1150.3 9.54393 L1157.76 9.54393 L1157.76 18.9825 L1150.3 18.9825 L1150.3 9.54393 Z" fill="#000000" fill-rule="evenodd" fill-opacity="1" /><path clip-path="url(#clip520)" d="M1190.93 32.4315 Q1184.94 32.4315 1181.45 37.1306 Q1177.97 41.7891 1177.97 49.9314 Q1177.97 58.0738 1181.41 62.7728 Q1184.9 67.4314 1190.93 67.4314 Q1196.89 67.4314 1200.37 62.7323 Q1203.86 58.0333 1203.86 49.9314 Q1203.86 41.8701 1200.37 37.1711 Q1196.89 32.4315 1190.93 32.4315 M1190.93 26.1121 Q1200.66 26.1121 1206.21 32.4315 Q1211.76 38.7509 1211.76 49.9314 Q1211.76 61.0714 1206.21 67.4314 Q1200.66 73.7508 1190.93 73.7508 Q1181.17 73.7508 1175.62 67.4314 Q1170.11 61.0714 1170.11 49.9314 Q1170.11 38.7509 1175.62 32.4315 Q1181.17 26.1121 1190.93 26.1121 Z" fill="#000000" fill-rule="evenodd" fill-opacity="1" /><path clip-path="url(#clip520)" d="M1261.82 45.1919 L1261.82 72.576 L1254.37 72.576 L1254.37 45.4349 Q1254.37 38.994 1251.86 35.7938 Q1249.35 32.5936 1244.32 32.5936 Q1238.29 32.5936 1234.81 36.4419 Q1231.32 40.2903 1231.32 46.9338 L1231.32 72.576 L1223.83 72.576 L1223.83 27.2059 L1231.32 27.2059 L1231.32 34.2544 Q1234 30.163 1237.6 28.1376 Q1241.25 26.1121 1245.99 26.1121 Q1253.8 26.1121 1257.81 30.9732 Q1261.82 35.7938 1261.82 45.1919 Z" fill="#000000" fill-rule="evenodd" fill-opacity="1" /><path clip-path="url(#clip520)" d="M1338.39 35.9153 Q1341.18 30.8922 1345.07 28.5022 Q1348.96 26.1121 1354.23 26.1121 Q1361.32 26.1121 1365.16 31.0947 Q1369.01 36.0368 1369.01 45.1919 L1369.01 72.576 L1361.52 72.576 L1361.52 45.4349 Q1361.52 38.913 1359.21 35.7533 Q1356.9 32.5936 1352.16 32.5936 Q1346.37 32.5936 1343 36.4419 Q1339.64 40.2903 1339.64 46.9338 L1339.64 72.576 L1332.15 72.576 L1332.15 45.4349 Q1332.15 38.8725 1329.84 35.7533 Q1327.53 32.5936 1322.71 32.5936 Q1317 32.5936 1313.64 36.4824 Q1310.27 40.3308 1310.27 46.9338 L1310.27 72.576 L1302.78 72.576 L1302.78 27.2059 L1310.27 27.2059 L1310.27 34.2544 Q1312.83 30.082 1316.39 28.0971 Q1319.96 26.1121 1324.86 26.1121 Q1329.8 26.1121 1333.24 28.6237 Q1336.73 31.1352 1338.39 35.9153 Z" fill="#000000" fill-rule="evenodd" fill-opacity="1" /><path clip-path="url(#clip520)" d="M1401.46 32.4315 Q1395.46 32.4315 1391.98 37.1306 Q1388.5 41.7891 1388.5 49.9314 Q1388.5 58.0738 1391.94 62.7728 Q1395.42 67.4314 1401.46 67.4314 Q1407.41 67.4314 1410.9 62.7323 Q1414.38 58.0333 1414.38 49.9314 Q1414.38 41.8701 1410.9 37.1711 Q1407.41 32.4315 1401.46 32.4315 M1401.46 26.1121 Q1411.18 26.1121 1416.73 32.4315 Q1422.28 38.7509 1422.28 49.9314 Q1422.28 61.0714 1416.73 67.4314 Q1411.18 73.7508 1401.46 73.7508 Q1391.7 73.7508 1386.15 67.4314 Q1380.64 61.0714 1380.64 49.9314 Q1380.64 38.7509 1386.15 32.4315 Q1391.7 26.1121 1401.46 26.1121 Z" fill="#000000" fill-rule="evenodd" fill-opacity="1" /><path clip-path="url(#clip520)" d="M1464.49 34.0924 L1464.49 9.54393 L1471.95 9.54393 L1471.95 72.576 L1464.49 72.576 L1464.49 65.7705 Q1462.14 69.8214 1458.54 71.8063 Q1454.97 73.7508 1449.95 73.7508 Q1441.73 73.7508 1436.54 67.1883 Q1431.4 60.6258 1431.4 49.9314 Q1431.4 39.2371 1436.54 32.6746 Q1441.73 26.1121 1449.95 26.1121 Q1454.97 26.1121 1458.54 28.0971 Q1462.14 30.0415 1464.49 34.0924 M1439.09 49.9314 Q1439.09 58.1548 1442.45 62.8538 Q1445.86 67.5124 1451.77 67.5124 Q1457.69 67.5124 1461.09 62.8538 Q1464.49 58.1548 1464.49 49.9314 Q1464.49 41.7081 1461.09 37.0496 Q1457.69 32.3505 1451.77 32.3505 Q1445.86 32.3505 1442.45 37.0496 Q1439.09 41.7081 1439.09 49.9314 Z" fill="#000000" fill-rule="evenodd" fill-opacity="1" /><path clip-path="url(#clip520)" d="M1526.11 48.0275 L1526.11 51.6733 L1491.84 51.6733 Q1492.32 59.3701 1496.45 63.421 Q1500.63 67.4314 1508.04 67.4314 Q1512.33 67.4314 1516.34 66.3781 Q1520.39 65.3249 1524.36 63.2184 L1524.36 70.267 Q1520.35 71.9684 1516.14 72.8596 Q1511.93 73.7508 1507.59 73.7508 Q1496.74 73.7508 1490.38 67.4314 Q1484.06 61.1119 1484.06 50.3365 Q1484.06 39.1965 1490.05 32.6746 Q1496.09 26.1121 1506.3 26.1121 Q1515.45 26.1121 1520.76 32.0264 Q1526.11 37.9003 1526.11 48.0275 M1518.65 45.84 Q1518.57 39.7232 1515.21 36.0774 Q1511.89 32.4315 1506.38 32.4315 Q1500.14 32.4315 1496.37 35.9558 Q1492.65 39.4801 1492.08 45.8805 L1518.65 45.84 Z" fill="#000000" fill-rule="evenodd" fill-opacity="1" /><path clip-path="url(#clip520)" d="M1538.34 9.54393 L1545.79 9.54393 L1545.79 72.576 L1538.34 72.576 L1538.34 9.54393 Z" fill="#000000" fill-rule="evenodd" fill-opacity="1" /><path clip-path="url(#clip520)" d="M1595.86 65.6895 L1624.42 65.6895 L1624.42 72.576 L1586.02 72.576 L1586.02 65.6895 Q1590.68 60.8689 1598.7 52.7671 Q1606.76 44.6248 1608.83 42.2752 Q1612.75 37.8598 1614.29 34.8216 Q1615.87 31.7429 1615.87 28.7857 Q1615.87 23.9651 1612.47 20.927 Q1609.11 17.8888 1603.68 17.8888 Q1599.83 17.8888 1595.54 19.2256 Q1591.28 20.5624 1586.42 23.2765 L1586.42 15.0127 Q1591.37 13.0277 1595.66 12.015 Q1599.95 11.0023 1603.52 11.0023 Q1612.92 11.0023 1618.51 15.7013 Q1624.1 20.4004 1624.1 28.2591 Q1624.1 31.9859 1622.68 35.3482 Q1621.3 38.6699 1617.62 43.2069 Q1616.6 44.3817 1611.17 50.0125 Q1605.75 55.6027 1595.86 65.6895 Z" fill="#000000" fill-rule="evenodd" fill-opacity="1" /><polyline clip-path="url(#clip522)" style="stroke:#009af9; stroke-linecap:round; stroke-linejoin:round; stroke-width:8; stroke-opacity:1; fill:none" points="
  1299.03,899.365 1335.02,899.365 1371.26,899.365 1407.71,899.365 1444.3,899.365 1480.98,899.365 1517.72,899.365 1554.42,899.365 1591.06,899.365 1627.57,899.365 
  1663.92,899.365 1700.04,899.365 1735.89,899.365 1771.42,899.365 1806.58,899.365 1841.33,899.365 1875.61,899.365 1909.39,899.365 1942.62,899.365 1975.27,899.365 
  2007.29,899.365 2038.64,899.365 2069.3,899.365 2099.22,899.365 2128.36,899.365 2156.71,899.365 2184.24,899.365 2210.91,899.365 2236.69,899.365 2261.54,899.365 
  2285.44,899.365 2308.34,899.365 2330.29,899.365 2351.22,899.365 2371.1,899.365 2389.91,899.365 2407.62,899.365 2424.21,899.365 2439.69,899.365 2454.04,899.365 
  2467.24,899.365 2479.27,899.365 2490.11,899.365 2499.76,899.365 2508.2,899.365 2515.44,899.365 2521.46,899.365 2526.25,899.365 2529.82,899.365 2532.15,899.365 
  2533.24,899.365 2533.1,899.365 2531.72,899.365 2529.11,899.365 2525.26,899.365 2520.19,899.365 2513.89,899.365 2506.38,899.365 2497.66,899.365 2487.74,899.365 
  2476.62,899.365 2464.33,899.365 2450.87,899.365 2436.26,899.365 2420.51,899.365 2403.62,899.365 2385.63,899.365 2366.55,899.365 2346.39,899.365 2325.18,899.365 
  2302.94,899.365 2279.68,899.365 2255.42,899.365 2230.19,899.365 2204.02,899.365 2176.92,899.365 2148.93,899.365 2120.07,899.365 2090.34,899.365 2059.8,899.365 
  2028.45,899.365 1996.34,899.365 1963.48,899.365 1929.92,899.365 1895.65,899.365 1860.71,899.365 1825.13,899.365 1788.94,899.365 1752.17,899.365 1714.84,899.365 
  1676.98,899.365 1638.58,899.365 1599.67,899.365 1560.29,899.365 1520.46,899.365 1480.21,899.365 1439.54,899.365 1398.5,899.365 1357.09,899.365 1315.35,899.365 
  1280.89,899.365 1251.04,899.365 1221,899.365 1190.81,899.365 1160.52,899.365 1130.16,899.365 1099.79,899.365 1069.43,899.365 1039.14,899.365 1008.95,899.365 
  978.914,899.365 949.068,899.365 919.455,899.365 890.112,899.365 861.067,899.365 832.368,899.365 804.056,899.365 776.172,899.365 748.743,899.365 721.777,899.365 
  695.334,899.365 669.449,899.365 644.159,899.365 619.491,899.365 595.433,899.365 572.045,899.365 549.36,899.365 527.407,899.365 506.212,899.365 485.757,899.365 
  466.095,899.365 447.254,899.365 429.26,899.365 412.137,899.365 395.854,899.365 380.463,899.365 365.985,899.365 352.442,899.365 339.854,899.365 328.188,899.365 
  317.484,899.365 307.76,899.365 299.032,899.365 291.317,899.365 284.582,899.365 278.851,899.365 274.141,899.365 270.463,899.365 267.828,899.365 266.207,899.365 
  265.604,899.365 266.039,899.365 267.515,899.365 270.038,899.365 273.581,899.365 278.134,899.365 283.712,899.365 290.317,899.365 297.948,899.365 306.578,899.365 
  316.186,899.365 326.784,899.365 338.368,899.365 350.931,899.365 364.451,899.365 378.893,899.365 394.267,899.365 410.564,899.365 427.773,899.365 445.872,899.365 
  464.819,899.365 484.62,899.365 505.261,899.365 526.727,899.365 548.998,899.365 572.029,899.365 595.819,899.365 620.351,899.365 645.607,899.365 671.568,899.365 
  698.19,899.365 725.467,899.365 753.379,899.365 781.906,899.365 811.027,899.365 840.711,899.365 870.944,899.365 901.703,899.365 932.967,899.365 964.716,899.365 
  996.939,899.365 1029.61,899.365 1062.71,899.365 1096.22,899.365 1130.12,899.365 1164.37,899.365 1198.93,899.365 1233.8,899.365 1268.95,899.365 1302.52,899.365 
  1325.84,899.365 1349.32,899.365 1372.93,899.365 1396.63,899.365 1420.42,899.365 1444.24,899.365 1468.08,899.365 1491.89,899.365 1515.65,899.365 1539.33,899.365 
  1562.88,899.365 1586.29,899.365 1609.53,899.365 1632.55,899.365 1655.35,899.365 1677.88,899.365 1700.11,899.365 1722.02,899.365 1743.58,899.365 1764.75,899.365 
  1785.53,899.365 1805.88,899.365 1825.77,899.365 1845.18,899.365 1864.09,899.365 1882.48,899.365 1900.33,899.365 1917.61,899.365 1934.3,899.365 1950.38,899.365 
  1965.84,899.365 1980.67,899.365 1994.82,899.365 2008.29,899.365 2021.09,899.365 2033.19,899.365 2044.55,899.365 2055.18,899.365 2065.08,899.365 2074.24,899.365 
  2082.63,899.365 2090.26,899.365 2097.1,899.365 2103.14,899.365 2108.38,899.365 2112.79,899.365 2116.43,899.365 2119.26,899.365 2121.28,899.365 2122.47,899.365 
  2122.83,899.365 2122.36,899.365 2121.05,899.365 2118.91,899.365 2115.97,899.365 2112.21,899.365 2107.63,899.365 2102.23,899.365 2096.02,899.365 2089,899.365 
  2081.18,899.365 2072.56,899.365 2063.16,899.365 2052.98,899.365 2042.03,899.365 2030.32,899.365 2017.87,899.365 2004.67,899.365 1990.75,899.365 1976.11,899.365 
  1960.77,899.365 1944.73,899.365 1928.02,899.365 1910.66,899.365 1892.65,899.365 1874.01,899.365 1854.76,899.365 1834.89,899.365 1814.44,899.365 1793.43,899.365 
  1771.86,899.365 1749.76,899.365 1727.15,899.365 1704.05,899.365 1680.45,899.365 1656.38,899.365 1631.85,899.365 1606.89,899.365 1581.51,899.365 1555.74,899.365 
  1529.59,899.365 1503.08,899.365 1476.23,899.365 1449.05,899.365 1421.56,899.365 1393.79,899.365 1365.75,899.365 1337.46,899.365 1308.95,899.365 1288.31,899.365 
  1271.83,899.365 1255.25,899.365 1238.58,899.365 1221.83,899.365 1205.05,899.365 1188.22,899.365 1171.39,899.365 1154.58,899.365 1137.8,899.365 1121.07,899.365 
  1104.42,899.365 1087.86,899.365 1071.41,899.365 1055.1,899.365 1038.96,899.365 1022.99,899.365 1007.21,899.365 991.665,899.365 976.351,899.365 961.287,899.365 
  946.498,899.365 932.004,899.365 917.825,899.365 903.983,899.365 890.487,899.365 877.334,899.365 864.56,899.365 852.182,899.365 840.219,899.365 828.689,899.365 
  817.603,899.365 806.939,899.365 796.737,899.365 787.014,899.365 777.783,899.365 769.06,899.365 760.858,899.365 753.142,899.365 745.953,899.365 739.303,899.365 
  733.204,899.365 727.668,899.365 722.705,899.365 718.28,899.365 714.42,899.365 711.139,899.365 708.445,899.365 706.345,899.365 704.849,899.365 703.924,899.365 
  703.58,899.365 703.832,899.365 704.686,899.365 706.145,899.365 708.213,899.365 710.867,899.365 714.095,899.365 717.916,899.365 722.332,899.365 727.343,899.365 
  732.948,899.365 739.131,899.365 745.864,899.365 753.167,899.365 761.037,899.365 769.472,899.365 778.468,899.365 788.013,899.365 798.068,899.365 808.652,899.365 
  819.758,899.365 831.382,899.365 843.516,899.365 856.152,899.365 869.246,899.365 882.814,899.365 896.845,899.365 911.333,899.365 926.267,899.365 941.639,899.365 
  957.413,899.365 973.592,899.365 990.167,899.365 1007.13,899.365 1024.46,899.365 1042.16,899.365 1060.2,899.365 1078.58,899.365 1097.28,899.365 1116.29,899.365 
  1135.6,899.365 1155.2,899.365 1175.08,899.365 1195.22,899.365 1215.62,899.365 1236.26,899.365 1257.14,899.365 1278.23,899.365 1299.21,899.365 1308.01,899.365 
  1316.88,899.365 
  "/>
<polyline clip-path="url(#clip522)" style="stroke:#e26f46; stroke-linecap:round; stroke-linejoin:round; stroke-width:8; stroke-opacity:1; fill:none" points="
  1299.03,758.729 1335.02,766.002 1371.26,772.691 1407.71,778.83 1444.3,784.446 1480.98,789.576 1517.72,794.249 1554.42,798.494 1591.06,802.345 1627.57,805.83 
  1663.92,808.979 1700.04,811.817 1735.89,814.371 1771.42,816.664 1806.58,818.72 1841.33,820.559 1875.61,822.2 1909.39,823.663 1942.62,824.964 1975.27,826.119 
  2007.29,827.141 2038.64,828.045 2069.3,828.841 2099.22,829.542 2128.36,830.156 2156.71,830.693 2184.24,831.162 2210.91,831.569 2236.69,831.922 2261.54,832.226 
  2285.44,832.486 2308.34,832.709 2330.29,832.899 2351.22,833.06 2371.1,833.194 2389.91,833.307 2407.62,833.4 2424.21,833.476 2439.69,833.538 2454.04,833.588 
  2467.24,833.628 2479.27,833.659 2490.11,833.683 2499.76,833.702 2508.2,833.715 2515.44,833.726 2521.46,833.733 2526.25,833.738 2529.82,833.741 2532.15,833.743 
  2533.24,833.744 2533.1,833.744 2531.72,833.743 2529.11,833.74 2525.26,833.737 2520.19,833.731 2513.89,833.723 2506.38,833.713 2497.66,833.698 2487.74,833.678 
  2476.62,833.653 2464.33,833.62 2450.87,833.578 2436.26,833.525 2420.51,833.46 2403.62,833.38 2385.63,833.282 2366.55,833.165 2346.39,833.024 2325.18,832.857 
  2302.94,832.659 2279.68,832.426 2255.42,832.154 2230.19,831.836 2204.02,831.468 2176.92,831.042 2148.93,830.552 2120.07,829.988 2090.34,829.342 2059.8,828.603 
  2028.45,827.761 1996.34,826.803 1963.48,825.716 1929.92,824.482 1895.65,823.086 1860.71,821.507 1825.13,819.724 1788.94,817.714 1752.17,815.45 1714.84,812.902 
  1676.98,810.038 1638.58,806.816 1599.67,803.198 1560.29,799.137 1520.46,794.581 1480.21,789.472 1439.54,783.746 1398.5,777.331 1357.09,770.148 1315.35,762.107 
  1280.89,1036.25 1251.04,1030.44 1221,1025.02 1190.81,1019.97 1160.52,1015.28 1130.16,1010.93 1099.79,1006.9 1069.43,1003.18 1039.14,999.741 1008.95,996.579 
  978.914,993.673 949.068,991.006 919.455,988.562 890.112,986.327 861.067,984.284 832.368,982.419 804.056,980.721 776.172,979.177 748.743,977.773 721.777,976.498 
  695.334,975.343 669.449,974.298 644.159,973.353 619.491,972.5 595.433,971.73 572.045,971.037 549.36,970.414 527.407,969.855 506.212,969.353 485.757,968.904 
  466.095,968.502 447.254,968.143 429.26,967.824 412.137,967.541 395.854,967.288 380.463,967.065 365.985,966.868 352.442,966.695 339.854,966.543 328.188,966.41 
  317.484,966.294 307.76,966.194 299.032,966.108 291.317,966.035 284.582,965.974 278.851,965.923 274.141,965.883 270.463,965.853 267.828,965.831 266.207,965.818 
  265.604,965.813 266.039,965.816 267.515,965.828 270.038,965.849 273.581,965.879 278.134,965.917 283.712,965.966 290.317,966.026 297.948,966.097 306.578,966.182 
  316.186,966.28 326.784,966.394 338.368,966.525 350.931,966.676 364.451,966.848 378.893,967.043 394.267,967.265 410.564,967.516 427.773,967.799 445.872,968.118 
  464.819,968.477 484.62,968.88 505.261,969.332 526.727,969.838 548.998,970.405 572.029,971.037 595.819,971.742 620.351,972.529 645.607,973.405 671.568,974.38 
  698.19,975.464 725.467,976.667 753.379,978.003 781.906,979.484 811.027,981.127 840.711,982.946 870.944,984.96 901.703,987.189 932.967,989.653 964.716,992.378 
  996.939,995.389 1029.61,998.716 1062.71,1002.39 1096.22,1006.45 1130.12,1010.92 1164.37,1015.86 1198.93,1021.29 1233.8,1027.28 1268.95,1033.88 1302.52,759.463 
  1325.84,764.209 1349.32,768.714 1372.93,772.985 1396.63,777.024 1420.42,780.841 1444.24,784.438 1468.08,787.826 1491.89,791.01 1515.65,793.997 1539.33,796.798 
  1562.88,799.417 1586.29,801.865 1609.53,804.15 1632.55,806.281 1655.35,808.264 1677.88,810.109 1700.11,811.823 1722.02,813.413 1743.58,814.887 1764.75,816.251 
  1785.53,817.514 1805.88,818.681 1825.77,819.758 1845.18,820.752 1864.09,821.667 1882.48,822.51 1900.33,823.285 1917.61,823.997 1934.3,824.651 1950.38,825.249 
  1965.84,825.798 1980.67,826.299 1994.82,826.756 2008.29,827.172 2021.09,827.551 2033.19,827.894 2044.55,828.205 2055.18,828.485 2065.08,828.737 2074.24,828.962 
  2082.63,829.163 2090.26,829.34 2097.1,829.495 2103.14,829.628 2108.38,829.742 2112.79,829.836 2116.43,829.912 2119.26,829.971 2121.28,830.013 2122.47,830.037 
  2122.83,830.044 2122.36,830.035 2121.05,830.008 2118.91,829.964 2115.97,829.903 2112.21,829.824 2107.63,829.726 2102.23,829.608 2096.02,829.471 2089,829.311 
  2081.18,829.128 2072.56,828.922 2063.16,828.689 2052.98,828.428 2042.03,828.137 2030.32,827.814 2017.87,827.457 2004.67,827.062 1990.75,826.626 1976.11,826.147 
  1960.77,825.62 1944.73,825.042 1928.02,824.409 1910.66,823.715 1892.65,822.957 1874.01,822.127 1854.76,821.222 1834.89,820.232 1814.44,819.152 1793.43,817.975 
  1771.86,816.691 1749.76,815.293 1727.15,813.772 1704.05,812.115 1680.45,810.313 1656.38,808.351 1631.85,806.217 1606.89,803.898 1581.51,801.378 1555.74,798.64 
  1529.59,795.667 1503.08,792.44 1476.23,788.938 1449.05,785.138 1421.56,781.018 1393.79,776.552 1365.75,771.713 1337.46,766.472 1308.95,760.8 1288.31,1037.76 
  1271.83,1034.44 1255.25,1031.24 1238.58,1028.14 1221.83,1025.17 1205.05,1022.31 1188.22,1019.56 1171.39,1016.92 1154.58,1014.4 1137.8,1011.99 1121.07,1009.69 
  1104.42,1007.49 1087.86,1005.4 1071.41,1003.41 1055.1,1001.52 1038.96,999.722 1022.99,998.018 1007.21,996.405 991.665,994.879 976.351,993.436 961.287,992.072 
  946.498,990.786 932.004,989.574 917.825,988.434 903.983,987.361 890.487,986.354 877.334,985.408 864.56,984.521 852.182,983.69 840.219,982.915 828.689,982.191 
  817.603,981.517 806.939,980.888 796.737,980.304 787.014,979.763 777.783,979.263 769.06,978.802 760.858,978.38 753.142,977.991 745.953,977.637 739.303,977.316 
  733.204,977.026 727.668,976.768 722.705,976.541 718.28,976.34 714.42,976.168 711.139,976.023 708.445,975.905 706.345,975.813 704.849,975.748 703.924,975.709 
  703.58,975.694 703.832,975.705 704.686,975.741 706.145,975.805 708.213,975.895 710.867,976.011 714.095,976.153 717.916,976.324 722.332,976.524 727.343,976.753 
  732.948,977.014 739.131,977.307 745.864,977.632 753.167,977.992 761.037,978.389 769.472,978.824 778.468,979.299 788.013,979.818 798.068,980.379 808.652,980.988 
  819.758,981.646 831.382,982.358 843.516,983.126 856.152,983.954 869.246,984.843 882.814,985.798 896.845,986.824 911.333,987.926 926.267,989.107 941.639,990.375 
  957.413,991.73 973.592,993.182 990.167,994.735 1007.13,996.396 1024.46,998.173 1042.16,1000.07 1060.2,1002.1 1078.58,1004.27 1097.28,1006.58 1116.29,1009.05 
  1135.6,1011.68 1155.2,1014.49 1175.08,1017.49 1195.22,1020.69 1215.62,1024.09 1236.26,1027.73 1257.14,1031.6 1278.23,1035.72 1299.21,758.766 1308.01,760.606 
  1316.88,762.418 
  "/>
<polyline clip-path="url(#clip522)" style="stroke:#008000; stroke-linecap:round; stroke-linejoin:round; stroke-width:8; stroke-opacity:1; fill:none" stroke-dasharray="4, 8" points="
  1299.03,657.811 1335.02,677.825 1371.26,698.184 1407.71,718.86 1444.3,739.799 1480.98,760.971 1517.72,782.33 1554.42,803.815 1591.06,825.393 1627.57,847.009 
  1663.92,868.627 1700.04,890.184 1735.89,911.641 1771.42,932.945 1806.58,954.049 1841.33,974.912 1875.61,995.486 1909.39,1015.73 1942.62,1035.6 1975.27,1055.07 
  2007.29,1074.09 2038.64,1092.64 2069.3,1110.69 2099.22,1128.2 2128.36,1145.17 2156.71,1161.56 2184.24,1177.38 2210.91,1192.59 2236.69,1207.18 2261.54,1221.14 
  2285.44,1234.45 2308.34,1247.12 2330.29,1259.16 2351.22,1270.54 2371.1,1281.28 2389.91,1291.35 2407.62,1300.76 2424.21,1309.52 2439.69,1317.63 2454.04,1325.1 
  2467.24,1331.92 2479.27,1338.11 2490.11,1343.65 2499.76,1348.56 2508.2,1352.83 2515.44,1356.48 2521.46,1359.51 2526.25,1361.91 2529.82,1363.7 2532.15,1364.86 
  2533.24,1365.41 2533.1,1365.34 2531.72,1364.65 2529.11,1363.34 2525.26,1361.42 2520.19,1358.87 2513.89,1355.7 2506.38,1351.91 2497.66,1347.49 2487.74,1342.44 
  2476.62,1336.75 2464.33,1330.42 2450.87,1323.45 2436.26,1315.84 2420.51,1307.57 2403.62,1298.65 2385.63,1289.07 2366.55,1278.83 2346.39,1267.93 2325.18,1256.36 
  2302.94,1244.14 2279.68,1231.26 2255.42,1217.71 2230.19,1203.51 2204.02,1188.67 2176.92,1173.19 2148.93,1157.08 2120.07,1140.35 2090.34,1123.02 2059.8,1105.1 
  2028.45,1086.62 1996.34,1067.59 1963.48,1048.05 1929.92,1028.01 1895.65,1007.5 1860.71,986.546 1825.13,965.189 1788.94,943.46 1752.17,921.398 1714.84,899.039 
  1676.98,876.417 1638.58,853.547 1599.67,830.484 1560.29,807.266 1520.46,783.932 1480.21,760.52 1439.54,737.069 1398.5,713.616 1357.09,690.2 1315.35,666.858 
  1280.89,647.801 1251.04,631.456 1221,615.167 1190.81,598.962 1160.52,582.87 1130.16,566.922 1099.79,551.148 1069.43,535.568 1039.14,520.211 1008.95,505.098 
  978.914,490.254 949.068,475.697 919.455,461.448 890.112,447.519 861.067,433.922 832.368,420.675 804.056,407.79 776.172,395.279 748.743,383.147 721.777,371.389 
  695.334,360.023 669.449,349.054 644.159,338.489 619.491,328.326 595.433,318.552 572.045,309.179 549.36,300.209 527.407,291.643 506.212,283.479 485.757,275.697 
  466.095,268.309 447.254,261.313 429.26,254.708 412.137,248.491 395.854,242.641 380.463,237.166 365.985,232.066 352.442,227.338 339.854,222.98 328.188,218.974 
  317.484,215.324 307.76,212.031 299.032,209.093 291.317,206.51 284.582,204.266 278.851,202.365 274.141,200.808 270.463,199.595 267.828,198.728 266.207,198.195 
  265.604,197.997 266.039,198.14 267.515,198.625 270.038,199.455 273.581,200.623 278.134,202.127 283.712,203.977 290.317,206.177 297.948,208.729 306.578,211.632 
  316.186,214.883 326.784,218.494 338.368,222.468 350.931,226.813 364.451,231.529 378.893,236.611 394.267,242.074 410.564,247.923 427.773,254.165 445.872,260.803 
  464.819,267.833 484.62,275.268 505.261,283.114 526.727,291.379 548.998,300.067 572.029,309.172 595.819,318.708 620.351,328.678 645.607,339.09 671.568,349.946 
  698.19,361.243 725.467,372.988 753.379,385.185 781.906,397.837 811.027,410.945 840.711,424.507 870.944,438.525 901.703,452.998 932.967,467.926 964.716,483.305 
  996.939,499.139 1029.61,515.421 1062.71,532.147 1096.22,549.31 1130.12,566.903 1164.37,584.903 1198.93,603.302 1233.8,622.089 1268.95,641.248 1302.52,659.74 
  1325.84,672.701 1349.32,685.833 1372.93,699.127 1396.63,712.557 1420.42,726.116 1444.24,739.768 1468.08,753.506 1491.89,767.298 1515.65,781.124 1539.33,794.967 
  1562.88,808.787 1586.29,822.577 1609.53,836.316 1632.55,849.97 1655.35,863.524 1677.88,876.95 1700.11,890.228 1722.02,903.333 1743.58,916.246 1764.75,928.944 
  1785.53,941.411 1805.88,953.629 1825.77,965.574 1845.18,977.228 1864.09,988.573 1882.48,999.607 1900.33,1010.3 1917.61,1020.65 1934.3,1030.63 1950.38,1040.23 
  1965.84,1049.45 1980.67,1058.28 1994.82,1066.69 2008.29,1074.68 2021.09,1082.27 2033.19,1089.42 2044.55,1096.13 2055.18,1102.39 2065.08,1108.21 2074.24,1113.58 
  2082.63,1118.51 2090.26,1122.97 2097.1,1126.97 2103.14,1130.5 2108.38,1133.55 2112.79,1136.12 2116.43,1138.24 2119.26,1139.88 2121.28,1141.05 2122.47,1141.75 
  2122.83,1141.96 2122.36,1141.68 2121.05,1140.92 2118.91,1139.68 2115.97,1137.97 2112.21,1135.78 2107.63,1133.11 2102.23,1129.96 2096.02,1126.34 2089,1122.24 
  2081.18,1117.66 2072.56,1112.6 2063.16,1107.08 2052.98,1101.09 2042.03,1094.64 2030.32,1087.73 2017.87,1080.36 2004.67,1072.54 1990.75,1064.27 1976.11,1055.57 
  1960.77,1046.43 1944.73,1036.86 1928.02,1026.88 1910.66,1016.49 1892.65,1005.7 1874.01,994.525 1854.76,982.975 1834.89,971.051 1814.44,958.772 1793.43,946.153 
  1771.86,933.209 1749.76,919.954 1727.15,906.406 1704.05,892.581 1680.45,878.487 1656.38,864.136 1631.85,849.552 1606.89,834.755 1581.51,819.762 1555.74,804.592 
  1529.59,789.266 1503.08,773.802 1476.23,758.217 1449.05,742.531 1421.56,726.766 1393.79,710.941 1365.75,695.076 1337.46,679.191 1308.95,663.306 1288.31,651.89 
  1271.83,642.824 1255.25,633.751 1238.58,624.678 1221.83,615.617 1205.05,606.581 1188.22,597.578 1171.39,588.625 1154.58,579.735 1137.8,570.919 1121.07,562.18 
  1104.42,553.54 1087.86,545.003 1071.41,536.579 1055.1,528.282 1038.96,520.119 1022.99,512.1 1007.21,504.235 991.665,496.532 976.351,488.996 961.287,481.633 
  946.498,474.453 932.004,467.462 917.825,460.669 903.983,454.079 890.487,447.696 877.334,441.514 864.56,435.547 852.182,429.801 840.219,424.28 828.689,418.99 
  817.603,413.932 806.939,409.093 796.737,404.489 787.014,400.122 777.783,395.997 769.06,392.116 760.858,388.484 753.142,385.08 745.953,381.922 739.303,379.012 
  733.204,376.351 727.668,373.943 722.705,371.791 718.28,369.877 714.42,368.21 711.139,366.797 708.445,365.638 706.345,364.736 704.849,364.094 703.924,363.698 
  703.58,363.55 703.832,363.658 704.686,364.024 706.145,364.65 708.213,365.539 710.867,366.68 714.095,368.07 717.916,369.719 722.332,371.629 727.343,373.802 
  732.948,376.239 739.131,378.936 745.864,381.883 753.167,385.092 761.037,388.563 769.472,392.299 778.468,396.302 788.013,400.57 798.068,405.088 808.652,409.869 
  819.758,414.913 831.382,420.223 843.516,425.799 856.152,431.64 869.246,437.732 882.814,444.085 896.845,450.698 911.333,457.573 926.267,464.708 941.639,472.104 
  957.413,479.748 973.592,487.644 990.167,495.792 1007.13,504.192 1024.46,512.84 1042.16,521.736 1060.2,530.87 1078.58,540.243 1097.28,549.852 1116.29,559.694 
  1135.6,569.765 1155.2,580.062 1175.08,590.58 1195.22,601.317 1215.62,612.267 1236.26,623.424 1257.14,634.784 1278.23,646.342 1299.21,657.907 1308.01,662.785 
  1316.88,667.712 
  "/>
<polyline clip-path="url(#clip522)" style="stroke:#008000; stroke-linecap:round; stroke-linejoin:round; stroke-width:8; stroke-opacity:1; fill:none" points="
  1299.03,635.45 1335.02,654.47 1371.26,673.732 1407.71,693.216 1444.3,712.877 1480.98,732.69 1517.72,752.623 1554.42,772.627 1591.06,792.681 1627.57,812.743 
  1663.92,832.791 1700.04,852.778 1735.89,872.677 1771.42,892.451 1806.58,912.065 1841.33,931.492 1875.61,950.694 1909.39,969.639 1942.62,988.298 1975.27,1006.64 
  2007.29,1024.64 2038.64,1042.26 2069.3,1059.49 2099.22,1076.29 2128.36,1092.64 2156.71,1108.52 2184.24,1123.91 2210.91,1138.79 2236.69,1153.14 2261.54,1166.94 
  2285.44,1180.17 2308.34,1192.81 2330.29,1204.88 2351.22,1216.35 2371.1,1227.21 2389.91,1237.45 2407.62,1247.06 2424.21,1256.02 2439.69,1264.36 2454.04,1272.06 
  2467.24,1279.12 2479.27,1285.53 2490.11,1291.29 2499.76,1296.41 2508.2,1300.87 2515.44,1304.69 2521.46,1307.86 2526.25,1310.38 2529.82,1312.25 2532.15,1313.47 
  2533.24,1314.04 2533.1,1313.97 2531.72,1313.24 2529.11,1311.87 2525.26,1309.85 2520.19,1307.19 2513.89,1303.87 2506.38,1299.91 2497.66,1295.29 2487.74,1290.03 
  2476.62,1284.12 2464.33,1277.56 2450.87,1270.36 2436.26,1262.51 2420.51,1254.02 2403.62,1244.89 2385.63,1235.13 2366.55,1224.73 2346.39,1213.71 2325.18,1202.08 
  2302.94,1189.83 2279.68,1176.98 2255.42,1163.54 2230.19,1149.53 2204.02,1134.95 2176.92,1119.82 2148.93,1104.16 2120.07,1087.99 2090.34,1071.31 2059.8,1054.15 
  2028.45,1036.54 1996.34,1018.48 1963.48,1000.02 1929.92,981.164 1895.65,961.93 1860.71,942.344 1825.13,922.432 1788.94,902.219 1752.17,881.73 1714.84,860.988 
  1676.98,840.014 1638.58,818.808 1599.67,797.408 1560.29,775.837 1520.46,754.117 1480.21,732.269 1439.54,710.317 1398.5,688.282 1357.09,666.188 1315.35,644.059 
  1280.89,625.905 1251.04,610.268 1221,594.618 1190.81,578.98 1160.52,563.378 1130.16,547.842 1099.79,532.399 1069.43,517.067 1039.14,501.876 1008.95,486.847 
  978.914,472.005 949.068,457.371 919.455,442.967 890.112,428.81 861.067,414.915 832.368,401.301 804.056,387.988 776.172,374.992 748.743,362.322 721.777,349.979 
  695.334,337.985 669.449,326.352 644.159,315.09 619.491,304.206 595.433,293.688 572.045,283.556 549.36,273.816 527.407,264.475 506.212,255.536 485.757,246.982 
  466.095,238.829 447.254,231.08 429.26,223.739 412.137,216.806 395.854,210.262 380.463,204.12 365.985,198.382 352.442,193.049 339.854,188.121 328.188,183.581 
  317.484,179.436 307.76,175.689 299.032,172.341 291.317,169.392 284.582,166.827 278.851,164.651 274.141,162.868 270.463,161.478 267.828,160.483 266.207,159.872 
  265.604,159.645 266.039,159.809 267.515,160.365 270.038,161.317 273.581,162.656 278.134,164.379 283.712,166.497 290.317,169.011 297.948,171.925 306.578,175.235 
  316.186,178.935 326.784,183.036 338.368,187.541 350.931,192.456 364.451,197.776 378.893,203.496 394.267,209.627 410.564,216.172 427.773,223.134 445.872,230.514 
  464.819,238.302 484.62,246.509 505.261,255.136 526.727,264.188 548.998,273.662 572.029,283.549 595.819,293.856 620.351,304.584 645.607,315.732 671.568,327.3 
  698.19,339.275 725.467,351.661 753.379,364.456 781.906,377.655 811.027,391.255 840.711,405.247 870.944,419.627 901.703,434.388 932.967,449.525 964.716,465.029 
  996.939,480.898 1029.61,497.122 1062.71,513.69 1096.22,530.594 1130.12,547.823 1164.37,565.354 1198.93,583.175 1233.8,601.276 1268.95,619.644 1302.52,637.288 
  1325.84,649.609 1349.32,662.057 1372.93,674.623 1396.63,687.285 1420.42,700.037 1444.24,712.847 1468.08,725.711 1491.89,738.601 1515.65,751.499 1539.33,764.394 
  1562.88,777.251 1586.29,790.066 1609.53,802.821 1632.55,815.49 1655.35,828.059 1677.88,840.508 1700.11,852.818 1722.02,864.971 1743.58,876.949 1764.75,888.735 
  1785.53,900.315 1805.88,911.674 1825.77,922.791 1845.18,933.651 1864.09,944.236 1882.48,954.546 1900.33,964.557 1917.61,974.254 1934.3,983.622 1950.38,992.655 
  1965.84,1001.35 1980.67,1009.68 1994.82,1017.63 2008.29,1025.21 2021.09,1032.4 2033.19,1039.2 2044.55,1045.59 2055.18,1051.56 2065.08,1057.12 2074.24,1062.27 
  2082.63,1066.98 2090.26,1071.26 2097.1,1075.1 2103.14,1078.49 2108.38,1081.43 2112.79,1083.91 2116.43,1085.95 2119.26,1087.54 2121.28,1088.67 2122.47,1089.33 
  2122.83,1089.54 2122.36,1089.27 2121.05,1088.54 2118.91,1087.34 2115.97,1085.69 2112.21,1083.58 2107.63,1081.01 2102.23,1077.98 2096.02,1074.5 2089,1070.56 
  2081.18,1066.17 2072.56,1061.33 2063.16,1056.04 2052.98,1050.32 2042.03,1044.17 2030.32,1037.59 2017.87,1030.59 2004.67,1023.17 1990.75,1015.35 1976.11,1007.12 
  1960.77,998.493 1944.73,989.484 1928.02,980.1 1910.66,970.35 1892.65,960.245 1874.01,949.795 1854.76,939.011 1834.89,927.893 1814.44,916.459 1793.43,904.723 
  1771.86,892.695 1749.76,880.39 1727.15,867.821 1704.05,855 1680.45,841.933 1656.38,828.627 1631.85,815.102 1606.89,801.372 1581.51,787.45 1555.74,773.35 
  1529.59,759.086 1503.08,744.671 1476.23,730.116 1449.05,715.437 1421.56,700.647 1393.79,685.763 1365.75,670.797 1337.46,655.765 1308.95,640.681 1288.31,629.807 
  1271.83,621.15 1255.25,612.467 1238.58,603.765 1221.83,595.051 1205.05,586.341 1188.22,577.641 1171.39,568.966 1154.58,560.33 1137.8,551.744 1121.07,543.208 
  1104.42,534.746 1087.86,526.362 1071.41,518.065 1055.1,509.87 1038.96,501.785 1022.99,493.821 1007.21,485.986 991.665,478.292 976.351,470.744 961.287,463.348 
  946.498,456.116 932.004,449.057 917.825,442.178 903.983,435.488 890.487,428.991 877.334,422.683 864.56,416.579 852.182,410.687 840.219,405.014 828.689,399.565 
  817.603,394.344 806.939,389.338 796.737,384.566 787.014,380.031 777.783,375.74 769.06,371.696 760.858,367.904 753.142,364.346 745.953,361.04 739.303,357.988 
  733.204,355.196 727.668,352.666 722.705,350.402 718.28,348.386 714.42,346.631 711.139,345.14 708.445,343.918 706.345,342.966 704.849,342.288 703.924,341.869 
  703.58,341.713 703.832,341.827 704.686,342.214 706.145,342.875 708.213,343.813 710.867,345.017 714.095,346.483 717.916,348.221 722.332,350.232 727.343,352.517 
  732.948,355.079 739.131,357.909 745.864,360.999 753.167,364.358 761.037,367.987 769.472,371.887 778.468,376.058 788.013,380.497 798.068,385.187 808.652,390.141 
  819.758,395.358 831.382,400.836 843.516,406.576 856.152,412.575 869.246,418.816 882.814,425.308 896.845,432.049 911.333,439.037 926.267,446.27 941.639,453.747 
  957.413,461.451 973.592,469.387 990.167,477.552 1007.13,485.943 1024.46,494.556 1042.16,503.388 1060.2,512.429 1078.58,521.676 1097.28,531.127 1116.29,540.775 
  1135.6,550.618 1155.2,560.648 1175.08,570.863 1195.22,581.257 1215.62,591.825 1236.26,602.56 1257.14,613.457 1278.23,624.512 1299.21,635.542 1308.01,640.186 
  1316.88,644.87 
  "/>
<path clip-path="url(#clip520)" d="
M1413.49 554.876 L2282.51 554.876 L2282.51 166.076 L1413.49 166.076  Z
  " fill="#ffffff" fill-rule="evenodd" fill-opacity="1"/>
<polyline clip-path="url(#clip520)" style="stroke:#000000; stroke-linecap:round; stroke-linejoin:round; stroke-width:4; stroke-opacity:1; fill:none" points="
  1413.49,554.876 2282.51,554.876 2282.51,166.076 1413.49,166.076 1413.49,554.876 
  "/>
<polyline clip-path="url(#clip520)" style="stroke:#009af9; stroke-linecap:round; stroke-linejoin:round; stroke-width:6; stroke-opacity:1; fill:none" points="
  1436.91,243.836 1577.4,243.836 
  "/>
<path clip-path="url(#clip520)" d="M1634.19 219.617 L1634.19 226.457 Q1630.19 224.548 1626.65 223.61 Q1623.11 222.673 1619.81 222.673 Q1614.08 222.673 1610.96 224.895 Q1607.87 227.117 1607.87 231.214 Q1607.87 234.652 1609.91 236.423 Q1612 238.159 1617.76 239.235 L1622 240.103 Q1629.85 241.596 1633.56 245.381 Q1637.31 249.131 1637.31 255.45 Q1637.31 262.985 1632.24 266.874 Q1627.21 270.763 1617.45 270.763 Q1613.77 270.763 1609.6 269.929 Q1605.47 269.096 1601.03 267.464 L1601.03 260.242 Q1605.3 262.638 1609.39 263.853 Q1613.49 265.068 1617.45 265.068 Q1623.46 265.068 1626.72 262.707 Q1629.98 260.346 1629.98 255.971 Q1629.98 252.152 1627.62 249.999 Q1625.3 247.846 1619.95 246.77 L1615.68 245.936 Q1607.83 244.374 1604.32 241.041 Q1600.82 237.707 1600.82 231.77 Q1600.82 224.895 1605.64 220.937 Q1610.51 216.978 1619.01 216.978 Q1622.66 216.978 1626.44 217.638 Q1630.23 218.298 1634.19 219.617 Z" fill="#000000" fill-rule="evenodd" fill-opacity="1" /><path clip-path="url(#clip520)" d="M1647.97 230.867 L1654.36 230.867 L1654.36 269.756 L1647.97 269.756 L1647.97 230.867 M1647.97 215.728 L1654.36 215.728 L1654.36 223.818 L1647.97 223.818 L1647.97 215.728 Z" fill="#000000" fill-rule="evenodd" fill-opacity="1" /><path clip-path="url(#clip520)" d="M1698 238.332 Q1700.4 234.027 1703.73 231.978 Q1707.07 229.93 1711.58 229.93 Q1717.66 229.93 1720.96 234.2 Q1724.25 238.436 1724.25 246.284 L1724.25 269.756 L1717.83 269.756 L1717.83 246.492 Q1717.83 240.902 1715.85 238.193 Q1713.87 235.485 1709.81 235.485 Q1704.85 235.485 1701.96 238.784 Q1699.08 242.082 1699.08 247.777 L1699.08 269.756 L1692.66 269.756 L1692.66 246.492 Q1692.66 240.867 1690.68 238.193 Q1688.7 235.485 1684.57 235.485 Q1679.67 235.485 1676.79 238.818 Q1673.91 242.117 1673.91 247.777 L1673.91 269.756 L1667.48 269.756 L1667.48 230.867 L1673.91 230.867 L1673.91 236.909 Q1676.1 233.332 1679.15 231.631 Q1682.21 229.93 1686.41 229.93 Q1690.64 229.93 1693.6 232.082 Q1696.58 234.235 1698 238.332 Z" fill="#000000" fill-rule="evenodd" fill-opacity="1" /><path clip-path="url(#clip520)" d="M1743.18 263.922 L1743.18 284.547 L1736.75 284.547 L1736.75 230.867 L1743.18 230.867 L1743.18 236.77 Q1745.19 233.298 1748.25 231.631 Q1751.34 229.93 1755.61 229.93 Q1762.69 229.93 1767.1 235.555 Q1771.55 241.179 1771.55 250.346 Q1771.55 259.513 1767.1 265.138 Q1762.69 270.763 1755.61 270.763 Q1751.34 270.763 1748.25 269.096 Q1745.19 267.395 1743.18 263.922 M1764.91 250.346 Q1764.91 243.298 1762 239.304 Q1759.12 235.277 1754.05 235.277 Q1748.98 235.277 1746.06 239.304 Q1743.18 243.298 1743.18 250.346 Q1743.18 257.395 1746.06 261.422 Q1748.98 265.415 1754.05 265.415 Q1759.12 265.415 1762 261.422 Q1764.91 257.395 1764.91 250.346 Z" fill="#000000" fill-rule="evenodd" fill-opacity="1" /><path clip-path="url(#clip520)" d="M1782.14 215.728 L1788.53 215.728 L1788.53 269.756 L1782.14 269.756 L1782.14 215.728 Z" fill="#000000" fill-rule="evenodd" fill-opacity="1" /><path clip-path="url(#clip520)" d="M1835.16 248.714 L1835.16 251.839 L1805.78 251.839 Q1806.2 258.436 1809.74 261.909 Q1813.32 265.346 1819.67 265.346 Q1823.35 265.346 1826.79 264.443 Q1830.26 263.54 1833.66 261.735 L1833.66 267.777 Q1830.23 269.235 1826.62 269.999 Q1823 270.763 1819.29 270.763 Q1809.98 270.763 1804.53 265.346 Q1799.12 259.929 1799.12 250.693 Q1799.12 241.145 1804.25 235.555 Q1809.43 229.93 1818.18 229.93 Q1826.02 229.93 1830.57 234.999 Q1835.16 240.034 1835.16 248.714 M1828.77 246.839 Q1828.7 241.596 1825.82 238.471 Q1822.97 235.346 1818.25 235.346 Q1812.9 235.346 1809.67 238.367 Q1806.48 241.388 1805.99 246.874 L1828.77 246.839 Z" fill="#000000" fill-rule="evenodd" fill-opacity="1" /><path clip-path="url(#clip520)" d="M1845.92 217.916 L1875.71 217.916 L1875.71 223.818 L1852.93 223.818 L1852.93 239.096 L1873.49 239.096 L1873.49 244.999 L1852.93 244.999 L1852.93 269.756 L1845.92 269.756 L1845.92 217.916 Z" fill="#000000" fill-rule="evenodd" fill-opacity="1" /><path clip-path="url(#clip520)" d="M1886.82 217.916 L1897.27 217.916 L1910.5 253.193 L1923.8 217.916 L1934.25 217.916 L1934.25 269.756 L1927.41 269.756 L1927.41 224.235 L1914.05 259.79 L1907 259.79 L1893.63 224.235 L1893.63 269.756 L1886.82 269.756 L1886.82 217.916 Z" fill="#000000" fill-rule="evenodd" fill-opacity="1" /><path clip-path="url(#clip520)" d="M1947.38 217.916 L1954.43 217.916 L1954.43 249.409 Q1954.43 257.742 1957.45 261.422 Q1960.47 265.068 1967.24 265.068 Q1973.98 265.068 1977 261.422 Q1980.02 257.742 1980.02 249.409 L1980.02 217.916 L1987.07 217.916 L1987.07 250.277 Q1987.07 260.415 1982.03 265.589 Q1977.03 270.763 1967.24 270.763 Q1957.41 270.763 1952.38 265.589 Q1947.38 260.415 1947.38 250.277 L1947.38 217.916 Z" fill="#000000" fill-rule="evenodd" fill-opacity="1" /><polyline clip-path="url(#clip520)" style="stroke:#e26f46; stroke-linecap:round; stroke-linejoin:round; stroke-width:6; stroke-opacity:1; fill:none" points="
  1436.91,321.596 1577.4,321.596 
  "/>
<path clip-path="url(#clip520)" d="M1623.6 314.599 Q1622.52 313.974 1621.23 313.696 Q1619.98 313.384 1618.46 313.384 Q1613.04 313.384 1610.12 316.926 Q1607.24 320.433 1607.24 327.03 L1607.24 347.516 L1600.82 347.516 L1600.82 308.627 L1607.24 308.627 L1607.24 314.669 Q1609.26 311.127 1612.48 309.426 Q1615.71 307.69 1620.33 307.69 Q1620.99 307.69 1621.79 307.794 Q1622.59 307.863 1623.56 308.037 L1623.6 314.599 Z" fill="#000000" fill-rule="evenodd" fill-opacity="1" /><path clip-path="url(#clip520)" d="M1662 326.474 L1662 329.599 L1632.62 329.599 Q1633.04 336.196 1636.58 339.669 Q1640.16 343.106 1646.51 343.106 Q1650.19 343.106 1653.63 342.203 Q1657.1 341.3 1660.5 339.495 L1660.5 345.537 Q1657.07 346.995 1653.46 347.759 Q1649.85 348.523 1646.13 348.523 Q1636.82 348.523 1631.37 343.106 Q1625.96 337.689 1625.96 328.453 Q1625.96 318.905 1631.1 313.315 Q1636.27 307.69 1645.02 307.69 Q1652.87 307.69 1657.41 312.759 Q1662 317.794 1662 326.474 M1655.61 324.599 Q1655.54 319.356 1652.66 316.231 Q1649.81 313.106 1645.09 313.106 Q1639.74 313.106 1636.51 316.127 Q1633.32 319.148 1632.83 324.634 L1655.61 324.599 Z" fill="#000000" fill-rule="evenodd" fill-opacity="1" /><path clip-path="url(#clip520)" d="M1692.17 293.488 L1692.17 298.801 L1686.06 298.801 Q1682.62 298.801 1681.27 300.19 Q1679.95 301.578 1679.95 305.19 L1679.95 308.627 L1690.47 308.627 L1690.47 313.592 L1679.95 313.592 L1679.95 347.516 L1673.53 347.516 L1673.53 313.592 L1667.41 313.592 L1667.41 308.627 L1673.53 308.627 L1673.53 305.919 Q1673.53 299.426 1676.55 296.474 Q1679.57 293.488 1686.13 293.488 L1692.17 293.488 Z" fill="#000000" fill-rule="evenodd" fill-opacity="1" /><path clip-path="url(#clip520)" d="M1730.78 326.474 L1730.78 329.599 L1701.41 329.599 Q1701.82 336.196 1705.37 339.669 Q1708.94 343.106 1715.3 343.106 Q1718.98 343.106 1722.41 342.203 Q1725.89 341.3 1729.29 339.495 L1729.29 345.537 Q1725.85 346.995 1722.24 347.759 Q1718.63 348.523 1714.91 348.523 Q1705.61 348.523 1700.16 343.106 Q1694.74 337.689 1694.74 328.453 Q1694.74 318.905 1699.88 313.315 Q1705.05 307.69 1713.8 307.69 Q1721.65 307.69 1726.2 312.759 Q1730.78 317.794 1730.78 326.474 M1724.39 324.599 Q1724.32 319.356 1721.44 316.231 Q1718.59 313.106 1713.87 313.106 Q1708.53 313.106 1705.3 316.127 Q1702.1 319.148 1701.62 324.634 L1724.39 324.599 Z" fill="#000000" fill-rule="evenodd" fill-opacity="1" /><path clip-path="url(#clip520)" d="M1763.8 314.599 Q1762.73 313.974 1761.44 313.696 Q1760.19 313.384 1758.66 313.384 Q1753.25 313.384 1750.33 316.926 Q1747.45 320.433 1747.45 327.03 L1747.45 347.516 L1741.03 347.516 L1741.03 308.627 L1747.45 308.627 L1747.45 314.669 Q1749.46 311.127 1752.69 309.426 Q1755.92 307.69 1760.54 307.69 Q1761.2 307.69 1762 307.794 Q1762.8 307.863 1763.77 308.037 L1763.8 314.599 Z" fill="#000000" fill-rule="evenodd" fill-opacity="1" /><path clip-path="url(#clip520)" d="M1802.21 326.474 L1802.21 329.599 L1772.83 329.599 Q1773.25 336.196 1776.79 339.669 Q1780.37 343.106 1786.72 343.106 Q1790.4 343.106 1793.84 342.203 Q1797.31 341.3 1800.71 339.495 L1800.71 345.537 Q1797.28 346.995 1793.66 347.759 Q1790.05 348.523 1786.34 348.523 Q1777.03 348.523 1771.58 343.106 Q1766.16 337.689 1766.16 328.453 Q1766.16 318.905 1771.3 313.315 Q1776.48 307.69 1785.23 307.69 Q1793.07 307.69 1797.62 312.759 Q1802.21 317.794 1802.21 326.474 M1795.82 324.599 Q1795.75 319.356 1792.87 316.231 Q1790.02 313.106 1785.3 313.106 Q1779.95 313.106 1776.72 316.127 Q1773.53 319.148 1773.04 324.634 L1795.82 324.599 Z" fill="#000000" fill-rule="evenodd" fill-opacity="1" /><path clip-path="url(#clip520)" d="M1845.02 324.044 L1845.02 347.516 L1838.63 347.516 L1838.63 324.252 Q1838.63 318.731 1836.48 315.988 Q1834.32 313.245 1830.02 313.245 Q1824.84 313.245 1821.86 316.544 Q1818.87 319.842 1818.87 325.537 L1818.87 347.516 L1812.45 347.516 L1812.45 308.627 L1818.87 308.627 L1818.87 314.669 Q1821.16 311.162 1824.25 309.426 Q1827.38 307.69 1831.44 307.69 Q1838.14 307.69 1841.58 311.856 Q1845.02 315.988 1845.02 324.044 Z" fill="#000000" fill-rule="evenodd" fill-opacity="1" /><path clip-path="url(#clip520)" d="M1885.75 310.12 L1885.75 316.092 Q1883.04 314.599 1880.3 313.87 Q1877.59 313.106 1874.81 313.106 Q1868.59 313.106 1865.16 317.064 Q1861.72 320.988 1861.72 328.106 Q1861.72 335.224 1865.16 339.182 Q1868.59 343.106 1874.81 343.106 Q1877.59 343.106 1880.3 342.377 Q1883.04 341.613 1885.75 340.12 L1885.75 346.023 Q1883.07 347.273 1880.19 347.898 Q1877.34 348.523 1874.11 348.523 Q1865.33 348.523 1860.16 343.002 Q1854.98 337.481 1854.98 328.106 Q1854.98 318.592 1860.19 313.141 Q1865.43 307.69 1874.53 307.69 Q1877.48 307.69 1880.3 308.315 Q1883.11 308.905 1885.75 310.12 Z" fill="#000000" fill-rule="evenodd" fill-opacity="1" /><path clip-path="url(#clip520)" d="M1930.12 326.474 L1930.12 329.599 L1900.75 329.599 Q1901.16 336.196 1904.71 339.669 Q1908.28 343.106 1914.64 343.106 Q1918.32 343.106 1921.75 342.203 Q1925.23 341.3 1928.63 339.495 L1928.63 345.537 Q1925.19 346.995 1921.58 347.759 Q1917.97 348.523 1914.25 348.523 Q1904.95 348.523 1899.5 343.106 Q1894.08 337.689 1894.08 328.453 Q1894.08 318.905 1899.22 313.315 Q1904.39 307.69 1913.14 307.69 Q1920.99 307.69 1925.54 312.759 Q1930.12 317.794 1930.12 326.474 M1923.73 324.599 Q1923.66 319.356 1920.78 316.231 Q1917.93 313.106 1913.21 313.106 Q1907.86 313.106 1904.64 316.127 Q1901.44 319.148 1900.96 324.634 L1923.73 324.599 Z" fill="#000000" fill-rule="evenodd" fill-opacity="1" /><polyline clip-path="url(#clip520)" style="stroke:#008000; stroke-linecap:round; stroke-linejoin:round; stroke-width:6; stroke-opacity:1; fill:none" stroke-dasharray="3, 6" points="
  1436.91,399.356 1577.4,399.356 
  "/>
<path clip-path="url(#clip520)" d="M1600.82 373.436 L1610.26 373.436 L1633.25 416.804 L1633.25 373.436 L1640.05 373.436 L1640.05 425.276 L1630.61 425.276 L1607.62 381.908 L1607.62 425.276 L1600.82 425.276 L1600.82 373.436 Z" fill="#000000" fill-rule="evenodd" fill-opacity="1" /><path clip-path="url(#clip520)" d="M1687 404.234 L1687 407.359 L1657.62 407.359 Q1658.04 413.956 1661.58 417.429 Q1665.16 420.866 1671.51 420.866 Q1675.19 420.866 1678.63 419.963 Q1682.1 419.06 1685.5 417.255 L1685.5 423.297 Q1682.07 424.755 1678.46 425.519 Q1674.85 426.283 1671.13 426.283 Q1661.82 426.283 1656.37 420.866 Q1650.96 415.449 1650.96 406.213 Q1650.96 396.665 1656.1 391.075 Q1661.27 385.45 1670.02 385.45 Q1677.87 385.45 1682.41 390.519 Q1687 395.554 1687 404.234 M1680.61 402.359 Q1680.54 397.116 1677.66 393.991 Q1674.81 390.866 1670.09 390.866 Q1664.74 390.866 1661.51 393.887 Q1658.32 396.908 1657.83 402.394 L1680.61 402.359 Z" fill="#000000" fill-rule="evenodd" fill-opacity="1" /><path clip-path="url(#clip520)" d="M1696.82 409.929 L1696.82 386.387 L1703.21 386.387 L1703.21 409.686 Q1703.21 415.206 1705.37 417.984 Q1707.52 420.727 1711.82 420.727 Q1717 420.727 1719.98 417.429 Q1723 414.13 1723 408.436 L1723 386.387 L1729.39 386.387 L1729.39 425.276 L1723 425.276 L1723 419.304 Q1720.68 422.845 1717.59 424.581 Q1714.53 426.283 1710.47 426.283 Q1703.77 426.283 1700.3 422.116 Q1696.82 417.949 1696.82 409.929 M1712.9 385.45 L1712.9 385.45 Z" fill="#000000" fill-rule="evenodd" fill-opacity="1" /><path clip-path="url(#clip520)" d="M1765.09 392.359 Q1764.01 391.734 1762.73 391.456 Q1761.48 391.144 1759.95 391.144 Q1754.53 391.144 1751.62 394.686 Q1748.73 398.193 1748.73 404.79 L1748.73 425.276 L1742.31 425.276 L1742.31 386.387 L1748.73 386.387 L1748.73 392.429 Q1750.75 388.887 1753.98 387.186 Q1757.21 385.45 1761.82 385.45 Q1762.48 385.45 1763.28 385.554 Q1764.08 385.623 1765.05 385.797 L1765.09 392.359 Z" fill="#000000" fill-rule="evenodd" fill-opacity="1" /><path clip-path="url(#clip520)" d="M1789.46 405.727 Q1781.72 405.727 1778.73 407.498 Q1775.75 409.269 1775.75 413.54 Q1775.75 416.942 1777.97 418.956 Q1780.23 420.935 1784.08 420.935 Q1789.39 420.935 1792.59 417.185 Q1795.82 413.401 1795.82 407.151 L1795.82 405.727 L1789.46 405.727 M1802.21 403.088 L1802.21 425.276 L1795.82 425.276 L1795.82 419.373 Q1793.63 422.915 1790.37 424.616 Q1787.1 426.283 1782.38 426.283 Q1776.41 426.283 1772.87 422.949 Q1769.36 419.581 1769.36 413.956 Q1769.36 407.394 1773.73 404.061 Q1778.14 400.727 1786.86 400.727 L1795.82 400.727 L1795.82 400.102 Q1795.82 395.693 1792.9 393.297 Q1790.02 390.866 1784.78 390.866 Q1781.44 390.866 1778.28 391.665 Q1775.12 392.463 1772.21 394.061 L1772.21 388.158 Q1775.71 386.804 1779.01 386.144 Q1782.31 385.45 1785.43 385.45 Q1793.87 385.45 1798.04 389.825 Q1802.21 394.199 1802.21 403.088 Z" fill="#000000" fill-rule="evenodd" fill-opacity="1" /><path clip-path="url(#clip520)" d="M1815.37 371.248 L1821.75 371.248 L1821.75 425.276 L1815.37 425.276 L1815.37 371.248 Z" fill="#000000" fill-rule="evenodd" fill-opacity="1" /><path clip-path="url(#clip520)" d="M1835.4 373.436 L1865.19 373.436 L1865.19 379.338 L1842.41 379.338 L1842.41 394.616 L1862.97 394.616 L1862.97 400.519 L1842.41 400.519 L1842.41 425.276 L1835.4 425.276 L1835.4 373.436 Z" fill="#000000" fill-rule="evenodd" fill-opacity="1" /><path clip-path="url(#clip520)" d="M1876.3 373.436 L1886.75 373.436 L1899.98 408.713 L1913.28 373.436 L1923.73 373.436 L1923.73 425.276 L1916.89 425.276 L1916.89 379.755 L1903.52 415.31 L1896.48 415.31 L1883.11 379.755 L1883.11 425.276 L1876.3 425.276 L1876.3 373.436 Z" fill="#000000" fill-rule="evenodd" fill-opacity="1" /><path clip-path="url(#clip520)" d="M1936.86 373.436 L1943.91 373.436 L1943.91 404.929 Q1943.91 413.262 1946.93 416.942 Q1949.95 420.588 1956.72 420.588 Q1963.45 420.588 1966.48 416.942 Q1969.5 413.262 1969.5 404.929 L1969.5 373.436 L1976.54 373.436 L1976.54 405.797 Q1976.54 415.935 1971.51 421.109 Q1966.51 426.283 1956.72 426.283 Q1946.89 426.283 1941.86 421.109 Q1936.86 415.935 1936.86 405.797 L1936.86 373.436 Z" fill="#000000" fill-rule="evenodd" fill-opacity="1" /><path clip-path="url(#clip520)" d="M2027.38 371.318 Q2022.73 379.304 2020.47 387.116 Q2018.21 394.929 2018.21 402.949 Q2018.21 410.97 2020.47 418.852 Q2022.76 426.699 2027.38 434.651 L2021.82 434.651 Q2016.61 426.491 2014.01 418.609 Q2011.44 410.727 2011.44 402.949 Q2011.44 395.206 2014.01 387.359 Q2016.58 379.512 2021.82 371.318 L2027.38 371.318 Z" fill="#000000" fill-rule="evenodd" fill-opacity="1" /><path clip-path="url(#clip520)" d="M2046.72 419.373 L2071.2 419.373 L2071.2 425.276 L2038.28 425.276 L2038.28 419.373 Q2042.27 415.241 2049.15 408.297 Q2056.06 401.318 2057.83 399.304 Q2061.2 395.519 2062.52 392.915 Q2063.87 390.276 2063.87 387.741 Q2063.87 383.609 2060.95 381.005 Q2058.07 378.401 2053.42 378.401 Q2050.12 378.401 2046.44 379.547 Q2042.79 380.693 2038.63 383.019 L2038.63 375.936 Q2042.86 374.234 2046.54 373.366 Q2050.23 372.498 2053.28 372.498 Q2061.34 372.498 2066.13 376.526 Q2070.92 380.554 2070.92 387.29 Q2070.92 390.484 2069.7 393.366 Q2068.52 396.213 2065.36 400.102 Q2064.5 401.109 2059.84 405.936 Q2055.19 410.727 2046.72 419.373 Z" fill="#000000" fill-rule="evenodd" fill-opacity="1" /><path clip-path="url(#clip520)" d="M2085.99 373.436 L2113.52 373.436 L2113.52 379.338 L2092.41 379.338 L2092.41 392.047 Q2093.94 391.526 2095.47 391.283 Q2097 391.005 2098.52 391.005 Q2107.2 391.005 2112.27 395.762 Q2117.34 400.519 2117.34 408.644 Q2117.34 417.012 2112.13 421.665 Q2106.93 426.283 2097.45 426.283 Q2094.18 426.283 2090.78 425.727 Q2087.41 425.172 2083.8 424.06 L2083.8 417.012 Q2086.93 418.713 2090.26 419.547 Q2093.59 420.38 2097.31 420.38 Q2103.32 420.38 2106.82 417.22 Q2110.33 414.06 2110.33 408.644 Q2110.33 403.227 2106.82 400.068 Q2103.32 396.908 2097.31 396.908 Q2094.5 396.908 2091.68 397.533 Q2088.91 398.158 2085.99 399.477 L2085.99 373.436 Z" fill="#000000" fill-rule="evenodd" fill-opacity="1" /><path clip-path="url(#clip520)" d="M2146.16 378.054 Q2140.75 378.054 2138 383.401 Q2135.29 388.713 2135.29 399.408 Q2135.29 410.067 2138 415.415 Q2140.75 420.727 2146.16 420.727 Q2151.61 420.727 2154.32 415.415 Q2157.06 410.067 2157.06 399.408 Q2157.06 388.713 2154.32 383.401 Q2151.61 378.054 2146.16 378.054 M2146.16 372.498 Q2154.88 372.498 2159.46 379.408 Q2164.08 386.283 2164.08 399.408 Q2164.08 412.498 2159.46 419.408 Q2154.88 426.283 2146.16 426.283 Q2137.45 426.283 2132.83 419.408 Q2128.25 412.498 2128.25 399.408 Q2128.25 386.283 2132.83 379.408 Q2137.45 372.498 2146.16 372.498 Z" fill="#000000" fill-rule="evenodd" fill-opacity="1" /><path clip-path="url(#clip520)" d="M2191.4 378.054 Q2185.99 378.054 2183.25 383.401 Q2180.54 388.713 2180.54 399.408 Q2180.54 410.067 2183.25 415.415 Q2185.99 420.727 2191.4 420.727 Q2196.86 420.727 2199.56 415.415 Q2202.31 410.067 2202.31 399.408 Q2202.31 388.713 2199.56 383.401 Q2196.86 378.054 2191.4 378.054 M2191.4 372.498 Q2200.12 372.498 2204.7 379.408 Q2209.32 386.283 2209.32 399.408 Q2209.32 412.498 2204.7 419.408 Q2200.12 426.283 2191.4 426.283 Q2182.69 426.283 2178.07 419.408 Q2173.49 412.498 2173.49 399.408 Q2173.49 386.283 2178.07 379.408 Q2182.69 372.498 2191.4 372.498 Z" fill="#000000" fill-rule="evenodd" fill-opacity="1" /><path clip-path="url(#clip520)" d="M2219.74 371.318 L2225.29 371.318 Q2230.5 379.512 2233.07 387.359 Q2235.68 395.206 2235.68 402.949 Q2235.68 410.727 2233.07 418.609 Q2230.5 426.491 2225.29 434.651 L2219.74 434.651 Q2224.36 426.699 2226.61 418.852 Q2228.9 410.97 2228.9 402.949 Q2228.9 394.929 2226.61 387.116 Q2224.36 379.304 2219.74 371.318 Z" fill="#000000" fill-rule="evenodd" fill-opacity="1" /><polyline clip-path="url(#clip520)" style="stroke:#008000; stroke-linecap:round; stroke-linejoin:round; stroke-width:6; stroke-opacity:1; fill:none" points="
  1436.91,477.116 1577.4,477.116 
  "/>
<path clip-path="url(#clip520)" d="M1600.82 451.196 L1610.26 451.196 L1633.25 494.564 L1633.25 451.196 L1640.05 451.196 L1640.05 503.036 L1630.61 503.036 L1607.62 459.668 L1607.62 503.036 L1600.82 503.036 L1600.82 451.196 Z" fill="#000000" fill-rule="evenodd" fill-opacity="1" /><path clip-path="url(#clip520)" d="M1687 481.994 L1687 485.119 L1657.62 485.119 Q1658.04 491.716 1661.58 495.189 Q1665.16 498.626 1671.51 498.626 Q1675.19 498.626 1678.63 497.723 Q1682.1 496.82 1685.5 495.015 L1685.5 501.057 Q1682.07 502.515 1678.46 503.279 Q1674.85 504.043 1671.13 504.043 Q1661.82 504.043 1656.37 498.626 Q1650.96 493.209 1650.96 483.973 Q1650.96 474.425 1656.1 468.835 Q1661.27 463.21 1670.02 463.21 Q1677.87 463.21 1682.41 468.279 Q1687 473.314 1687 481.994 M1680.61 480.119 Q1680.54 474.876 1677.66 471.751 Q1674.81 468.626 1670.09 468.626 Q1664.74 468.626 1661.51 471.647 Q1658.32 474.668 1657.83 480.154 L1680.61 480.119 Z" fill="#000000" fill-rule="evenodd" fill-opacity="1" /><path clip-path="url(#clip520)" d="M1696.82 487.689 L1696.82 464.147 L1703.21 464.147 L1703.21 487.446 Q1703.21 492.966 1705.37 495.744 Q1707.52 498.487 1711.82 498.487 Q1717 498.487 1719.98 495.189 Q1723 491.89 1723 486.196 L1723 464.147 L1729.39 464.147 L1729.39 503.036 L1723 503.036 L1723 497.064 Q1720.68 500.605 1717.59 502.341 Q1714.53 504.043 1710.47 504.043 Q1703.77 504.043 1700.3 499.876 Q1696.82 495.709 1696.82 487.689 M1712.9 463.21 L1712.9 463.21 Z" fill="#000000" fill-rule="evenodd" fill-opacity="1" /><path clip-path="url(#clip520)" d="M1765.09 470.119 Q1764.01 469.494 1762.73 469.216 Q1761.48 468.904 1759.95 468.904 Q1754.53 468.904 1751.62 472.446 Q1748.73 475.953 1748.73 482.55 L1748.73 503.036 L1742.31 503.036 L1742.31 464.147 L1748.73 464.147 L1748.73 470.189 Q1750.75 466.647 1753.98 464.946 Q1757.21 463.21 1761.82 463.21 Q1762.48 463.21 1763.28 463.314 Q1764.08 463.383 1765.05 463.557 L1765.09 470.119 Z" fill="#000000" fill-rule="evenodd" fill-opacity="1" /><path clip-path="url(#clip520)" d="M1789.46 483.487 Q1781.72 483.487 1778.73 485.258 Q1775.75 487.029 1775.75 491.3 Q1775.75 494.702 1777.97 496.716 Q1780.23 498.695 1784.08 498.695 Q1789.39 498.695 1792.59 494.945 Q1795.82 491.161 1795.82 484.911 L1795.82 483.487 L1789.46 483.487 M1802.21 480.848 L1802.21 503.036 L1795.82 503.036 L1795.82 497.133 Q1793.63 500.675 1790.37 502.376 Q1787.1 504.043 1782.38 504.043 Q1776.41 504.043 1772.87 500.709 Q1769.36 497.341 1769.36 491.716 Q1769.36 485.154 1773.73 481.821 Q1778.14 478.487 1786.86 478.487 L1795.82 478.487 L1795.82 477.862 Q1795.82 473.453 1792.9 471.057 Q1790.02 468.626 1784.78 468.626 Q1781.44 468.626 1778.28 469.425 Q1775.12 470.223 1772.21 471.821 L1772.21 465.918 Q1775.71 464.564 1779.01 463.904 Q1782.31 463.21 1785.43 463.21 Q1793.87 463.21 1798.04 467.585 Q1802.21 471.959 1802.21 480.848 Z" fill="#000000" fill-rule="evenodd" fill-opacity="1" /><path clip-path="url(#clip520)" d="M1815.37 449.008 L1821.75 449.008 L1821.75 503.036 L1815.37 503.036 L1815.37 449.008 Z" fill="#000000" fill-rule="evenodd" fill-opacity="1" /><path clip-path="url(#clip520)" d="M1835.4 451.196 L1865.19 451.196 L1865.19 457.098 L1842.41 457.098 L1842.41 472.376 L1862.97 472.376 L1862.97 478.279 L1842.41 478.279 L1842.41 503.036 L1835.4 503.036 L1835.4 451.196 Z" fill="#000000" fill-rule="evenodd" fill-opacity="1" /><path clip-path="url(#clip520)" d="M1876.3 451.196 L1886.75 451.196 L1899.98 486.473 L1913.28 451.196 L1923.73 451.196 L1923.73 503.036 L1916.89 503.036 L1916.89 457.515 L1903.52 493.07 L1896.48 493.07 L1883.11 457.515 L1883.11 503.036 L1876.3 503.036 L1876.3 451.196 Z" fill="#000000" fill-rule="evenodd" fill-opacity="1" /><path clip-path="url(#clip520)" d="M1936.86 451.196 L1943.91 451.196 L1943.91 482.689 Q1943.91 491.022 1946.93 494.702 Q1949.95 498.348 1956.72 498.348 Q1963.45 498.348 1966.48 494.702 Q1969.5 491.022 1969.5 482.689 L1969.5 451.196 L1976.54 451.196 L1976.54 483.557 Q1976.54 493.695 1971.51 498.869 Q1966.51 504.043 1956.72 504.043 Q1946.89 504.043 1941.86 498.869 Q1936.86 493.695 1936.86 483.557 L1936.86 451.196 Z" fill="#000000" fill-rule="evenodd" fill-opacity="1" /><path clip-path="url(#clip520)" d="M2027.38 449.078 Q2022.73 457.064 2020.47 464.876 Q2018.21 472.689 2018.21 480.709 Q2018.21 488.73 2020.47 496.612 Q2022.76 504.459 2027.38 512.411 L2021.82 512.411 Q2016.61 504.251 2014.01 496.369 Q2011.44 488.487 2011.44 480.709 Q2011.44 472.966 2014.01 465.119 Q2016.58 457.272 2021.82 449.078 L2027.38 449.078 Z" fill="#000000" fill-rule="evenodd" fill-opacity="1" /><path clip-path="url(#clip520)" d="M2040.75 451.196 L2068.28 451.196 L2068.28 457.098 L2047.17 457.098 L2047.17 469.807 Q2048.7 469.286 2050.23 469.043 Q2051.75 468.765 2053.28 468.765 Q2061.96 468.765 2067.03 473.522 Q2072.1 478.279 2072.1 486.404 Q2072.1 494.772 2066.89 499.425 Q2061.68 504.043 2052.2 504.043 Q2048.94 504.043 2045.54 503.487 Q2042.17 502.932 2038.56 501.82 L2038.56 494.772 Q2041.68 496.473 2045.02 497.307 Q2048.35 498.14 2052.07 498.14 Q2058.07 498.14 2061.58 494.98 Q2065.09 491.82 2065.09 486.404 Q2065.09 480.987 2061.58 477.828 Q2058.07 474.668 2052.07 474.668 Q2049.25 474.668 2046.44 475.293 Q2043.66 475.918 2040.75 477.237 L2040.75 451.196 Z" fill="#000000" fill-rule="evenodd" fill-opacity="1" /><path clip-path="url(#clip520)" d="M2100.92 455.814 Q2095.5 455.814 2092.76 461.161 Q2090.05 466.473 2090.05 477.168 Q2090.05 487.827 2092.76 493.175 Q2095.5 498.487 2100.92 498.487 Q2106.37 498.487 2109.08 493.175 Q2111.82 487.827 2111.82 477.168 Q2111.82 466.473 2109.08 461.161 Q2106.37 455.814 2100.92 455.814 M2100.92 450.258 Q2109.63 450.258 2114.22 457.168 Q2118.84 464.043 2118.84 477.168 Q2118.84 490.258 2114.22 497.168 Q2109.63 504.043 2100.92 504.043 Q2092.2 504.043 2087.59 497.168 Q2083 490.258 2083 477.168 Q2083 464.043 2087.59 457.168 Q2092.2 450.258 2100.92 450.258 Z" fill="#000000" fill-rule="evenodd" fill-opacity="1" /><path clip-path="url(#clip520)" d="M2146.16 455.814 Q2140.75 455.814 2138 461.161 Q2135.29 466.473 2135.29 477.168 Q2135.29 487.827 2138 493.175 Q2140.75 498.487 2146.16 498.487 Q2151.61 498.487 2154.32 493.175 Q2157.06 487.827 2157.06 477.168 Q2157.06 466.473 2154.32 461.161 Q2151.61 455.814 2146.16 455.814 M2146.16 450.258 Q2154.88 450.258 2159.46 457.168 Q2164.08 464.043 2164.08 477.168 Q2164.08 490.258 2159.46 497.168 Q2154.88 504.043 2146.16 504.043 Q2137.45 504.043 2132.83 497.168 Q2128.25 490.258 2128.25 477.168 Q2128.25 464.043 2132.83 457.168 Q2137.45 450.258 2146.16 450.258 Z" fill="#000000" fill-rule="evenodd" fill-opacity="1" /><path clip-path="url(#clip520)" d="M2191.4 455.814 Q2185.99 455.814 2183.25 461.161 Q2180.54 466.473 2180.54 477.168 Q2180.54 487.827 2183.25 493.175 Q2185.99 498.487 2191.4 498.487 Q2196.86 498.487 2199.56 493.175 Q2202.31 487.827 2202.31 477.168 Q2202.31 466.473 2199.56 461.161 Q2196.86 455.814 2191.4 455.814 M2191.4 450.258 Q2200.12 450.258 2204.7 457.168 Q2209.32 464.043 2209.32 477.168 Q2209.32 490.258 2204.7 497.168 Q2200.12 504.043 2191.4 504.043 Q2182.69 504.043 2178.07 497.168 Q2173.49 490.258 2173.49 477.168 Q2173.49 464.043 2178.07 457.168 Q2182.69 450.258 2191.4 450.258 Z" fill="#000000" fill-rule="evenodd" fill-opacity="1" /><path clip-path="url(#clip520)" d="M2219.74 449.078 L2225.29 449.078 Q2230.5 457.272 2233.07 465.119 Q2235.68 472.966 2235.68 480.709 Q2235.68 488.487 2233.07 496.369 Q2230.5 504.251 2225.29 512.411 L2219.74 512.411 Q2224.36 504.459 2226.61 496.612 Q2228.9 488.73 2228.9 480.709 Q2228.9 472.689 2226.61 464.876 Q2224.36 457.064 2219.74 449.078 Z" fill="#000000" fill-rule="evenodd" fill-opacity="1" /></svg>
