<svg width="300" height="1210" xmlns="http://www.w3.org/2000/svg" xmlns:xlink="http://www.w3.org/1999/xlink" overflow="hidden"><defs><clipPath id="clip0"><rect x="0" y="0" width="378" height="1210"/></clipPath></defs><g clip-path="url(#clip0)"><rect x="0" y="0" width="378" height="1210.5" fill="#FFFFFF"/><rect x="38.5001" y="378.657" width="302" height="189.078" stroke="#000000" stroke-width="1.33333" stroke-miterlimit="8" fill="#FFFFFF"/><text font-family="Calibri,Calibri_MSFontService,sans-serif" font-weight="400" font-size="24" transform="matrix(1 0 0 1.00041 47.55 556)">ME<tspan font-size="24" x="32.1667" y="0">-</tspan><tspan font-size="24" x="39.5" y="0">FMU</tspan></text><path d="M76.5001 472.695 104.847 472.695" stroke="#000000" stroke-width="1.33333" stroke-miterlimit="8" fill="none" fill-rule="evenodd"/><path d="M104.5 472.695 113.949 491.601" stroke="#000000" stroke-width="1.33333" stroke-miterlimit="8" fill="none" fill-rule="evenodd"/><path d="M76.5001 435.68 76.5002 511.302" stroke="#000000" stroke-width="1.33333" stroke-miterlimit="8" fill="none" fill-rule="evenodd"/><path d="M57.5001 435.68 76.3977 454.586" stroke="#000000" stroke-width="1.33333" stroke-miterlimit="8" fill="none" fill-rule="evenodd"/><rect x="246.5" y="435.68" width="75" height="75.031" stroke="#000000" stroke-width="1.33333" stroke-miterlimit="8" fill="#FFFFFF"/><path d="M57.5001 454.688 76.3977 473.593" stroke="#000000" stroke-width="1.33333" stroke-miterlimit="8" fill="none" fill-rule="evenodd"/><path d="M57.5001 472.695 76.3977 491.601" stroke="#000000" stroke-width="1.33333" stroke-miterlimit="8" fill="none" fill-rule="evenodd"/><path d="M57.5001 491.703 76.3977 510.609" stroke="#000000" stroke-width="1.33333" stroke-miterlimit="8" fill="none" fill-rule="evenodd"/><path d="M217.5 472.695 245.846 472.695" stroke="#000000" stroke-width="1.33333" stroke-miterlimit="8" fill="none" fill-rule="evenodd"/><path d="M217.949 473.593 208.5 454.688" stroke="#000000" stroke-width="1.33333" stroke-miterlimit="8" fill="none" fill-rule="evenodd"/><path d="M0 0 18.8976 37.7953" stroke="#000000" stroke-width="1.33333" stroke-miterlimit="8" fill="none" fill-rule="evenodd" transform="matrix(-1 0 0 1.00041 133.398 454.688)"/><path d="M132.5 454.688 151.398 492.499" stroke="#000000" stroke-width="1.33333" stroke-miterlimit="8" fill="none" fill-rule="evenodd"/><path d="M0 0 18.8976 37.7953" stroke="#000000" stroke-width="1.33333" stroke-miterlimit="8" fill="none" fill-rule="evenodd" transform="matrix(-1 0 0 1.00041 170.398 454.688)"/><path d="M170.5 454.688 189.398 492.499" stroke="#000000" stroke-width="1.33333" stroke-miterlimit="8" fill="none" fill-rule="evenodd"/><path d="M0 0 18.8976 37.7953" stroke="#000000" stroke-width="1.33333" stroke-miterlimit="8" fill="none" fill-rule="evenodd" transform="matrix(-1 0 0 1.00041 208.398 454.688)"/><path d="M72.5001 473.196C72.5001 471.262 74.0671 469.694 76.0001 469.694 77.9331 469.694 79.5001 471.262 79.5001 473.196 79.5001 475.129 77.9331 476.697 76.0001 476.697 74.0671 476.697 72.5001 475.129 72.5001 473.196Z" stroke="#000000" stroke-width="1.33333" stroke-miterlimit="8" fill="#4472C4" fill-rule="evenodd"/><path d="M242.5 473.196C242.5 471.262 244.067 469.694 246 469.694 247.933 469.694 249.5 471.262 249.5 473.196 249.5 475.129 247.933 476.697 246 476.697 244.067 476.697 242.5 475.129 242.5 473.196Z" stroke="#000000" stroke-width="1.33333" stroke-miterlimit="8" fill="#4472C4" fill-rule="evenodd"/><rect x="38.5001" y="643.766" width="302" height="188.078" stroke="#000000" stroke-width="1.33333" stroke-miterlimit="8" fill="#FFFFFF"/><text font-family="Calibri,Calibri_MSFontService,sans-serif" font-weight="400" font-size="24" transform="matrix(1 0 0 1.00041 47.3953 821)">FF<tspan font-size="24" x="22" y="0">-</tspan><tspan font-size="24" x="29.3333" y="0">NN</tspan></text><path d="M180.5 681.282C180.5 676.033 184.753 671.778 190 671.778 195.247 671.778 199.5 676.033 199.5 681.282 199.5 686.53 195.247 690.786 190 690.786 184.753 690.786 180.5 686.53 180.5 681.282Z" stroke="#000000" stroke-width="1.33333" stroke-miterlimit="8" fill="#FFFFFF" fill-rule="evenodd"/><path d="M255.5 681.282C255.5 676.033 259.753 671.778 265 671.778 270.247 671.778 274.5 676.033 274.5 681.282 274.5 686.53 270.247 690.786 265 690.786 259.753 690.786 255.5 686.53 255.5 681.282Z" stroke="#000000" stroke-width="1.33333" stroke-miterlimit="8" fill="#FFFFFF" fill-rule="evenodd"/><path d="M104.5 681.282C104.5 676.033 108.753 671.778 114 671.778 119.247 671.778 123.5 676.033 123.5 681.282 123.5 686.53 119.247 690.786 114 690.786 108.753 690.786 104.5 686.53 104.5 681.282Z" stroke="#000000" stroke-width="1.33333" stroke-miterlimit="8" fill="#FFFFFF" fill-rule="evenodd"/><path d="M142.5 737.805C142.5 732.832 146.753 728.801 152 728.801 157.247 728.801 161.5 732.832 161.5 737.805 161.5 742.778 157.247 746.809 152 746.809 146.753 746.809 142.5 742.778 142.5 737.805Z" stroke="#000000" stroke-width="1.33333" stroke-miterlimit="8" fill="#FFFFFF" fill-rule="evenodd"/><path d="M217.5 737.805C217.5 732.832 221.753 728.801 227 728.801 232.247 728.801 236.5 732.832 236.5 737.805 236.5 742.778 232.247 746.809 227 746.809 221.753 746.809 217.5 742.778 217.5 737.805Z" stroke="#000000" stroke-width="1.33333" stroke-miterlimit="8" fill="#FFFFFF" fill-rule="evenodd"/><path d="M104.5 794.328C104.5 789.079 108.753 784.824 114 784.824 119.247 784.824 123.5 789.079 123.5 794.328 123.5 799.577 119.247 803.832 114 803.832 108.753 803.832 104.5 799.577 104.5 794.328Z" stroke="#000000" stroke-width="1.33333" stroke-miterlimit="8" fill="#FFFFFF" fill-rule="evenodd"/><path d="M180.5 794.328C180.5 789.079 184.753 784.824 190 784.824 195.247 784.824 199.5 789.079 199.5 794.328 199.5 799.577 195.247 803.832 190 803.832 184.753 803.832 180.5 799.577 180.5 794.328Z" stroke="#000000" stroke-width="1.33333" stroke-miterlimit="8" fill="#FFFFFF" fill-rule="evenodd"/><path d="M255.5 794.328C255.5 789.079 259.753 784.824 265 784.824 270.247 784.824 274.5 789.079 274.5 794.328 274.5 799.577 270.247 803.832 265 803.832 259.753 803.832 255.5 799.577 255.5 794.328Z" stroke="#000000" stroke-width="1.33333" stroke-miterlimit="8" fill="#FFFFFF" fill-rule="evenodd"/><path d="M114.5 690.786 152.295 728.596" stroke="#4472C4" stroke-width="0.666667" stroke-miterlimit="8" fill="none" fill-rule="evenodd"/><path d="M0 0 37.7953 37.7953" stroke="#4472C4" stroke-width="0.666667" stroke-miterlimit="8" fill="none" fill-rule="evenodd" transform="matrix(-1 0 0 1.00041 189.295 690.786)"/><path d="M0 0 37.7953 37.7953" stroke="#4472C4" stroke-width="0.666667" stroke-miterlimit="8" fill="none" fill-rule="evenodd" transform="matrix(-1 0 0 1.00041 265.295 690.786)"/><path d="M293.5 737.805C293.5 732.832 297.753 728.801 303 728.801 308.247 728.801 312.5 732.832 312.5 737.805 312.5 742.778 308.247 746.809 303 746.809 297.753 746.809 293.5 742.778 293.5 737.805Z" stroke="#000000" stroke-width="1.33333" stroke-miterlimit="8" fill="#FFFFFF" fill-rule="evenodd"/><path d="M66.5001 737.805C66.5001 732.832 70.7533 728.801 76.0001 728.801 81.2468 728.801 85.5001 732.832 85.5001 737.805 85.5001 742.778 81.2468 746.809 76.0001 746.809 70.7533 746.809 66.5001 742.778 66.5001 737.805Z" stroke="#000000" stroke-width="1.33333" stroke-miterlimit="8" fill="#FFFFFF" fill-rule="evenodd"/><path d="M189.5 690.786 227.295 728.596" stroke="#4472C4" stroke-width="0.666667" stroke-miterlimit="8" fill="none" fill-rule="evenodd"/><path d="M265.5 690.786 303.218 728.596" stroke="#4472C4" stroke-width="0.666667" stroke-miterlimit="8" fill="none" fill-rule="evenodd"/><path d="M0 0 37.7179 37.7953" stroke="#4472C4" stroke-width="0.666667" stroke-miterlimit="8" fill="none" fill-rule="evenodd" transform="matrix(1 0 0 -1.00041 265.5 784.62)"/><path d="M265.295 784.62 227.5 746.809" stroke="#4472C4" stroke-width="0.666667" stroke-miterlimit="8" fill="none" fill-rule="evenodd"/><path d="M0 0 37.8727 37.7953" stroke="#4472C4" stroke-width="0.666667" stroke-miterlimit="8" fill="none" fill-rule="evenodd" transform="matrix(1 0 0 -1.00041 76.5001 728.596)"/><path d="M227.886 728.596 114.5 690.785" stroke="#4472C4" stroke-width="0.666667" stroke-miterlimit="8" fill="none" fill-rule="evenodd"/><path d="M303.399 728.596 114.5 690.785" stroke="#4472C4" stroke-width="0.666667" stroke-miterlimit="8" fill="none" fill-rule="evenodd"/><path d="M0 0 113.463 37.7953" stroke="#4472C4" stroke-width="0.666667" stroke-miterlimit="8" fill="none" fill-rule="evenodd" transform="matrix(-1 0 0 1.00041 189.963 690.786)"/><path d="M189.5 690.786 302.809 728.596" stroke="#4472C4" stroke-width="0.666667" stroke-miterlimit="8" fill="none" fill-rule="evenodd"/><path d="M0 0 113.386 37.7953" stroke="#4472C4" stroke-width="0.666667" stroke-miterlimit="8" fill="none" fill-rule="evenodd" transform="matrix(-1 0 0 1.00041 264.886 690.786)"/><path d="M0 0 189.054 37.7953" stroke="#4472C4" stroke-width="0.666667" stroke-miterlimit="8" fill="none" fill-rule="evenodd" transform="matrix(-1 0 0 1.00041 265.554 690.786)"/><path d="M0 0 113.308 37.7953" stroke="#4472C4" stroke-width="0.666667" stroke-miterlimit="8" fill="none" fill-rule="evenodd" transform="matrix(1 0 0 -1.00041 189.5 784.62)"/><path d="M0 0 188.899 37.7953" stroke="#4472C4" stroke-width="0.666667" stroke-miterlimit="8" fill="none" fill-rule="evenodd" transform="matrix(1 0 0 -1.00041 114.5 784.62)"/><path d="M0 0 37.7953 37.7953" stroke="#4472C4" stroke-width="0.666667" stroke-miterlimit="8" fill="none" fill-rule="evenodd" transform="matrix(1 0 0 -1.00041 189.5 784.62)"/><path d="M0 0 113.386 37.7953" stroke="#4472C4" stroke-width="0.666667" stroke-miterlimit="8" fill="none" fill-rule="evenodd" transform="matrix(1 0 0 -1.00041 114.5 784.62)"/><path d="M264.886 784.62 151.5 746.809" stroke="#4472C4" stroke-width="0.666667" stroke-miterlimit="8" fill="none" fill-rule="evenodd"/><path d="M189.295 784.62 151.5 746.809" stroke="#4472C4" stroke-width="0.666667" stroke-miterlimit="8" fill="none" fill-rule="evenodd"/><path d="M0 0 37.7953 37.7953" stroke="#4472C4" stroke-width="0.666667" stroke-miterlimit="8" fill="none" fill-rule="evenodd" transform="matrix(1 0 0 -1.00041 114.5 784.62)"/><path d="M114.373 784.62 76.5001 746.809" stroke="#4472C4" stroke-width="0.666667" stroke-miterlimit="8" fill="none" fill-rule="evenodd"/><path d="M189.963 784.62 76.5001 746.809" stroke="#4472C4" stroke-width="0.666667" stroke-miterlimit="8" fill="none" fill-rule="evenodd"/><path d="M265.554 784.62 76.5001 746.809" stroke="#4472C4" stroke-width="0.666667" stroke-miterlimit="8" fill="none" fill-rule="evenodd"/><path d="M0.333333-0.000682406 0.474435 68.9233-0.19223 68.9246-0.333333 0.000682406ZM4.13836 67.5824 0.154751 75.5905-3.86162 67.5988Z" fill="#4472C4" transform="matrix(-1 0 0 1.00041 189.655 567.735)"/><text font-family="Cambria Math,Cambria Math_MSFontService,sans-serif" font-weight="400" font-size="24" transform="matrix(1 0 0 1.00041 197.33 615)">𝑥</text><path d="M8.83594-15.668 5.89453-13.125 5.27344-13.8281 7.14844-15.457 0-15.457 0-16.5586 7.14844-16.5586 5.27344-18.1875 5.89453-18.8906 8.83594-16.3477Z" transform="matrix(1 0 0 1.00041 201.123 615)"/><path d="M-3.375-13.5352C-3.75-13.5352-4.0625-13.666-4.3125-13.9277-4.5625-14.1895-4.6875-14.5195-4.6875-14.918-4.6875-15.3164-4.5625-15.6465-4.3125-15.9082-4.0625-16.1699-3.75-16.3008-3.375-16.3008-3.00781-16.3008-2.69922-16.1699-2.44922-15.9082-2.19922-15.6465-2.07422-15.3164-2.07422-14.918-2.07422-14.5195-2.19922-14.1895-2.44922-13.9277-2.69922-13.666-3.00781-13.5352-3.375-13.5352Z" transform="matrix(1 0 0 1.00041 208.483 607)"/><text font-family="Cambria Math,Cambria Math_MSFontService,sans-serif" font-weight="400" font-size="18" transform="matrix(1 0 0 1.00041 209.93 620)">𝑚𝑒</text><path d="M0.333332-0.000909873 0.469885 50.0254-0.196779 50.0272-0.333332 0.000909873ZM4.1329 48.682 0.154751 56.6929-3.86707 48.7039Z" fill="#4472C4" transform="matrix(-1 0 0 1.00041 113.655 321.633)"/><text font-family="Cambria Math,Cambria Math_MSFontService,sans-serif" font-weight="400" font-size="24" transform="matrix(1 0 0 1.00041 121.126 349)">𝑢</text><path d="M18.6279 4.11888 21.5693 6.66185 21.5693 7.34154 18.6279 9.88451 18.0068 9.18138 19.8818 7.55248 15.9446 7.55248 12.7333 7.55248 8.91333 7.55248 8.91333 6.45091 12.7333 6.45091 15.9446 6.45091 19.8818 6.45091 18.0068 4.82201Z" fill-rule="evenodd" transform="matrix(1 0 0 1.00041 113.386 326.027)"/><text font-family="Cambria Math,Cambria Math_MSFontService,sans-serif" font-weight="400" font-size="18" transform="matrix(1 0 0 1.00041 134.959 354)">𝑚𝑒</text><path d="M0.333332-0.000909873 0.469885 50.0254-0.196779 50.0272-0.333332 0.000909873ZM4.1329 48.682 0.154751 56.6929-3.86707 48.7039Z" fill="#4472C4" transform="matrix(-1 0 0 1.00041 265.655 321.633)"/><text font-family="Cambria Math,Cambria Math_MSFontService,sans-serif" font-weight="400" font-size="24" transform="matrix(1 0 0 1.00041 278.354 349)">𝑡</text><path d="M0.333333-0.000682406 0.474435 68.9233-0.19223 68.9246-0.333333 0.000682406ZM4.13836 67.5824 0.154751 75.5905-3.86162 67.5988Z" fill="#4472C4" transform="matrix(-1 0 0 1.00041 189.655 302.625)"/><text font-family="Cambria Math,Cambria Math_MSFontService,sans-serif" font-weight="400" font-size="24" transform="matrix(1 0 0 1.00041 197.33 349)">𝑥</text><path d="M8.83594-15.668 5.89453-13.125 5.27344-13.8281 7.14844-15.457 0-15.457 0-16.5586 7.14844-16.5586 5.27344-18.1875 5.89453-18.8906 8.83594-16.3477Z" transform="matrix(1 0 0 1.00041 201.123 349)"/><text font-family="Cambria Math,Cambria Math_MSFontService,sans-serif" font-weight="400" font-size="18" transform="matrix(1 0 0 1.00041 209.93 354)">𝑚𝑒</text><path d="M0.333333-0.000682406 0.474435 68.9233-0.19223 68.9246-0.333333 0.000682406ZM4.13836 67.5824 0.154751 75.5905-3.86162 67.5988Z" fill="#4472C4" transform="matrix(-1 0 0 1.00041 189.655 831.844)"/><text font-family="Cambria Math,Cambria Math_MSFontService,sans-serif" font-weight="400" font-size="24" transform="matrix(1 0 0 1.00041 199.03 880)">𝑥</text><path d="M8.83594-15.668 5.89453-13.125 5.27344-13.8281 7.14844-15.457 0-15.457 0-16.5586 7.14844-16.5586 5.27344-18.1875 5.89453-18.8906 8.83594-16.3477Z" transform="matrix(1 0 0 1.00041 202.823 880)"/><path d="M-3.375-13.5352C-3.75-13.5352-4.0625-13.666-4.3125-13.9277-4.5625-14.1895-4.6875-14.5195-4.6875-14.918-4.6875-15.3164-4.5625-15.6465-4.3125-15.9082-4.0625-16.1699-3.75-16.3008-3.375-16.3008-3.00781-16.3008-2.69922-16.1699-2.44922-15.9082-2.19922-15.6465-2.07422-15.3164-2.07422-14.918-2.07422-14.5195-2.19922-14.1895-2.44922-13.9277-2.69922-13.666-3.00781-13.5352-3.375-13.5352Z" transform="matrix(1 0 0 1.00041 210.183 872)"/><text font-family="Cambria Math,Cambria Math_MSFontService,sans-serif" font-weight="400" font-size="18" transform="matrix(1 0 0 1.00041 211.63 885)">𝑛𝑛</text><rect x="38.5001" y="907.875" width="302" height="189.078" stroke="#000000" stroke-width="1.33333" stroke-miterlimit="8" fill="#FFFFFF"/><text font-family="Calibri,Calibri_MSFontService,sans-serif" font-weight="400" font-size="24" transform="matrix(1 0 0 1.00041 47.3953 1085)">Numerical<tspan font-size="24" x="105.633" y="0">Solver</tspan></text><rect x="151.5" y="964.899" width="76" height="75.0309" stroke="#000000" stroke-width="1.33333" stroke-miterlimit="8" fill="#FFFFFF"/><text font-family="Cambria Math,Cambria Math_MSFontService,sans-serif" font-weight="400" font-size="24" transform="matrix(1 0 0 1.00041 147.701 1006)"> <tspan font-size="24" x="5.33334" y="0"> </tspan><tspan font-size="24" x="10.6667" y="0"> </tspan><tspan font-size="24" x="16" y="0"> </tspan><tspan font-size="24" x="21.3333" y="0"> </tspan><tspan font-size="24" x="26.6667" y="0"> </tspan></text><path d="M16.4414-29.7656 15.1406-29.7656C15.1172-30.1953 15.0234-30.5215 14.8594-30.7441 14.6953-30.9668 14.3945-31.0781 13.957-31.0781 12.8633-31.0781 12.0664-29.8477 11.5664-27.3867 11.0664-24.9258 10.6172-18.1328 10.2188-7.00781 9.82031 3 9.04492 9.83984 7.89258 13.5117 6.74023 17.1836 5.18359 19.0195 3.22266 19.0195 2.82422 19.0195 2.45703 18.9883 2.12109 18.9258 1.78516 18.8633 1.48828 18.7617 1.23047 18.6211L1.45312 16.0547 2.63672 16.0547C2.75391 16.5703 2.90625 16.9316 3.09375 17.1387 3.28125 17.3457 3.56641 17.4492 3.94922 17.4492 4.65234 17.4492 5.32812 16.2344 5.97656 13.8047 6.625 11.375 7.13281 5.01953 7.5-5.26172 7.95312-16.418 8.68164-23.7637 9.68555-27.2988 10.6895-30.834 12.3516-32.6016 14.6719-32.6016 15.0859-32.6016 15.4629-32.5645 15.8027-32.4902 16.1426-32.416 16.4297-32.3242 16.6641-32.2148Z" transform="matrix(1 0 0 1.00041 179.701 1006)"/><path d="M0.333333-0.000682406 0.474435 68.9233-0.19223 68.9246-0.333333 0.000682406ZM4.13836 67.5824 0.154751 75.5905-3.86162 67.5988Z" fill="#4472C4" transform="matrix(-1 0 0 1.00041 189.655 1096.95)"/><text font-family="Cambria Math,Cambria Math_MSFontService,sans-serif" font-weight="400" font-size="24" transform="matrix(1 0 0 1.00041 200.53 1143)">𝑥</text><path d="M8.83594-15.668 5.89453-13.125 5.27344-13.8281 7.14844-15.457 0-15.457 0-16.5586 7.14844-16.5586 5.27344-18.1875 5.89453-18.8906 8.83594-16.3477Z" transform="matrix(1 0 0 1.00041 204.323 1143)"/><text font-family="Cambria Math,Cambria Math_MSFontService,sans-serif" font-weight="400" font-size="18" transform="matrix(1 0 0 1.00041 213.13 1148)">𝑛𝑛<tspan font-size="24" x="23.96" y="-4.99793">(</tspan><tspan font-size="24" x="33.96" y="-4.99793">𝑡</tspan><tspan font-size="24" x="49.38" y="-4.99793">+</tspan><tspan font-size="24" x="72.7133" y="-4.99793">ℎ</tspan><tspan font-size="24" x="86.46" y="-4.99793">)</tspan></text><rect x="38.5001" y="113.547" width="302" height="189.078" stroke="#000000" stroke-width="1.33333" stroke-miterlimit="8" fill="#FFFFFF"/><text font-family="Calibri,Calibri_MSFontService,sans-serif" font-weight="400" font-size="24" transform="matrix(1 0 0 1.00041 47.3953 291)">FF<tspan font-size="24" x="22" y="0">-</tspan><tspan font-size="24" x="29.3333" y="0">NN</tspan></text><path d="M0.333333-0.000682406 0.474435 68.9233-0.19223 68.9246-0.333333 0.000682406ZM4.13836 67.5824 0.154751 75.5905-3.86162 67.5988Z" fill="#4472C4" transform="matrix(-1 0 0 1.00041 189.655 38.516)"/><text font-family="Cambria Math,Cambria Math_MSFontService,sans-serif" font-weight="400" font-size="24" transform="matrix(1 0 0 1.00041 199.03 84)">𝑥</text><path d="M8.83594-15.668 5.89453-13.125 5.27344-13.8281 7.14844-15.457 0-15.457 0-16.5586 7.14844-16.5586 5.27344-18.1875 5.89453-18.8906 8.83594-16.3477Z" transform="matrix(1 0 0 1.00041 202.823 84)"/><text font-family="Cambria Math,Cambria Math_MSFontService,sans-serif" font-weight="400" font-size="18" transform="matrix(1 0 0 1.00041 211.63 89)">𝑛𝑛</text><path d="M180.5 152.063C180.5 146.814 184.753 142.559 190 142.559 195.247 142.559 199.5 146.814 199.5 152.063 199.5 157.312 195.247 161.567 190 161.567 184.753 161.567 180.5 157.312 180.5 152.063Z" stroke="#000000" stroke-width="1.33333" stroke-miterlimit="8" fill="#FFFFFF" fill-rule="evenodd"/><path d="M255.5 152.063C255.5 146.814 259.753 142.559 265 142.559 270.247 142.559 274.5 146.814 274.5 152.063 274.5 157.312 270.247 161.567 265 161.567 259.753 161.567 255.5 157.312 255.5 152.063Z" stroke="#000000" stroke-width="1.33333" stroke-miterlimit="8" fill="#FFFFFF" fill-rule="evenodd"/><path d="M104.5 152.063C104.5 146.814 108.753 142.559 114 142.559 119.247 142.559 123.5 146.814 123.5 152.063 123.5 157.312 119.247 161.567 114 161.567 108.753 161.567 104.5 157.312 104.5 152.063Z" stroke="#000000" stroke-width="1.33333" stroke-miterlimit="8" fill="#FFFFFF" fill-rule="evenodd"/><path d="M142.5 208.086C142.5 202.837 146.753 198.582 152 198.582 157.247 198.582 161.5 202.837 161.5 208.086 161.5 213.335 157.247 217.59 152 217.59 146.753 217.59 142.5 213.335 142.5 208.086Z" stroke="#000000" stroke-width="1.33333" stroke-miterlimit="8" fill="#FFFFFF" fill-rule="evenodd"/><path d="M217.5 208.086C217.5 202.837 221.753 198.582 227 198.582 232.247 198.582 236.5 202.837 236.5 208.086 236.5 213.335 232.247 217.59 227 217.59 221.753 217.59 217.5 213.335 217.5 208.086Z" stroke="#000000" stroke-width="1.33333" stroke-miterlimit="8" fill="#FFFFFF" fill-rule="evenodd"/><path d="M104.5 265.11C104.5 259.861 108.753 255.606 114 255.606 119.247 255.606 123.5 259.861 123.5 265.11 123.5 270.358 119.247 274.614 114 274.614 108.753 274.614 104.5 270.358 104.5 265.11Z" stroke="#000000" stroke-width="1.33333" stroke-miterlimit="8" fill="#FFFFFF" fill-rule="evenodd"/><path d="M180.5 265.11C180.5 259.861 184.753 255.606 190 255.606 195.247 255.606 199.5 259.861 199.5 265.11 199.5 270.358 195.247 274.614 190 274.614 184.753 274.614 180.5 270.358 180.5 265.11Z" stroke="#000000" stroke-width="1.33333" stroke-miterlimit="8" fill="#FFFFFF" fill-rule="evenodd"/><path d="M255.5 265.11C255.5 259.861 259.753 255.606 265 255.606 270.247 255.606 274.5 259.861 274.5 265.11 274.5 270.358 270.247 274.614 265 274.614 259.753 274.614 255.5 270.358 255.5 265.11Z" stroke="#000000" stroke-width="1.33333" stroke-miterlimit="8" fill="#FFFFFF" fill-rule="evenodd"/><path d="M113.5 161.567 151.295 199.378" stroke="#4472C4" stroke-width="0.666667" stroke-miterlimit="8" fill="none" fill-rule="evenodd"/><path d="M0 0 37.7953 37.7953" stroke="#4472C4" stroke-width="0.666667" stroke-miterlimit="8" fill="none" fill-rule="evenodd" transform="matrix(-1 0 0 1.00041 189.295 161.567)"/><path d="M0 0 37.7953 37.7953" stroke="#4472C4" stroke-width="0.666667" stroke-miterlimit="8" fill="none" fill-rule="evenodd" transform="matrix(-1 0 0 1.00041 265.295 161.567)"/><path d="M293.5 208.086C293.5 202.837 297.753 198.582 303 198.582 308.247 198.582 312.5 202.837 312.5 208.086 312.5 213.335 308.247 217.59 303 217.59 297.753 217.59 293.5 213.335 293.5 208.086Z" stroke="#000000" stroke-width="1.33333" stroke-miterlimit="8" fill="#FFFFFF" fill-rule="evenodd"/><path d="M66.5001 208.086C66.5001 202.837 70.7533 198.582 76.0001 198.582 81.2468 198.582 85.5001 202.837 85.5001 208.086 85.5001 213.335 81.2468 217.59 76.0001 217.59 70.7533 217.59 66.5001 213.335 66.5001 208.086Z" stroke="#000000" stroke-width="1.33333" stroke-miterlimit="8" fill="#FFFFFF" fill-rule="evenodd"/><path d="M189.5 161.567 227.295 199.378" stroke="#4472C4" stroke-width="0.666667" stroke-miterlimit="8" fill="none" fill-rule="evenodd"/><path d="M265.5 161.567 303.218 199.378" stroke="#4472C4" stroke-width="0.666667" stroke-miterlimit="8" fill="none" fill-rule="evenodd"/><path d="M0 0 37.7179 37.7953" stroke="#4472C4" stroke-width="0.666667" stroke-miterlimit="8" fill="none" fill-rule="evenodd" transform="matrix(1 0 0 -1.00041 265.5 255.401)"/><path d="M265.295 255.401 227.5 217.59" stroke="#4472C4" stroke-width="0.666667" stroke-miterlimit="8" fill="none" fill-rule="evenodd"/><path d="M0 0 37.8727 37.7953" stroke="#4472C4" stroke-width="0.666667" stroke-miterlimit="8" fill="none" fill-rule="evenodd" transform="matrix(1 0 0 -1.00041 76.5001 199.378)"/><path d="M226.886 199.378 113.5 161.567" stroke="#4472C4" stroke-width="0.666667" stroke-miterlimit="8" fill="none" fill-rule="evenodd"/><path d="M302.399 199.378 113.5 161.567" stroke="#4472C4" stroke-width="0.666667" stroke-miterlimit="8" fill="none" fill-rule="evenodd"/><path d="M0 0 113.463 37.7953" stroke="#4472C4" stroke-width="0.666667" stroke-miterlimit="8" fill="none" fill-rule="evenodd" transform="matrix(-1 0 0 1.00041 189.963 161.567)"/><path d="M189.5 161.567 302.809 199.378" stroke="#4472C4" stroke-width="0.666667" stroke-miterlimit="8" fill="none" fill-rule="evenodd"/><path d="M0 0 113.386 37.7953" stroke="#4472C4" stroke-width="0.666667" stroke-miterlimit="8" fill="none" fill-rule="evenodd" transform="matrix(-1 0 0 1.00041 264.886 161.567)"/><path d="M0 0 189.054 37.7953" stroke="#4472C4" stroke-width="0.666667" stroke-miterlimit="8" fill="none" fill-rule="evenodd" transform="matrix(-1 0 0 1.00041 265.554 161.567)"/><path d="M0 0 113.308 37.7953" stroke="#4472C4" stroke-width="0.666667" stroke-miterlimit="8" fill="none" fill-rule="evenodd" transform="matrix(1 0 0 -1.00041 189.5 255.401)"/><path d="M0 0 188.899 37.7953" stroke="#4472C4" stroke-width="0.666667" stroke-miterlimit="8" fill="none" fill-rule="evenodd" transform="matrix(1 0 0 -1.00041 113.5 255.401)"/><path d="M0 0 37.7953 37.7953" stroke="#4472C4" stroke-width="0.666667" stroke-miterlimit="8" fill="none" fill-rule="evenodd" transform="matrix(1 0 0 -1.00041 189.5 255.401)"/><path d="M0 0 113.386 37.7953" stroke="#4472C4" stroke-width="0.666667" stroke-miterlimit="8" fill="none" fill-rule="evenodd" transform="matrix(1 0 0 -1.00041 113.5 255.401)"/><path d="M264.886 255.401 151.5 217.59" stroke="#4472C4" stroke-width="0.666667" stroke-miterlimit="8" fill="none" fill-rule="evenodd"/><path d="M189.295 255.401 151.5 217.59" stroke="#4472C4" stroke-width="0.666667" stroke-miterlimit="8" fill="none" fill-rule="evenodd"/><path d="M0 0 37.7953 37.7953" stroke="#4472C4" stroke-width="0.666667" stroke-miterlimit="8" fill="none" fill-rule="evenodd" transform="matrix(1 0 0 -1.00041 113.5 255.401)"/><path d="M114.373 255.401 76.5001 217.59" stroke="#4472C4" stroke-width="0.666667" stroke-miterlimit="8" fill="none" fill-rule="evenodd"/><path d="M189.963 255.401 76.5001 217.59" stroke="#4472C4" stroke-width="0.666667" stroke-miterlimit="8" fill="none" fill-rule="evenodd"/><path d="M265.554 255.401 76.5001 217.59" stroke="#4472C4" stroke-width="0.666667" stroke-miterlimit="8" fill="none" fill-rule="evenodd"/><path d="M0.333332-0.000909873 0.469885 50.0254-0.196779 50.0272-0.333332 0.000909873ZM4.1329 48.682 0.154751 56.6929-3.86707 48.7039Z" fill="#4472C4" transform="matrix(-1 0 0 1.00041 113.655 567.735)"/><text font-family="Cambria Math,Cambria Math_MSFontService,sans-serif" font-weight="400" font-size="24" transform="matrix(1 0 0 1.00041 122.346 614)">𝑦</text><path d="M8.83594-15.668 5.89453-13.125 5.27344-13.8281 7.14844-15.457 0-15.457 0-16.5586 7.14844-16.5586 5.27344-18.1875 5.89453-18.8906 8.83594-16.3477Z" transform="matrix(1 0 0 1.00041 126.372 614)"/><text font-family="Cambria Math,Cambria Math_MSFontService,sans-serif" font-weight="400" font-size="18" transform="matrix(1 0 0 1.00041 133.739 619)">𝑚𝑒</text></g></svg>
