<?xml version="1.0" encoding="UTF-8"?>
<svg xmlns="http://www.w3.org/2000/svg" xmlns:xlink="http://www.w3.org/1999/xlink" width="700px" height="196px" viewBox="0 0 700 196" version="1.1">
<g id="surface1">
<path style=" stroke:none;fill-rule:nonzero;fill:rgb(0%,0%,0%);fill-opacity:1;" d="M 359.589844 5.417969 C 359.589844 6.929688 359.628906 6.96875 360.941406 6.96875 C 362.257812 6.96875 362.296875 6.929688 362.296875 5.417969 C 362.296875 3.910156 362.257812 3.871094 360.941406 3.871094 C 359.628906 3.871094 359.589844 3.910156 359.589844 5.417969 Z M 359.589844 5.417969 "/>
<path style=" stroke:none;fill-rule:nonzero;fill:rgb(0%,0%,0%);fill-opacity:1;" d="M 39.902344 10.566406 L 39.089844 11.457031 L 55.484375 27.867188 L 71.917969 44.316406 L 71.917969 74.121094 L 56.335938 58.519531 L 40.753906 42.921875 L 39.902344 43.8125 L 39.089844 44.742188 L 55.484375 61.152344 L 71.917969 77.601562 L 71.917969 107.40625 L 40.753906 76.210938 L 39.902344 77.097656 L 39.089844 78.027344 L 55.484375 94.4375 L 71.917969 110.886719 L 71.917969 140.691406 L 40.753906 109.496094 L 39.902344 110.386719 L 39.089844 111.3125 L 55.832031 128.074219 C 65.847656 138.097656 72.691406 144.675781 72.847656 144.40625 C 73 144.175781 73.464844 143.980469 73.890625 143.980469 C 74.625 143.980469 74.625 143.402344 74.625 111.277344 L 74.625 78.570312 L 96.664062 78.570312 L 96.664062 87.085938 L 116.382812 87.085938 L 116.382812 78.570312 L 263.3125 78.570312 L 263.3125 87.085938 L 283.03125 87.085938 L 283.03125 78.183594 L 294.207031 78.183594 C 302.671875 78.183594 305.457031 78.300781 305.765625 78.648438 C 306 78.917969 309.246094 84.957031 312.996094 92.039062 L 319.878906 104.890625 L 331.207031 80.621094 C 337.433594 67.230469 342.691406 56.042969 342.886719 55.734375 C 343.15625 55.308594 346.480469 61.617188 355.566406 79.808594 C 362.335938 93.394531 367.980469 104.503906 368.09375 104.503906 C 368.210938 104.503906 373.855469 93.355469 380.660156 79.730469 C 387.46875 66.109375 393.152344 55.117188 393.265625 55.269531 C 393.421875 55.425781 396.242188 60.574219 399.53125 66.765625 L 405.523438 77.988281 L 417.742188 78.105469 L 429.960938 78.183594 L 429.960938 87.085938 L 449.679688 87.085938 L 449.679688 78.570312 L 513.089844 78.570312 L 513.089844 87.085938 L 532.808594 87.085938 L 532.808594 78.570312 L 581.140625 78.570312 L 581.140625 102.179688 L 631.40625 102.179688 L 631.40625 78.570312 L 679.738281 78.570312 L 679.738281 87.085938 L 699.457031 87.085938 L 699.457031 67.347656 L 679.738281 67.347656 L 679.738281 75.472656 L 631.40625 75.472656 L 631.40625 51.863281 L 581.140625 51.863281 L 581.140625 75.472656 L 532.808594 75.472656 L 532.808594 67.347656 L 513.089844 67.347656 L 513.089844 75.472656 L 449.679688 75.472656 L 449.679688 67.347656 L 429.960938 67.347656 L 429.960938 75.859375 L 418.515625 75.785156 L 407.070312 75.667969 L 400.070312 62.546875 L 393.074219 49.425781 L 380.699219 74.273438 C 373.855469 87.898438 368.210938 99.082031 368.09375 99.082031 C 367.980469 99.082031 362.335938 87.9375 355.527344 74.3125 C 348.722656 60.6875 343.039062 49.695312 342.925781 49.851562 C 342.769531 50.007812 337.589844 61 331.402344 74.3125 C 325.214844 87.589844 319.996094 98.621094 319.839844 98.773438 C 319.6875 98.929688 316.785156 93.820312 313.382812 87.472656 L 307.234375 75.859375 L 283.03125 75.859375 L 283.03125 67.347656 L 263.3125 67.347656 L 263.3125 75.472656 L 116.382812 75.472656 L 116.382812 67.347656 L 96.664062 67.347656 L 96.664062 75.472656 L 74.625 75.472656 L 74.625 10.0625 L 71.917969 10.0625 L 71.917969 40.445312 L 56.527344 25.042969 C 48.101562 16.605469 41.0625 9.675781 40.945312 9.675781 C 40.832031 9.675781 40.367188 10.0625 39.902344 10.566406 Z M 629.472656 77.023438 L 629.472656 100.246094 L 583.074219 100.246094 L 583.074219 53.800781 L 629.472656 53.800781 Z M 113.289062 77.214844 L 113.289062 83.988281 L 99.757812 83.988281 L 99.757812 70.441406 L 113.289062 70.441406 Z M 446.585938 77.214844 L 446.585938 83.988281 L 433.054688 83.988281 L 433.054688 70.441406 L 446.585938 70.441406 Z M 696.367188 77.214844 L 696.367188 83.988281 L 682.832031 83.988281 L 682.832031 70.441406 L 696.367188 70.441406 Z M 696.367188 77.214844 "/>
<path style=" stroke:none;fill-rule:nonzero;fill:rgb(0%,0%,0%);fill-opacity:1;" d="M 316.167969 10.605469 C 313.460938 11.613281 312.109375 13.625 312.570312 15.984375 C 312.996094 18.230469 314.929688 19.507812 319.375 20.511719 C 322.160156 21.132812 323.242188 21.828125 323.242188 23.027344 C 323.242188 24.382812 321.542969 25.546875 319.492188 25.546875 C 317.328125 25.546875 315.742188 24.730469 315.125 23.261719 C 314.699219 22.214844 314.503906 22.140625 313.421875 22.332031 C 312.765625 22.449219 312.148438 22.640625 312.03125 22.71875 C 311.953125 22.796875 312.300781 23.6875 312.804688 24.695312 C 314.15625 27.171875 315.742188 28.023438 319.183594 28.0625 C 323.515625 28.0625 326.066406 26.085938 326.066406 22.640625 C 326.066406 19.972656 324.867188 18.925781 320.226562 17.570312 C 315.164062 16.140625 314.195312 15.25 315.898438 13.546875 C 317.058594 12.386719 320.652344 12.460938 321.851562 13.664062 C 322.355469 14.164062 322.816406 14.746094 322.894531 14.980469 C 322.972656 15.210938 323.589844 15.289062 324.324219 15.210938 C 325.410156 15.015625 325.5625 14.863281 325.332031 14.164062 C 324.90625 12.773438 324.054688 11.648438 322.894531 11.03125 C 321.195312 10.179688 317.90625 9.945312 316.167969 10.605469 Z M 316.167969 10.605469 "/>
<path style=" stroke:none;fill-rule:nonzero;fill:rgb(0%,0%,0%);fill-opacity:1;" d="M 335.734375 10.335938 C 335.230469 10.410156 334.339844 11.03125 333.683594 11.648438 L 332.523438 12.851562 L 332.523438 11.648438 C 332.523438 10.527344 332.40625 10.449219 331.167969 10.449219 L 329.816406 10.449219 L 329.816406 34.445312 L 332.523438 34.445312 L 332.523438 25.894531 L 333.800781 26.859375 C 335.460938 28.136719 337.007812 28.449219 338.980469 27.90625 C 342.34375 26.976562 344.121094 24.382812 344.433594 19.894531 C 344.859375 13.277344 341.183594 9.289062 335.734375 10.335938 Z M 339.675781 13.625 C 342.421875 15.753906 342.613281 21.480469 340.0625 24.230469 C 338.632812 25.738281 336.816406 25.972656 334.84375 24.964844 C 331.632812 23.300781 331.324219 16.992188 334.261719 14.050781 C 335.847656 12.460938 338.015625 12.308594 339.675781 13.625 Z M 339.675781 13.625 "/>
<path style=" stroke:none;fill-rule:nonzero;fill:rgb(0%,0%,0%);fill-opacity:1;" d="M 353.132812 10.449219 C 352.667969 10.644531 352.050781 11.148438 351.777344 11.613281 C 351.121094 12.65625 350.695312 12.578125 350.695312 11.417969 C 350.695312 10.605469 350.503906 10.449219 349.535156 10.449219 L 348.375 10.449219 L 348.375 27.867188 L 351.082031 27.867188 L 351.082031 22.332031 C 351.082031 19.3125 351.277344 16.179688 351.507812 15.367188 C 352.011719 13.46875 353.363281 12.617188 355.257812 12.925781 C 356.613281 13.121094 356.765625 13.042969 357.152344 12 C 357.539062 10.953125 357.5 10.875 356.378906 10.488281 C 355.027344 9.984375 354.292969 9.984375 353.132812 10.449219 Z M 353.132812 10.449219 "/>
<path style=" stroke:none;fill-rule:nonzero;fill:rgb(0%,0%,0%);fill-opacity:1;" d="M 372.621094 10.605469 C 371.769531 10.914062 370.6875 11.535156 370.183594 12.039062 L 369.253906 12.886719 L 369.253906 11.6875 C 369.253906 10.566406 369.140625 10.449219 368.09375 10.449219 L 366.933594 10.449219 L 366.933594 27.867188 L 369.640625 27.867188 L 369.640625 22.527344 C 369.640625 16.140625 369.988281 14.554688 371.691406 13.546875 C 373.238281 12.578125 375.480469 12.539062 376.5625 13.429688 C 377.761719 14.4375 378.109375 16.488281 378.148438 22.527344 L 378.148438 27.867188 L 380.933594 27.867188 L 380.777344 20.785156 C 380.660156 13.199219 380.46875 12.386719 378.417969 11.03125 C 377.105469 10.179688 374.320312 9.984375 372.621094 10.605469 Z M 372.621094 10.605469 "/>
<path style=" stroke:none;fill-rule:nonzero;fill:rgb(0%,0%,0%);fill-opacity:1;" d="M 389.476562 10.488281 C 387.582031 11.070312 385.609375 13.238281 384.914062 15.558594 C 384.179688 18.074219 384.179688 19.855469 384.914062 22.371094 C 386.382812 27.324219 391.679688 29.339844 395.507812 26.398438 L 396.824219 25.429688 L 396.59375 27.480469 C 396.167969 30.925781 394.890625 32.125 391.527344 32.125 C 389.785156 32.125 387.816406 31.003906 387.816406 29.996094 C 387.816406 29.726562 387.234375 29.414062 386.460938 29.339844 C 385.261719 29.183594 385.109375 29.300781 385.109375 30.113281 C 385.109375 32.9375 387.660156 34.640625 391.875 34.601562 C 395.933594 34.601562 398.253906 32.976562 399.027344 29.570312 C 399.222656 28.757812 399.414062 24.113281 399.414062 19.234375 L 399.414062 10.449219 L 398.0625 10.449219 C 396.941406 10.449219 396.707031 10.605469 396.707031 11.261719 L 396.707031 12.074219 L 395.394531 11.261719 C 393.847656 10.296875 391.179688 9.945312 389.476562 10.488281 Z M 394.699219 13.738281 C 396.359375 15.132812 396.824219 16.605469 396.628906 19.777344 C 396.476562 22.371094 396.398438 22.601562 395.046875 23.84375 C 394 24.808594 393.265625 25.15625 392.261719 25.15625 C 390.367188 25.15625 388.742188 24.230469 387.929688 22.71875 C 387.117188 21.171875 387.042969 17.339844 387.777344 15.519531 C 388.898438 12.851562 392.53125 11.921875 394.699219 13.738281 Z M 394.699219 13.738281 "/>
<path style=" stroke:none;fill-rule:nonzero;fill:rgb(0%,0%,0%);fill-opacity:1;" d="M 359.589844 19.160156 L 359.589844 27.867188 L 362.296875 27.867188 L 362.296875 10.449219 L 359.589844 10.449219 Z M 359.589844 19.160156 "/>
<path style=" stroke:none;fill-rule:nonzero;fill:rgb(0%,0%,0%);fill-opacity:1;" d="M 573.875 19.3125 C 572.984375 19.738281 572.132812 20.359375 572.015625 20.707031 C 571.628906 21.675781 571.089844 21.363281 571.089844 20.125 C 571.089844 19.082031 570.972656 18.964844 569.929688 18.964844 L 568.769531 18.964844 L 568.769531 36.382812 L 571.476562 36.382812 L 571.476562 31.042969 C 571.476562 24.886719 571.824219 23.183594 573.371094 22.0625 C 574.839844 21.054688 577.042969 21.054688 578.050781 22.0625 C 578.746094 22.757812 578.824219 23.339844 578.824219 29.609375 L 578.824219 36.382812 L 581.914062 36.382812 L 581.914062 30.382812 C 581.914062 26.589844 582.070312 24.035156 582.378906 23.417969 C 583.308594 21.402344 586.441406 20.628906 588.140625 22.023438 C 589.03125 22.757812 589.070312 22.953125 589.183594 29.570312 L 589.300781 36.382812 L 591.96875 36.382812 L 591.96875 29.492188 C 591.96875 23.765625 591.851562 22.410156 591.273438 21.289062 C 589.804688 18.308594 585.511719 17.765625 582.804688 20.28125 L 581.414062 21.558594 L 580.214844 20.242188 C 578.628906 18.539062 576.269531 18.191406 573.875 19.3125 Z M 573.875 19.3125 "/>
<path style=" stroke:none;fill-rule:nonzero;fill:rgb(0%,0%,0%);fill-opacity:1;" d="M 600.515625 19.121094 C 598.582031 19.777344 597.265625 20.902344 596.570312 22.488281 C 596.027344 23.804688 596.027344 23.804688 597.574219 24.113281 C 598.617188 24.304688 598.8125 24.191406 599.238281 23.261719 C 599.816406 21.90625 601.171875 21.289062 603.414062 21.289062 C 606.234375 21.289062 607.433594 22.140625 607.433594 24.269531 C 607.433594 25.46875 607.433594 25.46875 604.652344 25.894531 C 598.117188 26.9375 596.957031 27.480469 595.988281 29.996094 C 593.941406 35.414062 600.863281 38.820312 606.390625 35.066406 L 607.78125 34.097656 L 608.015625 35.261719 C 608.246094 36.265625 608.441406 36.382812 609.792969 36.382812 C 610.953125 36.382812 611.261719 36.265625 611.03125 35.878906 C 610.875 35.648438 610.605469 32.433594 610.488281 28.835938 C 610.257812 21.714844 609.988281 20.667969 608.207031 19.585938 C 606.660156 18.695312 602.640625 18.460938 600.515625 19.121094 Z M 607.433594 29.414062 C 607.433594 32.28125 605.386719 34.058594 602.097656 34.058594 C 600.242188 34.058594 598.542969 32.859375 598.542969 31.542969 C 598.542969 30.113281 600.128906 29.183594 603.453125 28.679688 C 605.078125 28.449219 606.507812 28.136719 606.621094 28.0625 C 607.125 27.519531 607.433594 28.023438 607.433594 29.414062 Z M 607.433594 29.414062 "/>
<path style=" stroke:none;fill-rule:nonzero;fill:rgb(0%,0%,0%);fill-opacity:1;" d="M 618.144531 19.121094 C 615.4375 20.125 614.085938 22.140625 614.550781 24.5 C 614.972656 26.746094 616.90625 28.023438 621.355469 29.027344 C 624.136719 29.648438 625.222656 30.34375 625.222656 31.542969 C 625.222656 32.898438 623.519531 34.058594 621.46875 34.058594 C 619.304688 34.058594 617.71875 33.246094 617.101562 31.777344 C 616.675781 30.730469 616.484375 30.652344 615.398438 30.847656 C 614.742188 30.964844 614.125 31.15625 614.007812 31.234375 C 613.929688 31.3125 614.277344 32.203125 614.78125 33.207031 C 616.132812 35.6875 617.71875 36.539062 621.160156 36.574219 C 625.492188 36.574219 628.042969 34.601562 628.042969 31.15625 C 628.042969 28.488281 626.84375 27.441406 622.203125 26.085938 C 617.140625 24.65625 616.171875 23.765625 617.875 22.0625 C 619.035156 20.902344 622.628906 20.976562 623.828125 22.175781 C 624.332031 22.679688 624.796875 23.261719 624.871094 23.492188 C 624.949219 23.726562 625.570312 23.804688 626.304688 23.726562 C 627.386719 23.53125 627.539062 23.378906 627.308594 22.679688 C 626.882812 21.289062 626.03125 20.164062 624.871094 19.546875 C 623.171875 18.695312 619.886719 18.460938 618.144531 19.121094 Z M 618.144531 19.121094 "/>
<path style=" stroke:none;fill-rule:nonzero;fill:rgb(0%,0%,0%);fill-opacity:1;" d="M 634.769531 19.121094 C 632.066406 20.125 630.710938 22.140625 631.175781 24.5 C 631.601562 26.746094 633.535156 28.023438 637.980469 29.027344 C 640.765625 29.648438 641.847656 30.34375 641.847656 31.542969 C 641.847656 32.898438 640.144531 34.058594 638.097656 34.058594 C 635.929688 34.058594 634.347656 33.246094 633.726562 31.777344 C 633.300781 30.730469 633.109375 30.652344 632.027344 30.847656 C 631.367188 30.964844 630.75 31.15625 630.632812 31.234375 C 630.558594 31.3125 630.90625 32.203125 631.40625 33.207031 C 632.761719 35.6875 634.347656 36.539062 637.789062 36.574219 C 642.117188 36.574219 644.667969 34.601562 644.667969 31.15625 C 644.667969 28.488281 643.472656 27.441406 638.832031 26.085938 C 633.765625 24.65625 632.800781 23.765625 634.5 22.0625 C 635.660156 20.902344 639.257812 20.976562 640.457031 22.175781 C 640.957031 22.679688 641.421875 23.261719 641.5 23.492188 C 641.578125 23.726562 642.195312 23.804688 642.929688 23.726562 C 644.011719 23.53125 644.167969 23.378906 643.933594 22.679688 C 643.507812 21.289062 642.660156 20.164062 641.5 19.546875 C 639.796875 18.695312 636.511719 18.460938 634.769531 19.121094 Z M 634.769531 19.121094 "/>
<path style=" stroke:none;fill-rule:nonzero;fill:rgb(0%,0%,0%);fill-opacity:1;" d="M 20.878906 43.542969 L 20.878906 44.898438 L 5.800781 44.898438 L 5.800781 47.605469 L 20.878906 47.605469 L 20.878906 49.347656 C 20.878906 50.933594 20.957031 51.089844 21.847656 51.089844 C 22.734375 51.089844 22.8125 50.933594 22.8125 49.347656 L 22.8125 47.605469 L 24.550781 47.605469 C 25.984375 47.605469 26.371094 47.761719 26.910156 48.574219 C 27.335938 49.230469 27.453125 49.96875 27.296875 50.703125 C 27.144531 51.671875 27.21875 51.863281 27.800781 51.863281 C 28.226562 51.863281 28.804688 51.980469 29.152344 52.097656 C 29.695312 52.289062 29.773438 51.941406 29.773438 49.8125 C 29.773438 47.683594 29.617188 47.101562 28.84375 46.175781 C 28.03125 45.246094 27.53125 45.050781 25.441406 44.898438 C 23.007812 44.703125 23.007812 44.703125 22.890625 43.425781 C 22.773438 42.421875 22.621094 42.1875 21.808594 42.1875 C 20.996094 42.1875 20.878906 42.382812 20.878906 43.542969 Z M 20.878906 43.542969 "/>
<path style=" stroke:none;fill-rule:nonzero;fill:rgb(0%,0%,0%);fill-opacity:1;" d="M 5.800781 54.960938 L 5.800781 56.507812 L 22.8125 56.507812 L 22.8125 53.414062 L 5.800781 53.414062 Z M 5.800781 54.960938 "/>
<path style=" stroke:none;fill-rule:nonzero;fill:rgb(0%,0%,0%);fill-opacity:1;" d="M 26.292969 54.960938 L 26.292969 56.507812 L 29.386719 56.507812 L 29.386719 53.414062 L 26.292969 53.414062 Z M 26.292969 54.960938 "/>
<path style=" stroke:none;fill-rule:nonzero;fill:rgb(0%,0%,0%);fill-opacity:1;" d="M 5.800781 60.535156 C 5.800781 62.238281 5.800781 62.277344 8.894531 64.441406 C 10.59375 65.644531 11.910156 66.765625 11.832031 66.921875 C 11.714844 67.113281 10.324219 68.082031 8.699219 69.125 C 5.839844 70.984375 5.800781 71.0625 5.800781 72.648438 C 5.800781 73.578125 5.878906 74.3125 5.992188 74.3125 C 6.109375 74.3125 8.121094 72.996094 10.441406 71.410156 L 14.652344 68.46875 L 18.714844 71.371094 L 22.8125 74.3125 L 22.8125 72.453125 C 22.8125 70.636719 22.8125 70.636719 20.105469 68.777344 C 18.597656 67.773438 17.398438 66.765625 17.398438 66.570312 C 17.398438 66.417969 18.132812 65.796875 19.0625 65.257812 C 22.347656 63.28125 22.890625 62.664062 22.734375 60.921875 L 22.621094 59.296875 L 18.945312 61.964844 C 16.933594 63.398438 15.039062 64.597656 14.730469 64.636719 C 14.460938 64.636719 12.566406 63.4375 10.476562 62.003906 C 8.429688 60.574219 6.535156 59.257812 6.300781 59.0625 C 5.914062 58.871094 5.800781 59.21875 5.800781 60.535156 Z M 5.800781 60.535156 "/>
<path style=" stroke:none;fill-rule:nonzero;fill:rgb(0%,0%,0%);fill-opacity:1;" d="M 10.75 76.867188 C 9.703125 77.175781 8.3125 78.027344 7.578125 78.765625 C 3.867188 82.441406 5.140625 89.949219 9.742188 91.691406 C 10.75 92.078125 10.828125 92.039062 11.058594 90.683594 C 11.25 89.601562 11.175781 89.214844 10.789062 89.058594 C 10.476562 88.980469 9.667969 88.324219 9.007812 87.628906 C 6.6875 85.34375 7.5 81.628906 10.632812 80.117188 C 13.609375 78.6875 13.53125 78.53125 13.53125 85.730469 L 13.53125 92.117188 L 15.390625 92.117188 C 18.09375 92.117188 20.996094 90.570312 22.234375 88.480469 C 23.46875 86.351562 23.585938 82.75 22.425781 80.503906 C 20.648438 76.984375 15.542969 75.398438 10.75 76.867188 Z M 17.941406 79.886719 C 19.914062 80.699219 20.878906 82.207031 20.878906 84.453125 C 20.878906 86.117188 20.726562 86.542969 19.566406 87.703125 C 18.636719 88.632812 17.902344 89.019531 17.050781 89.019531 L 15.851562 89.019531 L 15.851562 84.183594 C 15.851562 81.125 16.007812 79.34375 16.238281 79.34375 C 16.472656 79.34375 17.207031 79.578125 17.941406 79.886719 Z M 17.941406 79.886719 "/>
<path style=" stroke:none;fill-rule:nonzero;fill:rgb(0%,0%,0%);fill-opacity:1;" d="M 551.757812 101.597656 L 551.757812 114.179688 L 546.730469 114.179688 L 546.730469 137.015625 L 577.855469 137.015625 L 570.78125 144.097656 L 563.703125 151.179688 L 564.710938 152.109375 L 565.714844 153.039062 L 581.722656 137.015625 L 594.867188 137.015625 L 580.5625 151.335938 L 581.453125 152.1875 L 582.300781 153.078125 L 590.34375 145.027344 L 598.347656 137.015625 L 611.496094 137.015625 L 604.339844 144.175781 L 597.1875 151.335938 L 598.078125 152.1875 L 598.929688 153.078125 L 606.972656 145.027344 L 614.972656 137.015625 L 628.121094 137.015625 L 613.816406 151.335938 L 614.703125 152.1875 L 615.554688 153.078125 L 623.597656 145.027344 L 631.601562 137.015625 L 666.207031 137.015625 L 666.207031 114.179688 L 661.179688 114.179688 L 661.179688 89.019531 L 651.511719 89.019531 L 651.511719 114.179688 L 561.035156 114.179688 L 561.035156 89.019531 L 551.757812 89.019531 Z M 663.113281 125.402344 L 663.113281 133.917969 L 549.4375 133.917969 L 549.4375 116.886719 L 663.113281 116.886719 Z M 663.113281 125.402344 "/>
<path style=" stroke:none;fill-rule:nonzero;fill:rgb(0%,0%,0%);fill-opacity:1;" d="M 10.671875 95.367188 C 7.039062 96.722656 5.296875 99.199219 5.527344 102.683594 C 5.644531 104.464844 5.878906 105.121094 6.765625 106.050781 L 7.886719 107.210938 L 6.84375 107.210938 C 5.914062 107.210938 5.800781 107.367188 5.800781 108.566406 L 5.800781 109.921875 L 29.386719 109.921875 L 29.386719 106.824219 L 21.304688 106.824219 L 22.269531 105.355469 C 23.121094 104.117188 23.238281 103.613281 23.121094 101.597656 C 22.96875 98.773438 21.921875 97.109375 19.601562 95.910156 C 17.515625 94.828125 12.835938 94.554688 10.671875 95.367188 Z M 17.980469 98.308594 C 22.078125 99.859375 21.730469 105.625 17.476562 106.824219 C 15.464844 107.367188 12.179688 107.289062 10.671875 106.667969 C 6.804688 105.042969 6.765625 100.128906 10.59375 98.464844 C 11.984375 97.84375 16.511719 97.769531 17.980469 98.308594 Z M 17.980469 98.308594 "/>
<path style=" stroke:none;fill-rule:nonzero;fill:rgb(0%,0%,0%);fill-opacity:1;" d="M 336.3125 117.042969 C 335.734375 117.738281 334.496094 118.824219 333.527344 119.441406 C 332.292969 120.214844 331.75 120.835938 331.75 121.417969 C 331.75 122.617188 332.367188 122.539062 334.457031 121.144531 L 336.195312 119.984375 L 336.3125 127.144531 L 336.390625 134.304688 L 338.710938 134.304688 L 338.710938 125.015625 C 338.710938 116.421875 338.671875 115.726562 338.050781 115.726562 C 337.664062 115.726562 336.890625 116.308594 336.3125 117.042969 Z M 336.3125 117.042969 "/>
<path style=" stroke:none;fill-rule:nonzero;fill:rgb(0%,0%,0%);fill-opacity:1;" d="M 348.144531 116.269531 C 345.4375 117.507812 344.277344 120.875 344.585938 126.601562 C 344.894531 132.058594 346.675781 134.5 350.269531 134.5 C 354.40625 134.5 355.800781 132.410156 356.03125 125.984375 C 356.148438 122.34375 356.070312 121.417969 355.375 119.519531 C 354.871094 118.28125 354.136719 117.082031 353.597656 116.734375 C 352.242188 115.84375 349.574219 115.609375 348.144531 116.269531 Z M 352.589844 118.976562 C 353.671875 120.101562 354.175781 122.113281 354.175781 125.210938 C 354.175781 129.777344 352.859375 132.371094 350.617188 132.371094 C 347.71875 132.371094 346.828125 130.707031 346.828125 125.402344 C 346.828125 119.828125 347.71875 118.085938 350.542969 118.050781 C 351.316406 118.050781 352.050781 118.398438 352.589844 118.976562 Z M 352.589844 118.976562 "/>
<path style=" stroke:none;fill-rule:nonzero;fill:rgb(0%,0%,0%);fill-opacity:1;" d="M 366.550781 125.015625 L 366.550781 134.304688 L 368.867188 134.304688 L 368.945312 127.066406 L 369.0625 119.867188 L 373.855469 127.066406 C 378.226562 133.648438 378.765625 134.304688 379.734375 134.304688 L 380.855469 134.304688 L 380.855469 115.726562 L 378.921875 115.726562 L 378.921875 122.886719 C 378.921875 126.835938 378.804688 130.046875 378.652344 130.046875 C 378.457031 130.046875 376.253906 126.835938 373.703125 122.886719 C 369.253906 116.035156 369.023438 115.726562 367.824219 115.726562 L 366.550781 115.726562 Z M 366.550781 125.015625 "/>
<path style=" stroke:none;fill-rule:nonzero;fill:rgb(0%,0%,0%);fill-opacity:1;" d="M 388.394531 116.191406 C 388.316406 116.460938 387.15625 120.449219 385.882812 125.015625 C 384.605469 129.582031 383.445312 133.570312 383.367188 133.800781 C 383.253906 134.113281 383.5625 134.304688 384.101562 134.304688 C 384.914062 134.304688 385.148438 133.6875 387.429688 125.480469 C 388.78125 120.640625 389.941406 116.460938 390.058594 116.191406 C 390.136719 115.921875 389.902344 115.726562 389.398438 115.726562 C 388.9375 115.726562 388.472656 115.957031 388.394531 116.191406 Z M 388.394531 116.191406 "/>
<path style=" stroke:none;fill-rule:nonzero;fill:rgb(0%,0%,0%);fill-opacity:1;" d="M 305.535156 121.144531 C 304.257812 121.726562 303.71875 122.269531 303.136719 123.546875 C 302.132812 125.75 302.132812 129.3125 303.136719 131.519531 C 304.605469 134.769531 309.441406 135.660156 311.992188 133.144531 C 312.996094 132.097656 313.847656 130.203125 313.460938 129.816406 C 312.917969 129.273438 311.566406 129.390625 311.375 129.96875 C 310.523438 132.445312 307.546875 133.183594 305.765625 131.402344 C 303.871094 129.503906 304.066406 125.09375 306.113281 123.507812 C 307.855469 122.113281 310.675781 122.695312 311.296875 124.589844 C 311.410156 124.859375 311.835938 124.898438 312.496094 124.707031 L 313.578125 124.433594 L 312.882812 123.082031 C 312.148438 121.570312 310.136719 120.371094 308.355469 120.371094 C 307.738281 120.371094 306.460938 120.71875 305.535156 121.144531 Z M 305.535156 121.144531 "/>
<path style=" stroke:none;fill-rule:nonzero;fill:rgb(0%,0%,0%);fill-opacity:1;" d="M 396.128906 120.835938 C 395.703125 121.066406 394.96875 121.609375 394.503906 122.035156 L 393.613281 122.808594 L 393.613281 121.804688 C 393.613281 121.027344 393.421875 120.757812 392.839844 120.757812 C 392.105469 120.757812 392.066406 121.027344 392.066406 127.53125 L 392.066406 134.304688 L 392.996094 134.304688 C 393.925781 134.304688 393.925781 134.304688 394.078125 129.503906 C 394.195312 125.015625 394.273438 124.628906 395.160156 123.660156 C 395.894531 122.886719 396.398438 122.695312 397.441406 122.769531 C 399.453125 122.925781 399.800781 123.933594 399.800781 129.542969 L 399.800781 134.304688 L 400.730469 134.304688 C 401.65625 134.304688 401.65625 134.265625 401.773438 129.503906 C 401.929688 125.054688 402.003906 124.628906 402.855469 123.699219 C 403.976562 122.5 405.949219 122.34375 406.875 123.390625 C 407.417969 123.972656 407.535156 125.015625 407.535156 129.195312 L 407.535156 134.304688 L 409.929688 134.304688 L 409.777344 128.539062 C 409.660156 123.082031 409.621094 122.695312 408.734375 121.765625 C 408.230469 121.222656 407.339844 120.679688 406.722656 120.566406 C 405.253906 120.253906 403.050781 120.992188 402.3125 122.035156 L 401.695312 122.886719 L 401.039062 122.074219 C 399.761719 120.449219 397.714844 119.945312 396.128906 120.835938 Z M 396.128906 120.835938 "/>
<path style=" stroke:none;fill-rule:nonzero;fill:rgb(0%,0%,0%);fill-opacity:1;" d="M 315.511719 122.695312 L 315.511719 123.855469 L 327.496094 123.855469 L 327.496094 121.53125 L 315.511719 121.53125 Z M 315.511719 122.695312 "/>
<path style=" stroke:none;fill-rule:nonzero;fill:rgb(0%,0%,0%);fill-opacity:1;" d="M 315.511719 128.113281 L 315.511719 129.273438 L 327.496094 129.273438 L 327.496094 126.949219 L 315.511719 126.949219 Z M 315.511719 128.113281 "/>
<path style=" stroke:none;fill-rule:nonzero;fill:rgb(0%,0%,0%);fill-opacity:1;" d="M 371.960938 146.496094 L 371.960938 150.5625 L 306.230469 150.5625 L 306.230469 153.65625 L 371.960938 153.65625 L 371.960938 162.09375 L 386.65625 157.21875 C 394.734375 154.507812 401.191406 152.1875 401.039062 152.070312 C 400.769531 151.800781 372.734375 142.433594 372.234375 142.433594 C 372.078125 142.433594 371.960938 144.253906 371.960938 146.496094 Z M 371.960938 146.496094 "/>
<path style=" stroke:none;fill-rule:nonzero;fill:rgb(0%,0%,0%);fill-opacity:1;" d="M 646.875 154.78125 L 646.875 159.074219 L 573.023438 159.074219 L 573.023438 162.171875 L 646.875 162.171875 L 646.875 166.234375 C 646.875 168.480469 646.988281 170.300781 647.144531 170.300781 C 647.335938 170.300781 654.066406 168.09375 662.148438 165.382812 L 676.839844 160.507812 L 662.53125 155.707031 C 654.644531 153.078125 647.917969 150.832031 647.570312 150.714844 C 646.949219 150.523438 646.875 150.871094 646.875 154.78125 Z M 646.875 154.78125 "/>
<path style=" stroke:none;fill-rule:nonzero;fill:rgb(0%,0%,0%);fill-opacity:1;" d="M 607.359375 171.230469 C 606.777344 171.925781 605.539062 173.007812 604.574219 173.628906 C 603.335938 174.402344 602.796875 175.023438 602.796875 175.601562 C 602.796875 176.800781 603.414062 176.726562 605.5 175.332031 L 607.242188 174.171875 L 607.359375 181.332031 L 607.433594 188.492188 L 609.753906 188.492188 L 609.753906 179.203125 C 609.753906 170.609375 609.714844 169.914062 609.097656 169.914062 C 608.710938 169.914062 607.9375 170.492188 607.359375 171.230469 Z M 607.359375 171.230469 "/>
<path style=" stroke:none;fill-rule:nonzero;fill:rgb(0%,0%,0%);fill-opacity:1;" d="M 623.675781 179.203125 L 623.675781 188.492188 L 624.640625 188.492188 C 625.570312 188.492188 625.609375 188.414062 625.609375 185.898438 C 625.609375 183.769531 625.761719 183.148438 626.457031 182.414062 L 627.308594 181.523438 L 629.550781 185.007812 C 631.523438 188.144531 631.871094 188.492188 632.953125 188.492188 C 633.574219 188.492188 634.113281 188.414062 634.113281 188.296875 C 634.113281 188.21875 632.992188 186.402344 631.601562 184.273438 C 630.207031 182.183594 629.085938 180.324219 629.085938 180.132812 C 629.085938 179.9375 630.171875 178.699219 631.484375 177.382812 L 633.882812 174.945312 L 632.566406 174.945312 C 631.445312 174.945312 630.828125 175.371094 628.429688 177.730469 L 625.609375 180.519531 L 625.609375 169.914062 L 623.675781 169.914062 Z M 623.675781 179.203125 "/>
<path style=" stroke:none;fill-rule:nonzero;fill:rgb(0%,0%,0%);fill-opacity:1;" d="M 569.734375 175.023438 C 569.3125 175.253906 568.574219 175.796875 568.113281 176.222656 L 567.222656 176.996094 L 567.222656 175.988281 C 567.222656 175.214844 567.03125 174.945312 566.449219 174.945312 C 565.714844 174.945312 565.675781 175.214844 565.675781 181.71875 L 565.675781 188.492188 L 566.605469 188.492188 C 567.53125 188.492188 567.53125 188.492188 567.6875 183.691406 C 567.800781 179.203125 567.878906 178.816406 568.769531 177.847656 C 569.503906 177.074219 570.007812 176.878906 571.050781 176.957031 C 573.0625 177.113281 573.410156 178.117188 573.410156 183.730469 L 573.410156 188.492188 L 574.335938 188.492188 C 575.265625 188.492188 575.265625 188.453125 575.382812 183.691406 C 575.535156 179.242188 575.613281 178.816406 576.464844 177.886719 C 577.585938 176.6875 579.558594 176.53125 580.484375 177.578125 C 581.027344 178.15625 581.140625 179.203125 581.140625 183.382812 L 581.140625 188.492188 L 583.539062 188.492188 L 583.386719 182.722656 C 583.269531 177.265625 583.230469 176.878906 582.339844 175.949219 C 581.839844 175.410156 580.949219 174.867188 580.332031 174.75 C 578.859375 174.441406 576.65625 175.175781 575.921875 176.222656 L 575.304688 177.074219 L 574.648438 176.261719 C 573.371094 174.636719 571.320312 174.132812 569.734375 175.023438 Z M 569.734375 175.023438 "/>
<path style=" stroke:none;fill-rule:nonzero;fill:rgb(0%,0%,0%);fill-opacity:1;" d="M 638.753906 175.214844 C 637.089844 176.105469 635.855469 177.886719 635.507812 179.976562 C 634.847656 184.117188 636.859375 187.71875 640.144531 188.335938 C 641.304688 188.570312 642.117188 188.414062 644.320312 187.484375 C 644.980469 187.214844 645.054688 187.332031 644.785156 188.492188 C 644.398438 190.621094 643.199219 191.585938 640.996094 191.585938 C 639.71875 191.585938 638.910156 191.355469 638.445312 190.890625 C 638.019531 190.464844 637.324219 190.078125 636.898438 189.960938 C 636.242188 189.769531 636.046875 189.882812 636.046875 190.503906 C 636.046875 191.78125 636.742188 192.632812 638.367188 193.289062 C 640.339844 194.066406 641.808594 194.066406 643.742188 193.289062 C 646.527344 192.207031 646.679688 191.664062 646.796875 182.761719 L 646.914062 174.945312 L 645.945312 174.945312 C 645.328125 174.945312 644.941406 175.175781 644.941406 175.523438 C 644.941406 176.261719 644.59375 176.261719 643.742188 175.488281 C 642.699219 174.558594 640.300781 174.402344 638.753906 175.214844 Z M 643.046875 177.265625 C 645.25 178.46875 645.636719 183.539062 643.625 185.277344 C 642.234375 186.441406 640.300781 186.441406 638.910156 185.277344 C 637.015625 183.613281 637.207031 178.890625 639.296875 177.460938 C 640.222656 176.800781 641.964844 176.726562 643.046875 177.265625 Z M 643.046875 177.265625 "/>
<path style=" stroke:none;fill-rule:nonzero;fill:rgb(0%,0%,0%);fill-opacity:1;" d="M 586.941406 176.878906 L 586.941406 178.042969 L 598.929688 178.042969 L 598.929688 175.71875 L 586.941406 175.71875 Z M 586.941406 176.878906 "/>
<path style=" stroke:none;fill-rule:nonzero;fill:rgb(0%,0%,0%);fill-opacity:1;" d="M 586.941406 182.296875 L 586.941406 183.460938 L 598.929688 183.460938 L 598.929688 181.136719 L 586.941406 181.136719 Z M 586.941406 182.296875 "/>
</g>
</svg>
