<?xml version="1.0" encoding="UTF-8"?>
<svg xmlns="http://www.w3.org/2000/svg" xmlns:xlink="http://www.w3.org/1999/xlink" width="700px" height="165px" viewBox="0 0 699 165" version="1.1">
<g id="surface1">
<path style=" stroke:none;fill-rule:nonzero;fill:rgb(0%,0%,0%);fill-opacity:1;" d="M 357.757812 8.496094 C 357.757812 9.539062 357.875 9.65625 358.917969 9.65625 C 359.957031 9.65625 360.074219 9.539062 360.074219 8.496094 C 360.074219 7.453125 359.957031 7.339844 358.917969 7.339844 C 357.875 7.339844 357.757812 7.453125 357.757812 8.496094 Z M 357.757812 8.496094 "/>
<path style=" stroke:none;fill-rule:nonzero;fill:rgb(0%,0%,0%);fill-opacity:1;" d="M 35.851562 8.730469 C 35.429688 9.230469 37.589844 11.546875 52.023438 25.992188 L 68.695312 42.679688 L 68.695312 73.578125 L 52.679688 57.550781 C 37.433594 42.332031 36.625 41.558594 36.007812 42.214844 C 35.351562 42.832031 36.125 43.683594 52.023438 59.597656 L 68.695312 76.28125 L 68.695312 107.179688 L 52.757812 91.230469 C 37.550781 76.011719 36.78125 75.316406 36.160156 75.972656 C 35.582031 76.667969 36.355469 77.515625 52.101562 93.277344 L 68.695312 109.882812 L 68.695312 140.78125 L 52.757812 124.832031 C 37.628906 109.691406 36.816406 108.957031 36.160156 109.574219 C 35.542969 110.230469 36.316406 111.082031 52.101562 126.878906 C 67.5 142.289062 68.8125 143.523438 69.890625 143.371094 L 71.011719 143.214844 L 71.011719 77.246094 L 93.78125 77.246094 L 93.78125 85.746094 L 113.078125 85.746094 L 113.078125 77.246094 L 262.046875 77.246094 L 262.046875 85.746094 L 280.957031 85.746094 L 280.957031 76.859375 L 304.691406 76.859375 L 310.675781 88.835938 C 315.613281 98.761719 316.773438 100.808594 317.390625 100.730469 C 317.96875 100.652344 320.671875 95.050781 329.160156 76.785156 C 335.21875 63.652344 340.277344 52.914062 340.390625 52.914062 C 340.507812 52.914062 346.335938 63.652344 353.320312 76.785156 C 363.085938 95.050781 366.25 100.652344 366.828125 100.730469 C 367.484375 100.808594 369.296875 97.410156 379.601562 76.785156 L 391.605469 52.722656 L 397.664062 64.808594 L 403.683594 76.859375 L 428 76.859375 L 428 85.746094 L 447.296875 85.746094 L 447.296875 77.246094 L 511.359375 77.246094 L 511.359375 85.746094 L 530.65625 85.746094 L 530.65625 77.246094 L 557.285156 77.246094 L 557.363281 89.296875 L 557.480469 101.386719 L 603.753906 101.503906 C 637.636719 101.542969 650.140625 101.464844 650.527344 101.15625 C 650.953125 100.808594 651.066406 98.375 651.066406 88.988281 L 651.066406 77.246094 L 677.695312 77.246094 L 677.695312 85.746094 L 696.992188 85.746094 L 696.992188 66.433594 L 677.695312 66.433594 L 677.695312 74.929688 L 651.066406 74.929688 L 651.066406 62.996094 C 651.066406 53.417969 650.953125 50.984375 650.527344 50.636719 C 650.140625 50.328125 637.636719 50.25 603.753906 50.289062 L 557.480469 50.402344 L 557.363281 62.648438 L 557.285156 74.929688 L 530.65625 74.929688 L 530.65625 66.433594 L 511.359375 66.433594 L 511.359375 74.929688 L 447.296875 74.929688 L 447.296875 66.433594 L 428 66.433594 L 428 75.316406 L 404.457031 75.316406 L 398.28125 62.957031 C 394.886719 56.160156 391.875 50.597656 391.605469 50.597656 C 391.375 50.597656 385.738281 61.371094 379.179688 74.582031 C 372.578125 87.753906 367.097656 98.605469 366.984375 98.722656 C 366.828125 98.800781 360.921875 88.023438 353.859375 74.738281 C 345.214844 58.59375 340.777344 50.636719 340.351562 50.597656 C 339.929688 50.597656 337.84375 54.730469 333.253906 64.578125 C 319.707031 93.855469 317.507812 98.488281 317.273438 98.488281 C 317.160156 98.488281 314.417969 93.277344 311.253906 86.902344 L 305.464844 75.316406 L 293.308594 75.238281 L 281.152344 75.121094 L 281.035156 70.757812 L 280.917969 66.433594 L 262.046875 66.433594 L 262.046875 74.929688 L 113.078125 74.929688 L 113.078125 66.433594 L 93.78125 66.433594 L 93.78125 74.929688 L 71.011719 74.929688 L 71.011719 8.496094 L 68.695312 8.496094 L 68.695312 39.976562 L 52.757812 24.023438 C 44.035156 15.296875 36.742188 8.109375 36.625 8.109375 C 36.46875 8.109375 36.160156 8.382812 35.851562 8.730469 Z M 648.675781 52.605469 C 649.023438 52.953125 649.136719 58.667969 649.136719 75.933594 C 649.136719 96.714844 649.097656 98.835938 648.480469 99.300781 C 647.59375 100.074219 561.570312 100.304688 561.066406 99.570312 C 560.71875 98.992188 560.644531 52.761719 561.03125 52.414062 C 561.144531 52.257812 580.828125 52.140625 604.753906 52.140625 C 638.023438 52.140625 648.328125 52.257812 648.675781 52.605469 Z M 111.535156 76.089844 L 111.535156 84.199219 L 95.324219 84.199219 L 95.324219 67.976562 L 111.535156 67.976562 Z M 445.75 76.089844 L 445.75 84.199219 L 437.761719 84.121094 L 429.734375 84.007812 L 429.621094 75.972656 L 429.542969 67.976562 L 445.75 67.976562 Z M 695.0625 76.089844 L 695.0625 84.199219 L 679.242188 84.199219 L 679.242188 67.976562 L 695.0625 67.976562 Z M 695.0625 76.089844 "/>
<path style=" stroke:none;fill-rule:nonzero;fill:rgb(0%,0%,0%);fill-opacity:1;" d="M 320.824219 12.746094 C 319.050781 13.324219 318.007812 14.832031 318.007812 16.878906 C 318.007812 19.15625 319.089844 20.085938 322.910156 21.203125 C 326.382812 22.207031 326.882812 22.554688 326.882812 23.792969 C 326.882812 25.917969 322.675781 26.726562 320.902344 24.914062 C 320.363281 24.410156 319.9375 23.714844 319.9375 23.367188 C 319.9375 22.902344 319.707031 22.828125 318.894531 23.019531 C 317.46875 23.367188 317.507812 23.367188 317.777344 24.527344 C 318.625 27.925781 324.644531 29.316406 327.617188 26.804688 C 329.238281 25.453125 329.777344 23.597656 329.046875 21.898438 C 328.429688 20.355469 327.386719 19.738281 323.796875 18.769531 C 321.402344 18.113281 319.9375 17.265625 319.9375 16.53125 C 319.9375 15.605469 321.558594 14.675781 323.21875 14.675781 C 324.917969 14.675781 326.5 15.605469 326.5 16.609375 C 326.5 16.957031 328.3125 16.761719 328.8125 16.335938 C 329.199219 15.988281 327.5 13.558594 326.574219 13.132812 C 325.1875 12.515625 322.292969 12.320312 320.824219 12.746094 Z M 320.824219 12.746094 "/>
<path style=" stroke:none;fill-rule:nonzero;fill:rgb(0%,0%,0%);fill-opacity:1;" d="M 337.691406 12.628906 C 337.382812 12.746094 336.648438 13.285156 336.070312 13.828125 L 334.988281 14.832031 L 334.988281 13.789062 C 334.988281 12.898438 334.835938 12.746094 333.832031 12.746094 L 332.671875 12.746094 L 332.671875 33.601562 L 334.988281 33.601562 L 334.988281 26.226562 L 336.070312 27.035156 C 338.769531 29.046875 342.515625 27.925781 344.175781 24.640625 C 346.027344 21.050781 345.0625 15.410156 342.28125 13.402344 C 341.242188 12.667969 338.695312 12.203125 337.691406 12.628906 Z M 340.777344 15.179688 C 342.28125 16.335938 342.707031 17.535156 342.707031 20.394531 C 342.707031 23.136719 342.667969 23.289062 341.394531 24.566406 C 338.925781 27.035156 335.800781 25.992188 335.027344 22.402344 C 334.449219 19.660156 334.988281 17.109375 336.492188 15.757812 C 337.804688 14.601562 339.734375 14.328125 340.777344 15.179688 Z M 340.777344 15.179688 "/>
<path style=" stroke:none;fill-rule:nonzero;fill:rgb(0%,0%,0%);fill-opacity:1;" d="M 352.550781 12.785156 C 352.125 13.015625 351.46875 13.59375 351.121094 14.058594 L 350.425781 14.871094 L 350.425781 13.789062 C 350.425781 12.9375 350.273438 12.746094 349.460938 12.746094 L 348.496094 12.746094 L 348.496094 27.808594 L 350.8125 27.808594 L 350.8125 23.058594 C 350.8125 16.105469 351.585938 14.289062 354.324219 14.832031 C 355.171875 14.984375 355.519531 14.871094 355.867188 14.253906 C 356.097656 13.789062 356.136719 13.285156 355.945312 13.09375 C 355.367188 12.515625 353.359375 12.320312 352.550781 12.785156 Z M 352.550781 12.785156 "/>
<path style=" stroke:none;fill-rule:nonzero;fill:rgb(0%,0%,0%);fill-opacity:1;" d="M 369.105469 13.09375 C 368.21875 13.519531 367.40625 14.058594 367.292969 14.328125 C 367.175781 14.636719 367.058594 14.40625 367.058594 13.789062 C 367.019531 12.898438 366.867188 12.746094 365.863281 12.746094 L 364.707031 12.746094 L 364.707031 27.808594 L 367.019531 27.808594 L 367.019531 22.980469 C 367.019531 16.222656 367.753906 14.675781 371.035156 14.675781 C 371.921875 14.675781 372.695312 14.949219 373.195312 15.449219 C 373.890625 16.144531 373.96875 16.722656 373.96875 22.015625 L 373.96875 27.808594 L 376.785156 27.808594 L 376.59375 21.628906 C 376.359375 14.753906 376.089844 13.867188 373.773438 12.898438 C 372.039062 12.167969 371.035156 12.242188 369.105469 13.09375 Z M 369.105469 13.09375 "/>
<path style=" stroke:none;fill-rule:nonzero;fill:rgb(0%,0%,0%);fill-opacity:1;" d="M 382.652344 12.628906 C 382.226562 12.746094 381.378906 13.171875 380.761719 13.632812 C 377.25 16.144531 377.402344 24.140625 381.03125 26.804688 C 382.421875 27.847656 385.699219 27.886719 387.207031 26.882812 L 388.246094 26.1875 L 388.246094 27.886719 C 388.246094 30.398438 386.898438 31.671875 384.3125 31.671875 C 382.84375 31.671875 382.226562 31.476562 381.492188 30.746094 C 380.414062 29.664062 378.597656 29.199219 378.597656 30.011719 C 378.597656 31.167969 379.757812 32.753906 380.992188 33.253906 C 382.882812 34.066406 386.28125 33.910156 387.863281 32.984375 C 390.523438 31.441406 390.71875 30.550781 390.910156 21.128906 L 391.027344 12.746094 L 389.828125 12.746094 C 388.902344 12.746094 388.632812 12.898438 388.632812 13.519531 C 388.632812 14.328125 388.632812 14.328125 387.554688 13.519531 C 386.394531 12.667969 384.039062 12.242188 382.652344 12.628906 Z M 386.664062 15.296875 C 387.824219 16.105469 388.632812 18.113281 388.632812 20.085938 C 388.632812 24.757812 384.660156 27.230469 381.839844 24.292969 C 380.800781 23.210938 380.722656 22.941406 380.722656 20.046875 C 380.722656 17.03125 380.761719 16.917969 381.996094 15.796875 C 383.421875 14.523438 385.238281 14.328125 386.664062 15.296875 Z M 386.664062 15.296875 "/>
<path style=" stroke:none;fill-rule:nonzero;fill:rgb(0%,0%,0%);fill-opacity:1;" d="M 357.757812 20.277344 L 357.757812 27.808594 L 360.074219 27.808594 L 360.074219 12.746094 L 357.757812 12.746094 Z M 357.757812 20.277344 "/>
<path style=" stroke:none;fill-rule:nonzero;fill:rgb(0%,0%,0%);fill-opacity:1;" d="M 577.429688 16.878906 C 576.699219 17.226562 576.042969 17.726562 575.925781 18.039062 C 575.578125 18.886719 575.039062 18.617188 575.039062 17.574219 C 575.039062 16.800781 574.84375 16.609375 574.074219 16.609375 L 573.109375 16.609375 L 573.109375 31.671875 L 575.425781 31.671875 L 575.425781 26.84375 C 575.425781 20.238281 576.195312 18.539062 579.207031 18.539062 C 581.328125 18.539062 581.597656 19.3125 581.597656 25.800781 L 581.597656 31.671875 L 584.300781 31.671875 L 584.300781 26.070312 C 584.300781 20.46875 584.300781 20.433594 585.304688 19.503906 C 586.617188 18.308594 588.625 18.230469 589.703125 19.3125 C 590.398438 20.007812 590.476562 20.585938 590.476562 25.878906 L 590.476562 31.671875 L 592.792969 31.671875 L 592.792969 25.53125 C 592.792969 19.851562 592.714844 19.351562 591.941406 18.152344 C 590.398438 15.875 587.273438 15.71875 584.917969 17.804688 C 583.605469 18.925781 583.566406 18.925781 583.335938 18.113281 C 583.066406 17.265625 581.019531 16.222656 579.59375 16.222656 C 579.089844 16.222656 578.125 16.53125 577.429688 16.878906 Z M 577.429688 16.878906 "/>
<path style=" stroke:none;fill-rule:nonzero;fill:rgb(0%,0%,0%);fill-opacity:1;" d="M 599.699219 16.683594 C 598.195312 17.070312 596.496094 18.617188 596.109375 19.929688 C 595.917969 20.625 596.035156 20.816406 596.921875 20.972656 C 597.539062 21.089844 598.078125 21.011719 598.15625 20.742188 C 598.617188 19.425781 600.125 18.539062 601.9375 18.539062 C 604.40625 18.539062 605.605469 19.351562 605.449219 20.972656 C 605.335938 22.285156 605.410156 22.285156 599.3125 23.328125 C 596.574219 23.792969 595.03125 26.1875 595.722656 28.890625 C 596.226562 30.898438 597.769531 31.863281 600.472656 31.863281 C 602.246094 31.824219 603.058594 31.632812 604.292969 30.78125 L 605.875 29.777344 L 605.992188 30.628906 C 606.066406 31.285156 606.414062 31.515625 607.417969 31.59375 C 608.539062 31.710938 608.691406 31.632812 608.421875 31.015625 C 608.265625 30.628906 607.996094 27.691406 607.882812 24.488281 C 607.6875 19.464844 607.535156 18.5 606.917969 17.804688 C 605.605469 16.375 602.59375 15.914062 599.699219 16.683594 Z M 605.527344 25.761719 C 605.488281 28.234375 603.753906 29.738281 600.933594 29.738281 C 599.3125 29.738281 597.808594 28.734375 597.808594 27.65625 C 597.808594 26.070312 599.660156 25.261719 605.257812 24.371094 C 605.410156 24.371094 605.527344 24.988281 605.527344 25.761719 Z M 605.527344 25.761719 "/>
<path style=" stroke:none;fill-rule:nonzero;fill:rgb(0%,0%,0%);fill-opacity:1;" d="M 614.90625 16.609375 C 613.128906 17.1875 612.089844 18.695312 612.089844 20.742188 C 612.089844 23.019531 613.167969 23.945312 616.988281 25.066406 C 620.460938 26.070312 620.964844 26.417969 620.964844 27.65625 C 620.964844 29.777344 616.757812 30.589844 614.984375 28.773438 C 614.441406 28.273438 614.019531 27.578125 614.019531 27.230469 C 614.019531 26.765625 613.785156 26.6875 612.976562 26.882812 C 611.546875 27.230469 611.585938 27.230469 611.855469 28.386719 C 612.707031 31.789062 618.726562 33.175781 621.699219 30.667969 C 623.320312 29.316406 623.859375 27.460938 623.125 25.761719 C 622.507812 24.21875 621.464844 23.597656 617.878906 22.632812 C 615.484375 21.976562 614.019531 21.128906 614.019531 20.394531 C 614.019531 19.464844 615.640625 18.539062 617.296875 18.539062 C 618.996094 18.539062 620.578125 19.464844 620.578125 20.46875 C 620.578125 20.816406 622.390625 20.625 622.894531 20.199219 C 623.28125 19.851562 621.582031 17.417969 620.65625 16.996094 C 619.265625 16.375 616.371094 16.183594 614.90625 16.609375 Z M 614.90625 16.609375 "/>
<path style=" stroke:none;fill-rule:nonzero;fill:rgb(0%,0%,0%);fill-opacity:1;" d="M 628.800781 16.609375 C 627.023438 17.1875 625.980469 18.695312 625.980469 20.742188 C 625.980469 23.019531 627.0625 23.945312 630.882812 25.066406 C 634.355469 26.070312 634.859375 26.417969 634.859375 27.65625 C 634.859375 29.777344 630.652344 30.589844 628.875 28.773438 C 628.335938 28.273438 627.910156 27.578125 627.910156 27.230469 C 627.910156 26.765625 627.679688 26.6875 626.871094 26.882812 C 625.441406 27.230469 625.480469 27.230469 625.75 28.386719 C 626.597656 31.789062 632.621094 33.175781 635.589844 30.667969 C 637.210938 29.316406 637.753906 27.460938 637.019531 25.761719 C 636.402344 24.21875 635.359375 23.597656 631.769531 22.632812 C 629.378906 21.976562 627.910156 21.128906 627.910156 20.394531 C 627.910156 19.464844 629.53125 18.539062 631.191406 18.539062 C 632.890625 18.539062 634.472656 19.464844 634.472656 20.46875 C 634.472656 20.816406 636.285156 20.625 636.789062 20.199219 C 637.171875 19.851562 635.476562 17.417969 634.550781 16.996094 C 633.160156 16.375 630.265625 16.183594 628.800781 16.609375 Z M 628.800781 16.609375 "/>
<path style=" stroke:none;fill-rule:nonzero;fill:rgb(0%,0%,0%);fill-opacity:1;" d="M 14.972656 48.164062 L 14.859375 49.246094 L 8.605469 49.359375 L 2.316406 49.4375 L 2.316406 51.753906 L 15.050781 51.753906 L 15.050781 53.109375 C 15.050781 54.304688 15.167969 54.460938 16.015625 54.460938 C 16.863281 54.460938 16.980469 54.304688 16.980469 53.109375 C 16.980469 51.832031 17.058594 51.753906 18.253906 51.753906 C 19.875 51.753906 20.453125 52.335938 20.453125 53.917969 C 20.453125 54.84375 20.648438 55.230469 21.226562 55.425781 C 21.652344 55.539062 22.152344 55.539062 22.382812 55.425781 C 22.964844 55.078125 22.847656 52.257812 22.191406 51.023438 C 21.535156 49.707031 20.917969 49.4375 18.679688 49.4375 C 17.058594 49.4375 16.980469 49.398438 16.980469 48.28125 C 16.980469 47.3125 16.828125 47.121094 16.054688 47.121094 C 15.320312 47.121094 15.089844 47.351562 14.972656 48.164062 Z M 14.972656 48.164062 "/>
<path style=" stroke:none;fill-rule:nonzero;fill:rgb(0%,0%,0%);fill-opacity:1;" d="M 2.316406 57.164062 L 2.316406 58.320312 L 16.980469 58.320312 L 16.980469 56.003906 L 2.316406 56.003906 Z M 2.316406 57.164062 "/>
<path style=" stroke:none;fill-rule:nonzero;fill:rgb(0%,0%,0%);fill-opacity:1;" d="M 19.683594 57.164062 C 19.683594 58.246094 19.796875 58.320312 21.035156 58.320312 C 22.269531 58.320312 22.382812 58.246094 22.382812 57.164062 C 22.382812 56.082031 22.269531 56.003906 21.035156 56.003906 C 19.796875 56.003906 19.683594 56.082031 19.683594 57.164062 Z M 19.683594 57.164062 "/>
<path style=" stroke:none;fill-rule:nonzero;fill:rgb(0%,0%,0%);fill-opacity:1;" d="M 2.316406 62.878906 C 2.316406 64.269531 2.46875 64.460938 5.015625 66.199219 C 6.523438 67.242188 7.71875 68.09375 7.71875 68.171875 C 7.71875 68.210938 6.523438 69.058594 5.015625 70.0625 C 2.507812 71.722656 2.316406 71.957031 2.316406 73.230469 L 2.316406 74.621094 L 3.394531 73.925781 C 3.976562 73.578125 5.632812 72.417969 7.101562 71.414062 L 9.765625 69.523438 L 10.960938 70.371094 C 11.617188 70.835938 13.042969 71.878906 14.164062 72.691406 C 15.28125 73.5 16.363281 74.15625 16.59375 74.15625 C 16.789062 74.15625 16.980469 73.65625 16.980469 73.074219 C 16.980469 71.878906 16.210938 71.027344 13.625 69.328125 C 12.695312 68.75 11.964844 68.171875 11.964844 68.015625 C 11.964844 67.898438 13.121094 67.050781 14.472656 66.125 C 16.75 64.65625 16.980469 64.386719 16.980469 63.148438 C 16.980469 62.414062 16.863281 61.796875 16.75 61.796875 C 16.632812 61.796875 15.089844 62.839844 13.277344 64.113281 C 11.5 65.390625 9.917969 66.433594 9.800781 66.433594 C 9.6875 66.433594 7.949219 65.3125 5.941406 63.921875 L 2.316406 61.371094 Z M 2.316406 62.878906 "/>
<path style=" stroke:none;fill-rule:nonzero;fill:rgb(0%,0%,0%);fill-opacity:1;" d="M 5.210938 75.394531 C 1.429688 77.554688 0.808594 83.621094 4.089844 86.476562 C 5.597656 87.792969 6.367188 87.984375 6.714844 87.058594 C 7.140625 85.976562 6.945312 85.472656 5.980469 85.050781 C 3.898438 84.082031 3.28125 80.53125 4.902344 78.675781 C 5.558594 77.941406 7.679688 76.859375 8.492188 76.859375 C 8.722656 76.859375 8.875 78.871094 8.875 82.5 L 8.875 88.175781 L 10.882812 87.90625 C 14.9375 87.367188 16.980469 85.164062 16.980469 81.378906 C 16.980469 78.714844 16.324219 77.285156 14.394531 75.816406 C 13.160156 74.890625 12.582031 74.738281 9.878906 74.621094 C 7.21875 74.542969 6.523438 74.660156 5.210938 75.394531 Z M 12.734375 77.441406 C 14.316406 78.25 15.050781 79.488281 15.050781 81.417969 C 15.050781 82.769531 14.820312 83.3125 13.933594 84.238281 C 13.277344 84.894531 12.386719 85.359375 11.808594 85.359375 L 10.804688 85.359375 L 10.804688 81.109375 C 10.804688 78.40625 10.960938 76.859375 11.191406 76.859375 C 11.421875 76.859375 12.117188 77.132812 12.734375 77.441406 Z M 12.734375 77.441406 "/>
<path style=" stroke:none;fill-rule:nonzero;fill:rgb(0%,0%,0%);fill-opacity:1;" d="M 5.558594 91.113281 C 2.277344 92.621094 0.964844 96.597656 2.855469 99.339844 C 3.78125 100.730469 3.78125 100.808594 3.085938 100.808594 C 2.507812 100.808594 2.316406 101.078125 2.316406 101.773438 L 2.316406 102.738281 L 22.382812 102.738281 L 22.382812 100.421875 L 15.398438 100.421875 L 16.171875 99.417969 C 17.25 98.027344 17.289062 94.898438 16.210938 93.160156 C 14.625 90.535156 9.109375 89.492188 5.558594 91.113281 Z M 12.234375 93.121094 C 14.898438 94.125 15.902344 96.753906 14.433594 98.835938 C 13.121094 100.691406 9.109375 101.386719 6.367188 100.265625 C 4.785156 99.609375 3.628906 97.523438 3.976562 96.09375 C 4.285156 94.898438 5.980469 93.160156 7.0625 92.96875 C 8.761719 92.65625 11.152344 92.695312 12.234375 93.121094 Z M 12.234375 93.121094 "/>
<path style=" stroke:none;fill-rule:nonzero;fill:rgb(0%,0%,0%);fill-opacity:1;" d="M 362.390625 127.070312 L 362.390625 134.796875 L 364.28125 134.796875 L 364.398438 128.734375 L 364.511719 122.707031 L 368.527344 128.734375 C 371.808594 133.714844 372.695312 134.796875 373.429688 134.796875 L 374.355469 134.796875 L 374.355469 127.070312 C 374.355469 119.617188 374.316406 119.347656 373.582031 119.347656 C 372.847656 119.347656 372.808594 119.617188 372.808594 125.371094 C 372.808594 130.664062 372.734375 131.359375 372.230469 130.933594 C 371.921875 130.664062 370.070312 127.960938 368.101562 124.910156 C 364.9375 120.003906 364.398438 119.386719 363.472656 119.347656 L 362.390625 119.347656 Z M 362.390625 127.070312 "/>
<path style=" stroke:none;fill-rule:nonzero;fill:rgb(0%,0%,0%);fill-opacity:1;" d="M 381.109375 119.808594 C 380.992188 120.082031 379.988281 123.558594 378.832031 127.535156 C 377.054688 133.871094 376.863281 134.796875 377.441406 134.796875 C 377.980469 134.796875 378.484375 133.367188 380.105469 127.726562 C 381.222656 123.867188 382.1875 120.390625 382.304688 120.003906 C 382.535156 119.230469 381.378906 119.039062 381.109375 119.808594 Z M 381.109375 119.808594 "/>
<path style=" stroke:none;fill-rule:nonzero;fill:rgb(0%,0%,0%);fill-opacity:1;" d="M 625.980469 127.070312 C 625.980469 134.527344 626.019531 134.796875 626.753906 134.796875 C 627.449219 134.796875 627.527344 134.527344 627.527344 132.554688 C 627.527344 130.816406 627.679688 130.121094 628.257812 129.621094 C 628.992188 128.964844 629.070312 129.042969 630.882812 131.859375 C 632.464844 134.371094 632.890625 134.796875 633.816406 134.796875 L 634.898438 134.796875 L 632.503906 131.28125 L 630.148438 127.765625 L 632.195312 125.679688 C 634.085938 123.75 634.164062 123.59375 633.277344 123.59375 C 632.621094 123.59375 631.65625 124.253906 630.226562 125.71875 C 629.070312 126.878906 627.988281 127.84375 627.835938 127.84375 C 627.679688 127.84375 627.527344 125.914062 627.527344 123.59375 C 627.527344 119.617188 627.488281 119.347656 626.753906 119.347656 C 626.019531 119.347656 625.980469 119.617188 625.980469 127.070312 Z M 625.980469 127.070312 "/>
<path style=" stroke:none;fill-rule:nonzero;fill:rgb(0%,0%,0%);fill-opacity:1;" d="M 336.804688 120.738281 C 336.417969 121.238281 335.414062 122.128906 334.5625 122.707031 C 333.714844 123.246094 333.058594 124.019531 333.058594 124.40625 C 333.058594 125.371094 333.367188 125.332031 335.066406 124.175781 C 335.839844 123.632812 336.570312 123.210938 336.6875 123.210938 C 336.839844 123.210938 336.917969 125.796875 336.917969 129.003906 C 336.917969 134.527344 336.957031 134.796875 337.691406 134.796875 C 338.421875 134.796875 338.460938 134.527344 338.460938 127.265625 C 338.460938 119.308594 338.308594 118.652344 336.804688 120.738281 Z M 336.804688 120.738281 "/>
<path style=" stroke:none;fill-rule:nonzero;fill:rgb(0%,0%,0%);fill-opacity:1;" d="M 346.992188 120.234375 C 345.101562 121.199219 344.445312 122.628906 344.328125 126.261719 C 344.097656 131.707031 345.140625 134.101562 347.996094 134.640625 C 350.039062 135.027344 351.929688 134.101562 352.894531 132.285156 C 354.054688 130.046875 354.054688 124.484375 352.859375 122.203125 C 351.660156 119.964844 349.152344 119.113281 346.992188 120.234375 Z M 350.851562 122.398438 C 351.699219 123.054688 351.777344 123.480469 351.894531 126.761719 C 352.007812 130.816406 351.585938 132.054688 349.925781 132.632812 C 348.304688 133.210938 346.835938 132.515625 346.296875 130.933594 C 345.332031 128.113281 345.910156 122.863281 347.261719 122.089844 C 348.304688 121.472656 349.886719 121.585938 350.851562 122.398438 Z M 350.851562 122.398438 "/>
<path style=" stroke:none;fill-rule:nonzero;fill:rgb(0%,0%,0%);fill-opacity:1;" d="M 600.394531 120.738281 C 600.007812 121.238281 599.003906 122.128906 598.15625 122.707031 C 597.308594 123.246094 596.652344 124.019531 596.652344 124.40625 C 596.652344 125.371094 596.960938 125.332031 598.65625 124.175781 C 599.429688 123.632812 600.164062 123.210938 600.277344 123.210938 C 600.433594 123.210938 600.511719 125.796875 600.511719 129.003906 C 600.511719 134.527344 600.546875 134.796875 601.28125 134.796875 C 602.015625 134.796875 602.054688 134.527344 602.054688 127.265625 C 602.054688 119.308594 601.898438 118.652344 600.394531 120.738281 Z M 600.394531 120.738281 "/>
<path style=" stroke:none;fill-rule:nonzero;fill:rgb(0%,0%,0%);fill-opacity:1;" d="M 610.582031 120.234375 C 608.691406 121.199219 608.035156 122.628906 607.921875 126.261719 C 607.6875 131.707031 608.730469 134.101562 611.585938 134.640625 C 613.632812 135.027344 615.523438 134.101562 616.488281 132.285156 C 617.644531 130.046875 617.644531 124.484375 616.449219 122.203125 C 615.253906 119.964844 612.746094 119.113281 610.582031 120.234375 Z M 614.441406 122.398438 C 615.292969 123.054688 615.367188 123.480469 615.484375 126.761719 C 615.601562 130.816406 615.175781 132.054688 613.515625 132.632812 C 611.894531 133.210938 610.429688 132.515625 609.886719 130.933594 C 608.921875 128.113281 609.503906 122.863281 610.851562 122.089844 C 611.894531 121.472656 613.476562 121.585938 614.441406 122.398438 Z M 614.441406 122.398438 "/>
<path style=" stroke:none;fill-rule:nonzero;fill:rgb(0%,0%,0%);fill-opacity:1;" d="M 311.175781 123.789062 C 310.519531 124.058594 309.671875 124.871094 309.324219 125.566406 C 308.398438 127.34375 308.4375 130.894531 309.363281 132.515625 C 310.984375 135.296875 315.613281 135.453125 317.234375 132.75 C 318.199219 131.164062 318.199219 131.050781 317.042969 130.855469 C 316.425781 130.703125 316.078125 130.816406 316.078125 131.164062 C 316.078125 131.898438 314.496094 132.863281 313.261719 132.863281 C 311.484375 132.863281 310.289062 131.320312 310.289062 129.003906 C 310.289062 127.417969 310.480469 126.839844 311.253906 126.105469 C 312.488281 124.832031 314.574219 124.792969 315.578125 126.027344 C 316.234375 126.878906 317.621094 127.03125 317.621094 126.261719 C 317.621094 125.332031 316.695312 124.253906 315.5 123.75 C 313.878906 123.09375 312.757812 123.09375 311.175781 123.789062 Z M 311.175781 123.789062 "/>
<path style=" stroke:none;fill-rule:nonzero;fill:rgb(0%,0%,0%);fill-opacity:1;" d="M 386.355469 124.214844 C 385.199219 125.179688 385.160156 125.179688 385.160156 124.40625 C 385.160156 123.867188 384.929688 123.59375 384.386719 123.59375 C 383.65625 123.59375 383.617188 123.867188 383.617188 129.195312 C 383.617188 134.410156 383.65625 134.796875 384.351562 134.796875 C 385.003906 134.796875 385.082031 134.410156 385.238281 130.78125 C 385.390625 126.261719 385.933594 125.140625 387.898438 125.140625 C 389.867188 125.140625 390.175781 125.914062 390.175781 130.585938 C 390.175781 134.488281 390.214844 134.796875 390.910156 134.796875 C 391.566406 134.796875 391.644531 134.410156 391.796875 130.78125 C 391.914062 126.300781 392.453125 125.140625 394.460938 125.140625 C 396.273438 125.140625 396.738281 126.300781 396.738281 130.816406 C 396.738281 134.527344 396.777344 134.796875 397.511719 134.796875 C 398.242188 134.796875 398.28125 134.527344 398.28125 130.007812 C 398.28125 124.5625 397.933594 123.75 395.542969 123.363281 C 394.421875 123.171875 393.960938 123.324219 392.917969 124.214844 C 391.796875 125.140625 391.566406 125.21875 391.179688 124.714844 C 389.945312 123.015625 388.015625 122.824219 386.355469 124.214844 Z M 386.355469 124.214844 "/>
<path style=" stroke:none;fill-rule:nonzero;fill:rgb(0%,0%,0%);fill-opacity:1;" d="M 566.972656 124.214844 C 565.816406 125.179688 565.777344 125.179688 565.777344 124.40625 C 565.777344 123.867188 565.542969 123.59375 565.003906 123.59375 C 564.269531 123.59375 564.234375 123.867188 564.234375 129.195312 C 564.234375 134.410156 564.269531 134.796875 564.964844 134.796875 C 565.621094 134.796875 565.699219 134.410156 565.851562 130.78125 C 566.007812 126.261719 566.546875 125.140625 568.515625 125.140625 C 570.484375 125.140625 570.792969 125.914062 570.792969 130.585938 C 570.792969 134.488281 570.832031 134.796875 571.527344 134.796875 C 572.183594 134.796875 572.261719 134.410156 572.414062 130.78125 C 572.53125 126.300781 573.070312 125.140625 575.078125 125.140625 C 576.890625 125.140625 577.355469 126.300781 577.355469 130.816406 C 577.355469 134.527344 577.394531 134.796875 578.125 134.796875 C 578.859375 134.796875 578.898438 134.527344 578.898438 130.007812 C 578.898438 124.5625 578.550781 123.75 576.15625 123.363281 C 575.039062 123.171875 574.574219 123.324219 573.535156 124.214844 C 572.414062 125.140625 572.183594 125.21875 571.796875 124.714844 C 570.5625 123.015625 568.632812 122.824219 566.972656 124.214844 Z M 566.972656 124.214844 "/>
<path style=" stroke:none;fill-rule:nonzero;fill:rgb(0%,0%,0%);fill-opacity:1;" d="M 638.292969 124.097656 C 635.707031 125.835938 635.320312 130.855469 637.558594 133.367188 C 638.484375 134.410156 638.910156 134.601562 640.375 134.601562 C 641.535156 134.601562 642.382812 134.371094 642.925781 133.871094 C 643.734375 133.136719 643.734375 133.136719 643.734375 134.527344 C 643.734375 135.53125 643.503906 136.070312 642.886719 136.496094 C 641.804688 137.269531 638.949219 137.308594 638.371094 136.574219 C 638.136719 136.265625 637.558594 135.953125 637.171875 135.839844 C 636.132812 135.570312 636.171875 136.417969 637.328125 137.730469 C 638.101562 138.660156 638.523438 138.8125 640.339844 138.8125 C 641.496094 138.851562 642.886719 138.621094 643.386719 138.351562 C 645.277344 137.34375 645.472656 136.574219 645.585938 129.851562 C 645.742188 123.710938 645.703125 123.59375 644.929688 123.59375 C 644.46875 123.59375 644.121094 123.828125 644.121094 124.175781 C 644.121094 124.636719 643.890625 124.601562 642.886719 123.980469 C 641.226562 122.976562 639.914062 123.015625 638.292969 124.097656 Z M 643 126.144531 C 643.734375 126.917969 643.925781 127.574219 643.925781 129.003906 C 643.925781 130.433594 643.734375 131.089844 643 131.859375 C 641.804688 133.136719 640.066406 133.175781 638.832031 132.015625 C 637.597656 130.855469 637.558594 127.34375 638.792969 126.027344 C 639.953125 124.792969 641.765625 124.832031 643 126.144531 Z M 643 126.144531 "/>
<path style=" stroke:none;fill-rule:nonzero;fill:rgb(0%,0%,0%);fill-opacity:1;" d="M 319.550781 124.949219 L 319.550781 125.914062 L 329.585938 125.914062 L 329.585938 123.980469 L 319.550781 123.980469 Z M 319.550781 124.949219 "/>
<path style=" stroke:none;fill-rule:nonzero;fill:rgb(0%,0%,0%);fill-opacity:1;" d="M 583.144531 124.949219 L 583.144531 125.914062 L 593.175781 125.914062 L 593.175781 123.980469 L 583.144531 123.980469 Z M 583.144531 124.949219 "/>
<path style=" stroke:none;fill-rule:nonzero;fill:rgb(0%,0%,0%);fill-opacity:1;" d="M 319.550781 129.582031 L 319.550781 130.546875 L 329.585938 130.546875 L 329.585938 128.617188 L 319.550781 128.617188 Z M 319.550781 129.582031 "/>
<path style=" stroke:none;fill-rule:nonzero;fill:rgb(0%,0%,0%);fill-opacity:1;" d="M 583.144531 129.582031 L 583.144531 130.546875 L 593.175781 130.546875 L 593.175781 128.617188 L 583.144531 128.617188 Z M 583.144531 129.582031 "/>
<path style=" stroke:none;fill-rule:nonzero;fill:rgb(0%,0%,0%);fill-opacity:1;" d="M 370.1875 142.984375 C 369.914062 143.253906 369.722656 144.605469 369.722656 146.265625 L 369.722656 149.085938 L 304.886719 149.085938 L 304.886719 151.40625 L 369.722656 151.40625 L 369.722656 155.226562 C 369.722656 158.433594 369.839844 159.089844 370.378906 159.285156 C 370.726562 159.4375 376.667969 157.660156 384.078125 155.191406 C 394.617188 151.675781 397.125 150.710938 397.125 150.167969 C 397.125 149.78125 397.046875 149.472656 396.96875 149.472656 C 396.890625 149.472656 390.949219 147.890625 383.808594 145.996094 C 376.667969 144.066406 370.765625 142.519531 370.726562 142.519531 C 370.6875 142.519531 370.457031 142.714844 370.1875 142.984375 Z M 370.1875 142.984375 "/>
<path style=" stroke:none;fill-rule:nonzero;fill:rgb(0%,0%,0%);fill-opacity:1;" d="M 619.496094 142.984375 C 619.226562 143.253906 619.035156 144.605469 619.035156 146.265625 L 619.035156 149.085938 L 554.199219 149.085938 L 554.199219 151.40625 L 619.035156 151.40625 L 619.035156 155.226562 C 619.035156 158.433594 619.152344 159.089844 619.691406 159.285156 C 620.039062 159.4375 625.980469 157.660156 633.390625 155.191406 C 643.8125 151.714844 646.4375 150.710938 646.4375 150.167969 C 646.4375 149.742188 645.972656 149.359375 645.007812 149.125 C 644.199219 148.933594 638.292969 147.347656 631.886719 145.648438 C 625.480469 143.910156 620.152344 142.519531 620.117188 142.519531 C 620.039062 142.519531 619.769531 142.714844 619.496094 142.984375 Z M 619.496094 142.984375 "/>
</g>
</svg>
