<?xml version="1.0" encoding="utf-8"?>
<svg xmlns="http://www.w3.org/2000/svg" xmlns:xlink="http://www.w3.org/1999/xlink" width="600" height="400" viewBox="0 0 2400 1600">
<defs>
  <clipPath id="clip360">
    <rect x="0" y="0" width="2400" height="1600"/>
  </clipPath>
</defs>
<path clip-path="url(#clip360)" d="M0 1600 L2400 1600 L2400 0 L0 0  Z" fill="#ffffff" fill-rule="evenodd" fill-opacity="1"/>
<defs>
  <clipPath id="clip361">
    <rect x="480" y="0" width="1681" height="1600"/>
  </clipPath>
</defs>
<path clip-path="url(#clip360)" d="M149.191 1423.18 L2352.76 1423.18 L2352.76 47.2441 L149.191 47.2441  Z" fill="#ffffff" fill-rule="evenodd" fill-opacity="1"/>
<defs>
  <clipPath id="clip362">
    <rect x="149" y="47" width="2205" height="1377"/>
  </clipPath>
</defs>
<polyline clip-path="url(#clip362)" style="stroke:#000000; stroke-linecap:round; stroke-linejoin:round; stroke-width:2; stroke-opacity:0.1; fill:none" points="211.556,1423.18 211.556,47.2441 "/>
<polyline clip-path="url(#clip362)" style="stroke:#000000; stroke-linecap:round; stroke-linejoin:round; stroke-width:2; stroke-opacity:0.1; fill:none" points="627.323,1423.18 627.323,47.2441 "/>
<polyline clip-path="url(#clip362)" style="stroke:#000000; stroke-linecap:round; stroke-linejoin:round; stroke-width:2; stroke-opacity:0.1; fill:none" points="1043.09,1423.18 1043.09,47.2441 "/>
<polyline clip-path="url(#clip362)" style="stroke:#000000; stroke-linecap:round; stroke-linejoin:round; stroke-width:2; stroke-opacity:0.1; fill:none" points="1458.86,1423.18 1458.86,47.2441 "/>
<polyline clip-path="url(#clip362)" style="stroke:#000000; stroke-linecap:round; stroke-linejoin:round; stroke-width:2; stroke-opacity:0.1; fill:none" points="1874.62,1423.18 1874.62,47.2441 "/>
<polyline clip-path="url(#clip362)" style="stroke:#000000; stroke-linecap:round; stroke-linejoin:round; stroke-width:2; stroke-opacity:0.1; fill:none" points="2290.39,1423.18 2290.39,47.2441 "/>
<polyline clip-path="url(#clip362)" style="stroke:#000000; stroke-linecap:round; stroke-linejoin:round; stroke-width:2; stroke-opacity:0.1; fill:none" points="149.191,1253.36 2352.76,1253.36 "/>
<polyline clip-path="url(#clip362)" style="stroke:#000000; stroke-linecap:round; stroke-linejoin:round; stroke-width:2; stroke-opacity:0.1; fill:none" points="149.191,974.196 2352.76,974.196 "/>
<polyline clip-path="url(#clip362)" style="stroke:#000000; stroke-linecap:round; stroke-linejoin:round; stroke-width:2; stroke-opacity:0.1; fill:none" points="149.191,695.035 2352.76,695.035 "/>
<polyline clip-path="url(#clip362)" style="stroke:#000000; stroke-linecap:round; stroke-linejoin:round; stroke-width:2; stroke-opacity:0.1; fill:none" points="149.191,415.873 2352.76,415.873 "/>
<polyline clip-path="url(#clip362)" style="stroke:#000000; stroke-linecap:round; stroke-linejoin:round; stroke-width:2; stroke-opacity:0.1; fill:none" points="149.191,136.712 2352.76,136.712 "/>
<polyline clip-path="url(#clip360)" style="stroke:#000000; stroke-linecap:round; stroke-linejoin:round; stroke-width:4; stroke-opacity:1; fill:none" points="149.191,1423.18 2352.76,1423.18 "/>
<polyline clip-path="url(#clip360)" style="stroke:#000000; stroke-linecap:round; stroke-linejoin:round; stroke-width:4; stroke-opacity:1; fill:none" points="211.556,1423.18 211.556,1404.28 "/>
<polyline clip-path="url(#clip360)" style="stroke:#000000; stroke-linecap:round; stroke-linejoin:round; stroke-width:4; stroke-opacity:1; fill:none" points="627.323,1423.18 627.323,1404.28 "/>
<polyline clip-path="url(#clip360)" style="stroke:#000000; stroke-linecap:round; stroke-linejoin:round; stroke-width:4; stroke-opacity:1; fill:none" points="1043.09,1423.18 1043.09,1404.28 "/>
<polyline clip-path="url(#clip360)" style="stroke:#000000; stroke-linecap:round; stroke-linejoin:round; stroke-width:4; stroke-opacity:1; fill:none" points="1458.86,1423.18 1458.86,1404.28 "/>
<polyline clip-path="url(#clip360)" style="stroke:#000000; stroke-linecap:round; stroke-linejoin:round; stroke-width:4; stroke-opacity:1; fill:none" points="1874.62,1423.18 1874.62,1404.28 "/>
<polyline clip-path="url(#clip360)" style="stroke:#000000; stroke-linecap:round; stroke-linejoin:round; stroke-width:4; stroke-opacity:1; fill:none" points="2290.39,1423.18 2290.39,1404.28 "/>
<path clip-path="url(#clip360)" d="M211.556 1454.1 Q207.945 1454.1 206.116 1457.66 Q204.311 1461.2 204.311 1468.33 Q204.311 1475.44 206.116 1479.01 Q207.945 1482.55 211.556 1482.55 Q215.19 1482.55 216.996 1479.01 Q218.824 1475.44 218.824 1468.33 Q218.824 1461.2 216.996 1457.66 Q215.19 1454.1 211.556 1454.1 M211.556 1450.39 Q217.366 1450.39 220.422 1455 Q223.5 1459.58 223.5 1468.33 Q223.5 1477.06 220.422 1481.67 Q217.366 1486.25 211.556 1486.25 Q205.746 1486.25 202.667 1481.67 Q199.612 1477.06 199.612 1468.33 Q199.612 1459.58 202.667 1455 Q205.746 1450.39 211.556 1450.39 Z" fill="#000000" fill-rule="nonzero" fill-opacity="1" /><path clip-path="url(#clip360)" d="M617.705 1481.64 L625.344 1481.64 L625.344 1455.28 L617.034 1456.95 L617.034 1452.69 L625.297 1451.02 L629.973 1451.02 L629.973 1481.64 L637.612 1481.64 L637.612 1485.58 L617.705 1485.58 L617.705 1481.64 Z" fill="#000000" fill-rule="nonzero" fill-opacity="1" /><path clip-path="url(#clip360)" d="M1037.74 1481.64 L1054.06 1481.64 L1054.06 1485.58 L1032.12 1485.58 L1032.12 1481.64 Q1034.78 1478.89 1039.36 1474.26 Q1043.97 1469.61 1045.15 1468.27 Q1047.4 1465.74 1048.28 1464.01 Q1049.18 1462.25 1049.18 1460.56 Q1049.18 1457.8 1047.23 1456.07 Q1045.31 1454.33 1042.21 1454.33 Q1040.01 1454.33 1037.56 1455.09 Q1035.13 1455.86 1032.35 1457.41 L1032.35 1452.69 Q1035.17 1451.55 1037.63 1450.97 Q1040.08 1450.39 1042.12 1450.39 Q1047.49 1450.39 1050.68 1453.08 Q1053.88 1455.77 1053.88 1460.26 Q1053.88 1462.39 1053.07 1464.31 Q1052.28 1466.2 1050.17 1468.8 Q1049.59 1469.47 1046.49 1472.69 Q1043.39 1475.88 1037.74 1481.64 Z" fill="#000000" fill-rule="nonzero" fill-opacity="1" /><path clip-path="url(#clip360)" d="M1463.1 1466.95 Q1466.46 1467.66 1468.34 1469.93 Q1470.23 1472.2 1470.23 1475.53 Q1470.23 1480.65 1466.72 1483.45 Q1463.2 1486.25 1456.72 1486.25 Q1454.54 1486.25 1452.22 1485.81 Q1449.93 1485.39 1447.48 1484.54 L1447.48 1480.02 Q1449.42 1481.16 1451.74 1481.74 Q1454.05 1482.32 1456.58 1482.32 Q1460.97 1482.32 1463.27 1480.58 Q1465.58 1478.84 1465.58 1475.53 Q1465.58 1472.48 1463.43 1470.77 Q1461.3 1469.03 1457.48 1469.03 L1453.45 1469.03 L1453.45 1465.19 L1457.66 1465.19 Q1461.11 1465.19 1462.94 1463.82 Q1464.77 1462.43 1464.77 1459.84 Q1464.77 1457.18 1462.87 1455.77 Q1461 1454.33 1457.48 1454.33 Q1455.56 1454.33 1453.36 1454.75 Q1451.16 1455.16 1448.52 1456.04 L1448.52 1451.88 Q1451.18 1451.14 1453.5 1450.77 Q1455.84 1450.39 1457.9 1450.39 Q1463.22 1450.39 1466.32 1452.83 Q1469.42 1455.23 1469.42 1459.35 Q1469.42 1462.22 1467.78 1464.21 Q1466.14 1466.18 1463.1 1466.95 Z" fill="#000000" fill-rule="nonzero" fill-opacity="1" /><path clip-path="url(#clip360)" d="M1877.63 1455.09 L1865.83 1473.54 L1877.63 1473.54 L1877.63 1455.09 M1876.41 1451.02 L1882.29 1451.02 L1882.29 1473.54 L1887.22 1473.54 L1887.22 1477.43 L1882.29 1477.43 L1882.29 1485.58 L1877.63 1485.58 L1877.63 1477.43 L1862.03 1477.43 L1862.03 1472.92 L1876.41 1451.02 Z" fill="#000000" fill-rule="nonzero" fill-opacity="1" /><path clip-path="url(#clip360)" d="M2280.67 1451.02 L2299.03 1451.02 L2299.03 1454.96 L2284.95 1454.96 L2284.95 1463.43 Q2285.97 1463.08 2286.99 1462.92 Q2288.01 1462.73 2289.03 1462.73 Q2294.81 1462.73 2298.19 1465.9 Q2301.57 1469.08 2301.57 1474.49 Q2301.57 1480.07 2298.1 1483.17 Q2294.63 1486.25 2288.31 1486.25 Q2286.13 1486.25 2283.86 1485.88 Q2281.62 1485.51 2279.21 1484.77 L2279.21 1480.07 Q2281.29 1481.2 2283.52 1481.76 Q2285.74 1482.32 2288.21 1482.32 Q2292.22 1482.32 2294.56 1480.21 Q2296.9 1478.1 2296.9 1474.49 Q2296.9 1470.88 2294.56 1468.77 Q2292.22 1466.67 2288.21 1466.67 Q2286.34 1466.67 2284.46 1467.08 Q2282.61 1467.5 2280.67 1468.38 L2280.67 1451.02 Z" fill="#000000" fill-rule="nonzero" fill-opacity="1" /><path clip-path="url(#clip360)" d="M1199.28 1522.27 L1199.28 1532.4 L1211.35 1532.4 L1211.35 1536.95 L1199.28 1536.95 L1199.28 1556.3 Q1199.28 1560.66 1200.46 1561.9 Q1201.67 1563.14 1205.33 1563.14 L1211.35 1563.14 L1211.35 1568.04 L1205.33 1568.04 Q1198.55 1568.04 1195.97 1565.53 Q1193.4 1562.98 1193.4 1556.3 L1193.4 1536.95 L1189.1 1536.95 L1189.1 1532.4 L1193.4 1532.4 L1193.4 1522.27 L1199.28 1522.27 Z" fill="#000000" fill-rule="nonzero" fill-opacity="1" /><path clip-path="url(#clip360)" d="M1239.23 1518.52 L1252.72 1518.52 L1252.72 1523.07 L1245.09 1523.07 L1245.09 1572.09 L1252.72 1572.09 L1252.72 1576.64 L1239.23 1576.64 L1239.23 1518.52 Z" fill="#000000" fill-rule="nonzero" fill-opacity="1" /><path clip-path="url(#clip360)" d="M1287.93 1533.45 L1287.93 1538.98 Q1285.44 1537.71 1282.77 1537.07 Q1280.1 1536.44 1277.23 1536.44 Q1272.87 1536.44 1270.68 1537.77 Q1268.51 1539.11 1268.51 1541.79 Q1268.51 1543.82 1270.07 1545 Q1271.63 1546.15 1276.34 1547.2 L1278.35 1547.64 Q1284.58 1548.98 1287.19 1551.43 Q1289.84 1553.85 1289.84 1558.21 Q1289.84 1563.17 1285.89 1566.07 Q1281.97 1568.97 1275.1 1568.97 Q1272.23 1568.97 1269.12 1568.39 Q1266.03 1567.85 1262.59 1566.74 L1262.59 1560.69 Q1265.84 1562.38 1268.99 1563.24 Q1272.14 1564.07 1275.23 1564.07 Q1279.36 1564.07 1281.59 1562.66 Q1283.82 1561.23 1283.82 1558.65 Q1283.82 1556.27 1282.2 1554.99 Q1280.61 1553.72 1275.16 1552.54 L1273.13 1552.07 Q1267.68 1550.92 1265.26 1548.56 Q1262.85 1546.18 1262.85 1542.04 Q1262.85 1537.01 1266.41 1534.27 Q1269.98 1531.54 1276.53 1531.54 Q1279.78 1531.54 1282.64 1532.01 Q1285.51 1532.49 1287.93 1533.45 Z" fill="#000000" fill-rule="nonzero" fill-opacity="1" /><path clip-path="url(#clip360)" d="M1312.85 1518.52 L1312.85 1576.64 L1299.35 1576.64 L1299.35 1572.09 L1306.96 1572.09 L1306.96 1523.07 L1299.35 1523.07 L1299.35 1518.52 L1312.85 1518.52 Z" fill="#000000" fill-rule="nonzero" fill-opacity="1" /><polyline clip-path="url(#clip360)" style="stroke:#000000; stroke-linecap:round; stroke-linejoin:round; stroke-width:4; stroke-opacity:1; fill:none" points="149.191,1423.18 149.191,47.2441 "/>
<polyline clip-path="url(#clip360)" style="stroke:#000000; stroke-linecap:round; stroke-linejoin:round; stroke-width:4; stroke-opacity:1; fill:none" points="149.191,1253.36 168.089,1253.36 "/>
<polyline clip-path="url(#clip360)" style="stroke:#000000; stroke-linecap:round; stroke-linejoin:round; stroke-width:4; stroke-opacity:1; fill:none" points="149.191,974.196 168.089,974.196 "/>
<polyline clip-path="url(#clip360)" style="stroke:#000000; stroke-linecap:round; stroke-linejoin:round; stroke-width:4; stroke-opacity:1; fill:none" points="149.191,695.035 168.089,695.035 "/>
<polyline clip-path="url(#clip360)" style="stroke:#000000; stroke-linecap:round; stroke-linejoin:round; stroke-width:4; stroke-opacity:1; fill:none" points="149.191,415.873 168.089,415.873 "/>
<polyline clip-path="url(#clip360)" style="stroke:#000000; stroke-linecap:round; stroke-linejoin:round; stroke-width:4; stroke-opacity:1; fill:none" points="149.191,136.712 168.089,136.712 "/>
<path clip-path="url(#clip360)" d="M50.9921 1253.81 L80.6679 1253.81 L80.6679 1257.74 L50.9921 1257.74 L50.9921 1253.81 Z" fill="#000000" fill-rule="nonzero" fill-opacity="1" /><path clip-path="url(#clip360)" d="M103.608 1240.15 L91.8021 1258.6 L103.608 1258.6 L103.608 1240.15 M102.381 1236.08 L108.26 1236.08 L108.26 1258.6 L113.191 1258.6 L113.191 1262.49 L108.26 1262.49 L108.26 1270.64 L103.608 1270.64 L103.608 1262.49 L88.0058 1262.49 L88.0058 1257.98 L102.381 1236.08 Z" fill="#000000" fill-rule="nonzero" fill-opacity="1" /><path clip-path="url(#clip360)" d="M53.0754 974.648 L82.7512 974.648 L82.7512 978.583 L53.0754 978.583 L53.0754 974.648 Z" fill="#000000" fill-rule="nonzero" fill-opacity="1" /><path clip-path="url(#clip360)" d="M96.8715 987.541 L113.191 987.541 L113.191 991.476 L91.2465 991.476 L91.2465 987.541 Q93.9086 984.787 98.4919 980.157 Q103.098 975.504 104.279 974.162 Q106.524 971.639 107.404 969.902 Q108.307 968.143 108.307 966.453 Q108.307 963.699 106.362 961.963 Q104.441 960.227 101.339 960.227 Q99.14 960.227 96.6863 960.99 Q94.2558 961.754 91.478 963.305 L91.478 958.583 Q94.3021 957.449 96.7558 956.87 Q99.2095 956.291 101.246 956.291 Q106.617 956.291 109.811 958.977 Q113.006 961.662 113.006 966.152 Q113.006 968.282 112.196 970.203 Q111.408 972.102 109.302 974.694 Q108.723 975.365 105.621 978.583 Q102.52 981.777 96.8715 987.541 Z" fill="#000000" fill-rule="nonzero" fill-opacity="1" /><path clip-path="url(#clip360)" d="M101.246 680.834 Q97.6354 680.834 95.8067 684.398 Q94.0012 687.94 94.0012 695.07 Q94.0012 702.176 95.8067 705.741 Q97.6354 709.283 101.246 709.283 Q104.881 709.283 106.686 705.741 Q108.515 702.176 108.515 695.07 Q108.515 687.94 106.686 684.398 Q104.881 680.834 101.246 680.834 M101.246 677.13 Q107.057 677.13 110.112 681.736 Q113.191 686.32 113.191 695.07 Q113.191 703.796 110.112 708.403 Q107.057 712.986 101.246 712.986 Q95.4363 712.986 92.3576 708.403 Q89.3021 703.796 89.3021 695.07 Q89.3021 686.32 92.3576 681.736 Q95.4363 677.13 101.246 677.13 Z" fill="#000000" fill-rule="nonzero" fill-opacity="1" /><path clip-path="url(#clip360)" d="M96.8715 429.218 L113.191 429.218 L113.191 433.153 L91.2465 433.153 L91.2465 429.218 Q93.9086 426.464 98.4919 421.834 Q103.098 417.181 104.279 415.839 Q106.524 413.316 107.404 411.579 Q108.307 409.82 108.307 408.13 Q108.307 405.376 106.362 403.64 Q104.441 401.904 101.339 401.904 Q99.14 401.904 96.6863 402.667 Q94.2558 403.431 91.478 404.982 L91.478 400.26 Q94.3021 399.126 96.7558 398.547 Q99.2095 397.968 101.246 397.968 Q106.617 397.968 109.811 400.654 Q113.006 403.339 113.006 407.829 Q113.006 409.959 112.196 411.88 Q111.408 413.779 109.302 416.371 Q108.723 417.042 105.621 420.26 Q102.52 423.454 96.8715 429.218 Z" fill="#000000" fill-rule="nonzero" fill-opacity="1" /><path clip-path="url(#clip360)" d="M103.608 123.506 L91.8021 141.955 L103.608 141.955 L103.608 123.506 M102.381 119.432 L108.26 119.432 L108.26 141.955 L113.191 141.955 L113.191 145.844 L108.26 145.844 L108.26 153.992 L103.608 153.992 L103.608 145.844 L88.0058 145.844 L88.0058 141.33 L102.381 119.432 Z" fill="#000000" fill-rule="nonzero" fill-opacity="1" /><polyline clip-path="url(#clip362)" style="stroke:#009af9; stroke-linecap:round; stroke-linejoin:round; stroke-width:4; stroke-opacity:1; fill:none" points="211.556,625.245 215.714,625.215 219.871,625.125 224.029,624.975 228.187,624.765 232.344,624.494 236.502,624.162 240.66,623.769 244.817,623.316 248.975,622.801 253.133,622.227 257.29,621.592 261.448,620.898 265.606,620.144 269.763,619.332 273.921,618.462 278.079,617.535 282.236,616.552 286.394,615.513 290.552,614.42 294.709,613.273 298.867,612.074 303.025,610.824 307.182,609.523 311.34,608.173 315.498,606.776 319.655,605.333 323.813,603.845 327.971,602.314 332.128,600.74 336.286,599.127 340.444,597.475 344.601,595.785 348.759,594.061 352.917,592.302 357.074,590.512 361.232,588.692 365.39,586.843 369.547,584.968 373.705,583.068 377.863,581.146 382.02,579.202 386.178,577.24 390.336,575.261 394.493,573.267 398.651,571.26 402.809,569.242 406.966,567.216 411.124,565.182 415.282,563.144 419.439,561.102 423.597,559.06 427.755,557.02 431.912,554.982 436.07,552.95 440.228,550.925 444.385,548.91 448.543,546.906 452.701,544.916 456.858,542.941 461.016,540.983 465.174,539.045 469.331,537.128 473.489,535.235 477.647,533.366 481.804,531.524 485.962,529.712 490.12,527.93 494.277,526.18 498.435,524.465 502.593,522.785 506.75,521.143 510.908,519.541 515.066,517.979 519.223,516.46 523.381,514.985 527.539,513.555 531.696,512.173 535.854,510.839 540.012,509.554 544.17,508.321 548.327,507.141 552.485,506.014 556.643,504.942 560.8,503.926 564.958,502.967 569.116,502.067 573.273,501.226 577.431,500.445 581.589,499.725 585.746,499.068 589.904,498.474 594.062,497.943 598.219,497.477 602.377,497.077 606.535,496.743 610.692,496.475 614.85,496.275 619.008,496.144 623.165,496.081 627.323,496.084 631.481,496.139 635.638,496.242 639.796,496.396 643.954,496.599 648.111,496.853 652.269,497.157 656.427,497.511 660.584,497.916 664.742,498.371 668.9,498.875 673.057,499.429 677.215,500.032 681.373,500.684 685.53,501.384 689.688,502.132 693.846,502.928 698.003,503.769 702.161,504.656 706.319,505.589 710.476,506.565 714.634,507.585 718.792,508.647 722.949,509.75 727.107,510.893 731.265,512.076 735.422,513.297 739.58,514.554 743.738,515.847 747.895,517.175 752.053,518.535 756.211,519.928 760.368,521.351 764.526,522.803 768.684,524.282 772.841,525.787 776.999,527.318 781.157,528.871 785.314,530.446 789.472,532.04 793.63,533.654 797.787,535.284 801.945,536.929 806.103,538.588 810.26,540.258 814.418,541.939 818.576,543.629 822.733,545.325 826.891,547.027 831.049,548.732 835.206,550.439 839.364,552.145 843.522,553.851 847.679,555.553 851.837,557.249 855.995,558.939 860.152,560.621 864.31,562.293 868.468,563.952 872.625,565.599 876.783,567.23 880.941,568.844 885.098,570.44 889.256,572.016 893.414,573.571 897.571,575.102 901.729,576.608 905.887,578.089 910.044,579.541 914.202,580.965 918.36,582.358 922.517,583.719 926.675,585.046 930.833,586.339 934.99,587.595 939.148,588.814 943.306,589.994 947.463,591.135 951.621,592.234 955.779,593.291 959.936,594.305 964.094,595.274 968.252,596.197 972.41,597.074 976.567,597.903 980.725,598.684 984.883,599.415 989.04,600.096 993.198,600.726 997.356,601.304 1001.51,601.829 1005.67,602.3 1009.83,602.717 1013.99,603.079 1018.14,603.386 1022.3,603.636 1026.46,603.83 1030.62,603.966 1034.77,604.044 1038.93,604.064 1043.09,604.038 1047.25,603.973 1051.41,603.87 1055.56,603.727 1059.72,603.546 1063.88,603.325 1068.04,603.065 1072.19,602.766 1076.35,602.427 1080.51,602.049 1084.67,601.633 1088.82,601.177 1092.98,600.683 1097.14,600.151 1101.3,599.582 1105.45,598.975 1109.61,598.331 1113.77,597.65 1117.93,596.934 1122.09,596.183 1126.24,595.397 1130.4,594.577 1134.56,593.725 1138.72,592.84 1142.87,591.923 1147.03,590.976 1151.19,589.999 1155.35,588.993 1159.5,587.959 1163.66,586.898 1167.82,585.811 1171.98,584.7 1176.14,583.564 1180.29,582.406 1184.45,581.226 1188.61,580.026 1192.77,578.807 1196.92,577.57 1201.08,576.316 1205.24,575.046 1209.4,573.762 1213.55,572.464 1217.71,571.155 1221.87,569.836 1226.03,568.507 1230.19,567.171 1234.34,565.828 1238.5,564.479 1242.66,563.127 1246.82,561.773 1250.97,560.417 1255.13,559.061 1259.29,557.707 1263.45,556.356 1267.6,555.009 1271.76,553.668 1275.92,552.334 1280.08,551.008 1284.23,549.692 1288.39,548.387 1292.55,547.094 1296.71,545.814 1300.87,544.55 1305.02,543.301 1309.18,542.07 1313.34,540.858 1317.5,539.666 1321.65,538.495 1325.81,537.346 1329.97,536.221 1334.13,535.12 1338.28,534.046 1342.44,532.998 1346.6,531.978 1350.76,530.988 1354.92,530.027 1359.07,529.098 1363.23,528.201 1367.39,527.337 1371.55,526.507 1375.7,525.712 1379.86,524.954 1384.02,524.231 1388.18,523.547 1392.33,522.901 1396.49,522.294 1400.65,521.727 1404.81,521.201 1408.96,520.716 1413.12,520.273 1417.28,519.873 1421.44,519.516 1425.6,519.203 1429.75,518.935 1433.91,518.712 1438.07,518.534 1442.23,518.402 1446.38,518.317 1450.54,518.279 1454.7,518.283 1458.86,518.316 1463.01,518.375 1467.17,518.462 1471.33,518.576 1475.49,518.717 1479.65,518.886 1483.8,519.083 1487.96,519.307 1492.12,519.559 1496.28,519.839 1500.43,520.145 1504.59,520.48 1508.75,520.841 1512.91,521.229 1517.06,521.643 1521.22,522.084 1525.38,522.551 1529.54,523.044 1533.69,523.561 1537.85,524.104 1542.01,524.671 1546.17,525.262 1550.33,525.877 1554.48,526.515 1558.64,527.174 1562.8,527.856 1566.96,528.559 1571.11,529.282 1575.27,530.025 1579.43,530.788 1583.59,531.569 1587.74,532.367 1591.9,533.183 1596.06,534.015 1600.22,534.862 1604.38,535.724 1608.53,536.6 1612.69,537.489 1616.85,538.389 1621.01,539.301 1625.16,540.224 1629.32,541.155 1633.48,542.096 1637.64,543.043 1641.79,543.998 1645.95,544.958 1650.11,545.923 1654.27,546.892 1658.43,547.864 1662.58,548.837 1666.74,549.812 1670.9,550.786 1675.06,551.759 1679.21,552.731 1683.37,553.699 1687.53,554.663 1691.69,555.623 1695.84,556.576 1700,557.523 1704.16,558.462 1708.32,559.392 1712.47,560.312 1716.63,561.222 1720.79,562.12 1724.95,563.005 1729.11,563.877 1733.26,564.735 1737.42,565.577 1741.58,566.403 1745.74,567.213 1749.89,568.004 1754.05,568.777 1758.21,569.53 1762.37,570.262 1766.52,570.974 1770.68,571.664 1774.84,572.331 1779,572.974 1783.16,573.594 1787.31,574.188 1791.47,574.758 1795.63,575.3 1799.79,575.816 1803.94,576.305 1808.1,576.765 1812.26,577.197 1816.42,577.599 1820.57,577.972 1824.73,578.314 1828.89,578.625 1833.05,578.905 1837.2,579.153 1841.36,579.369 1845.52,579.552 1849.68,579.702 1853.84,579.818 1857.99,579.901 1862.15,579.949 1866.31,579.962 1870.47,579.953 1874.62,579.93 1878.78,579.893 1882.94,579.842 1887.1,579.775 1891.25,579.695 1895.41,579.6 1899.57,579.49 1903.73,579.366 1907.89,579.227 1912.04,579.073 1916.2,578.905 1920.36,578.723 1924.52,578.526 1928.67,578.315 1932.83,578.09 1936.99,577.851 1941.15,577.598 1945.3,577.331 1949.46,577.051 1953.62,576.757 1957.78,576.45 1961.93,576.131 1966.09,575.798 1970.25,575.453 1974.41,575.097 1978.57,574.728 1982.72,574.348 1986.88,573.957 1991.04,573.554 1995.2,573.142 1999.35,572.719 2003.51,572.286 2007.67,571.844 2011.83,571.393 2015.98,570.933 2020.14,570.465 2024.3,569.99 2028.46,569.507 2032.62,569.017 2036.77,568.521 2040.93,568.019 2045.09,567.512 2049.25,567 2053.4,566.483 2057.56,565.962 2061.72,565.438 2065.88,564.911 2070.03,564.381 2074.19,563.85 2078.35,563.317 2082.51,562.783 2086.67,562.249 2090.82,561.715 2094.98,561.182 2099.14,560.65 2103.3,560.12 2107.45,559.592 2111.61,559.067 2115.77,558.546 2119.93,558.029 2124.08,557.516 2128.24,557.008 2132.4,556.506 2136.56,556.01 2140.71,555.52 2144.87,555.038 2149.03,554.563 2153.19,554.097 2157.35,553.639 2161.5,553.19 2165.66,552.751 2169.82,552.322 2173.98,551.904 2178.13,551.497 2182.29,551.101 2186.45,550.718 2190.61,550.347 2194.76,549.989 2198.92,549.644 2203.08,549.313 2207.24,548.996 2211.4,548.694 2215.55,548.406 2219.71,548.134 2223.87,547.878 2228.03,547.638 2232.18,547.414 2236.34,547.208 2240.5,547.018 2244.66,546.845 2248.81,546.69 2252.97,546.554 2257.13,546.435 2261.29,546.335 2265.44,546.254 2269.6,546.192 2273.76,546.149 2277.92,546.126 2282.08,546.121 2286.23,546.121 2290.39,546.121 "/>
<polyline clip-path="url(#clip362)" style="stroke:#e26f46; stroke-linecap:round; stroke-linejoin:round; stroke-width:4; stroke-opacity:1; fill:none" points="211.556,695.035 215.714,689.076 219.871,683.072 224.029,677.031 228.187,670.965 232.344,664.883 236.502,658.794 240.66,652.709 244.817,646.636 248.975,640.584 253.133,634.561 257.29,628.577 261.448,622.639 265.606,616.756 269.763,610.935 273.921,605.183 278.079,599.509 282.236,593.918 286.394,588.418 290.552,583.016 294.709,577.717 298.867,572.529 303.025,567.457 307.182,562.507 311.34,557.684 315.498,552.995 319.655,548.444 323.813,544.036 327.971,539.777 332.128,535.67 336.286,531.72 340.444,527.932 344.601,524.31 348.759,520.857 352.917,517.577 357.074,514.473 361.232,511.55 365.39,508.809 369.547,506.254 373.705,503.887 377.863,501.711 382.02,499.728 386.178,497.94 390.336,496.35 394.493,494.957 398.651,493.765 402.809,492.774 406.966,491.985 411.124,491.399 415.282,491.016 419.439,490.838 423.597,490.863 427.755,491.093 431.912,491.527 436.07,492.165 440.228,493.005 444.385,494.047 448.543,495.291 452.701,496.734 456.858,498.375 461.016,500.214 465.174,502.247 469.331,504.474 473.489,506.891 477.647,509.497 481.804,512.289 485.962,515.265 490.12,518.421 494.277,521.754 498.435,525.262 502.593,528.941 506.75,532.788 510.908,536.799 515.066,540.97 519.223,545.298 523.381,549.778 527.539,554.408 531.696,559.181 535.854,564.096 540.012,569.146 544.17,574.328 548.327,579.637 552.485,585.069 556.643,590.62 560.8,596.285 564.958,602.06 569.116,607.941 573.273,613.922 577.431,620 581.589,626.172 585.746,632.432 589.904,638.778 594.062,645.205 598.219,651.71 602.377,658.291 606.535,664.944 610.692,671.667 614.85,678.459 619.008,685.318 623.165,692.243 627.323,697.979 631.481,702.916 635.638,707.887 639.796,712.884 643.954,717.9 648.111,722.926 652.269,727.956 656.427,732.981 660.584,737.996 664.742,742.991 668.9,747.962 673.057,752.9 677.215,757.8 681.373,762.654 685.53,767.457 689.688,772.201 693.846,776.882 698.003,781.493 702.161,786.028 706.319,790.483 710.476,794.851 714.634,799.127 718.792,803.307 722.949,807.385 727.107,811.357 731.265,815.218 735.422,818.963 739.58,822.59 743.738,826.092 747.895,829.467 752.053,832.711 756.211,835.82 760.368,838.791 764.526,841.62 768.684,844.305 772.841,846.842 776.999,849.229 781.157,851.463 785.314,853.542 789.472,855.464 793.63,857.226 797.787,858.827 801.945,860.264 806.103,861.537 810.26,862.644 814.418,863.584 818.576,864.356 822.733,864.958 826.891,865.391 831.049,865.654 835.206,865.746 839.364,865.668 843.522,865.418 847.679,864.999 851.837,864.409 855.995,863.649 860.152,862.721 864.31,861.624 868.468,860.361 872.625,858.931 876.783,857.337 880.941,855.58 885.098,853.661 889.256,851.583 893.414,849.347 897.571,846.955 901.729,844.41 905.887,841.714 910.044,838.869 914.202,835.878 918.36,832.743 922.517,829.468 926.675,826.056 930.833,822.509 934.99,818.83 939.148,815.023 943.306,811.091 947.463,807.037 951.621,802.866 955.779,798.579 959.936,794.181 964.094,789.676 968.252,785.066 972.41,780.356 976.567,775.549 980.725,770.649 984.883,765.659 989.04,760.582 993.198,755.422 997.356,750.183 1001.51,744.867 1005.67,739.478 1009.83,734.018 1013.99,728.491 1018.14,722.898 1022.3,717.243 1026.46,711.527 1030.62,705.752 1034.77,699.919 1038.93,694.351 1043.09,690.514 1047.25,686.647 1051.41,682.756 1055.56,678.846 1059.72,674.924 1063.88,670.994 1068.04,667.063 1072.19,663.135 1076.35,659.216 1080.51,655.311 1084.67,651.426 1088.82,647.566 1092.98,643.735 1097.14,639.94 1101.3,636.184 1105.45,632.473 1109.61,628.812 1113.77,625.204 1117.93,621.655 1122.09,618.169 1126.24,614.749 1130.4,611.401 1134.56,608.129 1138.72,604.935 1142.87,601.825 1147.03,598.801 1151.19,595.867 1155.35,593.027 1159.5,590.284 1163.66,587.641 1167.82,585.101 1171.98,582.668 1176.14,580.342 1180.29,578.129 1184.45,576.029 1188.61,574.046 1192.77,572.181 1196.92,570.437 1201.08,568.815 1205.24,567.318 1209.4,565.947 1213.55,564.703 1217.71,563.589 1221.87,562.605 1226.03,561.753 1230.19,561.033 1234.34,560.446 1238.5,559.994 1242.66,559.676 1246.82,559.493 1250.97,559.446 1255.13,559.534 1259.29,559.758 1263.45,560.118 1267.6,560.612 1271.76,561.242 1275.92,562.006 1280.08,562.904 1284.23,563.935 1288.39,565.099 1292.55,566.393 1296.71,567.818 1300.87,569.372 1305.02,571.053 1309.18,572.86 1313.34,574.791 1317.5,576.846 1321.65,579.021 1325.81,581.316 1329.97,583.727 1334.13,586.254 1338.28,588.894 1342.44,591.644 1346.6,594.503 1350.76,597.467 1354.92,600.536 1359.07,603.705 1363.23,606.972 1367.39,610.336 1371.55,613.792 1375.7,617.339 1379.86,620.974 1384.02,624.693 1388.18,628.495 1392.33,632.376 1396.49,636.334 1400.65,640.366 1404.81,644.469 1408.96,648.64 1413.12,652.878 1417.28,657.179 1421.44,661.54 1425.6,665.961 1429.75,670.437 1433.91,674.967 1438.07,679.55 1442.23,684.182 1446.38,688.863 1450.54,693.591 1454.7,696.914 1458.86,699.613 1463.01,702.331 1467.17,705.065 1471.33,707.812 1475.49,710.567 1479.65,713.327 1483.8,716.089 1487.96,718.849 1492.12,721.603 1496.28,724.348 1500.43,727.081 1504.59,729.797 1508.75,732.494 1512.91,735.167 1517.06,737.814 1521.22,740.431 1525.38,743.015 1529.54,745.563 1533.69,748.071 1537.85,750.537 1542.01,752.957 1546.17,755.328 1550.33,757.648 1554.48,759.913 1558.64,762.121 1562.8,764.269 1566.96,766.355 1571.11,768.376 1575.27,770.329 1579.43,772.213 1583.59,774.025 1587.74,775.763 1591.9,777.424 1596.06,779.007 1600.22,780.51 1604.38,781.931 1608.53,783.269 1612.69,784.521 1616.85,785.687 1621.01,786.764 1625.16,787.753 1629.32,788.65 1633.48,789.455 1637.64,790.168 1641.79,790.787 1645.95,791.311 1650.11,791.741 1654.27,792.074 1658.43,792.31 1662.58,792.45 1666.74,792.493 1670.9,792.438 1675.06,792.285 1679.21,792.035 1683.37,791.687 1687.53,791.242 1691.69,790.7 1695.84,790.061 1700,789.325 1704.16,788.493 1708.32,787.566 1712.47,786.545 1716.63,785.43 1720.79,784.221 1724.95,782.921 1729.11,781.529 1733.26,780.048 1737.42,778.478 1741.58,776.82 1745.74,775.076 1749.89,773.248 1754.05,771.336 1758.21,769.342 1762.37,767.268 1766.52,765.115 1770.68,762.885 1774.84,760.58 1779,758.201 1783.16,755.751 1787.31,753.23 1791.47,750.642 1795.63,747.987 1799.79,745.269 1803.94,742.488 1808.1,739.647 1812.26,736.747 1816.42,733.791 1820.57,730.781 1824.73,727.719 1828.89,724.605 1833.05,721.444 1837.2,718.235 1841.36,714.982 1845.52,711.686 1849.68,708.349 1853.84,704.973 1857.99,701.559 1862.15,698.108 1866.31,694.86 1870.47,693.448 1874.62,692.025 1878.78,690.591 1882.94,689.15 1887.1,687.701 1891.25,686.248 1895.41,684.791 1899.57,683.333 1903.73,681.874 1907.89,680.418 1912.04,678.965 1916.2,677.517 1920.36,676.077 1924.52,674.645 1928.67,673.223 1932.83,671.814 1936.99,670.419 1941.15,669.039 1945.3,667.676 1949.46,666.332 1953.62,665.009 1957.78,663.708 1961.93,662.431 1966.09,661.179 1970.25,659.953 1974.41,658.757 1978.57,657.59 1982.72,656.454 1986.88,655.351 1991.04,654.282 1995.2,653.248 1999.35,652.252 2003.51,651.293 2007.67,650.373 2011.83,649.494 2015.98,648.656 2020.14,647.861 2024.3,647.109 2028.46,646.402 2032.62,645.741 2036.77,645.126 2040.93,644.558 2045.09,644.038 2049.25,643.568 2053.4,643.147 2057.56,642.776 2061.72,642.456 2065.88,642.187 2070.03,641.97 2074.19,641.805 2078.35,641.693 2082.51,641.634 2086.67,641.628 2090.82,641.676 2094.98,641.777 2099.14,641.932 2103.3,642.141 2107.45,642.404 2111.61,642.721 2115.77,643.091 2119.93,643.515 2124.08,643.993 2128.24,644.523 2132.4,645.107 2136.56,645.743 2140.71,646.432 2144.87,647.172 2149.03,647.964 2153.19,648.806 2157.35,649.699 2161.5,650.641 2165.66,651.633 2169.82,652.672 2173.98,653.76 2178.13,654.894 2182.29,656.074 2186.45,657.3 2190.61,658.57 2194.76,659.883 2198.92,661.239 2203.08,662.637 2207.24,664.075 2211.4,665.553 2215.55,667.069 2219.71,668.623 2223.87,670.213 2228.03,671.838 2232.18,673.498 2236.34,675.19 2240.5,676.915 2244.66,678.67 2248.81,680.454 2252.97,682.267 2257.13,684.107 2261.29,685.973 2265.44,687.863 2269.6,689.777 2273.76,691.713 2277.92,693.67 2282.08,695.045 2286.23,695.045 2290.39,695.045 "/>
<polyline clip-path="url(#clip362)" style="stroke:#3da44d; stroke-linecap:round; stroke-linejoin:round; stroke-width:4; stroke-opacity:1; fill:none" points="211.556,101.817 215.714,96.7008 219.871,92.6141 224.029,89.5393 228.187,87.4572 232.344,86.3467 236.502,86.1857 240.66,86.9511 244.817,88.6196 248.975,91.1674 253.133,94.5707 257.29,98.8058 261.448,103.849 265.606,109.678 269.763,116.269 273.921,123.601 278.079,131.65 282.236,140.395 286.394,149.816 290.552,159.89 294.709,170.598 298.867,181.919 303.025,193.832 307.182,206.318 311.34,219.356 315.498,232.928 319.655,247.012 323.813,261.59 327.971,276.643 332.128,292.149 336.286,308.091 340.444,324.447 344.601,341.199 348.759,358.326 352.917,375.81 357.074,393.628 361.232,411.763 365.39,430.193 369.547,448.899 373.705,467.86 377.863,487.055 382.02,506.465 386.178,526.069 390.336,545.845 394.493,565.775 398.651,585.836 402.809,606.009 406.966,626.272 411.124,646.606 415.282,666.989 419.439,687.401 423.597,707.821 427.755,728.229 431.912,748.605 436.07,768.929 440.228,789.179 444.385,809.338 448.543,829.384 452.701,849.3 456.858,869.064 461.016,888.659 465.174,908.066 469.331,927.267 473.489,946.243 477.647,964.977 481.804,983.453 485.962,1001.65 490.12,1019.56 494.277,1037.16 498.435,1054.44 502.593,1071.38 506.75,1087.98 510.908,1104.21 515.066,1120.06 519.223,1135.52 523.381,1150.59 527.539,1165.25 531.696,1179.5 535.854,1193.32 540.012,1206.71 544.17,1219.67 548.327,1232.19 552.485,1244.27 556.643,1255.91 560.8,1267.1 564.958,1277.87 569.116,1288.2 573.273,1298.1 577.431,1307.59 581.589,1316.68 585.746,1325.38 589.904,1333.72 594.062,1341.71 598.219,1349.38 602.377,1356.76 606.535,1363.9 610.692,1370.82 614.85,1377.58 619.008,1384.24 623.165,1186.95 627.323,1186.78 631.481,1190.56 635.638,1193.56 639.796,1195.79 643.954,1197.25 648.111,1197.96 652.269,1197.92 656.427,1197.15 660.584,1195.66 664.742,1193.47 668.9,1190.59 673.057,1187.04 677.215,1182.83 681.373,1177.97 685.53,1172.49 689.688,1166.4 693.846,1159.71 698.003,1152.45 702.161,1144.62 706.319,1136.25 710.476,1127.34 714.634,1117.92 718.792,1108.01 722.949,1097.61 727.107,1086.75 731.265,1075.44 735.422,1063.7 739.58,1051.54 743.738,1038.98 747.895,1026.04 752.053,1012.74 756.211,999.08 760.368,985.09 764.526,970.784 768.684,956.178 772.841,941.29 776.999,926.135 781.157,910.733 785.314,895.098 789.472,879.25 793.63,863.204 797.787,846.978 801.945,830.59 806.103,814.057 810.26,797.395 814.418,780.624 818.576,763.759 822.733,746.818 826.891,729.819 831.049,712.778 835.206,695.714 839.364,678.642 843.522,661.581 847.679,644.546 851.837,627.556 855.995,610.625 860.152,593.772 864.31,577.012 868.468,560.36 872.625,543.834 876.783,527.449 880.941,511.219 885.098,495.16 889.256,479.287 893.414,463.613 897.571,448.153 901.729,432.92 905.887,417.928 910.044,403.188 914.202,388.714 918.36,374.515 922.517,360.605 926.675,346.992 930.833,333.687 934.99,320.698 939.148,308.034 943.306,295.703 947.463,283.71 951.621,272.063 955.779,260.764 959.936,249.819 964.094,239.23 968.252,228.998 972.41,219.124 976.567,209.606 980.725,200.443 984.883,191.629 989.04,183.159 993.198,175.026 997.356,167.22 1001.51,159.73 1005.67,152.542 1009.83,145.639 1013.99,139.002 1018.14,132.61 1022.3,126.437 1026.46,120.454 1030.62,114.629 1034.77,308.859 1038.93,312.98 1043.09,309.735 1047.25,307.047 1051.41,304.919 1055.56,303.349 1059.72,302.336 1063.88,301.875 1068.04,301.964 1072.19,302.595 1076.35,303.765 1080.51,305.464 1084.67,307.687 1088.82,310.423 1092.98,313.666 1097.14,317.404 1101.3,321.629 1105.45,326.331 1109.61,331.498 1113.77,337.12 1117.93,343.186 1122.09,349.685 1126.24,356.605 1130.4,363.934 1134.56,371.661 1138.72,379.773 1142.87,388.258 1147.03,397.104 1151.19,406.298 1155.35,415.828 1159.5,425.68 1163.66,435.842 1167.82,446.301 1171.98,457.043 1176.14,468.056 1180.29,479.327 1184.45,490.841 1188.61,502.585 1192.77,514.547 1196.92,526.711 1201.08,539.065 1205.24,551.595 1209.4,564.287 1213.55,577.128 1217.71,590.103 1221.87,603.198 1226.03,616.401 1230.19,629.696 1234.34,643.07 1238.5,656.51 1242.66,670.001 1246.82,683.53 1250.97,697.083 1255.13,710.647 1259.29,724.208 1263.45,737.753 1267.6,751.268 1271.76,764.741 1275.92,778.158 1280.08,791.506 1284.23,804.774 1288.39,817.948 1292.55,831.016 1296.71,843.967 1300.87,856.788 1305.02,869.468 1309.18,881.997 1313.34,894.362 1317.5,906.554 1321.65,918.563 1325.81,930.379 1329.97,941.991 1334.13,953.392 1338.28,964.574 1342.44,975.527 1346.6,986.244 1350.76,996.719 1354.92,1006.94 1359.07,1016.92 1363.23,1026.63 1367.39,1036.07 1371.55,1045.25 1375.7,1054.16 1379.86,1062.79 1384.02,1071.15 1388.18,1079.23 1392.33,1087.03 1396.49,1094.56 1400.65,1101.82 1404.81,1108.81 1408.96,1115.53 1413.12,1121.99 1417.28,1128.2 1421.44,1134.17 1425.6,1139.9 1429.75,1145.41 1433.91,1150.71 1438.07,1155.81 1442.23,1160.73 1446.38,1165.49 1450.54,963.603 1454.7,963.818 1458.86,965.937 1463.01,967.705 1467.17,969.117 1471.33,970.172 1475.49,970.868 1479.65,971.205 1483.8,971.184 1487.96,970.803 1492.12,970.066 1496.28,968.975 1500.43,967.531 1504.59,965.737 1508.75,963.599 1512.91,961.119 1517.06,958.302 1521.22,955.154 1525.38,951.679 1529.54,947.884 1533.69,943.775 1537.85,939.357 1542.01,934.638 1546.17,929.625 1550.33,924.325 1554.48,918.746 1558.64,912.894 1562.8,906.779 1566.96,900.409 1571.11,893.791 1575.27,886.935 1579.43,879.848 1583.59,872.54 1587.74,865.02 1591.9,857.297 1596.06,849.38 1600.22,841.278 1604.38,833.001 1608.53,824.559 1612.69,815.96 1616.85,807.215 1621.01,798.333 1625.16,789.324 1629.32,780.198 1633.48,770.964 1637.64,761.633 1641.79,752.215 1645.95,742.719 1650.11,733.155 1654.27,723.534 1658.43,713.864 1662.58,704.157 1666.74,694.421 1670.9,684.666 1675.06,674.902 1679.21,665.139 1683.37,655.386 1687.53,645.653 1691.69,635.948 1695.84,626.282 1700,616.663 1704.16,607.099 1708.32,597.601 1712.47,588.176 1716.63,578.833 1720.79,569.579 1724.95,560.424 1729.11,551.375 1733.26,542.44 1737.42,533.625 1741.58,524.938 1745.74,516.386 1749.89,507.976 1754.05,499.713 1758.21,491.604 1762.37,483.654 1766.52,475.869 1770.68,468.253 1774.84,460.811 1779,453.548 1783.16,446.467 1787.31,439.572 1791.47,432.865 1795.63,426.35 1799.79,420.028 1803.94,413.901 1808.1,407.97 1812.26,402.236 1816.42,396.699 1820.57,391.358 1824.73,386.214 1828.89,381.263 1833.05,376.504 1837.2,371.935 1841.36,367.552 1845.52,363.35 1849.68,359.326 1853.84,355.473 1857.99,351.786 1862.15,551.614 1866.31,554.475 1870.47,553.239 1874.62,552.162 1878.78,551.248 1882.94,550.497 1887.1,549.913 1891.25,549.497 1895.41,549.25 1899.57,549.174 1903.73,549.27 1907.89,549.538 1912.04,549.979 1916.2,550.592 1920.36,551.379 1924.52,552.338 1928.67,553.469 1932.83,554.77 1936.99,556.241 1941.15,557.881 1945.3,559.687 1949.46,561.658 1953.62,563.792 1957.78,566.087 1961.93,568.539 1966.09,571.147 1970.25,573.908 1974.41,576.818 1978.57,579.875 1982.72,583.075 1986.88,586.414 1991.04,589.888 1995.2,593.495 1999.35,597.23 2003.51,601.089 2007.67,605.067 2011.83,609.161 2015.98,613.365 2020.14,617.676 2024.3,622.089 2028.46,626.599 2032.62,631.201 2036.77,635.89 2040.93,640.661 2045.09,645.51 2049.25,650.431 2053.4,655.42 2057.56,660.47 2061.72,665.578 2065.88,670.736 2070.03,675.942 2074.19,681.188 2078.35,686.471 2082.51,691.784 2086.67,697.122 2090.82,702.481 2094.98,707.854 2099.14,713.237 2103.3,718.625 2107.45,724.012 2111.61,729.393 2115.77,734.764 2119.93,740.118 2124.08,745.452 2128.24,750.76 2132.4,756.037 2136.56,761.279 2140.71,766.482 2144.87,771.639 2149.03,776.748 2153.19,781.803 2157.35,786.8 2161.5,791.735 2165.66,796.605 2169.82,801.404 2173.98,806.129 2178.13,810.776 2182.29,815.342 2186.45,819.824 2190.61,824.217 2194.76,828.519 2198.92,832.726 2203.08,836.836 2207.24,840.846 2211.4,844.753 2215.55,848.554 2219.71,852.248 2223.87,855.833 2228.03,859.305 2232.18,862.663 2236.34,865.907 2240.5,869.033 2244.66,872.04 2248.81,874.928 2252.97,877.696 2257.13,880.341 2261.29,882.865 2265.44,885.265 2269.6,887.542 2273.76,695.035 2277.92,695.035 2282.08,695.035 2286.23,695.035 2290.39,695.035 "/>
<polyline clip-path="url(#clip362)" style="stroke:#0000ff; stroke-linecap:round; stroke-linejoin:round; stroke-width:4; stroke-opacity:1; fill:none" stroke-dasharray="16, 10" points="211.556,1384.24 211.556,86.1857 "/>
<polyline clip-path="url(#clip362)" style="stroke:#0000ff; stroke-linecap:round; stroke-linejoin:round; stroke-width:4; stroke-opacity:1; fill:none" stroke-dasharray="16, 10" points="624.837,1384.24 624.837,86.1857 "/>
<polyline clip-path="url(#clip362)" style="stroke:#0000ff; stroke-linecap:round; stroke-linejoin:round; stroke-width:4; stroke-opacity:1; fill:none" stroke-dasharray="16, 10" points="1038.2,1384.24 1038.2,86.1857 "/>
<polyline clip-path="url(#clip362)" style="stroke:#0000ff; stroke-linecap:round; stroke-linejoin:round; stroke-width:4; stroke-opacity:1; fill:none" stroke-dasharray="16, 10" points="1451.8,1384.24 1451.8,86.1857 "/>
<polyline clip-path="url(#clip362)" style="stroke:#0000ff; stroke-linecap:round; stroke-linejoin:round; stroke-width:4; stroke-opacity:1; fill:none" stroke-dasharray="16, 10" points="1865.82,1384.24 1865.82,86.1857 "/>
<polyline clip-path="url(#clip362)" style="stroke:#0000ff; stroke-linecap:round; stroke-linejoin:round; stroke-width:4; stroke-opacity:1; fill:none" stroke-dasharray="16, 10" points="2280.8,1384.24 2280.8,86.1857 "/>
<path clip-path="url(#clip360)" d="M1415.15 1377.32 L2279.3 1377.32 L2279.3 1118.12 L1415.15 1118.12  Z" fill="#ffffff" fill-rule="evenodd" fill-opacity="1"/>
<polyline clip-path="url(#clip360)" style="stroke:#000000; stroke-linecap:round; stroke-linejoin:round; stroke-width:4; stroke-opacity:1; fill:none" points="1415.15,1377.32 2279.3,1377.32 2279.3,1118.12 1415.15,1118.12 1415.15,1377.32 "/>
<polyline clip-path="url(#clip360)" style="stroke:#009af9; stroke-linecap:round; stroke-linejoin:round; stroke-width:4; stroke-opacity:1; fill:none" points="1439.64,1169.96 1586.54,1169.96 "/>
<path clip-path="url(#clip360)" d="M1631.37 1166.29 Q1632.97 1163.42 1635.19 1162.05 Q1637.42 1160.68 1640.42 1160.68 Q1644.48 1160.68 1646.67 1163.53 Q1648.87 1166.36 1648.87 1171.59 L1648.87 1187.24 L1644.59 1187.24 L1644.59 1171.73 Q1644.59 1168 1643.27 1166.19 Q1641.95 1164.39 1639.24 1164.39 Q1635.93 1164.39 1634.01 1166.59 Q1632.09 1168.79 1632.09 1172.58 L1632.09 1187.24 L1627.81 1187.24 L1627.81 1171.73 Q1627.81 1167.98 1626.49 1166.19 Q1625.17 1164.39 1622.42 1164.39 Q1619.15 1164.39 1617.23 1166.61 Q1615.31 1168.81 1615.31 1172.58 L1615.31 1187.24 L1611.03 1187.24 L1611.03 1161.31 L1615.31 1161.31 L1615.31 1165.34 Q1616.77 1162.95 1618.8 1161.82 Q1620.84 1160.68 1623.64 1160.68 Q1626.47 1160.68 1628.43 1162.12 Q1630.42 1163.55 1631.37 1166.29 Z" fill="#000000" fill-rule="nonzero" fill-opacity="1" /><path clip-path="url(#clip360)" d="M1669.15 1174.2 Q1663.99 1174.2 1662 1175.38 Q1660.01 1176.56 1660.01 1179.41 Q1660.01 1181.68 1661.49 1183.02 Q1662.99 1184.34 1665.56 1184.34 Q1669.11 1184.34 1671.23 1181.84 Q1673.39 1179.32 1673.39 1175.15 L1673.39 1174.2 L1669.15 1174.2 M1677.65 1172.44 L1677.65 1187.24 L1673.39 1187.24 L1673.39 1183.3 Q1671.93 1185.66 1669.75 1186.8 Q1667.58 1187.91 1664.43 1187.91 Q1660.45 1187.91 1658.09 1185.68 Q1655.75 1183.44 1655.75 1179.69 Q1655.75 1175.31 1658.67 1173.09 Q1661.61 1170.87 1667.42 1170.87 L1673.39 1170.87 L1673.39 1170.45 Q1673.39 1167.51 1671.44 1165.92 Q1669.52 1164.3 1666.03 1164.3 Q1663.8 1164.3 1661.7 1164.83 Q1659.59 1165.36 1657.65 1166.43 L1657.65 1162.49 Q1659.98 1161.59 1662.18 1161.15 Q1664.38 1160.68 1666.47 1160.68 Q1672.09 1160.68 1674.87 1163.6 Q1677.65 1166.52 1677.65 1172.44 Z" fill="#000000" fill-rule="nonzero" fill-opacity="1" /><path clip-path="url(#clip360)" d="M1702.95 1162.07 L1702.95 1166.1 Q1701.14 1165.18 1699.2 1164.71 Q1697.25 1164.25 1695.17 1164.25 Q1692 1164.25 1690.4 1165.22 Q1688.83 1166.19 1688.83 1168.14 Q1688.83 1169.62 1689.96 1170.48 Q1691.1 1171.31 1694.52 1172.07 L1695.98 1172.4 Q1700.52 1173.37 1702.42 1175.15 Q1704.34 1176.91 1704.34 1180.08 Q1704.34 1183.69 1701.47 1185.8 Q1698.62 1187.91 1693.62 1187.91 Q1691.54 1187.91 1689.27 1187.49 Q1687.02 1187.1 1684.52 1186.29 L1684.52 1181.89 Q1686.88 1183.11 1689.17 1183.74 Q1691.47 1184.34 1693.71 1184.34 Q1696.72 1184.34 1698.34 1183.32 Q1699.96 1182.28 1699.96 1180.41 Q1699.96 1178.67 1698.78 1177.74 Q1697.62 1176.82 1693.67 1175.96 L1692.18 1175.62 Q1688.23 1174.78 1686.47 1173.07 Q1684.71 1171.33 1684.71 1168.32 Q1684.71 1164.67 1687.3 1162.68 Q1689.89 1160.68 1694.66 1160.68 Q1697.02 1160.68 1699.11 1161.03 Q1701.19 1161.38 1702.95 1162.07 Z" fill="#000000" fill-rule="nonzero" fill-opacity="1" /><path clip-path="url(#clip360)" d="M1727.65 1162.07 L1727.65 1166.1 Q1725.84 1165.18 1723.9 1164.71 Q1721.95 1164.25 1719.87 1164.25 Q1716.7 1164.25 1715.1 1165.22 Q1713.53 1166.19 1713.53 1168.14 Q1713.53 1169.62 1714.66 1170.48 Q1715.79 1171.31 1719.22 1172.07 L1720.68 1172.4 Q1725.22 1173.37 1727.11 1175.15 Q1729.04 1176.91 1729.04 1180.08 Q1729.04 1183.69 1726.17 1185.8 Q1723.32 1187.91 1718.32 1187.91 Q1716.23 1187.91 1713.97 1187.49 Q1711.72 1187.1 1709.22 1186.29 L1709.22 1181.89 Q1711.58 1183.11 1713.87 1183.74 Q1716.17 1184.34 1718.41 1184.34 Q1721.42 1184.34 1723.04 1183.32 Q1724.66 1182.28 1724.66 1180.41 Q1724.66 1178.67 1723.48 1177.74 Q1722.32 1176.82 1718.36 1175.96 L1716.88 1175.62 Q1712.92 1174.78 1711.17 1173.07 Q1709.41 1171.33 1709.41 1168.32 Q1709.41 1164.67 1712 1162.68 Q1714.59 1160.68 1719.36 1160.68 Q1721.72 1160.68 1723.8 1161.03 Q1725.89 1161.38 1727.65 1162.07 Z" fill="#000000" fill-rule="nonzero" fill-opacity="1" /><path clip-path="url(#clip360)" d="M1736.42 1181.36 L1741.3 1181.36 L1741.3 1187.24 L1736.42 1187.24 L1736.42 1181.36 Z" fill="#000000" fill-rule="nonzero" fill-opacity="1" /><path clip-path="url(#clip360)" d="M1767.41 1162.07 L1767.41 1166.1 Q1765.61 1165.18 1763.66 1164.71 Q1761.72 1164.25 1759.64 1164.25 Q1756.47 1164.25 1754.87 1165.22 Q1753.29 1166.19 1753.29 1168.14 Q1753.29 1169.62 1754.43 1170.48 Q1755.56 1171.31 1758.99 1172.07 L1760.45 1172.4 Q1764.98 1173.37 1766.88 1175.15 Q1768.8 1176.91 1768.8 1180.08 Q1768.8 1183.69 1765.93 1185.8 Q1763.09 1187.91 1758.09 1187.91 Q1756 1187.91 1753.73 1187.49 Q1751.49 1187.1 1748.99 1186.29 L1748.99 1181.89 Q1751.35 1183.11 1753.64 1183.74 Q1755.93 1184.34 1758.18 1184.34 Q1761.19 1184.34 1762.81 1183.32 Q1764.43 1182.28 1764.43 1180.41 Q1764.43 1178.67 1763.25 1177.74 Q1762.09 1176.82 1758.13 1175.96 L1756.65 1175.62 Q1752.69 1174.78 1750.93 1173.07 Q1749.17 1171.33 1749.17 1168.32 Q1749.17 1164.67 1751.77 1162.68 Q1754.36 1160.68 1759.13 1160.68 Q1761.49 1160.68 1763.57 1161.03 Q1765.66 1161.38 1767.41 1162.07 Z" fill="#000000" fill-rule="nonzero" fill-opacity="1" /><path clip-path="url(#clip360)" d="M1800.89 1151.26 Q1797.79 1156.59 1796.28 1161.8 Q1794.78 1167 1794.78 1172.35 Q1794.78 1177.7 1796.28 1182.95 Q1797.81 1188.18 1800.89 1193.49 L1797.18 1193.49 Q1793.71 1188.05 1791.97 1182.79 Q1790.26 1177.54 1790.26 1172.35 Q1790.26 1167.19 1791.97 1161.96 Q1793.69 1156.73 1797.18 1151.26 L1800.89 1151.26 Z" fill="#000000" fill-rule="nonzero" fill-opacity="1" /><path clip-path="url(#clip360)" d="M1823.92 1168.6 Q1827.28 1169.32 1829.15 1171.59 Q1831.05 1173.86 1831.05 1177.19 Q1831.05 1182.3 1827.53 1185.11 Q1824.01 1187.91 1817.53 1187.91 Q1815.35 1187.91 1813.04 1187.47 Q1810.75 1187.05 1808.29 1186.19 L1808.29 1181.68 Q1810.24 1182.81 1812.55 1183.39 Q1814.87 1183.97 1817.39 1183.97 Q1821.79 1183.97 1824.08 1182.24 Q1826.4 1180.5 1826.4 1177.19 Q1826.4 1174.13 1824.24 1172.42 Q1822.11 1170.68 1818.29 1170.68 L1814.27 1170.68 L1814.27 1166.84 L1818.48 1166.84 Q1821.93 1166.84 1823.76 1165.48 Q1825.59 1164.09 1825.59 1161.49 Q1825.59 1158.83 1823.69 1157.42 Q1821.81 1155.99 1818.29 1155.99 Q1816.37 1155.99 1814.17 1156.4 Q1811.97 1156.82 1809.34 1157.7 L1809.34 1153.53 Q1812 1152.79 1814.31 1152.42 Q1816.65 1152.05 1818.71 1152.05 Q1824.03 1152.05 1827.14 1154.48 Q1830.24 1156.89 1830.24 1161.01 Q1830.24 1163.88 1828.6 1165.87 Q1826.95 1167.84 1823.92 1168.6 Z" fill="#000000" fill-rule="nonzero" fill-opacity="1" /><path clip-path="url(#clip360)" d="M1854.08 1168.6 Q1857.44 1169.32 1859.31 1171.59 Q1861.21 1173.86 1861.21 1177.19 Q1861.21 1182.3 1857.69 1185.11 Q1854.17 1187.91 1847.69 1187.91 Q1845.52 1187.91 1843.2 1187.47 Q1840.91 1187.05 1838.46 1186.19 L1838.46 1181.68 Q1840.4 1182.81 1842.72 1183.39 Q1845.03 1183.97 1847.55 1183.97 Q1851.95 1183.97 1854.24 1182.24 Q1856.56 1180.5 1856.56 1177.19 Q1856.56 1174.13 1854.41 1172.42 Q1852.28 1170.68 1848.46 1170.68 L1844.43 1170.68 L1844.43 1166.84 L1848.64 1166.84 Q1852.09 1166.84 1853.92 1165.48 Q1855.75 1164.09 1855.75 1161.49 Q1855.75 1158.83 1853.85 1157.42 Q1851.97 1155.99 1848.46 1155.99 Q1846.53 1155.99 1844.34 1156.4 Q1842.14 1156.82 1839.5 1157.7 L1839.5 1153.53 Q1842.16 1152.79 1844.47 1152.42 Q1846.81 1152.05 1848.87 1152.05 Q1854.2 1152.05 1857.3 1154.48 Q1860.4 1156.89 1860.4 1161.01 Q1860.4 1163.88 1858.76 1165.87 Q1857.11 1167.84 1854.08 1168.6 Z" fill="#000000" fill-rule="nonzero" fill-opacity="1" /><path clip-path="url(#clip360)" d="M1870.12 1152.68 L1888.48 1152.68 L1888.48 1156.61 L1874.41 1156.61 L1874.41 1165.08 Q1875.42 1164.74 1876.44 1164.57 Q1877.46 1164.39 1878.48 1164.39 Q1884.27 1164.39 1887.65 1167.56 Q1891.03 1170.73 1891.03 1176.15 Q1891.03 1181.73 1887.55 1184.83 Q1884.08 1187.91 1877.76 1187.91 Q1875.59 1187.91 1873.32 1187.54 Q1871.07 1187.17 1868.66 1186.43 L1868.66 1181.73 Q1870.75 1182.86 1872.97 1183.42 Q1875.19 1183.97 1877.67 1183.97 Q1881.67 1183.97 1884.01 1181.86 Q1886.35 1179.76 1886.35 1176.15 Q1886.35 1172.54 1884.01 1170.43 Q1881.67 1168.32 1877.67 1168.32 Q1875.79 1168.32 1873.92 1168.74 Q1872.07 1169.16 1870.12 1170.04 L1870.12 1152.68 Z" fill="#000000" fill-rule="nonzero" fill-opacity="1" /><path clip-path="url(#clip360)" d="M1900.28 1152.68 L1918.64 1152.68 L1918.64 1156.61 L1904.57 1156.61 L1904.57 1165.08 Q1905.59 1164.74 1906.6 1164.57 Q1907.62 1164.39 1908.64 1164.39 Q1914.43 1164.39 1917.81 1167.56 Q1921.19 1170.73 1921.19 1176.15 Q1921.19 1181.73 1917.72 1184.83 Q1914.24 1187.91 1907.92 1187.91 Q1905.75 1187.91 1903.48 1187.54 Q1901.23 1187.17 1898.83 1186.43 L1898.83 1181.73 Q1900.91 1182.86 1903.13 1183.42 Q1905.35 1183.97 1907.83 1183.97 Q1911.84 1183.97 1914.17 1181.86 Q1916.51 1179.76 1916.51 1176.15 Q1916.51 1172.54 1914.17 1170.43 Q1911.84 1168.32 1907.83 1168.32 Q1905.96 1168.32 1904.08 1168.74 Q1902.23 1169.16 1900.28 1170.04 L1900.28 1152.68 Z" fill="#000000" fill-rule="nonzero" fill-opacity="1" /><path clip-path="url(#clip360)" d="M1943.25 1156.75 L1931.44 1175.2 L1943.25 1175.2 L1943.25 1156.75 M1942.02 1152.68 L1947.9 1152.68 L1947.9 1175.2 L1952.83 1175.2 L1952.83 1179.09 L1947.9 1179.09 L1947.9 1187.24 L1943.25 1187.24 L1943.25 1179.09 L1927.65 1179.09 L1927.65 1174.57 L1942.02 1152.68 Z" fill="#000000" fill-rule="nonzero" fill-opacity="1" /><path clip-path="url(#clip360)" d="M1973.41 1156.75 L1961.6 1175.2 L1973.41 1175.2 L1973.41 1156.75 M1972.18 1152.68 L1978.06 1152.68 L1978.06 1175.2 L1982.99 1175.2 L1982.99 1179.09 L1978.06 1179.09 L1978.06 1187.24 L1973.41 1187.24 L1973.41 1179.09 L1957.81 1179.09 L1957.81 1174.57 L1972.18 1152.68 Z" fill="#000000" fill-rule="nonzero" fill-opacity="1" /><path clip-path="url(#clip360)" d="M2004.89 1168.6 Q2008.25 1169.32 2010.12 1171.59 Q2012.02 1173.86 2012.02 1177.19 Q2012.02 1182.3 2008.5 1185.11 Q2004.98 1187.91 1998.5 1187.91 Q1996.33 1187.91 1994.01 1187.47 Q1991.72 1187.05 1989.27 1186.19 L1989.27 1181.68 Q1991.21 1182.81 1993.52 1183.39 Q1995.84 1183.97 1998.36 1183.97 Q2002.76 1183.97 2005.05 1182.24 Q2007.37 1180.5 2007.37 1177.19 Q2007.37 1174.13 2005.21 1172.42 Q2003.08 1170.68 1999.27 1170.68 L1995.24 1170.68 L1995.24 1166.84 L1999.45 1166.84 Q2002.9 1166.84 2004.73 1165.48 Q2006.56 1164.09 2006.56 1161.49 Q2006.56 1158.83 2004.66 1157.42 Q2002.78 1155.99 1999.27 1155.99 Q1997.34 1155.99 1995.15 1156.4 Q1992.95 1156.82 1990.31 1157.7 L1990.31 1153.53 Q1992.97 1152.79 1995.28 1152.42 Q1997.62 1152.05 1999.68 1152.05 Q2005.01 1152.05 2008.11 1154.48 Q2011.21 1156.89 2011.21 1161.01 Q2011.21 1163.88 2009.57 1165.87 Q2007.92 1167.84 2004.89 1168.6 Z" fill="#000000" fill-rule="nonzero" fill-opacity="1" /><path clip-path="url(#clip360)" d="M2024.91 1183.3 L2041.23 1183.3 L2041.23 1187.24 L2019.29 1187.24 L2019.29 1183.3 Q2021.95 1180.55 2026.53 1175.92 Q2031.14 1171.26 2032.32 1169.92 Q2034.57 1167.4 2035.45 1165.66 Q2036.35 1163.9 2036.35 1162.21 Q2036.35 1159.46 2034.4 1157.72 Q2032.48 1155.99 2029.38 1155.99 Q2027.18 1155.99 2024.73 1156.75 Q2022.3 1157.51 2019.52 1159.06 L2019.52 1154.34 Q2022.34 1153.21 2024.8 1152.63 Q2027.25 1152.05 2029.29 1152.05 Q2034.66 1152.05 2037.85 1154.74 Q2041.05 1157.42 2041.05 1161.91 Q2041.05 1164.04 2040.24 1165.96 Q2039.45 1167.86 2037.34 1170.45 Q2036.77 1171.12 2033.66 1174.34 Q2030.56 1177.54 2024.91 1183.3 Z" fill="#000000" fill-rule="nonzero" fill-opacity="1" /><path clip-path="url(#clip360)" d="M2049.77 1151.26 L2053.48 1151.26 Q2056.95 1156.73 2058.66 1161.96 Q2060.4 1167.19 2060.4 1172.35 Q2060.4 1177.54 2058.66 1182.79 Q2056.95 1188.05 2053.48 1193.49 L2049.77 1193.49 Q2052.85 1188.18 2054.36 1182.95 Q2055.89 1177.7 2055.89 1172.35 Q2055.89 1167 2054.36 1161.8 Q2052.85 1156.59 2049.77 1151.26 Z" fill="#000000" fill-rule="nonzero" fill-opacity="1" /><polyline clip-path="url(#clip360)" style="stroke:#e26f46; stroke-linecap:round; stroke-linejoin:round; stroke-width:4; stroke-opacity:1; fill:none" points="1439.64,1221.8 1586.54,1221.8 "/>
<path clip-path="url(#clip360)" d="M1631.37 1218.13 Q1632.97 1215.26 1635.19 1213.89 Q1637.42 1212.52 1640.42 1212.52 Q1644.48 1212.52 1646.67 1215.37 Q1648.87 1218.2 1648.87 1223.43 L1648.87 1239.08 L1644.59 1239.08 L1644.59 1223.57 Q1644.59 1219.84 1643.27 1218.03 Q1641.95 1216.23 1639.24 1216.23 Q1635.93 1216.23 1634.01 1218.43 Q1632.09 1220.63 1632.09 1224.42 L1632.09 1239.08 L1627.81 1239.08 L1627.81 1223.57 Q1627.81 1219.82 1626.49 1218.03 Q1625.17 1216.23 1622.42 1216.23 Q1619.15 1216.23 1617.23 1218.45 Q1615.31 1220.65 1615.31 1224.42 L1615.31 1239.08 L1611.03 1239.08 L1611.03 1213.15 L1615.31 1213.15 L1615.31 1217.18 Q1616.77 1214.79 1618.8 1213.66 Q1620.84 1212.52 1623.64 1212.52 Q1626.47 1212.52 1628.43 1213.96 Q1630.42 1215.39 1631.37 1218.13 Z" fill="#000000" fill-rule="nonzero" fill-opacity="1" /><path clip-path="url(#clip360)" d="M1669.15 1226.04 Q1663.99 1226.04 1662 1227.22 Q1660.01 1228.4 1660.01 1231.25 Q1660.01 1233.52 1661.49 1234.86 Q1662.99 1236.18 1665.56 1236.18 Q1669.11 1236.18 1671.23 1233.68 Q1673.39 1231.16 1673.39 1226.99 L1673.39 1226.04 L1669.15 1226.04 M1677.65 1224.28 L1677.65 1239.08 L1673.39 1239.08 L1673.39 1235.14 Q1671.93 1237.5 1669.75 1238.64 Q1667.58 1239.75 1664.43 1239.75 Q1660.45 1239.75 1658.09 1237.52 Q1655.75 1235.28 1655.75 1231.53 Q1655.75 1227.15 1658.67 1224.93 Q1661.61 1222.71 1667.42 1222.71 L1673.39 1222.71 L1673.39 1222.29 Q1673.39 1219.35 1671.44 1217.76 Q1669.52 1216.14 1666.03 1216.14 Q1663.8 1216.14 1661.7 1216.67 Q1659.59 1217.2 1657.65 1218.27 L1657.65 1214.33 Q1659.98 1213.43 1662.18 1212.99 Q1664.38 1212.52 1666.47 1212.52 Q1672.09 1212.52 1674.87 1215.44 Q1677.65 1218.36 1677.65 1224.28 Z" fill="#000000" fill-rule="nonzero" fill-opacity="1" /><path clip-path="url(#clip360)" d="M1702.95 1213.91 L1702.95 1217.94 Q1701.14 1217.02 1699.2 1216.55 Q1697.25 1216.09 1695.17 1216.09 Q1692 1216.09 1690.4 1217.06 Q1688.83 1218.03 1688.83 1219.98 Q1688.83 1221.46 1689.96 1222.32 Q1691.1 1223.15 1694.52 1223.91 L1695.98 1224.24 Q1700.52 1225.21 1702.42 1226.99 Q1704.34 1228.75 1704.34 1231.92 Q1704.34 1235.53 1701.47 1237.64 Q1698.62 1239.75 1693.62 1239.75 Q1691.54 1239.75 1689.27 1239.33 Q1687.02 1238.94 1684.52 1238.13 L1684.52 1233.73 Q1686.88 1234.95 1689.17 1235.58 Q1691.47 1236.18 1693.71 1236.18 Q1696.72 1236.18 1698.34 1235.16 Q1699.96 1234.12 1699.96 1232.25 Q1699.96 1230.51 1698.78 1229.58 Q1697.62 1228.66 1693.67 1227.8 L1692.18 1227.46 Q1688.23 1226.62 1686.47 1224.91 Q1684.71 1223.17 1684.71 1220.16 Q1684.71 1216.51 1687.3 1214.52 Q1689.89 1212.52 1694.66 1212.52 Q1697.02 1212.52 1699.11 1212.87 Q1701.19 1213.22 1702.95 1213.91 Z" fill="#000000" fill-rule="nonzero" fill-opacity="1" /><path clip-path="url(#clip360)" d="M1727.65 1213.91 L1727.65 1217.94 Q1725.84 1217.02 1723.9 1216.55 Q1721.95 1216.09 1719.87 1216.09 Q1716.7 1216.09 1715.1 1217.06 Q1713.53 1218.03 1713.53 1219.98 Q1713.53 1221.46 1714.66 1222.32 Q1715.79 1223.15 1719.22 1223.91 L1720.68 1224.24 Q1725.22 1225.21 1727.11 1226.99 Q1729.04 1228.75 1729.04 1231.92 Q1729.04 1235.53 1726.17 1237.64 Q1723.32 1239.75 1718.32 1239.75 Q1716.23 1239.75 1713.97 1239.33 Q1711.72 1238.94 1709.22 1238.13 L1709.22 1233.73 Q1711.58 1234.95 1713.87 1235.58 Q1716.17 1236.18 1718.41 1236.18 Q1721.42 1236.18 1723.04 1235.16 Q1724.66 1234.12 1724.66 1232.25 Q1724.66 1230.51 1723.48 1229.58 Q1722.32 1228.66 1718.36 1227.8 L1716.88 1227.46 Q1712.92 1226.62 1711.17 1224.91 Q1709.41 1223.17 1709.41 1220.16 Q1709.41 1216.51 1712 1214.52 Q1714.59 1212.52 1719.36 1212.52 Q1721.72 1212.52 1723.8 1212.87 Q1725.89 1213.22 1727.65 1213.91 Z" fill="#000000" fill-rule="nonzero" fill-opacity="1" /><path clip-path="url(#clip360)" d="M1736.42 1233.2 L1741.3 1233.2 L1741.3 1239.08 L1736.42 1239.08 L1736.42 1233.2 Z" fill="#000000" fill-rule="nonzero" fill-opacity="1" /><path clip-path="url(#clip360)" d="M1747.83 1213.15 L1752.35 1213.15 L1760.45 1234.91 L1768.55 1213.15 L1773.06 1213.15 L1763.34 1239.08 L1757.55 1239.08 L1747.83 1213.15 Z" fill="#000000" fill-rule="nonzero" fill-opacity="1" /><path clip-path="url(#clip360)" d="M1804.24 1203.1 Q1801.14 1208.43 1799.64 1213.64 Q1798.13 1218.84 1798.13 1224.19 Q1798.13 1229.54 1799.64 1234.79 Q1801.16 1240.02 1804.24 1245.33 L1800.54 1245.33 Q1797.07 1239.89 1795.33 1234.63 Q1793.62 1229.38 1793.62 1224.19 Q1793.62 1219.03 1795.33 1213.8 Q1797.04 1208.57 1800.54 1203.1 L1804.24 1203.1 Z" fill="#000000" fill-rule="nonzero" fill-opacity="1" /><path clip-path="url(#clip360)" d="M1827.28 1220.44 Q1830.63 1221.16 1832.51 1223.43 Q1834.41 1225.7 1834.41 1229.03 Q1834.41 1234.14 1830.89 1236.95 Q1827.37 1239.75 1820.89 1239.75 Q1818.71 1239.75 1816.4 1239.31 Q1814.1 1238.89 1811.65 1238.03 L1811.65 1233.52 Q1813.6 1234.65 1815.91 1235.23 Q1818.22 1235.81 1820.75 1235.81 Q1825.15 1235.81 1827.44 1234.08 Q1829.75 1232.34 1829.75 1229.03 Q1829.75 1225.97 1827.6 1224.26 Q1825.47 1222.52 1821.65 1222.52 L1817.62 1222.52 L1817.62 1218.68 L1821.84 1218.68 Q1825.28 1218.68 1827.11 1217.32 Q1828.94 1215.93 1828.94 1213.33 Q1828.94 1210.67 1827.04 1209.26 Q1825.17 1207.83 1821.65 1207.83 Q1819.73 1207.83 1817.53 1208.24 Q1815.33 1208.66 1812.69 1209.54 L1812.69 1205.37 Q1815.35 1204.63 1817.67 1204.26 Q1820.01 1203.89 1822.07 1203.89 Q1827.39 1203.89 1830.49 1206.32 Q1833.6 1208.73 1833.6 1212.85 Q1833.6 1215.72 1831.95 1217.71 Q1830.31 1219.68 1827.28 1220.44 Z" fill="#000000" fill-rule="nonzero" fill-opacity="1" /><path clip-path="url(#clip360)" d="M1857.44 1220.44 Q1860.79 1221.16 1862.67 1223.43 Q1864.57 1225.7 1864.57 1229.03 Q1864.57 1234.14 1861.05 1236.95 Q1857.53 1239.75 1851.05 1239.75 Q1848.87 1239.75 1846.56 1239.31 Q1844.27 1238.89 1841.81 1238.03 L1841.81 1233.52 Q1843.76 1234.65 1846.07 1235.23 Q1848.39 1235.81 1850.91 1235.81 Q1855.31 1235.81 1857.6 1234.08 Q1859.91 1232.34 1859.91 1229.03 Q1859.91 1225.97 1857.76 1224.26 Q1855.63 1222.52 1851.81 1222.52 L1847.78 1222.52 L1847.78 1218.68 L1852 1218.68 Q1855.45 1218.68 1857.28 1217.32 Q1859.1 1215.93 1859.1 1213.33 Q1859.1 1210.67 1857.21 1209.26 Q1855.33 1207.83 1851.81 1207.83 Q1849.89 1207.83 1847.69 1208.24 Q1845.49 1208.66 1842.85 1209.54 L1842.85 1205.37 Q1845.52 1204.63 1847.83 1204.26 Q1850.17 1203.89 1852.23 1203.89 Q1857.55 1203.89 1860.66 1206.32 Q1863.76 1208.73 1863.76 1212.85 Q1863.76 1215.72 1862.11 1217.71 Q1860.47 1219.68 1857.44 1220.44 Z" fill="#000000" fill-rule="nonzero" fill-opacity="1" /><path clip-path="url(#clip360)" d="M1873.48 1204.52 L1891.84 1204.52 L1891.84 1208.45 L1877.76 1208.45 L1877.76 1216.92 Q1878.78 1216.58 1879.8 1216.41 Q1880.82 1216.23 1881.84 1216.23 Q1887.62 1216.23 1891 1219.4 Q1894.38 1222.57 1894.38 1227.99 Q1894.38 1233.57 1890.91 1236.67 Q1887.44 1239.75 1881.12 1239.75 Q1878.94 1239.75 1876.67 1239.38 Q1874.43 1239.01 1872.02 1238.27 L1872.02 1233.57 Q1874.1 1234.7 1876.33 1235.26 Q1878.55 1235.81 1881.03 1235.81 Q1885.03 1235.81 1887.37 1233.7 Q1889.71 1231.6 1889.71 1227.99 Q1889.71 1224.38 1887.37 1222.27 Q1885.03 1220.16 1881.03 1220.16 Q1879.15 1220.16 1877.28 1220.58 Q1875.42 1221 1873.48 1221.88 L1873.48 1204.52 Z" fill="#000000" fill-rule="nonzero" fill-opacity="1" /><path clip-path="url(#clip360)" d="M1903.64 1204.52 L1922 1204.52 L1922 1208.45 L1907.92 1208.45 L1907.92 1216.92 Q1908.94 1216.58 1909.96 1216.41 Q1910.98 1216.23 1912 1216.23 Q1917.78 1216.23 1921.16 1219.4 Q1924.54 1222.57 1924.54 1227.99 Q1924.54 1233.57 1921.07 1236.67 Q1917.6 1239.75 1911.28 1239.75 Q1909.1 1239.75 1906.84 1239.38 Q1904.59 1239.01 1902.18 1238.27 L1902.18 1233.57 Q1904.27 1234.7 1906.49 1235.26 Q1908.71 1235.81 1911.19 1235.81 Q1915.19 1235.81 1917.53 1233.7 Q1919.87 1231.6 1919.87 1227.99 Q1919.87 1224.38 1917.53 1222.27 Q1915.19 1220.16 1911.19 1220.16 Q1909.31 1220.16 1907.44 1220.58 Q1905.59 1221 1903.64 1221.88 L1903.64 1204.52 Z" fill="#000000" fill-rule="nonzero" fill-opacity="1" /><path clip-path="url(#clip360)" d="M1946.6 1208.59 L1934.8 1227.04 L1946.6 1227.04 L1946.6 1208.59 M1945.38 1204.52 L1951.26 1204.52 L1951.26 1227.04 L1956.19 1227.04 L1956.19 1230.93 L1951.26 1230.93 L1951.26 1239.08 L1946.6 1239.08 L1946.6 1230.93 L1931 1230.93 L1931 1226.41 L1945.38 1204.52 Z" fill="#000000" fill-rule="nonzero" fill-opacity="1" /><path clip-path="url(#clip360)" d="M1976.77 1208.59 L1964.96 1227.04 L1976.77 1227.04 L1976.77 1208.59 M1975.54 1204.52 L1981.42 1204.52 L1981.42 1227.04 L1986.35 1227.04 L1986.35 1230.93 L1981.42 1230.93 L1981.42 1239.08 L1976.77 1239.08 L1976.77 1230.93 L1961.16 1230.93 L1961.16 1226.41 L1975.54 1204.52 Z" fill="#000000" fill-rule="nonzero" fill-opacity="1" /><path clip-path="url(#clip360)" d="M2008.25 1220.44 Q2011.6 1221.16 2013.48 1223.43 Q2015.38 1225.7 2015.38 1229.03 Q2015.38 1234.14 2011.86 1236.95 Q2008.34 1239.75 2001.86 1239.75 Q1999.68 1239.75 1997.37 1239.31 Q1995.08 1238.89 1992.62 1238.03 L1992.62 1233.52 Q1994.57 1234.65 1996.88 1235.23 Q1999.2 1235.81 2001.72 1235.81 Q2006.12 1235.81 2008.41 1234.08 Q2010.72 1232.34 2010.72 1229.03 Q2010.72 1225.97 2008.57 1224.26 Q2006.44 1222.52 2002.62 1222.52 L1998.59 1222.52 L1998.59 1218.68 L2002.81 1218.68 Q2006.26 1218.68 2008.08 1217.32 Q2009.91 1215.93 2009.91 1213.33 Q2009.91 1210.67 2008.02 1209.26 Q2006.14 1207.83 2002.62 1207.83 Q2000.7 1207.83 1998.5 1208.24 Q1996.3 1208.66 1993.66 1209.54 L1993.66 1205.37 Q1996.33 1204.63 1998.64 1204.26 Q2000.98 1203.89 2003.04 1203.89 Q2008.36 1203.89 2011.46 1206.32 Q2014.57 1208.73 2014.57 1212.85 Q2014.57 1215.72 2012.92 1217.71 Q2011.28 1219.68 2008.25 1220.44 Z" fill="#000000" fill-rule="nonzero" fill-opacity="1" /><path clip-path="url(#clip360)" d="M2038.41 1220.44 Q2041.77 1221.16 2043.64 1223.43 Q2045.54 1225.7 2045.54 1229.03 Q2045.54 1234.14 2042.02 1236.95 Q2038.5 1239.75 2032.02 1239.75 Q2029.84 1239.75 2027.53 1239.31 Q2025.24 1238.89 2022.78 1238.03 L2022.78 1233.52 Q2024.73 1234.65 2027.04 1235.23 Q2029.36 1235.81 2031.88 1235.81 Q2036.28 1235.81 2038.57 1234.08 Q2040.89 1232.34 2040.89 1229.03 Q2040.89 1225.97 2038.73 1224.26 Q2036.6 1222.52 2032.78 1222.52 L2028.76 1222.52 L2028.76 1218.68 L2032.97 1218.68 Q2036.42 1218.68 2038.25 1217.32 Q2040.08 1215.93 2040.08 1213.33 Q2040.08 1210.67 2038.18 1209.26 Q2036.3 1207.83 2032.78 1207.83 Q2030.86 1207.83 2028.66 1208.24 Q2026.46 1208.66 2023.83 1209.54 L2023.83 1205.37 Q2026.49 1204.63 2028.8 1204.26 Q2031.14 1203.89 2033.2 1203.89 Q2038.52 1203.89 2041.63 1206.32 Q2044.73 1208.73 2044.73 1212.85 Q2044.73 1215.72 2043.08 1217.71 Q2041.44 1219.68 2038.41 1220.44 Z" fill="#000000" fill-rule="nonzero" fill-opacity="1" /><path clip-path="url(#clip360)" d="M2053.13 1203.1 L2056.83 1203.1 Q2060.31 1208.57 2062.02 1213.8 Q2063.76 1219.03 2063.76 1224.19 Q2063.76 1229.38 2062.02 1234.63 Q2060.31 1239.89 2056.83 1245.33 L2053.13 1245.33 Q2056.21 1240.02 2057.71 1234.79 Q2059.24 1229.54 2059.24 1224.19 Q2059.24 1218.84 2057.71 1213.64 Q2056.21 1208.43 2053.13 1203.1 Z" fill="#000000" fill-rule="nonzero" fill-opacity="1" /><polyline clip-path="url(#clip360)" style="stroke:#3da44d; stroke-linecap:round; stroke-linejoin:round; stroke-width:4; stroke-opacity:1; fill:none" points="1439.64,1273.64 1586.54,1273.64 "/>
<path clip-path="url(#clip360)" d="M1631.37 1269.97 Q1632.97 1267.1 1635.19 1265.73 Q1637.42 1264.36 1640.42 1264.36 Q1644.48 1264.36 1646.67 1267.21 Q1648.87 1270.04 1648.87 1275.27 L1648.87 1290.92 L1644.59 1290.92 L1644.59 1275.41 Q1644.59 1271.68 1643.27 1269.87 Q1641.95 1268.07 1639.24 1268.07 Q1635.93 1268.07 1634.01 1270.27 Q1632.09 1272.47 1632.09 1276.26 L1632.09 1290.92 L1627.81 1290.92 L1627.81 1275.41 Q1627.81 1271.66 1626.49 1269.87 Q1625.17 1268.07 1622.42 1268.07 Q1619.15 1268.07 1617.23 1270.29 Q1615.31 1272.49 1615.31 1276.26 L1615.31 1290.92 L1611.03 1290.92 L1611.03 1264.99 L1615.31 1264.99 L1615.31 1269.02 Q1616.77 1266.63 1618.8 1265.5 Q1620.84 1264.36 1623.64 1264.36 Q1626.47 1264.36 1628.43 1265.8 Q1630.42 1267.23 1631.37 1269.97 Z" fill="#000000" fill-rule="nonzero" fill-opacity="1" /><path clip-path="url(#clip360)" d="M1669.15 1277.88 Q1663.99 1277.88 1662 1279.06 Q1660.01 1280.24 1660.01 1283.09 Q1660.01 1285.36 1661.49 1286.7 Q1662.99 1288.02 1665.56 1288.02 Q1669.11 1288.02 1671.23 1285.52 Q1673.39 1283 1673.39 1278.83 L1673.39 1277.88 L1669.15 1277.88 M1677.65 1276.12 L1677.65 1290.92 L1673.39 1290.92 L1673.39 1286.98 Q1671.93 1289.34 1669.75 1290.48 Q1667.58 1291.59 1664.43 1291.59 Q1660.45 1291.59 1658.09 1289.36 Q1655.75 1287.12 1655.75 1283.37 Q1655.75 1278.99 1658.67 1276.77 Q1661.61 1274.55 1667.42 1274.55 L1673.39 1274.55 L1673.39 1274.13 Q1673.39 1271.19 1671.44 1269.6 Q1669.52 1267.98 1666.03 1267.98 Q1663.8 1267.98 1661.7 1268.51 Q1659.59 1269.04 1657.65 1270.11 L1657.65 1266.17 Q1659.98 1265.27 1662.18 1264.83 Q1664.38 1264.36 1666.47 1264.36 Q1672.09 1264.36 1674.87 1267.28 Q1677.65 1270.2 1677.65 1276.12 Z" fill="#000000" fill-rule="nonzero" fill-opacity="1" /><path clip-path="url(#clip360)" d="M1702.95 1265.75 L1702.95 1269.78 Q1701.14 1268.86 1699.2 1268.39 Q1697.25 1267.93 1695.17 1267.93 Q1692 1267.93 1690.4 1268.9 Q1688.83 1269.87 1688.83 1271.82 Q1688.83 1273.3 1689.96 1274.16 Q1691.1 1274.99 1694.52 1275.75 L1695.98 1276.08 Q1700.52 1277.05 1702.42 1278.83 Q1704.34 1280.59 1704.34 1283.76 Q1704.34 1287.37 1701.47 1289.48 Q1698.62 1291.59 1693.62 1291.59 Q1691.54 1291.59 1689.27 1291.17 Q1687.02 1290.78 1684.52 1289.97 L1684.52 1285.57 Q1686.88 1286.79 1689.17 1287.42 Q1691.47 1288.02 1693.71 1288.02 Q1696.72 1288.02 1698.34 1287 Q1699.96 1285.96 1699.96 1284.09 Q1699.96 1282.35 1698.78 1281.42 Q1697.62 1280.5 1693.67 1279.64 L1692.18 1279.3 Q1688.23 1278.46 1686.47 1276.75 Q1684.71 1275.01 1684.71 1272 Q1684.71 1268.35 1687.3 1266.36 Q1689.89 1264.36 1694.66 1264.36 Q1697.02 1264.36 1699.11 1264.71 Q1701.19 1265.06 1702.95 1265.75 Z" fill="#000000" fill-rule="nonzero" fill-opacity="1" /><path clip-path="url(#clip360)" d="M1727.65 1265.75 L1727.65 1269.78 Q1725.84 1268.86 1723.9 1268.39 Q1721.95 1267.93 1719.87 1267.93 Q1716.7 1267.93 1715.1 1268.9 Q1713.53 1269.87 1713.53 1271.82 Q1713.53 1273.3 1714.66 1274.16 Q1715.79 1274.99 1719.22 1275.75 L1720.68 1276.08 Q1725.22 1277.05 1727.11 1278.83 Q1729.04 1280.59 1729.04 1283.76 Q1729.04 1287.37 1726.17 1289.48 Q1723.32 1291.59 1718.32 1291.59 Q1716.23 1291.59 1713.97 1291.17 Q1711.72 1290.78 1709.22 1289.97 L1709.22 1285.57 Q1711.58 1286.79 1713.87 1287.42 Q1716.17 1288.02 1718.41 1288.02 Q1721.42 1288.02 1723.04 1287 Q1724.66 1285.96 1724.66 1284.09 Q1724.66 1282.35 1723.48 1281.42 Q1722.32 1280.5 1718.36 1279.64 L1716.88 1279.3 Q1712.92 1278.46 1711.17 1276.75 Q1709.41 1275.01 1709.41 1272 Q1709.41 1268.35 1712 1266.36 Q1714.59 1264.36 1719.36 1264.36 Q1721.72 1264.36 1723.8 1264.71 Q1725.89 1265.06 1727.65 1265.75 Z" fill="#000000" fill-rule="nonzero" fill-opacity="1" /><path clip-path="url(#clip360)" d="M1736.42 1285.04 L1741.3 1285.04 L1741.3 1290.92 L1736.42 1290.92 L1736.42 1285.04 Z" fill="#000000" fill-rule="nonzero" fill-opacity="1" /><path clip-path="url(#clip360)" d="M1762.67 1277.88 Q1757.51 1277.88 1755.52 1279.06 Q1753.53 1280.24 1753.53 1283.09 Q1753.53 1285.36 1755.01 1286.7 Q1756.51 1288.02 1759.08 1288.02 Q1762.62 1288.02 1764.75 1285.52 Q1766.91 1283 1766.91 1278.83 L1766.91 1277.88 L1762.67 1277.88 M1771.16 1276.12 L1771.16 1290.92 L1766.91 1290.92 L1766.91 1286.98 Q1765.45 1289.34 1763.27 1290.48 Q1761.1 1291.59 1757.95 1291.59 Q1753.97 1291.59 1751.6 1289.36 Q1749.27 1287.12 1749.27 1283.37 Q1749.27 1278.99 1752.18 1276.77 Q1755.12 1274.55 1760.93 1274.55 L1766.91 1274.55 L1766.91 1274.13 Q1766.91 1271.19 1764.96 1269.6 Q1763.04 1267.98 1759.54 1267.98 Q1757.32 1267.98 1755.22 1268.51 Q1753.11 1269.04 1751.16 1270.11 L1751.16 1266.17 Q1753.5 1265.27 1755.7 1264.83 Q1757.9 1264.36 1759.98 1264.36 Q1765.61 1264.36 1768.39 1267.28 Q1771.16 1270.2 1771.16 1276.12 Z" fill="#000000" fill-rule="nonzero" fill-opacity="1" /><path clip-path="url(#clip360)" d="M1799.64 1298.79 L1799.64 1302.1 L1775.01 1302.1 L1775.01 1298.79 L1799.64 1298.79 Z" fill="#000000" fill-rule="nonzero" fill-opacity="1" /><path clip-path="url(#clip360)" d="M1818.66 1268.97 Q1817.95 1268.55 1817.09 1268.37 Q1816.26 1268.16 1815.24 1268.16 Q1811.63 1268.16 1809.68 1270.52 Q1807.76 1272.86 1807.76 1277.26 L1807.76 1290.92 L1803.48 1290.92 L1803.48 1264.99 L1807.76 1264.99 L1807.76 1269.02 Q1809.1 1266.66 1811.26 1265.52 Q1813.41 1264.36 1816.49 1264.36 Q1816.93 1264.36 1817.46 1264.43 Q1817.99 1264.48 1818.64 1264.6 L1818.66 1268.97 Z" fill="#000000" fill-rule="nonzero" fill-opacity="1" /><path clip-path="url(#clip360)" d="M1844.27 1276.89 L1844.27 1278.97 L1824.68 1278.97 Q1824.96 1283.37 1827.32 1285.68 Q1829.71 1287.98 1833.94 1287.98 Q1836.4 1287.98 1838.69 1287.37 Q1841 1286.77 1843.27 1285.57 L1843.27 1289.6 Q1840.98 1290.57 1838.57 1291.08 Q1836.16 1291.59 1833.69 1291.59 Q1827.48 1291.59 1823.85 1287.98 Q1820.24 1284.36 1820.24 1278.21 Q1820.24 1271.84 1823.66 1268.11 Q1827.11 1264.36 1832.95 1264.36 Q1838.18 1264.36 1841.21 1267.74 Q1844.27 1271.1 1844.27 1276.89 M1840.01 1275.64 Q1839.96 1272.14 1838.04 1270.06 Q1836.14 1267.98 1832.99 1267.98 Q1829.43 1267.98 1827.28 1269.99 Q1825.15 1272 1824.82 1275.66 L1840.01 1275.64 Z" fill="#000000" fill-rule="nonzero" fill-opacity="1" /><path clip-path="url(#clip360)" d="M1851.26 1254.9 L1855.52 1254.9 L1855.52 1290.92 L1851.26 1290.92 L1851.26 1254.9 Z" fill="#000000" fill-rule="nonzero" fill-opacity="1" /><path clip-path="url(#clip360)" d="M1877.55 1254.9 L1877.55 1258.44 L1873.48 1258.44 Q1871.19 1258.44 1870.28 1259.36 Q1869.41 1260.29 1869.41 1262.7 L1869.41 1264.99 L1876.42 1264.99 L1876.42 1268.3 L1869.41 1268.3 L1869.41 1290.92 L1865.12 1290.92 L1865.12 1268.3 L1861.05 1268.3 L1861.05 1264.99 L1865.12 1264.99 L1865.12 1263.18 Q1865.12 1258.86 1867.14 1256.89 Q1869.15 1254.9 1873.53 1254.9 L1877.55 1254.9 Z" fill="#000000" fill-rule="nonzero" fill-opacity="1" /><path clip-path="url(#clip360)" d="M1896.14 1268.97 Q1895.42 1268.55 1894.57 1268.37 Q1893.73 1268.16 1892.72 1268.16 Q1889.1 1268.16 1887.16 1270.52 Q1885.24 1272.86 1885.24 1277.26 L1885.24 1290.92 L1880.96 1290.92 L1880.96 1264.99 L1885.24 1264.99 L1885.24 1269.02 Q1886.58 1266.66 1888.73 1265.52 Q1890.89 1264.36 1893.97 1264.36 Q1894.4 1264.36 1894.94 1264.43 Q1895.47 1264.48 1896.12 1264.6 L1896.14 1268.97 Z" fill="#000000" fill-rule="nonzero" fill-opacity="1" /><path clip-path="url(#clip360)" d="M1900.61 1264.99 L1904.87 1264.99 L1904.87 1290.92 L1900.61 1290.92 L1900.61 1264.99 M1900.61 1254.9 L1904.87 1254.9 L1904.87 1260.29 L1900.61 1260.29 L1900.61 1254.9 Z" fill="#000000" fill-rule="nonzero" fill-opacity="1" /><path clip-path="url(#clip360)" d="M1932.44 1265.98 L1932.44 1269.97 Q1930.63 1268.97 1928.8 1268.48 Q1927 1267.98 1925.15 1267.98 Q1921 1267.98 1918.71 1270.61 Q1916.42 1273.23 1916.42 1277.98 Q1916.42 1282.72 1918.71 1285.36 Q1921 1287.98 1925.15 1287.98 Q1927 1287.98 1928.8 1287.49 Q1930.63 1286.98 1932.44 1285.98 L1932.44 1289.92 Q1930.65 1290.75 1928.73 1291.17 Q1926.84 1291.59 1924.68 1291.59 Q1918.83 1291.59 1915.38 1287.91 Q1911.93 1284.23 1911.93 1277.98 Q1911.93 1271.63 1915.4 1268 Q1918.9 1264.36 1924.96 1264.36 Q1926.93 1264.36 1928.8 1264.78 Q1930.68 1265.17 1932.44 1265.98 Z" fill="#000000" fill-rule="nonzero" fill-opacity="1" /><path clip-path="url(#clip360)" d="M1965.15 1254.94 Q1962.04 1260.27 1960.54 1265.48 Q1959.03 1270.68 1959.03 1276.03 Q1959.03 1281.38 1960.54 1286.63 Q1962.07 1291.86 1965.15 1297.17 L1961.44 1297.17 Q1957.97 1291.73 1956.23 1286.47 Q1954.52 1281.22 1954.52 1276.03 Q1954.52 1270.87 1956.23 1265.64 Q1957.95 1260.41 1961.44 1254.94 L1965.15 1254.94 Z" fill="#000000" fill-rule="nonzero" fill-opacity="1" /><path clip-path="url(#clip360)" d="M1974.06 1256.36 L1992.41 1256.36 L1992.41 1260.29 L1978.34 1260.29 L1978.34 1268.76 Q1979.36 1268.42 1980.38 1268.25 Q1981.4 1268.07 1982.41 1268.07 Q1988.2 1268.07 1991.58 1271.24 Q1994.96 1274.41 1994.96 1279.83 Q1994.96 1285.41 1991.49 1288.51 Q1988.02 1291.59 1981.7 1291.59 Q1979.52 1291.59 1977.25 1291.22 Q1975.01 1290.85 1972.6 1290.11 L1972.6 1285.41 Q1974.68 1286.54 1976.9 1287.1 Q1979.13 1287.65 1981.6 1287.65 Q1985.61 1287.65 1987.95 1285.54 Q1990.28 1283.44 1990.28 1279.83 Q1990.28 1276.22 1987.95 1274.11 Q1985.61 1272 1981.6 1272 Q1979.73 1272 1977.85 1272.42 Q1976 1272.84 1974.06 1273.72 L1974.06 1256.36 Z" fill="#000000" fill-rule="nonzero" fill-opacity="1" /><path clip-path="url(#clip360)" d="M2014.17 1274.5 Q2010.84 1274.5 2008.92 1276.29 Q2007.02 1278.07 2007.02 1281.19 Q2007.02 1284.32 2008.92 1286.1 Q2010.84 1287.88 2014.17 1287.88 Q2017.51 1287.88 2019.43 1286.1 Q2021.35 1284.29 2021.35 1281.19 Q2021.35 1278.07 2019.43 1276.29 Q2017.53 1274.5 2014.17 1274.5 M2009.5 1272.51 Q2006.49 1271.77 2004.8 1269.71 Q2003.13 1267.65 2003.13 1264.69 Q2003.13 1260.55 2006.07 1258.14 Q2009.03 1255.73 2014.17 1255.73 Q2019.33 1255.73 2022.27 1258.14 Q2025.21 1260.55 2025.21 1264.69 Q2025.21 1267.65 2023.52 1269.71 Q2021.86 1271.77 2018.87 1272.51 Q2022.25 1273.3 2024.13 1275.59 Q2026.02 1277.88 2026.02 1281.19 Q2026.02 1286.22 2022.95 1288.9 Q2019.89 1291.59 2014.17 1291.59 Q2008.46 1291.59 2005.38 1288.9 Q2002.32 1286.22 2002.32 1281.19 Q2002.32 1277.88 2004.22 1275.59 Q2006.12 1273.3 2009.5 1272.51 M2007.78 1265.13 Q2007.78 1267.81 2009.45 1269.32 Q2011.14 1270.82 2014.17 1270.82 Q2017.18 1270.82 2018.87 1269.32 Q2020.58 1267.81 2020.58 1265.13 Q2020.58 1262.44 2018.87 1260.94 Q2017.18 1259.43 2014.17 1259.43 Q2011.14 1259.43 2009.45 1260.94 Q2007.78 1262.44 2007.78 1265.13 Z" fill="#000000" fill-rule="nonzero" fill-opacity="1" /><path clip-path="url(#clip360)" d="M2033.15 1256.36 L2055.38 1256.36 L2055.38 1258.35 L2042.83 1290.92 L2037.95 1290.92 L2049.75 1260.29 L2033.15 1260.29 L2033.15 1256.36 Z" fill="#000000" fill-rule="nonzero" fill-opacity="1" /><path clip-path="url(#clip360)" d="M2068.52 1286.98 L2084.84 1286.98 L2084.84 1290.92 L2062.9 1290.92 L2062.9 1286.98 Q2065.56 1284.23 2070.14 1279.6 Q2074.75 1274.94 2075.93 1273.6 Q2078.18 1271.08 2079.06 1269.34 Q2079.96 1267.58 2079.96 1265.89 Q2079.96 1263.14 2078.02 1261.4 Q2076.09 1259.67 2072.99 1259.67 Q2070.79 1259.67 2068.34 1260.43 Q2065.91 1261.19 2063.13 1262.74 L2063.13 1258.02 Q2065.95 1256.89 2068.41 1256.31 Q2070.86 1255.73 2072.9 1255.73 Q2078.27 1255.73 2081.46 1258.42 Q2084.66 1261.1 2084.66 1265.59 Q2084.66 1267.72 2083.85 1269.64 Q2083.06 1271.54 2080.95 1274.13 Q2080.38 1274.8 2077.27 1278.02 Q2074.17 1281.22 2068.52 1286.98 Z" fill="#000000" fill-rule="nonzero" fill-opacity="1" /><path clip-path="url(#clip360)" d="M2104.66 1259.43 Q2101.05 1259.43 2099.22 1263 Q2097.41 1266.54 2097.41 1273.67 Q2097.41 1280.78 2099.22 1284.34 Q2101.05 1287.88 2104.66 1287.88 Q2108.29 1287.88 2110.1 1284.34 Q2111.93 1280.78 2111.93 1273.67 Q2111.93 1266.54 2110.1 1263 Q2108.29 1259.43 2104.66 1259.43 M2104.66 1255.73 Q2110.47 1255.73 2113.52 1260.34 Q2116.6 1264.92 2116.6 1273.67 Q2116.6 1282.4 2113.52 1287 Q2110.47 1291.59 2104.66 1291.59 Q2098.85 1291.59 2095.77 1287 Q2092.71 1282.4 2092.71 1273.67 Q2092.71 1264.92 2095.77 1260.34 Q2098.85 1255.73 2104.66 1255.73 Z" fill="#000000" fill-rule="nonzero" fill-opacity="1" /><path clip-path="url(#clip360)" d="M2128.85 1286.98 L2145.17 1286.98 L2145.17 1290.92 L2123.22 1290.92 L2123.22 1286.98 Q2125.89 1284.23 2130.47 1279.6 Q2135.07 1274.94 2136.26 1273.6 Q2138.5 1271.08 2139.38 1269.34 Q2140.28 1267.58 2140.28 1265.89 Q2140.28 1263.14 2138.34 1261.4 Q2136.42 1259.67 2133.32 1259.67 Q2131.12 1259.67 2128.66 1260.43 Q2126.23 1261.19 2123.45 1262.74 L2123.45 1258.02 Q2126.28 1256.89 2128.73 1256.31 Q2131.19 1255.73 2133.22 1255.73 Q2138.59 1255.73 2141.79 1258.42 Q2144.98 1261.1 2144.98 1265.59 Q2144.98 1267.72 2144.17 1269.64 Q2143.39 1271.54 2141.28 1274.13 Q2140.7 1274.8 2137.6 1278.02 Q2134.5 1281.22 2128.85 1286.98 Z" fill="#000000" fill-rule="nonzero" fill-opacity="1" /><path clip-path="url(#clip360)" d="M2155.03 1256.36 L2173.38 1256.36 L2173.38 1260.29 L2159.31 1260.29 L2159.31 1268.76 Q2160.33 1268.42 2161.35 1268.25 Q2162.37 1268.07 2163.38 1268.07 Q2169.17 1268.07 2172.55 1271.24 Q2175.93 1274.41 2175.93 1279.83 Q2175.93 1285.41 2172.46 1288.51 Q2168.99 1291.59 2162.67 1291.59 Q2160.49 1291.59 2158.22 1291.22 Q2155.98 1290.85 2153.57 1290.11 L2153.57 1285.41 Q2155.65 1286.54 2157.88 1287.1 Q2160.1 1287.65 2162.57 1287.65 Q2166.58 1287.65 2168.92 1285.54 Q2171.26 1283.44 2171.26 1279.83 Q2171.26 1276.22 2168.92 1274.11 Q2166.58 1272 2162.57 1272 Q2160.7 1272 2158.82 1272.42 Q2156.97 1272.84 2155.03 1273.72 L2155.03 1256.36 Z" fill="#000000" fill-rule="nonzero" fill-opacity="1" /><path clip-path="url(#clip360)" d="M2195.72 1271.77 Q2192.57 1271.77 2190.72 1273.92 Q2188.89 1276.08 2188.89 1279.83 Q2188.89 1283.55 2190.72 1285.73 Q2192.57 1287.88 2195.72 1287.88 Q2198.87 1287.88 2200.7 1285.73 Q2202.55 1283.55 2202.55 1279.83 Q2202.55 1276.08 2200.7 1273.92 Q2198.87 1271.77 2195.72 1271.77 M2205.01 1257.12 L2205.01 1261.38 Q2203.25 1260.55 2201.44 1260.11 Q2199.66 1259.67 2197.9 1259.67 Q2193.27 1259.67 2190.82 1262.79 Q2188.38 1265.92 2188.04 1272.23 Q2189.4 1270.22 2191.46 1269.16 Q2193.52 1268.07 2196 1268.07 Q2201.21 1268.07 2204.22 1271.24 Q2207.25 1274.39 2207.25 1279.83 Q2207.25 1285.15 2204.1 1288.37 Q2200.95 1291.59 2195.72 1291.59 Q2189.73 1291.59 2186.56 1287 Q2183.38 1282.4 2183.38 1273.67 Q2183.38 1265.48 2187.27 1260.61 Q2191.16 1255.73 2197.71 1255.73 Q2199.47 1255.73 2201.26 1256.08 Q2203.06 1256.42 2205.01 1257.12 Z" fill="#000000" fill-rule="nonzero" fill-opacity="1" /><path clip-path="url(#clip360)" d="M2216.12 1286.98 L2223.76 1286.98 L2223.76 1260.61 L2215.44 1262.28 L2215.44 1258.02 L2223.71 1256.36 L2228.38 1256.36 L2228.38 1286.98 L2236.02 1286.98 L2236.02 1290.92 L2216.12 1290.92 L2216.12 1286.98 Z" fill="#000000" fill-rule="nonzero" fill-opacity="1" /><path clip-path="url(#clip360)" d="M2244.19 1254.94 L2247.9 1254.94 Q2251.37 1260.41 2253.08 1265.64 Q2254.82 1270.87 2254.82 1276.03 Q2254.82 1281.22 2253.08 1286.47 Q2251.37 1291.73 2247.9 1297.17 L2244.19 1297.17 Q2247.27 1291.86 2248.78 1286.63 Q2250.31 1281.38 2250.31 1276.03 Q2250.31 1270.68 2248.78 1265.48 Q2247.27 1260.27 2244.19 1254.94 Z" fill="#000000" fill-rule="nonzero" fill-opacity="1" /><polyline clip-path="url(#clip360)" style="stroke:#0000ff; stroke-linecap:round; stroke-linejoin:round; stroke-width:4; stroke-opacity:1; fill:none" stroke-dasharray="16, 10" points="1439.64,1325.48 1586.54,1325.48 "/>
<path clip-path="url(#clip360)" d="M1633.27 1309.33 L1633.27 1313.89 Q1630.61 1312.62 1628.25 1311.99 Q1625.89 1311.37 1623.69 1311.37 Q1619.87 1311.37 1617.79 1312.85 Q1615.73 1314.33 1615.73 1317.06 Q1615.73 1319.35 1617.09 1320.53 Q1618.48 1321.69 1622.32 1322.41 L1625.15 1322.99 Q1630.38 1323.98 1632.86 1326.51 Q1635.36 1329.01 1635.36 1333.22 Q1635.36 1338.24 1631.98 1340.83 Q1628.62 1343.43 1622.11 1343.43 Q1619.66 1343.43 1616.88 1342.87 Q1614.13 1342.32 1611.17 1341.23 L1611.17 1336.41 Q1614.01 1338.01 1616.74 1338.82 Q1619.48 1339.63 1622.11 1339.63 Q1626.12 1339.63 1628.3 1338.06 Q1630.47 1336.48 1630.47 1333.57 Q1630.47 1331.02 1628.9 1329.58 Q1627.35 1328.15 1623.78 1327.43 L1620.93 1326.88 Q1615.7 1325.83 1613.36 1323.61 Q1611.03 1321.39 1611.03 1317.43 Q1611.03 1312.85 1614.24 1310.21 Q1617.49 1307.57 1623.16 1307.57 Q1625.59 1307.57 1628.11 1308.01 Q1630.63 1308.45 1633.27 1309.33 Z" fill="#000000" fill-rule="nonzero" fill-opacity="1" /><path clip-path="url(#clip360)" d="M1646.67 1309.47 L1646.67 1316.83 L1655.45 1316.83 L1655.45 1320.14 L1646.67 1320.14 L1646.67 1334.21 Q1646.67 1337.38 1647.53 1338.29 Q1648.41 1339.19 1651.07 1339.19 L1655.45 1339.19 L1655.45 1342.76 L1651.07 1342.76 Q1646.14 1342.76 1644.27 1340.93 Q1642.39 1339.07 1642.39 1334.21 L1642.39 1320.14 L1639.27 1320.14 L1639.27 1316.83 L1642.39 1316.83 L1642.39 1309.47 L1646.67 1309.47 Z" fill="#000000" fill-rule="nonzero" fill-opacity="1" /><path clip-path="url(#clip360)" d="M1672.83 1329.72 Q1667.67 1329.72 1665.68 1330.9 Q1663.69 1332.08 1663.69 1334.93 Q1663.69 1337.2 1665.17 1338.54 Q1666.67 1339.86 1669.24 1339.86 Q1672.79 1339.86 1674.92 1337.36 Q1677.07 1334.84 1677.07 1330.67 L1677.07 1329.72 L1672.83 1329.72 M1681.33 1327.96 L1681.33 1342.76 L1677.07 1342.76 L1677.07 1338.82 Q1675.61 1341.18 1673.43 1342.32 Q1671.26 1343.43 1668.11 1343.43 Q1664.13 1343.43 1661.77 1341.2 Q1659.43 1338.96 1659.43 1335.21 Q1659.43 1330.83 1662.35 1328.61 Q1665.29 1326.39 1671.1 1326.39 L1677.07 1326.39 L1677.07 1325.97 Q1677.07 1323.03 1675.12 1321.44 Q1673.2 1319.82 1669.71 1319.82 Q1667.48 1319.82 1665.38 1320.35 Q1663.27 1320.88 1661.33 1321.95 L1661.33 1318.01 Q1663.67 1317.11 1665.86 1316.67 Q1668.06 1316.2 1670.15 1316.2 Q1675.77 1316.2 1678.55 1319.12 Q1681.33 1322.04 1681.33 1327.96 Z" fill="#000000" fill-rule="nonzero" fill-opacity="1" /><path clip-path="url(#clip360)" d="M1694.31 1309.47 L1694.31 1316.83 L1703.09 1316.83 L1703.09 1320.14 L1694.31 1320.14 L1694.31 1334.21 Q1694.31 1337.38 1695.17 1338.29 Q1696.05 1339.19 1698.71 1339.19 L1703.09 1339.19 L1703.09 1342.76 L1698.71 1342.76 Q1693.78 1342.76 1691.91 1340.93 Q1690.03 1339.07 1690.03 1334.21 L1690.03 1320.14 L1686.91 1320.14 L1686.91 1316.83 L1690.03 1316.83 L1690.03 1309.47 L1694.31 1309.47 Z" fill="#000000" fill-rule="nonzero" fill-opacity="1" /><path clip-path="url(#clip360)" d="M1730.86 1328.73 L1730.86 1330.81 L1711.28 1330.81 Q1711.56 1335.21 1713.92 1337.52 Q1716.3 1339.82 1720.54 1339.82 Q1722.99 1339.82 1725.29 1339.21 Q1727.6 1338.61 1729.87 1337.41 L1729.87 1341.44 Q1727.58 1342.41 1725.17 1342.92 Q1722.76 1343.43 1720.29 1343.43 Q1714.08 1343.43 1710.45 1339.82 Q1706.84 1336.2 1706.84 1330.05 Q1706.84 1323.68 1710.26 1319.95 Q1713.71 1316.2 1719.54 1316.2 Q1724.78 1316.2 1727.81 1319.58 Q1730.86 1322.94 1730.86 1328.73 M1726.6 1327.48 Q1726.56 1323.98 1724.64 1321.9 Q1722.74 1319.82 1719.59 1319.82 Q1716.03 1319.82 1713.87 1321.83 Q1711.74 1323.84 1711.42 1327.5 L1726.6 1327.48 Z" fill="#000000" fill-rule="nonzero" fill-opacity="1" /><path clip-path="url(#clip360)" d="M1775.1 1328.73 L1775.1 1330.81 L1755.52 1330.81 Q1755.79 1335.21 1758.16 1337.52 Q1760.54 1339.82 1764.78 1339.82 Q1767.23 1339.82 1769.52 1339.21 Q1771.84 1338.61 1774.1 1337.41 L1774.1 1341.44 Q1771.81 1342.41 1769.41 1342.92 Q1767 1343.43 1764.52 1343.43 Q1758.32 1343.43 1754.68 1339.82 Q1751.07 1336.2 1751.07 1330.05 Q1751.07 1323.68 1754.5 1319.95 Q1757.95 1316.2 1763.78 1316.2 Q1769.01 1316.2 1772.04 1319.58 Q1775.1 1322.94 1775.1 1328.73 M1770.84 1327.48 Q1770.79 1323.98 1768.87 1321.9 Q1766.98 1319.82 1763.83 1319.82 Q1760.26 1319.82 1758.11 1321.83 Q1755.98 1323.84 1755.66 1327.5 L1770.84 1327.48 Z" fill="#000000" fill-rule="nonzero" fill-opacity="1" /><path clip-path="url(#clip360)" d="M1779.04 1316.83 L1783.55 1316.83 L1791.65 1338.59 L1799.75 1316.83 L1804.27 1316.83 L1794.54 1342.76 L1788.76 1342.76 L1779.04 1316.83 Z" fill="#000000" fill-rule="nonzero" fill-opacity="1" /><path clip-path="url(#clip360)" d="M1832.32 1328.73 L1832.32 1330.81 L1812.74 1330.81 Q1813.02 1335.21 1815.38 1337.52 Q1817.76 1339.82 1822 1339.82 Q1824.45 1339.82 1826.74 1339.21 Q1829.06 1338.61 1831.33 1337.41 L1831.33 1341.44 Q1829.03 1342.41 1826.63 1342.92 Q1824.22 1343.43 1821.74 1343.43 Q1815.54 1343.43 1811.91 1339.82 Q1808.29 1336.2 1808.29 1330.05 Q1808.29 1323.68 1811.72 1319.95 Q1815.17 1316.2 1821 1316.2 Q1826.23 1316.2 1829.27 1319.58 Q1832.32 1322.94 1832.32 1328.73 M1828.06 1327.48 Q1828.02 1323.98 1826.1 1321.9 Q1824.2 1319.82 1821.05 1319.82 Q1817.48 1319.82 1815.33 1321.83 Q1813.2 1323.84 1812.88 1327.5 L1828.06 1327.48 Z" fill="#000000" fill-rule="nonzero" fill-opacity="1" /><path clip-path="url(#clip360)" d="M1860.86 1327.11 L1860.86 1342.76 L1856.6 1342.76 L1856.6 1327.25 Q1856.6 1323.57 1855.17 1321.74 Q1853.73 1319.91 1850.86 1319.91 Q1847.41 1319.91 1845.42 1322.11 Q1843.43 1324.31 1843.43 1328.1 L1843.43 1342.76 L1839.15 1342.76 L1839.15 1316.83 L1843.43 1316.83 L1843.43 1320.86 Q1844.96 1318.52 1847.02 1317.36 Q1849.1 1316.2 1851.81 1316.2 Q1856.28 1316.2 1858.57 1318.98 Q1860.86 1321.74 1860.86 1327.11 Z" fill="#000000" fill-rule="nonzero" fill-opacity="1" /><path clip-path="url(#clip360)" d="M1873.57 1309.47 L1873.57 1316.83 L1882.34 1316.83 L1882.34 1320.14 L1873.57 1320.14 L1873.57 1334.21 Q1873.57 1337.38 1874.43 1338.29 Q1875.31 1339.19 1877.97 1339.19 L1882.34 1339.19 L1882.34 1342.76 L1877.97 1342.76 Q1873.04 1342.76 1871.16 1340.93 Q1869.29 1339.07 1869.29 1334.21 L1869.29 1320.14 L1866.16 1320.14 L1866.16 1316.83 L1869.29 1316.83 L1869.29 1309.47 L1873.57 1309.47 Z" fill="#000000" fill-rule="nonzero" fill-opacity="1" /><path clip-path="url(#clip360)" d="M1898.18 1306.78 Q1895.08 1312.11 1893.57 1317.32 Q1892.07 1322.52 1892.07 1327.87 Q1892.07 1333.22 1893.57 1338.47 Q1895.1 1343.7 1898.18 1349.01 L1894.47 1349.01 Q1891 1343.57 1889.27 1338.31 Q1887.55 1333.06 1887.55 1327.87 Q1887.55 1322.71 1889.27 1317.48 Q1890.98 1312.25 1894.47 1306.78 L1898.18 1306.78 Z" fill="#000000" fill-rule="nonzero" fill-opacity="1" /><path clip-path="url(#clip360)" d="M1922.97 1317.59 L1922.97 1321.62 Q1921.16 1320.7 1919.22 1320.23 Q1917.28 1319.77 1915.19 1319.77 Q1912.02 1319.77 1910.42 1320.74 Q1908.85 1321.71 1908.85 1323.66 Q1908.85 1325.14 1909.98 1326 Q1911.12 1326.83 1914.54 1327.59 L1916 1327.92 Q1920.54 1328.89 1922.44 1330.67 Q1924.36 1332.43 1924.36 1335.6 Q1924.36 1339.21 1921.49 1341.32 Q1918.64 1343.43 1913.64 1343.43 Q1911.56 1343.43 1909.29 1343.01 Q1907.04 1342.62 1904.54 1341.81 L1904.54 1337.41 Q1906.9 1338.63 1909.2 1339.26 Q1911.49 1339.86 1913.73 1339.86 Q1916.74 1339.86 1918.36 1338.84 Q1919.98 1337.8 1919.98 1335.93 Q1919.98 1334.19 1918.8 1333.26 Q1917.65 1332.34 1913.69 1331.48 L1912.21 1331.14 Q1908.25 1330.3 1906.49 1328.59 Q1904.73 1326.85 1904.73 1323.84 Q1904.73 1320.19 1907.32 1318.2 Q1909.91 1316.2 1914.68 1316.2 Q1917.04 1316.2 1919.13 1316.55 Q1921.21 1316.9 1922.97 1317.59 Z" fill="#000000" fill-rule="nonzero" fill-opacity="1" /><path clip-path="url(#clip360)" d="M1930.47 1306.78 L1934.17 1306.78 Q1937.65 1312.25 1939.36 1317.48 Q1941.09 1322.71 1941.09 1327.87 Q1941.09 1333.06 1939.36 1338.31 Q1937.65 1343.57 1934.17 1349.01 L1930.47 1349.01 Q1933.55 1343.7 1935.05 1338.47 Q1936.58 1333.22 1936.58 1327.87 Q1936.58 1322.52 1935.05 1317.32 Q1933.55 1312.11 1930.47 1306.78 Z" fill="#000000" fill-rule="nonzero" fill-opacity="1" /></svg>
