<?xml version="1.0" encoding="utf-8"?>
<svg xmlns="http://www.w3.org/2000/svg" xmlns:xlink="http://www.w3.org/1999/xlink" width="600" height="400" viewBox="0 0 2400 1600">
<defs>
  <clipPath id="clip070">
    <rect x="0" y="0" width="2400" height="1600"/>
  </clipPath>
</defs>
<path clip-path="url(#clip070)" d="
M0 1600 L2400 1600 L2400 0 L0 0  Z
  " fill="#ffffff" fill-rule="evenodd" fill-opacity="1"/>
<defs>
  <clipPath id="clip071">
    <rect x="480" y="0" width="1681" height="1600"/>
  </clipPath>
</defs>
<path clip-path="url(#clip070)" d="
M193.936 1423.18 L2352.76 1423.18 L2352.76 47.2441 L193.936 47.2441  Z
  " fill="#ffffff" fill-rule="evenodd" fill-opacity="1"/>
<defs>
  <clipPath id="clip072">
    <rect x="193" y="47" width="2160" height="1377"/>
  </clipPath>
</defs>
<polyline clip-path="url(#clip072)" style="stroke:#000000; stroke-linecap:butt; stroke-linejoin:round; stroke-width:2; stroke-opacity:0.1; fill:none" points="
  255.035,1423.18 255.035,47.2441 
  "/>
<polyline clip-path="url(#clip072)" style="stroke:#000000; stroke-linecap:butt; stroke-linejoin:round; stroke-width:2; stroke-opacity:0.1; fill:none" points="
  764.19,1423.18 764.19,47.2441 
  "/>
<polyline clip-path="url(#clip072)" style="stroke:#000000; stroke-linecap:butt; stroke-linejoin:round; stroke-width:2; stroke-opacity:0.1; fill:none" points="
  1273.35,1423.18 1273.35,47.2441 
  "/>
<polyline clip-path="url(#clip072)" style="stroke:#000000; stroke-linecap:butt; stroke-linejoin:round; stroke-width:2; stroke-opacity:0.1; fill:none" points="
  1782.5,1423.18 1782.5,47.2441 
  "/>
<polyline clip-path="url(#clip072)" style="stroke:#000000; stroke-linecap:butt; stroke-linejoin:round; stroke-width:2; stroke-opacity:0.1; fill:none" points="
  2291.66,1423.18 2291.66,47.2441 
  "/>
<polyline clip-path="url(#clip070)" style="stroke:#000000; stroke-linecap:butt; stroke-linejoin:round; stroke-width:4; stroke-opacity:1; fill:none" points="
  193.936,1423.18 2352.76,1423.18 
  "/>
<polyline clip-path="url(#clip070)" style="stroke:#000000; stroke-linecap:butt; stroke-linejoin:round; stroke-width:4; stroke-opacity:1; fill:none" points="
  255.035,1423.18 255.035,1404.28 
  "/>
<polyline clip-path="url(#clip070)" style="stroke:#000000; stroke-linecap:butt; stroke-linejoin:round; stroke-width:4; stroke-opacity:1; fill:none" points="
  764.19,1423.18 764.19,1404.28 
  "/>
<polyline clip-path="url(#clip070)" style="stroke:#000000; stroke-linecap:butt; stroke-linejoin:round; stroke-width:4; stroke-opacity:1; fill:none" points="
  1273.35,1423.18 1273.35,1404.28 
  "/>
<polyline clip-path="url(#clip070)" style="stroke:#000000; stroke-linecap:butt; stroke-linejoin:round; stroke-width:4; stroke-opacity:1; fill:none" points="
  1782.5,1423.18 1782.5,1404.28 
  "/>
<polyline clip-path="url(#clip070)" style="stroke:#000000; stroke-linecap:butt; stroke-linejoin:round; stroke-width:4; stroke-opacity:1; fill:none" points="
  2291.66,1423.18 2291.66,1404.28 
  "/>
<path clip-path="url(#clip070)" d="M255.035 1454.1 Q251.424 1454.1 249.595 1457.66 Q247.789 1461.2 247.789 1468.33 Q247.789 1475.44 249.595 1479.01 Q251.424 1482.55 255.035 1482.55 Q258.669 1482.55 260.474 1479.01 Q262.303 1475.44 262.303 1468.33 Q262.303 1461.2 260.474 1457.66 Q258.669 1454.1 255.035 1454.1 M255.035 1450.39 Q260.845 1450.39 263.9 1455 Q266.979 1459.58 266.979 1468.33 Q266.979 1477.06 263.9 1481.67 Q260.845 1486.25 255.035 1486.25 Q249.225 1486.25 246.146 1481.67 Q243.09 1477.06 243.09 1468.33 Q243.09 1459.58 246.146 1455 Q249.225 1450.39 255.035 1450.39 Z" fill="#000000" fill-rule="evenodd" fill-opacity="1" /><path clip-path="url(#clip070)" d="M754.572 1481.64 L762.211 1481.64 L762.211 1455.28 L753.901 1456.95 L753.901 1452.69 L762.165 1451.02 L766.841 1451.02 L766.841 1481.64 L774.48 1481.64 L774.48 1485.58 L754.572 1485.58 L754.572 1481.64 Z" fill="#000000" fill-rule="evenodd" fill-opacity="1" /><path clip-path="url(#clip070)" d="M1268 1481.64 L1284.32 1481.64 L1284.32 1485.58 L1262.37 1485.58 L1262.37 1481.64 Q1265.04 1478.89 1269.62 1474.26 Q1274.23 1469.61 1275.41 1468.27 Q1277.65 1465.74 1278.53 1464.01 Q1279.43 1462.25 1279.43 1460.56 Q1279.43 1457.8 1277.49 1456.07 Q1275.57 1454.33 1272.47 1454.33 Q1270.27 1454.33 1267.81 1455.09 Q1265.38 1455.86 1262.61 1457.41 L1262.61 1452.69 Q1265.43 1451.55 1267.88 1450.97 Q1270.34 1450.39 1272.37 1450.39 Q1277.74 1450.39 1280.94 1453.08 Q1284.13 1455.77 1284.13 1460.26 Q1284.13 1462.39 1283.32 1464.31 Q1282.54 1466.2 1280.43 1468.8 Q1279.85 1469.47 1276.75 1472.69 Q1273.65 1475.88 1268 1481.64 Z" fill="#000000" fill-rule="evenodd" fill-opacity="1" /><path clip-path="url(#clip070)" d="M1786.75 1466.95 Q1790.11 1467.66 1791.98 1469.93 Q1793.88 1472.2 1793.88 1475.53 Q1793.88 1480.65 1790.36 1483.45 Q1786.84 1486.25 1780.36 1486.25 Q1778.18 1486.25 1775.87 1485.81 Q1773.58 1485.39 1771.12 1484.54 L1771.12 1480.02 Q1773.07 1481.16 1775.38 1481.74 Q1777.7 1482.32 1780.22 1482.32 Q1784.62 1482.32 1786.91 1480.58 Q1789.23 1478.84 1789.23 1475.53 Q1789.23 1472.48 1787.07 1470.77 Q1784.94 1469.03 1781.12 1469.03 L1777.1 1469.03 L1777.1 1465.19 L1781.31 1465.19 Q1784.76 1465.19 1786.59 1463.82 Q1788.42 1462.43 1788.42 1459.84 Q1788.42 1457.18 1786.52 1455.77 Q1784.64 1454.33 1781.12 1454.33 Q1779.2 1454.33 1777 1454.75 Q1774.8 1455.16 1772.17 1456.04 L1772.17 1451.88 Q1774.83 1451.14 1777.14 1450.77 Q1779.48 1450.39 1781.54 1450.39 Q1786.86 1450.39 1789.97 1452.83 Q1793.07 1455.23 1793.07 1459.35 Q1793.07 1462.22 1791.43 1464.21 Q1789.78 1466.18 1786.75 1466.95 Z" fill="#000000" fill-rule="evenodd" fill-opacity="1" /><path clip-path="url(#clip070)" d="M2294.67 1455.09 L2282.86 1473.54 L2294.67 1473.54 L2294.67 1455.09 M2293.44 1451.02 L2299.32 1451.02 L2299.32 1473.54 L2304.25 1473.54 L2304.25 1477.43 L2299.32 1477.43 L2299.32 1485.58 L2294.67 1485.58 L2294.67 1477.43 L2279.06 1477.43 L2279.06 1472.92 L2293.44 1451.02 Z" fill="#000000" fill-rule="evenodd" fill-opacity="1" /><path clip-path="url(#clip070)" d="M1221.66 1522.27 L1221.66 1532.4 L1233.72 1532.4 L1233.72 1536.95 L1221.66 1536.95 L1221.66 1556.3 Q1221.66 1560.66 1222.83 1561.9 Q1224.04 1563.14 1227.7 1563.14 L1233.72 1563.14 L1233.72 1568.04 L1227.7 1568.04 Q1220.92 1568.04 1218.35 1565.53 Q1215.77 1562.98 1215.77 1556.3 L1215.77 1536.95 L1211.47 1536.95 L1211.47 1532.4 L1215.77 1532.4 L1215.77 1522.27 L1221.66 1522.27 Z" fill="#000000" fill-rule="evenodd" fill-opacity="1" /><path clip-path="url(#clip070)" d="M1261.6 1518.52 L1275.1 1518.52 L1275.1 1523.07 L1267.46 1523.07 L1267.46 1572.09 L1275.1 1572.09 L1275.1 1576.64 L1261.6 1576.64 L1261.6 1518.52 Z" fill="#000000" fill-rule="evenodd" fill-opacity="1" /><path clip-path="url(#clip070)" d="M1310.3 1533.45 L1310.3 1538.98 Q1307.82 1537.71 1305.14 1537.07 Q1302.47 1536.44 1299.6 1536.44 Q1295.24 1536.44 1293.05 1537.77 Q1290.88 1539.11 1290.88 1541.79 Q1290.88 1543.82 1292.44 1545 Q1294 1546.15 1298.71 1547.2 L1300.72 1547.64 Q1306.96 1548.98 1309.57 1551.43 Q1312.21 1553.85 1312.21 1558.21 Q1312.21 1563.17 1308.26 1566.07 Q1304.35 1568.97 1297.47 1568.97 Q1294.61 1568.97 1291.49 1568.39 Q1288.4 1567.85 1284.96 1566.74 L1284.96 1560.69 Q1288.21 1562.38 1291.36 1563.24 Q1294.51 1564.07 1297.6 1564.07 Q1301.74 1564.07 1303.97 1562.66 Q1306.19 1561.23 1306.19 1558.65 Q1306.19 1556.27 1304.57 1554.99 Q1302.98 1553.72 1297.54 1552.54 L1295.5 1552.07 Q1290.06 1550.92 1287.64 1548.56 Q1285.22 1546.18 1285.22 1542.04 Q1285.22 1537.01 1288.78 1534.27 Q1292.35 1531.54 1298.9 1531.54 Q1302.15 1531.54 1305.02 1532.01 Q1307.88 1532.49 1310.3 1533.45 Z" fill="#000000" fill-rule="evenodd" fill-opacity="1" /><path clip-path="url(#clip070)" d="M1335.22 1518.52 L1335.22 1576.64 L1321.73 1576.64 L1321.73 1572.09 L1329.33 1572.09 L1329.33 1523.07 L1321.73 1523.07 L1321.73 1518.52 L1335.22 1518.52 Z" fill="#000000" fill-rule="evenodd" fill-opacity="1" /><polyline clip-path="url(#clip072)" style="stroke:#000000; stroke-linecap:butt; stroke-linejoin:round; stroke-width:2; stroke-opacity:0.1; fill:none" points="
  193.936,1276.04 2352.76,1276.04 
  "/>
<polyline clip-path="url(#clip072)" style="stroke:#000000; stroke-linecap:butt; stroke-linejoin:round; stroke-width:2; stroke-opacity:0.1; fill:none" points="
  193.936,1005.61 2352.76,1005.61 
  "/>
<polyline clip-path="url(#clip072)" style="stroke:#000000; stroke-linecap:butt; stroke-linejoin:round; stroke-width:2; stroke-opacity:0.1; fill:none" points="
  193.936,735.195 2352.76,735.195 
  "/>
<polyline clip-path="url(#clip072)" style="stroke:#000000; stroke-linecap:butt; stroke-linejoin:round; stroke-width:2; stroke-opacity:0.1; fill:none" points="
  193.936,464.774 2352.76,464.774 
  "/>
<polyline clip-path="url(#clip072)" style="stroke:#000000; stroke-linecap:butt; stroke-linejoin:round; stroke-width:2; stroke-opacity:0.1; fill:none" points="
  193.936,194.354 2352.76,194.354 
  "/>
<polyline clip-path="url(#clip070)" style="stroke:#000000; stroke-linecap:butt; stroke-linejoin:round; stroke-width:4; stroke-opacity:1; fill:none" points="
  193.936,1423.18 193.936,47.2441 
  "/>
<polyline clip-path="url(#clip070)" style="stroke:#000000; stroke-linecap:butt; stroke-linejoin:round; stroke-width:4; stroke-opacity:1; fill:none" points="
  193.936,1276.04 212.834,1276.04 
  "/>
<polyline clip-path="url(#clip070)" style="stroke:#000000; stroke-linecap:butt; stroke-linejoin:round; stroke-width:4; stroke-opacity:1; fill:none" points="
  193.936,1005.61 212.834,1005.61 
  "/>
<polyline clip-path="url(#clip070)" style="stroke:#000000; stroke-linecap:butt; stroke-linejoin:round; stroke-width:4; stroke-opacity:1; fill:none" points="
  193.936,735.195 212.834,735.195 
  "/>
<polyline clip-path="url(#clip070)" style="stroke:#000000; stroke-linecap:butt; stroke-linejoin:round; stroke-width:4; stroke-opacity:1; fill:none" points="
  193.936,464.774 212.834,464.774 
  "/>
<polyline clip-path="url(#clip070)" style="stroke:#000000; stroke-linecap:butt; stroke-linejoin:round; stroke-width:4; stroke-opacity:1; fill:none" points="
  193.936,194.354 212.834,194.354 
  "/>
<path clip-path="url(#clip070)" d="M50.9921 1276.49 L80.6679 1276.49 L80.6679 1280.42 L50.9921 1280.42 L50.9921 1276.49 Z" fill="#000000" fill-rule="evenodd" fill-opacity="1" /><path clip-path="url(#clip070)" d="M90.8067 1258.76 L109.163 1258.76 L109.163 1262.69 L95.0891 1262.69 L95.0891 1271.16 Q96.1076 1270.82 97.1261 1270.65 Q98.1447 1270.47 99.1632 1270.47 Q104.95 1270.47 108.33 1273.64 Q111.709 1276.81 111.709 1282.23 Q111.709 1287.81 108.237 1290.91 Q104.765 1293.99 98.4456 1293.99 Q96.2697 1293.99 94.0012 1293.62 Q91.7558 1293.25 89.3484 1292.51 L89.3484 1287.81 Q91.4317 1288.94 93.6539 1289.5 Q95.8761 1290.05 98.353 1290.05 Q102.358 1290.05 104.696 1287.94 Q107.033 1285.84 107.033 1282.23 Q107.033 1278.62 104.696 1276.51 Q102.358 1274.4 98.353 1274.4 Q96.478 1274.4 94.603 1274.82 Q92.7512 1275.24 90.8067 1276.12 L90.8067 1258.76 Z" fill="#000000" fill-rule="evenodd" fill-opacity="1" /><path clip-path="url(#clip070)" d="M120.922 1287.44 L125.807 1287.44 L125.807 1293.32 L120.922 1293.32 L120.922 1287.44 Z" fill="#000000" fill-rule="evenodd" fill-opacity="1" /><path clip-path="url(#clip070)" d="M145.992 1261.83 Q142.381 1261.83 140.552 1265.4 Q138.746 1268.94 138.746 1276.07 Q138.746 1283.18 140.552 1286.74 Q142.381 1290.28 145.992 1290.28 Q149.626 1290.28 151.431 1286.74 Q153.26 1283.18 153.26 1276.07 Q153.26 1268.94 151.431 1265.4 Q149.626 1261.83 145.992 1261.83 M145.992 1258.13 Q151.802 1258.13 154.857 1262.74 Q157.936 1267.32 157.936 1276.07 Q157.936 1284.8 154.857 1289.4 Q151.802 1293.99 145.992 1293.99 Q140.181 1293.99 137.103 1289.4 Q134.047 1284.8 134.047 1276.07 Q134.047 1267.32 137.103 1262.74 Q140.181 1258.13 145.992 1258.13 Z" fill="#000000" fill-rule="evenodd" fill-opacity="1" /><path clip-path="url(#clip070)" d="M51.9875 1006.07 L81.6633 1006.07 L81.6633 1010 L51.9875 1010 L51.9875 1006.07 Z" fill="#000000" fill-rule="evenodd" fill-opacity="1" /><path clip-path="url(#clip070)" d="M95.7836 1018.96 L112.103 1018.96 L112.103 1022.89 L90.1586 1022.89 L90.1586 1018.96 Q92.8206 1016.21 97.4039 1011.58 Q102.01 1006.92 103.191 1005.58 Q105.436 1003.06 106.316 1001.32 Q107.219 999.562 107.219 997.872 Q107.219 995.117 105.274 993.381 Q103.353 991.645 100.251 991.645 Q98.0521 991.645 95.5984 992.409 Q93.1678 993.173 90.3901 994.724 L90.3901 990.002 Q93.2141 988.867 95.6678 988.289 Q98.1215 987.71 100.159 987.71 Q105.529 987.71 108.723 990.395 Q111.918 993.08 111.918 997.571 Q111.918 999.701 111.108 1001.62 Q110.321 1003.52 108.214 1006.11 Q107.635 1006.78 104.534 1010 Q101.432 1013.2 95.7836 1018.96 Z" fill="#000000" fill-rule="evenodd" fill-opacity="1" /><path clip-path="url(#clip070)" d="M121.918 1017.02 L126.802 1017.02 L126.802 1022.89 L121.918 1022.89 L121.918 1017.02 Z" fill="#000000" fill-rule="evenodd" fill-opacity="1" /><path clip-path="url(#clip070)" d="M137.033 988.335 L155.39 988.335 L155.39 992.27 L141.316 992.27 L141.316 1000.74 Q142.334 1000.4 143.353 1000.23 Q144.371 1000.05 145.39 1000.05 Q151.177 1000.05 154.556 1003.22 Q157.936 1006.39 157.936 1011.81 Q157.936 1017.39 154.464 1020.49 Q150.992 1023.57 144.672 1023.57 Q142.496 1023.57 140.228 1023.2 Q137.982 1022.83 135.575 1022.08 L135.575 1017.39 Q137.658 1018.52 139.881 1019.08 Q142.103 1019.63 144.58 1019.63 Q148.584 1019.63 150.922 1017.52 Q153.26 1015.42 153.26 1011.81 Q153.26 1008.2 150.922 1006.09 Q148.584 1003.98 144.58 1003.98 Q142.705 1003.98 140.83 1004.4 Q138.978 1004.82 137.033 1005.7 L137.033 988.335 Z" fill="#000000" fill-rule="evenodd" fill-opacity="1" /><path clip-path="url(#clip070)" d="M100.76 720.993 Q97.1493 720.993 95.3206 724.558 Q93.515 728.1 93.515 735.229 Q93.515 742.336 95.3206 745.9 Q97.1493 749.442 100.76 749.442 Q104.395 749.442 106.2 745.9 Q108.029 742.336 108.029 735.229 Q108.029 728.1 106.2 724.558 Q104.395 720.993 100.76 720.993 M100.76 717.29 Q106.571 717.29 109.626 721.896 Q112.705 726.479 112.705 735.229 Q112.705 743.956 109.626 748.563 Q106.571 753.146 100.76 753.146 Q94.9502 753.146 91.8715 748.563 Q88.816 743.956 88.816 735.229 Q88.816 726.479 91.8715 721.896 Q94.9502 717.29 100.76 717.29 Z" fill="#000000" fill-rule="evenodd" fill-opacity="1" /><path clip-path="url(#clip070)" d="M120.922 746.595 L125.807 746.595 L125.807 752.475 L120.922 752.475 L120.922 746.595 Z" fill="#000000" fill-rule="evenodd" fill-opacity="1" /><path clip-path="url(#clip070)" d="M145.992 720.993 Q142.381 720.993 140.552 724.558 Q138.746 728.1 138.746 735.229 Q138.746 742.336 140.552 745.9 Q142.381 749.442 145.992 749.442 Q149.626 749.442 151.431 745.9 Q153.26 742.336 153.26 735.229 Q153.26 728.1 151.431 724.558 Q149.626 720.993 145.992 720.993 M145.992 717.29 Q151.802 717.29 154.857 721.896 Q157.936 726.479 157.936 735.229 Q157.936 743.956 154.857 748.563 Q151.802 753.146 145.992 753.146 Q140.181 753.146 137.103 748.563 Q134.047 743.956 134.047 735.229 Q134.047 726.479 137.103 721.896 Q140.181 717.29 145.992 717.29 Z" fill="#000000" fill-rule="evenodd" fill-opacity="1" /><path clip-path="url(#clip070)" d="M95.7836 478.119 L112.103 478.119 L112.103 482.054 L90.1586 482.054 L90.1586 478.119 Q92.8206 475.364 97.4039 470.735 Q102.01 466.082 103.191 464.739 Q105.436 462.216 106.316 460.48 Q107.219 458.721 107.219 457.031 Q107.219 454.277 105.274 452.54 Q103.353 450.804 100.251 450.804 Q98.0521 450.804 95.5984 451.568 Q93.1678 452.332 90.3901 453.883 L90.3901 449.161 Q93.2141 448.027 95.6678 447.448 Q98.1215 446.869 100.159 446.869 Q105.529 446.869 108.723 449.554 Q111.918 452.24 111.918 456.73 Q111.918 458.86 111.108 460.781 Q110.321 462.679 108.214 465.272 Q107.635 465.943 104.534 469.161 Q101.432 472.355 95.7836 478.119 Z" fill="#000000" fill-rule="evenodd" fill-opacity="1" /><path clip-path="url(#clip070)" d="M121.918 476.175 L126.802 476.175 L126.802 482.054 L121.918 482.054 L121.918 476.175 Z" fill="#000000" fill-rule="evenodd" fill-opacity="1" /><path clip-path="url(#clip070)" d="M137.033 447.494 L155.39 447.494 L155.39 451.429 L141.316 451.429 L141.316 459.902 Q142.334 459.554 143.353 459.392 Q144.371 459.207 145.39 459.207 Q151.177 459.207 154.556 462.378 Q157.936 465.55 157.936 470.966 Q157.936 476.545 154.464 479.647 Q150.992 482.725 144.672 482.725 Q142.496 482.725 140.228 482.355 Q137.982 481.985 135.575 481.244 L135.575 476.545 Q137.658 477.679 139.881 478.235 Q142.103 478.79 144.58 478.79 Q148.584 478.79 150.922 476.684 Q153.26 474.577 153.26 470.966 Q153.26 467.355 150.922 465.249 Q148.584 463.142 144.58 463.142 Q142.705 463.142 140.83 463.559 Q138.978 463.976 137.033 464.855 L137.033 447.494 Z" fill="#000000" fill-rule="evenodd" fill-opacity="1" /><path clip-path="url(#clip070)" d="M90.8067 177.074 L109.163 177.074 L109.163 181.009 L95.0891 181.009 L95.0891 189.481 Q96.1076 189.134 97.1261 188.972 Q98.1447 188.787 99.1632 188.787 Q104.95 188.787 108.33 191.958 Q111.709 195.129 111.709 200.546 Q111.709 206.125 108.237 209.226 Q104.765 212.305 98.4456 212.305 Q96.2697 212.305 94.0012 211.935 Q91.7558 211.564 89.3484 210.824 L89.3484 206.125 Q91.4317 207.259 93.6539 207.814 Q95.8761 208.37 98.353 208.37 Q102.358 208.37 104.696 206.263 Q107.033 204.157 107.033 200.546 Q107.033 196.935 104.696 194.828 Q102.358 192.722 98.353 192.722 Q96.478 192.722 94.603 193.139 Q92.7512 193.555 90.8067 194.435 L90.8067 177.074 Z" fill="#000000" fill-rule="evenodd" fill-opacity="1" /><path clip-path="url(#clip070)" d="M120.922 205.754 L125.807 205.754 L125.807 211.634 L120.922 211.634 L120.922 205.754 Z" fill="#000000" fill-rule="evenodd" fill-opacity="1" /><path clip-path="url(#clip070)" d="M145.992 180.153 Q142.381 180.153 140.552 183.717 Q138.746 187.259 138.746 194.389 Q138.746 201.495 140.552 205.06 Q142.381 208.601 145.992 208.601 Q149.626 208.601 151.431 205.06 Q153.26 201.495 153.26 194.389 Q153.26 187.259 151.431 183.717 Q149.626 180.153 145.992 180.153 M145.992 176.449 Q151.802 176.449 154.857 181.055 Q157.936 185.639 157.936 194.389 Q157.936 203.115 154.857 207.722 Q151.802 212.305 145.992 212.305 Q140.181 212.305 137.103 207.722 Q134.047 203.115 134.047 194.389 Q134.047 185.639 137.103 181.055 Q140.181 176.449 145.992 176.449 Z" fill="#000000" fill-rule="evenodd" fill-opacity="1" /><polyline clip-path="url(#clip072)" style="stroke:#009af9; stroke-linecap:butt; stroke-linejoin:round; stroke-width:4; stroke-opacity:1; fill:none" points="
  255.035,681.11 260.126,681.078 265.218,680.981 270.309,680.818 275.401,680.592 280.492,680.301 285.584,679.946 290.676,679.527 295.767,679.045 300.859,678.5 
  305.95,677.893 311.042,677.224 316.133,676.494 321.225,675.704 326.316,674.855 331.408,673.947 336.5,672.981 341.591,671.958 346.683,670.88 351.774,669.748 
  356.866,668.561 361.957,667.322 367.049,666.032 372.14,664.692 377.232,663.304 382.324,661.868 387.415,660.387 392.507,658.861 397.598,657.293 402.69,655.683 
  407.781,654.034 412.873,652.348 417.964,650.625 423.056,648.868 428.148,647.078 433.239,645.257 438.331,643.407 443.422,641.53 448.514,639.628 453.605,637.702 
  458.697,635.755 463.788,633.788 468.88,631.803 473.972,629.803 479.063,627.79 484.155,625.765 489.246,623.73 494.338,621.688 499.429,619.64 504.521,617.589 
  509.612,615.536 514.704,613.485 519.796,611.435 524.887,609.391 529.979,607.354 535.07,605.325 540.162,603.307 545.253,601.302 550.345,599.312 555.437,597.339 
  560.528,595.385 565.62,593.451 570.711,591.541 575.803,589.655 580.894,587.795 585.986,585.964 591.077,584.164 596.169,582.395 601.261,580.66 606.352,578.961 
  611.444,577.298 616.535,575.675 621.627,574.093 626.718,572.552 631.81,571.055 636.901,569.603 641.993,568.198 647.085,566.841 652.176,565.533 657.268,564.276 
  662.359,563.071 667.451,561.919 672.542,560.821 677.634,559.779 682.725,558.793 687.817,557.865 692.909,556.995 698,556.184 703.092,555.433 708.183,554.743 
  713.275,554.114 718.366,553.547 723.458,553.044 728.549,552.603 733.641,552.226 738.733,551.913 743.824,551.664 748.916,551.479 754.007,551.36 759.099,551.305 
  764.19,551.315 769.282,551.39 774.373,551.53 779.465,551.735 784.557,552.004 789.648,552.337 794.74,552.734 799.831,553.195 804.923,553.719 810.014,554.305 
  815.106,554.953 820.197,555.662 825.289,556.432 830.381,557.262 835.472,558.15 840.564,559.097 845.655,560.101 850.747,561.161 855.838,562.276 860.93,563.445 
  866.021,564.666 871.113,565.94 876.205,567.263 881.296,568.635 886.388,570.055 891.479,571.522 896.571,573.032 901.662,574.586 906.754,576.182 911.845,577.817 
  916.937,579.491 922.029,581.202 927.12,582.948 932.212,584.727 937.303,586.537 942.395,588.377 947.486,590.245 952.578,592.139 957.669,594.057 962.761,595.997 
  967.853,597.957 972.944,599.936 978.036,601.931 983.127,603.94 988.219,605.962 993.31,607.993 998.402,610.033 1003.49,612.079 1008.59,614.13 1013.68,616.182 
  1018.77,618.234 1023.86,620.285 1028.95,622.331 1034.04,624.371 1039.13,626.403 1044.23,628.425 1049.32,630.435 1054.41,632.43 1059.5,634.409 1064.59,636.37 
  1069.68,638.311 1074.78,640.23 1079.87,642.124 1084.96,643.993 1090.05,645.834 1095.14,647.645 1100.23,649.425 1105.32,651.171 1110.42,652.883 1115.51,654.558 
  1120.6,656.194 1125.69,657.791 1130.78,659.345 1135.87,660.857 1140.97,662.324 1146.06,663.745 1151.15,665.118 1156.24,666.443 1161.33,667.717 1166.42,668.939 
  1171.51,670.109 1176.61,671.225 1181.7,672.286 1186.79,673.291 1191.88,674.239 1196.97,675.128 1202.06,675.959 1207.16,676.73 1212.25,677.441 1217.34,678.09 
  1222.43,678.677 1227.52,679.202 1232.61,679.664 1237.71,680.062 1242.8,680.397 1247.89,680.668 1252.98,680.874 1258.07,681.015 1263.16,681.091 1268.25,681.103 
  1273.35,681.049 1278.44,680.931 1283.53,680.748 1288.62,680.501 1293.71,680.19 1298.8,679.814 1303.9,679.374 1308.99,678.872 1314.08,678.307 1319.17,677.679 
  1324.26,676.991 1329.35,676.242 1334.44,675.432 1339.54,674.563 1344.63,673.636 1349.72,672.651 1354.81,671.611 1359.9,670.514 1364.99,669.364 1370.09,668.16 
  1375.18,666.904 1380.27,665.598 1385.36,664.242 1390.45,662.838 1395.54,661.387 1400.63,659.892 1405.73,658.353 1410.82,656.771 1415.91,655.149 1421,653.488 
  1426.09,651.79 1431.18,650.056 1436.28,648.289 1441.37,646.489 1446.46,644.659 1451.55,642.801 1456.64,640.916 1461.73,639.007 1466.83,637.074 1471.92,635.121 
  1477.01,633.149 1482.1,631.16 1487.19,629.156 1492.28,627.139 1497.37,625.111 1502.47,623.074 1507.56,621.031 1512.65,618.982 1517.74,616.931 1522.83,614.879 
  1527.92,612.829 1533.02,610.782 1538.11,608.74 1543.2,606.706 1548.29,604.681 1553.38,602.668 1558.47,600.668 1563.56,598.684 1568.66,596.718 1573.75,594.771 
  1578.84,592.845 1583.93,590.943 1589.02,589.067 1594.11,587.217 1599.21,585.396 1604.3,583.606 1609.39,581.849 1614.48,580.126 1619.57,578.44 1624.66,576.791 
  1629.75,575.181 1634.85,573.613 1639.94,572.087 1645.03,570.605 1650.12,569.169 1655.21,567.78 1660.3,566.439 1665.4,565.148 1670.49,563.909 1675.58,562.721 
  1680.67,561.587 1685.76,560.508 1690.85,559.484 1695.95,558.518 1701.04,557.608 1706.13,556.758 1711.22,555.967 1716.31,555.236 1721.4,554.566 1726.49,553.958 
  1731.59,553.412 1736.68,552.929 1741.77,552.509 1746.86,552.153 1751.95,551.861 1757.04,551.633 1762.14,551.47 1767.23,551.371 1772.32,551.338 1777.41,551.369 
  1782.5,551.466 1787.59,551.626 1792.68,551.852 1797.78,552.142 1802.87,552.495 1807.96,552.913 1813.05,553.394 1818.14,553.938 1823.23,554.544 1828.33,555.212 
  1833.42,555.94 1838.51,556.729 1843.6,557.578 1848.69,558.485 1853.78,559.45 1858.87,560.471 1863.97,561.549 1869.06,562.68 1874.15,563.866 1879.24,565.103 
  1884.33,566.392 1889.42,567.731 1894.52,569.118 1899.61,570.553 1904.7,572.033 1909.79,573.557 1914.88,575.123 1919.97,576.731 1925.07,578.378 1930.16,580.063 
  1935.25,581.785 1940.34,583.54 1945.43,585.329 1950.52,587.148 1955.61,588.996 1960.71,590.871 1965.8,592.772 1970.89,594.696 1975.98,596.642 1981.07,598.607 
  1986.16,600.59 1991.26,602.588 1996.35,604.6 2001.44,606.624 2006.53,608.657 2011.62,610.698 2016.71,612.744 2021.8,614.794 2026.9,616.845 2031.99,618.895 
  2037.08,620.943 2042.17,622.986 2047.26,625.022 2052.35,627.049 2057.45,629.066 2062.54,631.069 2067.63,633.058 2072.72,635.03 2077.81,636.983 2082.9,638.915 
  2087.99,640.824 2093.09,642.709 2098.18,644.568 2103.27,646.398 2108.36,648.198 2113.45,649.965 2118.54,651.699 2123.64,653.398 2128.73,655.059 2133.82,656.682 
  2138.91,658.263 2144,659.803 2149.09,661.3 2154.19,662.751 2159.28,664.155 2164.37,665.512 2169.46,666.819 2174.55,668.076 2179.64,669.281 2184.73,670.433 
  2189.83,671.53 2194.92,672.573 2200.01,673.558 2205.1,674.487 2210.19,675.357 2215.28,676.168 2220.38,676.919 2225.47,677.609 2230.56,678.238 2235.65,678.805 
  2240.74,679.309 2245.83,679.75 2250.92,680.128 2256.02,680.442 2261.11,680.691 2266.2,680.876 2271.29,680.997 2276.38,681.052 2281.47,681.043 2286.57,680.969 
  2291.66,680.83 
  "/>
<polyline clip-path="url(#clip072)" style="stroke:#e26f46; stroke-linecap:butt; stroke-linejoin:round; stroke-width:4; stroke-opacity:1; fill:none" points="
  255.035,735.195 260.126,728.706 265.218,722.224 270.309,715.754 275.401,709.304 280.492,702.88 285.584,696.488 290.676,690.135 295.767,683.826 300.859,677.569 
  305.95,671.37 311.042,665.234 316.133,659.169 321.225,653.179 326.316,647.271 331.408,641.451 336.5,635.725 341.591,630.098 346.683,624.576 351.774,619.164 
  356.866,613.868 361.957,608.694 367.049,603.646 372.14,598.73 377.232,593.95 382.324,589.312 387.415,584.819 392.507,580.477 397.598,576.29 402.69,572.261 
  407.781,568.396 412.873,564.697 417.964,561.169 423.056,557.815 428.148,554.638 433.239,551.642 438.331,548.829 443.422,546.203 448.514,543.766 453.605,541.52 
  458.697,539.468 463.788,537.611 468.88,535.952 473.972,534.493 479.063,533.234 484.155,532.177 489.246,531.323 494.338,530.673 499.429,530.227 504.521,529.986 
  509.612,529.951 514.704,530.121 519.796,530.496 524.887,531.076 529.979,531.859 535.07,532.846 540.162,534.036 545.253,535.426 550.345,537.017 555.437,538.805 
  560.528,540.79 565.62,542.97 570.711,545.341 575.803,547.903 580.894,550.652 585.986,553.585 591.077,556.7 596.169,559.993 601.261,563.462 606.352,567.102 
  611.444,570.911 616.535,574.883 621.627,579.016 626.718,583.306 631.81,587.747 636.901,592.335 641.993,597.067 647.085,601.936 652.176,606.939 657.268,612.07 
  662.359,617.325 667.451,622.697 672.542,628.181 677.634,633.773 682.725,639.466 687.817,645.255 692.909,651.134 698,657.096 703.092,663.137 708.183,669.25 
  713.275,675.429 718.366,681.668 723.458,687.96 728.549,694.299 733.641,700.68 738.733,707.095 743.824,713.537 748.916,720.002 754.007,726.482 759.099,732.971 
  764.19,739.461 769.282,745.948 774.373,752.424 779.465,758.882 784.557,765.317 789.648,771.722 794.74,778.09 799.831,784.415 804.923,790.691 810.014,796.912 
  815.106,803.071 820.197,809.162 825.289,815.179 830.381,821.116 835.472,826.968 840.564,832.728 845.655,838.391 850.747,843.95 855.838,849.4 860.93,854.736 
  866.021,859.953 871.113,865.045 876.205,870.007 881.296,874.833 886.388,879.52 891.479,884.062 896.571,888.456 901.662,892.696 906.754,896.779 911.845,900.7 
  916.937,904.455 922.029,908.042 927.12,911.455 932.212,914.693 937.303,917.75 942.395,920.626 947.486,923.316 952.578,925.818 957.669,928.129 962.761,930.247 
  967.853,932.171 972.944,933.897 978.036,935.425 983.127,936.753 988.219,937.879 993.31,938.802 998.402,939.522 1003.49,940.037 1008.59,940.348 1013.68,940.453 
  1018.77,940.353 1023.86,940.047 1028.95,939.537 1034.04,938.822 1039.13,937.904 1044.23,936.783 1049.32,935.46 1054.41,933.938 1059.5,932.216 1064.59,930.296 
  1069.68,928.182 1074.78,925.875 1079.87,923.376 1084.96,920.69 1090.05,917.819 1095.14,914.765 1100.23,911.531 1105.32,908.121 1110.42,904.537 1115.51,900.785 
  1120.6,896.866 1125.69,892.787 1130.78,888.55 1135.87,884.16 1140.97,879.62 1146.06,874.936 1151.15,870.112 1156.24,865.154 1161.33,860.065 1166.42,854.852 
  1171.51,849.52 1176.61,844.073 1181.7,838.517 1186.79,832.858 1191.88,827.101 1196.97,821.252 1202.06,815.318 1207.16,809.303 1212.25,803.215 1217.34,797.058 
  1222.43,790.84 1227.52,784.565 1232.61,778.242 1237.71,771.875 1242.8,765.472 1247.89,759.039 1252.98,752.582 1258.07,746.107 1263.16,739.622 1268.25,733.132 
  1273.35,726.644 1278.44,720.165 1283.53,713.701 1288.62,707.259 1293.71,700.845 1298.8,694.465 1303.9,688.125 1308.99,681.833 1314.08,675.594 1319.17,669.415 
  1324.26,663.302 1329.35,657.261 1334.44,651.297 1339.54,645.418 1344.63,639.628 1349.72,633.934 1354.81,628.342 1359.9,622.856 1364.99,617.483 1370.09,612.227 
  1375.18,607.095 1380.27,602.09 1385.36,597.219 1390.45,592.486 1395.54,587.895 1400.63,583.452 1405.73,579.161 1410.82,575.025 1415.91,571.05 1421,567.24 
  1426.09,563.597 1431.18,560.126 1436.28,556.83 1441.37,553.712 1446.46,550.775 1451.55,548.024 1456.64,545.459 1461.73,543.085 1466.83,540.902 1471.92,538.914 
  1477.01,537.122 1482.1,535.528 1487.19,534.133 1492.28,532.94 1497.37,531.949 1502.47,531.162 1507.56,530.578 1512.65,530.199 1517.74,530.025 1522.83,530.056 
  1527.92,530.292 1533.02,530.734 1538.11,531.38 1543.2,532.23 1548.29,533.282 1553.38,534.537 1558.47,535.992 1563.56,537.646 1568.66,539.497 1573.75,541.545 
  1578.84,543.787 1583.93,546.22 1589.02,548.841 1594.11,551.649 1599.21,554.64 1604.3,557.812 1609.39,561.161 1614.48,564.685 1619.57,568.379 1624.66,572.24 
  1629.75,576.264 1634.85,580.446 1639.94,584.783 1645.03,589.27 1650.12,593.904 1655.21,598.679 1660.3,603.59 1665.4,608.634 1670.49,613.803 1675.58,619.094 
  1680.67,624.5 1685.76,630.017 1690.85,635.64 1695.95,641.362 1701.04,647.178 1706.13,653.082 1711.22,659.068 1716.31,665.13 1721.4,671.262 1726.49,677.458 
  1731.59,683.712 1736.68,690.017 1741.77,696.367 1746.86,702.756 1751.95,709.178 1757.04,715.625 1762.14,722.091 1767.23,728.571 1772.32,735.058 1777.41,741.545 
  1782.5,748.025 1787.59,754.492 1792.68,760.94 1797.78,767.362 1802.87,773.752 1807.96,780.104 1813.05,786.41 1818.14,792.665 1823.23,798.863 1828.33,804.997 
  1833.42,811.061 1838.51,817.049 1843.6,822.955 1848.69,828.773 1853.78,834.498 1858.87,840.123 1863.97,845.644 1869.06,851.054 1874.15,856.348 1879.24,861.521 
  1884.33,866.567 1889.42,871.482 1894.52,876.26 1899.61,880.898 1904.7,885.39 1909.79,889.731 1914.88,893.919 1919.97,897.947 1925.07,901.812 1930.16,905.511 
  1935.25,909.039 1940.34,912.394 1945.43,915.571 1950.52,918.568 1955.61,921.382 1960.71,924.009 1965.8,926.448 1970.89,928.695 1975.98,930.748 1981.07,932.606 
  1986.16,934.267 1991.26,935.728 1996.35,936.99 2001.44,938.049 2006.53,938.905 2011.62,939.557 2016.71,940.005 2021.8,940.248 2026.9,940.287 2031.99,940.12 
  2037.08,939.749 2042.17,939.172 2047.26,938.392 2052.35,937.408 2057.45,936.222 2062.54,934.835 2067.63,933.249 2072.72,931.465 2077.81,929.485 2082.9,927.309 
  2087.99,924.942 2093.09,922.385 2098.18,919.641 2103.27,916.712 2108.36,913.602 2113.45,910.314 2118.54,906.851 2123.64,903.216 2128.73,899.412 2133.82,895.445 
  2138.91,891.317 2144,887.034 2149.09,882.598 2154.19,878.016 2159.28,873.29 2164.37,868.427 2169.46,863.429 2174.55,858.304 2179.64,853.056 2184.73,847.69 
  2189.83,842.212 2194.92,836.627 2200.01,830.94 2205.1,825.157 2210.19,819.284 2215.28,813.328 2220.38,807.293 2225.47,801.186 2230.56,795.014 2235.65,788.782 
  2240.74,782.496 2245.83,776.163 2250.92,769.788 2256.02,763.38 2261.11,756.943 2266.2,750.484 2271.29,744.011 2276.38,737.529 2281.47,731.044 2286.57,724.564 
  2291.66,718.094 
  "/>
<polyline clip-path="url(#clip072)" style="stroke:#3da44d; stroke-linecap:butt; stroke-linejoin:round; stroke-width:4; stroke-opacity:1; fill:none" points="
  255.035,86.1857 260.126,86.5121 265.218,87.4852 270.309,89.1057 275.401,91.3722 280.492,94.2819 285.584,97.832 290.676,102.019 295.767,106.839 300.859,112.288 
  305.95,118.359 311.042,125.048 316.133,132.345 321.225,140.247 326.316,148.741 331.408,157.821 336.5,167.478 341.591,177.705 346.683,188.486 351.774,199.814 
  356.866,211.679 361.957,224.07 367.049,236.97 372.14,250.369 377.232,264.253 382.324,278.61 387.415,293.424 392.507,308.68 397.598,324.363 402.69,340.457 
  407.781,356.946 412.873,373.813 417.964,391.042 423.056,408.614 428.148,426.514 433.239,444.722 438.331,463.221 443.422,481.991 448.514,501.015 453.605,520.272 
  458.697,539.745 463.788,559.413 468.88,579.256 473.972,599.256 479.063,619.392 484.155,639.643 489.246,659.99 494.338,680.413 499.429,700.89 504.521,721.401 
  509.612,741.926 514.704,762.445 519.796,782.936 524.887,803.38 529.979,823.755 535.07,844.042 540.162,864.22 545.253,884.269 550.345,904.169 555.437,923.9 
  560.528,943.442 565.62,962.776 570.711,981.883 575.803,1000.74 580.894,1019.34 585.986,1037.65 591.077,1055.65 596.169,1073.34 601.261,1090.69 606.352,1107.68 
  611.444,1124.31 616.535,1140.54 621.627,1156.36 626.718,1171.77 631.81,1186.74 636.901,1201.26 641.993,1215.31 647.085,1228.88 652.176,1241.96 657.268,1254.53 
  662.359,1266.58 667.451,1278.1 672.542,1289.08 677.634,1299.5 682.725,1309.36 687.817,1318.64 692.909,1327.34 698,1335.45 703.092,1342.96 708.183,1349.86 
  713.275,1356.15 718.366,1361.82 723.458,1366.85 728.549,1371.26 733.641,1375.03 738.733,1378.16 743.824,1380.65 748.916,1382.5 754.007,1383.69 759.099,1384.24 
  764.19,1384.14 769.282,1383.39 774.373,1381.99 779.465,1379.94 784.557,1377.25 789.648,1373.92 794.74,1369.95 799.831,1365.34 804.923,1360.1 810.014,1354.24 
  815.106,1347.76 820.197,1340.67 825.289,1332.97 830.381,1324.67 835.472,1315.79 840.564,1306.32 845.655,1296.28 850.747,1285.68 855.838,1274.53 860.93,1262.84 
  866.021,1250.63 871.113,1237.89 876.205,1224.66 881.296,1210.94 886.388,1196.74 891.479,1182.08 896.571,1166.97 901.662,1151.43 906.754,1135.47 911.845,1119.12 
  916.937,1102.38 922.029,1085.27 927.12,1067.81 932.212,1050.02 937.303,1031.92 942.395,1013.52 947.486,994.838 952.578,975.9 957.669,956.72 962.761,937.319 
  967.853,917.715 972.944,897.93 978.036,877.981 983.127,857.89 988.219,837.675 993.31,817.358 998.402,796.958 1003.49,776.497 1008.59,755.995 1013.68,735.472 
  1018.77,714.949 1023.86,694.445 1028.95,673.981 1034.04,653.579 1039.13,633.258 1044.23,613.04 1049.32,592.944 1054.41,572.991 1059.5,553.199 1064.59,533.589 
  1069.68,514.181 1074.78,494.994 1079.87,476.048 1084.96,457.361 1090.05,438.952 1095.14,420.841 1100.23,403.043 1105.32,385.578 1110.42,368.462 1115.51,351.714 
  1120.6,335.349 1125.69,319.385 1130.78,303.836 1135.87,288.719 1140.97,274.049 1146.06,259.841 1151.15,246.108 1156.24,232.865 1161.33,220.124 1166.42,207.897 
  1171.51,196.198 1176.61,185.038 1181.7,174.429 1186.79,164.381 1191.88,154.905 1196.97,146.008 1202.06,137.7 1207.16,129.989 1212.25,122.883 1217.34,116.39 
  1222.43,110.517 1227.52,105.269 1232.61,100.65 1237.71,96.6656 1242.8,93.3193 1247.89,90.6143 1252.98,88.5535 1258.07,87.1413 1263.16,86.3772 1268.25,86.2619 
  1273.35,86.7954 1278.44,87.9771 1283.53,89.8054 1288.62,92.2782 1293.71,95.3945 1298.8,99.1522 1303.9,103.546 1308.99,108.571 1314.08,114.223 1319.17,120.495 
  1324.26,127.382 1329.35,134.875 1334.44,142.97 1339.54,151.658 1344.63,160.93 1349.72,170.775 1354.81,181.185 1359.9,192.149 1364.99,203.654 1370.09,215.69 
  1375.18,228.248 1380.27,241.313 1385.36,254.872 1390.45,268.911 1395.54,283.416 1400.63,298.371 1405.73,313.763 1410.82,329.576 1415.91,345.796 1421,362.406 
  1426.09,379.388 1431.18,396.726 1436.28,414.402 1441.37,432.398 1446.46,450.696 1451.55,469.279 1456.64,488.128 1461.73,507.225 1466.83,526.55 1471.92,546.082 
  1477.01,565.804 1482.1,585.694 1487.19,605.733 1492.28,625.902 1497.37,646.181 1502.47,666.549 1507.56,686.985 1512.65,707.469 1517.74,727.98 1522.83,748.498 
  1527.92,769.003 1533.02,789.474 1538.11,809.891 1543.2,830.233 1548.29,850.48 1553.38,870.611 1558.47,890.607 1563.56,910.446 1568.66,930.111 1573.75,949.58 
  1578.84,968.835 1583.93,987.857 1589.02,1006.62 1594.11,1025.12 1599.21,1043.33 1604.3,1061.23 1609.39,1078.8 1614.48,1096.03 1619.57,1112.89 1624.66,1129.38 
  1629.75,1145.48 1634.85,1161.16 1639.94,1176.42 1645.03,1191.24 1650.12,1205.6 1655.21,1219.49 1660.3,1232.9 1665.4,1245.81 1670.49,1258.2 1675.58,1270.08 
  1680.67,1281.42 1685.76,1292.21 1690.85,1302.45 1695.95,1312.12 1701.04,1321.21 1706.13,1329.71 1711.22,1337.62 1716.31,1344.93 1721.4,1351.63 1726.49,1357.71 
  1731.59,1363.17 1736.68,1368 1741.77,1372.2 1746.86,1375.76 1751.95,1378.68 1757.04,1380.96 1762.14,1382.59 1767.23,1383.58 1772.32,1383.91 1777.41,1383.6 
  1782.5,1382.64 1787.59,1381.03 1792.68,1378.77 1797.78,1375.87 1802.87,1372.34 1807.96,1368.16 1813.05,1363.35 1818.14,1357.91 1823.23,1351.85 1828.33,1345.17 
  1833.42,1337.89 1838.51,1330 1843.6,1321.51 1848.69,1312.44 1853.78,1302.79 1858.87,1292.58 1863.97,1281.8 1869.06,1270.49 1874.15,1258.63 1879.24,1246.26 
  1884.33,1233.37 1889.42,1219.98 1894.52,1206.11 1899.61,1191.76 1904.7,1176.96 1909.79,1161.72 1914.88,1146.06 1919.97,1129.98 1925.07,1113.51 1930.16,1096.66 
  1935.25,1079.44 1940.34,1061.89 1945.43,1044 1950.52,1025.81 1955.61,1007.33 1960.71,988.579 1965.8,969.571 1970.89,950.329 1975.98,930.872 1981.07,911.22 
  1986.16,891.392 1991.26,871.408 1996.35,851.29 2001.44,831.054 2006.53,810.722 2011.62,790.314 2016.71,769.852 2021.8,749.355 2026.9,728.845 2031.99,708.341 
  2037.08,687.865 2042.17,667.435 2047.26,647.073 2052.35,626.8 2057.45,606.635 2062.54,586.599 2067.63,566.712 2072.72,546.993 2077.81,527.463 2082.9,508.141 
  2087.99,489.046 2093.09,470.197 2098.18,451.613 2103.27,433.313 2108.36,415.315 2113.45,397.637 2118.54,380.297 2123.64,363.312 2128.73,346.699 2133.82,330.475 
  2138.91,314.656 2144,299.257 2149.09,284.294 2154.19,269.782 2159.28,255.736 2164.37,242.169 2169.46,229.096 2174.55,216.529 2179.64,204.481 2184.73,192.963 
  2189.83,181.988 2194.92,171.565 2200.01,161.707 2205.1,152.423 2210.19,143.722 2215.28,135.612 2220.38,128.102 2225.47,121.198 2230.56,114.908 2235.65,109.239 
  2240.74,104.196 2245.83,99.7854 2250.92,96.0098 2256.02,92.8732 2261.11,90.3787 2266.2,88.5284 2271.29,87.3239 2276.38,86.7676 2281.47,86.8599 2286.57,87.6003 
  2291.66,88.9879 
  "/>
<path clip-path="url(#clip070)" d="
M1557.04 300.469 L2280.8 300.469 L2280.8 93.1086 L1557.04 93.1086  Z
  " fill="#ffffff" fill-rule="evenodd" fill-opacity="1"/>
<polyline clip-path="url(#clip070)" style="stroke:#000000; stroke-linecap:butt; stroke-linejoin:round; stroke-width:4; stroke-opacity:1; fill:none" points="
  1557.04,300.469 2280.8,300.469 2280.8,93.1086 1557.04,93.1086 1557.04,300.469 
  "/>
<polyline clip-path="url(#clip070)" style="stroke:#009af9; stroke-linecap:butt; stroke-linejoin:round; stroke-width:4; stroke-opacity:1; fill:none" points="
  1581.03,144.949 1724.95,144.949 
  "/>
<path clip-path="url(#clip070)" d="M1769.28 141.28 Q1770.88 138.409 1773.1 137.044 Q1775.32 135.678 1778.33 135.678 Q1782.38 135.678 1784.58 138.525 Q1786.78 141.349 1786.78 146.581 L1786.78 162.229 L1782.5 162.229 L1782.5 146.719 Q1782.5 142.993 1781.18 141.187 Q1779.86 139.382 1777.15 139.382 Q1773.84 139.382 1771.92 141.581 Q1770 143.78 1770 147.576 L1770 162.229 L1765.72 162.229 L1765.72 146.719 Q1765.72 142.969 1764.4 141.187 Q1763.08 139.382 1760.32 139.382 Q1757.06 139.382 1755.14 141.604 Q1753.22 143.803 1753.22 147.576 L1753.22 162.229 L1748.94 162.229 L1748.94 136.303 L1753.22 136.303 L1753.22 140.331 Q1754.68 137.946 1756.71 136.812 Q1758.75 135.678 1761.55 135.678 Q1764.37 135.678 1766.34 137.113 Q1768.33 138.548 1769.28 141.28 Z" fill="#000000" fill-rule="evenodd" fill-opacity="1" /><path clip-path="url(#clip070)" d="M1807.06 149.196 Q1801.9 149.196 1799.91 150.377 Q1797.92 151.557 1797.92 154.405 Q1797.92 156.673 1799.4 158.016 Q1800.9 159.335 1803.47 159.335 Q1807.01 159.335 1809.14 156.835 Q1811.3 154.312 1811.3 150.145 L1811.3 149.196 L1807.06 149.196 M1815.56 147.437 L1815.56 162.229 L1811.3 162.229 L1811.3 158.293 Q1809.84 160.655 1807.66 161.789 Q1805.49 162.9 1802.34 162.9 Q1798.36 162.9 1796 160.678 Q1793.66 158.432 1793.66 154.682 Q1793.66 150.307 1796.57 148.085 Q1799.51 145.863 1805.32 145.863 L1811.3 145.863 L1811.3 145.446 Q1811.3 142.507 1809.35 140.909 Q1807.43 139.289 1803.93 139.289 Q1801.71 139.289 1799.61 139.821 Q1797.5 140.354 1795.56 141.419 L1795.56 137.483 Q1797.89 136.581 1800.09 136.141 Q1802.29 135.678 1804.37 135.678 Q1810 135.678 1812.78 138.594 Q1815.56 141.511 1815.56 147.437 Z" fill="#000000" fill-rule="evenodd" fill-opacity="1" /><path clip-path="url(#clip070)" d="M1840.86 137.067 L1840.86 141.094 Q1839.05 140.169 1837.11 139.706 Q1835.16 139.243 1833.08 139.243 Q1829.91 139.243 1828.31 140.215 Q1826.74 141.187 1826.74 143.131 Q1826.74 144.613 1827.87 145.469 Q1829 146.303 1832.43 147.067 L1833.89 147.391 Q1838.43 148.363 1840.32 150.145 Q1842.24 151.905 1842.24 155.076 Q1842.24 158.687 1839.37 160.793 Q1836.53 162.9 1831.53 162.9 Q1829.44 162.9 1827.18 162.483 Q1824.93 162.09 1822.43 161.28 L1822.43 156.881 Q1824.79 158.108 1827.08 158.733 Q1829.37 159.335 1831.62 159.335 Q1834.63 159.335 1836.25 158.317 Q1837.87 157.275 1837.87 155.4 Q1837.87 153.664 1836.69 152.738 Q1835.53 151.812 1831.57 150.956 L1830.09 150.608 Q1826.13 149.775 1824.37 148.062 Q1822.62 146.326 1822.62 143.317 Q1822.62 139.659 1825.21 137.669 Q1827.8 135.678 1832.57 135.678 Q1834.93 135.678 1837.01 136.025 Q1839.1 136.372 1840.86 137.067 Z" fill="#000000" fill-rule="evenodd" fill-opacity="1" /><path clip-path="url(#clip070)" d="M1865.55 137.067 L1865.55 141.094 Q1863.75 140.169 1861.8 139.706 Q1859.86 139.243 1857.78 139.243 Q1854.61 139.243 1853.01 140.215 Q1851.43 141.187 1851.43 143.131 Q1851.43 144.613 1852.57 145.469 Q1853.7 146.303 1857.13 147.067 L1858.59 147.391 Q1863.12 148.363 1865.02 150.145 Q1866.94 151.905 1866.94 155.076 Q1866.94 158.687 1864.07 160.793 Q1861.23 162.9 1856.23 162.9 Q1854.14 162.9 1851.87 162.483 Q1849.63 162.09 1847.13 161.28 L1847.13 156.881 Q1849.49 158.108 1851.78 158.733 Q1854.07 159.335 1856.32 159.335 Q1859.33 159.335 1860.95 158.317 Q1862.57 157.275 1862.57 155.4 Q1862.57 153.664 1861.39 152.738 Q1860.23 151.812 1856.27 150.956 L1854.79 150.608 Q1850.83 149.775 1849.07 148.062 Q1847.31 146.326 1847.31 143.317 Q1847.31 139.659 1849.91 137.669 Q1852.5 135.678 1857.27 135.678 Q1859.63 135.678 1861.71 136.025 Q1863.8 136.372 1865.55 137.067 Z" fill="#000000" fill-rule="evenodd" fill-opacity="1" /><path clip-path="url(#clip070)" d="M1874.33 156.349 L1879.21 156.349 L1879.21 162.229 L1874.33 162.229 L1874.33 156.349 Z" fill="#000000" fill-rule="evenodd" fill-opacity="1" /><path clip-path="url(#clip070)" d="M1905.32 137.067 L1905.32 141.094 Q1903.52 140.169 1901.57 139.706 Q1899.63 139.243 1897.55 139.243 Q1894.37 139.243 1892.78 140.215 Q1891.2 141.187 1891.2 143.131 Q1891.2 144.613 1892.34 145.469 Q1893.47 146.303 1896.9 147.067 L1898.36 147.391 Q1902.89 148.363 1904.79 150.145 Q1906.71 151.905 1906.71 155.076 Q1906.71 158.687 1903.84 160.793 Q1900.99 162.9 1895.99 162.9 Q1893.91 162.9 1891.64 162.483 Q1889.4 162.09 1886.9 161.28 L1886.9 156.881 Q1889.26 158.108 1891.55 158.733 Q1893.84 159.335 1896.09 159.335 Q1899.1 159.335 1900.72 158.317 Q1902.34 157.275 1902.34 155.4 Q1902.34 153.664 1901.16 152.738 Q1900 151.812 1896.04 150.956 L1894.56 150.608 Q1890.6 149.775 1888.84 148.062 Q1887.08 146.326 1887.08 143.317 Q1887.08 139.659 1889.68 137.669 Q1892.27 135.678 1897.04 135.678 Q1899.4 135.678 1901.48 136.025 Q1903.56 136.372 1905.32 137.067 Z" fill="#000000" fill-rule="evenodd" fill-opacity="1" /><path clip-path="url(#clip070)" d="M1938.8 126.257 Q1935.69 131.581 1934.19 136.789 Q1932.68 141.997 1932.68 147.344 Q1932.68 152.692 1934.19 157.946 Q1935.72 163.178 1938.8 168.479 L1935.09 168.479 Q1931.62 163.039 1929.88 157.784 Q1928.17 152.53 1928.17 147.344 Q1928.17 142.182 1929.88 136.951 Q1931.6 131.72 1935.09 126.257 L1938.8 126.257 Z" fill="#000000" fill-rule="evenodd" fill-opacity="1" /><path clip-path="url(#clip070)" d="M1961.83 143.594 Q1965.18 144.312 1967.06 146.581 Q1968.96 148.849 1968.96 152.182 Q1968.96 157.298 1965.44 160.099 Q1961.92 162.9 1955.44 162.9 Q1953.26 162.9 1950.95 162.46 Q1948.66 162.043 1946.2 161.187 L1946.2 156.673 Q1948.15 157.807 1950.46 158.386 Q1952.78 158.965 1955.3 158.965 Q1959.7 158.965 1961.99 157.229 Q1964.3 155.493 1964.3 152.182 Q1964.3 149.127 1962.15 147.414 Q1960.02 145.678 1956.2 145.678 L1952.17 145.678 L1952.17 141.835 L1956.39 141.835 Q1959.84 141.835 1961.67 140.469 Q1963.49 139.081 1963.49 136.488 Q1963.49 133.826 1961.6 132.414 Q1959.72 130.979 1956.2 130.979 Q1954.28 130.979 1952.08 131.395 Q1949.88 131.812 1947.24 132.692 L1947.24 128.525 Q1949.91 127.784 1952.22 127.414 Q1954.56 127.044 1956.62 127.044 Q1961.94 127.044 1965.05 129.474 Q1968.15 131.882 1968.15 136.002 Q1968.15 138.872 1966.5 140.863 Q1964.86 142.831 1961.83 143.594 Z" fill="#000000" fill-rule="evenodd" fill-opacity="1" /><path clip-path="url(#clip070)" d="M1991.99 143.594 Q1995.35 144.312 1997.22 146.581 Q1999.12 148.849 1999.12 152.182 Q1999.12 157.298 1995.6 160.099 Q1992.08 162.9 1985.6 162.9 Q1983.42 162.9 1981.11 162.46 Q1978.82 162.043 1976.36 161.187 L1976.36 156.673 Q1978.31 157.807 1980.62 158.386 Q1982.94 158.965 1985.46 158.965 Q1989.86 158.965 1992.15 157.229 Q1994.47 155.493 1994.47 152.182 Q1994.47 149.127 1992.31 147.414 Q1990.18 145.678 1986.36 145.678 L1982.34 145.678 L1982.34 141.835 L1986.55 141.835 Q1990 141.835 1991.83 140.469 Q1993.66 139.081 1993.66 136.488 Q1993.66 133.826 1991.76 132.414 Q1989.88 130.979 1986.36 130.979 Q1984.44 130.979 1982.24 131.395 Q1980.05 131.812 1977.41 132.692 L1977.41 128.525 Q1980.07 127.784 1982.38 127.414 Q1984.72 127.044 1986.78 127.044 Q1992.11 127.044 1995.21 129.474 Q1998.31 131.882 1998.31 136.002 Q1998.31 138.872 1996.67 140.863 Q1995.02 142.831 1991.99 143.594 Z" fill="#000000" fill-rule="evenodd" fill-opacity="1" /><path clip-path="url(#clip070)" d="M2008.03 127.669 L2026.39 127.669 L2026.39 131.604 L2012.31 131.604 L2012.31 140.076 Q2013.33 139.729 2014.35 139.567 Q2015.37 139.382 2016.39 139.382 Q2022.17 139.382 2025.55 142.553 Q2028.93 145.724 2028.93 151.141 Q2028.93 156.719 2025.46 159.821 Q2021.99 162.9 2015.67 162.9 Q2013.49 162.9 2011.23 162.53 Q2008.98 162.159 2006.57 161.418 L2006.57 156.719 Q2008.66 157.854 2010.88 158.409 Q2013.1 158.965 2015.58 158.965 Q2019.58 158.965 2021.92 156.858 Q2024.26 154.752 2024.26 151.141 Q2024.26 147.53 2021.92 145.423 Q2019.58 143.317 2015.58 143.317 Q2013.7 143.317 2011.83 143.733 Q2009.98 144.15 2008.03 145.03 L2008.03 127.669 Z" fill="#000000" fill-rule="evenodd" fill-opacity="1" /><path clip-path="url(#clip070)" d="M2038.19 127.669 L2056.55 127.669 L2056.55 131.604 L2042.48 131.604 L2042.48 140.076 Q2043.49 139.729 2044.51 139.567 Q2045.53 139.382 2046.55 139.382 Q2052.34 139.382 2055.72 142.553 Q2059.1 145.724 2059.1 151.141 Q2059.1 156.719 2055.62 159.821 Q2052.15 162.9 2045.83 162.9 Q2043.66 162.9 2041.39 162.53 Q2039.14 162.159 2036.73 161.418 L2036.73 156.719 Q2038.82 157.854 2041.04 158.409 Q2043.26 158.965 2045.74 158.965 Q2049.74 158.965 2052.08 156.858 Q2054.42 154.752 2054.42 151.141 Q2054.42 147.53 2052.08 145.423 Q2049.74 143.317 2045.74 143.317 Q2043.86 143.317 2041.99 143.733 Q2040.14 144.15 2038.19 145.03 L2038.19 127.669 Z" fill="#000000" fill-rule="evenodd" fill-opacity="1" /><path clip-path="url(#clip070)" d="M2081.16 131.743 L2069.35 150.192 L2081.16 150.192 L2081.16 131.743 M2079.93 127.669 L2085.81 127.669 L2085.81 150.192 L2090.74 150.192 L2090.74 154.081 L2085.81 154.081 L2085.81 162.229 L2081.16 162.229 L2081.16 154.081 L2065.55 154.081 L2065.55 149.567 L2079.93 127.669 Z" fill="#000000" fill-rule="evenodd" fill-opacity="1" /><path clip-path="url(#clip070)" d="M2111.32 131.743 L2099.51 150.192 L2111.32 150.192 L2111.32 131.743 M2110.09 127.669 L2115.97 127.669 L2115.97 150.192 L2120.9 150.192 L2120.9 154.081 L2115.97 154.081 L2115.97 162.229 L2111.32 162.229 L2111.32 154.081 L2095.72 154.081 L2095.72 149.567 L2110.09 127.669 Z" fill="#000000" fill-rule="evenodd" fill-opacity="1" /><path clip-path="url(#clip070)" d="M2142.8 143.594 Q2146.16 144.312 2148.03 146.581 Q2149.93 148.849 2149.93 152.182 Q2149.93 157.298 2146.41 160.099 Q2142.89 162.9 2136.41 162.9 Q2134.23 162.9 2131.92 162.46 Q2129.63 162.043 2127.17 161.187 L2127.17 156.673 Q2129.12 157.807 2131.43 158.386 Q2133.75 158.965 2136.27 158.965 Q2140.67 158.965 2142.96 157.229 Q2145.28 155.493 2145.28 152.182 Q2145.28 149.127 2143.12 147.414 Q2140.99 145.678 2137.17 145.678 L2133.15 145.678 L2133.15 141.835 L2137.36 141.835 Q2140.81 141.835 2142.64 140.469 Q2144.47 139.081 2144.47 136.488 Q2144.47 133.826 2142.57 132.414 Q2140.69 130.979 2137.17 130.979 Q2135.25 130.979 2133.05 131.395 Q2130.85 131.812 2128.22 132.692 L2128.22 128.525 Q2130.88 127.784 2133.19 127.414 Q2135.53 127.044 2137.59 127.044 Q2142.91 127.044 2146.02 129.474 Q2149.12 131.882 2149.12 136.002 Q2149.12 138.872 2147.47 140.863 Q2145.83 142.831 2142.8 143.594 Z" fill="#000000" fill-rule="evenodd" fill-opacity="1" /><path clip-path="url(#clip070)" d="M2162.82 158.293 L2179.14 158.293 L2179.14 162.229 L2157.2 162.229 L2157.2 158.293 Q2159.86 155.539 2164.44 150.909 Q2169.05 146.256 2170.23 144.914 Q2172.47 142.391 2173.35 140.655 Q2174.26 138.895 2174.26 137.206 Q2174.26 134.451 2172.31 132.715 Q2170.39 130.979 2167.29 130.979 Q2165.09 130.979 2162.64 131.743 Q2160.21 132.507 2157.43 134.057 L2157.43 129.335 Q2160.25 128.201 2162.71 127.622 Q2165.16 127.044 2167.2 127.044 Q2172.57 127.044 2175.76 129.729 Q2178.96 132.414 2178.96 136.905 Q2178.96 139.034 2178.15 140.956 Q2177.36 142.854 2175.25 145.446 Q2174.67 146.118 2171.57 149.335 Q2168.47 152.53 2162.82 158.293 Z" fill="#000000" fill-rule="evenodd" fill-opacity="1" /><path clip-path="url(#clip070)" d="M2187.68 126.257 L2191.39 126.257 Q2194.86 131.72 2196.57 136.951 Q2198.31 142.182 2198.31 147.344 Q2198.31 152.53 2196.57 157.784 Q2194.86 163.039 2191.39 168.479 L2187.68 168.479 Q2190.76 163.178 2192.27 157.946 Q2193.79 152.692 2193.79 147.344 Q2193.79 141.997 2192.27 136.789 Q2190.76 131.581 2187.68 126.257 Z" fill="#000000" fill-rule="evenodd" fill-opacity="1" /><polyline clip-path="url(#clip070)" style="stroke:#e26f46; stroke-linecap:butt; stroke-linejoin:round; stroke-width:4; stroke-opacity:1; fill:none" points="
  1581.03,196.789 1724.95,196.789 
  "/>
<path clip-path="url(#clip070)" d="M1769.28 193.12 Q1770.88 190.249 1773.1 188.884 Q1775.32 187.518 1778.33 187.518 Q1782.38 187.518 1784.58 190.365 Q1786.78 193.189 1786.78 198.421 L1786.78 214.069 L1782.5 214.069 L1782.5 198.559 Q1782.5 194.833 1781.18 193.027 Q1779.86 191.222 1777.15 191.222 Q1773.84 191.222 1771.92 193.421 Q1770 195.62 1770 199.416 L1770 214.069 L1765.72 214.069 L1765.72 198.559 Q1765.72 194.809 1764.4 193.027 Q1763.08 191.222 1760.32 191.222 Q1757.06 191.222 1755.14 193.444 Q1753.22 195.643 1753.22 199.416 L1753.22 214.069 L1748.94 214.069 L1748.94 188.143 L1753.22 188.143 L1753.22 192.171 Q1754.68 189.786 1756.71 188.652 Q1758.75 187.518 1761.55 187.518 Q1764.37 187.518 1766.34 188.953 Q1768.33 190.388 1769.28 193.12 Z" fill="#000000" fill-rule="evenodd" fill-opacity="1" /><path clip-path="url(#clip070)" d="M1807.06 201.036 Q1801.9 201.036 1799.91 202.217 Q1797.92 203.397 1797.92 206.245 Q1797.92 208.513 1799.4 209.856 Q1800.9 211.175 1803.47 211.175 Q1807.01 211.175 1809.14 208.675 Q1811.3 206.152 1811.3 201.985 L1811.3 201.036 L1807.06 201.036 M1815.56 199.277 L1815.56 214.069 L1811.3 214.069 L1811.3 210.133 Q1809.84 212.495 1807.66 213.629 Q1805.49 214.74 1802.34 214.74 Q1798.36 214.74 1796 212.518 Q1793.66 210.272 1793.66 206.522 Q1793.66 202.147 1796.57 199.925 Q1799.51 197.703 1805.32 197.703 L1811.3 197.703 L1811.3 197.286 Q1811.3 194.347 1809.35 192.749 Q1807.43 191.129 1803.93 191.129 Q1801.71 191.129 1799.61 191.661 Q1797.5 192.194 1795.56 193.259 L1795.56 189.323 Q1797.89 188.421 1800.09 187.981 Q1802.29 187.518 1804.37 187.518 Q1810 187.518 1812.78 190.434 Q1815.56 193.351 1815.56 199.277 Z" fill="#000000" fill-rule="evenodd" fill-opacity="1" /><path clip-path="url(#clip070)" d="M1840.86 188.907 L1840.86 192.934 Q1839.05 192.009 1837.11 191.546 Q1835.16 191.083 1833.08 191.083 Q1829.91 191.083 1828.31 192.055 Q1826.74 193.027 1826.74 194.971 Q1826.74 196.453 1827.87 197.309 Q1829 198.143 1832.43 198.907 L1833.89 199.231 Q1838.43 200.203 1840.32 201.985 Q1842.24 203.745 1842.24 206.916 Q1842.24 210.527 1839.37 212.633 Q1836.53 214.74 1831.53 214.74 Q1829.44 214.74 1827.18 214.323 Q1824.93 213.93 1822.43 213.12 L1822.43 208.721 Q1824.79 209.948 1827.08 210.573 Q1829.37 211.175 1831.62 211.175 Q1834.63 211.175 1836.25 210.157 Q1837.87 209.115 1837.87 207.24 Q1837.87 205.504 1836.69 204.578 Q1835.53 203.652 1831.57 202.796 L1830.09 202.448 Q1826.13 201.615 1824.37 199.902 Q1822.62 198.166 1822.62 195.157 Q1822.62 191.499 1825.21 189.509 Q1827.8 187.518 1832.57 187.518 Q1834.93 187.518 1837.01 187.865 Q1839.1 188.212 1840.86 188.907 Z" fill="#000000" fill-rule="evenodd" fill-opacity="1" /><path clip-path="url(#clip070)" d="M1865.55 188.907 L1865.55 192.934 Q1863.75 192.009 1861.8 191.546 Q1859.86 191.083 1857.78 191.083 Q1854.61 191.083 1853.01 192.055 Q1851.43 193.027 1851.43 194.971 Q1851.43 196.453 1852.57 197.309 Q1853.7 198.143 1857.13 198.907 L1858.59 199.231 Q1863.12 200.203 1865.02 201.985 Q1866.94 203.745 1866.94 206.916 Q1866.94 210.527 1864.07 212.633 Q1861.23 214.74 1856.23 214.74 Q1854.14 214.74 1851.87 214.323 Q1849.63 213.93 1847.13 213.12 L1847.13 208.721 Q1849.49 209.948 1851.78 210.573 Q1854.07 211.175 1856.32 211.175 Q1859.33 211.175 1860.95 210.157 Q1862.57 209.115 1862.57 207.24 Q1862.57 205.504 1861.39 204.578 Q1860.23 203.652 1856.27 202.796 L1854.79 202.448 Q1850.83 201.615 1849.07 199.902 Q1847.31 198.166 1847.31 195.157 Q1847.31 191.499 1849.91 189.509 Q1852.5 187.518 1857.27 187.518 Q1859.63 187.518 1861.71 187.865 Q1863.8 188.212 1865.55 188.907 Z" fill="#000000" fill-rule="evenodd" fill-opacity="1" /><path clip-path="url(#clip070)" d="M1874.33 208.189 L1879.21 208.189 L1879.21 214.069 L1874.33 214.069 L1874.33 208.189 Z" fill="#000000" fill-rule="evenodd" fill-opacity="1" /><path clip-path="url(#clip070)" d="M1885.74 188.143 L1890.25 188.143 L1898.36 209.902 L1906.46 188.143 L1910.97 188.143 L1901.25 214.069 L1895.46 214.069 L1885.74 188.143 Z" fill="#000000" fill-rule="evenodd" fill-opacity="1" /><path clip-path="url(#clip070)" d="M1942.15 178.097 Q1939.05 183.421 1937.55 188.629 Q1936.04 193.837 1936.04 199.184 Q1936.04 204.532 1937.55 209.786 Q1939.07 215.018 1942.15 220.319 L1938.45 220.319 Q1934.98 214.879 1933.24 209.624 Q1931.53 204.37 1931.53 199.184 Q1931.53 194.022 1933.24 188.791 Q1934.95 183.56 1938.45 178.097 L1942.15 178.097 Z" fill="#000000" fill-rule="evenodd" fill-opacity="1" /><path clip-path="url(#clip070)" d="M1965.18 195.434 Q1968.54 196.152 1970.42 198.421 Q1972.31 200.689 1972.31 204.022 Q1972.31 209.138 1968.8 211.939 Q1965.28 214.74 1958.8 214.74 Q1956.62 214.74 1954.3 214.3 Q1952.01 213.883 1949.56 213.027 L1949.56 208.513 Q1951.5 209.647 1953.82 210.226 Q1956.13 210.805 1958.66 210.805 Q1963.05 210.805 1965.35 209.069 Q1967.66 207.333 1967.66 204.022 Q1967.66 200.967 1965.51 199.254 Q1963.38 197.518 1959.56 197.518 L1955.53 197.518 L1955.53 193.675 L1959.74 193.675 Q1963.19 193.675 1965.02 192.309 Q1966.85 190.921 1966.85 188.328 Q1966.85 185.666 1964.95 184.254 Q1963.08 182.819 1959.56 182.819 Q1957.64 182.819 1955.44 183.235 Q1953.24 183.652 1950.6 184.532 L1950.6 180.365 Q1953.26 179.624 1955.58 179.254 Q1957.92 178.884 1959.98 178.884 Q1965.3 178.884 1968.4 181.314 Q1971.5 183.722 1971.5 187.842 Q1971.5 190.712 1969.86 192.703 Q1968.22 194.671 1965.18 195.434 Z" fill="#000000" fill-rule="evenodd" fill-opacity="1" /><path clip-path="url(#clip070)" d="M1995.35 195.434 Q1998.7 196.152 2000.58 198.421 Q2002.48 200.689 2002.48 204.022 Q2002.48 209.138 1998.96 211.939 Q1995.44 214.74 1988.96 214.74 Q1986.78 214.74 1984.47 214.3 Q1982.17 213.883 1979.72 213.027 L1979.72 208.513 Q1981.67 209.647 1983.98 210.226 Q1986.3 210.805 1988.82 210.805 Q1993.22 210.805 1995.51 209.069 Q1997.82 207.333 1997.82 204.022 Q1997.82 200.967 1995.67 199.254 Q1993.54 197.518 1989.72 197.518 L1985.69 197.518 L1985.69 193.675 L1989.91 193.675 Q1993.36 193.675 1995.18 192.309 Q1997.01 190.921 1997.01 188.328 Q1997.01 185.666 1995.11 184.254 Q1993.24 182.819 1989.72 182.819 Q1987.8 182.819 1985.6 183.235 Q1983.4 183.652 1980.76 184.532 L1980.76 180.365 Q1983.42 179.624 1985.74 179.254 Q1988.08 178.884 1990.14 178.884 Q1995.46 178.884 1998.56 181.314 Q2001.67 183.722 2001.67 187.842 Q2001.67 190.712 2000.02 192.703 Q1998.38 194.671 1995.35 195.434 Z" fill="#000000" fill-rule="evenodd" fill-opacity="1" /><path clip-path="url(#clip070)" d="M2011.39 179.509 L2029.74 179.509 L2029.74 183.444 L2015.67 183.444 L2015.67 191.916 Q2016.69 191.569 2017.71 191.407 Q2018.73 191.222 2019.74 191.222 Q2025.53 191.222 2028.91 194.393 Q2032.29 197.564 2032.29 202.981 Q2032.29 208.559 2028.82 211.661 Q2025.35 214.74 2019.03 214.74 Q2016.85 214.74 2014.58 214.37 Q2012.34 213.999 2009.93 213.258 L2009.93 208.559 Q2012.01 209.694 2014.23 210.249 Q2016.46 210.805 2018.93 210.805 Q2022.94 210.805 2025.28 208.698 Q2027.61 206.592 2027.61 202.981 Q2027.61 199.37 2025.28 197.263 Q2022.94 195.157 2018.93 195.157 Q2017.06 195.157 2015.18 195.573 Q2013.33 195.99 2011.39 196.87 L2011.39 179.509 Z" fill="#000000" fill-rule="evenodd" fill-opacity="1" /><path clip-path="url(#clip070)" d="M2041.55 179.509 L2059.91 179.509 L2059.91 183.444 L2045.83 183.444 L2045.83 191.916 Q2046.85 191.569 2047.87 191.407 Q2048.89 191.222 2049.91 191.222 Q2055.69 191.222 2059.07 194.393 Q2062.45 197.564 2062.45 202.981 Q2062.45 208.559 2058.98 211.661 Q2055.51 214.74 2049.19 214.74 Q2047.01 214.74 2044.74 214.37 Q2042.5 213.999 2040.09 213.258 L2040.09 208.559 Q2042.17 209.694 2044.4 210.249 Q2046.62 210.805 2049.1 210.805 Q2053.1 210.805 2055.44 208.698 Q2057.78 206.592 2057.78 202.981 Q2057.78 199.37 2055.44 197.263 Q2053.1 195.157 2049.1 195.157 Q2047.22 195.157 2045.35 195.573 Q2043.49 195.99 2041.55 196.87 L2041.55 179.509 Z" fill="#000000" fill-rule="evenodd" fill-opacity="1" /><path clip-path="url(#clip070)" d="M2084.51 183.583 L2072.71 202.032 L2084.51 202.032 L2084.51 183.583 M2083.29 179.509 L2089.16 179.509 L2089.16 202.032 L2094.1 202.032 L2094.1 205.921 L2089.16 205.921 L2089.16 214.069 L2084.51 214.069 L2084.51 205.921 L2068.91 205.921 L2068.91 201.407 L2083.29 179.509 Z" fill="#000000" fill-rule="evenodd" fill-opacity="1" /><path clip-path="url(#clip070)" d="M2114.67 183.583 L2102.87 202.032 L2114.67 202.032 L2114.67 183.583 M2113.45 179.509 L2119.33 179.509 L2119.33 202.032 L2124.26 202.032 L2124.26 205.921 L2119.33 205.921 L2119.33 214.069 L2114.67 214.069 L2114.67 205.921 L2099.07 205.921 L2099.07 201.407 L2113.45 179.509 Z" fill="#000000" fill-rule="evenodd" fill-opacity="1" /><path clip-path="url(#clip070)" d="M2146.16 195.434 Q2149.51 196.152 2151.39 198.421 Q2153.28 200.689 2153.28 204.022 Q2153.28 209.138 2149.77 211.939 Q2146.25 214.74 2139.77 214.74 Q2137.59 214.74 2135.28 214.3 Q2132.98 213.883 2130.53 213.027 L2130.53 208.513 Q2132.47 209.647 2134.79 210.226 Q2137.1 210.805 2139.63 210.805 Q2144.03 210.805 2146.32 209.069 Q2148.63 207.333 2148.63 204.022 Q2148.63 200.967 2146.48 199.254 Q2144.35 197.518 2140.53 197.518 L2136.5 197.518 L2136.5 193.675 L2140.72 193.675 Q2144.16 193.675 2145.99 192.309 Q2147.82 190.921 2147.82 188.328 Q2147.82 185.666 2145.92 184.254 Q2144.05 182.819 2140.53 182.819 Q2138.61 182.819 2136.41 183.235 Q2134.21 183.652 2131.57 184.532 L2131.57 180.365 Q2134.23 179.624 2136.55 179.254 Q2138.89 178.884 2140.95 178.884 Q2146.27 178.884 2149.37 181.314 Q2152.47 183.722 2152.47 187.842 Q2152.47 190.712 2150.83 192.703 Q2149.19 194.671 2146.16 195.434 Z" fill="#000000" fill-rule="evenodd" fill-opacity="1" /><path clip-path="url(#clip070)" d="M2176.32 195.434 Q2179.67 196.152 2181.55 198.421 Q2183.45 200.689 2183.45 204.022 Q2183.45 209.138 2179.93 211.939 Q2176.41 214.74 2169.93 214.74 Q2167.75 214.74 2165.44 214.3 Q2163.15 213.883 2160.69 213.027 L2160.69 208.513 Q2162.64 209.647 2164.95 210.226 Q2167.27 210.805 2169.79 210.805 Q2174.19 210.805 2176.48 209.069 Q2178.79 207.333 2178.79 204.022 Q2178.79 200.967 2176.64 199.254 Q2174.51 197.518 2170.69 197.518 L2166.66 197.518 L2166.66 193.675 L2170.88 193.675 Q2174.33 193.675 2176.16 192.309 Q2177.98 190.921 2177.98 188.328 Q2177.98 185.666 2176.09 184.254 Q2174.21 182.819 2170.69 182.819 Q2168.77 182.819 2166.57 183.235 Q2164.37 183.652 2161.73 184.532 L2161.73 180.365 Q2164.4 179.624 2166.71 179.254 Q2169.05 178.884 2171.11 178.884 Q2176.43 178.884 2179.53 181.314 Q2182.64 183.722 2182.64 187.842 Q2182.64 190.712 2180.99 192.703 Q2179.35 194.671 2176.32 195.434 Z" fill="#000000" fill-rule="evenodd" fill-opacity="1" /><path clip-path="url(#clip070)" d="M2191.04 178.097 L2194.74 178.097 Q2198.22 183.56 2199.93 188.791 Q2201.66 194.022 2201.66 199.184 Q2201.66 204.37 2199.93 209.624 Q2198.22 214.879 2194.74 220.319 L2191.04 220.319 Q2194.12 215.018 2195.62 209.786 Q2197.15 204.532 2197.15 199.184 Q2197.15 193.837 2195.62 188.629 Q2194.12 183.421 2191.04 178.097 Z" fill="#000000" fill-rule="evenodd" fill-opacity="1" /><polyline clip-path="url(#clip070)" style="stroke:#3da44d; stroke-linecap:butt; stroke-linejoin:round; stroke-width:4; stroke-opacity:1; fill:none" points="
  1581.03,248.629 1724.95,248.629 
  "/>
<path clip-path="url(#clip070)" d="M1769.28 244.96 Q1770.88 242.089 1773.1 240.724 Q1775.32 239.358 1778.33 239.358 Q1782.38 239.358 1784.58 242.205 Q1786.78 245.029 1786.78 250.261 L1786.78 265.909 L1782.5 265.909 L1782.5 250.399 Q1782.5 246.673 1781.18 244.867 Q1779.86 243.062 1777.15 243.062 Q1773.84 243.062 1771.92 245.261 Q1770 247.46 1770 251.256 L1770 265.909 L1765.72 265.909 L1765.72 250.399 Q1765.72 246.649 1764.4 244.867 Q1763.08 243.062 1760.32 243.062 Q1757.06 243.062 1755.14 245.284 Q1753.22 247.483 1753.22 251.256 L1753.22 265.909 L1748.94 265.909 L1748.94 239.983 L1753.22 239.983 L1753.22 244.011 Q1754.68 241.626 1756.71 240.492 Q1758.75 239.358 1761.55 239.358 Q1764.37 239.358 1766.34 240.793 Q1768.33 242.228 1769.28 244.96 Z" fill="#000000" fill-rule="evenodd" fill-opacity="1" /><path clip-path="url(#clip070)" d="M1807.06 252.876 Q1801.9 252.876 1799.91 254.057 Q1797.92 255.237 1797.92 258.085 Q1797.92 260.353 1799.4 261.696 Q1800.9 263.015 1803.47 263.015 Q1807.01 263.015 1809.14 260.515 Q1811.3 257.992 1811.3 253.825 L1811.3 252.876 L1807.06 252.876 M1815.56 251.117 L1815.56 265.909 L1811.3 265.909 L1811.3 261.973 Q1809.84 264.335 1807.66 265.469 Q1805.49 266.58 1802.34 266.58 Q1798.36 266.58 1796 264.358 Q1793.66 262.112 1793.66 258.362 Q1793.66 253.987 1796.57 251.765 Q1799.51 249.543 1805.32 249.543 L1811.3 249.543 L1811.3 249.126 Q1811.3 246.187 1809.35 244.589 Q1807.43 242.969 1803.93 242.969 Q1801.71 242.969 1799.61 243.501 Q1797.5 244.034 1795.56 245.099 L1795.56 241.163 Q1797.89 240.261 1800.09 239.821 Q1802.29 239.358 1804.37 239.358 Q1810 239.358 1812.78 242.274 Q1815.56 245.191 1815.56 251.117 Z" fill="#000000" fill-rule="evenodd" fill-opacity="1" /><path clip-path="url(#clip070)" d="M1840.86 240.747 L1840.86 244.774 Q1839.05 243.849 1837.11 243.386 Q1835.16 242.923 1833.08 242.923 Q1829.91 242.923 1828.31 243.895 Q1826.74 244.867 1826.74 246.811 Q1826.74 248.293 1827.87 249.149 Q1829 249.983 1832.43 250.747 L1833.89 251.071 Q1838.43 252.043 1840.32 253.825 Q1842.24 255.585 1842.24 258.756 Q1842.24 262.367 1839.37 264.473 Q1836.53 266.58 1831.53 266.58 Q1829.44 266.58 1827.18 266.163 Q1824.93 265.77 1822.43 264.96 L1822.43 260.561 Q1824.79 261.788 1827.08 262.413 Q1829.37 263.015 1831.62 263.015 Q1834.63 263.015 1836.25 261.997 Q1837.87 260.955 1837.87 259.08 Q1837.87 257.344 1836.69 256.418 Q1835.53 255.492 1831.57 254.636 L1830.09 254.288 Q1826.13 253.455 1824.37 251.742 Q1822.62 250.006 1822.62 246.997 Q1822.62 243.339 1825.21 241.349 Q1827.8 239.358 1832.57 239.358 Q1834.93 239.358 1837.01 239.705 Q1839.1 240.052 1840.86 240.747 Z" fill="#000000" fill-rule="evenodd" fill-opacity="1" /><path clip-path="url(#clip070)" d="M1865.55 240.747 L1865.55 244.774 Q1863.75 243.849 1861.8 243.386 Q1859.86 242.923 1857.78 242.923 Q1854.61 242.923 1853.01 243.895 Q1851.43 244.867 1851.43 246.811 Q1851.43 248.293 1852.57 249.149 Q1853.7 249.983 1857.13 250.747 L1858.59 251.071 Q1863.12 252.043 1865.02 253.825 Q1866.94 255.585 1866.94 258.756 Q1866.94 262.367 1864.07 264.473 Q1861.23 266.58 1856.23 266.58 Q1854.14 266.58 1851.87 266.163 Q1849.63 265.77 1847.13 264.96 L1847.13 260.561 Q1849.49 261.788 1851.78 262.413 Q1854.07 263.015 1856.32 263.015 Q1859.33 263.015 1860.95 261.997 Q1862.57 260.955 1862.57 259.08 Q1862.57 257.344 1861.39 256.418 Q1860.23 255.492 1856.27 254.636 L1854.79 254.288 Q1850.83 253.455 1849.07 251.742 Q1847.31 250.006 1847.31 246.997 Q1847.31 243.339 1849.91 241.349 Q1852.5 239.358 1857.27 239.358 Q1859.63 239.358 1861.71 239.705 Q1863.8 240.052 1865.55 240.747 Z" fill="#000000" fill-rule="evenodd" fill-opacity="1" /><path clip-path="url(#clip070)" d="M1874.33 260.029 L1879.21 260.029 L1879.21 265.909 L1874.33 265.909 L1874.33 260.029 Z" fill="#000000" fill-rule="evenodd" fill-opacity="1" /><path clip-path="url(#clip070)" d="M1900.58 252.876 Q1895.42 252.876 1893.43 254.057 Q1891.43 255.237 1891.43 258.085 Q1891.43 260.353 1892.92 261.696 Q1894.42 263.015 1896.99 263.015 Q1900.53 263.015 1902.66 260.515 Q1904.81 257.992 1904.81 253.825 L1904.81 252.876 L1900.58 252.876 M1909.07 251.117 L1909.07 265.909 L1904.81 265.909 L1904.81 261.973 Q1903.36 264.335 1901.18 265.469 Q1899 266.58 1895.86 266.58 Q1891.87 266.58 1889.51 264.358 Q1887.18 262.112 1887.18 258.362 Q1887.18 253.987 1890.09 251.765 Q1893.03 249.543 1898.84 249.543 L1904.81 249.543 L1904.81 249.126 Q1904.81 246.187 1902.87 244.589 Q1900.95 242.969 1897.45 242.969 Q1895.23 242.969 1893.12 243.501 Q1891.02 244.034 1889.07 245.099 L1889.07 241.163 Q1891.41 240.261 1893.61 239.821 Q1895.81 239.358 1897.89 239.358 Q1903.52 239.358 1906.3 242.274 Q1909.07 245.191 1909.07 251.117 Z" fill="#000000" fill-rule="evenodd" fill-opacity="1" /><path clip-path="url(#clip070)" d="M1943.15 229.937 Q1940.05 235.261 1938.54 240.469 Q1937.04 245.677 1937.04 251.024 Q1937.04 256.372 1938.54 261.626 Q1940.07 266.858 1943.15 272.159 L1939.44 272.159 Q1935.97 266.719 1934.24 261.464 Q1932.52 256.21 1932.52 251.024 Q1932.52 245.862 1934.24 240.631 Q1935.95 235.4 1939.44 229.937 L1943.15 229.937 Z" fill="#000000" fill-rule="evenodd" fill-opacity="1" /><path clip-path="url(#clip070)" d="M1952.06 231.349 L1970.42 231.349 L1970.42 235.284 L1956.34 235.284 L1956.34 243.756 Q1957.36 243.409 1958.38 243.247 Q1959.4 243.062 1960.42 243.062 Q1966.2 243.062 1969.58 246.233 Q1972.96 249.404 1972.96 254.821 Q1972.96 260.399 1969.49 263.501 Q1966.02 266.58 1959.7 266.58 Q1957.52 266.58 1955.25 266.21 Q1953.01 265.839 1950.6 265.098 L1950.6 260.399 Q1952.68 261.534 1954.91 262.089 Q1957.13 262.645 1959.61 262.645 Q1963.61 262.645 1965.95 260.538 Q1968.29 258.432 1968.29 254.821 Q1968.29 251.21 1965.95 249.103 Q1963.61 246.997 1959.61 246.997 Q1957.73 246.997 1955.86 247.413 Q1954 247.83 1952.06 248.71 L1952.06 231.349 Z" fill="#000000" fill-rule="evenodd" fill-opacity="1" /><path clip-path="url(#clip070)" d="M1992.17 249.497 Q1988.84 249.497 1986.92 251.279 Q1985.02 253.061 1985.02 256.186 Q1985.02 259.311 1986.92 261.094 Q1988.84 262.876 1992.17 262.876 Q1995.51 262.876 1997.43 261.094 Q1999.35 259.288 1999.35 256.186 Q1999.35 253.061 1997.43 251.279 Q1995.53 249.497 1992.17 249.497 M1987.5 247.506 Q1984.49 246.765 1982.8 244.705 Q1981.13 242.645 1981.13 239.682 Q1981.13 235.538 1984.07 233.131 Q1987.04 230.724 1992.17 230.724 Q1997.34 230.724 2000.28 233.131 Q2003.22 235.538 2003.22 239.682 Q2003.22 242.645 2001.53 244.705 Q1999.86 246.765 1996.87 247.506 Q2000.25 248.293 2002.13 250.585 Q2004.03 252.876 2004.03 256.186 Q2004.03 261.21 2000.95 263.895 Q1997.89 266.58 1992.17 266.58 Q1986.46 266.58 1983.38 263.895 Q1980.32 261.21 1980.32 256.186 Q1980.32 252.876 1982.22 250.585 Q1984.12 248.293 1987.5 247.506 M1985.79 240.122 Q1985.79 242.807 1987.45 244.312 Q1989.14 245.816 1992.17 245.816 Q1995.18 245.816 1996.87 244.312 Q1998.59 242.807 1998.59 240.122 Q1998.59 237.437 1996.87 235.932 Q1995.18 234.427 1992.17 234.427 Q1989.14 234.427 1987.45 235.932 Q1985.79 237.437 1985.79 240.122 Z" fill="#000000" fill-rule="evenodd" fill-opacity="1" /><path clip-path="url(#clip070)" d="M2011.16 231.349 L2033.38 231.349 L2033.38 233.339 L2020.83 265.909 L2015.95 265.909 L2027.75 235.284 L2011.16 235.284 L2011.16 231.349 Z" fill="#000000" fill-rule="evenodd" fill-opacity="1" /><path clip-path="url(#clip070)" d="M2046.53 261.973 L2062.85 261.973 L2062.85 265.909 L2040.9 265.909 L2040.9 261.973 Q2043.56 259.219 2048.15 254.589 Q2052.75 249.936 2053.93 248.594 Q2056.18 246.071 2057.06 244.335 Q2057.96 242.575 2057.96 240.886 Q2057.96 238.131 2056.02 236.395 Q2054.1 234.659 2050.99 234.659 Q2048.79 234.659 2046.34 235.423 Q2043.91 236.187 2041.13 237.737 L2041.13 233.015 Q2043.96 231.881 2046.41 231.302 Q2048.86 230.724 2050.9 230.724 Q2056.27 230.724 2059.47 233.409 Q2062.66 236.094 2062.66 240.585 Q2062.66 242.714 2061.85 244.636 Q2061.06 246.534 2058.96 249.126 Q2058.38 249.798 2055.28 253.015 Q2052.17 256.21 2046.53 261.973 Z" fill="#000000" fill-rule="evenodd" fill-opacity="1" /><path clip-path="url(#clip070)" d="M2082.66 234.427 Q2079.05 234.427 2077.22 237.992 Q2075.41 241.534 2075.41 248.663 Q2075.41 255.77 2077.22 259.335 Q2079.05 262.876 2082.66 262.876 Q2086.29 262.876 2088.1 259.335 Q2089.93 255.77 2089.93 248.663 Q2089.93 241.534 2088.1 237.992 Q2086.29 234.427 2082.66 234.427 M2082.66 230.724 Q2088.47 230.724 2091.53 235.33 Q2094.6 239.913 2094.6 248.663 Q2094.6 257.39 2091.53 261.997 Q2088.47 266.58 2082.66 266.58 Q2076.85 266.58 2073.77 261.997 Q2070.72 257.39 2070.72 248.663 Q2070.72 239.913 2073.77 235.33 Q2076.85 230.724 2082.66 230.724 Z" fill="#000000" fill-rule="evenodd" fill-opacity="1" /><path clip-path="url(#clip070)" d="M2106.85 261.973 L2123.17 261.973 L2123.17 265.909 L2101.22 265.909 L2101.22 261.973 Q2103.89 259.219 2108.47 254.589 Q2113.08 249.936 2114.26 248.594 Q2116.5 246.071 2117.38 244.335 Q2118.29 242.575 2118.29 240.886 Q2118.29 238.131 2116.34 236.395 Q2114.42 234.659 2111.32 234.659 Q2109.12 234.659 2106.66 235.423 Q2104.23 236.187 2101.46 237.737 L2101.46 233.015 Q2104.28 231.881 2106.73 231.302 Q2109.19 230.724 2111.22 230.724 Q2116.6 230.724 2119.79 233.409 Q2122.98 236.094 2122.98 240.585 Q2122.98 242.714 2122.17 244.636 Q2121.39 246.534 2119.28 249.126 Q2118.7 249.798 2115.6 253.015 Q2112.5 256.21 2106.85 261.973 Z" fill="#000000" fill-rule="evenodd" fill-opacity="1" /><path clip-path="url(#clip070)" d="M2133.03 231.349 L2151.39 231.349 L2151.39 235.284 L2137.31 235.284 L2137.31 243.756 Q2138.33 243.409 2139.35 243.247 Q2140.37 243.062 2141.39 243.062 Q2147.17 243.062 2150.55 246.233 Q2153.93 249.404 2153.93 254.821 Q2153.93 260.399 2150.46 263.501 Q2146.99 266.58 2140.67 266.58 Q2138.49 266.58 2136.22 266.21 Q2133.98 265.839 2131.57 265.098 L2131.57 260.399 Q2133.66 261.534 2135.88 262.089 Q2138.1 262.645 2140.58 262.645 Q2144.58 262.645 2146.92 260.538 Q2149.26 258.432 2149.26 254.821 Q2149.26 251.21 2146.92 249.103 Q2144.58 246.997 2140.58 246.997 Q2138.7 246.997 2136.83 247.413 Q2134.97 247.83 2133.03 248.71 L2133.03 231.349 Z" fill="#000000" fill-rule="evenodd" fill-opacity="1" /><path clip-path="url(#clip070)" d="M2173.72 246.765 Q2170.58 246.765 2168.72 248.918 Q2166.9 251.071 2166.9 254.821 Q2166.9 258.548 2168.72 260.723 Q2170.58 262.876 2173.72 262.876 Q2176.87 262.876 2178.7 260.723 Q2180.55 258.548 2180.55 254.821 Q2180.55 251.071 2178.7 248.918 Q2176.87 246.765 2173.72 246.765 M2183.01 232.113 L2183.01 236.372 Q2181.25 235.538 2179.44 235.099 Q2177.66 234.659 2175.9 234.659 Q2171.27 234.659 2168.82 237.784 Q2166.39 240.909 2166.04 247.228 Q2167.41 245.214 2169.47 244.149 Q2171.53 243.062 2174 243.062 Q2179.21 243.062 2182.22 246.233 Q2185.25 249.381 2185.25 254.821 Q2185.25 260.145 2182.1 263.362 Q2178.96 266.58 2173.72 266.58 Q2167.73 266.58 2164.56 261.997 Q2161.39 257.39 2161.39 248.663 Q2161.39 240.469 2165.28 235.608 Q2169.16 230.724 2175.72 230.724 Q2177.47 230.724 2179.26 231.071 Q2181.06 231.418 2183.01 232.113 Z" fill="#000000" fill-rule="evenodd" fill-opacity="1" /><path clip-path="url(#clip070)" d="M2194.12 261.973 L2201.76 261.973 L2201.76 235.608 L2193.45 237.275 L2193.45 233.015 L2201.71 231.349 L2206.39 231.349 L2206.39 261.973 L2214.03 261.973 L2214.03 265.909 L2194.12 265.909 L2194.12 261.973 Z" fill="#000000" fill-rule="evenodd" fill-opacity="1" /><path clip-path="url(#clip070)" d="M2222.2 229.937 L2225.9 229.937 Q2229.37 235.4 2231.09 240.631 Q2232.82 245.862 2232.82 251.024 Q2232.82 256.21 2231.09 261.464 Q2229.37 266.719 2225.9 272.159 L2222.2 272.159 Q2225.28 266.858 2226.78 261.626 Q2228.31 256.372 2228.31 251.024 Q2228.31 245.677 2226.78 240.469 Q2225.28 235.261 2222.2 229.937 Z" fill="#000000" fill-rule="evenodd" fill-opacity="1" /></svg>
