<?xml version="1.0" encoding="utf-8"?>
<svg xmlns="http://www.w3.org/2000/svg" xmlns:xlink="http://www.w3.org/1999/xlink" width="600" height="400" viewBox="0 0 2400 1600">
<defs>
  <clipPath id="clip550">
    <rect x="0" y="0" width="2400" height="1600"/>
  </clipPath>
</defs>
<path clip-path="url(#clip550)" d="
M0 1600 L2400 1600 L2400 0 L0 0  Z
  " fill="#ffffff" fill-rule="evenodd" fill-opacity="1"/>
<defs>
  <clipPath id="clip551">
    <rect x="480" y="0" width="1681" height="1600"/>
  </clipPath>
</defs>
<path clip-path="url(#clip550)" d="
M359.267 1401.58 L2352.76 1401.58 L2352.76 123.472 L359.267 123.472  Z
  " fill="#ffffff" fill-rule="evenodd" fill-opacity="1"/>
<defs>
  <clipPath id="clip552">
    <rect x="359" y="123" width="1994" height="1279"/>
  </clipPath>
</defs>
<polyline clip-path="url(#clip552)" style="stroke:#000000; stroke-linecap:butt; stroke-linejoin:round; stroke-width:2; stroke-opacity:0.1; fill:none" points="
  415.686,1401.58 415.686,123.472 
  "/>
<polyline clip-path="url(#clip552)" style="stroke:#000000; stroke-linecap:butt; stroke-linejoin:round; stroke-width:2; stroke-opacity:0.1; fill:none" points="
  885.849,1401.58 885.849,123.472 
  "/>
<polyline clip-path="url(#clip552)" style="stroke:#000000; stroke-linecap:butt; stroke-linejoin:round; stroke-width:2; stroke-opacity:0.1; fill:none" points="
  1356.01,1401.58 1356.01,123.472 
  "/>
<polyline clip-path="url(#clip552)" style="stroke:#000000; stroke-linecap:butt; stroke-linejoin:round; stroke-width:2; stroke-opacity:0.1; fill:none" points="
  1826.17,1401.58 1826.17,123.472 
  "/>
<polyline clip-path="url(#clip552)" style="stroke:#000000; stroke-linecap:butt; stroke-linejoin:round; stroke-width:2; stroke-opacity:0.1; fill:none" points="
  2296.34,1401.58 2296.34,123.472 
  "/>
<polyline clip-path="url(#clip550)" style="stroke:#000000; stroke-linecap:butt; stroke-linejoin:round; stroke-width:4; stroke-opacity:1; fill:none" points="
  359.267,1401.58 2352.76,1401.58 
  "/>
<polyline clip-path="url(#clip550)" style="stroke:#000000; stroke-linecap:butt; stroke-linejoin:round; stroke-width:4; stroke-opacity:1; fill:none" points="
  415.686,1401.58 415.686,1382.68 
  "/>
<polyline clip-path="url(#clip550)" style="stroke:#000000; stroke-linecap:butt; stroke-linejoin:round; stroke-width:4; stroke-opacity:1; fill:none" points="
  885.849,1401.58 885.849,1382.68 
  "/>
<polyline clip-path="url(#clip550)" style="stroke:#000000; stroke-linecap:butt; stroke-linejoin:round; stroke-width:4; stroke-opacity:1; fill:none" points="
  1356.01,1401.58 1356.01,1382.68 
  "/>
<polyline clip-path="url(#clip550)" style="stroke:#000000; stroke-linecap:butt; stroke-linejoin:round; stroke-width:4; stroke-opacity:1; fill:none" points="
  1826.17,1401.58 1826.17,1382.68 
  "/>
<polyline clip-path="url(#clip550)" style="stroke:#000000; stroke-linecap:butt; stroke-linejoin:round; stroke-width:4; stroke-opacity:1; fill:none" points="
  2296.34,1401.58 2296.34,1382.68 
  "/>
<path clip-path="url(#clip550)" d="M415.686 1438.36 Q410.269 1438.36 407.526 1443.71 Q404.818 1449.02 404.818 1459.71 Q404.818 1470.37 407.526 1475.72 Q410.269 1481.03 415.686 1481.03 Q421.137 1481.03 423.846 1475.72 Q426.589 1470.37 426.589 1459.71 Q426.589 1449.02 423.846 1443.71 Q421.137 1438.36 415.686 1438.36 M415.686 1432.8 Q424.401 1432.8 428.985 1439.71 Q433.603 1446.59 433.603 1459.71 Q433.603 1472.8 428.985 1479.71 Q424.401 1486.59 415.686 1486.59 Q406.971 1486.59 402.353 1479.71 Q397.769 1472.8 397.769 1459.71 Q397.769 1446.59 402.353 1439.71 Q406.971 1432.8 415.686 1432.8 Z" fill="#000000" fill-rule="evenodd" fill-opacity="1" /><path clip-path="url(#clip550)" d="M871.422 1479.68 L882.88 1479.68 L882.88 1440.13 L870.415 1442.63 L870.415 1436.24 L882.81 1433.74 L889.824 1433.74 L889.824 1479.68 L901.283 1479.68 L901.283 1485.58 L871.422 1485.58 L871.422 1479.68 Z" fill="#000000" fill-rule="evenodd" fill-opacity="1" /><path clip-path="url(#clip550)" d="M1347.99 1479.68 L1372.47 1479.68 L1372.47 1485.58 L1339.55 1485.58 L1339.55 1479.68 Q1343.55 1475.55 1350.42 1468.6 Q1357.33 1461.62 1359.1 1459.61 Q1362.47 1455.82 1363.79 1453.22 Q1365.14 1450.58 1365.14 1448.05 Q1365.14 1443.91 1362.23 1441.31 Q1359.34 1438.71 1354.69 1438.71 Q1351.39 1438.71 1347.71 1439.85 Q1344.07 1441 1339.9 1443.32 L1339.9 1436.24 Q1344.14 1434.54 1347.82 1433.67 Q1351.5 1432.8 1354.55 1432.8 Q1362.61 1432.8 1367.4 1436.83 Q1372.19 1440.86 1372.19 1447.59 Q1372.19 1450.79 1370.98 1453.67 Q1369.8 1456.52 1366.64 1460.41 Q1365.77 1461.41 1361.12 1466.24 Q1356.46 1471.03 1347.99 1479.68 Z" fill="#000000" fill-rule="evenodd" fill-opacity="1" /><path clip-path="url(#clip550)" d="M1832.55 1457.63 Q1837.58 1458.7 1840.39 1462.11 Q1843.24 1465.51 1843.24 1470.51 Q1843.24 1478.18 1837.96 1482.39 Q1832.68 1486.59 1822.96 1486.59 Q1819.7 1486.59 1816.23 1485.93 Q1812.79 1485.3 1809.11 1484.02 L1809.11 1477.25 Q1812.02 1478.95 1815.5 1479.82 Q1818.97 1480.68 1822.75 1480.68 Q1829.35 1480.68 1832.79 1478.08 Q1836.26 1475.48 1836.26 1470.51 Q1836.26 1465.93 1833.03 1463.36 Q1829.84 1460.75 1824.11 1460.75 L1818.07 1460.75 L1818.07 1454.99 L1824.39 1454.99 Q1829.56 1454.99 1832.3 1452.94 Q1835.05 1450.86 1835.05 1446.97 Q1835.05 1442.98 1832.2 1440.86 Q1829.39 1438.71 1824.11 1438.71 Q1821.23 1438.71 1817.93 1439.33 Q1814.63 1439.96 1810.67 1441.27 L1810.67 1435.02 Q1814.66 1433.91 1818.14 1433.36 Q1821.64 1432.8 1824.73 1432.8 Q1832.72 1432.8 1837.37 1436.45 Q1842.02 1440.06 1842.02 1446.24 Q1842.02 1450.55 1839.56 1453.53 Q1837.09 1456.48 1832.55 1457.63 Z" fill="#000000" fill-rule="evenodd" fill-opacity="1" /><path clip-path="url(#clip550)" d="M2300.85 1439.85 L2283.14 1467.52 L2300.85 1467.52 L2300.85 1439.85 M2299.01 1433.74 L2307.83 1433.74 L2307.83 1467.52 L2315.23 1467.52 L2315.23 1473.36 L2307.83 1473.36 L2307.83 1485.58 L2300.85 1485.58 L2300.85 1473.36 L2277.45 1473.36 L2277.45 1466.59 L2299.01 1433.74 Z" fill="#000000" fill-rule="evenodd" fill-opacity="1" /><path clip-path="url(#clip550)" d="M1299.62 1527.62 L1299.62 1538.66 L1312.78 1538.66 L1312.78 1543.62 L1299.62 1543.62 L1299.62 1564.74 Q1299.62 1569.49 1300.91 1570.85 Q1302.23 1572.2 1306.22 1572.2 L1312.78 1572.2 L1312.78 1577.55 L1306.22 1577.55 Q1298.82 1577.55 1296.01 1574.8 Q1293.2 1572.03 1293.2 1564.74 L1293.2 1543.62 L1288.51 1543.62 L1288.51 1538.66 L1293.2 1538.66 L1293.2 1527.62 L1299.62 1527.62 Z" fill="#000000" fill-rule="evenodd" fill-opacity="1" /><path clip-path="url(#clip550)" d="M1343.2 1523.52 L1357.92 1523.52 L1357.92 1528.49 L1349.59 1528.49 L1349.59 1581.96 L1357.92 1581.96 L1357.92 1586.92 L1343.2 1586.92 L1343.2 1523.52 Z" fill="#000000" fill-rule="evenodd" fill-opacity="1" /><path clip-path="url(#clip550)" d="M1396.32 1539.8 L1396.32 1545.85 Q1393.62 1544.46 1390.7 1543.76 Q1387.78 1543.07 1384.66 1543.07 Q1379.9 1543.07 1377.5 1544.53 Q1375.14 1545.99 1375.14 1548.9 Q1375.14 1551.12 1376.84 1552.41 Q1378.55 1553.66 1383.68 1554.8 L1385.87 1555.29 Q1392.68 1556.75 1395.52 1559.42 Q1398.41 1562.06 1398.41 1566.82 Q1398.41 1572.24 1394.1 1575.4 Q1389.83 1578.55 1382.33 1578.55 Q1379.21 1578.55 1375.8 1577.93 Q1372.43 1577.34 1368.68 1576.12 L1368.68 1569.53 Q1372.23 1571.37 1375.66 1572.3 Q1379.1 1573.21 1382.47 1573.21 Q1386.98 1573.21 1389.41 1571.68 Q1391.84 1570.12 1391.84 1567.3 Q1391.84 1564.7 1390.07 1563.31 Q1388.34 1561.92 1382.4 1560.64 L1380.18 1560.12 Q1374.24 1558.87 1371.6 1556.3 Q1368.96 1553.69 1368.96 1549.18 Q1368.96 1543.69 1372.85 1540.71 Q1376.74 1537.72 1383.89 1537.72 Q1387.43 1537.72 1390.56 1538.24 Q1393.68 1538.76 1396.32 1539.8 Z" fill="#000000" fill-rule="evenodd" fill-opacity="1" /><path clip-path="url(#clip550)" d="M1423.51 1523.52 L1423.51 1586.92 L1408.79 1586.92 L1408.79 1581.96 L1417.09 1581.96 L1417.09 1528.49 L1408.79 1528.49 L1408.79 1523.52 L1423.51 1523.52 Z" fill="#000000" fill-rule="evenodd" fill-opacity="1" /><polyline clip-path="url(#clip552)" style="stroke:#000000; stroke-linecap:butt; stroke-linejoin:round; stroke-width:2; stroke-opacity:0.1; fill:none" points="
  359.267,1258.92 2352.76,1258.92 
  "/>
<polyline clip-path="url(#clip552)" style="stroke:#000000; stroke-linecap:butt; stroke-linejoin:round; stroke-width:2; stroke-opacity:0.1; fill:none" points="
  359.267,1005.24 2352.76,1005.24 
  "/>
<polyline clip-path="url(#clip552)" style="stroke:#000000; stroke-linecap:butt; stroke-linejoin:round; stroke-width:2; stroke-opacity:0.1; fill:none" points="
  359.267,751.563 2352.76,751.563 
  "/>
<polyline clip-path="url(#clip552)" style="stroke:#000000; stroke-linecap:butt; stroke-linejoin:round; stroke-width:2; stroke-opacity:0.1; fill:none" points="
  359.267,497.884 2352.76,497.884 
  "/>
<polyline clip-path="url(#clip552)" style="stroke:#000000; stroke-linecap:butt; stroke-linejoin:round; stroke-width:2; stroke-opacity:0.1; fill:none" points="
  359.267,244.205 2352.76,244.205 
  "/>
<polyline clip-path="url(#clip550)" style="stroke:#000000; stroke-linecap:butt; stroke-linejoin:round; stroke-width:4; stroke-opacity:1; fill:none" points="
  359.267,1401.58 359.267,123.472 
  "/>
<polyline clip-path="url(#clip550)" style="stroke:#000000; stroke-linecap:butt; stroke-linejoin:round; stroke-width:4; stroke-opacity:1; fill:none" points="
  359.267,1258.92 378.164,1258.92 
  "/>
<polyline clip-path="url(#clip550)" style="stroke:#000000; stroke-linecap:butt; stroke-linejoin:round; stroke-width:4; stroke-opacity:1; fill:none" points="
  359.267,1005.24 378.164,1005.24 
  "/>
<polyline clip-path="url(#clip550)" style="stroke:#000000; stroke-linecap:butt; stroke-linejoin:round; stroke-width:4; stroke-opacity:1; fill:none" points="
  359.267,751.563 378.164,751.563 
  "/>
<polyline clip-path="url(#clip550)" style="stroke:#000000; stroke-linecap:butt; stroke-linejoin:round; stroke-width:4; stroke-opacity:1; fill:none" points="
  359.267,497.884 378.164,497.884 
  "/>
<polyline clip-path="url(#clip550)" style="stroke:#000000; stroke-linecap:butt; stroke-linejoin:round; stroke-width:4; stroke-opacity:1; fill:none" points="
  359.267,244.205 378.164,244.205 
  "/>
<path clip-path="url(#clip550)" d="M118.58 1259.6 L163.094 1259.6 L163.094 1265.5 L118.58 1265.5 L118.58 1259.6 Z" fill="#000000" fill-rule="evenodd" fill-opacity="1" /><path clip-path="url(#clip550)" d="M193.233 1237.62 Q187.816 1237.62 185.073 1242.97 Q182.365 1248.28 182.365 1258.97 Q182.365 1269.63 185.073 1274.98 Q187.816 1280.29 193.233 1280.29 Q198.684 1280.29 201.392 1274.98 Q204.135 1269.63 204.135 1258.97 Q204.135 1248.28 201.392 1242.97 Q198.684 1237.62 193.233 1237.62 M193.233 1232.06 Q201.948 1232.06 206.531 1238.97 Q211.149 1245.85 211.149 1258.97 Q211.149 1272.06 206.531 1278.97 Q201.948 1285.85 193.233 1285.85 Q184.517 1285.85 179.899 1278.97 Q175.316 1272.06 175.316 1258.97 Q175.316 1245.85 179.899 1238.97 Q184.517 1232.06 193.233 1232.06 Z" fill="#000000" fill-rule="evenodd" fill-opacity="1" /><path clip-path="url(#clip550)" d="M223.475 1276.02 L230.802 1276.02 L230.802 1284.84 L223.475 1284.84 L223.475 1276.02 Z" fill="#000000" fill-rule="evenodd" fill-opacity="1" /><path clip-path="url(#clip550)" d="M261.079 1237.62 Q255.663 1237.62 252.92 1242.97 Q250.211 1248.28 250.211 1258.97 Q250.211 1269.63 252.92 1274.98 Q255.663 1280.29 261.079 1280.29 Q266.531 1280.29 269.239 1274.98 Q271.982 1269.63 271.982 1258.97 Q271.982 1248.28 269.239 1242.97 Q266.531 1237.62 261.079 1237.62 M261.079 1232.06 Q269.795 1232.06 274.378 1238.97 Q278.996 1245.85 278.996 1258.97 Q278.996 1272.06 274.378 1278.97 Q269.795 1285.85 261.079 1285.85 Q252.364 1285.85 247.746 1278.97 Q243.163 1272.06 243.163 1258.97 Q243.163 1245.85 247.746 1238.97 Q252.364 1232.06 261.079 1232.06 Z" fill="#000000" fill-rule="evenodd" fill-opacity="1" /><path clip-path="url(#clip550)" d="M312.572 1256.89 Q317.607 1257.97 320.419 1261.37 Q323.267 1264.77 323.267 1269.77 Q323.267 1277.44 317.989 1281.65 Q312.711 1285.85 302.989 1285.85 Q299.725 1285.85 296.253 1285.19 Q292.815 1284.56 289.135 1283.28 L289.135 1276.51 Q292.051 1278.21 295.524 1279.08 Q298.996 1279.94 302.781 1279.94 Q309.378 1279.94 312.815 1277.34 Q316.287 1274.74 316.287 1269.77 Q316.287 1265.19 313.058 1262.62 Q309.864 1260.01 304.135 1260.01 L298.093 1260.01 L298.093 1254.25 L304.412 1254.25 Q309.586 1254.25 312.329 1252.2 Q315.072 1250.12 315.072 1246.23 Q315.072 1242.24 312.225 1240.12 Q309.412 1237.97 304.135 1237.97 Q301.253 1237.97 297.954 1238.59 Q294.656 1239.22 290.697 1240.54 L290.697 1234.29 Q294.69 1233.17 298.163 1232.62 Q301.669 1232.06 304.76 1232.06 Q312.746 1232.06 317.399 1235.71 Q322.051 1239.32 322.051 1245.5 Q322.051 1249.81 319.586 1252.79 Q317.121 1255.74 312.572 1256.89 Z" fill="#000000" fill-rule="evenodd" fill-opacity="1" /><path clip-path="url(#clip550)" d="M192.26 983.94 Q186.844 983.94 184.101 989.287 Q181.392 994.599 181.392 1005.29 Q181.392 1015.95 184.101 1021.3 Q186.844 1026.61 192.26 1026.61 Q197.712 1026.61 200.42 1021.3 Q203.163 1015.95 203.163 1005.29 Q203.163 994.599 200.42 989.287 Q197.712 983.94 192.26 983.94 M192.26 978.384 Q200.976 978.384 205.559 985.294 Q210.177 992.169 210.177 1005.29 Q210.177 1018.38 205.559 1025.29 Q200.976 1032.17 192.26 1032.17 Q183.545 1032.17 178.927 1025.29 Q174.344 1018.38 174.344 1005.29 Q174.344 992.169 178.927 985.294 Q183.545 978.384 192.26 978.384 Z" fill="#000000" fill-rule="evenodd" fill-opacity="1" /><path clip-path="url(#clip550)" d="M222.503 1022.34 L229.83 1022.34 L229.83 1031.16 L222.503 1031.16 L222.503 1022.34 Z" fill="#000000" fill-rule="evenodd" fill-opacity="1" /><path clip-path="url(#clip550)" d="M260.107 983.94 Q254.691 983.94 251.947 989.287 Q249.239 994.599 249.239 1005.29 Q249.239 1015.95 251.947 1021.3 Q254.691 1026.61 260.107 1026.61 Q265.559 1026.61 268.267 1021.3 Q271.01 1015.95 271.01 1005.29 Q271.01 994.599 268.267 989.287 Q265.559 983.94 260.107 983.94 M260.107 978.384 Q268.822 978.384 273.406 985.294 Q278.024 992.169 278.024 1005.29 Q278.024 1018.38 273.406 1025.29 Q268.822 1032.17 260.107 1032.17 Q251.392 1032.17 246.774 1025.29 Q242.191 1018.38 242.191 1005.29 Q242.191 992.169 246.774 985.294 Q251.392 978.384 260.107 978.384 Z" fill="#000000" fill-rule="evenodd" fill-opacity="1" /><path clip-path="url(#clip550)" d="M305.35 983.94 Q299.933 983.94 297.19 989.287 Q294.482 994.599 294.482 1005.29 Q294.482 1015.95 297.19 1021.3 Q299.933 1026.61 305.35 1026.61 Q310.801 1026.61 313.51 1021.3 Q316.253 1015.95 316.253 1005.29 Q316.253 994.599 313.51 989.287 Q310.801 983.94 305.35 983.94 M305.35 978.384 Q314.065 978.384 318.649 985.294 Q323.267 992.169 323.267 1005.29 Q323.267 1018.38 318.649 1025.29 Q314.065 1032.17 305.35 1032.17 Q296.635 1032.17 292.017 1025.29 Q287.433 1018.38 287.433 1005.29 Q287.433 992.169 292.017 985.294 Q296.635 978.384 305.35 978.384 Z" fill="#000000" fill-rule="evenodd" fill-opacity="1" /><path clip-path="url(#clip550)" d="M193.233 730.261 Q187.816 730.261 185.073 735.608 Q182.365 740.92 182.365 751.615 Q182.365 762.274 185.073 767.621 Q187.816 772.934 193.233 772.934 Q198.684 772.934 201.392 767.621 Q204.135 762.274 204.135 751.615 Q204.135 740.92 201.392 735.608 Q198.684 730.261 193.233 730.261 M193.233 724.705 Q201.948 724.705 206.531 731.615 Q211.149 738.49 211.149 751.615 Q211.149 764.705 206.531 771.615 Q201.948 778.489 193.233 778.489 Q184.517 778.489 179.899 771.615 Q175.316 764.705 175.316 751.615 Q175.316 738.49 179.899 731.615 Q184.517 724.705 193.233 724.705 Z" fill="#000000" fill-rule="evenodd" fill-opacity="1" /><path clip-path="url(#clip550)" d="M223.475 768.663 L230.802 768.663 L230.802 777.483 L223.475 777.483 L223.475 768.663 Z" fill="#000000" fill-rule="evenodd" fill-opacity="1" /><path clip-path="url(#clip550)" d="M261.079 730.261 Q255.663 730.261 252.92 735.608 Q250.211 740.92 250.211 751.615 Q250.211 762.274 252.92 767.621 Q255.663 772.934 261.079 772.934 Q266.531 772.934 269.239 767.621 Q271.982 762.274 271.982 751.615 Q271.982 740.92 269.239 735.608 Q266.531 730.261 261.079 730.261 M261.079 724.705 Q269.795 724.705 274.378 731.615 Q278.996 738.49 278.996 751.615 Q278.996 764.705 274.378 771.615 Q269.795 778.489 261.079 778.489 Q252.364 778.489 247.746 771.615 Q243.163 764.705 243.163 751.615 Q243.163 738.49 247.746 731.615 Q252.364 724.705 261.079 724.705 Z" fill="#000000" fill-rule="evenodd" fill-opacity="1" /><path clip-path="url(#clip550)" d="M312.572 749.531 Q317.607 750.608 320.419 754.01 Q323.267 757.413 323.267 762.413 Q323.267 770.087 317.989 774.288 Q312.711 778.489 302.989 778.489 Q299.725 778.489 296.253 777.83 Q292.815 777.205 289.135 775.92 L289.135 769.149 Q292.051 770.851 295.524 771.719 Q298.996 772.587 302.781 772.587 Q309.378 772.587 312.815 769.983 Q316.287 767.378 316.287 762.413 Q316.287 757.83 313.058 755.26 Q309.864 752.656 304.135 752.656 L298.093 752.656 L298.093 746.892 L304.412 746.892 Q309.586 746.892 312.329 744.844 Q315.072 742.761 315.072 738.872 Q315.072 734.879 312.225 732.761 Q309.412 730.608 304.135 730.608 Q301.253 730.608 297.954 731.233 Q294.656 731.858 290.697 733.177 L290.697 726.927 Q294.69 725.816 298.163 725.261 Q301.669 724.705 304.76 724.705 Q312.746 724.705 317.399 728.351 Q322.051 731.962 322.051 738.142 Q322.051 742.448 319.586 745.434 Q317.121 748.385 312.572 749.531 Z" fill="#000000" fill-rule="evenodd" fill-opacity="1" /><path clip-path="url(#clip550)" d="M192.017 476.582 Q186.601 476.582 183.858 481.929 Q181.149 487.241 181.149 497.936 Q181.149 508.595 183.858 513.943 Q186.601 519.255 192.017 519.255 Q197.469 519.255 200.177 513.943 Q202.92 508.595 202.92 497.936 Q202.92 487.241 200.177 481.929 Q197.469 476.582 192.017 476.582 M192.017 471.026 Q200.732 471.026 205.316 477.936 Q209.934 484.811 209.934 497.936 Q209.934 511.026 205.316 517.936 Q200.732 524.811 192.017 524.811 Q183.302 524.811 178.684 517.936 Q174.101 511.026 174.101 497.936 Q174.101 484.811 178.684 477.936 Q183.302 471.026 192.017 471.026 Z" fill="#000000" fill-rule="evenodd" fill-opacity="1" /><path clip-path="url(#clip550)" d="M222.26 514.984 L229.587 514.984 L229.587 523.804 L222.26 523.804 L222.26 514.984 Z" fill="#000000" fill-rule="evenodd" fill-opacity="1" /><path clip-path="url(#clip550)" d="M259.864 476.582 Q254.447 476.582 251.704 481.929 Q248.996 487.241 248.996 497.936 Q248.996 508.595 251.704 513.943 Q254.447 519.255 259.864 519.255 Q265.315 519.255 268.024 513.943 Q270.767 508.595 270.767 497.936 Q270.767 487.241 268.024 481.929 Q265.315 476.582 259.864 476.582 M259.864 471.026 Q268.579 471.026 273.163 477.936 Q277.781 484.811 277.781 497.936 Q277.781 511.026 273.163 517.936 Q268.579 524.811 259.864 524.811 Q251.149 524.811 246.531 517.936 Q241.948 511.026 241.948 497.936 Q241.948 484.811 246.531 477.936 Q251.149 471.026 259.864 471.026 Z" fill="#000000" fill-rule="evenodd" fill-opacity="1" /><path clip-path="url(#clip550)" d="M305.975 495.088 Q301.253 495.088 298.475 498.318 Q295.732 501.547 295.732 507.172 Q295.732 512.762 298.475 516.026 Q301.253 519.255 305.975 519.255 Q310.697 519.255 313.44 516.026 Q316.218 512.762 316.218 507.172 Q316.218 501.547 313.44 498.318 Q310.697 495.088 305.975 495.088 M319.899 473.109 L319.899 479.498 Q317.26 478.248 314.551 477.589 Q311.878 476.929 309.239 476.929 Q302.294 476.929 298.614 481.616 Q294.968 486.304 294.447 495.783 Q296.496 492.762 299.586 491.165 Q302.676 489.533 306.392 489.533 Q314.204 489.533 318.718 494.29 Q323.267 499.012 323.267 507.172 Q323.267 515.158 318.544 519.984 Q313.822 524.811 305.975 524.811 Q296.982 524.811 292.225 517.936 Q287.468 511.026 287.468 497.936 Q287.468 485.644 293.301 478.352 Q299.135 471.026 308.961 471.026 Q311.6 471.026 314.274 471.547 Q316.982 472.068 319.899 473.109 Z" fill="#000000" fill-rule="evenodd" fill-opacity="1" /><path clip-path="url(#clip550)" d="M192.538 222.903 Q187.121 222.903 184.378 228.25 Q181.67 233.562 181.67 244.257 Q181.67 254.916 184.378 260.264 Q187.121 265.576 192.538 265.576 Q197.989 265.576 200.698 260.264 Q203.441 254.916 203.441 244.257 Q203.441 233.562 200.698 228.25 Q197.989 222.903 192.538 222.903 M192.538 217.347 Q201.253 217.347 205.837 224.257 Q210.455 231.132 210.455 244.257 Q210.455 257.347 205.837 264.257 Q201.253 271.132 192.538 271.132 Q183.823 271.132 179.205 264.257 Q174.622 257.347 174.622 244.257 Q174.622 231.132 179.205 224.257 Q183.823 217.347 192.538 217.347 Z" fill="#000000" fill-rule="evenodd" fill-opacity="1" /><path clip-path="url(#clip550)" d="M222.781 261.305 L230.107 261.305 L230.107 270.125 L222.781 270.125 L222.781 261.305 Z" fill="#000000" fill-rule="evenodd" fill-opacity="1" /><path clip-path="url(#clip550)" d="M260.385 222.903 Q254.968 222.903 252.225 228.25 Q249.517 233.562 249.517 244.257 Q249.517 254.916 252.225 260.264 Q254.968 265.576 260.385 265.576 Q265.836 265.576 268.545 260.264 Q271.288 254.916 271.288 244.257 Q271.288 233.562 268.545 228.25 Q265.836 222.903 260.385 222.903 M260.385 217.347 Q269.1 217.347 273.683 224.257 Q278.302 231.132 278.302 244.257 Q278.302 257.347 273.683 264.257 Q269.1 271.132 260.385 271.132 Q251.67 271.132 247.052 264.257 Q242.468 257.347 242.468 244.257 Q242.468 231.132 247.052 224.257 Q251.67 217.347 260.385 217.347 Z" fill="#000000" fill-rule="evenodd" fill-opacity="1" /><path clip-path="url(#clip550)" d="M290.836 269.048 L290.836 262.659 Q293.475 263.909 296.183 264.569 Q298.892 265.229 301.496 265.229 Q308.44 265.229 312.086 260.576 Q315.767 255.889 316.287 246.375 Q314.274 249.361 311.183 250.958 Q308.093 252.555 304.343 252.555 Q296.565 252.555 292.017 247.868 Q287.503 243.146 287.503 234.986 Q287.503 227 292.225 222.174 Q296.947 217.347 304.794 217.347 Q313.787 217.347 318.51 224.257 Q323.267 231.132 323.267 244.257 Q323.267 256.514 317.433 263.84 Q311.635 271.132 301.808 271.132 Q299.169 271.132 296.461 270.611 Q293.753 270.09 290.836 269.048 M304.794 247.069 Q309.517 247.069 312.26 243.84 Q315.037 240.611 315.037 234.986 Q315.037 229.396 312.26 226.167 Q309.517 222.903 304.794 222.903 Q300.072 222.903 297.294 226.167 Q294.551 229.396 294.551 234.986 Q294.551 240.611 297.294 243.84 Q300.072 247.069 304.794 247.069 Z" fill="#000000" fill-rule="evenodd" fill-opacity="1" /><path clip-path="url(#clip550)" d="M34.0422 1042.44 L13.0007 1042.44 L13.0007 1036.05 L67.0282 1036.05 L67.0282 1042.44 L61.1949 1042.44 Q64.6671 1044.45 66.3684 1047.54 Q68.0351 1050.6 68.0351 1054.9 Q68.0351 1061.95 62.4101 1066.4 Q56.7852 1070.81 47.6185 1070.81 Q38.4519 1070.81 32.827 1066.4 Q27.202 1061.95 27.202 1054.9 Q27.202 1050.6 28.9034 1047.54 Q30.57 1044.45 34.0422 1042.44 M47.6185 1064.21 Q54.6671 1064.21 58.6949 1061.33 Q62.6879 1058.41 62.6879 1053.34 Q62.6879 1048.27 58.6949 1045.35 Q54.6671 1042.44 47.6185 1042.44 Q40.57 1042.44 36.5769 1045.35 Q32.5492 1048.27 32.5492 1053.34 Q32.5492 1058.41 36.5769 1061.33 Q40.57 1064.21 47.6185 1064.21 Z" fill="#000000" fill-rule="evenodd" fill-opacity="1" /><path clip-path="url(#clip550)" d="M28.1395 1022.89 L28.1395 1016.5 L67.0282 1016.5 L67.0282 1022.89 L28.1395 1022.89 M13.0007 1022.89 L13.0007 1016.5 L21.0909 1016.5 L21.0909 1022.89 L13.0007 1022.89 Z" fill="#000000" fill-rule="evenodd" fill-opacity="1" /><path clip-path="url(#clip550)" d="M29.2853 978.341 L35.3269 978.341 Q33.9381 981.049 33.2436 983.966 Q32.5492 986.882 32.5492 990.007 Q32.5492 994.764 34.0075 997.16 Q35.4658 999.521 38.3825 999.521 Q40.6047 999.521 41.8894 997.82 Q43.1394 996.118 44.2852 990.98 L44.7713 988.792 Q46.2297 981.987 48.9033 979.139 Q51.5421 976.257 56.299 976.257 Q61.7157 976.257 64.8754 980.563 Q68.0351 984.834 68.0351 992.334 Q68.0351 995.459 67.4101 998.862 Q66.8198 1002.23 65.6046 1005.98 L59.0074 1005.98 Q60.8476 1002.44 61.7851 999 Q62.6879 995.563 62.6879 992.195 Q62.6879 987.681 61.1601 985.25 Q59.5976 982.82 56.7852 982.82 Q54.181 982.82 52.7921 984.591 Q51.4032 986.327 50.1185 992.264 L49.5977 994.487 Q48.3477 1000.42 45.7783 1003.06 Q43.1741 1005.7 38.6603 1005.7 Q33.1742 1005.7 30.1881 1001.81 Q27.202 997.924 27.202 990.771 Q27.202 987.23 27.7228 984.105 Q28.2436 980.98 29.2853 978.341 Z" fill="#000000" fill-rule="evenodd" fill-opacity="1" /><path clip-path="url(#clip550)" d="M61.1949 959.903 L81.8197 959.903 L81.8197 966.327 L28.1395 966.327 L28.1395 959.903 L34.0422 959.903 Q30.57 957.89 28.9034 954.834 Q27.202 951.744 27.202 947.473 Q27.202 940.39 32.827 935.98 Q38.4519 931.535 47.6185 931.535 Q56.7852 931.535 62.4101 935.98 Q68.0351 940.39 68.0351 947.473 Q68.0351 951.744 66.3684 954.834 Q64.6671 957.89 61.1949 959.903 M47.6185 938.167 Q40.57 938.167 36.5769 941.084 Q32.5492 943.966 32.5492 949.035 Q32.5492 954.105 36.5769 957.021 Q40.57 959.903 47.6185 959.903 Q54.6671 959.903 58.6949 957.021 Q62.6879 954.105 62.6879 949.035 Q62.6879 943.966 58.6949 941.084 Q54.6671 938.167 47.6185 938.167 Z" fill="#000000" fill-rule="evenodd" fill-opacity="1" /><path clip-path="url(#clip550)" d="M13.0007 920.945 L13.0007 914.556 L67.0282 914.556 L67.0282 920.945 L13.0007 920.945 Z" fill="#000000" fill-rule="evenodd" fill-opacity="1" /><path clip-path="url(#clip550)" d="M47.4797 883.515 Q47.4797 891.258 49.2505 894.244 Q51.0213 897.23 55.2921 897.23 Q58.6949 897.23 60.7087 895.008 Q62.6879 892.751 62.6879 888.897 Q62.6879 883.584 58.9379 880.39 Q55.1532 877.161 48.9033 877.161 L47.4797 877.161 L47.4797 883.515 M44.8408 870.772 L67.0282 870.772 L67.0282 877.161 L61.1254 877.161 Q64.6671 879.348 66.3684 882.612 Q68.0351 885.876 68.0351 890.598 Q68.0351 896.57 64.7018 900.112 Q61.3337 903.619 55.7088 903.619 Q49.1463 903.619 45.813 899.244 Q42.4797 894.834 42.4797 886.119 L42.4797 877.161 L41.8547 877.161 Q37.445 877.161 35.0492 880.077 Q32.6186 882.959 32.6186 888.202 Q32.6186 891.536 33.4172 894.695 Q34.2158 897.855 35.813 900.772 L29.9103 900.772 Q28.5561 897.265 27.8964 893.966 Q27.202 890.668 27.202 887.543 Q27.202 879.105 31.577 874.939 Q35.9519 870.772 44.8408 870.772 Z" fill="#000000" fill-rule="evenodd" fill-opacity="1" /><path clip-path="url(#clip550)" d="M29.6325 829.626 L35.6047 829.626 Q34.1117 832.335 33.3825 835.078 Q32.6186 837.786 32.6186 840.564 Q32.6186 846.779 36.5769 850.216 Q40.5005 853.654 47.6185 853.654 Q54.7366 853.654 58.6949 850.216 Q62.6185 846.779 62.6185 840.564 Q62.6185 837.786 61.8893 835.078 Q61.1254 832.335 59.6324 829.626 L65.5351 829.626 Q66.7851 832.3 67.4101 835.182 Q68.0351 838.029 68.0351 841.258 Q68.0351 850.043 62.5143 855.216 Q56.9935 860.39 47.6185 860.39 Q38.1047 860.39 32.6533 855.182 Q27.202 849.939 27.202 840.842 Q27.202 837.89 27.827 835.078 Q28.4173 832.265 29.6325 829.626 Z" fill="#000000" fill-rule="evenodd" fill-opacity="1" /><path clip-path="url(#clip550)" d="M45.9866 785.252 L49.1116 785.252 L49.1116 814.626 Q55.7088 814.21 59.181 810.668 Q62.6185 807.092 62.6185 800.738 Q62.6185 797.057 61.7157 793.62 Q60.8129 790.147 59.0074 786.745 L65.049 786.745 Q66.5073 790.182 67.2712 793.793 Q68.0351 797.404 68.0351 801.12 Q68.0351 810.425 62.6185 815.876 Q57.2018 821.293 47.9658 821.293 Q38.4172 821.293 32.827 816.154 Q27.202 810.981 27.202 802.231 Q27.202 794.383 32.2714 789.835 Q37.3061 785.252 45.9866 785.252 M44.1116 791.64 Q38.8686 791.71 35.7436 794.592 Q32.6186 797.439 32.6186 802.161 Q32.6186 807.508 35.6394 810.738 Q38.6603 813.932 44.1463 814.418 L44.1116 791.64 Z" fill="#000000" fill-rule="evenodd" fill-opacity="1" /><path clip-path="url(#clip550)" d="M35.6047 744.488 Q31.2992 742.092 29.2506 738.759 Q27.202 735.425 27.202 730.912 Q27.202 724.835 31.4728 721.537 Q35.7089 718.238 43.5561 718.238 L67.0282 718.238 L67.0282 724.662 L43.7644 724.662 Q38.1741 724.662 35.4658 726.641 Q32.7575 728.62 32.7575 732.682 Q32.7575 737.648 36.0561 740.53 Q39.3547 743.412 45.0491 743.412 L67.0282 743.412 L67.0282 749.835 L43.7644 749.835 Q38.1394 749.835 35.4658 751.814 Q32.7575 753.793 32.7575 757.925 Q32.7575 762.821 36.0908 765.703 Q39.3894 768.585 45.0491 768.585 L67.0282 768.585 L67.0282 775.009 L28.1395 775.009 L28.1395 768.585 L34.1811 768.585 Q30.6047 766.397 28.9034 763.342 Q27.202 760.286 27.202 756.085 Q27.202 751.849 29.3547 748.898 Q31.5075 745.911 35.6047 744.488 Z" fill="#000000" fill-rule="evenodd" fill-opacity="1" /><path clip-path="url(#clip550)" d="M45.9866 672.231 L49.1116 672.231 L49.1116 701.606 Q55.7088 701.19 59.181 697.648 Q62.6185 694.071 62.6185 687.717 Q62.6185 684.037 61.7157 680.599 Q60.8129 677.127 59.0074 673.724 L65.049 673.724 Q66.5073 677.162 67.2712 680.773 Q68.0351 684.384 68.0351 688.099 Q68.0351 697.405 62.6185 702.856 Q57.2018 708.273 47.9658 708.273 Q38.4172 708.273 32.827 703.134 Q27.202 697.96 27.202 689.21 Q27.202 681.363 32.2714 676.815 Q37.3061 672.231 45.9866 672.231 M44.1116 678.62 Q38.8686 678.69 35.7436 681.572 Q32.6186 684.419 32.6186 689.141 Q32.6186 694.488 35.6394 697.717 Q38.6603 700.912 44.1463 701.398 L44.1116 678.62 Z" fill="#000000" fill-rule="evenodd" fill-opacity="1" /><path clip-path="url(#clip550)" d="M43.5561 629.419 L67.0282 629.419 L67.0282 635.808 L43.7644 635.808 Q38.2436 635.808 35.5005 637.961 Q32.7575 640.113 32.7575 644.419 Q32.7575 649.593 36.0561 652.579 Q39.3547 655.565 45.0491 655.565 L67.0282 655.565 L67.0282 661.988 L28.1395 661.988 L28.1395 655.565 L34.1811 655.565 Q30.6742 653.273 28.9381 650.183 Q27.202 647.058 27.202 642.995 Q27.202 636.294 31.3686 632.857 Q35.5005 629.419 43.5561 629.419 Z" fill="#000000" fill-rule="evenodd" fill-opacity="1" /><path clip-path="url(#clip550)" d="M17.0979 610.357 L28.1395 610.357 L28.1395 597.197 L33.1047 597.197 L33.1047 610.357 L54.2157 610.357 Q58.9726 610.357 60.3268 609.072 Q61.681 607.753 61.681 603.759 L61.681 597.197 L67.0282 597.197 L67.0282 603.759 Q67.0282 611.155 64.2851 613.968 Q61.5074 616.78 54.2157 616.78 L33.1047 616.78 L33.1047 621.468 L28.1395 621.468 L28.1395 616.78 L17.0979 616.78 L17.0979 610.357 Z" fill="#000000" fill-rule="evenodd" fill-opacity="1" /><path clip-path="url(#clip550)" d="M13.0007 566.781 L13.0007 552.058 L17.9659 552.058 L17.9659 560.392 L71.4379 560.392 L71.4379 552.058 L76.4031 552.058 L76.4031 566.781 L13.0007 566.781 Z" fill="#000000" fill-rule="evenodd" fill-opacity="1" /><path clip-path="url(#clip550)" d="M35.6047 508.17 Q31.2992 505.774 29.2506 502.441 Q27.202 499.107 27.202 494.593 Q27.202 488.517 31.4728 485.218 Q35.7089 481.92 43.5561 481.92 L67.0282 481.92 L67.0282 488.343 L43.7644 488.343 Q38.1741 488.343 35.4658 490.323 Q32.7575 492.302 32.7575 496.364 Q32.7575 501.329 36.0561 504.211 Q39.3547 507.093 45.0491 507.093 L67.0282 507.093 L67.0282 513.517 L43.7644 513.517 Q38.1394 513.517 35.4658 515.496 Q32.7575 517.475 32.7575 521.607 Q32.7575 526.503 36.0908 529.385 Q39.3894 532.267 45.0491 532.267 L67.0282 532.267 L67.0282 538.69 L28.1395 538.69 L28.1395 532.267 L34.1811 532.267 Q30.6047 530.079 28.9034 527.024 Q27.202 523.968 27.202 519.767 Q27.202 515.531 29.3547 512.579 Q31.5075 509.593 35.6047 508.17 Z" fill="#000000" fill-rule="evenodd" fill-opacity="1" /><path clip-path="url(#clip550)" d="M13.0007 454.246 L76.4031 454.246 L76.4031 468.969 L71.4379 468.969 L71.4379 460.67 L17.9659 460.67 L17.9659 468.969 L13.0007 468.969 L13.0007 454.246 Z" fill="#000000" fill-rule="evenodd" fill-opacity="1" /><path clip-path="url(#clip550)" d="M905.004 18.8205 L905.004 65.8515 L914.888 65.8515 Q927.405 65.8515 933.198 60.1802 Q939.031 54.509 939.031 42.2752 Q939.031 30.1225 933.198 24.4918 Q927.405 18.8205 914.888 18.8205 L905.004 18.8205 M896.821 12.096 L913.632 12.096 Q931.213 12.096 939.436 19.4281 Q947.66 26.7198 947.66 42.2752 Q947.66 57.9117 939.396 65.2439 Q931.132 72.576 913.632 72.576 L896.821 72.576 L896.821 12.096 Z" fill="#000000" fill-rule="evenodd" fill-opacity="1" /><path clip-path="url(#clip550)" d="M960.38 27.2059 L967.833 27.2059 L967.833 72.576 L960.38 72.576 L960.38 27.2059 M960.38 9.54393 L967.833 9.54393 L967.833 18.9825 L960.38 18.9825 L960.38 9.54393 Z" fill="#000000" fill-rule="evenodd" fill-opacity="1" /><path clip-path="url(#clip550)" d="M1012.35 28.5427 L1012.35 35.5912 Q1009.19 33.9709 1005.79 33.1607 Q1002.39 32.3505 998.742 32.3505 Q993.192 32.3505 990.397 34.0519 Q987.642 35.7533 987.642 39.156 Q987.642 41.7486 989.627 43.2475 Q991.612 44.7058 997.607 46.0426 L1000.16 46.6097 Q1008.1 48.3111 1011.42 51.4303 Q1014.78 54.509 1014.78 60.0587 Q1014.78 66.3781 1009.76 70.0644 Q1004.78 73.7508 996.028 73.7508 Q992.382 73.7508 988.412 73.0216 Q984.483 72.3329 980.108 70.9151 L980.108 63.2184 Q984.239 65.3654 988.25 66.4591 Q992.26 67.5124 996.19 67.5124 Q1001.46 67.5124 1004.29 65.73 Q1007.13 63.9071 1007.13 60.6258 Q1007.13 57.5877 1005.06 55.9673 Q1003.04 54.3469 996.109 52.8481 L993.516 52.2405 Q986.589 50.7821 983.51 47.7845 Q980.432 44.7463 980.432 39.4801 Q980.432 33.0797 984.969 29.5959 Q989.506 26.1121 997.851 26.1121 Q1001.98 26.1121 1005.63 26.7198 Q1009.27 27.3274 1012.35 28.5427 Z" fill="#000000" fill-rule="evenodd" fill-opacity="1" /><path clip-path="url(#clip550)" d="M1033.86 65.7705 L1033.86 89.8329 L1026.37 89.8329 L1026.37 27.2059 L1033.86 27.2059 L1033.86 34.0924 Q1036.21 30.0415 1039.78 28.0971 Q1043.38 26.1121 1048.37 26.1121 Q1056.63 26.1121 1061.77 32.6746 Q1066.96 39.2371 1066.96 49.9314 Q1066.96 60.6258 1061.77 67.1883 Q1056.63 73.7508 1048.37 73.7508 Q1043.38 73.7508 1039.78 71.8063 Q1036.21 69.8214 1033.86 65.7705 M1059.22 49.9314 Q1059.22 41.7081 1055.82 37.0496 Q1052.46 32.3505 1046.54 32.3505 Q1040.63 32.3505 1037.23 37.0496 Q1033.86 41.7081 1033.86 49.9314 Q1033.86 58.1548 1037.23 62.8538 Q1040.63 67.5124 1046.54 67.5124 Q1052.46 67.5124 1055.82 62.8538 Q1059.22 58.1548 1059.22 49.9314 Z" fill="#000000" fill-rule="evenodd" fill-opacity="1" /><path clip-path="url(#clip550)" d="M1079.31 9.54393 L1086.77 9.54393 L1086.77 72.576 L1079.31 72.576 L1079.31 9.54393 Z" fill="#000000" fill-rule="evenodd" fill-opacity="1" /><path clip-path="url(#clip550)" d="M1122.98 49.7694 Q1113.95 49.7694 1110.47 51.8354 Q1106.98 53.9013 1106.98 58.8839 Q1106.98 62.8538 1109.57 65.2034 Q1112.21 67.5124 1116.7 67.5124 Q1122.9 67.5124 1126.63 63.1374 Q1130.4 58.7219 1130.4 51.4303 L1130.4 49.7694 L1122.98 49.7694 M1137.85 46.6907 L1137.85 72.576 L1130.4 72.576 L1130.4 65.6895 Q1127.84 69.8214 1124.04 71.8063 Q1120.23 73.7508 1114.72 73.7508 Q1107.75 73.7508 1103.62 69.8619 Q1099.53 65.9325 1099.53 59.3701 Q1099.53 51.7138 1104.63 47.825 Q1109.78 43.9361 1119.94 43.9361 L1130.4 43.9361 L1130.4 43.2069 Q1130.4 38.0623 1126.99 35.2672 Q1123.63 32.4315 1117.51 32.4315 Q1113.63 32.4315 1109.94 33.3632 Q1106.25 34.295 1102.85 36.1584 L1102.85 29.2718 Q1106.94 27.692 1110.79 26.9223 Q1114.64 26.1121 1118.28 26.1121 Q1128.13 26.1121 1132.99 31.2163 Q1137.85 36.3204 1137.85 46.6907 Z" fill="#000000" fill-rule="evenodd" fill-opacity="1" /><path clip-path="url(#clip550)" d="M1185.85 28.9478 L1185.85 35.9153 Q1182.69 34.1734 1179.49 33.3227 Q1176.33 32.4315 1173.09 32.4315 Q1165.84 32.4315 1161.83 37.0496 Q1157.82 41.6271 1157.82 49.9314 Q1157.82 58.2358 1161.83 62.8538 Q1165.84 67.4314 1173.09 67.4314 Q1176.33 67.4314 1179.49 66.5807 Q1182.69 65.6895 1185.85 63.9476 L1185.85 70.8341 Q1182.73 72.2924 1179.37 73.0216 Q1176.05 73.7508 1172.28 73.7508 Q1162.03 73.7508 1156 67.3098 Q1149.96 60.8689 1149.96 49.9314 Q1149.96 38.832 1156.04 32.472 Q1162.16 26.1121 1172.77 26.1121 Q1176.21 26.1121 1179.49 26.8413 Q1182.77 27.5299 1185.85 28.9478 Z" fill="#000000" fill-rule="evenodd" fill-opacity="1" /><path clip-path="url(#clip550)" d="M1237.62 48.0275 L1237.62 51.6733 L1203.35 51.6733 Q1203.84 59.3701 1207.97 63.421 Q1212.14 67.4314 1219.56 67.4314 Q1223.85 67.4314 1227.86 66.3781 Q1231.91 65.3249 1235.88 63.2184 L1235.88 70.267 Q1231.87 71.9684 1227.66 72.8596 Q1223.45 73.7508 1219.11 73.7508 Q1208.25 73.7508 1201.89 67.4314 Q1195.58 61.1119 1195.58 50.3365 Q1195.58 39.1965 1201.57 32.6746 Q1207.61 26.1121 1217.81 26.1121 Q1226.97 26.1121 1232.28 32.0264 Q1237.62 37.9003 1237.62 48.0275 M1230.17 45.84 Q1230.09 39.7232 1226.73 36.0774 Q1223.4 32.4315 1217.9 32.4315 Q1211.66 32.4315 1207.89 35.9558 Q1204.16 39.4801 1203.6 45.8805 L1230.17 45.84 Z" fill="#000000" fill-rule="evenodd" fill-opacity="1" /><path clip-path="url(#clip550)" d="M1285.18 35.9153 Q1287.98 30.8922 1291.87 28.5022 Q1295.75 26.1121 1301.02 26.1121 Q1308.11 26.1121 1311.96 31.0947 Q1315.81 36.0368 1315.81 45.1919 L1315.81 72.576 L1308.31 72.576 L1308.31 45.4349 Q1308.31 38.913 1306 35.7533 Q1303.69 32.5936 1298.95 32.5936 Q1293.16 32.5936 1289.8 36.4419 Q1286.44 40.2903 1286.44 46.9338 L1286.44 72.576 L1278.94 72.576 L1278.94 45.4349 Q1278.94 38.8725 1276.63 35.7533 Q1274.32 32.5936 1269.5 32.5936 Q1263.79 32.5936 1260.43 36.4824 Q1257.07 40.3308 1257.07 46.9338 L1257.07 72.576 L1249.57 72.576 L1249.57 27.2059 L1257.07 27.2059 L1257.07 34.2544 Q1259.62 30.082 1263.18 28.0971 Q1266.75 26.1121 1271.65 26.1121 Q1276.59 26.1121 1280.04 28.6237 Q1283.52 31.1352 1285.18 35.9153 Z" fill="#000000" fill-rule="evenodd" fill-opacity="1" /><path clip-path="url(#clip550)" d="M1369.48 48.0275 L1369.48 51.6733 L1335.21 51.6733 Q1335.7 59.3701 1339.83 63.421 Q1344 67.4314 1351.41 67.4314 Q1355.71 67.4314 1359.72 66.3781 Q1363.77 65.3249 1367.74 63.2184 L1367.74 70.267 Q1363.73 71.9684 1359.52 72.8596 Q1355.3 73.7508 1350.97 73.7508 Q1340.11 73.7508 1333.75 67.4314 Q1327.43 61.1119 1327.43 50.3365 Q1327.43 39.1965 1333.43 32.6746 Q1339.46 26.1121 1349.67 26.1121 Q1358.83 26.1121 1364.13 32.0264 Q1369.48 37.9003 1369.48 48.0275 M1362.03 45.84 Q1361.95 39.7232 1358.58 36.0774 Q1355.26 32.4315 1349.75 32.4315 Q1343.51 32.4315 1339.75 35.9558 Q1336.02 39.4801 1335.45 45.8805 L1362.03 45.84 Z" fill="#000000" fill-rule="evenodd" fill-opacity="1" /><path clip-path="url(#clip550)" d="M1419.43 45.1919 L1419.43 72.576 L1411.97 72.576 L1411.97 45.4349 Q1411.97 38.994 1409.46 35.7938 Q1406.95 32.5936 1401.93 32.5936 Q1395.89 32.5936 1392.41 36.4419 Q1388.92 40.2903 1388.92 46.9338 L1388.92 72.576 L1381.43 72.576 L1381.43 27.2059 L1388.92 27.2059 L1388.92 34.2544 Q1391.6 30.163 1395.2 28.1376 Q1398.85 26.1121 1403.59 26.1121 Q1411.41 26.1121 1415.42 30.9732 Q1419.43 35.7938 1419.43 45.1919 Z" fill="#000000" fill-rule="evenodd" fill-opacity="1" /><path clip-path="url(#clip550)" d="M1441.67 14.324 L1441.67 27.2059 L1457.02 27.2059 L1457.02 32.9987 L1441.67 32.9987 L1441.67 57.6282 Q1441.67 63.1779 1443.17 64.7578 Q1444.71 66.3376 1449.36 66.3376 L1457.02 66.3376 L1457.02 72.576 L1449.36 72.576 Q1440.74 72.576 1437.45 69.3758 Q1434.17 66.1351 1434.17 57.6282 L1434.17 32.9987 L1428.7 32.9987 L1428.7 27.2059 L1434.17 27.2059 L1434.17 14.324 L1441.67 14.324 Z" fill="#000000" fill-rule="evenodd" fill-opacity="1" /><path clip-path="url(#clip550)" d="M1528.52 35.9153 Q1531.31 30.8922 1535.2 28.5022 Q1539.09 26.1121 1544.36 26.1121 Q1551.45 26.1121 1555.3 31.0947 Q1559.14 36.0368 1559.14 45.1919 L1559.14 72.576 L1551.65 72.576 L1551.65 45.4349 Q1551.65 38.913 1549.34 35.7533 Q1547.03 32.5936 1542.29 32.5936 Q1536.5 32.5936 1533.14 36.4419 Q1529.77 40.2903 1529.77 46.9338 L1529.77 72.576 L1522.28 72.576 L1522.28 45.4349 Q1522.28 38.8725 1519.97 35.7533 Q1517.66 32.5936 1512.84 32.5936 Q1507.13 32.5936 1503.77 36.4824 Q1500.41 40.3308 1500.41 46.9338 L1500.41 72.576 L1492.91 72.576 L1492.91 27.2059 L1500.41 27.2059 L1500.41 34.2544 Q1502.96 30.082 1506.52 28.0971 Q1510.09 26.1121 1514.99 26.1121 Q1519.93 26.1121 1523.37 28.6237 Q1526.86 31.1352 1528.52 35.9153 Z" fill="#000000" fill-rule="evenodd" fill-opacity="1" /><path clip-path="url(#clip550)" d="M1591.59 32.4315 Q1585.6 32.4315 1582.11 37.1306 Q1578.63 41.7891 1578.63 49.9314 Q1578.63 58.0738 1582.07 62.7728 Q1585.56 67.4314 1591.59 67.4314 Q1597.55 67.4314 1601.03 62.7323 Q1604.51 58.0333 1604.51 49.9314 Q1604.51 41.8701 1601.03 37.1711 Q1597.55 32.4315 1591.59 32.4315 M1591.59 26.1121 Q1601.31 26.1121 1606.86 32.4315 Q1612.41 38.7509 1612.41 49.9314 Q1612.41 61.0714 1606.86 67.4314 Q1601.31 73.7508 1591.59 73.7508 Q1581.83 73.7508 1576.28 67.4314 Q1570.77 61.0714 1570.77 49.9314 Q1570.77 38.7509 1576.28 32.4315 Q1581.83 26.1121 1591.59 26.1121 Z" fill="#000000" fill-rule="evenodd" fill-opacity="1" /><path clip-path="url(#clip550)" d="M1654.62 34.0924 L1654.62 9.54393 L1662.08 9.54393 L1662.08 72.576 L1654.62 72.576 L1654.62 65.7705 Q1652.27 69.8214 1648.67 71.8063 Q1645.1 73.7508 1640.08 73.7508 Q1631.86 73.7508 1626.67 67.1883 Q1621.53 60.6258 1621.53 49.9314 Q1621.53 39.2371 1626.67 32.6746 Q1631.86 26.1121 1640.08 26.1121 Q1645.1 26.1121 1648.67 28.0971 Q1652.27 30.0415 1654.62 34.0924 M1629.22 49.9314 Q1629.22 58.1548 1632.59 62.8538 Q1635.99 67.5124 1641.9 67.5124 Q1647.82 67.5124 1651.22 62.8538 Q1654.62 58.1548 1654.62 49.9314 Q1654.62 41.7081 1651.22 37.0496 Q1647.82 32.3505 1641.9 32.3505 Q1635.99 32.3505 1632.59 37.0496 Q1629.22 41.7081 1629.22 49.9314 Z" fill="#000000" fill-rule="evenodd" fill-opacity="1" /><path clip-path="url(#clip550)" d="M1716.24 48.0275 L1716.24 51.6733 L1681.97 51.6733 Q1682.45 59.3701 1686.59 63.421 Q1690.76 67.4314 1698.17 67.4314 Q1702.46 67.4314 1706.48 66.3781 Q1710.53 65.3249 1714.5 63.2184 L1714.5 70.267 Q1710.49 71.9684 1706.27 72.8596 Q1702.06 73.7508 1697.73 73.7508 Q1686.87 73.7508 1680.51 67.4314 Q1674.19 61.1119 1674.19 50.3365 Q1674.19 39.1965 1680.18 32.6746 Q1686.22 26.1121 1696.43 26.1121 Q1705.58 26.1121 1710.89 32.0264 Q1716.24 37.9003 1716.24 48.0275 M1708.78 45.84 Q1708.7 39.7232 1705.34 36.0774 Q1702.02 32.4315 1696.51 32.4315 Q1690.27 32.4315 1686.5 35.9558 Q1682.78 39.4801 1682.21 45.8805 L1708.78 45.84 Z" fill="#000000" fill-rule="evenodd" fill-opacity="1" /><path clip-path="url(#clip550)" d="M1728.47 9.54393 L1735.93 9.54393 L1735.93 72.576 L1728.47 72.576 L1728.47 9.54393 Z" fill="#000000" fill-rule="evenodd" fill-opacity="1" /><path clip-path="url(#clip550)" d="M1780.36 65.6895 L1793.73 65.6895 L1793.73 19.5497 L1779.19 22.4663 L1779.19 15.0127 L1793.65 12.096 L1801.83 12.096 L1801.83 65.6895 L1815.2 65.6895 L1815.2 72.576 L1780.36 72.576 L1780.36 65.6895 Z" fill="#000000" fill-rule="evenodd" fill-opacity="1" /><polyline clip-path="url(#clip552)" style="stroke:#009af9; stroke-linecap:butt; stroke-linejoin:round; stroke-width:8; stroke-opacity:1; fill:none" points="
  415.686,159.645 2296.34,159.645 
  "/>
<polyline clip-path="url(#clip552)" style="stroke:#e26f46; stroke-linecap:butt; stroke-linejoin:round; stroke-width:8; stroke-opacity:1; fill:none" points="
  415.686,1005.24 2296.34,1005.24 
  "/>
<polyline clip-path="url(#clip552)" style="stroke:#008000; stroke-linecap:butt; stroke-linejoin:round; stroke-width:8; stroke-opacity:1; fill:none" stroke-dasharray="4, 8" points="
  415.686,1365.41 420.388,1365.4 425.089,1365.37 429.791,1365.32 434.493,1365.25 439.194,1365.16 443.896,1365.05 448.597,1364.93 453.299,1364.78 458.001,1364.61 
  462.702,1364.43 467.404,1364.22 472.106,1364 476.807,1363.75 481.509,1363.49 486.21,1363.21 490.912,1362.91 495.614,1362.59 500.315,1362.25 505.017,1361.9 
  509.719,1361.53 514.42,1361.14 519.122,1360.73 523.823,1360.31 528.525,1359.87 533.227,1359.42 537.928,1358.95 542.63,1358.47 547.332,1357.97 552.033,1357.46 
  556.735,1356.94 561.436,1356.4 566.138,1355.86 570.84,1355.3 575.541,1354.73 580.243,1354.15 584.945,1353.56 589.646,1352.96 594.348,1352.35 599.049,1351.73 
  603.751,1351.11 608.453,1350.48 613.154,1349.84 617.856,1349.2 622.558,1348.55 627.259,1347.9 631.961,1347.24 636.662,1346.58 641.364,1345.92 646.066,1345.26 
  650.767,1344.6 655.469,1343.94 660.171,1343.27 664.872,1342.61 669.574,1341.95 674.275,1341.29 678.977,1340.64 683.679,1339.99 688.38,1339.34 693.082,1338.7 
  697.784,1338.06 702.485,1337.43 707.187,1336.81 711.888,1336.19 716.59,1335.59 721.292,1334.99 725.993,1334.4 730.695,1333.82 735.397,1333.25 740.098,1332.7 
  744.8,1332.15 749.502,1331.62 754.203,1331.1 758.905,1330.59 763.606,1330.09 768.308,1329.62 773.01,1329.15 777.711,1328.7 782.413,1328.27 787.115,1327.85 
  791.816,1327.45 796.518,1327.07 801.219,1326.7 805.921,1326.35 810.623,1326.02 815.324,1325.71 820.026,1325.42 824.728,1325.15 829.429,1324.89 834.131,1324.66 
  838.832,1324.45 843.534,1324.25 848.236,1324.08 852.937,1323.93 857.639,1323.8 862.341,1323.69 867.042,1323.61 871.744,1323.54 876.445,1323.5 881.147,1323.48 
  885.849,1323.48 890.55,1323.5 895.252,1323.54 899.954,1323.59 904.655,1323.65 909.357,1323.73 914.058,1323.83 918.76,1323.95 923.462,1324.08 928.163,1324.23 
  932.865,1324.39 937.567,1324.57 942.268,1324.77 946.97,1324.98 951.671,1325.21 956.373,1325.45 961.075,1325.71 965.776,1325.98 970.478,1326.27 975.18,1326.57 
  979.881,1326.89 984.583,1327.22 989.284,1327.56 993.986,1327.92 998.688,1328.29 1003.39,1328.67 1008.09,1329.07 1012.79,1329.48 1017.49,1329.9 1022.2,1330.33 
  1026.9,1330.77 1031.6,1331.22 1036.3,1331.69 1041,1332.16 1045.7,1332.64 1050.41,1333.13 1055.11,1333.62 1059.81,1334.13 1064.51,1334.64 1069.21,1335.16 
  1073.91,1335.68 1078.62,1336.21 1083.32,1336.75 1088.02,1337.29 1092.72,1337.83 1097.42,1338.37 1102.12,1338.92 1106.83,1339.48 1111.53,1340.03 1116.23,1340.58 
  1120.93,1341.14 1125.63,1341.69 1130.33,1342.25 1135.03,1342.8 1139.74,1343.35 1144.44,1343.9 1149.14,1344.45 1153.84,1344.99 1158.54,1345.53 1163.24,1346.07 
  1167.95,1346.6 1172.65,1347.13 1177.35,1347.64 1182.05,1348.16 1186.75,1348.66 1191.45,1349.16 1196.16,1349.65 1200.86,1350.13 1205.56,1350.61 1210.26,1351.07 
  1214.96,1351.52 1219.66,1351.97 1224.37,1352.4 1229.07,1352.82 1233.77,1353.23 1238.47,1353.63 1243.17,1354.01 1247.87,1354.38 1252.58,1354.74 1257.28,1355.09 
  1261.98,1355.42 1266.68,1355.73 1271.38,1356.03 1276.08,1356.32 1280.79,1356.59 1285.49,1356.84 1290.19,1357.08 1294.89,1357.31 1299.59,1357.51 1304.29,1357.7 
  1308.99,1357.87 1313.7,1358.02 1318.4,1358.16 1323.1,1358.28 1327.8,1358.38 1332.5,1358.46 1337.2,1358.52 1341.91,1358.57 1346.61,1358.6 1351.31,1358.6 
  1356.01,1358.59 1360.71,1358.57 1365.41,1358.54 1370.12,1358.49 1374.82,1358.43 1379.52,1358.36 1384.22,1358.28 1388.92,1358.18 1393.62,1358.07 1398.33,1357.95 
  1403.03,1357.81 1407.73,1357.66 1412.43,1357.5 1417.13,1357.33 1421.83,1357.14 1426.54,1356.95 1431.24,1356.74 1435.94,1356.52 1440.64,1356.28 1445.34,1356.04 
  1450.04,1355.78 1454.75,1355.52 1459.45,1355.24 1464.15,1354.95 1468.85,1354.65 1473.55,1354.34 1478.25,1354.03 1482.96,1353.7 1487.66,1353.36 1492.36,1353.02 
  1497.06,1352.66 1501.76,1352.3 1506.46,1351.93 1511.16,1351.55 1515.87,1351.17 1520.57,1350.78 1525.27,1350.38 1529.97,1349.98 1534.67,1349.57 1539.37,1349.15 
  1544.08,1348.74 1548.78,1348.31 1553.48,1347.89 1558.18,1347.46 1562.88,1347.02 1567.58,1346.59 1572.29,1346.15 1576.99,1345.71 1581.69,1345.27 1586.39,1344.83 
  1591.09,1344.38 1595.79,1343.94 1600.5,1343.5 1605.2,1343.06 1609.9,1342.62 1614.6,1342.18 1619.3,1341.75 1624,1341.31 1628.71,1340.88 1633.41,1340.46 
  1638.11,1340.03 1642.81,1339.62 1647.51,1339.2 1652.21,1338.79 1656.92,1338.39 1661.62,1338 1666.32,1337.61 1671.02,1337.22 1675.72,1336.85 1680.42,1336.48 
  1685.13,1336.12 1689.83,1335.77 1694.53,1335.42 1699.23,1335.09 1703.93,1334.77 1708.63,1334.45 1713.33,1334.15 1718.04,1333.85 1722.74,1333.57 1727.44,1333.3 
  1732.14,1333.04 1736.84,1332.79 1741.54,1332.56 1746.25,1332.33 1750.95,1332.12 1755.65,1331.92 1760.35,1331.74 1765.05,1331.56 1769.75,1331.4 1774.46,1331.26 
  1779.16,1331.13 1783.86,1331.01 1788.56,1330.91 1793.26,1330.82 1797.96,1330.75 1802.67,1330.69 1807.37,1330.65 1812.07,1330.62 1816.77,1330.6 1821.47,1330.61 
  1826.17,1330.62 1830.88,1330.64 1835.58,1330.67 1840.28,1330.71 1844.98,1330.75 1849.68,1330.81 1854.38,1330.87 1859.09,1330.94 1863.79,1331.03 1868.49,1331.12 
  1873.19,1331.22 1877.89,1331.33 1882.59,1331.44 1887.29,1331.57 1892,1331.71 1896.7,1331.85 1901.4,1332 1906.1,1332.16 1910.8,1332.33 1915.5,1332.51 
  1920.21,1332.69 1924.91,1332.89 1929.61,1333.09 1934.31,1333.3 1939.01,1333.51 1943.71,1333.73 1948.42,1333.96 1953.12,1334.2 1957.82,1334.44 1962.52,1334.69 
  1967.22,1334.95 1971.92,1335.21 1976.63,1335.47 1981.33,1335.75 1986.03,1336.02 1990.73,1336.31 1995.43,1336.59 2000.13,1336.88 2004.84,1337.18 2009.54,1337.48 
  2014.24,1337.78 2018.94,1338.08 2023.64,1338.39 2028.34,1338.7 2033.05,1339.01 2037.75,1339.33 2042.45,1339.65 2047.15,1339.96 2051.85,1340.28 2056.55,1340.6 
  2061.26,1340.92 2065.96,1341.24 2070.66,1341.56 2075.36,1341.88 2080.06,1342.2 2084.76,1342.51 2089.46,1342.83 2094.17,1343.14 2098.87,1343.45 2103.57,1343.76 
  2108.27,1344.07 2112.97,1344.37 2117.67,1344.67 2122.38,1344.96 2127.08,1345.25 2131.78,1345.54 2136.48,1345.82 2141.18,1346.1 2145.88,1346.37 2150.59,1346.64 
  2155.29,1346.9 2159.99,1347.16 2164.69,1347.4 2169.39,1347.64 2174.09,1347.88 2178.8,1348.11 2183.5,1348.33 2188.2,1348.54 2192.9,1348.74 2197.6,1348.94 
  2202.3,1349.13 2207.01,1349.31 2211.71,1349.48 2216.41,1349.64 2221.11,1349.79 2225.81,1349.94 2230.51,1350.07 2235.22,1350.19 2239.92,1350.31 2244.62,1350.41 
  2249.32,1350.5 2254.02,1350.59 2258.72,1350.66 2263.43,1350.72 2268.13,1350.77 2272.83,1350.81 2277.53,1350.84 2282.23,1350.86 2286.93,1350.86 2291.63,1350.86 
  2296.34,1350.85 
  "/>
<path clip-path="url(#clip550)" d="
M1429.95 477.116 L2286.31 477.116 L2286.31 166.076 L1429.95 166.076  Z
  " fill="#ffffff" fill-rule="evenodd" fill-opacity="1"/>
<polyline clip-path="url(#clip550)" style="stroke:#000000; stroke-linecap:butt; stroke-linejoin:round; stroke-width:4; stroke-opacity:1; fill:none" points="
  1429.95,477.116 2286.31,477.116 2286.31,166.076 1429.95,166.076 1429.95,477.116 
  "/>
<polyline clip-path="url(#clip550)" style="stroke:#009af9; stroke-linecap:butt; stroke-linejoin:round; stroke-width:6; stroke-opacity:1; fill:none" points="
  1452.1,243.836 1585,243.836 
  "/>
<path clip-path="url(#clip550)" d="M1634.79 232.013 L1634.79 238.054 Q1632.08 236.666 1629.16 235.971 Q1626.25 235.277 1623.12 235.277 Q1618.36 235.277 1615.97 236.735 Q1613.61 238.193 1613.61 241.11 Q1613.61 243.332 1615.31 244.617 Q1617.01 245.867 1622.15 247.013 L1624.34 247.499 Q1631.14 248.957 1633.99 251.631 Q1636.87 254.27 1636.87 259.027 Q1636.87 264.443 1632.57 267.603 Q1628.29 270.763 1620.79 270.763 Q1617.67 270.763 1614.27 270.138 Q1610.9 269.547 1607.15 268.332 L1607.15 261.735 Q1610.69 263.575 1614.13 264.513 Q1617.57 265.415 1620.93 265.415 Q1625.45 265.415 1627.88 263.888 Q1630.31 262.325 1630.31 259.513 Q1630.31 256.909 1628.54 255.52 Q1626.8 254.131 1620.86 252.846 L1618.64 252.325 Q1612.7 251.075 1610.07 248.506 Q1607.43 245.902 1607.43 241.388 Q1607.43 235.902 1611.32 232.916 Q1615.2 229.93 1622.36 229.93 Q1625.9 229.93 1629.02 230.45 Q1632.15 230.971 1634.79 232.013 Z" fill="#000000" fill-rule="evenodd" fill-opacity="1" /><path clip-path="url(#clip550)" d="M1647.04 230.867 L1653.43 230.867 L1653.43 269.756 L1647.04 269.756 L1647.04 230.867 M1647.04 215.728 L1653.43 215.728 L1653.43 223.818 L1647.04 223.818 L1647.04 215.728 Z" fill="#000000" fill-rule="evenodd" fill-opacity="1" /><path clip-path="url(#clip550)" d="M1697.08 238.332 Q1699.47 234.027 1702.81 231.978 Q1706.14 229.93 1710.66 229.93 Q1716.73 229.93 1720.03 234.2 Q1723.33 238.436 1723.33 246.284 L1723.33 269.756 L1716.91 269.756 L1716.91 246.492 Q1716.91 240.902 1714.93 238.193 Q1712.95 235.485 1708.88 235.485 Q1703.92 235.485 1701.04 238.784 Q1698.16 242.082 1698.16 247.777 L1698.16 269.756 L1691.73 269.756 L1691.73 246.492 Q1691.73 240.867 1689.75 238.193 Q1687.77 235.485 1683.64 235.485 Q1678.75 235.485 1675.86 238.818 Q1672.98 242.117 1672.98 247.777 L1672.98 269.756 L1666.56 269.756 L1666.56 230.867 L1672.98 230.867 L1672.98 236.909 Q1675.17 233.332 1678.22 231.631 Q1681.28 229.93 1685.48 229.93 Q1689.72 229.93 1692.67 232.082 Q1695.66 234.235 1697.08 238.332 Z" fill="#000000" fill-rule="evenodd" fill-opacity="1" /><path clip-path="url(#clip550)" d="M1742.25 263.922 L1742.25 284.547 L1735.83 284.547 L1735.83 230.867 L1742.25 230.867 L1742.25 236.77 Q1744.27 233.298 1747.32 231.631 Q1750.41 229.93 1754.68 229.93 Q1761.77 229.93 1766.18 235.555 Q1770.62 241.179 1770.62 250.346 Q1770.62 259.513 1766.18 265.138 Q1761.77 270.763 1754.68 270.763 Q1750.41 270.763 1747.32 269.096 Q1744.27 267.395 1742.25 263.922 M1763.99 250.346 Q1763.99 243.298 1761.07 239.304 Q1758.19 235.277 1753.12 235.277 Q1748.05 235.277 1745.13 239.304 Q1742.25 243.298 1742.25 250.346 Q1742.25 257.395 1745.13 261.422 Q1748.05 265.415 1753.12 265.415 Q1758.19 265.415 1761.07 261.422 Q1763.99 257.395 1763.99 250.346 Z" fill="#000000" fill-rule="evenodd" fill-opacity="1" /><path clip-path="url(#clip550)" d="M1781.21 215.728 L1787.6 215.728 L1787.6 269.756 L1781.21 269.756 L1781.21 215.728 Z" fill="#000000" fill-rule="evenodd" fill-opacity="1" /><path clip-path="url(#clip550)" d="M1834.23 248.714 L1834.23 251.839 L1804.86 251.839 Q1805.27 258.436 1808.81 261.909 Q1812.39 265.346 1818.74 265.346 Q1822.43 265.346 1825.86 264.443 Q1829.34 263.54 1832.74 261.735 L1832.74 267.777 Q1829.3 269.235 1825.69 269.999 Q1822.08 270.763 1818.36 270.763 Q1809.06 270.763 1803.61 265.346 Q1798.19 259.929 1798.19 250.693 Q1798.19 241.145 1803.33 235.555 Q1808.5 229.93 1817.25 229.93 Q1825.1 229.93 1829.65 234.999 Q1834.23 240.034 1834.23 248.714 M1827.84 246.839 Q1827.77 241.596 1824.89 238.471 Q1822.04 235.346 1817.32 235.346 Q1811.97 235.346 1808.74 238.367 Q1805.55 241.388 1805.06 246.874 L1827.84 246.839 Z" fill="#000000" fill-rule="evenodd" fill-opacity="1" /><path clip-path="url(#clip550)" d="M1844.99 217.916 L1874.79 217.916 L1874.79 223.818 L1852.01 223.818 L1852.01 239.096 L1872.56 239.096 L1872.56 244.999 L1852.01 244.999 L1852.01 269.756 L1844.99 269.756 L1844.99 217.916 Z" fill="#000000" fill-rule="evenodd" fill-opacity="1" /><path clip-path="url(#clip550)" d="M1885.9 217.916 L1896.35 217.916 L1909.58 253.193 L1922.88 217.916 L1933.33 217.916 L1933.33 269.756 L1926.49 269.756 L1926.49 224.235 L1913.12 259.79 L1906.07 259.79 L1892.7 224.235 L1892.7 269.756 L1885.9 269.756 L1885.9 217.916 Z" fill="#000000" fill-rule="evenodd" fill-opacity="1" /><path clip-path="url(#clip550)" d="M1946.45 217.916 L1953.5 217.916 L1953.5 249.409 Q1953.5 257.742 1956.52 261.422 Q1959.54 265.068 1966.31 265.068 Q1973.05 265.068 1976.07 261.422 Q1979.09 257.742 1979.09 249.409 L1979.09 217.916 L1986.14 217.916 L1986.14 250.277 Q1986.14 260.415 1981.11 265.589 Q1976.11 270.763 1966.31 270.763 Q1956.49 270.763 1951.45 265.589 Q1946.45 260.415 1946.45 250.277 L1946.45 217.916 Z" fill="#000000" fill-rule="evenodd" fill-opacity="1" /><polyline clip-path="url(#clip550)" style="stroke:#e26f46; stroke-linecap:butt; stroke-linejoin:round; stroke-width:6; stroke-opacity:1; fill:none" points="
  1452.1,321.596 1585,321.596 
  "/>
<path clip-path="url(#clip550)" d="M1629.93 314.599 Q1628.85 313.974 1627.57 313.696 Q1626.32 313.384 1624.79 313.384 Q1619.37 313.384 1616.45 316.926 Q1613.57 320.433 1613.57 327.03 L1613.57 347.516 L1607.15 347.516 L1607.15 308.627 L1613.57 308.627 L1613.57 314.669 Q1615.59 311.127 1618.82 309.426 Q1622.04 307.69 1626.66 307.69 Q1627.32 307.69 1628.12 307.794 Q1628.92 307.863 1629.89 308.037 L1629.93 314.599 Z" fill="#000000" fill-rule="evenodd" fill-opacity="1" /><path clip-path="url(#clip550)" d="M1668.33 326.474 L1668.33 329.599 L1638.95 329.599 Q1639.37 336.196 1642.91 339.669 Q1646.49 343.106 1652.84 343.106 Q1656.52 343.106 1659.96 342.203 Q1663.43 341.3 1666.84 339.495 L1666.84 345.537 Q1663.4 346.995 1659.79 347.759 Q1656.18 348.523 1652.46 348.523 Q1643.16 348.523 1637.7 343.106 Q1632.29 337.689 1632.29 328.453 Q1632.29 318.905 1637.43 313.315 Q1642.6 307.69 1651.35 307.69 Q1659.2 307.69 1663.75 312.759 Q1668.33 317.794 1668.33 326.474 M1661.94 324.599 Q1661.87 319.356 1658.99 316.231 Q1656.14 313.106 1651.42 313.106 Q1646.07 313.106 1642.84 316.127 Q1639.65 319.148 1639.16 324.634 L1661.94 324.599 Z" fill="#000000" fill-rule="evenodd" fill-opacity="1" /><path clip-path="url(#clip550)" d="M1698.5 293.488 L1698.5 298.801 L1692.39 298.801 Q1688.95 298.801 1687.6 300.19 Q1686.28 301.578 1686.28 305.19 L1686.28 308.627 L1696.8 308.627 L1696.8 313.592 L1686.28 313.592 L1686.28 347.516 L1679.86 347.516 L1679.86 313.592 L1673.75 313.592 L1673.75 308.627 L1679.86 308.627 L1679.86 305.919 Q1679.86 299.426 1682.88 296.474 Q1685.9 293.488 1692.46 293.488 L1698.5 293.488 Z" fill="#000000" fill-rule="evenodd" fill-opacity="1" /><path clip-path="url(#clip550)" d="M1737.11 326.474 L1737.11 329.599 L1707.74 329.599 Q1708.16 336.196 1711.7 339.669 Q1715.27 343.106 1721.63 343.106 Q1725.31 343.106 1728.75 342.203 Q1732.22 341.3 1735.62 339.495 L1735.62 345.537 Q1732.18 346.995 1728.57 347.759 Q1724.96 348.523 1721.25 348.523 Q1711.94 348.523 1706.49 343.106 Q1701.07 337.689 1701.07 328.453 Q1701.07 318.905 1706.21 313.315 Q1711.38 307.69 1720.13 307.69 Q1727.98 307.69 1732.53 312.759 Q1737.11 317.794 1737.11 326.474 M1730.72 324.599 Q1730.66 319.356 1727.77 316.231 Q1724.93 313.106 1720.2 313.106 Q1714.86 313.106 1711.63 316.127 Q1708.43 319.148 1707.95 324.634 L1730.72 324.599 Z" fill="#000000" fill-rule="evenodd" fill-opacity="1" /><path clip-path="url(#clip550)" d="M1770.13 314.599 Q1769.06 313.974 1767.77 313.696 Q1766.52 313.384 1765 313.384 Q1759.58 313.384 1756.66 316.926 Q1753.78 320.433 1753.78 327.03 L1753.78 347.516 L1747.36 347.516 L1747.36 308.627 L1753.78 308.627 L1753.78 314.669 Q1755.79 311.127 1759.02 309.426 Q1762.25 307.69 1766.87 307.69 Q1767.53 307.69 1768.33 307.794 Q1769.13 307.863 1770.1 308.037 L1770.13 314.599 Z" fill="#000000" fill-rule="evenodd" fill-opacity="1" /><path clip-path="url(#clip550)" d="M1808.54 326.474 L1808.54 329.599 L1779.16 329.599 Q1779.58 336.196 1783.12 339.669 Q1786.7 343.106 1793.05 343.106 Q1796.73 343.106 1800.17 342.203 Q1803.64 341.3 1807.04 339.495 L1807.04 345.537 Q1803.61 346.995 1799.99 347.759 Q1796.38 348.523 1792.67 348.523 Q1783.36 348.523 1777.91 343.106 Q1772.5 337.689 1772.5 328.453 Q1772.5 318.905 1777.63 313.315 Q1782.81 307.69 1791.56 307.69 Q1799.4 307.69 1803.95 312.759 Q1808.54 317.794 1808.54 326.474 M1802.15 324.599 Q1802.08 319.356 1799.2 316.231 Q1796.35 313.106 1791.63 313.106 Q1786.28 313.106 1783.05 316.127 Q1779.86 319.148 1779.37 324.634 L1802.15 324.599 Z" fill="#000000" fill-rule="evenodd" fill-opacity="1" /><path clip-path="url(#clip550)" d="M1851.35 324.044 L1851.35 347.516 L1844.96 347.516 L1844.96 324.252 Q1844.96 318.731 1842.81 315.988 Q1840.65 313.245 1836.35 313.245 Q1831.18 313.245 1828.19 316.544 Q1825.2 319.842 1825.2 325.537 L1825.2 347.516 L1818.78 347.516 L1818.78 308.627 L1825.2 308.627 L1825.2 314.669 Q1827.49 311.162 1830.59 309.426 Q1833.71 307.69 1837.77 307.69 Q1844.47 307.69 1847.91 311.856 Q1851.35 315.988 1851.35 324.044 Z" fill="#000000" fill-rule="evenodd" fill-opacity="1" /><path clip-path="url(#clip550)" d="M1892.08 310.12 L1892.08 316.092 Q1889.37 314.599 1886.63 313.87 Q1883.92 313.106 1881.14 313.106 Q1874.93 313.106 1871.49 317.064 Q1868.05 320.988 1868.05 328.106 Q1868.05 335.224 1871.49 339.182 Q1874.93 343.106 1881.14 343.106 Q1883.92 343.106 1886.63 342.377 Q1889.37 341.613 1892.08 340.12 L1892.08 346.023 Q1889.4 347.273 1886.52 347.898 Q1883.68 348.523 1880.45 348.523 Q1871.66 348.523 1866.49 343.002 Q1861.31 337.481 1861.31 328.106 Q1861.31 318.592 1866.52 313.141 Q1871.77 307.69 1880.86 307.69 Q1883.81 307.69 1886.63 308.315 Q1889.44 308.905 1892.08 310.12 Z" fill="#000000" fill-rule="evenodd" fill-opacity="1" /><path clip-path="url(#clip550)" d="M1936.45 326.474 L1936.45 329.599 L1907.08 329.599 Q1907.49 336.196 1911.04 339.669 Q1914.61 343.106 1920.97 343.106 Q1924.65 343.106 1928.08 342.203 Q1931.56 341.3 1934.96 339.495 L1934.96 345.537 Q1931.52 346.995 1927.91 347.759 Q1924.3 348.523 1920.58 348.523 Q1911.28 348.523 1905.83 343.106 Q1900.41 337.689 1900.41 328.453 Q1900.41 318.905 1905.55 313.315 Q1910.72 307.69 1919.47 307.69 Q1927.32 307.69 1931.87 312.759 Q1936.45 317.794 1936.45 326.474 M1930.06 324.599 Q1929.99 319.356 1927.11 316.231 Q1924.27 313.106 1919.54 313.106 Q1914.2 313.106 1910.97 316.127 Q1907.77 319.148 1907.29 324.634 L1930.06 324.599 Z" fill="#000000" fill-rule="evenodd" fill-opacity="1" /><polyline clip-path="url(#clip550)" style="stroke:#008000; stroke-linecap:butt; stroke-linejoin:round; stroke-width:6; stroke-opacity:1; fill:none" stroke-dasharray="3, 6" points="
  1452.1,399.356 1585,399.356 
  "/>
<path clip-path="url(#clip550)" d="M1607.15 373.436 L1616.59 373.436 L1639.58 416.804 L1639.58 373.436 L1646.38 373.436 L1646.38 425.276 L1636.94 425.276 L1613.95 381.908 L1613.95 425.276 L1607.15 425.276 L1607.15 373.436 Z" fill="#000000" fill-rule="evenodd" fill-opacity="1" /><path clip-path="url(#clip550)" d="M1693.33 404.234 L1693.33 407.359 L1663.95 407.359 Q1664.37 413.956 1667.91 417.429 Q1671.49 420.866 1677.84 420.866 Q1681.52 420.866 1684.96 419.963 Q1688.43 419.06 1691.84 417.255 L1691.84 423.297 Q1688.4 424.755 1684.79 425.519 Q1681.18 426.283 1677.46 426.283 Q1668.16 426.283 1662.7 420.866 Q1657.29 415.449 1657.29 406.213 Q1657.29 396.665 1662.43 391.075 Q1667.6 385.45 1676.35 385.45 Q1684.2 385.45 1688.75 390.519 Q1693.33 395.554 1693.33 404.234 M1686.94 402.359 Q1686.87 397.116 1683.99 393.991 Q1681.14 390.866 1676.42 390.866 Q1671.07 390.866 1667.84 393.887 Q1664.65 396.908 1664.16 402.394 L1686.94 402.359 Z" fill="#000000" fill-rule="evenodd" fill-opacity="1" /><path clip-path="url(#clip550)" d="M1703.16 409.929 L1703.16 386.387 L1709.54 386.387 L1709.54 409.686 Q1709.54 415.206 1711.7 417.984 Q1713.85 420.727 1718.16 420.727 Q1723.33 420.727 1726.31 417.429 Q1729.34 414.13 1729.34 408.436 L1729.34 386.387 L1735.72 386.387 L1735.72 425.276 L1729.34 425.276 L1729.34 419.304 Q1727.01 422.845 1723.92 424.581 Q1720.86 426.283 1716.8 426.283 Q1710.1 426.283 1706.63 422.116 Q1703.16 417.949 1703.16 409.929 M1719.23 385.45 L1719.23 385.45 Z" fill="#000000" fill-rule="evenodd" fill-opacity="1" /><path clip-path="url(#clip550)" d="M1771.42 392.359 Q1770.34 391.734 1769.06 391.456 Q1767.81 391.144 1766.28 391.144 Q1760.86 391.144 1757.95 394.686 Q1755.06 398.193 1755.06 404.79 L1755.06 425.276 L1748.64 425.276 L1748.64 386.387 L1755.06 386.387 L1755.06 392.429 Q1757.08 388.887 1760.31 387.186 Q1763.54 385.45 1768.15 385.45 Q1768.81 385.45 1769.61 385.554 Q1770.41 385.623 1771.38 385.797 L1771.42 392.359 Z" fill="#000000" fill-rule="evenodd" fill-opacity="1" /><path clip-path="url(#clip550)" d="M1795.79 405.727 Q1788.05 405.727 1785.06 407.498 Q1782.08 409.269 1782.08 413.54 Q1782.08 416.942 1784.3 418.956 Q1786.56 420.935 1790.41 420.935 Q1795.72 420.935 1798.92 417.185 Q1802.15 413.401 1802.15 407.151 L1802.15 405.727 L1795.79 405.727 M1808.54 403.088 L1808.54 425.276 L1802.15 425.276 L1802.15 419.373 Q1799.96 422.915 1796.7 424.616 Q1793.43 426.283 1788.71 426.283 Q1782.74 426.283 1779.2 422.949 Q1775.69 419.581 1775.69 413.956 Q1775.69 407.394 1780.06 404.061 Q1784.47 400.727 1793.19 400.727 L1802.15 400.727 L1802.15 400.102 Q1802.15 395.693 1799.23 393.297 Q1796.35 390.866 1791.11 390.866 Q1787.77 390.866 1784.61 391.665 Q1781.45 392.463 1778.54 394.061 L1778.54 388.158 Q1782.04 386.804 1785.34 386.144 Q1788.64 385.45 1791.77 385.45 Q1800.2 385.45 1804.37 389.825 Q1808.54 394.199 1808.54 403.088 Z" fill="#000000" fill-rule="evenodd" fill-opacity="1" /><path clip-path="url(#clip550)" d="M1821.7 371.248 L1828.09 371.248 L1828.09 425.276 L1821.7 425.276 L1821.7 371.248 Z" fill="#000000" fill-rule="evenodd" fill-opacity="1" /><path clip-path="url(#clip550)" d="M1841.73 373.436 L1871.52 373.436 L1871.52 379.338 L1848.74 379.338 L1848.74 394.616 L1869.3 394.616 L1869.3 400.519 L1848.74 400.519 L1848.74 425.276 L1841.73 425.276 L1841.73 373.436 Z" fill="#000000" fill-rule="evenodd" fill-opacity="1" /><path clip-path="url(#clip550)" d="M1882.63 373.436 L1893.08 373.436 L1906.31 408.713 L1919.61 373.436 L1930.06 373.436 L1930.06 425.276 L1923.22 425.276 L1923.22 379.755 L1909.86 415.31 L1902.81 415.31 L1889.44 379.755 L1889.44 425.276 L1882.63 425.276 L1882.63 373.436 Z" fill="#000000" fill-rule="evenodd" fill-opacity="1" /><path clip-path="url(#clip550)" d="M1943.19 373.436 L1950.24 373.436 L1950.24 404.929 Q1950.24 413.262 1953.26 416.942 Q1956.28 420.588 1963.05 420.588 Q1969.79 420.588 1972.81 416.942 Q1975.83 413.262 1975.83 404.929 L1975.83 373.436 L1982.88 373.436 L1982.88 405.797 Q1982.88 415.935 1977.84 421.109 Q1972.84 426.283 1963.05 426.283 Q1953.22 426.283 1948.19 421.109 Q1943.19 415.935 1943.19 405.797 L1943.19 373.436 Z" fill="#000000" fill-rule="evenodd" fill-opacity="1" /><path clip-path="url(#clip550)" d="M2033.71 371.318 Q2029.06 379.304 2026.8 387.116 Q2024.54 394.929 2024.54 402.949 Q2024.54 410.97 2026.8 418.852 Q2029.09 426.699 2033.71 434.651 L2028.15 434.651 Q2022.95 426.491 2020.34 418.609 Q2017.77 410.727 2017.77 402.949 Q2017.77 395.206 2020.34 387.359 Q2022.91 379.512 2028.15 371.318 L2033.71 371.318 Z" fill="#000000" fill-rule="evenodd" fill-opacity="1" /><path clip-path="url(#clip550)" d="M2053.05 419.373 L2077.53 419.373 L2077.53 425.276 L2044.61 425.276 L2044.61 419.373 Q2048.6 415.241 2055.48 408.297 Q2062.39 401.318 2064.16 399.304 Q2067.53 395.519 2068.85 392.915 Q2070.2 390.276 2070.2 387.741 Q2070.2 383.609 2067.29 381.005 Q2064.4 378.401 2059.75 378.401 Q2056.45 378.401 2052.77 379.547 Q2049.13 380.693 2044.96 383.019 L2044.96 375.936 Q2049.2 374.234 2052.88 373.366 Q2056.56 372.498 2059.61 372.498 Q2067.67 372.498 2072.46 376.526 Q2077.25 380.554 2077.25 387.29 Q2077.25 390.484 2076.04 393.366 Q2074.85 396.213 2071.69 400.102 Q2070.83 401.109 2066.17 405.936 Q2061.52 410.727 2053.05 419.373 Z" fill="#000000" fill-rule="evenodd" fill-opacity="1" /><path clip-path="url(#clip550)" d="M2092.32 373.436 L2119.85 373.436 L2119.85 379.338 L2098.74 379.338 L2098.74 392.047 Q2100.27 391.526 2101.8 391.283 Q2103.33 391.005 2104.85 391.005 Q2113.53 391.005 2118.6 395.762 Q2123.67 400.519 2123.67 408.644 Q2123.67 417.012 2118.47 421.665 Q2113.26 426.283 2103.78 426.283 Q2100.51 426.283 2097.11 425.727 Q2093.74 425.172 2090.13 424.06 L2090.13 417.012 Q2093.26 418.713 2096.59 419.547 Q2099.92 420.38 2103.64 420.38 Q2109.65 420.38 2113.15 417.22 Q2116.66 414.06 2116.66 408.644 Q2116.66 403.227 2113.15 400.068 Q2109.65 396.908 2103.64 396.908 Q2100.83 396.908 2098.01 397.533 Q2095.24 398.158 2092.32 399.477 L2092.32 373.436 Z" fill="#000000" fill-rule="evenodd" fill-opacity="1" /><path clip-path="url(#clip550)" d="M2152.49 378.054 Q2147.08 378.054 2144.33 383.401 Q2141.63 388.713 2141.63 399.408 Q2141.63 410.067 2144.33 415.415 Q2147.08 420.727 2152.49 420.727 Q2157.94 420.727 2160.65 415.415 Q2163.4 410.067 2163.4 399.408 Q2163.4 388.713 2160.65 383.401 Q2157.94 378.054 2152.49 378.054 M2152.49 372.498 Q2161.21 372.498 2165.79 379.408 Q2170.41 386.283 2170.41 399.408 Q2170.41 412.498 2165.79 419.408 Q2161.21 426.283 2152.49 426.283 Q2143.78 426.283 2139.16 419.408 Q2134.58 412.498 2134.58 399.408 Q2134.58 386.283 2139.16 379.408 Q2143.78 372.498 2152.49 372.498 Z" fill="#000000" fill-rule="evenodd" fill-opacity="1" /><path clip-path="url(#clip550)" d="M2197.74 378.054 Q2192.32 378.054 2189.58 383.401 Q2186.87 388.713 2186.87 399.408 Q2186.87 410.067 2189.58 415.415 Q2192.32 420.727 2197.74 420.727 Q2203.19 420.727 2205.9 415.415 Q2208.64 410.067 2208.64 399.408 Q2208.64 388.713 2205.9 383.401 Q2203.19 378.054 2197.74 378.054 M2197.74 372.498 Q2206.45 372.498 2211.03 379.408 Q2215.65 386.283 2215.65 399.408 Q2215.65 412.498 2211.03 419.408 Q2206.45 426.283 2197.74 426.283 Q2189.02 426.283 2184.4 419.408 Q2179.82 412.498 2179.82 399.408 Q2179.82 386.283 2184.4 379.408 Q2189.02 372.498 2197.74 372.498 Z" fill="#000000" fill-rule="evenodd" fill-opacity="1" /><path clip-path="url(#clip550)" d="M2226.07 371.318 L2231.62 371.318 Q2236.83 379.512 2239.4 387.359 Q2242.01 395.206 2242.01 402.949 Q2242.01 410.727 2239.4 418.609 Q2236.83 426.491 2231.62 434.651 L2226.07 434.651 Q2230.69 426.699 2232.94 418.852 Q2235.24 410.97 2235.24 402.949 Q2235.24 394.929 2232.94 387.116 Q2230.69 379.304 2226.07 371.318 Z" fill="#000000" fill-rule="evenodd" fill-opacity="1" /></svg>
