<?xml version="1.0" encoding="utf-8"?>
<svg xmlns="http://www.w3.org/2000/svg" xmlns:xlink="http://www.w3.org/1999/xlink" width="600" height="400" viewBox="0 0 2400 1600">
<defs>
  <clipPath id="clip410">
    <rect x="0" y="0" width="2400" height="1600"/>
  </clipPath>
</defs>
<path clip-path="url(#clip410)" d="
M0 1600 L2400 1600 L2400 0 L0 0  Z
  " fill="#ffffff" fill-rule="evenodd" fill-opacity="1"/>
<defs>
  <clipPath id="clip411">
    <rect x="480" y="0" width="1681" height="1600"/>
  </clipPath>
</defs>
<path clip-path="url(#clip410)" d="
M302.01 1401.58 L2352.76 1401.58 L2352.76 123.472 L302.01 123.472  Z
  " fill="#ffffff" fill-rule="evenodd" fill-opacity="1"/>
<defs>
  <clipPath id="clip412">
    <rect x="302" y="123" width="2052" height="1279"/>
  </clipPath>
</defs>
<polyline clip-path="url(#clip412)" style="stroke:#000000; stroke-linecap:butt; stroke-linejoin:round; stroke-width:2; stroke-opacity:0.1; fill:none" points="
  360.05,1401.58 360.05,123.472 
  "/>
<polyline clip-path="url(#clip412)" style="stroke:#000000; stroke-linecap:butt; stroke-linejoin:round; stroke-width:2; stroke-opacity:0.1; fill:none" points="
  843.716,1401.58 843.716,123.472 
  "/>
<polyline clip-path="url(#clip412)" style="stroke:#000000; stroke-linecap:butt; stroke-linejoin:round; stroke-width:2; stroke-opacity:0.1; fill:none" points="
  1327.38,1401.58 1327.38,123.472 
  "/>
<polyline clip-path="url(#clip412)" style="stroke:#000000; stroke-linecap:butt; stroke-linejoin:round; stroke-width:2; stroke-opacity:0.1; fill:none" points="
  1811.05,1401.58 1811.05,123.472 
  "/>
<polyline clip-path="url(#clip412)" style="stroke:#000000; stroke-linecap:butt; stroke-linejoin:round; stroke-width:2; stroke-opacity:0.1; fill:none" points="
  2294.72,1401.58 2294.72,123.472 
  "/>
<polyline clip-path="url(#clip410)" style="stroke:#000000; stroke-linecap:butt; stroke-linejoin:round; stroke-width:4; stroke-opacity:1; fill:none" points="
  302.01,1401.58 2352.76,1401.58 
  "/>
<polyline clip-path="url(#clip410)" style="stroke:#000000; stroke-linecap:butt; stroke-linejoin:round; stroke-width:4; stroke-opacity:1; fill:none" points="
  360.05,1401.58 360.05,1382.68 
  "/>
<polyline clip-path="url(#clip410)" style="stroke:#000000; stroke-linecap:butt; stroke-linejoin:round; stroke-width:4; stroke-opacity:1; fill:none" points="
  843.716,1401.58 843.716,1382.68 
  "/>
<polyline clip-path="url(#clip410)" style="stroke:#000000; stroke-linecap:butt; stroke-linejoin:round; stroke-width:4; stroke-opacity:1; fill:none" points="
  1327.38,1401.58 1327.38,1382.68 
  "/>
<polyline clip-path="url(#clip410)" style="stroke:#000000; stroke-linecap:butt; stroke-linejoin:round; stroke-width:4; stroke-opacity:1; fill:none" points="
  1811.05,1401.58 1811.05,1382.68 
  "/>
<polyline clip-path="url(#clip410)" style="stroke:#000000; stroke-linecap:butt; stroke-linejoin:round; stroke-width:4; stroke-opacity:1; fill:none" points="
  2294.72,1401.58 2294.72,1382.68 
  "/>
<path clip-path="url(#clip410)" d="M360.05 1438.36 Q354.633 1438.36 351.89 1443.71 Q349.182 1449.02 349.182 1459.71 Q349.182 1470.37 351.89 1475.72 Q354.633 1481.03 360.05 1481.03 Q365.501 1481.03 368.21 1475.72 Q370.953 1470.37 370.953 1459.71 Q370.953 1449.02 368.21 1443.71 Q365.501 1438.36 360.05 1438.36 M360.05 1432.8 Q368.765 1432.8 373.348 1439.71 Q377.966 1446.59 377.966 1459.71 Q377.966 1472.8 373.348 1479.71 Q368.765 1486.59 360.05 1486.59 Q351.335 1486.59 346.717 1479.71 Q342.133 1472.8 342.133 1459.71 Q342.133 1446.59 346.717 1439.71 Q351.335 1432.8 360.05 1432.8 Z" fill="#000000" fill-rule="evenodd" fill-opacity="1" /><path clip-path="url(#clip410)" d="M829.289 1479.68 L840.748 1479.68 L840.748 1440.13 L828.282 1442.63 L828.282 1436.24 L840.678 1433.74 L847.692 1433.74 L847.692 1479.68 L859.15 1479.68 L859.15 1485.58 L829.289 1485.58 L829.289 1479.68 Z" fill="#000000" fill-rule="evenodd" fill-opacity="1" /><path clip-path="url(#clip410)" d="M1319.36 1479.68 L1343.84 1479.68 L1343.84 1485.58 L1310.92 1485.58 L1310.92 1479.68 Q1314.92 1475.55 1321.79 1468.6 Q1328.7 1461.62 1330.47 1459.61 Q1333.84 1455.82 1335.16 1453.22 Q1336.51 1450.58 1336.51 1448.05 Q1336.51 1443.91 1333.6 1441.31 Q1330.72 1438.71 1326.06 1438.71 Q1322.76 1438.71 1319.08 1439.85 Q1315.44 1441 1311.27 1443.32 L1311.27 1436.24 Q1315.51 1434.54 1319.19 1433.67 Q1322.87 1432.8 1325.92 1432.8 Q1333.98 1432.8 1338.77 1436.83 Q1343.56 1440.86 1343.56 1447.59 Q1343.56 1450.79 1342.35 1453.67 Q1341.17 1456.52 1338.01 1460.41 Q1337.14 1461.41 1332.49 1466.24 Q1327.83 1471.03 1319.36 1479.68 Z" fill="#000000" fill-rule="evenodd" fill-opacity="1" /><path clip-path="url(#clip410)" d="M1817.42 1457.63 Q1822.46 1458.7 1825.27 1462.11 Q1828.12 1465.51 1828.12 1470.51 Q1828.12 1478.18 1822.84 1482.39 Q1817.56 1486.59 1807.84 1486.59 Q1804.57 1486.59 1801.1 1485.93 Q1797.66 1485.3 1793.98 1484.02 L1793.98 1477.25 Q1796.9 1478.95 1800.37 1479.82 Q1803.84 1480.68 1807.63 1480.68 Q1814.23 1480.68 1817.66 1478.08 Q1821.14 1475.48 1821.14 1470.51 Q1821.14 1465.93 1817.91 1463.36 Q1814.71 1460.75 1808.98 1460.75 L1802.94 1460.75 L1802.94 1454.99 L1809.26 1454.99 Q1814.43 1454.99 1817.18 1452.94 Q1819.92 1450.86 1819.92 1446.97 Q1819.92 1442.98 1817.07 1440.86 Q1814.26 1438.71 1808.98 1438.71 Q1806.1 1438.71 1802.8 1439.33 Q1799.5 1439.96 1795.55 1441.27 L1795.55 1435.02 Q1799.54 1433.91 1803.01 1433.36 Q1806.52 1432.8 1809.61 1432.8 Q1817.59 1432.8 1822.25 1436.45 Q1826.9 1440.06 1826.9 1446.24 Q1826.9 1450.55 1824.43 1453.53 Q1821.97 1456.48 1817.42 1457.63 Z" fill="#000000" fill-rule="evenodd" fill-opacity="1" /><path clip-path="url(#clip410)" d="M2299.23 1439.85 L2281.52 1467.52 L2299.23 1467.52 L2299.23 1439.85 M2297.39 1433.74 L2306.21 1433.74 L2306.21 1467.52 L2313.6 1467.52 L2313.6 1473.36 L2306.21 1473.36 L2306.21 1485.58 L2299.23 1485.58 L2299.23 1473.36 L2275.83 1473.36 L2275.83 1466.59 L2297.39 1433.74 Z" fill="#000000" fill-rule="evenodd" fill-opacity="1" /><path clip-path="url(#clip410)" d="M1270.99 1527.62 L1270.99 1538.66 L1284.15 1538.66 L1284.15 1543.62 L1270.99 1543.62 L1270.99 1564.74 Q1270.99 1569.49 1272.28 1570.85 Q1273.6 1572.2 1277.59 1572.2 L1284.15 1572.2 L1284.15 1577.55 L1277.59 1577.55 Q1270.2 1577.55 1267.38 1574.8 Q1264.57 1572.03 1264.57 1564.74 L1264.57 1543.62 L1259.88 1543.62 L1259.88 1538.66 L1264.57 1538.66 L1264.57 1527.62 L1270.99 1527.62 Z" fill="#000000" fill-rule="evenodd" fill-opacity="1" /><path clip-path="url(#clip410)" d="M1314.57 1523.52 L1329.29 1523.52 L1329.29 1528.49 L1320.96 1528.49 L1320.96 1581.96 L1329.29 1581.96 L1329.29 1586.92 L1314.57 1586.92 L1314.57 1523.52 Z" fill="#000000" fill-rule="evenodd" fill-opacity="1" /><path clip-path="url(#clip410)" d="M1367.7 1539.8 L1367.7 1545.85 Q1364.99 1544.46 1362.07 1543.76 Q1359.15 1543.07 1356.03 1543.07 Q1351.27 1543.07 1348.88 1544.53 Q1346.51 1545.99 1346.51 1548.9 Q1346.51 1551.12 1348.22 1552.41 Q1349.92 1553.66 1355.06 1554.8 L1357.24 1555.29 Q1364.05 1556.75 1366.9 1559.42 Q1369.78 1562.06 1369.78 1566.82 Q1369.78 1572.24 1365.47 1575.4 Q1361.2 1578.55 1353.7 1578.55 Q1350.58 1578.55 1347.17 1577.93 Q1343.81 1577.34 1340.06 1576.12 L1340.06 1569.53 Q1343.6 1571.37 1347.04 1572.3 Q1350.47 1573.21 1353.84 1573.21 Q1358.35 1573.21 1360.79 1571.68 Q1363.22 1570.12 1363.22 1567.3 Q1363.22 1564.7 1361.45 1563.31 Q1359.71 1561.92 1353.77 1560.64 L1351.55 1560.12 Q1345.61 1558.87 1342.97 1556.3 Q1340.33 1553.69 1340.33 1549.18 Q1340.33 1543.69 1344.22 1540.71 Q1348.11 1537.72 1355.26 1537.72 Q1358.81 1537.72 1361.93 1538.24 Q1365.06 1538.76 1367.7 1539.8 Z" fill="#000000" fill-rule="evenodd" fill-opacity="1" /><path clip-path="url(#clip410)" d="M1394.88 1523.52 L1394.88 1586.92 L1380.16 1586.92 L1380.16 1581.96 L1388.46 1581.96 L1388.46 1528.49 L1380.16 1528.49 L1380.16 1523.52 L1394.88 1523.52 Z" fill="#000000" fill-rule="evenodd" fill-opacity="1" /><polyline clip-path="url(#clip412)" style="stroke:#000000; stroke-linecap:butt; stroke-linejoin:round; stroke-width:2; stroke-opacity:0.1; fill:none" points="
  302.01,1143.39 2352.76,1143.39 
  "/>
<polyline clip-path="url(#clip412)" style="stroke:#000000; stroke-linecap:butt; stroke-linejoin:round; stroke-width:2; stroke-opacity:0.1; fill:none" points="
  302.01,848.833 2352.76,848.833 
  "/>
<polyline clip-path="url(#clip412)" style="stroke:#000000; stroke-linecap:butt; stroke-linejoin:round; stroke-width:2; stroke-opacity:0.1; fill:none" points="
  302.01,554.278 2352.76,554.278 
  "/>
<polyline clip-path="url(#clip412)" style="stroke:#000000; stroke-linecap:butt; stroke-linejoin:round; stroke-width:2; stroke-opacity:0.1; fill:none" points="
  302.01,259.723 2352.76,259.723 
  "/>
<polyline clip-path="url(#clip410)" style="stroke:#000000; stroke-linecap:butt; stroke-linejoin:round; stroke-width:4; stroke-opacity:1; fill:none" points="
  302.01,1401.58 302.01,123.472 
  "/>
<polyline clip-path="url(#clip410)" style="stroke:#000000; stroke-linecap:butt; stroke-linejoin:round; stroke-width:4; stroke-opacity:1; fill:none" points="
  302.01,1143.39 320.908,1143.39 
  "/>
<polyline clip-path="url(#clip410)" style="stroke:#000000; stroke-linecap:butt; stroke-linejoin:round; stroke-width:4; stroke-opacity:1; fill:none" points="
  302.01,848.833 320.908,848.833 
  "/>
<polyline clip-path="url(#clip410)" style="stroke:#000000; stroke-linecap:butt; stroke-linejoin:round; stroke-width:4; stroke-opacity:1; fill:none" points="
  302.01,554.278 320.908,554.278 
  "/>
<polyline clip-path="url(#clip410)" style="stroke:#000000; stroke-linecap:butt; stroke-linejoin:round; stroke-width:4; stroke-opacity:1; fill:none" points="
  302.01,259.723 320.908,259.723 
  "/>
<path clip-path="url(#clip410)" d="M136.497 1122.09 Q131.08 1122.09 128.337 1127.43 Q125.629 1132.75 125.629 1143.44 Q125.629 1154.1 128.337 1159.45 Q131.08 1164.76 136.497 1164.76 Q141.948 1164.76 144.656 1159.45 Q147.399 1154.1 147.399 1143.44 Q147.399 1132.75 144.656 1127.43 Q141.948 1122.09 136.497 1122.09 M136.497 1116.53 Q145.212 1116.53 149.795 1123.44 Q154.413 1130.31 154.413 1143.44 Q154.413 1156.53 149.795 1163.44 Q145.212 1170.31 136.497 1170.31 Q127.781 1170.31 123.163 1163.44 Q118.58 1156.53 118.58 1143.44 Q118.58 1130.31 123.163 1123.44 Q127.781 1116.53 136.497 1116.53 Z" fill="#000000" fill-rule="evenodd" fill-opacity="1" /><path clip-path="url(#clip410)" d="M166.74 1160.49 L174.066 1160.49 L174.066 1169.31 L166.74 1169.31 L166.74 1160.49 Z" fill="#000000" fill-rule="evenodd" fill-opacity="1" /><path clip-path="url(#clip410)" d="M187.573 1117.47 L220.906 1117.47 L220.906 1120.45 L202.087 1169.31 L194.76 1169.31 L212.469 1123.37 L187.573 1123.37 L187.573 1117.47 Z" fill="#000000" fill-rule="evenodd" fill-opacity="1" /><path clip-path="url(#clip410)" d="M234.656 1117.47 L262.19 1117.47 L262.19 1123.37 L241.08 1123.37 L241.08 1136.08 Q242.607 1135.56 244.135 1135.31 Q245.663 1135.04 247.191 1135.04 Q255.871 1135.04 260.941 1139.79 Q266.01 1144.55 266.01 1152.68 Q266.01 1161.04 260.802 1165.7 Q255.593 1170.31 246.114 1170.31 Q242.85 1170.31 239.448 1169.76 Q236.08 1169.2 232.468 1168.09 L232.468 1161.04 Q235.593 1162.75 238.927 1163.58 Q242.26 1164.41 245.975 1164.41 Q251.982 1164.41 255.489 1161.25 Q258.996 1158.09 258.996 1152.68 Q258.996 1147.26 255.489 1144.1 Q251.982 1140.94 245.975 1140.94 Q243.163 1140.94 240.35 1141.56 Q237.573 1142.19 234.656 1143.51 L234.656 1117.47 Z" fill="#000000" fill-rule="evenodd" fill-opacity="1" /><path clip-path="url(#clip410)" d="M121.219 868.85 L132.677 868.85 L132.677 829.301 L120.212 831.801 L120.212 825.413 L132.608 822.913 L139.622 822.913 L139.622 868.85 L151.08 868.85 L151.08 874.753 L121.219 874.753 L121.219 868.85 Z" fill="#000000" fill-rule="evenodd" fill-opacity="1" /><path clip-path="url(#clip410)" d="M165.247 865.933 L172.573 865.933 L172.573 874.753 L165.247 874.753 L165.247 865.933 Z" fill="#000000" fill-rule="evenodd" fill-opacity="1" /><path clip-path="url(#clip410)" d="M202.851 827.531 Q197.434 827.531 194.691 832.878 Q191.983 838.19 191.983 848.885 Q191.983 859.544 194.691 864.892 Q197.434 870.204 202.851 870.204 Q208.302 870.204 211.01 864.892 Q213.753 859.544 213.753 848.885 Q213.753 838.19 211.01 832.878 Q208.302 827.531 202.851 827.531 M202.851 821.975 Q211.566 821.975 216.149 828.885 Q220.767 835.76 220.767 848.885 Q220.767 861.975 216.149 868.885 Q211.566 875.76 202.851 875.76 Q194.135 875.76 189.517 868.885 Q184.934 861.975 184.934 848.885 Q184.934 835.76 189.517 828.885 Q194.135 821.975 202.851 821.975 Z" fill="#000000" fill-rule="evenodd" fill-opacity="1" /><path clip-path="url(#clip410)" d="M248.093 827.531 Q242.677 827.531 239.934 832.878 Q237.225 838.19 237.225 848.885 Q237.225 859.544 239.934 864.892 Q242.677 870.204 248.093 870.204 Q253.545 870.204 256.253 864.892 Q258.996 859.544 258.996 848.885 Q258.996 838.19 256.253 832.878 Q253.545 827.531 248.093 827.531 M248.093 821.975 Q256.809 821.975 261.392 828.885 Q266.01 835.76 266.01 848.885 Q266.01 861.975 261.392 868.885 Q256.809 875.76 248.093 875.76 Q239.378 875.76 234.76 868.885 Q230.177 861.975 230.177 848.885 Q230.177 835.76 234.76 828.885 Q239.378 821.975 248.093 821.975 Z" fill="#000000" fill-rule="evenodd" fill-opacity="1" /><path clip-path="url(#clip410)" d="M122.712 574.295 L134.17 574.295 L134.17 534.747 L121.705 537.247 L121.705 530.858 L134.101 528.358 L141.115 528.358 L141.115 574.295 L152.573 574.295 L152.573 580.198 L122.712 580.198 L122.712 574.295 Z" fill="#000000" fill-rule="evenodd" fill-opacity="1" /><path clip-path="url(#clip410)" d="M166.74 571.378 L174.066 571.378 L174.066 580.198 L166.74 580.198 L166.74 571.378 Z" fill="#000000" fill-rule="evenodd" fill-opacity="1" /><path clip-path="url(#clip410)" d="M195.385 574.295 L219.864 574.295 L219.864 580.198 L186.948 580.198 L186.948 574.295 Q190.941 570.163 197.816 563.219 Q204.726 556.24 206.496 554.226 Q209.864 550.441 211.184 547.837 Q212.538 545.198 212.538 542.663 Q212.538 538.531 209.621 535.927 Q206.739 533.323 202.087 533.323 Q198.788 533.323 195.108 534.469 Q191.462 535.615 187.295 537.941 L187.295 530.858 Q191.531 529.156 195.212 528.288 Q198.892 527.42 201.948 527.42 Q210.003 527.42 214.795 531.448 Q219.587 535.476 219.587 542.212 Q219.587 545.406 218.371 548.288 Q217.191 551.135 214.031 555.024 Q213.163 556.031 208.51 560.858 Q203.857 565.649 195.385 574.295 Z" fill="#000000" fill-rule="evenodd" fill-opacity="1" /><path clip-path="url(#clip410)" d="M234.656 528.358 L262.19 528.358 L262.19 534.261 L241.08 534.261 L241.08 546.969 Q242.607 546.448 244.135 546.205 Q245.663 545.927 247.191 545.927 Q255.871 545.927 260.941 550.684 Q266.01 555.441 266.01 563.566 Q266.01 571.934 260.802 576.587 Q255.593 581.205 246.114 581.205 Q242.85 581.205 239.448 580.649 Q236.08 580.094 232.468 578.983 L232.468 571.934 Q235.593 573.635 238.927 574.469 Q242.26 575.302 245.975 575.302 Q251.982 575.302 255.489 572.142 Q258.996 568.983 258.996 563.566 Q258.996 558.149 255.489 554.99 Q251.982 551.83 245.975 551.83 Q243.163 551.83 240.35 552.455 Q237.573 553.08 234.656 554.399 L234.656 528.358 Z" fill="#000000" fill-rule="evenodd" fill-opacity="1" /><path clip-path="url(#clip410)" d="M121.219 279.74 L132.677 279.74 L132.677 240.192 L120.212 242.692 L120.212 236.303 L132.608 233.803 L139.622 233.803 L139.622 279.74 L151.08 279.74 L151.08 285.643 L121.219 285.643 L121.219 279.74 Z" fill="#000000" fill-rule="evenodd" fill-opacity="1" /><path clip-path="url(#clip410)" d="M165.247 276.824 L172.573 276.824 L172.573 285.643 L165.247 285.643 L165.247 276.824 Z" fill="#000000" fill-rule="evenodd" fill-opacity="1" /><path clip-path="url(#clip410)" d="M187.92 233.803 L215.455 233.803 L215.455 239.706 L194.344 239.706 L194.344 252.414 Q195.871 251.893 197.399 251.65 Q198.927 251.372 200.455 251.372 Q209.135 251.372 214.205 256.129 Q219.274 260.886 219.274 269.011 Q219.274 277.379 214.066 282.032 Q208.857 286.65 199.378 286.65 Q196.114 286.65 192.712 286.094 Q189.344 285.539 185.733 284.428 L185.733 277.379 Q188.858 279.08 192.191 279.914 Q195.524 280.747 199.239 280.747 Q205.246 280.747 208.753 277.587 Q212.26 274.428 212.26 269.011 Q212.26 263.594 208.753 260.435 Q205.246 257.275 199.239 257.275 Q196.427 257.275 193.614 257.9 Q190.837 258.525 187.92 259.844 L187.92 233.803 Z" fill="#000000" fill-rule="evenodd" fill-opacity="1" /><path clip-path="url(#clip410)" d="M248.093 238.421 Q242.677 238.421 239.934 243.768 Q237.225 249.081 237.225 259.775 Q237.225 270.435 239.934 275.782 Q242.677 281.094 248.093 281.094 Q253.545 281.094 256.253 275.782 Q258.996 270.435 258.996 259.775 Q258.996 249.081 256.253 243.768 Q253.545 238.421 248.093 238.421 M248.093 232.865 Q256.809 232.865 261.392 239.775 Q266.01 246.65 266.01 259.775 Q266.01 272.865 261.392 279.775 Q256.809 286.65 248.093 286.65 Q239.378 286.65 234.76 279.775 Q230.177 272.865 230.177 259.775 Q230.177 246.65 234.76 239.775 Q239.378 232.865 248.093 232.865 Z" fill="#000000" fill-rule="evenodd" fill-opacity="1" /><path clip-path="url(#clip410)" d="M35.6047 1045.01 Q31.2992 1042.61 29.2506 1039.28 Q27.202 1035.94 27.202 1031.43 Q27.202 1025.35 31.4728 1022.06 Q35.7089 1018.76 43.5561 1018.76 L67.0282 1018.76 L67.0282 1025.18 L43.7644 1025.18 Q38.1741 1025.18 35.4658 1027.16 Q32.7575 1029.14 32.7575 1033.2 Q32.7575 1038.17 36.0561 1041.05 Q39.3547 1043.93 45.0491 1043.93 L67.0282 1043.93 L67.0282 1050.35 L43.7644 1050.35 Q38.1394 1050.35 35.4658 1052.33 Q32.7575 1054.31 32.7575 1058.44 Q32.7575 1063.34 36.0908 1066.22 Q39.3894 1069.1 45.0491 1069.1 L67.0282 1069.1 L67.0282 1075.53 L28.1395 1075.53 L28.1395 1069.1 L34.1811 1069.1 Q30.6047 1066.92 28.9034 1063.86 Q27.202 1060.81 27.202 1056.6 Q27.202 1052.37 29.3547 1049.42 Q31.5075 1046.43 35.6047 1045.01 Z" fill="#000000" fill-rule="evenodd" fill-opacity="1" /><path clip-path="url(#clip410)" d="M47.4797 988.341 Q47.4797 996.084 49.2505 999.07 Q51.0213 1002.06 55.2921 1002.06 Q58.6949 1002.06 60.7087 999.834 Q62.6879 997.577 62.6879 993.723 Q62.6879 988.41 58.9379 985.216 Q55.1532 981.987 48.9033 981.987 L47.4797 981.987 L47.4797 988.341 M44.8408 975.598 L67.0282 975.598 L67.0282 981.987 L61.1254 981.987 Q64.6671 984.174 66.3684 987.438 Q68.0351 990.702 68.0351 995.424 Q68.0351 1001.4 64.7018 1004.94 Q61.3337 1008.44 55.7088 1008.44 Q49.1463 1008.44 45.813 1004.07 Q42.4797 999.66 42.4797 990.945 L42.4797 981.987 L41.8547 981.987 Q37.445 981.987 35.0492 984.903 Q32.6186 987.785 32.6186 993.028 Q32.6186 996.362 33.4172 999.521 Q34.2158 1002.68 35.813 1005.6 L29.9103 1005.6 Q28.5561 1002.09 27.8964 998.792 Q27.202 995.493 27.202 992.369 Q27.202 983.931 31.577 979.764 Q35.9519 975.598 44.8408 975.598 Z" fill="#000000" fill-rule="evenodd" fill-opacity="1" /><path clip-path="url(#clip410)" d="M29.2853 937.647 L35.3269 937.647 Q33.9381 940.355 33.2436 943.272 Q32.5492 946.188 32.5492 949.313 Q32.5492 954.07 34.0075 956.466 Q35.4658 958.827 38.3825 958.827 Q40.6047 958.827 41.8894 957.126 Q43.1394 955.424 44.2852 950.285 L44.7713 948.098 Q46.2297 941.292 48.9033 938.445 Q51.5421 935.563 56.299 935.563 Q61.7157 935.563 64.8754 939.869 Q68.0351 944.14 68.0351 951.64 Q68.0351 954.765 67.4101 958.167 Q66.8198 961.535 65.6046 965.285 L59.0074 965.285 Q60.8476 961.744 61.7851 958.306 Q62.6879 954.869 62.6879 951.501 Q62.6879 946.987 61.1601 944.556 Q59.5976 942.126 56.7852 942.126 Q54.181 942.126 52.7921 943.897 Q51.4032 945.633 50.1185 951.57 L49.5977 953.792 Q48.3477 959.73 45.7783 962.369 Q43.1741 965.008 38.6603 965.008 Q33.1742 965.008 30.1881 961.119 Q27.202 957.23 27.202 950.077 Q27.202 946.535 27.7228 943.41 Q28.2436 940.285 29.2853 937.647 Z" fill="#000000" fill-rule="evenodd" fill-opacity="1" /><path clip-path="url(#clip410)" d="M29.2853 900.598 L35.3269 900.598 Q33.9381 903.306 33.2436 906.223 Q32.5492 909.14 32.5492 912.265 Q32.5492 917.022 34.0075 919.418 Q35.4658 921.779 38.3825 921.779 Q40.6047 921.779 41.8894 920.077 Q43.1394 918.376 44.2852 913.237 L44.7713 911.049 Q46.2297 904.244 48.9033 901.397 Q51.5421 898.515 56.299 898.515 Q61.7157 898.515 64.8754 902.82 Q68.0351 907.091 68.0351 914.591 Q68.0351 917.716 67.4101 921.119 Q66.8198 924.487 65.6046 928.237 L59.0074 928.237 Q60.8476 924.695 61.7851 921.258 Q62.6879 917.82 62.6879 914.452 Q62.6879 909.938 61.1601 907.508 Q59.5976 905.077 56.7852 905.077 Q54.181 905.077 52.7921 906.848 Q51.4032 908.584 50.1185 914.522 L49.5977 916.744 Q48.3477 922.681 45.7783 925.32 Q43.1741 927.959 38.6603 927.959 Q33.1742 927.959 30.1881 924.07 Q27.202 920.181 27.202 913.029 Q27.202 909.487 27.7228 906.362 Q28.2436 903.237 29.2853 900.598 Z" fill="#000000" fill-rule="evenodd" fill-opacity="1" /><path clip-path="url(#clip410)" d="M61.1949 859.557 L81.8197 859.557 L81.8197 865.98 L28.1395 865.98 L28.1395 859.557 L34.0422 859.557 Q30.57 857.543 28.9034 854.487 Q27.202 851.397 27.202 847.126 Q27.202 840.043 32.827 835.633 Q38.4519 831.189 47.6185 831.189 Q56.7852 831.189 62.4101 835.633 Q68.0351 840.043 68.0351 847.126 Q68.0351 851.397 66.3684 854.487 Q64.6671 857.543 61.1949 859.557 M47.6185 837.821 Q40.57 837.821 36.5769 840.737 Q32.5492 843.619 32.5492 848.689 Q32.5492 853.758 36.5769 856.675 Q40.57 859.557 47.6185 859.557 Q54.6671 859.557 58.6949 856.675 Q62.6879 853.758 62.6879 848.689 Q62.6879 843.619 58.6949 840.737 Q54.6671 837.821 47.6185 837.821 Z" fill="#000000" fill-rule="evenodd" fill-opacity="1" /><path clip-path="url(#clip410)" d="M32.6186 805.529 Q32.6186 810.668 36.6464 813.654 Q40.6394 816.64 47.6185 816.64 Q54.5977 816.64 58.6254 813.689 Q62.6185 810.703 62.6185 805.529 Q62.6185 800.425 58.5907 797.439 Q54.5629 794.453 47.6185 794.453 Q40.7089 794.453 36.6811 797.439 Q32.6186 800.425 32.6186 805.529 M27.202 805.529 Q27.202 797.196 32.6186 792.439 Q38.0353 787.682 47.6185 787.682 Q57.1671 787.682 62.6185 792.439 Q68.0351 797.196 68.0351 805.529 Q68.0351 813.897 62.6185 818.654 Q57.1671 823.376 47.6185 823.376 Q38.0353 823.376 32.6186 818.654 Q27.202 813.897 27.202 805.529 Z" fill="#000000" fill-rule="evenodd" fill-opacity="1" /><path clip-path="url(#clip410)" d="M29.2853 752.3 L35.3269 752.3 Q33.9381 755.009 33.2436 757.925 Q32.5492 760.842 32.5492 763.967 Q32.5492 768.724 34.0075 771.12 Q35.4658 773.481 38.3825 773.481 Q40.6047 773.481 41.8894 771.779 Q43.1394 770.078 44.2852 764.939 L44.7713 762.752 Q46.2297 755.946 48.9033 753.099 Q51.5421 750.217 56.299 750.217 Q61.7157 750.217 64.8754 754.523 Q68.0351 758.793 68.0351 766.293 Q68.0351 769.418 67.4101 772.821 Q66.8198 776.189 65.6046 779.939 L59.0074 779.939 Q60.8476 776.397 61.7851 772.96 Q62.6879 769.522 62.6879 766.154 Q62.6879 761.641 61.1601 759.21 Q59.5976 756.779 56.7852 756.779 Q54.181 756.779 52.7921 758.55 Q51.4032 760.286 50.1185 766.224 L49.5977 768.446 Q48.3477 774.384 45.7783 777.022 Q43.1741 779.661 38.6603 779.661 Q33.1742 779.661 30.1881 775.772 Q27.202 771.884 27.202 764.731 Q27.202 761.189 27.7228 758.064 Q28.2436 754.939 29.2853 752.3 Z" fill="#000000" fill-rule="evenodd" fill-opacity="1" /><path clip-path="url(#clip410)" d="M28.1395 740.043 L28.1395 733.655 L67.0282 733.655 L67.0282 740.043 L28.1395 740.043 M13.0007 740.043 L13.0007 733.655 L21.0909 733.655 L21.0909 740.043 L13.0007 740.043 Z" fill="#000000" fill-rule="evenodd" fill-opacity="1" /><path clip-path="url(#clip410)" d="M17.0979 713.967 L28.1395 713.967 L28.1395 700.808 L33.1047 700.808 L33.1047 713.967 L54.2157 713.967 Q58.9726 713.967 60.3268 712.683 Q61.681 711.363 61.681 707.37 L61.681 700.808 L67.0282 700.808 L67.0282 707.37 Q67.0282 714.766 64.2851 717.578 Q61.5074 720.391 54.2157 720.391 L33.1047 720.391 L33.1047 725.078 L28.1395 725.078 L28.1395 720.391 L17.0979 720.391 L17.0979 713.967 Z" fill="#000000" fill-rule="evenodd" fill-opacity="1" /><path clip-path="url(#clip410)" d="M28.1395 692.405 L28.1395 686.016 L67.0282 686.016 L67.0282 692.405 L28.1395 692.405 M13.0007 692.405 L13.0007 686.016 L21.0909 686.016 L21.0909 692.405 L13.0007 692.405 Z" fill="#000000" fill-rule="evenodd" fill-opacity="1" /><path clip-path="url(#clip410)" d="M32.6186 657.579 Q32.6186 662.717 36.6464 665.704 Q40.6394 668.69 47.6185 668.69 Q54.5977 668.69 58.6254 665.738 Q62.6185 662.752 62.6185 657.579 Q62.6185 652.474 58.5907 649.488 Q54.5629 646.502 47.6185 646.502 Q40.7089 646.502 36.6811 649.488 Q32.6186 652.474 32.6186 657.579 M27.202 657.579 Q27.202 649.245 32.6186 644.488 Q38.0353 639.732 47.6185 639.732 Q57.1671 639.732 62.6185 644.488 Q68.0351 649.245 68.0351 657.579 Q68.0351 665.947 62.6185 670.704 Q57.1671 675.426 47.6185 675.426 Q38.0353 675.426 32.6186 670.704 Q27.202 665.947 27.202 657.579 Z" fill="#000000" fill-rule="evenodd" fill-opacity="1" /><path clip-path="url(#clip410)" d="M43.5561 596.815 L67.0282 596.815 L67.0282 603.204 L43.7644 603.204 Q38.2436 603.204 35.5005 605.357 Q32.7575 607.509 32.7575 611.815 Q32.7575 616.989 36.0561 619.975 Q39.3547 622.961 45.0491 622.961 L67.0282 622.961 L67.0282 629.384 L28.1395 629.384 L28.1395 622.961 L34.1811 622.961 Q30.6742 620.669 28.9381 617.579 Q27.202 614.454 27.202 610.391 Q27.202 603.69 31.3686 600.253 Q35.5005 596.815 43.5561 596.815 Z" fill="#000000" fill-rule="evenodd" fill-opacity="1" /><path clip-path="url(#clip410)" d="M13.0007 562.058 L13.0007 547.336 L17.9659 547.336 L17.9659 555.669 L71.4379 555.669 L71.4379 547.336 L76.4031 547.336 L76.4031 562.058 L13.0007 562.058 Z" fill="#000000" fill-rule="evenodd" fill-opacity="1" /><path clip-path="url(#clip410)" d="M35.6047 503.448 Q31.2992 501.052 29.2506 497.718 Q27.202 494.385 27.202 489.871 Q27.202 483.795 31.4728 480.496 Q35.7089 477.198 43.5561 477.198 L67.0282 477.198 L67.0282 483.621 L43.7644 483.621 Q38.1741 483.621 35.4658 485.6 Q32.7575 487.58 32.7575 491.642 Q32.7575 496.607 36.0561 499.489 Q39.3547 502.371 45.0491 502.371 L67.0282 502.371 L67.0282 508.795 L43.7644 508.795 Q38.1394 508.795 35.4658 510.774 Q32.7575 512.753 32.7575 516.885 Q32.7575 521.781 36.0908 524.663 Q39.3894 527.545 45.0491 527.545 L67.0282 527.545 L67.0282 533.968 L28.1395 533.968 L28.1395 527.545 L34.1811 527.545 Q30.6047 525.357 28.9034 522.302 Q27.202 519.246 27.202 515.045 Q27.202 510.809 29.3547 507.857 Q31.5075 504.871 35.6047 503.448 Z" fill="#000000" fill-rule="evenodd" fill-opacity="1" /><path clip-path="url(#clip410)" d="M13.0007 449.524 L76.4031 449.524 L76.4031 464.246 L71.4379 464.246 L71.4379 455.948 L17.9659 455.948 L17.9659 464.246 L13.0007 464.246 L13.0007 449.524 Z" fill="#000000" fill-rule="evenodd" fill-opacity="1" /><path clip-path="url(#clip410)" d="M591.921 12.096 L604.114 12.096 L619.548 53.2532 L635.063 12.096 L647.256 12.096 L647.256 72.576 L639.276 72.576 L639.276 19.4686 L623.68 60.9499 L615.457 60.9499 L599.861 19.4686 L599.861 72.576 L591.921 72.576 L591.921 12.096 Z" fill="#000000" fill-rule="evenodd" fill-opacity="1" /><path clip-path="url(#clip410)" d="M680.757 32.4315 Q674.762 32.4315 671.278 37.1306 Q667.794 41.7891 667.794 49.9314 Q667.794 58.0738 671.238 62.7728 Q674.721 67.4314 680.757 67.4314 Q686.712 67.4314 690.196 62.7323 Q693.68 58.0333 693.68 49.9314 Q693.68 41.8701 690.196 37.1711 Q686.712 32.4315 680.757 32.4315 M680.757 26.1121 Q690.479 26.1121 696.029 32.4315 Q701.579 38.7509 701.579 49.9314 Q701.579 61.0714 696.029 67.4314 Q690.479 73.7508 680.757 73.7508 Q670.995 73.7508 665.445 67.4314 Q659.936 61.0714 659.936 49.9314 Q659.936 38.7509 665.445 32.4315 Q670.995 26.1121 680.757 26.1121 Z" fill="#000000" fill-rule="evenodd" fill-opacity="1" /><path clip-path="url(#clip410)" d="M743.789 34.0924 L743.789 9.54393 L751.243 9.54393 L751.243 72.576 L743.789 72.576 L743.789 65.7705 Q741.44 69.8214 737.835 71.8063 Q734.27 73.7508 729.247 73.7508 Q721.023 73.7508 715.838 67.1883 Q710.694 60.6258 710.694 49.9314 Q710.694 39.2371 715.838 32.6746 Q721.023 26.1121 729.247 26.1121 Q734.27 26.1121 737.835 28.0971 Q741.44 30.0415 743.789 34.0924 M718.39 49.9314 Q718.39 58.1548 721.752 62.8538 Q725.155 67.5124 731.07 67.5124 Q736.984 67.5124 740.387 62.8538 Q743.789 58.1548 743.789 49.9314 Q743.789 41.7081 740.387 37.0496 Q736.984 32.3505 731.07 32.3505 Q725.155 32.3505 721.752 37.0496 Q718.39 41.7081 718.39 49.9314 Z" fill="#000000" fill-rule="evenodd" fill-opacity="1" /><path clip-path="url(#clip410)" d="M766.596 27.2059 L774.05 27.2059 L774.05 72.576 L766.596 72.576 L766.596 27.2059 M766.596 9.54393 L774.05 9.54393 L774.05 18.9825 L766.596 18.9825 L766.596 9.54393 Z" fill="#000000" fill-rule="evenodd" fill-opacity="1" /><path clip-path="url(#clip410)" d="M812.614 9.54393 L812.614 15.7418 L805.485 15.7418 Q801.474 15.7418 799.894 17.3622 Q798.355 18.9825 798.355 23.1955 L798.355 27.2059 L810.629 27.2059 L810.629 32.9987 L798.355 32.9987 L798.355 72.576 L790.861 72.576 L790.861 32.9987 L783.731 32.9987 L783.731 27.2059 L790.861 27.2059 L790.861 24.0462 Q790.861 16.471 794.385 13.0277 Q797.909 9.54393 805.566 9.54393 L812.614 9.54393 Z" fill="#000000" fill-rule="evenodd" fill-opacity="1" /><path clip-path="url(#clip410)" d="M818.853 27.2059 L826.306 27.2059 L826.306 72.576 L818.853 72.576 L818.853 27.2059 M818.853 9.54393 L826.306 9.54393 L826.306 18.9825 L818.853 18.9825 L818.853 9.54393 Z" fill="#000000" fill-rule="evenodd" fill-opacity="1" /><path clip-path="url(#clip410)" d="M880.71 48.0275 L880.71 51.6733 L846.439 51.6733 Q846.925 59.3701 851.057 63.421 Q855.23 67.4314 862.643 67.4314 Q866.937 67.4314 870.947 66.3781 Q874.998 65.3249 878.968 63.2184 L878.968 70.267 Q874.958 71.9684 870.745 72.8596 Q866.532 73.7508 862.197 73.7508 Q851.341 73.7508 844.981 67.4314 Q838.662 61.1119 838.662 50.3365 Q838.662 39.1965 844.657 32.6746 Q850.693 26.1121 860.901 26.1121 Q870.056 26.1121 875.363 32.0264 Q880.71 37.9003 880.71 48.0275 M873.256 45.84 Q873.175 39.7232 869.813 36.0774 Q866.491 32.4315 860.982 32.4315 Q854.744 32.4315 850.976 35.9558 Q847.249 39.4801 846.682 45.8805 L873.256 45.84 Z" fill="#000000" fill-rule="evenodd" fill-opacity="1" /><path clip-path="url(#clip410)" d="M922.799 34.0924 L922.799 9.54393 L930.253 9.54393 L930.253 72.576 L922.799 72.576 L922.799 65.7705 Q920.449 69.8214 916.844 71.8063 Q913.279 73.7508 908.256 73.7508 Q900.033 73.7508 894.848 67.1883 Q889.703 60.6258 889.703 49.9314 Q889.703 39.2371 894.848 32.6746 Q900.033 26.1121 908.256 26.1121 Q913.279 26.1121 916.844 28.0971 Q920.449 30.0415 922.799 34.0924 M897.4 49.9314 Q897.4 58.1548 900.762 62.8538 Q904.165 67.5124 910.079 67.5124 Q915.993 67.5124 919.396 62.8538 Q922.799 58.1548 922.799 49.9314 Q922.799 41.7081 919.396 37.0496 Q915.993 32.3505 910.079 32.3505 Q904.165 32.3505 900.762 37.0496 Q897.4 41.7081 897.4 49.9314 Z" fill="#000000" fill-rule="evenodd" fill-opacity="1" /><path clip-path="url(#clip410)" d="M947.509 62.2867 L956.057 62.2867 L956.057 72.576 L947.509 72.576 L947.509 62.2867 M947.509 29.6769 L956.057 29.6769 L956.057 39.9662 L947.509 39.9662 L947.509 29.6769 Z" fill="#000000" fill-rule="evenodd" fill-opacity="1" /><path clip-path="url(#clip410)" d="M1000.25 12.096 L1012.45 12.096 L1027.88 53.2532 L1043.39 12.096 L1055.59 12.096 L1055.59 72.576 L1047.61 72.576 L1047.61 19.4686 L1032.01 60.9499 L1023.79 60.9499 L1008.19 19.4686 L1008.19 72.576 L1000.25 72.576 L1000.25 12.096 Z" fill="#000000" fill-rule="evenodd" fill-opacity="1" /><path clip-path="url(#clip410)" d="M1092.13 49.7694 Q1083.09 49.7694 1079.61 51.8354 Q1076.13 53.9013 1076.13 58.8839 Q1076.13 62.8538 1078.72 65.2034 Q1081.35 67.5124 1085.85 67.5124 Q1092.05 67.5124 1095.77 63.1374 Q1099.54 58.7219 1099.54 51.4303 L1099.54 49.7694 L1092.13 49.7694 M1106.99 46.6907 L1106.99 72.576 L1099.54 72.576 L1099.54 65.6895 Q1096.99 69.8214 1093.18 71.8063 Q1089.37 73.7508 1083.86 73.7508 Q1076.9 73.7508 1072.76 69.8619 Q1068.67 65.9325 1068.67 59.3701 Q1068.67 51.7138 1073.78 47.825 Q1078.92 43.9361 1089.09 43.9361 L1099.54 43.9361 L1099.54 43.2069 Q1099.54 38.0623 1096.14 35.2672 Q1092.77 32.4315 1086.66 32.4315 Q1082.77 32.4315 1079.08 33.3632 Q1075.4 34.295 1071.99 36.1584 L1071.99 29.2718 Q1076.09 27.692 1079.93 26.9223 Q1083.78 26.1121 1087.43 26.1121 Q1097.27 26.1121 1102.13 31.2163 Q1106.99 36.3204 1106.99 46.6907 Z" fill="#000000" fill-rule="evenodd" fill-opacity="1" /><path clip-path="url(#clip410)" d="M1151.27 28.5427 L1151.27 35.5912 Q1148.11 33.9709 1144.71 33.1607 Q1141.3 32.3505 1137.66 32.3505 Q1132.11 32.3505 1129.31 34.0519 Q1126.56 35.7533 1126.56 39.156 Q1126.56 41.7486 1128.54 43.2475 Q1130.53 44.7058 1136.52 46.0426 L1139.08 46.6097 Q1147.02 48.3111 1150.34 51.4303 Q1153.7 54.509 1153.7 60.0587 Q1153.7 66.3781 1148.68 70.0644 Q1143.69 73.7508 1134.94 73.7508 Q1131.3 73.7508 1127.33 73.0216 Q1123.4 72.3329 1119.02 70.9151 L1119.02 63.2184 Q1123.16 65.3654 1127.17 66.4591 Q1131.18 67.5124 1135.11 67.5124 Q1140.37 67.5124 1143.21 65.73 Q1146.04 63.9071 1146.04 60.6258 Q1146.04 57.5877 1143.98 55.9673 Q1141.95 54.3469 1135.03 52.8481 L1132.43 52.2405 Q1125.51 50.7821 1122.43 47.7845 Q1119.35 44.7463 1119.35 39.4801 Q1119.35 33.0797 1123.89 29.5959 Q1128.42 26.1121 1136.77 26.1121 Q1140.9 26.1121 1144.55 26.7198 Q1148.19 27.3274 1151.27 28.5427 Z" fill="#000000" fill-rule="evenodd" fill-opacity="1" /><path clip-path="url(#clip410)" d="M1194.49 28.5427 L1194.49 35.5912 Q1191.33 33.9709 1187.93 33.1607 Q1184.53 32.3505 1180.88 32.3505 Q1175.33 32.3505 1172.54 34.0519 Q1169.78 35.7533 1169.78 39.156 Q1169.78 41.7486 1171.77 43.2475 Q1173.75 44.7058 1179.75 46.0426 L1182.3 46.6097 Q1190.24 48.3111 1193.56 51.4303 Q1196.92 54.509 1196.92 60.0587 Q1196.92 66.3781 1191.9 70.0644 Q1186.92 73.7508 1178.17 73.7508 Q1174.52 73.7508 1170.55 73.0216 Q1166.62 72.3329 1162.25 70.9151 L1162.25 63.2184 Q1166.38 65.3654 1170.39 66.4591 Q1174.4 67.5124 1178.33 67.5124 Q1183.6 67.5124 1186.43 65.73 Q1189.27 63.9071 1189.27 60.6258 Q1189.27 57.5877 1187.2 55.9673 Q1185.18 54.3469 1178.25 52.8481 L1175.66 52.2405 Q1168.73 50.7821 1165.65 47.7845 Q1162.57 44.7463 1162.57 39.4801 Q1162.57 33.0797 1167.11 29.5959 Q1171.65 26.1121 1179.99 26.1121 Q1184.12 26.1121 1187.77 26.7198 Q1191.41 27.3274 1194.49 28.5427 Z" fill="#000000" fill-rule="evenodd" fill-opacity="1" /><path clip-path="url(#clip410)" d="M1242.37 65.7705 L1242.37 89.8329 L1234.88 89.8329 L1234.88 27.2059 L1242.37 27.2059 L1242.37 34.0924 Q1244.72 30.0415 1248.29 28.0971 Q1251.89 26.1121 1256.88 26.1121 Q1265.14 26.1121 1270.29 32.6746 Q1275.47 39.2371 1275.47 49.9314 Q1275.47 60.6258 1270.29 67.1883 Q1265.14 73.7508 1256.88 73.7508 Q1251.89 73.7508 1248.29 71.8063 Q1244.72 69.8214 1242.37 65.7705 M1267.73 49.9314 Q1267.73 41.7081 1264.33 37.0496 Q1260.97 32.3505 1255.05 32.3505 Q1249.14 32.3505 1245.74 37.0496 Q1242.37 41.7081 1242.37 49.9314 Q1242.37 58.1548 1245.74 62.8538 Q1249.14 67.5124 1255.05 67.5124 Q1260.97 67.5124 1264.33 62.8538 Q1267.73 58.1548 1267.73 49.9314 Z" fill="#000000" fill-rule="evenodd" fill-opacity="1" /><path clip-path="url(#clip410)" d="M1305.41 32.4315 Q1299.41 32.4315 1295.93 37.1306 Q1292.44 41.7891 1292.44 49.9314 Q1292.44 58.0738 1295.89 62.7728 Q1299.37 67.4314 1305.41 67.4314 Q1311.36 67.4314 1314.85 62.7323 Q1318.33 58.0333 1318.33 49.9314 Q1318.33 41.8701 1314.85 37.1711 Q1311.36 32.4315 1305.41 32.4315 M1305.41 26.1121 Q1315.13 26.1121 1320.68 32.4315 Q1326.23 38.7509 1326.23 49.9314 Q1326.23 61.0714 1320.68 67.4314 Q1315.13 73.7508 1305.41 73.7508 Q1295.64 73.7508 1290.09 67.4314 Q1284.59 61.0714 1284.59 49.9314 Q1284.59 38.7509 1290.09 32.4315 Q1295.64 26.1121 1305.41 26.1121 Z" fill="#000000" fill-rule="evenodd" fill-opacity="1" /><path clip-path="url(#clip410)" d="M1367.51 28.5427 L1367.51 35.5912 Q1364.35 33.9709 1360.94 33.1607 Q1357.54 32.3505 1353.9 32.3505 Q1348.35 32.3505 1345.55 34.0519 Q1342.8 35.7533 1342.8 39.156 Q1342.8 41.7486 1344.78 43.2475 Q1346.77 44.7058 1352.76 46.0426 L1355.31 46.6097 Q1363.25 48.3111 1366.58 51.4303 Q1369.94 54.509 1369.94 60.0587 Q1369.94 66.3781 1364.91 70.0644 Q1359.93 73.7508 1351.18 73.7508 Q1347.54 73.7508 1343.57 73.0216 Q1339.64 72.3329 1335.26 70.9151 L1335.26 63.2184 Q1339.39 65.3654 1343.4 66.4591 Q1347.41 67.5124 1351.34 67.5124 Q1356.61 67.5124 1359.45 65.73 Q1362.28 63.9071 1362.28 60.6258 Q1362.28 57.5877 1360.22 55.9673 Q1358.19 54.3469 1351.26 52.8481 L1348.67 52.2405 Q1341.74 50.7821 1338.66 47.7845 Q1335.59 44.7463 1335.59 39.4801 Q1335.59 33.0797 1340.12 29.5959 Q1344.66 26.1121 1353 26.1121 Q1357.14 26.1121 1360.78 26.7198 Q1364.43 27.3274 1367.51 28.5427 Z" fill="#000000" fill-rule="evenodd" fill-opacity="1" /><path clip-path="url(#clip410)" d="M1381.81 27.2059 L1389.26 27.2059 L1389.26 72.576 L1381.81 72.576 L1381.81 27.2059 M1381.81 9.54393 L1389.26 9.54393 L1389.26 18.9825 L1381.81 18.9825 L1381.81 9.54393 Z" fill="#000000" fill-rule="evenodd" fill-opacity="1" /><path clip-path="url(#clip410)" d="M1412.23 14.324 L1412.23 27.2059 L1427.58 27.2059 L1427.58 32.9987 L1412.23 32.9987 L1412.23 57.6282 Q1412.23 63.1779 1413.73 64.7578 Q1415.27 66.3376 1419.93 66.3376 L1427.58 66.3376 L1427.58 72.576 L1419.93 72.576 Q1411.3 72.576 1408.02 69.3758 Q1404.73 66.1351 1404.73 57.6282 L1404.73 32.9987 L1399.27 32.9987 L1399.27 27.2059 L1404.73 27.2059 L1404.73 14.324 L1412.23 14.324 Z" fill="#000000" fill-rule="evenodd" fill-opacity="1" /><path clip-path="url(#clip410)" d="M1437.39 27.2059 L1444.84 27.2059 L1444.84 72.576 L1437.39 72.576 L1437.39 27.2059 M1437.39 9.54393 L1444.84 9.54393 L1444.84 18.9825 L1437.39 18.9825 L1437.39 9.54393 Z" fill="#000000" fill-rule="evenodd" fill-opacity="1" /><path clip-path="url(#clip410)" d="M1478.02 32.4315 Q1472.02 32.4315 1468.54 37.1306 Q1465.05 41.7891 1465.05 49.9314 Q1465.05 58.0738 1468.5 62.7728 Q1471.98 67.4314 1478.02 67.4314 Q1483.97 67.4314 1487.45 62.7323 Q1490.94 58.0333 1490.94 49.9314 Q1490.94 41.8701 1487.45 37.1711 Q1483.97 32.4315 1478.02 32.4315 M1478.02 26.1121 Q1487.74 26.1121 1493.29 32.4315 Q1498.84 38.7509 1498.84 49.9314 Q1498.84 61.0714 1493.29 67.4314 Q1487.74 73.7508 1478.02 73.7508 Q1468.25 73.7508 1462.7 67.4314 Q1457.19 61.0714 1457.19 49.9314 Q1457.19 38.7509 1462.7 32.4315 Q1468.25 26.1121 1478.02 26.1121 Z" fill="#000000" fill-rule="evenodd" fill-opacity="1" /><path clip-path="url(#clip410)" d="M1548.91 45.1919 L1548.91 72.576 L1541.45 72.576 L1541.45 45.4349 Q1541.45 38.994 1538.94 35.7938 Q1536.43 32.5936 1531.41 32.5936 Q1525.37 32.5936 1521.89 36.4419 Q1518.4 40.2903 1518.4 46.9338 L1518.4 72.576 L1510.91 72.576 L1510.91 27.2059 L1518.4 27.2059 L1518.4 34.2544 Q1521.08 30.163 1524.68 28.1376 Q1528.33 26.1121 1533.07 26.1121 Q1540.89 26.1121 1544.9 30.9732 Q1548.91 35.7938 1548.91 45.1919 Z" fill="#000000" fill-rule="evenodd" fill-opacity="1" /><path clip-path="url(#clip410)" d="M1610.76 49.7694 Q1601.73 49.7694 1598.25 51.8354 Q1594.76 53.9013 1594.76 58.8839 Q1594.76 62.8538 1597.36 65.2034 Q1599.99 67.5124 1604.49 67.5124 Q1610.68 67.5124 1614.41 63.1374 Q1618.18 58.7219 1618.18 51.4303 L1618.18 49.7694 L1610.76 49.7694 M1625.63 46.6907 L1625.63 72.576 L1618.18 72.576 L1618.18 65.6895 Q1615.63 69.8214 1611.82 71.8063 Q1608.01 73.7508 1602.5 73.7508 Q1595.53 73.7508 1591.4 69.8619 Q1587.31 65.9325 1587.31 59.3701 Q1587.31 51.7138 1592.41 47.825 Q1597.56 43.9361 1607.73 43.9361 L1618.18 43.9361 L1618.18 43.2069 Q1618.18 38.0623 1614.77 35.2672 Q1611.41 32.4315 1605.3 32.4315 Q1601.41 32.4315 1597.72 33.3632 Q1594.03 34.295 1590.63 36.1584 L1590.63 29.2718 Q1594.72 27.692 1598.57 26.9223 Q1602.42 26.1121 1606.06 26.1121 Q1615.91 26.1121 1620.77 31.2163 Q1625.63 36.3204 1625.63 46.6907 Z" fill="#000000" fill-rule="evenodd" fill-opacity="1" /><path clip-path="url(#clip410)" d="M1663.95 9.54393 L1663.95 15.7418 L1656.82 15.7418 Q1652.81 15.7418 1651.23 17.3622 Q1649.69 18.9825 1649.69 23.1955 L1649.69 27.2059 L1661.97 27.2059 L1661.97 32.9987 L1649.69 32.9987 L1649.69 72.576 L1642.2 72.576 L1642.2 32.9987 L1635.07 32.9987 L1635.07 27.2059 L1642.2 27.2059 L1642.2 24.0462 Q1642.2 16.471 1645.72 13.0277 Q1649.25 9.54393 1656.9 9.54393 L1663.95 9.54393 Z" fill="#000000" fill-rule="evenodd" fill-opacity="1" /><path clip-path="url(#clip410)" d="M1676.11 14.324 L1676.11 27.2059 L1691.46 27.2059 L1691.46 32.9987 L1676.11 32.9987 L1676.11 57.6282 Q1676.11 63.1779 1677.6 64.7578 Q1679.14 66.3376 1683.8 66.3376 L1691.46 66.3376 L1691.46 72.576 L1683.8 72.576 Q1675.17 72.576 1671.89 69.3758 Q1668.61 66.1351 1668.61 57.6282 L1668.61 32.9987 L1663.14 32.9987 L1663.14 27.2059 L1668.61 27.2059 L1668.61 14.324 L1676.11 14.324 Z" fill="#000000" fill-rule="evenodd" fill-opacity="1" /><path clip-path="url(#clip410)" d="M1740.07 48.0275 L1740.07 51.6733 L1705.8 51.6733 Q1706.28 59.3701 1710.42 63.421 Q1714.59 67.4314 1722 67.4314 Q1726.3 67.4314 1730.31 66.3781 Q1734.36 65.3249 1738.33 63.2184 L1738.33 70.267 Q1734.32 71.9684 1730.1 72.8596 Q1725.89 73.7508 1721.56 73.7508 Q1710.7 73.7508 1704.34 67.4314 Q1698.02 61.1119 1698.02 50.3365 Q1698.02 39.1965 1704.02 32.6746 Q1710.05 26.1121 1720.26 26.1121 Q1729.41 26.1121 1734.72 32.0264 Q1740.07 37.9003 1740.07 48.0275 M1732.62 45.84 Q1732.53 39.7232 1729.17 36.0774 Q1725.85 32.4315 1720.34 32.4315 Q1714.1 32.4315 1710.34 35.9558 Q1706.61 39.4801 1706.04 45.8805 L1732.62 45.84 Z" fill="#000000" fill-rule="evenodd" fill-opacity="1" /><path clip-path="url(#clip410)" d="M1778.59 34.1734 Q1777.34 33.4443 1775.84 33.1202 Q1774.38 32.7556 1772.6 32.7556 Q1766.28 32.7556 1762.88 36.8875 Q1759.51 40.9789 1759.51 48.6757 L1759.51 72.576 L1752.02 72.576 L1752.02 27.2059 L1759.51 27.2059 L1759.51 34.2544 Q1761.86 30.1225 1765.63 28.1376 Q1769.4 26.1121 1774.79 26.1121 Q1775.55 26.1121 1776.49 26.2337 Q1777.42 26.3147 1778.55 26.5172 L1778.59 34.1734 Z" fill="#000000" fill-rule="evenodd" fill-opacity="1" /><path clip-path="url(#clip410)" d="M1841.79 44.2197 Q1844.42 45.1109 1846.89 48.0275 Q1849.4 50.9442 1851.91 56.0483 L1860.22 72.576 L1851.43 72.576 L1843.69 57.061 Q1840.69 50.9847 1837.86 48.9997 Q1835.06 47.0148 1830.2 47.0148 L1821.29 47.0148 L1821.29 72.576 L1813.11 72.576 L1813.11 12.096 L1831.58 12.096 Q1841.95 12.096 1847.05 16.4305 Q1852.16 20.7649 1852.16 29.5149 Q1852.16 35.2267 1849.48 38.994 Q1846.85 42.7613 1841.79 44.2197 M1821.29 18.8205 L1821.29 40.2903 L1831.58 40.2903 Q1837.49 40.2903 1840.49 37.5762 Q1843.53 34.8216 1843.53 29.5149 Q1843.53 24.2082 1840.49 21.5346 Q1837.49 18.8205 1831.58 18.8205 L1821.29 18.8205 Z" fill="#000000" fill-rule="evenodd" fill-opacity="1" /><path clip-path="url(#clip410)" d="M1865.93 54.671 L1865.93 27.2059 L1873.38 27.2059 L1873.38 54.3874 Q1873.38 60.8284 1875.9 64.0691 Q1878.41 67.2693 1883.43 67.2693 Q1889.47 67.2693 1892.95 63.421 Q1896.47 59.5726 1896.47 52.9291 L1896.47 27.2059 L1903.93 27.2059 L1903.93 72.576 L1896.47 72.576 L1896.47 65.6084 Q1893.76 69.7404 1890.15 71.7658 Q1886.59 73.7508 1881.85 73.7508 Q1874.03 73.7508 1869.98 68.8897 Q1865.93 64.0286 1865.93 54.671 M1884.69 26.1121 L1884.69 26.1121 Z" fill="#000000" fill-rule="evenodd" fill-opacity="1" /><path clip-path="url(#clip410)" d="M1956.99 45.1919 L1956.99 72.576 L1949.54 72.576 L1949.54 45.4349 Q1949.54 38.994 1947.03 35.7938 Q1944.52 32.5936 1939.49 32.5936 Q1933.46 32.5936 1929.98 36.4419 Q1926.49 40.2903 1926.49 46.9338 L1926.49 72.576 L1919 72.576 L1919 27.2059 L1926.49 27.2059 L1926.49 34.2544 Q1929.16 30.163 1932.77 28.1376 Q1936.42 26.1121 1941.16 26.1121 Q1948.97 26.1121 1952.98 30.9732 Q1956.99 35.7938 1956.99 45.1919 Z" fill="#000000" fill-rule="evenodd" fill-opacity="1" /><path clip-path="url(#clip410)" d="M1973.77 62.2867 L1982.31 62.2867 L1982.31 72.576 L1973.77 72.576 L1973.77 62.2867 M1973.77 29.6769 L1982.31 29.6769 L1982.31 39.9662 L1973.77 39.9662 L1973.77 29.6769 Z" fill="#000000" fill-rule="evenodd" fill-opacity="1" /><path clip-path="url(#clip410)" d="M2034.29 65.6895 L2062.84 65.6895 L2062.84 72.576 L2024.44 72.576 L2024.44 65.6895 Q2029.1 60.8689 2037.12 52.7671 Q2045.18 44.6248 2047.25 42.2752 Q2051.18 37.8598 2052.72 34.8216 Q2054.3 31.7429 2054.3 28.7857 Q2054.3 23.9651 2050.89 20.927 Q2047.53 17.8888 2042.1 17.8888 Q2038.26 17.8888 2033.96 19.2256 Q2029.71 20.5624 2024.85 23.2765 L2024.85 15.0127 Q2029.79 13.0277 2034.08 12.015 Q2038.38 11.0023 2041.94 11.0023 Q2051.34 11.0023 2056.93 15.7013 Q2062.52 20.4004 2062.52 28.2591 Q2062.52 31.9859 2061.1 35.3482 Q2059.73 38.6699 2056.04 43.2069 Q2055.03 44.3817 2049.6 50.0125 Q2044.17 55.6027 2034.29 65.6895 Z" fill="#000000" fill-rule="evenodd" fill-opacity="1" /><polyline clip-path="url(#clip412)" style="stroke:#009af9; stroke-linecap:butt; stroke-linejoin:round; stroke-width:8; stroke-opacity:1; fill:none" points="
  360.05,848.833 364.887,866.423 369.723,883.888 374.56,901.201 379.397,918.343 384.233,935.278 389.07,952.02 393.907,968.528 398.743,984.807 403.58,1000.83 
  408.417,1016.58 413.253,1032.05 418.09,1047.21 422.927,1062.07 427.763,1076.59 432.6,1090.77 437.437,1104.58 442.273,1118.02 447.11,1131.09 451.947,1143.76 
  456.783,1156.01 461.62,1167.85 466.457,1179.25 471.293,1190.21 476.13,1200.72 480.967,1210.75 485.803,1220.31 490.64,1229.38 495.477,1237.95 500.313,1246.01 
  505.15,1253.57 509.987,1260.6 514.823,1267.1 519.66,1273.06 524.497,1278.48 529.333,1283.36 534.17,1287.67 539.007,1291.44 543.843,1294.65 548.68,1297.29 
  553.517,1299.36 558.353,1300.87 563.19,1301.81 568.027,1302.17 572.863,1301.97 577.7,1301.19 582.536,1299.85 587.373,1297.93 592.21,1295.45 597.046,1292.41 
  601.883,1288.8 606.72,1284.63 611.556,1279.92 616.393,1274.65 621.23,1268.84 626.066,1262.49 630.903,1255.61 635.74,1248.21 640.576,1240.28 645.413,1231.85 
  650.25,1222.93 655.086,1213.51 659.923,1203.6 664.76,1193.22 669.596,1182.38 674.433,1171.09 679.27,1159.36 684.106,1147.2 688.943,1134.62 693.78,1121.63 
  698.616,1108.26 703.453,1094.5 708.29,1080.38 713.126,1065.92 717.963,1051.11 722.8,1035.99 727.636,1020.55 732.473,1004.83 737.31,988.836 742.146,972.584 
  746.983,956.089 751.82,939.367 756.656,922.436 761.493,905.314 766.33,888.02 771.166,870.569 776.003,852.976 780.84,835.261 785.676,817.442 790.513,799.538 
  795.35,781.566 800.186,763.543 805.023,745.486 809.86,727.415 814.696,709.347 819.533,691.303 824.37,673.298 829.206,655.347 834.043,637.471 838.88,619.687 
  843.716,602.013 848.553,584.469 853.39,567.072 858.226,549.84 863.063,532.792 867.9,515.938 872.736,499.293 877.573,482.878 882.41,466.712 887.246,450.81 
  892.083,435.189 896.92,419.867 901.756,404.859 906.593,390.182 911.43,375.836 916.266,361.845 921.103,348.224 925.94,334.986 930.776,322.146 935.613,309.717 
  940.45,297.711 945.286,286.141 950.123,275.018 954.96,264.349 959.796,254.148 964.633,244.425 969.47,235.189 974.306,226.451 979.143,218.218 983.98,210.497 
  988.816,203.298 993.653,196.629 998.49,190.496 1003.33,184.904 1008.16,179.859 1013,175.365 1017.84,171.427 1022.67,168.047 1027.51,165.229 1032.35,162.976 
  1037.18,161.295 1042.02,160.185 1046.86,159.645 1051.69,159.676 1056.53,160.278 1061.37,161.45 1066.2,163.191 1071.04,165.497 1075.88,168.37 1080.71,171.807 
  1085.55,175.804 1090.39,180.356 1095.22,185.457 1100.06,191.104 1104.9,197.29 1109.73,204.009 1114.57,211.253 1119.41,219.02 1124.24,227.3 1129.08,236.083 
  1133.92,245.361 1138.75,255.124 1143.59,265.362 1148.43,276.066 1153.26,287.223 1158.1,298.825 1162.94,310.861 1167.77,323.317 1172.61,336.182 1177.45,349.441 
  1182.28,363.081 1187.12,377.088 1191.96,391.448 1196.79,406.147 1201.63,421.172 1206.47,436.509 1211.3,452.14 1216.14,468.05 1220.98,484.222 1225.81,500.641 
  1230.65,517.289 1235.49,534.149 1240.32,551.205 1245.16,568.445 1250,585.846 1254.83,603.393 1259.67,621.066 1264.51,638.85 1269.34,656.724 1274.18,674.672 
  1279.02,692.676 1283.85,710.718 1288.69,728.781 1293.53,746.846 1298.36,764.895 1303.2,782.91 1308.04,800.872 1312.87,818.764 1317.71,836.568 1322.55,854.265 
  1327.38,871.84 1332.22,889.274 1337.06,906.549 1341.89,923.649 1346.73,940.555 1351.57,957.252 1356.4,973.722 1361.24,989.949 1366.08,1005.92 1370.91,1021.61 
  1375.75,1037.01 1380.59,1052.11 1385.42,1066.88 1390.26,1081.32 1395.1,1095.41 1399.93,1109.13 1404.77,1122.48 1409.61,1135.43 1414.44,1147.98 1419.28,1160.11 
  1424.12,1171.81 1428.95,1183.07 1433.79,1193.88 1438.63,1204.23 1443.46,1214.1 1448.3,1223.49 1453.14,1232.38 1457.97,1240.78 1462.81,1248.66 1467.65,1256.03 
  1472.48,1262.87 1477.32,1269.18 1482.16,1274.95 1486.99,1280.18 1491.83,1284.86 1496.67,1288.98 1501.5,1292.55 1506.34,1295.55 1511.18,1297.99 1516.01,1299.86 
  1520.85,1301.16 1525.69,1301.9 1530.52,1302.06 1535.36,1301.65 1540.2,1300.67 1545.03,1299.12 1549.87,1297 1554.71,1294.31 1559.54,1291.07 1564.38,1287.26 
  1569.22,1282.9 1574.05,1277.98 1578.89,1272.52 1583.73,1266.51 1588.56,1259.97 1593.4,1252.9 1598.24,1245.31 1603.07,1237.21 1607.91,1228.6 1612.75,1219.49 
  1617.58,1209.89 1622.42,1199.82 1627.26,1189.27 1632.09,1178.27 1636.93,1166.82 1641.77,1154.93 1646.6,1142.62 1651.44,1129.9 1656.28,1116.78 1661.11,1103.28 
  1665.95,1089.4 1670.79,1075.16 1675.62,1060.58 1680.46,1045.67 1685.3,1030.44 1690.13,1014.92 1694.97,999.116 1699.81,983.043 1704.64,966.715 1709.48,950.151 
  1714.32,933.369 1719.15,916.384 1723.99,899.215 1728.83,881.878 1733.66,864.391 1738.5,846.772 1743.34,829.036 1748.17,811.201 1753.01,793.286 1757.85,775.309 
  1762.68,757.289 1767.52,739.242 1772.36,721.188 1777.19,703.145 1782.03,685.13 1786.87,667.159 1791.7,649.253 1796.54,631.428 1801.38,613.704 1806.21,596.097 
  1811.05,578.626 1815.89,561.307 1820.72,544.159 1825.56,527.197 1830.4,510.44 1835.23,493.903 1840.07,477.603 1844.91,461.557 1849.74,445.781 1854.58,430.291 
  1859.42,415.101 1864.25,400.227 1869.09,385.685 1873.93,371.488 1878.76,357.652 1883.6,344.188 1888.44,331.112 1893.27,318.436 1898.11,306.172 1902.95,294.333 
  1907.78,282.931 1912.62,271.978 1917.46,261.485 1922.29,251.462 1927.13,241.918 1931.97,232.863 1936.8,224.306 1941.64,216.255 1946.48,208.719 1951.31,201.706 
  1956.15,195.224 1960.99,189.278 1965.82,183.874 1970.66,179.017 1975.5,174.712 1980.33,170.962 1985.17,167.772 1990.01,165.144 1994.84,163.085 1999.68,161.595 
  2004.52,160.674 2009.35,160.323 2014.19,160.543 2019.03,161.333 2023.86,162.692 2028.7,164.618 2033.54,167.111 2038.37,170.171 2043.21,173.791 2048.05,177.969 
  2052.88,182.7 2057.72,187.978 2062.56,193.799 2067.39,200.156 2072.23,207.042 2077.07,214.456 2081.9,222.387 2086.74,230.827 2091.58,239.766 2096.41,249.197 
  2101.25,259.109 2106.09,269.491 2110.92,280.334 2115.76,291.628 2120.6,303.364 2125.43,315.527 2130.27,328.106 2135.11,341.088 2139.94,354.459 2144.78,368.206 
  2149.62,382.314 2154.45,396.769 2159.29,411.562 2164.13,426.674 2168.96,442.091 2173.8,457.796 2178.64,473.775 2183.47,490.01 2188.31,506.485 2193.15,523.183 
  2197.98,540.089 2202.82,557.188 2207.66,574.46 2212.49,591.89 2217.33,609.457 2222.17,627.146 2227,644.939 2231.84,662.816 2236.68,680.761 2241.51,698.756 
  2246.35,716.785 2251.19,734.827 2256.02,752.866 2260.86,770.882 2265.7,788.858 2270.53,806.776 2275.37,824.617 2280.21,842.364 2285.04,860 2289.88,877.507 
  2294.72,894.868 
  "/>
<polyline clip-path="url(#clip412)" style="stroke:#e26f46; stroke-linecap:butt; stroke-linejoin:round; stroke-width:8; stroke-opacity:1; fill:none" points="
  360.05,848.833 364.887,866.473 369.723,884.055 374.56,901.561 379.397,918.97 384.233,936.25 389.07,953.413 393.907,970.415 398.743,987.266 403.58,1003.93 
  408.417,1020.4 413.253,1036.66 418.09,1052.69 422.927,1068.49 427.763,1084.05 432.6,1099.32 437.437,1114.31 442.273,1129 447.11,1143.36 451.947,1157.38 
  456.783,1171.05 461.62,1184.35 466.457,1197.28 471.293,1209.81 476.13,1221.93 480.967,1233.64 485.803,1244.91 490.64,1255.75 495.477,1266.13 500.313,1276.06 
  505.15,1285.51 509.987,1294.48 514.823,1302.95 519.66,1310.93 524.497,1318.4 529.333,1325.34 534.17,1331.76 539.007,1337.64 543.843,1342.98 548.68,1347.77 
  553.517,1352 558.353,1355.66 563.19,1358.75 568.027,1361.26 572.863,1363.19 577.7,1364.53 582.536,1365.27 587.373,1365.41 592.21,1365.06 597.046,1364.29 
  601.883,1363.09 606.72,1361.45 611.556,1359.38 616.393,1356.87 621.23,1353.92 626.066,1350.53 630.903,1346.71 635.74,1342.45 640.576,1337.75 645.413,1332.63 
  650.25,1327.07 655.086,1321.1 659.923,1314.7 664.76,1307.89 669.596,1300.68 674.433,1293.06 679.27,1285.05 684.106,1276.65 688.943,1267.87 693.78,1258.72 
  698.616,1249.2 703.453,1239.33 708.29,1229.12 713.126,1218.56 717.963,1207.68 722.8,1196.5 727.636,1185.01 732.473,1173.23 737.31,1161.17 742.146,1148.84 
  746.983,1136.24 751.82,1123.4 756.656,1110.33 761.493,1097.05 766.33,1083.56 771.166,1069.88 776.003,1056.01 780.84,1041.98 785.676,1027.78 790.513,1013.45 
  795.35,998.997 800.186,984.433 805.023,969.773 809.86,955.03 814.696,940.221 819.533,925.359 824.37,910.46 829.206,895.537 834.043,880.605 838.88,865.682 
  843.716,850.782 848.553,835.922 853.39,821.117 858.226,806.384 863.063,791.733 867.9,777.173 872.736,762.725 877.573,748.406 882.41,734.23 887.246,720.212 
  892.083,706.369 896.92,692.714 901.756,679.248 906.593,665.993 911.43,652.964 916.266,640.174 921.103,627.638 925.94,615.368 930.776,603.379 935.613,591.678 
  940.45,580.272 945.286,569.18 950.123,558.412 954.96,547.98 959.796,537.897 964.633,528.172 969.47,518.816 974.306,509.833 979.143,501.236 983.98,493.035 
  988.816,485.24 993.653,477.859 998.49,470.901 1003.33,464.375 1008.16,458.286 1013,452.642 1017.84,447.451 1022.67,442.719 1027.51,438.454 1032.35,434.662 
  1037.18,431.349 1042.02,428.52 1046.86,426.182 1051.69,424.338 1056.53,422.995 1061.37,422.157 1066.2,421.826 1071.04,421.996 1075.88,422.477 1080.71,423.29 
  1085.55,424.447 1090.39,425.947 1095.22,427.795 1100.06,429.99 1104.9,432.532 1109.73,435.421 1114.57,438.657 1119.41,442.237 1124.24,446.161 1129.08,450.427 
  1133.92,455.03 1138.75,459.969 1143.59,465.24 1148.43,470.839 1153.26,476.762 1158.1,483 1162.94,489.551 1167.77,496.411 1172.61,503.574 1177.45,511.027 
  1182.28,518.77 1187.12,526.796 1191.96,535.097 1196.79,543.661 1201.63,552.484 1206.47,561.559 1211.3,570.874 1216.14,580.416 1220.98,590.18 1225.81,600.157 
  1230.65,610.339 1235.49,620.717 1240.32,631.283 1245.16,642.019 1250,652.914 1254.83,663.962 1259.67,675.152 1264.51,686.474 1269.34,697.918 1274.18,709.473 
  1279.02,721.123 1283.85,732.858 1288.69,744.668 1293.53,756.539 1298.36,768.462 1303.2,780.422 1308.04,792.408 1312.87,804.41 1317.71,816.416 1322.55,828.411 
  1327.38,840.385 1332.22,852.323 1337.06,864.214 1341.89,876.044 1346.73,887.808 1351.57,899.492 1356.4,911.081 1361.24,922.564 1366.08,933.929 1370.91,945.163 
  1375.75,956.253 1380.59,967.198 1385.42,977.98 1390.26,988.588 1395.1,999.012 1399.93,1009.24 1404.77,1019.26 1409.61,1029.06 1414.44,1038.64 1419.28,1047.98 
  1424.12,1057.08 1428.95,1065.92 1433.79,1074.5 1438.63,1082.8 1443.46,1090.82 1448.3,1098.55 1453.14,1105.98 1457.97,1113.1 1462.81,1119.91 1467.65,1126.39 
  1472.48,1132.54 1477.32,1138.35 1482.16,1143.82 1486.99,1148.94 1491.83,1153.7 1496.67,1158.1 1501.5,1162.12 1506.34,1165.77 1511.18,1169.04 1516.01,1171.92 
  1520.85,1174.41 1525.69,1176.5 1530.52,1178.19 1535.36,1179.48 1540.2,1180.35 1545.03,1180.81 1549.87,1180.84 1554.71,1180.57 1559.54,1180.08 1564.38,1179.35 
  1569.22,1178.38 1574.05,1177.16 1578.89,1175.7 1583.73,1173.98 1588.56,1172.01 1593.4,1169.79 1598.24,1167.32 1603.07,1164.6 1607.91,1161.64 1612.75,1158.43 
  1617.58,1154.97 1622.42,1151.27 1627.26,1147.33 1632.09,1143.15 1636.93,1138.74 1641.77,1134.1 1646.6,1129.24 1651.44,1124.15 1656.28,1118.84 1661.11,1113.32 
  1665.95,1107.59 1670.79,1101.66 1675.62,1095.53 1680.46,1089.21 1685.3,1082.69 1690.13,1075.99 1694.97,1069.12 1699.81,1062.08 1704.64,1054.88 1709.48,1047.51 
  1714.32,1039.99 1719.15,1032.34 1723.99,1024.56 1728.83,1016.64 1733.66,1008.6 1738.5,1000.45 1743.34,992.196 1748.17,983.849 1753.01,975.413 1757.85,966.897 
  1762.68,958.307 1767.52,949.651 1772.36,940.947 1777.19,932.197 1782.03,923.409 1786.87,914.592 1791.7,905.753 1796.54,896.905 1801.38,888.056 1806.21,879.214 
  1811.05,870.388 1815.89,861.586 1820.72,852.816 1825.56,844.09 1830.4,835.415 1835.23,826.8 1840.07,818.254 1844.91,809.785 1849.74,801.403 1854.58,793.114 
  1859.42,784.928 1864.25,776.854 1869.09,768.9 1873.93,761.076 1878.76,753.385 1883.6,745.838 1888.44,738.444 1893.27,731.21 1898.11,724.145 1902.95,717.256 
  1907.78,710.545 1912.62,704.024 1917.46,697.701 1922.29,691.582 1927.13,685.677 1931.97,679.986 1936.8,674.515 1941.64,669.275 1946.48,664.272 1951.31,659.514 
  1956.15,655.005 1960.99,650.742 1965.82,646.739 1970.66,643 1975.5,639.531 1980.33,636.34 1985.17,633.425 1990.01,630.789 1994.84,628.44 1999.68,626.385 
  2004.52,624.627 2009.35,623.173 2014.19,622.02 2019.03,621.175 2023.86,620.641 2028.7,620.419 2033.54,620.505 2038.37,620.728 2043.21,621.074 2048.05,621.555 
  2052.88,622.174 2057.72,622.935 2062.56,623.839 2067.39,624.886 2072.23,626.078 2077.07,627.415 2081.9,628.895 2086.74,630.519 2091.58,632.286 2096.41,634.196 
  2101.25,636.247 2106.09,638.44 2110.92,640.772 2115.76,643.241 2120.6,645.847 2125.43,648.589 2130.27,651.463 2135.11,654.467 2139.94,657.6 2144.78,660.857 
  2149.62,664.234 2154.45,667.729 2159.29,671.342 2164.13,675.07 2168.96,678.911 2173.8,682.864 2178.64,686.919 2183.47,691.067 2188.31,695.313 2193.15,699.653 
  2197.98,704.085 2202.82,708.606 2207.66,713.212 2212.49,717.895 2217.33,722.643 2222.17,727.46 2227,732.342 2231.84,737.285 2236.68,742.286 2241.51,747.34 
  2246.35,752.439 2251.19,757.573 2256.02,762.741 2260.86,767.942 2265.7,773.168 2270.53,778.417 2275.37,783.683 2280.21,788.959 2285.04,794.235 2289.88,799.511 
  2294.72,804.781 
  "/>
<polyline clip-path="url(#clip412)" style="stroke:#008000; stroke-linecap:butt; stroke-linejoin:round; stroke-width:8; stroke-opacity:1; fill:none" stroke-dasharray="4, 8" points="
  360.05,848.833 364.887,863.345 369.723,877.833 374.56,892.291 379.397,906.71 384.233,921.083 389.07,935.4 393.907,949.653 398.743,963.834 403.58,977.933 
  408.417,991.942 413.253,1005.85 418.09,1019.65 422.927,1033.32 427.763,1046.87 432.6,1060.28 437.437,1073.53 442.273,1086.62 447.11,1099.54 451.947,1112.28 
  456.783,1124.82 461.62,1137.15 466.457,1149.27 471.293,1161.16 476.13,1172.81 480.967,1184.2 485.803,1195.33 490.64,1206.19 495.477,1216.76 500.313,1227.03 
  505.15,1237 509.987,1246.65 514.823,1255.97 519.66,1264.95 524.497,1273.58 529.333,1281.85 534.17,1289.75 539.007,1297.27 543.843,1304.4 548.68,1311.13 
  553.517,1317.45 558.353,1323.36 563.19,1328.85 568.027,1333.9 572.863,1338.51 577.7,1342.67 582.536,1346.38 587.373,1349.64 592.21,1352.42 597.046,1354.74 
  601.883,1356.58 606.72,1357.95 611.556,1358.83 616.393,1359.22 621.23,1359.13 626.066,1358.54 630.903,1357.46 635.74,1355.89 640.576,1353.82 645.413,1351.26 
  650.25,1348.2 655.086,1344.64 659.923,1340.6 664.76,1336.06 669.596,1331.04 674.433,1325.54 679.27,1319.56 684.106,1313.11 688.943,1306.2 693.78,1298.83 
  698.616,1291 703.453,1282.74 708.29,1274.04 713.126,1264.91 717.963,1255.37 722.8,1245.42 727.636,1235.08 732.473,1224.36 737.31,1213.28 742.146,1201.84 
  746.983,1190.05 751.82,1177.94 756.656,1165.52 761.493,1152.79 766.33,1139.78 771.166,1126.49 776.003,1112.96 780.84,1099.18 785.676,1085.18 790.513,1070.97 
  795.35,1056.57 800.186,1042 805.023,1027.27 809.86,1012.4 814.696,997.399 819.533,982.297 824.37,967.106 829.206,951.845 834.043,936.53 838.88,921.179 
  843.716,905.809 848.553,890.438 853.39,875.082 858.226,859.757 863.063,844.482 867.9,829.271 872.736,814.142 877.573,799.111 882.41,784.194 887.246,769.407 
  892.083,754.766 896.92,740.286 901.756,725.983 906.593,711.873 911.43,697.971 916.266,684.291 921.103,670.851 925.94,657.663 930.776,644.738 935.613,632.088 
  940.45,619.729 945.286,607.671 950.123,595.93 954.96,584.515 959.796,573.439 964.633,562.712 969.47,552.346 974.306,542.349 979.143,532.732 983.98,523.502 
  988.816,514.669 993.653,506.238 998.49,498.219 1003.33,490.617 1008.16,483.438 1013,476.687 1017.84,470.37 1022.67,464.49 1027.51,459.051 1032.35,454.056 
  1037.18,449.508 1042.02,445.408 1046.86,441.759 1051.69,438.563 1056.53,435.818 1061.37,433.526 1066.2,431.686 1071.04,430.295 1075.88,429.353 1080.71,428.856 
  1085.55,428.801 1090.39,429.184 1095.22,430 1100.06,431.245 1104.9,432.912 1109.73,434.995 1114.57,437.487 1119.41,440.38 1124.24,443.666 1129.08,447.336 
  1133.92,451.379 1138.75,455.787 1143.59,460.547 1148.43,465.649 1153.26,471.082 1158.1,476.842 1162.94,482.919 1167.77,489.301 1172.61,495.977 1177.45,502.937 
  1182.28,510.169 1187.12,517.663 1191.96,525.409 1196.79,533.396 1201.63,541.614 1206.47,550.052 1211.3,558.7 1216.14,567.55 1220.98,576.59 1225.81,585.811 
  1230.65,595.204 1235.49,604.76 1240.32,614.468 1245.16,624.32 1250,634.307 1254.83,644.42 1259.67,654.648 1264.51,664.984 1269.34,675.421 1274.18,685.95 
  1279.02,696.564 1283.85,707.256 1288.69,718.018 1293.53,728.842 1298.36,739.721 1303.2,750.646 1308.04,761.61 1312.87,772.606 1317.71,783.625 1322.55,794.659 
  1327.38,805.701 1332.22,816.742 1337.06,827.774 1341.89,838.79 1346.73,849.782 1351.57,860.741 1356.4,871.658 1361.24,882.527 1366.08,893.339 1370.91,904.084 
  1375.75,914.756 1380.59,925.346 1385.42,935.845 1390.26,946.245 1395.1,956.538 1399.93,966.715 1404.77,976.768 1409.61,986.689 1414.44,996.469 1419.28,1006.1 
  1424.12,1015.57 1428.95,1024.87 1433.79,1033.99 1438.63,1042.92 1443.46,1051.65 1448.3,1060.18 1453.14,1068.49 1457.97,1076.57 1462.81,1084.43 1467.65,1092.04 
  1472.48,1099.41 1477.32,1106.51 1482.16,1113.36 1486.99,1119.92 1491.83,1126.21 1496.67,1132.22 1501.5,1137.92 1506.34,1143.33 1511.18,1148.42 1516.01,1153.2 
  1520.85,1157.66 1525.69,1161.79 1530.52,1165.59 1535.36,1169.06 1540.2,1172.19 1545.03,1174.97 1549.87,1177.4 1554.71,1179.47 1559.54,1181.18 1564.38,1182.52 
  1569.22,1183.49 1574.05,1184.09 1578.89,1184.32 1583.73,1184.17 1588.56,1183.64 1593.4,1182.73 1598.24,1181.45 1603.07,1179.79 1607.91,1177.75 1612.75,1175.34 
  1617.58,1172.56 1622.42,1169.41 1627.26,1165.89 1632.09,1162.01 1636.93,1157.78 1641.77,1153.2 1646.6,1148.27 1651.44,1143 1656.28,1137.4 1661.11,1131.47 
  1665.95,1125.23 1670.79,1118.68 1675.62,1111.83 1680.46,1104.68 1685.3,1097.25 1690.13,1089.53 1694.97,1081.55 1699.81,1073.32 1704.64,1064.83 1709.48,1056.12 
  1714.32,1047.18 1719.15,1038.02 1723.99,1028.67 1728.83,1019.13 1733.66,1009.41 1738.5,999.525 1743.34,989.491 1748.17,979.319 1753.01,969.022 1757.85,958.612 
  1762.68,948.105 1767.52,937.513 1772.36,926.851 1777.19,916.132 1782.03,905.373 1786.87,894.586 1791.7,883.78 1796.54,872.97 1801.38,862.171 1806.21,851.396 
  1811.05,840.66 1815.89,829.977 1820.72,819.361 1825.56,808.824 1830.4,798.379 1835.23,788.04 1840.07,777.819 1844.91,767.727 1849.74,757.777 1854.58,747.979 
  1859.42,738.346 1864.25,728.887 1869.09,719.615 1873.93,710.538 1878.76,701.667 1883.6,693.011 1888.44,684.58 1893.27,676.384 1898.11,668.429 1902.95,660.727 
  1907.78,653.283 1912.62,646.107 1917.46,639.206 1922.29,632.587 1927.13,626.255 1931.97,620.21 1936.8,614.46 1941.64,609.01 1946.48,603.866 1951.31,599.033 
  1956.15,594.515 1960.99,590.316 1965.82,586.44 1970.66,582.888 1975.5,579.664 1980.33,576.769 1985.17,574.205 1990.01,571.971 1994.84,570.068 1999.68,568.496 
  2004.52,567.254 2009.35,566.34 2014.19,565.752 2019.03,565.489 2023.86,565.545 2028.7,565.919 2033.54,566.606 2038.37,567.602 2043.21,568.901 2048.05,570.497 
  2052.88,572.385 2057.72,574.557 2062.56,577.006 2067.39,579.726 2072.23,582.712 2077.07,585.965 2081.9,589.476 2086.74,593.239 2091.58,597.246 2096.41,601.492 
  2101.25,605.967 2106.09,610.665 2110.92,615.58 2115.76,620.703 2120.6,626.027 2125.43,631.545 2130.27,637.25 2135.11,643.134 2139.94,649.189 2144.78,655.408 
  2149.62,661.784 2154.45,668.308 2159.29,674.973 2164.13,681.772 2168.96,688.696 2173.8,695.738 2178.64,702.89 2183.47,710.143 2188.31,717.492 2193.15,724.928 
  2197.98,732.445 2202.82,740.035 2207.66,747.691 2212.49,755.407 2217.33,763.174 2222.17,770.986 2227,778.836 2231.84,786.715 2236.68,794.617 2241.51,802.536 
  2246.35,810.463 2251.19,818.391 2256.02,826.314 2260.86,834.224 2265.7,842.114 2270.53,849.977 2275.37,857.806 2280.21,865.593 2285.04,873.333 2289.88,881.016 
  2294.72,888.638 
  "/>
<polyline clip-path="url(#clip412)" style="stroke:#008000; stroke-linecap:butt; stroke-linejoin:round; stroke-width:8; stroke-opacity:1; fill:none" points="
  360.05,848.833 364.887,864.105 369.723,879.327 374.56,894.488 379.397,909.576 384.233,924.577 389.07,939.479 393.907,954.27 398.743,968.937 403.58,983.468 
  408.417,997.849 413.253,1012.07 418.09,1026.11 422.927,1039.97 427.763,1053.62 432.6,1067.06 437.437,1080.28 442.273,1093.26 447.11,1105.98 451.947,1118.45 
  456.783,1130.65 461.62,1142.56 466.457,1154.17 471.293,1165.48 476.13,1176.47 480.967,1187.14 485.803,1197.47 490.64,1207.45 495.477,1217.08 500.313,1226.35 
  505.15,1235.25 509.987,1243.77 514.823,1251.91 519.66,1259.65 524.497,1266.99 529.333,1273.93 534.17,1280.46 539.007,1286.58 543.843,1292.27 548.68,1297.54 
  553.517,1302.38 558.353,1306.79 563.19,1310.76 568.027,1314.29 572.863,1317.38 577.7,1320.02 582.536,1322.21 587.373,1323.96 592.21,1325.25 597.046,1326.09 
  601.883,1326.47 606.72,1326.41 611.556,1325.88 616.393,1324.91 621.23,1323.48 626.066,1321.59 630.903,1319.26 635.74,1316.47 640.576,1313.24 645.413,1309.56 
  650.25,1305.43 655.086,1300.87 659.923,1295.86 664.76,1290.43 669.596,1284.57 674.433,1278.28 679.27,1271.58 684.106,1264.46 688.943,1256.95 693.78,1249.03 
  698.616,1240.73 703.453,1232.04 708.29,1222.98 713.126,1213.56 717.963,1203.78 722.8,1193.66 727.636,1183.2 732.473,1172.42 737.31,1161.33 742.146,1149.93 
  746.983,1138.26 751.82,1126.3 756.656,1114.09 761.493,1101.62 766.33,1088.92 771.166,1076 776.003,1062.88 780.84,1049.56 785.676,1036.07 790.513,1022.41 
  795.35,1008.62 800.186,994.698 805.023,980.662 809.86,966.529 814.696,952.316 819.533,938.041 824.37,923.721 829.206,909.372 834.043,895.013 838.88,880.658 
  843.716,866.325 848.553,852.029 853.39,837.787 858.226,823.615 863.063,809.527 867.9,795.54 872.736,781.669 877.573,767.928 882.41,754.332 887.246,740.896 
  892.083,727.634 896.92,714.561 901.756,701.69 906.593,689.034 911.43,676.604 916.266,664.413 921.103,652.472 925.94,640.794 930.776,629.391 935.613,618.272 
  940.45,607.449 945.286,596.931 950.123,586.728 954.96,576.849 959.796,567.302 964.633,558.096 969.47,549.237 974.306,540.734 979.143,532.592 983.98,524.817 
  988.816,517.416 993.653,510.393 998.49,503.753 1003.33,497.5 1008.16,491.638 1013,486.17 1017.84,481.099 1022.67,476.427 1027.51,472.156 1032.35,468.289 
  1037.18,464.826 1042.02,461.77 1046.86,459.119 1051.69,456.876 1056.53,455.038 1061.37,453.605 1066.2,452.577 1071.04,451.95 1075.88,451.723 1080.71,451.894 
  1085.55,452.458 1090.39,453.414 1095.22,454.755 1100.06,456.479 1104.9,458.58 1109.73,461.054 1114.57,463.893 1119.41,467.092 1124.24,470.645 1129.08,474.544 
  1133.92,478.781 1138.75,483.349 1143.59,488.239 1148.43,493.446 1153.26,498.963 1158.1,504.781 1162.94,510.894 1167.77,517.291 1172.61,523.965 1177.45,530.907 
  1182.28,538.108 1187.12,545.56 1191.96,553.255 1196.79,561.182 1201.63,569.334 1206.47,577.702 1211.3,586.276 1216.14,595.047 1220.98,604.007 1225.81,613.145 
  1230.65,622.454 1235.49,631.923 1240.32,641.544 1245.16,651.307 1250,661.201 1254.83,671.22 1259.67,681.353 1264.51,691.591 1269.34,701.926 1274.18,712.347 
  1279.02,722.845 1283.85,733.41 1288.69,744.034 1293.53,754.707 1298.36,765.418 1303.2,776.16 1308.04,786.921 1312.87,797.693 1317.71,808.467 1322.55,819.232 
  1327.38,829.979 1332.22,840.698 1337.06,851.38 1341.89,862.016 1346.73,872.594 1351.57,883.107 1356.4,893.544 1361.24,903.896 1366.08,914.152 1370.91,924.304 
  1375.75,934.341 1380.59,944.253 1385.42,954.034 1390.26,963.675 1395.1,973.168 1399.93,982.501 1404.77,991.665 1409.61,1000.65 1414.44,1009.45 1419.28,1018.06 
  1424.12,1026.46 1428.95,1034.64 1433.79,1042.61 1438.63,1050.35 1443.46,1057.85 1448.3,1065.12 1453.14,1072.13 1457.97,1078.89 1462.81,1085.38 1467.65,1091.61 
  1472.48,1097.57 1477.32,1103.25 1482.16,1108.64 1486.99,1113.75 1491.83,1118.57 1496.67,1123.09 1501.5,1127.31 1506.34,1131.22 1511.18,1134.83 1516.01,1138.13 
  1520.85,1141.11 1525.69,1143.78 1530.52,1146.14 1535.36,1148.17 1540.2,1149.88 1545.03,1151.27 1549.87,1152.33 1554.71,1153.07 1559.54,1153.48 1564.38,1153.56 
  1569.22,1153.31 1574.05,1152.74 1578.89,1151.84 1583.73,1150.62 1588.56,1149.08 1593.4,1147.22 1598.24,1145.03 1603.07,1142.53 1607.91,1139.72 1612.75,1136.61 
  1617.58,1133.18 1622.42,1129.46 1627.26,1125.44 1632.09,1121.13 1636.93,1116.53 1641.77,1111.66 1646.6,1106.51 1651.44,1101.09 1656.28,1095.41 1661.11,1089.48 
  1665.95,1083.29 1670.79,1076.86 1675.62,1070.2 1680.46,1063.31 1685.3,1056.2 1690.13,1048.88 1694.97,1041.35 1699.81,1033.63 1704.64,1025.73 1709.48,1017.65 
  1714.32,1009.41 1719.15,1001 1723.99,992.454 1728.83,983.768 1733.66,974.955 1738.5,966.025 1743.34,956.991 1748.17,947.861 1753.01,938.649 1757.85,929.365 
  1762.68,920.022 1767.52,910.628 1772.36,901.193 1777.19,891.728 1782.03,882.245 1786.87,872.754 1791.7,863.269 1796.54,853.799 1801.38,844.356 1806.21,834.951 
  1811.05,825.594 1815.89,816.296 1820.72,807.067 1825.56,797.918 1830.4,788.857 1835.23,779.895 1840.07,771.042 1844.91,762.306 1849.74,753.697 1854.58,745.224 
  1859.42,736.894 1864.25,728.718 1869.09,720.703 1873.93,712.857 1878.76,705.189 1883.6,697.705 1888.44,690.415 1893.27,683.324 1898.11,676.44 1902.95,669.77 
  1907.78,663.317 1912.62,657.085 1917.46,651.082 1922.29,645.313 1927.13,639.782 1931.97,634.497 1936.8,629.46 1941.64,624.676 1946.48,620.15 1951.31,615.884 
  1956.15,611.883 1960.99,608.148 1965.82,604.682 1970.66,601.488 1975.5,598.566 1980.33,595.92 1985.17,593.549 1990.01,591.454 1994.84,589.636 1999.68,588.094 
  2004.52,586.829 2009.35,585.839 2014.19,585.123 2019.03,584.68 2023.86,584.508 2028.7,584.605 2033.54,584.968 2038.37,585.594 2043.21,586.48 2048.05,587.622 
  2052.88,589.02 2057.72,590.671 2062.56,592.571 2067.39,594.718 2072.23,597.106 2077.07,599.731 2081.9,602.59 2086.74,605.677 2091.58,608.989 2096.41,612.519 
  2101.25,616.263 2106.09,620.217 2110.92,624.374 2115.76,628.729 2120.6,633.277 2125.43,638.012 2130.27,642.928 2135.11,648.018 2139.94,653.278 2144.78,658.699 
  2149.62,664.277 2154.45,670.003 2159.29,675.871 2164.13,681.875 2168.96,688.007 2173.8,694.259 2178.64,700.625 2183.47,707.099 2188.31,713.675 2193.15,720.346 
  2197.98,727.105 2202.82,733.944 2207.66,740.857 2212.49,747.836 2217.33,754.875 2222.17,761.966 2227,769.102 2231.84,776.277 2236.68,783.483 2241.51,790.712 
  2246.35,797.958 2251.19,805.215 2256.02,812.473 2260.86,819.728 2265.7,826.97 2270.53,834.194 2275.37,841.393 2280.21,848.558 2285.04,855.683 2289.88,862.761 
  2294.72,869.784 
  "/>
<path clip-path="url(#clip410)" d="
M1421.68 554.876 L2284.4 554.876 L2284.4 166.076 L1421.68 166.076  Z
  " fill="#ffffff" fill-rule="evenodd" fill-opacity="1"/>
<polyline clip-path="url(#clip410)" style="stroke:#000000; stroke-linecap:butt; stroke-linejoin:round; stroke-width:4; stroke-opacity:1; fill:none" points="
  1421.68,554.876 2284.4,554.876 2284.4,166.076 1421.68,166.076 1421.68,554.876 
  "/>
<polyline clip-path="url(#clip410)" style="stroke:#009af9; stroke-linecap:butt; stroke-linejoin:round; stroke-width:6; stroke-opacity:1; fill:none" points="
  1444.47,243.836 1581.18,243.836 
  "/>
<path clip-path="url(#clip410)" d="M1637.34 219.617 L1637.34 226.457 Q1633.34 224.548 1629.8 223.61 Q1626.26 222.673 1622.96 222.673 Q1617.23 222.673 1614.11 224.895 Q1611.02 227.117 1611.02 231.214 Q1611.02 234.652 1613.07 236.423 Q1615.15 238.159 1620.91 239.235 L1625.15 240.103 Q1633 241.596 1636.71 245.381 Q1640.46 249.131 1640.46 255.45 Q1640.46 262.985 1635.39 266.874 Q1630.36 270.763 1620.6 270.763 Q1616.92 270.763 1612.75 269.929 Q1608.62 269.096 1604.18 267.464 L1604.18 260.242 Q1608.45 262.638 1612.54 263.853 Q1616.64 265.068 1620.6 265.068 Q1626.61 265.068 1629.87 262.707 Q1633.13 260.346 1633.13 255.971 Q1633.13 252.152 1630.77 249.999 Q1628.45 247.846 1623.1 246.77 L1618.83 245.936 Q1610.98 244.374 1607.47 241.041 Q1603.97 237.707 1603.97 231.77 Q1603.97 224.895 1608.79 220.937 Q1613.66 216.978 1622.16 216.978 Q1625.81 216.978 1629.59 217.638 Q1633.38 218.298 1637.34 219.617 Z" fill="#000000" fill-rule="evenodd" fill-opacity="1" /><path clip-path="url(#clip410)" d="M1651.12 230.867 L1657.51 230.867 L1657.51 269.756 L1651.12 269.756 L1651.12 230.867 M1651.12 215.728 L1657.51 215.728 L1657.51 223.818 L1651.12 223.818 L1651.12 215.728 Z" fill="#000000" fill-rule="evenodd" fill-opacity="1" /><path clip-path="url(#clip410)" d="M1701.15 238.332 Q1703.55 234.027 1706.88 231.978 Q1710.22 229.93 1714.73 229.93 Q1720.81 229.93 1724.11 234.2 Q1727.4 238.436 1727.4 246.284 L1727.4 269.756 L1720.98 269.756 L1720.98 246.492 Q1720.98 240.902 1719 238.193 Q1717.02 235.485 1712.96 235.485 Q1708 235.485 1705.11 238.784 Q1702.23 242.082 1702.23 247.777 L1702.23 269.756 L1695.81 269.756 L1695.81 246.492 Q1695.81 240.867 1693.83 238.193 Q1691.85 235.485 1687.72 235.485 Q1682.82 235.485 1679.94 238.818 Q1677.06 242.117 1677.06 247.777 L1677.06 269.756 L1670.63 269.756 L1670.63 230.867 L1677.06 230.867 L1677.06 236.909 Q1679.25 233.332 1682.3 231.631 Q1685.36 229.93 1689.56 229.93 Q1693.79 229.93 1696.75 232.082 Q1699.73 234.235 1701.15 238.332 Z" fill="#000000" fill-rule="evenodd" fill-opacity="1" /><path clip-path="url(#clip410)" d="M1746.33 263.922 L1746.33 284.547 L1739.9 284.547 L1739.9 230.867 L1746.33 230.867 L1746.33 236.77 Q1748.34 233.298 1751.4 231.631 Q1754.49 229.93 1758.76 229.93 Q1765.84 229.93 1770.25 235.555 Q1774.7 241.179 1774.7 250.346 Q1774.7 259.513 1770.25 265.138 Q1765.84 270.763 1758.76 270.763 Q1754.49 270.763 1751.4 269.096 Q1748.34 267.395 1746.33 263.922 M1768.06 250.346 Q1768.06 243.298 1765.15 239.304 Q1762.27 235.277 1757.2 235.277 Q1752.13 235.277 1749.21 239.304 Q1746.33 243.298 1746.33 250.346 Q1746.33 257.395 1749.21 261.422 Q1752.13 265.415 1757.2 265.415 Q1762.27 265.415 1765.15 261.422 Q1768.06 257.395 1768.06 250.346 Z" fill="#000000" fill-rule="evenodd" fill-opacity="1" /><path clip-path="url(#clip410)" d="M1785.29 215.728 L1791.68 215.728 L1791.68 269.756 L1785.29 269.756 L1785.29 215.728 Z" fill="#000000" fill-rule="evenodd" fill-opacity="1" /><path clip-path="url(#clip410)" d="M1838.31 248.714 L1838.31 251.839 L1808.93 251.839 Q1809.35 258.436 1812.89 261.909 Q1816.47 265.346 1822.82 265.346 Q1826.5 265.346 1829.94 264.443 Q1833.41 263.54 1836.81 261.735 L1836.81 267.777 Q1833.38 269.235 1829.77 269.999 Q1826.15 270.763 1822.44 270.763 Q1813.13 270.763 1807.68 265.346 Q1802.27 259.929 1802.27 250.693 Q1802.27 241.145 1807.4 235.555 Q1812.58 229.93 1821.33 229.93 Q1829.17 229.93 1833.72 234.999 Q1838.31 240.034 1838.31 248.714 M1831.92 246.839 Q1831.85 241.596 1828.97 238.471 Q1826.12 235.346 1821.4 235.346 Q1816.05 235.346 1812.82 238.367 Q1809.63 241.388 1809.14 246.874 L1831.92 246.839 Z" fill="#000000" fill-rule="evenodd" fill-opacity="1" /><path clip-path="url(#clip410)" d="M1849.07 217.916 L1878.86 217.916 L1878.86 223.818 L1856.08 223.818 L1856.08 239.096 L1876.64 239.096 L1876.64 244.999 L1856.08 244.999 L1856.08 269.756 L1849.07 269.756 L1849.07 217.916 Z" fill="#000000" fill-rule="evenodd" fill-opacity="1" /><path clip-path="url(#clip410)" d="M1889.97 217.916 L1900.42 217.916 L1913.65 253.193 L1926.95 217.916 L1937.4 217.916 L1937.4 269.756 L1930.56 269.756 L1930.56 224.235 L1917.2 259.79 L1910.15 259.79 L1896.78 224.235 L1896.78 269.756 L1889.97 269.756 L1889.97 217.916 Z" fill="#000000" fill-rule="evenodd" fill-opacity="1" /><path clip-path="url(#clip410)" d="M1950.53 217.916 L1957.58 217.916 L1957.58 249.409 Q1957.58 257.742 1960.6 261.422 Q1963.62 265.068 1970.39 265.068 Q1977.13 265.068 1980.15 261.422 Q1983.17 257.742 1983.17 249.409 L1983.17 217.916 L1990.22 217.916 L1990.22 250.277 Q1990.22 260.415 1985.18 265.589 Q1980.18 270.763 1970.39 270.763 Q1960.56 270.763 1955.53 265.589 Q1950.53 260.415 1950.53 250.277 L1950.53 217.916 Z" fill="#000000" fill-rule="evenodd" fill-opacity="1" /><polyline clip-path="url(#clip410)" style="stroke:#e26f46; stroke-linecap:butt; stroke-linejoin:round; stroke-width:6; stroke-opacity:1; fill:none" points="
  1444.47,321.596 1581.18,321.596 
  "/>
<path clip-path="url(#clip410)" d="M1628.55 323.21 Q1630.81 323.974 1632.93 326.474 Q1635.08 328.974 1637.23 333.349 L1644.35 347.516 L1636.81 347.516 L1630.18 334.217 Q1627.61 329.009 1625.18 327.307 Q1622.79 325.606 1618.62 325.606 L1610.98 325.606 L1610.98 347.516 L1603.97 347.516 L1603.97 295.676 L1619.8 295.676 Q1628.69 295.676 1633.06 299.391 Q1637.44 303.106 1637.44 310.606 Q1637.44 315.502 1635.15 318.731 Q1632.89 321.96 1628.55 323.21 M1610.98 301.44 L1610.98 319.842 L1619.8 319.842 Q1624.87 319.842 1627.44 317.516 Q1630.04 315.155 1630.04 310.606 Q1630.04 306.058 1627.44 303.766 Q1624.87 301.44 1619.8 301.44 L1610.98 301.44 Z" fill="#000000" fill-rule="evenodd" fill-opacity="1" /><path clip-path="url(#clip410)" d="M1683.17 326.474 L1683.17 329.599 L1653.79 329.599 Q1654.21 336.196 1657.75 339.669 Q1661.33 343.106 1667.68 343.106 Q1671.36 343.106 1674.8 342.203 Q1678.27 341.3 1681.68 339.495 L1681.68 345.537 Q1678.24 346.995 1674.63 347.759 Q1671.02 348.523 1667.3 348.523 Q1658 348.523 1652.54 343.106 Q1647.13 337.689 1647.13 328.453 Q1647.13 318.905 1652.27 313.315 Q1657.44 307.69 1666.19 307.69 Q1674.04 307.69 1678.59 312.759 Q1683.17 317.794 1683.17 326.474 M1676.78 324.599 Q1676.71 319.356 1673.83 316.231 Q1670.98 313.106 1666.26 313.106 Q1660.91 313.106 1657.68 316.127 Q1654.49 319.148 1654 324.634 L1676.78 324.599 Z" fill="#000000" fill-rule="evenodd" fill-opacity="1" /><path clip-path="url(#clip410)" d="M1713.34 293.488 L1713.34 298.801 L1707.23 298.801 Q1703.79 298.801 1702.44 300.19 Q1701.12 301.578 1701.12 305.19 L1701.12 308.627 L1711.64 308.627 L1711.64 313.592 L1701.12 313.592 L1701.12 347.516 L1694.7 347.516 L1694.7 313.592 L1688.59 313.592 L1688.59 308.627 L1694.7 308.627 L1694.7 305.919 Q1694.7 299.426 1697.72 296.474 Q1700.74 293.488 1707.3 293.488 L1713.34 293.488 Z" fill="#000000" fill-rule="evenodd" fill-opacity="1" /><path clip-path="url(#clip410)" d="M1751.95 326.474 L1751.95 329.599 L1722.58 329.599 Q1723 336.196 1726.54 339.669 Q1730.11 343.106 1736.47 343.106 Q1740.15 343.106 1743.59 342.203 Q1747.06 341.3 1750.46 339.495 L1750.46 345.537 Q1747.02 346.995 1743.41 347.759 Q1739.8 348.523 1736.09 348.523 Q1726.78 348.523 1721.33 343.106 Q1715.91 337.689 1715.91 328.453 Q1715.91 318.905 1721.05 313.315 Q1726.22 307.69 1734.97 307.69 Q1742.82 307.69 1747.37 312.759 Q1751.95 317.794 1751.95 326.474 M1745.56 324.599 Q1745.49 319.356 1742.61 316.231 Q1739.77 313.106 1735.04 313.106 Q1729.7 313.106 1726.47 316.127 Q1723.27 319.148 1722.79 324.634 L1745.56 324.599 Z" fill="#000000" fill-rule="evenodd" fill-opacity="1" /><path clip-path="url(#clip410)" d="M1784.97 314.599 Q1783.9 313.974 1782.61 313.696 Q1781.36 313.384 1779.83 313.384 Q1774.42 313.384 1771.5 316.926 Q1768.62 320.433 1768.62 327.03 L1768.62 347.516 L1762.2 347.516 L1762.2 308.627 L1768.62 308.627 L1768.62 314.669 Q1770.63 311.127 1773.86 309.426 Q1777.09 307.69 1781.71 307.69 Q1782.37 307.69 1783.17 307.794 Q1783.97 307.863 1784.94 308.037 L1784.97 314.599 Z" fill="#000000" fill-rule="evenodd" fill-opacity="1" /><path clip-path="url(#clip410)" d="M1823.38 326.474 L1823.38 329.599 L1794 329.599 Q1794.42 336.196 1797.96 339.669 Q1801.54 343.106 1807.89 343.106 Q1811.57 343.106 1815.01 342.203 Q1818.48 341.3 1821.88 339.495 L1821.88 345.537 Q1818.45 346.995 1814.83 347.759 Q1811.22 348.523 1807.51 348.523 Q1798.2 348.523 1792.75 343.106 Q1787.33 337.689 1787.33 328.453 Q1787.33 318.905 1792.47 313.315 Q1797.65 307.69 1806.4 307.69 Q1814.24 307.69 1818.79 312.759 Q1823.38 317.794 1823.38 326.474 M1816.99 324.599 Q1816.92 319.356 1814.04 316.231 Q1811.19 313.106 1806.47 313.106 Q1801.12 313.106 1797.89 316.127 Q1794.7 319.148 1794.21 324.634 L1816.99 324.599 Z" fill="#000000" fill-rule="evenodd" fill-opacity="1" /><path clip-path="url(#clip410)" d="M1866.19 324.044 L1866.19 347.516 L1859.8 347.516 L1859.8 324.252 Q1859.8 318.731 1857.65 315.988 Q1855.49 313.245 1851.19 313.245 Q1846.02 313.245 1843.03 316.544 Q1840.04 319.842 1840.04 325.537 L1840.04 347.516 L1833.62 347.516 L1833.62 308.627 L1840.04 308.627 L1840.04 314.669 Q1842.33 311.162 1845.42 309.426 Q1848.55 307.69 1852.61 307.69 Q1859.31 307.69 1862.75 311.856 Q1866.19 315.988 1866.19 324.044 Z" fill="#000000" fill-rule="evenodd" fill-opacity="1" /><path clip-path="url(#clip410)" d="M1906.92 310.12 L1906.92 316.092 Q1904.21 314.599 1901.47 313.87 Q1898.76 313.106 1895.98 313.106 Q1889.76 313.106 1886.33 317.064 Q1882.89 320.988 1882.89 328.106 Q1882.89 335.224 1886.33 339.182 Q1889.76 343.106 1895.98 343.106 Q1898.76 343.106 1901.47 342.377 Q1904.21 341.613 1906.92 340.12 L1906.92 346.023 Q1904.24 347.273 1901.36 347.898 Q1898.51 348.523 1895.29 348.523 Q1886.5 348.523 1881.33 343.002 Q1876.15 337.481 1876.15 328.106 Q1876.15 318.592 1881.36 313.141 Q1886.61 307.69 1895.7 307.69 Q1898.65 307.69 1901.47 308.315 Q1904.28 308.905 1906.92 310.12 Z" fill="#000000" fill-rule="evenodd" fill-opacity="1" /><path clip-path="url(#clip410)" d="M1951.29 326.474 L1951.29 329.599 L1921.92 329.599 Q1922.33 336.196 1925.88 339.669 Q1929.45 343.106 1935.81 343.106 Q1939.49 343.106 1942.92 342.203 Q1946.4 341.3 1949.8 339.495 L1949.8 345.537 Q1946.36 346.995 1942.75 347.759 Q1939.14 348.523 1935.42 348.523 Q1926.12 348.523 1920.67 343.106 Q1915.25 337.689 1915.25 328.453 Q1915.25 318.905 1920.39 313.315 Q1925.56 307.69 1934.31 307.69 Q1942.16 307.69 1946.71 312.759 Q1951.29 317.794 1951.29 326.474 M1944.9 324.599 Q1944.83 319.356 1941.95 316.231 Q1939.1 313.106 1934.38 313.106 Q1929.04 313.106 1925.81 316.127 Q1922.61 319.148 1922.13 324.634 L1944.9 324.599 Z" fill="#000000" fill-rule="evenodd" fill-opacity="1" /><polyline clip-path="url(#clip410)" style="stroke:#008000; stroke-linecap:butt; stroke-linejoin:round; stroke-width:6; stroke-opacity:1; fill:none" stroke-dasharray="3, 6" points="
  1444.47,399.356 1581.18,399.356 
  "/>
<path clip-path="url(#clip410)" d="M1603.97 373.436 L1613.41 373.436 L1636.4 416.804 L1636.4 373.436 L1643.2 373.436 L1643.2 425.276 L1633.76 425.276 L1610.77 381.908 L1610.77 425.276 L1603.97 425.276 L1603.97 373.436 Z" fill="#000000" fill-rule="evenodd" fill-opacity="1" /><path clip-path="url(#clip410)" d="M1690.15 404.234 L1690.15 407.359 L1660.77 407.359 Q1661.19 413.956 1664.73 417.429 Q1668.31 420.866 1674.66 420.866 Q1678.34 420.866 1681.78 419.963 Q1685.25 419.06 1688.65 417.255 L1688.65 423.297 Q1685.22 424.755 1681.61 425.519 Q1678 426.283 1674.28 426.283 Q1664.97 426.283 1659.52 420.866 Q1654.11 415.449 1654.11 406.213 Q1654.11 396.665 1659.25 391.075 Q1664.42 385.45 1673.17 385.45 Q1681.02 385.45 1685.56 390.519 Q1690.15 395.554 1690.15 404.234 M1683.76 402.359 Q1683.69 397.116 1680.81 393.991 Q1677.96 390.866 1673.24 390.866 Q1667.89 390.866 1664.66 393.887 Q1661.47 396.908 1660.98 402.394 L1683.76 402.359 Z" fill="#000000" fill-rule="evenodd" fill-opacity="1" /><path clip-path="url(#clip410)" d="M1699.97 409.929 L1699.97 386.387 L1706.36 386.387 L1706.36 409.686 Q1706.36 415.206 1708.52 417.984 Q1710.67 420.727 1714.97 420.727 Q1720.15 420.727 1723.13 417.429 Q1726.15 414.13 1726.15 408.436 L1726.15 386.387 L1732.54 386.387 L1732.54 425.276 L1726.15 425.276 L1726.15 419.304 Q1723.83 422.845 1720.74 424.581 Q1717.68 426.283 1713.62 426.283 Q1706.92 426.283 1703.45 422.116 Q1699.97 417.949 1699.97 409.929 M1716.05 385.45 L1716.05 385.45 Z" fill="#000000" fill-rule="evenodd" fill-opacity="1" /><path clip-path="url(#clip410)" d="M1768.24 392.359 Q1767.16 391.734 1765.88 391.456 Q1764.63 391.144 1763.1 391.144 Q1757.68 391.144 1754.77 394.686 Q1751.88 398.193 1751.88 404.79 L1751.88 425.276 L1745.46 425.276 L1745.46 386.387 L1751.88 386.387 L1751.88 392.429 Q1753.9 388.887 1757.13 387.186 Q1760.36 385.45 1764.97 385.45 Q1765.63 385.45 1766.43 385.554 Q1767.23 385.623 1768.2 385.797 L1768.24 392.359 Z" fill="#000000" fill-rule="evenodd" fill-opacity="1" /><path clip-path="url(#clip410)" d="M1792.61 405.727 Q1784.87 405.727 1781.88 407.498 Q1778.9 409.269 1778.9 413.54 Q1778.9 416.942 1781.12 418.956 Q1783.38 420.935 1787.23 420.935 Q1792.54 420.935 1795.74 417.185 Q1798.97 413.401 1798.97 407.151 L1798.97 405.727 L1792.61 405.727 M1805.36 403.088 L1805.36 425.276 L1798.97 425.276 L1798.97 419.373 Q1796.78 422.915 1793.52 424.616 Q1790.25 426.283 1785.53 426.283 Q1779.56 426.283 1776.02 422.949 Q1772.51 419.581 1772.51 413.956 Q1772.51 407.394 1776.88 404.061 Q1781.29 400.727 1790.01 400.727 L1798.97 400.727 L1798.97 400.102 Q1798.97 395.693 1796.05 393.297 Q1793.17 390.866 1787.93 390.866 Q1784.59 390.866 1781.43 391.665 Q1778.27 392.463 1775.36 394.061 L1775.36 388.158 Q1778.86 386.804 1782.16 386.144 Q1785.46 385.45 1788.58 385.45 Q1797.02 385.45 1801.19 389.825 Q1805.36 394.199 1805.36 403.088 Z" fill="#000000" fill-rule="evenodd" fill-opacity="1" /><path clip-path="url(#clip410)" d="M1818.52 371.248 L1824.9 371.248 L1824.9 425.276 L1818.52 425.276 L1818.52 371.248 Z" fill="#000000" fill-rule="evenodd" fill-opacity="1" /><path clip-path="url(#clip410)" d="M1838.55 373.436 L1868.34 373.436 L1868.34 379.338 L1845.56 379.338 L1845.56 394.616 L1866.12 394.616 L1866.12 400.519 L1845.56 400.519 L1845.56 425.276 L1838.55 425.276 L1838.55 373.436 Z" fill="#000000" fill-rule="evenodd" fill-opacity="1" /><path clip-path="url(#clip410)" d="M1879.45 373.436 L1889.9 373.436 L1903.13 408.713 L1916.43 373.436 L1926.88 373.436 L1926.88 425.276 L1920.04 425.276 L1920.04 379.755 L1906.67 415.31 L1899.63 415.31 L1886.26 379.755 L1886.26 425.276 L1879.45 425.276 L1879.45 373.436 Z" fill="#000000" fill-rule="evenodd" fill-opacity="1" /><path clip-path="url(#clip410)" d="M1940.01 373.436 L1947.06 373.436 L1947.06 404.929 Q1947.06 413.262 1950.08 416.942 Q1953.1 420.588 1959.87 420.588 Q1966.6 420.588 1969.63 416.942 Q1972.65 413.262 1972.65 404.929 L1972.65 373.436 L1979.7 373.436 L1979.7 405.797 Q1979.7 415.935 1974.66 421.109 Q1969.66 426.283 1959.87 426.283 Q1950.04 426.283 1945.01 421.109 Q1940.01 415.935 1940.01 405.797 L1940.01 373.436 Z" fill="#000000" fill-rule="evenodd" fill-opacity="1" /><path clip-path="url(#clip410)" d="M2030.53 371.318 Q2025.88 379.304 2023.62 387.116 Q2021.36 394.929 2021.36 402.949 Q2021.36 410.97 2023.62 418.852 Q2025.91 426.699 2030.53 434.651 L2024.97 434.651 Q2019.76 426.491 2017.16 418.609 Q2014.59 410.727 2014.59 402.949 Q2014.59 395.206 2017.16 387.359 Q2019.73 379.512 2024.97 371.318 L2030.53 371.318 Z" fill="#000000" fill-rule="evenodd" fill-opacity="1" /><path clip-path="url(#clip410)" d="M2049.87 419.373 L2074.35 419.373 L2074.35 425.276 L2041.43 425.276 L2041.43 419.373 Q2045.42 415.241 2052.3 408.297 Q2059.21 401.318 2060.98 399.304 Q2064.35 395.519 2065.67 392.915 Q2067.02 390.276 2067.02 387.741 Q2067.02 383.609 2064.1 381.005 Q2061.22 378.401 2056.57 378.401 Q2053.27 378.401 2049.59 379.547 Q2045.94 380.693 2041.78 383.019 L2041.78 375.936 Q2046.01 374.234 2049.69 373.366 Q2053.38 372.498 2056.43 372.498 Q2064.49 372.498 2069.28 376.526 Q2074.07 380.554 2074.07 387.29 Q2074.07 390.484 2072.85 393.366 Q2071.67 396.213 2068.51 400.102 Q2067.65 401.109 2062.99 405.936 Q2058.34 410.727 2049.87 419.373 Z" fill="#000000" fill-rule="evenodd" fill-opacity="1" /><path clip-path="url(#clip410)" d="M2089.14 373.436 L2116.67 373.436 L2116.67 379.338 L2095.56 379.338 L2095.56 392.047 Q2097.09 391.526 2098.62 391.283 Q2100.15 391.005 2101.67 391.005 Q2110.35 391.005 2115.42 395.762 Q2120.49 400.519 2120.49 408.644 Q2120.49 417.012 2115.28 421.665 Q2110.08 426.283 2100.6 426.283 Q2097.33 426.283 2093.93 425.727 Q2090.56 425.172 2086.95 424.06 L2086.95 417.012 Q2090.08 418.713 2093.41 419.547 Q2096.74 420.38 2100.46 420.38 Q2106.47 420.38 2109.97 417.22 Q2113.48 414.06 2113.48 408.644 Q2113.48 403.227 2109.97 400.068 Q2106.47 396.908 2100.46 396.908 Q2097.65 396.908 2094.83 397.533 Q2092.06 398.158 2089.14 399.477 L2089.14 373.436 Z" fill="#000000" fill-rule="evenodd" fill-opacity="1" /><path clip-path="url(#clip410)" d="M2149.31 378.054 Q2143.9 378.054 2141.15 383.401 Q2138.44 388.713 2138.44 399.408 Q2138.44 410.067 2141.15 415.415 Q2143.9 420.727 2149.31 420.727 Q2154.76 420.727 2157.47 415.415 Q2160.21 410.067 2160.21 399.408 Q2160.21 388.713 2157.47 383.401 Q2154.76 378.054 2149.31 378.054 M2149.31 372.498 Q2158.03 372.498 2162.61 379.408 Q2167.23 386.283 2167.23 399.408 Q2167.23 412.498 2162.61 419.408 Q2158.03 426.283 2149.31 426.283 Q2140.6 426.283 2135.98 419.408 Q2131.4 412.498 2131.4 399.408 Q2131.4 386.283 2135.98 379.408 Q2140.6 372.498 2149.31 372.498 Z" fill="#000000" fill-rule="evenodd" fill-opacity="1" /><path clip-path="url(#clip410)" d="M2194.55 378.054 Q2189.14 378.054 2186.4 383.401 Q2183.69 388.713 2183.69 399.408 Q2183.69 410.067 2186.4 415.415 Q2189.14 420.727 2194.55 420.727 Q2200.01 420.727 2202.71 415.415 Q2205.46 410.067 2205.46 399.408 Q2205.46 388.713 2202.71 383.401 Q2200.01 378.054 2194.55 378.054 M2194.55 372.498 Q2203.27 372.498 2207.85 379.408 Q2212.47 386.283 2212.47 399.408 Q2212.47 412.498 2207.85 419.408 Q2203.27 426.283 2194.55 426.283 Q2185.84 426.283 2181.22 419.408 Q2176.64 412.498 2176.64 399.408 Q2176.64 386.283 2181.22 379.408 Q2185.84 372.498 2194.55 372.498 Z" fill="#000000" fill-rule="evenodd" fill-opacity="1" /><path clip-path="url(#clip410)" d="M2222.89 371.318 L2228.44 371.318 Q2233.65 379.512 2236.22 387.359 Q2238.83 395.206 2238.83 402.949 Q2238.83 410.727 2236.22 418.609 Q2233.65 426.491 2228.44 434.651 L2222.89 434.651 Q2227.51 426.699 2229.76 418.852 Q2232.05 410.97 2232.05 402.949 Q2232.05 394.929 2229.76 387.116 Q2227.51 379.304 2222.89 371.318 Z" fill="#000000" fill-rule="evenodd" fill-opacity="1" /><polyline clip-path="url(#clip410)" style="stroke:#008000; stroke-linecap:butt; stroke-linejoin:round; stroke-width:6; stroke-opacity:1; fill:none" points="
  1444.47,477.116 1581.18,477.116 
  "/>
<path clip-path="url(#clip410)" d="M1603.97 451.196 L1613.41 451.196 L1636.4 494.564 L1636.4 451.196 L1643.2 451.196 L1643.2 503.036 L1633.76 503.036 L1610.77 459.668 L1610.77 503.036 L1603.97 503.036 L1603.97 451.196 Z" fill="#000000" fill-rule="evenodd" fill-opacity="1" /><path clip-path="url(#clip410)" d="M1690.15 481.994 L1690.15 485.119 L1660.77 485.119 Q1661.19 491.716 1664.73 495.189 Q1668.31 498.626 1674.66 498.626 Q1678.34 498.626 1681.78 497.723 Q1685.25 496.82 1688.65 495.015 L1688.65 501.057 Q1685.22 502.515 1681.61 503.279 Q1678 504.043 1674.28 504.043 Q1664.97 504.043 1659.52 498.626 Q1654.11 493.209 1654.11 483.973 Q1654.11 474.425 1659.25 468.835 Q1664.42 463.21 1673.17 463.21 Q1681.02 463.21 1685.56 468.279 Q1690.15 473.314 1690.15 481.994 M1683.76 480.119 Q1683.69 474.876 1680.81 471.751 Q1677.96 468.626 1673.24 468.626 Q1667.89 468.626 1664.66 471.647 Q1661.47 474.668 1660.98 480.154 L1683.76 480.119 Z" fill="#000000" fill-rule="evenodd" fill-opacity="1" /><path clip-path="url(#clip410)" d="M1699.97 487.689 L1699.97 464.147 L1706.36 464.147 L1706.36 487.446 Q1706.36 492.966 1708.52 495.744 Q1710.67 498.487 1714.97 498.487 Q1720.15 498.487 1723.13 495.189 Q1726.15 491.89 1726.15 486.196 L1726.15 464.147 L1732.54 464.147 L1732.54 503.036 L1726.15 503.036 L1726.15 497.064 Q1723.83 500.605 1720.74 502.341 Q1717.68 504.043 1713.62 504.043 Q1706.92 504.043 1703.45 499.876 Q1699.97 495.709 1699.97 487.689 M1716.05 463.21 L1716.05 463.21 Z" fill="#000000" fill-rule="evenodd" fill-opacity="1" /><path clip-path="url(#clip410)" d="M1768.24 470.119 Q1767.16 469.494 1765.88 469.216 Q1764.63 468.904 1763.1 468.904 Q1757.68 468.904 1754.77 472.446 Q1751.88 475.953 1751.88 482.55 L1751.88 503.036 L1745.46 503.036 L1745.46 464.147 L1751.88 464.147 L1751.88 470.189 Q1753.9 466.647 1757.13 464.946 Q1760.36 463.21 1764.97 463.21 Q1765.63 463.21 1766.43 463.314 Q1767.23 463.383 1768.2 463.557 L1768.24 470.119 Z" fill="#000000" fill-rule="evenodd" fill-opacity="1" /><path clip-path="url(#clip410)" d="M1792.61 483.487 Q1784.87 483.487 1781.88 485.258 Q1778.9 487.029 1778.9 491.3 Q1778.9 494.702 1781.12 496.716 Q1783.38 498.695 1787.23 498.695 Q1792.54 498.695 1795.74 494.945 Q1798.97 491.161 1798.97 484.911 L1798.97 483.487 L1792.61 483.487 M1805.36 480.848 L1805.36 503.036 L1798.97 503.036 L1798.97 497.133 Q1796.78 500.675 1793.52 502.376 Q1790.25 504.043 1785.53 504.043 Q1779.56 504.043 1776.02 500.709 Q1772.51 497.341 1772.51 491.716 Q1772.51 485.154 1776.88 481.821 Q1781.29 478.487 1790.01 478.487 L1798.97 478.487 L1798.97 477.862 Q1798.97 473.453 1796.05 471.057 Q1793.17 468.626 1787.93 468.626 Q1784.59 468.626 1781.43 469.425 Q1778.27 470.223 1775.36 471.821 L1775.36 465.918 Q1778.86 464.564 1782.16 463.904 Q1785.46 463.21 1788.58 463.21 Q1797.02 463.21 1801.19 467.585 Q1805.36 471.959 1805.36 480.848 Z" fill="#000000" fill-rule="evenodd" fill-opacity="1" /><path clip-path="url(#clip410)" d="M1818.52 449.008 L1824.9 449.008 L1824.9 503.036 L1818.52 503.036 L1818.52 449.008 Z" fill="#000000" fill-rule="evenodd" fill-opacity="1" /><path clip-path="url(#clip410)" d="M1838.55 451.196 L1868.34 451.196 L1868.34 457.098 L1845.56 457.098 L1845.56 472.376 L1866.12 472.376 L1866.12 478.279 L1845.56 478.279 L1845.56 503.036 L1838.55 503.036 L1838.55 451.196 Z" fill="#000000" fill-rule="evenodd" fill-opacity="1" /><path clip-path="url(#clip410)" d="M1879.45 451.196 L1889.9 451.196 L1903.13 486.473 L1916.43 451.196 L1926.88 451.196 L1926.88 503.036 L1920.04 503.036 L1920.04 457.515 L1906.67 493.07 L1899.63 493.07 L1886.26 457.515 L1886.26 503.036 L1879.45 503.036 L1879.45 451.196 Z" fill="#000000" fill-rule="evenodd" fill-opacity="1" /><path clip-path="url(#clip410)" d="M1940.01 451.196 L1947.06 451.196 L1947.06 482.689 Q1947.06 491.022 1950.08 494.702 Q1953.1 498.348 1959.87 498.348 Q1966.6 498.348 1969.63 494.702 Q1972.65 491.022 1972.65 482.689 L1972.65 451.196 L1979.7 451.196 L1979.7 483.557 Q1979.7 493.695 1974.66 498.869 Q1969.66 504.043 1959.87 504.043 Q1950.04 504.043 1945.01 498.869 Q1940.01 493.695 1940.01 483.557 L1940.01 451.196 Z" fill="#000000" fill-rule="evenodd" fill-opacity="1" /><path clip-path="url(#clip410)" d="M2030.53 449.078 Q2025.88 457.064 2023.62 464.876 Q2021.36 472.689 2021.36 480.709 Q2021.36 488.73 2023.62 496.612 Q2025.91 504.459 2030.53 512.411 L2024.97 512.411 Q2019.76 504.251 2017.16 496.369 Q2014.59 488.487 2014.59 480.709 Q2014.59 472.966 2017.16 465.119 Q2019.73 457.272 2024.97 449.078 L2030.53 449.078 Z" fill="#000000" fill-rule="evenodd" fill-opacity="1" /><path clip-path="url(#clip410)" d="M2043.9 451.196 L2071.43 451.196 L2071.43 457.098 L2050.32 457.098 L2050.32 469.807 Q2051.85 469.286 2053.38 469.043 Q2054.9 468.765 2056.43 468.765 Q2065.11 468.765 2070.18 473.522 Q2075.25 478.279 2075.25 486.404 Q2075.25 494.772 2070.04 499.425 Q2064.83 504.043 2055.35 504.043 Q2052.09 504.043 2048.69 503.487 Q2045.32 502.932 2041.71 501.82 L2041.71 494.772 Q2044.83 496.473 2048.17 497.307 Q2051.5 498.14 2055.22 498.14 Q2061.22 498.14 2064.73 494.98 Q2068.24 491.82 2068.24 486.404 Q2068.24 480.987 2064.73 477.828 Q2061.22 474.668 2055.22 474.668 Q2052.4 474.668 2049.59 475.293 Q2046.81 475.918 2043.9 477.237 L2043.9 451.196 Z" fill="#000000" fill-rule="evenodd" fill-opacity="1" /><path clip-path="url(#clip410)" d="M2104.07 455.814 Q2098.65 455.814 2095.91 461.161 Q2093.2 466.473 2093.2 477.168 Q2093.2 487.827 2095.91 493.175 Q2098.65 498.487 2104.07 498.487 Q2109.52 498.487 2112.23 493.175 Q2114.97 487.827 2114.97 477.168 Q2114.97 466.473 2112.23 461.161 Q2109.52 455.814 2104.07 455.814 M2104.07 450.258 Q2112.78 450.258 2117.37 457.168 Q2121.99 464.043 2121.99 477.168 Q2121.99 490.258 2117.37 497.168 Q2112.78 504.043 2104.07 504.043 Q2095.35 504.043 2090.74 497.168 Q2086.15 490.258 2086.15 477.168 Q2086.15 464.043 2090.74 457.168 Q2095.35 450.258 2104.07 450.258 Z" fill="#000000" fill-rule="evenodd" fill-opacity="1" /><path clip-path="url(#clip410)" d="M2149.31 455.814 Q2143.9 455.814 2141.15 461.161 Q2138.44 466.473 2138.44 477.168 Q2138.44 487.827 2141.15 493.175 Q2143.9 498.487 2149.31 498.487 Q2154.76 498.487 2157.47 493.175 Q2160.21 487.827 2160.21 477.168 Q2160.21 466.473 2157.47 461.161 Q2154.76 455.814 2149.31 455.814 M2149.31 450.258 Q2158.03 450.258 2162.61 457.168 Q2167.23 464.043 2167.23 477.168 Q2167.23 490.258 2162.61 497.168 Q2158.03 504.043 2149.31 504.043 Q2140.6 504.043 2135.98 497.168 Q2131.4 490.258 2131.4 477.168 Q2131.4 464.043 2135.98 457.168 Q2140.6 450.258 2149.31 450.258 Z" fill="#000000" fill-rule="evenodd" fill-opacity="1" /><path clip-path="url(#clip410)" d="M2194.55 455.814 Q2189.14 455.814 2186.4 461.161 Q2183.69 466.473 2183.69 477.168 Q2183.69 487.827 2186.4 493.175 Q2189.14 498.487 2194.55 498.487 Q2200.01 498.487 2202.71 493.175 Q2205.46 487.827 2205.46 477.168 Q2205.46 466.473 2202.71 461.161 Q2200.01 455.814 2194.55 455.814 M2194.55 450.258 Q2203.27 450.258 2207.85 457.168 Q2212.47 464.043 2212.47 477.168 Q2212.47 490.258 2207.85 497.168 Q2203.27 504.043 2194.55 504.043 Q2185.84 504.043 2181.22 497.168 Q2176.64 490.258 2176.64 477.168 Q2176.64 464.043 2181.22 457.168 Q2185.84 450.258 2194.55 450.258 Z" fill="#000000" fill-rule="evenodd" fill-opacity="1" /><path clip-path="url(#clip410)" d="M2222.89 449.078 L2228.44 449.078 Q2233.65 457.272 2236.22 465.119 Q2238.83 472.966 2238.83 480.709 Q2238.83 488.487 2236.22 496.369 Q2233.65 504.251 2228.44 512.411 L2222.89 512.411 Q2227.51 504.459 2229.76 496.612 Q2232.05 488.73 2232.05 480.709 Q2232.05 472.689 2229.76 464.876 Q2227.51 457.064 2222.89 449.078 Z" fill="#000000" fill-rule="evenodd" fill-opacity="1" /></svg>
