<?xml version="1.0" encoding="utf-8"?>
<svg xmlns="http://www.w3.org/2000/svg" xmlns:xlink="http://www.w3.org/1999/xlink" width="600" height="400" viewBox="0 0 2400 1600">
<defs>
  <clipPath id="clip090">
    <rect x="0" y="0" width="2400" height="1600"/>
  </clipPath>
</defs>
<path clip-path="url(#clip090)" d="
M0 1600 L2400 1600 L2400 0 L0 0  Z
  " fill="#ffffff" fill-rule="evenodd" fill-opacity="1"/>
<defs>
  <clipPath id="clip091">
    <rect x="480" y="0" width="1681" height="1600"/>
  </clipPath>
</defs>
<path clip-path="url(#clip090)" d="
M314.996 1401.58 L2352.76 1401.58 L2352.76 123.472 L314.996 123.472  Z
  " fill="#ffffff" fill-rule="evenodd" fill-opacity="1"/>
<defs>
  <clipPath id="clip092">
    <rect x="314" y="123" width="2039" height="1279"/>
  </clipPath>
</defs>
<polyline clip-path="url(#clip092)" style="stroke:#000000; stroke-linecap:butt; stroke-linejoin:round; stroke-width:2; stroke-opacity:0.1; fill:none" points="
  518.772,1401.58 518.772,123.472 
  "/>
<polyline clip-path="url(#clip092)" style="stroke:#000000; stroke-linecap:butt; stroke-linejoin:round; stroke-width:2; stroke-opacity:0.1; fill:none" points="
  926.324,1401.58 926.324,123.472 
  "/>
<polyline clip-path="url(#clip092)" style="stroke:#000000; stroke-linecap:butt; stroke-linejoin:round; stroke-width:2; stroke-opacity:0.1; fill:none" points="
  1333.88,1401.58 1333.88,123.472 
  "/>
<polyline clip-path="url(#clip092)" style="stroke:#000000; stroke-linecap:butt; stroke-linejoin:round; stroke-width:2; stroke-opacity:0.1; fill:none" points="
  1741.43,1401.58 1741.43,123.472 
  "/>
<polyline clip-path="url(#clip092)" style="stroke:#000000; stroke-linecap:butt; stroke-linejoin:round; stroke-width:2; stroke-opacity:0.1; fill:none" points="
  2148.98,1401.58 2148.98,123.472 
  "/>
<polyline clip-path="url(#clip090)" style="stroke:#000000; stroke-linecap:butt; stroke-linejoin:round; stroke-width:4; stroke-opacity:1; fill:none" points="
  314.996,1401.58 2352.76,1401.58 
  "/>
<polyline clip-path="url(#clip090)" style="stroke:#000000; stroke-linecap:butt; stroke-linejoin:round; stroke-width:4; stroke-opacity:1; fill:none" points="
  518.772,1401.58 518.772,1386.24 
  "/>
<polyline clip-path="url(#clip090)" style="stroke:#000000; stroke-linecap:butt; stroke-linejoin:round; stroke-width:4; stroke-opacity:1; fill:none" points="
  926.324,1401.58 926.324,1386.24 
  "/>
<polyline clip-path="url(#clip090)" style="stroke:#000000; stroke-linecap:butt; stroke-linejoin:round; stroke-width:4; stroke-opacity:1; fill:none" points="
  1333.88,1401.58 1333.88,1386.24 
  "/>
<polyline clip-path="url(#clip090)" style="stroke:#000000; stroke-linecap:butt; stroke-linejoin:round; stroke-width:4; stroke-opacity:1; fill:none" points="
  1741.43,1401.58 1741.43,1386.24 
  "/>
<polyline clip-path="url(#clip090)" style="stroke:#000000; stroke-linecap:butt; stroke-linejoin:round; stroke-width:4; stroke-opacity:1; fill:none" points="
  2148.98,1401.58 2148.98,1386.24 
  "/>
<path clip-path="url(#clip090)" d="M438.564 1457.74 L483.078 1457.74 L483.078 1463.65 L438.564 1463.65 L438.564 1457.74 Z" fill="#000000" fill-rule="evenodd" fill-opacity="1" /><path clip-path="url(#clip090)" d="M499.432 1477.09 L510.89 1477.09 L510.89 1437.54 L498.425 1440.04 L498.425 1433.65 L510.821 1431.15 L517.834 1431.15 L517.834 1477.09 L529.293 1477.09 L529.293 1482.99 L499.432 1482.99 L499.432 1477.09 Z" fill="#000000" fill-rule="evenodd" fill-opacity="1" /><path clip-path="url(#clip090)" d="M543.459 1474.17 L550.786 1474.17 L550.786 1482.99 L543.459 1482.99 L543.459 1474.17 Z" fill="#000000" fill-rule="evenodd" fill-opacity="1" /><path clip-path="url(#clip090)" d="M581.063 1435.77 Q575.647 1435.77 572.904 1441.11 Q570.195 1446.43 570.195 1457.12 Q570.195 1467.78 572.904 1473.13 Q575.647 1478.44 581.063 1478.44 Q586.515 1478.44 589.223 1473.13 Q591.966 1467.78 591.966 1457.12 Q591.966 1446.43 589.223 1441.11 Q586.515 1435.77 581.063 1435.77 M581.063 1430.21 Q589.779 1430.21 594.362 1437.12 Q598.98 1443.99 598.98 1457.12 Q598.98 1470.21 594.362 1477.12 Q589.779 1483.99 581.063 1483.99 Q572.348 1483.99 567.73 1477.12 Q563.147 1470.21 563.147 1457.12 Q563.147 1443.99 567.73 1437.12 Q572.348 1430.21 581.063 1430.21 Z" fill="#000000" fill-rule="evenodd" fill-opacity="1" /><path clip-path="url(#clip090)" d="M846.863 1457.74 L891.376 1457.74 L891.376 1463.65 L846.863 1463.65 L846.863 1457.74 Z" fill="#000000" fill-rule="evenodd" fill-opacity="1" /><path clip-path="url(#clip090)" d="M921.515 1435.77 Q916.098 1435.77 913.355 1441.11 Q910.647 1446.43 910.647 1457.12 Q910.647 1467.78 913.355 1473.13 Q916.098 1478.44 921.515 1478.44 Q926.966 1478.44 929.675 1473.13 Q932.418 1467.78 932.418 1457.12 Q932.418 1446.43 929.675 1441.11 Q926.966 1435.77 921.515 1435.77 M921.515 1430.21 Q930.23 1430.21 934.813 1437.12 Q939.432 1443.99 939.432 1457.12 Q939.432 1470.21 934.813 1477.12 Q930.23 1483.99 921.515 1483.99 Q912.8 1483.99 908.182 1477.12 Q903.598 1470.21 903.598 1457.12 Q903.598 1443.99 908.182 1437.12 Q912.8 1430.21 921.515 1430.21 Z" fill="#000000" fill-rule="evenodd" fill-opacity="1" /><path clip-path="url(#clip090)" d="M951.758 1474.17 L959.084 1474.17 L959.084 1482.99 L951.758 1482.99 L951.758 1474.17 Z" fill="#000000" fill-rule="evenodd" fill-opacity="1" /><path clip-path="url(#clip090)" d="M974.431 1431.15 L1001.97 1431.15 L1001.97 1437.05 L980.855 1437.05 L980.855 1449.76 Q982.383 1449.24 983.91 1448.99 Q985.438 1448.72 986.966 1448.72 Q995.646 1448.72 1000.72 1453.47 Q1005.79 1458.23 1005.79 1466.36 Q1005.79 1474.72 1000.58 1479.38 Q995.369 1483.99 985.89 1483.99 Q982.626 1483.99 979.223 1483.44 Q975.855 1482.88 972.244 1481.77 L972.244 1474.72 Q975.369 1476.43 978.702 1477.26 Q982.035 1478.09 985.751 1478.09 Q991.758 1478.09 995.265 1474.93 Q998.771 1471.77 998.771 1466.36 Q998.771 1460.94 995.265 1457.78 Q991.758 1454.62 985.751 1454.62 Q982.938 1454.62 980.126 1455.24 Q977.348 1455.87 974.431 1457.19 L974.431 1431.15 Z" fill="#000000" fill-rule="evenodd" fill-opacity="1" /><path clip-path="url(#clip090)" d="M1299.95 1435.77 Q1294.54 1435.77 1291.79 1441.11 Q1289.08 1446.43 1289.08 1457.12 Q1289.08 1467.78 1291.79 1473.13 Q1294.54 1478.44 1299.95 1478.44 Q1305.4 1478.44 1308.11 1473.13 Q1310.86 1467.78 1310.86 1457.12 Q1310.86 1446.43 1308.11 1441.11 Q1305.4 1435.77 1299.95 1435.77 M1299.95 1430.21 Q1308.67 1430.21 1313.25 1437.12 Q1317.87 1443.99 1317.87 1457.12 Q1317.87 1470.21 1313.25 1477.12 Q1308.67 1483.99 1299.95 1483.99 Q1291.24 1483.99 1286.62 1477.12 Q1282.04 1470.21 1282.04 1457.12 Q1282.04 1443.99 1286.62 1437.12 Q1291.24 1430.21 1299.95 1430.21 Z" fill="#000000" fill-rule="evenodd" fill-opacity="1" /><path clip-path="url(#clip090)" d="M1330.2 1474.17 L1337.52 1474.17 L1337.52 1482.99 L1330.2 1482.99 L1330.2 1474.17 Z" fill="#000000" fill-rule="evenodd" fill-opacity="1" /><path clip-path="url(#clip090)" d="M1367.8 1435.77 Q1362.38 1435.77 1359.64 1441.11 Q1356.93 1446.43 1356.93 1457.12 Q1356.93 1467.78 1359.64 1473.13 Q1362.38 1478.44 1367.8 1478.44 Q1373.25 1478.44 1375.96 1473.13 Q1378.7 1467.78 1378.7 1457.12 Q1378.7 1446.43 1375.96 1441.11 Q1373.25 1435.77 1367.8 1435.77 M1367.8 1430.21 Q1376.51 1430.21 1381.1 1437.12 Q1385.72 1443.99 1385.72 1457.12 Q1385.72 1470.21 1381.1 1477.12 Q1376.51 1483.99 1367.8 1483.99 Q1359.08 1483.99 1354.47 1477.12 Q1349.88 1470.21 1349.88 1457.12 Q1349.88 1443.99 1354.47 1437.12 Q1359.08 1430.21 1367.8 1430.21 Z" fill="#000000" fill-rule="evenodd" fill-opacity="1" /><path clip-path="url(#clip090)" d="M1708.25 1435.77 Q1702.83 1435.77 1700.09 1441.11 Q1697.38 1446.43 1697.38 1457.12 Q1697.38 1467.78 1700.09 1473.13 Q1702.83 1478.44 1708.25 1478.44 Q1713.7 1478.44 1716.41 1473.13 Q1719.15 1467.78 1719.15 1457.12 Q1719.15 1446.43 1716.41 1441.11 Q1713.7 1435.77 1708.25 1435.77 M1708.25 1430.21 Q1716.97 1430.21 1721.55 1437.12 Q1726.17 1443.99 1726.17 1457.12 Q1726.17 1470.21 1721.55 1477.12 Q1716.97 1483.99 1708.25 1483.99 Q1699.54 1483.99 1694.92 1477.12 Q1690.33 1470.21 1690.33 1457.12 Q1690.33 1443.99 1694.92 1437.12 Q1699.54 1430.21 1708.25 1430.21 Z" fill="#000000" fill-rule="evenodd" fill-opacity="1" /><path clip-path="url(#clip090)" d="M1738.49 1474.17 L1745.82 1474.17 L1745.82 1482.99 L1738.49 1482.99 L1738.49 1474.17 Z" fill="#000000" fill-rule="evenodd" fill-opacity="1" /><path clip-path="url(#clip090)" d="M1761.17 1431.15 L1788.7 1431.15 L1788.7 1437.05 L1767.59 1437.05 L1767.59 1449.76 Q1769.12 1449.24 1770.65 1448.99 Q1772.17 1448.72 1773.7 1448.72 Q1782.38 1448.72 1787.45 1453.47 Q1792.52 1458.23 1792.52 1466.36 Q1792.52 1474.72 1787.31 1479.38 Q1782.1 1483.99 1772.63 1483.99 Q1769.36 1483.99 1765.96 1483.44 Q1762.59 1482.88 1758.98 1481.77 L1758.98 1474.72 Q1762.1 1476.43 1765.44 1477.26 Q1768.77 1478.09 1772.49 1478.09 Q1778.49 1478.09 1782 1474.93 Q1785.51 1471.77 1785.51 1466.36 Q1785.51 1460.94 1782 1457.78 Q1778.49 1454.62 1772.49 1454.62 Q1769.67 1454.62 1766.86 1455.24 Q1764.08 1455.87 1761.17 1457.19 L1761.17 1431.15 Z" fill="#000000" fill-rule="evenodd" fill-opacity="1" /><path clip-path="url(#clip090)" d="M2099.71 1477.09 L2111.17 1477.09 L2111.17 1437.54 L2098.7 1440.04 L2098.7 1433.65 L2111.1 1431.15 L2118.11 1431.15 L2118.11 1477.09 L2129.57 1477.09 L2129.57 1482.99 L2099.71 1482.99 L2099.71 1477.09 Z" fill="#000000" fill-rule="evenodd" fill-opacity="1" /><path clip-path="url(#clip090)" d="M2143.74 1474.17 L2151.06 1474.17 L2151.06 1482.99 L2143.74 1482.99 L2143.74 1474.17 Z" fill="#000000" fill-rule="evenodd" fill-opacity="1" /><path clip-path="url(#clip090)" d="M2181.34 1435.77 Q2175.92 1435.77 2173.18 1441.11 Q2170.47 1446.43 2170.47 1457.12 Q2170.47 1467.78 2173.18 1473.13 Q2175.92 1478.44 2181.34 1478.44 Q2186.79 1478.44 2189.5 1473.13 Q2192.24 1467.78 2192.24 1457.12 Q2192.24 1446.43 2189.5 1441.11 Q2186.79 1435.77 2181.34 1435.77 M2181.34 1430.21 Q2190.06 1430.21 2194.64 1437.12 Q2199.26 1443.99 2199.26 1457.12 Q2199.26 1470.21 2194.64 1477.12 Q2190.06 1483.99 2181.34 1483.99 Q2172.63 1483.99 2168.01 1477.12 Q2163.42 1470.21 2163.42 1457.12 Q2163.42 1443.99 2168.01 1437.12 Q2172.63 1430.21 2181.34 1430.21 Z" fill="#000000" fill-rule="evenodd" fill-opacity="1" /><path clip-path="url(#clip090)" d="M1212.77 1538.66 L1219.54 1538.66 L1231.69 1571.3 L1243.84 1538.66 L1250.61 1538.66 L1236.03 1577.55 L1227.35 1577.55 L1212.77 1538.66 Z" fill="#000000" fill-rule="evenodd" fill-opacity="1" /><path clip-path="url(#clip090)" d="M1281.45 1523.52 L1296.17 1523.52 L1296.17 1528.49 L1287.83 1528.49 L1287.83 1581.96 L1296.17 1581.96 L1296.17 1586.92 L1281.45 1586.92 L1281.45 1523.52 Z" fill="#000000" fill-rule="evenodd" fill-opacity="1" /><path clip-path="url(#clip090)" d="M1340.06 1546.12 Q1342.45 1541.82 1345.79 1539.77 Q1349.12 1537.72 1353.63 1537.72 Q1359.71 1537.72 1363.01 1541.99 Q1366.31 1546.23 1366.31 1554.08 L1366.31 1577.55 L1359.88 1577.55 L1359.88 1554.28 Q1359.88 1548.69 1357.9 1545.99 Q1355.92 1543.28 1351.86 1543.28 Q1346.9 1543.28 1344.01 1546.58 Q1341.13 1549.87 1341.13 1555.57 L1341.13 1577.55 L1334.71 1577.55 L1334.71 1554.28 Q1334.71 1548.66 1332.73 1545.99 Q1330.75 1543.28 1326.62 1543.28 Q1321.72 1543.28 1318.84 1546.61 Q1315.96 1549.91 1315.96 1555.57 L1315.96 1577.55 L1309.54 1577.55 L1309.54 1538.66 L1315.96 1538.66 L1315.96 1544.7 Q1318.15 1541.12 1321.2 1539.42 Q1324.26 1537.72 1328.46 1537.72 Q1332.7 1537.72 1335.65 1539.87 Q1338.63 1542.03 1340.06 1546.12 Z" fill="#000000" fill-rule="evenodd" fill-opacity="1" /><path clip-path="url(#clip090)" d="M1390.4 1525.71 L1396.31 1525.71 L1378.25 1584.15 L1372.35 1584.15 L1390.4 1525.71 Z" fill="#000000" fill-rule="evenodd" fill-opacity="1" /><path clip-path="url(#clip090)" d="M1427.8 1539.8 L1427.8 1545.85 Q1425.09 1544.46 1422.17 1543.76 Q1419.26 1543.07 1416.13 1543.07 Q1411.38 1543.07 1408.98 1544.53 Q1406.62 1545.99 1406.62 1548.9 Q1406.62 1551.12 1408.32 1552.41 Q1410.02 1553.66 1415.16 1554.8 L1417.35 1555.29 Q1424.15 1556.75 1427 1559.42 Q1429.88 1562.06 1429.88 1566.82 Q1429.88 1572.24 1425.58 1575.4 Q1421.31 1578.55 1413.81 1578.55 Q1410.68 1578.55 1407.28 1577.93 Q1403.91 1577.34 1400.16 1576.12 L1400.16 1569.53 Q1403.7 1571.37 1407.14 1572.3 Q1410.58 1573.21 1413.94 1573.21 Q1418.46 1573.21 1420.89 1571.68 Q1423.32 1570.12 1423.32 1567.3 Q1423.32 1564.7 1421.55 1563.31 Q1419.81 1561.92 1413.88 1560.64 L1411.65 1560.12 Q1405.72 1558.87 1403.08 1556.3 Q1400.44 1553.69 1400.44 1549.18 Q1400.44 1543.69 1404.33 1540.71 Q1408.22 1537.72 1415.37 1537.72 Q1418.91 1537.72 1422.04 1538.24 Q1425.16 1538.76 1427.8 1539.8 Z" fill="#000000" fill-rule="evenodd" fill-opacity="1" /><path clip-path="url(#clip090)" d="M1454.99 1523.52 L1454.99 1586.92 L1440.26 1586.92 L1440.26 1581.96 L1448.56 1581.96 L1448.56 1528.49 L1440.26 1528.49 L1440.26 1523.52 L1454.99 1523.52 Z" fill="#000000" fill-rule="evenodd" fill-opacity="1" /><polyline clip-path="url(#clip092)" style="stroke:#000000; stroke-linecap:butt; stroke-linejoin:round; stroke-width:2; stroke-opacity:0.1; fill:none" points="
  314.996,1292.57 2352.76,1292.57 
  "/>
<polyline clip-path="url(#clip092)" style="stroke:#000000; stroke-linecap:butt; stroke-linejoin:round; stroke-width:2; stroke-opacity:0.1; fill:none" points="
  314.996,968.876 2352.76,968.876 
  "/>
<polyline clip-path="url(#clip092)" style="stroke:#000000; stroke-linecap:butt; stroke-linejoin:round; stroke-width:2; stroke-opacity:0.1; fill:none" points="
  314.996,645.183 2352.76,645.183 
  "/>
<polyline clip-path="url(#clip092)" style="stroke:#000000; stroke-linecap:butt; stroke-linejoin:round; stroke-width:2; stroke-opacity:0.1; fill:none" points="
  314.996,321.491 2352.76,321.491 
  "/>
<polyline clip-path="url(#clip090)" style="stroke:#000000; stroke-linecap:butt; stroke-linejoin:round; stroke-width:4; stroke-opacity:1; fill:none" points="
  314.996,1401.58 314.996,123.472 
  "/>
<polyline clip-path="url(#clip090)" style="stroke:#000000; stroke-linecap:butt; stroke-linejoin:round; stroke-width:4; stroke-opacity:1; fill:none" points="
  314.996,1292.57 339.449,1292.57 
  "/>
<polyline clip-path="url(#clip090)" style="stroke:#000000; stroke-linecap:butt; stroke-linejoin:round; stroke-width:4; stroke-opacity:1; fill:none" points="
  314.996,968.876 339.449,968.876 
  "/>
<polyline clip-path="url(#clip090)" style="stroke:#000000; stroke-linecap:butt; stroke-linejoin:round; stroke-width:4; stroke-opacity:1; fill:none" points="
  314.996,645.183 339.449,645.183 
  "/>
<polyline clip-path="url(#clip090)" style="stroke:#000000; stroke-linecap:butt; stroke-linejoin:round; stroke-width:4; stroke-opacity:1; fill:none" points="
  314.996,321.491 339.449,321.491 
  "/>
<path clip-path="url(#clip090)" d="M118.58 1293.25 L163.094 1293.25 L163.094 1299.15 L118.58 1299.15 L118.58 1293.25 Z" fill="#000000" fill-rule="evenodd" fill-opacity="1" /><path clip-path="url(#clip090)" d="M179.448 1312.59 L190.906 1312.59 L190.906 1273.04 L178.441 1275.54 L178.441 1269.15 L190.837 1266.65 L197.851 1266.65 L197.851 1312.59 L209.309 1312.59 L209.309 1318.49 L179.448 1318.49 L179.448 1312.59 Z" fill="#000000" fill-rule="evenodd" fill-opacity="1" /><path clip-path="url(#clip090)" d="M223.475 1309.67 L230.802 1309.67 L230.802 1318.49 L223.475 1318.49 L223.475 1309.67 Z" fill="#000000" fill-rule="evenodd" fill-opacity="1" /><path clip-path="url(#clip090)" d="M261.079 1271.27 Q255.663 1271.27 252.92 1276.61 Q250.211 1281.93 250.211 1292.62 Q250.211 1303.28 252.92 1308.63 Q255.663 1313.94 261.079 1313.94 Q266.531 1313.94 269.239 1308.63 Q271.982 1303.28 271.982 1292.62 Q271.982 1281.93 269.239 1276.61 Q266.531 1271.27 261.079 1271.27 M261.079 1265.71 Q269.795 1265.71 274.378 1272.62 Q278.996 1279.5 278.996 1292.62 Q278.996 1305.71 274.378 1312.62 Q269.795 1319.49 261.079 1319.49 Q252.364 1319.49 247.746 1312.62 Q243.163 1305.71 243.163 1292.62 Q243.163 1279.5 247.746 1272.62 Q252.364 1265.71 261.079 1265.71 Z" fill="#000000" fill-rule="evenodd" fill-opacity="1" /><path clip-path="url(#clip090)" d="M120.073 969.553 L164.587 969.553 L164.587 975.456 L120.073 975.456 L120.073 969.553 Z" fill="#000000" fill-rule="evenodd" fill-opacity="1" /><path clip-path="url(#clip090)" d="M194.726 947.574 Q189.309 947.574 186.566 952.921 Q183.858 958.233 183.858 968.928 Q183.858 979.587 186.566 984.935 Q189.309 990.247 194.726 990.247 Q200.177 990.247 202.885 984.935 Q205.628 979.587 205.628 968.928 Q205.628 958.233 202.885 952.921 Q200.177 947.574 194.726 947.574 M194.726 942.018 Q203.441 942.018 208.024 948.928 Q212.642 955.803 212.642 968.928 Q212.642 982.018 208.024 988.928 Q203.441 995.803 194.726 995.803 Q186.01 995.803 181.392 988.928 Q176.809 982.018 176.809 968.928 Q176.809 955.803 181.392 948.928 Q186.01 942.018 194.726 942.018 Z" fill="#000000" fill-rule="evenodd" fill-opacity="1" /><path clip-path="url(#clip090)" d="M224.968 985.976 L232.295 985.976 L232.295 994.796 L224.968 994.796 L224.968 985.976 Z" fill="#000000" fill-rule="evenodd" fill-opacity="1" /><path clip-path="url(#clip090)" d="M247.642 942.956 L275.177 942.956 L275.177 948.858 L254.066 948.858 L254.066 961.567 Q255.593 961.046 257.121 960.803 Q258.649 960.525 260.177 960.525 Q268.857 960.525 273.927 965.282 Q278.996 970.039 278.996 978.164 Q278.996 986.532 273.788 991.185 Q268.579 995.803 259.1 995.803 Q255.836 995.803 252.434 995.247 Q249.066 994.692 245.454 993.58 L245.454 986.532 Q248.579 988.233 251.913 989.067 Q255.246 989.9 258.961 989.9 Q264.968 989.9 268.475 986.74 Q271.982 983.581 271.982 978.164 Q271.982 972.747 268.475 969.588 Q264.968 966.428 258.961 966.428 Q256.149 966.428 253.336 967.053 Q250.559 967.678 247.642 968.997 L247.642 942.956 Z" fill="#000000" fill-rule="evenodd" fill-opacity="1" /><path clip-path="url(#clip090)" d="M193.233 623.881 Q187.816 623.881 185.073 629.229 Q182.365 634.541 182.365 645.236 Q182.365 655.895 185.073 661.242 Q187.816 666.555 193.233 666.555 Q198.684 666.555 201.392 661.242 Q204.135 655.895 204.135 645.236 Q204.135 634.541 201.392 629.229 Q198.684 623.881 193.233 623.881 M193.233 618.326 Q201.948 618.326 206.531 625.236 Q211.149 632.111 211.149 645.236 Q211.149 658.326 206.531 665.235 Q201.948 672.11 193.233 672.11 Q184.517 672.11 179.899 665.235 Q175.316 658.326 175.316 645.236 Q175.316 632.111 179.899 625.236 Q184.517 618.326 193.233 618.326 Z" fill="#000000" fill-rule="evenodd" fill-opacity="1" /><path clip-path="url(#clip090)" d="M223.475 662.284 L230.802 662.284 L230.802 671.103 L223.475 671.103 L223.475 662.284 Z" fill="#000000" fill-rule="evenodd" fill-opacity="1" /><path clip-path="url(#clip090)" d="M261.079 623.881 Q255.663 623.881 252.92 629.229 Q250.211 634.541 250.211 645.236 Q250.211 655.895 252.92 661.242 Q255.663 666.555 261.079 666.555 Q266.531 666.555 269.239 661.242 Q271.982 655.895 271.982 645.236 Q271.982 634.541 269.239 629.229 Q266.531 623.881 261.079 623.881 M261.079 618.326 Q269.795 618.326 274.378 625.236 Q278.996 632.111 278.996 645.236 Q278.996 658.326 274.378 665.235 Q269.795 672.11 261.079 672.11 Q252.364 672.11 247.746 665.235 Q243.163 658.326 243.163 645.236 Q243.163 632.111 247.746 625.236 Q252.364 618.326 261.079 618.326 Z" fill="#000000" fill-rule="evenodd" fill-opacity="1" /><path clip-path="url(#clip090)" d="M194.726 300.189 Q189.309 300.189 186.566 305.536 Q183.858 310.849 183.858 321.543 Q183.858 332.203 186.566 337.55 Q189.309 342.863 194.726 342.863 Q200.177 342.863 202.885 337.55 Q205.628 332.203 205.628 321.543 Q205.628 310.849 202.885 305.536 Q200.177 300.189 194.726 300.189 M194.726 294.634 Q203.441 294.634 208.024 301.543 Q212.642 308.418 212.642 321.543 Q212.642 334.633 208.024 341.543 Q203.441 348.418 194.726 348.418 Q186.01 348.418 181.392 341.543 Q176.809 334.633 176.809 321.543 Q176.809 308.418 181.392 301.543 Q186.01 294.634 194.726 294.634 Z" fill="#000000" fill-rule="evenodd" fill-opacity="1" /><path clip-path="url(#clip090)" d="M224.968 338.592 L232.295 338.592 L232.295 347.411 L224.968 347.411 L224.968 338.592 Z" fill="#000000" fill-rule="evenodd" fill-opacity="1" /><path clip-path="url(#clip090)" d="M247.642 295.571 L275.177 295.571 L275.177 301.474 L254.066 301.474 L254.066 314.182 Q255.593 313.661 257.121 313.418 Q258.649 313.14 260.177 313.14 Q268.857 313.14 273.927 317.897 Q278.996 322.654 278.996 330.779 Q278.996 339.147 273.788 343.8 Q268.579 348.418 259.1 348.418 Q255.836 348.418 252.434 347.863 Q249.066 347.307 245.454 346.196 L245.454 339.147 Q248.579 340.849 251.913 341.682 Q255.246 342.515 258.961 342.515 Q264.968 342.515 268.475 339.356 Q271.982 336.196 271.982 330.779 Q271.982 325.363 268.475 322.203 Q264.968 319.043 258.961 319.043 Q256.149 319.043 253.336 319.668 Q250.559 320.293 247.642 321.613 L247.642 295.571 Z" fill="#000000" fill-rule="evenodd" fill-opacity="1" /><path clip-path="url(#clip090)" d="M13.0007 1025.04 L18.3131 1025.04 L18.3131 1031.15 Q18.3131 1034.59 19.702 1035.94 Q21.0909 1037.26 24.702 1037.26 L28.1395 1037.26 L28.1395 1026.74 L33.1047 1026.74 L33.1047 1037.26 L67.0282 1037.26 L67.0282 1043.69 L33.1047 1043.69 L33.1047 1049.8 L28.1395 1049.8 L28.1395 1043.69 L25.4312 1043.69 Q18.9381 1043.69 15.9868 1040.67 Q13.0007 1037.65 13.0007 1031.08 L13.0007 1025.04 Z" fill="#000000" fill-rule="evenodd" fill-opacity="1" /><path clip-path="url(#clip090)" d="M34.1117 997.16 Q33.4867 998.237 33.2089 999.521 Q32.8964 1000.77 32.8964 1002.3 Q32.8964 1007.72 36.438 1010.63 Q39.945 1013.51 46.5422 1013.51 L67.0282 1013.51 L67.0282 1019.94 L28.1395 1019.94 L28.1395 1013.51 L34.1811 1013.51 Q30.6395 1011.5 28.9381 1008.27 Q27.202 1005.04 27.202 1000.42 Q27.202 999.764 27.3061 998.966 Q27.3756 998.167 27.5492 997.195 L34.1117 997.16 Z" fill="#000000" fill-rule="evenodd" fill-opacity="1" /><path clip-path="url(#clip090)" d="M28.1395 990.459 L28.1395 984.07 L67.0282 984.07 L67.0282 990.459 L28.1395 990.459 M13.0007 990.459 L13.0007 984.07 L21.0909 984.07 L21.0909 990.459 L13.0007 990.459 Z" fill="#000000" fill-rule="evenodd" fill-opacity="1" /><path clip-path="url(#clip090)" d="M29.6325 942.716 L35.6047 942.716 Q34.1117 945.424 33.3825 948.167 Q32.6186 950.876 32.6186 953.653 Q32.6186 959.869 36.5769 963.306 Q40.5005 966.744 47.6185 966.744 Q54.7366 966.744 58.6949 963.306 Q62.6185 959.869 62.6185 953.653 Q62.6185 950.876 61.8893 948.167 Q61.1254 945.424 59.6324 942.716 L65.5351 942.716 Q66.7851 945.39 67.4101 948.272 Q68.0351 951.119 68.0351 954.348 Q68.0351 963.133 62.5143 968.306 Q56.9935 973.48 47.6185 973.48 Q38.1047 973.48 32.6533 968.271 Q27.202 963.028 27.202 953.931 Q27.202 950.98 27.827 948.167 Q28.4173 945.355 29.6325 942.716 Z" fill="#000000" fill-rule="evenodd" fill-opacity="1" /><path clip-path="url(#clip090)" d="M17.0979 925.286 L28.1395 925.286 L28.1395 912.126 L33.1047 912.126 L33.1047 925.286 L54.2157 925.286 Q58.9726 925.286 60.3268 924.001 Q61.681 922.681 61.681 918.688 L61.681 912.126 L67.0282 912.126 L67.0282 918.688 Q67.0282 926.084 64.2851 928.897 Q61.5074 931.709 54.2157 931.709 L33.1047 931.709 L33.1047 936.397 L28.1395 936.397 L28.1395 931.709 L17.0979 931.709 L17.0979 925.286 Z" fill="#000000" fill-rule="evenodd" fill-opacity="1" /><path clip-path="url(#clip090)" d="M28.1395 903.723 L28.1395 897.334 L67.0282 897.334 L67.0282 903.723 L28.1395 903.723 M13.0007 903.723 L13.0007 897.334 L21.0909 897.334 L21.0909 903.723 L13.0007 903.723 Z" fill="#000000" fill-rule="evenodd" fill-opacity="1" /><path clip-path="url(#clip090)" d="M32.6186 868.897 Q32.6186 874.036 36.6464 877.022 Q40.6394 880.008 47.6185 880.008 Q54.5977 880.008 58.6254 877.057 Q62.6185 874.071 62.6185 868.897 Q62.6185 863.793 58.5907 860.807 Q54.5629 857.821 47.6185 857.821 Q40.7089 857.821 36.6811 860.807 Q32.6186 863.793 32.6186 868.897 M27.202 868.897 Q27.202 860.564 32.6186 855.807 Q38.0353 851.05 47.6185 851.05 Q57.1671 851.05 62.6185 855.807 Q68.0351 860.564 68.0351 868.897 Q68.0351 877.265 62.6185 882.022 Q57.1671 886.744 47.6185 886.744 Q38.0353 886.744 32.6186 882.022 Q27.202 877.265 27.202 868.897 Z" fill="#000000" fill-rule="evenodd" fill-opacity="1" /><path clip-path="url(#clip090)" d="M43.5561 808.133 L67.0282 808.133 L67.0282 814.522 L43.7644 814.522 Q38.2436 814.522 35.5005 816.675 Q32.7575 818.828 32.7575 823.133 Q32.7575 828.307 36.0561 831.293 Q39.3547 834.279 45.0491 834.279 L67.0282 834.279 L67.0282 840.703 L28.1395 840.703 L28.1395 834.279 L34.1811 834.279 Q30.6742 831.987 28.9381 828.897 Q27.202 825.772 27.202 821.71 Q27.202 815.008 31.3686 811.571 Q35.5005 808.133 43.5561 808.133 Z" fill="#000000" fill-rule="evenodd" fill-opacity="1" /><path clip-path="url(#clip090)" d="M13.0007 753.099 L18.3131 753.099 L18.3131 759.21 Q18.3131 762.648 19.702 764.002 Q21.0909 765.321 24.702 765.321 L28.1395 765.321 L28.1395 754.8 L33.1047 754.8 L33.1047 765.321 L67.0282 765.321 L67.0282 771.745 L33.1047 771.745 L33.1047 777.856 L28.1395 777.856 L28.1395 771.745 L25.4312 771.745 Q18.9381 771.745 15.9868 768.724 Q13.0007 765.703 13.0007 759.141 L13.0007 753.099 Z" fill="#000000" fill-rule="evenodd" fill-opacity="1" /><path clip-path="url(#clip090)" d="M32.6186 732.682 Q32.6186 737.821 36.6464 740.807 Q40.6394 743.793 47.6185 743.793 Q54.5977 743.793 58.6254 740.842 Q62.6185 737.856 62.6185 732.682 Q62.6185 727.578 58.5907 724.592 Q54.5629 721.606 47.6185 721.606 Q40.7089 721.606 36.6811 724.592 Q32.6186 727.578 32.6186 732.682 M27.202 732.682 Q27.202 724.349 32.6186 719.592 Q38.0353 714.835 47.6185 714.835 Q57.1671 714.835 62.6185 719.592 Q68.0351 724.349 68.0351 732.682 Q68.0351 741.05 62.6185 745.807 Q57.1671 750.53 47.6185 750.53 Q38.0353 750.53 32.6186 745.807 Q27.202 741.05 27.202 732.682 Z" fill="#000000" fill-rule="evenodd" fill-opacity="1" /><path clip-path="url(#clip090)" d="M34.1117 681.71 Q33.4867 682.787 33.2089 684.072 Q32.8964 685.322 32.8964 686.849 Q32.8964 692.266 36.438 695.183 Q39.945 698.065 46.5422 698.065 L67.0282 698.065 L67.0282 704.488 L28.1395 704.488 L28.1395 698.065 L34.1811 698.065 Q30.6395 696.051 28.9381 692.821 Q27.202 689.592 27.202 684.974 Q27.202 684.315 27.3061 683.516 Q27.3756 682.717 27.5492 681.745 L34.1117 681.71 Z" fill="#000000" fill-rule="evenodd" fill-opacity="1" /><path clip-path="url(#clip090)" d="M29.6325 648.586 L35.6047 648.586 Q34.1117 651.294 33.3825 654.037 Q32.6186 656.745 32.6186 659.523 Q32.6186 665.738 36.5769 669.176 Q40.5005 672.613 47.6185 672.613 Q54.7366 672.613 58.6949 669.176 Q62.6185 665.738 62.6185 659.523 Q62.6185 656.745 61.8893 654.037 Q61.1254 651.294 59.6324 648.586 L65.5351 648.586 Q66.7851 651.259 67.4101 654.141 Q68.0351 656.988 68.0351 660.218 Q68.0351 669.002 62.5143 674.176 Q56.9935 679.349 47.6185 679.349 Q38.1047 679.349 32.6533 674.141 Q27.202 668.898 27.202 659.801 Q27.202 656.849 27.827 654.037 Q28.4173 651.224 29.6325 648.586 Z" fill="#000000" fill-rule="evenodd" fill-opacity="1" /><path clip-path="url(#clip090)" d="M45.9866 604.211 L49.1116 604.211 L49.1116 633.586 Q55.7088 633.169 59.181 629.627 Q62.6185 626.051 62.6185 619.697 Q62.6185 616.016 61.7157 612.579 Q60.8129 609.107 59.0074 605.704 L65.049 605.704 Q66.5073 609.141 67.2712 612.752 Q68.0351 616.364 68.0351 620.079 Q68.0351 629.384 62.6185 634.836 Q57.2018 640.252 47.9658 640.252 Q38.4172 640.252 32.827 635.113 Q27.202 629.94 27.202 621.19 Q27.202 613.343 32.2714 608.794 Q37.3061 604.211 45.9866 604.211 M44.1116 610.6 Q38.8686 610.669 35.7436 613.551 Q32.6186 616.398 32.6186 621.12 Q32.6186 626.468 35.6394 629.697 Q38.6603 632.891 44.1463 633.377 L44.1116 610.6 Z" fill="#000000" fill-rule="evenodd" fill-opacity="1" /><path clip-path="url(#clip090)" d="M13.0007 571.711 L13.0007 556.989 L17.9659 556.989 L17.9659 565.322 L71.4379 565.322 L71.4379 556.989 L76.4031 556.989 L76.4031 571.711 L13.0007 571.711 Z" fill="#000000" fill-rule="evenodd" fill-opacity="1" /><path clip-path="url(#clip090)" d="M15.1882 543.1 L15.1882 533.656 L58.556 510.67 L15.1882 510.67 L15.1882 503.864 L67.0282 503.864 L67.0282 513.309 L23.6603 536.295 L67.0282 536.295 L67.0282 543.1 L15.1882 543.1 Z" fill="#000000" fill-rule="evenodd" fill-opacity="1" /><path clip-path="url(#clip090)" d="M13.0007 475.253 L76.4031 475.253 L76.4031 489.975 L71.4379 489.975 L71.4379 481.677 L17.9659 481.677 L17.9659 489.975 L13.0007 489.975 L13.0007 475.253 Z" fill="#000000" fill-rule="evenodd" fill-opacity="1" /><path clip-path="url(#clip090)" d="M1008.49 12.096 L1043.24 12.096 L1043.24 18.9825 L1016.67 18.9825 L1016.67 36.8065 L1040.65 36.8065 L1040.65 43.6931 L1016.67 43.6931 L1016.67 72.576 L1008.49 72.576 L1008.49 12.096 Z" fill="#000000" fill-rule="evenodd" fill-opacity="1" /><path clip-path="url(#clip090)" d="M1076.14 34.1734 Q1074.88 33.4443 1073.38 33.1202 Q1071.92 32.7556 1070.14 32.7556 Q1063.82 32.7556 1060.42 36.8875 Q1057.06 40.9789 1057.06 48.6757 L1057.06 72.576 L1049.56 72.576 L1049.56 27.2059 L1057.06 27.2059 L1057.06 34.2544 Q1059.41 30.1225 1063.17 28.1376 Q1066.94 26.1121 1072.33 26.1121 Q1073.1 26.1121 1074.03 26.2337 Q1074.96 26.3147 1076.1 26.5172 L1076.14 34.1734 Z" fill="#000000" fill-rule="evenodd" fill-opacity="1" /><path clip-path="url(#clip090)" d="M1083.96 27.2059 L1091.41 27.2059 L1091.41 72.576 L1083.96 72.576 L1083.96 27.2059 M1083.96 9.54393 L1091.41 9.54393 L1091.41 18.9825 L1083.96 18.9825 L1083.96 9.54393 Z" fill="#000000" fill-rule="evenodd" fill-opacity="1" /><path clip-path="url(#clip090)" d="M1139.66 28.9478 L1139.66 35.9153 Q1136.5 34.1734 1133.3 33.3227 Q1130.14 32.4315 1126.89 32.4315 Q1119.64 32.4315 1115.63 37.0496 Q1111.62 41.6271 1111.62 49.9314 Q1111.62 58.2358 1115.63 62.8538 Q1119.64 67.4314 1126.89 67.4314 Q1130.14 67.4314 1133.3 66.5807 Q1136.5 65.6895 1139.66 63.9476 L1139.66 70.8341 Q1136.54 72.2924 1133.17 73.0216 Q1129.85 73.7508 1126.08 73.7508 Q1115.84 73.7508 1109.8 67.3098 Q1103.76 60.8689 1103.76 49.9314 Q1103.76 38.832 1109.84 32.472 Q1115.96 26.1121 1126.57 26.1121 Q1130.01 26.1121 1133.3 26.8413 Q1136.58 27.5299 1139.66 28.9478 Z" fill="#000000" fill-rule="evenodd" fill-opacity="1" /><path clip-path="url(#clip090)" d="M1159.99 14.324 L1159.99 27.2059 L1175.34 27.2059 L1175.34 32.9987 L1159.99 32.9987 L1159.99 57.6282 Q1159.99 63.1779 1161.49 64.7578 Q1163.03 66.3376 1167.69 66.3376 L1175.34 66.3376 L1175.34 72.576 L1167.69 72.576 Q1159.06 72.576 1155.78 69.3758 Q1152.5 66.1351 1152.5 57.6282 L1152.5 32.9987 L1147.03 32.9987 L1147.03 27.2059 L1152.5 27.2059 L1152.5 14.324 L1159.99 14.324 Z" fill="#000000" fill-rule="evenodd" fill-opacity="1" /><path clip-path="url(#clip090)" d="M1185.15 27.2059 L1192.6 27.2059 L1192.6 72.576 L1185.15 72.576 L1185.15 27.2059 M1185.15 9.54393 L1192.6 9.54393 L1192.6 18.9825 L1185.15 18.9825 L1185.15 9.54393 Z" fill="#000000" fill-rule="evenodd" fill-opacity="1" /><path clip-path="url(#clip090)" d="M1225.78 32.4315 Q1219.78 32.4315 1216.3 37.1306 Q1212.81 41.7891 1212.81 49.9314 Q1212.81 58.0738 1216.26 62.7728 Q1219.74 67.4314 1225.78 67.4314 Q1231.73 67.4314 1235.22 62.7323 Q1238.7 58.0333 1238.7 49.9314 Q1238.7 41.8701 1235.22 37.1711 Q1231.73 32.4315 1225.78 32.4315 M1225.78 26.1121 Q1235.5 26.1121 1241.05 32.4315 Q1246.6 38.7509 1246.6 49.9314 Q1246.6 61.0714 1241.05 67.4314 Q1235.5 73.7508 1225.78 73.7508 Q1216.01 73.7508 1210.47 67.4314 Q1204.96 61.0714 1204.96 49.9314 Q1204.96 38.7509 1210.47 32.4315 Q1216.01 26.1121 1225.78 26.1121 Z" fill="#000000" fill-rule="evenodd" fill-opacity="1" /><path clip-path="url(#clip090)" d="M1296.67 45.1919 L1296.67 72.576 L1289.21 72.576 L1289.21 45.4349 Q1289.21 38.994 1286.7 35.7938 Q1284.19 32.5936 1279.17 32.5936 Q1273.13 32.5936 1269.65 36.4419 Q1266.17 40.2903 1266.17 46.9338 L1266.17 72.576 L1258.67 72.576 L1258.67 27.2059 L1266.17 27.2059 L1266.17 34.2544 Q1268.84 30.163 1272.44 28.1376 Q1276.09 26.1121 1280.83 26.1121 Q1288.65 26.1121 1292.66 30.9732 Q1296.67 35.7938 1296.67 45.1919 Z" fill="#000000" fill-rule="evenodd" fill-opacity="1" /><path clip-path="url(#clip090)" d="M1373.23 35.9153 Q1376.03 30.8922 1379.91 28.5022 Q1383.8 26.1121 1389.07 26.1121 Q1396.16 26.1121 1400.01 31.0947 Q1403.86 36.0368 1403.86 45.1919 L1403.86 72.576 L1396.36 72.576 L1396.36 45.4349 Q1396.36 38.913 1394.05 35.7533 Q1391.74 32.5936 1387 32.5936 Q1381.21 32.5936 1377.85 36.4419 Q1374.49 40.2903 1374.49 46.9338 L1374.49 72.576 L1366.99 72.576 L1366.99 45.4349 Q1366.99 38.8725 1364.68 35.7533 Q1362.37 32.5936 1357.55 32.5936 Q1351.84 32.5936 1348.48 36.4824 Q1345.12 40.3308 1345.12 46.9338 L1345.12 72.576 L1337.62 72.576 L1337.62 27.2059 L1345.12 27.2059 L1345.12 34.2544 Q1347.67 30.082 1351.23 28.0971 Q1354.8 26.1121 1359.7 26.1121 Q1364.64 26.1121 1368.09 28.6237 Q1371.57 31.1352 1373.23 35.9153 Z" fill="#000000" fill-rule="evenodd" fill-opacity="1" /><path clip-path="url(#clip090)" d="M1436.3 32.4315 Q1430.31 32.4315 1426.82 37.1306 Q1423.34 41.7891 1423.34 49.9314 Q1423.34 58.0738 1426.78 62.7728 Q1430.27 67.4314 1436.3 67.4314 Q1442.26 67.4314 1445.74 62.7323 Q1449.23 58.0333 1449.23 49.9314 Q1449.23 41.8701 1445.74 37.1711 Q1442.26 32.4315 1436.3 32.4315 M1436.3 26.1121 Q1446.03 26.1121 1451.57 32.4315 Q1457.12 38.7509 1457.12 49.9314 Q1457.12 61.0714 1451.57 67.4314 Q1446.03 73.7508 1436.3 73.7508 Q1426.54 73.7508 1420.99 67.4314 Q1415.48 61.0714 1415.48 49.9314 Q1415.48 38.7509 1420.99 32.4315 Q1426.54 26.1121 1436.3 26.1121 Z" fill="#000000" fill-rule="evenodd" fill-opacity="1" /><path clip-path="url(#clip090)" d="M1499.34 34.0924 L1499.34 9.54393 L1506.79 9.54393 L1506.79 72.576 L1499.34 72.576 L1499.34 65.7705 Q1496.99 69.8214 1493.38 71.8063 Q1489.82 73.7508 1484.79 73.7508 Q1476.57 73.7508 1471.38 67.1883 Q1466.24 60.6258 1466.24 49.9314 Q1466.24 39.2371 1471.38 32.6746 Q1476.57 26.1121 1484.79 26.1121 Q1489.82 26.1121 1493.38 28.0971 Q1496.99 30.0415 1499.34 34.0924 M1473.94 49.9314 Q1473.94 58.1548 1477.3 62.8538 Q1480.7 67.5124 1486.62 67.5124 Q1492.53 67.5124 1495.93 62.8538 Q1499.34 58.1548 1499.34 49.9314 Q1499.34 41.7081 1495.93 37.0496 Q1492.53 32.3505 1486.62 32.3505 Q1480.7 32.3505 1477.3 37.0496 Q1473.94 41.7081 1473.94 49.9314 Z" fill="#000000" fill-rule="evenodd" fill-opacity="1" /><path clip-path="url(#clip090)" d="M1560.95 48.0275 L1560.95 51.6733 L1526.68 51.6733 Q1527.16 59.3701 1531.3 63.421 Q1535.47 67.4314 1542.88 67.4314 Q1547.18 67.4314 1551.19 66.3781 Q1555.24 65.3249 1559.21 63.2184 L1559.21 70.267 Q1555.2 71.9684 1550.98 72.8596 Q1546.77 73.7508 1542.44 73.7508 Q1531.58 73.7508 1525.22 67.4314 Q1518.9 61.1119 1518.9 50.3365 Q1518.9 39.1965 1524.9 32.6746 Q1530.93 26.1121 1541.14 26.1121 Q1550.3 26.1121 1555.6 32.0264 Q1560.95 37.9003 1560.95 48.0275 M1553.5 45.84 Q1553.41 39.7232 1550.05 36.0774 Q1546.73 32.4315 1541.22 32.4315 Q1534.98 32.4315 1531.22 35.9558 Q1527.49 39.4801 1526.92 45.8805 L1553.5 45.84 Z" fill="#000000" fill-rule="evenodd" fill-opacity="1" /><path clip-path="url(#clip090)" d="M1573.18 9.54393 L1580.64 9.54393 L1580.64 72.576 L1573.18 72.576 L1573.18 9.54393 Z" fill="#000000" fill-rule="evenodd" fill-opacity="1" /><path clip-path="url(#clip090)" d="M1630.71 65.6895 L1659.26 65.6895 L1659.26 72.576 L1620.86 72.576 L1620.86 65.6895 Q1625.52 60.8689 1633.54 52.7671 Q1641.6 44.6248 1643.67 42.2752 Q1647.6 37.8598 1649.14 34.8216 Q1650.72 31.7429 1650.72 28.7857 Q1650.72 23.9651 1647.31 20.927 Q1643.95 17.8888 1638.52 17.8888 Q1634.68 17.8888 1630.38 19.2256 Q1626.13 20.5624 1621.27 23.2765 L1621.27 15.0127 Q1626.21 13.0277 1630.5 12.015 Q1634.8 11.0023 1638.36 11.0023 Q1647.76 11.0023 1653.35 15.7013 Q1658.94 20.4004 1658.94 28.2591 Q1658.94 31.9859 1657.52 35.3482 Q1656.15 38.6699 1652.46 43.2069 Q1651.45 44.3817 1646.02 50.0125 Q1640.59 55.6027 1630.71 65.6895 Z" fill="#000000" fill-rule="evenodd" fill-opacity="1" /><polyline clip-path="url(#clip092)" style="stroke:#009af9; stroke-linecap:butt; stroke-linejoin:round; stroke-width:8; stroke-opacity:1; fill:none" points="
  1333.88,645.183 1368.67,645.183 1403.73,645.183 1438.99,645.183 1474.4,645.183 1509.91,645.183 1545.46,645.183 1580.99,645.183 1616.46,645.183 1651.8,645.183 
  1686.98,645.183 1721.92,645.183 1756.6,645.183 1790.97,645.183 1824.97,645.183 1858.56,645.183 1891.7,645.183 1924.36,645.183 1956.48,645.183 1988.04,645.183 
  2018.99,645.183 2049.29,645.183 2078.92,645.183 2107.84,645.183 2136.01,645.183 2163.4,645.183 2189.98,645.183 2215.73,645.183 2240.61,645.183 2264.6,645.183 
  2287.67,645.183 2309.79,645.183 2330.95,645.183 2351.12,645.183 2370.28,645.183 2388.4,645.183 2405.47,645.183 2421.48,645.183 2436.4,645.183 2450.22,645.183 
  2462.93,645.183 2474.51,645.183 2484.95,645.183 2494.23,645.183 2502.36,645.183 2509.32,645.183 2515.1,645.183 2519.71,645.183 2523.12,645.183 2525.35,645.183 
  2526.38,645.183 2526.23,645.183 2524.87,645.183 2522.33,645.183 2518.6,645.183 2513.69,645.183 2507.59,645.183 2500.32,645.183 2491.88,645.183 2482.29,645.183 
  2471.54,645.183 2459.66,645.183 2446.64,645.183 2432.52,645.183 2417.29,645.183 2400.97,645.183 2383.59,645.183 2365.14,645.183 2345.67,645.183 2325.17,645.183 
  2303.67,645.183 2281.19,645.183 2257.76,645.183 2233.39,645.183 2208.1,645.183 2181.92,645.183 2154.87,645.183 2126.98,645.183 2098.27,645.183 2068.76,645.183 
  2038.49,645.183 2007.46,645.183 1975.73,645.183 1943.3,645.183 1910.2,645.183 1876.46,645.183 1842.1,645.183 1807.15,645.183 1771.64,645.183 1735.59,645.183 
  1699.01,645.183 1661.95,645.183 1624.4,645.183 1586.4,645.183 1547.97,645.183 1509.11,645.183 1469.83,645.183 1430.16,645.183 1390.1,645.183 1349.65,645.183 
  1316.33,645.183 1287.51,645.183 1258.49,645.183 1229.31,645.183 1200.03,645.183 1170.69,645.183 1141.33,645.183 1111.98,645.183 1082.7,645.183 1053.53,645.183 
  1024.5,645.183 995.665,645.183 967.054,645.183 938.705,645.183 910.66,645.183 882.952,645.183 855.617,645.183 828.692,645.183 802.205,645.183 776.193,645.183 
  750.686,645.183 725.713,645.183 701.307,645.183 677.492,645.183 654.299,645.183 631.752,645.183 609.874,645.183 588.694,645.183 568.236,645.183 548.528,645.183 
  529.585,645.183 511.431,645.183 494.087,645.183 477.571,645.183 461.901,645.183 447.092,645.183 433.161,645.183 420.124,645.183 407.993,645.183 396.781,645.183 
  386.501,645.183 377.163,645.183 368.778,645.183 361.354,645.183 354.899,645.183 349.421,645.183 344.925,645.183 341.416,645.183 338.899,645.183 337.375,645.183 
  336.848,645.183 337.318,645.183 338.784,645.183 341.247,645.183 344.704,645.183 349.151,645.183 354.586,645.183 361.002,645.183 368.395,645.183 376.757,645.183 
  386.079,645.183 396.355,645.183 407.575,645.183 419.728,645.183 432.802,645.183 446.785,645.183 461.664,645.183 477.428,645.183 494.06,645.183 511.546,645.183 
  529.867,645.183 549.009,645.183 568.958,645.183 589.692,645.183 611.195,645.183 633.444,645.183 656.422,645.183 680.114,645.183 704.498,645.183 729.551,645.183 
  755.253,645.183 781.58,645.183 808.52,645.183 836.049,645.183 864.144,645.183 892.784,645.183 921.945,645.183 951.608,645.183 981.757,645.183 1012.37,645.183 
  1043.43,645.183 1074.91,645.183 1106.81,645.183 1139.1,645.183 1171.77,645.183 1204.81,645.183 1238.2,645.183 1271.94,645.183 1306.01,645.183 1338.08,645.183 
  1360.49,645.183 1383.07,645.183 1405.8,645.183 1428.62,645.183 1451.52,645.183 1474.47,645.183 1497.43,645.183 1520.37,645.183 1543.26,645.183 1566.07,645.183 
  1588.76,645.183 1611.3,645.183 1633.68,645.183 1655.84,645.183 1677.78,645.183 1699.45,645.183 1720.84,645.183 1741.91,645.183 1762.65,645.183 1783.02,645.183 
  1802.99,645.183 1822.55,645.183 1841.67,645.183 1860.32,645.183 1878.49,645.183 1896.15,645.183 1913.28,645.183 1929.86,645.183 1945.88,645.183 1961.32,645.183 
  1976.15,645.183 1990.36,645.183 2003.93,645.183 2016.86,645.183 2029.11,645.183 2040.69,645.183 2051.58,645.183 2061.76,645.183 2071.23,645.183 2079.97,645.183 
  2087.97,645.183 2095.23,645.183 2101.73,645.183 2107.48,645.183 2112.45,645.183 2116.65,645.183 2120.07,645.183 2122.7,645.183 2124.55,645.183 2125.61,645.183 
  2125.88,645.183 2125.35,645.183 2124.04,645.183 2121.93,645.183 2119.02,645.183 2115.33,645.183 2110.86,645.183 2105.6,645.183 2099.56,645.183 2092.75,645.183 
  2085.18,645.183 2076.84,645.183 2067.75,645.183 2057.92,645.183 2047.35,645.183 2036.05,645.183 2024.04,645.183 2011.32,645.183 1997.9,645.183 1983.8,645.183 
  1969.03,645.183 1953.59,645.183 1937.51,645.183 1920.8,645.183 1903.47,645.183 1885.54,645.183 1867.02,645.183 1847.92,645.183 1828.26,645.183 1808.06,645.183 
  1787.33,645.183 1766.09,645.183 1744.36,645.183 1722.14,645.183 1699.46,645.183 1676.33,645.183 1652.77,645.183 1628.8,645.183 1604.43,645.183 1579.66,645.183 
  1554.53,645.183 1529.05,645.183 1503.22,645.183 1477.06,645.183 1450.59,645.183 1423.82,645.183 1396.76,645.183 1369.42,645.183 1341.8,645.183 1322.69,645.183 
  1306.92,645.183 1291.05,645.183 1275.08,645.183 1259.05,645.183 1242.96,645.183 1226.85,645.183 1210.72,645.183 1194.6,645.183 1178.51,645.183 1162.48,645.183 
  1146.52,645.183 1130.66,645.183 1114.91,645.183 1099.29,645.183 1083.83,645.183 1068.55,645.183 1053.45,645.183 1038.57,645.183 1023.92,645.183 1009.52,645.183 
  995.387,645.183 981.534,645.183 967.981,645.183 954.746,645.183 941.847,645.183 929.299,645.183 917.115,645.183 905.311,645.183 893.902,645.183 882.901,645.183 
  872.322,645.183 862.175,645.183 852.475,645.183 843.232,645.183 834.457,645.183 826.16,645.183 818.352,645.183 811.042,645.183 804.239,645.183 797.95,645.183 
  792.185,645.183 786.948,645.183 782.249,645.183 778.091,645.183 774.481,645.183 771.425,645.183 768.924,645.183 766.984,645.183 765.608,645.183 764.798,645.183 
  764.556,645.183 764.884,645.183 765.782,645.183 767.25,645.183 769.289,645.183 771.897,645.183 775.074,645.183 778.816,645.183 783.122,645.183 787.988,645.183 
  793.412,645.183 799.387,645.183 805.911,645.183 812.979,645.183 820.584,645.183 828.721,645.183 837.383,645.183 846.563,645.183 856.254,645.183 866.449,645.183 
  877.139,645.183 888.317,645.183 899.972,645.183 912.095,645.183 924.678,645.183 937.711,645.183 951.184,645.183 965.086,645.183 979.407,645.183 994.136,645.183 
  1009.26,645.183 1024.77,645.183 1040.66,645.183 1056.91,645.183 1073.51,645.183 1090.46,645.183 1107.73,645.183 1125.32,645.183 1143.21,645.183 1161.4,645.183 
  1179.88,645.183 1198.62,645.183 1217.63,645.183 1236.89,645.183 1256.38,645.183 1276.11,645.183 1296.06,645.183 1316.22,645.183 1334.96,645.183 1343.21,645.183 
  1351.53,645.183 
  "/>
<polyline clip-path="url(#clip092)" style="stroke:#e26f46; stroke-linecap:butt; stroke-linejoin:round; stroke-width:8; stroke-opacity:1; fill:none" points="
  1333.88,159.645 1368.67,184.751 1403.73,207.855 1438.99,229.059 1474.4,248.467 1509.91,266.188 1545.46,282.331 1580.99,297.002 1616.46,310.305 1651.8,322.343 
  1686.98,333.213 1721.92,343.01 1756.6,351.823 1790.97,359.735 1824.97,366.825 1858.56,373.166 1891.7,378.828 1924.36,383.872 1956.48,388.358 1988.04,392.34 
  2018.99,395.865 2049.29,398.98 2078.92,401.727 2107.84,404.142 2136.01,406.26 2163.4,408.111 2189.98,409.726 2215.73,411.128 2240.61,412.343 2264.6,413.39 
  2287.67,414.289 2309.79,415.058 2330.95,415.711 2351.12,416.264 2370.28,416.728 2388.4,417.115 2405.47,417.436 2421.48,417.699 2436.4,417.914 2450.22,418.086 
  2462.93,418.224 2474.51,418.332 2484.95,418.416 2494.23,418.48 2502.36,418.528 2509.32,418.563 2515.1,418.589 2519.71,418.606 2523.12,418.618 2525.35,418.625 
  2526.38,418.628 2526.23,418.627 2524.87,418.623 2522.33,418.615 2518.6,418.602 2513.69,418.583 2507.59,418.555 2500.32,418.517 2491.88,418.465 2482.29,418.396 
  2471.54,418.306 2459.66,418.191 2446.64,418.044 2432.52,417.861 2417.29,417.634 2400.97,417.355 2383.59,417.017 2365.14,416.609 2345.67,416.121 2325.17,415.54 
  2303.67,414.854 2281.19,414.047 2257.76,413.103 2233.39,412.004 2208.1,410.729 2181.92,409.254 2154.87,407.556 2126.98,405.605 2098.27,403.37 2068.76,400.817 
  2038.49,397.906 2007.46,394.595 1975.73,390.834 1943.3,386.572 1910.2,381.748 1876.46,376.295 1842.1,370.139 1807.15,363.198 1771.64,355.382 1735.59,346.586 
  1699.01,336.697 1661.95,325.587 1624.4,313.113 1586.4,299.115 1547.97,283.412 1509.11,265.805 1469.83,246.063 1430.16,223.932 1390.1,199.123 1349.65,171.308 
  1316.33,1117.78 1287.51,1097.75 1258.49,1079.05 1229.31,1061.62 1200.03,1045.43 1170.69,1030.4 1141.33,1016.49 1111.98,1003.63 1082.7,991.779 1053.53,980.864 
  1024.5,970.832 995.665,961.626 967.054,953.192 938.705,945.475 910.66,938.426 882.952,931.995 855.617,926.135 828.692,920.804 802.205,915.959 776.193,911.563 
  750.686,907.577 725.713,903.969 701.307,900.708 677.492,897.762 654.299,895.106 631.752,892.713 609.874,890.561 588.694,888.628 568.236,886.894 548.528,885.342 
  529.585,883.954 511.431,882.715 494.087,881.612 477.571,880.63 461.901,879.759 447.092,878.987 433.161,878.306 420.124,877.706 407.993,877.179 396.781,876.718 
  386.501,876.318 377.163,875.971 368.778,875.674 361.354,875.421 354.899,875.21 349.421,875.036 344.925,874.898 341.416,874.792 338.899,874.717 337.375,874.672 
  336.848,874.657 337.318,874.671 338.784,874.714 341.247,874.787 344.704,874.891 349.151,875.028 354.586,875.2 361.002,875.41 368.395,875.661 376.757,875.956 
  386.079,876.302 396.355,876.701 407.575,877.161 419.728,877.688 432.802,878.289 446.785,878.972 461.664,879.746 477.428,880.622 494.06,881.61 511.546,882.723 
  529.867,883.974 549.009,885.379 568.958,886.953 589.692,888.716 611.195,890.686 633.444,892.887 656.422,895.341 680.114,898.075 704.498,901.12 729.551,904.506 
  755.253,908.268 781.58,912.445 808.52,917.08 836.049,922.219 864.144,927.913 892.784,934.218 921.945,941.195 951.608,948.911 981.757,957.442 1012.37,966.869 
  1043.43,977.281 1074.91,988.779 1106.81,1001.47 1139.1,1015.48 1171.77,1030.93 1204.81,1047.98 1238.2,1066.79 1271.94,1087.54 1306.01,1110.44 1338.08,162.797 
  1360.49,179.05 1383.07,194.499 1405.8,209.154 1428.62,223.026 1451.52,236.135 1474.47,248.503 1497.43,260.15 1520.37,271.099 1543.26,281.377 1566.07,291.009 
  1588.76,300.024 1611.3,308.45 1633.68,316.314 1655.84,323.646 1677.78,330.472 1699.45,336.822 1720.84,342.72 1741.91,348.195 1762.65,353.272 1783.02,357.974 
  1802.99,362.324 1822.55,366.344 1841.67,370.057 1860.32,373.482 1878.49,376.638 1896.15,379.545 1913.28,382.218 1929.86,384.674 1945.88,386.928 1961.32,388.995 
  1976.15,390.886 1990.36,392.616 2003.93,394.195 2016.86,395.634 2029.11,396.942 2040.69,398.129 2051.58,399.203 2061.76,400.171 2071.23,401.041 2079.97,401.819 
  2087.97,402.51 2095.23,403.12 2101.73,403.653 2107.48,404.113 2112.45,404.504 2116.65,404.828 2120.07,405.089 2122.7,405.287 2124.55,405.425 2125.61,405.504 
  2125.88,405.524 2125.35,405.485 2124.04,405.387 2121.93,405.229 2119.02,405.009 2115.33,404.727 2110.86,404.379 2105.6,403.964 2099.56,403.476 2092.75,402.913 
  2085.18,402.271 2076.84,401.543 2067.75,400.725 2057.92,399.81 2047.35,398.79 2036.05,397.659 2024.04,396.407 2011.32,395.025 1997.9,393.502 1983.8,391.828 
  1969.03,389.989 1953.59,387.973 1937.51,385.764 1920.8,383.347 1903.47,380.705 1885.54,377.818 1867.02,374.665 1847.92,371.226 1828.26,367.475 1808.06,363.388 
  1787.33,358.935 1766.09,354.087 1744.36,348.81 1722.14,343.068 1699.46,336.824 1676.33,330.035 1652.77,322.657 1628.8,314.64 1604.43,305.934 1579.66,296.478 
  1554.53,286.211 1529.05,275.067 1503.22,262.974 1477.06,249.852 1450.59,235.617 1423.82,220.177 1396.76,203.43 1369.42,185.265 1341.8,165.562 1322.69,1122.4 
  1306.92,1111.08 1291.05,1100.13 1275.08,1089.57 1259.05,1079.4 1242.96,1069.61 1226.85,1060.21 1210.72,1051.19 1194.6,1042.56 1178.51,1034.29 1162.48,1026.4 
  1146.52,1018.87 1130.66,1011.7 1114.91,1004.87 1099.29,998.381 1083.83,992.219 1068.55,986.374 1053.45,980.836 1038.57,975.595 1023.92,970.639 1009.52,965.958 
  995.387,961.541 981.534,957.377 967.981,953.455 954.746,949.766 941.847,946.301 929.299,943.048 917.115,939.999 905.311,937.144 893.902,934.475 882.901,931.984 
  872.322,929.661 862.175,927.499 852.475,925.491 843.232,923.63 834.457,921.91 826.16,920.324 818.352,918.867 811.042,917.533 804.239,916.318 797.95,915.216 
  792.185,914.224 786.948,913.339 782.249,912.555 778.091,911.872 774.481,911.285 771.425,910.794 768.924,910.395 766.984,910.088 765.608,909.871 764.798,909.743 
  764.556,909.706 764.884,909.757 765.782,909.898 767.25,910.13 769.289,910.453 771.897,910.869 775.074,911.381 778.816,911.99 783.122,912.7 787.988,913.513 
  793.412,914.434 799.387,915.466 805.911,916.614 812.979,917.884 820.584,919.28 828.721,920.81 837.383,922.479 846.563,924.295 856.254,926.267 866.449,928.402 
  877.139,930.71 888.317,933.2 899.972,935.884 912.095,938.773 924.678,941.879 937.711,945.216 951.184,948.797 965.086,952.636 979.407,956.751 994.136,961.158 
  1009.26,965.875 1024.77,970.921 1040.66,976.318 1056.91,982.085 1073.51,988.247 1090.46,994.827 1107.73,1001.85 1125.32,1009.35 1143.21,1017.35 1161.4,1025.88 
  1179.88,1034.98 1198.62,1044.68 1217.63,1055.01 1236.89,1066.02 1256.38,1077.75 1276.11,1090.24 1296.06,1103.54 1316.22,1117.7 1334.96,160.463 1343.21,166.607 
  1351.53,172.667 
  "/>
<polyline clip-path="url(#clip092)" style="stroke:#008000; stroke-linecap:butt; stroke-linejoin:round; stroke-width:8; stroke-opacity:1; fill:none" stroke-dasharray="4, 8" points="
  1333.88,627.681 1368.67,643.905 1403.73,660.639 1438.99,677.857 1474.4,695.524 1509.91,713.606 1545.46,732.063 1580.99,750.853 1616.46,769.926 1651.8,789.235 
  1686.98,808.727 1721.92,828.347 1756.6,848.045 1790.97,867.761 1824.97,887.442 1858.56,907.031 1891.7,926.476 1924.36,945.722 1956.48,964.72 1988.04,983.422 
  2018.99,1001.78 2049.29,1019.75 2078.92,1037.29 2107.84,1054.37 2136.01,1070.95 2163.4,1087 2189.98,1102.51 2215.73,1117.43 2240.61,1131.76 2264.6,1145.48 
  2287.67,1158.58 2309.79,1171.04 2330.95,1182.87 2351.12,1194.04 2370.28,1204.57 2388.4,1214.45 2405.47,1223.68 2421.48,1232.26 2436.4,1240.19 2450.22,1247.48 
  2462.93,1254.14 2474.51,1260.17 2484.95,1265.56 2494.23,1270.34 2502.36,1274.49 2509.32,1278.04 2515.1,1280.97 2519.71,1283.29 2523.12,1285.02 2525.35,1286.14 
  2526.38,1286.66 2526.23,1286.58 2524.87,1285.9 2522.33,1284.62 2518.6,1282.74 2513.69,1280.25 2507.59,1277.16 2500.32,1273.45 2491.88,1269.13 2482.29,1264.19 
  2471.54,1258.63 2459.66,1252.43 2446.64,1245.6 2432.52,1238.13 2417.29,1230.01 2400.97,1221.25 2383.59,1211.83 2365.14,1201.76 2345.67,1191.03 2325.17,1179.64 
  2303.67,1167.61 2281.19,1154.91 2257.76,1141.58 2233.39,1127.61 2208.1,1113.02 2181.92,1097.81 2154.87,1082.01 2126.98,1065.64 2098.27,1048.72 2068.76,1031.28 
  2038.49,1013.34 2007.46,994.943 1975.73,976.122 1943.3,956.917 1910.2,937.37 1876.46,917.521 1842.1,897.419 1807.15,877.112 1771.64,856.65 1735.59,836.082 
  1699.01,815.458 1661.95,794.828 1624.4,774.241 1586.4,753.742 1547.97,733.378 1509.11,713.192 1469.83,693.223 1430.16,673.51 1390.1,654.088 1349.65,634.989 
  1316.33,619.65 1287.51,606.669 1258.49,593.877 1229.31,581.3 1200.03,568.964 1170.69,556.889 1141.33,545.096 1111.98,533.601 1082.7,522.42 1053.53,511.567 
  1024.5,501.052 995.665,490.882 967.054,481.065 938.705,471.603 910.66,462.501 882.952,453.758 855.617,445.374 828.692,437.346 802.205,429.671 776.193,422.345 
  750.686,415.362 725.713,408.716 701.307,402.4 677.492,396.406 654.299,390.727 631.752,385.355 609.874,380.279 588.694,375.492 568.236,370.987 548.528,366.754 
  529.585,362.784 511.431,359.069 494.087,355.6 477.571,352.37 461.901,349.37 447.092,346.592 433.161,344.029 420.124,341.674 407.993,339.521 396.781,337.562 
  386.501,335.794 377.163,334.209 368.778,332.804 361.354,331.574 354.899,330.515 349.421,329.624 344.925,328.898 341.416,328.335 338.899,327.933 337.375,327.69 
  336.848,327.606 337.318,327.681 338.784,327.914 341.247,328.308 344.704,328.863 349.151,329.581 354.586,330.464 361.002,331.516 368.395,332.74 376.757,334.141 
  386.079,335.722 396.355,337.489 407.575,339.447 419.728,341.603 432.802,343.963 446.785,346.535 461.664,349.325 477.428,352.342 494.06,355.595 511.546,359.092 
  529.867,362.842 549.009,366.856 568.958,371.144 589.692,375.715 611.195,380.581 633.444,385.753 656.422,391.241 680.114,397.058 704.498,403.216 729.551,409.725 
  755.253,416.598 781.58,423.845 808.52,431.481 836.049,439.517 864.144,447.964 892.784,456.832 921.945,466.133 951.608,475.877 981.757,486.076 1012.37,496.739 
  1043.43,507.874 1074.91,519.494 1106.81,531.604 1139.1,544.213 1171.77,557.328 1204.81,570.957 1238.2,585.103 1271.94,599.773 1306.01,614.97 1338.08,629.62 
  1360.49,640.056 1383.07,650.733 1405.8,661.639 1428.62,672.754 1451.52,684.066 1474.47,695.558 1497.43,707.21 1520.37,719.002 1543.26,730.912 1566.07,742.92 
  1588.76,755.002 1611.3,767.134 1633.68,779.296 1655.84,791.46 1677.78,803.604 1699.45,815.704 1720.84,827.735 1741.91,839.675 1762.65,851.499 1783.02,863.184 
  1802.99,874.705 1822.55,886.038 1841.67,897.165 1860.32,908.063 1878.49,918.711 1896.15,929.091 1913.28,939.185 1929.86,948.976 1945.88,958.447 1961.32,967.583 
  1976.15,976.37 1990.36,984.796 2003.93,992.847 2016.86,1000.51 2029.11,1007.78 2040.69,1014.65 2051.58,1021.1 2061.76,1027.14 2071.23,1032.74 2079.97,1037.91 
  2087.97,1042.64 2095.23,1046.93 2101.73,1050.77 2107.48,1054.16 2112.45,1057.09 2116.65,1059.56 2120.07,1061.58 2122.7,1063.13 2124.55,1064.21 2125.61,1064.84 
  2125.88,1065 2125.35,1064.69 2124.04,1063.91 2121.93,1062.67 2119.02,1060.96 2115.33,1058.79 2110.86,1056.15 2105.6,1053.05 2099.56,1049.49 2092.75,1045.47 
  2085.18,1040.99 2076.84,1036.06 2067.75,1030.68 2057.92,1024.86 2047.35,1018.59 2036.05,1011.9 2024.04,1004.77 2011.32,997.228 1997.9,989.27 1983.8,980.908 
  1969.03,972.151 1953.59,963.01 1937.51,953.497 1920.8,943.624 1903.47,933.405 1885.54,922.854 1867.02,911.984 1847.92,900.813 1828.26,889.358 1808.06,877.637 
  1787.33,865.668 1766.09,853.471 1744.36,841.065 1722.14,828.47 1699.46,815.708 1676.33,802.8 1652.77,789.768 1628.8,776.634 1604.43,763.42 1579.66,750.144 
  1554.53,736.83 1529.05,723.498 1503.22,710.169 1477.06,696.865 1450.59,683.603 1423.82,670.404 1396.76,657.283 1369.42,644.257 1341.8,631.342 1322.69,622.546 
  1306.92,615.382 1291.05,608.25 1275.08,601.159 1259.05,594.123 1242.96,587.15 1226.85,580.25 1210.72,573.432 1194.6,566.706 1178.51,560.08 1162.48,553.563 
  1146.52,547.162 1130.66,540.883 1114.91,534.734 1099.29,528.72 1083.83,522.846 1068.55,517.118 1053.45,511.539 1038.57,506.113 1023.92,500.844 1009.52,495.734 
  995.387,490.785 981.534,485.999 967.981,481.379 954.746,476.925 941.847,472.639 929.299,468.522 917.115,464.574 905.311,460.794 893.902,457.184 882.901,453.742 
  872.322,450.469 862.175,447.364 852.475,444.425 843.232,441.653 834.457,439.046 826.16,436.603 818.352,434.324 811.042,432.208 804.239,430.253 797.95,428.459 
  792.185,426.824 786.948,425.349 782.249,424.032 778.091,422.873 774.481,421.87 771.425,421.024 768.924,420.335 766.984,419.801 765.608,419.423 764.798,419.201 
  764.556,419.135 764.884,419.224 765.782,419.471 767.25,419.874 769.289,420.435 771.897,421.155 775.074,422.034 778.816,423.074 783.122,424.276 787.988,425.641 
  793.412,427.171 799.387,428.868 805.911,430.732 812.979,432.767 820.584,434.974 828.721,437.355 837.383,439.913 846.563,442.649 856.254,445.566 866.449,448.668 
  877.139,451.955 888.317,455.432 899.972,459.099 912.095,462.961 924.678,467.019 937.711,471.276 951.184,475.736 965.086,480.4 979.407,485.27 994.136,490.35 
  1009.26,495.642 1024.77,501.148 1040.66,506.87 1056.91,512.81 1073.51,518.971 1090.46,525.352 1107.73,531.958 1125.32,538.788 1143.21,545.844 1161.4,553.127 
  1179.88,560.638 1198.62,568.376 1217.63,576.343 1236.89,584.539 1256.38,592.962 1276.11,601.614 1296.06,610.492 1316.22,619.597 1334.96,628.182 1343.21,631.998 
  1351.53,635.865 
  "/>
<polyline clip-path="url(#clip092)" style="stroke:#008000; stroke-linecap:butt; stroke-linejoin:round; stroke-width:8; stroke-opacity:1; fill:none" points="
  1333.88,726.616 1368.67,740.637 1403.73,755.079 1438.99,769.93 1474.4,785.172 1509.91,800.789 1545.46,816.761 1580.99,833.063 1616.46,849.67 1651.8,866.555 
  1686.98,883.686 1721.92,901.031 1756.6,918.557 1790.97,936.225 1824.97,954 1858.56,971.84 1891.7,989.707 1924.36,1007.56 1956.48,1025.35 1988.04,1043.05 
  2018.99,1060.6 2049.29,1077.97 2078.92,1095.11 2107.84,1111.99 2136.01,1128.56 2163.4,1144.79 2189.98,1160.63 2215.73,1176.06 2240.61,1191.04 2264.6,1205.55 
  2287.67,1219.54 2309.79,1233 2330.95,1245.89 2351.12,1258.21 2370.28,1269.92 2388.4,1281.02 2405.47,1291.47 2421.48,1301.27 2436.4,1310.41 2450.22,1318.88 
  2462.93,1326.65 2474.51,1333.74 2484.95,1340.12 2494.23,1345.79 2502.36,1350.76 2509.32,1355.01 2515.1,1358.53 2519.71,1361.34 2523.12,1363.42 2525.35,1364.78 
  2526.38,1365.41 2526.23,1365.31 2524.87,1364.49 2522.33,1362.94 2518.6,1360.66 2513.69,1357.67 2507.59,1353.95 2500.32,1349.51 2491.88,1344.36 2482.29,1338.49 
  2471.54,1331.92 2459.66,1324.65 2446.64,1316.68 2432.52,1308.03 2417.29,1298.71 2400.97,1288.71 2383.59,1278.07 2365.14,1266.78 2345.67,1254.88 2325.17,1242.37 
  2303.67,1229.27 2281.19,1215.61 2257.76,1201.4 2233.39,1186.69 2208.1,1171.48 2181.92,1155.82 2154.87,1139.72 2126.98,1123.23 2098.27,1106.39 2068.76,1089.22 
  2038.49,1071.75 2007.46,1054.04 1975.73,1036.12 1943.3,1018.02 1910.2,999.791 1876.46,981.459 1842.1,963.067 1807.15,944.653 1771.64,926.252 1735.59,907.899 
  1699.01,889.625 1661.95,871.462 1624.4,853.437 1586.4,835.575 1547.97,817.9 1509.11,800.432 1469.83,783.187 1430.16,766.181 1390.1,749.427 1349.65,732.935 
  1316.33,719.664 1287.51,708.407 1258.49,697.282 1229.31,686.309 1200.03,675.501 1170.69,664.875 1141.33,654.442 1111.98,644.213 1082.7,634.2 1053.53,624.412 
  1024.5,614.855 995.665,605.536 967.054,596.461 938.705,587.632 910.66,579.055 882.952,570.73 855.617,562.66 828.692,554.846 802.205,547.287 776.193,539.985 
  750.686,532.938 725.713,526.144 701.307,519.605 677.492,513.317 654.299,507.279 631.752,501.49 609.874,495.946 588.694,490.646 568.236,485.59 548.528,480.775 
  529.585,476.199 511.431,471.86 494.087,467.756 477.571,463.886 461.901,460.246 447.092,456.837 433.161,453.655 420.124,450.699 407.993,447.967 396.781,445.459 
  386.501,443.173 377.163,441.107 368.778,439.261 361.354,437.633 354.899,436.224 349.421,435.031 344.925,434.055 341.416,433.295 338.899,432.75 337.375,432.421 
  336.848,432.307 337.318,432.408 338.784,432.725 341.247,433.258 344.704,434.007 349.151,434.972 354.586,436.155 361.002,437.556 368.395,439.177 376.757,441.017 
  386.079,443.079 396.355,445.364 407.575,447.874 419.728,450.609 432.802,453.573 446.785,456.766 461.664,460.192 477.428,463.852 494.06,467.75 511.546,471.887 
  529.867,476.267 549.009,480.892 568.958,485.767 589.692,490.894 611.195,496.278 633.444,501.921 656.422,507.828 680.114,514.005 704.498,520.454 729.551,527.182 
  755.253,534.191 781.58,541.488 808.52,549.078 836.049,556.968 864.144,565.163 892.784,573.667 921.945,582.488 951.608,591.631 981.757,601.103 1012.37,610.912 
  1043.43,621.064 1074.91,631.568 1106.81,642.43 1139.1,653.658 1171.77,665.262 1204.81,677.25 1238.2,689.631 1271.94,702.413 1306.01,715.608 1338.08,728.292 
  1360.49,737.313 1383.07,746.532 1405.8,755.942 1428.62,765.529 1451.52,775.287 1474.47,785.202 1497.43,795.263 1520.37,805.455 1543.26,815.764 1566.07,826.174 
  1588.76,836.67 1611.3,847.236 1633.68,857.854 1655.84,868.506 1677.78,879.175 1699.45,889.842 1720.84,900.488 1741.91,911.095 1762.65,921.643 1783.02,932.112 
  1802.99,942.48 1822.55,952.727 1841.67,962.836 1860.32,972.784 1878.49,982.553 1896.15,992.123 1913.28,1001.48 1929.86,1010.59 1945.88,1019.46 1961.32,1028.05 
  1976.15,1036.35 1990.36,1044.35 2003.93,1052.04 2016.86,1059.38 2029.11,1066.38 2040.69,1073.02 2051.58,1079.29 2061.76,1085.16 2071.23,1090.65 2079.97,1095.72 
  2087.97,1100.38 2095.23,1104.61 2101.73,1108.41 2107.48,1111.78 2112.45,1114.69 2116.65,1117.16 2120.07,1119.17 2122.7,1120.72 2124.55,1121.81 2125.61,1122.43 
  2125.88,1122.59 2125.35,1122.28 2124.04,1121.5 2121.93,1120.26 2119.02,1118.55 2115.33,1116.39 2110.86,1113.76 2105.6,1110.68 2099.56,1107.14 2092.75,1103.17 
  2085.18,1098.75 2076.84,1093.9 2067.75,1088.63 2057.92,1082.94 2047.35,1076.85 2036.05,1070.36 2024.04,1063.48 2011.32,1056.23 1997.9,1048.62 1983.8,1040.66 
  1969.03,1032.36 1953.59,1023.74 1937.51,1014.82 1920.8,1005.6 1903.47,996.114 1885.54,986.366 1867.02,976.376 1847.92,966.161 1828.26,955.738 1808.06,945.126 
  1787.33,934.343 1766.09,923.407 1744.36,912.333 1722.14,901.14 1699.46,889.846 1676.33,878.468 1652.77,867.023 1628.8,855.527 1604.43,843.998 1579.66,832.447 
  1554.53,820.891 1529.05,809.344 1503.22,797.819 1477.06,786.33 1450.59,774.887 1423.82,763.502 1396.76,752.184 1369.42,740.941 1341.8,729.781 1322.69,722.172 
  1306.92,715.966 1291.05,709.779 1275.08,703.619 1259.05,697.496 1242.96,691.418 1226.85,685.39 1210.72,679.421 1194.6,673.519 1178.51,667.689 1162.48,661.938 
  1146.52,656.274 1130.66,650.701 1114.91,645.224 1099.29,639.85 1083.83,634.583 1068.55,629.427 1053.45,624.386 1038.57,619.464 1023.92,614.665 1009.52,609.992 
  995.387,605.447 981.534,601.033 967.981,596.752 954.746,592.608 941.847,588.603 929.299,584.738 917.115,581.016 905.311,577.436 893.902,574.003 882.901,570.715 
  872.322,567.575 862.175,564.584 852.475,561.741 843.232,559.049 834.457,556.508 826.16,554.118 818.352,551.881 811.042,549.795 804.239,547.863 797.95,546.085 
  792.185,544.46 786.948,542.99 782.249,541.674 778.091,540.514 774.481,539.508 771.425,538.659 768.924,537.965 766.984,537.428 765.608,537.047 764.798,536.823 
  764.556,536.756 764.884,536.846 765.782,537.095 767.25,537.501 769.289,538.066 771.897,538.79 775.074,539.673 778.816,540.716 783.122,541.918 787.988,543.282 
  793.412,544.806 799.387,546.491 805.911,548.338 812.979,550.347 820.584,552.519 828.721,554.855 837.383,557.354 846.563,560.018 856.254,562.847 866.449,565.842 
  877.139,569.003 888.317,572.331 899.972,575.826 912.095,579.49 924.678,583.323 937.711,587.326 951.184,591.499 965.086,595.843 979.407,600.358 994.136,605.046 
  1009.26,609.908 1024.77,614.943 1040.66,620.152 1056.91,625.537 1073.51,631.097 1090.46,636.833 1107.73,642.746 1125.32,648.837 1143.21,655.106 1161.4,661.553 
  1179.88,668.18 1198.62,674.985 1217.63,681.971 1236.89,689.138 1256.38,696.485 1276.11,704.014 1296.06,711.725 1316.22,719.617 1334.96,727.048 1343.21,730.349 
  1351.53,733.692 
  "/>
<path clip-path="url(#clip090)" d="
M1423.56 619.676 L2284.83 619.676 L2284.83 166.076 L1423.56 166.076  Z
  " fill="#ffffff" fill-rule="evenodd" fill-opacity="1"/>
<polyline clip-path="url(#clip090)" style="stroke:#000000; stroke-linecap:butt; stroke-linejoin:round; stroke-width:4; stroke-opacity:1; fill:none" points="
  1423.56,619.676 2284.83,619.676 2284.83,166.076 1423.56,166.076 1423.56,619.676 
  "/>
<polyline clip-path="url(#clip090)" style="stroke:#009af9; stroke-linecap:butt; stroke-linejoin:round; stroke-width:6; stroke-opacity:1; fill:none" points="
  1446.2,256.796 1582.05,256.796 
  "/>
<path clip-path="url(#clip090)" d="M1638.06 232.577 L1638.06 239.417 Q1634.06 237.508 1630.52 236.57 Q1626.98 235.633 1623.68 235.633 Q1617.95 235.633 1614.83 237.855 Q1611.74 240.077 1611.74 244.174 Q1611.74 247.612 1613.79 249.383 Q1615.87 251.119 1621.63 252.195 L1625.87 253.063 Q1633.72 254.556 1637.43 258.341 Q1641.18 262.091 1641.18 268.41 Q1641.18 275.945 1636.11 279.834 Q1631.08 283.723 1621.32 283.723 Q1617.64 283.723 1613.47 282.889 Q1609.34 282.056 1604.9 280.424 L1604.9 273.202 Q1609.17 275.598 1613.27 276.813 Q1617.36 278.028 1621.32 278.028 Q1627.33 278.028 1630.59 275.667 Q1633.86 273.306 1633.86 268.931 Q1633.86 265.112 1631.49 262.959 Q1629.17 260.806 1623.82 259.73 L1619.55 258.896 Q1611.7 257.334 1608.2 254.001 Q1604.69 250.667 1604.69 244.73 Q1604.69 237.855 1609.52 233.897 Q1614.38 229.938 1622.88 229.938 Q1626.53 229.938 1630.31 230.598 Q1634.1 231.258 1638.06 232.577 Z" fill="#000000" fill-rule="evenodd" fill-opacity="1" /><path clip-path="url(#clip090)" d="M1651.84 243.827 L1658.23 243.827 L1658.23 282.716 L1651.84 282.716 L1651.84 243.827 M1651.84 228.688 L1658.23 228.688 L1658.23 236.778 L1651.84 236.778 L1651.84 228.688 Z" fill="#000000" fill-rule="evenodd" fill-opacity="1" /><path clip-path="url(#clip090)" d="M1701.88 251.292 Q1704.27 246.987 1707.61 244.938 Q1710.94 242.89 1715.45 242.89 Q1721.53 242.89 1724.83 247.16 Q1728.13 251.396 1728.13 259.244 L1728.13 282.716 L1721.7 282.716 L1721.7 259.452 Q1721.7 253.862 1719.72 251.153 Q1717.74 248.445 1713.68 248.445 Q1708.72 248.445 1705.83 251.744 Q1702.95 255.042 1702.95 260.737 L1702.95 282.716 L1696.53 282.716 L1696.53 259.452 Q1696.53 253.827 1694.55 251.153 Q1692.57 248.445 1688.44 248.445 Q1683.54 248.445 1680.66 251.778 Q1677.78 255.077 1677.78 260.737 L1677.78 282.716 L1671.36 282.716 L1671.36 243.827 L1677.78 243.827 L1677.78 249.869 Q1679.97 246.292 1683.02 244.591 Q1686.08 242.89 1690.28 242.89 Q1694.52 242.89 1697.47 245.042 Q1700.45 247.195 1701.88 251.292 Z" fill="#000000" fill-rule="evenodd" fill-opacity="1" /><path clip-path="url(#clip090)" d="M1747.05 276.882 L1747.05 297.507 L1740.63 297.507 L1740.63 243.827 L1747.05 243.827 L1747.05 249.73 Q1749.06 246.258 1752.12 244.591 Q1755.21 242.89 1759.48 242.89 Q1766.56 242.89 1770.97 248.515 Q1775.42 254.139 1775.42 263.306 Q1775.42 272.473 1770.97 278.098 Q1766.56 283.723 1759.48 283.723 Q1755.21 283.723 1752.12 282.056 Q1749.06 280.355 1747.05 276.882 M1768.79 263.306 Q1768.79 256.258 1765.87 252.264 Q1762.99 248.237 1757.92 248.237 Q1752.85 248.237 1749.93 252.264 Q1747.05 256.258 1747.05 263.306 Q1747.05 270.355 1749.93 274.382 Q1752.85 278.375 1757.92 278.375 Q1762.99 278.375 1765.87 274.382 Q1768.79 270.355 1768.79 263.306 Z" fill="#000000" fill-rule="evenodd" fill-opacity="1" /><path clip-path="url(#clip090)" d="M1786.01 228.688 L1792.4 228.688 L1792.4 282.716 L1786.01 282.716 L1786.01 228.688 Z" fill="#000000" fill-rule="evenodd" fill-opacity="1" /><path clip-path="url(#clip090)" d="M1839.03 261.674 L1839.03 264.799 L1809.65 264.799 Q1810.07 271.396 1813.61 274.869 Q1817.19 278.306 1823.54 278.306 Q1827.22 278.306 1830.66 277.403 Q1834.13 276.5 1837.54 274.695 L1837.54 280.737 Q1834.1 282.195 1830.49 282.959 Q1826.88 283.723 1823.16 283.723 Q1813.85 283.723 1808.4 278.306 Q1802.99 272.889 1802.99 263.653 Q1802.99 254.105 1808.13 248.515 Q1813.3 242.89 1822.05 242.89 Q1829.9 242.89 1834.45 247.959 Q1839.03 252.994 1839.03 261.674 M1832.64 259.799 Q1832.57 254.556 1829.69 251.431 Q1826.84 248.306 1822.12 248.306 Q1816.77 248.306 1813.54 251.327 Q1810.35 254.348 1809.86 259.834 L1832.64 259.799 Z" fill="#000000" fill-rule="evenodd" fill-opacity="1" /><path clip-path="url(#clip090)" d="M1849.79 230.876 L1879.58 230.876 L1879.58 236.778 L1856.81 236.778 L1856.81 252.056 L1877.36 252.056 L1877.36 257.959 L1856.81 257.959 L1856.81 282.716 L1849.79 282.716 L1849.79 230.876 Z" fill="#000000" fill-rule="evenodd" fill-opacity="1" /><path clip-path="url(#clip090)" d="M1890.69 230.876 L1901.15 230.876 L1914.38 266.153 L1927.67 230.876 L1938.13 230.876 L1938.13 282.716 L1931.28 282.716 L1931.28 237.195 L1917.92 272.75 L1910.87 272.75 L1897.5 237.195 L1897.5 282.716 L1890.69 282.716 L1890.69 230.876 Z" fill="#000000" fill-rule="evenodd" fill-opacity="1" /><path clip-path="url(#clip090)" d="M1951.25 230.876 L1958.3 230.876 L1958.3 262.369 Q1958.3 270.702 1961.32 274.382 Q1964.34 278.028 1971.11 278.028 Q1977.85 278.028 1980.87 274.382 Q1983.89 270.702 1983.89 262.369 L1983.89 230.876 L1990.94 230.876 L1990.94 263.237 Q1990.94 273.375 1985.9 278.549 Q1980.9 283.723 1971.11 283.723 Q1961.28 283.723 1956.25 278.549 Q1951.25 273.375 1951.25 263.237 L1951.25 230.876 Z" fill="#000000" fill-rule="evenodd" fill-opacity="1" /><polyline clip-path="url(#clip090)" style="stroke:#e26f46; stroke-linecap:butt; stroke-linejoin:round; stroke-width:6; stroke-opacity:1; fill:none" points="
  1446.2,347.516 1582.05,347.516 
  "/>
<path clip-path="url(#clip090)" d="M1627.47 340.519 Q1626.39 339.894 1625.11 339.616 Q1623.86 339.304 1622.33 339.304 Q1616.91 339.304 1613.99 342.846 Q1611.11 346.353 1611.11 352.95 L1611.11 373.436 L1604.69 373.436 L1604.69 334.547 L1611.11 334.547 L1611.11 340.589 Q1613.13 337.047 1616.36 335.346 Q1619.59 333.61 1624.2 333.61 Q1624.86 333.61 1625.66 333.714 Q1626.46 333.783 1627.43 333.957 L1627.47 340.519 Z" fill="#000000" fill-rule="evenodd" fill-opacity="1" /><path clip-path="url(#clip090)" d="M1665.87 352.394 L1665.87 355.519 L1636.49 355.519 Q1636.91 362.116 1640.45 365.589 Q1644.03 369.026 1650.38 369.026 Q1654.06 369.026 1657.5 368.123 Q1660.97 367.22 1664.38 365.415 L1664.38 371.457 Q1660.94 372.915 1657.33 373.679 Q1653.72 374.443 1650 374.443 Q1640.7 374.443 1635.24 369.026 Q1629.83 363.609 1629.83 354.373 Q1629.83 344.825 1634.97 339.235 Q1640.14 333.61 1648.89 333.61 Q1656.74 333.61 1661.29 338.679 Q1665.87 343.714 1665.87 352.394 M1659.48 350.519 Q1659.41 345.276 1656.53 342.151 Q1653.68 339.026 1648.96 339.026 Q1643.61 339.026 1640.38 342.047 Q1637.19 345.068 1636.7 350.554 L1659.48 350.519 Z" fill="#000000" fill-rule="evenodd" fill-opacity="1" /><path clip-path="url(#clip090)" d="M1696.04 319.408 L1696.04 324.721 L1689.93 324.721 Q1686.49 324.721 1685.14 326.11 Q1683.82 327.498 1683.82 331.11 L1683.82 334.547 L1694.34 334.547 L1694.34 339.512 L1683.82 339.512 L1683.82 373.436 L1677.4 373.436 L1677.4 339.512 L1671.29 339.512 L1671.29 334.547 L1677.4 334.547 L1677.4 331.839 Q1677.4 325.346 1680.42 322.394 Q1683.44 319.408 1690 319.408 L1696.04 319.408 Z" fill="#000000" fill-rule="evenodd" fill-opacity="1" /><path clip-path="url(#clip090)" d="M1734.65 352.394 L1734.65 355.519 L1705.28 355.519 Q1705.7 362.116 1709.24 365.589 Q1712.81 369.026 1719.17 369.026 Q1722.85 369.026 1726.29 368.123 Q1729.76 367.22 1733.16 365.415 L1733.16 371.457 Q1729.72 372.915 1726.11 373.679 Q1722.5 374.443 1718.79 374.443 Q1709.48 374.443 1704.03 369.026 Q1698.61 363.609 1698.61 354.373 Q1698.61 344.825 1703.75 339.235 Q1708.92 333.61 1717.67 333.61 Q1725.52 333.61 1730.07 338.679 Q1734.65 343.714 1734.65 352.394 M1728.27 350.519 Q1728.2 345.276 1725.31 342.151 Q1722.47 339.026 1717.74 339.026 Q1712.4 339.026 1709.17 342.047 Q1705.97 345.068 1705.49 350.554 L1728.27 350.519 Z" fill="#000000" fill-rule="evenodd" fill-opacity="1" /><path clip-path="url(#clip090)" d="M1767.67 340.519 Q1766.6 339.894 1765.31 339.616 Q1764.06 339.304 1762.54 339.304 Q1757.12 339.304 1754.2 342.846 Q1751.32 346.353 1751.32 352.95 L1751.32 373.436 L1744.9 373.436 L1744.9 334.547 L1751.32 334.547 L1751.32 340.589 Q1753.33 337.047 1756.56 335.346 Q1759.79 333.61 1764.41 333.61 Q1765.07 333.61 1765.87 333.714 Q1766.67 333.783 1767.64 333.957 L1767.67 340.519 Z" fill="#000000" fill-rule="evenodd" fill-opacity="1" /><path clip-path="url(#clip090)" d="M1806.08 352.394 L1806.08 355.519 L1776.7 355.519 Q1777.12 362.116 1780.66 365.589 Q1784.24 369.026 1790.59 369.026 Q1794.27 369.026 1797.71 368.123 Q1801.18 367.22 1804.58 365.415 L1804.58 371.457 Q1801.15 372.915 1797.54 373.679 Q1793.92 374.443 1790.21 374.443 Q1780.9 374.443 1775.45 369.026 Q1770.04 363.609 1770.04 354.373 Q1770.04 344.825 1775.17 339.235 Q1780.35 333.61 1789.1 333.61 Q1796.95 333.61 1801.49 338.679 Q1806.08 343.714 1806.08 352.394 M1799.69 350.519 Q1799.62 345.276 1796.74 342.151 Q1793.89 339.026 1789.17 339.026 Q1783.82 339.026 1780.59 342.047 Q1777.4 345.068 1776.91 350.554 L1799.69 350.519 Z" fill="#000000" fill-rule="evenodd" fill-opacity="1" /><path clip-path="url(#clip090)" d="M1848.89 349.964 L1848.89 373.436 L1842.5 373.436 L1842.5 350.172 Q1842.5 344.651 1840.35 341.908 Q1838.2 339.165 1833.89 339.165 Q1828.72 339.165 1825.73 342.464 Q1822.74 345.762 1822.74 351.457 L1822.74 373.436 L1816.32 373.436 L1816.32 334.547 L1822.74 334.547 L1822.74 340.589 Q1825.04 337.082 1828.13 335.346 Q1831.25 333.61 1835.31 333.61 Q1842.01 333.61 1845.45 337.776 Q1848.89 341.908 1848.89 349.964 Z" fill="#000000" fill-rule="evenodd" fill-opacity="1" /><path clip-path="url(#clip090)" d="M1889.62 336.04 L1889.62 342.012 Q1886.91 340.519 1884.17 339.79 Q1881.46 339.026 1878.68 339.026 Q1872.47 339.026 1869.03 342.984 Q1865.59 346.908 1865.59 354.026 Q1865.59 361.144 1869.03 365.102 Q1872.47 369.026 1878.68 369.026 Q1881.46 369.026 1884.17 368.297 Q1886.91 367.533 1889.62 366.04 L1889.62 371.943 Q1886.94 373.193 1884.06 373.818 Q1881.22 374.443 1877.99 374.443 Q1869.2 374.443 1864.03 368.922 Q1858.85 363.401 1858.85 354.026 Q1858.85 344.512 1864.06 339.061 Q1869.31 333.61 1878.4 333.61 Q1881.35 333.61 1884.17 334.235 Q1886.98 334.825 1889.62 336.04 Z" fill="#000000" fill-rule="evenodd" fill-opacity="1" /><path clip-path="url(#clip090)" d="M1933.99 352.394 L1933.99 355.519 L1904.62 355.519 Q1905.03 362.116 1908.58 365.589 Q1912.15 369.026 1918.51 369.026 Q1922.19 369.026 1925.63 368.123 Q1929.1 367.22 1932.5 365.415 L1932.5 371.457 Q1929.06 372.915 1925.45 373.679 Q1921.84 374.443 1918.13 374.443 Q1908.82 374.443 1903.37 369.026 Q1897.95 363.609 1897.95 354.373 Q1897.95 344.825 1903.09 339.235 Q1908.26 333.61 1917.01 333.61 Q1924.86 333.61 1929.41 338.679 Q1933.99 343.714 1933.99 352.394 M1927.6 350.519 Q1927.53 345.276 1924.65 342.151 Q1921.81 339.026 1917.08 339.026 Q1911.74 339.026 1908.51 342.047 Q1905.31 345.068 1904.83 350.554 L1927.6 350.519 Z" fill="#000000" fill-rule="evenodd" fill-opacity="1" /><polyline clip-path="url(#clip090)" style="stroke:#008000; stroke-linecap:butt; stroke-linejoin:round; stroke-width:6; stroke-opacity:1; fill:none" stroke-dasharray="3, 6" points="
  1446.2,438.236 1582.05,438.236 
  "/>
<path clip-path="url(#clip090)" d="M1604.69 412.316 L1614.13 412.316 L1637.12 455.684 L1637.12 412.316 L1643.93 412.316 L1643.93 464.156 L1634.48 464.156 L1611.49 420.788 L1611.49 464.156 L1604.69 464.156 L1604.69 412.316 Z" fill="#000000" fill-rule="evenodd" fill-opacity="1" /><path clip-path="url(#clip090)" d="M1690.87 443.114 L1690.87 446.239 L1661.49 446.239 Q1661.91 452.836 1665.45 456.309 Q1669.03 459.746 1675.38 459.746 Q1679.06 459.746 1682.5 458.843 Q1685.97 457.94 1689.38 456.135 L1689.38 462.177 Q1685.94 463.635 1682.33 464.399 Q1678.72 465.163 1675 465.163 Q1665.7 465.163 1660.24 459.746 Q1654.83 454.329 1654.83 445.093 Q1654.83 435.545 1659.97 429.955 Q1665.14 424.33 1673.89 424.33 Q1681.74 424.33 1686.29 429.399 Q1690.87 434.434 1690.87 443.114 M1684.48 441.239 Q1684.41 435.996 1681.53 432.871 Q1678.68 429.746 1673.96 429.746 Q1668.61 429.746 1665.38 432.767 Q1662.19 435.788 1661.7 441.274 L1684.48 441.239 Z" fill="#000000" fill-rule="evenodd" fill-opacity="1" /><path clip-path="url(#clip090)" d="M1700.7 448.809 L1700.7 425.267 L1707.08 425.267 L1707.08 448.566 Q1707.08 454.086 1709.24 456.864 Q1711.39 459.607 1715.7 459.607 Q1720.87 459.607 1723.86 456.309 Q1726.88 453.01 1726.88 447.316 L1726.88 425.267 L1733.27 425.267 L1733.27 464.156 L1726.88 464.156 L1726.88 458.184 Q1724.55 461.725 1721.46 463.461 Q1718.4 465.163 1714.34 465.163 Q1707.64 465.163 1704.17 460.996 Q1700.7 456.829 1700.7 448.809 M1716.77 424.33 L1716.77 424.33 Z" fill="#000000" fill-rule="evenodd" fill-opacity="1" /><path clip-path="url(#clip090)" d="M1768.96 431.239 Q1767.88 430.614 1766.6 430.336 Q1765.35 430.024 1763.82 430.024 Q1758.4 430.024 1755.49 433.566 Q1752.61 437.073 1752.61 443.67 L1752.61 464.156 L1746.18 464.156 L1746.18 425.267 L1752.61 425.267 L1752.61 431.309 Q1754.62 427.767 1757.85 426.066 Q1761.08 424.33 1765.7 424.33 Q1766.36 424.33 1767.15 424.434 Q1767.95 424.503 1768.92 424.677 L1768.96 431.239 Z" fill="#000000" fill-rule="evenodd" fill-opacity="1" /><path clip-path="url(#clip090)" d="M1793.33 444.607 Q1785.59 444.607 1782.61 446.378 Q1779.62 448.149 1779.62 452.42 Q1779.62 455.822 1781.84 457.836 Q1784.1 459.815 1787.95 459.815 Q1793.26 459.815 1796.46 456.065 Q1799.69 452.281 1799.69 446.031 L1799.69 444.607 L1793.33 444.607 M1806.08 441.968 L1806.08 464.156 L1799.69 464.156 L1799.69 458.253 Q1797.5 461.795 1794.24 463.496 Q1790.97 465.163 1786.25 465.163 Q1780.28 465.163 1776.74 461.829 Q1773.23 458.461 1773.23 452.836 Q1773.23 446.274 1777.61 442.941 Q1782.01 439.607 1790.73 439.607 L1799.69 439.607 L1799.69 438.982 Q1799.69 434.573 1796.77 432.177 Q1793.89 429.746 1788.65 429.746 Q1785.31 429.746 1782.15 430.545 Q1778.99 431.343 1776.08 432.941 L1776.08 427.038 Q1779.58 425.684 1782.88 425.024 Q1786.18 424.33 1789.31 424.33 Q1797.74 424.33 1801.91 428.705 Q1806.08 433.079 1806.08 441.968 Z" fill="#000000" fill-rule="evenodd" fill-opacity="1" /><path clip-path="url(#clip090)" d="M1819.24 410.128 L1825.63 410.128 L1825.63 464.156 L1819.24 464.156 L1819.24 410.128 Z" fill="#000000" fill-rule="evenodd" fill-opacity="1" /><path clip-path="url(#clip090)" d="M1839.27 412.316 L1869.06 412.316 L1869.06 418.218 L1846.29 418.218 L1846.29 433.496 L1866.84 433.496 L1866.84 439.399 L1846.29 439.399 L1846.29 464.156 L1839.27 464.156 L1839.27 412.316 Z" fill="#000000" fill-rule="evenodd" fill-opacity="1" /><path clip-path="url(#clip090)" d="M1880.17 412.316 L1890.63 412.316 L1903.85 447.593 L1917.15 412.316 L1927.6 412.316 L1927.6 464.156 L1920.76 464.156 L1920.76 418.635 L1907.4 454.19 L1900.35 454.19 L1886.98 418.635 L1886.98 464.156 L1880.17 464.156 L1880.17 412.316 Z" fill="#000000" fill-rule="evenodd" fill-opacity="1" /><path clip-path="url(#clip090)" d="M1940.73 412.316 L1947.78 412.316 L1947.78 443.809 Q1947.78 452.142 1950.8 455.822 Q1953.82 459.468 1960.59 459.468 Q1967.33 459.468 1970.35 455.822 Q1973.37 452.142 1973.37 443.809 L1973.37 412.316 L1980.42 412.316 L1980.42 444.677 Q1980.42 454.815 1975.38 459.989 Q1970.38 465.163 1960.59 465.163 Q1950.76 465.163 1945.73 459.989 Q1940.73 454.815 1940.73 444.677 L1940.73 412.316 Z" fill="#000000" fill-rule="evenodd" fill-opacity="1" /><path clip-path="url(#clip090)" d="M2031.25 410.198 Q2026.6 418.184 2024.34 425.996 Q2022.08 433.809 2022.08 441.829 Q2022.08 449.85 2024.34 457.732 Q2026.63 465.579 2031.25 473.531 L2025.69 473.531 Q2020.49 465.371 2017.88 457.489 Q2015.31 449.607 2015.31 441.829 Q2015.31 434.086 2017.88 426.239 Q2020.45 418.392 2025.69 410.198 L2031.25 410.198 Z" fill="#000000" fill-rule="evenodd" fill-opacity="1" /><path clip-path="url(#clip090)" d="M2050.59 458.253 L2075.07 458.253 L2075.07 464.156 L2042.15 464.156 L2042.15 458.253 Q2046.15 454.121 2053.02 447.177 Q2059.93 440.198 2061.7 438.184 Q2065.07 434.399 2066.39 431.795 Q2067.74 429.156 2067.74 426.621 Q2067.74 422.489 2064.83 419.885 Q2061.94 417.281 2057.29 417.281 Q2053.99 417.281 2050.31 418.427 Q2046.67 419.573 2042.5 421.899 L2042.5 414.816 Q2046.74 413.114 2050.42 412.246 Q2054.1 411.378 2057.15 411.378 Q2065.21 411.378 2070 415.406 Q2074.79 419.434 2074.79 426.17 Q2074.79 429.364 2073.58 432.246 Q2072.4 435.093 2069.24 438.982 Q2068.37 439.989 2063.71 444.816 Q2059.06 449.607 2050.59 458.253 Z" fill="#000000" fill-rule="evenodd" fill-opacity="1" /><path clip-path="url(#clip090)" d="M2089.86 412.316 L2117.39 412.316 L2117.39 418.218 L2096.28 418.218 L2096.28 430.927 Q2097.81 430.406 2099.34 430.163 Q2100.87 429.885 2102.39 429.885 Q2111.08 429.885 2116.14 434.642 Q2121.21 439.399 2121.21 447.524 Q2121.21 455.892 2116.01 460.545 Q2110.8 465.163 2101.32 465.163 Q2098.05 465.163 2094.65 464.607 Q2091.28 464.052 2087.67 462.94 L2087.67 455.892 Q2090.8 457.593 2094.13 458.427 Q2097.46 459.26 2101.18 459.26 Q2107.19 459.26 2110.69 456.1 Q2114.2 452.94 2114.2 447.524 Q2114.2 442.107 2110.69 438.948 Q2107.19 435.788 2101.18 435.788 Q2098.37 435.788 2095.55 436.413 Q2092.78 437.038 2089.86 438.357 L2089.86 412.316 Z" fill="#000000" fill-rule="evenodd" fill-opacity="1" /><path clip-path="url(#clip090)" d="M2150.03 416.934 Q2144.62 416.934 2141.87 422.281 Q2139.17 427.593 2139.17 438.288 Q2139.17 448.947 2141.87 454.295 Q2144.62 459.607 2150.03 459.607 Q2155.48 459.607 2158.19 454.295 Q2160.94 448.947 2160.94 438.288 Q2160.94 427.593 2158.19 422.281 Q2155.48 416.934 2150.03 416.934 M2150.03 411.378 Q2158.75 411.378 2163.33 418.288 Q2167.95 425.163 2167.95 438.288 Q2167.95 451.378 2163.33 458.288 Q2158.75 465.163 2150.03 465.163 Q2141.32 465.163 2136.7 458.288 Q2132.12 451.378 2132.12 438.288 Q2132.12 425.163 2136.7 418.288 Q2141.32 411.378 2150.03 411.378 Z" fill="#000000" fill-rule="evenodd" fill-opacity="1" /><path clip-path="url(#clip090)" d="M2195.28 416.934 Q2189.86 416.934 2187.12 422.281 Q2184.41 427.593 2184.41 438.288 Q2184.41 448.947 2187.12 454.295 Q2189.86 459.607 2195.28 459.607 Q2200.73 459.607 2203.44 454.295 Q2206.18 448.947 2206.18 438.288 Q2206.18 427.593 2203.44 422.281 Q2200.73 416.934 2195.28 416.934 M2195.28 411.378 Q2203.99 411.378 2208.57 418.288 Q2213.19 425.163 2213.19 438.288 Q2213.19 451.378 2208.57 458.288 Q2203.99 465.163 2195.28 465.163 Q2186.56 465.163 2181.94 458.288 Q2177.36 451.378 2177.36 438.288 Q2177.36 425.163 2181.94 418.288 Q2186.56 411.378 2195.28 411.378 Z" fill="#000000" fill-rule="evenodd" fill-opacity="1" /><path clip-path="url(#clip090)" d="M2223.61 410.198 L2229.17 410.198 Q2234.37 418.392 2236.94 426.239 Q2239.55 434.086 2239.55 441.829 Q2239.55 449.607 2236.94 457.489 Q2234.37 465.371 2229.17 473.531 L2223.61 473.531 Q2228.23 465.579 2230.48 457.732 Q2232.78 449.85 2232.78 441.829 Q2232.78 433.809 2230.48 425.996 Q2228.23 418.184 2223.61 410.198 Z" fill="#000000" fill-rule="evenodd" fill-opacity="1" /><polyline clip-path="url(#clip090)" style="stroke:#008000; stroke-linecap:butt; stroke-linejoin:round; stroke-width:6; stroke-opacity:1; fill:none" points="
  1446.2,528.956 1582.05,528.956 
  "/>
<path clip-path="url(#clip090)" d="M1604.69 503.036 L1614.13 503.036 L1637.12 546.404 L1637.12 503.036 L1643.93 503.036 L1643.93 554.876 L1634.48 554.876 L1611.49 511.508 L1611.49 554.876 L1604.69 554.876 L1604.69 503.036 Z" fill="#000000" fill-rule="evenodd" fill-opacity="1" /><path clip-path="url(#clip090)" d="M1690.87 533.834 L1690.87 536.959 L1661.49 536.959 Q1661.91 543.556 1665.45 547.029 Q1669.03 550.466 1675.38 550.466 Q1679.06 550.466 1682.5 549.563 Q1685.97 548.66 1689.38 546.855 L1689.38 552.897 Q1685.94 554.355 1682.33 555.119 Q1678.72 555.883 1675 555.883 Q1665.7 555.883 1660.24 550.466 Q1654.83 545.049 1654.83 535.813 Q1654.83 526.265 1659.97 520.675 Q1665.14 515.05 1673.89 515.05 Q1681.74 515.05 1686.29 520.119 Q1690.87 525.154 1690.87 533.834 M1684.48 531.959 Q1684.41 526.716 1681.53 523.591 Q1678.68 520.466 1673.96 520.466 Q1668.61 520.466 1665.38 523.487 Q1662.19 526.508 1661.7 531.994 L1684.48 531.959 Z" fill="#000000" fill-rule="evenodd" fill-opacity="1" /><path clip-path="url(#clip090)" d="M1700.7 539.529 L1700.7 515.987 L1707.08 515.987 L1707.08 539.286 Q1707.08 544.806 1709.24 547.584 Q1711.39 550.327 1715.7 550.327 Q1720.87 550.327 1723.86 547.029 Q1726.88 543.73 1726.88 538.036 L1726.88 515.987 L1733.27 515.987 L1733.27 554.876 L1726.88 554.876 L1726.88 548.904 Q1724.55 552.445 1721.46 554.181 Q1718.4 555.883 1714.34 555.883 Q1707.64 555.883 1704.17 551.716 Q1700.7 547.549 1700.7 539.529 M1716.77 515.05 L1716.77 515.05 Z" fill="#000000" fill-rule="evenodd" fill-opacity="1" /><path clip-path="url(#clip090)" d="M1768.96 521.959 Q1767.88 521.334 1766.6 521.056 Q1765.35 520.744 1763.82 520.744 Q1758.4 520.744 1755.49 524.286 Q1752.61 527.793 1752.61 534.39 L1752.61 554.876 L1746.18 554.876 L1746.18 515.987 L1752.61 515.987 L1752.61 522.029 Q1754.62 518.487 1757.85 516.786 Q1761.08 515.05 1765.7 515.05 Q1766.36 515.05 1767.15 515.154 Q1767.95 515.223 1768.92 515.397 L1768.96 521.959 Z" fill="#000000" fill-rule="evenodd" fill-opacity="1" /><path clip-path="url(#clip090)" d="M1793.33 535.327 Q1785.59 535.327 1782.61 537.098 Q1779.62 538.869 1779.62 543.14 Q1779.62 546.542 1781.84 548.556 Q1784.1 550.535 1787.95 550.535 Q1793.26 550.535 1796.46 546.785 Q1799.69 543.001 1799.69 536.751 L1799.69 535.327 L1793.33 535.327 M1806.08 532.688 L1806.08 554.876 L1799.69 554.876 L1799.69 548.973 Q1797.5 552.515 1794.24 554.216 Q1790.97 555.883 1786.25 555.883 Q1780.28 555.883 1776.74 552.549 Q1773.23 549.181 1773.23 543.556 Q1773.23 536.994 1777.61 533.661 Q1782.01 530.327 1790.73 530.327 L1799.69 530.327 L1799.69 529.702 Q1799.69 525.293 1796.77 522.897 Q1793.89 520.466 1788.65 520.466 Q1785.31 520.466 1782.15 521.265 Q1778.99 522.063 1776.08 523.661 L1776.08 517.758 Q1779.58 516.404 1782.88 515.744 Q1786.18 515.05 1789.31 515.05 Q1797.74 515.05 1801.91 519.425 Q1806.08 523.799 1806.08 532.688 Z" fill="#000000" fill-rule="evenodd" fill-opacity="1" /><path clip-path="url(#clip090)" d="M1819.24 500.848 L1825.63 500.848 L1825.63 554.876 L1819.24 554.876 L1819.24 500.848 Z" fill="#000000" fill-rule="evenodd" fill-opacity="1" /><path clip-path="url(#clip090)" d="M1839.27 503.036 L1869.06 503.036 L1869.06 508.938 L1846.29 508.938 L1846.29 524.216 L1866.84 524.216 L1866.84 530.119 L1846.29 530.119 L1846.29 554.876 L1839.27 554.876 L1839.27 503.036 Z" fill="#000000" fill-rule="evenodd" fill-opacity="1" /><path clip-path="url(#clip090)" d="M1880.17 503.036 L1890.63 503.036 L1903.85 538.313 L1917.15 503.036 L1927.6 503.036 L1927.6 554.876 L1920.76 554.876 L1920.76 509.355 L1907.4 544.91 L1900.35 544.91 L1886.98 509.355 L1886.98 554.876 L1880.17 554.876 L1880.17 503.036 Z" fill="#000000" fill-rule="evenodd" fill-opacity="1" /><path clip-path="url(#clip090)" d="M1940.73 503.036 L1947.78 503.036 L1947.78 534.529 Q1947.78 542.862 1950.8 546.542 Q1953.82 550.188 1960.59 550.188 Q1967.33 550.188 1970.35 546.542 Q1973.37 542.862 1973.37 534.529 L1973.37 503.036 L1980.42 503.036 L1980.42 535.397 Q1980.42 545.535 1975.38 550.709 Q1970.38 555.883 1960.59 555.883 Q1950.76 555.883 1945.73 550.709 Q1940.73 545.535 1940.73 535.397 L1940.73 503.036 Z" fill="#000000" fill-rule="evenodd" fill-opacity="1" /><path clip-path="url(#clip090)" d="M2031.25 500.918 Q2026.6 508.904 2024.34 516.716 Q2022.08 524.529 2022.08 532.549 Q2022.08 540.57 2024.34 548.452 Q2026.63 556.299 2031.25 564.251 L2025.69 564.251 Q2020.49 556.091 2017.88 548.209 Q2015.31 540.327 2015.31 532.549 Q2015.31 524.806 2017.88 516.959 Q2020.45 509.112 2025.69 500.918 L2031.25 500.918 Z" fill="#000000" fill-rule="evenodd" fill-opacity="1" /><path clip-path="url(#clip090)" d="M2044.62 503.036 L2072.15 503.036 L2072.15 508.938 L2051.04 508.938 L2051.04 521.647 Q2052.57 521.126 2054.1 520.883 Q2055.62 520.605 2057.15 520.605 Q2065.83 520.605 2070.9 525.362 Q2075.97 530.119 2075.97 538.244 Q2075.97 546.612 2070.76 551.265 Q2065.55 555.883 2056.08 555.883 Q2052.81 555.883 2049.41 555.327 Q2046.04 554.772 2042.43 553.66 L2042.43 546.612 Q2045.56 548.313 2048.89 549.147 Q2052.22 549.98 2055.94 549.98 Q2061.94 549.98 2065.45 546.82 Q2068.96 543.66 2068.96 538.244 Q2068.96 532.827 2065.45 529.668 Q2061.94 526.508 2055.94 526.508 Q2053.12 526.508 2050.31 527.133 Q2047.53 527.758 2044.62 529.077 L2044.62 503.036 Z" fill="#000000" fill-rule="evenodd" fill-opacity="1" /><path clip-path="url(#clip090)" d="M2104.79 507.654 Q2099.37 507.654 2096.63 513.001 Q2093.92 518.313 2093.92 529.008 Q2093.92 539.667 2096.63 545.015 Q2099.37 550.327 2104.79 550.327 Q2110.24 550.327 2112.95 545.015 Q2115.69 539.667 2115.69 529.008 Q2115.69 518.313 2112.95 513.001 Q2110.24 507.654 2104.79 507.654 M2104.79 502.098 Q2113.51 502.098 2118.09 509.008 Q2122.71 515.883 2122.71 529.008 Q2122.71 542.098 2118.09 549.008 Q2113.51 555.883 2104.79 555.883 Q2096.08 555.883 2091.46 549.008 Q2086.87 542.098 2086.87 529.008 Q2086.87 515.883 2091.46 509.008 Q2096.08 502.098 2104.79 502.098 Z" fill="#000000" fill-rule="evenodd" fill-opacity="1" /><path clip-path="url(#clip090)" d="M2150.03 507.654 Q2144.62 507.654 2141.87 513.001 Q2139.17 518.313 2139.17 529.008 Q2139.17 539.667 2141.87 545.015 Q2144.62 550.327 2150.03 550.327 Q2155.48 550.327 2158.19 545.015 Q2160.94 539.667 2160.94 529.008 Q2160.94 518.313 2158.19 513.001 Q2155.48 507.654 2150.03 507.654 M2150.03 502.098 Q2158.75 502.098 2163.33 509.008 Q2167.95 515.883 2167.95 529.008 Q2167.95 542.098 2163.33 549.008 Q2158.75 555.883 2150.03 555.883 Q2141.32 555.883 2136.7 549.008 Q2132.12 542.098 2132.12 529.008 Q2132.12 515.883 2136.7 509.008 Q2141.32 502.098 2150.03 502.098 Z" fill="#000000" fill-rule="evenodd" fill-opacity="1" /><path clip-path="url(#clip090)" d="M2195.28 507.654 Q2189.86 507.654 2187.12 513.001 Q2184.41 518.313 2184.41 529.008 Q2184.41 539.667 2187.12 545.015 Q2189.86 550.327 2195.28 550.327 Q2200.73 550.327 2203.44 545.015 Q2206.18 539.667 2206.18 529.008 Q2206.18 518.313 2203.44 513.001 Q2200.73 507.654 2195.28 507.654 M2195.28 502.098 Q2203.99 502.098 2208.57 509.008 Q2213.19 515.883 2213.19 529.008 Q2213.19 542.098 2208.57 549.008 Q2203.99 555.883 2195.28 555.883 Q2186.56 555.883 2181.94 549.008 Q2177.36 542.098 2177.36 529.008 Q2177.36 515.883 2181.94 509.008 Q2186.56 502.098 2195.28 502.098 Z" fill="#000000" fill-rule="evenodd" fill-opacity="1" /><path clip-path="url(#clip090)" d="M2223.61 500.918 L2229.17 500.918 Q2234.37 509.112 2236.94 516.959 Q2239.55 524.806 2239.55 532.549 Q2239.55 540.327 2236.94 548.209 Q2234.37 556.091 2229.17 564.251 L2223.61 564.251 Q2228.23 556.299 2230.48 548.452 Q2232.78 540.57 2232.78 532.549 Q2232.78 524.529 2230.48 516.716 Q2228.23 508.904 2223.61 500.918 Z" fill="#000000" fill-rule="evenodd" fill-opacity="1" /></svg>
