<?xml version="1.0" encoding="utf-8"?>
<svg xmlns="http://www.w3.org/2000/svg" xmlns:xlink="http://www.w3.org/1999/xlink" width="600" height="400" viewBox="0 0 2400 1600">
<defs>
  <clipPath id="clip570">
    <rect x="0" y="0" width="2400" height="1600"/>
  </clipPath>
</defs>
<path clip-path="url(#clip570)" d="
M0 1600 L2400 1600 L2400 0 L0 0  Z
  " fill="#ffffff" fill-rule="evenodd" fill-opacity="1"/>
<defs>
  <clipPath id="clip571">
    <rect x="480" y="0" width="1681" height="1600"/>
  </clipPath>
</defs>
<path clip-path="url(#clip570)" d="
M193.936 1423.18 L2352.76 1423.18 L2352.76 47.2441 L193.936 47.2441  Z
  " fill="#ffffff" fill-rule="evenodd" fill-opacity="1"/>
<defs>
  <clipPath id="clip572">
    <rect x="193" y="47" width="2160" height="1377"/>
  </clipPath>
</defs>
<polyline clip-path="url(#clip572)" style="stroke:#000000; stroke-linecap:butt; stroke-linejoin:round; stroke-width:2; stroke-opacity:0.1; fill:none" points="
  255.035,1423.18 255.035,47.2441 
  "/>
<polyline clip-path="url(#clip572)" style="stroke:#000000; stroke-linecap:butt; stroke-linejoin:round; stroke-width:2; stroke-opacity:0.1; fill:none" points="
  764.19,1423.18 764.19,47.2441 
  "/>
<polyline clip-path="url(#clip572)" style="stroke:#000000; stroke-linecap:butt; stroke-linejoin:round; stroke-width:2; stroke-opacity:0.1; fill:none" points="
  1273.35,1423.18 1273.35,47.2441 
  "/>
<polyline clip-path="url(#clip572)" style="stroke:#000000; stroke-linecap:butt; stroke-linejoin:round; stroke-width:2; stroke-opacity:0.1; fill:none" points="
  1782.5,1423.18 1782.5,47.2441 
  "/>
<polyline clip-path="url(#clip572)" style="stroke:#000000; stroke-linecap:butt; stroke-linejoin:round; stroke-width:2; stroke-opacity:0.1; fill:none" points="
  2291.66,1423.18 2291.66,47.2441 
  "/>
<polyline clip-path="url(#clip570)" style="stroke:#000000; stroke-linecap:butt; stroke-linejoin:round; stroke-width:4; stroke-opacity:1; fill:none" points="
  193.936,1423.18 2352.76,1423.18 
  "/>
<polyline clip-path="url(#clip570)" style="stroke:#000000; stroke-linecap:butt; stroke-linejoin:round; stroke-width:4; stroke-opacity:1; fill:none" points="
  255.035,1423.18 255.035,1406.67 
  "/>
<polyline clip-path="url(#clip570)" style="stroke:#000000; stroke-linecap:butt; stroke-linejoin:round; stroke-width:4; stroke-opacity:1; fill:none" points="
  764.19,1423.18 764.19,1406.67 
  "/>
<polyline clip-path="url(#clip570)" style="stroke:#000000; stroke-linecap:butt; stroke-linejoin:round; stroke-width:4; stroke-opacity:1; fill:none" points="
  1273.35,1423.18 1273.35,1406.67 
  "/>
<polyline clip-path="url(#clip570)" style="stroke:#000000; stroke-linecap:butt; stroke-linejoin:round; stroke-width:4; stroke-opacity:1; fill:none" points="
  1782.5,1423.18 1782.5,1406.67 
  "/>
<polyline clip-path="url(#clip570)" style="stroke:#000000; stroke-linecap:butt; stroke-linejoin:round; stroke-width:4; stroke-opacity:1; fill:none" points="
  2291.66,1423.18 2291.66,1406.67 
  "/>
<path clip-path="url(#clip570)" d="M255.035 1452.37 Q251.424 1452.37 249.595 1455.94 Q247.789 1459.48 247.789 1466.61 Q247.789 1473.71 249.595 1477.28 Q251.424 1480.82 255.035 1480.82 Q258.669 1480.82 260.474 1477.28 Q262.303 1473.71 262.303 1466.61 Q262.303 1459.48 260.474 1455.94 Q258.669 1452.37 255.035 1452.37 M255.035 1448.67 Q260.845 1448.67 263.9 1453.27 Q266.979 1457.86 266.979 1466.61 Q266.979 1475.33 263.9 1479.94 Q260.845 1484.52 255.035 1484.52 Q249.225 1484.52 246.146 1479.94 Q243.09 1475.33 243.09 1466.61 Q243.09 1457.86 246.146 1453.27 Q249.225 1448.67 255.035 1448.67 Z" fill="#000000" fill-rule="evenodd" fill-opacity="1" /><path clip-path="url(#clip570)" d="M754.572 1479.92 L762.211 1479.92 L762.211 1453.55 L753.901 1455.22 L753.901 1450.96 L762.165 1449.29 L766.841 1449.29 L766.841 1479.92 L774.48 1479.92 L774.48 1483.85 L754.572 1483.85 L754.572 1479.92 Z" fill="#000000" fill-rule="evenodd" fill-opacity="1" /><path clip-path="url(#clip570)" d="M1268 1479.92 L1284.32 1479.92 L1284.32 1483.85 L1262.37 1483.85 L1262.37 1479.92 Q1265.04 1477.16 1269.62 1472.53 Q1274.23 1467.88 1275.41 1466.54 Q1277.65 1464.01 1278.53 1462.28 Q1279.43 1460.52 1279.43 1458.83 Q1279.43 1456.07 1277.49 1454.34 Q1275.57 1452.6 1272.47 1452.6 Q1270.27 1452.6 1267.81 1453.37 Q1265.38 1454.13 1262.61 1455.68 L1262.61 1450.96 Q1265.43 1449.82 1267.88 1449.25 Q1270.34 1448.67 1272.37 1448.67 Q1277.74 1448.67 1280.94 1451.35 Q1284.13 1454.04 1284.13 1458.53 Q1284.13 1460.66 1283.32 1462.58 Q1282.54 1464.48 1280.43 1467.07 Q1279.85 1467.74 1276.75 1470.96 Q1273.65 1474.15 1268 1479.92 Z" fill="#000000" fill-rule="evenodd" fill-opacity="1" /><path clip-path="url(#clip570)" d="M1786.75 1465.22 Q1790.11 1465.94 1791.98 1468.2 Q1793.88 1470.47 1793.88 1473.81 Q1793.88 1478.92 1790.36 1481.72 Q1786.84 1484.52 1780.36 1484.52 Q1778.18 1484.52 1775.87 1484.08 Q1773.58 1483.67 1771.12 1482.81 L1771.12 1478.3 Q1773.07 1479.43 1775.38 1480.01 Q1777.7 1480.59 1780.22 1480.59 Q1784.62 1480.59 1786.91 1478.85 Q1789.23 1477.12 1789.23 1473.81 Q1789.23 1470.75 1787.07 1469.04 Q1784.94 1467.3 1781.12 1467.3 L1777.1 1467.3 L1777.1 1463.46 L1781.31 1463.46 Q1784.76 1463.46 1786.59 1462.09 Q1788.42 1460.7 1788.42 1458.11 Q1788.42 1455.45 1786.52 1454.04 Q1784.64 1452.6 1781.12 1452.6 Q1779.2 1452.6 1777 1453.02 Q1774.8 1453.44 1772.17 1454.31 L1772.17 1450.15 Q1774.83 1449.41 1777.14 1449.04 Q1779.48 1448.67 1781.54 1448.67 Q1786.86 1448.67 1789.97 1451.1 Q1793.07 1453.5 1793.07 1457.63 Q1793.07 1460.5 1791.43 1462.49 Q1789.78 1464.45 1786.75 1465.22 Z" fill="#000000" fill-rule="evenodd" fill-opacity="1" /><path clip-path="url(#clip570)" d="M2294.67 1453.37 L2282.86 1471.81 L2294.67 1471.81 L2294.67 1453.37 M2293.44 1449.29 L2299.32 1449.29 L2299.32 1471.81 L2304.25 1471.81 L2304.25 1475.7 L2299.32 1475.7 L2299.32 1483.85 L2294.67 1483.85 L2294.67 1475.7 L2279.06 1475.7 L2279.06 1471.19 L2293.44 1449.29 Z" fill="#000000" fill-rule="evenodd" fill-opacity="1" /><path clip-path="url(#clip570)" d="M1221.66 1522.27 L1221.66 1532.4 L1233.72 1532.4 L1233.72 1536.95 L1221.66 1536.95 L1221.66 1556.3 Q1221.66 1560.66 1222.83 1561.9 Q1224.04 1563.14 1227.7 1563.14 L1233.72 1563.14 L1233.72 1568.04 L1227.7 1568.04 Q1220.92 1568.04 1218.35 1565.53 Q1215.77 1562.98 1215.77 1556.3 L1215.77 1536.95 L1211.47 1536.95 L1211.47 1532.4 L1215.77 1532.4 L1215.77 1522.27 L1221.66 1522.27 Z" fill="#000000" fill-rule="evenodd" fill-opacity="1" /><path clip-path="url(#clip570)" d="M1261.6 1518.52 L1275.1 1518.52 L1275.1 1523.07 L1267.46 1523.07 L1267.46 1572.09 L1275.1 1572.09 L1275.1 1576.64 L1261.6 1576.64 L1261.6 1518.52 Z" fill="#000000" fill-rule="evenodd" fill-opacity="1" /><path clip-path="url(#clip570)" d="M1310.3 1533.45 L1310.3 1538.98 Q1307.82 1537.71 1305.14 1537.07 Q1302.47 1536.44 1299.6 1536.44 Q1295.24 1536.44 1293.05 1537.77 Q1290.88 1539.11 1290.88 1541.79 Q1290.88 1543.82 1292.44 1545 Q1294 1546.15 1298.71 1547.2 L1300.72 1547.64 Q1306.96 1548.98 1309.57 1551.43 Q1312.21 1553.85 1312.21 1558.21 Q1312.21 1563.17 1308.26 1566.07 Q1304.35 1568.97 1297.47 1568.97 Q1294.61 1568.97 1291.49 1568.39 Q1288.4 1567.85 1284.96 1566.74 L1284.96 1560.69 Q1288.21 1562.38 1291.36 1563.24 Q1294.51 1564.07 1297.6 1564.07 Q1301.74 1564.07 1303.97 1562.66 Q1306.19 1561.23 1306.19 1558.65 Q1306.19 1556.27 1304.57 1554.99 Q1302.98 1553.72 1297.54 1552.54 L1295.5 1552.07 Q1290.06 1550.92 1287.64 1548.56 Q1285.22 1546.18 1285.22 1542.04 Q1285.22 1537.01 1288.78 1534.27 Q1292.35 1531.54 1298.9 1531.54 Q1302.15 1531.54 1305.02 1532.01 Q1307.88 1532.49 1310.3 1533.45 Z" fill="#000000" fill-rule="evenodd" fill-opacity="1" /><path clip-path="url(#clip570)" d="M1335.22 1518.52 L1335.22 1576.64 L1321.73 1576.64 L1321.73 1572.09 L1329.33 1572.09 L1329.33 1523.07 L1321.73 1523.07 L1321.73 1518.52 L1335.22 1518.52 Z" fill="#000000" fill-rule="evenodd" fill-opacity="1" /><polyline clip-path="url(#clip572)" style="stroke:#000000; stroke-linecap:butt; stroke-linejoin:round; stroke-width:2; stroke-opacity:0.1; fill:none" points="
  193.936,1276.04 2352.76,1276.04 
  "/>
<polyline clip-path="url(#clip572)" style="stroke:#000000; stroke-linecap:butt; stroke-linejoin:round; stroke-width:2; stroke-opacity:0.1; fill:none" points="
  193.936,1005.61 2352.76,1005.61 
  "/>
<polyline clip-path="url(#clip572)" style="stroke:#000000; stroke-linecap:butt; stroke-linejoin:round; stroke-width:2; stroke-opacity:0.1; fill:none" points="
  193.936,735.195 2352.76,735.195 
  "/>
<polyline clip-path="url(#clip572)" style="stroke:#000000; stroke-linecap:butt; stroke-linejoin:round; stroke-width:2; stroke-opacity:0.1; fill:none" points="
  193.936,464.774 2352.76,464.774 
  "/>
<polyline clip-path="url(#clip572)" style="stroke:#000000; stroke-linecap:butt; stroke-linejoin:round; stroke-width:2; stroke-opacity:0.1; fill:none" points="
  193.936,194.354 2352.76,194.354 
  "/>
<polyline clip-path="url(#clip570)" style="stroke:#000000; stroke-linecap:butt; stroke-linejoin:round; stroke-width:4; stroke-opacity:1; fill:none" points="
  193.936,1423.18 193.936,47.2441 
  "/>
<polyline clip-path="url(#clip570)" style="stroke:#000000; stroke-linecap:butt; stroke-linejoin:round; stroke-width:4; stroke-opacity:1; fill:none" points="
  193.936,1276.04 219.842,1276.04 
  "/>
<polyline clip-path="url(#clip570)" style="stroke:#000000; stroke-linecap:butt; stroke-linejoin:round; stroke-width:4; stroke-opacity:1; fill:none" points="
  193.936,1005.61 219.842,1005.61 
  "/>
<polyline clip-path="url(#clip570)" style="stroke:#000000; stroke-linecap:butt; stroke-linejoin:round; stroke-width:4; stroke-opacity:1; fill:none" points="
  193.936,735.195 219.842,735.195 
  "/>
<polyline clip-path="url(#clip570)" style="stroke:#000000; stroke-linecap:butt; stroke-linejoin:round; stroke-width:4; stroke-opacity:1; fill:none" points="
  193.936,464.774 219.842,464.774 
  "/>
<polyline clip-path="url(#clip570)" style="stroke:#000000; stroke-linecap:butt; stroke-linejoin:round; stroke-width:4; stroke-opacity:1; fill:none" points="
  193.936,194.354 219.842,194.354 
  "/>
<path clip-path="url(#clip570)" d="M50.9921 1276.49 L80.6679 1276.49 L80.6679 1280.42 L50.9921 1280.42 L50.9921 1276.49 Z" fill="#000000" fill-rule="evenodd" fill-opacity="1" /><path clip-path="url(#clip570)" d="M90.8067 1258.76 L109.163 1258.76 L109.163 1262.69 L95.0891 1262.69 L95.0891 1271.16 Q96.1076 1270.82 97.1261 1270.65 Q98.1447 1270.47 99.1632 1270.47 Q104.95 1270.47 108.33 1273.64 Q111.709 1276.81 111.709 1282.23 Q111.709 1287.81 108.237 1290.91 Q104.765 1293.99 98.4456 1293.99 Q96.2697 1293.99 94.0012 1293.62 Q91.7558 1293.25 89.3484 1292.51 L89.3484 1287.81 Q91.4317 1288.94 93.6539 1289.5 Q95.8761 1290.05 98.353 1290.05 Q102.358 1290.05 104.696 1287.94 Q107.033 1285.84 107.033 1282.23 Q107.033 1278.62 104.696 1276.51 Q102.358 1274.4 98.353 1274.4 Q96.478 1274.4 94.603 1274.82 Q92.7512 1275.24 90.8067 1276.12 L90.8067 1258.76 Z" fill="#000000" fill-rule="evenodd" fill-opacity="1" /><path clip-path="url(#clip570)" d="M120.922 1287.44 L125.807 1287.44 L125.807 1293.32 L120.922 1293.32 L120.922 1287.44 Z" fill="#000000" fill-rule="evenodd" fill-opacity="1" /><path clip-path="url(#clip570)" d="M145.992 1261.83 Q142.381 1261.83 140.552 1265.4 Q138.746 1268.94 138.746 1276.07 Q138.746 1283.18 140.552 1286.74 Q142.381 1290.28 145.992 1290.28 Q149.626 1290.28 151.431 1286.74 Q153.26 1283.18 153.26 1276.07 Q153.26 1268.94 151.431 1265.4 Q149.626 1261.83 145.992 1261.83 M145.992 1258.13 Q151.802 1258.13 154.857 1262.74 Q157.936 1267.32 157.936 1276.07 Q157.936 1284.8 154.857 1289.4 Q151.802 1293.99 145.992 1293.99 Q140.181 1293.99 137.103 1289.4 Q134.047 1284.8 134.047 1276.07 Q134.047 1267.32 137.103 1262.74 Q140.181 1258.13 145.992 1258.13 Z" fill="#000000" fill-rule="evenodd" fill-opacity="1" /><path clip-path="url(#clip570)" d="M51.9875 1006.07 L81.6633 1006.07 L81.6633 1010 L51.9875 1010 L51.9875 1006.07 Z" fill="#000000" fill-rule="evenodd" fill-opacity="1" /><path clip-path="url(#clip570)" d="M95.7836 1018.96 L112.103 1018.96 L112.103 1022.89 L90.1586 1022.89 L90.1586 1018.96 Q92.8206 1016.21 97.4039 1011.58 Q102.01 1006.92 103.191 1005.58 Q105.436 1003.06 106.316 1001.32 Q107.219 999.562 107.219 997.872 Q107.219 995.117 105.274 993.381 Q103.353 991.645 100.251 991.645 Q98.0521 991.645 95.5984 992.409 Q93.1678 993.173 90.3901 994.724 L90.3901 990.002 Q93.2141 988.867 95.6678 988.289 Q98.1215 987.71 100.159 987.71 Q105.529 987.71 108.723 990.395 Q111.918 993.08 111.918 997.571 Q111.918 999.701 111.108 1001.62 Q110.321 1003.52 108.214 1006.11 Q107.635 1006.78 104.534 1010 Q101.432 1013.2 95.7836 1018.96 Z" fill="#000000" fill-rule="evenodd" fill-opacity="1" /><path clip-path="url(#clip570)" d="M121.918 1017.02 L126.802 1017.02 L126.802 1022.89 L121.918 1022.89 L121.918 1017.02 Z" fill="#000000" fill-rule="evenodd" fill-opacity="1" /><path clip-path="url(#clip570)" d="M137.033 988.335 L155.39 988.335 L155.39 992.27 L141.316 992.27 L141.316 1000.74 Q142.334 1000.4 143.353 1000.23 Q144.371 1000.05 145.39 1000.05 Q151.177 1000.05 154.556 1003.22 Q157.936 1006.39 157.936 1011.81 Q157.936 1017.39 154.464 1020.49 Q150.992 1023.57 144.672 1023.57 Q142.496 1023.57 140.228 1023.2 Q137.982 1022.83 135.575 1022.08 L135.575 1017.39 Q137.658 1018.52 139.881 1019.08 Q142.103 1019.63 144.58 1019.63 Q148.584 1019.63 150.922 1017.52 Q153.26 1015.42 153.26 1011.81 Q153.26 1008.2 150.922 1006.09 Q148.584 1003.98 144.58 1003.98 Q142.705 1003.98 140.83 1004.4 Q138.978 1004.82 137.033 1005.7 L137.033 988.335 Z" fill="#000000" fill-rule="evenodd" fill-opacity="1" /><path clip-path="url(#clip570)" d="M100.76 720.993 Q97.1493 720.993 95.3206 724.558 Q93.515 728.1 93.515 735.229 Q93.515 742.336 95.3206 745.9 Q97.1493 749.442 100.76 749.442 Q104.395 749.442 106.2 745.9 Q108.029 742.336 108.029 735.229 Q108.029 728.1 106.2 724.558 Q104.395 720.993 100.76 720.993 M100.76 717.29 Q106.571 717.29 109.626 721.896 Q112.705 726.479 112.705 735.229 Q112.705 743.956 109.626 748.563 Q106.571 753.146 100.76 753.146 Q94.9502 753.146 91.8715 748.563 Q88.816 743.956 88.816 735.229 Q88.816 726.479 91.8715 721.896 Q94.9502 717.29 100.76 717.29 Z" fill="#000000" fill-rule="evenodd" fill-opacity="1" /><path clip-path="url(#clip570)" d="M120.922 746.595 L125.807 746.595 L125.807 752.475 L120.922 752.475 L120.922 746.595 Z" fill="#000000" fill-rule="evenodd" fill-opacity="1" /><path clip-path="url(#clip570)" d="M145.992 720.993 Q142.381 720.993 140.552 724.558 Q138.746 728.1 138.746 735.229 Q138.746 742.336 140.552 745.9 Q142.381 749.442 145.992 749.442 Q149.626 749.442 151.431 745.9 Q153.26 742.336 153.26 735.229 Q153.26 728.1 151.431 724.558 Q149.626 720.993 145.992 720.993 M145.992 717.29 Q151.802 717.29 154.857 721.896 Q157.936 726.479 157.936 735.229 Q157.936 743.956 154.857 748.563 Q151.802 753.146 145.992 753.146 Q140.181 753.146 137.103 748.563 Q134.047 743.956 134.047 735.229 Q134.047 726.479 137.103 721.896 Q140.181 717.29 145.992 717.29 Z" fill="#000000" fill-rule="evenodd" fill-opacity="1" /><path clip-path="url(#clip570)" d="M95.7836 478.119 L112.103 478.119 L112.103 482.054 L90.1586 482.054 L90.1586 478.119 Q92.8206 475.364 97.4039 470.735 Q102.01 466.082 103.191 464.739 Q105.436 462.216 106.316 460.48 Q107.219 458.721 107.219 457.031 Q107.219 454.277 105.274 452.54 Q103.353 450.804 100.251 450.804 Q98.0521 450.804 95.5984 451.568 Q93.1678 452.332 90.3901 453.883 L90.3901 449.161 Q93.2141 448.027 95.6678 447.448 Q98.1215 446.869 100.159 446.869 Q105.529 446.869 108.723 449.554 Q111.918 452.24 111.918 456.73 Q111.918 458.86 111.108 460.781 Q110.321 462.679 108.214 465.272 Q107.635 465.943 104.534 469.161 Q101.432 472.355 95.7836 478.119 Z" fill="#000000" fill-rule="evenodd" fill-opacity="1" /><path clip-path="url(#clip570)" d="M121.918 476.175 L126.802 476.175 L126.802 482.054 L121.918 482.054 L121.918 476.175 Z" fill="#000000" fill-rule="evenodd" fill-opacity="1" /><path clip-path="url(#clip570)" d="M137.033 447.494 L155.39 447.494 L155.39 451.429 L141.316 451.429 L141.316 459.902 Q142.334 459.554 143.353 459.392 Q144.371 459.207 145.39 459.207 Q151.177 459.207 154.556 462.378 Q157.936 465.55 157.936 470.966 Q157.936 476.545 154.464 479.647 Q150.992 482.725 144.672 482.725 Q142.496 482.725 140.228 482.355 Q137.982 481.985 135.575 481.244 L135.575 476.545 Q137.658 477.679 139.881 478.235 Q142.103 478.79 144.58 478.79 Q148.584 478.79 150.922 476.684 Q153.26 474.577 153.26 470.966 Q153.26 467.355 150.922 465.249 Q148.584 463.142 144.58 463.142 Q142.705 463.142 140.83 463.559 Q138.978 463.976 137.033 464.855 L137.033 447.494 Z" fill="#000000" fill-rule="evenodd" fill-opacity="1" /><path clip-path="url(#clip570)" d="M90.8067 177.074 L109.163 177.074 L109.163 181.009 L95.0891 181.009 L95.0891 189.481 Q96.1076 189.134 97.1261 188.972 Q98.1447 188.787 99.1632 188.787 Q104.95 188.787 108.33 191.958 Q111.709 195.129 111.709 200.546 Q111.709 206.125 108.237 209.226 Q104.765 212.305 98.4456 212.305 Q96.2697 212.305 94.0012 211.935 Q91.7558 211.564 89.3484 210.824 L89.3484 206.125 Q91.4317 207.259 93.6539 207.814 Q95.8761 208.37 98.353 208.37 Q102.358 208.37 104.696 206.263 Q107.033 204.157 107.033 200.546 Q107.033 196.935 104.696 194.828 Q102.358 192.722 98.353 192.722 Q96.478 192.722 94.603 193.139 Q92.7512 193.555 90.8067 194.435 L90.8067 177.074 Z" fill="#000000" fill-rule="evenodd" fill-opacity="1" /><path clip-path="url(#clip570)" d="M120.922 205.754 L125.807 205.754 L125.807 211.634 L120.922 211.634 L120.922 205.754 Z" fill="#000000" fill-rule="evenodd" fill-opacity="1" /><path clip-path="url(#clip570)" d="M145.992 180.153 Q142.381 180.153 140.552 183.717 Q138.746 187.259 138.746 194.389 Q138.746 201.495 140.552 205.06 Q142.381 208.601 145.992 208.601 Q149.626 208.601 151.431 205.06 Q153.26 201.495 153.26 194.389 Q153.26 187.259 151.431 183.717 Q149.626 180.153 145.992 180.153 M145.992 176.449 Q151.802 176.449 154.857 181.055 Q157.936 185.639 157.936 194.389 Q157.936 203.115 154.857 207.722 Q151.802 212.305 145.992 212.305 Q140.181 212.305 137.103 207.722 Q134.047 203.115 134.047 194.389 Q134.047 185.639 137.103 181.055 Q140.181 176.449 145.992 176.449 Z" fill="#000000" fill-rule="evenodd" fill-opacity="1" /><polyline clip-path="url(#clip572)" style="stroke:#009af9; stroke-linecap:butt; stroke-linejoin:round; stroke-width:4; stroke-opacity:1; fill:none" points="
  255.035,681.11 260.126,681.078 265.218,680.981 270.309,680.818 275.401,680.592 280.492,680.301 285.584,679.946 290.676,679.527 295.767,679.045 300.859,678.5 
  305.95,677.893 311.042,677.224 316.133,676.494 321.225,675.704 326.316,674.855 331.408,673.947 336.5,672.981 341.591,671.958 346.683,670.88 351.774,669.748 
  356.866,668.561 361.957,667.322 367.049,666.032 372.14,664.692 377.232,663.304 382.324,661.868 387.415,660.387 392.507,658.861 397.598,657.293 402.69,655.683 
  407.781,654.034 412.873,652.348 417.964,650.625 423.056,648.868 428.148,647.078 433.239,645.257 438.331,643.407 443.422,641.53 448.514,639.628 453.605,637.702 
  458.697,635.755 463.788,633.788 468.88,631.803 473.972,629.803 479.063,627.79 484.155,625.765 489.246,623.73 494.338,621.688 499.429,619.64 504.521,617.589 
  509.612,615.536 514.704,613.485 519.796,611.435 524.887,609.391 529.979,607.354 535.07,605.325 540.162,603.307 545.253,601.302 550.345,599.312 555.437,597.339 
  560.528,595.385 565.62,593.451 570.711,591.541 575.803,589.655 580.894,587.795 585.986,585.964 591.077,584.164 596.169,582.395 601.261,580.66 606.352,578.961 
  611.444,577.298 616.535,575.675 621.627,574.093 626.718,572.552 631.81,571.055 636.901,569.603 641.993,568.198 647.085,566.841 652.176,565.533 657.268,564.276 
  662.359,563.071 667.451,561.919 672.542,560.821 677.634,559.779 682.725,558.793 687.817,557.865 692.909,556.995 698,556.184 703.092,555.433 708.183,554.743 
  713.275,554.114 718.366,553.547 723.458,553.044 728.549,552.603 733.641,552.226 738.733,551.913 743.824,551.664 748.916,551.479 754.007,551.36 759.099,551.305 
  764.19,551.315 769.282,551.39 774.373,551.53 779.465,551.735 784.557,552.004 789.648,552.337 794.74,552.734 799.831,553.195 804.923,553.719 810.014,554.305 
  815.106,554.953 820.197,555.662 825.289,556.432 830.381,557.262 835.472,558.15 840.564,559.097 845.655,560.101 850.747,561.161 855.838,562.276 860.93,563.445 
  866.021,564.666 871.113,565.94 876.205,567.263 881.296,568.635 886.388,570.055 891.479,571.522 896.571,573.032 901.662,574.586 906.754,576.182 911.845,577.817 
  916.937,579.491 922.029,581.202 927.12,582.948 932.212,584.727 937.303,586.537 942.395,588.377 947.486,590.245 952.578,592.139 957.669,594.057 962.761,595.997 
  967.853,597.957 972.944,599.936 978.036,601.931 983.127,603.94 988.219,605.962 993.31,607.993 998.402,610.033 1003.49,612.079 1008.59,614.13 1013.68,616.182 
  1018.77,618.234 1023.86,620.285 1028.95,622.331 1034.04,624.371 1039.13,626.403 1044.23,628.425 1049.32,630.435 1054.41,632.43 1059.5,634.409 1064.59,636.37 
  1069.68,638.311 1074.78,640.23 1079.87,642.124 1084.96,643.993 1090.05,645.834 1095.14,647.645 1100.23,649.425 1105.32,651.171 1110.42,652.883 1115.51,654.558 
  1120.6,656.194 1125.69,657.791 1130.78,659.345 1135.87,660.857 1140.97,662.324 1146.06,663.745 1151.15,665.118 1156.24,666.443 1161.33,667.717 1166.42,668.939 
  1171.51,670.109 1176.61,671.225 1181.7,672.286 1186.79,673.291 1191.88,674.239 1196.97,675.128 1202.06,675.959 1207.16,676.73 1212.25,677.441 1217.34,678.09 
  1222.43,678.677 1227.52,679.202 1232.61,679.664 1237.71,680.062 1242.8,680.397 1247.89,680.668 1252.98,680.874 1258.07,681.015 1263.16,681.091 1268.25,681.103 
  1273.35,681.049 1278.44,680.931 1283.53,680.748 1288.62,680.501 1293.71,680.19 1298.8,679.814 1303.9,679.374 1308.99,678.872 1314.08,678.307 1319.17,677.679 
  1324.26,676.991 1329.35,676.242 1334.44,675.432 1339.54,674.563 1344.63,673.636 1349.72,672.651 1354.81,671.611 1359.9,670.514 1364.99,669.364 1370.09,668.16 
  1375.18,666.904 1380.27,665.598 1385.36,664.242 1390.45,662.838 1395.54,661.387 1400.63,659.892 1405.73,658.353 1410.82,656.771 1415.91,655.149 1421,653.488 
  1426.09,651.79 1431.18,650.056 1436.28,648.289 1441.37,646.489 1446.46,644.659 1451.55,642.801 1456.64,640.916 1461.73,639.007 1466.83,637.074 1471.92,635.121 
  1477.01,633.149 1482.1,631.16 1487.19,629.156 1492.28,627.139 1497.37,625.111 1502.47,623.074 1507.56,621.031 1512.65,618.982 1517.74,616.931 1522.83,614.879 
  1527.92,612.829 1533.02,610.782 1538.11,608.74 1543.2,606.706 1548.29,604.681 1553.38,602.668 1558.47,600.668 1563.56,598.684 1568.66,596.718 1573.75,594.771 
  1578.84,592.845 1583.93,590.943 1589.02,589.067 1594.11,587.217 1599.21,585.396 1604.3,583.606 1609.39,581.849 1614.48,580.126 1619.57,578.44 1624.66,576.791 
  1629.75,575.181 1634.85,573.613 1639.94,572.087 1645.03,570.605 1650.12,569.169 1655.21,567.78 1660.3,566.439 1665.4,565.148 1670.49,563.909 1675.58,562.721 
  1680.67,561.587 1685.76,560.508 1690.85,559.484 1695.95,558.518 1701.04,557.608 1706.13,556.758 1711.22,555.967 1716.31,555.236 1721.4,554.566 1726.49,553.958 
  1731.59,553.412 1736.68,552.929 1741.77,552.509 1746.86,552.153 1751.95,551.861 1757.04,551.633 1762.14,551.47 1767.23,551.371 1772.32,551.338 1777.41,551.369 
  1782.5,551.466 1787.59,551.626 1792.68,551.852 1797.78,552.142 1802.87,552.495 1807.96,552.913 1813.05,553.394 1818.14,553.938 1823.23,554.544 1828.33,555.212 
  1833.42,555.94 1838.51,556.729 1843.6,557.578 1848.69,558.485 1853.78,559.45 1858.87,560.471 1863.97,561.549 1869.06,562.68 1874.15,563.866 1879.24,565.103 
  1884.33,566.392 1889.42,567.731 1894.52,569.118 1899.61,570.553 1904.7,572.033 1909.79,573.557 1914.88,575.123 1919.97,576.731 1925.07,578.378 1930.16,580.063 
  1935.25,581.785 1940.34,583.54 1945.43,585.329 1950.52,587.148 1955.61,588.996 1960.71,590.871 1965.8,592.772 1970.89,594.696 1975.98,596.642 1981.07,598.607 
  1986.16,600.59 1991.26,602.588 1996.35,604.6 2001.44,606.624 2006.53,608.657 2011.62,610.698 2016.71,612.744 2021.8,614.794 2026.9,616.845 2031.99,618.895 
  2037.08,620.943 2042.17,622.986 2047.26,625.022 2052.35,627.049 2057.45,629.066 2062.54,631.069 2067.63,633.058 2072.72,635.03 2077.81,636.983 2082.9,638.915 
  2087.99,640.824 2093.09,642.709 2098.18,644.568 2103.27,646.398 2108.36,648.198 2113.45,649.965 2118.54,651.699 2123.64,653.398 2128.73,655.059 2133.82,656.682 
  2138.91,658.263 2144,659.803 2149.09,661.3 2154.19,662.751 2159.28,664.155 2164.37,665.512 2169.46,666.819 2174.55,668.076 2179.64,669.281 2184.73,670.433 
  2189.83,671.53 2194.92,672.573 2200.01,673.558 2205.1,674.487 2210.19,675.357 2215.28,676.168 2220.38,676.919 2225.47,677.609 2230.56,678.238 2235.65,678.805 
  2240.74,679.309 2245.83,679.75 2250.92,680.128 2256.02,680.442 2261.11,680.691 2266.2,680.876 2271.29,680.997 2276.38,681.052 2281.47,681.043 2286.57,680.969 
  2291.66,680.83 
  "/>
<polyline clip-path="url(#clip572)" style="stroke:#e26f46; stroke-linecap:butt; stroke-linejoin:round; stroke-width:4; stroke-opacity:1; fill:none" points="
  255.035,735.195 260.126,728.706 265.218,722.224 270.309,715.754 275.401,709.304 280.492,702.88 285.584,696.488 290.676,690.135 295.767,683.826 300.859,677.569 
  305.95,671.37 311.042,665.234 316.133,659.169 321.225,653.179 326.316,647.271 331.408,641.451 336.5,635.725 341.591,630.098 346.683,624.576 351.774,619.164 
  356.866,613.868 361.957,608.694 367.049,603.646 372.14,598.73 377.232,593.95 382.324,589.312 387.415,584.819 392.507,580.477 397.598,576.29 402.69,572.261 
  407.781,568.396 412.873,564.697 417.964,561.169 423.056,557.815 428.148,554.638 433.239,551.642 438.331,548.829 443.422,546.203 448.514,543.766 453.605,541.52 
  458.697,539.468 463.788,537.611 468.88,535.952 473.972,534.493 479.063,533.234 484.155,532.177 489.246,531.323 494.338,530.673 499.429,530.227 504.521,529.986 
  509.612,529.951 514.704,530.121 519.796,530.496 524.887,531.076 529.979,531.859 535.07,532.846 540.162,534.036 545.253,535.426 550.345,537.017 555.437,538.805 
  560.528,540.79 565.62,542.97 570.711,545.341 575.803,547.903 580.894,550.652 585.986,553.585 591.077,556.7 596.169,559.993 601.261,563.462 606.352,567.102 
  611.444,570.911 616.535,574.883 621.627,579.016 626.718,583.306 631.81,587.747 636.901,592.335 641.993,597.067 647.085,601.936 652.176,606.939 657.268,612.07 
  662.359,617.325 667.451,622.697 672.542,628.181 677.634,633.773 682.725,639.466 687.817,645.255 692.909,651.134 698,657.096 703.092,663.137 708.183,669.25 
  713.275,675.429 718.366,681.668 723.458,687.96 728.549,694.299 733.641,700.68 738.733,707.095 743.824,713.537 748.916,720.002 754.007,726.482 759.099,732.971 
  764.19,739.461 769.282,745.948 774.373,752.424 779.465,758.882 784.557,765.317 789.648,771.722 794.74,778.09 799.831,784.415 804.923,790.691 810.014,796.912 
  815.106,803.071 820.197,809.162 825.289,815.179 830.381,821.116 835.472,826.968 840.564,832.728 845.655,838.391 850.747,843.95 855.838,849.4 860.93,854.736 
  866.021,859.953 871.113,865.045 876.205,870.007 881.296,874.833 886.388,879.52 891.479,884.062 896.571,888.456 901.662,892.696 906.754,896.779 911.845,900.7 
  916.937,904.455 922.029,908.042 927.12,911.455 932.212,914.693 937.303,917.75 942.395,920.626 947.486,923.316 952.578,925.818 957.669,928.129 962.761,930.247 
  967.853,932.171 972.944,933.897 978.036,935.425 983.127,936.753 988.219,937.879 993.31,938.802 998.402,939.522 1003.49,940.037 1008.59,940.348 1013.68,940.453 
  1018.77,940.353 1023.86,940.047 1028.95,939.537 1034.04,938.822 1039.13,937.904 1044.23,936.783 1049.32,935.46 1054.41,933.938 1059.5,932.216 1064.59,930.296 
  1069.68,928.182 1074.78,925.875 1079.87,923.376 1084.96,920.69 1090.05,917.819 1095.14,914.765 1100.23,911.531 1105.32,908.121 1110.42,904.537 1115.51,900.785 
  1120.6,896.866 1125.69,892.787 1130.78,888.55 1135.87,884.16 1140.97,879.62 1146.06,874.936 1151.15,870.112 1156.24,865.154 1161.33,860.065 1166.42,854.852 
  1171.51,849.52 1176.61,844.073 1181.7,838.517 1186.79,832.858 1191.88,827.101 1196.97,821.252 1202.06,815.318 1207.16,809.303 1212.25,803.215 1217.34,797.058 
  1222.43,790.84 1227.52,784.565 1232.61,778.242 1237.71,771.875 1242.8,765.472 1247.89,759.039 1252.98,752.582 1258.07,746.107 1263.16,739.622 1268.25,733.132 
  1273.35,726.644 1278.44,720.165 1283.53,713.701 1288.62,707.259 1293.71,700.845 1298.8,694.465 1303.9,688.125 1308.99,681.833 1314.08,675.594 1319.17,669.415 
  1324.26,663.302 1329.35,657.261 1334.44,651.297 1339.54,645.418 1344.63,639.628 1349.72,633.934 1354.81,628.342 1359.9,622.856 1364.99,617.483 1370.09,612.227 
  1375.18,607.095 1380.27,602.09 1385.36,597.219 1390.45,592.486 1395.54,587.895 1400.63,583.452 1405.73,579.161 1410.82,575.025 1415.91,571.05 1421,567.24 
  1426.09,563.597 1431.18,560.126 1436.28,556.83 1441.37,553.712 1446.46,550.775 1451.55,548.024 1456.64,545.459 1461.73,543.085 1466.83,540.902 1471.92,538.914 
  1477.01,537.122 1482.1,535.528 1487.19,534.133 1492.28,532.94 1497.37,531.949 1502.47,531.162 1507.56,530.578 1512.65,530.199 1517.74,530.025 1522.83,530.056 
  1527.92,530.292 1533.02,530.734 1538.11,531.38 1543.2,532.23 1548.29,533.282 1553.38,534.537 1558.47,535.992 1563.56,537.646 1568.66,539.497 1573.75,541.545 
  1578.84,543.787 1583.93,546.22 1589.02,548.841 1594.11,551.649 1599.21,554.64 1604.3,557.812 1609.39,561.161 1614.48,564.685 1619.57,568.379 1624.66,572.24 
  1629.75,576.264 1634.85,580.446 1639.94,584.783 1645.03,589.27 1650.12,593.904 1655.21,598.679 1660.3,603.59 1665.4,608.634 1670.49,613.803 1675.58,619.094 
  1680.67,624.5 1685.76,630.017 1690.85,635.64 1695.95,641.362 1701.04,647.178 1706.13,653.082 1711.22,659.068 1716.31,665.13 1721.4,671.262 1726.49,677.458 
  1731.59,683.712 1736.68,690.017 1741.77,696.367 1746.86,702.756 1751.95,709.178 1757.04,715.625 1762.14,722.091 1767.23,728.571 1772.32,735.058 1777.41,741.545 
  1782.5,748.025 1787.59,754.492 1792.68,760.94 1797.78,767.362 1802.87,773.752 1807.96,780.104 1813.05,786.41 1818.14,792.665 1823.23,798.863 1828.33,804.997 
  1833.42,811.061 1838.51,817.049 1843.6,822.955 1848.69,828.773 1853.78,834.498 1858.87,840.123 1863.97,845.644 1869.06,851.054 1874.15,856.348 1879.24,861.521 
  1884.33,866.567 1889.42,871.482 1894.52,876.26 1899.61,880.898 1904.7,885.39 1909.79,889.731 1914.88,893.919 1919.97,897.947 1925.07,901.812 1930.16,905.511 
  1935.25,909.039 1940.34,912.394 1945.43,915.571 1950.52,918.568 1955.61,921.382 1960.71,924.009 1965.8,926.448 1970.89,928.695 1975.98,930.748 1981.07,932.606 
  1986.16,934.267 1991.26,935.728 1996.35,936.99 2001.44,938.049 2006.53,938.905 2011.62,939.557 2016.71,940.005 2021.8,940.248 2026.9,940.287 2031.99,940.12 
  2037.08,939.749 2042.17,939.172 2047.26,938.392 2052.35,937.408 2057.45,936.222 2062.54,934.835 2067.63,933.249 2072.72,931.465 2077.81,929.485 2082.9,927.309 
  2087.99,924.942 2093.09,922.385 2098.18,919.641 2103.27,916.712 2108.36,913.602 2113.45,910.314 2118.54,906.851 2123.64,903.216 2128.73,899.412 2133.82,895.445 
  2138.91,891.317 2144,887.034 2149.09,882.598 2154.19,878.016 2159.28,873.29 2164.37,868.427 2169.46,863.429 2174.55,858.304 2179.64,853.056 2184.73,847.69 
  2189.83,842.212 2194.92,836.627 2200.01,830.94 2205.1,825.157 2210.19,819.284 2215.28,813.328 2220.38,807.293 2225.47,801.186 2230.56,795.014 2235.65,788.782 
  2240.74,782.496 2245.83,776.163 2250.92,769.788 2256.02,763.38 2261.11,756.943 2266.2,750.484 2271.29,744.011 2276.38,737.529 2281.47,731.044 2286.57,724.564 
  2291.66,718.094 
  "/>
<polyline clip-path="url(#clip572)" style="stroke:#3da44d; stroke-linecap:butt; stroke-linejoin:round; stroke-width:4; stroke-opacity:1; fill:none" points="
  255.035,86.1857 260.126,86.5121 265.218,87.4852 270.309,89.1057 275.401,91.3722 280.492,94.2819 285.584,97.832 290.676,102.019 295.767,106.839 300.859,112.288 
  305.95,118.359 311.042,125.048 316.133,132.345 321.225,140.247 326.316,148.741 331.408,157.821 336.5,167.478 341.591,177.705 346.683,188.486 351.774,199.814 
  356.866,211.679 361.957,224.07 367.049,236.97 372.14,250.369 377.232,264.253 382.324,278.61 387.415,293.424 392.507,308.68 397.598,324.363 402.69,340.457 
  407.781,356.946 412.873,373.813 417.964,391.042 423.056,408.614 428.148,426.514 433.239,444.722 438.331,463.221 443.422,481.991 448.514,501.015 453.605,520.272 
  458.697,539.745 463.788,559.413 468.88,579.256 473.972,599.256 479.063,619.392 484.155,639.643 489.246,659.99 494.338,680.413 499.429,700.89 504.521,721.401 
  509.612,741.926 514.704,762.445 519.796,782.936 524.887,803.38 529.979,823.755 535.07,844.042 540.162,864.22 545.253,884.269 550.345,904.169 555.437,923.9 
  560.528,943.442 565.62,962.776 570.711,981.883 575.803,1000.74 580.894,1019.34 585.986,1037.65 591.077,1055.65 596.169,1073.34 601.261,1090.69 606.352,1107.68 
  611.444,1124.31 616.535,1140.54 621.627,1156.36 626.718,1171.77 631.81,1186.74 636.901,1201.26 641.993,1215.31 647.085,1228.88 652.176,1241.96 657.268,1254.53 
  662.359,1266.58 667.451,1278.1 672.542,1289.08 677.634,1299.5 682.725,1309.36 687.817,1318.64 692.909,1327.34 698,1335.45 703.092,1342.96 708.183,1349.86 
  713.275,1356.15 718.366,1361.82 723.458,1366.85 728.549,1371.26 733.641,1375.03 738.733,1378.16 743.824,1380.65 748.916,1382.5 754.007,1383.69 759.099,1384.24 
  764.19,1384.14 769.282,1383.39 774.373,1381.99 779.465,1379.94 784.557,1377.25 789.648,1373.92 794.74,1369.95 799.831,1365.34 804.923,1360.1 810.014,1354.24 
  815.106,1347.76 820.197,1340.67 825.289,1332.97 830.381,1324.67 835.472,1315.79 840.564,1306.32 845.655,1296.28 850.747,1285.68 855.838,1274.53 860.93,1262.84 
  866.021,1250.63 871.113,1237.89 876.205,1224.66 881.296,1210.94 886.388,1196.74 891.479,1182.08 896.571,1166.97 901.662,1151.43 906.754,1135.47 911.845,1119.12 
  916.937,1102.38 922.029,1085.27 927.12,1067.81 932.212,1050.02 937.303,1031.92 942.395,1013.52 947.486,994.838 952.578,975.9 957.669,956.72 962.761,937.319 
  967.853,917.715 972.944,897.93 978.036,877.981 983.127,857.89 988.219,837.675 993.31,817.358 998.402,796.958 1003.49,776.497 1008.59,755.995 1013.68,735.472 
  1018.77,714.949 1023.86,694.445 1028.95,673.981 1034.04,653.579 1039.13,633.258 1044.23,613.04 1049.32,592.944 1054.41,572.991 1059.5,553.199 1064.59,533.589 
  1069.68,514.181 1074.78,494.994 1079.87,476.048 1084.96,457.361 1090.05,438.952 1095.14,420.841 1100.23,403.043 1105.32,385.578 1110.42,368.462 1115.51,351.714 
  1120.6,335.349 1125.69,319.385 1130.78,303.836 1135.87,288.719 1140.97,274.049 1146.06,259.841 1151.15,246.108 1156.24,232.865 1161.33,220.124 1166.42,207.897 
  1171.51,196.198 1176.61,185.038 1181.7,174.429 1186.79,164.381 1191.88,154.905 1196.97,146.008 1202.06,137.7 1207.16,129.989 1212.25,122.883 1217.34,116.39 
  1222.43,110.517 1227.52,105.269 1232.61,100.65 1237.71,96.6656 1242.8,93.3193 1247.89,90.6143 1252.98,88.5535 1258.07,87.1413 1263.16,86.3772 1268.25,86.2619 
  1273.35,86.7954 1278.44,87.9771 1283.53,89.8054 1288.62,92.2782 1293.71,95.3945 1298.8,99.1522 1303.9,103.546 1308.99,108.571 1314.08,114.223 1319.17,120.495 
  1324.26,127.382 1329.35,134.875 1334.44,142.97 1339.54,151.658 1344.63,160.93 1349.72,170.775 1354.81,181.185 1359.9,192.149 1364.99,203.654 1370.09,215.69 
  1375.18,228.248 1380.27,241.313 1385.36,254.872 1390.45,268.911 1395.54,283.416 1400.63,298.371 1405.73,313.763 1410.82,329.576 1415.91,345.796 1421,362.406 
  1426.09,379.388 1431.18,396.726 1436.28,414.402 1441.37,432.398 1446.46,450.696 1451.55,469.279 1456.64,488.128 1461.73,507.225 1466.83,526.55 1471.92,546.082 
  1477.01,565.804 1482.1,585.694 1487.19,605.733 1492.28,625.902 1497.37,646.181 1502.47,666.549 1507.56,686.985 1512.65,707.469 1517.74,727.98 1522.83,748.498 
  1527.92,769.003 1533.02,789.474 1538.11,809.891 1543.2,830.233 1548.29,850.48 1553.38,870.611 1558.47,890.607 1563.56,910.446 1568.66,930.111 1573.75,949.58 
  1578.84,968.835 1583.93,987.857 1589.02,1006.62 1594.11,1025.12 1599.21,1043.33 1604.3,1061.23 1609.39,1078.8 1614.48,1096.03 1619.57,1112.89 1624.66,1129.38 
  1629.75,1145.48 1634.85,1161.16 1639.94,1176.42 1645.03,1191.24 1650.12,1205.6 1655.21,1219.49 1660.3,1232.9 1665.4,1245.81 1670.49,1258.2 1675.58,1270.08 
  1680.67,1281.42 1685.76,1292.21 1690.85,1302.45 1695.95,1312.12 1701.04,1321.21 1706.13,1329.71 1711.22,1337.62 1716.31,1344.93 1721.4,1351.63 1726.49,1357.71 
  1731.59,1363.17 1736.68,1368 1741.77,1372.2 1746.86,1375.76 1751.95,1378.68 1757.04,1380.96 1762.14,1382.59 1767.23,1383.58 1772.32,1383.91 1777.41,1383.6 
  1782.5,1382.64 1787.59,1381.03 1792.68,1378.77 1797.78,1375.87 1802.87,1372.34 1807.96,1368.16 1813.05,1363.35 1818.14,1357.91 1823.23,1351.85 1828.33,1345.17 
  1833.42,1337.89 1838.51,1330 1843.6,1321.51 1848.69,1312.44 1853.78,1302.79 1858.87,1292.58 1863.97,1281.8 1869.06,1270.49 1874.15,1258.63 1879.24,1246.26 
  1884.33,1233.37 1889.42,1219.98 1894.52,1206.11 1899.61,1191.76 1904.7,1176.96 1909.79,1161.72 1914.88,1146.06 1919.97,1129.98 1925.07,1113.51 1930.16,1096.66 
  1935.25,1079.44 1940.34,1061.89 1945.43,1044 1950.52,1025.81 1955.61,1007.33 1960.71,988.579 1965.8,969.571 1970.89,950.329 1975.98,930.872 1981.07,911.22 
  1986.16,891.392 1991.26,871.408 1996.35,851.29 2001.44,831.054 2006.53,810.722 2011.62,790.314 2016.71,769.852 2021.8,749.355 2026.9,728.845 2031.99,708.341 
  2037.08,687.865 2042.17,667.435 2047.26,647.073 2052.35,626.8 2057.45,606.635 2062.54,586.599 2067.63,566.712 2072.72,546.993 2077.81,527.463 2082.9,508.141 
  2087.99,489.046 2093.09,470.197 2098.18,451.613 2103.27,433.313 2108.36,415.315 2113.45,397.637 2118.54,380.297 2123.64,363.312 2128.73,346.699 2133.82,330.475 
  2138.91,314.656 2144,299.257 2149.09,284.294 2154.19,269.782 2159.28,255.736 2164.37,242.169 2169.46,229.096 2174.55,216.529 2179.64,204.481 2184.73,192.963 
  2189.83,181.988 2194.92,171.565 2200.01,161.707 2205.1,152.423 2210.19,143.722 2215.28,135.612 2220.38,128.102 2225.47,121.198 2230.56,114.908 2235.65,109.239 
  2240.74,104.196 2245.83,99.7854 2250.92,96.0098 2256.02,92.8732 2261.11,90.3787 2266.2,88.5284 2271.29,87.3239 2276.38,86.7676 2281.47,86.8599 2286.57,87.6003 
  2291.66,88.9879 
  "/>
<path clip-path="url(#clip570)" d="
M1557.04 335.029 L2280.8 335.029 L2280.8 93.1086 L1557.04 93.1086  Z
  " fill="#ffffff" fill-rule="evenodd" fill-opacity="1"/>
<polyline clip-path="url(#clip570)" style="stroke:#000000; stroke-linecap:butt; stroke-linejoin:round; stroke-width:4; stroke-opacity:1; fill:none" points="
  1557.04,335.029 2280.8,335.029 2280.8,93.1086 1557.04,93.1086 1557.04,335.029 
  "/>
<polyline clip-path="url(#clip570)" style="stroke:#009af9; stroke-linecap:butt; stroke-linejoin:round; stroke-width:4; stroke-opacity:1; fill:none" points="
  1581.03,153.589 1724.95,153.589 
  "/>
<path clip-path="url(#clip570)" d="M1769.28 149.92 Q1770.88 147.049 1773.1 145.684 Q1775.32 144.318 1778.33 144.318 Q1782.38 144.318 1784.58 147.165 Q1786.78 149.989 1786.78 155.221 L1786.78 170.869 L1782.5 170.869 L1782.5 155.359 Q1782.5 151.633 1781.18 149.827 Q1779.86 148.022 1777.15 148.022 Q1773.84 148.022 1771.92 150.221 Q1770 152.42 1770 156.216 L1770 170.869 L1765.72 170.869 L1765.72 155.359 Q1765.72 151.609 1764.4 149.827 Q1763.08 148.022 1760.32 148.022 Q1757.06 148.022 1755.14 150.244 Q1753.22 152.443 1753.22 156.216 L1753.22 170.869 L1748.94 170.869 L1748.94 144.943 L1753.22 144.943 L1753.22 148.971 Q1754.68 146.586 1756.71 145.452 Q1758.75 144.318 1761.55 144.318 Q1764.37 144.318 1766.34 145.753 Q1768.33 147.188 1769.28 149.92 Z" fill="#000000" fill-rule="evenodd" fill-opacity="1" /><path clip-path="url(#clip570)" d="M1807.06 157.836 Q1801.9 157.836 1799.91 159.017 Q1797.92 160.197 1797.92 163.045 Q1797.92 165.313 1799.4 166.656 Q1800.9 167.975 1803.47 167.975 Q1807.01 167.975 1809.14 165.475 Q1811.3 162.952 1811.3 158.785 L1811.3 157.836 L1807.06 157.836 M1815.56 156.077 L1815.56 170.869 L1811.3 170.869 L1811.3 166.933 Q1809.84 169.295 1807.66 170.429 Q1805.49 171.54 1802.34 171.54 Q1798.36 171.54 1796 169.318 Q1793.66 167.072 1793.66 163.322 Q1793.66 158.947 1796.57 156.725 Q1799.51 154.503 1805.32 154.503 L1811.3 154.503 L1811.3 154.086 Q1811.3 151.147 1809.35 149.549 Q1807.43 147.929 1803.93 147.929 Q1801.71 147.929 1799.61 148.461 Q1797.5 148.994 1795.56 150.059 L1795.56 146.123 Q1797.89 145.221 1800.09 144.781 Q1802.29 144.318 1804.37 144.318 Q1810 144.318 1812.78 147.234 Q1815.56 150.151 1815.56 156.077 Z" fill="#000000" fill-rule="evenodd" fill-opacity="1" /><path clip-path="url(#clip570)" d="M1840.86 145.707 L1840.86 149.734 Q1839.05 148.809 1837.11 148.346 Q1835.16 147.883 1833.08 147.883 Q1829.91 147.883 1828.31 148.855 Q1826.74 149.827 1826.74 151.771 Q1826.74 153.253 1827.87 154.109 Q1829 154.943 1832.43 155.707 L1833.89 156.031 Q1838.43 157.003 1840.32 158.785 Q1842.24 160.545 1842.24 163.716 Q1842.24 167.327 1839.37 169.433 Q1836.53 171.54 1831.53 171.54 Q1829.44 171.54 1827.18 171.123 Q1824.93 170.73 1822.43 169.92 L1822.43 165.521 Q1824.79 166.748 1827.08 167.373 Q1829.37 167.975 1831.62 167.975 Q1834.63 167.975 1836.25 166.957 Q1837.87 165.915 1837.87 164.04 Q1837.87 162.304 1836.69 161.378 Q1835.53 160.452 1831.57 159.596 L1830.09 159.248 Q1826.13 158.415 1824.37 156.702 Q1822.62 154.966 1822.62 151.957 Q1822.62 148.299 1825.21 146.309 Q1827.8 144.318 1832.57 144.318 Q1834.93 144.318 1837.01 144.665 Q1839.1 145.012 1840.86 145.707 Z" fill="#000000" fill-rule="evenodd" fill-opacity="1" /><path clip-path="url(#clip570)" d="M1865.55 145.707 L1865.55 149.734 Q1863.75 148.809 1861.8 148.346 Q1859.86 147.883 1857.78 147.883 Q1854.61 147.883 1853.01 148.855 Q1851.43 149.827 1851.43 151.771 Q1851.43 153.253 1852.57 154.109 Q1853.7 154.943 1857.13 155.707 L1858.59 156.031 Q1863.12 157.003 1865.02 158.785 Q1866.94 160.545 1866.94 163.716 Q1866.94 167.327 1864.07 169.433 Q1861.23 171.54 1856.23 171.54 Q1854.14 171.54 1851.87 171.123 Q1849.63 170.73 1847.13 169.92 L1847.13 165.521 Q1849.49 166.748 1851.78 167.373 Q1854.07 167.975 1856.32 167.975 Q1859.33 167.975 1860.95 166.957 Q1862.57 165.915 1862.57 164.04 Q1862.57 162.304 1861.39 161.378 Q1860.23 160.452 1856.27 159.596 L1854.79 159.248 Q1850.83 158.415 1849.07 156.702 Q1847.31 154.966 1847.31 151.957 Q1847.31 148.299 1849.91 146.309 Q1852.5 144.318 1857.27 144.318 Q1859.63 144.318 1861.71 144.665 Q1863.8 145.012 1865.55 145.707 Z" fill="#000000" fill-rule="evenodd" fill-opacity="1" /><path clip-path="url(#clip570)" d="M1874.33 164.989 L1879.21 164.989 L1879.21 170.869 L1874.33 170.869 L1874.33 164.989 Z" fill="#000000" fill-rule="evenodd" fill-opacity="1" /><path clip-path="url(#clip570)" d="M1905.32 145.707 L1905.32 149.734 Q1903.52 148.809 1901.57 148.346 Q1899.63 147.883 1897.55 147.883 Q1894.37 147.883 1892.78 148.855 Q1891.2 149.827 1891.2 151.771 Q1891.2 153.253 1892.34 154.109 Q1893.47 154.943 1896.9 155.707 L1898.36 156.031 Q1902.89 157.003 1904.79 158.785 Q1906.71 160.545 1906.71 163.716 Q1906.71 167.327 1903.84 169.433 Q1900.99 171.54 1895.99 171.54 Q1893.91 171.54 1891.64 171.123 Q1889.4 170.73 1886.9 169.92 L1886.9 165.521 Q1889.26 166.748 1891.55 167.373 Q1893.84 167.975 1896.09 167.975 Q1899.1 167.975 1900.72 166.957 Q1902.34 165.915 1902.34 164.04 Q1902.34 162.304 1901.16 161.378 Q1900 160.452 1896.04 159.596 L1894.56 159.248 Q1890.6 158.415 1888.84 156.702 Q1887.08 154.966 1887.08 151.957 Q1887.08 148.299 1889.68 146.309 Q1892.27 144.318 1897.04 144.318 Q1899.4 144.318 1901.48 144.665 Q1903.56 145.012 1905.32 145.707 Z" fill="#000000" fill-rule="evenodd" fill-opacity="1" /><path clip-path="url(#clip570)" d="M1938.8 134.897 Q1935.69 140.221 1934.19 145.429 Q1932.68 150.637 1932.68 155.984 Q1932.68 161.332 1934.19 166.586 Q1935.72 171.818 1938.8 177.119 L1935.09 177.119 Q1931.62 171.679 1929.88 166.424 Q1928.17 161.17 1928.17 155.984 Q1928.17 150.822 1929.88 145.591 Q1931.6 140.36 1935.09 134.897 L1938.8 134.897 Z" fill="#000000" fill-rule="evenodd" fill-opacity="1" /><path clip-path="url(#clip570)" d="M1961.83 152.234 Q1965.18 152.952 1967.06 155.221 Q1968.96 157.489 1968.96 160.822 Q1968.96 165.938 1965.44 168.739 Q1961.92 171.54 1955.44 171.54 Q1953.26 171.54 1950.95 171.1 Q1948.66 170.683 1946.2 169.827 L1946.2 165.313 Q1948.15 166.447 1950.46 167.026 Q1952.78 167.605 1955.3 167.605 Q1959.7 167.605 1961.99 165.869 Q1964.3 164.133 1964.3 160.822 Q1964.3 157.767 1962.15 156.054 Q1960.02 154.318 1956.2 154.318 L1952.17 154.318 L1952.17 150.475 L1956.39 150.475 Q1959.84 150.475 1961.67 149.109 Q1963.49 147.721 1963.49 145.128 Q1963.49 142.466 1961.6 141.054 Q1959.72 139.619 1956.2 139.619 Q1954.28 139.619 1952.08 140.035 Q1949.88 140.452 1947.24 141.332 L1947.24 137.165 Q1949.91 136.424 1952.22 136.054 Q1954.56 135.684 1956.62 135.684 Q1961.94 135.684 1965.05 138.114 Q1968.15 140.522 1968.15 144.642 Q1968.15 147.512 1966.5 149.503 Q1964.86 151.471 1961.83 152.234 Z" fill="#000000" fill-rule="evenodd" fill-opacity="1" /><path clip-path="url(#clip570)" d="M1991.99 152.234 Q1995.35 152.952 1997.22 155.221 Q1999.12 157.489 1999.12 160.822 Q1999.12 165.938 1995.6 168.739 Q1992.08 171.54 1985.6 171.54 Q1983.42 171.54 1981.11 171.1 Q1978.82 170.683 1976.36 169.827 L1976.36 165.313 Q1978.31 166.447 1980.62 167.026 Q1982.94 167.605 1985.46 167.605 Q1989.86 167.605 1992.15 165.869 Q1994.47 164.133 1994.47 160.822 Q1994.47 157.767 1992.31 156.054 Q1990.18 154.318 1986.36 154.318 L1982.34 154.318 L1982.34 150.475 L1986.55 150.475 Q1990 150.475 1991.83 149.109 Q1993.66 147.721 1993.66 145.128 Q1993.66 142.466 1991.76 141.054 Q1989.88 139.619 1986.36 139.619 Q1984.44 139.619 1982.24 140.035 Q1980.05 140.452 1977.41 141.332 L1977.41 137.165 Q1980.07 136.424 1982.38 136.054 Q1984.72 135.684 1986.78 135.684 Q1992.11 135.684 1995.21 138.114 Q1998.31 140.522 1998.31 144.642 Q1998.31 147.512 1996.67 149.503 Q1995.02 151.471 1991.99 152.234 Z" fill="#000000" fill-rule="evenodd" fill-opacity="1" /><path clip-path="url(#clip570)" d="M2008.03 136.309 L2026.39 136.309 L2026.39 140.244 L2012.31 140.244 L2012.31 148.716 Q2013.33 148.369 2014.35 148.207 Q2015.37 148.022 2016.39 148.022 Q2022.17 148.022 2025.55 151.193 Q2028.93 154.364 2028.93 159.781 Q2028.93 165.359 2025.46 168.461 Q2021.99 171.54 2015.67 171.54 Q2013.49 171.54 2011.23 171.17 Q2008.98 170.799 2006.57 170.058 L2006.57 165.359 Q2008.66 166.494 2010.88 167.049 Q2013.1 167.605 2015.58 167.605 Q2019.58 167.605 2021.92 165.498 Q2024.26 163.392 2024.26 159.781 Q2024.26 156.17 2021.92 154.063 Q2019.58 151.957 2015.58 151.957 Q2013.7 151.957 2011.83 152.373 Q2009.98 152.79 2008.03 153.67 L2008.03 136.309 Z" fill="#000000" fill-rule="evenodd" fill-opacity="1" /><path clip-path="url(#clip570)" d="M2038.19 136.309 L2056.55 136.309 L2056.55 140.244 L2042.48 140.244 L2042.48 148.716 Q2043.49 148.369 2044.51 148.207 Q2045.53 148.022 2046.55 148.022 Q2052.34 148.022 2055.72 151.193 Q2059.1 154.364 2059.1 159.781 Q2059.1 165.359 2055.62 168.461 Q2052.15 171.54 2045.83 171.54 Q2043.66 171.54 2041.39 171.17 Q2039.14 170.799 2036.73 170.058 L2036.73 165.359 Q2038.82 166.494 2041.04 167.049 Q2043.26 167.605 2045.74 167.605 Q2049.74 167.605 2052.08 165.498 Q2054.42 163.392 2054.42 159.781 Q2054.42 156.17 2052.08 154.063 Q2049.74 151.957 2045.74 151.957 Q2043.86 151.957 2041.99 152.373 Q2040.14 152.79 2038.19 153.67 L2038.19 136.309 Z" fill="#000000" fill-rule="evenodd" fill-opacity="1" /><path clip-path="url(#clip570)" d="M2081.16 140.383 L2069.35 158.832 L2081.16 158.832 L2081.16 140.383 M2079.93 136.309 L2085.81 136.309 L2085.81 158.832 L2090.74 158.832 L2090.74 162.721 L2085.81 162.721 L2085.81 170.869 L2081.16 170.869 L2081.16 162.721 L2065.55 162.721 L2065.55 158.207 L2079.93 136.309 Z" fill="#000000" fill-rule="evenodd" fill-opacity="1" /><path clip-path="url(#clip570)" d="M2111.32 140.383 L2099.51 158.832 L2111.32 158.832 L2111.32 140.383 M2110.09 136.309 L2115.97 136.309 L2115.97 158.832 L2120.9 158.832 L2120.9 162.721 L2115.97 162.721 L2115.97 170.869 L2111.32 170.869 L2111.32 162.721 L2095.72 162.721 L2095.72 158.207 L2110.09 136.309 Z" fill="#000000" fill-rule="evenodd" fill-opacity="1" /><path clip-path="url(#clip570)" d="M2142.8 152.234 Q2146.16 152.952 2148.03 155.221 Q2149.93 157.489 2149.93 160.822 Q2149.93 165.938 2146.41 168.739 Q2142.89 171.54 2136.41 171.54 Q2134.23 171.54 2131.92 171.1 Q2129.63 170.683 2127.17 169.827 L2127.17 165.313 Q2129.12 166.447 2131.43 167.026 Q2133.75 167.605 2136.27 167.605 Q2140.67 167.605 2142.96 165.869 Q2145.28 164.133 2145.28 160.822 Q2145.28 157.767 2143.12 156.054 Q2140.99 154.318 2137.17 154.318 L2133.15 154.318 L2133.15 150.475 L2137.36 150.475 Q2140.81 150.475 2142.64 149.109 Q2144.47 147.721 2144.47 145.128 Q2144.47 142.466 2142.57 141.054 Q2140.69 139.619 2137.17 139.619 Q2135.25 139.619 2133.05 140.035 Q2130.85 140.452 2128.22 141.332 L2128.22 137.165 Q2130.88 136.424 2133.19 136.054 Q2135.53 135.684 2137.59 135.684 Q2142.91 135.684 2146.02 138.114 Q2149.12 140.522 2149.12 144.642 Q2149.12 147.512 2147.47 149.503 Q2145.83 151.471 2142.8 152.234 Z" fill="#000000" fill-rule="evenodd" fill-opacity="1" /><path clip-path="url(#clip570)" d="M2162.82 166.933 L2179.14 166.933 L2179.14 170.869 L2157.2 170.869 L2157.2 166.933 Q2159.86 164.179 2164.44 159.549 Q2169.05 154.896 2170.23 153.554 Q2172.47 151.031 2173.35 149.295 Q2174.26 147.535 2174.26 145.846 Q2174.26 143.091 2172.31 141.355 Q2170.39 139.619 2167.29 139.619 Q2165.09 139.619 2162.64 140.383 Q2160.21 141.147 2157.43 142.697 L2157.43 137.975 Q2160.25 136.841 2162.71 136.262 Q2165.16 135.684 2167.2 135.684 Q2172.57 135.684 2175.76 138.369 Q2178.96 141.054 2178.96 145.545 Q2178.96 147.674 2178.15 149.596 Q2177.36 151.494 2175.25 154.086 Q2174.67 154.758 2171.57 157.975 Q2168.47 161.17 2162.82 166.933 Z" fill="#000000" fill-rule="evenodd" fill-opacity="1" /><path clip-path="url(#clip570)" d="M2187.68 134.897 L2191.39 134.897 Q2194.86 140.36 2196.57 145.591 Q2198.31 150.822 2198.31 155.984 Q2198.31 161.17 2196.57 166.424 Q2194.86 171.679 2191.39 177.119 L2187.68 177.119 Q2190.76 171.818 2192.27 166.586 Q2193.79 161.332 2193.79 155.984 Q2193.79 150.637 2192.27 145.429 Q2190.76 140.221 2187.68 134.897 Z" fill="#000000" fill-rule="evenodd" fill-opacity="1" /><polyline clip-path="url(#clip570)" style="stroke:#e26f46; stroke-linecap:butt; stroke-linejoin:round; stroke-width:4; stroke-opacity:1; fill:none" points="
  1581.03,214.069 1724.95,214.069 
  "/>
<path clip-path="url(#clip570)" d="M1769.28 210.4 Q1770.88 207.529 1773.1 206.164 Q1775.32 204.798 1778.33 204.798 Q1782.38 204.798 1784.58 207.645 Q1786.78 210.469 1786.78 215.701 L1786.78 231.349 L1782.5 231.349 L1782.5 215.839 Q1782.5 212.113 1781.18 210.307 Q1779.86 208.502 1777.15 208.502 Q1773.84 208.502 1771.92 210.701 Q1770 212.9 1770 216.696 L1770 231.349 L1765.72 231.349 L1765.72 215.839 Q1765.72 212.089 1764.4 210.307 Q1763.08 208.502 1760.32 208.502 Q1757.06 208.502 1755.14 210.724 Q1753.22 212.923 1753.22 216.696 L1753.22 231.349 L1748.94 231.349 L1748.94 205.423 L1753.22 205.423 L1753.22 209.451 Q1754.68 207.066 1756.71 205.932 Q1758.75 204.798 1761.55 204.798 Q1764.37 204.798 1766.34 206.233 Q1768.33 207.668 1769.28 210.4 Z" fill="#000000" fill-rule="evenodd" fill-opacity="1" /><path clip-path="url(#clip570)" d="M1807.06 218.316 Q1801.9 218.316 1799.91 219.497 Q1797.92 220.677 1797.92 223.525 Q1797.92 225.793 1799.4 227.136 Q1800.9 228.455 1803.47 228.455 Q1807.01 228.455 1809.14 225.955 Q1811.3 223.432 1811.3 219.265 L1811.3 218.316 L1807.06 218.316 M1815.56 216.557 L1815.56 231.349 L1811.3 231.349 L1811.3 227.413 Q1809.84 229.775 1807.66 230.909 Q1805.49 232.02 1802.34 232.02 Q1798.36 232.02 1796 229.798 Q1793.66 227.552 1793.66 223.802 Q1793.66 219.427 1796.57 217.205 Q1799.51 214.983 1805.32 214.983 L1811.3 214.983 L1811.3 214.566 Q1811.3 211.627 1809.35 210.029 Q1807.43 208.409 1803.93 208.409 Q1801.71 208.409 1799.61 208.941 Q1797.5 209.474 1795.56 210.539 L1795.56 206.603 Q1797.89 205.701 1800.09 205.261 Q1802.29 204.798 1804.37 204.798 Q1810 204.798 1812.78 207.714 Q1815.56 210.631 1815.56 216.557 Z" fill="#000000" fill-rule="evenodd" fill-opacity="1" /><path clip-path="url(#clip570)" d="M1840.86 206.187 L1840.86 210.214 Q1839.05 209.289 1837.11 208.826 Q1835.16 208.363 1833.08 208.363 Q1829.91 208.363 1828.31 209.335 Q1826.74 210.307 1826.74 212.251 Q1826.74 213.733 1827.87 214.589 Q1829 215.423 1832.43 216.187 L1833.89 216.511 Q1838.43 217.483 1840.32 219.265 Q1842.24 221.025 1842.24 224.196 Q1842.24 227.807 1839.37 229.913 Q1836.53 232.02 1831.53 232.02 Q1829.44 232.02 1827.18 231.603 Q1824.93 231.21 1822.43 230.4 L1822.43 226.001 Q1824.79 227.228 1827.08 227.853 Q1829.37 228.455 1831.62 228.455 Q1834.63 228.455 1836.25 227.437 Q1837.87 226.395 1837.87 224.52 Q1837.87 222.784 1836.69 221.858 Q1835.53 220.932 1831.57 220.076 L1830.09 219.728 Q1826.13 218.895 1824.37 217.182 Q1822.62 215.446 1822.62 212.437 Q1822.62 208.779 1825.21 206.789 Q1827.8 204.798 1832.57 204.798 Q1834.93 204.798 1837.01 205.145 Q1839.1 205.492 1840.86 206.187 Z" fill="#000000" fill-rule="evenodd" fill-opacity="1" /><path clip-path="url(#clip570)" d="M1865.55 206.187 L1865.55 210.214 Q1863.75 209.289 1861.8 208.826 Q1859.86 208.363 1857.78 208.363 Q1854.61 208.363 1853.01 209.335 Q1851.43 210.307 1851.43 212.251 Q1851.43 213.733 1852.57 214.589 Q1853.7 215.423 1857.13 216.187 L1858.59 216.511 Q1863.12 217.483 1865.02 219.265 Q1866.94 221.025 1866.94 224.196 Q1866.94 227.807 1864.07 229.913 Q1861.23 232.02 1856.23 232.02 Q1854.14 232.02 1851.87 231.603 Q1849.63 231.21 1847.13 230.4 L1847.13 226.001 Q1849.49 227.228 1851.78 227.853 Q1854.07 228.455 1856.32 228.455 Q1859.33 228.455 1860.95 227.437 Q1862.57 226.395 1862.57 224.52 Q1862.57 222.784 1861.39 221.858 Q1860.23 220.932 1856.27 220.076 L1854.79 219.728 Q1850.83 218.895 1849.07 217.182 Q1847.31 215.446 1847.31 212.437 Q1847.31 208.779 1849.91 206.789 Q1852.5 204.798 1857.27 204.798 Q1859.63 204.798 1861.71 205.145 Q1863.8 205.492 1865.55 206.187 Z" fill="#000000" fill-rule="evenodd" fill-opacity="1" /><path clip-path="url(#clip570)" d="M1874.33 225.469 L1879.21 225.469 L1879.21 231.349 L1874.33 231.349 L1874.33 225.469 Z" fill="#000000" fill-rule="evenodd" fill-opacity="1" /><path clip-path="url(#clip570)" d="M1885.74 205.423 L1890.25 205.423 L1898.36 227.182 L1906.46 205.423 L1910.97 205.423 L1901.25 231.349 L1895.46 231.349 L1885.74 205.423 Z" fill="#000000" fill-rule="evenodd" fill-opacity="1" /><path clip-path="url(#clip570)" d="M1942.15 195.377 Q1939.05 200.701 1937.55 205.909 Q1936.04 211.117 1936.04 216.464 Q1936.04 221.812 1937.55 227.066 Q1939.07 232.298 1942.15 237.599 L1938.45 237.599 Q1934.98 232.159 1933.24 226.904 Q1931.53 221.65 1931.53 216.464 Q1931.53 211.302 1933.24 206.071 Q1934.95 200.84 1938.45 195.377 L1942.15 195.377 Z" fill="#000000" fill-rule="evenodd" fill-opacity="1" /><path clip-path="url(#clip570)" d="M1965.18 212.714 Q1968.54 213.432 1970.42 215.701 Q1972.31 217.969 1972.31 221.302 Q1972.31 226.418 1968.8 229.219 Q1965.28 232.02 1958.8 232.02 Q1956.62 232.02 1954.3 231.58 Q1952.01 231.163 1949.56 230.307 L1949.56 225.793 Q1951.5 226.927 1953.82 227.506 Q1956.13 228.085 1958.66 228.085 Q1963.05 228.085 1965.35 226.349 Q1967.66 224.613 1967.66 221.302 Q1967.66 218.247 1965.51 216.534 Q1963.38 214.798 1959.56 214.798 L1955.53 214.798 L1955.53 210.955 L1959.74 210.955 Q1963.19 210.955 1965.02 209.589 Q1966.85 208.201 1966.85 205.608 Q1966.85 202.946 1964.95 201.534 Q1963.08 200.099 1959.56 200.099 Q1957.64 200.099 1955.44 200.515 Q1953.24 200.932 1950.6 201.812 L1950.6 197.645 Q1953.26 196.904 1955.58 196.534 Q1957.92 196.164 1959.98 196.164 Q1965.3 196.164 1968.4 198.594 Q1971.5 201.002 1971.5 205.122 Q1971.5 207.992 1969.86 209.983 Q1968.22 211.951 1965.18 212.714 Z" fill="#000000" fill-rule="evenodd" fill-opacity="1" /><path clip-path="url(#clip570)" d="M1995.35 212.714 Q1998.7 213.432 2000.58 215.701 Q2002.48 217.969 2002.48 221.302 Q2002.48 226.418 1998.96 229.219 Q1995.44 232.02 1988.96 232.02 Q1986.78 232.02 1984.47 231.58 Q1982.17 231.163 1979.72 230.307 L1979.72 225.793 Q1981.67 226.927 1983.98 227.506 Q1986.3 228.085 1988.82 228.085 Q1993.22 228.085 1995.51 226.349 Q1997.82 224.613 1997.82 221.302 Q1997.82 218.247 1995.67 216.534 Q1993.54 214.798 1989.72 214.798 L1985.69 214.798 L1985.69 210.955 L1989.91 210.955 Q1993.36 210.955 1995.18 209.589 Q1997.01 208.201 1997.01 205.608 Q1997.01 202.946 1995.11 201.534 Q1993.24 200.099 1989.72 200.099 Q1987.8 200.099 1985.6 200.515 Q1983.4 200.932 1980.76 201.812 L1980.76 197.645 Q1983.42 196.904 1985.74 196.534 Q1988.08 196.164 1990.14 196.164 Q1995.46 196.164 1998.56 198.594 Q2001.67 201.002 2001.67 205.122 Q2001.67 207.992 2000.02 209.983 Q1998.38 211.951 1995.35 212.714 Z" fill="#000000" fill-rule="evenodd" fill-opacity="1" /><path clip-path="url(#clip570)" d="M2011.39 196.789 L2029.74 196.789 L2029.74 200.724 L2015.67 200.724 L2015.67 209.196 Q2016.69 208.849 2017.71 208.687 Q2018.73 208.502 2019.74 208.502 Q2025.53 208.502 2028.91 211.673 Q2032.29 214.844 2032.29 220.261 Q2032.29 225.839 2028.82 228.941 Q2025.35 232.02 2019.03 232.02 Q2016.85 232.02 2014.58 231.65 Q2012.34 231.279 2009.93 230.538 L2009.93 225.839 Q2012.01 226.974 2014.23 227.529 Q2016.46 228.085 2018.93 228.085 Q2022.94 228.085 2025.28 225.978 Q2027.61 223.872 2027.61 220.261 Q2027.61 216.65 2025.28 214.543 Q2022.94 212.437 2018.93 212.437 Q2017.06 212.437 2015.18 212.853 Q2013.33 213.27 2011.39 214.15 L2011.39 196.789 Z" fill="#000000" fill-rule="evenodd" fill-opacity="1" /><path clip-path="url(#clip570)" d="M2041.55 196.789 L2059.91 196.789 L2059.91 200.724 L2045.83 200.724 L2045.83 209.196 Q2046.85 208.849 2047.87 208.687 Q2048.89 208.502 2049.91 208.502 Q2055.69 208.502 2059.07 211.673 Q2062.45 214.844 2062.45 220.261 Q2062.45 225.839 2058.98 228.941 Q2055.51 232.02 2049.19 232.02 Q2047.01 232.02 2044.74 231.65 Q2042.5 231.279 2040.09 230.538 L2040.09 225.839 Q2042.17 226.974 2044.4 227.529 Q2046.62 228.085 2049.1 228.085 Q2053.1 228.085 2055.44 225.978 Q2057.78 223.872 2057.78 220.261 Q2057.78 216.65 2055.44 214.543 Q2053.1 212.437 2049.1 212.437 Q2047.22 212.437 2045.35 212.853 Q2043.49 213.27 2041.55 214.15 L2041.55 196.789 Z" fill="#000000" fill-rule="evenodd" fill-opacity="1" /><path clip-path="url(#clip570)" d="M2084.51 200.863 L2072.71 219.312 L2084.51 219.312 L2084.51 200.863 M2083.29 196.789 L2089.16 196.789 L2089.16 219.312 L2094.1 219.312 L2094.1 223.201 L2089.16 223.201 L2089.16 231.349 L2084.51 231.349 L2084.51 223.201 L2068.91 223.201 L2068.91 218.687 L2083.29 196.789 Z" fill="#000000" fill-rule="evenodd" fill-opacity="1" /><path clip-path="url(#clip570)" d="M2114.67 200.863 L2102.87 219.312 L2114.67 219.312 L2114.67 200.863 M2113.45 196.789 L2119.33 196.789 L2119.33 219.312 L2124.26 219.312 L2124.26 223.201 L2119.33 223.201 L2119.33 231.349 L2114.67 231.349 L2114.67 223.201 L2099.07 223.201 L2099.07 218.687 L2113.45 196.789 Z" fill="#000000" fill-rule="evenodd" fill-opacity="1" /><path clip-path="url(#clip570)" d="M2146.16 212.714 Q2149.51 213.432 2151.39 215.701 Q2153.28 217.969 2153.28 221.302 Q2153.28 226.418 2149.77 229.219 Q2146.25 232.02 2139.77 232.02 Q2137.59 232.02 2135.28 231.58 Q2132.98 231.163 2130.53 230.307 L2130.53 225.793 Q2132.47 226.927 2134.79 227.506 Q2137.1 228.085 2139.63 228.085 Q2144.03 228.085 2146.32 226.349 Q2148.63 224.613 2148.63 221.302 Q2148.63 218.247 2146.48 216.534 Q2144.35 214.798 2140.53 214.798 L2136.5 214.798 L2136.5 210.955 L2140.72 210.955 Q2144.16 210.955 2145.99 209.589 Q2147.82 208.201 2147.82 205.608 Q2147.82 202.946 2145.92 201.534 Q2144.05 200.099 2140.53 200.099 Q2138.61 200.099 2136.41 200.515 Q2134.21 200.932 2131.57 201.812 L2131.57 197.645 Q2134.23 196.904 2136.55 196.534 Q2138.89 196.164 2140.95 196.164 Q2146.27 196.164 2149.37 198.594 Q2152.47 201.002 2152.47 205.122 Q2152.47 207.992 2150.83 209.983 Q2149.19 211.951 2146.16 212.714 Z" fill="#000000" fill-rule="evenodd" fill-opacity="1" /><path clip-path="url(#clip570)" d="M2176.32 212.714 Q2179.67 213.432 2181.55 215.701 Q2183.45 217.969 2183.45 221.302 Q2183.45 226.418 2179.93 229.219 Q2176.41 232.02 2169.93 232.02 Q2167.75 232.02 2165.44 231.58 Q2163.15 231.163 2160.69 230.307 L2160.69 225.793 Q2162.64 226.927 2164.95 227.506 Q2167.27 228.085 2169.79 228.085 Q2174.19 228.085 2176.48 226.349 Q2178.79 224.613 2178.79 221.302 Q2178.79 218.247 2176.64 216.534 Q2174.51 214.798 2170.69 214.798 L2166.66 214.798 L2166.66 210.955 L2170.88 210.955 Q2174.33 210.955 2176.16 209.589 Q2177.98 208.201 2177.98 205.608 Q2177.98 202.946 2176.09 201.534 Q2174.21 200.099 2170.69 200.099 Q2168.77 200.099 2166.57 200.515 Q2164.37 200.932 2161.73 201.812 L2161.73 197.645 Q2164.4 196.904 2166.71 196.534 Q2169.05 196.164 2171.11 196.164 Q2176.43 196.164 2179.53 198.594 Q2182.64 201.002 2182.64 205.122 Q2182.64 207.992 2180.99 209.983 Q2179.35 211.951 2176.32 212.714 Z" fill="#000000" fill-rule="evenodd" fill-opacity="1" /><path clip-path="url(#clip570)" d="M2191.04 195.377 L2194.74 195.377 Q2198.22 200.84 2199.93 206.071 Q2201.66 211.302 2201.66 216.464 Q2201.66 221.65 2199.93 226.904 Q2198.22 232.159 2194.74 237.599 L2191.04 237.599 Q2194.12 232.298 2195.62 227.066 Q2197.15 221.812 2197.15 216.464 Q2197.15 211.117 2195.62 205.909 Q2194.12 200.701 2191.04 195.377 Z" fill="#000000" fill-rule="evenodd" fill-opacity="1" /><polyline clip-path="url(#clip570)" style="stroke:#3da44d; stroke-linecap:butt; stroke-linejoin:round; stroke-width:4; stroke-opacity:1; fill:none" points="
  1581.03,274.549 1724.95,274.549 
  "/>
<path clip-path="url(#clip570)" d="M1769.28 270.88 Q1770.88 268.009 1773.1 266.644 Q1775.32 265.278 1778.33 265.278 Q1782.38 265.278 1784.58 268.125 Q1786.78 270.949 1786.78 276.181 L1786.78 291.829 L1782.5 291.829 L1782.5 276.319 Q1782.5 272.593 1781.18 270.787 Q1779.86 268.982 1777.15 268.982 Q1773.84 268.982 1771.92 271.181 Q1770 273.38 1770 277.176 L1770 291.829 L1765.72 291.829 L1765.72 276.319 Q1765.72 272.569 1764.4 270.787 Q1763.08 268.982 1760.32 268.982 Q1757.06 268.982 1755.14 271.204 Q1753.22 273.403 1753.22 277.176 L1753.22 291.829 L1748.94 291.829 L1748.94 265.903 L1753.22 265.903 L1753.22 269.931 Q1754.68 267.546 1756.71 266.412 Q1758.75 265.278 1761.55 265.278 Q1764.37 265.278 1766.34 266.713 Q1768.33 268.148 1769.28 270.88 Z" fill="#000000" fill-rule="evenodd" fill-opacity="1" /><path clip-path="url(#clip570)" d="M1807.06 278.796 Q1801.9 278.796 1799.91 279.977 Q1797.92 281.157 1797.92 284.005 Q1797.92 286.273 1799.4 287.616 Q1800.9 288.935 1803.47 288.935 Q1807.01 288.935 1809.14 286.435 Q1811.3 283.912 1811.3 279.745 L1811.3 278.796 L1807.06 278.796 M1815.56 277.037 L1815.56 291.829 L1811.3 291.829 L1811.3 287.893 Q1809.84 290.255 1807.66 291.389 Q1805.49 292.5 1802.34 292.5 Q1798.36 292.5 1796 290.278 Q1793.66 288.032 1793.66 284.282 Q1793.66 279.907 1796.57 277.685 Q1799.51 275.463 1805.32 275.463 L1811.3 275.463 L1811.3 275.046 Q1811.3 272.107 1809.35 270.509 Q1807.43 268.889 1803.93 268.889 Q1801.71 268.889 1799.61 269.421 Q1797.5 269.954 1795.56 271.019 L1795.56 267.083 Q1797.89 266.181 1800.09 265.741 Q1802.29 265.278 1804.37 265.278 Q1810 265.278 1812.78 268.194 Q1815.56 271.111 1815.56 277.037 Z" fill="#000000" fill-rule="evenodd" fill-opacity="1" /><path clip-path="url(#clip570)" d="M1840.86 266.667 L1840.86 270.694 Q1839.05 269.769 1837.11 269.306 Q1835.16 268.843 1833.08 268.843 Q1829.91 268.843 1828.31 269.815 Q1826.74 270.787 1826.74 272.731 Q1826.74 274.213 1827.87 275.069 Q1829 275.903 1832.43 276.667 L1833.89 276.991 Q1838.43 277.963 1840.32 279.745 Q1842.24 281.505 1842.24 284.676 Q1842.24 288.287 1839.37 290.393 Q1836.53 292.5 1831.53 292.5 Q1829.44 292.5 1827.18 292.083 Q1824.93 291.69 1822.43 290.88 L1822.43 286.481 Q1824.79 287.708 1827.08 288.333 Q1829.37 288.935 1831.62 288.935 Q1834.63 288.935 1836.25 287.917 Q1837.87 286.875 1837.87 285 Q1837.87 283.264 1836.69 282.338 Q1835.53 281.412 1831.57 280.556 L1830.09 280.208 Q1826.13 279.375 1824.37 277.662 Q1822.62 275.926 1822.62 272.917 Q1822.62 269.259 1825.21 267.269 Q1827.8 265.278 1832.57 265.278 Q1834.93 265.278 1837.01 265.625 Q1839.1 265.972 1840.86 266.667 Z" fill="#000000" fill-rule="evenodd" fill-opacity="1" /><path clip-path="url(#clip570)" d="M1865.55 266.667 L1865.55 270.694 Q1863.75 269.769 1861.8 269.306 Q1859.86 268.843 1857.78 268.843 Q1854.61 268.843 1853.01 269.815 Q1851.43 270.787 1851.43 272.731 Q1851.43 274.213 1852.57 275.069 Q1853.7 275.903 1857.13 276.667 L1858.59 276.991 Q1863.12 277.963 1865.02 279.745 Q1866.94 281.505 1866.94 284.676 Q1866.94 288.287 1864.07 290.393 Q1861.23 292.5 1856.23 292.5 Q1854.14 292.5 1851.87 292.083 Q1849.63 291.69 1847.13 290.88 L1847.13 286.481 Q1849.49 287.708 1851.78 288.333 Q1854.07 288.935 1856.32 288.935 Q1859.33 288.935 1860.95 287.917 Q1862.57 286.875 1862.57 285 Q1862.57 283.264 1861.39 282.338 Q1860.23 281.412 1856.27 280.556 L1854.79 280.208 Q1850.83 279.375 1849.07 277.662 Q1847.31 275.926 1847.31 272.917 Q1847.31 269.259 1849.91 267.269 Q1852.5 265.278 1857.27 265.278 Q1859.63 265.278 1861.71 265.625 Q1863.8 265.972 1865.55 266.667 Z" fill="#000000" fill-rule="evenodd" fill-opacity="1" /><path clip-path="url(#clip570)" d="M1874.33 285.949 L1879.21 285.949 L1879.21 291.829 L1874.33 291.829 L1874.33 285.949 Z" fill="#000000" fill-rule="evenodd" fill-opacity="1" /><path clip-path="url(#clip570)" d="M1900.58 278.796 Q1895.42 278.796 1893.43 279.977 Q1891.43 281.157 1891.43 284.005 Q1891.43 286.273 1892.92 287.616 Q1894.42 288.935 1896.99 288.935 Q1900.53 288.935 1902.66 286.435 Q1904.81 283.912 1904.81 279.745 L1904.81 278.796 L1900.58 278.796 M1909.07 277.037 L1909.07 291.829 L1904.81 291.829 L1904.81 287.893 Q1903.36 290.255 1901.18 291.389 Q1899 292.5 1895.86 292.5 Q1891.87 292.5 1889.51 290.278 Q1887.18 288.032 1887.18 284.282 Q1887.18 279.907 1890.09 277.685 Q1893.03 275.463 1898.84 275.463 L1904.81 275.463 L1904.81 275.046 Q1904.81 272.107 1902.87 270.509 Q1900.95 268.889 1897.45 268.889 Q1895.23 268.889 1893.12 269.421 Q1891.02 269.954 1889.07 271.019 L1889.07 267.083 Q1891.41 266.181 1893.61 265.741 Q1895.81 265.278 1897.89 265.278 Q1903.52 265.278 1906.3 268.194 Q1909.07 271.111 1909.07 277.037 Z" fill="#000000" fill-rule="evenodd" fill-opacity="1" /><path clip-path="url(#clip570)" d="M1943.15 255.857 Q1940.05 261.181 1938.54 266.389 Q1937.04 271.597 1937.04 276.944 Q1937.04 282.292 1938.54 287.546 Q1940.07 292.778 1943.15 298.079 L1939.44 298.079 Q1935.97 292.639 1934.24 287.384 Q1932.52 282.13 1932.52 276.944 Q1932.52 271.782 1934.24 266.551 Q1935.95 261.32 1939.44 255.857 L1943.15 255.857 Z" fill="#000000" fill-rule="evenodd" fill-opacity="1" /><path clip-path="url(#clip570)" d="M1952.06 257.269 L1970.42 257.269 L1970.42 261.204 L1956.34 261.204 L1956.34 269.676 Q1957.36 269.329 1958.38 269.167 Q1959.4 268.982 1960.42 268.982 Q1966.2 268.982 1969.58 272.153 Q1972.96 275.324 1972.96 280.741 Q1972.96 286.319 1969.49 289.421 Q1966.02 292.5 1959.7 292.5 Q1957.52 292.5 1955.25 292.13 Q1953.01 291.759 1950.6 291.018 L1950.6 286.319 Q1952.68 287.454 1954.91 288.009 Q1957.13 288.565 1959.61 288.565 Q1963.61 288.565 1965.95 286.458 Q1968.29 284.352 1968.29 280.741 Q1968.29 277.13 1965.95 275.023 Q1963.61 272.917 1959.61 272.917 Q1957.73 272.917 1955.86 273.333 Q1954 273.75 1952.06 274.63 L1952.06 257.269 Z" fill="#000000" fill-rule="evenodd" fill-opacity="1" /><path clip-path="url(#clip570)" d="M1992.17 275.417 Q1988.84 275.417 1986.92 277.199 Q1985.02 278.981 1985.02 282.106 Q1985.02 285.231 1986.92 287.014 Q1988.84 288.796 1992.17 288.796 Q1995.51 288.796 1997.43 287.014 Q1999.35 285.208 1999.35 282.106 Q1999.35 278.981 1997.43 277.199 Q1995.53 275.417 1992.17 275.417 M1987.5 273.426 Q1984.49 272.685 1982.8 270.625 Q1981.13 268.565 1981.13 265.602 Q1981.13 261.458 1984.07 259.051 Q1987.04 256.644 1992.17 256.644 Q1997.34 256.644 2000.28 259.051 Q2003.22 261.458 2003.22 265.602 Q2003.22 268.565 2001.53 270.625 Q1999.86 272.685 1996.87 273.426 Q2000.25 274.213 2002.13 276.505 Q2004.03 278.796 2004.03 282.106 Q2004.03 287.13 2000.95 289.815 Q1997.89 292.5 1992.17 292.5 Q1986.46 292.5 1983.38 289.815 Q1980.32 287.13 1980.32 282.106 Q1980.32 278.796 1982.22 276.505 Q1984.12 274.213 1987.5 273.426 M1985.79 266.042 Q1985.79 268.727 1987.45 270.232 Q1989.14 271.736 1992.17 271.736 Q1995.18 271.736 1996.87 270.232 Q1998.59 268.727 1998.59 266.042 Q1998.59 263.357 1996.87 261.852 Q1995.18 260.347 1992.17 260.347 Q1989.14 260.347 1987.45 261.852 Q1985.79 263.357 1985.79 266.042 Z" fill="#000000" fill-rule="evenodd" fill-opacity="1" /><path clip-path="url(#clip570)" d="M2011.16 257.269 L2033.38 257.269 L2033.38 259.259 L2020.83 291.829 L2015.95 291.829 L2027.75 261.204 L2011.16 261.204 L2011.16 257.269 Z" fill="#000000" fill-rule="evenodd" fill-opacity="1" /><path clip-path="url(#clip570)" d="M2046.53 287.893 L2062.85 287.893 L2062.85 291.829 L2040.9 291.829 L2040.9 287.893 Q2043.56 285.139 2048.15 280.509 Q2052.75 275.856 2053.93 274.514 Q2056.18 271.991 2057.06 270.255 Q2057.96 268.495 2057.96 266.806 Q2057.96 264.051 2056.02 262.315 Q2054.1 260.579 2050.99 260.579 Q2048.79 260.579 2046.34 261.343 Q2043.91 262.107 2041.13 263.657 L2041.13 258.935 Q2043.96 257.801 2046.41 257.222 Q2048.86 256.644 2050.9 256.644 Q2056.27 256.644 2059.47 259.329 Q2062.66 262.014 2062.66 266.505 Q2062.66 268.634 2061.85 270.556 Q2061.06 272.454 2058.96 275.046 Q2058.38 275.718 2055.28 278.935 Q2052.17 282.13 2046.53 287.893 Z" fill="#000000" fill-rule="evenodd" fill-opacity="1" /><path clip-path="url(#clip570)" d="M2082.66 260.347 Q2079.05 260.347 2077.22 263.912 Q2075.41 267.454 2075.41 274.583 Q2075.41 281.69 2077.22 285.255 Q2079.05 288.796 2082.66 288.796 Q2086.29 288.796 2088.1 285.255 Q2089.93 281.69 2089.93 274.583 Q2089.93 267.454 2088.1 263.912 Q2086.29 260.347 2082.66 260.347 M2082.66 256.644 Q2088.47 256.644 2091.53 261.25 Q2094.6 265.833 2094.6 274.583 Q2094.6 283.31 2091.53 287.917 Q2088.47 292.5 2082.66 292.5 Q2076.85 292.5 2073.77 287.917 Q2070.72 283.31 2070.72 274.583 Q2070.72 265.833 2073.77 261.25 Q2076.85 256.644 2082.66 256.644 Z" fill="#000000" fill-rule="evenodd" fill-opacity="1" /><path clip-path="url(#clip570)" d="M2106.85 287.893 L2123.17 287.893 L2123.17 291.829 L2101.22 291.829 L2101.22 287.893 Q2103.89 285.139 2108.47 280.509 Q2113.08 275.856 2114.26 274.514 Q2116.5 271.991 2117.38 270.255 Q2118.29 268.495 2118.29 266.806 Q2118.29 264.051 2116.34 262.315 Q2114.42 260.579 2111.32 260.579 Q2109.12 260.579 2106.66 261.343 Q2104.23 262.107 2101.46 263.657 L2101.46 258.935 Q2104.28 257.801 2106.73 257.222 Q2109.19 256.644 2111.22 256.644 Q2116.6 256.644 2119.79 259.329 Q2122.98 262.014 2122.98 266.505 Q2122.98 268.634 2122.17 270.556 Q2121.39 272.454 2119.28 275.046 Q2118.7 275.718 2115.6 278.935 Q2112.5 282.13 2106.85 287.893 Z" fill="#000000" fill-rule="evenodd" fill-opacity="1" /><path clip-path="url(#clip570)" d="M2133.03 257.269 L2151.39 257.269 L2151.39 261.204 L2137.31 261.204 L2137.31 269.676 Q2138.33 269.329 2139.35 269.167 Q2140.37 268.982 2141.39 268.982 Q2147.17 268.982 2150.55 272.153 Q2153.93 275.324 2153.93 280.741 Q2153.93 286.319 2150.46 289.421 Q2146.99 292.5 2140.67 292.5 Q2138.49 292.5 2136.22 292.13 Q2133.98 291.759 2131.57 291.018 L2131.57 286.319 Q2133.66 287.454 2135.88 288.009 Q2138.1 288.565 2140.58 288.565 Q2144.58 288.565 2146.92 286.458 Q2149.26 284.352 2149.26 280.741 Q2149.26 277.13 2146.92 275.023 Q2144.58 272.917 2140.58 272.917 Q2138.7 272.917 2136.83 273.333 Q2134.97 273.75 2133.03 274.63 L2133.03 257.269 Z" fill="#000000" fill-rule="evenodd" fill-opacity="1" /><path clip-path="url(#clip570)" d="M2173.72 272.685 Q2170.58 272.685 2168.72 274.838 Q2166.9 276.991 2166.9 280.741 Q2166.9 284.468 2168.72 286.643 Q2170.58 288.796 2173.72 288.796 Q2176.87 288.796 2178.7 286.643 Q2180.55 284.468 2180.55 280.741 Q2180.55 276.991 2178.7 274.838 Q2176.87 272.685 2173.72 272.685 M2183.01 258.033 L2183.01 262.292 Q2181.25 261.458 2179.44 261.019 Q2177.66 260.579 2175.9 260.579 Q2171.27 260.579 2168.82 263.704 Q2166.39 266.829 2166.04 273.148 Q2167.41 271.134 2169.47 270.069 Q2171.53 268.982 2174 268.982 Q2179.21 268.982 2182.22 272.153 Q2185.25 275.301 2185.25 280.741 Q2185.25 286.065 2182.1 289.282 Q2178.96 292.5 2173.72 292.5 Q2167.73 292.5 2164.56 287.917 Q2161.39 283.31 2161.39 274.583 Q2161.39 266.389 2165.28 261.528 Q2169.16 256.644 2175.72 256.644 Q2177.47 256.644 2179.26 256.991 Q2181.06 257.338 2183.01 258.033 Z" fill="#000000" fill-rule="evenodd" fill-opacity="1" /><path clip-path="url(#clip570)" d="M2194.12 287.893 L2201.76 287.893 L2201.76 261.528 L2193.45 263.195 L2193.45 258.935 L2201.71 257.269 L2206.39 257.269 L2206.39 287.893 L2214.03 287.893 L2214.03 291.829 L2194.12 291.829 L2194.12 287.893 Z" fill="#000000" fill-rule="evenodd" fill-opacity="1" /><path clip-path="url(#clip570)" d="M2222.2 255.857 L2225.9 255.857 Q2229.37 261.32 2231.09 266.551 Q2232.82 271.782 2232.82 276.944 Q2232.82 282.13 2231.09 287.384 Q2229.37 292.639 2225.9 298.079 L2222.2 298.079 Q2225.28 292.778 2226.78 287.546 Q2228.31 282.292 2228.31 276.944 Q2228.31 271.597 2226.78 266.389 Q2225.28 261.181 2222.2 255.857 Z" fill="#000000" fill-rule="evenodd" fill-opacity="1" /></svg>
