<?xml version="1.0" encoding="utf-8"?>
<svg xmlns="http://www.w3.org/2000/svg" xmlns:xlink="http://www.w3.org/1999/xlink" width="600" height="400" viewBox="0 0 2400 1600">
<defs>
  <clipPath id="clip730">
    <rect x="0" y="0" width="2400" height="1600"/>
  </clipPath>
</defs>
<path clip-path="url(#clip730)" d="
M0 1600 L2400 1600 L2400 0 L0 0  Z
  " fill="#ffffff" fill-rule="evenodd" fill-opacity="1"/>
<defs>
  <clipPath id="clip731">
    <rect x="480" y="0" width="1681" height="1600"/>
  </clipPath>
</defs>
<path clip-path="url(#clip730)" d="
M302.01 1401.58 L2352.76 1401.58 L2352.76 123.472 L302.01 123.472  Z
  " fill="#ffffff" fill-rule="evenodd" fill-opacity="1"/>
<defs>
  <clipPath id="clip732">
    <rect x="302" y="123" width="2052" height="1279"/>
  </clipPath>
</defs>
<polyline clip-path="url(#clip732)" style="stroke:#000000; stroke-linecap:butt; stroke-linejoin:round; stroke-width:2; stroke-opacity:0.1; fill:none" points="
  360.05,1401.58 360.05,123.472 
  "/>
<polyline clip-path="url(#clip732)" style="stroke:#000000; stroke-linecap:butt; stroke-linejoin:round; stroke-width:2; stroke-opacity:0.1; fill:none" points="
  843.716,1401.58 843.716,123.472 
  "/>
<polyline clip-path="url(#clip732)" style="stroke:#000000; stroke-linecap:butt; stroke-linejoin:round; stroke-width:2; stroke-opacity:0.1; fill:none" points="
  1327.38,1401.58 1327.38,123.472 
  "/>
<polyline clip-path="url(#clip732)" style="stroke:#000000; stroke-linecap:butt; stroke-linejoin:round; stroke-width:2; stroke-opacity:0.1; fill:none" points="
  1811.05,1401.58 1811.05,123.472 
  "/>
<polyline clip-path="url(#clip732)" style="stroke:#000000; stroke-linecap:butt; stroke-linejoin:round; stroke-width:2; stroke-opacity:0.1; fill:none" points="
  2294.72,1401.58 2294.72,123.472 
  "/>
<polyline clip-path="url(#clip730)" style="stroke:#000000; stroke-linecap:butt; stroke-linejoin:round; stroke-width:4; stroke-opacity:1; fill:none" points="
  302.01,1401.58 2352.76,1401.58 
  "/>
<polyline clip-path="url(#clip730)" style="stroke:#000000; stroke-linecap:butt; stroke-linejoin:round; stroke-width:4; stroke-opacity:1; fill:none" points="
  360.05,1401.58 360.05,1386.24 
  "/>
<polyline clip-path="url(#clip730)" style="stroke:#000000; stroke-linecap:butt; stroke-linejoin:round; stroke-width:4; stroke-opacity:1; fill:none" points="
  843.716,1401.58 843.716,1386.24 
  "/>
<polyline clip-path="url(#clip730)" style="stroke:#000000; stroke-linecap:butt; stroke-linejoin:round; stroke-width:4; stroke-opacity:1; fill:none" points="
  1327.38,1401.58 1327.38,1386.24 
  "/>
<polyline clip-path="url(#clip730)" style="stroke:#000000; stroke-linecap:butt; stroke-linejoin:round; stroke-width:4; stroke-opacity:1; fill:none" points="
  1811.05,1401.58 1811.05,1386.24 
  "/>
<polyline clip-path="url(#clip730)" style="stroke:#000000; stroke-linecap:butt; stroke-linejoin:round; stroke-width:4; stroke-opacity:1; fill:none" points="
  2294.72,1401.58 2294.72,1386.24 
  "/>
<path clip-path="url(#clip730)" d="M360.05 1435.77 Q354.633 1435.77 351.89 1441.11 Q349.182 1446.43 349.182 1457.12 Q349.182 1467.78 351.89 1473.13 Q354.633 1478.44 360.05 1478.44 Q365.501 1478.44 368.21 1473.13 Q370.953 1467.78 370.953 1457.12 Q370.953 1446.43 368.21 1441.11 Q365.501 1435.77 360.05 1435.77 M360.05 1430.21 Q368.765 1430.21 373.348 1437.12 Q377.966 1443.99 377.966 1457.12 Q377.966 1470.21 373.348 1477.12 Q368.765 1483.99 360.05 1483.99 Q351.335 1483.99 346.717 1477.12 Q342.133 1470.21 342.133 1457.12 Q342.133 1443.99 346.717 1437.12 Q351.335 1430.21 360.05 1430.21 Z" fill="#000000" fill-rule="evenodd" fill-opacity="1" /><path clip-path="url(#clip730)" d="M829.289 1477.09 L840.748 1477.09 L840.748 1437.54 L828.282 1440.04 L828.282 1433.65 L840.678 1431.15 L847.692 1431.15 L847.692 1477.09 L859.15 1477.09 L859.15 1482.99 L829.289 1482.99 L829.289 1477.09 Z" fill="#000000" fill-rule="evenodd" fill-opacity="1" /><path clip-path="url(#clip730)" d="M1319.36 1477.09 L1343.84 1477.09 L1343.84 1482.99 L1310.92 1482.99 L1310.92 1477.09 Q1314.92 1472.95 1321.79 1466.01 Q1328.7 1459.03 1330.47 1457.02 Q1333.84 1453.23 1335.16 1450.63 Q1336.51 1447.99 1336.51 1445.45 Q1336.51 1441.32 1333.6 1438.72 Q1330.72 1436.11 1326.06 1436.11 Q1322.76 1436.11 1319.08 1437.26 Q1315.44 1438.4 1311.27 1440.73 L1311.27 1433.65 Q1315.51 1431.95 1319.19 1431.08 Q1322.87 1430.21 1325.92 1430.21 Q1333.98 1430.21 1338.77 1434.24 Q1343.56 1438.27 1343.56 1445 Q1343.56 1448.2 1342.35 1451.08 Q1341.17 1453.93 1338.01 1457.81 Q1337.14 1458.82 1332.49 1463.65 Q1327.83 1468.44 1319.36 1477.09 Z" fill="#000000" fill-rule="evenodd" fill-opacity="1" /><path clip-path="url(#clip730)" d="M1817.42 1455.04 Q1822.46 1456.11 1825.27 1459.52 Q1828.12 1462.92 1828.12 1467.92 Q1828.12 1475.59 1822.84 1479.79 Q1817.56 1483.99 1807.84 1483.99 Q1804.57 1483.99 1801.1 1483.34 Q1797.66 1482.71 1793.98 1481.43 L1793.98 1474.65 Q1796.9 1476.36 1800.37 1477.22 Q1803.84 1478.09 1807.63 1478.09 Q1814.23 1478.09 1817.66 1475.49 Q1821.14 1472.88 1821.14 1467.92 Q1821.14 1463.34 1817.91 1460.77 Q1814.71 1458.16 1808.98 1458.16 L1802.94 1458.16 L1802.94 1452.4 L1809.26 1452.4 Q1814.43 1452.4 1817.18 1450.35 Q1819.92 1448.27 1819.92 1444.38 Q1819.92 1440.38 1817.07 1438.27 Q1814.26 1436.11 1808.98 1436.11 Q1806.1 1436.11 1802.8 1436.74 Q1799.5 1437.36 1795.55 1438.68 L1795.55 1432.43 Q1799.54 1431.32 1803.01 1430.77 Q1806.52 1430.21 1809.61 1430.21 Q1817.59 1430.21 1822.25 1433.86 Q1826.9 1437.47 1826.9 1443.65 Q1826.9 1447.95 1824.43 1450.94 Q1821.97 1453.89 1817.42 1455.04 Z" fill="#000000" fill-rule="evenodd" fill-opacity="1" /><path clip-path="url(#clip730)" d="M2299.23 1437.26 L2281.52 1464.93 L2299.23 1464.93 L2299.23 1437.26 M2297.39 1431.15 L2306.21 1431.15 L2306.21 1464.93 L2313.6 1464.93 L2313.6 1470.77 L2306.21 1470.77 L2306.21 1482.99 L2299.23 1482.99 L2299.23 1470.77 L2275.83 1470.77 L2275.83 1463.99 L2297.39 1431.15 Z" fill="#000000" fill-rule="evenodd" fill-opacity="1" /><path clip-path="url(#clip730)" d="M1270.99 1527.62 L1270.99 1538.66 L1284.15 1538.66 L1284.15 1543.62 L1270.99 1543.62 L1270.99 1564.74 Q1270.99 1569.49 1272.28 1570.85 Q1273.6 1572.2 1277.59 1572.2 L1284.15 1572.2 L1284.15 1577.55 L1277.59 1577.55 Q1270.2 1577.55 1267.38 1574.8 Q1264.57 1572.03 1264.57 1564.74 L1264.57 1543.62 L1259.88 1543.62 L1259.88 1538.66 L1264.57 1538.66 L1264.57 1527.62 L1270.99 1527.62 Z" fill="#000000" fill-rule="evenodd" fill-opacity="1" /><path clip-path="url(#clip730)" d="M1314.57 1523.52 L1329.29 1523.52 L1329.29 1528.49 L1320.96 1528.49 L1320.96 1581.96 L1329.29 1581.96 L1329.29 1586.92 L1314.57 1586.92 L1314.57 1523.52 Z" fill="#000000" fill-rule="evenodd" fill-opacity="1" /><path clip-path="url(#clip730)" d="M1367.7 1539.8 L1367.7 1545.85 Q1364.99 1544.46 1362.07 1543.76 Q1359.15 1543.07 1356.03 1543.07 Q1351.27 1543.07 1348.88 1544.53 Q1346.51 1545.99 1346.51 1548.9 Q1346.51 1551.12 1348.22 1552.41 Q1349.92 1553.66 1355.06 1554.8 L1357.24 1555.29 Q1364.05 1556.75 1366.9 1559.42 Q1369.78 1562.06 1369.78 1566.82 Q1369.78 1572.24 1365.47 1575.4 Q1361.2 1578.55 1353.7 1578.55 Q1350.58 1578.55 1347.17 1577.93 Q1343.81 1577.34 1340.06 1576.12 L1340.06 1569.53 Q1343.6 1571.37 1347.04 1572.3 Q1350.47 1573.21 1353.84 1573.21 Q1358.35 1573.21 1360.79 1571.68 Q1363.22 1570.12 1363.22 1567.3 Q1363.22 1564.7 1361.45 1563.31 Q1359.71 1561.92 1353.77 1560.64 L1351.55 1560.12 Q1345.61 1558.87 1342.97 1556.3 Q1340.33 1553.69 1340.33 1549.18 Q1340.33 1543.69 1344.22 1540.71 Q1348.11 1537.72 1355.26 1537.72 Q1358.81 1537.72 1361.93 1538.24 Q1365.06 1538.76 1367.7 1539.8 Z" fill="#000000" fill-rule="evenodd" fill-opacity="1" /><path clip-path="url(#clip730)" d="M1394.88 1523.52 L1394.88 1586.92 L1380.16 1586.92 L1380.16 1581.96 L1388.46 1581.96 L1388.46 1528.49 L1380.16 1528.49 L1380.16 1523.52 L1394.88 1523.52 Z" fill="#000000" fill-rule="evenodd" fill-opacity="1" /><polyline clip-path="url(#clip732)" style="stroke:#000000; stroke-linecap:butt; stroke-linejoin:round; stroke-width:2; stroke-opacity:0.1; fill:none" points="
  302.01,1143.25 2352.76,1143.25 
  "/>
<polyline clip-path="url(#clip732)" style="stroke:#000000; stroke-linecap:butt; stroke-linejoin:round; stroke-width:2; stroke-opacity:0.1; fill:none" points="
  302.01,848.644 2352.76,848.644 
  "/>
<polyline clip-path="url(#clip732)" style="stroke:#000000; stroke-linecap:butt; stroke-linejoin:round; stroke-width:2; stroke-opacity:0.1; fill:none" points="
  302.01,554.033 2352.76,554.033 
  "/>
<polyline clip-path="url(#clip732)" style="stroke:#000000; stroke-linecap:butt; stroke-linejoin:round; stroke-width:2; stroke-opacity:0.1; fill:none" points="
  302.01,259.422 2352.76,259.422 
  "/>
<polyline clip-path="url(#clip730)" style="stroke:#000000; stroke-linecap:butt; stroke-linejoin:round; stroke-width:4; stroke-opacity:1; fill:none" points="
  302.01,1401.58 302.01,123.472 
  "/>
<polyline clip-path="url(#clip730)" style="stroke:#000000; stroke-linecap:butt; stroke-linejoin:round; stroke-width:4; stroke-opacity:1; fill:none" points="
  302.01,1143.25 326.619,1143.25 
  "/>
<polyline clip-path="url(#clip730)" style="stroke:#000000; stroke-linecap:butt; stroke-linejoin:round; stroke-width:4; stroke-opacity:1; fill:none" points="
  302.01,848.644 326.619,848.644 
  "/>
<polyline clip-path="url(#clip730)" style="stroke:#000000; stroke-linecap:butt; stroke-linejoin:round; stroke-width:4; stroke-opacity:1; fill:none" points="
  302.01,554.033 326.619,554.033 
  "/>
<polyline clip-path="url(#clip730)" style="stroke:#000000; stroke-linecap:butt; stroke-linejoin:round; stroke-width:4; stroke-opacity:1; fill:none" points="
  302.01,259.422 326.619,259.422 
  "/>
<path clip-path="url(#clip730)" d="M136.497 1121.95 Q131.08 1121.95 128.337 1127.3 Q125.629 1132.61 125.629 1143.31 Q125.629 1153.97 128.337 1159.31 Q131.08 1164.63 136.497 1164.63 Q141.948 1164.63 144.656 1159.31 Q147.399 1153.97 147.399 1143.31 Q147.399 1132.61 144.656 1127.3 Q141.948 1121.95 136.497 1121.95 M136.497 1116.4 Q145.212 1116.4 149.795 1123.31 Q154.413 1130.18 154.413 1143.31 Q154.413 1156.4 149.795 1163.31 Q145.212 1170.18 136.497 1170.18 Q127.781 1170.18 123.163 1163.31 Q118.58 1156.4 118.58 1143.31 Q118.58 1130.18 123.163 1123.31 Q127.781 1116.4 136.497 1116.4 Z" fill="#000000" fill-rule="evenodd" fill-opacity="1" /><path clip-path="url(#clip730)" d="M166.74 1160.36 L174.066 1160.36 L174.066 1169.17 L166.74 1169.17 L166.74 1160.36 Z" fill="#000000" fill-rule="evenodd" fill-opacity="1" /><path clip-path="url(#clip730)" d="M187.573 1117.33 L220.906 1117.33 L220.906 1120.32 L202.087 1169.17 L194.76 1169.17 L212.469 1123.24 L187.573 1123.24 L187.573 1117.33 Z" fill="#000000" fill-rule="evenodd" fill-opacity="1" /><path clip-path="url(#clip730)" d="M234.656 1117.33 L262.19 1117.33 L262.19 1123.24 L241.08 1123.24 L241.08 1135.95 Q242.607 1135.42 244.135 1135.18 Q245.663 1134.9 247.191 1134.9 Q255.871 1134.9 260.941 1139.66 Q266.01 1144.42 266.01 1152.54 Q266.01 1160.91 260.802 1165.56 Q255.593 1170.18 246.114 1170.18 Q242.85 1170.18 239.448 1169.63 Q236.08 1169.07 232.468 1167.96 L232.468 1160.91 Q235.593 1162.61 238.927 1163.45 Q242.26 1164.28 245.975 1164.28 Q251.982 1164.28 255.489 1161.12 Q258.996 1157.96 258.996 1152.54 Q258.996 1147.13 255.489 1143.97 Q251.982 1140.81 245.975 1140.81 Q243.163 1140.81 240.35 1141.43 Q237.573 1142.06 234.656 1143.38 L234.656 1117.33 Z" fill="#000000" fill-rule="evenodd" fill-opacity="1" /><path clip-path="url(#clip730)" d="M121.219 868.661 L132.677 868.661 L132.677 829.113 L120.212 831.613 L120.212 825.224 L132.608 822.724 L139.622 822.724 L139.622 868.661 L151.08 868.661 L151.08 874.564 L121.219 874.564 L121.219 868.661 Z" fill="#000000" fill-rule="evenodd" fill-opacity="1" /><path clip-path="url(#clip730)" d="M165.247 865.744 L172.573 865.744 L172.573 874.564 L165.247 874.564 L165.247 865.744 Z" fill="#000000" fill-rule="evenodd" fill-opacity="1" /><path clip-path="url(#clip730)" d="M202.851 827.342 Q197.434 827.342 194.691 832.689 Q191.983 838.001 191.983 848.696 Q191.983 859.355 194.691 864.703 Q197.434 870.015 202.851 870.015 Q208.302 870.015 211.01 864.703 Q213.753 859.355 213.753 848.696 Q213.753 838.001 211.01 832.689 Q208.302 827.342 202.851 827.342 M202.851 821.786 Q211.566 821.786 216.149 828.696 Q220.767 835.571 220.767 848.696 Q220.767 861.786 216.149 868.696 Q211.566 875.571 202.851 875.571 Q194.135 875.571 189.517 868.696 Q184.934 861.786 184.934 848.696 Q184.934 835.571 189.517 828.696 Q194.135 821.786 202.851 821.786 Z" fill="#000000" fill-rule="evenodd" fill-opacity="1" /><path clip-path="url(#clip730)" d="M248.093 827.342 Q242.677 827.342 239.934 832.689 Q237.225 838.001 237.225 848.696 Q237.225 859.355 239.934 864.703 Q242.677 870.015 248.093 870.015 Q253.545 870.015 256.253 864.703 Q258.996 859.355 258.996 848.696 Q258.996 838.001 256.253 832.689 Q253.545 827.342 248.093 827.342 M248.093 821.786 Q256.809 821.786 261.392 828.696 Q266.01 835.571 266.01 848.696 Q266.01 861.786 261.392 868.696 Q256.809 875.571 248.093 875.571 Q239.378 875.571 234.76 868.696 Q230.177 861.786 230.177 848.696 Q230.177 835.571 234.76 828.696 Q239.378 821.786 248.093 821.786 Z" fill="#000000" fill-rule="evenodd" fill-opacity="1" /><path clip-path="url(#clip730)" d="M122.712 574.05 L134.17 574.05 L134.17 534.501 L121.705 537.001 L121.705 530.613 L134.101 528.113 L141.115 528.113 L141.115 574.05 L152.573 574.05 L152.573 579.953 L122.712 579.953 L122.712 574.05 Z" fill="#000000" fill-rule="evenodd" fill-opacity="1" /><path clip-path="url(#clip730)" d="M166.74 571.133 L174.066 571.133 L174.066 579.953 L166.74 579.953 L166.74 571.133 Z" fill="#000000" fill-rule="evenodd" fill-opacity="1" /><path clip-path="url(#clip730)" d="M195.385 574.05 L219.864 574.05 L219.864 579.953 L186.948 579.953 L186.948 574.05 Q190.941 569.918 197.816 562.974 Q204.726 555.994 206.496 553.981 Q209.864 550.196 211.184 547.592 Q212.538 544.953 212.538 542.418 Q212.538 538.286 209.621 535.682 Q206.739 533.078 202.087 533.078 Q198.788 533.078 195.108 534.224 Q191.462 535.37 187.295 537.696 L187.295 530.613 Q191.531 528.911 195.212 528.043 Q198.892 527.175 201.948 527.175 Q210.003 527.175 214.795 531.203 Q219.587 535.231 219.587 541.967 Q219.587 545.161 218.371 548.043 Q217.191 550.89 214.031 554.779 Q213.163 555.786 208.51 560.612 Q203.857 565.404 195.385 574.05 Z" fill="#000000" fill-rule="evenodd" fill-opacity="1" /><path clip-path="url(#clip730)" d="M234.656 528.113 L262.19 528.113 L262.19 534.015 L241.08 534.015 L241.08 546.724 Q242.607 546.203 244.135 545.96 Q245.663 545.682 247.191 545.682 Q255.871 545.682 260.941 550.439 Q266.01 555.196 266.01 563.321 Q266.01 571.689 260.802 576.342 Q255.593 580.96 246.114 580.96 Q242.85 580.96 239.448 580.404 Q236.08 579.848 232.468 578.737 L232.468 571.689 Q235.593 573.39 238.927 574.224 Q242.26 575.057 245.975 575.057 Q251.982 575.057 255.489 571.897 Q258.996 568.737 258.996 563.321 Q258.996 557.904 255.489 554.744 Q251.982 551.585 245.975 551.585 Q243.163 551.585 240.35 552.21 Q237.573 552.835 234.656 554.154 L234.656 528.113 Z" fill="#000000" fill-rule="evenodd" fill-opacity="1" /><path clip-path="url(#clip730)" d="M121.219 279.439 L132.677 279.439 L132.677 239.89 L120.212 242.39 L120.212 236.002 L132.608 233.502 L139.622 233.502 L139.622 279.439 L151.08 279.439 L151.08 285.342 L121.219 285.342 L121.219 279.439 Z" fill="#000000" fill-rule="evenodd" fill-opacity="1" /><path clip-path="url(#clip730)" d="M165.247 276.522 L172.573 276.522 L172.573 285.342 L165.247 285.342 L165.247 276.522 Z" fill="#000000" fill-rule="evenodd" fill-opacity="1" /><path clip-path="url(#clip730)" d="M187.92 233.502 L215.455 233.502 L215.455 239.404 L194.344 239.404 L194.344 252.113 Q195.871 251.592 197.399 251.349 Q198.927 251.071 200.455 251.071 Q209.135 251.071 214.205 255.828 Q219.274 260.585 219.274 268.71 Q219.274 277.078 214.066 281.73 Q208.857 286.349 199.378 286.349 Q196.114 286.349 192.712 285.793 Q189.344 285.237 185.733 284.126 L185.733 277.078 Q188.858 278.779 192.191 279.612 Q195.524 280.446 199.239 280.446 Q205.246 280.446 208.753 277.286 Q212.26 274.126 212.26 268.71 Q212.26 263.293 208.753 260.133 Q205.246 256.974 199.239 256.974 Q196.427 256.974 193.614 257.599 Q190.837 258.224 187.92 259.543 L187.92 233.502 Z" fill="#000000" fill-rule="evenodd" fill-opacity="1" /><path clip-path="url(#clip730)" d="M248.093 238.12 Q242.677 238.12 239.934 243.467 Q237.225 248.779 237.225 259.474 Q237.225 270.133 239.934 275.481 Q242.677 280.793 248.093 280.793 Q253.545 280.793 256.253 275.481 Q258.996 270.133 258.996 259.474 Q258.996 248.779 256.253 243.467 Q253.545 238.12 248.093 238.12 M248.093 232.564 Q256.809 232.564 261.392 239.474 Q266.01 246.349 266.01 259.474 Q266.01 272.564 261.392 279.474 Q256.809 286.349 248.093 286.349 Q239.378 286.349 234.76 279.474 Q230.177 272.564 230.177 259.474 Q230.177 246.349 234.76 239.474 Q239.378 232.564 248.093 232.564 Z" fill="#000000" fill-rule="evenodd" fill-opacity="1" /><path clip-path="url(#clip730)" d="M35.6047 1045.01 Q31.2992 1042.61 29.2506 1039.28 Q27.202 1035.94 27.202 1031.43 Q27.202 1025.35 31.4728 1022.06 Q35.7089 1018.76 43.5561 1018.76 L67.0282 1018.76 L67.0282 1025.18 L43.7644 1025.18 Q38.1741 1025.18 35.4658 1027.16 Q32.7575 1029.14 32.7575 1033.2 Q32.7575 1038.17 36.0561 1041.05 Q39.3547 1043.93 45.0491 1043.93 L67.0282 1043.93 L67.0282 1050.35 L43.7644 1050.35 Q38.1394 1050.35 35.4658 1052.33 Q32.7575 1054.31 32.7575 1058.44 Q32.7575 1063.34 36.0908 1066.22 Q39.3894 1069.1 45.0491 1069.1 L67.0282 1069.1 L67.0282 1075.53 L28.1395 1075.53 L28.1395 1069.1 L34.1811 1069.1 Q30.6047 1066.92 28.9034 1063.86 Q27.202 1060.81 27.202 1056.6 Q27.202 1052.37 29.3547 1049.42 Q31.5075 1046.43 35.6047 1045.01 Z" fill="#000000" fill-rule="evenodd" fill-opacity="1" /><path clip-path="url(#clip730)" d="M47.4797 988.341 Q47.4797 996.084 49.2505 999.07 Q51.0213 1002.06 55.2921 1002.06 Q58.6949 1002.06 60.7087 999.834 Q62.6879 997.577 62.6879 993.723 Q62.6879 988.41 58.9379 985.216 Q55.1532 981.987 48.9033 981.987 L47.4797 981.987 L47.4797 988.341 M44.8408 975.598 L67.0282 975.598 L67.0282 981.987 L61.1254 981.987 Q64.6671 984.174 66.3684 987.438 Q68.0351 990.702 68.0351 995.424 Q68.0351 1001.4 64.7018 1004.94 Q61.3337 1008.44 55.7088 1008.44 Q49.1463 1008.44 45.813 1004.07 Q42.4797 999.66 42.4797 990.945 L42.4797 981.987 L41.8547 981.987 Q37.445 981.987 35.0492 984.903 Q32.6186 987.785 32.6186 993.028 Q32.6186 996.362 33.4172 999.521 Q34.2158 1002.68 35.813 1005.6 L29.9103 1005.6 Q28.5561 1002.09 27.8964 998.792 Q27.202 995.493 27.202 992.369 Q27.202 983.931 31.577 979.764 Q35.9519 975.598 44.8408 975.598 Z" fill="#000000" fill-rule="evenodd" fill-opacity="1" /><path clip-path="url(#clip730)" d="M29.2853 937.647 L35.3269 937.647 Q33.9381 940.355 33.2436 943.272 Q32.5492 946.188 32.5492 949.313 Q32.5492 954.07 34.0075 956.466 Q35.4658 958.827 38.3825 958.827 Q40.6047 958.827 41.8894 957.126 Q43.1394 955.424 44.2852 950.285 L44.7713 948.098 Q46.2297 941.292 48.9033 938.445 Q51.5421 935.563 56.299 935.563 Q61.7157 935.563 64.8754 939.869 Q68.0351 944.14 68.0351 951.64 Q68.0351 954.765 67.4101 958.167 Q66.8198 961.535 65.6046 965.285 L59.0074 965.285 Q60.8476 961.744 61.7851 958.306 Q62.6879 954.869 62.6879 951.501 Q62.6879 946.987 61.1601 944.556 Q59.5976 942.126 56.7852 942.126 Q54.181 942.126 52.7921 943.897 Q51.4032 945.633 50.1185 951.57 L49.5977 953.792 Q48.3477 959.73 45.7783 962.369 Q43.1741 965.008 38.6603 965.008 Q33.1742 965.008 30.1881 961.119 Q27.202 957.23 27.202 950.077 Q27.202 946.535 27.7228 943.41 Q28.2436 940.285 29.2853 937.647 Z" fill="#000000" fill-rule="evenodd" fill-opacity="1" /><path clip-path="url(#clip730)" d="M29.2853 900.598 L35.3269 900.598 Q33.9381 903.306 33.2436 906.223 Q32.5492 909.14 32.5492 912.265 Q32.5492 917.022 34.0075 919.418 Q35.4658 921.779 38.3825 921.779 Q40.6047 921.779 41.8894 920.077 Q43.1394 918.376 44.2852 913.237 L44.7713 911.049 Q46.2297 904.244 48.9033 901.397 Q51.5421 898.515 56.299 898.515 Q61.7157 898.515 64.8754 902.82 Q68.0351 907.091 68.0351 914.591 Q68.0351 917.716 67.4101 921.119 Q66.8198 924.487 65.6046 928.237 L59.0074 928.237 Q60.8476 924.695 61.7851 921.258 Q62.6879 917.82 62.6879 914.452 Q62.6879 909.938 61.1601 907.508 Q59.5976 905.077 56.7852 905.077 Q54.181 905.077 52.7921 906.848 Q51.4032 908.584 50.1185 914.522 L49.5977 916.744 Q48.3477 922.681 45.7783 925.32 Q43.1741 927.959 38.6603 927.959 Q33.1742 927.959 30.1881 924.07 Q27.202 920.181 27.202 913.029 Q27.202 909.487 27.7228 906.362 Q28.2436 903.237 29.2853 900.598 Z" fill="#000000" fill-rule="evenodd" fill-opacity="1" /><path clip-path="url(#clip730)" d="M61.1949 859.557 L81.8197 859.557 L81.8197 865.98 L28.1395 865.98 L28.1395 859.557 L34.0422 859.557 Q30.57 857.543 28.9034 854.487 Q27.202 851.397 27.202 847.126 Q27.202 840.043 32.827 835.633 Q38.4519 831.189 47.6185 831.189 Q56.7852 831.189 62.4101 835.633 Q68.0351 840.043 68.0351 847.126 Q68.0351 851.397 66.3684 854.487 Q64.6671 857.543 61.1949 859.557 M47.6185 837.821 Q40.57 837.821 36.5769 840.737 Q32.5492 843.619 32.5492 848.689 Q32.5492 853.758 36.5769 856.675 Q40.57 859.557 47.6185 859.557 Q54.6671 859.557 58.6949 856.675 Q62.6879 853.758 62.6879 848.689 Q62.6879 843.619 58.6949 840.737 Q54.6671 837.821 47.6185 837.821 Z" fill="#000000" fill-rule="evenodd" fill-opacity="1" /><path clip-path="url(#clip730)" d="M32.6186 805.529 Q32.6186 810.668 36.6464 813.654 Q40.6394 816.64 47.6185 816.64 Q54.5977 816.64 58.6254 813.689 Q62.6185 810.703 62.6185 805.529 Q62.6185 800.425 58.5907 797.439 Q54.5629 794.453 47.6185 794.453 Q40.7089 794.453 36.6811 797.439 Q32.6186 800.425 32.6186 805.529 M27.202 805.529 Q27.202 797.196 32.6186 792.439 Q38.0353 787.682 47.6185 787.682 Q57.1671 787.682 62.6185 792.439 Q68.0351 797.196 68.0351 805.529 Q68.0351 813.897 62.6185 818.654 Q57.1671 823.376 47.6185 823.376 Q38.0353 823.376 32.6186 818.654 Q27.202 813.897 27.202 805.529 Z" fill="#000000" fill-rule="evenodd" fill-opacity="1" /><path clip-path="url(#clip730)" d="M29.2853 752.3 L35.3269 752.3 Q33.9381 755.009 33.2436 757.925 Q32.5492 760.842 32.5492 763.967 Q32.5492 768.724 34.0075 771.12 Q35.4658 773.481 38.3825 773.481 Q40.6047 773.481 41.8894 771.779 Q43.1394 770.078 44.2852 764.939 L44.7713 762.752 Q46.2297 755.946 48.9033 753.099 Q51.5421 750.217 56.299 750.217 Q61.7157 750.217 64.8754 754.523 Q68.0351 758.793 68.0351 766.293 Q68.0351 769.418 67.4101 772.821 Q66.8198 776.189 65.6046 779.939 L59.0074 779.939 Q60.8476 776.397 61.7851 772.96 Q62.6879 769.522 62.6879 766.154 Q62.6879 761.641 61.1601 759.21 Q59.5976 756.779 56.7852 756.779 Q54.181 756.779 52.7921 758.55 Q51.4032 760.286 50.1185 766.224 L49.5977 768.446 Q48.3477 774.384 45.7783 777.022 Q43.1741 779.661 38.6603 779.661 Q33.1742 779.661 30.1881 775.772 Q27.202 771.884 27.202 764.731 Q27.202 761.189 27.7228 758.064 Q28.2436 754.939 29.2853 752.3 Z" fill="#000000" fill-rule="evenodd" fill-opacity="1" /><path clip-path="url(#clip730)" d="M28.1395 740.043 L28.1395 733.655 L67.0282 733.655 L67.0282 740.043 L28.1395 740.043 M13.0007 740.043 L13.0007 733.655 L21.0909 733.655 L21.0909 740.043 L13.0007 740.043 Z" fill="#000000" fill-rule="evenodd" fill-opacity="1" /><path clip-path="url(#clip730)" d="M17.0979 713.967 L28.1395 713.967 L28.1395 700.808 L33.1047 700.808 L33.1047 713.967 L54.2157 713.967 Q58.9726 713.967 60.3268 712.683 Q61.681 711.363 61.681 707.37 L61.681 700.808 L67.0282 700.808 L67.0282 707.37 Q67.0282 714.766 64.2851 717.578 Q61.5074 720.391 54.2157 720.391 L33.1047 720.391 L33.1047 725.078 L28.1395 725.078 L28.1395 720.391 L17.0979 720.391 L17.0979 713.967 Z" fill="#000000" fill-rule="evenodd" fill-opacity="1" /><path clip-path="url(#clip730)" d="M28.1395 692.405 L28.1395 686.016 L67.0282 686.016 L67.0282 692.405 L28.1395 692.405 M13.0007 692.405 L13.0007 686.016 L21.0909 686.016 L21.0909 692.405 L13.0007 692.405 Z" fill="#000000" fill-rule="evenodd" fill-opacity="1" /><path clip-path="url(#clip730)" d="M32.6186 657.579 Q32.6186 662.717 36.6464 665.704 Q40.6394 668.69 47.6185 668.69 Q54.5977 668.69 58.6254 665.738 Q62.6185 662.752 62.6185 657.579 Q62.6185 652.474 58.5907 649.488 Q54.5629 646.502 47.6185 646.502 Q40.7089 646.502 36.6811 649.488 Q32.6186 652.474 32.6186 657.579 M27.202 657.579 Q27.202 649.245 32.6186 644.488 Q38.0353 639.732 47.6185 639.732 Q57.1671 639.732 62.6185 644.488 Q68.0351 649.245 68.0351 657.579 Q68.0351 665.947 62.6185 670.704 Q57.1671 675.426 47.6185 675.426 Q38.0353 675.426 32.6186 670.704 Q27.202 665.947 27.202 657.579 Z" fill="#000000" fill-rule="evenodd" fill-opacity="1" /><path clip-path="url(#clip730)" d="M43.5561 596.815 L67.0282 596.815 L67.0282 603.204 L43.7644 603.204 Q38.2436 603.204 35.5005 605.357 Q32.7575 607.509 32.7575 611.815 Q32.7575 616.989 36.0561 619.975 Q39.3547 622.961 45.0491 622.961 L67.0282 622.961 L67.0282 629.384 L28.1395 629.384 L28.1395 622.961 L34.1811 622.961 Q30.6742 620.669 28.9381 617.579 Q27.202 614.454 27.202 610.391 Q27.202 603.69 31.3686 600.253 Q35.5005 596.815 43.5561 596.815 Z" fill="#000000" fill-rule="evenodd" fill-opacity="1" /><path clip-path="url(#clip730)" d="M13.0007 562.058 L13.0007 547.336 L17.9659 547.336 L17.9659 555.669 L71.4379 555.669 L71.4379 547.336 L76.4031 547.336 L76.4031 562.058 L13.0007 562.058 Z" fill="#000000" fill-rule="evenodd" fill-opacity="1" /><path clip-path="url(#clip730)" d="M35.6047 503.448 Q31.2992 501.052 29.2506 497.718 Q27.202 494.385 27.202 489.871 Q27.202 483.795 31.4728 480.496 Q35.7089 477.198 43.5561 477.198 L67.0282 477.198 L67.0282 483.621 L43.7644 483.621 Q38.1741 483.621 35.4658 485.6 Q32.7575 487.58 32.7575 491.642 Q32.7575 496.607 36.0561 499.489 Q39.3547 502.371 45.0491 502.371 L67.0282 502.371 L67.0282 508.795 L43.7644 508.795 Q38.1394 508.795 35.4658 510.774 Q32.7575 512.753 32.7575 516.885 Q32.7575 521.781 36.0908 524.663 Q39.3894 527.545 45.0491 527.545 L67.0282 527.545 L67.0282 533.968 L28.1395 533.968 L28.1395 527.545 L34.1811 527.545 Q30.6047 525.357 28.9034 522.302 Q27.202 519.246 27.202 515.045 Q27.202 510.809 29.3547 507.857 Q31.5075 504.871 35.6047 503.448 Z" fill="#000000" fill-rule="evenodd" fill-opacity="1" /><path clip-path="url(#clip730)" d="M13.0007 449.524 L76.4031 449.524 L76.4031 464.246 L71.4379 464.246 L71.4379 455.948 L17.9659 455.948 L17.9659 464.246 L13.0007 464.246 L13.0007 449.524 Z" fill="#000000" fill-rule="evenodd" fill-opacity="1" /><path clip-path="url(#clip730)" d="M591.597 12.096 L603.79 12.096 L619.224 53.2532 L634.739 12.096 L646.932 12.096 L646.932 72.576 L638.952 72.576 L638.952 19.4686 L623.356 60.9499 L615.133 60.9499 L599.537 19.4686 L599.537 72.576 L591.597 72.576 L591.597 12.096 Z" fill="#000000" fill-rule="evenodd" fill-opacity="1" /><path clip-path="url(#clip730)" d="M680.433 32.4315 Q674.438 32.4315 670.954 37.1306 Q667.47 41.7891 667.47 49.9314 Q667.47 58.0738 670.914 62.7728 Q674.397 67.4314 680.433 67.4314 Q686.388 67.4314 689.872 62.7323 Q693.356 58.0333 693.356 49.9314 Q693.356 41.8701 689.872 37.1711 Q686.388 32.4315 680.433 32.4315 M680.433 26.1121 Q690.155 26.1121 695.705 32.4315 Q701.255 38.7509 701.255 49.9314 Q701.255 61.0714 695.705 67.4314 Q690.155 73.7508 680.433 73.7508 Q670.671 73.7508 665.121 67.4314 Q659.612 61.0714 659.612 49.9314 Q659.612 38.7509 665.121 32.4315 Q670.671 26.1121 680.433 26.1121 Z" fill="#000000" fill-rule="evenodd" fill-opacity="1" /><path clip-path="url(#clip730)" d="M743.465 34.0924 L743.465 9.54393 L750.919 9.54393 L750.919 72.576 L743.465 72.576 L743.465 65.7705 Q741.116 69.8214 737.51 71.8063 Q733.946 73.7508 728.923 73.7508 Q720.699 73.7508 715.514 67.1883 Q710.369 60.6258 710.369 49.9314 Q710.369 39.2371 715.514 32.6746 Q720.699 26.1121 728.923 26.1121 Q733.946 26.1121 737.51 28.0971 Q741.116 30.0415 743.465 34.0924 M718.066 49.9314 Q718.066 58.1548 721.428 62.8538 Q724.831 67.5124 730.745 67.5124 Q736.66 67.5124 740.063 62.8538 Q743.465 58.1548 743.465 49.9314 Q743.465 41.7081 740.063 37.0496 Q736.66 32.3505 730.745 32.3505 Q724.831 32.3505 721.428 37.0496 Q718.066 41.7081 718.066 49.9314 Z" fill="#000000" fill-rule="evenodd" fill-opacity="1" /><path clip-path="url(#clip730)" d="M766.272 27.2059 L773.726 27.2059 L773.726 72.576 L766.272 72.576 L766.272 27.2059 M766.272 9.54393 L773.726 9.54393 L773.726 18.9825 L766.272 18.9825 L766.272 9.54393 Z" fill="#000000" fill-rule="evenodd" fill-opacity="1" /><path clip-path="url(#clip730)" d="M812.29 9.54393 L812.29 15.7418 L805.161 15.7418 Q801.15 15.7418 799.57 17.3622 Q798.031 18.9825 798.031 23.1955 L798.031 27.2059 L810.305 27.2059 L810.305 32.9987 L798.031 32.9987 L798.031 72.576 L790.537 72.576 L790.537 32.9987 L783.407 32.9987 L783.407 27.2059 L790.537 27.2059 L790.537 24.0462 Q790.537 16.471 794.061 13.0277 Q797.585 9.54393 805.242 9.54393 L812.29 9.54393 Z" fill="#000000" fill-rule="evenodd" fill-opacity="1" /><path clip-path="url(#clip730)" d="M818.529 27.2059 L825.982 27.2059 L825.982 72.576 L818.529 72.576 L818.529 27.2059 M818.529 9.54393 L825.982 9.54393 L825.982 18.9825 L818.529 18.9825 L818.529 9.54393 Z" fill="#000000" fill-rule="evenodd" fill-opacity="1" /><path clip-path="url(#clip730)" d="M880.386 48.0275 L880.386 51.6733 L846.115 51.6733 Q846.601 59.3701 850.733 63.421 Q854.906 67.4314 862.319 67.4314 Q866.613 67.4314 870.623 66.3781 Q874.674 65.3249 878.644 63.2184 L878.644 70.267 Q874.634 71.9684 870.421 72.8596 Q866.208 73.7508 861.873 73.7508 Q851.017 73.7508 844.657 67.4314 Q838.338 61.1119 838.338 50.3365 Q838.338 39.1965 844.333 32.6746 Q850.369 26.1121 860.577 26.1121 Q869.732 26.1121 875.039 32.0264 Q880.386 37.9003 880.386 48.0275 M872.932 45.84 Q872.851 39.7232 869.489 36.0774 Q866.167 32.4315 860.658 32.4315 Q854.42 32.4315 850.652 35.9558 Q846.925 39.4801 846.358 45.8805 L872.932 45.84 Z" fill="#000000" fill-rule="evenodd" fill-opacity="1" /><path clip-path="url(#clip730)" d="M922.475 34.0924 L922.475 9.54393 L929.928 9.54393 L929.928 72.576 L922.475 72.576 L922.475 65.7705 Q920.125 69.8214 916.52 71.8063 Q912.955 73.7508 907.932 73.7508 Q899.709 73.7508 894.524 67.1883 Q889.379 60.6258 889.379 49.9314 Q889.379 39.2371 894.524 32.6746 Q899.709 26.1121 907.932 26.1121 Q912.955 26.1121 916.52 28.0971 Q920.125 30.0415 922.475 34.0924 M897.076 49.9314 Q897.076 58.1548 900.438 62.8538 Q903.841 67.5124 909.755 67.5124 Q915.669 67.5124 919.072 62.8538 Q922.475 58.1548 922.475 49.9314 Q922.475 41.7081 919.072 37.0496 Q915.669 32.3505 909.755 32.3505 Q903.841 32.3505 900.438 37.0496 Q897.076 41.7081 897.076 49.9314 Z" fill="#000000" fill-rule="evenodd" fill-opacity="1" /><path clip-path="url(#clip730)" d="M947.185 62.2867 L955.733 62.2867 L955.733 72.576 L947.185 72.576 L947.185 62.2867 M947.185 29.6769 L955.733 29.6769 L955.733 39.9662 L947.185 39.9662 L947.185 29.6769 Z" fill="#000000" fill-rule="evenodd" fill-opacity="1" /><path clip-path="url(#clip730)" d="M999.928 12.096 L1012.12 12.096 L1027.56 53.2532 L1043.07 12.096 L1055.26 12.096 L1055.26 72.576 L1047.28 72.576 L1047.28 19.4686 L1031.69 60.9499 L1023.46 60.9499 L1007.87 19.4686 L1007.87 72.576 L999.928 72.576 L999.928 12.096 Z" fill="#000000" fill-rule="evenodd" fill-opacity="1" /><path clip-path="url(#clip730)" d="M1091.8 49.7694 Q1082.77 49.7694 1079.29 51.8354 Q1075.8 53.9013 1075.8 58.8839 Q1075.8 62.8538 1078.39 65.2034 Q1081.03 67.5124 1085.52 67.5124 Q1091.72 67.5124 1095.45 63.1374 Q1099.22 58.7219 1099.22 51.4303 L1099.22 49.7694 L1091.8 49.7694 M1106.67 46.6907 L1106.67 72.576 L1099.22 72.576 L1099.22 65.6895 Q1096.66 69.8214 1092.86 71.8063 Q1089.05 73.7508 1083.54 73.7508 Q1076.57 73.7508 1072.44 69.8619 Q1068.35 65.9325 1068.35 59.3701 Q1068.35 51.7138 1073.45 47.825 Q1078.6 43.9361 1088.76 43.9361 L1099.22 43.9361 L1099.22 43.2069 Q1099.22 38.0623 1095.81 35.2672 Q1092.45 32.4315 1086.33 32.4315 Q1082.44 32.4315 1078.76 33.3632 Q1075.07 34.295 1071.67 36.1584 L1071.67 29.2718 Q1075.76 27.692 1079.61 26.9223 Q1083.46 26.1121 1087.1 26.1121 Q1096.95 26.1121 1101.81 31.2163 Q1106.67 36.3204 1106.67 46.6907 Z" fill="#000000" fill-rule="evenodd" fill-opacity="1" /><path clip-path="url(#clip730)" d="M1150.95 28.5427 L1150.95 35.5912 Q1147.79 33.9709 1144.38 33.1607 Q1140.98 32.3505 1137.33 32.3505 Q1131.79 32.3505 1128.99 34.0519 Q1126.24 35.7533 1126.24 39.156 Q1126.24 41.7486 1128.22 43.2475 Q1130.21 44.7058 1136.2 46.0426 L1138.75 46.6097 Q1146.69 48.3111 1150.01 51.4303 Q1153.38 54.509 1153.38 60.0587 Q1153.38 66.3781 1148.35 70.0644 Q1143.37 73.7508 1134.62 73.7508 Q1130.97 73.7508 1127 73.0216 Q1123.08 72.3329 1118.7 70.9151 L1118.7 63.2184 Q1122.83 65.3654 1126.84 66.4591 Q1130.85 67.5124 1134.78 67.5124 Q1140.05 67.5124 1142.88 65.73 Q1145.72 63.9071 1145.72 60.6258 Q1145.72 57.5877 1143.65 55.9673 Q1141.63 54.3469 1134.7 52.8481 L1132.11 52.2405 Q1125.18 50.7821 1122.1 47.7845 Q1119.02 44.7463 1119.02 39.4801 Q1119.02 33.0797 1123.56 29.5959 Q1128.1 26.1121 1136.44 26.1121 Q1140.58 26.1121 1144.22 26.7198 Q1147.87 27.3274 1150.95 28.5427 Z" fill="#000000" fill-rule="evenodd" fill-opacity="1" /><path clip-path="url(#clip730)" d="M1194.17 28.5427 L1194.17 35.5912 Q1191.01 33.9709 1187.61 33.1607 Q1184.2 32.3505 1180.56 32.3505 Q1175.01 32.3505 1172.21 34.0519 Q1169.46 35.7533 1169.46 39.156 Q1169.46 41.7486 1171.44 43.2475 Q1173.43 44.7058 1179.42 46.0426 L1181.98 46.6097 Q1189.92 48.3111 1193.24 51.4303 Q1196.6 54.509 1196.6 60.0587 Q1196.6 66.3781 1191.58 70.0644 Q1186.59 73.7508 1177.84 73.7508 Q1174.2 73.7508 1170.23 73.0216 Q1166.3 72.3329 1161.92 70.9151 L1161.92 63.2184 Q1166.06 65.3654 1170.07 66.4591 Q1174.08 67.5124 1178.01 67.5124 Q1183.27 67.5124 1186.11 65.73 Q1188.94 63.9071 1188.94 60.6258 Q1188.94 57.5877 1186.88 55.9673 Q1184.85 54.3469 1177.92 52.8481 L1175.33 52.2405 Q1168.41 50.7821 1165.33 47.7845 Q1162.25 44.7463 1162.25 39.4801 Q1162.25 33.0797 1166.78 29.5959 Q1171.32 26.1121 1179.67 26.1121 Q1183.8 26.1121 1187.44 26.7198 Q1191.09 27.3274 1194.17 28.5427 Z" fill="#000000" fill-rule="evenodd" fill-opacity="1" /><path clip-path="url(#clip730)" d="M1242.05 65.7705 L1242.05 89.8329 L1234.56 89.8329 L1234.56 27.2059 L1242.05 27.2059 L1242.05 34.0924 Q1244.4 30.0415 1247.96 28.0971 Q1251.57 26.1121 1256.55 26.1121 Q1264.82 26.1121 1269.96 32.6746 Q1275.15 39.2371 1275.15 49.9314 Q1275.15 60.6258 1269.96 67.1883 Q1264.82 73.7508 1256.55 73.7508 Q1251.57 73.7508 1247.96 71.8063 Q1244.4 69.8214 1242.05 65.7705 M1267.41 49.9314 Q1267.41 41.7081 1264.01 37.0496 Q1260.64 32.3505 1254.73 32.3505 Q1248.82 32.3505 1245.41 37.0496 Q1242.05 41.7081 1242.05 49.9314 Q1242.05 58.1548 1245.41 62.8538 Q1248.82 67.5124 1254.73 67.5124 Q1260.64 67.5124 1264.01 62.8538 Q1267.41 58.1548 1267.41 49.9314 Z" fill="#000000" fill-rule="evenodd" fill-opacity="1" /><path clip-path="url(#clip730)" d="M1305.08 32.4315 Q1299.09 32.4315 1295.6 37.1306 Q1292.12 41.7891 1292.12 49.9314 Q1292.12 58.0738 1295.56 62.7728 Q1299.05 67.4314 1305.08 67.4314 Q1311.04 67.4314 1314.52 62.7323 Q1318.01 58.0333 1318.01 49.9314 Q1318.01 41.8701 1314.52 37.1711 Q1311.04 32.4315 1305.08 32.4315 M1305.08 26.1121 Q1314.8 26.1121 1320.35 32.4315 Q1325.9 38.7509 1325.9 49.9314 Q1325.9 61.0714 1320.35 67.4314 Q1314.8 73.7508 1305.08 73.7508 Q1295.32 73.7508 1289.77 67.4314 Q1284.26 61.0714 1284.26 49.9314 Q1284.26 38.7509 1289.77 32.4315 Q1295.32 26.1121 1305.08 26.1121 Z" fill="#000000" fill-rule="evenodd" fill-opacity="1" /><path clip-path="url(#clip730)" d="M1367.18 28.5427 L1367.18 35.5912 Q1364.02 33.9709 1360.62 33.1607 Q1357.22 32.3505 1353.57 32.3505 Q1348.02 32.3505 1345.23 34.0519 Q1342.47 35.7533 1342.47 39.156 Q1342.47 41.7486 1344.46 43.2475 Q1346.44 44.7058 1352.44 46.0426 L1354.99 46.6097 Q1362.93 48.3111 1366.25 51.4303 Q1369.61 54.509 1369.61 60.0587 Q1369.61 66.3781 1364.59 70.0644 Q1359.61 73.7508 1350.86 73.7508 Q1347.21 73.7508 1343.24 73.0216 Q1339.31 72.3329 1334.94 70.9151 L1334.94 63.2184 Q1339.07 65.3654 1343.08 66.4591 Q1347.09 67.5124 1351.02 67.5124 Q1356.29 67.5124 1359.12 65.73 Q1361.96 63.9071 1361.96 60.6258 Q1361.96 57.5877 1359.89 55.9673 Q1357.87 54.3469 1350.94 52.8481 L1348.35 52.2405 Q1341.42 50.7821 1338.34 47.7845 Q1335.26 44.7463 1335.26 39.4801 Q1335.26 33.0797 1339.8 29.5959 Q1344.34 26.1121 1352.68 26.1121 Q1356.81 26.1121 1360.46 26.7198 Q1364.1 27.3274 1367.18 28.5427 Z" fill="#000000" fill-rule="evenodd" fill-opacity="1" /><path clip-path="url(#clip730)" d="M1381.48 27.2059 L1388.94 27.2059 L1388.94 72.576 L1381.48 72.576 L1381.48 27.2059 M1381.48 9.54393 L1388.94 9.54393 L1388.94 18.9825 L1381.48 18.9825 L1381.48 9.54393 Z" fill="#000000" fill-rule="evenodd" fill-opacity="1" /><path clip-path="url(#clip730)" d="M1411.91 14.324 L1411.91 27.2059 L1427.26 27.2059 L1427.26 32.9987 L1411.91 32.9987 L1411.91 57.6282 Q1411.91 63.1779 1413.4 64.7578 Q1414.94 66.3376 1419.6 66.3376 L1427.26 66.3376 L1427.26 72.576 L1419.6 72.576 Q1410.97 72.576 1407.69 69.3758 Q1404.41 66.1351 1404.41 57.6282 L1404.41 32.9987 L1398.94 32.9987 L1398.94 27.2059 L1404.41 27.2059 L1404.41 14.324 L1411.91 14.324 Z" fill="#000000" fill-rule="evenodd" fill-opacity="1" /><path clip-path="url(#clip730)" d="M1437.06 27.2059 L1444.51 27.2059 L1444.51 72.576 L1437.06 72.576 L1437.06 27.2059 M1437.06 9.54393 L1444.51 9.54393 L1444.51 18.9825 L1437.06 18.9825 L1437.06 9.54393 Z" fill="#000000" fill-rule="evenodd" fill-opacity="1" /><path clip-path="url(#clip730)" d="M1477.69 32.4315 Q1471.7 32.4315 1468.21 37.1306 Q1464.73 41.7891 1464.73 49.9314 Q1464.73 58.0738 1468.17 62.7728 Q1471.66 67.4314 1477.69 67.4314 Q1483.65 67.4314 1487.13 62.7323 Q1490.61 58.0333 1490.61 49.9314 Q1490.61 41.8701 1487.13 37.1711 Q1483.65 32.4315 1477.69 32.4315 M1477.69 26.1121 Q1487.41 26.1121 1492.96 32.4315 Q1498.51 38.7509 1498.51 49.9314 Q1498.51 61.0714 1492.96 67.4314 Q1487.41 73.7508 1477.69 73.7508 Q1467.93 73.7508 1462.38 67.4314 Q1456.87 61.0714 1456.87 49.9314 Q1456.87 38.7509 1462.38 32.4315 Q1467.93 26.1121 1477.69 26.1121 Z" fill="#000000" fill-rule="evenodd" fill-opacity="1" /><path clip-path="url(#clip730)" d="M1548.58 45.1919 L1548.58 72.576 L1541.13 72.576 L1541.13 45.4349 Q1541.13 38.994 1538.62 35.7938 Q1536.11 32.5936 1531.08 32.5936 Q1525.05 32.5936 1521.56 36.4419 Q1518.08 40.2903 1518.08 46.9338 L1518.08 72.576 L1510.59 72.576 L1510.59 27.2059 L1518.08 27.2059 L1518.08 34.2544 Q1520.75 30.163 1524.36 28.1376 Q1528 26.1121 1532.74 26.1121 Q1540.56 26.1121 1544.57 30.9732 Q1548.58 35.7938 1548.58 45.1919 Z" fill="#000000" fill-rule="evenodd" fill-opacity="1" /><path clip-path="url(#clip730)" d="M1610.44 49.7694 Q1601.41 49.7694 1597.92 51.8354 Q1594.44 53.9013 1594.44 58.8839 Q1594.44 62.8538 1597.03 65.2034 Q1599.66 67.5124 1604.16 67.5124 Q1610.36 67.5124 1614.09 63.1374 Q1617.85 58.7219 1617.85 51.4303 L1617.85 49.7694 L1610.44 49.7694 M1625.31 46.6907 L1625.31 72.576 L1617.85 72.576 L1617.85 65.6895 Q1615.3 69.8214 1611.49 71.8063 Q1607.69 73.7508 1602.18 73.7508 Q1595.21 73.7508 1591.08 69.8619 Q1586.99 65.9325 1586.99 59.3701 Q1586.99 51.7138 1592.09 47.825 Q1597.23 43.9361 1607.4 43.9361 L1617.85 43.9361 L1617.85 43.2069 Q1617.85 38.0623 1614.45 35.2672 Q1611.09 32.4315 1604.97 32.4315 Q1601.08 32.4315 1597.4 33.3632 Q1593.71 34.295 1590.31 36.1584 L1590.31 29.2718 Q1594.4 27.692 1598.25 26.9223 Q1602.09 26.1121 1605.74 26.1121 Q1615.58 26.1121 1620.45 31.2163 Q1625.31 36.3204 1625.31 46.6907 Z" fill="#000000" fill-rule="evenodd" fill-opacity="1" /><path clip-path="url(#clip730)" d="M1663.63 9.54393 L1663.63 15.7418 L1656.5 15.7418 Q1652.49 15.7418 1650.91 17.3622 Q1649.37 18.9825 1649.37 23.1955 L1649.37 27.2059 L1661.64 27.2059 L1661.64 32.9987 L1649.37 32.9987 L1649.37 72.576 L1641.87 72.576 L1641.87 32.9987 L1634.75 32.9987 L1634.75 27.2059 L1641.87 27.2059 L1641.87 24.0462 Q1641.87 16.471 1645.4 13.0277 Q1648.92 9.54393 1656.58 9.54393 L1663.63 9.54393 Z" fill="#000000" fill-rule="evenodd" fill-opacity="1" /><path clip-path="url(#clip730)" d="M1675.78 14.324 L1675.78 27.2059 L1691.13 27.2059 L1691.13 32.9987 L1675.78 32.9987 L1675.78 57.6282 Q1675.78 63.1779 1677.28 64.7578 Q1678.82 66.3376 1683.48 66.3376 L1691.13 66.3376 L1691.13 72.576 L1683.48 72.576 Q1674.85 72.576 1671.57 69.3758 Q1668.29 66.1351 1668.29 57.6282 L1668.29 32.9987 L1662.82 32.9987 L1662.82 27.2059 L1668.29 27.2059 L1668.29 14.324 L1675.78 14.324 Z" fill="#000000" fill-rule="evenodd" fill-opacity="1" /><path clip-path="url(#clip730)" d="M1739.74 48.0275 L1739.74 51.6733 L1705.47 51.6733 Q1705.96 59.3701 1710.09 63.421 Q1714.26 67.4314 1721.68 67.4314 Q1725.97 67.4314 1729.98 66.3781 Q1734.03 65.3249 1738 63.2184 L1738 70.267 Q1733.99 71.9684 1729.78 72.8596 Q1725.57 73.7508 1721.23 73.7508 Q1710.38 73.7508 1704.02 67.4314 Q1697.7 61.1119 1697.7 50.3365 Q1697.7 39.1965 1703.69 32.6746 Q1709.73 26.1121 1719.94 26.1121 Q1729.09 26.1121 1734.4 32.0264 Q1739.74 37.9003 1739.74 48.0275 M1732.29 45.84 Q1732.21 39.7232 1728.85 36.0774 Q1725.53 32.4315 1720.02 32.4315 Q1713.78 32.4315 1710.01 35.9558 Q1706.28 39.4801 1705.72 45.8805 L1732.29 45.84 Z" fill="#000000" fill-rule="evenodd" fill-opacity="1" /><path clip-path="url(#clip730)" d="M1778.27 34.1734 Q1777.01 33.4443 1775.51 33.1202 Q1774.06 32.7556 1772.27 32.7556 Q1765.95 32.7556 1762.55 36.8875 Q1759.19 40.9789 1759.19 48.6757 L1759.19 72.576 L1751.69 72.576 L1751.69 27.2059 L1759.19 27.2059 L1759.19 34.2544 Q1761.54 30.1225 1765.31 28.1376 Q1769.07 26.1121 1774.46 26.1121 Q1775.23 26.1121 1776.16 26.2337 Q1777.09 26.3147 1778.23 26.5172 L1778.27 34.1734 Z" fill="#000000" fill-rule="evenodd" fill-opacity="1" /><path clip-path="url(#clip730)" d="M1841.46 44.2197 Q1844.1 45.1109 1846.57 48.0275 Q1849.08 50.9442 1851.59 56.0483 L1859.89 72.576 L1851.1 72.576 L1843.37 57.061 Q1840.37 50.9847 1837.53 48.9997 Q1834.74 47.0148 1829.88 47.0148 L1820.97 47.0148 L1820.97 72.576 L1812.78 72.576 L1812.78 12.096 L1831.25 12.096 Q1841.62 12.096 1846.73 16.4305 Q1851.83 20.7649 1851.83 29.5149 Q1851.83 35.2267 1849.16 38.994 Q1846.53 42.7613 1841.46 44.2197 M1820.97 18.8205 L1820.97 40.2903 L1831.25 40.2903 Q1837.17 40.2903 1840.17 37.5762 Q1843.2 34.8216 1843.2 29.5149 Q1843.2 24.2082 1840.17 21.5346 Q1837.17 18.8205 1831.25 18.8205 L1820.97 18.8205 Z" fill="#000000" fill-rule="evenodd" fill-opacity="1" /><path clip-path="url(#clip730)" d="M1865.61 54.671 L1865.61 27.2059 L1873.06 27.2059 L1873.06 54.3874 Q1873.06 60.8284 1875.57 64.0691 Q1878.08 67.2693 1883.11 67.2693 Q1889.14 67.2693 1892.63 63.421 Q1896.15 59.5726 1896.15 52.9291 L1896.15 27.2059 L1903.6 27.2059 L1903.6 72.576 L1896.15 72.576 L1896.15 65.6084 Q1893.44 69.7404 1889.83 71.7658 Q1886.27 73.7508 1881.53 73.7508 Q1873.71 73.7508 1869.66 68.8897 Q1865.61 64.0286 1865.61 54.671 M1884.36 26.1121 L1884.36 26.1121 Z" fill="#000000" fill-rule="evenodd" fill-opacity="1" /><path clip-path="url(#clip730)" d="M1956.67 45.1919 L1956.67 72.576 L1949.22 72.576 L1949.22 45.4349 Q1949.22 38.994 1946.71 35.7938 Q1944.19 32.5936 1939.17 32.5936 Q1933.13 32.5936 1929.65 36.4419 Q1926.17 40.2903 1926.17 46.9338 L1926.17 72.576 L1918.67 72.576 L1918.67 27.2059 L1926.17 27.2059 L1926.17 34.2544 Q1928.84 30.163 1932.45 28.1376 Q1936.09 26.1121 1940.83 26.1121 Q1948.65 26.1121 1952.66 30.9732 Q1956.67 35.7938 1956.67 45.1919 Z" fill="#000000" fill-rule="evenodd" fill-opacity="1" /><path clip-path="url(#clip730)" d="M1973.44 62.2867 L1981.99 62.2867 L1981.99 72.576 L1973.44 72.576 L1973.44 62.2867 M1973.44 29.6769 L1981.99 29.6769 L1981.99 39.9662 L1973.44 39.9662 L1973.44 29.6769 Z" fill="#000000" fill-rule="evenodd" fill-opacity="1" /><path clip-path="url(#clip730)" d="M2028.33 65.6895 L2041.7 65.6895 L2041.7 19.5497 L2027.16 22.4663 L2027.16 15.0127 L2041.62 12.096 L2049.8 12.096 L2049.8 65.6895 L2063.17 65.6895 L2063.17 72.576 L2028.33 72.576 L2028.33 65.6895 Z" fill="#000000" fill-rule="evenodd" fill-opacity="1" /><polyline clip-path="url(#clip732)" style="stroke:#009af9; stroke-linecap:butt; stroke-linejoin:round; stroke-width:8; stroke-opacity:1; fill:none" points="
  360.05,848.644 364.887,866.255 369.723,883.732 374.56,901.052 379.397,918.202 384.233,935.164 389.07,951.921 393.907,968.455 398.743,984.755 403.58,1000.8 
  408.417,1016.58 413.253,1032.07 418.09,1047.27 422.927,1062.15 427.763,1076.7 432.6,1090.9 437.437,1104.74 442.273,1118.21 447.11,1131.29 451.947,1143.97 
  456.783,1156.24 461.62,1168.08 466.457,1179.49 471.293,1190.45 476.13,1200.95 480.967,1210.98 485.803,1220.52 490.64,1229.58 495.477,1238.14 500.313,1246.19 
  505.15,1253.73 509.987,1260.74 514.823,1267.22 519.66,1273.17 524.497,1278.57 529.333,1283.43 534.17,1287.73 539.007,1291.48 543.843,1294.66 548.68,1297.28 
  553.517,1299.34 558.353,1300.83 563.19,1301.74 568.027,1302.09 572.863,1301.86 577.7,1301.07 582.536,1299.7 587.373,1297.77 592.21,1295.26 597.046,1292.2 
  601.883,1288.57 606.72,1284.38 611.556,1279.64 616.393,1274.35 621.23,1268.52 626.066,1262.15 630.903,1255.25 635.74,1247.82 640.576,1239.88 645.413,1231.43 
  650.25,1222.48 655.086,1213.03 659.923,1203.1 664.76,1192.71 669.596,1181.85 674.433,1170.53 679.27,1158.78 684.106,1146.6 688.943,1134.01 693.78,1121.01 
  698.616,1107.62 703.453,1093.86 708.29,1079.73 713.126,1065.25 717.963,1050.44 722.8,1035.31 727.636,1019.87 732.473,1004.15 737.31,988.152 742.146,971.897 
  746.983,955.4 751.82,938.679 756.656,921.75 761.493,904.63 766.33,887.336 771.166,869.885 776.003,852.296 780.84,834.584 785.676,816.769 790.513,798.867 
  795.35,780.897 800.186,762.878 805.023,744.826 809.86,726.762 814.696,708.7 819.533,690.66 824.37,672.66 829.206,654.719 834.043,636.854 838.88,619.084 
  843.716,601.425 848.553,583.896 853.39,566.514 858.226,549.296 863.063,532.259 867.9,515.422 872.736,498.8 877.573,482.41 882.41,466.269 887.246,450.393 
  892.083,434.797 896.92,419.497 901.756,404.509 906.593,389.847 911.43,375.526 916.266,361.56 921.103,347.964 925.94,334.751 930.776,321.934 935.613,309.526 
  940.45,297.539 945.286,285.984 950.123,274.875 954.96,264.223 959.796,254.037 964.633,244.328 969.47,235.105 974.306,226.377 979.143,218.154 983.98,210.444 
  988.816,203.254 993.653,196.592 998.49,190.465 1003.33,184.877 1008.16,179.836 1013,175.344 1017.84,171.409 1022.67,168.033 1027.51,165.221 1032.35,162.974 
  1037.18,161.295 1042.02,160.185 1046.86,159.645 1051.69,159.676 1056.53,160.279 1061.37,161.453 1066.2,163.197 1071.04,165.508 1075.88,168.383 1080.71,171.821 
  1085.55,175.817 1090.39,180.37 1095.22,185.473 1100.06,191.121 1104.9,197.309 1109.73,204.03 1114.57,211.277 1119.41,219.043 1124.24,227.322 1129.08,236.105 
  1133.92,245.382 1138.75,255.145 1143.59,265.383 1148.43,276.086 1153.26,287.243 1158.1,298.844 1162.94,310.878 1167.77,323.332 1172.61,336.193 1177.45,349.448 
  1182.28,363.084 1187.12,377.088 1191.96,391.445 1196.79,406.142 1201.63,421.164 1206.47,436.495 1211.3,452.121 1216.14,468.025 1220.98,484.191 1225.81,500.603 
  1230.65,517.247 1235.49,534.104 1240.32,551.157 1245.16,568.39 1250,585.786 1254.83,603.325 1259.67,620.992 1264.51,638.77 1269.34,656.639 1274.18,674.582 
  1279.02,692.582 1283.85,710.619 1288.69,728.677 1293.53,746.736 1298.36,764.779 1303.2,782.789 1308.04,800.746 1312.87,818.634 1317.71,836.433 1322.55,854.127 
  1327.38,871.697 1332.22,889.126 1337.06,906.397 1341.89,923.492 1346.73,940.394 1351.57,957.087 1356.4,973.553 1361.24,989.776 1366.08,1005.74 1370.91,1021.43 
  1375.75,1036.83 1380.59,1051.92 1385.42,1066.69 1390.26,1081.13 1395.1,1095.21 1399.93,1108.93 1404.77,1122.27 1409.61,1135.23 1414.44,1147.77 1419.28,1159.9 
  1424.12,1171.6 1428.95,1182.86 1433.79,1193.67 1438.63,1204.01 1443.46,1213.88 1448.3,1223.27 1453.14,1232.16 1457.97,1240.56 1462.81,1248.44 1467.65,1255.81 
  1472.48,1262.65 1477.32,1268.96 1482.16,1274.73 1486.99,1279.96 1491.83,1284.63 1496.67,1288.76 1501.5,1292.32 1506.34,1295.33 1511.18,1297.77 1516.01,1299.64 
  1520.85,1300.94 1525.69,1301.68 1530.52,1301.84 1535.36,1301.44 1540.2,1300.46 1545.03,1298.91 1549.87,1296.79 1554.71,1294.11 1559.54,1290.86 1564.38,1287.06 
  1569.22,1282.7 1574.05,1277.78 1578.89,1272.32 1583.73,1266.32 1588.56,1259.78 1593.4,1252.71 1598.24,1245.12 1603.07,1237.02 1607.91,1228.41 1612.75,1219.31 
  1617.58,1209.71 1622.42,1199.64 1627.26,1189.09 1632.09,1178.09 1636.93,1166.65 1641.77,1154.76 1646.6,1142.45 1651.44,1129.73 1656.28,1116.62 1661.11,1103.11 
  1665.95,1089.23 1670.79,1075 1675.62,1060.42 1680.46,1045.51 1685.3,1030.29 1690.13,1014.77 1694.97,998.961 1699.81,982.887 1704.64,966.561 1709.48,950 
  1714.32,933.218 1719.15,916.234 1723.99,899.065 1728.83,881.728 1733.66,864.24 1738.5,846.619 1743.34,828.883 1748.17,811.048 1753.01,793.133 1757.85,775.155 
  1762.68,757.133 1767.52,739.085 1772.36,721.03 1777.19,702.984 1782.03,684.966 1786.87,666.993 1791.7,649.085 1796.54,631.258 1801.38,613.531 1806.21,595.922 
  1811.05,578.447 1815.89,561.125 1820.72,543.973 1825.56,527.007 1830.4,510.246 1835.23,493.705 1840.07,477.401 1844.91,461.351 1849.74,445.57 1854.58,430.075 
  1859.42,414.88 1864.25,400.002 1869.09,385.454 1873.93,371.252 1878.76,357.409 1883.6,343.94 1888.44,330.858 1893.27,318.176 1898.11,305.906 1902.95,294.062 
  1907.78,282.654 1912.62,271.694 1917.46,261.193 1922.29,251.163 1927.13,241.612 1931.97,232.55 1936.8,223.987 1941.64,215.93 1946.48,208.388 1951.31,201.368 
  1956.15,194.879 1960.99,188.925 1965.82,183.514 1970.66,178.649 1975.5,174.337 1980.33,170.581 1985.17,167.384 1990.01,164.752 1994.84,162.686 1999.68,161.189 
  2004.52,160.26 2009.35,159.903 2014.19,160.115 2019.03,160.898 2023.86,162.252 2028.7,164.174 2033.54,166.663 2038.37,169.717 2043.21,173.331 2048.05,177.502 
  2052.88,182.225 2057.72,187.499 2062.56,193.315 2067.39,199.67 2072.23,206.555 2077.07,213.965 2081.9,221.89 2086.74,230.324 2091.58,239.26 2096.41,248.687 
  2101.25,258.596 2106.09,268.978 2110.92,279.821 2115.76,291.114 2120.6,302.847 2125.43,315.008 2130.27,327.585 2135.11,340.565 2139.94,353.936 2144.78,367.683 
  2149.62,381.793 2154.45,396.252 2159.29,411.045 2164.13,426.158 2168.96,441.577 2173.8,457.284 2178.64,473.264 2183.47,489.502 2188.31,505.981 2193.15,522.684 
  2197.98,539.596 2202.82,556.699 2207.66,573.976 2212.49,591.41 2217.33,608.983 2222.17,626.677 2227,644.475 2231.84,662.36 2236.68,680.314 2241.51,698.317 
  2246.35,716.354 2251.19,734.404 2256.02,752.45 2260.86,770.475 2265.7,788.46 2270.53,806.388 2275.37,824.239 2280.21,841.998 2285.04,859.645 2289.88,877.162 
  2294.72,894.534 
  "/>
<polyline clip-path="url(#clip732)" style="stroke:#e26f46; stroke-linecap:butt; stroke-linejoin:round; stroke-width:8; stroke-opacity:1; fill:none" points="
  360.05,848.644 364.887,866.295 369.723,883.887 374.56,901.399 379.397,918.817 384.233,936.123 389.07,953.3 393.907,970.326 398.743,987.195 403.58,1003.88 
  408.417,1020.38 413.253,1036.66 418.09,1052.72 422.927,1068.53 427.763,1084.08 432.6,1099.35 437.437,1114.33 442.273,1129.01 447.11,1143.36 451.947,1157.38 
  456.783,1171.04 461.62,1184.34 466.457,1197.26 471.293,1209.8 476.13,1221.92 480.967,1233.64 485.803,1244.92 490.64,1255.76 495.477,1266.15 500.313,1276.08 
  505.15,1285.53 509.987,1294.5 514.823,1302.98 519.66,1310.96 524.497,1318.42 529.333,1325.36 534.17,1331.78 539.007,1337.66 543.843,1342.99 548.68,1347.77 
  553.517,1352 558.353,1355.66 563.19,1358.75 568.027,1361.26 572.863,1363.18 577.7,1364.52 582.536,1365.26 587.373,1365.41 592.21,1365.08 597.046,1364.31 
  601.883,1363.11 606.72,1361.48 611.556,1359.4 616.393,1356.89 621.23,1353.93 626.066,1350.54 630.903,1346.71 635.74,1342.44 640.576,1337.73 645.413,1332.6 
  650.25,1327.04 655.086,1321.05 659.923,1314.64 664.76,1307.82 669.596,1300.59 674.433,1292.96 679.27,1284.94 684.106,1276.52 688.943,1267.73 693.78,1258.56 
  698.616,1249.03 703.453,1239.15 708.29,1228.92 713.126,1218.35 717.963,1207.46 722.8,1196.25 727.636,1184.74 732.473,1172.93 737.31,1160.85 742.146,1148.49 
  746.983,1135.88 751.82,1123.02 756.656,1109.93 761.493,1096.62 766.33,1083.11 771.166,1069.4 776.003,1055.52 780.84,1041.47 785.676,1027.26 790.513,1012.93 
  795.35,998.465 800.186,983.897 805.023,969.235 809.86,954.494 814.696,939.689 819.533,924.834 824.37,909.945 829.206,895.036 834.043,880.123 838.88,865.219 
  843.716,850.34 848.553,835.5 853.39,820.715 858.226,805.998 863.063,791.367 867.9,776.834 872.736,762.416 877.573,748.123 882.41,733.971 887.246,719.976 
  892.083,706.151 896.92,692.511 901.756,679.072 906.593,665.845 911.43,652.84 916.266,640.073 921.103,627.559 925.94,615.308 930.776,603.335 935.613,591.653 
  940.45,580.271 945.286,569.202 950.123,558.456 954.96,548.046 959.796,537.981 964.633,528.274 969.47,518.933 974.306,509.969 979.143,501.392 983.98,493.21 
  988.816,485.433 993.653,478.069 998.49,471.125 1003.33,464.61 1008.16,458.532 1013,452.899 1017.84,447.717 1022.67,442.992 1027.51,438.732 1032.35,434.944 
  1037.18,431.632 1042.02,428.804 1046.86,426.464 1051.69,424.618 1056.53,423.271 1061.37,422.429 1066.2,422.095 1071.04,422.214 1075.88,422.674 1080.71,423.476 
  1085.55,424.624 1090.39,426.118 1095.22,427.959 1100.06,430.149 1104.9,432.687 1109.73,435.572 1114.57,438.805 1119.41,442.382 1124.24,446.304 1129.08,450.564 
  1133.92,455.16 1138.75,460.092 1143.59,465.358 1148.43,470.952 1153.26,476.87 1158.1,483.108 1162.94,489.66 1167.77,496.519 1172.61,503.68 1177.45,511.136 
  1182.28,518.88 1187.12,526.905 1191.96,535.203 1196.79,543.766 1201.63,552.587 1206.47,561.657 1211.3,570.968 1216.14,580.51 1220.98,590.275 1225.81,600.253 
  1230.65,610.434 1235.49,620.809 1240.32,631.367 1245.16,642.098 1250,652.992 1254.83,664.037 1259.67,675.223 1264.51,686.538 1269.34,697.971 1274.18,709.512 
  1279.02,721.148 1283.85,732.868 1288.69,744.661 1293.53,756.513 1298.36,768.414 1303.2,780.352 1308.04,792.316 1312.87,804.292 1317.71,816.269 1322.55,828.236 
  1327.38,840.179 1332.22,852.088 1337.06,863.95 1341.89,875.753 1346.73,887.487 1351.57,899.138 1356.4,910.695 1361.24,922.146 1366.08,933.48 1370.91,944.686 
  1375.75,955.752 1380.59,966.667 1385.42,977.419 1390.26,987.998 1395.1,998.393 1399.93,1008.59 1404.77,1018.59 1409.61,1028.37 1414.44,1037.92 1419.28,1047.24 
  1424.12,1056.32 1428.95,1065.14 1433.79,1073.69 1438.63,1081.98 1443.46,1089.98 1448.3,1097.69 1453.14,1105.1 1457.97,1112.21 1462.81,1119 1467.65,1125.47 
  1472.48,1131.6 1477.32,1137.41 1482.16,1142.87 1486.99,1147.97 1491.83,1152.73 1496.67,1157.11 1501.5,1161.13 1506.34,1164.78 1511.18,1168.04 1516.01,1170.92 
  1520.85,1173.41 1525.69,1175.51 1530.52,1177.2 1535.36,1178.49 1540.2,1179.37 1545.03,1179.84 1549.87,1179.9 1554.71,1179.68 1559.54,1179.22 1564.38,1178.51 
  1569.22,1177.56 1574.05,1176.35 1578.89,1174.89 1583.73,1173.19 1588.56,1171.23 1593.4,1169.02 1598.24,1166.56 1603.07,1163.86 1607.91,1160.9 1612.75,1157.7 
  1617.58,1154.26 1622.42,1150.57 1627.26,1146.64 1632.09,1142.48 1636.93,1138.08 1641.77,1133.46 1646.6,1128.6 1651.44,1123.52 1656.28,1118.23 1661.11,1112.72 
  1665.95,1107 1670.79,1101.08 1675.62,1094.96 1680.46,1088.64 1685.3,1082.14 1690.13,1075.45 1694.97,1068.59 1699.81,1061.56 1704.64,1054.37 1709.48,1047.02 
  1714.32,1039.53 1719.15,1031.89 1723.99,1024.12 1728.83,1016.22 1733.66,1008.2 1738.5,1000.08 1743.34,991.846 1748.17,983.519 1753.01,975.106 1757.85,966.615 
  1762.68,958.053 1767.52,949.429 1772.36,940.751 1777.19,932.029 1782.03,923.27 1786.87,914.483 1791.7,905.677 1796.54,896.861 1801.38,888.044 1806.21,879.236 
  1811.05,870.443 1815.89,861.674 1820.72,852.939 1825.56,844.247 1830.4,835.606 1835.23,827.027 1840.07,818.519 1844.91,810.086 1849.74,801.74 1854.58,793.488 
  1859.42,785.34 1864.25,777.305 1869.09,769.39 1873.93,761.604 1878.76,753.954 1883.6,746.449 1888.44,739.095 1893.27,731.902 1898.11,724.876 1902.95,718.026 
  1907.78,711.358 1912.62,704.88 1917.46,698.598 1922.29,692.52 1927.13,686.652 1931.97,681 1936.8,675.571 1941.64,670.371 1946.48,665.407 1951.31,660.683 
  1956.15,656.207 1960.99,651.983 1965.82,648.015 1970.66,644.311 1975.5,640.874 1980.33,637.71 1985.17,634.824 1990.01,632.219 1994.84,629.899 1999.68,627.87 
  2004.52,626.134 2009.35,624.696 2014.19,623.559 2019.03,622.727 2023.86,622.203 2028.7,621.991 2033.54,622.038 2038.37,622.223 2043.21,622.548 2048.05,623.014 
  2052.88,623.622 2057.72,624.373 2062.56,625.266 2067.39,626.303 2072.23,627.483 2077.07,628.807 2081.9,630.273 2086.74,631.882 2091.58,633.633 2096.41,635.526 
  2101.25,637.559 2106.09,639.73 2110.92,642.039 2115.76,644.485 2120.6,647.066 2125.43,649.779 2130.27,652.623 2135.11,655.598 2139.94,658.699 2144.78,661.923 
  2149.62,665.27 2154.45,668.738 2159.29,672.32 2164.13,676.015 2168.96,679.822 2173.8,683.736 2178.64,687.752 2183.47,691.868 2188.31,696.082 2193.15,700.387 
  2197.98,704.781 2202.82,709.259 2207.66,713.819 2212.49,718.454 2217.33,723.16 2222.17,727.935 2227,732.773 2231.84,737.668 2236.68,742.617 2241.51,747.615 
  2246.35,752.658 2251.19,757.739 2256.02,762.854 2260.86,767.999 2265.7,773.168 2270.53,778.356 2275.37,783.558 2280.21,788.769 2285.04,793.983 2289.88,799.196 
  2294.72,804.402 
  "/>
<polyline clip-path="url(#clip732)" style="stroke:#008000; stroke-linecap:butt; stroke-linejoin:round; stroke-width:8; stroke-opacity:1; fill:none" stroke-dasharray="4, 8" points="
  360.05,848.644 364.887,864.791 369.723,880.897 374.56,896.949 379.397,912.933 384.233,928.836 389.07,944.645 393.907,960.347 398.743,975.928 403.58,991.375 
  408.417,1006.68 413.253,1021.82 418.09,1036.78 422.927,1051.56 427.763,1066.14 432.6,1080.51 437.437,1094.65 442.273,1108.56 447.11,1122.21 451.947,1135.6 
  456.783,1148.71 461.62,1161.54 466.457,1174.06 471.293,1186.27 476.13,1198.16 480.967,1209.71 485.803,1220.91 490.64,1231.75 495.477,1242.22 500.313,1252.32 
  505.15,1262.02 509.987,1271.32 514.823,1280.22 519.66,1288.7 524.497,1296.75 529.333,1304.38 534.17,1311.56 539.007,1318.29 543.843,1324.57 548.68,1330.39 
  553.517,1335.75 558.353,1340.64 563.19,1345.05 568.027,1348.99 572.863,1352.44 577.7,1355.41 582.536,1357.89 587.373,1359.88 592.21,1361.38 597.046,1362.39 
  601.883,1362.9 606.72,1362.92 611.556,1362.45 616.393,1361.49 621.23,1360.03 626.066,1358.09 630.903,1355.65 635.74,1352.72 640.576,1349.31 645.413,1345.42 
  650.25,1341.04 655.086,1336.2 659.923,1330.88 664.76,1325.09 669.596,1318.84 674.433,1312.14 679.27,1304.98 684.106,1297.39 688.943,1289.36 693.78,1280.89 
  698.616,1272.01 703.453,1262.72 708.29,1253.02 713.126,1242.93 717.963,1232.46 722.8,1221.62 727.636,1210.41 732.473,1198.86 737.31,1186.98 742.146,1174.77 
  746.983,1162.26 751.82,1149.45 756.656,1136.36 761.493,1123.02 766.33,1109.42 771.166,1095.6 776.003,1081.56 780.84,1067.33 785.676,1052.92 790.513,1038.36 
  795.35,1023.64 800.186,1008.81 805.023,993.874 809.86,978.859 814.696,963.787 819.533,948.677 824.37,933.55 829.206,918.427 834.043,903.326 838.88,888.266 
  843.716,873.266 848.553,858.344 853.39,843.517 858.226,828.802 863.063,814.215 867.9,799.773 872.736,785.491 877.573,771.384 882.41,757.467 887.246,743.754 
  892.083,730.258 896.92,716.993 901.756,703.97 906.593,691.204 911.43,678.701 916.266,666.471 921.103,654.519 925.94,642.853 930.776,631.48 935.613,620.406 
  940.45,609.636 945.286,599.176 950.123,589.031 954.96,579.206 959.796,569.704 964.633,560.53 969.47,551.687 974.306,543.178 979.143,535.005 983.98,527.171 
  988.816,519.677 993.653,512.525 998.49,505.716 1003.33,499.25 1008.16,493.128 1013,487.35 1017.84,481.918 1022.67,476.834 1027.51,472.101 1032.35,467.719 
  1037.18,463.691 1042.02,460.017 1046.86,456.698 1051.69,453.737 1056.53,451.132 1061.37,448.886 1066.2,446.998 1071.04,445.468 1075.88,444.296 1080.71,443.483 
  1085.55,443.027 1090.39,442.929 1095.22,443.186 1100.06,443.799 1104.9,444.767 1109.73,446.087 1114.57,447.758 1119.41,449.778 1124.24,452.146 1129.08,454.86 
  1133.92,457.916 1138.75,461.313 1143.59,465.048 1148.43,469.119 1153.26,473.521 1158.1,478.253 1162.94,483.308 1167.77,488.684 1172.61,494.375 1177.45,500.376 
  1182.28,506.682 1187.12,513.288 1191.96,520.187 1196.79,527.373 1201.63,534.839 1206.47,542.58 1211.3,550.586 1216.14,558.851 1220.98,567.368 1225.81,576.127 
  1230.65,585.12 1235.49,594.339 1240.32,603.774 1245.16,613.415 1250,623.254 1254.83,633.281 1259.67,643.486 1264.51,653.859 1269.34,664.39 1274.18,675.068 
  1279.02,685.882 1283.85,696.822 1288.69,707.878 1293.53,719.037 1298.36,730.29 1303.2,741.625 1308.04,753.032 1312.87,764.499 1317.71,776.016 1322.55,787.571 
  1327.38,799.152 1332.22,810.75 1337.06,822.352 1341.89,833.946 1346.73,845.523 1351.57,857.069 1356.4,868.573 1361.24,880.025 1366.08,891.411 1370.91,902.721 
  1375.75,913.942 1380.59,925.063 1385.42,936.072 1390.26,946.961 1395.1,957.72 1399.93,968.339 1404.77,978.804 1409.61,989.106 1414.44,999.232 1419.28,1009.17 
  1424.12,1018.91 1428.95,1028.45 1433.79,1037.77 1438.63,1046.86 1443.46,1055.72 1448.3,1064.33 1453.14,1072.68 1457.97,1080.77 1462.81,1088.59 1467.65,1096.13 
  1472.48,1103.38 1477.32,1110.34 1482.16,1116.99 1486.99,1123.34 1491.83,1129.36 1496.67,1135.07 1501.5,1140.44 1506.34,1145.48 1511.18,1150.18 1516.01,1154.54 
  1520.85,1158.55 1525.69,1162.21 1530.52,1165.51 1535.36,1168.45 1540.2,1171.02 1545.03,1173.22 1549.87,1175.05 1554.71,1176.5 1559.54,1177.58 1564.38,1178.28 
  1569.22,1178.61 1574.05,1178.56 1578.89,1178.13 1583.73,1177.33 1588.56,1176.15 1593.4,1174.59 1598.24,1172.67 1603.07,1170.38 1607.91,1167.72 1612.75,1164.71 
  1617.58,1161.34 1622.42,1157.61 1627.26,1153.54 1632.09,1149.13 1636.93,1144.39 1641.77,1139.32 1646.6,1133.93 1651.44,1128.23 1656.28,1122.22 1661.11,1115.9 
  1665.95,1109.29 1670.79,1102.4 1675.62,1095.23 1680.46,1087.8 1685.3,1080.11 1690.13,1072.18 1694.97,1064.01 1699.81,1055.62 1704.64,1047.02 1709.48,1038.21 
  1714.32,1029.22 1719.15,1020.05 1723.99,1010.71 1728.83,1001.22 1733.66,991.588 1738.5,981.833 1743.34,971.966 1748.17,962.001 1753.01,951.952 1757.85,941.833 
  1762.68,931.655 1767.52,921.428 1772.36,911.17 1777.19,900.893 1782.03,890.612 1786.87,880.342 1791.7,870.094 1796.54,859.884 1801.38,849.722 1806.21,839.621 
  1811.05,829.594 1815.89,819.652 1820.72,809.805 1825.56,800.066 1830.4,790.443 1835.23,780.948 1840.07,771.589 1844.91,762.377 1849.74,753.32 1854.58,744.426 
  1859.42,735.704 1864.25,727.162 1869.09,718.806 1873.93,710.645 1878.76,702.684 1883.6,694.931 1888.44,687.39 1893.27,680.068 1898.11,672.969 1902.95,666.097 
  1907.78,659.456 1912.62,653.05 1917.46,646.884 1922.29,640.961 1927.13,635.285 1931.97,629.859 1936.8,624.686 1941.64,619.769 1946.48,615.111 1951.31,610.714 
  1956.15,606.579 1960.99,602.71 1965.82,599.107 1970.66,595.771 1975.5,592.705 1980.33,589.909 1985.17,587.384 1990.01,585.129 1994.84,583.146 1999.68,581.434 
  2004.52,579.992 2009.35,578.821 2014.19,577.92 2019.03,577.287 2023.86,576.922 2028.7,576.822 2033.54,576.989 2038.37,577.421 2043.21,578.117 2048.05,579.076 
  2052.88,580.297 2057.72,581.777 2062.56,583.514 2067.39,585.507 2072.23,587.752 2077.07,590.247 2081.9,592.989 2086.74,595.975 2091.58,599.201 2096.41,602.663 
  2101.25,606.357 2106.09,610.279 2110.92,614.425 2115.76,618.79 2120.6,623.369 2125.43,628.157 2130.27,633.149 2135.11,638.338 2139.94,643.719 2144.78,649.285 
  2149.62,655.031 2154.45,660.95 2159.29,667.035 2164.13,673.281 2168.96,679.681 2173.8,686.228 2178.64,692.915 2183.47,699.735 2188.31,706.68 2193.15,713.743 
  2197.98,720.916 2202.82,728.191 2207.66,735.562 2212.49,743.019 2217.33,750.556 2222.17,758.164 2227,765.835 2231.84,773.561 2236.68,781.333 2241.51,789.144 
  2246.35,796.986 2251.19,804.848 2256.02,812.724 2260.86,820.603 2265.7,828.479 2270.53,836.341 2275.37,844.18 2280.21,851.989 2285.04,859.757 2289.88,867.478 
  2294.72,875.144 
  "/>
<path clip-path="url(#clip730)" d="
M1421.68 528.956 L2284.4 528.956 L2284.4 166.076 L1421.68 166.076  Z
  " fill="#ffffff" fill-rule="evenodd" fill-opacity="1"/>
<polyline clip-path="url(#clip730)" style="stroke:#000000; stroke-linecap:butt; stroke-linejoin:round; stroke-width:4; stroke-opacity:1; fill:none" points="
  1421.68,528.956 2284.4,528.956 2284.4,166.076 1421.68,166.076 1421.68,528.956 
  "/>
<polyline clip-path="url(#clip730)" style="stroke:#009af9; stroke-linecap:butt; stroke-linejoin:round; stroke-width:6; stroke-opacity:1; fill:none" points="
  1444.47,256.796 1581.18,256.796 
  "/>
<path clip-path="url(#clip730)" d="M1637.34 232.577 L1637.34 239.417 Q1633.34 237.508 1629.8 236.57 Q1626.26 235.633 1622.96 235.633 Q1617.23 235.633 1614.11 237.855 Q1611.02 240.077 1611.02 244.174 Q1611.02 247.612 1613.07 249.383 Q1615.15 251.119 1620.91 252.195 L1625.15 253.063 Q1633 254.556 1636.71 258.341 Q1640.46 262.091 1640.46 268.41 Q1640.46 275.945 1635.39 279.834 Q1630.36 283.723 1620.6 283.723 Q1616.92 283.723 1612.75 282.889 Q1608.62 282.056 1604.18 280.424 L1604.18 273.202 Q1608.45 275.598 1612.54 276.813 Q1616.64 278.028 1620.6 278.028 Q1626.61 278.028 1629.87 275.667 Q1633.13 273.306 1633.13 268.931 Q1633.13 265.112 1630.77 262.959 Q1628.45 260.806 1623.1 259.73 L1618.83 258.896 Q1610.98 257.334 1607.47 254.001 Q1603.97 250.667 1603.97 244.73 Q1603.97 237.855 1608.79 233.897 Q1613.66 229.938 1622.16 229.938 Q1625.81 229.938 1629.59 230.598 Q1633.38 231.258 1637.34 232.577 Z" fill="#000000" fill-rule="evenodd" fill-opacity="1" /><path clip-path="url(#clip730)" d="M1651.12 243.827 L1657.51 243.827 L1657.51 282.716 L1651.12 282.716 L1651.12 243.827 M1651.12 228.688 L1657.51 228.688 L1657.51 236.778 L1651.12 236.778 L1651.12 228.688 Z" fill="#000000" fill-rule="evenodd" fill-opacity="1" /><path clip-path="url(#clip730)" d="M1701.15 251.292 Q1703.55 246.987 1706.88 244.938 Q1710.22 242.89 1714.73 242.89 Q1720.81 242.89 1724.11 247.16 Q1727.4 251.396 1727.4 259.244 L1727.4 282.716 L1720.98 282.716 L1720.98 259.452 Q1720.98 253.862 1719 251.153 Q1717.02 248.445 1712.96 248.445 Q1708 248.445 1705.11 251.744 Q1702.23 255.042 1702.23 260.737 L1702.23 282.716 L1695.81 282.716 L1695.81 259.452 Q1695.81 253.827 1693.83 251.153 Q1691.85 248.445 1687.72 248.445 Q1682.82 248.445 1679.94 251.778 Q1677.06 255.077 1677.06 260.737 L1677.06 282.716 L1670.63 282.716 L1670.63 243.827 L1677.06 243.827 L1677.06 249.869 Q1679.25 246.292 1682.3 244.591 Q1685.36 242.89 1689.56 242.89 Q1693.79 242.89 1696.75 245.042 Q1699.73 247.195 1701.15 251.292 Z" fill="#000000" fill-rule="evenodd" fill-opacity="1" /><path clip-path="url(#clip730)" d="M1746.33 276.882 L1746.33 297.507 L1739.9 297.507 L1739.9 243.827 L1746.33 243.827 L1746.33 249.73 Q1748.34 246.258 1751.4 244.591 Q1754.49 242.89 1758.76 242.89 Q1765.84 242.89 1770.25 248.515 Q1774.7 254.139 1774.7 263.306 Q1774.7 272.473 1770.25 278.098 Q1765.84 283.723 1758.76 283.723 Q1754.49 283.723 1751.4 282.056 Q1748.34 280.355 1746.33 276.882 M1768.06 263.306 Q1768.06 256.258 1765.15 252.264 Q1762.27 248.237 1757.2 248.237 Q1752.13 248.237 1749.21 252.264 Q1746.33 256.258 1746.33 263.306 Q1746.33 270.355 1749.21 274.382 Q1752.13 278.375 1757.2 278.375 Q1762.27 278.375 1765.15 274.382 Q1768.06 270.355 1768.06 263.306 Z" fill="#000000" fill-rule="evenodd" fill-opacity="1" /><path clip-path="url(#clip730)" d="M1785.29 228.688 L1791.68 228.688 L1791.68 282.716 L1785.29 282.716 L1785.29 228.688 Z" fill="#000000" fill-rule="evenodd" fill-opacity="1" /><path clip-path="url(#clip730)" d="M1838.31 261.674 L1838.31 264.799 L1808.93 264.799 Q1809.35 271.396 1812.89 274.869 Q1816.47 278.306 1822.82 278.306 Q1826.5 278.306 1829.94 277.403 Q1833.41 276.5 1836.81 274.695 L1836.81 280.737 Q1833.38 282.195 1829.77 282.959 Q1826.15 283.723 1822.44 283.723 Q1813.13 283.723 1807.68 278.306 Q1802.27 272.889 1802.27 263.653 Q1802.27 254.105 1807.4 248.515 Q1812.58 242.89 1821.33 242.89 Q1829.17 242.89 1833.72 247.959 Q1838.31 252.994 1838.31 261.674 M1831.92 259.799 Q1831.85 254.556 1828.97 251.431 Q1826.12 248.306 1821.4 248.306 Q1816.05 248.306 1812.82 251.327 Q1809.63 254.348 1809.14 259.834 L1831.92 259.799 Z" fill="#000000" fill-rule="evenodd" fill-opacity="1" /><path clip-path="url(#clip730)" d="M1849.07 230.876 L1878.86 230.876 L1878.86 236.778 L1856.08 236.778 L1856.08 252.056 L1876.64 252.056 L1876.64 257.959 L1856.08 257.959 L1856.08 282.716 L1849.07 282.716 L1849.07 230.876 Z" fill="#000000" fill-rule="evenodd" fill-opacity="1" /><path clip-path="url(#clip730)" d="M1889.97 230.876 L1900.42 230.876 L1913.65 266.153 L1926.95 230.876 L1937.4 230.876 L1937.4 282.716 L1930.56 282.716 L1930.56 237.195 L1917.2 272.75 L1910.15 272.75 L1896.78 237.195 L1896.78 282.716 L1889.97 282.716 L1889.97 230.876 Z" fill="#000000" fill-rule="evenodd" fill-opacity="1" /><path clip-path="url(#clip730)" d="M1950.53 230.876 L1957.58 230.876 L1957.58 262.369 Q1957.58 270.702 1960.6 274.382 Q1963.62 278.028 1970.39 278.028 Q1977.13 278.028 1980.15 274.382 Q1983.17 270.702 1983.17 262.369 L1983.17 230.876 L1990.22 230.876 L1990.22 263.237 Q1990.22 273.375 1985.18 278.549 Q1980.18 283.723 1970.39 283.723 Q1960.56 283.723 1955.53 278.549 Q1950.53 273.375 1950.53 263.237 L1950.53 230.876 Z" fill="#000000" fill-rule="evenodd" fill-opacity="1" /><polyline clip-path="url(#clip730)" style="stroke:#e26f46; stroke-linecap:butt; stroke-linejoin:round; stroke-width:6; stroke-opacity:1; fill:none" points="
  1444.47,347.516 1581.18,347.516 
  "/>
<path clip-path="url(#clip730)" d="M1626.75 340.519 Q1625.67 339.894 1624.38 339.616 Q1623.13 339.304 1621.61 339.304 Q1616.19 339.304 1613.27 342.846 Q1610.39 346.353 1610.39 352.95 L1610.39 373.436 L1603.97 373.436 L1603.97 334.547 L1610.39 334.547 L1610.39 340.589 Q1612.41 337.047 1615.63 335.346 Q1618.86 333.61 1623.48 333.61 Q1624.14 333.61 1624.94 333.714 Q1625.74 333.783 1626.71 333.957 L1626.75 340.519 Z" fill="#000000" fill-rule="evenodd" fill-opacity="1" /><path clip-path="url(#clip730)" d="M1665.15 352.394 L1665.15 355.519 L1635.77 355.519 Q1636.19 362.116 1639.73 365.589 Q1643.31 369.026 1649.66 369.026 Q1653.34 369.026 1656.78 368.123 Q1660.25 367.22 1663.66 365.415 L1663.66 371.457 Q1660.22 372.915 1656.61 373.679 Q1653 374.443 1649.28 374.443 Q1639.97 374.443 1634.52 369.026 Q1629.11 363.609 1629.11 354.373 Q1629.11 344.825 1634.25 339.235 Q1639.42 333.61 1648.17 333.61 Q1656.02 333.61 1660.56 338.679 Q1665.15 343.714 1665.15 352.394 M1658.76 350.519 Q1658.69 345.276 1655.81 342.151 Q1652.96 339.026 1648.24 339.026 Q1642.89 339.026 1639.66 342.047 Q1636.47 345.068 1635.98 350.554 L1658.76 350.519 Z" fill="#000000" fill-rule="evenodd" fill-opacity="1" /><path clip-path="url(#clip730)" d="M1695.32 319.408 L1695.32 324.721 L1689.21 324.721 Q1685.77 324.721 1684.42 326.11 Q1683.1 327.498 1683.1 331.11 L1683.1 334.547 L1693.62 334.547 L1693.62 339.512 L1683.1 339.512 L1683.1 373.436 L1676.68 373.436 L1676.68 339.512 L1670.56 339.512 L1670.56 334.547 L1676.68 334.547 L1676.68 331.839 Q1676.68 325.346 1679.7 322.394 Q1682.72 319.408 1689.28 319.408 L1695.32 319.408 Z" fill="#000000" fill-rule="evenodd" fill-opacity="1" /><path clip-path="url(#clip730)" d="M1733.93 352.394 L1733.93 355.519 L1704.56 355.519 Q1704.97 362.116 1708.52 365.589 Q1712.09 369.026 1718.45 369.026 Q1722.13 369.026 1725.56 368.123 Q1729.04 367.22 1732.44 365.415 L1732.44 371.457 Q1729 372.915 1725.39 373.679 Q1721.78 374.443 1718.06 374.443 Q1708.76 374.443 1703.31 369.026 Q1697.89 363.609 1697.89 354.373 Q1697.89 344.825 1703.03 339.235 Q1708.2 333.61 1716.95 333.61 Q1724.8 333.61 1729.35 338.679 Q1733.93 343.714 1733.93 352.394 M1727.54 350.519 Q1727.47 345.276 1724.59 342.151 Q1721.75 339.026 1717.02 339.026 Q1711.68 339.026 1708.45 342.047 Q1705.25 345.068 1704.77 350.554 L1727.54 350.519 Z" fill="#000000" fill-rule="evenodd" fill-opacity="1" /><path clip-path="url(#clip730)" d="M1766.95 340.519 Q1765.88 339.894 1764.59 339.616 Q1763.34 339.304 1761.81 339.304 Q1756.4 339.304 1753.48 342.846 Q1750.6 346.353 1750.6 352.95 L1750.6 373.436 L1744.18 373.436 L1744.18 334.547 L1750.6 334.547 L1750.6 340.589 Q1752.61 337.047 1755.84 335.346 Q1759.07 333.61 1763.69 333.61 Q1764.35 333.61 1765.15 333.714 Q1765.95 333.783 1766.92 333.957 L1766.95 340.519 Z" fill="#000000" fill-rule="evenodd" fill-opacity="1" /><path clip-path="url(#clip730)" d="M1805.36 352.394 L1805.36 355.519 L1775.98 355.519 Q1776.4 362.116 1779.94 365.589 Q1783.52 369.026 1789.87 369.026 Q1793.55 369.026 1796.99 368.123 Q1800.46 367.22 1803.86 365.415 L1803.86 371.457 Q1800.43 372.915 1796.81 373.679 Q1793.2 374.443 1789.49 374.443 Q1780.18 374.443 1774.73 369.026 Q1769.31 363.609 1769.31 354.373 Q1769.31 344.825 1774.45 339.235 Q1779.63 333.61 1788.38 333.61 Q1796.22 333.61 1800.77 338.679 Q1805.36 343.714 1805.36 352.394 M1798.97 350.519 Q1798.9 345.276 1796.02 342.151 Q1793.17 339.026 1788.45 339.026 Q1783.1 339.026 1779.87 342.047 Q1776.68 345.068 1776.19 350.554 L1798.97 350.519 Z" fill="#000000" fill-rule="evenodd" fill-opacity="1" /><path clip-path="url(#clip730)" d="M1848.17 349.964 L1848.17 373.436 L1841.78 373.436 L1841.78 350.172 Q1841.78 344.651 1839.63 341.908 Q1837.47 339.165 1833.17 339.165 Q1827.99 339.165 1825.01 342.464 Q1822.02 345.762 1822.02 351.457 L1822.02 373.436 L1815.6 373.436 L1815.6 334.547 L1822.02 334.547 L1822.02 340.589 Q1824.31 337.082 1827.4 335.346 Q1830.53 333.61 1834.59 333.61 Q1841.29 333.61 1844.73 337.776 Q1848.17 341.908 1848.17 349.964 Z" fill="#000000" fill-rule="evenodd" fill-opacity="1" /><path clip-path="url(#clip730)" d="M1888.9 336.04 L1888.9 342.012 Q1886.19 340.519 1883.45 339.79 Q1880.74 339.026 1877.96 339.026 Q1871.74 339.026 1868.31 342.984 Q1864.87 346.908 1864.87 354.026 Q1864.87 361.144 1868.31 365.102 Q1871.74 369.026 1877.96 369.026 Q1880.74 369.026 1883.45 368.297 Q1886.19 367.533 1888.9 366.04 L1888.9 371.943 Q1886.22 373.193 1883.34 373.818 Q1880.49 374.443 1877.27 374.443 Q1868.48 374.443 1863.31 368.922 Q1858.13 363.401 1858.13 354.026 Q1858.13 344.512 1863.34 339.061 Q1868.58 333.61 1877.68 333.61 Q1880.63 333.61 1883.45 334.235 Q1886.26 334.825 1888.9 336.04 Z" fill="#000000" fill-rule="evenodd" fill-opacity="1" /><path clip-path="url(#clip730)" d="M1933.27 352.394 L1933.27 355.519 L1903.9 355.519 Q1904.31 362.116 1907.86 365.589 Q1911.43 369.026 1917.79 369.026 Q1921.47 369.026 1924.9 368.123 Q1928.38 367.22 1931.78 365.415 L1931.78 371.457 Q1928.34 372.915 1924.73 373.679 Q1921.12 374.443 1917.4 374.443 Q1908.1 374.443 1902.65 369.026 Q1897.23 363.609 1897.23 354.373 Q1897.23 344.825 1902.37 339.235 Q1907.54 333.61 1916.29 333.61 Q1924.14 333.61 1928.69 338.679 Q1933.27 343.714 1933.27 352.394 M1926.88 350.519 Q1926.81 345.276 1923.93 342.151 Q1921.08 339.026 1916.36 339.026 Q1911.01 339.026 1907.79 342.047 Q1904.59 345.068 1904.11 350.554 L1926.88 350.519 Z" fill="#000000" fill-rule="evenodd" fill-opacity="1" /><polyline clip-path="url(#clip730)" style="stroke:#008000; stroke-linecap:butt; stroke-linejoin:round; stroke-width:6; stroke-opacity:1; fill:none" stroke-dasharray="3, 6" points="
  1444.47,438.236 1581.18,438.236 
  "/>
<path clip-path="url(#clip730)" d="M1603.97 412.316 L1613.41 412.316 L1636.4 455.684 L1636.4 412.316 L1643.2 412.316 L1643.2 464.156 L1633.76 464.156 L1610.77 420.788 L1610.77 464.156 L1603.97 464.156 L1603.97 412.316 Z" fill="#000000" fill-rule="evenodd" fill-opacity="1" /><path clip-path="url(#clip730)" d="M1690.15 443.114 L1690.15 446.239 L1660.77 446.239 Q1661.19 452.836 1664.73 456.309 Q1668.31 459.746 1674.66 459.746 Q1678.34 459.746 1681.78 458.843 Q1685.25 457.94 1688.65 456.135 L1688.65 462.177 Q1685.22 463.635 1681.61 464.399 Q1678 465.163 1674.28 465.163 Q1664.97 465.163 1659.52 459.746 Q1654.11 454.329 1654.11 445.093 Q1654.11 435.545 1659.25 429.955 Q1664.42 424.33 1673.17 424.33 Q1681.02 424.33 1685.56 429.399 Q1690.15 434.434 1690.15 443.114 M1683.76 441.239 Q1683.69 435.996 1680.81 432.871 Q1677.96 429.746 1673.24 429.746 Q1667.89 429.746 1664.66 432.767 Q1661.47 435.788 1660.98 441.274 L1683.76 441.239 Z" fill="#000000" fill-rule="evenodd" fill-opacity="1" /><path clip-path="url(#clip730)" d="M1699.97 448.809 L1699.97 425.267 L1706.36 425.267 L1706.36 448.566 Q1706.36 454.086 1708.52 456.864 Q1710.67 459.607 1714.97 459.607 Q1720.15 459.607 1723.13 456.309 Q1726.15 453.01 1726.15 447.316 L1726.15 425.267 L1732.54 425.267 L1732.54 464.156 L1726.15 464.156 L1726.15 458.184 Q1723.83 461.725 1720.74 463.461 Q1717.68 465.163 1713.62 465.163 Q1706.92 465.163 1703.45 460.996 Q1699.97 456.829 1699.97 448.809 M1716.05 424.33 L1716.05 424.33 Z" fill="#000000" fill-rule="evenodd" fill-opacity="1" /><path clip-path="url(#clip730)" d="M1768.24 431.239 Q1767.16 430.614 1765.88 430.336 Q1764.63 430.024 1763.1 430.024 Q1757.68 430.024 1754.77 433.566 Q1751.88 437.073 1751.88 443.67 L1751.88 464.156 L1745.46 464.156 L1745.46 425.267 L1751.88 425.267 L1751.88 431.309 Q1753.9 427.767 1757.13 426.066 Q1760.36 424.33 1764.97 424.33 Q1765.63 424.33 1766.43 424.434 Q1767.23 424.503 1768.2 424.677 L1768.24 431.239 Z" fill="#000000" fill-rule="evenodd" fill-opacity="1" /><path clip-path="url(#clip730)" d="M1792.61 444.607 Q1784.87 444.607 1781.88 446.378 Q1778.9 448.149 1778.9 452.42 Q1778.9 455.822 1781.12 457.836 Q1783.38 459.815 1787.23 459.815 Q1792.54 459.815 1795.74 456.065 Q1798.97 452.281 1798.97 446.031 L1798.97 444.607 L1792.61 444.607 M1805.36 441.968 L1805.36 464.156 L1798.97 464.156 L1798.97 458.253 Q1796.78 461.795 1793.52 463.496 Q1790.25 465.163 1785.53 465.163 Q1779.56 465.163 1776.02 461.829 Q1772.51 458.461 1772.51 452.836 Q1772.51 446.274 1776.88 442.941 Q1781.29 439.607 1790.01 439.607 L1798.97 439.607 L1798.97 438.982 Q1798.97 434.573 1796.05 432.177 Q1793.17 429.746 1787.93 429.746 Q1784.59 429.746 1781.43 430.545 Q1778.27 431.343 1775.36 432.941 L1775.36 427.038 Q1778.86 425.684 1782.16 425.024 Q1785.46 424.33 1788.58 424.33 Q1797.02 424.33 1801.19 428.705 Q1805.36 433.079 1805.36 441.968 Z" fill="#000000" fill-rule="evenodd" fill-opacity="1" /><path clip-path="url(#clip730)" d="M1818.52 410.128 L1824.9 410.128 L1824.9 464.156 L1818.52 464.156 L1818.52 410.128 Z" fill="#000000" fill-rule="evenodd" fill-opacity="1" /><path clip-path="url(#clip730)" d="M1838.55 412.316 L1868.34 412.316 L1868.34 418.218 L1845.56 418.218 L1845.56 433.496 L1866.12 433.496 L1866.12 439.399 L1845.56 439.399 L1845.56 464.156 L1838.55 464.156 L1838.55 412.316 Z" fill="#000000" fill-rule="evenodd" fill-opacity="1" /><path clip-path="url(#clip730)" d="M1879.45 412.316 L1889.9 412.316 L1903.13 447.593 L1916.43 412.316 L1926.88 412.316 L1926.88 464.156 L1920.04 464.156 L1920.04 418.635 L1906.67 454.19 L1899.63 454.19 L1886.26 418.635 L1886.26 464.156 L1879.45 464.156 L1879.45 412.316 Z" fill="#000000" fill-rule="evenodd" fill-opacity="1" /><path clip-path="url(#clip730)" d="M1940.01 412.316 L1947.06 412.316 L1947.06 443.809 Q1947.06 452.142 1950.08 455.822 Q1953.1 459.468 1959.87 459.468 Q1966.6 459.468 1969.63 455.822 Q1972.65 452.142 1972.65 443.809 L1972.65 412.316 L1979.7 412.316 L1979.7 444.677 Q1979.7 454.815 1974.66 459.989 Q1969.66 465.163 1959.87 465.163 Q1950.04 465.163 1945.01 459.989 Q1940.01 454.815 1940.01 444.677 L1940.01 412.316 Z" fill="#000000" fill-rule="evenodd" fill-opacity="1" /><path clip-path="url(#clip730)" d="M2030.53 410.198 Q2025.88 418.184 2023.62 425.996 Q2021.36 433.809 2021.36 441.829 Q2021.36 449.85 2023.62 457.732 Q2025.91 465.579 2030.53 473.531 L2024.97 473.531 Q2019.76 465.371 2017.16 457.489 Q2014.59 449.607 2014.59 441.829 Q2014.59 434.086 2017.16 426.239 Q2019.73 418.392 2024.97 410.198 L2030.53 410.198 Z" fill="#000000" fill-rule="evenodd" fill-opacity="1" /><path clip-path="url(#clip730)" d="M2049.87 458.253 L2074.35 458.253 L2074.35 464.156 L2041.43 464.156 L2041.43 458.253 Q2045.42 454.121 2052.3 447.177 Q2059.21 440.198 2060.98 438.184 Q2064.35 434.399 2065.67 431.795 Q2067.02 429.156 2067.02 426.621 Q2067.02 422.489 2064.1 419.885 Q2061.22 417.281 2056.57 417.281 Q2053.27 417.281 2049.59 418.427 Q2045.94 419.573 2041.78 421.899 L2041.78 414.816 Q2046.01 413.114 2049.69 412.246 Q2053.38 411.378 2056.43 411.378 Q2064.49 411.378 2069.28 415.406 Q2074.07 419.434 2074.07 426.17 Q2074.07 429.364 2072.85 432.246 Q2071.67 435.093 2068.51 438.982 Q2067.65 439.989 2062.99 444.816 Q2058.34 449.607 2049.87 458.253 Z" fill="#000000" fill-rule="evenodd" fill-opacity="1" /><path clip-path="url(#clip730)" d="M2089.14 412.316 L2116.67 412.316 L2116.67 418.218 L2095.56 418.218 L2095.56 430.927 Q2097.09 430.406 2098.62 430.163 Q2100.15 429.885 2101.67 429.885 Q2110.35 429.885 2115.42 434.642 Q2120.49 439.399 2120.49 447.524 Q2120.49 455.892 2115.28 460.545 Q2110.08 465.163 2100.6 465.163 Q2097.33 465.163 2093.93 464.607 Q2090.56 464.052 2086.95 462.94 L2086.95 455.892 Q2090.08 457.593 2093.41 458.427 Q2096.74 459.26 2100.46 459.26 Q2106.47 459.26 2109.97 456.1 Q2113.48 452.94 2113.48 447.524 Q2113.48 442.107 2109.97 438.948 Q2106.47 435.788 2100.46 435.788 Q2097.65 435.788 2094.83 436.413 Q2092.06 437.038 2089.14 438.357 L2089.14 412.316 Z" fill="#000000" fill-rule="evenodd" fill-opacity="1" /><path clip-path="url(#clip730)" d="M2149.31 416.934 Q2143.9 416.934 2141.15 422.281 Q2138.44 427.593 2138.44 438.288 Q2138.44 448.947 2141.15 454.295 Q2143.9 459.607 2149.31 459.607 Q2154.76 459.607 2157.47 454.295 Q2160.21 448.947 2160.21 438.288 Q2160.21 427.593 2157.47 422.281 Q2154.76 416.934 2149.31 416.934 M2149.31 411.378 Q2158.03 411.378 2162.61 418.288 Q2167.23 425.163 2167.23 438.288 Q2167.23 451.378 2162.61 458.288 Q2158.03 465.163 2149.31 465.163 Q2140.6 465.163 2135.98 458.288 Q2131.4 451.378 2131.4 438.288 Q2131.4 425.163 2135.98 418.288 Q2140.6 411.378 2149.31 411.378 Z" fill="#000000" fill-rule="evenodd" fill-opacity="1" /><path clip-path="url(#clip730)" d="M2194.55 416.934 Q2189.14 416.934 2186.4 422.281 Q2183.69 427.593 2183.69 438.288 Q2183.69 448.947 2186.4 454.295 Q2189.14 459.607 2194.55 459.607 Q2200.01 459.607 2202.71 454.295 Q2205.46 448.947 2205.46 438.288 Q2205.46 427.593 2202.71 422.281 Q2200.01 416.934 2194.55 416.934 M2194.55 411.378 Q2203.27 411.378 2207.85 418.288 Q2212.47 425.163 2212.47 438.288 Q2212.47 451.378 2207.85 458.288 Q2203.27 465.163 2194.55 465.163 Q2185.84 465.163 2181.22 458.288 Q2176.64 451.378 2176.64 438.288 Q2176.64 425.163 2181.22 418.288 Q2185.84 411.378 2194.55 411.378 Z" fill="#000000" fill-rule="evenodd" fill-opacity="1" /><path clip-path="url(#clip730)" d="M2222.89 410.198 L2228.44 410.198 Q2233.65 418.392 2236.22 426.239 Q2238.83 434.086 2238.83 441.829 Q2238.83 449.607 2236.22 457.489 Q2233.65 465.371 2228.44 473.531 L2222.89 473.531 Q2227.51 465.579 2229.76 457.732 Q2232.05 449.85 2232.05 441.829 Q2232.05 433.809 2229.76 425.996 Q2227.51 418.184 2222.89 410.198 Z" fill="#000000" fill-rule="evenodd" fill-opacity="1" /></svg>
