<?xml version="1.0" encoding="utf-8"?>
<svg xmlns="http://www.w3.org/2000/svg" xmlns:xlink="http://www.w3.org/1999/xlink" width="600" height="400" viewBox="0 0 2400 1600">
<defs>
  <clipPath id="clip160">
    <rect x="0" y="0" width="2400" height="1600"/>
  </clipPath>
</defs>
<path clip-path="url(#clip160)" d="
M0 1600 L2400 1600 L2400 0 L0 0  Z
  " fill="#ffffff" fill-rule="evenodd" fill-opacity="1"/>
<defs>
  <clipPath id="clip161">
    <rect x="480" y="0" width="1681" height="1600"/>
  </clipPath>
</defs>
<path clip-path="url(#clip160)" d="
M149.191 1423.18 L2352.76 1423.18 L2352.76 47.2441 L149.191 47.2441  Z
  " fill="#ffffff" fill-rule="evenodd" fill-opacity="1"/>
<defs>
  <clipPath id="clip162">
    <rect x="149" y="47" width="2205" height="1377"/>
  </clipPath>
</defs>
<polyline clip-path="url(#clip162)" style="stroke:#000000; stroke-linecap:butt; stroke-linejoin:round; stroke-width:2; stroke-opacity:0.1; fill:none" points="
  211.556,1423.18 211.556,47.2441 
  "/>
<polyline clip-path="url(#clip162)" style="stroke:#000000; stroke-linecap:butt; stroke-linejoin:round; stroke-width:2; stroke-opacity:0.1; fill:none" points="
  731.265,1423.18 731.265,47.2441 
  "/>
<polyline clip-path="url(#clip162)" style="stroke:#000000; stroke-linecap:butt; stroke-linejoin:round; stroke-width:2; stroke-opacity:0.1; fill:none" points="
  1250.97,1423.18 1250.97,47.2441 
  "/>
<polyline clip-path="url(#clip162)" style="stroke:#000000; stroke-linecap:butt; stroke-linejoin:round; stroke-width:2; stroke-opacity:0.1; fill:none" points="
  1770.68,1423.18 1770.68,47.2441 
  "/>
<polyline clip-path="url(#clip162)" style="stroke:#000000; stroke-linecap:butt; stroke-linejoin:round; stroke-width:2; stroke-opacity:0.1; fill:none" points="
  2290.39,1423.18 2290.39,47.2441 
  "/>
<polyline clip-path="url(#clip160)" style="stroke:#000000; stroke-linecap:butt; stroke-linejoin:round; stroke-width:4; stroke-opacity:1; fill:none" points="
  149.191,1423.18 2352.76,1423.18 
  "/>
<polyline clip-path="url(#clip160)" style="stroke:#000000; stroke-linecap:butt; stroke-linejoin:round; stroke-width:4; stroke-opacity:1; fill:none" points="
  211.556,1423.18 211.556,1404.28 
  "/>
<polyline clip-path="url(#clip160)" style="stroke:#000000; stroke-linecap:butt; stroke-linejoin:round; stroke-width:4; stroke-opacity:1; fill:none" points="
  731.265,1423.18 731.265,1404.28 
  "/>
<polyline clip-path="url(#clip160)" style="stroke:#000000; stroke-linecap:butt; stroke-linejoin:round; stroke-width:4; stroke-opacity:1; fill:none" points="
  1250.97,1423.18 1250.97,1404.28 
  "/>
<polyline clip-path="url(#clip160)" style="stroke:#000000; stroke-linecap:butt; stroke-linejoin:round; stroke-width:4; stroke-opacity:1; fill:none" points="
  1770.68,1423.18 1770.68,1404.28 
  "/>
<polyline clip-path="url(#clip160)" style="stroke:#000000; stroke-linecap:butt; stroke-linejoin:round; stroke-width:4; stroke-opacity:1; fill:none" points="
  2290.39,1423.18 2290.39,1404.28 
  "/>
<path clip-path="url(#clip160)" d="M211.556 1454.1 Q207.945 1454.1 206.116 1457.66 Q204.311 1461.2 204.311 1468.33 Q204.311 1475.44 206.116 1479.01 Q207.945 1482.55 211.556 1482.55 Q215.19 1482.55 216.996 1479.01 Q218.824 1475.44 218.824 1468.33 Q218.824 1461.2 216.996 1457.66 Q215.19 1454.1 211.556 1454.1 M211.556 1450.39 Q217.366 1450.39 220.422 1455 Q223.5 1459.58 223.5 1468.33 Q223.5 1477.06 220.422 1481.67 Q217.366 1486.25 211.556 1486.25 Q205.746 1486.25 202.667 1481.67 Q199.612 1477.06 199.612 1468.33 Q199.612 1459.58 202.667 1455 Q205.746 1450.39 211.556 1450.39 Z" fill="#000000" fill-rule="evenodd" fill-opacity="1" /><path clip-path="url(#clip160)" d="M721.647 1481.64 L729.285 1481.64 L729.285 1455.28 L720.975 1456.95 L720.975 1452.69 L729.239 1451.02 L733.915 1451.02 L733.915 1481.64 L741.554 1481.64 L741.554 1485.58 L721.647 1485.58 L721.647 1481.64 Z" fill="#000000" fill-rule="evenodd" fill-opacity="1" /><path clip-path="url(#clip160)" d="M1245.63 1481.64 L1261.95 1481.64 L1261.95 1485.58 L1240 1485.58 L1240 1481.64 Q1242.66 1478.89 1247.25 1474.26 Q1251.85 1469.61 1253.03 1468.27 Q1255.28 1465.74 1256.16 1464.01 Q1257.06 1462.25 1257.06 1460.56 Q1257.06 1457.8 1255.12 1456.07 Q1253.2 1454.33 1250.09 1454.33 Q1247.89 1454.33 1245.44 1455.09 Q1243.01 1455.86 1240.23 1457.41 L1240.23 1452.69 Q1243.06 1451.55 1245.51 1450.97 Q1247.96 1450.39 1250 1450.39 Q1255.37 1450.39 1258.57 1453.08 Q1261.76 1455.77 1261.76 1460.26 Q1261.76 1462.39 1260.95 1464.31 Q1260.16 1466.2 1258.06 1468.8 Q1257.48 1469.47 1254.38 1472.69 Q1251.27 1475.88 1245.63 1481.64 Z" fill="#000000" fill-rule="evenodd" fill-opacity="1" /><path clip-path="url(#clip160)" d="M1774.93 1466.95 Q1778.29 1467.66 1780.16 1469.93 Q1782.06 1472.2 1782.06 1475.53 Q1782.06 1480.65 1778.54 1483.45 Q1775.02 1486.25 1768.54 1486.25 Q1766.37 1486.25 1764.05 1485.81 Q1761.76 1485.39 1759.3 1484.54 L1759.3 1480.02 Q1761.25 1481.16 1763.56 1481.74 Q1765.88 1482.32 1768.4 1482.32 Q1772.8 1482.32 1775.09 1480.58 Q1777.41 1478.84 1777.41 1475.53 Q1777.41 1472.48 1775.25 1470.77 Q1773.12 1469.03 1769.3 1469.03 L1765.28 1469.03 L1765.28 1465.19 L1769.49 1465.19 Q1772.94 1465.19 1774.77 1463.82 Q1776.6 1462.43 1776.6 1459.84 Q1776.6 1457.18 1774.7 1455.77 Q1772.82 1454.33 1769.3 1454.33 Q1767.38 1454.33 1765.18 1454.75 Q1762.99 1455.16 1760.35 1456.04 L1760.35 1451.88 Q1763.01 1451.14 1765.32 1450.77 Q1767.66 1450.39 1769.72 1450.39 Q1775.05 1450.39 1778.15 1452.83 Q1781.25 1455.23 1781.25 1459.35 Q1781.25 1462.22 1779.61 1464.21 Q1777.96 1466.18 1774.93 1466.95 Z" fill="#000000" fill-rule="evenodd" fill-opacity="1" /><path clip-path="url(#clip160)" d="M2293.4 1455.09 L2281.59 1473.54 L2293.4 1473.54 L2293.4 1455.09 M2292.17 1451.02 L2298.05 1451.02 L2298.05 1473.54 L2302.98 1473.54 L2302.98 1477.43 L2298.05 1477.43 L2298.05 1485.58 L2293.4 1485.58 L2293.4 1477.43 L2277.8 1477.43 L2277.8 1472.92 L2292.17 1451.02 Z" fill="#000000" fill-rule="evenodd" fill-opacity="1" /><path clip-path="url(#clip160)" d="M1199.28 1522.27 L1199.28 1532.4 L1211.35 1532.4 L1211.35 1536.95 L1199.28 1536.95 L1199.28 1556.3 Q1199.28 1560.66 1200.46 1561.9 Q1201.67 1563.14 1205.33 1563.14 L1211.35 1563.14 L1211.35 1568.04 L1205.33 1568.04 Q1198.55 1568.04 1195.97 1565.53 Q1193.4 1562.98 1193.4 1556.3 L1193.4 1536.95 L1189.1 1536.95 L1189.1 1532.4 L1193.4 1532.4 L1193.4 1522.27 L1199.28 1522.27 Z" fill="#000000" fill-rule="evenodd" fill-opacity="1" /><path clip-path="url(#clip160)" d="M1239.23 1518.52 L1252.72 1518.52 L1252.72 1523.07 L1245.09 1523.07 L1245.09 1572.09 L1252.72 1572.09 L1252.72 1576.64 L1239.23 1576.64 L1239.23 1518.52 Z" fill="#000000" fill-rule="evenodd" fill-opacity="1" /><path clip-path="url(#clip160)" d="M1287.93 1533.45 L1287.93 1538.98 Q1285.44 1537.71 1282.77 1537.07 Q1280.1 1536.44 1277.23 1536.44 Q1272.87 1536.44 1270.68 1537.77 Q1268.51 1539.11 1268.51 1541.79 Q1268.51 1543.82 1270.07 1545 Q1271.63 1546.15 1276.34 1547.2 L1278.35 1547.64 Q1284.58 1548.98 1287.19 1551.43 Q1289.84 1553.85 1289.84 1558.21 Q1289.84 1563.17 1285.89 1566.07 Q1281.97 1568.97 1275.1 1568.97 Q1272.23 1568.97 1269.12 1568.39 Q1266.03 1567.85 1262.59 1566.74 L1262.59 1560.69 Q1265.84 1562.38 1268.99 1563.24 Q1272.14 1564.07 1275.23 1564.07 Q1279.36 1564.07 1281.59 1562.66 Q1283.82 1561.23 1283.82 1558.65 Q1283.82 1556.27 1282.2 1554.99 Q1280.61 1553.72 1275.16 1552.54 L1273.13 1552.07 Q1267.68 1550.92 1265.26 1548.56 Q1262.85 1546.18 1262.85 1542.04 Q1262.85 1537.01 1266.41 1534.27 Q1269.98 1531.54 1276.53 1531.54 Q1279.78 1531.54 1282.64 1532.01 Q1285.51 1532.49 1287.93 1533.45 Z" fill="#000000" fill-rule="evenodd" fill-opacity="1" /><path clip-path="url(#clip160)" d="M1312.85 1518.52 L1312.85 1576.64 L1299.35 1576.64 L1299.35 1572.09 L1306.96 1572.09 L1306.96 1523.07 L1299.35 1523.07 L1299.35 1518.52 L1312.85 1518.52 Z" fill="#000000" fill-rule="evenodd" fill-opacity="1" /><polyline clip-path="url(#clip162)" style="stroke:#000000; stroke-linecap:butt; stroke-linejoin:round; stroke-width:2; stroke-opacity:0.1; fill:none" points="
  149.191,1270.87 2352.76,1270.87 
  "/>
<polyline clip-path="url(#clip162)" style="stroke:#000000; stroke-linecap:butt; stroke-linejoin:round; stroke-width:2; stroke-opacity:0.1; fill:none" points="
  149.191,1003.08 2352.76,1003.08 
  "/>
<polyline clip-path="url(#clip162)" style="stroke:#000000; stroke-linecap:butt; stroke-linejoin:round; stroke-width:2; stroke-opacity:0.1; fill:none" points="
  149.191,735.289 2352.76,735.289 
  "/>
<polyline clip-path="url(#clip162)" style="stroke:#000000; stroke-linecap:butt; stroke-linejoin:round; stroke-width:2; stroke-opacity:0.1; fill:none" points="
  149.191,467.498 2352.76,467.498 
  "/>
<polyline clip-path="url(#clip162)" style="stroke:#000000; stroke-linecap:butt; stroke-linejoin:round; stroke-width:2; stroke-opacity:0.1; fill:none" points="
  149.191,199.707 2352.76,199.707 
  "/>
<polyline clip-path="url(#clip160)" style="stroke:#000000; stroke-linecap:butt; stroke-linejoin:round; stroke-width:4; stroke-opacity:1; fill:none" points="
  149.191,1423.18 149.191,47.2441 
  "/>
<polyline clip-path="url(#clip160)" style="stroke:#000000; stroke-linecap:butt; stroke-linejoin:round; stroke-width:4; stroke-opacity:1; fill:none" points="
  149.191,1270.87 168.089,1270.87 
  "/>
<polyline clip-path="url(#clip160)" style="stroke:#000000; stroke-linecap:butt; stroke-linejoin:round; stroke-width:4; stroke-opacity:1; fill:none" points="
  149.191,1003.08 168.089,1003.08 
  "/>
<polyline clip-path="url(#clip160)" style="stroke:#000000; stroke-linecap:butt; stroke-linejoin:round; stroke-width:4; stroke-opacity:1; fill:none" points="
  149.191,735.289 168.089,735.289 
  "/>
<polyline clip-path="url(#clip160)" style="stroke:#000000; stroke-linecap:butt; stroke-linejoin:round; stroke-width:4; stroke-opacity:1; fill:none" points="
  149.191,467.498 168.089,467.498 
  "/>
<polyline clip-path="url(#clip160)" style="stroke:#000000; stroke-linecap:butt; stroke-linejoin:round; stroke-width:4; stroke-opacity:1; fill:none" points="
  149.191,199.707 168.089,199.707 
  "/>
<path clip-path="url(#clip160)" d="M50.9921 1271.32 L80.6679 1271.32 L80.6679 1275.26 L50.9921 1275.26 L50.9921 1271.32 Z" fill="#000000" fill-rule="evenodd" fill-opacity="1" /><path clip-path="url(#clip160)" d="M103.608 1257.67 L91.8021 1276.11 L103.608 1276.11 L103.608 1257.67 M102.381 1253.59 L108.26 1253.59 L108.26 1276.11 L113.191 1276.11 L113.191 1280 L108.26 1280 L108.26 1288.15 L103.608 1288.15 L103.608 1280 L88.0058 1280 L88.0058 1275.49 L102.381 1253.59 Z" fill="#000000" fill-rule="evenodd" fill-opacity="1" /><path clip-path="url(#clip160)" d="M53.0754 1003.53 L82.7512 1003.53 L82.7512 1007.47 L53.0754 1007.47 L53.0754 1003.53 Z" fill="#000000" fill-rule="evenodd" fill-opacity="1" /><path clip-path="url(#clip160)" d="M96.8715 1016.43 L113.191 1016.43 L113.191 1020.36 L91.2465 1020.36 L91.2465 1016.43 Q93.9086 1013.67 98.4919 1009.04 Q103.098 1004.39 104.279 1003.05 Q106.524 1000.52 107.404 998.786 Q108.307 997.027 108.307 995.337 Q108.307 992.583 106.362 990.847 Q104.441 989.111 101.339 989.111 Q99.14 989.111 96.6863 989.874 Q94.2558 990.638 91.478 992.189 L91.478 987.467 Q94.3021 986.333 96.7558 985.754 Q99.2095 985.175 101.246 985.175 Q106.617 985.175 109.811 987.861 Q113.006 990.546 113.006 995.036 Q113.006 997.166 112.196 999.087 Q111.408 1000.99 109.302 1003.58 Q108.723 1004.25 105.621 1007.47 Q102.52 1010.66 96.8715 1016.43 Z" fill="#000000" fill-rule="evenodd" fill-opacity="1" /><path clip-path="url(#clip160)" d="M101.246 721.088 Q97.6354 721.088 95.8067 724.653 Q94.0012 728.194 94.0012 735.324 Q94.0012 742.431 95.8067 745.995 Q97.6354 749.537 101.246 749.537 Q104.881 749.537 106.686 745.995 Q108.515 742.431 108.515 735.324 Q108.515 728.194 106.686 724.653 Q104.881 721.088 101.246 721.088 M101.246 717.384 Q107.057 717.384 110.112 721.991 Q113.191 726.574 113.191 735.324 Q113.191 744.051 110.112 748.657 Q107.057 753.241 101.246 753.241 Q95.4363 753.241 92.3576 748.657 Q89.3021 744.051 89.3021 735.324 Q89.3021 726.574 92.3576 721.991 Q95.4363 717.384 101.246 717.384 Z" fill="#000000" fill-rule="evenodd" fill-opacity="1" /><path clip-path="url(#clip160)" d="M96.8715 480.843 L113.191 480.843 L113.191 484.778 L91.2465 484.778 L91.2465 480.843 Q93.9086 478.089 98.4919 473.459 Q103.098 468.806 104.279 467.464 Q106.524 464.94 107.404 463.204 Q108.307 461.445 108.307 459.755 Q108.307 457.001 106.362 455.265 Q104.441 453.528 101.339 453.528 Q99.14 453.528 96.6863 454.292 Q94.2558 455.056 91.478 456.607 L91.478 451.885 Q94.3021 450.751 96.7558 450.172 Q99.2095 449.593 101.246 449.593 Q106.617 449.593 109.811 452.278 Q113.006 454.964 113.006 459.454 Q113.006 461.584 112.196 463.505 Q111.408 465.403 109.302 467.996 Q108.723 468.667 105.621 471.885 Q102.52 475.079 96.8715 480.843 Z" fill="#000000" fill-rule="evenodd" fill-opacity="1" /><path clip-path="url(#clip160)" d="M103.608 186.501 L91.8021 204.95 L103.608 204.95 L103.608 186.501 M102.381 182.427 L108.26 182.427 L108.26 204.95 L113.191 204.95 L113.191 208.839 L108.26 208.839 L108.26 216.987 L103.608 216.987 L103.608 208.839 L88.0058 208.839 L88.0058 204.325 L102.381 182.427 Z" fill="#000000" fill-rule="evenodd" fill-opacity="1" /><polyline clip-path="url(#clip162)" style="stroke:#009af9; stroke-linecap:butt; stroke-linejoin:round; stroke-width:4; stroke-opacity:1; fill:none" points="
  211.556,601.394 216.753,603.395 221.95,605.381 227.147,607.349 232.344,609.297 237.541,611.224 242.738,613.128 247.936,615.007 253.133,616.859 258.33,618.682 
  263.527,620.475 268.724,622.235 273.921,623.962 279.118,625.652 284.315,627.305 289.512,628.919 294.709,630.492 299.906,632.022 305.103,633.508 310.301,634.949 
  315.498,636.343 320.695,637.689 325.892,638.985 331.089,640.23 336.286,641.423 341.483,642.562 346.68,643.647 351.877,644.676 357.074,645.649 362.271,646.563 
  367.469,647.42 372.666,648.216 377.863,648.953 383.06,649.629 388.257,650.243 393.454,650.794 398.651,651.283 403.848,651.709 409.045,652.071 414.242,652.369 
  419.439,652.602 424.636,652.771 429.834,652.875 435.031,652.915 440.228,652.889 445.425,652.799 450.622,652.643 455.819,652.423 461.016,652.139 466.213,651.791 
  471.41,651.378 476.607,650.903 481.804,650.364 487.002,649.763 492.199,649.101 497.396,648.377 502.593,647.593 507.79,646.749 512.987,645.846 518.184,644.886 
  523.381,643.869 528.578,642.796 533.775,641.668 538.972,640.486 544.17,639.252 549.367,637.967 554.564,636.632 559.761,635.248 564.958,633.817 570.155,632.34 
  575.352,630.819 580.549,629.255 585.746,627.65 590.943,626.005 596.14,624.322 601.337,622.603 606.535,620.849 611.732,619.063 616.929,617.245 622.126,615.398 
  627.323,613.524 632.52,611.624 637.717,609.7 642.914,607.755 648.111,605.79 653.308,603.807 658.505,601.809 663.703,599.796 668.9,597.772 674.097,595.738 
  679.294,593.696 684.491,591.649 689.688,589.598 694.885,587.546 700.082,585.493 705.279,583.444 710.476,581.398 715.673,579.36 720.87,577.33 726.068,575.311 
  731.265,573.305 736.462,571.313 741.659,569.338 746.856,567.382 752.053,565.446 757.25,563.533 762.447,561.644 767.644,559.782 772.841,557.948 778.038,556.144 
  783.236,554.372 788.433,552.634 793.63,550.931 798.827,549.265 804.024,547.638 809.221,546.051 814.418,544.506 819.615,543.005 824.812,541.549 830.009,540.139 
  835.206,538.777 840.403,537.464 845.601,536.202 850.798,534.992 855.995,533.834 861.192,532.731 866.389,531.683 871.586,530.692 876.783,529.757 881.98,528.881 
  887.177,528.064 892.374,527.307 897.571,526.611 902.769,525.976 907.966,525.403 913.163,524.893 918.36,524.446 923.557,524.062 928.754,523.743 933.951,523.488 
  939.148,523.297 944.345,523.171 949.542,523.109 954.739,523.113 959.936,523.181 965.134,523.315 970.331,523.513 975.528,523.775 980.725,524.102 985.922,524.493 
  991.119,524.947 996.316,525.464 1001.51,526.044 1006.71,526.686 1011.91,527.389 1017.1,528.152 1022.3,528.976 1027.5,529.858 1032.7,530.799 1037.89,531.797 
  1043.09,532.851 1048.29,533.96 1053.48,535.123 1058.68,536.34 1063.88,537.607 1069.08,538.925 1074.27,540.293 1079.47,541.708 1084.67,543.169 1089.86,544.675 
  1095.06,546.224 1100.26,547.815 1105.45,549.447 1110.65,551.117 1115.85,552.823 1121.05,554.565 1126.24,556.341 1131.44,558.148 1136.64,559.984 1141.83,561.849 
  1147.03,563.74 1152.23,565.656 1157.43,567.593 1162.62,569.551 1167.82,571.528 1173.02,573.521 1178.21,575.528 1183.41,577.548 1188.61,579.578 1193.81,581.617 
  1199,583.662 1204.2,585.711 1209.4,587.763 1214.59,589.815 1219.79,591.865 1224.99,593.911 1230.19,595.952 1235.38,597.984 1240.58,600.006 1245.78,602.017 
  1250.97,604.013 1256.17,605.993 1261.37,607.956 1266.56,609.898 1271.76,611.819 1276.96,613.715 1282.16,615.586 1287.35,617.429 1292.55,619.243 1297.75,621.026 
  1302.94,622.775 1308.14,624.49 1313.34,626.169 1318.54,627.809 1323.73,629.409 1328.93,630.968 1334.13,632.484 1339.32,633.955 1344.52,635.381 1349.72,636.759 
  1354.92,638.088 1360.11,639.368 1365.31,640.596 1370.51,641.771 1375.7,642.892 1380.9,643.959 1386.1,644.97 1391.29,645.923 1396.49,646.819 1401.69,647.656 
  1406.89,648.433 1412.08,649.15 1417.28,649.806 1422.48,650.4 1427.67,650.931 1432.87,651.4 1438.07,651.805 1443.27,652.146 1448.46,652.424 1453.66,652.636 
  1458.86,652.785 1464.05,652.868 1469.25,652.886 1474.45,652.84 1479.65,652.729 1484.84,652.553 1490.04,652.313 1495.24,652.008 1500.43,651.639 1505.63,651.207 
  1510.83,650.711 1516.02,650.153 1521.22,649.532 1526.42,648.85 1531.62,648.107 1536.81,647.304 1542.01,646.442 1547.21,645.522 1552.4,644.544 1557.6,643.509 
  1562.8,642.419 1568,641.274 1573.19,640.076 1578.39,638.826 1583.59,637.525 1588.78,636.175 1593.98,634.777 1599.18,633.331 1604.38,631.841 1609.57,630.307 
  1614.77,628.73 1619.97,627.113 1625.16,625.456 1630.36,623.762 1635.56,622.033 1640.75,620.269 1645.95,618.473 1651.15,616.647 1656.35,614.792 1661.54,612.91 
  1666.74,611.003 1671.94,609.074 1677.13,607.123 1682.33,605.153 1687.53,603.166 1692.73,601.164 1697.92,599.149 1703.12,597.122 1708.32,595.087 1713.51,593.044 
  1718.71,590.996 1723.91,588.946 1729.11,586.894 1734.3,584.844 1739.5,582.797 1744.7,580.755 1749.89,578.72 1755.09,576.694 1760.29,574.68 1765.49,572.679 
  1770.68,570.694 1775.88,568.726 1781.08,566.777 1786.27,564.849 1791.47,562.945 1796.67,561.065 1801.86,559.213 1807.06,557.389 1812.26,555.596 1817.46,553.836 
  1822.65,552.109 1827.85,550.419 1833.05,548.766 1838.24,547.152 1843.44,545.579 1848.64,544.049 1853.84,542.563 1859.03,541.122 1864.23,539.728 1869.43,538.382 
  1874.62,537.086 1879.82,535.84 1885.02,534.647 1890.22,533.508 1895.41,532.423 1900.61,531.393 1905.81,530.42 1911,529.505 1916.2,528.648 1921.4,527.85 
  1926.59,527.113 1931.79,526.436 1936.99,525.821 1942.19,525.269 1947.38,524.779 1952.58,524.352 1957.78,523.989 1962.97,523.69 1968.17,523.455 1973.37,523.285 
  1978.57,523.179 1983.76,523.139 1988.96,523.163 1994.16,523.252 1999.35,523.406 2004.55,523.624 2009.75,523.907 2014.95,524.254 2020.14,524.664 2025.34,525.138 
  2030.54,525.675 2035.73,526.274 2040.93,526.935 2046.13,527.657 2051.32,528.439 2056.52,529.281 2061.72,530.182 2066.92,531.14 2072.11,532.155 2077.31,533.226 
  2082.51,534.352 2087.7,535.532 2092.9,536.764 2098.1,538.047 2103.3,539.38 2108.49,540.762 2113.69,542.191 2118.89,543.666 2124.08,545.185 2129.28,546.747 
  2134.48,548.35 2139.68,549.993 2144.87,551.674 2150.07,553.391 2155.27,555.143 2160.46,556.927 2165.66,558.743 2170.86,560.588 2176.05,562.46 2181.25,564.358 
  2186.45,566.28 2191.65,568.223 2196.84,570.186 2202.04,572.167 2207.24,574.163 2212.43,576.174 2217.63,578.196 2222.83,580.228 2228.03,582.268 2233.22,584.314 
  2238.42,586.363 2243.62,588.414 2248.81,590.464 2254.01,592.512 2259.21,594.556 2264.41,596.593 2269.6,598.621 2274.8,600.639 2280,602.644 2285.19,604.634 
  2290.39,606.608 
  "/>
<polyline clip-path="url(#clip162)" style="stroke:#e26f46; stroke-linecap:butt; stroke-linejoin:round; stroke-width:4; stroke-opacity:1; fill:none" points="
  211.556,936.133 216.753,934.689 221.95,933.051 227.147,931.215 232.344,929.183 237.541,926.958 242.738,924.542 247.936,921.937 253.133,919.145 258.33,916.169 
  263.527,913.012 268.724,909.677 273.921,906.168 279.118,902.488 284.315,898.64 289.512,894.629 294.709,890.459 299.906,886.134 305.103,881.658 310.301,877.036 
  315.498,872.272 320.695,867.371 325.892,862.338 331.089,857.178 336.286,851.896 341.483,846.497 346.68,840.987 351.877,835.372 357.074,829.655 362.271,823.845 
  367.469,817.946 372.666,811.964 377.863,805.905 383.06,799.775 388.257,793.581 393.454,787.329 398.651,781.025 403.848,774.675 409.045,768.286 414.242,761.864 
  419.439,755.415 424.636,748.946 429.834,742.463 435.031,735.973 440.228,729.483 445.425,722.998 450.622,716.526 455.819,710.072 461.016,703.644 466.213,697.247 
  471.41,690.888 476.607,684.573 481.804,678.309 487.002,672.102 492.199,665.958 497.396,659.883 502.593,653.884 507.79,647.966 512.987,642.136 518.184,636.398 
  523.381,630.76 528.578,625.227 533.775,619.804 538.972,614.496 544.17,609.309 549.367,604.248 554.564,599.318 559.761,594.525 564.958,589.872 570.155,585.364 
  575.352,581.006 580.549,576.803 585.746,572.758 590.943,568.875 596.14,565.159 601.337,561.613 606.535,558.241 611.732,555.045 616.929,552.03 622.126,549.198 
  627.323,546.552 632.52,544.095 637.717,541.829 642.914,539.756 648.111,537.879 653.308,536.2 658.505,534.719 663.703,533.439 668.9,532.361 674.097,531.486 
  679.294,530.815 684.491,530.349 689.688,530.087 694.885,530.03 700.082,530.179 705.279,530.534 710.476,531.093 715.673,531.856 720.87,532.823 726.068,533.992 
  731.265,535.362 736.462,536.932 741.659,538.701 746.856,540.667 752.053,542.827 757.25,545.179 762.447,547.721 767.644,550.451 772.841,553.366 778.038,556.463 
  783.236,559.739 788.433,563.19 793.63,566.813 798.827,570.605 804.024,574.56 809.221,578.677 814.418,582.951 819.615,587.377 824.812,591.951 830.009,596.668 
  835.206,601.523 840.403,606.512 845.601,611.63 850.798,616.872 855.995,622.232 861.192,627.706 866.389,633.286 871.586,638.969 876.783,644.748 881.98,650.617 
  887.177,656.571 892.374,662.604 897.571,668.71 902.769,674.882 907.966,681.114 913.163,687.401 918.36,693.735 923.557,700.111 928.754,706.522 933.951,712.962 
  939.148,719.424 944.345,725.902 949.542,732.389 954.739,738.879 959.936,745.366 965.134,751.842 970.331,758.302 975.528,764.739 980.725,771.146 985.922,777.518 
  991.119,783.847 996.316,790.127 1001.51,796.353 1006.71,802.518 1011.91,808.615 1017.1,814.639 1022.3,820.583 1027.5,826.443 1032.7,832.211 1037.89,837.882 
  1043.09,843.45 1048.29,848.91 1053.48,854.257 1058.68,859.485 1063.88,864.588 1069.08,869.562 1074.27,874.402 1079.47,879.103 1084.67,883.659 1089.86,888.068 
  1095.06,892.323 1100.26,896.422 1105.45,900.359 1110.65,904.132 1115.85,907.735 1121.05,911.166 1126.24,914.421 1131.44,917.497 1136.64,920.391 1141.83,923.099 
  1147.03,925.62 1152.23,927.95 1157.43,930.088 1162.62,932.031 1167.82,933.777 1173.02,935.325 1178.21,936.673 1183.41,937.819 1188.61,938.763 1193.81,939.503 
  1199,940.038 1204.2,940.37 1209.4,940.496 1214.59,940.417 1219.79,940.133 1224.99,939.644 1230.19,938.95 1235.38,938.053 1240.58,936.953 1245.78,935.652 
  1250.97,934.151 1256.17,932.45 1261.37,930.552 1266.56,928.459 1271.76,926.172 1276.96,923.695 1282.16,921.03 1287.35,918.179 1292.55,915.145 1297.75,911.931 
  1302.94,908.54 1308.14,904.976 1313.34,901.243 1318.54,897.344 1323.73,893.282 1328.93,889.063 1334.13,884.69 1339.32,880.167 1344.52,875.5 1349.72,870.692 
  1354.92,865.749 1360.11,860.676 1365.31,855.478 1370.51,850.158 1375.7,844.725 1380.9,839.181 1386.1,833.534 1391.29,827.789 1396.49,821.952 1401.69,816.027 
  1406.89,810.022 1412.08,803.943 1417.28,797.794 1422.48,791.583 1427.67,785.316 1432.87,778.999 1438.07,772.639 1443.27,766.241 1448.46,759.811 1453.66,753.358 
  1458.86,746.886 1464.05,740.403 1469.25,733.915 1474.45,727.429 1479.65,720.95 1484.84,714.485 1490.04,708.042 1495.24,701.625 1500.43,695.243 1505.63,688.9 
  1510.83,682.604 1516.02,676.361 1521.22,670.176 1526.42,664.057 1531.62,658.009 1536.81,652.038 1542.01,646.151 1547.21,640.352 1552.4,634.649 1557.6,629.046 
  1562.8,623.55 1568,618.166 1573.19,612.898 1578.39,607.753 1583.59,602.736 1588.78,597.851 1593.98,593.103 1599.18,588.498 1604.38,584.04 1609.57,579.733 
  1614.77,575.581 1619.97,571.589 1625.16,567.761 1630.36,564.101 1635.56,560.612 1640.75,557.297 1645.95,554.161 1651.15,551.205 1656.35,548.434 1661.54,545.849 
  1666.74,543.454 1671.94,541.251 1677.13,539.242 1682.33,537.429 1687.53,535.814 1692.73,534.398 1697.92,533.183 1703.12,532.17 1708.32,531.361 1713.51,530.755 
  1718.71,530.354 1723.91,530.158 1729.11,530.167 1734.3,530.381 1739.5,530.8 1744.7,531.424 1749.89,532.251 1755.09,533.282 1760.29,534.514 1765.49,535.947 
  1770.68,537.579 1775.88,539.409 1781.08,541.436 1786.27,543.656 1791.47,546.067 1796.67,548.668 1801.86,551.456 1807.06,554.426 1812.26,557.578 1817.46,560.908 
  1822.65,564.412 1827.85,568.088 1833.05,571.93 1838.24,575.935 1843.44,580.1 1848.64,584.419 1853.84,588.89 1859.03,593.508 1864.23,598.267 1869.43,603.163 
  1874.62,608.191 1879.82,613.346 1885.02,618.623 1890.22,624.016 1895.41,629.521 1900.61,635.132 1905.81,640.843 1911,646.648 1916.2,652.542 1921.4,658.518 
  1926.59,664.572 1931.79,670.696 1936.99,676.884 1942.19,683.131 1947.38,689.43 1952.58,695.775 1957.78,702.159 1962.97,708.576 1968.17,715.021 1973.37,721.485 
  1978.57,727.963 1983.76,734.449 1988.96,740.935 1994.16,747.415 1999.35,753.883 2004.55,760.333 2009.75,766.758 2014.95,773.151 2020.14,779.506 2025.34,785.817 
  2030.54,792.078 2035.73,798.281 2040.93,804.422 2046.13,810.493 2051.32,816.489 2056.52,822.404 2061.72,828.232 2066.92,833.967 2072.11,839.603 2077.31,845.135 
  2082.51,850.557 2087.7,855.863 2092.9,861.049 2098.1,866.109 2103.3,871.039 2108.49,875.832 2113.69,880.485 2118.89,884.993 2124.08,889.351 2129.28,893.555 
  2134.48,897.601 2139.68,901.484 2144.87,905.201 2150.07,908.749 2155.27,912.122 2160.46,915.319 2165.66,918.336 2170.86,921.169 2176.05,923.817 2181.25,926.277 
  2186.45,928.545 2191.65,930.62 2196.84,932.5 2202.04,934.182 2207.24,935.666 2212.43,936.949 2217.63,938.031 2222.83,938.91 2228.03,939.584 2233.22,940.055 
  2238.42,940.321 2243.62,940.382 2248.81,940.238 2254.01,939.89 2259.21,939.336 2264.41,938.578 2269.6,937.617 2274.8,936.454 2280,935.089 2285.19,933.525 
  2290.39,931.763 
  "/>
<polyline clip-path="url(#clip162)" style="stroke:#3da44d; stroke-linecap:butt; stroke-linejoin:round; stroke-width:4; stroke-opacity:1; fill:none" points="
  211.556,601.394 216.753,581.384 221.95,561.527 227.147,541.847 232.344,522.361 237.541,503.089 242.738,484.05 247.936,465.263 253.133,446.744 258.33,428.512 
  263.527,410.584 268.724,392.978 273.921,375.714 279.118,358.808 284.315,342.279 289.512,326.142 294.709,310.415 299.906,295.112 305.103,280.249 310.301,265.839 
  315.498,251.899 320.695,238.444 325.892,225.483 331.089,213.032 336.286,201.104 341.483,189.71 346.68,178.862 351.877,168.57 357.074,158.845 362.271,149.697 
  367.469,141.135 372.666,133.167 377.863,125.802 383.06,119.046 388.257,112.906 393.454,107.389 398.651,102.5 403.848,98.2435 409.045,94.624 414.242,91.6451 
  419.439,89.3098 424.636,87.6204 429.834,86.5787 435.031,86.1857 440.228,86.4417 445.425,87.3465 450.622,88.8993 455.819,91.0984 461.016,93.9418 466.213,97.4264 
  471.41,101.549 476.607,106.305 481.804,111.691 487.002,117.7 492.199,124.327 497.396,131.564 502.593,139.406 507.79,147.843 512.987,156.868 518.184,166.472 
  523.381,176.644 528.578,187.374 533.775,198.653 538.972,210.468 544.17,222.808 549.367,235.66 554.564,249.012 559.761,262.85 564.958,277.161 570.155,291.929 
  575.352,307.141 580.549,322.781 585.746,338.833 590.943,355.282 596.14,372.111 601.337,389.303 606.535,406.841 611.732,424.707 616.929,442.884 622.126,461.353 
  627.323,480.097 632.52,499.095 637.717,518.33 642.914,537.782 648.111,557.432 653.308,577.259 658.505,597.244 663.703,617.368 668.9,637.61 674.097,657.95 
  679.294,678.368 684.491,698.842 689.688,719.352 694.885,739.877 700.082,760.399 705.279,780.896 710.476,801.347 715.673,821.732 720.87,842.03 726.068,862.221 
  731.265,882.285 736.462,902.202 741.659,921.952 746.856,941.515 752.053,960.872 757.25,980.003 762.447,998.888 767.644,1017.51 772.841,1035.85 778.038,1053.89 
  783.236,1071.61 788.433,1088.99 793.63,1106.02 798.827,1122.68 804.024,1138.95 809.221,1154.82 814.418,1170.27 819.615,1185.28 824.812,1199.84 830.009,1213.94 
  835.206,1227.56 840.403,1240.69 845.601,1253.31 850.798,1265.42 855.995,1276.99 861.192,1288.02 866.389,1298.5 871.586,1308.42 876.783,1317.76 881.98,1326.52 
  887.177,1334.69 892.374,1342.26 897.571,1349.22 902.769,1355.57 907.966,1361.3 913.163,1366.4 918.36,1370.87 923.557,1374.71 928.754,1377.9 933.951,1380.46 
  939.148,1382.36 944.345,1383.63 949.542,1384.24 954.739,1384.2 959.936,1383.52 965.134,1382.18 970.331,1380.2 975.528,1377.58 980.725,1374.31 985.922,1370.4 
  991.119,1365.86 996.316,1360.69 1001.51,1354.89 1006.71,1348.48 1011.91,1341.44 1017.1,1333.81 1022.3,1325.57 1027.5,1316.75 1032.7,1307.34 1037.89,1297.36 
  1043.09,1286.82 1048.29,1275.73 1053.48,1264.1 1058.68,1251.94 1063.88,1239.26 1069.08,1226.08 1074.27,1212.41 1079.47,1198.26 1084.67,1183.64 1089.86,1168.58 
  1095.06,1153.09 1100.26,1137.18 1105.45,1120.87 1110.65,1104.17 1115.85,1087.1 1121.05,1069.68 1126.24,1051.93 1131.44,1033.86 1136.64,1015.49 1141.83,996.84 
  1147.03,977.929 1152.23,958.776 1157.43,939.4 1162.62,919.819 1167.82,900.055 1173.02,880.126 1178.21,860.053 1183.41,839.854 1188.61,819.551 1193.81,799.163 
  1199,778.712 1204.2,758.218 1209.4,737.701 1214.59,717.182 1219.79,696.681 1224.99,676.219 1230.19,655.815 1235.38,635.491 1240.58,615.268 1245.78,595.164 
  1250.97,575.201 1256.17,555.398 1261.37,535.775 1266.56,516.351 1271.76,497.147 1276.96,478.18 1282.16,459.471 1287.35,441.038 1292.55,422.899 1297.75,405.073 
  1302.94,387.577 1308.14,370.429 1313.34,353.646 1318.54,337.245 1323.73,321.241 1328.93,305.652 1334.13,290.492 1339.32,275.778 1344.52,261.523 1349.72,247.742 
  1354.92,234.449 1360.11,221.656 1365.31,209.376 1370.51,197.624 1375.7,186.409 1380.9,175.743 1386.1,165.636 1391.29,156.099 1396.49,147.141 1401.69,138.771 
  1406.89,130.999 1412.08,123.83 1417.28,117.274 1422.48,111.335 1427.67,106.02 1432.87,101.334 1438.07,97.2809 1443.27,93.8676 1448.46,91.0958 1453.66,88.9682 
  1458.86,87.4868 1464.05,86.6529 1469.25,86.4671 1474.45,86.9294 1479.65,88.0418 1484.84,89.8014 1490.04,92.2066 1495.24,95.2547 1500.43,98.9425 1505.63,103.266 
  1510.83,108.221 1516.02,113.804 1521.22,120.009 1526.42,126.83 1531.62,134.258 1536.81,142.288 1542.01,150.91 1547.21,160.115 1552.4,169.896 1557.6,180.244 
  1562.8,191.147 1568,202.593 1573.19,214.572 1578.39,227.071 1583.59,240.078 1588.78,253.58 1593.98,267.565 1599.18,282.017 1604.38,296.923 1609.57,312.266 
  1614.77,328.033 1619.97,344.205 1625.16,360.769 1630.36,377.709 1635.56,395.006 1640.75,412.643 1645.95,430.602 1651.15,448.866 1656.35,467.415 1661.54,486.233 
  1666.74,505.3 1671.94,524.597 1677.13,544.105 1682.33,563.803 1687.53,583.673 1692.73,603.694 1697.92,623.846 1703.12,644.11 1708.32,664.466 1713.51,684.892 
  1718.71,705.368 1723.91,725.875 1729.11,746.39 1734.3,766.893 1739.5,787.366 1744.7,807.786 1749.89,828.134 1755.09,848.389 1760.29,868.53 1765.49,888.538 
  1770.68,908.393 1775.88,928.074 1781.08,947.563 1786.27,966.839 1791.47,985.884 1796.67,1004.68 1801.86,1023.2 1807.06,1041.44 1812.26,1059.37 1817.46,1076.97 
  1822.65,1094.24 1827.85,1111.14 1833.05,1127.67 1838.24,1143.81 1843.44,1159.54 1848.64,1174.84 1853.84,1189.71 1859.03,1204.11 1864.23,1218.06 1869.43,1231.51 
  1874.62,1244.47 1879.82,1256.93 1885.02,1268.86 1890.22,1280.26 1895.41,1291.11 1900.61,1301.4 1905.81,1311.13 1911,1320.29 1916.2,1328.86 1921.4,1336.83 
  1926.59,1344.21 1931.79,1350.97 1936.99,1357.12 1942.19,1362.65 1947.38,1367.55 1952.58,1371.81 1957.78,1375.45 1962.97,1378.44 1968.17,1380.78 1973.37,1382.48 
  1978.57,1383.54 1983.76,1383.95 1988.96,1383.7 1994.16,1382.81 1999.35,1381.28 2004.55,1379.09 2009.75,1376.26 2014.95,1372.79 2020.14,1368.69 2025.34,1363.95 
  2030.54,1358.58 2035.73,1352.59 2040.93,1345.98 2046.13,1338.76 2051.32,1330.94 2056.52,1322.52 2061.72,1313.51 2066.92,1303.93 2072.11,1293.78 2077.31,1283.07 
  2082.51,1271.81 2087.7,1260.01 2092.9,1247.69 2098.1,1234.86 2103.3,1221.53 2108.49,1207.71 2113.69,1193.42 2118.89,1178.68 2124.08,1163.48 2129.28,1147.86 
  2134.48,1131.83 2139.68,1115.4 2144.87,1098.6 2150.07,1081.42 2155.27,1063.91 2160.46,1046.06 2165.66,1027.9 2170.86,1009.45 2176.05,990.73 2181.25,971.752 
  2186.45,952.536 2191.65,933.103 2196.84,913.473 2202.04,893.664 2207.24,873.698 2212.43,853.594 2217.63,833.371 2222.83,813.05 2228.03,792.651 2233.22,772.195 
  2238.42,751.703 2243.62,731.194 2248.81,710.689 2254.01,690.21 2259.21,669.775 2264.41,649.405 2269.6,629.122 2274.8,608.945 2280,588.895 2285.19,568.991 
  2290.39,549.253 
  "/>
<path clip-path="url(#clip160)" d="
M1550.58 300.469 L2279.3 300.469 L2279.3 93.1086 L1550.58 93.1086  Z
  " fill="#ffffff" fill-rule="evenodd" fill-opacity="1"/>
<polyline clip-path="url(#clip160)" style="stroke:#000000; stroke-linecap:butt; stroke-linejoin:round; stroke-width:4; stroke-opacity:1; fill:none" points="
  1550.58,300.469 2279.3,300.469 2279.3,93.1086 1550.58,93.1086 1550.58,300.469 
  "/>
<polyline clip-path="url(#clip160)" style="stroke:#009af9; stroke-linecap:butt; stroke-linejoin:round; stroke-width:4; stroke-opacity:1; fill:none" points="
  1575.06,144.949 1721.97,144.949 
  "/>
<path clip-path="url(#clip160)" d="M1766.8 141.28 Q1768.39 138.409 1770.62 137.044 Q1772.84 135.678 1775.85 135.678 Q1779.9 135.678 1782.1 138.525 Q1784.3 141.349 1784.3 146.581 L1784.3 162.229 L1780.01 162.229 L1780.01 146.719 Q1780.01 142.993 1778.69 141.187 Q1777.38 139.382 1774.67 139.382 Q1771.36 139.382 1769.44 141.581 Q1767.51 143.78 1767.51 147.576 L1767.51 162.229 L1763.23 162.229 L1763.23 146.719 Q1763.23 142.969 1761.91 141.187 Q1760.59 139.382 1757.84 139.382 Q1754.57 139.382 1752.65 141.604 Q1750.73 143.803 1750.73 147.576 L1750.73 162.229 L1746.45 162.229 L1746.45 136.303 L1750.73 136.303 L1750.73 140.331 Q1752.19 137.946 1754.23 136.812 Q1756.26 135.678 1759.07 135.678 Q1761.89 135.678 1763.86 137.113 Q1765.85 138.548 1766.8 141.28 Z" fill="#000000" fill-rule="evenodd" fill-opacity="1" /><path clip-path="url(#clip160)" d="M1804.57 149.196 Q1799.41 149.196 1797.42 150.377 Q1795.43 151.557 1795.43 154.405 Q1795.43 156.673 1796.91 158.016 Q1798.42 159.335 1800.99 159.335 Q1804.53 159.335 1806.66 156.835 Q1808.81 154.312 1808.81 150.145 L1808.81 149.196 L1804.57 149.196 M1813.07 147.437 L1813.07 162.229 L1808.81 162.229 L1808.81 158.293 Q1807.35 160.655 1805.18 161.789 Q1803 162.9 1799.85 162.9 Q1795.87 162.9 1793.51 160.678 Q1791.17 158.432 1791.17 154.682 Q1791.17 150.307 1794.09 148.085 Q1797.03 145.863 1802.84 145.863 L1808.81 145.863 L1808.81 145.446 Q1808.81 142.507 1806.87 140.909 Q1804.94 139.289 1801.45 139.289 Q1799.23 139.289 1797.12 139.821 Q1795.01 140.354 1793.07 141.419 L1793.07 137.483 Q1795.41 136.581 1797.61 136.141 Q1799.81 135.678 1801.89 135.678 Q1807.51 135.678 1810.29 138.594 Q1813.07 141.511 1813.07 147.437 Z" fill="#000000" fill-rule="evenodd" fill-opacity="1" /><path clip-path="url(#clip160)" d="M1838.37 137.067 L1838.37 141.094 Q1836.56 140.169 1834.62 139.706 Q1832.68 139.243 1830.59 139.243 Q1827.42 139.243 1825.82 140.215 Q1824.25 141.187 1824.25 143.131 Q1824.25 144.613 1825.38 145.469 Q1826.52 146.303 1829.94 147.067 L1831.4 147.391 Q1835.94 148.363 1837.84 150.145 Q1839.76 151.905 1839.76 155.076 Q1839.76 158.687 1836.89 160.793 Q1834.04 162.9 1829.04 162.9 Q1826.96 162.9 1824.69 162.483 Q1822.44 162.09 1819.94 161.28 L1819.94 156.881 Q1822.31 158.108 1824.6 158.733 Q1826.89 159.335 1829.13 159.335 Q1832.14 159.335 1833.76 158.317 Q1835.38 157.275 1835.38 155.4 Q1835.38 153.664 1834.2 152.738 Q1833.05 151.812 1829.09 150.956 L1827.61 150.608 Q1823.65 149.775 1821.89 148.062 Q1820.13 146.326 1820.13 143.317 Q1820.13 139.659 1822.72 137.669 Q1825.31 135.678 1830.08 135.678 Q1832.44 135.678 1834.53 136.025 Q1836.61 136.372 1838.37 137.067 Z" fill="#000000" fill-rule="evenodd" fill-opacity="1" /><path clip-path="url(#clip160)" d="M1863.07 137.067 L1863.07 141.094 Q1861.26 140.169 1859.32 139.706 Q1857.37 139.243 1855.29 139.243 Q1852.12 139.243 1850.52 140.215 Q1848.95 141.187 1848.95 143.131 Q1848.95 144.613 1850.08 145.469 Q1851.22 146.303 1854.64 147.067 L1856.1 147.391 Q1860.64 148.363 1862.54 150.145 Q1864.46 151.905 1864.46 155.076 Q1864.46 158.687 1861.59 160.793 Q1858.74 162.9 1853.74 162.9 Q1851.66 162.9 1849.39 162.483 Q1847.14 162.09 1844.64 161.28 L1844.64 156.881 Q1847 158.108 1849.3 158.733 Q1851.59 159.335 1853.83 159.335 Q1856.84 159.335 1858.46 158.317 Q1860.08 157.275 1860.08 155.4 Q1860.08 153.664 1858.9 152.738 Q1857.75 151.812 1853.79 150.956 L1852.31 150.608 Q1848.35 149.775 1846.59 148.062 Q1844.83 146.326 1844.83 143.317 Q1844.83 139.659 1847.42 137.669 Q1850.01 135.678 1854.78 135.678 Q1857.14 135.678 1859.23 136.025 Q1861.31 136.372 1863.07 137.067 Z" fill="#000000" fill-rule="evenodd" fill-opacity="1" /><path clip-path="url(#clip160)" d="M1871.84 156.349 L1876.73 156.349 L1876.73 162.229 L1871.84 162.229 L1871.84 156.349 Z" fill="#000000" fill-rule="evenodd" fill-opacity="1" /><path clip-path="url(#clip160)" d="M1902.84 137.067 L1902.84 141.094 Q1901.03 140.169 1899.09 139.706 Q1897.14 139.243 1895.06 139.243 Q1891.89 139.243 1890.29 140.215 Q1888.72 141.187 1888.72 143.131 Q1888.72 144.613 1889.85 145.469 Q1890.99 146.303 1894.41 147.067 L1895.87 147.391 Q1900.41 148.363 1902.3 150.145 Q1904.23 151.905 1904.23 155.076 Q1904.23 158.687 1901.36 160.793 Q1898.51 162.9 1893.51 162.9 Q1891.43 162.9 1889.16 162.483 Q1886.91 162.09 1884.41 161.28 L1884.41 156.881 Q1886.77 158.108 1889.06 158.733 Q1891.36 159.335 1893.6 159.335 Q1896.61 159.335 1898.23 158.317 Q1899.85 157.275 1899.85 155.4 Q1899.85 153.664 1898.67 152.738 Q1897.51 151.812 1893.56 150.956 L1892.07 150.608 Q1888.12 149.775 1886.36 148.062 Q1884.6 146.326 1884.6 143.317 Q1884.6 139.659 1887.19 137.669 Q1889.78 135.678 1894.55 135.678 Q1896.91 135.678 1898.99 136.025 Q1901.08 136.372 1902.84 137.067 Z" fill="#000000" fill-rule="evenodd" fill-opacity="1" /><path clip-path="url(#clip160)" d="M1936.31 126.257 Q1933.21 131.581 1931.7 136.789 Q1930.2 141.997 1930.2 147.344 Q1930.2 152.692 1931.7 157.946 Q1933.23 163.178 1936.31 168.479 L1932.61 168.479 Q1929.13 163.039 1927.4 157.784 Q1925.68 152.53 1925.68 147.344 Q1925.68 142.182 1927.4 136.951 Q1929.11 131.72 1932.61 126.257 L1936.31 126.257 Z" fill="#000000" fill-rule="evenodd" fill-opacity="1" /><path clip-path="url(#clip160)" d="M1959.34 143.594 Q1962.7 144.312 1964.57 146.581 Q1966.47 148.849 1966.47 152.182 Q1966.47 157.298 1962.95 160.099 Q1959.43 162.9 1952.95 162.9 Q1950.78 162.9 1948.46 162.46 Q1946.17 162.043 1943.72 161.187 L1943.72 156.673 Q1945.66 157.807 1947.98 158.386 Q1950.29 158.965 1952.81 158.965 Q1957.21 158.965 1959.5 157.229 Q1961.82 155.493 1961.82 152.182 Q1961.82 149.127 1959.67 147.414 Q1957.54 145.678 1953.72 145.678 L1949.69 145.678 L1949.69 141.835 L1953.9 141.835 Q1957.35 141.835 1959.18 140.469 Q1961.01 139.081 1961.01 136.488 Q1961.01 133.826 1959.11 132.414 Q1957.24 130.979 1953.72 130.979 Q1951.8 130.979 1949.6 131.395 Q1947.4 131.812 1944.76 132.692 L1944.76 128.525 Q1947.42 127.784 1949.74 127.414 Q1952.07 127.044 1954.13 127.044 Q1959.46 127.044 1962.56 129.474 Q1965.66 131.882 1965.66 136.002 Q1965.66 138.872 1964.02 140.863 Q1962.37 142.831 1959.34 143.594 Z" fill="#000000" fill-rule="evenodd" fill-opacity="1" /><path clip-path="url(#clip160)" d="M1989.5 143.594 Q1992.86 144.312 1994.74 146.581 Q1996.63 148.849 1996.63 152.182 Q1996.63 157.298 1993.11 160.099 Q1989.6 162.9 1983.11 162.9 Q1980.94 162.9 1978.62 162.46 Q1976.33 162.043 1973.88 161.187 L1973.88 156.673 Q1975.82 157.807 1978.14 158.386 Q1980.45 158.965 1982.98 158.965 Q1987.37 158.965 1989.67 157.229 Q1991.98 155.493 1991.98 152.182 Q1991.98 149.127 1989.83 147.414 Q1987.7 145.678 1983.88 145.678 L1979.85 145.678 L1979.85 141.835 L1984.06 141.835 Q1987.51 141.835 1989.34 140.469 Q1991.17 139.081 1991.17 136.488 Q1991.17 133.826 1989.27 132.414 Q1987.4 130.979 1983.88 130.979 Q1981.96 130.979 1979.76 131.395 Q1977.56 131.812 1974.92 132.692 L1974.92 128.525 Q1977.58 127.784 1979.9 127.414 Q1982.24 127.044 1984.3 127.044 Q1989.62 127.044 1992.72 129.474 Q1995.82 131.882 1995.82 136.002 Q1995.82 138.872 1994.18 140.863 Q1992.54 142.831 1989.5 143.594 Z" fill="#000000" fill-rule="evenodd" fill-opacity="1" /><path clip-path="url(#clip160)" d="M2005.55 127.669 L2023.9 127.669 L2023.9 131.604 L2009.83 131.604 L2009.83 140.076 Q2010.85 139.729 2011.86 139.567 Q2012.88 139.382 2013.9 139.382 Q2019.69 139.382 2023.07 142.553 Q2026.45 145.724 2026.45 151.141 Q2026.45 156.719 2022.98 159.821 Q2019.5 162.9 2013.18 162.9 Q2011.01 162.9 2008.74 162.53 Q2006.49 162.159 2004.09 161.418 L2004.09 156.719 Q2006.17 157.854 2008.39 158.409 Q2010.61 158.965 2013.09 158.965 Q2017.1 158.965 2019.43 156.858 Q2021.77 154.752 2021.77 151.141 Q2021.77 147.53 2019.43 145.423 Q2017.1 143.317 2013.09 143.317 Q2011.22 143.317 2009.34 143.733 Q2007.49 144.15 2005.55 145.03 L2005.55 127.669 Z" fill="#000000" fill-rule="evenodd" fill-opacity="1" /><path clip-path="url(#clip160)" d="M2035.71 127.669 L2054.06 127.669 L2054.06 131.604 L2039.99 131.604 L2039.99 140.076 Q2041.01 139.729 2042.03 139.567 Q2043.04 139.382 2044.06 139.382 Q2049.85 139.382 2053.23 142.553 Q2056.61 145.724 2056.61 151.141 Q2056.61 156.719 2053.14 159.821 Q2049.67 162.9 2043.35 162.9 Q2041.17 162.9 2038.9 162.53 Q2036.66 162.159 2034.25 161.418 L2034.25 156.719 Q2036.33 157.854 2038.55 158.409 Q2040.78 158.965 2043.25 158.965 Q2047.26 158.965 2049.6 156.858 Q2051.93 154.752 2051.93 151.141 Q2051.93 147.53 2049.6 145.423 Q2047.26 143.317 2043.25 143.317 Q2041.38 143.317 2039.5 143.733 Q2037.65 144.15 2035.71 145.03 L2035.71 127.669 Z" fill="#000000" fill-rule="evenodd" fill-opacity="1" /><path clip-path="url(#clip160)" d="M2078.67 131.743 L2066.86 150.192 L2078.67 150.192 L2078.67 131.743 M2077.44 127.669 L2083.32 127.669 L2083.32 150.192 L2088.25 150.192 L2088.25 154.081 L2083.32 154.081 L2083.32 162.229 L2078.67 162.229 L2078.67 154.081 L2063.07 154.081 L2063.07 149.567 L2077.44 127.669 Z" fill="#000000" fill-rule="evenodd" fill-opacity="1" /><path clip-path="url(#clip160)" d="M2108.83 131.743 L2097.03 150.192 L2108.83 150.192 L2108.83 131.743 M2107.6 127.669 L2113.48 127.669 L2113.48 150.192 L2118.41 150.192 L2118.41 154.081 L2113.48 154.081 L2113.48 162.229 L2108.83 162.229 L2108.83 154.081 L2093.23 154.081 L2093.23 149.567 L2107.6 127.669 Z" fill="#000000" fill-rule="evenodd" fill-opacity="1" /><path clip-path="url(#clip160)" d="M2140.31 143.594 Q2143.67 144.312 2145.54 146.581 Q2147.44 148.849 2147.44 152.182 Q2147.44 157.298 2143.92 160.099 Q2140.41 162.9 2133.92 162.9 Q2131.75 162.9 2129.43 162.46 Q2127.14 162.043 2124.69 161.187 L2124.69 156.673 Q2126.63 157.807 2128.95 158.386 Q2131.26 158.965 2133.79 158.965 Q2138.18 158.965 2140.47 157.229 Q2142.79 155.493 2142.79 152.182 Q2142.79 149.127 2140.64 147.414 Q2138.51 145.678 2134.69 145.678 L2130.66 145.678 L2130.66 141.835 L2134.87 141.835 Q2138.32 141.835 2140.15 140.469 Q2141.98 139.081 2141.98 136.488 Q2141.98 133.826 2140.08 132.414 Q2138.21 130.979 2134.69 130.979 Q2132.77 130.979 2130.57 131.395 Q2128.37 131.812 2125.73 132.692 L2125.73 128.525 Q2128.39 127.784 2130.71 127.414 Q2133.04 127.044 2135.1 127.044 Q2140.43 127.044 2143.53 129.474 Q2146.63 131.882 2146.63 136.002 Q2146.63 138.872 2144.99 140.863 Q2143.35 142.831 2140.31 143.594 Z" fill="#000000" fill-rule="evenodd" fill-opacity="1" /><path clip-path="url(#clip160)" d="M2160.34 158.293 L2176.66 158.293 L2176.66 162.229 L2154.71 162.229 L2154.71 158.293 Q2157.37 155.539 2161.96 150.909 Q2166.56 146.256 2167.74 144.914 Q2169.99 142.391 2170.87 140.655 Q2171.77 138.895 2171.77 137.206 Q2171.77 134.451 2169.83 132.715 Q2167.91 130.979 2164.8 130.979 Q2162.6 130.979 2160.15 131.743 Q2157.72 132.507 2154.94 134.057 L2154.94 129.335 Q2157.77 128.201 2160.22 127.622 Q2162.67 127.044 2164.71 127.044 Q2170.08 127.044 2173.28 129.729 Q2176.47 132.414 2176.47 136.905 Q2176.47 139.034 2175.66 140.956 Q2174.87 142.854 2172.77 145.446 Q2172.19 146.118 2169.09 149.335 Q2165.98 152.53 2160.34 158.293 Z" fill="#000000" fill-rule="evenodd" fill-opacity="1" /><path clip-path="url(#clip160)" d="M2185.2 126.257 L2188.9 126.257 Q2192.37 131.72 2194.09 136.951 Q2195.82 142.182 2195.82 147.344 Q2195.82 152.53 2194.09 157.784 Q2192.37 163.039 2188.9 168.479 L2185.2 168.479 Q2188.28 163.178 2189.78 157.946 Q2191.31 152.692 2191.31 147.344 Q2191.31 141.997 2189.78 136.789 Q2188.28 131.581 2185.2 126.257 Z" fill="#000000" fill-rule="evenodd" fill-opacity="1" /><polyline clip-path="url(#clip160)" style="stroke:#e26f46; stroke-linecap:butt; stroke-linejoin:round; stroke-width:4; stroke-opacity:1; fill:none" points="
  1575.06,196.789 1721.97,196.789 
  "/>
<path clip-path="url(#clip160)" d="M1766.8 193.12 Q1768.39 190.249 1770.62 188.884 Q1772.84 187.518 1775.85 187.518 Q1779.9 187.518 1782.1 190.365 Q1784.3 193.189 1784.3 198.421 L1784.3 214.069 L1780.01 214.069 L1780.01 198.559 Q1780.01 194.833 1778.69 193.027 Q1777.38 191.222 1774.67 191.222 Q1771.36 191.222 1769.44 193.421 Q1767.51 195.62 1767.51 199.416 L1767.51 214.069 L1763.23 214.069 L1763.23 198.559 Q1763.23 194.809 1761.91 193.027 Q1760.59 191.222 1757.84 191.222 Q1754.57 191.222 1752.65 193.444 Q1750.73 195.643 1750.73 199.416 L1750.73 214.069 L1746.45 214.069 L1746.45 188.143 L1750.73 188.143 L1750.73 192.171 Q1752.19 189.786 1754.23 188.652 Q1756.26 187.518 1759.07 187.518 Q1761.89 187.518 1763.86 188.953 Q1765.85 190.388 1766.8 193.12 Z" fill="#000000" fill-rule="evenodd" fill-opacity="1" /><path clip-path="url(#clip160)" d="M1804.57 201.036 Q1799.41 201.036 1797.42 202.217 Q1795.43 203.397 1795.43 206.245 Q1795.43 208.513 1796.91 209.856 Q1798.42 211.175 1800.99 211.175 Q1804.53 211.175 1806.66 208.675 Q1808.81 206.152 1808.81 201.985 L1808.81 201.036 L1804.57 201.036 M1813.07 199.277 L1813.07 214.069 L1808.81 214.069 L1808.81 210.133 Q1807.35 212.495 1805.18 213.629 Q1803 214.74 1799.85 214.74 Q1795.87 214.74 1793.51 212.518 Q1791.17 210.272 1791.17 206.522 Q1791.17 202.147 1794.09 199.925 Q1797.03 197.703 1802.84 197.703 L1808.81 197.703 L1808.81 197.286 Q1808.81 194.347 1806.87 192.749 Q1804.94 191.129 1801.45 191.129 Q1799.23 191.129 1797.12 191.661 Q1795.01 192.194 1793.07 193.259 L1793.07 189.323 Q1795.41 188.421 1797.61 187.981 Q1799.81 187.518 1801.89 187.518 Q1807.51 187.518 1810.29 190.434 Q1813.07 193.351 1813.07 199.277 Z" fill="#000000" fill-rule="evenodd" fill-opacity="1" /><path clip-path="url(#clip160)" d="M1838.37 188.907 L1838.37 192.934 Q1836.56 192.009 1834.62 191.546 Q1832.68 191.083 1830.59 191.083 Q1827.42 191.083 1825.82 192.055 Q1824.25 193.027 1824.25 194.971 Q1824.25 196.453 1825.38 197.309 Q1826.52 198.143 1829.94 198.907 L1831.4 199.231 Q1835.94 200.203 1837.84 201.985 Q1839.76 203.745 1839.76 206.916 Q1839.76 210.527 1836.89 212.633 Q1834.04 214.74 1829.04 214.74 Q1826.96 214.74 1824.69 214.323 Q1822.44 213.93 1819.94 213.12 L1819.94 208.721 Q1822.31 209.948 1824.6 210.573 Q1826.89 211.175 1829.13 211.175 Q1832.14 211.175 1833.76 210.157 Q1835.38 209.115 1835.38 207.24 Q1835.38 205.504 1834.2 204.578 Q1833.05 203.652 1829.09 202.796 L1827.61 202.448 Q1823.65 201.615 1821.89 199.902 Q1820.13 198.166 1820.13 195.157 Q1820.13 191.499 1822.72 189.509 Q1825.31 187.518 1830.08 187.518 Q1832.44 187.518 1834.53 187.865 Q1836.61 188.212 1838.37 188.907 Z" fill="#000000" fill-rule="evenodd" fill-opacity="1" /><path clip-path="url(#clip160)" d="M1863.07 188.907 L1863.07 192.934 Q1861.26 192.009 1859.32 191.546 Q1857.37 191.083 1855.29 191.083 Q1852.12 191.083 1850.52 192.055 Q1848.95 193.027 1848.95 194.971 Q1848.95 196.453 1850.08 197.309 Q1851.22 198.143 1854.64 198.907 L1856.1 199.231 Q1860.64 200.203 1862.54 201.985 Q1864.46 203.745 1864.46 206.916 Q1864.46 210.527 1861.59 212.633 Q1858.74 214.74 1853.74 214.74 Q1851.66 214.74 1849.39 214.323 Q1847.14 213.93 1844.64 213.12 L1844.64 208.721 Q1847 209.948 1849.3 210.573 Q1851.59 211.175 1853.83 211.175 Q1856.84 211.175 1858.46 210.157 Q1860.08 209.115 1860.08 207.24 Q1860.08 205.504 1858.9 204.578 Q1857.75 203.652 1853.79 202.796 L1852.31 202.448 Q1848.35 201.615 1846.59 199.902 Q1844.83 198.166 1844.83 195.157 Q1844.83 191.499 1847.42 189.509 Q1850.01 187.518 1854.78 187.518 Q1857.14 187.518 1859.23 187.865 Q1861.31 188.212 1863.07 188.907 Z" fill="#000000" fill-rule="evenodd" fill-opacity="1" /><path clip-path="url(#clip160)" d="M1871.84 208.189 L1876.73 208.189 L1876.73 214.069 L1871.84 214.069 L1871.84 208.189 Z" fill="#000000" fill-rule="evenodd" fill-opacity="1" /><path clip-path="url(#clip160)" d="M1883.25 188.143 L1887.77 188.143 L1895.87 209.902 L1903.97 188.143 L1908.49 188.143 L1898.76 214.069 L1892.98 214.069 L1883.25 188.143 Z" fill="#000000" fill-rule="evenodd" fill-opacity="1" /><path clip-path="url(#clip160)" d="M1939.67 178.097 Q1936.56 183.421 1935.06 188.629 Q1933.55 193.837 1933.55 199.184 Q1933.55 204.532 1935.06 209.786 Q1936.59 215.018 1939.67 220.319 L1935.96 220.319 Q1932.49 214.879 1930.75 209.624 Q1929.04 204.37 1929.04 199.184 Q1929.04 194.022 1930.75 188.791 Q1932.47 183.56 1935.96 178.097 L1939.67 178.097 Z" fill="#000000" fill-rule="evenodd" fill-opacity="1" /><path clip-path="url(#clip160)" d="M1962.7 195.434 Q1966.05 196.152 1967.93 198.421 Q1969.83 200.689 1969.83 204.022 Q1969.83 209.138 1966.31 211.939 Q1962.79 214.74 1956.31 214.74 Q1954.13 214.74 1951.82 214.3 Q1949.53 213.883 1947.07 213.027 L1947.07 208.513 Q1949.02 209.647 1951.33 210.226 Q1953.65 210.805 1956.17 210.805 Q1960.57 210.805 1962.86 209.069 Q1965.18 207.333 1965.18 204.022 Q1965.18 200.967 1963.02 199.254 Q1960.89 197.518 1957.07 197.518 L1953.05 197.518 L1953.05 193.675 L1957.26 193.675 Q1960.71 193.675 1962.54 192.309 Q1964.36 190.921 1964.36 188.328 Q1964.36 185.666 1962.47 184.254 Q1960.59 182.819 1957.07 182.819 Q1955.15 182.819 1952.95 183.235 Q1950.75 183.652 1948.11 184.532 L1948.11 180.365 Q1950.78 179.624 1953.09 179.254 Q1955.43 178.884 1957.49 178.884 Q1962.81 178.884 1965.92 181.314 Q1969.02 183.722 1969.02 187.842 Q1969.02 190.712 1967.37 192.703 Q1965.73 194.671 1962.7 195.434 Z" fill="#000000" fill-rule="evenodd" fill-opacity="1" /><path clip-path="url(#clip160)" d="M1992.86 195.434 Q1996.22 196.152 1998.09 198.421 Q1999.99 200.689 1999.99 204.022 Q1999.99 209.138 1996.47 211.939 Q1992.95 214.74 1986.47 214.74 Q1984.3 214.74 1981.98 214.3 Q1979.69 213.883 1977.24 213.027 L1977.24 208.513 Q1979.18 209.647 1981.49 210.226 Q1983.81 210.805 1986.33 210.805 Q1990.73 210.805 1993.02 209.069 Q1995.34 207.333 1995.34 204.022 Q1995.34 200.967 1993.18 199.254 Q1991.05 197.518 1987.24 197.518 L1983.21 197.518 L1983.21 193.675 L1987.42 193.675 Q1990.87 193.675 1992.7 192.309 Q1994.53 190.921 1994.53 188.328 Q1994.53 185.666 1992.63 184.254 Q1990.75 182.819 1987.24 182.819 Q1985.31 182.819 1983.11 183.235 Q1980.92 183.652 1978.28 184.532 L1978.28 180.365 Q1980.94 179.624 1983.25 179.254 Q1985.59 178.884 1987.65 178.884 Q1992.98 178.884 1996.08 181.314 Q1999.18 183.722 1999.18 187.842 Q1999.18 190.712 1997.54 192.703 Q1995.89 194.671 1992.86 195.434 Z" fill="#000000" fill-rule="evenodd" fill-opacity="1" /><path clip-path="url(#clip160)" d="M2008.9 179.509 L2027.26 179.509 L2027.26 183.444 L2013.18 183.444 L2013.18 191.916 Q2014.2 191.569 2015.22 191.407 Q2016.24 191.222 2017.26 191.222 Q2023.05 191.222 2026.42 194.393 Q2029.8 197.564 2029.8 202.981 Q2029.8 208.559 2026.33 211.661 Q2022.86 214.74 2016.54 214.74 Q2014.36 214.74 2012.1 214.37 Q2009.85 213.999 2007.44 213.258 L2007.44 208.559 Q2009.53 209.694 2011.75 210.249 Q2013.97 210.805 2016.45 210.805 Q2020.45 210.805 2022.79 208.698 Q2025.13 206.592 2025.13 202.981 Q2025.13 199.37 2022.79 197.263 Q2020.45 195.157 2016.45 195.157 Q2014.57 195.157 2012.7 195.573 Q2010.85 195.99 2008.9 196.87 L2008.9 179.509 Z" fill="#000000" fill-rule="evenodd" fill-opacity="1" /><path clip-path="url(#clip160)" d="M2039.06 179.509 L2057.42 179.509 L2057.42 183.444 L2043.35 183.444 L2043.35 191.916 Q2044.36 191.569 2045.38 191.407 Q2046.4 191.222 2047.42 191.222 Q2053.21 191.222 2056.59 194.393 Q2059.97 197.564 2059.97 202.981 Q2059.97 208.559 2056.49 211.661 Q2053.02 214.74 2046.7 214.74 Q2044.53 214.74 2042.26 214.37 Q2040.01 213.999 2037.61 213.258 L2037.61 208.559 Q2039.69 209.694 2041.91 210.249 Q2044.13 210.805 2046.61 210.805 Q2050.61 210.805 2052.95 208.698 Q2055.29 206.592 2055.29 202.981 Q2055.29 199.37 2052.95 197.263 Q2050.61 195.157 2046.61 195.157 Q2044.73 195.157 2042.86 195.573 Q2041.01 195.99 2039.06 196.87 L2039.06 179.509 Z" fill="#000000" fill-rule="evenodd" fill-opacity="1" /><path clip-path="url(#clip160)" d="M2082.03 183.583 L2070.22 202.032 L2082.03 202.032 L2082.03 183.583 M2080.8 179.509 L2086.68 179.509 L2086.68 202.032 L2091.61 202.032 L2091.61 205.921 L2086.68 205.921 L2086.68 214.069 L2082.03 214.069 L2082.03 205.921 L2066.42 205.921 L2066.42 201.407 L2080.8 179.509 Z" fill="#000000" fill-rule="evenodd" fill-opacity="1" /><path clip-path="url(#clip160)" d="M2112.19 183.583 L2100.38 202.032 L2112.19 202.032 L2112.19 183.583 M2110.96 179.509 L2116.84 179.509 L2116.84 202.032 L2121.77 202.032 L2121.77 205.921 L2116.84 205.921 L2116.84 214.069 L2112.19 214.069 L2112.19 205.921 L2096.59 205.921 L2096.59 201.407 L2110.96 179.509 Z" fill="#000000" fill-rule="evenodd" fill-opacity="1" /><path clip-path="url(#clip160)" d="M2143.67 195.434 Q2147.03 196.152 2148.9 198.421 Q2150.8 200.689 2150.8 204.022 Q2150.8 209.138 2147.28 211.939 Q2143.76 214.74 2137.28 214.74 Q2135.1 214.74 2132.79 214.3 Q2130.5 213.883 2128.04 213.027 L2128.04 208.513 Q2129.99 209.647 2132.3 210.226 Q2134.62 210.805 2137.14 210.805 Q2141.54 210.805 2143.83 209.069 Q2146.15 207.333 2146.15 204.022 Q2146.15 200.967 2143.99 199.254 Q2141.86 197.518 2138.04 197.518 L2134.02 197.518 L2134.02 193.675 L2138.23 193.675 Q2141.68 193.675 2143.51 192.309 Q2145.34 190.921 2145.34 188.328 Q2145.34 185.666 2143.44 184.254 Q2141.56 182.819 2138.04 182.819 Q2136.12 182.819 2133.92 183.235 Q2131.73 183.652 2129.09 184.532 L2129.09 180.365 Q2131.75 179.624 2134.06 179.254 Q2136.4 178.884 2138.46 178.884 Q2143.79 178.884 2146.89 181.314 Q2149.99 183.722 2149.99 187.842 Q2149.99 190.712 2148.35 192.703 Q2146.7 194.671 2143.67 195.434 Z" fill="#000000" fill-rule="evenodd" fill-opacity="1" /><path clip-path="url(#clip160)" d="M2173.83 195.434 Q2177.19 196.152 2179.06 198.421 Q2180.96 200.689 2180.96 204.022 Q2180.96 209.138 2177.44 211.939 Q2173.92 214.74 2167.44 214.74 Q2165.27 214.74 2162.95 214.3 Q2160.66 213.883 2158.21 213.027 L2158.21 208.513 Q2160.15 209.647 2162.47 210.226 Q2164.78 210.805 2167.3 210.805 Q2171.7 210.805 2173.99 209.069 Q2176.31 207.333 2176.31 204.022 Q2176.31 200.967 2174.16 199.254 Q2172.03 197.518 2168.21 197.518 L2164.18 197.518 L2164.18 193.675 L2168.39 193.675 Q2171.84 193.675 2173.67 192.309 Q2175.5 190.921 2175.5 188.328 Q2175.5 185.666 2173.6 184.254 Q2171.72 182.819 2168.21 182.819 Q2166.29 182.819 2164.09 183.235 Q2161.89 183.652 2159.25 184.532 L2159.25 180.365 Q2161.91 179.624 2164.22 179.254 Q2166.56 178.884 2168.62 178.884 Q2173.95 178.884 2177.05 181.314 Q2180.15 183.722 2180.15 187.842 Q2180.15 190.712 2178.51 192.703 Q2176.86 194.671 2173.83 195.434 Z" fill="#000000" fill-rule="evenodd" fill-opacity="1" /><path clip-path="url(#clip160)" d="M2188.55 178.097 L2192.26 178.097 Q2195.73 183.56 2197.44 188.791 Q2199.18 194.022 2199.18 199.184 Q2199.18 204.37 2197.44 209.624 Q2195.73 214.879 2192.26 220.319 L2188.55 220.319 Q2191.63 215.018 2193.14 209.786 Q2194.66 204.532 2194.66 199.184 Q2194.66 193.837 2193.14 188.629 Q2191.63 183.421 2188.55 178.097 Z" fill="#000000" fill-rule="evenodd" fill-opacity="1" /><polyline clip-path="url(#clip160)" style="stroke:#3da44d; stroke-linecap:butt; stroke-linejoin:round; stroke-width:4; stroke-opacity:1; fill:none" points="
  1575.06,248.629 1721.97,248.629 
  "/>
<path clip-path="url(#clip160)" d="M1766.8 244.96 Q1768.39 242.089 1770.62 240.724 Q1772.84 239.358 1775.85 239.358 Q1779.9 239.358 1782.1 242.205 Q1784.3 245.029 1784.3 250.261 L1784.3 265.909 L1780.01 265.909 L1780.01 250.399 Q1780.01 246.673 1778.69 244.867 Q1777.38 243.062 1774.67 243.062 Q1771.36 243.062 1769.44 245.261 Q1767.51 247.46 1767.51 251.256 L1767.51 265.909 L1763.23 265.909 L1763.23 250.399 Q1763.23 246.649 1761.91 244.867 Q1760.59 243.062 1757.84 243.062 Q1754.57 243.062 1752.65 245.284 Q1750.73 247.483 1750.73 251.256 L1750.73 265.909 L1746.45 265.909 L1746.45 239.983 L1750.73 239.983 L1750.73 244.011 Q1752.19 241.626 1754.23 240.492 Q1756.26 239.358 1759.07 239.358 Q1761.89 239.358 1763.86 240.793 Q1765.85 242.228 1766.8 244.96 Z" fill="#000000" fill-rule="evenodd" fill-opacity="1" /><path clip-path="url(#clip160)" d="M1804.57 252.876 Q1799.41 252.876 1797.42 254.057 Q1795.43 255.237 1795.43 258.085 Q1795.43 260.353 1796.91 261.696 Q1798.42 263.015 1800.99 263.015 Q1804.53 263.015 1806.66 260.515 Q1808.81 257.992 1808.81 253.825 L1808.81 252.876 L1804.57 252.876 M1813.07 251.117 L1813.07 265.909 L1808.81 265.909 L1808.81 261.973 Q1807.35 264.335 1805.18 265.469 Q1803 266.58 1799.85 266.58 Q1795.87 266.58 1793.51 264.358 Q1791.17 262.112 1791.17 258.362 Q1791.17 253.987 1794.09 251.765 Q1797.03 249.543 1802.84 249.543 L1808.81 249.543 L1808.81 249.126 Q1808.81 246.187 1806.87 244.589 Q1804.94 242.969 1801.45 242.969 Q1799.23 242.969 1797.12 243.501 Q1795.01 244.034 1793.07 245.099 L1793.07 241.163 Q1795.41 240.261 1797.61 239.821 Q1799.81 239.358 1801.89 239.358 Q1807.51 239.358 1810.29 242.274 Q1813.07 245.191 1813.07 251.117 Z" fill="#000000" fill-rule="evenodd" fill-opacity="1" /><path clip-path="url(#clip160)" d="M1838.37 240.747 L1838.37 244.774 Q1836.56 243.849 1834.62 243.386 Q1832.68 242.923 1830.59 242.923 Q1827.42 242.923 1825.82 243.895 Q1824.25 244.867 1824.25 246.811 Q1824.25 248.293 1825.38 249.149 Q1826.52 249.983 1829.94 250.747 L1831.4 251.071 Q1835.94 252.043 1837.84 253.825 Q1839.76 255.585 1839.76 258.756 Q1839.76 262.367 1836.89 264.473 Q1834.04 266.58 1829.04 266.58 Q1826.96 266.58 1824.69 266.163 Q1822.44 265.77 1819.94 264.96 L1819.94 260.561 Q1822.31 261.788 1824.6 262.413 Q1826.89 263.015 1829.13 263.015 Q1832.14 263.015 1833.76 261.997 Q1835.38 260.955 1835.38 259.08 Q1835.38 257.344 1834.2 256.418 Q1833.05 255.492 1829.09 254.636 L1827.61 254.288 Q1823.65 253.455 1821.89 251.742 Q1820.13 250.006 1820.13 246.997 Q1820.13 243.339 1822.72 241.349 Q1825.31 239.358 1830.08 239.358 Q1832.44 239.358 1834.53 239.705 Q1836.61 240.052 1838.37 240.747 Z" fill="#000000" fill-rule="evenodd" fill-opacity="1" /><path clip-path="url(#clip160)" d="M1863.07 240.747 L1863.07 244.774 Q1861.26 243.849 1859.32 243.386 Q1857.37 242.923 1855.29 242.923 Q1852.12 242.923 1850.52 243.895 Q1848.95 244.867 1848.95 246.811 Q1848.95 248.293 1850.08 249.149 Q1851.22 249.983 1854.64 250.747 L1856.1 251.071 Q1860.64 252.043 1862.54 253.825 Q1864.46 255.585 1864.46 258.756 Q1864.46 262.367 1861.59 264.473 Q1858.74 266.58 1853.74 266.58 Q1851.66 266.58 1849.39 266.163 Q1847.14 265.77 1844.64 264.96 L1844.64 260.561 Q1847 261.788 1849.3 262.413 Q1851.59 263.015 1853.83 263.015 Q1856.84 263.015 1858.46 261.997 Q1860.08 260.955 1860.08 259.08 Q1860.08 257.344 1858.9 256.418 Q1857.75 255.492 1853.79 254.636 L1852.31 254.288 Q1848.35 253.455 1846.59 251.742 Q1844.83 250.006 1844.83 246.997 Q1844.83 243.339 1847.42 241.349 Q1850.01 239.358 1854.78 239.358 Q1857.14 239.358 1859.23 239.705 Q1861.31 240.052 1863.07 240.747 Z" fill="#000000" fill-rule="evenodd" fill-opacity="1" /><path clip-path="url(#clip160)" d="M1871.84 260.029 L1876.73 260.029 L1876.73 265.909 L1871.84 265.909 L1871.84 260.029 Z" fill="#000000" fill-rule="evenodd" fill-opacity="1" /><path clip-path="url(#clip160)" d="M1898.09 252.876 Q1892.93 252.876 1890.94 254.057 Q1888.95 255.237 1888.95 258.085 Q1888.95 260.353 1890.43 261.696 Q1891.93 263.015 1894.5 263.015 Q1898.05 263.015 1900.18 260.515 Q1902.33 257.992 1902.33 253.825 L1902.33 252.876 L1898.09 252.876 M1906.59 251.117 L1906.59 265.909 L1902.33 265.909 L1902.33 261.973 Q1900.87 264.335 1898.69 265.469 Q1896.52 266.58 1893.37 266.58 Q1889.39 266.58 1887.03 264.358 Q1884.69 262.112 1884.69 258.362 Q1884.69 253.987 1887.61 251.765 Q1890.55 249.543 1896.36 249.543 L1902.33 249.543 L1902.33 249.126 Q1902.33 246.187 1900.38 244.589 Q1898.46 242.969 1894.97 242.969 Q1892.74 242.969 1890.64 243.501 Q1888.53 244.034 1886.59 245.099 L1886.59 241.163 Q1888.93 240.261 1891.12 239.821 Q1893.32 239.358 1895.41 239.358 Q1901.03 239.358 1903.81 242.274 Q1906.59 245.191 1906.59 251.117 Z" fill="#000000" fill-rule="evenodd" fill-opacity="1" /><path clip-path="url(#clip160)" d="M1940.66 229.937 Q1937.56 235.261 1936.05 240.469 Q1934.55 245.677 1934.55 251.024 Q1934.55 256.372 1936.05 261.626 Q1937.58 266.858 1940.66 272.159 L1936.96 272.159 Q1933.49 266.719 1931.75 261.464 Q1930.04 256.21 1930.04 251.024 Q1930.04 245.862 1931.75 240.631 Q1933.46 235.4 1936.96 229.937 L1940.66 229.937 Z" fill="#000000" fill-rule="evenodd" fill-opacity="1" /><path clip-path="url(#clip160)" d="M1949.57 231.349 L1967.93 231.349 L1967.93 235.284 L1953.86 235.284 L1953.86 243.756 Q1954.87 243.409 1955.89 243.247 Q1956.91 243.062 1957.93 243.062 Q1963.72 243.062 1967.1 246.233 Q1970.48 249.404 1970.48 254.821 Q1970.48 260.399 1967 263.501 Q1963.53 266.58 1957.21 266.58 Q1955.04 266.58 1952.77 266.21 Q1950.52 265.839 1948.11 265.098 L1948.11 260.399 Q1950.2 261.534 1952.42 262.089 Q1954.64 262.645 1957.12 262.645 Q1961.12 262.645 1963.46 260.538 Q1965.8 258.432 1965.8 254.821 Q1965.8 251.21 1963.46 249.103 Q1961.12 246.997 1957.12 246.997 Q1955.24 246.997 1953.37 247.413 Q1951.52 247.83 1949.57 248.71 L1949.57 231.349 Z" fill="#000000" fill-rule="evenodd" fill-opacity="1" /><path clip-path="url(#clip160)" d="M1989.69 249.497 Q1986.36 249.497 1984.43 251.279 Q1982.54 253.061 1982.54 256.186 Q1982.54 259.311 1984.43 261.094 Q1986.36 262.876 1989.69 262.876 Q1993.02 262.876 1994.94 261.094 Q1996.86 259.288 1996.86 256.186 Q1996.86 253.061 1994.94 251.279 Q1993.05 249.497 1989.69 249.497 M1985.01 247.506 Q1982 246.765 1980.31 244.705 Q1978.65 242.645 1978.65 239.682 Q1978.65 235.538 1981.59 233.131 Q1984.55 230.724 1989.69 230.724 Q1994.85 230.724 1997.79 233.131 Q2000.73 235.538 2000.73 239.682 Q2000.73 242.645 1999.04 244.705 Q1997.37 246.765 1994.39 247.506 Q1997.77 248.293 1999.64 250.585 Q2001.54 252.876 2001.54 256.186 Q2001.54 261.21 1998.46 263.895 Q1995.41 266.58 1989.69 266.58 Q1983.97 266.58 1980.89 263.895 Q1977.84 261.21 1977.84 256.186 Q1977.84 252.876 1979.74 250.585 Q1981.63 248.293 1985.01 247.506 M1983.3 240.122 Q1983.3 242.807 1984.97 244.312 Q1986.66 245.816 1989.69 245.816 Q1992.7 245.816 1994.39 244.312 Q1996.1 242.807 1996.1 240.122 Q1996.1 237.437 1994.39 235.932 Q1992.7 234.427 1989.69 234.427 Q1986.66 234.427 1984.97 235.932 Q1983.3 237.437 1983.3 240.122 Z" fill="#000000" fill-rule="evenodd" fill-opacity="1" /><path clip-path="url(#clip160)" d="M2008.67 231.349 L2030.89 231.349 L2030.89 233.339 L2018.35 265.909 L2013.46 265.909 L2025.27 235.284 L2008.67 235.284 L2008.67 231.349 Z" fill="#000000" fill-rule="evenodd" fill-opacity="1" /><path clip-path="url(#clip160)" d="M2044.04 261.973 L2060.36 261.973 L2060.36 265.909 L2038.42 265.909 L2038.42 261.973 Q2041.08 259.219 2045.66 254.589 Q2050.27 249.936 2051.45 248.594 Q2053.69 246.071 2054.57 244.335 Q2055.48 242.575 2055.48 240.886 Q2055.48 238.131 2053.53 236.395 Q2051.61 234.659 2048.51 234.659 Q2046.31 234.659 2043.86 235.423 Q2041.42 236.187 2038.65 237.737 L2038.65 233.015 Q2041.47 231.881 2043.92 231.302 Q2046.38 230.724 2048.42 230.724 Q2053.79 230.724 2056.98 233.409 Q2060.17 236.094 2060.17 240.585 Q2060.17 242.714 2059.36 244.636 Q2058.58 246.534 2056.47 249.126 Q2055.89 249.798 2052.79 253.015 Q2049.69 256.21 2044.04 261.973 Z" fill="#000000" fill-rule="evenodd" fill-opacity="1" /><path clip-path="url(#clip160)" d="M2080.17 234.427 Q2076.56 234.427 2074.73 237.992 Q2072.93 241.534 2072.93 248.663 Q2072.93 255.77 2074.73 259.335 Q2076.56 262.876 2080.17 262.876 Q2083.81 262.876 2085.61 259.335 Q2087.44 255.77 2087.44 248.663 Q2087.44 241.534 2085.61 237.992 Q2083.81 234.427 2080.17 234.427 M2080.17 230.724 Q2085.98 230.724 2089.04 235.33 Q2092.12 239.913 2092.12 248.663 Q2092.12 257.39 2089.04 261.997 Q2085.98 266.58 2080.17 266.58 Q2074.36 266.58 2071.29 261.997 Q2068.23 257.39 2068.23 248.663 Q2068.23 239.913 2071.29 235.33 Q2074.36 230.724 2080.17 230.724 Z" fill="#000000" fill-rule="evenodd" fill-opacity="1" /><path clip-path="url(#clip160)" d="M2104.36 261.973 L2120.68 261.973 L2120.68 265.909 L2098.74 265.909 L2098.74 261.973 Q2101.4 259.219 2105.98 254.589 Q2110.59 249.936 2111.77 248.594 Q2114.02 246.071 2114.9 244.335 Q2115.8 242.575 2115.8 240.886 Q2115.8 238.131 2113.85 236.395 Q2111.93 234.659 2108.83 234.659 Q2106.63 234.659 2104.18 235.423 Q2101.75 236.187 2098.97 237.737 L2098.97 233.015 Q2101.79 231.881 2104.25 231.302 Q2106.7 230.724 2108.74 230.724 Q2114.11 230.724 2117.3 233.409 Q2120.5 236.094 2120.5 240.585 Q2120.5 242.714 2119.69 244.636 Q2118.9 246.534 2116.79 249.126 Q2116.22 249.798 2113.11 253.015 Q2110.01 256.21 2104.36 261.973 Z" fill="#000000" fill-rule="evenodd" fill-opacity="1" /><path clip-path="url(#clip160)" d="M2130.54 231.349 L2148.9 231.349 L2148.9 235.284 L2134.83 235.284 L2134.83 243.756 Q2135.85 243.409 2136.86 243.247 Q2137.88 243.062 2138.9 243.062 Q2144.69 243.062 2148.07 246.233 Q2151.45 249.404 2151.45 254.821 Q2151.45 260.399 2147.97 263.501 Q2144.5 266.58 2138.18 266.58 Q2136.01 266.58 2133.74 266.21 Q2131.49 265.839 2129.09 265.098 L2129.09 260.399 Q2131.17 261.534 2133.39 262.089 Q2135.61 262.645 2138.09 262.645 Q2142.1 262.645 2144.43 260.538 Q2146.77 258.432 2146.77 254.821 Q2146.77 251.21 2144.43 249.103 Q2142.1 246.997 2138.09 246.997 Q2136.22 246.997 2134.34 247.413 Q2132.49 247.83 2130.54 248.71 L2130.54 231.349 Z" fill="#000000" fill-rule="evenodd" fill-opacity="1" /><path clip-path="url(#clip160)" d="M2171.24 246.765 Q2168.09 246.765 2166.24 248.918 Q2164.41 251.071 2164.41 254.821 Q2164.41 258.548 2166.24 260.723 Q2168.09 262.876 2171.24 262.876 Q2174.39 262.876 2176.22 260.723 Q2178.07 258.548 2178.07 254.821 Q2178.07 251.071 2176.22 248.918 Q2174.39 246.765 2171.24 246.765 M2180.52 232.113 L2180.52 236.372 Q2178.76 235.538 2176.96 235.099 Q2175.17 234.659 2173.41 234.659 Q2168.79 234.659 2166.33 237.784 Q2163.9 240.909 2163.55 247.228 Q2164.92 245.214 2166.98 244.149 Q2169.04 243.062 2171.52 243.062 Q2176.72 243.062 2179.73 246.233 Q2182.77 249.381 2182.77 254.821 Q2182.77 260.145 2179.62 263.362 Q2176.47 266.58 2171.24 266.58 Q2165.24 266.58 2162.07 261.997 Q2158.9 257.39 2158.9 248.663 Q2158.9 240.469 2162.79 235.608 Q2166.68 230.724 2173.23 230.724 Q2174.99 230.724 2176.77 231.071 Q2178.58 231.418 2180.52 232.113 Z" fill="#000000" fill-rule="evenodd" fill-opacity="1" /><path clip-path="url(#clip160)" d="M2191.63 261.973 L2199.27 261.973 L2199.27 235.608 L2190.96 237.275 L2190.96 233.015 L2199.22 231.349 L2203.9 231.349 L2203.9 261.973 L2211.54 261.973 L2211.54 265.909 L2191.63 265.909 L2191.63 261.973 Z" fill="#000000" fill-rule="evenodd" fill-opacity="1" /><path clip-path="url(#clip160)" d="M2219.71 229.937 L2223.41 229.937 Q2226.89 235.4 2228.6 240.631 Q2230.34 245.862 2230.34 251.024 Q2230.34 256.21 2228.6 261.464 Q2226.89 266.719 2223.41 272.159 L2219.71 272.159 Q2222.79 266.858 2224.29 261.626 Q2225.82 256.372 2225.82 251.024 Q2225.82 245.677 2224.29 240.469 Q2222.79 235.261 2219.71 229.937 Z" fill="#000000" fill-rule="evenodd" fill-opacity="1" /></svg>
