<?xml version="1.0" encoding="utf-8"?>
<svg xmlns="http://www.w3.org/2000/svg" xmlns:xlink="http://www.w3.org/1999/xlink" width="600" height="400" viewBox="0 0 2400 1600">
<defs>
  <clipPath id="clip700">
    <rect x="0" y="0" width="2400" height="1600"/>
  </clipPath>
</defs>
<path clip-path="url(#clip700)" d="
M0 1600 L2400 1600 L2400 0 L0 0  Z
  " fill="#ffffff" fill-rule="evenodd" fill-opacity="1"/>
<defs>
  <clipPath id="clip701">
    <rect x="480" y="0" width="1681" height="1600"/>
  </clipPath>
</defs>
<path clip-path="url(#clip700)" d="
M315.725 1401.58 L2352.76 1401.58 L2352.76 123.472 L315.725 123.472  Z
  " fill="#ffffff" fill-rule="evenodd" fill-opacity="1"/>
<defs>
  <clipPath id="clip702">
    <rect x="315" y="123" width="2038" height="1279"/>
  </clipPath>
</defs>
<polyline clip-path="url(#clip702)" style="stroke:#000000; stroke-linecap:butt; stroke-linejoin:round; stroke-width:2; stroke-opacity:0.1; fill:none" points="
  519.428,1401.58 519.428,123.472 
  "/>
<polyline clip-path="url(#clip702)" style="stroke:#000000; stroke-linecap:butt; stroke-linejoin:round; stroke-width:2; stroke-opacity:0.1; fill:none" points="
  926.834,1401.58 926.834,123.472 
  "/>
<polyline clip-path="url(#clip702)" style="stroke:#000000; stroke-linecap:butt; stroke-linejoin:round; stroke-width:2; stroke-opacity:0.1; fill:none" points="
  1334.24,1401.58 1334.24,123.472 
  "/>
<polyline clip-path="url(#clip702)" style="stroke:#000000; stroke-linecap:butt; stroke-linejoin:round; stroke-width:2; stroke-opacity:0.1; fill:none" points="
  1741.65,1401.58 1741.65,123.472 
  "/>
<polyline clip-path="url(#clip702)" style="stroke:#000000; stroke-linecap:butt; stroke-linejoin:round; stroke-width:2; stroke-opacity:0.1; fill:none" points="
  2149.05,1401.58 2149.05,123.472 
  "/>
<polyline clip-path="url(#clip700)" style="stroke:#000000; stroke-linecap:butt; stroke-linejoin:round; stroke-width:4; stroke-opacity:1; fill:none" points="
  315.725,1401.58 2352.76,1401.58 
  "/>
<polyline clip-path="url(#clip700)" style="stroke:#000000; stroke-linecap:butt; stroke-linejoin:round; stroke-width:4; stroke-opacity:1; fill:none" points="
  519.428,1401.58 519.428,1382.68 
  "/>
<polyline clip-path="url(#clip700)" style="stroke:#000000; stroke-linecap:butt; stroke-linejoin:round; stroke-width:4; stroke-opacity:1; fill:none" points="
  926.834,1401.58 926.834,1382.68 
  "/>
<polyline clip-path="url(#clip700)" style="stroke:#000000; stroke-linecap:butt; stroke-linejoin:round; stroke-width:4; stroke-opacity:1; fill:none" points="
  1334.24,1401.58 1334.24,1382.68 
  "/>
<polyline clip-path="url(#clip700)" style="stroke:#000000; stroke-linecap:butt; stroke-linejoin:round; stroke-width:4; stroke-opacity:1; fill:none" points="
  1741.65,1401.58 1741.65,1382.68 
  "/>
<polyline clip-path="url(#clip700)" style="stroke:#000000; stroke-linecap:butt; stroke-linejoin:round; stroke-width:4; stroke-opacity:1; fill:none" points="
  2149.05,1401.58 2149.05,1382.68 
  "/>
<path clip-path="url(#clip700)" d="M439.22 1460.34 L483.734 1460.34 L483.734 1466.24 L439.22 1466.24 L439.22 1460.34 Z" fill="#000000" fill-rule="evenodd" fill-opacity="1" /><path clip-path="url(#clip700)" d="M500.088 1479.68 L511.546 1479.68 L511.546 1440.13 L499.081 1442.63 L499.081 1436.24 L511.477 1433.74 L518.491 1433.74 L518.491 1479.68 L529.949 1479.68 L529.949 1485.58 L500.088 1485.58 L500.088 1479.68 Z" fill="#000000" fill-rule="evenodd" fill-opacity="1" /><path clip-path="url(#clip700)" d="M544.116 1476.76 L551.442 1476.76 L551.442 1485.58 L544.116 1485.58 L544.116 1476.76 Z" fill="#000000" fill-rule="evenodd" fill-opacity="1" /><path clip-path="url(#clip700)" d="M581.72 1438.36 Q576.303 1438.36 573.56 1443.71 Q570.852 1449.02 570.852 1459.71 Q570.852 1470.37 573.56 1475.72 Q576.303 1481.03 581.72 1481.03 Q587.171 1481.03 589.879 1475.72 Q592.622 1470.37 592.622 1459.71 Q592.622 1449.02 589.879 1443.71 Q587.171 1438.36 581.72 1438.36 M581.72 1432.8 Q590.435 1432.8 595.018 1439.71 Q599.636 1446.59 599.636 1459.71 Q599.636 1472.8 595.018 1479.71 Q590.435 1486.59 581.72 1486.59 Q573.004 1486.59 568.386 1479.71 Q563.803 1472.8 563.803 1459.71 Q563.803 1446.59 568.386 1439.71 Q573.004 1432.8 581.72 1432.8 Z" fill="#000000" fill-rule="evenodd" fill-opacity="1" /><path clip-path="url(#clip700)" d="M847.373 1460.34 L891.887 1460.34 L891.887 1466.24 L847.373 1466.24 L847.373 1460.34 Z" fill="#000000" fill-rule="evenodd" fill-opacity="1" /><path clip-path="url(#clip700)" d="M922.025 1438.36 Q916.609 1438.36 913.866 1443.71 Q911.157 1449.02 911.157 1459.71 Q911.157 1470.37 913.866 1475.72 Q916.609 1481.03 922.025 1481.03 Q927.477 1481.03 930.185 1475.72 Q932.928 1470.37 932.928 1459.71 Q932.928 1449.02 930.185 1443.71 Q927.477 1438.36 922.025 1438.36 M922.025 1432.8 Q930.741 1432.8 935.324 1439.71 Q939.942 1446.59 939.942 1459.71 Q939.942 1472.8 935.324 1479.71 Q930.741 1486.59 922.025 1486.59 Q913.31 1486.59 908.692 1479.71 Q904.109 1472.8 904.109 1459.71 Q904.109 1446.59 908.692 1439.71 Q913.31 1432.8 922.025 1432.8 Z" fill="#000000" fill-rule="evenodd" fill-opacity="1" /><path clip-path="url(#clip700)" d="M952.268 1476.76 L959.595 1476.76 L959.595 1485.58 L952.268 1485.58 L952.268 1476.76 Z" fill="#000000" fill-rule="evenodd" fill-opacity="1" /><path clip-path="url(#clip700)" d="M974.942 1433.74 L1002.48 1433.74 L1002.48 1439.64 L981.365 1439.64 L981.365 1452.35 Q982.893 1451.83 984.421 1451.59 Q985.949 1451.31 987.476 1451.31 Q996.157 1451.31 1001.23 1456.07 Q1006.3 1460.82 1006.3 1468.95 Q1006.3 1477.32 1001.09 1481.97 Q995.879 1486.59 986.4 1486.59 Q983.136 1486.59 979.733 1486.03 Q976.365 1485.48 972.754 1484.36 L972.754 1477.32 Q975.879 1479.02 979.213 1479.85 Q982.546 1480.68 986.261 1480.68 Q992.268 1480.68 995.775 1477.52 Q999.282 1474.36 999.282 1468.95 Q999.282 1463.53 995.775 1460.37 Q992.268 1457.21 986.261 1457.21 Q983.449 1457.21 980.636 1457.84 Q977.858 1458.46 974.942 1459.78 L974.942 1433.74 Z" fill="#000000" fill-rule="evenodd" fill-opacity="1" /><path clip-path="url(#clip700)" d="M1300.32 1438.36 Q1294.9 1438.36 1292.16 1443.71 Q1289.45 1449.02 1289.45 1459.71 Q1289.45 1470.37 1292.16 1475.72 Q1294.9 1481.03 1300.32 1481.03 Q1305.77 1481.03 1308.48 1475.72 Q1311.22 1470.37 1311.22 1459.71 Q1311.22 1449.02 1308.48 1443.71 Q1305.77 1438.36 1300.32 1438.36 M1300.32 1432.8 Q1309.03 1432.8 1313.62 1439.71 Q1318.23 1446.59 1318.23 1459.71 Q1318.23 1472.8 1313.62 1479.71 Q1309.03 1486.59 1300.32 1486.59 Q1291.6 1486.59 1286.98 1479.71 Q1282.4 1472.8 1282.4 1459.71 Q1282.4 1446.59 1286.98 1439.71 Q1291.6 1432.8 1300.32 1432.8 Z" fill="#000000" fill-rule="evenodd" fill-opacity="1" /><path clip-path="url(#clip700)" d="M1330.56 1476.76 L1337.89 1476.76 L1337.89 1485.58 L1330.56 1485.58 L1330.56 1476.76 Z" fill="#000000" fill-rule="evenodd" fill-opacity="1" /><path clip-path="url(#clip700)" d="M1368.16 1438.36 Q1362.75 1438.36 1360 1443.71 Q1357.3 1449.02 1357.3 1459.71 Q1357.3 1470.37 1360 1475.72 Q1362.75 1481.03 1368.16 1481.03 Q1373.62 1481.03 1376.32 1475.72 Q1379.07 1470.37 1379.07 1459.71 Q1379.07 1449.02 1376.32 1443.71 Q1373.62 1438.36 1368.16 1438.36 M1368.16 1432.8 Q1376.88 1432.8 1381.46 1439.71 Q1386.08 1446.59 1386.08 1459.71 Q1386.08 1472.8 1381.46 1479.71 Q1376.88 1486.59 1368.16 1486.59 Q1359.45 1486.59 1354.83 1479.71 Q1350.25 1472.8 1350.25 1459.71 Q1350.25 1446.59 1354.83 1439.71 Q1359.45 1432.8 1368.16 1432.8 Z" fill="#000000" fill-rule="evenodd" fill-opacity="1" /><path clip-path="url(#clip700)" d="M1708.47 1438.36 Q1703.05 1438.36 1700.31 1443.71 Q1697.6 1449.02 1697.6 1459.71 Q1697.6 1470.37 1700.31 1475.72 Q1703.05 1481.03 1708.47 1481.03 Q1713.92 1481.03 1716.63 1475.72 Q1719.37 1470.37 1719.37 1459.71 Q1719.37 1449.02 1716.63 1443.71 Q1713.92 1438.36 1708.47 1438.36 M1708.47 1432.8 Q1717.18 1432.8 1721.77 1439.71 Q1726.39 1446.59 1726.39 1459.71 Q1726.39 1472.8 1721.77 1479.71 Q1717.18 1486.59 1708.47 1486.59 Q1699.75 1486.59 1695.14 1479.71 Q1690.55 1472.8 1690.55 1459.71 Q1690.55 1446.59 1695.14 1439.71 Q1699.75 1432.8 1708.47 1432.8 Z" fill="#000000" fill-rule="evenodd" fill-opacity="1" /><path clip-path="url(#clip700)" d="M1738.71 1476.76 L1746.04 1476.76 L1746.04 1485.58 L1738.71 1485.58 L1738.71 1476.76 Z" fill="#000000" fill-rule="evenodd" fill-opacity="1" /><path clip-path="url(#clip700)" d="M1761.39 1433.74 L1788.92 1433.74 L1788.92 1439.64 L1767.81 1439.64 L1767.81 1452.35 Q1769.34 1451.83 1770.87 1451.59 Q1772.39 1451.31 1773.92 1451.31 Q1782.6 1451.31 1787.67 1456.07 Q1792.74 1460.82 1792.74 1468.95 Q1792.74 1477.32 1787.53 1481.97 Q1782.32 1486.59 1772.84 1486.59 Q1769.58 1486.59 1766.18 1486.03 Q1762.81 1485.48 1759.2 1484.36 L1759.2 1477.32 Q1762.32 1479.02 1765.66 1479.85 Q1768.99 1480.68 1772.71 1480.68 Q1778.71 1480.68 1782.22 1477.52 Q1785.73 1474.36 1785.73 1468.95 Q1785.73 1463.53 1782.22 1460.37 Q1778.71 1457.21 1772.71 1457.21 Q1769.89 1457.21 1767.08 1457.84 Q1764.3 1458.46 1761.39 1459.78 L1761.39 1433.74 Z" fill="#000000" fill-rule="evenodd" fill-opacity="1" /><path clip-path="url(#clip700)" d="M2099.78 1479.68 L2111.24 1479.68 L2111.24 1440.13 L2098.78 1442.63 L2098.78 1436.24 L2111.17 1433.74 L2118.18 1433.74 L2118.18 1479.68 L2129.64 1479.68 L2129.64 1485.58 L2099.78 1485.58 L2099.78 1479.68 Z" fill="#000000" fill-rule="evenodd" fill-opacity="1" /><path clip-path="url(#clip700)" d="M2143.81 1476.76 L2151.14 1476.76 L2151.14 1485.58 L2143.81 1485.58 L2143.81 1476.76 Z" fill="#000000" fill-rule="evenodd" fill-opacity="1" /><path clip-path="url(#clip700)" d="M2181.41 1438.36 Q2176 1438.36 2173.25 1443.71 Q2170.55 1449.02 2170.55 1459.71 Q2170.55 1470.37 2173.25 1475.72 Q2176 1481.03 2181.41 1481.03 Q2186.87 1481.03 2189.57 1475.72 Q2192.32 1470.37 2192.32 1459.71 Q2192.32 1449.02 2189.57 1443.71 Q2186.87 1438.36 2181.41 1438.36 M2181.41 1432.8 Q2190.13 1432.8 2194.71 1439.71 Q2199.33 1446.59 2199.33 1459.71 Q2199.33 1472.8 2194.71 1479.71 Q2190.13 1486.59 2181.41 1486.59 Q2172.7 1486.59 2168.08 1479.71 Q2163.5 1472.8 2163.5 1459.71 Q2163.5 1446.59 2168.08 1439.71 Q2172.7 1432.8 2181.41 1432.8 Z" fill="#000000" fill-rule="evenodd" fill-opacity="1" /><path clip-path="url(#clip700)" d="M1213.13 1538.66 L1219.9 1538.66 L1232.05 1571.3 L1244.21 1538.66 L1250.98 1538.66 L1236.39 1577.55 L1227.71 1577.55 L1213.13 1538.66 Z" fill="#000000" fill-rule="evenodd" fill-opacity="1" /><path clip-path="url(#clip700)" d="M1281.81 1523.52 L1296.53 1523.52 L1296.53 1528.49 L1288.2 1528.49 L1288.2 1581.96 L1296.53 1581.96 L1296.53 1586.92 L1281.81 1586.92 L1281.81 1523.52 Z" fill="#000000" fill-rule="evenodd" fill-opacity="1" /><path clip-path="url(#clip700)" d="M1340.42 1546.12 Q1342.82 1541.82 1346.15 1539.77 Q1349.48 1537.72 1354 1537.72 Q1360.07 1537.72 1363.37 1541.99 Q1366.67 1546.23 1366.67 1554.08 L1366.67 1577.55 L1360.25 1577.55 L1360.25 1554.28 Q1360.25 1548.69 1358.27 1545.99 Q1356.29 1543.28 1352.23 1543.28 Q1347.26 1543.28 1344.38 1546.58 Q1341.5 1549.87 1341.5 1555.57 L1341.5 1577.55 L1335.07 1577.55 L1335.07 1554.28 Q1335.07 1548.66 1333.09 1545.99 Q1331.12 1543.28 1326.98 1543.28 Q1322.09 1543.28 1319.21 1546.61 Q1316.32 1549.91 1316.32 1555.57 L1316.32 1577.55 L1309.9 1577.55 L1309.9 1538.66 L1316.32 1538.66 L1316.32 1544.7 Q1318.51 1541.12 1321.57 1539.42 Q1324.62 1537.72 1328.82 1537.72 Q1333.06 1537.72 1336.01 1539.87 Q1339 1542.03 1340.42 1546.12 Z" fill="#000000" fill-rule="evenodd" fill-opacity="1" /><path clip-path="url(#clip700)" d="M1390.77 1525.71 L1396.67 1525.71 L1378.62 1584.15 L1372.71 1584.15 L1390.77 1525.71 Z" fill="#000000" fill-rule="evenodd" fill-opacity="1" /><path clip-path="url(#clip700)" d="M1428.16 1539.8 L1428.16 1545.85 Q1425.46 1544.46 1422.54 1543.76 Q1419.62 1543.07 1416.5 1543.07 Q1411.74 1543.07 1409.34 1544.53 Q1406.98 1545.99 1406.98 1548.9 Q1406.98 1551.12 1408.68 1552.41 Q1410.39 1553.66 1415.52 1554.8 L1417.71 1555.29 Q1424.52 1556.75 1427.37 1559.42 Q1430.25 1562.06 1430.25 1566.82 Q1430.25 1572.24 1425.94 1575.4 Q1421.67 1578.55 1414.17 1578.55 Q1411.05 1578.55 1407.64 1577.93 Q1404.27 1577.34 1400.52 1576.12 L1400.52 1569.53 Q1404.07 1571.37 1407.5 1572.3 Q1410.94 1573.21 1414.31 1573.21 Q1418.82 1573.21 1421.25 1571.68 Q1423.68 1570.12 1423.68 1567.3 Q1423.68 1564.7 1421.91 1563.31 Q1420.18 1561.92 1414.24 1560.64 L1412.02 1560.12 Q1406.08 1558.87 1403.44 1556.3 Q1400.8 1553.69 1400.8 1549.18 Q1400.8 1543.69 1404.69 1540.71 Q1408.58 1537.72 1415.73 1537.72 Q1419.27 1537.72 1422.4 1538.24 Q1425.52 1538.76 1428.16 1539.8 Z" fill="#000000" fill-rule="evenodd" fill-opacity="1" /><path clip-path="url(#clip700)" d="M1455.35 1523.52 L1455.35 1586.92 L1440.63 1586.92 L1440.63 1581.96 L1448.93 1581.96 L1448.93 1528.49 L1440.63 1528.49 L1440.63 1523.52 L1455.35 1523.52 Z" fill="#000000" fill-rule="evenodd" fill-opacity="1" /><polyline clip-path="url(#clip702)" style="stroke:#000000; stroke-linecap:butt; stroke-linejoin:round; stroke-width:2; stroke-opacity:0.1; fill:none" points="
  315.725,1254.21 2352.76,1254.21 
  "/>
<polyline clip-path="url(#clip702)" style="stroke:#000000; stroke-linecap:butt; stroke-linejoin:round; stroke-width:2; stroke-opacity:0.1; fill:none" points="
  315.725,1092.05 2352.76,1092.05 
  "/>
<polyline clip-path="url(#clip702)" style="stroke:#000000; stroke-linecap:butt; stroke-linejoin:round; stroke-width:2; stroke-opacity:0.1; fill:none" points="
  315.725,929.896 2352.76,929.896 
  "/>
<polyline clip-path="url(#clip702)" style="stroke:#000000; stroke-linecap:butt; stroke-linejoin:round; stroke-width:2; stroke-opacity:0.1; fill:none" points="
  315.725,767.738 2352.76,767.738 
  "/>
<polyline clip-path="url(#clip702)" style="stroke:#000000; stroke-linecap:butt; stroke-linejoin:round; stroke-width:2; stroke-opacity:0.1; fill:none" points="
  315.725,605.58 2352.76,605.58 
  "/>
<polyline clip-path="url(#clip702)" style="stroke:#000000; stroke-linecap:butt; stroke-linejoin:round; stroke-width:2; stroke-opacity:0.1; fill:none" points="
  315.725,443.422 2352.76,443.422 
  "/>
<polyline clip-path="url(#clip702)" style="stroke:#000000; stroke-linecap:butt; stroke-linejoin:round; stroke-width:2; stroke-opacity:0.1; fill:none" points="
  315.725,281.263 2352.76,281.263 
  "/>
<polyline clip-path="url(#clip700)" style="stroke:#000000; stroke-linecap:butt; stroke-linejoin:round; stroke-width:4; stroke-opacity:1; fill:none" points="
  315.725,1401.58 315.725,123.472 
  "/>
<polyline clip-path="url(#clip700)" style="stroke:#000000; stroke-linecap:butt; stroke-linejoin:round; stroke-width:4; stroke-opacity:1; fill:none" points="
  315.725,1254.21 334.623,1254.21 
  "/>
<polyline clip-path="url(#clip700)" style="stroke:#000000; stroke-linecap:butt; stroke-linejoin:round; stroke-width:4; stroke-opacity:1; fill:none" points="
  315.725,1092.05 334.623,1092.05 
  "/>
<polyline clip-path="url(#clip700)" style="stroke:#000000; stroke-linecap:butt; stroke-linejoin:round; stroke-width:4; stroke-opacity:1; fill:none" points="
  315.725,929.896 334.623,929.896 
  "/>
<polyline clip-path="url(#clip700)" style="stroke:#000000; stroke-linecap:butt; stroke-linejoin:round; stroke-width:4; stroke-opacity:1; fill:none" points="
  315.725,767.738 334.623,767.738 
  "/>
<polyline clip-path="url(#clip700)" style="stroke:#000000; stroke-linecap:butt; stroke-linejoin:round; stroke-width:4; stroke-opacity:1; fill:none" points="
  315.725,605.58 334.623,605.58 
  "/>
<polyline clip-path="url(#clip700)" style="stroke:#000000; stroke-linecap:butt; stroke-linejoin:round; stroke-width:4; stroke-opacity:1; fill:none" points="
  315.725,443.422 334.623,443.422 
  "/>
<polyline clip-path="url(#clip700)" style="stroke:#000000; stroke-linecap:butt; stroke-linejoin:round; stroke-width:4; stroke-opacity:1; fill:none" points="
  315.725,281.263 334.623,281.263 
  "/>
<path clip-path="url(#clip700)" d="M119.066 1254.89 L163.58 1254.89 L163.58 1260.79 L119.066 1260.79 L119.066 1254.89 Z" fill="#000000" fill-rule="evenodd" fill-opacity="1" /><path clip-path="url(#clip700)" d="M193.719 1232.91 Q188.302 1232.91 185.559 1238.26 Q182.851 1243.57 182.851 1254.26 Q182.851 1264.92 185.559 1270.27 Q188.302 1275.58 193.719 1275.58 Q199.17 1275.58 201.878 1270.27 Q204.621 1264.92 204.621 1254.26 Q204.621 1243.57 201.878 1238.26 Q199.17 1232.91 193.719 1232.91 M193.719 1227.35 Q202.434 1227.35 207.017 1234.26 Q211.635 1241.14 211.635 1254.26 Q211.635 1267.35 207.017 1274.26 Q202.434 1281.14 193.719 1281.14 Q185.003 1281.14 180.385 1274.26 Q175.802 1267.35 175.802 1254.26 Q175.802 1241.14 180.385 1234.26 Q185.003 1227.35 193.719 1227.35 Z" fill="#000000" fill-rule="evenodd" fill-opacity="1" /><path clip-path="url(#clip700)" d="M223.962 1271.31 L231.288 1271.31 L231.288 1280.13 L223.962 1280.13 L223.962 1271.31 Z" fill="#000000" fill-rule="evenodd" fill-opacity="1" /><path clip-path="url(#clip700)" d="M262.434 1251.42 Q257.711 1251.42 254.934 1254.65 Q252.191 1257.87 252.191 1263.5 Q252.191 1269.09 254.934 1272.35 Q257.711 1275.58 262.434 1275.58 Q267.156 1275.58 269.899 1272.35 Q272.677 1269.09 272.677 1263.5 Q272.677 1257.87 269.899 1254.65 Q267.156 1251.42 262.434 1251.42 M276.357 1229.44 L276.357 1235.83 Q273.718 1234.58 271.01 1233.92 Q268.336 1233.26 265.697 1233.26 Q258.753 1233.26 255.072 1237.94 Q251.427 1242.63 250.906 1252.11 Q252.954 1249.09 256.045 1247.49 Q259.135 1245.86 262.85 1245.86 Q270.663 1245.86 275.177 1250.62 Q279.725 1255.34 279.725 1263.5 Q279.725 1271.49 275.003 1276.31 Q270.281 1281.14 262.434 1281.14 Q253.441 1281.14 248.684 1274.26 Q243.927 1267.35 243.927 1254.26 Q243.927 1241.97 249.76 1234.68 Q255.593 1227.35 265.42 1227.35 Q268.059 1227.35 270.732 1227.87 Q273.44 1228.4 276.357 1229.44 Z" fill="#000000" fill-rule="evenodd" fill-opacity="1" /><path clip-path="url(#clip700)" d="M118.58 1092.73 L163.094 1092.73 L163.094 1098.63 L118.58 1098.63 L118.58 1092.73 Z" fill="#000000" fill-rule="evenodd" fill-opacity="1" /><path clip-path="url(#clip700)" d="M193.233 1070.75 Q187.816 1070.75 185.073 1076.1 Q182.365 1081.41 182.365 1092.11 Q182.365 1102.77 185.073 1108.11 Q187.816 1113.43 193.233 1113.43 Q198.684 1113.43 201.392 1108.11 Q204.135 1102.77 204.135 1092.11 Q204.135 1081.41 201.392 1076.1 Q198.684 1070.75 193.233 1070.75 M193.233 1065.2 Q201.948 1065.2 206.531 1072.11 Q211.149 1078.98 211.149 1092.11 Q211.149 1105.2 206.531 1112.11 Q201.948 1118.98 193.233 1118.98 Q184.517 1118.98 179.899 1112.11 Q175.316 1105.2 175.316 1092.11 Q175.316 1078.98 179.899 1072.11 Q184.517 1065.2 193.233 1065.2 Z" fill="#000000" fill-rule="evenodd" fill-opacity="1" /><path clip-path="url(#clip700)" d="M223.475 1109.15 L230.802 1109.15 L230.802 1117.97 L223.475 1117.97 L223.475 1109.15 Z" fill="#000000" fill-rule="evenodd" fill-opacity="1" /><path clip-path="url(#clip700)" d="M265.35 1072.24 L247.642 1099.92 L265.35 1099.92 L265.35 1072.24 M263.51 1066.13 L272.329 1066.13 L272.329 1099.92 L279.725 1099.92 L279.725 1105.75 L272.329 1105.75 L272.329 1117.97 L265.35 1117.97 L265.35 1105.75 L241.948 1105.75 L241.948 1098.98 L263.51 1066.13 Z" fill="#000000" fill-rule="evenodd" fill-opacity="1" /><path clip-path="url(#clip700)" d="M121.705 930.573 L166.219 930.573 L166.219 936.475 L121.705 936.475 L121.705 930.573 Z" fill="#000000" fill-rule="evenodd" fill-opacity="1" /><path clip-path="url(#clip700)" d="M196.358 908.594 Q190.941 908.594 188.198 913.941 Q185.49 919.253 185.49 929.948 Q185.49 940.607 188.198 945.955 Q190.941 951.267 196.358 951.267 Q201.809 951.267 204.517 945.955 Q207.26 940.607 207.26 929.948 Q207.26 919.253 204.517 913.941 Q201.809 908.594 196.358 908.594 M196.358 903.038 Q205.073 903.038 209.656 909.948 Q214.274 916.823 214.274 929.948 Q214.274 943.038 209.656 949.948 Q205.073 956.823 196.358 956.823 Q187.642 956.823 183.024 949.948 Q178.441 943.038 178.441 929.948 Q178.441 916.823 183.024 909.948 Q187.642 903.038 196.358 903.038 Z" fill="#000000" fill-rule="evenodd" fill-opacity="1" /><path clip-path="url(#clip700)" d="M226.6 946.996 L233.927 946.996 L233.927 955.816 L226.6 955.816 L226.6 946.996 Z" fill="#000000" fill-rule="evenodd" fill-opacity="1" /><path clip-path="url(#clip700)" d="M255.246 949.913 L279.725 949.913 L279.725 955.816 L246.809 955.816 L246.809 949.913 Q250.802 945.781 257.677 938.836 Q264.586 931.857 266.357 929.843 Q269.725 926.059 271.045 923.455 Q272.399 920.816 272.399 918.281 Q272.399 914.149 269.482 911.545 Q266.6 908.941 261.947 908.941 Q258.649 908.941 254.968 910.087 Q251.323 911.232 247.156 913.559 L247.156 906.476 Q251.392 904.774 255.072 903.906 Q258.753 903.038 261.809 903.038 Q269.864 903.038 274.656 907.066 Q279.447 911.094 279.447 917.83 Q279.447 921.024 278.232 923.906 Q277.052 926.753 273.892 930.642 Q273.024 931.649 268.371 936.475 Q263.718 941.267 255.246 949.913 Z" fill="#000000" fill-rule="evenodd" fill-opacity="1" /><path clip-path="url(#clip700)" d="M193.962 746.436 Q188.545 746.436 185.802 751.783 Q183.094 757.095 183.094 767.79 Q183.094 778.449 185.802 783.796 Q188.545 789.109 193.962 789.109 Q199.413 789.109 202.121 783.796 Q204.864 778.449 204.864 767.79 Q204.864 757.095 202.121 751.783 Q199.413 746.436 193.962 746.436 M193.962 740.88 Q202.677 740.88 207.26 747.79 Q211.878 754.665 211.878 767.79 Q211.878 780.88 207.26 787.79 Q202.677 794.664 193.962 794.664 Q185.246 794.664 180.628 787.79 Q176.045 780.88 176.045 767.79 Q176.045 754.665 180.628 747.79 Q185.246 740.88 193.962 740.88 Z" fill="#000000" fill-rule="evenodd" fill-opacity="1" /><path clip-path="url(#clip700)" d="M224.205 784.838 L231.531 784.838 L231.531 793.658 L224.205 793.658 L224.205 784.838 Z" fill="#000000" fill-rule="evenodd" fill-opacity="1" /><path clip-path="url(#clip700)" d="M261.809 746.436 Q256.392 746.436 253.649 751.783 Q250.941 757.095 250.941 767.79 Q250.941 778.449 253.649 783.796 Q256.392 789.109 261.809 789.109 Q267.26 789.109 269.968 783.796 Q272.711 778.449 272.711 767.79 Q272.711 757.095 269.968 751.783 Q267.26 746.436 261.809 746.436 M261.809 740.88 Q270.524 740.88 275.107 747.79 Q279.725 754.665 279.725 767.79 Q279.725 780.88 275.107 787.79 Q270.524 794.664 261.809 794.664 Q253.093 794.664 248.475 787.79 Q243.892 780.88 243.892 767.79 Q243.892 754.665 248.475 747.79 Q253.093 740.88 261.809 740.88 Z" fill="#000000" fill-rule="evenodd" fill-opacity="1" /><path clip-path="url(#clip700)" d="M196.358 584.278 Q190.941 584.278 188.198 589.625 Q185.49 594.937 185.49 605.632 Q185.49 616.291 188.198 621.638 Q190.941 626.951 196.358 626.951 Q201.809 626.951 204.517 621.638 Q207.26 616.291 207.26 605.632 Q207.26 594.937 204.517 589.625 Q201.809 584.278 196.358 584.278 M196.358 578.722 Q205.073 578.722 209.656 585.632 Q214.274 592.507 214.274 605.632 Q214.274 618.722 209.656 625.632 Q205.073 632.506 196.358 632.506 Q187.642 632.506 183.024 625.632 Q178.441 618.722 178.441 605.632 Q178.441 592.507 183.024 585.632 Q187.642 578.722 196.358 578.722 Z" fill="#000000" fill-rule="evenodd" fill-opacity="1" /><path clip-path="url(#clip700)" d="M226.6 622.68 L233.927 622.68 L233.927 631.5 L226.6 631.5 L226.6 622.68 Z" fill="#000000" fill-rule="evenodd" fill-opacity="1" /><path clip-path="url(#clip700)" d="M255.246 625.597 L279.725 625.597 L279.725 631.5 L246.809 631.5 L246.809 625.597 Q250.802 621.465 257.677 614.52 Q264.586 607.541 266.357 605.527 Q269.725 601.743 271.045 599.139 Q272.399 596.5 272.399 593.965 Q272.399 589.833 269.482 587.229 Q266.6 584.625 261.947 584.625 Q258.649 584.625 254.968 585.771 Q251.323 586.916 247.156 589.243 L247.156 582.16 Q251.392 580.458 255.072 579.59 Q258.753 578.722 261.809 578.722 Q269.864 578.722 274.656 582.75 Q279.447 586.778 279.447 593.514 Q279.447 596.708 278.232 599.59 Q277.052 602.437 273.892 606.326 Q273.024 607.333 268.371 612.159 Q263.718 616.951 255.246 625.597 Z" fill="#000000" fill-rule="evenodd" fill-opacity="1" /><path clip-path="url(#clip700)" d="M193.233 422.12 Q187.816 422.12 185.073 427.467 Q182.365 432.779 182.365 443.474 Q182.365 454.133 185.073 459.48 Q187.816 464.793 193.233 464.793 Q198.684 464.793 201.392 459.48 Q204.135 454.133 204.135 443.474 Q204.135 432.779 201.392 427.467 Q198.684 422.12 193.233 422.12 M193.233 416.564 Q201.948 416.564 206.531 423.474 Q211.149 430.349 211.149 443.474 Q211.149 456.564 206.531 463.473 Q201.948 470.348 193.233 470.348 Q184.517 470.348 179.899 463.473 Q175.316 456.564 175.316 443.474 Q175.316 430.349 179.899 423.474 Q184.517 416.564 193.233 416.564 Z" fill="#000000" fill-rule="evenodd" fill-opacity="1" /><path clip-path="url(#clip700)" d="M223.475 460.522 L230.802 460.522 L230.802 469.342 L223.475 469.342 L223.475 460.522 Z" fill="#000000" fill-rule="evenodd" fill-opacity="1" /><path clip-path="url(#clip700)" d="M265.35 423.613 L247.642 451.286 L265.35 451.286 L265.35 423.613 M263.51 417.502 L272.329 417.502 L272.329 451.286 L279.725 451.286 L279.725 457.119 L272.329 457.119 L272.329 469.342 L265.35 469.342 L265.35 457.119 L241.948 457.119 L241.948 450.349 L263.51 417.502 Z" fill="#000000" fill-rule="evenodd" fill-opacity="1" /><path clip-path="url(#clip700)" d="M193.719 259.962 Q188.302 259.962 185.559 265.309 Q182.851 270.621 182.851 281.316 Q182.851 291.975 185.559 297.322 Q188.302 302.635 193.719 302.635 Q199.17 302.635 201.878 297.322 Q204.621 291.975 204.621 281.316 Q204.621 270.621 201.878 265.309 Q199.17 259.962 193.719 259.962 M193.719 254.406 Q202.434 254.406 207.017 261.316 Q211.635 268.191 211.635 281.316 Q211.635 294.406 207.017 301.315 Q202.434 308.19 193.719 308.19 Q185.003 308.19 180.385 301.315 Q175.802 294.406 175.802 281.316 Q175.802 268.191 180.385 261.316 Q185.003 254.406 193.719 254.406 Z" fill="#000000" fill-rule="evenodd" fill-opacity="1" /><path clip-path="url(#clip700)" d="M223.962 298.364 L231.288 298.364 L231.288 307.183 L223.962 307.183 L223.962 298.364 Z" fill="#000000" fill-rule="evenodd" fill-opacity="1" /><path clip-path="url(#clip700)" d="M262.434 278.468 Q257.711 278.468 254.934 281.698 Q252.191 284.927 252.191 290.552 Q252.191 296.142 254.934 299.406 Q257.711 302.635 262.434 302.635 Q267.156 302.635 269.899 299.406 Q272.677 296.142 272.677 290.552 Q272.677 284.927 269.899 281.698 Q267.156 278.468 262.434 278.468 M276.357 256.489 L276.357 262.878 Q273.718 261.628 271.01 260.968 Q268.336 260.309 265.697 260.309 Q258.753 260.309 255.072 264.996 Q251.427 269.684 250.906 279.163 Q252.954 276.142 256.045 274.545 Q259.135 272.913 262.85 272.913 Q270.663 272.913 275.177 277.67 Q279.725 282.392 279.725 290.552 Q279.725 298.538 275.003 303.364 Q270.281 308.19 262.434 308.19 Q253.441 308.19 248.684 301.315 Q243.927 294.406 243.927 281.316 Q243.927 269.024 249.76 261.732 Q255.593 254.406 265.42 254.406 Q268.059 254.406 270.732 254.927 Q273.44 255.448 276.357 256.489 Z" fill="#000000" fill-rule="evenodd" fill-opacity="1" /><path clip-path="url(#clip700)" d="M13.0007 1025.04 L18.3131 1025.04 L18.3131 1031.15 Q18.3131 1034.59 19.702 1035.94 Q21.0909 1037.26 24.702 1037.26 L28.1395 1037.26 L28.1395 1026.74 L33.1047 1026.74 L33.1047 1037.26 L67.0282 1037.26 L67.0282 1043.69 L33.1047 1043.69 L33.1047 1049.8 L28.1395 1049.8 L28.1395 1043.69 L25.4312 1043.69 Q18.9381 1043.69 15.9868 1040.67 Q13.0007 1037.65 13.0007 1031.08 L13.0007 1025.04 Z" fill="#000000" fill-rule="evenodd" fill-opacity="1" /><path clip-path="url(#clip700)" d="M34.1117 997.16 Q33.4867 998.237 33.2089 999.521 Q32.8964 1000.77 32.8964 1002.3 Q32.8964 1007.72 36.438 1010.63 Q39.945 1013.51 46.5422 1013.51 L67.0282 1013.51 L67.0282 1019.94 L28.1395 1019.94 L28.1395 1013.51 L34.1811 1013.51 Q30.6395 1011.5 28.9381 1008.27 Q27.202 1005.04 27.202 1000.42 Q27.202 999.764 27.3061 998.966 Q27.3756 998.167 27.5492 997.195 L34.1117 997.16 Z" fill="#000000" fill-rule="evenodd" fill-opacity="1" /><path clip-path="url(#clip700)" d="M28.1395 990.459 L28.1395 984.07 L67.0282 984.07 L67.0282 990.459 L28.1395 990.459 M13.0007 990.459 L13.0007 984.07 L21.0909 984.07 L21.0909 990.459 L13.0007 990.459 Z" fill="#000000" fill-rule="evenodd" fill-opacity="1" /><path clip-path="url(#clip700)" d="M29.6325 942.716 L35.6047 942.716 Q34.1117 945.424 33.3825 948.167 Q32.6186 950.876 32.6186 953.653 Q32.6186 959.869 36.5769 963.306 Q40.5005 966.744 47.6185 966.744 Q54.7366 966.744 58.6949 963.306 Q62.6185 959.869 62.6185 953.653 Q62.6185 950.876 61.8893 948.167 Q61.1254 945.424 59.6324 942.716 L65.5351 942.716 Q66.7851 945.39 67.4101 948.272 Q68.0351 951.119 68.0351 954.348 Q68.0351 963.133 62.5143 968.306 Q56.9935 973.48 47.6185 973.48 Q38.1047 973.48 32.6533 968.271 Q27.202 963.028 27.202 953.931 Q27.202 950.98 27.827 948.167 Q28.4173 945.355 29.6325 942.716 Z" fill="#000000" fill-rule="evenodd" fill-opacity="1" /><path clip-path="url(#clip700)" d="M17.0979 925.286 L28.1395 925.286 L28.1395 912.126 L33.1047 912.126 L33.1047 925.286 L54.2157 925.286 Q58.9726 925.286 60.3268 924.001 Q61.681 922.681 61.681 918.688 L61.681 912.126 L67.0282 912.126 L67.0282 918.688 Q67.0282 926.084 64.2851 928.897 Q61.5074 931.709 54.2157 931.709 L33.1047 931.709 L33.1047 936.397 L28.1395 936.397 L28.1395 931.709 L17.0979 931.709 L17.0979 925.286 Z" fill="#000000" fill-rule="evenodd" fill-opacity="1" /><path clip-path="url(#clip700)" d="M28.1395 903.723 L28.1395 897.334 L67.0282 897.334 L67.0282 903.723 L28.1395 903.723 M13.0007 903.723 L13.0007 897.334 L21.0909 897.334 L21.0909 903.723 L13.0007 903.723 Z" fill="#000000" fill-rule="evenodd" fill-opacity="1" /><path clip-path="url(#clip700)" d="M32.6186 868.897 Q32.6186 874.036 36.6464 877.022 Q40.6394 880.008 47.6185 880.008 Q54.5977 880.008 58.6254 877.057 Q62.6185 874.071 62.6185 868.897 Q62.6185 863.793 58.5907 860.807 Q54.5629 857.821 47.6185 857.821 Q40.7089 857.821 36.6811 860.807 Q32.6186 863.793 32.6186 868.897 M27.202 868.897 Q27.202 860.564 32.6186 855.807 Q38.0353 851.05 47.6185 851.05 Q57.1671 851.05 62.6185 855.807 Q68.0351 860.564 68.0351 868.897 Q68.0351 877.265 62.6185 882.022 Q57.1671 886.744 47.6185 886.744 Q38.0353 886.744 32.6186 882.022 Q27.202 877.265 27.202 868.897 Z" fill="#000000" fill-rule="evenodd" fill-opacity="1" /><path clip-path="url(#clip700)" d="M43.5561 808.133 L67.0282 808.133 L67.0282 814.522 L43.7644 814.522 Q38.2436 814.522 35.5005 816.675 Q32.7575 818.828 32.7575 823.133 Q32.7575 828.307 36.0561 831.293 Q39.3547 834.279 45.0491 834.279 L67.0282 834.279 L67.0282 840.703 L28.1395 840.703 L28.1395 834.279 L34.1811 834.279 Q30.6742 831.987 28.9381 828.897 Q27.202 825.772 27.202 821.71 Q27.202 815.008 31.3686 811.571 Q35.5005 808.133 43.5561 808.133 Z" fill="#000000" fill-rule="evenodd" fill-opacity="1" /><path clip-path="url(#clip700)" d="M13.0007 753.099 L18.3131 753.099 L18.3131 759.21 Q18.3131 762.648 19.702 764.002 Q21.0909 765.321 24.702 765.321 L28.1395 765.321 L28.1395 754.8 L33.1047 754.8 L33.1047 765.321 L67.0282 765.321 L67.0282 771.745 L33.1047 771.745 L33.1047 777.856 L28.1395 777.856 L28.1395 771.745 L25.4312 771.745 Q18.9381 771.745 15.9868 768.724 Q13.0007 765.703 13.0007 759.141 L13.0007 753.099 Z" fill="#000000" fill-rule="evenodd" fill-opacity="1" /><path clip-path="url(#clip700)" d="M32.6186 732.682 Q32.6186 737.821 36.6464 740.807 Q40.6394 743.793 47.6185 743.793 Q54.5977 743.793 58.6254 740.842 Q62.6185 737.856 62.6185 732.682 Q62.6185 727.578 58.5907 724.592 Q54.5629 721.606 47.6185 721.606 Q40.7089 721.606 36.6811 724.592 Q32.6186 727.578 32.6186 732.682 M27.202 732.682 Q27.202 724.349 32.6186 719.592 Q38.0353 714.835 47.6185 714.835 Q57.1671 714.835 62.6185 719.592 Q68.0351 724.349 68.0351 732.682 Q68.0351 741.05 62.6185 745.807 Q57.1671 750.53 47.6185 750.53 Q38.0353 750.53 32.6186 745.807 Q27.202 741.05 27.202 732.682 Z" fill="#000000" fill-rule="evenodd" fill-opacity="1" /><path clip-path="url(#clip700)" d="M34.1117 681.71 Q33.4867 682.787 33.2089 684.072 Q32.8964 685.322 32.8964 686.849 Q32.8964 692.266 36.438 695.183 Q39.945 698.065 46.5422 698.065 L67.0282 698.065 L67.0282 704.488 L28.1395 704.488 L28.1395 698.065 L34.1811 698.065 Q30.6395 696.051 28.9381 692.821 Q27.202 689.592 27.202 684.974 Q27.202 684.315 27.3061 683.516 Q27.3756 682.717 27.5492 681.745 L34.1117 681.71 Z" fill="#000000" fill-rule="evenodd" fill-opacity="1" /><path clip-path="url(#clip700)" d="M29.6325 648.586 L35.6047 648.586 Q34.1117 651.294 33.3825 654.037 Q32.6186 656.745 32.6186 659.523 Q32.6186 665.738 36.5769 669.176 Q40.5005 672.613 47.6185 672.613 Q54.7366 672.613 58.6949 669.176 Q62.6185 665.738 62.6185 659.523 Q62.6185 656.745 61.8893 654.037 Q61.1254 651.294 59.6324 648.586 L65.5351 648.586 Q66.7851 651.259 67.4101 654.141 Q68.0351 656.988 68.0351 660.218 Q68.0351 669.002 62.5143 674.176 Q56.9935 679.349 47.6185 679.349 Q38.1047 679.349 32.6533 674.141 Q27.202 668.898 27.202 659.801 Q27.202 656.849 27.827 654.037 Q28.4173 651.224 29.6325 648.586 Z" fill="#000000" fill-rule="evenodd" fill-opacity="1" /><path clip-path="url(#clip700)" d="M45.9866 604.211 L49.1116 604.211 L49.1116 633.586 Q55.7088 633.169 59.181 629.627 Q62.6185 626.051 62.6185 619.697 Q62.6185 616.016 61.7157 612.579 Q60.8129 609.107 59.0074 605.704 L65.049 605.704 Q66.5073 609.141 67.2712 612.752 Q68.0351 616.364 68.0351 620.079 Q68.0351 629.384 62.6185 634.836 Q57.2018 640.252 47.9658 640.252 Q38.4172 640.252 32.827 635.113 Q27.202 629.94 27.202 621.19 Q27.202 613.343 32.2714 608.794 Q37.3061 604.211 45.9866 604.211 M44.1116 610.6 Q38.8686 610.669 35.7436 613.551 Q32.6186 616.398 32.6186 621.12 Q32.6186 626.468 35.6394 629.697 Q38.6603 632.891 44.1463 633.377 L44.1116 610.6 Z" fill="#000000" fill-rule="evenodd" fill-opacity="1" /><path clip-path="url(#clip700)" d="M13.0007 571.711 L13.0007 556.989 L17.9659 556.989 L17.9659 565.322 L71.4379 565.322 L71.4379 556.989 L76.4031 556.989 L76.4031 571.711 L13.0007 571.711 Z" fill="#000000" fill-rule="evenodd" fill-opacity="1" /><path clip-path="url(#clip700)" d="M15.1882 543.1 L15.1882 533.656 L58.556 510.67 L15.1882 510.67 L15.1882 503.864 L67.0282 503.864 L67.0282 513.309 L23.6603 536.295 L67.0282 536.295 L67.0282 543.1 L15.1882 543.1 Z" fill="#000000" fill-rule="evenodd" fill-opacity="1" /><path clip-path="url(#clip700)" d="M13.0007 475.253 L76.4031 475.253 L76.4031 489.975 L71.4379 489.975 L71.4379 481.677 L17.9659 481.677 L17.9659 489.975 L13.0007 489.975 L13.0007 475.253 Z" fill="#000000" fill-rule="evenodd" fill-opacity="1" /><path clip-path="url(#clip700)" d="M1008.53 12.096 L1043.28 12.096 L1043.28 18.9825 L1016.71 18.9825 L1016.71 36.8065 L1040.69 36.8065 L1040.69 43.6931 L1016.71 43.6931 L1016.71 72.576 L1008.53 72.576 L1008.53 12.096 Z" fill="#000000" fill-rule="evenodd" fill-opacity="1" /><path clip-path="url(#clip700)" d="M1076.18 34.1734 Q1074.92 33.4443 1073.42 33.1202 Q1071.96 32.7556 1070.18 32.7556 Q1063.86 32.7556 1060.46 36.8875 Q1057.1 40.9789 1057.1 48.6757 L1057.1 72.576 L1049.6 72.576 L1049.6 27.2059 L1057.1 27.2059 L1057.1 34.2544 Q1059.45 30.1225 1063.21 28.1376 Q1066.98 26.1121 1072.37 26.1121 Q1073.14 26.1121 1074.07 26.2337 Q1075 26.3147 1076.14 26.5172 L1076.18 34.1734 Z" fill="#000000" fill-rule="evenodd" fill-opacity="1" /><path clip-path="url(#clip700)" d="M1084 27.2059 L1091.45 27.2059 L1091.45 72.576 L1084 72.576 L1084 27.2059 M1084 9.54393 L1091.45 9.54393 L1091.45 18.9825 L1084 18.9825 L1084 9.54393 Z" fill="#000000" fill-rule="evenodd" fill-opacity="1" /><path clip-path="url(#clip700)" d="M1139.7 28.9478 L1139.7 35.9153 Q1136.54 34.1734 1133.34 33.3227 Q1130.18 32.4315 1126.94 32.4315 Q1119.68 32.4315 1115.67 37.0496 Q1111.66 41.6271 1111.66 49.9314 Q1111.66 58.2358 1115.67 62.8538 Q1119.68 67.4314 1126.94 67.4314 Q1130.18 67.4314 1133.34 66.5807 Q1136.54 65.6895 1139.7 63.9476 L1139.7 70.8341 Q1136.58 72.2924 1133.21 73.0216 Q1129.89 73.7508 1126.13 73.7508 Q1115.88 73.7508 1109.84 67.3098 Q1103.8 60.8689 1103.8 49.9314 Q1103.8 38.832 1109.88 32.472 Q1116 26.1121 1126.61 26.1121 Q1130.05 26.1121 1133.34 26.8413 Q1136.62 27.5299 1139.7 28.9478 Z" fill="#000000" fill-rule="evenodd" fill-opacity="1" /><path clip-path="url(#clip700)" d="M1160.03 14.324 L1160.03 27.2059 L1175.38 27.2059 L1175.38 32.9987 L1160.03 32.9987 L1160.03 57.6282 Q1160.03 63.1779 1161.53 64.7578 Q1163.07 66.3376 1167.73 66.3376 L1175.38 66.3376 L1175.38 72.576 L1167.73 72.576 Q1159.1 72.576 1155.82 69.3758 Q1152.54 66.1351 1152.54 57.6282 L1152.54 32.9987 L1147.07 32.9987 L1147.07 27.2059 L1152.54 27.2059 L1152.54 14.324 L1160.03 14.324 Z" fill="#000000" fill-rule="evenodd" fill-opacity="1" /><path clip-path="url(#clip700)" d="M1185.19 27.2059 L1192.64 27.2059 L1192.64 72.576 L1185.19 72.576 L1185.19 27.2059 M1185.19 9.54393 L1192.64 9.54393 L1192.64 18.9825 L1185.19 18.9825 L1185.19 9.54393 Z" fill="#000000" fill-rule="evenodd" fill-opacity="1" /><path clip-path="url(#clip700)" d="M1225.82 32.4315 Q1219.82 32.4315 1216.34 37.1306 Q1212.86 41.7891 1212.86 49.9314 Q1212.86 58.0738 1216.3 62.7728 Q1219.78 67.4314 1225.82 67.4314 Q1231.77 67.4314 1235.26 62.7323 Q1238.74 58.0333 1238.74 49.9314 Q1238.74 41.8701 1235.26 37.1711 Q1231.77 32.4315 1225.82 32.4315 M1225.82 26.1121 Q1235.54 26.1121 1241.09 32.4315 Q1246.64 38.7509 1246.64 49.9314 Q1246.64 61.0714 1241.09 67.4314 Q1235.54 73.7508 1225.82 73.7508 Q1216.06 73.7508 1210.51 67.4314 Q1205 61.0714 1205 49.9314 Q1205 38.7509 1210.51 32.4315 Q1216.06 26.1121 1225.82 26.1121 Z" fill="#000000" fill-rule="evenodd" fill-opacity="1" /><path clip-path="url(#clip700)" d="M1296.71 45.1919 L1296.71 72.576 L1289.26 72.576 L1289.26 45.4349 Q1289.26 38.994 1286.74 35.7938 Q1284.23 32.5936 1279.21 32.5936 Q1273.17 32.5936 1269.69 36.4419 Q1266.21 40.2903 1266.21 46.9338 L1266.21 72.576 L1258.71 72.576 L1258.71 27.2059 L1266.21 27.2059 L1266.21 34.2544 Q1268.88 30.163 1272.48 28.1376 Q1276.13 26.1121 1280.87 26.1121 Q1288.69 26.1121 1292.7 30.9732 Q1296.71 35.7938 1296.71 45.1919 Z" fill="#000000" fill-rule="evenodd" fill-opacity="1" /><path clip-path="url(#clip700)" d="M1373.27 35.9153 Q1376.07 30.8922 1379.95 28.5022 Q1383.84 26.1121 1389.11 26.1121 Q1396.2 26.1121 1400.05 31.0947 Q1403.9 36.0368 1403.9 45.1919 L1403.9 72.576 L1396.4 72.576 L1396.4 45.4349 Q1396.4 38.913 1394.09 35.7533 Q1391.78 32.5936 1387.04 32.5936 Q1381.25 32.5936 1377.89 36.4419 Q1374.53 40.2903 1374.53 46.9338 L1374.53 72.576 L1367.03 72.576 L1367.03 45.4349 Q1367.03 38.8725 1364.72 35.7533 Q1362.41 32.5936 1357.59 32.5936 Q1351.88 32.5936 1348.52 36.4824 Q1345.16 40.3308 1345.16 46.9338 L1345.16 72.576 L1337.66 72.576 L1337.66 27.2059 L1345.16 27.2059 L1345.16 34.2544 Q1347.71 30.082 1351.27 28.0971 Q1354.84 26.1121 1359.74 26.1121 Q1364.68 26.1121 1368.13 28.6237 Q1371.61 31.1352 1373.27 35.9153 Z" fill="#000000" fill-rule="evenodd" fill-opacity="1" /><path clip-path="url(#clip700)" d="M1436.34 32.4315 Q1430.35 32.4315 1426.86 37.1306 Q1423.38 41.7891 1423.38 49.9314 Q1423.38 58.0738 1426.82 62.7728 Q1430.31 67.4314 1436.34 67.4314 Q1442.3 67.4314 1445.78 62.7323 Q1449.27 58.0333 1449.27 49.9314 Q1449.27 41.8701 1445.78 37.1711 Q1442.3 32.4315 1436.34 32.4315 M1436.34 26.1121 Q1446.07 26.1121 1451.62 32.4315 Q1457.17 38.7509 1457.17 49.9314 Q1457.17 61.0714 1451.62 67.4314 Q1446.07 73.7508 1436.34 73.7508 Q1426.58 73.7508 1421.03 67.4314 Q1415.52 61.0714 1415.52 49.9314 Q1415.52 38.7509 1421.03 32.4315 Q1426.58 26.1121 1436.34 26.1121 Z" fill="#000000" fill-rule="evenodd" fill-opacity="1" /><path clip-path="url(#clip700)" d="M1499.38 34.0924 L1499.38 9.54393 L1506.83 9.54393 L1506.83 72.576 L1499.38 72.576 L1499.38 65.7705 Q1497.03 69.8214 1493.42 71.8063 Q1489.86 73.7508 1484.83 73.7508 Q1476.61 73.7508 1471.42 67.1883 Q1466.28 60.6258 1466.28 49.9314 Q1466.28 39.2371 1471.42 32.6746 Q1476.61 26.1121 1484.83 26.1121 Q1489.86 26.1121 1493.42 28.0971 Q1497.03 30.0415 1499.38 34.0924 M1473.98 49.9314 Q1473.98 58.1548 1477.34 62.8538 Q1480.74 67.5124 1486.66 67.5124 Q1492.57 67.5124 1495.97 62.8538 Q1499.38 58.1548 1499.38 49.9314 Q1499.38 41.7081 1495.97 37.0496 Q1492.57 32.3505 1486.66 32.3505 Q1480.74 32.3505 1477.34 37.0496 Q1473.98 41.7081 1473.98 49.9314 Z" fill="#000000" fill-rule="evenodd" fill-opacity="1" /><path clip-path="url(#clip700)" d="M1560.99 48.0275 L1560.99 51.6733 L1526.72 51.6733 Q1527.21 59.3701 1531.34 63.421 Q1535.51 67.4314 1542.92 67.4314 Q1547.22 67.4314 1551.23 66.3781 Q1555.28 65.3249 1559.25 63.2184 L1559.25 70.267 Q1555.24 71.9684 1551.02 72.8596 Q1546.81 73.7508 1542.48 73.7508 Q1531.62 73.7508 1525.26 67.4314 Q1518.94 61.1119 1518.94 50.3365 Q1518.94 39.1965 1524.94 32.6746 Q1530.97 26.1121 1541.18 26.1121 Q1550.34 26.1121 1555.64 32.0264 Q1560.99 37.9003 1560.99 48.0275 M1553.54 45.84 Q1553.46 39.7232 1550.09 36.0774 Q1546.77 32.4315 1541.26 32.4315 Q1535.02 32.4315 1531.26 35.9558 Q1527.53 39.4801 1526.96 45.8805 L1553.54 45.84 Z" fill="#000000" fill-rule="evenodd" fill-opacity="1" /><path clip-path="url(#clip700)" d="M1573.22 9.54393 L1580.68 9.54393 L1580.68 72.576 L1573.22 72.576 L1573.22 9.54393 Z" fill="#000000" fill-rule="evenodd" fill-opacity="1" /><path clip-path="url(#clip700)" d="M1625.12 65.6895 L1638.48 65.6895 L1638.48 19.5497 L1623.94 22.4663 L1623.94 15.0127 L1638.4 12.096 L1646.59 12.096 L1646.59 65.6895 L1659.95 65.6895 L1659.95 72.576 L1625.12 72.576 L1625.12 65.6895 Z" fill="#000000" fill-rule="evenodd" fill-opacity="1" /><polyline clip-path="url(#clip702)" style="stroke:#009af9; stroke-linecap:butt; stroke-linejoin:round; stroke-width:8; stroke-opacity:1; fill:none" points="
  1334.24,767.738 1369.02,767.738 1404.07,767.738 1439.32,767.738 1474.72,767.738 1510.21,767.738 1545.75,767.738 1581.27,767.738 1616.72,767.738 1652.05,767.738 
  1687.21,767.738 1722.15,767.738 1756.82,767.738 1791.17,767.738 1825.16,767.738 1858.74,767.738 1891.87,767.738 1924.51,767.738 1956.62,767.738 1988.17,767.738 
  2019.11,767.738 2049.4,767.738 2079.02,767.738 2107.93,767.738 2136.09,767.738 2163.47,767.738 2190.04,767.738 2215.78,767.738 2240.65,767.738 2264.63,767.738 
  2287.69,767.738 2309.81,767.738 2330.96,767.738 2351.12,767.738 2370.27,767.738 2388.39,767.738 2405.46,767.738 2421.46,767.738 2436.37,767.738 2450.19,767.738 
  2462.89,767.738 2474.46,767.738 2484.9,767.738 2494.18,767.738 2502.31,767.738 2509.27,767.738 2515.05,767.738 2519.65,767.738 2523.06,767.738 2525.29,767.738 
  2526.32,767.738 2526.16,767.738 2524.81,767.738 2522.27,767.738 2518.54,767.738 2513.63,767.738 2507.54,767.738 2500.27,767.738 2491.83,767.738 2482.24,767.738 
  2471.5,767.738 2459.62,767.738 2446.61,767.738 2432.49,767.738 2417.26,767.738 2400.96,767.738 2383.57,767.738 2365.14,767.738 2345.67,767.738 2325.18,767.738 
  2303.69,767.738 2281.22,767.738 2257.79,767.738 2233.43,767.738 2208.15,767.738 2181.98,767.738 2154.94,767.738 2127.06,767.738 2098.36,767.738 2068.86,767.738 
  2038.6,767.738 2007.59,767.738 1975.86,767.738 1943.44,767.738 1910.36,767.738 1876.63,767.738 1842.29,767.738 1807.35,767.738 1771.85,767.738 1735.81,767.738 
  1699.25,767.738 1662.19,767.738 1624.67,767.738 1586.68,767.738 1548.25,767.738 1509.41,767.738 1470.15,767.738 1430.49,767.738 1390.44,767.738 1350.01,767.738 
  1316.71,767.738 1287.89,767.738 1258.88,767.738 1229.71,767.738 1200.45,767.738 1171.11,767.738 1141.76,767.738 1112.43,767.738 1083.16,767.738 1054,767.738 
  1024.98,767.738 996.151,767.738 967.55,767.738 939.211,767.738 911.176,767.738 883.478,767.738 856.153,767.738 829.237,767.738 802.76,767.738 776.757,767.738 
  751.259,767.738 726.295,767.738 701.898,767.738 678.091,767.738 654.906,767.738 632.368,767.738 610.498,767.738 589.325,767.738 568.874,767.738 549.174,767.738 
  530.237,767.738 512.09,767.738 494.752,767.738 478.242,767.738 462.577,767.738 447.774,767.738 433.848,767.738 420.815,767.738 408.688,767.738 397.481,767.738 
  387.204,767.738 377.87,767.738 369.488,767.738 362.066,767.738 355.614,767.738 350.138,767.738 345.644,767.738 342.136,767.738 339.619,767.738 338.096,767.738 
  337.57,767.738 338.039,767.738 339.505,767.738 341.967,767.738 345.422,767.738 349.868,767.738 355.301,767.738 361.715,767.738 369.105,767.738 377.464,767.738 
  386.783,767.738 397.056,767.738 408.271,767.738 420.42,767.738 433.489,767.738 447.467,767.738 462.341,767.738 478.099,767.738 494.725,767.738 512.204,767.738 
  530.52,767.738 549.655,767.738 569.596,767.738 590.323,767.738 611.818,767.738 634.06,767.738 657.029,767.738 680.713,767.738 705.088,767.738 730.132,767.738 
  755.824,767.738 782.143,767.738 809.073,767.738 836.592,767.738 864.677,767.738 893.306,767.738 922.457,767.738 952.11,767.738 982.248,767.738 1012.85,767.738 
  1043.89,767.738 1075.37,767.738 1107.25,767.738 1139.53,767.738 1172.19,767.738 1205.22,767.738 1238.6,767.738 1272.33,767.738 1306.38,767.738 1338.44,767.738 
  1360.84,767.738 1383.42,767.738 1406.13,767.738 1428.95,767.738 1451.85,767.738 1474.79,767.738 1497.74,767.738 1520.67,767.738 1543.55,767.738 1566.35,767.738 
  1589.03,767.738 1611.57,767.738 1633.93,767.738 1656.09,767.738 1678.02,767.738 1699.69,767.738 1721.06,767.738 1742.13,767.738 1762.86,767.738 1783.22,767.738 
  1803.19,767.738 1822.74,767.738 1841.85,767.738 1860.5,767.738 1878.66,767.738 1896.31,767.738 1913.44,767.738 1930.02,767.738 1946.03,767.738 1961.46,767.738 
  1976.28,767.738 1990.49,767.738 2004.06,767.738 2016.98,767.738 2029.23,767.738 2040.81,767.738 2051.69,767.738 2061.87,767.738 2071.33,767.738 2080.07,767.738 
  2088.07,767.738 2095.32,767.738 2101.82,767.738 2107.56,767.738 2112.54,767.738 2116.73,767.738 2120.15,767.738 2122.79,767.738 2124.63,767.738 2125.69,767.738 
  2125.96,767.738 2125.43,767.738 2124.12,767.738 2122.01,767.738 2119.11,767.738 2115.42,767.738 2110.94,767.738 2105.69,767.738 2099.65,767.738 2092.85,767.738 
  2085.27,767.738 2076.94,767.738 2067.86,767.738 2058.03,767.738 2047.46,767.738 2036.16,767.738 2024.15,767.738 2011.44,767.738 1998.03,767.738 1983.93,767.738 
  1969.16,767.738 1953.74,767.738 1937.66,767.738 1920.96,767.738 1903.64,767.738 1885.71,767.738 1867.19,767.738 1848.1,767.738 1828.45,767.738 1808.26,767.738 
  1787.54,767.738 1766.3,767.738 1744.58,767.738 1722.37,767.738 1699.69,767.738 1676.57,767.738 1653.02,767.738 1629.06,767.738 1604.69,767.738 1579.94,767.738 
  1554.82,767.738 1529.34,767.738 1503.52,767.738 1477.37,767.738 1450.91,767.738 1424.15,767.738 1397.1,767.738 1369.77,767.738 1342.16,767.738 1323.05,767.738 
  1307.3,767.738 1291.43,767.738 1275.47,767.738 1259.44,767.738 1243.36,767.738 1227.25,767.738 1211.13,767.738 1195.02,767.738 1178.94,767.738 1162.91,767.738 
  1146.95,767.738 1131.1,767.738 1115.35,767.738 1099.74,767.738 1084.29,767.738 1069.01,767.738 1053.92,767.738 1039.04,767.738 1024.4,767.738 1010,767.738 
  995.873,767.738 982.025,767.738 968.477,767.738 955.247,767.738 942.352,767.738 929.809,767.738 917.629,767.738 905.829,767.738 894.424,767.738 883.427,767.738 
  872.851,767.738 862.709,767.738 853.012,767.738 843.772,767.738 835,767.738 826.706,767.738 818.901,767.738 811.594,767.738 804.793,767.738 798.507,767.738 
  792.743,767.738 787.509,767.738 782.811,767.738 778.655,767.738 775.046,767.738 771.99,767.738 769.491,767.738 767.552,767.738 766.176,767.738 765.366,767.738 
  765.124,767.738 765.452,767.738 766.35,767.738 767.818,767.738 769.856,767.738 772.463,767.738 775.638,767.738 779.379,767.738 783.683,767.738 788.548,767.738 
  793.97,767.738 799.943,767.738 806.465,767.738 813.53,767.738 821.132,767.738 829.266,767.738 837.925,767.738 847.102,767.738 856.79,767.738 866.981,767.738 
  877.667,767.738 888.841,767.738 900.491,767.738 912.611,767.738 925.189,767.738 938.218,767.738 951.686,767.738 965.583,767.738 979.899,767.738 994.622,767.738 
  1009.74,767.738 1025.25,767.738 1041.13,767.738 1057.37,767.738 1073.97,767.738 1090.91,767.738 1108.17,767.738 1125.76,767.738 1143.65,767.738 1161.83,767.738 
  1180.3,767.738 1199.03,767.738 1218.04,767.738 1237.29,767.738 1256.78,767.738 1276.5,767.738 1296.44,767.738 1316.59,767.738 1335.33,767.738 1343.58,767.738 
  1351.89,767.738 
  "/>
<polyline clip-path="url(#clip702)" style="stroke:#e26f46; stroke-linecap:butt; stroke-linejoin:round; stroke-width:8; stroke-opacity:1; fill:none" points="
  1334.24,159.645 1369.02,191.088 1404.07,220.023 1439.32,246.58 1474.72,270.887 1510.21,293.081 1545.75,313.298 1581.27,331.672 1616.72,348.333 1652.05,363.409 
  1687.21,377.023 1722.15,389.293 1756.82,400.33 1791.17,410.239 1825.16,419.119 1858.74,427.061 1891.87,434.151 1924.51,440.469 1956.62,446.087 1988.17,451.074 
  2019.11,455.49 2049.4,459.391 2079.02,462.83 2107.93,465.855 2136.09,468.507 2163.47,470.826 2190.04,472.848 2215.78,474.605 2240.65,476.126 2264.63,477.438 
  2287.69,478.564 2309.81,479.526 2330.96,480.344 2351.12,481.036 2370.27,481.618 2388.39,482.103 2405.46,482.505 2421.46,482.835 2436.37,483.103 2450.19,483.319 
  2462.89,483.492 2474.46,483.627 2484.9,483.732 2494.18,483.812 2502.31,483.872 2509.27,483.917 2515.05,483.948 2519.65,483.97 2523.06,483.985 2525.29,483.993 
  2526.32,483.997 2526.16,483.997 2524.81,483.992 2522.27,483.981 2518.54,483.965 2513.63,483.941 2507.54,483.906 2500.27,483.858 2491.83,483.793 2482.24,483.707 
  2471.5,483.594 2459.62,483.45 2446.61,483.266 2432.49,483.037 2417.26,482.752 2400.96,482.404 2383.57,481.98 2365.14,481.469 2345.67,480.857 2325.18,480.13 
  2303.69,479.271 2281.22,478.261 2257.79,477.078 2233.43,475.702 2208.15,474.104 2181.98,472.258 2154.94,470.131 2127.06,467.687 2098.36,464.889 2068.86,461.691 
  2038.6,458.045 2007.59,453.898 1975.86,449.188 1943.44,443.85 1910.36,437.809 1876.63,430.979 1842.29,423.269 1807.35,414.577 1771.85,404.787 1735.81,393.771 
  1699.25,381.386 1662.19,367.472 1624.67,351.85 1586.68,334.318 1548.25,314.652 1509.41,292.601 1470.15,267.876 1430.49,240.159 1390.44,209.088 1350.01,174.252 
  1316.71,1359.62 1287.89,1334.54 1258.88,1311.12 1229.71,1289.29 1200.45,1269.01 1171.11,1250.19 1141.76,1232.76 1112.43,1216.66 1083.16,1201.82 1054,1188.15 
  1024.98,1175.58 996.151,1164.05 967.55,1153.49 939.211,1143.83 911.176,1135 883.478,1126.94 856.153,1119.6 829.237,1112.93 802.76,1106.86 776.757,1101.35 
  751.259,1096.36 726.295,1091.84 701.898,1087.76 678.091,1084.07 654.906,1080.74 632.368,1077.75 610.498,1075.05 589.325,1072.63 568.874,1070.46 549.174,1068.51 
  530.237,1066.78 512.09,1065.22 494.752,1063.84 478.242,1062.61 462.577,1061.52 447.774,1060.56 433.848,1059.7 420.815,1058.95 408.688,1058.29 397.481,1057.71 
  387.204,1057.21 377.87,1056.78 369.488,1056.41 362.066,1056.09 355.614,1055.82 350.138,1055.61 345.644,1055.43 342.136,1055.3 339.619,1055.21 338.096,1055.15 
  337.57,1055.13 338.039,1055.15 339.505,1055.2 341.967,1055.29 345.422,1055.43 349.868,1055.6 355.301,1055.81 361.715,1056.07 369.105,1056.39 377.464,1056.76 
  386.783,1057.19 397.056,1057.69 408.271,1058.27 420.42,1058.93 433.489,1059.68 447.467,1060.54 462.341,1061.51 478.099,1062.6 494.725,1063.84 512.204,1065.23 
  530.52,1066.8 549.655,1068.56 569.596,1070.53 590.323,1072.74 611.818,1075.21 634.06,1077.96 657.029,1081.04 680.713,1084.46 705.088,1088.27 730.132,1092.52 
  755.824,1097.23 782.143,1102.46 809.073,1108.26 836.592,1114.7 864.677,1121.83 893.306,1129.73 922.457,1138.47 952.11,1148.13 982.248,1158.81 1012.85,1170.62 
  1043.89,1183.66 1075.37,1198.06 1107.25,1213.95 1139.53,1231.5 1172.19,1250.85 1205.22,1272.21 1238.6,1295.77 1272.33,1321.75 1306.38,1350.42 1338.44,163.593 
  1360.84,183.948 1383.42,203.296 1406.13,221.65 1428.95,239.023 1451.85,255.442 1474.79,270.932 1497.74,285.518 1520.67,299.231 1543.55,312.103 1566.35,324.167 
  1589.03,335.457 1611.57,346.009 1633.93,355.859 1656.09,365.041 1678.02,373.591 1699.69,381.543 1721.06,388.93 1742.13,395.787 1762.86,402.145 1783.22,408.034 
  1803.19,413.482 1822.74,418.516 1841.85,423.167 1860.5,427.456 1878.66,431.409 1896.31,435.049 1913.44,438.397 1930.02,441.473 1946.03,444.296 1961.46,446.884 
  1976.28,449.254 1990.49,451.42 2004.06,453.398 2016.98,455.199 2029.23,456.838 2040.81,458.324 2051.69,459.669 2061.87,460.882 2071.33,461.972 2080.07,462.946 
  2088.07,463.811 2095.32,464.575 2101.82,465.243 2107.56,465.819 2112.54,466.308 2116.73,466.715 2120.15,467.041 2122.79,467.289 2124.63,467.462 2125.69,467.561 
  2125.96,467.586 2125.43,467.537 2124.12,467.414 2122.01,467.216 2119.11,466.942 2115.42,466.588 2110.94,466.153 2105.69,465.632 2099.65,465.021 2092.85,464.317 
  2085.27,463.512 2076.94,462.601 2067.86,461.576 2058.03,460.429 2047.46,459.152 2036.16,457.735 2024.15,456.167 2011.44,454.437 1998.03,452.53 1983.93,450.433 
  1969.16,448.13 1953.74,445.605 1937.66,442.839 1920.96,439.812 1903.64,436.502 1885.71,432.887 1867.19,428.939 1848.1,424.631 1828.45,419.933 1808.26,414.814 
  1787.54,409.237 1766.3,403.165 1744.58,396.557 1722.37,389.366 1699.69,381.545 1676.57,373.043 1653.02,363.802 1629.06,353.763 1604.69,342.858 1579.94,331.016 
  1554.82,318.158 1529.34,304.201 1503.52,289.055 1477.37,272.621 1450.91,254.793 1424.15,235.456 1397.1,214.481 1369.77,191.732 1342.16,167.056 1323.05,1365.41 
  1307.3,1351.23 1291.43,1337.52 1275.47,1324.3 1259.44,1311.55 1243.36,1299.3 1227.25,1287.52 1211.13,1276.23 1195.02,1265.41 1178.94,1255.06 1162.91,1245.18 
  1146.95,1235.75 1131.1,1226.76 1115.35,1218.21 1099.74,1210.09 1084.29,1202.37 1069.01,1195.05 1053.92,1188.11 1039.04,1181.55 1024.4,1175.34 1010,1169.48 
  995.873,1163.95 982.025,1158.73 968.477,1153.82 955.247,1149.2 942.352,1144.86 929.809,1140.79 917.629,1136.97 905.829,1133.39 894.424,1130.05 883.427,1126.93 
  872.851,1124.02 862.709,1121.31 853.012,1118.8 843.772,1116.47 835,1114.31 826.706,1112.33 818.901,1110.5 811.594,1108.83 804.793,1107.31 798.507,1105.93 
  792.743,1104.69 787.509,1103.58 782.811,1102.6 778.655,1101.74 775.046,1101.01 771.99,1100.39 769.491,1099.89 767.552,1099.51 766.176,1099.23 765.366,1099.07 
  765.124,1099.03 765.452,1099.09 766.35,1099.27 767.818,1099.56 769.856,1099.96 772.463,1100.48 775.638,1101.13 779.379,1101.89 783.683,1102.78 788.548,1103.8 
  793.97,1104.95 799.943,1106.24 806.465,1107.68 813.53,1109.27 821.132,1111.02 829.266,1112.93 837.925,1115.03 847.102,1117.3 856.79,1119.77 866.981,1122.44 
  877.667,1125.33 888.841,1128.45 900.491,1131.81 912.611,1135.43 925.189,1139.32 938.218,1143.5 951.686,1147.99 965.583,1152.79 979.899,1157.95 994.622,1163.47 
  1009.74,1169.37 1025.25,1175.69 1041.13,1182.45 1057.37,1189.68 1073.97,1197.39 1090.91,1205.63 1108.17,1214.43 1125.76,1223.82 1143.65,1233.84 1161.83,1244.53 
  1180.3,1255.92 1199.03,1268.07 1218.04,1281.01 1237.29,1294.8 1256.78,1309.49 1276.5,1325.13 1296.44,1341.79 1316.59,1359.52 1335.33,160.669 1343.58,168.364 
  1351.89,175.954 
  "/>
<polyline clip-path="url(#clip702)" style="stroke:#008000; stroke-linecap:butt; stroke-linejoin:round; stroke-width:8; stroke-opacity:1; fill:none" stroke-dasharray="4, 8" points="
  1334.24,767.738 1369.02,751.647 1404.07,735.443 1439.32,719.162 1474.72,702.841 1510.21,686.514 1545.75,670.214 1581.27,653.978 1616.72,637.838 1652.05,621.827 
  1687.21,605.975 1722.15,590.311 1756.82,574.863 1791.17,559.657 1825.16,544.715 1858.74,530.061 1891.87,515.714 1924.51,501.694 1956.62,488.016 1988.17,474.694 
  2019.11,461.744 2049.4,449.179 2079.02,437.005 2107.93,425.233 2136.09,413.871 2163.47,402.927 2190.04,392.403 2215.78,382.304 2240.65,372.635 2264.63,363.396 
  2287.69,354.59 2309.81,346.217 2330.96,338.278 2351.12,330.773 2370.27,323.7 2388.39,317.059 2405.46,310.848 2421.46,305.066 2436.37,299.711 2450.19,294.781 
  2462.89,290.274 2474.46,286.189 2484.9,282.524 2494.18,279.277 2502.31,276.447 2509.27,274.031 2515.05,272.03 2519.65,270.441 2523.06,269.263 2525.29,268.497 
  2526.32,268.141 2526.16,268.195 2524.81,268.66 2522.27,269.536 2518.54,270.822 2513.63,272.52 2507.54,274.631 2500.27,277.157 2491.83,280.098 2482.24,283.456 
  2471.5,287.234 2459.62,291.432 2446.61,296.054 2432.49,301.102 2417.26,306.576 2400.96,312.481 2383.57,318.818 2365.14,325.589 2345.67,332.797 2325.18,340.442 
  2303.69,348.527 2281.22,357.054 2257.79,366.023 2233.43,375.434 2208.15,385.288 2181.98,395.585 2154.94,406.324 2127.06,417.502 2098.36,429.117 2068.86,441.166 
  2038.6,453.647 2007.59,466.553 1975.86,479.879 1943.44,493.615 1910.36,507.757 1876.63,522.298 1842.29,537.226 1807.35,552.529 1771.85,568.196 1735.81,584.214 
  1699.25,600.569 1662.19,617.247 1624.67,634.232 1586.68,651.511 1548.25,669.067 1509.41,686.883 1470.15,704.945 1430.49,723.237 1390.44,741.74 1350.01,760.442 
  1316.71,775.851 1287.89,789.18 1258.88,802.591 1229.71,816.059 1200.45,829.556 1171.11,843.058 1141.76,856.54 1112.43,869.978 1083.16,883.346 1054,896.621 
  1024.98,909.78 996.151,922.801 967.55,935.662 939.211,948.345 911.176,960.829 883.478,973.097 856.153,985.134 829.237,996.922 802.76,1008.45 776.757,1019.7 
  751.259,1030.66 726.295,1041.32 701.898,1051.68 678.091,1061.71 654.906,1071.42 632.368,1080.8 610.498,1089.83 589.325,1098.53 568.874,1106.86 549.174,1114.85 
  530.237,1122.47 512.09,1129.73 494.752,1136.62 478.242,1143.15 462.577,1149.31 447.774,1155.09 433.848,1160.51 420.815,1165.55 408.688,1170.22 397.481,1174.52 
  387.204,1178.44 377.87,1181.99 369.488,1185.17 362.066,1187.98 355.614,1190.41 350.138,1192.47 345.644,1194.16 342.136,1195.47 339.619,1196.41 338.096,1196.98 
  337.57,1197.18 338.039,1197 339.505,1196.45 341.967,1195.53 345.422,1194.24 349.868,1192.57 355.301,1190.53 361.715,1188.11 369.105,1185.32 377.464,1182.15 
  386.783,1178.6 397.056,1174.68 408.271,1170.38 420.42,1165.7 433.489,1160.65 447.467,1155.21 462.341,1149.4 478.099,1143.21 494.725,1136.63 512.204,1129.68 
  530.52,1122.36 549.655,1114.65 569.596,1106.57 590.323,1098.12 611.818,1089.29 634.06,1080.1 657.029,1070.54 680.713,1060.61 705.088,1050.33 730.132,1039.69 
  755.824,1028.7 782.143,1017.37 809.073,1005.71 836.592,993.708 864.677,981.386 893.306,968.752 922.457,955.813 952.11,942.58 982.248,929.06 1012.85,915.265 
  1043.89,901.208 1075.37,886.896 1107.25,872.343 1139.53,857.561 1172.19,842.562 1205.22,827.355 1238.6,811.956 1272.33,796.376 1306.38,780.625 1338.44,765.795 
  1360.84,755.429 1383.42,744.988 1406.13,734.487 1428.95,723.947 1451.85,713.382 1474.79,702.809 1497.74,692.246 1520.67,681.711 1543.55,671.22 1566.35,660.791 
  1589.03,650.438 1611.57,640.18 1633.93,630.029 1656.09,620.001 1678.02,610.111 1699.69,600.372 1721.06,590.796 1742.13,581.395 1762.86,572.181 1783.22,563.165 
  1803.19,554.359 1822.74,545.773 1841.85,537.416 1860.5,529.295 1878.66,521.421 1896.31,513.799 1913.44,506.437 1930.02,499.341 1946.03,492.516 1961.46,485.968 
  1976.28,479.702 1990.49,473.721 2004.06,468.031 2016.98,462.634 2029.23,457.533 2040.81,452.733 2051.69,448.235 2061.87,444.041 2071.33,440.154 2080.07,436.576 
  2088.07,433.308 2095.32,430.353 2101.82,427.709 2107.56,425.38 2112.54,423.366 2116.73,421.669 2120.15,420.288 2122.79,419.225 2124.63,418.48 2125.69,418.053 
  2125.96,417.945 2125.43,418.157 2124.12,418.688 2122.01,419.539 2119.11,420.709 2115.42,422.2 2110.94,424.011 2105.69,426.141 2099.65,428.591 2092.85,431.361 
  2085.27,434.449 2076.94,437.855 2067.86,441.581 2058.03,445.623 2047.46,449.982 2036.16,454.656 2024.15,459.644 2011.44,464.944 1998.03,470.556 1983.93,476.478 
  1969.16,482.707 1953.74,489.241 1937.66,496.078 1920.96,503.215 1903.64,510.647 1885.71,518.373 1867.19,526.389 1848.1,534.69 1828.45,543.272 1808.26,552.131 
  1787.54,561.259 1766.3,570.653 1744.58,580.307 1722.37,590.214 1699.69,600.368 1676.57,610.762 1653.02,621.389 1629.06,632.239 1604.69,643.307 1579.94,654.584 
  1554.82,666.063 1529.34,677.734 1503.52,689.588 1477.37,701.618 1450.91,713.812 1424.15,726.163 1397.1,738.662 1369.77,751.301 1342.16,764.073 1323.05,772.913 
  1307.3,780.203 1291.43,787.543 1275.47,794.922 1259.44,802.331 1243.36,809.759 1227.25,817.196 1211.13,824.633 1195.02,832.058 1178.94,839.46 1162.91,846.83 
  1146.95,854.156 1131.1,861.429 1115.35,868.64 1099.74,875.777 1084.29,882.831 1069.01,889.794 1053.92,896.656 1039.04,903.408 1024.4,910.043 1010,916.552 
  995.873,922.926 982.025,929.16 968.477,935.246 955.247,941.176 942.352,946.942 929.809,952.539 917.629,957.961 905.829,963.202 894.424,968.257 883.427,973.12 
  872.851,977.787 862.709,982.252 853.012,986.513 843.772,990.565 835,994.404 826.706,998.026 818.901,1001.43 811.594,1004.61 804.793,1007.57 798.507,1010.29 
  792.743,1012.79 787.509,1015.06 782.811,1017.09 778.655,1018.88 775.046,1020.44 771.99,1021.75 769.491,1022.83 767.552,1023.66 766.176,1024.26 765.366,1024.6 
  765.124,1024.71 765.452,1024.57 766.35,1024.18 767.818,1023.55 769.856,1022.67 772.463,1021.55 775.638,1020.18 779.379,1018.57 783.683,1016.71 788.548,1014.61 
  793.97,1012.26 799.943,1009.67 806.465,1006.84 813.53,1003.77 821.132,1000.46 829.266,996.909 837.925,993.124 847.102,989.105 856.79,984.854 866.981,980.373 
  877.667,975.663 888.841,970.727 900.491,965.569 912.611,960.191 925.189,954.597 938.218,948.788 951.686,942.769 965.583,936.544 979.899,930.116 994.622,923.49 
  1009.74,916.669 1025.25,909.658 1041.13,902.462 1057.37,895.085 1073.97,887.533 1090.91,879.811 1108.17,871.923 1125.76,863.876 1143.65,855.675 1161.83,847.326 
  1180.3,838.834 1199.03,830.206 1218.04,821.447 1237.29,812.564 1256.78,803.561 1276.5,794.447 1296.44,785.226 1316.59,775.905 1335.33,767.236 1343.58,763.418 
  1351.89,759.572 
  "/>
<path clip-path="url(#clip700)" d="
M1423.66 477.116 L2284.85 477.116 L2284.85 166.076 L1423.66 166.076  Z
  " fill="#ffffff" fill-rule="evenodd" fill-opacity="1"/>
<polyline clip-path="url(#clip700)" style="stroke:#000000; stroke-linecap:butt; stroke-linejoin:round; stroke-width:4; stroke-opacity:1; fill:none" points="
  1423.66,477.116 2284.85,477.116 2284.85,166.076 1423.66,166.076 1423.66,477.116 
  "/>
<polyline clip-path="url(#clip700)" style="stroke:#009af9; stroke-linecap:butt; stroke-linejoin:round; stroke-width:6; stroke-opacity:1; fill:none" points="
  1446.29,243.836 1582.1,243.836 
  "/>
<path clip-path="url(#clip700)" d="M1638.1 219.617 L1638.1 226.457 Q1634.1 224.548 1630.56 223.61 Q1627.02 222.673 1623.72 222.673 Q1617.99 222.673 1614.87 224.895 Q1611.78 227.117 1611.78 231.214 Q1611.78 234.652 1613.83 236.423 Q1615.91 238.159 1621.67 239.235 L1625.91 240.103 Q1633.76 241.596 1637.47 245.381 Q1641.22 249.131 1641.22 255.45 Q1641.22 262.985 1636.15 266.874 Q1631.12 270.763 1621.36 270.763 Q1617.68 270.763 1613.51 269.929 Q1609.38 269.096 1604.94 267.464 L1604.94 260.242 Q1609.21 262.638 1613.31 263.853 Q1617.4 265.068 1621.36 265.068 Q1627.37 265.068 1630.63 262.707 Q1633.9 260.346 1633.9 255.971 Q1633.9 252.152 1631.54 249.999 Q1629.21 247.846 1623.86 246.77 L1619.59 245.936 Q1611.74 244.374 1608.24 241.041 Q1604.73 237.707 1604.73 231.77 Q1604.73 224.895 1609.56 220.937 Q1614.42 216.978 1622.92 216.978 Q1626.57 216.978 1630.35 217.638 Q1634.14 218.298 1638.1 219.617 Z" fill="#000000" fill-rule="evenodd" fill-opacity="1" /><path clip-path="url(#clip700)" d="M1651.88 230.867 L1658.27 230.867 L1658.27 269.756 L1651.88 269.756 L1651.88 230.867 M1651.88 215.728 L1658.27 215.728 L1658.27 223.818 L1651.88 223.818 L1651.88 215.728 Z" fill="#000000" fill-rule="evenodd" fill-opacity="1" /><path clip-path="url(#clip700)" d="M1701.92 238.332 Q1704.31 234.027 1707.65 231.978 Q1710.98 229.93 1715.49 229.93 Q1721.57 229.93 1724.87 234.2 Q1728.17 238.436 1728.17 246.284 L1728.17 269.756 L1721.74 269.756 L1721.74 246.492 Q1721.74 240.902 1719.76 238.193 Q1717.78 235.485 1713.72 235.485 Q1708.76 235.485 1705.88 238.784 Q1702.99 242.082 1702.99 247.777 L1702.99 269.756 L1696.57 269.756 L1696.57 246.492 Q1696.57 240.867 1694.59 238.193 Q1692.61 235.485 1688.48 235.485 Q1683.58 235.485 1680.7 238.818 Q1677.82 242.117 1677.82 247.777 L1677.82 269.756 L1671.4 269.756 L1671.4 230.867 L1677.82 230.867 L1677.82 236.909 Q1680.01 233.332 1683.06 231.631 Q1686.12 229.93 1690.32 229.93 Q1694.56 229.93 1697.51 232.082 Q1700.49 234.235 1701.92 238.332 Z" fill="#000000" fill-rule="evenodd" fill-opacity="1" /><path clip-path="url(#clip700)" d="M1747.09 263.922 L1747.09 284.547 L1740.67 284.547 L1740.67 230.867 L1747.09 230.867 L1747.09 236.77 Q1749.1 233.298 1752.16 231.631 Q1755.25 229.93 1759.52 229.93 Q1766.6 229.93 1771.01 235.555 Q1775.46 241.179 1775.46 250.346 Q1775.46 259.513 1771.01 265.138 Q1766.6 270.763 1759.52 270.763 Q1755.25 270.763 1752.16 269.096 Q1749.1 267.395 1747.09 263.922 M1768.83 250.346 Q1768.83 243.298 1765.91 239.304 Q1763.03 235.277 1757.96 235.277 Q1752.89 235.277 1749.97 239.304 Q1747.09 243.298 1747.09 250.346 Q1747.09 257.395 1749.97 261.422 Q1752.89 265.415 1757.96 265.415 Q1763.03 265.415 1765.91 261.422 Q1768.83 257.395 1768.83 250.346 Z" fill="#000000" fill-rule="evenodd" fill-opacity="1" /><path clip-path="url(#clip700)" d="M1786.05 215.728 L1792.44 215.728 L1792.44 269.756 L1786.05 269.756 L1786.05 215.728 Z" fill="#000000" fill-rule="evenodd" fill-opacity="1" /><path clip-path="url(#clip700)" d="M1839.07 248.714 L1839.07 251.839 L1809.69 251.839 Q1810.11 258.436 1813.65 261.909 Q1817.23 265.346 1823.58 265.346 Q1827.26 265.346 1830.7 264.443 Q1834.17 263.54 1837.58 261.735 L1837.58 267.777 Q1834.14 269.235 1830.53 269.999 Q1826.92 270.763 1823.2 270.763 Q1813.9 270.763 1808.44 265.346 Q1803.03 259.929 1803.03 250.693 Q1803.03 241.145 1808.17 235.555 Q1813.34 229.93 1822.09 229.93 Q1829.94 229.93 1834.49 234.999 Q1839.07 240.034 1839.07 248.714 M1832.68 246.839 Q1832.61 241.596 1829.73 238.471 Q1826.88 235.346 1822.16 235.346 Q1816.81 235.346 1813.58 238.367 Q1810.39 241.388 1809.9 246.874 L1832.68 246.839 Z" fill="#000000" fill-rule="evenodd" fill-opacity="1" /><path clip-path="url(#clip700)" d="M1849.83 217.916 L1879.62 217.916 L1879.62 223.818 L1856.85 223.818 L1856.85 239.096 L1877.4 239.096 L1877.4 244.999 L1856.85 244.999 L1856.85 269.756 L1849.83 269.756 L1849.83 217.916 Z" fill="#000000" fill-rule="evenodd" fill-opacity="1" /><path clip-path="url(#clip700)" d="M1890.74 217.916 L1901.19 217.916 L1914.42 253.193 L1927.71 217.916 L1938.17 217.916 L1938.17 269.756 L1931.33 269.756 L1931.33 224.235 L1917.96 259.79 L1910.91 259.79 L1897.54 224.235 L1897.54 269.756 L1890.74 269.756 L1890.74 217.916 Z" fill="#000000" fill-rule="evenodd" fill-opacity="1" /><path clip-path="url(#clip700)" d="M1951.29 217.916 L1958.34 217.916 L1958.34 249.409 Q1958.34 257.742 1961.36 261.422 Q1964.38 265.068 1971.15 265.068 Q1977.89 265.068 1980.91 261.422 Q1983.93 257.742 1983.93 249.409 L1983.93 217.916 L1990.98 217.916 L1990.98 250.277 Q1990.98 260.415 1985.94 265.589 Q1980.94 270.763 1971.15 270.763 Q1961.33 270.763 1956.29 265.589 Q1951.29 260.415 1951.29 250.277 L1951.29 217.916 Z" fill="#000000" fill-rule="evenodd" fill-opacity="1" /><polyline clip-path="url(#clip700)" style="stroke:#e26f46; stroke-linecap:butt; stroke-linejoin:round; stroke-width:6; stroke-opacity:1; fill:none" points="
  1446.29,321.596 1582.1,321.596 
  "/>
<path clip-path="url(#clip700)" d="M1627.51 314.599 Q1626.43 313.974 1625.15 313.696 Q1623.9 313.384 1622.37 313.384 Q1616.95 313.384 1614.04 316.926 Q1611.15 320.433 1611.15 327.03 L1611.15 347.516 L1604.73 347.516 L1604.73 308.627 L1611.15 308.627 L1611.15 314.669 Q1613.17 311.127 1616.4 309.426 Q1619.63 307.69 1624.24 307.69 Q1624.9 307.69 1625.7 307.794 Q1626.5 307.863 1627.47 308.037 L1627.51 314.599 Z" fill="#000000" fill-rule="evenodd" fill-opacity="1" /><path clip-path="url(#clip700)" d="M1665.91 326.474 L1665.91 329.599 L1636.54 329.599 Q1636.95 336.196 1640.49 339.669 Q1644.07 343.106 1650.42 343.106 Q1654.1 343.106 1657.54 342.203 Q1661.01 341.3 1664.42 339.495 L1664.42 345.537 Q1660.98 346.995 1657.37 347.759 Q1653.76 348.523 1650.04 348.523 Q1640.74 348.523 1635.29 343.106 Q1629.87 337.689 1629.87 328.453 Q1629.87 318.905 1635.01 313.315 Q1640.18 307.69 1648.93 307.69 Q1656.78 307.69 1661.33 312.759 Q1665.91 317.794 1665.91 326.474 M1659.52 324.599 Q1659.45 319.356 1656.57 316.231 Q1653.72 313.106 1649 313.106 Q1643.65 313.106 1640.42 316.127 Q1637.23 319.148 1636.74 324.634 L1659.52 324.599 Z" fill="#000000" fill-rule="evenodd" fill-opacity="1" /><path clip-path="url(#clip700)" d="M1696.08 293.488 L1696.08 298.801 L1689.97 298.801 Q1686.53 298.801 1685.18 300.19 Q1683.86 301.578 1683.86 305.19 L1683.86 308.627 L1694.38 308.627 L1694.38 313.592 L1683.86 313.592 L1683.86 347.516 L1677.44 347.516 L1677.44 313.592 L1671.33 313.592 L1671.33 308.627 L1677.44 308.627 L1677.44 305.919 Q1677.44 299.426 1680.46 296.474 Q1683.48 293.488 1690.04 293.488 L1696.08 293.488 Z" fill="#000000" fill-rule="evenodd" fill-opacity="1" /><path clip-path="url(#clip700)" d="M1734.69 326.474 L1734.69 329.599 L1705.32 329.599 Q1705.74 336.196 1709.28 339.669 Q1712.85 343.106 1719.21 343.106 Q1722.89 343.106 1726.33 342.203 Q1729.8 341.3 1733.2 339.495 L1733.2 345.537 Q1729.76 346.995 1726.15 347.759 Q1722.54 348.523 1718.83 348.523 Q1709.52 348.523 1704.07 343.106 Q1698.65 337.689 1698.65 328.453 Q1698.65 318.905 1703.79 313.315 Q1708.97 307.69 1717.72 307.69 Q1725.56 307.69 1730.11 312.759 Q1734.69 317.794 1734.69 326.474 M1728.31 324.599 Q1728.24 319.356 1725.35 316.231 Q1722.51 313.106 1717.78 313.106 Q1712.44 313.106 1709.21 316.127 Q1706.01 319.148 1705.53 324.634 L1728.31 324.599 Z" fill="#000000" fill-rule="evenodd" fill-opacity="1" /><path clip-path="url(#clip700)" d="M1767.72 314.599 Q1766.64 313.974 1765.35 313.696 Q1764.1 313.384 1762.58 313.384 Q1757.16 313.384 1754.24 316.926 Q1751.36 320.433 1751.36 327.03 L1751.36 347.516 L1744.94 347.516 L1744.94 308.627 L1751.36 308.627 L1751.36 314.669 Q1753.37 311.127 1756.6 309.426 Q1759.83 307.69 1764.45 307.69 Q1765.11 307.69 1765.91 307.794 Q1766.71 307.863 1767.68 308.037 L1767.72 314.599 Z" fill="#000000" fill-rule="evenodd" fill-opacity="1" /><path clip-path="url(#clip700)" d="M1806.12 326.474 L1806.12 329.599 L1776.74 329.599 Q1777.16 336.196 1780.7 339.669 Q1784.28 343.106 1790.63 343.106 Q1794.31 343.106 1797.75 342.203 Q1801.22 341.3 1804.62 339.495 L1804.62 345.537 Q1801.19 346.995 1797.58 347.759 Q1793.96 348.523 1790.25 348.523 Q1780.94 348.523 1775.49 343.106 Q1770.08 337.689 1770.08 328.453 Q1770.08 318.905 1775.22 313.315 Q1780.39 307.69 1789.14 307.69 Q1796.99 307.69 1801.53 312.759 Q1806.12 317.794 1806.12 326.474 M1799.73 324.599 Q1799.66 319.356 1796.78 316.231 Q1793.93 313.106 1789.21 313.106 Q1783.86 313.106 1780.63 316.127 Q1777.44 319.148 1776.95 324.634 L1799.73 324.599 Z" fill="#000000" fill-rule="evenodd" fill-opacity="1" /><path clip-path="url(#clip700)" d="M1848.93 324.044 L1848.93 347.516 L1842.54 347.516 L1842.54 324.252 Q1842.54 318.731 1840.39 315.988 Q1838.24 313.245 1833.93 313.245 Q1828.76 313.245 1825.77 316.544 Q1822.78 319.842 1822.78 325.537 L1822.78 347.516 L1816.36 347.516 L1816.36 308.627 L1822.78 308.627 L1822.78 314.669 Q1825.08 311.162 1828.17 309.426 Q1831.29 307.69 1835.35 307.69 Q1842.05 307.69 1845.49 311.856 Q1848.93 315.988 1848.93 324.044 Z" fill="#000000" fill-rule="evenodd" fill-opacity="1" /><path clip-path="url(#clip700)" d="M1889.66 310.12 L1889.66 316.092 Q1886.95 314.599 1884.21 313.87 Q1881.5 313.106 1878.72 313.106 Q1872.51 313.106 1869.07 317.064 Q1865.63 320.988 1865.63 328.106 Q1865.63 335.224 1869.07 339.182 Q1872.51 343.106 1878.72 343.106 Q1881.5 343.106 1884.21 342.377 Q1886.95 341.613 1889.66 340.12 L1889.66 346.023 Q1886.99 347.273 1884.1 347.898 Q1881.26 348.523 1878.03 348.523 Q1869.24 348.523 1864.07 343.002 Q1858.9 337.481 1858.9 328.106 Q1858.9 318.592 1864.1 313.141 Q1869.35 307.69 1878.44 307.69 Q1881.4 307.69 1884.21 308.315 Q1887.02 308.905 1889.66 310.12 Z" fill="#000000" fill-rule="evenodd" fill-opacity="1" /><path clip-path="url(#clip700)" d="M1934.03 326.474 L1934.03 329.599 L1904.66 329.599 Q1905.08 336.196 1908.62 339.669 Q1912.19 343.106 1918.55 343.106 Q1922.23 343.106 1925.67 342.203 Q1929.14 341.3 1932.54 339.495 L1932.54 345.537 Q1929.1 346.995 1925.49 347.759 Q1921.88 348.523 1918.17 348.523 Q1908.86 348.523 1903.41 343.106 Q1897.99 337.689 1897.99 328.453 Q1897.99 318.905 1903.13 313.315 Q1908.3 307.69 1917.05 307.69 Q1924.9 307.69 1929.45 312.759 Q1934.03 317.794 1934.03 326.474 M1927.64 324.599 Q1927.58 319.356 1924.69 316.231 Q1921.85 313.106 1917.12 313.106 Q1911.78 313.106 1908.55 316.127 Q1905.35 319.148 1904.87 324.634 L1927.64 324.599 Z" fill="#000000" fill-rule="evenodd" fill-opacity="1" /><polyline clip-path="url(#clip700)" style="stroke:#008000; stroke-linecap:butt; stroke-linejoin:round; stroke-width:6; stroke-opacity:1; fill:none" stroke-dasharray="3, 6" points="
  1446.29,399.356 1582.1,399.356 
  "/>
<path clip-path="url(#clip700)" d="M1604.73 373.436 L1614.17 373.436 L1637.16 416.804 L1637.16 373.436 L1643.97 373.436 L1643.97 425.276 L1634.52 425.276 L1611.54 381.908 L1611.54 425.276 L1604.73 425.276 L1604.73 373.436 Z" fill="#000000" fill-rule="evenodd" fill-opacity="1" /><path clip-path="url(#clip700)" d="M1690.91 404.234 L1690.91 407.359 L1661.54 407.359 Q1661.95 413.956 1665.49 417.429 Q1669.07 420.866 1675.42 420.866 Q1679.1 420.866 1682.54 419.963 Q1686.01 419.06 1689.42 417.255 L1689.42 423.297 Q1685.98 424.755 1682.37 425.519 Q1678.76 426.283 1675.04 426.283 Q1665.74 426.283 1660.29 420.866 Q1654.87 415.449 1654.87 406.213 Q1654.87 396.665 1660.01 391.075 Q1665.18 385.45 1673.93 385.45 Q1681.78 385.45 1686.33 390.519 Q1690.91 395.554 1690.91 404.234 M1684.52 402.359 Q1684.45 397.116 1681.57 393.991 Q1678.72 390.866 1674 390.866 Q1668.65 390.866 1665.42 393.887 Q1662.23 396.908 1661.74 402.394 L1684.52 402.359 Z" fill="#000000" fill-rule="evenodd" fill-opacity="1" /><path clip-path="url(#clip700)" d="M1700.74 409.929 L1700.74 386.387 L1707.13 386.387 L1707.13 409.686 Q1707.13 415.206 1709.28 417.984 Q1711.43 420.727 1715.74 420.727 Q1720.91 420.727 1723.9 417.429 Q1726.92 414.13 1726.92 408.436 L1726.92 386.387 L1733.31 386.387 L1733.31 425.276 L1726.92 425.276 L1726.92 419.304 Q1724.59 422.845 1721.5 424.581 Q1718.44 426.283 1714.38 426.283 Q1707.68 426.283 1704.21 422.116 Q1700.74 417.949 1700.74 409.929 M1716.81 385.45 L1716.81 385.45 Z" fill="#000000" fill-rule="evenodd" fill-opacity="1" /><path clip-path="url(#clip700)" d="M1769 392.359 Q1767.92 391.734 1766.64 391.456 Q1765.39 391.144 1763.86 391.144 Q1758.44 391.144 1755.53 394.686 Q1752.65 398.193 1752.65 404.79 L1752.65 425.276 L1746.22 425.276 L1746.22 386.387 L1752.65 386.387 L1752.65 392.429 Q1754.66 388.887 1757.89 387.186 Q1761.12 385.45 1765.74 385.45 Q1766.4 385.45 1767.19 385.554 Q1767.99 385.623 1768.97 385.797 L1769 392.359 Z" fill="#000000" fill-rule="evenodd" fill-opacity="1" /><path clip-path="url(#clip700)" d="M1793.37 405.727 Q1785.63 405.727 1782.65 407.498 Q1779.66 409.269 1779.66 413.54 Q1779.66 416.942 1781.88 418.956 Q1784.14 420.935 1787.99 420.935 Q1793.31 420.935 1796.5 417.185 Q1799.73 413.401 1799.73 407.151 L1799.73 405.727 L1793.37 405.727 M1806.12 403.088 L1806.12 425.276 L1799.73 425.276 L1799.73 419.373 Q1797.54 422.915 1794.28 424.616 Q1791.01 426.283 1786.29 426.283 Q1780.32 426.283 1776.78 422.949 Q1773.27 419.581 1773.27 413.956 Q1773.27 407.394 1777.65 404.061 Q1782.06 400.727 1790.77 400.727 L1799.73 400.727 L1799.73 400.102 Q1799.73 395.693 1796.81 393.297 Q1793.93 390.866 1788.69 390.866 Q1785.35 390.866 1782.19 391.665 Q1779.03 392.463 1776.12 394.061 L1776.12 388.158 Q1779.62 386.804 1782.92 386.144 Q1786.22 385.45 1789.35 385.45 Q1797.78 385.45 1801.95 389.825 Q1806.12 394.199 1806.12 403.088 Z" fill="#000000" fill-rule="evenodd" fill-opacity="1" /><path clip-path="url(#clip700)" d="M1819.28 371.248 L1825.67 371.248 L1825.67 425.276 L1819.28 425.276 L1819.28 371.248 Z" fill="#000000" fill-rule="evenodd" fill-opacity="1" /><path clip-path="url(#clip700)" d="M1839.31 373.436 L1869.1 373.436 L1869.1 379.338 L1846.33 379.338 L1846.33 394.616 L1866.88 394.616 L1866.88 400.519 L1846.33 400.519 L1846.33 425.276 L1839.31 425.276 L1839.31 373.436 Z" fill="#000000" fill-rule="evenodd" fill-opacity="1" /><path clip-path="url(#clip700)" d="M1880.21 373.436 L1890.67 373.436 L1903.89 408.713 L1917.19 373.436 L1927.64 373.436 L1927.64 425.276 L1920.8 425.276 L1920.8 379.755 L1907.44 415.31 L1900.39 415.31 L1887.02 379.755 L1887.02 425.276 L1880.21 425.276 L1880.21 373.436 Z" fill="#000000" fill-rule="evenodd" fill-opacity="1" /><path clip-path="url(#clip700)" d="M1940.77 373.436 L1947.82 373.436 L1947.82 404.929 Q1947.82 413.262 1950.84 416.942 Q1953.86 420.588 1960.63 420.588 Q1967.37 420.588 1970.39 416.942 Q1973.41 413.262 1973.41 404.929 L1973.41 373.436 L1980.46 373.436 L1980.46 405.797 Q1980.46 415.935 1975.42 421.109 Q1970.42 426.283 1960.63 426.283 Q1950.8 426.283 1945.77 421.109 Q1940.77 415.935 1940.77 405.797 L1940.77 373.436 Z" fill="#000000" fill-rule="evenodd" fill-opacity="1" /><path clip-path="url(#clip700)" d="M2031.29 371.318 Q2026.64 379.304 2024.38 387.116 Q2022.12 394.929 2022.12 402.949 Q2022.12 410.97 2024.38 418.852 Q2026.67 426.699 2031.29 434.651 L2025.73 434.651 Q2020.53 426.491 2017.92 418.609 Q2015.35 410.727 2015.35 402.949 Q2015.35 395.206 2017.92 387.359 Q2020.49 379.512 2025.73 371.318 L2031.29 371.318 Z" fill="#000000" fill-rule="evenodd" fill-opacity="1" /><path clip-path="url(#clip700)" d="M2050.63 419.373 L2075.11 419.373 L2075.11 425.276 L2042.19 425.276 L2042.19 419.373 Q2046.19 415.241 2053.06 408.297 Q2059.97 401.318 2061.74 399.304 Q2065.11 395.519 2066.43 392.915 Q2067.78 390.276 2067.78 387.741 Q2067.78 383.609 2064.87 381.005 Q2061.98 378.401 2057.33 378.401 Q2054.03 378.401 2050.35 379.547 Q2046.71 380.693 2042.54 383.019 L2042.54 375.936 Q2046.78 374.234 2050.46 373.366 Q2054.14 372.498 2057.19 372.498 Q2065.25 372.498 2070.04 376.526 Q2074.83 380.554 2074.83 387.29 Q2074.83 390.484 2073.62 393.366 Q2072.44 396.213 2069.28 400.102 Q2068.41 401.109 2063.76 405.936 Q2059.1 410.727 2050.63 419.373 Z" fill="#000000" fill-rule="evenodd" fill-opacity="1" /><path clip-path="url(#clip700)" d="M2089.9 373.436 L2117.44 373.436 L2117.44 379.338 L2096.32 379.338 L2096.32 392.047 Q2097.85 391.526 2099.38 391.283 Q2100.91 391.005 2102.44 391.005 Q2111.12 391.005 2116.19 395.762 Q2121.25 400.519 2121.25 408.644 Q2121.25 417.012 2116.05 421.665 Q2110.84 426.283 2101.36 426.283 Q2098.1 426.283 2094.69 425.727 Q2091.32 425.172 2087.71 424.06 L2087.71 417.012 Q2090.84 418.713 2094.17 419.547 Q2097.5 420.38 2101.22 420.38 Q2107.23 420.38 2110.73 417.22 Q2114.24 414.06 2114.24 408.644 Q2114.24 403.227 2110.73 400.068 Q2107.23 396.908 2101.22 396.908 Q2098.41 396.908 2095.6 397.533 Q2092.82 398.158 2089.9 399.477 L2089.9 373.436 Z" fill="#000000" fill-rule="evenodd" fill-opacity="1" /><path clip-path="url(#clip700)" d="M2150.07 378.054 Q2144.66 378.054 2141.91 383.401 Q2139.21 388.713 2139.21 399.408 Q2139.21 410.067 2141.91 415.415 Q2144.66 420.727 2150.07 420.727 Q2155.53 420.727 2158.23 415.415 Q2160.98 410.067 2160.98 399.408 Q2160.98 388.713 2158.23 383.401 Q2155.53 378.054 2150.07 378.054 M2150.07 372.498 Q2158.79 372.498 2163.37 379.408 Q2167.99 386.283 2167.99 399.408 Q2167.99 412.498 2163.37 419.408 Q2158.79 426.283 2150.07 426.283 Q2141.36 426.283 2136.74 419.408 Q2132.16 412.498 2132.16 399.408 Q2132.16 386.283 2136.74 379.408 Q2141.36 372.498 2150.07 372.498 Z" fill="#000000" fill-rule="evenodd" fill-opacity="1" /><path clip-path="url(#clip700)" d="M2195.32 378.054 Q2189.9 378.054 2187.16 383.401 Q2184.45 388.713 2184.45 399.408 Q2184.45 410.067 2187.16 415.415 Q2189.9 420.727 2195.32 420.727 Q2200.77 420.727 2203.48 415.415 Q2206.22 410.067 2206.22 399.408 Q2206.22 388.713 2203.48 383.401 Q2200.77 378.054 2195.32 378.054 M2195.32 372.498 Q2204.03 372.498 2208.62 379.408 Q2213.23 386.283 2213.23 399.408 Q2213.23 412.498 2208.62 419.408 Q2204.03 426.283 2195.32 426.283 Q2186.6 426.283 2181.98 419.408 Q2177.4 412.498 2177.4 399.408 Q2177.4 386.283 2181.98 379.408 Q2186.6 372.498 2195.32 372.498 Z" fill="#000000" fill-rule="evenodd" fill-opacity="1" /><path clip-path="url(#clip700)" d="M2223.65 371.318 L2229.21 371.318 Q2234.41 379.512 2236.98 387.359 Q2239.59 395.206 2239.59 402.949 Q2239.59 410.727 2236.98 418.609 Q2234.41 426.491 2229.21 434.651 L2223.65 434.651 Q2228.27 426.699 2230.53 418.852 Q2232.82 410.97 2232.82 402.949 Q2232.82 394.929 2230.53 387.116 Q2228.27 379.304 2223.65 371.318 Z" fill="#000000" fill-rule="evenodd" fill-opacity="1" /></svg>
