<?xml version="1.0" encoding="utf-8"?>
<svg xmlns="http://www.w3.org/2000/svg" xmlns:xlink="http://www.w3.org/1999/xlink" width="600" height="400" viewBox="0 0 2400 1600">
<defs>
  <clipPath id="clip530">
    <rect x="0" y="0" width="2400" height="1600"/>
  </clipPath>
</defs>
<path clip-path="url(#clip530)" d="
M0 1600 L2400 1600 L2400 0 L0 0  Z
  " fill="#ffffff" fill-rule="evenodd" fill-opacity="1"/>
<defs>
  <clipPath id="clip531">
    <rect x="480" y="0" width="1681" height="1600"/>
  </clipPath>
</defs>
<path clip-path="url(#clip530)" d="
M149.191 1423.18 L2352.76 1423.18 L2352.76 47.2441 L149.191 47.2441  Z
  " fill="#ffffff" fill-rule="evenodd" fill-opacity="1"/>
<defs>
  <clipPath id="clip532">
    <rect x="149" y="47" width="2205" height="1377"/>
  </clipPath>
</defs>
<polyline clip-path="url(#clip532)" style="stroke:#000000; stroke-linecap:butt; stroke-linejoin:round; stroke-width:2; stroke-opacity:0.1; fill:none" points="
  211.556,1423.18 211.556,47.2441 
  "/>
<polyline clip-path="url(#clip532)" style="stroke:#000000; stroke-linecap:butt; stroke-linejoin:round; stroke-width:2; stroke-opacity:0.1; fill:none" points="
  731.265,1423.18 731.265,47.2441 
  "/>
<polyline clip-path="url(#clip532)" style="stroke:#000000; stroke-linecap:butt; stroke-linejoin:round; stroke-width:2; stroke-opacity:0.1; fill:none" points="
  1250.97,1423.18 1250.97,47.2441 
  "/>
<polyline clip-path="url(#clip532)" style="stroke:#000000; stroke-linecap:butt; stroke-linejoin:round; stroke-width:2; stroke-opacity:0.1; fill:none" points="
  1770.68,1423.18 1770.68,47.2441 
  "/>
<polyline clip-path="url(#clip532)" style="stroke:#000000; stroke-linecap:butt; stroke-linejoin:round; stroke-width:2; stroke-opacity:0.1; fill:none" points="
  2290.39,1423.18 2290.39,47.2441 
  "/>
<polyline clip-path="url(#clip530)" style="stroke:#000000; stroke-linecap:butt; stroke-linejoin:round; stroke-width:4; stroke-opacity:1; fill:none" points="
  149.191,1423.18 2352.76,1423.18 
  "/>
<polyline clip-path="url(#clip530)" style="stroke:#000000; stroke-linecap:butt; stroke-linejoin:round; stroke-width:4; stroke-opacity:1; fill:none" points="
  211.556,1423.18 211.556,1406.67 
  "/>
<polyline clip-path="url(#clip530)" style="stroke:#000000; stroke-linecap:butt; stroke-linejoin:round; stroke-width:4; stroke-opacity:1; fill:none" points="
  731.265,1423.18 731.265,1406.67 
  "/>
<polyline clip-path="url(#clip530)" style="stroke:#000000; stroke-linecap:butt; stroke-linejoin:round; stroke-width:4; stroke-opacity:1; fill:none" points="
  1250.97,1423.18 1250.97,1406.67 
  "/>
<polyline clip-path="url(#clip530)" style="stroke:#000000; stroke-linecap:butt; stroke-linejoin:round; stroke-width:4; stroke-opacity:1; fill:none" points="
  1770.68,1423.18 1770.68,1406.67 
  "/>
<polyline clip-path="url(#clip530)" style="stroke:#000000; stroke-linecap:butt; stroke-linejoin:round; stroke-width:4; stroke-opacity:1; fill:none" points="
  2290.39,1423.18 2290.39,1406.67 
  "/>
<path clip-path="url(#clip530)" d="M211.556 1452.37 Q207.945 1452.37 206.116 1455.94 Q204.311 1459.48 204.311 1466.61 Q204.311 1473.71 206.116 1477.28 Q207.945 1480.82 211.556 1480.82 Q215.19 1480.82 216.996 1477.28 Q218.824 1473.71 218.824 1466.61 Q218.824 1459.48 216.996 1455.94 Q215.19 1452.37 211.556 1452.37 M211.556 1448.67 Q217.366 1448.67 220.422 1453.27 Q223.5 1457.86 223.5 1466.61 Q223.5 1475.33 220.422 1479.94 Q217.366 1484.52 211.556 1484.52 Q205.746 1484.52 202.667 1479.94 Q199.612 1475.33 199.612 1466.61 Q199.612 1457.86 202.667 1453.27 Q205.746 1448.67 211.556 1448.67 Z" fill="#000000" fill-rule="evenodd" fill-opacity="1" /><path clip-path="url(#clip530)" d="M721.647 1479.92 L729.285 1479.92 L729.285 1453.55 L720.975 1455.22 L720.975 1450.96 L729.239 1449.29 L733.915 1449.29 L733.915 1479.92 L741.554 1479.92 L741.554 1483.85 L721.647 1483.85 L721.647 1479.92 Z" fill="#000000" fill-rule="evenodd" fill-opacity="1" /><path clip-path="url(#clip530)" d="M1245.63 1479.92 L1261.95 1479.92 L1261.95 1483.85 L1240 1483.85 L1240 1479.92 Q1242.66 1477.16 1247.25 1472.53 Q1251.85 1467.88 1253.03 1466.54 Q1255.28 1464.01 1256.16 1462.28 Q1257.06 1460.52 1257.06 1458.83 Q1257.06 1456.07 1255.12 1454.34 Q1253.2 1452.6 1250.09 1452.6 Q1247.89 1452.6 1245.44 1453.37 Q1243.01 1454.13 1240.23 1455.68 L1240.23 1450.96 Q1243.06 1449.82 1245.51 1449.25 Q1247.96 1448.67 1250 1448.67 Q1255.37 1448.67 1258.57 1451.35 Q1261.76 1454.04 1261.76 1458.53 Q1261.76 1460.66 1260.95 1462.58 Q1260.16 1464.48 1258.06 1467.07 Q1257.48 1467.74 1254.38 1470.96 Q1251.27 1474.15 1245.63 1479.92 Z" fill="#000000" fill-rule="evenodd" fill-opacity="1" /><path clip-path="url(#clip530)" d="M1774.93 1465.22 Q1778.29 1465.94 1780.16 1468.2 Q1782.06 1470.47 1782.06 1473.81 Q1782.06 1478.92 1778.54 1481.72 Q1775.02 1484.52 1768.54 1484.52 Q1766.37 1484.52 1764.05 1484.08 Q1761.76 1483.67 1759.3 1482.81 L1759.3 1478.3 Q1761.25 1479.43 1763.56 1480.01 Q1765.88 1480.59 1768.4 1480.59 Q1772.8 1480.59 1775.09 1478.85 Q1777.41 1477.12 1777.41 1473.81 Q1777.41 1470.75 1775.25 1469.04 Q1773.12 1467.3 1769.3 1467.3 L1765.28 1467.3 L1765.28 1463.46 L1769.49 1463.46 Q1772.94 1463.46 1774.77 1462.09 Q1776.6 1460.7 1776.6 1458.11 Q1776.6 1455.45 1774.7 1454.04 Q1772.82 1452.6 1769.3 1452.6 Q1767.38 1452.6 1765.18 1453.02 Q1762.99 1453.44 1760.35 1454.31 L1760.35 1450.15 Q1763.01 1449.41 1765.32 1449.04 Q1767.66 1448.67 1769.72 1448.67 Q1775.05 1448.67 1778.15 1451.1 Q1781.25 1453.5 1781.25 1457.63 Q1781.25 1460.5 1779.61 1462.49 Q1777.96 1464.45 1774.93 1465.22 Z" fill="#000000" fill-rule="evenodd" fill-opacity="1" /><path clip-path="url(#clip530)" d="M2293.4 1453.37 L2281.59 1471.81 L2293.4 1471.81 L2293.4 1453.37 M2292.17 1449.29 L2298.05 1449.29 L2298.05 1471.81 L2302.98 1471.81 L2302.98 1475.7 L2298.05 1475.7 L2298.05 1483.85 L2293.4 1483.85 L2293.4 1475.7 L2277.8 1475.7 L2277.8 1471.19 L2292.17 1449.29 Z" fill="#000000" fill-rule="evenodd" fill-opacity="1" /><path clip-path="url(#clip530)" d="M1199.28 1522.27 L1199.28 1532.4 L1211.35 1532.4 L1211.35 1536.95 L1199.28 1536.95 L1199.28 1556.3 Q1199.28 1560.66 1200.46 1561.9 Q1201.67 1563.14 1205.33 1563.14 L1211.35 1563.14 L1211.35 1568.04 L1205.33 1568.04 Q1198.55 1568.04 1195.97 1565.53 Q1193.4 1562.98 1193.4 1556.3 L1193.4 1536.95 L1189.1 1536.95 L1189.1 1532.4 L1193.4 1532.4 L1193.4 1522.27 L1199.28 1522.27 Z" fill="#000000" fill-rule="evenodd" fill-opacity="1" /><path clip-path="url(#clip530)" d="M1239.23 1518.52 L1252.72 1518.52 L1252.72 1523.07 L1245.09 1523.07 L1245.09 1572.09 L1252.72 1572.09 L1252.72 1576.64 L1239.23 1576.64 L1239.23 1518.52 Z" fill="#000000" fill-rule="evenodd" fill-opacity="1" /><path clip-path="url(#clip530)" d="M1287.93 1533.45 L1287.93 1538.98 Q1285.44 1537.71 1282.77 1537.07 Q1280.1 1536.44 1277.23 1536.44 Q1272.87 1536.44 1270.68 1537.77 Q1268.51 1539.11 1268.51 1541.79 Q1268.51 1543.82 1270.07 1545 Q1271.63 1546.15 1276.34 1547.2 L1278.35 1547.64 Q1284.58 1548.98 1287.19 1551.43 Q1289.84 1553.85 1289.84 1558.21 Q1289.84 1563.17 1285.89 1566.07 Q1281.97 1568.97 1275.1 1568.97 Q1272.23 1568.97 1269.12 1568.39 Q1266.03 1567.85 1262.59 1566.74 L1262.59 1560.69 Q1265.84 1562.38 1268.99 1563.24 Q1272.14 1564.07 1275.23 1564.07 Q1279.36 1564.07 1281.59 1562.66 Q1283.82 1561.23 1283.82 1558.65 Q1283.82 1556.27 1282.2 1554.99 Q1280.61 1553.72 1275.16 1552.54 L1273.13 1552.07 Q1267.68 1550.92 1265.26 1548.56 Q1262.85 1546.18 1262.85 1542.04 Q1262.85 1537.01 1266.41 1534.27 Q1269.98 1531.54 1276.53 1531.54 Q1279.78 1531.54 1282.64 1532.01 Q1285.51 1532.49 1287.93 1533.45 Z" fill="#000000" fill-rule="evenodd" fill-opacity="1" /><path clip-path="url(#clip530)" d="M1312.85 1518.52 L1312.85 1576.64 L1299.35 1576.64 L1299.35 1572.09 L1306.96 1572.09 L1306.96 1523.07 L1299.35 1523.07 L1299.35 1518.52 L1312.85 1518.52 Z" fill="#000000" fill-rule="evenodd" fill-opacity="1" /><polyline clip-path="url(#clip532)" style="stroke:#000000; stroke-linecap:butt; stroke-linejoin:round; stroke-width:2; stroke-opacity:0.1; fill:none" points="
  149.191,1334.39 2352.76,1334.39 
  "/>
<polyline clip-path="url(#clip532)" style="stroke:#000000; stroke-linecap:butt; stroke-linejoin:round; stroke-width:2; stroke-opacity:0.1; fill:none" points="
  149.191,1060.05 2352.76,1060.05 
  "/>
<polyline clip-path="url(#clip532)" style="stroke:#000000; stroke-linecap:butt; stroke-linejoin:round; stroke-width:2; stroke-opacity:0.1; fill:none" points="
  149.191,785.706 2352.76,785.706 
  "/>
<polyline clip-path="url(#clip532)" style="stroke:#000000; stroke-linecap:butt; stroke-linejoin:round; stroke-width:2; stroke-opacity:0.1; fill:none" points="
  149.191,511.362 2352.76,511.362 
  "/>
<polyline clip-path="url(#clip532)" style="stroke:#000000; stroke-linecap:butt; stroke-linejoin:round; stroke-width:2; stroke-opacity:0.1; fill:none" points="
  149.191,237.019 2352.76,237.019 
  "/>
<polyline clip-path="url(#clip530)" style="stroke:#000000; stroke-linecap:butt; stroke-linejoin:round; stroke-width:4; stroke-opacity:1; fill:none" points="
  149.191,1423.18 149.191,47.2441 
  "/>
<polyline clip-path="url(#clip530)" style="stroke:#000000; stroke-linecap:butt; stroke-linejoin:round; stroke-width:4; stroke-opacity:1; fill:none" points="
  149.191,1334.39 175.634,1334.39 
  "/>
<polyline clip-path="url(#clip530)" style="stroke:#000000; stroke-linecap:butt; stroke-linejoin:round; stroke-width:4; stroke-opacity:1; fill:none" points="
  149.191,1060.05 175.634,1060.05 
  "/>
<polyline clip-path="url(#clip530)" style="stroke:#000000; stroke-linecap:butt; stroke-linejoin:round; stroke-width:4; stroke-opacity:1; fill:none" points="
  149.191,785.706 175.634,785.706 
  "/>
<polyline clip-path="url(#clip530)" style="stroke:#000000; stroke-linecap:butt; stroke-linejoin:round; stroke-width:4; stroke-opacity:1; fill:none" points="
  149.191,511.362 175.634,511.362 
  "/>
<polyline clip-path="url(#clip530)" style="stroke:#000000; stroke-linecap:butt; stroke-linejoin:round; stroke-width:4; stroke-opacity:1; fill:none" points="
  149.191,237.019 175.634,237.019 
  "/>
<path clip-path="url(#clip530)" d="M50.9921 1334.85 L80.6679 1334.85 L80.6679 1338.78 L50.9921 1338.78 L50.9921 1334.85 Z" fill="#000000" fill-rule="evenodd" fill-opacity="1" /><path clip-path="url(#clip530)" d="M103.608 1321.19 L91.8021 1339.64 L103.608 1339.64 L103.608 1321.19 M102.381 1317.11 L108.26 1317.11 L108.26 1339.64 L113.191 1339.64 L113.191 1343.53 L108.26 1343.53 L108.26 1351.67 L103.608 1351.67 L103.608 1343.53 L88.0058 1343.53 L88.0058 1339.01 L102.381 1317.11 Z" fill="#000000" fill-rule="evenodd" fill-opacity="1" /><path clip-path="url(#clip530)" d="M53.0754 1060.5 L82.7512 1060.5 L82.7512 1064.44 L53.0754 1064.44 L53.0754 1060.5 Z" fill="#000000" fill-rule="evenodd" fill-opacity="1" /><path clip-path="url(#clip530)" d="M96.8715 1073.39 L113.191 1073.39 L113.191 1077.33 L91.2465 1077.33 L91.2465 1073.39 Q93.9086 1070.64 98.4919 1066.01 Q103.098 1061.36 104.279 1060.02 Q106.524 1057.49 107.404 1055.76 Q108.307 1054 108.307 1052.31 Q108.307 1049.55 106.362 1047.82 Q104.441 1046.08 101.339 1046.08 Q99.14 1046.08 96.6863 1046.84 Q94.2558 1047.61 91.478 1049.16 L91.478 1044.44 Q94.3021 1043.3 96.7558 1042.72 Q99.2095 1042.15 101.246 1042.15 Q106.617 1042.15 109.811 1044.83 Q113.006 1047.52 113.006 1052.01 Q113.006 1054.14 112.196 1056.06 Q111.408 1057.96 109.302 1060.55 Q108.723 1061.22 105.621 1064.44 Q102.52 1067.63 96.8715 1073.39 Z" fill="#000000" fill-rule="evenodd" fill-opacity="1" /><path clip-path="url(#clip530)" d="M101.246 771.505 Q97.6354 771.505 95.8067 775.07 Q94.0012 778.611 94.0012 785.741 Q94.0012 792.847 95.8067 796.412 Q97.6354 799.954 101.246 799.954 Q104.881 799.954 106.686 796.412 Q108.515 792.847 108.515 785.741 Q108.515 778.611 106.686 775.07 Q104.881 771.505 101.246 771.505 M101.246 767.801 Q107.057 767.801 110.112 772.408 Q113.191 776.991 113.191 785.741 Q113.191 794.468 110.112 799.074 Q107.057 803.657 101.246 803.657 Q95.4363 803.657 92.3576 799.074 Q89.3021 794.468 89.3021 785.741 Q89.3021 776.991 92.3576 772.408 Q95.4363 767.801 101.246 767.801 Z" fill="#000000" fill-rule="evenodd" fill-opacity="1" /><path clip-path="url(#clip530)" d="M96.8715 524.707 L113.191 524.707 L113.191 528.642 L91.2465 528.642 L91.2465 524.707 Q93.9086 521.953 98.4919 517.323 Q103.098 512.67 104.279 511.328 Q106.524 508.805 107.404 507.068 Q108.307 505.309 108.307 503.619 Q108.307 500.865 106.362 499.129 Q104.441 497.393 101.339 497.393 Q99.14 497.393 96.6863 498.156 Q94.2558 498.92 91.478 500.471 L91.478 495.749 Q94.3021 494.615 96.7558 494.036 Q99.2095 493.457 101.246 493.457 Q106.617 493.457 109.811 496.143 Q113.006 498.828 113.006 503.318 Q113.006 505.448 112.196 507.369 Q111.408 509.267 109.302 511.86 Q108.723 512.531 105.621 515.749 Q102.52 518.943 96.8715 524.707 Z" fill="#000000" fill-rule="evenodd" fill-opacity="1" /><path clip-path="url(#clip530)" d="M103.608 223.813 L91.8021 242.262 L103.608 242.262 L103.608 223.813 M102.381 219.739 L108.26 219.739 L108.26 242.262 L113.191 242.262 L113.191 246.15 L108.26 246.15 L108.26 254.299 L103.608 254.299 L103.608 246.15 L88.0058 246.15 L88.0058 241.637 L102.381 219.739 Z" fill="#000000" fill-rule="evenodd" fill-opacity="1" /><polyline clip-path="url(#clip532)" style="stroke:#009af9; stroke-linecap:butt; stroke-linejoin:round; stroke-width:4; stroke-opacity:1; fill:none" points="
  211.556,648.534 216.753,650.589 221.95,652.637 227.147,654.675 232.344,656.702 237.541,658.717 242.738,660.716 247.936,662.698 253.133,664.662 258.33,666.604 
  263.527,668.524 268.724,670.42 273.921,672.289 279.118,674.129 284.315,675.939 289.512,677.717 294.709,679.461 299.906,681.169 305.103,682.839 310.301,684.471 
  315.498,686.062 320.695,687.61 325.892,689.114 331.089,690.573 336.286,691.985 341.483,693.348 346.68,694.661 351.877,695.923 357.074,697.133 362.271,698.288 
  367.469,699.389 372.666,700.433 377.863,701.42 383.06,702.348 388.257,703.217 393.454,704.025 398.651,704.772 403.848,705.456 409.045,706.077 414.242,706.633 
  419.439,707.125 424.636,707.551 429.834,707.911 435.031,708.203 440.228,708.427 445.425,708.583 450.622,708.669 455.819,708.686 461.016,708.647 466.213,708.559 
  471.41,708.419 476.607,708.229 481.804,707.987 487.002,707.694 492.199,707.351 497.396,706.955 502.593,706.509 507.79,706.012 512.987,705.465 518.184,704.867 
  523.381,704.219 528.578,703.523 533.775,702.777 538.972,701.983 544.17,701.142 549.367,700.253 554.564,699.319 559.761,698.34 564.958,697.316 570.155,696.249 
  575.352,695.14 580.549,693.99 585.746,692.799 590.943,691.569 596.14,690.301 601.337,688.996 606.535,687.656 611.732,686.282 616.929,684.875 622.126,683.437 
  627.323,681.969 632.52,680.472 637.717,678.948 642.914,677.399 648.111,675.826 653.308,674.231 658.505,672.614 663.703,670.979 668.9,669.326 674.097,667.657 
  679.294,665.974 684.491,664.278 689.688,662.571 694.885,660.855 700.082,659.132 705.279,657.403 710.476,655.67 715.673,653.934 720.87,652.198 726.068,650.464 
  731.265,648.732 736.462,647.004 741.659,645.283 746.856,643.57 752.053,641.867 757.25,640.176 762.447,638.497 767.644,636.834 772.841,635.186 778.038,633.557 
  783.236,631.948 788.433,630.36 793.63,628.796 798.827,627.256 804.024,625.743 809.221,624.257 814.418,622.8 819.615,621.374 824.812,619.98 830.009,618.62 
  835.206,617.296 840.403,616.007 845.601,614.756 850.798,613.544 855.995,612.373 861.192,611.243 866.389,610.156 871.586,609.112 876.783,608.114 881.98,607.162 
  887.177,606.256 892.374,605.399 897.571,604.591 902.769,603.832 907.966,603.125 913.163,602.469 918.36,601.866 923.557,601.316 928.754,600.82 933.951,600.379 
  939.148,599.994 944.345,599.665 949.542,599.392 954.739,599.177 959.936,599.021 965.134,598.922 970.331,598.884 975.528,598.898 980.725,598.951 985.922,599.044 
  991.119,599.178 996.316,599.352 1001.51,599.566 1006.71,599.821 1011.91,600.117 1017.1,600.452 1022.3,600.829 1027.5,601.245 1032.7,601.702 1037.89,602.197 
  1043.09,602.733 1048.29,603.307 1053.48,603.92 1058.68,604.571 1063.88,605.26 1069.08,605.986 1074.27,606.748 1079.47,607.547 1084.67,608.38 1089.86,609.248 
  1095.06,610.15 1100.26,611.084 1105.45,612.05 1110.65,613.046 1115.85,614.073 1121.05,615.129 1126.24,616.213 1131.44,617.323 1136.64,618.46 1141.83,619.621 
  1147.03,620.807 1152.23,622.014 1157.43,623.243 1162.62,624.492 1167.82,625.76 1173.02,627.046 1178.21,628.348 1183.41,629.665 1188.61,630.996 1193.81,632.339 
  1199,633.694 1204.2,635.058 1209.4,636.431 1214.59,637.81 1219.79,639.196 1224.99,640.585 1230.19,641.978 1235.38,643.372 1240.58,644.766 1245.78,646.159 
  1250.97,647.549 1256.17,648.935 1261.37,650.316 1266.56,651.69 1271.76,653.056 1276.96,654.412 1282.16,655.757 1287.35,657.09 1292.55,658.409 1297.75,659.714 
  1302.94,661.002 1308.14,662.272 1313.34,663.524 1318.54,664.755 1323.73,665.965 1328.93,667.153 1334.13,668.316 1339.32,669.454 1344.52,670.567 1349.72,671.651 
  1354.92,672.708 1360.11,673.734 1365.31,674.73 1370.51,675.694 1375.7,676.626 1380.9,677.523 1386.1,678.386 1391.29,679.213 1396.49,680.004 1401.69,680.757 
  1406.89,681.471 1412.08,682.147 1417.28,682.782 1422.48,683.377 1427.67,683.93 1432.87,684.441 1438.07,684.908 1443.27,685.333 1448.46,685.713 1453.66,686.048 
  1458.86,686.338 1464.05,686.581 1469.25,686.778 1474.45,686.929 1479.65,687.031 1484.84,687.085 1490.04,687.092 1495.24,687.067 1500.43,687.014 1505.63,686.931 
  1510.83,686.82 1516.02,686.68 1521.22,686.51 1526.42,686.312 1531.62,686.084 1536.81,685.827 1542.01,685.54 1547.21,685.225 1552.4,684.881 1557.6,684.509 
  1562.8,684.108 1568,683.679 1573.19,683.222 1578.39,682.737 1583.59,682.225 1588.78,681.687 1593.98,681.122 1599.18,680.531 1604.38,679.914 1609.57,679.273 
  1614.77,678.607 1619.97,677.918 1625.16,677.205 1630.36,676.47 1635.56,675.713 1640.75,674.935 1645.95,674.137 1651.15,673.318 1656.35,672.481 1661.54,671.626 
  1666.74,670.753 1671.94,669.864 1677.13,668.96 1682.33,668.04 1687.53,667.107 1692.73,666.161 1697.92,665.203 1703.12,664.234 1708.32,663.255 1713.51,662.266 
  1718.71,661.27 1723.91,660.266 1729.11,659.256 1734.3,658.24 1739.5,657.221 1744.7,656.198 1749.89,655.173 1755.09,654.147 1760.29,653.121 1765.49,652.095 
  1770.68,651.072 1775.88,650.051 1781.08,649.034 1786.27,648.022 1791.47,647.017 1796.67,646.018 1801.86,645.028 1807.06,644.046 1812.26,643.075 1817.46,642.114 
  1822.65,641.166 1827.85,640.23 1833.05,639.309 1838.24,638.403 1843.44,637.512 1848.64,636.639 1853.84,635.783 1859.03,634.945 1864.23,634.128 1869.43,633.33 
  1874.62,632.554 1879.82,631.8 1885.02,631.069 1890.22,630.361 1895.41,629.678 1900.61,629.02 1905.81,628.388 1911,627.783 1916.2,627.205 1921.4,626.656 
  1926.59,626.134 1931.79,625.643 1936.99,625.181 1942.19,624.75 1947.38,624.35 1952.58,623.981 1957.78,623.645 1962.97,623.342 1968.17,623.072 1973.37,622.836 
  1978.57,622.634 1983.76,622.467 1988.96,622.334 1994.16,622.237 1999.35,622.176 2004.55,622.152 2009.75,622.157 2014.95,622.179 2020.14,622.217 2025.34,622.271 
  2030.54,622.342 2035.73,622.429 2040.93,622.533 2046.13,622.654 2051.32,622.791 2056.52,622.945 2061.72,623.116 2066.92,623.303 2072.11,623.507 2077.31,623.727 
  2082.51,623.964 2087.7,624.217 2092.9,624.485 2098.1,624.77 2103.3,625.07 2108.49,625.386 2113.69,625.717 2118.89,626.064 2124.08,626.425 2129.28,626.8 
  2134.48,627.189 2139.68,627.593 2144.87,628.01 2150.07,628.44 2155.27,628.883 2160.46,629.339 2165.66,629.806 2170.86,630.285 2176.05,630.776 2181.25,631.277 
  2186.45,631.789 2191.65,632.31 2196.84,632.841 2202.04,633.38 2207.24,633.928 2212.43,634.484 2217.63,635.047 2222.83,635.617 2228.03,636.193 2233.22,636.774 
  2238.42,637.361 2243.62,637.953 2248.81,638.548 2254.01,639.147 2259.21,639.749 2264.41,640.353 2269.6,640.958 2274.8,641.565 2280,642.172 2285.19,642.779 
  2290.39,643.385 
  "/>
<polyline clip-path="url(#clip532)" style="stroke:#e26f46; stroke-linecap:butt; stroke-linejoin:round; stroke-width:4; stroke-opacity:1; fill:none" points="
  211.556,991.464 216.753,990.877 221.95,990.089 227.147,989.097 232.344,987.901 237.541,986.504 242.738,984.906 247.936,983.11 253.133,981.115 258.33,978.926 
  263.527,976.542 268.724,973.968 273.921,971.205 279.118,968.256 284.315,965.123 289.512,961.811 294.709,958.321 299.906,954.658 305.103,950.825 310.301,946.825 
  315.498,942.662 320.695,938.34 325.892,933.862 331.089,929.234 336.286,924.459 341.483,919.54 346.68,914.483 351.877,909.292 357.074,903.971 362.271,898.525 
  367.469,892.958 372.666,887.275 377.863,881.48 383.06,875.577 388.257,869.572 393.454,863.468 398.651,857.269 403.848,850.979 409.045,844.604 414.242,838.145 
  419.439,831.606 424.636,824.992 429.834,818.304 435.031,811.544 440.228,804.715 445.425,797.819 450.622,790.857 455.819,784.38 461.016,779.36 466.213,774.304 
  471.41,769.22 476.607,764.114 481.804,758.995 487.002,753.87 492.199,748.747 497.396,743.633 502.593,738.536 507.79,733.463 512.987,728.42 518.184,723.416 
  523.381,718.456 528.578,713.547 533.775,708.696 538.972,703.909 544.17,699.191 549.367,694.549 554.564,689.988 559.761,685.513 564.958,681.13 570.155,676.846 
  575.352,672.663 580.549,668.587 585.746,664.623 590.943,660.776 596.14,657.049 601.337,653.447 606.535,649.974 611.732,646.634 616.929,643.431 622.126,640.367 
  627.323,637.447 632.52,634.673 637.717,632.049 642.914,629.577 648.111,627.26 653.308,625.1 658.505,623.1 663.703,621.261 668.9,619.586 674.097,618.077 
  679.294,616.735 684.491,615.561 689.688,614.557 694.885,613.724 700.082,613.063 705.279,612.574 710.476,612.258 715.673,612.116 720.87,612.147 726.068,612.351 
  731.265,612.73 736.462,613.281 741.659,614.005 746.856,614.901 752.053,615.968 757.25,617.205 762.447,618.611 767.644,620.185 772.841,621.926 778.038,623.831 
  783.236,625.899 788.433,628.127 793.63,630.515 798.827,633.058 804.024,635.757 809.221,638.607 814.418,641.607 819.615,644.753 824.812,648.042 830.009,651.472 
  835.206,655.039 840.403,658.741 845.601,662.574 850.798,666.535 855.995,670.62 861.192,674.826 866.389,679.148 871.586,683.585 876.783,688.132 881.98,692.785 
  887.177,697.541 892.374,702.396 897.571,707.346 902.769,712.388 907.966,717.517 913.163,722.732 918.36,728.028 923.557,733.401 928.754,738.849 933.951,744.369 
  939.148,749.958 944.345,755.613 949.542,761.332 954.739,767.113 959.936,772.954 965.134,778.853 970.331,784.802 975.528,789.059 980.725,793.039 985.922,797.046 
  991.119,801.073 996.316,805.116 1001.51,809.167 1006.71,813.223 1011.91,817.276 1017.1,821.321 1022.3,825.353 1027.5,829.366 1032.7,833.354 1037.89,837.313 
  1043.09,841.238 1048.29,845.123 1053.48,848.962 1058.68,852.752 1063.88,856.486 1069.08,860.161 1074.27,863.771 1079.47,867.313 1084.67,870.782 1089.86,874.175 
  1095.06,877.486 1100.26,880.713 1105.45,883.851 1110.65,886.896 1115.85,889.846 1121.05,892.697 1126.24,895.446 1131.44,898.088 1136.64,900.622 1141.83,903.045 
  1147.03,905.353 1152.23,907.545 1157.43,909.617 1162.62,911.567 1167.82,913.394 1173.02,915.095 1178.21,916.668 1183.41,918.112 1188.61,919.424 1193.81,920.604 
  1199,921.65 1204.2,922.561 1209.4,923.336 1214.59,923.974 1219.79,924.474 1224.99,924.835 1230.19,925.058 1235.38,925.141 1240.58,925.085 1245.78,924.889 
  1250.97,924.555 1256.17,924.081 1261.37,923.468 1266.56,922.717 1271.76,921.828 1276.96,920.802 1282.16,919.64 1287.35,918.343 1292.55,916.912 1297.75,915.349 
  1302.94,913.654 1308.14,911.83 1313.34,909.877 1318.54,907.798 1323.73,905.594 1328.93,903.267 1334.13,900.82 1339.32,898.254 1344.52,895.572 1349.72,892.776 
  1354.92,889.869 1360.11,886.852 1365.31,883.728 1370.51,880.501 1375.7,877.172 1380.9,873.744 1386.1,870.221 1391.29,866.604 1396.49,862.897 1401.69,859.103 
  1406.89,855.224 1412.08,851.263 1417.28,847.223 1422.48,843.107 1427.67,838.918 1432.87,834.658 1438.07,830.33 1443.27,825.937 1448.46,821.481 1453.66,816.966 
  1458.86,812.392 1464.05,807.763 1469.25,803.08 1474.45,798.346 1479.65,793.562 1484.84,788.73 1490.04,784.636 1495.24,781.787 1500.43,778.917 1505.63,776.029 
  1510.83,773.127 1516.02,770.215 1521.22,767.297 1526.42,764.376 1531.62,761.456 1536.81,758.541 1542.01,755.635 1547.21,752.742 1552.4,749.865 1557.6,747.008 
  1562.8,744.175 1568,741.37 1573.19,738.596 1578.39,735.856 1583.59,733.154 1588.78,730.494 1593.98,727.879 1599.18,725.311 1604.38,722.794 1609.57,720.332 
  1614.77,717.927 1619.97,715.582 1625.16,713.299 1630.36,711.083 1635.56,708.935 1640.75,706.858 1645.95,704.854 1651.15,702.927 1656.35,701.077 1661.54,699.308 
  1666.74,697.621 1671.94,696.018 1677.13,694.502 1682.33,693.073 1687.53,691.735 1692.73,690.487 1697.92,689.333 1703.12,688.273 1708.32,687.308 1713.51,686.44 
  1718.71,685.67 1723.91,684.998 1729.11,684.426 1734.3,683.954 1739.5,683.584 1744.7,683.315 1749.89,683.148 1755.09,683.083 1760.29,683.121 1765.49,683.261 
  1770.68,683.505 1775.88,683.851 1781.08,684.3 1786.27,684.851 1791.47,685.504 1796.67,686.259 1801.86,687.114 1807.06,688.07 1812.26,689.126 1817.46,690.28 
  1822.65,691.532 1827.85,692.881 1833.05,694.326 1838.24,695.865 1843.44,697.498 1848.64,699.223 1853.84,701.039 1859.03,702.944 1864.23,704.936 1869.43,707.014 
  1874.62,709.177 1879.82,711.422 1885.02,713.749 1890.22,716.154 1895.41,718.636 1900.61,721.194 1905.81,723.825 1911,726.527 1916.2,729.299 1921.4,732.138 
  1926.59,735.043 1931.79,738.011 1936.99,741.039 1942.19,744.127 1947.38,747.272 1952.58,750.472 1957.78,753.724 1962.97,757.028 1968.17,760.381 1973.37,763.78 
  1978.57,767.224 1983.76,770.712 1988.96,774.241 1994.16,777.809 1999.35,781.416 2004.55,785.056 2009.75,787.035 2014.95,788.663 2020.14,790.303 2025.34,791.952 
  2030.54,793.609 2035.73,795.272 2040.93,796.939 2046.13,798.609 2051.32,800.278 2056.52,801.946 2061.72,803.61 2066.92,805.269 2072.11,806.919 2077.31,808.56 
  2082.51,810.188 2087.7,811.803 2092.9,813.402 2098.1,814.983 2103.3,816.544 2108.49,818.084 2113.69,819.6 2118.89,821.091 2124.08,822.554 2129.28,823.988 
  2134.48,825.392 2139.68,826.763 2144.87,828.1 2150.07,829.401 2155.27,830.664 2160.46,831.888 2165.66,833.072 2170.86,834.214 2176.05,835.312 2181.25,836.365 
  2186.45,837.372 2191.65,838.332 2196.84,839.242 2202.04,840.103 2207.24,840.914 2212.43,841.671 2217.63,842.376 2222.83,843.027 2228.03,843.623 2233.22,844.163 
  2238.42,844.647 2243.62,845.074 2248.81,845.442 2254.01,845.752 2259.21,846.004 2264.41,846.196 2269.6,846.327 2274.8,846.399 2280,846.41 2285.19,846.361 
  2290.39,846.25 
  "/>
<polyline clip-path="url(#clip532)" style="stroke:#3da44d; stroke-linecap:butt; stroke-linejoin:round; stroke-width:4; stroke-opacity:1; fill:none" points="
  211.556,737.711 216.753,717.164 221.95,696.687 227.147,676.301 232.344,656.025 237.541,635.876 242.738,615.875 247.936,596.046 253.133,576.397 258.33,556.953 
  263.527,537.726 268.724,518.738 273.921,500.006 279.118,481.548 284.315,463.38 289.512,445.519 294.709,427.981 299.906,410.78 305.103,393.93 310.301,377.444 
  315.498,361.336 320.695,345.618 325.892,330.299 331.089,315.391 336.286,300.902 341.483,286.842 346.68,273.216 351.877,260.03 357.074,247.29 362.271,234.995 
  367.469,223.149 372.666,211.751 377.863,200.797 383.06,190.284 388.257,180.203 393.454,170.547 398.651,161.302 403.848,152.454 409.045,143.984 414.242,135.871 
  419.439,128.087 424.636,120.602 429.834,113.38 435.031,106.38 440.228,99.5524 445.425,92.8426 450.622,86.1857 455.819,285.821 461.016,281.709 466.213,278.407 
  471.41,275.906 476.607,274.197 481.804,273.268 487.002,273.106 492.199,273.698 497.396,275.031 502.593,277.087 507.79,279.852 512.987,283.31 518.184,287.444 
  523.381,292.237 528.578,297.675 533.775,303.738 538.972,310.412 544.17,317.678 549.367,325.521 554.564,333.924 559.761,342.867 564.958,352.336 570.155,362.317 
  575.352,372.789 580.549,383.737 585.746,395.145 590.943,406.998 596.14,419.276 601.337,431.964 606.535,445.046 611.732,458.504 616.929,472.321 622.126,486.48 
  627.323,500.964 632.52,515.756 637.717,530.84 642.914,546.197 648.111,561.81 653.308,577.662 658.505,593.735 663.703,610.012 668.9,626.476 674.097,643.108 
  679.294,659.892 684.491,676.81 689.688,693.843 694.885,710.975 700.082,728.188 705.279,745.464 710.476,762.785 715.673,780.135 720.87,797.496 726.068,814.85 
  731.265,832.18 736.462,849.471 741.659,866.704 746.856,883.863 752.053,900.931 757.25,917.89 762.447,934.724 767.644,951.422 772.841,967.965 778.038,984.338 
  783.236,1000.53 788.433,1016.51 793.63,1032.28 798.827,1047.82 804.024,1063.12 809.221,1078.16 814.418,1092.94 819.615,1107.44 824.812,1121.64 830.009,1135.54 
  835.206,1149.13 840.403,1162.39 845.601,1175.33 850.798,1187.92 855.995,1200.18 861.192,1212.07 866.389,1223.62 871.586,1234.8 876.783,1245.62 881.98,1256.07 
  887.177,1266.15 892.374,1275.87 897.571,1285.23 902.769,1294.23 907.966,1302.88 913.163,1311.18 918.36,1319.15 923.557,1326.79 928.754,1334.12 933.951,1341.16 
  939.148,1347.92 944.345,1354.43 949.542,1360.71 954.739,1366.8 959.936,1372.72 965.134,1378.52 970.331,1384.24 975.528,1182.3 980.725,1185.25 985.922,1187.61 
  991.119,1189.39 996.316,1190.59 1001.51,1191.2 1006.71,1191.25 1011.91,1190.73 1017.1,1189.65 1022.3,1188.01 1027.5,1185.83 1032.7,1183.12 1037.89,1179.88 
  1043.09,1176.13 1048.29,1171.88 1053.48,1167.13 1058.68,1161.89 1063.88,1156.18 1069.08,1150.01 1074.27,1143.4 1079.47,1136.34 1084.67,1128.86 1089.86,1120.97 
  1095.06,1112.68 1100.26,1104 1105.45,1094.96 1110.65,1085.55 1115.85,1075.79 1121.05,1065.71 1126.24,1055.3 1131.44,1044.58 1136.64,1033.57 1141.83,1022.28 
  1147.03,1010.72 1152.23,998.915 1157.43,986.867 1162.62,974.595 1167.82,962.111 1173.02,949.43 1178.21,936.566 1183.41,923.535 1188.61,910.35 1193.81,897.024 
  1199,883.572 1204.2,870.009 1209.4,856.349 1214.59,842.606 1219.79,828.794 1224.99,814.927 1230.19,801.02 1235.38,787.087 1240.58,773.14 1245.78,759.196 
  1250.97,745.266 1256.17,731.365 1261.37,717.506 1266.56,703.703 1271.76,689.968 1276.96,676.316 1282.16,662.758 1287.35,649.307 1292.55,635.977 1297.75,622.778 
  1302.94,609.723 1308.14,596.823 1313.34,584.09 1318.54,571.534 1323.73,559.167 1328.93,546.997 1334.13,535.036 1339.32,523.293 1344.52,511.775 1349.72,500.492 
  1354.92,489.452 1360.11,478.661 1365.31,468.127 1370.51,457.855 1375.7,447.852 1380.9,438.121 1386.1,428.668 1391.29,419.494 1396.49,410.604 1401.69,401.998 
  1406.89,393.677 1412.08,385.641 1417.28,377.889 1422.48,370.419 1427.67,363.227 1432.87,356.309 1438.07,349.658 1443.27,343.268 1448.46,337.13 1453.66,331.233 
  1458.86,325.566 1464.05,320.116 1469.25,314.865 1474.45,309.796 1479.65,304.89 1484.84,300.123 1490.04,501.995 1495.24,499.641 1500.43,497.666 1505.63,496.072 
  1510.83,494.863 1516.02,494.039 1521.22,493.601 1526.42,493.547 1531.62,493.877 1536.81,494.59 1542.01,495.682 1547.21,497.151 1552.4,498.991 1557.6,501.2 
  1562.8,503.774 1568,506.705 1573.19,509.989 1578.39,513.622 1583.59,517.594 1588.78,521.901 1593.98,526.535 1599.18,531.487 1604.38,536.752 1609.57,542.322 
  1614.77,548.188 1619.97,554.341 1625.16,560.773 1630.36,567.477 1635.56,574.441 1640.75,581.659 1645.95,589.119 1651.15,596.813 1656.35,604.731 1661.54,612.864 
  1666.74,621.201 1671.94,629.732 1677.13,638.448 1682.33,647.339 1687.53,656.394 1692.73,665.603 1697.92,674.956 1703.12,684.443 1708.32,694.052 1713.51,703.774 
  1718.71,713.599 1723.91,723.516 1729.11,733.514 1734.3,743.583 1739.5,753.713 1744.7,763.894 1749.89,774.115 1755.09,784.366 1760.29,794.635 1765.49,804.913 
  1770.68,815.191 1775.88,825.459 1781.08,835.706 1786.27,845.922 1791.47,856.097 1796.67,866.222 1801.86,876.285 1807.06,886.281 1812.26,896.2 1817.46,906.032 
  1822.65,915.768 1827.85,925.399 1833.05,934.917 1838.24,944.313 1843.44,953.583 1848.64,962.716 1853.84,971.706 1859.03,980.545 1864.23,989.228 1869.43,997.748 
  1874.62,1006.1 1879.82,1014.28 1885.02,1022.27 1890.22,1030.08 1895.41,1037.71 1900.61,1045.14 1905.81,1052.37 1911,1059.41 1916.2,1066.24 1921.4,1072.87 
  1926.59,1079.3 1931.79,1085.51 1936.99,1091.53 1942.19,1097.33 1947.38,1102.93 1952.58,1108.32 1957.78,1113.51 1962.97,1118.5 1968.17,1123.3 1973.37,1127.9 
  1978.57,1132.31 1983.76,1136.54 1988.96,1140.6 1994.16,1144.49 1999.35,1148.22 2004.55,1151.8 2009.75,947.848 2014.95,949.129 2020.14,950.22 2025.34,951.119 
  2030.54,951.824 2035.73,952.331 2040.93,952.64 2046.13,952.75 2051.32,952.659 2056.52,952.368 2061.72,951.875 2066.92,951.181 2072.11,950.286 2077.31,949.191 
  2082.51,947.897 2087.7,946.406 2092.9,944.718 2098.1,942.835 2103.3,940.761 2108.49,938.497 2113.69,936.045 2118.89,933.408 2124.08,930.59 2129.28,927.594 
  2134.48,924.423 2139.68,921.079 2144.87,917.571 2150.07,913.899 2155.27,910.066 2160.46,906.079 2165.66,901.944 2170.86,897.663 2176.05,893.241 2181.25,888.683 
  2186.45,883.997 2191.65,879.184 2196.84,874.251 2202.04,869.205 2207.24,864.051 2212.43,858.792 2217.63,853.436 2222.83,847.989 2228.03,842.456 2233.22,836.842 
  2238.42,831.154 2243.62,825.398 2248.81,819.58 2254.01,813.705 2259.21,807.78 2264.41,801.812 2269.6,795.804 2274.8,789.764 2280,783.699 2285.19,777.613 
  2290.39,771.513 
  "/>
<polyline clip-path="url(#clip532)" style="stroke:#c271d2; stroke-linecap:butt; stroke-linejoin:round; stroke-width:4; stroke-opacity:1; fill:none" points="
  211.556,833.702 216.753,833.702 221.95,833.702 227.147,833.703 232.344,833.706 237.541,833.71 242.738,833.716 247.936,833.726 253.133,833.74 258.33,833.76 
  263.527,833.786 268.724,833.819 273.921,833.862 279.118,833.916 284.315,833.984 289.512,834.066 294.709,834.166 299.906,834.287 305.103,834.431 310.301,834.602 
  315.498,834.803 320.695,835.04 325.892,835.315 331.089,835.636 336.286,836.007 341.483,836.436 346.68,836.929 351.877,837.494 357.074,838.141 362.271,838.879 
  367.469,839.72 372.666,840.676 377.863,841.762 383.06,842.992 388.257,844.385 393.454,845.959 398.651,847.737 403.848,849.743 409.045,852.004 414.242,854.55 
  419.439,857.417 424.636,860.642 429.834,864.27 435.031,868.348 440.228,872.933 445.425,878.087 450.622,883.88 455.819,684.075 461.016,688.571 466.213,692.762 
  471.41,696.658 476.607,700.271 481.804,703.616 487.002,706.705 492.199,709.552 497.396,712.171 502.593,714.576 507.79,716.781 512.987,718.798 518.184,720.642 
  523.381,722.323 528.578,723.855 533.775,725.248 538.972,726.513 544.17,727.66 549.367,728.7 554.564,729.64 559.761,730.489 564.958,731.255 570.155,731.945 
  575.352,732.565 580.549,733.123 585.746,733.623 590.943,734.071 596.14,734.471 601.337,734.829 606.535,735.148 611.732,735.431 616.929,735.683 622.126,735.906 
  627.323,736.104 632.52,736.278 637.717,736.431 642.914,736.566 648.111,736.684 653.308,736.787 658.505,736.877 663.703,736.954 668.9,737.021 674.097,737.078 
  679.294,737.126 684.491,737.167 689.688,737.2 694.885,737.227 700.082,737.247 705.279,737.262 710.476,737.271 715.673,737.276 720.87,737.275 726.068,737.269 
  731.265,737.257 736.462,737.24 741.659,737.218 746.856,737.189 752.053,737.153 757.25,737.11 762.447,737.058 767.644,736.998 772.841,736.927 778.038,736.845 
  783.236,736.75 788.433,736.641 793.63,736.516 798.827,736.374 804.024,736.211 809.221,736.027 814.418,735.818 819.615,735.581 824.812,735.314 830.009,735.013 
  835.206,734.674 840.403,734.293 845.601,733.866 850.798,733.387 855.995,732.85 861.192,732.251 866.389,731.581 871.586,730.834 876.783,730 881.98,729.072 
  887.177,728.04 892.374,726.891 897.571,725.615 902.769,724.198 907.966,722.626 913.163,720.882 918.36,718.949 923.557,716.807 928.754,714.434 933.951,711.807 
  939.148,708.9 944.345,705.682 949.542,702.122 954.739,698.184 959.936,693.827 965.134,689.006 970.331,683.681 975.528,885.481 980.725,881.997 985.922,878.7 
  991.119,875.586 996.316,872.651 1001.51,869.889 1006.71,867.295 1011.91,864.862 1017.1,862.585 1022.3,860.457 1027.5,858.471 1032.7,856.621 1037.89,854.898 
  1043.09,853.297 1048.29,851.81 1053.48,850.432 1058.68,849.156 1063.88,847.975 1069.08,846.884 1074.27,845.877 1079.47,844.948 1084.67,844.092 1089.86,843.304 
  1095.06,842.58 1100.26,841.914 1105.45,841.304 1110.65,840.744 1115.85,840.231 1121.05,839.762 1126.24,839.333 1131.44,838.942 1136.64,838.585 1141.83,838.261 
  1147.03,837.966 1152.23,837.699 1157.43,837.457 1162.62,837.239 1167.82,837.042 1173.02,836.866 1178.21,836.709 1183.41,836.57 1188.61,836.447 1193.81,836.339 
  1199,836.246 1204.2,836.167 1209.4,836.101 1214.59,836.048 1219.79,836.006 1224.99,835.977 1230.19,835.959 1235.38,835.952 1240.58,835.956 1245.78,835.972 
  1250.97,836 1256.17,836.039 1261.37,836.09 1266.56,836.154 1271.76,836.231 1276.96,836.321 1282.16,836.427 1287.35,836.548 1292.55,836.685 1297.75,836.84 
  1302.94,837.015 1308.14,837.21 1313.34,837.427 1318.54,837.669 1323.73,837.936 1328.93,838.232 1334.13,838.558 1339.32,838.918 1344.52,839.314 1349.72,839.749 
  1354.92,840.227 1360.11,840.752 1365.31,841.327 1370.51,841.957 1375.7,842.647 1380.9,843.402 1386.1,844.227 1391.29,845.129 1396.49,846.115 1401.69,847.191 
  1406.89,848.366 1412.08,849.648 1417.28,851.046 1422.48,852.57 1427.67,854.231 1432.87,856.041 1438.07,858.013 1443.27,860.16 1448.46,862.498 1453.66,865.043 
  1458.86,867.812 1464.05,870.826 1469.25,874.106 1474.45,877.674 1479.65,881.555 1484.84,885.778 1490.04,683.836 1495.24,686.441 1500.43,688.952 1505.63,691.369 
  1510.83,693.691 1516.02,695.919 1521.22,698.052 1526.42,700.093 1531.62,702.042 1536.81,703.9 1542.01,705.669 1547.21,707.352 1552.4,708.95 1557.6,710.467 
  1562.8,711.903 1568,713.263 1573.19,714.549 1578.39,715.763 1583.59,716.909 1588.78,717.989 1593.98,719.005 1599.18,719.962 1604.38,720.86 1609.57,721.704 
  1614.77,722.494 1619.97,723.235 1625.16,723.929 1630.36,724.577 1635.56,725.182 1640.75,725.746 1645.95,726.271 1651.15,726.76 1656.35,727.213 1661.54,727.633 
  1666.74,728.022 1671.94,728.38 1677.13,728.71 1682.33,729.012 1687.53,729.289 1692.73,729.54 1697.92,729.768 1703.12,729.973 1708.32,730.157 1713.51,730.319 
  1718.71,730.46 1723.91,730.582 1729.11,730.685 1734.3,730.768 1739.5,730.834 1744.7,730.881 1749.89,730.91 1755.09,730.921 1760.29,730.915 1765.49,730.89 
  1770.68,730.848 1775.88,730.787 1781.08,730.707 1786.27,730.609 1791.47,730.49 1796.67,730.352 1801.86,730.193 1807.06,730.012 1812.26,729.809 1817.46,729.582 
  1822.65,729.33 1827.85,729.052 1833.05,728.747 1838.24,728.414 1843.44,728.049 1848.64,727.653 1853.84,727.222 1859.03,726.755 1864.23,726.25 1869.43,725.704 
  1874.62,725.115 1879.82,724.479 1885.02,723.794 1890.22,723.057 1895.41,722.264 1900.61,721.412 1905.81,720.497 1911,719.514 1916.2,718.459 1921.4,717.327 
  1926.59,716.114 1931.79,714.813 1936.99,713.42 1942.19,711.928 1947.38,710.33 1952.58,708.619 1957.78,706.789 1962.97,704.831 1968.17,702.737 1973.37,700.498 
  1978.57,698.104 1983.76,695.546 1988.96,692.812 1994.16,689.892 1999.35,686.772 2004.55,683.442 2009.75,887.335 2014.95,885.839 2020.14,884.369 2025.34,882.928 
  2030.54,881.516 2035.73,880.135 2040.93,878.785 2046.13,877.469 2051.32,876.186 2056.52,874.937 2061.72,873.722 2066.92,872.543 2072.11,871.4 2077.31,870.292 
  2082.51,869.22 2087.7,868.184 2092.9,867.184 2098.1,866.219 2103.3,865.29 2108.49,864.396 2113.69,863.536 2118.89,862.711 2124.08,861.92 2129.28,861.162 
  2134.48,860.437 2139.68,859.745 2144.87,859.084 2150.07,858.455 2155.27,857.856 2160.46,857.287 2165.66,856.748 2170.86,856.237 2176.05,855.755 2181.25,855.301 
  2186.45,854.873 2191.65,854.473 2196.84,854.098 2202.04,853.749 2207.24,853.425 2212.43,853.126 2217.63,852.852 2222.83,852.601 2228.03,852.373 2233.22,852.169 
  2238.42,851.987 2243.62,851.829 2248.81,851.692 2254.01,851.578 2259.21,851.486 2264.41,851.417 2269.6,851.369 2274.8,851.343 2280,851.339 2285.19,851.357 
  2290.39,851.397 
  "/>
<path clip-path="url(#clip530)" d="
M1390.67 395.509 L2279.3 395.509 L2279.3 93.1086 L1390.67 93.1086  Z
  " fill="#ffffff" fill-rule="evenodd" fill-opacity="1"/>
<polyline clip-path="url(#clip530)" style="stroke:#000000; stroke-linecap:butt; stroke-linejoin:round; stroke-width:4; stroke-opacity:1; fill:none" points="
  1390.67,395.509 2279.3,395.509 2279.3,93.1086 1390.67,93.1086 1390.67,395.509 
  "/>
<polyline clip-path="url(#clip530)" style="stroke:#009af9; stroke-linecap:butt; stroke-linejoin:round; stroke-width:4; stroke-opacity:1; fill:none" points="
  1415.15,153.589 1562.06,153.589 
  "/>
<path clip-path="url(#clip530)" d="M1606.89 149.92 Q1608.49 147.049 1610.71 145.684 Q1612.93 144.318 1615.94 144.318 Q1619.99 144.318 1622.19 147.165 Q1624.39 149.989 1624.39 155.221 L1624.39 170.869 L1620.11 170.869 L1620.11 155.359 Q1620.11 151.633 1618.79 149.827 Q1617.47 148.022 1614.76 148.022 Q1611.45 148.022 1609.53 150.221 Q1607.61 152.42 1607.61 156.216 L1607.61 170.869 L1603.33 170.869 L1603.33 155.359 Q1603.33 151.609 1602.01 149.827 Q1600.69 148.022 1597.93 148.022 Q1594.67 148.022 1592.75 150.244 Q1590.83 152.443 1590.83 156.216 L1590.83 170.869 L1586.54 170.869 L1586.54 144.943 L1590.83 144.943 L1590.83 148.971 Q1592.28 146.586 1594.32 145.452 Q1596.36 144.318 1599.16 144.318 Q1601.98 144.318 1603.95 145.753 Q1605.94 147.188 1606.89 149.92 Z" fill="#000000" fill-rule="evenodd" fill-opacity="1" /><path clip-path="url(#clip530)" d="M1644.67 157.836 Q1639.51 157.836 1637.51 159.017 Q1635.52 160.197 1635.52 163.045 Q1635.52 165.313 1637.01 166.656 Q1638.51 167.975 1641.08 167.975 Q1644.62 167.975 1646.75 165.475 Q1648.9 162.952 1648.9 158.785 L1648.9 157.836 L1644.67 157.836 M1653.16 156.077 L1653.16 170.869 L1648.9 170.869 L1648.9 166.933 Q1647.45 169.295 1645.27 170.429 Q1643.09 171.54 1639.95 171.54 Q1635.96 171.54 1633.6 169.318 Q1631.26 167.072 1631.26 163.322 Q1631.26 158.947 1634.18 156.725 Q1637.12 154.503 1642.93 154.503 L1648.9 154.503 L1648.9 154.086 Q1648.9 151.147 1646.96 149.549 Q1645.04 147.929 1641.54 147.929 Q1639.32 147.929 1637.21 148.461 Q1635.11 148.994 1633.16 150.059 L1633.16 146.123 Q1635.5 145.221 1637.7 144.781 Q1639.9 144.318 1641.98 144.318 Q1647.61 144.318 1650.39 147.234 Q1653.16 150.151 1653.16 156.077 Z" fill="#000000" fill-rule="evenodd" fill-opacity="1" /><path clip-path="url(#clip530)" d="M1678.46 145.707 L1678.46 149.734 Q1676.66 148.809 1674.71 148.346 Q1672.77 147.883 1670.69 147.883 Q1667.51 147.883 1665.92 148.855 Q1664.34 149.827 1664.34 151.771 Q1664.34 153.253 1665.48 154.109 Q1666.61 154.943 1670.04 155.707 L1671.5 156.031 Q1676.03 157.003 1677.93 158.785 Q1679.85 160.545 1679.85 163.716 Q1679.85 167.327 1676.98 169.433 Q1674.13 171.54 1669.13 171.54 Q1667.05 171.54 1664.78 171.123 Q1662.54 170.73 1660.04 169.92 L1660.04 165.521 Q1662.4 166.748 1664.69 167.373 Q1666.98 167.975 1669.23 167.975 Q1672.24 167.975 1673.86 166.957 Q1675.48 165.915 1675.48 164.04 Q1675.48 162.304 1674.3 161.378 Q1673.14 160.452 1669.18 159.596 L1667.7 159.248 Q1663.74 158.415 1661.98 156.702 Q1660.22 154.966 1660.22 151.957 Q1660.22 148.299 1662.82 146.309 Q1665.41 144.318 1670.18 144.318 Q1672.54 144.318 1674.62 144.665 Q1676.7 145.012 1678.46 145.707 Z" fill="#000000" fill-rule="evenodd" fill-opacity="1" /><path clip-path="url(#clip530)" d="M1703.16 145.707 L1703.16 149.734 Q1701.36 148.809 1699.41 148.346 Q1697.47 147.883 1695.38 147.883 Q1692.21 147.883 1690.62 148.855 Q1689.04 149.827 1689.04 151.771 Q1689.04 153.253 1690.18 154.109 Q1691.31 154.943 1694.74 155.707 L1696.19 156.031 Q1700.73 157.003 1702.63 158.785 Q1704.55 160.545 1704.55 163.716 Q1704.55 167.327 1701.68 169.433 Q1698.83 171.54 1693.83 171.54 Q1691.75 171.54 1689.48 171.123 Q1687.24 170.73 1684.74 169.92 L1684.74 165.521 Q1687.1 166.748 1689.39 167.373 Q1691.68 167.975 1693.93 167.975 Q1696.94 167.975 1698.56 166.957 Q1700.18 165.915 1700.18 164.04 Q1700.18 162.304 1699 161.378 Q1697.84 160.452 1693.88 159.596 L1692.4 159.248 Q1688.44 158.415 1686.68 156.702 Q1684.92 154.966 1684.92 151.957 Q1684.92 148.299 1687.51 146.309 Q1690.11 144.318 1694.88 144.318 Q1697.24 144.318 1699.32 144.665 Q1701.4 145.012 1703.16 145.707 Z" fill="#000000" fill-rule="evenodd" fill-opacity="1" /><path clip-path="url(#clip530)" d="M1711.94 164.989 L1716.82 164.989 L1716.82 170.869 L1711.94 170.869 L1711.94 164.989 Z" fill="#000000" fill-rule="evenodd" fill-opacity="1" /><path clip-path="url(#clip530)" d="M1742.93 145.707 L1742.93 149.734 Q1741.13 148.809 1739.18 148.346 Q1737.24 147.883 1735.15 147.883 Q1731.98 147.883 1730.38 148.855 Q1728.81 149.827 1728.81 151.771 Q1728.81 153.253 1729.94 154.109 Q1731.08 154.943 1734.5 155.707 L1735.96 156.031 Q1740.5 157.003 1742.4 158.785 Q1744.32 160.545 1744.32 163.716 Q1744.32 167.327 1741.45 169.433 Q1738.6 171.54 1733.6 171.54 Q1731.52 171.54 1729.25 171.123 Q1727 170.73 1724.51 169.92 L1724.51 165.521 Q1726.87 166.748 1729.16 167.373 Q1731.45 167.975 1733.69 167.975 Q1736.7 167.975 1738.32 166.957 Q1739.94 165.915 1739.94 164.04 Q1739.94 162.304 1738.76 161.378 Q1737.61 160.452 1733.65 159.596 L1732.17 159.248 Q1728.21 158.415 1726.45 156.702 Q1724.69 154.966 1724.69 151.957 Q1724.69 148.299 1727.28 146.309 Q1729.88 144.318 1734.64 144.318 Q1737 144.318 1739.09 144.665 Q1741.17 145.012 1742.93 145.707 Z" fill="#000000" fill-rule="evenodd" fill-opacity="1" /><path clip-path="url(#clip530)" d="M1776.4 134.897 Q1773.3 140.221 1771.8 145.429 Q1770.29 150.637 1770.29 155.984 Q1770.29 161.332 1771.8 166.586 Q1773.32 171.818 1776.4 177.119 L1772.7 177.119 Q1769.23 171.679 1767.49 166.424 Q1765.78 161.17 1765.78 155.984 Q1765.78 150.822 1767.49 145.591 Q1769.2 140.36 1772.7 134.897 L1776.4 134.897 Z" fill="#000000" fill-rule="evenodd" fill-opacity="1" /><path clip-path="url(#clip530)" d="M1799.44 152.234 Q1802.79 152.952 1804.67 155.221 Q1806.56 157.489 1806.56 160.822 Q1806.56 165.938 1803.05 168.739 Q1799.53 171.54 1793.05 171.54 Q1790.87 171.54 1788.56 171.1 Q1786.26 170.683 1783.81 169.827 L1783.81 165.313 Q1785.75 166.447 1788.07 167.026 Q1790.38 167.605 1792.91 167.605 Q1797.31 167.605 1799.6 165.869 Q1801.91 164.133 1801.91 160.822 Q1801.91 157.767 1799.76 156.054 Q1797.63 154.318 1793.81 154.318 L1789.78 154.318 L1789.78 150.475 L1794 150.475 Q1797.44 150.475 1799.27 149.109 Q1801.1 147.721 1801.1 145.128 Q1801.1 142.466 1799.2 141.054 Q1797.33 139.619 1793.81 139.619 Q1791.89 139.619 1789.69 140.035 Q1787.49 140.452 1784.85 141.332 L1784.85 137.165 Q1787.51 136.424 1789.83 136.054 Q1792.17 135.684 1794.23 135.684 Q1799.55 135.684 1802.65 138.114 Q1805.75 140.522 1805.75 144.642 Q1805.75 147.512 1804.11 149.503 Q1802.47 151.471 1799.44 152.234 Z" fill="#000000" fill-rule="evenodd" fill-opacity="1" /><path clip-path="url(#clip530)" d="M1829.6 152.234 Q1832.95 152.952 1834.83 155.221 Q1836.73 157.489 1836.73 160.822 Q1836.73 165.938 1833.21 168.739 Q1829.69 171.54 1823.21 171.54 Q1821.03 171.54 1818.72 171.1 Q1816.43 170.683 1813.97 169.827 L1813.97 165.313 Q1815.92 166.447 1818.23 167.026 Q1820.55 167.605 1823.07 167.605 Q1827.47 167.605 1829.76 165.869 Q1832.07 164.133 1832.07 160.822 Q1832.07 157.767 1829.92 156.054 Q1827.79 154.318 1823.97 154.318 L1819.94 154.318 L1819.94 150.475 L1824.16 150.475 Q1827.61 150.475 1829.43 149.109 Q1831.26 147.721 1831.26 145.128 Q1831.26 142.466 1829.37 141.054 Q1827.49 139.619 1823.97 139.619 Q1822.05 139.619 1819.85 140.035 Q1817.65 140.452 1815.01 141.332 L1815.01 137.165 Q1817.68 136.424 1819.99 136.054 Q1822.33 135.684 1824.39 135.684 Q1829.71 135.684 1832.81 138.114 Q1835.92 140.522 1835.92 144.642 Q1835.92 147.512 1834.27 149.503 Q1832.63 151.471 1829.6 152.234 Z" fill="#000000" fill-rule="evenodd" fill-opacity="1" /><path clip-path="url(#clip530)" d="M1845.64 136.309 L1863.99 136.309 L1863.99 140.244 L1849.92 140.244 L1849.92 148.716 Q1850.94 148.369 1851.96 148.207 Q1852.98 148.022 1854 148.022 Q1859.78 148.022 1863.16 151.193 Q1866.54 154.364 1866.54 159.781 Q1866.54 165.359 1863.07 168.461 Q1859.6 171.54 1853.28 171.54 Q1851.1 171.54 1848.83 171.17 Q1846.59 170.799 1844.18 170.058 L1844.18 165.359 Q1846.26 166.494 1848.49 167.049 Q1850.71 167.605 1853.18 167.605 Q1857.19 167.605 1859.53 165.498 Q1861.87 163.392 1861.87 159.781 Q1861.87 156.17 1859.53 154.063 Q1857.19 151.957 1853.18 151.957 Q1851.31 151.957 1849.43 152.373 Q1847.58 152.79 1845.64 153.67 L1845.64 136.309 Z" fill="#000000" fill-rule="evenodd" fill-opacity="1" /><path clip-path="url(#clip530)" d="M1875.8 136.309 L1894.16 136.309 L1894.16 140.244 L1880.08 140.244 L1880.08 148.716 Q1881.1 148.369 1882.12 148.207 Q1883.14 148.022 1884.16 148.022 Q1889.94 148.022 1893.32 151.193 Q1896.7 154.364 1896.7 159.781 Q1896.7 165.359 1893.23 168.461 Q1889.76 171.54 1883.44 171.54 Q1881.26 171.54 1878.99 171.17 Q1876.75 170.799 1874.34 170.058 L1874.34 165.359 Q1876.43 166.494 1878.65 167.049 Q1880.87 167.605 1883.35 167.605 Q1887.35 167.605 1889.69 165.498 Q1892.03 163.392 1892.03 159.781 Q1892.03 156.17 1889.69 154.063 Q1887.35 151.957 1883.35 151.957 Q1881.47 151.957 1879.6 152.373 Q1877.74 152.79 1875.8 153.67 L1875.8 136.309 Z" fill="#000000" fill-rule="evenodd" fill-opacity="1" /><path clip-path="url(#clip530)" d="M1918.76 140.383 L1906.96 158.832 L1918.76 158.832 L1918.76 140.383 M1917.54 136.309 L1923.42 136.309 L1923.42 158.832 L1928.35 158.832 L1928.35 162.721 L1923.42 162.721 L1923.42 170.869 L1918.76 170.869 L1918.76 162.721 L1903.16 162.721 L1903.16 158.207 L1917.54 136.309 Z" fill="#000000" fill-rule="evenodd" fill-opacity="1" /><path clip-path="url(#clip530)" d="M1948.93 140.383 L1937.12 158.832 L1948.93 158.832 L1948.93 140.383 M1947.7 136.309 L1953.58 136.309 L1953.58 158.832 L1958.51 158.832 L1958.51 162.721 L1953.58 162.721 L1953.58 170.869 L1948.93 170.869 L1948.93 162.721 L1933.32 162.721 L1933.32 158.207 L1947.7 136.309 Z" fill="#000000" fill-rule="evenodd" fill-opacity="1" /><path clip-path="url(#clip530)" d="M1980.41 152.234 Q1983.76 152.952 1985.64 155.221 Q1987.54 157.489 1987.54 160.822 Q1987.54 165.938 1984.02 168.739 Q1980.5 171.54 1974.02 171.54 Q1971.84 171.54 1969.53 171.1 Q1967.24 170.683 1964.78 169.827 L1964.78 165.313 Q1966.73 166.447 1969.04 167.026 Q1971.36 167.605 1973.88 167.605 Q1978.28 167.605 1980.57 165.869 Q1982.88 164.133 1982.88 160.822 Q1982.88 157.767 1980.73 156.054 Q1978.6 154.318 1974.78 154.318 L1970.75 154.318 L1970.75 150.475 L1974.97 150.475 Q1978.42 150.475 1980.24 149.109 Q1982.07 147.721 1982.07 145.128 Q1982.07 142.466 1980.17 141.054 Q1978.3 139.619 1974.78 139.619 Q1972.86 139.619 1970.66 140.035 Q1968.46 140.452 1965.82 141.332 L1965.82 137.165 Q1968.49 136.424 1970.8 136.054 Q1973.14 135.684 1975.2 135.684 Q1980.52 135.684 1983.62 138.114 Q1986.73 140.522 1986.73 144.642 Q1986.73 147.512 1985.08 149.503 Q1983.44 151.471 1980.41 152.234 Z" fill="#000000" fill-rule="evenodd" fill-opacity="1" /><path clip-path="url(#clip530)" d="M2000.43 166.933 L2016.75 166.933 L2016.75 170.869 L1994.8 170.869 L1994.8 166.933 Q1997.47 164.179 2002.05 159.549 Q2006.66 154.896 2007.84 153.554 Q2010.08 151.031 2010.96 149.295 Q2011.86 147.535 2011.86 145.846 Q2011.86 143.091 2009.92 141.355 Q2008 139.619 2004.9 139.619 Q2002.7 139.619 2000.24 140.383 Q1997.81 141.147 1995.04 142.697 L1995.04 137.975 Q1997.86 136.841 2000.31 136.262 Q2002.77 135.684 2004.8 135.684 Q2010.17 135.684 2013.37 138.369 Q2016.56 141.054 2016.56 145.545 Q2016.56 147.674 2015.75 149.596 Q2014.97 151.494 2012.86 154.086 Q2012.28 154.758 2009.18 157.975 Q2006.08 161.17 2000.43 166.933 Z" fill="#000000" fill-rule="evenodd" fill-opacity="1" /><path clip-path="url(#clip530)" d="M2025.29 134.897 L2028.99 134.897 Q2032.47 140.36 2034.18 145.591 Q2035.92 150.822 2035.92 155.984 Q2035.92 161.17 2034.18 166.424 Q2032.47 171.679 2028.99 177.119 L2025.29 177.119 Q2028.37 171.818 2029.87 166.586 Q2031.4 161.332 2031.4 155.984 Q2031.4 150.637 2029.87 145.429 Q2028.37 140.221 2025.29 134.897 Z" fill="#000000" fill-rule="evenodd" fill-opacity="1" /><polyline clip-path="url(#clip530)" style="stroke:#e26f46; stroke-linecap:butt; stroke-linejoin:round; stroke-width:4; stroke-opacity:1; fill:none" points="
  1415.15,214.069 1562.06,214.069 
  "/>
<path clip-path="url(#clip530)" d="M1606.89 210.4 Q1608.49 207.529 1610.71 206.164 Q1612.93 204.798 1615.94 204.798 Q1619.99 204.798 1622.19 207.645 Q1624.39 210.469 1624.39 215.701 L1624.39 231.349 L1620.11 231.349 L1620.11 215.839 Q1620.11 212.113 1618.79 210.307 Q1617.47 208.502 1614.76 208.502 Q1611.45 208.502 1609.53 210.701 Q1607.61 212.9 1607.61 216.696 L1607.61 231.349 L1603.33 231.349 L1603.33 215.839 Q1603.33 212.089 1602.01 210.307 Q1600.69 208.502 1597.93 208.502 Q1594.67 208.502 1592.75 210.724 Q1590.83 212.923 1590.83 216.696 L1590.83 231.349 L1586.54 231.349 L1586.54 205.423 L1590.83 205.423 L1590.83 209.451 Q1592.28 207.066 1594.32 205.932 Q1596.36 204.798 1599.16 204.798 Q1601.98 204.798 1603.95 206.233 Q1605.94 207.668 1606.89 210.4 Z" fill="#000000" fill-rule="evenodd" fill-opacity="1" /><path clip-path="url(#clip530)" d="M1644.67 218.316 Q1639.51 218.316 1637.51 219.497 Q1635.52 220.677 1635.52 223.525 Q1635.52 225.793 1637.01 227.136 Q1638.51 228.455 1641.08 228.455 Q1644.62 228.455 1646.75 225.955 Q1648.9 223.432 1648.9 219.265 L1648.9 218.316 L1644.67 218.316 M1653.16 216.557 L1653.16 231.349 L1648.9 231.349 L1648.9 227.413 Q1647.45 229.775 1645.27 230.909 Q1643.09 232.02 1639.95 232.02 Q1635.96 232.02 1633.6 229.798 Q1631.26 227.552 1631.26 223.802 Q1631.26 219.427 1634.18 217.205 Q1637.12 214.983 1642.93 214.983 L1648.9 214.983 L1648.9 214.566 Q1648.9 211.627 1646.96 210.029 Q1645.04 208.409 1641.54 208.409 Q1639.32 208.409 1637.21 208.941 Q1635.11 209.474 1633.16 210.539 L1633.16 206.603 Q1635.5 205.701 1637.7 205.261 Q1639.9 204.798 1641.98 204.798 Q1647.61 204.798 1650.39 207.714 Q1653.16 210.631 1653.16 216.557 Z" fill="#000000" fill-rule="evenodd" fill-opacity="1" /><path clip-path="url(#clip530)" d="M1678.46 206.187 L1678.46 210.214 Q1676.66 209.289 1674.71 208.826 Q1672.77 208.363 1670.69 208.363 Q1667.51 208.363 1665.92 209.335 Q1664.34 210.307 1664.34 212.251 Q1664.34 213.733 1665.48 214.589 Q1666.61 215.423 1670.04 216.187 L1671.5 216.511 Q1676.03 217.483 1677.93 219.265 Q1679.85 221.025 1679.85 224.196 Q1679.85 227.807 1676.98 229.913 Q1674.13 232.02 1669.13 232.02 Q1667.05 232.02 1664.78 231.603 Q1662.54 231.21 1660.04 230.4 L1660.04 226.001 Q1662.4 227.228 1664.69 227.853 Q1666.98 228.455 1669.23 228.455 Q1672.24 228.455 1673.86 227.437 Q1675.48 226.395 1675.48 224.52 Q1675.48 222.784 1674.3 221.858 Q1673.14 220.932 1669.18 220.076 L1667.7 219.728 Q1663.74 218.895 1661.98 217.182 Q1660.22 215.446 1660.22 212.437 Q1660.22 208.779 1662.82 206.789 Q1665.41 204.798 1670.18 204.798 Q1672.54 204.798 1674.62 205.145 Q1676.7 205.492 1678.46 206.187 Z" fill="#000000" fill-rule="evenodd" fill-opacity="1" /><path clip-path="url(#clip530)" d="M1703.16 206.187 L1703.16 210.214 Q1701.36 209.289 1699.41 208.826 Q1697.47 208.363 1695.38 208.363 Q1692.21 208.363 1690.62 209.335 Q1689.04 210.307 1689.04 212.251 Q1689.04 213.733 1690.18 214.589 Q1691.31 215.423 1694.74 216.187 L1696.19 216.511 Q1700.73 217.483 1702.63 219.265 Q1704.55 221.025 1704.55 224.196 Q1704.55 227.807 1701.68 229.913 Q1698.83 232.02 1693.83 232.02 Q1691.75 232.02 1689.48 231.603 Q1687.24 231.21 1684.74 230.4 L1684.74 226.001 Q1687.1 227.228 1689.39 227.853 Q1691.68 228.455 1693.93 228.455 Q1696.94 228.455 1698.56 227.437 Q1700.18 226.395 1700.18 224.52 Q1700.18 222.784 1699 221.858 Q1697.84 220.932 1693.88 220.076 L1692.4 219.728 Q1688.44 218.895 1686.68 217.182 Q1684.92 215.446 1684.92 212.437 Q1684.92 208.779 1687.51 206.789 Q1690.11 204.798 1694.88 204.798 Q1697.24 204.798 1699.32 205.145 Q1701.4 205.492 1703.16 206.187 Z" fill="#000000" fill-rule="evenodd" fill-opacity="1" /><path clip-path="url(#clip530)" d="M1711.94 225.469 L1716.82 225.469 L1716.82 231.349 L1711.94 231.349 L1711.94 225.469 Z" fill="#000000" fill-rule="evenodd" fill-opacity="1" /><path clip-path="url(#clip530)" d="M1723.35 205.423 L1727.86 205.423 L1735.96 227.182 L1744.07 205.423 L1748.58 205.423 L1738.86 231.349 L1733.07 231.349 L1723.35 205.423 Z" fill="#000000" fill-rule="evenodd" fill-opacity="1" /><path clip-path="url(#clip530)" d="M1779.76 195.377 Q1776.66 200.701 1775.15 205.909 Q1773.65 211.117 1773.65 216.464 Q1773.65 221.812 1775.15 227.066 Q1776.68 232.298 1779.76 237.599 L1776.06 237.599 Q1772.58 232.159 1770.85 226.904 Q1769.13 221.65 1769.13 216.464 Q1769.13 211.302 1770.85 206.071 Q1772.56 200.84 1776.06 195.377 L1779.76 195.377 Z" fill="#000000" fill-rule="evenodd" fill-opacity="1" /><path clip-path="url(#clip530)" d="M1802.79 212.714 Q1806.15 213.432 1808.02 215.701 Q1809.92 217.969 1809.92 221.302 Q1809.92 226.418 1806.4 229.219 Q1802.88 232.02 1796.4 232.02 Q1794.23 232.02 1791.91 231.58 Q1789.62 231.163 1787.17 230.307 L1787.17 225.793 Q1789.11 226.927 1791.43 227.506 Q1793.74 228.085 1796.26 228.085 Q1800.66 228.085 1802.95 226.349 Q1805.27 224.613 1805.27 221.302 Q1805.27 218.247 1803.12 216.534 Q1800.99 214.798 1797.17 214.798 L1793.14 214.798 L1793.14 210.955 L1797.35 210.955 Q1800.8 210.955 1802.63 209.589 Q1804.46 208.201 1804.46 205.608 Q1804.46 202.946 1802.56 201.534 Q1800.69 200.099 1797.17 200.099 Q1795.25 200.099 1793.05 200.515 Q1790.85 200.932 1788.21 201.812 L1788.21 197.645 Q1790.87 196.904 1793.19 196.534 Q1795.52 196.164 1797.58 196.164 Q1802.91 196.164 1806.01 198.594 Q1809.11 201.002 1809.11 205.122 Q1809.11 207.992 1807.47 209.983 Q1805.82 211.951 1802.79 212.714 Z" fill="#000000" fill-rule="evenodd" fill-opacity="1" /><path clip-path="url(#clip530)" d="M1832.95 212.714 Q1836.31 213.432 1838.18 215.701 Q1840.08 217.969 1840.08 221.302 Q1840.08 226.418 1836.56 229.219 Q1833.05 232.02 1826.56 232.02 Q1824.39 232.02 1822.07 231.58 Q1819.78 231.163 1817.33 230.307 L1817.33 225.793 Q1819.27 226.927 1821.59 227.506 Q1823.9 228.085 1826.43 228.085 Q1830.82 228.085 1833.12 226.349 Q1835.43 224.613 1835.43 221.302 Q1835.43 218.247 1833.28 216.534 Q1831.15 214.798 1827.33 214.798 L1823.3 214.798 L1823.3 210.955 L1827.51 210.955 Q1830.96 210.955 1832.79 209.589 Q1834.62 208.201 1834.62 205.608 Q1834.62 202.946 1832.72 201.534 Q1830.85 200.099 1827.33 200.099 Q1825.41 200.099 1823.21 200.515 Q1821.01 200.932 1818.37 201.812 L1818.37 197.645 Q1821.03 196.904 1823.35 196.534 Q1825.69 196.164 1827.75 196.164 Q1833.07 196.164 1836.17 198.594 Q1839.27 201.002 1839.27 205.122 Q1839.27 207.992 1837.63 209.983 Q1835.99 211.951 1832.95 212.714 Z" fill="#000000" fill-rule="evenodd" fill-opacity="1" /><path clip-path="url(#clip530)" d="M1849 196.789 L1867.35 196.789 L1867.35 200.724 L1853.28 200.724 L1853.28 209.196 Q1854.3 208.849 1855.31 208.687 Q1856.33 208.502 1857.35 208.502 Q1863.14 208.502 1866.52 211.673 Q1869.9 214.844 1869.9 220.261 Q1869.9 225.839 1866.43 228.941 Q1862.95 232.02 1856.63 232.02 Q1854.46 232.02 1852.19 231.65 Q1849.94 231.279 1847.54 230.538 L1847.54 225.839 Q1849.62 226.974 1851.84 227.529 Q1854.06 228.085 1856.54 228.085 Q1860.55 228.085 1862.88 225.978 Q1865.22 223.872 1865.22 220.261 Q1865.22 216.65 1862.88 214.543 Q1860.55 212.437 1856.54 212.437 Q1854.67 212.437 1852.79 212.853 Q1850.94 213.27 1849 214.15 L1849 196.789 Z" fill="#000000" fill-rule="evenodd" fill-opacity="1" /><path clip-path="url(#clip530)" d="M1879.16 196.789 L1897.51 196.789 L1897.51 200.724 L1883.44 200.724 L1883.44 209.196 Q1884.46 208.849 1885.48 208.687 Q1886.49 208.502 1887.51 208.502 Q1893.3 208.502 1896.68 211.673 Q1900.06 214.844 1900.06 220.261 Q1900.06 225.839 1896.59 228.941 Q1893.12 232.02 1886.8 232.02 Q1884.62 232.02 1882.35 231.65 Q1880.11 231.279 1877.7 230.538 L1877.7 225.839 Q1879.78 226.974 1882 227.529 Q1884.23 228.085 1886.7 228.085 Q1890.71 228.085 1893.05 225.978 Q1895.38 223.872 1895.38 220.261 Q1895.38 216.65 1893.05 214.543 Q1890.71 212.437 1886.7 212.437 Q1884.83 212.437 1882.95 212.853 Q1881.1 213.27 1879.16 214.15 L1879.16 196.789 Z" fill="#000000" fill-rule="evenodd" fill-opacity="1" /><path clip-path="url(#clip530)" d="M1922.12 200.863 L1910.31 219.312 L1922.12 219.312 L1922.12 200.863 M1920.89 196.789 L1926.77 196.789 L1926.77 219.312 L1931.7 219.312 L1931.7 223.201 L1926.77 223.201 L1926.77 231.349 L1922.12 231.349 L1922.12 223.201 L1906.52 223.201 L1906.52 218.687 L1920.89 196.789 Z" fill="#000000" fill-rule="evenodd" fill-opacity="1" /><path clip-path="url(#clip530)" d="M1952.28 200.863 L1940.48 219.312 L1952.28 219.312 L1952.28 200.863 M1951.05 196.789 L1956.93 196.789 L1956.93 219.312 L1961.86 219.312 L1961.86 223.201 L1956.93 223.201 L1956.93 231.349 L1952.28 231.349 L1952.28 223.201 L1936.68 223.201 L1936.68 218.687 L1951.05 196.789 Z" fill="#000000" fill-rule="evenodd" fill-opacity="1" /><path clip-path="url(#clip530)" d="M1983.76 212.714 Q1987.12 213.432 1988.99 215.701 Q1990.89 217.969 1990.89 221.302 Q1990.89 226.418 1987.37 229.219 Q1983.86 232.02 1977.37 232.02 Q1975.2 232.02 1972.88 231.58 Q1970.59 231.163 1968.14 230.307 L1968.14 225.793 Q1970.08 226.927 1972.4 227.506 Q1974.71 228.085 1977.24 228.085 Q1981.63 228.085 1983.92 226.349 Q1986.24 224.613 1986.24 221.302 Q1986.24 218.247 1984.09 216.534 Q1981.96 214.798 1978.14 214.798 L1974.11 214.798 L1974.11 210.955 L1978.32 210.955 Q1981.77 210.955 1983.6 209.589 Q1985.43 208.201 1985.43 205.608 Q1985.43 202.946 1983.53 201.534 Q1981.66 200.099 1978.14 200.099 Q1976.22 200.099 1974.02 200.515 Q1971.82 200.932 1969.18 201.812 L1969.18 197.645 Q1971.84 196.904 1974.16 196.534 Q1976.49 196.164 1978.55 196.164 Q1983.88 196.164 1986.98 198.594 Q1990.08 201.002 1990.08 205.122 Q1990.08 207.992 1988.44 209.983 Q1986.8 211.951 1983.76 212.714 Z" fill="#000000" fill-rule="evenodd" fill-opacity="1" /><path clip-path="url(#clip530)" d="M2013.92 212.714 Q2017.28 213.432 2019.16 215.701 Q2021.05 217.969 2021.05 221.302 Q2021.05 226.418 2017.54 229.219 Q2014.02 232.02 2007.54 232.02 Q2005.36 232.02 2003.05 231.58 Q2000.75 231.163 1998.3 230.307 L1998.3 225.793 Q2000.24 226.927 2002.56 227.506 Q2004.87 228.085 2007.4 228.085 Q2011.8 228.085 2014.09 226.349 Q2016.4 224.613 2016.4 221.302 Q2016.4 218.247 2014.25 216.534 Q2012.12 214.798 2008.3 214.798 L2004.27 214.798 L2004.27 210.955 L2008.48 210.955 Q2011.93 210.955 2013.76 209.589 Q2015.59 208.201 2015.59 205.608 Q2015.59 202.946 2013.69 201.534 Q2011.82 200.099 2008.3 200.099 Q2006.38 200.099 2004.18 200.515 Q2001.98 200.932 1999.34 201.812 L1999.34 197.645 Q2002 196.904 2004.32 196.534 Q2006.66 196.164 2008.72 196.164 Q2014.04 196.164 2017.14 198.594 Q2020.24 201.002 2020.24 205.122 Q2020.24 207.992 2018.6 209.983 Q2016.96 211.951 2013.92 212.714 Z" fill="#000000" fill-rule="evenodd" fill-opacity="1" /><path clip-path="url(#clip530)" d="M2028.65 195.377 L2032.35 195.377 Q2035.82 200.84 2037.54 206.071 Q2039.27 211.302 2039.27 216.464 Q2039.27 221.65 2037.54 226.904 Q2035.82 232.159 2032.35 237.599 L2028.65 237.599 Q2031.73 232.298 2033.23 227.066 Q2034.76 221.812 2034.76 216.464 Q2034.76 211.117 2033.23 205.909 Q2031.73 200.701 2028.65 195.377 Z" fill="#000000" fill-rule="evenodd" fill-opacity="1" /><polyline clip-path="url(#clip530)" style="stroke:#3da44d; stroke-linecap:butt; stroke-linejoin:round; stroke-width:4; stroke-opacity:1; fill:none" points="
  1415.15,274.549 1562.06,274.549 
  "/>
<path clip-path="url(#clip530)" d="M1606.89 270.88 Q1608.49 268.009 1610.71 266.644 Q1612.93 265.278 1615.94 265.278 Q1619.99 265.278 1622.19 268.125 Q1624.39 270.949 1624.39 276.181 L1624.39 291.829 L1620.11 291.829 L1620.11 276.319 Q1620.11 272.593 1618.79 270.787 Q1617.47 268.982 1614.76 268.982 Q1611.45 268.982 1609.53 271.181 Q1607.61 273.38 1607.61 277.176 L1607.61 291.829 L1603.33 291.829 L1603.33 276.319 Q1603.33 272.569 1602.01 270.787 Q1600.69 268.982 1597.93 268.982 Q1594.67 268.982 1592.75 271.204 Q1590.83 273.403 1590.83 277.176 L1590.83 291.829 L1586.54 291.829 L1586.54 265.903 L1590.83 265.903 L1590.83 269.931 Q1592.28 267.546 1594.32 266.412 Q1596.36 265.278 1599.16 265.278 Q1601.98 265.278 1603.95 266.713 Q1605.94 268.148 1606.89 270.88 Z" fill="#000000" fill-rule="evenodd" fill-opacity="1" /><path clip-path="url(#clip530)" d="M1644.67 278.796 Q1639.51 278.796 1637.51 279.977 Q1635.52 281.157 1635.52 284.005 Q1635.52 286.273 1637.01 287.616 Q1638.51 288.935 1641.08 288.935 Q1644.62 288.935 1646.75 286.435 Q1648.9 283.912 1648.9 279.745 L1648.9 278.796 L1644.67 278.796 M1653.16 277.037 L1653.16 291.829 L1648.9 291.829 L1648.9 287.893 Q1647.45 290.255 1645.27 291.389 Q1643.09 292.5 1639.95 292.5 Q1635.96 292.5 1633.6 290.278 Q1631.26 288.032 1631.26 284.282 Q1631.26 279.907 1634.18 277.685 Q1637.12 275.463 1642.93 275.463 L1648.9 275.463 L1648.9 275.046 Q1648.9 272.107 1646.96 270.509 Q1645.04 268.889 1641.54 268.889 Q1639.32 268.889 1637.21 269.421 Q1635.11 269.954 1633.16 271.019 L1633.16 267.083 Q1635.5 266.181 1637.7 265.741 Q1639.9 265.278 1641.98 265.278 Q1647.61 265.278 1650.39 268.194 Q1653.16 271.111 1653.16 277.037 Z" fill="#000000" fill-rule="evenodd" fill-opacity="1" /><path clip-path="url(#clip530)" d="M1678.46 266.667 L1678.46 270.694 Q1676.66 269.769 1674.71 269.306 Q1672.77 268.843 1670.69 268.843 Q1667.51 268.843 1665.92 269.815 Q1664.34 270.787 1664.34 272.731 Q1664.34 274.213 1665.48 275.069 Q1666.61 275.903 1670.04 276.667 L1671.5 276.991 Q1676.03 277.963 1677.93 279.745 Q1679.85 281.505 1679.85 284.676 Q1679.85 288.287 1676.98 290.393 Q1674.13 292.5 1669.13 292.5 Q1667.05 292.5 1664.78 292.083 Q1662.54 291.69 1660.04 290.88 L1660.04 286.481 Q1662.4 287.708 1664.69 288.333 Q1666.98 288.935 1669.23 288.935 Q1672.24 288.935 1673.86 287.917 Q1675.48 286.875 1675.48 285 Q1675.48 283.264 1674.3 282.338 Q1673.14 281.412 1669.18 280.556 L1667.7 280.208 Q1663.74 279.375 1661.98 277.662 Q1660.22 275.926 1660.22 272.917 Q1660.22 269.259 1662.82 267.269 Q1665.41 265.278 1670.18 265.278 Q1672.54 265.278 1674.62 265.625 Q1676.7 265.972 1678.46 266.667 Z" fill="#000000" fill-rule="evenodd" fill-opacity="1" /><path clip-path="url(#clip530)" d="M1703.16 266.667 L1703.16 270.694 Q1701.36 269.769 1699.41 269.306 Q1697.47 268.843 1695.38 268.843 Q1692.21 268.843 1690.62 269.815 Q1689.04 270.787 1689.04 272.731 Q1689.04 274.213 1690.18 275.069 Q1691.31 275.903 1694.74 276.667 L1696.19 276.991 Q1700.73 277.963 1702.63 279.745 Q1704.55 281.505 1704.55 284.676 Q1704.55 288.287 1701.68 290.393 Q1698.83 292.5 1693.83 292.5 Q1691.75 292.5 1689.48 292.083 Q1687.24 291.69 1684.74 290.88 L1684.74 286.481 Q1687.1 287.708 1689.39 288.333 Q1691.68 288.935 1693.93 288.935 Q1696.94 288.935 1698.56 287.917 Q1700.18 286.875 1700.18 285 Q1700.18 283.264 1699 282.338 Q1697.84 281.412 1693.88 280.556 L1692.4 280.208 Q1688.44 279.375 1686.68 277.662 Q1684.92 275.926 1684.92 272.917 Q1684.92 269.259 1687.51 267.269 Q1690.11 265.278 1694.88 265.278 Q1697.24 265.278 1699.32 265.625 Q1701.4 265.972 1703.16 266.667 Z" fill="#000000" fill-rule="evenodd" fill-opacity="1" /><path clip-path="url(#clip530)" d="M1711.94 285.949 L1716.82 285.949 L1716.82 291.829 L1711.94 291.829 L1711.94 285.949 Z" fill="#000000" fill-rule="evenodd" fill-opacity="1" /><path clip-path="url(#clip530)" d="M1738.19 278.796 Q1733.02 278.796 1731.03 279.977 Q1729.04 281.157 1729.04 284.005 Q1729.04 286.273 1730.52 287.616 Q1732.03 288.935 1734.6 288.935 Q1738.14 288.935 1740.27 286.435 Q1742.42 283.912 1742.42 279.745 L1742.42 278.796 L1738.19 278.796 M1746.68 277.037 L1746.68 291.829 L1742.42 291.829 L1742.42 287.893 Q1740.96 290.255 1738.79 291.389 Q1736.61 292.5 1733.46 292.5 Q1729.48 292.5 1727.12 290.278 Q1724.78 288.032 1724.78 284.282 Q1724.78 279.907 1727.7 277.685 Q1730.64 275.463 1736.45 275.463 L1742.42 275.463 L1742.42 275.046 Q1742.42 272.107 1740.48 270.509 Q1738.56 268.889 1735.06 268.889 Q1732.84 268.889 1730.73 269.421 Q1728.63 269.954 1726.68 271.019 L1726.68 267.083 Q1729.02 266.181 1731.22 265.741 Q1733.42 265.278 1735.5 265.278 Q1741.13 265.278 1743.9 268.194 Q1746.68 271.111 1746.68 277.037 Z" fill="#000000" fill-rule="evenodd" fill-opacity="1" /><path clip-path="url(#clip530)" d="M1775.15 299.699 L1775.15 303.009 L1750.52 303.009 L1750.52 299.699 L1775.15 299.699 Z" fill="#000000" fill-rule="evenodd" fill-opacity="1" /><path clip-path="url(#clip530)" d="M1794.18 269.884 Q1793.46 269.468 1792.61 269.282 Q1791.77 269.074 1790.75 269.074 Q1787.14 269.074 1785.2 271.435 Q1783.28 273.773 1783.28 278.171 L1783.28 291.829 L1779 291.829 L1779 265.903 L1783.28 265.903 L1783.28 269.931 Q1784.62 267.569 1786.77 266.435 Q1788.93 265.278 1792 265.278 Q1792.44 265.278 1792.98 265.347 Q1793.51 265.394 1794.16 265.509 L1794.18 269.884 Z" fill="#000000" fill-rule="evenodd" fill-opacity="1" /><path clip-path="url(#clip530)" d="M1819.78 277.801 L1819.78 279.884 L1800.2 279.884 Q1800.48 284.282 1802.84 286.597 Q1805.22 288.889 1809.46 288.889 Q1811.91 288.889 1814.2 288.287 Q1816.52 287.685 1818.79 286.481 L1818.79 290.509 Q1816.5 291.481 1814.09 291.991 Q1811.68 292.5 1809.2 292.5 Q1803 292.5 1799.37 288.889 Q1795.75 285.278 1795.75 279.12 Q1795.75 272.755 1799.18 269.028 Q1802.63 265.278 1808.46 265.278 Q1813.69 265.278 1816.73 268.657 Q1819.78 272.014 1819.78 277.801 M1815.52 276.551 Q1815.48 273.056 1813.56 270.972 Q1811.66 268.889 1808.51 268.889 Q1804.94 268.889 1802.79 270.903 Q1800.66 272.917 1800.34 276.574 L1815.52 276.551 Z" fill="#000000" fill-rule="evenodd" fill-opacity="1" /><path clip-path="url(#clip530)" d="M1826.77 255.81 L1831.03 255.81 L1831.03 291.829 L1826.77 291.829 L1826.77 255.81 Z" fill="#000000" fill-rule="evenodd" fill-opacity="1" /><path clip-path="url(#clip530)" d="M1853.07 255.81 L1853.07 259.352 L1849 259.352 Q1846.7 259.352 1845.8 260.278 Q1844.92 261.204 1844.92 263.611 L1844.92 265.903 L1851.93 265.903 L1851.93 269.213 L1844.92 269.213 L1844.92 291.829 L1840.64 291.829 L1840.64 269.213 L1836.56 269.213 L1836.56 265.903 L1840.64 265.903 L1840.64 264.097 Q1840.64 259.769 1842.65 257.801 Q1844.67 255.81 1849.04 255.81 L1853.07 255.81 Z" fill="#000000" fill-rule="evenodd" fill-opacity="1" /><path clip-path="url(#clip530)" d="M1871.66 269.884 Q1870.94 269.468 1870.08 269.282 Q1869.25 269.074 1868.23 269.074 Q1864.62 269.074 1862.68 271.435 Q1860.75 273.773 1860.75 278.171 L1860.75 291.829 L1856.47 291.829 L1856.47 265.903 L1860.75 265.903 L1860.75 269.931 Q1862.1 267.569 1864.25 266.435 Q1866.4 265.278 1869.48 265.278 Q1869.92 265.278 1870.45 265.347 Q1870.99 265.394 1871.63 265.509 L1871.66 269.884 Z" fill="#000000" fill-rule="evenodd" fill-opacity="1" /><path clip-path="url(#clip530)" d="M1876.12 265.903 L1880.38 265.903 L1880.38 291.829 L1876.12 291.829 L1876.12 265.903 M1876.12 255.81 L1880.38 255.81 L1880.38 261.204 L1876.12 261.204 L1876.12 255.81 Z" fill="#000000" fill-rule="evenodd" fill-opacity="1" /><path clip-path="url(#clip530)" d="M1907.95 266.898 L1907.95 270.88 Q1906.15 269.884 1904.32 269.398 Q1902.51 268.889 1900.66 268.889 Q1896.52 268.889 1894.23 271.528 Q1891.93 274.144 1891.93 278.889 Q1891.93 283.634 1894.23 286.273 Q1896.52 288.889 1900.66 288.889 Q1902.51 288.889 1904.32 288.403 Q1906.15 287.893 1907.95 286.898 L1907.95 290.833 Q1906.17 291.667 1904.25 292.083 Q1902.35 292.5 1900.2 292.5 Q1894.34 292.5 1890.89 288.819 Q1887.44 285.139 1887.44 278.889 Q1887.44 272.546 1890.92 268.912 Q1894.41 265.278 1900.48 265.278 Q1902.44 265.278 1904.32 265.695 Q1906.19 266.088 1907.95 266.898 Z" fill="#000000" fill-rule="evenodd" fill-opacity="1" /><path clip-path="url(#clip530)" d="M1940.66 255.857 Q1937.56 261.181 1936.05 266.389 Q1934.55 271.597 1934.55 276.944 Q1934.55 282.292 1936.05 287.546 Q1937.58 292.778 1940.66 298.079 L1936.96 298.079 Q1933.49 292.639 1931.75 287.384 Q1930.04 282.13 1930.04 276.944 Q1930.04 271.782 1931.75 266.551 Q1933.46 261.32 1936.96 255.857 L1940.66 255.857 Z" fill="#000000" fill-rule="evenodd" fill-opacity="1" /><path clip-path="url(#clip530)" d="M1949.57 257.269 L1967.93 257.269 L1967.93 261.204 L1953.86 261.204 L1953.86 269.676 Q1954.87 269.329 1955.89 269.167 Q1956.91 268.982 1957.93 268.982 Q1963.72 268.982 1967.1 272.153 Q1970.48 275.324 1970.48 280.741 Q1970.48 286.319 1967 289.421 Q1963.53 292.5 1957.21 292.5 Q1955.04 292.5 1952.77 292.13 Q1950.52 291.759 1948.11 291.018 L1948.11 286.319 Q1950.2 287.454 1952.42 288.009 Q1954.64 288.565 1957.12 288.565 Q1961.12 288.565 1963.46 286.458 Q1965.8 284.352 1965.8 280.741 Q1965.8 277.13 1963.46 275.023 Q1961.12 272.917 1957.12 272.917 Q1955.24 272.917 1953.37 273.333 Q1951.52 273.75 1949.57 274.63 L1949.57 257.269 Z" fill="#000000" fill-rule="evenodd" fill-opacity="1" /><path clip-path="url(#clip530)" d="M1989.69 275.417 Q1986.36 275.417 1984.43 277.199 Q1982.54 278.981 1982.54 282.106 Q1982.54 285.231 1984.43 287.014 Q1986.36 288.796 1989.69 288.796 Q1993.02 288.796 1994.94 287.014 Q1996.86 285.208 1996.86 282.106 Q1996.86 278.981 1994.94 277.199 Q1993.05 275.417 1989.69 275.417 M1985.01 273.426 Q1982 272.685 1980.31 270.625 Q1978.65 268.565 1978.65 265.602 Q1978.65 261.458 1981.59 259.051 Q1984.55 256.644 1989.69 256.644 Q1994.85 256.644 1997.79 259.051 Q2000.73 261.458 2000.73 265.602 Q2000.73 268.565 1999.04 270.625 Q1997.37 272.685 1994.39 273.426 Q1997.77 274.213 1999.64 276.505 Q2001.54 278.796 2001.54 282.106 Q2001.54 287.13 1998.46 289.815 Q1995.41 292.5 1989.69 292.5 Q1983.97 292.5 1980.89 289.815 Q1977.84 287.13 1977.84 282.106 Q1977.84 278.796 1979.74 276.505 Q1981.63 274.213 1985.01 273.426 M1983.3 266.042 Q1983.3 268.727 1984.97 270.232 Q1986.66 271.736 1989.69 271.736 Q1992.7 271.736 1994.39 270.232 Q1996.1 268.727 1996.1 266.042 Q1996.1 263.357 1994.39 261.852 Q1992.7 260.347 1989.69 260.347 Q1986.66 260.347 1984.97 261.852 Q1983.3 263.357 1983.3 266.042 Z" fill="#000000" fill-rule="evenodd" fill-opacity="1" /><path clip-path="url(#clip530)" d="M2008.67 257.269 L2030.89 257.269 L2030.89 259.259 L2018.35 291.829 L2013.46 291.829 L2025.27 261.204 L2008.67 261.204 L2008.67 257.269 Z" fill="#000000" fill-rule="evenodd" fill-opacity="1" /><path clip-path="url(#clip530)" d="M2044.04 287.893 L2060.36 287.893 L2060.36 291.829 L2038.42 291.829 L2038.42 287.893 Q2041.08 285.139 2045.66 280.509 Q2050.27 275.856 2051.45 274.514 Q2053.69 271.991 2054.57 270.255 Q2055.48 268.495 2055.48 266.806 Q2055.48 264.051 2053.53 262.315 Q2051.61 260.579 2048.51 260.579 Q2046.31 260.579 2043.86 261.343 Q2041.42 262.107 2038.65 263.657 L2038.65 258.935 Q2041.47 257.801 2043.92 257.222 Q2046.38 256.644 2048.42 256.644 Q2053.79 256.644 2056.98 259.329 Q2060.17 262.014 2060.17 266.505 Q2060.17 268.634 2059.36 270.556 Q2058.58 272.454 2056.47 275.046 Q2055.89 275.718 2052.79 278.935 Q2049.69 282.13 2044.04 287.893 Z" fill="#000000" fill-rule="evenodd" fill-opacity="1" /><path clip-path="url(#clip530)" d="M2080.17 260.347 Q2076.56 260.347 2074.73 263.912 Q2072.93 267.454 2072.93 274.583 Q2072.93 281.69 2074.73 285.255 Q2076.56 288.796 2080.17 288.796 Q2083.81 288.796 2085.61 285.255 Q2087.44 281.69 2087.44 274.583 Q2087.44 267.454 2085.61 263.912 Q2083.81 260.347 2080.17 260.347 M2080.17 256.644 Q2085.98 256.644 2089.04 261.25 Q2092.12 265.833 2092.12 274.583 Q2092.12 283.31 2089.04 287.917 Q2085.98 292.5 2080.17 292.5 Q2074.36 292.5 2071.29 287.917 Q2068.23 283.31 2068.23 274.583 Q2068.23 265.833 2071.29 261.25 Q2074.36 256.644 2080.17 256.644 Z" fill="#000000" fill-rule="evenodd" fill-opacity="1" /><path clip-path="url(#clip530)" d="M2104.36 287.893 L2120.68 287.893 L2120.68 291.829 L2098.74 291.829 L2098.74 287.893 Q2101.4 285.139 2105.98 280.509 Q2110.59 275.856 2111.77 274.514 Q2114.02 271.991 2114.9 270.255 Q2115.8 268.495 2115.8 266.806 Q2115.8 264.051 2113.85 262.315 Q2111.93 260.579 2108.83 260.579 Q2106.63 260.579 2104.18 261.343 Q2101.75 262.107 2098.97 263.657 L2098.97 258.935 Q2101.79 257.801 2104.25 257.222 Q2106.7 256.644 2108.74 256.644 Q2114.11 256.644 2117.3 259.329 Q2120.5 262.014 2120.5 266.505 Q2120.5 268.634 2119.69 270.556 Q2118.9 272.454 2116.79 275.046 Q2116.22 275.718 2113.11 278.935 Q2110.01 282.13 2104.36 287.893 Z" fill="#000000" fill-rule="evenodd" fill-opacity="1" /><path clip-path="url(#clip530)" d="M2130.54 257.269 L2148.9 257.269 L2148.9 261.204 L2134.83 261.204 L2134.83 269.676 Q2135.85 269.329 2136.86 269.167 Q2137.88 268.982 2138.9 268.982 Q2144.69 268.982 2148.07 272.153 Q2151.45 275.324 2151.45 280.741 Q2151.45 286.319 2147.97 289.421 Q2144.5 292.5 2138.18 292.5 Q2136.01 292.5 2133.74 292.13 Q2131.49 291.759 2129.09 291.018 L2129.09 286.319 Q2131.17 287.454 2133.39 288.009 Q2135.61 288.565 2138.09 288.565 Q2142.1 288.565 2144.43 286.458 Q2146.77 284.352 2146.77 280.741 Q2146.77 277.13 2144.43 275.023 Q2142.1 272.917 2138.09 272.917 Q2136.22 272.917 2134.34 273.333 Q2132.49 273.75 2130.54 274.63 L2130.54 257.269 Z" fill="#000000" fill-rule="evenodd" fill-opacity="1" /><path clip-path="url(#clip530)" d="M2171.24 272.685 Q2168.09 272.685 2166.24 274.838 Q2164.41 276.991 2164.41 280.741 Q2164.41 284.468 2166.24 286.643 Q2168.09 288.796 2171.24 288.796 Q2174.39 288.796 2176.22 286.643 Q2178.07 284.468 2178.07 280.741 Q2178.07 276.991 2176.22 274.838 Q2174.39 272.685 2171.24 272.685 M2180.52 258.033 L2180.52 262.292 Q2178.76 261.458 2176.96 261.019 Q2175.17 260.579 2173.41 260.579 Q2168.79 260.579 2166.33 263.704 Q2163.9 266.829 2163.55 273.148 Q2164.92 271.134 2166.98 270.069 Q2169.04 268.982 2171.52 268.982 Q2176.72 268.982 2179.73 272.153 Q2182.77 275.301 2182.77 280.741 Q2182.77 286.065 2179.62 289.282 Q2176.47 292.5 2171.24 292.5 Q2165.24 292.5 2162.07 287.917 Q2158.9 283.31 2158.9 274.583 Q2158.9 266.389 2162.79 261.528 Q2166.68 256.644 2173.23 256.644 Q2174.99 256.644 2176.77 256.991 Q2178.58 257.338 2180.52 258.033 Z" fill="#000000" fill-rule="evenodd" fill-opacity="1" /><path clip-path="url(#clip530)" d="M2191.63 287.893 L2199.27 287.893 L2199.27 261.528 L2190.96 263.195 L2190.96 258.935 L2199.22 257.269 L2203.9 257.269 L2203.9 287.893 L2211.54 287.893 L2211.54 291.829 L2191.63 291.829 L2191.63 287.893 Z" fill="#000000" fill-rule="evenodd" fill-opacity="1" /><path clip-path="url(#clip530)" d="M2219.71 255.857 L2223.41 255.857 Q2226.89 261.32 2228.6 266.551 Q2230.34 271.782 2230.34 276.944 Q2230.34 282.13 2228.6 287.384 Q2226.89 292.639 2223.41 298.079 L2219.71 298.079 Q2222.79 292.778 2224.29 287.546 Q2225.82 282.292 2225.82 276.944 Q2225.82 271.597 2224.29 266.389 Q2222.79 261.181 2219.71 255.857 Z" fill="#000000" fill-rule="evenodd" fill-opacity="1" /><polyline clip-path="url(#clip530)" style="stroke:#c271d2; stroke-linecap:butt; stroke-linejoin:round; stroke-width:4; stroke-opacity:1; fill:none" points="
  1415.15,335.029 1562.06,335.029 
  "/>
<path clip-path="url(#clip530)" d="M1606.89 331.36 Q1608.49 328.489 1610.71 327.124 Q1612.93 325.758 1615.94 325.758 Q1619.99 325.758 1622.19 328.605 Q1624.39 331.429 1624.39 336.661 L1624.39 352.309 L1620.11 352.309 L1620.11 336.799 Q1620.11 333.073 1618.79 331.267 Q1617.47 329.462 1614.76 329.462 Q1611.45 329.462 1609.53 331.661 Q1607.61 333.86 1607.61 337.656 L1607.61 352.309 L1603.33 352.309 L1603.33 336.799 Q1603.33 333.049 1602.01 331.267 Q1600.69 329.462 1597.93 329.462 Q1594.67 329.462 1592.75 331.684 Q1590.83 333.883 1590.83 337.656 L1590.83 352.309 L1586.54 352.309 L1586.54 326.383 L1590.83 326.383 L1590.83 330.411 Q1592.28 328.026 1594.32 326.892 Q1596.36 325.758 1599.16 325.758 Q1601.98 325.758 1603.95 327.193 Q1605.94 328.628 1606.89 331.36 Z" fill="#000000" fill-rule="evenodd" fill-opacity="1" /><path clip-path="url(#clip530)" d="M1644.67 339.276 Q1639.51 339.276 1637.51 340.457 Q1635.52 341.637 1635.52 344.485 Q1635.52 346.753 1637.01 348.096 Q1638.51 349.415 1641.08 349.415 Q1644.62 349.415 1646.75 346.915 Q1648.9 344.392 1648.9 340.225 L1648.9 339.276 L1644.67 339.276 M1653.16 337.517 L1653.16 352.309 L1648.9 352.309 L1648.9 348.373 Q1647.45 350.735 1645.27 351.869 Q1643.09 352.98 1639.95 352.98 Q1635.96 352.98 1633.6 350.758 Q1631.26 348.512 1631.26 344.762 Q1631.26 340.387 1634.18 338.165 Q1637.12 335.943 1642.93 335.943 L1648.9 335.943 L1648.9 335.526 Q1648.9 332.587 1646.96 330.989 Q1645.04 329.369 1641.54 329.369 Q1639.32 329.369 1637.21 329.901 Q1635.11 330.434 1633.16 331.499 L1633.16 327.563 Q1635.5 326.661 1637.7 326.221 Q1639.9 325.758 1641.98 325.758 Q1647.61 325.758 1650.39 328.674 Q1653.16 331.591 1653.16 337.517 Z" fill="#000000" fill-rule="evenodd" fill-opacity="1" /><path clip-path="url(#clip530)" d="M1678.46 327.147 L1678.46 331.174 Q1676.66 330.249 1674.71 329.786 Q1672.77 329.323 1670.69 329.323 Q1667.51 329.323 1665.92 330.295 Q1664.34 331.267 1664.34 333.211 Q1664.34 334.693 1665.48 335.549 Q1666.61 336.383 1670.04 337.147 L1671.5 337.471 Q1676.03 338.443 1677.93 340.225 Q1679.85 341.985 1679.85 345.156 Q1679.85 348.767 1676.98 350.873 Q1674.13 352.98 1669.13 352.98 Q1667.05 352.98 1664.78 352.563 Q1662.54 352.17 1660.04 351.36 L1660.04 346.961 Q1662.4 348.188 1664.69 348.813 Q1666.98 349.415 1669.23 349.415 Q1672.24 349.415 1673.86 348.397 Q1675.48 347.355 1675.48 345.48 Q1675.48 343.744 1674.3 342.818 Q1673.14 341.892 1669.18 341.036 L1667.7 340.688 Q1663.74 339.855 1661.98 338.142 Q1660.22 336.406 1660.22 333.397 Q1660.22 329.739 1662.82 327.749 Q1665.41 325.758 1670.18 325.758 Q1672.54 325.758 1674.62 326.105 Q1676.7 326.452 1678.46 327.147 Z" fill="#000000" fill-rule="evenodd" fill-opacity="1" /><path clip-path="url(#clip530)" d="M1703.16 327.147 L1703.16 331.174 Q1701.36 330.249 1699.41 329.786 Q1697.47 329.323 1695.38 329.323 Q1692.21 329.323 1690.62 330.295 Q1689.04 331.267 1689.04 333.211 Q1689.04 334.693 1690.18 335.549 Q1691.31 336.383 1694.74 337.147 L1696.19 337.471 Q1700.73 338.443 1702.63 340.225 Q1704.55 341.985 1704.55 345.156 Q1704.55 348.767 1701.68 350.873 Q1698.83 352.98 1693.83 352.98 Q1691.75 352.98 1689.48 352.563 Q1687.24 352.17 1684.74 351.36 L1684.74 346.961 Q1687.1 348.188 1689.39 348.813 Q1691.68 349.415 1693.93 349.415 Q1696.94 349.415 1698.56 348.397 Q1700.18 347.355 1700.18 345.48 Q1700.18 343.744 1699 342.818 Q1697.84 341.892 1693.88 341.036 L1692.4 340.688 Q1688.44 339.855 1686.68 338.142 Q1684.92 336.406 1684.92 333.397 Q1684.92 329.739 1687.51 327.749 Q1690.11 325.758 1694.88 325.758 Q1697.24 325.758 1699.32 326.105 Q1701.4 326.452 1703.16 327.147 Z" fill="#000000" fill-rule="evenodd" fill-opacity="1" /><path clip-path="url(#clip530)" d="M1711.94 346.429 L1716.82 346.429 L1716.82 352.309 L1711.94 352.309 L1711.94 346.429 Z" fill="#000000" fill-rule="evenodd" fill-opacity="1" /><path clip-path="url(#clip530)" d="M1739.53 316.29 L1739.53 319.832 L1735.45 319.832 Q1733.16 319.832 1732.26 320.758 Q1731.38 321.684 1731.38 324.091 L1731.38 326.383 L1738.39 326.383 L1738.39 329.693 L1731.38 329.693 L1731.38 352.309 L1727.1 352.309 L1727.1 329.693 L1723.02 329.693 L1723.02 326.383 L1727.1 326.383 L1727.1 324.577 Q1727.1 320.249 1729.11 318.281 Q1731.13 316.29 1735.5 316.29 L1739.53 316.29 Z" fill="#000000" fill-rule="evenodd" fill-opacity="1" /><path clip-path="url(#clip530)" d="M1768.39 316.337 Q1765.29 321.661 1763.79 326.869 Q1762.28 332.077 1762.28 337.424 Q1762.28 342.772 1763.79 348.026 Q1765.31 353.258 1768.39 358.559 L1764.69 358.559 Q1761.22 353.119 1759.48 347.864 Q1757.77 342.61 1757.77 337.424 Q1757.77 332.262 1759.48 327.031 Q1761.19 321.8 1764.69 316.337 L1768.39 316.337 Z" fill="#000000" fill-rule="evenodd" fill-opacity="1" /><path clip-path="url(#clip530)" d="M1787.84 333.165 Q1784.69 333.165 1782.84 335.318 Q1781.01 337.471 1781.01 341.221 Q1781.01 344.948 1782.84 347.123 Q1784.69 349.276 1787.84 349.276 Q1790.99 349.276 1792.81 347.123 Q1794.67 344.948 1794.67 341.221 Q1794.67 337.471 1792.81 335.318 Q1790.99 333.165 1787.84 333.165 M1797.12 318.513 L1797.12 322.772 Q1795.36 321.938 1793.56 321.499 Q1791.77 321.059 1790.01 321.059 Q1785.38 321.059 1782.93 324.184 Q1780.5 327.309 1780.15 333.628 Q1781.52 331.614 1783.58 330.549 Q1785.64 329.462 1788.12 329.462 Q1793.32 329.462 1796.33 332.633 Q1799.37 335.781 1799.37 341.221 Q1799.37 346.545 1796.22 349.762 Q1793.07 352.98 1787.84 352.98 Q1781.84 352.98 1778.67 348.397 Q1775.5 343.79 1775.5 335.063 Q1775.5 326.869 1779.39 322.008 Q1783.28 317.124 1789.83 317.124 Q1791.59 317.124 1793.37 317.471 Q1795.18 317.818 1797.12 318.513 Z" fill="#000000" fill-rule="evenodd" fill-opacity="1" /><path clip-path="url(#clip530)" d="M1821.59 333.674 Q1824.94 334.392 1826.82 336.661 Q1828.72 338.929 1828.72 342.262 Q1828.72 347.378 1825.2 350.179 Q1821.68 352.98 1815.2 352.98 Q1813.02 352.98 1810.71 352.54 Q1808.42 352.123 1805.96 351.267 L1805.96 346.753 Q1807.91 347.887 1810.22 348.466 Q1812.54 349.045 1815.06 349.045 Q1819.46 349.045 1821.75 347.309 Q1824.06 345.573 1824.06 342.262 Q1824.06 339.207 1821.91 337.494 Q1819.78 335.758 1815.96 335.758 L1811.94 335.758 L1811.94 331.915 L1816.15 331.915 Q1819.6 331.915 1821.43 330.549 Q1823.25 329.161 1823.25 326.568 Q1823.25 323.906 1821.36 322.494 Q1819.48 321.059 1815.96 321.059 Q1814.04 321.059 1811.84 321.475 Q1809.64 321.892 1807 322.772 L1807 318.605 Q1809.67 317.864 1811.98 317.494 Q1814.32 317.124 1816.38 317.124 Q1821.7 317.124 1824.81 319.554 Q1827.91 321.962 1827.91 326.082 Q1827.91 328.952 1826.26 330.943 Q1824.62 332.911 1821.59 333.674 Z" fill="#000000" fill-rule="evenodd" fill-opacity="1" /><path clip-path="url(#clip530)" d="M1836.4 317.749 L1858.62 317.749 L1858.62 319.739 L1846.08 352.309 L1841.19 352.309 L1853 321.684 L1836.4 321.684 L1836.4 317.749 Z" fill="#000000" fill-rule="evenodd" fill-opacity="1" /><path clip-path="url(#clip530)" d="M1867.79 317.749 L1886.15 317.749 L1886.15 321.684 L1872.07 321.684 L1872.07 330.156 Q1873.09 329.809 1874.11 329.647 Q1875.13 329.462 1876.15 329.462 Q1881.93 329.462 1885.31 332.633 Q1888.69 335.804 1888.69 341.221 Q1888.69 346.799 1885.22 349.901 Q1881.75 352.98 1875.43 352.98 Q1873.25 352.98 1870.99 352.61 Q1868.74 352.239 1866.33 351.498 L1866.33 346.799 Q1868.42 347.934 1870.64 348.489 Q1872.86 349.045 1875.34 349.045 Q1879.34 349.045 1881.68 346.938 Q1884.02 344.832 1884.02 341.221 Q1884.02 337.61 1881.68 335.503 Q1879.34 333.397 1875.34 333.397 Q1873.46 333.397 1871.59 333.813 Q1869.74 334.23 1867.79 335.11 L1867.79 317.749 Z" fill="#000000" fill-rule="evenodd" fill-opacity="1" /><path clip-path="url(#clip530)" d="M1912.07 333.674 Q1915.43 334.392 1917.3 336.661 Q1919.2 338.929 1919.2 342.262 Q1919.2 347.378 1915.68 350.179 Q1912.17 352.98 1905.68 352.98 Q1903.51 352.98 1901.19 352.54 Q1898.9 352.123 1896.45 351.267 L1896.45 346.753 Q1898.39 347.887 1900.71 348.466 Q1903.02 349.045 1905.55 349.045 Q1909.94 349.045 1912.24 347.309 Q1914.55 345.573 1914.55 342.262 Q1914.55 339.207 1912.4 337.494 Q1910.27 335.758 1906.45 335.758 L1902.42 335.758 L1902.42 331.915 L1906.63 331.915 Q1910.08 331.915 1911.91 330.549 Q1913.74 329.161 1913.74 326.568 Q1913.74 323.906 1911.84 322.494 Q1909.97 321.059 1906.45 321.059 Q1904.53 321.059 1902.33 321.475 Q1900.13 321.892 1897.49 322.772 L1897.49 318.605 Q1900.15 317.864 1902.47 317.494 Q1904.8 317.124 1906.87 317.124 Q1912.19 317.124 1915.29 319.554 Q1918.39 321.962 1918.39 326.082 Q1918.39 328.952 1916.75 330.943 Q1915.11 332.911 1912.07 333.674 Z" fill="#000000" fill-rule="evenodd" fill-opacity="1" /><path clip-path="url(#clip530)" d="M1940.92 321.823 L1929.11 340.272 L1940.92 340.272 L1940.92 321.823 M1939.69 317.749 L1945.57 317.749 L1945.57 340.272 L1950.5 340.272 L1950.5 344.161 L1945.57 344.161 L1945.57 352.309 L1940.92 352.309 L1940.92 344.161 L1925.31 344.161 L1925.31 339.647 L1939.69 317.749 Z" fill="#000000" fill-rule="evenodd" fill-opacity="1" /><path clip-path="url(#clip530)" d="M1962.26 348.373 L1978.58 348.373 L1978.58 352.309 L1956.63 352.309 L1956.63 348.373 Q1959.3 345.619 1963.88 340.989 Q1968.49 336.336 1969.67 334.994 Q1971.91 332.471 1972.79 330.735 Q1973.69 328.975 1973.69 327.286 Q1973.69 324.531 1971.75 322.795 Q1969.83 321.059 1966.73 321.059 Q1964.53 321.059 1962.07 321.823 Q1959.64 322.587 1956.86 324.137 L1956.86 319.415 Q1959.69 318.281 1962.14 317.702 Q1964.6 317.124 1966.63 317.124 Q1972 317.124 1975.2 319.809 Q1978.39 322.494 1978.39 326.985 Q1978.39 329.114 1977.58 331.036 Q1976.8 332.934 1974.69 335.526 Q1974.11 336.198 1971.01 339.415 Q1967.91 342.61 1962.26 348.373 Z" fill="#000000" fill-rule="evenodd" fill-opacity="1" /><path clip-path="url(#clip530)" d="M1989.2 348.373 L1996.84 348.373 L1996.84 322.008 L1988.53 323.675 L1988.53 319.415 L1996.8 317.749 L2001.47 317.749 L2001.47 348.373 L2009.11 348.373 L2009.11 352.309 L1989.2 352.309 L1989.2 348.373 Z" fill="#000000" fill-rule="evenodd" fill-opacity="1" /><path clip-path="url(#clip530)" d="M2019.36 348.373 L2027 348.373 L2027 322.008 L2018.69 323.675 L2018.69 319.415 L2026.96 317.749 L2031.63 317.749 L2031.63 348.373 L2039.27 348.373 L2039.27 352.309 L2019.36 352.309 L2019.36 348.373 Z" fill="#000000" fill-rule="evenodd" fill-opacity="1" /><path clip-path="url(#clip530)" d="M2047.44 316.337 L2051.15 316.337 Q2054.62 321.8 2056.33 327.031 Q2058.07 332.262 2058.07 337.424 Q2058.07 342.61 2056.33 347.864 Q2054.62 353.119 2051.15 358.559 L2047.44 358.559 Q2050.52 353.258 2052.03 348.026 Q2053.55 342.772 2053.55 337.424 Q2053.55 332.077 2052.03 326.869 Q2050.52 321.661 2047.44 316.337 Z" fill="#000000" fill-rule="evenodd" fill-opacity="1" /></svg>
