<?xml version="1.0" encoding="utf-8"?>
<svg xmlns="http://www.w3.org/2000/svg" xmlns:xlink="http://www.w3.org/1999/xlink" width="600" height="400" viewBox="0 0 2400 1600">
<defs>
  <clipPath id="clip750">
    <rect x="0" y="0" width="2400" height="1600"/>
  </clipPath>
</defs>
<path clip-path="url(#clip750)" d="
M0 1600 L2400 1600 L2400 0 L0 0  Z
  " fill="#ffffff" fill-rule="evenodd" fill-opacity="1"/>
<defs>
  <clipPath id="clip751">
    <rect x="480" y="0" width="1681" height="1600"/>
  </clipPath>
</defs>
<path clip-path="url(#clip750)" d="
M315.239 1401.58 L2352.76 1401.58 L2352.76 123.472 L315.239 123.472  Z
  " fill="#ffffff" fill-rule="evenodd" fill-opacity="1"/>
<defs>
  <clipPath id="clip752">
    <rect x="315" y="123" width="2039" height="1279"/>
  </clipPath>
</defs>
<polyline clip-path="url(#clip752)" style="stroke:#000000; stroke-linecap:butt; stroke-linejoin:round; stroke-width:2; stroke-opacity:0.1; fill:none" points="
  518.991,1401.58 518.991,123.472 
  "/>
<polyline clip-path="url(#clip752)" style="stroke:#000000; stroke-linecap:butt; stroke-linejoin:round; stroke-width:2; stroke-opacity:0.1; fill:none" points="
  926.494,1401.58 926.494,123.472 
  "/>
<polyline clip-path="url(#clip752)" style="stroke:#000000; stroke-linecap:butt; stroke-linejoin:round; stroke-width:2; stroke-opacity:0.1; fill:none" points="
  1334,1401.58 1334,123.472 
  "/>
<polyline clip-path="url(#clip752)" style="stroke:#000000; stroke-linecap:butt; stroke-linejoin:round; stroke-width:2; stroke-opacity:0.1; fill:none" points="
  1741.5,1401.58 1741.5,123.472 
  "/>
<polyline clip-path="url(#clip752)" style="stroke:#000000; stroke-linecap:butt; stroke-linejoin:round; stroke-width:2; stroke-opacity:0.1; fill:none" points="
  2149,1401.58 2149,123.472 
  "/>
<polyline clip-path="url(#clip750)" style="stroke:#000000; stroke-linecap:butt; stroke-linejoin:round; stroke-width:4; stroke-opacity:1; fill:none" points="
  315.239,1401.58 2352.76,1401.58 
  "/>
<polyline clip-path="url(#clip750)" style="stroke:#000000; stroke-linecap:butt; stroke-linejoin:round; stroke-width:4; stroke-opacity:1; fill:none" points="
  518.991,1401.58 518.991,1382.68 
  "/>
<polyline clip-path="url(#clip750)" style="stroke:#000000; stroke-linecap:butt; stroke-linejoin:round; stroke-width:4; stroke-opacity:1; fill:none" points="
  926.494,1401.58 926.494,1382.68 
  "/>
<polyline clip-path="url(#clip750)" style="stroke:#000000; stroke-linecap:butt; stroke-linejoin:round; stroke-width:4; stroke-opacity:1; fill:none" points="
  1334,1401.58 1334,1382.68 
  "/>
<polyline clip-path="url(#clip750)" style="stroke:#000000; stroke-linecap:butt; stroke-linejoin:round; stroke-width:4; stroke-opacity:1; fill:none" points="
  1741.5,1401.58 1741.5,1382.68 
  "/>
<polyline clip-path="url(#clip750)" style="stroke:#000000; stroke-linecap:butt; stroke-linejoin:round; stroke-width:4; stroke-opacity:1; fill:none" points="
  2149,1401.58 2149,1382.68 
  "/>
<path clip-path="url(#clip750)" d="M438.783 1460.34 L483.296 1460.34 L483.296 1466.24 L438.783 1466.24 L438.783 1460.34 Z" fill="#000000" fill-rule="evenodd" fill-opacity="1" /><path clip-path="url(#clip750)" d="M499.651 1479.68 L511.109 1479.68 L511.109 1440.13 L498.644 1442.63 L498.644 1436.24 L511.039 1433.74 L518.053 1433.74 L518.053 1479.68 L529.511 1479.68 L529.511 1485.58 L499.651 1485.58 L499.651 1479.68 Z" fill="#000000" fill-rule="evenodd" fill-opacity="1" /><path clip-path="url(#clip750)" d="M543.678 1476.76 L551.004 1476.76 L551.004 1485.58 L543.678 1485.58 L543.678 1476.76 Z" fill="#000000" fill-rule="evenodd" fill-opacity="1" /><path clip-path="url(#clip750)" d="M581.282 1438.36 Q575.865 1438.36 573.122 1443.71 Q570.414 1449.02 570.414 1459.71 Q570.414 1470.37 573.122 1475.72 Q575.865 1481.03 581.282 1481.03 Q586.733 1481.03 589.442 1475.72 Q592.185 1470.37 592.185 1459.71 Q592.185 1449.02 589.442 1443.71 Q586.733 1438.36 581.282 1438.36 M581.282 1432.8 Q589.997 1432.8 594.581 1439.71 Q599.199 1446.59 599.199 1459.71 Q599.199 1472.8 594.581 1479.71 Q589.997 1486.59 581.282 1486.59 Q572.567 1486.59 567.949 1479.71 Q563.365 1472.8 563.365 1459.71 Q563.365 1446.59 567.949 1439.71 Q572.567 1432.8 581.282 1432.8 Z" fill="#000000" fill-rule="evenodd" fill-opacity="1" /><path clip-path="url(#clip750)" d="M847.033 1460.34 L891.546 1460.34 L891.546 1466.24 L847.033 1466.24 L847.033 1460.34 Z" fill="#000000" fill-rule="evenodd" fill-opacity="1" /><path clip-path="url(#clip750)" d="M921.685 1438.36 Q916.268 1438.36 913.525 1443.71 Q910.817 1449.02 910.817 1459.71 Q910.817 1470.37 913.525 1475.72 Q916.268 1481.03 921.685 1481.03 Q927.136 1481.03 929.845 1475.72 Q932.588 1470.37 932.588 1459.71 Q932.588 1449.02 929.845 1443.71 Q927.136 1438.36 921.685 1438.36 M921.685 1432.8 Q930.4 1432.8 934.984 1439.71 Q939.602 1446.59 939.602 1459.71 Q939.602 1472.8 934.984 1479.71 Q930.4 1486.59 921.685 1486.59 Q912.97 1486.59 908.352 1479.71 Q903.769 1472.8 903.769 1459.71 Q903.769 1446.59 908.352 1439.71 Q912.97 1432.8 921.685 1432.8 Z" fill="#000000" fill-rule="evenodd" fill-opacity="1" /><path clip-path="url(#clip750)" d="M951.928 1476.76 L959.254 1476.76 L959.254 1485.58 L951.928 1485.58 L951.928 1476.76 Z" fill="#000000" fill-rule="evenodd" fill-opacity="1" /><path clip-path="url(#clip750)" d="M974.601 1433.74 L1002.14 1433.74 L1002.14 1439.64 L981.025 1439.64 L981.025 1452.35 Q982.553 1451.83 984.081 1451.59 Q985.608 1451.31 987.136 1451.31 Q995.817 1451.31 1000.89 1456.07 Q1005.96 1460.82 1005.96 1468.95 Q1005.96 1477.32 1000.75 1481.97 Q995.539 1486.59 986.06 1486.59 Q982.796 1486.59 979.393 1486.03 Q976.025 1485.48 972.414 1484.36 L972.414 1477.32 Q975.539 1479.02 978.872 1479.85 Q982.206 1480.68 985.921 1480.68 Q991.928 1480.68 995.435 1477.52 Q998.942 1474.36 998.942 1468.95 Q998.942 1463.53 995.435 1460.37 Q991.928 1457.21 985.921 1457.21 Q983.108 1457.21 980.296 1457.84 Q977.518 1458.46 974.601 1459.78 L974.601 1433.74 Z" fill="#000000" fill-rule="evenodd" fill-opacity="1" /><path clip-path="url(#clip750)" d="M1300.07 1438.36 Q1294.66 1438.36 1291.91 1443.71 Q1289.21 1449.02 1289.21 1459.71 Q1289.21 1470.37 1291.91 1475.72 Q1294.66 1481.03 1300.07 1481.03 Q1305.53 1481.03 1308.23 1475.72 Q1310.98 1470.37 1310.98 1459.71 Q1310.98 1449.02 1308.23 1443.71 Q1305.53 1438.36 1300.07 1438.36 M1300.07 1432.8 Q1308.79 1432.8 1313.37 1439.71 Q1317.99 1446.59 1317.99 1459.71 Q1317.99 1472.8 1313.37 1479.71 Q1308.79 1486.59 1300.07 1486.59 Q1291.36 1486.59 1286.74 1479.71 Q1282.16 1472.8 1282.16 1459.71 Q1282.16 1446.59 1286.74 1439.71 Q1291.36 1432.8 1300.07 1432.8 Z" fill="#000000" fill-rule="evenodd" fill-opacity="1" /><path clip-path="url(#clip750)" d="M1330.32 1476.76 L1337.64 1476.76 L1337.64 1485.58 L1330.32 1485.58 L1330.32 1476.76 Z" fill="#000000" fill-rule="evenodd" fill-opacity="1" /><path clip-path="url(#clip750)" d="M1367.92 1438.36 Q1362.5 1438.36 1359.76 1443.71 Q1357.05 1449.02 1357.05 1459.71 Q1357.05 1470.37 1359.76 1475.72 Q1362.5 1481.03 1367.92 1481.03 Q1373.37 1481.03 1376.08 1475.72 Q1378.82 1470.37 1378.82 1459.71 Q1378.82 1449.02 1376.08 1443.71 Q1373.37 1438.36 1367.92 1438.36 M1367.92 1432.8 Q1376.64 1432.8 1381.22 1439.71 Q1385.84 1446.59 1385.84 1459.71 Q1385.84 1472.8 1381.22 1479.71 Q1376.64 1486.59 1367.92 1486.59 Q1359.21 1486.59 1354.59 1479.71 Q1350 1472.8 1350 1459.71 Q1350 1446.59 1354.59 1439.71 Q1359.21 1432.8 1367.92 1432.8 Z" fill="#000000" fill-rule="evenodd" fill-opacity="1" /><path clip-path="url(#clip750)" d="M1708.32 1438.36 Q1702.91 1438.36 1700.16 1443.71 Q1697.46 1449.02 1697.46 1459.71 Q1697.46 1470.37 1700.16 1475.72 Q1702.91 1481.03 1708.32 1481.03 Q1713.78 1481.03 1716.48 1475.72 Q1719.23 1470.37 1719.23 1459.71 Q1719.23 1449.02 1716.48 1443.71 Q1713.78 1438.36 1708.32 1438.36 M1708.32 1432.8 Q1717.04 1432.8 1721.62 1439.71 Q1726.24 1446.59 1726.24 1459.71 Q1726.24 1472.8 1721.62 1479.71 Q1717.04 1486.59 1708.32 1486.59 Q1699.61 1486.59 1694.99 1479.71 Q1690.41 1472.8 1690.41 1459.71 Q1690.41 1446.59 1694.99 1439.71 Q1699.61 1432.8 1708.32 1432.8 Z" fill="#000000" fill-rule="evenodd" fill-opacity="1" /><path clip-path="url(#clip750)" d="M1738.57 1476.76 L1745.89 1476.76 L1745.89 1485.58 L1738.57 1485.58 L1738.57 1476.76 Z" fill="#000000" fill-rule="evenodd" fill-opacity="1" /><path clip-path="url(#clip750)" d="M1761.24 1433.74 L1788.77 1433.74 L1788.77 1439.64 L1767.66 1439.64 L1767.66 1452.35 Q1769.19 1451.83 1770.72 1451.59 Q1772.25 1451.31 1773.77 1451.31 Q1782.46 1451.31 1787.52 1456.07 Q1792.59 1460.82 1792.59 1468.95 Q1792.59 1477.32 1787.39 1481.97 Q1782.18 1486.59 1772.7 1486.59 Q1769.43 1486.59 1766.03 1486.03 Q1762.66 1485.48 1759.05 1484.36 L1759.05 1477.32 Q1762.18 1479.02 1765.51 1479.85 Q1768.84 1480.68 1772.56 1480.68 Q1778.57 1480.68 1782.07 1477.52 Q1785.58 1474.36 1785.58 1468.95 Q1785.58 1463.53 1782.07 1460.37 Q1778.57 1457.21 1772.56 1457.21 Q1769.75 1457.21 1766.93 1457.84 Q1764.16 1458.46 1761.24 1459.78 L1761.24 1433.74 Z" fill="#000000" fill-rule="evenodd" fill-opacity="1" /><path clip-path="url(#clip750)" d="M2099.73 1479.68 L2111.19 1479.68 L2111.19 1440.13 L2098.73 1442.63 L2098.73 1436.24 L2111.12 1433.74 L2118.14 1433.74 L2118.14 1479.68 L2129.59 1479.68 L2129.59 1485.58 L2099.73 1485.58 L2099.73 1479.68 Z" fill="#000000" fill-rule="evenodd" fill-opacity="1" /><path clip-path="url(#clip750)" d="M2143.76 1476.76 L2151.09 1476.76 L2151.09 1485.58 L2143.76 1485.58 L2143.76 1476.76 Z" fill="#000000" fill-rule="evenodd" fill-opacity="1" /><path clip-path="url(#clip750)" d="M2181.37 1438.36 Q2175.95 1438.36 2173.21 1443.71 Q2170.5 1449.02 2170.5 1459.71 Q2170.5 1470.37 2173.21 1475.72 Q2175.95 1481.03 2181.37 1481.03 Q2186.82 1481.03 2189.52 1475.72 Q2192.27 1470.37 2192.27 1459.71 Q2192.27 1449.02 2189.52 1443.71 Q2186.82 1438.36 2181.37 1438.36 M2181.37 1432.8 Q2190.08 1432.8 2194.66 1439.71 Q2199.28 1446.59 2199.28 1459.71 Q2199.28 1472.8 2194.66 1479.71 Q2190.08 1486.59 2181.37 1486.59 Q2172.65 1486.59 2168.03 1479.71 Q2163.45 1472.8 2163.45 1459.71 Q2163.45 1446.59 2168.03 1439.71 Q2172.65 1432.8 2181.37 1432.8 Z" fill="#000000" fill-rule="evenodd" fill-opacity="1" /><path clip-path="url(#clip750)" d="M1212.89 1538.66 L1219.66 1538.66 L1231.81 1571.3 L1243.96 1538.66 L1250.73 1538.66 L1236.15 1577.55 L1227.47 1577.55 L1212.89 1538.66 Z" fill="#000000" fill-rule="evenodd" fill-opacity="1" /><path clip-path="url(#clip750)" d="M1281.57 1523.52 L1296.29 1523.52 L1296.29 1528.49 L1287.96 1528.49 L1287.96 1581.96 L1296.29 1581.96 L1296.29 1586.92 L1281.57 1586.92 L1281.57 1523.52 Z" fill="#000000" fill-rule="evenodd" fill-opacity="1" /><path clip-path="url(#clip750)" d="M1340.18 1546.12 Q1342.57 1541.82 1345.91 1539.77 Q1349.24 1537.72 1353.75 1537.72 Q1359.83 1537.72 1363.13 1541.99 Q1366.43 1546.23 1366.43 1554.08 L1366.43 1577.55 L1360 1577.55 L1360 1554.28 Q1360 1548.69 1358.03 1545.99 Q1356.05 1543.28 1351.98 1543.28 Q1347.02 1543.28 1344.14 1546.58 Q1341.25 1549.87 1341.25 1555.57 L1341.25 1577.55 L1334.83 1577.55 L1334.83 1554.28 Q1334.83 1548.66 1332.85 1545.99 Q1330.87 1543.28 1326.74 1543.28 Q1321.84 1543.28 1318.96 1546.61 Q1316.08 1549.91 1316.08 1555.57 L1316.08 1577.55 L1309.66 1577.55 L1309.66 1538.66 L1316.08 1538.66 L1316.08 1544.7 Q1318.27 1541.12 1321.32 1539.42 Q1324.38 1537.72 1328.58 1537.72 Q1332.82 1537.72 1335.77 1539.87 Q1338.75 1542.03 1340.18 1546.12 Z" fill="#000000" fill-rule="evenodd" fill-opacity="1" /><path clip-path="url(#clip750)" d="M1390.52 1525.71 L1396.43 1525.71 L1378.37 1584.15 L1372.47 1584.15 L1390.52 1525.71 Z" fill="#000000" fill-rule="evenodd" fill-opacity="1" /><path clip-path="url(#clip750)" d="M1427.92 1539.8 L1427.92 1545.85 Q1425.21 1544.46 1422.3 1543.76 Q1419.38 1543.07 1416.25 1543.07 Q1411.5 1543.07 1409.1 1544.53 Q1406.74 1545.99 1406.74 1548.9 Q1406.74 1551.12 1408.44 1552.41 Q1410.14 1553.66 1415.28 1554.8 L1417.47 1555.29 Q1424.27 1556.75 1427.12 1559.42 Q1430 1562.06 1430 1566.82 Q1430 1572.24 1425.7 1575.4 Q1421.43 1578.55 1413.93 1578.55 Q1410.8 1578.55 1407.4 1577.93 Q1404.03 1577.34 1400.28 1576.12 L1400.28 1569.53 Q1403.82 1571.37 1407.26 1572.3 Q1410.7 1573.21 1414.07 1573.21 Q1418.58 1573.21 1421.01 1571.68 Q1423.44 1570.12 1423.44 1567.3 Q1423.44 1564.7 1421.67 1563.31 Q1419.93 1561.92 1414 1560.64 L1411.77 1560.12 Q1405.84 1558.87 1403.2 1556.3 Q1400.56 1553.69 1400.56 1549.18 Q1400.56 1543.69 1404.45 1540.71 Q1408.34 1537.72 1415.49 1537.72 Q1419.03 1537.72 1422.16 1538.24 Q1425.28 1538.76 1427.92 1539.8 Z" fill="#000000" fill-rule="evenodd" fill-opacity="1" /><path clip-path="url(#clip750)" d="M1455.11 1523.52 L1455.11 1586.92 L1440.39 1586.92 L1440.39 1581.96 L1448.68 1581.96 L1448.68 1528.49 L1440.39 1528.49 L1440.39 1523.52 L1455.11 1523.52 Z" fill="#000000" fill-rule="evenodd" fill-opacity="1" /><polyline clip-path="url(#clip752)" style="stroke:#000000; stroke-linecap:butt; stroke-linejoin:round; stroke-width:2; stroke-opacity:0.1; fill:none" points="
  315.239,1259.09 2352.76,1259.09 
  "/>
<polyline clip-path="url(#clip752)" style="stroke:#000000; stroke-linecap:butt; stroke-linejoin:round; stroke-width:2; stroke-opacity:0.1; fill:none" points="
  315.239,1028.11 2352.76,1028.11 
  "/>
<polyline clip-path="url(#clip752)" style="stroke:#000000; stroke-linecap:butt; stroke-linejoin:round; stroke-width:2; stroke-opacity:0.1; fill:none" points="
  315.239,797.13 2352.76,797.13 
  "/>
<polyline clip-path="url(#clip752)" style="stroke:#000000; stroke-linecap:butt; stroke-linejoin:round; stroke-width:2; stroke-opacity:0.1; fill:none" points="
  315.239,566.148 2352.76,566.148 
  "/>
<polyline clip-path="url(#clip752)" style="stroke:#000000; stroke-linecap:butt; stroke-linejoin:round; stroke-width:2; stroke-opacity:0.1; fill:none" points="
  315.239,335.166 2352.76,335.166 
  "/>
<polyline clip-path="url(#clip750)" style="stroke:#000000; stroke-linecap:butt; stroke-linejoin:round; stroke-width:4; stroke-opacity:1; fill:none" points="
  315.239,1401.58 315.239,123.472 
  "/>
<polyline clip-path="url(#clip750)" style="stroke:#000000; stroke-linecap:butt; stroke-linejoin:round; stroke-width:4; stroke-opacity:1; fill:none" points="
  315.239,1259.09 334.137,1259.09 
  "/>
<polyline clip-path="url(#clip750)" style="stroke:#000000; stroke-linecap:butt; stroke-linejoin:round; stroke-width:4; stroke-opacity:1; fill:none" points="
  315.239,1028.11 334.137,1028.11 
  "/>
<polyline clip-path="url(#clip750)" style="stroke:#000000; stroke-linecap:butt; stroke-linejoin:round; stroke-width:4; stroke-opacity:1; fill:none" points="
  315.239,797.13 334.137,797.13 
  "/>
<polyline clip-path="url(#clip750)" style="stroke:#000000; stroke-linecap:butt; stroke-linejoin:round; stroke-width:4; stroke-opacity:1; fill:none" points="
  315.239,566.148 334.137,566.148 
  "/>
<polyline clip-path="url(#clip750)" style="stroke:#000000; stroke-linecap:butt; stroke-linejoin:round; stroke-width:4; stroke-opacity:1; fill:none" points="
  315.239,335.166 334.137,335.166 
  "/>
<path clip-path="url(#clip750)" d="M118.58 1259.77 L163.094 1259.77 L163.094 1265.67 L118.58 1265.67 L118.58 1259.77 Z" fill="#000000" fill-rule="evenodd" fill-opacity="1" /><path clip-path="url(#clip750)" d="M193.233 1237.79 Q187.816 1237.79 185.073 1243.14 Q182.365 1248.45 182.365 1259.15 Q182.365 1269.81 185.073 1275.15 Q187.816 1280.47 193.233 1280.47 Q198.684 1280.47 201.392 1275.15 Q204.135 1269.81 204.135 1259.15 Q204.135 1248.45 201.392 1243.14 Q198.684 1237.79 193.233 1237.79 M193.233 1232.24 Q201.948 1232.24 206.531 1239.15 Q211.149 1246.02 211.149 1259.15 Q211.149 1272.24 206.531 1279.15 Q201.948 1286.02 193.233 1286.02 Q184.517 1286.02 179.899 1279.15 Q175.316 1272.24 175.316 1259.15 Q175.316 1246.02 179.899 1239.15 Q184.517 1232.24 193.233 1232.24 Z" fill="#000000" fill-rule="evenodd" fill-opacity="1" /><path clip-path="url(#clip750)" d="M223.475 1276.2 L230.802 1276.2 L230.802 1285.01 L223.475 1285.01 L223.475 1276.2 Z" fill="#000000" fill-rule="evenodd" fill-opacity="1" /><path clip-path="url(#clip750)" d="M261.947 1256.3 Q257.225 1256.3 254.447 1259.53 Q251.704 1262.76 251.704 1268.38 Q251.704 1273.97 254.447 1277.24 Q257.225 1280.47 261.947 1280.47 Q266.67 1280.47 269.413 1277.24 Q272.19 1273.97 272.19 1268.38 Q272.19 1262.76 269.413 1259.53 Q266.67 1256.3 261.947 1256.3 M275.871 1234.32 L275.871 1240.71 Q273.232 1239.46 270.524 1238.8 Q267.85 1238.14 265.211 1238.14 Q258.267 1238.14 254.586 1242.83 Q250.941 1247.52 250.42 1256.99 Q252.468 1253.97 255.559 1252.38 Q258.649 1250.74 262.364 1250.74 Q270.177 1250.74 274.69 1255.5 Q279.239 1260.22 279.239 1268.38 Q279.239 1276.37 274.517 1281.2 Q269.795 1286.02 261.947 1286.02 Q252.954 1286.02 248.198 1279.15 Q243.441 1272.24 243.441 1259.15 Q243.441 1246.86 249.274 1239.56 Q255.107 1232.24 264.934 1232.24 Q267.572 1232.24 270.246 1232.76 Q272.954 1233.28 275.871 1234.32 Z" fill="#000000" fill-rule="evenodd" fill-opacity="1" /><path clip-path="url(#clip750)" d="M119.795 1028.79 L164.309 1028.79 L164.309 1034.69 L119.795 1034.69 L119.795 1028.79 Z" fill="#000000" fill-rule="evenodd" fill-opacity="1" /><path clip-path="url(#clip750)" d="M194.448 1006.81 Q189.031 1006.81 186.288 1012.16 Q183.58 1017.47 183.58 1028.16 Q183.58 1038.82 186.288 1044.17 Q189.031 1049.48 194.448 1049.48 Q199.899 1049.48 202.607 1044.17 Q205.351 1038.82 205.351 1028.16 Q205.351 1017.47 202.607 1012.16 Q199.899 1006.81 194.448 1006.81 M194.448 1001.26 Q203.163 1001.26 207.746 1008.16 Q212.364 1015.04 212.364 1028.16 Q212.364 1041.25 207.746 1048.16 Q203.163 1055.04 194.448 1055.04 Q185.733 1055.04 181.115 1048.16 Q176.531 1041.25 176.531 1028.16 Q176.531 1015.04 181.115 1008.16 Q185.733 1001.26 194.448 1001.26 Z" fill="#000000" fill-rule="evenodd" fill-opacity="1" /><path clip-path="url(#clip750)" d="M224.691 1045.21 L232.017 1045.21 L232.017 1054.03 L224.691 1054.03 L224.691 1045.21 Z" fill="#000000" fill-rule="evenodd" fill-opacity="1" /><path clip-path="url(#clip750)" d="M268.545 1026.08 Q273.579 1027.16 276.392 1030.56 Q279.239 1033.96 279.239 1038.96 Q279.239 1046.64 273.961 1050.84 Q268.684 1055.04 258.961 1055.04 Q255.697 1055.04 252.225 1054.38 Q248.788 1053.75 245.107 1052.47 L245.107 1045.7 Q248.024 1047.4 251.496 1048.27 Q254.968 1049.14 258.753 1049.14 Q265.35 1049.14 268.788 1046.53 Q272.26 1043.93 272.26 1038.96 Q272.26 1034.38 269.031 1031.81 Q265.836 1029.21 260.107 1029.21 L254.066 1029.21 L254.066 1023.44 L260.385 1023.44 Q265.559 1023.44 268.302 1021.39 Q271.045 1019.31 271.045 1015.42 Q271.045 1011.43 268.197 1009.31 Q265.385 1007.16 260.107 1007.16 Q257.225 1007.16 253.927 1007.78 Q250.628 1008.41 246.67 1009.73 L246.67 1003.48 Q250.663 1002.37 254.135 1001.81 Q257.642 1001.26 260.732 1001.26 Q268.718 1001.26 273.371 1004.9 Q278.024 1008.51 278.024 1014.69 Q278.024 1019 275.558 1021.98 Q273.093 1024.94 268.545 1026.08 Z" fill="#000000" fill-rule="evenodd" fill-opacity="1" /><path clip-path="url(#clip750)" d="M193.476 775.828 Q188.059 775.828 185.316 781.176 Q182.608 786.488 182.608 797.182 Q182.608 807.842 185.316 813.189 Q188.059 818.502 193.476 818.502 Q198.927 818.502 201.635 813.189 Q204.378 807.842 204.378 797.182 Q204.378 786.488 201.635 781.176 Q198.927 775.828 193.476 775.828 M193.476 770.273 Q202.191 770.273 206.774 777.182 Q211.392 784.057 211.392 797.182 Q211.392 810.273 206.774 817.182 Q202.191 824.057 193.476 824.057 Q184.76 824.057 180.142 817.182 Q175.559 810.273 175.559 797.182 Q175.559 784.057 180.142 777.182 Q184.76 770.273 193.476 770.273 Z" fill="#000000" fill-rule="evenodd" fill-opacity="1" /><path clip-path="url(#clip750)" d="M223.718 814.231 L231.045 814.231 L231.045 823.05 L223.718 823.05 L223.718 814.231 Z" fill="#000000" fill-rule="evenodd" fill-opacity="1" /><path clip-path="url(#clip750)" d="M261.322 775.828 Q255.906 775.828 253.163 781.176 Q250.454 786.488 250.454 797.182 Q250.454 807.842 253.163 813.189 Q255.906 818.502 261.322 818.502 Q266.774 818.502 269.482 813.189 Q272.225 807.842 272.225 797.182 Q272.225 786.488 269.482 781.176 Q266.774 775.828 261.322 775.828 M261.322 770.273 Q270.038 770.273 274.621 777.182 Q279.239 784.057 279.239 797.182 Q279.239 810.273 274.621 817.182 Q270.038 824.057 261.322 824.057 Q252.607 824.057 247.989 817.182 Q243.406 810.273 243.406 797.182 Q243.406 784.057 247.989 777.182 Q252.607 770.273 261.322 770.273 Z" fill="#000000" fill-rule="evenodd" fill-opacity="1" /><path clip-path="url(#clip750)" d="M194.448 544.846 Q189.031 544.846 186.288 550.193 Q183.58 555.506 183.58 566.2 Q183.58 576.86 186.288 582.207 Q189.031 587.519 194.448 587.519 Q199.899 587.519 202.607 582.207 Q205.351 576.86 205.351 566.2 Q205.351 555.506 202.607 550.193 Q199.899 544.846 194.448 544.846 M194.448 539.291 Q203.163 539.291 207.746 546.2 Q212.364 553.075 212.364 566.2 Q212.364 579.29 207.746 586.2 Q203.163 593.075 194.448 593.075 Q185.733 593.075 181.115 586.2 Q176.531 579.29 176.531 566.2 Q176.531 553.075 181.115 546.2 Q185.733 539.291 194.448 539.291 Z" fill="#000000" fill-rule="evenodd" fill-opacity="1" /><path clip-path="url(#clip750)" d="M224.691 583.249 L232.017 583.249 L232.017 592.068 L224.691 592.068 L224.691 583.249 Z" fill="#000000" fill-rule="evenodd" fill-opacity="1" /><path clip-path="url(#clip750)" d="M268.545 564.117 Q273.579 565.193 276.392 568.596 Q279.239 571.999 279.239 576.999 Q279.239 584.672 273.961 588.874 Q268.684 593.075 258.961 593.075 Q255.697 593.075 252.225 592.415 Q248.788 591.79 245.107 590.506 L245.107 583.735 Q248.024 585.436 251.496 586.304 Q254.968 587.172 258.753 587.172 Q265.35 587.172 268.788 584.568 Q272.26 581.964 272.26 576.999 Q272.26 572.415 269.031 569.846 Q265.836 567.242 260.107 567.242 L254.066 567.242 L254.066 561.478 L260.385 561.478 Q265.559 561.478 268.302 559.429 Q271.045 557.346 271.045 553.457 Q271.045 549.464 268.197 547.346 Q265.385 545.193 260.107 545.193 Q257.225 545.193 253.927 545.818 Q250.628 546.443 246.67 547.763 L246.67 541.513 Q250.663 540.402 254.135 539.846 Q257.642 539.291 260.732 539.291 Q268.718 539.291 273.371 542.936 Q278.024 546.547 278.024 552.728 Q278.024 557.033 275.558 560.02 Q273.093 562.971 268.545 564.117 Z" fill="#000000" fill-rule="evenodd" fill-opacity="1" /><path clip-path="url(#clip750)" d="M193.233 313.864 Q187.816 313.864 185.073 319.211 Q182.365 324.523 182.365 335.218 Q182.365 345.877 185.073 351.225 Q187.816 356.537 193.233 356.537 Q198.684 356.537 201.392 351.225 Q204.135 345.877 204.135 335.218 Q204.135 324.523 201.392 319.211 Q198.684 313.864 193.233 313.864 M193.233 308.308 Q201.948 308.308 206.531 315.218 Q211.149 322.093 211.149 335.218 Q211.149 348.308 206.531 355.218 Q201.948 362.093 193.233 362.093 Q184.517 362.093 179.899 355.218 Q175.316 348.308 175.316 335.218 Q175.316 322.093 179.899 315.218 Q184.517 308.308 193.233 308.308 Z" fill="#000000" fill-rule="evenodd" fill-opacity="1" /><path clip-path="url(#clip750)" d="M223.475 352.266 L230.802 352.266 L230.802 361.086 L223.475 361.086 L223.475 352.266 Z" fill="#000000" fill-rule="evenodd" fill-opacity="1" /><path clip-path="url(#clip750)" d="M261.947 332.371 Q257.225 332.371 254.447 335.6 Q251.704 338.829 251.704 344.454 Q251.704 350.044 254.447 353.308 Q257.225 356.537 261.947 356.537 Q266.67 356.537 269.413 353.308 Q272.19 350.044 272.19 344.454 Q272.19 338.829 269.413 335.6 Q266.67 332.371 261.947 332.371 M275.871 310.392 L275.871 316.78 Q273.232 315.53 270.524 314.871 Q267.85 314.211 265.211 314.211 Q258.267 314.211 254.586 318.898 Q250.941 323.586 250.42 333.065 Q252.468 330.044 255.559 328.447 Q258.649 326.815 262.364 326.815 Q270.177 326.815 274.69 331.572 Q279.239 336.294 279.239 344.454 Q279.239 352.44 274.517 357.266 Q269.795 362.093 261.947 362.093 Q252.954 362.093 248.198 355.218 Q243.441 348.308 243.441 335.218 Q243.441 322.926 249.274 315.635 Q255.107 308.308 264.934 308.308 Q267.572 308.308 270.246 308.829 Q272.954 309.35 275.871 310.392 Z" fill="#000000" fill-rule="evenodd" fill-opacity="1" /><path clip-path="url(#clip750)" d="M13.0007 1025.04 L18.3131 1025.04 L18.3131 1031.15 Q18.3131 1034.59 19.702 1035.94 Q21.0909 1037.26 24.702 1037.26 L28.1395 1037.26 L28.1395 1026.74 L33.1047 1026.74 L33.1047 1037.26 L67.0282 1037.26 L67.0282 1043.69 L33.1047 1043.69 L33.1047 1049.8 L28.1395 1049.8 L28.1395 1043.69 L25.4312 1043.69 Q18.9381 1043.69 15.9868 1040.67 Q13.0007 1037.65 13.0007 1031.08 L13.0007 1025.04 Z" fill="#000000" fill-rule="evenodd" fill-opacity="1" /><path clip-path="url(#clip750)" d="M34.1117 997.16 Q33.4867 998.237 33.2089 999.521 Q32.8964 1000.77 32.8964 1002.3 Q32.8964 1007.72 36.438 1010.63 Q39.945 1013.51 46.5422 1013.51 L67.0282 1013.51 L67.0282 1019.94 L28.1395 1019.94 L28.1395 1013.51 L34.1811 1013.51 Q30.6395 1011.5 28.9381 1008.27 Q27.202 1005.04 27.202 1000.42 Q27.202 999.764 27.3061 998.966 Q27.3756 998.167 27.5492 997.195 L34.1117 997.16 Z" fill="#000000" fill-rule="evenodd" fill-opacity="1" /><path clip-path="url(#clip750)" d="M28.1395 990.459 L28.1395 984.07 L67.0282 984.07 L67.0282 990.459 L28.1395 990.459 M13.0007 990.459 L13.0007 984.07 L21.0909 984.07 L21.0909 990.459 L13.0007 990.459 Z" fill="#000000" fill-rule="evenodd" fill-opacity="1" /><path clip-path="url(#clip750)" d="M29.6325 942.716 L35.6047 942.716 Q34.1117 945.424 33.3825 948.167 Q32.6186 950.876 32.6186 953.653 Q32.6186 959.869 36.5769 963.306 Q40.5005 966.744 47.6185 966.744 Q54.7366 966.744 58.6949 963.306 Q62.6185 959.869 62.6185 953.653 Q62.6185 950.876 61.8893 948.167 Q61.1254 945.424 59.6324 942.716 L65.5351 942.716 Q66.7851 945.39 67.4101 948.272 Q68.0351 951.119 68.0351 954.348 Q68.0351 963.133 62.5143 968.306 Q56.9935 973.48 47.6185 973.48 Q38.1047 973.48 32.6533 968.271 Q27.202 963.028 27.202 953.931 Q27.202 950.98 27.827 948.167 Q28.4173 945.355 29.6325 942.716 Z" fill="#000000" fill-rule="evenodd" fill-opacity="1" /><path clip-path="url(#clip750)" d="M17.0979 925.286 L28.1395 925.286 L28.1395 912.126 L33.1047 912.126 L33.1047 925.286 L54.2157 925.286 Q58.9726 925.286 60.3268 924.001 Q61.681 922.681 61.681 918.688 L61.681 912.126 L67.0282 912.126 L67.0282 918.688 Q67.0282 926.084 64.2851 928.897 Q61.5074 931.709 54.2157 931.709 L33.1047 931.709 L33.1047 936.397 L28.1395 936.397 L28.1395 931.709 L17.0979 931.709 L17.0979 925.286 Z" fill="#000000" fill-rule="evenodd" fill-opacity="1" /><path clip-path="url(#clip750)" d="M28.1395 903.723 L28.1395 897.334 L67.0282 897.334 L67.0282 903.723 L28.1395 903.723 M13.0007 903.723 L13.0007 897.334 L21.0909 897.334 L21.0909 903.723 L13.0007 903.723 Z" fill="#000000" fill-rule="evenodd" fill-opacity="1" /><path clip-path="url(#clip750)" d="M32.6186 868.897 Q32.6186 874.036 36.6464 877.022 Q40.6394 880.008 47.6185 880.008 Q54.5977 880.008 58.6254 877.057 Q62.6185 874.071 62.6185 868.897 Q62.6185 863.793 58.5907 860.807 Q54.5629 857.821 47.6185 857.821 Q40.7089 857.821 36.6811 860.807 Q32.6186 863.793 32.6186 868.897 M27.202 868.897 Q27.202 860.564 32.6186 855.807 Q38.0353 851.05 47.6185 851.05 Q57.1671 851.05 62.6185 855.807 Q68.0351 860.564 68.0351 868.897 Q68.0351 877.265 62.6185 882.022 Q57.1671 886.744 47.6185 886.744 Q38.0353 886.744 32.6186 882.022 Q27.202 877.265 27.202 868.897 Z" fill="#000000" fill-rule="evenodd" fill-opacity="1" /><path clip-path="url(#clip750)" d="M43.5561 808.133 L67.0282 808.133 L67.0282 814.522 L43.7644 814.522 Q38.2436 814.522 35.5005 816.675 Q32.7575 818.828 32.7575 823.133 Q32.7575 828.307 36.0561 831.293 Q39.3547 834.279 45.0491 834.279 L67.0282 834.279 L67.0282 840.703 L28.1395 840.703 L28.1395 834.279 L34.1811 834.279 Q30.6742 831.987 28.9381 828.897 Q27.202 825.772 27.202 821.71 Q27.202 815.008 31.3686 811.571 Q35.5005 808.133 43.5561 808.133 Z" fill="#000000" fill-rule="evenodd" fill-opacity="1" /><path clip-path="url(#clip750)" d="M13.0007 753.099 L18.3131 753.099 L18.3131 759.21 Q18.3131 762.648 19.702 764.002 Q21.0909 765.321 24.702 765.321 L28.1395 765.321 L28.1395 754.8 L33.1047 754.8 L33.1047 765.321 L67.0282 765.321 L67.0282 771.745 L33.1047 771.745 L33.1047 777.856 L28.1395 777.856 L28.1395 771.745 L25.4312 771.745 Q18.9381 771.745 15.9868 768.724 Q13.0007 765.703 13.0007 759.141 L13.0007 753.099 Z" fill="#000000" fill-rule="evenodd" fill-opacity="1" /><path clip-path="url(#clip750)" d="M32.6186 732.682 Q32.6186 737.821 36.6464 740.807 Q40.6394 743.793 47.6185 743.793 Q54.5977 743.793 58.6254 740.842 Q62.6185 737.856 62.6185 732.682 Q62.6185 727.578 58.5907 724.592 Q54.5629 721.606 47.6185 721.606 Q40.7089 721.606 36.6811 724.592 Q32.6186 727.578 32.6186 732.682 M27.202 732.682 Q27.202 724.349 32.6186 719.592 Q38.0353 714.835 47.6185 714.835 Q57.1671 714.835 62.6185 719.592 Q68.0351 724.349 68.0351 732.682 Q68.0351 741.05 62.6185 745.807 Q57.1671 750.53 47.6185 750.53 Q38.0353 750.53 32.6186 745.807 Q27.202 741.05 27.202 732.682 Z" fill="#000000" fill-rule="evenodd" fill-opacity="1" /><path clip-path="url(#clip750)" d="M34.1117 681.71 Q33.4867 682.787 33.2089 684.072 Q32.8964 685.322 32.8964 686.849 Q32.8964 692.266 36.438 695.183 Q39.945 698.065 46.5422 698.065 L67.0282 698.065 L67.0282 704.488 L28.1395 704.488 L28.1395 698.065 L34.1811 698.065 Q30.6395 696.051 28.9381 692.821 Q27.202 689.592 27.202 684.974 Q27.202 684.315 27.3061 683.516 Q27.3756 682.717 27.5492 681.745 L34.1117 681.71 Z" fill="#000000" fill-rule="evenodd" fill-opacity="1" /><path clip-path="url(#clip750)" d="M29.6325 648.586 L35.6047 648.586 Q34.1117 651.294 33.3825 654.037 Q32.6186 656.745 32.6186 659.523 Q32.6186 665.738 36.5769 669.176 Q40.5005 672.613 47.6185 672.613 Q54.7366 672.613 58.6949 669.176 Q62.6185 665.738 62.6185 659.523 Q62.6185 656.745 61.8893 654.037 Q61.1254 651.294 59.6324 648.586 L65.5351 648.586 Q66.7851 651.259 67.4101 654.141 Q68.0351 656.988 68.0351 660.218 Q68.0351 669.002 62.5143 674.176 Q56.9935 679.349 47.6185 679.349 Q38.1047 679.349 32.6533 674.141 Q27.202 668.898 27.202 659.801 Q27.202 656.849 27.827 654.037 Q28.4173 651.224 29.6325 648.586 Z" fill="#000000" fill-rule="evenodd" fill-opacity="1" /><path clip-path="url(#clip750)" d="M45.9866 604.211 L49.1116 604.211 L49.1116 633.586 Q55.7088 633.169 59.181 629.627 Q62.6185 626.051 62.6185 619.697 Q62.6185 616.016 61.7157 612.579 Q60.8129 609.107 59.0074 605.704 L65.049 605.704 Q66.5073 609.141 67.2712 612.752 Q68.0351 616.364 68.0351 620.079 Q68.0351 629.384 62.6185 634.836 Q57.2018 640.252 47.9658 640.252 Q38.4172 640.252 32.827 635.113 Q27.202 629.94 27.202 621.19 Q27.202 613.343 32.2714 608.794 Q37.3061 604.211 45.9866 604.211 M44.1116 610.6 Q38.8686 610.669 35.7436 613.551 Q32.6186 616.398 32.6186 621.12 Q32.6186 626.468 35.6394 629.697 Q38.6603 632.891 44.1463 633.377 L44.1116 610.6 Z" fill="#000000" fill-rule="evenodd" fill-opacity="1" /><path clip-path="url(#clip750)" d="M13.0007 571.711 L13.0007 556.989 L17.9659 556.989 L17.9659 565.322 L71.4379 565.322 L71.4379 556.989 L76.4031 556.989 L76.4031 571.711 L13.0007 571.711 Z" fill="#000000" fill-rule="evenodd" fill-opacity="1" /><path clip-path="url(#clip750)" d="M15.1882 543.1 L15.1882 533.656 L58.556 510.67 L15.1882 510.67 L15.1882 503.864 L67.0282 503.864 L67.0282 513.309 L23.6603 536.295 L67.0282 536.295 L67.0282 543.1 L15.1882 543.1 Z" fill="#000000" fill-rule="evenodd" fill-opacity="1" /><path clip-path="url(#clip750)" d="M13.0007 475.253 L76.4031 475.253 L76.4031 489.975 L71.4379 489.975 L71.4379 481.677 L17.9659 481.677 L17.9659 489.975 L13.0007 489.975 L13.0007 475.253 Z" fill="#000000" fill-rule="evenodd" fill-opacity="1" /><path clip-path="url(#clip750)" d="M1008.61 12.096 L1043.37 12.096 L1043.37 18.9825 L1016.79 18.9825 L1016.79 36.8065 L1040.77 36.8065 L1040.77 43.6931 L1016.79 43.6931 L1016.79 72.576 L1008.61 72.576 L1008.61 12.096 Z" fill="#000000" fill-rule="evenodd" fill-opacity="1" /><path clip-path="url(#clip750)" d="M1076.26 34.1734 Q1075 33.4443 1073.5 33.1202 Q1072.05 32.7556 1070.26 32.7556 Q1063.94 32.7556 1060.54 36.8875 Q1057.18 40.9789 1057.18 48.6757 L1057.18 72.576 L1049.68 72.576 L1049.68 27.2059 L1057.18 27.2059 L1057.18 34.2544 Q1059.53 30.1225 1063.3 28.1376 Q1067.06 26.1121 1072.45 26.1121 Q1073.22 26.1121 1074.15 26.2337 Q1075.08 26.3147 1076.22 26.5172 L1076.26 34.1734 Z" fill="#000000" fill-rule="evenodd" fill-opacity="1" /><path clip-path="url(#clip750)" d="M1084.08 27.2059 L1091.53 27.2059 L1091.53 72.576 L1084.08 72.576 L1084.08 27.2059 M1084.08 9.54393 L1091.53 9.54393 L1091.53 18.9825 L1084.08 18.9825 L1084.08 9.54393 Z" fill="#000000" fill-rule="evenodd" fill-opacity="1" /><path clip-path="url(#clip750)" d="M1139.78 28.9478 L1139.78 35.9153 Q1136.62 34.1734 1133.42 33.3227 Q1130.26 32.4315 1127.02 32.4315 Q1119.77 32.4315 1115.75 37.0496 Q1111.74 41.6271 1111.74 49.9314 Q1111.74 58.2358 1115.75 62.8538 Q1119.77 67.4314 1127.02 67.4314 Q1130.26 67.4314 1133.42 66.5807 Q1136.62 65.6895 1139.78 63.9476 L1139.78 70.8341 Q1136.66 72.2924 1133.3 73.0216 Q1129.97 73.7508 1126.21 73.7508 Q1115.96 73.7508 1109.92 67.3098 Q1103.89 60.8689 1103.89 49.9314 Q1103.89 38.832 1109.96 32.472 Q1116.08 26.1121 1126.69 26.1121 Q1130.14 26.1121 1133.42 26.8413 Q1136.7 27.5299 1139.78 28.9478 Z" fill="#000000" fill-rule="evenodd" fill-opacity="1" /><path clip-path="url(#clip750)" d="M1160.11 14.324 L1160.11 27.2059 L1175.47 27.2059 L1175.47 32.9987 L1160.11 32.9987 L1160.11 57.6282 Q1160.11 63.1779 1161.61 64.7578 Q1163.15 66.3376 1167.81 66.3376 L1175.47 66.3376 L1175.47 72.576 L1167.81 72.576 Q1159.18 72.576 1155.9 69.3758 Q1152.62 66.1351 1152.62 57.6282 L1152.62 32.9987 L1147.15 32.9987 L1147.15 27.2059 L1152.62 27.2059 L1152.62 14.324 L1160.11 14.324 Z" fill="#000000" fill-rule="evenodd" fill-opacity="1" /><path clip-path="url(#clip750)" d="M1185.27 27.2059 L1192.72 27.2059 L1192.72 72.576 L1185.27 72.576 L1185.27 27.2059 M1185.27 9.54393 L1192.72 9.54393 L1192.72 18.9825 L1185.27 18.9825 L1185.27 9.54393 Z" fill="#000000" fill-rule="evenodd" fill-opacity="1" /><path clip-path="url(#clip750)" d="M1225.9 32.4315 Q1219.9 32.4315 1216.42 37.1306 Q1212.94 41.7891 1212.94 49.9314 Q1212.94 58.0738 1216.38 62.7728 Q1219.86 67.4314 1225.9 67.4314 Q1231.85 67.4314 1235.34 62.7323 Q1238.82 58.0333 1238.82 49.9314 Q1238.82 41.8701 1235.34 37.1711 Q1231.85 32.4315 1225.9 32.4315 M1225.9 26.1121 Q1235.62 26.1121 1241.17 32.4315 Q1246.72 38.7509 1246.72 49.9314 Q1246.72 61.0714 1241.17 67.4314 Q1235.62 73.7508 1225.9 73.7508 Q1216.14 73.7508 1210.59 67.4314 Q1205.08 61.0714 1205.08 49.9314 Q1205.08 38.7509 1210.59 32.4315 Q1216.14 26.1121 1225.9 26.1121 Z" fill="#000000" fill-rule="evenodd" fill-opacity="1" /><path clip-path="url(#clip750)" d="M1296.79 45.1919 L1296.79 72.576 L1289.34 72.576 L1289.34 45.4349 Q1289.34 38.994 1286.82 35.7938 Q1284.31 32.5936 1279.29 32.5936 Q1273.25 32.5936 1269.77 36.4419 Q1266.29 40.2903 1266.29 46.9338 L1266.29 72.576 L1258.79 72.576 L1258.79 27.2059 L1266.29 27.2059 L1266.29 34.2544 Q1268.96 30.163 1272.57 28.1376 Q1276.21 26.1121 1280.95 26.1121 Q1288.77 26.1121 1292.78 30.9732 Q1296.79 35.7938 1296.79 45.1919 Z" fill="#000000" fill-rule="evenodd" fill-opacity="1" /><path clip-path="url(#clip750)" d="M1373.35 35.9153 Q1376.15 30.8922 1380.04 28.5022 Q1383.92 26.1121 1389.19 26.1121 Q1396.28 26.1121 1400.13 31.0947 Q1403.98 36.0368 1403.98 45.1919 L1403.98 72.576 L1396.48 72.576 L1396.48 45.4349 Q1396.48 38.913 1394.17 35.7533 Q1391.86 32.5936 1387.13 32.5936 Q1381.33 32.5936 1377.97 36.4419 Q1374.61 40.2903 1374.61 46.9338 L1374.61 72.576 L1367.11 72.576 L1367.11 45.4349 Q1367.11 38.8725 1364.8 35.7533 Q1362.5 32.5936 1357.67 32.5936 Q1351.96 32.5936 1348.6 36.4824 Q1345.24 40.3308 1345.24 46.9338 L1345.24 72.576 L1337.74 72.576 L1337.74 27.2059 L1345.24 27.2059 L1345.24 34.2544 Q1347.79 30.082 1351.36 28.0971 Q1354.92 26.1121 1359.82 26.1121 Q1364.76 26.1121 1368.21 28.6237 Q1371.69 31.1352 1373.35 35.9153 Z" fill="#000000" fill-rule="evenodd" fill-opacity="1" /><path clip-path="url(#clip750)" d="M1436.42 32.4315 Q1430.43 32.4315 1426.95 37.1306 Q1423.46 41.7891 1423.46 49.9314 Q1423.46 58.0738 1426.9 62.7728 Q1430.39 67.4314 1436.42 67.4314 Q1442.38 67.4314 1445.86 62.7323 Q1449.35 58.0333 1449.35 49.9314 Q1449.35 41.8701 1445.86 37.1711 Q1442.38 32.4315 1436.42 32.4315 M1436.42 26.1121 Q1446.15 26.1121 1451.7 32.4315 Q1457.25 38.7509 1457.25 49.9314 Q1457.25 61.0714 1451.7 67.4314 Q1446.15 73.7508 1436.42 73.7508 Q1426.66 73.7508 1421.11 67.4314 Q1415.6 61.0714 1415.6 49.9314 Q1415.6 38.7509 1421.11 32.4315 Q1426.66 26.1121 1436.42 26.1121 Z" fill="#000000" fill-rule="evenodd" fill-opacity="1" /><path clip-path="url(#clip750)" d="M1499.46 34.0924 L1499.46 9.54393 L1506.91 9.54393 L1506.91 72.576 L1499.46 72.576 L1499.46 65.7705 Q1497.11 69.8214 1493.5 71.8063 Q1489.94 73.7508 1484.91 73.7508 Q1476.69 73.7508 1471.51 67.1883 Q1466.36 60.6258 1466.36 49.9314 Q1466.36 39.2371 1471.51 32.6746 Q1476.69 26.1121 1484.91 26.1121 Q1489.94 26.1121 1493.5 28.0971 Q1497.11 30.0415 1499.46 34.0924 M1474.06 49.9314 Q1474.06 58.1548 1477.42 62.8538 Q1480.82 67.5124 1486.74 67.5124 Q1492.65 67.5124 1496.05 62.8538 Q1499.46 58.1548 1499.46 49.9314 Q1499.46 41.7081 1496.05 37.0496 Q1492.65 32.3505 1486.74 32.3505 Q1480.82 32.3505 1477.42 37.0496 Q1474.06 41.7081 1474.06 49.9314 Z" fill="#000000" fill-rule="evenodd" fill-opacity="1" /><path clip-path="url(#clip750)" d="M1561.07 48.0275 L1561.07 51.6733 L1526.8 51.6733 Q1527.29 59.3701 1531.42 63.421 Q1535.59 67.4314 1543 67.4314 Q1547.3 67.4314 1551.31 66.3781 Q1555.36 65.3249 1559.33 63.2184 L1559.33 70.267 Q1555.32 71.9684 1551.11 72.8596 Q1546.89 73.7508 1542.56 73.7508 Q1531.7 73.7508 1525.34 67.4314 Q1519.02 61.1119 1519.02 50.3365 Q1519.02 39.1965 1525.02 32.6746 Q1531.05 26.1121 1541.26 26.1121 Q1550.42 26.1121 1555.72 32.0264 Q1561.07 37.9003 1561.07 48.0275 M1553.62 45.84 Q1553.54 39.7232 1550.17 36.0774 Q1546.85 32.4315 1541.34 32.4315 Q1535.1 32.4315 1531.34 35.9558 Q1527.61 39.4801 1527.04 45.8805 L1553.62 45.84 Z" fill="#000000" fill-rule="evenodd" fill-opacity="1" /><path clip-path="url(#clip750)" d="M1573.3 9.54393 L1580.76 9.54393 L1580.76 72.576 L1573.3 72.576 L1573.3 9.54393 Z" fill="#000000" fill-rule="evenodd" fill-opacity="1" /><path clip-path="url(#clip750)" d="M1630.83 65.6895 L1659.39 65.6895 L1659.39 72.576 L1620.98 72.576 L1620.98 65.6895 Q1625.64 60.8689 1633.66 52.7671 Q1641.72 44.6248 1643.79 42.2752 Q1647.72 37.8598 1649.26 34.8216 Q1650.84 31.7429 1650.84 28.7857 Q1650.84 23.9651 1647.44 20.927 Q1644.07 17.8888 1638.65 17.8888 Q1634.8 17.8888 1630.5 19.2256 Q1626.25 20.5624 1621.39 23.2765 L1621.39 15.0127 Q1626.33 13.0277 1630.62 12.015 Q1634.92 11.0023 1638.48 11.0023 Q1647.88 11.0023 1653.47 15.7013 Q1659.06 20.4004 1659.06 28.2591 Q1659.06 31.9859 1657.64 35.3482 Q1656.27 38.6699 1652.58 43.2069 Q1651.57 44.3817 1646.14 50.0125 Q1640.71 55.6027 1630.83 65.6895 Z" fill="#000000" fill-rule="evenodd" fill-opacity="1" /><polyline clip-path="url(#clip752)" style="stroke:#009af9; stroke-linecap:butt; stroke-linejoin:round; stroke-width:8; stroke-opacity:1; fill:none" points="
  1334,797.13 1368.79,797.13 1403.83,797.13 1439.07,797.13 1474.44,797.13 1509.91,797.13 1545.43,797.13 1580.91,797.13 1616.33,797.13 1651.63,797.13 
  1686.77,797.13 1721.7,797.13 1756.36,797.13 1790.71,797.13 1824.7,797.13 1858.3,797.13 1891.44,797.13 1924.1,797.13 1956.23,797.13 1987.8,797.13 
  2018.75,797.13 2049.06,797.13 2078.7,797.13 2107.63,797.13 2135.81,797.13 2163.22,797.13 2189.83,797.13 2215.62,797.13 2240.54,797.13 2264.57,797.13 
  2287.67,797.13 2309.82,797.13 2331.04,797.13 2351.27,797.13 2370.49,797.13 2388.67,797.13 2405.8,797.13 2421.84,797.13 2436.8,797.13 2450.68,797.13 
  2463.44,797.13 2475.07,797.13 2485.56,797.13 2494.88,797.13 2503.04,797.13 2510.04,797.13 2515.86,797.13 2520.5,797.13 2523.94,797.13 2526.19,797.13 
  2527.25,797.13 2527.11,797.13 2525.78,797.13 2523.25,797.13 2519.54,797.13 2514.63,797.13 2508.55,797.13 2501.29,797.13 2492.85,797.13 2483.26,797.13 
  2472.51,797.13 2460.63,797.13 2447.62,797.13 2433.49,797.13 2418.26,797.13 2401.94,797.13 2384.54,797.13 2366.09,797.13 2346.6,797.13 2326.1,797.13 
  2304.59,797.13 2282.1,797.13 2258.65,797.13 2234.26,797.13 2208.96,797.13 2182.76,797.13 2155.7,797.13 2127.79,797.13 2099.05,797.13 2069.52,797.13 
  2039.21,797.13 2008.16,797.13 1976.4,797.13 1943.95,797.13 1910.82,797.13 1877.04,797.13 1842.64,797.13 1807.65,797.13 1772.1,797.13 1736.01,797.13 
  1699.41,797.13 1662.27,797.13 1624.66,797.13 1586.59,797.13 1548.08,797.13 1509.16,797.13 1469.85,797.13 1430.16,797.13 1390.13,797.13 1349.77,797.13 
  1316.46,797.13 1287.6,797.13 1258.56,797.13 1229.37,797.13 1200.08,797.13 1170.73,797.13 1141.36,797.13 1112.01,797.13 1082.73,797.13 1053.54,797.13 
  1024.5,797.13 995.646,797.13 967.016,797.13 938.646,797.13 910.565,797.13 882.818,797.13 855.445,797.13 828.487,797.13 801.968,797.13 775.897,797.13 
  750.331,797.13 725.305,797.13 700.855,797.13 677.005,797.13 653.745,797.13 631.134,797.13 609.201,797.13 587.976,797.13 567.485,797.13 547.708,797.13 
  528.699,797.13 510.484,797.13 493.086,797.13 476.532,797.13 460.789,797.13 445.908,797.13 431.911,797.13 418.817,797.13 406.647,797.13 395.368,797.13 
  385.019,797.13 375.618,797.13 367.18,797.13 359.72,797.13 353.209,797.13 347.668,797.13 343.114,797.13 339.559,797.13 337.011,797.13 335.443,797.13 
  334.861,797.13 335.281,797.13 336.708,797.13 339.148,797.13 342.573,797.13 346.974,797.13 352.368,797.13 358.754,797.13 366.131,797.13 374.475,797.13 
  383.764,797.13 394.011,797.13 405.21,797.13 417.357,797.13 430.428,797.13 444.391,797.13 459.255,797.13 475.011,797.13 491.648,797.13 509.147,797.13 
  527.465,797.13 546.609,797.13 566.565,797.13 587.319,797.13 608.851,797.13 631.117,797.13 654.118,797.13 677.836,797.13 702.254,797.13 727.354,797.13 
  753.092,797.13 779.464,797.13 806.45,797.13 834.03,797.13 862.185,797.13 890.885,797.13 920.114,797.13 949.852,797.13 980.079,797.13 1010.77,797.13 
  1041.93,797.13 1073.52,797.13 1105.52,797.13 1137.92,797.13 1170.69,797.13 1203.8,797.13 1237.22,797.13 1270.93,797.13 1304.92,797.13 1337.37,797.13 
  1359.92,797.13 1382.62,797.13 1405.44,797.13 1428.36,797.13 1451.36,797.13 1474.39,797.13 1497.44,797.13 1520.46,797.13 1543.43,797.13 1566.32,797.13 
  1589.09,797.13 1611.72,797.13 1634.19,797.13 1656.45,797.13 1678.49,797.13 1700.27,797.13 1721.77,797.13 1742.95,797.13 1763.79,797.13 1784.26,797.13 
  1804.35,797.13 1824.02,797.13 1843.26,797.13 1862.03,797.13 1880.3,797.13 1898.09,797.13 1915.35,797.13 1932.05,797.13 1948.18,797.13 1963.73,797.13 
  1978.68,797.13 1993.01,797.13 2006.7,797.13 2019.72,797.13 2032.1,797.13 2043.79,797.13 2054.78,797.13 2065.06,797.13 2074.62,797.13 2083.48,797.13 
  2091.6,797.13 2098.97,797.13 2105.58,797.13 2111.42,797.13 2116.49,797.13 2120.75,797.13 2124.27,797.13 2127.01,797.13 2128.96,797.13 2130.11,797.13 
  2130.46,797.13 2130,797.13 2128.74,797.13 2126.67,797.13 2123.83,797.13 2120.19,797.13 2115.76,797.13 2110.55,797.13 2104.54,797.13 2097.75,797.13 
  2090.19,797.13 2081.86,797.13 2072.77,797.13 2062.93,797.13 2052.34,797.13 2041.02,797.13 2028.98,797.13 2016.22,797.13 2002.76,797.13 1988.61,797.13 
  1973.77,797.13 1958.27,797.13 1942.12,797.13 1925.33,797.13 1907.91,797.13 1889.89,797.13 1871.28,797.13 1852.08,797.13 1832.31,797.13 1811.99,797.13 
  1791.13,797.13 1769.77,797.13 1747.91,797.13 1725.57,797.13 1702.76,797.13 1679.48,797.13 1655.77,797.13 1631.64,797.13 1607.11,797.13 1582.19,797.13 
  1556.91,797.13 1531.28,797.13 1505.31,797.13 1479.03,797.13 1452.46,797.13 1425.61,797.13 1398.5,797.13 1371.15,797.13 1343.59,797.13 1323.63,797.13 
  1307.7,797.13 1291.66,797.13 1275.55,797.13 1259.36,797.13 1243.13,797.13 1226.86,797.13 1210.59,797.13 1194.34,797.13 1178.12,797.13 1161.94,797.13 
  1145.84,797.13 1129.83,797.13 1113.93,797.13 1098.16,797.13 1082.55,797.13 1067.11,797.13 1051.86,797.13 1036.83,797.13 1022.02,797.13 1007.46,797.13 
  993.161,797.13 979.148,797.13 965.44,797.13 952.057,797.13 939.009,797.13 926.292,797.13 913.941,797.13 901.975,797.13 890.409,797.13 879.262,797.13 
  868.543,797.13 858.233,797.13 848.37,797.13 838.969,797.13 830.044,797.13 821.611,797.13 813.681,797.13 806.221,797.13 799.27,797.13 792.841,797.13 
  786.945,797.13 781.592,797.13 776.794,797.13 772.516,797.13 768.784,797.13 765.612,797.13 763.007,797.13 760.977,797.13 759.53,797.13 758.636,797.13 
  758.303,797.13 758.547,797.13 759.373,797.13 760.783,797.13 762.783,797.13 765.348,797.13 768.469,797.13 772.164,797.13 776.434,797.13 781.278,797.13 
  786.697,797.13 792.675,797.13 799.184,797.13 806.245,797.13 813.854,797.13 822.009,797.13 830.707,797.13 839.935,797.13 849.656,797.13 859.889,797.13 
  870.627,797.13 881.865,797.13 893.597,797.13 905.813,797.13 918.473,797.13 931.59,797.13 945.156,797.13 959.163,797.13 973.601,797.13 988.463,797.13 
  1003.71,797.13 1019.36,797.13 1035.38,797.13 1051.78,797.13 1068.54,797.13 1085.65,797.13 1103.09,797.13 1120.86,797.13 1138.94,797.13 1157.32,797.13 
  1175.99,797.13 1194.94,797.13 1214.15,797.13 1233.63,797.13 1253.35,797.13 1273.31,797.13 1293.49,797.13 1313.89,797.13 1334.17,797.13 1342.68,797.13 
  1351.26,797.13 
  "/>
<polyline clip-path="url(#clip752)" style="stroke:#e26f46; stroke-linecap:butt; stroke-linejoin:round; stroke-width:8; stroke-opacity:1; fill:none" points="
  1334,219.675 1368.79,249.538 1403.83,277.002 1439.07,302.209 1474.44,325.271 1509.91,346.331 1545.43,365.52 1580.91,382.951 1616.33,398.764 1651.63,413.073 
  1686.77,426.003 1721.7,437.657 1756.36,448.143 1790.71,457.559 1824.7,465.998 1858.3,473.549 1891.44,480.29 1924.1,486.296 1956.23,491.638 1987.8,496.38 
  2018.75,500.578 2049.06,504.288 2078.7,507.559 2107.63,510.435 2135.81,512.956 2163.22,515.162 2189.83,517.087 2215.62,518.759 2240.54,520.206 2264.57,521.454 
  2287.67,522.525 2309.82,523.44 2331.04,524.219 2351.27,524.878 2370.49,525.431 2388.67,525.893 2405.8,526.275 2421.84,526.588 2436.8,526.843 2450.68,527.048 
  2463.44,527.211 2475.07,527.34 2485.56,527.439 2494.88,527.515 2503.04,527.571 2510.04,527.613 2515.86,527.643 2520.5,527.663 2523.94,527.677 2526.19,527.685 
  2527.25,527.688 2527.11,527.688 2525.78,527.683 2523.25,527.674 2519.54,527.659 2514.63,527.637 2508.55,527.604 2501.29,527.56 2492.85,527.499 2483.26,527.419 
  2472.51,527.313 2460.63,527.178 2447.62,527.005 2433.49,526.789 2418.26,526.522 2401.94,526.193 2384.54,525.793 2366.09,525.311 2346.6,524.733 2326.1,524.046 
  2304.59,523.234 2282.1,522.278 2258.65,521.16 2234.26,519.856 2208.96,518.344 2182.76,516.595 2155.7,514.58 2127.79,512.266 2099.05,509.613 2069.52,506.581 
  2039.21,503.124 2008.16,499.19 1976.4,494.723 1943.95,489.66 1910.82,483.926 1877.04,477.443 1842.64,470.123 1807.65,461.869 1772.1,452.573 1736.01,442.112 
  1699.41,430.351 1662.27,417.123 1624.66,402.266 1586.59,385.59 1548.08,366.882 1509.16,345.905 1469.85,322.394 1430.16,296.056 1390.13,266.562 1349.77,233.546 
  1316.46,1359.19 1287.6,1335.35 1258.56,1313.09 1229.37,1292.36 1200.08,1273.09 1170.73,1255.21 1141.36,1238.67 1112.01,1223.38 1082.73,1209.28 1053.54,1196.3 
  1024.5,1184.36 995.646,1173.41 967.016,1163.38 938.646,1154.2 910.565,1145.81 882.818,1138.16 855.445,1131.18 828.487,1124.84 801.968,1119.08 775.897,1113.84 
  750.331,1109.1 725.305,1104.81 700.855,1100.93 677.005,1097.43 653.745,1094.27 631.134,1091.42 609.201,1088.86 587.976,1086.56 567.485,1084.51 547.708,1082.66 
  528.699,1081.01 510.484,1079.54 493.086,1078.23 476.532,1077.06 460.789,1076.03 445.908,1075.11 431.911,1074.3 418.817,1073.59 406.647,1072.97 395.368,1072.42 
  385.019,1071.94 375.618,1071.53 367.18,1071.18 359.72,1070.88 353.209,1070.63 347.668,1070.42 343.114,1070.26 339.559,1070.13 337.011,1070.04 335.443,1069.99 
  334.861,1069.97 335.281,1069.98 336.708,1070.03 339.148,1070.12 342.573,1070.24 346.974,1070.4 352.368,1070.6 358.754,1070.84 366.131,1071.14 374.475,1071.48 
  383.764,1071.89 394.011,1072.36 405.21,1072.89 417.357,1073.51 430.428,1074.22 444.391,1075.02 459.255,1075.93 475.011,1076.96 491.648,1078.12 509.147,1079.43 
  527.465,1080.91 546.609,1082.56 566.565,1084.42 587.319,1086.5 608.851,1088.82 631.117,1091.42 654.118,1094.32 677.836,1097.55 702.254,1101.14 727.354,1105.15 
  753.092,1109.6 779.464,1114.54 806.45,1120.02 834.03,1126.1 862.185,1132.85 890.885,1140.32 920.114,1148.59 949.852,1157.74 980.079,1167.86 1010.77,1179.05 
  1041.93,1191.41 1073.52,1205.07 1105.52,1220.16 1137.92,1236.81 1170.69,1255.19 1203.8,1275.45 1237.22,1297.77 1270.93,1322.37 1304.92,1349.45 1337.37,222.686 
  1359.92,242.176 1382.62,260.674 1405.44,278.209 1428.36,294.794 1451.36,310.467 1474.39,325.238 1497.44,339.149 1520.46,352.221 1543.43,364.488 1566.32,375.987 
  1589.09,386.739 1611.72,396.791 1634.19,406.176 1656.45,414.922 1678.49,423.068 1700.27,430.643 1721.77,437.679 1742.95,444.207 1763.79,450.259 1784.26,455.862 
  1804.35,461.046 1824.02,465.838 1843.26,470.262 1862.03,474.341 1880.3,478.099 1898.09,481.561 1915.35,484.745 1932.05,487.669 1948.18,490.35 1963.73,492.809 
  1978.68,495.06 1993.01,497.118 2006.7,498.995 2019.72,500.703 2032.1,502.259 2043.79,503.67 2054.78,504.945 2065.06,506.095 2074.62,507.128 2083.48,508.054 
  2091.6,508.878 2098.97,509.605 2105.58,510.241 2111.42,510.79 2116.49,511.256 2120.75,511.642 2124.27,511.956 2127.01,512.197 2128.96,512.368 2130.11,512.468 
  2130.46,512.498 2130,512.459 2128.74,512.349 2126.67,512.168 2123.83,511.917 2120.19,511.592 2115.76,511.19 2110.55,510.708 2104.54,510.142 2097.75,509.486 
  2090.19,508.737 2081.86,507.887 2072.77,506.931 2062.93,505.86 2052.34,504.667 2041.02,503.341 2028.98,501.873 2016.22,500.251 2002.76,498.464 1988.61,496.496 
  1973.77,494.333 1958.27,491.96 1942.12,489.359 1925.33,486.51 1907.91,483.395 1889.89,479.99 1871.28,476.271 1852.08,472.208 1832.31,467.774 1811.99,462.939 
  1791.13,457.67 1769.77,451.93 1747.91,445.681 1725.57,438.881 1702.76,431.48 1679.48,423.424 1655.77,414.663 1631.64,405.14 1607.11,394.791 1582.19,383.549 
  1556.91,371.342 1531.28,358.092 1505.31,343.711 1479.03,328.11 1452.46,311.193 1425.61,292.855 1398.5,272.987 1371.15,251.469 1343.59,228.176 1323.63,1365.41 
  1307.7,1351.77 1291.66,1338.6 1275.55,1325.91 1259.36,1313.68 1243.13,1301.93 1226.86,1290.65 1210.59,1279.83 1194.34,1269.48 1178.12,1259.58 1161.94,1250.12 
  1145.84,1241.11 1129.83,1232.52 1113.93,1224.34 1098.16,1216.57 1082.55,1209.2 1067.11,1202.21 1051.86,1195.58 1036.83,1189.31 1022.02,1183.39 1007.46,1177.79 
  993.161,1172.51 979.148,1167.53 965.44,1162.85 952.057,1158.45 939.009,1154.31 926.292,1150.43 913.941,1146.78 901.975,1143.37 890.409,1140.19 879.262,1137.22 
  868.543,1134.45 858.233,1131.87 848.37,1129.47 838.969,1127.25 830.044,1125.19 821.611,1123.3 813.681,1121.57 806.221,1119.97 799.27,1118.52 792.841,1117.2 
  786.945,1116.01 781.592,1114.95 776.794,1114.02 772.516,1113.2 768.784,1112.49 765.612,1111.89 763.007,1111.41 760.977,1111.03 759.53,1110.76 758.636,1110.6 
  758.303,1110.54 758.547,1110.58 759.373,1110.74 760.783,1110.99 762.783,1111.36 765.348,1111.84 768.469,1112.43 772.164,1113.13 776.434,1113.95 781.278,1114.89 
  786.697,1115.96 792.675,1117.17 799.184,1118.5 806.245,1119.98 813.854,1121.61 822.009,1123.39 830.707,1125.34 839.935,1127.47 849.656,1129.78 859.889,1132.28 
  870.627,1134.98 881.865,1137.9 893.597,1141.06 905.813,1144.46 918.473,1148.11 931.59,1152.03 945.156,1156.24 959.163,1160.76 973.601,1165.62 988.463,1170.82 
  1003.71,1176.39 1019.36,1182.35 1035.38,1188.72 1051.78,1195.55 1068.54,1202.84 1085.65,1210.64 1103.09,1218.97 1120.86,1227.86 1138.94,1237.36 1157.32,1247.5 
  1175.99,1258.31 1194.94,1269.85 1214.15,1282.16 1233.63,1295.28 1253.35,1309.28 1273.31,1324.19 1293.49,1340.08 1313.89,1357 1334.17,219.826 1342.68,227.38 
  1351.26,234.823 
  "/>
<polyline clip-path="url(#clip752)" style="stroke:#008000; stroke-linecap:butt; stroke-linejoin:round; stroke-width:8; stroke-opacity:1; fill:none" stroke-dasharray="4, 8" points="
  1334,523.503 1368.79,535.58 1403.83,547.858 1439.07,560.314 1474.44,572.907 1509.91,585.612 1545.43,598.395 1580.91,611.211 1616.33,624.034 1651.63,636.826 
  1686.77,649.559 1721.7,662.192 1756.36,674.698 1790.71,687.044 1824.7,699.199 1858.3,711.14 1891.44,722.838 1924.1,734.269 1956.23,745.414 1987.8,756.256 
  2018.75,766.775 2049.06,776.956 2078.7,786.793 2107.63,796.273 2135.81,805.385 2163.22,814.13 2189.83,822.504 2215.62,830.502 2240.54,838.122 2264.57,845.362 
  2287.67,852.221 2309.82,858.705 2331.04,864.827 2351.27,870.583 2370.49,875.976 2388.67,881.009 2405.8,885.688 2421.84,890.016 2436.8,894.006 2450.68,897.664 
  2463.44,900.992 2475.07,903.995 2485.56,906.678 2494.88,909.045 2503.04,911.1 2510.04,912.852 2515.86,914.3 2520.5,915.449 2523.94,916.299 2526.19,916.854 
  2527.25,917.114 2527.11,917.08 2525.78,916.752 2523.25,916.13 2519.54,915.211 2514.63,913.995 2508.55,912.478 2501.29,910.659 2492.85,908.531 2483.26,906.092 
  2472.51,903.337 2460.63,900.262 2447.62,896.86 2433.49,893.126 2418.26,889.055 2401.94,884.638 2384.54,879.871 2366.09,874.748 2346.6,869.262 2326.1,863.409 
  2304.59,857.184 2282.1,850.577 2258.65,843.588 2234.26,836.211 2208.96,828.446 2182.76,820.29 2155.7,811.743 2127.79,802.805 2099.05,793.474 2069.52,783.758 
  2039.21,773.66 2008.16,763.19 1976.4,752.355 1943.95,741.167 1910.82,729.631 1877.04,717.764 1842.64,705.584 1807.65,693.11 1772.1,680.361 1736.01,667.361 
  1699.41,654.132 1662.27,640.683 1624.66,627.052 1586.59,613.265 1548.08,599.352 1509.16,585.342 1469.85,571.266 1430.16,557.156 1390.13,543.044 1349.77,528.963 
  1316.46,517.463 1287.6,507.603 1258.56,497.784 1229.37,488.026 1200.08,478.351 1170.73,468.782 1141.36,459.341 1112.01,450.043 1082.73,440.91 1053.54,431.956 
  1024.5,423.198 995.646,414.652 967.016,406.329 938.646,398.239 910.565,390.39 882.818,382.792 855.445,375.452 828.487,368.377 801.968,361.567 775.897,355.02 
  750.331,348.743 725.305,342.736 700.855,337.001 677.005,331.534 653.745,326.323 631.134,321.372 609.201,316.679 587.976,312.239 567.485,308.048 547.708,304.092 
  528.699,300.371 510.484,296.88 493.086,293.615 476.532,290.57 460.789,287.731 445.908,285.097 431.911,282.663 418.817,280.425 406.647,278.379 395.368,276.511 
  385.019,274.821 375.618,273.306 367.18,271.962 359.72,270.787 353.209,269.771 347.668,268.914 343.114,268.214 339.559,267.67 337.011,267.283 335.443,267.045 
  334.861,266.957 335.281,267.02 336.708,267.237 339.148,267.608 342.573,268.131 346.974,268.807 352.368,269.641 358.754,270.636 366.131,271.796 374.475,273.123 
  383.764,274.618 394.011,276.288 405.21,278.139 417.357,280.178 430.428,282.408 444.391,284.831 459.255,287.457 475.011,290.294 491.648,293.349 509.147,296.627 
  527.465,300.132 546.609,303.875 566.565,307.862 587.319,312.104 608.851,316.605 631.117,321.369 654.118,326.405 677.836,331.722 702.254,337.326 727.354,343.223 
  753.092,349.414 779.464,355.907 806.45,362.708 834.03,369.819 862.185,377.245 890.885,384.985 920.114,393.041 949.852,401.416 980.079,410.107 1010.77,419.113 
  1041.93,428.435 1073.52,438.068 1105.52,448.006 1137.92,458.242 1170.69,468.771 1203.8,479.573 1237.22,490.638 1270.93,501.955 1304.92,513.51 1337.37,524.667 
  1359.92,532.488 1382.62,540.411 1405.44,548.427 1428.36,556.519 1451.36,564.681 1474.39,572.888 1497.44,581.136 1520.46,589.403 1543.43,597.674 1566.32,605.938 
  1589.09,614.17 1611.72,622.364 1634.19,630.505 1656.45,638.573 1678.49,646.558 1700.27,654.444 1721.77,662.217 1742.95,669.864 1763.79,677.373 1784.26,684.731 
  1804.35,691.929 1824.02,698.958 1843.26,705.805 1862.03,712.46 1880.3,718.916 1898.09,725.171 1915.35,731.214 1932.05,737.036 1948.18,742.632 1963.73,748 
  1978.68,753.137 1993.01,758.037 2006.7,762.693 2019.72,767.103 2032.1,771.272 2043.79,775.194 2054.78,778.864 2065.06,782.28 2074.62,785.447 2083.48,788.367 
  2091.6,791.034 2098.97,793.447 2105.58,795.606 2111.42,797.507 2116.49,799.15 2120.75,800.532 2124.27,801.669 2127.01,802.553 2128.96,803.181 2130.11,803.552 
  2130.46,803.665 2130,803.519 2128.74,803.111 2126.67,802.444 2123.83,801.527 2120.19,800.351 2115.76,798.916 2110.55,797.221 2104.54,795.266 2097.75,793.05 
  2090.19,790.573 2081.86,787.834 2072.77,784.835 2062.93,781.574 2052.34,778.051 2041.02,774.268 2028.98,770.223 2016.22,765.919 2002.76,761.357 1988.61,756.534 
  1973.77,751.454 1958.27,746.119 1942.12,740.532 1925.33,734.696 1907.91,728.615 1889.89,722.293 1871.28,715.734 1852.08,708.936 1832.31,701.909 1811.99,694.66 
  1791.13,687.196 1769.77,679.524 1747.91,671.653 1725.57,663.592 1702.76,655.346 1679.48,646.919 1655.77,638.327 1631.64,629.581 1607.11,620.693 1582.19,611.674 
  1556.91,602.537 1531.28,593.296 1505.31,583.962 1479.03,574.548 1452.46,565.071 1425.61,555.545 1398.5,545.984 1371.15,536.404 1343.59,526.819 1323.63,519.93 
  1307.7,514.46 1291.66,508.987 1275.55,503.516 1259.36,498.055 1243.13,492.612 1226.86,487.193 1210.59,481.809 1194.34,476.468 1178.12,471.179 1161.94,465.941 
  1145.84,460.771 1129.83,455.671 1113.93,450.646 1098.16,445.706 1082.55,440.855 1067.11,436.1 1051.86,431.445 1036.83,426.897 1022.02,422.458 1007.46,418.132 
  993.161,413.923 979.148,409.837 965.44,405.875 952.057,402.044 939.009,398.342 926.292,394.767 913.941,391.326 901.975,388.021 890.409,384.855 879.262,381.829 
  868.543,378.945 858.233,376.192 848.37,373.58 838.969,371.109 830.044,368.781 821.611,366.596 813.681,364.556 806.221,362.649 799.27,360.883 792.841,359.259 
  786.945,357.777 781.592,356.438 776.794,355.243 772.516,354.182 768.784,353.259 765.612,352.478 763.007,351.837 760.977,351.34 759.53,350.985 758.636,350.767 
  758.303,350.685 758.547,350.745 759.373,350.947 760.783,351.292 762.783,351.783 765.348,352.413 768.469,353.182 772.164,354.095 776.434,355.153 781.278,356.359 
  786.697,357.715 792.675,359.217 799.184,360.861 806.245,362.655 813.854,364.601 822.009,366.699 830.707,368.953 839.935,371.362 849.656,373.919 859.889,376.633 
  870.627,379.503 881.865,382.534 893.597,385.725 905.813,389.078 918.473,392.584 931.59,396.252 945.156,400.082 959.163,404.074 973.601,408.229 988.463,412.549 
  1003.71,417.026 1019.36,421.663 1035.38,426.461 1051.78,431.42 1068.54,436.538 1085.65,441.815 1103.09,447.246 1120.86,452.83 1138.94,458.567 1157.32,464.453 
  1175.99,470.486 1194.94,476.665 1214.15,482.985 1233.63,489.443 1253.35,496.036 1273.31,502.76 1293.49,509.61 1313.89,516.583 1334.17,523.561 1342.68,526.505 
  1351.26,529.478 
  "/>
<polyline clip-path="url(#clip752)" style="stroke:#008000; stroke-linecap:butt; stroke-linejoin:round; stroke-width:8; stroke-opacity:1; fill:none" points="
  1334,256.672 1368.79,262.122 1403.83,267.718 1439.07,273.451 1474.44,279.304 1509.91,285.267 1545.43,291.326 1580.91,297.462 1616.33,303.662 1651.63,309.91 
  1686.77,316.191 1721.7,322.487 1756.36,328.783 1790.71,335.061 1824.7,341.305 1858.3,347.501 1891.44,353.633 1924.1,359.684 1956.23,365.644 1987.8,371.498 
  2018.75,377.233 2049.06,382.837 2078.7,388.303 2107.63,393.619 2135.81,398.776 2163.22,403.768 2189.83,408.589 2215.62,413.232 2240.54,417.691 2264.57,421.961 
  2287.67,426.036 2309.82,429.915 2331.04,433.603 2351.27,437.093 2370.49,440.383 2388.67,443.471 2405.8,446.357 2421.84,449.04 2436.8,451.525 2450.68,453.813 
  2463.44,455.903 2475.07,457.796 2485.56,459.492 2494.88,460.993 2503.04,462.3 2510.04,463.416 2515.86,464.341 2520.5,465.075 2523.94,465.619 2526.19,465.975 
  2527.25,466.141 2527.11,466.119 2525.78,465.909 2523.25,465.511 2519.54,464.923 2514.63,464.145 2508.55,463.178 2501.29,462.019 2492.85,460.667 2483.26,459.121 
  2472.51,457.381 2460.63,455.444 2447.62,453.309 2433.49,450.976 2418.26,448.443 2401.94,445.708 2384.54,442.771 2366.09,439.632 2346.6,436.291 2326.1,432.747 
  2304.59,429.003 2282.1,425.057 2258.65,420.911 2234.26,416.57 2208.96,412.035 2182.76,407.31 2155.7,402.401 2127.79,397.311 2099.05,392.045 2069.52,386.611 
  2039.21,381.017 2008.16,375.272 1976.4,369.385 1943.95,363.366 1910.82,357.222 1877.04,350.966 1842.64,344.61 1807.65,338.169 1772.1,331.655 1736.01,325.082 
  1699.41,318.463 1662.27,311.806 1624.66,305.131 1586.59,298.451 1548.08,291.783 1509.16,285.14 1469.85,278.538 1430.16,271.993 1390.13,265.518 1349.77,259.129 
  1316.46,253.965 1287.6,249.576 1258.56,245.241 1229.37,240.97 1200.08,236.77 1170.73,232.653 1141.36,228.627 1112.01,224.698 1082.73,220.875 1053.54,217.163 
  1024.5,213.568 995.646,210.095 967.016,206.749 938.646,203.532 910.565,200.445 882.818,197.493 855.445,194.675 828.487,191.993 801.968,189.445 775.897,187.029 
  750.331,184.745 725.305,182.592 700.855,180.568 677.005,178.669 653.745,176.888 631.134,175.226 609.201,173.677 587.976,172.24 567.485,170.908 547.708,169.675 
  528.699,168.538 510.484,167.493 493.086,166.536 476.532,165.663 460.789,164.865 445.908,164.141 431.911,163.486 418.817,162.897 406.647,162.369 395.368,161.897 
  385.019,161.478 375.618,161.11 367.18,160.789 359.72,160.513 353.209,160.278 347.668,160.082 343.114,159.924 339.559,159.803 337.011,159.717 335.443,159.664 
  334.861,159.645 335.281,159.659 336.708,159.707 339.148,159.789 342.573,159.906 346.974,160.058 352.368,160.248 358.754,160.478 366.131,160.75 374.475,161.066 
  383.764,161.428 394.011,161.841 405.21,162.308 417.357,162.832 430.428,163.418 444.391,164.069 459.255,164.789 475.011,165.584 491.648,166.459 509.147,167.418 
  527.465,168.466 546.609,169.608 566.565,170.849 587.319,172.196 608.851,173.653 631.117,175.225 654.118,176.916 677.836,178.734 702.254,180.682 727.354,182.766 
  753.092,184.988 779.464,187.355 806.45,189.87 834.03,192.537 862.185,195.36 890.885,198.341 920.114,201.484 949.852,204.791 980.079,208.263 1010.77,211.903 
  1041.93,215.713 1073.52,219.693 1105.52,223.842 1137.92,228.161 1170.69,232.648 1203.8,237.299 1237.22,242.11 1270.93,247.078 1304.92,252.201 1337.37,257.195 
  1359.92,260.722 1382.62,264.318 1405.44,267.979 1428.36,271.698 1451.36,275.474 1474.39,279.295 1497.44,283.16 1520.46,287.058 1543.43,290.983 1566.32,294.93 
  1589.09,298.887 1611.72,302.851 1634.19,306.815 1656.45,310.768 1678.49,314.706 1700.27,318.619 1721.77,322.5 1742.95,326.342 1763.79,330.138 1784.26,333.88 
  1804.35,337.563 1824.02,341.18 1843.26,344.725 1862.03,348.19 1880.3,351.57 1898.09,354.863 1915.35,358.061 1932.05,361.159 1948.18,364.15 1963.73,367.035 
  1978.68,369.808 1993.01,372.465 2006.7,375.001 2019.72,377.413 2032.1,379.702 2043.79,381.863 2054.78,383.893 2065.06,385.79 2074.62,387.552 2083.48,389.182 
  2091.6,390.676 2098.97,392.03 2105.58,393.244 2111.42,394.315 2116.49,395.243 2120.75,396.024 2124.27,396.667 2127.01,397.168 2128.96,397.525 2130.11,397.735 
  2130.46,397.799 2130,397.716 2128.74,397.485 2126.67,397.107 2123.83,396.587 2120.19,395.921 2115.76,395.11 2110.55,394.154 2104.54,393.053 2097.75,391.807 
  2090.19,390.417 2081.86,388.885 2072.77,387.211 2062.93,385.397 2052.34,383.443 2041.02,381.352 2028.98,379.125 2016.22,376.764 2002.76,374.272 1988.61,371.649 
  1973.77,368.898 1958.27,366.022 1942.12,363.026 1925.33,359.912 1907.91,356.684 1889.89,353.346 1871.28,349.902 1852.08,346.353 1832.31,342.706 1811.99,338.966 
  1791.13,335.139 1769.77,331.229 1747.91,327.244 1725.57,323.189 1702.76,319.067 1679.48,314.884 1655.77,310.647 1631.64,306.364 1607.11,302.041 1582.19,297.685 
  1556.91,293.303 1531.28,288.902 1505.31,284.489 1479.03,280.071 1452.46,275.655 1425.61,271.25 1398.5,266.861 1371.15,262.496 1343.59,258.163 1323.63,255.069 
  1307.7,252.625 1291.66,250.19 1275.55,247.768 1259.36,245.361 1243.13,242.973 1226.86,240.607 1210.59,238.267 1194.34,235.957 1178.12,233.681 1161.94,231.438 
  1145.84,229.235 1129.83,227.072 1113.93,224.952 1098.16,222.878 1082.55,220.852 1067.11,218.876 1051.86,216.952 1036.83,215.082 1022.02,213.266 1007.46,211.505 
  993.161,209.801 979.148,208.155 965.44,206.568 952.057,205.04 939.009,203.572 926.292,202.162 913.941,200.811 901.975,199.521 890.409,198.291 879.262,197.121 
  868.543,196.011 858.233,194.957 848.37,193.962 838.969,193.025 830.044,192.145 821.611,191.324 813.681,190.559 806.221,189.848 799.27,189.191 792.841,188.59 
  786.945,188.042 781.592,187.549 776.794,187.111 772.516,186.722 768.784,186.385 765.612,186.1 763.007,185.867 760.977,185.686 759.53,185.557 758.636,185.478 
  758.303,185.449 758.547,185.47 759.373,185.543 760.783,185.669 762.783,185.847 765.348,186.077 768.469,186.357 772.164,186.69 776.434,187.078 781.278,187.521 
  786.697,188.019 792.675,188.574 799.184,189.183 806.245,189.85 813.854,190.576 822.009,191.362 830.707,192.21 839.935,193.12 849.656,194.091 859.889,195.126 
  870.627,196.226 881.865,197.393 893.597,198.628 905.813,199.933 918.473,201.305 931.59,202.747 945.156,204.261 959.163,205.848 973.601,207.51 988.463,209.246 
  1003.71,211.056 1019.36,212.941 1035.38,214.903 1051.78,216.942 1068.54,219.058 1085.65,221.252 1103.09,223.523 1120.86,225.872 1138.94,228.298 1157.32,230.802 
  1175.99,233.384 1194.94,236.042 1214.15,238.777 1233.63,241.588 1253.35,244.474 1273.31,247.434 1293.49,250.467 1313.89,253.572 1334.17,256.698 1342.68,258.021 
  1351.26,259.362 
  "/>
<path clip-path="url(#clip750)" d="
M1423.59 554.876 L2284.84 554.876 L2284.84 166.076 L1423.59 166.076  Z
  " fill="#ffffff" fill-rule="evenodd" fill-opacity="1"/>
<polyline clip-path="url(#clip750)" style="stroke:#000000; stroke-linecap:butt; stroke-linejoin:round; stroke-width:4; stroke-opacity:1; fill:none" points="
  1423.59,554.876 2284.84,554.876 2284.84,166.076 1423.59,166.076 1423.59,554.876 
  "/>
<polyline clip-path="url(#clip750)" style="stroke:#009af9; stroke-linecap:butt; stroke-linejoin:round; stroke-width:6; stroke-opacity:1; fill:none" points="
  1446.23,243.836 1582.06,243.836 
  "/>
<path clip-path="url(#clip750)" d="M1638.07 219.617 L1638.07 226.457 Q1634.08 224.548 1630.54 223.61 Q1626.99 222.673 1623.7 222.673 Q1617.97 222.673 1614.84 224.895 Q1611.75 227.117 1611.75 231.214 Q1611.75 234.652 1613.8 236.423 Q1615.88 238.159 1621.65 239.235 L1625.88 240.103 Q1633.73 241.596 1637.45 245.381 Q1641.2 249.131 1641.2 255.45 Q1641.2 262.985 1636.13 266.874 Q1631.09 270.763 1621.33 270.763 Q1617.65 270.763 1613.49 269.929 Q1609.36 269.096 1604.91 267.464 L1604.91 260.242 Q1609.18 262.638 1613.28 263.853 Q1617.38 265.068 1621.33 265.068 Q1627.34 265.068 1630.61 262.707 Q1633.87 260.346 1633.87 255.971 Q1633.87 252.152 1631.51 249.999 Q1629.18 247.846 1623.83 246.77 L1619.56 245.936 Q1611.72 244.374 1608.21 241.041 Q1604.7 237.707 1604.7 231.77 Q1604.7 224.895 1609.53 220.937 Q1614.39 216.978 1622.9 216.978 Q1626.54 216.978 1630.33 217.638 Q1634.11 218.298 1638.07 219.617 Z" fill="#000000" fill-rule="evenodd" fill-opacity="1" /><path clip-path="url(#clip750)" d="M1651.86 230.867 L1658.24 230.867 L1658.24 269.756 L1651.86 269.756 L1651.86 230.867 M1651.86 215.728 L1658.24 215.728 L1658.24 223.818 L1651.86 223.818 L1651.86 215.728 Z" fill="#000000" fill-rule="evenodd" fill-opacity="1" /><path clip-path="url(#clip750)" d="M1701.89 238.332 Q1704.29 234.027 1707.62 231.978 Q1710.95 229.93 1715.47 229.93 Q1721.54 229.93 1724.84 234.2 Q1728.14 238.436 1728.14 246.284 L1728.14 269.756 L1721.72 269.756 L1721.72 246.492 Q1721.72 240.902 1719.74 238.193 Q1717.76 235.485 1713.7 235.485 Q1708.73 235.485 1705.85 238.784 Q1702.97 242.082 1702.97 247.777 L1702.97 269.756 L1696.54 269.756 L1696.54 246.492 Q1696.54 240.867 1694.56 238.193 Q1692.58 235.485 1688.45 235.485 Q1683.56 235.485 1680.67 238.818 Q1677.79 242.117 1677.79 247.777 L1677.79 269.756 L1671.37 269.756 L1671.37 230.867 L1677.79 230.867 L1677.79 236.909 Q1679.98 233.332 1683.04 231.631 Q1686.09 229.93 1690.29 229.93 Q1694.53 229.93 1697.48 232.082 Q1700.47 234.235 1701.89 238.332 Z" fill="#000000" fill-rule="evenodd" fill-opacity="1" /><path clip-path="url(#clip750)" d="M1747.06 263.922 L1747.06 284.547 L1740.64 284.547 L1740.64 230.867 L1747.06 230.867 L1747.06 236.77 Q1749.08 233.298 1752.13 231.631 Q1755.22 229.93 1759.49 229.93 Q1766.58 229.93 1770.99 235.555 Q1775.43 241.179 1775.43 250.346 Q1775.43 259.513 1770.99 265.138 Q1766.58 270.763 1759.49 270.763 Q1755.22 270.763 1752.13 269.096 Q1749.08 267.395 1747.06 263.922 M1768.8 250.346 Q1768.8 243.298 1765.88 239.304 Q1763 235.277 1757.93 235.277 Q1752.86 235.277 1749.95 239.304 Q1747.06 243.298 1747.06 250.346 Q1747.06 257.395 1749.95 261.422 Q1752.86 265.415 1757.93 265.415 Q1763 265.415 1765.88 261.422 Q1768.8 257.395 1768.8 250.346 Z" fill="#000000" fill-rule="evenodd" fill-opacity="1" /><path clip-path="url(#clip750)" d="M1786.02 215.728 L1792.41 215.728 L1792.41 269.756 L1786.02 269.756 L1786.02 215.728 Z" fill="#000000" fill-rule="evenodd" fill-opacity="1" /><path clip-path="url(#clip750)" d="M1839.04 248.714 L1839.04 251.839 L1809.67 251.839 Q1810.08 258.436 1813.63 261.909 Q1817.2 265.346 1823.56 265.346 Q1827.24 265.346 1830.67 264.443 Q1834.15 263.54 1837.55 261.735 L1837.55 267.777 Q1834.11 269.235 1830.5 269.999 Q1826.89 270.763 1823.17 270.763 Q1813.87 270.763 1808.42 265.346 Q1803 259.929 1803 250.693 Q1803 241.145 1808.14 235.555 Q1813.31 229.93 1822.06 229.93 Q1829.91 229.93 1834.46 234.999 Q1839.04 240.034 1839.04 248.714 M1832.65 246.839 Q1832.58 241.596 1829.7 238.471 Q1826.85 235.346 1822.13 235.346 Q1816.79 235.346 1813.56 238.367 Q1810.36 241.388 1809.88 246.874 L1832.65 246.839 Z" fill="#000000" fill-rule="evenodd" fill-opacity="1" /><path clip-path="url(#clip750)" d="M1849.81 217.916 L1879.6 217.916 L1879.6 223.818 L1856.82 223.818 L1856.82 239.096 L1877.37 239.096 L1877.37 244.999 L1856.82 244.999 L1856.82 269.756 L1849.81 269.756 L1849.81 217.916 Z" fill="#000000" fill-rule="evenodd" fill-opacity="1" /><path clip-path="url(#clip750)" d="M1890.71 217.916 L1901.16 217.916 L1914.39 253.193 L1927.69 217.916 L1938.14 217.916 L1938.14 269.756 L1931.3 269.756 L1931.3 224.235 L1917.93 259.79 L1910.88 259.79 L1897.51 224.235 L1897.51 269.756 L1890.71 269.756 L1890.71 217.916 Z" fill="#000000" fill-rule="evenodd" fill-opacity="1" /><path clip-path="url(#clip750)" d="M1951.26 217.916 L1958.31 217.916 L1958.31 249.409 Q1958.31 257.742 1961.33 261.422 Q1964.35 265.068 1971.12 265.068 Q1977.86 265.068 1980.88 261.422 Q1983.9 257.742 1983.9 249.409 L1983.9 217.916 L1990.95 217.916 L1990.95 250.277 Q1990.95 260.415 1985.92 265.589 Q1980.92 270.763 1971.12 270.763 Q1961.3 270.763 1956.26 265.589 Q1951.26 260.415 1951.26 250.277 L1951.26 217.916 Z" fill="#000000" fill-rule="evenodd" fill-opacity="1" /><polyline clip-path="url(#clip750)" style="stroke:#e26f46; stroke-linecap:butt; stroke-linejoin:round; stroke-width:6; stroke-opacity:1; fill:none" points="
  1446.23,321.596 1582.06,321.596 
  "/>
<path clip-path="url(#clip750)" d="M1627.48 314.599 Q1626.4 313.974 1625.12 313.696 Q1623.87 313.384 1622.34 313.384 Q1616.92 313.384 1614.01 316.926 Q1611.13 320.433 1611.13 327.03 L1611.13 347.516 L1604.7 347.516 L1604.7 308.627 L1611.13 308.627 L1611.13 314.669 Q1613.14 311.127 1616.37 309.426 Q1619.6 307.69 1624.22 307.69 Q1624.88 307.69 1625.67 307.794 Q1626.47 307.863 1627.45 308.037 L1627.48 314.599 Z" fill="#000000" fill-rule="evenodd" fill-opacity="1" /><path clip-path="url(#clip750)" d="M1665.88 326.474 L1665.88 329.599 L1636.51 329.599 Q1636.92 336.196 1640.47 339.669 Q1644.04 343.106 1650.4 343.106 Q1654.08 343.106 1657.52 342.203 Q1660.99 341.3 1664.39 339.495 L1664.39 345.537 Q1660.95 346.995 1657.34 347.759 Q1653.73 348.523 1650.02 348.523 Q1640.71 348.523 1635.26 343.106 Q1629.84 337.689 1629.84 328.453 Q1629.84 318.905 1634.98 313.315 Q1640.15 307.69 1648.9 307.69 Q1656.75 307.69 1661.3 312.759 Q1665.88 317.794 1665.88 326.474 M1659.49 324.599 Q1659.42 319.356 1656.54 316.231 Q1653.7 313.106 1648.97 313.106 Q1643.63 313.106 1640.4 316.127 Q1637.2 319.148 1636.72 324.634 L1659.49 324.599 Z" fill="#000000" fill-rule="evenodd" fill-opacity="1" /><path clip-path="url(#clip750)" d="M1696.06 293.488 L1696.06 298.801 L1689.95 298.801 Q1686.51 298.801 1685.15 300.19 Q1683.83 301.578 1683.83 305.19 L1683.83 308.627 L1694.36 308.627 L1694.36 313.592 L1683.83 313.592 L1683.83 347.516 L1677.41 347.516 L1677.41 313.592 L1671.3 313.592 L1671.3 308.627 L1677.41 308.627 L1677.41 305.919 Q1677.41 299.426 1680.43 296.474 Q1683.45 293.488 1690.01 293.488 L1696.06 293.488 Z" fill="#000000" fill-rule="evenodd" fill-opacity="1" /><path clip-path="url(#clip750)" d="M1734.67 326.474 L1734.67 329.599 L1705.29 329.599 Q1705.71 336.196 1709.25 339.669 Q1712.83 343.106 1719.18 343.106 Q1722.86 343.106 1726.3 342.203 Q1729.77 341.3 1733.17 339.495 L1733.17 345.537 Q1729.74 346.995 1726.13 347.759 Q1722.51 348.523 1718.8 348.523 Q1709.49 348.523 1704.04 343.106 Q1698.63 337.689 1698.63 328.453 Q1698.63 318.905 1703.76 313.315 Q1708.94 307.69 1717.69 307.69 Q1725.54 307.69 1730.08 312.759 Q1734.67 317.794 1734.67 326.474 M1728.28 324.599 Q1728.21 319.356 1725.33 316.231 Q1722.48 313.106 1717.76 313.106 Q1712.41 313.106 1709.18 316.127 Q1705.99 319.148 1705.5 324.634 L1728.28 324.599 Z" fill="#000000" fill-rule="evenodd" fill-opacity="1" /><path clip-path="url(#clip750)" d="M1767.69 314.599 Q1766.61 313.974 1765.33 313.696 Q1764.08 313.384 1762.55 313.384 Q1757.13 313.384 1754.22 316.926 Q1751.33 320.433 1751.33 327.03 L1751.33 347.516 L1744.91 347.516 L1744.91 308.627 L1751.33 308.627 L1751.33 314.669 Q1753.35 311.127 1756.58 309.426 Q1759.81 307.69 1764.42 307.69 Q1765.08 307.69 1765.88 307.794 Q1766.68 307.863 1767.65 308.037 L1767.69 314.599 Z" fill="#000000" fill-rule="evenodd" fill-opacity="1" /><path clip-path="url(#clip750)" d="M1806.09 326.474 L1806.09 329.599 L1776.72 329.599 Q1777.13 336.196 1780.67 339.669 Q1784.25 343.106 1790.6 343.106 Q1794.29 343.106 1797.72 342.203 Q1801.19 341.3 1804.6 339.495 L1804.6 345.537 Q1801.16 346.995 1797.55 347.759 Q1793.94 348.523 1790.22 348.523 Q1780.92 348.523 1775.47 343.106 Q1770.05 337.689 1770.05 328.453 Q1770.05 318.905 1775.19 313.315 Q1780.36 307.69 1789.11 307.69 Q1796.96 307.69 1801.51 312.759 Q1806.09 317.794 1806.09 326.474 M1799.7 324.599 Q1799.63 319.356 1796.75 316.231 Q1793.9 313.106 1789.18 313.106 Q1783.83 313.106 1780.6 316.127 Q1777.41 319.148 1776.92 324.634 L1799.7 324.599 Z" fill="#000000" fill-rule="evenodd" fill-opacity="1" /><path clip-path="url(#clip750)" d="M1848.9 324.044 L1848.9 347.516 L1842.51 347.516 L1842.51 324.252 Q1842.51 318.731 1840.36 315.988 Q1838.21 313.245 1833.9 313.245 Q1828.73 313.245 1825.74 316.544 Q1822.76 319.842 1822.76 325.537 L1822.76 347.516 L1816.33 347.516 L1816.33 308.627 L1822.76 308.627 L1822.76 314.669 Q1825.05 311.162 1828.14 309.426 Q1831.26 307.69 1835.33 307.69 Q1842.03 307.69 1845.47 311.856 Q1848.9 315.988 1848.9 324.044 Z" fill="#000000" fill-rule="evenodd" fill-opacity="1" /><path clip-path="url(#clip750)" d="M1889.63 310.12 L1889.63 316.092 Q1886.92 314.599 1884.18 313.87 Q1881.47 313.106 1878.69 313.106 Q1872.48 313.106 1869.04 317.064 Q1865.6 320.988 1865.6 328.106 Q1865.6 335.224 1869.04 339.182 Q1872.48 343.106 1878.69 343.106 Q1881.47 343.106 1884.18 342.377 Q1886.92 341.613 1889.63 340.12 L1889.63 346.023 Q1886.96 347.273 1884.08 347.898 Q1881.23 348.523 1878 348.523 Q1869.22 348.523 1864.04 343.002 Q1858.87 337.481 1858.87 328.106 Q1858.87 318.592 1864.08 313.141 Q1869.32 307.69 1878.42 307.69 Q1881.37 307.69 1884.18 308.315 Q1886.99 308.905 1889.63 310.12 Z" fill="#000000" fill-rule="evenodd" fill-opacity="1" /><path clip-path="url(#clip750)" d="M1934.01 326.474 L1934.01 329.599 L1904.63 329.599 Q1905.05 336.196 1908.59 339.669 Q1912.17 343.106 1918.52 343.106 Q1922.2 343.106 1925.64 342.203 Q1929.11 341.3 1932.51 339.495 L1932.51 345.537 Q1929.08 346.995 1925.46 347.759 Q1921.85 348.523 1918.14 348.523 Q1908.83 348.523 1903.38 343.106 Q1897.97 337.689 1897.97 328.453 Q1897.97 318.905 1903.1 313.315 Q1908.28 307.69 1917.03 307.69 Q1924.87 307.69 1929.42 312.759 Q1934.01 317.794 1934.01 326.474 M1927.62 324.599 Q1927.55 319.356 1924.67 316.231 Q1921.82 313.106 1917.1 313.106 Q1911.75 313.106 1908.52 316.127 Q1905.33 319.148 1904.84 324.634 L1927.62 324.599 Z" fill="#000000" fill-rule="evenodd" fill-opacity="1" /><polyline clip-path="url(#clip750)" style="stroke:#008000; stroke-linecap:butt; stroke-linejoin:round; stroke-width:6; stroke-opacity:1; fill:none" stroke-dasharray="3, 6" points="
  1446.23,399.356 1582.06,399.356 
  "/>
<path clip-path="url(#clip750)" d="M1604.7 373.436 L1614.15 373.436 L1637.13 416.804 L1637.13 373.436 L1643.94 373.436 L1643.94 425.276 L1634.49 425.276 L1611.51 381.908 L1611.51 425.276 L1604.7 425.276 L1604.7 373.436 Z" fill="#000000" fill-rule="evenodd" fill-opacity="1" /><path clip-path="url(#clip750)" d="M1690.88 404.234 L1690.88 407.359 L1661.51 407.359 Q1661.92 413.956 1665.47 417.429 Q1669.04 420.866 1675.4 420.866 Q1679.08 420.866 1682.51 419.963 Q1685.99 419.06 1689.39 417.255 L1689.39 423.297 Q1685.95 424.755 1682.34 425.519 Q1678.73 426.283 1675.01 426.283 Q1665.71 426.283 1660.26 420.866 Q1654.84 415.449 1654.84 406.213 Q1654.84 396.665 1659.98 391.075 Q1665.15 385.45 1673.9 385.45 Q1681.75 385.45 1686.3 390.519 Q1690.88 395.554 1690.88 404.234 M1684.49 402.359 Q1684.42 397.116 1681.54 393.991 Q1678.7 390.866 1673.97 390.866 Q1668.63 390.866 1665.4 393.887 Q1662.2 396.908 1661.72 402.394 L1684.49 402.359 Z" fill="#000000" fill-rule="evenodd" fill-opacity="1" /><path clip-path="url(#clip750)" d="M1700.71 409.929 L1700.71 386.387 L1707.1 386.387 L1707.1 409.686 Q1707.1 415.206 1709.25 417.984 Q1711.4 420.727 1715.71 420.727 Q1720.88 420.727 1723.87 417.429 Q1726.89 414.13 1726.89 408.436 L1726.89 386.387 L1733.28 386.387 L1733.28 425.276 L1726.89 425.276 L1726.89 419.304 Q1724.56 422.845 1721.47 424.581 Q1718.42 426.283 1714.36 426.283 Q1707.65 426.283 1704.18 422.116 Q1700.71 417.949 1700.71 409.929 M1716.79 385.45 L1716.79 385.45 Z" fill="#000000" fill-rule="evenodd" fill-opacity="1" /><path clip-path="url(#clip750)" d="M1768.97 392.359 Q1767.9 391.734 1766.61 391.456 Q1765.36 391.144 1763.83 391.144 Q1758.42 391.144 1755.5 394.686 Q1752.62 398.193 1752.62 404.79 L1752.62 425.276 L1746.2 425.276 L1746.2 386.387 L1752.62 386.387 L1752.62 392.429 Q1754.63 388.887 1757.86 387.186 Q1761.09 385.45 1765.71 385.45 Q1766.37 385.45 1767.17 385.554 Q1767.97 385.623 1768.94 385.797 L1768.97 392.359 Z" fill="#000000" fill-rule="evenodd" fill-opacity="1" /><path clip-path="url(#clip750)" d="M1793.35 405.727 Q1785.6 405.727 1782.62 407.498 Q1779.63 409.269 1779.63 413.54 Q1779.63 416.942 1781.85 418.956 Q1784.11 420.935 1787.97 420.935 Q1793.28 420.935 1796.47 417.185 Q1799.7 413.401 1799.7 407.151 L1799.7 405.727 L1793.35 405.727 M1806.09 403.088 L1806.09 425.276 L1799.7 425.276 L1799.7 419.373 Q1797.51 422.915 1794.25 424.616 Q1790.99 426.283 1786.26 426.283 Q1780.29 426.283 1776.75 422.949 Q1773.24 419.581 1773.24 413.956 Q1773.24 407.394 1777.62 404.061 Q1782.03 400.727 1790.74 400.727 L1799.7 400.727 L1799.7 400.102 Q1799.7 395.693 1796.79 393.297 Q1793.9 390.866 1788.66 390.866 Q1785.33 390.866 1782.17 391.665 Q1779.01 392.463 1776.09 394.061 L1776.09 388.158 Q1779.6 386.804 1782.9 386.144 Q1786.19 385.45 1789.32 385.45 Q1797.76 385.45 1801.92 389.825 Q1806.09 394.199 1806.09 403.088 Z" fill="#000000" fill-rule="evenodd" fill-opacity="1" /><path clip-path="url(#clip750)" d="M1819.25 371.248 L1825.64 371.248 L1825.64 425.276 L1819.25 425.276 L1819.25 371.248 Z" fill="#000000" fill-rule="evenodd" fill-opacity="1" /><path clip-path="url(#clip750)" d="M1839.28 373.436 L1869.08 373.436 L1869.08 379.338 L1846.3 379.338 L1846.3 394.616 L1866.85 394.616 L1866.85 400.519 L1846.3 400.519 L1846.3 425.276 L1839.28 425.276 L1839.28 373.436 Z" fill="#000000" fill-rule="evenodd" fill-opacity="1" /><path clip-path="url(#clip750)" d="M1880.19 373.436 L1890.64 373.436 L1903.87 408.713 L1917.17 373.436 L1927.62 373.436 L1927.62 425.276 L1920.78 425.276 L1920.78 379.755 L1907.41 415.31 L1900.36 415.31 L1886.99 379.755 L1886.99 425.276 L1880.19 425.276 L1880.19 373.436 Z" fill="#000000" fill-rule="evenodd" fill-opacity="1" /><path clip-path="url(#clip750)" d="M1940.74 373.436 L1947.79 373.436 L1947.79 404.929 Q1947.79 413.262 1950.81 416.942 Q1953.83 420.588 1960.6 420.588 Q1967.34 420.588 1970.36 416.942 Q1973.38 413.262 1973.38 404.929 L1973.38 373.436 L1980.43 373.436 L1980.43 405.797 Q1980.43 415.935 1975.4 421.109 Q1970.4 426.283 1960.6 426.283 Q1950.78 426.283 1945.74 421.109 Q1940.74 415.935 1940.74 405.797 L1940.74 373.436 Z" fill="#000000" fill-rule="evenodd" fill-opacity="1" /><path clip-path="url(#clip750)" d="M2031.26 371.318 Q2026.61 379.304 2024.35 387.116 Q2022.1 394.929 2022.1 402.949 Q2022.1 410.97 2024.35 418.852 Q2026.64 426.699 2031.26 434.651 L2025.71 434.651 Q2020.5 426.491 2017.9 418.609 Q2015.33 410.727 2015.33 402.949 Q2015.33 395.206 2017.9 387.359 Q2020.46 379.512 2025.71 371.318 L2031.26 371.318 Z" fill="#000000" fill-rule="evenodd" fill-opacity="1" /><path clip-path="url(#clip750)" d="M2050.6 419.373 L2075.08 419.373 L2075.08 425.276 L2042.17 425.276 L2042.17 419.373 Q2046.16 415.241 2053.03 408.297 Q2059.94 401.318 2061.71 399.304 Q2065.08 395.519 2066.4 392.915 Q2067.76 390.276 2067.76 387.741 Q2067.76 383.609 2064.84 381.005 Q2061.96 378.401 2057.3 378.401 Q2054.01 378.401 2050.33 379.547 Q2046.68 380.693 2042.51 383.019 L2042.51 375.936 Q2046.75 374.234 2050.43 373.366 Q2054.11 372.498 2057.17 372.498 Q2065.22 372.498 2070.01 376.526 Q2074.8 380.554 2074.8 387.29 Q2074.8 390.484 2073.59 393.366 Q2072.41 396.213 2069.25 400.102 Q2068.38 401.109 2063.73 405.936 Q2059.08 410.727 2050.6 419.373 Z" fill="#000000" fill-rule="evenodd" fill-opacity="1" /><path clip-path="url(#clip750)" d="M2089.87 373.436 L2117.41 373.436 L2117.41 379.338 L2096.3 379.338 L2096.3 392.047 Q2097.83 391.526 2099.35 391.283 Q2100.88 391.005 2102.41 391.005 Q2111.09 391.005 2116.16 395.762 Q2121.23 400.519 2121.23 408.644 Q2121.23 417.012 2116.02 421.665 Q2110.81 426.283 2101.33 426.283 Q2098.07 426.283 2094.67 425.727 Q2091.3 425.172 2087.69 424.06 L2087.69 417.012 Q2090.81 418.713 2094.14 419.547 Q2097.48 420.38 2101.19 420.38 Q2107.2 420.38 2110.71 417.22 Q2114.21 414.06 2114.21 408.644 Q2114.21 403.227 2110.71 400.068 Q2107.2 396.908 2101.19 396.908 Q2098.38 396.908 2095.57 397.533 Q2092.79 398.158 2089.87 399.477 L2089.87 373.436 Z" fill="#000000" fill-rule="evenodd" fill-opacity="1" /><path clip-path="url(#clip750)" d="M2150.05 378.054 Q2144.63 378.054 2141.89 383.401 Q2139.18 388.713 2139.18 399.408 Q2139.18 410.067 2141.89 415.415 Q2144.63 420.727 2150.05 420.727 Q2155.5 420.727 2158.21 415.415 Q2160.95 410.067 2160.95 399.408 Q2160.95 388.713 2158.21 383.401 Q2155.5 378.054 2150.05 378.054 M2150.05 372.498 Q2158.76 372.498 2163.35 379.408 Q2167.96 386.283 2167.96 399.408 Q2167.96 412.498 2163.35 419.408 Q2158.76 426.283 2150.05 426.283 Q2141.33 426.283 2136.71 419.408 Q2132.13 412.498 2132.13 399.408 Q2132.13 386.283 2136.71 379.408 Q2141.33 372.498 2150.05 372.498 Z" fill="#000000" fill-rule="evenodd" fill-opacity="1" /><path clip-path="url(#clip750)" d="M2195.29 378.054 Q2189.87 378.054 2187.13 383.401 Q2184.42 388.713 2184.42 399.408 Q2184.42 410.067 2187.13 415.415 Q2189.87 420.727 2195.29 420.727 Q2200.74 420.727 2203.45 415.415 Q2206.19 410.067 2206.19 399.408 Q2206.19 388.713 2203.45 383.401 Q2200.74 378.054 2195.29 378.054 M2195.29 372.498 Q2204.01 372.498 2208.59 379.408 Q2213.21 386.283 2213.21 399.408 Q2213.21 412.498 2208.59 419.408 Q2204.01 426.283 2195.29 426.283 Q2186.57 426.283 2181.96 419.408 Q2177.37 412.498 2177.37 399.408 Q2177.37 386.283 2181.96 379.408 Q2186.57 372.498 2195.29 372.498 Z" fill="#000000" fill-rule="evenodd" fill-opacity="1" /><path clip-path="url(#clip750)" d="M2223.62 371.318 L2229.18 371.318 Q2234.39 379.512 2236.96 387.359 Q2239.56 395.206 2239.56 402.949 Q2239.56 410.727 2236.96 418.609 Q2234.39 426.491 2229.18 434.651 L2223.62 434.651 Q2228.24 426.699 2230.5 418.852 Q2232.79 410.97 2232.79 402.949 Q2232.79 394.929 2230.5 387.116 Q2228.24 379.304 2223.62 371.318 Z" fill="#000000" fill-rule="evenodd" fill-opacity="1" /><polyline clip-path="url(#clip750)" style="stroke:#008000; stroke-linecap:butt; stroke-linejoin:round; stroke-width:6; stroke-opacity:1; fill:none" points="
  1446.23,477.116 1582.06,477.116 
  "/>
<path clip-path="url(#clip750)" d="M1604.7 451.196 L1614.15 451.196 L1637.13 494.564 L1637.13 451.196 L1643.94 451.196 L1643.94 503.036 L1634.49 503.036 L1611.51 459.668 L1611.51 503.036 L1604.7 503.036 L1604.7 451.196 Z" fill="#000000" fill-rule="evenodd" fill-opacity="1" /><path clip-path="url(#clip750)" d="M1690.88 481.994 L1690.88 485.119 L1661.51 485.119 Q1661.92 491.716 1665.47 495.189 Q1669.04 498.626 1675.4 498.626 Q1679.08 498.626 1682.51 497.723 Q1685.99 496.82 1689.39 495.015 L1689.39 501.057 Q1685.95 502.515 1682.34 503.279 Q1678.73 504.043 1675.01 504.043 Q1665.71 504.043 1660.26 498.626 Q1654.84 493.209 1654.84 483.973 Q1654.84 474.425 1659.98 468.835 Q1665.15 463.21 1673.9 463.21 Q1681.75 463.21 1686.3 468.279 Q1690.88 473.314 1690.88 481.994 M1684.49 480.119 Q1684.42 474.876 1681.54 471.751 Q1678.7 468.626 1673.97 468.626 Q1668.63 468.626 1665.4 471.647 Q1662.2 474.668 1661.72 480.154 L1684.49 480.119 Z" fill="#000000" fill-rule="evenodd" fill-opacity="1" /><path clip-path="url(#clip750)" d="M1700.71 487.689 L1700.71 464.147 L1707.1 464.147 L1707.1 487.446 Q1707.1 492.966 1709.25 495.744 Q1711.4 498.487 1715.71 498.487 Q1720.88 498.487 1723.87 495.189 Q1726.89 491.89 1726.89 486.196 L1726.89 464.147 L1733.28 464.147 L1733.28 503.036 L1726.89 503.036 L1726.89 497.064 Q1724.56 500.605 1721.47 502.341 Q1718.42 504.043 1714.36 504.043 Q1707.65 504.043 1704.18 499.876 Q1700.71 495.709 1700.71 487.689 M1716.79 463.21 L1716.79 463.21 Z" fill="#000000" fill-rule="evenodd" fill-opacity="1" /><path clip-path="url(#clip750)" d="M1768.97 470.119 Q1767.9 469.494 1766.61 469.216 Q1765.36 468.904 1763.83 468.904 Q1758.42 468.904 1755.5 472.446 Q1752.62 475.953 1752.62 482.55 L1752.62 503.036 L1746.2 503.036 L1746.2 464.147 L1752.62 464.147 L1752.62 470.189 Q1754.63 466.647 1757.86 464.946 Q1761.09 463.21 1765.71 463.21 Q1766.37 463.21 1767.17 463.314 Q1767.97 463.383 1768.94 463.557 L1768.97 470.119 Z" fill="#000000" fill-rule="evenodd" fill-opacity="1" /><path clip-path="url(#clip750)" d="M1793.35 483.487 Q1785.6 483.487 1782.62 485.258 Q1779.63 487.029 1779.63 491.3 Q1779.63 494.702 1781.85 496.716 Q1784.11 498.695 1787.97 498.695 Q1793.28 498.695 1796.47 494.945 Q1799.7 491.161 1799.7 484.911 L1799.7 483.487 L1793.35 483.487 M1806.09 480.848 L1806.09 503.036 L1799.7 503.036 L1799.7 497.133 Q1797.51 500.675 1794.25 502.376 Q1790.99 504.043 1786.26 504.043 Q1780.29 504.043 1776.75 500.709 Q1773.24 497.341 1773.24 491.716 Q1773.24 485.154 1777.62 481.821 Q1782.03 478.487 1790.74 478.487 L1799.7 478.487 L1799.7 477.862 Q1799.7 473.453 1796.79 471.057 Q1793.9 468.626 1788.66 468.626 Q1785.33 468.626 1782.17 469.425 Q1779.01 470.223 1776.09 471.821 L1776.09 465.918 Q1779.6 464.564 1782.9 463.904 Q1786.19 463.21 1789.32 463.21 Q1797.76 463.21 1801.92 467.585 Q1806.09 471.959 1806.09 480.848 Z" fill="#000000" fill-rule="evenodd" fill-opacity="1" /><path clip-path="url(#clip750)" d="M1819.25 449.008 L1825.64 449.008 L1825.64 503.036 L1819.25 503.036 L1819.25 449.008 Z" fill="#000000" fill-rule="evenodd" fill-opacity="1" /><path clip-path="url(#clip750)" d="M1839.28 451.196 L1869.08 451.196 L1869.08 457.098 L1846.3 457.098 L1846.3 472.376 L1866.85 472.376 L1866.85 478.279 L1846.3 478.279 L1846.3 503.036 L1839.28 503.036 L1839.28 451.196 Z" fill="#000000" fill-rule="evenodd" fill-opacity="1" /><path clip-path="url(#clip750)" d="M1880.19 451.196 L1890.64 451.196 L1903.87 486.473 L1917.17 451.196 L1927.62 451.196 L1927.62 503.036 L1920.78 503.036 L1920.78 457.515 L1907.41 493.07 L1900.36 493.07 L1886.99 457.515 L1886.99 503.036 L1880.19 503.036 L1880.19 451.196 Z" fill="#000000" fill-rule="evenodd" fill-opacity="1" /><path clip-path="url(#clip750)" d="M1940.74 451.196 L1947.79 451.196 L1947.79 482.689 Q1947.79 491.022 1950.81 494.702 Q1953.83 498.348 1960.6 498.348 Q1967.34 498.348 1970.36 494.702 Q1973.38 491.022 1973.38 482.689 L1973.38 451.196 L1980.43 451.196 L1980.43 483.557 Q1980.43 493.695 1975.4 498.869 Q1970.4 504.043 1960.6 504.043 Q1950.78 504.043 1945.74 498.869 Q1940.74 493.695 1940.74 483.557 L1940.74 451.196 Z" fill="#000000" fill-rule="evenodd" fill-opacity="1" /><path clip-path="url(#clip750)" d="M2031.26 449.078 Q2026.61 457.064 2024.35 464.876 Q2022.1 472.689 2022.1 480.709 Q2022.1 488.73 2024.35 496.612 Q2026.64 504.459 2031.26 512.411 L2025.71 512.411 Q2020.5 504.251 2017.9 496.369 Q2015.33 488.487 2015.33 480.709 Q2015.33 472.966 2017.9 465.119 Q2020.46 457.272 2025.71 449.078 L2031.26 449.078 Z" fill="#000000" fill-rule="evenodd" fill-opacity="1" /><path clip-path="url(#clip750)" d="M2044.63 451.196 L2072.17 451.196 L2072.17 457.098 L2051.05 457.098 L2051.05 469.807 Q2052.58 469.286 2054.11 469.043 Q2055.64 468.765 2057.17 468.765 Q2065.85 468.765 2070.92 473.522 Q2075.99 478.279 2075.99 486.404 Q2075.99 494.772 2070.78 499.425 Q2065.57 504.043 2056.09 504.043 Q2052.83 504.043 2049.42 503.487 Q2046.05 502.932 2042.44 501.82 L2042.44 494.772 Q2045.57 496.473 2048.9 497.307 Q2052.24 498.14 2055.95 498.14 Q2061.96 498.14 2065.46 494.98 Q2068.97 491.82 2068.97 486.404 Q2068.97 480.987 2065.46 477.828 Q2061.96 474.668 2055.95 474.668 Q2053.14 474.668 2050.33 475.293 Q2047.55 475.918 2044.63 477.237 L2044.63 451.196 Z" fill="#000000" fill-rule="evenodd" fill-opacity="1" /><path clip-path="url(#clip750)" d="M2104.8 455.814 Q2099.39 455.814 2096.64 461.161 Q2093.94 466.473 2093.94 477.168 Q2093.94 487.827 2096.64 493.175 Q2099.39 498.487 2104.8 498.487 Q2110.26 498.487 2112.96 493.175 Q2115.71 487.827 2115.71 477.168 Q2115.71 466.473 2112.96 461.161 Q2110.26 455.814 2104.8 455.814 M2104.8 450.258 Q2113.52 450.258 2118.1 457.168 Q2122.72 464.043 2122.72 477.168 Q2122.72 490.258 2118.1 497.168 Q2113.52 504.043 2104.8 504.043 Q2096.09 504.043 2091.47 497.168 Q2086.89 490.258 2086.89 477.168 Q2086.89 464.043 2091.47 457.168 Q2096.09 450.258 2104.8 450.258 Z" fill="#000000" fill-rule="evenodd" fill-opacity="1" /><path clip-path="url(#clip750)" d="M2150.05 455.814 Q2144.63 455.814 2141.89 461.161 Q2139.18 466.473 2139.18 477.168 Q2139.18 487.827 2141.89 493.175 Q2144.63 498.487 2150.05 498.487 Q2155.5 498.487 2158.21 493.175 Q2160.95 487.827 2160.95 477.168 Q2160.95 466.473 2158.21 461.161 Q2155.5 455.814 2150.05 455.814 M2150.05 450.258 Q2158.76 450.258 2163.35 457.168 Q2167.96 464.043 2167.96 477.168 Q2167.96 490.258 2163.35 497.168 Q2158.76 504.043 2150.05 504.043 Q2141.33 504.043 2136.71 497.168 Q2132.13 490.258 2132.13 477.168 Q2132.13 464.043 2136.71 457.168 Q2141.33 450.258 2150.05 450.258 Z" fill="#000000" fill-rule="evenodd" fill-opacity="1" /><path clip-path="url(#clip750)" d="M2195.29 455.814 Q2189.87 455.814 2187.13 461.161 Q2184.42 466.473 2184.42 477.168 Q2184.42 487.827 2187.13 493.175 Q2189.87 498.487 2195.29 498.487 Q2200.74 498.487 2203.45 493.175 Q2206.19 487.827 2206.19 477.168 Q2206.19 466.473 2203.45 461.161 Q2200.74 455.814 2195.29 455.814 M2195.29 450.258 Q2204.01 450.258 2208.59 457.168 Q2213.21 464.043 2213.21 477.168 Q2213.21 490.258 2208.59 497.168 Q2204.01 504.043 2195.29 504.043 Q2186.57 504.043 2181.96 497.168 Q2177.37 490.258 2177.37 477.168 Q2177.37 464.043 2181.96 457.168 Q2186.57 450.258 2195.29 450.258 Z" fill="#000000" fill-rule="evenodd" fill-opacity="1" /><path clip-path="url(#clip750)" d="M2223.62 449.078 L2229.18 449.078 Q2234.39 457.272 2236.96 465.119 Q2239.56 472.966 2239.56 480.709 Q2239.56 488.487 2236.96 496.369 Q2234.39 504.251 2229.18 512.411 L2223.62 512.411 Q2228.24 504.459 2230.5 496.612 Q2232.79 488.73 2232.79 480.709 Q2232.79 472.689 2230.5 464.876 Q2228.24 457.064 2223.62 449.078 Z" fill="#000000" fill-rule="evenodd" fill-opacity="1" /></svg>
