<?xml version="1.0" encoding="utf-8"?>
<svg xmlns="http://www.w3.org/2000/svg" xmlns:xlink="http://www.w3.org/1999/xlink" width="600" height="400" viewBox="0 0 2400 1600">
<defs>
  <clipPath id="clip010">
    <rect x="0" y="0" width="2400" height="1600"/>
  </clipPath>
</defs>
<path clip-path="url(#clip010)" d="
M0 1600 L2400 1600 L2400 0 L0 0  Z
  " fill="#ffffff" fill-rule="evenodd" fill-opacity="1"/>
<defs>
  <clipPath id="clip011">
    <rect x="480" y="0" width="1681" height="1600"/>
  </clipPath>
</defs>
<path clip-path="url(#clip010)" d="
M245.309 1401.58 L2352.76 1401.58 L2352.76 123.472 L245.309 123.472  Z
  " fill="#ffffff" fill-rule="evenodd" fill-opacity="1"/>
<defs>
  <clipPath id="clip012">
    <rect x="245" y="123" width="2108" height="1279"/>
  </clipPath>
</defs>
<polyline clip-path="url(#clip012)" style="stroke:#000000; stroke-linecap:butt; stroke-linejoin:round; stroke-width:2; stroke-opacity:0.1; fill:none" points="
  304.954,1401.58 304.954,123.472 
  "/>
<polyline clip-path="url(#clip012)" style="stroke:#000000; stroke-linecap:butt; stroke-linejoin:round; stroke-width:2; stroke-opacity:0.1; fill:none" points="
  801.993,1401.58 801.993,123.472 
  "/>
<polyline clip-path="url(#clip012)" style="stroke:#000000; stroke-linecap:butt; stroke-linejoin:round; stroke-width:2; stroke-opacity:0.1; fill:none" points="
  1299.03,1401.58 1299.03,123.472 
  "/>
<polyline clip-path="url(#clip012)" style="stroke:#000000; stroke-linecap:butt; stroke-linejoin:round; stroke-width:2; stroke-opacity:0.1; fill:none" points="
  1796.07,1401.58 1796.07,123.472 
  "/>
<polyline clip-path="url(#clip012)" style="stroke:#000000; stroke-linecap:butt; stroke-linejoin:round; stroke-width:2; stroke-opacity:0.1; fill:none" points="
  2293.11,1401.58 2293.11,123.472 
  "/>
<polyline clip-path="url(#clip010)" style="stroke:#000000; stroke-linecap:butt; stroke-linejoin:round; stroke-width:4; stroke-opacity:1; fill:none" points="
  245.309,1401.58 2352.76,1401.58 
  "/>
<polyline clip-path="url(#clip010)" style="stroke:#000000; stroke-linecap:butt; stroke-linejoin:round; stroke-width:4; stroke-opacity:1; fill:none" points="
  304.954,1401.58 304.954,1386.24 
  "/>
<polyline clip-path="url(#clip010)" style="stroke:#000000; stroke-linecap:butt; stroke-linejoin:round; stroke-width:4; stroke-opacity:1; fill:none" points="
  801.993,1401.58 801.993,1386.24 
  "/>
<polyline clip-path="url(#clip010)" style="stroke:#000000; stroke-linecap:butt; stroke-linejoin:round; stroke-width:4; stroke-opacity:1; fill:none" points="
  1299.03,1401.58 1299.03,1386.24 
  "/>
<polyline clip-path="url(#clip010)" style="stroke:#000000; stroke-linecap:butt; stroke-linejoin:round; stroke-width:4; stroke-opacity:1; fill:none" points="
  1796.07,1401.58 1796.07,1386.24 
  "/>
<polyline clip-path="url(#clip010)" style="stroke:#000000; stroke-linecap:butt; stroke-linejoin:round; stroke-width:4; stroke-opacity:1; fill:none" points="
  2293.11,1401.58 2293.11,1386.24 
  "/>
<path clip-path="url(#clip010)" d="M304.954 1435.77 Q299.537 1435.77 296.794 1441.11 Q294.086 1446.43 294.086 1457.12 Q294.086 1467.78 296.794 1473.13 Q299.537 1478.44 304.954 1478.44 Q310.405 1478.44 313.113 1473.13 Q315.856 1467.78 315.856 1457.12 Q315.856 1446.43 313.113 1441.11 Q310.405 1435.77 304.954 1435.77 M304.954 1430.21 Q313.669 1430.21 318.252 1437.12 Q322.87 1443.99 322.87 1457.12 Q322.87 1470.21 318.252 1477.12 Q313.669 1483.99 304.954 1483.99 Q296.238 1483.99 291.62 1477.12 Q287.037 1470.21 287.037 1457.12 Q287.037 1443.99 291.62 1437.12 Q296.238 1430.21 304.954 1430.21 Z" fill="#000000" fill-rule="evenodd" fill-opacity="1" /><path clip-path="url(#clip010)" d="M787.566 1477.09 L799.024 1477.09 L799.024 1437.54 L786.559 1440.04 L786.559 1433.65 L798.955 1431.15 L805.969 1431.15 L805.969 1477.09 L817.427 1477.09 L817.427 1482.99 L787.566 1482.99 L787.566 1477.09 Z" fill="#000000" fill-rule="evenodd" fill-opacity="1" /><path clip-path="url(#clip010)" d="M1291.01 1477.09 L1315.49 1477.09 L1315.49 1482.99 L1282.57 1482.99 L1282.57 1477.09 Q1286.57 1472.95 1293.44 1466.01 Q1300.35 1459.03 1302.12 1457.02 Q1305.49 1453.23 1306.81 1450.63 Q1308.16 1447.99 1308.16 1445.45 Q1308.16 1441.32 1305.25 1438.72 Q1302.37 1436.11 1297.71 1436.11 Q1294.41 1436.11 1290.73 1437.26 Q1287.09 1438.4 1282.92 1440.73 L1282.92 1433.65 Q1287.16 1431.95 1290.84 1431.08 Q1294.52 1430.21 1297.57 1430.21 Q1305.63 1430.21 1310.42 1434.24 Q1315.21 1438.27 1315.21 1445 Q1315.21 1448.2 1314 1451.08 Q1312.82 1453.93 1309.66 1457.81 Q1308.79 1458.82 1304.14 1463.65 Q1299.48 1468.44 1291.01 1477.09 Z" fill="#000000" fill-rule="evenodd" fill-opacity="1" /><path clip-path="url(#clip010)" d="M1802.44 1455.04 Q1807.48 1456.11 1810.29 1459.52 Q1813.14 1462.92 1813.14 1467.92 Q1813.14 1475.59 1807.86 1479.79 Q1802.58 1483.99 1792.86 1483.99 Q1789.6 1483.99 1786.12 1483.34 Q1782.69 1482.71 1779.01 1481.43 L1779.01 1474.65 Q1781.92 1476.36 1785.39 1477.22 Q1788.87 1478.09 1792.65 1478.09 Q1799.25 1478.09 1802.69 1475.49 Q1806.16 1472.88 1806.16 1467.92 Q1806.16 1463.34 1802.93 1460.77 Q1799.73 1458.16 1794.01 1458.16 L1787.96 1458.16 L1787.96 1452.4 L1794.28 1452.4 Q1799.46 1452.4 1802.2 1450.35 Q1804.94 1448.27 1804.94 1444.38 Q1804.94 1440.38 1802.1 1438.27 Q1799.28 1436.11 1794.01 1436.11 Q1791.12 1436.11 1787.83 1436.74 Q1784.53 1437.36 1780.57 1438.68 L1780.57 1432.43 Q1784.56 1431.32 1788.03 1430.77 Q1791.54 1430.21 1794.63 1430.21 Q1802.62 1430.21 1807.27 1433.86 Q1811.92 1437.47 1811.92 1443.65 Q1811.92 1447.95 1809.46 1450.94 Q1806.99 1453.89 1802.44 1455.04 Z" fill="#000000" fill-rule="evenodd" fill-opacity="1" /><path clip-path="url(#clip010)" d="M2297.63 1437.26 L2279.92 1464.93 L2297.63 1464.93 L2297.63 1437.26 M2295.78 1431.15 L2304.6 1431.15 L2304.6 1464.93 L2312 1464.93 L2312 1470.77 L2304.6 1470.77 L2304.6 1482.99 L2297.63 1482.99 L2297.63 1470.77 L2274.22 1470.77 L2274.22 1463.99 L2295.78 1431.15 Z" fill="#000000" fill-rule="evenodd" fill-opacity="1" /><path clip-path="url(#clip010)" d="M1242.64 1527.62 L1242.64 1538.66 L1255.8 1538.66 L1255.8 1543.62 L1242.64 1543.62 L1242.64 1564.74 Q1242.64 1569.49 1243.93 1570.85 Q1245.25 1572.2 1249.24 1572.2 L1255.8 1572.2 L1255.8 1577.55 L1249.24 1577.55 Q1241.85 1577.55 1239.03 1574.8 Q1236.22 1572.03 1236.22 1564.74 L1236.22 1543.62 L1231.53 1543.62 L1231.53 1538.66 L1236.22 1538.66 L1236.22 1527.62 L1242.64 1527.62 Z" fill="#000000" fill-rule="evenodd" fill-opacity="1" /><path clip-path="url(#clip010)" d="M1286.22 1523.52 L1300.94 1523.52 L1300.94 1528.49 L1292.61 1528.49 L1292.61 1581.96 L1300.94 1581.96 L1300.94 1586.92 L1286.22 1586.92 L1286.22 1523.52 Z" fill="#000000" fill-rule="evenodd" fill-opacity="1" /><path clip-path="url(#clip010)" d="M1339.34 1539.8 L1339.34 1545.85 Q1336.64 1544.46 1333.72 1543.76 Q1330.8 1543.07 1327.68 1543.07 Q1322.92 1543.07 1320.53 1544.53 Q1318.16 1545.99 1318.16 1548.9 Q1318.16 1551.12 1319.87 1552.41 Q1321.57 1553.66 1326.71 1554.8 L1328.89 1555.29 Q1335.7 1556.75 1338.55 1559.42 Q1341.43 1562.06 1341.43 1566.82 Q1341.43 1572.24 1337.12 1575.4 Q1332.85 1578.55 1325.35 1578.55 Q1322.23 1578.55 1318.82 1577.93 Q1315.46 1577.34 1311.71 1576.12 L1311.71 1569.53 Q1315.25 1571.37 1318.69 1572.3 Q1322.12 1573.21 1325.49 1573.21 Q1330 1573.21 1332.43 1571.68 Q1334.87 1570.12 1334.87 1567.3 Q1334.87 1564.7 1333.09 1563.31 Q1331.36 1561.92 1325.42 1560.64 L1323.2 1560.12 Q1317.26 1558.87 1314.62 1556.3 Q1311.98 1553.69 1311.98 1549.18 Q1311.98 1543.69 1315.87 1540.71 Q1319.76 1537.72 1326.91 1537.72 Q1330.46 1537.72 1333.58 1538.24 Q1336.71 1538.76 1339.34 1539.8 Z" fill="#000000" fill-rule="evenodd" fill-opacity="1" /><path clip-path="url(#clip010)" d="M1366.53 1523.52 L1366.53 1586.92 L1351.81 1586.92 L1351.81 1581.96 L1360.11 1581.96 L1360.11 1528.49 L1351.81 1528.49 L1351.81 1523.52 L1366.53 1523.52 Z" fill="#000000" fill-rule="evenodd" fill-opacity="1" /><polyline clip-path="url(#clip012)" style="stroke:#000000; stroke-linecap:butt; stroke-linejoin:round; stroke-width:2; stroke-opacity:0.1; fill:none" points="
  245.309,1397.95 2352.76,1397.95 
  "/>
<polyline clip-path="url(#clip012)" style="stroke:#000000; stroke-linecap:butt; stroke-linejoin:round; stroke-width:2; stroke-opacity:0.1; fill:none" points="
  245.309,1080.23 2352.76,1080.23 
  "/>
<polyline clip-path="url(#clip012)" style="stroke:#000000; stroke-linecap:butt; stroke-linejoin:round; stroke-width:2; stroke-opacity:0.1; fill:none" points="
  245.309,762.504 2352.76,762.504 
  "/>
<polyline clip-path="url(#clip012)" style="stroke:#000000; stroke-linecap:butt; stroke-linejoin:round; stroke-width:2; stroke-opacity:0.1; fill:none" points="
  245.309,444.783 2352.76,444.783 
  "/>
<polyline clip-path="url(#clip012)" style="stroke:#000000; stroke-linecap:butt; stroke-linejoin:round; stroke-width:2; stroke-opacity:0.1; fill:none" points="
  245.309,127.062 2352.76,127.062 
  "/>
<polyline clip-path="url(#clip010)" style="stroke:#000000; stroke-linecap:butt; stroke-linejoin:round; stroke-width:4; stroke-opacity:1; fill:none" points="
  245.309,1401.58 245.309,123.472 
  "/>
<polyline clip-path="url(#clip010)" style="stroke:#000000; stroke-linecap:butt; stroke-linejoin:round; stroke-width:4; stroke-opacity:1; fill:none" points="
  245.309,1397.95 270.598,1397.95 
  "/>
<polyline clip-path="url(#clip010)" style="stroke:#000000; stroke-linecap:butt; stroke-linejoin:round; stroke-width:4; stroke-opacity:1; fill:none" points="
  245.309,1080.23 270.598,1080.23 
  "/>
<polyline clip-path="url(#clip010)" style="stroke:#000000; stroke-linecap:butt; stroke-linejoin:round; stroke-width:4; stroke-opacity:1; fill:none" points="
  245.309,762.504 270.598,762.504 
  "/>
<polyline clip-path="url(#clip010)" style="stroke:#000000; stroke-linecap:butt; stroke-linejoin:round; stroke-width:4; stroke-opacity:1; fill:none" points="
  245.309,444.783 270.598,444.783 
  "/>
<polyline clip-path="url(#clip010)" style="stroke:#000000; stroke-linecap:butt; stroke-linejoin:round; stroke-width:4; stroke-opacity:1; fill:none" points="
  245.309,127.062 270.598,127.062 
  "/>
<path clip-path="url(#clip010)" d="M119.136 1398.62 L163.649 1398.62 L163.649 1404.53 L119.136 1404.53 L119.136 1398.62 Z" fill="#000000" fill-rule="evenodd" fill-opacity="1" /><path clip-path="url(#clip010)" d="M184.83 1417.96 L209.309 1417.96 L209.309 1423.87 L176.392 1423.87 L176.392 1417.96 Q180.385 1413.83 187.26 1406.89 Q194.17 1399.91 195.941 1397.89 Q199.309 1394.11 200.628 1391.51 Q201.982 1388.87 201.982 1386.33 Q201.982 1382.2 199.066 1379.6 Q196.184 1376.99 191.531 1376.99 Q188.233 1376.99 184.552 1378.14 Q180.906 1379.28 176.74 1381.61 L176.74 1374.53 Q180.976 1372.82 184.656 1371.96 Q188.337 1371.09 191.392 1371.09 Q199.448 1371.09 204.239 1375.12 Q209.031 1379.14 209.031 1385.88 Q209.031 1389.07 207.816 1391.96 Q206.635 1394.8 203.476 1398.69 Q202.607 1399.7 197.955 1404.53 Q193.302 1409.32 184.83 1417.96 Z" fill="#000000" fill-rule="evenodd" fill-opacity="1" /><path clip-path="url(#clip010)" d="M118.58 1080.9 L163.094 1080.9 L163.094 1086.8 L118.58 1086.8 L118.58 1080.9 Z" fill="#000000" fill-rule="evenodd" fill-opacity="1" /><path clip-path="url(#clip010)" d="M179.448 1100.24 L190.906 1100.24 L190.906 1060.69 L178.441 1063.19 L178.441 1056.81 L190.837 1054.31 L197.851 1054.31 L197.851 1100.24 L209.309 1100.24 L209.309 1106.15 L179.448 1106.15 L179.448 1100.24 Z" fill="#000000" fill-rule="evenodd" fill-opacity="1" /><path clip-path="url(#clip010)" d="M191.392 741.202 Q185.976 741.202 183.233 746.549 Q180.524 751.862 180.524 762.556 Q180.524 773.216 183.233 778.563 Q185.976 783.876 191.392 783.876 Q196.844 783.876 199.552 778.563 Q202.295 773.216 202.295 762.556 Q202.295 751.862 199.552 746.549 Q196.844 741.202 191.392 741.202 M191.392 735.647 Q200.107 735.647 204.691 742.556 Q209.309 749.431 209.309 762.556 Q209.309 775.646 204.691 782.556 Q200.107 789.431 191.392 789.431 Q182.677 789.431 178.059 782.556 Q173.476 775.646 173.476 762.556 Q173.476 749.431 178.059 742.556 Q182.677 735.647 191.392 735.647 Z" fill="#000000" fill-rule="evenodd" fill-opacity="1" /><path clip-path="url(#clip010)" d="M179.448 464.8 L190.906 464.8 L190.906 425.252 L178.441 427.752 L178.441 421.363 L190.837 418.863 L197.851 418.863 L197.851 464.8 L209.309 464.8 L209.309 470.703 L179.448 470.703 L179.448 464.8 Z" fill="#000000" fill-rule="evenodd" fill-opacity="1" /><path clip-path="url(#clip010)" d="M184.83 147.079 L209.309 147.079 L209.309 152.982 L176.392 152.982 L176.392 147.079 Q180.385 142.947 187.26 136.003 Q194.17 129.024 195.941 127.01 Q199.309 123.225 200.628 120.621 Q201.982 117.982 201.982 115.448 Q201.982 111.316 199.066 108.712 Q196.184 106.107 191.531 106.107 Q188.233 106.107 184.552 107.253 Q180.906 108.399 176.74 110.725 L176.74 103.642 Q180.976 101.941 184.656 101.073 Q188.337 100.205 191.392 100.205 Q199.448 100.205 204.239 104.232 Q209.031 108.26 209.031 114.996 Q209.031 118.191 207.816 121.073 Q206.635 123.92 203.476 127.809 Q202.607 128.816 197.955 133.642 Q193.302 138.434 184.83 147.079 Z" fill="#000000" fill-rule="evenodd" fill-opacity="1" /><path clip-path="url(#clip010)" d="M35.6047 1073.64 Q31.2992 1071.24 29.2506 1067.91 Q27.202 1064.57 27.202 1060.06 Q27.202 1053.98 31.4728 1050.68 Q35.7089 1047.39 43.5561 1047.39 L67.0282 1047.39 L67.0282 1053.81 L43.7644 1053.81 Q38.1741 1053.81 35.4658 1055.79 Q32.7575 1057.77 32.7575 1061.83 Q32.7575 1066.8 36.0561 1069.68 Q39.3547 1072.56 45.0491 1072.56 L67.0282 1072.56 L67.0282 1078.98 L43.7644 1078.98 Q38.1394 1078.98 35.4658 1080.96 Q32.7575 1082.94 32.7575 1087.07 Q32.7575 1091.97 36.0908 1094.85 Q39.3894 1097.73 45.0491 1097.73 L67.0282 1097.73 L67.0282 1104.16 L28.1395 1104.16 L28.1395 1097.73 L34.1811 1097.73 Q30.6047 1095.55 28.9034 1092.49 Q27.202 1089.43 27.202 1085.23 Q27.202 1081 29.3547 1078.05 Q31.5075 1075.06 35.6047 1073.64 Z" fill="#000000" fill-rule="evenodd" fill-opacity="1" /><path clip-path="url(#clip010)" d="M47.4797 1016.97 Q47.4797 1024.71 49.2505 1027.7 Q51.0213 1030.68 55.2921 1030.68 Q58.6949 1030.68 60.7087 1028.46 Q62.6879 1026.21 62.6879 1022.35 Q62.6879 1017.04 58.9379 1013.84 Q55.1532 1010.61 48.9033 1010.61 L47.4797 1010.61 L47.4797 1016.97 M44.8408 1004.23 L67.0282 1004.23 L67.0282 1010.61 L61.1254 1010.61 Q64.6671 1012.8 66.3684 1016.07 Q68.0351 1019.33 68.0351 1024.05 Q68.0351 1030.02 64.7018 1033.57 Q61.3337 1037.07 55.7088 1037.07 Q49.1463 1037.07 45.813 1032.7 Q42.4797 1028.29 42.4797 1019.57 L42.4797 1010.61 L41.8547 1010.61 Q37.445 1010.61 35.0492 1013.53 Q32.6186 1016.41 32.6186 1021.66 Q32.6186 1024.99 33.4172 1028.15 Q34.2158 1031.31 35.813 1034.23 L29.9103 1034.23 Q28.5561 1030.72 27.8964 1027.42 Q27.202 1024.12 27.202 1021 Q27.202 1012.56 31.577 1008.39 Q35.9519 1004.23 44.8408 1004.23 Z" fill="#000000" fill-rule="evenodd" fill-opacity="1" /><path clip-path="url(#clip010)" d="M29.2853 966.275 L35.3269 966.275 Q33.9381 968.983 33.2436 971.9 Q32.5492 974.817 32.5492 977.941 Q32.5492 982.698 34.0075 985.094 Q35.4658 987.455 38.3825 987.455 Q40.6047 987.455 41.8894 985.754 Q43.1394 984.053 44.2852 978.914 L44.7713 976.726 Q46.2297 969.921 48.9033 967.073 Q51.5421 964.192 56.299 964.192 Q61.7157 964.192 64.8754 968.497 Q68.0351 972.768 68.0351 980.268 Q68.0351 983.393 67.4101 986.796 Q66.8198 990.164 65.6046 993.914 L59.0074 993.914 Q60.8476 990.372 61.7851 986.935 Q62.6879 983.497 62.6879 980.129 Q62.6879 975.615 61.1601 973.185 Q59.5976 970.754 56.7852 970.754 Q54.181 970.754 52.7921 972.525 Q51.4032 974.261 50.1185 980.198 L49.5977 982.421 Q48.3477 988.358 45.7783 990.997 Q43.1741 993.636 38.6603 993.636 Q33.1742 993.636 30.1881 989.747 Q27.202 985.858 27.202 978.705 Q27.202 975.164 27.7228 972.039 Q28.2436 968.914 29.2853 966.275 Z" fill="#000000" fill-rule="evenodd" fill-opacity="1" /><path clip-path="url(#clip010)" d="M29.2853 929.226 L35.3269 929.226 Q33.9381 931.935 33.2436 934.851 Q32.5492 937.768 32.5492 940.893 Q32.5492 945.65 34.0075 948.046 Q35.4658 950.407 38.3825 950.407 Q40.6047 950.407 41.8894 948.706 Q43.1394 947.004 44.2852 941.865 L44.7713 939.678 Q46.2297 932.872 48.9033 930.025 Q51.5421 927.143 56.299 927.143 Q61.7157 927.143 64.8754 931.449 Q68.0351 935.72 68.0351 943.219 Q68.0351 946.344 67.4101 949.747 Q66.8198 953.115 65.6046 956.865 L59.0074 956.865 Q60.8476 953.324 61.7851 949.886 Q62.6879 946.449 62.6879 943.081 Q62.6879 938.567 61.1601 936.136 Q59.5976 933.706 56.7852 933.706 Q54.181 933.706 52.7921 935.476 Q51.4032 937.213 50.1185 943.15 L49.5977 945.372 Q48.3477 951.31 45.7783 953.949 Q43.1741 956.587 38.6603 956.587 Q33.1742 956.587 30.1881 952.699 Q27.202 948.81 27.202 941.657 Q27.202 938.115 27.7228 934.99 Q28.2436 931.865 29.2853 929.226 Z" fill="#000000" fill-rule="evenodd" fill-opacity="1" /><path clip-path="url(#clip010)" d="M28.1395 898.949 L28.1395 892.178 L60.7782 880.025 L28.1395 867.873 L28.1395 861.102 L67.0282 875.685 L67.0282 884.366 L28.1395 898.949 Z" fill="#000000" fill-rule="evenodd" fill-opacity="1" /><path clip-path="url(#clip010)" d="M45.9866 819.019 L49.1116 819.019 L49.1116 848.394 Q55.7088 847.977 59.181 844.435 Q62.6185 840.859 62.6185 834.505 Q62.6185 830.824 61.7157 827.387 Q60.8129 823.915 59.0074 820.512 L65.049 820.512 Q66.5073 823.949 67.2712 827.56 Q68.0351 831.171 68.0351 834.887 Q68.0351 844.192 62.6185 849.644 Q57.2018 855.06 47.9658 855.06 Q38.4172 855.06 32.827 849.921 Q27.202 844.748 27.202 835.998 Q27.202 828.151 32.2714 823.602 Q37.3061 819.019 45.9866 819.019 M44.1116 825.408 Q38.8686 825.477 35.7436 828.359 Q32.6186 831.206 32.6186 835.928 Q32.6186 841.276 35.6394 844.505 Q38.6603 847.699 44.1463 848.185 L44.1116 825.408 Z" fill="#000000" fill-rule="evenodd" fill-opacity="1" /><path clip-path="url(#clip010)" d="M13.0007 808.533 L13.0007 802.144 L67.0282 802.144 L67.0282 808.533 L13.0007 808.533 Z" fill="#000000" fill-rule="evenodd" fill-opacity="1" /><path clip-path="url(#clip010)" d="M32.6186 773.706 Q32.6186 778.845 36.6464 781.831 Q40.6394 784.818 47.6185 784.818 Q54.5977 784.818 58.6254 781.866 Q62.6185 778.88 62.6185 773.706 Q62.6185 768.602 58.5907 765.616 Q54.5629 762.63 47.6185 762.63 Q40.7089 762.63 36.6811 765.616 Q32.6186 768.602 32.6186 773.706 M27.202 773.706 Q27.202 765.373 32.6186 760.616 Q38.0353 755.859 47.6185 755.859 Q57.1671 755.859 62.6185 760.616 Q68.0351 765.373 68.0351 773.706 Q68.0351 782.074 62.6185 786.831 Q57.1671 791.554 47.6185 791.554 Q38.0353 791.554 32.6186 786.831 Q27.202 782.074 27.202 773.706 Z" fill="#000000" fill-rule="evenodd" fill-opacity="1" /><path clip-path="url(#clip010)" d="M29.6325 717.283 L35.6047 717.283 Q34.1117 719.991 33.3825 722.735 Q32.6186 725.443 32.6186 728.221 Q32.6186 734.436 36.5769 737.873 Q40.5005 741.311 47.6185 741.311 Q54.7366 741.311 58.6949 737.873 Q62.6185 734.436 62.6185 728.221 Q62.6185 725.443 61.8893 722.735 Q61.1254 719.991 59.6324 717.283 L65.5351 717.283 Q66.7851 719.957 67.4101 722.839 Q68.0351 725.686 68.0351 728.915 Q68.0351 737.7 62.5143 742.873 Q56.9935 748.047 47.6185 748.047 Q38.1047 748.047 32.6533 742.839 Q27.202 737.596 27.202 728.498 Q27.202 725.547 27.827 722.735 Q28.4173 719.922 29.6325 717.283 Z" fill="#000000" fill-rule="evenodd" fill-opacity="1" /><path clip-path="url(#clip010)" d="M28.1395 706.172 L28.1395 699.783 L67.0282 699.783 L67.0282 706.172 L28.1395 706.172 M13.0007 706.172 L13.0007 699.783 L21.0909 699.783 L21.0909 706.172 L13.0007 706.172 Z" fill="#000000" fill-rule="evenodd" fill-opacity="1" /><path clip-path="url(#clip010)" d="M17.0979 680.096 L28.1395 680.096 L28.1395 666.936 L33.1047 666.936 L33.1047 680.096 L54.2157 680.096 Q58.9726 680.096 60.3268 678.811 Q61.681 677.492 61.681 673.499 L61.681 666.936 L67.0282 666.936 L67.0282 673.499 Q67.0282 680.894 64.2851 683.707 Q61.5074 686.519 54.2157 686.519 L33.1047 686.519 L33.1047 691.207 L28.1395 691.207 L28.1395 686.519 L17.0979 686.519 L17.0979 680.096 Z" fill="#000000" fill-rule="evenodd" fill-opacity="1" /><path clip-path="url(#clip010)" d="M70.6392 642.353 Q77.5837 645.061 79.7017 647.631 Q81.8197 650.2 81.8197 654.506 L81.8197 659.61 L76.4726 659.61 L76.4726 655.86 Q76.4726 653.221 75.2226 651.763 Q73.9726 650.304 69.3198 648.534 L66.4032 647.388 L28.1395 663.117 L28.1395 656.346 L58.556 644.193 L28.1395 632.041 L28.1395 625.27 L70.6392 642.353 Z" fill="#000000" fill-rule="evenodd" fill-opacity="1" /><path clip-path="url(#clip010)" d="M13.0007 594.437 L13.0007 579.714 L17.9659 579.714 L17.9659 588.048 L71.4379 588.048 L71.4379 579.714 L76.4031 579.714 L76.4031 594.437 L13.0007 594.437 Z" fill="#000000" fill-rule="evenodd" fill-opacity="1" /><path clip-path="url(#clip010)" d="M35.6047 535.826 Q31.2992 533.43 29.2506 530.097 Q27.202 526.763 27.202 522.249 Q27.202 516.173 31.4728 512.875 Q35.7089 509.576 43.5561 509.576 L67.0282 509.576 L67.0282 516 L43.7644 516 Q38.1741 516 35.4658 517.979 Q32.7575 519.958 32.7575 524.02 Q32.7575 528.986 36.0561 531.867 Q39.3547 534.749 45.0491 534.749 L67.0282 534.749 L67.0282 541.173 L43.7644 541.173 Q38.1394 541.173 35.4658 543.152 Q32.7575 545.131 32.7575 549.263 Q32.7575 554.159 36.0908 557.041 Q39.3894 559.923 45.0491 559.923 L67.0282 559.923 L67.0282 566.346 L28.1395 566.346 L28.1395 559.923 L34.1811 559.923 Q30.6047 557.735 28.9034 554.68 Q27.202 551.624 27.202 547.423 Q27.202 543.187 29.3547 540.236 Q31.5075 537.249 35.6047 535.826 Z" fill="#000000" fill-rule="evenodd" fill-opacity="1" /><path clip-path="url(#clip010)" d="M15.1882 485.479 L15.1882 479.576 L73.6253 497.632 L73.6253 503.534 L15.1882 485.479 Z" fill="#000000" fill-rule="evenodd" fill-opacity="1" /><path clip-path="url(#clip010)" d="M29.2853 448.083 L35.3269 448.083 Q33.9381 450.792 33.2436 453.708 Q32.5492 456.625 32.5492 459.75 Q32.5492 464.507 34.0075 466.903 Q35.4658 469.264 38.3825 469.264 Q40.6047 469.264 41.8894 467.562 Q43.1394 465.861 44.2852 460.722 L44.7713 458.535 Q46.2297 451.729 48.9033 448.882 Q51.5421 446 56.299 446 Q61.7157 446 64.8754 450.305 Q68.0351 454.576 68.0351 462.076 Q68.0351 465.201 67.4101 468.604 Q66.8198 471.972 65.6046 475.722 L59.0074 475.722 Q60.8476 472.18 61.7851 468.743 Q62.6879 465.305 62.6879 461.937 Q62.6879 457.423 61.1601 454.993 Q59.5976 452.562 56.7852 452.562 Q54.181 452.562 52.7921 454.333 Q51.4032 456.069 50.1185 462.007 L49.5977 464.229 Q48.3477 470.166 45.7783 472.805 Q43.1741 475.444 38.6603 475.444 Q33.1742 475.444 30.1881 471.555 Q27.202 467.666 27.202 460.514 Q27.202 456.972 27.7228 453.847 Q28.2436 450.722 29.2853 448.083 Z" fill="#000000" fill-rule="evenodd" fill-opacity="1" /><path clip-path="url(#clip010)" d="M13.0007 420.896 L76.4031 420.896 L76.4031 435.618 L71.4379 435.618 L71.4379 427.319 L17.9659 427.319 L17.9659 435.618 L13.0007 435.618 L13.0007 420.896 Z" fill="#000000" fill-rule="evenodd" fill-opacity="1" /><path clip-path="url(#clip010)" d="M599.38 18.8205 L599.38 65.8515 L609.265 65.8515 Q621.782 65.8515 627.575 60.1802 Q633.408 54.509 633.408 42.2752 Q633.408 30.1225 627.575 24.4918 Q621.782 18.8205 609.265 18.8205 L599.38 18.8205 M591.198 12.096 L608.009 12.096 Q625.59 12.096 633.813 19.4281 Q642.036 26.7198 642.036 42.2752 Q642.036 57.9117 633.773 65.2439 Q625.509 72.576 608.009 72.576 L591.198 72.576 L591.198 12.096 Z" fill="#000000" fill-rule="evenodd" fill-opacity="1" /><path clip-path="url(#clip010)" d="M693.564 48.0275 L693.564 51.6733 L659.293 51.6733 Q659.779 59.3701 663.911 63.421 Q668.084 67.4314 675.497 67.4314 Q679.791 67.4314 683.801 66.3781 Q687.852 65.3249 691.822 63.2184 L691.822 70.267 Q687.812 71.9684 683.599 72.8596 Q679.386 73.7508 675.051 73.7508 Q664.195 73.7508 657.835 67.4314 Q651.516 61.1119 651.516 50.3365 Q651.516 39.1965 657.511 32.6746 Q663.547 26.1121 673.755 26.1121 Q682.91 26.1121 688.217 32.0264 Q693.564 37.9003 693.564 48.0275 M686.11 45.84 Q686.029 39.7232 682.667 36.0774 Q679.345 32.4315 673.836 32.4315 Q667.598 32.4315 663.83 35.9558 Q660.104 39.4801 659.536 45.8805 L686.11 45.84 Z" fill="#000000" fill-rule="evenodd" fill-opacity="1" /><path clip-path="url(#clip010)" d="M728.766 9.54393 L728.766 15.7418 L721.637 15.7418 Q717.626 15.7418 716.046 17.3622 Q714.507 18.9825 714.507 23.1955 L714.507 27.2059 L726.781 27.2059 L726.781 32.9987 L714.507 32.9987 L714.507 72.576 L707.013 72.576 L707.013 32.9987 L699.883 32.9987 L699.883 27.2059 L707.013 27.2059 L707.013 24.0462 Q707.013 16.471 710.537 13.0277 Q714.062 9.54393 721.718 9.54393 L728.766 9.54393 Z" fill="#000000" fill-rule="evenodd" fill-opacity="1" /><path clip-path="url(#clip010)" d="M755.624 49.7694 Q746.59 49.7694 743.107 51.8354 Q739.623 53.9013 739.623 58.8839 Q739.623 62.8538 742.215 65.2034 Q744.848 67.5124 749.345 67.5124 Q755.543 67.5124 759.27 63.1374 Q763.037 58.7219 763.037 51.4303 L763.037 49.7694 L755.624 49.7694 M770.491 46.6907 L770.491 72.576 L763.037 72.576 L763.037 65.6895 Q760.485 69.8214 756.677 71.8063 Q752.869 73.7508 747.36 73.7508 Q740.392 73.7508 736.261 69.8619 Q732.169 65.9325 732.169 59.3701 Q732.169 51.7138 737.273 47.825 Q742.418 43.9361 752.586 43.9361 L763.037 43.9361 L763.037 43.2069 Q763.037 38.0623 759.634 35.2672 Q756.272 32.4315 750.155 32.4315 Q746.266 32.4315 742.58 33.3632 Q738.894 34.295 735.491 36.1584 L735.491 29.2718 Q739.582 27.692 743.431 26.9223 Q747.279 26.1121 750.925 26.1121 Q760.768 26.1121 765.63 31.2163 Q770.491 36.3204 770.491 46.6907 Z" fill="#000000" fill-rule="evenodd" fill-opacity="1" /><path clip-path="url(#clip010)" d="M785.074 54.671 L785.074 27.2059 L792.528 27.2059 L792.528 54.3874 Q792.528 60.8284 795.039 64.0691 Q797.551 67.2693 802.574 67.2693 Q808.61 67.2693 812.093 63.421 Q815.618 59.5726 815.618 52.9291 L815.618 27.2059 L823.071 27.2059 L823.071 72.576 L815.618 72.576 L815.618 65.6084 Q812.904 69.7404 809.298 71.7658 Q805.734 73.7508 800.994 73.7508 Q793.176 73.7508 789.125 68.8897 Q785.074 64.0286 785.074 54.671 M803.83 26.1121 L803.83 26.1121 Z" fill="#000000" fill-rule="evenodd" fill-opacity="1" /><path clip-path="url(#clip010)" d="M838.424 9.54393 L845.878 9.54393 L845.878 72.576 L838.424 72.576 L838.424 9.54393 Z" fill="#000000" fill-rule="evenodd" fill-opacity="1" /><path clip-path="url(#clip010)" d="M868.847 14.324 L868.847 27.2059 L884.2 27.2059 L884.2 32.9987 L868.847 32.9987 L868.847 57.6282 Q868.847 63.1779 870.345 64.7578 Q871.885 66.3376 876.543 66.3376 L884.2 66.3376 L884.2 72.576 L876.543 72.576 Q867.915 72.576 864.634 69.3758 Q861.352 66.1351 861.352 57.6282 L861.352 32.9987 L855.884 32.9987 L855.884 27.2059 L861.352 27.2059 L861.352 14.324 L868.847 14.324 Z" fill="#000000" fill-rule="evenodd" fill-opacity="1" /><path clip-path="url(#clip010)" d="M895.907 62.2867 L904.454 62.2867 L904.454 72.576 L895.907 72.576 L895.907 62.2867 M895.907 29.6769 L904.454 29.6769 L904.454 39.9662 L895.907 39.9662 L895.907 29.6769 Z" fill="#000000" fill-rule="evenodd" fill-opacity="1" /><path clip-path="url(#clip010)" d="M948.649 12.096 L960.843 12.096 L976.277 53.2532 L991.792 12.096 L1003.98 12.096 L1003.98 72.576 L996.004 72.576 L996.004 19.4686 L980.409 60.9499 L972.185 60.9499 L956.589 19.4686 L956.589 72.576 L948.649 72.576 L948.649 12.096 Z" fill="#000000" fill-rule="evenodd" fill-opacity="1" /><path clip-path="url(#clip010)" d="M1040.52 49.7694 Q1031.49 49.7694 1028.01 51.8354 Q1024.52 53.9013 1024.52 58.8839 Q1024.52 62.8538 1027.12 65.2034 Q1029.75 67.5124 1034.25 67.5124 Q1040.44 67.5124 1044.17 63.1374 Q1047.94 58.7219 1047.94 51.4303 L1047.94 49.7694 L1040.52 49.7694 M1055.39 46.6907 L1055.39 72.576 L1047.94 72.576 L1047.94 65.6895 Q1045.39 69.8214 1041.58 71.8063 Q1037.77 73.7508 1032.26 73.7508 Q1025.29 73.7508 1021.16 69.8619 Q1017.07 65.9325 1017.07 59.3701 Q1017.07 51.7138 1022.17 47.825 Q1027.32 43.9361 1037.49 43.9361 L1047.94 43.9361 L1047.94 43.2069 Q1047.94 38.0623 1044.53 35.2672 Q1041.17 32.4315 1035.06 32.4315 Q1031.17 32.4315 1027.48 33.3632 Q1023.79 34.295 1020.39 36.1584 L1020.39 29.2718 Q1024.48 27.692 1028.33 26.9223 Q1032.18 26.1121 1035.82 26.1121 Q1045.67 26.1121 1050.53 31.2163 Q1055.39 36.3204 1055.39 46.6907 Z" fill="#000000" fill-rule="evenodd" fill-opacity="1" /><path clip-path="url(#clip010)" d="M1099.67 28.5427 L1099.67 35.5912 Q1096.51 33.9709 1093.1 33.1607 Q1089.7 32.3505 1086.06 32.3505 Q1080.51 32.3505 1077.71 34.0519 Q1074.96 35.7533 1074.96 39.156 Q1074.96 41.7486 1076.94 43.2475 Q1078.93 44.7058 1084.92 46.0426 L1087.47 46.6097 Q1095.41 48.3111 1098.74 51.4303 Q1102.1 54.509 1102.1 60.0587 Q1102.1 66.3781 1097.07 70.0644 Q1092.09 73.7508 1083.34 73.7508 Q1079.7 73.7508 1075.73 73.0216 Q1071.8 72.3329 1067.42 70.9151 L1067.42 63.2184 Q1071.55 65.3654 1075.56 66.4591 Q1079.57 67.5124 1083.5 67.5124 Q1088.77 67.5124 1091.61 65.73 Q1094.44 63.9071 1094.44 60.6258 Q1094.44 57.5877 1092.38 55.9673 Q1090.35 54.3469 1083.42 52.8481 L1080.83 52.2405 Q1073.9 50.7821 1070.82 47.7845 Q1067.75 44.7463 1067.75 39.4801 Q1067.75 33.0797 1072.28 29.5959 Q1076.82 26.1121 1085.16 26.1121 Q1089.3 26.1121 1092.94 26.7198 Q1096.59 27.3274 1099.67 28.5427 Z" fill="#000000" fill-rule="evenodd" fill-opacity="1" /><path clip-path="url(#clip010)" d="M1142.89 28.5427 L1142.89 35.5912 Q1139.73 33.9709 1136.33 33.1607 Q1132.93 32.3505 1129.28 32.3505 Q1123.73 32.3505 1120.93 34.0519 Q1118.18 35.7533 1118.18 39.156 Q1118.18 41.7486 1120.16 43.2475 Q1122.15 44.7058 1128.14 46.0426 L1130.7 46.6097 Q1138.64 48.3111 1141.96 51.4303 Q1145.32 54.509 1145.32 60.0587 Q1145.32 66.3781 1140.3 70.0644 Q1135.32 73.7508 1126.57 73.7508 Q1122.92 73.7508 1118.95 73.0216 Q1115.02 72.3329 1110.65 70.9151 L1110.65 63.2184 Q1114.78 65.3654 1118.79 66.4591 Q1122.8 67.5124 1126.73 67.5124 Q1131.99 67.5124 1134.83 65.73 Q1137.66 63.9071 1137.66 60.6258 Q1137.66 57.5877 1135.6 55.9673 Q1133.57 54.3469 1126.65 52.8481 L1124.05 52.2405 Q1117.13 50.7821 1114.05 47.7845 Q1110.97 44.7463 1110.97 39.4801 Q1110.97 33.0797 1115.51 29.5959 Q1120.04 26.1121 1128.39 26.1121 Q1132.52 26.1121 1136.17 26.7198 Q1139.81 27.3274 1142.89 28.5427 Z" fill="#000000" fill-rule="evenodd" fill-opacity="1" /><path clip-path="url(#clip010)" d="M1178.21 27.2059 L1186.11 27.2059 L1200.29 65.2844 L1214.47 27.2059 L1222.37 27.2059 L1205.36 72.576 L1195.23 72.576 L1178.21 27.2059 Z" fill="#000000" fill-rule="evenodd" fill-opacity="1" /><path clip-path="url(#clip010)" d="M1271.47 48.0275 L1271.47 51.6733 L1237.2 51.6733 Q1237.68 59.3701 1241.81 63.421 Q1245.99 67.4314 1253.4 67.4314 Q1257.69 67.4314 1261.7 66.3781 Q1265.75 65.3249 1269.72 63.2184 L1269.72 70.267 Q1265.71 71.9684 1261.5 72.8596 Q1257.29 73.7508 1252.95 73.7508 Q1242.1 73.7508 1235.74 67.4314 Q1229.42 61.1119 1229.42 50.3365 Q1229.42 39.1965 1235.41 32.6746 Q1241.45 26.1121 1251.66 26.1121 Q1260.81 26.1121 1266.12 32.0264 Q1271.47 37.9003 1271.47 48.0275 M1264.01 45.84 Q1263.93 39.7232 1260.57 36.0774 Q1257.25 32.4315 1251.74 32.4315 Q1245.5 32.4315 1241.73 35.9558 Q1238.01 39.4801 1237.44 45.8805 L1264.01 45.84 Z" fill="#000000" fill-rule="evenodd" fill-opacity="1" /><path clip-path="url(#clip010)" d="M1283.7 9.54393 L1291.15 9.54393 L1291.15 72.576 L1283.7 72.576 L1283.7 9.54393 Z" fill="#000000" fill-rule="evenodd" fill-opacity="1" /><path clip-path="url(#clip010)" d="M1324.33 32.4315 Q1318.33 32.4315 1314.85 37.1306 Q1311.37 41.7891 1311.37 49.9314 Q1311.37 58.0738 1314.81 62.7728 Q1318.29 67.4314 1324.33 67.4314 Q1330.29 67.4314 1333.77 62.7323 Q1337.25 58.0333 1337.25 49.9314 Q1337.25 41.8701 1333.77 37.1711 Q1330.29 32.4315 1324.33 32.4315 M1324.33 26.1121 Q1334.05 26.1121 1339.6 32.4315 Q1345.15 38.7509 1345.15 49.9314 Q1345.15 61.0714 1339.6 67.4314 Q1334.05 73.7508 1324.33 73.7508 Q1314.57 73.7508 1309.02 67.4314 Q1303.51 61.0714 1303.51 49.9314 Q1303.51 38.7509 1309.02 32.4315 Q1314.57 26.1121 1324.33 26.1121 Z" fill="#000000" fill-rule="evenodd" fill-opacity="1" /><path clip-path="url(#clip010)" d="M1390.16 28.9478 L1390.16 35.9153 Q1387 34.1734 1383.8 33.3227 Q1380.64 32.4315 1377.4 32.4315 Q1370.15 32.4315 1366.14 37.0496 Q1362.13 41.6271 1362.13 49.9314 Q1362.13 58.2358 1366.14 62.8538 Q1370.15 67.4314 1377.4 67.4314 Q1380.64 67.4314 1383.8 66.5807 Q1387 65.6895 1390.16 63.9476 L1390.16 70.8341 Q1387.04 72.2924 1383.68 73.0216 Q1380.35 73.7508 1376.59 73.7508 Q1366.34 73.7508 1360.3 67.3098 Q1354.27 60.8689 1354.27 49.9314 Q1354.27 38.832 1360.34 32.472 Q1366.46 26.1121 1377.07 26.1121 Q1380.52 26.1121 1383.8 26.8413 Q1387.08 27.5299 1390.16 28.9478 Z" fill="#000000" fill-rule="evenodd" fill-opacity="1" /><path clip-path="url(#clip010)" d="M1403.12 27.2059 L1410.57 27.2059 L1410.57 72.576 L1403.12 72.576 L1403.12 27.2059 M1403.12 9.54393 L1410.57 9.54393 L1410.57 18.9825 L1403.12 18.9825 L1403.12 9.54393 Z" fill="#000000" fill-rule="evenodd" fill-opacity="1" /><path clip-path="url(#clip010)" d="M1433.54 14.324 L1433.54 27.2059 L1448.9 27.2059 L1448.9 32.9987 L1433.54 32.9987 L1433.54 57.6282 Q1433.54 63.1779 1435.04 64.7578 Q1436.58 66.3376 1441.24 66.3376 L1448.9 66.3376 L1448.9 72.576 L1441.24 72.576 Q1432.61 72.576 1429.33 69.3758 Q1426.05 66.1351 1426.05 57.6282 L1426.05 32.9987 L1420.58 32.9987 L1420.58 27.2059 L1426.05 27.2059 L1426.05 14.324 L1433.54 14.324 Z" fill="#000000" fill-rule="evenodd" fill-opacity="1" /><path clip-path="url(#clip010)" d="M1477.58 76.7889 Q1474.42 84.8907 1471.42 87.3618 Q1468.42 89.8329 1463.4 89.8329 L1457.44 89.8329 L1457.44 83.5945 L1461.82 83.5945 Q1464.9 83.5945 1466.6 82.1361 Q1468.3 80.6778 1470.37 75.2496 L1471.7 71.8468 L1453.35 27.2059 L1461.25 27.2059 L1475.43 62.6918 L1489.61 27.2059 L1497.51 27.2059 L1477.58 76.7889 Z" fill="#000000" fill-rule="evenodd" fill-opacity="1" /><path clip-path="url(#clip010)" d="M1554.79 49.7694 Q1545.75 49.7694 1542.27 51.8354 Q1538.79 53.9013 1538.79 58.8839 Q1538.79 62.8538 1541.38 65.2034 Q1544.01 67.5124 1548.51 67.5124 Q1554.71 67.5124 1558.43 63.1374 Q1562.2 58.7219 1562.2 51.4303 L1562.2 49.7694 L1554.79 49.7694 M1569.65 46.6907 L1569.65 72.576 L1562.2 72.576 L1562.2 65.6895 Q1559.65 69.8214 1555.84 71.8063 Q1552.03 73.7508 1546.52 73.7508 Q1539.55 73.7508 1535.42 69.8619 Q1531.33 65.9325 1531.33 59.3701 Q1531.33 51.7138 1536.44 47.825 Q1541.58 43.9361 1551.75 43.9361 L1562.2 43.9361 L1562.2 43.2069 Q1562.2 38.0623 1558.8 35.2672 Q1555.43 32.4315 1549.32 32.4315 Q1545.43 32.4315 1541.74 33.3632 Q1538.06 34.295 1534.65 36.1584 L1534.65 29.2718 Q1538.74 27.692 1542.59 26.9223 Q1546.44 26.1121 1550.09 26.1121 Q1559.93 26.1121 1564.79 31.2163 Q1569.65 36.3204 1569.65 46.6907 Z" fill="#000000" fill-rule="evenodd" fill-opacity="1" /><path clip-path="url(#clip010)" d="M1607.97 9.54393 L1607.97 15.7418 L1600.84 15.7418 Q1596.83 15.7418 1595.25 17.3622 Q1593.72 18.9825 1593.72 23.1955 L1593.72 27.2059 L1605.99 27.2059 L1605.99 32.9987 L1593.72 32.9987 L1593.72 72.576 L1586.22 72.576 L1586.22 32.9987 L1579.09 32.9987 L1579.09 27.2059 L1586.22 27.2059 L1586.22 24.0462 Q1586.22 16.471 1589.75 13.0277 Q1593.27 9.54393 1600.93 9.54393 L1607.97 9.54393 Z" fill="#000000" fill-rule="evenodd" fill-opacity="1" /><path clip-path="url(#clip010)" d="M1620.13 14.324 L1620.13 27.2059 L1635.48 27.2059 L1635.48 32.9987 L1620.13 32.9987 L1620.13 57.6282 Q1620.13 63.1779 1621.63 64.7578 Q1623.17 66.3376 1627.82 66.3376 L1635.48 66.3376 L1635.48 72.576 L1627.82 72.576 Q1619.2 72.576 1615.91 69.3758 Q1612.63 66.1351 1612.63 57.6282 L1612.63 32.9987 L1607.16 32.9987 L1607.16 27.2059 L1612.63 27.2059 L1612.63 14.324 L1620.13 14.324 Z" fill="#000000" fill-rule="evenodd" fill-opacity="1" /><path clip-path="url(#clip010)" d="M1684.09 48.0275 L1684.09 51.6733 L1649.82 51.6733 Q1650.31 59.3701 1654.44 63.421 Q1658.61 67.4314 1666.02 67.4314 Q1670.32 67.4314 1674.33 66.3781 Q1678.38 65.3249 1682.35 63.2184 L1682.35 70.267 Q1678.34 71.9684 1674.13 72.8596 Q1669.91 73.7508 1665.58 73.7508 Q1654.72 73.7508 1648.36 67.4314 Q1642.04 61.1119 1642.04 50.3365 Q1642.04 39.1965 1648.04 32.6746 Q1654.07 26.1121 1664.28 26.1121 Q1673.44 26.1121 1678.74 32.0264 Q1684.09 37.9003 1684.09 48.0275 M1676.64 45.84 Q1676.56 39.7232 1673.19 36.0774 Q1669.87 32.4315 1664.36 32.4315 Q1658.12 32.4315 1654.36 35.9558 Q1650.63 39.4801 1650.06 45.8805 L1676.64 45.84 Z" fill="#000000" fill-rule="evenodd" fill-opacity="1" /><path clip-path="url(#clip010)" d="M1722.62 34.1734 Q1721.36 33.4443 1719.86 33.1202 Q1718.4 32.7556 1716.62 32.7556 Q1710.3 32.7556 1706.9 36.8875 Q1703.54 40.9789 1703.54 48.6757 L1703.54 72.576 L1696.04 72.576 L1696.04 27.2059 L1703.54 27.2059 L1703.54 34.2544 Q1705.88 30.1225 1709.65 28.1376 Q1713.42 26.1121 1718.81 26.1121 Q1719.58 26.1121 1720.51 26.2337 Q1721.44 26.3147 1722.57 26.5172 L1722.62 34.1734 Z" fill="#000000" fill-rule="evenodd" fill-opacity="1" /><path clip-path="url(#clip010)" d="M1785.81 44.2197 Q1788.44 45.1109 1790.91 48.0275 Q1793.42 50.9442 1795.94 56.0483 L1804.24 72.576 L1795.45 72.576 L1787.71 57.061 Q1784.72 50.9847 1781.88 48.9997 Q1779.08 47.0148 1774.22 47.0148 L1765.31 47.0148 L1765.31 72.576 L1757.13 72.576 L1757.13 12.096 L1775.6 12.096 Q1785.97 12.096 1791.08 16.4305 Q1796.18 20.7649 1796.18 29.5149 Q1796.18 35.2267 1793.51 38.994 Q1790.87 42.7613 1785.81 44.2197 M1765.31 18.8205 L1765.31 40.2903 L1775.6 40.2903 Q1781.52 40.2903 1784.51 37.5762 Q1787.55 34.8216 1787.55 29.5149 Q1787.55 24.2082 1784.51 21.5346 Q1781.52 18.8205 1775.6 18.8205 L1765.31 18.8205 Z" fill="#000000" fill-rule="evenodd" fill-opacity="1" /><path clip-path="url(#clip010)" d="M1809.95 54.671 L1809.95 27.2059 L1817.41 27.2059 L1817.41 54.3874 Q1817.41 60.8284 1819.92 64.0691 Q1822.43 67.2693 1827.45 67.2693 Q1833.49 67.2693 1836.97 63.421 Q1840.5 59.5726 1840.5 52.9291 L1840.5 27.2059 L1847.95 27.2059 L1847.95 72.576 L1840.5 72.576 L1840.5 65.6084 Q1837.78 69.7404 1834.18 71.7658 Q1830.61 73.7508 1825.87 73.7508 Q1818.05 73.7508 1814 68.8897 Q1809.95 64.0286 1809.95 54.671 M1828.71 26.1121 L1828.71 26.1121 Z" fill="#000000" fill-rule="evenodd" fill-opacity="1" /><path clip-path="url(#clip010)" d="M1901.02 45.1919 L1901.02 72.576 L1893.56 72.576 L1893.56 45.4349 Q1893.56 38.994 1891.05 35.7938 Q1888.54 32.5936 1883.52 32.5936 Q1877.48 32.5936 1874 36.4419 Q1870.51 40.2903 1870.51 46.9338 L1870.51 72.576 L1863.02 72.576 L1863.02 27.2059 L1870.51 27.2059 L1870.51 34.2544 Q1873.19 30.163 1876.79 28.1376 Q1880.44 26.1121 1885.18 26.1121 Q1893 26.1121 1897.01 30.9732 Q1901.02 35.7938 1901.02 45.1919 Z" fill="#000000" fill-rule="evenodd" fill-opacity="1" /><path clip-path="url(#clip010)" d="M1917.79 62.2867 L1926.34 62.2867 L1926.34 72.576 L1917.79 72.576 L1917.79 62.2867 M1917.79 29.6769 L1926.34 29.6769 L1926.34 39.9662 L1917.79 39.9662 L1917.79 29.6769 Z" fill="#000000" fill-rule="evenodd" fill-opacity="1" /><path clip-path="url(#clip010)" d="M1978.31 65.6895 L2006.87 65.6895 L2006.87 72.576 L1968.46 72.576 L1968.46 65.6895 Q1973.12 60.8689 1981.14 52.7671 Q1989.21 44.6248 1991.27 42.2752 Q1995.2 37.8598 1996.74 34.8216 Q1998.32 31.7429 1998.32 28.7857 Q1998.32 23.9651 1994.92 20.927 Q1991.55 17.8888 1986.13 17.8888 Q1982.28 17.8888 1977.98 19.2256 Q1973.73 20.5624 1968.87 23.2765 L1968.87 15.0127 Q1973.81 13.0277 1978.11 12.015 Q1982.4 11.0023 1985.96 11.0023 Q1995.36 11.0023 2000.95 15.7013 Q2006.54 20.4004 2006.54 28.2591 Q2006.54 31.9859 2005.13 35.3482 Q2003.75 38.6699 2000.06 43.2069 Q1999.05 44.3817 1993.62 50.0125 Q1988.19 55.6027 1978.31 65.6895 Z" fill="#000000" fill-rule="evenodd" fill-opacity="1" /><polyline clip-path="url(#clip012)" style="stroke:#009af9; stroke-linecap:butt; stroke-linejoin:round; stroke-width:8; stroke-opacity:1; fill:none" points="
  304.954,762.504 309.924,743.445 314.894,724.405 319.865,705.402 324.835,686.457 329.806,667.587 334.776,648.812 339.746,630.15 344.717,611.621 349.687,593.242 
  354.658,575.033 359.628,557.011 364.598,539.194 369.569,521.601 374.539,504.248 379.509,487.152 384.48,470.332 389.45,453.805 394.421,437.584 399.391,421.688 
  404.361,406.134 409.332,390.936 414.302,376.109 419.273,361.668 424.243,347.628 429.213,334.004 434.184,320.808 439.154,308.054 444.125,295.754 449.095,283.922 
  454.065,272.568 459.036,261.704 464.006,251.34 468.977,241.489 473.947,232.157 478.917,223.357 483.888,215.095 488.858,207.381 493.829,200.222 498.799,193.625 
  503.769,187.598 508.74,182.145 513.71,177.272 518.681,172.985 523.651,169.287 528.621,166.182 533.592,163.674 538.562,161.764 543.532,160.456 548.503,159.749 
  553.473,159.645 558.444,160.144 563.414,161.245 568.384,162.948 573.355,165.25 578.325,168.149 583.296,171.643 588.266,175.728 593.236,180.399 598.207,185.653 
  603.177,191.483 608.148,197.885 613.118,204.851 618.088,212.375 623.059,220.448 628.029,229.064 633,238.214 637.97,247.887 642.94,258.076 647.911,268.768 
  652.881,279.955 657.852,291.624 662.822,303.764 667.792,316.363 672.763,329.408 677.733,342.886 682.704,356.783 687.674,371.087 692.644,385.781 697.615,400.853 
  702.585,416.286 707.555,432.065 712.526,448.176 717.496,464.6 722.467,481.321 727.437,498.325 732.407,515.593 737.378,533.107 742.348,550.851 747.319,568.806 
  752.289,586.956 757.259,605.281 762.23,623.762 767.2,642.383 772.171,661.124 777.141,679.967 782.111,698.891 787.082,717.88 792.052,736.913 797.023,755.972 
  801.993,775.037 806.963,794.09 811.934,813.111 816.904,832.082 821.875,850.982 826.845,869.795 831.815,888.501 836.786,907.08 841.756,925.514 846.727,943.786 
  851.697,961.877 856.667,979.768 861.638,997.441 866.608,1014.88 871.578,1032.07 876.549,1048.99 881.519,1065.62 886.49,1081.95 891.46,1097.96 896.43,1113.63 
  901.401,1128.96 906.371,1143.91 911.342,1158.49 916.312,1172.66 921.282,1186.43 926.253,1199.77 931.223,1212.68 936.194,1225.13 941.164,1237.12 946.134,1248.64 
  951.105,1259.67 956.075,1270.21 961.046,1280.23 966.016,1289.74 970.986,1298.72 975.957,1307.17 980.927,1315.07 985.898,1322.42 990.868,1329.21 995.838,1335.43 
  1000.81,1341.08 1005.78,1346.15 1010.75,1350.64 1015.72,1354.54 1020.69,1357.85 1025.66,1360.56 1030.63,1362.67 1035.6,1364.19 1040.57,1365.1 1045.54,1365.41 
  1050.51,1365.11 1055.48,1364.22 1060.45,1362.72 1065.42,1360.62 1070.39,1357.92 1075.36,1354.63 1080.34,1350.74 1085.31,1346.27 1090.28,1341.21 1095.25,1335.57 
  1100.22,1329.36 1105.19,1322.59 1110.16,1315.25 1115.13,1307.36 1120.1,1298.92 1125.07,1289.96 1130.04,1280.46 1135.01,1270.44 1139.98,1259.91 1144.95,1248.89 
  1149.92,1237.38 1154.89,1225.4 1159.86,1212.95 1164.83,1200.06 1169.8,1186.72 1174.77,1172.97 1179.74,1158.8 1184.71,1144.23 1189.68,1129.29 1194.65,1113.97 
  1199.62,1098.31 1204.59,1082.31 1209.57,1065.99 1214.54,1049.37 1219.51,1032.46 1224.48,1015.28 1229.45,997.849 1234.42,980.183 1239.39,962.3 1244.36,944.215 
  1249.33,925.949 1254.3,907.52 1259.27,888.946 1264.24,870.246 1269.21,851.438 1274.18,832.542 1279.15,813.576 1284.12,794.559 1289.09,775.509 1294.06,756.446 
  1299.03,737.39 1304,718.359 1308.97,699.372 1313.94,680.45 1318.91,661.609 1323.88,642.869 1328.85,624.248 1333.83,605.766 1338.8,587.441 1343.77,569.291 
  1348.74,551.335 1353.71,533.59 1358.68,516.074 1363.65,498.804 1368.62,481.799 1373.59,465.074 1378.56,448.647 1383.53,432.534 1388.5,416.75 1393.47,401.313 
  1398.44,386.237 1403.41,371.538 1408.38,357.23 1413.35,343.328 1418.32,329.844 1423.29,316.793 1428.26,304.188 1433.23,292.041 1438.2,280.366 1443.17,269.172 
  1448.14,258.473 1453.11,248.277 1458.08,238.595 1463.06,229.437 1468.03,220.812 1473,212.729 1477.97,205.197 1482.94,198.222 1487.91,191.811 1492.88,185.971 
  1497.85,180.707 1502.82,176.025 1507.79,171.928 1512.76,168.424 1517.73,165.514 1522.7,163.201 1527.67,161.487 1532.64,160.374 1537.61,159.863 1542.58,159.954 
  1547.55,160.647 1552.52,161.944 1557.49,163.841 1562.46,166.338 1567.43,169.43 1572.4,173.115 1577.37,177.388 1582.34,182.246 1587.32,187.685 1592.29,193.7 
  1597.26,200.284 1602.23,207.43 1607.2,215.131 1612.17,223.379 1617.14,232.165 1622.11,241.48 1627.08,251.318 1632.05,261.668 1637.02,272.519 1641.99,283.86 
  1646.96,295.678 1651.93,307.964 1656.9,320.702 1661.87,333.882 1666.84,347.493 1671.81,361.519 1676.78,375.945 1681.75,390.758 1686.72,405.942 1691.69,421.482 
  1696.66,437.363 1701.63,453.568 1706.6,470.084 1711.58,486.892 1716.55,503.975 1721.52,521.317 1726.49,538.9 1731.46,556.705 1736.43,574.716 1741.4,592.915 
  1746.37,611.284 1751.34,629.804 1756.31,648.457 1761.28,667.224 1766.25,686.085 1771.22,705.023 1776.19,724.017 1781.16,743.05 1786.13,762.103 1791.1,781.157 
  1796.07,800.191 1801.04,819.187 1806.01,838.127 1810.98,856.99 1815.95,875.759 1820.92,894.415 1825.89,912.938 1830.86,931.312 1835.83,949.516 1840.81,967.533 
  1845.78,985.344 1850.75,1002.93 1855.72,1020.28 1860.69,1037.37 1865.66,1054.19 1870.63,1070.71 1875.6,1086.92 1880.57,1102.82 1885.54,1118.37 1890.51,1133.56 
  1895.48,1148.38 1900.45,1162.82 1905.42,1176.86 1910.39,1190.48 1915.36,1203.67 1920.33,1216.42 1925.3,1228.72 1930.27,1240.55 1935.24,1251.91 1940.21,1262.77 
  1945.18,1273.14 1950.15,1282.99 1955.12,1292.32 1960.09,1301.12 1965.07,1309.39 1970.04,1317.11 1975.01,1324.27 1979.98,1330.87 1984.95,1336.9 1989.92,1342.36 
  1994.89,1347.24 1999.86,1351.53 2004.83,1355.23 2009.8,1358.35 2014.77,1360.86 2019.74,1362.78 2024.71,1364.09 2029.68,1364.81 2034.65,1364.92 2039.62,1364.43 
  2044.59,1363.34 2049.56,1361.65 2054.53,1359.35 2059.5,1356.46 2064.47,1352.98 2069.44,1348.91 2074.41,1344.25 2079.38,1339.01 2084.35,1333.19 2089.33,1326.8 
  2094.3,1319.85 2099.27,1312.34 2104.24,1304.28 2109.21,1295.67 2114.18,1286.54 2119.15,1276.88 2124.12,1266.71 2129.09,1256.03 2134.06,1244.86 2139.03,1233.21 
  2144,1221.08 2148.97,1208.5 2153.94,1195.47 2158.91,1182.01 2163.88,1168.13 2168.85,1153.84 2173.82,1139.17 2178.79,1124.11 2183.76,1108.7 2188.73,1092.94 
  2193.7,1076.84 2198.67,1060.44 2203.64,1043.74 2208.61,1026.75 2213.58,1009.5 2218.56,992.004 2223.53,974.278 2228.5,956.341 2233.47,938.211 2238.44,919.906 
  2243.41,901.442 2248.38,882.839 2253.35,864.116 2258.32,845.292 2263.29,826.385 2268.26,807.415 2273.23,788.4 2278.2,769.36 2283.17,750.313 2288.14,731.278 
  2293.11,712.275 
  "/>
<polyline clip-path="url(#clip012)" style="stroke:#e26f46; stroke-linecap:butt; stroke-linejoin:round; stroke-width:8; stroke-opacity:1; fill:none" points="
  304.954,762.504 309.924,748.942 314.894,735.277 319.865,721.531 324.835,707.728 329.806,693.887 334.776,680.031 339.746,666.179 344.717,652.355 349.687,638.579 
  354.658,624.869 359.628,611.246 364.598,597.728 369.569,584.334 374.539,571.081 379.509,557.987 384.48,545.067 389.45,532.339 394.421,519.817 399.391,507.516 
  404.361,495.452 409.332,483.64 414.302,472.091 419.273,460.819 424.243,449.839 429.213,439.163 434.184,428.8 439.154,418.764 444.125,409.065 449.095,399.715 
  454.065,390.723 459.036,382.099 464.006,373.852 468.977,365.991 473.947,358.524 478.917,351.459 483.888,344.804 488.858,338.565 493.829,332.748 498.799,327.361 
  503.769,322.408 508.74,317.895 513.71,313.826 518.681,310.206 523.651,307.037 528.621,304.325 533.592,302.071 538.562,300.277 543.532,298.945 548.503,298.077 
  553.473,297.674 558.444,297.736 563.414,298.262 568.384,299.253 573.355,300.707 578.325,302.623 583.296,304.999 588.266,307.833 593.236,311.122 598.207,314.863 
  603.177,319.051 608.148,323.684 613.118,328.756 618.088,334.263 623.059,340.199 628.029,346.558 633,353.336 637.97,360.524 642.94,368.117 647.911,376.106 
  652.881,384.486 657.852,393.247 662.822,402.382 667.792,411.882 672.763,421.738 677.733,431.943 682.704,442.486 687.674,453.359 692.644,464.55 697.615,476.051 
  702.585,487.853 707.555,499.945 712.526,512.316 717.496,524.956 722.467,537.856 727.437,551.009 732.407,564.401 737.378,578.024 742.348,591.867 747.319,605.921 
  752.289,620.177 757.259,634.625 762.23,649.258 767.2,664.071 772.171,679.053 777.141,694.201 782.111,709.509 787.082,724.973 792.052,740.589 797.023,756.355 
  801.993,769.342 806.963,780.578 811.934,791.891 816.904,803.262 821.875,814.675 826.845,826.112 831.815,837.558 836.786,848.996 841.756,860.409 846.727,871.78 
  851.697,883.095 856.667,894.336 861.638,905.488 866.608,916.539 871.578,927.47 876.549,938.27 881.519,948.925 886.49,959.421 891.46,969.745 896.43,979.884 
  901.401,989.827 906.371,999.561 911.342,1009.07 916.312,1018.36 921.282,1027.4 926.253,1036.19 931.223,1044.71 936.194,1052.97 941.164,1060.94 946.134,1068.63 
  951.105,1076.01 956.075,1083.09 961.046,1089.85 966.016,1096.28 970.986,1102.39 975.957,1108.17 980.927,1113.6 985.898,1118.68 990.868,1123.41 995.838,1127.78 
  1000.81,1131.78 1005.78,1135.42 1010.75,1138.69 1015.72,1141.59 1020.69,1144.1 1025.66,1146.24 1030.63,1147.99 1035.6,1149.36 1040.57,1150.34 1045.54,1150.93 
  1050.51,1151.14 1055.48,1150.95 1060.45,1150.38 1065.42,1149.42 1070.39,1148.08 1075.36,1146.34 1080.34,1144.22 1085.31,1141.72 1090.28,1138.84 1095.25,1135.58 
  1100.22,1131.95 1105.19,1127.94 1110.16,1123.57 1115.13,1118.83 1120.1,1113.74 1125.07,1108.29 1130.04,1102.49 1135.01,1096.34 1139.98,1089.86 1144.95,1083.04 
  1149.92,1075.9 1154.89,1068.44 1159.86,1060.66 1164.83,1052.58 1169.8,1044.2 1174.77,1035.53 1179.74,1026.57 1184.71,1017.34 1189.68,1007.83 1194.65,998.065 
  1199.62,988.047 1204.59,977.784 1209.57,967.284 1214.54,956.553 1219.51,945.602 1224.48,934.438 1229.45,923.072 1234.42,911.509 1239.39,899.757 1244.36,887.825 
  1249.33,875.719 1254.3,863.446 1259.27,851.013 1264.24,838.427 1269.21,825.691 1274.18,812.813 1279.15,799.797 1284.12,786.647 1289.09,773.366 1294.06,760.867 
  1299.03,752.13 1304,743.328 1308.97,734.471 1313.94,725.573 1318.91,716.646 1323.88,707.701 1328.85,698.751 1333.83,689.809 1338.8,680.887 1343.77,671.998 
  1348.74,663.153 1353.71,654.365 1358.68,645.644 1363.65,637.004 1368.62,628.454 1373.59,620.005 1378.56,611.669 1383.53,603.454 1388.5,595.372 1393.47,587.432 
  1398.44,579.646 1403.41,572.023 1408.38,564.571 1413.35,557.3 1418.32,550.219 1423.29,543.335 1428.26,536.657 1433.23,530.192 1438.2,523.949 1443.17,517.933 
  1448.14,512.153 1453.11,506.613 1458.08,501.322 1463.06,496.284 1468.03,491.506 1473,486.992 1477.97,482.748 1482.94,478.779 1487.91,475.089 1492.88,471.682 
  1497.85,468.563 1502.82,465.734 1507.79,463.199 1512.76,460.961 1517.73,459.022 1522.7,457.386 1527.67,456.053 1532.64,455.026 1537.61,454.305 1542.58,453.892 
  1547.55,453.788 1552.52,453.992 1557.49,454.506 1562.46,455.329 1567.43,456.46 1572.4,457.898 1577.37,459.643 1582.34,461.693 1587.32,464.046 1592.29,466.7 
  1597.26,469.653 1602.23,472.901 1607.2,476.444 1612.17,480.278 1617.14,484.398 1622.11,488.802 1627.08,493.485 1632.05,498.443 1637.02,503.673 1641.99,509.169 
  1646.96,514.928 1651.93,520.944 1656.9,527.211 1661.87,533.725 1666.84,540.479 1671.81,547.469 1676.78,554.69 1681.75,562.134 1686.72,569.796 1691.69,577.671 
  1696.66,585.75 1701.63,594.029 1706.6,602.501 1711.58,611.161 1716.55,620.002 1721.52,629.017 1726.49,638.201 1731.46,647.546 1736.43,657.046 1741.4,666.698 
  1746.37,676.494 1751.34,686.429 1756.31,696.496 1761.28,706.692 1766.25,717.009 1771.22,727.444 1776.19,737.993 1781.16,748.651 1786.13,759.416 1791.1,766.866 
  1796.07,773.01 1801.04,779.198 1806.01,785.421 1810.98,791.671 1815.95,797.941 1820.92,804.223 1825.89,810.51 1830.86,816.792 1835.83,823.063 1840.81,829.312 
  1845.78,835.533 1850.75,841.716 1855.72,847.856 1860.69,853.942 1865.66,859.969 1870.63,865.927 1875.6,871.811 1880.57,877.611 1885.54,883.322 1890.51,888.935 
  1895.48,894.444 1900.45,899.844 1905.42,905.127 1910.39,910.286 1915.36,915.314 1920.33,920.205 1925.3,924.954 1930.27,929.555 1935.24,934.002 1940.21,938.29 
  1945.18,942.414 1950.15,946.369 1955.12,950.15 1960.09,953.753 1965.07,957.174 1970.04,960.408 1975.01,963.451 1979.98,966.301 1984.95,968.952 1989.92,971.404 
  1994.89,973.651 1999.86,975.692 2004.83,977.524 2009.8,979.145 2014.77,980.552 2019.74,981.743 2024.71,982.718 2029.68,983.474 2034.65,984.01 2039.62,984.326 
  2044.59,984.42 2049.56,984.293 2054.53,983.943 2059.5,983.37 2064.47,982.575 2069.44,981.559 2074.41,980.321 2079.38,978.862 2084.35,977.184 2089.33,975.287 
  2094.3,973.173 2099.27,970.843 2104.24,968.301 2109.21,965.546 2114.18,962.581 2119.15,959.409 2124.12,956.033 2129.09,952.455 2134.06,948.677 2139.03,944.703 
  2144,940.536 2148.97,936.18 2153.94,931.637 2158.91,926.911 2163.88,922.006 2168.85,916.926 2173.82,911.674 2178.79,906.255 2183.76,900.673 2188.73,894.932 
  2193.7,889.036 2198.67,882.99 2203.64,876.797 2208.61,870.463 2213.58,863.991 2218.56,857.387 2223.53,850.655 2228.5,843.799 2233.47,836.823 2238.44,829.733 
  2243.41,822.532 2248.38,815.225 2253.35,807.816 2258.32,800.31 2263.29,792.709 2268.26,785.02 2273.23,777.245 2278.2,769.387 2283.17,762.081 2288.14,758.864 
  2293.11,755.622 
  "/>
<polyline clip-path="url(#clip012)" style="stroke:#008000; stroke-linecap:butt; stroke-linejoin:round; stroke-width:8; stroke-opacity:1; fill:none" stroke-dasharray="4, 8" points="
  304.954,762.504 309.924,748.695 314.894,734.868 319.865,721.033 324.835,707.197 329.806,693.372 334.776,679.566 339.746,665.79 344.717,652.053 349.687,638.366 
  354.658,624.741 359.628,611.188 364.598,597.72 369.569,584.347 374.539,571.083 379.509,557.941 384.48,544.934 389.45,532.075 394.421,519.379 399.391,506.861 
  404.361,494.535 409.332,482.416 414.302,470.522 419.273,458.868 424.243,447.473 429.213,436.353 434.184,425.526 439.154,415.009 444.125,404.819 449.095,394.975 
  454.065,385.492 459.036,376.39 464.006,367.686 468.977,359.397 473.947,351.539 478.917,344.125 483.888,337.174 488.858,330.701 493.829,324.719 498.799,319.24 
  503.769,314.276 508.74,309.835 513.71,305.925 518.681,302.552 523.651,299.72 528.621,297.433 533.592,295.691 538.562,294.494 543.532,293.841 548.503,293.728 
  553.473,294.151 558.444,295.106 563.414,296.585 568.384,298.579 573.355,301.079 578.325,304.074 583.296,307.554 588.266,311.507 593.236,315.923 598.207,320.788 
  603.177,326.09 608.148,331.817 613.118,337.954 618.088,344.488 623.059,351.403 628.029,358.686 633,366.319 637.97,374.292 642.94,382.589 647.911,391.198 
  652.881,400.105 657.852,409.296 662.822,418.757 667.792,428.477 672.763,438.441 677.733,448.637 682.704,459.053 687.674,469.676 692.644,480.495 697.615,491.498 
  702.585,502.674 707.555,514.01 712.526,525.497 717.496,537.123 722.467,548.878 727.437,560.751 732.407,572.732 737.378,584.812 742.348,596.98 747.319,609.226 
  752.289,621.542 757.259,633.918 762.23,646.346 767.2,658.815 772.171,671.317 777.141,683.843 782.111,696.383 787.082,708.928 792.052,721.468 797.023,733.996 
  801.993,746.5 806.963,758.973 811.934,771.404 816.904,783.785 821.875,796.105 826.845,808.356 831.815,820.528 836.786,832.612 841.756,844.599 846.727,856.478 
  851.697,868.241 856.667,879.879 861.638,891.381 866.608,902.736 871.578,913.931 876.549,924.957 881.519,935.802 886.49,946.455 891.46,956.905 896.43,967.143 
  901.401,977.157 906.371,986.937 911.342,996.473 916.312,1005.76 921.282,1014.77 926.253,1023.52 931.223,1031.98 936.194,1040.15 941.164,1048.02 946.134,1055.57 
  951.105,1062.81 956.075,1069.71 961.046,1076.28 966.016,1082.51 970.986,1088.39 975.957,1093.91 980.927,1099.08 985.898,1103.88 990.868,1108.31 995.838,1112.38 
  1000.81,1116.07 1005.78,1119.38 1010.75,1122.31 1015.72,1124.87 1020.69,1127.05 1025.66,1128.86 1030.63,1130.29 1035.6,1131.34 1040.57,1132.02 1045.54,1132.34 
  1050.51,1132.29 1055.48,1131.88 1060.45,1131.12 1065.42,1130.01 1070.39,1128.56 1075.36,1126.77 1080.34,1124.66 1085.31,1122.23 1090.28,1119.49 1095.25,1116.44 
  1100.22,1113.08 1105.19,1109.43 1110.16,1105.49 1115.13,1101.26 1120.1,1096.76 1125.07,1091.99 1130.04,1086.96 1135.01,1081.68 1139.98,1076.14 1144.95,1070.36 
  1149.92,1064.34 1154.89,1058.1 1159.86,1051.63 1164.83,1044.94 1169.8,1038.04 1174.77,1030.93 1179.74,1023.62 1184.71,1016.12 1189.68,1008.44 1194.65,1000.56 
  1199.62,992.514 1204.59,984.293 1209.57,975.905 1214.54,967.356 1219.51,958.653 1224.48,949.799 1229.45,940.802 1234.42,931.667 1239.39,922.401 1244.36,913.01 
  1249.33,903.501 1254.3,893.879 1259.27,884.152 1264.24,874.327 1269.21,864.411 1274.18,854.41 1279.15,844.333 1284.12,834.187 1289.09,823.979 1294.06,813.717 
  1299.03,803.409 1304,793.062 1308.97,782.686 1313.94,772.289 1318.91,761.878 1323.88,751.462 1328.85,741.051 1333.83,730.653 1338.8,720.277 1343.77,709.932 
  1348.74,699.627 1353.71,689.373 1358.68,679.177 1363.65,669.051 1368.62,659.004 1373.59,649.048 1378.56,639.195 1383.53,629.457 1388.5,619.846 1393.47,610.373 
  1398.44,601.052 1403.41,591.893 1408.38,582.908 1413.35,574.109 1418.32,565.508 1423.29,557.115 1428.26,548.943 1433.23,541.003 1438.2,533.307 1443.17,525.864 
  1448.14,518.688 1453.11,511.789 1458.08,505.178 1463.06,498.866 1468.03,492.864 1473,487.183 1477.97,481.828 1482.94,476.805 1487.91,472.124 1492.88,467.793 
  1497.85,463.82 1502.82,460.211 1507.79,456.972 1512.76,454.108 1517.73,451.624 1522.7,449.523 1527.67,447.807 1532.64,446.478 1537.61,445.537 1542.58,444.983 
  1547.55,444.816 1552.52,445.035 1557.49,445.635 1562.46,446.615 1567.43,447.97 1572.4,449.695 1577.37,451.783 1582.34,454.228 1587.32,457.022 1592.29,460.158 
  1597.26,463.624 1602.23,467.412 1607.2,471.511 1612.17,475.907 1617.14,480.589 1622.11,485.546 1627.08,490.78 1632.05,496.281 1637.02,502.04 1641.99,508.047 
  1646.96,514.29 1651.93,520.761 1656.9,527.45 1661.87,534.346 1666.84,541.44 1671.81,548.721 1676.78,556.18 1681.75,563.808 1686.72,571.593 1691.69,579.528 
  1696.66,587.601 1701.63,595.803 1706.6,604.125 1711.58,612.557 1716.55,621.089 1721.52,629.713 1726.49,638.418 1731.46,647.195 1736.43,656.034 1741.4,664.927 
  1746.37,673.867 1751.34,682.844 1756.31,691.851 1761.28,700.876 1766.25,709.912 1771.22,718.949 1776.19,727.979 1781.16,736.992 1786.13,745.98 1791.1,754.934 
  1796.07,763.845 1801.04,772.704 1806.01,781.504 1810.98,790.236 1815.95,798.89 1820.92,807.46 1825.89,815.937 1830.86,824.313 1835.83,832.579 1840.81,840.728 
  1845.78,848.752 1850.75,856.643 1855.72,864.393 1860.69,871.994 1865.66,879.44 1870.63,886.722 1875.6,893.833 1880.57,900.765 1885.54,907.512 1890.51,914.067 
  1895.48,920.425 1900.45,926.579 1905.42,932.522 1910.39,938.247 1915.36,943.75 1920.33,949.023 1925.3,954.062 1930.27,958.861 1935.24,963.417 1940.21,967.725 
  1945.18,971.781 1950.15,975.583 1955.12,979.127 1960.09,982.411 1965.07,985.432 1970.04,988.191 1975.01,990.684 1979.98,992.911 1984.95,994.872 1989.92,996.567 
  1994.89,997.995 1999.86,999.159 2004.83,1000.06 2009.8,1000.7 2014.77,1001.07 2019.74,1001.18 2024.71,1001.03 2029.68,1000.63 2034.65,999.974 2039.62,999.067 
  2044.59,997.913 2049.56,996.515 2054.53,994.876 2059.5,993 2064.47,990.891 2069.44,988.553 2074.41,985.988 2079.38,983.203 2084.35,980.2 2089.33,976.984 
  2094.3,973.561 2099.27,969.933 2104.24,966.106 2109.21,962.085 2114.18,957.876 2119.15,953.482 2124.12,948.91 2129.09,944.165 2134.06,939.252 2139.03,934.178 
  2144,928.948 2148.97,923.567 2153.94,918.04 2158.91,912.371 2163.88,906.566 2168.85,900.63 2173.82,894.569 2178.79,888.387 2183.76,882.092 2188.73,875.688 
  2193.7,869.182 2198.67,862.579 2203.64,855.885 2208.61,849.107 2213.58,842.25 2218.56,835.322 2223.53,828.328 2228.5,821.275 2233.47,814.169 2238.44,807.017 
  2243.41,799.826 2248.38,792.603 2253.35,785.354 2258.32,778.086 2263.29,770.807 2268.26,763.524 2273.23,756.243 2278.2,748.973 2283.17,741.721 2288.14,734.494 
  2293.11,727.299 
  "/>
<polyline clip-path="url(#clip012)" style="stroke:#008000; stroke-linecap:butt; stroke-linejoin:round; stroke-width:8; stroke-opacity:1; fill:none" points="
  304.954,762.504 309.924,747.897 314.894,733.319 319.865,718.78 324.835,704.292 329.806,689.866 334.776,675.514 339.746,661.246 344.717,647.075 349.687,633.011 
  354.658,619.068 359.628,605.257 364.598,591.589 369.569,578.078 374.539,564.734 379.509,551.571 384.48,538.601 389.45,525.836 394.421,513.287 399.391,500.968 
  404.361,488.891 409.332,477.068 414.302,465.511 419.273,454.232 424.243,443.245 429.213,432.56 434.184,422.189 439.154,412.145 444.125,402.439 449.095,393.083 
  454.065,384.088 459.036,375.465 464.006,367.224 468.977,359.376 473.947,351.934 478.917,344.906 483.888,338.303 488.858,332.135 493.829,326.411 498.799,321.138 
  503.769,316.324 508.74,311.977 513.71,308.103 518.681,304.708 523.651,301.798 528.621,299.376 533.592,297.447 538.562,296.015 543.532,295.081 548.503,294.647 
  553.473,294.712 558.444,295.277 563.414,296.34 568.384,297.899 573.355,299.952 578.325,302.494 583.296,305.52 588.266,309.025 593.236,313.003 598.207,317.446 
  603.177,322.345 608.148,327.692 613.118,333.477 618.088,339.688 623.059,346.313 628.029,353.342 633,360.763 637.97,368.565 642.94,376.735 647.911,385.26 
  652.881,394.126 657.852,403.32 662.822,412.829 667.792,422.64 672.763,432.738 677.733,443.112 682.704,453.747 687.674,464.63 692.644,475.747 697.615,487.086 
  702.585,498.633 707.555,510.373 712.526,522.295 717.496,534.384 722.467,546.627 727.437,559.011 732.407,571.525 737.378,584.157 742.348,596.894 747.319,609.723 
  752.289,622.634 757.259,635.613 762.23,648.649 767.2,661.729 772.171,674.843 777.141,687.978 782.111,701.123 787.082,714.266 792.052,727.396 797.023,740.501 
  801.993,753.571 806.963,766.593 811.934,779.558 816.904,792.453 821.875,805.268 826.845,817.992 831.815,830.615 836.786,843.126 841.756,855.513 846.727,867.768 
  851.697,879.879 856.667,891.834 861.638,903.622 866.608,915.232 871.578,926.652 876.549,937.873 881.519,948.883 886.49,959.672 891.46,970.23 896.43,980.547 
  901.401,990.613 906.371,1000.42 911.342,1009.95 916.312,1019.21 921.282,1028.18 926.253,1036.85 931.223,1045.21 936.194,1053.26 941.164,1060.99 946.134,1068.39 
  951.105,1075.45 956.075,1082.17 961.046,1088.55 966.016,1094.56 970.986,1100.22 975.957,1105.51 980.927,1110.43 985.898,1114.97 990.868,1119.14 995.838,1122.92 
  1000.81,1126.32 1005.78,1129.34 1010.75,1131.97 1015.72,1134.21 1020.69,1136.06 1025.66,1137.53 1030.63,1138.62 1035.6,1139.32 1040.57,1139.64 1045.54,1139.59 
  1050.51,1139.16 1055.48,1138.36 1060.45,1137.2 1065.42,1135.67 1070.39,1133.8 1075.36,1131.56 1080.34,1128.99 1085.31,1126.07 1090.28,1122.82 1095.25,1119.24 
  1100.22,1115.35 1105.19,1111.14 1110.16,1106.63 1115.13,1101.82 1120.1,1096.73 1125.07,1091.34 1130.04,1085.69 1135.01,1079.77 1139.98,1073.58 1144.95,1067.15 
  1149.92,1060.47 1154.89,1053.55 1159.86,1046.41 1164.83,1039.04 1169.8,1031.46 1174.77,1023.68 1179.74,1015.7 1184.71,1007.54 1189.68,999.192 1194.65,990.674 
  1199.62,981.99 1204.59,973.148 1209.57,964.155 1214.54,955.018 1219.51,945.746 1224.48,936.347 1229.45,926.827 1234.42,917.195 1239.39,907.459 1244.36,897.626 
  1249.33,887.705 1254.3,877.703 1259.27,867.629 1264.24,857.491 1269.21,847.296 1274.18,837.054 1279.15,826.772 1284.12,816.459 1289.09,806.123 1294.06,795.773 
  1299.03,785.417 1304,775.063 1308.97,764.72 1313.94,754.397 1318.91,744.103 1323.88,733.845 1328.85,723.634 1333.83,713.478 1338.8,703.385 1343.77,693.365 
  1348.74,683.425 1353.71,673.576 1358.68,663.828 1363.65,654.189 1368.62,644.669 1373.59,635.279 1378.56,626.026 1383.53,616.921 1388.5,607.972 1393.47,599.188 
  1398.44,590.578 1403.41,582.151 1408.38,573.915 1413.35,565.879 1418.32,558.051 1423.29,550.439 1428.26,543.052 1433.23,535.898 1438.2,528.983 1443.17,522.317 
  1448.14,515.907 1453.11,509.76 1458.08,503.883 1463.06,498.278 1468.03,492.952 1473,487.914 1477.97,483.171 1482.94,478.728 1487.91,474.592 1492.88,470.769 
  1497.85,467.263 1502.82,464.078 1507.79,461.219 1512.76,458.689 1517.73,456.491 1522.7,454.627 1527.67,453.098 1532.64,451.907 1537.61,451.054 1542.58,450.539 
  1547.55,450.361 1552.52,450.521 1557.49,451.016 1562.46,451.845 1567.43,453.005 1572.4,454.493 1577.37,456.307 1582.34,458.441 1587.32,460.892 1592.29,463.655 
  1597.26,466.723 1602.23,470.095 1607.2,473.766 1612.17,477.729 1617.14,481.977 1622.11,486.503 1627.08,491.301 1632.05,496.363 1637.02,501.682 1641.99,507.25 
  1646.96,513.059 1651.93,519.102 1656.9,525.37 1661.87,531.855 1666.84,538.549 1671.81,545.443 1676.78,552.529 1681.75,559.796 1686.72,567.236 1691.69,574.841 
  1696.66,582.599 1701.63,590.501 1706.6,598.538 1711.58,606.7 1716.55,614.976 1721.52,623.355 1726.49,631.828 1731.46,640.384 1736.43,649.018 1741.4,657.722 
  1746.37,666.485 1751.34,675.298 1756.31,684.151 1761.28,693.034 1766.25,701.937 1771.22,710.853 1776.19,719.77 1781.16,728.68 1786.13,737.574 1791.1,746.442 
  1796.07,755.276 1801.04,764.068 1806.01,772.807 1810.98,781.486 1815.95,790.096 1820.92,798.629 1825.89,807.076 1830.86,815.429 1835.83,823.68 1840.81,831.821 
  1845.78,839.844 1850.75,847.741 1855.72,855.505 1860.69,863.127 1865.66,870.601 1870.63,877.919 1875.6,885.073 1880.57,892.057 1885.54,898.862 1890.51,905.484 
  1895.48,911.917 1900.45,918.155 1905.42,924.191 1910.39,930.021 1915.36,935.637 1920.33,941.035 1925.3,946.209 1930.27,951.155 1935.24,955.868 1940.21,960.345 
  1945.18,964.581 1950.15,968.573 1955.12,972.319 1960.09,975.815 1965.07,979.059 1970.04,982.049 1975.01,984.783 1979.98,987.261 1984.95,989.479 1989.92,991.439 
  1994.89,993.14 1999.86,994.581 2004.83,995.763 2009.8,996.686 2014.77,997.35 2019.74,997.757 2024.71,997.908 2029.68,997.805 2034.65,997.45 2039.62,996.845 
  2044.59,995.993 2049.56,994.895 2054.53,993.556 2059.5,991.978 2064.47,990.164 2069.44,988.117 2074.41,985.842 2079.38,983.342 2084.35,980.621 2089.33,977.684 
  2094.3,974.534 2099.27,971.177 2104.24,967.617 2109.21,963.859 2114.18,959.909 2119.15,955.772 2124.12,951.454 2129.09,946.961 2134.06,942.299 2139.03,937.473 
  2144,932.491 2148.97,927.359 2153.94,922.084 2158.91,916.667 2163.88,911.115 2168.85,905.433 2173.82,899.628 2178.79,893.706 2183.76,887.673 2188.73,881.534 
  2193.7,875.296 2198.67,868.966 2203.64,862.549 2208.61,856.052 2213.58,849.48 2218.56,842.841 2223.53,836.14 2228.5,829.384 2233.47,822.58 2238.44,815.733 
  2243.41,808.85 2248.38,801.938 2253.35,795.003 2258.32,788.052 2263.29,781.091 2268.26,774.126 2273.23,767.165 2278.2,760.215 2283.17,753.28 2288.14,746.37 
  2293.11,739.489 
  "/>
<path clip-path="url(#clip010)" d="
M1413.49 619.676 L2282.51 619.676 L2282.51 166.076 L1413.49 166.076  Z
  " fill="#ffffff" fill-rule="evenodd" fill-opacity="1"/>
<polyline clip-path="url(#clip010)" style="stroke:#000000; stroke-linecap:butt; stroke-linejoin:round; stroke-width:4; stroke-opacity:1; fill:none" points="
  1413.49,619.676 2282.51,619.676 2282.51,166.076 1413.49,166.076 1413.49,619.676 
  "/>
<polyline clip-path="url(#clip010)" style="stroke:#009af9; stroke-linecap:butt; stroke-linejoin:round; stroke-width:6; stroke-opacity:1; fill:none" points="
  1436.91,256.796 1577.4,256.796 
  "/>
<path clip-path="url(#clip010)" d="M1634.19 232.577 L1634.19 239.417 Q1630.19 237.508 1626.65 236.57 Q1623.11 235.633 1619.81 235.633 Q1614.08 235.633 1610.96 237.855 Q1607.87 240.077 1607.87 244.174 Q1607.87 247.612 1609.91 249.383 Q1612 251.119 1617.76 252.195 L1622 253.063 Q1629.85 254.556 1633.56 258.341 Q1637.31 262.091 1637.31 268.41 Q1637.31 275.945 1632.24 279.834 Q1627.21 283.723 1617.45 283.723 Q1613.77 283.723 1609.6 282.889 Q1605.47 282.056 1601.03 280.424 L1601.03 273.202 Q1605.3 275.598 1609.39 276.813 Q1613.49 278.028 1617.45 278.028 Q1623.46 278.028 1626.72 275.667 Q1629.98 273.306 1629.98 268.931 Q1629.98 265.112 1627.62 262.959 Q1625.3 260.806 1619.95 259.73 L1615.68 258.896 Q1607.83 257.334 1604.32 254.001 Q1600.82 250.667 1600.82 244.73 Q1600.82 237.855 1605.64 233.897 Q1610.51 229.938 1619.01 229.938 Q1622.66 229.938 1626.44 230.598 Q1630.23 231.258 1634.19 232.577 Z" fill="#000000" fill-rule="evenodd" fill-opacity="1" /><path clip-path="url(#clip010)" d="M1647.97 243.827 L1654.36 243.827 L1654.36 282.716 L1647.97 282.716 L1647.97 243.827 M1647.97 228.688 L1654.36 228.688 L1654.36 236.778 L1647.97 236.778 L1647.97 228.688 Z" fill="#000000" fill-rule="evenodd" fill-opacity="1" /><path clip-path="url(#clip010)" d="M1698 251.292 Q1700.4 246.987 1703.73 244.938 Q1707.07 242.89 1711.58 242.89 Q1717.66 242.89 1720.96 247.16 Q1724.25 251.396 1724.25 259.244 L1724.25 282.716 L1717.83 282.716 L1717.83 259.452 Q1717.83 253.862 1715.85 251.153 Q1713.87 248.445 1709.81 248.445 Q1704.85 248.445 1701.96 251.744 Q1699.08 255.042 1699.08 260.737 L1699.08 282.716 L1692.66 282.716 L1692.66 259.452 Q1692.66 253.827 1690.68 251.153 Q1688.7 248.445 1684.57 248.445 Q1679.67 248.445 1676.79 251.778 Q1673.91 255.077 1673.91 260.737 L1673.91 282.716 L1667.48 282.716 L1667.48 243.827 L1673.91 243.827 L1673.91 249.869 Q1676.1 246.292 1679.15 244.591 Q1682.21 242.89 1686.41 242.89 Q1690.64 242.89 1693.6 245.042 Q1696.58 247.195 1698 251.292 Z" fill="#000000" fill-rule="evenodd" fill-opacity="1" /><path clip-path="url(#clip010)" d="M1743.18 276.882 L1743.18 297.507 L1736.75 297.507 L1736.75 243.827 L1743.18 243.827 L1743.18 249.73 Q1745.19 246.258 1748.25 244.591 Q1751.34 242.89 1755.61 242.89 Q1762.69 242.89 1767.1 248.515 Q1771.55 254.139 1771.55 263.306 Q1771.55 272.473 1767.1 278.098 Q1762.69 283.723 1755.61 283.723 Q1751.34 283.723 1748.25 282.056 Q1745.19 280.355 1743.18 276.882 M1764.91 263.306 Q1764.91 256.258 1762 252.264 Q1759.12 248.237 1754.05 248.237 Q1748.98 248.237 1746.06 252.264 Q1743.18 256.258 1743.18 263.306 Q1743.18 270.355 1746.06 274.382 Q1748.98 278.375 1754.05 278.375 Q1759.12 278.375 1762 274.382 Q1764.91 270.355 1764.91 263.306 Z" fill="#000000" fill-rule="evenodd" fill-opacity="1" /><path clip-path="url(#clip010)" d="M1782.14 228.688 L1788.53 228.688 L1788.53 282.716 L1782.14 282.716 L1782.14 228.688 Z" fill="#000000" fill-rule="evenodd" fill-opacity="1" /><path clip-path="url(#clip010)" d="M1835.16 261.674 L1835.16 264.799 L1805.78 264.799 Q1806.2 271.396 1809.74 274.869 Q1813.32 278.306 1819.67 278.306 Q1823.35 278.306 1826.79 277.403 Q1830.26 276.5 1833.66 274.695 L1833.66 280.737 Q1830.23 282.195 1826.62 282.959 Q1823 283.723 1819.29 283.723 Q1809.98 283.723 1804.53 278.306 Q1799.12 272.889 1799.12 263.653 Q1799.12 254.105 1804.25 248.515 Q1809.43 242.89 1818.18 242.89 Q1826.02 242.89 1830.57 247.959 Q1835.16 252.994 1835.16 261.674 M1828.77 259.799 Q1828.7 254.556 1825.82 251.431 Q1822.97 248.306 1818.25 248.306 Q1812.9 248.306 1809.67 251.327 Q1806.48 254.348 1805.99 259.834 L1828.77 259.799 Z" fill="#000000" fill-rule="evenodd" fill-opacity="1" /><path clip-path="url(#clip010)" d="M1845.92 230.876 L1875.71 230.876 L1875.71 236.778 L1852.93 236.778 L1852.93 252.056 L1873.49 252.056 L1873.49 257.959 L1852.93 257.959 L1852.93 282.716 L1845.92 282.716 L1845.92 230.876 Z" fill="#000000" fill-rule="evenodd" fill-opacity="1" /><path clip-path="url(#clip010)" d="M1886.82 230.876 L1897.27 230.876 L1910.5 266.153 L1923.8 230.876 L1934.25 230.876 L1934.25 282.716 L1927.41 282.716 L1927.41 237.195 L1914.05 272.75 L1907 272.75 L1893.63 237.195 L1893.63 282.716 L1886.82 282.716 L1886.82 230.876 Z" fill="#000000" fill-rule="evenodd" fill-opacity="1" /><path clip-path="url(#clip010)" d="M1947.38 230.876 L1954.43 230.876 L1954.43 262.369 Q1954.43 270.702 1957.45 274.382 Q1960.47 278.028 1967.24 278.028 Q1973.98 278.028 1977 274.382 Q1980.02 270.702 1980.02 262.369 L1980.02 230.876 L1987.07 230.876 L1987.07 263.237 Q1987.07 273.375 1982.03 278.549 Q1977.03 283.723 1967.24 283.723 Q1957.41 283.723 1952.38 278.549 Q1947.38 273.375 1947.38 263.237 L1947.38 230.876 Z" fill="#000000" fill-rule="evenodd" fill-opacity="1" /><polyline clip-path="url(#clip010)" style="stroke:#e26f46; stroke-linecap:butt; stroke-linejoin:round; stroke-width:6; stroke-opacity:1; fill:none" points="
  1436.91,347.516 1577.4,347.516 
  "/>
<path clip-path="url(#clip010)" d="M1623.6 340.519 Q1622.52 339.894 1621.23 339.616 Q1619.98 339.304 1618.46 339.304 Q1613.04 339.304 1610.12 342.846 Q1607.24 346.353 1607.24 352.95 L1607.24 373.436 L1600.82 373.436 L1600.82 334.547 L1607.24 334.547 L1607.24 340.589 Q1609.26 337.047 1612.48 335.346 Q1615.71 333.61 1620.33 333.61 Q1620.99 333.61 1621.79 333.714 Q1622.59 333.783 1623.56 333.957 L1623.6 340.519 Z" fill="#000000" fill-rule="evenodd" fill-opacity="1" /><path clip-path="url(#clip010)" d="M1662 352.394 L1662 355.519 L1632.62 355.519 Q1633.04 362.116 1636.58 365.589 Q1640.16 369.026 1646.51 369.026 Q1650.19 369.026 1653.63 368.123 Q1657.1 367.22 1660.5 365.415 L1660.5 371.457 Q1657.07 372.915 1653.46 373.679 Q1649.85 374.443 1646.13 374.443 Q1636.82 374.443 1631.37 369.026 Q1625.96 363.609 1625.96 354.373 Q1625.96 344.825 1631.1 339.235 Q1636.27 333.61 1645.02 333.61 Q1652.87 333.61 1657.41 338.679 Q1662 343.714 1662 352.394 M1655.61 350.519 Q1655.54 345.276 1652.66 342.151 Q1649.81 339.026 1645.09 339.026 Q1639.74 339.026 1636.51 342.047 Q1633.32 345.068 1632.83 350.554 L1655.61 350.519 Z" fill="#000000" fill-rule="evenodd" fill-opacity="1" /><path clip-path="url(#clip010)" d="M1692.17 319.408 L1692.17 324.721 L1686.06 324.721 Q1682.62 324.721 1681.27 326.11 Q1679.95 327.498 1679.95 331.11 L1679.95 334.547 L1690.47 334.547 L1690.47 339.512 L1679.95 339.512 L1679.95 373.436 L1673.53 373.436 L1673.53 339.512 L1667.41 339.512 L1667.41 334.547 L1673.53 334.547 L1673.53 331.839 Q1673.53 325.346 1676.55 322.394 Q1679.57 319.408 1686.13 319.408 L1692.17 319.408 Z" fill="#000000" fill-rule="evenodd" fill-opacity="1" /><path clip-path="url(#clip010)" d="M1730.78 352.394 L1730.78 355.519 L1701.41 355.519 Q1701.82 362.116 1705.37 365.589 Q1708.94 369.026 1715.3 369.026 Q1718.98 369.026 1722.41 368.123 Q1725.89 367.22 1729.29 365.415 L1729.29 371.457 Q1725.85 372.915 1722.24 373.679 Q1718.63 374.443 1714.91 374.443 Q1705.61 374.443 1700.16 369.026 Q1694.74 363.609 1694.74 354.373 Q1694.74 344.825 1699.88 339.235 Q1705.05 333.61 1713.8 333.61 Q1721.65 333.61 1726.2 338.679 Q1730.78 343.714 1730.78 352.394 M1724.39 350.519 Q1724.32 345.276 1721.44 342.151 Q1718.59 339.026 1713.87 339.026 Q1708.53 339.026 1705.3 342.047 Q1702.1 345.068 1701.62 350.554 L1724.39 350.519 Z" fill="#000000" fill-rule="evenodd" fill-opacity="1" /><path clip-path="url(#clip010)" d="M1763.8 340.519 Q1762.73 339.894 1761.44 339.616 Q1760.19 339.304 1758.66 339.304 Q1753.25 339.304 1750.33 342.846 Q1747.45 346.353 1747.45 352.95 L1747.45 373.436 L1741.03 373.436 L1741.03 334.547 L1747.45 334.547 L1747.45 340.589 Q1749.46 337.047 1752.69 335.346 Q1755.92 333.61 1760.54 333.61 Q1761.2 333.61 1762 333.714 Q1762.8 333.783 1763.77 333.957 L1763.8 340.519 Z" fill="#000000" fill-rule="evenodd" fill-opacity="1" /><path clip-path="url(#clip010)" d="M1802.21 352.394 L1802.21 355.519 L1772.83 355.519 Q1773.25 362.116 1776.79 365.589 Q1780.37 369.026 1786.72 369.026 Q1790.4 369.026 1793.84 368.123 Q1797.31 367.22 1800.71 365.415 L1800.71 371.457 Q1797.28 372.915 1793.66 373.679 Q1790.05 374.443 1786.34 374.443 Q1777.03 374.443 1771.58 369.026 Q1766.16 363.609 1766.16 354.373 Q1766.16 344.825 1771.3 339.235 Q1776.48 333.61 1785.23 333.61 Q1793.07 333.61 1797.62 338.679 Q1802.21 343.714 1802.21 352.394 M1795.82 350.519 Q1795.75 345.276 1792.87 342.151 Q1790.02 339.026 1785.3 339.026 Q1779.95 339.026 1776.72 342.047 Q1773.53 345.068 1773.04 350.554 L1795.82 350.519 Z" fill="#000000" fill-rule="evenodd" fill-opacity="1" /><path clip-path="url(#clip010)" d="M1845.02 349.964 L1845.02 373.436 L1838.63 373.436 L1838.63 350.172 Q1838.63 344.651 1836.48 341.908 Q1834.32 339.165 1830.02 339.165 Q1824.84 339.165 1821.86 342.464 Q1818.87 345.762 1818.87 351.457 L1818.87 373.436 L1812.45 373.436 L1812.45 334.547 L1818.87 334.547 L1818.87 340.589 Q1821.16 337.082 1824.25 335.346 Q1827.38 333.61 1831.44 333.61 Q1838.14 333.61 1841.58 337.776 Q1845.02 341.908 1845.02 349.964 Z" fill="#000000" fill-rule="evenodd" fill-opacity="1" /><path clip-path="url(#clip010)" d="M1885.75 336.04 L1885.75 342.012 Q1883.04 340.519 1880.3 339.79 Q1877.59 339.026 1874.81 339.026 Q1868.59 339.026 1865.16 342.984 Q1861.72 346.908 1861.72 354.026 Q1861.72 361.144 1865.16 365.102 Q1868.59 369.026 1874.81 369.026 Q1877.59 369.026 1880.3 368.297 Q1883.04 367.533 1885.75 366.04 L1885.75 371.943 Q1883.07 373.193 1880.19 373.818 Q1877.34 374.443 1874.11 374.443 Q1865.33 374.443 1860.16 368.922 Q1854.98 363.401 1854.98 354.026 Q1854.98 344.512 1860.19 339.061 Q1865.43 333.61 1874.53 333.61 Q1877.48 333.61 1880.3 334.235 Q1883.11 334.825 1885.75 336.04 Z" fill="#000000" fill-rule="evenodd" fill-opacity="1" /><path clip-path="url(#clip010)" d="M1930.12 352.394 L1930.12 355.519 L1900.75 355.519 Q1901.16 362.116 1904.71 365.589 Q1908.28 369.026 1914.64 369.026 Q1918.32 369.026 1921.75 368.123 Q1925.23 367.22 1928.63 365.415 L1928.63 371.457 Q1925.19 372.915 1921.58 373.679 Q1917.97 374.443 1914.25 374.443 Q1904.95 374.443 1899.5 369.026 Q1894.08 363.609 1894.08 354.373 Q1894.08 344.825 1899.22 339.235 Q1904.39 333.61 1913.14 333.61 Q1920.99 333.61 1925.54 338.679 Q1930.12 343.714 1930.12 352.394 M1923.73 350.519 Q1923.66 345.276 1920.78 342.151 Q1917.93 339.026 1913.21 339.026 Q1907.86 339.026 1904.64 342.047 Q1901.44 345.068 1900.96 350.554 L1923.73 350.519 Z" fill="#000000" fill-rule="evenodd" fill-opacity="1" /><polyline clip-path="url(#clip010)" style="stroke:#008000; stroke-linecap:butt; stroke-linejoin:round; stroke-width:6; stroke-opacity:1; fill:none" stroke-dasharray="3, 6" points="
  1436.91,438.236 1577.4,438.236 
  "/>
<path clip-path="url(#clip010)" d="M1600.82 412.316 L1610.26 412.316 L1633.25 455.684 L1633.25 412.316 L1640.05 412.316 L1640.05 464.156 L1630.61 464.156 L1607.62 420.788 L1607.62 464.156 L1600.82 464.156 L1600.82 412.316 Z" fill="#000000" fill-rule="evenodd" fill-opacity="1" /><path clip-path="url(#clip010)" d="M1687 443.114 L1687 446.239 L1657.62 446.239 Q1658.04 452.836 1661.58 456.309 Q1665.16 459.746 1671.51 459.746 Q1675.19 459.746 1678.63 458.843 Q1682.1 457.94 1685.5 456.135 L1685.5 462.177 Q1682.07 463.635 1678.46 464.399 Q1674.85 465.163 1671.13 465.163 Q1661.82 465.163 1656.37 459.746 Q1650.96 454.329 1650.96 445.093 Q1650.96 435.545 1656.1 429.955 Q1661.27 424.33 1670.02 424.33 Q1677.87 424.33 1682.41 429.399 Q1687 434.434 1687 443.114 M1680.61 441.239 Q1680.54 435.996 1677.66 432.871 Q1674.81 429.746 1670.09 429.746 Q1664.74 429.746 1661.51 432.767 Q1658.32 435.788 1657.83 441.274 L1680.61 441.239 Z" fill="#000000" fill-rule="evenodd" fill-opacity="1" /><path clip-path="url(#clip010)" d="M1696.82 448.809 L1696.82 425.267 L1703.21 425.267 L1703.21 448.566 Q1703.21 454.086 1705.37 456.864 Q1707.52 459.607 1711.82 459.607 Q1717 459.607 1719.98 456.309 Q1723 453.01 1723 447.316 L1723 425.267 L1729.39 425.267 L1729.39 464.156 L1723 464.156 L1723 458.184 Q1720.68 461.725 1717.59 463.461 Q1714.53 465.163 1710.47 465.163 Q1703.77 465.163 1700.3 460.996 Q1696.82 456.829 1696.82 448.809 M1712.9 424.33 L1712.9 424.33 Z" fill="#000000" fill-rule="evenodd" fill-opacity="1" /><path clip-path="url(#clip010)" d="M1765.09 431.239 Q1764.01 430.614 1762.73 430.336 Q1761.48 430.024 1759.95 430.024 Q1754.53 430.024 1751.62 433.566 Q1748.73 437.073 1748.73 443.67 L1748.73 464.156 L1742.31 464.156 L1742.31 425.267 L1748.73 425.267 L1748.73 431.309 Q1750.75 427.767 1753.98 426.066 Q1757.21 424.33 1761.82 424.33 Q1762.48 424.33 1763.28 424.434 Q1764.08 424.503 1765.05 424.677 L1765.09 431.239 Z" fill="#000000" fill-rule="evenodd" fill-opacity="1" /><path clip-path="url(#clip010)" d="M1789.46 444.607 Q1781.72 444.607 1778.73 446.378 Q1775.75 448.149 1775.75 452.42 Q1775.75 455.822 1777.97 457.836 Q1780.23 459.815 1784.08 459.815 Q1789.39 459.815 1792.59 456.065 Q1795.82 452.281 1795.82 446.031 L1795.82 444.607 L1789.46 444.607 M1802.21 441.968 L1802.21 464.156 L1795.82 464.156 L1795.82 458.253 Q1793.63 461.795 1790.37 463.496 Q1787.1 465.163 1782.38 465.163 Q1776.41 465.163 1772.87 461.829 Q1769.36 458.461 1769.36 452.836 Q1769.36 446.274 1773.73 442.941 Q1778.14 439.607 1786.86 439.607 L1795.82 439.607 L1795.82 438.982 Q1795.82 434.573 1792.9 432.177 Q1790.02 429.746 1784.78 429.746 Q1781.44 429.746 1778.28 430.545 Q1775.12 431.343 1772.21 432.941 L1772.21 427.038 Q1775.71 425.684 1779.01 425.024 Q1782.31 424.33 1785.43 424.33 Q1793.87 424.33 1798.04 428.705 Q1802.21 433.079 1802.21 441.968 Z" fill="#000000" fill-rule="evenodd" fill-opacity="1" /><path clip-path="url(#clip010)" d="M1815.37 410.128 L1821.75 410.128 L1821.75 464.156 L1815.37 464.156 L1815.37 410.128 Z" fill="#000000" fill-rule="evenodd" fill-opacity="1" /><path clip-path="url(#clip010)" d="M1835.4 412.316 L1865.19 412.316 L1865.19 418.218 L1842.41 418.218 L1842.41 433.496 L1862.97 433.496 L1862.97 439.399 L1842.41 439.399 L1842.41 464.156 L1835.4 464.156 L1835.4 412.316 Z" fill="#000000" fill-rule="evenodd" fill-opacity="1" /><path clip-path="url(#clip010)" d="M1876.3 412.316 L1886.75 412.316 L1899.98 447.593 L1913.28 412.316 L1923.73 412.316 L1923.73 464.156 L1916.89 464.156 L1916.89 418.635 L1903.52 454.19 L1896.48 454.19 L1883.11 418.635 L1883.11 464.156 L1876.3 464.156 L1876.3 412.316 Z" fill="#000000" fill-rule="evenodd" fill-opacity="1" /><path clip-path="url(#clip010)" d="M1936.86 412.316 L1943.91 412.316 L1943.91 443.809 Q1943.91 452.142 1946.93 455.822 Q1949.95 459.468 1956.72 459.468 Q1963.45 459.468 1966.48 455.822 Q1969.5 452.142 1969.5 443.809 L1969.5 412.316 L1976.54 412.316 L1976.54 444.677 Q1976.54 454.815 1971.51 459.989 Q1966.51 465.163 1956.72 465.163 Q1946.89 465.163 1941.86 459.989 Q1936.86 454.815 1936.86 444.677 L1936.86 412.316 Z" fill="#000000" fill-rule="evenodd" fill-opacity="1" /><path clip-path="url(#clip010)" d="M2027.38 410.198 Q2022.73 418.184 2020.47 425.996 Q2018.21 433.809 2018.21 441.829 Q2018.21 449.85 2020.47 457.732 Q2022.76 465.579 2027.38 473.531 L2021.82 473.531 Q2016.61 465.371 2014.01 457.489 Q2011.44 449.607 2011.44 441.829 Q2011.44 434.086 2014.01 426.239 Q2016.58 418.392 2021.82 410.198 L2027.38 410.198 Z" fill="#000000" fill-rule="evenodd" fill-opacity="1" /><path clip-path="url(#clip010)" d="M2046.72 458.253 L2071.2 458.253 L2071.2 464.156 L2038.28 464.156 L2038.28 458.253 Q2042.27 454.121 2049.15 447.177 Q2056.06 440.198 2057.83 438.184 Q2061.2 434.399 2062.52 431.795 Q2063.87 429.156 2063.87 426.621 Q2063.87 422.489 2060.95 419.885 Q2058.07 417.281 2053.42 417.281 Q2050.12 417.281 2046.44 418.427 Q2042.79 419.573 2038.63 421.899 L2038.63 414.816 Q2042.86 413.114 2046.54 412.246 Q2050.23 411.378 2053.28 411.378 Q2061.34 411.378 2066.13 415.406 Q2070.92 419.434 2070.92 426.17 Q2070.92 429.364 2069.7 432.246 Q2068.52 435.093 2065.36 438.982 Q2064.5 439.989 2059.84 444.816 Q2055.19 449.607 2046.72 458.253 Z" fill="#000000" fill-rule="evenodd" fill-opacity="1" /><path clip-path="url(#clip010)" d="M2085.99 412.316 L2113.52 412.316 L2113.52 418.218 L2092.41 418.218 L2092.41 430.927 Q2093.94 430.406 2095.47 430.163 Q2097 429.885 2098.52 429.885 Q2107.2 429.885 2112.27 434.642 Q2117.34 439.399 2117.34 447.524 Q2117.34 455.892 2112.13 460.545 Q2106.93 465.163 2097.45 465.163 Q2094.18 465.163 2090.78 464.607 Q2087.41 464.052 2083.8 462.94 L2083.8 455.892 Q2086.93 457.593 2090.26 458.427 Q2093.59 459.26 2097.31 459.26 Q2103.32 459.26 2106.82 456.1 Q2110.33 452.94 2110.33 447.524 Q2110.33 442.107 2106.82 438.948 Q2103.32 435.788 2097.31 435.788 Q2094.5 435.788 2091.68 436.413 Q2088.91 437.038 2085.99 438.357 L2085.99 412.316 Z" fill="#000000" fill-rule="evenodd" fill-opacity="1" /><path clip-path="url(#clip010)" d="M2146.16 416.934 Q2140.75 416.934 2138 422.281 Q2135.29 427.593 2135.29 438.288 Q2135.29 448.947 2138 454.295 Q2140.75 459.607 2146.16 459.607 Q2151.61 459.607 2154.32 454.295 Q2157.06 448.947 2157.06 438.288 Q2157.06 427.593 2154.32 422.281 Q2151.61 416.934 2146.16 416.934 M2146.16 411.378 Q2154.88 411.378 2159.46 418.288 Q2164.08 425.163 2164.08 438.288 Q2164.08 451.378 2159.46 458.288 Q2154.88 465.163 2146.16 465.163 Q2137.45 465.163 2132.83 458.288 Q2128.25 451.378 2128.25 438.288 Q2128.25 425.163 2132.83 418.288 Q2137.45 411.378 2146.16 411.378 Z" fill="#000000" fill-rule="evenodd" fill-opacity="1" /><path clip-path="url(#clip010)" d="M2191.4 416.934 Q2185.99 416.934 2183.25 422.281 Q2180.54 427.593 2180.54 438.288 Q2180.54 448.947 2183.25 454.295 Q2185.99 459.607 2191.4 459.607 Q2196.86 459.607 2199.56 454.295 Q2202.31 448.947 2202.31 438.288 Q2202.31 427.593 2199.56 422.281 Q2196.86 416.934 2191.4 416.934 M2191.4 411.378 Q2200.12 411.378 2204.7 418.288 Q2209.32 425.163 2209.32 438.288 Q2209.32 451.378 2204.7 458.288 Q2200.12 465.163 2191.4 465.163 Q2182.69 465.163 2178.07 458.288 Q2173.49 451.378 2173.49 438.288 Q2173.49 425.163 2178.07 418.288 Q2182.69 411.378 2191.4 411.378 Z" fill="#000000" fill-rule="evenodd" fill-opacity="1" /><path clip-path="url(#clip010)" d="M2219.74 410.198 L2225.29 410.198 Q2230.5 418.392 2233.07 426.239 Q2235.68 434.086 2235.68 441.829 Q2235.68 449.607 2233.07 457.489 Q2230.5 465.371 2225.29 473.531 L2219.74 473.531 Q2224.36 465.579 2226.61 457.732 Q2228.9 449.85 2228.9 441.829 Q2228.9 433.809 2226.61 425.996 Q2224.36 418.184 2219.74 410.198 Z" fill="#000000" fill-rule="evenodd" fill-opacity="1" /><polyline clip-path="url(#clip010)" style="stroke:#008000; stroke-linecap:butt; stroke-linejoin:round; stroke-width:6; stroke-opacity:1; fill:none" points="
  1436.91,528.956 1577.4,528.956 
  "/>
<path clip-path="url(#clip010)" d="M1600.82 503.036 L1610.26 503.036 L1633.25 546.404 L1633.25 503.036 L1640.05 503.036 L1640.05 554.876 L1630.61 554.876 L1607.62 511.508 L1607.62 554.876 L1600.82 554.876 L1600.82 503.036 Z" fill="#000000" fill-rule="evenodd" fill-opacity="1" /><path clip-path="url(#clip010)" d="M1687 533.834 L1687 536.959 L1657.62 536.959 Q1658.04 543.556 1661.58 547.029 Q1665.16 550.466 1671.51 550.466 Q1675.19 550.466 1678.63 549.563 Q1682.1 548.66 1685.5 546.855 L1685.5 552.897 Q1682.07 554.355 1678.46 555.119 Q1674.85 555.883 1671.13 555.883 Q1661.82 555.883 1656.37 550.466 Q1650.96 545.049 1650.96 535.813 Q1650.96 526.265 1656.1 520.675 Q1661.27 515.05 1670.02 515.05 Q1677.87 515.05 1682.41 520.119 Q1687 525.154 1687 533.834 M1680.61 531.959 Q1680.54 526.716 1677.66 523.591 Q1674.81 520.466 1670.09 520.466 Q1664.74 520.466 1661.51 523.487 Q1658.32 526.508 1657.83 531.994 L1680.61 531.959 Z" fill="#000000" fill-rule="evenodd" fill-opacity="1" /><path clip-path="url(#clip010)" d="M1696.82 539.529 L1696.82 515.987 L1703.21 515.987 L1703.21 539.286 Q1703.21 544.806 1705.37 547.584 Q1707.52 550.327 1711.82 550.327 Q1717 550.327 1719.98 547.029 Q1723 543.73 1723 538.036 L1723 515.987 L1729.39 515.987 L1729.39 554.876 L1723 554.876 L1723 548.904 Q1720.68 552.445 1717.59 554.181 Q1714.53 555.883 1710.47 555.883 Q1703.77 555.883 1700.3 551.716 Q1696.82 547.549 1696.82 539.529 M1712.9 515.05 L1712.9 515.05 Z" fill="#000000" fill-rule="evenodd" fill-opacity="1" /><path clip-path="url(#clip010)" d="M1765.09 521.959 Q1764.01 521.334 1762.73 521.056 Q1761.48 520.744 1759.95 520.744 Q1754.53 520.744 1751.62 524.286 Q1748.73 527.793 1748.73 534.39 L1748.73 554.876 L1742.31 554.876 L1742.31 515.987 L1748.73 515.987 L1748.73 522.029 Q1750.75 518.487 1753.98 516.786 Q1757.21 515.05 1761.82 515.05 Q1762.48 515.05 1763.28 515.154 Q1764.08 515.223 1765.05 515.397 L1765.09 521.959 Z" fill="#000000" fill-rule="evenodd" fill-opacity="1" /><path clip-path="url(#clip010)" d="M1789.46 535.327 Q1781.72 535.327 1778.73 537.098 Q1775.75 538.869 1775.75 543.14 Q1775.75 546.542 1777.97 548.556 Q1780.23 550.535 1784.08 550.535 Q1789.39 550.535 1792.59 546.785 Q1795.82 543.001 1795.82 536.751 L1795.82 535.327 L1789.46 535.327 M1802.21 532.688 L1802.21 554.876 L1795.82 554.876 L1795.82 548.973 Q1793.63 552.515 1790.37 554.216 Q1787.1 555.883 1782.38 555.883 Q1776.41 555.883 1772.87 552.549 Q1769.36 549.181 1769.36 543.556 Q1769.36 536.994 1773.73 533.661 Q1778.14 530.327 1786.86 530.327 L1795.82 530.327 L1795.82 529.702 Q1795.82 525.293 1792.9 522.897 Q1790.02 520.466 1784.78 520.466 Q1781.44 520.466 1778.28 521.265 Q1775.12 522.063 1772.21 523.661 L1772.21 517.758 Q1775.71 516.404 1779.01 515.744 Q1782.31 515.05 1785.43 515.05 Q1793.87 515.05 1798.04 519.425 Q1802.21 523.799 1802.21 532.688 Z" fill="#000000" fill-rule="evenodd" fill-opacity="1" /><path clip-path="url(#clip010)" d="M1815.37 500.848 L1821.75 500.848 L1821.75 554.876 L1815.37 554.876 L1815.37 500.848 Z" fill="#000000" fill-rule="evenodd" fill-opacity="1" /><path clip-path="url(#clip010)" d="M1835.4 503.036 L1865.19 503.036 L1865.19 508.938 L1842.41 508.938 L1842.41 524.216 L1862.97 524.216 L1862.97 530.119 L1842.41 530.119 L1842.41 554.876 L1835.4 554.876 L1835.4 503.036 Z" fill="#000000" fill-rule="evenodd" fill-opacity="1" /><path clip-path="url(#clip010)" d="M1876.3 503.036 L1886.75 503.036 L1899.98 538.313 L1913.28 503.036 L1923.73 503.036 L1923.73 554.876 L1916.89 554.876 L1916.89 509.355 L1903.52 544.91 L1896.48 544.91 L1883.11 509.355 L1883.11 554.876 L1876.3 554.876 L1876.3 503.036 Z" fill="#000000" fill-rule="evenodd" fill-opacity="1" /><path clip-path="url(#clip010)" d="M1936.86 503.036 L1943.91 503.036 L1943.91 534.529 Q1943.91 542.862 1946.93 546.542 Q1949.95 550.188 1956.72 550.188 Q1963.45 550.188 1966.48 546.542 Q1969.5 542.862 1969.5 534.529 L1969.5 503.036 L1976.54 503.036 L1976.54 535.397 Q1976.54 545.535 1971.51 550.709 Q1966.51 555.883 1956.72 555.883 Q1946.89 555.883 1941.86 550.709 Q1936.86 545.535 1936.86 535.397 L1936.86 503.036 Z" fill="#000000" fill-rule="evenodd" fill-opacity="1" /><path clip-path="url(#clip010)" d="M2027.38 500.918 Q2022.73 508.904 2020.47 516.716 Q2018.21 524.529 2018.21 532.549 Q2018.21 540.57 2020.47 548.452 Q2022.76 556.299 2027.38 564.251 L2021.82 564.251 Q2016.61 556.091 2014.01 548.209 Q2011.44 540.327 2011.44 532.549 Q2011.44 524.806 2014.01 516.959 Q2016.58 509.112 2021.82 500.918 L2027.38 500.918 Z" fill="#000000" fill-rule="evenodd" fill-opacity="1" /><path clip-path="url(#clip010)" d="M2040.75 503.036 L2068.28 503.036 L2068.28 508.938 L2047.17 508.938 L2047.17 521.647 Q2048.7 521.126 2050.23 520.883 Q2051.75 520.605 2053.28 520.605 Q2061.96 520.605 2067.03 525.362 Q2072.1 530.119 2072.1 538.244 Q2072.1 546.612 2066.89 551.265 Q2061.68 555.883 2052.2 555.883 Q2048.94 555.883 2045.54 555.327 Q2042.17 554.772 2038.56 553.66 L2038.56 546.612 Q2041.68 548.313 2045.02 549.147 Q2048.35 549.98 2052.07 549.98 Q2058.07 549.98 2061.58 546.82 Q2065.09 543.66 2065.09 538.244 Q2065.09 532.827 2061.58 529.668 Q2058.07 526.508 2052.07 526.508 Q2049.25 526.508 2046.44 527.133 Q2043.66 527.758 2040.75 529.077 L2040.75 503.036 Z" fill="#000000" fill-rule="evenodd" fill-opacity="1" /><path clip-path="url(#clip010)" d="M2100.92 507.654 Q2095.5 507.654 2092.76 513.001 Q2090.05 518.313 2090.05 529.008 Q2090.05 539.667 2092.76 545.015 Q2095.5 550.327 2100.92 550.327 Q2106.37 550.327 2109.08 545.015 Q2111.82 539.667 2111.82 529.008 Q2111.82 518.313 2109.08 513.001 Q2106.37 507.654 2100.92 507.654 M2100.92 502.098 Q2109.63 502.098 2114.22 509.008 Q2118.84 515.883 2118.84 529.008 Q2118.84 542.098 2114.22 549.008 Q2109.63 555.883 2100.92 555.883 Q2092.2 555.883 2087.59 549.008 Q2083 542.098 2083 529.008 Q2083 515.883 2087.59 509.008 Q2092.2 502.098 2100.92 502.098 Z" fill="#000000" fill-rule="evenodd" fill-opacity="1" /><path clip-path="url(#clip010)" d="M2146.16 507.654 Q2140.75 507.654 2138 513.001 Q2135.29 518.313 2135.29 529.008 Q2135.29 539.667 2138 545.015 Q2140.75 550.327 2146.16 550.327 Q2151.61 550.327 2154.32 545.015 Q2157.06 539.667 2157.06 529.008 Q2157.06 518.313 2154.32 513.001 Q2151.61 507.654 2146.16 507.654 M2146.16 502.098 Q2154.88 502.098 2159.46 509.008 Q2164.08 515.883 2164.08 529.008 Q2164.08 542.098 2159.46 549.008 Q2154.88 555.883 2146.16 555.883 Q2137.45 555.883 2132.83 549.008 Q2128.25 542.098 2128.25 529.008 Q2128.25 515.883 2132.83 509.008 Q2137.45 502.098 2146.16 502.098 Z" fill="#000000" fill-rule="evenodd" fill-opacity="1" /><path clip-path="url(#clip010)" d="M2191.4 507.654 Q2185.99 507.654 2183.25 513.001 Q2180.54 518.313 2180.54 529.008 Q2180.54 539.667 2183.25 545.015 Q2185.99 550.327 2191.4 550.327 Q2196.86 550.327 2199.56 545.015 Q2202.31 539.667 2202.31 529.008 Q2202.31 518.313 2199.56 513.001 Q2196.86 507.654 2191.4 507.654 M2191.4 502.098 Q2200.12 502.098 2204.7 509.008 Q2209.32 515.883 2209.32 529.008 Q2209.32 542.098 2204.7 549.008 Q2200.12 555.883 2191.4 555.883 Q2182.69 555.883 2178.07 549.008 Q2173.49 542.098 2173.49 529.008 Q2173.49 515.883 2178.07 509.008 Q2182.69 502.098 2191.4 502.098 Z" fill="#000000" fill-rule="evenodd" fill-opacity="1" /><path clip-path="url(#clip010)" d="M2219.74 500.918 L2225.29 500.918 Q2230.5 509.112 2233.07 516.959 Q2235.68 524.806 2235.68 532.549 Q2235.68 540.327 2233.07 548.209 Q2230.5 556.091 2225.29 564.251 L2219.74 564.251 Q2224.36 556.299 2226.61 548.452 Q2228.9 540.57 2228.9 532.549 Q2228.9 524.529 2226.61 516.716 Q2224.36 508.904 2219.74 500.918 Z" fill="#000000" fill-rule="evenodd" fill-opacity="1" /></svg>
