<?xml version="1.0" encoding="utf-8"?>
<svg xmlns="http://www.w3.org/2000/svg" xmlns:xlink="http://www.w3.org/1999/xlink" width="600" height="400" viewBox="0 0 2400 1600">
<defs>
  <clipPath id="clip130">
    <rect x="0" y="0" width="2400" height="1600"/>
  </clipPath>
</defs>
<path clip-path="url(#clip130)" d="
M0 1600 L2400 1600 L2400 0 L0 0  Z
  " fill="#ffffff" fill-rule="evenodd" fill-opacity="1"/>
<defs>
  <clipPath id="clip131">
    <rect x="480" y="0" width="1681" height="1600"/>
  </clipPath>
</defs>
<path clip-path="url(#clip130)" d="
M303.746 1401.58 L2352.76 1401.58 L2352.76 123.472 L303.746 123.472  Z
  " fill="#ffffff" fill-rule="evenodd" fill-opacity="1"/>
<defs>
  <clipPath id="clip132">
    <rect x="303" y="123" width="2050" height="1279"/>
  </clipPath>
</defs>
<polyline clip-path="url(#clip132)" style="stroke:#000000; stroke-linecap:butt; stroke-linejoin:round; stroke-width:2; stroke-opacity:0.1; fill:none" points="
  361.737,1401.58 361.737,123.472 
  "/>
<polyline clip-path="url(#clip132)" style="stroke:#000000; stroke-linecap:butt; stroke-linejoin:round; stroke-width:2; stroke-opacity:0.1; fill:none" points="
  844.994,1401.58 844.994,123.472 
  "/>
<polyline clip-path="url(#clip132)" style="stroke:#000000; stroke-linecap:butt; stroke-linejoin:round; stroke-width:2; stroke-opacity:0.1; fill:none" points="
  1328.25,1401.58 1328.25,123.472 
  "/>
<polyline clip-path="url(#clip132)" style="stroke:#000000; stroke-linecap:butt; stroke-linejoin:round; stroke-width:2; stroke-opacity:0.1; fill:none" points="
  1811.51,1401.58 1811.51,123.472 
  "/>
<polyline clip-path="url(#clip132)" style="stroke:#000000; stroke-linecap:butt; stroke-linejoin:round; stroke-width:2; stroke-opacity:0.1; fill:none" points="
  2294.77,1401.58 2294.77,123.472 
  "/>
<polyline clip-path="url(#clip130)" style="stroke:#000000; stroke-linecap:butt; stroke-linejoin:round; stroke-width:4; stroke-opacity:1; fill:none" points="
  303.746,1401.58 2352.76,1401.58 
  "/>
<polyline clip-path="url(#clip130)" style="stroke:#000000; stroke-linecap:butt; stroke-linejoin:round; stroke-width:4; stroke-opacity:1; fill:none" points="
  361.737,1401.58 361.737,1386.24 
  "/>
<polyline clip-path="url(#clip130)" style="stroke:#000000; stroke-linecap:butt; stroke-linejoin:round; stroke-width:4; stroke-opacity:1; fill:none" points="
  844.994,1401.58 844.994,1386.24 
  "/>
<polyline clip-path="url(#clip130)" style="stroke:#000000; stroke-linecap:butt; stroke-linejoin:round; stroke-width:4; stroke-opacity:1; fill:none" points="
  1328.25,1401.58 1328.25,1386.24 
  "/>
<polyline clip-path="url(#clip130)" style="stroke:#000000; stroke-linecap:butt; stroke-linejoin:round; stroke-width:4; stroke-opacity:1; fill:none" points="
  1811.51,1401.58 1811.51,1386.24 
  "/>
<polyline clip-path="url(#clip130)" style="stroke:#000000; stroke-linecap:butt; stroke-linejoin:round; stroke-width:4; stroke-opacity:1; fill:none" points="
  2294.77,1401.58 2294.77,1386.24 
  "/>
<path clip-path="url(#clip130)" d="M361.737 1435.77 Q356.32 1435.77 353.577 1441.11 Q350.869 1446.43 350.869 1457.12 Q350.869 1467.78 353.577 1473.13 Q356.32 1478.44 361.737 1478.44 Q367.188 1478.44 369.897 1473.13 Q372.64 1467.78 372.64 1457.12 Q372.64 1446.43 369.897 1441.11 Q367.188 1435.77 361.737 1435.77 M361.737 1430.21 Q370.452 1430.21 375.035 1437.12 Q379.653 1443.99 379.653 1457.12 Q379.653 1470.21 375.035 1477.12 Q370.452 1483.99 361.737 1483.99 Q353.022 1483.99 348.404 1477.12 Q343.82 1470.21 343.82 1457.12 Q343.82 1443.99 348.404 1437.12 Q353.022 1430.21 361.737 1430.21 Z" fill="#000000" fill-rule="evenodd" fill-opacity="1" /><path clip-path="url(#clip130)" d="M830.567 1477.09 L842.025 1477.09 L842.025 1437.54 L829.56 1440.04 L829.56 1433.65 L841.956 1431.15 L848.97 1431.15 L848.97 1477.09 L860.428 1477.09 L860.428 1482.99 L830.567 1482.99 L830.567 1477.09 Z" fill="#000000" fill-rule="evenodd" fill-opacity="1" /><path clip-path="url(#clip130)" d="M1320.23 1477.09 L1344.71 1477.09 L1344.71 1482.99 L1311.79 1482.99 L1311.79 1477.09 Q1315.79 1472.95 1322.66 1466.01 Q1329.57 1459.03 1331.34 1457.02 Q1334.71 1453.23 1336.03 1450.63 Q1337.38 1447.99 1337.38 1445.45 Q1337.38 1441.32 1334.47 1438.72 Q1331.58 1436.11 1326.93 1436.11 Q1323.63 1436.11 1319.95 1437.26 Q1316.31 1438.4 1312.14 1440.73 L1312.14 1433.65 Q1316.38 1431.95 1320.06 1431.08 Q1323.74 1430.21 1326.79 1430.21 Q1334.85 1430.21 1339.64 1434.24 Q1344.43 1438.27 1344.43 1445 Q1344.43 1448.2 1343.22 1451.08 Q1342.04 1453.93 1338.88 1457.81 Q1338.01 1458.82 1333.36 1463.65 Q1328.7 1468.44 1320.23 1477.09 Z" fill="#000000" fill-rule="evenodd" fill-opacity="1" /><path clip-path="url(#clip130)" d="M1817.88 1455.04 Q1822.91 1456.11 1825.73 1459.52 Q1828.57 1462.92 1828.57 1467.92 Q1828.57 1475.59 1823.3 1479.79 Q1818.02 1483.99 1808.3 1483.99 Q1805.03 1483.99 1801.56 1483.34 Q1798.12 1482.71 1794.44 1481.43 L1794.44 1474.65 Q1797.36 1476.36 1800.83 1477.22 Q1804.3 1478.09 1808.09 1478.09 Q1814.69 1478.09 1818.12 1475.49 Q1821.59 1472.88 1821.59 1467.92 Q1821.59 1463.34 1818.37 1460.77 Q1815.17 1458.16 1809.44 1458.16 L1803.4 1458.16 L1803.4 1452.4 L1809.72 1452.4 Q1814.89 1452.4 1817.64 1450.35 Q1820.38 1448.27 1820.38 1444.38 Q1820.38 1440.38 1817.53 1438.27 Q1814.72 1436.11 1809.44 1436.11 Q1806.56 1436.11 1803.26 1436.74 Q1799.96 1437.36 1796 1438.68 L1796 1432.43 Q1800 1431.32 1803.47 1430.77 Q1806.98 1430.21 1810.07 1430.21 Q1818.05 1430.21 1822.71 1433.86 Q1827.36 1437.47 1827.36 1443.65 Q1827.36 1447.95 1824.89 1450.94 Q1822.43 1453.89 1817.88 1455.04 Z" fill="#000000" fill-rule="evenodd" fill-opacity="1" /><path clip-path="url(#clip130)" d="M2299.28 1437.26 L2281.57 1464.93 L2299.28 1464.93 L2299.28 1437.26 M2297.44 1431.15 L2306.26 1431.15 L2306.26 1464.93 L2313.65 1464.93 L2313.65 1470.77 L2306.26 1470.77 L2306.26 1482.99 L2299.28 1482.99 L2299.28 1470.77 L2275.88 1470.77 L2275.88 1463.99 L2297.44 1431.15 Z" fill="#000000" fill-rule="evenodd" fill-opacity="1" /><path clip-path="url(#clip130)" d="M1271.86 1527.62 L1271.86 1538.66 L1285.02 1538.66 L1285.02 1543.62 L1271.86 1543.62 L1271.86 1564.74 Q1271.86 1569.49 1273.15 1570.85 Q1274.47 1572.2 1278.46 1572.2 L1285.02 1572.2 L1285.02 1577.55 L1278.46 1577.55 Q1271.06 1577.55 1268.25 1574.8 Q1265.44 1572.03 1265.44 1564.74 L1265.44 1543.62 L1260.75 1543.62 L1260.75 1538.66 L1265.44 1538.66 L1265.44 1527.62 L1271.86 1527.62 Z" fill="#000000" fill-rule="evenodd" fill-opacity="1" /><path clip-path="url(#clip130)" d="M1315.44 1523.52 L1330.16 1523.52 L1330.16 1528.49 L1321.83 1528.49 L1321.83 1581.96 L1330.16 1581.96 L1330.16 1586.92 L1315.44 1586.92 L1315.44 1523.52 Z" fill="#000000" fill-rule="evenodd" fill-opacity="1" /><path clip-path="url(#clip130)" d="M1368.56 1539.8 L1368.56 1545.85 Q1365.85 1544.46 1362.94 1543.76 Q1360.02 1543.07 1356.9 1543.07 Q1352.14 1543.07 1349.74 1544.53 Q1347.38 1545.99 1347.38 1548.9 Q1347.38 1551.12 1349.08 1552.41 Q1350.79 1553.66 1355.92 1554.8 L1358.11 1555.29 Q1364.92 1556.75 1367.76 1559.42 Q1370.65 1562.06 1370.65 1566.82 Q1370.65 1572.24 1366.34 1575.4 Q1362.07 1578.55 1354.57 1578.55 Q1351.45 1578.55 1348.04 1577.93 Q1344.67 1577.34 1340.92 1576.12 L1340.92 1569.53 Q1344.47 1571.37 1347.9 1572.3 Q1351.34 1573.21 1354.71 1573.21 Q1359.22 1573.21 1361.65 1571.68 Q1364.08 1570.12 1364.08 1567.3 Q1364.08 1564.7 1362.31 1563.31 Q1360.58 1561.92 1354.64 1560.64 L1352.42 1560.12 Q1346.48 1558.87 1343.84 1556.3 Q1341.2 1553.69 1341.2 1549.18 Q1341.2 1543.69 1345.09 1540.71 Q1348.98 1537.72 1356.13 1537.72 Q1359.67 1537.72 1362.8 1538.24 Q1365.92 1538.76 1368.56 1539.8 Z" fill="#000000" fill-rule="evenodd" fill-opacity="1" /><path clip-path="url(#clip130)" d="M1395.75 1523.52 L1395.75 1586.92 L1381.03 1586.92 L1381.03 1581.96 L1389.33 1581.96 L1389.33 1528.49 L1381.03 1528.49 L1381.03 1523.52 L1395.75 1523.52 Z" fill="#000000" fill-rule="evenodd" fill-opacity="1" /><polyline clip-path="url(#clip132)" style="stroke:#000000; stroke-linecap:butt; stroke-linejoin:round; stroke-width:2; stroke-opacity:0.1; fill:none" points="
  303.746,1141.28 2352.76,1141.28 
  "/>
<polyline clip-path="url(#clip132)" style="stroke:#000000; stroke-linecap:butt; stroke-linejoin:round; stroke-width:2; stroke-opacity:0.1; fill:none" points="
  303.746,846.792 2352.76,846.792 
  "/>
<polyline clip-path="url(#clip132)" style="stroke:#000000; stroke-linecap:butt; stroke-linejoin:round; stroke-width:2; stroke-opacity:0.1; fill:none" points="
  303.746,552.301 2352.76,552.301 
  "/>
<polyline clip-path="url(#clip132)" style="stroke:#000000; stroke-linecap:butt; stroke-linejoin:round; stroke-width:2; stroke-opacity:0.1; fill:none" points="
  303.746,257.809 2352.76,257.809 
  "/>
<polyline clip-path="url(#clip130)" style="stroke:#000000; stroke-linecap:butt; stroke-linejoin:round; stroke-width:4; stroke-opacity:1; fill:none" points="
  303.746,1401.58 303.746,123.472 
  "/>
<polyline clip-path="url(#clip130)" style="stroke:#000000; stroke-linecap:butt; stroke-linejoin:round; stroke-width:4; stroke-opacity:1; fill:none" points="
  303.746,1141.28 328.334,1141.28 
  "/>
<polyline clip-path="url(#clip130)" style="stroke:#000000; stroke-linecap:butt; stroke-linejoin:round; stroke-width:4; stroke-opacity:1; fill:none" points="
  303.746,846.792 328.334,846.792 
  "/>
<polyline clip-path="url(#clip130)" style="stroke:#000000; stroke-linecap:butt; stroke-linejoin:round; stroke-width:4; stroke-opacity:1; fill:none" points="
  303.746,552.301 328.334,552.301 
  "/>
<polyline clip-path="url(#clip130)" style="stroke:#000000; stroke-linecap:butt; stroke-linejoin:round; stroke-width:4; stroke-opacity:1; fill:none" points="
  303.746,257.809 328.334,257.809 
  "/>
<path clip-path="url(#clip130)" d="M136.74 1119.98 Q131.323 1119.98 128.58 1125.33 Q125.872 1130.64 125.872 1141.34 Q125.872 1152 128.58 1157.34 Q131.323 1162.66 136.74 1162.66 Q142.191 1162.66 144.899 1157.34 Q147.643 1152 147.643 1141.34 Q147.643 1130.64 144.899 1125.33 Q142.191 1119.98 136.74 1119.98 M136.74 1114.43 Q145.455 1114.43 150.038 1121.34 Q154.656 1128.21 154.656 1141.34 Q154.656 1154.43 150.038 1161.34 Q145.455 1168.21 136.74 1168.21 Q128.025 1168.21 123.407 1161.34 Q118.823 1154.43 118.823 1141.34 Q118.823 1128.21 123.407 1121.34 Q128.025 1114.43 136.74 1114.43 Z" fill="#000000" fill-rule="evenodd" fill-opacity="1" /><path clip-path="url(#clip130)" d="M166.983 1158.38 L174.309 1158.38 L174.309 1167.2 L166.983 1167.2 L166.983 1158.38 Z" fill="#000000" fill-rule="evenodd" fill-opacity="1" /><path clip-path="url(#clip130)" d="M204.587 1119.98 Q199.17 1119.98 196.427 1125.33 Q193.719 1130.64 193.719 1141.34 Q193.719 1152 196.427 1157.34 Q199.17 1162.66 204.587 1162.66 Q210.038 1162.66 212.746 1157.34 Q215.489 1152 215.489 1141.34 Q215.489 1130.64 212.746 1125.33 Q210.038 1119.98 204.587 1119.98 M204.587 1114.43 Q213.302 1114.43 217.885 1121.34 Q222.503 1128.21 222.503 1141.34 Q222.503 1154.43 217.885 1161.34 Q213.302 1168.21 204.587 1168.21 Q195.871 1168.21 191.253 1161.34 Q186.67 1154.43 186.67 1141.34 Q186.67 1128.21 191.253 1121.34 Q195.871 1114.43 204.587 1114.43 Z" fill="#000000" fill-rule="evenodd" fill-opacity="1" /><path clip-path="url(#clip130)" d="M249.829 1119.98 Q244.413 1119.98 241.67 1125.33 Q238.961 1130.64 238.961 1141.34 Q238.961 1152 241.67 1157.34 Q244.413 1162.66 249.829 1162.66 Q255.281 1162.66 257.989 1157.34 Q260.732 1152 260.732 1141.34 Q260.732 1130.64 257.989 1125.33 Q255.281 1119.98 249.829 1119.98 M249.829 1114.43 Q258.545 1114.43 263.128 1121.34 Q267.746 1128.21 267.746 1141.34 Q267.746 1154.43 263.128 1161.34 Q258.545 1168.21 249.829 1168.21 Q241.114 1168.21 236.496 1161.34 Q231.913 1154.43 231.913 1141.34 Q231.913 1128.21 236.496 1121.34 Q241.114 1114.43 249.829 1114.43 Z" fill="#000000" fill-rule="evenodd" fill-opacity="1" /><path clip-path="url(#clip130)" d="M137.712 825.49 Q132.295 825.49 129.552 830.838 Q126.844 836.15 126.844 846.844 Q126.844 857.504 129.552 862.851 Q132.295 868.164 137.712 868.164 Q143.163 868.164 145.872 862.851 Q148.615 857.504 148.615 846.844 Q148.615 836.15 145.872 830.838 Q143.163 825.49 137.712 825.49 M137.712 819.935 Q146.427 819.935 151.011 826.844 Q155.629 833.719 155.629 846.844 Q155.629 859.935 151.011 866.844 Q146.427 873.719 137.712 873.719 Q128.997 873.719 124.379 866.844 Q119.795 859.935 119.795 846.844 Q119.795 833.719 124.379 826.844 Q128.997 819.935 137.712 819.935 Z" fill="#000000" fill-rule="evenodd" fill-opacity="1" /><path clip-path="url(#clip130)" d="M167.955 863.893 L175.281 863.893 L175.281 872.712 L167.955 872.712 L167.955 863.893 Z" fill="#000000" fill-rule="evenodd" fill-opacity="1" /><path clip-path="url(#clip130)" d="M205.559 825.49 Q200.142 825.49 197.399 830.838 Q194.691 836.15 194.691 846.844 Q194.691 857.504 197.399 862.851 Q200.142 868.164 205.559 868.164 Q211.01 868.164 213.719 862.851 Q216.462 857.504 216.462 846.844 Q216.462 836.15 213.719 830.838 Q211.01 825.49 205.559 825.49 M205.559 819.935 Q214.274 819.935 218.857 826.844 Q223.475 833.719 223.475 846.844 Q223.475 859.935 218.857 866.844 Q214.274 873.719 205.559 873.719 Q196.844 873.719 192.226 866.844 Q187.642 859.935 187.642 846.844 Q187.642 833.719 192.226 826.844 Q196.844 819.935 205.559 819.935 Z" fill="#000000" fill-rule="evenodd" fill-opacity="1" /><path clip-path="url(#clip130)" d="M257.052 844.761 Q262.086 845.837 264.899 849.24 Q267.746 852.643 267.746 857.643 Q267.746 865.317 262.468 869.518 Q257.191 873.719 247.468 873.719 Q244.204 873.719 240.732 873.06 Q237.295 872.435 233.614 871.15 L233.614 864.379 Q236.531 866.08 240.003 866.948 Q243.475 867.816 247.26 867.816 Q253.857 867.816 257.295 865.212 Q260.767 862.608 260.767 857.643 Q260.767 853.06 257.538 850.49 Q254.343 847.886 248.614 847.886 L242.573 847.886 L242.573 842.122 L248.892 842.122 Q254.066 842.122 256.809 840.074 Q259.552 837.99 259.552 834.101 Q259.552 830.108 256.704 827.99 Q253.892 825.838 248.614 825.838 Q245.732 825.838 242.434 826.463 Q239.135 827.088 235.177 828.407 L235.177 822.157 Q239.17 821.046 242.642 820.49 Q246.149 819.935 249.239 819.935 Q257.225 819.935 261.878 823.581 Q266.531 827.192 266.531 833.372 Q266.531 837.678 264.065 840.664 Q261.6 843.615 257.052 844.761 Z" fill="#000000" fill-rule="evenodd" fill-opacity="1" /><path clip-path="url(#clip130)" d="M136.497 530.999 Q131.08 530.999 128.337 536.346 Q125.629 541.658 125.629 552.353 Q125.629 563.012 128.337 568.36 Q131.08 573.672 136.497 573.672 Q141.948 573.672 144.656 568.36 Q147.399 563.012 147.399 552.353 Q147.399 541.658 144.656 536.346 Q141.948 530.999 136.497 530.999 M136.497 525.443 Q145.212 525.443 149.795 532.353 Q154.413 539.228 154.413 552.353 Q154.413 565.443 149.795 572.353 Q145.212 579.228 136.497 579.228 Q127.781 579.228 123.163 572.353 Q118.58 565.443 118.58 552.353 Q118.58 539.228 123.163 532.353 Q127.781 525.443 136.497 525.443 Z" fill="#000000" fill-rule="evenodd" fill-opacity="1" /><path clip-path="url(#clip130)" d="M166.74 569.401 L174.066 569.401 L174.066 578.221 L166.74 578.221 L166.74 569.401 Z" fill="#000000" fill-rule="evenodd" fill-opacity="1" /><path clip-path="url(#clip130)" d="M204.344 530.999 Q198.927 530.999 196.184 536.346 Q193.476 541.658 193.476 552.353 Q193.476 563.012 196.184 568.36 Q198.927 573.672 204.344 573.672 Q209.795 573.672 212.503 568.36 Q215.246 563.012 215.246 552.353 Q215.246 541.658 212.503 536.346 Q209.795 530.999 204.344 530.999 M204.344 525.443 Q213.059 525.443 217.642 532.353 Q222.26 539.228 222.26 552.353 Q222.26 565.443 217.642 572.353 Q213.059 579.228 204.344 579.228 Q195.628 579.228 191.01 572.353 Q186.427 565.443 186.427 552.353 Q186.427 539.228 191.01 532.353 Q195.628 525.443 204.344 525.443 Z" fill="#000000" fill-rule="evenodd" fill-opacity="1" /><path clip-path="url(#clip130)" d="M250.454 549.505 Q245.732 549.505 242.954 552.735 Q240.211 555.964 240.211 561.589 Q240.211 567.179 242.954 570.443 Q245.732 573.672 250.454 573.672 Q255.177 573.672 257.92 570.443 Q260.697 567.179 260.697 561.589 Q260.697 555.964 257.92 552.735 Q255.177 549.505 250.454 549.505 M264.378 527.526 L264.378 533.915 Q261.739 532.665 259.031 532.006 Q256.357 531.346 253.718 531.346 Q246.774 531.346 243.093 536.033 Q239.448 540.721 238.927 550.2 Q240.975 547.179 244.066 545.582 Q247.156 543.95 250.871 543.95 Q258.684 543.95 263.197 548.707 Q267.746 553.429 267.746 561.589 Q267.746 569.575 263.024 574.401 Q258.302 579.228 250.454 579.228 Q241.461 579.228 236.705 572.353 Q231.948 565.443 231.948 552.353 Q231.948 540.061 237.781 532.769 Q243.614 525.443 253.441 525.443 Q256.079 525.443 258.753 525.964 Q261.461 526.485 264.378 527.526 Z" fill="#000000" fill-rule="evenodd" fill-opacity="1" /><path clip-path="url(#clip130)" d="M137.018 236.507 Q131.601 236.507 128.858 241.854 Q126.15 247.167 126.15 257.861 Q126.15 268.521 128.858 273.868 Q131.601 279.18 137.018 279.18 Q142.469 279.18 145.177 273.868 Q147.92 268.521 147.92 257.861 Q147.92 247.167 145.177 241.854 Q142.469 236.507 137.018 236.507 M137.018 230.951 Q145.733 230.951 150.316 237.861 Q154.934 244.736 154.934 257.861 Q154.934 270.951 150.316 277.861 Q145.733 284.736 137.018 284.736 Q128.302 284.736 123.684 277.861 Q119.101 270.951 119.101 257.861 Q119.101 244.736 123.684 237.861 Q128.302 230.951 137.018 230.951 Z" fill="#000000" fill-rule="evenodd" fill-opacity="1" /><path clip-path="url(#clip130)" d="M167.26 274.909 L174.587 274.909 L174.587 283.729 L167.26 283.729 L167.26 274.909 Z" fill="#000000" fill-rule="evenodd" fill-opacity="1" /><path clip-path="url(#clip130)" d="M204.864 236.507 Q199.448 236.507 196.705 241.854 Q193.996 247.167 193.996 257.861 Q193.996 268.521 196.705 273.868 Q199.448 279.18 204.864 279.18 Q210.316 279.18 213.024 273.868 Q215.767 268.521 215.767 257.861 Q215.767 247.167 213.024 241.854 Q210.316 236.507 204.864 236.507 M204.864 230.951 Q213.58 230.951 218.163 237.861 Q222.781 244.736 222.781 257.861 Q222.781 270.951 218.163 277.861 Q213.58 284.736 204.864 284.736 Q196.149 284.736 191.531 277.861 Q186.948 270.951 186.948 257.861 Q186.948 244.736 191.531 237.861 Q196.149 230.951 204.864 230.951 Z" fill="#000000" fill-rule="evenodd" fill-opacity="1" /><path clip-path="url(#clip130)" d="M235.316 282.653 L235.316 276.264 Q237.955 277.514 240.663 278.173 Q243.371 278.833 245.975 278.833 Q252.92 278.833 256.566 274.18 Q260.246 269.493 260.767 259.979 Q258.753 262.965 255.663 264.562 Q252.572 266.16 248.823 266.16 Q241.045 266.16 236.496 261.472 Q231.982 256.75 231.982 248.59 Q231.982 240.604 236.705 235.778 Q241.427 230.951 249.274 230.951 Q258.267 230.951 262.989 237.861 Q267.746 244.736 267.746 257.861 Q267.746 270.118 261.913 277.444 Q256.114 284.736 246.288 284.736 Q243.649 284.736 240.941 284.215 Q238.232 283.694 235.316 282.653 M249.274 260.673 Q253.996 260.673 256.739 257.444 Q259.517 254.215 259.517 248.59 Q259.517 243 256.739 239.771 Q253.996 236.507 249.274 236.507 Q244.552 236.507 241.774 239.771 Q239.031 243 239.031 248.59 Q239.031 254.215 241.774 257.444 Q244.552 260.673 249.274 260.673 Z" fill="#000000" fill-rule="evenodd" fill-opacity="1" /><path clip-path="url(#clip130)" d="M34.0422 1042.44 L13.0007 1042.44 L13.0007 1036.05 L67.0282 1036.05 L67.0282 1042.44 L61.1949 1042.44 Q64.6671 1044.45 66.3684 1047.54 Q68.0351 1050.6 68.0351 1054.9 Q68.0351 1061.95 62.4101 1066.4 Q56.7852 1070.81 47.6185 1070.81 Q38.4519 1070.81 32.827 1066.4 Q27.202 1061.95 27.202 1054.9 Q27.202 1050.6 28.9034 1047.54 Q30.57 1044.45 34.0422 1042.44 M47.6185 1064.21 Q54.6671 1064.21 58.6949 1061.33 Q62.6879 1058.41 62.6879 1053.34 Q62.6879 1048.27 58.6949 1045.35 Q54.6671 1042.44 47.6185 1042.44 Q40.57 1042.44 36.5769 1045.35 Q32.5492 1048.27 32.5492 1053.34 Q32.5492 1058.41 36.5769 1061.33 Q40.57 1064.21 47.6185 1064.21 Z" fill="#000000" fill-rule="evenodd" fill-opacity="1" /><path clip-path="url(#clip130)" d="M28.1395 1022.89 L28.1395 1016.5 L67.0282 1016.5 L67.0282 1022.89 L28.1395 1022.89 M13.0007 1022.89 L13.0007 1016.5 L21.0909 1016.5 L21.0909 1022.89 L13.0007 1022.89 Z" fill="#000000" fill-rule="evenodd" fill-opacity="1" /><path clip-path="url(#clip130)" d="M29.2853 978.341 L35.3269 978.341 Q33.9381 981.049 33.2436 983.966 Q32.5492 986.882 32.5492 990.007 Q32.5492 994.764 34.0075 997.16 Q35.4658 999.521 38.3825 999.521 Q40.6047 999.521 41.8894 997.82 Q43.1394 996.118 44.2852 990.98 L44.7713 988.792 Q46.2297 981.987 48.9033 979.139 Q51.5421 976.257 56.299 976.257 Q61.7157 976.257 64.8754 980.563 Q68.0351 984.834 68.0351 992.334 Q68.0351 995.459 67.4101 998.862 Q66.8198 1002.23 65.6046 1005.98 L59.0074 1005.98 Q60.8476 1002.44 61.7851 999 Q62.6879 995.563 62.6879 992.195 Q62.6879 987.681 61.1601 985.25 Q59.5976 982.82 56.7852 982.82 Q54.181 982.82 52.7921 984.591 Q51.4032 986.327 50.1185 992.264 L49.5977 994.487 Q48.3477 1000.42 45.7783 1003.06 Q43.1741 1005.7 38.6603 1005.7 Q33.1742 1005.7 30.1881 1001.81 Q27.202 997.924 27.202 990.771 Q27.202 987.23 27.7228 984.105 Q28.2436 980.98 29.2853 978.341 Z" fill="#000000" fill-rule="evenodd" fill-opacity="1" /><path clip-path="url(#clip130)" d="M61.1949 959.903 L81.8197 959.903 L81.8197 966.327 L28.1395 966.327 L28.1395 959.903 L34.0422 959.903 Q30.57 957.89 28.9034 954.834 Q27.202 951.744 27.202 947.473 Q27.202 940.39 32.827 935.98 Q38.4519 931.535 47.6185 931.535 Q56.7852 931.535 62.4101 935.98 Q68.0351 940.39 68.0351 947.473 Q68.0351 951.744 66.3684 954.834 Q64.6671 957.89 61.1949 959.903 M47.6185 938.167 Q40.57 938.167 36.5769 941.084 Q32.5492 943.966 32.5492 949.035 Q32.5492 954.105 36.5769 957.021 Q40.57 959.903 47.6185 959.903 Q54.6671 959.903 58.6949 957.021 Q62.6879 954.105 62.6879 949.035 Q62.6879 943.966 58.6949 941.084 Q54.6671 938.167 47.6185 938.167 Z" fill="#000000" fill-rule="evenodd" fill-opacity="1" /><path clip-path="url(#clip130)" d="M13.0007 920.945 L13.0007 914.556 L67.0282 914.556 L67.0282 920.945 L13.0007 920.945 Z" fill="#000000" fill-rule="evenodd" fill-opacity="1" /><path clip-path="url(#clip130)" d="M47.4797 883.515 Q47.4797 891.258 49.2505 894.244 Q51.0213 897.23 55.2921 897.23 Q58.6949 897.23 60.7087 895.008 Q62.6879 892.751 62.6879 888.897 Q62.6879 883.584 58.9379 880.39 Q55.1532 877.161 48.9033 877.161 L47.4797 877.161 L47.4797 883.515 M44.8408 870.772 L67.0282 870.772 L67.0282 877.161 L61.1254 877.161 Q64.6671 879.348 66.3684 882.612 Q68.0351 885.876 68.0351 890.598 Q68.0351 896.57 64.7018 900.112 Q61.3337 903.619 55.7088 903.619 Q49.1463 903.619 45.813 899.244 Q42.4797 894.834 42.4797 886.119 L42.4797 877.161 L41.8547 877.161 Q37.445 877.161 35.0492 880.077 Q32.6186 882.959 32.6186 888.202 Q32.6186 891.536 33.4172 894.695 Q34.2158 897.855 35.813 900.772 L29.9103 900.772 Q28.5561 897.265 27.8964 893.966 Q27.202 890.668 27.202 887.543 Q27.202 879.105 31.577 874.939 Q35.9519 870.772 44.8408 870.772 Z" fill="#000000" fill-rule="evenodd" fill-opacity="1" /><path clip-path="url(#clip130)" d="M29.6325 829.626 L35.6047 829.626 Q34.1117 832.335 33.3825 835.078 Q32.6186 837.786 32.6186 840.564 Q32.6186 846.779 36.5769 850.216 Q40.5005 853.654 47.6185 853.654 Q54.7366 853.654 58.6949 850.216 Q62.6185 846.779 62.6185 840.564 Q62.6185 837.786 61.8893 835.078 Q61.1254 832.335 59.6324 829.626 L65.5351 829.626 Q66.7851 832.3 67.4101 835.182 Q68.0351 838.029 68.0351 841.258 Q68.0351 850.043 62.5143 855.216 Q56.9935 860.39 47.6185 860.39 Q38.1047 860.39 32.6533 855.182 Q27.202 849.939 27.202 840.842 Q27.202 837.89 27.827 835.078 Q28.4173 832.265 29.6325 829.626 Z" fill="#000000" fill-rule="evenodd" fill-opacity="1" /><path clip-path="url(#clip130)" d="M45.9866 785.252 L49.1116 785.252 L49.1116 814.626 Q55.7088 814.21 59.181 810.668 Q62.6185 807.092 62.6185 800.738 Q62.6185 797.057 61.7157 793.62 Q60.8129 790.147 59.0074 786.745 L65.049 786.745 Q66.5073 790.182 67.2712 793.793 Q68.0351 797.404 68.0351 801.12 Q68.0351 810.425 62.6185 815.876 Q57.2018 821.293 47.9658 821.293 Q38.4172 821.293 32.827 816.154 Q27.202 810.981 27.202 802.231 Q27.202 794.383 32.2714 789.835 Q37.3061 785.252 45.9866 785.252 M44.1116 791.64 Q38.8686 791.71 35.7436 794.592 Q32.6186 797.439 32.6186 802.161 Q32.6186 807.508 35.6394 810.738 Q38.6603 813.932 44.1463 814.418 L44.1116 791.64 Z" fill="#000000" fill-rule="evenodd" fill-opacity="1" /><path clip-path="url(#clip130)" d="M35.6047 744.488 Q31.2992 742.092 29.2506 738.759 Q27.202 735.425 27.202 730.912 Q27.202 724.835 31.4728 721.537 Q35.7089 718.238 43.5561 718.238 L67.0282 718.238 L67.0282 724.662 L43.7644 724.662 Q38.1741 724.662 35.4658 726.641 Q32.7575 728.62 32.7575 732.682 Q32.7575 737.648 36.0561 740.53 Q39.3547 743.412 45.0491 743.412 L67.0282 743.412 L67.0282 749.835 L43.7644 749.835 Q38.1394 749.835 35.4658 751.814 Q32.7575 753.793 32.7575 757.925 Q32.7575 762.821 36.0908 765.703 Q39.3894 768.585 45.0491 768.585 L67.0282 768.585 L67.0282 775.009 L28.1395 775.009 L28.1395 768.585 L34.1811 768.585 Q30.6047 766.397 28.9034 763.342 Q27.202 760.286 27.202 756.085 Q27.202 751.849 29.3547 748.898 Q31.5075 745.911 35.6047 744.488 Z" fill="#000000" fill-rule="evenodd" fill-opacity="1" /><path clip-path="url(#clip130)" d="M45.9866 672.231 L49.1116 672.231 L49.1116 701.606 Q55.7088 701.19 59.181 697.648 Q62.6185 694.071 62.6185 687.717 Q62.6185 684.037 61.7157 680.599 Q60.8129 677.127 59.0074 673.724 L65.049 673.724 Q66.5073 677.162 67.2712 680.773 Q68.0351 684.384 68.0351 688.099 Q68.0351 697.405 62.6185 702.856 Q57.2018 708.273 47.9658 708.273 Q38.4172 708.273 32.827 703.134 Q27.202 697.96 27.202 689.21 Q27.202 681.363 32.2714 676.815 Q37.3061 672.231 45.9866 672.231 M44.1116 678.62 Q38.8686 678.69 35.7436 681.572 Q32.6186 684.419 32.6186 689.141 Q32.6186 694.488 35.6394 697.717 Q38.6603 700.912 44.1463 701.398 L44.1116 678.62 Z" fill="#000000" fill-rule="evenodd" fill-opacity="1" /><path clip-path="url(#clip130)" d="M43.5561 629.419 L67.0282 629.419 L67.0282 635.808 L43.7644 635.808 Q38.2436 635.808 35.5005 637.961 Q32.7575 640.113 32.7575 644.419 Q32.7575 649.593 36.0561 652.579 Q39.3547 655.565 45.0491 655.565 L67.0282 655.565 L67.0282 661.988 L28.1395 661.988 L28.1395 655.565 L34.1811 655.565 Q30.6742 653.273 28.9381 650.183 Q27.202 647.058 27.202 642.995 Q27.202 636.294 31.3686 632.857 Q35.5005 629.419 43.5561 629.419 Z" fill="#000000" fill-rule="evenodd" fill-opacity="1" /><path clip-path="url(#clip130)" d="M17.0979 610.357 L28.1395 610.357 L28.1395 597.197 L33.1047 597.197 L33.1047 610.357 L54.2157 610.357 Q58.9726 610.357 60.3268 609.072 Q61.681 607.753 61.681 603.759 L61.681 597.197 L67.0282 597.197 L67.0282 603.759 Q67.0282 611.155 64.2851 613.968 Q61.5074 616.78 54.2157 616.78 L33.1047 616.78 L33.1047 621.468 L28.1395 621.468 L28.1395 616.78 L17.0979 616.78 L17.0979 610.357 Z" fill="#000000" fill-rule="evenodd" fill-opacity="1" /><path clip-path="url(#clip130)" d="M13.0007 566.781 L13.0007 552.058 L17.9659 552.058 L17.9659 560.392 L71.4379 560.392 L71.4379 552.058 L76.4031 552.058 L76.4031 566.781 L13.0007 566.781 Z" fill="#000000" fill-rule="evenodd" fill-opacity="1" /><path clip-path="url(#clip130)" d="M35.6047 508.17 Q31.2992 505.774 29.2506 502.441 Q27.202 499.107 27.202 494.593 Q27.202 488.517 31.4728 485.218 Q35.7089 481.92 43.5561 481.92 L67.0282 481.92 L67.0282 488.343 L43.7644 488.343 Q38.1741 488.343 35.4658 490.323 Q32.7575 492.302 32.7575 496.364 Q32.7575 501.329 36.0561 504.211 Q39.3547 507.093 45.0491 507.093 L67.0282 507.093 L67.0282 513.517 L43.7644 513.517 Q38.1394 513.517 35.4658 515.496 Q32.7575 517.475 32.7575 521.607 Q32.7575 526.503 36.0908 529.385 Q39.3894 532.267 45.0491 532.267 L67.0282 532.267 L67.0282 538.69 L28.1395 538.69 L28.1395 532.267 L34.1811 532.267 Q30.6047 530.079 28.9034 527.024 Q27.202 523.968 27.202 519.767 Q27.202 515.531 29.3547 512.579 Q31.5075 509.593 35.6047 508.17 Z" fill="#000000" fill-rule="evenodd" fill-opacity="1" /><path clip-path="url(#clip130)" d="M13.0007 454.246 L76.4031 454.246 L76.4031 468.969 L71.4379 468.969 L71.4379 460.67 L17.9659 460.67 L17.9659 468.969 L13.0007 468.969 L13.0007 454.246 Z" fill="#000000" fill-rule="evenodd" fill-opacity="1" /><path clip-path="url(#clip130)" d="M877.568 18.8205 L877.568 65.8515 L887.452 65.8515 Q899.969 65.8515 905.762 60.1802 Q911.595 54.509 911.595 42.2752 Q911.595 30.1225 905.762 24.4918 Q899.969 18.8205 887.452 18.8205 L877.568 18.8205 M869.385 12.096 L886.196 12.096 Q903.777 12.096 912 19.4281 Q920.224 26.7198 920.224 42.2752 Q920.224 57.9117 911.96 65.2439 Q903.696 72.576 886.196 72.576 L869.385 72.576 L869.385 12.096 Z" fill="#000000" fill-rule="evenodd" fill-opacity="1" /><path clip-path="url(#clip130)" d="M932.943 27.2059 L940.397 27.2059 L940.397 72.576 L932.943 72.576 L932.943 27.2059 M932.943 9.54393 L940.397 9.54393 L940.397 18.9825 L932.943 18.9825 L932.943 9.54393 Z" fill="#000000" fill-rule="evenodd" fill-opacity="1" /><path clip-path="url(#clip130)" d="M984.917 28.5427 L984.917 35.5912 Q981.757 33.9709 978.354 33.1607 Q974.951 32.3505 971.306 32.3505 Q965.756 32.3505 962.961 34.0519 Q960.206 35.7533 960.206 39.156 Q960.206 41.7486 962.191 43.2475 Q964.176 44.7058 970.171 46.0426 L972.723 46.6097 Q980.663 48.3111 983.985 51.4303 Q987.347 54.509 987.347 60.0587 Q987.347 66.3781 982.324 70.0644 Q977.341 73.7508 968.591 73.7508 Q964.946 73.7508 960.976 73.0216 Q957.046 72.3329 952.671 70.9151 L952.671 63.2184 Q956.803 65.3654 960.814 66.4591 Q964.824 67.5124 968.753 67.5124 Q974.02 67.5124 976.855 65.73 Q979.691 63.9071 979.691 60.6258 Q979.691 57.5877 977.625 55.9673 Q975.599 54.3469 968.672 52.8481 L966.08 52.2405 Q959.153 50.7821 956.074 47.7845 Q952.995 44.7463 952.995 39.4801 Q952.995 33.0797 957.532 29.5959 Q962.069 26.1121 970.414 26.1121 Q974.546 26.1121 978.192 26.7198 Q981.838 27.3274 984.917 28.5427 Z" fill="#000000" fill-rule="evenodd" fill-opacity="1" /><path clip-path="url(#clip130)" d="M1006.43 65.7705 L1006.43 89.8329 L998.933 89.8329 L998.933 27.2059 L1006.43 27.2059 L1006.43 34.0924 Q1008.78 30.0415 1012.34 28.0971 Q1015.95 26.1121 1020.93 26.1121 Q1029.19 26.1121 1034.34 32.6746 Q1039.52 39.2371 1039.52 49.9314 Q1039.52 60.6258 1034.34 67.1883 Q1029.19 73.7508 1020.93 73.7508 Q1015.95 73.7508 1012.34 71.8063 Q1008.78 69.8214 1006.43 65.7705 M1031.79 49.9314 Q1031.79 41.7081 1028.38 37.0496 Q1025.02 32.3505 1019.11 32.3505 Q1013.19 32.3505 1009.79 37.0496 Q1006.43 41.7081 1006.43 49.9314 Q1006.43 58.1548 1009.79 62.8538 Q1013.19 67.5124 1019.11 67.5124 Q1025.02 67.5124 1028.38 62.8538 Q1031.79 58.1548 1031.79 49.9314 Z" fill="#000000" fill-rule="evenodd" fill-opacity="1" /><path clip-path="url(#clip130)" d="M1051.88 9.54393 L1059.33 9.54393 L1059.33 72.576 L1051.88 72.576 L1051.88 9.54393 Z" fill="#000000" fill-rule="evenodd" fill-opacity="1" /><path clip-path="url(#clip130)" d="M1095.55 49.7694 Q1086.51 49.7694 1083.03 51.8354 Q1079.55 53.9013 1079.55 58.8839 Q1079.55 62.8538 1082.14 65.2034 Q1084.77 67.5124 1089.27 67.5124 Q1095.47 67.5124 1099.19 63.1374 Q1102.96 58.7219 1102.96 51.4303 L1102.96 49.7694 L1095.55 49.7694 M1110.41 46.6907 L1110.41 72.576 L1102.96 72.576 L1102.96 65.6895 Q1100.41 69.8214 1096.6 71.8063 Q1092.79 73.7508 1087.28 73.7508 Q1080.32 73.7508 1076.18 69.8619 Q1072.09 65.9325 1072.09 59.3701 Q1072.09 51.7138 1077.2 47.825 Q1082.34 43.9361 1092.51 43.9361 L1102.96 43.9361 L1102.96 43.2069 Q1102.96 38.0623 1099.56 35.2672 Q1096.19 32.4315 1090.08 32.4315 Q1086.19 32.4315 1082.5 33.3632 Q1078.82 34.295 1075.41 36.1584 L1075.41 29.2718 Q1079.51 27.692 1083.35 26.9223 Q1087.2 26.1121 1090.85 26.1121 Q1100.69 26.1121 1105.55 31.2163 Q1110.41 36.3204 1110.41 46.6907 Z" fill="#000000" fill-rule="evenodd" fill-opacity="1" /><path clip-path="url(#clip130)" d="M1158.42 28.9478 L1158.42 35.9153 Q1155.26 34.1734 1152.06 33.3227 Q1148.9 32.4315 1145.66 32.4315 Q1138.41 32.4315 1134.39 37.0496 Q1130.38 41.6271 1130.38 49.9314 Q1130.38 58.2358 1134.39 62.8538 Q1138.41 67.4314 1145.66 67.4314 Q1148.9 67.4314 1152.06 66.5807 Q1155.26 65.6895 1158.42 63.9476 L1158.42 70.8341 Q1155.3 72.2924 1151.94 73.0216 Q1148.61 73.7508 1144.85 73.7508 Q1134.6 73.7508 1128.56 67.3098 Q1122.53 60.8689 1122.53 49.9314 Q1122.53 38.832 1128.6 32.472 Q1134.72 26.1121 1145.33 26.1121 Q1148.78 26.1121 1152.06 26.8413 Q1155.34 27.5299 1158.42 28.9478 Z" fill="#000000" fill-rule="evenodd" fill-opacity="1" /><path clip-path="url(#clip130)" d="M1210.19 48.0275 L1210.19 51.6733 L1175.92 51.6733 Q1176.4 59.3701 1180.53 63.421 Q1184.71 67.4314 1192.12 67.4314 Q1196.41 67.4314 1200.42 66.3781 Q1204.48 65.3249 1208.45 63.2184 L1208.45 70.267 Q1204.44 71.9684 1200.22 72.8596 Q1196.01 73.7508 1191.67 73.7508 Q1180.82 73.7508 1174.46 67.4314 Q1168.14 61.1119 1168.14 50.3365 Q1168.14 39.1965 1174.13 32.6746 Q1180.17 26.1121 1190.38 26.1121 Q1199.53 26.1121 1204.84 32.0264 Q1210.19 37.9003 1210.19 48.0275 M1202.73 45.84 Q1202.65 39.7232 1199.29 36.0774 Q1195.97 32.4315 1190.46 32.4315 Q1184.22 32.4315 1180.45 35.9558 Q1176.73 39.4801 1176.16 45.8805 L1202.73 45.84 Z" fill="#000000" fill-rule="evenodd" fill-opacity="1" /><path clip-path="url(#clip130)" d="M1257.74 35.9153 Q1260.54 30.8922 1264.43 28.5022 Q1268.32 26.1121 1273.58 26.1121 Q1280.67 26.1121 1284.52 31.0947 Q1288.37 36.0368 1288.37 45.1919 L1288.37 72.576 L1280.88 72.576 L1280.88 45.4349 Q1280.88 38.913 1278.57 35.7533 Q1276.26 32.5936 1271.52 32.5936 Q1265.73 32.5936 1262.36 36.4419 Q1259 40.2903 1259 46.9338 L1259 72.576 L1251.51 72.576 L1251.51 45.4349 Q1251.51 38.8725 1249.2 35.7533 Q1246.89 32.5936 1242.07 32.5936 Q1236.36 32.5936 1232.99 36.4824 Q1229.63 40.3308 1229.63 46.9338 L1229.63 72.576 L1222.14 72.576 L1222.14 27.2059 L1229.63 27.2059 L1229.63 34.2544 Q1232.18 30.082 1235.75 28.0971 Q1239.31 26.1121 1244.21 26.1121 Q1249.16 26.1121 1252.6 28.6237 Q1256.08 31.1352 1257.74 35.9153 Z" fill="#000000" fill-rule="evenodd" fill-opacity="1" /><path clip-path="url(#clip130)" d="M1342.04 48.0275 L1342.04 51.6733 L1307.77 51.6733 Q1308.26 59.3701 1312.39 63.421 Q1316.56 67.4314 1323.98 67.4314 Q1328.27 67.4314 1332.28 66.3781 Q1336.33 65.3249 1340.3 63.2184 L1340.3 70.267 Q1336.29 71.9684 1332.08 72.8596 Q1327.87 73.7508 1323.53 73.7508 Q1312.68 73.7508 1306.32 67.4314 Q1300 61.1119 1300 50.3365 Q1300 39.1965 1305.99 32.6746 Q1312.03 26.1121 1322.24 26.1121 Q1331.39 26.1121 1336.7 32.0264 Q1342.04 37.9003 1342.04 48.0275 M1334.59 45.84 Q1334.51 39.7232 1331.15 36.0774 Q1327.83 32.4315 1322.32 32.4315 Q1316.08 32.4315 1312.31 35.9558 Q1308.58 39.4801 1308.02 45.8805 L1334.59 45.84 Z" fill="#000000" fill-rule="evenodd" fill-opacity="1" /><path clip-path="url(#clip130)" d="M1391.99 45.1919 L1391.99 72.576 L1384.54 72.576 L1384.54 45.4349 Q1384.54 38.994 1382.03 35.7938 Q1379.52 32.5936 1374.49 32.5936 Q1368.46 32.5936 1364.97 36.4419 Q1361.49 40.2903 1361.49 46.9338 L1361.49 72.576 L1353.99 72.576 L1353.99 27.2059 L1361.49 27.2059 L1361.49 34.2544 Q1364.16 30.163 1367.77 28.1376 Q1371.41 26.1121 1376.15 26.1121 Q1383.97 26.1121 1387.98 30.9732 Q1391.99 35.7938 1391.99 45.1919 Z" fill="#000000" fill-rule="evenodd" fill-opacity="1" /><path clip-path="url(#clip130)" d="M1414.23 14.324 L1414.23 27.2059 L1429.58 27.2059 L1429.58 32.9987 L1414.23 32.9987 L1414.23 57.6282 Q1414.23 63.1779 1415.73 64.7578 Q1417.27 66.3376 1421.93 66.3376 L1429.58 66.3376 L1429.58 72.576 L1421.93 72.576 Q1413.3 72.576 1410.02 69.3758 Q1406.74 66.1351 1406.74 57.6282 L1406.74 32.9987 L1401.27 32.9987 L1401.27 27.2059 L1406.74 27.2059 L1406.74 14.324 L1414.23 14.324 Z" fill="#000000" fill-rule="evenodd" fill-opacity="1" /><path clip-path="url(#clip130)" d="M1501.08 35.9153 Q1503.88 30.8922 1507.77 28.5022 Q1511.66 26.1121 1516.92 26.1121 Q1524.01 26.1121 1527.86 31.0947 Q1531.71 36.0368 1531.71 45.1919 L1531.71 72.576 L1524.21 72.576 L1524.21 45.4349 Q1524.21 38.913 1521.9 35.7533 Q1519.6 32.5936 1514.86 32.5936 Q1509.06 32.5936 1505.7 36.4419 Q1502.34 40.2903 1502.34 46.9338 L1502.34 72.576 L1494.84 72.576 L1494.84 45.4349 Q1494.84 38.8725 1492.54 35.7533 Q1490.23 32.5936 1485.41 32.5936 Q1479.69 32.5936 1476.33 36.4824 Q1472.97 40.3308 1472.97 46.9338 L1472.97 72.576 L1465.48 72.576 L1465.48 27.2059 L1472.97 27.2059 L1472.97 34.2544 Q1475.52 30.082 1479.09 28.0971 Q1482.65 26.1121 1487.55 26.1121 Q1492.49 26.1121 1495.94 28.6237 Q1499.42 31.1352 1501.08 35.9153 Z" fill="#000000" fill-rule="evenodd" fill-opacity="1" /><path clip-path="url(#clip130)" d="M1564.16 32.4315 Q1558.16 32.4315 1554.68 37.1306 Q1551.19 41.7891 1551.19 49.9314 Q1551.19 58.0738 1554.64 62.7728 Q1558.12 67.4314 1564.16 67.4314 Q1570.11 67.4314 1573.59 62.7323 Q1577.08 58.0333 1577.08 49.9314 Q1577.08 41.8701 1573.59 37.1711 Q1570.11 32.4315 1564.16 32.4315 M1564.16 26.1121 Q1573.88 26.1121 1579.43 32.4315 Q1584.98 38.7509 1584.98 49.9314 Q1584.98 61.0714 1579.43 67.4314 Q1573.88 73.7508 1564.16 73.7508 Q1554.39 73.7508 1548.84 67.4314 Q1543.33 61.0714 1543.33 49.9314 Q1543.33 38.7509 1548.84 32.4315 Q1554.39 26.1121 1564.16 26.1121 Z" fill="#000000" fill-rule="evenodd" fill-opacity="1" /><path clip-path="url(#clip130)" d="M1627.19 34.0924 L1627.19 9.54393 L1634.64 9.54393 L1634.64 72.576 L1627.19 72.576 L1627.19 65.7705 Q1624.84 69.8214 1621.23 71.8063 Q1617.67 73.7508 1612.64 73.7508 Q1604.42 73.7508 1599.24 67.1883 Q1594.09 60.6258 1594.09 49.9314 Q1594.09 39.2371 1599.24 32.6746 Q1604.42 26.1121 1612.64 26.1121 Q1617.67 26.1121 1621.23 28.0971 Q1624.84 30.0415 1627.19 34.0924 M1601.79 49.9314 Q1601.79 58.1548 1605.15 62.8538 Q1608.55 67.5124 1614.47 67.5124 Q1620.38 67.5124 1623.78 62.8538 Q1627.19 58.1548 1627.19 49.9314 Q1627.19 41.7081 1623.78 37.0496 Q1620.38 32.3505 1614.47 32.3505 Q1608.55 32.3505 1605.15 37.0496 Q1601.79 41.7081 1601.79 49.9314 Z" fill="#000000" fill-rule="evenodd" fill-opacity="1" /><path clip-path="url(#clip130)" d="M1688.8 48.0275 L1688.8 51.6733 L1654.53 51.6733 Q1655.02 59.3701 1659.15 63.421 Q1663.32 67.4314 1670.73 67.4314 Q1675.03 67.4314 1679.04 66.3781 Q1683.09 65.3249 1687.06 63.2184 L1687.06 70.267 Q1683.05 71.9684 1678.84 72.8596 Q1674.62 73.7508 1670.29 73.7508 Q1659.43 73.7508 1653.07 67.4314 Q1646.75 61.1119 1646.75 50.3365 Q1646.75 39.1965 1652.75 32.6746 Q1658.78 26.1121 1668.99 26.1121 Q1678.15 26.1121 1683.45 32.0264 Q1688.8 37.9003 1688.8 48.0275 M1681.35 45.84 Q1681.27 39.7232 1677.9 36.0774 Q1674.58 32.4315 1669.07 32.4315 Q1662.84 32.4315 1659.07 35.9558 Q1655.34 39.4801 1654.77 45.8805 L1681.35 45.84 Z" fill="#000000" fill-rule="evenodd" fill-opacity="1" /><path clip-path="url(#clip130)" d="M1701.04 9.54393 L1708.49 9.54393 L1708.49 72.576 L1701.04 72.576 L1701.04 9.54393 Z" fill="#000000" fill-rule="evenodd" fill-opacity="1" /><path clip-path="url(#clip130)" d="M1758.56 65.6895 L1787.12 65.6895 L1787.12 72.576 L1748.71 72.576 L1748.71 65.6895 Q1753.37 60.8689 1761.39 52.7671 Q1769.46 44.6248 1771.52 42.2752 Q1775.45 37.8598 1776.99 34.8216 Q1778.57 31.7429 1778.57 28.7857 Q1778.57 23.9651 1775.17 20.927 Q1771.8 17.8888 1766.38 17.8888 Q1762.53 17.8888 1758.23 19.2256 Q1753.98 20.5624 1749.12 23.2765 L1749.12 15.0127 Q1754.06 13.0277 1758.36 12.015 Q1762.65 11.0023 1766.21 11.0023 Q1775.61 11.0023 1781.2 15.7013 Q1786.79 20.4004 1786.79 28.2591 Q1786.79 31.9859 1785.38 35.3482 Q1784 38.6699 1780.31 43.2069 Q1779.3 44.3817 1773.87 50.0125 Q1768.44 55.6027 1758.56 65.6895 Z" fill="#000000" fill-rule="evenodd" fill-opacity="1" /><polyline clip-path="url(#clip132)" style="stroke:#009af9; stroke-linecap:butt; stroke-linejoin:round; stroke-width:8; stroke-opacity:1; fill:none" points="
  361.737,159.645 2294.77,159.645 
  "/>
<polyline clip-path="url(#clip132)" style="stroke:#e26f46; stroke-linecap:butt; stroke-linejoin:round; stroke-width:8; stroke-opacity:1; fill:none" points="
  361.737,1141.28 2294.77,1141.28 
  "/>
<polyline clip-path="url(#clip132)" style="stroke:#008000; stroke-linecap:butt; stroke-linejoin:round; stroke-width:8; stroke-opacity:1; fill:none" stroke-dasharray="4, 8" points="
  361.737,1365.41 366.569,1365.37 371.402,1365.27 376.235,1365.1 381.067,1364.87 385.9,1364.56 390.732,1364.19 395.565,1363.75 400.397,1363.23 405.23,1362.66 
  410.063,1362.01 414.895,1361.29 419.728,1360.51 424.56,1359.66 429.393,1358.75 434.225,1357.77 439.058,1356.73 443.891,1355.62 448.723,1354.45 453.556,1353.22 
  458.388,1351.93 463.221,1350.58 468.053,1349.17 472.886,1347.7 477.719,1346.18 482.551,1344.61 487.384,1342.98 492.216,1341.31 497.049,1339.58 501.881,1337.81 
  506.714,1335.99 511.547,1334.13 516.379,1332.23 521.212,1330.29 526.044,1328.31 530.877,1326.29 535.709,1324.24 540.542,1322.15 545.375,1320.04 550.207,1317.9 
  555.04,1315.73 559.872,1313.54 564.705,1311.33 569.537,1309.1 574.37,1306.85 579.203,1304.59 584.035,1302.32 588.868,1300.03 593.7,1297.74 598.533,1295.44 
  603.365,1293.14 608.198,1290.84 613.031,1288.55 617.863,1286.25 622.696,1283.96 627.528,1281.68 632.361,1279.41 637.193,1277.15 642.026,1274.91 646.859,1272.69 
  651.691,1270.48 656.524,1268.3 661.356,1266.14 666.189,1264.01 671.021,1261.9 675.854,1259.83 680.687,1257.79 685.519,1255.78 690.352,1253.81 695.184,1251.88 
  700.017,1249.98 704.849,1248.13 709.682,1246.33 714.515,1244.57 719.347,1242.86 724.18,1241.2 729.012,1239.59 733.845,1238.03 738.677,1236.53 743.51,1235.08 
  748.343,1233.69 753.175,1232.37 758.008,1231.1 762.84,1229.89 767.673,1228.75 772.505,1227.67 777.338,1226.65 782.171,1225.71 787.003,1224.83 791.836,1224.02 
  796.668,1223.28 801.501,1222.61 806.333,1222.01 811.166,1221.49 815.998,1221.04 820.831,1220.66 825.664,1220.36 830.496,1220.14 835.329,1219.99 840.161,1219.92 
  844.994,1219.93 849.826,1219.99 854.659,1220.11 859.492,1220.28 864.324,1220.51 869.157,1220.8 873.989,1221.14 878.822,1221.54 883.654,1222 888.487,1222.51 
  893.32,1223.08 898.152,1223.7 902.985,1224.38 907.817,1225.12 912.65,1225.91 917.482,1226.75 922.315,1227.64 927.148,1228.59 931.98,1229.59 936.813,1230.64 
  941.645,1231.74 946.478,1232.89 951.31,1234.09 956.143,1235.33 960.976,1236.62 965.808,1237.95 970.641,1239.33 975.473,1240.74 980.306,1242.2 985.138,1243.69 
  989.971,1245.23 994.804,1246.8 999.636,1248.4 1004.47,1250.03 1009.3,1251.7 1014.13,1253.4 1018.97,1255.12 1023.8,1256.87 1028.63,1258.65 1033.46,1260.44 
  1038.3,1262.26 1043.13,1264.1 1047.96,1265.95 1052.79,1267.82 1057.63,1269.7 1062.46,1271.6 1067.29,1273.5 1072.12,1275.41 1076.96,1277.33 1081.79,1279.25 
  1086.62,1281.17 1091.46,1283.09 1096.29,1285.02 1101.12,1286.93 1105.95,1288.84 1110.79,1290.75 1115.62,1292.64 1120.45,1294.53 1125.28,1296.4 1130.12,1298.25 
  1134.95,1300.09 1139.78,1301.91 1144.61,1303.71 1149.45,1305.48 1154.28,1307.23 1159.11,1308.96 1163.94,1310.65 1168.78,1312.32 1173.61,1313.96 1178.44,1315.56 
  1183.27,1317.13 1188.11,1318.66 1192.94,1320.16 1197.77,1321.61 1202.6,1323.03 1207.44,1324.4 1212.27,1325.73 1217.1,1327.01 1221.93,1328.25 1226.77,1329.44 
  1231.6,1330.58 1236.43,1331.67 1241.26,1332.71 1246.1,1333.7 1250.93,1334.63 1255.76,1335.51 1260.59,1336.34 1265.43,1337.1 1270.26,1337.81 1275.09,1338.46 
  1279.93,1339.05 1284.76,1339.58 1289.59,1340.05 1294.42,1340.46 1299.26,1340.8 1304.09,1341.08 1308.92,1341.3 1313.75,1341.45 1318.59,1341.54 1323.42,1341.56 
  1328.25,1341.53 1333.08,1341.45 1337.92,1341.34 1342.75,1341.18 1347.58,1340.97 1352.41,1340.72 1357.25,1340.43 1362.08,1340.09 1366.91,1339.71 1371.74,1339.28 
  1376.58,1338.81 1381.41,1338.3 1386.24,1337.74 1391.07,1337.14 1395.91,1336.5 1400.74,1335.82 1405.57,1335.09 1410.4,1334.33 1415.24,1333.52 1420.07,1332.67 
  1424.9,1331.79 1429.73,1330.87 1434.57,1329.91 1439.4,1328.91 1444.23,1327.88 1449.07,1326.81 1453.9,1325.71 1458.73,1324.57 1463.56,1323.41 1468.4,1322.21 
  1473.23,1320.99 1478.06,1319.73 1482.89,1318.46 1487.73,1317.15 1492.56,1315.82 1497.39,1314.47 1502.22,1313.09 1507.06,1311.7 1511.89,1310.29 1516.72,1308.86 
  1521.55,1307.41 1526.39,1305.95 1531.22,1304.47 1536.05,1302.98 1540.88,1301.49 1545.72,1299.98 1550.55,1298.47 1555.38,1296.95 1560.21,1295.42 1565.05,1293.9 
  1569.88,1292.37 1574.71,1290.84 1579.54,1289.31 1584.38,1287.79 1589.21,1286.27 1594.04,1284.76 1598.87,1283.26 1603.71,1281.76 1608.54,1280.28 1613.37,1278.81 
  1618.21,1277.35 1623.04,1275.91 1627.87,1274.49 1632.7,1273.08 1637.54,1271.7 1642.37,1270.33 1647.2,1268.99 1652.03,1267.67 1656.87,1266.37 1661.7,1265.11 
  1666.53,1263.87 1671.36,1262.66 1676.2,1261.48 1681.03,1260.33 1685.86,1259.21 1690.69,1258.13 1695.53,1257.09 1700.36,1256.08 1705.19,1255.1 1710.02,1254.17 
  1714.86,1253.28 1719.69,1252.42 1724.52,1251.61 1729.35,1250.84 1734.19,1250.11 1739.02,1249.43 1743.85,1248.79 1748.68,1248.2 1753.52,1247.65 1758.35,1247.16 
  1763.18,1246.71 1768.01,1246.31 1772.85,1245.95 1777.68,1245.65 1782.51,1245.4 1787.35,1245.2 1792.18,1245.06 1797.01,1244.96 1801.84,1244.92 1806.68,1244.92 
  1811.51,1244.96 1816.34,1245.03 1821.17,1245.13 1826.01,1245.26 1830.84,1245.42 1835.67,1245.61 1840.5,1245.83 1845.34,1246.08 1850.17,1246.37 1855,1246.68 
  1859.83,1247.03 1864.67,1247.4 1869.5,1247.81 1874.33,1248.25 1879.16,1248.72 1884,1249.21 1888.83,1249.74 1893.66,1250.29 1898.49,1250.88 1903.33,1251.49 
  1908.16,1252.13 1912.99,1252.79 1917.82,1253.48 1922.66,1254.2 1927.49,1254.95 1932.32,1255.71 1937.15,1256.51 1941.99,1257.32 1946.82,1258.16 1951.65,1259.02 
  1956.49,1259.9 1961.32,1260.8 1966.15,1261.72 1970.98,1262.66 1975.82,1263.61 1980.65,1264.58 1985.48,1265.57 1990.31,1266.57 1995.15,1267.59 1999.98,1268.61 
  2004.81,1269.65 2009.64,1270.7 2014.48,1271.76 2019.31,1272.83 2024.14,1273.91 2028.97,1274.99 2033.81,1276.08 2038.64,1277.17 2043.47,1278.26 2048.3,1279.36 
  2053.14,1280.46 2057.97,1281.56 2062.8,1282.65 2067.63,1283.75 2072.47,1284.84 2077.3,1285.92 2082.13,1287.01 2086.96,1288.08 2091.8,1289.15 2096.63,1290.2 
  2101.46,1291.25 2106.29,1292.29 2111.13,1293.31 2115.96,1294.33 2120.79,1295.32 2125.63,1296.31 2130.46,1297.27 2135.29,1298.22 2140.12,1299.15 2144.96,1300.06 
  2149.79,1300.95 2154.62,1301.82 2159.45,1302.67 2164.29,1303.5 2169.12,1304.3 2173.95,1305.08 2178.78,1305.83 2183.62,1306.55 2188.45,1307.25 2193.28,1307.92 
  2198.11,1308.56 2202.95,1309.17 2207.78,1309.75 2212.61,1310.3 2217.44,1310.82 2222.28,1311.31 2227.11,1311.76 2231.94,1312.18 2236.77,1312.56 2241.61,1312.91 
  2246.44,1313.23 2251.27,1313.51 2256.1,1313.75 2260.94,1313.95 2265.77,1314.12 2270.6,1314.25 2275.43,1314.35 2280.27,1314.4 2285.1,1314.41 2289.93,1314.4 
  2294.77,1314.38 
  "/>
<polyline clip-path="url(#clip132)" style="stroke:#008000; stroke-linecap:butt; stroke-linejoin:round; stroke-width:8; stroke-opacity:1; fill:none" points="
  361.737,1264.07 366.569,1264.03 371.402,1263.91 376.235,1263.7 381.067,1263.42 385.9,1263.05 390.732,1262.6 395.565,1262.07 400.397,1261.45 405.23,1260.75 
  410.063,1259.97 414.895,1259.11 419.728,1258.17 424.56,1257.14 429.393,1256.04 434.225,1254.86 439.058,1253.6 443.891,1252.26 448.723,1250.85 453.556,1249.37 
  458.388,1247.81 463.221,1246.18 468.053,1244.48 472.886,1242.71 477.719,1240.88 482.551,1238.98 487.384,1237.02 492.216,1235 497.049,1232.92 501.881,1230.78 
  506.714,1228.59 511.547,1226.34 516.379,1224.05 521.212,1221.7 526.044,1219.31 530.877,1216.88 535.709,1214.41 540.542,1211.89 545.375,1209.34 550.207,1206.76 
  555.04,1204.15 559.872,1201.5 564.705,1198.84 569.537,1196.14 574.37,1193.43 579.203,1190.7 584.035,1187.96 588.868,1185.21 593.7,1182.44 598.533,1179.67 
  603.365,1176.9 608.198,1174.12 613.031,1171.35 617.863,1168.58 622.696,1165.82 627.528,1163.07 632.361,1160.33 637.193,1157.61 642.026,1154.9 646.859,1152.22 
  651.691,1149.56 656.524,1146.93 661.356,1144.32 666.189,1141.75 671.021,1139.21 675.854,1136.71 680.687,1134.24 685.519,1131.82 690.352,1129.44 695.184,1127.11 
  700.017,1124.83 704.849,1122.6 709.682,1120.42 714.515,1118.3 719.347,1116.24 724.18,1114.23 729.012,1112.29 733.845,1110.41 738.677,1108.6 743.51,1106.86 
  748.343,1105.18 753.175,1103.58 758.008,1102.05 762.84,1100.59 767.673,1099.21 772.505,1097.91 777.338,1096.69 782.171,1095.54 787.003,1094.48 791.836,1093.51 
  796.668,1092.62 801.501,1091.81 806.333,1091.09 811.166,1090.46 815.998,1089.91 820.831,1089.46 825.664,1089.1 830.496,1088.83 835.329,1088.65 840.161,1088.57 
  844.994,1088.57 849.826,1088.65 854.659,1088.79 859.492,1089 864.324,1089.28 869.157,1089.62 873.989,1090.04 878.822,1090.52 883.654,1091.07 888.487,1091.69 
  893.32,1092.37 898.152,1093.13 902.985,1093.95 907.817,1094.83 912.65,1095.78 917.482,1096.8 922.315,1097.88 927.148,1099.03 931.98,1100.23 936.813,1101.5 
  941.645,1102.83 946.478,1104.21 951.31,1105.65 956.143,1107.15 960.976,1108.71 965.808,1110.32 970.641,1111.97 975.473,1113.68 980.306,1115.44 985.138,1117.24 
  989.971,1119.09 994.804,1120.99 999.636,1122.92 1004.47,1124.89 1009.3,1126.9 1014.13,1128.95 1018.97,1131.03 1023.8,1133.14 1028.63,1135.28 1033.46,1137.45 
  1038.3,1139.64 1043.13,1141.86 1047.96,1144.09 1052.79,1146.35 1057.63,1148.62 1062.46,1150.9 1067.29,1153.2 1072.12,1155.5 1076.96,1157.82 1081.79,1160.13 
  1086.62,1162.45 1091.46,1164.77 1096.29,1167.09 1101.12,1169.4 1105.95,1171.71 1110.79,1174.01 1115.62,1176.29 1120.45,1178.56 1125.28,1180.82 1130.12,1183.06 
  1134.95,1185.27 1139.78,1187.47 1144.61,1189.64 1149.45,1191.78 1154.28,1193.89 1159.11,1195.97 1163.94,1198.02 1168.78,1200.03 1173.61,1202.01 1178.44,1203.94 
  1183.27,1205.83 1188.11,1207.68 1192.94,1209.48 1197.77,1211.24 1202.6,1212.95 1207.44,1214.6 1212.27,1216.21 1217.1,1217.76 1221.93,1219.25 1226.77,1220.68 
  1231.6,1222.06 1236.43,1223.38 1241.26,1224.63 1246.1,1225.82 1250.93,1226.95 1255.76,1228.01 1260.59,1229 1265.43,1229.92 1270.26,1230.78 1275.09,1231.56 
  1279.93,1232.27 1284.76,1232.91 1289.59,1233.48 1294.42,1233.97 1299.26,1234.39 1304.09,1234.72 1308.92,1234.99 1313.75,1235.17 1318.59,1235.27 1323.42,1235.3 
  1328.25,1235.26 1333.08,1235.17 1337.92,1235.03 1342.75,1234.84 1347.58,1234.59 1352.41,1234.29 1357.25,1233.94 1362.08,1233.53 1366.91,1233.07 1371.74,1232.56 
  1376.58,1231.99 1381.41,1231.37 1386.24,1230.7 1391.07,1229.98 1395.91,1229.2 1400.74,1228.38 1405.57,1227.5 1410.4,1226.58 1415.24,1225.6 1420.07,1224.58 
  1424.9,1223.52 1429.73,1222.4 1434.57,1221.24 1439.4,1220.04 1444.23,1218.79 1449.07,1217.51 1453.9,1216.18 1458.73,1214.81 1463.56,1213.41 1468.4,1211.96 
  1473.23,1210.49 1478.06,1208.97 1482.89,1207.43 1487.73,1205.86 1492.56,1204.25 1497.39,1202.62 1502.22,1200.96 1507.06,1199.28 1511.89,1197.58 1516.72,1195.85 
  1521.55,1194.1 1526.39,1192.34 1531.22,1190.56 1536.05,1188.77 1540.88,1186.96 1545.72,1185.14 1550.55,1183.32 1555.38,1181.48 1560.21,1179.65 1565.05,1177.8 
  1569.88,1175.96 1574.71,1174.12 1579.54,1172.28 1584.38,1170.44 1589.21,1168.61 1594.04,1166.79 1598.87,1164.97 1603.71,1163.17 1608.54,1161.38 1613.37,1159.61 
  1618.21,1157.85 1623.04,1156.11 1627.87,1154.39 1632.7,1152.69 1637.54,1151.02 1642.37,1149.38 1647.2,1147.76 1652.03,1146.16 1656.87,1144.6 1661.7,1143.08 
  1666.53,1141.58 1671.36,1140.12 1676.2,1138.7 1681.03,1137.31 1685.86,1135.97 1690.69,1134.66 1695.53,1133.4 1700.36,1132.18 1705.19,1131.01 1710.02,1129.88 
  1714.86,1128.8 1719.69,1127.77 1724.52,1126.79 1729.35,1125.86 1734.19,1124.99 1739.02,1124.16 1743.85,1123.39 1748.68,1122.68 1753.52,1122.02 1758.35,1121.42 
  1763.18,1120.88 1768.01,1120.39 1772.85,1119.97 1777.68,1119.61 1782.51,1119.3 1787.35,1119.06 1792.18,1118.89 1797.01,1118.77 1801.84,1118.72 1806.68,1118.73 
  1811.51,1118.77 1816.34,1118.85 1821.17,1118.97 1826.01,1119.13 1830.84,1119.32 1835.67,1119.55 1840.5,1119.82 1845.34,1120.12 1850.17,1120.47 1855,1120.85 
  1859.83,1121.26 1864.67,1121.72 1869.5,1122.21 1874.33,1122.74 1879.16,1123.3 1884,1123.9 1888.83,1124.53 1893.66,1125.2 1898.49,1125.91 1903.33,1126.65 
  1908.16,1127.42 1912.99,1128.22 1917.82,1129.05 1922.66,1129.92 1927.49,1130.82 1932.32,1131.74 1937.15,1132.7 1941.99,1133.68 1946.82,1134.69 1951.65,1135.73 
  1956.49,1136.79 1961.32,1137.88 1966.15,1138.99 1970.98,1140.12 1975.82,1141.27 1980.65,1142.44 1985.48,1143.63 1990.31,1144.84 1995.15,1146.06 1999.98,1147.3 
  2004.81,1148.56 2009.64,1149.83 2014.48,1151.1 2019.31,1152.39 2024.14,1153.69 2028.97,1154.99 2033.81,1156.31 2038.64,1157.62 2043.47,1158.94 2048.3,1160.27 
  2053.14,1161.59 2057.97,1162.92 2062.8,1164.24 2067.63,1165.56 2072.47,1166.88 2077.3,1168.19 2082.13,1169.49 2086.96,1170.79 2091.8,1172.08 2096.63,1173.35 
  2101.46,1174.62 2106.29,1175.87 2111.13,1177.1 2115.96,1178.32 2120.79,1179.53 2125.63,1180.71 2130.46,1181.88 2135.29,1183.02 2140.12,1184.14 2144.96,1185.24 
  2149.79,1186.32 2154.62,1187.37 2159.45,1188.39 2164.29,1189.39 2169.12,1190.35 2173.95,1191.29 2178.78,1192.2 2183.62,1193.07 2188.45,1193.91 2193.28,1194.72 
  2198.11,1195.49 2202.95,1196.23 2207.78,1196.93 2212.61,1197.59 2217.44,1198.22 2222.28,1198.81 2227.11,1199.35 2231.94,1199.86 2236.77,1200.32 2241.61,1200.74 
  2246.44,1201.12 2251.27,1201.46 2256.1,1201.75 2260.94,1202 2265.77,1202.2 2270.6,1202.36 2275.43,1202.47 2280.27,1202.54 2285.1,1202.56 2289.93,1202.54 
  2294.77,1202.51 
  "/>
<path clip-path="url(#clip130)" d="
M1421.93 619.676 L2284.46 619.676 L2284.46 166.076 L1421.93 166.076  Z
  " fill="#ffffff" fill-rule="evenodd" fill-opacity="1"/>
<polyline clip-path="url(#clip130)" style="stroke:#000000; stroke-linecap:butt; stroke-linejoin:round; stroke-width:4; stroke-opacity:1; fill:none" points="
  1421.93,619.676 2284.46,619.676 2284.46,166.076 1421.93,166.076 1421.93,619.676 
  "/>
<polyline clip-path="url(#clip130)" style="stroke:#009af9; stroke-linecap:butt; stroke-linejoin:round; stroke-width:6; stroke-opacity:1; fill:none" points="
  1444.7,256.796 1581.3,256.796 
  "/>
<path clip-path="url(#clip130)" d="M1631.7 244.973 L1631.7 251.014 Q1628.99 249.626 1626.08 248.931 Q1623.16 248.237 1620.04 248.237 Q1615.28 248.237 1612.88 249.695 Q1610.52 251.153 1610.52 254.07 Q1610.52 256.292 1612.22 257.577 Q1613.93 258.827 1619.06 259.973 L1621.25 260.459 Q1628.06 261.917 1630.9 264.591 Q1633.79 267.23 1633.79 271.987 Q1633.79 277.403 1629.48 280.563 Q1625.21 283.723 1617.71 283.723 Q1614.59 283.723 1611.18 283.098 Q1607.81 282.507 1604.06 281.292 L1604.06 274.695 Q1607.61 276.535 1611.04 277.473 Q1614.48 278.375 1617.85 278.375 Q1622.36 278.375 1624.79 276.848 Q1627.22 275.285 1627.22 272.473 Q1627.22 269.869 1625.45 268.48 Q1623.72 267.091 1617.78 265.806 L1615.56 265.285 Q1609.62 264.035 1606.98 261.466 Q1604.34 258.862 1604.34 254.348 Q1604.34 248.862 1608.23 245.876 Q1612.12 242.89 1619.27 242.89 Q1622.81 242.89 1625.94 243.41 Q1629.06 243.931 1631.7 244.973 Z" fill="#000000" fill-rule="evenodd" fill-opacity="1" /><path clip-path="url(#clip130)" d="M1643.96 243.827 L1650.35 243.827 L1650.35 282.716 L1643.96 282.716 L1643.96 243.827 M1643.96 228.688 L1650.35 228.688 L1650.35 236.778 L1643.96 236.778 L1643.96 228.688 Z" fill="#000000" fill-rule="evenodd" fill-opacity="1" /><path clip-path="url(#clip130)" d="M1693.99 251.292 Q1696.39 246.987 1699.72 244.938 Q1703.06 242.89 1707.57 242.89 Q1713.65 242.89 1716.95 247.16 Q1720.24 251.396 1720.24 259.244 L1720.24 282.716 L1713.82 282.716 L1713.82 259.452 Q1713.82 253.862 1711.84 251.153 Q1709.86 248.445 1705.8 248.445 Q1700.83 248.445 1697.95 251.744 Q1695.07 255.042 1695.07 260.737 L1695.07 282.716 L1688.65 282.716 L1688.65 259.452 Q1688.65 253.827 1686.67 251.153 Q1684.69 248.445 1680.56 248.445 Q1675.66 248.445 1672.78 251.778 Q1669.9 255.077 1669.9 260.737 L1669.9 282.716 L1663.47 282.716 L1663.47 243.827 L1669.9 243.827 L1669.9 249.869 Q1672.08 246.292 1675.14 244.591 Q1678.2 242.89 1682.4 242.89 Q1686.63 242.89 1689.58 245.042 Q1692.57 247.195 1693.99 251.292 Z" fill="#000000" fill-rule="evenodd" fill-opacity="1" /><path clip-path="url(#clip130)" d="M1739.17 276.882 L1739.17 297.507 L1732.74 297.507 L1732.74 243.827 L1739.17 243.827 L1739.17 249.73 Q1741.18 246.258 1744.24 244.591 Q1747.33 242.89 1751.6 242.89 Q1758.68 242.89 1763.09 248.515 Q1767.54 254.139 1767.54 263.306 Q1767.54 272.473 1763.09 278.098 Q1758.68 283.723 1751.6 283.723 Q1747.33 283.723 1744.24 282.056 Q1741.18 280.355 1739.17 276.882 M1760.9 263.306 Q1760.9 256.258 1757.99 252.264 Q1755.11 248.237 1750.04 248.237 Q1744.97 248.237 1742.05 252.264 Q1739.17 256.258 1739.17 263.306 Q1739.17 270.355 1742.05 274.382 Q1744.97 278.375 1750.04 278.375 Q1755.11 278.375 1757.99 274.382 Q1760.9 270.355 1760.9 263.306 Z" fill="#000000" fill-rule="evenodd" fill-opacity="1" /><path clip-path="url(#clip130)" d="M1778.13 228.688 L1784.51 228.688 L1784.51 282.716 L1778.13 282.716 L1778.13 228.688 Z" fill="#000000" fill-rule="evenodd" fill-opacity="1" /><path clip-path="url(#clip130)" d="M1831.15 261.674 L1831.15 264.799 L1801.77 264.799 Q1802.19 271.396 1805.73 274.869 Q1809.31 278.306 1815.66 278.306 Q1819.34 278.306 1822.78 277.403 Q1826.25 276.5 1829.65 274.695 L1829.65 280.737 Q1826.22 282.195 1822.6 282.959 Q1818.99 283.723 1815.28 283.723 Q1805.97 283.723 1800.52 278.306 Q1795.1 272.889 1795.1 263.653 Q1795.1 254.105 1800.24 248.515 Q1805.42 242.89 1814.17 242.89 Q1822.01 242.89 1826.56 247.959 Q1831.15 252.994 1831.15 261.674 M1824.76 259.799 Q1824.69 254.556 1821.81 251.431 Q1818.96 248.306 1814.24 248.306 Q1808.89 248.306 1805.66 251.327 Q1802.47 254.348 1801.98 259.834 L1824.76 259.799 Z" fill="#000000" fill-rule="evenodd" fill-opacity="1" /><path clip-path="url(#clip130)" d="M1841.91 230.876 L1871.7 230.876 L1871.7 236.778 L1848.92 236.778 L1848.92 252.056 L1869.48 252.056 L1869.48 257.959 L1848.92 257.959 L1848.92 282.716 L1841.91 282.716 L1841.91 230.876 Z" fill="#000000" fill-rule="evenodd" fill-opacity="1" /><path clip-path="url(#clip130)" d="M1882.81 230.876 L1893.26 230.876 L1906.49 266.153 L1919.79 230.876 L1930.24 230.876 L1930.24 282.716 L1923.4 282.716 L1923.4 237.195 L1910.03 272.75 L1902.99 272.75 L1889.62 237.195 L1889.62 282.716 L1882.81 282.716 L1882.81 230.876 Z" fill="#000000" fill-rule="evenodd" fill-opacity="1" /><path clip-path="url(#clip130)" d="M1943.37 230.876 L1950.42 230.876 L1950.42 262.369 Q1950.42 270.702 1953.44 274.382 Q1956.46 278.028 1963.23 278.028 Q1969.97 278.028 1972.99 274.382 Q1976.01 270.702 1976.01 262.369 L1976.01 230.876 L1983.06 230.876 L1983.06 263.237 Q1983.06 273.375 1978.02 278.549 Q1973.02 283.723 1963.23 283.723 Q1953.4 283.723 1948.37 278.549 Q1943.37 273.375 1943.37 263.237 L1943.37 230.876 Z" fill="#000000" fill-rule="evenodd" fill-opacity="1" /><polyline clip-path="url(#clip130)" style="stroke:#e26f46; stroke-linecap:butt; stroke-linejoin:round; stroke-width:6; stroke-opacity:1; fill:none" points="
  1444.7,347.516 1581.3,347.516 
  "/>
<path clip-path="url(#clip130)" d="M1626.84 340.519 Q1625.77 339.894 1624.48 339.616 Q1623.23 339.304 1621.7 339.304 Q1616.29 339.304 1613.37 342.846 Q1610.49 346.353 1610.49 352.95 L1610.49 373.436 L1604.06 373.436 L1604.06 334.547 L1610.49 334.547 L1610.49 340.589 Q1612.5 337.047 1615.73 335.346 Q1618.96 333.61 1623.58 333.61 Q1624.24 333.61 1625.04 333.714 Q1625.84 333.783 1626.81 333.957 L1626.84 340.519 Z" fill="#000000" fill-rule="evenodd" fill-opacity="1" /><path clip-path="url(#clip130)" d="M1665.24 352.394 L1665.24 355.519 L1635.87 355.519 Q1636.29 362.116 1639.83 365.589 Q1643.4 369.026 1649.76 369.026 Q1653.44 369.026 1656.88 368.123 Q1660.35 367.22 1663.75 365.415 L1663.75 371.457 Q1660.31 372.915 1656.7 373.679 Q1653.09 374.443 1649.38 374.443 Q1640.07 374.443 1634.62 369.026 Q1629.2 363.609 1629.2 354.373 Q1629.2 344.825 1634.34 339.235 Q1639.52 333.61 1648.27 333.61 Q1656.11 333.61 1660.66 338.679 Q1665.24 343.714 1665.24 352.394 M1658.86 350.519 Q1658.79 345.276 1655.9 342.151 Q1653.06 339.026 1648.33 339.026 Q1642.99 339.026 1639.76 342.047 Q1636.56 345.068 1636.08 350.554 L1658.86 350.519 Z" fill="#000000" fill-rule="evenodd" fill-opacity="1" /><path clip-path="url(#clip130)" d="M1695.42 319.408 L1695.42 324.721 L1689.31 324.721 Q1685.87 324.721 1684.52 326.11 Q1683.2 327.498 1683.2 331.11 L1683.2 334.547 L1693.72 334.547 L1693.72 339.512 L1683.2 339.512 L1683.2 373.436 L1676.77 373.436 L1676.77 339.512 L1670.66 339.512 L1670.66 334.547 L1676.77 334.547 L1676.77 331.839 Q1676.77 325.346 1679.79 322.394 Q1682.81 319.408 1689.38 319.408 L1695.42 319.408 Z" fill="#000000" fill-rule="evenodd" fill-opacity="1" /><path clip-path="url(#clip130)" d="M1734.03 352.394 L1734.03 355.519 L1704.65 355.519 Q1705.07 362.116 1708.61 365.589 Q1712.19 369.026 1718.54 369.026 Q1722.22 369.026 1725.66 368.123 Q1729.13 367.22 1732.54 365.415 L1732.54 371.457 Q1729.1 372.915 1725.49 373.679 Q1721.88 374.443 1718.16 374.443 Q1708.86 374.443 1703.4 369.026 Q1697.99 363.609 1697.99 354.373 Q1697.99 344.825 1703.13 339.235 Q1708.3 333.61 1717.05 333.61 Q1724.9 333.61 1729.45 338.679 Q1734.03 343.714 1734.03 352.394 M1727.64 350.519 Q1727.57 345.276 1724.69 342.151 Q1721.84 339.026 1717.12 339.026 Q1711.77 339.026 1708.54 342.047 Q1705.35 345.068 1704.86 350.554 L1727.64 350.519 Z" fill="#000000" fill-rule="evenodd" fill-opacity="1" /><path clip-path="url(#clip130)" d="M1767.05 340.519 Q1765.97 339.894 1764.69 339.616 Q1763.44 339.304 1761.91 339.304 Q1756.49 339.304 1753.58 342.846 Q1750.7 346.353 1750.7 352.95 L1750.7 373.436 L1744.27 373.436 L1744.27 334.547 L1750.7 334.547 L1750.7 340.589 Q1752.71 337.047 1755.94 335.346 Q1759.17 333.61 1763.79 333.61 Q1764.45 333.61 1765.24 333.714 Q1766.04 333.783 1767.01 333.957 L1767.05 340.519 Z" fill="#000000" fill-rule="evenodd" fill-opacity="1" /><path clip-path="url(#clip130)" d="M1805.45 352.394 L1805.45 355.519 L1776.08 355.519 Q1776.49 362.116 1780.04 365.589 Q1783.61 369.026 1789.97 369.026 Q1793.65 369.026 1797.08 368.123 Q1800.56 367.22 1803.96 365.415 L1803.96 371.457 Q1800.52 372.915 1796.91 373.679 Q1793.3 374.443 1789.58 374.443 Q1780.28 374.443 1774.83 369.026 Q1769.41 363.609 1769.41 354.373 Q1769.41 344.825 1774.55 339.235 Q1779.72 333.61 1788.47 333.61 Q1796.32 333.61 1800.87 338.679 Q1805.45 343.714 1805.45 352.394 M1799.06 350.519 Q1798.99 345.276 1796.11 342.151 Q1793.26 339.026 1788.54 339.026 Q1783.2 339.026 1779.97 342.047 Q1776.77 345.068 1776.29 350.554 L1799.06 350.519 Z" fill="#000000" fill-rule="evenodd" fill-opacity="1" /><path clip-path="url(#clip130)" d="M1848.26 349.964 L1848.26 373.436 L1841.88 373.436 L1841.88 350.172 Q1841.88 344.651 1839.72 341.908 Q1837.57 339.165 1833.26 339.165 Q1828.09 339.165 1825.1 342.464 Q1822.12 345.762 1822.12 351.457 L1822.12 373.436 L1815.7 373.436 L1815.7 334.547 L1822.12 334.547 L1822.12 340.589 Q1824.41 337.082 1827.5 335.346 Q1830.63 333.61 1834.69 333.61 Q1841.39 333.61 1844.83 337.776 Q1848.26 341.908 1848.26 349.964 Z" fill="#000000" fill-rule="evenodd" fill-opacity="1" /><path clip-path="url(#clip130)" d="M1888.99 336.04 L1888.99 342.012 Q1886.29 340.519 1883.54 339.79 Q1880.83 339.026 1878.06 339.026 Q1871.84 339.026 1868.4 342.984 Q1864.97 346.908 1864.97 354.026 Q1864.97 361.144 1868.4 365.102 Q1871.84 369.026 1878.06 369.026 Q1880.83 369.026 1883.54 368.297 Q1886.29 367.533 1888.99 366.04 L1888.99 371.943 Q1886.32 373.193 1883.44 373.818 Q1880.59 374.443 1877.36 374.443 Q1868.58 374.443 1863.4 368.922 Q1858.23 363.401 1858.23 354.026 Q1858.23 344.512 1863.44 339.061 Q1868.68 333.61 1877.78 333.61 Q1880.73 333.61 1883.54 334.235 Q1886.35 334.825 1888.99 336.04 Z" fill="#000000" fill-rule="evenodd" fill-opacity="1" /><path clip-path="url(#clip130)" d="M1933.37 352.394 L1933.37 355.519 L1903.99 355.519 Q1904.41 362.116 1907.95 365.589 Q1911.53 369.026 1917.88 369.026 Q1921.56 369.026 1925 368.123 Q1928.47 367.22 1931.88 365.415 L1931.88 371.457 Q1928.44 372.915 1924.83 373.679 Q1921.22 374.443 1917.5 374.443 Q1908.19 374.443 1902.74 369.026 Q1897.33 363.609 1897.33 354.373 Q1897.33 344.825 1902.47 339.235 Q1907.64 333.61 1916.39 333.61 Q1924.24 333.61 1928.78 338.679 Q1933.37 343.714 1933.37 352.394 M1926.98 350.519 Q1926.91 345.276 1924.03 342.151 Q1921.18 339.026 1916.46 339.026 Q1911.11 339.026 1907.88 342.047 Q1904.69 345.068 1904.2 350.554 L1926.98 350.519 Z" fill="#000000" fill-rule="evenodd" fill-opacity="1" /><polyline clip-path="url(#clip130)" style="stroke:#008000; stroke-linecap:butt; stroke-linejoin:round; stroke-width:6; stroke-opacity:1; fill:none" stroke-dasharray="3, 6" points="
  1444.7,438.236 1581.3,438.236 
  "/>
<path clip-path="url(#clip130)" d="M1604.06 412.316 L1613.51 412.316 L1636.49 455.684 L1636.49 412.316 L1643.3 412.316 L1643.3 464.156 L1633.86 464.156 L1610.87 420.788 L1610.87 464.156 L1604.06 464.156 L1604.06 412.316 Z" fill="#000000" fill-rule="evenodd" fill-opacity="1" /><path clip-path="url(#clip130)" d="M1690.24 443.114 L1690.24 446.239 L1660.87 446.239 Q1661.29 452.836 1664.83 456.309 Q1668.4 459.746 1674.76 459.746 Q1678.44 459.746 1681.88 458.843 Q1685.35 457.94 1688.75 456.135 L1688.75 462.177 Q1685.31 463.635 1681.7 464.399 Q1678.09 465.163 1674.38 465.163 Q1665.07 465.163 1659.62 459.746 Q1654.2 454.329 1654.2 445.093 Q1654.2 435.545 1659.34 429.955 Q1664.52 424.33 1673.27 424.33 Q1681.11 424.33 1685.66 429.399 Q1690.24 434.434 1690.24 443.114 M1683.86 441.239 Q1683.79 435.996 1680.9 432.871 Q1678.06 429.746 1673.33 429.746 Q1667.99 429.746 1664.76 432.767 Q1661.56 435.788 1661.08 441.274 L1683.86 441.239 Z" fill="#000000" fill-rule="evenodd" fill-opacity="1" /><path clip-path="url(#clip130)" d="M1700.07 448.809 L1700.07 425.267 L1706.46 425.267 L1706.46 448.566 Q1706.46 454.086 1708.61 456.864 Q1710.77 459.607 1715.07 459.607 Q1720.24 459.607 1723.23 456.309 Q1726.25 453.01 1726.25 447.316 L1726.25 425.267 L1732.64 425.267 L1732.64 464.156 L1726.25 464.156 L1726.25 458.184 Q1723.92 461.725 1720.83 463.461 Q1717.78 465.163 1713.72 465.163 Q1707.02 465.163 1703.54 460.996 Q1700.07 456.829 1700.07 448.809 M1716.15 424.33 L1716.15 424.33 Z" fill="#000000" fill-rule="evenodd" fill-opacity="1" /><path clip-path="url(#clip130)" d="M1768.33 431.239 Q1767.26 430.614 1765.97 430.336 Q1764.72 430.024 1763.2 430.024 Q1757.78 430.024 1754.86 433.566 Q1751.98 437.073 1751.98 443.67 L1751.98 464.156 L1745.56 464.156 L1745.56 425.267 L1751.98 425.267 L1751.98 431.309 Q1753.99 427.767 1757.22 426.066 Q1760.45 424.33 1765.07 424.33 Q1765.73 424.33 1766.53 424.434 Q1767.33 424.503 1768.3 424.677 L1768.33 431.239 Z" fill="#000000" fill-rule="evenodd" fill-opacity="1" /><path clip-path="url(#clip130)" d="M1792.71 444.607 Q1784.97 444.607 1781.98 446.378 Q1778.99 448.149 1778.99 452.42 Q1778.99 455.822 1781.22 457.836 Q1783.47 459.815 1787.33 459.815 Q1792.64 459.815 1795.83 456.065 Q1799.06 452.281 1799.06 446.031 L1799.06 444.607 L1792.71 444.607 M1805.45 441.968 L1805.45 464.156 L1799.06 464.156 L1799.06 458.253 Q1796.88 461.795 1793.61 463.496 Q1790.35 465.163 1785.63 465.163 Q1779.65 465.163 1776.11 461.829 Q1772.61 458.461 1772.61 452.836 Q1772.61 446.274 1776.98 442.941 Q1781.39 439.607 1790.1 439.607 L1799.06 439.607 L1799.06 438.982 Q1799.06 434.573 1796.15 432.177 Q1793.26 429.746 1788.02 429.746 Q1784.69 429.746 1781.53 430.545 Q1778.37 431.343 1775.45 432.941 L1775.45 427.038 Q1778.96 425.684 1782.26 425.024 Q1785.56 424.33 1788.68 424.33 Q1797.12 424.33 1801.29 428.705 Q1805.45 433.079 1805.45 441.968 Z" fill="#000000" fill-rule="evenodd" fill-opacity="1" /><path clip-path="url(#clip130)" d="M1818.61 410.128 L1825 410.128 L1825 464.156 L1818.61 464.156 L1818.61 410.128 Z" fill="#000000" fill-rule="evenodd" fill-opacity="1" /><path clip-path="url(#clip130)" d="M1838.65 412.316 L1868.44 412.316 L1868.44 418.218 L1845.66 418.218 L1845.66 433.496 L1866.22 433.496 L1866.22 439.399 L1845.66 439.399 L1845.66 464.156 L1838.65 464.156 L1838.65 412.316 Z" fill="#000000" fill-rule="evenodd" fill-opacity="1" /><path clip-path="url(#clip130)" d="M1879.55 412.316 L1890 412.316 L1903.23 447.593 L1916.53 412.316 L1926.98 412.316 L1926.98 464.156 L1920.14 464.156 L1920.14 418.635 L1906.77 454.19 L1899.72 454.19 L1886.35 418.635 L1886.35 464.156 L1879.55 464.156 L1879.55 412.316 Z" fill="#000000" fill-rule="evenodd" fill-opacity="1" /><path clip-path="url(#clip130)" d="M1940.1 412.316 L1947.15 412.316 L1947.15 443.809 Q1947.15 452.142 1950.17 455.822 Q1953.19 459.468 1959.97 459.468 Q1966.7 459.468 1969.72 455.822 Q1972.74 452.142 1972.74 443.809 L1972.74 412.316 L1979.79 412.316 L1979.79 444.677 Q1979.79 454.815 1974.76 459.989 Q1969.76 465.163 1959.97 465.163 Q1950.14 465.163 1945.1 459.989 Q1940.1 454.815 1940.1 444.677 L1940.1 412.316 Z" fill="#000000" fill-rule="evenodd" fill-opacity="1" /><path clip-path="url(#clip130)" d="M2030.62 410.198 Q2025.97 418.184 2023.71 425.996 Q2021.46 433.809 2021.46 441.829 Q2021.46 449.85 2023.71 457.732 Q2026.01 465.579 2030.62 473.531 L2025.07 473.531 Q2019.86 465.371 2017.26 457.489 Q2014.69 449.607 2014.69 441.829 Q2014.69 434.086 2017.26 426.239 Q2019.83 418.392 2025.07 410.198 L2030.62 410.198 Z" fill="#000000" fill-rule="evenodd" fill-opacity="1" /><path clip-path="url(#clip130)" d="M2049.96 458.253 L2074.44 458.253 L2074.44 464.156 L2041.53 464.156 L2041.53 458.253 Q2045.52 454.121 2052.4 447.177 Q2059.3 440.198 2061.08 438.184 Q2064.44 434.399 2065.76 431.795 Q2067.12 429.156 2067.12 426.621 Q2067.12 422.489 2064.2 419.885 Q2061.32 417.281 2056.67 417.281 Q2053.37 417.281 2049.69 418.427 Q2046.04 419.573 2041.87 421.899 L2041.87 414.816 Q2046.11 413.114 2049.79 412.246 Q2053.47 411.378 2056.53 411.378 Q2064.58 411.378 2069.37 415.406 Q2074.17 419.434 2074.17 426.17 Q2074.17 429.364 2072.95 432.246 Q2071.77 435.093 2068.61 438.982 Q2067.74 439.989 2063.09 444.816 Q2058.44 449.607 2049.96 458.253 Z" fill="#000000" fill-rule="evenodd" fill-opacity="1" /><path clip-path="url(#clip130)" d="M2089.24 412.316 L2116.77 412.316 L2116.77 418.218 L2095.66 418.218 L2095.66 430.927 Q2097.19 430.406 2098.71 430.163 Q2100.24 429.885 2101.77 429.885 Q2110.45 429.885 2115.52 434.642 Q2120.59 439.399 2120.59 447.524 Q2120.59 455.892 2115.38 460.545 Q2110.17 465.163 2100.69 465.163 Q2097.43 465.163 2094.03 464.607 Q2090.66 464.052 2087.05 462.94 L2087.05 455.892 Q2090.17 457.593 2093.51 458.427 Q2096.84 459.26 2100.55 459.26 Q2106.56 459.26 2110.07 456.1 Q2113.58 452.94 2113.58 447.524 Q2113.58 442.107 2110.07 438.948 Q2106.56 435.788 2100.55 435.788 Q2097.74 435.788 2094.93 436.413 Q2092.15 437.038 2089.24 438.357 L2089.24 412.316 Z" fill="#000000" fill-rule="evenodd" fill-opacity="1" /><path clip-path="url(#clip130)" d="M2149.41 416.934 Q2143.99 416.934 2141.25 422.281 Q2138.54 427.593 2138.54 438.288 Q2138.54 448.947 2141.25 454.295 Q2143.99 459.607 2149.41 459.607 Q2154.86 459.607 2157.57 454.295 Q2160.31 448.947 2160.31 438.288 Q2160.31 427.593 2157.57 422.281 Q2154.86 416.934 2149.41 416.934 M2149.41 411.378 Q2158.12 411.378 2162.71 418.288 Q2167.33 425.163 2167.33 438.288 Q2167.33 451.378 2162.71 458.288 Q2158.12 465.163 2149.41 465.163 Q2140.69 465.163 2136.08 458.288 Q2131.49 451.378 2131.49 438.288 Q2131.49 425.163 2136.08 418.288 Q2140.69 411.378 2149.41 411.378 Z" fill="#000000" fill-rule="evenodd" fill-opacity="1" /><path clip-path="url(#clip130)" d="M2194.65 416.934 Q2189.23 416.934 2186.49 422.281 Q2183.78 427.593 2183.78 438.288 Q2183.78 448.947 2186.49 454.295 Q2189.23 459.607 2194.65 459.607 Q2200.1 459.607 2202.81 454.295 Q2205.55 448.947 2205.55 438.288 Q2205.55 427.593 2202.81 422.281 Q2200.1 416.934 2194.65 416.934 M2194.65 411.378 Q2203.37 411.378 2207.95 418.288 Q2212.57 425.163 2212.57 438.288 Q2212.57 451.378 2207.95 458.288 Q2203.37 465.163 2194.65 465.163 Q2185.94 465.163 2181.32 458.288 Q2176.73 451.378 2176.73 438.288 Q2176.73 425.163 2181.32 418.288 Q2185.94 411.378 2194.65 411.378 Z" fill="#000000" fill-rule="evenodd" fill-opacity="1" /><path clip-path="url(#clip130)" d="M2222.98 410.198 L2228.54 410.198 Q2233.75 418.392 2236.32 426.239 Q2238.92 434.086 2238.92 441.829 Q2238.92 449.607 2236.32 457.489 Q2233.75 465.371 2228.54 473.531 L2222.98 473.531 Q2227.6 465.579 2229.86 457.732 Q2232.15 449.85 2232.15 441.829 Q2232.15 433.809 2229.86 425.996 Q2227.6 418.184 2222.98 410.198 Z" fill="#000000" fill-rule="evenodd" fill-opacity="1" /><polyline clip-path="url(#clip130)" style="stroke:#008000; stroke-linecap:butt; stroke-linejoin:round; stroke-width:6; stroke-opacity:1; fill:none" points="
  1444.7,528.956 1581.3,528.956 
  "/>
<path clip-path="url(#clip130)" d="M1604.06 503.036 L1613.51 503.036 L1636.49 546.404 L1636.49 503.036 L1643.3 503.036 L1643.3 554.876 L1633.86 554.876 L1610.87 511.508 L1610.87 554.876 L1604.06 554.876 L1604.06 503.036 Z" fill="#000000" fill-rule="evenodd" fill-opacity="1" /><path clip-path="url(#clip130)" d="M1690.24 533.834 L1690.24 536.959 L1660.87 536.959 Q1661.29 543.556 1664.83 547.029 Q1668.4 550.466 1674.76 550.466 Q1678.44 550.466 1681.88 549.563 Q1685.35 548.66 1688.75 546.855 L1688.75 552.897 Q1685.31 554.355 1681.7 555.119 Q1678.09 555.883 1674.38 555.883 Q1665.07 555.883 1659.62 550.466 Q1654.2 545.049 1654.2 535.813 Q1654.2 526.265 1659.34 520.675 Q1664.52 515.05 1673.27 515.05 Q1681.11 515.05 1685.66 520.119 Q1690.24 525.154 1690.24 533.834 M1683.86 531.959 Q1683.79 526.716 1680.9 523.591 Q1678.06 520.466 1673.33 520.466 Q1667.99 520.466 1664.76 523.487 Q1661.56 526.508 1661.08 531.994 L1683.86 531.959 Z" fill="#000000" fill-rule="evenodd" fill-opacity="1" /><path clip-path="url(#clip130)" d="M1700.07 539.529 L1700.07 515.987 L1706.46 515.987 L1706.46 539.286 Q1706.46 544.806 1708.61 547.584 Q1710.77 550.327 1715.07 550.327 Q1720.24 550.327 1723.23 547.029 Q1726.25 543.73 1726.25 538.036 L1726.25 515.987 L1732.64 515.987 L1732.64 554.876 L1726.25 554.876 L1726.25 548.904 Q1723.92 552.445 1720.83 554.181 Q1717.78 555.883 1713.72 555.883 Q1707.02 555.883 1703.54 551.716 Q1700.07 547.549 1700.07 539.529 M1716.15 515.05 L1716.15 515.05 Z" fill="#000000" fill-rule="evenodd" fill-opacity="1" /><path clip-path="url(#clip130)" d="M1768.33 521.959 Q1767.26 521.334 1765.97 521.056 Q1764.72 520.744 1763.2 520.744 Q1757.78 520.744 1754.86 524.286 Q1751.98 527.793 1751.98 534.39 L1751.98 554.876 L1745.56 554.876 L1745.56 515.987 L1751.98 515.987 L1751.98 522.029 Q1753.99 518.487 1757.22 516.786 Q1760.45 515.05 1765.07 515.05 Q1765.73 515.05 1766.53 515.154 Q1767.33 515.223 1768.3 515.397 L1768.33 521.959 Z" fill="#000000" fill-rule="evenodd" fill-opacity="1" /><path clip-path="url(#clip130)" d="M1792.71 535.327 Q1784.97 535.327 1781.98 537.098 Q1778.99 538.869 1778.99 543.14 Q1778.99 546.542 1781.22 548.556 Q1783.47 550.535 1787.33 550.535 Q1792.64 550.535 1795.83 546.785 Q1799.06 543.001 1799.06 536.751 L1799.06 535.327 L1792.71 535.327 M1805.45 532.688 L1805.45 554.876 L1799.06 554.876 L1799.06 548.973 Q1796.88 552.515 1793.61 554.216 Q1790.35 555.883 1785.63 555.883 Q1779.65 555.883 1776.11 552.549 Q1772.61 549.181 1772.61 543.556 Q1772.61 536.994 1776.98 533.661 Q1781.39 530.327 1790.1 530.327 L1799.06 530.327 L1799.06 529.702 Q1799.06 525.293 1796.15 522.897 Q1793.26 520.466 1788.02 520.466 Q1784.69 520.466 1781.53 521.265 Q1778.37 522.063 1775.45 523.661 L1775.45 517.758 Q1778.96 516.404 1782.26 515.744 Q1785.56 515.05 1788.68 515.05 Q1797.12 515.05 1801.29 519.425 Q1805.45 523.799 1805.45 532.688 Z" fill="#000000" fill-rule="evenodd" fill-opacity="1" /><path clip-path="url(#clip130)" d="M1818.61 500.848 L1825 500.848 L1825 554.876 L1818.61 554.876 L1818.61 500.848 Z" fill="#000000" fill-rule="evenodd" fill-opacity="1" /><path clip-path="url(#clip130)" d="M1838.65 503.036 L1868.44 503.036 L1868.44 508.938 L1845.66 508.938 L1845.66 524.216 L1866.22 524.216 L1866.22 530.119 L1845.66 530.119 L1845.66 554.876 L1838.65 554.876 L1838.65 503.036 Z" fill="#000000" fill-rule="evenodd" fill-opacity="1" /><path clip-path="url(#clip130)" d="M1879.55 503.036 L1890 503.036 L1903.23 538.313 L1916.53 503.036 L1926.98 503.036 L1926.98 554.876 L1920.14 554.876 L1920.14 509.355 L1906.77 544.91 L1899.72 544.91 L1886.35 509.355 L1886.35 554.876 L1879.55 554.876 L1879.55 503.036 Z" fill="#000000" fill-rule="evenodd" fill-opacity="1" /><path clip-path="url(#clip130)" d="M1940.1 503.036 L1947.15 503.036 L1947.15 534.529 Q1947.15 542.862 1950.17 546.542 Q1953.19 550.188 1959.97 550.188 Q1966.7 550.188 1969.72 546.542 Q1972.74 542.862 1972.74 534.529 L1972.74 503.036 L1979.79 503.036 L1979.79 535.397 Q1979.79 545.535 1974.76 550.709 Q1969.76 555.883 1959.97 555.883 Q1950.14 555.883 1945.1 550.709 Q1940.1 545.535 1940.1 535.397 L1940.1 503.036 Z" fill="#000000" fill-rule="evenodd" fill-opacity="1" /><path clip-path="url(#clip130)" d="M2030.62 500.918 Q2025.97 508.904 2023.71 516.716 Q2021.46 524.529 2021.46 532.549 Q2021.46 540.57 2023.71 548.452 Q2026.01 556.299 2030.62 564.251 L2025.07 564.251 Q2019.86 556.091 2017.26 548.209 Q2014.69 540.327 2014.69 532.549 Q2014.69 524.806 2017.26 516.959 Q2019.83 509.112 2025.07 500.918 L2030.62 500.918 Z" fill="#000000" fill-rule="evenodd" fill-opacity="1" /><path clip-path="url(#clip130)" d="M2043.99 503.036 L2071.53 503.036 L2071.53 508.938 L2050.42 508.938 L2050.42 521.647 Q2051.94 521.126 2053.47 520.883 Q2055 520.605 2056.53 520.605 Q2065.21 520.605 2070.28 525.362 Q2075.35 530.119 2075.35 538.244 Q2075.35 546.612 2070.14 551.265 Q2064.93 555.883 2055.45 555.883 Q2052.19 555.883 2048.78 555.327 Q2045.42 554.772 2041.81 553.66 L2041.81 546.612 Q2044.93 548.313 2048.26 549.147 Q2051.6 549.98 2055.31 549.98 Q2061.32 549.98 2064.83 546.82 Q2068.33 543.66 2068.33 538.244 Q2068.33 532.827 2064.83 529.668 Q2061.32 526.508 2055.31 526.508 Q2052.5 526.508 2049.69 527.133 Q2046.91 527.758 2043.99 529.077 L2043.99 503.036 Z" fill="#000000" fill-rule="evenodd" fill-opacity="1" /><path clip-path="url(#clip130)" d="M2104.17 507.654 Q2098.75 507.654 2096.01 513.001 Q2093.3 518.313 2093.3 529.008 Q2093.3 539.667 2096.01 545.015 Q2098.75 550.327 2104.17 550.327 Q2109.62 550.327 2112.33 545.015 Q2115.07 539.667 2115.07 529.008 Q2115.07 518.313 2112.33 513.001 Q2109.62 507.654 2104.17 507.654 M2104.17 502.098 Q2112.88 502.098 2117.46 509.008 Q2122.08 515.883 2122.08 529.008 Q2122.08 542.098 2117.46 549.008 Q2112.88 555.883 2104.17 555.883 Q2095.45 555.883 2090.83 549.008 Q2086.25 542.098 2086.25 529.008 Q2086.25 515.883 2090.83 509.008 Q2095.45 502.098 2104.17 502.098 Z" fill="#000000" fill-rule="evenodd" fill-opacity="1" /><path clip-path="url(#clip130)" d="M2149.41 507.654 Q2143.99 507.654 2141.25 513.001 Q2138.54 518.313 2138.54 529.008 Q2138.54 539.667 2141.25 545.015 Q2143.99 550.327 2149.41 550.327 Q2154.86 550.327 2157.57 545.015 Q2160.31 539.667 2160.31 529.008 Q2160.31 518.313 2157.57 513.001 Q2154.86 507.654 2149.41 507.654 M2149.41 502.098 Q2158.12 502.098 2162.71 509.008 Q2167.33 515.883 2167.33 529.008 Q2167.33 542.098 2162.71 549.008 Q2158.12 555.883 2149.41 555.883 Q2140.69 555.883 2136.08 549.008 Q2131.49 542.098 2131.49 529.008 Q2131.49 515.883 2136.08 509.008 Q2140.69 502.098 2149.41 502.098 Z" fill="#000000" fill-rule="evenodd" fill-opacity="1" /><path clip-path="url(#clip130)" d="M2194.65 507.654 Q2189.23 507.654 2186.49 513.001 Q2183.78 518.313 2183.78 529.008 Q2183.78 539.667 2186.49 545.015 Q2189.23 550.327 2194.65 550.327 Q2200.1 550.327 2202.81 545.015 Q2205.55 539.667 2205.55 529.008 Q2205.55 518.313 2202.81 513.001 Q2200.1 507.654 2194.65 507.654 M2194.65 502.098 Q2203.37 502.098 2207.95 509.008 Q2212.57 515.883 2212.57 529.008 Q2212.57 542.098 2207.95 549.008 Q2203.37 555.883 2194.65 555.883 Q2185.94 555.883 2181.32 549.008 Q2176.73 542.098 2176.73 529.008 Q2176.73 515.883 2181.32 509.008 Q2185.94 502.098 2194.65 502.098 Z" fill="#000000" fill-rule="evenodd" fill-opacity="1" /><path clip-path="url(#clip130)" d="M2222.98 500.918 L2228.54 500.918 Q2233.75 509.112 2236.32 516.959 Q2238.92 524.806 2238.92 532.549 Q2238.92 540.327 2236.32 548.209 Q2233.75 556.091 2228.54 564.251 L2222.98 564.251 Q2227.6 556.299 2229.86 548.452 Q2232.15 540.57 2232.15 532.549 Q2232.15 524.529 2229.86 516.716 Q2227.6 508.904 2222.98 500.918 Z" fill="#000000" fill-rule="evenodd" fill-opacity="1" /></svg>
