<?xml version="1.0" encoding="utf-8"?>
<svg xmlns="http://www.w3.org/2000/svg" xmlns:xlink="http://www.w3.org/1999/xlink" width="600" height="400" viewBox="0 0 2400 1600">
<defs>
  <clipPath id="clip060">
    <rect x="0" y="0" width="2400" height="1600"/>
  </clipPath>
</defs>
<path clip-path="url(#clip060)" d="
M0 1600 L2400 1600 L2400 0 L0 0  Z
  " fill="#ffffff" fill-rule="evenodd" fill-opacity="1"/>
<defs>
  <clipPath id="clip061">
    <rect x="480" y="0" width="1681" height="1600"/>
  </clipPath>
</defs>
<path clip-path="url(#clip060)" d="
M245.309 1401.58 L2352.76 1401.58 L2352.76 123.472 L245.309 123.472  Z
  " fill="#ffffff" fill-rule="evenodd" fill-opacity="1"/>
<defs>
  <clipPath id="clip062">
    <rect x="245" y="123" width="2108" height="1279"/>
  </clipPath>
</defs>
<polyline clip-path="url(#clip062)" style="stroke:#000000; stroke-linecap:butt; stroke-linejoin:round; stroke-width:2; stroke-opacity:0.1; fill:none" points="
  304.954,1401.58 304.954,123.472 
  "/>
<polyline clip-path="url(#clip062)" style="stroke:#000000; stroke-linecap:butt; stroke-linejoin:round; stroke-width:2; stroke-opacity:0.1; fill:none" points="
  801.993,1401.58 801.993,123.472 
  "/>
<polyline clip-path="url(#clip062)" style="stroke:#000000; stroke-linecap:butt; stroke-linejoin:round; stroke-width:2; stroke-opacity:0.1; fill:none" points="
  1299.03,1401.58 1299.03,123.472 
  "/>
<polyline clip-path="url(#clip062)" style="stroke:#000000; stroke-linecap:butt; stroke-linejoin:round; stroke-width:2; stroke-opacity:0.1; fill:none" points="
  1796.07,1401.58 1796.07,123.472 
  "/>
<polyline clip-path="url(#clip062)" style="stroke:#000000; stroke-linecap:butt; stroke-linejoin:round; stroke-width:2; stroke-opacity:0.1; fill:none" points="
  2293.11,1401.58 2293.11,123.472 
  "/>
<polyline clip-path="url(#clip060)" style="stroke:#000000; stroke-linecap:butt; stroke-linejoin:round; stroke-width:4; stroke-opacity:1; fill:none" points="
  245.309,1401.58 2352.76,1401.58 
  "/>
<polyline clip-path="url(#clip060)" style="stroke:#000000; stroke-linecap:butt; stroke-linejoin:round; stroke-width:4; stroke-opacity:1; fill:none" points="
  304.954,1401.58 304.954,1382.68 
  "/>
<polyline clip-path="url(#clip060)" style="stroke:#000000; stroke-linecap:butt; stroke-linejoin:round; stroke-width:4; stroke-opacity:1; fill:none" points="
  801.993,1401.58 801.993,1382.68 
  "/>
<polyline clip-path="url(#clip060)" style="stroke:#000000; stroke-linecap:butt; stroke-linejoin:round; stroke-width:4; stroke-opacity:1; fill:none" points="
  1299.03,1401.58 1299.03,1382.68 
  "/>
<polyline clip-path="url(#clip060)" style="stroke:#000000; stroke-linecap:butt; stroke-linejoin:round; stroke-width:4; stroke-opacity:1; fill:none" points="
  1796.07,1401.58 1796.07,1382.68 
  "/>
<polyline clip-path="url(#clip060)" style="stroke:#000000; stroke-linecap:butt; stroke-linejoin:round; stroke-width:4; stroke-opacity:1; fill:none" points="
  2293.11,1401.58 2293.11,1382.68 
  "/>
<path clip-path="url(#clip060)" d="M304.954 1438.36 Q299.537 1438.36 296.794 1443.71 Q294.086 1449.02 294.086 1459.71 Q294.086 1470.37 296.794 1475.72 Q299.537 1481.03 304.954 1481.03 Q310.405 1481.03 313.113 1475.72 Q315.856 1470.37 315.856 1459.71 Q315.856 1449.02 313.113 1443.71 Q310.405 1438.36 304.954 1438.36 M304.954 1432.8 Q313.669 1432.8 318.252 1439.71 Q322.87 1446.59 322.87 1459.71 Q322.87 1472.8 318.252 1479.71 Q313.669 1486.59 304.954 1486.59 Q296.238 1486.59 291.62 1479.71 Q287.037 1472.8 287.037 1459.71 Q287.037 1446.59 291.62 1439.71 Q296.238 1432.8 304.954 1432.8 Z" fill="#000000" fill-rule="evenodd" fill-opacity="1" /><path clip-path="url(#clip060)" d="M787.566 1479.68 L799.024 1479.68 L799.024 1440.13 L786.559 1442.63 L786.559 1436.24 L798.955 1433.74 L805.969 1433.74 L805.969 1479.68 L817.427 1479.68 L817.427 1485.58 L787.566 1485.58 L787.566 1479.68 Z" fill="#000000" fill-rule="evenodd" fill-opacity="1" /><path clip-path="url(#clip060)" d="M1291.01 1479.68 L1315.49 1479.68 L1315.49 1485.58 L1282.57 1485.58 L1282.57 1479.68 Q1286.57 1475.55 1293.44 1468.6 Q1300.35 1461.62 1302.12 1459.61 Q1305.49 1455.82 1306.81 1453.22 Q1308.16 1450.58 1308.16 1448.05 Q1308.16 1443.91 1305.25 1441.31 Q1302.37 1438.71 1297.71 1438.71 Q1294.41 1438.71 1290.73 1439.85 Q1287.09 1441 1282.92 1443.32 L1282.92 1436.24 Q1287.16 1434.54 1290.84 1433.67 Q1294.52 1432.8 1297.57 1432.8 Q1305.63 1432.8 1310.42 1436.83 Q1315.21 1440.86 1315.21 1447.59 Q1315.21 1450.79 1314 1453.67 Q1312.82 1456.52 1309.66 1460.41 Q1308.79 1461.41 1304.14 1466.24 Q1299.48 1471.03 1291.01 1479.68 Z" fill="#000000" fill-rule="evenodd" fill-opacity="1" /><path clip-path="url(#clip060)" d="M1802.44 1457.63 Q1807.48 1458.7 1810.29 1462.11 Q1813.14 1465.51 1813.14 1470.51 Q1813.14 1478.18 1807.86 1482.39 Q1802.58 1486.59 1792.86 1486.59 Q1789.6 1486.59 1786.12 1485.93 Q1782.69 1485.3 1779.01 1484.02 L1779.01 1477.25 Q1781.92 1478.95 1785.39 1479.82 Q1788.87 1480.68 1792.65 1480.68 Q1799.25 1480.68 1802.69 1478.08 Q1806.16 1475.48 1806.16 1470.51 Q1806.16 1465.93 1802.93 1463.36 Q1799.73 1460.75 1794.01 1460.75 L1787.96 1460.75 L1787.96 1454.99 L1794.28 1454.99 Q1799.46 1454.99 1802.2 1452.94 Q1804.94 1450.86 1804.94 1446.97 Q1804.94 1442.98 1802.1 1440.86 Q1799.28 1438.71 1794.01 1438.71 Q1791.12 1438.71 1787.83 1439.33 Q1784.53 1439.96 1780.57 1441.27 L1780.57 1435.02 Q1784.56 1433.91 1788.03 1433.36 Q1791.54 1432.8 1794.63 1432.8 Q1802.62 1432.8 1807.27 1436.45 Q1811.92 1440.06 1811.92 1446.24 Q1811.92 1450.55 1809.46 1453.53 Q1806.99 1456.48 1802.44 1457.63 Z" fill="#000000" fill-rule="evenodd" fill-opacity="1" /><path clip-path="url(#clip060)" d="M2297.63 1439.85 L2279.92 1467.52 L2297.63 1467.52 L2297.63 1439.85 M2295.78 1433.74 L2304.6 1433.74 L2304.6 1467.52 L2312 1467.52 L2312 1473.36 L2304.6 1473.36 L2304.6 1485.58 L2297.63 1485.58 L2297.63 1473.36 L2274.22 1473.36 L2274.22 1466.59 L2295.78 1433.74 Z" fill="#000000" fill-rule="evenodd" fill-opacity="1" /><path clip-path="url(#clip060)" d="M1242.64 1527.62 L1242.64 1538.66 L1255.8 1538.66 L1255.8 1543.62 L1242.64 1543.62 L1242.64 1564.74 Q1242.64 1569.49 1243.93 1570.85 Q1245.25 1572.2 1249.24 1572.2 L1255.8 1572.2 L1255.8 1577.55 L1249.24 1577.55 Q1241.85 1577.55 1239.03 1574.8 Q1236.22 1572.03 1236.22 1564.74 L1236.22 1543.62 L1231.53 1543.62 L1231.53 1538.66 L1236.22 1538.66 L1236.22 1527.62 L1242.64 1527.62 Z" fill="#000000" fill-rule="evenodd" fill-opacity="1" /><path clip-path="url(#clip060)" d="M1286.22 1523.52 L1300.94 1523.52 L1300.94 1528.49 L1292.61 1528.49 L1292.61 1581.96 L1300.94 1581.96 L1300.94 1586.92 L1286.22 1586.92 L1286.22 1523.52 Z" fill="#000000" fill-rule="evenodd" fill-opacity="1" /><path clip-path="url(#clip060)" d="M1339.34 1539.8 L1339.34 1545.85 Q1336.64 1544.46 1333.72 1543.76 Q1330.8 1543.07 1327.68 1543.07 Q1322.92 1543.07 1320.53 1544.53 Q1318.16 1545.99 1318.16 1548.9 Q1318.16 1551.12 1319.87 1552.41 Q1321.57 1553.66 1326.71 1554.8 L1328.89 1555.29 Q1335.7 1556.75 1338.55 1559.42 Q1341.43 1562.06 1341.43 1566.82 Q1341.43 1572.24 1337.12 1575.4 Q1332.85 1578.55 1325.35 1578.55 Q1322.23 1578.55 1318.82 1577.93 Q1315.46 1577.34 1311.71 1576.12 L1311.71 1569.53 Q1315.25 1571.37 1318.69 1572.3 Q1322.12 1573.21 1325.49 1573.21 Q1330 1573.21 1332.43 1571.68 Q1334.87 1570.12 1334.87 1567.3 Q1334.87 1564.7 1333.09 1563.31 Q1331.36 1561.92 1325.42 1560.64 L1323.2 1560.12 Q1317.26 1558.87 1314.62 1556.3 Q1311.98 1553.69 1311.98 1549.18 Q1311.98 1543.69 1315.87 1540.71 Q1319.76 1537.72 1326.91 1537.72 Q1330.46 1537.72 1333.58 1538.24 Q1336.71 1538.76 1339.34 1539.8 Z" fill="#000000" fill-rule="evenodd" fill-opacity="1" /><path clip-path="url(#clip060)" d="M1366.53 1523.52 L1366.53 1586.92 L1351.81 1586.92 L1351.81 1581.96 L1360.11 1581.96 L1360.11 1528.49 L1351.81 1528.49 L1351.81 1523.52 L1366.53 1523.52 Z" fill="#000000" fill-rule="evenodd" fill-opacity="1" /><polyline clip-path="url(#clip062)" style="stroke:#000000; stroke-linecap:butt; stroke-linejoin:round; stroke-width:2; stroke-opacity:0.1; fill:none" points="
  245.309,1397.95 2352.76,1397.95 
  "/>
<polyline clip-path="url(#clip062)" style="stroke:#000000; stroke-linecap:butt; stroke-linejoin:round; stroke-width:2; stroke-opacity:0.1; fill:none" points="
  245.309,1080.23 2352.76,1080.23 
  "/>
<polyline clip-path="url(#clip062)" style="stroke:#000000; stroke-linecap:butt; stroke-linejoin:round; stroke-width:2; stroke-opacity:0.1; fill:none" points="
  245.309,762.504 2352.76,762.504 
  "/>
<polyline clip-path="url(#clip062)" style="stroke:#000000; stroke-linecap:butt; stroke-linejoin:round; stroke-width:2; stroke-opacity:0.1; fill:none" points="
  245.309,444.783 2352.76,444.783 
  "/>
<polyline clip-path="url(#clip062)" style="stroke:#000000; stroke-linecap:butt; stroke-linejoin:round; stroke-width:2; stroke-opacity:0.1; fill:none" points="
  245.309,127.062 2352.76,127.062 
  "/>
<polyline clip-path="url(#clip060)" style="stroke:#000000; stroke-linecap:butt; stroke-linejoin:round; stroke-width:4; stroke-opacity:1; fill:none" points="
  245.309,1401.58 245.309,123.472 
  "/>
<polyline clip-path="url(#clip060)" style="stroke:#000000; stroke-linecap:butt; stroke-linejoin:round; stroke-width:4; stroke-opacity:1; fill:none" points="
  245.309,1397.95 264.206,1397.95 
  "/>
<polyline clip-path="url(#clip060)" style="stroke:#000000; stroke-linecap:butt; stroke-linejoin:round; stroke-width:4; stroke-opacity:1; fill:none" points="
  245.309,1080.23 264.206,1080.23 
  "/>
<polyline clip-path="url(#clip060)" style="stroke:#000000; stroke-linecap:butt; stroke-linejoin:round; stroke-width:4; stroke-opacity:1; fill:none" points="
  245.309,762.504 264.206,762.504 
  "/>
<polyline clip-path="url(#clip060)" style="stroke:#000000; stroke-linecap:butt; stroke-linejoin:round; stroke-width:4; stroke-opacity:1; fill:none" points="
  245.309,444.783 264.206,444.783 
  "/>
<polyline clip-path="url(#clip060)" style="stroke:#000000; stroke-linecap:butt; stroke-linejoin:round; stroke-width:4; stroke-opacity:1; fill:none" points="
  245.309,127.062 264.206,127.062 
  "/>
<path clip-path="url(#clip060)" d="M119.136 1398.62 L163.649 1398.62 L163.649 1404.53 L119.136 1404.53 L119.136 1398.62 Z" fill="#000000" fill-rule="evenodd" fill-opacity="1" /><path clip-path="url(#clip060)" d="M184.83 1417.96 L209.309 1417.96 L209.309 1423.87 L176.392 1423.87 L176.392 1417.96 Q180.385 1413.83 187.26 1406.89 Q194.17 1399.91 195.941 1397.89 Q199.309 1394.11 200.628 1391.51 Q201.982 1388.87 201.982 1386.33 Q201.982 1382.2 199.066 1379.6 Q196.184 1376.99 191.531 1376.99 Q188.233 1376.99 184.552 1378.14 Q180.906 1379.28 176.74 1381.61 L176.74 1374.53 Q180.976 1372.82 184.656 1371.96 Q188.337 1371.09 191.392 1371.09 Q199.448 1371.09 204.239 1375.12 Q209.031 1379.14 209.031 1385.88 Q209.031 1389.07 207.816 1391.96 Q206.635 1394.8 203.476 1398.69 Q202.607 1399.7 197.955 1404.53 Q193.302 1409.32 184.83 1417.96 Z" fill="#000000" fill-rule="evenodd" fill-opacity="1" /><path clip-path="url(#clip060)" d="M118.58 1080.9 L163.094 1080.9 L163.094 1086.8 L118.58 1086.8 L118.58 1080.9 Z" fill="#000000" fill-rule="evenodd" fill-opacity="1" /><path clip-path="url(#clip060)" d="M179.448 1100.24 L190.906 1100.24 L190.906 1060.69 L178.441 1063.19 L178.441 1056.81 L190.837 1054.31 L197.851 1054.31 L197.851 1100.24 L209.309 1100.24 L209.309 1106.15 L179.448 1106.15 L179.448 1100.24 Z" fill="#000000" fill-rule="evenodd" fill-opacity="1" /><path clip-path="url(#clip060)" d="M191.392 741.202 Q185.976 741.202 183.233 746.549 Q180.524 751.862 180.524 762.556 Q180.524 773.216 183.233 778.563 Q185.976 783.876 191.392 783.876 Q196.844 783.876 199.552 778.563 Q202.295 773.216 202.295 762.556 Q202.295 751.862 199.552 746.549 Q196.844 741.202 191.392 741.202 M191.392 735.647 Q200.107 735.647 204.691 742.556 Q209.309 749.431 209.309 762.556 Q209.309 775.646 204.691 782.556 Q200.107 789.431 191.392 789.431 Q182.677 789.431 178.059 782.556 Q173.476 775.646 173.476 762.556 Q173.476 749.431 178.059 742.556 Q182.677 735.647 191.392 735.647 Z" fill="#000000" fill-rule="evenodd" fill-opacity="1" /><path clip-path="url(#clip060)" d="M179.448 464.8 L190.906 464.8 L190.906 425.252 L178.441 427.752 L178.441 421.363 L190.837 418.863 L197.851 418.863 L197.851 464.8 L209.309 464.8 L209.309 470.703 L179.448 470.703 L179.448 464.8 Z" fill="#000000" fill-rule="evenodd" fill-opacity="1" /><path clip-path="url(#clip060)" d="M184.83 147.079 L209.309 147.079 L209.309 152.982 L176.392 152.982 L176.392 147.079 Q180.385 142.947 187.26 136.003 Q194.17 129.024 195.941 127.01 Q199.309 123.225 200.628 120.621 Q201.982 117.982 201.982 115.448 Q201.982 111.316 199.066 108.712 Q196.184 106.107 191.531 106.107 Q188.233 106.107 184.552 107.253 Q180.906 108.399 176.74 110.725 L176.74 103.642 Q180.976 101.941 184.656 101.073 Q188.337 100.205 191.392 100.205 Q199.448 100.205 204.239 104.232 Q209.031 108.26 209.031 114.996 Q209.031 118.191 207.816 121.073 Q206.635 123.92 203.476 127.809 Q202.607 128.816 197.955 133.642 Q193.302 138.434 184.83 147.079 Z" fill="#000000" fill-rule="evenodd" fill-opacity="1" /><path clip-path="url(#clip060)" d="M35.6047 1073.64 Q31.2992 1071.24 29.2506 1067.91 Q27.202 1064.57 27.202 1060.06 Q27.202 1053.98 31.4728 1050.68 Q35.7089 1047.39 43.5561 1047.39 L67.0282 1047.39 L67.0282 1053.81 L43.7644 1053.81 Q38.1741 1053.81 35.4658 1055.79 Q32.7575 1057.77 32.7575 1061.83 Q32.7575 1066.8 36.0561 1069.68 Q39.3547 1072.56 45.0491 1072.56 L67.0282 1072.56 L67.0282 1078.98 L43.7644 1078.98 Q38.1394 1078.98 35.4658 1080.96 Q32.7575 1082.94 32.7575 1087.07 Q32.7575 1091.97 36.0908 1094.85 Q39.3894 1097.73 45.0491 1097.73 L67.0282 1097.73 L67.0282 1104.16 L28.1395 1104.16 L28.1395 1097.73 L34.1811 1097.73 Q30.6047 1095.55 28.9034 1092.49 Q27.202 1089.43 27.202 1085.23 Q27.202 1081 29.3547 1078.05 Q31.5075 1075.06 35.6047 1073.64 Z" fill="#000000" fill-rule="evenodd" fill-opacity="1" /><path clip-path="url(#clip060)" d="M47.4797 1016.97 Q47.4797 1024.71 49.2505 1027.7 Q51.0213 1030.68 55.2921 1030.68 Q58.6949 1030.68 60.7087 1028.46 Q62.6879 1026.21 62.6879 1022.35 Q62.6879 1017.04 58.9379 1013.84 Q55.1532 1010.61 48.9033 1010.61 L47.4797 1010.61 L47.4797 1016.97 M44.8408 1004.23 L67.0282 1004.23 L67.0282 1010.61 L61.1254 1010.61 Q64.6671 1012.8 66.3684 1016.07 Q68.0351 1019.33 68.0351 1024.05 Q68.0351 1030.02 64.7018 1033.57 Q61.3337 1037.07 55.7088 1037.07 Q49.1463 1037.07 45.813 1032.7 Q42.4797 1028.29 42.4797 1019.57 L42.4797 1010.61 L41.8547 1010.61 Q37.445 1010.61 35.0492 1013.53 Q32.6186 1016.41 32.6186 1021.66 Q32.6186 1024.99 33.4172 1028.15 Q34.2158 1031.31 35.813 1034.23 L29.9103 1034.23 Q28.5561 1030.72 27.8964 1027.42 Q27.202 1024.12 27.202 1021 Q27.202 1012.56 31.577 1008.39 Q35.9519 1004.23 44.8408 1004.23 Z" fill="#000000" fill-rule="evenodd" fill-opacity="1" /><path clip-path="url(#clip060)" d="M29.2853 966.275 L35.3269 966.275 Q33.9381 968.983 33.2436 971.9 Q32.5492 974.817 32.5492 977.941 Q32.5492 982.698 34.0075 985.094 Q35.4658 987.455 38.3825 987.455 Q40.6047 987.455 41.8894 985.754 Q43.1394 984.053 44.2852 978.914 L44.7713 976.726 Q46.2297 969.921 48.9033 967.073 Q51.5421 964.192 56.299 964.192 Q61.7157 964.192 64.8754 968.497 Q68.0351 972.768 68.0351 980.268 Q68.0351 983.393 67.4101 986.796 Q66.8198 990.164 65.6046 993.914 L59.0074 993.914 Q60.8476 990.372 61.7851 986.935 Q62.6879 983.497 62.6879 980.129 Q62.6879 975.615 61.1601 973.185 Q59.5976 970.754 56.7852 970.754 Q54.181 970.754 52.7921 972.525 Q51.4032 974.261 50.1185 980.198 L49.5977 982.421 Q48.3477 988.358 45.7783 990.997 Q43.1741 993.636 38.6603 993.636 Q33.1742 993.636 30.1881 989.747 Q27.202 985.858 27.202 978.705 Q27.202 975.164 27.7228 972.039 Q28.2436 968.914 29.2853 966.275 Z" fill="#000000" fill-rule="evenodd" fill-opacity="1" /><path clip-path="url(#clip060)" d="M29.2853 929.226 L35.3269 929.226 Q33.9381 931.935 33.2436 934.851 Q32.5492 937.768 32.5492 940.893 Q32.5492 945.65 34.0075 948.046 Q35.4658 950.407 38.3825 950.407 Q40.6047 950.407 41.8894 948.706 Q43.1394 947.004 44.2852 941.865 L44.7713 939.678 Q46.2297 932.872 48.9033 930.025 Q51.5421 927.143 56.299 927.143 Q61.7157 927.143 64.8754 931.449 Q68.0351 935.72 68.0351 943.219 Q68.0351 946.344 67.4101 949.747 Q66.8198 953.115 65.6046 956.865 L59.0074 956.865 Q60.8476 953.324 61.7851 949.886 Q62.6879 946.449 62.6879 943.081 Q62.6879 938.567 61.1601 936.136 Q59.5976 933.706 56.7852 933.706 Q54.181 933.706 52.7921 935.476 Q51.4032 937.213 50.1185 943.15 L49.5977 945.372 Q48.3477 951.31 45.7783 953.949 Q43.1741 956.587 38.6603 956.587 Q33.1742 956.587 30.1881 952.699 Q27.202 948.81 27.202 941.657 Q27.202 938.115 27.7228 934.99 Q28.2436 931.865 29.2853 929.226 Z" fill="#000000" fill-rule="evenodd" fill-opacity="1" /><path clip-path="url(#clip060)" d="M28.1395 898.949 L28.1395 892.178 L60.7782 880.025 L28.1395 867.873 L28.1395 861.102 L67.0282 875.685 L67.0282 884.366 L28.1395 898.949 Z" fill="#000000" fill-rule="evenodd" fill-opacity="1" /><path clip-path="url(#clip060)" d="M45.9866 819.019 L49.1116 819.019 L49.1116 848.394 Q55.7088 847.977 59.181 844.435 Q62.6185 840.859 62.6185 834.505 Q62.6185 830.824 61.7157 827.387 Q60.8129 823.915 59.0074 820.512 L65.049 820.512 Q66.5073 823.949 67.2712 827.56 Q68.0351 831.171 68.0351 834.887 Q68.0351 844.192 62.6185 849.644 Q57.2018 855.06 47.9658 855.06 Q38.4172 855.06 32.827 849.921 Q27.202 844.748 27.202 835.998 Q27.202 828.151 32.2714 823.602 Q37.3061 819.019 45.9866 819.019 M44.1116 825.408 Q38.8686 825.477 35.7436 828.359 Q32.6186 831.206 32.6186 835.928 Q32.6186 841.276 35.6394 844.505 Q38.6603 847.699 44.1463 848.185 L44.1116 825.408 Z" fill="#000000" fill-rule="evenodd" fill-opacity="1" /><path clip-path="url(#clip060)" d="M13.0007 808.533 L13.0007 802.144 L67.0282 802.144 L67.0282 808.533 L13.0007 808.533 Z" fill="#000000" fill-rule="evenodd" fill-opacity="1" /><path clip-path="url(#clip060)" d="M32.6186 773.706 Q32.6186 778.845 36.6464 781.831 Q40.6394 784.818 47.6185 784.818 Q54.5977 784.818 58.6254 781.866 Q62.6185 778.88 62.6185 773.706 Q62.6185 768.602 58.5907 765.616 Q54.5629 762.63 47.6185 762.63 Q40.7089 762.63 36.6811 765.616 Q32.6186 768.602 32.6186 773.706 M27.202 773.706 Q27.202 765.373 32.6186 760.616 Q38.0353 755.859 47.6185 755.859 Q57.1671 755.859 62.6185 760.616 Q68.0351 765.373 68.0351 773.706 Q68.0351 782.074 62.6185 786.831 Q57.1671 791.554 47.6185 791.554 Q38.0353 791.554 32.6186 786.831 Q27.202 782.074 27.202 773.706 Z" fill="#000000" fill-rule="evenodd" fill-opacity="1" /><path clip-path="url(#clip060)" d="M29.6325 717.283 L35.6047 717.283 Q34.1117 719.991 33.3825 722.735 Q32.6186 725.443 32.6186 728.221 Q32.6186 734.436 36.5769 737.873 Q40.5005 741.311 47.6185 741.311 Q54.7366 741.311 58.6949 737.873 Q62.6185 734.436 62.6185 728.221 Q62.6185 725.443 61.8893 722.735 Q61.1254 719.991 59.6324 717.283 L65.5351 717.283 Q66.7851 719.957 67.4101 722.839 Q68.0351 725.686 68.0351 728.915 Q68.0351 737.7 62.5143 742.873 Q56.9935 748.047 47.6185 748.047 Q38.1047 748.047 32.6533 742.839 Q27.202 737.596 27.202 728.498 Q27.202 725.547 27.827 722.735 Q28.4173 719.922 29.6325 717.283 Z" fill="#000000" fill-rule="evenodd" fill-opacity="1" /><path clip-path="url(#clip060)" d="M28.1395 706.172 L28.1395 699.783 L67.0282 699.783 L67.0282 706.172 L28.1395 706.172 M13.0007 706.172 L13.0007 699.783 L21.0909 699.783 L21.0909 706.172 L13.0007 706.172 Z" fill="#000000" fill-rule="evenodd" fill-opacity="1" /><path clip-path="url(#clip060)" d="M17.0979 680.096 L28.1395 680.096 L28.1395 666.936 L33.1047 666.936 L33.1047 680.096 L54.2157 680.096 Q58.9726 680.096 60.3268 678.811 Q61.681 677.492 61.681 673.499 L61.681 666.936 L67.0282 666.936 L67.0282 673.499 Q67.0282 680.894 64.2851 683.707 Q61.5074 686.519 54.2157 686.519 L33.1047 686.519 L33.1047 691.207 L28.1395 691.207 L28.1395 686.519 L17.0979 686.519 L17.0979 680.096 Z" fill="#000000" fill-rule="evenodd" fill-opacity="1" /><path clip-path="url(#clip060)" d="M70.6392 642.353 Q77.5837 645.061 79.7017 647.631 Q81.8197 650.2 81.8197 654.506 L81.8197 659.61 L76.4726 659.61 L76.4726 655.86 Q76.4726 653.221 75.2226 651.763 Q73.9726 650.304 69.3198 648.534 L66.4032 647.388 L28.1395 663.117 L28.1395 656.346 L58.556 644.193 L28.1395 632.041 L28.1395 625.27 L70.6392 642.353 Z" fill="#000000" fill-rule="evenodd" fill-opacity="1" /><path clip-path="url(#clip060)" d="M13.0007 594.437 L13.0007 579.714 L17.9659 579.714 L17.9659 588.048 L71.4379 588.048 L71.4379 579.714 L76.4031 579.714 L76.4031 594.437 L13.0007 594.437 Z" fill="#000000" fill-rule="evenodd" fill-opacity="1" /><path clip-path="url(#clip060)" d="M35.6047 535.826 Q31.2992 533.43 29.2506 530.097 Q27.202 526.763 27.202 522.249 Q27.202 516.173 31.4728 512.875 Q35.7089 509.576 43.5561 509.576 L67.0282 509.576 L67.0282 516 L43.7644 516 Q38.1741 516 35.4658 517.979 Q32.7575 519.958 32.7575 524.02 Q32.7575 528.986 36.0561 531.867 Q39.3547 534.749 45.0491 534.749 L67.0282 534.749 L67.0282 541.173 L43.7644 541.173 Q38.1394 541.173 35.4658 543.152 Q32.7575 545.131 32.7575 549.263 Q32.7575 554.159 36.0908 557.041 Q39.3894 559.923 45.0491 559.923 L67.0282 559.923 L67.0282 566.346 L28.1395 566.346 L28.1395 559.923 L34.1811 559.923 Q30.6047 557.735 28.9034 554.68 Q27.202 551.624 27.202 547.423 Q27.202 543.187 29.3547 540.236 Q31.5075 537.249 35.6047 535.826 Z" fill="#000000" fill-rule="evenodd" fill-opacity="1" /><path clip-path="url(#clip060)" d="M15.1882 485.479 L15.1882 479.576 L73.6253 497.632 L73.6253 503.534 L15.1882 485.479 Z" fill="#000000" fill-rule="evenodd" fill-opacity="1" /><path clip-path="url(#clip060)" d="M29.2853 448.083 L35.3269 448.083 Q33.9381 450.792 33.2436 453.708 Q32.5492 456.625 32.5492 459.75 Q32.5492 464.507 34.0075 466.903 Q35.4658 469.264 38.3825 469.264 Q40.6047 469.264 41.8894 467.562 Q43.1394 465.861 44.2852 460.722 L44.7713 458.535 Q46.2297 451.729 48.9033 448.882 Q51.5421 446 56.299 446 Q61.7157 446 64.8754 450.305 Q68.0351 454.576 68.0351 462.076 Q68.0351 465.201 67.4101 468.604 Q66.8198 471.972 65.6046 475.722 L59.0074 475.722 Q60.8476 472.18 61.7851 468.743 Q62.6879 465.305 62.6879 461.937 Q62.6879 457.423 61.1601 454.993 Q59.5976 452.562 56.7852 452.562 Q54.181 452.562 52.7921 454.333 Q51.4032 456.069 50.1185 462.007 L49.5977 464.229 Q48.3477 470.166 45.7783 472.805 Q43.1741 475.444 38.6603 475.444 Q33.1742 475.444 30.1881 471.555 Q27.202 467.666 27.202 460.514 Q27.202 456.972 27.7228 453.847 Q28.2436 450.722 29.2853 448.083 Z" fill="#000000" fill-rule="evenodd" fill-opacity="1" /><path clip-path="url(#clip060)" d="M13.0007 420.896 L76.4031 420.896 L76.4031 435.618 L71.4379 435.618 L71.4379 427.319 L17.9659 427.319 L17.9659 435.618 L13.0007 435.618 L13.0007 420.896 Z" fill="#000000" fill-rule="evenodd" fill-opacity="1" /><path clip-path="url(#clip060)" d="M599.38 18.8205 L599.38 65.8515 L609.265 65.8515 Q621.782 65.8515 627.575 60.1802 Q633.408 54.509 633.408 42.2752 Q633.408 30.1225 627.575 24.4918 Q621.782 18.8205 609.265 18.8205 L599.38 18.8205 M591.198 12.096 L608.009 12.096 Q625.59 12.096 633.813 19.4281 Q642.036 26.7198 642.036 42.2752 Q642.036 57.9117 633.773 65.2439 Q625.509 72.576 608.009 72.576 L591.198 72.576 L591.198 12.096 Z" fill="#000000" fill-rule="evenodd" fill-opacity="1" /><path clip-path="url(#clip060)" d="M693.564 48.0275 L693.564 51.6733 L659.293 51.6733 Q659.779 59.3701 663.911 63.421 Q668.084 67.4314 675.497 67.4314 Q679.791 67.4314 683.801 66.3781 Q687.852 65.3249 691.822 63.2184 L691.822 70.267 Q687.812 71.9684 683.599 72.8596 Q679.386 73.7508 675.051 73.7508 Q664.195 73.7508 657.835 67.4314 Q651.516 61.1119 651.516 50.3365 Q651.516 39.1965 657.511 32.6746 Q663.547 26.1121 673.755 26.1121 Q682.91 26.1121 688.217 32.0264 Q693.564 37.9003 693.564 48.0275 M686.11 45.84 Q686.029 39.7232 682.667 36.0774 Q679.345 32.4315 673.836 32.4315 Q667.598 32.4315 663.83 35.9558 Q660.104 39.4801 659.536 45.8805 L686.11 45.84 Z" fill="#000000" fill-rule="evenodd" fill-opacity="1" /><path clip-path="url(#clip060)" d="M728.766 9.54393 L728.766 15.7418 L721.637 15.7418 Q717.626 15.7418 716.046 17.3622 Q714.507 18.9825 714.507 23.1955 L714.507 27.2059 L726.781 27.2059 L726.781 32.9987 L714.507 32.9987 L714.507 72.576 L707.013 72.576 L707.013 32.9987 L699.883 32.9987 L699.883 27.2059 L707.013 27.2059 L707.013 24.0462 Q707.013 16.471 710.537 13.0277 Q714.062 9.54393 721.718 9.54393 L728.766 9.54393 Z" fill="#000000" fill-rule="evenodd" fill-opacity="1" /><path clip-path="url(#clip060)" d="M755.624 49.7694 Q746.59 49.7694 743.107 51.8354 Q739.623 53.9013 739.623 58.8839 Q739.623 62.8538 742.215 65.2034 Q744.848 67.5124 749.345 67.5124 Q755.543 67.5124 759.27 63.1374 Q763.037 58.7219 763.037 51.4303 L763.037 49.7694 L755.624 49.7694 M770.491 46.6907 L770.491 72.576 L763.037 72.576 L763.037 65.6895 Q760.485 69.8214 756.677 71.8063 Q752.869 73.7508 747.36 73.7508 Q740.392 73.7508 736.261 69.8619 Q732.169 65.9325 732.169 59.3701 Q732.169 51.7138 737.273 47.825 Q742.418 43.9361 752.586 43.9361 L763.037 43.9361 L763.037 43.2069 Q763.037 38.0623 759.634 35.2672 Q756.272 32.4315 750.155 32.4315 Q746.266 32.4315 742.58 33.3632 Q738.894 34.295 735.491 36.1584 L735.491 29.2718 Q739.582 27.692 743.431 26.9223 Q747.279 26.1121 750.925 26.1121 Q760.768 26.1121 765.63 31.2163 Q770.491 36.3204 770.491 46.6907 Z" fill="#000000" fill-rule="evenodd" fill-opacity="1" /><path clip-path="url(#clip060)" d="M785.074 54.671 L785.074 27.2059 L792.528 27.2059 L792.528 54.3874 Q792.528 60.8284 795.039 64.0691 Q797.551 67.2693 802.574 67.2693 Q808.61 67.2693 812.093 63.421 Q815.618 59.5726 815.618 52.9291 L815.618 27.2059 L823.071 27.2059 L823.071 72.576 L815.618 72.576 L815.618 65.6084 Q812.904 69.7404 809.298 71.7658 Q805.734 73.7508 800.994 73.7508 Q793.176 73.7508 789.125 68.8897 Q785.074 64.0286 785.074 54.671 M803.83 26.1121 L803.83 26.1121 Z" fill="#000000" fill-rule="evenodd" fill-opacity="1" /><path clip-path="url(#clip060)" d="M838.424 9.54393 L845.878 9.54393 L845.878 72.576 L838.424 72.576 L838.424 9.54393 Z" fill="#000000" fill-rule="evenodd" fill-opacity="1" /><path clip-path="url(#clip060)" d="M868.847 14.324 L868.847 27.2059 L884.2 27.2059 L884.2 32.9987 L868.847 32.9987 L868.847 57.6282 Q868.847 63.1779 870.345 64.7578 Q871.885 66.3376 876.543 66.3376 L884.2 66.3376 L884.2 72.576 L876.543 72.576 Q867.915 72.576 864.634 69.3758 Q861.352 66.1351 861.352 57.6282 L861.352 32.9987 L855.884 32.9987 L855.884 27.2059 L861.352 27.2059 L861.352 14.324 L868.847 14.324 Z" fill="#000000" fill-rule="evenodd" fill-opacity="1" /><path clip-path="url(#clip060)" d="M895.907 62.2867 L904.454 62.2867 L904.454 72.576 L895.907 72.576 L895.907 62.2867 M895.907 29.6769 L904.454 29.6769 L904.454 39.9662 L895.907 39.9662 L895.907 29.6769 Z" fill="#000000" fill-rule="evenodd" fill-opacity="1" /><path clip-path="url(#clip060)" d="M948.649 12.096 L960.843 12.096 L976.277 53.2532 L991.792 12.096 L1003.98 12.096 L1003.98 72.576 L996.004 72.576 L996.004 19.4686 L980.409 60.9499 L972.185 60.9499 L956.589 19.4686 L956.589 72.576 L948.649 72.576 L948.649 12.096 Z" fill="#000000" fill-rule="evenodd" fill-opacity="1" /><path clip-path="url(#clip060)" d="M1040.52 49.7694 Q1031.49 49.7694 1028.01 51.8354 Q1024.52 53.9013 1024.52 58.8839 Q1024.52 62.8538 1027.12 65.2034 Q1029.75 67.5124 1034.25 67.5124 Q1040.44 67.5124 1044.17 63.1374 Q1047.94 58.7219 1047.94 51.4303 L1047.94 49.7694 L1040.52 49.7694 M1055.39 46.6907 L1055.39 72.576 L1047.94 72.576 L1047.94 65.6895 Q1045.39 69.8214 1041.58 71.8063 Q1037.77 73.7508 1032.26 73.7508 Q1025.29 73.7508 1021.16 69.8619 Q1017.07 65.9325 1017.07 59.3701 Q1017.07 51.7138 1022.17 47.825 Q1027.32 43.9361 1037.49 43.9361 L1047.94 43.9361 L1047.94 43.2069 Q1047.94 38.0623 1044.53 35.2672 Q1041.17 32.4315 1035.06 32.4315 Q1031.17 32.4315 1027.48 33.3632 Q1023.79 34.295 1020.39 36.1584 L1020.39 29.2718 Q1024.48 27.692 1028.33 26.9223 Q1032.18 26.1121 1035.82 26.1121 Q1045.67 26.1121 1050.53 31.2163 Q1055.39 36.3204 1055.39 46.6907 Z" fill="#000000" fill-rule="evenodd" fill-opacity="1" /><path clip-path="url(#clip060)" d="M1099.67 28.5427 L1099.67 35.5912 Q1096.51 33.9709 1093.1 33.1607 Q1089.7 32.3505 1086.06 32.3505 Q1080.51 32.3505 1077.71 34.0519 Q1074.96 35.7533 1074.96 39.156 Q1074.96 41.7486 1076.94 43.2475 Q1078.93 44.7058 1084.92 46.0426 L1087.47 46.6097 Q1095.41 48.3111 1098.74 51.4303 Q1102.1 54.509 1102.1 60.0587 Q1102.1 66.3781 1097.07 70.0644 Q1092.09 73.7508 1083.34 73.7508 Q1079.7 73.7508 1075.73 73.0216 Q1071.8 72.3329 1067.42 70.9151 L1067.42 63.2184 Q1071.55 65.3654 1075.56 66.4591 Q1079.57 67.5124 1083.5 67.5124 Q1088.77 67.5124 1091.61 65.73 Q1094.44 63.9071 1094.44 60.6258 Q1094.44 57.5877 1092.38 55.9673 Q1090.35 54.3469 1083.42 52.8481 L1080.83 52.2405 Q1073.9 50.7821 1070.82 47.7845 Q1067.75 44.7463 1067.75 39.4801 Q1067.75 33.0797 1072.28 29.5959 Q1076.82 26.1121 1085.16 26.1121 Q1089.3 26.1121 1092.94 26.7198 Q1096.59 27.3274 1099.67 28.5427 Z" fill="#000000" fill-rule="evenodd" fill-opacity="1" /><path clip-path="url(#clip060)" d="M1142.89 28.5427 L1142.89 35.5912 Q1139.73 33.9709 1136.33 33.1607 Q1132.93 32.3505 1129.28 32.3505 Q1123.73 32.3505 1120.93 34.0519 Q1118.18 35.7533 1118.18 39.156 Q1118.18 41.7486 1120.16 43.2475 Q1122.15 44.7058 1128.14 46.0426 L1130.7 46.6097 Q1138.64 48.3111 1141.96 51.4303 Q1145.32 54.509 1145.32 60.0587 Q1145.32 66.3781 1140.3 70.0644 Q1135.32 73.7508 1126.57 73.7508 Q1122.92 73.7508 1118.95 73.0216 Q1115.02 72.3329 1110.65 70.9151 L1110.65 63.2184 Q1114.78 65.3654 1118.79 66.4591 Q1122.8 67.5124 1126.73 67.5124 Q1131.99 67.5124 1134.83 65.73 Q1137.66 63.9071 1137.66 60.6258 Q1137.66 57.5877 1135.6 55.9673 Q1133.57 54.3469 1126.65 52.8481 L1124.05 52.2405 Q1117.13 50.7821 1114.05 47.7845 Q1110.97 44.7463 1110.97 39.4801 Q1110.97 33.0797 1115.51 29.5959 Q1120.04 26.1121 1128.39 26.1121 Q1132.52 26.1121 1136.17 26.7198 Q1139.81 27.3274 1142.89 28.5427 Z" fill="#000000" fill-rule="evenodd" fill-opacity="1" /><path clip-path="url(#clip060)" d="M1178.21 27.2059 L1186.11 27.2059 L1200.29 65.2844 L1214.47 27.2059 L1222.37 27.2059 L1205.36 72.576 L1195.23 72.576 L1178.21 27.2059 Z" fill="#000000" fill-rule="evenodd" fill-opacity="1" /><path clip-path="url(#clip060)" d="M1271.47 48.0275 L1271.47 51.6733 L1237.2 51.6733 Q1237.68 59.3701 1241.81 63.421 Q1245.99 67.4314 1253.4 67.4314 Q1257.69 67.4314 1261.7 66.3781 Q1265.75 65.3249 1269.72 63.2184 L1269.72 70.267 Q1265.71 71.9684 1261.5 72.8596 Q1257.29 73.7508 1252.95 73.7508 Q1242.1 73.7508 1235.74 67.4314 Q1229.42 61.1119 1229.42 50.3365 Q1229.42 39.1965 1235.41 32.6746 Q1241.45 26.1121 1251.66 26.1121 Q1260.81 26.1121 1266.12 32.0264 Q1271.47 37.9003 1271.47 48.0275 M1264.01 45.84 Q1263.93 39.7232 1260.57 36.0774 Q1257.25 32.4315 1251.74 32.4315 Q1245.5 32.4315 1241.73 35.9558 Q1238.01 39.4801 1237.44 45.8805 L1264.01 45.84 Z" fill="#000000" fill-rule="evenodd" fill-opacity="1" /><path clip-path="url(#clip060)" d="M1283.7 9.54393 L1291.15 9.54393 L1291.15 72.576 L1283.7 72.576 L1283.7 9.54393 Z" fill="#000000" fill-rule="evenodd" fill-opacity="1" /><path clip-path="url(#clip060)" d="M1324.33 32.4315 Q1318.33 32.4315 1314.85 37.1306 Q1311.37 41.7891 1311.37 49.9314 Q1311.37 58.0738 1314.81 62.7728 Q1318.29 67.4314 1324.33 67.4314 Q1330.29 67.4314 1333.77 62.7323 Q1337.25 58.0333 1337.25 49.9314 Q1337.25 41.8701 1333.77 37.1711 Q1330.29 32.4315 1324.33 32.4315 M1324.33 26.1121 Q1334.05 26.1121 1339.6 32.4315 Q1345.15 38.7509 1345.15 49.9314 Q1345.15 61.0714 1339.6 67.4314 Q1334.05 73.7508 1324.33 73.7508 Q1314.57 73.7508 1309.02 67.4314 Q1303.51 61.0714 1303.51 49.9314 Q1303.51 38.7509 1309.02 32.4315 Q1314.57 26.1121 1324.33 26.1121 Z" fill="#000000" fill-rule="evenodd" fill-opacity="1" /><path clip-path="url(#clip060)" d="M1390.16 28.9478 L1390.16 35.9153 Q1387 34.1734 1383.8 33.3227 Q1380.64 32.4315 1377.4 32.4315 Q1370.15 32.4315 1366.14 37.0496 Q1362.13 41.6271 1362.13 49.9314 Q1362.13 58.2358 1366.14 62.8538 Q1370.15 67.4314 1377.4 67.4314 Q1380.64 67.4314 1383.8 66.5807 Q1387 65.6895 1390.16 63.9476 L1390.16 70.8341 Q1387.04 72.2924 1383.68 73.0216 Q1380.35 73.7508 1376.59 73.7508 Q1366.34 73.7508 1360.3 67.3098 Q1354.27 60.8689 1354.27 49.9314 Q1354.27 38.832 1360.34 32.472 Q1366.46 26.1121 1377.07 26.1121 Q1380.52 26.1121 1383.8 26.8413 Q1387.08 27.5299 1390.16 28.9478 Z" fill="#000000" fill-rule="evenodd" fill-opacity="1" /><path clip-path="url(#clip060)" d="M1403.12 27.2059 L1410.57 27.2059 L1410.57 72.576 L1403.12 72.576 L1403.12 27.2059 M1403.12 9.54393 L1410.57 9.54393 L1410.57 18.9825 L1403.12 18.9825 L1403.12 9.54393 Z" fill="#000000" fill-rule="evenodd" fill-opacity="1" /><path clip-path="url(#clip060)" d="M1433.54 14.324 L1433.54 27.2059 L1448.9 27.2059 L1448.9 32.9987 L1433.54 32.9987 L1433.54 57.6282 Q1433.54 63.1779 1435.04 64.7578 Q1436.58 66.3376 1441.24 66.3376 L1448.9 66.3376 L1448.9 72.576 L1441.24 72.576 Q1432.61 72.576 1429.33 69.3758 Q1426.05 66.1351 1426.05 57.6282 L1426.05 32.9987 L1420.58 32.9987 L1420.58 27.2059 L1426.05 27.2059 L1426.05 14.324 L1433.54 14.324 Z" fill="#000000" fill-rule="evenodd" fill-opacity="1" /><path clip-path="url(#clip060)" d="M1477.58 76.7889 Q1474.42 84.8907 1471.42 87.3618 Q1468.42 89.8329 1463.4 89.8329 L1457.44 89.8329 L1457.44 83.5945 L1461.82 83.5945 Q1464.9 83.5945 1466.6 82.1361 Q1468.3 80.6778 1470.37 75.2496 L1471.7 71.8468 L1453.35 27.2059 L1461.25 27.2059 L1475.43 62.6918 L1489.61 27.2059 L1497.51 27.2059 L1477.58 76.7889 Z" fill="#000000" fill-rule="evenodd" fill-opacity="1" /><path clip-path="url(#clip060)" d="M1554.79 49.7694 Q1545.75 49.7694 1542.27 51.8354 Q1538.79 53.9013 1538.79 58.8839 Q1538.79 62.8538 1541.38 65.2034 Q1544.01 67.5124 1548.51 67.5124 Q1554.71 67.5124 1558.43 63.1374 Q1562.2 58.7219 1562.2 51.4303 L1562.2 49.7694 L1554.79 49.7694 M1569.65 46.6907 L1569.65 72.576 L1562.2 72.576 L1562.2 65.6895 Q1559.65 69.8214 1555.84 71.8063 Q1552.03 73.7508 1546.52 73.7508 Q1539.55 73.7508 1535.42 69.8619 Q1531.33 65.9325 1531.33 59.3701 Q1531.33 51.7138 1536.44 47.825 Q1541.58 43.9361 1551.75 43.9361 L1562.2 43.9361 L1562.2 43.2069 Q1562.2 38.0623 1558.8 35.2672 Q1555.43 32.4315 1549.32 32.4315 Q1545.43 32.4315 1541.74 33.3632 Q1538.06 34.295 1534.65 36.1584 L1534.65 29.2718 Q1538.74 27.692 1542.59 26.9223 Q1546.44 26.1121 1550.09 26.1121 Q1559.93 26.1121 1564.79 31.2163 Q1569.65 36.3204 1569.65 46.6907 Z" fill="#000000" fill-rule="evenodd" fill-opacity="1" /><path clip-path="url(#clip060)" d="M1607.97 9.54393 L1607.97 15.7418 L1600.84 15.7418 Q1596.83 15.7418 1595.25 17.3622 Q1593.72 18.9825 1593.72 23.1955 L1593.72 27.2059 L1605.99 27.2059 L1605.99 32.9987 L1593.72 32.9987 L1593.72 72.576 L1586.22 72.576 L1586.22 32.9987 L1579.09 32.9987 L1579.09 27.2059 L1586.22 27.2059 L1586.22 24.0462 Q1586.22 16.471 1589.75 13.0277 Q1593.27 9.54393 1600.93 9.54393 L1607.97 9.54393 Z" fill="#000000" fill-rule="evenodd" fill-opacity="1" /><path clip-path="url(#clip060)" d="M1620.13 14.324 L1620.13 27.2059 L1635.48 27.2059 L1635.48 32.9987 L1620.13 32.9987 L1620.13 57.6282 Q1620.13 63.1779 1621.63 64.7578 Q1623.17 66.3376 1627.82 66.3376 L1635.48 66.3376 L1635.48 72.576 L1627.82 72.576 Q1619.2 72.576 1615.91 69.3758 Q1612.63 66.1351 1612.63 57.6282 L1612.63 32.9987 L1607.16 32.9987 L1607.16 27.2059 L1612.63 27.2059 L1612.63 14.324 L1620.13 14.324 Z" fill="#000000" fill-rule="evenodd" fill-opacity="1" /><path clip-path="url(#clip060)" d="M1684.09 48.0275 L1684.09 51.6733 L1649.82 51.6733 Q1650.31 59.3701 1654.44 63.421 Q1658.61 67.4314 1666.02 67.4314 Q1670.32 67.4314 1674.33 66.3781 Q1678.38 65.3249 1682.35 63.2184 L1682.35 70.267 Q1678.34 71.9684 1674.13 72.8596 Q1669.91 73.7508 1665.58 73.7508 Q1654.72 73.7508 1648.36 67.4314 Q1642.04 61.1119 1642.04 50.3365 Q1642.04 39.1965 1648.04 32.6746 Q1654.07 26.1121 1664.28 26.1121 Q1673.44 26.1121 1678.74 32.0264 Q1684.09 37.9003 1684.09 48.0275 M1676.64 45.84 Q1676.56 39.7232 1673.19 36.0774 Q1669.87 32.4315 1664.36 32.4315 Q1658.12 32.4315 1654.36 35.9558 Q1650.63 39.4801 1650.06 45.8805 L1676.64 45.84 Z" fill="#000000" fill-rule="evenodd" fill-opacity="1" /><path clip-path="url(#clip060)" d="M1722.62 34.1734 Q1721.36 33.4443 1719.86 33.1202 Q1718.4 32.7556 1716.62 32.7556 Q1710.3 32.7556 1706.9 36.8875 Q1703.54 40.9789 1703.54 48.6757 L1703.54 72.576 L1696.04 72.576 L1696.04 27.2059 L1703.54 27.2059 L1703.54 34.2544 Q1705.88 30.1225 1709.65 28.1376 Q1713.42 26.1121 1718.81 26.1121 Q1719.58 26.1121 1720.51 26.2337 Q1721.44 26.3147 1722.57 26.5172 L1722.62 34.1734 Z" fill="#000000" fill-rule="evenodd" fill-opacity="1" /><path clip-path="url(#clip060)" d="M1785.81 44.2197 Q1788.44 45.1109 1790.91 48.0275 Q1793.42 50.9442 1795.94 56.0483 L1804.24 72.576 L1795.45 72.576 L1787.71 57.061 Q1784.72 50.9847 1781.88 48.9997 Q1779.08 47.0148 1774.22 47.0148 L1765.31 47.0148 L1765.31 72.576 L1757.13 72.576 L1757.13 12.096 L1775.6 12.096 Q1785.97 12.096 1791.08 16.4305 Q1796.18 20.7649 1796.18 29.5149 Q1796.18 35.2267 1793.51 38.994 Q1790.87 42.7613 1785.81 44.2197 M1765.31 18.8205 L1765.31 40.2903 L1775.6 40.2903 Q1781.52 40.2903 1784.51 37.5762 Q1787.55 34.8216 1787.55 29.5149 Q1787.55 24.2082 1784.51 21.5346 Q1781.52 18.8205 1775.6 18.8205 L1765.31 18.8205 Z" fill="#000000" fill-rule="evenodd" fill-opacity="1" /><path clip-path="url(#clip060)" d="M1809.95 54.671 L1809.95 27.2059 L1817.41 27.2059 L1817.41 54.3874 Q1817.41 60.8284 1819.92 64.0691 Q1822.43 67.2693 1827.45 67.2693 Q1833.49 67.2693 1836.97 63.421 Q1840.5 59.5726 1840.5 52.9291 L1840.5 27.2059 L1847.95 27.2059 L1847.95 72.576 L1840.5 72.576 L1840.5 65.6084 Q1837.78 69.7404 1834.18 71.7658 Q1830.61 73.7508 1825.87 73.7508 Q1818.05 73.7508 1814 68.8897 Q1809.95 64.0286 1809.95 54.671 M1828.71 26.1121 L1828.71 26.1121 Z" fill="#000000" fill-rule="evenodd" fill-opacity="1" /><path clip-path="url(#clip060)" d="M1901.02 45.1919 L1901.02 72.576 L1893.56 72.576 L1893.56 45.4349 Q1893.56 38.994 1891.05 35.7938 Q1888.54 32.5936 1883.52 32.5936 Q1877.48 32.5936 1874 36.4419 Q1870.51 40.2903 1870.51 46.9338 L1870.51 72.576 L1863.02 72.576 L1863.02 27.2059 L1870.51 27.2059 L1870.51 34.2544 Q1873.19 30.163 1876.79 28.1376 Q1880.44 26.1121 1885.18 26.1121 Q1893 26.1121 1897.01 30.9732 Q1901.02 35.7938 1901.02 45.1919 Z" fill="#000000" fill-rule="evenodd" fill-opacity="1" /><path clip-path="url(#clip060)" d="M1917.79 62.2867 L1926.34 62.2867 L1926.34 72.576 L1917.79 72.576 L1917.79 62.2867 M1917.79 29.6769 L1926.34 29.6769 L1926.34 39.9662 L1917.79 39.9662 L1917.79 29.6769 Z" fill="#000000" fill-rule="evenodd" fill-opacity="1" /><path clip-path="url(#clip060)" d="M1978.31 65.6895 L2006.87 65.6895 L2006.87 72.576 L1968.46 72.576 L1968.46 65.6895 Q1973.12 60.8689 1981.14 52.7671 Q1989.21 44.6248 1991.27 42.2752 Q1995.2 37.8598 1996.74 34.8216 Q1998.32 31.7429 1998.32 28.7857 Q1998.32 23.9651 1994.92 20.927 Q1991.55 17.8888 1986.13 17.8888 Q1982.28 17.8888 1977.98 19.2256 Q1973.73 20.5624 1968.87 23.2765 L1968.87 15.0127 Q1973.81 13.0277 1978.11 12.015 Q1982.4 11.0023 1985.96 11.0023 Q1995.36 11.0023 2000.95 15.7013 Q2006.54 20.4004 2006.54 28.2591 Q2006.54 31.9859 2005.13 35.3482 Q2003.75 38.6699 2000.06 43.2069 Q1999.05 44.3817 1993.62 50.0125 Q1988.19 55.6027 1978.31 65.6895 Z" fill="#000000" fill-rule="evenodd" fill-opacity="1" /><polyline clip-path="url(#clip062)" style="stroke:#009af9; stroke-linecap:butt; stroke-linejoin:round; stroke-width:8; stroke-opacity:1; fill:none" points="
  304.954,762.504 309.924,743.445 314.894,724.405 319.865,705.402 324.835,686.457 329.806,667.587 334.776,648.812 339.746,630.15 344.717,611.621 349.687,593.242 
  354.658,575.033 359.628,557.011 364.598,539.194 369.569,521.601 374.539,504.248 379.509,487.152 384.48,470.332 389.45,453.805 394.421,437.584 399.391,421.688 
  404.361,406.134 409.332,390.936 414.302,376.109 419.273,361.668 424.243,347.628 429.213,334.004 434.184,320.808 439.154,308.054 444.125,295.754 449.095,283.922 
  454.065,272.568 459.036,261.704 464.006,251.34 468.977,241.489 473.947,232.157 478.917,223.357 483.888,215.095 488.858,207.381 493.829,200.222 498.799,193.625 
  503.769,187.598 508.74,182.145 513.71,177.272 518.681,172.985 523.651,169.287 528.621,166.182 533.592,163.674 538.562,161.764 543.532,160.456 548.503,159.749 
  553.473,159.645 558.444,160.144 563.414,161.245 568.384,162.948 573.355,165.25 578.325,168.149 583.296,171.643 588.266,175.728 593.236,180.399 598.207,185.653 
  603.177,191.483 608.148,197.885 613.118,204.851 618.088,212.375 623.059,220.448 628.029,229.064 633,238.214 637.97,247.887 642.94,258.076 647.911,268.768 
  652.881,279.955 657.852,291.624 662.822,303.764 667.792,316.363 672.763,329.408 677.733,342.886 682.704,356.783 687.674,371.087 692.644,385.781 697.615,400.853 
  702.585,416.286 707.555,432.065 712.526,448.176 717.496,464.6 722.467,481.321 727.437,498.325 732.407,515.593 737.378,533.107 742.348,550.851 747.319,568.806 
  752.289,586.956 757.259,605.281 762.23,623.762 767.2,642.383 772.171,661.124 777.141,679.967 782.111,698.891 787.082,717.88 792.052,736.913 797.023,755.972 
  801.993,775.037 806.963,794.09 811.934,813.111 816.904,832.082 821.875,850.982 826.845,869.795 831.815,888.501 836.786,907.08 841.756,925.514 846.727,943.786 
  851.697,961.877 856.667,979.768 861.638,997.441 866.608,1014.88 871.578,1032.07 876.549,1048.99 881.519,1065.62 886.49,1081.95 891.46,1097.96 896.43,1113.63 
  901.401,1128.96 906.371,1143.91 911.342,1158.49 916.312,1172.66 921.282,1186.43 926.253,1199.77 931.223,1212.68 936.194,1225.13 941.164,1237.12 946.134,1248.64 
  951.105,1259.67 956.075,1270.21 961.046,1280.23 966.016,1289.74 970.986,1298.72 975.957,1307.17 980.927,1315.07 985.898,1322.42 990.868,1329.21 995.838,1335.43 
  1000.81,1341.08 1005.78,1346.15 1010.75,1350.64 1015.72,1354.54 1020.69,1357.85 1025.66,1360.56 1030.63,1362.67 1035.6,1364.19 1040.57,1365.1 1045.54,1365.41 
  1050.51,1365.11 1055.48,1364.22 1060.45,1362.72 1065.42,1360.62 1070.39,1357.92 1075.36,1354.63 1080.34,1350.74 1085.31,1346.27 1090.28,1341.21 1095.25,1335.57 
  1100.22,1329.36 1105.19,1322.59 1110.16,1315.25 1115.13,1307.36 1120.1,1298.92 1125.07,1289.96 1130.04,1280.46 1135.01,1270.44 1139.98,1259.91 1144.95,1248.89 
  1149.92,1237.38 1154.89,1225.4 1159.86,1212.95 1164.83,1200.06 1169.8,1186.72 1174.77,1172.97 1179.74,1158.8 1184.71,1144.23 1189.68,1129.29 1194.65,1113.97 
  1199.62,1098.31 1204.59,1082.31 1209.57,1065.99 1214.54,1049.37 1219.51,1032.46 1224.48,1015.28 1229.45,997.849 1234.42,980.183 1239.39,962.3 1244.36,944.215 
  1249.33,925.949 1254.3,907.52 1259.27,888.946 1264.24,870.246 1269.21,851.438 1274.18,832.542 1279.15,813.576 1284.12,794.559 1289.09,775.509 1294.06,756.446 
  1299.03,737.39 1304,718.359 1308.97,699.372 1313.94,680.45 1318.91,661.609 1323.88,642.869 1328.85,624.248 1333.83,605.766 1338.8,587.441 1343.77,569.291 
  1348.74,551.335 1353.71,533.59 1358.68,516.074 1363.65,498.804 1368.62,481.799 1373.59,465.074 1378.56,448.647 1383.53,432.534 1388.5,416.75 1393.47,401.313 
  1398.44,386.237 1403.41,371.538 1408.38,357.23 1413.35,343.328 1418.32,329.844 1423.29,316.793 1428.26,304.188 1433.23,292.041 1438.2,280.366 1443.17,269.172 
  1448.14,258.473 1453.11,248.277 1458.08,238.595 1463.06,229.437 1468.03,220.812 1473,212.729 1477.97,205.197 1482.94,198.222 1487.91,191.811 1492.88,185.971 
  1497.85,180.707 1502.82,176.025 1507.79,171.928 1512.76,168.424 1517.73,165.514 1522.7,163.201 1527.67,161.487 1532.64,160.374 1537.61,159.863 1542.58,159.954 
  1547.55,160.647 1552.52,161.944 1557.49,163.841 1562.46,166.338 1567.43,169.43 1572.4,173.115 1577.37,177.388 1582.34,182.246 1587.32,187.685 1592.29,193.7 
  1597.26,200.284 1602.23,207.43 1607.2,215.131 1612.17,223.379 1617.14,232.165 1622.11,241.48 1627.08,251.318 1632.05,261.668 1637.02,272.519 1641.99,283.86 
  1646.96,295.678 1651.93,307.964 1656.9,320.702 1661.87,333.882 1666.84,347.493 1671.81,361.519 1676.78,375.945 1681.75,390.758 1686.72,405.942 1691.69,421.482 
  1696.66,437.363 1701.63,453.568 1706.6,470.084 1711.58,486.892 1716.55,503.975 1721.52,521.317 1726.49,538.9 1731.46,556.705 1736.43,574.716 1741.4,592.915 
  1746.37,611.284 1751.34,629.804 1756.31,648.457 1761.28,667.224 1766.25,686.085 1771.22,705.023 1776.19,724.017 1781.16,743.05 1786.13,762.103 1791.1,781.157 
  1796.07,800.191 1801.04,819.187 1806.01,838.127 1810.98,856.99 1815.95,875.759 1820.92,894.415 1825.89,912.938 1830.86,931.312 1835.83,949.516 1840.81,967.533 
  1845.78,985.344 1850.75,1002.93 1855.72,1020.28 1860.69,1037.37 1865.66,1054.19 1870.63,1070.71 1875.6,1086.92 1880.57,1102.82 1885.54,1118.37 1890.51,1133.56 
  1895.48,1148.38 1900.45,1162.82 1905.42,1176.86 1910.39,1190.48 1915.36,1203.67 1920.33,1216.42 1925.3,1228.72 1930.27,1240.55 1935.24,1251.91 1940.21,1262.77 
  1945.18,1273.14 1950.15,1282.99 1955.12,1292.32 1960.09,1301.12 1965.07,1309.39 1970.04,1317.11 1975.01,1324.27 1979.98,1330.87 1984.95,1336.9 1989.92,1342.36 
  1994.89,1347.24 1999.86,1351.53 2004.83,1355.23 2009.8,1358.35 2014.77,1360.86 2019.74,1362.78 2024.71,1364.09 2029.68,1364.81 2034.65,1364.92 2039.62,1364.43 
  2044.59,1363.34 2049.56,1361.65 2054.53,1359.35 2059.5,1356.46 2064.47,1352.98 2069.44,1348.91 2074.41,1344.25 2079.38,1339.01 2084.35,1333.19 2089.33,1326.8 
  2094.3,1319.85 2099.27,1312.34 2104.24,1304.28 2109.21,1295.67 2114.18,1286.54 2119.15,1276.88 2124.12,1266.71 2129.09,1256.03 2134.06,1244.86 2139.03,1233.21 
  2144,1221.08 2148.97,1208.5 2153.94,1195.47 2158.91,1182.01 2163.88,1168.13 2168.85,1153.84 2173.82,1139.17 2178.79,1124.11 2183.76,1108.7 2188.73,1092.94 
  2193.7,1076.84 2198.67,1060.44 2203.64,1043.74 2208.61,1026.75 2213.58,1009.5 2218.56,992.004 2223.53,974.278 2228.5,956.341 2233.47,938.211 2238.44,919.906 
  2243.41,901.442 2248.38,882.839 2253.35,864.116 2258.32,845.292 2263.29,826.385 2268.26,807.415 2273.23,788.4 2278.2,769.36 2283.17,750.313 2288.14,731.278 
  2293.11,712.275 
  "/>
<polyline clip-path="url(#clip062)" style="stroke:#e26f46; stroke-linecap:butt; stroke-linejoin:round; stroke-width:8; stroke-opacity:1; fill:none" points="
  304.954,762.504 309.924,748.942 314.894,735.277 319.865,721.531 324.835,707.728 329.806,693.887 334.776,680.031 339.746,666.179 344.717,652.355 349.687,638.579 
  354.658,624.869 359.628,611.246 364.598,597.728 369.569,584.334 374.539,571.081 379.509,557.987 384.48,545.067 389.45,532.339 394.421,519.817 399.391,507.516 
  404.361,495.452 409.332,483.64 414.302,472.091 419.273,460.819 424.243,449.839 429.213,439.163 434.184,428.8 439.154,418.764 444.125,409.065 449.095,399.715 
  454.065,390.723 459.036,382.099 464.006,373.852 468.977,365.991 473.947,358.524 478.917,351.459 483.888,344.804 488.858,338.565 493.829,332.748 498.799,327.361 
  503.769,322.408 508.74,317.895 513.71,313.826 518.681,310.206 523.651,307.037 528.621,304.325 533.592,302.071 538.562,300.277 543.532,298.945 548.503,298.077 
  553.473,297.674 558.444,297.736 563.414,298.262 568.384,299.253 573.355,300.707 578.325,302.623 583.296,304.999 588.266,307.833 593.236,311.122 598.207,314.863 
  603.177,319.051 608.148,323.684 613.118,328.756 618.088,334.263 623.059,340.199 628.029,346.558 633,353.336 637.97,360.524 642.94,368.117 647.911,376.106 
  652.881,384.486 657.852,393.247 662.822,402.382 667.792,411.882 672.763,421.738 677.733,431.943 682.704,442.486 687.674,453.359 692.644,464.55 697.615,476.051 
  702.585,487.853 707.555,499.945 712.526,512.316 717.496,524.956 722.467,537.856 727.437,551.009 732.407,564.401 737.378,578.024 742.348,591.867 747.319,605.921 
  752.289,620.177 757.259,634.625 762.23,649.258 767.2,664.071 772.171,679.053 777.141,694.201 782.111,709.509 787.082,724.973 792.052,740.589 797.023,756.355 
  801.993,769.342 806.963,780.578 811.934,791.891 816.904,803.262 821.875,814.675 826.845,826.112 831.815,837.558 836.786,848.996 841.756,860.409 846.727,871.78 
  851.697,883.095 856.667,894.336 861.638,905.488 866.608,916.539 871.578,927.47 876.549,938.27 881.519,948.925 886.49,959.421 891.46,969.745 896.43,979.884 
  901.401,989.827 906.371,999.561 911.342,1009.07 916.312,1018.36 921.282,1027.4 926.253,1036.19 931.223,1044.71 936.194,1052.97 941.164,1060.94 946.134,1068.63 
  951.105,1076.01 956.075,1083.09 961.046,1089.85 966.016,1096.28 970.986,1102.39 975.957,1108.17 980.927,1113.6 985.898,1118.68 990.868,1123.41 995.838,1127.78 
  1000.81,1131.78 1005.78,1135.42 1010.75,1138.69 1015.72,1141.59 1020.69,1144.1 1025.66,1146.24 1030.63,1147.99 1035.6,1149.36 1040.57,1150.34 1045.54,1150.93 
  1050.51,1151.14 1055.48,1150.95 1060.45,1150.38 1065.42,1149.42 1070.39,1148.08 1075.36,1146.34 1080.34,1144.22 1085.31,1141.72 1090.28,1138.84 1095.25,1135.58 
  1100.22,1131.95 1105.19,1127.94 1110.16,1123.57 1115.13,1118.83 1120.1,1113.74 1125.07,1108.29 1130.04,1102.49 1135.01,1096.34 1139.98,1089.86 1144.95,1083.04 
  1149.92,1075.9 1154.89,1068.44 1159.86,1060.66 1164.83,1052.58 1169.8,1044.2 1174.77,1035.53 1179.74,1026.57 1184.71,1017.34 1189.68,1007.83 1194.65,998.065 
  1199.62,988.047 1204.59,977.784 1209.57,967.284 1214.54,956.553 1219.51,945.602 1224.48,934.438 1229.45,923.072 1234.42,911.509 1239.39,899.757 1244.36,887.825 
  1249.33,875.719 1254.3,863.446 1259.27,851.013 1264.24,838.427 1269.21,825.691 1274.18,812.813 1279.15,799.797 1284.12,786.647 1289.09,773.366 1294.06,760.867 
  1299.03,752.13 1304,743.328 1308.97,734.471 1313.94,725.573 1318.91,716.646 1323.88,707.701 1328.85,698.751 1333.83,689.809 1338.8,680.887 1343.77,671.998 
  1348.74,663.153 1353.71,654.365 1358.68,645.644 1363.65,637.004 1368.62,628.454 1373.59,620.005 1378.56,611.669 1383.53,603.454 1388.5,595.372 1393.47,587.432 
  1398.44,579.646 1403.41,572.023 1408.38,564.571 1413.35,557.3 1418.32,550.219 1423.29,543.335 1428.26,536.657 1433.23,530.192 1438.2,523.949 1443.17,517.933 
  1448.14,512.153 1453.11,506.613 1458.08,501.322 1463.06,496.284 1468.03,491.506 1473,486.992 1477.97,482.748 1482.94,478.779 1487.91,475.089 1492.88,471.682 
  1497.85,468.563 1502.82,465.734 1507.79,463.199 1512.76,460.961 1517.73,459.022 1522.7,457.386 1527.67,456.053 1532.64,455.026 1537.61,454.305 1542.58,453.892 
  1547.55,453.788 1552.52,453.992 1557.49,454.506 1562.46,455.329 1567.43,456.46 1572.4,457.898 1577.37,459.643 1582.34,461.693 1587.32,464.046 1592.29,466.7 
  1597.26,469.653 1602.23,472.901 1607.2,476.444 1612.17,480.278 1617.14,484.398 1622.11,488.802 1627.08,493.485 1632.05,498.443 1637.02,503.673 1641.99,509.169 
  1646.96,514.928 1651.93,520.944 1656.9,527.211 1661.87,533.725 1666.84,540.479 1671.81,547.469 1676.78,554.69 1681.75,562.134 1686.72,569.796 1691.69,577.671 
  1696.66,585.75 1701.63,594.029 1706.6,602.501 1711.58,611.161 1716.55,620.002 1721.52,629.017 1726.49,638.201 1731.46,647.546 1736.43,657.046 1741.4,666.698 
  1746.37,676.494 1751.34,686.429 1756.31,696.496 1761.28,706.692 1766.25,717.009 1771.22,727.444 1776.19,737.993 1781.16,748.651 1786.13,759.416 1791.1,766.866 
  1796.07,773.01 1801.04,779.198 1806.01,785.421 1810.98,791.671 1815.95,797.941 1820.92,804.223 1825.89,810.51 1830.86,816.792 1835.83,823.063 1840.81,829.312 
  1845.78,835.533 1850.75,841.716 1855.72,847.856 1860.69,853.942 1865.66,859.969 1870.63,865.927 1875.6,871.811 1880.57,877.611 1885.54,883.322 1890.51,888.935 
  1895.48,894.444 1900.45,899.844 1905.42,905.127 1910.39,910.286 1915.36,915.314 1920.33,920.205 1925.3,924.954 1930.27,929.555 1935.24,934.002 1940.21,938.29 
  1945.18,942.414 1950.15,946.369 1955.12,950.15 1960.09,953.753 1965.07,957.174 1970.04,960.408 1975.01,963.451 1979.98,966.301 1984.95,968.952 1989.92,971.404 
  1994.89,973.651 1999.86,975.692 2004.83,977.524 2009.8,979.145 2014.77,980.552 2019.74,981.743 2024.71,982.718 2029.68,983.474 2034.65,984.01 2039.62,984.326 
  2044.59,984.42 2049.56,984.293 2054.53,983.943 2059.5,983.37 2064.47,982.575 2069.44,981.559 2074.41,980.321 2079.38,978.862 2084.35,977.184 2089.33,975.287 
  2094.3,973.173 2099.27,970.843 2104.24,968.301 2109.21,965.546 2114.18,962.581 2119.15,959.409 2124.12,956.033 2129.09,952.455 2134.06,948.677 2139.03,944.703 
  2144,940.536 2148.97,936.18 2153.94,931.637 2158.91,926.911 2163.88,922.006 2168.85,916.926 2173.82,911.674 2178.79,906.255 2183.76,900.673 2188.73,894.932 
  2193.7,889.036 2198.67,882.99 2203.64,876.797 2208.61,870.463 2213.58,863.991 2218.56,857.387 2223.53,850.655 2228.5,843.799 2233.47,836.823 2238.44,829.733 
  2243.41,822.532 2248.38,815.225 2253.35,807.816 2258.32,800.31 2263.29,792.709 2268.26,785.02 2273.23,777.245 2278.2,769.387 2283.17,762.081 2288.14,758.864 
  2293.11,755.622 
  "/>
<polyline clip-path="url(#clip062)" style="stroke:#008000; stroke-linecap:butt; stroke-linejoin:round; stroke-width:8; stroke-opacity:1; fill:none" stroke-dasharray="4, 8" points="
  304.954,762.504 309.924,748.602 314.894,734.691 319.865,720.781 324.835,706.88 329.806,692.999 334.776,679.145 339.746,665.33 344.717,651.564 349.687,637.857 
  354.658,624.219 359.628,610.663 364.598,597.199 369.569,583.84 374.539,570.599 379.509,557.487 384.48,544.519 389.45,531.707 394.421,519.067 399.391,506.611 
  404.361,494.356 409.332,482.316 414.302,470.507 419.273,458.945 424.243,447.647 429.213,436.627 434.184,425.903 439.154,415.491 444.125,405.408 449.095,395.671 
  454.065,386.296 459.036,377.296 464.006,368.692 468.977,360.498 473.947,352.732 478.917,345.407 483.888,338.537 488.858,332.136 493.829,326.214 498.799,320.781 
  503.769,315.848 508.74,311.422 513.71,307.51 518.681,304.119 523.651,301.253 528.621,298.917 533.592,297.113 538.562,295.841 543.532,295.1 548.503,294.887 
  553.473,295.198 558.444,296.029 563.414,297.375 568.384,299.23 573.355,301.585 578.325,304.434 583.296,307.767 588.266,311.575 593.236,315.846 598.207,320.568 
  603.177,325.73 608.148,331.316 613.118,337.314 618.088,343.712 623.059,350.498 628.029,357.658 633,365.177 637.97,373.044 642.94,381.243 647.911,389.763 
  652.881,398.588 657.852,407.707 662.822,417.107 667.792,426.774 672.763,436.696 677.733,446.86 682.704,457.254 687.674,467.866 692.644,478.683 697.615,489.692 
  702.585,500.883 707.555,512.244 712.526,523.764 717.496,535.432 722.467,547.237 727.437,559.17 732.407,571.219 737.378,583.375 742.348,595.627 747.319,607.965 
  752.289,620.378 757.259,632.856 762.23,645.39 767.2,657.968 772.171,670.583 777.141,683.222 782.111,695.877 787.082,708.538 792.052,721.196 797.023,733.839 
  801.993,746.46 806.963,759.048 811.934,771.594 816.904,784.089 821.875,796.523 826.845,808.887 831.815,821.172 836.786,833.366 841.756,845.458 846.727,857.439 
  851.697,869.297 856.667,881.021 861.638,892.602 866.608,904.029 871.578,915.292 876.549,926.379 881.519,937.281 886.49,947.986 891.46,958.486 896.43,968.768 
  901.401,978.824 906.371,988.642 911.342,998.213 916.312,1007.53 921.282,1016.57 926.253,1025.34 931.223,1033.82 936.194,1042.01 941.164,1049.91 946.134,1057.49 
  951.105,1064.75 956.075,1071.68 961.046,1078.28 966.016,1084.53 970.986,1090.43 975.957,1095.97 980.927,1101.16 985.898,1105.98 990.868,1110.43 995.838,1114.5 
  1000.81,1118.21 1005.78,1121.53 1010.75,1124.48 1015.72,1127.05 1020.69,1129.25 1025.66,1131.07 1030.63,1132.51 1035.6,1133.58 1040.57,1134.28 1045.54,1134.62 
  1050.51,1134.6 1055.48,1134.22 1060.45,1133.49 1065.42,1132.41 1070.39,1130.98 1075.36,1129.22 1080.34,1127.11 1085.31,1124.68 1090.28,1121.93 1095.25,1118.86 
  1100.22,1115.48 1105.19,1111.79 1110.16,1107.81 1115.13,1103.54 1120.1,1098.98 1125.07,1094.14 1130.04,1089.04 1135.01,1083.67 1139.98,1078.04 1144.95,1072.16 
  1149.92,1066.04 1154.89,1059.67 1159.86,1053.08 1164.83,1046.27 1169.8,1039.24 1174.77,1032 1179.74,1024.56 1184.71,1016.92 1189.68,1009.09 1194.65,1001.08 
  1199.62,992.887 1204.59,984.522 1209.57,975.992 1214.54,967.302 1219.51,958.461 1224.48,949.473 1229.45,940.347 1234.42,931.089 1239.39,921.705 1244.36,912.204 
  1249.33,902.591 1254.3,892.875 1259.27,883.061 1264.24,873.159 1269.21,863.174 1274.18,853.114 1279.15,842.988 1284.12,832.802 1289.09,822.563 1294.06,812.281 
  1299.03,801.962 1304,791.614 1308.97,781.246 1313.94,770.865 1318.91,760.479 1323.88,750.097 1328.85,739.727 1333.83,729.376 1338.8,719.054 1343.77,708.769 
  1348.74,698.531 1353.71,688.35 1358.68,678.238 1363.65,668.205 1368.62,658.261 1373.59,648.418 1378.56,638.686 1383.53,629.076 1388.5,619.599 1393.47,610.265 
  1398.44,601.086 1403.41,592.072 1408.38,583.235 1413.35,574.584 1418.32,566.132 1423.29,557.888 1428.26,549.865 1433.23,542.073 1438.2,534.523 1443.17,527.226 
  1448.14,520.193 1453.11,513.436 1458.08,506.962 1463.06,500.776 1468.03,494.887 1473,489.307 1477.97,484.046 1482.94,479.113 1487.91,474.516 1492.88,470.263 
  1497.85,466.361 1502.82,462.817 1507.79,459.635 1512.76,456.82 1517.73,454.376 1522.7,452.305 1527.67,450.609 1532.64,449.29 1537.61,448.349 1542.58,447.784 
  1547.55,447.595 1552.52,447.779 1557.49,448.334 1562.46,449.257 1567.43,450.542 1572.4,452.185 1577.37,454.179 1582.34,456.518 1587.32,459.194 1592.29,462.199 
  1597.26,465.523 1602.23,469.162 1607.2,473.113 1612.17,477.369 1617.14,481.92 1622.11,486.757 1627.08,491.871 1632.05,497.252 1637.02,502.893 1641.99,508.783 
  1646.96,514.914 1651.93,521.276 1656.9,527.859 1661.87,534.654 1666.84,541.652 1671.81,548.842 1676.78,556.216 1681.75,563.764 1686.72,571.475 1691.69,579.341 
  1696.66,587.35 1701.63,595.493 1706.6,603.761 1711.58,612.142 1716.55,620.627 1721.52,629.206 1726.49,637.872 1731.46,646.615 1736.43,655.427 1741.4,664.297 
  1746.37,673.216 1751.34,682.176 1756.31,691.166 1761.28,700.178 1766.25,709.202 1771.22,718.229 1776.19,727.251 1781.16,736.257 1786.13,745.24 1791.1,754.191 
  1796.07,763.1 1801.04,771.959 1806.01,780.759 1810.98,789.492 1815.95,798.149 1820.92,806.721 1825.89,815.2 1830.86,823.579 1835.83,831.847 1840.81,839.998 
  1845.78,848.023 1850.75,855.913 1855.72,863.662 1860.69,871.26 1865.66,878.7 1870.63,885.973 1875.6,893.075 1880.57,900 1885.54,906.739 1890.51,913.285 
  1895.48,919.631 1900.45,925.77 1905.42,931.697 1910.39,937.405 1915.36,942.888 1920.33,948.142 1925.3,953.161 1930.27,957.942 1935.24,962.478 1940.21,966.768 
  1945.18,970.807 1950.15,974.593 1955.12,978.122 1960.09,981.393 1965.07,984.403 1970.04,987.15 1975.01,989.634 1979.98,991.854 1984.95,993.808 1989.92,995.496 
  1994.89,996.918 1999.86,998.074 2004.83,998.965 2009.8,999.592 2014.77,999.957 2019.74,1000.06 2024.71,999.906 2029.68,999.494 2034.65,998.827 2039.62,997.909 
  2044.59,996.741 2049.56,995.326 2054.53,993.667 2059.5,991.769 2064.47,989.634 2069.44,987.265 2074.41,984.668 2079.38,981.847 2084.35,978.805 2089.33,975.547 
  2094.3,972.078 2099.27,968.404 2104.24,964.529 2109.21,960.459 2114.18,956.199 2119.15,951.756 2124.12,947.136 2129.09,942.344 2134.06,937.388 2139.03,932.271 
  2144,926.997 2148.97,921.57 2153.94,915.997 2158.91,910.283 2163.88,904.434 2168.85,898.457 2173.82,892.355 2178.79,886.137 2183.76,879.807 2188.73,873.372 
  2193.7,866.838 2198.67,860.211 2203.64,853.497 2208.61,846.703 2213.58,839.835 2218.56,832.9 2223.53,825.903 2228.5,818.853 2233.47,811.755 2238.44,804.616 
  2243.41,797.444 2248.38,790.244 2253.35,783.024 2258.32,775.791 2263.29,768.551 2268.26,761.313 2273.23,754.083 2278.2,746.869 2283.17,739.677 2288.14,732.516 
  2293.11,725.392 
  "/>
<polyline clip-path="url(#clip062)" style="stroke:#008000; stroke-linecap:butt; stroke-linejoin:round; stroke-width:8; stroke-opacity:1; fill:none" points="
  304.954,762.504 309.924,748.112 314.894,733.736 319.865,719.387 324.835,705.073 329.806,690.806 334.776,676.595 339.746,662.451 344.717,648.385 349.687,634.41 
  354.658,620.536 359.628,606.775 364.598,593.141 369.569,579.646 374.539,566.303 379.509,553.124 384.48,540.124 389.45,527.317 394.421,514.715 399.391,502.333 
  404.361,490.186 409.332,478.287 414.302,466.651 419.273,455.293 424.243,444.226 429.213,433.463 434.184,423.02 439.154,412.909 444.125,403.144 449.095,393.739 
  454.065,384.704 459.036,376.054 464.006,367.8 468.977,359.954 473.947,352.528 478.917,345.532 483.888,338.975 488.858,332.865 493.829,327.21 498.799,322.017 
  503.769,317.293 508.74,313.042 513.71,309.27 518.681,305.979 523.651,303.173 528.621,300.854 533.592,299.024 538.562,297.683 543.532,296.831 548.503,296.467 
  553.473,296.588 558.444,297.194 563.414,298.28 568.384,299.843 573.355,301.88 578.325,304.385 583.296,307.353 588.266,310.779 593.236,314.655 598.207,318.976 
  603.177,323.732 608.148,328.915 613.118,334.52 618.088,340.536 623.059,346.956 628.029,353.77 633,360.968 637.97,368.541 642.94,376.479 647.911,384.772 
  652.881,393.409 657.852,402.379 662.822,411.672 667.792,421.276 672.763,431.181 677.733,441.373 682.704,451.841 687.674,462.573 692.644,473.557 697.615,484.779 
  702.585,496.227 707.555,507.888 712.526,519.751 717.496,531.803 722.467,544.032 727.437,556.424 732.407,568.967 737.378,581.648 742.348,594.454 747.319,607.372 
  752.289,620.391 757.259,633.496 762.23,646.677 767.2,659.92 772.171,673.212 777.141,686.542 782.111,699.896 787.082,713.264 792.052,726.631 797.023,739.987 
  801.993,753.318 806.963,766.613 811.934,779.86 816.904,793.046 821.875,806.159 826.845,819.189 831.815,832.121 836.786,844.944 841.756,857.644 846.727,870.21 
  851.697,882.63 856.667,894.89 861.638,906.979 866.608,918.885 871.578,930.597 876.549,942.102 881.519,953.388 886.49,964.444 891.46,975.26 896.43,985.822 
  901.401,996.121 906.371,1006.15 911.342,1015.88 916.312,1025.32 921.282,1034.46 926.253,1043.28 931.223,1051.77 936.194,1059.94 941.164,1067.76 946.134,1075.22 
  951.105,1082.33 956.075,1089.08 961.046,1095.44 966.016,1101.44 970.986,1107.04 975.957,1112.26 980.927,1117.09 985.898,1121.52 990.868,1125.55 995.838,1129.18 
  1000.81,1132.41 1005.78,1135.24 1010.75,1137.67 1015.72,1139.7 1020.69,1141.33 1025.66,1142.57 1030.63,1143.41 1035.6,1143.85 1040.57,1143.92 1045.54,1143.59 
  1050.51,1142.88 1055.48,1141.8 1060.45,1140.35 1065.42,1138.54 1070.39,1136.36 1075.36,1133.84 1080.34,1130.97 1085.31,1127.76 1090.28,1124.22 1095.25,1120.36 
  1100.22,1116.17 1105.19,1111.68 1110.16,1106.89 1115.13,1101.8 1120.1,1096.43 1125.07,1090.77 1130.04,1084.85 1135.01,1078.67 1139.98,1072.23 1144.95,1065.56 
  1149.92,1058.64 1154.89,1051.51 1159.86,1044.15 1164.83,1036.59 1169.8,1028.82 1174.77,1020.86 1179.74,1012.71 1184.71,1004.39 1189.68,995.89 1194.65,987.232 
  1199.62,978.419 1204.59,969.461 1209.57,960.363 1214.54,951.136 1219.51,941.785 1224.48,932.32 1229.45,922.748 1234.42,913.076 1239.39,903.313 1244.36,893.465 
  1249.33,883.541 1254.3,873.547 1259.27,863.493 1264.24,853.384 1269.21,843.229 1274.18,833.034 1279.15,822.808 1284.12,812.557 1289.09,802.29 1294.06,792.012 
  1299.03,781.731 1304,771.455 1308.97,761.192 1313.94,750.951 1318.91,740.741 1323.88,730.57 1328.85,720.448 1333.83,710.383 1338.8,700.384 1343.77,690.46 
  1348.74,680.62 1353.71,670.872 1358.68,661.226 1363.65,651.691 1368.62,642.275 1373.59,632.988 1378.56,623.838 1383.53,614.835 1388.5,605.988 1393.47,597.305 
  1398.44,588.797 1403.41,580.471 1408.38,572.338 1413.35,564.406 1418.32,556.684 1423.29,549.182 1428.26,541.903 1433.23,534.857 1438.2,528.053 1443.17,521.499 
  1448.14,515.203 1453.11,509.174 1458.08,503.418 1463.06,497.943 1468.03,492.755 1473,487.86 1477.97,483.263 1482.94,478.969 1487.91,474.983 1492.88,471.308 
  1497.85,467.948 1502.82,464.907 1507.79,462.186 1512.76,459.788 1517.73,457.715 1522.7,455.968 1527.67,454.547 1532.64,453.452 1537.61,452.684 1542.58,452.242 
  1547.55,452.124 1552.52,452.329 1557.49,452.855 1562.46,453.702 1567.43,454.865 1572.4,456.344 1577.37,458.133 1582.34,460.23 1587.32,462.631 1592.29,465.332 
  1597.26,468.328 1602.23,471.616 1607.2,475.189 1612.17,479.044 1617.14,483.174 1622.11,487.574 1627.08,492.237 1632.05,497.158 1637.02,502.33 1641.99,507.746 
  1646.96,513.399 1651.93,519.282 1656.9,525.386 1661.87,531.705 1666.84,538.229 1671.81,544.95 1676.78,551.86 1681.75,558.949 1686.72,566.207 1691.69,573.629 
  1696.66,581.207 1701.63,588.932 1706.6,596.797 1711.58,604.79 1716.55,612.905 1721.52,621.131 1726.49,629.46 1731.46,637.882 1736.43,646.389 1741.4,654.971 
  1746.37,663.619 1751.34,672.325 1756.31,681.078 1761.28,689.871 1766.25,698.693 1771.22,707.536 1776.19,716.39 1781.16,725.247 1786.13,734.097 1791.1,742.931 
  1796.07,751.74 1801.04,760.515 1806.01,769.245 1810.98,777.923 1815.95,786.539 1820.92,795.083 1825.89,803.547 1830.86,811.921 1835.83,820.195 1840.81,828.361 
  1845.78,836.41 1850.75,844.337 1855.72,852.134 1860.69,859.794 1865.66,867.307 1870.63,874.665 1875.6,881.861 1880.57,888.886 1885.54,895.735 1890.51,902.399 
  1895.48,908.873 1900.45,915.15 1905.42,921.224 1910.39,927.089 1915.36,932.74 1920.33,938.171 1925.3,943.378 1930.27,948.357 1935.24,953.102 1940.21,957.611 
  1945.18,961.879 1950.15,965.903 1955.12,969.679 1960.09,973.207 1965.07,976.481 1970.04,979.502 1975.01,982.266 1979.98,984.773 1984.95,987.023 1989.92,989.013 
  1994.89,990.745 1999.86,992.217 2004.83,993.431 2009.8,994.386 2014.77,995.083 2019.74,995.524 2024.71,995.709 2029.68,995.641 2034.65,995.32 2039.62,994.75 
  2044.59,993.933 2049.56,992.871 2054.53,991.568 2059.5,990.026 2064.47,988.25 2069.44,986.242 2074.41,984.009 2079.38,981.553 2084.35,978.879 2089.33,975.993 
  2094.3,972.9 2099.27,969.605 2104.24,966.114 2109.21,962.433 2114.18,958.567 2119.15,954.519 2124.12,950.293 2129.09,945.895 2134.06,941.332 2139.03,936.608 
  2144,931.729 2148.97,926.702 2153.94,921.531 2158.91,916.223 2163.88,910.783 2168.85,905.218 2173.82,899.533 2178.79,893.735 2183.76,887.828 2188.73,881.819 
  2193.7,875.715 2198.67,869.521 2203.64,863.243 2208.61,856.888 2213.58,850.461 2218.56,843.968 2223.53,837.417 2228.5,830.813 2233.47,824.162 2238.44,817.471 
  2243.41,810.745 2248.38,803.992 2253.35,797.218 2258.32,790.429 2263.29,783.631 2268.26,776.83 2273.23,770.031 2278.2,763.242 2283.17,756.469 2288.14,749.718 
  2293.11,742.995 
  "/>
<path clip-path="url(#clip060)" d="
M1413.49 554.876 L2282.51 554.876 L2282.51 166.076 L1413.49 166.076  Z
  " fill="#ffffff" fill-rule="evenodd" fill-opacity="1"/>
<polyline clip-path="url(#clip060)" style="stroke:#000000; stroke-linecap:butt; stroke-linejoin:round; stroke-width:4; stroke-opacity:1; fill:none" points="
  1413.49,554.876 2282.51,554.876 2282.51,166.076 1413.49,166.076 1413.49,554.876 
  "/>
<polyline clip-path="url(#clip060)" style="stroke:#009af9; stroke-linecap:butt; stroke-linejoin:round; stroke-width:6; stroke-opacity:1; fill:none" points="
  1436.91,243.836 1577.4,243.836 
  "/>
<path clip-path="url(#clip060)" d="M1634.19 219.617 L1634.19 226.457 Q1630.19 224.548 1626.65 223.61 Q1623.11 222.673 1619.81 222.673 Q1614.08 222.673 1610.96 224.895 Q1607.87 227.117 1607.87 231.214 Q1607.87 234.652 1609.91 236.423 Q1612 238.159 1617.76 239.235 L1622 240.103 Q1629.85 241.596 1633.56 245.381 Q1637.31 249.131 1637.31 255.45 Q1637.31 262.985 1632.24 266.874 Q1627.21 270.763 1617.45 270.763 Q1613.77 270.763 1609.6 269.929 Q1605.47 269.096 1601.03 267.464 L1601.03 260.242 Q1605.3 262.638 1609.39 263.853 Q1613.49 265.068 1617.45 265.068 Q1623.46 265.068 1626.72 262.707 Q1629.98 260.346 1629.98 255.971 Q1629.98 252.152 1627.62 249.999 Q1625.3 247.846 1619.95 246.77 L1615.68 245.936 Q1607.83 244.374 1604.32 241.041 Q1600.82 237.707 1600.82 231.77 Q1600.82 224.895 1605.64 220.937 Q1610.51 216.978 1619.01 216.978 Q1622.66 216.978 1626.44 217.638 Q1630.23 218.298 1634.19 219.617 Z" fill="#000000" fill-rule="evenodd" fill-opacity="1" /><path clip-path="url(#clip060)" d="M1647.97 230.867 L1654.36 230.867 L1654.36 269.756 L1647.97 269.756 L1647.97 230.867 M1647.97 215.728 L1654.36 215.728 L1654.36 223.818 L1647.97 223.818 L1647.97 215.728 Z" fill="#000000" fill-rule="evenodd" fill-opacity="1" /><path clip-path="url(#clip060)" d="M1698 238.332 Q1700.4 234.027 1703.73 231.978 Q1707.07 229.93 1711.58 229.93 Q1717.66 229.93 1720.96 234.2 Q1724.25 238.436 1724.25 246.284 L1724.25 269.756 L1717.83 269.756 L1717.83 246.492 Q1717.83 240.902 1715.85 238.193 Q1713.87 235.485 1709.81 235.485 Q1704.85 235.485 1701.96 238.784 Q1699.08 242.082 1699.08 247.777 L1699.08 269.756 L1692.66 269.756 L1692.66 246.492 Q1692.66 240.867 1690.68 238.193 Q1688.7 235.485 1684.57 235.485 Q1679.67 235.485 1676.79 238.818 Q1673.91 242.117 1673.91 247.777 L1673.91 269.756 L1667.48 269.756 L1667.48 230.867 L1673.91 230.867 L1673.91 236.909 Q1676.1 233.332 1679.15 231.631 Q1682.21 229.93 1686.41 229.93 Q1690.64 229.93 1693.6 232.082 Q1696.58 234.235 1698 238.332 Z" fill="#000000" fill-rule="evenodd" fill-opacity="1" /><path clip-path="url(#clip060)" d="M1743.18 263.922 L1743.18 284.547 L1736.75 284.547 L1736.75 230.867 L1743.18 230.867 L1743.18 236.77 Q1745.19 233.298 1748.25 231.631 Q1751.34 229.93 1755.61 229.93 Q1762.69 229.93 1767.1 235.555 Q1771.55 241.179 1771.55 250.346 Q1771.55 259.513 1767.1 265.138 Q1762.69 270.763 1755.61 270.763 Q1751.34 270.763 1748.25 269.096 Q1745.19 267.395 1743.18 263.922 M1764.91 250.346 Q1764.91 243.298 1762 239.304 Q1759.12 235.277 1754.05 235.277 Q1748.98 235.277 1746.06 239.304 Q1743.18 243.298 1743.18 250.346 Q1743.18 257.395 1746.06 261.422 Q1748.98 265.415 1754.05 265.415 Q1759.12 265.415 1762 261.422 Q1764.91 257.395 1764.91 250.346 Z" fill="#000000" fill-rule="evenodd" fill-opacity="1" /><path clip-path="url(#clip060)" d="M1782.14 215.728 L1788.53 215.728 L1788.53 269.756 L1782.14 269.756 L1782.14 215.728 Z" fill="#000000" fill-rule="evenodd" fill-opacity="1" /><path clip-path="url(#clip060)" d="M1835.16 248.714 L1835.16 251.839 L1805.78 251.839 Q1806.2 258.436 1809.74 261.909 Q1813.32 265.346 1819.67 265.346 Q1823.35 265.346 1826.79 264.443 Q1830.26 263.54 1833.66 261.735 L1833.66 267.777 Q1830.23 269.235 1826.62 269.999 Q1823 270.763 1819.29 270.763 Q1809.98 270.763 1804.53 265.346 Q1799.12 259.929 1799.12 250.693 Q1799.12 241.145 1804.25 235.555 Q1809.43 229.93 1818.18 229.93 Q1826.02 229.93 1830.57 234.999 Q1835.16 240.034 1835.16 248.714 M1828.77 246.839 Q1828.7 241.596 1825.82 238.471 Q1822.97 235.346 1818.25 235.346 Q1812.9 235.346 1809.67 238.367 Q1806.48 241.388 1805.99 246.874 L1828.77 246.839 Z" fill="#000000" fill-rule="evenodd" fill-opacity="1" /><path clip-path="url(#clip060)" d="M1845.92 217.916 L1875.71 217.916 L1875.71 223.818 L1852.93 223.818 L1852.93 239.096 L1873.49 239.096 L1873.49 244.999 L1852.93 244.999 L1852.93 269.756 L1845.92 269.756 L1845.92 217.916 Z" fill="#000000" fill-rule="evenodd" fill-opacity="1" /><path clip-path="url(#clip060)" d="M1886.82 217.916 L1897.27 217.916 L1910.5 253.193 L1923.8 217.916 L1934.25 217.916 L1934.25 269.756 L1927.41 269.756 L1927.41 224.235 L1914.05 259.79 L1907 259.79 L1893.63 224.235 L1893.63 269.756 L1886.82 269.756 L1886.82 217.916 Z" fill="#000000" fill-rule="evenodd" fill-opacity="1" /><path clip-path="url(#clip060)" d="M1947.38 217.916 L1954.43 217.916 L1954.43 249.409 Q1954.43 257.742 1957.45 261.422 Q1960.47 265.068 1967.24 265.068 Q1973.98 265.068 1977 261.422 Q1980.02 257.742 1980.02 249.409 L1980.02 217.916 L1987.07 217.916 L1987.07 250.277 Q1987.07 260.415 1982.03 265.589 Q1977.03 270.763 1967.24 270.763 Q1957.41 270.763 1952.38 265.589 Q1947.38 260.415 1947.38 250.277 L1947.38 217.916 Z" fill="#000000" fill-rule="evenodd" fill-opacity="1" /><polyline clip-path="url(#clip060)" style="stroke:#e26f46; stroke-linecap:butt; stroke-linejoin:round; stroke-width:6; stroke-opacity:1; fill:none" points="
  1436.91,321.596 1577.4,321.596 
  "/>
<path clip-path="url(#clip060)" d="M1625.4 323.21 Q1627.66 323.974 1629.78 326.474 Q1631.93 328.974 1634.08 333.349 L1641.2 347.516 L1633.66 347.516 L1627.03 334.217 Q1624.46 329.009 1622.03 327.307 Q1619.64 325.606 1615.47 325.606 L1607.83 325.606 L1607.83 347.516 L1600.82 347.516 L1600.82 295.676 L1616.65 295.676 Q1625.54 295.676 1629.91 299.391 Q1634.29 303.106 1634.29 310.606 Q1634.29 315.502 1632 318.731 Q1629.74 321.96 1625.4 323.21 M1607.83 301.44 L1607.83 319.842 L1616.65 319.842 Q1621.72 319.842 1624.29 317.516 Q1626.89 315.155 1626.89 310.606 Q1626.89 306.058 1624.29 303.766 Q1621.72 301.44 1616.65 301.44 L1607.83 301.44 Z" fill="#000000" fill-rule="evenodd" fill-opacity="1" /><path clip-path="url(#clip060)" d="M1680.02 326.474 L1680.02 329.599 L1650.64 329.599 Q1651.06 336.196 1654.6 339.669 Q1658.18 343.106 1664.53 343.106 Q1668.21 343.106 1671.65 342.203 Q1675.12 341.3 1678.53 339.495 L1678.53 345.537 Q1675.09 346.995 1671.48 347.759 Q1667.87 348.523 1664.15 348.523 Q1654.85 348.523 1649.39 343.106 Q1643.98 337.689 1643.98 328.453 Q1643.98 318.905 1649.12 313.315 Q1654.29 307.69 1663.04 307.69 Q1670.89 307.69 1675.44 312.759 Q1680.02 317.794 1680.02 326.474 M1673.63 324.599 Q1673.56 319.356 1670.68 316.231 Q1667.83 313.106 1663.11 313.106 Q1657.76 313.106 1654.53 316.127 Q1651.34 319.148 1650.85 324.634 L1673.63 324.599 Z" fill="#000000" fill-rule="evenodd" fill-opacity="1" /><path clip-path="url(#clip060)" d="M1710.19 293.488 L1710.19 298.801 L1704.08 298.801 Q1700.64 298.801 1699.29 300.19 Q1697.97 301.578 1697.97 305.19 L1697.97 308.627 L1708.49 308.627 L1708.49 313.592 L1697.97 313.592 L1697.97 347.516 L1691.55 347.516 L1691.55 313.592 L1685.44 313.592 L1685.44 308.627 L1691.55 308.627 L1691.55 305.919 Q1691.55 299.426 1694.57 296.474 Q1697.59 293.488 1704.15 293.488 L1710.19 293.488 Z" fill="#000000" fill-rule="evenodd" fill-opacity="1" /><path clip-path="url(#clip060)" d="M1748.8 326.474 L1748.8 329.599 L1719.43 329.599 Q1719.84 336.196 1723.39 339.669 Q1726.96 343.106 1733.32 343.106 Q1737 343.106 1740.44 342.203 Q1743.91 341.3 1747.31 339.495 L1747.31 345.537 Q1743.87 346.995 1740.26 347.759 Q1736.65 348.523 1732.94 348.523 Q1723.63 348.523 1718.18 343.106 Q1712.76 337.689 1712.76 328.453 Q1712.76 318.905 1717.9 313.315 Q1723.07 307.69 1731.82 307.69 Q1739.67 307.69 1744.22 312.759 Q1748.8 317.794 1748.8 326.474 M1742.41 324.599 Q1742.34 319.356 1739.46 316.231 Q1736.62 313.106 1731.89 313.106 Q1726.55 313.106 1723.32 316.127 Q1720.12 319.148 1719.64 324.634 L1742.41 324.599 Z" fill="#000000" fill-rule="evenodd" fill-opacity="1" /><path clip-path="url(#clip060)" d="M1781.82 314.599 Q1780.75 313.974 1779.46 313.696 Q1778.21 313.384 1776.68 313.384 Q1771.27 313.384 1768.35 316.926 Q1765.47 320.433 1765.47 327.03 L1765.47 347.516 L1759.05 347.516 L1759.05 308.627 L1765.47 308.627 L1765.47 314.669 Q1767.48 311.127 1770.71 309.426 Q1773.94 307.69 1778.56 307.69 Q1779.22 307.69 1780.02 307.794 Q1780.82 307.863 1781.79 308.037 L1781.82 314.599 Z" fill="#000000" fill-rule="evenodd" fill-opacity="1" /><path clip-path="url(#clip060)" d="M1820.23 326.474 L1820.23 329.599 L1790.85 329.599 Q1791.27 336.196 1794.81 339.669 Q1798.39 343.106 1804.74 343.106 Q1808.42 343.106 1811.86 342.203 Q1815.33 341.3 1818.73 339.495 L1818.73 345.537 Q1815.3 346.995 1811.68 347.759 Q1808.07 348.523 1804.36 348.523 Q1795.05 348.523 1789.6 343.106 Q1784.18 337.689 1784.18 328.453 Q1784.18 318.905 1789.32 313.315 Q1794.5 307.69 1803.25 307.69 Q1811.09 307.69 1815.64 312.759 Q1820.23 317.794 1820.23 326.474 M1813.84 324.599 Q1813.77 319.356 1810.89 316.231 Q1808.04 313.106 1803.32 313.106 Q1797.97 313.106 1794.74 316.127 Q1791.55 319.148 1791.06 324.634 L1813.84 324.599 Z" fill="#000000" fill-rule="evenodd" fill-opacity="1" /><path clip-path="url(#clip060)" d="M1863.04 324.044 L1863.04 347.516 L1856.65 347.516 L1856.65 324.252 Q1856.65 318.731 1854.5 315.988 Q1852.34 313.245 1848.04 313.245 Q1842.87 313.245 1839.88 316.544 Q1836.89 319.842 1836.89 325.537 L1836.89 347.516 L1830.47 347.516 L1830.47 308.627 L1836.89 308.627 L1836.89 314.669 Q1839.18 311.162 1842.27 309.426 Q1845.4 307.69 1849.46 307.69 Q1856.16 307.69 1859.6 311.856 Q1863.04 315.988 1863.04 324.044 Z" fill="#000000" fill-rule="evenodd" fill-opacity="1" /><path clip-path="url(#clip060)" d="M1903.77 310.12 L1903.77 316.092 Q1901.06 314.599 1898.32 313.87 Q1895.61 313.106 1892.83 313.106 Q1886.61 313.106 1883.18 317.064 Q1879.74 320.988 1879.74 328.106 Q1879.74 335.224 1883.18 339.182 Q1886.61 343.106 1892.83 343.106 Q1895.61 343.106 1898.32 342.377 Q1901.06 341.613 1903.77 340.12 L1903.77 346.023 Q1901.09 347.273 1898.21 347.898 Q1895.36 348.523 1892.14 348.523 Q1883.35 348.523 1878.18 343.002 Q1873 337.481 1873 328.106 Q1873 318.592 1878.21 313.141 Q1883.46 307.69 1892.55 307.69 Q1895.5 307.69 1898.32 308.315 Q1901.13 308.905 1903.77 310.12 Z" fill="#000000" fill-rule="evenodd" fill-opacity="1" /><path clip-path="url(#clip060)" d="M1948.14 326.474 L1948.14 329.599 L1918.77 329.599 Q1919.18 336.196 1922.73 339.669 Q1926.3 343.106 1932.66 343.106 Q1936.34 343.106 1939.77 342.203 Q1943.25 341.3 1946.65 339.495 L1946.65 345.537 Q1943.21 346.995 1939.6 347.759 Q1935.99 348.523 1932.27 348.523 Q1922.97 348.523 1917.52 343.106 Q1912.1 337.689 1912.1 328.453 Q1912.1 318.905 1917.24 313.315 Q1922.41 307.69 1931.16 307.69 Q1939.01 307.69 1943.56 312.759 Q1948.14 317.794 1948.14 326.474 M1941.75 324.599 Q1941.68 319.356 1938.8 316.231 Q1935.95 313.106 1931.23 313.106 Q1925.89 313.106 1922.66 316.127 Q1919.46 319.148 1918.98 324.634 L1941.75 324.599 Z" fill="#000000" fill-rule="evenodd" fill-opacity="1" /><polyline clip-path="url(#clip060)" style="stroke:#008000; stroke-linecap:butt; stroke-linejoin:round; stroke-width:6; stroke-opacity:1; fill:none" stroke-dasharray="3, 6" points="
  1436.91,399.356 1577.4,399.356 
  "/>
<path clip-path="url(#clip060)" d="M1600.82 373.436 L1610.26 373.436 L1633.25 416.804 L1633.25 373.436 L1640.05 373.436 L1640.05 425.276 L1630.61 425.276 L1607.62 381.908 L1607.62 425.276 L1600.82 425.276 L1600.82 373.436 Z" fill="#000000" fill-rule="evenodd" fill-opacity="1" /><path clip-path="url(#clip060)" d="M1687 404.234 L1687 407.359 L1657.62 407.359 Q1658.04 413.956 1661.58 417.429 Q1665.16 420.866 1671.51 420.866 Q1675.19 420.866 1678.63 419.963 Q1682.1 419.06 1685.5 417.255 L1685.5 423.297 Q1682.07 424.755 1678.46 425.519 Q1674.85 426.283 1671.13 426.283 Q1661.82 426.283 1656.37 420.866 Q1650.96 415.449 1650.96 406.213 Q1650.96 396.665 1656.1 391.075 Q1661.27 385.45 1670.02 385.45 Q1677.87 385.45 1682.41 390.519 Q1687 395.554 1687 404.234 M1680.61 402.359 Q1680.54 397.116 1677.66 393.991 Q1674.81 390.866 1670.09 390.866 Q1664.74 390.866 1661.51 393.887 Q1658.32 396.908 1657.83 402.394 L1680.61 402.359 Z" fill="#000000" fill-rule="evenodd" fill-opacity="1" /><path clip-path="url(#clip060)" d="M1696.82 409.929 L1696.82 386.387 L1703.21 386.387 L1703.21 409.686 Q1703.21 415.206 1705.37 417.984 Q1707.52 420.727 1711.82 420.727 Q1717 420.727 1719.98 417.429 Q1723 414.13 1723 408.436 L1723 386.387 L1729.39 386.387 L1729.39 425.276 L1723 425.276 L1723 419.304 Q1720.68 422.845 1717.59 424.581 Q1714.53 426.283 1710.47 426.283 Q1703.77 426.283 1700.3 422.116 Q1696.82 417.949 1696.82 409.929 M1712.9 385.45 L1712.9 385.45 Z" fill="#000000" fill-rule="evenodd" fill-opacity="1" /><path clip-path="url(#clip060)" d="M1765.09 392.359 Q1764.01 391.734 1762.73 391.456 Q1761.48 391.144 1759.95 391.144 Q1754.53 391.144 1751.62 394.686 Q1748.73 398.193 1748.73 404.79 L1748.73 425.276 L1742.31 425.276 L1742.31 386.387 L1748.73 386.387 L1748.73 392.429 Q1750.75 388.887 1753.98 387.186 Q1757.21 385.45 1761.82 385.45 Q1762.48 385.45 1763.28 385.554 Q1764.08 385.623 1765.05 385.797 L1765.09 392.359 Z" fill="#000000" fill-rule="evenodd" fill-opacity="1" /><path clip-path="url(#clip060)" d="M1789.46 405.727 Q1781.72 405.727 1778.73 407.498 Q1775.75 409.269 1775.75 413.54 Q1775.75 416.942 1777.97 418.956 Q1780.23 420.935 1784.08 420.935 Q1789.39 420.935 1792.59 417.185 Q1795.82 413.401 1795.82 407.151 L1795.82 405.727 L1789.46 405.727 M1802.21 403.088 L1802.21 425.276 L1795.82 425.276 L1795.82 419.373 Q1793.63 422.915 1790.37 424.616 Q1787.1 426.283 1782.38 426.283 Q1776.41 426.283 1772.87 422.949 Q1769.36 419.581 1769.36 413.956 Q1769.36 407.394 1773.73 404.061 Q1778.14 400.727 1786.86 400.727 L1795.82 400.727 L1795.82 400.102 Q1795.82 395.693 1792.9 393.297 Q1790.02 390.866 1784.78 390.866 Q1781.44 390.866 1778.28 391.665 Q1775.12 392.463 1772.21 394.061 L1772.21 388.158 Q1775.71 386.804 1779.01 386.144 Q1782.31 385.45 1785.43 385.45 Q1793.87 385.45 1798.04 389.825 Q1802.21 394.199 1802.21 403.088 Z" fill="#000000" fill-rule="evenodd" fill-opacity="1" /><path clip-path="url(#clip060)" d="M1815.37 371.248 L1821.75 371.248 L1821.75 425.276 L1815.37 425.276 L1815.37 371.248 Z" fill="#000000" fill-rule="evenodd" fill-opacity="1" /><path clip-path="url(#clip060)" d="M1835.4 373.436 L1865.19 373.436 L1865.19 379.338 L1842.41 379.338 L1842.41 394.616 L1862.97 394.616 L1862.97 400.519 L1842.41 400.519 L1842.41 425.276 L1835.4 425.276 L1835.4 373.436 Z" fill="#000000" fill-rule="evenodd" fill-opacity="1" /><path clip-path="url(#clip060)" d="M1876.3 373.436 L1886.75 373.436 L1899.98 408.713 L1913.28 373.436 L1923.73 373.436 L1923.73 425.276 L1916.89 425.276 L1916.89 379.755 L1903.52 415.31 L1896.48 415.31 L1883.11 379.755 L1883.11 425.276 L1876.3 425.276 L1876.3 373.436 Z" fill="#000000" fill-rule="evenodd" fill-opacity="1" /><path clip-path="url(#clip060)" d="M1936.86 373.436 L1943.91 373.436 L1943.91 404.929 Q1943.91 413.262 1946.93 416.942 Q1949.95 420.588 1956.72 420.588 Q1963.45 420.588 1966.48 416.942 Q1969.5 413.262 1969.5 404.929 L1969.5 373.436 L1976.54 373.436 L1976.54 405.797 Q1976.54 415.935 1971.51 421.109 Q1966.51 426.283 1956.72 426.283 Q1946.89 426.283 1941.86 421.109 Q1936.86 415.935 1936.86 405.797 L1936.86 373.436 Z" fill="#000000" fill-rule="evenodd" fill-opacity="1" /><path clip-path="url(#clip060)" d="M2027.38 371.318 Q2022.73 379.304 2020.47 387.116 Q2018.21 394.929 2018.21 402.949 Q2018.21 410.97 2020.47 418.852 Q2022.76 426.699 2027.38 434.651 L2021.82 434.651 Q2016.61 426.491 2014.01 418.609 Q2011.44 410.727 2011.44 402.949 Q2011.44 395.206 2014.01 387.359 Q2016.58 379.512 2021.82 371.318 L2027.38 371.318 Z" fill="#000000" fill-rule="evenodd" fill-opacity="1" /><path clip-path="url(#clip060)" d="M2046.72 419.373 L2071.2 419.373 L2071.2 425.276 L2038.28 425.276 L2038.28 419.373 Q2042.27 415.241 2049.15 408.297 Q2056.06 401.318 2057.83 399.304 Q2061.2 395.519 2062.52 392.915 Q2063.87 390.276 2063.87 387.741 Q2063.87 383.609 2060.95 381.005 Q2058.07 378.401 2053.42 378.401 Q2050.12 378.401 2046.44 379.547 Q2042.79 380.693 2038.63 383.019 L2038.63 375.936 Q2042.86 374.234 2046.54 373.366 Q2050.23 372.498 2053.28 372.498 Q2061.34 372.498 2066.13 376.526 Q2070.92 380.554 2070.92 387.29 Q2070.92 390.484 2069.7 393.366 Q2068.52 396.213 2065.36 400.102 Q2064.5 401.109 2059.84 405.936 Q2055.19 410.727 2046.72 419.373 Z" fill="#000000" fill-rule="evenodd" fill-opacity="1" /><path clip-path="url(#clip060)" d="M2085.99 373.436 L2113.52 373.436 L2113.52 379.338 L2092.41 379.338 L2092.41 392.047 Q2093.94 391.526 2095.47 391.283 Q2097 391.005 2098.52 391.005 Q2107.2 391.005 2112.27 395.762 Q2117.34 400.519 2117.34 408.644 Q2117.34 417.012 2112.13 421.665 Q2106.93 426.283 2097.45 426.283 Q2094.18 426.283 2090.78 425.727 Q2087.41 425.172 2083.8 424.06 L2083.8 417.012 Q2086.93 418.713 2090.26 419.547 Q2093.59 420.38 2097.31 420.38 Q2103.32 420.38 2106.82 417.22 Q2110.33 414.06 2110.33 408.644 Q2110.33 403.227 2106.82 400.068 Q2103.32 396.908 2097.31 396.908 Q2094.5 396.908 2091.68 397.533 Q2088.91 398.158 2085.99 399.477 L2085.99 373.436 Z" fill="#000000" fill-rule="evenodd" fill-opacity="1" /><path clip-path="url(#clip060)" d="M2146.16 378.054 Q2140.75 378.054 2138 383.401 Q2135.29 388.713 2135.29 399.408 Q2135.29 410.067 2138 415.415 Q2140.75 420.727 2146.16 420.727 Q2151.61 420.727 2154.32 415.415 Q2157.06 410.067 2157.06 399.408 Q2157.06 388.713 2154.32 383.401 Q2151.61 378.054 2146.16 378.054 M2146.16 372.498 Q2154.88 372.498 2159.46 379.408 Q2164.08 386.283 2164.08 399.408 Q2164.08 412.498 2159.46 419.408 Q2154.88 426.283 2146.16 426.283 Q2137.45 426.283 2132.83 419.408 Q2128.25 412.498 2128.25 399.408 Q2128.25 386.283 2132.83 379.408 Q2137.45 372.498 2146.16 372.498 Z" fill="#000000" fill-rule="evenodd" fill-opacity="1" /><path clip-path="url(#clip060)" d="M2191.4 378.054 Q2185.99 378.054 2183.25 383.401 Q2180.54 388.713 2180.54 399.408 Q2180.54 410.067 2183.25 415.415 Q2185.99 420.727 2191.4 420.727 Q2196.86 420.727 2199.56 415.415 Q2202.31 410.067 2202.31 399.408 Q2202.31 388.713 2199.56 383.401 Q2196.86 378.054 2191.4 378.054 M2191.4 372.498 Q2200.12 372.498 2204.7 379.408 Q2209.32 386.283 2209.32 399.408 Q2209.32 412.498 2204.7 419.408 Q2200.12 426.283 2191.4 426.283 Q2182.69 426.283 2178.07 419.408 Q2173.49 412.498 2173.49 399.408 Q2173.49 386.283 2178.07 379.408 Q2182.69 372.498 2191.4 372.498 Z" fill="#000000" fill-rule="evenodd" fill-opacity="1" /><path clip-path="url(#clip060)" d="M2219.74 371.318 L2225.29 371.318 Q2230.5 379.512 2233.07 387.359 Q2235.68 395.206 2235.68 402.949 Q2235.68 410.727 2233.07 418.609 Q2230.5 426.491 2225.29 434.651 L2219.74 434.651 Q2224.36 426.699 2226.61 418.852 Q2228.9 410.97 2228.9 402.949 Q2228.9 394.929 2226.61 387.116 Q2224.36 379.304 2219.74 371.318 Z" fill="#000000" fill-rule="evenodd" fill-opacity="1" /><polyline clip-path="url(#clip060)" style="stroke:#008000; stroke-linecap:butt; stroke-linejoin:round; stroke-width:6; stroke-opacity:1; fill:none" points="
  1436.91,477.116 1577.4,477.116 
  "/>
<path clip-path="url(#clip060)" d="M1600.82 451.196 L1610.26 451.196 L1633.25 494.564 L1633.25 451.196 L1640.05 451.196 L1640.05 503.036 L1630.61 503.036 L1607.62 459.668 L1607.62 503.036 L1600.82 503.036 L1600.82 451.196 Z" fill="#000000" fill-rule="evenodd" fill-opacity="1" /><path clip-path="url(#clip060)" d="M1687 481.994 L1687 485.119 L1657.62 485.119 Q1658.04 491.716 1661.58 495.189 Q1665.16 498.626 1671.51 498.626 Q1675.19 498.626 1678.63 497.723 Q1682.1 496.82 1685.5 495.015 L1685.5 501.057 Q1682.07 502.515 1678.46 503.279 Q1674.85 504.043 1671.13 504.043 Q1661.82 504.043 1656.37 498.626 Q1650.96 493.209 1650.96 483.973 Q1650.96 474.425 1656.1 468.835 Q1661.27 463.21 1670.02 463.21 Q1677.87 463.21 1682.41 468.279 Q1687 473.314 1687 481.994 M1680.61 480.119 Q1680.54 474.876 1677.66 471.751 Q1674.81 468.626 1670.09 468.626 Q1664.74 468.626 1661.51 471.647 Q1658.32 474.668 1657.83 480.154 L1680.61 480.119 Z" fill="#000000" fill-rule="evenodd" fill-opacity="1" /><path clip-path="url(#clip060)" d="M1696.82 487.689 L1696.82 464.147 L1703.21 464.147 L1703.21 487.446 Q1703.21 492.966 1705.37 495.744 Q1707.52 498.487 1711.82 498.487 Q1717 498.487 1719.98 495.189 Q1723 491.89 1723 486.196 L1723 464.147 L1729.39 464.147 L1729.39 503.036 L1723 503.036 L1723 497.064 Q1720.68 500.605 1717.59 502.341 Q1714.53 504.043 1710.47 504.043 Q1703.77 504.043 1700.3 499.876 Q1696.82 495.709 1696.82 487.689 M1712.9 463.21 L1712.9 463.21 Z" fill="#000000" fill-rule="evenodd" fill-opacity="1" /><path clip-path="url(#clip060)" d="M1765.09 470.119 Q1764.01 469.494 1762.73 469.216 Q1761.48 468.904 1759.95 468.904 Q1754.53 468.904 1751.62 472.446 Q1748.73 475.953 1748.73 482.55 L1748.73 503.036 L1742.31 503.036 L1742.31 464.147 L1748.73 464.147 L1748.73 470.189 Q1750.75 466.647 1753.98 464.946 Q1757.21 463.21 1761.82 463.21 Q1762.48 463.21 1763.28 463.314 Q1764.08 463.383 1765.05 463.557 L1765.09 470.119 Z" fill="#000000" fill-rule="evenodd" fill-opacity="1" /><path clip-path="url(#clip060)" d="M1789.46 483.487 Q1781.72 483.487 1778.73 485.258 Q1775.75 487.029 1775.75 491.3 Q1775.75 494.702 1777.97 496.716 Q1780.23 498.695 1784.08 498.695 Q1789.39 498.695 1792.59 494.945 Q1795.82 491.161 1795.82 484.911 L1795.82 483.487 L1789.46 483.487 M1802.21 480.848 L1802.21 503.036 L1795.82 503.036 L1795.82 497.133 Q1793.63 500.675 1790.37 502.376 Q1787.1 504.043 1782.38 504.043 Q1776.41 504.043 1772.87 500.709 Q1769.36 497.341 1769.36 491.716 Q1769.36 485.154 1773.73 481.821 Q1778.14 478.487 1786.86 478.487 L1795.82 478.487 L1795.82 477.862 Q1795.82 473.453 1792.9 471.057 Q1790.02 468.626 1784.78 468.626 Q1781.44 468.626 1778.28 469.425 Q1775.12 470.223 1772.21 471.821 L1772.21 465.918 Q1775.71 464.564 1779.01 463.904 Q1782.31 463.21 1785.43 463.21 Q1793.87 463.21 1798.04 467.585 Q1802.21 471.959 1802.21 480.848 Z" fill="#000000" fill-rule="evenodd" fill-opacity="1" /><path clip-path="url(#clip060)" d="M1815.37 449.008 L1821.75 449.008 L1821.75 503.036 L1815.37 503.036 L1815.37 449.008 Z" fill="#000000" fill-rule="evenodd" fill-opacity="1" /><path clip-path="url(#clip060)" d="M1835.4 451.196 L1865.19 451.196 L1865.19 457.098 L1842.41 457.098 L1842.41 472.376 L1862.97 472.376 L1862.97 478.279 L1842.41 478.279 L1842.41 503.036 L1835.4 503.036 L1835.4 451.196 Z" fill="#000000" fill-rule="evenodd" fill-opacity="1" /><path clip-path="url(#clip060)" d="M1876.3 451.196 L1886.75 451.196 L1899.98 486.473 L1913.28 451.196 L1923.73 451.196 L1923.73 503.036 L1916.89 503.036 L1916.89 457.515 L1903.52 493.07 L1896.48 493.07 L1883.11 457.515 L1883.11 503.036 L1876.3 503.036 L1876.3 451.196 Z" fill="#000000" fill-rule="evenodd" fill-opacity="1" /><path clip-path="url(#clip060)" d="M1936.86 451.196 L1943.91 451.196 L1943.91 482.689 Q1943.91 491.022 1946.93 494.702 Q1949.95 498.348 1956.72 498.348 Q1963.45 498.348 1966.48 494.702 Q1969.5 491.022 1969.5 482.689 L1969.5 451.196 L1976.54 451.196 L1976.54 483.557 Q1976.54 493.695 1971.51 498.869 Q1966.51 504.043 1956.72 504.043 Q1946.89 504.043 1941.86 498.869 Q1936.86 493.695 1936.86 483.557 L1936.86 451.196 Z" fill="#000000" fill-rule="evenodd" fill-opacity="1" /><path clip-path="url(#clip060)" d="M2027.38 449.078 Q2022.73 457.064 2020.47 464.876 Q2018.21 472.689 2018.21 480.709 Q2018.21 488.73 2020.47 496.612 Q2022.76 504.459 2027.38 512.411 L2021.82 512.411 Q2016.61 504.251 2014.01 496.369 Q2011.44 488.487 2011.44 480.709 Q2011.44 472.966 2014.01 465.119 Q2016.58 457.272 2021.82 449.078 L2027.38 449.078 Z" fill="#000000" fill-rule="evenodd" fill-opacity="1" /><path clip-path="url(#clip060)" d="M2040.75 451.196 L2068.28 451.196 L2068.28 457.098 L2047.17 457.098 L2047.17 469.807 Q2048.7 469.286 2050.23 469.043 Q2051.75 468.765 2053.28 468.765 Q2061.96 468.765 2067.03 473.522 Q2072.1 478.279 2072.1 486.404 Q2072.1 494.772 2066.89 499.425 Q2061.68 504.043 2052.2 504.043 Q2048.94 504.043 2045.54 503.487 Q2042.17 502.932 2038.56 501.82 L2038.56 494.772 Q2041.68 496.473 2045.02 497.307 Q2048.35 498.14 2052.07 498.14 Q2058.07 498.14 2061.58 494.98 Q2065.09 491.82 2065.09 486.404 Q2065.09 480.987 2061.58 477.828 Q2058.07 474.668 2052.07 474.668 Q2049.25 474.668 2046.44 475.293 Q2043.66 475.918 2040.75 477.237 L2040.75 451.196 Z" fill="#000000" fill-rule="evenodd" fill-opacity="1" /><path clip-path="url(#clip060)" d="M2100.92 455.814 Q2095.5 455.814 2092.76 461.161 Q2090.05 466.473 2090.05 477.168 Q2090.05 487.827 2092.76 493.175 Q2095.5 498.487 2100.92 498.487 Q2106.37 498.487 2109.08 493.175 Q2111.82 487.827 2111.82 477.168 Q2111.82 466.473 2109.08 461.161 Q2106.37 455.814 2100.92 455.814 M2100.92 450.258 Q2109.63 450.258 2114.22 457.168 Q2118.84 464.043 2118.84 477.168 Q2118.84 490.258 2114.22 497.168 Q2109.63 504.043 2100.92 504.043 Q2092.2 504.043 2087.59 497.168 Q2083 490.258 2083 477.168 Q2083 464.043 2087.59 457.168 Q2092.2 450.258 2100.92 450.258 Z" fill="#000000" fill-rule="evenodd" fill-opacity="1" /><path clip-path="url(#clip060)" d="M2146.16 455.814 Q2140.75 455.814 2138 461.161 Q2135.29 466.473 2135.29 477.168 Q2135.29 487.827 2138 493.175 Q2140.75 498.487 2146.16 498.487 Q2151.61 498.487 2154.32 493.175 Q2157.06 487.827 2157.06 477.168 Q2157.06 466.473 2154.32 461.161 Q2151.61 455.814 2146.16 455.814 M2146.16 450.258 Q2154.88 450.258 2159.46 457.168 Q2164.08 464.043 2164.08 477.168 Q2164.08 490.258 2159.46 497.168 Q2154.88 504.043 2146.16 504.043 Q2137.45 504.043 2132.83 497.168 Q2128.25 490.258 2128.25 477.168 Q2128.25 464.043 2132.83 457.168 Q2137.45 450.258 2146.16 450.258 Z" fill="#000000" fill-rule="evenodd" fill-opacity="1" /><path clip-path="url(#clip060)" d="M2191.4 455.814 Q2185.99 455.814 2183.25 461.161 Q2180.54 466.473 2180.54 477.168 Q2180.54 487.827 2183.25 493.175 Q2185.99 498.487 2191.4 498.487 Q2196.86 498.487 2199.56 493.175 Q2202.31 487.827 2202.31 477.168 Q2202.31 466.473 2199.56 461.161 Q2196.86 455.814 2191.4 455.814 M2191.4 450.258 Q2200.12 450.258 2204.7 457.168 Q2209.32 464.043 2209.32 477.168 Q2209.32 490.258 2204.7 497.168 Q2200.12 504.043 2191.4 504.043 Q2182.69 504.043 2178.07 497.168 Q2173.49 490.258 2173.49 477.168 Q2173.49 464.043 2178.07 457.168 Q2182.69 450.258 2191.4 450.258 Z" fill="#000000" fill-rule="evenodd" fill-opacity="1" /><path clip-path="url(#clip060)" d="M2219.74 449.078 L2225.29 449.078 Q2230.5 457.272 2233.07 465.119 Q2235.68 472.966 2235.68 480.709 Q2235.68 488.487 2233.07 496.369 Q2230.5 504.251 2225.29 512.411 L2219.74 512.411 Q2224.36 504.459 2226.61 496.612 Q2228.9 488.73 2228.9 480.709 Q2228.9 472.689 2226.61 464.876 Q2224.36 457.064 2219.74 449.078 Z" fill="#000000" fill-rule="evenodd" fill-opacity="1" /></svg>
