<?xml version="1.0" encoding="utf-8"?>
<svg xmlns="http://www.w3.org/2000/svg" xmlns:xlink="http://www.w3.org/1999/xlink" width="600" height="400" viewBox="0 0 2400 1600">
<defs>
  <clipPath id="clip310">
    <rect x="0" y="0" width="2400" height="1600"/>
  </clipPath>
</defs>
<path clip-path="url(#clip310)" d="
M0 1600 L2400 1600 L2400 0 L0 0  Z
  " fill="#ffffff" fill-rule="evenodd" fill-opacity="1"/>
<defs>
  <clipPath id="clip311">
    <rect x="480" y="0" width="1681" height="1600"/>
  </clipPath>
</defs>
<path clip-path="url(#clip310)" d="
M315.725 1401.58 L2352.76 1401.58 L2352.76 123.472 L315.725 123.472  Z
  " fill="#ffffff" fill-rule="evenodd" fill-opacity="1"/>
<defs>
  <clipPath id="clip312">
    <rect x="315" y="123" width="2038" height="1279"/>
  </clipPath>
</defs>
<polyline clip-path="url(#clip312)" style="stroke:#000000; stroke-linecap:butt; stroke-linejoin:round; stroke-width:2; stroke-opacity:0.1; fill:none" points="
  519.428,1401.58 519.428,123.472 
  "/>
<polyline clip-path="url(#clip312)" style="stroke:#000000; stroke-linecap:butt; stroke-linejoin:round; stroke-width:2; stroke-opacity:0.1; fill:none" points="
  926.834,1401.58 926.834,123.472 
  "/>
<polyline clip-path="url(#clip312)" style="stroke:#000000; stroke-linecap:butt; stroke-linejoin:round; stroke-width:2; stroke-opacity:0.1; fill:none" points="
  1334.24,1401.58 1334.24,123.472 
  "/>
<polyline clip-path="url(#clip312)" style="stroke:#000000; stroke-linecap:butt; stroke-linejoin:round; stroke-width:2; stroke-opacity:0.1; fill:none" points="
  1741.65,1401.58 1741.65,123.472 
  "/>
<polyline clip-path="url(#clip312)" style="stroke:#000000; stroke-linecap:butt; stroke-linejoin:round; stroke-width:2; stroke-opacity:0.1; fill:none" points="
  2149.05,1401.58 2149.05,123.472 
  "/>
<polyline clip-path="url(#clip310)" style="stroke:#000000; stroke-linecap:butt; stroke-linejoin:round; stroke-width:4; stroke-opacity:1; fill:none" points="
  315.725,1401.58 2352.76,1401.58 
  "/>
<polyline clip-path="url(#clip310)" style="stroke:#000000; stroke-linecap:butt; stroke-linejoin:round; stroke-width:4; stroke-opacity:1; fill:none" points="
  519.428,1401.58 519.428,1382.68 
  "/>
<polyline clip-path="url(#clip310)" style="stroke:#000000; stroke-linecap:butt; stroke-linejoin:round; stroke-width:4; stroke-opacity:1; fill:none" points="
  926.834,1401.58 926.834,1382.68 
  "/>
<polyline clip-path="url(#clip310)" style="stroke:#000000; stroke-linecap:butt; stroke-linejoin:round; stroke-width:4; stroke-opacity:1; fill:none" points="
  1334.24,1401.58 1334.24,1382.68 
  "/>
<polyline clip-path="url(#clip310)" style="stroke:#000000; stroke-linecap:butt; stroke-linejoin:round; stroke-width:4; stroke-opacity:1; fill:none" points="
  1741.65,1401.58 1741.65,1382.68 
  "/>
<polyline clip-path="url(#clip310)" style="stroke:#000000; stroke-linecap:butt; stroke-linejoin:round; stroke-width:4; stroke-opacity:1; fill:none" points="
  2149.05,1401.58 2149.05,1382.68 
  "/>
<path clip-path="url(#clip310)" d="M439.22 1460.34 L483.734 1460.34 L483.734 1466.24 L439.22 1466.24 L439.22 1460.34 Z" fill="#000000" fill-rule="evenodd" fill-opacity="1" /><path clip-path="url(#clip310)" d="M500.088 1479.68 L511.546 1479.68 L511.546 1440.13 L499.081 1442.63 L499.081 1436.24 L511.477 1433.74 L518.491 1433.74 L518.491 1479.68 L529.949 1479.68 L529.949 1485.58 L500.088 1485.58 L500.088 1479.68 Z" fill="#000000" fill-rule="evenodd" fill-opacity="1" /><path clip-path="url(#clip310)" d="M544.116 1476.76 L551.442 1476.76 L551.442 1485.58 L544.116 1485.58 L544.116 1476.76 Z" fill="#000000" fill-rule="evenodd" fill-opacity="1" /><path clip-path="url(#clip310)" d="M581.72 1438.36 Q576.303 1438.36 573.56 1443.71 Q570.852 1449.02 570.852 1459.71 Q570.852 1470.37 573.56 1475.72 Q576.303 1481.03 581.72 1481.03 Q587.171 1481.03 589.879 1475.72 Q592.622 1470.37 592.622 1459.71 Q592.622 1449.02 589.879 1443.71 Q587.171 1438.36 581.72 1438.36 M581.72 1432.8 Q590.435 1432.8 595.018 1439.71 Q599.636 1446.59 599.636 1459.71 Q599.636 1472.8 595.018 1479.71 Q590.435 1486.59 581.72 1486.59 Q573.004 1486.59 568.386 1479.71 Q563.803 1472.8 563.803 1459.71 Q563.803 1446.59 568.386 1439.71 Q573.004 1432.8 581.72 1432.8 Z" fill="#000000" fill-rule="evenodd" fill-opacity="1" /><path clip-path="url(#clip310)" d="M847.373 1460.34 L891.887 1460.34 L891.887 1466.24 L847.373 1466.24 L847.373 1460.34 Z" fill="#000000" fill-rule="evenodd" fill-opacity="1" /><path clip-path="url(#clip310)" d="M922.025 1438.36 Q916.609 1438.36 913.866 1443.71 Q911.157 1449.02 911.157 1459.71 Q911.157 1470.37 913.866 1475.72 Q916.609 1481.03 922.025 1481.03 Q927.477 1481.03 930.185 1475.72 Q932.928 1470.37 932.928 1459.71 Q932.928 1449.02 930.185 1443.71 Q927.477 1438.36 922.025 1438.36 M922.025 1432.8 Q930.741 1432.8 935.324 1439.71 Q939.942 1446.59 939.942 1459.71 Q939.942 1472.8 935.324 1479.71 Q930.741 1486.59 922.025 1486.59 Q913.31 1486.59 908.692 1479.71 Q904.109 1472.8 904.109 1459.71 Q904.109 1446.59 908.692 1439.71 Q913.31 1432.8 922.025 1432.8 Z" fill="#000000" fill-rule="evenodd" fill-opacity="1" /><path clip-path="url(#clip310)" d="M952.268 1476.76 L959.595 1476.76 L959.595 1485.58 L952.268 1485.58 L952.268 1476.76 Z" fill="#000000" fill-rule="evenodd" fill-opacity="1" /><path clip-path="url(#clip310)" d="M974.942 1433.74 L1002.48 1433.74 L1002.48 1439.64 L981.365 1439.64 L981.365 1452.35 Q982.893 1451.83 984.421 1451.59 Q985.949 1451.31 987.476 1451.31 Q996.157 1451.31 1001.23 1456.07 Q1006.3 1460.82 1006.3 1468.95 Q1006.3 1477.32 1001.09 1481.97 Q995.879 1486.59 986.4 1486.59 Q983.136 1486.59 979.733 1486.03 Q976.365 1485.48 972.754 1484.36 L972.754 1477.32 Q975.879 1479.02 979.213 1479.85 Q982.546 1480.68 986.261 1480.68 Q992.268 1480.68 995.775 1477.52 Q999.282 1474.36 999.282 1468.95 Q999.282 1463.53 995.775 1460.37 Q992.268 1457.21 986.261 1457.21 Q983.449 1457.21 980.636 1457.84 Q977.858 1458.46 974.942 1459.78 L974.942 1433.74 Z" fill="#000000" fill-rule="evenodd" fill-opacity="1" /><path clip-path="url(#clip310)" d="M1300.32 1438.36 Q1294.9 1438.36 1292.16 1443.71 Q1289.45 1449.02 1289.45 1459.71 Q1289.45 1470.37 1292.16 1475.72 Q1294.9 1481.03 1300.32 1481.03 Q1305.77 1481.03 1308.48 1475.72 Q1311.22 1470.37 1311.22 1459.71 Q1311.22 1449.02 1308.48 1443.71 Q1305.77 1438.36 1300.32 1438.36 M1300.32 1432.8 Q1309.03 1432.8 1313.62 1439.71 Q1318.23 1446.59 1318.23 1459.71 Q1318.23 1472.8 1313.62 1479.71 Q1309.03 1486.59 1300.32 1486.59 Q1291.6 1486.59 1286.98 1479.71 Q1282.4 1472.8 1282.4 1459.71 Q1282.4 1446.59 1286.98 1439.71 Q1291.6 1432.8 1300.32 1432.8 Z" fill="#000000" fill-rule="evenodd" fill-opacity="1" /><path clip-path="url(#clip310)" d="M1330.56 1476.76 L1337.89 1476.76 L1337.89 1485.58 L1330.56 1485.58 L1330.56 1476.76 Z" fill="#000000" fill-rule="evenodd" fill-opacity="1" /><path clip-path="url(#clip310)" d="M1368.16 1438.36 Q1362.75 1438.36 1360 1443.71 Q1357.3 1449.02 1357.3 1459.71 Q1357.3 1470.37 1360 1475.72 Q1362.75 1481.03 1368.16 1481.03 Q1373.62 1481.03 1376.32 1475.72 Q1379.07 1470.37 1379.07 1459.71 Q1379.07 1449.02 1376.32 1443.71 Q1373.62 1438.36 1368.16 1438.36 M1368.16 1432.8 Q1376.88 1432.8 1381.46 1439.71 Q1386.08 1446.59 1386.08 1459.71 Q1386.08 1472.8 1381.46 1479.71 Q1376.88 1486.59 1368.16 1486.59 Q1359.45 1486.59 1354.83 1479.71 Q1350.25 1472.8 1350.25 1459.71 Q1350.25 1446.59 1354.83 1439.71 Q1359.45 1432.8 1368.16 1432.8 Z" fill="#000000" fill-rule="evenodd" fill-opacity="1" /><path clip-path="url(#clip310)" d="M1708.47 1438.36 Q1703.05 1438.36 1700.31 1443.71 Q1697.6 1449.02 1697.6 1459.71 Q1697.6 1470.37 1700.31 1475.72 Q1703.05 1481.03 1708.47 1481.03 Q1713.92 1481.03 1716.63 1475.72 Q1719.37 1470.37 1719.37 1459.71 Q1719.37 1449.02 1716.63 1443.71 Q1713.92 1438.36 1708.47 1438.36 M1708.47 1432.8 Q1717.18 1432.8 1721.77 1439.71 Q1726.39 1446.59 1726.39 1459.71 Q1726.39 1472.8 1721.77 1479.71 Q1717.18 1486.59 1708.47 1486.59 Q1699.75 1486.59 1695.14 1479.71 Q1690.55 1472.8 1690.55 1459.71 Q1690.55 1446.59 1695.14 1439.71 Q1699.75 1432.8 1708.47 1432.8 Z" fill="#000000" fill-rule="evenodd" fill-opacity="1" /><path clip-path="url(#clip310)" d="M1738.71 1476.76 L1746.04 1476.76 L1746.04 1485.58 L1738.71 1485.58 L1738.71 1476.76 Z" fill="#000000" fill-rule="evenodd" fill-opacity="1" /><path clip-path="url(#clip310)" d="M1761.39 1433.74 L1788.92 1433.74 L1788.92 1439.64 L1767.81 1439.64 L1767.81 1452.35 Q1769.34 1451.83 1770.87 1451.59 Q1772.39 1451.31 1773.92 1451.31 Q1782.6 1451.31 1787.67 1456.07 Q1792.74 1460.82 1792.74 1468.95 Q1792.74 1477.32 1787.53 1481.97 Q1782.32 1486.59 1772.84 1486.59 Q1769.58 1486.59 1766.18 1486.03 Q1762.81 1485.48 1759.2 1484.36 L1759.2 1477.32 Q1762.32 1479.02 1765.66 1479.85 Q1768.99 1480.68 1772.71 1480.68 Q1778.71 1480.68 1782.22 1477.52 Q1785.73 1474.36 1785.73 1468.95 Q1785.73 1463.53 1782.22 1460.37 Q1778.71 1457.21 1772.71 1457.21 Q1769.89 1457.21 1767.08 1457.84 Q1764.3 1458.46 1761.39 1459.78 L1761.39 1433.74 Z" fill="#000000" fill-rule="evenodd" fill-opacity="1" /><path clip-path="url(#clip310)" d="M2099.78 1479.68 L2111.24 1479.68 L2111.24 1440.13 L2098.78 1442.63 L2098.78 1436.24 L2111.17 1433.74 L2118.18 1433.74 L2118.18 1479.68 L2129.64 1479.68 L2129.64 1485.58 L2099.78 1485.58 L2099.78 1479.68 Z" fill="#000000" fill-rule="evenodd" fill-opacity="1" /><path clip-path="url(#clip310)" d="M2143.81 1476.76 L2151.14 1476.76 L2151.14 1485.58 L2143.81 1485.58 L2143.81 1476.76 Z" fill="#000000" fill-rule="evenodd" fill-opacity="1" /><path clip-path="url(#clip310)" d="M2181.41 1438.36 Q2176 1438.36 2173.25 1443.71 Q2170.55 1449.02 2170.55 1459.71 Q2170.55 1470.37 2173.25 1475.72 Q2176 1481.03 2181.41 1481.03 Q2186.87 1481.03 2189.57 1475.72 Q2192.32 1470.37 2192.32 1459.71 Q2192.32 1449.02 2189.57 1443.71 Q2186.87 1438.36 2181.41 1438.36 M2181.41 1432.8 Q2190.13 1432.8 2194.71 1439.71 Q2199.33 1446.59 2199.33 1459.71 Q2199.33 1472.8 2194.71 1479.71 Q2190.13 1486.59 2181.41 1486.59 Q2172.7 1486.59 2168.08 1479.71 Q2163.5 1472.8 2163.5 1459.71 Q2163.5 1446.59 2168.08 1439.71 Q2172.7 1432.8 2181.41 1432.8 Z" fill="#000000" fill-rule="evenodd" fill-opacity="1" /><path clip-path="url(#clip310)" d="M1213.13 1538.66 L1219.9 1538.66 L1232.05 1571.3 L1244.21 1538.66 L1250.98 1538.66 L1236.39 1577.55 L1227.71 1577.55 L1213.13 1538.66 Z" fill="#000000" fill-rule="evenodd" fill-opacity="1" /><path clip-path="url(#clip310)" d="M1281.81 1523.52 L1296.53 1523.52 L1296.53 1528.49 L1288.2 1528.49 L1288.2 1581.96 L1296.53 1581.96 L1296.53 1586.92 L1281.81 1586.92 L1281.81 1523.52 Z" fill="#000000" fill-rule="evenodd" fill-opacity="1" /><path clip-path="url(#clip310)" d="M1340.42 1546.12 Q1342.82 1541.82 1346.15 1539.77 Q1349.48 1537.72 1354 1537.72 Q1360.07 1537.72 1363.37 1541.99 Q1366.67 1546.23 1366.67 1554.08 L1366.67 1577.55 L1360.25 1577.55 L1360.25 1554.28 Q1360.25 1548.69 1358.27 1545.99 Q1356.29 1543.28 1352.23 1543.28 Q1347.26 1543.28 1344.38 1546.58 Q1341.5 1549.87 1341.5 1555.57 L1341.5 1577.55 L1335.07 1577.55 L1335.07 1554.28 Q1335.07 1548.66 1333.09 1545.99 Q1331.12 1543.28 1326.98 1543.28 Q1322.09 1543.28 1319.21 1546.61 Q1316.32 1549.91 1316.32 1555.57 L1316.32 1577.55 L1309.9 1577.55 L1309.9 1538.66 L1316.32 1538.66 L1316.32 1544.7 Q1318.51 1541.12 1321.57 1539.42 Q1324.62 1537.72 1328.82 1537.72 Q1333.06 1537.72 1336.01 1539.87 Q1339 1542.03 1340.42 1546.12 Z" fill="#000000" fill-rule="evenodd" fill-opacity="1" /><path clip-path="url(#clip310)" d="M1390.77 1525.71 L1396.67 1525.71 L1378.62 1584.15 L1372.71 1584.15 L1390.77 1525.71 Z" fill="#000000" fill-rule="evenodd" fill-opacity="1" /><path clip-path="url(#clip310)" d="M1428.16 1539.8 L1428.16 1545.85 Q1425.46 1544.46 1422.54 1543.76 Q1419.62 1543.07 1416.5 1543.07 Q1411.74 1543.07 1409.34 1544.53 Q1406.98 1545.99 1406.98 1548.9 Q1406.98 1551.12 1408.68 1552.41 Q1410.39 1553.66 1415.52 1554.8 L1417.71 1555.29 Q1424.52 1556.75 1427.37 1559.42 Q1430.25 1562.06 1430.25 1566.82 Q1430.25 1572.24 1425.94 1575.4 Q1421.67 1578.55 1414.17 1578.55 Q1411.05 1578.55 1407.64 1577.93 Q1404.27 1577.34 1400.52 1576.12 L1400.52 1569.53 Q1404.07 1571.37 1407.5 1572.3 Q1410.94 1573.21 1414.31 1573.21 Q1418.82 1573.21 1421.25 1571.68 Q1423.68 1570.12 1423.68 1567.3 Q1423.68 1564.7 1421.91 1563.31 Q1420.18 1561.92 1414.24 1560.64 L1412.02 1560.12 Q1406.08 1558.87 1403.44 1556.3 Q1400.8 1553.69 1400.8 1549.18 Q1400.8 1543.69 1404.69 1540.71 Q1408.58 1537.72 1415.73 1537.72 Q1419.27 1537.72 1422.4 1538.24 Q1425.52 1538.76 1428.16 1539.8 Z" fill="#000000" fill-rule="evenodd" fill-opacity="1" /><path clip-path="url(#clip310)" d="M1455.35 1523.52 L1455.35 1586.92 L1440.63 1586.92 L1440.63 1581.96 L1448.93 1581.96 L1448.93 1528.49 L1440.63 1528.49 L1440.63 1523.52 L1455.35 1523.52 Z" fill="#000000" fill-rule="evenodd" fill-opacity="1" /><polyline clip-path="url(#clip312)" style="stroke:#000000; stroke-linecap:butt; stroke-linejoin:round; stroke-width:2; stroke-opacity:0.1; fill:none" points="
  315.725,1253.52 2352.76,1253.52 
  "/>
<polyline clip-path="url(#clip312)" style="stroke:#000000; stroke-linecap:butt; stroke-linejoin:round; stroke-width:2; stroke-opacity:0.1; fill:none" points="
  315.725,1091.47 2352.76,1091.47 
  "/>
<polyline clip-path="url(#clip312)" style="stroke:#000000; stroke-linecap:butt; stroke-linejoin:round; stroke-width:2; stroke-opacity:0.1; fill:none" points="
  315.725,929.412 2352.76,929.412 
  "/>
<polyline clip-path="url(#clip312)" style="stroke:#000000; stroke-linecap:butt; stroke-linejoin:round; stroke-width:2; stroke-opacity:0.1; fill:none" points="
  315.725,767.356 2352.76,767.356 
  "/>
<polyline clip-path="url(#clip312)" style="stroke:#000000; stroke-linecap:butt; stroke-linejoin:round; stroke-width:2; stroke-opacity:0.1; fill:none" points="
  315.725,605.3 2352.76,605.3 
  "/>
<polyline clip-path="url(#clip312)" style="stroke:#000000; stroke-linecap:butt; stroke-linejoin:round; stroke-width:2; stroke-opacity:0.1; fill:none" points="
  315.725,443.243 2352.76,443.243 
  "/>
<polyline clip-path="url(#clip312)" style="stroke:#000000; stroke-linecap:butt; stroke-linejoin:round; stroke-width:2; stroke-opacity:0.1; fill:none" points="
  315.725,281.187 2352.76,281.187 
  "/>
<polyline clip-path="url(#clip310)" style="stroke:#000000; stroke-linecap:butt; stroke-linejoin:round; stroke-width:4; stroke-opacity:1; fill:none" points="
  315.725,1401.58 315.725,123.472 
  "/>
<polyline clip-path="url(#clip310)" style="stroke:#000000; stroke-linecap:butt; stroke-linejoin:round; stroke-width:4; stroke-opacity:1; fill:none" points="
  315.725,1253.52 334.623,1253.52 
  "/>
<polyline clip-path="url(#clip310)" style="stroke:#000000; stroke-linecap:butt; stroke-linejoin:round; stroke-width:4; stroke-opacity:1; fill:none" points="
  315.725,1091.47 334.623,1091.47 
  "/>
<polyline clip-path="url(#clip310)" style="stroke:#000000; stroke-linecap:butt; stroke-linejoin:round; stroke-width:4; stroke-opacity:1; fill:none" points="
  315.725,929.412 334.623,929.412 
  "/>
<polyline clip-path="url(#clip310)" style="stroke:#000000; stroke-linecap:butt; stroke-linejoin:round; stroke-width:4; stroke-opacity:1; fill:none" points="
  315.725,767.356 334.623,767.356 
  "/>
<polyline clip-path="url(#clip310)" style="stroke:#000000; stroke-linecap:butt; stroke-linejoin:round; stroke-width:4; stroke-opacity:1; fill:none" points="
  315.725,605.3 334.623,605.3 
  "/>
<polyline clip-path="url(#clip310)" style="stroke:#000000; stroke-linecap:butt; stroke-linejoin:round; stroke-width:4; stroke-opacity:1; fill:none" points="
  315.725,443.243 334.623,443.243 
  "/>
<polyline clip-path="url(#clip310)" style="stroke:#000000; stroke-linecap:butt; stroke-linejoin:round; stroke-width:4; stroke-opacity:1; fill:none" points="
  315.725,281.187 334.623,281.187 
  "/>
<path clip-path="url(#clip310)" d="M119.066 1254.2 L163.58 1254.2 L163.58 1260.1 L119.066 1260.1 L119.066 1254.2 Z" fill="#000000" fill-rule="evenodd" fill-opacity="1" /><path clip-path="url(#clip310)" d="M193.719 1232.22 Q188.302 1232.22 185.559 1237.57 Q182.851 1242.88 182.851 1253.58 Q182.851 1264.24 185.559 1269.58 Q188.302 1274.9 193.719 1274.9 Q199.17 1274.9 201.878 1269.58 Q204.621 1264.24 204.621 1253.58 Q204.621 1242.88 201.878 1237.57 Q199.17 1232.22 193.719 1232.22 M193.719 1226.67 Q202.434 1226.67 207.017 1233.58 Q211.635 1240.45 211.635 1253.58 Q211.635 1266.67 207.017 1273.58 Q202.434 1280.45 193.719 1280.45 Q185.003 1280.45 180.385 1273.58 Q175.802 1266.67 175.802 1253.58 Q175.802 1240.45 180.385 1233.58 Q185.003 1226.67 193.719 1226.67 Z" fill="#000000" fill-rule="evenodd" fill-opacity="1" /><path clip-path="url(#clip310)" d="M223.962 1270.63 L231.288 1270.63 L231.288 1279.44 L223.962 1279.44 L223.962 1270.63 Z" fill="#000000" fill-rule="evenodd" fill-opacity="1" /><path clip-path="url(#clip310)" d="M262.434 1250.73 Q257.711 1250.73 254.934 1253.96 Q252.191 1257.19 252.191 1262.81 Q252.191 1268.4 254.934 1271.67 Q257.711 1274.9 262.434 1274.9 Q267.156 1274.9 269.899 1271.67 Q272.677 1268.4 272.677 1262.81 Q272.677 1257.19 269.899 1253.96 Q267.156 1250.73 262.434 1250.73 M276.357 1228.75 L276.357 1235.14 Q273.718 1233.89 271.01 1233.23 Q268.336 1232.57 265.697 1232.57 Q258.753 1232.57 255.072 1237.26 Q251.427 1241.94 250.906 1251.42 Q252.954 1248.4 256.045 1246.81 Q259.135 1245.17 262.85 1245.17 Q270.663 1245.17 275.177 1249.93 Q279.725 1254.65 279.725 1262.81 Q279.725 1270.8 275.003 1275.63 Q270.281 1280.45 262.434 1280.45 Q253.441 1280.45 248.684 1273.58 Q243.927 1266.67 243.927 1253.58 Q243.927 1241.29 249.76 1233.99 Q255.593 1226.67 265.42 1226.67 Q268.059 1226.67 270.732 1227.19 Q273.44 1227.71 276.357 1228.75 Z" fill="#000000" fill-rule="evenodd" fill-opacity="1" /><path clip-path="url(#clip310)" d="M118.58 1092.15 L163.094 1092.15 L163.094 1098.05 L118.58 1098.05 L118.58 1092.15 Z" fill="#000000" fill-rule="evenodd" fill-opacity="1" /><path clip-path="url(#clip310)" d="M193.233 1070.17 Q187.816 1070.17 185.073 1075.51 Q182.365 1080.83 182.365 1091.52 Q182.365 1102.18 185.073 1107.53 Q187.816 1112.84 193.233 1112.84 Q198.684 1112.84 201.392 1107.53 Q204.135 1102.18 204.135 1091.52 Q204.135 1080.83 201.392 1075.51 Q198.684 1070.17 193.233 1070.17 M193.233 1064.61 Q201.948 1064.61 206.531 1071.52 Q211.149 1078.4 211.149 1091.52 Q211.149 1104.61 206.531 1111.52 Q201.948 1118.4 193.233 1118.4 Q184.517 1118.4 179.899 1111.52 Q175.316 1104.61 175.316 1091.52 Q175.316 1078.4 179.899 1071.52 Q184.517 1064.61 193.233 1064.61 Z" fill="#000000" fill-rule="evenodd" fill-opacity="1" /><path clip-path="url(#clip310)" d="M223.475 1108.57 L230.802 1108.57 L230.802 1117.39 L223.475 1117.39 L223.475 1108.57 Z" fill="#000000" fill-rule="evenodd" fill-opacity="1" /><path clip-path="url(#clip310)" d="M265.35 1071.66 L247.642 1099.33 L265.35 1099.33 L265.35 1071.66 M263.51 1065.55 L272.329 1065.55 L272.329 1099.33 L279.725 1099.33 L279.725 1105.17 L272.329 1105.17 L272.329 1117.39 L265.35 1117.39 L265.35 1105.17 L241.948 1105.17 L241.948 1098.4 L263.51 1065.55 Z" fill="#000000" fill-rule="evenodd" fill-opacity="1" /><path clip-path="url(#clip310)" d="M121.705 930.089 L166.219 930.089 L166.219 935.992 L121.705 935.992 L121.705 930.089 Z" fill="#000000" fill-rule="evenodd" fill-opacity="1" /><path clip-path="url(#clip310)" d="M196.358 908.11 Q190.941 908.11 188.198 913.457 Q185.49 918.77 185.49 929.464 Q185.49 940.124 188.198 945.471 Q190.941 950.784 196.358 950.784 Q201.809 950.784 204.517 945.471 Q207.26 940.124 207.26 929.464 Q207.26 918.77 204.517 913.457 Q201.809 908.11 196.358 908.11 M196.358 902.555 Q205.073 902.555 209.656 909.464 Q214.274 916.339 214.274 929.464 Q214.274 942.555 209.656 949.464 Q205.073 956.339 196.358 956.339 Q187.642 956.339 183.024 949.464 Q178.441 942.555 178.441 929.464 Q178.441 916.339 183.024 909.464 Q187.642 902.555 196.358 902.555 Z" fill="#000000" fill-rule="evenodd" fill-opacity="1" /><path clip-path="url(#clip310)" d="M226.6 946.513 L233.927 946.513 L233.927 955.332 L226.6 955.332 L226.6 946.513 Z" fill="#000000" fill-rule="evenodd" fill-opacity="1" /><path clip-path="url(#clip310)" d="M255.246 949.429 L279.725 949.429 L279.725 955.332 L246.809 955.332 L246.809 949.429 Q250.802 945.298 257.677 938.353 Q264.586 931.374 266.357 929.36 Q269.725 925.575 271.045 922.971 Q272.399 920.332 272.399 917.798 Q272.399 913.666 269.482 911.062 Q266.6 908.457 261.947 908.457 Q258.649 908.457 254.968 909.603 Q251.323 910.749 247.156 913.076 L247.156 905.992 Q251.392 904.291 255.072 903.423 Q258.753 902.555 261.809 902.555 Q269.864 902.555 274.656 906.583 Q279.447 910.61 279.447 917.346 Q279.447 920.541 278.232 923.423 Q277.052 926.27 273.892 930.159 Q273.024 931.166 268.371 935.992 Q263.718 940.784 255.246 949.429 Z" fill="#000000" fill-rule="evenodd" fill-opacity="1" /><path clip-path="url(#clip310)" d="M193.962 746.054 Q188.545 746.054 185.802 751.401 Q183.094 756.714 183.094 767.408 Q183.094 778.068 185.802 783.415 Q188.545 788.727 193.962 788.727 Q199.413 788.727 202.121 783.415 Q204.864 778.068 204.864 767.408 Q204.864 756.714 202.121 751.401 Q199.413 746.054 193.962 746.054 M193.962 740.498 Q202.677 740.498 207.26 747.408 Q211.878 754.283 211.878 767.408 Q211.878 780.498 207.26 787.408 Q202.677 794.283 193.962 794.283 Q185.246 794.283 180.628 787.408 Q176.045 780.498 176.045 767.408 Q176.045 754.283 180.628 747.408 Q185.246 740.498 193.962 740.498 Z" fill="#000000" fill-rule="evenodd" fill-opacity="1" /><path clip-path="url(#clip310)" d="M224.205 784.457 L231.531 784.457 L231.531 793.276 L224.205 793.276 L224.205 784.457 Z" fill="#000000" fill-rule="evenodd" fill-opacity="1" /><path clip-path="url(#clip310)" d="M261.809 746.054 Q256.392 746.054 253.649 751.401 Q250.941 756.714 250.941 767.408 Q250.941 778.068 253.649 783.415 Q256.392 788.727 261.809 788.727 Q267.26 788.727 269.968 783.415 Q272.711 778.068 272.711 767.408 Q272.711 756.714 269.968 751.401 Q267.26 746.054 261.809 746.054 M261.809 740.498 Q270.524 740.498 275.107 747.408 Q279.725 754.283 279.725 767.408 Q279.725 780.498 275.107 787.408 Q270.524 794.283 261.809 794.283 Q253.093 794.283 248.475 787.408 Q243.892 780.498 243.892 767.408 Q243.892 754.283 248.475 747.408 Q253.093 740.498 261.809 740.498 Z" fill="#000000" fill-rule="evenodd" fill-opacity="1" /><path clip-path="url(#clip310)" d="M196.358 583.998 Q190.941 583.998 188.198 589.345 Q185.49 594.657 185.49 605.352 Q185.49 616.011 188.198 621.359 Q190.941 626.671 196.358 626.671 Q201.809 626.671 204.517 621.359 Q207.26 616.011 207.26 605.352 Q207.26 594.657 204.517 589.345 Q201.809 583.998 196.358 583.998 M196.358 578.442 Q205.073 578.442 209.656 585.352 Q214.274 592.227 214.274 605.352 Q214.274 618.442 209.656 625.352 Q205.073 632.227 196.358 632.227 Q187.642 632.227 183.024 625.352 Q178.441 618.442 178.441 605.352 Q178.441 592.227 183.024 585.352 Q187.642 578.442 196.358 578.442 Z" fill="#000000" fill-rule="evenodd" fill-opacity="1" /><path clip-path="url(#clip310)" d="M226.6 622.4 L233.927 622.4 L233.927 631.22 L226.6 631.22 L226.6 622.4 Z" fill="#000000" fill-rule="evenodd" fill-opacity="1" /><path clip-path="url(#clip310)" d="M255.246 625.317 L279.725 625.317 L279.725 631.22 L246.809 631.22 L246.809 625.317 Q250.802 621.185 257.677 614.241 Q264.586 607.262 266.357 605.248 Q269.725 601.463 271.045 598.859 Q272.399 596.22 272.399 593.685 Q272.399 589.553 269.482 586.949 Q266.6 584.345 261.947 584.345 Q258.649 584.345 254.968 585.491 Q251.323 586.637 247.156 588.963 L247.156 581.88 Q251.392 580.178 255.072 579.31 Q258.753 578.442 261.809 578.442 Q269.864 578.442 274.656 582.47 Q279.447 586.498 279.447 593.234 Q279.447 596.428 278.232 599.31 Q277.052 602.157 273.892 606.046 Q273.024 607.053 268.371 611.88 Q263.718 616.671 255.246 625.317 Z" fill="#000000" fill-rule="evenodd" fill-opacity="1" /><path clip-path="url(#clip310)" d="M193.233 421.941 Q187.816 421.941 185.073 427.289 Q182.365 432.601 182.365 443.296 Q182.365 453.955 185.073 459.302 Q187.816 464.615 193.233 464.615 Q198.684 464.615 201.392 459.302 Q204.135 453.955 204.135 443.296 Q204.135 432.601 201.392 427.289 Q198.684 421.941 193.233 421.941 M193.233 416.386 Q201.948 416.386 206.531 423.296 Q211.149 430.171 211.149 443.296 Q211.149 456.386 206.531 463.295 Q201.948 470.17 193.233 470.17 Q184.517 470.17 179.899 463.295 Q175.316 456.386 175.316 443.296 Q175.316 430.171 179.899 423.296 Q184.517 416.386 193.233 416.386 Z" fill="#000000" fill-rule="evenodd" fill-opacity="1" /><path clip-path="url(#clip310)" d="M223.475 460.344 L230.802 460.344 L230.802 469.163 L223.475 469.163 L223.475 460.344 Z" fill="#000000" fill-rule="evenodd" fill-opacity="1" /><path clip-path="url(#clip310)" d="M265.35 423.435 L247.642 451.108 L265.35 451.108 L265.35 423.435 M263.51 417.323 L272.329 417.323 L272.329 451.108 L279.725 451.108 L279.725 456.941 L272.329 456.941 L272.329 469.163 L265.35 469.163 L265.35 456.941 L241.948 456.941 L241.948 450.17 L263.51 417.323 Z" fill="#000000" fill-rule="evenodd" fill-opacity="1" /><path clip-path="url(#clip310)" d="M193.719 259.885 Q188.302 259.885 185.559 265.232 Q182.851 270.545 182.851 281.239 Q182.851 291.899 185.559 297.246 Q188.302 302.559 193.719 302.559 Q199.17 302.559 201.878 297.246 Q204.621 291.899 204.621 281.239 Q204.621 270.545 201.878 265.232 Q199.17 259.885 193.719 259.885 M193.719 254.33 Q202.434 254.33 207.017 261.239 Q211.635 268.114 211.635 281.239 Q211.635 294.329 207.017 301.239 Q202.434 308.114 193.719 308.114 Q185.003 308.114 180.385 301.239 Q175.802 294.329 175.802 281.239 Q175.802 268.114 180.385 261.239 Q185.003 254.33 193.719 254.33 Z" fill="#000000" fill-rule="evenodd" fill-opacity="1" /><path clip-path="url(#clip310)" d="M223.962 298.288 L231.288 298.288 L231.288 307.107 L223.962 307.107 L223.962 298.288 Z" fill="#000000" fill-rule="evenodd" fill-opacity="1" /><path clip-path="url(#clip310)" d="M262.434 278.392 Q257.711 278.392 254.934 281.621 Q252.191 284.85 252.191 290.475 Q252.191 296.066 254.934 299.329 Q257.711 302.559 262.434 302.559 Q267.156 302.559 269.899 299.329 Q272.677 296.066 272.677 290.475 Q272.677 284.85 269.899 281.621 Q267.156 278.392 262.434 278.392 M276.357 256.413 L276.357 262.802 Q273.718 261.552 271.01 260.892 Q268.336 260.232 265.697 260.232 Q258.753 260.232 255.072 264.92 Q251.427 269.607 250.906 279.087 Q252.954 276.066 256.045 274.468 Q259.135 272.837 262.85 272.837 Q270.663 272.837 275.177 277.593 Q279.725 282.316 279.725 290.475 Q279.725 298.461 275.003 303.288 Q270.281 308.114 262.434 308.114 Q253.441 308.114 248.684 301.239 Q243.927 294.329 243.927 281.239 Q243.927 268.948 249.76 261.656 Q255.593 254.33 265.42 254.33 Q268.059 254.33 270.732 254.851 Q273.44 255.371 276.357 256.413 Z" fill="#000000" fill-rule="evenodd" fill-opacity="1" /><path clip-path="url(#clip310)" d="M13.0007 1025.04 L18.3131 1025.04 L18.3131 1031.15 Q18.3131 1034.59 19.702 1035.94 Q21.0909 1037.26 24.702 1037.26 L28.1395 1037.26 L28.1395 1026.74 L33.1047 1026.74 L33.1047 1037.26 L67.0282 1037.26 L67.0282 1043.69 L33.1047 1043.69 L33.1047 1049.8 L28.1395 1049.8 L28.1395 1043.69 L25.4312 1043.69 Q18.9381 1043.69 15.9868 1040.67 Q13.0007 1037.65 13.0007 1031.08 L13.0007 1025.04 Z" fill="#000000" fill-rule="evenodd" fill-opacity="1" /><path clip-path="url(#clip310)" d="M34.1117 997.16 Q33.4867 998.237 33.2089 999.521 Q32.8964 1000.77 32.8964 1002.3 Q32.8964 1007.72 36.438 1010.63 Q39.945 1013.51 46.5422 1013.51 L67.0282 1013.51 L67.0282 1019.94 L28.1395 1019.94 L28.1395 1013.51 L34.1811 1013.51 Q30.6395 1011.5 28.9381 1008.27 Q27.202 1005.04 27.202 1000.42 Q27.202 999.764 27.3061 998.966 Q27.3756 998.167 27.5492 997.195 L34.1117 997.16 Z" fill="#000000" fill-rule="evenodd" fill-opacity="1" /><path clip-path="url(#clip310)" d="M28.1395 990.459 L28.1395 984.07 L67.0282 984.07 L67.0282 990.459 L28.1395 990.459 M13.0007 990.459 L13.0007 984.07 L21.0909 984.07 L21.0909 990.459 L13.0007 990.459 Z" fill="#000000" fill-rule="evenodd" fill-opacity="1" /><path clip-path="url(#clip310)" d="M29.6325 942.716 L35.6047 942.716 Q34.1117 945.424 33.3825 948.167 Q32.6186 950.876 32.6186 953.653 Q32.6186 959.869 36.5769 963.306 Q40.5005 966.744 47.6185 966.744 Q54.7366 966.744 58.6949 963.306 Q62.6185 959.869 62.6185 953.653 Q62.6185 950.876 61.8893 948.167 Q61.1254 945.424 59.6324 942.716 L65.5351 942.716 Q66.7851 945.39 67.4101 948.272 Q68.0351 951.119 68.0351 954.348 Q68.0351 963.133 62.5143 968.306 Q56.9935 973.48 47.6185 973.48 Q38.1047 973.48 32.6533 968.271 Q27.202 963.028 27.202 953.931 Q27.202 950.98 27.827 948.167 Q28.4173 945.355 29.6325 942.716 Z" fill="#000000" fill-rule="evenodd" fill-opacity="1" /><path clip-path="url(#clip310)" d="M17.0979 925.286 L28.1395 925.286 L28.1395 912.126 L33.1047 912.126 L33.1047 925.286 L54.2157 925.286 Q58.9726 925.286 60.3268 924.001 Q61.681 922.681 61.681 918.688 L61.681 912.126 L67.0282 912.126 L67.0282 918.688 Q67.0282 926.084 64.2851 928.897 Q61.5074 931.709 54.2157 931.709 L33.1047 931.709 L33.1047 936.397 L28.1395 936.397 L28.1395 931.709 L17.0979 931.709 L17.0979 925.286 Z" fill="#000000" fill-rule="evenodd" fill-opacity="1" /><path clip-path="url(#clip310)" d="M28.1395 903.723 L28.1395 897.334 L67.0282 897.334 L67.0282 903.723 L28.1395 903.723 M13.0007 903.723 L13.0007 897.334 L21.0909 897.334 L21.0909 903.723 L13.0007 903.723 Z" fill="#000000" fill-rule="evenodd" fill-opacity="1" /><path clip-path="url(#clip310)" d="M32.6186 868.897 Q32.6186 874.036 36.6464 877.022 Q40.6394 880.008 47.6185 880.008 Q54.5977 880.008 58.6254 877.057 Q62.6185 874.071 62.6185 868.897 Q62.6185 863.793 58.5907 860.807 Q54.5629 857.821 47.6185 857.821 Q40.7089 857.821 36.6811 860.807 Q32.6186 863.793 32.6186 868.897 M27.202 868.897 Q27.202 860.564 32.6186 855.807 Q38.0353 851.05 47.6185 851.05 Q57.1671 851.05 62.6185 855.807 Q68.0351 860.564 68.0351 868.897 Q68.0351 877.265 62.6185 882.022 Q57.1671 886.744 47.6185 886.744 Q38.0353 886.744 32.6186 882.022 Q27.202 877.265 27.202 868.897 Z" fill="#000000" fill-rule="evenodd" fill-opacity="1" /><path clip-path="url(#clip310)" d="M43.5561 808.133 L67.0282 808.133 L67.0282 814.522 L43.7644 814.522 Q38.2436 814.522 35.5005 816.675 Q32.7575 818.828 32.7575 823.133 Q32.7575 828.307 36.0561 831.293 Q39.3547 834.279 45.0491 834.279 L67.0282 834.279 L67.0282 840.703 L28.1395 840.703 L28.1395 834.279 L34.1811 834.279 Q30.6742 831.987 28.9381 828.897 Q27.202 825.772 27.202 821.71 Q27.202 815.008 31.3686 811.571 Q35.5005 808.133 43.5561 808.133 Z" fill="#000000" fill-rule="evenodd" fill-opacity="1" /><path clip-path="url(#clip310)" d="M13.0007 753.099 L18.3131 753.099 L18.3131 759.21 Q18.3131 762.648 19.702 764.002 Q21.0909 765.321 24.702 765.321 L28.1395 765.321 L28.1395 754.8 L33.1047 754.8 L33.1047 765.321 L67.0282 765.321 L67.0282 771.745 L33.1047 771.745 L33.1047 777.856 L28.1395 777.856 L28.1395 771.745 L25.4312 771.745 Q18.9381 771.745 15.9868 768.724 Q13.0007 765.703 13.0007 759.141 L13.0007 753.099 Z" fill="#000000" fill-rule="evenodd" fill-opacity="1" /><path clip-path="url(#clip310)" d="M32.6186 732.682 Q32.6186 737.821 36.6464 740.807 Q40.6394 743.793 47.6185 743.793 Q54.5977 743.793 58.6254 740.842 Q62.6185 737.856 62.6185 732.682 Q62.6185 727.578 58.5907 724.592 Q54.5629 721.606 47.6185 721.606 Q40.7089 721.606 36.6811 724.592 Q32.6186 727.578 32.6186 732.682 M27.202 732.682 Q27.202 724.349 32.6186 719.592 Q38.0353 714.835 47.6185 714.835 Q57.1671 714.835 62.6185 719.592 Q68.0351 724.349 68.0351 732.682 Q68.0351 741.05 62.6185 745.807 Q57.1671 750.53 47.6185 750.53 Q38.0353 750.53 32.6186 745.807 Q27.202 741.05 27.202 732.682 Z" fill="#000000" fill-rule="evenodd" fill-opacity="1" /><path clip-path="url(#clip310)" d="M34.1117 681.71 Q33.4867 682.787 33.2089 684.072 Q32.8964 685.322 32.8964 686.849 Q32.8964 692.266 36.438 695.183 Q39.945 698.065 46.5422 698.065 L67.0282 698.065 L67.0282 704.488 L28.1395 704.488 L28.1395 698.065 L34.1811 698.065 Q30.6395 696.051 28.9381 692.821 Q27.202 689.592 27.202 684.974 Q27.202 684.315 27.3061 683.516 Q27.3756 682.717 27.5492 681.745 L34.1117 681.71 Z" fill="#000000" fill-rule="evenodd" fill-opacity="1" /><path clip-path="url(#clip310)" d="M29.6325 648.586 L35.6047 648.586 Q34.1117 651.294 33.3825 654.037 Q32.6186 656.745 32.6186 659.523 Q32.6186 665.738 36.5769 669.176 Q40.5005 672.613 47.6185 672.613 Q54.7366 672.613 58.6949 669.176 Q62.6185 665.738 62.6185 659.523 Q62.6185 656.745 61.8893 654.037 Q61.1254 651.294 59.6324 648.586 L65.5351 648.586 Q66.7851 651.259 67.4101 654.141 Q68.0351 656.988 68.0351 660.218 Q68.0351 669.002 62.5143 674.176 Q56.9935 679.349 47.6185 679.349 Q38.1047 679.349 32.6533 674.141 Q27.202 668.898 27.202 659.801 Q27.202 656.849 27.827 654.037 Q28.4173 651.224 29.6325 648.586 Z" fill="#000000" fill-rule="evenodd" fill-opacity="1" /><path clip-path="url(#clip310)" d="M45.9866 604.211 L49.1116 604.211 L49.1116 633.586 Q55.7088 633.169 59.181 629.627 Q62.6185 626.051 62.6185 619.697 Q62.6185 616.016 61.7157 612.579 Q60.8129 609.107 59.0074 605.704 L65.049 605.704 Q66.5073 609.141 67.2712 612.752 Q68.0351 616.364 68.0351 620.079 Q68.0351 629.384 62.6185 634.836 Q57.2018 640.252 47.9658 640.252 Q38.4172 640.252 32.827 635.113 Q27.202 629.94 27.202 621.19 Q27.202 613.343 32.2714 608.794 Q37.3061 604.211 45.9866 604.211 M44.1116 610.6 Q38.8686 610.669 35.7436 613.551 Q32.6186 616.398 32.6186 621.12 Q32.6186 626.468 35.6394 629.697 Q38.6603 632.891 44.1463 633.377 L44.1116 610.6 Z" fill="#000000" fill-rule="evenodd" fill-opacity="1" /><path clip-path="url(#clip310)" d="M13.0007 571.711 L13.0007 556.989 L17.9659 556.989 L17.9659 565.322 L71.4379 565.322 L71.4379 556.989 L76.4031 556.989 L76.4031 571.711 L13.0007 571.711 Z" fill="#000000" fill-rule="evenodd" fill-opacity="1" /><path clip-path="url(#clip310)" d="M15.1882 543.1 L15.1882 533.656 L58.556 510.67 L15.1882 510.67 L15.1882 503.864 L67.0282 503.864 L67.0282 513.309 L23.6603 536.295 L67.0282 536.295 L67.0282 543.1 L15.1882 543.1 Z" fill="#000000" fill-rule="evenodd" fill-opacity="1" /><path clip-path="url(#clip310)" d="M13.0007 475.253 L76.4031 475.253 L76.4031 489.975 L71.4379 489.975 L71.4379 481.677 L17.9659 481.677 L17.9659 489.975 L13.0007 489.975 L13.0007 475.253 Z" fill="#000000" fill-rule="evenodd" fill-opacity="1" /><path clip-path="url(#clip310)" d="M1008.53 12.096 L1043.28 12.096 L1043.28 18.9825 L1016.71 18.9825 L1016.71 36.8065 L1040.69 36.8065 L1040.69 43.6931 L1016.71 43.6931 L1016.71 72.576 L1008.53 72.576 L1008.53 12.096 Z" fill="#000000" fill-rule="evenodd" fill-opacity="1" /><path clip-path="url(#clip310)" d="M1076.18 34.1734 Q1074.92 33.4443 1073.42 33.1202 Q1071.96 32.7556 1070.18 32.7556 Q1063.86 32.7556 1060.46 36.8875 Q1057.1 40.9789 1057.1 48.6757 L1057.1 72.576 L1049.6 72.576 L1049.6 27.2059 L1057.1 27.2059 L1057.1 34.2544 Q1059.45 30.1225 1063.21 28.1376 Q1066.98 26.1121 1072.37 26.1121 Q1073.14 26.1121 1074.07 26.2337 Q1075 26.3147 1076.14 26.5172 L1076.18 34.1734 Z" fill="#000000" fill-rule="evenodd" fill-opacity="1" /><path clip-path="url(#clip310)" d="M1084 27.2059 L1091.45 27.2059 L1091.45 72.576 L1084 72.576 L1084 27.2059 M1084 9.54393 L1091.45 9.54393 L1091.45 18.9825 L1084 18.9825 L1084 9.54393 Z" fill="#000000" fill-rule="evenodd" fill-opacity="1" /><path clip-path="url(#clip310)" d="M1139.7 28.9478 L1139.7 35.9153 Q1136.54 34.1734 1133.34 33.3227 Q1130.18 32.4315 1126.94 32.4315 Q1119.68 32.4315 1115.67 37.0496 Q1111.66 41.6271 1111.66 49.9314 Q1111.66 58.2358 1115.67 62.8538 Q1119.68 67.4314 1126.94 67.4314 Q1130.18 67.4314 1133.34 66.5807 Q1136.54 65.6895 1139.7 63.9476 L1139.7 70.8341 Q1136.58 72.2924 1133.21 73.0216 Q1129.89 73.7508 1126.13 73.7508 Q1115.88 73.7508 1109.84 67.3098 Q1103.8 60.8689 1103.8 49.9314 Q1103.8 38.832 1109.88 32.472 Q1116 26.1121 1126.61 26.1121 Q1130.05 26.1121 1133.34 26.8413 Q1136.62 27.5299 1139.7 28.9478 Z" fill="#000000" fill-rule="evenodd" fill-opacity="1" /><path clip-path="url(#clip310)" d="M1160.03 14.324 L1160.03 27.2059 L1175.38 27.2059 L1175.38 32.9987 L1160.03 32.9987 L1160.03 57.6282 Q1160.03 63.1779 1161.53 64.7578 Q1163.07 66.3376 1167.73 66.3376 L1175.38 66.3376 L1175.38 72.576 L1167.73 72.576 Q1159.1 72.576 1155.82 69.3758 Q1152.54 66.1351 1152.54 57.6282 L1152.54 32.9987 L1147.07 32.9987 L1147.07 27.2059 L1152.54 27.2059 L1152.54 14.324 L1160.03 14.324 Z" fill="#000000" fill-rule="evenodd" fill-opacity="1" /><path clip-path="url(#clip310)" d="M1185.19 27.2059 L1192.64 27.2059 L1192.64 72.576 L1185.19 72.576 L1185.19 27.2059 M1185.19 9.54393 L1192.64 9.54393 L1192.64 18.9825 L1185.19 18.9825 L1185.19 9.54393 Z" fill="#000000" fill-rule="evenodd" fill-opacity="1" /><path clip-path="url(#clip310)" d="M1225.82 32.4315 Q1219.82 32.4315 1216.34 37.1306 Q1212.86 41.7891 1212.86 49.9314 Q1212.86 58.0738 1216.3 62.7728 Q1219.78 67.4314 1225.82 67.4314 Q1231.77 67.4314 1235.26 62.7323 Q1238.74 58.0333 1238.74 49.9314 Q1238.74 41.8701 1235.26 37.1711 Q1231.77 32.4315 1225.82 32.4315 M1225.82 26.1121 Q1235.54 26.1121 1241.09 32.4315 Q1246.64 38.7509 1246.64 49.9314 Q1246.64 61.0714 1241.09 67.4314 Q1235.54 73.7508 1225.82 73.7508 Q1216.06 73.7508 1210.51 67.4314 Q1205 61.0714 1205 49.9314 Q1205 38.7509 1210.51 32.4315 Q1216.06 26.1121 1225.82 26.1121 Z" fill="#000000" fill-rule="evenodd" fill-opacity="1" /><path clip-path="url(#clip310)" d="M1296.71 45.1919 L1296.71 72.576 L1289.26 72.576 L1289.26 45.4349 Q1289.26 38.994 1286.74 35.7938 Q1284.23 32.5936 1279.21 32.5936 Q1273.17 32.5936 1269.69 36.4419 Q1266.21 40.2903 1266.21 46.9338 L1266.21 72.576 L1258.71 72.576 L1258.71 27.2059 L1266.21 27.2059 L1266.21 34.2544 Q1268.88 30.163 1272.48 28.1376 Q1276.13 26.1121 1280.87 26.1121 Q1288.69 26.1121 1292.7 30.9732 Q1296.71 35.7938 1296.71 45.1919 Z" fill="#000000" fill-rule="evenodd" fill-opacity="1" /><path clip-path="url(#clip310)" d="M1373.27 35.9153 Q1376.07 30.8922 1379.95 28.5022 Q1383.84 26.1121 1389.11 26.1121 Q1396.2 26.1121 1400.05 31.0947 Q1403.9 36.0368 1403.9 45.1919 L1403.9 72.576 L1396.4 72.576 L1396.4 45.4349 Q1396.4 38.913 1394.09 35.7533 Q1391.78 32.5936 1387.04 32.5936 Q1381.25 32.5936 1377.89 36.4419 Q1374.53 40.2903 1374.53 46.9338 L1374.53 72.576 L1367.03 72.576 L1367.03 45.4349 Q1367.03 38.8725 1364.72 35.7533 Q1362.41 32.5936 1357.59 32.5936 Q1351.88 32.5936 1348.52 36.4824 Q1345.16 40.3308 1345.16 46.9338 L1345.16 72.576 L1337.66 72.576 L1337.66 27.2059 L1345.16 27.2059 L1345.16 34.2544 Q1347.71 30.082 1351.27 28.0971 Q1354.84 26.1121 1359.74 26.1121 Q1364.68 26.1121 1368.13 28.6237 Q1371.61 31.1352 1373.27 35.9153 Z" fill="#000000" fill-rule="evenodd" fill-opacity="1" /><path clip-path="url(#clip310)" d="M1436.34 32.4315 Q1430.35 32.4315 1426.86 37.1306 Q1423.38 41.7891 1423.38 49.9314 Q1423.38 58.0738 1426.82 62.7728 Q1430.31 67.4314 1436.34 67.4314 Q1442.3 67.4314 1445.78 62.7323 Q1449.27 58.0333 1449.27 49.9314 Q1449.27 41.8701 1445.78 37.1711 Q1442.3 32.4315 1436.34 32.4315 M1436.34 26.1121 Q1446.07 26.1121 1451.62 32.4315 Q1457.17 38.7509 1457.17 49.9314 Q1457.17 61.0714 1451.62 67.4314 Q1446.07 73.7508 1436.34 73.7508 Q1426.58 73.7508 1421.03 67.4314 Q1415.52 61.0714 1415.52 49.9314 Q1415.52 38.7509 1421.03 32.4315 Q1426.58 26.1121 1436.34 26.1121 Z" fill="#000000" fill-rule="evenodd" fill-opacity="1" /><path clip-path="url(#clip310)" d="M1499.38 34.0924 L1499.38 9.54393 L1506.83 9.54393 L1506.83 72.576 L1499.38 72.576 L1499.38 65.7705 Q1497.03 69.8214 1493.42 71.8063 Q1489.86 73.7508 1484.83 73.7508 Q1476.61 73.7508 1471.42 67.1883 Q1466.28 60.6258 1466.28 49.9314 Q1466.28 39.2371 1471.42 32.6746 Q1476.61 26.1121 1484.83 26.1121 Q1489.86 26.1121 1493.42 28.0971 Q1497.03 30.0415 1499.38 34.0924 M1473.98 49.9314 Q1473.98 58.1548 1477.34 62.8538 Q1480.74 67.5124 1486.66 67.5124 Q1492.57 67.5124 1495.97 62.8538 Q1499.38 58.1548 1499.38 49.9314 Q1499.38 41.7081 1495.97 37.0496 Q1492.57 32.3505 1486.66 32.3505 Q1480.74 32.3505 1477.34 37.0496 Q1473.98 41.7081 1473.98 49.9314 Z" fill="#000000" fill-rule="evenodd" fill-opacity="1" /><path clip-path="url(#clip310)" d="M1560.99 48.0275 L1560.99 51.6733 L1526.72 51.6733 Q1527.21 59.3701 1531.34 63.421 Q1535.51 67.4314 1542.92 67.4314 Q1547.22 67.4314 1551.23 66.3781 Q1555.28 65.3249 1559.25 63.2184 L1559.25 70.267 Q1555.24 71.9684 1551.02 72.8596 Q1546.81 73.7508 1542.48 73.7508 Q1531.62 73.7508 1525.26 67.4314 Q1518.94 61.1119 1518.94 50.3365 Q1518.94 39.1965 1524.94 32.6746 Q1530.97 26.1121 1541.18 26.1121 Q1550.34 26.1121 1555.64 32.0264 Q1560.99 37.9003 1560.99 48.0275 M1553.54 45.84 Q1553.46 39.7232 1550.09 36.0774 Q1546.77 32.4315 1541.26 32.4315 Q1535.02 32.4315 1531.26 35.9558 Q1527.53 39.4801 1526.96 45.8805 L1553.54 45.84 Z" fill="#000000" fill-rule="evenodd" fill-opacity="1" /><path clip-path="url(#clip310)" d="M1573.22 9.54393 L1580.68 9.54393 L1580.68 72.576 L1573.22 72.576 L1573.22 9.54393 Z" fill="#000000" fill-rule="evenodd" fill-opacity="1" /><path clip-path="url(#clip310)" d="M1625.12 65.6895 L1638.48 65.6895 L1638.48 19.5497 L1623.94 22.4663 L1623.94 15.0127 L1638.4 12.096 L1646.59 12.096 L1646.59 65.6895 L1659.95 65.6895 L1659.95 72.576 L1625.12 72.576 L1625.12 65.6895 Z" fill="#000000" fill-rule="evenodd" fill-opacity="1" /><polyline clip-path="url(#clip312)" style="stroke:#009af9; stroke-linecap:butt; stroke-linejoin:round; stroke-width:8; stroke-opacity:1; fill:none" points="
  1334.24,767.356 1369.03,767.356 1404.05,767.356 1439.29,767.356 1474.65,767.356 1510.11,767.356 1545.62,767.356 1581.09,767.356 1616.51,767.356 1651.8,767.356 
  1686.93,767.356 1721.85,767.356 1756.5,767.356 1790.84,767.356 1824.83,767.356 1858.41,767.356 1891.56,767.356 1924.2,767.356 1956.32,767.356 1987.88,767.356 
  2018.83,767.356 2049.13,767.356 2078.77,767.356 2107.69,767.356 2135.86,767.356 2163.26,767.356 2189.87,767.356 2215.65,767.356 2240.57,767.356 2264.59,767.356 
  2287.69,767.356 2309.83,767.356 2331.04,767.356 2351.27,767.356 2370.49,767.356 2388.67,767.356 2405.78,767.356 2421.82,767.356 2436.78,767.356 2450.66,767.356 
  2463.42,767.356 2475.04,767.356 2485.53,767.356 2494.85,767.356 2503.01,767.356 2510,767.356 2515.82,767.356 2520.46,767.356 2523.9,767.356 2526.15,767.356 
  2527.21,767.356 2527.07,767.356 2525.74,767.356 2523.21,767.356 2519.5,767.356 2514.59,767.356 2508.51,767.356 2501.25,767.356 2492.82,767.356 2483.23,767.356 
  2472.49,767.356 2460.6,767.356 2447.59,767.356 2433.47,767.356 2418.24,767.356 2401.92,767.356 2384.53,767.356 2366.09,767.356 2346.6,767.356 2326.1,767.356 
  2304.6,767.356 2282.12,767.356 2258.67,767.356 2234.29,767.356 2208.99,767.356 2182.8,767.356 2155.74,767.356 2127.84,767.356 2099.11,767.356 2069.58,767.356 
  2039.29,767.356 2008.25,767.356 1976.49,767.356 1944.05,767.356 1910.92,767.356 1877.15,767.356 1842.76,767.356 1807.78,767.356 1772.24,767.356 1736.16,767.356 
  1699.56,767.356 1662.44,767.356 1624.83,767.356 1586.77,767.356 1548.27,767.356 1509.36,767.356 1470.06,767.356 1430.38,767.356 1390.36,767.356 1350.01,767.356 
  1316.7,767.356 1287.85,767.356 1258.82,767.356 1229.64,767.356 1200.36,767.356 1171.01,767.356 1141.65,767.356 1112.31,767.356 1083.03,767.356 1053.85,767.356 
  1024.82,767.356 995.969,767.356 967.346,767.356 938.983,767.356 910.909,767.356 883.169,767.356 855.803,767.356 828.85,767.356 802.338,767.356 776.273,767.356 
  750.713,767.356 725.693,767.356 701.249,767.356 677.405,767.356 654.151,767.356 631.544,767.356 609.617,767.356 588.397,767.356 567.911,767.356 548.139,767.356 
  529.135,767.356 510.923,767.356 493.53,767.356 476.979,767.356 461.24,767.356 446.363,767.356 432.37,767.356 419.279,767.356 407.111,767.356 395.835,767.356 
  385.489,767.356 376.09,767.356 367.654,767.356 360.196,767.356 353.686,767.356 348.146,767.356 343.594,767.356 340.039,767.356 337.492,767.356 335.925,767.356 
  335.342,767.356 335.762,767.356 337.189,767.356 339.628,767.356 343.052,767.356 347.453,767.356 352.846,767.356 359.23,767.356 366.605,767.356 374.947,767.356 
  384.234,767.356 394.478,767.356 405.675,767.356 417.818,767.356 430.887,767.356 444.846,767.356 459.707,767.356 475.459,767.356 492.092,767.356 509.587,767.356 
  527.901,767.356 547.04,767.356 566.991,767.356 587.74,767.356 609.268,767.356 631.528,767.356 654.523,767.356 678.236,767.356 702.648,767.356 727.741,767.356 
  753.474,767.356 779.84,767.356 806.819,767.356 834.393,767.356 862.541,767.356 891.233,767.356 920.456,767.356 950.187,767.356 980.407,767.356 1011.09,767.356 
  1042.24,767.356 1073.82,767.356 1105.82,767.356 1138.21,767.356 1170.98,767.356 1204.07,767.356 1237.48,767.356 1271.19,767.356 1305.17,767.356 1337.61,767.356 
  1360.16,767.356 1382.85,767.356 1405.67,767.356 1428.58,767.356 1451.58,767.356 1474.6,767.356 1497.64,767.356 1520.66,767.356 1543.62,767.356 1566.51,767.356 
  1589.27,767.356 1611.9,767.356 1634.36,767.356 1656.62,767.356 1678.65,767.356 1700.43,767.356 1721.92,767.356 1743.09,767.356 1763.93,767.356 1784.4,767.356 
  1804.48,767.356 1824.15,767.356 1843.38,767.356 1862.14,767.356 1880.42,767.356 1898.2,767.356 1915.45,767.356 1932.15,767.356 1948.28,767.356 1963.82,767.356 
  1978.77,767.356 1993.1,767.356 2006.78,767.356 2019.8,767.356 2032.17,767.356 2043.86,767.356 2054.85,767.356 2065.13,767.356 2074.69,767.356 2083.54,767.356 
  2091.66,767.356 2099.03,767.356 2105.64,767.356 2111.48,767.356 2116.54,767.356 2120.81,767.356 2124.32,767.356 2127.06,767.356 2129.01,767.356 2130.16,767.356 
  2130.51,767.356 2130.06,767.356 2128.79,767.356 2126.72,767.356 2123.88,767.356 2120.25,767.356 2115.82,767.356 2110.6,767.356 2104.6,767.356 2097.81,767.356 
  2090.25,767.356 2081.93,767.356 2072.84,767.356 2063,767.356 2052.42,767.356 2041.1,767.356 2029.06,767.356 2016.3,767.356 2002.85,767.356 1988.7,767.356 
  1973.86,767.356 1958.37,767.356 1942.22,767.356 1925.43,767.356 1908.02,767.356 1890,767.356 1871.4,767.356 1852.2,767.356 1832.43,767.356 1812.12,767.356 
  1791.27,767.356 1769.91,767.356 1748.05,767.356 1725.72,767.356 1702.92,767.356 1679.64,767.356 1655.94,767.356 1631.81,767.356 1607.28,767.356 1582.37,767.356 
  1557.1,767.356 1531.47,767.356 1505.52,767.356 1479.24,767.356 1452.68,767.356 1425.83,767.356 1398.73,767.356 1371.39,767.356 1343.83,767.356 1323.88,767.356 
  1307.94,767.356 1291.92,767.356 1275.8,767.356 1259.62,767.356 1243.39,767.356 1227.13,767.356 1210.86,767.356 1194.61,767.356 1178.4,767.356 1162.22,767.356 
  1146.13,767.356 1130.12,767.356 1114.22,767.356 1098.46,767.356 1082.85,767.356 1067.42,767.356 1052.17,767.356 1037.14,767.356 1022.34,767.356 1007.78,767.356 
  993.485,767.356 979.475,767.356 965.771,767.356 952.391,767.356 939.346,767.356 926.632,767.356 914.285,767.356 902.321,767.356 890.758,767.356 879.613,767.356 
  868.897,767.356 858.589,767.356 848.728,767.356 839.33,767.356 830.408,767.356 821.976,767.356 814.049,767.356 806.59,767.356 799.641,767.356 793.213,767.356 
  787.318,767.356 781.967,767.356 777.17,767.356 772.893,767.356 769.162,767.356 765.99,767.356 763.386,767.356 761.357,767.356 759.91,767.356 759.017,767.356 
  758.684,767.356 758.928,767.356 759.753,767.356 761.163,767.356 763.162,767.356 765.727,767.356 768.847,767.356 772.541,767.356 776.81,767.356 781.653,767.356 
  787.071,767.356 793.047,767.356 799.555,767.356 806.614,767.356 814.222,767.356 822.375,767.356 831.07,767.356 840.296,767.356 850.015,767.356 860.245,767.356 
  870.981,767.356 882.216,767.356 893.945,767.356 906.158,767.356 918.815,767.356 931.929,767.356 945.492,767.356 959.495,767.356 973.93,767.356 988.789,767.356 
  1004.04,767.356 1019.67,767.356 1035.7,767.356 1052.09,767.356 1068.85,767.356 1085.95,767.356 1103.39,767.356 1121.15,767.356 1139.23,767.356 1157.6,767.356 
  1176.27,767.356 1195.21,767.356 1214.43,767.356 1233.9,767.356 1253.62,767.356 1273.57,767.356 1293.75,767.356 1314.14,767.356 1334.41,767.356 1342.92,767.356 
  1351.49,767.356 
  "/>
<polyline clip-path="url(#clip312)" style="stroke:#e26f46; stroke-linecap:butt; stroke-linejoin:round; stroke-width:8; stroke-opacity:1; fill:none" points="
  1334.24,159.645 1369.03,191.073 1404.05,219.976 1439.29,246.504 1474.65,270.774 1510.11,292.938 1545.62,313.132 1581.09,331.476 1616.51,348.118 1651.8,363.177 
  1686.93,376.784 1721.85,389.048 1756.5,400.084 1790.84,409.993 1824.83,418.875 1858.41,426.821 1891.56,433.915 1924.2,440.236 1956.32,445.858 1987.88,450.848 
  2018.83,455.267 2049.13,459.17 2078.77,462.612 2107.69,465.639 2135.86,468.293 2163.26,470.615 2189.87,472.64 2215.65,474.399 2240.57,475.923 2264.59,477.236 
  2287.69,478.363 2309.83,479.326 2331.04,480.146 2351.27,480.839 2370.49,481.422 2388.67,481.907 2405.78,482.309 2421.82,482.639 2436.78,482.907 2450.66,483.123 
  2463.42,483.295 2475.04,483.43 2485.53,483.535 2494.85,483.614 2503.01,483.674 2510,483.717 2515.82,483.749 2520.46,483.77 2523.9,483.785 2526.15,483.793 
  2527.21,483.797 2527.07,483.796 2525.74,483.791 2523.21,483.782 2519.5,483.766 2514.59,483.742 2508.51,483.709 2501.25,483.662 2492.82,483.598 2483.23,483.513 
  2472.49,483.402 2460.6,483.259 2447.59,483.078 2433.47,482.851 2418.24,482.569 2401.92,482.223 2384.53,481.802 2366.09,481.295 2346.6,480.687 2326.1,479.964 
  2304.6,479.109 2282.12,478.103 2258.67,476.926 2234.29,475.554 2208.99,473.963 2182.8,472.123 2155.74,470.002 2127.84,467.566 2099.11,464.774 2069.58,461.584 
  2039.29,457.945 2008.25,453.806 1976.49,449.105 1944.05,443.776 1910.92,437.742 1877.15,430.919 1842.76,423.216 1807.78,414.529 1772.24,404.745 1736.16,393.737 
  1699.56,381.359 1662.44,367.438 1624.83,351.803 1586.77,334.253 1548.27,314.565 1509.36,292.489 1470.06,267.747 1430.38,240.028 1390.36,208.989 1350.01,174.243 
  1316.7,1358.87 1287.85,1333.77 1258.82,1310.35 1229.64,1288.53 1200.36,1268.25 1171.01,1249.44 1141.65,1232.03 1112.31,1215.94 1083.03,1201.1 1053.85,1187.44 
  1024.82,1174.88 995.969,1163.35 967.346,1152.79 938.983,1143.13 910.909,1134.3 883.169,1126.25 855.803,1118.91 828.85,1112.24 802.338,1106.17 776.273,1100.66 
  750.713,1095.67 725.693,1091.15 701.249,1087.07 677.405,1083.39 654.151,1080.06 631.544,1077.06 609.617,1074.37 588.397,1071.95 567.911,1069.79 548.139,1067.85 
  529.135,1066.11 510.923,1064.56 493.53,1063.18 476.979,1061.96 461.24,1060.87 446.363,1059.9 432.37,1059.05 419.279,1058.3 407.111,1057.64 395.835,1057.07 
  385.489,1056.57 376.09,1056.13 367.654,1055.76 360.196,1055.45 353.686,1055.19 348.146,1054.97 343.594,1054.79 340.039,1054.66 337.492,1054.57 335.925,1054.51 
  335.342,1054.49 335.762,1054.51 337.189,1054.56 339.628,1054.65 343.052,1054.77 347.453,1054.94 352.846,1055.15 359.23,1055.41 366.605,1055.72 374.947,1056.08 
  384.234,1056.51 394.478,1057 405.675,1057.57 417.818,1058.22 430.887,1058.96 444.846,1059.81 459.707,1060.76 475.459,1061.85 492.092,1063.07 509.587,1064.45 
  527.901,1066 547.04,1067.74 566.991,1069.7 587.74,1071.88 609.268,1074.33 631.528,1077.06 654.523,1080.11 678.236,1083.51 702.648,1087.3 727.741,1091.51 
  753.474,1096.19 779.84,1101.39 806.819,1107.16 834.393,1113.57 862.541,1120.66 891.233,1128.53 920.456,1137.23 950.187,1146.86 980.407,1157.51 1011.09,1169.28 
  1042.24,1182.29 1073.82,1196.67 1105.82,1212.55 1138.21,1230.07 1170.98,1249.42 1204.07,1270.74 1237.48,1294.23 1271.19,1320.11 1305.17,1348.61 1337.61,162.814 
  1360.16,183.325 1382.85,202.792 1405.67,221.246 1428.58,238.7 1451.58,255.195 1474.6,270.739 1497.64,285.379 1520.66,299.136 1543.62,312.045 1566.51,324.147 
  1589.27,335.462 1611.9,346.041 1634.36,355.918 1656.62,365.123 1678.65,373.695 1700.43,381.666 1721.92,389.071 1743.09,395.942 1763.93,402.311 1784.4,408.207 
  1804.48,413.663 1824.15,418.706 1843.38,423.362 1862.14,427.655 1880.42,431.61 1898.2,435.253 1915.45,438.604 1932.15,441.681 1948.28,444.503 1963.82,447.09 
  1978.77,449.459 1993.1,451.625 2006.78,453.6 2019.8,455.398 2032.17,457.035 2043.86,458.52 2054.85,459.862 2065.13,461.072 2074.69,462.16 2083.54,463.134 
  2091.66,464.001 2099.03,464.766 2105.64,465.435 2111.48,466.013 2116.54,466.504 2120.81,466.91 2124.32,467.24 2127.06,467.494 2129.01,467.673 2130.16,467.779 
  2130.51,467.811 2130.06,467.769 2128.79,467.654 2126.72,467.463 2123.88,467.199 2120.25,466.857 2115.82,466.434 2110.6,465.927 2104.6,465.331 2097.81,464.641 
  2090.25,463.853 2081.93,462.958 2072.84,461.952 2063,460.825 2052.42,459.569 2041.1,458.174 2029.06,456.629 2016.3,454.922 2002.85,453.041 1988.7,450.97 
  1973.86,448.694 1958.37,446.196 1942.22,443.459 1925.43,440.461 1908.02,437.183 1890,433.599 1871.4,429.685 1852.2,425.409 1832.43,420.743 1812.12,415.655 
  1791.27,410.11 1769.91,404.069 1748.05,397.493 1725.72,390.336 1702.92,382.547 1679.64,374.069 1655.94,364.85 1631.81,354.827 1607.28,343.936 1582.37,332.106 
  1557.1,319.259 1531.47,305.315 1505.52,290.181 1479.24,273.762 1452.68,255.958 1425.83,236.66 1398.73,215.75 1371.39,193.105 1343.83,168.592 1323.88,1365.41 
  1307.94,1351.05 1291.92,1337.2 1275.8,1323.84 1259.62,1310.97 1243.39,1298.61 1227.13,1286.73 1210.86,1275.35 1194.61,1264.45 1178.4,1254.04 1162.22,1244.08 
  1146.13,1234.6 1130.12,1225.56 1114.22,1216.95 1098.46,1208.78 1082.85,1201.01 1067.42,1193.65 1052.17,1186.68 1037.14,1180.09 1022.34,1173.85 1007.78,1167.96 
  993.485,1162.4 979.475,1157.17 965.771,1152.24 952.391,1147.6 939.346,1143.25 926.632,1139.16 914.285,1135.33 902.321,1131.74 890.758,1128.39 879.613,1125.26 
  868.897,1122.35 858.589,1119.63 848.728,1117.11 839.33,1114.77 830.408,1112.61 821.976,1110.62 814.049,1108.79 806.59,1107.11 799.641,1105.58 793.213,1104.19 
  787.318,1102.95 781.967,1101.83 777.17,1100.85 772.893,1099.98 769.162,1099.24 765.99,1098.61 763.386,1098.1 761.357,1097.7 759.91,1097.42 759.017,1097.25 
  758.684,1097.19 758.928,1097.23 759.753,1097.39 761.163,1097.67 763.162,1098.05 765.727,1098.56 768.847,1099.17 772.541,1099.91 776.81,1100.77 781.653,1101.77 
  787.071,1102.89 793.047,1104.16 799.555,1105.56 806.614,1107.12 814.222,1108.83 822.375,1110.71 831.07,1112.77 840.296,1115.01 850.015,1117.43 860.245,1120.06 
  870.981,1122.91 882.216,1125.98 893.945,1129.3 906.158,1132.88 918.815,1136.72 931.929,1140.85 945.492,1145.28 959.495,1150.04 973.93,1155.15 988.789,1160.62 
  1004.04,1166.48 1019.67,1172.76 1035.7,1179.47 1052.09,1186.65 1068.85,1194.32 1085.95,1202.53 1103.39,1211.3 1121.15,1220.66 1139.23,1230.65 1157.6,1241.32 
  1176.27,1252.7 1195.21,1264.85 1214.43,1277.8 1233.9,1291.61 1253.62,1306.33 1273.57,1322.03 1293.75,1338.75 1314.14,1356.56 1334.41,159.804 1342.92,167.754 
  1351.49,175.587 
  "/>
<polyline clip-path="url(#clip312)" style="stroke:#008000; stroke-linecap:butt; stroke-linejoin:round; stroke-width:8; stroke-opacity:1; fill:none" stroke-dasharray="4, 8" points="
  1334.24,479.392 1369.03,492.102 1404.05,505.023 1439.29,518.132 1474.65,531.385 1510.11,544.756 1545.62,558.208 1581.09,571.695 1616.51,585.191 1651.8,598.653 
  1686.93,612.052 1721.85,625.348 1756.5,638.509 1790.84,651.502 1824.83,664.294 1858.41,676.86 1891.56,689.171 1924.2,701.201 1956.32,712.93 1987.88,724.34 
  2018.83,735.41 2049.13,746.125 2078.77,756.477 2107.69,766.453 2135.86,776.043 2163.26,785.246 2189.87,794.059 2215.65,802.476 2240.57,810.495 2264.59,818.114 
  2287.69,825.334 2309.83,832.156 2331.04,838.6 2351.27,844.657 2370.49,850.333 2388.67,855.63 2405.78,860.554 2421.82,865.108 2436.78,869.307 2450.66,873.157 
  2463.42,876.66 2475.04,879.82 2485.53,882.643 2494.85,885.134 2503.01,887.297 2510,889.141 2515.82,890.665 2520.46,891.873 2523.9,892.769 2526.15,893.353 
  2527.21,893.626 2527.07,893.59 2525.74,893.245 2523.21,892.59 2519.5,891.624 2514.59,890.344 2508.51,888.748 2501.25,886.833 2492.82,884.594 2483.23,882.027 
  2472.49,879.128 2460.6,875.891 2447.59,872.311 2433.47,868.382 2418.24,864.097 2401.92,859.449 2384.53,854.432 2366.09,849.04 2346.6,843.267 2326.1,837.108 
  2304.6,830.556 2282.12,823.603 2258.67,816.247 2234.29,808.484 2208.99,800.312 2182.8,791.729 2155.74,782.734 2127.84,773.328 2099.11,763.509 2069.58,753.283 
  2039.29,742.656 2008.25,731.637 1976.49,720.234 1944.05,708.461 1910.92,696.321 1877.15,683.832 1842.76,671.014 1807.78,657.885 1772.24,644.469 1736.16,630.788 
  1699.56,616.865 1662.44,602.712 1624.83,588.367 1586.77,573.858 1548.27,559.215 1509.36,544.471 1470.06,529.658 1430.38,514.809 1390.36,499.958 1350.01,485.138 
  1316.7,473.036 1287.85,462.659 1258.82,452.325 1229.64,442.056 1200.36,431.874 1171.01,421.804 1141.65,411.869 1112.31,402.083 1083.03,392.471 1053.85,383.048 
  1024.82,373.832 995.969,364.838 967.346,356.079 938.983,347.566 910.909,339.305 883.169,331.309 855.803,323.584 828.85,316.138 802.338,308.972 776.273,302.082 
  750.713,295.476 725.693,289.155 701.249,283.119 677.405,277.365 654.151,271.881 631.544,266.671 609.617,261.732 588.397,257.06 567.911,252.649 548.139,248.485 
  529.135,244.569 510.923,240.896 493.53,237.46 476.979,234.255 461.24,231.267 446.363,228.495 432.37,225.934 419.279,223.579 407.111,221.425 395.835,219.459 
  385.489,217.681 376.09,216.086 367.654,214.672 360.196,213.436 353.686,212.366 348.146,211.464 343.594,210.727 340.039,210.156 337.492,209.748 335.925,209.497 
  335.342,209.404 335.762,209.471 337.189,209.699 339.628,210.09 343.052,210.64 347.453,211.351 352.846,212.229 359.23,213.276 366.605,214.498 374.947,215.894 
  384.234,217.467 394.478,219.225 405.675,221.173 417.818,223.318 430.887,225.665 444.846,228.215 459.707,230.979 475.459,233.964 492.092,237.179 509.587,240.63 
  527.901,244.318 547.04,248.257 566.991,252.453 587.74,256.917 609.268,261.654 631.528,266.667 654.523,271.968 678.236,277.563 702.648,283.46 727.741,289.667 
  753.474,296.182 779.84,303.016 806.819,310.172 834.393,317.656 862.541,325.471 891.233,333.616 920.456,342.095 950.187,350.908 980.407,360.055 1011.09,369.533 
  1042.24,379.343 1073.82,389.481 1105.82,399.939 1138.21,410.712 1170.98,421.792 1204.07,433.16 1237.48,444.805 1271.19,456.715 1305.17,468.875 1337.61,480.618 
  1360.16,488.848 1382.85,497.186 1405.67,505.622 1428.58,514.138 1451.58,522.727 1474.6,531.365 1497.64,540.045 1520.66,548.745 1543.62,557.45 1566.51,566.147 
  1589.27,574.81 1611.9,583.433 1634.36,592.001 1656.62,600.492 1678.65,608.895 1700.43,617.194 1721.92,625.374 1743.09,633.422 1763.93,641.324 1784.4,649.067 
  1804.48,656.643 1824.15,664.04 1843.38,671.246 1862.14,678.25 1880.42,685.044 1898.2,691.627 1915.45,697.986 1932.15,704.114 1948.28,710.002 1963.82,715.652 
  1978.77,721.058 1993.1,726.214 2006.78,731.114 2019.8,735.755 2032.17,740.143 2043.86,744.27 2054.85,748.133 2065.13,751.728 2074.69,755.06 2083.54,758.133 
  2091.66,760.94 2099.03,763.48 2105.64,765.751 2111.48,767.752 2116.54,769.481 2120.81,770.936 2124.32,772.132 2127.06,773.063 2129.01,773.724 2130.16,774.114 
  2130.51,774.233 2130.06,774.079 2128.79,773.651 2126.72,772.948 2123.88,771.983 2120.25,770.745 2115.82,769.235 2110.6,767.452 2104.6,765.394 2097.81,763.062 
  2090.25,760.455 2081.93,757.573 2072.84,754.416 2063,750.985 2052.42,747.277 2041.1,743.295 2029.06,739.039 2016.3,734.51 2002.85,729.708 1988.7,724.632 
  1973.86,719.286 1958.37,713.672 1942.22,707.792 1925.43,701.651 1908.02,695.251 1890,688.598 1871.4,681.695 1852.2,674.54 1832.43,667.146 1812.12,659.517 
  1791.27,651.662 1769.91,643.588 1748.05,635.305 1725.72,626.821 1702.92,618.142 1679.64,609.274 1655.94,600.232 1631.81,591.028 1607.28,581.674 1582.37,572.183 
  1557.1,562.567 1531.47,552.842 1505.52,543.018 1479.24,533.112 1452.68,523.139 1425.83,513.113 1398.73,503.051 1371.39,492.969 1343.83,482.882 1323.88,475.632 
  1307.94,469.875 1291.92,464.116 1275.8,458.358 1259.62,452.611 1243.39,446.883 1227.13,441.18 1210.86,435.513 1194.61,429.893 1178.4,424.326 1162.22,418.815 
  1146.13,413.373 1130.12,408.006 1114.22,402.718 1098.46,397.519 1082.85,392.414 1067.42,387.41 1052.17,382.511 1037.14,377.725 1022.34,373.054 1007.78,368.5 
  993.485,364.071 979.475,359.77 965.771,355.602 952.391,351.569 939.346,347.673 926.632,343.911 914.285,340.289 902.321,336.812 890.758,333.48 879.613,330.296 
  868.897,327.26 858.589,324.363 848.728,321.614 839.33,319.014 830.408,316.564 821.976,314.265 814.049,312.118 806.59,310.111 799.641,308.252 793.213,306.542 
  787.318,304.983 781.967,303.574 777.17,302.316 772.893,301.2 769.162,300.229 765.99,299.406 763.386,298.732 761.357,298.209 759.91,297.836 759.017,297.605 
  758.684,297.52 758.928,297.582 759.753,297.795 761.163,298.158 763.162,298.675 765.727,299.338 768.847,300.147 772.541,301.108 776.81,302.222 781.653,303.491 
  787.071,304.918 793.047,306.498 799.555,308.229 806.614,310.117 814.222,312.164 822.375,314.373 831.07,316.745 840.296,319.28 850.015,321.971 860.245,324.827 
  870.981,327.848 882.216,331.037 893.945,334.395 906.158,337.924 918.815,341.614 931.929,345.474 945.492,349.504 959.495,353.706 973.93,358.079 988.789,362.625 
  1004.04,367.336 1019.67,372.217 1035.7,377.266 1052.09,382.484 1068.85,387.871 1085.95,393.424 1103.39,399.14 1121.15,405.017 1139.23,411.054 1157.6,417.248 
  1176.27,423.598 1195.21,430.1 1214.43,436.751 1233.9,443.548 1253.62,450.486 1273.57,457.563 1293.75,464.772 1314.14,472.109 1334.41,479.454 1342.92,482.552 
  1351.49,485.68 
  "/>
<path clip-path="url(#clip310)" d="
M1423.66 477.116 L2284.85 477.116 L2284.85 166.076 L1423.66 166.076  Z
  " fill="#ffffff" fill-rule="evenodd" fill-opacity="1"/>
<polyline clip-path="url(#clip310)" style="stroke:#000000; stroke-linecap:butt; stroke-linejoin:round; stroke-width:4; stroke-opacity:1; fill:none" points="
  1423.66,477.116 2284.85,477.116 2284.85,166.076 1423.66,166.076 1423.66,477.116 
  "/>
<polyline clip-path="url(#clip310)" style="stroke:#009af9; stroke-linecap:butt; stroke-linejoin:round; stroke-width:6; stroke-opacity:1; fill:none" points="
  1446.29,243.836 1582.1,243.836 
  "/>
<path clip-path="url(#clip310)" d="M1638.1 219.617 L1638.1 226.457 Q1634.1 224.548 1630.56 223.61 Q1627.02 222.673 1623.72 222.673 Q1617.99 222.673 1614.87 224.895 Q1611.78 227.117 1611.78 231.214 Q1611.78 234.652 1613.83 236.423 Q1615.91 238.159 1621.67 239.235 L1625.91 240.103 Q1633.76 241.596 1637.47 245.381 Q1641.22 249.131 1641.22 255.45 Q1641.22 262.985 1636.15 266.874 Q1631.12 270.763 1621.36 270.763 Q1617.68 270.763 1613.51 269.929 Q1609.38 269.096 1604.94 267.464 L1604.94 260.242 Q1609.21 262.638 1613.31 263.853 Q1617.4 265.068 1621.36 265.068 Q1627.37 265.068 1630.63 262.707 Q1633.9 260.346 1633.9 255.971 Q1633.9 252.152 1631.54 249.999 Q1629.21 247.846 1623.86 246.77 L1619.59 245.936 Q1611.74 244.374 1608.24 241.041 Q1604.73 237.707 1604.73 231.77 Q1604.73 224.895 1609.56 220.937 Q1614.42 216.978 1622.92 216.978 Q1626.57 216.978 1630.35 217.638 Q1634.14 218.298 1638.1 219.617 Z" fill="#000000" fill-rule="evenodd" fill-opacity="1" /><path clip-path="url(#clip310)" d="M1651.88 230.867 L1658.27 230.867 L1658.27 269.756 L1651.88 269.756 L1651.88 230.867 M1651.88 215.728 L1658.27 215.728 L1658.27 223.818 L1651.88 223.818 L1651.88 215.728 Z" fill="#000000" fill-rule="evenodd" fill-opacity="1" /><path clip-path="url(#clip310)" d="M1701.92 238.332 Q1704.31 234.027 1707.65 231.978 Q1710.98 229.93 1715.49 229.93 Q1721.57 229.93 1724.87 234.2 Q1728.17 238.436 1728.17 246.284 L1728.17 269.756 L1721.74 269.756 L1721.74 246.492 Q1721.74 240.902 1719.76 238.193 Q1717.78 235.485 1713.72 235.485 Q1708.76 235.485 1705.88 238.784 Q1702.99 242.082 1702.99 247.777 L1702.99 269.756 L1696.57 269.756 L1696.57 246.492 Q1696.57 240.867 1694.59 238.193 Q1692.61 235.485 1688.48 235.485 Q1683.58 235.485 1680.7 238.818 Q1677.82 242.117 1677.82 247.777 L1677.82 269.756 L1671.4 269.756 L1671.4 230.867 L1677.82 230.867 L1677.82 236.909 Q1680.01 233.332 1683.06 231.631 Q1686.12 229.93 1690.32 229.93 Q1694.56 229.93 1697.51 232.082 Q1700.49 234.235 1701.92 238.332 Z" fill="#000000" fill-rule="evenodd" fill-opacity="1" /><path clip-path="url(#clip310)" d="M1747.09 263.922 L1747.09 284.547 L1740.67 284.547 L1740.67 230.867 L1747.09 230.867 L1747.09 236.77 Q1749.1 233.298 1752.16 231.631 Q1755.25 229.93 1759.52 229.93 Q1766.6 229.93 1771.01 235.555 Q1775.46 241.179 1775.46 250.346 Q1775.46 259.513 1771.01 265.138 Q1766.6 270.763 1759.52 270.763 Q1755.25 270.763 1752.16 269.096 Q1749.1 267.395 1747.09 263.922 M1768.83 250.346 Q1768.83 243.298 1765.91 239.304 Q1763.03 235.277 1757.96 235.277 Q1752.89 235.277 1749.97 239.304 Q1747.09 243.298 1747.09 250.346 Q1747.09 257.395 1749.97 261.422 Q1752.89 265.415 1757.96 265.415 Q1763.03 265.415 1765.91 261.422 Q1768.83 257.395 1768.83 250.346 Z" fill="#000000" fill-rule="evenodd" fill-opacity="1" /><path clip-path="url(#clip310)" d="M1786.05 215.728 L1792.44 215.728 L1792.44 269.756 L1786.05 269.756 L1786.05 215.728 Z" fill="#000000" fill-rule="evenodd" fill-opacity="1" /><path clip-path="url(#clip310)" d="M1839.07 248.714 L1839.07 251.839 L1809.69 251.839 Q1810.11 258.436 1813.65 261.909 Q1817.23 265.346 1823.58 265.346 Q1827.26 265.346 1830.7 264.443 Q1834.17 263.54 1837.58 261.735 L1837.58 267.777 Q1834.14 269.235 1830.53 269.999 Q1826.92 270.763 1823.2 270.763 Q1813.9 270.763 1808.44 265.346 Q1803.03 259.929 1803.03 250.693 Q1803.03 241.145 1808.17 235.555 Q1813.34 229.93 1822.09 229.93 Q1829.94 229.93 1834.49 234.999 Q1839.07 240.034 1839.07 248.714 M1832.68 246.839 Q1832.61 241.596 1829.73 238.471 Q1826.88 235.346 1822.16 235.346 Q1816.81 235.346 1813.58 238.367 Q1810.39 241.388 1809.9 246.874 L1832.68 246.839 Z" fill="#000000" fill-rule="evenodd" fill-opacity="1" /><path clip-path="url(#clip310)" d="M1849.83 217.916 L1879.62 217.916 L1879.62 223.818 L1856.85 223.818 L1856.85 239.096 L1877.4 239.096 L1877.4 244.999 L1856.85 244.999 L1856.85 269.756 L1849.83 269.756 L1849.83 217.916 Z" fill="#000000" fill-rule="evenodd" fill-opacity="1" /><path clip-path="url(#clip310)" d="M1890.74 217.916 L1901.19 217.916 L1914.42 253.193 L1927.71 217.916 L1938.17 217.916 L1938.17 269.756 L1931.33 269.756 L1931.33 224.235 L1917.96 259.79 L1910.91 259.79 L1897.54 224.235 L1897.54 269.756 L1890.74 269.756 L1890.74 217.916 Z" fill="#000000" fill-rule="evenodd" fill-opacity="1" /><path clip-path="url(#clip310)" d="M1951.29 217.916 L1958.34 217.916 L1958.34 249.409 Q1958.34 257.742 1961.36 261.422 Q1964.38 265.068 1971.15 265.068 Q1977.89 265.068 1980.91 261.422 Q1983.93 257.742 1983.93 249.409 L1983.93 217.916 L1990.98 217.916 L1990.98 250.277 Q1990.98 260.415 1985.94 265.589 Q1980.94 270.763 1971.15 270.763 Q1961.33 270.763 1956.29 265.589 Q1951.29 260.415 1951.29 250.277 L1951.29 217.916 Z" fill="#000000" fill-rule="evenodd" fill-opacity="1" /><polyline clip-path="url(#clip310)" style="stroke:#e26f46; stroke-linecap:butt; stroke-linejoin:round; stroke-width:6; stroke-opacity:1; fill:none" points="
  1446.29,321.596 1582.1,321.596 
  "/>
<path clip-path="url(#clip310)" d="M1627.51 314.599 Q1626.43 313.974 1625.15 313.696 Q1623.9 313.384 1622.37 313.384 Q1616.95 313.384 1614.04 316.926 Q1611.15 320.433 1611.15 327.03 L1611.15 347.516 L1604.73 347.516 L1604.73 308.627 L1611.15 308.627 L1611.15 314.669 Q1613.17 311.127 1616.4 309.426 Q1619.63 307.69 1624.24 307.69 Q1624.9 307.69 1625.7 307.794 Q1626.5 307.863 1627.47 308.037 L1627.51 314.599 Z" fill="#000000" fill-rule="evenodd" fill-opacity="1" /><path clip-path="url(#clip310)" d="M1665.91 326.474 L1665.91 329.599 L1636.54 329.599 Q1636.95 336.196 1640.49 339.669 Q1644.07 343.106 1650.42 343.106 Q1654.1 343.106 1657.54 342.203 Q1661.01 341.3 1664.42 339.495 L1664.42 345.537 Q1660.98 346.995 1657.37 347.759 Q1653.76 348.523 1650.04 348.523 Q1640.74 348.523 1635.29 343.106 Q1629.87 337.689 1629.87 328.453 Q1629.87 318.905 1635.01 313.315 Q1640.18 307.69 1648.93 307.69 Q1656.78 307.69 1661.33 312.759 Q1665.91 317.794 1665.91 326.474 M1659.52 324.599 Q1659.45 319.356 1656.57 316.231 Q1653.72 313.106 1649 313.106 Q1643.65 313.106 1640.42 316.127 Q1637.23 319.148 1636.74 324.634 L1659.52 324.599 Z" fill="#000000" fill-rule="evenodd" fill-opacity="1" /><path clip-path="url(#clip310)" d="M1696.08 293.488 L1696.08 298.801 L1689.97 298.801 Q1686.53 298.801 1685.18 300.19 Q1683.86 301.578 1683.86 305.19 L1683.86 308.627 L1694.38 308.627 L1694.38 313.592 L1683.86 313.592 L1683.86 347.516 L1677.44 347.516 L1677.44 313.592 L1671.33 313.592 L1671.33 308.627 L1677.44 308.627 L1677.44 305.919 Q1677.44 299.426 1680.46 296.474 Q1683.48 293.488 1690.04 293.488 L1696.08 293.488 Z" fill="#000000" fill-rule="evenodd" fill-opacity="1" /><path clip-path="url(#clip310)" d="M1734.69 326.474 L1734.69 329.599 L1705.32 329.599 Q1705.74 336.196 1709.28 339.669 Q1712.85 343.106 1719.21 343.106 Q1722.89 343.106 1726.33 342.203 Q1729.8 341.3 1733.2 339.495 L1733.2 345.537 Q1729.76 346.995 1726.15 347.759 Q1722.54 348.523 1718.83 348.523 Q1709.52 348.523 1704.07 343.106 Q1698.65 337.689 1698.65 328.453 Q1698.65 318.905 1703.79 313.315 Q1708.97 307.69 1717.72 307.69 Q1725.56 307.69 1730.11 312.759 Q1734.69 317.794 1734.69 326.474 M1728.31 324.599 Q1728.24 319.356 1725.35 316.231 Q1722.51 313.106 1717.78 313.106 Q1712.44 313.106 1709.21 316.127 Q1706.01 319.148 1705.53 324.634 L1728.31 324.599 Z" fill="#000000" fill-rule="evenodd" fill-opacity="1" /><path clip-path="url(#clip310)" d="M1767.72 314.599 Q1766.64 313.974 1765.35 313.696 Q1764.1 313.384 1762.58 313.384 Q1757.16 313.384 1754.24 316.926 Q1751.36 320.433 1751.36 327.03 L1751.36 347.516 L1744.94 347.516 L1744.94 308.627 L1751.36 308.627 L1751.36 314.669 Q1753.37 311.127 1756.6 309.426 Q1759.83 307.69 1764.45 307.69 Q1765.11 307.69 1765.91 307.794 Q1766.71 307.863 1767.68 308.037 L1767.72 314.599 Z" fill="#000000" fill-rule="evenodd" fill-opacity="1" /><path clip-path="url(#clip310)" d="M1806.12 326.474 L1806.12 329.599 L1776.74 329.599 Q1777.16 336.196 1780.7 339.669 Q1784.28 343.106 1790.63 343.106 Q1794.31 343.106 1797.75 342.203 Q1801.22 341.3 1804.62 339.495 L1804.62 345.537 Q1801.19 346.995 1797.58 347.759 Q1793.96 348.523 1790.25 348.523 Q1780.94 348.523 1775.49 343.106 Q1770.08 337.689 1770.08 328.453 Q1770.08 318.905 1775.22 313.315 Q1780.39 307.69 1789.14 307.69 Q1796.99 307.69 1801.53 312.759 Q1806.12 317.794 1806.12 326.474 M1799.73 324.599 Q1799.66 319.356 1796.78 316.231 Q1793.93 313.106 1789.21 313.106 Q1783.86 313.106 1780.63 316.127 Q1777.44 319.148 1776.95 324.634 L1799.73 324.599 Z" fill="#000000" fill-rule="evenodd" fill-opacity="1" /><path clip-path="url(#clip310)" d="M1848.93 324.044 L1848.93 347.516 L1842.54 347.516 L1842.54 324.252 Q1842.54 318.731 1840.39 315.988 Q1838.24 313.245 1833.93 313.245 Q1828.76 313.245 1825.77 316.544 Q1822.78 319.842 1822.78 325.537 L1822.78 347.516 L1816.36 347.516 L1816.36 308.627 L1822.78 308.627 L1822.78 314.669 Q1825.08 311.162 1828.17 309.426 Q1831.29 307.69 1835.35 307.69 Q1842.05 307.69 1845.49 311.856 Q1848.93 315.988 1848.93 324.044 Z" fill="#000000" fill-rule="evenodd" fill-opacity="1" /><path clip-path="url(#clip310)" d="M1889.66 310.12 L1889.66 316.092 Q1886.95 314.599 1884.21 313.87 Q1881.5 313.106 1878.72 313.106 Q1872.51 313.106 1869.07 317.064 Q1865.63 320.988 1865.63 328.106 Q1865.63 335.224 1869.07 339.182 Q1872.51 343.106 1878.72 343.106 Q1881.5 343.106 1884.21 342.377 Q1886.95 341.613 1889.66 340.12 L1889.66 346.023 Q1886.99 347.273 1884.1 347.898 Q1881.26 348.523 1878.03 348.523 Q1869.24 348.523 1864.07 343.002 Q1858.9 337.481 1858.9 328.106 Q1858.9 318.592 1864.1 313.141 Q1869.35 307.69 1878.44 307.69 Q1881.4 307.69 1884.21 308.315 Q1887.02 308.905 1889.66 310.12 Z" fill="#000000" fill-rule="evenodd" fill-opacity="1" /><path clip-path="url(#clip310)" d="M1934.03 326.474 L1934.03 329.599 L1904.66 329.599 Q1905.08 336.196 1908.62 339.669 Q1912.19 343.106 1918.55 343.106 Q1922.23 343.106 1925.67 342.203 Q1929.14 341.3 1932.54 339.495 L1932.54 345.537 Q1929.1 346.995 1925.49 347.759 Q1921.88 348.523 1918.17 348.523 Q1908.86 348.523 1903.41 343.106 Q1897.99 337.689 1897.99 328.453 Q1897.99 318.905 1903.13 313.315 Q1908.3 307.69 1917.05 307.69 Q1924.9 307.69 1929.45 312.759 Q1934.03 317.794 1934.03 326.474 M1927.64 324.599 Q1927.58 319.356 1924.69 316.231 Q1921.85 313.106 1917.12 313.106 Q1911.78 313.106 1908.55 316.127 Q1905.35 319.148 1904.87 324.634 L1927.64 324.599 Z" fill="#000000" fill-rule="evenodd" fill-opacity="1" /><polyline clip-path="url(#clip310)" style="stroke:#008000; stroke-linecap:butt; stroke-linejoin:round; stroke-width:6; stroke-opacity:1; fill:none" stroke-dasharray="3, 6" points="
  1446.29,399.356 1582.1,399.356 
  "/>
<path clip-path="url(#clip310)" d="M1604.73 373.436 L1614.17 373.436 L1637.16 416.804 L1637.16 373.436 L1643.97 373.436 L1643.97 425.276 L1634.52 425.276 L1611.54 381.908 L1611.54 425.276 L1604.73 425.276 L1604.73 373.436 Z" fill="#000000" fill-rule="evenodd" fill-opacity="1" /><path clip-path="url(#clip310)" d="M1690.91 404.234 L1690.91 407.359 L1661.54 407.359 Q1661.95 413.956 1665.49 417.429 Q1669.07 420.866 1675.42 420.866 Q1679.1 420.866 1682.54 419.963 Q1686.01 419.06 1689.42 417.255 L1689.42 423.297 Q1685.98 424.755 1682.37 425.519 Q1678.76 426.283 1675.04 426.283 Q1665.74 426.283 1660.29 420.866 Q1654.87 415.449 1654.87 406.213 Q1654.87 396.665 1660.01 391.075 Q1665.18 385.45 1673.93 385.45 Q1681.78 385.45 1686.33 390.519 Q1690.91 395.554 1690.91 404.234 M1684.52 402.359 Q1684.45 397.116 1681.57 393.991 Q1678.72 390.866 1674 390.866 Q1668.65 390.866 1665.42 393.887 Q1662.23 396.908 1661.74 402.394 L1684.52 402.359 Z" fill="#000000" fill-rule="evenodd" fill-opacity="1" /><path clip-path="url(#clip310)" d="M1700.74 409.929 L1700.74 386.387 L1707.13 386.387 L1707.13 409.686 Q1707.13 415.206 1709.28 417.984 Q1711.43 420.727 1715.74 420.727 Q1720.91 420.727 1723.9 417.429 Q1726.92 414.13 1726.92 408.436 L1726.92 386.387 L1733.31 386.387 L1733.31 425.276 L1726.92 425.276 L1726.92 419.304 Q1724.59 422.845 1721.5 424.581 Q1718.44 426.283 1714.38 426.283 Q1707.68 426.283 1704.21 422.116 Q1700.74 417.949 1700.74 409.929 M1716.81 385.45 L1716.81 385.45 Z" fill="#000000" fill-rule="evenodd" fill-opacity="1" /><path clip-path="url(#clip310)" d="M1769 392.359 Q1767.92 391.734 1766.64 391.456 Q1765.39 391.144 1763.86 391.144 Q1758.44 391.144 1755.53 394.686 Q1752.65 398.193 1752.65 404.79 L1752.65 425.276 L1746.22 425.276 L1746.22 386.387 L1752.65 386.387 L1752.65 392.429 Q1754.66 388.887 1757.89 387.186 Q1761.12 385.45 1765.74 385.45 Q1766.4 385.45 1767.19 385.554 Q1767.99 385.623 1768.97 385.797 L1769 392.359 Z" fill="#000000" fill-rule="evenodd" fill-opacity="1" /><path clip-path="url(#clip310)" d="M1793.37 405.727 Q1785.63 405.727 1782.65 407.498 Q1779.66 409.269 1779.66 413.54 Q1779.66 416.942 1781.88 418.956 Q1784.14 420.935 1787.99 420.935 Q1793.31 420.935 1796.5 417.185 Q1799.73 413.401 1799.73 407.151 L1799.73 405.727 L1793.37 405.727 M1806.12 403.088 L1806.12 425.276 L1799.73 425.276 L1799.73 419.373 Q1797.54 422.915 1794.28 424.616 Q1791.01 426.283 1786.29 426.283 Q1780.32 426.283 1776.78 422.949 Q1773.27 419.581 1773.27 413.956 Q1773.27 407.394 1777.65 404.061 Q1782.06 400.727 1790.77 400.727 L1799.73 400.727 L1799.73 400.102 Q1799.73 395.693 1796.81 393.297 Q1793.93 390.866 1788.69 390.866 Q1785.35 390.866 1782.19 391.665 Q1779.03 392.463 1776.12 394.061 L1776.12 388.158 Q1779.62 386.804 1782.92 386.144 Q1786.22 385.45 1789.35 385.45 Q1797.78 385.45 1801.95 389.825 Q1806.12 394.199 1806.12 403.088 Z" fill="#000000" fill-rule="evenodd" fill-opacity="1" /><path clip-path="url(#clip310)" d="M1819.28 371.248 L1825.67 371.248 L1825.67 425.276 L1819.28 425.276 L1819.28 371.248 Z" fill="#000000" fill-rule="evenodd" fill-opacity="1" /><path clip-path="url(#clip310)" d="M1839.31 373.436 L1869.1 373.436 L1869.1 379.338 L1846.33 379.338 L1846.33 394.616 L1866.88 394.616 L1866.88 400.519 L1846.33 400.519 L1846.33 425.276 L1839.31 425.276 L1839.31 373.436 Z" fill="#000000" fill-rule="evenodd" fill-opacity="1" /><path clip-path="url(#clip310)" d="M1880.21 373.436 L1890.67 373.436 L1903.89 408.713 L1917.19 373.436 L1927.64 373.436 L1927.64 425.276 L1920.8 425.276 L1920.8 379.755 L1907.44 415.31 L1900.39 415.31 L1887.02 379.755 L1887.02 425.276 L1880.21 425.276 L1880.21 373.436 Z" fill="#000000" fill-rule="evenodd" fill-opacity="1" /><path clip-path="url(#clip310)" d="M1940.77 373.436 L1947.82 373.436 L1947.82 404.929 Q1947.82 413.262 1950.84 416.942 Q1953.86 420.588 1960.63 420.588 Q1967.37 420.588 1970.39 416.942 Q1973.41 413.262 1973.41 404.929 L1973.41 373.436 L1980.46 373.436 L1980.46 405.797 Q1980.46 415.935 1975.42 421.109 Q1970.42 426.283 1960.63 426.283 Q1950.8 426.283 1945.77 421.109 Q1940.77 415.935 1940.77 405.797 L1940.77 373.436 Z" fill="#000000" fill-rule="evenodd" fill-opacity="1" /><path clip-path="url(#clip310)" d="M2031.29 371.318 Q2026.64 379.304 2024.38 387.116 Q2022.12 394.929 2022.12 402.949 Q2022.12 410.97 2024.38 418.852 Q2026.67 426.699 2031.29 434.651 L2025.73 434.651 Q2020.53 426.491 2017.92 418.609 Q2015.35 410.727 2015.35 402.949 Q2015.35 395.206 2017.92 387.359 Q2020.49 379.512 2025.73 371.318 L2031.29 371.318 Z" fill="#000000" fill-rule="evenodd" fill-opacity="1" /><path clip-path="url(#clip310)" d="M2050.63 419.373 L2075.11 419.373 L2075.11 425.276 L2042.19 425.276 L2042.19 419.373 Q2046.19 415.241 2053.06 408.297 Q2059.97 401.318 2061.74 399.304 Q2065.11 395.519 2066.43 392.915 Q2067.78 390.276 2067.78 387.741 Q2067.78 383.609 2064.87 381.005 Q2061.98 378.401 2057.33 378.401 Q2054.03 378.401 2050.35 379.547 Q2046.71 380.693 2042.54 383.019 L2042.54 375.936 Q2046.78 374.234 2050.46 373.366 Q2054.14 372.498 2057.19 372.498 Q2065.25 372.498 2070.04 376.526 Q2074.83 380.554 2074.83 387.29 Q2074.83 390.484 2073.62 393.366 Q2072.44 396.213 2069.28 400.102 Q2068.41 401.109 2063.76 405.936 Q2059.1 410.727 2050.63 419.373 Z" fill="#000000" fill-rule="evenodd" fill-opacity="1" /><path clip-path="url(#clip310)" d="M2089.9 373.436 L2117.44 373.436 L2117.44 379.338 L2096.32 379.338 L2096.32 392.047 Q2097.85 391.526 2099.38 391.283 Q2100.91 391.005 2102.44 391.005 Q2111.12 391.005 2116.19 395.762 Q2121.25 400.519 2121.25 408.644 Q2121.25 417.012 2116.05 421.665 Q2110.84 426.283 2101.36 426.283 Q2098.1 426.283 2094.69 425.727 Q2091.32 425.172 2087.71 424.06 L2087.71 417.012 Q2090.84 418.713 2094.17 419.547 Q2097.5 420.38 2101.22 420.38 Q2107.23 420.38 2110.73 417.22 Q2114.24 414.06 2114.24 408.644 Q2114.24 403.227 2110.73 400.068 Q2107.23 396.908 2101.22 396.908 Q2098.41 396.908 2095.6 397.533 Q2092.82 398.158 2089.9 399.477 L2089.9 373.436 Z" fill="#000000" fill-rule="evenodd" fill-opacity="1" /><path clip-path="url(#clip310)" d="M2150.07 378.054 Q2144.66 378.054 2141.91 383.401 Q2139.21 388.713 2139.21 399.408 Q2139.21 410.067 2141.91 415.415 Q2144.66 420.727 2150.07 420.727 Q2155.53 420.727 2158.23 415.415 Q2160.98 410.067 2160.98 399.408 Q2160.98 388.713 2158.23 383.401 Q2155.53 378.054 2150.07 378.054 M2150.07 372.498 Q2158.79 372.498 2163.37 379.408 Q2167.99 386.283 2167.99 399.408 Q2167.99 412.498 2163.37 419.408 Q2158.79 426.283 2150.07 426.283 Q2141.36 426.283 2136.74 419.408 Q2132.16 412.498 2132.16 399.408 Q2132.16 386.283 2136.74 379.408 Q2141.36 372.498 2150.07 372.498 Z" fill="#000000" fill-rule="evenodd" fill-opacity="1" /><path clip-path="url(#clip310)" d="M2195.32 378.054 Q2189.9 378.054 2187.16 383.401 Q2184.45 388.713 2184.45 399.408 Q2184.45 410.067 2187.16 415.415 Q2189.9 420.727 2195.32 420.727 Q2200.77 420.727 2203.48 415.415 Q2206.22 410.067 2206.22 399.408 Q2206.22 388.713 2203.48 383.401 Q2200.77 378.054 2195.32 378.054 M2195.32 372.498 Q2204.03 372.498 2208.62 379.408 Q2213.23 386.283 2213.23 399.408 Q2213.23 412.498 2208.62 419.408 Q2204.03 426.283 2195.32 426.283 Q2186.6 426.283 2181.98 419.408 Q2177.4 412.498 2177.4 399.408 Q2177.4 386.283 2181.98 379.408 Q2186.6 372.498 2195.32 372.498 Z" fill="#000000" fill-rule="evenodd" fill-opacity="1" /><path clip-path="url(#clip310)" d="M2223.65 371.318 L2229.21 371.318 Q2234.41 379.512 2236.98 387.359 Q2239.59 395.206 2239.59 402.949 Q2239.59 410.727 2236.98 418.609 Q2234.41 426.491 2229.21 434.651 L2223.65 434.651 Q2228.27 426.699 2230.53 418.852 Q2232.82 410.97 2232.82 402.949 Q2232.82 394.929 2230.53 387.116 Q2228.27 379.304 2223.65 371.318 Z" fill="#000000" fill-rule="evenodd" fill-opacity="1" /></svg>
