<?xml version="1.0" encoding="utf-8"?>
<svg xmlns="http://www.w3.org/2000/svg" xmlns:xlink="http://www.w3.org/1999/xlink" width="600" height="400" viewBox="0 0 2400 1600">
<defs>
  <clipPath id="clip250">
    <rect x="0" y="0" width="2400" height="1600"/>
  </clipPath>
</defs>
<path clip-path="url(#clip250)" d="
M0 1600 L2400 1600 L2400 0 L0 0  Z
  " fill="#ffffff" fill-rule="evenodd" fill-opacity="1"/>
<defs>
  <clipPath id="clip251">
    <rect x="480" y="0" width="1681" height="1600"/>
  </clipPath>
</defs>
<path clip-path="url(#clip250)" d="
M149.191 1423.18 L2352.76 1423.18 L2352.76 47.2441 L149.191 47.2441  Z
  " fill="#ffffff" fill-rule="evenodd" fill-opacity="1"/>
<defs>
  <clipPath id="clip252">
    <rect x="149" y="47" width="2205" height="1377"/>
  </clipPath>
</defs>
<polyline clip-path="url(#clip252)" style="stroke:#000000; stroke-linecap:butt; stroke-linejoin:round; stroke-width:2; stroke-opacity:0.1; fill:none" points="
  211.556,1423.18 211.556,47.2441 
  "/>
<polyline clip-path="url(#clip252)" style="stroke:#000000; stroke-linecap:butt; stroke-linejoin:round; stroke-width:2; stroke-opacity:0.1; fill:none" points="
  731.265,1423.18 731.265,47.2441 
  "/>
<polyline clip-path="url(#clip252)" style="stroke:#000000; stroke-linecap:butt; stroke-linejoin:round; stroke-width:2; stroke-opacity:0.1; fill:none" points="
  1250.97,1423.18 1250.97,47.2441 
  "/>
<polyline clip-path="url(#clip252)" style="stroke:#000000; stroke-linecap:butt; stroke-linejoin:round; stroke-width:2; stroke-opacity:0.1; fill:none" points="
  1770.68,1423.18 1770.68,47.2441 
  "/>
<polyline clip-path="url(#clip252)" style="stroke:#000000; stroke-linecap:butt; stroke-linejoin:round; stroke-width:2; stroke-opacity:0.1; fill:none" points="
  2290.39,1423.18 2290.39,47.2441 
  "/>
<polyline clip-path="url(#clip250)" style="stroke:#000000; stroke-linecap:butt; stroke-linejoin:round; stroke-width:4; stroke-opacity:1; fill:none" points="
  149.191,1423.18 2352.76,1423.18 
  "/>
<polyline clip-path="url(#clip250)" style="stroke:#000000; stroke-linecap:butt; stroke-linejoin:round; stroke-width:4; stroke-opacity:1; fill:none" points="
  211.556,1423.18 211.556,1404.28 
  "/>
<polyline clip-path="url(#clip250)" style="stroke:#000000; stroke-linecap:butt; stroke-linejoin:round; stroke-width:4; stroke-opacity:1; fill:none" points="
  731.265,1423.18 731.265,1404.28 
  "/>
<polyline clip-path="url(#clip250)" style="stroke:#000000; stroke-linecap:butt; stroke-linejoin:round; stroke-width:4; stroke-opacity:1; fill:none" points="
  1250.97,1423.18 1250.97,1404.28 
  "/>
<polyline clip-path="url(#clip250)" style="stroke:#000000; stroke-linecap:butt; stroke-linejoin:round; stroke-width:4; stroke-opacity:1; fill:none" points="
  1770.68,1423.18 1770.68,1404.28 
  "/>
<polyline clip-path="url(#clip250)" style="stroke:#000000; stroke-linecap:butt; stroke-linejoin:round; stroke-width:4; stroke-opacity:1; fill:none" points="
  2290.39,1423.18 2290.39,1404.28 
  "/>
<path clip-path="url(#clip250)" d="M211.556 1454.1 Q207.945 1454.1 206.116 1457.66 Q204.311 1461.2 204.311 1468.33 Q204.311 1475.44 206.116 1479.01 Q207.945 1482.55 211.556 1482.55 Q215.19 1482.55 216.996 1479.01 Q218.824 1475.44 218.824 1468.33 Q218.824 1461.2 216.996 1457.66 Q215.19 1454.1 211.556 1454.1 M211.556 1450.39 Q217.366 1450.39 220.422 1455 Q223.5 1459.58 223.5 1468.33 Q223.5 1477.06 220.422 1481.67 Q217.366 1486.25 211.556 1486.25 Q205.746 1486.25 202.667 1481.67 Q199.612 1477.06 199.612 1468.33 Q199.612 1459.58 202.667 1455 Q205.746 1450.39 211.556 1450.39 Z" fill="#000000" fill-rule="evenodd" fill-opacity="1" /><path clip-path="url(#clip250)" d="M721.647 1481.64 L729.285 1481.64 L729.285 1455.28 L720.975 1456.95 L720.975 1452.69 L729.239 1451.02 L733.915 1451.02 L733.915 1481.64 L741.554 1481.64 L741.554 1485.58 L721.647 1485.58 L721.647 1481.64 Z" fill="#000000" fill-rule="evenodd" fill-opacity="1" /><path clip-path="url(#clip250)" d="M1245.63 1481.64 L1261.95 1481.64 L1261.95 1485.58 L1240 1485.58 L1240 1481.64 Q1242.66 1478.89 1247.25 1474.26 Q1251.85 1469.61 1253.03 1468.27 Q1255.28 1465.74 1256.16 1464.01 Q1257.06 1462.25 1257.06 1460.56 Q1257.06 1457.8 1255.12 1456.07 Q1253.2 1454.33 1250.09 1454.33 Q1247.89 1454.33 1245.44 1455.09 Q1243.01 1455.86 1240.23 1457.41 L1240.23 1452.69 Q1243.06 1451.55 1245.51 1450.97 Q1247.96 1450.39 1250 1450.39 Q1255.37 1450.39 1258.57 1453.08 Q1261.76 1455.77 1261.76 1460.26 Q1261.76 1462.39 1260.95 1464.31 Q1260.16 1466.2 1258.06 1468.8 Q1257.48 1469.47 1254.38 1472.69 Q1251.27 1475.88 1245.63 1481.64 Z" fill="#000000" fill-rule="evenodd" fill-opacity="1" /><path clip-path="url(#clip250)" d="M1774.93 1466.95 Q1778.29 1467.66 1780.16 1469.93 Q1782.06 1472.2 1782.06 1475.53 Q1782.06 1480.65 1778.54 1483.45 Q1775.02 1486.25 1768.54 1486.25 Q1766.37 1486.25 1764.05 1485.81 Q1761.76 1485.39 1759.3 1484.54 L1759.3 1480.02 Q1761.25 1481.16 1763.56 1481.74 Q1765.88 1482.32 1768.4 1482.32 Q1772.8 1482.32 1775.09 1480.58 Q1777.41 1478.84 1777.41 1475.53 Q1777.41 1472.48 1775.25 1470.77 Q1773.12 1469.03 1769.3 1469.03 L1765.28 1469.03 L1765.28 1465.19 L1769.49 1465.19 Q1772.94 1465.19 1774.77 1463.82 Q1776.6 1462.43 1776.6 1459.84 Q1776.6 1457.18 1774.7 1455.77 Q1772.82 1454.33 1769.3 1454.33 Q1767.38 1454.33 1765.18 1454.75 Q1762.99 1455.16 1760.35 1456.04 L1760.35 1451.88 Q1763.01 1451.14 1765.32 1450.77 Q1767.66 1450.39 1769.72 1450.39 Q1775.05 1450.39 1778.15 1452.83 Q1781.25 1455.23 1781.25 1459.35 Q1781.25 1462.22 1779.61 1464.21 Q1777.96 1466.18 1774.93 1466.95 Z" fill="#000000" fill-rule="evenodd" fill-opacity="1" /><path clip-path="url(#clip250)" d="M2293.4 1455.09 L2281.59 1473.54 L2293.4 1473.54 L2293.4 1455.09 M2292.17 1451.02 L2298.05 1451.02 L2298.05 1473.54 L2302.98 1473.54 L2302.98 1477.43 L2298.05 1477.43 L2298.05 1485.58 L2293.4 1485.58 L2293.4 1477.43 L2277.8 1477.43 L2277.8 1472.92 L2292.17 1451.02 Z" fill="#000000" fill-rule="evenodd" fill-opacity="1" /><path clip-path="url(#clip250)" d="M1199.28 1522.27 L1199.28 1532.4 L1211.35 1532.4 L1211.35 1536.95 L1199.28 1536.95 L1199.28 1556.3 Q1199.28 1560.66 1200.46 1561.9 Q1201.67 1563.14 1205.33 1563.14 L1211.35 1563.14 L1211.35 1568.04 L1205.33 1568.04 Q1198.55 1568.04 1195.97 1565.53 Q1193.4 1562.98 1193.4 1556.3 L1193.4 1536.95 L1189.1 1536.95 L1189.1 1532.4 L1193.4 1532.4 L1193.4 1522.27 L1199.28 1522.27 Z" fill="#000000" fill-rule="evenodd" fill-opacity="1" /><path clip-path="url(#clip250)" d="M1239.23 1518.52 L1252.72 1518.52 L1252.72 1523.07 L1245.09 1523.07 L1245.09 1572.09 L1252.72 1572.09 L1252.72 1576.64 L1239.23 1576.64 L1239.23 1518.52 Z" fill="#000000" fill-rule="evenodd" fill-opacity="1" /><path clip-path="url(#clip250)" d="M1287.93 1533.45 L1287.93 1538.98 Q1285.44 1537.71 1282.77 1537.07 Q1280.1 1536.44 1277.23 1536.44 Q1272.87 1536.44 1270.68 1537.77 Q1268.51 1539.11 1268.51 1541.79 Q1268.51 1543.82 1270.07 1545 Q1271.63 1546.15 1276.34 1547.2 L1278.35 1547.64 Q1284.58 1548.98 1287.19 1551.43 Q1289.84 1553.85 1289.84 1558.21 Q1289.84 1563.17 1285.89 1566.07 Q1281.97 1568.97 1275.1 1568.97 Q1272.23 1568.97 1269.12 1568.39 Q1266.03 1567.85 1262.59 1566.74 L1262.59 1560.69 Q1265.84 1562.38 1268.99 1563.24 Q1272.14 1564.07 1275.23 1564.07 Q1279.36 1564.07 1281.59 1562.66 Q1283.82 1561.23 1283.82 1558.65 Q1283.82 1556.27 1282.2 1554.99 Q1280.61 1553.72 1275.16 1552.54 L1273.13 1552.07 Q1267.68 1550.92 1265.26 1548.56 Q1262.85 1546.18 1262.85 1542.04 Q1262.85 1537.01 1266.41 1534.27 Q1269.98 1531.54 1276.53 1531.54 Q1279.78 1531.54 1282.64 1532.01 Q1285.51 1532.49 1287.93 1533.45 Z" fill="#000000" fill-rule="evenodd" fill-opacity="1" /><path clip-path="url(#clip250)" d="M1312.85 1518.52 L1312.85 1576.64 L1299.35 1576.64 L1299.35 1572.09 L1306.96 1572.09 L1306.96 1523.07 L1299.35 1523.07 L1299.35 1518.52 L1312.85 1518.52 Z" fill="#000000" fill-rule="evenodd" fill-opacity="1" /><polyline clip-path="url(#clip252)" style="stroke:#000000; stroke-linecap:butt; stroke-linejoin:round; stroke-width:2; stroke-opacity:0.1; fill:none" points="
  149.191,1194.85 2352.76,1194.85 
  "/>
<polyline clip-path="url(#clip252)" style="stroke:#000000; stroke-linecap:butt; stroke-linejoin:round; stroke-width:2; stroke-opacity:0.1; fill:none" points="
  149.191,853.724 2352.76,853.724 
  "/>
<polyline clip-path="url(#clip252)" style="stroke:#000000; stroke-linecap:butt; stroke-linejoin:round; stroke-width:2; stroke-opacity:0.1; fill:none" points="
  149.191,512.596 2352.76,512.596 
  "/>
<polyline clip-path="url(#clip252)" style="stroke:#000000; stroke-linecap:butt; stroke-linejoin:round; stroke-width:2; stroke-opacity:0.1; fill:none" points="
  149.191,171.468 2352.76,171.468 
  "/>
<polyline clip-path="url(#clip250)" style="stroke:#000000; stroke-linecap:butt; stroke-linejoin:round; stroke-width:4; stroke-opacity:1; fill:none" points="
  149.191,1423.18 149.191,47.2441 
  "/>
<polyline clip-path="url(#clip250)" style="stroke:#000000; stroke-linecap:butt; stroke-linejoin:round; stroke-width:4; stroke-opacity:1; fill:none" points="
  149.191,1194.85 168.089,1194.85 
  "/>
<polyline clip-path="url(#clip250)" style="stroke:#000000; stroke-linecap:butt; stroke-linejoin:round; stroke-width:4; stroke-opacity:1; fill:none" points="
  149.191,853.724 168.089,853.724 
  "/>
<polyline clip-path="url(#clip250)" style="stroke:#000000; stroke-linecap:butt; stroke-linejoin:round; stroke-width:4; stroke-opacity:1; fill:none" points="
  149.191,512.596 168.089,512.596 
  "/>
<polyline clip-path="url(#clip250)" style="stroke:#000000; stroke-linecap:butt; stroke-linejoin:round; stroke-width:4; stroke-opacity:1; fill:none" points="
  149.191,171.468 168.089,171.468 
  "/>
<path clip-path="url(#clip250)" d="M51.3162 1195.3 L80.992 1195.3 L80.992 1199.24 L51.3162 1199.24 L51.3162 1195.3 Z" fill="#000000" fill-rule="evenodd" fill-opacity="1" /><path clip-path="url(#clip250)" d="M101.663 1192.99 Q98.515 1192.99 96.6632 1195.14 Q94.8345 1197.29 94.8345 1201.04 Q94.8345 1204.77 96.6632 1206.95 Q98.515 1209.1 101.663 1209.1 Q104.811 1209.1 106.64 1206.95 Q108.492 1204.77 108.492 1201.04 Q108.492 1197.29 106.64 1195.14 Q104.811 1192.99 101.663 1192.99 M110.946 1178.34 L110.946 1182.6 Q109.186 1181.76 107.381 1181.32 Q105.598 1180.88 103.839 1180.88 Q99.2095 1180.88 96.7558 1184.01 Q94.3252 1187.13 93.978 1193.45 Q95.3437 1191.44 97.4039 1190.37 Q99.4641 1189.29 101.941 1189.29 Q107.149 1189.29 110.158 1192.46 Q113.191 1195.61 113.191 1201.04 Q113.191 1206.37 110.043 1209.59 Q106.895 1212.8 101.663 1212.8 Q95.6678 1212.8 92.4965 1208.22 Q89.3253 1203.61 89.3253 1194.89 Q89.3253 1186.69 93.2141 1181.83 Q97.103 1176.95 103.654 1176.95 Q105.413 1176.95 107.196 1177.29 Q109.001 1177.64 110.946 1178.34 Z" fill="#000000" fill-rule="evenodd" fill-opacity="1" /><path clip-path="url(#clip250)" d="M50.9921 854.176 L80.6679 854.176 L80.6679 858.111 L50.9921 858.111 L50.9921 854.176 Z" fill="#000000" fill-rule="evenodd" fill-opacity="1" /><path clip-path="url(#clip250)" d="M103.608 840.518 L91.8021 858.967 L103.608 858.967 L103.608 840.518 M102.381 836.444 L108.26 836.444 L108.26 858.967 L113.191 858.967 L113.191 862.856 L108.26 862.856 L108.26 871.004 L103.608 871.004 L103.608 862.856 L88.0058 862.856 L88.0058 858.342 L102.381 836.444 Z" fill="#000000" fill-rule="evenodd" fill-opacity="1" /><path clip-path="url(#clip250)" d="M53.0754 513.047 L82.7512 513.047 L82.7512 516.983 L53.0754 516.983 L53.0754 513.047 Z" fill="#000000" fill-rule="evenodd" fill-opacity="1" /><path clip-path="url(#clip250)" d="M96.8715 525.941 L113.191 525.941 L113.191 529.876 L91.2465 529.876 L91.2465 525.941 Q93.9086 523.186 98.4919 518.557 Q103.098 513.904 104.279 512.561 Q106.524 510.038 107.404 508.302 Q108.307 506.543 108.307 504.853 Q108.307 502.098 106.362 500.362 Q104.441 498.626 101.339 498.626 Q99.14 498.626 96.6863 499.39 Q94.2558 500.154 91.478 501.705 L91.478 496.983 Q94.3021 495.848 96.7558 495.27 Q99.2095 494.691 101.246 494.691 Q106.617 494.691 109.811 497.376 Q113.006 500.061 113.006 504.552 Q113.006 506.682 112.196 508.603 Q111.408 510.501 109.302 513.094 Q108.723 513.765 105.621 516.983 Q102.52 520.177 96.8715 525.941 Z" fill="#000000" fill-rule="evenodd" fill-opacity="1" /><path clip-path="url(#clip250)" d="M101.246 157.266 Q97.6354 157.266 95.8067 160.831 Q94.0012 164.373 94.0012 171.502 Q94.0012 178.609 95.8067 182.174 Q97.6354 185.715 101.246 185.715 Q104.881 185.715 106.686 182.174 Q108.515 178.609 108.515 171.502 Q108.515 164.373 106.686 160.831 Q104.881 157.266 101.246 157.266 M101.246 153.563 Q107.057 153.563 110.112 158.169 Q113.191 162.753 113.191 171.502 Q113.191 180.229 110.112 184.836 Q107.057 189.419 101.246 189.419 Q95.4363 189.419 92.3576 184.836 Q89.3021 180.229 89.3021 171.502 Q89.3021 162.753 92.3576 158.169 Q95.4363 153.563 101.246 153.563 Z" fill="#000000" fill-rule="evenodd" fill-opacity="1" /><polyline clip-path="url(#clip252)" style="stroke:#009af9; stroke-linecap:butt; stroke-linejoin:round; stroke-width:4; stroke-opacity:1; fill:none" points="
  211.556,86.1857 216.753,89.2423 221.95,92.3212 227.147,95.4212 232.344,98.5406 237.541,101.678 242.738,104.833 247.936,108.003 253.133,111.189 258.33,114.387 
  263.527,117.598 268.724,120.82 273.921,124.053 279.118,127.296 284.315,130.547 289.512,133.806 294.709,137.072 299.906,140.345 305.103,143.624 310.301,146.908 
  315.498,150.197 320.695,153.49 325.892,156.787 331.089,160.087 336.286,163.39 341.483,166.695 346.68,170.003 351.877,173.312 357.074,176.623 362.271,179.936 
  367.469,183.249 372.666,186.563 377.863,189.877 383.06,193.192 388.257,196.508 393.454,199.823 398.651,203.138 403.848,206.453 409.045,209.767 414.242,213.082 
  419.439,216.395 424.636,219.708 429.834,223.02 435.031,226.332 440.228,229.643 445.425,232.952 450.622,236.261 455.819,239.569 461.016,242.875 466.213,246.181 
  471.41,249.486 476.607,252.789 481.804,256.092 487.002,259.393 492.199,262.693 497.396,265.992 502.593,269.29 507.79,272.587 512.987,275.883 518.184,279.177 
  523.381,282.47 528.578,285.763 533.775,289.054 538.972,292.344 544.17,295.632 549.367,298.92 554.564,302.207 559.761,305.492 564.958,308.777 570.155,312.06 
  575.352,315.342 580.549,318.624 585.746,321.904 590.943,325.183 596.14,328.461 601.337,331.739 606.535,335.015 611.732,338.291 616.929,341.565 622.126,344.839 
  627.323,348.111 632.52,351.383 637.717,354.654 642.914,357.924 648.111,361.193 653.308,364.462 658.505,367.73 663.703,370.996 668.9,374.263 674.097,377.528 
  679.294,380.793 684.491,384.056 689.688,387.32 694.885,390.582 700.082,393.844 705.279,397.105 710.476,400.366 715.673,403.626 720.87,406.885 726.068,410.143 
  731.265,413.401 736.462,416.659 741.659,419.916 746.856,423.172 752.053,426.428 757.25,429.683 762.447,432.938 767.644,436.192 772.841,439.446 778.038,442.699 
  783.236,445.952 788.433,449.204 793.63,452.456 798.827,455.707 804.024,458.958 809.221,462.209 814.418,465.459 819.615,468.709 824.812,471.958 830.009,475.207 
  835.206,478.455 840.403,481.703 845.601,484.951 850.798,488.199 855.995,491.446 861.192,494.693 866.389,497.939 871.586,501.185 876.783,504.431 881.98,507.676 
  887.177,510.922 892.374,514.166 897.571,517.411 902.769,520.655 907.966,523.899 913.163,527.143 918.36,530.387 923.557,533.63 928.754,536.873 933.951,540.116 
  939.148,543.358 944.345,546.6 949.542,549.842 954.739,553.084 959.936,556.326 965.134,559.567 970.331,562.808 975.528,566.049 980.725,569.29 985.922,572.53 
  991.119,575.771 996.316,579.011 1001.51,582.251 1006.71,585.491 1011.91,588.73 1017.1,591.97 1022.3,595.209 1027.5,598.448 1032.7,601.687 1037.89,604.926 
  1043.09,608.165 1048.29,611.403 1053.48,614.642 1058.68,617.88 1063.88,621.118 1069.08,624.356 1074.27,627.594 1079.47,630.832 1084.67,634.07 1089.86,637.307 
  1095.06,640.545 1100.26,643.782 1105.45,647.019 1110.65,650.256 1115.85,653.493 1121.05,656.73 1126.24,659.967 1131.44,663.203 1136.64,666.44 1141.83,669.676 
  1147.03,672.913 1152.23,676.149 1157.43,679.385 1162.62,682.622 1167.82,685.858 1173.02,689.094 1178.21,692.33 1183.41,695.565 1188.61,698.801 1193.81,702.037 
  1199,705.272 1204.2,708.508 1209.4,711.743 1214.59,714.979 1219.79,718.214 1224.99,721.449 1230.19,724.684 1235.38,727.92 1240.58,731.155 1245.78,734.39 
  1250.97,737.625 1256.17,740.859 1261.37,744.094 1266.56,747.329 1271.76,750.564 1276.96,753.799 1282.16,757.033 1287.35,760.268 1292.55,763.502 1297.75,766.737 
  1302.94,769.971 1308.14,773.206 1313.34,776.44 1318.54,779.674 1323.73,782.909 1328.93,786.143 1334.13,789.377 1339.32,792.611 1344.52,795.845 1349.72,799.079 
  1354.92,802.314 1360.11,805.548 1365.31,808.782 1370.51,812.015 1375.7,815.249 1380.9,818.483 1386.1,821.717 1391.29,824.951 1396.49,828.185 1401.69,831.418 
  1406.89,834.652 1412.08,837.886 1417.28,841.12 1422.48,844.353 1427.67,847.587 1432.87,850.82 1438.07,854.054 1443.27,857.287 1448.46,860.521 1453.66,863.754 
  1458.86,866.988 1464.05,870.221 1469.25,873.455 1474.45,876.688 1479.65,879.922 1484.84,883.155 1490.04,886.388 1495.24,889.622 1500.43,892.855 1505.63,896.088 
  1510.83,899.322 1516.02,902.555 1521.22,905.788 1526.42,909.021 1531.62,912.255 1536.81,915.488 1542.01,918.721 1547.21,921.954 1552.4,925.187 1557.6,928.42 
  1562.8,931.654 1568,934.887 1573.19,938.12 1578.39,941.353 1583.59,944.586 1588.78,947.819 1593.98,951.052 1599.18,954.285 1604.38,957.518 1609.57,960.751 
  1614.77,963.984 1619.97,967.217 1625.16,970.45 1630.36,973.683 1635.56,976.916 1640.75,980.149 1645.95,983.382 1651.15,986.615 1656.35,989.848 1661.54,993.081 
  1666.74,996.314 1671.94,999.547 1677.13,1002.78 1682.33,1006.01 1687.53,1009.25 1692.73,1012.48 1697.92,1015.71 1703.12,1018.94 1708.32,1022.18 1713.51,1025.41 
  1718.71,1028.64 1723.91,1031.88 1729.11,1035.11 1734.3,1038.34 1739.5,1041.57 1744.7,1044.81 1749.89,1048.04 1755.09,1051.27 1760.29,1054.51 1765.49,1057.74 
  1770.68,1060.97 1775.88,1064.2 1781.08,1067.44 1786.27,1070.67 1791.47,1073.9 1796.67,1077.14 1801.86,1080.37 1807.06,1083.6 1812.26,1086.83 1817.46,1090.07 
  1822.65,1093.3 1827.85,1096.53 1833.05,1099.76 1838.24,1103 1843.44,1106.23 1848.64,1109.46 1853.84,1112.7 1859.03,1115.93 1864.23,1119.16 1869.43,1122.39 
  1874.62,1125.63 1879.82,1128.86 1885.02,1132.09 1890.22,1135.32 1895.41,1138.56 1900.61,1141.79 1905.81,1145.02 1911,1148.26 1916.2,1151.49 1921.4,1154.72 
  1926.59,1157.95 1931.79,1161.19 1936.99,1164.42 1942.19,1167.65 1947.38,1170.88 1952.58,1174.12 1957.78,1177.35 1962.97,1180.58 1968.17,1183.82 1973.37,1187.05 
  1978.57,1190.28 1983.76,1193.51 1988.96,1196.75 1994.16,1199.98 1999.35,1203.21 2004.55,1206.44 2009.75,1209.68 2014.95,1212.91 2020.14,1216.14 2025.34,1219.37 
  2030.54,1222.61 2035.73,1225.84 2040.93,1229.07 2046.13,1232.3 2051.32,1235.54 2056.52,1238.77 2061.72,1242 2066.92,1245.24 2072.11,1248.47 2077.31,1251.7 
  2082.51,1254.93 2087.7,1258.17 2092.9,1261.4 2098.1,1264.63 2103.3,1267.86 2108.49,1271.1 2113.69,1274.33 2118.89,1277.56 2124.08,1280.79 2129.28,1284.03 
  2134.48,1287.26 2139.68,1290.49 2144.87,1293.72 2150.07,1296.96 2155.27,1300.19 2160.46,1303.42 2165.66,1306.66 2170.86,1309.89 2176.05,1313.12 2181.25,1316.35 
  2186.45,1319.59 2191.65,1322.82 2196.84,1326.05 2202.04,1329.28 2207.24,1332.52 2212.43,1335.75 2217.63,1338.98 2222.83,1342.21 2228.03,1345.45 2233.22,1348.68 
  2238.42,1351.91 2243.62,1355.14 2248.81,1358.38 2254.01,1361.61 2259.21,1364.84 2264.41,1368.08 2269.6,1371.31 2274.8,1374.54 2280,1377.77 2285.19,1381.01 
  2290.39,1384.24 
  "/>
<polyline clip-path="url(#clip252)" style="stroke:#e26f46; stroke-linecap:butt; stroke-linejoin:round; stroke-width:4; stroke-opacity:1; fill:none" points="
  211.556,171.468 216.753,173.367 221.95,175.26 227.147,177.146 232.344,179.026 237.541,180.901 242.738,182.771 247.936,184.636 253.133,186.498 258.33,188.356 
  263.527,190.211 268.724,192.064 273.921,193.914 279.118,195.764 284.315,197.612 289.512,199.459 294.709,201.305 299.906,203.152 305.103,204.998 310.301,206.845 
  315.498,208.692 320.695,210.541 325.892,212.39 331.089,214.24 336.286,216.092 341.483,217.946 346.68,219.801 351.877,221.658 357.074,223.518 362.271,225.379 
  367.469,227.242 372.666,229.108 377.863,230.975 383.06,232.846 388.257,234.718 393.454,236.593 398.651,238.471 403.848,240.351 409.045,242.233 414.242,244.118 
  419.439,246.006 424.636,247.896 429.834,249.789 435.031,251.684 440.228,253.582 445.425,255.483 450.622,257.386 455.819,259.291 461.016,261.199 466.213,263.109 
  471.41,265.022 476.607,266.937 481.804,268.855 487.002,270.775 492.199,272.697 497.396,274.621 502.593,276.548 507.79,278.477 512.987,280.408 518.184,282.342 
  523.381,284.277 528.578,286.215 533.775,288.154 538.972,290.096 544.17,292.04 549.367,293.985 554.564,295.933 559.761,297.882 564.958,299.833 570.155,301.786 
  575.352,303.741 580.549,305.698 585.746,307.656 590.943,309.616 596.14,311.578 601.337,313.541 606.535,315.506 611.732,317.472 616.929,319.44 622.126,321.409 
  627.323,323.38 632.52,325.352 637.717,327.326 642.914,329.301 648.111,331.277 653.308,333.254 658.505,335.233 663.703,337.213 668.9,339.195 674.097,341.177 
  679.294,343.161 684.491,345.146 689.688,347.132 694.885,349.119 700.082,351.107 705.279,353.096 710.476,355.087 715.673,357.078 720.87,359.07 726.068,361.063 
  731.265,363.057 736.462,365.052 741.659,367.048 746.856,369.045 752.053,371.043 757.25,373.041 762.447,375.04 767.644,377.04 772.841,379.041 778.038,381.043 
  783.236,383.045 788.433,385.048 793.63,387.052 798.827,389.057 804.024,391.062 809.221,393.068 814.418,395.074 819.615,397.081 824.812,399.089 830.009,401.097 
  835.206,403.106 840.403,405.116 845.601,407.126 850.798,409.136 855.995,411.147 861.192,413.159 866.389,415.171 871.586,417.184 876.783,419.197 881.98,421.211 
  887.177,423.225 892.374,425.239 897.571,427.254 902.769,429.27 907.966,431.285 913.163,433.302 918.36,435.318 923.557,437.335 928.754,439.353 933.951,441.371 
  939.148,443.389 944.345,445.408 949.542,447.427 954.739,449.446 959.936,451.466 965.134,453.485 970.331,455.506 975.528,457.526 980.725,459.547 985.922,461.569 
  991.119,463.59 996.316,465.612 1001.51,467.634 1006.71,469.656 1011.91,471.679 1017.1,473.702 1022.3,475.725 1027.5,477.748 1032.7,479.772 1037.89,481.796 
  1043.09,483.82 1048.29,485.844 1053.48,487.869 1058.68,489.894 1063.88,491.918 1069.08,493.944 1074.27,495.969 1079.47,497.994 1084.67,500.02 1089.86,502.046 
  1095.06,504.072 1100.26,506.098 1105.45,508.125 1110.65,510.151 1115.85,512.178 1121.05,514.205 1126.24,516.232 1131.44,518.259 1136.64,520.287 1141.83,522.314 
  1147.03,524.342 1152.23,526.369 1157.43,528.397 1162.62,530.425 1167.82,532.453 1173.02,534.482 1178.21,536.51 1183.41,538.539 1188.61,540.567 1193.81,542.596 
  1199,544.625 1204.2,546.654 1209.4,548.683 1214.59,550.712 1219.79,552.741 1224.99,554.771 1230.19,556.8 1235.38,558.83 1240.58,560.86 1245.78,562.889 
  1250.97,564.919 1256.17,566.949 1261.37,568.979 1266.56,571.009 1271.76,573.039 1276.96,575.07 1282.16,577.1 1287.35,579.13 1292.55,581.161 1297.75,583.191 
  1302.94,585.222 1308.14,587.253 1313.34,589.284 1318.54,591.314 1323.73,593.345 1328.93,595.376 1334.13,597.407 1339.32,599.438 1344.52,601.469 1349.72,603.501 
  1354.92,605.532 1360.11,607.563 1365.31,609.594 1370.51,611.626 1375.7,613.657 1380.9,615.689 1386.1,617.72 1391.29,619.752 1396.49,621.784 1401.69,623.815 
  1406.89,625.847 1412.08,627.879 1417.28,629.911 1422.48,631.943 1427.67,633.974 1432.87,636.006 1438.07,638.038 1443.27,640.07 1448.46,642.103 1453.66,644.135 
  1458.86,646.167 1464.05,648.199 1469.25,650.231 1474.45,652.263 1479.65,654.296 1484.84,656.328 1490.04,658.36 1495.24,660.392 1500.43,662.425 1505.63,664.457 
  1510.83,666.49 1516.02,668.522 1521.22,670.555 1526.42,672.587 1531.62,674.62 1536.81,676.652 1542.01,678.685 1547.21,680.717 1552.4,682.75 1557.6,684.783 
  1562.8,686.815 1568,688.848 1573.19,690.881 1578.39,692.913 1583.59,694.946 1588.78,696.979 1593.98,699.011 1599.18,701.044 1604.38,703.077 1609.57,705.11 
  1614.77,707.143 1619.97,709.175 1625.16,711.208 1630.36,713.241 1635.56,715.274 1640.75,717.307 1645.95,719.34 1651.15,721.373 1656.35,723.406 1661.54,725.439 
  1666.74,727.471 1671.94,729.504 1677.13,731.537 1682.33,733.57 1687.53,735.603 1692.73,737.636 1697.92,739.669 1703.12,741.702 1708.32,743.735 1713.51,745.769 
  1718.71,747.802 1723.91,749.835 1729.11,751.868 1734.3,753.901 1739.5,755.934 1744.7,757.967 1749.89,760 1755.09,762.033 1760.29,764.067 1765.49,766.1 
  1770.68,768.133 1775.88,770.166 1781.08,772.199 1786.27,774.232 1791.47,776.266 1796.67,778.299 1801.86,780.332 1807.06,782.365 1812.26,784.398 1817.46,786.432 
  1822.65,788.465 1827.85,790.498 1833.05,792.531 1838.24,794.565 1843.44,796.598 1848.64,798.631 1853.84,800.664 1859.03,802.698 1864.23,804.731 1869.43,806.764 
  1874.62,808.797 1879.82,810.831 1885.02,812.864 1890.22,814.897 1895.41,816.931 1900.61,818.964 1905.81,820.997 1911,823.031 1916.2,825.064 1921.4,827.097 
  1926.59,829.131 1931.79,831.164 1936.99,833.197 1942.19,835.231 1947.38,837.264 1952.58,839.297 1957.78,841.331 1962.97,843.364 1968.17,845.397 1973.37,847.431 
  1978.57,849.464 1983.76,851.497 1988.96,853.531 1994.16,855.564 1999.35,857.598 2004.55,859.631 2009.75,861.664 2014.95,863.698 2020.14,865.731 2025.34,867.764 
  2030.54,869.798 2035.73,871.831 2040.93,873.865 2046.13,875.898 2051.32,877.931 2056.52,879.965 2061.72,881.998 2066.92,884.032 2072.11,886.065 2077.31,888.098 
  2082.51,890.132 2087.7,892.165 2092.9,894.199 2098.1,896.232 2103.3,898.266 2108.49,900.299 2113.69,902.332 2118.89,904.366 2124.08,906.399 2129.28,908.433 
  2134.48,910.466 2139.68,912.5 2144.87,914.533 2150.07,916.566 2155.27,918.6 2160.46,920.633 2165.66,922.667 2170.86,924.7 2176.05,926.734 2181.25,928.767 
  2186.45,930.8 2191.65,932.834 2196.84,934.867 2202.04,936.901 2207.24,938.934 2212.43,940.968 2217.63,943.001 2222.83,945.035 2228.03,947.068 2233.22,949.101 
  2238.42,951.135 2243.62,953.168 2248.81,955.202 2254.01,957.235 2259.21,959.269 2264.41,961.302 2269.6,963.336 2274.8,965.369 2280,967.403 2285.19,969.436 
  2290.39,971.469 
  "/>
<path clip-path="url(#clip250)" d="
M1581.73 248.629 L2279.3 248.629 L2279.3 93.1086 L1581.73 93.1086  Z
  " fill="#ffffff" fill-rule="evenodd" fill-opacity="1"/>
<polyline clip-path="url(#clip250)" style="stroke:#000000; stroke-linecap:butt; stroke-linejoin:round; stroke-width:4; stroke-opacity:1; fill:none" points="
  1581.73,248.629 2279.3,248.629 2279.3,93.1086 1581.73,93.1086 1581.73,248.629 
  "/>
<polyline clip-path="url(#clip250)" style="stroke:#009af9; stroke-linecap:butt; stroke-linejoin:round; stroke-width:4; stroke-opacity:1; fill:none" points="
  1606.22,144.949 1753.12,144.949 
  "/>
<path clip-path="url(#clip250)" d="M1797.95 141.28 Q1799.55 138.409 1801.77 137.044 Q1804 135.678 1807 135.678 Q1811.06 135.678 1813.25 138.525 Q1815.45 141.349 1815.45 146.581 L1815.45 162.229 L1811.17 162.229 L1811.17 146.719 Q1811.17 142.993 1809.85 141.187 Q1808.53 139.382 1805.82 139.382 Q1802.51 139.382 1800.59 141.581 Q1798.67 143.78 1798.67 147.576 L1798.67 162.229 L1794.39 162.229 L1794.39 146.719 Q1794.39 142.969 1793.07 141.187 Q1791.75 139.382 1789 139.382 Q1785.73 139.382 1783.81 141.604 Q1781.89 143.803 1781.89 147.576 L1781.89 162.229 L1777.61 162.229 L1777.61 136.303 L1781.89 136.303 L1781.89 140.331 Q1783.35 137.946 1785.38 136.812 Q1787.42 135.678 1790.22 135.678 Q1793.05 135.678 1795.01 137.113 Q1797 138.548 1797.95 141.28 Z" fill="#000000" fill-rule="evenodd" fill-opacity="1" /><path clip-path="url(#clip250)" d="M1835.73 149.196 Q1830.57 149.196 1828.58 150.377 Q1826.59 151.557 1826.59 154.405 Q1826.59 156.673 1828.07 158.016 Q1829.57 159.335 1832.14 159.335 Q1835.68 159.335 1837.81 156.835 Q1839.97 154.312 1839.97 150.145 L1839.97 149.196 L1835.73 149.196 M1844.23 147.437 L1844.23 162.229 L1839.97 162.229 L1839.97 158.293 Q1838.51 160.655 1836.33 161.789 Q1834.16 162.9 1831.01 162.9 Q1827.03 162.9 1824.67 160.678 Q1822.33 158.432 1822.33 154.682 Q1822.33 150.307 1825.25 148.085 Q1828.19 145.863 1834 145.863 L1839.97 145.863 L1839.97 145.446 Q1839.97 142.507 1838.02 140.909 Q1836.1 139.289 1832.61 139.289 Q1830.38 139.289 1828.28 139.821 Q1826.17 140.354 1824.23 141.419 L1824.23 137.483 Q1826.56 136.581 1828.76 136.141 Q1830.96 135.678 1833.05 135.678 Q1838.67 135.678 1841.45 138.594 Q1844.23 141.511 1844.23 147.437 Z" fill="#000000" fill-rule="evenodd" fill-opacity="1" /><path clip-path="url(#clip250)" d="M1869.53 137.067 L1869.53 141.094 Q1867.72 140.169 1865.78 139.706 Q1863.83 139.243 1861.75 139.243 Q1858.58 139.243 1856.98 140.215 Q1855.41 141.187 1855.41 143.131 Q1855.41 144.613 1856.54 145.469 Q1857.68 146.303 1861.1 147.067 L1862.56 147.391 Q1867.1 148.363 1868.99 150.145 Q1870.92 151.905 1870.92 155.076 Q1870.92 158.687 1868.05 160.793 Q1865.2 162.9 1860.2 162.9 Q1858.12 162.9 1855.85 162.483 Q1853.6 162.09 1851.1 161.28 L1851.1 156.881 Q1853.46 158.108 1855.75 158.733 Q1858.05 159.335 1860.29 159.335 Q1863.3 159.335 1864.92 158.317 Q1866.54 157.275 1866.54 155.4 Q1866.54 153.664 1865.36 152.738 Q1864.2 151.812 1860.25 150.956 L1858.76 150.608 Q1854.81 149.775 1853.05 148.062 Q1851.29 146.326 1851.29 143.317 Q1851.29 139.659 1853.88 137.669 Q1856.47 135.678 1861.24 135.678 Q1863.6 135.678 1865.68 136.025 Q1867.77 136.372 1869.53 137.067 Z" fill="#000000" fill-rule="evenodd" fill-opacity="1" /><path clip-path="url(#clip250)" d="M1894.23 137.067 L1894.23 141.094 Q1892.42 140.169 1890.48 139.706 Q1888.53 139.243 1886.45 139.243 Q1883.28 139.243 1881.68 140.215 Q1880.11 141.187 1880.11 143.131 Q1880.11 144.613 1881.24 145.469 Q1882.37 146.303 1885.8 147.067 L1887.26 147.391 Q1891.8 148.363 1893.69 150.145 Q1895.62 151.905 1895.62 155.076 Q1895.62 158.687 1892.74 160.793 Q1889.9 162.9 1884.9 162.9 Q1882.81 162.9 1880.55 162.483 Q1878.3 162.09 1875.8 161.28 L1875.8 156.881 Q1878.16 158.108 1880.45 158.733 Q1882.74 159.335 1884.99 159.335 Q1888 159.335 1889.62 158.317 Q1891.24 157.275 1891.24 155.4 Q1891.24 153.664 1890.06 152.738 Q1888.9 151.812 1884.94 150.956 L1883.46 150.608 Q1879.5 149.775 1877.74 148.062 Q1875.99 146.326 1875.99 143.317 Q1875.99 139.659 1878.58 137.669 Q1881.17 135.678 1885.94 135.678 Q1888.3 135.678 1890.38 136.025 Q1892.47 136.372 1894.23 137.067 Z" fill="#000000" fill-rule="evenodd" fill-opacity="1" /><path clip-path="url(#clip250)" d="M1903 156.349 L1907.88 156.349 L1907.88 162.229 L1903 162.229 L1903 156.349 Z" fill="#000000" fill-rule="evenodd" fill-opacity="1" /><path clip-path="url(#clip250)" d="M1933.99 137.067 L1933.99 141.094 Q1932.19 140.169 1930.24 139.706 Q1928.3 139.243 1926.22 139.243 Q1923.05 139.243 1921.45 140.215 Q1919.87 141.187 1919.87 143.131 Q1919.87 144.613 1921.01 145.469 Q1922.14 146.303 1925.57 147.067 L1927.03 147.391 Q1931.56 148.363 1933.46 150.145 Q1935.38 151.905 1935.38 155.076 Q1935.38 158.687 1932.51 160.793 Q1929.67 162.9 1924.67 162.9 Q1922.58 162.9 1920.31 162.483 Q1918.07 162.09 1915.57 161.28 L1915.57 156.881 Q1917.93 158.108 1920.22 158.733 Q1922.51 159.335 1924.76 159.335 Q1927.77 159.335 1929.39 158.317 Q1931.01 157.275 1931.01 155.4 Q1931.01 153.664 1929.83 152.738 Q1928.67 151.812 1924.71 150.956 L1923.23 150.608 Q1919.27 149.775 1917.51 148.062 Q1915.75 146.326 1915.75 143.317 Q1915.75 139.659 1918.35 137.669 Q1920.94 135.678 1925.71 135.678 Q1928.07 135.678 1930.15 136.025 Q1932.24 136.372 1933.99 137.067 Z" fill="#000000" fill-rule="evenodd" fill-opacity="1" /><path clip-path="url(#clip250)" d="M1967.47 126.257 Q1964.36 131.581 1962.86 136.789 Q1961.36 141.997 1961.36 147.344 Q1961.36 152.692 1962.86 157.946 Q1964.39 163.178 1967.47 168.479 L1963.76 168.479 Q1960.29 163.039 1958.55 157.784 Q1956.84 152.53 1956.84 147.344 Q1956.84 142.182 1958.55 136.951 Q1960.27 131.72 1963.76 126.257 L1967.47 126.257 Z" fill="#000000" fill-rule="evenodd" fill-opacity="1" /><path clip-path="url(#clip250)" d="M1990.5 143.594 Q1993.86 144.312 1995.73 146.581 Q1997.63 148.849 1997.63 152.182 Q1997.63 157.298 1994.11 160.099 Q1990.59 162.9 1984.11 162.9 Q1981.93 162.9 1979.62 162.46 Q1977.33 162.043 1974.87 161.187 L1974.87 156.673 Q1976.82 157.807 1979.13 158.386 Q1981.45 158.965 1983.97 158.965 Q1988.37 158.965 1990.66 157.229 Q1992.98 155.493 1992.98 152.182 Q1992.98 149.127 1990.82 147.414 Q1988.69 145.678 1984.87 145.678 L1980.85 145.678 L1980.85 141.835 L1985.06 141.835 Q1988.51 141.835 1990.34 140.469 Q1992.17 139.081 1992.17 136.488 Q1992.17 133.826 1990.27 132.414 Q1988.39 130.979 1984.87 130.979 Q1982.95 130.979 1980.75 131.395 Q1978.55 131.812 1975.92 132.692 L1975.92 128.525 Q1978.58 127.784 1980.89 127.414 Q1983.23 127.044 1985.29 127.044 Q1990.61 127.044 1993.72 129.474 Q1996.82 131.882 1996.82 136.002 Q1996.82 138.872 1995.17 140.863 Q1993.53 142.831 1990.5 143.594 Z" fill="#000000" fill-rule="evenodd" fill-opacity="1" /><path clip-path="url(#clip250)" d="M2020.66 143.594 Q2024.02 144.312 2025.89 146.581 Q2027.79 148.849 2027.79 152.182 Q2027.79 157.298 2024.27 160.099 Q2020.75 162.9 2014.27 162.9 Q2012.1 162.9 2009.78 162.46 Q2007.49 162.043 2005.04 161.187 L2005.04 156.673 Q2006.98 157.807 2009.3 158.386 Q2011.61 158.965 2014.13 158.965 Q2018.53 158.965 2020.82 157.229 Q2023.14 155.493 2023.14 152.182 Q2023.14 149.127 2020.98 147.414 Q2018.86 145.678 2015.04 145.678 L2011.01 145.678 L2011.01 141.835 L2015.22 141.835 Q2018.67 141.835 2020.5 140.469 Q2022.33 139.081 2022.33 136.488 Q2022.33 133.826 2020.43 132.414 Q2018.55 130.979 2015.04 130.979 Q2013.11 130.979 2010.92 131.395 Q2008.72 131.812 2006.08 132.692 L2006.08 128.525 Q2008.74 127.784 2011.05 127.414 Q2013.39 127.044 2015.45 127.044 Q2020.78 127.044 2023.88 129.474 Q2026.98 131.882 2026.98 136.002 Q2026.98 138.872 2025.34 140.863 Q2023.69 142.831 2020.66 143.594 Z" fill="#000000" fill-rule="evenodd" fill-opacity="1" /><path clip-path="url(#clip250)" d="M2036.7 127.669 L2055.06 127.669 L2055.06 131.604 L2040.98 131.604 L2040.98 140.076 Q2042 139.729 2043.02 139.567 Q2044.04 139.382 2045.06 139.382 Q2050.85 139.382 2054.23 142.553 Q2057.61 145.724 2057.61 151.141 Q2057.61 156.719 2054.13 159.821 Q2050.66 162.9 2044.34 162.9 Q2042.17 162.9 2039.9 162.53 Q2037.65 162.159 2035.24 161.418 L2035.24 156.719 Q2037.33 157.854 2039.55 158.409 Q2041.77 158.965 2044.25 158.965 Q2048.25 158.965 2050.59 156.858 Q2052.93 154.752 2052.93 151.141 Q2052.93 147.53 2050.59 145.423 Q2048.25 143.317 2044.25 143.317 Q2042.37 143.317 2040.5 143.733 Q2038.65 144.15 2036.7 145.03 L2036.7 127.669 Z" fill="#000000" fill-rule="evenodd" fill-opacity="1" /><path clip-path="url(#clip250)" d="M2066.86 127.669 L2085.22 127.669 L2085.22 131.604 L2071.15 131.604 L2071.15 140.076 Q2072.17 139.729 2073.18 139.567 Q2074.2 139.382 2075.22 139.382 Q2081.01 139.382 2084.39 142.553 Q2087.77 145.724 2087.77 151.141 Q2087.77 156.719 2084.29 159.821 Q2080.82 162.9 2074.5 162.9 Q2072.33 162.9 2070.06 162.53 Q2067.81 162.159 2065.41 161.418 L2065.41 156.719 Q2067.49 157.854 2069.71 158.409 Q2071.93 158.965 2074.41 158.965 Q2078.42 158.965 2080.75 156.858 Q2083.09 154.752 2083.09 151.141 Q2083.09 147.53 2080.75 145.423 Q2078.42 143.317 2074.41 143.317 Q2072.54 143.317 2070.66 143.733 Q2068.81 144.15 2066.86 145.03 L2066.86 127.669 Z" fill="#000000" fill-rule="evenodd" fill-opacity="1" /><path clip-path="url(#clip250)" d="M2109.83 131.743 L2098.02 150.192 L2109.83 150.192 L2109.83 131.743 M2108.6 127.669 L2114.48 127.669 L2114.48 150.192 L2119.41 150.192 L2119.41 154.081 L2114.48 154.081 L2114.48 162.229 L2109.83 162.229 L2109.83 154.081 L2094.23 154.081 L2094.23 149.567 L2108.6 127.669 Z" fill="#000000" fill-rule="evenodd" fill-opacity="1" /><path clip-path="url(#clip250)" d="M2139.99 131.743 L2128.18 150.192 L2139.99 150.192 L2139.99 131.743 M2138.76 127.669 L2144.64 127.669 L2144.64 150.192 L2149.57 150.192 L2149.57 154.081 L2144.64 154.081 L2144.64 162.229 L2139.99 162.229 L2139.99 154.081 L2124.39 154.081 L2124.39 149.567 L2138.76 127.669 Z" fill="#000000" fill-rule="evenodd" fill-opacity="1" /><path clip-path="url(#clip250)" d="M2171.47 143.594 Q2174.83 144.312 2176.7 146.581 Q2178.6 148.849 2178.6 152.182 Q2178.6 157.298 2175.08 160.099 Q2171.56 162.9 2165.08 162.9 Q2162.91 162.9 2160.59 162.46 Q2158.3 162.043 2155.85 161.187 L2155.85 156.673 Q2157.79 157.807 2160.1 158.386 Q2162.42 158.965 2164.94 158.965 Q2169.34 158.965 2171.63 157.229 Q2173.95 155.493 2173.95 152.182 Q2173.95 149.127 2171.79 147.414 Q2169.66 145.678 2165.85 145.678 L2161.82 145.678 L2161.82 141.835 L2166.03 141.835 Q2169.48 141.835 2171.31 140.469 Q2173.14 139.081 2173.14 136.488 Q2173.14 133.826 2171.24 132.414 Q2169.36 130.979 2165.85 130.979 Q2163.92 130.979 2161.72 131.395 Q2159.53 131.812 2156.89 132.692 L2156.89 128.525 Q2159.55 127.784 2161.86 127.414 Q2164.2 127.044 2166.26 127.044 Q2171.59 127.044 2174.69 129.474 Q2177.79 131.882 2177.79 136.002 Q2177.79 138.872 2176.15 140.863 Q2174.5 142.831 2171.47 143.594 Z" fill="#000000" fill-rule="evenodd" fill-opacity="1" /><path clip-path="url(#clip250)" d="M2191.49 158.293 L2207.81 158.293 L2207.81 162.229 L2185.87 162.229 L2185.87 158.293 Q2188.53 155.539 2193.11 150.909 Q2197.72 146.256 2198.9 144.914 Q2201.15 142.391 2202.03 140.655 Q2202.93 138.895 2202.93 137.206 Q2202.93 134.451 2200.98 132.715 Q2199.06 130.979 2195.96 130.979 Q2193.76 130.979 2191.31 131.743 Q2188.88 132.507 2186.1 134.057 L2186.1 129.335 Q2188.92 128.201 2191.38 127.622 Q2193.83 127.044 2195.87 127.044 Q2201.24 127.044 2204.43 129.729 Q2207.63 132.414 2207.63 136.905 Q2207.63 139.034 2206.82 140.956 Q2206.03 142.854 2203.92 145.446 Q2203.35 146.118 2200.24 149.335 Q2197.14 152.53 2191.49 158.293 Z" fill="#000000" fill-rule="evenodd" fill-opacity="1" /><path clip-path="url(#clip250)" d="M2216.35 126.257 L2220.06 126.257 Q2223.53 131.72 2225.24 136.951 Q2226.98 142.182 2226.98 147.344 Q2226.98 152.53 2225.24 157.784 Q2223.53 163.039 2220.06 168.479 L2216.35 168.479 Q2219.43 163.178 2220.94 157.946 Q2222.47 152.692 2222.47 147.344 Q2222.47 141.997 2220.94 136.789 Q2219.43 131.581 2216.35 126.257 Z" fill="#000000" fill-rule="evenodd" fill-opacity="1" /><polyline clip-path="url(#clip250)" style="stroke:#e26f46; stroke-linecap:butt; stroke-linejoin:round; stroke-width:4; stroke-opacity:1; fill:none" points="
  1606.22,196.789 1753.12,196.789 
  "/>
<path clip-path="url(#clip250)" d="M1797.95 193.12 Q1799.55 190.249 1801.77 188.884 Q1804 187.518 1807 187.518 Q1811.06 187.518 1813.25 190.365 Q1815.45 193.189 1815.45 198.421 L1815.45 214.069 L1811.17 214.069 L1811.17 198.559 Q1811.17 194.833 1809.85 193.027 Q1808.53 191.222 1805.82 191.222 Q1802.51 191.222 1800.59 193.421 Q1798.67 195.62 1798.67 199.416 L1798.67 214.069 L1794.39 214.069 L1794.39 198.559 Q1794.39 194.809 1793.07 193.027 Q1791.75 191.222 1789 191.222 Q1785.73 191.222 1783.81 193.444 Q1781.89 195.643 1781.89 199.416 L1781.89 214.069 L1777.61 214.069 L1777.61 188.143 L1781.89 188.143 L1781.89 192.171 Q1783.35 189.786 1785.38 188.652 Q1787.42 187.518 1790.22 187.518 Q1793.05 187.518 1795.01 188.953 Q1797 190.388 1797.95 193.12 Z" fill="#000000" fill-rule="evenodd" fill-opacity="1" /><path clip-path="url(#clip250)" d="M1835.73 201.036 Q1830.57 201.036 1828.58 202.217 Q1826.59 203.397 1826.59 206.245 Q1826.59 208.513 1828.07 209.856 Q1829.57 211.175 1832.14 211.175 Q1835.68 211.175 1837.81 208.675 Q1839.97 206.152 1839.97 201.985 L1839.97 201.036 L1835.73 201.036 M1844.23 199.277 L1844.23 214.069 L1839.97 214.069 L1839.97 210.133 Q1838.51 212.495 1836.33 213.629 Q1834.16 214.74 1831.01 214.74 Q1827.03 214.74 1824.67 212.518 Q1822.33 210.272 1822.33 206.522 Q1822.33 202.147 1825.25 199.925 Q1828.19 197.703 1834 197.703 L1839.97 197.703 L1839.97 197.286 Q1839.97 194.347 1838.02 192.749 Q1836.1 191.129 1832.61 191.129 Q1830.38 191.129 1828.28 191.661 Q1826.17 192.194 1824.23 193.259 L1824.23 189.323 Q1826.56 188.421 1828.76 187.981 Q1830.96 187.518 1833.05 187.518 Q1838.67 187.518 1841.45 190.434 Q1844.23 193.351 1844.23 199.277 Z" fill="#000000" fill-rule="evenodd" fill-opacity="1" /><path clip-path="url(#clip250)" d="M1869.53 188.907 L1869.53 192.934 Q1867.72 192.009 1865.78 191.546 Q1863.83 191.083 1861.75 191.083 Q1858.58 191.083 1856.98 192.055 Q1855.41 193.027 1855.41 194.971 Q1855.41 196.453 1856.54 197.309 Q1857.68 198.143 1861.1 198.907 L1862.56 199.231 Q1867.1 200.203 1868.99 201.985 Q1870.92 203.745 1870.92 206.916 Q1870.92 210.527 1868.05 212.633 Q1865.2 214.74 1860.2 214.74 Q1858.12 214.74 1855.85 214.323 Q1853.6 213.93 1851.1 213.12 L1851.1 208.721 Q1853.46 209.948 1855.75 210.573 Q1858.05 211.175 1860.29 211.175 Q1863.3 211.175 1864.92 210.157 Q1866.54 209.115 1866.54 207.24 Q1866.54 205.504 1865.36 204.578 Q1864.2 203.652 1860.25 202.796 L1858.76 202.448 Q1854.81 201.615 1853.05 199.902 Q1851.29 198.166 1851.29 195.157 Q1851.29 191.499 1853.88 189.509 Q1856.47 187.518 1861.24 187.518 Q1863.6 187.518 1865.68 187.865 Q1867.77 188.212 1869.53 188.907 Z" fill="#000000" fill-rule="evenodd" fill-opacity="1" /><path clip-path="url(#clip250)" d="M1894.23 188.907 L1894.23 192.934 Q1892.42 192.009 1890.48 191.546 Q1888.53 191.083 1886.45 191.083 Q1883.28 191.083 1881.68 192.055 Q1880.11 193.027 1880.11 194.971 Q1880.11 196.453 1881.24 197.309 Q1882.37 198.143 1885.8 198.907 L1887.26 199.231 Q1891.8 200.203 1893.69 201.985 Q1895.62 203.745 1895.62 206.916 Q1895.62 210.527 1892.74 212.633 Q1889.9 214.74 1884.9 214.74 Q1882.81 214.74 1880.55 214.323 Q1878.3 213.93 1875.8 213.12 L1875.8 208.721 Q1878.16 209.948 1880.45 210.573 Q1882.74 211.175 1884.99 211.175 Q1888 211.175 1889.62 210.157 Q1891.24 209.115 1891.24 207.24 Q1891.24 205.504 1890.06 204.578 Q1888.9 203.652 1884.94 202.796 L1883.46 202.448 Q1879.5 201.615 1877.74 199.902 Q1875.99 198.166 1875.99 195.157 Q1875.99 191.499 1878.58 189.509 Q1881.17 187.518 1885.94 187.518 Q1888.3 187.518 1890.38 187.865 Q1892.47 188.212 1894.23 188.907 Z" fill="#000000" fill-rule="evenodd" fill-opacity="1" /><path clip-path="url(#clip250)" d="M1903 208.189 L1907.88 208.189 L1907.88 214.069 L1903 214.069 L1903 208.189 Z" fill="#000000" fill-rule="evenodd" fill-opacity="1" /><path clip-path="url(#clip250)" d="M1914.41 188.143 L1918.93 188.143 L1927.03 209.902 L1935.13 188.143 L1939.64 188.143 L1929.92 214.069 L1924.13 214.069 L1914.41 188.143 Z" fill="#000000" fill-rule="evenodd" fill-opacity="1" /><path clip-path="url(#clip250)" d="M1970.82 178.097 Q1967.72 183.421 1966.22 188.629 Q1964.71 193.837 1964.71 199.184 Q1964.71 204.532 1966.22 209.786 Q1967.74 215.018 1970.82 220.319 L1967.12 220.319 Q1963.65 214.879 1961.91 209.624 Q1960.2 204.37 1960.2 199.184 Q1960.2 194.022 1961.91 188.791 Q1963.62 183.56 1967.12 178.097 L1970.82 178.097 Z" fill="#000000" fill-rule="evenodd" fill-opacity="1" /><path clip-path="url(#clip250)" d="M1993.86 195.434 Q1997.21 196.152 1999.09 198.421 Q2000.99 200.689 2000.99 204.022 Q2000.99 209.138 1997.47 211.939 Q1993.95 214.74 1987.47 214.74 Q1985.29 214.74 1982.98 214.3 Q1980.68 213.883 1978.23 213.027 L1978.23 208.513 Q1980.17 209.647 1982.49 210.226 Q1984.8 210.805 1987.33 210.805 Q1991.73 210.805 1994.02 209.069 Q1996.33 207.333 1996.33 204.022 Q1996.33 200.967 1994.18 199.254 Q1992.05 197.518 1988.23 197.518 L1984.2 197.518 L1984.2 193.675 L1988.42 193.675 Q1991.86 193.675 1993.69 192.309 Q1995.52 190.921 1995.52 188.328 Q1995.52 185.666 1993.62 184.254 Q1991.75 182.819 1988.23 182.819 Q1986.31 182.819 1984.11 183.235 Q1981.91 183.652 1979.27 184.532 L1979.27 180.365 Q1981.93 179.624 1984.25 179.254 Q1986.59 178.884 1988.65 178.884 Q1993.97 178.884 1997.07 181.314 Q2000.17 183.722 2000.17 187.842 Q2000.17 190.712 1998.53 192.703 Q1996.89 194.671 1993.86 195.434 Z" fill="#000000" fill-rule="evenodd" fill-opacity="1" /><path clip-path="url(#clip250)" d="M2024.02 195.434 Q2027.37 196.152 2029.25 198.421 Q2031.15 200.689 2031.15 204.022 Q2031.15 209.138 2027.63 211.939 Q2024.11 214.74 2017.63 214.74 Q2015.45 214.74 2013.14 214.3 Q2010.85 213.883 2008.39 213.027 L2008.39 208.513 Q2010.34 209.647 2012.65 210.226 Q2014.97 210.805 2017.49 210.805 Q2021.89 210.805 2024.18 209.069 Q2026.49 207.333 2026.49 204.022 Q2026.49 200.967 2024.34 199.254 Q2022.21 197.518 2018.39 197.518 L2014.36 197.518 L2014.36 193.675 L2018.58 193.675 Q2022.03 193.675 2023.86 192.309 Q2025.68 190.921 2025.68 188.328 Q2025.68 185.666 2023.79 184.254 Q2021.91 182.819 2018.39 182.819 Q2016.47 182.819 2014.27 183.235 Q2012.07 183.652 2009.43 184.532 L2009.43 180.365 Q2012.1 179.624 2014.41 179.254 Q2016.75 178.884 2018.81 178.884 Q2024.13 178.884 2027.23 181.314 Q2030.34 183.722 2030.34 187.842 Q2030.34 190.712 2028.69 192.703 Q2027.05 194.671 2024.02 195.434 Z" fill="#000000" fill-rule="evenodd" fill-opacity="1" /><path clip-path="url(#clip250)" d="M2040.06 179.509 L2058.42 179.509 L2058.42 183.444 L2044.34 183.444 L2044.34 191.916 Q2045.36 191.569 2046.38 191.407 Q2047.4 191.222 2048.42 191.222 Q2054.2 191.222 2057.58 194.393 Q2060.96 197.564 2060.96 202.981 Q2060.96 208.559 2057.49 211.661 Q2054.02 214.74 2047.7 214.74 Q2045.52 214.74 2043.25 214.37 Q2041.01 213.999 2038.6 213.258 L2038.6 208.559 Q2040.68 209.694 2042.91 210.249 Q2045.13 210.805 2047.61 210.805 Q2051.61 210.805 2053.95 208.698 Q2056.29 206.592 2056.29 202.981 Q2056.29 199.37 2053.95 197.263 Q2051.61 195.157 2047.61 195.157 Q2045.73 195.157 2043.86 195.573 Q2042 195.99 2040.06 196.87 L2040.06 179.509 Z" fill="#000000" fill-rule="evenodd" fill-opacity="1" /><path clip-path="url(#clip250)" d="M2070.22 179.509 L2088.58 179.509 L2088.58 183.444 L2074.5 183.444 L2074.5 191.916 Q2075.52 191.569 2076.54 191.407 Q2077.56 191.222 2078.58 191.222 Q2084.36 191.222 2087.74 194.393 Q2091.12 197.564 2091.12 202.981 Q2091.12 208.559 2087.65 211.661 Q2084.18 214.74 2077.86 214.74 Q2075.68 214.74 2073.42 214.37 Q2071.17 213.999 2068.76 213.258 L2068.76 208.559 Q2070.85 209.694 2073.07 210.249 Q2075.29 210.805 2077.77 210.805 Q2081.77 210.805 2084.11 208.698 Q2086.45 206.592 2086.45 202.981 Q2086.45 199.37 2084.11 197.263 Q2081.77 195.157 2077.77 195.157 Q2075.89 195.157 2074.02 195.573 Q2072.17 195.99 2070.22 196.87 L2070.22 179.509 Z" fill="#000000" fill-rule="evenodd" fill-opacity="1" /><path clip-path="url(#clip250)" d="M2113.18 183.583 L2101.38 202.032 L2113.18 202.032 L2113.18 183.583 M2111.96 179.509 L2117.84 179.509 L2117.84 202.032 L2122.77 202.032 L2122.77 205.921 L2117.84 205.921 L2117.84 214.069 L2113.18 214.069 L2113.18 205.921 L2097.58 205.921 L2097.58 201.407 L2111.96 179.509 Z" fill="#000000" fill-rule="evenodd" fill-opacity="1" /><path clip-path="url(#clip250)" d="M2143.35 183.583 L2131.54 202.032 L2143.35 202.032 L2143.35 183.583 M2142.12 179.509 L2148 179.509 L2148 202.032 L2152.93 202.032 L2152.93 205.921 L2148 205.921 L2148 214.069 L2143.35 214.069 L2143.35 205.921 L2127.74 205.921 L2127.74 201.407 L2142.12 179.509 Z" fill="#000000" fill-rule="evenodd" fill-opacity="1" /><path clip-path="url(#clip250)" d="M2174.83 195.434 Q2178.18 196.152 2180.06 198.421 Q2181.96 200.689 2181.96 204.022 Q2181.96 209.138 2178.44 211.939 Q2174.92 214.74 2168.44 214.74 Q2166.26 214.74 2163.95 214.3 Q2161.66 213.883 2159.2 213.027 L2159.2 208.513 Q2161.15 209.647 2163.46 210.226 Q2165.78 210.805 2168.3 210.805 Q2172.7 210.805 2174.99 209.069 Q2177.3 207.333 2177.3 204.022 Q2177.3 200.967 2175.15 199.254 Q2173.02 197.518 2169.2 197.518 L2165.17 197.518 L2165.17 193.675 L2169.39 193.675 Q2172.84 193.675 2174.66 192.309 Q2176.49 190.921 2176.49 188.328 Q2176.49 185.666 2174.6 184.254 Q2172.72 182.819 2169.2 182.819 Q2167.28 182.819 2165.08 183.235 Q2162.88 183.652 2160.24 184.532 L2160.24 180.365 Q2162.91 179.624 2165.22 179.254 Q2167.56 178.884 2169.62 178.884 Q2174.94 178.884 2178.04 181.314 Q2181.15 183.722 2181.15 187.842 Q2181.15 190.712 2179.5 192.703 Q2177.86 194.671 2174.83 195.434 Z" fill="#000000" fill-rule="evenodd" fill-opacity="1" /><path clip-path="url(#clip250)" d="M2204.99 195.434 Q2208.35 196.152 2210.22 198.421 Q2212.12 200.689 2212.12 204.022 Q2212.12 209.138 2208.6 211.939 Q2205.08 214.74 2198.6 214.74 Q2196.42 214.74 2194.11 214.3 Q2191.82 213.883 2189.36 213.027 L2189.36 208.513 Q2191.31 209.647 2193.62 210.226 Q2195.94 210.805 2198.46 210.805 Q2202.86 210.805 2205.15 209.069 Q2207.47 207.333 2207.47 204.022 Q2207.47 200.967 2205.31 199.254 Q2203.18 197.518 2199.36 197.518 L2195.34 197.518 L2195.34 193.675 L2199.55 193.675 Q2203 193.675 2204.83 192.309 Q2206.66 190.921 2206.66 188.328 Q2206.66 185.666 2204.76 184.254 Q2202.88 182.819 2199.36 182.819 Q2197.44 182.819 2195.24 183.235 Q2193.04 183.652 2190.41 184.532 L2190.41 180.365 Q2193.07 179.624 2195.38 179.254 Q2197.72 178.884 2199.78 178.884 Q2205.1 178.884 2208.21 181.314 Q2211.31 183.722 2211.31 187.842 Q2211.31 190.712 2209.66 192.703 Q2208.02 194.671 2204.99 195.434 Z" fill="#000000" fill-rule="evenodd" fill-opacity="1" /><path clip-path="url(#clip250)" d="M2219.71 178.097 L2223.41 178.097 Q2226.89 183.56 2228.6 188.791 Q2230.34 194.022 2230.34 199.184 Q2230.34 204.37 2228.6 209.624 Q2226.89 214.879 2223.41 220.319 L2219.71 220.319 Q2222.79 215.018 2224.29 209.786 Q2225.82 204.532 2225.82 199.184 Q2225.82 193.837 2224.29 188.629 Q2222.79 183.421 2219.71 178.097 Z" fill="#000000" fill-rule="evenodd" fill-opacity="1" /></svg>
