<?xml version="1.0" encoding="utf-8"?>
<svg xmlns="http://www.w3.org/2000/svg" xmlns:xlink="http://www.w3.org/1999/xlink" width="600" height="400" viewBox="0 0 2400 1600">
<defs>
  <clipPath id="clip850">
    <rect x="0" y="0" width="2400" height="1600"/>
  </clipPath>
</defs>
<path clip-path="url(#clip850)" d="
M0 1600 L2400 1600 L2400 0 L0 0  Z
  " fill="#ffffff" fill-rule="evenodd" fill-opacity="1"/>
<defs>
  <clipPath id="clip851">
    <rect x="480" y="0" width="1681" height="1600"/>
  </clipPath>
</defs>
<path clip-path="url(#clip850)" d="
M314.996 1401.58 L2352.76 1401.58 L2352.76 123.472 L314.996 123.472  Z
  " fill="#ffffff" fill-rule="evenodd" fill-opacity="1"/>
<defs>
  <clipPath id="clip852">
    <rect x="314" y="123" width="2039" height="1279"/>
  </clipPath>
</defs>
<polyline clip-path="url(#clip852)" style="stroke:#000000; stroke-linecap:butt; stroke-linejoin:round; stroke-width:2; stroke-opacity:0.1; fill:none" points="
  518.772,1401.58 518.772,123.472 
  "/>
<polyline clip-path="url(#clip852)" style="stroke:#000000; stroke-linecap:butt; stroke-linejoin:round; stroke-width:2; stroke-opacity:0.1; fill:none" points="
  926.324,1401.58 926.324,123.472 
  "/>
<polyline clip-path="url(#clip852)" style="stroke:#000000; stroke-linecap:butt; stroke-linejoin:round; stroke-width:2; stroke-opacity:0.1; fill:none" points="
  1333.88,1401.58 1333.88,123.472 
  "/>
<polyline clip-path="url(#clip852)" style="stroke:#000000; stroke-linecap:butt; stroke-linejoin:round; stroke-width:2; stroke-opacity:0.1; fill:none" points="
  1741.43,1401.58 1741.43,123.472 
  "/>
<polyline clip-path="url(#clip852)" style="stroke:#000000; stroke-linecap:butt; stroke-linejoin:round; stroke-width:2; stroke-opacity:0.1; fill:none" points="
  2148.98,1401.58 2148.98,123.472 
  "/>
<polyline clip-path="url(#clip850)" style="stroke:#000000; stroke-linecap:butt; stroke-linejoin:round; stroke-width:4; stroke-opacity:1; fill:none" points="
  314.996,1401.58 2352.76,1401.58 
  "/>
<polyline clip-path="url(#clip850)" style="stroke:#000000; stroke-linecap:butt; stroke-linejoin:round; stroke-width:4; stroke-opacity:1; fill:none" points="
  518.772,1401.58 518.772,1386.24 
  "/>
<polyline clip-path="url(#clip850)" style="stroke:#000000; stroke-linecap:butt; stroke-linejoin:round; stroke-width:4; stroke-opacity:1; fill:none" points="
  926.324,1401.58 926.324,1386.24 
  "/>
<polyline clip-path="url(#clip850)" style="stroke:#000000; stroke-linecap:butt; stroke-linejoin:round; stroke-width:4; stroke-opacity:1; fill:none" points="
  1333.88,1401.58 1333.88,1386.24 
  "/>
<polyline clip-path="url(#clip850)" style="stroke:#000000; stroke-linecap:butt; stroke-linejoin:round; stroke-width:4; stroke-opacity:1; fill:none" points="
  1741.43,1401.58 1741.43,1386.24 
  "/>
<polyline clip-path="url(#clip850)" style="stroke:#000000; stroke-linecap:butt; stroke-linejoin:round; stroke-width:4; stroke-opacity:1; fill:none" points="
  2148.98,1401.58 2148.98,1386.24 
  "/>
<path clip-path="url(#clip850)" d="M438.564 1457.74 L483.078 1457.74 L483.078 1463.65 L438.564 1463.65 L438.564 1457.74 Z" fill="#000000" fill-rule="evenodd" fill-opacity="1" /><path clip-path="url(#clip850)" d="M499.432 1477.09 L510.89 1477.09 L510.89 1437.54 L498.425 1440.04 L498.425 1433.65 L510.821 1431.15 L517.834 1431.15 L517.834 1477.09 L529.293 1477.09 L529.293 1482.99 L499.432 1482.99 L499.432 1477.09 Z" fill="#000000" fill-rule="evenodd" fill-opacity="1" /><path clip-path="url(#clip850)" d="M543.459 1474.17 L550.786 1474.17 L550.786 1482.99 L543.459 1482.99 L543.459 1474.17 Z" fill="#000000" fill-rule="evenodd" fill-opacity="1" /><path clip-path="url(#clip850)" d="M581.063 1435.77 Q575.647 1435.77 572.904 1441.11 Q570.195 1446.43 570.195 1457.12 Q570.195 1467.78 572.904 1473.13 Q575.647 1478.44 581.063 1478.44 Q586.515 1478.44 589.223 1473.13 Q591.966 1467.78 591.966 1457.12 Q591.966 1446.43 589.223 1441.11 Q586.515 1435.77 581.063 1435.77 M581.063 1430.21 Q589.779 1430.21 594.362 1437.12 Q598.98 1443.99 598.98 1457.12 Q598.98 1470.21 594.362 1477.12 Q589.779 1483.99 581.063 1483.99 Q572.348 1483.99 567.73 1477.12 Q563.147 1470.21 563.147 1457.12 Q563.147 1443.99 567.73 1437.12 Q572.348 1430.21 581.063 1430.21 Z" fill="#000000" fill-rule="evenodd" fill-opacity="1" /><path clip-path="url(#clip850)" d="M846.863 1457.74 L891.376 1457.74 L891.376 1463.65 L846.863 1463.65 L846.863 1457.74 Z" fill="#000000" fill-rule="evenodd" fill-opacity="1" /><path clip-path="url(#clip850)" d="M921.515 1435.77 Q916.098 1435.77 913.355 1441.11 Q910.647 1446.43 910.647 1457.12 Q910.647 1467.78 913.355 1473.13 Q916.098 1478.44 921.515 1478.44 Q926.966 1478.44 929.675 1473.13 Q932.418 1467.78 932.418 1457.12 Q932.418 1446.43 929.675 1441.11 Q926.966 1435.77 921.515 1435.77 M921.515 1430.21 Q930.23 1430.21 934.813 1437.12 Q939.432 1443.99 939.432 1457.12 Q939.432 1470.21 934.813 1477.12 Q930.23 1483.99 921.515 1483.99 Q912.8 1483.99 908.182 1477.12 Q903.598 1470.21 903.598 1457.12 Q903.598 1443.99 908.182 1437.12 Q912.8 1430.21 921.515 1430.21 Z" fill="#000000" fill-rule="evenodd" fill-opacity="1" /><path clip-path="url(#clip850)" d="M951.758 1474.17 L959.084 1474.17 L959.084 1482.99 L951.758 1482.99 L951.758 1474.17 Z" fill="#000000" fill-rule="evenodd" fill-opacity="1" /><path clip-path="url(#clip850)" d="M974.431 1431.15 L1001.97 1431.15 L1001.97 1437.05 L980.855 1437.05 L980.855 1449.76 Q982.383 1449.24 983.91 1448.99 Q985.438 1448.72 986.966 1448.72 Q995.646 1448.72 1000.72 1453.47 Q1005.79 1458.23 1005.79 1466.36 Q1005.79 1474.72 1000.58 1479.38 Q995.369 1483.99 985.89 1483.99 Q982.626 1483.99 979.223 1483.44 Q975.855 1482.88 972.244 1481.77 L972.244 1474.72 Q975.369 1476.43 978.702 1477.26 Q982.035 1478.09 985.751 1478.09 Q991.758 1478.09 995.265 1474.93 Q998.771 1471.77 998.771 1466.36 Q998.771 1460.94 995.265 1457.78 Q991.758 1454.62 985.751 1454.62 Q982.938 1454.62 980.126 1455.24 Q977.348 1455.87 974.431 1457.19 L974.431 1431.15 Z" fill="#000000" fill-rule="evenodd" fill-opacity="1" /><path clip-path="url(#clip850)" d="M1299.95 1435.77 Q1294.54 1435.77 1291.79 1441.11 Q1289.08 1446.43 1289.08 1457.12 Q1289.08 1467.78 1291.79 1473.13 Q1294.54 1478.44 1299.95 1478.44 Q1305.4 1478.44 1308.11 1473.13 Q1310.86 1467.78 1310.86 1457.12 Q1310.86 1446.43 1308.11 1441.11 Q1305.4 1435.77 1299.95 1435.77 M1299.95 1430.21 Q1308.67 1430.21 1313.25 1437.12 Q1317.87 1443.99 1317.87 1457.12 Q1317.87 1470.21 1313.25 1477.12 Q1308.67 1483.99 1299.95 1483.99 Q1291.24 1483.99 1286.62 1477.12 Q1282.04 1470.21 1282.04 1457.12 Q1282.04 1443.99 1286.62 1437.12 Q1291.24 1430.21 1299.95 1430.21 Z" fill="#000000" fill-rule="evenodd" fill-opacity="1" /><path clip-path="url(#clip850)" d="M1330.2 1474.17 L1337.52 1474.17 L1337.52 1482.99 L1330.2 1482.99 L1330.2 1474.17 Z" fill="#000000" fill-rule="evenodd" fill-opacity="1" /><path clip-path="url(#clip850)" d="M1367.8 1435.77 Q1362.38 1435.77 1359.64 1441.11 Q1356.93 1446.43 1356.93 1457.12 Q1356.93 1467.78 1359.64 1473.13 Q1362.38 1478.44 1367.8 1478.44 Q1373.25 1478.44 1375.96 1473.13 Q1378.7 1467.78 1378.7 1457.12 Q1378.7 1446.43 1375.96 1441.11 Q1373.25 1435.77 1367.8 1435.77 M1367.8 1430.21 Q1376.51 1430.21 1381.1 1437.12 Q1385.72 1443.99 1385.72 1457.12 Q1385.72 1470.21 1381.1 1477.12 Q1376.51 1483.99 1367.8 1483.99 Q1359.08 1483.99 1354.47 1477.12 Q1349.88 1470.21 1349.88 1457.12 Q1349.88 1443.99 1354.47 1437.12 Q1359.08 1430.21 1367.8 1430.21 Z" fill="#000000" fill-rule="evenodd" fill-opacity="1" /><path clip-path="url(#clip850)" d="M1708.25 1435.77 Q1702.83 1435.77 1700.09 1441.11 Q1697.38 1446.43 1697.38 1457.12 Q1697.38 1467.78 1700.09 1473.13 Q1702.83 1478.44 1708.25 1478.44 Q1713.7 1478.44 1716.41 1473.13 Q1719.15 1467.78 1719.15 1457.12 Q1719.15 1446.43 1716.41 1441.11 Q1713.7 1435.77 1708.25 1435.77 M1708.25 1430.21 Q1716.97 1430.21 1721.55 1437.12 Q1726.17 1443.99 1726.17 1457.12 Q1726.17 1470.21 1721.55 1477.12 Q1716.97 1483.99 1708.25 1483.99 Q1699.54 1483.99 1694.92 1477.12 Q1690.33 1470.21 1690.33 1457.12 Q1690.33 1443.99 1694.92 1437.12 Q1699.54 1430.21 1708.25 1430.21 Z" fill="#000000" fill-rule="evenodd" fill-opacity="1" /><path clip-path="url(#clip850)" d="M1738.49 1474.17 L1745.82 1474.17 L1745.82 1482.99 L1738.49 1482.99 L1738.49 1474.17 Z" fill="#000000" fill-rule="evenodd" fill-opacity="1" /><path clip-path="url(#clip850)" d="M1761.17 1431.15 L1788.7 1431.15 L1788.7 1437.05 L1767.59 1437.05 L1767.59 1449.76 Q1769.12 1449.24 1770.65 1448.99 Q1772.17 1448.72 1773.7 1448.72 Q1782.38 1448.72 1787.45 1453.47 Q1792.52 1458.23 1792.52 1466.36 Q1792.52 1474.72 1787.31 1479.38 Q1782.1 1483.99 1772.63 1483.99 Q1769.36 1483.99 1765.96 1483.44 Q1762.59 1482.88 1758.98 1481.77 L1758.98 1474.72 Q1762.1 1476.43 1765.44 1477.26 Q1768.77 1478.09 1772.49 1478.09 Q1778.49 1478.09 1782 1474.93 Q1785.51 1471.77 1785.51 1466.36 Q1785.51 1460.94 1782 1457.78 Q1778.49 1454.62 1772.49 1454.62 Q1769.67 1454.62 1766.86 1455.24 Q1764.08 1455.87 1761.17 1457.19 L1761.17 1431.15 Z" fill="#000000" fill-rule="evenodd" fill-opacity="1" /><path clip-path="url(#clip850)" d="M2099.71 1477.09 L2111.17 1477.09 L2111.17 1437.54 L2098.7 1440.04 L2098.7 1433.65 L2111.1 1431.15 L2118.11 1431.15 L2118.11 1477.09 L2129.57 1477.09 L2129.57 1482.99 L2099.71 1482.99 L2099.71 1477.09 Z" fill="#000000" fill-rule="evenodd" fill-opacity="1" /><path clip-path="url(#clip850)" d="M2143.74 1474.17 L2151.06 1474.17 L2151.06 1482.99 L2143.74 1482.99 L2143.74 1474.17 Z" fill="#000000" fill-rule="evenodd" fill-opacity="1" /><path clip-path="url(#clip850)" d="M2181.34 1435.77 Q2175.92 1435.77 2173.18 1441.11 Q2170.47 1446.43 2170.47 1457.12 Q2170.47 1467.78 2173.18 1473.13 Q2175.92 1478.44 2181.34 1478.44 Q2186.79 1478.44 2189.5 1473.13 Q2192.24 1467.78 2192.24 1457.12 Q2192.24 1446.43 2189.5 1441.11 Q2186.79 1435.77 2181.34 1435.77 M2181.34 1430.21 Q2190.06 1430.21 2194.64 1437.12 Q2199.26 1443.99 2199.26 1457.12 Q2199.26 1470.21 2194.64 1477.12 Q2190.06 1483.99 2181.34 1483.99 Q2172.63 1483.99 2168.01 1477.12 Q2163.42 1470.21 2163.42 1457.12 Q2163.42 1443.99 2168.01 1437.12 Q2172.63 1430.21 2181.34 1430.21 Z" fill="#000000" fill-rule="evenodd" fill-opacity="1" /><path clip-path="url(#clip850)" d="M1212.77 1538.66 L1219.54 1538.66 L1231.69 1571.3 L1243.84 1538.66 L1250.61 1538.66 L1236.03 1577.55 L1227.35 1577.55 L1212.77 1538.66 Z" fill="#000000" fill-rule="evenodd" fill-opacity="1" /><path clip-path="url(#clip850)" d="M1281.45 1523.52 L1296.17 1523.52 L1296.17 1528.49 L1287.83 1528.49 L1287.83 1581.96 L1296.17 1581.96 L1296.17 1586.92 L1281.45 1586.92 L1281.45 1523.52 Z" fill="#000000" fill-rule="evenodd" fill-opacity="1" /><path clip-path="url(#clip850)" d="M1340.06 1546.12 Q1342.45 1541.82 1345.79 1539.77 Q1349.12 1537.72 1353.63 1537.72 Q1359.71 1537.72 1363.01 1541.99 Q1366.31 1546.23 1366.31 1554.08 L1366.31 1577.55 L1359.88 1577.55 L1359.88 1554.28 Q1359.88 1548.69 1357.9 1545.99 Q1355.92 1543.28 1351.86 1543.28 Q1346.9 1543.28 1344.01 1546.58 Q1341.13 1549.87 1341.13 1555.57 L1341.13 1577.55 L1334.71 1577.55 L1334.71 1554.28 Q1334.71 1548.66 1332.73 1545.99 Q1330.75 1543.28 1326.62 1543.28 Q1321.72 1543.28 1318.84 1546.61 Q1315.96 1549.91 1315.96 1555.57 L1315.96 1577.55 L1309.54 1577.55 L1309.54 1538.66 L1315.96 1538.66 L1315.96 1544.7 Q1318.15 1541.12 1321.2 1539.42 Q1324.26 1537.72 1328.46 1537.72 Q1332.7 1537.72 1335.65 1539.87 Q1338.63 1542.03 1340.06 1546.12 Z" fill="#000000" fill-rule="evenodd" fill-opacity="1" /><path clip-path="url(#clip850)" d="M1390.4 1525.71 L1396.31 1525.71 L1378.25 1584.15 L1372.35 1584.15 L1390.4 1525.71 Z" fill="#000000" fill-rule="evenodd" fill-opacity="1" /><path clip-path="url(#clip850)" d="M1427.8 1539.8 L1427.8 1545.85 Q1425.09 1544.46 1422.17 1543.76 Q1419.26 1543.07 1416.13 1543.07 Q1411.38 1543.07 1408.98 1544.53 Q1406.62 1545.99 1406.62 1548.9 Q1406.62 1551.12 1408.32 1552.41 Q1410.02 1553.66 1415.16 1554.8 L1417.35 1555.29 Q1424.15 1556.75 1427 1559.42 Q1429.88 1562.06 1429.88 1566.82 Q1429.88 1572.24 1425.58 1575.4 Q1421.31 1578.55 1413.81 1578.55 Q1410.68 1578.55 1407.28 1577.93 Q1403.91 1577.34 1400.16 1576.12 L1400.16 1569.53 Q1403.7 1571.37 1407.14 1572.3 Q1410.58 1573.21 1413.94 1573.21 Q1418.46 1573.21 1420.89 1571.68 Q1423.32 1570.12 1423.32 1567.3 Q1423.32 1564.7 1421.55 1563.31 Q1419.81 1561.92 1413.88 1560.64 L1411.65 1560.12 Q1405.72 1558.87 1403.08 1556.3 Q1400.44 1553.69 1400.44 1549.18 Q1400.44 1543.69 1404.33 1540.71 Q1408.22 1537.72 1415.37 1537.72 Q1418.91 1537.72 1422.04 1538.24 Q1425.16 1538.76 1427.8 1539.8 Z" fill="#000000" fill-rule="evenodd" fill-opacity="1" /><path clip-path="url(#clip850)" d="M1454.99 1523.52 L1454.99 1586.92 L1440.26 1586.92 L1440.26 1581.96 L1448.56 1581.96 L1448.56 1528.49 L1440.26 1528.49 L1440.26 1523.52 L1454.99 1523.52 Z" fill="#000000" fill-rule="evenodd" fill-opacity="1" /><polyline clip-path="url(#clip852)" style="stroke:#000000; stroke-linecap:butt; stroke-linejoin:round; stroke-width:2; stroke-opacity:0.1; fill:none" points="
  314.996,1371.73 2352.76,1371.73 
  "/>
<polyline clip-path="url(#clip852)" style="stroke:#000000; stroke-linecap:butt; stroke-linejoin:round; stroke-width:2; stroke-opacity:0.1; fill:none" points="
  314.996,1025.42 2352.76,1025.42 
  "/>
<polyline clip-path="url(#clip852)" style="stroke:#000000; stroke-linecap:butt; stroke-linejoin:round; stroke-width:2; stroke-opacity:0.1; fill:none" points="
  314.996,679.111 2352.76,679.111 
  "/>
<polyline clip-path="url(#clip852)" style="stroke:#000000; stroke-linecap:butt; stroke-linejoin:round; stroke-width:2; stroke-opacity:0.1; fill:none" points="
  314.996,332.8 2352.76,332.8 
  "/>
<polyline clip-path="url(#clip850)" style="stroke:#000000; stroke-linecap:butt; stroke-linejoin:round; stroke-width:4; stroke-opacity:1; fill:none" points="
  314.996,1401.58 314.996,123.472 
  "/>
<polyline clip-path="url(#clip850)" style="stroke:#000000; stroke-linecap:butt; stroke-linejoin:round; stroke-width:4; stroke-opacity:1; fill:none" points="
  314.996,1371.73 339.449,1371.73 
  "/>
<polyline clip-path="url(#clip850)" style="stroke:#000000; stroke-linecap:butt; stroke-linejoin:round; stroke-width:4; stroke-opacity:1; fill:none" points="
  314.996,1025.42 339.449,1025.42 
  "/>
<polyline clip-path="url(#clip850)" style="stroke:#000000; stroke-linecap:butt; stroke-linejoin:round; stroke-width:4; stroke-opacity:1; fill:none" points="
  314.996,679.111 339.449,679.111 
  "/>
<polyline clip-path="url(#clip850)" style="stroke:#000000; stroke-linecap:butt; stroke-linejoin:round; stroke-width:4; stroke-opacity:1; fill:none" points="
  314.996,332.8 339.449,332.8 
  "/>
<path clip-path="url(#clip850)" d="M118.58 1372.41 L163.094 1372.41 L163.094 1378.31 L118.58 1378.31 L118.58 1372.41 Z" fill="#000000" fill-rule="evenodd" fill-opacity="1" /><path clip-path="url(#clip850)" d="M179.448 1391.75 L190.906 1391.75 L190.906 1352.2 L178.441 1354.7 L178.441 1348.31 L190.837 1345.81 L197.851 1345.81 L197.851 1391.75 L209.309 1391.75 L209.309 1397.65 L179.448 1397.65 L179.448 1391.75 Z" fill="#000000" fill-rule="evenodd" fill-opacity="1" /><path clip-path="url(#clip850)" d="M223.475 1388.83 L230.802 1388.83 L230.802 1397.65 L223.475 1397.65 L223.475 1388.83 Z" fill="#000000" fill-rule="evenodd" fill-opacity="1" /><path clip-path="url(#clip850)" d="M261.079 1350.43 Q255.663 1350.43 252.92 1355.78 Q250.211 1361.09 250.211 1371.79 Q250.211 1382.44 252.92 1387.79 Q255.663 1393.1 261.079 1393.1 Q266.531 1393.1 269.239 1387.79 Q271.982 1382.44 271.982 1371.79 Q271.982 1361.09 269.239 1355.78 Q266.531 1350.43 261.079 1350.43 M261.079 1344.88 Q269.795 1344.88 274.378 1351.79 Q278.996 1358.66 278.996 1371.79 Q278.996 1384.88 274.378 1391.78 Q269.795 1398.66 261.079 1398.66 Q252.364 1398.66 247.746 1391.78 Q243.163 1384.88 243.163 1371.79 Q243.163 1358.66 247.746 1351.79 Q252.364 1344.88 261.079 1344.88 Z" fill="#000000" fill-rule="evenodd" fill-opacity="1" /><path clip-path="url(#clip850)" d="M120.073 1026.1 L164.587 1026.1 L164.587 1032 L120.073 1032 L120.073 1026.1 Z" fill="#000000" fill-rule="evenodd" fill-opacity="1" /><path clip-path="url(#clip850)" d="M194.726 1004.12 Q189.309 1004.12 186.566 1009.47 Q183.858 1014.78 183.858 1025.47 Q183.858 1036.13 186.566 1041.48 Q189.309 1046.79 194.726 1046.79 Q200.177 1046.79 202.885 1041.48 Q205.628 1036.13 205.628 1025.47 Q205.628 1014.78 202.885 1009.47 Q200.177 1004.12 194.726 1004.12 M194.726 998.565 Q203.441 998.565 208.024 1005.47 Q212.642 1012.35 212.642 1025.47 Q212.642 1038.56 208.024 1045.47 Q203.441 1052.35 194.726 1052.35 Q186.01 1052.35 181.392 1045.47 Q176.809 1038.56 176.809 1025.47 Q176.809 1012.35 181.392 1005.47 Q186.01 998.565 194.726 998.565 Z" fill="#000000" fill-rule="evenodd" fill-opacity="1" /><path clip-path="url(#clip850)" d="M224.968 1042.52 L232.295 1042.52 L232.295 1051.34 L224.968 1051.34 L224.968 1042.52 Z" fill="#000000" fill-rule="evenodd" fill-opacity="1" /><path clip-path="url(#clip850)" d="M247.642 999.502 L275.177 999.502 L275.177 1005.4 L254.066 1005.4 L254.066 1018.11 Q255.593 1017.59 257.121 1017.35 Q258.649 1017.07 260.177 1017.07 Q268.857 1017.07 273.927 1021.83 Q278.996 1026.59 278.996 1034.71 Q278.996 1043.08 273.788 1047.73 Q268.579 1052.35 259.1 1052.35 Q255.836 1052.35 252.434 1051.79 Q249.066 1051.24 245.454 1050.13 L245.454 1043.08 Q248.579 1044.78 251.913 1045.61 Q255.246 1046.45 258.961 1046.45 Q264.968 1046.45 268.475 1043.29 Q271.982 1040.13 271.982 1034.71 Q271.982 1029.29 268.475 1026.13 Q264.968 1022.97 258.961 1022.97 Q256.149 1022.97 253.336 1023.6 Q250.559 1024.22 247.642 1025.54 L247.642 999.502 Z" fill="#000000" fill-rule="evenodd" fill-opacity="1" /><path clip-path="url(#clip850)" d="M193.233 657.809 Q187.816 657.809 185.073 663.156 Q182.365 668.469 182.365 679.163 Q182.365 689.823 185.073 695.17 Q187.816 700.483 193.233 700.483 Q198.684 700.483 201.392 695.17 Q204.135 689.823 204.135 679.163 Q204.135 668.469 201.392 663.156 Q198.684 657.809 193.233 657.809 M193.233 652.254 Q201.948 652.254 206.531 659.163 Q211.149 666.038 211.149 679.163 Q211.149 692.254 206.531 699.163 Q201.948 706.038 193.233 706.038 Q184.517 706.038 179.899 699.163 Q175.316 692.254 175.316 679.163 Q175.316 666.038 179.899 659.163 Q184.517 652.254 193.233 652.254 Z" fill="#000000" fill-rule="evenodd" fill-opacity="1" /><path clip-path="url(#clip850)" d="M223.475 696.212 L230.802 696.212 L230.802 705.031 L223.475 705.031 L223.475 696.212 Z" fill="#000000" fill-rule="evenodd" fill-opacity="1" /><path clip-path="url(#clip850)" d="M261.079 657.809 Q255.663 657.809 252.92 663.156 Q250.211 668.469 250.211 679.163 Q250.211 689.823 252.92 695.17 Q255.663 700.483 261.079 700.483 Q266.531 700.483 269.239 695.17 Q271.982 689.823 271.982 679.163 Q271.982 668.469 269.239 663.156 Q266.531 657.809 261.079 657.809 M261.079 652.254 Q269.795 652.254 274.378 659.163 Q278.996 666.038 278.996 679.163 Q278.996 692.254 274.378 699.163 Q269.795 706.038 261.079 706.038 Q252.364 706.038 247.746 699.163 Q243.163 692.254 243.163 679.163 Q243.163 666.038 247.746 659.163 Q252.364 652.254 261.079 652.254 Z" fill="#000000" fill-rule="evenodd" fill-opacity="1" /><path clip-path="url(#clip850)" d="M194.726 311.498 Q189.309 311.498 186.566 316.846 Q183.858 322.158 183.858 332.852 Q183.858 343.512 186.566 348.859 Q189.309 354.172 194.726 354.172 Q200.177 354.172 202.885 348.859 Q205.628 343.512 205.628 332.852 Q205.628 322.158 202.885 316.846 Q200.177 311.498 194.726 311.498 M194.726 305.943 Q203.441 305.943 208.024 312.853 Q212.642 319.728 212.642 332.852 Q212.642 345.943 208.024 352.852 Q203.441 359.727 194.726 359.727 Q186.01 359.727 181.392 352.852 Q176.809 345.943 176.809 332.852 Q176.809 319.728 181.392 312.853 Q186.01 305.943 194.726 305.943 Z" fill="#000000" fill-rule="evenodd" fill-opacity="1" /><path clip-path="url(#clip850)" d="M224.968 349.901 L232.295 349.901 L232.295 358.72 L224.968 358.72 L224.968 349.901 Z" fill="#000000" fill-rule="evenodd" fill-opacity="1" /><path clip-path="url(#clip850)" d="M247.642 306.88 L275.177 306.88 L275.177 312.783 L254.066 312.783 L254.066 325.491 Q255.593 324.971 257.121 324.728 Q258.649 324.45 260.177 324.45 Q268.857 324.45 273.927 329.207 Q278.996 333.964 278.996 342.089 Q278.996 350.457 273.788 355.109 Q268.579 359.727 259.1 359.727 Q255.836 359.727 252.434 359.172 Q249.066 358.616 245.454 357.505 L245.454 350.457 Q248.579 352.158 251.913 352.991 Q255.246 353.825 258.961 353.825 Q264.968 353.825 268.475 350.665 Q271.982 347.505 271.982 342.089 Q271.982 336.672 268.475 333.512 Q264.968 330.353 258.961 330.353 Q256.149 330.353 253.336 330.978 Q250.559 331.603 247.642 332.922 L247.642 306.88 Z" fill="#000000" fill-rule="evenodd" fill-opacity="1" /><path clip-path="url(#clip850)" d="M13.0007 1025.04 L18.3131 1025.04 L18.3131 1031.15 Q18.3131 1034.59 19.702 1035.94 Q21.0909 1037.26 24.702 1037.26 L28.1395 1037.26 L28.1395 1026.74 L33.1047 1026.74 L33.1047 1037.26 L67.0282 1037.26 L67.0282 1043.69 L33.1047 1043.69 L33.1047 1049.8 L28.1395 1049.8 L28.1395 1043.69 L25.4312 1043.69 Q18.9381 1043.69 15.9868 1040.67 Q13.0007 1037.65 13.0007 1031.08 L13.0007 1025.04 Z" fill="#000000" fill-rule="evenodd" fill-opacity="1" /><path clip-path="url(#clip850)" d="M34.1117 997.16 Q33.4867 998.237 33.2089 999.521 Q32.8964 1000.77 32.8964 1002.3 Q32.8964 1007.72 36.438 1010.63 Q39.945 1013.51 46.5422 1013.51 L67.0282 1013.51 L67.0282 1019.94 L28.1395 1019.94 L28.1395 1013.51 L34.1811 1013.51 Q30.6395 1011.5 28.9381 1008.27 Q27.202 1005.04 27.202 1000.42 Q27.202 999.764 27.3061 998.966 Q27.3756 998.167 27.5492 997.195 L34.1117 997.16 Z" fill="#000000" fill-rule="evenodd" fill-opacity="1" /><path clip-path="url(#clip850)" d="M28.1395 990.459 L28.1395 984.07 L67.0282 984.07 L67.0282 990.459 L28.1395 990.459 M13.0007 990.459 L13.0007 984.07 L21.0909 984.07 L21.0909 990.459 L13.0007 990.459 Z" fill="#000000" fill-rule="evenodd" fill-opacity="1" /><path clip-path="url(#clip850)" d="M29.6325 942.716 L35.6047 942.716 Q34.1117 945.424 33.3825 948.167 Q32.6186 950.876 32.6186 953.653 Q32.6186 959.869 36.5769 963.306 Q40.5005 966.744 47.6185 966.744 Q54.7366 966.744 58.6949 963.306 Q62.6185 959.869 62.6185 953.653 Q62.6185 950.876 61.8893 948.167 Q61.1254 945.424 59.6324 942.716 L65.5351 942.716 Q66.7851 945.39 67.4101 948.272 Q68.0351 951.119 68.0351 954.348 Q68.0351 963.133 62.5143 968.306 Q56.9935 973.48 47.6185 973.48 Q38.1047 973.48 32.6533 968.271 Q27.202 963.028 27.202 953.931 Q27.202 950.98 27.827 948.167 Q28.4173 945.355 29.6325 942.716 Z" fill="#000000" fill-rule="evenodd" fill-opacity="1" /><path clip-path="url(#clip850)" d="M17.0979 925.286 L28.1395 925.286 L28.1395 912.126 L33.1047 912.126 L33.1047 925.286 L54.2157 925.286 Q58.9726 925.286 60.3268 924.001 Q61.681 922.681 61.681 918.688 L61.681 912.126 L67.0282 912.126 L67.0282 918.688 Q67.0282 926.084 64.2851 928.897 Q61.5074 931.709 54.2157 931.709 L33.1047 931.709 L33.1047 936.397 L28.1395 936.397 L28.1395 931.709 L17.0979 931.709 L17.0979 925.286 Z" fill="#000000" fill-rule="evenodd" fill-opacity="1" /><path clip-path="url(#clip850)" d="M28.1395 903.723 L28.1395 897.334 L67.0282 897.334 L67.0282 903.723 L28.1395 903.723 M13.0007 903.723 L13.0007 897.334 L21.0909 897.334 L21.0909 903.723 L13.0007 903.723 Z" fill="#000000" fill-rule="evenodd" fill-opacity="1" /><path clip-path="url(#clip850)" d="M32.6186 868.897 Q32.6186 874.036 36.6464 877.022 Q40.6394 880.008 47.6185 880.008 Q54.5977 880.008 58.6254 877.057 Q62.6185 874.071 62.6185 868.897 Q62.6185 863.793 58.5907 860.807 Q54.5629 857.821 47.6185 857.821 Q40.7089 857.821 36.6811 860.807 Q32.6186 863.793 32.6186 868.897 M27.202 868.897 Q27.202 860.564 32.6186 855.807 Q38.0353 851.05 47.6185 851.05 Q57.1671 851.05 62.6185 855.807 Q68.0351 860.564 68.0351 868.897 Q68.0351 877.265 62.6185 882.022 Q57.1671 886.744 47.6185 886.744 Q38.0353 886.744 32.6186 882.022 Q27.202 877.265 27.202 868.897 Z" fill="#000000" fill-rule="evenodd" fill-opacity="1" /><path clip-path="url(#clip850)" d="M43.5561 808.133 L67.0282 808.133 L67.0282 814.522 L43.7644 814.522 Q38.2436 814.522 35.5005 816.675 Q32.7575 818.828 32.7575 823.133 Q32.7575 828.307 36.0561 831.293 Q39.3547 834.279 45.0491 834.279 L67.0282 834.279 L67.0282 840.703 L28.1395 840.703 L28.1395 834.279 L34.1811 834.279 Q30.6742 831.987 28.9381 828.897 Q27.202 825.772 27.202 821.71 Q27.202 815.008 31.3686 811.571 Q35.5005 808.133 43.5561 808.133 Z" fill="#000000" fill-rule="evenodd" fill-opacity="1" /><path clip-path="url(#clip850)" d="M13.0007 753.099 L18.3131 753.099 L18.3131 759.21 Q18.3131 762.648 19.702 764.002 Q21.0909 765.321 24.702 765.321 L28.1395 765.321 L28.1395 754.8 L33.1047 754.8 L33.1047 765.321 L67.0282 765.321 L67.0282 771.745 L33.1047 771.745 L33.1047 777.856 L28.1395 777.856 L28.1395 771.745 L25.4312 771.745 Q18.9381 771.745 15.9868 768.724 Q13.0007 765.703 13.0007 759.141 L13.0007 753.099 Z" fill="#000000" fill-rule="evenodd" fill-opacity="1" /><path clip-path="url(#clip850)" d="M32.6186 732.682 Q32.6186 737.821 36.6464 740.807 Q40.6394 743.793 47.6185 743.793 Q54.5977 743.793 58.6254 740.842 Q62.6185 737.856 62.6185 732.682 Q62.6185 727.578 58.5907 724.592 Q54.5629 721.606 47.6185 721.606 Q40.7089 721.606 36.6811 724.592 Q32.6186 727.578 32.6186 732.682 M27.202 732.682 Q27.202 724.349 32.6186 719.592 Q38.0353 714.835 47.6185 714.835 Q57.1671 714.835 62.6185 719.592 Q68.0351 724.349 68.0351 732.682 Q68.0351 741.05 62.6185 745.807 Q57.1671 750.53 47.6185 750.53 Q38.0353 750.53 32.6186 745.807 Q27.202 741.05 27.202 732.682 Z" fill="#000000" fill-rule="evenodd" fill-opacity="1" /><path clip-path="url(#clip850)" d="M34.1117 681.71 Q33.4867 682.787 33.2089 684.072 Q32.8964 685.322 32.8964 686.849 Q32.8964 692.266 36.438 695.183 Q39.945 698.065 46.5422 698.065 L67.0282 698.065 L67.0282 704.488 L28.1395 704.488 L28.1395 698.065 L34.1811 698.065 Q30.6395 696.051 28.9381 692.821 Q27.202 689.592 27.202 684.974 Q27.202 684.315 27.3061 683.516 Q27.3756 682.717 27.5492 681.745 L34.1117 681.71 Z" fill="#000000" fill-rule="evenodd" fill-opacity="1" /><path clip-path="url(#clip850)" d="M29.6325 648.586 L35.6047 648.586 Q34.1117 651.294 33.3825 654.037 Q32.6186 656.745 32.6186 659.523 Q32.6186 665.738 36.5769 669.176 Q40.5005 672.613 47.6185 672.613 Q54.7366 672.613 58.6949 669.176 Q62.6185 665.738 62.6185 659.523 Q62.6185 656.745 61.8893 654.037 Q61.1254 651.294 59.6324 648.586 L65.5351 648.586 Q66.7851 651.259 67.4101 654.141 Q68.0351 656.988 68.0351 660.218 Q68.0351 669.002 62.5143 674.176 Q56.9935 679.349 47.6185 679.349 Q38.1047 679.349 32.6533 674.141 Q27.202 668.898 27.202 659.801 Q27.202 656.849 27.827 654.037 Q28.4173 651.224 29.6325 648.586 Z" fill="#000000" fill-rule="evenodd" fill-opacity="1" /><path clip-path="url(#clip850)" d="M45.9866 604.211 L49.1116 604.211 L49.1116 633.586 Q55.7088 633.169 59.181 629.627 Q62.6185 626.051 62.6185 619.697 Q62.6185 616.016 61.7157 612.579 Q60.8129 609.107 59.0074 605.704 L65.049 605.704 Q66.5073 609.141 67.2712 612.752 Q68.0351 616.364 68.0351 620.079 Q68.0351 629.384 62.6185 634.836 Q57.2018 640.252 47.9658 640.252 Q38.4172 640.252 32.827 635.113 Q27.202 629.94 27.202 621.19 Q27.202 613.343 32.2714 608.794 Q37.3061 604.211 45.9866 604.211 M44.1116 610.6 Q38.8686 610.669 35.7436 613.551 Q32.6186 616.398 32.6186 621.12 Q32.6186 626.468 35.6394 629.697 Q38.6603 632.891 44.1463 633.377 L44.1116 610.6 Z" fill="#000000" fill-rule="evenodd" fill-opacity="1" /><path clip-path="url(#clip850)" d="M13.0007 571.711 L13.0007 556.989 L17.9659 556.989 L17.9659 565.322 L71.4379 565.322 L71.4379 556.989 L76.4031 556.989 L76.4031 571.711 L13.0007 571.711 Z" fill="#000000" fill-rule="evenodd" fill-opacity="1" /><path clip-path="url(#clip850)" d="M15.1882 543.1 L15.1882 533.656 L58.556 510.67 L15.1882 510.67 L15.1882 503.864 L67.0282 503.864 L67.0282 513.309 L23.6603 536.295 L67.0282 536.295 L67.0282 543.1 L15.1882 543.1 Z" fill="#000000" fill-rule="evenodd" fill-opacity="1" /><path clip-path="url(#clip850)" d="M13.0007 475.253 L76.4031 475.253 L76.4031 489.975 L71.4379 489.975 L71.4379 481.677 L17.9659 481.677 L17.9659 489.975 L13.0007 489.975 L13.0007 475.253 Z" fill="#000000" fill-rule="evenodd" fill-opacity="1" /><path clip-path="url(#clip850)" d="M1008.16 12.096 L1042.92 12.096 L1042.92 18.9825 L1016.35 18.9825 L1016.35 36.8065 L1040.33 36.8065 L1040.33 43.6931 L1016.35 43.6931 L1016.35 72.576 L1008.16 72.576 L1008.16 12.096 Z" fill="#000000" fill-rule="evenodd" fill-opacity="1" /><path clip-path="url(#clip850)" d="M1075.81 34.1734 Q1074.56 33.4443 1073.06 33.1202 Q1071.6 32.7556 1069.82 32.7556 Q1063.5 32.7556 1060.1 36.8875 Q1056.73 40.9789 1056.73 48.6757 L1056.73 72.576 L1049.24 72.576 L1049.24 27.2059 L1056.73 27.2059 L1056.73 34.2544 Q1059.08 30.1225 1062.85 28.1376 Q1066.62 26.1121 1072.01 26.1121 Q1072.77 26.1121 1073.71 26.2337 Q1074.64 26.3147 1075.77 26.5172 L1075.81 34.1734 Z" fill="#000000" fill-rule="evenodd" fill-opacity="1" /><path clip-path="url(#clip850)" d="M1083.63 27.2059 L1091.08 27.2059 L1091.08 72.576 L1083.63 72.576 L1083.63 27.2059 M1083.63 9.54393 L1091.08 9.54393 L1091.08 18.9825 L1083.63 18.9825 L1083.63 9.54393 Z" fill="#000000" fill-rule="evenodd" fill-opacity="1" /><path clip-path="url(#clip850)" d="M1139.33 28.9478 L1139.33 35.9153 Q1136.17 34.1734 1132.97 33.3227 Q1129.81 32.4315 1126.57 32.4315 Q1119.32 32.4315 1115.31 37.0496 Q1111.3 41.6271 1111.3 49.9314 Q1111.3 58.2358 1115.31 62.8538 Q1119.32 67.4314 1126.57 67.4314 Q1129.81 67.4314 1132.97 66.5807 Q1136.17 65.6895 1139.33 63.9476 L1139.33 70.8341 Q1136.21 72.2924 1132.85 73.0216 Q1129.53 73.7508 1125.76 73.7508 Q1115.51 73.7508 1109.48 67.3098 Q1103.44 60.8689 1103.44 49.9314 Q1103.44 38.832 1109.52 32.472 Q1115.63 26.1121 1126.25 26.1121 Q1129.69 26.1121 1132.97 26.8413 Q1136.25 27.5299 1139.33 28.9478 Z" fill="#000000" fill-rule="evenodd" fill-opacity="1" /><path clip-path="url(#clip850)" d="M1159.67 14.324 L1159.67 27.2059 L1175.02 27.2059 L1175.02 32.9987 L1159.67 32.9987 L1159.67 57.6282 Q1159.67 63.1779 1161.17 64.7578 Q1162.7 66.3376 1167.36 66.3376 L1175.02 66.3376 L1175.02 72.576 L1167.36 72.576 Q1158.74 72.576 1155.45 69.3758 Q1152.17 66.1351 1152.17 57.6282 L1152.17 32.9987 L1146.7 32.9987 L1146.7 27.2059 L1152.17 27.2059 L1152.17 14.324 L1159.67 14.324 Z" fill="#000000" fill-rule="evenodd" fill-opacity="1" /><path clip-path="url(#clip850)" d="M1184.82 27.2059 L1192.28 27.2059 L1192.28 72.576 L1184.82 72.576 L1184.82 27.2059 M1184.82 9.54393 L1192.28 9.54393 L1192.28 18.9825 L1184.82 18.9825 L1184.82 9.54393 Z" fill="#000000" fill-rule="evenodd" fill-opacity="1" /><path clip-path="url(#clip850)" d="M1225.45 32.4315 Q1219.46 32.4315 1215.97 37.1306 Q1212.49 41.7891 1212.49 49.9314 Q1212.49 58.0738 1215.93 62.7728 Q1219.42 67.4314 1225.45 67.4314 Q1231.41 67.4314 1234.89 62.7323 Q1238.38 58.0333 1238.38 49.9314 Q1238.38 41.8701 1234.89 37.1711 Q1231.41 32.4315 1225.45 32.4315 M1225.45 26.1121 Q1235.18 26.1121 1240.73 32.4315 Q1246.28 38.7509 1246.28 49.9314 Q1246.28 61.0714 1240.73 67.4314 Q1235.18 73.7508 1225.45 73.7508 Q1215.69 73.7508 1210.14 67.4314 Q1204.63 61.0714 1204.63 49.9314 Q1204.63 38.7509 1210.14 32.4315 Q1215.69 26.1121 1225.45 26.1121 Z" fill="#000000" fill-rule="evenodd" fill-opacity="1" /><path clip-path="url(#clip850)" d="M1296.34 45.1919 L1296.34 72.576 L1288.89 72.576 L1288.89 45.4349 Q1288.89 38.994 1286.38 35.7938 Q1283.87 32.5936 1278.84 32.5936 Q1272.81 32.5936 1269.32 36.4419 Q1265.84 40.2903 1265.84 46.9338 L1265.84 72.576 L1258.35 72.576 L1258.35 27.2059 L1265.84 27.2059 L1265.84 34.2544 Q1268.51 30.163 1272.12 28.1376 Q1275.77 26.1121 1280.51 26.1121 Q1288.32 26.1121 1292.33 30.9732 Q1296.34 35.7938 1296.34 45.1919 Z" fill="#000000" fill-rule="evenodd" fill-opacity="1" /><path clip-path="url(#clip850)" d="M1372.91 35.9153 Q1375.7 30.8922 1379.59 28.5022 Q1383.48 26.1121 1388.75 26.1121 Q1395.83 26.1121 1399.68 31.0947 Q1403.53 36.0368 1403.53 45.1919 L1403.53 72.576 L1396.04 72.576 L1396.04 45.4349 Q1396.04 38.913 1393.73 35.7533 Q1391.42 32.5936 1386.68 32.5936 Q1380.89 32.5936 1377.52 36.4419 Q1374.16 40.2903 1374.16 46.9338 L1374.16 72.576 L1366.67 72.576 L1366.67 45.4349 Q1366.67 38.8725 1364.36 35.7533 Q1362.05 32.5936 1357.23 32.5936 Q1351.52 32.5936 1348.16 36.4824 Q1344.79 40.3308 1344.79 46.9338 L1344.79 72.576 L1337.3 72.576 L1337.3 27.2059 L1344.79 27.2059 L1344.79 34.2544 Q1347.35 30.082 1350.91 28.0971 Q1354.47 26.1121 1359.38 26.1121 Q1364.32 26.1121 1367.76 28.6237 Q1371.25 31.1352 1372.91 35.9153 Z" fill="#000000" fill-rule="evenodd" fill-opacity="1" /><path clip-path="url(#clip850)" d="M1435.98 32.4315 Q1429.98 32.4315 1426.5 37.1306 Q1423.02 41.7891 1423.02 49.9314 Q1423.02 58.0738 1426.46 62.7728 Q1429.94 67.4314 1435.98 67.4314 Q1441.93 67.4314 1445.42 62.7323 Q1448.9 58.0333 1448.9 49.9314 Q1448.9 41.8701 1445.42 37.1711 Q1441.93 32.4315 1435.98 32.4315 M1435.98 26.1121 Q1445.7 26.1121 1451.25 32.4315 Q1456.8 38.7509 1456.8 49.9314 Q1456.8 61.0714 1451.25 67.4314 Q1445.7 73.7508 1435.98 73.7508 Q1426.22 73.7508 1420.67 67.4314 Q1415.16 61.0714 1415.16 49.9314 Q1415.16 38.7509 1420.67 32.4315 Q1426.22 26.1121 1435.98 26.1121 Z" fill="#000000" fill-rule="evenodd" fill-opacity="1" /><path clip-path="url(#clip850)" d="M1499.01 34.0924 L1499.01 9.54393 L1506.46 9.54393 L1506.46 72.576 L1499.01 72.576 L1499.01 65.7705 Q1496.66 69.8214 1493.06 71.8063 Q1489.49 73.7508 1484.47 73.7508 Q1476.24 73.7508 1471.06 67.1883 Q1465.92 60.6258 1465.92 49.9314 Q1465.92 39.2371 1471.06 32.6746 Q1476.24 26.1121 1484.47 26.1121 Q1489.49 26.1121 1493.06 28.0971 Q1496.66 30.0415 1499.01 34.0924 M1473.61 49.9314 Q1473.61 58.1548 1476.97 62.8538 Q1480.38 67.5124 1486.29 67.5124 Q1492.21 67.5124 1495.61 62.8538 Q1499.01 58.1548 1499.01 49.9314 Q1499.01 41.7081 1495.61 37.0496 Q1492.21 32.3505 1486.29 32.3505 Q1480.38 32.3505 1476.97 37.0496 Q1473.61 41.7081 1473.61 49.9314 Z" fill="#000000" fill-rule="evenodd" fill-opacity="1" /><path clip-path="url(#clip850)" d="M1560.63 48.0275 L1560.63 51.6733 L1526.35 51.6733 Q1526.84 59.3701 1530.97 63.421 Q1535.15 67.4314 1542.56 67.4314 Q1546.85 67.4314 1550.86 66.3781 Q1554.91 65.3249 1558.88 63.2184 L1558.88 70.267 Q1554.87 71.9684 1550.66 72.8596 Q1546.45 73.7508 1542.11 73.7508 Q1531.26 73.7508 1524.9 67.4314 Q1518.58 61.1119 1518.58 50.3365 Q1518.58 39.1965 1524.57 32.6746 Q1530.61 26.1121 1540.82 26.1121 Q1549.97 26.1121 1555.28 32.0264 Q1560.63 37.9003 1560.63 48.0275 M1553.17 45.84 Q1553.09 39.7232 1549.73 36.0774 Q1546.41 32.4315 1540.9 32.4315 Q1534.66 32.4315 1530.89 35.9558 Q1527.16 39.4801 1526.6 45.8805 L1553.17 45.84 Z" fill="#000000" fill-rule="evenodd" fill-opacity="1" /><path clip-path="url(#clip850)" d="M1572.86 9.54393 L1580.31 9.54393 L1580.31 72.576 L1572.86 72.576 L1572.86 9.54393 Z" fill="#000000" fill-rule="evenodd" fill-opacity="1" /><path clip-path="url(#clip850)" d="M1624.75 65.6895 L1638.12 65.6895 L1638.12 19.5497 L1623.58 22.4663 L1623.58 15.0127 L1638.04 12.096 L1646.22 12.096 L1646.22 65.6895 L1659.59 65.6895 L1659.59 72.576 L1624.75 72.576 L1624.75 65.6895 Z" fill="#000000" fill-rule="evenodd" fill-opacity="1" /><polyline clip-path="url(#clip852)" style="stroke:#009af9; stroke-linecap:butt; stroke-linejoin:round; stroke-width:8; stroke-opacity:1; fill:none" points="
  1333.88,679.111 1368.67,679.111 1403.73,679.111 1438.99,679.111 1474.4,679.111 1509.91,679.111 1545.46,679.111 1580.99,679.111 1616.46,679.111 1651.8,679.111 
  1686.98,679.111 1721.92,679.111 1756.6,679.111 1790.97,679.111 1824.97,679.111 1858.56,679.111 1891.7,679.111 1924.36,679.111 1956.48,679.111 1988.04,679.111 
  2018.99,679.111 2049.29,679.111 2078.92,679.111 2107.84,679.111 2136.01,679.111 2163.4,679.111 2189.98,679.111 2215.73,679.111 2240.61,679.111 2264.6,679.111 
  2287.67,679.111 2309.79,679.111 2330.95,679.111 2351.12,679.111 2370.28,679.111 2388.4,679.111 2405.47,679.111 2421.48,679.111 2436.4,679.111 2450.22,679.111 
  2462.93,679.111 2474.51,679.111 2484.95,679.111 2494.23,679.111 2502.36,679.111 2509.32,679.111 2515.1,679.111 2519.71,679.111 2523.12,679.111 2525.35,679.111 
  2526.38,679.111 2526.23,679.111 2524.87,679.111 2522.33,679.111 2518.6,679.111 2513.69,679.111 2507.59,679.111 2500.32,679.111 2491.88,679.111 2482.29,679.111 
  2471.54,679.111 2459.66,679.111 2446.64,679.111 2432.52,679.111 2417.29,679.111 2400.97,679.111 2383.59,679.111 2365.14,679.111 2345.67,679.111 2325.17,679.111 
  2303.67,679.111 2281.19,679.111 2257.76,679.111 2233.39,679.111 2208.1,679.111 2181.92,679.111 2154.87,679.111 2126.98,679.111 2098.27,679.111 2068.76,679.111 
  2038.49,679.111 2007.46,679.111 1975.73,679.111 1943.3,679.111 1910.2,679.111 1876.46,679.111 1842.1,679.111 1807.15,679.111 1771.64,679.111 1735.59,679.111 
  1699.01,679.111 1661.95,679.111 1624.4,679.111 1586.4,679.111 1547.97,679.111 1509.11,679.111 1469.83,679.111 1430.16,679.111 1390.1,679.111 1349.65,679.111 
  1316.33,679.111 1287.51,679.111 1258.49,679.111 1229.31,679.111 1200.03,679.111 1170.69,679.111 1141.33,679.111 1111.98,679.111 1082.7,679.111 1053.53,679.111 
  1024.5,679.111 995.665,679.111 967.054,679.111 938.705,679.111 910.66,679.111 882.952,679.111 855.617,679.111 828.692,679.111 802.205,679.111 776.193,679.111 
  750.686,679.111 725.713,679.111 701.307,679.111 677.492,679.111 654.299,679.111 631.752,679.111 609.874,679.111 588.694,679.111 568.236,679.111 548.528,679.111 
  529.585,679.111 511.431,679.111 494.087,679.111 477.571,679.111 461.901,679.111 447.092,679.111 433.161,679.111 420.124,679.111 407.993,679.111 396.781,679.111 
  386.501,679.111 377.163,679.111 368.778,679.111 361.354,679.111 354.899,679.111 349.421,679.111 344.925,679.111 341.416,679.111 338.899,679.111 337.375,679.111 
  336.848,679.111 337.318,679.111 338.784,679.111 341.247,679.111 344.704,679.111 349.151,679.111 354.586,679.111 361.002,679.111 368.395,679.111 376.757,679.111 
  386.079,679.111 396.355,679.111 407.575,679.111 419.728,679.111 432.802,679.111 446.785,679.111 461.664,679.111 477.428,679.111 494.06,679.111 511.546,679.111 
  529.867,679.111 549.009,679.111 568.958,679.111 589.692,679.111 611.195,679.111 633.444,679.111 656.422,679.111 680.114,679.111 704.498,679.111 729.551,679.111 
  755.253,679.111 781.58,679.111 808.52,679.111 836.049,679.111 864.144,679.111 892.784,679.111 921.945,679.111 951.608,679.111 981.757,679.111 1012.37,679.111 
  1043.43,679.111 1074.91,679.111 1106.81,679.111 1139.1,679.111 1171.77,679.111 1204.81,679.111 1238.2,679.111 1271.94,679.111 1306.01,679.111 1338.08,679.111 
  1360.49,679.111 1383.07,679.111 1405.8,679.111 1428.62,679.111 1451.52,679.111 1474.47,679.111 1497.43,679.111 1520.37,679.111 1543.26,679.111 1566.07,679.111 
  1588.76,679.111 1611.3,679.111 1633.68,679.111 1655.84,679.111 1677.78,679.111 1699.45,679.111 1720.84,679.111 1741.91,679.111 1762.65,679.111 1783.02,679.111 
  1802.99,679.111 1822.55,679.111 1841.67,679.111 1860.32,679.111 1878.49,679.111 1896.15,679.111 1913.28,679.111 1929.86,679.111 1945.88,679.111 1961.32,679.111 
  1976.15,679.111 1990.36,679.111 2003.93,679.111 2016.86,679.111 2029.11,679.111 2040.69,679.111 2051.58,679.111 2061.76,679.111 2071.23,679.111 2079.97,679.111 
  2087.97,679.111 2095.23,679.111 2101.73,679.111 2107.48,679.111 2112.45,679.111 2116.65,679.111 2120.07,679.111 2122.7,679.111 2124.55,679.111 2125.61,679.111 
  2125.88,679.111 2125.35,679.111 2124.04,679.111 2121.93,679.111 2119.02,679.111 2115.33,679.111 2110.86,679.111 2105.6,679.111 2099.56,679.111 2092.75,679.111 
  2085.18,679.111 2076.84,679.111 2067.75,679.111 2057.92,679.111 2047.35,679.111 2036.05,679.111 2024.04,679.111 2011.32,679.111 1997.9,679.111 1983.8,679.111 
  1969.03,679.111 1953.59,679.111 1937.51,679.111 1920.8,679.111 1903.47,679.111 1885.54,679.111 1867.02,679.111 1847.92,679.111 1828.26,679.111 1808.06,679.111 
  1787.33,679.111 1766.09,679.111 1744.36,679.111 1722.14,679.111 1699.46,679.111 1676.33,679.111 1652.77,679.111 1628.8,679.111 1604.43,679.111 1579.66,679.111 
  1554.53,679.111 1529.05,679.111 1503.22,679.111 1477.06,679.111 1450.59,679.111 1423.82,679.111 1396.76,679.111 1369.42,679.111 1341.8,679.111 1322.69,679.111 
  1306.92,679.111 1291.05,679.111 1275.08,679.111 1259.05,679.111 1242.96,679.111 1226.85,679.111 1210.72,679.111 1194.6,679.111 1178.51,679.111 1162.48,679.111 
  1146.52,679.111 1130.66,679.111 1114.91,679.111 1099.29,679.111 1083.83,679.111 1068.55,679.111 1053.45,679.111 1038.57,679.111 1023.92,679.111 1009.52,679.111 
  995.387,679.111 981.534,679.111 967.981,679.111 954.746,679.111 941.847,679.111 929.299,679.111 917.115,679.111 905.311,679.111 893.902,679.111 882.901,679.111 
  872.322,679.111 862.175,679.111 852.475,679.111 843.232,679.111 834.457,679.111 826.16,679.111 818.352,679.111 811.042,679.111 804.239,679.111 797.95,679.111 
  792.185,679.111 786.948,679.111 782.249,679.111 778.091,679.111 774.481,679.111 771.425,679.111 768.924,679.111 766.984,679.111 765.608,679.111 764.798,679.111 
  764.556,679.111 764.884,679.111 765.782,679.111 767.25,679.111 769.289,679.111 771.897,679.111 775.074,679.111 778.816,679.111 783.122,679.111 787.988,679.111 
  793.412,679.111 799.387,679.111 805.911,679.111 812.979,679.111 820.584,679.111 828.721,679.111 837.383,679.111 846.563,679.111 856.254,679.111 866.449,679.111 
  877.139,679.111 888.317,679.111 899.972,679.111 912.095,679.111 924.678,679.111 937.711,679.111 951.184,679.111 965.086,679.111 979.407,679.111 994.136,679.111 
  1009.26,679.111 1024.77,679.111 1040.66,679.111 1056.91,679.111 1073.51,679.111 1090.46,679.111 1107.73,679.111 1125.32,679.111 1143.21,679.111 1161.4,679.111 
  1179.88,679.111 1198.62,679.111 1217.63,679.111 1236.89,679.111 1256.38,679.111 1276.11,679.111 1296.06,679.111 1316.22,679.111 1334.96,679.111 1343.21,679.111 
  1351.53,679.111 
  "/>
<polyline clip-path="url(#clip852)" style="stroke:#e26f46; stroke-linecap:butt; stroke-linejoin:round; stroke-width:8; stroke-opacity:1; fill:none" points="
  1333.88,159.645 1368.67,186.505 1403.73,211.223 1438.99,233.909 1474.4,254.674 1509.91,273.633 1545.46,290.904 1580.99,306.6 1616.46,320.833 1651.8,333.711 
  1686.98,345.342 1721.92,355.823 1756.6,365.252 1790.97,373.716 1824.97,381.302 1858.56,388.086 1891.7,394.144 1924.36,399.54 1956.48,404.34 1988.04,408.6 
  2018.99,412.372 2049.29,415.704 2078.92,418.643 2107.84,421.227 2136.01,423.492 2163.4,425.473 2189.98,427.201 2215.73,428.701 2240.61,430.001 2264.6,431.121 
  2287.67,432.083 2309.79,432.905 2330.95,433.604 2351.12,434.195 2370.28,434.692 2388.4,435.106 2405.47,435.449 2421.48,435.731 2436.4,435.961 2450.22,436.146 
  2462.93,436.293 2474.51,436.408 2484.95,436.498 2494.23,436.567 2502.36,436.618 2509.32,436.656 2515.1,436.683 2519.71,436.702 2523.12,436.714 2525.35,436.721 
  2526.38,436.725 2526.23,436.724 2524.87,436.72 2522.33,436.711 2518.6,436.697 2513.69,436.676 2507.59,436.647 2500.32,436.606 2491.88,436.55 2482.29,436.477 
  2471.54,436.38 2459.66,436.257 2446.64,436.1 2432.52,435.904 2417.29,435.661 2400.97,435.363 2383.59,435.001 2365.14,434.565 2345.67,434.042 2325.17,433.421 
  2303.67,432.687 2281.19,431.824 2257.76,430.814 2233.39,429.638 2208.1,428.274 2181.92,426.696 2154.87,424.879 2126.98,422.792 2098.27,420.401 2068.76,417.67 
  2038.49,414.555 2007.46,411.012 1975.73,406.989 1943.3,402.429 1910.2,397.268 1876.46,391.433 1842.1,384.847 1807.15,377.422 1771.64,369.059 1735.59,359.649 
  1699.01,349.068 1661.95,337.182 1624.4,323.837 1586.4,308.86 1547.97,292.061 1509.11,273.223 1469.83,252.102 1430.16,228.424 1390.1,201.882 1349.65,172.123 
  1316.33,1184.73 1287.51,1163.31 1258.49,1143.29 1229.31,1124.65 1200.03,1107.32 1170.69,1091.25 1141.33,1076.36 1111.98,1062.61 1082.7,1049.93 1053.53,1038.25 
  1024.5,1027.52 995.665,1017.67 967.054,1008.64 938.705,1000.39 910.66,992.845 882.952,985.964 855.617,979.695 828.692,973.992 802.205,968.808 776.193,964.104 
  750.686,959.84 725.713,955.98 701.307,952.491 677.492,949.339 654.299,946.497 631.752,943.938 609.874,941.635 588.694,939.567 568.236,937.712 548.528,936.052 
  529.585,934.567 511.431,933.241 494.087,932.06 477.571,931.01 461.901,930.078 447.092,929.252 433.161,928.523 420.124,927.881 407.993,927.318 396.781,926.825 
  386.501,926.396 377.163,926.026 368.778,925.708 361.354,925.437 354.899,925.211 349.421,925.025 344.925,924.877 341.416,924.764 338.899,924.684 337.375,924.636 
  336.848,924.62 337.318,924.634 338.784,924.68 341.247,924.758 344.704,924.87 349.151,925.016 354.586,925.2 361.002,925.425 368.395,925.693 376.757,926.01 
  386.079,926.379 396.355,926.807 407.575,927.299 419.728,927.862 432.802,928.505 446.785,929.236 461.664,930.064 477.428,931.001 494.06,932.058 511.546,933.249 
  529.867,934.588 549.009,936.091 568.958,937.775 589.692,939.661 611.195,941.769 633.444,944.123 656.422,946.749 680.114,949.674 704.498,952.932 729.551,956.554 
  755.253,960.579 781.58,965.048 808.52,970.007 836.049,975.505 864.144,981.598 892.784,988.343 921.945,995.807 951.608,1004.06 981.757,1013.19 1012.37,1023.28 
  1043.43,1034.41 1074.91,1046.72 1106.81,1060.29 1139.1,1075.28 1171.77,1091.82 1204.81,1110.06 1238.2,1130.18 1271.94,1152.38 1306.01,1176.87 1338.08,163.018 
  1360.49,180.406 1383.07,196.934 1405.8,212.613 1428.62,227.454 1451.52,241.48 1474.47,254.712 1497.43,267.173 1520.37,278.887 1543.26,289.883 1566.07,300.189 
  1588.76,309.834 1611.3,318.848 1633.68,327.262 1655.84,335.106 1677.78,342.409 1699.45,349.202 1720.84,355.513 1741.91,361.371 1762.65,366.802 1783.02,371.832 
  1802.99,376.486 1822.55,380.787 1841.67,384.76 1860.32,388.424 1878.49,391.801 1896.15,394.91 1913.28,397.77 1929.86,400.398 1945.88,402.81 1961.32,405.021 
  1976.15,407.045 1990.36,408.895 2003.93,410.585 2016.86,412.124 2029.11,413.524 2040.69,414.794 2051.58,415.942 2061.76,416.979 2071.23,417.909 2079.97,418.741 
  2087.97,419.481 2095.23,420.133 2101.73,420.703 2107.48,421.196 2112.45,421.614 2116.65,421.961 2120.07,422.239 2122.7,422.452 2124.55,422.599 2125.61,422.684 
  2125.88,422.705 2125.35,422.663 2124.04,422.558 2121.93,422.389 2119.02,422.155 2115.33,421.853 2110.86,421.481 2105.6,421.036 2099.56,420.514 2092.75,419.912 
  2085.18,419.225 2076.84,418.446 2067.75,417.571 2057.92,416.592 2047.35,415.501 2036.05,414.29 2024.04,412.951 2011.32,411.472 1997.9,409.844 1983.8,408.052 
  1969.03,406.085 1953.59,403.928 1937.51,401.565 1920.8,398.979 1903.47,396.152 1885.54,393.063 1867.02,389.69 1847.92,386.011 1828.26,381.998 1808.06,377.624 
  1787.33,372.861 1766.09,367.674 1744.36,362.028 1722.14,355.885 1699.46,349.204 1676.33,341.941 1652.77,334.047 1628.8,325.471 1604.43,316.156 1579.66,306.039 
  1554.53,295.055 1529.05,283.133 1503.22,270.194 1477.06,256.155 1450.59,240.926 1423.82,224.407 1396.76,206.489 1369.42,187.055 1341.8,165.976 1322.69,1189.67 
  1306.92,1177.56 1291.05,1165.85 1275.08,1154.55 1259.05,1143.67 1242.96,1133.2 1226.85,1123.14 1210.72,1113.49 1194.6,1104.25 1178.51,1095.41 1162.48,1086.97 
  1146.52,1078.91 1130.66,1071.24 1114.91,1063.93 1099.29,1056.99 1083.83,1050.4 1068.55,1044.14 1053.45,1038.22 1038.57,1032.61 1023.92,1027.31 1009.52,1022.3 
  995.387,1017.57 981.534,1013.12 967.981,1008.92 954.746,1004.98 941.847,1001.27 929.299,997.79 917.115,994.528 905.311,991.473 893.902,988.618 882.901,985.952 
  872.322,983.467 862.175,981.154 852.475,979.006 843.232,977.015 834.457,975.175 826.16,973.478 818.352,971.919 811.042,970.492 804.239,969.192 797.95,968.013 
  792.185,966.952 786.948,966.004 782.249,965.166 778.091,964.435 774.481,963.807 771.425,963.281 768.924,962.855 766.984,962.526 765.608,962.294 764.798,962.158 
  764.556,962.117 764.884,962.172 765.782,962.323 767.25,962.571 769.289,962.917 771.897,963.363 775.074,963.91 778.816,964.562 783.122,965.321 787.988,966.191 
  793.412,967.176 799.387,968.281 805.911,969.509 812.979,970.867 820.584,972.361 828.721,973.998 837.383,975.783 846.563,977.727 856.254,979.836 866.449,982.12 
  877.139,984.589 888.317,987.254 899.972,990.125 912.095,993.216 924.678,996.539 937.711,1000.11 951.184,1003.94 965.086,1008.05 979.407,1012.45 994.136,1017.17 
  1009.26,1022.21 1024.77,1027.61 1040.66,1033.38 1056.91,1039.55 1073.51,1046.15 1090.46,1053.19 1107.73,1060.7 1125.32,1068.73 1143.21,1077.28 1161.4,1086.41 
  1179.88,1096.14 1198.62,1106.52 1217.63,1117.58 1236.89,1129.36 1256.38,1141.9 1276.11,1155.27 1296.06,1169.5 1316.22,1184.64 1334.96,160.52 1343.21,167.093 
  1351.53,173.577 
  "/>
<polyline clip-path="url(#clip852)" style="stroke:#008000; stroke-linecap:butt; stroke-linejoin:round; stroke-width:8; stroke-opacity:1; fill:none" stroke-dasharray="4, 8" points="
  1333.88,660.386 1368.67,677.744 1403.73,695.647 1438.99,714.067 1474.4,732.969 1509.91,752.315 1545.46,772.062 1580.99,792.164 1616.46,812.571 1651.8,833.228 
  1686.98,854.082 1721.92,875.074 1756.6,896.148 1790.97,917.241 1824.97,938.298 1858.56,959.256 1891.7,980.06 1924.36,1000.65 1956.48,1020.98 1988.04,1040.98 
  2018.99,1060.62 2049.29,1079.85 2078.92,1098.62 2107.84,1116.89 2136.01,1134.63 2163.4,1151.81 2189.98,1168.39 2215.73,1184.36 2240.61,1199.69 2264.6,1214.37 
  2287.67,1228.38 2309.79,1241.72 2330.95,1254.37 2351.12,1266.32 2370.28,1277.59 2388.4,1288.15 2405.47,1298.03 2421.48,1307.21 2436.4,1315.7 2450.22,1323.5 
  2462.93,1330.62 2474.51,1337.07 2484.95,1342.84 2494.23,1347.95 2502.36,1352.4 2509.32,1356.19 2515.1,1359.32 2519.71,1361.81 2523.12,1363.65 2525.35,1364.85 
  2526.38,1365.41 2526.23,1365.32 2524.87,1364.6 2522.33,1363.23 2518.6,1361.21 2513.69,1358.55 2507.59,1355.25 2500.32,1351.28 2491.88,1346.66 2482.29,1341.37 
  2471.54,1335.42 2459.66,1328.79 2446.64,1321.48 2432.52,1313.49 2417.29,1304.81 2400.97,1295.43 2383.59,1285.36 2365.14,1274.58 2345.67,1263.1 2325.17,1250.92 
  2303.67,1238.04 2281.19,1224.46 2257.76,1210.2 2233.39,1195.25 2208.1,1179.64 2181.92,1163.37 2154.87,1146.47 2126.98,1128.95 2098.27,1110.85 2068.76,1092.19 
  2038.49,1072.99 2007.46,1053.31 1975.73,1033.17 1943.3,1012.63 1910.2,991.715 1876.46,970.479 1842.1,948.972 1807.15,927.246 1771.64,905.354 1735.59,883.349 
  1699.01,861.284 1661.95,839.213 1624.4,817.187 1586.4,795.256 1547.97,773.469 1509.11,751.872 1469.83,730.508 1430.16,709.417 1390.1,688.638 1349.65,668.205 
  1316.33,651.794 1287.51,637.906 1258.49,624.22 1229.31,610.764 1200.03,597.566 1170.69,584.647 1141.33,572.03 1111.98,559.732 1082.7,547.77 1053.53,536.159 
  1024.5,524.908 995.665,514.028 967.054,503.525 938.705,493.402 910.66,483.664 882.952,474.31 855.617,465.34 828.692,456.751 802.205,448.54 776.193,440.702 
  750.686,433.231 725.713,426.12 701.307,419.363 677.492,412.95 654.299,406.874 631.752,401.126 609.874,395.696 588.694,390.575 568.236,385.754 548.528,381.226 
  529.585,376.979 511.431,373.004 494.087,369.293 477.571,365.837 461.901,362.627 447.092,359.655 433.161,356.913 420.124,354.394 407.993,352.09 396.781,349.995 
  386.501,348.102 377.163,346.407 368.778,344.904 361.354,343.588 354.899,342.455 349.421,341.502 344.925,340.725 341.416,340.122 338.899,339.692 337.375,339.432 
  336.848,339.342 337.318,339.422 338.784,339.672 341.247,340.093 344.704,340.687 349.151,341.455 354.586,342.4 361.002,343.526 368.395,344.836 376.757,346.334 
  386.079,348.025 396.355,349.916 407.575,352.011 419.728,354.318 432.802,356.843 446.785,359.594 461.664,362.579 477.428,365.807 494.06,369.287 511.546,373.029 
  529.867,377.041 549.009,381.335 568.958,385.922 589.692,390.813 611.195,396.02 633.444,401.552 656.422,407.424 680.114,413.648 704.498,420.235 729.551,427.2 
  755.253,434.553 781.58,442.307 808.52,450.476 836.049,459.074 864.144,468.111 892.784,477.599 921.945,487.549 951.608,497.974 981.757,508.886 1012.37,520.294 
  1043.43,532.208 1074.91,544.639 1106.81,557.595 1139.1,571.085 1171.77,585.117 1204.81,599.698 1238.2,614.833 1271.94,630.527 1306.01,646.787 1338.08,662.46 
  1360.49,673.626 1383.07,685.049 1405.8,696.716 1428.62,708.609 1451.52,720.711 1474.47,733.006 1497.43,745.472 1520.37,758.088 1543.26,770.831 1566.07,783.677 
  1588.76,796.603 1611.3,809.584 1633.68,822.595 1655.84,835.61 1677.78,848.602 1699.45,861.548 1720.84,874.419 1741.91,887.193 1762.65,899.844 1783.02,912.345 
  1802.99,924.671 1822.55,936.796 1841.67,948.7 1860.32,960.36 1878.49,971.752 1896.15,982.857 1913.28,993.657 1929.86,1004.13 1945.88,1014.26 1961.32,1024.04 
  1976.15,1033.44 1990.36,1042.45 2003.93,1051.07 2016.86,1059.27 2029.11,1067.05 2040.69,1074.4 2051.58,1081.3 2061.76,1087.75 2071.23,1093.75 2079.97,1099.28 
  2087.97,1104.34 2095.23,1108.93 2101.73,1113.04 2107.48,1116.66 2112.45,1119.8 2116.65,1122.45 2120.07,1124.6 2122.7,1126.26 2124.55,1127.42 2125.61,1128.09 
  2125.88,1128.26 2125.35,1127.93 2124.04,1127.1 2121.93,1125.77 2119.02,1123.94 2115.33,1121.62 2110.86,1118.79 2105.6,1115.48 2099.56,1111.67 2092.75,1107.36 
  2085.18,1102.57 2076.84,1097.3 2067.75,1091.55 2057.92,1085.32 2047.35,1078.62 2036.05,1071.45 2024.04,1063.83 2011.32,1055.76 1997.9,1047.24 1983.8,1038.29 
  1969.03,1028.93 1953.59,1019.15 1937.51,1008.97 1920.8,998.406 1903.47,987.473 1885.54,976.184 1867.02,964.555 1847.92,952.603 1828.26,940.348 1808.06,927.807 
  1787.33,915.002 1766.09,901.953 1744.36,888.681 1722.14,875.206 1699.46,861.552 1676.33,847.742 1652.77,833.799 1628.8,819.747 1604.43,805.609 1579.66,791.406 
  1554.53,777.161 1529.05,762.898 1503.22,748.638 1477.06,734.404 1450.59,720.215 1423.82,706.094 1396.76,692.056 1369.42,678.12 1341.8,664.302 1322.69,654.892 
  1306.92,647.228 1291.05,639.597 1275.08,632.011 1259.05,624.483 1242.96,617.022 1226.85,609.641 1210.72,602.346 1194.6,595.15 1178.51,588.061 1162.48,581.089 
  1146.52,574.24 1130.66,567.523 1114.91,560.944 1099.29,554.51 1083.83,548.226 1068.55,542.097 1053.45,536.128 1038.57,530.323 1023.92,524.685 1009.52,519.218 
  995.387,513.924 981.534,508.804 967.981,503.86 954.746,499.095 941.847,494.51 929.299,490.105 917.115,485.881 905.311,481.837 893.902,477.975 882.901,474.293 
  872.322,470.791 862.175,467.468 852.475,464.325 843.232,461.359 834.457,458.569 826.16,455.956 818.352,453.518 811.042,451.253 804.239,449.162 797.95,447.242 
  792.185,445.494 786.948,443.915 782.249,442.506 778.091,441.266 774.481,440.194 771.425,439.289 768.924,438.551 766.984,437.98 765.608,437.576 764.798,437.338 
  764.556,437.267 764.884,437.363 765.782,437.627 767.25,438.058 769.289,438.659 771.897,439.429 775.074,440.369 778.816,441.482 783.122,442.768 787.988,444.228 
  793.412,445.865 799.387,447.68 805.911,449.675 812.979,451.852 820.584,454.213 828.721,456.76 837.383,459.497 846.563,462.424 856.254,465.546 866.449,468.864 
  877.139,472.381 888.317,476.1 899.972,480.024 912.095,484.155 924.678,488.497 937.711,493.052 951.184,497.823 965.086,502.813 979.407,508.024 994.136,513.459 
  1009.26,519.12 1024.77,525.011 1040.66,531.133 1056.91,537.488 1073.51,544.079 1090.46,550.907 1107.73,557.974 1125.32,565.282 1143.21,572.831 1161.4,580.623 
  1179.88,588.658 1198.62,596.937 1217.63,605.461 1236.89,614.229 1256.38,623.241 1276.11,632.497 1296.06,641.996 1316.22,651.737 1334.96,660.921 1343.21,665.004 
  1351.53,669.142 
  "/>
<path clip-path="url(#clip850)" d="
M1423.56 528.956 L2284.83 528.956 L2284.83 166.076 L1423.56 166.076  Z
  " fill="#ffffff" fill-rule="evenodd" fill-opacity="1"/>
<polyline clip-path="url(#clip850)" style="stroke:#000000; stroke-linecap:butt; stroke-linejoin:round; stroke-width:4; stroke-opacity:1; fill:none" points="
  1423.56,528.956 2284.83,528.956 2284.83,166.076 1423.56,166.076 1423.56,528.956 
  "/>
<polyline clip-path="url(#clip850)" style="stroke:#009af9; stroke-linecap:butt; stroke-linejoin:round; stroke-width:6; stroke-opacity:1; fill:none" points="
  1446.2,256.796 1582.05,256.796 
  "/>
<path clip-path="url(#clip850)" d="M1638.06 232.577 L1638.06 239.417 Q1634.06 237.508 1630.52 236.57 Q1626.98 235.633 1623.68 235.633 Q1617.95 235.633 1614.83 237.855 Q1611.74 240.077 1611.74 244.174 Q1611.74 247.612 1613.79 249.383 Q1615.87 251.119 1621.63 252.195 L1625.87 253.063 Q1633.72 254.556 1637.43 258.341 Q1641.18 262.091 1641.18 268.41 Q1641.18 275.945 1636.11 279.834 Q1631.08 283.723 1621.32 283.723 Q1617.64 283.723 1613.47 282.889 Q1609.34 282.056 1604.9 280.424 L1604.9 273.202 Q1609.17 275.598 1613.27 276.813 Q1617.36 278.028 1621.32 278.028 Q1627.33 278.028 1630.59 275.667 Q1633.86 273.306 1633.86 268.931 Q1633.86 265.112 1631.49 262.959 Q1629.17 260.806 1623.82 259.73 L1619.55 258.896 Q1611.7 257.334 1608.2 254.001 Q1604.69 250.667 1604.69 244.73 Q1604.69 237.855 1609.52 233.897 Q1614.38 229.938 1622.88 229.938 Q1626.53 229.938 1630.31 230.598 Q1634.1 231.258 1638.06 232.577 Z" fill="#000000" fill-rule="evenodd" fill-opacity="1" /><path clip-path="url(#clip850)" d="M1651.84 243.827 L1658.23 243.827 L1658.23 282.716 L1651.84 282.716 L1651.84 243.827 M1651.84 228.688 L1658.23 228.688 L1658.23 236.778 L1651.84 236.778 L1651.84 228.688 Z" fill="#000000" fill-rule="evenodd" fill-opacity="1" /><path clip-path="url(#clip850)" d="M1701.88 251.292 Q1704.27 246.987 1707.61 244.938 Q1710.94 242.89 1715.45 242.89 Q1721.53 242.89 1724.83 247.16 Q1728.13 251.396 1728.13 259.244 L1728.13 282.716 L1721.7 282.716 L1721.7 259.452 Q1721.7 253.862 1719.72 251.153 Q1717.74 248.445 1713.68 248.445 Q1708.72 248.445 1705.83 251.744 Q1702.95 255.042 1702.95 260.737 L1702.95 282.716 L1696.53 282.716 L1696.53 259.452 Q1696.53 253.827 1694.55 251.153 Q1692.57 248.445 1688.44 248.445 Q1683.54 248.445 1680.66 251.778 Q1677.78 255.077 1677.78 260.737 L1677.78 282.716 L1671.36 282.716 L1671.36 243.827 L1677.78 243.827 L1677.78 249.869 Q1679.97 246.292 1683.02 244.591 Q1686.08 242.89 1690.28 242.89 Q1694.52 242.89 1697.47 245.042 Q1700.45 247.195 1701.88 251.292 Z" fill="#000000" fill-rule="evenodd" fill-opacity="1" /><path clip-path="url(#clip850)" d="M1747.05 276.882 L1747.05 297.507 L1740.63 297.507 L1740.63 243.827 L1747.05 243.827 L1747.05 249.73 Q1749.06 246.258 1752.12 244.591 Q1755.21 242.89 1759.48 242.89 Q1766.56 242.89 1770.97 248.515 Q1775.42 254.139 1775.42 263.306 Q1775.42 272.473 1770.97 278.098 Q1766.56 283.723 1759.48 283.723 Q1755.21 283.723 1752.12 282.056 Q1749.06 280.355 1747.05 276.882 M1768.79 263.306 Q1768.79 256.258 1765.87 252.264 Q1762.99 248.237 1757.92 248.237 Q1752.85 248.237 1749.93 252.264 Q1747.05 256.258 1747.05 263.306 Q1747.05 270.355 1749.93 274.382 Q1752.85 278.375 1757.92 278.375 Q1762.99 278.375 1765.87 274.382 Q1768.79 270.355 1768.79 263.306 Z" fill="#000000" fill-rule="evenodd" fill-opacity="1" /><path clip-path="url(#clip850)" d="M1786.01 228.688 L1792.4 228.688 L1792.4 282.716 L1786.01 282.716 L1786.01 228.688 Z" fill="#000000" fill-rule="evenodd" fill-opacity="1" /><path clip-path="url(#clip850)" d="M1839.03 261.674 L1839.03 264.799 L1809.65 264.799 Q1810.07 271.396 1813.61 274.869 Q1817.19 278.306 1823.54 278.306 Q1827.22 278.306 1830.66 277.403 Q1834.13 276.5 1837.54 274.695 L1837.54 280.737 Q1834.1 282.195 1830.49 282.959 Q1826.88 283.723 1823.16 283.723 Q1813.85 283.723 1808.4 278.306 Q1802.99 272.889 1802.99 263.653 Q1802.99 254.105 1808.13 248.515 Q1813.3 242.89 1822.05 242.89 Q1829.9 242.89 1834.45 247.959 Q1839.03 252.994 1839.03 261.674 M1832.64 259.799 Q1832.57 254.556 1829.69 251.431 Q1826.84 248.306 1822.12 248.306 Q1816.77 248.306 1813.54 251.327 Q1810.35 254.348 1809.86 259.834 L1832.64 259.799 Z" fill="#000000" fill-rule="evenodd" fill-opacity="1" /><path clip-path="url(#clip850)" d="M1849.79 230.876 L1879.58 230.876 L1879.58 236.778 L1856.81 236.778 L1856.81 252.056 L1877.36 252.056 L1877.36 257.959 L1856.81 257.959 L1856.81 282.716 L1849.79 282.716 L1849.79 230.876 Z" fill="#000000" fill-rule="evenodd" fill-opacity="1" /><path clip-path="url(#clip850)" d="M1890.69 230.876 L1901.15 230.876 L1914.38 266.153 L1927.67 230.876 L1938.13 230.876 L1938.13 282.716 L1931.28 282.716 L1931.28 237.195 L1917.92 272.75 L1910.87 272.75 L1897.5 237.195 L1897.5 282.716 L1890.69 282.716 L1890.69 230.876 Z" fill="#000000" fill-rule="evenodd" fill-opacity="1" /><path clip-path="url(#clip850)" d="M1951.25 230.876 L1958.3 230.876 L1958.3 262.369 Q1958.3 270.702 1961.32 274.382 Q1964.34 278.028 1971.11 278.028 Q1977.85 278.028 1980.87 274.382 Q1983.89 270.702 1983.89 262.369 L1983.89 230.876 L1990.94 230.876 L1990.94 263.237 Q1990.94 273.375 1985.9 278.549 Q1980.9 283.723 1971.11 283.723 Q1961.28 283.723 1956.25 278.549 Q1951.25 273.375 1951.25 263.237 L1951.25 230.876 Z" fill="#000000" fill-rule="evenodd" fill-opacity="1" /><polyline clip-path="url(#clip850)" style="stroke:#e26f46; stroke-linecap:butt; stroke-linejoin:round; stroke-width:6; stroke-opacity:1; fill:none" points="
  1446.2,347.516 1582.05,347.516 
  "/>
<path clip-path="url(#clip850)" d="M1627.47 340.519 Q1626.39 339.894 1625.11 339.616 Q1623.86 339.304 1622.33 339.304 Q1616.91 339.304 1613.99 342.846 Q1611.11 346.353 1611.11 352.95 L1611.11 373.436 L1604.69 373.436 L1604.69 334.547 L1611.11 334.547 L1611.11 340.589 Q1613.13 337.047 1616.36 335.346 Q1619.59 333.61 1624.2 333.61 Q1624.86 333.61 1625.66 333.714 Q1626.46 333.783 1627.43 333.957 L1627.47 340.519 Z" fill="#000000" fill-rule="evenodd" fill-opacity="1" /><path clip-path="url(#clip850)" d="M1665.87 352.394 L1665.87 355.519 L1636.49 355.519 Q1636.91 362.116 1640.45 365.589 Q1644.03 369.026 1650.38 369.026 Q1654.06 369.026 1657.5 368.123 Q1660.97 367.22 1664.38 365.415 L1664.38 371.457 Q1660.94 372.915 1657.33 373.679 Q1653.72 374.443 1650 374.443 Q1640.7 374.443 1635.24 369.026 Q1629.83 363.609 1629.83 354.373 Q1629.83 344.825 1634.97 339.235 Q1640.14 333.61 1648.89 333.61 Q1656.74 333.61 1661.29 338.679 Q1665.87 343.714 1665.87 352.394 M1659.48 350.519 Q1659.41 345.276 1656.53 342.151 Q1653.68 339.026 1648.96 339.026 Q1643.61 339.026 1640.38 342.047 Q1637.19 345.068 1636.7 350.554 L1659.48 350.519 Z" fill="#000000" fill-rule="evenodd" fill-opacity="1" /><path clip-path="url(#clip850)" d="M1696.04 319.408 L1696.04 324.721 L1689.93 324.721 Q1686.49 324.721 1685.14 326.11 Q1683.82 327.498 1683.82 331.11 L1683.82 334.547 L1694.34 334.547 L1694.34 339.512 L1683.82 339.512 L1683.82 373.436 L1677.4 373.436 L1677.4 339.512 L1671.29 339.512 L1671.29 334.547 L1677.4 334.547 L1677.4 331.839 Q1677.4 325.346 1680.42 322.394 Q1683.44 319.408 1690 319.408 L1696.04 319.408 Z" fill="#000000" fill-rule="evenodd" fill-opacity="1" /><path clip-path="url(#clip850)" d="M1734.65 352.394 L1734.65 355.519 L1705.28 355.519 Q1705.7 362.116 1709.24 365.589 Q1712.81 369.026 1719.17 369.026 Q1722.85 369.026 1726.29 368.123 Q1729.76 367.22 1733.16 365.415 L1733.16 371.457 Q1729.72 372.915 1726.11 373.679 Q1722.5 374.443 1718.79 374.443 Q1709.48 374.443 1704.03 369.026 Q1698.61 363.609 1698.61 354.373 Q1698.61 344.825 1703.75 339.235 Q1708.92 333.61 1717.67 333.61 Q1725.52 333.61 1730.07 338.679 Q1734.65 343.714 1734.65 352.394 M1728.27 350.519 Q1728.2 345.276 1725.31 342.151 Q1722.47 339.026 1717.74 339.026 Q1712.4 339.026 1709.17 342.047 Q1705.97 345.068 1705.49 350.554 L1728.27 350.519 Z" fill="#000000" fill-rule="evenodd" fill-opacity="1" /><path clip-path="url(#clip850)" d="M1767.67 340.519 Q1766.6 339.894 1765.31 339.616 Q1764.06 339.304 1762.54 339.304 Q1757.12 339.304 1754.2 342.846 Q1751.32 346.353 1751.32 352.95 L1751.32 373.436 L1744.9 373.436 L1744.9 334.547 L1751.32 334.547 L1751.32 340.589 Q1753.33 337.047 1756.56 335.346 Q1759.79 333.61 1764.41 333.61 Q1765.07 333.61 1765.87 333.714 Q1766.67 333.783 1767.64 333.957 L1767.67 340.519 Z" fill="#000000" fill-rule="evenodd" fill-opacity="1" /><path clip-path="url(#clip850)" d="M1806.08 352.394 L1806.08 355.519 L1776.7 355.519 Q1777.12 362.116 1780.66 365.589 Q1784.24 369.026 1790.59 369.026 Q1794.27 369.026 1797.71 368.123 Q1801.18 367.22 1804.58 365.415 L1804.58 371.457 Q1801.15 372.915 1797.54 373.679 Q1793.92 374.443 1790.21 374.443 Q1780.9 374.443 1775.45 369.026 Q1770.04 363.609 1770.04 354.373 Q1770.04 344.825 1775.17 339.235 Q1780.35 333.61 1789.1 333.61 Q1796.95 333.61 1801.49 338.679 Q1806.08 343.714 1806.08 352.394 M1799.69 350.519 Q1799.62 345.276 1796.74 342.151 Q1793.89 339.026 1789.17 339.026 Q1783.82 339.026 1780.59 342.047 Q1777.4 345.068 1776.91 350.554 L1799.69 350.519 Z" fill="#000000" fill-rule="evenodd" fill-opacity="1" /><path clip-path="url(#clip850)" d="M1848.89 349.964 L1848.89 373.436 L1842.5 373.436 L1842.5 350.172 Q1842.5 344.651 1840.35 341.908 Q1838.2 339.165 1833.89 339.165 Q1828.72 339.165 1825.73 342.464 Q1822.74 345.762 1822.74 351.457 L1822.74 373.436 L1816.32 373.436 L1816.32 334.547 L1822.74 334.547 L1822.74 340.589 Q1825.04 337.082 1828.13 335.346 Q1831.25 333.61 1835.31 333.61 Q1842.01 333.61 1845.45 337.776 Q1848.89 341.908 1848.89 349.964 Z" fill="#000000" fill-rule="evenodd" fill-opacity="1" /><path clip-path="url(#clip850)" d="M1889.62 336.04 L1889.62 342.012 Q1886.91 340.519 1884.17 339.79 Q1881.46 339.026 1878.68 339.026 Q1872.47 339.026 1869.03 342.984 Q1865.59 346.908 1865.59 354.026 Q1865.59 361.144 1869.03 365.102 Q1872.47 369.026 1878.68 369.026 Q1881.46 369.026 1884.17 368.297 Q1886.91 367.533 1889.62 366.04 L1889.62 371.943 Q1886.94 373.193 1884.06 373.818 Q1881.22 374.443 1877.99 374.443 Q1869.2 374.443 1864.03 368.922 Q1858.85 363.401 1858.85 354.026 Q1858.85 344.512 1864.06 339.061 Q1869.31 333.61 1878.4 333.61 Q1881.35 333.61 1884.17 334.235 Q1886.98 334.825 1889.62 336.04 Z" fill="#000000" fill-rule="evenodd" fill-opacity="1" /><path clip-path="url(#clip850)" d="M1933.99 352.394 L1933.99 355.519 L1904.62 355.519 Q1905.03 362.116 1908.58 365.589 Q1912.15 369.026 1918.51 369.026 Q1922.19 369.026 1925.63 368.123 Q1929.1 367.22 1932.5 365.415 L1932.5 371.457 Q1929.06 372.915 1925.45 373.679 Q1921.84 374.443 1918.13 374.443 Q1908.82 374.443 1903.37 369.026 Q1897.95 363.609 1897.95 354.373 Q1897.95 344.825 1903.09 339.235 Q1908.26 333.61 1917.01 333.61 Q1924.86 333.61 1929.41 338.679 Q1933.99 343.714 1933.99 352.394 M1927.6 350.519 Q1927.53 345.276 1924.65 342.151 Q1921.81 339.026 1917.08 339.026 Q1911.74 339.026 1908.51 342.047 Q1905.31 345.068 1904.83 350.554 L1927.6 350.519 Z" fill="#000000" fill-rule="evenodd" fill-opacity="1" /><polyline clip-path="url(#clip850)" style="stroke:#008000; stroke-linecap:butt; stroke-linejoin:round; stroke-width:6; stroke-opacity:1; fill:none" stroke-dasharray="3, 6" points="
  1446.2,438.236 1582.05,438.236 
  "/>
<path clip-path="url(#clip850)" d="M1604.69 412.316 L1614.13 412.316 L1637.12 455.684 L1637.12 412.316 L1643.93 412.316 L1643.93 464.156 L1634.48 464.156 L1611.49 420.788 L1611.49 464.156 L1604.69 464.156 L1604.69 412.316 Z" fill="#000000" fill-rule="evenodd" fill-opacity="1" /><path clip-path="url(#clip850)" d="M1690.87 443.114 L1690.87 446.239 L1661.49 446.239 Q1661.91 452.836 1665.45 456.309 Q1669.03 459.746 1675.38 459.746 Q1679.06 459.746 1682.5 458.843 Q1685.97 457.94 1689.38 456.135 L1689.38 462.177 Q1685.94 463.635 1682.33 464.399 Q1678.72 465.163 1675 465.163 Q1665.7 465.163 1660.24 459.746 Q1654.83 454.329 1654.83 445.093 Q1654.83 435.545 1659.97 429.955 Q1665.14 424.33 1673.89 424.33 Q1681.74 424.33 1686.29 429.399 Q1690.87 434.434 1690.87 443.114 M1684.48 441.239 Q1684.41 435.996 1681.53 432.871 Q1678.68 429.746 1673.96 429.746 Q1668.61 429.746 1665.38 432.767 Q1662.19 435.788 1661.7 441.274 L1684.48 441.239 Z" fill="#000000" fill-rule="evenodd" fill-opacity="1" /><path clip-path="url(#clip850)" d="M1700.7 448.809 L1700.7 425.267 L1707.08 425.267 L1707.08 448.566 Q1707.08 454.086 1709.24 456.864 Q1711.39 459.607 1715.7 459.607 Q1720.87 459.607 1723.86 456.309 Q1726.88 453.01 1726.88 447.316 L1726.88 425.267 L1733.27 425.267 L1733.27 464.156 L1726.88 464.156 L1726.88 458.184 Q1724.55 461.725 1721.46 463.461 Q1718.4 465.163 1714.34 465.163 Q1707.64 465.163 1704.17 460.996 Q1700.7 456.829 1700.7 448.809 M1716.77 424.33 L1716.77 424.33 Z" fill="#000000" fill-rule="evenodd" fill-opacity="1" /><path clip-path="url(#clip850)" d="M1768.96 431.239 Q1767.88 430.614 1766.6 430.336 Q1765.35 430.024 1763.82 430.024 Q1758.4 430.024 1755.49 433.566 Q1752.61 437.073 1752.61 443.67 L1752.61 464.156 L1746.18 464.156 L1746.18 425.267 L1752.61 425.267 L1752.61 431.309 Q1754.62 427.767 1757.85 426.066 Q1761.08 424.33 1765.7 424.33 Q1766.36 424.33 1767.15 424.434 Q1767.95 424.503 1768.92 424.677 L1768.96 431.239 Z" fill="#000000" fill-rule="evenodd" fill-opacity="1" /><path clip-path="url(#clip850)" d="M1793.33 444.607 Q1785.59 444.607 1782.61 446.378 Q1779.62 448.149 1779.62 452.42 Q1779.62 455.822 1781.84 457.836 Q1784.1 459.815 1787.95 459.815 Q1793.26 459.815 1796.46 456.065 Q1799.69 452.281 1799.69 446.031 L1799.69 444.607 L1793.33 444.607 M1806.08 441.968 L1806.08 464.156 L1799.69 464.156 L1799.69 458.253 Q1797.5 461.795 1794.24 463.496 Q1790.97 465.163 1786.25 465.163 Q1780.28 465.163 1776.74 461.829 Q1773.23 458.461 1773.23 452.836 Q1773.23 446.274 1777.61 442.941 Q1782.01 439.607 1790.73 439.607 L1799.69 439.607 L1799.69 438.982 Q1799.69 434.573 1796.77 432.177 Q1793.89 429.746 1788.65 429.746 Q1785.31 429.746 1782.15 430.545 Q1778.99 431.343 1776.08 432.941 L1776.08 427.038 Q1779.58 425.684 1782.88 425.024 Q1786.18 424.33 1789.31 424.33 Q1797.74 424.33 1801.91 428.705 Q1806.08 433.079 1806.08 441.968 Z" fill="#000000" fill-rule="evenodd" fill-opacity="1" /><path clip-path="url(#clip850)" d="M1819.24 410.128 L1825.63 410.128 L1825.63 464.156 L1819.24 464.156 L1819.24 410.128 Z" fill="#000000" fill-rule="evenodd" fill-opacity="1" /><path clip-path="url(#clip850)" d="M1839.27 412.316 L1869.06 412.316 L1869.06 418.218 L1846.29 418.218 L1846.29 433.496 L1866.84 433.496 L1866.84 439.399 L1846.29 439.399 L1846.29 464.156 L1839.27 464.156 L1839.27 412.316 Z" fill="#000000" fill-rule="evenodd" fill-opacity="1" /><path clip-path="url(#clip850)" d="M1880.17 412.316 L1890.63 412.316 L1903.85 447.593 L1917.15 412.316 L1927.6 412.316 L1927.6 464.156 L1920.76 464.156 L1920.76 418.635 L1907.4 454.19 L1900.35 454.19 L1886.98 418.635 L1886.98 464.156 L1880.17 464.156 L1880.17 412.316 Z" fill="#000000" fill-rule="evenodd" fill-opacity="1" /><path clip-path="url(#clip850)" d="M1940.73 412.316 L1947.78 412.316 L1947.78 443.809 Q1947.78 452.142 1950.8 455.822 Q1953.82 459.468 1960.59 459.468 Q1967.33 459.468 1970.35 455.822 Q1973.37 452.142 1973.37 443.809 L1973.37 412.316 L1980.42 412.316 L1980.42 444.677 Q1980.42 454.815 1975.38 459.989 Q1970.38 465.163 1960.59 465.163 Q1950.76 465.163 1945.73 459.989 Q1940.73 454.815 1940.73 444.677 L1940.73 412.316 Z" fill="#000000" fill-rule="evenodd" fill-opacity="1" /><path clip-path="url(#clip850)" d="M2031.25 410.198 Q2026.6 418.184 2024.34 425.996 Q2022.08 433.809 2022.08 441.829 Q2022.08 449.85 2024.34 457.732 Q2026.63 465.579 2031.25 473.531 L2025.69 473.531 Q2020.49 465.371 2017.88 457.489 Q2015.31 449.607 2015.31 441.829 Q2015.31 434.086 2017.88 426.239 Q2020.45 418.392 2025.69 410.198 L2031.25 410.198 Z" fill="#000000" fill-rule="evenodd" fill-opacity="1" /><path clip-path="url(#clip850)" d="M2050.59 458.253 L2075.07 458.253 L2075.07 464.156 L2042.15 464.156 L2042.15 458.253 Q2046.15 454.121 2053.02 447.177 Q2059.93 440.198 2061.7 438.184 Q2065.07 434.399 2066.39 431.795 Q2067.74 429.156 2067.74 426.621 Q2067.74 422.489 2064.83 419.885 Q2061.94 417.281 2057.29 417.281 Q2053.99 417.281 2050.31 418.427 Q2046.67 419.573 2042.5 421.899 L2042.5 414.816 Q2046.74 413.114 2050.42 412.246 Q2054.1 411.378 2057.15 411.378 Q2065.21 411.378 2070 415.406 Q2074.79 419.434 2074.79 426.17 Q2074.79 429.364 2073.58 432.246 Q2072.4 435.093 2069.24 438.982 Q2068.37 439.989 2063.71 444.816 Q2059.06 449.607 2050.59 458.253 Z" fill="#000000" fill-rule="evenodd" fill-opacity="1" /><path clip-path="url(#clip850)" d="M2089.86 412.316 L2117.39 412.316 L2117.39 418.218 L2096.28 418.218 L2096.28 430.927 Q2097.81 430.406 2099.34 430.163 Q2100.87 429.885 2102.39 429.885 Q2111.08 429.885 2116.14 434.642 Q2121.21 439.399 2121.21 447.524 Q2121.21 455.892 2116.01 460.545 Q2110.8 465.163 2101.32 465.163 Q2098.05 465.163 2094.65 464.607 Q2091.28 464.052 2087.67 462.94 L2087.67 455.892 Q2090.8 457.593 2094.13 458.427 Q2097.46 459.26 2101.18 459.26 Q2107.19 459.26 2110.69 456.1 Q2114.2 452.94 2114.2 447.524 Q2114.2 442.107 2110.69 438.948 Q2107.19 435.788 2101.18 435.788 Q2098.37 435.788 2095.55 436.413 Q2092.78 437.038 2089.86 438.357 L2089.86 412.316 Z" fill="#000000" fill-rule="evenodd" fill-opacity="1" /><path clip-path="url(#clip850)" d="M2150.03 416.934 Q2144.62 416.934 2141.87 422.281 Q2139.17 427.593 2139.17 438.288 Q2139.17 448.947 2141.87 454.295 Q2144.62 459.607 2150.03 459.607 Q2155.48 459.607 2158.19 454.295 Q2160.94 448.947 2160.94 438.288 Q2160.94 427.593 2158.19 422.281 Q2155.48 416.934 2150.03 416.934 M2150.03 411.378 Q2158.75 411.378 2163.33 418.288 Q2167.95 425.163 2167.95 438.288 Q2167.95 451.378 2163.33 458.288 Q2158.75 465.163 2150.03 465.163 Q2141.32 465.163 2136.7 458.288 Q2132.12 451.378 2132.12 438.288 Q2132.12 425.163 2136.7 418.288 Q2141.32 411.378 2150.03 411.378 Z" fill="#000000" fill-rule="evenodd" fill-opacity="1" /><path clip-path="url(#clip850)" d="M2195.28 416.934 Q2189.86 416.934 2187.12 422.281 Q2184.41 427.593 2184.41 438.288 Q2184.41 448.947 2187.12 454.295 Q2189.86 459.607 2195.28 459.607 Q2200.73 459.607 2203.44 454.295 Q2206.18 448.947 2206.18 438.288 Q2206.18 427.593 2203.44 422.281 Q2200.73 416.934 2195.28 416.934 M2195.28 411.378 Q2203.99 411.378 2208.57 418.288 Q2213.19 425.163 2213.19 438.288 Q2213.19 451.378 2208.57 458.288 Q2203.99 465.163 2195.28 465.163 Q2186.56 465.163 2181.94 458.288 Q2177.36 451.378 2177.36 438.288 Q2177.36 425.163 2181.94 418.288 Q2186.56 411.378 2195.28 411.378 Z" fill="#000000" fill-rule="evenodd" fill-opacity="1" /><path clip-path="url(#clip850)" d="M2223.61 410.198 L2229.17 410.198 Q2234.37 418.392 2236.94 426.239 Q2239.55 434.086 2239.55 441.829 Q2239.55 449.607 2236.94 457.489 Q2234.37 465.371 2229.17 473.531 L2223.61 473.531 Q2228.23 465.579 2230.48 457.732 Q2232.78 449.85 2232.78 441.829 Q2232.78 433.809 2230.48 425.996 Q2228.23 418.184 2223.61 410.198 Z" fill="#000000" fill-rule="evenodd" fill-opacity="1" /></svg>
