<?xml version="1.0" encoding="utf-8"?>
<svg xmlns="http://www.w3.org/2000/svg" xmlns:xlink="http://www.w3.org/1999/xlink" width="600" height="400" viewBox="0 0 2400 1600">
<defs>
  <clipPath id="clip610">
    <rect x="0" y="0" width="2400" height="1600"/>
  </clipPath>
</defs>
<path clip-path="url(#clip610)" d="
M0 1600 L2400 1600 L2400 0 L0 0  Z
  " fill="#ffffff" fill-rule="evenodd" fill-opacity="1"/>
<defs>
  <clipPath id="clip611">
    <rect x="480" y="0" width="1681" height="1600"/>
  </clipPath>
</defs>
<path clip-path="url(#clip610)" d="
M149.191 1423.18 L2352.76 1423.18 L2352.76 47.2441 L149.191 47.2441  Z
  " fill="#ffffff" fill-rule="evenodd" fill-opacity="1"/>
<defs>
  <clipPath id="clip612">
    <rect x="149" y="47" width="2205" height="1377"/>
  </clipPath>
</defs>
<polyline clip-path="url(#clip612)" style="stroke:#000000; stroke-linecap:butt; stroke-linejoin:round; stroke-width:2; stroke-opacity:0.1; fill:none" points="
  211.556,1423.18 211.556,47.2441 
  "/>
<polyline clip-path="url(#clip612)" style="stroke:#000000; stroke-linecap:butt; stroke-linejoin:round; stroke-width:2; stroke-opacity:0.1; fill:none" points="
  731.265,1423.18 731.265,47.2441 
  "/>
<polyline clip-path="url(#clip612)" style="stroke:#000000; stroke-linecap:butt; stroke-linejoin:round; stroke-width:2; stroke-opacity:0.1; fill:none" points="
  1250.97,1423.18 1250.97,47.2441 
  "/>
<polyline clip-path="url(#clip612)" style="stroke:#000000; stroke-linecap:butt; stroke-linejoin:round; stroke-width:2; stroke-opacity:0.1; fill:none" points="
  1770.68,1423.18 1770.68,47.2441 
  "/>
<polyline clip-path="url(#clip612)" style="stroke:#000000; stroke-linecap:butt; stroke-linejoin:round; stroke-width:2; stroke-opacity:0.1; fill:none" points="
  2290.39,1423.18 2290.39,47.2441 
  "/>
<polyline clip-path="url(#clip610)" style="stroke:#000000; stroke-linecap:butt; stroke-linejoin:round; stroke-width:4; stroke-opacity:1; fill:none" points="
  149.191,1423.18 2352.76,1423.18 
  "/>
<polyline clip-path="url(#clip610)" style="stroke:#000000; stroke-linecap:butt; stroke-linejoin:round; stroke-width:4; stroke-opacity:1; fill:none" points="
  211.556,1423.18 211.556,1406.67 
  "/>
<polyline clip-path="url(#clip610)" style="stroke:#000000; stroke-linecap:butt; stroke-linejoin:round; stroke-width:4; stroke-opacity:1; fill:none" points="
  731.265,1423.18 731.265,1406.67 
  "/>
<polyline clip-path="url(#clip610)" style="stroke:#000000; stroke-linecap:butt; stroke-linejoin:round; stroke-width:4; stroke-opacity:1; fill:none" points="
  1250.97,1423.18 1250.97,1406.67 
  "/>
<polyline clip-path="url(#clip610)" style="stroke:#000000; stroke-linecap:butt; stroke-linejoin:round; stroke-width:4; stroke-opacity:1; fill:none" points="
  1770.68,1423.18 1770.68,1406.67 
  "/>
<polyline clip-path="url(#clip610)" style="stroke:#000000; stroke-linecap:butt; stroke-linejoin:round; stroke-width:4; stroke-opacity:1; fill:none" points="
  2290.39,1423.18 2290.39,1406.67 
  "/>
<path clip-path="url(#clip610)" d="M211.556 1452.37 Q207.945 1452.37 206.116 1455.94 Q204.311 1459.48 204.311 1466.61 Q204.311 1473.71 206.116 1477.28 Q207.945 1480.82 211.556 1480.82 Q215.19 1480.82 216.996 1477.28 Q218.824 1473.71 218.824 1466.61 Q218.824 1459.48 216.996 1455.94 Q215.19 1452.37 211.556 1452.37 M211.556 1448.67 Q217.366 1448.67 220.422 1453.27 Q223.5 1457.86 223.5 1466.61 Q223.5 1475.33 220.422 1479.94 Q217.366 1484.52 211.556 1484.52 Q205.746 1484.52 202.667 1479.94 Q199.612 1475.33 199.612 1466.61 Q199.612 1457.86 202.667 1453.27 Q205.746 1448.67 211.556 1448.67 Z" fill="#000000" fill-rule="evenodd" fill-opacity="1" /><path clip-path="url(#clip610)" d="M721.647 1479.92 L729.285 1479.92 L729.285 1453.55 L720.975 1455.22 L720.975 1450.96 L729.239 1449.29 L733.915 1449.29 L733.915 1479.92 L741.554 1479.92 L741.554 1483.85 L721.647 1483.85 L721.647 1479.92 Z" fill="#000000" fill-rule="evenodd" fill-opacity="1" /><path clip-path="url(#clip610)" d="M1245.63 1479.92 L1261.95 1479.92 L1261.95 1483.85 L1240 1483.85 L1240 1479.92 Q1242.66 1477.16 1247.25 1472.53 Q1251.85 1467.88 1253.03 1466.54 Q1255.28 1464.01 1256.16 1462.28 Q1257.06 1460.52 1257.06 1458.83 Q1257.06 1456.07 1255.12 1454.34 Q1253.2 1452.6 1250.09 1452.6 Q1247.89 1452.6 1245.44 1453.37 Q1243.01 1454.13 1240.23 1455.68 L1240.23 1450.96 Q1243.06 1449.82 1245.51 1449.25 Q1247.96 1448.67 1250 1448.67 Q1255.37 1448.67 1258.57 1451.35 Q1261.76 1454.04 1261.76 1458.53 Q1261.76 1460.66 1260.95 1462.58 Q1260.16 1464.48 1258.06 1467.07 Q1257.48 1467.74 1254.38 1470.96 Q1251.27 1474.15 1245.63 1479.92 Z" fill="#000000" fill-rule="evenodd" fill-opacity="1" /><path clip-path="url(#clip610)" d="M1774.93 1465.22 Q1778.29 1465.94 1780.16 1468.2 Q1782.06 1470.47 1782.06 1473.81 Q1782.06 1478.92 1778.54 1481.72 Q1775.02 1484.52 1768.54 1484.52 Q1766.37 1484.52 1764.05 1484.08 Q1761.76 1483.67 1759.3 1482.81 L1759.3 1478.3 Q1761.25 1479.43 1763.56 1480.01 Q1765.88 1480.59 1768.4 1480.59 Q1772.8 1480.59 1775.09 1478.85 Q1777.41 1477.12 1777.41 1473.81 Q1777.41 1470.75 1775.25 1469.04 Q1773.12 1467.3 1769.3 1467.3 L1765.28 1467.3 L1765.28 1463.46 L1769.49 1463.46 Q1772.94 1463.46 1774.77 1462.09 Q1776.6 1460.7 1776.6 1458.11 Q1776.6 1455.45 1774.7 1454.04 Q1772.82 1452.6 1769.3 1452.6 Q1767.38 1452.6 1765.18 1453.02 Q1762.99 1453.44 1760.35 1454.31 L1760.35 1450.15 Q1763.01 1449.41 1765.32 1449.04 Q1767.66 1448.67 1769.72 1448.67 Q1775.05 1448.67 1778.15 1451.1 Q1781.25 1453.5 1781.25 1457.63 Q1781.25 1460.5 1779.61 1462.49 Q1777.96 1464.45 1774.93 1465.22 Z" fill="#000000" fill-rule="evenodd" fill-opacity="1" /><path clip-path="url(#clip610)" d="M2293.4 1453.37 L2281.59 1471.81 L2293.4 1471.81 L2293.4 1453.37 M2292.17 1449.29 L2298.05 1449.29 L2298.05 1471.81 L2302.98 1471.81 L2302.98 1475.7 L2298.05 1475.7 L2298.05 1483.85 L2293.4 1483.85 L2293.4 1475.7 L2277.8 1475.7 L2277.8 1471.19 L2292.17 1449.29 Z" fill="#000000" fill-rule="evenodd" fill-opacity="1" /><path clip-path="url(#clip610)" d="M1199.28 1522.27 L1199.28 1532.4 L1211.35 1532.4 L1211.35 1536.95 L1199.28 1536.95 L1199.28 1556.3 Q1199.28 1560.66 1200.46 1561.9 Q1201.67 1563.14 1205.33 1563.14 L1211.35 1563.14 L1211.35 1568.04 L1205.33 1568.04 Q1198.55 1568.04 1195.97 1565.53 Q1193.4 1562.98 1193.4 1556.3 L1193.4 1536.95 L1189.1 1536.95 L1189.1 1532.4 L1193.4 1532.4 L1193.4 1522.27 L1199.28 1522.27 Z" fill="#000000" fill-rule="evenodd" fill-opacity="1" /><path clip-path="url(#clip610)" d="M1239.23 1518.52 L1252.72 1518.52 L1252.72 1523.07 L1245.09 1523.07 L1245.09 1572.09 L1252.72 1572.09 L1252.72 1576.64 L1239.23 1576.64 L1239.23 1518.52 Z" fill="#000000" fill-rule="evenodd" fill-opacity="1" /><path clip-path="url(#clip610)" d="M1287.93 1533.45 L1287.93 1538.98 Q1285.44 1537.71 1282.77 1537.07 Q1280.1 1536.44 1277.23 1536.44 Q1272.87 1536.44 1270.68 1537.77 Q1268.51 1539.11 1268.51 1541.79 Q1268.51 1543.82 1270.07 1545 Q1271.63 1546.15 1276.34 1547.2 L1278.35 1547.64 Q1284.58 1548.98 1287.19 1551.43 Q1289.84 1553.85 1289.84 1558.21 Q1289.84 1563.17 1285.89 1566.07 Q1281.97 1568.97 1275.1 1568.97 Q1272.23 1568.97 1269.12 1568.39 Q1266.03 1567.85 1262.59 1566.74 L1262.59 1560.69 Q1265.84 1562.38 1268.99 1563.24 Q1272.14 1564.07 1275.23 1564.07 Q1279.36 1564.07 1281.59 1562.66 Q1283.82 1561.23 1283.82 1558.65 Q1283.82 1556.27 1282.2 1554.99 Q1280.61 1553.72 1275.16 1552.54 L1273.13 1552.07 Q1267.68 1550.92 1265.26 1548.56 Q1262.85 1546.18 1262.85 1542.04 Q1262.85 1537.01 1266.41 1534.27 Q1269.98 1531.54 1276.53 1531.54 Q1279.78 1531.54 1282.64 1532.01 Q1285.51 1532.49 1287.93 1533.45 Z" fill="#000000" fill-rule="evenodd" fill-opacity="1" /><path clip-path="url(#clip610)" d="M1312.85 1518.52 L1312.85 1576.64 L1299.35 1576.64 L1299.35 1572.09 L1306.96 1572.09 L1306.96 1523.07 L1299.35 1523.07 L1299.35 1518.52 L1312.85 1518.52 Z" fill="#000000" fill-rule="evenodd" fill-opacity="1" /><polyline clip-path="url(#clip612)" style="stroke:#000000; stroke-linecap:butt; stroke-linejoin:round; stroke-width:2; stroke-opacity:0.1; fill:none" points="
  149.191,1270.87 2352.76,1270.87 
  "/>
<polyline clip-path="url(#clip612)" style="stroke:#000000; stroke-linecap:butt; stroke-linejoin:round; stroke-width:2; stroke-opacity:0.1; fill:none" points="
  149.191,1003.08 2352.76,1003.08 
  "/>
<polyline clip-path="url(#clip612)" style="stroke:#000000; stroke-linecap:butt; stroke-linejoin:round; stroke-width:2; stroke-opacity:0.1; fill:none" points="
  149.191,735.289 2352.76,735.289 
  "/>
<polyline clip-path="url(#clip612)" style="stroke:#000000; stroke-linecap:butt; stroke-linejoin:round; stroke-width:2; stroke-opacity:0.1; fill:none" points="
  149.191,467.498 2352.76,467.498 
  "/>
<polyline clip-path="url(#clip612)" style="stroke:#000000; stroke-linecap:butt; stroke-linejoin:round; stroke-width:2; stroke-opacity:0.1; fill:none" points="
  149.191,199.707 2352.76,199.707 
  "/>
<polyline clip-path="url(#clip610)" style="stroke:#000000; stroke-linecap:butt; stroke-linejoin:round; stroke-width:4; stroke-opacity:1; fill:none" points="
  149.191,1423.18 149.191,47.2441 
  "/>
<polyline clip-path="url(#clip610)" style="stroke:#000000; stroke-linecap:butt; stroke-linejoin:round; stroke-width:4; stroke-opacity:1; fill:none" points="
  149.191,1270.87 175.634,1270.87 
  "/>
<polyline clip-path="url(#clip610)" style="stroke:#000000; stroke-linecap:butt; stroke-linejoin:round; stroke-width:4; stroke-opacity:1; fill:none" points="
  149.191,1003.08 175.634,1003.08 
  "/>
<polyline clip-path="url(#clip610)" style="stroke:#000000; stroke-linecap:butt; stroke-linejoin:round; stroke-width:4; stroke-opacity:1; fill:none" points="
  149.191,735.289 175.634,735.289 
  "/>
<polyline clip-path="url(#clip610)" style="stroke:#000000; stroke-linecap:butt; stroke-linejoin:round; stroke-width:4; stroke-opacity:1; fill:none" points="
  149.191,467.498 175.634,467.498 
  "/>
<polyline clip-path="url(#clip610)" style="stroke:#000000; stroke-linecap:butt; stroke-linejoin:round; stroke-width:4; stroke-opacity:1; fill:none" points="
  149.191,199.707 175.634,199.707 
  "/>
<path clip-path="url(#clip610)" d="M50.9921 1271.32 L80.6679 1271.32 L80.6679 1275.26 L50.9921 1275.26 L50.9921 1271.32 Z" fill="#000000" fill-rule="evenodd" fill-opacity="1" /><path clip-path="url(#clip610)" d="M103.608 1257.67 L91.8021 1276.11 L103.608 1276.11 L103.608 1257.67 M102.381 1253.59 L108.26 1253.59 L108.26 1276.11 L113.191 1276.11 L113.191 1280 L108.26 1280 L108.26 1288.15 L103.608 1288.15 L103.608 1280 L88.0058 1280 L88.0058 1275.49 L102.381 1253.59 Z" fill="#000000" fill-rule="evenodd" fill-opacity="1" /><path clip-path="url(#clip610)" d="M53.0754 1003.53 L82.7512 1003.53 L82.7512 1007.47 L53.0754 1007.47 L53.0754 1003.53 Z" fill="#000000" fill-rule="evenodd" fill-opacity="1" /><path clip-path="url(#clip610)" d="M96.8715 1016.43 L113.191 1016.43 L113.191 1020.36 L91.2465 1020.36 L91.2465 1016.43 Q93.9086 1013.67 98.4919 1009.04 Q103.098 1004.39 104.279 1003.05 Q106.524 1000.52 107.404 998.786 Q108.307 997.027 108.307 995.337 Q108.307 992.583 106.362 990.847 Q104.441 989.111 101.339 989.111 Q99.14 989.111 96.6863 989.874 Q94.2558 990.638 91.478 992.189 L91.478 987.467 Q94.3021 986.333 96.7558 985.754 Q99.2095 985.175 101.246 985.175 Q106.617 985.175 109.811 987.861 Q113.006 990.546 113.006 995.036 Q113.006 997.166 112.196 999.087 Q111.408 1000.99 109.302 1003.58 Q108.723 1004.25 105.621 1007.47 Q102.52 1010.66 96.8715 1016.43 Z" fill="#000000" fill-rule="evenodd" fill-opacity="1" /><path clip-path="url(#clip610)" d="M101.246 721.088 Q97.6354 721.088 95.8067 724.653 Q94.0012 728.194 94.0012 735.324 Q94.0012 742.431 95.8067 745.995 Q97.6354 749.537 101.246 749.537 Q104.881 749.537 106.686 745.995 Q108.515 742.431 108.515 735.324 Q108.515 728.194 106.686 724.653 Q104.881 721.088 101.246 721.088 M101.246 717.384 Q107.057 717.384 110.112 721.991 Q113.191 726.574 113.191 735.324 Q113.191 744.051 110.112 748.657 Q107.057 753.241 101.246 753.241 Q95.4363 753.241 92.3576 748.657 Q89.3021 744.051 89.3021 735.324 Q89.3021 726.574 92.3576 721.991 Q95.4363 717.384 101.246 717.384 Z" fill="#000000" fill-rule="evenodd" fill-opacity="1" /><path clip-path="url(#clip610)" d="M96.8715 480.843 L113.191 480.843 L113.191 484.778 L91.2465 484.778 L91.2465 480.843 Q93.9086 478.089 98.4919 473.459 Q103.098 468.806 104.279 467.464 Q106.524 464.94 107.404 463.204 Q108.307 461.445 108.307 459.755 Q108.307 457.001 106.362 455.265 Q104.441 453.528 101.339 453.528 Q99.14 453.528 96.6863 454.292 Q94.2558 455.056 91.478 456.607 L91.478 451.885 Q94.3021 450.751 96.7558 450.172 Q99.2095 449.593 101.246 449.593 Q106.617 449.593 109.811 452.278 Q113.006 454.964 113.006 459.454 Q113.006 461.584 112.196 463.505 Q111.408 465.403 109.302 467.996 Q108.723 468.667 105.621 471.885 Q102.52 475.079 96.8715 480.843 Z" fill="#000000" fill-rule="evenodd" fill-opacity="1" /><path clip-path="url(#clip610)" d="M103.608 186.501 L91.8021 204.95 L103.608 204.95 L103.608 186.501 M102.381 182.427 L108.26 182.427 L108.26 204.95 L113.191 204.95 L113.191 208.839 L108.26 208.839 L108.26 216.987 L103.608 216.987 L103.608 208.839 L88.0058 208.839 L88.0058 204.325 L102.381 182.427 Z" fill="#000000" fill-rule="evenodd" fill-opacity="1" /><polyline clip-path="url(#clip612)" style="stroke:#009af9; stroke-linecap:butt; stroke-linejoin:round; stroke-width:4; stroke-opacity:1; fill:none" points="
  211.556,601.394 216.753,603.395 221.95,605.381 227.147,607.349 232.344,609.297 237.541,611.224 242.738,613.128 247.936,615.007 253.133,616.859 258.33,618.682 
  263.527,620.475 268.724,622.235 273.921,623.962 279.118,625.652 284.315,627.305 289.512,628.919 294.709,630.492 299.906,632.022 305.103,633.508 310.301,634.949 
  315.498,636.343 320.695,637.689 325.892,638.985 331.089,640.23 336.286,641.423 341.483,642.562 346.68,643.647 351.877,644.676 357.074,645.649 362.271,646.563 
  367.469,647.42 372.666,648.216 377.863,648.953 383.06,649.629 388.257,650.243 393.454,650.794 398.651,651.283 403.848,651.709 409.045,652.071 414.242,652.369 
  419.439,652.602 424.636,652.771 429.834,652.875 435.031,652.915 440.228,652.889 445.425,652.799 450.622,652.643 455.819,652.423 461.016,652.139 466.213,651.791 
  471.41,651.378 476.607,650.903 481.804,650.364 487.002,649.763 492.199,649.101 497.396,648.377 502.593,647.593 507.79,646.749 512.987,645.846 518.184,644.886 
  523.381,643.869 528.578,642.796 533.775,641.668 538.972,640.486 544.17,639.252 549.367,637.967 554.564,636.632 559.761,635.248 564.958,633.817 570.155,632.34 
  575.352,630.819 580.549,629.255 585.746,627.65 590.943,626.005 596.14,624.322 601.337,622.603 606.535,620.849 611.732,619.063 616.929,617.245 622.126,615.398 
  627.323,613.524 632.52,611.624 637.717,609.7 642.914,607.755 648.111,605.79 653.308,603.807 658.505,601.809 663.703,599.796 668.9,597.772 674.097,595.738 
  679.294,593.696 684.491,591.649 689.688,589.598 694.885,587.546 700.082,585.493 705.279,583.444 710.476,581.398 715.673,579.36 720.87,577.33 726.068,575.311 
  731.265,573.305 736.462,571.313 741.659,569.338 746.856,567.382 752.053,565.446 757.25,563.533 762.447,561.644 767.644,559.782 772.841,557.948 778.038,556.144 
  783.236,554.372 788.433,552.634 793.63,550.931 798.827,549.265 804.024,547.638 809.221,546.051 814.418,544.506 819.615,543.005 824.812,541.549 830.009,540.139 
  835.206,538.777 840.403,537.464 845.601,536.202 850.798,534.992 855.995,533.834 861.192,532.731 866.389,531.683 871.586,530.692 876.783,529.757 881.98,528.881 
  887.177,528.064 892.374,527.307 897.571,526.611 902.769,525.976 907.966,525.403 913.163,524.893 918.36,524.446 923.557,524.062 928.754,523.743 933.951,523.488 
  939.148,523.297 944.345,523.171 949.542,523.109 954.739,523.113 959.936,523.181 965.134,523.315 970.331,523.513 975.528,523.775 980.725,524.102 985.922,524.493 
  991.119,524.947 996.316,525.464 1001.51,526.044 1006.71,526.686 1011.91,527.389 1017.1,528.152 1022.3,528.976 1027.5,529.858 1032.7,530.799 1037.89,531.797 
  1043.09,532.851 1048.29,533.96 1053.48,535.123 1058.68,536.34 1063.88,537.607 1069.08,538.925 1074.27,540.293 1079.47,541.708 1084.67,543.169 1089.86,544.675 
  1095.06,546.224 1100.26,547.815 1105.45,549.447 1110.65,551.117 1115.85,552.823 1121.05,554.565 1126.24,556.341 1131.44,558.148 1136.64,559.984 1141.83,561.849 
  1147.03,563.74 1152.23,565.656 1157.43,567.593 1162.62,569.551 1167.82,571.528 1173.02,573.521 1178.21,575.528 1183.41,577.548 1188.61,579.578 1193.81,581.617 
  1199,583.662 1204.2,585.711 1209.4,587.763 1214.59,589.815 1219.79,591.865 1224.99,593.911 1230.19,595.952 1235.38,597.984 1240.58,600.006 1245.78,602.017 
  1250.97,604.013 1256.17,605.993 1261.37,607.956 1266.56,609.898 1271.76,611.819 1276.96,613.715 1282.16,615.586 1287.35,617.429 1292.55,619.243 1297.75,621.026 
  1302.94,622.775 1308.14,624.49 1313.34,626.169 1318.54,627.809 1323.73,629.409 1328.93,630.968 1334.13,632.484 1339.32,633.955 1344.52,635.381 1349.72,636.759 
  1354.92,638.088 1360.11,639.368 1365.31,640.596 1370.51,641.771 1375.7,642.892 1380.9,643.959 1386.1,644.97 1391.29,645.923 1396.49,646.819 1401.69,647.656 
  1406.89,648.433 1412.08,649.15 1417.28,649.806 1422.48,650.4 1427.67,650.931 1432.87,651.4 1438.07,651.805 1443.27,652.146 1448.46,652.424 1453.66,652.636 
  1458.86,652.785 1464.05,652.868 1469.25,652.886 1474.45,652.84 1479.65,652.729 1484.84,652.553 1490.04,652.313 1495.24,652.008 1500.43,651.639 1505.63,651.207 
  1510.83,650.711 1516.02,650.153 1521.22,649.532 1526.42,648.85 1531.62,648.107 1536.81,647.304 1542.01,646.442 1547.21,645.522 1552.4,644.544 1557.6,643.509 
  1562.8,642.419 1568,641.274 1573.19,640.076 1578.39,638.826 1583.59,637.525 1588.78,636.175 1593.98,634.777 1599.18,633.331 1604.38,631.841 1609.57,630.307 
  1614.77,628.73 1619.97,627.113 1625.16,625.456 1630.36,623.762 1635.56,622.033 1640.75,620.269 1645.95,618.473 1651.15,616.647 1656.35,614.792 1661.54,612.91 
  1666.74,611.003 1671.94,609.074 1677.13,607.123 1682.33,605.153 1687.53,603.166 1692.73,601.164 1697.92,599.149 1703.12,597.122 1708.32,595.087 1713.51,593.044 
  1718.71,590.996 1723.91,588.946 1729.11,586.894 1734.3,584.844 1739.5,582.797 1744.7,580.755 1749.89,578.72 1755.09,576.694 1760.29,574.68 1765.49,572.679 
  1770.68,570.694 1775.88,568.726 1781.08,566.777 1786.27,564.849 1791.47,562.945 1796.67,561.065 1801.86,559.213 1807.06,557.389 1812.26,555.596 1817.46,553.836 
  1822.65,552.109 1827.85,550.419 1833.05,548.766 1838.24,547.152 1843.44,545.579 1848.64,544.049 1853.84,542.563 1859.03,541.122 1864.23,539.728 1869.43,538.382 
  1874.62,537.086 1879.82,535.84 1885.02,534.647 1890.22,533.508 1895.41,532.423 1900.61,531.393 1905.81,530.42 1911,529.505 1916.2,528.648 1921.4,527.85 
  1926.59,527.113 1931.79,526.436 1936.99,525.821 1942.19,525.269 1947.38,524.779 1952.58,524.352 1957.78,523.989 1962.97,523.69 1968.17,523.455 1973.37,523.285 
  1978.57,523.179 1983.76,523.139 1988.96,523.163 1994.16,523.252 1999.35,523.406 2004.55,523.624 2009.75,523.907 2014.95,524.254 2020.14,524.664 2025.34,525.138 
  2030.54,525.675 2035.73,526.274 2040.93,526.935 2046.13,527.657 2051.32,528.439 2056.52,529.281 2061.72,530.182 2066.92,531.14 2072.11,532.155 2077.31,533.226 
  2082.51,534.352 2087.7,535.532 2092.9,536.764 2098.1,538.047 2103.3,539.38 2108.49,540.762 2113.69,542.191 2118.89,543.666 2124.08,545.185 2129.28,546.747 
  2134.48,548.35 2139.68,549.993 2144.87,551.674 2150.07,553.391 2155.27,555.143 2160.46,556.927 2165.66,558.743 2170.86,560.588 2176.05,562.46 2181.25,564.358 
  2186.45,566.28 2191.65,568.223 2196.84,570.186 2202.04,572.167 2207.24,574.163 2212.43,576.174 2217.63,578.196 2222.83,580.228 2228.03,582.268 2233.22,584.314 
  2238.42,586.363 2243.62,588.414 2248.81,590.464 2254.01,592.512 2259.21,594.556 2264.41,596.593 2269.6,598.621 2274.8,600.639 2280,602.644 2285.19,604.634 
  2290.39,606.608 
  "/>
<polyline clip-path="url(#clip612)" style="stroke:#e26f46; stroke-linecap:butt; stroke-linejoin:round; stroke-width:4; stroke-opacity:1; fill:none" points="
  211.556,936.133 216.753,934.689 221.95,933.051 227.147,931.215 232.344,929.183 237.541,926.958 242.738,924.542 247.936,921.937 253.133,919.145 258.33,916.169 
  263.527,913.012 268.724,909.677 273.921,906.168 279.118,902.488 284.315,898.64 289.512,894.629 294.709,890.459 299.906,886.134 305.103,881.658 310.301,877.036 
  315.498,872.272 320.695,867.371 325.892,862.338 331.089,857.178 336.286,851.896 341.483,846.497 346.68,840.987 351.877,835.372 357.074,829.655 362.271,823.845 
  367.469,817.946 372.666,811.964 377.863,805.905 383.06,799.775 388.257,793.581 393.454,787.329 398.651,781.025 403.848,774.675 409.045,768.286 414.242,761.864 
  419.439,755.415 424.636,748.946 429.834,742.463 435.031,735.973 440.228,729.483 445.425,722.998 450.622,716.526 455.819,710.072 461.016,703.644 466.213,697.247 
  471.41,690.888 476.607,684.573 481.804,678.309 487.002,672.102 492.199,665.958 497.396,659.883 502.593,653.884 507.79,647.966 512.987,642.136 518.184,636.398 
  523.381,630.76 528.578,625.227 533.775,619.804 538.972,614.496 544.17,609.309 549.367,604.248 554.564,599.318 559.761,594.525 564.958,589.872 570.155,585.364 
  575.352,581.006 580.549,576.803 585.746,572.758 590.943,568.875 596.14,565.159 601.337,561.613 606.535,558.241 611.732,555.045 616.929,552.03 622.126,549.198 
  627.323,546.552 632.52,544.095 637.717,541.829 642.914,539.756 648.111,537.879 653.308,536.2 658.505,534.719 663.703,533.439 668.9,532.361 674.097,531.486 
  679.294,530.815 684.491,530.349 689.688,530.087 694.885,530.03 700.082,530.179 705.279,530.534 710.476,531.093 715.673,531.856 720.87,532.823 726.068,533.992 
  731.265,535.362 736.462,536.932 741.659,538.701 746.856,540.667 752.053,542.827 757.25,545.179 762.447,547.721 767.644,550.451 772.841,553.366 778.038,556.463 
  783.236,559.739 788.433,563.19 793.63,566.813 798.827,570.605 804.024,574.56 809.221,578.677 814.418,582.951 819.615,587.377 824.812,591.951 830.009,596.668 
  835.206,601.523 840.403,606.512 845.601,611.63 850.798,616.872 855.995,622.232 861.192,627.706 866.389,633.286 871.586,638.969 876.783,644.748 881.98,650.617 
  887.177,656.571 892.374,662.604 897.571,668.71 902.769,674.882 907.966,681.114 913.163,687.401 918.36,693.735 923.557,700.111 928.754,706.522 933.951,712.962 
  939.148,719.424 944.345,725.902 949.542,732.389 954.739,738.879 959.936,745.366 965.134,751.842 970.331,758.302 975.528,764.739 980.725,771.146 985.922,777.518 
  991.119,783.847 996.316,790.127 1001.51,796.353 1006.71,802.518 1011.91,808.615 1017.1,814.639 1022.3,820.583 1027.5,826.443 1032.7,832.211 1037.89,837.882 
  1043.09,843.45 1048.29,848.91 1053.48,854.257 1058.68,859.485 1063.88,864.588 1069.08,869.562 1074.27,874.402 1079.47,879.103 1084.67,883.659 1089.86,888.068 
  1095.06,892.323 1100.26,896.422 1105.45,900.359 1110.65,904.132 1115.85,907.735 1121.05,911.166 1126.24,914.421 1131.44,917.497 1136.64,920.391 1141.83,923.099 
  1147.03,925.62 1152.23,927.95 1157.43,930.088 1162.62,932.031 1167.82,933.777 1173.02,935.325 1178.21,936.673 1183.41,937.819 1188.61,938.763 1193.81,939.503 
  1199,940.038 1204.2,940.37 1209.4,940.496 1214.59,940.417 1219.79,940.133 1224.99,939.644 1230.19,938.95 1235.38,938.053 1240.58,936.953 1245.78,935.652 
  1250.97,934.151 1256.17,932.45 1261.37,930.552 1266.56,928.459 1271.76,926.172 1276.96,923.695 1282.16,921.03 1287.35,918.179 1292.55,915.145 1297.75,911.931 
  1302.94,908.54 1308.14,904.976 1313.34,901.243 1318.54,897.344 1323.73,893.282 1328.93,889.063 1334.13,884.69 1339.32,880.167 1344.52,875.5 1349.72,870.692 
  1354.92,865.749 1360.11,860.676 1365.31,855.478 1370.51,850.158 1375.7,844.725 1380.9,839.181 1386.1,833.534 1391.29,827.789 1396.49,821.952 1401.69,816.027 
  1406.89,810.022 1412.08,803.943 1417.28,797.794 1422.48,791.583 1427.67,785.316 1432.87,778.999 1438.07,772.639 1443.27,766.241 1448.46,759.811 1453.66,753.358 
  1458.86,746.886 1464.05,740.403 1469.25,733.915 1474.45,727.429 1479.65,720.95 1484.84,714.485 1490.04,708.042 1495.24,701.625 1500.43,695.243 1505.63,688.9 
  1510.83,682.604 1516.02,676.361 1521.22,670.176 1526.42,664.057 1531.62,658.009 1536.81,652.038 1542.01,646.151 1547.21,640.352 1552.4,634.649 1557.6,629.046 
  1562.8,623.55 1568,618.166 1573.19,612.898 1578.39,607.753 1583.59,602.736 1588.78,597.851 1593.98,593.103 1599.18,588.498 1604.38,584.04 1609.57,579.733 
  1614.77,575.581 1619.97,571.589 1625.16,567.761 1630.36,564.101 1635.56,560.612 1640.75,557.297 1645.95,554.161 1651.15,551.205 1656.35,548.434 1661.54,545.849 
  1666.74,543.454 1671.94,541.251 1677.13,539.242 1682.33,537.429 1687.53,535.814 1692.73,534.398 1697.92,533.183 1703.12,532.17 1708.32,531.361 1713.51,530.755 
  1718.71,530.354 1723.91,530.158 1729.11,530.167 1734.3,530.381 1739.5,530.8 1744.7,531.424 1749.89,532.251 1755.09,533.282 1760.29,534.514 1765.49,535.947 
  1770.68,537.579 1775.88,539.409 1781.08,541.436 1786.27,543.656 1791.47,546.067 1796.67,548.668 1801.86,551.456 1807.06,554.426 1812.26,557.578 1817.46,560.908 
  1822.65,564.412 1827.85,568.088 1833.05,571.93 1838.24,575.935 1843.44,580.1 1848.64,584.419 1853.84,588.89 1859.03,593.508 1864.23,598.267 1869.43,603.163 
  1874.62,608.191 1879.82,613.346 1885.02,618.623 1890.22,624.016 1895.41,629.521 1900.61,635.132 1905.81,640.843 1911,646.648 1916.2,652.542 1921.4,658.518 
  1926.59,664.572 1931.79,670.696 1936.99,676.884 1942.19,683.131 1947.38,689.43 1952.58,695.775 1957.78,702.159 1962.97,708.576 1968.17,715.021 1973.37,721.485 
  1978.57,727.963 1983.76,734.449 1988.96,740.935 1994.16,747.415 1999.35,753.883 2004.55,760.333 2009.75,766.758 2014.95,773.151 2020.14,779.506 2025.34,785.817 
  2030.54,792.078 2035.73,798.281 2040.93,804.422 2046.13,810.493 2051.32,816.489 2056.52,822.404 2061.72,828.232 2066.92,833.967 2072.11,839.603 2077.31,845.135 
  2082.51,850.557 2087.7,855.863 2092.9,861.049 2098.1,866.109 2103.3,871.039 2108.49,875.832 2113.69,880.485 2118.89,884.993 2124.08,889.351 2129.28,893.555 
  2134.48,897.601 2139.68,901.484 2144.87,905.201 2150.07,908.749 2155.27,912.122 2160.46,915.319 2165.66,918.336 2170.86,921.169 2176.05,923.817 2181.25,926.277 
  2186.45,928.545 2191.65,930.62 2196.84,932.5 2202.04,934.182 2207.24,935.666 2212.43,936.949 2217.63,938.031 2222.83,938.91 2228.03,939.584 2233.22,940.055 
  2238.42,940.321 2243.62,940.382 2248.81,940.238 2254.01,939.89 2259.21,939.336 2264.41,938.578 2269.6,937.617 2274.8,936.454 2280,935.089 2285.19,933.525 
  2290.39,931.763 
  "/>
<polyline clip-path="url(#clip612)" style="stroke:#3da44d; stroke-linecap:butt; stroke-linejoin:round; stroke-width:4; stroke-opacity:1; fill:none" points="
  211.556,601.394 216.753,581.384 221.95,561.527 227.147,541.847 232.344,522.361 237.541,503.089 242.738,484.05 247.936,465.263 253.133,446.744 258.33,428.512 
  263.527,410.584 268.724,392.978 273.921,375.714 279.118,358.808 284.315,342.279 289.512,326.142 294.709,310.415 299.906,295.112 305.103,280.249 310.301,265.839 
  315.498,251.899 320.695,238.444 325.892,225.483 331.089,213.032 336.286,201.104 341.483,189.71 346.68,178.862 351.877,168.57 357.074,158.845 362.271,149.697 
  367.469,141.135 372.666,133.167 377.863,125.802 383.06,119.046 388.257,112.906 393.454,107.389 398.651,102.5 403.848,98.2435 409.045,94.624 414.242,91.6451 
  419.439,89.3098 424.636,87.6204 429.834,86.5787 435.031,86.1857 440.228,86.4417 445.425,87.3465 450.622,88.8993 455.819,91.0984 461.016,93.9418 466.213,97.4264 
  471.41,101.549 476.607,106.305 481.804,111.691 487.002,117.7 492.199,124.327 497.396,131.564 502.593,139.406 507.79,147.843 512.987,156.868 518.184,166.472 
  523.381,176.644 528.578,187.374 533.775,198.653 538.972,210.468 544.17,222.808 549.367,235.66 554.564,249.012 559.761,262.85 564.958,277.161 570.155,291.929 
  575.352,307.141 580.549,322.781 585.746,338.833 590.943,355.282 596.14,372.111 601.337,389.303 606.535,406.841 611.732,424.707 616.929,442.884 622.126,461.353 
  627.323,480.097 632.52,499.095 637.717,518.33 642.914,537.782 648.111,557.432 653.308,577.259 658.505,597.244 663.703,617.368 668.9,637.61 674.097,657.95 
  679.294,678.368 684.491,698.842 689.688,719.352 694.885,739.877 700.082,760.399 705.279,780.896 710.476,801.347 715.673,821.732 720.87,842.03 726.068,862.221 
  731.265,882.285 736.462,902.202 741.659,921.952 746.856,941.515 752.053,960.872 757.25,980.003 762.447,998.888 767.644,1017.51 772.841,1035.85 778.038,1053.89 
  783.236,1071.61 788.433,1088.99 793.63,1106.02 798.827,1122.68 804.024,1138.95 809.221,1154.82 814.418,1170.27 819.615,1185.28 824.812,1199.84 830.009,1213.94 
  835.206,1227.56 840.403,1240.69 845.601,1253.31 850.798,1265.42 855.995,1276.99 861.192,1288.02 866.389,1298.5 871.586,1308.42 876.783,1317.76 881.98,1326.52 
  887.177,1334.69 892.374,1342.26 897.571,1349.22 902.769,1355.57 907.966,1361.3 913.163,1366.4 918.36,1370.87 923.557,1374.71 928.754,1377.9 933.951,1380.46 
  939.148,1382.36 944.345,1383.63 949.542,1384.24 954.739,1384.2 959.936,1383.52 965.134,1382.18 970.331,1380.2 975.528,1377.58 980.725,1374.31 985.922,1370.4 
  991.119,1365.86 996.316,1360.69 1001.51,1354.89 1006.71,1348.48 1011.91,1341.44 1017.1,1333.81 1022.3,1325.57 1027.5,1316.75 1032.7,1307.34 1037.89,1297.36 
  1043.09,1286.82 1048.29,1275.73 1053.48,1264.1 1058.68,1251.94 1063.88,1239.26 1069.08,1226.08 1074.27,1212.41 1079.47,1198.26 1084.67,1183.64 1089.86,1168.58 
  1095.06,1153.09 1100.26,1137.18 1105.45,1120.87 1110.65,1104.17 1115.85,1087.1 1121.05,1069.68 1126.24,1051.93 1131.44,1033.86 1136.64,1015.49 1141.83,996.84 
  1147.03,977.929 1152.23,958.776 1157.43,939.4 1162.62,919.819 1167.82,900.055 1173.02,880.126 1178.21,860.053 1183.41,839.854 1188.61,819.551 1193.81,799.163 
  1199,778.712 1204.2,758.218 1209.4,737.701 1214.59,717.182 1219.79,696.681 1224.99,676.219 1230.19,655.815 1235.38,635.491 1240.58,615.268 1245.78,595.164 
  1250.97,575.201 1256.17,555.398 1261.37,535.775 1266.56,516.351 1271.76,497.147 1276.96,478.18 1282.16,459.471 1287.35,441.038 1292.55,422.899 1297.75,405.073 
  1302.94,387.577 1308.14,370.429 1313.34,353.646 1318.54,337.245 1323.73,321.241 1328.93,305.652 1334.13,290.492 1339.32,275.778 1344.52,261.523 1349.72,247.742 
  1354.92,234.449 1360.11,221.656 1365.31,209.376 1370.51,197.624 1375.7,186.409 1380.9,175.743 1386.1,165.636 1391.29,156.099 1396.49,147.141 1401.69,138.771 
  1406.89,130.999 1412.08,123.83 1417.28,117.274 1422.48,111.335 1427.67,106.02 1432.87,101.334 1438.07,97.2809 1443.27,93.8676 1448.46,91.0958 1453.66,88.9682 
  1458.86,87.4868 1464.05,86.6529 1469.25,86.4671 1474.45,86.9294 1479.65,88.0418 1484.84,89.8014 1490.04,92.2066 1495.24,95.2547 1500.43,98.9425 1505.63,103.266 
  1510.83,108.221 1516.02,113.804 1521.22,120.009 1526.42,126.83 1531.62,134.258 1536.81,142.288 1542.01,150.91 1547.21,160.115 1552.4,169.896 1557.6,180.244 
  1562.8,191.147 1568,202.593 1573.19,214.572 1578.39,227.071 1583.59,240.078 1588.78,253.58 1593.98,267.565 1599.18,282.017 1604.38,296.923 1609.57,312.266 
  1614.77,328.033 1619.97,344.205 1625.16,360.769 1630.36,377.709 1635.56,395.006 1640.75,412.643 1645.95,430.602 1651.15,448.866 1656.35,467.415 1661.54,486.233 
  1666.74,505.3 1671.94,524.597 1677.13,544.105 1682.33,563.803 1687.53,583.673 1692.73,603.694 1697.92,623.846 1703.12,644.11 1708.32,664.466 1713.51,684.892 
  1718.71,705.368 1723.91,725.875 1729.11,746.39 1734.3,766.893 1739.5,787.366 1744.7,807.786 1749.89,828.134 1755.09,848.389 1760.29,868.53 1765.49,888.538 
  1770.68,908.393 1775.88,928.074 1781.08,947.563 1786.27,966.839 1791.47,985.884 1796.67,1004.68 1801.86,1023.2 1807.06,1041.44 1812.26,1059.37 1817.46,1076.97 
  1822.65,1094.24 1827.85,1111.14 1833.05,1127.67 1838.24,1143.81 1843.44,1159.54 1848.64,1174.84 1853.84,1189.71 1859.03,1204.11 1864.23,1218.06 1869.43,1231.51 
  1874.62,1244.47 1879.82,1256.93 1885.02,1268.86 1890.22,1280.26 1895.41,1291.11 1900.61,1301.4 1905.81,1311.13 1911,1320.29 1916.2,1328.86 1921.4,1336.83 
  1926.59,1344.21 1931.79,1350.97 1936.99,1357.12 1942.19,1362.65 1947.38,1367.55 1952.58,1371.81 1957.78,1375.45 1962.97,1378.44 1968.17,1380.78 1973.37,1382.48 
  1978.57,1383.54 1983.76,1383.95 1988.96,1383.7 1994.16,1382.81 1999.35,1381.28 2004.55,1379.09 2009.75,1376.26 2014.95,1372.79 2020.14,1368.69 2025.34,1363.95 
  2030.54,1358.58 2035.73,1352.59 2040.93,1345.98 2046.13,1338.76 2051.32,1330.94 2056.52,1322.52 2061.72,1313.51 2066.92,1303.93 2072.11,1293.78 2077.31,1283.07 
  2082.51,1271.81 2087.7,1260.01 2092.9,1247.69 2098.1,1234.86 2103.3,1221.53 2108.49,1207.71 2113.69,1193.42 2118.89,1178.68 2124.08,1163.48 2129.28,1147.86 
  2134.48,1131.83 2139.68,1115.4 2144.87,1098.6 2150.07,1081.42 2155.27,1063.91 2160.46,1046.06 2165.66,1027.9 2170.86,1009.45 2176.05,990.73 2181.25,971.752 
  2186.45,952.536 2191.65,933.103 2196.84,913.473 2202.04,893.664 2207.24,873.698 2212.43,853.594 2217.63,833.371 2222.83,813.05 2228.03,792.651 2233.22,772.195 
  2238.42,751.703 2243.62,731.194 2248.81,710.689 2254.01,690.21 2259.21,669.775 2264.41,649.405 2269.6,629.122 2274.8,608.945 2280,588.895 2285.19,568.991 
  2290.39,549.253 
  "/>
<path clip-path="url(#clip610)" d="
M1550.58 335.029 L2279.3 335.029 L2279.3 93.1086 L1550.58 93.1086  Z
  " fill="#ffffff" fill-rule="evenodd" fill-opacity="1"/>
<polyline clip-path="url(#clip610)" style="stroke:#000000; stroke-linecap:butt; stroke-linejoin:round; stroke-width:4; stroke-opacity:1; fill:none" points="
  1550.58,335.029 2279.3,335.029 2279.3,93.1086 1550.58,93.1086 1550.58,335.029 
  "/>
<polyline clip-path="url(#clip610)" style="stroke:#009af9; stroke-linecap:butt; stroke-linejoin:round; stroke-width:4; stroke-opacity:1; fill:none" points="
  1575.06,153.589 1721.97,153.589 
  "/>
<path clip-path="url(#clip610)" d="M1766.8 149.92 Q1768.39 147.049 1770.62 145.684 Q1772.84 144.318 1775.85 144.318 Q1779.9 144.318 1782.1 147.165 Q1784.3 149.989 1784.3 155.221 L1784.3 170.869 L1780.01 170.869 L1780.01 155.359 Q1780.01 151.633 1778.69 149.827 Q1777.38 148.022 1774.67 148.022 Q1771.36 148.022 1769.44 150.221 Q1767.51 152.42 1767.51 156.216 L1767.51 170.869 L1763.23 170.869 L1763.23 155.359 Q1763.23 151.609 1761.91 149.827 Q1760.59 148.022 1757.84 148.022 Q1754.57 148.022 1752.65 150.244 Q1750.73 152.443 1750.73 156.216 L1750.73 170.869 L1746.45 170.869 L1746.45 144.943 L1750.73 144.943 L1750.73 148.971 Q1752.19 146.586 1754.23 145.452 Q1756.26 144.318 1759.07 144.318 Q1761.89 144.318 1763.86 145.753 Q1765.85 147.188 1766.8 149.92 Z" fill="#000000" fill-rule="evenodd" fill-opacity="1" /><path clip-path="url(#clip610)" d="M1804.57 157.836 Q1799.41 157.836 1797.42 159.017 Q1795.43 160.197 1795.43 163.045 Q1795.43 165.313 1796.91 166.656 Q1798.42 167.975 1800.99 167.975 Q1804.53 167.975 1806.66 165.475 Q1808.81 162.952 1808.81 158.785 L1808.81 157.836 L1804.57 157.836 M1813.07 156.077 L1813.07 170.869 L1808.81 170.869 L1808.81 166.933 Q1807.35 169.295 1805.18 170.429 Q1803 171.54 1799.85 171.54 Q1795.87 171.54 1793.51 169.318 Q1791.17 167.072 1791.17 163.322 Q1791.17 158.947 1794.09 156.725 Q1797.03 154.503 1802.84 154.503 L1808.81 154.503 L1808.81 154.086 Q1808.81 151.147 1806.87 149.549 Q1804.94 147.929 1801.45 147.929 Q1799.23 147.929 1797.12 148.461 Q1795.01 148.994 1793.07 150.059 L1793.07 146.123 Q1795.41 145.221 1797.61 144.781 Q1799.81 144.318 1801.89 144.318 Q1807.51 144.318 1810.29 147.234 Q1813.07 150.151 1813.07 156.077 Z" fill="#000000" fill-rule="evenodd" fill-opacity="1" /><path clip-path="url(#clip610)" d="M1838.37 145.707 L1838.37 149.734 Q1836.56 148.809 1834.62 148.346 Q1832.68 147.883 1830.59 147.883 Q1827.42 147.883 1825.82 148.855 Q1824.25 149.827 1824.25 151.771 Q1824.25 153.253 1825.38 154.109 Q1826.52 154.943 1829.94 155.707 L1831.4 156.031 Q1835.94 157.003 1837.84 158.785 Q1839.76 160.545 1839.76 163.716 Q1839.76 167.327 1836.89 169.433 Q1834.04 171.54 1829.04 171.54 Q1826.96 171.54 1824.69 171.123 Q1822.44 170.73 1819.94 169.92 L1819.94 165.521 Q1822.31 166.748 1824.6 167.373 Q1826.89 167.975 1829.13 167.975 Q1832.14 167.975 1833.76 166.957 Q1835.38 165.915 1835.38 164.04 Q1835.38 162.304 1834.2 161.378 Q1833.05 160.452 1829.09 159.596 L1827.61 159.248 Q1823.65 158.415 1821.89 156.702 Q1820.13 154.966 1820.13 151.957 Q1820.13 148.299 1822.72 146.309 Q1825.31 144.318 1830.08 144.318 Q1832.44 144.318 1834.53 144.665 Q1836.61 145.012 1838.37 145.707 Z" fill="#000000" fill-rule="evenodd" fill-opacity="1" /><path clip-path="url(#clip610)" d="M1863.07 145.707 L1863.07 149.734 Q1861.26 148.809 1859.32 148.346 Q1857.37 147.883 1855.29 147.883 Q1852.12 147.883 1850.52 148.855 Q1848.95 149.827 1848.95 151.771 Q1848.95 153.253 1850.08 154.109 Q1851.22 154.943 1854.64 155.707 L1856.1 156.031 Q1860.64 157.003 1862.54 158.785 Q1864.46 160.545 1864.46 163.716 Q1864.46 167.327 1861.59 169.433 Q1858.74 171.54 1853.74 171.54 Q1851.66 171.54 1849.39 171.123 Q1847.14 170.73 1844.64 169.92 L1844.64 165.521 Q1847 166.748 1849.3 167.373 Q1851.59 167.975 1853.83 167.975 Q1856.84 167.975 1858.46 166.957 Q1860.08 165.915 1860.08 164.04 Q1860.08 162.304 1858.9 161.378 Q1857.75 160.452 1853.79 159.596 L1852.31 159.248 Q1848.35 158.415 1846.59 156.702 Q1844.83 154.966 1844.83 151.957 Q1844.83 148.299 1847.42 146.309 Q1850.01 144.318 1854.78 144.318 Q1857.14 144.318 1859.23 144.665 Q1861.31 145.012 1863.07 145.707 Z" fill="#000000" fill-rule="evenodd" fill-opacity="1" /><path clip-path="url(#clip610)" d="M1871.84 164.989 L1876.73 164.989 L1876.73 170.869 L1871.84 170.869 L1871.84 164.989 Z" fill="#000000" fill-rule="evenodd" fill-opacity="1" /><path clip-path="url(#clip610)" d="M1902.84 145.707 L1902.84 149.734 Q1901.03 148.809 1899.09 148.346 Q1897.14 147.883 1895.06 147.883 Q1891.89 147.883 1890.29 148.855 Q1888.72 149.827 1888.72 151.771 Q1888.72 153.253 1889.85 154.109 Q1890.99 154.943 1894.41 155.707 L1895.87 156.031 Q1900.41 157.003 1902.3 158.785 Q1904.23 160.545 1904.23 163.716 Q1904.23 167.327 1901.36 169.433 Q1898.51 171.54 1893.51 171.54 Q1891.43 171.54 1889.16 171.123 Q1886.91 170.73 1884.41 169.92 L1884.41 165.521 Q1886.77 166.748 1889.06 167.373 Q1891.36 167.975 1893.6 167.975 Q1896.61 167.975 1898.23 166.957 Q1899.85 165.915 1899.85 164.04 Q1899.85 162.304 1898.67 161.378 Q1897.51 160.452 1893.56 159.596 L1892.07 159.248 Q1888.12 158.415 1886.36 156.702 Q1884.6 154.966 1884.6 151.957 Q1884.6 148.299 1887.19 146.309 Q1889.78 144.318 1894.55 144.318 Q1896.91 144.318 1898.99 144.665 Q1901.08 145.012 1902.84 145.707 Z" fill="#000000" fill-rule="evenodd" fill-opacity="1" /><path clip-path="url(#clip610)" d="M1936.31 134.897 Q1933.21 140.221 1931.7 145.429 Q1930.2 150.637 1930.2 155.984 Q1930.2 161.332 1931.7 166.586 Q1933.23 171.818 1936.31 177.119 L1932.61 177.119 Q1929.13 171.679 1927.4 166.424 Q1925.68 161.17 1925.68 155.984 Q1925.68 150.822 1927.4 145.591 Q1929.11 140.36 1932.61 134.897 L1936.31 134.897 Z" fill="#000000" fill-rule="evenodd" fill-opacity="1" /><path clip-path="url(#clip610)" d="M1959.34 152.234 Q1962.7 152.952 1964.57 155.221 Q1966.47 157.489 1966.47 160.822 Q1966.47 165.938 1962.95 168.739 Q1959.43 171.54 1952.95 171.54 Q1950.78 171.54 1948.46 171.1 Q1946.17 170.683 1943.72 169.827 L1943.72 165.313 Q1945.66 166.447 1947.98 167.026 Q1950.29 167.605 1952.81 167.605 Q1957.21 167.605 1959.5 165.869 Q1961.82 164.133 1961.82 160.822 Q1961.82 157.767 1959.67 156.054 Q1957.54 154.318 1953.72 154.318 L1949.69 154.318 L1949.69 150.475 L1953.9 150.475 Q1957.35 150.475 1959.18 149.109 Q1961.01 147.721 1961.01 145.128 Q1961.01 142.466 1959.11 141.054 Q1957.24 139.619 1953.72 139.619 Q1951.8 139.619 1949.6 140.035 Q1947.4 140.452 1944.76 141.332 L1944.76 137.165 Q1947.42 136.424 1949.74 136.054 Q1952.07 135.684 1954.13 135.684 Q1959.46 135.684 1962.56 138.114 Q1965.66 140.522 1965.66 144.642 Q1965.66 147.512 1964.02 149.503 Q1962.37 151.471 1959.34 152.234 Z" fill="#000000" fill-rule="evenodd" fill-opacity="1" /><path clip-path="url(#clip610)" d="M1989.5 152.234 Q1992.86 152.952 1994.74 155.221 Q1996.63 157.489 1996.63 160.822 Q1996.63 165.938 1993.11 168.739 Q1989.6 171.54 1983.11 171.54 Q1980.94 171.54 1978.62 171.1 Q1976.33 170.683 1973.88 169.827 L1973.88 165.313 Q1975.82 166.447 1978.14 167.026 Q1980.45 167.605 1982.98 167.605 Q1987.37 167.605 1989.67 165.869 Q1991.98 164.133 1991.98 160.822 Q1991.98 157.767 1989.83 156.054 Q1987.7 154.318 1983.88 154.318 L1979.85 154.318 L1979.85 150.475 L1984.06 150.475 Q1987.51 150.475 1989.34 149.109 Q1991.17 147.721 1991.17 145.128 Q1991.17 142.466 1989.27 141.054 Q1987.4 139.619 1983.88 139.619 Q1981.96 139.619 1979.76 140.035 Q1977.56 140.452 1974.92 141.332 L1974.92 137.165 Q1977.58 136.424 1979.9 136.054 Q1982.24 135.684 1984.3 135.684 Q1989.62 135.684 1992.72 138.114 Q1995.82 140.522 1995.82 144.642 Q1995.82 147.512 1994.18 149.503 Q1992.54 151.471 1989.5 152.234 Z" fill="#000000" fill-rule="evenodd" fill-opacity="1" /><path clip-path="url(#clip610)" d="M2005.55 136.309 L2023.9 136.309 L2023.9 140.244 L2009.83 140.244 L2009.83 148.716 Q2010.85 148.369 2011.86 148.207 Q2012.88 148.022 2013.9 148.022 Q2019.69 148.022 2023.07 151.193 Q2026.45 154.364 2026.45 159.781 Q2026.45 165.359 2022.98 168.461 Q2019.5 171.54 2013.18 171.54 Q2011.01 171.54 2008.74 171.17 Q2006.49 170.799 2004.09 170.058 L2004.09 165.359 Q2006.17 166.494 2008.39 167.049 Q2010.61 167.605 2013.09 167.605 Q2017.1 167.605 2019.43 165.498 Q2021.77 163.392 2021.77 159.781 Q2021.77 156.17 2019.43 154.063 Q2017.1 151.957 2013.09 151.957 Q2011.22 151.957 2009.34 152.373 Q2007.49 152.79 2005.55 153.67 L2005.55 136.309 Z" fill="#000000" fill-rule="evenodd" fill-opacity="1" /><path clip-path="url(#clip610)" d="M2035.71 136.309 L2054.06 136.309 L2054.06 140.244 L2039.99 140.244 L2039.99 148.716 Q2041.01 148.369 2042.03 148.207 Q2043.04 148.022 2044.06 148.022 Q2049.85 148.022 2053.23 151.193 Q2056.61 154.364 2056.61 159.781 Q2056.61 165.359 2053.14 168.461 Q2049.67 171.54 2043.35 171.54 Q2041.17 171.54 2038.9 171.17 Q2036.66 170.799 2034.25 170.058 L2034.25 165.359 Q2036.33 166.494 2038.55 167.049 Q2040.78 167.605 2043.25 167.605 Q2047.26 167.605 2049.6 165.498 Q2051.93 163.392 2051.93 159.781 Q2051.93 156.17 2049.6 154.063 Q2047.26 151.957 2043.25 151.957 Q2041.38 151.957 2039.5 152.373 Q2037.65 152.79 2035.71 153.67 L2035.71 136.309 Z" fill="#000000" fill-rule="evenodd" fill-opacity="1" /><path clip-path="url(#clip610)" d="M2078.67 140.383 L2066.86 158.832 L2078.67 158.832 L2078.67 140.383 M2077.44 136.309 L2083.32 136.309 L2083.32 158.832 L2088.25 158.832 L2088.25 162.721 L2083.32 162.721 L2083.32 170.869 L2078.67 170.869 L2078.67 162.721 L2063.07 162.721 L2063.07 158.207 L2077.44 136.309 Z" fill="#000000" fill-rule="evenodd" fill-opacity="1" /><path clip-path="url(#clip610)" d="M2108.83 140.383 L2097.03 158.832 L2108.83 158.832 L2108.83 140.383 M2107.6 136.309 L2113.48 136.309 L2113.48 158.832 L2118.41 158.832 L2118.41 162.721 L2113.48 162.721 L2113.48 170.869 L2108.83 170.869 L2108.83 162.721 L2093.23 162.721 L2093.23 158.207 L2107.6 136.309 Z" fill="#000000" fill-rule="evenodd" fill-opacity="1" /><path clip-path="url(#clip610)" d="M2140.31 152.234 Q2143.67 152.952 2145.54 155.221 Q2147.44 157.489 2147.44 160.822 Q2147.44 165.938 2143.92 168.739 Q2140.41 171.54 2133.92 171.54 Q2131.75 171.54 2129.43 171.1 Q2127.14 170.683 2124.69 169.827 L2124.69 165.313 Q2126.63 166.447 2128.95 167.026 Q2131.26 167.605 2133.79 167.605 Q2138.18 167.605 2140.47 165.869 Q2142.79 164.133 2142.79 160.822 Q2142.79 157.767 2140.64 156.054 Q2138.51 154.318 2134.69 154.318 L2130.66 154.318 L2130.66 150.475 L2134.87 150.475 Q2138.32 150.475 2140.15 149.109 Q2141.98 147.721 2141.98 145.128 Q2141.98 142.466 2140.08 141.054 Q2138.21 139.619 2134.69 139.619 Q2132.77 139.619 2130.57 140.035 Q2128.37 140.452 2125.73 141.332 L2125.73 137.165 Q2128.39 136.424 2130.71 136.054 Q2133.04 135.684 2135.1 135.684 Q2140.43 135.684 2143.53 138.114 Q2146.63 140.522 2146.63 144.642 Q2146.63 147.512 2144.99 149.503 Q2143.35 151.471 2140.31 152.234 Z" fill="#000000" fill-rule="evenodd" fill-opacity="1" /><path clip-path="url(#clip610)" d="M2160.34 166.933 L2176.66 166.933 L2176.66 170.869 L2154.71 170.869 L2154.71 166.933 Q2157.37 164.179 2161.96 159.549 Q2166.56 154.896 2167.74 153.554 Q2169.99 151.031 2170.87 149.295 Q2171.77 147.535 2171.77 145.846 Q2171.77 143.091 2169.83 141.355 Q2167.91 139.619 2164.8 139.619 Q2162.6 139.619 2160.15 140.383 Q2157.72 141.147 2154.94 142.697 L2154.94 137.975 Q2157.77 136.841 2160.22 136.262 Q2162.67 135.684 2164.71 135.684 Q2170.08 135.684 2173.28 138.369 Q2176.47 141.054 2176.47 145.545 Q2176.47 147.674 2175.66 149.596 Q2174.87 151.494 2172.77 154.086 Q2172.19 154.758 2169.09 157.975 Q2165.98 161.17 2160.34 166.933 Z" fill="#000000" fill-rule="evenodd" fill-opacity="1" /><path clip-path="url(#clip610)" d="M2185.2 134.897 L2188.9 134.897 Q2192.37 140.36 2194.09 145.591 Q2195.82 150.822 2195.82 155.984 Q2195.82 161.17 2194.09 166.424 Q2192.37 171.679 2188.9 177.119 L2185.2 177.119 Q2188.28 171.818 2189.78 166.586 Q2191.31 161.332 2191.31 155.984 Q2191.31 150.637 2189.78 145.429 Q2188.28 140.221 2185.2 134.897 Z" fill="#000000" fill-rule="evenodd" fill-opacity="1" /><polyline clip-path="url(#clip610)" style="stroke:#e26f46; stroke-linecap:butt; stroke-linejoin:round; stroke-width:4; stroke-opacity:1; fill:none" points="
  1575.06,214.069 1721.97,214.069 
  "/>
<path clip-path="url(#clip610)" d="M1766.8 210.4 Q1768.39 207.529 1770.62 206.164 Q1772.84 204.798 1775.85 204.798 Q1779.9 204.798 1782.1 207.645 Q1784.3 210.469 1784.3 215.701 L1784.3 231.349 L1780.01 231.349 L1780.01 215.839 Q1780.01 212.113 1778.69 210.307 Q1777.38 208.502 1774.67 208.502 Q1771.36 208.502 1769.44 210.701 Q1767.51 212.9 1767.51 216.696 L1767.51 231.349 L1763.23 231.349 L1763.23 215.839 Q1763.23 212.089 1761.91 210.307 Q1760.59 208.502 1757.84 208.502 Q1754.57 208.502 1752.65 210.724 Q1750.73 212.923 1750.73 216.696 L1750.73 231.349 L1746.45 231.349 L1746.45 205.423 L1750.73 205.423 L1750.73 209.451 Q1752.19 207.066 1754.23 205.932 Q1756.26 204.798 1759.07 204.798 Q1761.89 204.798 1763.86 206.233 Q1765.85 207.668 1766.8 210.4 Z" fill="#000000" fill-rule="evenodd" fill-opacity="1" /><path clip-path="url(#clip610)" d="M1804.57 218.316 Q1799.41 218.316 1797.42 219.497 Q1795.43 220.677 1795.43 223.525 Q1795.43 225.793 1796.91 227.136 Q1798.42 228.455 1800.99 228.455 Q1804.53 228.455 1806.66 225.955 Q1808.81 223.432 1808.81 219.265 L1808.81 218.316 L1804.57 218.316 M1813.07 216.557 L1813.07 231.349 L1808.81 231.349 L1808.81 227.413 Q1807.35 229.775 1805.18 230.909 Q1803 232.02 1799.85 232.02 Q1795.87 232.02 1793.51 229.798 Q1791.17 227.552 1791.17 223.802 Q1791.17 219.427 1794.09 217.205 Q1797.03 214.983 1802.84 214.983 L1808.81 214.983 L1808.81 214.566 Q1808.81 211.627 1806.87 210.029 Q1804.94 208.409 1801.45 208.409 Q1799.23 208.409 1797.12 208.941 Q1795.01 209.474 1793.07 210.539 L1793.07 206.603 Q1795.41 205.701 1797.61 205.261 Q1799.81 204.798 1801.89 204.798 Q1807.51 204.798 1810.29 207.714 Q1813.07 210.631 1813.07 216.557 Z" fill="#000000" fill-rule="evenodd" fill-opacity="1" /><path clip-path="url(#clip610)" d="M1838.37 206.187 L1838.37 210.214 Q1836.56 209.289 1834.62 208.826 Q1832.68 208.363 1830.59 208.363 Q1827.42 208.363 1825.82 209.335 Q1824.25 210.307 1824.25 212.251 Q1824.25 213.733 1825.38 214.589 Q1826.52 215.423 1829.94 216.187 L1831.4 216.511 Q1835.94 217.483 1837.84 219.265 Q1839.76 221.025 1839.76 224.196 Q1839.76 227.807 1836.89 229.913 Q1834.04 232.02 1829.04 232.02 Q1826.96 232.02 1824.69 231.603 Q1822.44 231.21 1819.94 230.4 L1819.94 226.001 Q1822.31 227.228 1824.6 227.853 Q1826.89 228.455 1829.13 228.455 Q1832.14 228.455 1833.76 227.437 Q1835.38 226.395 1835.38 224.52 Q1835.38 222.784 1834.2 221.858 Q1833.05 220.932 1829.09 220.076 L1827.61 219.728 Q1823.65 218.895 1821.89 217.182 Q1820.13 215.446 1820.13 212.437 Q1820.13 208.779 1822.72 206.789 Q1825.31 204.798 1830.08 204.798 Q1832.44 204.798 1834.53 205.145 Q1836.61 205.492 1838.37 206.187 Z" fill="#000000" fill-rule="evenodd" fill-opacity="1" /><path clip-path="url(#clip610)" d="M1863.07 206.187 L1863.07 210.214 Q1861.26 209.289 1859.32 208.826 Q1857.37 208.363 1855.29 208.363 Q1852.12 208.363 1850.52 209.335 Q1848.95 210.307 1848.95 212.251 Q1848.95 213.733 1850.08 214.589 Q1851.22 215.423 1854.64 216.187 L1856.1 216.511 Q1860.64 217.483 1862.54 219.265 Q1864.46 221.025 1864.46 224.196 Q1864.46 227.807 1861.59 229.913 Q1858.74 232.02 1853.74 232.02 Q1851.66 232.02 1849.39 231.603 Q1847.14 231.21 1844.64 230.4 L1844.64 226.001 Q1847 227.228 1849.3 227.853 Q1851.59 228.455 1853.83 228.455 Q1856.84 228.455 1858.46 227.437 Q1860.08 226.395 1860.08 224.52 Q1860.08 222.784 1858.9 221.858 Q1857.75 220.932 1853.79 220.076 L1852.31 219.728 Q1848.35 218.895 1846.59 217.182 Q1844.83 215.446 1844.83 212.437 Q1844.83 208.779 1847.42 206.789 Q1850.01 204.798 1854.78 204.798 Q1857.14 204.798 1859.23 205.145 Q1861.31 205.492 1863.07 206.187 Z" fill="#000000" fill-rule="evenodd" fill-opacity="1" /><path clip-path="url(#clip610)" d="M1871.84 225.469 L1876.73 225.469 L1876.73 231.349 L1871.84 231.349 L1871.84 225.469 Z" fill="#000000" fill-rule="evenodd" fill-opacity="1" /><path clip-path="url(#clip610)" d="M1883.25 205.423 L1887.77 205.423 L1895.87 227.182 L1903.97 205.423 L1908.49 205.423 L1898.76 231.349 L1892.98 231.349 L1883.25 205.423 Z" fill="#000000" fill-rule="evenodd" fill-opacity="1" /><path clip-path="url(#clip610)" d="M1939.67 195.377 Q1936.56 200.701 1935.06 205.909 Q1933.55 211.117 1933.55 216.464 Q1933.55 221.812 1935.06 227.066 Q1936.59 232.298 1939.67 237.599 L1935.96 237.599 Q1932.49 232.159 1930.75 226.904 Q1929.04 221.65 1929.04 216.464 Q1929.04 211.302 1930.75 206.071 Q1932.47 200.84 1935.96 195.377 L1939.67 195.377 Z" fill="#000000" fill-rule="evenodd" fill-opacity="1" /><path clip-path="url(#clip610)" d="M1962.7 212.714 Q1966.05 213.432 1967.93 215.701 Q1969.83 217.969 1969.83 221.302 Q1969.83 226.418 1966.31 229.219 Q1962.79 232.02 1956.31 232.02 Q1954.13 232.02 1951.82 231.58 Q1949.53 231.163 1947.07 230.307 L1947.07 225.793 Q1949.02 226.927 1951.33 227.506 Q1953.65 228.085 1956.17 228.085 Q1960.57 228.085 1962.86 226.349 Q1965.18 224.613 1965.18 221.302 Q1965.18 218.247 1963.02 216.534 Q1960.89 214.798 1957.07 214.798 L1953.05 214.798 L1953.05 210.955 L1957.26 210.955 Q1960.71 210.955 1962.54 209.589 Q1964.36 208.201 1964.36 205.608 Q1964.36 202.946 1962.47 201.534 Q1960.59 200.099 1957.07 200.099 Q1955.15 200.099 1952.95 200.515 Q1950.75 200.932 1948.11 201.812 L1948.11 197.645 Q1950.78 196.904 1953.09 196.534 Q1955.43 196.164 1957.49 196.164 Q1962.81 196.164 1965.92 198.594 Q1969.02 201.002 1969.02 205.122 Q1969.02 207.992 1967.37 209.983 Q1965.73 211.951 1962.7 212.714 Z" fill="#000000" fill-rule="evenodd" fill-opacity="1" /><path clip-path="url(#clip610)" d="M1992.86 212.714 Q1996.22 213.432 1998.09 215.701 Q1999.99 217.969 1999.99 221.302 Q1999.99 226.418 1996.47 229.219 Q1992.95 232.02 1986.47 232.02 Q1984.3 232.02 1981.98 231.58 Q1979.69 231.163 1977.24 230.307 L1977.24 225.793 Q1979.18 226.927 1981.49 227.506 Q1983.81 228.085 1986.33 228.085 Q1990.73 228.085 1993.02 226.349 Q1995.34 224.613 1995.34 221.302 Q1995.34 218.247 1993.18 216.534 Q1991.05 214.798 1987.24 214.798 L1983.21 214.798 L1983.21 210.955 L1987.42 210.955 Q1990.87 210.955 1992.7 209.589 Q1994.53 208.201 1994.53 205.608 Q1994.53 202.946 1992.63 201.534 Q1990.75 200.099 1987.24 200.099 Q1985.31 200.099 1983.11 200.515 Q1980.92 200.932 1978.28 201.812 L1978.28 197.645 Q1980.94 196.904 1983.25 196.534 Q1985.59 196.164 1987.65 196.164 Q1992.98 196.164 1996.08 198.594 Q1999.18 201.002 1999.18 205.122 Q1999.18 207.992 1997.54 209.983 Q1995.89 211.951 1992.86 212.714 Z" fill="#000000" fill-rule="evenodd" fill-opacity="1" /><path clip-path="url(#clip610)" d="M2008.9 196.789 L2027.26 196.789 L2027.26 200.724 L2013.18 200.724 L2013.18 209.196 Q2014.2 208.849 2015.22 208.687 Q2016.24 208.502 2017.26 208.502 Q2023.05 208.502 2026.42 211.673 Q2029.8 214.844 2029.8 220.261 Q2029.8 225.839 2026.33 228.941 Q2022.86 232.02 2016.54 232.02 Q2014.36 232.02 2012.1 231.65 Q2009.85 231.279 2007.44 230.538 L2007.44 225.839 Q2009.53 226.974 2011.75 227.529 Q2013.97 228.085 2016.45 228.085 Q2020.45 228.085 2022.79 225.978 Q2025.13 223.872 2025.13 220.261 Q2025.13 216.65 2022.79 214.543 Q2020.45 212.437 2016.45 212.437 Q2014.57 212.437 2012.7 212.853 Q2010.85 213.27 2008.9 214.15 L2008.9 196.789 Z" fill="#000000" fill-rule="evenodd" fill-opacity="1" /><path clip-path="url(#clip610)" d="M2039.06 196.789 L2057.42 196.789 L2057.42 200.724 L2043.35 200.724 L2043.35 209.196 Q2044.36 208.849 2045.38 208.687 Q2046.4 208.502 2047.42 208.502 Q2053.21 208.502 2056.59 211.673 Q2059.97 214.844 2059.97 220.261 Q2059.97 225.839 2056.49 228.941 Q2053.02 232.02 2046.7 232.02 Q2044.53 232.02 2042.26 231.65 Q2040.01 231.279 2037.61 230.538 L2037.61 225.839 Q2039.69 226.974 2041.91 227.529 Q2044.13 228.085 2046.61 228.085 Q2050.61 228.085 2052.95 225.978 Q2055.29 223.872 2055.29 220.261 Q2055.29 216.65 2052.95 214.543 Q2050.61 212.437 2046.61 212.437 Q2044.73 212.437 2042.86 212.853 Q2041.01 213.27 2039.06 214.15 L2039.06 196.789 Z" fill="#000000" fill-rule="evenodd" fill-opacity="1" /><path clip-path="url(#clip610)" d="M2082.03 200.863 L2070.22 219.312 L2082.03 219.312 L2082.03 200.863 M2080.8 196.789 L2086.68 196.789 L2086.68 219.312 L2091.61 219.312 L2091.61 223.201 L2086.68 223.201 L2086.68 231.349 L2082.03 231.349 L2082.03 223.201 L2066.42 223.201 L2066.42 218.687 L2080.8 196.789 Z" fill="#000000" fill-rule="evenodd" fill-opacity="1" /><path clip-path="url(#clip610)" d="M2112.19 200.863 L2100.38 219.312 L2112.19 219.312 L2112.19 200.863 M2110.96 196.789 L2116.84 196.789 L2116.84 219.312 L2121.77 219.312 L2121.77 223.201 L2116.84 223.201 L2116.84 231.349 L2112.19 231.349 L2112.19 223.201 L2096.59 223.201 L2096.59 218.687 L2110.96 196.789 Z" fill="#000000" fill-rule="evenodd" fill-opacity="1" /><path clip-path="url(#clip610)" d="M2143.67 212.714 Q2147.03 213.432 2148.9 215.701 Q2150.8 217.969 2150.8 221.302 Q2150.8 226.418 2147.28 229.219 Q2143.76 232.02 2137.28 232.02 Q2135.1 232.02 2132.79 231.58 Q2130.5 231.163 2128.04 230.307 L2128.04 225.793 Q2129.99 226.927 2132.3 227.506 Q2134.62 228.085 2137.14 228.085 Q2141.54 228.085 2143.83 226.349 Q2146.15 224.613 2146.15 221.302 Q2146.15 218.247 2143.99 216.534 Q2141.86 214.798 2138.04 214.798 L2134.02 214.798 L2134.02 210.955 L2138.23 210.955 Q2141.68 210.955 2143.51 209.589 Q2145.34 208.201 2145.34 205.608 Q2145.34 202.946 2143.44 201.534 Q2141.56 200.099 2138.04 200.099 Q2136.12 200.099 2133.92 200.515 Q2131.73 200.932 2129.09 201.812 L2129.09 197.645 Q2131.75 196.904 2134.06 196.534 Q2136.4 196.164 2138.46 196.164 Q2143.79 196.164 2146.89 198.594 Q2149.99 201.002 2149.99 205.122 Q2149.99 207.992 2148.35 209.983 Q2146.7 211.951 2143.67 212.714 Z" fill="#000000" fill-rule="evenodd" fill-opacity="1" /><path clip-path="url(#clip610)" d="M2173.83 212.714 Q2177.19 213.432 2179.06 215.701 Q2180.96 217.969 2180.96 221.302 Q2180.96 226.418 2177.44 229.219 Q2173.92 232.02 2167.44 232.02 Q2165.27 232.02 2162.95 231.58 Q2160.66 231.163 2158.21 230.307 L2158.21 225.793 Q2160.15 226.927 2162.47 227.506 Q2164.78 228.085 2167.3 228.085 Q2171.7 228.085 2173.99 226.349 Q2176.31 224.613 2176.31 221.302 Q2176.31 218.247 2174.16 216.534 Q2172.03 214.798 2168.21 214.798 L2164.18 214.798 L2164.18 210.955 L2168.39 210.955 Q2171.84 210.955 2173.67 209.589 Q2175.5 208.201 2175.5 205.608 Q2175.5 202.946 2173.6 201.534 Q2171.72 200.099 2168.21 200.099 Q2166.29 200.099 2164.09 200.515 Q2161.89 200.932 2159.25 201.812 L2159.25 197.645 Q2161.91 196.904 2164.22 196.534 Q2166.56 196.164 2168.62 196.164 Q2173.95 196.164 2177.05 198.594 Q2180.15 201.002 2180.15 205.122 Q2180.15 207.992 2178.51 209.983 Q2176.86 211.951 2173.83 212.714 Z" fill="#000000" fill-rule="evenodd" fill-opacity="1" /><path clip-path="url(#clip610)" d="M2188.55 195.377 L2192.26 195.377 Q2195.73 200.84 2197.44 206.071 Q2199.18 211.302 2199.18 216.464 Q2199.18 221.65 2197.44 226.904 Q2195.73 232.159 2192.26 237.599 L2188.55 237.599 Q2191.63 232.298 2193.14 227.066 Q2194.66 221.812 2194.66 216.464 Q2194.66 211.117 2193.14 205.909 Q2191.63 200.701 2188.55 195.377 Z" fill="#000000" fill-rule="evenodd" fill-opacity="1" /><polyline clip-path="url(#clip610)" style="stroke:#3da44d; stroke-linecap:butt; stroke-linejoin:round; stroke-width:4; stroke-opacity:1; fill:none" points="
  1575.06,274.549 1721.97,274.549 
  "/>
<path clip-path="url(#clip610)" d="M1766.8 270.88 Q1768.39 268.009 1770.62 266.644 Q1772.84 265.278 1775.85 265.278 Q1779.9 265.278 1782.1 268.125 Q1784.3 270.949 1784.3 276.181 L1784.3 291.829 L1780.01 291.829 L1780.01 276.319 Q1780.01 272.593 1778.69 270.787 Q1777.38 268.982 1774.67 268.982 Q1771.36 268.982 1769.44 271.181 Q1767.51 273.38 1767.51 277.176 L1767.51 291.829 L1763.23 291.829 L1763.23 276.319 Q1763.23 272.569 1761.91 270.787 Q1760.59 268.982 1757.84 268.982 Q1754.57 268.982 1752.65 271.204 Q1750.73 273.403 1750.73 277.176 L1750.73 291.829 L1746.45 291.829 L1746.45 265.903 L1750.73 265.903 L1750.73 269.931 Q1752.19 267.546 1754.23 266.412 Q1756.26 265.278 1759.07 265.278 Q1761.89 265.278 1763.86 266.713 Q1765.85 268.148 1766.8 270.88 Z" fill="#000000" fill-rule="evenodd" fill-opacity="1" /><path clip-path="url(#clip610)" d="M1804.57 278.796 Q1799.41 278.796 1797.42 279.977 Q1795.43 281.157 1795.43 284.005 Q1795.43 286.273 1796.91 287.616 Q1798.42 288.935 1800.99 288.935 Q1804.53 288.935 1806.66 286.435 Q1808.81 283.912 1808.81 279.745 L1808.81 278.796 L1804.57 278.796 M1813.07 277.037 L1813.07 291.829 L1808.81 291.829 L1808.81 287.893 Q1807.35 290.255 1805.18 291.389 Q1803 292.5 1799.85 292.5 Q1795.87 292.5 1793.51 290.278 Q1791.17 288.032 1791.17 284.282 Q1791.17 279.907 1794.09 277.685 Q1797.03 275.463 1802.84 275.463 L1808.81 275.463 L1808.81 275.046 Q1808.81 272.107 1806.87 270.509 Q1804.94 268.889 1801.45 268.889 Q1799.23 268.889 1797.12 269.421 Q1795.01 269.954 1793.07 271.019 L1793.07 267.083 Q1795.41 266.181 1797.61 265.741 Q1799.81 265.278 1801.89 265.278 Q1807.51 265.278 1810.29 268.194 Q1813.07 271.111 1813.07 277.037 Z" fill="#000000" fill-rule="evenodd" fill-opacity="1" /><path clip-path="url(#clip610)" d="M1838.37 266.667 L1838.37 270.694 Q1836.56 269.769 1834.62 269.306 Q1832.68 268.843 1830.59 268.843 Q1827.42 268.843 1825.82 269.815 Q1824.25 270.787 1824.25 272.731 Q1824.25 274.213 1825.38 275.069 Q1826.52 275.903 1829.94 276.667 L1831.4 276.991 Q1835.94 277.963 1837.84 279.745 Q1839.76 281.505 1839.76 284.676 Q1839.76 288.287 1836.89 290.393 Q1834.04 292.5 1829.04 292.5 Q1826.96 292.5 1824.69 292.083 Q1822.44 291.69 1819.94 290.88 L1819.94 286.481 Q1822.31 287.708 1824.6 288.333 Q1826.89 288.935 1829.13 288.935 Q1832.14 288.935 1833.76 287.917 Q1835.38 286.875 1835.38 285 Q1835.38 283.264 1834.2 282.338 Q1833.05 281.412 1829.09 280.556 L1827.61 280.208 Q1823.65 279.375 1821.89 277.662 Q1820.13 275.926 1820.13 272.917 Q1820.13 269.259 1822.72 267.269 Q1825.31 265.278 1830.08 265.278 Q1832.44 265.278 1834.53 265.625 Q1836.61 265.972 1838.37 266.667 Z" fill="#000000" fill-rule="evenodd" fill-opacity="1" /><path clip-path="url(#clip610)" d="M1863.07 266.667 L1863.07 270.694 Q1861.26 269.769 1859.32 269.306 Q1857.37 268.843 1855.29 268.843 Q1852.12 268.843 1850.52 269.815 Q1848.95 270.787 1848.95 272.731 Q1848.95 274.213 1850.08 275.069 Q1851.22 275.903 1854.64 276.667 L1856.1 276.991 Q1860.64 277.963 1862.54 279.745 Q1864.46 281.505 1864.46 284.676 Q1864.46 288.287 1861.59 290.393 Q1858.74 292.5 1853.74 292.5 Q1851.66 292.5 1849.39 292.083 Q1847.14 291.69 1844.64 290.88 L1844.64 286.481 Q1847 287.708 1849.3 288.333 Q1851.59 288.935 1853.83 288.935 Q1856.84 288.935 1858.46 287.917 Q1860.08 286.875 1860.08 285 Q1860.08 283.264 1858.9 282.338 Q1857.75 281.412 1853.79 280.556 L1852.31 280.208 Q1848.35 279.375 1846.59 277.662 Q1844.83 275.926 1844.83 272.917 Q1844.83 269.259 1847.42 267.269 Q1850.01 265.278 1854.78 265.278 Q1857.14 265.278 1859.23 265.625 Q1861.31 265.972 1863.07 266.667 Z" fill="#000000" fill-rule="evenodd" fill-opacity="1" /><path clip-path="url(#clip610)" d="M1871.84 285.949 L1876.73 285.949 L1876.73 291.829 L1871.84 291.829 L1871.84 285.949 Z" fill="#000000" fill-rule="evenodd" fill-opacity="1" /><path clip-path="url(#clip610)" d="M1898.09 278.796 Q1892.93 278.796 1890.94 279.977 Q1888.95 281.157 1888.95 284.005 Q1888.95 286.273 1890.43 287.616 Q1891.93 288.935 1894.5 288.935 Q1898.05 288.935 1900.18 286.435 Q1902.33 283.912 1902.33 279.745 L1902.33 278.796 L1898.09 278.796 M1906.59 277.037 L1906.59 291.829 L1902.33 291.829 L1902.33 287.893 Q1900.87 290.255 1898.69 291.389 Q1896.52 292.5 1893.37 292.5 Q1889.39 292.5 1887.03 290.278 Q1884.69 288.032 1884.69 284.282 Q1884.69 279.907 1887.61 277.685 Q1890.55 275.463 1896.36 275.463 L1902.33 275.463 L1902.33 275.046 Q1902.33 272.107 1900.38 270.509 Q1898.46 268.889 1894.97 268.889 Q1892.74 268.889 1890.64 269.421 Q1888.53 269.954 1886.59 271.019 L1886.59 267.083 Q1888.93 266.181 1891.12 265.741 Q1893.32 265.278 1895.41 265.278 Q1901.03 265.278 1903.81 268.194 Q1906.59 271.111 1906.59 277.037 Z" fill="#000000" fill-rule="evenodd" fill-opacity="1" /><path clip-path="url(#clip610)" d="M1940.66 255.857 Q1937.56 261.181 1936.05 266.389 Q1934.55 271.597 1934.55 276.944 Q1934.55 282.292 1936.05 287.546 Q1937.58 292.778 1940.66 298.079 L1936.96 298.079 Q1933.49 292.639 1931.75 287.384 Q1930.04 282.13 1930.04 276.944 Q1930.04 271.782 1931.75 266.551 Q1933.46 261.32 1936.96 255.857 L1940.66 255.857 Z" fill="#000000" fill-rule="evenodd" fill-opacity="1" /><path clip-path="url(#clip610)" d="M1949.57 257.269 L1967.93 257.269 L1967.93 261.204 L1953.86 261.204 L1953.86 269.676 Q1954.87 269.329 1955.89 269.167 Q1956.91 268.982 1957.93 268.982 Q1963.72 268.982 1967.1 272.153 Q1970.48 275.324 1970.48 280.741 Q1970.48 286.319 1967 289.421 Q1963.53 292.5 1957.21 292.5 Q1955.04 292.5 1952.77 292.13 Q1950.52 291.759 1948.11 291.018 L1948.11 286.319 Q1950.2 287.454 1952.42 288.009 Q1954.64 288.565 1957.12 288.565 Q1961.12 288.565 1963.46 286.458 Q1965.8 284.352 1965.8 280.741 Q1965.8 277.13 1963.46 275.023 Q1961.12 272.917 1957.12 272.917 Q1955.24 272.917 1953.37 273.333 Q1951.52 273.75 1949.57 274.63 L1949.57 257.269 Z" fill="#000000" fill-rule="evenodd" fill-opacity="1" /><path clip-path="url(#clip610)" d="M1989.69 275.417 Q1986.36 275.417 1984.43 277.199 Q1982.54 278.981 1982.54 282.106 Q1982.54 285.231 1984.43 287.014 Q1986.36 288.796 1989.69 288.796 Q1993.02 288.796 1994.94 287.014 Q1996.86 285.208 1996.86 282.106 Q1996.86 278.981 1994.94 277.199 Q1993.05 275.417 1989.69 275.417 M1985.01 273.426 Q1982 272.685 1980.31 270.625 Q1978.65 268.565 1978.65 265.602 Q1978.65 261.458 1981.59 259.051 Q1984.55 256.644 1989.69 256.644 Q1994.85 256.644 1997.79 259.051 Q2000.73 261.458 2000.73 265.602 Q2000.73 268.565 1999.04 270.625 Q1997.37 272.685 1994.39 273.426 Q1997.77 274.213 1999.64 276.505 Q2001.54 278.796 2001.54 282.106 Q2001.54 287.13 1998.46 289.815 Q1995.41 292.5 1989.69 292.5 Q1983.97 292.5 1980.89 289.815 Q1977.84 287.13 1977.84 282.106 Q1977.84 278.796 1979.74 276.505 Q1981.63 274.213 1985.01 273.426 M1983.3 266.042 Q1983.3 268.727 1984.97 270.232 Q1986.66 271.736 1989.69 271.736 Q1992.7 271.736 1994.39 270.232 Q1996.1 268.727 1996.1 266.042 Q1996.1 263.357 1994.39 261.852 Q1992.7 260.347 1989.69 260.347 Q1986.66 260.347 1984.97 261.852 Q1983.3 263.357 1983.3 266.042 Z" fill="#000000" fill-rule="evenodd" fill-opacity="1" /><path clip-path="url(#clip610)" d="M2008.67 257.269 L2030.89 257.269 L2030.89 259.259 L2018.35 291.829 L2013.46 291.829 L2025.27 261.204 L2008.67 261.204 L2008.67 257.269 Z" fill="#000000" fill-rule="evenodd" fill-opacity="1" /><path clip-path="url(#clip610)" d="M2044.04 287.893 L2060.36 287.893 L2060.36 291.829 L2038.42 291.829 L2038.42 287.893 Q2041.08 285.139 2045.66 280.509 Q2050.27 275.856 2051.45 274.514 Q2053.69 271.991 2054.57 270.255 Q2055.48 268.495 2055.48 266.806 Q2055.48 264.051 2053.53 262.315 Q2051.61 260.579 2048.51 260.579 Q2046.31 260.579 2043.86 261.343 Q2041.42 262.107 2038.65 263.657 L2038.65 258.935 Q2041.47 257.801 2043.92 257.222 Q2046.38 256.644 2048.42 256.644 Q2053.79 256.644 2056.98 259.329 Q2060.17 262.014 2060.17 266.505 Q2060.17 268.634 2059.36 270.556 Q2058.58 272.454 2056.47 275.046 Q2055.89 275.718 2052.79 278.935 Q2049.69 282.13 2044.04 287.893 Z" fill="#000000" fill-rule="evenodd" fill-opacity="1" /><path clip-path="url(#clip610)" d="M2080.17 260.347 Q2076.56 260.347 2074.73 263.912 Q2072.93 267.454 2072.93 274.583 Q2072.93 281.69 2074.73 285.255 Q2076.56 288.796 2080.17 288.796 Q2083.81 288.796 2085.61 285.255 Q2087.44 281.69 2087.44 274.583 Q2087.44 267.454 2085.61 263.912 Q2083.81 260.347 2080.17 260.347 M2080.17 256.644 Q2085.98 256.644 2089.04 261.25 Q2092.12 265.833 2092.12 274.583 Q2092.12 283.31 2089.04 287.917 Q2085.98 292.5 2080.17 292.5 Q2074.36 292.5 2071.29 287.917 Q2068.23 283.31 2068.23 274.583 Q2068.23 265.833 2071.29 261.25 Q2074.36 256.644 2080.17 256.644 Z" fill="#000000" fill-rule="evenodd" fill-opacity="1" /><path clip-path="url(#clip610)" d="M2104.36 287.893 L2120.68 287.893 L2120.68 291.829 L2098.74 291.829 L2098.74 287.893 Q2101.4 285.139 2105.98 280.509 Q2110.59 275.856 2111.77 274.514 Q2114.02 271.991 2114.9 270.255 Q2115.8 268.495 2115.8 266.806 Q2115.8 264.051 2113.85 262.315 Q2111.93 260.579 2108.83 260.579 Q2106.63 260.579 2104.18 261.343 Q2101.75 262.107 2098.97 263.657 L2098.97 258.935 Q2101.79 257.801 2104.25 257.222 Q2106.7 256.644 2108.74 256.644 Q2114.11 256.644 2117.3 259.329 Q2120.5 262.014 2120.5 266.505 Q2120.5 268.634 2119.69 270.556 Q2118.9 272.454 2116.79 275.046 Q2116.22 275.718 2113.11 278.935 Q2110.01 282.13 2104.36 287.893 Z" fill="#000000" fill-rule="evenodd" fill-opacity="1" /><path clip-path="url(#clip610)" d="M2130.54 257.269 L2148.9 257.269 L2148.9 261.204 L2134.83 261.204 L2134.83 269.676 Q2135.85 269.329 2136.86 269.167 Q2137.88 268.982 2138.9 268.982 Q2144.69 268.982 2148.07 272.153 Q2151.45 275.324 2151.45 280.741 Q2151.45 286.319 2147.97 289.421 Q2144.5 292.5 2138.18 292.5 Q2136.01 292.5 2133.74 292.13 Q2131.49 291.759 2129.09 291.018 L2129.09 286.319 Q2131.17 287.454 2133.39 288.009 Q2135.61 288.565 2138.09 288.565 Q2142.1 288.565 2144.43 286.458 Q2146.77 284.352 2146.77 280.741 Q2146.77 277.13 2144.43 275.023 Q2142.1 272.917 2138.09 272.917 Q2136.22 272.917 2134.34 273.333 Q2132.49 273.75 2130.54 274.63 L2130.54 257.269 Z" fill="#000000" fill-rule="evenodd" fill-opacity="1" /><path clip-path="url(#clip610)" d="M2171.24 272.685 Q2168.09 272.685 2166.24 274.838 Q2164.41 276.991 2164.41 280.741 Q2164.41 284.468 2166.24 286.643 Q2168.09 288.796 2171.24 288.796 Q2174.39 288.796 2176.22 286.643 Q2178.07 284.468 2178.07 280.741 Q2178.07 276.991 2176.22 274.838 Q2174.39 272.685 2171.24 272.685 M2180.52 258.033 L2180.52 262.292 Q2178.76 261.458 2176.96 261.019 Q2175.17 260.579 2173.41 260.579 Q2168.79 260.579 2166.33 263.704 Q2163.9 266.829 2163.55 273.148 Q2164.92 271.134 2166.98 270.069 Q2169.04 268.982 2171.52 268.982 Q2176.72 268.982 2179.73 272.153 Q2182.77 275.301 2182.77 280.741 Q2182.77 286.065 2179.62 289.282 Q2176.47 292.5 2171.24 292.5 Q2165.24 292.5 2162.07 287.917 Q2158.9 283.31 2158.9 274.583 Q2158.9 266.389 2162.79 261.528 Q2166.68 256.644 2173.23 256.644 Q2174.99 256.644 2176.77 256.991 Q2178.58 257.338 2180.52 258.033 Z" fill="#000000" fill-rule="evenodd" fill-opacity="1" /><path clip-path="url(#clip610)" d="M2191.63 287.893 L2199.27 287.893 L2199.27 261.528 L2190.96 263.195 L2190.96 258.935 L2199.22 257.269 L2203.9 257.269 L2203.9 287.893 L2211.54 287.893 L2211.54 291.829 L2191.63 291.829 L2191.63 287.893 Z" fill="#000000" fill-rule="evenodd" fill-opacity="1" /><path clip-path="url(#clip610)" d="M2219.71 255.857 L2223.41 255.857 Q2226.89 261.32 2228.6 266.551 Q2230.34 271.782 2230.34 276.944 Q2230.34 282.13 2228.6 287.384 Q2226.89 292.639 2223.41 298.079 L2219.71 298.079 Q2222.79 292.778 2224.29 287.546 Q2225.82 282.292 2225.82 276.944 Q2225.82 271.597 2224.29 266.389 Q2222.79 261.181 2219.71 255.857 Z" fill="#000000" fill-rule="evenodd" fill-opacity="1" /></svg>
