<?xml version="1.0" encoding="utf-8"?>
<svg xmlns="http://www.w3.org/2000/svg" xmlns:xlink="http://www.w3.org/1999/xlink" width="600" height="400" viewBox="0 0 2400 1600">
<defs>
  <clipPath id="clip880">
    <rect x="0" y="0" width="2400" height="1600"/>
  </clipPath>
</defs>
<path clip-path="url(#clip880)" d="
M0 1600 L2400 1600 L2400 0 L0 0  Z
  " fill="#ffffff" fill-rule="evenodd" fill-opacity="1"/>
<defs>
  <clipPath id="clip881">
    <rect x="480" y="0" width="1681" height="1600"/>
  </clipPath>
</defs>
<path clip-path="url(#clip880)" d="
M303.503 1401.58 L2352.76 1401.58 L2352.76 123.472 L303.503 123.472  Z
  " fill="#ffffff" fill-rule="evenodd" fill-opacity="1"/>
<defs>
  <clipPath id="clip882">
    <rect x="303" y="123" width="2050" height="1279"/>
  </clipPath>
</defs>
<polyline clip-path="url(#clip882)" style="stroke:#000000; stroke-linecap:butt; stroke-linejoin:round; stroke-width:2; stroke-opacity:0.1; fill:none" points="
  361.501,1401.58 361.501,123.472 
  "/>
<polyline clip-path="url(#clip882)" style="stroke:#000000; stroke-linecap:butt; stroke-linejoin:round; stroke-width:2; stroke-opacity:0.1; fill:none" points="
  844.815,1401.58 844.815,123.472 
  "/>
<polyline clip-path="url(#clip882)" style="stroke:#000000; stroke-linecap:butt; stroke-linejoin:round; stroke-width:2; stroke-opacity:0.1; fill:none" points="
  1328.13,1401.58 1328.13,123.472 
  "/>
<polyline clip-path="url(#clip882)" style="stroke:#000000; stroke-linecap:butt; stroke-linejoin:round; stroke-width:2; stroke-opacity:0.1; fill:none" points="
  1811.44,1401.58 1811.44,123.472 
  "/>
<polyline clip-path="url(#clip882)" style="stroke:#000000; stroke-linecap:butt; stroke-linejoin:round; stroke-width:2; stroke-opacity:0.1; fill:none" points="
  2294.76,1401.58 2294.76,123.472 
  "/>
<polyline clip-path="url(#clip880)" style="stroke:#000000; stroke-linecap:butt; stroke-linejoin:round; stroke-width:4; stroke-opacity:1; fill:none" points="
  303.503,1401.58 2352.76,1401.58 
  "/>
<polyline clip-path="url(#clip880)" style="stroke:#000000; stroke-linecap:butt; stroke-linejoin:round; stroke-width:4; stroke-opacity:1; fill:none" points="
  361.501,1401.58 361.501,1382.68 
  "/>
<polyline clip-path="url(#clip880)" style="stroke:#000000; stroke-linecap:butt; stroke-linejoin:round; stroke-width:4; stroke-opacity:1; fill:none" points="
  844.815,1401.58 844.815,1382.68 
  "/>
<polyline clip-path="url(#clip880)" style="stroke:#000000; stroke-linecap:butt; stroke-linejoin:round; stroke-width:4; stroke-opacity:1; fill:none" points="
  1328.13,1401.58 1328.13,1382.68 
  "/>
<polyline clip-path="url(#clip880)" style="stroke:#000000; stroke-linecap:butt; stroke-linejoin:round; stroke-width:4; stroke-opacity:1; fill:none" points="
  1811.44,1401.58 1811.44,1382.68 
  "/>
<polyline clip-path="url(#clip880)" style="stroke:#000000; stroke-linecap:butt; stroke-linejoin:round; stroke-width:4; stroke-opacity:1; fill:none" points="
  2294.76,1401.58 2294.76,1382.68 
  "/>
<path clip-path="url(#clip880)" d="M361.501 1438.36 Q356.084 1438.36 353.341 1443.71 Q350.633 1449.02 350.633 1459.71 Q350.633 1470.37 353.341 1475.72 Q356.084 1481.03 361.501 1481.03 Q366.952 1481.03 369.66 1475.72 Q372.403 1470.37 372.403 1459.71 Q372.403 1449.02 369.66 1443.71 Q366.952 1438.36 361.501 1438.36 M361.501 1432.8 Q370.216 1432.8 374.799 1439.71 Q379.417 1446.59 379.417 1459.71 Q379.417 1472.8 374.799 1479.71 Q370.216 1486.59 361.501 1486.59 Q352.785 1486.59 348.167 1479.71 Q343.584 1472.8 343.584 1459.71 Q343.584 1446.59 348.167 1439.71 Q352.785 1432.8 361.501 1432.8 Z" fill="#000000" fill-rule="evenodd" fill-opacity="1" /><path clip-path="url(#clip880)" d="M830.388 1479.68 L841.846 1479.68 L841.846 1440.13 L829.381 1442.63 L829.381 1436.24 L841.777 1433.74 L848.791 1433.74 L848.791 1479.68 L860.249 1479.68 L860.249 1485.58 L830.388 1485.58 L830.388 1479.68 Z" fill="#000000" fill-rule="evenodd" fill-opacity="1" /><path clip-path="url(#clip880)" d="M1320.11 1479.68 L1344.59 1479.68 L1344.59 1485.58 L1311.67 1485.58 L1311.67 1479.68 Q1315.66 1475.55 1322.54 1468.6 Q1329.45 1461.62 1331.22 1459.61 Q1334.59 1455.82 1335.91 1453.22 Q1337.26 1450.58 1337.26 1448.05 Q1337.26 1443.91 1334.34 1441.31 Q1331.46 1438.71 1326.81 1438.71 Q1323.51 1438.71 1319.83 1439.85 Q1316.19 1441 1312.02 1443.32 L1312.02 1436.24 Q1316.25 1434.54 1319.94 1433.67 Q1323.62 1432.8 1326.67 1432.8 Q1334.73 1432.8 1339.52 1436.83 Q1344.31 1440.86 1344.31 1447.59 Q1344.31 1450.79 1343.09 1453.67 Q1341.91 1456.52 1338.75 1460.41 Q1337.89 1461.41 1333.23 1466.24 Q1328.58 1471.03 1320.11 1479.68 Z" fill="#000000" fill-rule="evenodd" fill-opacity="1" /><path clip-path="url(#clip880)" d="M1817.82 1457.63 Q1822.85 1458.7 1825.66 1462.11 Q1828.51 1465.51 1828.51 1470.51 Q1828.51 1478.18 1823.23 1482.39 Q1817.95 1486.59 1808.23 1486.59 Q1804.97 1486.59 1801.5 1485.93 Q1798.06 1485.3 1794.38 1484.02 L1794.38 1477.25 Q1797.29 1478.95 1800.77 1479.82 Q1804.24 1480.68 1808.02 1480.68 Q1814.62 1480.68 1818.06 1478.08 Q1821.53 1475.48 1821.53 1470.51 Q1821.53 1465.93 1818.3 1463.36 Q1815.11 1460.75 1809.38 1460.75 L1803.34 1460.75 L1803.34 1454.99 L1809.66 1454.99 Q1814.83 1454.99 1817.57 1452.94 Q1820.32 1450.86 1820.32 1446.97 Q1820.32 1442.98 1817.47 1440.86 Q1814.66 1438.71 1809.38 1438.71 Q1806.5 1438.71 1803.2 1439.33 Q1799.9 1439.96 1795.94 1441.27 L1795.94 1435.02 Q1799.93 1433.91 1803.41 1433.36 Q1806.91 1432.8 1810 1432.8 Q1817.99 1432.8 1822.64 1436.45 Q1827.29 1440.06 1827.29 1446.24 Q1827.29 1450.55 1824.83 1453.53 Q1822.36 1456.48 1817.82 1457.63 Z" fill="#000000" fill-rule="evenodd" fill-opacity="1" /><path clip-path="url(#clip880)" d="M2299.27 1439.85 L2281.56 1467.52 L2299.27 1467.52 L2299.27 1439.85 M2297.43 1433.74 L2306.25 1433.74 L2306.25 1467.52 L2313.65 1467.52 L2313.65 1473.36 L2306.25 1473.36 L2306.25 1485.58 L2299.27 1485.58 L2299.27 1473.36 L2275.87 1473.36 L2275.87 1466.59 L2297.43 1433.74 Z" fill="#000000" fill-rule="evenodd" fill-opacity="1" /><path clip-path="url(#clip880)" d="M1271.74 1527.62 L1271.74 1538.66 L1284.9 1538.66 L1284.9 1543.62 L1271.74 1543.62 L1271.74 1564.74 Q1271.74 1569.49 1273.03 1570.85 Q1274.35 1572.2 1278.34 1572.2 L1284.9 1572.2 L1284.9 1577.55 L1278.34 1577.55 Q1270.94 1577.55 1268.13 1574.8 Q1265.32 1572.03 1265.32 1564.74 L1265.32 1543.62 L1260.63 1543.62 L1260.63 1538.66 L1265.32 1538.66 L1265.32 1527.62 L1271.74 1527.62 Z" fill="#000000" fill-rule="evenodd" fill-opacity="1" /><path clip-path="url(#clip880)" d="M1315.32 1523.52 L1330.04 1523.52 L1330.04 1528.49 L1321.71 1528.49 L1321.71 1581.96 L1330.04 1581.96 L1330.04 1586.92 L1315.32 1586.92 L1315.32 1523.52 Z" fill="#000000" fill-rule="evenodd" fill-opacity="1" /><path clip-path="url(#clip880)" d="M1368.44 1539.8 L1368.44 1545.85 Q1365.73 1544.46 1362.82 1543.76 Q1359.9 1543.07 1356.78 1543.07 Q1352.02 1543.07 1349.62 1544.53 Q1347.26 1545.99 1347.26 1548.9 Q1347.26 1551.12 1348.96 1552.41 Q1350.66 1553.66 1355.8 1554.8 L1357.99 1555.29 Q1364.8 1556.75 1367.64 1559.42 Q1370.53 1562.06 1370.53 1566.82 Q1370.53 1572.24 1366.22 1575.4 Q1361.95 1578.55 1354.45 1578.55 Q1351.32 1578.55 1347.92 1577.93 Q1344.55 1577.34 1340.8 1576.12 L1340.8 1569.53 Q1344.34 1571.37 1347.78 1572.3 Q1351.22 1573.21 1354.59 1573.21 Q1359.1 1573.21 1361.53 1571.68 Q1363.96 1570.12 1363.96 1567.3 Q1363.96 1564.7 1362.19 1563.31 Q1360.46 1561.92 1354.52 1560.64 L1352.3 1560.12 Q1346.36 1558.87 1343.72 1556.3 Q1341.08 1553.69 1341.08 1549.18 Q1341.08 1543.69 1344.97 1540.71 Q1348.86 1537.72 1356.01 1537.72 Q1359.55 1537.72 1362.68 1538.24 Q1365.8 1538.76 1368.44 1539.8 Z" fill="#000000" fill-rule="evenodd" fill-opacity="1" /><path clip-path="url(#clip880)" d="M1395.63 1523.52 L1395.63 1586.92 L1380.91 1586.92 L1380.91 1581.96 L1389.21 1581.96 L1389.21 1528.49 L1380.91 1528.49 L1380.91 1523.52 L1395.63 1523.52 Z" fill="#000000" fill-rule="evenodd" fill-opacity="1" /><polyline clip-path="url(#clip882)" style="stroke:#000000; stroke-linecap:butt; stroke-linejoin:round; stroke-width:2; stroke-opacity:0.1; fill:none" points="
  303.503,1365.41 2352.76,1365.41 
  "/>
<polyline clip-path="url(#clip882)" style="stroke:#000000; stroke-linecap:butt; stroke-linejoin:round; stroke-width:2; stroke-opacity:0.1; fill:none" points="
  303.503,1114.21 2352.76,1114.21 
  "/>
<polyline clip-path="url(#clip882)" style="stroke:#000000; stroke-linecap:butt; stroke-linejoin:round; stroke-width:2; stroke-opacity:0.1; fill:none" points="
  303.503,863.02 2352.76,863.02 
  "/>
<polyline clip-path="url(#clip882)" style="stroke:#000000; stroke-linecap:butt; stroke-linejoin:round; stroke-width:2; stroke-opacity:0.1; fill:none" points="
  303.503,611.826 2352.76,611.826 
  "/>
<polyline clip-path="url(#clip882)" style="stroke:#000000; stroke-linecap:butt; stroke-linejoin:round; stroke-width:2; stroke-opacity:0.1; fill:none" points="
  303.503,360.632 2352.76,360.632 
  "/>
<polyline clip-path="url(#clip880)" style="stroke:#000000; stroke-linecap:butt; stroke-linejoin:round; stroke-width:4; stroke-opacity:1; fill:none" points="
  303.503,1401.58 303.503,123.472 
  "/>
<polyline clip-path="url(#clip880)" style="stroke:#000000; stroke-linecap:butt; stroke-linejoin:round; stroke-width:4; stroke-opacity:1; fill:none" points="
  303.503,1365.41 322.401,1365.41 
  "/>
<polyline clip-path="url(#clip880)" style="stroke:#000000; stroke-linecap:butt; stroke-linejoin:round; stroke-width:4; stroke-opacity:1; fill:none" points="
  303.503,1114.21 322.401,1114.21 
  "/>
<polyline clip-path="url(#clip880)" style="stroke:#000000; stroke-linecap:butt; stroke-linejoin:round; stroke-width:4; stroke-opacity:1; fill:none" points="
  303.503,863.02 322.401,863.02 
  "/>
<polyline clip-path="url(#clip880)" style="stroke:#000000; stroke-linecap:butt; stroke-linejoin:round; stroke-width:4; stroke-opacity:1; fill:none" points="
  303.503,611.826 322.401,611.826 
  "/>
<polyline clip-path="url(#clip880)" style="stroke:#000000; stroke-linecap:butt; stroke-linejoin:round; stroke-width:4; stroke-opacity:1; fill:none" points="
  303.503,360.632 322.401,360.632 
  "/>
<path clip-path="url(#clip880)" d="M136.497 1344.11 Q131.08 1344.11 128.337 1349.45 Q125.629 1354.76 125.629 1365.46 Q125.629 1376.12 128.337 1381.47 Q131.08 1386.78 136.497 1386.78 Q141.948 1386.78 144.656 1381.47 Q147.399 1376.12 147.399 1365.46 Q147.399 1354.76 144.656 1349.45 Q141.948 1344.11 136.497 1344.11 M136.497 1338.55 Q145.212 1338.55 149.795 1345.46 Q154.413 1352.33 154.413 1365.46 Q154.413 1378.55 149.795 1385.46 Q145.212 1392.33 136.497 1392.33 Q127.781 1392.33 123.163 1385.46 Q118.58 1378.55 118.58 1365.46 Q118.58 1352.33 123.163 1345.46 Q127.781 1338.55 136.497 1338.55 Z" fill="#000000" fill-rule="evenodd" fill-opacity="1" /><path clip-path="url(#clip880)" d="M166.74 1382.51 L174.066 1382.51 L174.066 1391.33 L166.74 1391.33 L166.74 1382.51 Z" fill="#000000" fill-rule="evenodd" fill-opacity="1" /><path clip-path="url(#clip880)" d="M189.413 1339.49 L216.948 1339.49 L216.948 1345.39 L195.837 1345.39 L195.837 1358.1 Q197.364 1357.58 198.892 1357.33 Q200.42 1357.06 201.948 1357.06 Q210.628 1357.06 215.698 1361.81 Q220.767 1366.57 220.767 1374.7 Q220.767 1383.06 215.559 1387.72 Q210.35 1392.33 200.871 1392.33 Q197.608 1392.33 194.205 1391.78 Q190.837 1391.22 187.226 1390.11 L187.226 1383.06 Q190.351 1384.76 193.684 1385.6 Q197.017 1386.43 200.732 1386.43 Q206.739 1386.43 210.246 1383.27 Q213.753 1380.11 213.753 1374.7 Q213.753 1369.28 210.246 1366.12 Q206.739 1362.96 200.732 1362.96 Q197.92 1362.96 195.108 1363.58 Q192.33 1364.21 189.413 1365.53 L189.413 1339.49 Z" fill="#000000" fill-rule="evenodd" fill-opacity="1" /><path clip-path="url(#clip880)" d="M249.586 1344.11 Q244.17 1344.11 241.427 1349.45 Q238.718 1354.76 238.718 1365.46 Q238.718 1376.12 241.427 1381.47 Q244.17 1386.78 249.586 1386.78 Q255.038 1386.78 257.746 1381.47 Q260.489 1376.12 260.489 1365.46 Q260.489 1354.76 257.746 1349.45 Q255.038 1344.11 249.586 1344.11 M249.586 1338.55 Q258.302 1338.55 262.885 1345.46 Q267.503 1352.33 267.503 1365.46 Q267.503 1378.55 262.885 1385.46 Q258.302 1392.33 249.586 1392.33 Q240.871 1392.33 236.253 1385.46 Q231.67 1378.55 231.67 1365.46 Q231.67 1352.33 236.253 1345.46 Q240.871 1338.55 249.586 1338.55 Z" fill="#000000" fill-rule="evenodd" fill-opacity="1" /><path clip-path="url(#clip880)" d="M137.99 1092.91 Q132.573 1092.91 129.83 1098.26 Q127.122 1103.57 127.122 1114.27 Q127.122 1124.93 129.83 1130.27 Q132.573 1135.58 137.99 1135.58 Q143.441 1135.58 146.149 1130.27 Q148.892 1124.93 148.892 1114.27 Q148.892 1103.57 146.149 1098.26 Q143.441 1092.91 137.99 1092.91 M137.99 1087.36 Q146.705 1087.36 151.288 1094.27 Q155.906 1101.14 155.906 1114.27 Q155.906 1127.36 151.288 1134.27 Q146.705 1141.14 137.99 1141.14 Q129.275 1141.14 124.657 1134.27 Q120.073 1127.36 120.073 1114.27 Q120.073 1101.14 124.657 1094.27 Q129.275 1087.36 137.99 1087.36 Z" fill="#000000" fill-rule="evenodd" fill-opacity="1" /><path clip-path="url(#clip880)" d="M168.233 1131.31 L175.559 1131.31 L175.559 1140.13 L168.233 1140.13 L168.233 1131.31 Z" fill="#000000" fill-rule="evenodd" fill-opacity="1" /><path clip-path="url(#clip880)" d="M189.066 1088.29 L222.399 1088.29 L222.399 1091.28 L203.58 1140.13 L196.253 1140.13 L213.962 1094.2 L189.066 1094.2 L189.066 1088.29 Z" fill="#000000" fill-rule="evenodd" fill-opacity="1" /><path clip-path="url(#clip880)" d="M236.149 1088.29 L263.684 1088.29 L263.684 1094.2 L242.573 1094.2 L242.573 1106.9 Q244.1 1106.38 245.628 1106.14 Q247.156 1105.86 248.684 1105.86 Q257.364 1105.86 262.434 1110.62 Q267.503 1115.38 267.503 1123.5 Q267.503 1131.87 262.295 1136.52 Q257.086 1141.14 247.607 1141.14 Q244.343 1141.14 240.941 1140.58 Q237.573 1140.03 233.961 1138.92 L233.961 1131.87 Q237.086 1133.57 240.42 1134.4 Q243.753 1135.24 247.468 1135.24 Q253.475 1135.24 256.982 1132.08 Q260.489 1128.92 260.489 1123.5 Q260.489 1118.08 256.982 1114.93 Q253.475 1111.77 247.468 1111.77 Q244.656 1111.77 241.843 1112.39 Q239.066 1113.02 236.149 1114.33 L236.149 1088.29 Z" fill="#000000" fill-rule="evenodd" fill-opacity="1" /><path clip-path="url(#clip880)" d="M122.712 883.037 L134.17 883.037 L134.17 843.488 L121.705 845.988 L121.705 839.6 L134.101 837.1 L141.115 837.1 L141.115 883.037 L152.573 883.037 L152.573 888.94 L122.712 888.94 L122.712 883.037 Z" fill="#000000" fill-rule="evenodd" fill-opacity="1" /><path clip-path="url(#clip880)" d="M166.74 880.12 L174.066 880.12 L174.066 888.94 L166.74 888.94 L166.74 880.12 Z" fill="#000000" fill-rule="evenodd" fill-opacity="1" /><path clip-path="url(#clip880)" d="M204.344 841.718 Q198.927 841.718 196.184 847.065 Q193.476 852.377 193.476 863.072 Q193.476 873.731 196.184 879.079 Q198.927 884.391 204.344 884.391 Q209.795 884.391 212.503 879.079 Q215.246 873.731 215.246 863.072 Q215.246 852.377 212.503 847.065 Q209.795 841.718 204.344 841.718 M204.344 836.162 Q213.059 836.162 217.642 843.072 Q222.26 849.947 222.26 863.072 Q222.26 876.162 217.642 883.072 Q213.059 889.947 204.344 889.947 Q195.628 889.947 191.01 883.072 Q186.427 876.162 186.427 863.072 Q186.427 849.947 191.01 843.072 Q195.628 836.162 204.344 836.162 Z" fill="#000000" fill-rule="evenodd" fill-opacity="1" /><path clip-path="url(#clip880)" d="M249.586 841.718 Q244.17 841.718 241.427 847.065 Q238.718 852.377 238.718 863.072 Q238.718 873.731 241.427 879.079 Q244.17 884.391 249.586 884.391 Q255.038 884.391 257.746 879.079 Q260.489 873.731 260.489 863.072 Q260.489 852.377 257.746 847.065 Q255.038 841.718 249.586 841.718 M249.586 836.162 Q258.302 836.162 262.885 843.072 Q267.503 849.947 267.503 863.072 Q267.503 876.162 262.885 883.072 Q258.302 889.947 249.586 889.947 Q240.871 889.947 236.253 883.072 Q231.67 876.162 231.67 863.072 Q231.67 849.947 236.253 843.072 Q240.871 836.162 249.586 836.162 Z" fill="#000000" fill-rule="evenodd" fill-opacity="1" /><path clip-path="url(#clip880)" d="M124.205 631.843 L135.663 631.843 L135.663 592.295 L123.198 594.795 L123.198 588.406 L135.594 585.906 L142.608 585.906 L142.608 631.843 L154.066 631.843 L154.066 637.746 L124.205 637.746 L124.205 631.843 Z" fill="#000000" fill-rule="evenodd" fill-opacity="1" /><path clip-path="url(#clip880)" d="M168.233 628.927 L175.559 628.927 L175.559 637.746 L168.233 637.746 L168.233 628.927 Z" fill="#000000" fill-rule="evenodd" fill-opacity="1" /><path clip-path="url(#clip880)" d="M196.878 631.843 L221.357 631.843 L221.357 637.746 L188.441 637.746 L188.441 631.843 Q192.434 627.711 199.309 620.767 Q206.219 613.788 207.989 611.774 Q211.357 607.989 212.677 605.385 Q214.031 602.746 214.031 600.211 Q214.031 596.08 211.114 593.475 Q208.232 590.871 203.58 590.871 Q200.281 590.871 196.601 592.017 Q192.955 593.163 188.788 595.489 L188.788 588.406 Q193.024 586.705 196.705 585.837 Q200.385 584.968 203.441 584.968 Q211.496 584.968 216.288 588.996 Q221.08 593.024 221.08 599.76 Q221.08 602.954 219.864 605.836 Q218.684 608.684 215.524 612.572 Q214.656 613.579 210.003 618.406 Q205.351 623.197 196.878 631.843 Z" fill="#000000" fill-rule="evenodd" fill-opacity="1" /><path clip-path="url(#clip880)" d="M236.149 585.906 L263.684 585.906 L263.684 591.809 L242.573 591.809 L242.573 604.517 Q244.1 603.996 245.628 603.753 Q247.156 603.475 248.684 603.475 Q257.364 603.475 262.434 608.232 Q267.503 612.989 267.503 621.114 Q267.503 629.482 262.295 634.135 Q257.086 638.753 247.607 638.753 Q244.343 638.753 240.941 638.197 Q237.573 637.642 233.961 636.531 L233.961 629.482 Q237.086 631.184 240.42 632.017 Q243.753 632.85 247.468 632.85 Q253.475 632.85 256.982 629.69 Q260.489 626.531 260.489 621.114 Q260.489 615.697 256.982 612.538 Q253.475 609.378 247.468 609.378 Q244.656 609.378 241.843 610.003 Q239.066 610.628 236.149 611.948 L236.149 585.906 Z" fill="#000000" fill-rule="evenodd" fill-opacity="1" /><path clip-path="url(#clip880)" d="M122.712 380.65 L134.17 380.65 L134.17 341.101 L121.705 343.601 L121.705 337.212 L134.101 334.712 L141.115 334.712 L141.115 380.65 L152.573 380.65 L152.573 386.552 L122.712 386.552 L122.712 380.65 Z" fill="#000000" fill-rule="evenodd" fill-opacity="1" /><path clip-path="url(#clip880)" d="M166.74 377.733 L174.066 377.733 L174.066 386.552 L166.74 386.552 L166.74 377.733 Z" fill="#000000" fill-rule="evenodd" fill-opacity="1" /><path clip-path="url(#clip880)" d="M189.413 334.712 L216.948 334.712 L216.948 340.615 L195.837 340.615 L195.837 353.323 Q197.364 352.802 198.892 352.559 Q200.42 352.282 201.948 352.282 Q210.628 352.282 215.698 357.039 Q220.767 361.795 220.767 369.92 Q220.767 378.288 215.559 382.941 Q210.35 387.559 200.871 387.559 Q197.608 387.559 194.205 387.004 Q190.837 386.448 187.226 385.337 L187.226 378.288 Q190.351 379.99 193.684 380.823 Q197.017 381.656 200.732 381.656 Q206.739 381.656 210.246 378.497 Q213.753 375.337 213.753 369.92 Q213.753 364.504 210.246 361.344 Q206.739 358.184 200.732 358.184 Q197.92 358.184 195.108 358.809 Q192.33 359.434 189.413 360.754 L189.413 334.712 Z" fill="#000000" fill-rule="evenodd" fill-opacity="1" /><path clip-path="url(#clip880)" d="M249.586 339.33 Q244.17 339.33 241.427 344.678 Q238.718 349.99 238.718 360.684 Q238.718 371.344 241.427 376.691 Q244.17 382.004 249.586 382.004 Q255.038 382.004 257.746 376.691 Q260.489 371.344 260.489 360.684 Q260.489 349.99 257.746 344.678 Q255.038 339.33 249.586 339.33 M249.586 333.775 Q258.302 333.775 262.885 340.684 Q267.503 347.559 267.503 360.684 Q267.503 373.775 262.885 380.684 Q258.302 387.559 249.586 387.559 Q240.871 387.559 236.253 380.684 Q231.67 373.775 231.67 360.684 Q231.67 347.559 236.253 340.684 Q240.871 333.775 249.586 333.775 Z" fill="#000000" fill-rule="evenodd" fill-opacity="1" /><path clip-path="url(#clip880)" d="M35.6047 1045.01 Q31.2992 1042.61 29.2506 1039.28 Q27.202 1035.94 27.202 1031.43 Q27.202 1025.35 31.4728 1022.06 Q35.7089 1018.76 43.5561 1018.76 L67.0282 1018.76 L67.0282 1025.18 L43.7644 1025.18 Q38.1741 1025.18 35.4658 1027.16 Q32.7575 1029.14 32.7575 1033.2 Q32.7575 1038.17 36.0561 1041.05 Q39.3547 1043.93 45.0491 1043.93 L67.0282 1043.93 L67.0282 1050.35 L43.7644 1050.35 Q38.1394 1050.35 35.4658 1052.33 Q32.7575 1054.31 32.7575 1058.44 Q32.7575 1063.34 36.0908 1066.22 Q39.3894 1069.1 45.0491 1069.1 L67.0282 1069.1 L67.0282 1075.53 L28.1395 1075.53 L28.1395 1069.1 L34.1811 1069.1 Q30.6047 1066.92 28.9034 1063.86 Q27.202 1060.81 27.202 1056.6 Q27.202 1052.37 29.3547 1049.42 Q31.5075 1046.43 35.6047 1045.01 Z" fill="#000000" fill-rule="evenodd" fill-opacity="1" /><path clip-path="url(#clip880)" d="M47.4797 988.341 Q47.4797 996.084 49.2505 999.07 Q51.0213 1002.06 55.2921 1002.06 Q58.6949 1002.06 60.7087 999.834 Q62.6879 997.577 62.6879 993.723 Q62.6879 988.41 58.9379 985.216 Q55.1532 981.987 48.9033 981.987 L47.4797 981.987 L47.4797 988.341 M44.8408 975.598 L67.0282 975.598 L67.0282 981.987 L61.1254 981.987 Q64.6671 984.174 66.3684 987.438 Q68.0351 990.702 68.0351 995.424 Q68.0351 1001.4 64.7018 1004.94 Q61.3337 1008.44 55.7088 1008.44 Q49.1463 1008.44 45.813 1004.07 Q42.4797 999.66 42.4797 990.945 L42.4797 981.987 L41.8547 981.987 Q37.445 981.987 35.0492 984.903 Q32.6186 987.785 32.6186 993.028 Q32.6186 996.362 33.4172 999.521 Q34.2158 1002.68 35.813 1005.6 L29.9103 1005.6 Q28.5561 1002.09 27.8964 998.792 Q27.202 995.493 27.202 992.369 Q27.202 983.931 31.577 979.764 Q35.9519 975.598 44.8408 975.598 Z" fill="#000000" fill-rule="evenodd" fill-opacity="1" /><path clip-path="url(#clip880)" d="M29.2853 937.647 L35.3269 937.647 Q33.9381 940.355 33.2436 943.272 Q32.5492 946.188 32.5492 949.313 Q32.5492 954.07 34.0075 956.466 Q35.4658 958.827 38.3825 958.827 Q40.6047 958.827 41.8894 957.126 Q43.1394 955.424 44.2852 950.285 L44.7713 948.098 Q46.2297 941.292 48.9033 938.445 Q51.5421 935.563 56.299 935.563 Q61.7157 935.563 64.8754 939.869 Q68.0351 944.14 68.0351 951.64 Q68.0351 954.765 67.4101 958.167 Q66.8198 961.535 65.6046 965.285 L59.0074 965.285 Q60.8476 961.744 61.7851 958.306 Q62.6879 954.869 62.6879 951.501 Q62.6879 946.987 61.1601 944.556 Q59.5976 942.126 56.7852 942.126 Q54.181 942.126 52.7921 943.897 Q51.4032 945.633 50.1185 951.57 L49.5977 953.792 Q48.3477 959.73 45.7783 962.369 Q43.1741 965.008 38.6603 965.008 Q33.1742 965.008 30.1881 961.119 Q27.202 957.23 27.202 950.077 Q27.202 946.535 27.7228 943.41 Q28.2436 940.285 29.2853 937.647 Z" fill="#000000" fill-rule="evenodd" fill-opacity="1" /><path clip-path="url(#clip880)" d="M29.2853 900.598 L35.3269 900.598 Q33.9381 903.306 33.2436 906.223 Q32.5492 909.14 32.5492 912.265 Q32.5492 917.022 34.0075 919.418 Q35.4658 921.779 38.3825 921.779 Q40.6047 921.779 41.8894 920.077 Q43.1394 918.376 44.2852 913.237 L44.7713 911.049 Q46.2297 904.244 48.9033 901.397 Q51.5421 898.515 56.299 898.515 Q61.7157 898.515 64.8754 902.82 Q68.0351 907.091 68.0351 914.591 Q68.0351 917.716 67.4101 921.119 Q66.8198 924.487 65.6046 928.237 L59.0074 928.237 Q60.8476 924.695 61.7851 921.258 Q62.6879 917.82 62.6879 914.452 Q62.6879 909.938 61.1601 907.508 Q59.5976 905.077 56.7852 905.077 Q54.181 905.077 52.7921 906.848 Q51.4032 908.584 50.1185 914.522 L49.5977 916.744 Q48.3477 922.681 45.7783 925.32 Q43.1741 927.959 38.6603 927.959 Q33.1742 927.959 30.1881 924.07 Q27.202 920.181 27.202 913.029 Q27.202 909.487 27.7228 906.362 Q28.2436 903.237 29.2853 900.598 Z" fill="#000000" fill-rule="evenodd" fill-opacity="1" /><path clip-path="url(#clip880)" d="M61.1949 859.557 L81.8197 859.557 L81.8197 865.98 L28.1395 865.98 L28.1395 859.557 L34.0422 859.557 Q30.57 857.543 28.9034 854.487 Q27.202 851.397 27.202 847.126 Q27.202 840.043 32.827 835.633 Q38.4519 831.189 47.6185 831.189 Q56.7852 831.189 62.4101 835.633 Q68.0351 840.043 68.0351 847.126 Q68.0351 851.397 66.3684 854.487 Q64.6671 857.543 61.1949 859.557 M47.6185 837.821 Q40.57 837.821 36.5769 840.737 Q32.5492 843.619 32.5492 848.689 Q32.5492 853.758 36.5769 856.675 Q40.57 859.557 47.6185 859.557 Q54.6671 859.557 58.6949 856.675 Q62.6879 853.758 62.6879 848.689 Q62.6879 843.619 58.6949 840.737 Q54.6671 837.821 47.6185 837.821 Z" fill="#000000" fill-rule="evenodd" fill-opacity="1" /><path clip-path="url(#clip880)" d="M32.6186 805.529 Q32.6186 810.668 36.6464 813.654 Q40.6394 816.64 47.6185 816.64 Q54.5977 816.64 58.6254 813.689 Q62.6185 810.703 62.6185 805.529 Q62.6185 800.425 58.5907 797.439 Q54.5629 794.453 47.6185 794.453 Q40.7089 794.453 36.6811 797.439 Q32.6186 800.425 32.6186 805.529 M27.202 805.529 Q27.202 797.196 32.6186 792.439 Q38.0353 787.682 47.6185 787.682 Q57.1671 787.682 62.6185 792.439 Q68.0351 797.196 68.0351 805.529 Q68.0351 813.897 62.6185 818.654 Q57.1671 823.376 47.6185 823.376 Q38.0353 823.376 32.6186 818.654 Q27.202 813.897 27.202 805.529 Z" fill="#000000" fill-rule="evenodd" fill-opacity="1" /><path clip-path="url(#clip880)" d="M29.2853 752.3 L35.3269 752.3 Q33.9381 755.009 33.2436 757.925 Q32.5492 760.842 32.5492 763.967 Q32.5492 768.724 34.0075 771.12 Q35.4658 773.481 38.3825 773.481 Q40.6047 773.481 41.8894 771.779 Q43.1394 770.078 44.2852 764.939 L44.7713 762.752 Q46.2297 755.946 48.9033 753.099 Q51.5421 750.217 56.299 750.217 Q61.7157 750.217 64.8754 754.523 Q68.0351 758.793 68.0351 766.293 Q68.0351 769.418 67.4101 772.821 Q66.8198 776.189 65.6046 779.939 L59.0074 779.939 Q60.8476 776.397 61.7851 772.96 Q62.6879 769.522 62.6879 766.154 Q62.6879 761.641 61.1601 759.21 Q59.5976 756.779 56.7852 756.779 Q54.181 756.779 52.7921 758.55 Q51.4032 760.286 50.1185 766.224 L49.5977 768.446 Q48.3477 774.384 45.7783 777.022 Q43.1741 779.661 38.6603 779.661 Q33.1742 779.661 30.1881 775.772 Q27.202 771.884 27.202 764.731 Q27.202 761.189 27.7228 758.064 Q28.2436 754.939 29.2853 752.3 Z" fill="#000000" fill-rule="evenodd" fill-opacity="1" /><path clip-path="url(#clip880)" d="M28.1395 740.043 L28.1395 733.655 L67.0282 733.655 L67.0282 740.043 L28.1395 740.043 M13.0007 740.043 L13.0007 733.655 L21.0909 733.655 L21.0909 740.043 L13.0007 740.043 Z" fill="#000000" fill-rule="evenodd" fill-opacity="1" /><path clip-path="url(#clip880)" d="M17.0979 713.967 L28.1395 713.967 L28.1395 700.808 L33.1047 700.808 L33.1047 713.967 L54.2157 713.967 Q58.9726 713.967 60.3268 712.683 Q61.681 711.363 61.681 707.37 L61.681 700.808 L67.0282 700.808 L67.0282 707.37 Q67.0282 714.766 64.2851 717.578 Q61.5074 720.391 54.2157 720.391 L33.1047 720.391 L33.1047 725.078 L28.1395 725.078 L28.1395 720.391 L17.0979 720.391 L17.0979 713.967 Z" fill="#000000" fill-rule="evenodd" fill-opacity="1" /><path clip-path="url(#clip880)" d="M28.1395 692.405 L28.1395 686.016 L67.0282 686.016 L67.0282 692.405 L28.1395 692.405 M13.0007 692.405 L13.0007 686.016 L21.0909 686.016 L21.0909 692.405 L13.0007 692.405 Z" fill="#000000" fill-rule="evenodd" fill-opacity="1" /><path clip-path="url(#clip880)" d="M32.6186 657.579 Q32.6186 662.717 36.6464 665.704 Q40.6394 668.69 47.6185 668.69 Q54.5977 668.69 58.6254 665.738 Q62.6185 662.752 62.6185 657.579 Q62.6185 652.474 58.5907 649.488 Q54.5629 646.502 47.6185 646.502 Q40.7089 646.502 36.6811 649.488 Q32.6186 652.474 32.6186 657.579 M27.202 657.579 Q27.202 649.245 32.6186 644.488 Q38.0353 639.732 47.6185 639.732 Q57.1671 639.732 62.6185 644.488 Q68.0351 649.245 68.0351 657.579 Q68.0351 665.947 62.6185 670.704 Q57.1671 675.426 47.6185 675.426 Q38.0353 675.426 32.6186 670.704 Q27.202 665.947 27.202 657.579 Z" fill="#000000" fill-rule="evenodd" fill-opacity="1" /><path clip-path="url(#clip880)" d="M43.5561 596.815 L67.0282 596.815 L67.0282 603.204 L43.7644 603.204 Q38.2436 603.204 35.5005 605.357 Q32.7575 607.509 32.7575 611.815 Q32.7575 616.989 36.0561 619.975 Q39.3547 622.961 45.0491 622.961 L67.0282 622.961 L67.0282 629.384 L28.1395 629.384 L28.1395 622.961 L34.1811 622.961 Q30.6742 620.669 28.9381 617.579 Q27.202 614.454 27.202 610.391 Q27.202 603.69 31.3686 600.253 Q35.5005 596.815 43.5561 596.815 Z" fill="#000000" fill-rule="evenodd" fill-opacity="1" /><path clip-path="url(#clip880)" d="M13.0007 562.058 L13.0007 547.336 L17.9659 547.336 L17.9659 555.669 L71.4379 555.669 L71.4379 547.336 L76.4031 547.336 L76.4031 562.058 L13.0007 562.058 Z" fill="#000000" fill-rule="evenodd" fill-opacity="1" /><path clip-path="url(#clip880)" d="M35.6047 503.448 Q31.2992 501.052 29.2506 497.718 Q27.202 494.385 27.202 489.871 Q27.202 483.795 31.4728 480.496 Q35.7089 477.198 43.5561 477.198 L67.0282 477.198 L67.0282 483.621 L43.7644 483.621 Q38.1741 483.621 35.4658 485.6 Q32.7575 487.58 32.7575 491.642 Q32.7575 496.607 36.0561 499.489 Q39.3547 502.371 45.0491 502.371 L67.0282 502.371 L67.0282 508.795 L43.7644 508.795 Q38.1394 508.795 35.4658 510.774 Q32.7575 512.753 32.7575 516.885 Q32.7575 521.781 36.0908 524.663 Q39.3894 527.545 45.0491 527.545 L67.0282 527.545 L67.0282 533.968 L28.1395 533.968 L28.1395 527.545 L34.1811 527.545 Q30.6047 525.357 28.9034 522.302 Q27.202 519.246 27.202 515.045 Q27.202 510.809 29.3547 507.857 Q31.5075 504.871 35.6047 503.448 Z" fill="#000000" fill-rule="evenodd" fill-opacity="1" /><path clip-path="url(#clip880)" d="M13.0007 449.524 L76.4031 449.524 L76.4031 464.246 L71.4379 464.246 L71.4379 455.948 L17.9659 455.948 L17.9659 464.246 L13.0007 464.246 L13.0007 449.524 Z" fill="#000000" fill-rule="evenodd" fill-opacity="1" /><path clip-path="url(#clip880)" d="M626.29 18.8205 L626.29 65.8515 L636.174 65.8515 Q648.692 65.8515 654.484 60.1802 Q660.318 54.509 660.318 42.2752 Q660.318 30.1225 654.484 24.4918 Q648.692 18.8205 636.174 18.8205 L626.29 18.8205 M618.107 12.096 L634.918 12.096 Q652.499 12.096 660.723 19.4281 Q668.946 26.7198 668.946 42.2752 Q668.946 57.9117 660.682 65.2439 Q652.418 72.576 634.918 72.576 L618.107 72.576 L618.107 12.096 Z" fill="#000000" fill-rule="evenodd" fill-opacity="1" /><path clip-path="url(#clip880)" d="M720.474 48.0275 L720.474 51.6733 L686.203 51.6733 Q686.689 59.3701 690.821 63.421 Q694.993 67.4314 702.407 67.4314 Q706.7 67.4314 710.711 66.3781 Q714.762 65.3249 718.732 63.2184 L718.732 70.267 Q714.721 71.9684 710.508 72.8596 Q706.295 73.7508 701.961 73.7508 Q691.104 73.7508 684.745 67.4314 Q678.425 61.1119 678.425 50.3365 Q678.425 39.1965 684.421 32.6746 Q690.456 26.1121 700.665 26.1121 Q709.82 26.1121 715.126 32.0264 Q720.474 37.9003 720.474 48.0275 M713.02 45.84 Q712.939 39.7232 709.577 36.0774 Q706.255 32.4315 700.746 32.4315 Q694.507 32.4315 690.74 35.9558 Q687.013 39.4801 686.446 45.8805 L713.02 45.84 Z" fill="#000000" fill-rule="evenodd" fill-opacity="1" /><path clip-path="url(#clip880)" d="M755.676 9.54393 L755.676 15.7418 L748.546 15.7418 Q744.536 15.7418 742.956 17.3622 Q741.417 18.9825 741.417 23.1955 L741.417 27.2059 L753.691 27.2059 L753.691 32.9987 L741.417 32.9987 L741.417 72.576 L733.923 72.576 L733.923 32.9987 L726.793 32.9987 L726.793 27.2059 L733.923 27.2059 L733.923 24.0462 Q733.923 16.471 737.447 13.0277 Q740.971 9.54393 748.627 9.54393 L755.676 9.54393 Z" fill="#000000" fill-rule="evenodd" fill-opacity="1" /><path clip-path="url(#clip880)" d="M782.533 49.7694 Q773.5 49.7694 770.016 51.8354 Q766.532 53.9013 766.532 58.8839 Q766.532 62.8538 769.125 65.2034 Q771.758 67.5124 776.255 67.5124 Q782.452 67.5124 786.179 63.1374 Q789.947 58.7219 789.947 51.4303 L789.947 49.7694 L782.533 49.7694 M797.4 46.6907 L797.4 72.576 L789.947 72.576 L789.947 65.6895 Q787.394 69.8214 783.587 71.8063 Q779.779 73.7508 774.27 73.7508 Q767.302 73.7508 763.17 69.8619 Q759.079 65.9325 759.079 59.3701 Q759.079 51.7138 764.183 47.825 Q769.327 43.9361 779.495 43.9361 L789.947 43.9361 L789.947 43.2069 Q789.947 38.0623 786.544 35.2672 Q783.182 32.4315 777.065 32.4315 Q773.176 32.4315 769.489 33.3632 Q765.803 34.295 762.4 36.1584 L762.4 29.2718 Q766.492 27.692 770.34 26.9223 Q774.189 26.1121 777.834 26.1121 Q787.678 26.1121 792.539 31.2163 Q797.4 36.3204 797.4 46.6907 Z" fill="#000000" fill-rule="evenodd" fill-opacity="1" /><path clip-path="url(#clip880)" d="M811.983 54.671 L811.983 27.2059 L819.437 27.2059 L819.437 54.3874 Q819.437 60.8284 821.949 64.0691 Q824.46 67.2693 829.483 67.2693 Q835.519 67.2693 839.003 63.421 Q842.527 59.5726 842.527 52.9291 L842.527 27.2059 L849.981 27.2059 L849.981 72.576 L842.527 72.576 L842.527 65.6084 Q839.813 69.7404 836.208 71.7658 Q832.643 73.7508 827.904 73.7508 Q820.085 73.7508 816.034 68.8897 Q811.983 64.0286 811.983 54.671 M830.739 26.1121 L830.739 26.1121 Z" fill="#000000" fill-rule="evenodd" fill-opacity="1" /><path clip-path="url(#clip880)" d="M865.334 9.54393 L872.788 9.54393 L872.788 72.576 L865.334 72.576 L865.334 9.54393 Z" fill="#000000" fill-rule="evenodd" fill-opacity="1" /><path clip-path="url(#clip880)" d="M895.756 14.324 L895.756 27.2059 L911.109 27.2059 L911.109 32.9987 L895.756 32.9987 L895.756 57.6282 Q895.756 63.1779 897.255 64.7578 Q898.794 66.3376 903.453 66.3376 L911.109 66.3376 L911.109 72.576 L903.453 72.576 Q894.824 72.576 891.543 69.3758 Q888.262 66.1351 888.262 57.6282 L888.262 32.9987 L882.793 32.9987 L882.793 27.2059 L888.262 27.2059 L888.262 14.324 L895.756 14.324 Z" fill="#000000" fill-rule="evenodd" fill-opacity="1" /><path clip-path="url(#clip880)" d="M922.816 62.2867 L931.364 62.2867 L931.364 72.576 L922.816 72.576 L922.816 62.2867 M922.816 29.6769 L931.364 29.6769 L931.364 39.9662 L922.816 39.9662 L922.816 29.6769 Z" fill="#000000" fill-rule="evenodd" fill-opacity="1" /><path clip-path="url(#clip880)" d="M975.559 12.096 L987.752 12.096 L1003.19 53.2532 L1018.7 12.096 L1030.89 12.096 L1030.89 72.576 L1022.91 72.576 L1022.91 19.4686 L1007.32 60.9499 L999.095 60.9499 L983.499 19.4686 L983.499 72.576 L975.559 72.576 L975.559 12.096 Z" fill="#000000" fill-rule="evenodd" fill-opacity="1" /><path clip-path="url(#clip880)" d="M1067.43 49.7694 Q1058.4 49.7694 1054.92 51.8354 Q1051.43 53.9013 1051.43 58.8839 Q1051.43 62.8538 1054.03 65.2034 Q1056.66 67.5124 1061.15 67.5124 Q1067.35 67.5124 1071.08 63.1374 Q1074.85 58.7219 1074.85 51.4303 L1074.85 49.7694 L1067.43 49.7694 M1082.3 46.6907 L1082.3 72.576 L1074.85 72.576 L1074.85 65.6895 Q1072.29 69.8214 1068.49 71.8063 Q1064.68 73.7508 1059.17 73.7508 Q1052.2 73.7508 1048.07 69.8619 Q1043.98 65.9325 1043.98 59.3701 Q1043.98 51.7138 1049.08 47.825 Q1054.23 43.9361 1064.4 43.9361 L1074.85 43.9361 L1074.85 43.2069 Q1074.85 38.0623 1071.44 35.2672 Q1068.08 32.4315 1061.96 32.4315 Q1058.08 32.4315 1054.39 33.3632 Q1050.7 34.295 1047.3 36.1584 L1047.3 29.2718 Q1051.39 27.692 1055.24 26.9223 Q1059.09 26.1121 1062.73 26.1121 Q1072.58 26.1121 1077.44 31.2163 Q1082.3 36.3204 1082.3 46.6907 Z" fill="#000000" fill-rule="evenodd" fill-opacity="1" /><path clip-path="url(#clip880)" d="M1126.58 28.5427 L1126.58 35.5912 Q1123.42 33.9709 1120.01 33.1607 Q1116.61 32.3505 1112.97 32.3505 Q1107.42 32.3505 1104.62 34.0519 Q1101.87 35.7533 1101.87 39.156 Q1101.87 41.7486 1103.85 43.2475 Q1105.84 44.7058 1111.83 46.0426 L1114.38 46.6097 Q1122.32 48.3111 1125.64 51.4303 Q1129.01 54.509 1129.01 60.0587 Q1129.01 66.3781 1123.98 70.0644 Q1119 73.7508 1110.25 73.7508 Q1106.61 73.7508 1102.64 73.0216 Q1098.71 72.3329 1094.33 70.9151 L1094.33 63.2184 Q1098.46 65.3654 1102.47 66.4591 Q1106.48 67.5124 1110.41 67.5124 Q1115.68 67.5124 1118.52 65.73 Q1121.35 63.9071 1121.35 60.6258 Q1121.35 57.5877 1119.29 55.9673 Q1117.26 54.3469 1110.33 52.8481 L1107.74 52.2405 Q1100.81 50.7821 1097.73 47.7845 Q1094.66 44.7463 1094.66 39.4801 Q1094.66 33.0797 1099.19 29.5959 Q1103.73 26.1121 1112.07 26.1121 Q1116.21 26.1121 1119.85 26.7198 Q1123.5 27.3274 1126.58 28.5427 Z" fill="#000000" fill-rule="evenodd" fill-opacity="1" /><path clip-path="url(#clip880)" d="M1169.8 28.5427 L1169.8 35.5912 Q1166.64 33.9709 1163.24 33.1607 Q1159.83 32.3505 1156.19 32.3505 Q1150.64 32.3505 1147.84 34.0519 Q1145.09 35.7533 1145.09 39.156 Q1145.09 41.7486 1147.07 43.2475 Q1149.06 44.7058 1155.05 46.0426 L1157.61 46.6097 Q1165.55 48.3111 1168.87 51.4303 Q1172.23 54.509 1172.23 60.0587 Q1172.23 66.3781 1167.21 70.0644 Q1162.22 73.7508 1153.47 73.7508 Q1149.83 73.7508 1145.86 73.0216 Q1141.93 72.3329 1137.55 70.9151 L1137.55 63.2184 Q1141.69 65.3654 1145.7 66.4591 Q1149.71 67.5124 1153.64 67.5124 Q1158.9 67.5124 1161.74 65.73 Q1164.57 63.9071 1164.57 60.6258 Q1164.57 57.5877 1162.51 55.9673 Q1160.48 54.3469 1153.56 52.8481 L1150.96 52.2405 Q1144.04 50.7821 1140.96 47.7845 Q1137.88 44.7463 1137.88 39.4801 Q1137.88 33.0797 1142.42 29.5959 Q1146.95 26.1121 1155.3 26.1121 Q1159.43 26.1121 1163.08 26.7198 Q1166.72 27.3274 1169.8 28.5427 Z" fill="#000000" fill-rule="evenodd" fill-opacity="1" /><path clip-path="url(#clip880)" d="M1217.68 65.7705 L1217.68 89.8329 L1210.19 89.8329 L1210.19 27.2059 L1217.68 27.2059 L1217.68 34.0924 Q1220.03 30.0415 1223.6 28.0971 Q1227.2 26.1121 1232.18 26.1121 Q1240.45 26.1121 1245.59 32.6746 Q1250.78 39.2371 1250.78 49.9314 Q1250.78 60.6258 1245.59 67.1883 Q1240.45 73.7508 1232.18 73.7508 Q1227.2 73.7508 1223.6 71.8063 Q1220.03 69.8214 1217.68 65.7705 M1243.04 49.9314 Q1243.04 41.7081 1239.64 37.0496 Q1236.28 32.3505 1230.36 32.3505 Q1224.45 32.3505 1221.04 37.0496 Q1217.68 41.7081 1217.68 49.9314 Q1217.68 58.1548 1221.04 62.8538 Q1224.45 67.5124 1230.36 67.5124 Q1236.28 67.5124 1239.64 62.8538 Q1243.04 58.1548 1243.04 49.9314 Z" fill="#000000" fill-rule="evenodd" fill-opacity="1" /><path clip-path="url(#clip880)" d="M1280.71 32.4315 Q1274.72 32.4315 1271.23 37.1306 Q1267.75 41.7891 1267.75 49.9314 Q1267.75 58.0738 1271.19 62.7728 Q1274.68 67.4314 1280.71 67.4314 Q1286.67 67.4314 1290.15 62.7323 Q1293.64 58.0333 1293.64 49.9314 Q1293.64 41.8701 1290.15 37.1711 Q1286.67 32.4315 1280.71 32.4315 M1280.71 26.1121 Q1290.44 26.1121 1295.99 32.4315 Q1301.54 38.7509 1301.54 49.9314 Q1301.54 61.0714 1295.99 67.4314 Q1290.44 73.7508 1280.71 73.7508 Q1270.95 73.7508 1265.4 67.4314 Q1259.89 61.0714 1259.89 49.9314 Q1259.89 38.7509 1265.4 32.4315 Q1270.95 26.1121 1280.71 26.1121 Z" fill="#000000" fill-rule="evenodd" fill-opacity="1" /><path clip-path="url(#clip880)" d="M1342.81 28.5427 L1342.81 35.5912 Q1339.65 33.9709 1336.25 33.1607 Q1332.85 32.3505 1329.2 32.3505 Q1323.65 32.3505 1320.86 34.0519 Q1318.1 35.7533 1318.1 39.156 Q1318.1 41.7486 1320.09 43.2475 Q1322.07 44.7058 1328.07 46.0426 L1330.62 46.6097 Q1338.56 48.3111 1341.88 51.4303 Q1345.24 54.509 1345.24 60.0587 Q1345.24 66.3781 1340.22 70.0644 Q1335.24 73.7508 1326.49 73.7508 Q1322.84 73.7508 1318.87 73.0216 Q1314.94 72.3329 1310.57 70.9151 L1310.57 63.2184 Q1314.7 65.3654 1318.71 66.4591 Q1322.72 67.5124 1326.65 67.5124 Q1331.92 67.5124 1334.75 65.73 Q1337.59 63.9071 1337.59 60.6258 Q1337.59 57.5877 1335.52 55.9673 Q1333.5 54.3469 1326.57 52.8481 L1323.98 52.2405 Q1317.05 50.7821 1313.97 47.7845 Q1310.89 44.7463 1310.89 39.4801 Q1310.89 33.0797 1315.43 29.5959 Q1319.97 26.1121 1328.31 26.1121 Q1332.44 26.1121 1336.09 26.7198 Q1339.74 27.3274 1342.81 28.5427 Z" fill="#000000" fill-rule="evenodd" fill-opacity="1" /><path clip-path="url(#clip880)" d="M1357.11 27.2059 L1364.57 27.2059 L1364.57 72.576 L1357.11 72.576 L1357.11 27.2059 M1357.11 9.54393 L1364.57 9.54393 L1364.57 18.9825 L1357.11 18.9825 L1357.11 9.54393 Z" fill="#000000" fill-rule="evenodd" fill-opacity="1" /><path clip-path="url(#clip880)" d="M1387.54 14.324 L1387.54 27.2059 L1402.89 27.2059 L1402.89 32.9987 L1387.54 32.9987 L1387.54 57.6282 Q1387.54 63.1779 1389.03 64.7578 Q1390.57 66.3376 1395.23 66.3376 L1402.89 66.3376 L1402.89 72.576 L1395.23 72.576 Q1386.6 72.576 1383.32 69.3758 Q1380.04 66.1351 1380.04 57.6282 L1380.04 32.9987 L1374.57 32.9987 L1374.57 27.2059 L1380.04 27.2059 L1380.04 14.324 L1387.54 14.324 Z" fill="#000000" fill-rule="evenodd" fill-opacity="1" /><path clip-path="url(#clip880)" d="M1412.69 27.2059 L1420.15 27.2059 L1420.15 72.576 L1412.69 72.576 L1412.69 27.2059 M1412.69 9.54393 L1420.15 9.54393 L1420.15 18.9825 L1412.69 18.9825 L1412.69 9.54393 Z" fill="#000000" fill-rule="evenodd" fill-opacity="1" /><path clip-path="url(#clip880)" d="M1453.32 32.4315 Q1447.33 32.4315 1443.84 37.1306 Q1440.36 41.7891 1440.36 49.9314 Q1440.36 58.0738 1443.8 62.7728 Q1447.29 67.4314 1453.32 67.4314 Q1459.28 67.4314 1462.76 62.7323 Q1466.25 58.0333 1466.25 49.9314 Q1466.25 41.8701 1462.76 37.1711 Q1459.28 32.4315 1453.32 32.4315 M1453.32 26.1121 Q1463.04 26.1121 1468.59 32.4315 Q1474.14 38.7509 1474.14 49.9314 Q1474.14 61.0714 1468.59 67.4314 Q1463.04 73.7508 1453.32 73.7508 Q1443.56 73.7508 1438.01 67.4314 Q1432.5 61.0714 1432.5 49.9314 Q1432.5 38.7509 1438.01 32.4315 Q1443.56 26.1121 1453.32 26.1121 Z" fill="#000000" fill-rule="evenodd" fill-opacity="1" /><path clip-path="url(#clip880)" d="M1524.21 45.1919 L1524.21 72.576 L1516.76 72.576 L1516.76 45.4349 Q1516.76 38.994 1514.25 35.7938 Q1511.74 32.5936 1506.71 32.5936 Q1500.68 32.5936 1497.19 36.4419 Q1493.71 40.2903 1493.71 46.9338 L1493.71 72.576 L1486.22 72.576 L1486.22 27.2059 L1493.71 27.2059 L1493.71 34.2544 Q1496.38 30.163 1499.99 28.1376 Q1503.63 26.1121 1508.37 26.1121 Q1516.19 26.1121 1520.2 30.9732 Q1524.21 35.7938 1524.21 45.1919 Z" fill="#000000" fill-rule="evenodd" fill-opacity="1" /><path clip-path="url(#clip880)" d="M1586.07 49.7694 Q1577.04 49.7694 1573.55 51.8354 Q1570.07 53.9013 1570.07 58.8839 Q1570.07 62.8538 1572.66 65.2034 Q1575.3 67.5124 1579.79 67.5124 Q1585.99 67.5124 1589.72 63.1374 Q1593.48 58.7219 1593.48 51.4303 L1593.48 49.7694 L1586.07 49.7694 M1600.94 46.6907 L1600.94 72.576 L1593.48 72.576 L1593.48 65.6895 Q1590.93 69.8214 1587.12 71.8063 Q1583.32 73.7508 1577.81 73.7508 Q1570.84 73.7508 1566.71 69.8619 Q1562.62 65.9325 1562.62 59.3701 Q1562.62 51.7138 1567.72 47.825 Q1572.86 43.9361 1583.03 43.9361 L1593.48 43.9361 L1593.48 43.2069 Q1593.48 38.0623 1590.08 35.2672 Q1586.72 32.4315 1580.6 32.4315 Q1576.71 32.4315 1573.03 33.3632 Q1569.34 34.295 1565.94 36.1584 L1565.94 29.2718 Q1570.03 27.692 1573.88 26.9223 Q1577.73 26.1121 1581.37 26.1121 Q1591.22 26.1121 1596.08 31.2163 Q1600.94 36.3204 1600.94 46.6907 Z" fill="#000000" fill-rule="evenodd" fill-opacity="1" /><path clip-path="url(#clip880)" d="M1639.26 9.54393 L1639.26 15.7418 L1632.13 15.7418 Q1628.12 15.7418 1626.54 17.3622 Q1625 18.9825 1625 23.1955 L1625 27.2059 L1637.27 27.2059 L1637.27 32.9987 L1625 32.9987 L1625 72.576 L1617.51 72.576 L1617.51 32.9987 L1610.38 32.9987 L1610.38 27.2059 L1617.51 27.2059 L1617.51 24.0462 Q1617.51 16.471 1621.03 13.0277 Q1624.55 9.54393 1632.21 9.54393 L1639.26 9.54393 Z" fill="#000000" fill-rule="evenodd" fill-opacity="1" /><path clip-path="url(#clip880)" d="M1651.41 14.324 L1651.41 27.2059 L1666.76 27.2059 L1666.76 32.9987 L1651.41 32.9987 L1651.41 57.6282 Q1651.41 63.1779 1652.91 64.7578 Q1654.45 66.3376 1659.11 66.3376 L1666.76 66.3376 L1666.76 72.576 L1659.11 72.576 Q1650.48 72.576 1647.2 69.3758 Q1643.92 66.1351 1643.92 57.6282 L1643.92 32.9987 L1638.45 32.9987 L1638.45 27.2059 L1643.92 27.2059 L1643.92 14.324 L1651.41 14.324 Z" fill="#000000" fill-rule="evenodd" fill-opacity="1" /><path clip-path="url(#clip880)" d="M1715.38 48.0275 L1715.38 51.6733 L1681.1 51.6733 Q1681.59 59.3701 1685.72 63.421 Q1689.9 67.4314 1697.31 67.4314 Q1701.6 67.4314 1705.61 66.3781 Q1709.66 65.3249 1713.63 63.2184 L1713.63 70.267 Q1709.62 71.9684 1705.41 72.8596 Q1701.2 73.7508 1696.86 73.7508 Q1686.01 73.7508 1679.65 67.4314 Q1673.33 61.1119 1673.33 50.3365 Q1673.33 39.1965 1679.32 32.6746 Q1685.36 26.1121 1695.57 26.1121 Q1704.72 26.1121 1710.03 32.0264 Q1715.38 37.9003 1715.38 48.0275 M1707.92 45.84 Q1707.84 39.7232 1704.48 36.0774 Q1701.16 32.4315 1695.65 32.4315 Q1689.41 32.4315 1685.64 35.9558 Q1681.92 39.4801 1681.35 45.8805 L1707.92 45.84 Z" fill="#000000" fill-rule="evenodd" fill-opacity="1" /><path clip-path="url(#clip880)" d="M1753.9 34.1734 Q1752.64 33.4443 1751.15 33.1202 Q1749.69 32.7556 1747.9 32.7556 Q1741.58 32.7556 1738.18 36.8875 Q1734.82 40.9789 1734.82 48.6757 L1734.82 72.576 L1727.33 72.576 L1727.33 27.2059 L1734.82 27.2059 L1734.82 34.2544 Q1737.17 30.1225 1740.94 28.1376 Q1744.7 26.1121 1750.09 26.1121 Q1750.86 26.1121 1751.79 26.2337 Q1752.72 26.3147 1753.86 26.5172 L1753.9 34.1734 Z" fill="#000000" fill-rule="evenodd" fill-opacity="1" /><path clip-path="url(#clip880)" d="M1817.09 44.2197 Q1819.73 45.1109 1822.2 48.0275 Q1824.71 50.9442 1827.22 56.0483 L1835.53 72.576 L1826.73 72.576 L1819 57.061 Q1816 50.9847 1813.16 48.9997 Q1810.37 47.0148 1805.51 47.0148 L1796.6 47.0148 L1796.6 72.576 L1788.41 72.576 L1788.41 12.096 L1806.89 12.096 Q1817.26 12.096 1822.36 16.4305 Q1827.46 20.7649 1827.46 29.5149 Q1827.46 35.2267 1824.79 38.994 Q1822.16 42.7613 1817.09 44.2197 M1796.6 18.8205 L1796.6 40.2903 L1806.89 40.2903 Q1812.8 40.2903 1815.8 37.5762 Q1818.84 34.8216 1818.84 29.5149 Q1818.84 24.2082 1815.8 21.5346 Q1812.8 18.8205 1806.89 18.8205 L1796.6 18.8205 Z" fill="#000000" fill-rule="evenodd" fill-opacity="1" /><path clip-path="url(#clip880)" d="M1841.24 54.671 L1841.24 27.2059 L1848.69 27.2059 L1848.69 54.3874 Q1848.69 60.8284 1851.2 64.0691 Q1853.71 67.2693 1858.74 67.2693 Q1864.77 67.2693 1868.26 63.421 Q1871.78 59.5726 1871.78 52.9291 L1871.78 27.2059 L1879.23 27.2059 L1879.23 72.576 L1871.78 72.576 L1871.78 65.6084 Q1869.07 69.7404 1865.46 71.7658 Q1861.9 73.7508 1857.16 73.7508 Q1849.34 73.7508 1845.29 68.8897 Q1841.24 64.0286 1841.24 54.671 M1859.99 26.1121 L1859.99 26.1121 Z" fill="#000000" fill-rule="evenodd" fill-opacity="1" /><path clip-path="url(#clip880)" d="M1932.3 45.1919 L1932.3 72.576 L1924.85 72.576 L1924.85 45.4349 Q1924.85 38.994 1922.34 35.7938 Q1919.82 32.5936 1914.8 32.5936 Q1908.77 32.5936 1905.28 36.4419 Q1901.8 40.2903 1901.8 46.9338 L1901.8 72.576 L1894.3 72.576 L1894.3 27.2059 L1901.8 27.2059 L1901.8 34.2544 Q1904.47 30.163 1908.08 28.1376 Q1911.72 26.1121 1916.46 26.1121 Q1924.28 26.1121 1928.29 30.9732 Q1932.3 35.7938 1932.3 45.1919 Z" fill="#000000" fill-rule="evenodd" fill-opacity="1" /><path clip-path="url(#clip880)" d="M1949.07 62.2867 L1957.62 62.2867 L1957.62 72.576 L1949.07 72.576 L1949.07 62.2867 M1949.07 29.6769 L1957.62 29.6769 L1957.62 39.9662 L1949.07 39.9662 L1949.07 29.6769 Z" fill="#000000" fill-rule="evenodd" fill-opacity="1" /><path clip-path="url(#clip880)" d="M2009.59 65.6895 L2038.15 65.6895 L2038.15 72.576 L1999.75 72.576 L1999.75 65.6895 Q2004.41 60.8689 2012.43 52.7671 Q2020.49 44.6248 2022.56 42.2752 Q2026.49 37.8598 2028.02 34.8216 Q2029.6 31.7429 2029.6 28.7857 Q2029.6 23.9651 2026.2 20.927 Q2022.84 17.8888 2017.41 17.8888 Q2013.56 17.8888 2009.27 19.2256 Q2005.02 20.5624 2000.15 23.2765 L2000.15 15.0127 Q2005.1 13.0277 2009.39 12.015 Q2013.68 11.0023 2017.25 11.0023 Q2026.65 11.0023 2032.24 15.7013 Q2037.83 20.4004 2037.83 28.2591 Q2037.83 31.9859 2036.41 35.3482 Q2035.03 38.6699 2031.35 43.2069 Q2030.33 44.3817 2024.91 50.0125 Q2019.48 55.6027 2009.59 65.6895 Z" fill="#000000" fill-rule="evenodd" fill-opacity="1" /><polyline clip-path="url(#clip882)" style="stroke:#009af9; stroke-linecap:butt; stroke-linejoin:round; stroke-width:8; stroke-opacity:1; fill:none" points="
  361.501,1365.41 366.334,1365.1 371.167,1364.2 376,1362.69 380.833,1360.59 385.666,1357.89 390.5,1354.59 395.333,1350.7 400.166,1346.22 404.999,1341.16 
  409.832,1335.52 414.665,1329.31 419.498,1322.53 424.332,1315.19 429.165,1307.3 433.998,1298.87 438.831,1289.89 443.664,1280.39 448.497,1270.38 453.33,1259.86 
  458.164,1248.84 462.997,1237.33 467.83,1225.34 472.663,1212.9 477.496,1200 482.329,1186.66 487.162,1172.9 491.996,1158.73 496.829,1144.16 501.662,1129.21 
  506.495,1113.9 511.328,1098.23 516.161,1082.23 520.994,1065.9 525.828,1049.28 530.661,1032.36 535.494,1015.18 540.327,997.743 545.16,980.072 549.993,962.183 
  554.826,944.096 559.66,925.826 564.493,907.393 569.326,888.815 574.159,870.111 578.992,851.3 583.825,832.399 588.658,813.429 593.492,794.408 598.325,775.355 
  603.158,756.289 607.991,737.229 612.824,718.195 617.657,699.205 622.49,680.278 627.324,661.433 632.157,642.69 636.99,624.067 641.823,605.582 646.656,587.253 
  651.489,569.101 656.322,551.141 661.156,533.393 665.989,515.874 670.822,498.602 675.655,481.594 680.488,464.866 685.321,448.437 690.154,432.321 694.988,416.536 
  699.821,401.097 704.654,386.019 709.487,371.317 714.32,357.007 719.153,343.102 723.986,329.617 728.82,316.565 733.653,303.959 738.486,291.811 743.319,280.134 
  748.152,268.939 752.985,258.238 757.818,248.042 762.652,238.359 767.485,229.202 772.318,220.577 777.151,212.494 781.984,204.961 786.817,197.986 791.65,191.576 
  796.484,185.736 801.317,180.473 806.15,175.793 810.983,171.699 815.816,168.196 820.649,165.287 825.482,162.976 830.316,161.264 835.149,160.153 839.982,159.645 
  844.815,159.74 849.648,160.437 854.481,161.737 859.314,163.637 864.148,166.137 868.981,169.232 873.814,172.922 878.647,177.2 883.48,182.064 888.313,187.509 
  893.147,193.528 897.98,200.117 902.813,207.268 907.646,214.975 912.479,223.229 917.312,232.023 922.145,241.348 926.979,251.194 931.812,261.55 936.645,272.408 
  941.478,283.757 946.311,295.584 951.144,307.877 955.977,320.626 960.811,333.816 965.644,347.435 970.477,361.468 975.31,375.903 980.143,390.724 984.976,405.917 
  989.809,421.467 994.643,437.357 999.476,453.573 1004.31,470.098 1009.14,486.915 1013.98,504.008 1018.81,521.359 1023.64,538.951 1028.47,556.767 1033.31,574.789 
  1038.14,592.998 1042.97,611.377 1047.81,629.908 1052.64,648.571 1057.47,667.348 1062.31,686.221 1067.14,705.17 1071.97,724.176 1076.81,743.221 1081.64,762.284 
  1086.47,781.349 1091.31,800.395 1096.14,819.403 1100.97,838.355 1105.8,857.231 1110.64,876.012 1115.47,894.679 1120.3,913.213 1125.14,931.598 1129.97,949.813 
  1134.8,967.842 1139.64,985.664 1144.47,1003.26 1149.3,1020.62 1154.14,1037.72 1158.97,1054.55 1163.8,1071.08 1168.64,1087.3 1173.47,1103.2 1178.3,1118.76 
  1183.14,1133.96 1187.97,1148.79 1192.8,1163.23 1197.63,1177.27 1202.47,1190.9 1207.3,1204.1 1212.13,1216.85 1216.97,1229.16 1221.8,1240.99 1226.63,1252.35 
  1231.47,1263.22 1236.3,1273.58 1241.13,1283.44 1245.97,1292.77 1250.8,1301.57 1255.63,1309.84 1260.47,1317.56 1265.3,1324.72 1270.13,1331.32 1274.96,1337.35 
  1279.8,1342.81 1284.63,1347.68 1289.46,1351.97 1294.3,1355.67 1299.13,1358.78 1303.96,1361.29 1308.8,1363.21 1313.63,1364.52 1318.46,1365.23 1323.3,1365.34 
  1328.13,1364.84 1332.96,1363.74 1337.8,1362.04 1342.63,1359.75 1347.46,1356.85 1352.3,1353.36 1357.13,1349.28 1361.96,1344.61 1366.79,1339.36 1371.63,1333.54 
  1376.46,1327.14 1381.29,1320.18 1386.13,1312.66 1390.96,1304.59 1395.79,1295.98 1400.63,1286.83 1405.46,1277.16 1410.29,1266.98 1415.13,1256.29 1419.96,1245.11 
  1424.79,1233.45 1429.63,1221.31 1434.46,1208.71 1439.29,1195.67 1444.12,1182.2 1448.96,1168.31 1453.79,1154.01 1458.62,1139.32 1463.46,1124.25 1468.29,1108.83 
  1473.12,1093.05 1477.96,1076.95 1482.79,1060.53 1487.62,1043.81 1492.46,1026.81 1497.29,1009.55 1502.12,992.042 1506.96,974.303 1511.79,956.353 1516.62,938.209 
  1521.46,919.889 1526.29,901.414 1531.12,882.8 1535.95,864.064 1540.79,845.227 1545.62,826.307 1550.45,807.324 1555.29,788.296 1560.12,769.243 1564.95,750.184 
  1569.79,731.138 1574.62,712.122 1579.45,693.156 1584.29,674.261 1589.12,655.453 1593.95,636.754 1598.79,618.18 1603.62,599.751 1608.45,581.484 1613.28,563.399 
  1618.12,545.513 1622.95,527.844 1627.78,510.41 1632.62,493.229 1637.45,476.316 1642.28,459.691 1647.12,443.368 1651.95,427.364 1656.78,411.696 1661.62,396.379 
  1666.45,381.428 1671.28,366.859 1676.12,352.685 1680.95,338.92 1685.78,325.581 1690.62,312.678 1695.45,300.225 1700.28,288.235 1705.11,276.719 1709.95,265.689 
  1714.78,255.155 1719.61,245.129 1724.45,235.621 1729.28,226.64 1734.11,218.195 1738.95,210.295 1743.78,202.947 1748.61,196.157 1753.45,189.934 1758.28,184.284 
  1763.11,179.214 1767.95,174.727 1772.78,170.827 1777.61,167.519 1782.44,164.806 1787.28,162.69 1792.11,161.173 1796.94,160.26 1801.78,159.949 1806.61,160.24 
  1811.44,161.134 1816.28,162.629 1821.11,164.724 1825.94,167.415 1830.78,170.701 1835.61,174.582 1840.44,179.05 1845.28,184.101 1850.11,189.731 1854.94,195.934 
  1859.78,202.702 1864.61,210.029 1869.44,217.91 1874.27,226.336 1879.11,235.299 1883.94,244.788 1888.77,254.795 1893.61,265.31 1898.44,276.321 1903.27,287.817 
  1908.11,299.79 1912.94,312.225 1917.77,325.112 1922.61,338.435 1927.44,352.182 1932.27,366.339 1937.11,380.891 1941.94,395.824 1946.77,411.126 1951.6,426.78 
  1956.44,442.768 1961.27,459.077 1966.1,475.689 1970.94,492.586 1975.77,509.753 1980.6,527.173 1985.44,544.829 1990.27,562.703 1995.1,580.777 1999.94,599.032 
  2004.77,617.45 2009.6,636.013 2014.44,654.701 2019.27,673.498 2024.1,692.385 2028.94,711.341 2033.77,730.349 2038.6,749.388 2043.43,768.441 2048.27,787.486 
  2053.1,806.507 2057.93,825.484 2062.77,844.398 2067.6,863.23 2072.43,881.961 2077.27,900.573 2082.1,919.046 2086.93,937.363 2091.77,955.504 2096.6,973.452 
  2101.43,991.19 2106.27,1008.7 2111.1,1025.96 2115.93,1042.96 2120.77,1059.68 2125.6,1076.1 2130.43,1092.21 2135.26,1107.98 2140.1,1123.42 2144.93,1138.49 
  2149.76,1153.18 2154.6,1167.48 2159.43,1181.38 2164.26,1194.86 2169.1,1207.91 2173.93,1220.51 2178.76,1232.66 2183.6,1244.33 2188.43,1255.52 2193.26,1266.22 
  2198.1,1276.42 2202.93,1286.1 2207.76,1295.26 2212.59,1303.88 2217.43,1311.96 2222.26,1319.49 2227.09,1326.47 2231.93,1332.88 2236.76,1338.73 2241.59,1343.99 
  2246.43,1348.68 2251.26,1352.77 2256.09,1356.28 2260.93,1359.19 2265.76,1361.51 2270.59,1363.23 2275.43,1364.35 2280.26,1364.87 2285.09,1364.78 2289.93,1364.09 
  2294.76,1362.8 
  "/>
<polyline clip-path="url(#clip882)" style="stroke:#e26f46; stroke-linecap:butt; stroke-linejoin:round; stroke-width:8; stroke-opacity:1; fill:none" points="
  361.501,1365.41 366.334,1365.19 371.167,1364.55 376,1363.47 380.833,1361.95 385.666,1360 390.5,1357.61 395.333,1354.79 400.166,1351.52 404.999,1347.82 
  409.832,1343.68 414.665,1339.12 419.498,1334.12 424.332,1328.7 429.165,1322.86 433.998,1316.6 438.831,1309.93 443.664,1302.85 448.497,1295.38 453.33,1287.51 
  458.164,1279.26 462.997,1270.62 467.83,1261.63 472.663,1252.27 477.496,1242.55 482.329,1232.5 487.162,1222.11 491.996,1211.4 496.829,1200.37 501.662,1189.05 
  506.495,1177.43 511.328,1165.53 516.161,1153.37 520.994,1140.95 525.828,1128.29 530.661,1115.4 535.494,1102.29 540.327,1088.97 545.16,1075.47 549.993,1061.79 
  554.826,1047.94 559.66,1033.94 564.493,1019.8 569.326,1005.54 574.159,991.18 578.992,976.726 583.825,962.197 588.658,947.601 593.492,932.956 598.325,918.278 
  603.158,903.581 607.991,888.88 612.824,874.188 617.657,859.52 622.49,844.891 627.324,830.316 632.157,815.808 636.99,801.383 641.823,787.054 646.656,772.837 
  651.489,758.745 656.322,744.792 661.156,730.992 665.989,717.359 670.822,703.908 675.655,690.652 680.488,677.602 685.321,664.773 690.154,652.178 694.988,639.83 
  699.821,627.741 704.654,615.922 709.487,604.386 714.32,593.145 719.153,582.211 723.986,571.594 728.82,561.305 733.653,551.354 738.486,541.753 743.319,532.511 
  748.152,523.637 752.985,515.141 757.818,507.032 762.652,499.318 767.485,492.009 772.318,485.111 777.151,478.634 781.984,472.583 786.817,466.967 791.65,461.793 
  796.484,457.066 801.317,452.793 806.15,448.98 810.983,445.632 815.816,442.756 820.649,440.356 825.482,438.439 830.316,437.007 835.149,436.067 839.982,435.623 
  844.815,435.654 849.648,436.048 854.481,436.799 859.314,437.909 864.148,439.378 868.981,441.209 873.814,443.402 878.647,445.956 883.48,448.872 888.313,452.148 
  893.147,455.782 897.98,459.772 902.813,464.116 907.646,468.811 912.479,473.853 917.312,479.239 922.145,484.964 926.979,491.025 931.812,497.414 936.645,504.126 
  941.478,511.157 946.311,518.499 951.144,526.145 955.977,534.088 960.811,542.322 965.644,550.837 970.477,559.624 975.31,568.676 980.143,577.986 984.976,587.544 
  989.809,597.341 994.643,607.367 999.476,617.612 1004.31,628.067 1009.14,638.72 1013.98,649.561 1018.81,660.58 1023.64,671.765 1028.47,683.105 1033.31,694.589 
  1038.14,706.205 1042.97,717.942 1047.81,729.789 1052.64,741.732 1057.47,753.761 1062.31,765.864 1067.14,778.029 1071.97,790.243 1076.81,802.494 1081.64,814.77 
  1086.47,827.059 1091.31,839.349 1096.14,851.628 1100.97,863.882 1105.8,876.099 1110.64,888.267 1115.47,900.376 1120.3,912.412 1125.14,924.362 1129.97,936.215 
  1134.8,947.958 1139.64,959.581 1144.47,971.072 1149.3,982.419 1154.14,993.61 1158.97,1004.63 1163.8,1015.48 1168.64,1026.14 1173.47,1036.6 1178.3,1046.84 
  1183.14,1056.87 1187.97,1066.66 1192.8,1076.22 1197.63,1085.52 1202.47,1094.56 1207.3,1103.34 1212.13,1111.83 1216.97,1120.04 1221.8,1127.95 1226.63,1135.56 
  1231.47,1142.85 1236.3,1149.82 1241.13,1156.46 1245.97,1162.77 1250.8,1168.74 1255.63,1174.35 1260.47,1179.61 1265.3,1184.51 1270.13,1189.03 1274.96,1193.19 
  1279.8,1196.96 1284.63,1200.34 1289.46,1203.34 1294.3,1205.94 1299.13,1208.14 1303.96,1209.93 1308.8,1211.32 1313.63,1212.29 1318.46,1212.85 1323.3,1212.98 
  1328.13,1212.79 1332.96,1212.32 1337.8,1211.57 1342.63,1210.54 1347.46,1209.24 1352.3,1207.64 1357.13,1205.77 1361.96,1203.61 1366.79,1201.17 1371.63,1198.45 
  1376.46,1195.45 1381.29,1192.17 1386.13,1188.61 1390.96,1184.78 1395.79,1180.68 1400.63,1176.31 1405.46,1171.67 1410.29,1166.77 1415.13,1161.62 1419.96,1156.21 
  1424.79,1150.56 1429.63,1144.65 1434.46,1138.52 1439.29,1132.14 1444.12,1125.54 1448.96,1118.72 1453.79,1111.68 1458.62,1104.44 1463.46,1096.99 1468.29,1089.35 
  1473.12,1081.52 1477.96,1073.52 1482.79,1065.34 1487.62,1057 1492.46,1048.5 1497.29,1039.86 1502.12,1031.08 1506.96,1022.17 1511.79,1013.13 1516.62,1003.99 
  1521.46,994.74 1526.29,985.398 1531.12,975.969 1535.95,966.464 1540.79,956.892 1545.62,947.264 1550.45,937.59 1555.29,927.88 1560.12,918.14 1564.95,908.381 
  1569.79,898.614 1574.62,888.848 1579.45,879.095 1584.29,869.364 1589.12,859.665 1593.95,850.005 1598.79,840.396 1603.62,830.847 1608.45,821.368 1613.28,811.968 
  1618.12,802.659 1622.95,793.447 1627.78,784.344 1632.62,775.357 1637.45,766.496 1642.28,757.771 1647.12,749.189 1651.95,740.76 1656.78,732.491 1661.62,724.393 
  1666.45,716.473 1671.28,708.74 1676.12,701.2 1680.95,693.863 1685.78,686.734 1690.62,679.823 1695.45,673.138 1700.28,666.684 1705.11,660.469 1709.95,654.499 
  1714.78,648.781 1719.61,643.322 1724.45,638.128 1729.28,633.205 1734.11,628.559 1738.95,624.195 1743.78,620.119 1748.61,616.336 1753.45,612.851 1758.28,609.669 
  1763.11,606.794 1767.95,604.232 1772.78,601.987 1777.61,600.061 1782.44,598.46 1787.28,597.186 1792.11,596.244 1796.94,595.637 1801.78,595.369 1806.61,595.408 
  1811.44,595.644 1816.28,596.075 1821.11,596.701 1825.94,597.525 1830.78,598.547 1835.61,599.767 1840.44,601.186 1845.28,602.803 1850.11,604.619 1854.94,606.632 
  1859.78,608.843 1864.61,611.25 1869.44,613.851 1874.27,616.645 1879.11,619.632 1883.94,622.806 1888.77,626.168 1893.61,629.716 1898.44,633.444 1903.27,637.353 
  1908.11,641.437 1912.94,645.692 1917.77,650.115 1922.61,654.704 1927.44,659.455 1932.27,664.364 1937.11,669.424 1941.94,674.633 1946.77,679.987 1951.6,685.478 
  1956.44,691.103 1961.27,696.856 1966.1,702.731 1970.94,708.724 1975.77,714.827 1980.6,721.035 1985.44,727.343 1990.27,733.744 1995.1,740.232 1999.94,746.8 
  2004.77,753.443 2009.6,760.153 2014.44,766.925 2019.27,773.752 2024.1,780.626 2028.94,787.542 2033.77,794.492 2038.6,801.47 2043.43,808.468 2048.27,815.479 
  2053.1,822.497 2057.93,829.514 2062.77,836.525 2067.6,843.52 2072.43,850.494 2077.27,857.439 2082.1,864.348 2086.93,871.214 2091.77,878.031 2096.6,884.791 
  2101.43,891.488 2106.27,898.114 2111.1,904.663 2115.93,911.128 2120.77,917.503 2125.6,923.781 2130.43,929.955 2135.26,936.019 2140.1,941.966 2144.93,947.791 
  2149.76,953.487 2154.6,959.049 2159.43,964.47 2164.26,969.744 2169.1,974.866 2173.93,979.83 2178.76,984.631 2183.6,989.263 2188.43,993.721 2193.26,998 
  2198.1,1002.09 2202.93,1006 2207.76,1009.71 2212.59,1013.23 2217.43,1016.54 2222.26,1019.65 2227.09,1022.54 2231.93,1025.22 2236.76,1027.68 2241.59,1029.92 
  2246.43,1031.93 2251.26,1033.71 2256.09,1035.26 2260.93,1036.58 2265.76,1037.65 2270.59,1038.49 2275.43,1039.07 2280.26,1039.42 2285.09,1039.51 2289.93,1039.44 
  2294.76,1039.27 
  "/>
<polyline clip-path="url(#clip882)" style="stroke:#008000; stroke-linecap:butt; stroke-linejoin:round; stroke-width:8; stroke-opacity:1; fill:none" stroke-dasharray="4, 8" points="
  361.501,1365.41 366.334,1365.05 371.167,1364.23 376,1362.94 380.833,1361.18 385.666,1358.96 390.5,1356.27 395.333,1353.12 400.166,1349.51 404.999,1345.44 
  409.832,1340.91 414.665,1335.92 419.498,1330.49 424.332,1324.61 429.165,1318.29 433.998,1311.55 438.831,1304.37 443.664,1296.78 448.497,1288.78 453.33,1280.37 
  458.164,1271.58 462.997,1262.4 467.83,1252.85 472.663,1242.94 477.496,1232.67 482.329,1222.08 487.162,1211.15 491.996,1199.92 496.829,1188.38 501.662,1176.56 
  506.495,1164.46 511.328,1152.11 516.161,1139.52 520.994,1126.69 525.828,1113.66 530.661,1100.42 535.494,1087.01 540.327,1073.43 545.16,1059.7 549.993,1045.83 
  554.826,1031.85 559.66,1017.76 564.493,1003.59 569.326,989.341 574.159,975.039 578.992,960.698 583.825,946.333 588.658,931.959 593.492,917.592 598.325,903.248 
  603.158,888.94 607.991,874.686 612.824,860.497 617.657,846.39 622.49,832.378 627.324,818.474 632.157,804.691 636.99,791.043 641.823,777.541 646.656,764.199 
  651.489,751.029 656.322,738.041 661.156,725.248 665.989,712.659 670.822,700.286 675.655,688.138 680.488,676.225 685.321,664.555 690.154,653.139 694.988,641.983 
  699.821,631.098 704.654,620.49 709.487,610.167 714.32,600.136 719.153,590.405 723.986,580.98 728.82,571.867 733.653,563.072 738.486,554.601 743.319,546.459 
  748.152,538.65 752.985,531.179 757.818,524.049 762.652,517.267 767.485,510.836 772.318,504.763 777.151,499.05 781.984,493.703 786.817,488.723 791.65,484.115 
  796.484,479.881 801.317,476.023 806.15,472.543 810.983,469.442 815.816,466.723 820.649,464.384 825.482,462.427 830.316,460.851 835.149,459.656 839.982,458.841 
  844.815,458.404 849.648,458.345 854.481,458.66 859.314,459.347 864.148,460.404 868.981,461.827 873.814,463.613 878.647,465.76 883.48,468.264 888.313,471.121 
  893.147,474.325 897.98,477.871 902.813,481.753 907.646,485.966 912.479,490.504 917.312,495.36 922.145,500.527 926.979,505.999 931.812,511.768 936.645,517.827 
  941.478,524.168 946.311,530.783 951.144,537.664 955.977,544.802 960.811,552.187 965.644,559.812 970.477,567.669 975.31,575.75 980.143,584.044 984.976,592.543 
  989.809,601.237 994.643,610.117 999.476,619.174 1004.31,628.398 1009.14,637.78 1013.98,647.311 1018.81,656.982 1023.64,666.785 1028.47,676.71 1033.31,686.749 
  1038.14,696.892 1042.97,707.131 1047.81,717.457 1052.64,727.863 1057.47,738.338 1062.31,748.876 1067.14,759.466 1071.97,770.102 1076.81,780.774 1081.64,791.475 
  1086.47,802.197 1091.31,812.93 1096.14,823.668 1100.97,834.402 1105.8,845.124 1110.64,855.827 1115.47,866.501 1120.3,877.14 1125.14,887.735 1129.97,898.279 
  1134.8,908.762 1139.64,919.178 1144.47,929.518 1149.3,939.774 1154.14,949.937 1158.97,960 1163.8,969.954 1168.64,979.792 1173.47,989.504 1178.3,999.083 
  1183.14,1008.52 1187.97,1017.81 1192.8,1026.94 1197.63,1035.9 1202.47,1044.68 1207.3,1053.29 1212.13,1061.7 1216.97,1069.93 1221.8,1077.96 1226.63,1085.77 
  1231.47,1093.37 1236.3,1100.73 1241.13,1107.86 1245.97,1114.73 1250.8,1121.35 1255.63,1127.69 1260.47,1133.77 1265.3,1139.56 1270.13,1145.05 1274.96,1150.26 
  1279.8,1155.15 1284.63,1159.74 1289.46,1164.02 1294.3,1167.97 1299.13,1171.6 1303.96,1174.9 1308.8,1177.86 1313.63,1180.49 1318.46,1182.78 1323.3,1184.72 
  1328.13,1186.32 1332.96,1187.57 1337.8,1188.48 1342.63,1189.03 1347.46,1189.23 1352.3,1189.08 1357.13,1188.58 1361.96,1187.73 1366.79,1186.53 1371.63,1184.98 
  1376.46,1183.08 1381.29,1180.82 1386.13,1178.22 1390.96,1175.28 1395.79,1171.99 1400.63,1168.37 1405.46,1164.41 1410.29,1160.13 1415.13,1155.52 1419.96,1150.59 
  1424.79,1145.35 1429.63,1139.8 1434.46,1133.96 1439.29,1127.83 1444.12,1121.41 1448.96,1114.72 1453.79,1107.76 1458.62,1100.55 1463.46,1093.09 1468.29,1085.39 
  1473.12,1077.47 1477.96,1069.33 1482.79,1060.99 1487.62,1052.45 1492.46,1043.73 1497.29,1034.84 1502.12,1025.78 1506.96,1016.58 1511.79,1007.25 1516.62,997.79 
  1521.46,988.222 1526.29,978.555 1531.12,968.802 1535.95,958.975 1540.79,949.086 1545.62,939.146 1550.45,929.169 1555.29,919.165 1560.12,909.147 1564.95,899.126 
  1569.79,889.115 1574.62,879.124 1579.45,869.166 1584.29,859.251 1589.12,849.393 1593.95,839.601 1598.79,829.888 1603.62,820.266 1608.45,810.744 1613.28,801.335 
  1618.12,792.051 1622.95,782.898 1627.78,773.881 1632.62,765.01 1637.45,756.295 1642.28,747.742 1647.12,739.362 1651.95,731.161 1656.78,723.149 1661.62,715.331 
  1666.45,707.715 1671.28,700.308 1676.12,693.116 1680.95,686.145 1685.78,679.402 1690.62,672.891 1695.45,666.618 1700.28,660.587 1705.11,654.804 1709.95,649.272 
  1714.78,643.995 1719.61,638.977 1724.45,634.221 1729.28,629.73 1734.11,625.507 1738.95,621.553 1743.78,617.871 1748.61,614.462 1753.45,611.329 1758.28,608.473 
  1763.11,605.898 1767.95,603.604 1772.78,601.591 1777.61,599.862 1782.44,598.416 1787.28,597.253 1792.11,596.374 1796.94,595.777 1801.78,595.462 1806.61,595.427 
  1811.44,595.671 1816.28,596.192 1821.11,596.988 1825.94,598.056 1830.78,599.393 1835.61,600.996 1840.44,602.862 1845.28,604.986 1850.11,607.365 1854.94,609.993 
  1859.78,612.867 1864.61,615.98 1869.44,619.327 1874.27,622.903 1879.11,626.7 1883.94,630.714 1888.77,634.939 1893.61,639.373 1898.44,644.011 1903.27,648.844 
  1908.11,653.868 1912.94,659.076 1917.77,664.46 1922.61,670.016 1927.44,675.735 1932.27,681.612 1937.11,687.639 1941.94,693.809 1946.77,700.117 1951.6,706.554 
  1956.44,713.115 1961.27,719.791 1966.1,726.576 1970.94,733.462 1975.77,740.442 1980.6,747.509 1985.44,754.656 1990.27,761.875 1995.1,769.158 1999.94,776.499 
  2004.77,783.89 2009.6,791.326 2014.44,798.798 2019.27,806.299 2024.1,813.823 2028.94,821.361 2033.77,828.907 2038.6,836.453 2043.43,843.993 2048.27,851.519 
  2053.1,859.024 2057.93,866.502 2062.77,873.944 2067.6,881.345 2072.43,888.698 2077.27,895.995 2082.1,903.23 2086.93,910.396 2091.77,917.485 2096.6,924.493 
  2101.43,931.41 2106.27,938.232 2111.1,944.952 2115.93,951.562 2120.77,958.056 2125.6,964.428 2130.43,970.671 2135.26,976.779 2140.1,982.745 2144.93,988.566 
  2149.76,994.239 2154.6,999.754 2159.43,1005.11 2164.26,1010.29 2169.1,1015.29 2173.93,1020.12 2178.76,1024.75 2183.6,1029.19 2188.43,1033.44 2193.26,1037.48 
  2198.1,1041.31 2202.93,1044.92 2207.76,1048.32 2212.59,1051.5 2217.43,1054.46 2222.26,1057.18 2227.09,1059.68 2231.93,1061.95 2236.76,1063.97 2241.59,1065.76 
  2246.43,1067.31 2251.26,1068.62 2256.09,1069.69 2260.93,1070.51 2265.76,1071.09 2270.59,1071.43 2275.43,1071.51 2280.26,1071.36 2285.09,1070.96 2289.93,1070.31 
  2294.76,1069.42 
  "/>
<polyline clip-path="url(#clip882)" style="stroke:#008000; stroke-linecap:butt; stroke-linejoin:round; stroke-width:8; stroke-opacity:1; fill:none" points="
  361.501,1365.41 366.334,1364.77 371.167,1363.65 376,1362.06 380.833,1359.99 385.666,1357.46 390.5,1354.45 395.333,1350.98 400.166,1347.04 404.999,1342.65 
  409.832,1337.81 414.665,1332.53 419.498,1326.8 424.332,1320.65 429.165,1314.07 433.998,1307.07 438.831,1299.67 443.664,1291.87 448.497,1283.68 453.33,1275.11 
  458.164,1266.17 462.997,1256.88 467.83,1247.23 472.663,1237.26 477.496,1226.95 482.329,1216.34 487.162,1205.43 491.996,1194.23 496.829,1182.76 501.662,1171.03 
  506.495,1159.05 511.328,1146.84 516.161,1134.42 520.994,1121.79 525.828,1108.97 530.661,1095.97 535.494,1082.82 540.327,1069.52 545.16,1056.09 549.993,1042.55 
  554.826,1028.9 559.66,1015.17 564.493,1001.36 569.326,987.503 574.159,973.597 578.992,959.664 583.825,945.716 588.658,931.767 593.492,917.831 598.325,903.921 
  603.158,890.05 607.991,876.231 612.824,862.477 617.657,848.798 622.49,835.208 627.324,821.717 632.157,808.337 636.99,795.077 641.823,781.95 646.656,768.964 
  651.489,756.129 656.322,743.456 661.156,730.952 665.989,718.629 670.822,706.493 675.655,694.552 680.488,682.816 685.321,671.293 690.154,659.989 694.988,648.912 
  699.821,638.072 704.654,627.474 709.487,617.126 714.32,607.036 719.153,597.21 723.986,587.655 728.82,578.38 733.653,569.389 738.486,560.69 743.319,552.289 
  748.152,544.192 752.985,536.406 757.818,528.935 762.652,521.785 767.485,514.964 772.318,508.477 777.151,502.331 781.984,496.532 786.817,491.084 791.65,485.994 
  796.484,481.265 801.317,476.902 806.15,472.909 810.983,469.289 815.816,466.045 820.649,463.181 825.482,460.698 830.316,458.598 835.149,456.885 839.982,455.557 
  844.815,454.618 849.648,454.066 854.481,453.903 859.314,454.128 864.148,454.741 868.981,455.741 873.814,457.127 878.647,458.896 883.48,461.047 888.313,463.577 
  893.147,466.483 897.98,469.761 902.813,473.407 907.646,477.416 912.479,481.784 917.312,486.506 922.145,491.575 926.979,496.986 931.812,502.733 936.645,508.807 
  941.478,515.202 946.311,521.911 951.144,528.924 955.977,536.233 960.811,543.83 965.644,551.707 970.477,559.854 975.31,568.262 980.143,576.92 984.976,585.818 
  989.809,594.944 994.643,604.288 999.476,613.841 1004.31,623.589 1009.14,633.524 1013.98,643.633 1018.81,653.906 1023.64,664.332 1028.47,674.898 1033.31,685.594 
  1038.14,696.409 1042.97,707.33 1047.81,718.345 1052.64,729.444 1057.47,740.615 1062.31,751.844 1067.14,763.121 1071.97,774.432 1076.81,785.768 1081.64,797.118 
  1086.47,808.471 1091.31,819.817 1096.14,831.143 1100.97,842.441 1105.8,853.699 1110.64,864.907 1115.47,876.055 1120.3,887.132 1125.14,898.13 1129.97,909.037 
  1134.8,919.846 1139.64,930.546 1144.47,941.127 1149.3,951.582 1154.14,961.901 1158.97,972.075 1163.8,982.096 1168.64,991.955 1173.47,1001.64 1178.3,1011.16 
  1183.14,1020.48 1187.97,1029.61 1192.8,1038.54 1197.63,1047.27 1202.47,1055.79 1207.3,1064.08 1212.13,1072.14 1216.97,1079.97 1221.8,1087.55 1226.63,1094.88 
  1231.47,1101.95 1236.3,1108.75 1241.13,1115.28 1245.97,1121.53 1250.8,1127.49 1255.63,1133.17 1260.47,1138.55 1265.3,1143.63 1270.13,1148.41 1274.96,1152.88 
  1279.8,1157.03 1284.63,1160.88 1289.46,1164.4 1294.3,1167.6 1299.13,1170.48 1303.96,1173.03 1308.8,1175.25 1313.63,1177.14 1318.46,1178.71 1323.3,1179.94 
  1328.13,1180.83 1332.96,1181.4 1337.8,1181.63 1342.63,1181.53 1347.46,1181.09 1352.3,1180.32 1357.13,1179.22 1361.96,1177.79 1366.79,1176.04 1371.63,1173.95 
  1376.46,1171.55 1381.29,1168.83 1386.13,1165.8 1390.96,1162.45 1395.79,1158.8 1400.63,1154.85 1405.46,1150.6 1410.29,1146.07 1415.13,1141.25 1419.96,1136.15 
  1424.79,1130.79 1429.63,1125.16 1434.46,1119.27 1439.29,1113.14 1444.12,1106.78 1448.96,1100.18 1453.79,1093.36 1458.62,1086.32 1463.46,1079.08 1468.29,1071.64 
  1473.12,1064.02 1477.96,1056.22 1482.79,1048.26 1487.62,1040.13 1492.46,1031.86 1497.29,1023.45 1502.12,1014.92 1506.96,1006.26 1511.79,997.5 1516.62,988.639 
  1521.46,979.69 1526.29,970.662 1531.12,961.565 1535.95,952.41 1540.79,943.207 1545.62,933.965 1550.45,924.694 1555.29,915.405 1560.12,906.108 1564.95,896.812 
  1569.79,887.529 1574.62,878.267 1579.45,869.037 1584.29,859.844 1589.12,850.698 1593.95,841.606 1598.79,832.579 1603.62,823.623 1608.45,814.748 1613.28,805.96 
  1618.12,797.269 1622.95,788.681 1627.78,780.204 1632.62,771.845 1637.45,763.612 1642.28,755.511 1647.12,747.549 1651.95,739.733 1656.78,732.069 1661.62,724.563 
  1666.45,717.222 1671.28,710.051 1676.12,703.056 1680.95,696.242 1685.78,689.616 1690.62,683.182 1695.45,676.945 1700.28,670.91 1705.11,665.082 1709.95,659.463 
  1714.78,654.058 1719.61,648.871 1724.45,643.908 1729.28,639.172 1734.11,634.669 1738.95,630.403 1743.78,626.378 1748.61,622.596 1753.45,619.062 1758.28,615.779 
  1763.11,612.749 1767.95,609.975 1772.78,607.458 1777.61,605.201 1782.44,603.205 1787.28,601.472 1792.11,600.003 1796.94,598.798 1801.78,597.857 1806.61,597.181 
  1811.44,596.77 1816.28,596.623 1821.11,596.74 1825.94,597.118 1830.78,597.758 1835.61,598.658 1840.44,599.815 1845.28,601.227 1850.11,602.892 1854.94,604.808 
  1859.78,606.97 1864.61,609.379 1869.44,612.03 1874.27,614.92 1879.11,618.046 1883.94,621.401 1888.77,624.984 1893.61,628.788 1898.44,632.809 1903.27,637.042 
  1908.11,641.481 1912.94,646.122 1917.77,650.959 1922.61,655.985 1927.44,661.195 1932.27,666.582 1937.11,672.141 1941.94,677.864 1946.77,683.744 1951.6,689.774 
  1956.44,695.948 1961.27,702.257 1966.1,708.694 1970.94,715.251 1975.77,721.919 1980.6,728.692 1985.44,735.56 1990.27,742.52 1995.1,749.561 1999.94,756.677 
  2004.77,763.858 2009.6,771.098 2014.44,778.388 2019.27,785.719 2024.1,793.085 2028.94,800.477 2033.77,807.887 2038.6,815.309 2043.43,822.734 2048.27,830.155 
  2053.1,837.564 2057.93,844.953 2062.77,852.317 2067.6,859.646 2072.43,866.935 2077.27,874.175 2082.1,881.36 2086.93,888.482 2091.77,895.535 2096.6,902.512 
  2101.43,909.405 2106.27,916.208 2111.1,922.915 2115.93,929.518 2120.77,936.012 2125.6,942.394 2130.43,948.658 2135.26,954.796 2140.1,960.803 2144.93,966.673 
  2149.76,972.4 2154.6,977.978 2159.43,983.402 2164.26,988.667 2169.1,993.767 2173.93,998.699 2178.76,1003.46 2183.6,1008.04 2188.43,1012.44 2193.26,1016.65 
  2198.1,1020.68 2202.93,1024.51 2207.76,1028.15 2212.59,1031.59 2217.43,1034.83 2222.26,1037.86 2227.09,1040.69 2231.93,1043.31 2236.76,1045.72 2241.59,1047.92 
  2246.43,1049.91 2251.26,1051.68 2256.09,1053.23 2260.93,1054.58 2265.76,1055.7 2270.59,1056.6 2275.43,1057.29 2280.26,1057.76 2285.09,1058.01 2289.93,1058.04 
  2294.76,1057.86 
  "/>
<path clip-path="url(#clip880)" d="
M1421.89 554.876 L2284.45 554.876 L2284.45 166.076 L1421.89 166.076  Z
  " fill="#ffffff" fill-rule="evenodd" fill-opacity="1"/>
<polyline clip-path="url(#clip880)" style="stroke:#000000; stroke-linecap:butt; stroke-linejoin:round; stroke-width:4; stroke-opacity:1; fill:none" points="
  1421.89,554.876 2284.45,554.876 2284.45,166.076 1421.89,166.076 1421.89,554.876 
  "/>
<polyline clip-path="url(#clip880)" style="stroke:#009af9; stroke-linecap:butt; stroke-linejoin:round; stroke-width:6; stroke-opacity:1; fill:none" points="
  1444.66,243.836 1581.28,243.836 
  "/>
<path clip-path="url(#clip880)" d="M1637.42 219.617 L1637.42 226.457 Q1633.43 224.548 1629.88 223.61 Q1626.34 222.673 1623.04 222.673 Q1617.31 222.673 1614.19 224.895 Q1611.1 227.117 1611.1 231.214 Q1611.1 234.652 1613.15 236.423 Q1615.23 238.159 1621 239.235 L1625.23 240.103 Q1633.08 241.596 1636.79 245.381 Q1640.54 249.131 1640.54 255.45 Q1640.54 262.985 1635.47 266.874 Q1630.44 270.763 1620.68 270.763 Q1617 270.763 1612.84 269.929 Q1608.7 269.096 1604.26 267.464 L1604.26 260.242 Q1608.53 262.638 1612.63 263.853 Q1616.72 265.068 1620.68 265.068 Q1626.69 265.068 1629.95 262.707 Q1633.22 260.346 1633.22 255.971 Q1633.22 252.152 1630.86 249.999 Q1628.53 247.846 1623.18 246.77 L1618.91 245.936 Q1611.06 244.374 1607.56 241.041 Q1604.05 237.707 1604.05 231.77 Q1604.05 224.895 1608.88 220.937 Q1613.74 216.978 1622.25 216.978 Q1625.89 216.978 1629.68 217.638 Q1633.46 218.298 1637.42 219.617 Z" fill="#000000" fill-rule="evenodd" fill-opacity="1" /><path clip-path="url(#clip880)" d="M1651.2 230.867 L1657.59 230.867 L1657.59 269.756 L1651.2 269.756 L1651.2 230.867 M1651.2 215.728 L1657.59 215.728 L1657.59 223.818 L1651.2 223.818 L1651.2 215.728 Z" fill="#000000" fill-rule="evenodd" fill-opacity="1" /><path clip-path="url(#clip880)" d="M1701.24 238.332 Q1703.63 234.027 1706.97 231.978 Q1710.3 229.93 1714.81 229.93 Q1720.89 229.93 1724.19 234.2 Q1727.49 238.436 1727.49 246.284 L1727.49 269.756 L1721.06 269.756 L1721.06 246.492 Q1721.06 240.902 1719.08 238.193 Q1717.11 235.485 1713.04 235.485 Q1708.08 235.485 1705.2 238.784 Q1702.31 242.082 1702.31 247.777 L1702.31 269.756 L1695.89 269.756 L1695.89 246.492 Q1695.89 240.867 1693.91 238.193 Q1691.93 235.485 1687.8 235.485 Q1682.9 235.485 1680.02 238.818 Q1677.14 242.117 1677.14 247.777 L1677.14 269.756 L1670.72 269.756 L1670.72 230.867 L1677.14 230.867 L1677.14 236.909 Q1679.33 233.332 1682.38 231.631 Q1685.44 229.93 1689.64 229.93 Q1693.88 229.93 1696.83 232.082 Q1699.81 234.235 1701.24 238.332 Z" fill="#000000" fill-rule="evenodd" fill-opacity="1" /><path clip-path="url(#clip880)" d="M1746.41 263.922 L1746.41 284.547 L1739.99 284.547 L1739.99 230.867 L1746.41 230.867 L1746.41 236.77 Q1748.43 233.298 1751.48 231.631 Q1754.57 229.93 1758.84 229.93 Q1765.92 229.93 1770.33 235.555 Q1774.78 241.179 1774.78 250.346 Q1774.78 259.513 1770.33 265.138 Q1765.92 270.763 1758.84 270.763 Q1754.57 270.763 1751.48 269.096 Q1748.43 267.395 1746.41 263.922 M1768.15 250.346 Q1768.15 243.298 1765.23 239.304 Q1762.35 235.277 1757.28 235.277 Q1752.21 235.277 1749.29 239.304 Q1746.41 243.298 1746.41 250.346 Q1746.41 257.395 1749.29 261.422 Q1752.21 265.415 1757.28 265.415 Q1762.35 265.415 1765.23 261.422 Q1768.15 257.395 1768.15 250.346 Z" fill="#000000" fill-rule="evenodd" fill-opacity="1" /><path clip-path="url(#clip880)" d="M1785.37 215.728 L1791.76 215.728 L1791.76 269.756 L1785.37 269.756 L1785.37 215.728 Z" fill="#000000" fill-rule="evenodd" fill-opacity="1" /><path clip-path="url(#clip880)" d="M1838.39 248.714 L1838.39 251.839 L1809.01 251.839 Q1809.43 258.436 1812.97 261.909 Q1816.55 265.346 1822.9 265.346 Q1826.58 265.346 1830.02 264.443 Q1833.49 263.54 1836.9 261.735 L1836.9 267.777 Q1833.46 269.235 1829.85 269.999 Q1826.24 270.763 1822.52 270.763 Q1813.22 270.763 1807.76 265.346 Q1802.35 259.929 1802.35 250.693 Q1802.35 241.145 1807.49 235.555 Q1812.66 229.93 1821.41 229.93 Q1829.26 229.93 1833.81 234.999 Q1838.39 240.034 1838.39 248.714 M1832 246.839 Q1831.93 241.596 1829.05 238.471 Q1826.2 235.346 1821.48 235.346 Q1816.13 235.346 1812.9 238.367 Q1809.71 241.388 1809.22 246.874 L1832 246.839 Z" fill="#000000" fill-rule="evenodd" fill-opacity="1" /><path clip-path="url(#clip880)" d="M1849.15 217.916 L1878.95 217.916 L1878.95 223.818 L1856.17 223.818 L1856.17 239.096 L1876.72 239.096 L1876.72 244.999 L1856.17 244.999 L1856.17 269.756 L1849.15 269.756 L1849.15 217.916 Z" fill="#000000" fill-rule="evenodd" fill-opacity="1" /><path clip-path="url(#clip880)" d="M1890.06 217.916 L1900.51 217.916 L1913.74 253.193 L1927.04 217.916 L1937.49 217.916 L1937.49 269.756 L1930.65 269.756 L1930.65 224.235 L1917.28 259.79 L1910.23 259.79 L1896.86 224.235 L1896.86 269.756 L1890.06 269.756 L1890.06 217.916 Z" fill="#000000" fill-rule="evenodd" fill-opacity="1" /><path clip-path="url(#clip880)" d="M1950.61 217.916 L1957.66 217.916 L1957.66 249.409 Q1957.66 257.742 1960.68 261.422 Q1963.7 265.068 1970.47 265.068 Q1977.21 265.068 1980.23 261.422 Q1983.25 257.742 1983.25 249.409 L1983.25 217.916 L1990.3 217.916 L1990.3 250.277 Q1990.3 260.415 1985.26 265.589 Q1980.26 270.763 1970.47 270.763 Q1960.65 270.763 1955.61 265.589 Q1950.61 260.415 1950.61 250.277 L1950.61 217.916 Z" fill="#000000" fill-rule="evenodd" fill-opacity="1" /><polyline clip-path="url(#clip880)" style="stroke:#e26f46; stroke-linecap:butt; stroke-linejoin:round; stroke-width:6; stroke-opacity:1; fill:none" points="
  1444.66,321.596 1581.28,321.596 
  "/>
<path clip-path="url(#clip880)" d="M1628.63 323.21 Q1630.89 323.974 1633.01 326.474 Q1635.16 328.974 1637.31 333.349 L1644.43 347.516 L1636.9 347.516 L1630.27 334.217 Q1627.7 329.009 1625.27 327.307 Q1622.87 325.606 1618.7 325.606 L1611.06 325.606 L1611.06 347.516 L1604.05 347.516 L1604.05 295.676 L1619.88 295.676 Q1628.77 295.676 1633.15 299.391 Q1637.52 303.106 1637.52 310.606 Q1637.52 315.502 1635.23 318.731 Q1632.97 321.96 1628.63 323.21 M1611.06 301.44 L1611.06 319.842 L1619.88 319.842 Q1624.95 319.842 1627.52 317.516 Q1630.13 315.155 1630.13 310.606 Q1630.13 306.058 1627.52 303.766 Q1624.95 301.44 1619.88 301.44 L1611.06 301.44 Z" fill="#000000" fill-rule="evenodd" fill-opacity="1" /><path clip-path="url(#clip880)" d="M1683.25 326.474 L1683.25 329.599 L1653.88 329.599 Q1654.29 336.196 1657.84 339.669 Q1661.41 343.106 1667.77 343.106 Q1671.45 343.106 1674.88 342.203 Q1678.36 341.3 1681.76 339.495 L1681.76 345.537 Q1678.32 346.995 1674.71 347.759 Q1671.1 348.523 1667.38 348.523 Q1658.08 348.523 1652.63 343.106 Q1647.21 337.689 1647.21 328.453 Q1647.21 318.905 1652.35 313.315 Q1657.52 307.69 1666.27 307.69 Q1674.12 307.69 1678.67 312.759 Q1683.25 317.794 1683.25 326.474 M1676.86 324.599 Q1676.79 319.356 1673.91 316.231 Q1671.06 313.106 1666.34 313.106 Q1660.99 313.106 1657.77 316.127 Q1654.57 319.148 1654.09 324.634 L1676.86 324.599 Z" fill="#000000" fill-rule="evenodd" fill-opacity="1" /><path clip-path="url(#clip880)" d="M1713.43 293.488 L1713.43 298.801 L1707.31 298.801 Q1703.88 298.801 1702.52 300.19 Q1701.2 301.578 1701.2 305.19 L1701.2 308.627 L1711.72 308.627 L1711.72 313.592 L1701.2 313.592 L1701.2 347.516 L1694.78 347.516 L1694.78 313.592 L1688.67 313.592 L1688.67 308.627 L1694.78 308.627 L1694.78 305.919 Q1694.78 299.426 1697.8 296.474 Q1700.82 293.488 1707.38 293.488 L1713.43 293.488 Z" fill="#000000" fill-rule="evenodd" fill-opacity="1" /><path clip-path="url(#clip880)" d="M1752.04 326.474 L1752.04 329.599 L1722.66 329.599 Q1723.08 336.196 1726.62 339.669 Q1730.2 343.106 1736.55 343.106 Q1740.23 343.106 1743.67 342.203 Q1747.14 341.3 1750.54 339.495 L1750.54 345.537 Q1747.11 346.995 1743.49 347.759 Q1739.88 348.523 1736.17 348.523 Q1726.86 348.523 1721.41 343.106 Q1715.99 337.689 1715.99 328.453 Q1715.99 318.905 1721.13 313.315 Q1726.31 307.69 1735.06 307.69 Q1742.9 307.69 1747.45 312.759 Q1752.04 317.794 1752.04 326.474 M1745.65 324.599 Q1745.58 319.356 1742.7 316.231 Q1739.85 313.106 1735.13 313.106 Q1729.78 313.106 1726.55 316.127 Q1723.36 319.148 1722.87 324.634 L1745.65 324.599 Z" fill="#000000" fill-rule="evenodd" fill-opacity="1" /><path clip-path="url(#clip880)" d="M1785.06 314.599 Q1783.98 313.974 1782.7 313.696 Q1781.45 313.384 1779.92 313.384 Q1774.5 313.384 1771.58 316.926 Q1768.7 320.433 1768.7 327.03 L1768.7 347.516 L1762.28 347.516 L1762.28 308.627 L1768.7 308.627 L1768.7 314.669 Q1770.72 311.127 1773.95 309.426 Q1777.17 307.69 1781.79 307.69 Q1782.45 307.69 1783.25 307.794 Q1784.05 307.863 1785.02 308.037 L1785.06 314.599 Z" fill="#000000" fill-rule="evenodd" fill-opacity="1" /><path clip-path="url(#clip880)" d="M1823.46 326.474 L1823.46 329.599 L1794.08 329.599 Q1794.5 336.196 1798.04 339.669 Q1801.62 343.106 1807.97 343.106 Q1811.65 343.106 1815.09 342.203 Q1818.56 341.3 1821.97 339.495 L1821.97 345.537 Q1818.53 346.995 1814.92 347.759 Q1811.31 348.523 1807.59 348.523 Q1798.29 348.523 1792.83 343.106 Q1787.42 337.689 1787.42 328.453 Q1787.42 318.905 1792.56 313.315 Q1797.73 307.69 1806.48 307.69 Q1814.33 307.69 1818.88 312.759 Q1823.46 317.794 1823.46 326.474 M1817.07 324.599 Q1817 319.356 1814.12 316.231 Q1811.27 313.106 1806.55 313.106 Q1801.2 313.106 1797.97 316.127 Q1794.78 319.148 1794.29 324.634 L1817.07 324.599 Z" fill="#000000" fill-rule="evenodd" fill-opacity="1" /><path clip-path="url(#clip880)" d="M1866.27 324.044 L1866.27 347.516 L1859.88 347.516 L1859.88 324.252 Q1859.88 318.731 1857.73 315.988 Q1855.58 313.245 1851.27 313.245 Q1846.1 313.245 1843.11 316.544 Q1840.13 319.842 1840.13 325.537 L1840.13 347.516 L1833.7 347.516 L1833.7 308.627 L1840.13 308.627 L1840.13 314.669 Q1842.42 311.162 1845.51 309.426 Q1848.63 307.69 1852.7 307.69 Q1859.4 307.69 1862.83 311.856 Q1866.27 315.988 1866.27 324.044 Z" fill="#000000" fill-rule="evenodd" fill-opacity="1" /><path clip-path="url(#clip880)" d="M1907 310.12 L1907 316.092 Q1904.29 314.599 1901.55 313.87 Q1898.84 313.106 1896.06 313.106 Q1889.85 313.106 1886.41 317.064 Q1882.97 320.988 1882.97 328.106 Q1882.97 335.224 1886.41 339.182 Q1889.85 343.106 1896.06 343.106 Q1898.84 343.106 1901.55 342.377 Q1904.29 341.613 1907 340.12 L1907 346.023 Q1904.33 347.273 1901.45 347.898 Q1898.6 348.523 1895.37 348.523 Q1886.58 348.523 1881.41 343.002 Q1876.24 337.481 1876.24 328.106 Q1876.24 318.592 1881.45 313.141 Q1886.69 307.69 1895.79 307.69 Q1898.74 307.69 1901.55 308.315 Q1904.36 308.905 1907 310.12 Z" fill="#000000" fill-rule="evenodd" fill-opacity="1" /><path clip-path="url(#clip880)" d="M1951.38 326.474 L1951.38 329.599 L1922 329.599 Q1922.42 336.196 1925.96 339.669 Q1929.54 343.106 1935.89 343.106 Q1939.57 343.106 1943.01 342.203 Q1946.48 341.3 1949.88 339.495 L1949.88 345.537 Q1946.44 346.995 1942.83 347.759 Q1939.22 348.523 1935.51 348.523 Q1926.2 348.523 1920.75 343.106 Q1915.33 337.689 1915.33 328.453 Q1915.33 318.905 1920.47 313.315 Q1925.65 307.69 1934.4 307.69 Q1942.24 307.69 1946.79 312.759 Q1951.38 317.794 1951.38 326.474 M1944.99 324.599 Q1944.92 319.356 1942.04 316.231 Q1939.19 313.106 1934.47 313.106 Q1929.12 313.106 1925.89 316.127 Q1922.69 319.148 1922.21 324.634 L1944.99 324.599 Z" fill="#000000" fill-rule="evenodd" fill-opacity="1" /><polyline clip-path="url(#clip880)" style="stroke:#008000; stroke-linecap:butt; stroke-linejoin:round; stroke-width:6; stroke-opacity:1; fill:none" stroke-dasharray="3, 6" points="
  1444.66,399.356 1581.28,399.356 
  "/>
<path clip-path="url(#clip880)" d="M1604.05 373.436 L1613.5 373.436 L1636.48 416.804 L1636.48 373.436 L1643.29 373.436 L1643.29 425.276 L1633.84 425.276 L1610.86 381.908 L1610.86 425.276 L1604.05 425.276 L1604.05 373.436 Z" fill="#000000" fill-rule="evenodd" fill-opacity="1" /><path clip-path="url(#clip880)" d="M1690.23 404.234 L1690.23 407.359 L1660.86 407.359 Q1661.27 413.956 1664.81 417.429 Q1668.39 420.866 1674.74 420.866 Q1678.43 420.866 1681.86 419.963 Q1685.34 419.06 1688.74 417.255 L1688.74 423.297 Q1685.3 424.755 1681.69 425.519 Q1678.08 426.283 1674.36 426.283 Q1665.06 426.283 1659.61 420.866 Q1654.19 415.449 1654.19 406.213 Q1654.19 396.665 1659.33 391.075 Q1664.5 385.45 1673.25 385.45 Q1681.1 385.45 1685.65 390.519 Q1690.23 395.554 1690.23 404.234 M1683.84 402.359 Q1683.77 397.116 1680.89 393.991 Q1678.04 390.866 1673.32 390.866 Q1667.97 390.866 1664.74 393.887 Q1661.55 396.908 1661.06 402.394 L1683.84 402.359 Z" fill="#000000" fill-rule="evenodd" fill-opacity="1" /><path clip-path="url(#clip880)" d="M1700.06 409.929 L1700.06 386.387 L1706.45 386.387 L1706.45 409.686 Q1706.45 415.206 1708.6 417.984 Q1710.75 420.727 1715.06 420.727 Q1720.23 420.727 1723.22 417.429 Q1726.24 414.13 1726.24 408.436 L1726.24 386.387 L1732.63 386.387 L1732.63 425.276 L1726.24 425.276 L1726.24 419.304 Q1723.91 422.845 1720.82 424.581 Q1717.77 426.283 1713.7 426.283 Q1707 426.283 1703.53 422.116 Q1700.06 417.949 1700.06 409.929 M1716.13 385.45 L1716.13 385.45 Z" fill="#000000" fill-rule="evenodd" fill-opacity="1" /><path clip-path="url(#clip880)" d="M1768.32 392.359 Q1767.24 391.734 1765.96 391.456 Q1764.71 391.144 1763.18 391.144 Q1757.77 391.144 1754.85 394.686 Q1751.97 398.193 1751.97 404.79 L1751.97 425.276 L1745.54 425.276 L1745.54 386.387 L1751.97 386.387 L1751.97 392.429 Q1753.98 388.887 1757.21 387.186 Q1760.44 385.45 1765.06 385.45 Q1765.72 385.45 1766.52 385.554 Q1767.31 385.623 1768.29 385.797 L1768.32 392.359 Z" fill="#000000" fill-rule="evenodd" fill-opacity="1" /><path clip-path="url(#clip880)" d="M1792.7 405.727 Q1784.95 405.727 1781.97 407.498 Q1778.98 409.269 1778.98 413.54 Q1778.98 416.942 1781.2 418.956 Q1783.46 420.935 1787.31 420.935 Q1792.63 420.935 1795.82 417.185 Q1799.05 413.401 1799.05 407.151 L1799.05 405.727 L1792.7 405.727 M1805.44 403.088 L1805.44 425.276 L1799.05 425.276 L1799.05 419.373 Q1796.86 422.915 1793.6 424.616 Q1790.33 426.283 1785.61 426.283 Q1779.64 426.283 1776.1 422.949 Q1772.59 419.581 1772.59 413.956 Q1772.59 407.394 1776.97 404.061 Q1781.38 400.727 1790.09 400.727 L1799.05 400.727 L1799.05 400.102 Q1799.05 395.693 1796.13 393.297 Q1793.25 390.866 1788.01 390.866 Q1784.67 390.866 1781.52 391.665 Q1778.36 392.463 1775.44 394.061 L1775.44 388.158 Q1778.95 386.804 1782.24 386.144 Q1785.54 385.45 1788.67 385.45 Q1797.11 385.45 1801.27 389.825 Q1805.44 394.199 1805.44 403.088 Z" fill="#000000" fill-rule="evenodd" fill-opacity="1" /><path clip-path="url(#clip880)" d="M1818.6 371.248 L1824.99 371.248 L1824.99 425.276 L1818.6 425.276 L1818.6 371.248 Z" fill="#000000" fill-rule="evenodd" fill-opacity="1" /><path clip-path="url(#clip880)" d="M1838.63 373.436 L1868.42 373.436 L1868.42 379.338 L1845.65 379.338 L1845.65 394.616 L1866.2 394.616 L1866.2 400.519 L1845.65 400.519 L1845.65 425.276 L1838.63 425.276 L1838.63 373.436 Z" fill="#000000" fill-rule="evenodd" fill-opacity="1" /><path clip-path="url(#clip880)" d="M1879.54 373.436 L1889.99 373.436 L1903.22 408.713 L1916.51 373.436 L1926.97 373.436 L1926.97 425.276 L1920.13 425.276 L1920.13 379.755 L1906.76 415.31 L1899.71 415.31 L1886.34 379.755 L1886.34 425.276 L1879.54 425.276 L1879.54 373.436 Z" fill="#000000" fill-rule="evenodd" fill-opacity="1" /><path clip-path="url(#clip880)" d="M1940.09 373.436 L1947.14 373.436 L1947.14 404.929 Q1947.14 413.262 1950.16 416.942 Q1953.18 420.588 1959.95 420.588 Q1966.69 420.588 1969.71 416.942 Q1972.73 413.262 1972.73 404.929 L1972.73 373.436 L1979.78 373.436 L1979.78 405.797 Q1979.78 415.935 1974.74 421.109 Q1969.74 426.283 1959.95 426.283 Q1950.13 426.283 1945.09 421.109 Q1940.09 415.935 1940.09 405.797 L1940.09 373.436 Z" fill="#000000" fill-rule="evenodd" fill-opacity="1" /><path clip-path="url(#clip880)" d="M2030.61 371.318 Q2025.96 379.304 2023.7 387.116 Q2021.44 394.929 2021.44 402.949 Q2021.44 410.97 2023.7 418.852 Q2025.99 426.699 2030.61 434.651 L2025.06 434.651 Q2019.85 426.491 2017.24 418.609 Q2014.67 410.727 2014.67 402.949 Q2014.67 395.206 2017.24 387.359 Q2019.81 379.512 2025.06 371.318 L2030.61 371.318 Z" fill="#000000" fill-rule="evenodd" fill-opacity="1" /><path clip-path="url(#clip880)" d="M2049.95 419.373 L2074.43 419.373 L2074.43 425.276 L2041.51 425.276 L2041.51 419.373 Q2045.51 415.241 2052.38 408.297 Q2059.29 401.318 2061.06 399.304 Q2064.43 395.519 2065.75 392.915 Q2067.1 390.276 2067.1 387.741 Q2067.1 383.609 2064.19 381.005 Q2061.31 378.401 2056.65 378.401 Q2053.35 378.401 2049.67 379.547 Q2046.03 380.693 2041.86 383.019 L2041.86 375.936 Q2046.1 374.234 2049.78 373.366 Q2053.46 372.498 2056.51 372.498 Q2064.57 372.498 2069.36 376.526 Q2074.15 380.554 2074.15 387.29 Q2074.15 390.484 2072.94 393.366 Q2071.76 396.213 2068.6 400.102 Q2067.73 401.109 2063.08 405.936 Q2058.42 410.727 2049.95 419.373 Z" fill="#000000" fill-rule="evenodd" fill-opacity="1" /><path clip-path="url(#clip880)" d="M2089.22 373.436 L2116.76 373.436 L2116.76 379.338 L2095.65 379.338 L2095.65 392.047 Q2097.17 391.526 2098.7 391.283 Q2100.23 391.005 2101.76 391.005 Q2110.44 391.005 2115.51 395.762 Q2120.58 400.519 2120.58 408.644 Q2120.58 417.012 2115.37 421.665 Q2110.16 426.283 2100.68 426.283 Q2097.42 426.283 2094.01 425.727 Q2090.65 425.172 2087.03 424.06 L2087.03 417.012 Q2090.16 418.713 2093.49 419.547 Q2096.83 420.38 2100.54 420.38 Q2106.55 420.38 2110.06 417.22 Q2113.56 414.06 2113.56 408.644 Q2113.56 403.227 2110.06 400.068 Q2106.55 396.908 2100.54 396.908 Q2097.73 396.908 2094.92 397.533 Q2092.14 398.158 2089.22 399.477 L2089.22 373.436 Z" fill="#000000" fill-rule="evenodd" fill-opacity="1" /><path clip-path="url(#clip880)" d="M2149.4 378.054 Q2143.98 378.054 2141.24 383.401 Q2138.53 388.713 2138.53 399.408 Q2138.53 410.067 2141.24 415.415 Q2143.98 420.727 2149.4 420.727 Q2154.85 420.727 2157.55 415.415 Q2160.3 410.067 2160.3 399.408 Q2160.3 388.713 2157.55 383.401 Q2154.85 378.054 2149.4 378.054 M2149.4 372.498 Q2158.11 372.498 2162.69 379.408 Q2167.31 386.283 2167.31 399.408 Q2167.31 412.498 2162.69 419.408 Q2158.11 426.283 2149.4 426.283 Q2140.68 426.283 2136.06 419.408 Q2131.48 412.498 2131.48 399.408 Q2131.48 386.283 2136.06 379.408 Q2140.68 372.498 2149.4 372.498 Z" fill="#000000" fill-rule="evenodd" fill-opacity="1" /><path clip-path="url(#clip880)" d="M2194.64 378.054 Q2189.22 378.054 2186.48 383.401 Q2183.77 388.713 2183.77 399.408 Q2183.77 410.067 2186.48 415.415 Q2189.22 420.727 2194.64 420.727 Q2200.09 420.727 2202.8 415.415 Q2205.54 410.067 2205.54 399.408 Q2205.54 388.713 2202.8 383.401 Q2200.09 378.054 2194.64 378.054 M2194.64 372.498 Q2203.35 372.498 2207.94 379.408 Q2212.55 386.283 2212.55 399.408 Q2212.55 412.498 2207.94 419.408 Q2203.35 426.283 2194.64 426.283 Q2185.92 426.283 2181.3 419.408 Q2176.72 412.498 2176.72 399.408 Q2176.72 386.283 2181.3 379.408 Q2185.92 372.498 2194.64 372.498 Z" fill="#000000" fill-rule="evenodd" fill-opacity="1" /><path clip-path="url(#clip880)" d="M2222.97 371.318 L2228.53 371.318 Q2233.73 379.512 2236.3 387.359 Q2238.91 395.206 2238.91 402.949 Q2238.91 410.727 2236.3 418.609 Q2233.73 426.491 2228.53 434.651 L2222.97 434.651 Q2227.59 426.699 2229.85 418.852 Q2232.14 410.97 2232.14 402.949 Q2232.14 394.929 2229.85 387.116 Q2227.59 379.304 2222.97 371.318 Z" fill="#000000" fill-rule="evenodd" fill-opacity="1" /><polyline clip-path="url(#clip880)" style="stroke:#008000; stroke-linecap:butt; stroke-linejoin:round; stroke-width:6; stroke-opacity:1; fill:none" points="
  1444.66,477.116 1581.28,477.116 
  "/>
<path clip-path="url(#clip880)" d="M1604.05 451.196 L1613.5 451.196 L1636.48 494.564 L1636.48 451.196 L1643.29 451.196 L1643.29 503.036 L1633.84 503.036 L1610.86 459.668 L1610.86 503.036 L1604.05 503.036 L1604.05 451.196 Z" fill="#000000" fill-rule="evenodd" fill-opacity="1" /><path clip-path="url(#clip880)" d="M1690.23 481.994 L1690.23 485.119 L1660.86 485.119 Q1661.27 491.716 1664.81 495.189 Q1668.39 498.626 1674.74 498.626 Q1678.43 498.626 1681.86 497.723 Q1685.34 496.82 1688.74 495.015 L1688.74 501.057 Q1685.3 502.515 1681.69 503.279 Q1678.08 504.043 1674.36 504.043 Q1665.06 504.043 1659.61 498.626 Q1654.19 493.209 1654.19 483.973 Q1654.19 474.425 1659.33 468.835 Q1664.5 463.21 1673.25 463.21 Q1681.1 463.21 1685.65 468.279 Q1690.23 473.314 1690.23 481.994 M1683.84 480.119 Q1683.77 474.876 1680.89 471.751 Q1678.04 468.626 1673.32 468.626 Q1667.97 468.626 1664.74 471.647 Q1661.55 474.668 1661.06 480.154 L1683.84 480.119 Z" fill="#000000" fill-rule="evenodd" fill-opacity="1" /><path clip-path="url(#clip880)" d="M1700.06 487.689 L1700.06 464.147 L1706.45 464.147 L1706.45 487.446 Q1706.45 492.966 1708.6 495.744 Q1710.75 498.487 1715.06 498.487 Q1720.23 498.487 1723.22 495.189 Q1726.24 491.89 1726.24 486.196 L1726.24 464.147 L1732.63 464.147 L1732.63 503.036 L1726.24 503.036 L1726.24 497.064 Q1723.91 500.605 1720.82 502.341 Q1717.77 504.043 1713.7 504.043 Q1707 504.043 1703.53 499.876 Q1700.06 495.709 1700.06 487.689 M1716.13 463.21 L1716.13 463.21 Z" fill="#000000" fill-rule="evenodd" fill-opacity="1" /><path clip-path="url(#clip880)" d="M1768.32 470.119 Q1767.24 469.494 1765.96 469.216 Q1764.71 468.904 1763.18 468.904 Q1757.77 468.904 1754.85 472.446 Q1751.97 475.953 1751.97 482.55 L1751.97 503.036 L1745.54 503.036 L1745.54 464.147 L1751.97 464.147 L1751.97 470.189 Q1753.98 466.647 1757.21 464.946 Q1760.44 463.21 1765.06 463.21 Q1765.72 463.21 1766.52 463.314 Q1767.31 463.383 1768.29 463.557 L1768.32 470.119 Z" fill="#000000" fill-rule="evenodd" fill-opacity="1" /><path clip-path="url(#clip880)" d="M1792.7 483.487 Q1784.95 483.487 1781.97 485.258 Q1778.98 487.029 1778.98 491.3 Q1778.98 494.702 1781.2 496.716 Q1783.46 498.695 1787.31 498.695 Q1792.63 498.695 1795.82 494.945 Q1799.05 491.161 1799.05 484.911 L1799.05 483.487 L1792.7 483.487 M1805.44 480.848 L1805.44 503.036 L1799.05 503.036 L1799.05 497.133 Q1796.86 500.675 1793.6 502.376 Q1790.33 504.043 1785.61 504.043 Q1779.64 504.043 1776.1 500.709 Q1772.59 497.341 1772.59 491.716 Q1772.59 485.154 1776.97 481.821 Q1781.38 478.487 1790.09 478.487 L1799.05 478.487 L1799.05 477.862 Q1799.05 473.453 1796.13 471.057 Q1793.25 468.626 1788.01 468.626 Q1784.67 468.626 1781.52 469.425 Q1778.36 470.223 1775.44 471.821 L1775.44 465.918 Q1778.95 464.564 1782.24 463.904 Q1785.54 463.21 1788.67 463.21 Q1797.11 463.21 1801.27 467.585 Q1805.44 471.959 1805.44 480.848 Z" fill="#000000" fill-rule="evenodd" fill-opacity="1" /><path clip-path="url(#clip880)" d="M1818.6 449.008 L1824.99 449.008 L1824.99 503.036 L1818.6 503.036 L1818.6 449.008 Z" fill="#000000" fill-rule="evenodd" fill-opacity="1" /><path clip-path="url(#clip880)" d="M1838.63 451.196 L1868.42 451.196 L1868.42 457.098 L1845.65 457.098 L1845.65 472.376 L1866.2 472.376 L1866.2 478.279 L1845.65 478.279 L1845.65 503.036 L1838.63 503.036 L1838.63 451.196 Z" fill="#000000" fill-rule="evenodd" fill-opacity="1" /><path clip-path="url(#clip880)" d="M1879.54 451.196 L1889.99 451.196 L1903.22 486.473 L1916.51 451.196 L1926.97 451.196 L1926.97 503.036 L1920.13 503.036 L1920.13 457.515 L1906.76 493.07 L1899.71 493.07 L1886.34 457.515 L1886.34 503.036 L1879.54 503.036 L1879.54 451.196 Z" fill="#000000" fill-rule="evenodd" fill-opacity="1" /><path clip-path="url(#clip880)" d="M1940.09 451.196 L1947.14 451.196 L1947.14 482.689 Q1947.14 491.022 1950.16 494.702 Q1953.18 498.348 1959.95 498.348 Q1966.69 498.348 1969.71 494.702 Q1972.73 491.022 1972.73 482.689 L1972.73 451.196 L1979.78 451.196 L1979.78 483.557 Q1979.78 493.695 1974.74 498.869 Q1969.74 504.043 1959.95 504.043 Q1950.13 504.043 1945.09 498.869 Q1940.09 493.695 1940.09 483.557 L1940.09 451.196 Z" fill="#000000" fill-rule="evenodd" fill-opacity="1" /><path clip-path="url(#clip880)" d="M2030.61 449.078 Q2025.96 457.064 2023.7 464.876 Q2021.44 472.689 2021.44 480.709 Q2021.44 488.73 2023.7 496.612 Q2025.99 504.459 2030.61 512.411 L2025.06 512.411 Q2019.85 504.251 2017.24 496.369 Q2014.67 488.487 2014.67 480.709 Q2014.67 472.966 2017.24 465.119 Q2019.81 457.272 2025.06 449.078 L2030.61 449.078 Z" fill="#000000" fill-rule="evenodd" fill-opacity="1" /><path clip-path="url(#clip880)" d="M2043.98 451.196 L2071.51 451.196 L2071.51 457.098 L2050.4 457.098 L2050.4 469.807 Q2051.93 469.286 2053.46 469.043 Q2054.99 468.765 2056.51 468.765 Q2065.19 468.765 2070.26 473.522 Q2075.33 478.279 2075.33 486.404 Q2075.33 494.772 2070.12 499.425 Q2064.92 504.043 2055.44 504.043 Q2052.17 504.043 2048.77 503.487 Q2045.4 502.932 2041.79 501.82 L2041.79 494.772 Q2044.92 496.473 2048.25 497.307 Q2051.58 498.14 2055.3 498.14 Q2061.31 498.14 2064.81 494.98 Q2068.32 491.82 2068.32 486.404 Q2068.32 480.987 2064.81 477.828 Q2061.31 474.668 2055.3 474.668 Q2052.49 474.668 2049.67 475.293 Q2046.9 475.918 2043.98 477.237 L2043.98 451.196 Z" fill="#000000" fill-rule="evenodd" fill-opacity="1" /><path clip-path="url(#clip880)" d="M2104.15 455.814 Q2098.74 455.814 2095.99 461.161 Q2093.28 466.473 2093.28 477.168 Q2093.28 487.827 2095.99 493.175 Q2098.74 498.487 2104.15 498.487 Q2109.6 498.487 2112.31 493.175 Q2115.06 487.827 2115.06 477.168 Q2115.06 466.473 2112.31 461.161 Q2109.6 455.814 2104.15 455.814 M2104.15 450.258 Q2112.87 450.258 2117.45 457.168 Q2122.07 464.043 2122.07 477.168 Q2122.07 490.258 2117.45 497.168 Q2112.87 504.043 2104.15 504.043 Q2095.44 504.043 2090.82 497.168 Q2086.24 490.258 2086.24 477.168 Q2086.24 464.043 2090.82 457.168 Q2095.44 450.258 2104.15 450.258 Z" fill="#000000" fill-rule="evenodd" fill-opacity="1" /><path clip-path="url(#clip880)" d="M2149.4 455.814 Q2143.98 455.814 2141.24 461.161 Q2138.53 466.473 2138.53 477.168 Q2138.53 487.827 2141.24 493.175 Q2143.98 498.487 2149.4 498.487 Q2154.85 498.487 2157.55 493.175 Q2160.3 487.827 2160.3 477.168 Q2160.3 466.473 2157.55 461.161 Q2154.85 455.814 2149.4 455.814 M2149.4 450.258 Q2158.11 450.258 2162.69 457.168 Q2167.31 464.043 2167.31 477.168 Q2167.31 490.258 2162.69 497.168 Q2158.11 504.043 2149.4 504.043 Q2140.68 504.043 2136.06 497.168 Q2131.48 490.258 2131.48 477.168 Q2131.48 464.043 2136.06 457.168 Q2140.68 450.258 2149.4 450.258 Z" fill="#000000" fill-rule="evenodd" fill-opacity="1" /><path clip-path="url(#clip880)" d="M2194.64 455.814 Q2189.22 455.814 2186.48 461.161 Q2183.77 466.473 2183.77 477.168 Q2183.77 487.827 2186.48 493.175 Q2189.22 498.487 2194.64 498.487 Q2200.09 498.487 2202.8 493.175 Q2205.54 487.827 2205.54 477.168 Q2205.54 466.473 2202.8 461.161 Q2200.09 455.814 2194.64 455.814 M2194.64 450.258 Q2203.35 450.258 2207.94 457.168 Q2212.55 464.043 2212.55 477.168 Q2212.55 490.258 2207.94 497.168 Q2203.35 504.043 2194.64 504.043 Q2185.92 504.043 2181.3 497.168 Q2176.72 490.258 2176.72 477.168 Q2176.72 464.043 2181.3 457.168 Q2185.92 450.258 2194.64 450.258 Z" fill="#000000" fill-rule="evenodd" fill-opacity="1" /><path clip-path="url(#clip880)" d="M2222.97 449.078 L2228.53 449.078 Q2233.73 457.272 2236.3 465.119 Q2238.91 472.966 2238.91 480.709 Q2238.91 488.487 2236.3 496.369 Q2233.73 504.251 2228.53 512.411 L2222.97 512.411 Q2227.59 504.459 2229.85 496.612 Q2232.14 488.73 2232.14 480.709 Q2232.14 472.689 2229.85 464.876 Q2227.59 457.064 2222.97 449.078 Z" fill="#000000" fill-rule="evenodd" fill-opacity="1" /></svg>
