<?xml version="1.0" encoding="utf-8"?>
<svg xmlns="http://www.w3.org/2000/svg" xmlns:xlink="http://www.w3.org/1999/xlink" width="600" height="400" viewBox="0 0 2400 1600">
<defs>
  <clipPath id="clip890">
    <rect x="0" y="0" width="2400" height="1600"/>
  </clipPath>
</defs>
<path clip-path="url(#clip890)" d="M0 1600 L2400 1600 L2400 0 L0 0  Z" fill="#ffffff" fill-rule="evenodd" fill-opacity="1"/>
<defs>
  <clipPath id="clip891">
    <rect x="480" y="0" width="1681" height="1600"/>
  </clipPath>
</defs>
<path clip-path="url(#clip890)" d="M193.936 1423.18 L2352.76 1423.18 L2352.76 47.2441 L193.936 47.2441  Z" fill="#ffffff" fill-rule="evenodd" fill-opacity="1"/>
<defs>
  <clipPath id="clip892">
    <rect x="193" y="47" width="2160" height="1377"/>
  </clipPath>
</defs>
<polyline clip-path="url(#clip892)" style="stroke:#000000; stroke-linecap:round; stroke-linejoin:round; stroke-width:2; stroke-opacity:0.1; fill:none" points="255.035,1423.18 255.035,47.2441 "/>
<polyline clip-path="url(#clip892)" style="stroke:#000000; stroke-linecap:round; stroke-linejoin:round; stroke-width:2; stroke-opacity:0.1; fill:none" points="662.359,1423.18 662.359,47.2441 "/>
<polyline clip-path="url(#clip892)" style="stroke:#000000; stroke-linecap:round; stroke-linejoin:round; stroke-width:2; stroke-opacity:0.1; fill:none" points="1069.68,1423.18 1069.68,47.2441 "/>
<polyline clip-path="url(#clip892)" style="stroke:#000000; stroke-linecap:round; stroke-linejoin:round; stroke-width:2; stroke-opacity:0.1; fill:none" points="1477.01,1423.18 1477.01,47.2441 "/>
<polyline clip-path="url(#clip892)" style="stroke:#000000; stroke-linecap:round; stroke-linejoin:round; stroke-width:2; stroke-opacity:0.1; fill:none" points="1884.33,1423.18 1884.33,47.2441 "/>
<polyline clip-path="url(#clip892)" style="stroke:#000000; stroke-linecap:round; stroke-linejoin:round; stroke-width:2; stroke-opacity:0.1; fill:none" points="2291.66,1423.18 2291.66,47.2441 "/>
<polyline clip-path="url(#clip892)" style="stroke:#000000; stroke-linecap:round; stroke-linejoin:round; stroke-width:2; stroke-opacity:0.1; fill:none" points="193.936,1274.78 2352.76,1274.78 "/>
<polyline clip-path="url(#clip892)" style="stroke:#000000; stroke-linecap:round; stroke-linejoin:round; stroke-width:2; stroke-opacity:0.1; fill:none" points="193.936,1004.94 2352.76,1004.94 "/>
<polyline clip-path="url(#clip892)" style="stroke:#000000; stroke-linecap:round; stroke-linejoin:round; stroke-width:2; stroke-opacity:0.1; fill:none" points="193.936,735.102 2352.76,735.102 "/>
<polyline clip-path="url(#clip892)" style="stroke:#000000; stroke-linecap:round; stroke-linejoin:round; stroke-width:2; stroke-opacity:0.1; fill:none" points="193.936,465.265 2352.76,465.265 "/>
<polyline clip-path="url(#clip892)" style="stroke:#000000; stroke-linecap:round; stroke-linejoin:round; stroke-width:2; stroke-opacity:0.1; fill:none" points="193.936,195.428 2352.76,195.428 "/>
<polyline clip-path="url(#clip890)" style="stroke:#000000; stroke-linecap:round; stroke-linejoin:round; stroke-width:4; stroke-opacity:1; fill:none" points="193.936,1423.18 2352.76,1423.18 "/>
<polyline clip-path="url(#clip890)" style="stroke:#000000; stroke-linecap:round; stroke-linejoin:round; stroke-width:4; stroke-opacity:1; fill:none" points="255.035,1423.18 255.035,1404.28 "/>
<polyline clip-path="url(#clip890)" style="stroke:#000000; stroke-linecap:round; stroke-linejoin:round; stroke-width:4; stroke-opacity:1; fill:none" points="662.359,1423.18 662.359,1404.28 "/>
<polyline clip-path="url(#clip890)" style="stroke:#000000; stroke-linecap:round; stroke-linejoin:round; stroke-width:4; stroke-opacity:1; fill:none" points="1069.68,1423.18 1069.68,1404.28 "/>
<polyline clip-path="url(#clip890)" style="stroke:#000000; stroke-linecap:round; stroke-linejoin:round; stroke-width:4; stroke-opacity:1; fill:none" points="1477.01,1423.18 1477.01,1404.28 "/>
<polyline clip-path="url(#clip890)" style="stroke:#000000; stroke-linecap:round; stroke-linejoin:round; stroke-width:4; stroke-opacity:1; fill:none" points="1884.33,1423.18 1884.33,1404.28 "/>
<polyline clip-path="url(#clip890)" style="stroke:#000000; stroke-linecap:round; stroke-linejoin:round; stroke-width:4; stroke-opacity:1; fill:none" points="2291.66,1423.18 2291.66,1404.28 "/>
<path clip-path="url(#clip890)" d="M255.035 1454.1 Q251.424 1454.1 249.595 1457.66 Q247.789 1461.2 247.789 1468.33 Q247.789 1475.44 249.595 1479.01 Q251.424 1482.55 255.035 1482.55 Q258.669 1482.55 260.474 1479.01 Q262.303 1475.44 262.303 1468.33 Q262.303 1461.2 260.474 1457.66 Q258.669 1454.1 255.035 1454.1 M255.035 1450.39 Q260.845 1450.39 263.9 1455 Q266.979 1459.58 266.979 1468.33 Q266.979 1477.06 263.9 1481.67 Q260.845 1486.25 255.035 1486.25 Q249.225 1486.25 246.146 1481.67 Q243.09 1477.06 243.09 1468.33 Q243.09 1459.58 246.146 1455 Q249.225 1450.39 255.035 1450.39 Z" fill="#000000" fill-rule="nonzero" fill-opacity="1" /><path clip-path="url(#clip890)" d="M652.741 1481.64 L660.38 1481.64 L660.38 1455.28 L652.07 1456.95 L652.07 1452.69 L660.334 1451.02 L665.01 1451.02 L665.01 1481.64 L672.648 1481.64 L672.648 1485.58 L652.741 1485.58 L652.741 1481.64 Z" fill="#000000" fill-rule="nonzero" fill-opacity="1" /><path clip-path="url(#clip890)" d="M1064.34 1481.64 L1080.66 1481.64 L1080.66 1485.58 L1058.71 1485.58 L1058.71 1481.64 Q1061.37 1478.89 1065.96 1474.26 Q1070.56 1469.61 1071.74 1468.27 Q1073.99 1465.74 1074.87 1464.01 Q1075.77 1462.25 1075.77 1460.56 Q1075.77 1457.8 1073.83 1456.07 Q1071.91 1454.33 1068.8 1454.33 Q1066.61 1454.33 1064.15 1455.09 Q1061.72 1455.86 1058.94 1457.41 L1058.94 1452.69 Q1061.77 1451.55 1064.22 1450.97 Q1066.67 1450.39 1068.71 1450.39 Q1074.08 1450.39 1077.28 1453.08 Q1080.47 1455.77 1080.47 1460.26 Q1080.47 1462.39 1079.66 1464.31 Q1078.87 1466.2 1076.77 1468.8 Q1076.19 1469.47 1073.09 1472.69 Q1069.98 1475.88 1064.34 1481.64 Z" fill="#000000" fill-rule="nonzero" fill-opacity="1" /><path clip-path="url(#clip890)" d="M1481.26 1466.95 Q1484.61 1467.66 1486.49 1469.93 Q1488.39 1472.2 1488.39 1475.53 Q1488.39 1480.65 1484.87 1483.45 Q1481.35 1486.25 1474.87 1486.25 Q1472.69 1486.25 1470.38 1485.81 Q1468.08 1485.39 1465.63 1484.54 L1465.63 1480.02 Q1467.58 1481.16 1469.89 1481.74 Q1472.2 1482.32 1474.73 1482.32 Q1479.13 1482.32 1481.42 1480.58 Q1483.73 1478.84 1483.73 1475.53 Q1483.73 1472.48 1481.58 1470.77 Q1479.45 1469.03 1475.63 1469.03 L1471.6 1469.03 L1471.6 1465.19 L1475.82 1465.19 Q1479.27 1465.19 1481.09 1463.82 Q1482.92 1462.43 1482.92 1459.84 Q1482.92 1457.18 1481.02 1455.77 Q1479.15 1454.33 1475.63 1454.33 Q1473.71 1454.33 1471.51 1454.75 Q1469.31 1455.16 1466.67 1456.04 L1466.67 1451.88 Q1469.33 1451.14 1471.65 1450.77 Q1473.99 1450.39 1476.05 1450.39 Q1481.37 1450.39 1484.47 1452.83 Q1487.58 1455.23 1487.58 1459.35 Q1487.58 1462.22 1485.93 1464.21 Q1484.29 1466.18 1481.26 1466.95 Z" fill="#000000" fill-rule="nonzero" fill-opacity="1" /><path clip-path="url(#clip890)" d="M1887.34 1455.09 L1875.54 1473.54 L1887.34 1473.54 L1887.34 1455.09 M1886.12 1451.02 L1891.99 1451.02 L1891.99 1473.54 L1896.93 1473.54 L1896.93 1477.43 L1891.99 1477.43 L1891.99 1485.58 L1887.34 1485.58 L1887.34 1477.43 L1871.74 1477.43 L1871.74 1472.92 L1886.12 1451.02 Z" fill="#000000" fill-rule="nonzero" fill-opacity="1" /><path clip-path="url(#clip890)" d="M2281.94 1451.02 L2300.29 1451.02 L2300.29 1454.96 L2286.22 1454.96 L2286.22 1463.43 Q2287.24 1463.08 2288.25 1462.92 Q2289.27 1462.73 2290.29 1462.73 Q2296.08 1462.73 2299.46 1465.9 Q2302.84 1469.08 2302.84 1474.49 Q2302.84 1480.07 2299.37 1483.17 Q2295.89 1486.25 2289.57 1486.25 Q2287.4 1486.25 2285.13 1485.88 Q2282.88 1485.51 2280.48 1484.77 L2280.48 1480.07 Q2282.56 1481.2 2284.78 1481.76 Q2287 1482.32 2289.48 1482.32 Q2293.49 1482.32 2295.82 1480.21 Q2298.16 1478.1 2298.16 1474.49 Q2298.16 1470.88 2295.82 1468.77 Q2293.49 1466.67 2289.48 1466.67 Q2287.61 1466.67 2285.73 1467.08 Q2283.88 1467.5 2281.94 1468.38 L2281.94 1451.02 Z" fill="#000000" fill-rule="nonzero" fill-opacity="1" /><path clip-path="url(#clip890)" d="M1221.66 1522.27 L1221.66 1532.4 L1233.72 1532.4 L1233.72 1536.95 L1221.66 1536.95 L1221.66 1556.3 Q1221.66 1560.66 1222.83 1561.9 Q1224.04 1563.14 1227.7 1563.14 L1233.72 1563.14 L1233.72 1568.04 L1227.7 1568.04 Q1220.92 1568.04 1218.35 1565.53 Q1215.77 1562.98 1215.77 1556.3 L1215.77 1536.95 L1211.47 1536.95 L1211.47 1532.4 L1215.77 1532.4 L1215.77 1522.27 L1221.66 1522.27 Z" fill="#000000" fill-rule="nonzero" fill-opacity="1" /><path clip-path="url(#clip890)" d="M1261.6 1518.52 L1275.1 1518.52 L1275.1 1523.07 L1267.46 1523.07 L1267.46 1572.09 L1275.1 1572.09 L1275.1 1576.64 L1261.6 1576.64 L1261.6 1518.52 Z" fill="#000000" fill-rule="nonzero" fill-opacity="1" /><path clip-path="url(#clip890)" d="M1310.3 1533.45 L1310.3 1538.98 Q1307.82 1537.71 1305.14 1537.07 Q1302.47 1536.44 1299.6 1536.44 Q1295.24 1536.44 1293.05 1537.77 Q1290.88 1539.11 1290.88 1541.79 Q1290.88 1543.82 1292.44 1545 Q1294 1546.15 1298.71 1547.2 L1300.72 1547.64 Q1306.96 1548.98 1309.57 1551.43 Q1312.21 1553.85 1312.21 1558.21 Q1312.21 1563.17 1308.26 1566.07 Q1304.35 1568.97 1297.47 1568.97 Q1294.61 1568.97 1291.49 1568.39 Q1288.4 1567.85 1284.96 1566.74 L1284.96 1560.69 Q1288.21 1562.38 1291.36 1563.24 Q1294.51 1564.07 1297.6 1564.07 Q1301.74 1564.07 1303.97 1562.66 Q1306.19 1561.23 1306.19 1558.65 Q1306.19 1556.27 1304.57 1554.99 Q1302.98 1553.72 1297.54 1552.54 L1295.5 1552.07 Q1290.06 1550.92 1287.64 1548.56 Q1285.22 1546.18 1285.22 1542.04 Q1285.22 1537.01 1288.78 1534.27 Q1292.35 1531.54 1298.9 1531.54 Q1302.15 1531.54 1305.02 1532.01 Q1307.88 1532.49 1310.3 1533.45 Z" fill="#000000" fill-rule="nonzero" fill-opacity="1" /><path clip-path="url(#clip890)" d="M1335.22 1518.52 L1335.22 1576.64 L1321.73 1576.64 L1321.73 1572.09 L1329.33 1572.09 L1329.33 1523.07 L1321.73 1523.07 L1321.73 1518.52 L1335.22 1518.52 Z" fill="#000000" fill-rule="nonzero" fill-opacity="1" /><polyline clip-path="url(#clip890)" style="stroke:#000000; stroke-linecap:round; stroke-linejoin:round; stroke-width:4; stroke-opacity:1; fill:none" points="193.936,1423.18 193.936,47.2441 "/>
<polyline clip-path="url(#clip890)" style="stroke:#000000; stroke-linecap:round; stroke-linejoin:round; stroke-width:4; stroke-opacity:1; fill:none" points="193.936,1274.78 212.834,1274.78 "/>
<polyline clip-path="url(#clip890)" style="stroke:#000000; stroke-linecap:round; stroke-linejoin:round; stroke-width:4; stroke-opacity:1; fill:none" points="193.936,1004.94 212.834,1004.94 "/>
<polyline clip-path="url(#clip890)" style="stroke:#000000; stroke-linecap:round; stroke-linejoin:round; stroke-width:4; stroke-opacity:1; fill:none" points="193.936,735.102 212.834,735.102 "/>
<polyline clip-path="url(#clip890)" style="stroke:#000000; stroke-linecap:round; stroke-linejoin:round; stroke-width:4; stroke-opacity:1; fill:none" points="193.936,465.265 212.834,465.265 "/>
<polyline clip-path="url(#clip890)" style="stroke:#000000; stroke-linecap:round; stroke-linejoin:round; stroke-width:4; stroke-opacity:1; fill:none" points="193.936,195.428 212.834,195.428 "/>
<path clip-path="url(#clip890)" d="M50.9921 1275.23 L80.6679 1275.23 L80.6679 1279.16 L50.9921 1279.16 L50.9921 1275.23 Z" fill="#000000" fill-rule="nonzero" fill-opacity="1" /><path clip-path="url(#clip890)" d="M90.8067 1257.5 L109.163 1257.5 L109.163 1261.43 L95.0891 1261.43 L95.0891 1269.9 Q96.1076 1269.56 97.1261 1269.39 Q98.1447 1269.21 99.1632 1269.21 Q104.95 1269.21 108.33 1272.38 Q111.709 1275.55 111.709 1280.97 Q111.709 1286.55 108.237 1289.65 Q104.765 1292.73 98.4456 1292.73 Q96.2697 1292.73 94.0012 1292.36 Q91.7558 1291.99 89.3484 1291.25 L89.3484 1286.55 Q91.4317 1287.68 93.6539 1288.24 Q95.8761 1288.79 98.353 1288.79 Q102.358 1288.79 104.696 1286.69 Q107.033 1284.58 107.033 1280.97 Q107.033 1277.36 104.696 1275.25 Q102.358 1273.14 98.353 1273.14 Q96.478 1273.14 94.603 1273.56 Q92.7512 1273.98 90.8067 1274.86 L90.8067 1257.5 Z" fill="#000000" fill-rule="nonzero" fill-opacity="1" /><path clip-path="url(#clip890)" d="M120.922 1286.18 L125.807 1286.18 L125.807 1292.06 L120.922 1292.06 L120.922 1286.18 Z" fill="#000000" fill-rule="nonzero" fill-opacity="1" /><path clip-path="url(#clip890)" d="M145.992 1260.57 Q142.381 1260.57 140.552 1264.14 Q138.746 1267.68 138.746 1274.81 Q138.746 1281.92 140.552 1285.48 Q142.381 1289.02 145.992 1289.02 Q149.626 1289.02 151.431 1285.48 Q153.26 1281.92 153.26 1274.81 Q153.26 1267.68 151.431 1264.14 Q149.626 1260.57 145.992 1260.57 M145.992 1256.87 Q151.802 1256.87 154.857 1261.48 Q157.936 1266.06 157.936 1274.81 Q157.936 1283.54 154.857 1288.14 Q151.802 1292.73 145.992 1292.73 Q140.181 1292.73 137.103 1288.14 Q134.047 1283.54 134.047 1274.81 Q134.047 1266.06 137.103 1261.48 Q140.181 1256.87 145.992 1256.87 Z" fill="#000000" fill-rule="nonzero" fill-opacity="1" /><path clip-path="url(#clip890)" d="M51.9875 1005.39 L81.6633 1005.39 L81.6633 1009.33 L51.9875 1009.33 L51.9875 1005.39 Z" fill="#000000" fill-rule="nonzero" fill-opacity="1" /><path clip-path="url(#clip890)" d="M95.7836 1018.28 L112.103 1018.28 L112.103 1022.22 L90.1586 1022.22 L90.1586 1018.28 Q92.8206 1015.53 97.4039 1010.9 Q102.01 1006.25 103.191 1004.9 Q105.436 1002.38 106.316 1000.64 Q107.219 998.886 107.219 997.196 Q107.219 994.441 105.274 992.705 Q103.353 990.969 100.251 990.969 Q98.0521 990.969 95.5984 991.733 Q93.1678 992.497 90.3901 994.048 L90.3901 989.325 Q93.2141 988.191 95.6678 987.613 Q98.1215 987.034 100.159 987.034 Q105.529 987.034 108.723 989.719 Q111.918 992.404 111.918 996.895 Q111.918 999.024 111.108 1000.95 Q110.321 1002.84 108.214 1005.44 Q107.635 1006.11 104.534 1009.33 Q101.432 1012.52 95.7836 1018.28 Z" fill="#000000" fill-rule="nonzero" fill-opacity="1" /><path clip-path="url(#clip890)" d="M121.918 1016.34 L126.802 1016.34 L126.802 1022.22 L121.918 1022.22 L121.918 1016.34 Z" fill="#000000" fill-rule="nonzero" fill-opacity="1" /><path clip-path="url(#clip890)" d="M137.033 987.659 L155.39 987.659 L155.39 991.594 L141.316 991.594 L141.316 1000.07 Q142.334 999.719 143.353 999.557 Q144.371 999.372 145.39 999.372 Q151.177 999.372 154.556 1002.54 Q157.936 1005.71 157.936 1011.13 Q157.936 1016.71 154.464 1019.81 Q150.992 1022.89 144.672 1022.89 Q142.496 1022.89 140.228 1022.52 Q137.982 1022.15 135.575 1021.41 L135.575 1016.71 Q137.658 1017.84 139.881 1018.4 Q142.103 1018.95 144.58 1018.95 Q148.584 1018.95 150.922 1016.85 Q153.26 1014.74 153.26 1011.13 Q153.26 1007.52 150.922 1005.41 Q148.584 1003.31 144.58 1003.31 Q142.705 1003.31 140.83 1003.72 Q138.978 1004.14 137.033 1005.02 L137.033 987.659 Z" fill="#000000" fill-rule="nonzero" fill-opacity="1" /><path clip-path="url(#clip890)" d="M100.76 720.901 Q97.1493 720.901 95.3206 724.465 Q93.515 728.007 93.515 735.137 Q93.515 742.243 95.3206 745.808 Q97.1493 749.349 100.76 749.349 Q104.395 749.349 106.2 745.808 Q108.029 742.243 108.029 735.137 Q108.029 728.007 106.2 724.465 Q104.395 720.901 100.76 720.901 M100.76 717.197 Q106.571 717.197 109.626 721.803 Q112.705 726.387 112.705 735.137 Q112.705 743.863 109.626 748.47 Q106.571 753.053 100.76 753.053 Q94.9502 753.053 91.8715 748.47 Q88.816 743.863 88.816 735.137 Q88.816 726.387 91.8715 721.803 Q94.9502 717.197 100.76 717.197 Z" fill="#000000" fill-rule="nonzero" fill-opacity="1" /><path clip-path="url(#clip890)" d="M120.922 746.502 L125.807 746.502 L125.807 752.382 L120.922 752.382 L120.922 746.502 Z" fill="#000000" fill-rule="nonzero" fill-opacity="1" /><path clip-path="url(#clip890)" d="M145.992 720.901 Q142.381 720.901 140.552 724.465 Q138.746 728.007 138.746 735.137 Q138.746 742.243 140.552 745.808 Q142.381 749.349 145.992 749.349 Q149.626 749.349 151.431 745.808 Q153.26 742.243 153.26 735.137 Q153.26 728.007 151.431 724.465 Q149.626 720.901 145.992 720.901 M145.992 717.197 Q151.802 717.197 154.857 721.803 Q157.936 726.387 157.936 735.137 Q157.936 743.863 154.857 748.47 Q151.802 753.053 145.992 753.053 Q140.181 753.053 137.103 748.47 Q134.047 743.863 134.047 735.137 Q134.047 726.387 137.103 721.803 Q140.181 717.197 145.992 717.197 Z" fill="#000000" fill-rule="nonzero" fill-opacity="1" /><path clip-path="url(#clip890)" d="M95.7836 478.61 L112.103 478.61 L112.103 482.545 L90.1586 482.545 L90.1586 478.61 Q92.8206 475.855 97.4039 471.226 Q102.01 466.573 103.191 465.23 Q105.436 462.707 106.316 460.971 Q107.219 459.212 107.219 457.522 Q107.219 454.767 105.274 453.031 Q103.353 451.295 100.251 451.295 Q98.0521 451.295 95.5984 452.059 Q93.1678 452.823 90.3901 454.374 L90.3901 449.652 Q93.2141 448.517 95.6678 447.939 Q98.1215 447.36 100.159 447.36 Q105.529 447.36 108.723 450.045 Q111.918 452.73 111.918 457.221 Q111.918 459.351 111.108 461.272 Q110.321 463.17 108.214 465.763 Q107.635 466.434 104.534 469.651 Q101.432 472.846 95.7836 478.61 Z" fill="#000000" fill-rule="nonzero" fill-opacity="1" /><path clip-path="url(#clip890)" d="M121.918 476.665 L126.802 476.665 L126.802 482.545 L121.918 482.545 L121.918 476.665 Z" fill="#000000" fill-rule="nonzero" fill-opacity="1" /><path clip-path="url(#clip890)" d="M137.033 447.985 L155.39 447.985 L155.39 451.92 L141.316 451.92 L141.316 460.392 Q142.334 460.045 143.353 459.883 Q144.371 459.698 145.39 459.698 Q151.177 459.698 154.556 462.869 Q157.936 466.04 157.936 471.457 Q157.936 477.036 154.464 480.138 Q150.992 483.216 144.672 483.216 Q142.496 483.216 140.228 482.846 Q137.982 482.475 135.575 481.735 L135.575 477.036 Q137.658 478.17 139.881 478.726 Q142.103 479.281 144.58 479.281 Q148.584 479.281 150.922 477.175 Q153.26 475.068 153.26 471.457 Q153.26 467.846 150.922 465.739 Q148.584 463.633 144.58 463.633 Q142.705 463.633 140.83 464.05 Q138.978 464.466 137.033 465.346 L137.033 447.985 Z" fill="#000000" fill-rule="nonzero" fill-opacity="1" /><path clip-path="url(#clip890)" d="M90.8067 178.148 L109.163 178.148 L109.163 182.083 L95.0891 182.083 L95.0891 190.555 Q96.1076 190.208 97.1261 190.046 Q98.1447 189.861 99.1632 189.861 Q104.95 189.861 108.33 193.032 Q111.709 196.203 111.709 201.62 Q111.709 207.199 108.237 210.301 Q104.765 213.379 98.4456 213.379 Q96.2697 213.379 94.0012 213.009 Q91.7558 212.639 89.3484 211.898 L89.3484 207.199 Q91.4317 208.333 93.6539 208.889 Q95.8761 209.444 98.353 209.444 Q102.358 209.444 104.696 207.338 Q107.033 205.231 107.033 201.62 Q107.033 198.009 104.696 195.903 Q102.358 193.796 98.353 193.796 Q96.478 193.796 94.603 194.213 Q92.7512 194.629 90.8067 195.509 L90.8067 178.148 Z" fill="#000000" fill-rule="nonzero" fill-opacity="1" /><path clip-path="url(#clip890)" d="M120.922 206.828 L125.807 206.828 L125.807 212.708 L120.922 212.708 L120.922 206.828 Z" fill="#000000" fill-rule="nonzero" fill-opacity="1" /><path clip-path="url(#clip890)" d="M145.992 181.227 Q142.381 181.227 140.552 184.791 Q138.746 188.333 138.746 195.463 Q138.746 202.569 140.552 206.134 Q142.381 209.676 145.992 209.676 Q149.626 209.676 151.431 206.134 Q153.26 202.569 153.26 195.463 Q153.26 188.333 151.431 184.791 Q149.626 181.227 145.992 181.227 M145.992 177.523 Q151.802 177.523 154.857 182.129 Q157.936 186.713 157.936 195.463 Q157.936 204.19 154.857 208.796 Q151.802 213.379 145.992 213.379 Q140.181 213.379 137.103 208.796 Q134.047 204.19 134.047 195.463 Q134.047 186.713 137.103 182.129 Q140.181 177.523 145.992 177.523 Z" fill="#000000" fill-rule="nonzero" fill-opacity="1" /><polyline clip-path="url(#clip892)" style="stroke:#009af9; stroke-linecap:round; stroke-linejoin:round; stroke-width:4; stroke-opacity:1; fill:none" points="255.035,681.134 259.108,681.101 263.181,681.003 267.254,680.841 271.328,680.615 275.401,680.325 279.474,679.971 283.547,679.553 287.621,679.072 291.694,678.528 295.767,677.922 299.84,677.255 303.914,676.526 307.987,675.738 312.06,674.891 316.133,673.985 320.207,673.021 324.28,672.001 328.353,670.926 332.426,669.795 336.5,668.612 340.573,667.376 344.646,666.089 348.719,664.752 352.793,663.368 356.866,661.936 360.939,660.458 365.012,658.936 369.086,657.373 373.159,655.768 377.232,654.124 381.305,652.443 385.379,650.724 389.452,648.971 393.525,647.187 397.598,645.371 401.671,643.526 405.745,641.654 409.818,639.756 413.891,637.835 417.964,635.892 422.038,633.929 426.111,631.949 430.184,629.952 434.257,627.942 438.331,625.921 442.404,623.889 446.477,621.85 450.55,619.805 454.624,617.757 458.697,615.707 462.77,613.657 466.843,611.611 470.917,609.57 474.99,607.534 479.063,605.507 483.136,603.492 487.21,601.489 491.283,599.502 495.356,597.531 499.429,595.579 503.503,593.648 507.576,591.739 511.649,589.855 515.722,587.998 519.796,586.169 523.869,584.371 527.942,582.604 532.015,580.871 536.089,579.174 540.162,577.513 544.235,575.892 548.308,574.312 552.382,572.773 556.455,571.278 560.528,569.828 564.601,568.425 568.675,567.069 572.748,565.764 576.821,564.508 580.894,563.305 584.968,562.154 589.041,561.058 593.114,560.017 597.187,559.033 601.261,558.106 605.334,557.237 609.407,556.427 613.48,555.677 617.553,554.988 621.627,554.361 625.7,553.795 629.773,553.293 633.846,552.853 637.92,552.476 641.993,552.164 646.066,551.916 650.139,551.732 654.213,551.614 658.286,551.56 662.359,551.57 666.432,551.646 670.506,551.786 674.579,551.991 678.652,552.261 682.725,552.594 686.799,552.992 690.872,553.453 694.945,553.976 699.018,554.563 703.092,555.211 707.165,555.92 711.238,556.69 715.311,557.519 719.385,558.408 723.458,559.354 727.531,560.358 731.604,561.417 735.678,562.532 739.751,563.7 743.824,564.922 747.897,566.194 751.971,567.517 756.044,568.889 760.117,570.308 764.19,571.773 768.264,573.283 772.337,574.837 776.41,576.432 780.483,578.066 784.557,579.739 788.63,581.449 792.703,583.193 796.776,584.971 800.85,586.781 804.923,588.62 808.996,590.487 813.069,592.379 817.142,594.296 821.216,596.235 825.289,598.194 829.362,600.171 833.435,602.164 837.509,604.172 841.582,606.191 845.655,608.221 849.728,610.26 853.802,612.304 857.875,614.353 861.948,616.404 866.021,618.454 870.095,620.502 874.168,622.546 878.241,624.585 882.314,626.615 886.388,628.635 890.461,630.642 894.534,632.635 898.607,634.611 902.681,636.57 906.754,638.509 910.827,640.426 914.9,642.318 918.974,644.184 923.047,646.022 927.12,647.831 931.193,649.609 935.267,651.353 939.34,653.063 943.413,654.735 947.486,656.369 951.56,657.963 955.633,659.516 959.706,661.025 963.779,662.49 967.853,663.909 971.926,665.28 975.999,666.601 980.072,667.873 984.146,669.094 988.219,670.262 992.292,671.375 996.365,672.434 1000.44,673.436 1004.51,674.382 1008.59,675.269 1012.66,676.098 1016.73,676.867 1020.8,677.575 1024.88,678.222 1028.95,678.807 1033.02,679.329 1037.1,679.789 1041.17,680.186 1045.24,680.518 1049.32,680.786 1053.39,680.99 1057.46,681.129 1061.54,681.203 1065.61,681.213 1069.68,681.157 1073.76,681.037 1077.83,680.852 1081.9,680.602 1085.98,680.289 1090.05,679.911 1094.12,679.47 1098.2,678.965 1102.27,678.398 1106.34,677.769 1110.42,677.078 1114.49,676.327 1118.56,675.516 1122.64,674.645 1126.71,673.716 1130.78,672.73 1134.86,671.688 1138.93,670.59 1143,669.437 1147.08,668.232 1151.15,666.975 1155.22,665.667 1159.3,664.31 1163.37,662.905 1167.44,661.453 1171.51,659.956 1175.59,658.415 1179.66,656.833 1183.73,655.21 1187.81,653.548 1191.88,651.849 1195.95,650.114 1200.03,648.346 1204.1,646.545 1208.17,644.714 1212.25,642.855 1216.32,640.97 1220.39,639.06 1224.47,637.127 1228.54,635.173 1232.61,633.201 1236.69,631.211 1240.76,629.207 1244.83,627.191 1248.91,625.163 1252.98,623.126 1257.05,621.082 1261.13,619.034 1265.2,616.983 1269.27,614.932 1273.35,612.882 1277.42,610.835 1281.49,608.794 1285.57,606.76 1289.64,604.736 1293.71,602.724 1297.79,600.726 1301.86,598.743 1305.93,596.777 1310.01,594.831 1314.08,592.907 1318.15,591.006 1322.22,589.131 1326.3,587.283 1330.37,585.464 1334.44,583.676 1338.52,581.92 1342.59,580.199 1346.66,578.514 1350.74,576.868 1354.81,575.26 1358.88,573.694 1362.96,572.17 1367.03,570.691 1371.1,569.257 1375.18,567.871 1379.25,566.533 1383.32,565.245 1387.4,564.007 1391.47,562.823 1395.54,561.692 1399.62,560.615 1403.69,559.595 1407.76,558.631 1411.84,557.725 1415.91,556.878 1419.98,556.09 1424.06,555.362 1428.13,554.696 1432.2,554.092 1436.28,553.549 1440.35,553.07 1444.42,552.653 1448.5,552.301 1452.57,552.013 1456.64,551.789 1460.72,551.629 1464.79,551.535 1468.86,551.505 1472.93,551.54 1477.01,551.641 1481.08,551.805 1485.15,552.035 1489.23,552.329 1493.3,552.687 1497.37,553.109 1501.45,553.594 1505.52,554.141 1509.59,554.752 1513.67,555.423 1517.74,556.156 1521.81,556.949 1525.89,557.802 1529.96,558.713 1534.03,559.682 1538.11,560.707 1542.18,561.788 1546.25,562.924 1550.33,564.114 1554.4,565.355 1558.47,566.648 1562.55,567.99 1566.62,569.381 1570.69,570.819 1574.77,572.303 1578.84,573.831 1582.91,575.401 1586.99,577.012 1591.06,578.662 1595.13,580.351 1599.21,582.076 1603.28,583.835 1607.35,585.626 1611.43,587.448 1615.5,589.299 1619.57,591.177 1623.65,593.081 1627.72,595.007 1631.79,596.956 1635.86,598.923 1639.94,600.908 1644.01,602.908 1648.08,604.923 1652.16,606.948 1656.23,608.983 1660.3,611.026 1664.38,613.074 1668.45,615.124 1672.52,617.176 1676.6,619.228 1680.67,621.277 1684.74,623.321 1688.82,625.358 1692.89,627.386 1696.96,629.402 1701.04,631.406 1705.11,633.395 1709.18,635.367 1713.26,637.32 1717.33,639.252 1721.4,641.161 1725.48,643.045 1729.55,644.903 1733.62,646.732 1737.7,648.531 1741.77,650.297 1745.84,652.03 1749.92,653.726 1753.99,655.386 1758.06,657.006 1762.14,658.587 1766.21,660.124 1770.28,661.618 1774.36,663.067 1778.43,664.468 1782.5,665.822 1786.57,667.127 1790.65,668.38 1794.72,669.582 1798.79,670.73 1802.87,671.824 1806.94,672.862 1811.01,673.844 1815.09,674.769 1819.16,675.635 1823.23,676.442 1827.31,677.188 1831.38,677.874 1835.45,678.498 1839.53,679.06 1843.6,679.56 1847.67,679.996 1851.75,680.368 1855.82,680.677 1859.89,680.921 1863.97,681.1 1868.04,681.215 1872.11,681.265 1876.19,681.25 1880.26,681.17 1884.33,681.025 1888.41,680.816 1892.48,680.542 1896.55,680.204 1900.63,679.802 1904.7,679.336 1908.77,678.808 1912.85,678.217 1916.92,677.564 1920.99,676.85 1925.07,676.075 1929.14,675.241 1933.21,674.347 1937.28,673.396 1941.36,672.388 1945.43,671.323 1949.5,670.204 1953.58,669.03 1957.65,667.804 1961.72,666.527 1965.8,665.2 1969.87,663.823 1973.94,662.399 1978.02,660.929 1982.09,659.414 1986.16,657.856 1990.24,656.257 1994.31,654.618 1998.38,652.94 2002.46,651.226 2006.53,649.477 2010.6,647.695 2014.68,645.882 2018.75,644.039 2022.82,642.168 2026.9,640.272 2030.97,638.351 2035.04,636.408 2039.12,634.446 2043.19,632.466 2047.26,630.469 2051.34,628.458 2055.41,626.435 2059.48,624.402 2063.56,622.361 2067.63,620.314 2071.7,618.263 2075.78,616.21 2079.85,614.157 2083.92,612.106 2087.99,610.06 2092.07,608.02 2096.14,605.988 2100.21,603.967 2104.29,601.958 2108.36,599.963 2112.43,597.985 2116.51,596.025 2120.58,594.086 2124.65,592.169 2128.73,590.276 2132.8,588.409 2136.87,586.57 2140.95,584.761 2145.02,582.984 2149.09,581.24 2153.17,579.531 2157.24,577.859 2161.31,576.225 2165.39,574.632 2169.46,573.08 2173.53,571.572 2177.61,570.109 2181.68,568.692 2185.75,567.322 2189.83,566.002 2193.9,564.732 2197.97,563.513 2202.05,562.348 2206.12,561.237 2210.19,560.18 2214.27,559.18 2218.34,558.237 2222.41,557.353 2226.49,556.527 2230.56,555.762 2234.63,555.056 2238.71,554.413 2242.78,553.831 2246.85,553.311 2250.92,552.855 2255,552.463 2259.07,552.135 2263.14,551.87 2267.22,551.67 2271.29,551.535 2275.36,551.465 2279.44,551.46 2283.51,551.52 2287.58,551.645 2291.66,551.834 "/>
<polyline clip-path="url(#clip892)" style="stroke:#e26f46; stroke-linecap:round; stroke-linejoin:round; stroke-width:4; stroke-opacity:1; fill:none" points="255.035,735.102 259.108,728.627 263.181,722.162 267.254,715.709 271.328,709.276 275.401,702.868 279.474,696.49 283.547,690.15 287.621,683.853 291.694,677.608 295.767,671.421 299.84,665.299 303.914,659.246 307.987,653.268 312.06,647.372 316.133,641.565 320.207,635.85 324.28,630.234 328.353,624.724 332.426,619.324 336.5,614.039 340.573,608.875 344.646,603.837 348.719,598.931 352.793,594.16 356.866,589.53 360.939,585.047 365.012,580.711 369.086,576.529 373.159,572.504 377.232,568.641 381.305,564.946 385.379,561.421 389.452,558.072 393.525,554.894 397.598,551.896 401.671,549.081 405.745,546.453 409.818,544.015 413.891,541.77 417.964,539.717 422.038,537.858 426.111,536.196 430.184,534.733 434.257,533.472 438.331,532.414 442.404,531.559 446.477,530.907 450.55,530.459 454.624,530.216 458.697,530.179 462.77,530.347 466.843,530.72 470.917,531.298 474.99,532.08 479.063,533.065 483.136,534.252 487.21,535.641 491.283,537.229 495.356,539.014 499.429,540.997 503.503,543.173 507.576,545.542 511.649,548.101 515.722,550.846 519.796,553.775 523.869,556.886 527.942,560.176 532.015,563.641 536.089,567.277 540.162,571.081 544.235,575.049 548.308,579.177 552.382,583.461 556.455,587.898 560.528,592.481 564.601,597.208 568.675,602.072 572.748,607.069 576.821,612.193 580.894,617.442 584.968,622.809 589.041,628.288 593.114,633.873 597.187,639.56 601.261,645.342 605.334,651.214 609.407,657.171 613.48,663.206 617.553,669.313 621.627,675.485 625.7,681.716 629.773,688 633.846,694.334 637.92,700.708 641.993,707.116 646.066,713.553 650.139,720.01 654.213,726.482 658.286,732.963 662.359,739.447 666.432,745.927 670.506,752.396 674.579,758.848 678.652,765.274 682.725,771.67 686.799,778.032 690.872,784.351 694.945,790.62 699.018,796.834 703.092,802.985 707.165,809.068 711.238,815.077 715.311,821.007 719.385,826.852 723.458,832.604 727.531,838.259 731.604,843.81 735.678,849.251 739.751,854.58 743.824,859.79 747.897,864.874 751.971,869.829 756.044,874.649 760.117,879.328 764.19,883.863 768.264,888.25 772.337,892.485 776.41,896.562 780.483,900.477 784.557,904.226 788.63,907.805 792.703,911.212 796.776,914.444 800.85,917.496 804.923,920.366 808.996,923.049 813.069,925.545 817.142,927.849 821.216,929.962 825.289,931.88 829.362,933.601 833.435,935.123 837.509,936.445 841.582,937.565 845.655,938.483 849.728,939.197 853.802,939.708 857.875,940.013 861.948,940.114 866.021,940.009 870.095,939.699 874.168,939.184 878.241,938.466 882.314,937.544 886.388,936.419 890.461,935.093 894.534,933.566 898.607,931.841 902.681,929.92 906.754,927.803 910.827,925.493 914.9,922.993 918.974,920.305 923.047,917.432 927.12,914.376 931.193,911.14 935.267,907.728 939.34,904.144 943.413,900.391 947.486,896.472 951.56,892.392 955.633,888.154 959.706,883.763 963.779,879.223 967.853,874.539 971.926,869.715 975.999,864.758 980.072,859.67 984.146,854.456 988.219,849.124 992.292,843.677 996.365,838.122 1000.44,832.465 1004.51,826.71 1008.59,820.862 1012.66,814.928 1016.73,808.915 1020.8,802.827 1024.88,796.673 1028.95,790.458 1033.02,784.186 1037.1,777.864 1041.17,771.499 1045.24,765.099 1049.32,758.668 1053.39,752.215 1057.46,745.745 1061.54,739.262 1065.61,732.775 1069.68,726.291 1073.76,719.815 1077.83,713.356 1081.9,706.919 1085.98,700.509 1090.05,694.133 1094.12,687.797 1098.2,681.51 1102.27,675.276 1106.34,669.103 1110.42,662.996 1114.49,656.96 1118.56,651.002 1122.64,645.128 1126.71,639.344 1130.78,633.656 1134.86,628.071 1138.93,622.592 1143,617.225 1147.08,611.975 1151.15,606.849 1155.22,601.852 1159.3,596.988 1163.37,592.264 1167.44,587.68 1171.51,583.244 1175.59,578.96 1179.66,574.832 1183.73,570.865 1187.81,567.063 1191.88,563.429 1195.95,559.966 1200.03,556.677 1204.1,553.568 1208.17,550.64 1212.25,547.897 1216.32,545.343 1220.39,542.977 1224.47,540.802 1228.54,538.823 1232.61,537.04 1236.69,535.455 1240.76,534.071 1244.83,532.887 1248.91,531.905 1252.98,531.127 1257.05,530.553 1261.13,530.183 1265.2,530.019 1269.27,530.06 1273.35,530.306 1277.42,530.757 1281.49,531.412 1285.57,532.271 1289.64,533.334 1293.71,534.598 1297.79,536.063 1301.86,537.726 1305.93,539.588 1310.01,541.645 1314.08,543.896 1318.15,546.337 1322.22,548.968 1326.3,551.785 1330.37,554.786 1334.44,557.967 1338.52,561.326 1342.59,564.858 1346.66,568.56 1350.74,572.429 1354.81,576.461 1358.88,580.653 1362.96,584.998 1367.03,589.494 1371.1,594.135 1375.18,598.917 1379.25,603.836 1383.32,608.886 1387.4,614.063 1391.47,619.361 1395.54,624.775 1399.62,630.298 1403.69,635.926 1407.76,641.654 1411.84,647.477 1415.91,653.387 1419.98,659.378 1424.06,665.445 1428.13,671.581 1432.2,677.781 1436.28,684.039 1440.35,690.348 1444.42,696.703 1448.5,703.095 1452.57,709.519 1456.64,715.967 1460.72,722.437 1464.79,728.92 1468.86,735.408 1472.93,741.896 1477.01,748.377 1481.08,754.844 1485.15,761.292 1489.23,767.714 1493.3,774.105 1497.37,780.456 1501.45,786.761 1505.52,793.014 1509.59,799.208 1513.67,805.34 1517.74,811.402 1521.81,817.387 1525.89,823.29 1529.96,829.105 1534.03,834.824 1538.11,840.444 1542.18,845.96 1546.25,851.365 1550.33,856.654 1554.4,861.821 1558.47,866.86 1562.55,871.767 1566.62,876.538 1570.69,881.169 1574.77,885.653 1578.84,889.987 1582.91,894.165 1586.99,898.183 1591.06,902.038 1595.13,905.728 1599.21,909.246 1603.28,912.591 1607.35,915.757 1611.43,918.743 1615.5,921.544 1619.57,924.159 1623.65,926.586 1627.72,928.821 1631.79,930.862 1635.86,932.707 1639.94,934.354 1644.01,935.801 1648.08,937.049 1652.16,938.094 1656.23,938.936 1660.3,939.574 1664.38,940.008 1668.45,940.236 1672.52,940.258 1676.6,940.076 1680.67,939.689 1684.74,939.097 1688.82,938.301 1692.89,937.302 1696.96,936.1 1701.04,934.697 1705.11,933.094 1709.18,931.294 1713.26,929.297 1717.33,927.105 1721.4,924.722 1725.48,922.149 1729.55,919.388 1733.62,916.443 1737.7,913.316 1741.77,910.012 1745.84,906.532 1749.92,902.881 1753.99,899.062 1758.06,895.078 1762.14,890.934 1766.21,886.635 1770.28,882.184 1774.36,877.586 1778.43,872.846 1782.5,867.967 1786.57,862.955 1790.65,857.814 1794.72,852.552 1798.79,847.172 1802.87,841.681 1806.94,836.082 1811.01,830.381 1815.09,824.585 1819.16,818.7 1823.23,812.731 1827.31,806.685 1831.38,800.568 1835.45,794.384 1839.53,788.141 1843.6,781.844 1847.67,775.501 1851.75,769.118 1855.82,762.701 1859.89,756.256 1863.97,749.789 1868.04,743.307 1872.11,736.818 1876.19,730.326 1880.26,723.841 1884.33,717.367 1888.41,710.909 1892.48,704.475 1896.55,698.071 1900.63,691.705 1904.7,685.383 1908.77,679.111 1912.85,672.895 1916.92,666.74 1920.99,660.653 1925.07,654.641 1929.14,648.709 1933.21,642.865 1937.28,637.114 1941.36,631.459 1945.43,625.907 1949.5,620.465 1953.58,615.137 1957.65,609.93 1961.72,604.849 1965.8,599.899 1969.87,595.082 1973.94,590.405 1978.02,585.873 1982.09,581.49 1986.16,577.262 1990.24,573.193 1994.31,569.284 1998.38,565.541 2002.46,561.967 2006.53,558.567 2010.6,555.343 2014.68,552.3 2018.75,549.441 2022.82,546.765 2026.9,544.278 2030.97,541.983 2035.04,539.88 2039.12,537.973 2043.19,536.264 2047.26,534.754 2051.34,533.443 2055.41,532.334 2059.48,531.428 2063.56,530.726 2067.63,530.229 2071.7,529.937 2075.78,529.85 2079.85,529.968 2083.92,530.291 2087.99,530.82 2092.07,531.553 2096.14,532.489 2100.21,533.629 2104.29,534.97 2108.36,536.511 2112.43,538.251 2116.51,540.188 2120.58,542.32 2124.65,544.644 2128.73,547.16 2132.8,549.863 2136.87,552.752 2140.95,555.824 2145.02,559.075 2149.09,562.501 2153.17,566.101 2157.24,569.87 2161.31,573.804 2165.39,577.9 2169.46,582.153 2173.53,586.559 2177.61,591.113 2181.68,595.812 2185.75,600.65 2189.83,605.623 2193.9,610.726 2197.97,615.953 2202.05,621.298 2206.12,626.758 2210.19,632.327 2214.27,637.998 2218.34,643.767 2222.41,649.628 2226.49,655.573 2230.56,661.597 2234.63,667.696 2238.71,673.863 2242.78,680.091 2246.85,686.374 2250.92,692.705 2255,699.079 2259.07,705.488 2263.14,711.928 2267.22,718.392 2271.29,724.872 2275.36,731.362 2279.44,737.856 2283.51,744.346 2287.58,750.828 2291.66,757.295 "/>
<polyline clip-path="url(#clip892)" style="stroke:#3da44d; stroke-linecap:round; stroke-linejoin:round; stroke-width:4; stroke-opacity:1; fill:none" points="255.035,87.4932 259.108,87.8307 263.181,88.8074 267.254,90.4261 271.328,92.6875 275.401,95.5897 279.474,99.1318 283.547,103.309 287.621,108.12 291.694,113.558 295.767,119.618 299.84,126.293 303.914,133.576 307.987,141.457 312.06,149.932 316.133,158.993 320.207,168.627 324.28,178.825 328.353,189.582 332.426,200.887 336.5,212.72 340.573,225.077 344.646,237.947 348.719,251.315 352.793,265.162 356.866,279.482 360.939,294.26 365.012,309.475 369.086,325.11 373.159,341.155 377.232,357.593 381.305,374.412 385.379,391.595 389.452,409.126 393.525,426.973 397.598,445.128 401.671,463.574 405.745,482.295 409.818,501.273 413.891,520.49 417.964,539.922 422.038,559.548 426.111,579.352 430.184,599.314 434.257,619.414 438.331,639.63 442.404,659.944 446.477,680.337 450.55,700.787 454.624,721.272 458.697,741.771 462.77,762.263 466.843,782.725 470.917,803.142 474.99,823.497 479.063,843.763 483.136,863.92 487.21,883.947 491.283,903.823 495.356,923.526 499.429,943.048 503.503,962.362 507.576,981.449 511.649,1000.29 515.722,1018.86 519.796,1037.15 523.869,1055.13 527.942,1072.8 532.015,1090.13 536.089,1107.1 540.162,1123.7 544.235,1139.91 548.308,1155.72 552.382,1171.1 556.455,1186.06 560.528,1200.56 564.601,1214.59 568.675,1228.14 572.748,1241.2 576.821,1253.75 580.894,1265.79 584.968,1277.3 589.041,1288.26 593.114,1298.67 597.187,1308.51 601.261,1317.78 605.334,1326.47 609.407,1334.57 613.48,1342.07 617.553,1348.96 621.627,1355.23 625.7,1360.89 629.773,1365.91 633.846,1370.31 637.92,1374.07 641.993,1377.2 646.066,1379.68 650.139,1381.51 654.213,1382.7 658.286,1383.24 662.359,1383.13 666.432,1382.38 670.506,1380.98 674.579,1378.93 678.652,1376.23 682.725,1372.89 686.799,1368.92 690.872,1364.31 694.945,1359.07 699.018,1353.21 703.092,1346.73 707.165,1339.64 711.238,1331.94 715.311,1323.64 719.385,1314.76 723.458,1305.29 727.531,1295.26 731.604,1284.66 735.678,1273.52 739.751,1261.83 743.824,1249.62 747.897,1236.9 751.971,1223.67 756.044,1209.95 760.117,1195.76 764.19,1181.1 768.264,1166 772.337,1150.47 776.41,1134.52 780.483,1118.17 784.557,1101.45 788.63,1084.35 792.703,1066.9 796.776,1049.12 800.85,1031.03 804.923,1012.64 808.996,993.971 813.069,975.046 817.142,955.882 821.216,936.493 825.289,916.901 829.362,897.128 833.435,877.193 837.509,857.118 841.582,836.924 845.655,816.623 849.728,796.239 853.802,775.793 857.875,755.307 861.948,734.803 866.021,714.3 870.095,693.82 874.168,673.375 878.241,652.992 882.314,632.691 886.388,612.493 890.461,592.419 894.534,572.491 898.607,552.723 902.681,533.134 906.754,513.747 910.827,494.581 914.9,475.658 918.974,456.996 923.047,438.616 927.12,420.524 931.193,402.748 935.267,385.304 939.34,368.21 943.413,351.486 947.486,335.148 951.56,319.208 955.633,303.681 959.706,288.585 963.779,273.936 967.853,259.75 971.926,246.041 975.999,232.825 980.072,220.105 984.146,207.9 988.219,196.222 992.292,185.084 996.365,174.498 1000.44,164.475 1004.51,155.022 1008.59,146.146 1012.66,137.86 1016.73,130.171 1020.8,123.088 1024.88,116.619 1028.95,110.77 1033.02,105.543 1037.1,100.946 1041.17,96.9824 1045.24,93.6581 1049.32,90.9761 1053.39,88.9397 1057.46,87.5503 1061.54,86.8068 1065.61,86.7119 1069.68,87.266 1073.76,88.4685 1077.83,90.3184 1081.9,92.8142 1085.98,95.9521 1090.05,99.7292 1094.12,104.142 1098.2,109.186 1102.27,114.857 1106.34,121.148 1110.42,128.054 1114.49,135.568 1118.56,143.681 1122.64,152.387 1126.71,161.675 1130.78,171.537 1134.86,181.962 1138.93,192.941 1143,204.464 1147.08,216.518 1151.15,229.091 1155.22,242.17 1159.3,255.741 1163.37,269.791 1167.44,284.309 1171.51,299.279 1175.59,314.685 1179.66,330.511 1183.73,346.741 1187.81,363.358 1191.88,380.349 1195.95,397.697 1200.03,415.383 1204.1,433.388 1208.17,451.695 1212.25,470.283 1216.32,489.135 1220.39,508.238 1224.47,527.568 1228.54,547.106 1232.61,566.832 1236.69,586.725 1240.76,606.764 1244.83,626.932 1248.91,647.213 1252.98,667.582 1257.05,688.018 1261.13,708.501 1265.2,729.008 1269.27,749.519 1273.35,770.02 1277.42,790.488 1281.49,810.901 1285.57,831.237 1289.64,851.476 1293.71,871.596 1297.79,891.579 1301.86,911.411 1305.93,931.066 1310.01,950.526 1314.08,969.769 1318.15,988.775 1322.22,1007.53 1326.3,1026.01 1330.37,1044.2 1334.44,1062.08 1338.52,1079.64 1342.59,1096.85 1346.66,1113.69 1350.74,1130.16 1354.81,1146.23 1358.88,1161.9 1362.96,1177.14 1367.03,1191.93 1371.1,1206.27 1375.18,1220.13 1379.25,1233.51 1383.32,1246.39 1387.4,1258.76 1391.47,1270.61 1395.54,1281.92 1399.62,1292.68 1403.69,1302.89 1407.76,1312.52 1411.84,1321.59 1415.91,1330.06 1419.98,1337.94 1424.06,1345.21 1428.13,1351.88 1432.2,1357.92 1436.28,1363.35 1440.35,1368.14 1444.42,1372.31 1448.5,1375.83 1452.57,1378.71 1456.64,1380.95 1460.72,1382.54 1464.79,1383.49 1468.86,1383.79 1472.93,1383.43 1477.01,1382.43 1481.08,1380.78 1485.15,1378.49 1489.23,1375.55 1493.3,1371.97 1497.37,1367.75 1501.45,1362.9 1505.52,1357.42 1509.59,1351.32 1513.67,1344.6 1517.74,1337.28 1521.81,1329.35 1525.89,1320.82 1529.96,1311.71 1534.03,1302.02 1538.11,1291.77 1542.18,1280.95 1546.25,1269.6 1550.33,1257.7 1554.4,1245.28 1558.47,1232.36 1562.55,1218.93 1566.62,1205.02 1570.69,1190.64 1574.77,1175.81 1578.84,1160.53 1582.91,1144.83 1586.99,1128.72 1591.06,1112.21 1595.13,1095.33 1599.21,1078.08 1603.28,1060.49 1607.35,1042.58 1611.43,1024.36 1615.5,1005.85 1619.57,987.069 1623.65,968.032 1627.72,948.763 1631.79,929.28 1635.86,909.604 1639.94,889.756 1644.01,869.754 1648.08,849.612 1652.16,829.355 1656.23,809.003 1660.3,788.578 1664.38,768.102 1668.45,747.594 1672.52,727.073 1676.6,706.556 1680.67,686.066 1684.74,665.627 1688.82,645.257 1692.89,624.98 1696.96,604.816 1701.04,584.776 1705.11,564.885 1709.18,545.165 1713.26,525.635 1717.33,506.316 1721.4,487.229 1725.48,468.39 1729.55,449.812 1733.62,431.52 1737.7,413.531 1741.77,395.865 1745.84,378.541 1749.92,361.576 1753.99,344.98 1758.06,328.773 1762.14,312.972 1766.21,297.594 1770.28,282.656 1774.36,268.172 1778.43,254.156 1782.5,240.616 1786.57,227.571 1790.65,215.033 1794.72,203.017 1798.79,191.535 1802.87,180.599 1806.94,170.215 1811.01,160.394 1815.09,151.148 1819.16,142.487 1823.23,134.42 1827.31,126.955 1831.38,120.1 1835.45,113.856 1839.53,108.234 1843.6,103.24 1847.67,98.8776 1851.75,95.153 1855.82,92.0701 1859.89,89.6296 1863.97,87.8335 1868.04,86.6851 1872.11,86.1857 1876.19,86.3359 1880.26,87.136 1884.33,88.5851 1888.41,90.6797 1892.48,93.4191 1896.55,96.8006 1900.63,100.821 1904.7,105.476 1908.77,110.762 1912.85,116.672 1916.92,123.201 1920.99,130.342 1925.07,138.089 1929.14,146.432 1933.21,155.365 1937.28,164.877 1941.36,174.961 1945.43,185.606 1949.5,196.801 1953.58,208.534 1957.65,220.794 1961.72,233.567 1965.8,246.843 1969.87,260.609 1973.94,274.85 1978.02,289.552 1982.09,304.699 1986.16,320.276 1990.24,336.266 1994.31,352.658 1998.38,369.434 2002.46,386.576 2006.53,404.067 2010.6,421.887 2014.68,440.02 2018.75,458.447 2022.82,477.156 2026.9,496.123 2030.97,515.329 2035.04,534.754 2039.12,554.378 2043.19,574.18 2047.26,594.147 2051.34,614.258 2055.41,634.489 2059.48,654.821 2063.56,675.232 2067.63,695.7 2071.7,716.207 2075.78,736.738 2079.85,757.269 2083.92,777.777 2087.99,798.241 2092.07,818.641 2096.14,838.954 2100.21,859.166 2104.29,879.258 2108.36,899.205 2112.43,918.988 2116.51,938.586 2120.58,957.978 2124.65,977.144 2128.73,996.075 2132.8,1014.75 2136.87,1033.14 2140.95,1051.23 2145.02,1069 2149.09,1086.44 2153.17,1103.52 2157.24,1120.25 2161.31,1136.58 2165.39,1152.52 2169.46,1168.03 2173.53,1183.12 2177.61,1197.75 2181.68,1211.92 2185.75,1225.62 2189.83,1238.82 2193.9,1251.52 2197.97,1263.71 2202.05,1275.36 2206.12,1286.47 2210.19,1297.03 2214.27,1307.04 2218.34,1316.47 2222.41,1325.31 2226.49,1333.57 2230.56,1341.22 2234.63,1348.27 2238.71,1354.71 2242.78,1360.53 2246.85,1365.72 2250.92,1370.28 2255,1374.21 2259.07,1377.49 2263.14,1380.14 2267.22,1382.13 2271.29,1383.48 2275.36,1384.19 2279.44,1384.24 2283.51,1383.64 2287.58,1382.39 2291.66,1380.5 "/>
<path clip-path="url(#clip890)" d="M1581.03 300.469 L2280.8 300.469 L2280.8 93.1086 L1581.03 93.1086  Z" fill="#ffffff" fill-rule="evenodd" fill-opacity="1"/>
<polyline clip-path="url(#clip890)" style="stroke:#000000; stroke-linecap:round; stroke-linejoin:round; stroke-width:4; stroke-opacity:1; fill:none" points="1581.03,300.469 2280.8,300.469 2280.8,93.1086 1581.03,93.1086 1581.03,300.469 "/>
<polyline clip-path="url(#clip890)" style="stroke:#009af9; stroke-linecap:round; stroke-linejoin:round; stroke-width:4; stroke-opacity:1; fill:none" points="1605.01,144.949 1748.94,144.949 "/>
<path clip-path="url(#clip890)" d="M1793.27 141.28 Q1794.87 138.409 1797.09 137.044 Q1799.31 135.678 1802.32 135.678 Q1806.37 135.678 1808.57 138.525 Q1810.77 141.349 1810.77 146.581 L1810.77 162.229 L1806.49 162.229 L1806.49 146.719 Q1806.49 142.993 1805.17 141.187 Q1803.85 139.382 1801.14 139.382 Q1797.83 139.382 1795.91 141.581 Q1793.99 143.78 1793.99 147.576 L1793.99 162.229 L1789.7 162.229 L1789.7 146.719 Q1789.7 142.969 1788.38 141.187 Q1787.07 139.382 1784.31 139.382 Q1781.05 139.382 1779.13 141.604 Q1777.2 143.803 1777.2 147.576 L1777.2 162.229 L1772.92 162.229 L1772.92 136.303 L1777.2 136.303 L1777.2 140.331 Q1778.66 137.946 1780.7 136.812 Q1782.74 135.678 1785.54 135.678 Q1788.36 135.678 1790.33 137.113 Q1792.32 138.548 1793.27 141.28 Z" fill="#000000" fill-rule="nonzero" fill-opacity="1" /><path clip-path="url(#clip890)" d="M1831.05 149.196 Q1825.88 149.196 1823.89 150.377 Q1821.9 151.557 1821.9 154.405 Q1821.9 156.673 1823.38 158.016 Q1824.89 159.335 1827.46 159.335 Q1831 159.335 1833.13 156.835 Q1835.28 154.312 1835.28 150.145 L1835.28 149.196 L1831.05 149.196 M1839.54 147.437 L1839.54 162.229 L1835.28 162.229 L1835.28 158.293 Q1833.82 160.655 1831.65 161.789 Q1829.47 162.9 1826.32 162.9 Q1822.34 162.9 1819.98 160.678 Q1817.64 158.432 1817.64 154.682 Q1817.64 150.307 1820.56 148.085 Q1823.5 145.863 1829.31 145.863 L1835.28 145.863 L1835.28 145.446 Q1835.28 142.507 1833.34 140.909 Q1831.42 139.289 1827.92 139.289 Q1825.7 139.289 1823.59 139.821 Q1821.49 140.354 1819.54 141.419 L1819.54 137.483 Q1821.88 136.581 1824.08 136.141 Q1826.28 135.678 1828.36 135.678 Q1833.99 135.678 1836.76 138.594 Q1839.54 141.511 1839.54 147.437 Z" fill="#000000" fill-rule="nonzero" fill-opacity="1" /><path clip-path="url(#clip890)" d="M1864.84 137.067 L1864.84 141.094 Q1863.04 140.169 1861.09 139.706 Q1859.15 139.243 1857.07 139.243 Q1853.89 139.243 1852.3 140.215 Q1850.72 141.187 1850.72 143.131 Q1850.72 144.613 1851.86 145.469 Q1852.99 146.303 1856.42 147.067 L1857.88 147.391 Q1862.41 148.363 1864.31 150.145 Q1866.23 151.905 1866.23 155.076 Q1866.23 158.687 1863.36 160.793 Q1860.51 162.9 1855.51 162.9 Q1853.43 162.9 1851.16 162.483 Q1848.92 162.09 1846.42 161.28 L1846.42 156.881 Q1848.78 158.108 1851.07 158.733 Q1853.36 159.335 1855.61 159.335 Q1858.62 159.335 1860.24 158.317 Q1861.86 157.275 1861.86 155.4 Q1861.86 153.664 1860.68 152.738 Q1859.52 151.812 1855.56 150.956 L1854.08 150.608 Q1850.12 149.775 1848.36 148.062 Q1846.6 146.326 1846.6 143.317 Q1846.6 139.659 1849.19 137.669 Q1851.79 135.678 1856.56 135.678 Q1858.92 135.678 1861 136.025 Q1863.08 136.372 1864.84 137.067 Z" fill="#000000" fill-rule="nonzero" fill-opacity="1" /><path clip-path="url(#clip890)" d="M1889.54 137.067 L1889.54 141.094 Q1887.74 140.169 1885.79 139.706 Q1883.85 139.243 1881.76 139.243 Q1878.59 139.243 1877 140.215 Q1875.42 141.187 1875.42 143.131 Q1875.42 144.613 1876.56 145.469 Q1877.69 146.303 1881.12 147.067 L1882.57 147.391 Q1887.11 148.363 1889.01 150.145 Q1890.93 151.905 1890.93 155.076 Q1890.93 158.687 1888.06 160.793 Q1885.21 162.9 1880.21 162.9 Q1878.13 162.9 1875.86 162.483 Q1873.62 162.09 1871.12 161.28 L1871.12 156.881 Q1873.48 158.108 1875.77 158.733 Q1878.06 159.335 1880.31 159.335 Q1883.31 159.335 1884.94 158.317 Q1886.56 157.275 1886.56 155.4 Q1886.56 153.664 1885.38 152.738 Q1884.22 151.812 1880.26 150.956 L1878.78 150.608 Q1874.82 149.775 1873.06 148.062 Q1871.3 146.326 1871.3 143.317 Q1871.3 139.659 1873.89 137.669 Q1876.49 135.678 1881.25 135.678 Q1883.62 135.678 1885.7 136.025 Q1887.78 136.372 1889.54 137.067 Z" fill="#000000" fill-rule="nonzero" fill-opacity="1" /><path clip-path="url(#clip890)" d="M1898.31 156.349 L1903.2 156.349 L1903.2 162.229 L1898.31 162.229 L1898.31 156.349 Z" fill="#000000" fill-rule="nonzero" fill-opacity="1" /><path clip-path="url(#clip890)" d="M1929.31 137.067 L1929.31 141.094 Q1927.5 140.169 1925.56 139.706 Q1923.62 139.243 1921.53 139.243 Q1918.36 139.243 1916.76 140.215 Q1915.19 141.187 1915.19 143.131 Q1915.19 144.613 1916.32 145.469 Q1917.46 146.303 1920.88 147.067 L1922.34 147.391 Q1926.88 148.363 1928.78 150.145 Q1930.7 151.905 1930.7 155.076 Q1930.7 158.687 1927.83 160.793 Q1924.98 162.9 1919.98 162.9 Q1917.9 162.9 1915.63 162.483 Q1913.38 162.09 1910.88 161.28 L1910.88 156.881 Q1913.25 158.108 1915.54 158.733 Q1917.83 159.335 1920.07 159.335 Q1923.08 159.335 1924.7 158.317 Q1926.32 157.275 1926.32 155.4 Q1926.32 153.664 1925.14 152.738 Q1923.99 151.812 1920.03 150.956 L1918.55 150.608 Q1914.59 149.775 1912.83 148.062 Q1911.07 146.326 1911.07 143.317 Q1911.07 139.659 1913.66 137.669 Q1916.25 135.678 1921.02 135.678 Q1923.38 135.678 1925.47 136.025 Q1927.55 136.372 1929.31 137.067 Z" fill="#000000" fill-rule="nonzero" fill-opacity="1" /><path clip-path="url(#clip890)" d="M1962.78 126.257 Q1959.68 131.581 1958.18 136.789 Q1956.67 141.997 1956.67 147.344 Q1956.67 152.692 1958.18 157.946 Q1959.7 163.178 1962.78 168.479 L1959.08 168.479 Q1955.61 163.039 1953.87 157.784 Q1952.16 152.53 1952.16 147.344 Q1952.16 142.182 1953.87 136.951 Q1955.58 131.72 1959.08 126.257 L1962.78 126.257 Z" fill="#000000" fill-rule="nonzero" fill-opacity="1" /><path clip-path="url(#clip890)" d="M1985.81 143.594 Q1989.17 144.312 1991.05 146.581 Q1992.94 148.849 1992.94 152.182 Q1992.94 157.298 1989.43 160.099 Q1985.91 162.9 1979.43 162.9 Q1977.25 162.9 1974.93 162.46 Q1972.64 162.043 1970.19 161.187 L1970.19 156.673 Q1972.13 157.807 1974.45 158.386 Q1976.76 158.965 1979.29 158.965 Q1983.68 158.965 1985.98 157.229 Q1988.29 155.493 1988.29 152.182 Q1988.29 149.127 1986.14 147.414 Q1984.01 145.678 1980.19 145.678 L1976.16 145.678 L1976.16 141.835 L1980.37 141.835 Q1983.82 141.835 1985.65 140.469 Q1987.48 139.081 1987.48 136.488 Q1987.48 133.826 1985.58 132.414 Q1983.71 130.979 1980.19 130.979 Q1978.27 130.979 1976.07 131.395 Q1973.87 131.812 1971.23 132.692 L1971.23 128.525 Q1973.89 127.784 1976.21 127.414 Q1978.55 127.044 1980.61 127.044 Q1985.93 127.044 1989.03 129.474 Q1992.13 131.882 1992.13 136.002 Q1992.13 138.872 1990.49 140.863 Q1988.85 142.831 1985.81 143.594 Z" fill="#000000" fill-rule="nonzero" fill-opacity="1" /><path clip-path="url(#clip890)" d="M2015.98 143.594 Q2019.33 144.312 2021.21 146.581 Q2023.11 148.849 2023.11 152.182 Q2023.11 157.298 2019.59 160.099 Q2016.07 162.9 2009.59 162.9 Q2007.41 162.9 2005.1 162.46 Q2002.81 162.043 2000.35 161.187 L2000.35 156.673 Q2002.3 157.807 2004.61 158.386 Q2006.93 158.965 2009.45 158.965 Q2013.85 158.965 2016.14 157.229 Q2018.45 155.493 2018.45 152.182 Q2018.45 149.127 2016.3 147.414 Q2014.17 145.678 2010.35 145.678 L2006.32 145.678 L2006.32 141.835 L2010.54 141.835 Q2013.99 141.835 2015.81 140.469 Q2017.64 139.081 2017.64 136.488 Q2017.64 133.826 2015.74 132.414 Q2013.87 130.979 2010.35 130.979 Q2008.43 130.979 2006.23 131.395 Q2004.03 131.812 2001.39 132.692 L2001.39 128.525 Q2004.06 127.784 2006.37 127.414 Q2008.71 127.044 2010.77 127.044 Q2016.09 127.044 2019.19 129.474 Q2022.3 131.882 2022.3 136.002 Q2022.3 138.872 2020.65 140.863 Q2019.01 142.831 2015.98 143.594 Z" fill="#000000" fill-rule="nonzero" fill-opacity="1" /><path clip-path="url(#clip890)" d="M2032.02 127.669 L2050.37 127.669 L2050.37 131.604 L2036.3 131.604 L2036.3 140.076 Q2037.32 139.729 2038.34 139.567 Q2039.36 139.382 2040.37 139.382 Q2046.16 139.382 2049.54 142.553 Q2052.92 145.724 2052.92 151.141 Q2052.92 156.719 2049.45 159.821 Q2045.98 162.9 2039.66 162.9 Q2037.48 162.9 2035.21 162.53 Q2032.97 162.159 2030.56 161.418 L2030.56 156.719 Q2032.64 157.854 2034.87 158.409 Q2037.09 158.965 2039.56 158.965 Q2043.57 158.965 2045.91 156.858 Q2048.24 154.752 2048.24 151.141 Q2048.24 147.53 2045.91 145.423 Q2043.57 143.317 2039.56 143.317 Q2037.69 143.317 2035.81 143.733 Q2033.96 144.15 2032.02 145.03 L2032.02 127.669 Z" fill="#000000" fill-rule="nonzero" fill-opacity="1" /><path clip-path="url(#clip890)" d="M2062.18 127.669 L2080.54 127.669 L2080.54 131.604 L2066.46 131.604 L2066.46 140.076 Q2067.48 139.729 2068.5 139.567 Q2069.52 139.382 2070.54 139.382 Q2076.32 139.382 2079.7 142.553 Q2083.08 145.724 2083.08 151.141 Q2083.08 156.719 2079.61 159.821 Q2076.14 162.9 2069.82 162.9 Q2067.64 162.9 2065.37 162.53 Q2063.13 162.159 2060.72 161.418 L2060.72 156.719 Q2062.8 157.854 2065.03 158.409 Q2067.25 158.965 2069.73 158.965 Q2073.73 158.965 2076.07 156.858 Q2078.41 154.752 2078.41 151.141 Q2078.41 147.53 2076.07 145.423 Q2073.73 143.317 2069.73 143.317 Q2067.85 143.317 2065.98 143.733 Q2064.12 144.15 2062.18 145.03 L2062.18 127.669 Z" fill="#000000" fill-rule="nonzero" fill-opacity="1" /><path clip-path="url(#clip890)" d="M2105.14 131.743 L2093.34 150.192 L2105.14 150.192 L2105.14 131.743 M2103.92 127.669 L2109.8 127.669 L2109.8 150.192 L2114.73 150.192 L2114.73 154.081 L2109.8 154.081 L2109.8 162.229 L2105.14 162.229 L2105.14 154.081 L2089.54 154.081 L2089.54 149.567 L2103.92 127.669 Z" fill="#000000" fill-rule="nonzero" fill-opacity="1" /><path clip-path="url(#clip890)" d="M2135.3 131.743 L2123.5 150.192 L2135.3 150.192 L2135.3 131.743 M2134.08 127.669 L2139.96 127.669 L2139.96 150.192 L2144.89 150.192 L2144.89 154.081 L2139.96 154.081 L2139.96 162.229 L2135.3 162.229 L2135.3 154.081 L2119.7 154.081 L2119.7 149.567 L2134.08 127.669 Z" fill="#000000" fill-rule="nonzero" fill-opacity="1" /><path clip-path="url(#clip890)" d="M2166.79 143.594 Q2170.14 144.312 2172.02 146.581 Q2173.92 148.849 2173.92 152.182 Q2173.92 157.298 2170.4 160.099 Q2166.88 162.9 2160.4 162.9 Q2158.22 162.9 2155.91 162.46 Q2153.61 162.043 2151.16 161.187 L2151.16 156.673 Q2153.11 157.807 2155.42 158.386 Q2157.73 158.965 2160.26 158.965 Q2164.66 158.965 2166.95 157.229 Q2169.26 155.493 2169.26 152.182 Q2169.26 149.127 2167.11 147.414 Q2164.98 145.678 2161.16 145.678 L2157.13 145.678 L2157.13 141.835 L2161.35 141.835 Q2164.79 141.835 2166.62 140.469 Q2168.45 139.081 2168.45 136.488 Q2168.45 133.826 2166.55 132.414 Q2164.68 130.979 2161.16 130.979 Q2159.24 130.979 2157.04 131.395 Q2154.84 131.812 2152.2 132.692 L2152.2 128.525 Q2154.86 127.784 2157.18 127.414 Q2159.52 127.044 2161.58 127.044 Q2166.9 127.044 2170 129.474 Q2173.11 131.882 2173.11 136.002 Q2173.11 138.872 2171.46 140.863 Q2169.82 142.831 2166.79 143.594 Z" fill="#000000" fill-rule="nonzero" fill-opacity="1" /><path clip-path="url(#clip890)" d="M2186.81 158.293 L2203.13 158.293 L2203.13 162.229 L2181.18 162.229 L2181.18 158.293 Q2183.85 155.539 2188.43 150.909 Q2193.04 146.256 2194.22 144.914 Q2196.46 142.391 2197.34 140.655 Q2198.24 138.895 2198.24 137.206 Q2198.24 134.451 2196.3 132.715 Q2194.38 130.979 2191.28 130.979 Q2189.08 130.979 2186.62 131.743 Q2184.19 132.507 2181.42 134.057 L2181.42 129.335 Q2184.24 128.201 2186.69 127.622 Q2189.15 127.044 2191.18 127.044 Q2196.55 127.044 2199.75 129.729 Q2202.94 132.414 2202.94 136.905 Q2202.94 139.034 2202.13 140.956 Q2201.35 142.854 2199.24 145.446 Q2198.66 146.118 2195.56 149.335 Q2192.46 152.53 2186.81 158.293 Z" fill="#000000" fill-rule="nonzero" fill-opacity="1" /><path clip-path="url(#clip890)" d="M2211.67 126.257 L2215.37 126.257 Q2218.85 131.72 2220.56 136.951 Q2222.29 142.182 2222.29 147.344 Q2222.29 152.53 2220.56 157.784 Q2218.85 163.039 2215.37 168.479 L2211.67 168.479 Q2214.75 163.178 2216.25 157.946 Q2217.78 152.692 2217.78 147.344 Q2217.78 141.997 2216.25 136.789 Q2214.75 131.581 2211.67 126.257 Z" fill="#000000" fill-rule="nonzero" fill-opacity="1" /><polyline clip-path="url(#clip890)" style="stroke:#e26f46; stroke-linecap:round; stroke-linejoin:round; stroke-width:4; stroke-opacity:1; fill:none" points="1605.01,196.789 1748.94,196.789 "/>
<path clip-path="url(#clip890)" d="M1793.27 193.12 Q1794.87 190.249 1797.09 188.884 Q1799.31 187.518 1802.32 187.518 Q1806.37 187.518 1808.57 190.365 Q1810.77 193.189 1810.77 198.421 L1810.77 214.069 L1806.49 214.069 L1806.49 198.559 Q1806.49 194.833 1805.17 193.027 Q1803.85 191.222 1801.14 191.222 Q1797.83 191.222 1795.91 193.421 Q1793.99 195.62 1793.99 199.416 L1793.99 214.069 L1789.7 214.069 L1789.7 198.559 Q1789.7 194.809 1788.38 193.027 Q1787.07 191.222 1784.31 191.222 Q1781.05 191.222 1779.13 193.444 Q1777.2 195.643 1777.2 199.416 L1777.2 214.069 L1772.92 214.069 L1772.92 188.143 L1777.2 188.143 L1777.2 192.171 Q1778.66 189.786 1780.7 188.652 Q1782.74 187.518 1785.54 187.518 Q1788.36 187.518 1790.33 188.953 Q1792.32 190.388 1793.27 193.12 Z" fill="#000000" fill-rule="nonzero" fill-opacity="1" /><path clip-path="url(#clip890)" d="M1831.05 201.036 Q1825.88 201.036 1823.89 202.217 Q1821.9 203.397 1821.9 206.245 Q1821.9 208.513 1823.38 209.856 Q1824.89 211.175 1827.46 211.175 Q1831 211.175 1833.13 208.675 Q1835.28 206.152 1835.28 201.985 L1835.28 201.036 L1831.05 201.036 M1839.54 199.277 L1839.54 214.069 L1835.28 214.069 L1835.28 210.133 Q1833.82 212.495 1831.65 213.629 Q1829.47 214.74 1826.32 214.74 Q1822.34 214.74 1819.98 212.518 Q1817.64 210.272 1817.64 206.522 Q1817.64 202.147 1820.56 199.925 Q1823.5 197.703 1829.31 197.703 L1835.28 197.703 L1835.28 197.286 Q1835.28 194.347 1833.34 192.749 Q1831.42 191.129 1827.92 191.129 Q1825.7 191.129 1823.59 191.661 Q1821.49 192.194 1819.54 193.259 L1819.54 189.323 Q1821.88 188.421 1824.08 187.981 Q1826.28 187.518 1828.36 187.518 Q1833.99 187.518 1836.76 190.434 Q1839.54 193.351 1839.54 199.277 Z" fill="#000000" fill-rule="nonzero" fill-opacity="1" /><path clip-path="url(#clip890)" d="M1864.84 188.907 L1864.84 192.934 Q1863.04 192.009 1861.09 191.546 Q1859.15 191.083 1857.07 191.083 Q1853.89 191.083 1852.3 192.055 Q1850.72 193.027 1850.72 194.971 Q1850.72 196.453 1851.86 197.309 Q1852.99 198.143 1856.42 198.907 L1857.88 199.231 Q1862.41 200.203 1864.31 201.985 Q1866.23 203.745 1866.23 206.916 Q1866.23 210.527 1863.36 212.633 Q1860.51 214.74 1855.51 214.74 Q1853.43 214.74 1851.16 214.323 Q1848.92 213.93 1846.42 213.12 L1846.42 208.721 Q1848.78 209.948 1851.07 210.573 Q1853.36 211.175 1855.61 211.175 Q1858.62 211.175 1860.24 210.157 Q1861.86 209.115 1861.86 207.24 Q1861.86 205.504 1860.68 204.578 Q1859.52 203.652 1855.56 202.796 L1854.08 202.448 Q1850.12 201.615 1848.36 199.902 Q1846.6 198.166 1846.6 195.157 Q1846.6 191.499 1849.19 189.509 Q1851.79 187.518 1856.56 187.518 Q1858.92 187.518 1861 187.865 Q1863.08 188.212 1864.84 188.907 Z" fill="#000000" fill-rule="nonzero" fill-opacity="1" /><path clip-path="url(#clip890)" d="M1889.54 188.907 L1889.54 192.934 Q1887.74 192.009 1885.79 191.546 Q1883.85 191.083 1881.76 191.083 Q1878.59 191.083 1877 192.055 Q1875.42 193.027 1875.42 194.971 Q1875.42 196.453 1876.56 197.309 Q1877.69 198.143 1881.12 198.907 L1882.57 199.231 Q1887.11 200.203 1889.01 201.985 Q1890.93 203.745 1890.93 206.916 Q1890.93 210.527 1888.06 212.633 Q1885.21 214.74 1880.21 214.74 Q1878.13 214.74 1875.86 214.323 Q1873.62 213.93 1871.12 213.12 L1871.12 208.721 Q1873.48 209.948 1875.77 210.573 Q1878.06 211.175 1880.31 211.175 Q1883.31 211.175 1884.94 210.157 Q1886.56 209.115 1886.56 207.24 Q1886.56 205.504 1885.38 204.578 Q1884.22 203.652 1880.26 202.796 L1878.78 202.448 Q1874.82 201.615 1873.06 199.902 Q1871.3 198.166 1871.3 195.157 Q1871.3 191.499 1873.89 189.509 Q1876.49 187.518 1881.25 187.518 Q1883.62 187.518 1885.7 187.865 Q1887.78 188.212 1889.54 188.907 Z" fill="#000000" fill-rule="nonzero" fill-opacity="1" /><path clip-path="url(#clip890)" d="M1898.31 208.189 L1903.2 208.189 L1903.2 214.069 L1898.31 214.069 L1898.31 208.189 Z" fill="#000000" fill-rule="nonzero" fill-opacity="1" /><path clip-path="url(#clip890)" d="M1909.73 188.143 L1914.24 188.143 L1922.34 209.902 L1930.44 188.143 L1934.96 188.143 L1925.24 214.069 L1919.45 214.069 L1909.73 188.143 Z" fill="#000000" fill-rule="nonzero" fill-opacity="1" /><path clip-path="url(#clip890)" d="M1966.14 178.097 Q1963.04 183.421 1961.53 188.629 Q1960.03 193.837 1960.03 199.184 Q1960.03 204.532 1961.53 209.786 Q1963.06 215.018 1966.14 220.319 L1962.43 220.319 Q1958.96 214.879 1957.23 209.624 Q1955.51 204.37 1955.51 199.184 Q1955.51 194.022 1957.23 188.791 Q1958.94 183.56 1962.43 178.097 L1966.14 178.097 Z" fill="#000000" fill-rule="nonzero" fill-opacity="1" /><path clip-path="url(#clip890)" d="M1989.17 195.434 Q1992.53 196.152 1994.4 198.421 Q1996.3 200.689 1996.3 204.022 Q1996.3 209.138 1992.78 211.939 Q1989.26 214.74 1982.78 214.74 Q1980.61 214.74 1978.29 214.3 Q1976 213.883 1973.55 213.027 L1973.55 208.513 Q1975.49 209.647 1977.81 210.226 Q1980.12 210.805 1982.64 210.805 Q1987.04 210.805 1989.33 209.069 Q1991.65 207.333 1991.65 204.022 Q1991.65 200.967 1989.49 199.254 Q1987.37 197.518 1983.55 197.518 L1979.52 197.518 L1979.52 193.675 L1983.73 193.675 Q1987.18 193.675 1989.01 192.309 Q1990.84 190.921 1990.84 188.328 Q1990.84 185.666 1988.94 184.254 Q1987.06 182.819 1983.55 182.819 Q1981.62 182.819 1979.43 183.235 Q1977.23 183.652 1974.59 184.532 L1974.59 180.365 Q1977.25 179.624 1979.56 179.254 Q1981.9 178.884 1983.96 178.884 Q1989.29 178.884 1992.39 181.314 Q1995.49 183.722 1995.49 187.842 Q1995.49 190.712 1993.85 192.703 Q1992.2 194.671 1989.17 195.434 Z" fill="#000000" fill-rule="nonzero" fill-opacity="1" /><path clip-path="url(#clip890)" d="M2019.33 195.434 Q2022.69 196.152 2024.56 198.421 Q2026.46 200.689 2026.46 204.022 Q2026.46 209.138 2022.94 211.939 Q2019.43 214.74 2012.94 214.74 Q2010.77 214.74 2008.45 214.3 Q2006.16 213.883 2003.71 213.027 L2003.71 208.513 Q2005.65 209.647 2007.97 210.226 Q2010.28 210.805 2012.81 210.805 Q2017.2 210.805 2019.49 209.069 Q2021.81 207.333 2021.81 204.022 Q2021.81 200.967 2019.66 199.254 Q2017.53 197.518 2013.71 197.518 L2009.68 197.518 L2009.68 193.675 L2013.89 193.675 Q2017.34 193.675 2019.17 192.309 Q2021 190.921 2021 188.328 Q2021 185.666 2019.1 184.254 Q2017.23 182.819 2013.71 182.819 Q2011.79 182.819 2009.59 183.235 Q2007.39 183.652 2004.75 184.532 L2004.75 180.365 Q2007.41 179.624 2009.73 179.254 Q2012.06 178.884 2014.12 178.884 Q2019.45 178.884 2022.55 181.314 Q2025.65 183.722 2025.65 187.842 Q2025.65 190.712 2024.01 192.703 Q2022.37 194.671 2019.33 195.434 Z" fill="#000000" fill-rule="nonzero" fill-opacity="1" /><path clip-path="url(#clip890)" d="M2035.37 179.509 L2053.73 179.509 L2053.73 183.444 L2039.66 183.444 L2039.66 191.916 Q2040.68 191.569 2041.69 191.407 Q2042.71 191.222 2043.73 191.222 Q2049.52 191.222 2052.9 194.393 Q2056.28 197.564 2056.28 202.981 Q2056.28 208.559 2052.8 211.661 Q2049.33 214.74 2043.01 214.74 Q2040.84 214.74 2038.57 214.37 Q2036.32 213.999 2033.92 213.258 L2033.92 208.559 Q2036 209.694 2038.22 210.249 Q2040.44 210.805 2042.92 210.805 Q2046.93 210.805 2049.26 208.698 Q2051.6 206.592 2051.6 202.981 Q2051.6 199.37 2049.26 197.263 Q2046.93 195.157 2042.92 195.157 Q2041.05 195.157 2039.17 195.573 Q2037.32 195.99 2035.37 196.87 L2035.37 179.509 Z" fill="#000000" fill-rule="nonzero" fill-opacity="1" /><path clip-path="url(#clip890)" d="M2065.54 179.509 L2083.89 179.509 L2083.89 183.444 L2069.82 183.444 L2069.82 191.916 Q2070.84 191.569 2071.86 191.407 Q2072.87 191.222 2073.89 191.222 Q2079.68 191.222 2083.06 194.393 Q2086.44 197.564 2086.44 202.981 Q2086.44 208.559 2082.97 211.661 Q2079.49 214.74 2073.18 214.74 Q2071 214.74 2068.73 214.37 Q2066.49 213.999 2064.08 213.258 L2064.08 208.559 Q2066.16 209.694 2068.38 210.249 Q2070.61 210.805 2073.08 210.805 Q2077.09 210.805 2079.43 208.698 Q2081.76 206.592 2081.76 202.981 Q2081.76 199.37 2079.43 197.263 Q2077.09 195.157 2073.08 195.157 Q2071.21 195.157 2069.33 195.573 Q2067.48 195.99 2065.54 196.87 L2065.54 179.509 Z" fill="#000000" fill-rule="nonzero" fill-opacity="1" /><path clip-path="url(#clip890)" d="M2108.5 183.583 L2096.69 202.032 L2108.5 202.032 L2108.5 183.583 M2107.27 179.509 L2113.15 179.509 L2113.15 202.032 L2118.08 202.032 L2118.08 205.921 L2113.15 205.921 L2113.15 214.069 L2108.5 214.069 L2108.5 205.921 L2092.9 205.921 L2092.9 201.407 L2107.27 179.509 Z" fill="#000000" fill-rule="nonzero" fill-opacity="1" /><path clip-path="url(#clip890)" d="M2138.66 183.583 L2126.86 202.032 L2138.66 202.032 L2138.66 183.583 M2137.43 179.509 L2143.31 179.509 L2143.31 202.032 L2148.24 202.032 L2148.24 205.921 L2143.31 205.921 L2143.31 214.069 L2138.66 214.069 L2138.66 205.921 L2123.06 205.921 L2123.06 201.407 L2137.43 179.509 Z" fill="#000000" fill-rule="nonzero" fill-opacity="1" /><path clip-path="url(#clip890)" d="M2170.14 195.434 Q2173.5 196.152 2175.37 198.421 Q2177.27 200.689 2177.27 204.022 Q2177.27 209.138 2173.75 211.939 Q2170.23 214.74 2163.75 214.74 Q2161.58 214.74 2159.26 214.3 Q2156.97 213.883 2154.52 213.027 L2154.52 208.513 Q2156.46 209.647 2158.78 210.226 Q2161.09 210.805 2163.61 210.805 Q2168.01 210.805 2170.3 209.069 Q2172.62 207.333 2172.62 204.022 Q2172.62 200.967 2170.47 199.254 Q2168.34 197.518 2164.52 197.518 L2160.49 197.518 L2160.49 193.675 L2164.7 193.675 Q2168.15 193.675 2169.98 192.309 Q2171.81 190.921 2171.81 188.328 Q2171.81 185.666 2169.91 184.254 Q2168.04 182.819 2164.52 182.819 Q2162.6 182.819 2160.4 183.235 Q2158.2 183.652 2155.56 184.532 L2155.56 180.365 Q2158.22 179.624 2160.54 179.254 Q2162.87 178.884 2164.93 178.884 Q2170.26 178.884 2173.36 181.314 Q2176.46 183.722 2176.46 187.842 Q2176.46 190.712 2174.82 192.703 Q2173.17 194.671 2170.14 195.434 Z" fill="#000000" fill-rule="nonzero" fill-opacity="1" /><path clip-path="url(#clip890)" d="M2200.3 195.434 Q2203.66 196.152 2205.54 198.421 Q2207.43 200.689 2207.43 204.022 Q2207.43 209.138 2203.92 211.939 Q2200.4 214.74 2193.92 214.74 Q2191.74 214.74 2189.42 214.3 Q2187.13 213.883 2184.68 213.027 L2184.68 208.513 Q2186.62 209.647 2188.94 210.226 Q2191.25 210.805 2193.78 210.805 Q2198.17 210.805 2200.47 209.069 Q2202.78 207.333 2202.78 204.022 Q2202.78 200.967 2200.63 199.254 Q2198.5 197.518 2194.68 197.518 L2190.65 197.518 L2190.65 193.675 L2194.86 193.675 Q2198.31 193.675 2200.14 192.309 Q2201.97 190.921 2201.97 188.328 Q2201.97 185.666 2200.07 184.254 Q2198.2 182.819 2194.68 182.819 Q2192.76 182.819 2190.56 183.235 Q2188.36 183.652 2185.72 184.532 L2185.72 180.365 Q2188.38 179.624 2190.7 179.254 Q2193.04 178.884 2195.1 178.884 Q2200.42 178.884 2203.52 181.314 Q2206.62 183.722 2206.62 187.842 Q2206.62 190.712 2204.98 192.703 Q2203.34 194.671 2200.3 195.434 Z" fill="#000000" fill-rule="nonzero" fill-opacity="1" /><path clip-path="url(#clip890)" d="M2215.03 178.097 L2218.73 178.097 Q2222.2 183.56 2223.92 188.791 Q2225.65 194.022 2225.65 199.184 Q2225.65 204.37 2223.92 209.624 Q2222.2 214.879 2218.73 220.319 L2215.03 220.319 Q2218.1 215.018 2219.61 209.786 Q2221.14 204.532 2221.14 199.184 Q2221.14 193.837 2219.61 188.629 Q2218.1 183.421 2215.03 178.097 Z" fill="#000000" fill-rule="nonzero" fill-opacity="1" /><polyline clip-path="url(#clip890)" style="stroke:#3da44d; stroke-linecap:round; stroke-linejoin:round; stroke-width:4; stroke-opacity:1; fill:none" points="1605.01,248.629 1748.94,248.629 "/>
<path clip-path="url(#clip890)" d="M1793.27 244.96 Q1794.87 242.089 1797.09 240.724 Q1799.31 239.358 1802.32 239.358 Q1806.37 239.358 1808.57 242.205 Q1810.77 245.029 1810.77 250.261 L1810.77 265.909 L1806.49 265.909 L1806.49 250.399 Q1806.49 246.673 1805.17 244.867 Q1803.85 243.062 1801.14 243.062 Q1797.83 243.062 1795.91 245.261 Q1793.99 247.46 1793.99 251.256 L1793.99 265.909 L1789.7 265.909 L1789.7 250.399 Q1789.7 246.649 1788.38 244.867 Q1787.07 243.062 1784.31 243.062 Q1781.05 243.062 1779.13 245.284 Q1777.2 247.483 1777.2 251.256 L1777.2 265.909 L1772.92 265.909 L1772.92 239.983 L1777.2 239.983 L1777.2 244.011 Q1778.66 241.626 1780.7 240.492 Q1782.74 239.358 1785.54 239.358 Q1788.36 239.358 1790.33 240.793 Q1792.32 242.228 1793.27 244.96 Z" fill="#000000" fill-rule="nonzero" fill-opacity="1" /><path clip-path="url(#clip890)" d="M1831.05 252.876 Q1825.88 252.876 1823.89 254.057 Q1821.9 255.237 1821.9 258.085 Q1821.9 260.353 1823.38 261.696 Q1824.89 263.015 1827.46 263.015 Q1831 263.015 1833.13 260.515 Q1835.28 257.992 1835.28 253.825 L1835.28 252.876 L1831.05 252.876 M1839.54 251.117 L1839.54 265.909 L1835.28 265.909 L1835.28 261.973 Q1833.82 264.335 1831.65 265.469 Q1829.47 266.58 1826.32 266.58 Q1822.34 266.58 1819.98 264.358 Q1817.64 262.112 1817.64 258.362 Q1817.64 253.987 1820.56 251.765 Q1823.5 249.543 1829.31 249.543 L1835.28 249.543 L1835.28 249.126 Q1835.28 246.187 1833.34 244.589 Q1831.42 242.969 1827.92 242.969 Q1825.7 242.969 1823.59 243.501 Q1821.49 244.034 1819.54 245.099 L1819.54 241.163 Q1821.88 240.261 1824.08 239.821 Q1826.28 239.358 1828.36 239.358 Q1833.99 239.358 1836.76 242.274 Q1839.54 245.191 1839.54 251.117 Z" fill="#000000" fill-rule="nonzero" fill-opacity="1" /><path clip-path="url(#clip890)" d="M1864.84 240.747 L1864.84 244.774 Q1863.04 243.849 1861.09 243.386 Q1859.15 242.923 1857.07 242.923 Q1853.89 242.923 1852.3 243.895 Q1850.72 244.867 1850.72 246.811 Q1850.72 248.293 1851.86 249.149 Q1852.99 249.983 1856.42 250.747 L1857.88 251.071 Q1862.41 252.043 1864.31 253.825 Q1866.23 255.585 1866.23 258.756 Q1866.23 262.367 1863.36 264.473 Q1860.51 266.58 1855.51 266.58 Q1853.43 266.58 1851.16 266.163 Q1848.92 265.77 1846.42 264.96 L1846.42 260.561 Q1848.78 261.788 1851.07 262.413 Q1853.36 263.015 1855.61 263.015 Q1858.62 263.015 1860.24 261.997 Q1861.86 260.955 1861.86 259.08 Q1861.86 257.344 1860.68 256.418 Q1859.52 255.492 1855.56 254.636 L1854.08 254.288 Q1850.12 253.455 1848.36 251.742 Q1846.6 250.006 1846.6 246.997 Q1846.6 243.339 1849.19 241.349 Q1851.79 239.358 1856.56 239.358 Q1858.92 239.358 1861 239.705 Q1863.08 240.052 1864.84 240.747 Z" fill="#000000" fill-rule="nonzero" fill-opacity="1" /><path clip-path="url(#clip890)" d="M1889.54 240.747 L1889.54 244.774 Q1887.74 243.849 1885.79 243.386 Q1883.85 242.923 1881.76 242.923 Q1878.59 242.923 1877 243.895 Q1875.42 244.867 1875.42 246.811 Q1875.42 248.293 1876.56 249.149 Q1877.69 249.983 1881.12 250.747 L1882.57 251.071 Q1887.11 252.043 1889.01 253.825 Q1890.93 255.585 1890.93 258.756 Q1890.93 262.367 1888.06 264.473 Q1885.21 266.58 1880.21 266.58 Q1878.13 266.58 1875.86 266.163 Q1873.62 265.77 1871.12 264.96 L1871.12 260.561 Q1873.48 261.788 1875.77 262.413 Q1878.06 263.015 1880.31 263.015 Q1883.31 263.015 1884.94 261.997 Q1886.56 260.955 1886.56 259.08 Q1886.56 257.344 1885.38 256.418 Q1884.22 255.492 1880.26 254.636 L1878.78 254.288 Q1874.82 253.455 1873.06 251.742 Q1871.3 250.006 1871.3 246.997 Q1871.3 243.339 1873.89 241.349 Q1876.49 239.358 1881.25 239.358 Q1883.62 239.358 1885.7 239.705 Q1887.78 240.052 1889.54 240.747 Z" fill="#000000" fill-rule="nonzero" fill-opacity="1" /><path clip-path="url(#clip890)" d="M1898.31 260.029 L1903.2 260.029 L1903.2 265.909 L1898.31 265.909 L1898.31 260.029 Z" fill="#000000" fill-rule="nonzero" fill-opacity="1" /><path clip-path="url(#clip890)" d="M1924.56 252.876 Q1919.4 252.876 1917.41 254.057 Q1915.42 255.237 1915.42 258.085 Q1915.42 260.353 1916.9 261.696 Q1918.41 263.015 1920.98 263.015 Q1924.52 263.015 1926.65 260.515 Q1928.8 257.992 1928.8 253.825 L1928.8 252.876 L1924.56 252.876 M1933.06 251.117 L1933.06 265.909 L1928.8 265.909 L1928.8 261.973 Q1927.34 264.335 1925.17 265.469 Q1922.99 266.58 1919.84 266.58 Q1915.86 266.58 1913.5 264.358 Q1911.16 262.112 1911.16 258.362 Q1911.16 253.987 1914.08 251.765 Q1917.02 249.543 1922.83 249.543 L1928.8 249.543 L1928.8 249.126 Q1928.8 246.187 1926.86 244.589 Q1924.94 242.969 1921.44 242.969 Q1919.22 242.969 1917.11 243.501 Q1915 244.034 1913.06 245.099 L1913.06 241.163 Q1915.4 240.261 1917.6 239.821 Q1919.8 239.358 1921.88 239.358 Q1927.5 239.358 1930.28 242.274 Q1933.06 245.191 1933.06 251.117 Z" fill="#000000" fill-rule="nonzero" fill-opacity="1" /><path clip-path="url(#clip890)" d="M1967.13 229.937 Q1964.03 235.261 1962.53 240.469 Q1961.02 245.677 1961.02 251.024 Q1961.02 256.372 1962.53 261.626 Q1964.06 266.858 1967.13 272.159 L1963.43 272.159 Q1959.96 266.719 1958.22 261.464 Q1956.51 256.21 1956.51 251.024 Q1956.51 245.862 1958.22 240.631 Q1959.93 235.4 1963.43 229.937 L1967.13 229.937 Z" fill="#000000" fill-rule="nonzero" fill-opacity="1" /><path clip-path="url(#clip890)" d="M1976.05 231.349 L1994.4 231.349 L1994.4 235.284 L1980.33 235.284 L1980.33 243.756 Q1981.35 243.409 1982.37 243.247 Q1983.38 243.062 1984.4 243.062 Q1990.19 243.062 1993.57 246.233 Q1996.95 249.404 1996.95 254.821 Q1996.95 260.399 1993.48 263.501 Q1990 266.58 1983.68 266.58 Q1981.51 266.58 1979.24 266.21 Q1977 265.839 1974.59 265.098 L1974.59 260.399 Q1976.67 261.534 1978.89 262.089 Q1981.12 262.645 1983.59 262.645 Q1987.6 262.645 1989.93 260.538 Q1992.27 258.432 1992.27 254.821 Q1992.27 251.21 1989.93 249.103 Q1987.6 246.997 1983.59 246.997 Q1981.72 246.997 1979.84 247.413 Q1977.99 247.83 1976.05 248.71 L1976.05 231.349 Z" fill="#000000" fill-rule="nonzero" fill-opacity="1" /><path clip-path="url(#clip890)" d="M2016.16 249.497 Q2012.83 249.497 2010.91 251.279 Q2009.01 253.061 2009.01 256.186 Q2009.01 259.311 2010.91 261.094 Q2012.83 262.876 2016.16 262.876 Q2019.49 262.876 2021.42 261.094 Q2023.34 259.288 2023.34 256.186 Q2023.34 253.061 2021.42 251.279 Q2019.52 249.497 2016.16 249.497 M2011.49 247.506 Q2008.48 246.765 2006.79 244.705 Q2005.12 242.645 2005.12 239.682 Q2005.12 235.538 2008.06 233.131 Q2011.02 230.724 2016.16 230.724 Q2021.32 230.724 2024.26 233.131 Q2027.2 235.538 2027.2 239.682 Q2027.2 242.645 2025.51 244.705 Q2023.85 246.765 2020.86 247.506 Q2024.24 248.293 2026.12 250.585 Q2028.01 252.876 2028.01 256.186 Q2028.01 261.21 2024.93 263.895 Q2021.88 266.58 2016.16 266.58 Q2010.44 266.58 2007.37 263.895 Q2004.31 261.21 2004.31 256.186 Q2004.31 252.876 2006.21 250.585 Q2008.11 248.293 2011.49 247.506 M2009.77 240.122 Q2009.77 242.807 2011.44 244.312 Q2013.13 245.816 2016.16 245.816 Q2019.17 245.816 2020.86 244.312 Q2022.57 242.807 2022.57 240.122 Q2022.57 237.437 2020.86 235.932 Q2019.17 234.427 2016.16 234.427 Q2013.13 234.427 2011.44 235.932 Q2009.77 237.437 2009.77 240.122 Z" fill="#000000" fill-rule="nonzero" fill-opacity="1" /><path clip-path="url(#clip890)" d="M2035.14 231.349 L2057.36 231.349 L2057.36 233.339 L2044.82 265.909 L2039.93 265.909 L2051.74 235.284 L2035.14 235.284 L2035.14 231.349 Z" fill="#000000" fill-rule="nonzero" fill-opacity="1" /><path clip-path="url(#clip890)" d="M2070.51 261.973 L2086.83 261.973 L2086.83 265.909 L2064.89 265.909 L2064.89 261.973 Q2067.55 259.219 2072.13 254.589 Q2076.74 249.936 2077.92 248.594 Q2080.17 246.071 2081.05 244.335 Q2081.95 242.575 2081.95 240.886 Q2081.95 238.131 2080 236.395 Q2078.08 234.659 2074.98 234.659 Q2072.78 234.659 2070.33 235.423 Q2067.9 236.187 2065.12 237.737 L2065.12 233.015 Q2067.94 231.881 2070.4 231.302 Q2072.85 230.724 2074.89 230.724 Q2080.26 230.724 2083.45 233.409 Q2086.65 236.094 2086.65 240.585 Q2086.65 242.714 2085.84 244.636 Q2085.05 246.534 2082.94 249.126 Q2082.36 249.798 2079.26 253.015 Q2076.16 256.21 2070.51 261.973 Z" fill="#000000" fill-rule="nonzero" fill-opacity="1" /><path clip-path="url(#clip890)" d="M2106.65 234.427 Q2103.04 234.427 2101.21 237.992 Q2099.4 241.534 2099.4 248.663 Q2099.4 255.77 2101.21 259.335 Q2103.04 262.876 2106.65 262.876 Q2110.28 262.876 2112.09 259.335 Q2113.92 255.77 2113.92 248.663 Q2113.92 241.534 2112.09 237.992 Q2110.28 234.427 2106.65 234.427 M2106.65 230.724 Q2112.46 230.724 2115.51 235.33 Q2118.59 239.913 2118.59 248.663 Q2118.59 257.39 2115.51 261.997 Q2112.46 266.58 2106.65 266.58 Q2100.84 266.58 2097.76 261.997 Q2094.7 257.39 2094.7 248.663 Q2094.7 239.913 2097.76 235.33 Q2100.84 230.724 2106.65 230.724 Z" fill="#000000" fill-rule="nonzero" fill-opacity="1" /><path clip-path="url(#clip890)" d="M2130.84 261.973 L2147.16 261.973 L2147.16 265.909 L2125.21 265.909 L2125.21 261.973 Q2127.87 259.219 2132.46 254.589 Q2137.06 249.936 2138.24 248.594 Q2140.49 246.071 2141.37 244.335 Q2142.27 242.575 2142.27 240.886 Q2142.27 238.131 2140.33 236.395 Q2138.41 234.659 2135.3 234.659 Q2133.11 234.659 2130.65 235.423 Q2128.22 236.187 2125.44 237.737 L2125.44 233.015 Q2128.27 231.881 2130.72 231.302 Q2133.17 230.724 2135.21 230.724 Q2140.58 230.724 2143.78 233.409 Q2146.97 236.094 2146.97 240.585 Q2146.97 242.714 2146.16 244.636 Q2145.37 246.534 2143.27 249.126 Q2142.69 249.798 2139.59 253.015 Q2136.48 256.21 2130.84 261.973 Z" fill="#000000" fill-rule="nonzero" fill-opacity="1" /><path clip-path="url(#clip890)" d="M2157.02 231.349 L2175.37 231.349 L2175.37 235.284 L2161.3 235.284 L2161.3 243.756 Q2162.32 243.409 2163.34 243.247 Q2164.36 243.062 2165.37 243.062 Q2171.16 243.062 2174.54 246.233 Q2177.92 249.404 2177.92 254.821 Q2177.92 260.399 2174.45 263.501 Q2170.98 266.58 2164.66 266.58 Q2162.48 266.58 2160.21 266.21 Q2157.97 265.839 2155.56 265.098 L2155.56 260.399 Q2157.64 261.534 2159.86 262.089 Q2162.09 262.645 2164.56 262.645 Q2168.57 262.645 2170.91 260.538 Q2173.24 258.432 2173.24 254.821 Q2173.24 251.21 2170.91 249.103 Q2168.57 246.997 2164.56 246.997 Q2162.69 246.997 2160.81 247.413 Q2158.96 247.83 2157.02 248.71 L2157.02 231.349 Z" fill="#000000" fill-rule="nonzero" fill-opacity="1" /><path clip-path="url(#clip890)" d="M2197.71 246.765 Q2194.56 246.765 2192.71 248.918 Q2190.88 251.071 2190.88 254.821 Q2190.88 258.548 2192.71 260.723 Q2194.56 262.876 2197.71 262.876 Q2200.86 262.876 2202.69 260.723 Q2204.54 258.548 2204.54 254.821 Q2204.54 251.071 2202.69 248.918 Q2200.86 246.765 2197.71 246.765 M2206.99 232.113 L2206.99 236.372 Q2205.23 235.538 2203.43 235.099 Q2201.65 234.659 2199.89 234.659 Q2195.26 234.659 2192.8 237.784 Q2190.37 240.909 2190.03 247.228 Q2191.39 245.214 2193.45 244.149 Q2195.51 243.062 2197.99 243.062 Q2203.2 243.062 2206.21 246.233 Q2209.24 249.381 2209.24 254.821 Q2209.24 260.145 2206.09 263.362 Q2202.94 266.58 2197.71 266.58 Q2191.72 266.58 2188.54 261.997 Q2185.37 257.39 2185.37 248.663 Q2185.37 240.469 2189.26 235.608 Q2193.15 230.724 2199.7 230.724 Q2201.46 230.724 2203.24 231.071 Q2205.05 231.418 2206.99 232.113 Z" fill="#000000" fill-rule="nonzero" fill-opacity="1" /><path clip-path="url(#clip890)" d="M2218.1 261.973 L2225.74 261.973 L2225.74 235.608 L2217.43 237.275 L2217.43 233.015 L2225.7 231.349 L2230.37 231.349 L2230.37 261.973 L2238.01 261.973 L2238.01 265.909 L2218.1 265.909 L2218.1 261.973 Z" fill="#000000" fill-rule="nonzero" fill-opacity="1" /><path clip-path="url(#clip890)" d="M2246.18 229.937 L2249.89 229.937 Q2253.36 235.4 2255.07 240.631 Q2256.81 245.862 2256.81 251.024 Q2256.81 256.21 2255.07 261.464 Q2253.36 266.719 2249.89 272.159 L2246.18 272.159 Q2249.26 266.858 2250.77 261.626 Q2252.29 256.372 2252.29 251.024 Q2252.29 245.677 2250.77 240.469 Q2249.26 235.261 2246.18 229.937 Z" fill="#000000" fill-rule="nonzero" fill-opacity="1" /></svg>
