<?xml version="1.0" encoding="utf-8"?>
<svg xmlns="http://www.w3.org/2000/svg" xmlns:xlink="http://www.w3.org/1999/xlink" width="600" height="400" viewBox="0 0 2400 1600">
<defs>
  <clipPath id="clip160">
    <rect x="0" y="0" width="2400" height="1600"/>
  </clipPath>
</defs>
<path clip-path="url(#clip160)" d="M0 1600 L2400 1600 L2400 0 L0 0  Z" fill="#ffffff" fill-rule="evenodd" fill-opacity="1"/>
<defs>
  <clipPath id="clip161">
    <rect x="480" y="0" width="1681" height="1600"/>
  </clipPath>
</defs>
<path clip-path="url(#clip160)" d="M257.204 1423.18 L2352.76 1423.18 L2352.76 47.2441 L257.204 47.2441  Z" fill="#ffffff" fill-rule="evenodd" fill-opacity="1"/>
<defs>
  <clipPath id="clip162">
    <rect x="257" y="47" width="2097" height="1377"/>
  </clipPath>
</defs>
<polyline clip-path="url(#clip162)" style="stroke:#000000; stroke-linecap:round; stroke-linejoin:round; stroke-width:2; stroke-opacity:0.1; fill:none" points="316.512,1423.18 316.512,47.2441 "/>
<polyline clip-path="url(#clip162)" style="stroke:#000000; stroke-linecap:round; stroke-linejoin:round; stroke-width:2; stroke-opacity:0.1; fill:none" points="711.899,1423.18 711.899,47.2441 "/>
<polyline clip-path="url(#clip162)" style="stroke:#000000; stroke-linecap:round; stroke-linejoin:round; stroke-width:2; stroke-opacity:0.1; fill:none" points="1107.29,1423.18 1107.29,47.2441 "/>
<polyline clip-path="url(#clip162)" style="stroke:#000000; stroke-linecap:round; stroke-linejoin:round; stroke-width:2; stroke-opacity:0.1; fill:none" points="1502.67,1423.18 1502.67,47.2441 "/>
<polyline clip-path="url(#clip162)" style="stroke:#000000; stroke-linecap:round; stroke-linejoin:round; stroke-width:2; stroke-opacity:0.1; fill:none" points="1898.06,1423.18 1898.06,47.2441 "/>
<polyline clip-path="url(#clip162)" style="stroke:#000000; stroke-linecap:round; stroke-linejoin:round; stroke-width:2; stroke-opacity:0.1; fill:none" points="2293.45,1423.18 2293.45,47.2441 "/>
<polyline clip-path="url(#clip162)" style="stroke:#000000; stroke-linecap:round; stroke-linejoin:round; stroke-width:2; stroke-opacity:0.1; fill:none" points="257.204,1274.78 2352.76,1274.78 "/>
<polyline clip-path="url(#clip162)" style="stroke:#000000; stroke-linecap:round; stroke-linejoin:round; stroke-width:2; stroke-opacity:0.1; fill:none" points="257.204,1004.94 2352.76,1004.94 "/>
<polyline clip-path="url(#clip162)" style="stroke:#000000; stroke-linecap:round; stroke-linejoin:round; stroke-width:2; stroke-opacity:0.1; fill:none" points="257.204,735.102 2352.76,735.102 "/>
<polyline clip-path="url(#clip162)" style="stroke:#000000; stroke-linecap:round; stroke-linejoin:round; stroke-width:2; stroke-opacity:0.1; fill:none" points="257.204,465.265 2352.76,465.265 "/>
<polyline clip-path="url(#clip162)" style="stroke:#000000; stroke-linecap:round; stroke-linejoin:round; stroke-width:2; stroke-opacity:0.1; fill:none" points="257.204,195.428 2352.76,195.428 "/>
<polyline clip-path="url(#clip160)" style="stroke:#000000; stroke-linecap:round; stroke-linejoin:round; stroke-width:4; stroke-opacity:1; fill:none" points="257.204,1423.18 2352.76,1423.18 "/>
<polyline clip-path="url(#clip160)" style="stroke:#000000; stroke-linecap:round; stroke-linejoin:round; stroke-width:4; stroke-opacity:1; fill:none" points="316.512,1423.18 316.512,1404.28 "/>
<polyline clip-path="url(#clip160)" style="stroke:#000000; stroke-linecap:round; stroke-linejoin:round; stroke-width:4; stroke-opacity:1; fill:none" points="711.899,1423.18 711.899,1404.28 "/>
<polyline clip-path="url(#clip160)" style="stroke:#000000; stroke-linecap:round; stroke-linejoin:round; stroke-width:4; stroke-opacity:1; fill:none" points="1107.29,1423.18 1107.29,1404.28 "/>
<polyline clip-path="url(#clip160)" style="stroke:#000000; stroke-linecap:round; stroke-linejoin:round; stroke-width:4; stroke-opacity:1; fill:none" points="1502.67,1423.18 1502.67,1404.28 "/>
<polyline clip-path="url(#clip160)" style="stroke:#000000; stroke-linecap:round; stroke-linejoin:round; stroke-width:4; stroke-opacity:1; fill:none" points="1898.06,1423.18 1898.06,1404.28 "/>
<polyline clip-path="url(#clip160)" style="stroke:#000000; stroke-linecap:round; stroke-linejoin:round; stroke-width:4; stroke-opacity:1; fill:none" points="2293.45,1423.18 2293.45,1404.28 "/>
<path clip-path="url(#clip160)" d="M316.512 1454.1 Q312.901 1454.1 311.072 1457.66 Q309.267 1461.2 309.267 1468.33 Q309.267 1475.44 311.072 1479.01 Q312.901 1482.55 316.512 1482.55 Q320.146 1482.55 321.952 1479.01 Q323.781 1475.44 323.781 1468.33 Q323.781 1461.2 321.952 1457.66 Q320.146 1454.1 316.512 1454.1 M316.512 1450.39 Q322.322 1450.39 325.378 1455 Q328.456 1459.58 328.456 1468.33 Q328.456 1477.06 325.378 1481.67 Q322.322 1486.25 316.512 1486.25 Q310.702 1486.25 307.623 1481.67 Q304.568 1477.06 304.568 1468.33 Q304.568 1459.58 307.623 1455 Q310.702 1450.39 316.512 1450.39 Z" fill="#000000" fill-rule="nonzero" fill-opacity="1" /><path clip-path="url(#clip160)" d="M702.281 1481.64 L709.92 1481.64 L709.92 1455.28 L701.61 1456.95 L701.61 1452.69 L709.874 1451.02 L714.55 1451.02 L714.55 1481.64 L722.189 1481.64 L722.189 1485.58 L702.281 1485.58 L702.281 1481.64 Z" fill="#000000" fill-rule="nonzero" fill-opacity="1" /><path clip-path="url(#clip160)" d="M1101.94 1481.64 L1118.26 1481.64 L1118.26 1485.58 L1096.31 1485.58 L1096.31 1481.64 Q1098.98 1478.89 1103.56 1474.26 Q1108.17 1469.61 1109.35 1468.27 Q1111.59 1465.74 1112.47 1464.01 Q1113.37 1462.25 1113.37 1460.56 Q1113.37 1457.8 1111.43 1456.07 Q1109.51 1454.33 1106.41 1454.33 Q1104.21 1454.33 1101.75 1455.09 Q1099.32 1455.86 1096.55 1457.41 L1096.55 1452.69 Q1099.37 1451.55 1101.82 1450.97 Q1104.28 1450.39 1106.31 1450.39 Q1111.68 1450.39 1114.88 1453.08 Q1118.07 1455.77 1118.07 1460.26 Q1118.07 1462.39 1117.26 1464.31 Q1116.48 1466.2 1114.37 1468.8 Q1113.79 1469.47 1110.69 1472.69 Q1107.59 1475.88 1101.94 1481.64 Z" fill="#000000" fill-rule="nonzero" fill-opacity="1" /><path clip-path="url(#clip160)" d="M1506.92 1466.95 Q1510.28 1467.66 1512.15 1469.93 Q1514.05 1472.2 1514.05 1475.53 Q1514.05 1480.65 1510.53 1483.45 Q1507.01 1486.25 1500.53 1486.25 Q1498.36 1486.25 1496.04 1485.81 Q1493.75 1485.39 1491.3 1484.54 L1491.3 1480.02 Q1493.24 1481.16 1495.56 1481.74 Q1497.87 1482.32 1500.39 1482.32 Q1504.79 1482.32 1507.08 1480.58 Q1509.4 1478.84 1509.4 1475.53 Q1509.4 1472.48 1507.25 1470.77 Q1505.12 1469.03 1501.3 1469.03 L1497.27 1469.03 L1497.27 1465.19 L1501.48 1465.19 Q1504.93 1465.19 1506.76 1463.82 Q1508.59 1462.43 1508.59 1459.84 Q1508.59 1457.18 1506.69 1455.77 Q1504.81 1454.33 1501.3 1454.33 Q1499.37 1454.33 1497.18 1454.75 Q1494.98 1455.16 1492.34 1456.04 L1492.34 1451.88 Q1495 1451.14 1497.31 1450.77 Q1499.65 1450.39 1501.71 1450.39 Q1507.04 1450.39 1510.14 1452.83 Q1513.24 1455.23 1513.24 1459.35 Q1513.24 1462.22 1511.6 1464.21 Q1509.95 1466.18 1506.92 1466.95 Z" fill="#000000" fill-rule="nonzero" fill-opacity="1" /><path clip-path="url(#clip160)" d="M1901.07 1455.09 L1889.26 1473.54 L1901.07 1473.54 L1901.07 1455.09 M1899.84 1451.02 L1905.72 1451.02 L1905.72 1473.54 L1910.65 1473.54 L1910.65 1477.43 L1905.72 1477.43 L1905.72 1485.58 L1901.07 1485.58 L1901.07 1477.43 L1885.47 1477.43 L1885.47 1472.92 L1899.84 1451.02 Z" fill="#000000" fill-rule="nonzero" fill-opacity="1" /><path clip-path="url(#clip160)" d="M2283.73 1451.02 L2302.08 1451.02 L2302.08 1454.96 L2288.01 1454.96 L2288.01 1463.43 Q2289.03 1463.08 2290.05 1462.92 Q2291.06 1462.73 2292.08 1462.73 Q2297.87 1462.73 2301.25 1465.9 Q2304.63 1469.08 2304.63 1474.49 Q2304.63 1480.07 2301.16 1483.17 Q2297.68 1486.25 2291.36 1486.25 Q2289.19 1486.25 2286.92 1485.88 Q2284.67 1485.51 2282.27 1484.77 L2282.27 1480.07 Q2284.35 1481.2 2286.57 1481.76 Q2288.8 1482.32 2291.27 1482.32 Q2295.28 1482.32 2297.61 1480.21 Q2299.95 1478.1 2299.95 1474.49 Q2299.95 1470.88 2297.61 1468.77 Q2295.28 1466.67 2291.27 1466.67 Q2289.4 1466.67 2287.52 1467.08 Q2285.67 1467.5 2283.73 1468.38 L2283.73 1451.02 Z" fill="#000000" fill-rule="nonzero" fill-opacity="1" /><path clip-path="url(#clip160)" d="M1253.29 1522.27 L1253.29 1532.4 L1265.35 1532.4 L1265.35 1536.95 L1253.29 1536.95 L1253.29 1556.3 Q1253.29 1560.66 1254.47 1561.9 Q1255.68 1563.14 1259.34 1563.14 L1265.35 1563.14 L1265.35 1568.04 L1259.34 1568.04 Q1252.56 1568.04 1249.98 1565.53 Q1247.4 1562.98 1247.4 1556.3 L1247.4 1536.95 L1243.11 1536.95 L1243.11 1532.4 L1247.4 1532.4 L1247.4 1522.27 L1253.29 1522.27 Z" fill="#000000" fill-rule="nonzero" fill-opacity="1" /><path clip-path="url(#clip160)" d="M1293.24 1518.52 L1306.73 1518.52 L1306.73 1523.07 L1299.09 1523.07 L1299.09 1572.09 L1306.73 1572.09 L1306.73 1576.64 L1293.24 1576.64 L1293.24 1518.52 Z" fill="#000000" fill-rule="nonzero" fill-opacity="1" /><path clip-path="url(#clip160)" d="M1341.93 1533.45 L1341.93 1538.98 Q1339.45 1537.71 1336.78 1537.07 Q1334.1 1536.44 1331.24 1536.44 Q1326.88 1536.44 1324.68 1537.77 Q1322.52 1539.11 1322.52 1541.79 Q1322.52 1543.82 1324.08 1545 Q1325.64 1546.15 1330.35 1547.2 L1332.35 1547.64 Q1338.59 1548.98 1341.2 1551.43 Q1343.84 1553.85 1343.84 1558.21 Q1343.84 1563.17 1339.9 1566.07 Q1335.98 1568.97 1329.11 1568.97 Q1326.24 1568.97 1323.12 1568.39 Q1320.03 1567.85 1316.6 1566.74 L1316.6 1560.69 Q1319.84 1562.38 1322.99 1563.24 Q1326.15 1564.07 1329.23 1564.07 Q1333.37 1564.07 1335.6 1562.66 Q1337.83 1561.23 1337.83 1558.65 Q1337.83 1556.27 1336.2 1554.99 Q1334.61 1553.72 1329.17 1552.54 L1327.13 1552.07 Q1321.69 1550.92 1319.27 1548.56 Q1316.85 1546.18 1316.85 1542.04 Q1316.85 1537.01 1320.42 1534.27 Q1323.98 1531.54 1330.54 1531.54 Q1333.78 1531.54 1336.65 1532.01 Q1339.51 1532.49 1341.93 1533.45 Z" fill="#000000" fill-rule="nonzero" fill-opacity="1" /><path clip-path="url(#clip160)" d="M1366.85 1518.52 L1366.85 1576.64 L1353.36 1576.64 L1353.36 1572.09 L1360.97 1572.09 L1360.97 1523.07 L1353.36 1523.07 L1353.36 1518.52 L1366.85 1518.52 Z" fill="#000000" fill-rule="nonzero" fill-opacity="1" /><polyline clip-path="url(#clip160)" style="stroke:#000000; stroke-linecap:round; stroke-linejoin:round; stroke-width:4; stroke-opacity:1; fill:none" points="257.204,1423.18 257.204,47.2441 "/>
<polyline clip-path="url(#clip160)" style="stroke:#000000; stroke-linecap:round; stroke-linejoin:round; stroke-width:4; stroke-opacity:1; fill:none" points="257.204,1274.78 276.102,1274.78 "/>
<polyline clip-path="url(#clip160)" style="stroke:#000000; stroke-linecap:round; stroke-linejoin:round; stroke-width:4; stroke-opacity:1; fill:none" points="257.204,1004.94 276.102,1004.94 "/>
<polyline clip-path="url(#clip160)" style="stroke:#000000; stroke-linecap:round; stroke-linejoin:round; stroke-width:4; stroke-opacity:1; fill:none" points="257.204,735.102 276.102,735.102 "/>
<polyline clip-path="url(#clip160)" style="stroke:#000000; stroke-linecap:round; stroke-linejoin:round; stroke-width:4; stroke-opacity:1; fill:none" points="257.204,465.265 276.102,465.265 "/>
<polyline clip-path="url(#clip160)" style="stroke:#000000; stroke-linecap:round; stroke-linejoin:round; stroke-width:4; stroke-opacity:1; fill:none" points="257.204,195.428 276.102,195.428 "/>
<path clip-path="url(#clip160)" d="M114.26 1275.23 L143.936 1275.23 L143.936 1279.16 L114.26 1279.16 L114.26 1275.23 Z" fill="#000000" fill-rule="nonzero" fill-opacity="1" /><path clip-path="url(#clip160)" d="M154.075 1257.5 L172.431 1257.5 L172.431 1261.43 L158.357 1261.43 L158.357 1269.9 Q159.376 1269.56 160.394 1269.39 Q161.413 1269.21 162.431 1269.21 Q168.218 1269.21 171.598 1272.38 Q174.977 1275.55 174.977 1280.97 Q174.977 1286.55 171.505 1289.65 Q168.033 1292.73 161.714 1292.73 Q159.538 1292.73 157.269 1292.36 Q155.024 1291.99 152.616 1291.25 L152.616 1286.55 Q154.7 1287.68 156.922 1288.24 Q159.144 1288.79 161.621 1288.79 Q165.626 1288.79 167.964 1286.69 Q170.302 1284.58 170.302 1280.97 Q170.302 1277.36 167.964 1275.25 Q165.626 1273.14 161.621 1273.14 Q159.746 1273.14 157.871 1273.56 Q156.019 1273.98 154.075 1274.86 L154.075 1257.5 Z" fill="#000000" fill-rule="nonzero" fill-opacity="1" /><path clip-path="url(#clip160)" d="M184.19 1286.18 L189.075 1286.18 L189.075 1292.06 L184.19 1292.06 L184.19 1286.18 Z" fill="#000000" fill-rule="nonzero" fill-opacity="1" /><path clip-path="url(#clip160)" d="M209.26 1260.57 Q205.649 1260.57 203.82 1264.14 Q202.014 1267.68 202.014 1274.81 Q202.014 1281.92 203.82 1285.48 Q205.649 1289.02 209.26 1289.02 Q212.894 1289.02 214.699 1285.48 Q216.528 1281.92 216.528 1274.81 Q216.528 1267.68 214.699 1264.14 Q212.894 1260.57 209.26 1260.57 M209.26 1256.87 Q215.07 1256.87 218.125 1261.48 Q221.204 1266.06 221.204 1274.81 Q221.204 1283.54 218.125 1288.14 Q215.07 1292.73 209.26 1292.73 Q203.449 1292.73 200.371 1288.14 Q197.315 1283.54 197.315 1274.81 Q197.315 1266.06 200.371 1261.48 Q203.449 1256.87 209.26 1256.87 Z" fill="#000000" fill-rule="nonzero" fill-opacity="1" /><path clip-path="url(#clip160)" d="M115.256 1005.39 L144.931 1005.39 L144.931 1009.33 L115.256 1009.33 L115.256 1005.39 Z" fill="#000000" fill-rule="nonzero" fill-opacity="1" /><path clip-path="url(#clip160)" d="M159.052 1018.28 L175.371 1018.28 L175.371 1022.22 L153.427 1022.22 L153.427 1018.28 Q156.089 1015.53 160.672 1010.9 Q165.278 1006.25 166.459 1004.9 Q168.704 1002.38 169.584 1000.64 Q170.487 998.886 170.487 997.196 Q170.487 994.441 168.542 992.705 Q166.621 990.969 163.519 990.969 Q161.32 990.969 158.866 991.733 Q156.436 992.497 153.658 994.048 L153.658 989.325 Q156.482 988.191 158.936 987.613 Q161.39 987.034 163.427 987.034 Q168.797 987.034 171.991 989.719 Q175.186 992.404 175.186 996.895 Q175.186 999.024 174.376 1000.95 Q173.589 1002.84 171.482 1005.44 Q170.903 1006.11 167.802 1009.33 Q164.7 1012.52 159.052 1018.28 Z" fill="#000000" fill-rule="nonzero" fill-opacity="1" /><path clip-path="url(#clip160)" d="M185.186 1016.34 L190.07 1016.34 L190.07 1022.22 L185.186 1022.22 L185.186 1016.34 Z" fill="#000000" fill-rule="nonzero" fill-opacity="1" /><path clip-path="url(#clip160)" d="M200.301 987.659 L218.658 987.659 L218.658 991.594 L204.584 991.594 L204.584 1000.07 Q205.602 999.719 206.621 999.557 Q207.639 999.372 208.658 999.372 Q214.445 999.372 217.824 1002.54 Q221.204 1005.71 221.204 1011.13 Q221.204 1016.71 217.732 1019.81 Q214.26 1022.89 207.94 1022.89 Q205.764 1022.89 203.496 1022.52 Q201.25 1022.15 198.843 1021.41 L198.843 1016.71 Q200.926 1017.84 203.149 1018.4 Q205.371 1018.95 207.848 1018.95 Q211.852 1018.95 214.19 1016.85 Q216.528 1014.74 216.528 1011.13 Q216.528 1007.52 214.19 1005.41 Q211.852 1003.31 207.848 1003.31 Q205.973 1003.31 204.098 1003.72 Q202.246 1004.14 200.301 1005.02 L200.301 987.659 Z" fill="#000000" fill-rule="nonzero" fill-opacity="1" /><path clip-path="url(#clip160)" d="M164.028 720.901 Q160.417 720.901 158.589 724.465 Q156.783 728.007 156.783 735.137 Q156.783 742.243 158.589 745.808 Q160.417 749.349 164.028 749.349 Q167.663 749.349 169.468 745.808 Q171.297 742.243 171.297 735.137 Q171.297 728.007 169.468 724.465 Q167.663 720.901 164.028 720.901 M164.028 717.197 Q169.839 717.197 172.894 721.803 Q175.973 726.387 175.973 735.137 Q175.973 743.863 172.894 748.47 Q169.839 753.053 164.028 753.053 Q158.218 753.053 155.14 748.47 Q152.084 743.863 152.084 735.137 Q152.084 726.387 155.14 721.803 Q158.218 717.197 164.028 717.197 Z" fill="#000000" fill-rule="nonzero" fill-opacity="1" /><path clip-path="url(#clip160)" d="M184.19 746.502 L189.075 746.502 L189.075 752.382 L184.19 752.382 L184.19 746.502 Z" fill="#000000" fill-rule="nonzero" fill-opacity="1" /><path clip-path="url(#clip160)" d="M209.26 720.901 Q205.649 720.901 203.82 724.465 Q202.014 728.007 202.014 735.137 Q202.014 742.243 203.82 745.808 Q205.649 749.349 209.26 749.349 Q212.894 749.349 214.699 745.808 Q216.528 742.243 216.528 735.137 Q216.528 728.007 214.699 724.465 Q212.894 720.901 209.26 720.901 M209.26 717.197 Q215.07 717.197 218.125 721.803 Q221.204 726.387 221.204 735.137 Q221.204 743.863 218.125 748.47 Q215.07 753.053 209.26 753.053 Q203.449 753.053 200.371 748.47 Q197.315 743.863 197.315 735.137 Q197.315 726.387 200.371 721.803 Q203.449 717.197 209.26 717.197 Z" fill="#000000" fill-rule="nonzero" fill-opacity="1" /><path clip-path="url(#clip160)" d="M159.052 478.61 L175.371 478.61 L175.371 482.545 L153.427 482.545 L153.427 478.61 Q156.089 475.855 160.672 471.226 Q165.278 466.573 166.459 465.23 Q168.704 462.707 169.584 460.971 Q170.487 459.212 170.487 457.522 Q170.487 454.767 168.542 453.031 Q166.621 451.295 163.519 451.295 Q161.32 451.295 158.866 452.059 Q156.436 452.823 153.658 454.374 L153.658 449.652 Q156.482 448.517 158.936 447.939 Q161.39 447.36 163.427 447.36 Q168.797 447.36 171.991 450.045 Q175.186 452.73 175.186 457.221 Q175.186 459.351 174.376 461.272 Q173.589 463.17 171.482 465.763 Q170.903 466.434 167.802 469.651 Q164.7 472.846 159.052 478.61 Z" fill="#000000" fill-rule="nonzero" fill-opacity="1" /><path clip-path="url(#clip160)" d="M185.186 476.665 L190.07 476.665 L190.07 482.545 L185.186 482.545 L185.186 476.665 Z" fill="#000000" fill-rule="nonzero" fill-opacity="1" /><path clip-path="url(#clip160)" d="M200.301 447.985 L218.658 447.985 L218.658 451.92 L204.584 451.92 L204.584 460.392 Q205.602 460.045 206.621 459.883 Q207.639 459.698 208.658 459.698 Q214.445 459.698 217.824 462.869 Q221.204 466.04 221.204 471.457 Q221.204 477.036 217.732 480.138 Q214.26 483.216 207.94 483.216 Q205.764 483.216 203.496 482.846 Q201.25 482.475 198.843 481.735 L198.843 477.036 Q200.926 478.17 203.149 478.726 Q205.371 479.281 207.848 479.281 Q211.852 479.281 214.19 477.175 Q216.528 475.068 216.528 471.457 Q216.528 467.846 214.19 465.739 Q211.852 463.633 207.848 463.633 Q205.973 463.633 204.098 464.05 Q202.246 464.466 200.301 465.346 L200.301 447.985 Z" fill="#000000" fill-rule="nonzero" fill-opacity="1" /><path clip-path="url(#clip160)" d="M154.075 178.148 L172.431 178.148 L172.431 182.083 L158.357 182.083 L158.357 190.555 Q159.376 190.208 160.394 190.046 Q161.413 189.861 162.431 189.861 Q168.218 189.861 171.598 193.032 Q174.977 196.203 174.977 201.62 Q174.977 207.199 171.505 210.301 Q168.033 213.379 161.714 213.379 Q159.538 213.379 157.269 213.009 Q155.024 212.639 152.616 211.898 L152.616 207.199 Q154.7 208.333 156.922 208.889 Q159.144 209.444 161.621 209.444 Q165.626 209.444 167.964 207.338 Q170.302 205.231 170.302 201.62 Q170.302 198.009 167.964 195.903 Q165.626 193.796 161.621 193.796 Q159.746 193.796 157.871 194.213 Q156.019 194.629 154.075 195.509 L154.075 178.148 Z" fill="#000000" fill-rule="nonzero" fill-opacity="1" /><path clip-path="url(#clip160)" d="M184.19 206.828 L189.075 206.828 L189.075 212.708 L184.19 212.708 L184.19 206.828 Z" fill="#000000" fill-rule="nonzero" fill-opacity="1" /><path clip-path="url(#clip160)" d="M209.26 181.227 Q205.649 181.227 203.82 184.791 Q202.014 188.333 202.014 195.463 Q202.014 202.569 203.82 206.134 Q205.649 209.676 209.26 209.676 Q212.894 209.676 214.699 206.134 Q216.528 202.569 216.528 195.463 Q216.528 188.333 214.699 184.791 Q212.894 181.227 209.26 181.227 M209.26 177.523 Q215.07 177.523 218.125 182.129 Q221.204 186.713 221.204 195.463 Q221.204 204.19 218.125 208.796 Q215.07 213.379 209.26 213.379 Q203.449 213.379 200.371 208.796 Q197.315 204.19 197.315 195.463 Q197.315 186.713 200.371 182.129 Q203.449 177.523 209.26 177.523 Z" fill="#000000" fill-rule="nonzero" fill-opacity="1" /><path clip-path="url(#clip160)" d="M46.0847 1056.35 Q46.0847 1063.44 47.7079 1066.18 Q49.3312 1068.92 53.2461 1068.92 Q56.3653 1068.92 58.2114 1066.88 Q60.0256 1064.81 60.0256 1061.28 Q60.0256 1056.41 56.5881 1053.48 Q53.1188 1050.52 47.3897 1050.52 L46.0847 1050.52 L46.0847 1056.35 M43.6657 1044.66 L64.0042 1044.66 L64.0042 1050.52 L58.5933 1050.52 Q61.8398 1052.53 63.3994 1055.52 Q64.9272 1058.51 64.9272 1062.84 Q64.9272 1068.31 61.8716 1071.56 Q58.7843 1074.77 53.6281 1074.77 Q47.6125 1074.77 44.5569 1070.76 Q41.5014 1066.72 41.5014 1058.73 L41.5014 1050.52 L40.9285 1050.52 Q36.8862 1050.52 34.6901 1053.19 Q32.4621 1055.84 32.4621 1060.64 Q32.4621 1063.7 33.1941 1066.59 Q33.9262 1069.49 35.3903 1072.16 L29.9795 1072.16 Q28.7381 1068.95 28.1334 1065.93 Q27.4968 1062.9 27.4968 1060.04 Q27.4968 1052.3 31.5072 1048.48 Q35.5176 1044.66 43.6657 1044.66 Z" fill="#000000" fill-rule="nonzero" fill-opacity="1" /><path clip-path="url(#clip160)" d="M29.7248 1006.95 L35.1993 1006.95 Q33.8307 1009.43 33.1623 1011.95 Q32.4621 1014.43 32.4621 1016.97 Q32.4621 1022.67 36.0905 1025.82 Q39.6872 1028.97 46.212 1028.97 Q52.7369 1028.97 56.3653 1025.82 Q59.9619 1022.67 59.9619 1016.97 Q59.9619 1014.43 59.2935 1011.95 Q58.5933 1009.43 57.2247 1006.95 L62.6355 1006.95 Q63.7814 1009.4 64.3543 1012.04 Q64.9272 1014.65 64.9272 1017.61 Q64.9272 1025.66 59.8664 1030.41 Q54.8057 1035.15 46.212 1035.15 Q37.491 1035.15 32.4939 1030.37 Q27.4968 1025.57 27.4968 1017.23 Q27.4968 1014.52 28.0697 1011.95 Q28.6108 1009.37 29.7248 1006.95 Z" fill="#000000" fill-rule="nonzero" fill-opacity="1" /><path clip-path="url(#clip160)" d="M29.7248 971.109 L35.1993 971.109 Q33.8307 973.592 33.1623 976.106 Q32.4621 978.589 32.4621 981.135 Q32.4621 986.832 36.0905 989.983 Q39.6872 993.134 46.212 993.134 Q52.7369 993.134 56.3653 989.983 Q59.9619 986.832 59.9619 981.135 Q59.9619 978.589 59.2935 976.106 Q58.5933 973.592 57.2247 971.109 L62.6355 971.109 Q63.7814 973.56 64.3543 976.202 Q64.9272 978.812 64.9272 981.772 Q64.9272 989.824 59.8664 994.567 Q54.8057 999.309 46.212 999.309 Q37.491 999.309 32.4939 994.535 Q27.4968 989.729 27.4968 981.39 Q27.4968 978.684 28.0697 976.106 Q28.6108 973.528 29.7248 971.109 Z" fill="#000000" fill-rule="nonzero" fill-opacity="1" /><path clip-path="url(#clip160)" d="M44.7161 930.432 L47.5806 930.432 L47.5806 957.359 Q53.6281 956.977 56.8109 953.731 Q59.9619 950.452 59.9619 944.628 Q59.9619 941.254 59.1344 938.103 Q58.3069 934.92 56.6518 931.801 L62.1899 931.801 Q63.5267 934.952 64.227 938.262 Q64.9272 941.572 64.9272 944.978 Q64.9272 953.508 59.9619 958.505 Q54.9967 963.47 46.5303 963.47 Q37.7774 963.47 32.6531 958.76 Q27.4968 954.017 27.4968 945.996 Q27.4968 938.803 32.1438 934.634 Q36.7589 930.432 44.7161 930.432 M42.9973 936.289 Q38.1912 936.352 35.3266 938.994 Q32.4621 941.604 32.4621 945.933 Q32.4621 950.834 35.2312 953.794 Q38.0002 956.723 43.0292 957.168 L42.9973 936.289 Z" fill="#000000" fill-rule="nonzero" fill-opacity="1" /><path clip-path="url(#clip160)" d="M14.479 920.82 L14.479 914.964 L64.0042 914.964 L64.0042 920.82 L14.479 920.82 Z" fill="#000000" fill-rule="nonzero" fill-opacity="1" /><path clip-path="url(#clip160)" d="M44.7161 872.218 L47.5806 872.218 L47.5806 899.145 Q53.6281 898.763 56.8109 895.516 Q59.9619 892.238 59.9619 886.413 Q59.9619 883.04 59.1344 879.889 Q58.3069 876.706 56.6518 873.587 L62.1899 873.587 Q63.5267 876.738 64.227 880.048 Q64.9272 883.358 64.9272 886.764 Q64.9272 895.294 59.9619 900.291 Q54.9967 905.256 46.5303 905.256 Q37.7774 905.256 32.6531 900.545 Q27.4968 895.803 27.4968 887.782 Q27.4968 880.589 32.1438 876.419 Q36.7589 872.218 44.7161 872.218 M42.9973 878.074 Q38.1912 878.138 35.3266 880.78 Q32.4621 883.39 32.4621 887.718 Q32.4621 892.62 35.2312 895.58 Q38.0002 898.508 43.0292 898.954 L42.9973 878.074 Z" fill="#000000" fill-rule="nonzero" fill-opacity="1" /><path clip-path="url(#clip160)" d="M33.8307 841.949 Q33.2578 842.936 33.0032 844.113 Q32.7167 845.259 32.7167 846.66 Q32.7167 851.625 35.9632 854.298 Q39.1779 856.94 45.2253 856.94 L64.0042 856.94 L64.0042 862.828 L28.3562 862.828 L28.3562 856.94 L33.8944 856.94 Q30.6479 855.094 29.0883 852.134 Q27.4968 849.174 27.4968 844.941 Q27.4968 844.336 27.5923 843.604 Q27.656 842.872 27.8151 841.981 L33.8307 841.949 Z" fill="#000000" fill-rule="nonzero" fill-opacity="1" /><path clip-path="url(#clip160)" d="M46.0847 819.605 Q46.0847 826.703 47.7079 829.44 Q49.3312 832.178 53.2461 832.178 Q56.3653 832.178 58.2114 830.141 Q60.0256 828.072 60.0256 824.539 Q60.0256 819.669 56.5881 816.741 Q53.1188 813.781 47.3897 813.781 L46.0847 813.781 L46.0847 819.605 M43.6657 807.924 L64.0042 807.924 L64.0042 813.781 L58.5933 813.781 Q61.8398 815.786 63.3994 818.778 Q64.9272 821.77 64.9272 826.098 Q64.9272 831.573 61.8716 834.819 Q58.7843 838.034 53.6281 838.034 Q47.6125 838.034 44.5569 834.024 Q41.5014 829.981 41.5014 821.992 L41.5014 813.781 L40.9285 813.781 Q36.8862 813.781 34.6901 816.454 Q32.4621 819.096 32.4621 823.902 Q32.4621 826.958 33.1941 829.854 Q33.9262 832.751 35.3903 835.424 L29.9795 835.424 Q28.7381 832.209 28.1334 829.186 Q27.4968 826.162 27.4968 823.297 Q27.4968 815.563 31.5072 811.744 Q35.5176 807.924 43.6657 807.924 Z" fill="#000000" fill-rule="nonzero" fill-opacity="1" /><path clip-path="url(#clip160)" d="M18.2347 790.068 L28.3562 790.068 L28.3562 778.005 L32.9077 778.005 L32.9077 790.068 L52.2594 790.068 Q56.6199 790.068 57.8613 788.891 Q59.1026 787.681 59.1026 784.021 L59.1026 778.005 L64.0042 778.005 L64.0042 784.021 Q64.0042 790.801 61.4897 793.379 Q58.9434 795.957 52.2594 795.957 L32.9077 795.957 L32.9077 800.254 L28.3562 800.254 L28.3562 795.957 L18.2347 795.957 L18.2347 790.068 Z" fill="#000000" fill-rule="nonzero" fill-opacity="1" /><path clip-path="url(#clip160)" d="M28.3562 770.303 L28.3562 764.446 L64.0042 764.446 L64.0042 770.303 L28.3562 770.303 M14.479 770.303 L14.479 764.446 L21.895 764.446 L21.895 770.303 L14.479 770.303 Z" fill="#000000" fill-rule="nonzero" fill-opacity="1" /><path clip-path="url(#clip160)" d="M32.4621 738.379 Q32.4621 743.09 36.1542 745.827 Q39.8145 748.564 46.212 748.564 Q52.6095 748.564 56.3017 745.859 Q59.9619 743.121 59.9619 738.379 Q59.9619 733.7 56.2698 730.963 Q52.5777 728.226 46.212 728.226 Q39.8781 728.226 36.186 730.963 Q32.4621 733.7 32.4621 738.379 M27.4968 738.379 Q27.4968 730.74 32.4621 726.38 Q37.4273 722.019 46.212 722.019 Q54.9649 722.019 59.9619 726.38 Q64.9272 730.74 64.9272 738.379 Q64.9272 746.05 59.9619 750.41 Q54.9649 754.739 46.212 754.739 Q37.4273 754.739 32.4621 750.41 Q27.4968 746.05 27.4968 738.379 Z" fill="#000000" fill-rule="nonzero" fill-opacity="1" /><path clip-path="url(#clip160)" d="M42.4881 682.679 L64.0042 682.679 L64.0042 688.535 L42.679 688.535 Q37.6183 688.535 35.1038 690.509 Q32.5894 692.482 32.5894 696.429 Q32.5894 701.171 35.6131 703.909 Q38.6368 706.646 43.8567 706.646 L64.0042 706.646 L64.0042 712.534 L28.3562 712.534 L28.3562 706.646 L33.8944 706.646 Q30.6797 704.545 29.0883 701.712 Q27.4968 698.848 27.4968 695.124 Q27.4968 688.981 31.3163 685.83 Q35.1038 682.679 42.4881 682.679 Z" fill="#000000" fill-rule="nonzero" fill-opacity="1" /><path clip-path="url(#clip160)" d="M14.479 650.819 L14.479 637.323 L19.0304 637.323 L19.0304 644.962 L68.0464 644.962 L68.0464 637.323 L72.5979 637.323 L72.5979 650.819 L14.479 650.819 Z" fill="#000000" fill-rule="nonzero" fill-opacity="1" /><path clip-path="url(#clip160)" d="M35.1993 597.092 Q31.2526 594.896 29.3747 591.84 Q27.4968 588.785 27.4968 584.647 Q27.4968 579.077 31.4117 576.053 Q35.2948 573.03 42.4881 573.03 L64.0042 573.03 L64.0042 578.918 L42.679 578.918 Q37.5546 578.918 35.072 580.732 Q32.5894 582.546 32.5894 586.27 Q32.5894 590.822 35.6131 593.464 Q38.6368 596.105 43.8567 596.105 L64.0042 596.105 L64.0042 601.994 L42.679 601.994 Q37.5228 601.994 35.072 603.808 Q32.5894 605.622 32.5894 609.41 Q32.5894 613.898 35.6449 616.539 Q38.6686 619.181 43.8567 619.181 L64.0042 619.181 L64.0042 625.069 L28.3562 625.069 L28.3562 619.181 L33.8944 619.181 Q30.616 617.176 29.0564 614.375 Q27.4968 611.574 27.4968 607.723 Q27.4968 603.84 29.4702 601.134 Q31.4436 598.397 35.1993 597.092 Z" fill="#000000" fill-rule="nonzero" fill-opacity="1" /><path clip-path="url(#clip160)" d="M16.4842 550.941 L16.4842 545.53 L70.0516 562.081 L70.0516 567.492 L16.4842 550.941 Z" fill="#000000" fill-rule="nonzero" fill-opacity="1" /><path clip-path="url(#clip160)" d="M29.4065 516.661 L34.9447 516.661 Q33.6716 519.144 33.035 521.818 Q32.3984 524.491 32.3984 527.356 Q32.3984 531.716 33.7352 533.912 Q35.072 536.077 37.7456 536.077 Q39.7826 536.077 40.9603 534.517 Q42.1061 532.958 43.1565 528.247 L43.6021 526.242 Q44.9389 520.003 47.3897 517.393 Q49.8086 514.752 54.1691 514.752 Q59.1344 514.752 62.0308 518.698 Q64.9272 522.613 64.9272 529.488 Q64.9272 532.353 64.3543 535.472 Q63.8132 538.559 62.6992 541.997 L56.6518 541.997 Q58.3387 538.75 59.198 535.599 Q60.0256 532.448 60.0256 529.361 Q60.0256 525.223 58.6251 522.995 Q57.1929 520.767 54.6147 520.767 Q52.2276 520.767 50.9545 522.39 Q49.6813 523.982 48.5037 529.425 L48.0262 531.462 Q46.8804 536.904 44.5251 539.323 Q42.138 541.742 38.0002 541.742 Q32.9713 541.742 30.2341 538.177 Q27.4968 534.613 27.4968 528.056 Q27.4968 524.809 27.9743 521.945 Q28.4517 519.08 29.4065 516.661 Z" fill="#000000" fill-rule="nonzero" fill-opacity="1" /><path clip-path="url(#clip160)" d="M16.4842 481.141 L34.2127 463.858 L34.2127 470.255 L21.6404 484.26 L34.2127 498.264 L34.2127 504.662 L16.4842 487.379 L16.4842 481.141 Z" fill="#000000" fill-rule="nonzero" fill-opacity="1" /><path clip-path="url(#clip160)" d="M58.5933 444.442 L58.5933 422.003 L64.0042 422.003 L64.0042 452.177 L58.5933 452.177 Q54.8057 448.516 48.44 442.214 Q42.0425 435.881 40.1964 434.257 Q36.7271 431.17 34.34 429.96 Q31.921 428.719 29.5975 428.719 Q25.8099 428.719 23.4228 431.393 Q21.0356 434.034 21.0356 438.299 Q21.0356 441.323 22.086 444.697 Q23.1363 448.039 25.2688 451.858 L18.7758 451.858 Q17.2162 447.975 16.4205 444.602 Q15.6248 441.228 15.6248 438.427 Q15.6248 431.043 19.3169 426.65 Q23.009 422.258 29.1837 422.258 Q32.112 422.258 34.7537 423.372 Q37.3637 424.454 40.9285 427.35 Q41.8515 428.146 46.2757 432.411 Q50.668 436.676 58.5933 444.442 Z" fill="#000000" fill-rule="nonzero" fill-opacity="1" /><path clip-path="url(#clip160)" d="M14.479 395.649 L72.5979 395.649 L72.5979 409.145 L68.0464 409.145 L68.0464 401.538 L19.0304 401.538 L19.0304 409.145 L14.479 409.145 L14.479 395.649 Z" fill="#000000" fill-rule="nonzero" fill-opacity="1" /><polyline clip-path="url(#clip162)" style="stroke:#009af9; stroke-linecap:round; stroke-linejoin:round; stroke-width:4; stroke-opacity:1; fill:none" points="316.512,730.044 320.466,728.405 324.42,726.734 328.374,725.04 332.328,723.327 336.281,721.604 340.235,719.877 344.189,718.152 348.143,716.434 352.097,714.729 356.051,713.042 360.005,711.379 363.959,709.743 367.912,708.141 371.866,706.577 375.82,705.055 379.774,703.582 383.728,702.161 387.682,700.8 391.636,699.504 395.59,698.281 399.543,697.138 403.497,696.086 407.451,695.135 411.405,694.298 415.359,693.591 419.313,693.03 423.267,692.638 427.221,692.439 431.174,692.461 435.128,692.737 439.082,693.305 443.036,694.208 446.99,695.496 450.944,697.222 454.898,699.444 458.851,702.225 462.805,705.626 466.759,709.706 470.713,714.511 474.667,720.072 478.621,726.386 482.575,733.405 486.529,741.026 490.482,749.075 494.436,757.31 498.39,765.433 502.344,773.119 506.298,780.062 510.252,786.006 514.206,790.785 518.16,794.32 522.113,796.618 526.067,797.742 530.021,797.797 533.975,796.905 537.929,795.199 541.883,792.812 545.837,789.875 549.791,786.511 553.744,782.836 557.698,778.951 561.652,774.947 565.606,770.901 569.56,766.877 573.514,762.925 577.468,759.088 581.421,755.397 585.375,751.879 589.329,748.553 593.283,745.433 597.237,742.532 601.191,739.857 605.145,737.412 609.099,735.2 613.052,733.22 617.006,731.471 620.96,729.949 624.914,728.649 628.868,727.565 632.822,726.691 636.776,726.021 640.73,725.547 644.683,725.262 648.637,725.158 652.591,725.228 656.545,725.462 660.499,725.855 664.453,726.396 668.407,727.077 672.361,727.889 676.314,728.824 680.268,729.872 684.222,731.024 688.176,732.27 692.13,733.602 696.084,735.01 700.038,736.486 703.992,738.02 707.945,739.605 711.899,741.232 715.853,742.893 719.807,744.58 723.761,746.288 727.715,748.008 731.669,749.735 735.622,751.462 739.576,753.183 743.53,754.893 747.484,756.587 751.438,758.259 755.392,759.905 759.346,761.519 763.3,763.097 767.253,764.634 771.207,766.125 775.161,767.565 779.115,768.947 783.069,770.266 787.023,771.515 790.977,772.687 794.931,773.771 798.884,774.758 802.838,775.635 806.792,776.389 810.746,777.001 814.7,777.453 818.654,777.721 822.608,777.778 826.562,777.593 830.515,777.129 834.469,776.345 838.423,775.194 842.377,773.624 846.331,771.578 850.285,768.995 854.239,765.813 858.192,761.971 862.146,757.417 866.1,752.116 870.054,746.057 874.008,739.27 877.962,731.838 881.916,723.912 885.87,715.709 889.823,707.512 893.777,699.64 897.731,692.411 901.685,686.102 905.639,680.912 909.593,676.949 913.547,674.234 917.501,672.719 921.454,672.312 925.408,672.896 929.362,674.339 933.316,676.509 937.27,679.272 941.224,682.504 945.178,686.086 949.132,689.911 953.085,693.884 957.039,697.923 960.993,701.962 964.947,705.943 968.901,709.823 972.855,713.567 976.809,717.146 980.763,720.54 984.716,723.731 988.67,726.707 992.624,729.46 996.578,731.983 1000.53,734.274 1004.49,736.333 1008.44,738.16 1012.39,739.758 1016.35,741.133 1020.3,742.29 1024.26,743.234 1028.21,743.972 1032.16,744.512 1036.12,744.861 1040.07,745.025 1044.02,745.014 1047.98,744.834 1051.93,744.494 1055.89,744.003 1059.84,743.369 1063.79,742.6 1067.75,741.706 1071.7,740.695 1075.66,739.578 1079.61,738.363 1083.56,737.059 1087.52,735.676 1091.47,734.222 1095.42,732.707 1099.38,731.139 1103.33,729.526 1107.29,727.876 1111.24,726.197 1115.19,724.496 1119.15,722.779 1123.1,721.054 1127.06,719.327 1131.01,717.603 1134.96,715.889 1138.92,714.189 1142.87,712.509 1146.83,710.854 1150.78,709.229 1154.73,707.639 1158.69,706.088 1162.64,704.581 1166.59,703.124 1170.55,701.722 1174.5,700.381 1178.46,699.108 1182.41,697.909 1186.36,696.795 1190.32,695.774 1194.27,694.858 1198.23,694.062 1202.18,693.4 1206.13,692.891 1210.09,692.559 1214.04,692.427 1217.99,692.527 1221.95,692.893 1225.9,693.564 1229.86,694.586 1233.81,696.009 1237.76,697.888 1241.72,700.283 1245.67,703.256 1249.63,706.868 1253.58,711.176 1257.53,716.221 1261.49,722.025 1265.44,728.571 1269.4,735.796 1273.35,743.573 1277.3,751.708 1281.26,759.938 1285.21,767.953 1289.16,775.43 1293.12,782.073 1297.07,787.656 1301.03,792.039 1304.98,795.173 1308.93,797.086 1312.89,797.856 1316.84,797.595 1320.8,796.43 1324.75,794.494 1328.7,791.92 1332.66,788.836 1336.61,785.363 1340.56,781.612 1344.52,777.682 1348.47,773.66 1352.43,769.617 1356.38,765.613 1360.33,761.696 1364.29,757.904 1368.24,754.268 1372.2,750.81 1376.15,747.55 1380.1,744.5 1384.06,741.672 1388.01,739.071 1391.97,736.701 1395.92,734.564 1399.87,732.658 1403.83,730.983 1407.78,729.532 1411.73,728.302 1415.69,727.286 1419.64,726.478 1423.6,725.871 1427.55,725.458 1431.5,725.232 1435.46,725.184 1439.41,725.307 1443.37,725.593 1447.32,726.033 1451.27,726.619 1455.23,727.342 1459.18,728.194 1463.13,729.166 1467.09,730.247 1471.04,731.43 1475,732.704 1478.95,734.06 1482.9,735.49 1486.86,736.985 1490.81,738.535 1494.77,740.133 1498.72,741.771 1502.67,743.44 1506.63,745.134 1510.58,746.845 1514.54,748.567 1518.49,750.294 1522.44,752.019 1526.4,753.736 1530.35,755.441 1534.3,757.128 1538.26,758.791 1542.21,760.426 1546.17,762.029 1550.12,763.593 1554.07,765.115 1558.03,766.589 1561.98,768.01 1565.94,769.372 1569.89,770.668 1573.84,771.892 1577.8,773.036 1581.75,774.089 1585.7,775.041 1589.66,775.879 1593.61,776.588 1597.57,777.15 1601.52,777.544 1605.47,777.746 1609.43,777.727 1613.38,777.455 1617.34,776.891 1621.29,775.993 1625.24,774.711 1629.2,772.992 1633.15,770.779 1637.11,768.008 1641.06,764.619 1645.01,760.552 1648.97,755.761 1652.92,750.216 1656.87,743.919 1660.83,736.915 1664.78,729.31 1668.74,721.274 1672.69,713.047 1676.64,704.927 1680.6,697.237 1684.55,690.285 1688.51,684.325 1692.46,679.527 1696.41,675.97 1700.37,673.649 1704.32,672.502 1708.27,672.426 1712.23,673.297 1716.18,674.984 1720.14,677.354 1724.09,680.277 1728.04,683.628 1732,687.293 1735.95,691.17 1739.91,695.167 1743.86,699.208 1747.81,703.229 1751.77,707.179 1755.72,711.015 1759.68,714.706 1763.63,718.225 1767.58,721.553 1771.54,724.675 1775.49,727.579 1779.44,730.257 1783.4,732.705 1787.35,734.921 1791.31,736.905 1795.26,738.658 1799.21,740.185 1803.17,741.489 1807.12,742.577 1811.08,743.455 1815.03,744.13 1818.98,744.608 1822.94,744.898 1826.89,745.006 1830.84,744.94 1834.8,744.71 1838.75,744.321 1842.71,743.784 1846.66,743.107 1850.61,742.298 1854.57,741.367 1858.52,740.323 1862.48,739.174 1866.43,737.931 1870.38,736.602 1874.34,735.197 1878.29,733.724 1882.25,732.193 1886.2,730.611 1890.15,728.986 1894.11,727.328 1898.06,725.642 1902.01,723.937 1905.97,722.218 1909.92,720.493 1913.88,718.768 1917.83,717.048 1921.78,715.339 1925.74,713.646 1929.69,711.975 1933.65,710.33 1937.6,708.717 1941.55,707.14 1945.51,705.603 1949.46,704.113 1953.41,702.674 1957.37,701.292 1961.32,699.973 1965.28,698.723 1969.23,697.552 1973.18,696.467 1977.14,695.48 1981.09,694.602 1985.05,693.848 1989,693.234 1992.95,692.781 1996.91,692.511 2000.86,692.452 2004.82,692.634 2008.77,693.095 2012.72,693.874 2016.68,695.02 2020.63,696.583 2024.58,698.622 2028.54,701.196 2032.49,704.367 2036.45,708.196 2040.4,712.735 2044.35,718.02 2048.31,724.062 2052.26,730.83 2056.22,738.244 2060.17,746.154 2064.12,754.343 2068.08,762.532 2072.03,770.403 2075.98,777.636 2079.94,783.957 2083.89,789.164 2087.85,793.148 2091.8,795.887 2095.75,797.426 2099.71,797.857 2103.66,797.296 2107.62,795.875 2111.57,793.726 2115.52,790.98 2119.48,787.764 2123.43,784.195 2127.39,780.382 2131.34,776.418 2135.29,772.386 2139.25,768.353 2143.2,764.375 2147.15,760.496 2151.11,756.753 2155.06,753.173 2159.02,749.778 2162.97,746.585 2166.92,743.605 2170.88,740.849 2174.83,738.322 2178.79,736.026 2182.74,733.963 2186.69,732.131 2190.65,730.526 2194.6,729.146 2198.55,727.984 2202.51,727.034 2206.46,726.29 2210.42,725.745 2214.37,725.391 2218.32,725.221 2222.28,725.228 2226.23,725.402 2230.19,725.737 2234.14,726.223 2238.09,726.853 2242.05,727.617 2246,728.506 2249.96,729.512 2253.91,730.626 2257.86,731.837 2261.82,733.137 2265.77,734.517 2269.72,735.967 2273.68,737.479 2277.63,739.044 2281.59,740.655 2285.54,742.302 2289.49,743.979 2293.45,745.678 "/>
<polyline clip-path="url(#clip162)" style="stroke:#e26f46; stroke-linecap:round; stroke-linejoin:round; stroke-width:4; stroke-opacity:1; fill:none" points="316.512,107.762 320.466,108.242 324.42,109.077 328.374,110.27 332.328,111.828 336.281,113.761 340.235,116.081 344.189,118.805 348.143,121.952 352.097,125.544 356.051,129.607 360.005,134.17 363.959,139.264 367.912,144.922 371.866,151.181 375.82,158.075 379.774,165.642 383.728,173.917 387.682,182.931 391.636,192.713 395.59,203.288 399.543,214.67 403.497,226.867 407.451,239.877 411.405,253.69 415.359,268.283 419.313,283.626 423.267,299.681 427.221,316.401 431.174,333.737 435.128,351.639 439.082,370.053 443.036,388.928 446.99,408.214 450.944,427.865 454.898,447.832 458.851,468.064 462.805,488.508 466.759,509.103 470.713,529.778 474.667,550.454 478.621,571.05 482.575,591.482 486.529,611.671 490.482,631.556 494.436,651.096 498.39,670.275 502.344,689.106 506.298,707.626 510.252,725.891 514.206,743.971 518.16,761.941 522.113,779.874 526.067,797.841 530.021,815.907 533.975,834.129 537.929,852.562 541.883,871.254 545.837,890.247 549.791,909.574 553.744,929.248 557.698,949.269 561.652,969.605 565.606,990.201 569.56,1010.97 573.514,1031.81 577.468,1052.59 581.421,1073.18 585.375,1093.45 589.329,1113.27 593.283,1132.53 597.237,1151.15 601.191,1169.04 605.145,1186.14 609.099,1202.42 613.052,1217.83 617.006,1232.35 620.96,1245.98 624.914,1258.69 628.868,1270.51 632.822,1281.44 636.776,1291.49 640.73,1300.69 644.683,1309.08 648.637,1316.68 652.591,1323.54 656.545,1329.69 660.499,1335.18 664.453,1340.04 668.407,1344.31 672.361,1348.03 676.314,1351.23 680.268,1353.95 684.222,1356.21 688.176,1358.04 692.13,1359.46 696.084,1360.49 700.038,1361.15 703.992,1361.44 707.945,1361.38 711.899,1360.97 715.853,1360.22 719.807,1359.13 723.761,1357.68 727.715,1355.89 731.669,1353.73 735.622,1351.2 739.576,1348.27 743.53,1344.94 747.484,1341.17 751.438,1336.95 755.392,1332.24 759.346,1327.01 763.3,1321.23 767.253,1314.87 771.207,1307.88 775.161,1300.24 779.115,1291.91 783.069,1282.85 787.023,1273.03 790.977,1262.43 794.931,1251.02 798.884,1238.78 802.838,1225.71 806.792,1211.81 810.746,1197.08 814.7,1181.53 818.654,1165.2 822.608,1148.12 826.562,1130.31 830.515,1111.84 834.469,1092.74 838.423,1073.08 842.377,1052.91 846.331,1032.3 850.285,1011.34 854.239,990.111 858.192,968.716 862.146,947.258 866.1,925.843 870.054,904.569 874.008,883.521 877.962,862.765 881.916,842.346 885.87,822.288 889.823,802.6 893.777,783.279 897.731,764.315 901.685,745.691 905.639,727.385 909.593,709.365 913.547,691.589 917.501,674.001 921.454,656.528 925.408,639.086 929.362,621.575 933.316,603.891 937.27,585.932 941.224,567.602 945.178,548.829 949.132,529.57 953.085,509.817 957.039,489.607 960.993,469.016 964.947,448.158 968.901,427.178 972.855,406.232 976.809,385.487 980.763,365.101 984.716,345.216 988.67,325.955 992.624,307.42 996.578,289.689 1000.53,272.822 1004.49,256.863 1008.44,241.841 1012.39,227.77 1016.35,214.656 1020.3,202.491 1024.26,191.26 1028.21,180.937 1032.16,171.493 1036.12,162.889 1040.07,155.087 1044.02,148.043 1047.98,141.712 1051.93,136.052 1055.89,131.018 1059.84,126.57 1063.79,122.671 1067.75,119.285 1071.7,116.381 1075.66,113.931 1079.61,111.91 1083.56,110.298 1087.52,109.078 1091.47,108.235 1095.42,107.759 1099.38,107.644 1103.33,107.883 1107.29,108.476 1111.24,109.425 1115.19,110.734 1119.15,112.41 1123.1,114.465 1127.06,116.913 1131.01,119.77 1134.96,123.058 1138.92,126.798 1142.87,131.019 1146.83,135.748 1150.78,141.019 1154.73,146.867 1158.69,153.326 1162.64,160.433 1166.59,168.225 1170.55,176.734 1174.5,185.993 1178.46,196.028 1182.41,206.86 1186.36,218.504 1190.32,230.963 1194.27,244.233 1198.23,258.299 1202.18,273.136 1206.13,288.711 1210.09,304.982 1214.04,321.903 1217.99,339.426 1221.95,357.495 1225.9,376.061 1229.86,395.072 1233.81,414.479 1237.76,434.234 1241.72,454.289 1245.67,474.594 1249.63,495.092 1253.58,515.719 1257.53,536.402 1261.49,557.062 1265.44,577.613 1269.4,597.973 1273.35,618.069 1277.3,637.847 1281.26,657.271 1285.21,676.336 1289.16,695.063 1293.12,713.495 1297.07,731.694 1301.03,749.732 1304.98,767.683 1308.93,785.621 1312.89,803.615 1316.84,821.727 1320.8,840.013 1324.75,858.526 1328.7,877.313 1332.66,896.411 1336.61,915.85 1340.56,935.638 1344.52,955.765 1348.47,976.193 1352.43,996.855 1356.38,1017.66 1360.33,1038.49 1364.29,1059.22 1368.24,1079.72 1372.2,1099.85 1376.15,1119.5 1380.1,1138.57 1384.06,1156.95 1388.01,1174.59 1391.97,1191.43 1395.92,1207.43 1399.87,1222.55 1403.83,1236.79 1407.78,1250.12 1411.73,1262.54 1415.69,1274.07 1419.64,1284.71 1423.6,1294.49 1427.55,1303.42 1431.5,1311.55 1435.46,1318.91 1439.41,1325.54 1443.37,1331.47 1447.32,1336.75 1451.27,1341.42 1455.23,1345.51 1459.18,1349.06 1463.13,1352.1 1467.09,1354.67 1471.04,1356.79 1475,1358.49 1478.95,1359.78 1482.9,1360.69 1486.86,1361.23 1490.81,1361.4 1494.77,1361.23 1498.72,1360.71 1502.67,1359.85 1506.63,1358.64 1510.58,1357.09 1514.54,1355.17 1518.49,1352.9 1522.44,1350.24 1526.4,1347.18 1530.35,1343.71 1534.3,1339.8 1538.26,1335.42 1542.21,1330.54 1546.17,1325.14 1550.12,1319.18 1554.07,1312.62 1558.03,1305.42 1561.98,1297.56 1565.94,1289 1569.89,1279.7 1573.84,1269.63 1577.8,1258.77 1581.75,1247.1 1585.7,1234.59 1589.66,1221.26 1593.61,1207.08 1597.57,1192.09 1601.52,1176.29 1605.47,1159.71 1609.43,1142.4 1613.38,1124.37 1617.34,1105.69 1621.29,1086.41 1625.24,1066.58 1629.2,1046.26 1633.15,1025.54 1637.11,1004.49 1641.06,983.197 1645.01,961.774 1648.97,940.323 1652.92,918.947 1656.87,897.741 1660.83,876.784 1664.78,856.136 1668.74,835.835 1672.69,815.898 1676.64,796.33 1680.6,777.126 1684.55,758.273 1688.51,739.753 1692.46,721.541 1696.41,703.602 1700.37,685.892 1704.32,668.346 1708.27,650.89 1712.23,633.431 1716.18,615.871 1720.14,598.104 1724.09,580.029 1728.04,561.561 1732,542.634 1735.95,523.214 1739.91,503.31 1743.86,482.97 1747.81,462.283 1751.77,441.374 1755.72,420.393 1759.68,399.504 1763.63,378.867 1767.58,358.637 1771.54,338.951 1775.49,319.923 1779.44,301.647 1783.4,284.196 1787.35,267.626 1791.31,251.974 1795.26,237.263 1799.21,223.506 1803.17,210.704 1807.12,198.846 1811.08,187.913 1815.03,177.879 1818.98,168.712 1822.94,160.373 1826.89,152.82 1830.84,146.011 1834.8,139.901 1838.75,134.447 1842.71,129.606 1846.66,125.338 1850.61,121.608 1854.57,118.38 1858.52,115.624 1862.48,113.314 1866.43,111.427 1870.38,109.943 1874.34,108.845 1878.29,108.122 1882.25,107.763 1886.2,107.762 1890.15,108.115 1894.11,108.823 1898.06,109.887 1902.01,111.314 1905.97,113.111 1909.92,115.292 1913.88,117.869 1917.83,120.863 1921.78,124.294 1925.74,128.186 1929.69,132.567 1933.65,137.468 1937.6,142.921 1941.55,148.961 1945.51,155.624 1949.46,162.946 1953.41,170.963 1957.37,179.709 1961.32,189.213 1965.28,199.5 1969.23,210.589 1973.18,222.491 1977.14,235.207 1981.09,248.73 1985.05,263.041 1989,278.114 1992.95,293.911 1996.91,310.391 2000.86,327.505 2004.82,345.203 2008.77,363.431 2012.72,382.139 2016.68,401.275 2020.63,420.793 2024.58,440.645 2028.54,460.781 2032.49,481.149 2036.45,501.69 2040.4,522.338 2044.35,543.017 2048.31,563.645 2052.26,584.139 2056.22,604.419 2060.17,624.415 2064.12,644.079 2068.08,663.386 2072.03,682.338 2075.98,700.964 2079.94,719.314 2083.89,737.454 2087.85,755.456 2091.8,773.397 2095.75,791.348 2099.71,809.374 2103.66,827.536 2107.62,845.891 2111.57,864.488 2115.52,883.371 2119.48,902.577 2123.43,922.128 2127.39,942.026 2131.34,962.252 2135.29,982.76 2139.25,1003.47 2143.2,1024.3 2147.15,1045.11 2151.11,1065.77 2155.06,1086.16 2159.02,1106.15 2162.97,1125.62 2166.92,1144.47 2170.88,1162.62 2174.83,1180.01 2178.79,1196.58 2182.74,1212.29 2186.69,1227.13 2190.65,1241.08 2194.6,1254.11 2198.55,1266.25 2202.51,1277.49 2206.46,1287.85 2210.42,1297.36 2214.37,1306.04 2218.32,1313.92 2222.28,1321.04 2226.23,1327.44 2230.19,1333.16 2234.14,1338.24 2238.09,1342.72 2242.05,1346.64 2246,1350.02 2249.96,1352.91 2253.91,1355.34 2257.86,1357.32 2261.82,1358.89 2265.77,1360.06 2269.72,1360.85 2273.68,1361.27 2277.63,1361.34 2281.59,1361.06 2285.54,1360.43 2289.49,1359.46 2293.45,1358.14 "/>
<polyline clip-path="url(#clip162)" style="stroke:#3da44d; stroke-linecap:round; stroke-linejoin:round; stroke-width:4; stroke-opacity:1; fill:none" points="316.512,87.4932 320.466,87.8307 324.42,88.8074 328.374,90.4261 332.328,92.6875 336.281,95.5897 340.235,99.1318 344.189,103.309 348.143,108.12 352.097,113.558 356.051,119.618 360.005,126.293 363.959,133.576 367.912,141.457 371.866,149.932 375.82,158.993 379.774,168.627 383.728,178.825 387.682,189.582 391.636,200.887 395.59,212.72 399.543,225.077 403.497,237.947 407.451,251.315 411.405,265.162 415.359,279.482 419.313,294.26 423.267,309.475 427.221,325.11 431.174,341.155 435.128,357.593 439.082,374.412 443.036,391.595 446.99,409.126 450.944,426.973 454.898,445.128 458.851,463.574 462.805,482.295 466.759,501.273 470.713,520.49 474.667,539.922 478.621,559.548 482.575,579.352 486.529,599.314 490.482,619.414 494.436,639.63 498.39,659.944 502.344,680.337 506.298,700.787 510.252,721.272 514.206,741.771 518.16,762.263 522.113,782.725 526.067,803.142 530.021,823.497 533.975,843.763 537.929,863.92 541.883,883.947 545.837,903.823 549.791,923.526 553.744,943.048 557.698,962.362 561.652,981.449 565.606,1000.29 569.56,1018.86 573.514,1037.15 577.468,1055.13 581.421,1072.8 585.375,1090.13 589.329,1107.1 593.283,1123.7 597.237,1139.91 601.191,1155.72 605.145,1171.1 609.099,1186.06 613.052,1200.56 617.006,1214.59 620.96,1228.14 624.914,1241.2 628.868,1253.75 632.822,1265.79 636.776,1277.3 640.73,1288.26 644.683,1298.67 648.637,1308.51 652.591,1317.78 656.545,1326.47 660.499,1334.57 664.453,1342.07 668.407,1348.96 672.361,1355.23 676.314,1360.89 680.268,1365.91 684.222,1370.31 688.176,1374.07 692.13,1377.2 696.084,1379.68 700.038,1381.51 703.992,1382.7 707.945,1383.24 711.899,1383.13 715.853,1382.38 719.807,1380.98 723.761,1378.93 727.715,1376.23 731.669,1372.89 735.622,1368.92 739.576,1364.31 743.53,1359.07 747.484,1353.21 751.438,1346.73 755.392,1339.64 759.346,1331.94 763.3,1323.64 767.253,1314.76 771.207,1305.29 775.161,1295.26 779.115,1284.66 783.069,1273.52 787.023,1261.83 790.977,1249.62 794.931,1236.9 798.884,1223.67 802.838,1209.95 806.792,1195.76 810.746,1181.1 814.7,1166 818.654,1150.47 822.608,1134.52 826.562,1118.17 830.515,1101.45 834.469,1084.35 838.423,1066.9 842.377,1049.12 846.331,1031.03 850.285,1012.64 854.239,993.971 858.192,975.046 862.146,955.882 866.1,936.493 870.054,916.901 874.008,897.128 877.962,877.193 881.916,857.118 885.87,836.924 889.823,816.623 893.777,796.239 897.731,775.793 901.685,755.307 905.639,734.803 909.593,714.3 913.547,693.82 917.501,673.375 921.454,652.992 925.408,632.691 929.362,612.493 933.316,592.419 937.27,572.491 941.224,552.723 945.178,533.134 949.132,513.747 953.085,494.581 957.039,475.658 960.993,456.996 964.947,438.616 968.901,420.524 972.855,402.748 976.809,385.304 980.763,368.21 984.716,351.486 988.67,335.148 992.624,319.208 996.578,303.681 1000.53,288.585 1004.49,273.936 1008.44,259.75 1012.39,246.041 1016.35,232.825 1020.3,220.105 1024.26,207.9 1028.21,196.222 1032.16,185.084 1036.12,174.498 1040.07,164.475 1044.02,155.022 1047.98,146.146 1051.93,137.86 1055.89,130.171 1059.84,123.088 1063.79,116.619 1067.75,110.77 1071.7,105.543 1075.66,100.946 1079.61,96.9824 1083.56,93.6581 1087.52,90.9761 1091.47,88.9397 1095.42,87.5503 1099.38,86.8068 1103.33,86.7119 1107.29,87.266 1111.24,88.4685 1115.19,90.3184 1119.15,92.8142 1123.1,95.9521 1127.06,99.7292 1131.01,104.142 1134.96,109.186 1138.92,114.857 1142.87,121.148 1146.83,128.054 1150.78,135.568 1154.73,143.681 1158.69,152.387 1162.64,161.675 1166.59,171.537 1170.55,181.962 1174.5,192.941 1178.46,204.464 1182.41,216.518 1186.36,229.091 1190.32,242.17 1194.27,255.741 1198.23,269.791 1202.18,284.309 1206.13,299.279 1210.09,314.685 1214.04,330.511 1217.99,346.741 1221.95,363.358 1225.9,380.349 1229.86,397.697 1233.81,415.383 1237.76,433.388 1241.72,451.695 1245.67,470.283 1249.63,489.135 1253.58,508.238 1257.53,527.568 1261.49,547.106 1265.44,566.832 1269.4,586.725 1273.35,606.764 1277.3,626.932 1281.26,647.213 1285.21,667.582 1289.16,688.018 1293.12,708.501 1297.07,729.008 1301.03,749.519 1304.98,770.02 1308.93,790.488 1312.89,810.901 1316.84,831.237 1320.8,851.476 1324.75,871.596 1328.7,891.579 1332.66,911.411 1336.61,931.066 1340.56,950.526 1344.52,969.769 1348.47,988.775 1352.43,1007.53 1356.38,1026.01 1360.33,1044.2 1364.29,1062.08 1368.24,1079.64 1372.2,1096.85 1376.15,1113.69 1380.1,1130.16 1384.06,1146.23 1388.01,1161.9 1391.97,1177.14 1395.92,1191.93 1399.87,1206.27 1403.83,1220.13 1407.78,1233.51 1411.73,1246.39 1415.69,1258.76 1419.64,1270.61 1423.6,1281.92 1427.55,1292.68 1431.5,1302.89 1435.46,1312.52 1439.41,1321.59 1443.37,1330.06 1447.32,1337.94 1451.27,1345.21 1455.23,1351.88 1459.18,1357.92 1463.13,1363.35 1467.09,1368.14 1471.04,1372.31 1475,1375.83 1478.95,1378.71 1482.9,1380.95 1486.86,1382.54 1490.81,1383.49 1494.77,1383.79 1498.72,1383.43 1502.67,1382.43 1506.63,1380.78 1510.58,1378.49 1514.54,1375.55 1518.49,1371.97 1522.44,1367.75 1526.4,1362.9 1530.35,1357.42 1534.3,1351.32 1538.26,1344.6 1542.21,1337.28 1546.17,1329.35 1550.12,1320.82 1554.07,1311.71 1558.03,1302.02 1561.98,1291.77 1565.94,1280.95 1569.89,1269.6 1573.84,1257.7 1577.8,1245.28 1581.75,1232.36 1585.7,1218.93 1589.66,1205.02 1593.61,1190.64 1597.57,1175.81 1601.52,1160.53 1605.47,1144.83 1609.43,1128.72 1613.38,1112.21 1617.34,1095.33 1621.29,1078.08 1625.24,1060.49 1629.2,1042.58 1633.15,1024.36 1637.11,1005.85 1641.06,987.069 1645.01,968.032 1648.97,948.763 1652.92,929.28 1656.87,909.604 1660.83,889.756 1664.78,869.754 1668.74,849.612 1672.69,829.355 1676.64,809.003 1680.6,788.578 1684.55,768.102 1688.51,747.594 1692.46,727.073 1696.41,706.556 1700.37,686.066 1704.32,665.627 1708.27,645.257 1712.23,624.98 1716.18,604.816 1720.14,584.776 1724.09,564.885 1728.04,545.165 1732,525.635 1735.95,506.316 1739.91,487.229 1743.86,468.39 1747.81,449.812 1751.77,431.52 1755.72,413.531 1759.68,395.865 1763.63,378.541 1767.58,361.576 1771.54,344.98 1775.49,328.773 1779.44,312.972 1783.4,297.594 1787.35,282.656 1791.31,268.172 1795.26,254.156 1799.21,240.616 1803.17,227.571 1807.12,215.033 1811.08,203.017 1815.03,191.535 1818.98,180.599 1822.94,170.215 1826.89,160.394 1830.84,151.148 1834.8,142.487 1838.75,134.42 1842.71,126.955 1846.66,120.1 1850.61,113.856 1854.57,108.234 1858.52,103.24 1862.48,98.8776 1866.43,95.153 1870.38,92.0701 1874.34,89.6296 1878.29,87.8335 1882.25,86.6851 1886.2,86.1857 1890.15,86.3359 1894.11,87.136 1898.06,88.5851 1902.01,90.6797 1905.97,93.4191 1909.92,96.8006 1913.88,100.821 1917.83,105.476 1921.78,110.762 1925.74,116.672 1929.69,123.201 1933.65,130.342 1937.6,138.089 1941.55,146.432 1945.51,155.365 1949.46,164.877 1953.41,174.961 1957.37,185.606 1961.32,196.801 1965.28,208.534 1969.23,220.794 1973.18,233.567 1977.14,246.843 1981.09,260.609 1985.05,274.85 1989,289.552 1992.95,304.699 1996.91,320.276 2000.86,336.266 2004.82,352.658 2008.77,369.434 2012.72,386.576 2016.68,404.067 2020.63,421.887 2024.58,440.02 2028.54,458.447 2032.49,477.156 2036.45,496.123 2040.4,515.329 2044.35,534.754 2048.31,554.378 2052.26,574.18 2056.22,594.147 2060.17,614.258 2064.12,634.489 2068.08,654.821 2072.03,675.232 2075.98,695.7 2079.94,716.207 2083.89,736.738 2087.85,757.269 2091.8,777.777 2095.75,798.241 2099.71,818.641 2103.66,838.954 2107.62,859.166 2111.57,879.258 2115.52,899.205 2119.48,918.988 2123.43,938.586 2127.39,957.978 2131.34,977.144 2135.29,996.075 2139.25,1014.75 2143.2,1033.14 2147.15,1051.23 2151.11,1069 2155.06,1086.44 2159.02,1103.52 2162.97,1120.25 2166.92,1136.58 2170.88,1152.52 2174.83,1168.03 2178.79,1183.12 2182.74,1197.75 2186.69,1211.92 2190.65,1225.62 2194.6,1238.82 2198.55,1251.52 2202.51,1263.71 2206.46,1275.36 2210.42,1286.47 2214.37,1297.03 2218.32,1307.04 2222.28,1316.47 2226.23,1325.31 2230.19,1333.57 2234.14,1341.22 2238.09,1348.27 2242.05,1354.71 2246,1360.53 2249.96,1365.72 2253.91,1370.28 2257.86,1374.21 2261.82,1377.49 2265.77,1380.14 2269.72,1382.13 2273.68,1383.48 2277.63,1384.19 2281.59,1384.24 2285.54,1383.64 2289.49,1382.39 2293.45,1380.5 "/>
<path clip-path="url(#clip160)" d="M1603.12 300.469 L2282.9 300.469 L2282.9 93.1086 L1603.12 93.1086  Z" fill="#ffffff" fill-rule="evenodd" fill-opacity="1"/>
<polyline clip-path="url(#clip160)" style="stroke:#000000; stroke-linecap:round; stroke-linejoin:round; stroke-width:4; stroke-opacity:1; fill:none" points="1603.12,300.469 2282.9,300.469 2282.9,93.1086 1603.12,93.1086 1603.12,300.469 "/>
<polyline clip-path="url(#clip160)" style="stroke:#009af9; stroke-linecap:round; stroke-linejoin:round; stroke-width:4; stroke-opacity:1; fill:none" points="1626.4,144.949 1766.11,144.949 "/>
<path clip-path="url(#clip160)" d="M1789.39 127.669 L1795.69 127.669 L1811.01 156.581 L1811.01 127.669 L1815.55 127.669 L1815.55 162.229 L1809.25 162.229 L1793.93 133.317 L1793.93 162.229 L1789.39 162.229 L1789.39 127.669 Z" fill="#000000" fill-rule="nonzero" fill-opacity="1" /><path clip-path="url(#clip160)" d="M1846.84 148.201 L1846.84 150.284 L1827.26 150.284 Q1827.54 154.682 1829.9 156.997 Q1832.28 159.289 1836.52 159.289 Q1838.97 159.289 1841.27 158.687 Q1843.58 158.085 1845.85 156.881 L1845.85 160.909 Q1843.56 161.881 1841.15 162.391 Q1838.74 162.9 1836.27 162.9 Q1830.06 162.9 1826.43 159.289 Q1822.82 155.678 1822.82 149.52 Q1822.82 143.155 1826.24 139.428 Q1829.69 135.678 1835.53 135.678 Q1840.76 135.678 1843.79 139.057 Q1846.84 142.414 1846.84 148.201 M1842.59 146.951 Q1842.54 143.456 1840.62 141.372 Q1838.72 139.289 1835.57 139.289 Q1832.01 139.289 1829.85 141.303 Q1827.72 143.317 1827.4 146.974 L1842.59 146.951 Z" fill="#000000" fill-rule="nonzero" fill-opacity="1" /><path clip-path="url(#clip160)" d="M1853.4 151.997 L1853.4 136.303 L1857.65 136.303 L1857.65 151.835 Q1857.65 155.516 1859.09 157.368 Q1860.53 159.196 1863.4 159.196 Q1866.84 159.196 1868.84 156.997 Q1870.85 154.798 1870.85 151.002 L1870.85 136.303 L1875.11 136.303 L1875.11 162.229 L1870.85 162.229 L1870.85 158.247 Q1869.3 160.608 1867.24 161.766 Q1865.2 162.9 1862.49 162.9 Q1858.03 162.9 1855.71 160.122 Q1853.4 157.344 1853.4 151.997 M1864.11 135.678 L1864.11 135.678 Z" fill="#000000" fill-rule="nonzero" fill-opacity="1" /><path clip-path="url(#clip160)" d="M1898.9 140.284 Q1898.19 139.868 1897.33 139.682 Q1896.5 139.474 1895.48 139.474 Q1891.87 139.474 1889.92 141.835 Q1888 144.173 1888 148.571 L1888 162.229 L1883.72 162.229 L1883.72 136.303 L1888 136.303 L1888 140.331 Q1889.34 137.969 1891.5 136.835 Q1893.65 135.678 1896.73 135.678 Q1897.17 135.678 1897.7 135.747 Q1898.23 135.794 1898.88 135.909 L1898.9 140.284 Z" fill="#000000" fill-rule="nonzero" fill-opacity="1" /><path clip-path="url(#clip160)" d="M1915.15 149.196 Q1909.99 149.196 1908 150.377 Q1906.01 151.557 1906.01 154.405 Q1906.01 156.673 1907.49 158.016 Q1909 159.335 1911.57 159.335 Q1915.11 159.335 1917.24 156.835 Q1919.39 154.312 1919.39 150.145 L1919.39 149.196 L1915.15 149.196 M1923.65 147.437 L1923.65 162.229 L1919.39 162.229 L1919.39 158.293 Q1917.93 160.655 1915.76 161.789 Q1913.58 162.9 1910.43 162.9 Q1906.45 162.9 1904.09 160.678 Q1901.75 158.432 1901.75 154.682 Q1901.75 150.307 1904.67 148.085 Q1907.61 145.863 1913.42 145.863 L1919.39 145.863 L1919.39 145.446 Q1919.39 142.507 1917.45 140.909 Q1915.52 139.289 1912.03 139.289 Q1909.81 139.289 1907.7 139.821 Q1905.59 140.354 1903.65 141.419 L1903.65 137.483 Q1905.99 136.581 1908.19 136.141 Q1910.39 135.678 1912.47 135.678 Q1918.09 135.678 1920.87 138.594 Q1923.65 141.511 1923.65 147.437 Z" fill="#000000" fill-rule="nonzero" fill-opacity="1" /><path clip-path="url(#clip160)" d="M1932.42 126.21 L1936.68 126.21 L1936.68 162.229 L1932.42 162.229 L1932.42 126.21 Z" fill="#000000" fill-rule="nonzero" fill-opacity="1" /><path clip-path="url(#clip160)" d="M1960.85 127.669 L1980.71 127.669 L1980.71 131.604 L1965.52 131.604 L1965.52 141.789 L1979.23 141.789 L1979.23 145.724 L1965.52 145.724 L1965.52 162.229 L1960.85 162.229 L1960.85 127.669 Z" fill="#000000" fill-rule="nonzero" fill-opacity="1" /><path clip-path="url(#clip160)" d="M1988.12 127.669 L1995.08 127.669 L2003.9 151.187 L2012.77 127.669 L2019.74 127.669 L2019.74 162.229 L2015.18 162.229 L2015.18 131.882 L2006.27 155.585 L2001.57 155.585 L1992.65 131.882 L1992.65 162.229 L1988.12 162.229 L1988.12 127.669 Z" fill="#000000" fill-rule="nonzero" fill-opacity="1" /><path clip-path="url(#clip160)" d="M2028.49 127.669 L2033.19 127.669 L2033.19 148.664 Q2033.19 154.219 2035.2 156.673 Q2037.21 159.104 2041.73 159.104 Q2046.22 159.104 2048.23 156.673 Q2050.25 154.219 2050.25 148.664 L2050.25 127.669 L2054.95 127.669 L2054.95 149.243 Q2054.95 156.002 2051.59 159.451 Q2048.26 162.9 2041.73 162.9 Q2035.18 162.9 2031.82 159.451 Q2028.49 156.002 2028.49 149.243 L2028.49 127.669 Z" fill="#000000" fill-rule="nonzero" fill-opacity="1" /><path clip-path="url(#clip160)" d="M2088.83 126.257 Q2085.73 131.581 2084.23 136.789 Q2082.72 141.997 2082.72 147.344 Q2082.72 152.692 2084.23 157.946 Q2085.76 163.178 2088.83 168.479 L2085.13 168.479 Q2081.66 163.039 2079.92 157.784 Q2078.21 152.53 2078.21 147.344 Q2078.21 142.182 2079.92 136.951 Q2081.64 131.72 2085.13 126.257 L2088.83 126.257 Z" fill="#000000" fill-rule="nonzero" fill-opacity="1" /><path clip-path="url(#clip160)" d="M2115.71 149.289 Q2115.71 144.59 2113.76 141.928 Q2111.84 139.243 2108.46 139.243 Q2105.08 139.243 2103.14 141.928 Q2101.22 144.59 2101.22 149.289 Q2101.22 153.988 2103.14 156.673 Q2105.08 159.335 2108.46 159.335 Q2111.84 159.335 2113.76 156.673 Q2115.71 153.988 2115.71 149.289 M2101.22 140.238 Q2102.56 137.923 2104.6 136.812 Q2106.66 135.678 2109.51 135.678 Q2114.23 135.678 2117.17 139.428 Q2120.13 143.178 2120.13 149.289 Q2120.13 155.4 2117.17 159.15 Q2114.23 162.9 2109.51 162.9 Q2106.66 162.9 2104.6 161.789 Q2102.56 160.655 2101.22 158.34 L2101.22 162.229 L2096.94 162.229 L2096.94 126.21 L2101.22 126.21 L2101.22 140.238 Z" fill="#000000" fill-rule="nonzero" fill-opacity="1" /><path clip-path="url(#clip160)" d="M2149.37 148.201 L2149.37 150.284 L2129.78 150.284 Q2130.06 154.682 2132.42 156.997 Q2134.81 159.289 2139.04 159.289 Q2141.5 159.289 2143.79 158.687 Q2146.1 158.085 2148.37 156.881 L2148.37 160.909 Q2146.08 161.881 2143.67 162.391 Q2141.26 162.9 2138.79 162.9 Q2132.58 162.9 2128.95 159.289 Q2125.34 155.678 2125.34 149.52 Q2125.34 143.155 2128.76 139.428 Q2132.21 135.678 2138.05 135.678 Q2143.28 135.678 2146.31 139.057 Q2149.37 142.414 2149.37 148.201 M2145.11 146.951 Q2145.06 143.456 2143.14 141.372 Q2141.24 139.289 2138.09 139.289 Q2134.53 139.289 2132.38 141.303 Q2130.25 143.317 2129.92 146.974 L2145.11 146.951 Z" fill="#000000" fill-rule="nonzero" fill-opacity="1" /><path clip-path="url(#clip160)" d="M2169.48 126.21 L2169.48 129.752 L2165.41 129.752 Q2163.12 129.752 2162.21 130.678 Q2161.33 131.604 2161.33 134.011 L2161.33 136.303 L2168.35 136.303 L2168.35 139.613 L2161.33 139.613 L2161.33 162.229 L2157.05 162.229 L2157.05 139.613 L2152.98 139.613 L2152.98 136.303 L2157.05 136.303 L2157.05 134.497 Q2157.05 130.169 2159.07 128.201 Q2161.08 126.21 2165.45 126.21 L2169.48 126.21 Z" fill="#000000" fill-rule="nonzero" fill-opacity="1" /><path clip-path="url(#clip160)" d="M2183.09 139.289 Q2179.67 139.289 2177.68 141.974 Q2175.69 144.636 2175.69 149.289 Q2175.69 153.942 2177.65 156.627 Q2179.64 159.289 2183.09 159.289 Q2186.5 159.289 2188.49 156.604 Q2190.48 153.918 2190.48 149.289 Q2190.48 144.682 2188.49 141.997 Q2186.5 139.289 2183.09 139.289 M2183.09 135.678 Q2188.65 135.678 2191.82 139.289 Q2194.99 142.9 2194.99 149.289 Q2194.99 155.655 2191.82 159.289 Q2188.65 162.9 2183.09 162.9 Q2177.51 162.9 2174.34 159.289 Q2171.19 155.655 2171.19 149.289 Q2171.19 142.9 2174.34 139.289 Q2177.51 135.678 2183.09 135.678 Z" fill="#000000" fill-rule="nonzero" fill-opacity="1" /><path clip-path="url(#clip160)" d="M2217.07 140.284 Q2216.36 139.868 2215.5 139.682 Q2214.67 139.474 2213.65 139.474 Q2210.04 139.474 2208.09 141.835 Q2206.17 144.173 2206.17 148.571 L2206.17 162.229 L2201.89 162.229 L2201.89 136.303 L2206.17 136.303 L2206.17 140.331 Q2207.51 137.969 2209.67 136.835 Q2211.82 135.678 2214.9 135.678 Q2215.34 135.678 2215.87 135.747 Q2216.4 135.794 2217.05 135.909 L2217.07 140.284 Z" fill="#000000" fill-rule="nonzero" fill-opacity="1" /><path clip-path="url(#clip160)" d="M2242.68 148.201 L2242.68 150.284 L2223.09 150.284 Q2223.37 154.682 2225.73 156.997 Q2228.12 159.289 2232.35 159.289 Q2234.81 159.289 2237.1 158.687 Q2239.41 158.085 2241.68 156.881 L2241.68 160.909 Q2239.39 161.881 2236.98 162.391 Q2234.57 162.9 2232.1 162.9 Q2225.89 162.9 2222.26 159.289 Q2218.65 155.678 2218.65 149.52 Q2218.65 143.155 2222.07 139.428 Q2225.52 135.678 2231.36 135.678 Q2236.59 135.678 2239.62 139.057 Q2242.68 142.414 2242.68 148.201 M2238.42 146.951 Q2238.37 143.456 2236.45 141.372 Q2234.55 139.289 2231.4 139.289 Q2227.84 139.289 2225.69 141.303 Q2223.56 143.317 2223.23 146.974 L2238.42 146.951 Z" fill="#000000" fill-rule="nonzero" fill-opacity="1" /><path clip-path="url(#clip160)" d="M2249 126.257 L2252.7 126.257 Q2256.17 131.72 2257.88 136.951 Q2259.62 142.182 2259.62 147.344 Q2259.62 152.53 2257.88 157.784 Q2256.17 163.039 2252.7 168.479 L2249 168.479 Q2252.07 163.178 2253.58 157.946 Q2255.11 152.692 2255.11 147.344 Q2255.11 141.997 2253.58 136.789 Q2252.07 131.581 2249 126.257 Z" fill="#000000" fill-rule="nonzero" fill-opacity="1" /><polyline clip-path="url(#clip160)" style="stroke:#e26f46; stroke-linecap:round; stroke-linejoin:round; stroke-width:4; stroke-opacity:1; fill:none" points="1626.4,196.789 1766.11,196.789 "/>
<path clip-path="url(#clip160)" d="M1789.39 179.509 L1795.69 179.509 L1811.01 208.421 L1811.01 179.509 L1815.55 179.509 L1815.55 214.069 L1809.25 214.069 L1793.93 185.157 L1793.93 214.069 L1789.39 214.069 L1789.39 179.509 Z" fill="#000000" fill-rule="nonzero" fill-opacity="1" /><path clip-path="url(#clip160)" d="M1846.84 200.041 L1846.84 202.124 L1827.26 202.124 Q1827.54 206.522 1829.9 208.837 Q1832.28 211.129 1836.52 211.129 Q1838.97 211.129 1841.27 210.527 Q1843.58 209.925 1845.85 208.721 L1845.85 212.749 Q1843.56 213.721 1841.15 214.231 Q1838.74 214.74 1836.27 214.74 Q1830.06 214.74 1826.43 211.129 Q1822.82 207.518 1822.82 201.36 Q1822.82 194.995 1826.24 191.268 Q1829.69 187.518 1835.53 187.518 Q1840.76 187.518 1843.79 190.897 Q1846.84 194.254 1846.84 200.041 M1842.59 198.791 Q1842.54 195.296 1840.62 193.212 Q1838.72 191.129 1835.57 191.129 Q1832.01 191.129 1829.85 193.143 Q1827.72 195.157 1827.4 198.814 L1842.59 198.791 Z" fill="#000000" fill-rule="nonzero" fill-opacity="1" /><path clip-path="url(#clip160)" d="M1853.4 203.837 L1853.4 188.143 L1857.65 188.143 L1857.65 203.675 Q1857.65 207.356 1859.09 209.208 Q1860.53 211.036 1863.4 211.036 Q1866.84 211.036 1868.84 208.837 Q1870.85 206.638 1870.85 202.842 L1870.85 188.143 L1875.11 188.143 L1875.11 214.069 L1870.85 214.069 L1870.85 210.087 Q1869.3 212.448 1867.24 213.606 Q1865.2 214.74 1862.49 214.74 Q1858.03 214.74 1855.71 211.962 Q1853.4 209.184 1853.4 203.837 M1864.11 187.518 L1864.11 187.518 Z" fill="#000000" fill-rule="nonzero" fill-opacity="1" /><path clip-path="url(#clip160)" d="M1898.9 192.124 Q1898.19 191.708 1897.33 191.522 Q1896.5 191.314 1895.48 191.314 Q1891.87 191.314 1889.92 193.675 Q1888 196.013 1888 200.411 L1888 214.069 L1883.72 214.069 L1883.72 188.143 L1888 188.143 L1888 192.171 Q1889.34 189.809 1891.5 188.675 Q1893.65 187.518 1896.73 187.518 Q1897.17 187.518 1897.7 187.587 Q1898.23 187.634 1898.88 187.749 L1898.9 192.124 Z" fill="#000000" fill-rule="nonzero" fill-opacity="1" /><path clip-path="url(#clip160)" d="M1915.15 201.036 Q1909.99 201.036 1908 202.217 Q1906.01 203.397 1906.01 206.245 Q1906.01 208.513 1907.49 209.856 Q1909 211.175 1911.57 211.175 Q1915.11 211.175 1917.24 208.675 Q1919.39 206.152 1919.39 201.985 L1919.39 201.036 L1915.15 201.036 M1923.65 199.277 L1923.65 214.069 L1919.39 214.069 L1919.39 210.133 Q1917.93 212.495 1915.76 213.629 Q1913.58 214.74 1910.43 214.74 Q1906.45 214.74 1904.09 212.518 Q1901.75 210.272 1901.75 206.522 Q1901.75 202.147 1904.67 199.925 Q1907.61 197.703 1913.42 197.703 L1919.39 197.703 L1919.39 197.286 Q1919.39 194.347 1917.45 192.749 Q1915.52 191.129 1912.03 191.129 Q1909.81 191.129 1907.7 191.661 Q1905.59 192.194 1903.65 193.259 L1903.65 189.323 Q1905.99 188.421 1908.19 187.981 Q1910.39 187.518 1912.47 187.518 Q1918.09 187.518 1920.87 190.434 Q1923.65 193.351 1923.65 199.277 Z" fill="#000000" fill-rule="nonzero" fill-opacity="1" /><path clip-path="url(#clip160)" d="M1932.42 178.05 L1936.68 178.05 L1936.68 214.069 L1932.42 214.069 L1932.42 178.05 Z" fill="#000000" fill-rule="nonzero" fill-opacity="1" /><path clip-path="url(#clip160)" d="M1960.85 179.509 L1980.71 179.509 L1980.71 183.444 L1965.52 183.444 L1965.52 193.629 L1979.23 193.629 L1979.23 197.564 L1965.52 197.564 L1965.52 214.069 L1960.85 214.069 L1960.85 179.509 Z" fill="#000000" fill-rule="nonzero" fill-opacity="1" /><path clip-path="url(#clip160)" d="M1988.12 179.509 L1995.08 179.509 L2003.9 203.027 L2012.77 179.509 L2019.74 179.509 L2019.74 214.069 L2015.18 214.069 L2015.18 183.722 L2006.27 207.425 L2001.57 207.425 L1992.65 183.722 L1992.65 214.069 L1988.12 214.069 L1988.12 179.509 Z" fill="#000000" fill-rule="nonzero" fill-opacity="1" /><path clip-path="url(#clip160)" d="M2028.49 179.509 L2033.19 179.509 L2033.19 200.504 Q2033.19 206.059 2035.2 208.513 Q2037.21 210.944 2041.73 210.944 Q2046.22 210.944 2048.23 208.513 Q2050.25 206.059 2050.25 200.504 L2050.25 179.509 L2054.95 179.509 L2054.95 201.083 Q2054.95 207.842 2051.59 211.291 Q2048.26 214.74 2041.73 214.74 Q2035.18 214.74 2031.82 211.291 Q2028.49 207.842 2028.49 201.083 L2028.49 179.509 Z" fill="#000000" fill-rule="nonzero" fill-opacity="1" /><path clip-path="url(#clip160)" d="M2088.83 178.097 Q2085.73 183.421 2084.23 188.629 Q2082.72 193.837 2082.72 199.184 Q2082.72 204.532 2084.23 209.786 Q2085.76 215.018 2088.83 220.319 L2085.13 220.319 Q2081.66 214.879 2079.92 209.624 Q2078.21 204.37 2078.21 199.184 Q2078.21 194.022 2079.92 188.791 Q2081.64 183.56 2085.13 178.097 L2088.83 178.097 Z" fill="#000000" fill-rule="nonzero" fill-opacity="1" /><path clip-path="url(#clip160)" d="M2108.88 201.036 Q2103.72 201.036 2101.73 202.217 Q2099.74 203.397 2099.74 206.245 Q2099.74 208.513 2101.22 209.856 Q2102.72 211.175 2105.29 211.175 Q2108.83 211.175 2110.96 208.675 Q2113.12 206.152 2113.12 201.985 L2113.12 201.036 L2108.88 201.036 M2117.38 199.277 L2117.38 214.069 L2113.12 214.069 L2113.12 210.133 Q2111.66 212.495 2109.48 213.629 Q2107.31 214.74 2104.16 214.74 Q2100.18 214.74 2097.82 212.518 Q2095.48 210.272 2095.48 206.522 Q2095.48 202.147 2098.39 199.925 Q2101.33 197.703 2107.14 197.703 L2113.12 197.703 L2113.12 197.286 Q2113.12 194.347 2111.17 192.749 Q2109.25 191.129 2105.76 191.129 Q2103.53 191.129 2101.43 191.661 Q2099.32 192.194 2097.38 193.259 L2097.38 189.323 Q2099.71 188.421 2101.91 187.981 Q2104.11 187.518 2106.2 187.518 Q2111.82 187.518 2114.6 190.434 Q2117.38 193.351 2117.38 199.277 Z" fill="#000000" fill-rule="nonzero" fill-opacity="1" /><path clip-path="url(#clip160)" d="M2139.27 178.05 L2139.27 181.592 L2135.2 181.592 Q2132.91 181.592 2132.01 182.518 Q2131.13 183.444 2131.13 185.851 L2131.13 188.143 L2138.14 188.143 L2138.14 191.453 L2131.13 191.453 L2131.13 214.069 L2126.84 214.069 L2126.84 191.453 L2122.77 191.453 L2122.77 188.143 L2126.84 188.143 L2126.84 186.337 Q2126.84 182.009 2128.86 180.041 Q2130.87 178.05 2135.25 178.05 L2139.27 178.05 Z" fill="#000000" fill-rule="nonzero" fill-opacity="1" /><path clip-path="url(#clip160)" d="M2146.22 180.782 L2146.22 188.143 L2154.99 188.143 L2154.99 191.453 L2146.22 191.453 L2146.22 205.527 Q2146.22 208.698 2147.07 209.601 Q2147.95 210.504 2150.62 210.504 L2154.99 210.504 L2154.99 214.069 L2150.62 214.069 Q2145.69 214.069 2143.81 212.24 Q2141.94 210.388 2141.94 205.527 L2141.94 191.453 L2138.81 191.453 L2138.81 188.143 L2141.94 188.143 L2141.94 180.782 L2146.22 180.782 Z" fill="#000000" fill-rule="nonzero" fill-opacity="1" /><path clip-path="url(#clip160)" d="M2182.77 200.041 L2182.77 202.124 L2163.19 202.124 Q2163.46 206.522 2165.82 208.837 Q2168.21 211.129 2172.44 211.129 Q2174.9 211.129 2177.19 210.527 Q2179.5 209.925 2181.77 208.721 L2181.77 212.749 Q2179.48 213.721 2177.07 214.231 Q2174.67 214.74 2172.19 214.74 Q2165.99 214.74 2162.35 211.129 Q2158.74 207.518 2158.74 201.36 Q2158.74 194.995 2162.17 191.268 Q2165.62 187.518 2171.45 187.518 Q2176.68 187.518 2179.71 190.897 Q2182.77 194.254 2182.77 200.041 M2178.51 198.791 Q2178.46 195.296 2176.54 193.212 Q2174.64 191.129 2171.5 191.129 Q2167.93 191.129 2165.78 193.143 Q2163.65 195.157 2163.32 198.814 L2178.51 198.791 Z" fill="#000000" fill-rule="nonzero" fill-opacity="1" /><path clip-path="url(#clip160)" d="M2204.78 192.124 Q2204.07 191.708 2203.21 191.522 Q2202.38 191.314 2201.36 191.314 Q2197.75 191.314 2195.8 193.675 Q2193.88 196.013 2193.88 200.411 L2193.88 214.069 L2189.6 214.069 L2189.6 188.143 L2193.88 188.143 L2193.88 192.171 Q2195.22 189.809 2197.38 188.675 Q2199.53 187.518 2202.61 187.518 Q2203.05 187.518 2203.58 187.587 Q2204.11 187.634 2204.76 187.749 L2204.78 192.124 Z" fill="#000000" fill-rule="nonzero" fill-opacity="1" /><path clip-path="url(#clip160)" d="M2208.58 178.097 L2212.28 178.097 Q2215.75 183.56 2217.47 188.791 Q2219.2 194.022 2219.2 199.184 Q2219.2 204.37 2217.47 209.624 Q2215.75 214.879 2212.28 220.319 L2208.58 220.319 Q2211.66 215.018 2213.16 209.786 Q2214.69 204.532 2214.69 199.184 Q2214.69 193.837 2213.16 188.629 Q2211.66 183.421 2208.58 178.097 Z" fill="#000000" fill-rule="nonzero" fill-opacity="1" /><polyline clip-path="url(#clip160)" style="stroke:#3da44d; stroke-linecap:round; stroke-linejoin:round; stroke-width:4; stroke-opacity:1; fill:none" points="1626.4,248.629 1766.11,248.629 "/>
<path clip-path="url(#clip160)" d="M1808.3 252.645 Q1808.3 248.015 1806.38 245.469 Q1804.48 242.923 1801.03 242.923 Q1797.61 242.923 1795.69 245.469 Q1793.79 248.015 1793.79 252.645 Q1793.79 257.251 1795.69 259.798 Q1797.61 262.344 1801.03 262.344 Q1804.48 262.344 1806.38 259.798 Q1808.3 257.251 1808.3 252.645 M1812.56 262.691 Q1812.56 269.311 1809.62 272.529 Q1806.68 275.77 1800.62 275.77 Q1798.37 275.77 1796.38 275.422 Q1794.39 275.098 1792.52 274.404 L1792.52 270.26 Q1794.39 271.279 1796.22 271.765 Q1798.05 272.251 1799.95 272.251 Q1804.14 272.251 1806.22 270.052 Q1808.3 267.876 1808.3 263.455 L1808.3 261.348 Q1806.98 263.64 1804.92 264.774 Q1802.86 265.909 1799.99 265.909 Q1795.22 265.909 1792.31 262.274 Q1789.39 258.64 1789.39 252.645 Q1789.39 246.626 1792.31 242.992 Q1795.22 239.358 1799.99 239.358 Q1802.86 239.358 1804.92 240.492 Q1806.98 241.626 1808.3 243.918 L1808.3 239.983 L1812.56 239.983 L1812.56 262.691 Z" fill="#000000" fill-rule="nonzero" fill-opacity="1" /><path clip-path="url(#clip160)" d="M1836.36 243.964 Q1835.64 243.548 1834.78 243.362 Q1833.95 243.154 1832.93 243.154 Q1829.32 243.154 1827.38 245.515 Q1825.46 247.853 1825.46 252.251 L1825.46 265.909 L1821.17 265.909 L1821.17 239.983 L1825.46 239.983 L1825.46 244.011 Q1826.8 241.649 1828.95 240.515 Q1831.1 239.358 1834.18 239.358 Q1834.62 239.358 1835.15 239.427 Q1835.69 239.474 1836.34 239.589 L1836.36 243.964 Z" fill="#000000" fill-rule="nonzero" fill-opacity="1" /><path clip-path="url(#clip160)" d="M1849.83 242.969 Q1846.4 242.969 1844.41 245.654 Q1842.42 248.316 1842.42 252.969 Q1842.42 257.622 1844.39 260.307 Q1846.38 262.969 1849.83 262.969 Q1853.23 262.969 1855.22 260.284 Q1857.22 257.598 1857.22 252.969 Q1857.22 248.362 1855.22 245.677 Q1853.23 242.969 1849.83 242.969 M1849.83 239.358 Q1855.39 239.358 1858.56 242.969 Q1861.73 246.58 1861.73 252.969 Q1861.73 259.335 1858.56 262.969 Q1855.39 266.58 1849.83 266.58 Q1844.25 266.58 1841.08 262.969 Q1837.93 259.335 1837.93 252.969 Q1837.93 246.58 1841.08 242.969 Q1844.25 239.358 1849.83 239.358 Z" fill="#000000" fill-rule="nonzero" fill-opacity="1" /><path clip-path="url(#clip160)" d="M1868.35 255.677 L1868.35 239.983 L1872.61 239.983 L1872.61 255.515 Q1872.61 259.196 1874.04 261.048 Q1875.48 262.876 1878.35 262.876 Q1881.8 262.876 1883.79 260.677 Q1885.8 258.478 1885.8 254.682 L1885.8 239.983 L1890.06 239.983 L1890.06 265.909 L1885.8 265.909 L1885.8 261.927 Q1884.25 264.288 1882.19 265.446 Q1880.15 266.58 1877.45 266.58 Q1872.98 266.58 1870.66 263.802 Q1868.35 261.024 1868.35 255.677 M1879.07 239.358 L1879.07 239.358 Z" fill="#000000" fill-rule="nonzero" fill-opacity="1" /><path clip-path="url(#clip160)" d="M1920.39 250.261 L1920.39 265.909 L1916.13 265.909 L1916.13 250.399 Q1916.13 246.719 1914.69 244.89 Q1913.26 243.062 1910.39 243.062 Q1906.94 243.062 1904.95 245.261 Q1902.96 247.46 1902.96 251.256 L1902.96 265.909 L1898.67 265.909 L1898.67 239.983 L1902.96 239.983 L1902.96 244.011 Q1904.48 241.673 1906.54 240.515 Q1908.63 239.358 1911.34 239.358 Q1915.8 239.358 1918.09 242.136 Q1920.39 244.89 1920.39 250.261 Z" fill="#000000" fill-rule="nonzero" fill-opacity="1" /><path clip-path="url(#clip160)" d="M1945.94 243.918 L1945.94 229.89 L1950.2 229.89 L1950.2 265.909 L1945.94 265.909 L1945.94 262.02 Q1944.6 264.335 1942.54 265.469 Q1940.5 266.58 1937.63 266.58 Q1932.93 266.58 1929.97 262.83 Q1927.03 259.08 1927.03 252.969 Q1927.03 246.858 1929.97 243.108 Q1932.93 239.358 1937.63 239.358 Q1940.5 239.358 1942.54 240.492 Q1944.6 241.603 1945.94 243.918 M1931.43 252.969 Q1931.43 257.668 1933.35 260.353 Q1935.29 263.015 1938.67 263.015 Q1942.05 263.015 1944 260.353 Q1945.94 257.668 1945.94 252.969 Q1945.94 248.27 1944 245.608 Q1942.05 242.923 1938.67 242.923 Q1935.29 242.923 1933.35 245.608 Q1931.43 248.27 1931.43 252.969 Z" fill="#000000" fill-rule="nonzero" fill-opacity="1" /><path clip-path="url(#clip160)" d="M1978.26 232.622 L1978.26 239.983 L1987.03 239.983 L1987.03 243.293 L1978.26 243.293 L1978.26 257.367 Q1978.26 260.538 1979.11 261.441 Q1979.99 262.344 1982.65 262.344 L1987.03 262.344 L1987.03 265.909 L1982.65 265.909 Q1977.72 265.909 1975.85 264.08 Q1973.97 262.228 1973.97 257.367 L1973.97 243.293 L1970.85 243.293 L1970.85 239.983 L1973.97 239.983 L1973.97 232.622 L1978.26 232.622 Z" fill="#000000" fill-rule="nonzero" fill-opacity="1" /><path clip-path="url(#clip160)" d="M2007.65 243.964 Q2006.94 243.548 2006.08 243.362 Q2005.25 243.154 2004.23 243.154 Q2000.62 243.154 1998.67 245.515 Q1996.75 247.853 1996.75 252.251 L1996.75 265.909 L1992.47 265.909 L1992.47 239.983 L1996.75 239.983 L1996.75 244.011 Q1998.09 241.649 2000.25 240.515 Q2002.4 239.358 2005.48 239.358 Q2005.92 239.358 2006.45 239.427 Q2006.98 239.474 2007.63 239.589 L2007.65 243.964 Z" fill="#000000" fill-rule="nonzero" fill-opacity="1" /><path clip-path="url(#clip160)" d="M2011.68 255.677 L2011.68 239.983 L2015.94 239.983 L2015.94 255.515 Q2015.94 259.196 2017.38 261.048 Q2018.81 262.876 2021.68 262.876 Q2025.13 262.876 2027.12 260.677 Q2029.14 258.478 2029.14 254.682 L2029.14 239.983 L2033.39 239.983 L2033.39 265.909 L2029.14 265.909 L2029.14 261.927 Q2027.58 264.288 2025.52 265.446 Q2023.49 266.58 2020.78 266.58 Q2016.31 266.58 2014 263.802 Q2011.68 261.024 2011.68 255.677 M2022.4 239.358 L2022.4 239.358 Z" fill="#000000" fill-rule="nonzero" fill-opacity="1" /><path clip-path="url(#clip160)" d="M2046.38 232.622 L2046.38 239.983 L2055.15 239.983 L2055.15 243.293 L2046.38 243.293 L2046.38 257.367 Q2046.38 260.538 2047.24 261.441 Q2048.12 262.344 2050.78 262.344 L2055.15 262.344 L2055.15 265.909 L2050.78 265.909 Q2045.85 265.909 2043.97 264.08 Q2042.1 262.228 2042.1 257.367 L2042.1 243.293 L2038.97 243.293 L2038.97 239.983 L2042.1 239.983 L2042.1 232.622 L2046.38 232.622 Z" fill="#000000" fill-rule="nonzero" fill-opacity="1" /><path clip-path="url(#clip160)" d="M2082.31 250.261 L2082.31 265.909 L2078.05 265.909 L2078.05 250.399 Q2078.05 246.719 2076.61 244.89 Q2075.18 243.062 2072.31 243.062 Q2068.86 243.062 2066.87 245.261 Q2064.88 247.46 2064.88 251.256 L2064.88 265.909 L2060.59 265.909 L2060.59 229.89 L2064.88 229.89 L2064.88 244.011 Q2066.4 241.673 2068.46 240.515 Q2070.55 239.358 2073.26 239.358 Q2077.72 239.358 2080.01 242.136 Q2082.31 244.89 2082.31 250.261 Z" fill="#000000" fill-rule="nonzero" fill-opacity="1" /></svg>
