<?xml version="1.0" encoding="utf-8"?>
<svg xmlns="http://www.w3.org/2000/svg" xmlns:xlink="http://www.w3.org/1999/xlink" width="600" height="400" viewBox="0 0 2400 1600">
<defs>
  <clipPath id="clip980">
    <rect x="0" y="0" width="2400" height="1600"/>
  </clipPath>
</defs>
<path clip-path="url(#clip980)" d="M0 1600 L2400 1600 L2400 0 L0 0  Z" fill="#ffffff" fill-rule="evenodd" fill-opacity="1"/>
<defs>
  <clipPath id="clip981">
    <rect x="480" y="0" width="1681" height="1600"/>
  </clipPath>
</defs>
<path clip-path="url(#clip980)" d="M224.098 1423.18 L2352.76 1423.18 L2352.76 47.2441 L224.098 47.2441  Z" fill="#ffffff" fill-rule="evenodd" fill-opacity="1"/>
<defs>
  <clipPath id="clip982">
    <rect x="224" y="47" width="2130" height="1377"/>
  </clipPath>
</defs>
<polyline clip-path="url(#clip982)" style="stroke:#000000; stroke-linecap:round; stroke-linejoin:round; stroke-width:2; stroke-opacity:0.1; fill:none" points="284.343,1423.18 284.343,47.2441 "/>
<polyline clip-path="url(#clip982)" style="stroke:#000000; stroke-linecap:round; stroke-linejoin:round; stroke-width:2; stroke-opacity:0.1; fill:none" points="685.977,1423.18 685.977,47.2441 "/>
<polyline clip-path="url(#clip982)" style="stroke:#000000; stroke-linecap:round; stroke-linejoin:round; stroke-width:2; stroke-opacity:0.1; fill:none" points="1087.61,1423.18 1087.61,47.2441 "/>
<polyline clip-path="url(#clip982)" style="stroke:#000000; stroke-linecap:round; stroke-linejoin:round; stroke-width:2; stroke-opacity:0.1; fill:none" points="1489.24,1423.18 1489.24,47.2441 "/>
<polyline clip-path="url(#clip982)" style="stroke:#000000; stroke-linecap:round; stroke-linejoin:round; stroke-width:2; stroke-opacity:0.1; fill:none" points="1890.88,1423.18 1890.88,47.2441 "/>
<polyline clip-path="url(#clip982)" style="stroke:#000000; stroke-linecap:round; stroke-linejoin:round; stroke-width:2; stroke-opacity:0.1; fill:none" points="2292.51,1423.18 2292.51,47.2441 "/>
<polyline clip-path="url(#clip982)" style="stroke:#000000; stroke-linecap:round; stroke-linejoin:round; stroke-width:2; stroke-opacity:0.1; fill:none" points="224.098,1289.66 2352.76,1289.66 "/>
<polyline clip-path="url(#clip982)" style="stroke:#000000; stroke-linecap:round; stroke-linejoin:round; stroke-width:2; stroke-opacity:0.1; fill:none" points="224.098,1104.85 2352.76,1104.85 "/>
<polyline clip-path="url(#clip982)" style="stroke:#000000; stroke-linecap:round; stroke-linejoin:round; stroke-width:2; stroke-opacity:0.1; fill:none" points="224.098,920.034 2352.76,920.034 "/>
<polyline clip-path="url(#clip982)" style="stroke:#000000; stroke-linecap:round; stroke-linejoin:round; stroke-width:2; stroke-opacity:0.1; fill:none" points="224.098,735.221 2352.76,735.221 "/>
<polyline clip-path="url(#clip982)" style="stroke:#000000; stroke-linecap:round; stroke-linejoin:round; stroke-width:2; stroke-opacity:0.1; fill:none" points="224.098,550.408 2352.76,550.408 "/>
<polyline clip-path="url(#clip982)" style="stroke:#000000; stroke-linecap:round; stroke-linejoin:round; stroke-width:2; stroke-opacity:0.1; fill:none" points="224.098,365.595 2352.76,365.595 "/>
<polyline clip-path="url(#clip982)" style="stroke:#000000; stroke-linecap:round; stroke-linejoin:round; stroke-width:2; stroke-opacity:0.1; fill:none" points="224.098,180.782 2352.76,180.782 "/>
<polyline clip-path="url(#clip980)" style="stroke:#000000; stroke-linecap:round; stroke-linejoin:round; stroke-width:4; stroke-opacity:1; fill:none" points="224.098,1423.18 2352.76,1423.18 "/>
<polyline clip-path="url(#clip980)" style="stroke:#000000; stroke-linecap:round; stroke-linejoin:round; stroke-width:4; stroke-opacity:1; fill:none" points="284.343,1423.18 284.343,1404.28 "/>
<polyline clip-path="url(#clip980)" style="stroke:#000000; stroke-linecap:round; stroke-linejoin:round; stroke-width:4; stroke-opacity:1; fill:none" points="685.977,1423.18 685.977,1404.28 "/>
<polyline clip-path="url(#clip980)" style="stroke:#000000; stroke-linecap:round; stroke-linejoin:round; stroke-width:4; stroke-opacity:1; fill:none" points="1087.61,1423.18 1087.61,1404.28 "/>
<polyline clip-path="url(#clip980)" style="stroke:#000000; stroke-linecap:round; stroke-linejoin:round; stroke-width:4; stroke-opacity:1; fill:none" points="1489.24,1423.18 1489.24,1404.28 "/>
<polyline clip-path="url(#clip980)" style="stroke:#000000; stroke-linecap:round; stroke-linejoin:round; stroke-width:4; stroke-opacity:1; fill:none" points="1890.88,1423.18 1890.88,1404.28 "/>
<polyline clip-path="url(#clip980)" style="stroke:#000000; stroke-linecap:round; stroke-linejoin:round; stroke-width:4; stroke-opacity:1; fill:none" points="2292.51,1423.18 2292.51,1404.28 "/>
<path clip-path="url(#clip980)" d="M284.343 1454.1 Q280.732 1454.1 278.903 1457.66 Q277.098 1461.2 277.098 1468.33 Q277.098 1475.44 278.903 1479.01 Q280.732 1482.55 284.343 1482.55 Q287.977 1482.55 289.783 1479.01 Q291.611 1475.44 291.611 1468.33 Q291.611 1461.2 289.783 1457.66 Q287.977 1454.1 284.343 1454.1 M284.343 1450.39 Q290.153 1450.39 293.209 1455 Q296.287 1459.58 296.287 1468.33 Q296.287 1477.06 293.209 1481.67 Q290.153 1486.25 284.343 1486.25 Q278.533 1486.25 275.454 1481.67 Q272.399 1477.06 272.399 1468.33 Q272.399 1459.58 275.454 1455 Q278.533 1450.39 284.343 1450.39 Z" fill="#000000" fill-rule="nonzero" fill-opacity="1" /><path clip-path="url(#clip980)" d="M676.358 1481.64 L683.997 1481.64 L683.997 1455.28 L675.687 1456.95 L675.687 1452.69 L683.951 1451.02 L688.627 1451.02 L688.627 1481.64 L696.266 1481.64 L696.266 1485.58 L676.358 1485.58 L676.358 1481.64 Z" fill="#000000" fill-rule="nonzero" fill-opacity="1" /><path clip-path="url(#clip980)" d="M1082.26 1481.64 L1098.58 1481.64 L1098.58 1485.58 L1076.64 1485.58 L1076.64 1481.64 Q1079.3 1478.89 1083.88 1474.26 Q1088.49 1469.61 1089.67 1468.27 Q1091.92 1465.74 1092.8 1464.01 Q1093.7 1462.25 1093.7 1460.56 Q1093.7 1457.8 1091.75 1456.07 Q1089.83 1454.33 1086.73 1454.33 Q1084.53 1454.33 1082.08 1455.09 Q1079.65 1455.86 1076.87 1457.41 L1076.87 1452.69 Q1079.69 1451.55 1082.15 1450.97 Q1084.6 1450.39 1086.64 1450.39 Q1092.01 1450.39 1095.2 1453.08 Q1098.4 1455.77 1098.4 1460.26 Q1098.4 1462.39 1097.59 1464.31 Q1096.8 1466.2 1094.69 1468.8 Q1094.11 1469.47 1091.01 1472.69 Q1087.91 1475.88 1082.26 1481.64 Z" fill="#000000" fill-rule="nonzero" fill-opacity="1" /><path clip-path="url(#clip980)" d="M1493.49 1466.95 Q1496.85 1467.66 1498.72 1469.93 Q1500.62 1472.2 1500.62 1475.53 Q1500.62 1480.65 1497.1 1483.45 Q1493.58 1486.25 1487.1 1486.25 Q1484.93 1486.25 1482.61 1485.81 Q1480.32 1485.39 1477.87 1484.54 L1477.87 1480.02 Q1479.81 1481.16 1482.13 1481.74 Q1484.44 1482.32 1486.96 1482.32 Q1491.36 1482.32 1493.65 1480.58 Q1495.97 1478.84 1495.97 1475.53 Q1495.97 1472.48 1493.82 1470.77 Q1491.69 1469.03 1487.87 1469.03 L1483.84 1469.03 L1483.84 1465.19 L1488.05 1465.19 Q1491.5 1465.19 1493.33 1463.82 Q1495.16 1462.43 1495.16 1459.84 Q1495.16 1457.18 1493.26 1455.77 Q1491.38 1454.33 1487.87 1454.33 Q1485.95 1454.33 1483.75 1454.75 Q1481.55 1455.16 1478.91 1456.04 L1478.91 1451.88 Q1481.57 1451.14 1483.88 1450.77 Q1486.22 1450.39 1488.28 1450.39 Q1493.61 1450.39 1496.71 1452.83 Q1499.81 1455.23 1499.81 1459.35 Q1499.81 1462.22 1498.17 1464.21 Q1496.52 1466.18 1493.49 1466.95 Z" fill="#000000" fill-rule="nonzero" fill-opacity="1" /><path clip-path="url(#clip980)" d="M1893.89 1455.09 L1882.08 1473.54 L1893.89 1473.54 L1893.89 1455.09 M1892.66 1451.02 L1898.54 1451.02 L1898.54 1473.54 L1903.47 1473.54 L1903.47 1477.43 L1898.54 1477.43 L1898.54 1485.58 L1893.89 1485.58 L1893.89 1477.43 L1878.28 1477.43 L1878.28 1472.92 L1892.66 1451.02 Z" fill="#000000" fill-rule="nonzero" fill-opacity="1" /><path clip-path="url(#clip980)" d="M2282.79 1451.02 L2301.15 1451.02 L2301.15 1454.96 L2287.07 1454.96 L2287.07 1463.43 Q2288.09 1463.08 2289.11 1462.92 Q2290.13 1462.73 2291.15 1462.73 Q2296.93 1462.73 2300.31 1465.9 Q2303.69 1469.08 2303.69 1474.49 Q2303.69 1480.07 2300.22 1483.17 Q2296.75 1486.25 2290.43 1486.25 Q2288.25 1486.25 2285.98 1485.88 Q2283.74 1485.51 2281.33 1484.77 L2281.33 1480.07 Q2283.41 1481.2 2285.64 1481.76 Q2287.86 1482.32 2290.33 1482.32 Q2294.34 1482.32 2296.68 1480.21 Q2299.02 1478.1 2299.02 1474.49 Q2299.02 1470.88 2296.68 1468.77 Q2294.34 1466.67 2290.33 1466.67 Q2288.46 1466.67 2286.58 1467.08 Q2284.73 1467.5 2282.79 1468.38 L2282.79 1451.02 Z" fill="#000000" fill-rule="nonzero" fill-opacity="1" /><path clip-path="url(#clip980)" d="M1236.74 1522.27 L1236.74 1532.4 L1248.8 1532.4 L1248.8 1536.95 L1236.74 1536.95 L1236.74 1556.3 Q1236.74 1560.66 1237.92 1561.9 Q1239.12 1563.14 1242.78 1563.14 L1248.8 1563.14 L1248.8 1568.04 L1242.78 1568.04 Q1236.01 1568.04 1233.43 1565.53 Q1230.85 1562.98 1230.85 1556.3 L1230.85 1536.95 L1226.55 1536.95 L1226.55 1532.4 L1230.85 1532.4 L1230.85 1522.27 L1236.74 1522.27 Z" fill="#000000" fill-rule="nonzero" fill-opacity="1" /><path clip-path="url(#clip980)" d="M1276.68 1518.52 L1290.18 1518.52 L1290.18 1523.07 L1282.54 1523.07 L1282.54 1572.09 L1290.18 1572.09 L1290.18 1576.64 L1276.68 1576.64 L1276.68 1518.52 Z" fill="#000000" fill-rule="nonzero" fill-opacity="1" /><path clip-path="url(#clip980)" d="M1325.38 1533.45 L1325.38 1538.98 Q1322.9 1537.71 1320.22 1537.07 Q1317.55 1536.44 1314.69 1536.44 Q1310.32 1536.44 1308.13 1537.77 Q1305.96 1539.11 1305.96 1541.79 Q1305.96 1543.82 1307.52 1545 Q1309.08 1546.15 1313.79 1547.2 L1315.8 1547.64 Q1322.04 1548.98 1324.65 1551.43 Q1327.29 1553.85 1327.29 1558.21 Q1327.29 1563.17 1323.34 1566.07 Q1319.43 1568.97 1312.55 1568.97 Q1309.69 1568.97 1306.57 1568.39 Q1303.48 1567.85 1300.04 1566.74 L1300.04 1560.69 Q1303.29 1562.38 1306.44 1563.24 Q1309.59 1564.07 1312.68 1564.07 Q1316.82 1564.07 1319.05 1562.66 Q1321.27 1561.23 1321.27 1558.65 Q1321.27 1556.27 1319.65 1554.99 Q1318.06 1553.72 1312.62 1552.54 L1310.58 1552.07 Q1305.14 1550.92 1302.72 1548.56 Q1300.3 1546.18 1300.3 1542.04 Q1300.3 1537.01 1303.86 1534.27 Q1307.43 1531.54 1313.99 1531.54 Q1317.23 1531.54 1320.1 1532.01 Q1322.96 1532.49 1325.38 1533.45 Z" fill="#000000" fill-rule="nonzero" fill-opacity="1" /><path clip-path="url(#clip980)" d="M1350.3 1518.52 L1350.3 1576.64 L1336.81 1576.64 L1336.81 1572.09 L1344.41 1572.09 L1344.41 1523.07 L1336.81 1523.07 L1336.81 1518.52 L1350.3 1518.52 Z" fill="#000000" fill-rule="nonzero" fill-opacity="1" /><polyline clip-path="url(#clip980)" style="stroke:#000000; stroke-linecap:round; stroke-linejoin:round; stroke-width:4; stroke-opacity:1; fill:none" points="224.098,1423.18 224.098,47.2441 "/>
<polyline clip-path="url(#clip980)" style="stroke:#000000; stroke-linecap:round; stroke-linejoin:round; stroke-width:4; stroke-opacity:1; fill:none" points="224.098,1289.66 242.996,1289.66 "/>
<polyline clip-path="url(#clip980)" style="stroke:#000000; stroke-linecap:round; stroke-linejoin:round; stroke-width:4; stroke-opacity:1; fill:none" points="224.098,1104.85 242.996,1104.85 "/>
<polyline clip-path="url(#clip980)" style="stroke:#000000; stroke-linecap:round; stroke-linejoin:round; stroke-width:4; stroke-opacity:1; fill:none" points="224.098,920.034 242.996,920.034 "/>
<polyline clip-path="url(#clip980)" style="stroke:#000000; stroke-linecap:round; stroke-linejoin:round; stroke-width:4; stroke-opacity:1; fill:none" points="224.098,735.221 242.996,735.221 "/>
<polyline clip-path="url(#clip980)" style="stroke:#000000; stroke-linecap:round; stroke-linejoin:round; stroke-width:4; stroke-opacity:1; fill:none" points="224.098,550.408 242.996,550.408 "/>
<polyline clip-path="url(#clip980)" style="stroke:#000000; stroke-linecap:round; stroke-linejoin:round; stroke-width:4; stroke-opacity:1; fill:none" points="224.098,365.595 242.996,365.595 "/>
<polyline clip-path="url(#clip980)" style="stroke:#000000; stroke-linecap:round; stroke-linejoin:round; stroke-width:4; stroke-opacity:1; fill:none" points="224.098,180.782 242.996,180.782 "/>
<path clip-path="url(#clip980)" d="M51.9875 1290.11 L81.6633 1290.11 L81.6633 1294.05 L51.9875 1294.05 L51.9875 1290.11 Z" fill="#000000" fill-rule="nonzero" fill-opacity="1" /><path clip-path="url(#clip980)" d="M101.756 1275.46 Q98.1447 1275.46 96.316 1279.02 Q94.5104 1282.56 94.5104 1289.69 Q94.5104 1296.8 96.316 1300.37 Q98.1447 1303.91 101.756 1303.91 Q105.39 1303.91 107.196 1300.37 Q109.024 1296.8 109.024 1289.69 Q109.024 1282.56 107.196 1279.02 Q105.39 1275.46 101.756 1275.46 M101.756 1271.75 Q107.566 1271.75 110.621 1276.36 Q113.7 1280.94 113.7 1289.69 Q113.7 1298.42 110.621 1303.03 Q107.566 1307.61 101.756 1307.61 Q95.9456 1307.61 92.8669 1303.03 Q89.8114 1298.42 89.8114 1289.69 Q89.8114 1280.94 92.8669 1276.36 Q95.9456 1271.75 101.756 1271.75 Z" fill="#000000" fill-rule="nonzero" fill-opacity="1" /><path clip-path="url(#clip980)" d="M121.918 1301.06 L126.802 1301.06 L126.802 1306.94 L121.918 1306.94 L121.918 1301.06 Z" fill="#000000" fill-rule="nonzero" fill-opacity="1" /><path clip-path="url(#clip980)" d="M135.806 1272.38 L158.029 1272.38 L158.029 1274.37 L145.482 1306.94 L140.598 1306.94 L152.404 1276.31 L135.806 1276.31 L135.806 1272.38 Z" fill="#000000" fill-rule="nonzero" fill-opacity="1" /><path clip-path="url(#clip980)" d="M167.195 1272.38 L185.552 1272.38 L185.552 1276.31 L171.478 1276.31 L171.478 1284.79 Q172.496 1284.44 173.515 1284.28 Q174.533 1284.09 175.552 1284.09 Q181.339 1284.09 184.718 1287.26 Q188.098 1290.43 188.098 1295.85 Q188.098 1301.43 184.626 1304.53 Q181.153 1307.61 174.834 1307.61 Q172.658 1307.61 170.39 1307.24 Q168.144 1306.87 165.737 1306.13 L165.737 1301.43 Q167.82 1302.56 170.042 1303.12 Q172.265 1303.68 174.741 1303.68 Q178.746 1303.68 181.084 1301.57 Q183.422 1299.46 183.422 1295.85 Q183.422 1292.24 181.084 1290.13 Q178.746 1288.03 174.741 1288.03 Q172.866 1288.03 170.991 1288.44 Q169.14 1288.86 167.195 1289.74 L167.195 1272.38 Z" fill="#000000" fill-rule="nonzero" fill-opacity="1" /><path clip-path="url(#clip980)" d="M50.9921 1105.3 L80.6679 1105.3 L80.6679 1109.23 L50.9921 1109.23 L50.9921 1105.3 Z" fill="#000000" fill-rule="nonzero" fill-opacity="1" /><path clip-path="url(#clip980)" d="M100.76 1090.65 Q97.1493 1090.65 95.3206 1094.21 Q93.515 1097.75 93.515 1104.88 Q93.515 1111.99 95.3206 1115.55 Q97.1493 1119.09 100.76 1119.09 Q104.395 1119.09 106.2 1115.55 Q108.029 1111.99 108.029 1104.88 Q108.029 1097.75 106.2 1094.21 Q104.395 1090.65 100.76 1090.65 M100.76 1086.94 Q106.571 1086.94 109.626 1091.55 Q112.705 1096.13 112.705 1104.88 Q112.705 1113.61 109.626 1118.21 Q106.571 1122.8 100.76 1122.8 Q94.9502 1122.8 91.8715 1118.21 Q88.816 1113.61 88.816 1104.88 Q88.816 1096.13 91.8715 1091.55 Q94.9502 1086.94 100.76 1086.94 Z" fill="#000000" fill-rule="nonzero" fill-opacity="1" /><path clip-path="url(#clip980)" d="M120.922 1116.25 L125.807 1116.25 L125.807 1122.13 L120.922 1122.13 L120.922 1116.25 Z" fill="#000000" fill-rule="nonzero" fill-opacity="1" /><path clip-path="url(#clip980)" d="M136.038 1087.57 L154.394 1087.57 L154.394 1091.5 L140.32 1091.5 L140.32 1099.97 Q141.339 1099.63 142.357 1099.46 Q143.376 1099.28 144.394 1099.28 Q150.181 1099.28 153.561 1102.45 Q156.941 1105.62 156.941 1111.04 Q156.941 1116.62 153.468 1119.72 Q149.996 1122.8 143.677 1122.8 Q141.501 1122.8 139.232 1122.43 Q136.987 1122.06 134.58 1121.32 L134.58 1116.62 Q136.663 1117.75 138.885 1118.31 Q141.107 1118.86 143.584 1118.86 Q147.589 1118.86 149.927 1116.76 Q152.265 1114.65 152.265 1111.04 Q152.265 1107.43 149.927 1105.32 Q147.589 1103.21 143.584 1103.21 Q141.709 1103.21 139.834 1103.63 Q137.982 1104.05 136.038 1104.93 L136.038 1087.57 Z" fill="#000000" fill-rule="nonzero" fill-opacity="1" /><path clip-path="url(#clip980)" d="M176.153 1090.65 Q172.542 1090.65 170.714 1094.21 Q168.908 1097.75 168.908 1104.88 Q168.908 1111.99 170.714 1115.55 Q172.542 1119.09 176.153 1119.09 Q179.788 1119.09 181.593 1115.55 Q183.422 1111.99 183.422 1104.88 Q183.422 1097.75 181.593 1094.21 Q179.788 1090.65 176.153 1090.65 M176.153 1086.94 Q181.964 1086.94 185.019 1091.55 Q188.098 1096.13 188.098 1104.88 Q188.098 1113.61 185.019 1118.21 Q181.964 1122.8 176.153 1122.8 Q170.343 1122.8 167.265 1118.21 Q164.209 1113.61 164.209 1104.88 Q164.209 1096.13 167.265 1091.55 Q170.343 1086.94 176.153 1086.94 Z" fill="#000000" fill-rule="nonzero" fill-opacity="1" /><path clip-path="url(#clip980)" d="M51.9875 920.485 L81.6633 920.485 L81.6633 924.42 L51.9875 924.42 L51.9875 920.485 Z" fill="#000000" fill-rule="nonzero" fill-opacity="1" /><path clip-path="url(#clip980)" d="M101.756 905.832 Q98.1447 905.832 96.316 909.397 Q94.5104 912.939 94.5104 920.068 Q94.5104 927.175 96.316 930.74 Q98.1447 934.281 101.756 934.281 Q105.39 934.281 107.196 930.74 Q109.024 927.175 109.024 920.068 Q109.024 912.939 107.196 909.397 Q105.39 905.832 101.756 905.832 M101.756 902.129 Q107.566 902.129 110.621 906.735 Q113.7 911.318 113.7 920.068 Q113.7 928.795 110.621 933.402 Q107.566 937.985 101.756 937.985 Q95.9456 937.985 92.8669 933.402 Q89.8114 928.795 89.8114 920.068 Q89.8114 911.318 92.8669 906.735 Q95.9456 902.129 101.756 902.129 Z" fill="#000000" fill-rule="nonzero" fill-opacity="1" /><path clip-path="url(#clip980)" d="M121.918 931.434 L126.802 931.434 L126.802 937.314 L121.918 937.314 L121.918 931.434 Z" fill="#000000" fill-rule="nonzero" fill-opacity="1" /><path clip-path="url(#clip980)" d="M141.015 933.379 L157.334 933.379 L157.334 937.314 L135.39 937.314 L135.39 933.379 Q138.052 930.624 142.635 925.994 Q147.242 921.342 148.422 919.999 Q150.668 917.476 151.547 915.74 Q152.45 913.98 152.45 912.291 Q152.45 909.536 150.505 907.8 Q148.584 906.064 145.482 906.064 Q143.283 906.064 140.83 906.828 Q138.399 907.592 135.621 909.143 L135.621 904.42 Q138.445 903.286 140.899 902.707 Q143.353 902.129 145.39 902.129 Q150.76 902.129 153.955 904.814 Q157.149 907.499 157.149 911.99 Q157.149 914.119 156.339 916.041 Q155.552 917.939 153.445 920.531 Q152.867 921.203 149.765 924.42 Q146.663 927.615 141.015 933.379 Z" fill="#000000" fill-rule="nonzero" fill-opacity="1" /><path clip-path="url(#clip980)" d="M167.195 902.754 L185.552 902.754 L185.552 906.689 L171.478 906.689 L171.478 915.161 Q172.496 914.814 173.515 914.652 Q174.533 914.467 175.552 914.467 Q181.339 914.467 184.718 917.638 Q188.098 920.809 188.098 926.226 Q188.098 931.804 184.626 934.906 Q181.153 937.985 174.834 937.985 Q172.658 937.985 170.39 937.615 Q168.144 937.244 165.737 936.504 L165.737 931.804 Q167.82 932.939 170.042 933.494 Q172.265 934.05 174.741 934.05 Q178.746 934.05 181.084 931.943 Q183.422 929.837 183.422 926.226 Q183.422 922.615 181.084 920.508 Q178.746 918.402 174.741 918.402 Q172.866 918.402 170.991 918.818 Q169.14 919.235 167.195 920.115 L167.195 902.754 Z" fill="#000000" fill-rule="nonzero" fill-opacity="1" /><path clip-path="url(#clip980)" d="M100.76 721.019 Q97.1493 721.019 95.3206 724.584 Q93.515 728.126 93.515 735.256 Q93.515 742.362 95.3206 745.927 Q97.1493 749.468 100.76 749.468 Q104.395 749.468 106.2 745.927 Q108.029 742.362 108.029 735.256 Q108.029 728.126 106.2 724.584 Q104.395 721.019 100.76 721.019 M100.76 717.316 Q106.571 717.316 109.626 721.922 Q112.705 726.506 112.705 735.256 Q112.705 743.982 109.626 748.589 Q106.571 753.172 100.76 753.172 Q94.9502 753.172 91.8715 748.589 Q88.816 743.982 88.816 735.256 Q88.816 726.506 91.8715 721.922 Q94.9502 717.316 100.76 717.316 Z" fill="#000000" fill-rule="nonzero" fill-opacity="1" /><path clip-path="url(#clip980)" d="M120.922 746.621 L125.807 746.621 L125.807 752.501 L120.922 752.501 L120.922 746.621 Z" fill="#000000" fill-rule="nonzero" fill-opacity="1" /><path clip-path="url(#clip980)" d="M145.992 721.019 Q142.381 721.019 140.552 724.584 Q138.746 728.126 138.746 735.256 Q138.746 742.362 140.552 745.927 Q142.381 749.468 145.992 749.468 Q149.626 749.468 151.431 745.927 Q153.26 742.362 153.26 735.256 Q153.26 728.126 151.431 724.584 Q149.626 721.019 145.992 721.019 M145.992 717.316 Q151.802 717.316 154.857 721.922 Q157.936 726.506 157.936 735.256 Q157.936 743.982 154.857 748.589 Q151.802 753.172 145.992 753.172 Q140.181 753.172 137.103 748.589 Q134.047 743.982 134.047 735.256 Q134.047 726.506 137.103 721.922 Q140.181 717.316 145.992 717.316 Z" fill="#000000" fill-rule="nonzero" fill-opacity="1" /><path clip-path="url(#clip980)" d="M176.153 721.019 Q172.542 721.019 170.714 724.584 Q168.908 728.126 168.908 735.256 Q168.908 742.362 170.714 745.927 Q172.542 749.468 176.153 749.468 Q179.788 749.468 181.593 745.927 Q183.422 742.362 183.422 735.256 Q183.422 728.126 181.593 724.584 Q179.788 721.019 176.153 721.019 M176.153 717.316 Q181.964 717.316 185.019 721.922 Q188.098 726.506 188.098 735.256 Q188.098 743.982 185.019 748.589 Q181.964 753.172 176.153 753.172 Q170.343 753.172 167.265 748.589 Q164.209 743.982 164.209 735.256 Q164.209 726.506 167.265 721.922 Q170.343 717.316 176.153 717.316 Z" fill="#000000" fill-rule="nonzero" fill-opacity="1" /><path clip-path="url(#clip980)" d="M101.756 536.207 Q98.1447 536.207 96.316 539.771 Q94.5104 543.313 94.5104 550.443 Q94.5104 557.549 96.316 561.114 Q98.1447 564.655 101.756 564.655 Q105.39 564.655 107.196 561.114 Q109.024 557.549 109.024 550.443 Q109.024 543.313 107.196 539.771 Q105.39 536.207 101.756 536.207 M101.756 532.503 Q107.566 532.503 110.621 537.109 Q113.7 541.693 113.7 550.443 Q113.7 559.169 110.621 563.776 Q107.566 568.359 101.756 568.359 Q95.9456 568.359 92.8669 563.776 Q89.8114 559.169 89.8114 550.443 Q89.8114 541.693 92.8669 537.109 Q95.9456 532.503 101.756 532.503 Z" fill="#000000" fill-rule="nonzero" fill-opacity="1" /><path clip-path="url(#clip980)" d="M121.918 561.808 L126.802 561.808 L126.802 567.688 L121.918 567.688 L121.918 561.808 Z" fill="#000000" fill-rule="nonzero" fill-opacity="1" /><path clip-path="url(#clip980)" d="M141.015 563.753 L157.334 563.753 L157.334 567.688 L135.39 567.688 L135.39 563.753 Q138.052 560.998 142.635 556.368 Q147.242 551.716 148.422 550.373 Q150.668 547.85 151.547 546.114 Q152.45 544.355 152.45 542.665 Q152.45 539.91 150.505 538.174 Q148.584 536.438 145.482 536.438 Q143.283 536.438 140.83 537.202 Q138.399 537.966 135.621 539.517 L135.621 534.795 Q138.445 533.66 140.899 533.082 Q143.353 532.503 145.39 532.503 Q150.76 532.503 153.955 535.188 Q157.149 537.873 157.149 542.364 Q157.149 544.494 156.339 546.415 Q155.552 548.313 153.445 550.906 Q152.867 551.577 149.765 554.794 Q146.663 557.989 141.015 563.753 Z" fill="#000000" fill-rule="nonzero" fill-opacity="1" /><path clip-path="url(#clip980)" d="M167.195 533.128 L185.552 533.128 L185.552 537.063 L171.478 537.063 L171.478 545.535 Q172.496 545.188 173.515 545.026 Q174.533 544.841 175.552 544.841 Q181.339 544.841 184.718 548.012 Q188.098 551.183 188.098 556.6 Q188.098 562.179 184.626 565.28 Q181.153 568.359 174.834 568.359 Q172.658 568.359 170.39 567.989 Q168.144 567.618 165.737 566.878 L165.737 562.179 Q167.82 563.313 170.042 563.868 Q172.265 564.424 174.741 564.424 Q178.746 564.424 181.084 562.318 Q183.422 560.211 183.422 556.6 Q183.422 552.989 181.084 550.882 Q178.746 548.776 174.741 548.776 Q172.866 548.776 170.991 549.193 Q169.14 549.609 167.195 550.489 L167.195 533.128 Z" fill="#000000" fill-rule="nonzero" fill-opacity="1" /><path clip-path="url(#clip980)" d="M100.76 351.394 Q97.1493 351.394 95.3206 354.958 Q93.515 358.5 93.515 365.63 Q93.515 372.736 95.3206 376.301 Q97.1493 379.843 100.76 379.843 Q104.395 379.843 106.2 376.301 Q108.029 372.736 108.029 365.63 Q108.029 358.5 106.2 354.958 Q104.395 351.394 100.76 351.394 M100.76 347.69 Q106.571 347.69 109.626 352.296 Q112.705 356.88 112.705 365.63 Q112.705 374.356 109.626 378.963 Q106.571 383.546 100.76 383.546 Q94.9502 383.546 91.8715 378.963 Q88.816 374.356 88.816 365.63 Q88.816 356.88 91.8715 352.296 Q94.9502 347.69 100.76 347.69 Z" fill="#000000" fill-rule="nonzero" fill-opacity="1" /><path clip-path="url(#clip980)" d="M120.922 376.995 L125.807 376.995 L125.807 382.875 L120.922 382.875 L120.922 376.995 Z" fill="#000000" fill-rule="nonzero" fill-opacity="1" /><path clip-path="url(#clip980)" d="M136.038 348.315 L154.394 348.315 L154.394 352.25 L140.32 352.25 L140.32 360.722 Q141.339 360.375 142.357 360.213 Q143.376 360.028 144.394 360.028 Q150.181 360.028 153.561 363.199 Q156.941 366.37 156.941 371.787 Q156.941 377.366 153.468 380.468 Q149.996 383.546 143.677 383.546 Q141.501 383.546 139.232 383.176 Q136.987 382.806 134.58 382.065 L134.58 377.366 Q136.663 378.5 138.885 379.056 Q141.107 379.611 143.584 379.611 Q147.589 379.611 149.927 377.505 Q152.265 375.398 152.265 371.787 Q152.265 368.176 149.927 366.069 Q147.589 363.963 143.584 363.963 Q141.709 363.963 139.834 364.38 Q137.982 364.796 136.038 365.676 L136.038 348.315 Z" fill="#000000" fill-rule="nonzero" fill-opacity="1" /><path clip-path="url(#clip980)" d="M176.153 351.394 Q172.542 351.394 170.714 354.958 Q168.908 358.5 168.908 365.63 Q168.908 372.736 170.714 376.301 Q172.542 379.843 176.153 379.843 Q179.788 379.843 181.593 376.301 Q183.422 372.736 183.422 365.63 Q183.422 358.5 181.593 354.958 Q179.788 351.394 176.153 351.394 M176.153 347.69 Q181.964 347.69 185.019 352.296 Q188.098 356.88 188.098 365.63 Q188.098 374.356 185.019 378.963 Q181.964 383.546 176.153 383.546 Q170.343 383.546 167.265 378.963 Q164.209 374.356 164.209 365.63 Q164.209 356.88 167.265 352.296 Q170.343 347.69 176.153 347.69 Z" fill="#000000" fill-rule="nonzero" fill-opacity="1" /><path clip-path="url(#clip980)" d="M101.756 166.581 Q98.1447 166.581 96.316 170.146 Q94.5104 173.687 94.5104 180.817 Q94.5104 187.923 96.316 191.488 Q98.1447 195.03 101.756 195.03 Q105.39 195.03 107.196 191.488 Q109.024 187.923 109.024 180.817 Q109.024 173.687 107.196 170.146 Q105.39 166.581 101.756 166.581 M101.756 162.877 Q107.566 162.877 110.621 167.483 Q113.7 172.067 113.7 180.817 Q113.7 189.544 110.621 194.15 Q107.566 198.733 101.756 198.733 Q95.9456 198.733 92.8669 194.15 Q89.8114 189.544 89.8114 180.817 Q89.8114 172.067 92.8669 167.483 Q95.9456 162.877 101.756 162.877 Z" fill="#000000" fill-rule="nonzero" fill-opacity="1" /><path clip-path="url(#clip980)" d="M121.918 192.182 L126.802 192.182 L126.802 198.062 L121.918 198.062 L121.918 192.182 Z" fill="#000000" fill-rule="nonzero" fill-opacity="1" /><path clip-path="url(#clip980)" d="M135.806 163.502 L158.029 163.502 L158.029 165.493 L145.482 198.062 L140.598 198.062 L152.404 167.437 L135.806 167.437 L135.806 163.502 Z" fill="#000000" fill-rule="nonzero" fill-opacity="1" /><path clip-path="url(#clip980)" d="M167.195 163.502 L185.552 163.502 L185.552 167.437 L171.478 167.437 L171.478 175.909 Q172.496 175.562 173.515 175.4 Q174.533 175.215 175.552 175.215 Q181.339 175.215 184.718 178.386 Q188.098 181.557 188.098 186.974 Q188.098 192.553 184.626 195.655 Q181.153 198.733 174.834 198.733 Q172.658 198.733 170.39 198.363 Q168.144 197.993 165.737 197.252 L165.737 192.553 Q167.82 193.687 170.042 194.243 Q172.265 194.798 174.741 194.798 Q178.746 194.798 181.084 192.692 Q183.422 190.585 183.422 186.974 Q183.422 183.363 181.084 181.257 Q178.746 179.15 174.741 179.15 Q172.866 179.15 170.991 179.567 Q169.14 179.983 167.195 180.863 L167.195 163.502 Z" fill="#000000" fill-rule="nonzero" fill-opacity="1" /><polyline clip-path="url(#clip982)" style="stroke:#009af9; stroke-linecap:round; stroke-linejoin:round; stroke-width:4; stroke-opacity:1; fill:none" points="284.343,294.502 288.359,280.018 292.376,266.014 296.392,252.494 300.408,239.461 304.425,226.92 308.441,214.873 312.457,203.324 316.474,192.277 320.49,181.736 324.506,171.705 328.523,162.189 332.539,153.194 336.555,144.728 340.572,136.795 344.588,129.405 348.604,122.567 352.621,116.291 356.637,110.583 360.653,105.456 364.67,100.92 368.686,96.9833 372.702,93.6518 376.719,90.9325 380.735,88.829 384.751,87.341 388.768,86.463 392.784,86.1857 396.8,86.4924 400.817,87.359 404.833,88.7524 408.849,90.6293 412.866,92.9355 416.882,95.6049 420.898,98.5599 424.915,101.711 428.931,104.961 432.947,108.204 436.964,111.337 440.98,114.259 444.996,116.885 449.013,119.146 453.029,120.997 457.045,122.416 461.062,123.408 465.078,124.009 469.094,124.311 473.111,124.493 477.127,124.848 481.143,125.805 485.16,127.893 489.176,131.683 493.192,137.704 497.209,146.379 501.225,157.978 505.241,172.619 509.258,190.275 513.274,210.8 517.29,233.952 521.307,259.41 525.323,286.796 529.339,315.695 533.356,345.677 537.372,376.311 541.388,407.199 545.405,437.987 549.421,468.382 553.437,498.158 557.454,527.157 561.47,555.291 565.486,582.526 569.503,608.872 573.519,634.376 577.535,659.108 581.552,683.151 585.568,706.588 589.584,729.504 593.601,751.977 597.617,774.074 601.633,795.847 605.65,817.341 609.666,838.586 613.682,859.599 617.699,880.389 621.715,900.954 625.731,921.287 629.748,941.372 633.764,961.192 637.78,980.725 641.797,999.951 645.813,1018.84 649.829,1037.38 653.846,1055.55 657.862,1073.32 661.878,1090.69 665.895,1107.62 669.911,1124.12 673.927,1140.17 677.944,1155.76 681.96,1170.88 685.977,1185.53 689.993,1199.7 694.009,1213.39 698.026,1226.59 702.042,1239.3 706.058,1251.52 710.075,1263.24 714.091,1274.46 718.107,1285.18 722.124,1295.39 726.14,1305.08 730.156,1314.25 734.173,1322.9 738.189,1331.02 742.205,1338.6 746.222,1345.62 750.238,1352.09 754.254,1358 758.271,1363.32 762.287,1368.06 766.303,1372.2 770.32,1375.74 774.336,1378.67 778.352,1380.98 782.369,1382.67 786.385,1383.76 790.401,1384.24 794.418,1384.13 798.434,1383.45 802.45,1382.23 806.467,1380.51 810.483,1378.34 814.499,1375.79 818.516,1372.92 822.532,1369.83 826.548,1366.6 830.565,1363.34 834.581,1360.16 838.597,1357.16 842.614,1354.42 846.63,1352.03 850.646,1350.03 854.663,1348.47 858.679,1347.33 862.695,1346.6 866.712,1346.21 870.728,1346.02 874.744,1345.76 878.761,1345.06 882.777,1343.43 886.793,1340.28 890.81,1335.08 894.826,1327.35 898.842,1316.76 902.859,1303.16 906.875,1286.52 910.891,1266.95 914.908,1244.67 918.924,1219.95 922.94,1193.18 926.957,1164.74 930.973,1135.07 934.989,1104.61 939.006,1073.77 943.022,1042.91 947.038,1012.35 951.055,982.339 955.071,953.059 959.087,924.621 963.104,897.077 967.12,870.43 971.136,844.645 975.153,819.658 979.169,795.39 983.185,771.756 987.202,748.669 991.218,726.052 995.234,703.834 999.251,681.955 1003.27,660.37 1007.28,639.043 1011.3,617.953 1015.32,597.088 1019.33,576.446 1023.35,556.033 1027.37,535.863 1031.38,515.951 1035.4,496.319 1039.41,476.989 1043.43,457.981 1047.45,439.32 1051.46,421.026 1055.48,403.119 1059.5,385.617 1063.51,368.536 1067.53,351.89 1071.54,335.69 1075.56,319.945 1079.58,304.665 1083.59,289.856 1087.61,275.523 1091.63,261.672 1095.64,248.306 1099.66,235.43 1103.68,223.046 1107.69,211.158 1111.71,199.77 1115.72,188.885 1119.74,178.507 1123.76,168.641 1127.77,159.292 1131.79,150.467 1135.81,142.171 1139.82,134.414 1143.84,127.202 1147.86,120.545 1151.87,114.453 1155.89,108.934 1159.9,103.998 1163.92,99.6554 1167.94,95.9147 1171.95,92.7824 1175.97,90.2635 1179.99,88.3599 1184,87.0701 1188.02,86.3876 1192.03,86.3004 1196.05,86.79 1200.07,87.8303 1204.08,89.3844 1208.1,91.4054 1212.12,93.8355 1216.13,96.6047 1220.15,99.6312 1224.17,102.823 1228.18,106.08 1232.2,109.297 1236.21,112.371 1240.23,115.204 1244.25,117.717 1248.26,119.848 1252.28,121.558 1256.3,122.835 1260.31,123.693 1264.33,124.184 1268.35,124.422 1272.36,124.621 1276.38,125.119 1280.39,126.379 1284.41,128.954 1288.43,133.409 1292.44,140.246 1296.46,149.839 1300.48,162.412 1304.49,178.031 1308.51,196.628 1312.52,218.025 1316.54,241.951 1320.56,268.066 1324.57,295.981 1328.59,325.271 1332.61,355.503 1336.62,386.256 1340.64,417.144 1344.66,447.83 1348.67,478.042 1352.69,507.581 1356.7,536.309 1360.72,564.156 1364.74,591.103 1368.75,617.174 1372.77,642.424 1376.79,666.926 1380.8,690.765 1384.82,714.029 1388.84,736.796 1392.85,759.143 1396.87,781.131 1400.88,802.811 1404.9,824.221 1408.92,845.387 1412.93,866.325 1416.95,887.041 1420.97,907.529 1424.98,927.781 1429,947.779 1433.01,967.504 1437.03,986.936 1441.05,1006.05 1445.06,1024.83 1449.08,1043.24 1453.1,1061.28 1457.11,1078.92 1461.13,1096.14 1465.15,1112.93 1469.16,1129.28 1473.18,1145.17 1477.19,1160.61 1481.21,1175.57 1485.23,1190.06 1489.24,1204.08 1493.26,1217.6 1497.28,1230.64 1501.29,1243.19 1505.31,1255.24 1509.33,1266.8 1513.34,1277.85 1517.36,1288.4 1521.37,1298.43 1525.39,1307.95 1529.41,1316.95 1533.42,1325.43 1537.44,1333.37 1541.46,1340.76 1545.47,1347.6 1549.49,1353.89 1553.51,1359.6 1557.52,1364.73 1561.54,1369.27 1565.55,1373.22 1569.57,1376.55 1573.59,1379.28 1577.6,1381.39 1581.62,1382.89 1585.64,1383.77 1589.65,1384.06 1593.67,1383.76 1597.68,1382.91 1601.7,1381.52 1605.72,1379.66 1609.73,1377.36 1613.75,1374.7 1617.77,1371.75 1621.78,1368.61 1625.8,1365.37 1629.82,1362.13 1633.83,1359 1637.85,1356.08 1641.86,1353.45 1645.88,1351.19 1649.9,1349.34 1653.91,1347.92 1657.93,1346.93 1661.95,1346.33 1665.96,1346.02 1669.98,1345.84 1674,1345.49 1678.01,1344.55 1682.03,1342.48 1686.04,1338.72 1690.06,1332.74 1694.08,1324.11 1698.09,1312.56 1702.11,1297.97 1706.13,1280.36 1710.14,1259.89 1714.16,1236.79 1718.17,1211.38 1722.19,1184.03 1726.21,1155.17 1730.22,1125.21 1734.24,1094.59 1738.26,1063.72 1742.27,1032.93 1746.29,1002.54 1750.31,972.757 1754.32,943.746 1758.34,915.597 1762.35,888.347 1766.37,861.983 1770.39,836.462 1774.4,811.714 1778.42,787.659 1782.44,764.21 1786.45,741.283 1790.47,718.802 1794.49,696.699 1798.5,674.92 1802.52,653.423 1806.53,632.178 1810.55,611.165 1814.57,590.378 1818.58,569.814 1822.6,549.485 1826.62,529.402 1830.63,509.586 1834.65,490.056 1838.66,470.835 1842.68,451.946 1846.7,433.41 1850.71,415.247 1854.73,397.478 1858.75,380.118 1862.76,363.184 1866.78,346.688 1870.8,330.642 1874.81,315.055 1878.83,299.934 1882.84,285.285 1886.86,271.115 1890.88,257.428 1894.89,244.227 1898.91,231.516 1902.93,219.298 1906.94,207.578 1910.96,196.358 1914.98,185.641 1918.99,175.434 1923.01,165.739 1927.02,156.564 1931.04,147.914 1935.06,139.795 1939.07,132.217 1943.09,125.187 1947.11,118.715 1951.12,112.809 1955.14,107.48 1959.15,102.738 1963.17,98.5909 1967.19,95.0469 1971.2,92.1128 1975.22,89.7926 1979.24,88.0872 1983.25,86.9935 1987.27,86.5034 1991.29,86.603 1995.3,87.2712 1999.32,88.4778 2003.33,90.1836 2007.35,92.3381 2011.37,94.8798 2015.38,97.7351 2019.4,100.819 2023.42,104.036 2027.43,107.285 2031.45,110.459 2035.47,113.456 2039.48,116.187 2043.5,118.574 2047.51,120.565 2051.53,122.13 2055.55,123.262 2059.56,123.988 2063.58,124.376 2067.6,124.57 2071.61,124.821 2075.63,125.508 2079.65,127.13 2083.66,130.25 2087.68,135.421 2091.69,143.108 2095.71,153.637 2099.73,167.181 2103.74,183.762 2107.76,203.273 2111.78,225.504 2115.79,250.161 2119.81,276.886 2123.82,305.275 2127.84,334.9 2131.86,365.33 2135.87,396.155 2139.89,427.002 2143.91,457.556 2147.92,487.567 2151.94,516.853 2155.96,545.301 2159.97,572.858 2163.99,599.52 2168,625.321 2172.02,650.324 2176.04,674.607 2180.05,698.253 2184.07,721.35 2188.09,743.974 2192.1,766.198 2196.12,788.081 2200.14,809.668 2204.15,830.996 2208.17,852.085 2212.18,872.948 2216.2,893.587 2220.22,913.995 2224.23,934.162 2228.25,954.069 2232.27,973.698 2236.28,993.025 2240.3,1012.03 2244.31,1030.69 2248.33,1048.98 2252.35,1066.88 2256.36,1084.38 2260.38,1101.46 2264.4,1118.11 2268.41,1134.31 2272.43,1150.06 2276.45,1165.34 2280.46,1180.15 2284.48,1194.48 2288.49,1208.34 2292.51,1221.7 "/>
<polyline clip-path="url(#clip982)" style="stroke:#e26f46; stroke-linecap:round; stroke-linejoin:round; stroke-width:4; stroke-opacity:1; fill:none" points="284.343,700.579 288.359,689.354 292.376,677.912 296.392,666.303 300.408,654.576 304.425,642.776 308.441,630.946 312.457,619.128 316.474,607.362 320.49,595.684 324.506,584.132 328.523,572.738 332.539,561.539 336.555,550.565 340.572,539.852 344.588,529.431 348.604,519.338 352.621,509.61 356.637,500.286 360.653,491.41 364.67,483.031 368.686,475.205 372.702,467.998 376.719,461.484 380.735,455.752 384.751,450.907 388.768,447.07 392.784,444.385 396.8,443.019 400.817,443.168 404.833,445.058 408.849,448.949 412.866,455.138 416.882,463.957 420.898,475.778 424.915,491 428.931,510.046 432.947,533.339 436.964,561.28 440.98,594.196 444.996,632.282 449.013,675.524 453.029,723.602 457.045,775.798 461.062,830.924 465.078,887.324 469.094,942.957 473.111,995.606 477.127,1043.15 481.143,1083.87 485.16,1116.59 489.176,1140.81 493.192,1156.55 497.209,1164.25 501.225,1164.62 505.241,1158.51 509.258,1146.83 513.274,1130.48 517.29,1110.37 521.307,1087.33 525.323,1062.15 529.339,1035.54 533.356,1008.12 537.372,980.411 541.388,952.848 545.405,925.785 549.421,899.503 553.437,874.226 557.454,850.128 561.47,827.345 565.486,805.98 569.503,786.109 573.519,767.787 577.535,751.043 581.552,735.892 585.568,722.333 589.584,710.353 593.601,699.927 597.617,691.022 601.633,683.6 605.65,677.617 609.666,673.026 613.682,669.78 617.699,667.827 621.715,667.115 625.731,667.591 629.748,669.2 633.764,671.886 637.78,675.591 641.797,680.256 645.813,685.821 649.829,692.223 653.846,699.4 657.862,707.29 661.878,715.827 665.895,724.949 669.911,734.595 673.927,744.701 677.944,755.21 681.96,766.063 685.977,777.204 689.993,788.579 694.009,800.139 698.026,811.833 702.042,823.615 706.058,835.441 710.075,847.269 714.091,859.06 718.107,870.773 722.124,882.374 726.14,893.828 730.156,905.099 734.173,916.155 738.189,926.963 742.205,937.49 746.222,947.701 750.238,957.56 754.254,967.029 758.271,976.064 762.287,984.619 766.303,992.642 770.32,1000.07 774.336,1006.83 778.352,1012.84 782.369,1018 786.385,1022.19 790.401,1025.29 794.418,1027.12 798.434,1027.51 802.45,1026.24 806.467,1023.07 810.483,1017.7 814.499,1009.82 818.516,999.063 822.532,985.049 826.548,967.357 830.565,945.56 834.581,919.248 838.597,888.062 842.614,851.752 846.63,810.252 850.646,763.767 854.663,712.869 858.679,658.579 862.695,602.399 866.712,546.257 870.728,492.338 874.744,442.829 878.761,399.619 882.777,364.074 886.793,336.93 890.81,318.331 894.826,307.956 898.842,305.172 902.859,309.169 906.875,319.054 910.891,333.913 914.908,352.841 918.924,374.976 922.94,399.51 926.957,425.707 930.973,452.917 934.989,480.584 939.006,508.241 943.022,535.509 947.038,562.083 951.055,587.725 955.071,612.241 959.087,635.484 963.104,657.341 967.12,677.726 971.136,696.579 975.153,713.861 979.169,729.553 983.185,743.651 987.202,756.164 991.218,767.114 995.234,776.53 999.251,784.451 1003.27,790.918 1007.28,795.976 1011.3,799.673 1015.32,802.059 1019.33,803.186 1023.35,803.107 1027.37,801.877 1031.38,799.55 1035.4,796.186 1039.41,791.841 1043.43,786.576 1047.45,780.452 1051.46,773.531 1055.48,765.877 1059.5,757.554 1063.51,748.625 1067.53,739.152 1071.54,729.197 1075.56,718.82 1079.58,708.079 1083.59,697.031 1087.61,685.73 1091.63,674.229 1095.64,662.578 1099.66,650.823 1103.68,639.009 1107.69,627.178 1111.71,615.372 1115.72,603.63 1119.74,591.988 1123.76,580.482 1127.77,569.148 1131.79,558.017 1135.81,547.124 1139.82,536.5 1143.84,526.181 1147.86,516.202 1151.87,506.599 1155.89,497.414 1159.9,488.693 1163.92,480.487 1167.94,472.853 1171.95,465.861 1175.97,459.59 1179.99,454.134 1184,449.6 1188.02,446.119 1192.03,443.841 1196.05,442.941 1200.07,443.626 1204.08,446.131 1208.1,450.729 1212.12,457.727 1216.13,467.47 1220.15,480.339 1224.17,496.741 1228.18,517.104 1232.2,541.847 1236.21,571.351 1240.23,605.908 1244.25,645.655 1248.26,690.489 1252.28,739.972 1256.3,793.238 1260.31,848.955 1264.33,905.323 1268.35,960.219 1272.36,1011.43 1276.38,1056.93 1280.39,1095.17 1284.41,1125.19 1288.43,1146.65 1292.44,1159.75 1296.46,1165.03 1300.48,1163.24 1304.49,1155.26 1308.51,1142 1312.52,1124.37 1316.54,1103.25 1320.56,1079.46 1324.57,1053.77 1328.59,1026.86 1332.61,999.306 1336.62,971.615 1340.64,944.192 1344.66,917.365 1348.67,891.396 1352.69,866.49 1356.7,842.809 1360.72,820.479 1364.74,799.592 1368.75,780.218 1372.77,762.403 1376.79,746.172 1380.8,731.535 1384.82,718.486 1388.84,707.008 1392.85,697.074 1396.87,688.648 1400.88,681.691 1404.9,676.158 1408.92,672.001 1412.93,669.172 1416.95,667.621 1420.97,667.293 1424.98,668.135 1429,670.092 1433.01,673.107 1437.03,677.122 1441.05,682.076 1445.06,687.911 1449.08,694.564 1453.1,701.971 1457.11,710.07 1461.13,718.796 1465.15,728.087 1469.16,737.88 1473.18,748.115 1477.19,758.734 1481.21,769.68 1485.23,780.895 1489.24,792.329 1493.26,803.931 1497.28,815.652 1501.29,827.446 1505.31,839.271 1509.33,851.085 1513.34,862.849 1517.36,874.525 1521.37,886.077 1525.39,897.47 1529.41,908.67 1533.42,919.644 1537.44,930.359 1541.46,940.782 1545.47,950.877 1549.49,960.608 1553.51,969.936 1557.52,978.816 1561.54,987.2 1565.55,995.031 1569.57,1002.24 1573.59,1008.77 1577.6,1014.51 1581.62,1019.36 1585.64,1023.21 1589.65,1025.91 1593.67,1027.29 1597.68,1027.16 1601.7,1025.3 1605.72,1021.44 1609.73,1015.28 1613.75,1006.51 1617.77,994.736 1621.78,979.573 1625.8,960.597 1629.82,937.383 1633.83,909.532 1637.85,876.716 1641.86,838.737 1645.88,795.607 1649.9,747.641 1653.91,695.55 1657.93,640.511 1661.95,584.168 1665.96,528.552 1669.98,475.88 1674,428.265 1678.01,387.446 1682.03,354.586 1686.04,330.222 1690.06,314.329 1694.08,306.472 1698.09,305.949 1702.11,311.917 1706.13,323.473 1710.14,339.705 1714.16,359.721 1718.17,382.673 1722.19,407.778 1726.21,434.329 1730.22,461.707 1734.24,489.384 1738.26,516.924 1742.27,543.973 1746.29,570.249 1750.31,595.526 1754.32,619.63 1758.34,642.424 1762.35,663.804 1766.37,683.693 1770.39,702.038 1774.4,718.806 1778.42,733.982 1782.44,747.569 1786.45,759.577 1790.47,770.033 1794.49,778.967 1798.5,786.419 1802.52,792.432 1806.53,797.053 1810.55,800.329 1814.57,802.312 1818.58,803.053 1822.6,802.605 1826.62,801.024 1830.63,798.366 1834.65,794.687 1838.66,790.049 1842.68,784.51 1846.7,778.133 1850.71,770.98 1854.73,763.114 1858.75,754.598 1862.76,745.497 1866.78,735.872 1870.8,725.784 1874.81,715.295 1878.83,704.46 1882.84,693.335 1886.86,681.975 1890.88,670.431 1894.89,658.75 1898.91,646.981 1902.93,635.166 1906.94,623.349 1910.96,611.569 1914.98,599.864 1918.99,588.271 1923.01,576.824 1927.02,565.559 1931.04,554.508 1935.06,543.705 1939.07,533.183 1943.09,522.976 1947.11,513.12 1951.12,503.653 1955.14,494.619 1959.15,486.063 1963.17,478.04 1967.19,470.612 1971.2,463.849 1975.22,457.835 1979.24,452.669 1983.25,448.466 1987.27,445.361 1991.29,443.513 1995.3,443.107 1999.32,444.357 2003.33,447.51 2007.35,452.85 2011.37,460.696 2015.38,471.405 2019.4,485.366 2023.42,502.995 2027.43,524.717 2031.45,550.942 2035.47,582.028 2039.48,618.226 2043.5,659.605 2047.51,705.964 2051.53,756.739 2055.55,810.916 2059.56,867.005 2063.58,923.092 2067.6,976.998 2071.61,1026.54 2075.63,1069.83 2079.65,1105.5 2083.66,1132.78 2087.68,1151.54 2091.69,1162.08 2095.71,1165.03 2099.73,1161.2 2103.74,1151.46 2107.76,1136.74 2111.78,1117.93 2115.79,1095.91 2119.81,1071.46 2123.82,1045.35 2127.84,1018.2 2131.86,990.58 2135.87,962.957 2139.89,935.712 2143.91,909.15 2147.92,883.513 2151.94,858.994 2155.96,835.741 2159.97,813.868 2163.99,793.462 2168,774.584 2172.02,757.273 2176.04,741.55 2180.05,727.419 2184.07,714.87 2188.09,703.883 2192.1,694.429 2196.12,686.47 2200.14,679.966 2204.15,674.871 2208.17,671.136 2212.18,668.713 2216.2,667.548 2220.22,667.591 2224.23,668.786 2228.25,671.077 2232.27,674.409 2236.28,678.721 2240.3,683.954 2244.31,690.048 2248.33,696.938 2252.35,704.564 2256.36,712.86 2260.38,721.764 2264.4,731.213 2268.41,741.145 2272.43,751.501 2276.45,762.222 2280.46,773.251 2284.48,784.534 2288.49,796.02 2292.51,807.657 "/>
<path clip-path="url(#clip980)" d="M1520.21 1377.32 L2281.8 1377.32 L2281.8 1221.8 L1520.21 1221.8  Z" fill="#ffffff" fill-rule="evenodd" fill-opacity="1"/>
<polyline clip-path="url(#clip980)" style="stroke:#000000; stroke-linecap:round; stroke-linejoin:round; stroke-width:4; stroke-opacity:1; fill:none" points="1520.21,1377.32 2281.8,1377.32 2281.8,1221.8 1520.21,1221.8 1520.21,1377.32 "/>
<polyline clip-path="url(#clip980)" style="stroke:#009af9; stroke-linecap:round; stroke-linejoin:round; stroke-width:4; stroke-opacity:1; fill:none" points="1543.86,1273.64 1685.77,1273.64 "/>
<path clip-path="url(#clip980)" d="M1709.42 1254.9 L1719.24 1254.9 L1719.24 1258.21 L1713.68 1258.21 L1713.68 1293.86 L1719.24 1293.86 L1719.24 1297.17 L1709.42 1297.17 L1709.42 1254.9 Z" fill="#000000" fill-rule="nonzero" fill-opacity="1" /><path clip-path="url(#clip980)" d="M1727.87 1280.68 L1727.87 1264.99 L1732.13 1264.99 L1732.13 1280.52 Q1732.13 1284.2 1733.57 1286.05 Q1735 1287.88 1737.87 1287.88 Q1741.32 1287.88 1743.31 1285.68 Q1745.33 1283.48 1745.33 1279.69 L1745.33 1264.99 L1749.59 1264.99 L1749.59 1290.92 L1745.33 1290.92 L1745.33 1286.93 Q1743.78 1289.29 1741.72 1290.45 Q1739.68 1291.59 1736.97 1291.59 Q1732.5 1291.59 1730.19 1288.81 Q1727.87 1286.03 1727.87 1280.68 M1738.59 1264.36 L1738.59 1264.36 Z" fill="#000000" fill-rule="nonzero" fill-opacity="1" /><path clip-path="url(#clip980)" d="M1779.91 1275.27 L1779.91 1290.92 L1775.65 1290.92 L1775.65 1275.41 Q1775.65 1271.73 1774.22 1269.9 Q1772.78 1268.07 1769.91 1268.07 Q1766.46 1268.07 1764.47 1270.27 Q1762.48 1272.47 1762.48 1276.26 L1762.48 1290.92 L1758.2 1290.92 L1758.2 1264.99 L1762.48 1264.99 L1762.48 1269.02 Q1764.01 1266.68 1766.07 1265.52 Q1768.15 1264.36 1770.86 1264.36 Q1775.33 1264.36 1777.62 1267.14 Q1779.91 1269.9 1779.91 1275.27 Z" fill="#000000" fill-rule="nonzero" fill-opacity="1" /><path clip-path="url(#clip980)" d="M1788.24 1254.9 L1792.53 1254.9 L1792.53 1276.17 L1805.23 1264.99 L1810.67 1264.99 L1796.92 1277.12 L1811.25 1290.92 L1805.7 1290.92 L1792.53 1278.25 L1792.53 1290.92 L1788.24 1290.92 L1788.24 1254.9 Z" fill="#000000" fill-rule="nonzero" fill-opacity="1" /><path clip-path="url(#clip980)" d="M1837.41 1275.27 L1837.41 1290.92 L1833.15 1290.92 L1833.15 1275.41 Q1833.15 1271.73 1831.72 1269.9 Q1830.28 1268.07 1827.41 1268.07 Q1823.96 1268.07 1821.97 1270.27 Q1819.98 1272.47 1819.98 1276.26 L1819.98 1290.92 L1815.7 1290.92 L1815.7 1264.99 L1819.98 1264.99 L1819.98 1269.02 Q1821.51 1266.68 1823.57 1265.52 Q1825.65 1264.36 1828.36 1264.36 Q1832.83 1264.36 1835.12 1267.14 Q1837.41 1269.9 1837.41 1275.27 Z" fill="#000000" fill-rule="nonzero" fill-opacity="1" /><path clip-path="url(#clip980)" d="M1855.95 1267.98 Q1852.53 1267.98 1850.54 1270.66 Q1848.54 1273.32 1848.54 1277.98 Q1848.54 1282.63 1850.51 1285.31 Q1852.5 1287.98 1855.95 1287.98 Q1859.35 1287.98 1861.35 1285.29 Q1863.34 1282.61 1863.34 1277.98 Q1863.34 1273.37 1861.35 1270.68 Q1859.35 1267.98 1855.95 1267.98 M1855.95 1264.36 Q1861.51 1264.36 1864.68 1267.98 Q1867.85 1271.59 1867.85 1277.98 Q1867.85 1284.34 1864.68 1287.98 Q1861.51 1291.59 1855.95 1291.59 Q1850.37 1291.59 1847.2 1287.98 Q1844.05 1284.34 1844.05 1277.98 Q1844.05 1271.59 1847.2 1267.98 Q1850.37 1264.36 1855.95 1264.36 Z" fill="#000000" fill-rule="nonzero" fill-opacity="1" /><path clip-path="url(#clip980)" d="M1872.43 1264.99 L1876.69 1264.99 L1882.02 1285.22 L1887.32 1264.99 L1892.34 1264.99 L1897.66 1285.22 L1902.97 1264.99 L1907.22 1264.99 L1900.44 1290.92 L1895.42 1290.92 L1889.84 1269.67 L1884.24 1290.92 L1879.22 1290.92 L1872.43 1264.99 Z" fill="#000000" fill-rule="nonzero" fill-opacity="1" /><path clip-path="url(#clip980)" d="M1935.23 1275.27 L1935.23 1290.92 L1930.97 1290.92 L1930.97 1275.41 Q1930.97 1271.73 1929.54 1269.9 Q1928.1 1268.07 1925.23 1268.07 Q1921.78 1268.07 1919.79 1270.27 Q1917.8 1272.47 1917.8 1276.26 L1917.8 1290.92 L1913.52 1290.92 L1913.52 1264.99 L1917.8 1264.99 L1917.8 1269.02 Q1919.33 1266.68 1921.39 1265.52 Q1923.47 1264.36 1926.18 1264.36 Q1930.65 1264.36 1932.94 1267.14 Q1935.23 1269.9 1935.23 1275.27 Z" fill="#000000" fill-rule="nonzero" fill-opacity="1" /><path clip-path="url(#clip980)" d="M1953.68 1254.9 L1953.68 1297.17 L1943.87 1297.17 L1943.87 1293.86 L1949.4 1293.86 L1949.4 1258.21 L1943.87 1258.21 L1943.87 1254.9 L1953.68 1254.9 Z" fill="#000000" fill-rule="nonzero" fill-opacity="1" /><path clip-path="url(#clip980)" d="M1987.53 1254.94 Q1984.42 1260.27 1982.92 1265.48 Q1981.41 1270.68 1981.41 1276.03 Q1981.41 1281.38 1982.92 1286.63 Q1984.45 1291.86 1987.53 1297.17 L1983.82 1297.17 Q1980.35 1291.73 1978.61 1286.47 Q1976.9 1281.22 1976.9 1276.03 Q1976.9 1270.87 1978.61 1265.64 Q1980.33 1260.41 1983.82 1254.94 L1987.53 1254.94 Z" fill="#000000" fill-rule="nonzero" fill-opacity="1" /><path clip-path="url(#clip980)" d="M1995.4 1254.9 L2005.21 1254.9 L2005.21 1258.21 L1999.65 1258.21 L1999.65 1293.86 L2005.21 1293.86 L2005.21 1297.17 L1995.4 1297.17 L1995.4 1254.9 Z" fill="#000000" fill-rule="nonzero" fill-opacity="1" /><path clip-path="url(#clip980)" d="M2013.84 1280.68 L2013.84 1264.99 L2018.1 1264.99 L2018.1 1280.52 Q2018.1 1284.2 2019.54 1286.05 Q2020.97 1287.88 2023.84 1287.88 Q2027.29 1287.88 2029.28 1285.68 Q2031.3 1283.48 2031.3 1279.69 L2031.3 1264.99 L2035.56 1264.99 L2035.56 1290.92 L2031.3 1290.92 L2031.3 1286.93 Q2029.75 1289.29 2027.69 1290.45 Q2025.65 1291.59 2022.94 1291.59 Q2018.47 1291.59 2016.16 1288.81 Q2013.84 1286.03 2013.84 1280.68 M2024.56 1264.36 L2024.56 1264.36 Z" fill="#000000" fill-rule="nonzero" fill-opacity="1" /><path clip-path="url(#clip980)" d="M2065.88 1275.27 L2065.88 1290.92 L2061.62 1290.92 L2061.62 1275.41 Q2061.62 1271.73 2060.19 1269.9 Q2058.75 1268.07 2055.88 1268.07 Q2052.43 1268.07 2050.44 1270.27 Q2048.45 1272.47 2048.45 1276.26 L2048.45 1290.92 L2044.17 1290.92 L2044.17 1264.99 L2048.45 1264.99 L2048.45 1269.02 Q2049.98 1266.68 2052.04 1265.52 Q2054.12 1264.36 2056.83 1264.36 Q2061.3 1264.36 2063.59 1267.14 Q2065.88 1269.9 2065.88 1275.27 Z" fill="#000000" fill-rule="nonzero" fill-opacity="1" /><path clip-path="url(#clip980)" d="M2074.21 1254.9 L2078.5 1254.9 L2078.5 1276.17 L2091.21 1264.99 L2096.65 1264.99 L2082.9 1277.12 L2097.22 1290.92 L2091.67 1290.92 L2078.5 1278.25 L2078.5 1290.92 L2074.21 1290.92 L2074.21 1254.9 Z" fill="#000000" fill-rule="nonzero" fill-opacity="1" /><path clip-path="url(#clip980)" d="M2123.38 1275.27 L2123.38 1290.92 L2119.12 1290.92 L2119.12 1275.41 Q2119.12 1271.73 2117.69 1269.9 Q2116.25 1268.07 2113.38 1268.07 Q2109.93 1268.07 2107.94 1270.27 Q2105.95 1272.47 2105.95 1276.26 L2105.95 1290.92 L2101.67 1290.92 L2101.67 1264.99 L2105.95 1264.99 L2105.95 1269.02 Q2107.48 1266.68 2109.54 1265.52 Q2111.62 1264.36 2114.33 1264.36 Q2118.8 1264.36 2121.09 1267.14 Q2123.38 1269.9 2123.38 1275.27 Z" fill="#000000" fill-rule="nonzero" fill-opacity="1" /><path clip-path="url(#clip980)" d="M2141.92 1267.98 Q2138.5 1267.98 2136.51 1270.66 Q2134.52 1273.32 2134.52 1277.98 Q2134.52 1282.63 2136.48 1285.31 Q2138.47 1287.98 2141.92 1287.98 Q2145.33 1287.98 2147.32 1285.29 Q2149.31 1282.61 2149.31 1277.98 Q2149.31 1273.37 2147.32 1270.68 Q2145.33 1267.98 2141.92 1267.98 M2141.92 1264.36 Q2147.48 1264.36 2150.65 1267.98 Q2153.82 1271.59 2153.82 1277.98 Q2153.82 1284.34 2150.65 1287.98 Q2147.48 1291.59 2141.92 1291.59 Q2136.34 1291.59 2133.17 1287.98 Q2130.02 1284.34 2130.02 1277.98 Q2130.02 1271.59 2133.17 1267.98 Q2136.34 1264.36 2141.92 1264.36 Z" fill="#000000" fill-rule="nonzero" fill-opacity="1" /><path clip-path="url(#clip980)" d="M2158.4 1264.99 L2162.66 1264.99 L2167.99 1285.22 L2173.29 1264.99 L2178.31 1264.99 L2183.64 1285.22 L2188.94 1264.99 L2193.2 1264.99 L2186.41 1290.92 L2181.39 1290.92 L2175.81 1269.67 L2170.21 1290.92 L2165.19 1290.92 L2158.4 1264.99 Z" fill="#000000" fill-rule="nonzero" fill-opacity="1" /><path clip-path="url(#clip980)" d="M2221.2 1275.27 L2221.2 1290.92 L2216.95 1290.92 L2216.95 1275.41 Q2216.95 1271.73 2215.51 1269.9 Q2214.08 1268.07 2211.2 1268.07 Q2207.76 1268.07 2205.76 1270.27 Q2203.77 1272.47 2203.77 1276.26 L2203.77 1290.92 L2199.49 1290.92 L2199.49 1264.99 L2203.77 1264.99 L2203.77 1269.02 Q2205.3 1266.68 2207.36 1265.52 Q2209.45 1264.36 2212.15 1264.36 Q2216.62 1264.36 2218.91 1267.14 Q2221.2 1269.9 2221.2 1275.27 Z" fill="#000000" fill-rule="nonzero" fill-opacity="1" /><path clip-path="url(#clip980)" d="M2239.65 1254.9 L2239.65 1297.17 L2229.84 1297.17 L2229.84 1293.86 L2235.37 1293.86 L2235.37 1258.21 L2229.84 1258.21 L2229.84 1254.9 L2239.65 1254.9 Z" fill="#000000" fill-rule="nonzero" fill-opacity="1" /><path clip-path="url(#clip980)" d="M2247.52 1254.94 L2251.23 1254.94 Q2254.7 1260.41 2256.41 1265.64 Q2258.15 1270.87 2258.15 1276.03 Q2258.15 1281.22 2256.41 1286.47 Q2254.7 1291.73 2251.23 1297.17 L2247.52 1297.17 Q2250.6 1291.86 2252.11 1286.63 Q2253.64 1281.38 2253.64 1276.03 Q2253.64 1270.68 2252.11 1265.48 Q2250.6 1260.27 2247.52 1254.94 Z" fill="#000000" fill-rule="nonzero" fill-opacity="1" /><polyline clip-path="url(#clip980)" style="stroke:#e26f46; stroke-linecap:round; stroke-linejoin:round; stroke-width:4; stroke-opacity:1; fill:none" points="1543.86,1325.48 1685.77,1325.48 "/>
<path clip-path="url(#clip980)" d="M1709.42 1306.74 L1719.24 1306.74 L1719.24 1310.05 L1713.68 1310.05 L1713.68 1345.7 L1719.24 1345.7 L1719.24 1349.01 L1709.42 1349.01 L1709.42 1306.74 Z" fill="#000000" fill-rule="nonzero" fill-opacity="1" /><path clip-path="url(#clip980)" d="M1727.87 1332.52 L1727.87 1316.83 L1732.13 1316.83 L1732.13 1332.36 Q1732.13 1336.04 1733.57 1337.89 Q1735 1339.72 1737.87 1339.72 Q1741.32 1339.72 1743.31 1337.52 Q1745.33 1335.32 1745.33 1331.53 L1745.33 1316.83 L1749.59 1316.83 L1749.59 1342.76 L1745.33 1342.76 L1745.33 1338.77 Q1743.78 1341.13 1741.72 1342.29 Q1739.68 1343.43 1736.97 1343.43 Q1732.5 1343.43 1730.19 1340.65 Q1727.87 1337.87 1727.87 1332.52 M1738.59 1316.2 L1738.59 1316.2 Z" fill="#000000" fill-rule="nonzero" fill-opacity="1" /><path clip-path="url(#clip980)" d="M1779.91 1327.11 L1779.91 1342.76 L1775.65 1342.76 L1775.65 1327.25 Q1775.65 1323.57 1774.22 1321.74 Q1772.78 1319.91 1769.91 1319.91 Q1766.46 1319.91 1764.47 1322.11 Q1762.48 1324.31 1762.48 1328.1 L1762.48 1342.76 L1758.2 1342.76 L1758.2 1316.83 L1762.48 1316.83 L1762.48 1320.86 Q1764.01 1318.52 1766.07 1317.36 Q1768.15 1316.2 1770.86 1316.2 Q1775.33 1316.2 1777.62 1318.98 Q1779.91 1321.74 1779.91 1327.11 Z" fill="#000000" fill-rule="nonzero" fill-opacity="1" /><path clip-path="url(#clip980)" d="M1788.24 1306.74 L1792.53 1306.74 L1792.53 1328.01 L1805.23 1316.83 L1810.67 1316.83 L1796.92 1328.96 L1811.25 1342.76 L1805.7 1342.76 L1792.53 1330.09 L1792.53 1342.76 L1788.24 1342.76 L1788.24 1306.74 Z" fill="#000000" fill-rule="nonzero" fill-opacity="1" /><path clip-path="url(#clip980)" d="M1837.41 1327.11 L1837.41 1342.76 L1833.15 1342.76 L1833.15 1327.25 Q1833.15 1323.57 1831.72 1321.74 Q1830.28 1319.91 1827.41 1319.91 Q1823.96 1319.91 1821.97 1322.11 Q1819.98 1324.31 1819.98 1328.1 L1819.98 1342.76 L1815.7 1342.76 L1815.7 1316.83 L1819.98 1316.83 L1819.98 1320.86 Q1821.51 1318.52 1823.57 1317.36 Q1825.65 1316.2 1828.36 1316.2 Q1832.83 1316.2 1835.12 1318.98 Q1837.41 1321.74 1837.41 1327.11 Z" fill="#000000" fill-rule="nonzero" fill-opacity="1" /><path clip-path="url(#clip980)" d="M1855.95 1319.82 Q1852.53 1319.82 1850.54 1322.5 Q1848.54 1325.16 1848.54 1329.82 Q1848.54 1334.47 1850.51 1337.15 Q1852.5 1339.82 1855.95 1339.82 Q1859.35 1339.82 1861.35 1337.13 Q1863.34 1334.45 1863.34 1329.82 Q1863.34 1325.21 1861.35 1322.52 Q1859.35 1319.82 1855.95 1319.82 M1855.95 1316.2 Q1861.51 1316.2 1864.68 1319.82 Q1867.85 1323.43 1867.85 1329.82 Q1867.85 1336.18 1864.68 1339.82 Q1861.51 1343.43 1855.95 1343.43 Q1850.37 1343.43 1847.2 1339.82 Q1844.05 1336.18 1844.05 1329.82 Q1844.05 1323.43 1847.2 1319.82 Q1850.37 1316.2 1855.95 1316.2 Z" fill="#000000" fill-rule="nonzero" fill-opacity="1" /><path clip-path="url(#clip980)" d="M1872.43 1316.83 L1876.69 1316.83 L1882.02 1337.06 L1887.32 1316.83 L1892.34 1316.83 L1897.66 1337.06 L1902.97 1316.83 L1907.22 1316.83 L1900.44 1342.76 L1895.42 1342.76 L1889.84 1321.51 L1884.24 1342.76 L1879.22 1342.76 L1872.43 1316.83 Z" fill="#000000" fill-rule="nonzero" fill-opacity="1" /><path clip-path="url(#clip980)" d="M1935.23 1327.11 L1935.23 1342.76 L1930.97 1342.76 L1930.97 1327.25 Q1930.97 1323.57 1929.54 1321.74 Q1928.1 1319.91 1925.23 1319.91 Q1921.78 1319.91 1919.79 1322.11 Q1917.8 1324.31 1917.8 1328.1 L1917.8 1342.76 L1913.52 1342.76 L1913.52 1316.83 L1917.8 1316.83 L1917.8 1320.86 Q1919.33 1318.52 1921.39 1317.36 Q1923.47 1316.2 1926.18 1316.2 Q1930.65 1316.2 1932.94 1318.98 Q1935.23 1321.74 1935.23 1327.11 Z" fill="#000000" fill-rule="nonzero" fill-opacity="1" /><path clip-path="url(#clip980)" d="M1953.68 1306.74 L1953.68 1349.01 L1943.87 1349.01 L1943.87 1345.7 L1949.4 1345.7 L1949.4 1310.05 L1943.87 1310.05 L1943.87 1306.74 L1953.68 1306.74 Z" fill="#000000" fill-rule="nonzero" fill-opacity="1" /><path clip-path="url(#clip980)" d="M1987.53 1306.78 Q1984.42 1312.11 1982.92 1317.32 Q1981.41 1322.52 1981.41 1327.87 Q1981.41 1333.22 1982.92 1338.47 Q1984.45 1343.7 1987.53 1349.01 L1983.82 1349.01 Q1980.35 1343.57 1978.61 1338.31 Q1976.9 1333.06 1976.9 1327.87 Q1976.9 1322.71 1978.61 1317.48 Q1980.33 1312.25 1983.82 1306.78 L1987.53 1306.78 Z" fill="#000000" fill-rule="nonzero" fill-opacity="1" /><path clip-path="url(#clip980)" d="M1995.4 1306.74 L2005.21 1306.74 L2005.21 1310.05 L1999.65 1310.05 L1999.65 1345.7 L2005.21 1345.7 L2005.21 1349.01 L1995.4 1349.01 L1995.4 1306.74 Z" fill="#000000" fill-rule="nonzero" fill-opacity="1" /><path clip-path="url(#clip980)" d="M2013.84 1332.52 L2013.84 1316.83 L2018.1 1316.83 L2018.1 1332.36 Q2018.1 1336.04 2019.54 1337.89 Q2020.97 1339.72 2023.84 1339.72 Q2027.29 1339.72 2029.28 1337.52 Q2031.3 1335.32 2031.3 1331.53 L2031.3 1316.83 L2035.56 1316.83 L2035.56 1342.76 L2031.3 1342.76 L2031.3 1338.77 Q2029.75 1341.13 2027.69 1342.29 Q2025.65 1343.43 2022.94 1343.43 Q2018.47 1343.43 2016.16 1340.65 Q2013.84 1337.87 2013.84 1332.52 M2024.56 1316.2 L2024.56 1316.2 Z" fill="#000000" fill-rule="nonzero" fill-opacity="1" /><path clip-path="url(#clip980)" d="M2065.88 1327.11 L2065.88 1342.76 L2061.62 1342.76 L2061.62 1327.25 Q2061.62 1323.57 2060.19 1321.74 Q2058.75 1319.91 2055.88 1319.91 Q2052.43 1319.91 2050.44 1322.11 Q2048.45 1324.31 2048.45 1328.1 L2048.45 1342.76 L2044.17 1342.76 L2044.17 1316.83 L2048.45 1316.83 L2048.45 1320.86 Q2049.98 1318.52 2052.04 1317.36 Q2054.12 1316.2 2056.83 1316.2 Q2061.3 1316.2 2063.59 1318.98 Q2065.88 1321.74 2065.88 1327.11 Z" fill="#000000" fill-rule="nonzero" fill-opacity="1" /><path clip-path="url(#clip980)" d="M2074.21 1306.74 L2078.5 1306.74 L2078.5 1328.01 L2091.21 1316.83 L2096.65 1316.83 L2082.9 1328.96 L2097.22 1342.76 L2091.67 1342.76 L2078.5 1330.09 L2078.5 1342.76 L2074.21 1342.76 L2074.21 1306.74 Z" fill="#000000" fill-rule="nonzero" fill-opacity="1" /><path clip-path="url(#clip980)" d="M2123.38 1327.11 L2123.38 1342.76 L2119.12 1342.76 L2119.12 1327.25 Q2119.12 1323.57 2117.69 1321.74 Q2116.25 1319.91 2113.38 1319.91 Q2109.93 1319.91 2107.94 1322.11 Q2105.95 1324.31 2105.95 1328.1 L2105.95 1342.76 L2101.67 1342.76 L2101.67 1316.83 L2105.95 1316.83 L2105.95 1320.86 Q2107.48 1318.52 2109.54 1317.36 Q2111.62 1316.2 2114.33 1316.2 Q2118.8 1316.2 2121.09 1318.98 Q2123.38 1321.74 2123.38 1327.11 Z" fill="#000000" fill-rule="nonzero" fill-opacity="1" /><path clip-path="url(#clip980)" d="M2141.92 1319.82 Q2138.5 1319.82 2136.51 1322.5 Q2134.52 1325.16 2134.52 1329.82 Q2134.52 1334.47 2136.48 1337.15 Q2138.47 1339.82 2141.92 1339.82 Q2145.33 1339.82 2147.32 1337.13 Q2149.31 1334.45 2149.31 1329.82 Q2149.31 1325.21 2147.32 1322.52 Q2145.33 1319.82 2141.92 1319.82 M2141.92 1316.2 Q2147.48 1316.2 2150.65 1319.82 Q2153.82 1323.43 2153.82 1329.82 Q2153.82 1336.18 2150.65 1339.82 Q2147.48 1343.43 2141.92 1343.43 Q2136.34 1343.43 2133.17 1339.82 Q2130.02 1336.18 2130.02 1329.82 Q2130.02 1323.43 2133.17 1319.82 Q2136.34 1316.2 2141.92 1316.2 Z" fill="#000000" fill-rule="nonzero" fill-opacity="1" /><path clip-path="url(#clip980)" d="M2158.4 1316.83 L2162.66 1316.83 L2167.99 1337.06 L2173.29 1316.83 L2178.31 1316.83 L2183.64 1337.06 L2188.94 1316.83 L2193.2 1316.83 L2186.41 1342.76 L2181.39 1342.76 L2175.81 1321.51 L2170.21 1342.76 L2165.19 1342.76 L2158.4 1316.83 Z" fill="#000000" fill-rule="nonzero" fill-opacity="1" /><path clip-path="url(#clip980)" d="M2221.2 1327.11 L2221.2 1342.76 L2216.95 1342.76 L2216.95 1327.25 Q2216.95 1323.57 2215.51 1321.74 Q2214.08 1319.91 2211.2 1319.91 Q2207.76 1319.91 2205.76 1322.11 Q2203.77 1324.31 2203.77 1328.1 L2203.77 1342.76 L2199.49 1342.76 L2199.49 1316.83 L2203.77 1316.83 L2203.77 1320.86 Q2205.3 1318.52 2207.36 1317.36 Q2209.45 1316.2 2212.15 1316.2 Q2216.62 1316.2 2218.91 1318.98 Q2221.2 1321.74 2221.2 1327.11 Z" fill="#000000" fill-rule="nonzero" fill-opacity="1" /><path clip-path="url(#clip980)" d="M2239.65 1306.74 L2239.65 1349.01 L2229.84 1349.01 L2229.84 1345.7 L2235.37 1345.7 L2235.37 1310.05 L2229.84 1310.05 L2229.84 1306.74 L2239.65 1306.74 Z" fill="#000000" fill-rule="nonzero" fill-opacity="1" /><path clip-path="url(#clip980)" d="M2247.52 1306.78 L2251.23 1306.78 Q2254.7 1312.25 2256.41 1317.48 Q2258.15 1322.71 2258.15 1327.87 Q2258.15 1333.06 2256.41 1338.31 Q2254.7 1343.57 2251.23 1349.01 L2247.52 1349.01 Q2250.6 1343.7 2252.11 1338.47 Q2253.64 1333.22 2253.64 1327.87 Q2253.64 1322.52 2252.11 1317.32 Q2250.6 1312.11 2247.52 1306.78 Z" fill="#000000" fill-rule="nonzero" fill-opacity="1" /></svg>
