<?xml version="1.0" encoding="utf-8"?>
<svg xmlns="http://www.w3.org/2000/svg" xmlns:xlink="http://www.w3.org/1999/xlink" width="600" height="400" viewBox="0 0 2400 1600">
<defs>
  <clipPath id="clip760">
    <rect x="0" y="0" width="2400" height="1600"/>
  </clipPath>
</defs>
<path clip-path="url(#clip760)" d="M0 1600 L2400 1600 L2400 0 L0 0  Z" fill="#ffffff" fill-rule="evenodd" fill-opacity="1"/>
<defs>
  <clipPath id="clip761">
    <rect x="480" y="0" width="1681" height="1600"/>
  </clipPath>
</defs>
<path clip-path="url(#clip760)" d="M149.191 1423.18 L2352.76 1423.18 L2352.76 47.2441 L149.191 47.2441  Z" fill="#ffffff" fill-rule="evenodd" fill-opacity="1"/>
<defs>
  <clipPath id="clip762">
    <rect x="149" y="47" width="2205" height="1377"/>
  </clipPath>
</defs>
<polyline clip-path="url(#clip762)" style="stroke:#000000; stroke-linecap:round; stroke-linejoin:round; stroke-width:2; stroke-opacity:0.1; fill:none" points="211.556,1423.18 211.556,47.2441 "/>
<polyline clip-path="url(#clip762)" style="stroke:#000000; stroke-linecap:round; stroke-linejoin:round; stroke-width:2; stroke-opacity:0.1; fill:none" points="627.323,1423.18 627.323,47.2441 "/>
<polyline clip-path="url(#clip762)" style="stroke:#000000; stroke-linecap:round; stroke-linejoin:round; stroke-width:2; stroke-opacity:0.1; fill:none" points="1043.09,1423.18 1043.09,47.2441 "/>
<polyline clip-path="url(#clip762)" style="stroke:#000000; stroke-linecap:round; stroke-linejoin:round; stroke-width:2; stroke-opacity:0.1; fill:none" points="1458.86,1423.18 1458.86,47.2441 "/>
<polyline clip-path="url(#clip762)" style="stroke:#000000; stroke-linecap:round; stroke-linejoin:round; stroke-width:2; stroke-opacity:0.1; fill:none" points="1874.62,1423.18 1874.62,47.2441 "/>
<polyline clip-path="url(#clip762)" style="stroke:#000000; stroke-linecap:round; stroke-linejoin:round; stroke-width:2; stroke-opacity:0.1; fill:none" points="2290.39,1423.18 2290.39,47.2441 "/>
<polyline clip-path="url(#clip760)" style="stroke:#000000; stroke-linecap:round; stroke-linejoin:round; stroke-width:4; stroke-opacity:1; fill:none" points="149.191,1423.18 2352.76,1423.18 "/>
<polyline clip-path="url(#clip760)" style="stroke:#000000; stroke-linecap:round; stroke-linejoin:round; stroke-width:4; stroke-opacity:1; fill:none" points="211.556,1423.18 211.556,1404.28 "/>
<polyline clip-path="url(#clip760)" style="stroke:#000000; stroke-linecap:round; stroke-linejoin:round; stroke-width:4; stroke-opacity:1; fill:none" points="627.323,1423.18 627.323,1404.28 "/>
<polyline clip-path="url(#clip760)" style="stroke:#000000; stroke-linecap:round; stroke-linejoin:round; stroke-width:4; stroke-opacity:1; fill:none" points="1043.09,1423.18 1043.09,1404.28 "/>
<polyline clip-path="url(#clip760)" style="stroke:#000000; stroke-linecap:round; stroke-linejoin:round; stroke-width:4; stroke-opacity:1; fill:none" points="1458.86,1423.18 1458.86,1404.28 "/>
<polyline clip-path="url(#clip760)" style="stroke:#000000; stroke-linecap:round; stroke-linejoin:round; stroke-width:4; stroke-opacity:1; fill:none" points="1874.62,1423.18 1874.62,1404.28 "/>
<polyline clip-path="url(#clip760)" style="stroke:#000000; stroke-linecap:round; stroke-linejoin:round; stroke-width:4; stroke-opacity:1; fill:none" points="2290.39,1423.18 2290.39,1404.28 "/>
<path clip-path="url(#clip760)" d="M211.556 1454.1 Q207.945 1454.1 206.116 1457.66 Q204.311 1461.2 204.311 1468.33 Q204.311 1475.44 206.116 1479.01 Q207.945 1482.55 211.556 1482.55 Q215.19 1482.55 216.996 1479.01 Q218.824 1475.44 218.824 1468.33 Q218.824 1461.2 216.996 1457.66 Q215.19 1454.1 211.556 1454.1 M211.556 1450.39 Q217.366 1450.39 220.422 1455 Q223.5 1459.58 223.5 1468.33 Q223.5 1477.06 220.422 1481.67 Q217.366 1486.25 211.556 1486.25 Q205.746 1486.25 202.667 1481.67 Q199.612 1477.06 199.612 1468.33 Q199.612 1459.58 202.667 1455 Q205.746 1450.39 211.556 1450.39 Z" fill="#000000" fill-rule="nonzero" fill-opacity="1" /><path clip-path="url(#clip760)" d="M617.705 1481.64 L625.344 1481.64 L625.344 1455.28 L617.034 1456.95 L617.034 1452.69 L625.297 1451.02 L629.973 1451.02 L629.973 1481.64 L637.612 1481.64 L637.612 1485.58 L617.705 1485.58 L617.705 1481.64 Z" fill="#000000" fill-rule="nonzero" fill-opacity="1" /><path clip-path="url(#clip760)" d="M1037.74 1481.64 L1054.06 1481.64 L1054.06 1485.58 L1032.12 1485.58 L1032.12 1481.64 Q1034.78 1478.89 1039.36 1474.26 Q1043.97 1469.61 1045.15 1468.27 Q1047.4 1465.74 1048.28 1464.01 Q1049.18 1462.25 1049.18 1460.56 Q1049.18 1457.8 1047.23 1456.07 Q1045.31 1454.33 1042.21 1454.33 Q1040.01 1454.33 1037.56 1455.09 Q1035.13 1455.86 1032.35 1457.41 L1032.35 1452.69 Q1035.17 1451.55 1037.63 1450.97 Q1040.08 1450.39 1042.12 1450.39 Q1047.49 1450.39 1050.68 1453.08 Q1053.88 1455.77 1053.88 1460.26 Q1053.88 1462.39 1053.07 1464.31 Q1052.28 1466.2 1050.17 1468.8 Q1049.59 1469.47 1046.49 1472.69 Q1043.39 1475.88 1037.74 1481.64 Z" fill="#000000" fill-rule="nonzero" fill-opacity="1" /><path clip-path="url(#clip760)" d="M1463.1 1466.95 Q1466.46 1467.66 1468.34 1469.93 Q1470.23 1472.2 1470.23 1475.53 Q1470.23 1480.65 1466.72 1483.45 Q1463.2 1486.25 1456.72 1486.25 Q1454.54 1486.25 1452.22 1485.81 Q1449.93 1485.39 1447.48 1484.54 L1447.48 1480.02 Q1449.42 1481.16 1451.74 1481.74 Q1454.05 1482.32 1456.58 1482.32 Q1460.97 1482.32 1463.27 1480.58 Q1465.58 1478.84 1465.58 1475.53 Q1465.58 1472.48 1463.43 1470.77 Q1461.3 1469.03 1457.48 1469.03 L1453.45 1469.03 L1453.45 1465.19 L1457.66 1465.19 Q1461.11 1465.19 1462.94 1463.82 Q1464.77 1462.43 1464.77 1459.84 Q1464.77 1457.18 1462.87 1455.77 Q1461 1454.33 1457.48 1454.33 Q1455.56 1454.33 1453.36 1454.75 Q1451.16 1455.16 1448.52 1456.04 L1448.52 1451.88 Q1451.18 1451.14 1453.5 1450.77 Q1455.84 1450.39 1457.9 1450.39 Q1463.22 1450.39 1466.32 1452.83 Q1469.42 1455.23 1469.42 1459.35 Q1469.42 1462.22 1467.78 1464.21 Q1466.14 1466.18 1463.1 1466.95 Z" fill="#000000" fill-rule="nonzero" fill-opacity="1" /><path clip-path="url(#clip760)" d="M1877.63 1455.09 L1865.83 1473.54 L1877.63 1473.54 L1877.63 1455.09 M1876.41 1451.02 L1882.29 1451.02 L1882.29 1473.54 L1887.22 1473.54 L1887.22 1477.43 L1882.29 1477.43 L1882.29 1485.58 L1877.63 1485.58 L1877.63 1477.43 L1862.03 1477.43 L1862.03 1472.92 L1876.41 1451.02 Z" fill="#000000" fill-rule="nonzero" fill-opacity="1" /><path clip-path="url(#clip760)" d="M2280.67 1451.02 L2299.03 1451.02 L2299.03 1454.96 L2284.95 1454.96 L2284.95 1463.43 Q2285.97 1463.08 2286.99 1462.92 Q2288.01 1462.73 2289.03 1462.73 Q2294.81 1462.73 2298.19 1465.9 Q2301.57 1469.08 2301.57 1474.49 Q2301.57 1480.07 2298.1 1483.17 Q2294.63 1486.25 2288.31 1486.25 Q2286.13 1486.25 2283.86 1485.88 Q2281.62 1485.51 2279.21 1484.77 L2279.21 1480.07 Q2281.29 1481.2 2283.52 1481.76 Q2285.74 1482.32 2288.21 1482.32 Q2292.22 1482.32 2294.56 1480.21 Q2296.9 1478.1 2296.9 1474.49 Q2296.9 1470.88 2294.56 1468.77 Q2292.22 1466.67 2288.21 1466.67 Q2286.34 1466.67 2284.46 1467.08 Q2282.61 1467.5 2280.67 1468.38 L2280.67 1451.02 Z" fill="#000000" fill-rule="nonzero" fill-opacity="1" /><path clip-path="url(#clip760)" d="M1199.28 1522.27 L1199.28 1532.4 L1211.35 1532.4 L1211.35 1536.95 L1199.28 1536.95 L1199.28 1556.3 Q1199.28 1560.66 1200.46 1561.9 Q1201.67 1563.14 1205.33 1563.14 L1211.35 1563.14 L1211.35 1568.04 L1205.33 1568.04 Q1198.55 1568.04 1195.97 1565.53 Q1193.4 1562.98 1193.4 1556.3 L1193.4 1536.95 L1189.1 1536.95 L1189.1 1532.4 L1193.4 1532.4 L1193.4 1522.27 L1199.28 1522.27 Z" fill="#000000" fill-rule="nonzero" fill-opacity="1" /><path clip-path="url(#clip760)" d="M1239.23 1518.52 L1252.72 1518.52 L1252.72 1523.07 L1245.09 1523.07 L1245.09 1572.09 L1252.72 1572.09 L1252.72 1576.64 L1239.23 1576.64 L1239.23 1518.52 Z" fill="#000000" fill-rule="nonzero" fill-opacity="1" /><path clip-path="url(#clip760)" d="M1287.93 1533.45 L1287.93 1538.98 Q1285.44 1537.71 1282.77 1537.07 Q1280.1 1536.44 1277.23 1536.44 Q1272.87 1536.44 1270.68 1537.77 Q1268.51 1539.11 1268.51 1541.79 Q1268.51 1543.82 1270.07 1545 Q1271.63 1546.15 1276.34 1547.2 L1278.35 1547.64 Q1284.58 1548.98 1287.19 1551.43 Q1289.84 1553.85 1289.84 1558.21 Q1289.84 1563.17 1285.89 1566.07 Q1281.97 1568.97 1275.1 1568.97 Q1272.23 1568.97 1269.12 1568.39 Q1266.03 1567.85 1262.59 1566.74 L1262.59 1560.69 Q1265.84 1562.38 1268.99 1563.24 Q1272.14 1564.07 1275.23 1564.07 Q1279.36 1564.07 1281.59 1562.66 Q1283.82 1561.23 1283.82 1558.65 Q1283.82 1556.27 1282.2 1554.99 Q1280.61 1553.72 1275.16 1552.54 L1273.13 1552.07 Q1267.68 1550.92 1265.26 1548.56 Q1262.85 1546.18 1262.85 1542.04 Q1262.85 1537.01 1266.41 1534.27 Q1269.98 1531.54 1276.53 1531.54 Q1279.78 1531.54 1282.64 1532.01 Q1285.51 1532.49 1287.93 1533.45 Z" fill="#000000" fill-rule="nonzero" fill-opacity="1" /><path clip-path="url(#clip760)" d="M1312.85 1518.52 L1312.85 1576.64 L1299.35 1576.64 L1299.35 1572.09 L1306.96 1572.09 L1306.96 1523.07 L1299.35 1523.07 L1299.35 1518.52 L1312.85 1518.52 Z" fill="#000000" fill-rule="nonzero" fill-opacity="1" /><polyline clip-path="url(#clip762)" style="stroke:#000000; stroke-linecap:round; stroke-linejoin:round; stroke-width:2; stroke-opacity:0.1; fill:none" points="149.191,1312.09 2352.76,1312.09 "/>
<polyline clip-path="url(#clip762)" style="stroke:#000000; stroke-linecap:round; stroke-linejoin:round; stroke-width:2; stroke-opacity:0.1; fill:none" points="149.191,998.806 2352.76,998.806 "/>
<polyline clip-path="url(#clip762)" style="stroke:#000000; stroke-linecap:round; stroke-linejoin:round; stroke-width:2; stroke-opacity:0.1; fill:none" points="149.191,685.526 2352.76,685.526 "/>
<polyline clip-path="url(#clip762)" style="stroke:#000000; stroke-linecap:round; stroke-linejoin:round; stroke-width:2; stroke-opacity:0.1; fill:none" points="149.191,372.246 2352.76,372.246 "/>
<polyline clip-path="url(#clip762)" style="stroke:#000000; stroke-linecap:round; stroke-linejoin:round; stroke-width:2; stroke-opacity:0.1; fill:none" points="149.191,58.9654 2352.76,58.9654 "/>
<polyline clip-path="url(#clip760)" style="stroke:#000000; stroke-linecap:round; stroke-linejoin:round; stroke-width:4; stroke-opacity:1; fill:none" points="149.191,1423.18 149.191,47.2441 "/>
<polyline clip-path="url(#clip760)" style="stroke:#000000; stroke-linecap:round; stroke-linejoin:round; stroke-width:4; stroke-opacity:1; fill:none" points="149.191,1312.09 168.089,1312.09 "/>
<polyline clip-path="url(#clip760)" style="stroke:#000000; stroke-linecap:round; stroke-linejoin:round; stroke-width:4; stroke-opacity:1; fill:none" points="149.191,998.806 168.089,998.806 "/>
<polyline clip-path="url(#clip760)" style="stroke:#000000; stroke-linecap:round; stroke-linejoin:round; stroke-width:4; stroke-opacity:1; fill:none" points="149.191,685.526 168.089,685.526 "/>
<polyline clip-path="url(#clip760)" style="stroke:#000000; stroke-linecap:round; stroke-linejoin:round; stroke-width:4; stroke-opacity:1; fill:none" points="149.191,372.246 168.089,372.246 "/>
<polyline clip-path="url(#clip760)" style="stroke:#000000; stroke-linecap:round; stroke-linejoin:round; stroke-width:4; stroke-opacity:1; fill:none" points="149.191,58.9654 168.089,58.9654 "/>
<path clip-path="url(#clip760)" d="M51.3162 1312.54 L80.992 1312.54 L80.992 1316.47 L51.3162 1316.47 L51.3162 1312.54 Z" fill="#000000" fill-rule="nonzero" fill-opacity="1" /><path clip-path="url(#clip760)" d="M101.663 1310.22 Q98.515 1310.22 96.6632 1312.38 Q94.8345 1314.53 94.8345 1318.28 Q94.8345 1322 96.6632 1324.18 Q98.515 1326.33 101.663 1326.33 Q104.811 1326.33 106.64 1324.18 Q108.492 1322 108.492 1318.28 Q108.492 1314.53 106.64 1312.38 Q104.811 1310.22 101.663 1310.22 M110.946 1295.57 L110.946 1299.83 Q109.186 1299 107.381 1298.56 Q105.598 1298.12 103.839 1298.12 Q99.2095 1298.12 96.7558 1301.24 Q94.3252 1304.37 93.978 1310.69 Q95.3437 1308.67 97.4039 1307.61 Q99.4641 1306.52 101.941 1306.52 Q107.149 1306.52 110.158 1309.69 Q113.191 1312.84 113.191 1318.28 Q113.191 1323.6 110.043 1326.82 Q106.895 1330.04 101.663 1330.04 Q95.6678 1330.04 92.4965 1325.45 Q89.3253 1320.85 89.3253 1312.12 Q89.3253 1303.93 93.2141 1299.07 Q97.103 1294.18 103.654 1294.18 Q105.413 1294.18 107.196 1294.53 Q109.001 1294.88 110.946 1295.57 Z" fill="#000000" fill-rule="nonzero" fill-opacity="1" /><path clip-path="url(#clip760)" d="M50.9921 999.257 L80.6679 999.257 L80.6679 1003.19 L50.9921 1003.19 L50.9921 999.257 Z" fill="#000000" fill-rule="nonzero" fill-opacity="1" /><path clip-path="url(#clip760)" d="M103.608 985.6 L91.8021 1004.05 L103.608 1004.05 L103.608 985.6 M102.381 981.526 L108.26 981.526 L108.26 1004.05 L113.191 1004.05 L113.191 1007.94 L108.26 1007.94 L108.26 1016.09 L103.608 1016.09 L103.608 1007.94 L88.0058 1007.94 L88.0058 1003.42 L102.381 981.526 Z" fill="#000000" fill-rule="nonzero" fill-opacity="1" /><path clip-path="url(#clip760)" d="M53.0754 685.977 L82.7512 685.977 L82.7512 689.912 L53.0754 689.912 L53.0754 685.977 Z" fill="#000000" fill-rule="nonzero" fill-opacity="1" /><path clip-path="url(#clip760)" d="M96.8715 698.87 L113.191 698.87 L113.191 702.806 L91.2465 702.806 L91.2465 698.87 Q93.9086 696.116 98.4919 691.486 Q103.098 686.833 104.279 685.491 Q106.524 682.968 107.404 681.232 Q108.307 679.472 108.307 677.783 Q108.307 675.028 106.362 673.292 Q104.441 671.556 101.339 671.556 Q99.14 671.556 96.6863 672.32 Q94.2558 673.084 91.478 674.634 L91.478 669.912 Q94.3021 668.778 96.7558 668.199 Q99.2095 667.621 101.246 667.621 Q106.617 667.621 109.811 670.306 Q113.006 672.991 113.006 677.482 Q113.006 679.611 112.196 681.533 Q111.408 683.431 109.302 686.023 Q108.723 686.695 105.621 689.912 Q102.52 693.107 96.8715 698.87 Z" fill="#000000" fill-rule="nonzero" fill-opacity="1" /><path clip-path="url(#clip760)" d="M101.246 358.044 Q97.6354 358.044 95.8067 361.609 Q94.0012 365.151 94.0012 372.28 Q94.0012 379.387 95.8067 382.951 Q97.6354 386.493 101.246 386.493 Q104.881 386.493 106.686 382.951 Q108.515 379.387 108.515 372.28 Q108.515 365.151 106.686 361.609 Q104.881 358.044 101.246 358.044 M101.246 354.341 Q107.057 354.341 110.112 358.947 Q113.191 363.53 113.191 372.28 Q113.191 381.007 110.112 385.614 Q107.057 390.197 101.246 390.197 Q95.4363 390.197 92.3576 385.614 Q89.3021 381.007 89.3021 372.28 Q89.3021 363.53 92.3576 358.947 Q95.4363 354.341 101.246 354.341 Z" fill="#000000" fill-rule="nonzero" fill-opacity="1" /><path clip-path="url(#clip760)" d="M96.8715 72.3103 L113.191 72.3103 L113.191 76.2454 L91.2465 76.2454 L91.2465 72.3103 Q93.9086 69.5557 98.4919 64.926 Q103.098 60.2733 104.279 58.9307 Q106.524 56.4076 107.404 54.6715 Q108.307 52.9122 108.307 51.2224 Q108.307 48.4678 106.362 46.7317 Q104.441 44.9956 101.339 44.9956 Q99.14 44.9956 96.6863 45.7595 Q94.2558 46.5234 91.478 48.0743 L91.478 43.3521 Q94.3021 42.2178 96.7558 41.6391 Q99.2095 41.0604 101.246 41.0604 Q106.617 41.0604 109.811 43.7456 Q113.006 46.4308 113.006 50.9215 Q113.006 53.0511 112.196 54.9724 Q111.408 56.8705 109.302 59.4631 Q108.723 60.1344 105.621 63.352 Q102.52 66.5464 96.8715 72.3103 Z" fill="#000000" fill-rule="nonzero" fill-opacity="1" /><polyline clip-path="url(#clip762)" style="stroke:#009af9; stroke-linecap:round; stroke-linejoin:round; stroke-width:4; stroke-opacity:1; fill:none" points="211.556,293.926 253.133,278.153 294.709,262.598 336.286,247.279 377.863,232.265 419.439,218.012 461.016,204.3 502.593,190.889 544.17,178.086 585.746,165.943 627.323,154.511 668.9,143.841 710.476,133.975 752.053,124.955 793.63,116.817 835.206,109.591 876.783,103.306 918.36,97.9827 959.936,93.6373 1001.51,90.2815 1043.09,87.9213 1084.67,86.5575 1126.24,86.1857 1167.82,86.7969 1209.4,88.3773 1250.97,90.9097 1292.55,94.4058 1334.13,98.812 1375.7,104.091 1417.28,110.268 1458.86,117.43 1500.43,125.726 1542.01,135.367 1583.59,146.503 1625.16,159.109 1666.74,172.988 1708.32,187.709 1749.89,202.604 1791.47,216.775 1833.05,229.105 1874.62,239.582 1916.2,248.902 1957.78,257.413 1999.35,265.421 2040.93,273.182 2082.51,280.889 2124.08,288.572 2165.66,296.286 2207.24,304.079 2248.81,311.984 2290.39,320.018 "/>
<polyline clip-path="url(#clip762)" style="stroke:#e26f46; stroke-linecap:round; stroke-linejoin:round; stroke-width:4; stroke-opacity:1; fill:none" points="211.556,372.246 253.133,345.608 294.709,321.773 336.286,300.833 377.863,282.877 419.439,267.963 461.016,256.069 502.593,247.187 544.17,241.391 585.746,238.69 627.323,239.07 668.9,242.503 710.476,248.946 752.053,258.341 793.63,270.618 835.206,285.691 876.783,303.465 918.36,323.833 959.936,346.675 1001.51,371.862 1043.09,399.257 1084.67,428.713 1126.24,460.078 1167.82,493.198 1209.4,527.909 1250.97,564.047 1292.55,601.43 1334.13,639.906 1375.7,679.302 1417.28,719.41 1458.86,759.984 1500.43,800.741 1542.01,841.359 1583.59,881.537 1625.16,920.839 1666.74,958.835 1708.32,995.23 1749.89,1029.86 1791.47,1062.68 1833.05,1093.81 1874.62,1123.65 1916.2,1152.59 1957.78,1180.84 1999.35,1208.52 2040.93,1235.65 2082.51,1262.17 2124.08,1288.05 2165.66,1313.27 2207.24,1337.76 2248.81,1361.45 2290.39,1384.24 "/>
<path clip-path="url(#clip760)" d="M222.643 1377.32 L895.729 1377.32 L895.729 1221.8 L222.643 1221.8  Z" fill="#ffffff" fill-rule="evenodd" fill-opacity="1"/>
<polyline clip-path="url(#clip760)" style="stroke:#000000; stroke-linecap:round; stroke-linejoin:round; stroke-width:4; stroke-opacity:1; fill:none" points="222.643,1377.32 895.729,1377.32 895.729,1221.8 222.643,1221.8 222.643,1377.32 "/>
<polyline clip-path="url(#clip760)" style="stroke:#009af9; stroke-linecap:round; stroke-linejoin:round; stroke-width:4; stroke-opacity:1; fill:none" points="247.127,1273.64 394.031,1273.64 "/>
<path clip-path="url(#clip760)" d="M438.863 1269.97 Q440.46 1267.1 442.682 1265.73 Q444.904 1264.36 447.913 1264.36 Q451.964 1264.36 454.163 1267.21 Q456.363 1270.04 456.363 1275.27 L456.363 1290.92 L452.08 1290.92 L452.08 1275.41 Q452.08 1271.68 450.761 1269.87 Q449.441 1268.07 446.733 1268.07 Q443.423 1268.07 441.501 1270.27 Q439.58 1272.47 439.58 1276.26 L439.58 1290.92 L435.298 1290.92 L435.298 1275.41 Q435.298 1271.66 433.978 1269.87 Q432.659 1268.07 429.904 1268.07 Q426.64 1268.07 424.719 1270.29 Q422.798 1272.49 422.798 1276.26 L422.798 1290.92 L418.515 1290.92 L418.515 1264.99 L422.798 1264.99 L422.798 1269.02 Q424.256 1266.63 426.293 1265.5 Q428.33 1264.36 431.131 1264.36 Q433.955 1264.36 435.923 1265.8 Q437.914 1267.23 438.863 1269.97 Z" fill="#000000" fill-rule="nonzero" fill-opacity="1" /><path clip-path="url(#clip760)" d="M476.64 1277.88 Q471.478 1277.88 469.487 1279.06 Q467.497 1280.24 467.497 1283.09 Q467.497 1285.36 468.978 1286.7 Q470.483 1288.02 473.052 1288.02 Q476.594 1288.02 478.723 1285.52 Q480.876 1283 480.876 1278.83 L480.876 1277.88 L476.64 1277.88 M485.135 1276.12 L485.135 1290.92 L480.876 1290.92 L480.876 1286.98 Q479.418 1289.34 477.242 1290.48 Q475.066 1291.59 471.918 1291.59 Q467.937 1291.59 465.575 1289.36 Q463.237 1287.12 463.237 1283.37 Q463.237 1278.99 466.154 1276.77 Q469.094 1274.55 474.904 1274.55 L480.876 1274.55 L480.876 1274.13 Q480.876 1271.19 478.932 1269.6 Q477.011 1267.98 473.515 1267.98 Q471.293 1267.98 469.187 1268.51 Q467.08 1269.04 465.136 1270.11 L465.136 1266.17 Q467.474 1265.27 469.673 1264.83 Q471.872 1264.36 473.955 1264.36 Q479.58 1264.36 482.358 1267.28 Q485.135 1270.2 485.135 1276.12 Z" fill="#000000" fill-rule="nonzero" fill-opacity="1" /><path clip-path="url(#clip760)" d="M510.436 1265.75 L510.436 1269.78 Q508.631 1268.86 506.686 1268.39 Q504.742 1267.93 502.659 1267.93 Q499.487 1267.93 497.89 1268.9 Q496.316 1269.87 496.316 1271.82 Q496.316 1273.3 497.45 1274.16 Q498.584 1274.99 502.01 1275.75 L503.469 1276.08 Q508.006 1277.05 509.904 1278.83 Q511.825 1280.59 511.825 1283.76 Q511.825 1287.37 508.955 1289.48 Q506.108 1291.59 501.108 1291.59 Q499.024 1291.59 496.756 1291.17 Q494.51 1290.78 492.01 1289.97 L492.01 1285.57 Q494.372 1286.79 496.663 1287.42 Q498.955 1288.02 501.2 1288.02 Q504.209 1288.02 505.83 1287 Q507.45 1285.96 507.45 1284.09 Q507.45 1282.35 506.27 1281.42 Q505.112 1280.5 501.154 1279.64 L499.672 1279.3 Q495.714 1278.46 493.955 1276.75 Q492.196 1275.01 492.196 1272 Q492.196 1268.35 494.788 1266.36 Q497.381 1264.36 502.149 1264.36 Q504.51 1264.36 506.594 1264.71 Q508.677 1265.06 510.436 1265.75 Z" fill="#000000" fill-rule="nonzero" fill-opacity="1" /><path clip-path="url(#clip760)" d="M535.135 1265.75 L535.135 1269.78 Q533.33 1268.86 531.385 1268.39 Q529.441 1267.93 527.357 1267.93 Q524.186 1267.93 522.589 1268.9 Q521.015 1269.87 521.015 1271.82 Q521.015 1273.3 522.149 1274.16 Q523.283 1274.99 526.709 1275.75 L528.168 1276.08 Q532.705 1277.05 534.603 1278.83 Q536.524 1280.59 536.524 1283.76 Q536.524 1287.37 533.654 1289.48 Q530.807 1291.59 525.807 1291.59 Q523.723 1291.59 521.455 1291.17 Q519.209 1290.78 516.709 1289.97 L516.709 1285.57 Q519.07 1286.79 521.362 1287.42 Q523.654 1288.02 525.899 1288.02 Q528.908 1288.02 530.529 1287 Q532.149 1285.96 532.149 1284.09 Q532.149 1282.35 530.969 1281.42 Q529.811 1280.5 525.853 1279.64 L524.371 1279.3 Q520.413 1278.46 518.654 1276.75 Q516.895 1275.01 516.895 1272 Q516.895 1268.35 519.487 1266.36 Q522.08 1264.36 526.848 1264.36 Q529.209 1264.36 531.293 1264.71 Q533.376 1265.06 535.135 1265.75 Z" fill="#000000" fill-rule="nonzero" fill-opacity="1" /><path clip-path="url(#clip760)" d="M543.908 1285.04 L548.793 1285.04 L548.793 1290.92 L543.908 1290.92 L543.908 1285.04 Z" fill="#000000" fill-rule="nonzero" fill-opacity="1" /><path clip-path="url(#clip760)" d="M574.904 1265.75 L574.904 1269.78 Q573.098 1268.86 571.154 1268.39 Q569.209 1267.93 567.126 1267.93 Q563.955 1267.93 562.357 1268.9 Q560.783 1269.87 560.783 1271.82 Q560.783 1273.3 561.917 1274.16 Q563.052 1274.99 566.478 1275.75 L567.936 1276.08 Q572.473 1277.05 574.371 1278.83 Q576.292 1280.59 576.292 1283.76 Q576.292 1287.37 573.422 1289.48 Q570.575 1291.59 565.575 1291.59 Q563.492 1291.59 561.223 1291.17 Q558.978 1290.78 556.478 1289.97 L556.478 1285.57 Q558.839 1286.79 561.13 1287.42 Q563.422 1288.02 565.667 1288.02 Q568.677 1288.02 570.297 1287 Q571.917 1285.96 571.917 1284.09 Q571.917 1282.35 570.737 1281.42 Q569.579 1280.5 565.621 1279.64 L564.14 1279.3 Q560.181 1278.46 558.422 1276.75 Q556.663 1275.01 556.663 1272 Q556.663 1268.35 559.255 1266.36 Q561.848 1264.36 566.617 1264.36 Q568.978 1264.36 571.061 1264.71 Q573.144 1265.06 574.904 1265.75 Z" fill="#000000" fill-rule="nonzero" fill-opacity="1" /><path clip-path="url(#clip760)" d="M608.376 1254.94 Q605.274 1260.27 603.769 1265.48 Q602.264 1270.68 602.264 1276.03 Q602.264 1281.38 603.769 1286.63 Q605.297 1291.86 608.376 1297.17 L604.672 1297.17 Q601.2 1291.73 599.464 1286.47 Q597.751 1281.22 597.751 1276.03 Q597.751 1270.87 599.464 1265.64 Q601.177 1260.41 604.672 1254.94 L608.376 1254.94 Z" fill="#000000" fill-rule="nonzero" fill-opacity="1" /><path clip-path="url(#clip760)" d="M631.408 1272.28 Q634.764 1273 636.639 1275.27 Q638.537 1277.54 638.537 1280.87 Q638.537 1285.98 635.019 1288.79 Q631.5 1291.59 625.019 1291.59 Q622.843 1291.59 620.528 1291.15 Q618.237 1290.73 615.783 1289.87 L615.783 1285.36 Q617.727 1286.49 620.042 1287.07 Q622.357 1287.65 624.88 1287.65 Q629.278 1287.65 631.57 1285.92 Q633.885 1284.18 633.885 1280.87 Q633.885 1277.81 631.732 1276.1 Q629.602 1274.36 625.783 1274.36 L621.755 1274.36 L621.755 1270.52 L625.968 1270.52 Q629.417 1270.52 631.246 1269.16 Q633.075 1267.77 633.075 1265.17 Q633.075 1262.51 631.176 1261.1 Q629.301 1259.67 625.783 1259.67 Q623.862 1259.67 621.663 1260.08 Q619.463 1260.5 616.825 1261.38 L616.825 1257.21 Q619.487 1256.47 621.801 1256.1 Q624.139 1255.73 626.2 1255.73 Q631.524 1255.73 634.625 1258.16 Q637.727 1260.57 637.727 1264.69 Q637.727 1267.56 636.084 1269.55 Q634.44 1271.52 631.408 1272.28 Z" fill="#000000" fill-rule="nonzero" fill-opacity="1" /><path clip-path="url(#clip760)" d="M661.57 1272.28 Q664.926 1273 666.801 1275.27 Q668.699 1277.54 668.699 1280.87 Q668.699 1285.98 665.181 1288.79 Q661.662 1291.59 655.181 1291.59 Q653.005 1291.59 650.69 1291.15 Q648.399 1290.73 645.945 1289.87 L645.945 1285.36 Q647.889 1286.49 650.204 1287.07 Q652.519 1287.65 655.042 1287.65 Q659.44 1287.65 661.732 1285.92 Q664.047 1284.18 664.047 1280.87 Q664.047 1277.81 661.894 1276.1 Q659.764 1274.36 655.945 1274.36 L651.917 1274.36 L651.917 1270.52 L656.13 1270.52 Q659.579 1270.52 661.408 1269.16 Q663.236 1267.77 663.236 1265.17 Q663.236 1262.51 661.338 1261.1 Q659.463 1259.67 655.945 1259.67 Q654.023 1259.67 651.824 1260.08 Q649.625 1260.5 646.986 1261.38 L646.986 1257.21 Q649.649 1256.47 651.963 1256.1 Q654.301 1255.73 656.361 1255.73 Q661.685 1255.73 664.787 1258.16 Q667.889 1260.57 667.889 1264.69 Q667.889 1267.56 666.246 1269.55 Q664.602 1271.52 661.57 1272.28 Z" fill="#000000" fill-rule="nonzero" fill-opacity="1" /><path clip-path="url(#clip760)" d="M677.611 1256.36 L695.968 1256.36 L695.968 1260.29 L681.894 1260.29 L681.894 1268.76 Q682.912 1268.42 683.931 1268.25 Q684.949 1268.07 685.968 1268.07 Q691.755 1268.07 695.134 1271.24 Q698.514 1274.41 698.514 1279.83 Q698.514 1285.41 695.042 1288.51 Q691.57 1291.59 685.25 1291.59 Q683.074 1291.59 680.806 1291.22 Q678.56 1290.85 676.153 1290.11 L676.153 1285.41 Q678.236 1286.54 680.459 1287.1 Q682.681 1287.65 685.158 1287.65 Q689.162 1287.65 691.5 1285.54 Q693.838 1283.44 693.838 1279.83 Q693.838 1276.22 691.5 1274.11 Q689.162 1272 685.158 1272 Q683.283 1272 681.408 1272.42 Q679.556 1272.84 677.611 1273.72 L677.611 1256.36 Z" fill="#000000" fill-rule="nonzero" fill-opacity="1" /><path clip-path="url(#clip760)" d="M707.773 1256.36 L726.13 1256.36 L726.13 1260.29 L712.056 1260.29 L712.056 1268.76 Q713.074 1268.42 714.093 1268.25 Q715.111 1268.07 716.13 1268.07 Q721.917 1268.07 725.296 1271.24 Q728.676 1274.41 728.676 1279.83 Q728.676 1285.41 725.204 1288.51 Q721.731 1291.59 715.412 1291.59 Q713.236 1291.59 710.968 1291.22 Q708.722 1290.85 706.315 1290.11 L706.315 1285.41 Q708.398 1286.54 710.62 1287.1 Q712.843 1287.65 715.319 1287.65 Q719.324 1287.65 721.662 1285.54 Q724 1283.44 724 1279.83 Q724 1276.22 721.662 1274.11 Q719.324 1272 715.319 1272 Q713.444 1272 711.569 1272.42 Q709.718 1272.84 707.773 1273.72 L707.773 1256.36 Z" fill="#000000" fill-rule="nonzero" fill-opacity="1" /><path clip-path="url(#clip760)" d="M750.736 1260.43 L738.93 1278.88 L750.736 1278.88 L750.736 1260.43 M749.509 1256.36 L755.389 1256.36 L755.389 1278.88 L760.319 1278.88 L760.319 1282.77 L755.389 1282.77 L755.389 1290.92 L750.736 1290.92 L750.736 1282.77 L735.134 1282.77 L735.134 1278.25 L749.509 1256.36 Z" fill="#000000" fill-rule="nonzero" fill-opacity="1" /><path clip-path="url(#clip760)" d="M780.898 1260.43 L769.092 1278.88 L780.898 1278.88 L780.898 1260.43 M779.671 1256.36 L785.551 1256.36 L785.551 1278.88 L790.481 1278.88 L790.481 1282.77 L785.551 1282.77 L785.551 1290.92 L780.898 1290.92 L780.898 1282.77 L765.296 1282.77 L765.296 1278.25 L779.671 1256.36 Z" fill="#000000" fill-rule="nonzero" fill-opacity="1" /><path clip-path="url(#clip760)" d="M812.379 1272.28 Q815.736 1273 817.611 1275.27 Q819.509 1277.54 819.509 1280.87 Q819.509 1285.98 815.99 1288.79 Q812.472 1291.59 805.99 1291.59 Q803.814 1291.59 801.5 1291.15 Q799.208 1290.73 796.754 1289.87 L796.754 1285.36 Q798.699 1286.49 801.013 1287.07 Q803.328 1287.65 805.851 1287.65 Q810.249 1287.65 812.541 1285.92 Q814.856 1284.18 814.856 1280.87 Q814.856 1277.81 812.703 1276.1 Q810.574 1274.36 806.754 1274.36 L802.726 1274.36 L802.726 1270.52 L806.939 1270.52 Q810.388 1270.52 812.217 1269.16 Q814.046 1267.77 814.046 1265.17 Q814.046 1262.51 812.148 1261.1 Q810.273 1259.67 806.754 1259.67 Q804.833 1259.67 802.634 1260.08 Q800.435 1260.5 797.796 1261.38 L797.796 1257.21 Q800.458 1256.47 802.773 1256.1 Q805.111 1255.73 807.171 1255.73 Q812.495 1255.73 815.597 1258.16 Q818.699 1260.57 818.699 1264.69 Q818.699 1267.56 817.055 1269.55 Q815.412 1271.52 812.379 1272.28 Z" fill="#000000" fill-rule="nonzero" fill-opacity="1" /><path clip-path="url(#clip760)" d="M832.402 1286.98 L848.722 1286.98 L848.722 1290.92 L826.777 1290.92 L826.777 1286.98 Q829.439 1284.23 834.023 1279.6 Q838.629 1274.94 839.81 1273.6 Q842.055 1271.08 842.935 1269.34 Q843.837 1267.58 843.837 1265.89 Q843.837 1263.14 841.893 1261.4 Q839.972 1259.67 836.87 1259.67 Q834.671 1259.67 832.217 1260.43 Q829.786 1261.19 827.009 1262.74 L827.009 1258.02 Q829.833 1256.89 832.286 1256.31 Q834.74 1255.73 836.777 1255.73 Q842.147 1255.73 845.342 1258.42 Q848.536 1261.1 848.536 1265.59 Q848.536 1267.72 847.726 1269.64 Q846.939 1271.54 844.833 1274.13 Q844.254 1274.8 841.152 1278.02 Q838.05 1281.22 832.402 1286.98 Z" fill="#000000" fill-rule="nonzero" fill-opacity="1" /><path clip-path="url(#clip760)" d="M857.263 1254.94 L860.967 1254.94 Q864.439 1260.41 866.152 1265.64 Q867.888 1270.87 867.888 1276.03 Q867.888 1281.22 866.152 1286.47 Q864.439 1291.73 860.967 1297.17 L857.263 1297.17 Q860.342 1291.86 861.846 1286.63 Q863.374 1281.38 863.374 1276.03 Q863.374 1270.68 861.846 1265.48 Q860.342 1260.27 857.263 1254.94 Z" fill="#000000" fill-rule="nonzero" fill-opacity="1" /><polyline clip-path="url(#clip760)" style="stroke:#e26f46; stroke-linecap:round; stroke-linejoin:round; stroke-width:4; stroke-opacity:1; fill:none" points="247.127,1325.48 394.031,1325.48 "/>
<path clip-path="url(#clip760)" d="M438.863 1321.81 Q440.46 1318.94 442.682 1317.57 Q444.904 1316.2 447.913 1316.2 Q451.964 1316.2 454.163 1319.05 Q456.363 1321.88 456.363 1327.11 L456.363 1342.76 L452.08 1342.76 L452.08 1327.25 Q452.08 1323.52 450.761 1321.71 Q449.441 1319.91 446.733 1319.91 Q443.423 1319.91 441.501 1322.11 Q439.58 1324.31 439.58 1328.1 L439.58 1342.76 L435.298 1342.76 L435.298 1327.25 Q435.298 1323.5 433.978 1321.71 Q432.659 1319.91 429.904 1319.91 Q426.64 1319.91 424.719 1322.13 Q422.798 1324.33 422.798 1328.1 L422.798 1342.76 L418.515 1342.76 L418.515 1316.83 L422.798 1316.83 L422.798 1320.86 Q424.256 1318.47 426.293 1317.34 Q428.33 1316.2 431.131 1316.2 Q433.955 1316.2 435.923 1317.64 Q437.914 1319.07 438.863 1321.81 Z" fill="#000000" fill-rule="nonzero" fill-opacity="1" /><path clip-path="url(#clip760)" d="M476.64 1329.72 Q471.478 1329.72 469.487 1330.9 Q467.497 1332.08 467.497 1334.93 Q467.497 1337.2 468.978 1338.54 Q470.483 1339.86 473.052 1339.86 Q476.594 1339.86 478.723 1337.36 Q480.876 1334.84 480.876 1330.67 L480.876 1329.72 L476.64 1329.72 M485.135 1327.96 L485.135 1342.76 L480.876 1342.76 L480.876 1338.82 Q479.418 1341.18 477.242 1342.32 Q475.066 1343.43 471.918 1343.43 Q467.937 1343.43 465.575 1341.2 Q463.237 1338.96 463.237 1335.21 Q463.237 1330.83 466.154 1328.61 Q469.094 1326.39 474.904 1326.39 L480.876 1326.39 L480.876 1325.97 Q480.876 1323.03 478.932 1321.44 Q477.011 1319.82 473.515 1319.82 Q471.293 1319.82 469.187 1320.35 Q467.08 1320.88 465.136 1321.95 L465.136 1318.01 Q467.474 1317.11 469.673 1316.67 Q471.872 1316.2 473.955 1316.2 Q479.58 1316.2 482.358 1319.12 Q485.135 1322.04 485.135 1327.96 Z" fill="#000000" fill-rule="nonzero" fill-opacity="1" /><path clip-path="url(#clip760)" d="M510.436 1317.59 L510.436 1321.62 Q508.631 1320.7 506.686 1320.23 Q504.742 1319.77 502.659 1319.77 Q499.487 1319.77 497.89 1320.74 Q496.316 1321.71 496.316 1323.66 Q496.316 1325.14 497.45 1326 Q498.584 1326.83 502.01 1327.59 L503.469 1327.92 Q508.006 1328.89 509.904 1330.67 Q511.825 1332.43 511.825 1335.6 Q511.825 1339.21 508.955 1341.32 Q506.108 1343.43 501.108 1343.43 Q499.024 1343.43 496.756 1343.01 Q494.51 1342.62 492.01 1341.81 L492.01 1337.41 Q494.372 1338.63 496.663 1339.26 Q498.955 1339.86 501.2 1339.86 Q504.209 1339.86 505.83 1338.84 Q507.45 1337.8 507.45 1335.93 Q507.45 1334.19 506.27 1333.26 Q505.112 1332.34 501.154 1331.48 L499.672 1331.14 Q495.714 1330.3 493.955 1328.59 Q492.196 1326.85 492.196 1323.84 Q492.196 1320.19 494.788 1318.2 Q497.381 1316.2 502.149 1316.2 Q504.51 1316.2 506.594 1316.55 Q508.677 1316.9 510.436 1317.59 Z" fill="#000000" fill-rule="nonzero" fill-opacity="1" /><path clip-path="url(#clip760)" d="M535.135 1317.59 L535.135 1321.62 Q533.33 1320.7 531.385 1320.23 Q529.441 1319.77 527.357 1319.77 Q524.186 1319.77 522.589 1320.74 Q521.015 1321.71 521.015 1323.66 Q521.015 1325.14 522.149 1326 Q523.283 1326.83 526.709 1327.59 L528.168 1327.92 Q532.705 1328.89 534.603 1330.67 Q536.524 1332.43 536.524 1335.6 Q536.524 1339.21 533.654 1341.32 Q530.807 1343.43 525.807 1343.43 Q523.723 1343.43 521.455 1343.01 Q519.209 1342.62 516.709 1341.81 L516.709 1337.41 Q519.07 1338.63 521.362 1339.26 Q523.654 1339.86 525.899 1339.86 Q528.908 1339.86 530.529 1338.84 Q532.149 1337.8 532.149 1335.93 Q532.149 1334.19 530.969 1333.26 Q529.811 1332.34 525.853 1331.48 L524.371 1331.14 Q520.413 1330.3 518.654 1328.59 Q516.895 1326.85 516.895 1323.84 Q516.895 1320.19 519.487 1318.2 Q522.08 1316.2 526.848 1316.2 Q529.209 1316.2 531.293 1316.55 Q533.376 1316.9 535.135 1317.59 Z" fill="#000000" fill-rule="nonzero" fill-opacity="1" /><path clip-path="url(#clip760)" d="M543.908 1336.88 L548.793 1336.88 L548.793 1342.76 L543.908 1342.76 L543.908 1336.88 Z" fill="#000000" fill-rule="nonzero" fill-opacity="1" /><path clip-path="url(#clip760)" d="M555.32 1316.83 L559.834 1316.83 L567.936 1338.59 L576.038 1316.83 L580.552 1316.83 L570.829 1342.76 L565.042 1342.76 L555.32 1316.83 Z" fill="#000000" fill-rule="nonzero" fill-opacity="1" /><path clip-path="url(#clip760)" d="M611.732 1306.78 Q608.63 1312.11 607.126 1317.32 Q605.621 1322.52 605.621 1327.87 Q605.621 1333.22 607.126 1338.47 Q608.653 1343.7 611.732 1349.01 L608.028 1349.01 Q604.556 1343.57 602.82 1338.31 Q601.107 1333.06 601.107 1327.87 Q601.107 1322.71 602.82 1317.48 Q604.533 1312.25 608.028 1306.78 L611.732 1306.78 Z" fill="#000000" fill-rule="nonzero" fill-opacity="1" /><path clip-path="url(#clip760)" d="M634.764 1324.12 Q638.121 1324.84 639.996 1327.11 Q641.894 1329.38 641.894 1332.71 Q641.894 1337.82 638.375 1340.63 Q634.857 1343.43 628.375 1343.43 Q626.2 1343.43 623.885 1342.99 Q621.593 1342.57 619.139 1341.71 L619.139 1337.2 Q621.084 1338.33 623.399 1338.91 Q625.713 1339.49 628.237 1339.49 Q632.635 1339.49 634.926 1337.76 Q637.241 1336.02 637.241 1332.71 Q637.241 1329.65 635.088 1327.94 Q632.959 1326.2 629.139 1326.2 L625.112 1326.2 L625.112 1322.36 L629.325 1322.36 Q632.774 1322.36 634.602 1321 Q636.431 1319.61 636.431 1317.01 Q636.431 1314.35 634.533 1312.94 Q632.658 1311.51 629.139 1311.51 Q627.218 1311.51 625.019 1311.92 Q622.82 1312.34 620.181 1313.22 L620.181 1309.05 Q622.843 1308.31 625.158 1307.94 Q627.496 1307.57 629.556 1307.57 Q634.88 1307.57 637.982 1310 Q641.084 1312.41 641.084 1316.53 Q641.084 1319.4 639.44 1321.39 Q637.797 1323.36 634.764 1324.12 Z" fill="#000000" fill-rule="nonzero" fill-opacity="1" /><path clip-path="url(#clip760)" d="M664.926 1324.12 Q668.283 1324.84 670.158 1327.11 Q672.056 1329.38 672.056 1332.71 Q672.056 1337.82 668.537 1340.63 Q665.019 1343.43 658.537 1343.43 Q656.361 1343.43 654.047 1342.99 Q651.755 1342.57 649.301 1341.71 L649.301 1337.2 Q651.246 1338.33 653.561 1338.91 Q655.875 1339.49 658.398 1339.49 Q662.797 1339.49 665.088 1337.76 Q667.403 1336.02 667.403 1332.71 Q667.403 1329.65 665.25 1327.94 Q663.121 1326.2 659.301 1326.2 L655.273 1326.2 L655.273 1322.36 L659.486 1322.36 Q662.935 1322.36 664.764 1321 Q666.593 1319.61 666.593 1317.01 Q666.593 1314.35 664.695 1312.94 Q662.82 1311.51 659.301 1311.51 Q657.38 1311.51 655.181 1311.92 Q652.982 1312.34 650.343 1313.22 L650.343 1309.05 Q653.005 1308.31 655.32 1307.94 Q657.658 1307.57 659.718 1307.57 Q665.042 1307.57 668.144 1310 Q671.246 1312.41 671.246 1316.53 Q671.246 1319.4 669.602 1321.39 Q667.959 1323.36 664.926 1324.12 Z" fill="#000000" fill-rule="nonzero" fill-opacity="1" /><path clip-path="url(#clip760)" d="M680.968 1308.2 L699.324 1308.2 L699.324 1312.13 L685.25 1312.13 L685.25 1320.6 Q686.269 1320.26 687.287 1320.09 Q688.306 1319.91 689.324 1319.91 Q695.111 1319.91 698.491 1323.08 Q701.87 1326.25 701.87 1331.67 Q701.87 1337.25 698.398 1340.35 Q694.926 1343.43 688.607 1343.43 Q686.431 1343.43 684.162 1343.06 Q681.917 1342.69 679.509 1341.95 L679.509 1337.25 Q681.593 1338.38 683.815 1338.94 Q686.037 1339.49 688.514 1339.49 Q692.519 1339.49 694.857 1337.38 Q697.195 1335.28 697.195 1331.67 Q697.195 1328.06 694.857 1325.95 Q692.519 1323.84 688.514 1323.84 Q686.639 1323.84 684.764 1324.26 Q682.912 1324.68 680.968 1325.56 L680.968 1308.2 Z" fill="#000000" fill-rule="nonzero" fill-opacity="1" /><path clip-path="url(#clip760)" d="M711.13 1308.2 L729.486 1308.2 L729.486 1312.13 L715.412 1312.13 L715.412 1320.6 Q716.431 1320.26 717.449 1320.09 Q718.468 1319.91 719.486 1319.91 Q725.273 1319.91 728.653 1323.08 Q732.032 1326.25 732.032 1331.67 Q732.032 1337.25 728.56 1340.35 Q725.088 1343.43 718.769 1343.43 Q716.593 1343.43 714.324 1343.06 Q712.079 1342.69 709.671 1341.95 L709.671 1337.25 Q711.755 1338.38 713.977 1338.94 Q716.199 1339.49 718.676 1339.49 Q722.681 1339.49 725.018 1337.38 Q727.356 1335.28 727.356 1331.67 Q727.356 1328.06 725.018 1325.95 Q722.681 1323.84 718.676 1323.84 Q716.801 1323.84 714.926 1324.26 Q713.074 1324.68 711.13 1325.56 L711.13 1308.2 Z" fill="#000000" fill-rule="nonzero" fill-opacity="1" /><path clip-path="url(#clip760)" d="M754.092 1312.27 L742.287 1330.72 L754.092 1330.72 L754.092 1312.27 M752.866 1308.2 L758.745 1308.2 L758.745 1330.72 L763.676 1330.72 L763.676 1334.61 L758.745 1334.61 L758.745 1342.76 L754.092 1342.76 L754.092 1334.61 L738.491 1334.61 L738.491 1330.09 L752.866 1308.2 Z" fill="#000000" fill-rule="nonzero" fill-opacity="1" /><path clip-path="url(#clip760)" d="M784.254 1312.27 L772.449 1330.72 L784.254 1330.72 L784.254 1312.27 M783.027 1308.2 L788.907 1308.2 L788.907 1330.72 L793.838 1330.72 L793.838 1334.61 L788.907 1334.61 L788.907 1342.76 L784.254 1342.76 L784.254 1334.61 L768.652 1334.61 L768.652 1330.09 L783.027 1308.2 Z" fill="#000000" fill-rule="nonzero" fill-opacity="1" /><path clip-path="url(#clip760)" d="M815.736 1324.12 Q819.092 1324.84 820.967 1327.11 Q822.865 1329.38 822.865 1332.71 Q822.865 1337.82 819.347 1340.63 Q815.828 1343.43 809.347 1343.43 Q807.171 1343.43 804.856 1342.99 Q802.564 1342.57 800.111 1341.71 L800.111 1337.2 Q802.055 1338.33 804.37 1338.91 Q806.685 1339.49 809.208 1339.49 Q813.606 1339.49 815.898 1337.76 Q818.212 1336.02 818.212 1332.71 Q818.212 1329.65 816.06 1327.94 Q813.93 1326.2 810.111 1326.2 L806.083 1326.2 L806.083 1322.36 L810.296 1322.36 Q813.745 1322.36 815.574 1321 Q817.402 1319.61 817.402 1317.01 Q817.402 1314.35 815.504 1312.94 Q813.629 1311.51 810.111 1311.51 Q808.189 1311.51 805.99 1311.92 Q803.791 1312.34 801.152 1313.22 L801.152 1309.05 Q803.814 1308.31 806.129 1307.94 Q808.467 1307.57 810.527 1307.57 Q815.851 1307.57 818.953 1310 Q822.055 1312.41 822.055 1316.53 Q822.055 1319.4 820.411 1321.39 Q818.768 1323.36 815.736 1324.12 Z" fill="#000000" fill-rule="nonzero" fill-opacity="1" /><path clip-path="url(#clip760)" d="M845.897 1324.12 Q849.254 1324.84 851.129 1327.11 Q853.027 1329.38 853.027 1332.71 Q853.027 1337.82 849.509 1340.63 Q845.99 1343.43 839.509 1343.43 Q837.333 1343.43 835.018 1342.99 Q832.726 1342.57 830.273 1341.71 L830.273 1337.2 Q832.217 1338.33 834.532 1338.91 Q836.847 1339.49 839.37 1339.49 Q843.768 1339.49 846.059 1337.76 Q848.374 1336.02 848.374 1332.71 Q848.374 1329.65 846.222 1327.94 Q844.092 1326.2 840.272 1326.2 L836.245 1326.2 L836.245 1322.36 L840.458 1322.36 Q843.907 1322.36 845.735 1321 Q847.564 1319.61 847.564 1317.01 Q847.564 1314.35 845.666 1312.94 Q843.791 1311.51 840.272 1311.51 Q838.351 1311.51 836.152 1311.92 Q833.953 1312.34 831.314 1313.22 L831.314 1309.05 Q833.976 1308.31 836.291 1307.94 Q838.629 1307.57 840.689 1307.57 Q846.013 1307.57 849.115 1310 Q852.217 1312.41 852.217 1316.53 Q852.217 1319.4 850.573 1321.39 Q848.93 1323.36 845.897 1324.12 Z" fill="#000000" fill-rule="nonzero" fill-opacity="1" /><path clip-path="url(#clip760)" d="M860.62 1306.78 L864.323 1306.78 Q867.795 1312.25 869.508 1317.48 Q871.245 1322.71 871.245 1327.87 Q871.245 1333.06 869.508 1338.31 Q867.795 1343.57 864.323 1349.01 L860.62 1349.01 Q863.698 1343.7 865.203 1338.47 Q866.731 1333.22 866.731 1327.87 Q866.731 1322.52 865.203 1317.32 Q863.698 1312.11 860.62 1306.78 Z" fill="#000000" fill-rule="nonzero" fill-opacity="1" /></svg>
