<?xml version="1.0" encoding="utf-8"?>
<svg xmlns="http://www.w3.org/2000/svg" xmlns:xlink="http://www.w3.org/1999/xlink" width="600" height="400" viewBox="0 0 2400 1600">
<defs>
  <clipPath id="clip390">
    <rect x="0" y="0" width="2400" height="1600"/>
  </clipPath>
</defs>
<path clip-path="url(#clip390)" d="
M0 1600 L2400 1600 L2400 0 L0 0  Z
  " fill="#ffffff" fill-rule="evenodd" fill-opacity="1"/>
<defs>
  <clipPath id="clip391">
    <rect x="480" y="0" width="1681" height="1600"/>
  </clipPath>
</defs>
<path clip-path="url(#clip390)" d="
M303.503 1401.58 L2352.76 1401.58 L2352.76 47.2441 L303.503 47.2441  Z
  " fill="#ffffff" fill-rule="evenodd" fill-opacity="1"/>
<defs>
  <clipPath id="clip392">
    <rect x="303" y="47" width="2050" height="1355"/>
  </clipPath>
</defs>
<polyline clip-path="url(#clip392)" style="stroke:#000000; stroke-linecap:round; stroke-linejoin:round; stroke-width:2; stroke-opacity:0.1; fill:none" points="
  361.501,1401.58 361.501,47.2441 
  "/>
<polyline clip-path="url(#clip392)" style="stroke:#000000; stroke-linecap:round; stroke-linejoin:round; stroke-width:2; stroke-opacity:0.1; fill:none" points="
  748.152,1401.58 748.152,47.2441 
  "/>
<polyline clip-path="url(#clip392)" style="stroke:#000000; stroke-linecap:round; stroke-linejoin:round; stroke-width:2; stroke-opacity:0.1; fill:none" points="
  1134.8,1401.58 1134.8,47.2441 
  "/>
<polyline clip-path="url(#clip392)" style="stroke:#000000; stroke-linecap:round; stroke-linejoin:round; stroke-width:2; stroke-opacity:0.1; fill:none" points="
  1521.46,1401.58 1521.46,47.2441 
  "/>
<polyline clip-path="url(#clip392)" style="stroke:#000000; stroke-linecap:round; stroke-linejoin:round; stroke-width:2; stroke-opacity:0.1; fill:none" points="
  1908.11,1401.58 1908.11,47.2441 
  "/>
<polyline clip-path="url(#clip392)" style="stroke:#000000; stroke-linecap:round; stroke-linejoin:round; stroke-width:2; stroke-opacity:0.1; fill:none" points="
  2294.76,1401.58 2294.76,47.2441 
  "/>
<polyline clip-path="url(#clip390)" style="stroke:#000000; stroke-linecap:round; stroke-linejoin:round; stroke-width:4; stroke-opacity:1; fill:none" points="
  303.503,1401.58 2352.76,1401.58 
  "/>
<polyline clip-path="url(#clip390)" style="stroke:#000000; stroke-linecap:round; stroke-linejoin:round; stroke-width:4; stroke-opacity:1; fill:none" points="
  361.501,1401.58 361.501,1382.68 
  "/>
<polyline clip-path="url(#clip390)" style="stroke:#000000; stroke-linecap:round; stroke-linejoin:round; stroke-width:4; stroke-opacity:1; fill:none" points="
  748.152,1401.58 748.152,1382.68 
  "/>
<polyline clip-path="url(#clip390)" style="stroke:#000000; stroke-linecap:round; stroke-linejoin:round; stroke-width:4; stroke-opacity:1; fill:none" points="
  1134.8,1401.58 1134.8,1382.68 
  "/>
<polyline clip-path="url(#clip390)" style="stroke:#000000; stroke-linecap:round; stroke-linejoin:round; stroke-width:4; stroke-opacity:1; fill:none" points="
  1521.46,1401.58 1521.46,1382.68 
  "/>
<polyline clip-path="url(#clip390)" style="stroke:#000000; stroke-linecap:round; stroke-linejoin:round; stroke-width:4; stroke-opacity:1; fill:none" points="
  1908.11,1401.58 1908.11,1382.68 
  "/>
<polyline clip-path="url(#clip390)" style="stroke:#000000; stroke-linecap:round; stroke-linejoin:round; stroke-width:4; stroke-opacity:1; fill:none" points="
  2294.76,1401.58 2294.76,1382.68 
  "/>
<path clip-path="url(#clip390)" d="M361.501 1438.36 Q356.084 1438.36 353.341 1443.71 Q350.633 1449.02 350.633 1459.71 Q350.633 1470.37 353.341 1475.72 Q356.084 1481.03 361.501 1481.03 Q366.952 1481.03 369.66 1475.72 Q372.403 1470.37 372.403 1459.71 Q372.403 1449.02 369.66 1443.71 Q366.952 1438.36 361.501 1438.36 M361.501 1432.8 Q370.216 1432.8 374.799 1439.71 Q379.417 1446.59 379.417 1459.71 Q379.417 1472.8 374.799 1479.71 Q370.216 1486.59 361.501 1486.59 Q352.785 1486.59 348.167 1479.71 Q343.584 1472.8 343.584 1459.71 Q343.584 1446.59 348.167 1439.71 Q352.785 1432.8 361.501 1432.8 Z" fill="#000000" fill-rule="evenodd" fill-opacity="1" /><path clip-path="url(#clip390)" d="M733.725 1479.68 L745.183 1479.68 L745.183 1440.13 L732.718 1442.63 L732.718 1436.24 L745.114 1433.74 L752.128 1433.74 L752.128 1479.68 L763.586 1479.68 L763.586 1485.58 L733.725 1485.58 L733.725 1479.68 Z" fill="#000000" fill-rule="evenodd" fill-opacity="1" /><path clip-path="url(#clip390)" d="M1126.78 1479.68 L1151.26 1479.68 L1151.26 1485.58 L1118.35 1485.58 L1118.35 1479.68 Q1122.34 1475.55 1129.21 1468.6 Q1136.12 1461.62 1137.89 1459.61 Q1141.26 1455.82 1142.58 1453.22 Q1143.94 1450.58 1143.94 1448.05 Q1143.94 1443.91 1141.02 1441.31 Q1138.14 1438.71 1133.48 1438.71 Q1130.19 1438.71 1126.51 1439.85 Q1122.86 1441 1118.69 1443.32 L1118.69 1436.24 Q1122.93 1434.54 1126.61 1433.67 Q1130.29 1432.8 1133.35 1432.8 Q1141.4 1432.8 1146.19 1436.83 Q1150.98 1440.86 1150.98 1447.59 Q1150.98 1450.79 1149.77 1453.67 Q1148.59 1456.52 1145.43 1460.41 Q1144.56 1461.41 1139.91 1466.24 Q1135.26 1471.03 1126.78 1479.68 Z" fill="#000000" fill-rule="evenodd" fill-opacity="1" /><path clip-path="url(#clip390)" d="M1527.83 1457.63 Q1532.86 1458.7 1535.67 1462.11 Q1538.52 1465.51 1538.52 1470.51 Q1538.52 1478.18 1533.24 1482.39 Q1527.97 1486.59 1518.24 1486.59 Q1514.98 1486.59 1511.51 1485.93 Q1508.07 1485.3 1504.39 1484.02 L1504.39 1477.25 Q1507.31 1478.95 1510.78 1479.82 Q1514.25 1480.68 1518.04 1480.68 Q1524.63 1480.68 1528.07 1478.08 Q1531.54 1475.48 1531.54 1470.51 Q1531.54 1465.93 1528.31 1463.36 Q1525.12 1460.75 1519.39 1460.75 L1513.35 1460.75 L1513.35 1454.99 L1519.67 1454.99 Q1524.84 1454.99 1527.58 1452.94 Q1530.33 1450.86 1530.33 1446.97 Q1530.33 1442.98 1527.48 1440.86 Q1524.67 1438.71 1519.39 1438.71 Q1516.51 1438.71 1513.21 1439.33 Q1509.91 1439.96 1505.95 1441.27 L1505.95 1435.02 Q1509.94 1433.91 1513.42 1433.36 Q1516.92 1432.8 1520.01 1432.8 Q1528 1432.8 1532.65 1436.45 Q1537.31 1440.06 1537.31 1446.24 Q1537.31 1450.55 1534.84 1453.53 Q1532.38 1456.48 1527.83 1457.63 Z" fill="#000000" fill-rule="evenodd" fill-opacity="1" /><path clip-path="url(#clip390)" d="M1912.62 1439.85 L1894.91 1467.52 L1912.62 1467.52 L1912.62 1439.85 M1910.78 1433.74 L1919.6 1433.74 L1919.6 1467.52 L1927 1467.52 L1927 1473.36 L1919.6 1473.36 L1919.6 1485.58 L1912.62 1485.58 L1912.62 1473.36 L1889.22 1473.36 L1889.22 1466.59 L1910.78 1433.74 Z" fill="#000000" fill-rule="evenodd" fill-opacity="1" /><path clip-path="url(#clip390)" d="M2280.17 1433.74 L2307.71 1433.74 L2307.71 1439.64 L2286.6 1439.64 L2286.6 1452.35 Q2288.13 1451.83 2289.65 1451.59 Q2291.18 1451.31 2292.71 1451.31 Q2301.39 1451.31 2306.46 1456.07 Q2311.53 1460.82 2311.53 1468.95 Q2311.53 1477.32 2306.32 1481.97 Q2301.11 1486.59 2291.63 1486.59 Q2288.37 1486.59 2284.97 1486.03 Q2281.6 1485.48 2277.99 1484.36 L2277.99 1477.32 Q2281.11 1479.02 2284.45 1479.85 Q2287.78 1480.68 2291.49 1480.68 Q2297.5 1480.68 2301.01 1477.52 Q2304.52 1474.36 2304.52 1468.95 Q2304.52 1463.53 2301.01 1460.37 Q2297.5 1457.21 2291.49 1457.21 Q2288.68 1457.21 2285.87 1457.84 Q2283.09 1458.46 2280.17 1459.78 L2280.17 1433.74 Z" fill="#000000" fill-rule="evenodd" fill-opacity="1" /><path clip-path="url(#clip390)" d="M1271.74 1527.62 L1271.74 1538.66 L1284.9 1538.66 L1284.9 1543.62 L1271.74 1543.62 L1271.74 1564.74 Q1271.74 1569.49 1273.03 1570.85 Q1274.35 1572.2 1278.34 1572.2 L1284.9 1572.2 L1284.9 1577.55 L1278.34 1577.55 Q1270.94 1577.55 1268.13 1574.8 Q1265.32 1572.03 1265.32 1564.74 L1265.32 1543.62 L1260.63 1543.62 L1260.63 1538.66 L1265.32 1538.66 L1265.32 1527.62 L1271.74 1527.62 Z" fill="#000000" fill-rule="evenodd" fill-opacity="1" /><path clip-path="url(#clip390)" d="M1315.32 1523.52 L1330.04 1523.52 L1330.04 1528.49 L1321.71 1528.49 L1321.71 1581.96 L1330.04 1581.96 L1330.04 1586.92 L1315.32 1586.92 L1315.32 1523.52 Z" fill="#000000" fill-rule="evenodd" fill-opacity="1" /><path clip-path="url(#clip390)" d="M1368.44 1539.8 L1368.44 1545.85 Q1365.73 1544.46 1362.82 1543.76 Q1359.9 1543.07 1356.78 1543.07 Q1352.02 1543.07 1349.62 1544.53 Q1347.26 1545.99 1347.26 1548.9 Q1347.26 1551.12 1348.96 1552.41 Q1350.66 1553.66 1355.8 1554.8 L1357.99 1555.29 Q1364.8 1556.75 1367.64 1559.42 Q1370.53 1562.06 1370.53 1566.82 Q1370.53 1572.24 1366.22 1575.4 Q1361.95 1578.55 1354.45 1578.55 Q1351.32 1578.55 1347.92 1577.93 Q1344.55 1577.34 1340.8 1576.12 L1340.8 1569.53 Q1344.34 1571.37 1347.78 1572.3 Q1351.22 1573.21 1354.59 1573.21 Q1359.1 1573.21 1361.53 1571.68 Q1363.96 1570.12 1363.96 1567.3 Q1363.96 1564.7 1362.19 1563.31 Q1360.46 1561.92 1354.52 1560.64 L1352.3 1560.12 Q1346.36 1558.87 1343.72 1556.3 Q1341.08 1553.69 1341.08 1549.18 Q1341.08 1543.69 1344.97 1540.71 Q1348.86 1537.72 1356.01 1537.72 Q1359.55 1537.72 1362.68 1538.24 Q1365.8 1538.76 1368.44 1539.8 Z" fill="#000000" fill-rule="evenodd" fill-opacity="1" /><path clip-path="url(#clip390)" d="M1395.63 1523.52 L1395.63 1586.92 L1380.91 1586.92 L1380.91 1581.96 L1389.21 1581.96 L1389.21 1528.49 L1380.91 1528.49 L1380.91 1523.52 L1395.63 1523.52 Z" fill="#000000" fill-rule="evenodd" fill-opacity="1" /><polyline clip-path="url(#clip392)" style="stroke:#000000; stroke-linecap:round; stroke-linejoin:round; stroke-width:2; stroke-opacity:0.1; fill:none" points="
  303.503,1361.96 2352.76,1361.96 
  "/>
<polyline clip-path="url(#clip392)" style="stroke:#000000; stroke-linecap:round; stroke-linejoin:round; stroke-width:2; stroke-opacity:0.1; fill:none" points="
  303.503,1096.36 2352.76,1096.36 
  "/>
<polyline clip-path="url(#clip392)" style="stroke:#000000; stroke-linecap:round; stroke-linejoin:round; stroke-width:2; stroke-opacity:0.1; fill:none" points="
  303.503,830.761 2352.76,830.761 
  "/>
<polyline clip-path="url(#clip392)" style="stroke:#000000; stroke-linecap:round; stroke-linejoin:round; stroke-width:2; stroke-opacity:0.1; fill:none" points="
  303.503,565.16 2352.76,565.16 
  "/>
<polyline clip-path="url(#clip392)" style="stroke:#000000; stroke-linecap:round; stroke-linejoin:round; stroke-width:2; stroke-opacity:0.1; fill:none" points="
  303.503,299.559 2352.76,299.559 
  "/>
<polyline clip-path="url(#clip390)" style="stroke:#000000; stroke-linecap:round; stroke-linejoin:round; stroke-width:4; stroke-opacity:1; fill:none" points="
  303.503,1401.58 303.503,47.2441 
  "/>
<polyline clip-path="url(#clip390)" style="stroke:#000000; stroke-linecap:round; stroke-linejoin:round; stroke-width:4; stroke-opacity:1; fill:none" points="
  303.503,1361.96 322.401,1361.96 
  "/>
<polyline clip-path="url(#clip390)" style="stroke:#000000; stroke-linecap:round; stroke-linejoin:round; stroke-width:4; stroke-opacity:1; fill:none" points="
  303.503,1096.36 322.401,1096.36 
  "/>
<polyline clip-path="url(#clip390)" style="stroke:#000000; stroke-linecap:round; stroke-linejoin:round; stroke-width:4; stroke-opacity:1; fill:none" points="
  303.503,830.761 322.401,830.761 
  "/>
<polyline clip-path="url(#clip390)" style="stroke:#000000; stroke-linecap:round; stroke-linejoin:round; stroke-width:4; stroke-opacity:1; fill:none" points="
  303.503,565.16 322.401,565.16 
  "/>
<polyline clip-path="url(#clip390)" style="stroke:#000000; stroke-linecap:round; stroke-linejoin:round; stroke-width:4; stroke-opacity:1; fill:none" points="
  303.503,299.559 322.401,299.559 
  "/>
<path clip-path="url(#clip390)" d="M136.497 1340.66 Q131.08 1340.66 128.337 1346.01 Q125.629 1351.32 125.629 1362.01 Q125.629 1372.67 128.337 1378.02 Q131.08 1383.33 136.497 1383.33 Q141.948 1383.33 144.656 1378.02 Q147.399 1372.67 147.399 1362.01 Q147.399 1351.32 144.656 1346.01 Q141.948 1340.66 136.497 1340.66 M136.497 1335.11 Q145.212 1335.11 149.795 1342.01 Q154.413 1348.89 154.413 1362.01 Q154.413 1375.1 149.795 1382.01 Q145.212 1388.89 136.497 1388.89 Q127.781 1388.89 123.163 1382.01 Q118.58 1375.1 118.58 1362.01 Q118.58 1348.89 123.163 1342.01 Q127.781 1335.11 136.497 1335.11 Z" fill="#000000" fill-rule="evenodd" fill-opacity="1" /><path clip-path="url(#clip390)" d="M166.74 1379.06 L174.066 1379.06 L174.066 1387.88 L166.74 1387.88 L166.74 1379.06 Z" fill="#000000" fill-rule="evenodd" fill-opacity="1" /><path clip-path="url(#clip390)" d="M189.413 1336.04 L216.948 1336.04 L216.948 1341.95 L195.837 1341.95 L195.837 1354.65 Q197.364 1354.13 198.892 1353.89 Q200.42 1353.61 201.948 1353.61 Q210.628 1353.61 215.698 1358.37 Q220.767 1363.13 220.767 1371.25 Q220.767 1379.62 215.559 1384.27 Q210.35 1388.89 200.871 1388.89 Q197.608 1388.89 194.205 1388.33 Q190.837 1387.78 187.226 1386.67 L187.226 1379.62 Q190.351 1381.32 193.684 1382.15 Q197.017 1382.99 200.732 1382.99 Q206.739 1382.99 210.246 1379.83 Q213.753 1376.67 213.753 1371.25 Q213.753 1365.83 210.246 1362.67 Q206.739 1359.51 200.732 1359.51 Q197.92 1359.51 195.108 1360.14 Q192.33 1360.76 189.413 1362.08 L189.413 1336.04 Z" fill="#000000" fill-rule="evenodd" fill-opacity="1" /><path clip-path="url(#clip390)" d="M249.586 1340.66 Q244.17 1340.66 241.427 1346.01 Q238.718 1351.32 238.718 1362.01 Q238.718 1372.67 241.427 1378.02 Q244.17 1383.33 249.586 1383.33 Q255.038 1383.33 257.746 1378.02 Q260.489 1372.67 260.489 1362.01 Q260.489 1351.32 257.746 1346.01 Q255.038 1340.66 249.586 1340.66 M249.586 1335.11 Q258.302 1335.11 262.885 1342.01 Q267.503 1348.89 267.503 1362.01 Q267.503 1375.1 262.885 1382.01 Q258.302 1388.89 249.586 1388.89 Q240.871 1388.89 236.253 1382.01 Q231.67 1375.1 231.67 1362.01 Q231.67 1348.89 236.253 1342.01 Q240.871 1335.11 249.586 1335.11 Z" fill="#000000" fill-rule="evenodd" fill-opacity="1" /><path clip-path="url(#clip390)" d="M137.99 1075.06 Q132.573 1075.06 129.83 1080.41 Q127.122 1085.72 127.122 1096.41 Q127.122 1107.07 129.83 1112.42 Q132.573 1117.73 137.99 1117.73 Q143.441 1117.73 146.149 1112.42 Q148.892 1107.07 148.892 1096.41 Q148.892 1085.72 146.149 1080.41 Q143.441 1075.06 137.99 1075.06 M137.99 1069.5 Q146.705 1069.5 151.288 1076.41 Q155.906 1083.29 155.906 1096.41 Q155.906 1109.5 151.288 1116.41 Q146.705 1123.29 137.99 1123.29 Q129.275 1123.29 124.657 1116.41 Q120.073 1109.5 120.073 1096.41 Q120.073 1083.29 124.657 1076.41 Q129.275 1069.5 137.99 1069.5 Z" fill="#000000" fill-rule="evenodd" fill-opacity="1" /><path clip-path="url(#clip390)" d="M168.233 1113.46 L175.559 1113.46 L175.559 1122.28 L168.233 1122.28 L168.233 1113.46 Z" fill="#000000" fill-rule="evenodd" fill-opacity="1" /><path clip-path="url(#clip390)" d="M189.066 1070.44 L222.399 1070.44 L222.399 1073.43 L203.58 1122.28 L196.253 1122.28 L213.962 1076.34 L189.066 1076.34 L189.066 1070.44 Z" fill="#000000" fill-rule="evenodd" fill-opacity="1" /><path clip-path="url(#clip390)" d="M236.149 1070.44 L263.684 1070.44 L263.684 1076.34 L242.573 1076.34 L242.573 1089.05 Q244.1 1088.53 245.628 1088.29 Q247.156 1088.01 248.684 1088.01 Q257.364 1088.01 262.434 1092.77 Q267.503 1097.52 267.503 1105.65 Q267.503 1114.02 262.295 1118.67 Q257.086 1123.29 247.607 1123.29 Q244.343 1123.29 240.941 1122.73 Q237.573 1122.18 233.961 1121.07 L233.961 1114.02 Q237.086 1115.72 240.42 1116.55 Q243.753 1117.39 247.468 1117.39 Q253.475 1117.39 256.982 1114.23 Q260.489 1111.07 260.489 1105.65 Q260.489 1100.23 256.982 1097.07 Q253.475 1093.91 247.468 1093.91 Q244.656 1093.91 241.843 1094.54 Q239.066 1095.16 236.149 1096.48 L236.149 1070.44 Z" fill="#000000" fill-rule="evenodd" fill-opacity="1" /><path clip-path="url(#clip390)" d="M122.712 850.778 L134.17 850.778 L134.17 811.23 L121.705 813.73 L121.705 807.341 L134.101 804.841 L141.115 804.841 L141.115 850.778 L152.573 850.778 L152.573 856.681 L122.712 856.681 L122.712 850.778 Z" fill="#000000" fill-rule="evenodd" fill-opacity="1" /><path clip-path="url(#clip390)" d="M166.74 847.861 L174.066 847.861 L174.066 856.681 L166.74 856.681 L166.74 847.861 Z" fill="#000000" fill-rule="evenodd" fill-opacity="1" /><path clip-path="url(#clip390)" d="M204.344 809.459 Q198.927 809.459 196.184 814.806 Q193.476 820.118 193.476 830.813 Q193.476 841.472 196.184 846.82 Q198.927 852.132 204.344 852.132 Q209.795 852.132 212.503 846.82 Q215.246 841.472 215.246 830.813 Q215.246 820.118 212.503 814.806 Q209.795 809.459 204.344 809.459 M204.344 803.903 Q213.059 803.903 217.642 810.813 Q222.26 817.688 222.26 830.813 Q222.26 843.903 217.642 850.813 Q213.059 857.688 204.344 857.688 Q195.628 857.688 191.01 850.813 Q186.427 843.903 186.427 830.813 Q186.427 817.688 191.01 810.813 Q195.628 803.903 204.344 803.903 Z" fill="#000000" fill-rule="evenodd" fill-opacity="1" /><path clip-path="url(#clip390)" d="M249.586 809.459 Q244.17 809.459 241.427 814.806 Q238.718 820.118 238.718 830.813 Q238.718 841.472 241.427 846.82 Q244.17 852.132 249.586 852.132 Q255.038 852.132 257.746 846.82 Q260.489 841.472 260.489 830.813 Q260.489 820.118 257.746 814.806 Q255.038 809.459 249.586 809.459 M249.586 803.903 Q258.302 803.903 262.885 810.813 Q267.503 817.688 267.503 830.813 Q267.503 843.903 262.885 850.813 Q258.302 857.688 249.586 857.688 Q240.871 857.688 236.253 850.813 Q231.67 843.903 231.67 830.813 Q231.67 817.688 236.253 810.813 Q240.871 803.903 249.586 803.903 Z" fill="#000000" fill-rule="evenodd" fill-opacity="1" /><path clip-path="url(#clip390)" d="M124.205 585.177 L135.663 585.177 L135.663 545.629 L123.198 548.129 L123.198 541.74 L135.594 539.24 L142.608 539.24 L142.608 585.177 L154.066 585.177 L154.066 591.08 L124.205 591.08 L124.205 585.177 Z" fill="#000000" fill-rule="evenodd" fill-opacity="1" /><path clip-path="url(#clip390)" d="M168.233 582.26 L175.559 582.26 L175.559 591.08 L168.233 591.08 L168.233 582.26 Z" fill="#000000" fill-rule="evenodd" fill-opacity="1" /><path clip-path="url(#clip390)" d="M196.878 585.177 L221.357 585.177 L221.357 591.08 L188.441 591.08 L188.441 585.177 Q192.434 581.045 199.309 574.101 Q206.219 567.122 207.989 565.108 Q211.357 561.323 212.677 558.719 Q214.031 556.08 214.031 553.545 Q214.031 549.413 211.114 546.809 Q208.232 544.205 203.58 544.205 Q200.281 544.205 196.601 545.351 Q192.955 546.497 188.788 548.823 L188.788 541.74 Q193.024 540.038 196.705 539.17 Q200.385 538.302 203.441 538.302 Q211.496 538.302 216.288 542.33 Q221.08 546.358 221.08 553.094 Q221.08 556.288 219.864 559.17 Q218.684 562.017 215.524 565.906 Q214.656 566.913 210.003 571.74 Q205.351 576.531 196.878 585.177 Z" fill="#000000" fill-rule="evenodd" fill-opacity="1" /><path clip-path="url(#clip390)" d="M236.149 539.24 L263.684 539.24 L263.684 545.143 L242.573 545.143 L242.573 557.851 Q244.1 557.33 245.628 557.087 Q247.156 556.809 248.684 556.809 Q257.364 556.809 262.434 561.566 Q267.503 566.323 267.503 574.448 Q267.503 582.816 262.295 587.469 Q257.086 592.087 247.607 592.087 Q244.343 592.087 240.941 591.531 Q237.573 590.976 233.961 589.865 L233.961 582.816 Q237.086 584.517 240.42 585.351 Q243.753 586.184 247.468 586.184 Q253.475 586.184 256.982 583.024 Q260.489 579.865 260.489 574.448 Q260.489 569.031 256.982 565.872 Q253.475 562.712 247.468 562.712 Q244.656 562.712 241.843 563.337 Q239.066 563.962 236.149 565.281 L236.149 539.24 Z" fill="#000000" fill-rule="evenodd" fill-opacity="1" /><path clip-path="url(#clip390)" d="M122.712 319.576 L134.17 319.576 L134.17 280.028 L121.705 282.528 L121.705 276.139 L134.101 273.639 L141.115 273.639 L141.115 319.576 L152.573 319.576 L152.573 325.479 L122.712 325.479 L122.712 319.576 Z" fill="#000000" fill-rule="evenodd" fill-opacity="1" /><path clip-path="url(#clip390)" d="M166.74 316.659 L174.066 316.659 L174.066 325.479 L166.74 325.479 L166.74 316.659 Z" fill="#000000" fill-rule="evenodd" fill-opacity="1" /><path clip-path="url(#clip390)" d="M189.413 273.639 L216.948 273.639 L216.948 279.542 L195.837 279.542 L195.837 292.25 Q197.364 291.729 198.892 291.486 Q200.42 291.208 201.948 291.208 Q210.628 291.208 215.698 295.965 Q220.767 300.722 220.767 308.847 Q220.767 317.215 215.559 321.868 Q210.35 326.486 200.871 326.486 Q197.608 326.486 194.205 325.93 Q190.837 325.375 187.226 324.264 L187.226 317.215 Q190.351 318.916 193.684 319.75 Q197.017 320.583 200.732 320.583 Q206.739 320.583 210.246 317.423 Q213.753 314.264 213.753 308.847 Q213.753 303.43 210.246 300.271 Q206.739 297.111 200.732 297.111 Q197.92 297.111 195.108 297.736 Q192.33 298.361 189.413 299.68 L189.413 273.639 Z" fill="#000000" fill-rule="evenodd" fill-opacity="1" /><path clip-path="url(#clip390)" d="M249.586 278.257 Q244.17 278.257 241.427 283.604 Q238.718 288.917 238.718 299.611 Q238.718 310.271 241.427 315.618 Q244.17 320.93 249.586 320.93 Q255.038 320.93 257.746 315.618 Q260.489 310.271 260.489 299.611 Q260.489 288.917 257.746 283.604 Q255.038 278.257 249.586 278.257 M249.586 272.701 Q258.302 272.701 262.885 279.611 Q267.503 286.486 267.503 299.611 Q267.503 312.701 262.885 319.611 Q258.302 326.486 249.586 326.486 Q240.871 326.486 236.253 319.611 Q231.67 312.701 231.67 299.611 Q231.67 286.486 236.253 279.611 Q240.871 272.701 249.586 272.701 Z" fill="#000000" fill-rule="evenodd" fill-opacity="1" /><path clip-path="url(#clip390)" d="M35.6047 1006.89 Q31.2992 1004.5 29.2506 1001.16 Q27.202 997.831 27.202 993.317 Q27.202 987.24 31.4728 983.942 Q35.7089 980.643 43.5561 980.643 L67.0282 980.643 L67.0282 987.067 L43.7644 987.067 Q38.1741 987.067 35.4658 989.046 Q32.7575 991.025 32.7575 995.088 Q32.7575 1000.05 36.0561 1002.93 Q39.3547 1005.82 45.0491 1005.82 L67.0282 1005.82 L67.0282 1012.24 L43.7644 1012.24 Q38.1394 1012.24 35.4658 1014.22 Q32.7575 1016.2 32.7575 1020.33 Q32.7575 1025.23 36.0908 1028.11 Q39.3894 1030.99 45.0491 1030.99 L67.0282 1030.99 L67.0282 1037.41 L28.1395 1037.41 L28.1395 1030.99 L34.1811 1030.99 Q30.6047 1028.8 28.9034 1025.75 Q27.202 1022.69 27.202 1018.49 Q27.202 1014.25 29.3547 1011.3 Q31.5075 1008.32 35.6047 1006.89 Z" fill="#000000" fill-rule="evenodd" fill-opacity="1" /><path clip-path="url(#clip390)" d="M47.4797 950.227 Q47.4797 957.97 49.2505 960.956 Q51.0213 963.942 55.2921 963.942 Q58.6949 963.942 60.7087 961.72 Q62.6879 959.463 62.6879 955.609 Q62.6879 950.296 58.9379 947.102 Q55.1532 943.873 48.9033 943.873 L47.4797 943.873 L47.4797 950.227 M44.8408 937.484 L67.0282 937.484 L67.0282 943.873 L61.1254 943.873 Q64.6671 946.06 66.3684 949.324 Q68.0351 952.588 68.0351 957.31 Q68.0351 963.282 64.7018 966.824 Q61.3337 970.331 55.7088 970.331 Q49.1463 970.331 45.813 965.956 Q42.4797 961.546 42.4797 952.831 L42.4797 943.873 L41.8547 943.873 Q37.445 943.873 35.0492 946.789 Q32.6186 949.671 32.6186 954.914 Q32.6186 958.248 33.4172 961.407 Q34.2158 964.567 35.813 967.484 L29.9103 967.484 Q28.5561 963.977 27.8964 960.678 Q27.202 957.379 27.202 954.254 Q27.202 945.817 31.577 941.65 Q35.9519 937.484 44.8408 937.484 Z" fill="#000000" fill-rule="evenodd" fill-opacity="1" /><path clip-path="url(#clip390)" d="M29.2853 899.533 L35.3269 899.533 Q33.9381 902.241 33.2436 905.158 Q32.5492 908.074 32.5492 911.199 Q32.5492 915.956 34.0075 918.352 Q35.4658 920.713 38.3825 920.713 Q40.6047 920.713 41.8894 919.012 Q43.1394 917.31 44.2852 912.171 L44.7713 909.984 Q46.2297 903.178 48.9033 900.331 Q51.5421 897.449 56.299 897.449 Q61.7157 897.449 64.8754 901.755 Q68.0351 906.026 68.0351 913.526 Q68.0351 916.651 67.4101 920.053 Q66.8198 923.421 65.6046 927.171 L59.0074 927.171 Q60.8476 923.63 61.7851 920.192 Q62.6879 916.755 62.6879 913.387 Q62.6879 908.873 61.1601 906.442 Q59.5976 904.012 56.7852 904.012 Q54.181 904.012 52.7921 905.783 Q51.4032 907.519 50.1185 913.456 L49.5977 915.678 Q48.3477 921.616 45.7783 924.255 Q43.1741 926.894 38.6603 926.894 Q33.1742 926.894 30.1881 923.005 Q27.202 919.116 27.202 911.963 Q27.202 908.421 27.7228 905.296 Q28.2436 902.171 29.2853 899.533 Z" fill="#000000" fill-rule="evenodd" fill-opacity="1" /><path clip-path="url(#clip390)" d="M29.2853 862.484 L35.3269 862.484 Q33.9381 865.192 33.2436 868.109 Q32.5492 871.026 32.5492 874.151 Q32.5492 878.908 34.0075 881.303 Q35.4658 883.665 38.3825 883.665 Q40.6047 883.665 41.8894 881.963 Q43.1394 880.262 44.2852 875.123 L44.7713 872.935 Q46.2297 866.13 48.9033 863.283 Q51.5421 860.401 56.299 860.401 Q61.7157 860.401 64.8754 864.706 Q68.0351 868.977 68.0351 876.477 Q68.0351 879.602 67.4101 883.005 Q66.8198 886.373 65.6046 890.123 L59.0074 890.123 Q60.8476 886.581 61.7851 883.144 Q62.6879 879.706 62.6879 876.338 Q62.6879 871.824 61.1601 869.394 Q59.5976 866.963 56.7852 866.963 Q54.181 866.963 52.7921 868.734 Q51.4032 870.47 50.1185 876.408 L49.5977 878.63 Q48.3477 884.567 45.7783 887.206 Q43.1741 889.845 38.6603 889.845 Q33.1742 889.845 30.1881 885.956 Q27.202 882.067 27.202 874.915 Q27.202 871.373 27.7228 868.248 Q28.2436 865.123 29.2853 862.484 Z" fill="#000000" fill-rule="evenodd" fill-opacity="1" /><path clip-path="url(#clip390)" d="M61.1949 821.443 L81.8197 821.443 L81.8197 827.866 L28.1395 827.866 L28.1395 821.443 L34.0422 821.443 Q30.57 819.429 28.9034 816.373 Q27.202 813.283 27.202 809.012 Q27.202 801.929 32.827 797.519 Q38.4519 793.075 47.6185 793.075 Q56.7852 793.075 62.4101 797.519 Q68.0351 801.929 68.0351 809.012 Q68.0351 813.283 66.3684 816.373 Q64.6671 819.429 61.1949 821.443 M47.6185 799.707 Q40.57 799.707 36.5769 802.623 Q32.5492 805.505 32.5492 810.575 Q32.5492 815.644 36.5769 818.561 Q40.57 821.443 47.6185 821.443 Q54.6671 821.443 58.6949 818.561 Q62.6879 815.644 62.6879 810.575 Q62.6879 805.505 58.6949 802.623 Q54.6671 799.707 47.6185 799.707 Z" fill="#000000" fill-rule="evenodd" fill-opacity="1" /><path clip-path="url(#clip390)" d="M32.6186 767.415 Q32.6186 772.554 36.6464 775.54 Q40.6394 778.526 47.6185 778.526 Q54.5977 778.526 58.6254 775.575 Q62.6185 772.589 62.6185 767.415 Q62.6185 762.311 58.5907 759.325 Q54.5629 756.339 47.6185 756.339 Q40.7089 756.339 36.6811 759.325 Q32.6186 762.311 32.6186 767.415 M27.202 767.415 Q27.202 759.082 32.6186 754.325 Q38.0353 749.568 47.6185 749.568 Q57.1671 749.568 62.6185 754.325 Q68.0351 759.082 68.0351 767.415 Q68.0351 775.783 62.6185 780.54 Q57.1671 785.262 47.6185 785.262 Q38.0353 785.262 32.6186 780.54 Q27.202 775.783 27.202 767.415 Z" fill="#000000" fill-rule="evenodd" fill-opacity="1" /><path clip-path="url(#clip390)" d="M29.2853 714.186 L35.3269 714.186 Q33.9381 716.895 33.2436 719.811 Q32.5492 722.728 32.5492 725.853 Q32.5492 730.61 34.0075 733.006 Q35.4658 735.367 38.3825 735.367 Q40.6047 735.367 41.8894 733.665 Q43.1394 731.964 44.2852 726.825 L44.7713 724.638 Q46.2297 717.832 48.9033 714.985 Q51.5421 712.103 56.299 712.103 Q61.7157 712.103 64.8754 716.409 Q68.0351 720.679 68.0351 728.179 Q68.0351 731.304 67.4101 734.707 Q66.8198 738.075 65.6046 741.825 L59.0074 741.825 Q60.8476 738.283 61.7851 734.846 Q62.6879 731.408 62.6879 728.04 Q62.6879 723.527 61.1601 721.096 Q59.5976 718.665 56.7852 718.665 Q54.181 718.665 52.7921 720.436 Q51.4032 722.172 50.1185 728.11 L49.5977 730.332 Q48.3477 736.27 45.7783 738.908 Q43.1741 741.547 38.6603 741.547 Q33.1742 741.547 30.1881 737.658 Q27.202 733.77 27.202 726.617 Q27.202 723.075 27.7228 719.95 Q28.2436 716.825 29.2853 714.186 Z" fill="#000000" fill-rule="evenodd" fill-opacity="1" /><path clip-path="url(#clip390)" d="M28.1395 701.929 L28.1395 695.541 L67.0282 695.541 L67.0282 701.929 L28.1395 701.929 M13.0007 701.929 L13.0007 695.541 L21.0909 695.541 L21.0909 701.929 L13.0007 701.929 Z" fill="#000000" fill-rule="evenodd" fill-opacity="1" /><path clip-path="url(#clip390)" d="M17.0979 675.853 L28.1395 675.853 L28.1395 662.694 L33.1047 662.694 L33.1047 675.853 L54.2157 675.853 Q58.9726 675.853 60.3268 674.568 Q61.681 673.249 61.681 669.256 L61.681 662.694 L67.0282 662.694 L67.0282 669.256 Q67.0282 676.652 64.2851 679.464 Q61.5074 682.277 54.2157 682.277 L33.1047 682.277 L33.1047 686.964 L28.1395 686.964 L28.1395 682.277 L17.0979 682.277 L17.0979 675.853 Z" fill="#000000" fill-rule="evenodd" fill-opacity="1" /><path clip-path="url(#clip390)" d="M28.1395 654.291 L28.1395 647.902 L67.0282 647.902 L67.0282 654.291 L28.1395 654.291 M13.0007 654.291 L13.0007 647.902 L21.0909 647.902 L21.0909 654.291 L13.0007 654.291 Z" fill="#000000" fill-rule="evenodd" fill-opacity="1" /><path clip-path="url(#clip390)" d="M32.6186 619.465 Q32.6186 624.603 36.6464 627.59 Q40.6394 630.576 47.6185 630.576 Q54.5977 630.576 58.6254 627.624 Q62.6185 624.638 62.6185 619.465 Q62.6185 614.36 58.5907 611.374 Q54.5629 608.388 47.6185 608.388 Q40.7089 608.388 36.6811 611.374 Q32.6186 614.36 32.6186 619.465 M27.202 619.465 Q27.202 611.131 32.6186 606.374 Q38.0353 601.617 47.6185 601.617 Q57.1671 601.617 62.6185 606.374 Q68.0351 611.131 68.0351 619.465 Q68.0351 627.833 62.6185 632.59 Q57.1671 637.312 47.6185 637.312 Q38.0353 637.312 32.6186 632.59 Q27.202 627.833 27.202 619.465 Z" fill="#000000" fill-rule="evenodd" fill-opacity="1" /><path clip-path="url(#clip390)" d="M43.5561 558.701 L67.0282 558.701 L67.0282 565.09 L43.7644 565.09 Q38.2436 565.09 35.5005 567.243 Q32.7575 569.395 32.7575 573.701 Q32.7575 578.875 36.0561 581.861 Q39.3547 584.847 45.0491 584.847 L67.0282 584.847 L67.0282 591.27 L28.1395 591.27 L28.1395 584.847 L34.1811 584.847 Q30.6742 582.555 28.9381 579.465 Q27.202 576.34 27.202 572.277 Q27.202 565.576 31.3686 562.139 Q35.5005 558.701 43.5561 558.701 Z" fill="#000000" fill-rule="evenodd" fill-opacity="1" /><path clip-path="url(#clip390)" d="M13.0007 523.944 L13.0007 509.222 L17.9659 509.222 L17.9659 517.555 L71.4379 517.555 L71.4379 509.222 L76.4031 509.222 L76.4031 523.944 L13.0007 523.944 Z" fill="#000000" fill-rule="evenodd" fill-opacity="1" /><path clip-path="url(#clip390)" d="M35.6047 465.333 Q31.2992 462.938 29.2506 459.604 Q27.202 456.271 27.202 451.757 Q27.202 445.681 31.4728 442.382 Q35.7089 439.084 43.5561 439.084 L67.0282 439.084 L67.0282 445.507 L43.7644 445.507 Q38.1741 445.507 35.4658 447.486 Q32.7575 449.466 32.7575 453.528 Q32.7575 458.493 36.0561 461.375 Q39.3547 464.257 45.0491 464.257 L67.0282 464.257 L67.0282 470.681 L43.7644 470.681 Q38.1394 470.681 35.4658 472.66 Q32.7575 474.639 32.7575 478.771 Q32.7575 483.667 36.0908 486.549 Q39.3894 489.431 45.0491 489.431 L67.0282 489.431 L67.0282 495.854 L28.1395 495.854 L28.1395 489.431 L34.1811 489.431 Q30.6047 487.243 28.9034 484.188 Q27.202 481.132 27.202 476.931 Q27.202 472.695 29.3547 469.743 Q31.5075 466.757 35.6047 465.333 Z" fill="#000000" fill-rule="evenodd" fill-opacity="1" /><path clip-path="url(#clip390)" d="M13.0007 411.41 L76.4031 411.41 L76.4031 426.132 L71.4379 426.132 L71.4379 417.834 L17.9659 417.834 L17.9659 426.132 L13.0007 426.132 L13.0007 411.41 Z" fill="#000000" fill-rule="evenodd" fill-opacity="1" /><polyline clip-path="url(#clip392)" style="stroke:#009af9; stroke-linecap:round; stroke-linejoin:round; stroke-width:8; stroke-opacity:1; fill:none" points="
  361.501,1361.96 365.367,1361.63 369.234,1360.67 373.1,1359.08 376.967,1356.85 380.833,1353.99 384.7,1350.51 388.566,1346.39 392.433,1341.66 396.299,1336.31 
  400.166,1330.34 404.032,1323.77 407.899,1316.6 411.765,1308.85 415.632,1300.5 419.498,1291.59 423.365,1282.1 427.231,1272.06 431.098,1261.48 434.964,1250.35 
  438.831,1238.7 442.698,1226.54 446.564,1213.87 450.431,1200.71 454.297,1187.08 458.164,1172.99 462.03,1158.44 465.897,1143.47 469.763,1128.08 473.63,1112.28 
  477.496,1096.1 481.363,1079.55 485.229,1062.63 489.096,1045.38 492.962,1027.81 496.829,1009.94 500.695,991.785 504.562,973.358 508.428,954.678 512.295,935.763 
  516.161,916.636 520.028,897.318 523.894,877.825 527.761,858.176 531.627,838.392 535.494,818.493 539.36,798.499 543.227,778.426 547.093,758.297 550.96,738.133 
  554.826,717.956 558.693,697.786 562.559,677.644 566.426,657.548 570.293,637.513 574.159,617.565 578.026,597.724 581.892,578.011 585.759,558.448 589.625,539.055 
  593.492,519.839 597.358,500.828 601.225,482.04 605.091,463.496 608.958,445.216 612.824,427.217 616.691,409.516 620.557,392.125 624.424,375.067 628.29,358.359 
  632.157,342.018 636.023,326.062 639.89,310.507 643.756,295.363 647.623,280.646 651.489,266.373 655.356,252.559 659.222,239.218 663.089,226.365 666.955,214.011 
  670.822,202.163 674.688,190.837 678.555,180.046 682.421,169.8 686.288,160.111 690.154,150.988 694.021,142.437 697.887,134.466 701.754,127.085 705.621,120.303 
  709.487,114.126 713.354,108.561 717.22,103.613 721.087,99.2832 724.953,95.579 728.82,92.5042 732.686,90.0622 736.553,88.2558 740.419,87.087 744.286,86.5554 
  748.152,86.6609 752.019,87.4047 755.885,88.7862 759.752,90.8041 763.618,93.4565 767.485,96.7409 771.351,100.653 775.218,105.189 779.084,110.344 782.951,116.115 
  786.817,122.494 790.684,129.476 794.55,137.053 798.417,145.218 802.283,153.963 806.15,163.279 810.016,173.157 813.883,183.586 817.749,194.555 821.616,206.056 
  825.482,218.077 829.349,230.604 833.216,243.626 837.082,257.128 840.949,271.096 844.815,285.519 848.682,300.383 852.548,315.672 856.415,331.37 860.281,347.461 
  864.148,363.928 868.014,380.754 871.881,397.927 875.747,415.429 879.614,433.239 883.48,451.341 887.347,469.715 891.213,488.343 895.08,507.206 898.946,526.291 
  902.813,545.575 906.679,565.038 910.546,584.659 914.412,604.419 918.279,624.297 922.145,644.279 926.012,664.343 929.878,684.468 933.745,704.632 937.611,724.815 
  941.478,744.995 945.344,765.154 949.211,785.278 953.077,805.341 956.944,825.324 960.811,845.205 964.677,864.963 968.544,884.578 972.41,904.036 976.277,923.318 
  980.143,942.401 984.01,961.265 987.876,979.892 991.743,998.26 995.609,1016.35 999.476,1034.16 1003.34,1051.66 1007.21,1068.83 1011.08,1085.65 1014.94,1102.11 
  1018.81,1118.2 1022.67,1133.88 1026.54,1149.17 1030.41,1164.03 1034.27,1178.45 1038.14,1192.41 1042.01,1205.9 1045.87,1218.91 1049.74,1231.43 1053.61,1243.45 
  1057.47,1254.94 1061.34,1265.9 1065.21,1276.32 1069.07,1286.19 1072.94,1295.49 1076.81,1304.23 1080.67,1312.39 1084.54,1319.95 1088.41,1326.93 1092.27,1333.29 
  1096.14,1339.05 1100.01,1344.2 1103.87,1348.72 1107.74,1352.62 1111.6,1355.89 1115.47,1358.53 1119.34,1360.54 1123.2,1361.91 1127.07,1362.64 1130.94,1362.73 
  1134.8,1362.19 1138.67,1361 1142.54,1359.18 1146.4,1356.73 1150.27,1353.64 1154.14,1349.92 1158,1345.58 1161.87,1340.61 1165.74,1335.03 1169.6,1328.84 
  1173.47,1322.04 1177.34,1314.64 1181.2,1306.66 1185.07,1298.09 1188.93,1288.95 1192.8,1279.24 1196.67,1268.98 1200.53,1258.17 1204.4,1246.83 1208.27,1234.96 
  1212.13,1222.59 1216,1209.71 1219.87,1196.36 1223.73,1182.53 1227.6,1168.24 1231.47,1153.5 1235.33,1138.34 1239.2,1122.76 1243.07,1106.78 1246.93,1090.43 
  1250.8,1073.7 1254.67,1056.63 1258.53,1039.22 1262.4,1021.5 1266.27,1003.48 1270.13,985.181 1274,966.626 1277.86,947.823 1281.73,928.796 1285.6,909.565 
  1289.46,890.149 1293.33,870.568 1297.2,850.843 1301.06,830.992 1304.93,811.03 1308.8,790.98 1312.66,770.865 1316.53,750.704 1320.4,730.518 1324.26,710.33 
  1328.13,690.15 1332,670.004 1335.86,649.911 1339.73,629.894 1343.6,609.973 1347.46,590.169 1351.33,570.5 1355.2,550.979 1359.06,531.632 1362.93,512.478 
  1366.79,493.537 1370.66,474.829 1374.53,456.374 1378.39,438.183 1382.26,420.276 1386.13,402.673 1389.99,385.393 1393.86,368.453 1397.73,351.872 1401.59,335.665 
  1405.46,319.841 1409.33,304.422 1413.19,289.424 1417.06,274.862 1420.93,260.751 1424.79,247.106 1428.66,233.938 1432.53,221.256 1436.39,209.079 1440.26,197.417 
  1444.12,186.284 1447.99,175.691 1451.86,165.65 1455.72,156.162 1459.59,147.243 1463.46,138.902 1467.32,131.147 1471.19,123.987 1475.06,117.429 1478.92,111.479 
  1482.79,106.139 1486.66,101.418 1490.52,97.3201 1494.39,93.8508 1498.26,91.0134 1502.12,88.8112 1505.99,87.2427 1509.86,86.3116 1513.72,86.0191 1517.59,86.3658 
  1521.46,87.3514 1525.32,88.9751 1529.19,91.2349 1533.05,94.1275 1536.92,97.6508 1540.79,101.802 1544.65,106.575 1548.52,111.968 1552.39,117.973 1556.25,124.585 
  1560.12,131.798 1563.99,139.604 1567.85,147.996 1571.72,156.964 1575.59,166.499 1579.45,176.593 1583.32,187.236 1587.19,198.417 1591.05,210.125 1594.92,222.347 
  1598.79,235.071 1602.65,248.284 1606.52,261.974 1610.39,276.129 1614.25,290.733 1618.12,305.77 1621.98,321.226 1625.85,337.084 1629.72,353.329 1633.58,369.949 
  1637.45,386.925 1641.32,404.238 1645.18,421.871 1649.05,439.805 1652.92,458.023 1656.78,476.509 1660.65,495.246 1664.52,514.213 1668.38,533.39 1672.25,552.757 
  1676.12,572.294 1679.98,591.982 1683.85,611.808 1687.72,631.747 1691.58,651.779 1695.45,671.883 1699.31,692.039 1703.18,712.224 1707.05,732.423 1710.91,752.619 
  1714.78,772.786 1718.65,792.905 1722.51,812.954 1726.38,832.913 1730.25,852.761 1734.11,872.486 1737.98,892.065 1741.85,911.476 1745.71,930.699 1749.58,949.714 
  1753.45,968.502 1757.31,987.045 1761.18,1005.33 1765.05,1023.34 1768.91,1041.04 1772.78,1058.43 1776.65,1075.48 1780.51,1092.18 1784.38,1108.52 1788.24,1124.47 
  1792.11,1140.02 1795.98,1155.16 1799.84,1169.86 1803.71,1184.12 1807.58,1197.92 1811.44,1211.24 1815.31,1224.08 1819.18,1236.42 1823.04,1248.25 1826.91,1259.55 
  1830.78,1270.32 1834.64,1280.54 1838.51,1290.21 1842.38,1299.31 1846.24,1307.83 1850.11,1315.77 1853.98,1323.12 1857.84,1329.87 1861.71,1336.01 1865.58,1341.55 
  1869.44,1346.46 1873.31,1350.76 1877.17,1354.42 1881.04,1357.46 1884.91,1359.86 1888.77,1361.63 1892.64,1362.76 1896.51,1363.25 1900.37,1363.1 1904.24,1362.31 
  1908.11,1360.89 1911.97,1358.83 1915.84,1356.13 1919.71,1352.8 1923.57,1348.84 1927.44,1344.26 1931.31,1339.06 1935.17,1333.24 1939.04,1326.82 1942.91,1319.79 
  1946.77,1312.16 1950.64,1303.95 1954.5,1295.16 1958.37,1285.79 1962.24,1275.87 1966.1,1265.39 1969.97,1254.37 1973.84,1242.82 1977.7,1230.75 1981.57,1218.18 
  1985.44,1205.11 1989.3,1191.56 1993.17,1177.55 1997.04,1163.08 2000.9,1148.17 2004.77,1132.83 2008.64,1117.1 2012.5,1100.96 2016.37,1084.45 2020.24,1067.57 
  2024.1,1050.36 2027.97,1032.82 2031.84,1014.97 2035.7,996.832 2039.57,978.417 2043.43,959.748 2047.3,940.843 2051.17,921.723 2055.03,902.407 2058.9,882.916 
  2062.77,863.262 2066.63,843.467 2070.5,823.554 2074.37,803.541 2078.23,783.451 2082.1,763.303 2085.97,743.119 2089.83,722.909 2093.7,702.701 2097.57,682.515 
  2101.43,662.372 2105.3,642.293 2109.17,622.298 2113.03,602.404 2116.9,582.628 2120.77,562.993 2124.63,543.521 2128.5,524.231 2132.36,505.144 2136.23,486.278 
  2140.1,467.644 2143.96,449.267 2147.83,431.165 2151.7,413.358 2155.56,395.864 2159.43,378.7 2163.3,361.882 2167.16,345.422 2171.03,329.342 2174.9,313.657 
  2178.76,298.384 2182.63,283.54 2186.5,269.139 2190.36,255.189 2194.23,241.707 2198.1,228.708 2201.96,216.206 2205.83,204.214 2209.69,192.745 2213.56,181.808 
  2217.43,171.409 2221.29,161.564 2225.16,152.283 2229.03,143.575 2232.89,135.449 2236.76,127.915 2240.63,120.974 2244.49,114.637 2248.36,108.91 2252.23,103.799 
  2256.09,99.3096 2259.96,95.4472 2263.83,92.2148 2267.69,89.6125 2271.56,87.6455 2275.43,86.3159 2279.29,85.6252 2283.16,85.5744 2287.03,86.1637 2290.89,87.3909 
  2294.76,89.2551 
  "/>
<polyline clip-path="url(#clip392)" style="stroke:#e26f46; stroke-linecap:round; stroke-linejoin:round; stroke-width:8; stroke-opacity:1; fill:none" points="
  361.501,1361.96 365.367,1361.73 369.234,1361.04 373.1,1359.89 376.967,1358.29 380.833,1356.23 384.7,1353.7 388.566,1350.71 392.433,1347.26 396.299,1343.35 
  400.166,1338.99 404.032,1334.16 407.899,1328.88 411.765,1323.15 415.632,1316.98 419.498,1310.37 423.365,1303.32 427.231,1295.85 431.098,1287.95 434.964,1279.64 
  438.831,1270.92 442.698,1261.8 446.564,1252.29 450.431,1242.4 454.297,1232.13 458.164,1221.51 462.03,1210.54 465.897,1199.23 469.763,1187.59 473.63,1175.62 
  477.496,1163.35 481.363,1150.78 485.229,1137.94 489.096,1124.83 492.962,1111.45 496.829,1097.84 500.695,1083.99 504.562,1069.92 508.428,1055.64 512.295,1041.18 
  516.161,1026.55 520.028,1011.75 523.894,996.814 527.761,981.742 531.627,966.555 535.494,951.267 539.36,935.893 543.227,920.45 547.093,904.955 550.96,889.422 
  554.826,873.87 558.693,858.31 562.559,842.756 566.426,827.226 570.293,811.737 574.159,796.306 578.026,780.948 581.892,765.681 585.759,750.51 589.625,735.456 
  593.492,720.534 597.358,705.762 601.225,691.153 605.091,676.724 608.958,662.485 612.824,648.449 616.691,634.633 620.557,621.051 624.424,607.718 628.29,594.646 
  632.157,581.851 636.023,569.339 639.89,557.126 643.756,545.225 647.623,533.648 651.489,522.408 655.356,511.517 659.222,500.985 663.089,490.819 666.955,481.033 
  670.822,471.637 674.688,462.642 678.555,454.057 682.421,445.892 686.288,438.154 690.154,430.851 694.021,423.992 697.887,417.587 701.754,411.641 705.621,406.164 
  709.487,401.161 713.354,396.639 717.22,392.604 721.087,389.063 724.953,386.021 728.82,383.484 732.686,381.457 736.553,379.945 740.419,378.952 744.286,378.483 
  748.152,378.547 752.019,378.979 755.885,379.782 759.752,380.96 763.618,382.516 767.485,384.454 771.351,386.774 775.218,389.476 779.084,392.559 782.951,396.024 
  786.817,399.868 790.684,404.09 794.55,408.686 798.417,413.652 802.283,418.98 806.15,424.671 810.016,430.721 813.883,437.128 817.749,443.883 821.616,450.97 
  825.482,458.394 829.349,466.15 833.216,474.233 837.082,482.635 840.949,491.332 844.815,500.328 848.682,509.618 852.548,519.194 856.415,529.047 860.281,539.152 
  864.148,549.51 868.014,560.113 871.881,570.952 875.747,582.019 879.614,593.286 883.48,604.754 887.347,616.412 891.213,628.249 895.08,640.256 898.946,652.409 
  902.813,664.704 906.679,677.128 910.546,689.671 914.412,702.32 918.279,715.058 922.145,727.874 926.012,740.756 929.878,753.692 933.745,766.671 937.611,779.675 
  941.478,792.693 945.344,805.712 949.211,818.72 953.077,831.704 956.944,844.651 960.811,857.546 964.677,870.377 968.544,883.133 972.41,895.798 976.277,908.362 
  980.143,920.813 984.01,933.136 987.876,945.319 991.743,957.349 995.609,969.216 999.476,980.909 1003.34,992.415 1007.21,1003.72 1011.08,1014.81 1014.94,1025.68 
  1018.81,1036.32 1022.67,1046.72 1026.54,1056.86 1030.41,1066.74 1034.27,1076.33 1038.14,1085.65 1042.01,1094.67 1045.87,1103.39 1049.74,1111.79 1053.61,1119.86 
  1057.47,1127.62 1061.34,1135.03 1065.21,1142.09 1069.07,1148.8 1072.94,1155.13 1076.81,1161.11 1080.67,1166.71 1084.54,1171.92 1088.41,1176.74 1092.27,1181.16 
  1096.14,1185.18 1100.01,1188.79 1103.87,1191.99 1107.74,1194.76 1111.6,1197.11 1115.47,1199.03 1119.34,1200.53 1123.2,1201.58 1127.07,1202.19 1130.94,1202.35 
  1134.8,1202.1 1138.67,1201.6 1142.54,1200.81 1146.4,1199.72 1150.27,1198.34 1154.14,1196.66 1158,1194.68 1161.87,1192.4 1165.74,1189.82 1169.6,1186.94 
  1173.47,1183.76 1177.34,1180.29 1181.2,1176.52 1185.07,1172.47 1188.93,1168.12 1192.8,1163.49 1196.67,1158.58 1200.53,1153.39 1204.4,1147.92 1208.27,1142.19 
  1212.13,1136.19 1216,1129.94 1219.87,1123.43 1223.73,1116.67 1227.6,1109.67 1231.47,1102.44 1235.33,1094.99 1239.2,1087.31 1243.07,1079.41 1246.93,1071.31 
  1250.8,1063.01 1254.67,1054.52 1258.53,1045.84 1262.4,1036.99 1266.27,1027.98 1270.13,1018.81 1274,1009.49 1277.86,1000.03 1281.73,990.443 1285.6,980.738 
  1289.46,970.923 1293.33,961.008 1297.2,951.001 1301.06,940.912 1304.93,930.749 1308.8,920.523 1312.66,910.25 1316.53,899.936 1320.4,889.592 1324.26,879.226 
  1328.13,868.85 1332,858.473 1335.86,848.107 1339.73,837.76 1343.6,827.444 1347.46,817.169 1351.33,806.946 1355.2,796.786 1359.06,786.698 1362.93,776.694 
  1366.79,766.785 1370.66,756.977 1374.53,747.279 1378.39,737.703 1382.26,728.261 1386.13,718.961 1389.99,709.815 1393.86,700.833 1397.73,692.024 1401.59,683.39 
  1405.46,674.943 1409.33,666.693 1413.19,658.651 1417.06,650.824 1420.93,643.222 1424.79,635.852 1428.66,628.724 1432.53,621.837 1436.39,615.204 1440.26,608.833 
  1444.12,602.73 1447.99,596.904 1451.86,591.361 1455.72,586.108 1459.59,581.15 1463.46,576.489 1467.32,572.136 1471.19,568.094 1475.06,564.371 1478.92,560.97 
  1482.79,557.897 1486.66,555.157 1490.52,552.752 1494.39,550.688 1498.26,548.968 1502.12,547.597 1505.99,546.577 1509.86,545.913 1513.72,545.607 1517.59,545.677 
  1521.46,545.954 1525.32,546.426 1529.19,547.091 1533.05,547.964 1536.92,549.046 1540.79,550.338 1544.65,551.842 1548.52,553.556 1552.39,555.482 1556.25,557.619 
  1560.12,559.966 1563.99,562.521 1567.85,565.286 1571.72,568.255 1575.59,571.43 1579.45,574.807 1583.32,578.384 1587.19,582.158 1591.05,586.126 1594.92,590.279 
  1598.79,594.619 1602.65,599.144 1606.52,603.85 1610.39,608.736 1614.25,613.794 1618.12,619.01 1621.98,624.389 1625.85,629.928 1629.72,635.622 1633.58,641.469 
  1637.45,647.462 1641.32,653.58 1645.18,659.83 1649.05,666.207 1652.92,672.706 1656.78,679.322 1660.65,686.051 1664.52,692.869 1668.38,699.781 1672.25,706.782 
  1676.12,713.864 1679.98,721.024 1683.85,728.253 1687.72,735.537 1691.58,742.871 1695.45,750.252 1699.31,757.671 1703.18,765.123 1707.05,772.6 1710.91,780.09 
  1714.78,787.588 1718.65,795.086 1722.51,802.578 1726.38,810.057 1730.25,817.515 1734.11,824.944 1737.98,832.335 1741.85,839.682 1745.71,846.977 1749.58,854.213 
  1753.45,861.383 1757.31,868.48 1761.18,875.496 1765.05,882.424 1768.91,889.256 1772.78,895.985 1776.65,902.605 1780.51,909.107 1784.38,915.489 1788.24,921.742 
  1792.11,927.857 1795.98,933.829 1799.84,939.65 1803.71,945.313 1807.58,950.82 1811.44,956.16 1815.31,961.325 1819.18,966.309 1823.04,971.106 1826.91,975.709 
  1830.78,980.124 1834.64,984.338 1838.51,988.345 1842.38,992.139 1846.24,995.715 1850.11,999.067 1853.98,1002.2 1857.84,1005.11 1861.71,1007.78 1865.58,1010.21 
  1869.44,1012.4 1873.31,1014.34 1877.17,1016.04 1881.04,1017.48 1884.91,1018.67 1888.77,1019.6 1892.64,1020.27 1896.51,1020.67 1900.37,1020.8 1904.24,1020.73 
  1908.11,1020.56 1911.97,1020.27 1915.84,1019.88 1919.71,1019.36 1923.57,1018.74 1927.44,1018 1931.31,1017.15 1935.17,1016.19 1939.04,1015.11 1942.91,1013.92 
  1946.77,1012.62 1950.64,1011.2 1954.5,1009.67 1958.37,1008.03 1962.24,1006.28 1966.1,1004.42 1969.97,1002.46 1973.84,1000.38 1977.7,998.199 1981.57,995.914 
  1985.44,993.529 1989.3,991.043 1993.17,988.456 1997.04,985.77 2000.9,982.988 2004.77,980.117 2008.64,977.155 2012.5,974.105 2016.37,970.966 2020.24,967.743 
  2024.1,964.444 2027.97,961.068 2031.84,957.616 2035.7,954.093 2039.57,950.499 2043.43,946.843 2047.3,943.126 2051.17,939.352 2055.03,935.522 2058.9,931.64 
  2062.77,927.71 2066.63,923.739 2070.5,919.729 2074.37,915.682 2078.23,911.603 2082.1,907.494 2085.97,903.363 2089.83,899.213 2093.7,895.046 2097.57,890.867 
  2101.43,886.68 2105.3,882.49 2109.17,878.302 2113.03,874.118 2116.9,869.943 2120.77,865.781 2124.63,861.636 2128.5,857.514 2132.36,853.418 2136.23,849.351 
  2140.1,845.319 2143.96,841.326 2147.83,837.375 2151.7,833.471 2155.56,829.618 2159.43,825.82 2163.3,822.079 2167.16,818.402 2171.03,814.791 2174.9,811.251 
  2178.76,807.786 2182.63,804.4 2186.5,801.096 2190.36,797.88 2194.23,794.754 2198.1,791.72 2201.96,788.781 2205.83,785.942 2209.69,783.208 2213.56,780.581 
  2217.43,778.064 2221.29,775.663 2225.16,773.379 2229.03,771.217 2232.89,769.176 2236.76,767.259 2240.63,765.47 2244.49,763.812 2248.36,762.288 2252.23,760.901 
  2256.09,759.653 2259.96,758.547 2263.83,757.586 2267.69,756.771 2271.56,756.103 2275.43,755.584 2279.29,755.216 2283.16,755.001 2287.03,754.94 2290.89,754.94 
  2294.76,754.94 
  "/>
<polyline clip-path="url(#clip392)" style="stroke:#3da44d; stroke-linecap:round; stroke-linejoin:round; stroke-width:8; stroke-opacity:1; fill:none" points="
  361.501,1361.96 365.367,1354.32 369.234,1346.66 373.1,1339 376.967,1331.32 380.833,1323.64 384.7,1315.94 388.566,1308.23 392.433,1300.51 396.299,1292.77 
  400.166,1285.02 404.032,1277.26 407.899,1269.47 411.765,1261.67 415.632,1253.86 419.498,1246.02 423.365,1238.16 427.231,1230.28 431.098,1222.38 434.964,1214.45 
  438.831,1206.49 442.698,1198.51 446.564,1190.5 450.431,1182.45 454.297,1174.38 458.164,1166.26 462.03,1158.11 465.897,1149.92 469.763,1141.69 473.63,1133.42 
  477.496,1125.09 481.363,1116.72 485.229,1108.29 489.096,1099.81 492.962,1091.27 496.829,1082.66 500.695,1073.99 504.562,1065.25 508.428,1056.44 512.295,1047.55 
  516.161,1038.58 520.028,1029.53 523.894,1020.38 527.761,1011.15 531.627,1001.81 535.494,992.378 539.36,982.836 543.227,973.18 547.093,963.403 550.96,953.504 
  554.826,943.482 558.693,933.339 562.559,923.079 566.426,912.709 570.293,902.239 574.159,891.68 578.026,881.047 581.892,870.356 585.759,859.626 589.625,848.878 
  593.492,838.137 597.358,827.429 601.225,816.782 605.091,806.228 608.958,795.822 612.824,785.653 616.691,775.794 620.557,766.306 624.424,757.24 628.29,748.637 
  632.157,740.525 636.023,732.925 639.89,725.846 643.756,719.286 647.623,713.234 651.489,707.668 655.356,702.555 659.222,697.852 663.089,693.529 666.955,689.573 
  670.822,685.958 674.688,682.657 678.555,679.648 682.421,676.908 686.288,674.415 690.154,672.152 694.021,670.099 697.887,668.241 701.754,666.563 705.621,665.051 
  709.487,663.694 713.354,662.481 717.22,661.403 721.087,660.454 724.953,659.625 728.82,658.91 732.686,658.302 736.553,657.796 740.419,657.386 744.286,657.066 
  748.152,656.831 752.019,656.676 755.885,656.598 759.752,656.592 763.618,656.653 767.485,656.779 771.351,656.965 775.218,657.21 779.084,657.51 782.951,657.862 
  786.817,658.265 790.684,658.714 794.55,659.21 798.417,659.748 802.283,660.329 806.15,660.949 810.016,661.607 813.883,662.302 817.749,663.032 821.616,663.795 
  825.482,664.59 829.349,665.414 833.216,666.267 837.082,667.147 840.949,668.053 844.815,668.983 848.682,669.936 852.548,670.91 856.415,671.905 860.281,672.919 
  864.148,673.95 868.014,674.999 871.881,676.063 875.747,677.141 879.614,678.233 883.48,679.338 887.347,680.455 891.213,681.584 895.08,682.723 898.946,683.872 
  902.813,685.029 906.679,686.195 910.546,687.368 914.412,688.548 918.279,689.733 922.145,690.923 926.012,692.118 929.878,693.316 933.745,694.517 937.611,695.719 
  941.478,696.923 945.344,698.128 949.211,699.332 953.077,700.535 956.944,701.736 960.811,702.935 964.677,704.13 968.544,705.322 972.41,706.51 976.277,707.693 
  980.143,708.872 984.01,710.046 987.876,711.214 991.743,712.377 995.609,713.534 999.476,714.684 1003.34,715.829 1007.21,716.966 1011.08,718.096 1014.94,719.219 
  1018.81,720.335 1022.67,721.442 1026.54,722.542 1030.41,723.633 1034.27,724.715 1038.14,725.788 1042.01,726.852 1045.87,727.906 1049.74,728.951 1053.61,729.985 
  1057.47,731.01 1061.34,732.023 1065.21,733.026 1069.07,734.018 1072.94,734.999 1076.81,735.971 1080.67,736.932 1084.54,737.883 1088.41,738.824 1092.27,739.755 
  1096.14,740.675 1100.01,741.586 1103.87,742.486 1107.74,743.377 1111.6,744.257 1115.47,745.128 1119.34,745.989 1123.2,746.84 1127.07,747.681 1130.94,748.513 
  1134.8,749.335 1138.67,750.147 1142.54,750.95 1146.4,751.744 1150.27,752.528 1154.14,753.303 1158,754.069 1161.87,754.826 1165.74,755.575 1169.6,756.314 
  1173.47,757.045 1177.34,757.767 1181.2,758.481 1185.07,759.187 1188.93,759.889 1192.8,760.589 1196.67,761.287 1200.53,761.983 1204.4,762.675 1208.27,763.363 
  1212.13,764.046 1216,764.724 1219.87,765.396 1223.73,766.062 1227.6,766.721 1231.47,767.372 1235.33,768.017 1239.2,768.653 1243.07,769.28 1246.93,769.899 
  1250.8,770.509 1254.67,771.109 1258.53,771.7 1262.4,772.281 1266.27,772.853 1270.13,773.415 1274,773.966 1277.86,774.507 1281.73,775.039 1285.6,775.56 
  1289.46,776.071 1293.33,776.572 1297.2,777.063 1301.06,777.545 1304.93,778.017 1308.8,778.479 1312.66,778.933 1316.53,779.377 1320.4,779.813 1324.26,780.241 
  1328.13,780.662 1332,781.074 1335.86,781.48 1339.73,781.879 1343.6,782.273 1347.46,782.66 1351.33,783.043 1355.2,783.422 1359.06,783.797 1362.93,784.169 
  1366.79,784.539 1370.66,784.907 1374.53,785.275 1378.39,785.643 1382.26,786.011 1386.13,786.381 1389.99,786.754 1393.86,787.131 1397.73,787.512 1401.59,787.898 
  1405.46,788.291 1409.33,788.692 1413.19,789.098 1417.06,789.499 1420.93,789.896 1424.79,790.288 1428.66,790.676 1432.53,791.059 1436.39,791.437 1440.26,791.811 
  1444.12,792.181 1447.99,792.545 1451.86,792.906 1455.72,793.262 1459.59,793.613 1463.46,793.96 1467.32,794.303 1471.19,794.641 1475.06,794.976 1478.92,795.306 
  1482.79,795.632 1486.66,795.955 1490.52,796.273 1494.39,796.589 1498.26,796.9 1502.12,797.208 1505.99,797.513 1509.86,797.815 1513.72,798.114 1517.59,798.411 
  1521.46,798.704 1525.32,798.996 1529.19,799.285 1533.05,799.572 1536.92,799.857 1540.79,800.14 1544.65,800.422 1548.52,800.702 1552.39,800.981 1556.25,801.257 
  1560.12,801.531 1563.99,801.804 1567.85,802.074 1571.72,802.342 1575.59,802.608 1579.45,802.871 1583.32,803.132 1587.19,803.39 1591.05,803.646 1594.92,803.899 
  1598.79,804.15 1602.65,804.398 1606.52,804.644 1610.39,804.887 1614.25,805.127 1618.12,805.365 1621.98,805.6 1625.85,805.832 1629.72,806.062 1633.58,806.289 
  1637.45,806.514 1641.32,806.736 1645.18,806.956 1649.05,807.174 1652.92,807.389 1656.78,807.602 1660.65,807.813 1664.52,808.021 1668.38,808.228 1672.25,808.432 
  1676.12,808.635 1679.98,808.836 1683.85,809.035 1687.72,809.233 1691.58,809.43 1695.45,809.625 1699.31,809.819 1703.18,810.012 1707.05,810.204 1710.91,810.395 
  1714.78,810.586 1718.65,810.776 1722.51,810.966 1726.38,811.156 1730.25,811.346 1734.11,811.536 1737.98,811.724 1741.85,811.911 1745.71,812.097 1749.58,812.282 
  1753.45,812.466 1757.31,812.648 1761.18,812.829 1765.05,813.009 1768.91,813.187 1772.78,813.363 1776.65,813.538 1780.51,813.712 1784.38,813.884 1788.24,814.054 
  1792.11,814.223 1795.98,814.39 1799.84,814.556 1803.71,814.72 1807.58,814.882 1811.44,815.043 1815.31,815.202 1819.18,815.359 1823.04,815.515 1826.91,815.669 
  1830.78,815.822 1834.64,815.973 1838.51,816.122 1842.38,816.27 1846.24,816.417 1850.11,816.562 1853.98,816.706 1857.84,816.848 1861.71,816.989 1865.58,817.129 
  1869.44,817.268 1873.31,817.405 1877.17,817.542 1881.04,817.677 1884.91,817.812 1888.77,817.946 1892.64,818.079 1896.51,818.211 1900.37,818.343 1904.24,818.474 
  1908.11,818.604 1911.97,818.735 1915.84,818.865 1919.71,818.995 1923.57,819.125 1927.44,819.255 1931.31,819.385 1935.17,819.515 1939.04,819.644 1942.91,819.773 
  1946.77,819.901 1950.64,820.029 1954.5,820.156 1958.37,820.283 1962.24,820.408 1966.1,820.533 1969.97,820.657 1973.84,820.78 1977.7,820.902 1981.57,821.023 
  1985.44,821.142 1989.3,821.261 1993.17,821.379 1997.04,821.495 2000.9,821.61 2004.77,821.724 2008.64,821.837 2012.5,821.949 2016.37,822.059 2020.24,822.168 
  2024.1,822.276 2027.97,822.383 2031.84,822.488 2035.7,822.592 2039.57,822.695 2043.43,822.797 2047.3,822.897 2051.17,822.996 2055.03,823.094 2058.9,823.191 
  2062.77,823.287 2066.63,823.382 2070.5,823.476 2074.37,823.568 2078.23,823.66 2082.1,823.751 2085.97,823.841 2089.83,823.93 2093.7,824.019 2097.57,824.107 
  2101.43,824.194 2105.3,824.281 2109.17,824.367 2113.03,824.453 2116.9,824.538 2120.77,824.623 2124.63,824.709 2128.5,824.794 2132.36,824.879 2136.23,824.964 
  2140.1,825.05 2143.96,825.136 2147.83,825.222 2151.7,825.309 2155.56,825.397 2159.43,825.485 2163.3,825.572 2167.16,825.659 2171.03,825.745 2174.9,825.83 
  2178.76,825.915 2182.63,825.999 2186.5,826.082 2190.36,826.164 2194.23,826.246 2198.1,826.327 2201.96,826.408 2205.83,826.488 2209.69,826.567 2213.56,826.645 
  2217.43,826.723 2221.29,826.8 2225.16,826.877 2229.03,826.953 2232.89,827.028 2236.76,827.103 2240.63,827.177 2244.49,827.25 2248.36,827.323 2252.23,827.395 
  2256.09,827.467 2259.96,827.538 2263.83,827.609 2267.69,827.679 2271.56,827.749 2275.43,827.818 2279.29,827.887 2283.16,827.955 2287.03,828.023 2290.89,828.091 
  2294.76,828.159 
  "/>
<path clip-path="url(#clip390)" d="
M1502.3 299.749 L2284.45 299.749 L2284.45 92.3886 L1502.3 92.3886  Z
  " fill="#ffffff" fill-rule="evenodd" fill-opacity="1"/>
<polyline clip-path="url(#clip390)" style="stroke:#000000; stroke-linecap:round; stroke-linejoin:round; stroke-width:4; stroke-opacity:1; fill:none" points="
  1502.3,299.749 2284.45,299.749 2284.45,92.3886 1502.3,92.3886 1502.3,299.749 
  "/>
<polyline clip-path="url(#clip390)" style="stroke:#009af9; stroke-linecap:round; stroke-linejoin:round; stroke-width:8; stroke-opacity:1; fill:none" points="
  1525.07,144.229 1661.69,144.229 
  "/>
<path clip-path="url(#clip390)" d="M1706.7 128.083 L1706.7 132.643 Q1704.04 131.37 1701.68 130.745 Q1699.32 130.12 1697.12 130.12 Q1693.3 130.12 1691.22 131.601 Q1689.16 133.083 1689.16 135.814 Q1689.16 138.106 1690.52 139.287 Q1691.91 140.444 1695.76 141.162 L1698.58 141.74 Q1703.81 142.736 1706.29 145.259 Q1708.79 147.759 1708.79 151.972 Q1708.79 156.995 1705.41 159.587 Q1702.05 162.18 1695.55 162.18 Q1693.09 162.18 1690.32 161.624 Q1687.56 161.069 1684.6 159.981 L1684.6 155.166 Q1687.44 156.763 1690.18 157.573 Q1692.91 158.384 1695.55 158.384 Q1699.55 158.384 1701.73 156.81 Q1703.9 155.236 1703.9 152.319 Q1703.9 149.773 1702.33 148.337 Q1700.78 146.902 1697.21 146.185 L1694.37 145.629 Q1689.13 144.587 1686.8 142.365 Q1684.46 140.143 1684.46 136.185 Q1684.46 131.601 1687.68 128.962 Q1690.92 126.324 1696.59 126.324 Q1699.02 126.324 1701.54 126.763 Q1704.07 127.203 1706.7 128.083 Z" fill="#000000" fill-rule="evenodd" fill-opacity="1" /><path clip-path="url(#clip390)" d="M1715.89 135.583 L1720.15 135.583 L1720.15 161.509 L1715.89 161.509 L1715.89 135.583 M1715.89 125.49 L1720.15 125.49 L1720.15 130.884 L1715.89 130.884 L1715.89 125.49 Z" fill="#000000" fill-rule="evenodd" fill-opacity="1" /><path clip-path="url(#clip390)" d="M1749.25 140.56 Q1750.85 137.689 1753.07 136.324 Q1755.29 134.958 1758.3 134.958 Q1762.35 134.958 1764.55 137.805 Q1766.75 140.629 1766.75 145.861 L1766.75 161.509 L1762.47 161.509 L1762.47 145.999 Q1762.47 142.273 1761.15 140.467 Q1759.83 138.662 1757.12 138.662 Q1753.81 138.662 1751.89 140.861 Q1749.97 143.06 1749.97 146.856 L1749.97 161.509 L1745.69 161.509 L1745.69 145.999 Q1745.69 142.249 1744.37 140.467 Q1743.05 138.662 1740.29 138.662 Q1737.03 138.662 1735.11 140.884 Q1733.19 143.083 1733.19 146.856 L1733.19 161.509 L1728.9 161.509 L1728.9 135.583 L1733.19 135.583 L1733.19 139.611 Q1734.64 137.226 1736.68 136.092 Q1738.72 134.958 1741.52 134.958 Q1744.34 134.958 1746.31 136.393 Q1748.3 137.828 1749.25 140.56 Z" fill="#000000" fill-rule="evenodd" fill-opacity="1" /><path clip-path="url(#clip390)" d="M1779.37 157.62 L1779.37 171.37 L1775.08 171.37 L1775.08 135.583 L1779.37 135.583 L1779.37 139.518 Q1780.71 137.203 1782.75 136.092 Q1784.81 134.958 1787.65 134.958 Q1792.37 134.958 1795.31 138.708 Q1798.28 142.458 1798.28 148.569 Q1798.28 154.68 1795.31 158.43 Q1792.37 162.18 1787.65 162.18 Q1784.81 162.18 1782.75 161.069 Q1780.71 159.935 1779.37 157.62 M1793.86 148.569 Q1793.86 143.87 1791.91 141.208 Q1789.99 138.523 1786.61 138.523 Q1783.23 138.523 1781.29 141.208 Q1779.37 143.87 1779.37 148.569 Q1779.37 153.268 1781.29 155.953 Q1783.23 158.615 1786.61 158.615 Q1789.99 158.615 1791.91 155.953 Q1793.86 153.268 1793.86 148.569 Z" fill="#000000" fill-rule="evenodd" fill-opacity="1" /><path clip-path="url(#clip390)" d="M1805.34 125.49 L1809.6 125.49 L1809.6 161.509 L1805.34 161.509 L1805.34 125.49 Z" fill="#000000" fill-rule="evenodd" fill-opacity="1" /><path clip-path="url(#clip390)" d="M1840.68 147.481 L1840.68 149.564 L1821.1 149.564 Q1821.38 153.962 1823.74 156.277 Q1826.12 158.569 1830.36 158.569 Q1832.81 158.569 1835.11 157.967 Q1837.42 157.365 1839.69 156.161 L1839.69 160.189 Q1837.4 161.161 1834.99 161.671 Q1832.58 162.18 1830.11 162.18 Q1823.9 162.18 1820.27 158.569 Q1816.66 154.958 1816.66 148.8 Q1816.66 142.435 1820.08 138.708 Q1823.53 134.958 1829.37 134.958 Q1834.6 134.958 1837.63 138.337 Q1840.68 141.694 1840.68 147.481 M1836.43 146.231 Q1836.38 142.736 1834.46 140.652 Q1832.56 138.569 1829.41 138.569 Q1825.85 138.569 1823.69 140.583 Q1821.56 142.597 1821.24 146.254 L1836.43 146.231 Z" fill="#000000" fill-rule="evenodd" fill-opacity="1" /><path clip-path="url(#clip390)" d="M1847.86 126.949 L1867.72 126.949 L1867.72 130.884 L1852.54 130.884 L1852.54 141.069 L1866.24 141.069 L1866.24 145.004 L1852.54 145.004 L1852.54 161.509 L1847.86 161.509 L1847.86 126.949 Z" fill="#000000" fill-rule="evenodd" fill-opacity="1" /><path clip-path="url(#clip390)" d="M1875.13 126.949 L1882.1 126.949 L1890.92 150.467 L1899.78 126.949 L1906.75 126.949 L1906.75 161.509 L1902.19 161.509 L1902.19 131.162 L1893.28 154.865 L1888.58 154.865 L1879.67 131.162 L1879.67 161.509 L1875.13 161.509 L1875.13 126.949 Z" fill="#000000" fill-rule="evenodd" fill-opacity="1" /><path clip-path="url(#clip390)" d="M1915.5 126.949 L1920.2 126.949 L1920.2 147.944 Q1920.2 153.499 1922.21 155.953 Q1924.23 158.384 1928.74 158.384 Q1933.23 158.384 1935.24 155.953 Q1937.26 153.499 1937.26 147.944 L1937.26 126.949 L1941.96 126.949 L1941.96 148.523 Q1941.96 155.282 1938.6 158.731 Q1935.27 162.18 1928.74 162.18 Q1922.19 162.18 1918.83 158.731 Q1915.5 155.282 1915.5 148.523 L1915.5 126.949 Z" fill="#000000" fill-rule="evenodd" fill-opacity="1" /><polyline clip-path="url(#clip390)" style="stroke:#e26f46; stroke-linecap:round; stroke-linejoin:round; stroke-width:8; stroke-opacity:1; fill:none" points="
  1525.07,196.069 1661.69,196.069 
  "/>
<path clip-path="url(#clip390)" d="M1700.85 197.145 Q1702.35 197.654 1703.76 199.321 Q1705.2 200.988 1706.63 203.904 L1711.38 213.349 L1706.36 213.349 L1701.94 204.483 Q1700.22 201.011 1698.6 199.876 Q1697.01 198.742 1694.23 198.742 L1689.13 198.742 L1689.13 213.349 L1684.46 213.349 L1684.46 178.789 L1695.01 178.789 Q1700.94 178.789 1703.86 181.265 Q1706.77 183.742 1706.77 188.742 Q1706.77 192.006 1705.25 194.159 Q1703.74 196.312 1700.85 197.145 M1689.13 182.631 L1689.13 194.9 L1695.01 194.9 Q1698.39 194.9 1700.11 193.349 Q1701.84 191.775 1701.84 188.742 Q1701.84 185.71 1700.11 184.182 Q1698.39 182.631 1695.01 182.631 L1689.13 182.631 Z" fill="#000000" fill-rule="evenodd" fill-opacity="1" /><path clip-path="url(#clip390)" d="M1737.26 199.321 L1737.26 201.404 L1717.68 201.404 Q1717.95 205.802 1720.32 208.117 Q1722.7 210.409 1726.94 210.409 Q1729.39 210.409 1731.68 209.807 Q1734 209.205 1736.26 208.001 L1736.26 212.029 Q1733.97 213.001 1731.57 213.511 Q1729.16 214.02 1726.68 214.02 Q1720.48 214.02 1716.84 210.409 Q1713.23 206.798 1713.23 200.64 Q1713.23 194.275 1716.66 190.548 Q1720.11 186.798 1725.94 186.798 Q1731.17 186.798 1734.2 190.177 Q1737.26 193.534 1737.26 199.321 M1733 198.071 Q1732.95 194.576 1731.03 192.492 Q1729.13 190.409 1725.99 190.409 Q1722.42 190.409 1720.27 192.423 Q1718.14 194.437 1717.82 198.094 L1733 198.071 Z" fill="#000000" fill-rule="evenodd" fill-opacity="1" /><path clip-path="url(#clip390)" d="M1756.03 200.316 Q1750.87 200.316 1748.88 201.497 Q1746.89 202.677 1746.89 205.525 Q1746.89 207.793 1748.37 209.136 Q1749.88 210.455 1752.44 210.455 Q1755.99 210.455 1758.12 207.955 Q1760.27 205.432 1760.27 201.265 L1760.27 200.316 L1756.03 200.316 M1764.53 198.557 L1764.53 213.349 L1760.27 213.349 L1760.27 209.413 Q1758.81 211.775 1756.63 212.909 Q1754.46 214.02 1751.31 214.02 Q1747.33 214.02 1744.97 211.798 Q1742.63 209.552 1742.63 205.802 Q1742.63 201.427 1745.55 199.205 Q1748.49 196.983 1754.3 196.983 L1760.27 196.983 L1760.27 196.566 Q1760.27 193.627 1758.32 192.029 Q1756.4 190.409 1752.91 190.409 Q1750.69 190.409 1748.58 190.941 Q1746.47 191.474 1744.53 192.539 L1744.53 188.603 Q1746.87 187.701 1749.07 187.261 Q1751.26 186.798 1753.35 186.798 Q1758.97 186.798 1761.75 189.714 Q1764.53 192.631 1764.53 198.557 Z" fill="#000000" fill-rule="evenodd" fill-opacity="1" /><path clip-path="url(#clip390)" d="M1773.3 177.33 L1777.56 177.33 L1777.56 213.349 L1773.3 213.349 L1773.3 177.33 Z" fill="#000000" fill-rule="evenodd" fill-opacity="1" /><path clip-path="url(#clip390)" d="M1786.66 178.789 L1806.52 178.789 L1806.52 182.724 L1791.33 182.724 L1791.33 192.909 L1805.04 192.909 L1805.04 196.844 L1791.33 196.844 L1791.33 213.349 L1786.66 213.349 L1786.66 178.789 Z" fill="#000000" fill-rule="evenodd" fill-opacity="1" /><path clip-path="url(#clip390)" d="M1813.93 178.789 L1820.89 178.789 L1829.71 202.307 L1838.58 178.789 L1845.55 178.789 L1845.55 213.349 L1840.99 213.349 L1840.99 183.002 L1832.07 206.705 L1827.37 206.705 L1818.46 183.002 L1818.46 213.349 L1813.93 213.349 L1813.93 178.789 Z" fill="#000000" fill-rule="evenodd" fill-opacity="1" /><path clip-path="url(#clip390)" d="M1854.3 178.789 L1858.99 178.789 L1858.99 199.784 Q1858.99 205.339 1861.01 207.793 Q1863.02 210.224 1867.54 210.224 Q1872.03 210.224 1874.04 207.793 Q1876.06 205.339 1876.06 199.784 L1876.06 178.789 L1880.75 178.789 L1880.75 200.363 Q1880.75 207.122 1877.4 210.571 Q1874.06 214.02 1867.54 214.02 Q1860.99 214.02 1857.63 210.571 Q1854.3 207.122 1854.3 200.363 L1854.3 178.789 Z" fill="#000000" fill-rule="evenodd" fill-opacity="1" /><polyline clip-path="url(#clip390)" style="stroke:#3da44d; stroke-linecap:round; stroke-linejoin:round; stroke-width:8; stroke-opacity:1; fill:none" points="
  1525.07,247.909 1661.69,247.909 
  "/>
<path clip-path="url(#clip390)" d="M1684.46 230.629 L1690.76 230.629 L1706.08 259.541 L1706.08 230.629 L1710.62 230.629 L1710.62 265.189 L1704.32 265.189 L1689 236.277 L1689 265.189 L1684.46 265.189 L1684.46 230.629 Z" fill="#000000" fill-rule="evenodd" fill-opacity="1" /><path clip-path="url(#clip390)" d="M1741.91 251.161 L1741.91 253.244 L1722.33 253.244 Q1722.61 257.642 1724.97 259.957 Q1727.35 262.249 1731.59 262.249 Q1734.04 262.249 1736.33 261.647 Q1738.65 261.045 1740.92 259.841 L1740.92 263.869 Q1738.63 264.841 1736.22 265.351 Q1733.81 265.86 1731.33 265.86 Q1725.13 265.86 1721.5 262.249 Q1717.88 258.638 1717.88 252.48 Q1717.88 246.115 1721.31 242.388 Q1724.76 238.638 1730.59 238.638 Q1735.82 238.638 1738.86 242.017 Q1741.91 245.374 1741.91 251.161 M1737.65 249.911 Q1737.61 246.416 1735.69 244.332 Q1733.79 242.249 1730.64 242.249 Q1727.07 242.249 1724.92 244.263 Q1722.79 246.277 1722.47 249.934 L1737.65 249.911 Z" fill="#000000" fill-rule="evenodd" fill-opacity="1" /><path clip-path="url(#clip390)" d="M1748.46 254.957 L1748.46 239.263 L1752.72 239.263 L1752.72 254.795 Q1752.72 258.476 1754.16 260.328 Q1755.59 262.156 1758.46 262.156 Q1761.91 262.156 1763.9 259.957 Q1765.92 257.758 1765.92 253.962 L1765.92 239.263 L1770.18 239.263 L1770.18 265.189 L1765.92 265.189 L1765.92 261.207 Q1764.37 263.568 1762.31 264.726 Q1760.27 265.86 1757.56 265.86 Q1753.09 265.86 1750.78 263.082 Q1748.46 260.304 1748.46 254.957 M1759.18 238.638 L1759.18 238.638 Z" fill="#000000" fill-rule="evenodd" fill-opacity="1" /><path clip-path="url(#clip390)" d="M1793.97 243.244 Q1793.25 242.828 1792.4 242.642 Q1791.56 242.434 1790.55 242.434 Q1786.94 242.434 1784.99 244.795 Q1783.07 247.133 1783.07 251.531 L1783.07 265.189 L1778.79 265.189 L1778.79 239.263 L1783.07 239.263 L1783.07 243.291 Q1784.41 240.929 1786.56 239.795 Q1788.72 238.638 1791.8 238.638 Q1792.24 238.638 1792.77 238.707 Q1793.3 238.754 1793.95 238.869 L1793.97 243.244 Z" fill="#000000" fill-rule="evenodd" fill-opacity="1" /><path clip-path="url(#clip390)" d="M1810.22 252.156 Q1805.06 252.156 1803.07 253.337 Q1801.08 254.517 1801.08 257.365 Q1801.08 259.633 1802.56 260.976 Q1804.06 262.295 1806.63 262.295 Q1810.18 262.295 1812.31 259.795 Q1814.46 257.272 1814.46 253.105 L1814.46 252.156 L1810.22 252.156 M1818.72 250.397 L1818.72 265.189 L1814.46 265.189 L1814.46 261.253 Q1813 263.615 1810.82 264.749 Q1808.65 265.86 1805.5 265.86 Q1801.52 265.86 1799.16 263.638 Q1796.82 261.392 1796.82 257.642 Q1796.82 253.267 1799.74 251.045 Q1802.68 248.823 1808.49 248.823 L1814.46 248.823 L1814.46 248.406 Q1814.46 245.467 1812.51 243.869 Q1810.59 242.249 1807.1 242.249 Q1804.87 242.249 1802.77 242.781 Q1800.66 243.314 1798.72 244.379 L1798.72 240.443 Q1801.06 239.541 1803.25 239.101 Q1805.45 238.638 1807.54 238.638 Q1813.16 238.638 1815.94 241.554 Q1818.72 244.471 1818.72 250.397 Z" fill="#000000" fill-rule="evenodd" fill-opacity="1" /><path clip-path="url(#clip390)" d="M1827.49 229.17 L1831.75 229.17 L1831.75 265.189 L1827.49 265.189 L1827.49 229.17 Z" fill="#000000" fill-rule="evenodd" fill-opacity="1" /><path clip-path="url(#clip390)" d="M1840.85 230.629 L1860.71 230.629 L1860.71 234.564 L1845.52 234.564 L1845.52 244.749 L1859.23 244.749 L1859.23 248.684 L1845.52 248.684 L1845.52 265.189 L1840.85 265.189 L1840.85 230.629 Z" fill="#000000" fill-rule="evenodd" fill-opacity="1" /><path clip-path="url(#clip390)" d="M1868.12 230.629 L1875.08 230.629 L1883.9 254.147 L1892.77 230.629 L1899.74 230.629 L1899.74 265.189 L1895.18 265.189 L1895.18 234.842 L1886.26 258.545 L1881.56 258.545 L1872.65 234.842 L1872.65 265.189 L1868.12 265.189 L1868.12 230.629 Z" fill="#000000" fill-rule="evenodd" fill-opacity="1" /><path clip-path="url(#clip390)" d="M1908.49 230.629 L1913.18 230.629 L1913.18 251.624 Q1913.18 257.179 1915.2 259.633 Q1917.21 262.064 1921.73 262.064 Q1926.22 262.064 1928.23 259.633 Q1930.24 257.179 1930.24 251.624 L1930.24 230.629 L1934.94 230.629 L1934.94 252.203 Q1934.94 258.962 1931.59 262.411 Q1928.25 265.86 1921.73 265.86 Q1915.18 265.86 1911.82 262.411 Q1908.49 258.962 1908.49 252.203 L1908.49 230.629 Z" fill="#000000" fill-rule="evenodd" fill-opacity="1" /><path clip-path="url(#clip390)" d="M1968.83 229.217 Q1965.73 234.541 1964.23 239.749 Q1962.72 244.957 1962.72 250.304 Q1962.72 255.652 1964.23 260.906 Q1965.75 266.138 1968.83 271.439 L1965.13 271.439 Q1961.66 265.999 1959.92 260.744 Q1958.21 255.49 1958.21 250.304 Q1958.21 245.142 1959.92 239.911 Q1961.63 234.68 1965.13 229.217 L1968.83 229.217 Z" fill="#000000" fill-rule="evenodd" fill-opacity="1" /><path clip-path="url(#clip390)" d="M1991.86 246.554 Q1995.22 247.272 1997.1 249.541 Q1998.99 251.809 1998.99 255.142 Q1998.99 260.258 1995.48 263.059 Q1991.96 265.86 1985.48 265.86 Q1983.3 265.86 1980.99 265.42 Q1978.69 265.003 1976.24 264.147 L1976.24 259.633 Q1978.18 260.767 1980.5 261.346 Q1982.81 261.925 1985.34 261.925 Q1989.74 261.925 1992.03 260.189 Q1994.34 258.453 1994.34 255.142 Q1994.34 252.087 1992.19 250.374 Q1990.06 248.638 1986.24 248.638 L1982.21 248.638 L1982.21 244.795 L1986.42 244.795 Q1989.87 244.795 1991.7 243.429 Q1993.53 242.041 1993.53 239.448 Q1993.53 236.786 1991.63 235.374 Q1989.76 233.939 1986.24 233.939 Q1984.32 233.939 1982.12 234.355 Q1979.92 234.772 1977.28 235.652 L1977.28 231.485 Q1979.94 230.744 1982.26 230.374 Q1984.6 230.004 1986.66 230.004 Q1991.98 230.004 1995.08 232.434 Q1998.18 234.842 1998.18 238.962 Q1998.18 241.832 1996.54 243.823 Q1994.9 245.791 1991.86 246.554 Z" fill="#000000" fill-rule="evenodd" fill-opacity="1" /><path clip-path="url(#clip390)" d="M2017.86 233.707 Q2014.25 233.707 2012.42 237.272 Q2010.61 240.814 2010.61 247.943 Q2010.61 255.05 2012.42 258.615 Q2014.25 262.156 2017.86 262.156 Q2021.49 262.156 2023.3 258.615 Q2025.13 255.05 2025.13 247.943 Q2025.13 240.814 2023.3 237.272 Q2021.49 233.707 2017.86 233.707 M2017.86 230.004 Q2023.67 230.004 2026.73 234.61 Q2029.8 239.193 2029.8 247.943 Q2029.8 256.67 2026.73 261.277 Q2023.67 265.86 2017.86 265.86 Q2012.05 265.86 2008.97 261.277 Q2005.92 256.67 2005.92 247.943 Q2005.92 239.193 2008.97 234.61 Q2012.05 230.004 2017.86 230.004 Z" fill="#000000" fill-rule="evenodd" fill-opacity="1" /><path clip-path="url(#clip390)" d="M2048.02 233.707 Q2044.41 233.707 2042.58 237.272 Q2040.78 240.814 2040.78 247.943 Q2040.78 255.05 2042.58 258.615 Q2044.41 262.156 2048.02 262.156 Q2051.66 262.156 2053.46 258.615 Q2055.29 255.05 2055.29 247.943 Q2055.29 240.814 2053.46 237.272 Q2051.66 233.707 2048.02 233.707 M2048.02 230.004 Q2053.83 230.004 2056.89 234.61 Q2059.97 239.193 2059.97 247.943 Q2059.97 256.67 2056.89 261.277 Q2053.83 265.86 2048.02 265.86 Q2042.21 265.86 2039.13 261.277 Q2036.08 256.67 2036.08 247.943 Q2036.08 239.193 2039.13 234.61 Q2042.21 230.004 2048.02 230.004 Z" fill="#000000" fill-rule="evenodd" fill-opacity="1" /><path clip-path="url(#clip390)" d="M2104.83 251.161 L2104.83 253.244 L2085.24 253.244 Q2085.52 257.642 2087.88 259.957 Q2090.27 262.249 2094.5 262.249 Q2096.96 262.249 2099.25 261.647 Q2101.56 261.045 2103.83 259.841 L2103.83 263.869 Q2101.54 264.841 2099.13 265.351 Q2096.73 265.86 2094.25 265.86 Q2088.04 265.86 2084.41 262.249 Q2080.8 258.638 2080.8 252.48 Q2080.8 246.115 2084.23 242.388 Q2087.67 238.638 2093.51 238.638 Q2098.74 238.638 2101.77 242.017 Q2104.83 245.374 2104.83 251.161 M2100.57 249.911 Q2100.52 246.416 2098.6 244.332 Q2096.7 242.249 2093.55 242.249 Q2089.99 242.249 2087.84 244.263 Q2085.71 246.277 2085.38 249.934 L2100.57 249.911 Z" fill="#000000" fill-rule="evenodd" fill-opacity="1" /><path clip-path="url(#clip390)" d="M2115.94 261.3 L2115.94 275.05 L2111.66 275.05 L2111.66 239.263 L2115.94 239.263 L2115.94 243.198 Q2117.28 240.883 2119.32 239.772 Q2121.38 238.638 2124.23 238.638 Q2128.95 238.638 2131.89 242.388 Q2134.85 246.138 2134.85 252.249 Q2134.85 258.36 2131.89 262.11 Q2128.95 265.86 2124.23 265.86 Q2121.38 265.86 2119.32 264.749 Q2117.28 263.615 2115.94 261.3 M2130.43 252.249 Q2130.43 247.55 2128.48 244.888 Q2126.56 242.203 2123.18 242.203 Q2119.8 242.203 2117.86 244.888 Q2115.94 247.55 2115.94 252.249 Q2115.94 256.948 2117.86 259.633 Q2119.8 262.295 2123.18 262.295 Q2126.56 262.295 2128.48 259.633 Q2130.43 256.948 2130.43 252.249 Z" fill="#000000" fill-rule="evenodd" fill-opacity="1" /><path clip-path="url(#clip390)" d="M2151.96 242.249 Q2148.53 242.249 2146.54 244.934 Q2144.55 247.596 2144.55 252.249 Q2144.55 256.902 2146.52 259.587 Q2148.51 262.249 2151.96 262.249 Q2155.36 262.249 2157.35 259.564 Q2159.34 256.878 2159.34 252.249 Q2159.34 247.642 2157.35 244.957 Q2155.36 242.249 2151.96 242.249 M2151.96 238.638 Q2157.51 238.638 2160.68 242.249 Q2163.85 245.86 2163.85 252.249 Q2163.85 258.615 2160.68 262.249 Q2157.51 265.86 2151.96 265.86 Q2146.38 265.86 2143.21 262.249 Q2140.06 258.615 2140.06 252.249 Q2140.06 245.86 2143.21 242.249 Q2146.38 238.638 2151.96 238.638 Z" fill="#000000" fill-rule="evenodd" fill-opacity="1" /><path clip-path="url(#clip390)" d="M2189.57 240.258 L2189.57 244.24 Q2187.77 243.244 2185.94 242.758 Q2184.13 242.249 2182.28 242.249 Q2178.14 242.249 2175.85 244.888 Q2173.55 247.504 2173.55 252.249 Q2173.55 256.994 2175.85 259.633 Q2178.14 262.249 2182.28 262.249 Q2184.13 262.249 2185.94 261.763 Q2187.77 261.253 2189.57 260.258 L2189.57 264.193 Q2187.79 265.027 2185.87 265.443 Q2183.97 265.86 2181.82 265.86 Q2175.96 265.86 2172.51 262.179 Q2169.06 258.499 2169.06 252.249 Q2169.06 245.906 2172.53 242.272 Q2176.03 238.638 2182.1 238.638 Q2184.06 238.638 2185.94 239.055 Q2187.81 239.448 2189.57 240.258 Z" fill="#000000" fill-rule="evenodd" fill-opacity="1" /><path clip-path="url(#clip390)" d="M2218.53 249.541 L2218.53 265.189 L2214.27 265.189 L2214.27 249.679 Q2214.27 245.999 2212.84 244.17 Q2211.4 242.342 2208.53 242.342 Q2205.08 242.342 2203.09 244.541 Q2201.1 246.74 2201.1 250.536 L2201.1 265.189 L2196.82 265.189 L2196.82 229.17 L2201.1 229.17 L2201.1 243.291 Q2202.63 240.953 2204.69 239.795 Q2206.77 238.638 2209.48 238.638 Q2213.95 238.638 2216.24 241.416 Q2218.53 244.17 2218.53 249.541 Z" fill="#000000" fill-rule="evenodd" fill-opacity="1" /><path clip-path="url(#clip390)" d="M2243.55 240.027 L2243.55 244.054 Q2241.75 243.129 2239.8 242.666 Q2237.86 242.203 2235.78 242.203 Q2232.6 242.203 2231.01 243.175 Q2229.43 244.147 2229.43 246.091 Q2229.43 247.573 2230.57 248.429 Q2231.7 249.263 2235.13 250.027 L2236.59 250.351 Q2241.12 251.323 2243.02 253.105 Q2244.94 254.865 2244.94 258.036 Q2244.94 261.647 2242.07 263.753 Q2239.22 265.86 2234.22 265.86 Q2232.14 265.86 2229.87 265.443 Q2227.63 265.05 2225.13 264.24 L2225.13 259.841 Q2227.49 261.068 2229.78 261.693 Q2232.07 262.295 2234.32 262.295 Q2237.33 262.295 2238.95 261.277 Q2240.57 260.235 2240.57 258.36 Q2240.57 256.624 2239.39 255.698 Q2238.23 254.772 2234.27 253.916 L2232.79 253.568 Q2228.83 252.735 2227.07 251.022 Q2225.31 249.286 2225.31 246.277 Q2225.31 242.619 2227.91 240.629 Q2230.5 238.638 2235.27 238.638 Q2237.63 238.638 2239.71 238.985 Q2241.79 239.332 2243.55 240.027 Z" fill="#000000" fill-rule="evenodd" fill-opacity="1" /><path clip-path="url(#clip390)" d="M2251.05 229.217 L2254.76 229.217 Q2258.23 234.68 2259.94 239.911 Q2261.68 245.142 2261.68 250.304 Q2261.68 255.49 2259.94 260.744 Q2258.23 265.999 2254.76 271.439 L2251.05 271.439 Q2254.13 266.138 2255.64 260.906 Q2257.16 255.652 2257.16 250.304 Q2257.16 244.957 2255.64 239.749 Q2254.13 234.541 2251.05 229.217 Z" fill="#000000" fill-rule="evenodd" fill-opacity="1" /></svg>
