<?xml version="1.0" encoding="utf-8"?>
<svg xmlns="http://www.w3.org/2000/svg" xmlns:xlink="http://www.w3.org/1999/xlink" width="600" height="400" viewBox="0 0 2400 1600">
<defs>
  <clipPath id="clip980">
    <rect x="0" y="0" width="2400" height="1600"/>
  </clipPath>
</defs>
<path clip-path="url(#clip980)" d="
M0 1600 L2400 1600 L2400 0 L0 0  Z
  " fill="#ffffff" fill-rule="evenodd" fill-opacity="1"/>
<defs>
  <clipPath id="clip981">
    <rect x="480" y="0" width="1681" height="1600"/>
  </clipPath>
</defs>
<path clip-path="url(#clip980)" d="
M149.191 1423.18 L2352.76 1423.18 L2352.76 47.2441 L149.191 47.2441  Z
  " fill="#ffffff" fill-rule="evenodd" fill-opacity="1"/>
<defs>
  <clipPath id="clip982">
    <rect x="149" y="47" width="2205" height="1377"/>
  </clipPath>
</defs>
<polyline clip-path="url(#clip982)" style="stroke:#000000; stroke-linecap:round; stroke-linejoin:round; stroke-width:2; stroke-opacity:0.1; fill:none" points="
  211.556,1423.18 211.556,47.2441 
  "/>
<polyline clip-path="url(#clip982)" style="stroke:#000000; stroke-linecap:round; stroke-linejoin:round; stroke-width:2; stroke-opacity:0.1; fill:none" points="
  627.323,1423.18 627.323,47.2441 
  "/>
<polyline clip-path="url(#clip982)" style="stroke:#000000; stroke-linecap:round; stroke-linejoin:round; stroke-width:2; stroke-opacity:0.1; fill:none" points="
  1043.09,1423.18 1043.09,47.2441 
  "/>
<polyline clip-path="url(#clip982)" style="stroke:#000000; stroke-linecap:round; stroke-linejoin:round; stroke-width:2; stroke-opacity:0.1; fill:none" points="
  1458.86,1423.18 1458.86,47.2441 
  "/>
<polyline clip-path="url(#clip982)" style="stroke:#000000; stroke-linecap:round; stroke-linejoin:round; stroke-width:2; stroke-opacity:0.1; fill:none" points="
  1874.62,1423.18 1874.62,47.2441 
  "/>
<polyline clip-path="url(#clip982)" style="stroke:#000000; stroke-linecap:round; stroke-linejoin:round; stroke-width:2; stroke-opacity:0.1; fill:none" points="
  2290.39,1423.18 2290.39,47.2441 
  "/>
<polyline clip-path="url(#clip980)" style="stroke:#000000; stroke-linecap:round; stroke-linejoin:round; stroke-width:4; stroke-opacity:1; fill:none" points="
  149.191,1423.18 2352.76,1423.18 
  "/>
<polyline clip-path="url(#clip980)" style="stroke:#000000; stroke-linecap:round; stroke-linejoin:round; stroke-width:4; stroke-opacity:1; fill:none" points="
  211.556,1423.18 211.556,1404.28 
  "/>
<polyline clip-path="url(#clip980)" style="stroke:#000000; stroke-linecap:round; stroke-linejoin:round; stroke-width:4; stroke-opacity:1; fill:none" points="
  627.323,1423.18 627.323,1404.28 
  "/>
<polyline clip-path="url(#clip980)" style="stroke:#000000; stroke-linecap:round; stroke-linejoin:round; stroke-width:4; stroke-opacity:1; fill:none" points="
  1043.09,1423.18 1043.09,1404.28 
  "/>
<polyline clip-path="url(#clip980)" style="stroke:#000000; stroke-linecap:round; stroke-linejoin:round; stroke-width:4; stroke-opacity:1; fill:none" points="
  1458.86,1423.18 1458.86,1404.28 
  "/>
<polyline clip-path="url(#clip980)" style="stroke:#000000; stroke-linecap:round; stroke-linejoin:round; stroke-width:4; stroke-opacity:1; fill:none" points="
  1874.62,1423.18 1874.62,1404.28 
  "/>
<polyline clip-path="url(#clip980)" style="stroke:#000000; stroke-linecap:round; stroke-linejoin:round; stroke-width:4; stroke-opacity:1; fill:none" points="
  2290.39,1423.18 2290.39,1404.28 
  "/>
<path clip-path="url(#clip980)" d="M211.556 1454.1 Q207.945 1454.1 206.116 1457.66 Q204.311 1461.2 204.311 1468.33 Q204.311 1475.44 206.116 1479.01 Q207.945 1482.55 211.556 1482.55 Q215.19 1482.55 216.996 1479.01 Q218.824 1475.44 218.824 1468.33 Q218.824 1461.2 216.996 1457.66 Q215.19 1454.1 211.556 1454.1 M211.556 1450.39 Q217.366 1450.39 220.422 1455 Q223.5 1459.58 223.5 1468.33 Q223.5 1477.06 220.422 1481.67 Q217.366 1486.25 211.556 1486.25 Q205.746 1486.25 202.667 1481.67 Q199.612 1477.06 199.612 1468.33 Q199.612 1459.58 202.667 1455 Q205.746 1450.39 211.556 1450.39 Z" fill="#000000" fill-rule="evenodd" fill-opacity="1" /><path clip-path="url(#clip980)" d="M617.705 1481.64 L625.344 1481.64 L625.344 1455.28 L617.034 1456.95 L617.034 1452.69 L625.297 1451.02 L629.973 1451.02 L629.973 1481.64 L637.612 1481.64 L637.612 1485.58 L617.705 1485.58 L617.705 1481.64 Z" fill="#000000" fill-rule="evenodd" fill-opacity="1" /><path clip-path="url(#clip980)" d="M1037.74 1481.64 L1054.06 1481.64 L1054.06 1485.58 L1032.12 1485.58 L1032.12 1481.64 Q1034.78 1478.89 1039.36 1474.26 Q1043.97 1469.61 1045.15 1468.27 Q1047.4 1465.74 1048.28 1464.01 Q1049.18 1462.25 1049.18 1460.56 Q1049.18 1457.8 1047.23 1456.07 Q1045.31 1454.33 1042.21 1454.33 Q1040.01 1454.33 1037.56 1455.09 Q1035.13 1455.86 1032.35 1457.41 L1032.35 1452.69 Q1035.17 1451.55 1037.63 1450.97 Q1040.08 1450.39 1042.12 1450.39 Q1047.49 1450.39 1050.68 1453.08 Q1053.88 1455.77 1053.88 1460.26 Q1053.88 1462.39 1053.07 1464.31 Q1052.28 1466.2 1050.17 1468.8 Q1049.59 1469.47 1046.49 1472.69 Q1043.39 1475.88 1037.74 1481.64 Z" fill="#000000" fill-rule="evenodd" fill-opacity="1" /><path clip-path="url(#clip980)" d="M1463.1 1466.95 Q1466.46 1467.66 1468.34 1469.93 Q1470.23 1472.2 1470.23 1475.53 Q1470.23 1480.65 1466.72 1483.45 Q1463.2 1486.25 1456.72 1486.25 Q1454.54 1486.25 1452.22 1485.81 Q1449.93 1485.39 1447.48 1484.54 L1447.48 1480.02 Q1449.42 1481.16 1451.74 1481.74 Q1454.05 1482.32 1456.58 1482.32 Q1460.97 1482.32 1463.27 1480.58 Q1465.58 1478.84 1465.58 1475.53 Q1465.58 1472.48 1463.43 1470.77 Q1461.3 1469.03 1457.48 1469.03 L1453.45 1469.03 L1453.45 1465.19 L1457.66 1465.19 Q1461.11 1465.19 1462.94 1463.82 Q1464.77 1462.43 1464.77 1459.84 Q1464.77 1457.18 1462.87 1455.77 Q1461 1454.33 1457.48 1454.33 Q1455.56 1454.33 1453.36 1454.75 Q1451.16 1455.16 1448.52 1456.04 L1448.52 1451.88 Q1451.18 1451.14 1453.5 1450.77 Q1455.84 1450.39 1457.9 1450.39 Q1463.22 1450.39 1466.32 1452.83 Q1469.42 1455.23 1469.42 1459.35 Q1469.42 1462.22 1467.78 1464.21 Q1466.14 1466.18 1463.1 1466.95 Z" fill="#000000" fill-rule="evenodd" fill-opacity="1" /><path clip-path="url(#clip980)" d="M1877.63 1455.09 L1865.83 1473.54 L1877.63 1473.54 L1877.63 1455.09 M1876.41 1451.02 L1882.29 1451.02 L1882.29 1473.54 L1887.22 1473.54 L1887.22 1477.43 L1882.29 1477.43 L1882.29 1485.58 L1877.63 1485.58 L1877.63 1477.43 L1862.03 1477.43 L1862.03 1472.92 L1876.41 1451.02 Z" fill="#000000" fill-rule="evenodd" fill-opacity="1" /><path clip-path="url(#clip980)" d="M2280.67 1451.02 L2299.03 1451.02 L2299.03 1454.96 L2284.95 1454.96 L2284.95 1463.43 Q2285.97 1463.08 2286.99 1462.92 Q2288.01 1462.73 2289.03 1462.73 Q2294.81 1462.73 2298.19 1465.9 Q2301.57 1469.08 2301.57 1474.49 Q2301.57 1480.07 2298.1 1483.17 Q2294.63 1486.25 2288.31 1486.25 Q2286.13 1486.25 2283.86 1485.88 Q2281.62 1485.51 2279.21 1484.77 L2279.21 1480.07 Q2281.29 1481.2 2283.52 1481.76 Q2285.74 1482.32 2288.21 1482.32 Q2292.22 1482.32 2294.56 1480.21 Q2296.9 1478.1 2296.9 1474.49 Q2296.9 1470.88 2294.56 1468.77 Q2292.22 1466.67 2288.21 1466.67 Q2286.34 1466.67 2284.46 1467.08 Q2282.61 1467.5 2280.67 1468.38 L2280.67 1451.02 Z" fill="#000000" fill-rule="evenodd" fill-opacity="1" /><path clip-path="url(#clip980)" d="M1199.28 1522.27 L1199.28 1532.4 L1211.35 1532.4 L1211.35 1536.95 L1199.28 1536.95 L1199.28 1556.3 Q1199.28 1560.66 1200.46 1561.9 Q1201.67 1563.14 1205.33 1563.14 L1211.35 1563.14 L1211.35 1568.04 L1205.33 1568.04 Q1198.55 1568.04 1195.97 1565.53 Q1193.4 1562.98 1193.4 1556.3 L1193.4 1536.95 L1189.1 1536.95 L1189.1 1532.4 L1193.4 1532.4 L1193.4 1522.27 L1199.28 1522.27 Z" fill="#000000" fill-rule="evenodd" fill-opacity="1" /><path clip-path="url(#clip980)" d="M1239.23 1518.52 L1252.72 1518.52 L1252.72 1523.07 L1245.09 1523.07 L1245.09 1572.09 L1252.72 1572.09 L1252.72 1576.64 L1239.23 1576.64 L1239.23 1518.52 Z" fill="#000000" fill-rule="evenodd" fill-opacity="1" /><path clip-path="url(#clip980)" d="M1287.93 1533.45 L1287.93 1538.98 Q1285.44 1537.71 1282.77 1537.07 Q1280.1 1536.44 1277.23 1536.44 Q1272.87 1536.44 1270.68 1537.77 Q1268.51 1539.11 1268.51 1541.79 Q1268.51 1543.82 1270.07 1545 Q1271.63 1546.15 1276.34 1547.2 L1278.35 1547.64 Q1284.58 1548.98 1287.19 1551.43 Q1289.84 1553.85 1289.84 1558.21 Q1289.84 1563.17 1285.89 1566.07 Q1281.97 1568.97 1275.1 1568.97 Q1272.23 1568.97 1269.12 1568.39 Q1266.03 1567.85 1262.59 1566.74 L1262.59 1560.69 Q1265.84 1562.38 1268.99 1563.24 Q1272.14 1564.07 1275.23 1564.07 Q1279.36 1564.07 1281.59 1562.66 Q1283.82 1561.23 1283.82 1558.65 Q1283.82 1556.27 1282.2 1554.99 Q1280.61 1553.72 1275.16 1552.54 L1273.13 1552.07 Q1267.68 1550.92 1265.26 1548.56 Q1262.85 1546.18 1262.85 1542.04 Q1262.85 1537.01 1266.41 1534.27 Q1269.98 1531.54 1276.53 1531.54 Q1279.78 1531.54 1282.64 1532.01 Q1285.51 1532.49 1287.93 1533.45 Z" fill="#000000" fill-rule="evenodd" fill-opacity="1" /><path clip-path="url(#clip980)" d="M1312.85 1518.52 L1312.85 1576.64 L1299.35 1576.64 L1299.35 1572.09 L1306.96 1572.09 L1306.96 1523.07 L1299.35 1523.07 L1299.35 1518.52 L1312.85 1518.52 Z" fill="#000000" fill-rule="evenodd" fill-opacity="1" /><polyline clip-path="url(#clip982)" style="stroke:#000000; stroke-linecap:round; stroke-linejoin:round; stroke-width:2; stroke-opacity:0.1; fill:none" points="
  149.191,1246.93 2352.76,1246.93 
  "/>
<polyline clip-path="url(#clip982)" style="stroke:#000000; stroke-linecap:round; stroke-linejoin:round; stroke-width:2; stroke-opacity:0.1; fill:none" points="
  149.191,969.298 2352.76,969.298 
  "/>
<polyline clip-path="url(#clip982)" style="stroke:#000000; stroke-linecap:round; stroke-linejoin:round; stroke-width:2; stroke-opacity:0.1; fill:none" points="
  149.191,691.662 2352.76,691.662 
  "/>
<polyline clip-path="url(#clip982)" style="stroke:#000000; stroke-linecap:round; stroke-linejoin:round; stroke-width:2; stroke-opacity:0.1; fill:none" points="
  149.191,414.026 2352.76,414.026 
  "/>
<polyline clip-path="url(#clip982)" style="stroke:#000000; stroke-linecap:round; stroke-linejoin:round; stroke-width:2; stroke-opacity:0.1; fill:none" points="
  149.191,136.39 2352.76,136.39 
  "/>
<polyline clip-path="url(#clip980)" style="stroke:#000000; stroke-linecap:round; stroke-linejoin:round; stroke-width:4; stroke-opacity:1; fill:none" points="
  149.191,1423.18 149.191,47.2441 
  "/>
<polyline clip-path="url(#clip980)" style="stroke:#000000; stroke-linecap:round; stroke-linejoin:round; stroke-width:4; stroke-opacity:1; fill:none" points="
  149.191,1246.93 168.089,1246.93 
  "/>
<polyline clip-path="url(#clip980)" style="stroke:#000000; stroke-linecap:round; stroke-linejoin:round; stroke-width:4; stroke-opacity:1; fill:none" points="
  149.191,969.298 168.089,969.298 
  "/>
<polyline clip-path="url(#clip980)" style="stroke:#000000; stroke-linecap:round; stroke-linejoin:round; stroke-width:4; stroke-opacity:1; fill:none" points="
  149.191,691.662 168.089,691.662 
  "/>
<polyline clip-path="url(#clip980)" style="stroke:#000000; stroke-linecap:round; stroke-linejoin:round; stroke-width:4; stroke-opacity:1; fill:none" points="
  149.191,414.026 168.089,414.026 
  "/>
<polyline clip-path="url(#clip980)" style="stroke:#000000; stroke-linecap:round; stroke-linejoin:round; stroke-width:4; stroke-opacity:1; fill:none" points="
  149.191,136.39 168.089,136.39 
  "/>
<path clip-path="url(#clip980)" d="M50.9921 1247.38 L80.6679 1247.38 L80.6679 1251.32 L50.9921 1251.32 L50.9921 1247.38 Z" fill="#000000" fill-rule="evenodd" fill-opacity="1" /><path clip-path="url(#clip980)" d="M103.608 1233.73 L91.8021 1252.18 L103.608 1252.18 L103.608 1233.73 M102.381 1229.65 L108.26 1229.65 L108.26 1252.18 L113.191 1252.18 L113.191 1256.07 L108.26 1256.07 L108.26 1264.21 L103.608 1264.21 L103.608 1256.07 L88.0058 1256.07 L88.0058 1251.55 L102.381 1229.65 Z" fill="#000000" fill-rule="evenodd" fill-opacity="1" /><path clip-path="url(#clip980)" d="M53.0754 969.749 L82.7512 969.749 L82.7512 973.684 L53.0754 973.684 L53.0754 969.749 Z" fill="#000000" fill-rule="evenodd" fill-opacity="1" /><path clip-path="url(#clip980)" d="M96.8715 982.643 L113.191 982.643 L113.191 986.578 L91.2465 986.578 L91.2465 982.643 Q93.9086 979.888 98.4919 975.258 Q103.098 970.606 104.279 969.263 Q106.524 966.74 107.404 965.004 Q108.307 963.245 108.307 961.555 Q108.307 958.8 106.362 957.064 Q104.441 955.328 101.339 955.328 Q99.14 955.328 96.6863 956.092 Q94.2558 956.856 91.478 958.407 L91.478 953.684 Q94.3021 952.55 96.7558 951.972 Q99.2095 951.393 101.246 951.393 Q106.617 951.393 109.811 954.078 Q113.006 956.763 113.006 961.254 Q113.006 963.384 112.196 965.305 Q111.408 967.203 109.302 969.796 Q108.723 970.467 105.621 973.684 Q102.52 976.879 96.8715 982.643 Z" fill="#000000" fill-rule="evenodd" fill-opacity="1" /><path clip-path="url(#clip980)" d="M101.246 677.461 Q97.6354 677.461 95.8067 681.026 Q94.0012 684.567 94.0012 691.697 Q94.0012 698.803 95.8067 702.368 Q97.6354 705.91 101.246 705.91 Q104.881 705.91 106.686 702.368 Q108.515 698.803 108.515 691.697 Q108.515 684.567 106.686 681.026 Q104.881 677.461 101.246 677.461 M101.246 673.757 Q107.057 673.757 110.112 678.364 Q113.191 682.947 113.191 691.697 Q113.191 700.424 110.112 705.03 Q107.057 709.613 101.246 709.613 Q95.4363 709.613 92.3576 705.03 Q89.3021 700.424 89.3021 691.697 Q89.3021 682.947 92.3576 678.364 Q95.4363 673.757 101.246 673.757 Z" fill="#000000" fill-rule="evenodd" fill-opacity="1" /><path clip-path="url(#clip980)" d="M96.8715 427.371 L113.191 427.371 L113.191 431.306 L91.2465 431.306 L91.2465 427.371 Q93.9086 424.616 98.4919 419.987 Q103.098 415.334 104.279 413.992 Q106.524 411.468 107.404 409.732 Q108.307 407.973 108.307 406.283 Q108.307 403.529 106.362 401.793 Q104.441 400.056 101.339 400.056 Q99.14 400.056 96.6863 400.82 Q94.2558 401.584 91.478 403.135 L91.478 398.413 Q94.3021 397.279 96.7558 396.7 Q99.2095 396.121 101.246 396.121 Q106.617 396.121 109.811 398.806 Q113.006 401.492 113.006 405.982 Q113.006 408.112 112.196 410.033 Q111.408 411.931 109.302 414.524 Q108.723 415.195 105.621 418.413 Q102.52 421.607 96.8715 427.371 Z" fill="#000000" fill-rule="evenodd" fill-opacity="1" /><path clip-path="url(#clip980)" d="M103.608 123.185 L91.8021 141.634 L103.608 141.634 L103.608 123.185 M102.381 119.11 L108.26 119.11 L108.26 141.634 L113.191 141.634 L113.191 145.522 L108.26 145.522 L108.26 153.67 L103.608 153.67 L103.608 145.522 L88.0058 145.522 L88.0058 141.009 L102.381 119.11 Z" fill="#000000" fill-rule="evenodd" fill-opacity="1" /><polyline clip-path="url(#clip982)" style="stroke:#009af9; stroke-linecap:round; stroke-linejoin:round; stroke-width:4; stroke-opacity:1; fill:none" points="
  211.556,622.253 215.714,622.222 219.871,622.132 224.029,621.983 228.187,621.773 232.344,621.504 236.502,621.174 240.66,620.783 244.817,620.333 248.975,619.822 
  253.133,619.251 257.29,618.62 261.448,617.931 265.606,617.182 269.763,616.376 273.921,615.512 278.079,614.591 282.236,613.614 286.394,612.582 290.552,611.496 
  294.709,610.357 298.867,609.165 303.025,607.923 307.182,606.631 311.34,605.289 315.498,603.901 319.655,602.468 323.813,600.99 327.971,599.468 332.128,597.905 
  336.286,596.302 340.444,594.659 344.601,592.981 348.759,591.268 352.917,589.521 357.074,587.742 361.232,585.932 365.39,584.093 369.547,582.228 373.705,580.339 
  377.863,578.427 382.02,576.494 386.178,574.541 390.336,572.572 394.493,570.588 398.651,568.59 402.809,566.581 406.966,564.563 411.124,562.539 415.282,560.509 
  419.439,558.477 423.597,556.444 427.755,554.411 431.912,552.382 436.07,550.358 440.228,548.342 444.385,546.335 448.543,544.341 452.701,542.358 456.858,540.391 
  461.016,538.442 465.174,536.511 469.331,534.602 473.489,532.717 477.647,530.857 481.804,529.023 485.962,527.217 490.12,525.443 494.277,523.7 498.435,521.993 
  502.593,520.321 506.75,518.686 510.908,517.09 515.066,515.535 519.223,514.022 523.381,512.554 527.539,511.131 531.696,509.754 535.854,508.426 540.012,507.147 
  544.17,505.92 548.327,504.744 552.485,503.623 556.643,502.556 560.8,501.545 564.958,500.59 569.116,499.694 573.273,498.857 577.431,498.08 581.589,497.365 
  585.746,496.711 589.904,496.12 594.062,495.593 598.219,495.13 602.377,494.733 606.535,494.401 610.692,494.136 614.85,493.939 619.008,493.809 623.165,493.748 
  627.323,493.756 631.481,493.813 635.638,493.918 639.796,494.071 643.954,494.275 648.111,494.528 652.269,494.831 656.427,495.184 660.584,495.587 664.742,496.04 
  668.9,496.542 673.057,497.094 677.215,497.694 681.373,498.343 685.53,499.039 689.688,499.783 693.846,500.573 698.003,501.41 702.161,502.293 706.319,503.219 
  710.476,504.189 714.634,505.203 718.792,506.259 722.949,507.357 727.107,508.493 731.265,509.669 735.422,510.882 739.58,512.134 743.738,513.421 747.895,514.741 
  752.053,516.095 756.211,517.48 760.368,518.897 764.526,520.343 768.684,521.815 772.841,523.313 776.999,524.836 781.157,526.383 785.314,527.952 789.472,529.54 
  793.63,531.146 797.787,532.77 801.945,534.409 806.103,536.062 810.26,537.726 814.418,539.401 818.576,541.084 822.733,542.774 826.891,544.47 831.049,546.169 
  835.206,547.87 839.364,549.571 843.522,551.271 847.679,552.967 851.837,554.659 855.995,556.344 860.152,558.021 864.31,559.687 868.468,561.342 872.625,562.984 
  876.783,564.611 880.941,566.221 885.098,567.813 889.256,569.385 893.414,570.935 897.571,572.463 901.729,573.966 905.887,575.444 910.044,576.893 914.202,578.313 
  918.36,579.704 922.517,581.062 926.675,582.387 930.833,583.677 934.99,584.931 939.148,586.149 943.306,587.328 947.463,588.467 951.621,589.565 955.779,590.62 
  959.936,591.633 964.094,592.601 968.252,593.524 972.41,594.4 976.567,595.228 980.725,596.009 984.883,596.74 989.04,597.421 993.198,598.051 997.356,598.628 
  1001.51,599.154 1005.67,599.626 1009.83,600.044 1013.99,600.406 1018.14,600.713 1022.3,600.964 1026.46,601.159 1030.62,601.297 1034.77,601.376 1038.93,601.397 
  1043.09,601.365 1047.25,601.299 1051.41,601.196 1055.56,601.054 1059.72,600.874 1063.88,600.654 1068.04,600.395 1072.19,600.097 1076.35,599.76 1080.51,599.384 
  1084.67,598.969 1088.82,598.515 1092.98,598.023 1097.14,597.493 1101.3,596.925 1105.45,596.32 1109.61,595.678 1113.77,595 1117.93,594.286 1122.09,593.536 
  1126.24,592.753 1130.4,591.936 1134.56,591.085 1138.72,590.202 1142.87,589.288 1147.03,588.343 1151.19,587.369 1155.35,586.365 1159.5,585.334 1163.66,584.275 
  1167.82,583.191 1171.98,582.081 1176.14,580.948 1180.29,579.791 1184.45,578.614 1188.61,577.415 1192.77,576.198 1196.92,574.962 1201.08,573.709 1205.24,572.441 
  1209.4,571.158 1213.55,569.863 1217.71,568.555 1221.87,567.237 1226.03,565.909 1230.19,564.573 1234.34,563.23 1238.5,561.883 1242.66,560.531 1246.82,559.177 
  1250.97,557.821 1255.13,556.465 1259.29,555.111 1263.45,553.759 1267.6,552.411 1271.76,551.068 1275.92,549.732 1280.08,548.405 1284.23,547.087 1288.39,545.78 
  1292.55,544.485 1296.71,543.203 1300.87,541.936 1305.02,540.685 1309.18,539.451 1313.34,538.236 1317.5,537.041 1321.65,535.867 1325.81,534.716 1329.97,533.588 
  1334.13,532.484 1338.28,531.406 1342.44,530.356 1346.6,529.333 1350.76,528.34 1354.92,527.377 1359.07,526.445 1363.23,525.545 1367.39,524.679 1371.55,523.846 
  1375.7,523.049 1379.86,522.288 1384.02,521.563 1388.18,520.877 1392.33,520.229 1396.49,519.62 1400.65,519.051 1404.81,518.523 1408.96,518.037 1413.12,517.592 
  1417.28,517.191 1421.44,516.833 1425.6,516.518 1429.75,516.249 1433.91,516.024 1438.07,515.845 1442.23,515.712 1446.38,515.625 1450.54,515.585 1454.7,515.594 
  1458.86,515.63 1463.01,515.692 1467.17,515.779 1471.33,515.893 1475.49,516.034 1479.65,516.203 1483.8,516.399 1487.96,516.624 1492.12,516.875 1496.28,517.154 
  1500.43,517.461 1504.59,517.795 1508.75,518.156 1512.91,518.544 1517.06,518.959 1521.22,519.4 1525.38,519.868 1529.54,520.361 1533.69,520.879 1537.85,521.422 
  1542.01,521.989 1546.17,522.58 1550.33,523.195 1554.48,523.834 1558.64,524.494 1562.8,525.176 1566.96,525.879 1571.11,526.603 1575.27,527.347 1579.43,528.111 
  1583.59,528.894 1587.74,529.693 1591.9,530.51 1596.06,531.343 1600.22,532.192 1604.38,533.057 1608.53,533.936 1612.69,534.827 1616.85,535.73 1621.01,536.645 
  1625.16,537.57 1629.32,538.505 1633.48,539.45 1637.64,540.402 1641.79,541.36 1645.95,542.325 1650.11,543.294 1654.27,544.268 1658.43,545.245 1662.58,546.223 
  1666.74,547.203 1670.9,548.183 1675.06,549.162 1679.21,550.139 1683.37,551.113 1687.53,552.084 1691.69,553.05 1695.84,554.01 1700,554.963 1704.16,555.909 
  1708.32,556.845 1712.47,557.773 1716.63,558.689 1720.79,559.595 1724.95,560.487 1729.11,561.367 1733.26,562.232 1737.42,563.081 1741.58,563.915 1745.74,564.732 
  1749.89,565.531 1754.05,566.311 1758.21,567.072 1762.37,567.812 1766.52,568.532 1770.68,569.229 1774.84,569.904 1779,570.555 1783.16,571.182 1787.31,571.784 
  1791.47,572.361 1795.63,572.911 1799.79,573.435 1803.94,573.93 1808.1,574.398 1812.26,574.836 1816.42,575.245 1820.57,575.625 1824.73,575.974 1828.89,576.292 
  1833.05,576.578 1837.2,576.831 1841.36,577.053 1845.52,577.242 1849.68,577.398 1853.84,577.519 1857.99,577.607 1862.15,577.659 1866.31,577.676 1870.47,577.667 
  1874.62,577.644 1878.78,577.607 1882.94,577.555 1887.1,577.488 1891.25,577.406 1895.41,577.31 1899.57,577.199 1903.73,577.073 1907.89,576.932 1912.04,576.777 
  1916.2,576.606 1920.36,576.421 1924.52,576.221 1928.67,576.007 1932.83,575.778 1936.99,575.535 1941.15,575.278 1945.3,575.007 1949.46,574.722 1953.62,574.424 
  1957.78,574.112 1961.93,573.787 1966.09,573.449 1970.25,573.098 1974.41,572.735 1978.57,572.36 1982.72,571.973 1986.88,571.574 1991.04,571.164 1995.2,570.743 
  1999.35,570.312 2003.51,569.871 2007.67,569.42 2011.83,568.959 2015.98,568.49 2020.14,568.012 2024.3,567.526 2028.46,567.033 2032.62,566.533 2036.77,566.025 
  2040.93,565.512 2045.09,564.993 2049.25,564.469 2053.4,563.94 2057.56,563.407 2061.72,562.87 2065.88,562.331 2070.03,561.788 2074.19,561.244 2078.35,560.698 
  2082.51,560.151 2086.67,559.603 2090.82,559.056 2094.98,558.509 2099.14,557.964 2103.3,557.42 2107.45,556.878 2111.61,556.34 2115.77,555.805 2119.93,555.273 
  2124.08,554.746 2128.24,554.225 2132.4,553.708 2136.56,553.198 2140.71,552.695 2144.87,552.199 2149.03,551.71 2153.19,551.229 2157.35,550.757 2161.5,550.295 
  2165.66,549.842 2169.82,549.4 2173.98,548.968 2178.13,548.548 2182.29,548.139 2186.45,547.743 2190.61,547.359 2194.76,546.988 2198.92,546.631 2203.08,546.287 
  2207.24,545.959 2211.4,545.645 2215.55,545.346 2219.71,545.064 2223.87,544.797 2228.03,544.547 2232.18,544.313 2236.34,544.096 2240.5,543.897 2244.66,543.716 
  2248.81,543.553 2252.97,543.408 2257.13,543.283 2261.29,543.176 2265.44,543.089 2269.6,543.021 2273.76,542.973 2277.92,542.945 2282.08,542.937 2286.23,542.937 
  2290.39,542.937 
  "/>
<polyline clip-path="url(#clip982)" style="stroke:#e26f46; stroke-linecap:round; stroke-linejoin:round; stroke-width:4; stroke-opacity:1; fill:none" points="
  211.556,691.662 215.714,685.736 219.871,679.768 224.029,673.765 228.187,667.74 232.344,661.699 236.502,655.65 240.66,649.606 244.817,643.573 248.975,637.561 
  253.133,631.575 257.29,625.626 261.448,619.722 265.606,613.871 269.763,608.082 273.921,602.36 278.079,596.714 282.236,591.151 286.394,585.679 290.552,580.302 
  294.709,575.029 298.867,569.867 303.025,564.818 307.182,559.891 311.34,555.092 315.498,550.423 319.655,545.89 323.813,541.498 327.971,537.253 332.128,533.16 
  336.286,529.226 340.444,525.453 344.601,521.839 348.759,518.393 352.917,515.119 357.074,512.022 361.232,509.105 365.39,506.373 369.547,503.824 373.705,501.46 
  377.863,499.287 382.02,497.306 386.178,495.52 390.336,493.931 394.493,492.542 398.651,491.35 402.809,490.358 406.966,489.569 411.124,488.982 415.282,488.598 
  419.439,488.418 423.597,488.442 427.755,488.669 431.912,489.099 436.07,489.732 440.228,490.568 444.385,491.604 448.543,492.841 452.701,494.277 456.858,495.911 
  461.016,497.742 465.174,499.766 469.331,501.982 473.489,504.389 477.647,506.983 481.804,509.763 485.962,512.726 490.12,515.868 494.277,519.188 498.435,522.68 
  502.593,526.343 506.75,530.174 510.908,534.168 515.066,538.323 519.223,542.633 523.381,547.095 527.539,551.704 531.696,556.458 535.854,561.352 540.012,566.383 
  544.17,571.545 548.327,576.833 552.485,582.243 556.643,587.77 560.8,593.414 564.958,599.168 569.116,605.027 573.273,610.986 577.431,617.042 581.589,623.188 
  585.746,629.423 589.904,635.748 594.062,642.154 598.219,648.639 602.377,655.198 606.535,661.827 610.692,668.523 614.85,675.283 619.008,682.101 623.165,688.975 
  627.323,694.65 631.481,699.566 635.638,704.512 639.796,709.483 643.954,714.472 648.111,719.471 652.269,724.473 656.427,729.472 660.584,734.46 664.742,739.431 
  668.9,744.378 673.057,749.293 677.215,754.169 681.373,759.001 685.53,763.784 689.688,768.51 693.846,773.173 698.003,777.764 702.161,782.281 706.319,786.722 
  710.476,791.076 714.634,795.339 718.792,799.504 722.949,803.566 727.107,807.528 731.265,811.379 735.422,815.115 739.58,818.73 743.738,822.22 747.895,825.589 
  752.053,828.826 756.211,831.929 760.368,834.892 764.526,837.712 768.684,840.393 772.841,842.928 776.999,845.312 781.157,847.542 785.314,849.615 789.472,851.536 
  793.63,853.299 797.787,854.9 801.945,856.337 806.103,857.608 810.26,858.717 814.418,859.661 818.576,860.436 822.733,861.042 826.891,861.476 831.049,861.743 
  835.206,861.842 839.364,861.771 843.522,861.528 847.679,861.112 851.837,860.529 855.995,859.779 860.152,858.86 864.31,857.773 868.468,856.516 872.625,855.095 
  876.783,853.513 880.941,851.767 885.098,849.86 889.256,847.791 893.414,845.565 897.571,843.186 901.729,840.655 905.887,837.971 910.044,835.137 914.202,832.157 
  918.36,829.036 922.517,825.776 926.675,822.377 930.833,818.842 934.99,815.174 939.148,811.382 943.306,807.464 947.463,803.424 951.621,799.265 955.779,794.99 
  959.936,790.606 964.094,786.114 968.252,781.518 972.41,776.82 976.567,772.025 980.725,767.136 984.883,762.158 989.04,757.092 993.198,751.944 997.356,746.716 
  1001.51,741.409 1005.67,736.029 1009.83,730.578 1013.99,725.059 1018.14,719.477 1022.3,713.838 1026.46,708.146 1030.62,702.404 1034.77,696.615 1038.93,691.088 
  1043.09,687.247 1047.25,683.381 1051.41,679.493 1055.56,675.589 1059.72,671.672 1063.88,667.75 1068.04,663.824 1072.19,659.902 1076.35,655.99 1080.51,652.09 
  1084.67,648.213 1088.82,644.358 1092.98,640.531 1097.14,636.739 1101.3,632.986 1105.45,629.276 1109.61,625.614 1113.77,622.007 1117.93,618.457 1122.09,614.97 
  1126.24,611.548 1130.4,608.197 1134.56,604.921 1138.72,601.724 1142.87,598.611 1147.03,595.582 1151.19,592.643 1155.35,589.797 1159.5,587.05 1163.66,584.401 
  1167.82,581.854 1171.98,579.414 1176.14,577.083 1180.29,574.864 1184.45,572.756 1188.61,570.765 1192.77,568.893 1196.92,567.142 1201.08,565.513 1205.24,564.005 
  1209.4,562.622 1213.55,561.367 1217.71,560.24 1221.87,559.245 1226.03,558.383 1230.19,557.656 1234.34,557.057 1238.5,556.591 1242.66,556.259 1246.82,556.063 
  1250.97,556.003 1255.13,556.08 1259.29,556.296 1263.45,556.648 1267.6,557.132 1271.76,557.751 1275.92,558.506 1280.08,559.395 1284.23,560.418 1288.39,561.573 
  1292.55,562.862 1296.71,564.28 1300.87,565.829 1305.02,567.505 1309.18,569.308 1313.34,571.236 1317.5,573.288 1321.65,575.461 1325.81,577.753 1329.97,580.164 
  1334.13,582.691 1338.28,585.331 1342.44,588.082 1346.6,590.943 1350.76,593.908 1354.92,596.978 1359.07,600.148 1363.23,603.419 1367.39,606.786 1371.55,610.248 
  1375.7,613.799 1379.86,617.438 1384.02,621.162 1388.18,624.966 1392.33,628.851 1396.49,632.816 1400.65,636.855 1404.81,640.966 1408.96,645.144 1413.12,649.388 
  1417.28,653.695 1421.44,658.06 1425.6,662.482 1429.75,666.958 1433.91,671.485 1438.07,676.058 1442.23,680.675 1446.38,685.333 1450.54,690.029 1454.7,693.428 
  1458.86,696.142 1463.01,698.873 1467.17,701.618 1471.33,704.375 1475.49,707.139 1479.65,709.91 1483.8,712.681 1487.96,715.45 1492.12,718.213 1496.28,720.968 
  1500.43,723.71 1504.59,726.437 1508.75,729.146 1512.91,731.831 1517.06,734.49 1521.22,737.12 1525.38,739.717 1529.54,742.278 1533.69,744.8 1537.85,747.28 
  1542.01,749.716 1546.17,752.103 1550.33,754.437 1554.48,756.717 1558.64,758.939 1562.8,761.105 1566.96,763.209 1571.11,765.247 1575.27,767.217 1579.43,769.116 
  1583.59,770.942 1587.74,772.698 1591.9,774.378 1596.06,775.979 1600.22,777.499 1604.38,778.936 1608.53,780.286 1612.69,781.557 1616.85,782.741 1621.01,783.836 
  1625.16,784.84 1629.32,785.752 1633.48,786.569 1637.64,787.298 1641.79,787.933 1645.95,788.474 1650.11,788.917 1654.27,789.263 1658.43,789.509 1662.58,789.662 
  1666.74,789.718 1670.9,789.677 1675.06,789.536 1679.21,789.296 1683.37,788.955 1687.53,788.518 1691.69,787.987 1695.84,787.358 1700,786.63 1704.16,785.805 
  1708.32,784.882 1712.47,783.864 1716.63,782.755 1720.79,781.553 1724.95,780.257 1729.11,778.868 1733.26,777.386 1737.42,775.814 1741.58,774.159 1745.74,772.416 
  1749.89,770.587 1754.05,768.673 1758.21,766.674 1762.37,764.593 1766.52,762.437 1770.68,760.203 1774.84,757.892 1779,755.507 1783.16,753.047 1787.31,750.516 
  1791.47,747.918 1795.63,745.254 1799.79,742.525 1803.94,739.732 1808.1,736.877 1812.26,733.962 1816.42,730.991 1820.57,727.965 1824.73,724.886 1828.89,721.756 
  1833.05,718.576 1837.2,715.348 1841.36,712.075 1845.52,708.757 1849.68,705.398 1853.84,701.998 1857.99,698.561 1862.15,695.087 1866.31,691.633 1870.47,690.183 
  1874.62,688.722 1878.78,687.252 1882.94,685.776 1887.1,684.293 1891.25,682.804 1895.41,681.313 1899.57,679.821 1903.73,678.327 1907.89,676.838 1912.04,675.352 
  1916.2,673.868 1920.36,672.396 1924.52,670.931 1928.67,669.473 1932.83,668.035 1936.99,666.61 1941.15,665.2 1945.3,663.806 1949.46,662.428 1953.62,661.073 
  1957.78,659.741 1961.93,658.432 1966.09,657.148 1970.25,655.89 1974.41,654.66 1978.57,653.46 1982.72,652.292 1986.88,651.157 1991.04,650.056 1995.2,648.992 
  1999.35,647.964 2003.51,646.974 2007.67,646.024 2011.83,645.116 2015.98,644.25 2020.14,643.427 2024.3,642.648 2028.46,641.914 2032.62,641.228 2036.77,640.589 
  2040.93,640 2045.09,639.457 2049.25,638.965 2053.4,638.524 2057.56,638.135 2061.72,637.798 2065.88,637.512 2070.03,637.28 2074.19,637.101 2078.35,636.976 
  2082.51,636.907 2086.67,636.891 2090.82,636.929 2094.98,637.022 2099.14,637.171 2103.3,637.376 2107.45,637.636 2111.61,637.949 2115.77,638.316 2119.93,638.738 
  2124.08,639.214 2128.24,639.745 2132.4,640.331 2136.56,640.972 2140.71,641.668 2144.87,642.418 2149.03,643.216 2153.19,644.066 2157.35,644.968 2161.5,645.921 
  2165.66,646.925 2169.82,647.979 2173.98,649.083 2178.13,650.237 2182.29,651.439 2186.45,652.686 2190.61,653.978 2194.76,655.315 2198.92,656.697 2203.08,658.121 
  2207.24,659.588 2211.4,661.096 2215.55,662.644 2219.71,664.231 2223.87,665.855 2228.03,667.517 2232.18,669.215 2236.34,670.947 2240.5,672.712 2244.66,674.508 
  2248.81,676.335 2252.97,678.191 2257.13,680.075 2261.29,681.985 2265.44,683.92 2269.6,685.879 2273.76,687.86 2277.92,689.863 2282.08,691.662 2286.23,691.662 
  2290.39,691.662 
  "/>
<polyline clip-path="url(#clip982)" style="stroke:#3da44d; stroke-linecap:round; stroke-linejoin:round; stroke-width:4; stroke-opacity:1; fill:none" points="
  211.556,101.686 215.714,96.6121 219.871,92.5599 224.029,89.5093 228.187,87.4464 232.344,86.3455 236.502,86.1857 240.66,86.9467 244.817,88.6024 248.975,91.1309 
  253.133,94.5079 257.29,98.7107 261.448,103.718 265.606,109.504 269.763,116.05 273.921,123.327 278.079,131.317 282.236,140.003 286.394,149.36 290.552,159.363 
  294.709,169.999 298.867,181.249 303.025,193.082 307.182,205.487 311.34,218.446 315.498,231.93 319.655,245.919 323.813,260.397 327.971,275.347 332.128,290.753 
  336.286,306.596 340.444,322.857 344.601,339.497 348.759,356.512 352.917,373.883 357.074,391.592 361.232,409.62 365.39,427.95 369.547,446.554 373.705,465.409 
  377.863,484.502 382.02,503.81 386.178,523.315 390.336,542.994 394.493,562.828 398.651,582.797 402.809,602.88 406.966,623.054 411.124,643.299 415.282,663.593 
  419.439,683.913 423.597,704.244 427.755,724.569 431.912,744.863 436.07,765.104 440.228,785.271 444.385,805.343 448.543,825.3 452.701,845.135 456.858,864.82 
  461.016,884.335 465.174,903.662 469.331,922.782 473.489,941.675 477.647,960.327 481.804,978.727 485.962,996.851 490.12,1014.68 494.277,1032.21 498.435,1049.41 
  502.593,1066.28 506.75,1082.8 510.908,1098.96 515.066,1114.75 519.223,1130.15 523.381,1145.15 527.539,1159.74 531.696,1173.92 535.854,1187.68 540.012,1201.02 
  544.17,1213.92 548.327,1226.38 552.485,1238.4 556.643,1249.98 560.8,1261.13 564.958,1271.84 569.116,1282.12 573.273,1291.98 577.431,1301.42 581.589,1310.47 
  585.746,1319.12 589.904,1327.42 594.062,1335.37 598.219,1343 602.377,1350.35 606.535,1357.45 610.692,1364.33 614.85,1371.06 619.008,1377.67 623.165,1384.24 
  627.323,1181.2 631.481,1184.94 635.638,1187.9 639.796,1190.1 643.954,1191.54 648.111,1192.23 652.269,1192.19 656.427,1191.41 660.584,1189.92 664.742,1187.74 
  668.9,1184.87 673.057,1181.32 677.215,1177.13 681.373,1172.29 685.53,1166.84 689.688,1160.79 693.846,1154.14 698.003,1146.91 702.161,1139.13 706.319,1130.81 
  710.476,1121.96 714.634,1112.6 718.792,1102.74 722.949,1092.39 727.107,1081.6 731.265,1070.36 735.422,1058.68 739.58,1046.58 743.738,1034.08 747.895,1021.21 
  752.053,1007.97 756.211,994.384 760.368,980.457 764.526,966.207 768.684,951.671 772.841,936.852 776.999,921.766 781.157,906.427 785.314,890.851 789.472,875.069 
  793.63,859.091 797.787,842.931 801.945,826.606 806.103,810.131 810.26,793.533 814.418,776.825 818.576,760.022 822.733,743.142 826.891,726.199 831.049,709.217 
  835.206,692.211 839.364,675.197 843.522,658.191 847.679,641.211 851.837,624.273 855.995,607.394 860.152,590.592 864.31,573.881 868.468,557.279 872.625,540.8 
  876.783,524.459 880.941,508.272 885.098,492.256 889.256,476.425 893.414,460.793 897.571,445.369 901.729,430.172 905.887,415.215 910.044,400.511 914.202,386.071 
  918.36,371.902 922.517,358.018 926.675,344.433 930.833,331.157 934.99,318.198 939.148,305.555 943.306,293.244 947.463,281.271 951.621,269.646 955.779,258.373 
  959.936,247.442 964.094,236.866 968.252,226.648 972.41,216.791 976.567,207.294 980.725,198.14 984.883,189.334 989.04,180.874 993.198,172.753 997.356,164.964 
  1001.51,157.48 1005.67,150.296 1009.83,143.398 1013.99,136.768 1018.14,130.388 1022.3,124.223 1026.46,118.248 1030.62,112.437 1034.77,106.758 1038.93,309.705 
  1043.09,306.509 1047.25,303.833 1051.41,301.703 1055.56,300.132 1059.72,299.112 1063.88,298.647 1068.04,298.727 1072.19,299.351 1076.35,300.51 1080.51,302.199 
  1084.67,304.409 1088.82,307.132 1092.98,310.361 1097.14,314.083 1101.3,318.293 1105.45,322.979 1109.61,328.129 1113.77,333.736 1117.93,339.786 1122.09,346.269 
  1126.24,353.171 1130.4,360.478 1134.56,368.184 1138.72,376.276 1142.87,384.745 1147.03,393.566 1151.19,402.736 1155.35,412.244 1159.5,422.08 1163.66,432.223 
  1167.82,442.66 1171.98,453.382 1176.14,464.378 1180.29,475.637 1184.45,487.132 1188.61,498.859 1192.77,510.806 1196.92,522.959 1201.08,535.302 1205.24,547.815 
  1209.4,560.491 1213.55,573.316 1217.71,586.277 1221.87,599.361 1226.03,612.555 1230.19,625.848 1234.34,639.215 1238.5,652.647 1242.66,666.133 1246.82,679.659 
  1250.97,693.211 1255.13,706.777 1259.29,720.343 1263.45,733.895 1267.6,747.419 1271.76,760.903 1275.92,774.333 1280.08,787.696 1284.23,800.979 1288.39,814.169 
  1292.55,827.252 1296.71,840.22 1300.87,853.065 1305.02,865.77 1309.18,878.323 1313.34,890.713 1317.5,902.928 1321.65,914.957 1325.81,926.789 1329.97,938.426 
  1334.13,949.853 1338.28,961.06 1342.44,972.038 1346.6,982.778 1350.76,993.274 1354.92,1003.52 1359.07,1013.5 1363.23,1023.23 1367.39,1032.7 1371.55,1041.9 
  1375.7,1050.82 1379.86,1059.47 1384.02,1067.84 1388.18,1075.93 1392.33,1083.74 1396.49,1091.28 1400.65,1098.55 1404.81,1105.55 1408.96,1112.28 1413.12,1118.75 
  1417.28,1124.96 1421.44,1130.93 1425.6,1136.67 1429.75,1142.18 1433.91,1147.48 1438.07,1152.57 1442.23,1157.49 1446.38,1162.24 1450.54,1166.84 1454.7,961.706 
  1458.86,963.803 1463.01,965.56 1467.17,966.979 1471.33,968.042 1475.49,968.747 1479.65,969.094 1483.8,969.08 1487.96,968.706 1492.12,967.974 1496.28,966.886 
  1500.43,965.446 1504.59,963.655 1508.75,961.517 1512.91,959.038 1517.06,956.219 1521.22,953.067 1525.38,949.588 1529.54,945.786 1533.69,941.671 1537.85,937.253 
  1542.01,932.534 1546.17,927.519 1550.33,922.214 1554.48,916.623 1558.64,910.76 1562.8,904.646 1566.96,898.274 1571.11,891.652 1575.27,884.785 1579.43,877.681 
  1583.59,870.35 1587.74,862.821 1591.9,855.087 1596.06,847.155 1600.22,839.033 1604.38,830.729 1608.53,822.251 1612.69,813.63 1616.85,804.86 1621.01,795.951 
  1625.16,786.91 1629.32,777.746 1633.48,768.469 1637.64,759.1 1641.79,749.644 1645.95,740.108 1650.11,730.501 1654.27,720.832 1658.43,711.11 1662.58,701.352 
  1666.74,691.567 1670.9,681.761 1675.06,671.944 1679.21,662.125 1683.37,652.314 1687.53,642.521 1691.69,632.758 1695.84,623.032 1700,613.352 1704.16,603.727 
  1708.32,594.165 1712.47,584.676 1716.63,575.268 1720.79,565.949 1724.95,556.728 1729.11,547.613 1733.26,538.612 1737.42,529.732 1741.58,520.977 1745.74,512.356 
  1749.89,503.878 1754.05,495.548 1758.21,487.374 1762.37,479.362 1766.52,471.508 1770.68,463.824 1774.84,456.315 1779,448.987 1783.16,441.844 1787.31,434.891 
  1791.47,428.119 1795.63,421.539 1799.79,415.154 1803.94,408.966 1808.1,402.978 1812.26,397.192 1816.42,391.597 1820.57,386.196 1824.73,380.993 1828.89,375.987 
  1833.05,371.176 1837.2,366.56 1841.36,362.126 1845.52,357.869 1849.68,353.789 1853.84,349.884 1857.99,346.147 1862.15,342.573 1866.31,547.431 1870.47,546.162 
  1874.62,545.048 1878.78,544.099 1882.94,543.321 1887.1,542.716 1891.25,542.279 1895.41,542.018 1899.57,541.933 1903.73,542.02 1907.89,542.287 1912.04,542.731 
  1916.2,543.35 1920.36,544.147 1924.52,545.12 1928.67,546.269 1932.83,547.591 1936.99,549.086 1941.15,550.753 1945.3,552.591 1949.46,554.599 1953.62,556.77 
  1957.78,559.104 1961.93,561.6 1966.09,564.256 1970.25,567.07 1974.41,570.038 1978.57,573.152 1982.72,576.412 1986.88,579.817 1991.04,583.363 1995.2,587.048 
  1999.35,590.858 2003.51,594.795 2007.67,598.857 2011.83,603.039 2015.98,607.337 2020.14,611.743 2024.3,616.251 2028.46,620.86 2032.62,625.565 2036.77,630.362 
  2040.93,635.245 2045.09,640.204 2049.25,645.237 2053.4,650.341 2057.56,655.511 2061.72,660.741 2065.88,666.021 2070.03,671.35 2074.19,676.721 2078.35,682.131 
  2082.51,687.574 2086.67,693.042 2090.82,698.531 2094.98,704.035 2099.14,709.551 2103.3,715.072 2107.45,720.594 2111.61,726.109 2115.77,731.613 2119.93,737.101 
  2124.08,742.568 2128.24,748.01 2132.4,753.422 2136.56,758.798 2140.71,764.135 2144.87,769.427 2149.03,774.669 2153.19,779.858 2157.35,784.988 2161.5,790.056 
  2165.66,795.056 2169.82,799.986 2173.98,804.84 2178.13,809.614 2182.29,814.306 2186.45,818.914 2190.61,823.433 2194.76,827.86 2198.92,832.19 2203.08,836.421 
  2207.24,840.55 2211.4,844.573 2215.55,848.487 2219.71,852.289 2223.87,855.982 2228.03,859.564 2232.18,863.031 2236.34,866.38 2240.5,869.609 2244.66,872.717 
  2248.81,875.701 2252.97,878.562 2257.13,881.296 2261.29,883.904 2265.44,886.388 2269.6,888.745 2273.76,890.976 2277.92,893.079 2282.08,691.662 2286.23,691.662 
  2290.39,691.662 
  "/>
<polyline clip-path="url(#clip982)" style="stroke:#c271d2; stroke-linecap:round; stroke-linejoin:round; stroke-width:4; stroke-opacity:1; fill:none" points="
  211.556,587.549 215.714,592.933 219.871,597.885 224.029,602.429 228.187,606.587 232.344,610.384 236.502,613.844 240.66,616.987 244.817,619.838 248.975,622.418 
  253.133,624.749 257.29,626.85 261.448,628.741 265.606,630.438 269.763,631.96 273.921,633.321 278.079,634.537 282.236,635.62 286.394,636.583 290.552,637.438 
  294.709,638.195 298.867,638.863 303.025,639.453 307.182,639.972 311.34,640.426 315.498,640.824 319.655,641.171 323.813,641.473 327.971,641.734 332.128,641.959 
  336.286,642.152 340.444,642.317 344.601,642.457 348.759,642.576 352.917,642.676 357.074,642.759 361.232,642.828 365.39,642.884 369.547,642.93 373.705,642.967 
  377.863,642.997 382.02,643.02 386.178,643.038 390.336,643.051 394.493,643.061 398.651,643.069 402.809,643.074 406.966,643.078 411.124,643.08 415.282,643.082 
  419.439,643.083 423.597,643.082 427.755,643.082 431.912,643.08 436.07,643.077 440.228,643.073 444.385,643.067 448.543,643.059 452.701,643.048 456.858,643.034 
  461.016,643.015 465.174,642.99 469.331,642.959 473.489,642.92 477.647,642.872 481.804,642.813 485.962,642.741 490.12,642.654 494.277,642.55 498.435,642.426 
  502.593,642.279 506.75,642.107 510.908,641.905 515.066,641.67 519.223,641.398 523.381,641.082 527.539,640.719 531.696,640.302 535.854,639.824 540.012,639.277 
  544.17,638.654 548.327,637.944 552.485,637.139 556.643,636.226 560.8,635.192 564.958,634.023 569.116,632.704 573.273,631.216 577.431,629.539 581.589,627.653 
  585.746,625.533 589.904,623.148 594.062,620.469 598.219,617.463 602.377,614.09 606.535,610.308 610.692,606.069 614.85,601.32 619.008,596.002 623.165,590.05 
  627.323,793 631.481,788.701 635.638,784.687 639.796,780.95 643.954,777.475 648.111,774.253 652.269,771.27 656.427,768.514 660.584,765.971 664.742,763.631 
  668.9,761.479 673.057,759.505 677.215,757.696 681.373,756.041 685.53,754.528 689.688,753.148 693.846,751.891 698.003,750.747 702.161,749.708 706.319,748.765 
  710.476,747.909 714.634,747.135 718.792,746.436 722.949,745.805 727.107,745.235 731.265,744.722 735.422,744.26 739.58,743.846 743.738,743.475 747.895,743.142 
  752.053,742.845 756.211,742.579 760.368,742.343 764.526,742.133 768.684,741.946 772.841,741.781 776.999,741.635 781.157,741.507 785.314,741.394 789.472,741.296 
  793.63,741.21 797.787,741.136 801.945,741.072 806.103,741.018 810.26,740.973 814.418,740.936 818.576,740.906 822.733,740.883 826.891,740.867 831.049,740.858 
  835.206,740.854 839.364,740.857 843.522,740.865 847.679,740.881 851.837,740.903 855.995,740.931 860.152,740.967 864.31,741.012 868.468,741.065 872.625,741.127 
  876.783,741.2 880.941,741.284 885.098,741.381 889.256,741.493 893.414,741.62 897.571,741.765 901.729,741.929 905.887,742.114 910.044,742.324 914.202,742.561 
  918.36,742.826 922.517,743.124 926.675,743.459 930.833,743.834 934.99,744.253 939.148,744.721 943.306,745.244 947.463,745.826 951.621,746.474 955.779,747.196 
  959.936,747.998 964.094,748.889 968.252,749.878 972.41,750.975 976.567,752.191 980.725,753.538 984.883,755.029 989.04,756.679 993.198,758.503 997.356,760.52 
  1001.51,762.75 1005.67,765.213 1009.83,767.933 1013.99,770.935 1018.14,774.249 1022.3,777.902 1026.46,781.927 1030.62,786.361 1034.77,791.243 1038.93,588.092 
  1043.09,591.606 1047.25,594.941 1051.41,598.102 1055.56,601.092 1059.72,603.918 1063.88,606.581 1068.04,609.089 1072.19,611.446 1076.35,613.658 1080.51,615.731 
  1084.67,617.67 1088.82,619.482 1092.98,621.174 1097.14,622.751 1101.3,624.22 1105.45,625.585 1109.61,626.854 1113.77,628.031 1117.93,629.122 1122.09,630.132 
  1126.24,631.067 1130.4,631.931 1134.56,632.729 1138.72,633.464 1142.87,634.142 1147.03,634.766 1151.19,635.34 1155.35,635.867 1159.5,636.351 1163.66,636.794 
  1167.82,637.2 1171.98,637.571 1176.14,637.909 1180.29,638.217 1184.45,638.498 1188.61,638.752 1192.77,638.982 1196.92,639.189 1201.08,639.376 1205.24,639.543 
  1209.4,639.691 1213.55,639.822 1217.71,639.937 1221.87,640.036 1226.03,640.12 1230.19,640.189 1234.34,640.246 1238.5,640.29 1242.66,640.32 1246.82,640.338 
  1250.97,640.344 1255.13,640.337 1259.29,640.317 1263.45,640.284 1267.6,640.239 1271.76,640.18 1275.92,640.108 1280.08,640.021 1284.23,639.919 1288.39,639.801 
  1292.55,639.666 1296.71,639.512 1300.87,639.34 1305.02,639.147 1309.18,638.932 1313.34,638.693 1317.5,638.428 1321.65,638.136 1325.81,637.813 1329.97,637.459 
  1334.13,637.069 1338.28,636.641 1342.44,636.172 1346.6,635.658 1350.76,635.097 1354.92,634.483 1359.07,633.812 1363.23,633.08 1367.39,632.28 1371.55,631.408 
  1375.7,630.458 1379.86,629.424 1384.02,628.297 1388.18,627.071 1392.33,625.736 1396.49,624.284 1400.65,622.704 1404.81,620.987 1408.96,619.122 1413.12,617.095 
  1417.28,614.894 1421.44,612.505 1425.6,609.912 1429.75,607.099 1433.91,604.049 1438.07,600.743 1442.23,597.161 1446.38,593.281 1450.54,589.081 1454.7,794.121 
  1458.86,791.661 1463.01,789.287 1467.17,786.999 1471.33,784.795 1475.49,782.676 1479.65,780.642 1483.8,778.691 1487.96,776.825 1492.12,775.04 1496.28,773.335 
  1500.43,771.71 1504.59,770.161 1508.75,768.687 1512.91,767.286 1517.06,765.957 1521.22,764.696 1525.38,763.501 1529.54,762.371 1533.69,761.303 1537.85,760.294 
  1542.01,759.342 1546.17,758.445 1550.33,757.6 1554.48,756.806 1558.64,756.061 1562.8,755.36 1566.96,754.703 1571.11,754.089 1575.27,753.515 1579.43,752.979 
  1583.59,752.48 1587.74,752.014 1591.9,751.582 1596.06,751.181 1600.22,750.811 1604.38,750.47 1608.53,750.157 1612.69,749.869 1616.85,749.607 1621.01,749.369 
  1625.16,749.155 1629.32,748.964 1633.48,748.796 1637.64,748.648 1641.79,748.52 1645.95,748.412 1650.11,748.325 1654.27,748.257 1658.43,748.209 1662.58,748.18 
  1666.74,748.169 1670.9,748.177 1675.06,748.204 1679.21,748.251 1683.37,748.317 1687.53,748.403 1691.69,748.509 1695.84,748.635 1700,748.783 1704.16,748.953 
  1708.32,749.146 1712.47,749.363 1716.63,749.604 1720.79,749.87 1724.95,750.164 1729.11,750.486 1733.26,750.838 1737.42,751.222 1741.58,751.637 1745.74,752.088 
  1749.89,752.576 1754.05,753.102 1758.21,753.671 1762.37,754.284 1766.52,754.942 1770.68,755.649 1774.84,756.409 1779,757.224 1783.16,758.099 1787.31,759.037 
  1791.47,760.041 1795.63,761.115 1799.79,762.265 1803.94,763.495 1808.1,764.81 1812.26,766.216 1816.42,767.718 1820.57,769.322 1824.73,771.034 1828.89,772.861 
  1833.05,774.812 1837.2,776.892 1841.36,779.111 1845.52,781.478 1849.68,784 1853.84,786.689 1857.99,789.553 1862.15,792.605 1866.31,587.576 1870.47,588.938 
  1874.62,590.28 1878.78,591.601 1882.94,592.898 1887.1,594.171 1891.25,595.422 1895.41,596.645 1899.57,597.842 1903.73,599.014 1907.89,600.155 1912.04,601.269 
  1916.2,602.355 1920.36,603.409 1924.52,604.434 1928.67,605.431 1932.83,606.393 1936.99,607.325 1941.15,608.227 1945.3,609.1 1949.46,609.945 1953.62,610.758 
  1957.78,611.54 1961.93,612.293 1966.09,613.017 1970.25,613.713 1974.41,614.38 1978.57,615.017 1982.72,615.627 1986.88,616.209 1991.04,616.763 1995.2,617.29 
  1999.35,617.79 2003.51,618.265 2007.67,618.713 2011.83,619.135 2015.98,619.531 2020.14,619.903 2024.3,620.251 2028.46,620.575 2032.62,620.874 2036.77,621.149 
  2040.93,621.401 2045.09,621.631 2049.25,621.837 2053.4,622.021 2057.56,622.182 2061.72,622.321 2065.88,622.437 2070.03,622.532 2074.19,622.605 2078.35,622.656 
  2082.51,622.684 2086.67,622.69 2090.82,622.675 2094.98,622.637 2099.14,622.576 2103.3,622.493 2107.45,622.387 2111.61,622.259 2115.77,622.107 2119.93,621.932 
  2124.08,621.733 2128.24,621.509 2132.4,621.26 2136.56,620.985 2140.71,620.683 2144.87,620.353 2149.03,619.998 2153.19,619.615 2157.35,619.203 2161.5,618.761 
  2165.66,618.288 2169.82,617.783 2173.98,617.245 2178.13,616.673 2182.29,616.066 2186.45,615.423 2190.61,614.744 2194.76,614.026 2198.92,613.269 2203.08,612.47 
  2207.24,611.629 2211.4,610.744 2215.55,609.814 2219.71,608.837 2223.87,607.811 2228.03,606.734 2232.18,605.605 2236.34,604.423 2240.5,603.185 2244.66,601.889 
  2248.81,600.535 2252.97,599.119 2257.13,597.641 2261.29,596.098 2265.44,594.487 2269.6,592.808 2273.76,591.058 2277.92,589.235 2282.08,790.733 2286.23,790.733 
  2290.39,790.733 
  "/>
<path clip-path="url(#clip980)" d="
M1415.15 1377.32 L2279.3 1377.32 L2279.3 1118.12 L1415.15 1118.12  Z
  " fill="#ffffff" fill-rule="evenodd" fill-opacity="1"/>
<polyline clip-path="url(#clip980)" style="stroke:#000000; stroke-linecap:round; stroke-linejoin:round; stroke-width:4; stroke-opacity:1; fill:none" points="
  1415.15,1377.32 2279.3,1377.32 2279.3,1118.12 1415.15,1118.12 1415.15,1377.32 
  "/>
<polyline clip-path="url(#clip980)" style="stroke:#009af9; stroke-linecap:round; stroke-linejoin:round; stroke-width:4; stroke-opacity:1; fill:none" points="
  1439.64,1169.96 1586.54,1169.96 
  "/>
<path clip-path="url(#clip980)" d="M1631.37 1166.29 Q1632.97 1163.42 1635.19 1162.05 Q1637.42 1160.68 1640.42 1160.68 Q1644.48 1160.68 1646.67 1163.53 Q1648.87 1166.36 1648.87 1171.59 L1648.87 1187.24 L1644.59 1187.24 L1644.59 1171.73 Q1644.59 1168 1643.27 1166.19 Q1641.95 1164.39 1639.24 1164.39 Q1635.93 1164.39 1634.01 1166.59 Q1632.09 1168.79 1632.09 1172.58 L1632.09 1187.24 L1627.81 1187.24 L1627.81 1171.73 Q1627.81 1167.98 1626.49 1166.19 Q1625.17 1164.39 1622.42 1164.39 Q1619.15 1164.39 1617.23 1166.61 Q1615.31 1168.81 1615.31 1172.58 L1615.31 1187.24 L1611.03 1187.24 L1611.03 1161.31 L1615.31 1161.31 L1615.31 1165.34 Q1616.77 1162.95 1618.8 1161.82 Q1620.84 1160.68 1623.64 1160.68 Q1626.47 1160.68 1628.43 1162.12 Q1630.42 1163.55 1631.37 1166.29 Z" fill="#000000" fill-rule="evenodd" fill-opacity="1" /><path clip-path="url(#clip980)" d="M1669.15 1174.2 Q1663.99 1174.2 1662 1175.38 Q1660.01 1176.56 1660.01 1179.41 Q1660.01 1181.68 1661.49 1183.02 Q1662.99 1184.34 1665.56 1184.34 Q1669.11 1184.34 1671.23 1181.84 Q1673.39 1179.32 1673.39 1175.15 L1673.39 1174.2 L1669.15 1174.2 M1677.65 1172.44 L1677.65 1187.24 L1673.39 1187.24 L1673.39 1183.3 Q1671.93 1185.66 1669.75 1186.8 Q1667.58 1187.91 1664.43 1187.91 Q1660.45 1187.91 1658.09 1185.68 Q1655.75 1183.44 1655.75 1179.69 Q1655.75 1175.31 1658.67 1173.09 Q1661.61 1170.87 1667.42 1170.87 L1673.39 1170.87 L1673.39 1170.45 Q1673.39 1167.51 1671.44 1165.92 Q1669.52 1164.3 1666.03 1164.3 Q1663.8 1164.3 1661.7 1164.83 Q1659.59 1165.36 1657.65 1166.43 L1657.65 1162.49 Q1659.98 1161.59 1662.18 1161.15 Q1664.38 1160.68 1666.47 1160.68 Q1672.09 1160.68 1674.87 1163.6 Q1677.65 1166.52 1677.65 1172.44 Z" fill="#000000" fill-rule="evenodd" fill-opacity="1" /><path clip-path="url(#clip980)" d="M1702.95 1162.07 L1702.95 1166.1 Q1701.14 1165.18 1699.2 1164.71 Q1697.25 1164.25 1695.17 1164.25 Q1692 1164.25 1690.4 1165.22 Q1688.83 1166.19 1688.83 1168.14 Q1688.83 1169.62 1689.96 1170.48 Q1691.1 1171.31 1694.52 1172.07 L1695.98 1172.4 Q1700.52 1173.37 1702.42 1175.15 Q1704.34 1176.91 1704.34 1180.08 Q1704.34 1183.69 1701.47 1185.8 Q1698.62 1187.91 1693.62 1187.91 Q1691.54 1187.91 1689.27 1187.49 Q1687.02 1187.1 1684.52 1186.29 L1684.52 1181.89 Q1686.88 1183.11 1689.17 1183.74 Q1691.47 1184.34 1693.71 1184.34 Q1696.72 1184.34 1698.34 1183.32 Q1699.96 1182.28 1699.96 1180.41 Q1699.96 1178.67 1698.78 1177.74 Q1697.62 1176.82 1693.67 1175.96 L1692.18 1175.62 Q1688.23 1174.78 1686.47 1173.07 Q1684.71 1171.33 1684.71 1168.32 Q1684.71 1164.67 1687.3 1162.68 Q1689.89 1160.68 1694.66 1160.68 Q1697.02 1160.68 1699.11 1161.03 Q1701.19 1161.38 1702.95 1162.07 Z" fill="#000000" fill-rule="evenodd" fill-opacity="1" /><path clip-path="url(#clip980)" d="M1727.65 1162.07 L1727.65 1166.1 Q1725.84 1165.18 1723.9 1164.71 Q1721.95 1164.25 1719.87 1164.25 Q1716.7 1164.25 1715.1 1165.22 Q1713.53 1166.19 1713.53 1168.14 Q1713.53 1169.62 1714.66 1170.48 Q1715.79 1171.31 1719.22 1172.07 L1720.68 1172.4 Q1725.22 1173.37 1727.11 1175.15 Q1729.04 1176.91 1729.04 1180.08 Q1729.04 1183.69 1726.17 1185.8 Q1723.32 1187.91 1718.32 1187.91 Q1716.23 1187.91 1713.97 1187.49 Q1711.72 1187.1 1709.22 1186.29 L1709.22 1181.89 Q1711.58 1183.11 1713.87 1183.74 Q1716.17 1184.34 1718.41 1184.34 Q1721.42 1184.34 1723.04 1183.32 Q1724.66 1182.28 1724.66 1180.41 Q1724.66 1178.67 1723.48 1177.74 Q1722.32 1176.82 1718.36 1175.96 L1716.88 1175.62 Q1712.92 1174.78 1711.17 1173.07 Q1709.41 1171.33 1709.41 1168.32 Q1709.41 1164.67 1712 1162.68 Q1714.59 1160.68 1719.36 1160.68 Q1721.72 1160.68 1723.8 1161.03 Q1725.89 1161.38 1727.65 1162.07 Z" fill="#000000" fill-rule="evenodd" fill-opacity="1" /><path clip-path="url(#clip980)" d="M1736.42 1181.36 L1741.3 1181.36 L1741.3 1187.24 L1736.42 1187.24 L1736.42 1181.36 Z" fill="#000000" fill-rule="evenodd" fill-opacity="1" /><path clip-path="url(#clip980)" d="M1767.41 1162.07 L1767.41 1166.1 Q1765.61 1165.18 1763.66 1164.71 Q1761.72 1164.25 1759.64 1164.25 Q1756.47 1164.25 1754.87 1165.22 Q1753.29 1166.19 1753.29 1168.14 Q1753.29 1169.62 1754.43 1170.48 Q1755.56 1171.31 1758.99 1172.07 L1760.45 1172.4 Q1764.98 1173.37 1766.88 1175.15 Q1768.8 1176.91 1768.8 1180.08 Q1768.8 1183.69 1765.93 1185.8 Q1763.09 1187.91 1758.09 1187.91 Q1756 1187.91 1753.73 1187.49 Q1751.49 1187.1 1748.99 1186.29 L1748.99 1181.89 Q1751.35 1183.11 1753.64 1183.74 Q1755.93 1184.34 1758.18 1184.34 Q1761.19 1184.34 1762.81 1183.32 Q1764.43 1182.28 1764.43 1180.41 Q1764.43 1178.67 1763.25 1177.74 Q1762.09 1176.82 1758.13 1175.96 L1756.65 1175.62 Q1752.69 1174.78 1750.93 1173.07 Q1749.17 1171.33 1749.17 1168.32 Q1749.17 1164.67 1751.77 1162.68 Q1754.36 1160.68 1759.13 1160.68 Q1761.49 1160.68 1763.57 1161.03 Q1765.66 1161.38 1767.41 1162.07 Z" fill="#000000" fill-rule="evenodd" fill-opacity="1" /><path clip-path="url(#clip980)" d="M1800.89 1151.26 Q1797.79 1156.59 1796.28 1161.8 Q1794.78 1167 1794.78 1172.35 Q1794.78 1177.7 1796.28 1182.95 Q1797.81 1188.18 1800.89 1193.49 L1797.18 1193.49 Q1793.71 1188.05 1791.97 1182.79 Q1790.26 1177.54 1790.26 1172.35 Q1790.26 1167.19 1791.97 1161.96 Q1793.69 1156.73 1797.18 1151.26 L1800.89 1151.26 Z" fill="#000000" fill-rule="evenodd" fill-opacity="1" /><path clip-path="url(#clip980)" d="M1823.92 1168.6 Q1827.28 1169.32 1829.15 1171.59 Q1831.05 1173.86 1831.05 1177.19 Q1831.05 1182.3 1827.53 1185.11 Q1824.01 1187.91 1817.53 1187.91 Q1815.35 1187.91 1813.04 1187.47 Q1810.75 1187.05 1808.29 1186.19 L1808.29 1181.68 Q1810.24 1182.81 1812.55 1183.39 Q1814.87 1183.97 1817.39 1183.97 Q1821.79 1183.97 1824.08 1182.24 Q1826.4 1180.5 1826.4 1177.19 Q1826.4 1174.13 1824.24 1172.42 Q1822.11 1170.68 1818.29 1170.68 L1814.27 1170.68 L1814.27 1166.84 L1818.48 1166.84 Q1821.93 1166.84 1823.76 1165.48 Q1825.59 1164.09 1825.59 1161.49 Q1825.59 1158.83 1823.69 1157.42 Q1821.81 1155.99 1818.29 1155.99 Q1816.37 1155.99 1814.17 1156.4 Q1811.97 1156.82 1809.34 1157.7 L1809.34 1153.53 Q1812 1152.79 1814.31 1152.42 Q1816.65 1152.05 1818.71 1152.05 Q1824.03 1152.05 1827.14 1154.48 Q1830.24 1156.89 1830.24 1161.01 Q1830.24 1163.88 1828.6 1165.87 Q1826.95 1167.84 1823.92 1168.6 Z" fill="#000000" fill-rule="evenodd" fill-opacity="1" /><path clip-path="url(#clip980)" d="M1854.08 1168.6 Q1857.44 1169.32 1859.31 1171.59 Q1861.21 1173.86 1861.21 1177.19 Q1861.21 1182.3 1857.69 1185.11 Q1854.17 1187.91 1847.69 1187.91 Q1845.52 1187.91 1843.2 1187.47 Q1840.91 1187.05 1838.46 1186.19 L1838.46 1181.68 Q1840.4 1182.81 1842.72 1183.39 Q1845.03 1183.97 1847.55 1183.97 Q1851.95 1183.97 1854.24 1182.24 Q1856.56 1180.5 1856.56 1177.19 Q1856.56 1174.13 1854.41 1172.42 Q1852.28 1170.68 1848.46 1170.68 L1844.43 1170.68 L1844.43 1166.84 L1848.64 1166.84 Q1852.09 1166.84 1853.92 1165.48 Q1855.75 1164.09 1855.75 1161.49 Q1855.75 1158.83 1853.85 1157.42 Q1851.97 1155.99 1848.46 1155.99 Q1846.53 1155.99 1844.34 1156.4 Q1842.14 1156.82 1839.5 1157.7 L1839.5 1153.53 Q1842.16 1152.79 1844.47 1152.42 Q1846.81 1152.05 1848.87 1152.05 Q1854.2 1152.05 1857.3 1154.48 Q1860.4 1156.89 1860.4 1161.01 Q1860.4 1163.88 1858.76 1165.87 Q1857.11 1167.84 1854.08 1168.6 Z" fill="#000000" fill-rule="evenodd" fill-opacity="1" /><path clip-path="url(#clip980)" d="M1870.12 1152.68 L1888.48 1152.68 L1888.48 1156.61 L1874.41 1156.61 L1874.41 1165.08 Q1875.42 1164.74 1876.44 1164.57 Q1877.46 1164.39 1878.48 1164.39 Q1884.27 1164.39 1887.65 1167.56 Q1891.03 1170.73 1891.03 1176.15 Q1891.03 1181.73 1887.55 1184.83 Q1884.08 1187.91 1877.76 1187.91 Q1875.59 1187.91 1873.32 1187.54 Q1871.07 1187.17 1868.66 1186.43 L1868.66 1181.73 Q1870.75 1182.86 1872.97 1183.42 Q1875.19 1183.97 1877.67 1183.97 Q1881.67 1183.97 1884.01 1181.86 Q1886.35 1179.76 1886.35 1176.15 Q1886.35 1172.54 1884.01 1170.43 Q1881.67 1168.32 1877.67 1168.32 Q1875.79 1168.32 1873.92 1168.74 Q1872.07 1169.16 1870.12 1170.04 L1870.12 1152.68 Z" fill="#000000" fill-rule="evenodd" fill-opacity="1" /><path clip-path="url(#clip980)" d="M1900.28 1152.68 L1918.64 1152.68 L1918.64 1156.61 L1904.57 1156.61 L1904.57 1165.08 Q1905.59 1164.74 1906.6 1164.57 Q1907.62 1164.39 1908.64 1164.39 Q1914.43 1164.39 1917.81 1167.56 Q1921.19 1170.73 1921.19 1176.15 Q1921.19 1181.73 1917.72 1184.83 Q1914.24 1187.91 1907.92 1187.91 Q1905.75 1187.91 1903.48 1187.54 Q1901.23 1187.17 1898.83 1186.43 L1898.83 1181.73 Q1900.91 1182.86 1903.13 1183.42 Q1905.35 1183.97 1907.83 1183.97 Q1911.84 1183.97 1914.17 1181.86 Q1916.51 1179.76 1916.51 1176.15 Q1916.51 1172.54 1914.17 1170.43 Q1911.84 1168.32 1907.83 1168.32 Q1905.96 1168.32 1904.08 1168.74 Q1902.23 1169.16 1900.28 1170.04 L1900.28 1152.68 Z" fill="#000000" fill-rule="evenodd" fill-opacity="1" /><path clip-path="url(#clip980)" d="M1943.25 1156.75 L1931.44 1175.2 L1943.25 1175.2 L1943.25 1156.75 M1942.02 1152.68 L1947.9 1152.68 L1947.9 1175.2 L1952.83 1175.2 L1952.83 1179.09 L1947.9 1179.09 L1947.9 1187.24 L1943.25 1187.24 L1943.25 1179.09 L1927.65 1179.09 L1927.65 1174.57 L1942.02 1152.68 Z" fill="#000000" fill-rule="evenodd" fill-opacity="1" /><path clip-path="url(#clip980)" d="M1973.41 1156.75 L1961.6 1175.2 L1973.41 1175.2 L1973.41 1156.75 M1972.18 1152.68 L1978.06 1152.68 L1978.06 1175.2 L1982.99 1175.2 L1982.99 1179.09 L1978.06 1179.09 L1978.06 1187.24 L1973.41 1187.24 L1973.41 1179.09 L1957.81 1179.09 L1957.81 1174.57 L1972.18 1152.68 Z" fill="#000000" fill-rule="evenodd" fill-opacity="1" /><path clip-path="url(#clip980)" d="M2004.89 1168.6 Q2008.25 1169.32 2010.12 1171.59 Q2012.02 1173.86 2012.02 1177.19 Q2012.02 1182.3 2008.5 1185.11 Q2004.98 1187.91 1998.5 1187.91 Q1996.33 1187.91 1994.01 1187.47 Q1991.72 1187.05 1989.27 1186.19 L1989.27 1181.68 Q1991.21 1182.81 1993.52 1183.39 Q1995.84 1183.97 1998.36 1183.97 Q2002.76 1183.97 2005.05 1182.24 Q2007.37 1180.5 2007.37 1177.19 Q2007.37 1174.13 2005.21 1172.42 Q2003.08 1170.68 1999.27 1170.68 L1995.24 1170.68 L1995.24 1166.84 L1999.45 1166.84 Q2002.9 1166.84 2004.73 1165.48 Q2006.56 1164.09 2006.56 1161.49 Q2006.56 1158.83 2004.66 1157.42 Q2002.78 1155.99 1999.27 1155.99 Q1997.34 1155.99 1995.15 1156.4 Q1992.95 1156.82 1990.31 1157.7 L1990.31 1153.53 Q1992.97 1152.79 1995.28 1152.42 Q1997.62 1152.05 1999.68 1152.05 Q2005.01 1152.05 2008.11 1154.48 Q2011.21 1156.89 2011.21 1161.01 Q2011.21 1163.88 2009.57 1165.87 Q2007.92 1167.84 2004.89 1168.6 Z" fill="#000000" fill-rule="evenodd" fill-opacity="1" /><path clip-path="url(#clip980)" d="M2024.91 1183.3 L2041.23 1183.3 L2041.23 1187.24 L2019.29 1187.24 L2019.29 1183.3 Q2021.95 1180.55 2026.53 1175.92 Q2031.14 1171.26 2032.32 1169.92 Q2034.57 1167.4 2035.45 1165.66 Q2036.35 1163.9 2036.35 1162.21 Q2036.35 1159.46 2034.4 1157.72 Q2032.48 1155.99 2029.38 1155.99 Q2027.18 1155.99 2024.73 1156.75 Q2022.3 1157.51 2019.52 1159.06 L2019.52 1154.34 Q2022.34 1153.21 2024.8 1152.63 Q2027.25 1152.05 2029.29 1152.05 Q2034.66 1152.05 2037.85 1154.74 Q2041.05 1157.42 2041.05 1161.91 Q2041.05 1164.04 2040.24 1165.96 Q2039.45 1167.86 2037.34 1170.45 Q2036.77 1171.12 2033.66 1174.34 Q2030.56 1177.54 2024.91 1183.3 Z" fill="#000000" fill-rule="evenodd" fill-opacity="1" /><path clip-path="url(#clip980)" d="M2049.77 1151.26 L2053.48 1151.26 Q2056.95 1156.73 2058.66 1161.96 Q2060.4 1167.19 2060.4 1172.35 Q2060.4 1177.54 2058.66 1182.79 Q2056.95 1188.05 2053.48 1193.49 L2049.77 1193.49 Q2052.85 1188.18 2054.36 1182.95 Q2055.89 1177.7 2055.89 1172.35 Q2055.89 1167 2054.36 1161.8 Q2052.85 1156.59 2049.77 1151.26 Z" fill="#000000" fill-rule="evenodd" fill-opacity="1" /><polyline clip-path="url(#clip980)" style="stroke:#e26f46; stroke-linecap:round; stroke-linejoin:round; stroke-width:4; stroke-opacity:1; fill:none" points="
  1439.64,1221.8 1586.54,1221.8 
  "/>
<path clip-path="url(#clip980)" d="M1631.37 1218.13 Q1632.97 1215.26 1635.19 1213.89 Q1637.42 1212.52 1640.42 1212.52 Q1644.48 1212.52 1646.67 1215.37 Q1648.87 1218.2 1648.87 1223.43 L1648.87 1239.08 L1644.59 1239.08 L1644.59 1223.57 Q1644.59 1219.84 1643.27 1218.03 Q1641.95 1216.23 1639.24 1216.23 Q1635.93 1216.23 1634.01 1218.43 Q1632.09 1220.63 1632.09 1224.42 L1632.09 1239.08 L1627.81 1239.08 L1627.81 1223.57 Q1627.81 1219.82 1626.49 1218.03 Q1625.17 1216.23 1622.42 1216.23 Q1619.15 1216.23 1617.23 1218.45 Q1615.31 1220.65 1615.31 1224.42 L1615.31 1239.08 L1611.03 1239.08 L1611.03 1213.15 L1615.31 1213.15 L1615.31 1217.18 Q1616.77 1214.79 1618.8 1213.66 Q1620.84 1212.52 1623.64 1212.52 Q1626.47 1212.52 1628.43 1213.96 Q1630.42 1215.39 1631.37 1218.13 Z" fill="#000000" fill-rule="evenodd" fill-opacity="1" /><path clip-path="url(#clip980)" d="M1669.15 1226.04 Q1663.99 1226.04 1662 1227.22 Q1660.01 1228.4 1660.01 1231.25 Q1660.01 1233.52 1661.49 1234.86 Q1662.99 1236.18 1665.56 1236.18 Q1669.11 1236.18 1671.23 1233.68 Q1673.39 1231.16 1673.39 1226.99 L1673.39 1226.04 L1669.15 1226.04 M1677.65 1224.28 L1677.65 1239.08 L1673.39 1239.08 L1673.39 1235.14 Q1671.93 1237.5 1669.75 1238.64 Q1667.58 1239.75 1664.43 1239.75 Q1660.45 1239.75 1658.09 1237.52 Q1655.75 1235.28 1655.75 1231.53 Q1655.75 1227.15 1658.67 1224.93 Q1661.61 1222.71 1667.42 1222.71 L1673.39 1222.71 L1673.39 1222.29 Q1673.39 1219.35 1671.44 1217.76 Q1669.52 1216.14 1666.03 1216.14 Q1663.8 1216.14 1661.7 1216.67 Q1659.59 1217.2 1657.65 1218.27 L1657.65 1214.33 Q1659.98 1213.43 1662.18 1212.99 Q1664.38 1212.52 1666.47 1212.52 Q1672.09 1212.52 1674.87 1215.44 Q1677.65 1218.36 1677.65 1224.28 Z" fill="#000000" fill-rule="evenodd" fill-opacity="1" /><path clip-path="url(#clip980)" d="M1702.95 1213.91 L1702.95 1217.94 Q1701.14 1217.02 1699.2 1216.55 Q1697.25 1216.09 1695.17 1216.09 Q1692 1216.09 1690.4 1217.06 Q1688.83 1218.03 1688.83 1219.98 Q1688.83 1221.46 1689.96 1222.32 Q1691.1 1223.15 1694.52 1223.91 L1695.98 1224.24 Q1700.52 1225.21 1702.42 1226.99 Q1704.34 1228.75 1704.34 1231.92 Q1704.34 1235.53 1701.47 1237.64 Q1698.62 1239.75 1693.62 1239.75 Q1691.54 1239.75 1689.27 1239.33 Q1687.02 1238.94 1684.52 1238.13 L1684.52 1233.73 Q1686.88 1234.95 1689.17 1235.58 Q1691.47 1236.18 1693.71 1236.18 Q1696.72 1236.18 1698.34 1235.16 Q1699.96 1234.12 1699.96 1232.25 Q1699.96 1230.51 1698.78 1229.58 Q1697.62 1228.66 1693.67 1227.8 L1692.18 1227.46 Q1688.23 1226.62 1686.47 1224.91 Q1684.71 1223.17 1684.71 1220.16 Q1684.71 1216.51 1687.3 1214.52 Q1689.89 1212.52 1694.66 1212.52 Q1697.02 1212.52 1699.11 1212.87 Q1701.19 1213.22 1702.95 1213.91 Z" fill="#000000" fill-rule="evenodd" fill-opacity="1" /><path clip-path="url(#clip980)" d="M1727.65 1213.91 L1727.65 1217.94 Q1725.84 1217.02 1723.9 1216.55 Q1721.95 1216.09 1719.87 1216.09 Q1716.7 1216.09 1715.1 1217.06 Q1713.53 1218.03 1713.53 1219.98 Q1713.53 1221.46 1714.66 1222.32 Q1715.79 1223.15 1719.22 1223.91 L1720.68 1224.24 Q1725.22 1225.21 1727.11 1226.99 Q1729.04 1228.75 1729.04 1231.92 Q1729.04 1235.53 1726.17 1237.64 Q1723.32 1239.75 1718.32 1239.75 Q1716.23 1239.75 1713.97 1239.33 Q1711.72 1238.94 1709.22 1238.13 L1709.22 1233.73 Q1711.58 1234.95 1713.87 1235.58 Q1716.17 1236.18 1718.41 1236.18 Q1721.42 1236.18 1723.04 1235.16 Q1724.66 1234.12 1724.66 1232.25 Q1724.66 1230.51 1723.48 1229.58 Q1722.32 1228.66 1718.36 1227.8 L1716.88 1227.46 Q1712.92 1226.62 1711.17 1224.91 Q1709.41 1223.17 1709.41 1220.16 Q1709.41 1216.51 1712 1214.52 Q1714.59 1212.52 1719.36 1212.52 Q1721.72 1212.52 1723.8 1212.87 Q1725.89 1213.22 1727.65 1213.91 Z" fill="#000000" fill-rule="evenodd" fill-opacity="1" /><path clip-path="url(#clip980)" d="M1736.42 1233.2 L1741.3 1233.2 L1741.3 1239.08 L1736.42 1239.08 L1736.42 1233.2 Z" fill="#000000" fill-rule="evenodd" fill-opacity="1" /><path clip-path="url(#clip980)" d="M1747.83 1213.15 L1752.35 1213.15 L1760.45 1234.91 L1768.55 1213.15 L1773.06 1213.15 L1763.34 1239.08 L1757.55 1239.08 L1747.83 1213.15 Z" fill="#000000" fill-rule="evenodd" fill-opacity="1" /><path clip-path="url(#clip980)" d="M1804.24 1203.1 Q1801.14 1208.43 1799.64 1213.64 Q1798.13 1218.84 1798.13 1224.19 Q1798.13 1229.54 1799.64 1234.79 Q1801.16 1240.02 1804.24 1245.33 L1800.54 1245.33 Q1797.07 1239.89 1795.33 1234.63 Q1793.62 1229.38 1793.62 1224.19 Q1793.62 1219.03 1795.33 1213.8 Q1797.04 1208.57 1800.54 1203.1 L1804.24 1203.1 Z" fill="#000000" fill-rule="evenodd" fill-opacity="1" /><path clip-path="url(#clip980)" d="M1827.28 1220.44 Q1830.63 1221.16 1832.51 1223.43 Q1834.41 1225.7 1834.41 1229.03 Q1834.41 1234.14 1830.89 1236.95 Q1827.37 1239.75 1820.89 1239.75 Q1818.71 1239.75 1816.4 1239.31 Q1814.1 1238.89 1811.65 1238.03 L1811.65 1233.52 Q1813.6 1234.65 1815.91 1235.23 Q1818.22 1235.81 1820.75 1235.81 Q1825.15 1235.81 1827.44 1234.08 Q1829.75 1232.34 1829.75 1229.03 Q1829.75 1225.97 1827.6 1224.26 Q1825.47 1222.52 1821.65 1222.52 L1817.62 1222.52 L1817.62 1218.68 L1821.84 1218.68 Q1825.28 1218.68 1827.11 1217.32 Q1828.94 1215.93 1828.94 1213.33 Q1828.94 1210.67 1827.04 1209.26 Q1825.17 1207.83 1821.65 1207.83 Q1819.73 1207.83 1817.53 1208.24 Q1815.33 1208.66 1812.69 1209.54 L1812.69 1205.37 Q1815.35 1204.63 1817.67 1204.26 Q1820.01 1203.89 1822.07 1203.89 Q1827.39 1203.89 1830.49 1206.32 Q1833.6 1208.73 1833.6 1212.85 Q1833.6 1215.72 1831.95 1217.71 Q1830.31 1219.68 1827.28 1220.44 Z" fill="#000000" fill-rule="evenodd" fill-opacity="1" /><path clip-path="url(#clip980)" d="M1857.44 1220.44 Q1860.79 1221.16 1862.67 1223.43 Q1864.57 1225.7 1864.57 1229.03 Q1864.57 1234.14 1861.05 1236.95 Q1857.53 1239.75 1851.05 1239.75 Q1848.87 1239.75 1846.56 1239.31 Q1844.27 1238.89 1841.81 1238.03 L1841.81 1233.52 Q1843.76 1234.65 1846.07 1235.23 Q1848.39 1235.81 1850.91 1235.81 Q1855.31 1235.81 1857.6 1234.08 Q1859.91 1232.34 1859.91 1229.03 Q1859.91 1225.97 1857.76 1224.26 Q1855.63 1222.52 1851.81 1222.52 L1847.78 1222.52 L1847.78 1218.68 L1852 1218.68 Q1855.45 1218.68 1857.28 1217.32 Q1859.1 1215.93 1859.1 1213.33 Q1859.1 1210.67 1857.21 1209.26 Q1855.33 1207.83 1851.81 1207.83 Q1849.89 1207.83 1847.69 1208.24 Q1845.49 1208.66 1842.85 1209.54 L1842.85 1205.37 Q1845.52 1204.63 1847.83 1204.26 Q1850.17 1203.89 1852.23 1203.89 Q1857.55 1203.89 1860.66 1206.32 Q1863.76 1208.73 1863.76 1212.85 Q1863.76 1215.72 1862.11 1217.71 Q1860.47 1219.68 1857.44 1220.44 Z" fill="#000000" fill-rule="evenodd" fill-opacity="1" /><path clip-path="url(#clip980)" d="M1873.48 1204.52 L1891.84 1204.52 L1891.84 1208.45 L1877.76 1208.45 L1877.76 1216.92 Q1878.78 1216.58 1879.8 1216.41 Q1880.82 1216.23 1881.84 1216.23 Q1887.62 1216.23 1891 1219.4 Q1894.38 1222.57 1894.38 1227.99 Q1894.38 1233.57 1890.91 1236.67 Q1887.44 1239.75 1881.12 1239.75 Q1878.94 1239.75 1876.67 1239.38 Q1874.43 1239.01 1872.02 1238.27 L1872.02 1233.57 Q1874.1 1234.7 1876.33 1235.26 Q1878.55 1235.81 1881.03 1235.81 Q1885.03 1235.81 1887.37 1233.7 Q1889.71 1231.6 1889.71 1227.99 Q1889.71 1224.38 1887.37 1222.27 Q1885.03 1220.16 1881.03 1220.16 Q1879.15 1220.16 1877.28 1220.58 Q1875.42 1221 1873.48 1221.88 L1873.48 1204.52 Z" fill="#000000" fill-rule="evenodd" fill-opacity="1" /><path clip-path="url(#clip980)" d="M1903.64 1204.52 L1922 1204.52 L1922 1208.45 L1907.92 1208.45 L1907.92 1216.92 Q1908.94 1216.58 1909.96 1216.41 Q1910.98 1216.23 1912 1216.23 Q1917.78 1216.23 1921.16 1219.4 Q1924.54 1222.57 1924.54 1227.99 Q1924.54 1233.57 1921.07 1236.67 Q1917.6 1239.75 1911.28 1239.75 Q1909.1 1239.75 1906.84 1239.38 Q1904.59 1239.01 1902.18 1238.27 L1902.18 1233.57 Q1904.27 1234.7 1906.49 1235.26 Q1908.71 1235.81 1911.19 1235.81 Q1915.19 1235.81 1917.53 1233.7 Q1919.87 1231.6 1919.87 1227.99 Q1919.87 1224.38 1917.53 1222.27 Q1915.19 1220.16 1911.19 1220.16 Q1909.31 1220.16 1907.44 1220.58 Q1905.59 1221 1903.64 1221.88 L1903.64 1204.52 Z" fill="#000000" fill-rule="evenodd" fill-opacity="1" /><path clip-path="url(#clip980)" d="M1946.6 1208.59 L1934.8 1227.04 L1946.6 1227.04 L1946.6 1208.59 M1945.38 1204.52 L1951.26 1204.52 L1951.26 1227.04 L1956.19 1227.04 L1956.19 1230.93 L1951.26 1230.93 L1951.26 1239.08 L1946.6 1239.08 L1946.6 1230.93 L1931 1230.93 L1931 1226.41 L1945.38 1204.52 Z" fill="#000000" fill-rule="evenodd" fill-opacity="1" /><path clip-path="url(#clip980)" d="M1976.77 1208.59 L1964.96 1227.04 L1976.77 1227.04 L1976.77 1208.59 M1975.54 1204.52 L1981.42 1204.52 L1981.42 1227.04 L1986.35 1227.04 L1986.35 1230.93 L1981.42 1230.93 L1981.42 1239.08 L1976.77 1239.08 L1976.77 1230.93 L1961.16 1230.93 L1961.16 1226.41 L1975.54 1204.52 Z" fill="#000000" fill-rule="evenodd" fill-opacity="1" /><path clip-path="url(#clip980)" d="M2008.25 1220.44 Q2011.6 1221.16 2013.48 1223.43 Q2015.38 1225.7 2015.38 1229.03 Q2015.38 1234.14 2011.86 1236.95 Q2008.34 1239.75 2001.86 1239.75 Q1999.68 1239.75 1997.37 1239.31 Q1995.08 1238.89 1992.62 1238.03 L1992.62 1233.52 Q1994.57 1234.65 1996.88 1235.23 Q1999.2 1235.81 2001.72 1235.81 Q2006.12 1235.81 2008.41 1234.08 Q2010.72 1232.34 2010.72 1229.03 Q2010.72 1225.97 2008.57 1224.26 Q2006.44 1222.52 2002.62 1222.52 L1998.59 1222.52 L1998.59 1218.68 L2002.81 1218.68 Q2006.26 1218.68 2008.08 1217.32 Q2009.91 1215.93 2009.91 1213.33 Q2009.91 1210.67 2008.02 1209.26 Q2006.14 1207.83 2002.62 1207.83 Q2000.7 1207.83 1998.5 1208.24 Q1996.3 1208.66 1993.66 1209.54 L1993.66 1205.37 Q1996.33 1204.63 1998.64 1204.26 Q2000.98 1203.89 2003.04 1203.89 Q2008.36 1203.89 2011.46 1206.32 Q2014.57 1208.73 2014.57 1212.85 Q2014.57 1215.72 2012.92 1217.71 Q2011.28 1219.68 2008.25 1220.44 Z" fill="#000000" fill-rule="evenodd" fill-opacity="1" /><path clip-path="url(#clip980)" d="M2038.41 1220.44 Q2041.77 1221.16 2043.64 1223.43 Q2045.54 1225.7 2045.54 1229.03 Q2045.54 1234.14 2042.02 1236.95 Q2038.5 1239.75 2032.02 1239.75 Q2029.84 1239.75 2027.53 1239.31 Q2025.24 1238.89 2022.78 1238.03 L2022.78 1233.52 Q2024.73 1234.65 2027.04 1235.23 Q2029.36 1235.81 2031.88 1235.81 Q2036.28 1235.81 2038.57 1234.08 Q2040.89 1232.34 2040.89 1229.03 Q2040.89 1225.97 2038.73 1224.26 Q2036.6 1222.52 2032.78 1222.52 L2028.76 1222.52 L2028.76 1218.68 L2032.97 1218.68 Q2036.42 1218.68 2038.25 1217.32 Q2040.08 1215.93 2040.08 1213.33 Q2040.08 1210.67 2038.18 1209.26 Q2036.3 1207.83 2032.78 1207.83 Q2030.86 1207.83 2028.66 1208.24 Q2026.46 1208.66 2023.83 1209.54 L2023.83 1205.37 Q2026.49 1204.63 2028.8 1204.26 Q2031.14 1203.89 2033.2 1203.89 Q2038.52 1203.89 2041.63 1206.32 Q2044.73 1208.73 2044.73 1212.85 Q2044.73 1215.72 2043.08 1217.71 Q2041.44 1219.68 2038.41 1220.44 Z" fill="#000000" fill-rule="evenodd" fill-opacity="1" /><path clip-path="url(#clip980)" d="M2053.13 1203.1 L2056.83 1203.1 Q2060.31 1208.57 2062.02 1213.8 Q2063.76 1219.03 2063.76 1224.19 Q2063.76 1229.38 2062.02 1234.63 Q2060.31 1239.89 2056.83 1245.33 L2053.13 1245.33 Q2056.21 1240.02 2057.71 1234.79 Q2059.24 1229.54 2059.24 1224.19 Q2059.24 1218.84 2057.71 1213.64 Q2056.21 1208.43 2053.13 1203.1 Z" fill="#000000" fill-rule="evenodd" fill-opacity="1" /><polyline clip-path="url(#clip980)" style="stroke:#3da44d; stroke-linecap:round; stroke-linejoin:round; stroke-width:4; stroke-opacity:1; fill:none" points="
  1439.64,1273.64 1586.54,1273.64 
  "/>
<path clip-path="url(#clip980)" d="M1631.37 1269.97 Q1632.97 1267.1 1635.19 1265.73 Q1637.42 1264.36 1640.42 1264.36 Q1644.48 1264.36 1646.67 1267.21 Q1648.87 1270.04 1648.87 1275.27 L1648.87 1290.92 L1644.59 1290.92 L1644.59 1275.41 Q1644.59 1271.68 1643.27 1269.87 Q1641.95 1268.07 1639.24 1268.07 Q1635.93 1268.07 1634.01 1270.27 Q1632.09 1272.47 1632.09 1276.26 L1632.09 1290.92 L1627.81 1290.92 L1627.81 1275.41 Q1627.81 1271.66 1626.49 1269.87 Q1625.17 1268.07 1622.42 1268.07 Q1619.15 1268.07 1617.23 1270.29 Q1615.31 1272.49 1615.31 1276.26 L1615.31 1290.92 L1611.03 1290.92 L1611.03 1264.99 L1615.31 1264.99 L1615.31 1269.02 Q1616.77 1266.63 1618.8 1265.5 Q1620.84 1264.36 1623.64 1264.36 Q1626.47 1264.36 1628.43 1265.8 Q1630.42 1267.23 1631.37 1269.97 Z" fill="#000000" fill-rule="evenodd" fill-opacity="1" /><path clip-path="url(#clip980)" d="M1669.15 1277.88 Q1663.99 1277.88 1662 1279.06 Q1660.01 1280.24 1660.01 1283.09 Q1660.01 1285.36 1661.49 1286.7 Q1662.99 1288.02 1665.56 1288.02 Q1669.11 1288.02 1671.23 1285.52 Q1673.39 1283 1673.39 1278.83 L1673.39 1277.88 L1669.15 1277.88 M1677.65 1276.12 L1677.65 1290.92 L1673.39 1290.92 L1673.39 1286.98 Q1671.93 1289.34 1669.75 1290.48 Q1667.58 1291.59 1664.43 1291.59 Q1660.45 1291.59 1658.09 1289.36 Q1655.75 1287.12 1655.75 1283.37 Q1655.75 1278.99 1658.67 1276.77 Q1661.61 1274.55 1667.42 1274.55 L1673.39 1274.55 L1673.39 1274.13 Q1673.39 1271.19 1671.44 1269.6 Q1669.52 1267.98 1666.03 1267.98 Q1663.8 1267.98 1661.7 1268.51 Q1659.59 1269.04 1657.65 1270.11 L1657.65 1266.17 Q1659.98 1265.27 1662.18 1264.83 Q1664.38 1264.36 1666.47 1264.36 Q1672.09 1264.36 1674.87 1267.28 Q1677.65 1270.2 1677.65 1276.12 Z" fill="#000000" fill-rule="evenodd" fill-opacity="1" /><path clip-path="url(#clip980)" d="M1702.95 1265.75 L1702.95 1269.78 Q1701.14 1268.86 1699.2 1268.39 Q1697.25 1267.93 1695.17 1267.93 Q1692 1267.93 1690.4 1268.9 Q1688.83 1269.87 1688.83 1271.82 Q1688.83 1273.3 1689.96 1274.16 Q1691.1 1274.99 1694.52 1275.75 L1695.98 1276.08 Q1700.52 1277.05 1702.42 1278.83 Q1704.34 1280.59 1704.34 1283.76 Q1704.34 1287.37 1701.47 1289.48 Q1698.62 1291.59 1693.62 1291.59 Q1691.54 1291.59 1689.27 1291.17 Q1687.02 1290.78 1684.52 1289.97 L1684.52 1285.57 Q1686.88 1286.79 1689.17 1287.42 Q1691.47 1288.02 1693.71 1288.02 Q1696.72 1288.02 1698.34 1287 Q1699.96 1285.96 1699.96 1284.09 Q1699.96 1282.35 1698.78 1281.42 Q1697.62 1280.5 1693.67 1279.64 L1692.18 1279.3 Q1688.23 1278.46 1686.47 1276.75 Q1684.71 1275.01 1684.71 1272 Q1684.71 1268.35 1687.3 1266.36 Q1689.89 1264.36 1694.66 1264.36 Q1697.02 1264.36 1699.11 1264.71 Q1701.19 1265.06 1702.95 1265.75 Z" fill="#000000" fill-rule="evenodd" fill-opacity="1" /><path clip-path="url(#clip980)" d="M1727.65 1265.75 L1727.65 1269.78 Q1725.84 1268.86 1723.9 1268.39 Q1721.95 1267.93 1719.87 1267.93 Q1716.7 1267.93 1715.1 1268.9 Q1713.53 1269.87 1713.53 1271.82 Q1713.53 1273.3 1714.66 1274.16 Q1715.79 1274.99 1719.22 1275.75 L1720.68 1276.08 Q1725.22 1277.05 1727.11 1278.83 Q1729.04 1280.59 1729.04 1283.76 Q1729.04 1287.37 1726.17 1289.48 Q1723.32 1291.59 1718.32 1291.59 Q1716.23 1291.59 1713.97 1291.17 Q1711.72 1290.78 1709.22 1289.97 L1709.22 1285.57 Q1711.58 1286.79 1713.87 1287.42 Q1716.17 1288.02 1718.41 1288.02 Q1721.42 1288.02 1723.04 1287 Q1724.66 1285.96 1724.66 1284.09 Q1724.66 1282.35 1723.48 1281.42 Q1722.32 1280.5 1718.36 1279.64 L1716.88 1279.3 Q1712.92 1278.46 1711.17 1276.75 Q1709.41 1275.01 1709.41 1272 Q1709.41 1268.35 1712 1266.36 Q1714.59 1264.36 1719.36 1264.36 Q1721.72 1264.36 1723.8 1264.71 Q1725.89 1265.06 1727.65 1265.75 Z" fill="#000000" fill-rule="evenodd" fill-opacity="1" /><path clip-path="url(#clip980)" d="M1736.42 1285.04 L1741.3 1285.04 L1741.3 1290.92 L1736.42 1290.92 L1736.42 1285.04 Z" fill="#000000" fill-rule="evenodd" fill-opacity="1" /><path clip-path="url(#clip980)" d="M1762.67 1277.88 Q1757.51 1277.88 1755.52 1279.06 Q1753.53 1280.24 1753.53 1283.09 Q1753.53 1285.36 1755.01 1286.7 Q1756.51 1288.02 1759.08 1288.02 Q1762.62 1288.02 1764.75 1285.52 Q1766.91 1283 1766.91 1278.83 L1766.91 1277.88 L1762.67 1277.88 M1771.16 1276.12 L1771.16 1290.92 L1766.91 1290.92 L1766.91 1286.98 Q1765.45 1289.34 1763.27 1290.48 Q1761.1 1291.59 1757.95 1291.59 Q1753.97 1291.59 1751.6 1289.36 Q1749.27 1287.12 1749.27 1283.37 Q1749.27 1278.99 1752.18 1276.77 Q1755.12 1274.55 1760.93 1274.55 L1766.91 1274.55 L1766.91 1274.13 Q1766.91 1271.19 1764.96 1269.6 Q1763.04 1267.98 1759.54 1267.98 Q1757.32 1267.98 1755.22 1268.51 Q1753.11 1269.04 1751.16 1270.11 L1751.16 1266.17 Q1753.5 1265.27 1755.7 1264.83 Q1757.9 1264.36 1759.98 1264.36 Q1765.61 1264.36 1768.39 1267.28 Q1771.16 1270.2 1771.16 1276.12 Z" fill="#000000" fill-rule="evenodd" fill-opacity="1" /><path clip-path="url(#clip980)" d="M1799.64 1298.79 L1799.64 1302.1 L1775.01 1302.1 L1775.01 1298.79 L1799.64 1298.79 Z" fill="#000000" fill-rule="evenodd" fill-opacity="1" /><path clip-path="url(#clip980)" d="M1818.66 1268.97 Q1817.95 1268.55 1817.09 1268.37 Q1816.26 1268.16 1815.24 1268.16 Q1811.63 1268.16 1809.68 1270.52 Q1807.76 1272.86 1807.76 1277.26 L1807.76 1290.92 L1803.48 1290.92 L1803.48 1264.99 L1807.76 1264.99 L1807.76 1269.02 Q1809.1 1266.66 1811.26 1265.52 Q1813.41 1264.36 1816.49 1264.36 Q1816.93 1264.36 1817.46 1264.43 Q1817.99 1264.48 1818.64 1264.6 L1818.66 1268.97 Z" fill="#000000" fill-rule="evenodd" fill-opacity="1" /><path clip-path="url(#clip980)" d="M1844.27 1276.89 L1844.27 1278.97 L1824.68 1278.97 Q1824.96 1283.37 1827.32 1285.68 Q1829.71 1287.98 1833.94 1287.98 Q1836.4 1287.98 1838.69 1287.37 Q1841 1286.77 1843.27 1285.57 L1843.27 1289.6 Q1840.98 1290.57 1838.57 1291.08 Q1836.16 1291.59 1833.69 1291.59 Q1827.48 1291.59 1823.85 1287.98 Q1820.24 1284.36 1820.24 1278.21 Q1820.24 1271.84 1823.66 1268.11 Q1827.11 1264.36 1832.95 1264.36 Q1838.18 1264.36 1841.21 1267.74 Q1844.27 1271.1 1844.27 1276.89 M1840.01 1275.64 Q1839.96 1272.14 1838.04 1270.06 Q1836.14 1267.98 1832.99 1267.98 Q1829.43 1267.98 1827.28 1269.99 Q1825.15 1272 1824.82 1275.66 L1840.01 1275.64 Z" fill="#000000" fill-rule="evenodd" fill-opacity="1" /><path clip-path="url(#clip980)" d="M1851.26 1254.9 L1855.52 1254.9 L1855.52 1290.92 L1851.26 1290.92 L1851.26 1254.9 Z" fill="#000000" fill-rule="evenodd" fill-opacity="1" /><path clip-path="url(#clip980)" d="M1877.55 1254.9 L1877.55 1258.44 L1873.48 1258.44 Q1871.19 1258.44 1870.28 1259.36 Q1869.41 1260.29 1869.41 1262.7 L1869.41 1264.99 L1876.42 1264.99 L1876.42 1268.3 L1869.41 1268.3 L1869.41 1290.92 L1865.12 1290.92 L1865.12 1268.3 L1861.05 1268.3 L1861.05 1264.99 L1865.12 1264.99 L1865.12 1263.18 Q1865.12 1258.86 1867.14 1256.89 Q1869.15 1254.9 1873.53 1254.9 L1877.55 1254.9 Z" fill="#000000" fill-rule="evenodd" fill-opacity="1" /><path clip-path="url(#clip980)" d="M1896.14 1268.97 Q1895.42 1268.55 1894.57 1268.37 Q1893.73 1268.16 1892.72 1268.16 Q1889.1 1268.16 1887.16 1270.52 Q1885.24 1272.86 1885.24 1277.26 L1885.24 1290.92 L1880.96 1290.92 L1880.96 1264.99 L1885.24 1264.99 L1885.24 1269.02 Q1886.58 1266.66 1888.73 1265.52 Q1890.89 1264.36 1893.97 1264.36 Q1894.4 1264.36 1894.94 1264.43 Q1895.47 1264.48 1896.12 1264.6 L1896.14 1268.97 Z" fill="#000000" fill-rule="evenodd" fill-opacity="1" /><path clip-path="url(#clip980)" d="M1900.61 1264.99 L1904.87 1264.99 L1904.87 1290.92 L1900.61 1290.92 L1900.61 1264.99 M1900.61 1254.9 L1904.87 1254.9 L1904.87 1260.29 L1900.61 1260.29 L1900.61 1254.9 Z" fill="#000000" fill-rule="evenodd" fill-opacity="1" /><path clip-path="url(#clip980)" d="M1932.44 1265.98 L1932.44 1269.97 Q1930.63 1268.97 1928.8 1268.48 Q1927 1267.98 1925.15 1267.98 Q1921 1267.98 1918.71 1270.61 Q1916.42 1273.23 1916.42 1277.98 Q1916.42 1282.72 1918.71 1285.36 Q1921 1287.98 1925.15 1287.98 Q1927 1287.98 1928.8 1287.49 Q1930.63 1286.98 1932.44 1285.98 L1932.44 1289.92 Q1930.65 1290.75 1928.73 1291.17 Q1926.84 1291.59 1924.68 1291.59 Q1918.83 1291.59 1915.38 1287.91 Q1911.93 1284.23 1911.93 1277.98 Q1911.93 1271.63 1915.4 1268 Q1918.9 1264.36 1924.96 1264.36 Q1926.93 1264.36 1928.8 1264.78 Q1930.68 1265.17 1932.44 1265.98 Z" fill="#000000" fill-rule="evenodd" fill-opacity="1" /><path clip-path="url(#clip980)" d="M1965.15 1254.94 Q1962.04 1260.27 1960.54 1265.48 Q1959.03 1270.68 1959.03 1276.03 Q1959.03 1281.38 1960.54 1286.63 Q1962.07 1291.86 1965.15 1297.17 L1961.44 1297.17 Q1957.97 1291.73 1956.23 1286.47 Q1954.52 1281.22 1954.52 1276.03 Q1954.52 1270.87 1956.23 1265.64 Q1957.95 1260.41 1961.44 1254.94 L1965.15 1254.94 Z" fill="#000000" fill-rule="evenodd" fill-opacity="1" /><path clip-path="url(#clip980)" d="M1974.06 1256.36 L1992.41 1256.36 L1992.41 1260.29 L1978.34 1260.29 L1978.34 1268.76 Q1979.36 1268.42 1980.38 1268.25 Q1981.4 1268.07 1982.41 1268.07 Q1988.2 1268.07 1991.58 1271.24 Q1994.96 1274.41 1994.96 1279.83 Q1994.96 1285.41 1991.49 1288.51 Q1988.02 1291.59 1981.7 1291.59 Q1979.52 1291.59 1977.25 1291.22 Q1975.01 1290.85 1972.6 1290.11 L1972.6 1285.41 Q1974.68 1286.54 1976.9 1287.1 Q1979.13 1287.65 1981.6 1287.65 Q1985.61 1287.65 1987.95 1285.54 Q1990.28 1283.44 1990.28 1279.83 Q1990.28 1276.22 1987.95 1274.11 Q1985.61 1272 1981.6 1272 Q1979.73 1272 1977.85 1272.42 Q1976 1272.84 1974.06 1273.72 L1974.06 1256.36 Z" fill="#000000" fill-rule="evenodd" fill-opacity="1" /><path clip-path="url(#clip980)" d="M2014.17 1274.5 Q2010.84 1274.5 2008.92 1276.29 Q2007.02 1278.07 2007.02 1281.19 Q2007.02 1284.32 2008.92 1286.1 Q2010.84 1287.88 2014.17 1287.88 Q2017.51 1287.88 2019.43 1286.1 Q2021.35 1284.29 2021.35 1281.19 Q2021.35 1278.07 2019.43 1276.29 Q2017.53 1274.5 2014.17 1274.5 M2009.5 1272.51 Q2006.49 1271.77 2004.8 1269.71 Q2003.13 1267.65 2003.13 1264.69 Q2003.13 1260.55 2006.07 1258.14 Q2009.03 1255.73 2014.17 1255.73 Q2019.33 1255.73 2022.27 1258.14 Q2025.21 1260.55 2025.21 1264.69 Q2025.21 1267.65 2023.52 1269.71 Q2021.86 1271.77 2018.87 1272.51 Q2022.25 1273.3 2024.13 1275.59 Q2026.02 1277.88 2026.02 1281.19 Q2026.02 1286.22 2022.95 1288.9 Q2019.89 1291.59 2014.17 1291.59 Q2008.46 1291.59 2005.38 1288.9 Q2002.32 1286.22 2002.32 1281.19 Q2002.32 1277.88 2004.22 1275.59 Q2006.12 1273.3 2009.5 1272.51 M2007.78 1265.13 Q2007.78 1267.81 2009.45 1269.32 Q2011.14 1270.82 2014.17 1270.82 Q2017.18 1270.82 2018.87 1269.32 Q2020.58 1267.81 2020.58 1265.13 Q2020.58 1262.44 2018.87 1260.94 Q2017.18 1259.43 2014.17 1259.43 Q2011.14 1259.43 2009.45 1260.94 Q2007.78 1262.44 2007.78 1265.13 Z" fill="#000000" fill-rule="evenodd" fill-opacity="1" /><path clip-path="url(#clip980)" d="M2033.15 1256.36 L2055.38 1256.36 L2055.38 1258.35 L2042.83 1290.92 L2037.95 1290.92 L2049.75 1260.29 L2033.15 1260.29 L2033.15 1256.36 Z" fill="#000000" fill-rule="evenodd" fill-opacity="1" /><path clip-path="url(#clip980)" d="M2068.52 1286.98 L2084.84 1286.98 L2084.84 1290.92 L2062.9 1290.92 L2062.9 1286.98 Q2065.56 1284.23 2070.14 1279.6 Q2074.75 1274.94 2075.93 1273.6 Q2078.18 1271.08 2079.06 1269.34 Q2079.96 1267.58 2079.96 1265.89 Q2079.96 1263.14 2078.02 1261.4 Q2076.09 1259.67 2072.99 1259.67 Q2070.79 1259.67 2068.34 1260.43 Q2065.91 1261.19 2063.13 1262.74 L2063.13 1258.02 Q2065.95 1256.89 2068.41 1256.31 Q2070.86 1255.73 2072.9 1255.73 Q2078.27 1255.73 2081.46 1258.42 Q2084.66 1261.1 2084.66 1265.59 Q2084.66 1267.72 2083.85 1269.64 Q2083.06 1271.54 2080.95 1274.13 Q2080.38 1274.8 2077.27 1278.02 Q2074.17 1281.22 2068.52 1286.98 Z" fill="#000000" fill-rule="evenodd" fill-opacity="1" /><path clip-path="url(#clip980)" d="M2104.66 1259.43 Q2101.05 1259.43 2099.22 1263 Q2097.41 1266.54 2097.41 1273.67 Q2097.41 1280.78 2099.22 1284.34 Q2101.05 1287.88 2104.66 1287.88 Q2108.29 1287.88 2110.1 1284.34 Q2111.93 1280.78 2111.93 1273.67 Q2111.93 1266.54 2110.1 1263 Q2108.29 1259.43 2104.66 1259.43 M2104.66 1255.73 Q2110.47 1255.73 2113.52 1260.34 Q2116.6 1264.92 2116.6 1273.67 Q2116.6 1282.4 2113.52 1287 Q2110.47 1291.59 2104.66 1291.59 Q2098.85 1291.59 2095.77 1287 Q2092.71 1282.4 2092.71 1273.67 Q2092.71 1264.92 2095.77 1260.34 Q2098.85 1255.73 2104.66 1255.73 Z" fill="#000000" fill-rule="evenodd" fill-opacity="1" /><path clip-path="url(#clip980)" d="M2128.85 1286.98 L2145.17 1286.98 L2145.17 1290.92 L2123.22 1290.92 L2123.22 1286.98 Q2125.89 1284.23 2130.47 1279.6 Q2135.07 1274.94 2136.26 1273.6 Q2138.5 1271.08 2139.38 1269.34 Q2140.28 1267.58 2140.28 1265.89 Q2140.28 1263.14 2138.34 1261.4 Q2136.42 1259.67 2133.32 1259.67 Q2131.12 1259.67 2128.66 1260.43 Q2126.23 1261.19 2123.45 1262.74 L2123.45 1258.02 Q2126.28 1256.89 2128.73 1256.31 Q2131.19 1255.73 2133.22 1255.73 Q2138.59 1255.73 2141.79 1258.42 Q2144.98 1261.1 2144.98 1265.59 Q2144.98 1267.72 2144.17 1269.64 Q2143.39 1271.54 2141.28 1274.13 Q2140.7 1274.8 2137.6 1278.02 Q2134.5 1281.22 2128.85 1286.98 Z" fill="#000000" fill-rule="evenodd" fill-opacity="1" /><path clip-path="url(#clip980)" d="M2155.03 1256.36 L2173.38 1256.36 L2173.38 1260.29 L2159.31 1260.29 L2159.31 1268.76 Q2160.33 1268.42 2161.35 1268.25 Q2162.37 1268.07 2163.38 1268.07 Q2169.17 1268.07 2172.55 1271.24 Q2175.93 1274.41 2175.93 1279.83 Q2175.93 1285.41 2172.46 1288.51 Q2168.99 1291.59 2162.67 1291.59 Q2160.49 1291.59 2158.22 1291.22 Q2155.98 1290.85 2153.57 1290.11 L2153.57 1285.41 Q2155.65 1286.54 2157.88 1287.1 Q2160.1 1287.65 2162.57 1287.65 Q2166.58 1287.65 2168.92 1285.54 Q2171.26 1283.44 2171.26 1279.83 Q2171.26 1276.22 2168.92 1274.11 Q2166.58 1272 2162.57 1272 Q2160.7 1272 2158.82 1272.42 Q2156.97 1272.84 2155.03 1273.72 L2155.03 1256.36 Z" fill="#000000" fill-rule="evenodd" fill-opacity="1" /><path clip-path="url(#clip980)" d="M2195.72 1271.77 Q2192.57 1271.77 2190.72 1273.92 Q2188.89 1276.08 2188.89 1279.83 Q2188.89 1283.55 2190.72 1285.73 Q2192.57 1287.88 2195.72 1287.88 Q2198.87 1287.88 2200.7 1285.73 Q2202.55 1283.55 2202.55 1279.83 Q2202.55 1276.08 2200.7 1273.92 Q2198.87 1271.77 2195.72 1271.77 M2205.01 1257.12 L2205.01 1261.38 Q2203.25 1260.55 2201.44 1260.11 Q2199.66 1259.67 2197.9 1259.67 Q2193.27 1259.67 2190.82 1262.79 Q2188.38 1265.92 2188.04 1272.23 Q2189.4 1270.22 2191.46 1269.16 Q2193.52 1268.07 2196 1268.07 Q2201.21 1268.07 2204.22 1271.24 Q2207.25 1274.39 2207.25 1279.83 Q2207.25 1285.15 2204.1 1288.37 Q2200.95 1291.59 2195.72 1291.59 Q2189.73 1291.59 2186.56 1287 Q2183.38 1282.4 2183.38 1273.67 Q2183.38 1265.48 2187.27 1260.61 Q2191.16 1255.73 2197.71 1255.73 Q2199.47 1255.73 2201.26 1256.08 Q2203.06 1256.42 2205.01 1257.12 Z" fill="#000000" fill-rule="evenodd" fill-opacity="1" /><path clip-path="url(#clip980)" d="M2216.12 1286.98 L2223.76 1286.98 L2223.76 1260.61 L2215.44 1262.28 L2215.44 1258.02 L2223.71 1256.36 L2228.38 1256.36 L2228.38 1286.98 L2236.02 1286.98 L2236.02 1290.92 L2216.12 1290.92 L2216.12 1286.98 Z" fill="#000000" fill-rule="evenodd" fill-opacity="1" /><path clip-path="url(#clip980)" d="M2244.19 1254.94 L2247.9 1254.94 Q2251.37 1260.41 2253.08 1265.64 Q2254.82 1270.87 2254.82 1276.03 Q2254.82 1281.22 2253.08 1286.47 Q2251.37 1291.73 2247.9 1297.17 L2244.19 1297.17 Q2247.27 1291.86 2248.78 1286.63 Q2250.31 1281.38 2250.31 1276.03 Q2250.31 1270.68 2248.78 1265.48 Q2247.27 1260.27 2244.19 1254.94 Z" fill="#000000" fill-rule="evenodd" fill-opacity="1" /><polyline clip-path="url(#clip980)" style="stroke:#c271d2; stroke-linecap:round; stroke-linejoin:round; stroke-width:4; stroke-opacity:1; fill:none" points="
  1439.64,1325.48 1586.54,1325.48 
  "/>
<path clip-path="url(#clip980)" d="M1631.37 1321.81 Q1632.97 1318.94 1635.19 1317.57 Q1637.42 1316.2 1640.42 1316.2 Q1644.48 1316.2 1646.67 1319.05 Q1648.87 1321.88 1648.87 1327.11 L1648.87 1342.76 L1644.59 1342.76 L1644.59 1327.25 Q1644.59 1323.52 1643.27 1321.71 Q1641.95 1319.91 1639.24 1319.91 Q1635.93 1319.91 1634.01 1322.11 Q1632.09 1324.31 1632.09 1328.1 L1632.09 1342.76 L1627.81 1342.76 L1627.81 1327.25 Q1627.81 1323.5 1626.49 1321.71 Q1625.17 1319.91 1622.42 1319.91 Q1619.15 1319.91 1617.23 1322.13 Q1615.31 1324.33 1615.31 1328.1 L1615.31 1342.76 L1611.03 1342.76 L1611.03 1316.83 L1615.31 1316.83 L1615.31 1320.86 Q1616.77 1318.47 1618.8 1317.34 Q1620.84 1316.2 1623.64 1316.2 Q1626.47 1316.2 1628.43 1317.64 Q1630.42 1319.07 1631.37 1321.81 Z" fill="#000000" fill-rule="evenodd" fill-opacity="1" /><path clip-path="url(#clip980)" d="M1669.15 1329.72 Q1663.99 1329.72 1662 1330.9 Q1660.01 1332.08 1660.01 1334.93 Q1660.01 1337.2 1661.49 1338.54 Q1662.99 1339.86 1665.56 1339.86 Q1669.11 1339.86 1671.23 1337.36 Q1673.39 1334.84 1673.39 1330.67 L1673.39 1329.72 L1669.15 1329.72 M1677.65 1327.96 L1677.65 1342.76 L1673.39 1342.76 L1673.39 1338.82 Q1671.93 1341.18 1669.75 1342.32 Q1667.58 1343.43 1664.43 1343.43 Q1660.45 1343.43 1658.09 1341.2 Q1655.75 1338.96 1655.75 1335.21 Q1655.75 1330.83 1658.67 1328.61 Q1661.61 1326.39 1667.42 1326.39 L1673.39 1326.39 L1673.39 1325.97 Q1673.39 1323.03 1671.44 1321.44 Q1669.52 1319.82 1666.03 1319.82 Q1663.8 1319.82 1661.7 1320.35 Q1659.59 1320.88 1657.65 1321.95 L1657.65 1318.01 Q1659.98 1317.11 1662.18 1316.67 Q1664.38 1316.2 1666.47 1316.2 Q1672.09 1316.2 1674.87 1319.12 Q1677.65 1322.04 1677.65 1327.96 Z" fill="#000000" fill-rule="evenodd" fill-opacity="1" /><path clip-path="url(#clip980)" d="M1702.95 1317.59 L1702.95 1321.62 Q1701.14 1320.7 1699.2 1320.23 Q1697.25 1319.77 1695.17 1319.77 Q1692 1319.77 1690.4 1320.74 Q1688.83 1321.71 1688.83 1323.66 Q1688.83 1325.14 1689.96 1326 Q1691.1 1326.83 1694.52 1327.59 L1695.98 1327.92 Q1700.52 1328.89 1702.42 1330.67 Q1704.34 1332.43 1704.34 1335.6 Q1704.34 1339.21 1701.47 1341.32 Q1698.62 1343.43 1693.62 1343.43 Q1691.54 1343.43 1689.27 1343.01 Q1687.02 1342.62 1684.52 1341.81 L1684.52 1337.41 Q1686.88 1338.63 1689.17 1339.26 Q1691.47 1339.86 1693.71 1339.86 Q1696.72 1339.86 1698.34 1338.84 Q1699.96 1337.8 1699.96 1335.93 Q1699.96 1334.19 1698.78 1333.26 Q1697.62 1332.34 1693.67 1331.48 L1692.18 1331.14 Q1688.23 1330.3 1686.47 1328.59 Q1684.71 1326.85 1684.71 1323.84 Q1684.71 1320.19 1687.3 1318.2 Q1689.89 1316.2 1694.66 1316.2 Q1697.02 1316.2 1699.11 1316.55 Q1701.19 1316.9 1702.95 1317.59 Z" fill="#000000" fill-rule="evenodd" fill-opacity="1" /><path clip-path="url(#clip980)" d="M1727.65 1317.59 L1727.65 1321.62 Q1725.84 1320.7 1723.9 1320.23 Q1721.95 1319.77 1719.87 1319.77 Q1716.7 1319.77 1715.1 1320.74 Q1713.53 1321.71 1713.53 1323.66 Q1713.53 1325.14 1714.66 1326 Q1715.79 1326.83 1719.22 1327.59 L1720.68 1327.92 Q1725.22 1328.89 1727.11 1330.67 Q1729.04 1332.43 1729.04 1335.6 Q1729.04 1339.21 1726.17 1341.32 Q1723.32 1343.43 1718.32 1343.43 Q1716.23 1343.43 1713.97 1343.01 Q1711.72 1342.62 1709.22 1341.81 L1709.22 1337.41 Q1711.58 1338.63 1713.87 1339.26 Q1716.17 1339.86 1718.41 1339.86 Q1721.42 1339.86 1723.04 1338.84 Q1724.66 1337.8 1724.66 1335.93 Q1724.66 1334.19 1723.48 1333.26 Q1722.32 1332.34 1718.36 1331.48 L1716.88 1331.14 Q1712.92 1330.3 1711.17 1328.59 Q1709.41 1326.85 1709.41 1323.84 Q1709.41 1320.19 1712 1318.2 Q1714.59 1316.2 1719.36 1316.2 Q1721.72 1316.2 1723.8 1316.55 Q1725.89 1316.9 1727.65 1317.59 Z" fill="#000000" fill-rule="evenodd" fill-opacity="1" /><path clip-path="url(#clip980)" d="M1736.42 1336.88 L1741.3 1336.88 L1741.3 1342.76 L1736.42 1342.76 L1736.42 1336.88 Z" fill="#000000" fill-rule="evenodd" fill-opacity="1" /><path clip-path="url(#clip980)" d="M1764.01 1306.74 L1764.01 1310.28 L1759.94 1310.28 Q1757.65 1310.28 1756.74 1311.2 Q1755.86 1312.13 1755.86 1314.54 L1755.86 1316.83 L1762.88 1316.83 L1762.88 1320.14 L1755.86 1320.14 L1755.86 1342.76 L1751.58 1342.76 L1751.58 1320.14 L1747.51 1320.14 L1747.51 1316.83 L1751.58 1316.83 L1751.58 1315.02 Q1751.58 1310.7 1753.6 1308.73 Q1755.61 1306.74 1759.98 1306.74 L1764.01 1306.74 Z" fill="#000000" fill-rule="evenodd" fill-opacity="1" /><path clip-path="url(#clip980)" d="M1792.88 1306.78 Q1789.78 1312.11 1788.27 1317.32 Q1786.77 1322.52 1786.77 1327.87 Q1786.77 1333.22 1788.27 1338.47 Q1789.8 1343.7 1792.88 1349.01 L1789.17 1349.01 Q1785.7 1343.57 1783.97 1338.31 Q1782.25 1333.06 1782.25 1327.87 Q1782.25 1322.71 1783.97 1317.48 Q1785.68 1312.25 1789.17 1306.78 L1792.88 1306.78 Z" fill="#000000" fill-rule="evenodd" fill-opacity="1" /><path clip-path="url(#clip980)" d="M1812.32 1323.61 Q1809.17 1323.61 1807.32 1325.76 Q1805.49 1327.92 1805.49 1331.67 Q1805.49 1335.39 1807.32 1337.57 Q1809.17 1339.72 1812.32 1339.72 Q1815.47 1339.72 1817.3 1337.57 Q1819.15 1335.39 1819.15 1331.67 Q1819.15 1327.92 1817.3 1325.76 Q1815.47 1323.61 1812.32 1323.61 M1821.6 1308.96 L1821.6 1313.22 Q1819.85 1312.39 1818.04 1311.95 Q1816.26 1311.51 1814.5 1311.51 Q1809.87 1311.51 1807.41 1314.63 Q1804.98 1317.76 1804.64 1324.07 Q1806 1322.06 1808.06 1321 Q1810.12 1319.91 1812.6 1319.91 Q1817.81 1319.91 1820.82 1323.08 Q1823.85 1326.23 1823.85 1331.67 Q1823.85 1336.99 1820.7 1340.21 Q1817.55 1343.43 1812.32 1343.43 Q1806.33 1343.43 1803.16 1338.84 Q1799.98 1334.24 1799.98 1325.51 Q1799.98 1317.32 1803.87 1312.45 Q1807.76 1307.57 1814.31 1307.57 Q1816.07 1307.57 1817.85 1307.92 Q1819.66 1308.26 1821.6 1308.96 Z" fill="#000000" fill-rule="evenodd" fill-opacity="1" /><path clip-path="url(#clip980)" d="M1846.07 1324.12 Q1849.43 1324.84 1851.3 1327.11 Q1853.2 1329.38 1853.2 1332.71 Q1853.2 1337.82 1849.68 1340.63 Q1846.16 1343.43 1839.68 1343.43 Q1837.51 1343.43 1835.19 1342.99 Q1832.9 1342.57 1830.45 1341.71 L1830.45 1337.2 Q1832.39 1338.33 1834.71 1338.91 Q1837.02 1339.49 1839.54 1339.49 Q1843.94 1339.49 1846.23 1337.76 Q1848.55 1336.02 1848.55 1332.71 Q1848.55 1329.65 1846.4 1327.94 Q1844.27 1326.2 1840.45 1326.2 L1836.42 1326.2 L1836.42 1322.36 L1840.63 1322.36 Q1844.08 1322.36 1845.91 1321 Q1847.74 1319.61 1847.74 1317.01 Q1847.74 1314.35 1845.84 1312.94 Q1843.97 1311.51 1840.45 1311.51 Q1838.53 1311.51 1836.33 1311.92 Q1834.13 1312.34 1831.49 1313.22 L1831.49 1309.05 Q1834.15 1308.31 1836.47 1307.94 Q1838.8 1307.57 1840.86 1307.57 Q1846.19 1307.57 1849.29 1310 Q1852.39 1312.41 1852.39 1316.53 Q1852.39 1319.4 1850.75 1321.39 Q1849.1 1323.36 1846.07 1324.12 Z" fill="#000000" fill-rule="evenodd" fill-opacity="1" /><path clip-path="url(#clip980)" d="M1860.89 1308.2 L1883.11 1308.2 L1883.11 1310.19 L1870.56 1342.76 L1865.68 1342.76 L1877.48 1312.13 L1860.89 1312.13 L1860.89 1308.2 Z" fill="#000000" fill-rule="evenodd" fill-opacity="1" /><path clip-path="url(#clip980)" d="M1892.28 1308.2 L1910.63 1308.2 L1910.63 1312.13 L1896.56 1312.13 L1896.56 1320.6 Q1897.58 1320.26 1898.59 1320.09 Q1899.61 1319.91 1900.63 1319.91 Q1906.42 1319.91 1909.8 1323.08 Q1913.18 1326.25 1913.18 1331.67 Q1913.18 1337.25 1909.71 1340.35 Q1906.23 1343.43 1899.91 1343.43 Q1897.74 1343.43 1895.47 1343.06 Q1893.22 1342.69 1890.82 1341.95 L1890.82 1337.25 Q1892.9 1338.38 1895.12 1338.94 Q1897.34 1339.49 1899.82 1339.49 Q1903.83 1339.49 1906.16 1337.38 Q1908.5 1335.28 1908.5 1331.67 Q1908.5 1328.06 1906.16 1325.95 Q1903.83 1323.84 1899.82 1323.84 Q1897.95 1323.84 1896.07 1324.26 Q1894.22 1324.68 1892.28 1325.56 L1892.28 1308.2 Z" fill="#000000" fill-rule="evenodd" fill-opacity="1" /><path clip-path="url(#clip980)" d="M1936.56 1324.12 Q1939.91 1324.84 1941.79 1327.11 Q1943.69 1329.38 1943.69 1332.71 Q1943.69 1337.82 1940.17 1340.63 Q1936.65 1343.43 1930.17 1343.43 Q1927.99 1343.43 1925.68 1342.99 Q1923.39 1342.57 1920.93 1341.71 L1920.93 1337.2 Q1922.88 1338.33 1925.19 1338.91 Q1927.51 1339.49 1930.03 1339.49 Q1934.43 1339.49 1936.72 1337.76 Q1939.03 1336.02 1939.03 1332.71 Q1939.03 1329.65 1936.88 1327.94 Q1934.75 1326.2 1930.93 1326.2 L1926.9 1326.2 L1926.9 1322.36 L1931.12 1322.36 Q1934.57 1322.36 1936.4 1321 Q1938.22 1319.61 1938.22 1317.01 Q1938.22 1314.35 1936.33 1312.94 Q1934.45 1311.51 1930.93 1311.51 Q1929.01 1311.51 1926.81 1311.92 Q1924.61 1312.34 1921.97 1313.22 L1921.97 1309.05 Q1924.64 1308.31 1926.95 1307.94 Q1929.29 1307.57 1931.35 1307.57 Q1936.67 1307.57 1939.78 1310 Q1942.88 1312.41 1942.88 1316.53 Q1942.88 1319.4 1941.23 1321.39 Q1939.59 1323.36 1936.56 1324.12 Z" fill="#000000" fill-rule="evenodd" fill-opacity="1" /><path clip-path="url(#clip980)" d="M1965.4 1312.27 L1953.59 1330.72 L1965.4 1330.72 L1965.4 1312.27 M1964.17 1308.2 L1970.05 1308.2 L1970.05 1330.72 L1974.98 1330.72 L1974.98 1334.61 L1970.05 1334.61 L1970.05 1342.76 L1965.4 1342.76 L1965.4 1334.61 L1949.8 1334.61 L1949.8 1330.09 L1964.17 1308.2 Z" fill="#000000" fill-rule="evenodd" fill-opacity="1" /><path clip-path="url(#clip980)" d="M1986.74 1338.82 L2003.06 1338.82 L2003.06 1342.76 L1981.12 1342.76 L1981.12 1338.82 Q1983.78 1336.07 1988.36 1331.44 Q1992.97 1326.78 1994.15 1325.44 Q1996.4 1322.92 1997.27 1321.18 Q1998.18 1319.42 1998.18 1317.73 Q1998.18 1314.98 1996.23 1313.24 Q1994.31 1311.51 1991.21 1311.51 Q1989.01 1311.51 1986.56 1312.27 Q1984.13 1313.03 1981.35 1314.58 L1981.35 1309.86 Q1984.17 1308.73 1986.63 1308.15 Q1989.08 1307.57 1991.12 1307.57 Q1996.49 1307.57 1999.68 1310.26 Q2002.88 1312.94 2002.88 1317.43 Q2002.88 1319.56 2002.07 1321.48 Q2001.28 1323.38 1999.17 1325.97 Q1998.59 1326.64 1995.49 1329.86 Q1992.39 1333.06 1986.74 1338.82 Z" fill="#000000" fill-rule="evenodd" fill-opacity="1" /><path clip-path="url(#clip980)" d="M2013.69 1338.82 L2021.33 1338.82 L2021.33 1312.45 L2013.02 1314.12 L2013.02 1309.86 L2021.28 1308.2 L2025.96 1308.2 L2025.96 1338.82 L2033.59 1338.82 L2033.59 1342.76 L2013.69 1342.76 L2013.69 1338.82 Z" fill="#000000" fill-rule="evenodd" fill-opacity="1" /><path clip-path="url(#clip980)" d="M2043.85 1338.82 L2051.49 1338.82 L2051.49 1312.45 L2043.18 1314.12 L2043.18 1309.86 L2051.44 1308.2 L2056.12 1308.2 L2056.12 1338.82 L2063.76 1338.82 L2063.76 1342.76 L2043.85 1342.76 L2043.85 1338.82 Z" fill="#000000" fill-rule="evenodd" fill-opacity="1" /><path clip-path="url(#clip980)" d="M2071.93 1306.78 L2075.63 1306.78 Q2079.1 1312.25 2080.82 1317.48 Q2082.55 1322.71 2082.55 1327.87 Q2082.55 1333.06 2080.82 1338.31 Q2079.1 1343.57 2075.63 1349.01 L2071.93 1349.01 Q2075.01 1343.7 2076.51 1338.47 Q2078.04 1333.22 2078.04 1327.87 Q2078.04 1322.52 2076.51 1317.32 Q2075.01 1312.11 2071.93 1306.78 Z" fill="#000000" fill-rule="evenodd" fill-opacity="1" /></svg>
