<?xml version="1.0" encoding="utf-8"?>
<svg xmlns="http://www.w3.org/2000/svg" xmlns:xlink="http://www.w3.org/1999/xlink" width="600" height="400" viewBox="0 0 2400 1600">
<defs>
  <clipPath id="clip050">
    <rect x="0" y="0" width="2400" height="1600"/>
  </clipPath>
</defs>
<path clip-path="url(#clip050)" d="
M0 1600 L2400 1600 L2400 0 L0 0  Z
  " fill="#ffffff" fill-rule="evenodd" fill-opacity="1"/>
<defs>
  <clipPath id="clip051">
    <rect x="480" y="0" width="1681" height="1600"/>
  </clipPath>
</defs>
<path clip-path="url(#clip050)" d="
M148.867 1423.18 L2352.76 1423.18 L2352.76 47.2441 L148.867 47.2441  Z
  " fill="#ffffff" fill-rule="evenodd" fill-opacity="1"/>
<defs>
  <clipPath id="clip052">
    <rect x="148" y="47" width="2205" height="1377"/>
  </clipPath>
</defs>
<polyline clip-path="url(#clip052)" style="stroke:#000000; stroke-linecap:round; stroke-linejoin:round; stroke-width:2; stroke-opacity:0.1; fill:none" points="
  211.241,1423.18 211.241,47.2441 
  "/>
<polyline clip-path="url(#clip052)" style="stroke:#000000; stroke-linecap:round; stroke-linejoin:round; stroke-width:2; stroke-opacity:0.1; fill:none" points="
  627.069,1423.18 627.069,47.2441 
  "/>
<polyline clip-path="url(#clip052)" style="stroke:#000000; stroke-linecap:round; stroke-linejoin:round; stroke-width:2; stroke-opacity:0.1; fill:none" points="
  1042.9,1423.18 1042.9,47.2441 
  "/>
<polyline clip-path="url(#clip052)" style="stroke:#000000; stroke-linecap:round; stroke-linejoin:round; stroke-width:2; stroke-opacity:0.1; fill:none" points="
  1458.73,1423.18 1458.73,47.2441 
  "/>
<polyline clip-path="url(#clip052)" style="stroke:#000000; stroke-linecap:round; stroke-linejoin:round; stroke-width:2; stroke-opacity:0.1; fill:none" points="
  1874.55,1423.18 1874.55,47.2441 
  "/>
<polyline clip-path="url(#clip052)" style="stroke:#000000; stroke-linecap:round; stroke-linejoin:round; stroke-width:2; stroke-opacity:0.1; fill:none" points="
  2290.38,1423.18 2290.38,47.2441 
  "/>
<polyline clip-path="url(#clip050)" style="stroke:#000000; stroke-linecap:round; stroke-linejoin:round; stroke-width:4; stroke-opacity:1; fill:none" points="
  148.867,1423.18 2352.76,1423.18 
  "/>
<polyline clip-path="url(#clip050)" style="stroke:#000000; stroke-linecap:round; stroke-linejoin:round; stroke-width:4; stroke-opacity:1; fill:none" points="
  211.241,1423.18 211.241,1404.28 
  "/>
<polyline clip-path="url(#clip050)" style="stroke:#000000; stroke-linecap:round; stroke-linejoin:round; stroke-width:4; stroke-opacity:1; fill:none" points="
  627.069,1423.18 627.069,1404.28 
  "/>
<polyline clip-path="url(#clip050)" style="stroke:#000000; stroke-linecap:round; stroke-linejoin:round; stroke-width:4; stroke-opacity:1; fill:none" points="
  1042.9,1423.18 1042.9,1404.28 
  "/>
<polyline clip-path="url(#clip050)" style="stroke:#000000; stroke-linecap:round; stroke-linejoin:round; stroke-width:4; stroke-opacity:1; fill:none" points="
  1458.73,1423.18 1458.73,1404.28 
  "/>
<polyline clip-path="url(#clip050)" style="stroke:#000000; stroke-linecap:round; stroke-linejoin:round; stroke-width:4; stroke-opacity:1; fill:none" points="
  1874.55,1423.18 1874.55,1404.28 
  "/>
<polyline clip-path="url(#clip050)" style="stroke:#000000; stroke-linecap:round; stroke-linejoin:round; stroke-width:4; stroke-opacity:1; fill:none" points="
  2290.38,1423.18 2290.38,1404.28 
  "/>
<path clip-path="url(#clip050)" d="M211.241 1454.1 Q207.63 1454.1 205.801 1457.66 Q203.996 1461.2 203.996 1468.33 Q203.996 1475.44 205.801 1479.01 Q207.63 1482.55 211.241 1482.55 Q214.875 1482.55 216.681 1479.01 Q218.509 1475.44 218.509 1468.33 Q218.509 1461.2 216.681 1457.66 Q214.875 1454.1 211.241 1454.1 M211.241 1450.39 Q217.051 1450.39 220.107 1455 Q223.185 1459.58 223.185 1468.33 Q223.185 1477.06 220.107 1481.67 Q217.051 1486.25 211.241 1486.25 Q205.431 1486.25 202.352 1481.67 Q199.297 1477.06 199.297 1468.33 Q199.297 1459.58 202.352 1455 Q205.431 1450.39 211.241 1450.39 Z" fill="#000000" fill-rule="evenodd" fill-opacity="1" /><path clip-path="url(#clip050)" d="M617.451 1481.64 L625.09 1481.64 L625.09 1455.28 L616.78 1456.95 L616.78 1452.69 L625.044 1451.02 L629.72 1451.02 L629.72 1481.64 L637.358 1481.64 L637.358 1485.58 L617.451 1485.58 L617.451 1481.64 Z" fill="#000000" fill-rule="evenodd" fill-opacity="1" /><path clip-path="url(#clip050)" d="M1037.55 1481.64 L1053.87 1481.64 L1053.87 1485.58 L1031.93 1485.58 L1031.93 1481.64 Q1034.59 1478.89 1039.17 1474.26 Q1043.78 1469.61 1044.96 1468.27 Q1047.2 1465.74 1048.08 1464.01 Q1048.99 1462.25 1048.99 1460.56 Q1048.99 1457.8 1047.04 1456.07 Q1045.12 1454.33 1042.02 1454.33 Q1039.82 1454.33 1037.36 1455.09 Q1034.93 1455.86 1032.16 1457.41 L1032.16 1452.69 Q1034.98 1451.55 1037.43 1450.97 Q1039.89 1450.39 1041.93 1450.39 Q1047.3 1450.39 1050.49 1453.08 Q1053.68 1455.77 1053.68 1460.26 Q1053.68 1462.39 1052.87 1464.31 Q1052.09 1466.2 1049.98 1468.8 Q1049.4 1469.47 1046.3 1472.69 Q1043.2 1475.88 1037.55 1481.64 Z" fill="#000000" fill-rule="evenodd" fill-opacity="1" /><path clip-path="url(#clip050)" d="M1462.97 1466.95 Q1466.33 1467.66 1468.2 1469.93 Q1470.1 1472.2 1470.1 1475.53 Q1470.1 1480.65 1466.58 1483.45 Q1463.07 1486.25 1456.58 1486.25 Q1454.41 1486.25 1452.09 1485.81 Q1449.8 1485.39 1447.35 1484.54 L1447.35 1480.02 Q1449.29 1481.16 1451.61 1481.74 Q1453.92 1482.32 1456.45 1482.32 Q1460.84 1482.32 1463.14 1480.58 Q1465.45 1478.84 1465.45 1475.53 Q1465.45 1472.48 1463.3 1470.77 Q1461.17 1469.03 1457.35 1469.03 L1453.32 1469.03 L1453.32 1465.19 L1457.53 1465.19 Q1460.98 1465.19 1462.81 1463.82 Q1464.64 1462.43 1464.64 1459.84 Q1464.64 1457.18 1462.74 1455.77 Q1460.87 1454.33 1457.35 1454.33 Q1455.43 1454.33 1453.23 1454.75 Q1451.03 1455.16 1448.39 1456.04 L1448.39 1451.88 Q1451.05 1451.14 1453.37 1450.77 Q1455.7 1450.39 1457.76 1450.39 Q1463.09 1450.39 1466.19 1452.83 Q1469.29 1455.23 1469.29 1459.35 Q1469.29 1462.22 1467.65 1464.21 Q1466.01 1466.18 1462.97 1466.95 Z" fill="#000000" fill-rule="evenodd" fill-opacity="1" /><path clip-path="url(#clip050)" d="M1877.56 1455.09 L1865.76 1473.54 L1877.56 1473.54 L1877.56 1455.09 M1876.34 1451.02 L1882.22 1451.02 L1882.22 1473.54 L1887.15 1473.54 L1887.15 1477.43 L1882.22 1477.43 L1882.22 1485.58 L1877.56 1485.58 L1877.56 1477.43 L1861.96 1477.43 L1861.96 1472.92 L1876.34 1451.02 Z" fill="#000000" fill-rule="evenodd" fill-opacity="1" /><path clip-path="url(#clip050)" d="M2280.66 1451.02 L2299.02 1451.02 L2299.02 1454.96 L2284.94 1454.96 L2284.94 1463.43 Q2285.96 1463.08 2286.98 1462.92 Q2288 1462.73 2289.02 1462.73 Q2294.8 1462.73 2298.18 1465.9 Q2301.56 1469.08 2301.56 1474.49 Q2301.56 1480.07 2298.09 1483.17 Q2294.62 1486.25 2288.3 1486.25 Q2286.12 1486.25 2283.85 1485.88 Q2281.61 1485.51 2279.2 1484.77 L2279.2 1480.07 Q2281.28 1481.2 2283.51 1481.76 Q2285.73 1482.32 2288.21 1482.32 Q2292.21 1482.32 2294.55 1480.21 Q2296.89 1478.1 2296.89 1474.49 Q2296.89 1470.88 2294.55 1468.77 Q2292.21 1466.67 2288.21 1466.67 Q2286.33 1466.67 2284.46 1467.08 Q2282.6 1467.5 2280.66 1468.38 L2280.66 1451.02 Z" fill="#000000" fill-rule="evenodd" fill-opacity="1" /><path clip-path="url(#clip050)" d="M1199.12 1522.27 L1199.12 1532.4 L1211.18 1532.4 L1211.18 1536.95 L1199.12 1536.95 L1199.12 1556.3 Q1199.12 1560.66 1200.3 1561.9 Q1201.51 1563.14 1205.17 1563.14 L1211.18 1563.14 L1211.18 1568.04 L1205.17 1568.04 Q1198.39 1568.04 1195.81 1565.53 Q1193.23 1562.98 1193.23 1556.3 L1193.23 1536.95 L1188.94 1536.95 L1188.94 1532.4 L1193.23 1532.4 L1193.23 1522.27 L1199.12 1522.27 Z" fill="#000000" fill-rule="evenodd" fill-opacity="1" /><path clip-path="url(#clip050)" d="M1239.07 1518.52 L1252.56 1518.52 L1252.56 1523.07 L1244.92 1523.07 L1244.92 1572.09 L1252.56 1572.09 L1252.56 1576.64 L1239.07 1576.64 L1239.07 1518.52 Z" fill="#000000" fill-rule="evenodd" fill-opacity="1" /><path clip-path="url(#clip050)" d="M1287.76 1533.45 L1287.76 1538.98 Q1285.28 1537.71 1282.61 1537.07 Q1279.93 1536.44 1277.07 1536.44 Q1272.71 1536.44 1270.51 1537.77 Q1268.35 1539.11 1268.35 1541.79 Q1268.35 1543.82 1269.91 1545 Q1271.47 1546.15 1276.18 1547.2 L1278.18 1547.64 Q1284.42 1548.98 1287.03 1551.43 Q1289.67 1553.85 1289.67 1558.21 Q1289.67 1563.17 1285.73 1566.07 Q1281.81 1568.97 1274.94 1568.97 Q1272.07 1568.97 1268.95 1568.39 Q1265.87 1567.85 1262.43 1566.74 L1262.43 1560.69 Q1265.68 1562.38 1268.83 1563.24 Q1271.98 1564.07 1275.06 1564.07 Q1279.2 1564.07 1281.43 1562.66 Q1283.66 1561.23 1283.66 1558.65 Q1283.66 1556.27 1282.04 1554.99 Q1280.44 1553.72 1275 1552.54 L1272.96 1552.07 Q1267.52 1550.92 1265.1 1548.56 Q1262.68 1546.18 1262.68 1542.04 Q1262.68 1537.01 1266.25 1534.27 Q1269.81 1531.54 1276.37 1531.54 Q1279.62 1531.54 1282.48 1532.01 Q1285.35 1532.49 1287.76 1533.45 Z" fill="#000000" fill-rule="evenodd" fill-opacity="1" /><path clip-path="url(#clip050)" d="M1312.69 1518.52 L1312.69 1576.64 L1299.19 1576.64 L1299.19 1572.09 L1306.8 1572.09 L1306.8 1523.07 L1299.19 1523.07 L1299.19 1518.52 L1312.69 1518.52 Z" fill="#000000" fill-rule="evenodd" fill-opacity="1" /><polyline clip-path="url(#clip052)" style="stroke:#000000; stroke-linecap:round; stroke-linejoin:round; stroke-width:2; stroke-opacity:0.1; fill:none" points="
  148.867,1278.88 2352.76,1278.88 
  "/>
<polyline clip-path="url(#clip052)" style="stroke:#000000; stroke-linecap:round; stroke-linejoin:round; stroke-width:2; stroke-opacity:0.1; fill:none" points="
  148.867,1015.75 2352.76,1015.75 
  "/>
<polyline clip-path="url(#clip052)" style="stroke:#000000; stroke-linecap:round; stroke-linejoin:round; stroke-width:2; stroke-opacity:0.1; fill:none" points="
  148.867,752.624 2352.76,752.624 
  "/>
<polyline clip-path="url(#clip052)" style="stroke:#000000; stroke-linecap:round; stroke-linejoin:round; stroke-width:2; stroke-opacity:0.1; fill:none" points="
  148.867,489.494 2352.76,489.494 
  "/>
<polyline clip-path="url(#clip052)" style="stroke:#000000; stroke-linecap:round; stroke-linejoin:round; stroke-width:2; stroke-opacity:0.1; fill:none" points="
  148.867,226.364 2352.76,226.364 
  "/>
<polyline clip-path="url(#clip050)" style="stroke:#000000; stroke-linecap:round; stroke-linejoin:round; stroke-width:4; stroke-opacity:1; fill:none" points="
  148.867,1423.18 148.867,47.2441 
  "/>
<polyline clip-path="url(#clip050)" style="stroke:#000000; stroke-linecap:round; stroke-linejoin:round; stroke-width:4; stroke-opacity:1; fill:none" points="
  148.867,1278.88 167.764,1278.88 
  "/>
<polyline clip-path="url(#clip050)" style="stroke:#000000; stroke-linecap:round; stroke-linejoin:round; stroke-width:4; stroke-opacity:1; fill:none" points="
  148.867,1015.75 167.764,1015.75 
  "/>
<polyline clip-path="url(#clip050)" style="stroke:#000000; stroke-linecap:round; stroke-linejoin:round; stroke-width:4; stroke-opacity:1; fill:none" points="
  148.867,752.624 167.764,752.624 
  "/>
<polyline clip-path="url(#clip050)" style="stroke:#000000; stroke-linecap:round; stroke-linejoin:round; stroke-width:4; stroke-opacity:1; fill:none" points="
  148.867,489.494 167.764,489.494 
  "/>
<polyline clip-path="url(#clip050)" style="stroke:#000000; stroke-linecap:round; stroke-linejoin:round; stroke-width:4; stroke-opacity:1; fill:none" points="
  148.867,226.364 167.764,226.364 
  "/>
<path clip-path="url(#clip050)" d="M50.9921 1279.34 L80.6679 1279.34 L80.6679 1283.27 L50.9921 1283.27 L50.9921 1279.34 Z" fill="#000000" fill-rule="evenodd" fill-opacity="1" /><path clip-path="url(#clip050)" d="M101.339 1277.02 Q98.1909 1277.02 96.3391 1279.17 Q94.5104 1281.33 94.5104 1285.08 Q94.5104 1288.8 96.3391 1290.98 Q98.1909 1293.13 101.339 1293.13 Q104.487 1293.13 106.316 1290.98 Q108.168 1288.8 108.168 1285.08 Q108.168 1281.33 106.316 1279.17 Q104.487 1277.02 101.339 1277.02 M110.621 1262.37 L110.621 1266.63 Q108.862 1265.79 107.057 1265.35 Q105.274 1264.91 103.515 1264.91 Q98.8854 1264.91 96.4317 1268.04 Q94.0012 1271.16 93.6539 1277.48 Q95.0197 1275.47 97.0798 1274.4 Q99.14 1273.32 101.617 1273.32 Q106.825 1273.32 109.834 1276.49 Q112.867 1279.64 112.867 1285.08 Q112.867 1290.4 109.719 1293.62 Q106.571 1296.84 101.339 1296.84 Q95.3437 1296.84 92.1725 1292.25 Q89.0012 1287.65 89.0012 1278.92 Q89.0012 1270.72 92.89 1265.86 Q96.7789 1260.98 103.33 1260.98 Q105.089 1260.98 106.871 1261.33 Q108.677 1261.67 110.621 1262.37 Z" fill="#000000" fill-rule="evenodd" fill-opacity="1" /><path clip-path="url(#clip050)" d="M51.8023 1016.21 L81.4781 1016.21 L81.4781 1020.14 L51.8023 1020.14 L51.8023 1016.21 Z" fill="#000000" fill-rule="evenodd" fill-opacity="1" /><path clip-path="url(#clip050)" d="M105.737 1014.4 Q109.094 1015.12 110.969 1017.39 Q112.867 1019.65 112.867 1022.99 Q112.867 1028.1 109.348 1030.9 Q105.83 1033.71 99.3483 1033.71 Q97.1724 1033.71 94.8576 1033.27 Q92.566 1032.85 90.1123 1031.99 L90.1123 1027.48 Q92.0567 1028.61 94.3715 1029.19 Q96.6863 1029.77 99.2095 1029.77 Q103.608 1029.77 105.899 1028.03 Q108.214 1026.3 108.214 1022.99 Q108.214 1019.93 106.061 1018.22 Q103.932 1016.48 100.112 1016.48 L96.0845 1016.48 L96.0845 1012.64 L100.297 1012.64 Q103.746 1012.64 105.575 1011.27 Q107.404 1009.89 107.404 1007.29 Q107.404 1004.63 105.506 1003.22 Q103.631 1001.78 100.112 1001.78 Q98.1909 1001.78 95.9919 1002.2 Q93.7928 1002.62 91.1539 1003.5 L91.1539 999.33 Q93.816 998.59 96.1308 998.219 Q98.4687 997.849 100.529 997.849 Q105.853 997.849 108.955 1000.28 Q112.057 1002.69 112.057 1006.81 Q112.057 1009.68 110.413 1011.67 Q108.77 1013.64 105.737 1014.4 Z" fill="#000000" fill-rule="evenodd" fill-opacity="1" /><path clip-path="url(#clip050)" d="M100.922 738.422 Q97.3113 738.422 95.4826 741.987 Q93.6771 745.529 93.6771 752.658 Q93.6771 759.765 95.4826 763.33 Q97.3113 766.871 100.922 766.871 Q104.557 766.871 106.362 763.33 Q108.191 759.765 108.191 752.658 Q108.191 745.529 106.362 741.987 Q104.557 738.422 100.922 738.422 M100.922 734.719 Q106.733 734.719 109.788 739.325 Q112.867 743.908 112.867 752.658 Q112.867 761.385 109.788 765.992 Q106.733 770.575 100.922 770.575 Q95.1123 770.575 92.0336 765.992 Q88.978 761.385 88.978 752.658 Q88.978 743.908 92.0336 739.325 Q95.1123 734.719 100.922 734.719 Z" fill="#000000" fill-rule="evenodd" fill-opacity="1" /><path clip-path="url(#clip050)" d="M105.737 488.139 Q109.094 488.857 110.969 491.126 Q112.867 493.394 112.867 496.727 Q112.867 501.843 109.348 504.644 Q105.83 507.445 99.3483 507.445 Q97.1724 507.445 94.8576 507.005 Q92.566 506.588 90.1123 505.732 L90.1123 501.218 Q92.0567 502.352 94.3715 502.931 Q96.6863 503.51 99.2095 503.51 Q103.608 503.51 105.899 501.774 Q108.214 500.038 108.214 496.727 Q108.214 493.672 106.061 491.959 Q103.932 490.223 100.112 490.223 L96.0845 490.223 L96.0845 486.38 L100.297 486.38 Q103.746 486.38 105.575 485.014 Q107.404 483.626 107.404 481.033 Q107.404 478.371 105.506 476.959 Q103.631 475.524 100.112 475.524 Q98.1909 475.524 95.9919 475.94 Q93.7928 476.357 91.1539 477.237 L91.1539 473.07 Q93.816 472.329 96.1308 471.959 Q98.4687 471.589 100.529 471.589 Q105.853 471.589 108.955 474.019 Q112.057 476.427 112.057 480.547 Q112.057 483.417 110.413 485.408 Q108.77 487.376 105.737 488.139 Z" fill="#000000" fill-rule="evenodd" fill-opacity="1" /><path clip-path="url(#clip050)" d="M101.339 224.5 Q98.1909 224.5 96.3391 226.653 Q94.5104 228.806 94.5104 232.556 Q94.5104 236.282 96.3391 238.458 Q98.1909 240.611 101.339 240.611 Q104.487 240.611 106.316 238.458 Q108.168 236.282 108.168 232.556 Q108.168 228.806 106.316 226.653 Q104.487 224.5 101.339 224.5 M110.621 209.847 L110.621 214.107 Q108.862 213.273 107.057 212.834 Q105.274 212.394 103.515 212.394 Q98.8854 212.394 96.4317 215.519 Q94.0012 218.644 93.6539 224.963 Q95.0197 222.949 97.0798 221.884 Q99.14 220.796 101.617 220.796 Q106.825 220.796 109.834 223.968 Q112.867 227.116 112.867 232.556 Q112.867 237.88 109.719 241.097 Q106.571 244.315 101.339 244.315 Q95.3437 244.315 92.1725 239.732 Q89.0012 235.125 89.0012 226.398 Q89.0012 218.204 92.89 213.343 Q96.7789 208.459 103.33 208.459 Q105.089 208.459 106.871 208.806 Q108.677 209.153 110.621 209.847 Z" fill="#000000" fill-rule="evenodd" fill-opacity="1" /><polyline clip-path="url(#clip052)" style="stroke:#009af9; stroke-linecap:round; stroke-linejoin:round; stroke-width:4; stroke-opacity:1; fill:none" points="
  211.241,708.769 215.399,710.09 219.558,711.414 223.716,712.741 227.874,714.072 232.032,715.406 236.191,716.742 240.349,718.08 244.507,719.422 248.666,720.765 
  252.824,722.111 256.982,723.458 261.14,724.808 265.299,726.159 269.457,727.512 273.615,728.866 277.774,730.222 281.932,731.58 286.09,732.938 290.248,734.298 
  294.407,735.659 298.565,737.021 302.723,738.384 306.881,739.748 311.04,741.113 315.198,742.478 319.356,743.845 323.515,745.212 327.673,746.579 331.831,747.948 
  335.989,749.316 340.148,750.686 344.306,752.055 348.464,753.425 352.623,754.796 356.781,756.167 360.939,757.538 365.097,758.909 369.256,760.281 373.414,761.653 
  377.572,763.025 381.731,764.397 385.889,765.77 390.047,767.143 394.205,768.515 398.364,769.888 402.522,771.261 406.68,772.634 410.839,774.007 414.997,775.38 
  419.155,776.753 423.313,778.126 427.472,779.499 431.63,780.871 435.788,782.244 439.946,783.617 444.105,784.99 448.263,786.362 452.421,787.735 456.58,789.107 
  460.738,790.48 464.896,791.852 469.054,793.224 473.213,794.596 477.371,795.967 481.529,797.339 485.688,798.711 489.846,800.082 494.004,801.453 498.162,802.824 
  502.321,804.195 506.479,805.566 510.637,806.936 514.796,808.306 518.954,809.677 523.112,811.047 527.27,812.416 531.429,813.786 535.587,815.155 539.745,816.524 
  543.904,817.893 548.062,819.262 552.22,820.631 556.378,821.999 560.537,823.367 564.695,824.735 568.853,826.103 573.011,827.471 577.17,828.838 581.328,830.205 
  585.486,831.572 589.645,832.939 593.803,834.305 597.961,835.672 602.119,837.038 606.278,838.404 610.436,839.77 614.594,841.135 618.753,842.501 622.911,843.866 
  627.069,845.231 631.227,846.595 635.386,847.96 639.544,849.324 643.702,850.688 647.861,852.052 652.019,853.416 656.177,854.78 660.335,856.143 664.494,857.506 
  668.652,858.869 672.81,860.232 676.969,861.594 681.127,862.957 685.285,864.319 689.443,865.681 693.602,867.043 697.76,868.405 701.918,869.766 706.076,871.128 
  710.235,872.489 714.393,873.85 718.551,875.211 722.71,876.571 726.868,877.932 731.026,879.292 735.184,880.652 739.343,882.012 743.501,883.372 747.659,884.732 
  751.818,886.091 755.976,887.451 760.134,888.81 764.292,890.169 768.451,891.528 772.609,892.886 776.767,894.245 780.926,895.603 785.084,896.961 789.242,898.319 
  793.4,899.677 797.559,901.035 801.717,902.393 805.875,903.75 810.034,905.108 814.192,906.465 818.35,907.822 822.508,909.179 826.667,910.536 830.825,911.892 
  834.983,913.249 839.141,914.605 843.3,915.962 847.458,917.318 851.616,918.674 855.775,920.03 859.933,921.385 864.091,922.741 868.249,924.097 872.408,925.452 
  876.566,926.807 880.724,928.162 884.883,929.518 889.041,930.872 893.199,932.227 897.357,933.582 901.516,934.936 905.674,936.291 909.832,937.645 913.991,939 
  918.149,940.354 922.307,941.708 926.465,943.062 930.624,944.415 934.782,945.769 938.94,947.123 943.099,948.476 947.257,949.83 951.415,951.183 955.573,952.536 
  959.732,953.889 963.89,955.242 968.048,956.595 972.207,957.948 976.365,959.301 980.523,960.653 984.681,962.006 988.84,963.358 992.998,964.711 997.156,966.063 
  1001.31,967.415 1005.47,968.767 1009.63,970.119 1013.79,971.471 1017.95,972.823 1022.11,974.174 1026.26,975.526 1030.42,976.878 1034.58,978.229 1038.74,979.58 
  1042.9,980.932 1047.06,982.283 1051.21,983.634 1055.37,984.985 1059.53,986.336 1063.69,987.687 1067.85,989.038 1072.01,990.389 1076.16,991.739 1080.32,993.09 
  1084.48,994.44 1088.64,995.791 1092.8,997.141 1096.95,998.492 1101.11,999.842 1105.27,1001.19 1109.43,1002.54 1113.59,1003.89 1117.75,1005.24 1121.9,1006.59 
  1126.06,1007.94 1130.22,1009.29 1134.38,1010.64 1138.54,1011.99 1142.7,1013.34 1146.85,1014.69 1151.01,1016.04 1155.17,1017.39 1159.33,1018.74 1163.49,1020.09 
  1167.65,1021.44 1171.8,1022.79 1175.96,1024.13 1180.12,1025.48 1184.28,1026.83 1188.44,1028.18 1192.6,1029.53 1196.75,1030.88 1200.91,1032.23 1205.07,1033.58 
  1209.23,1034.93 1213.39,1036.27 1217.55,1037.62 1221.7,1038.97 1225.86,1040.32 1230.02,1041.67 1234.18,1043.02 1238.34,1044.36 1242.49,1045.71 1246.65,1047.06 
  1250.81,1048.41 1254.97,1049.76 1259.13,1051.1 1263.29,1052.45 1267.44,1053.8 1271.6,1055.15 1275.76,1056.5 1279.92,1057.84 1284.08,1059.19 1288.24,1060.54 
  1292.39,1061.89 1296.55,1063.23 1300.71,1064.58 1304.87,1065.93 1309.03,1067.28 1313.19,1068.62 1317.34,1069.97 1321.5,1071.32 1325.66,1072.66 1329.82,1074.01 
  1333.98,1075.36 1338.14,1076.71 1342.29,1078.05 1346.45,1079.4 1350.61,1080.75 1354.77,1082.09 1358.93,1083.44 1363.08,1084.79 1367.24,1086.13 1371.4,1087.48 
  1375.56,1088.83 1379.72,1090.17 1383.88,1091.52 1388.03,1092.87 1392.19,1094.21 1396.35,1095.56 1400.51,1096.9 1404.67,1098.25 1408.83,1099.6 1412.98,1100.94 
  1417.14,1102.29 1421.3,1103.64 1425.46,1104.98 1429.62,1106.33 1433.78,1107.67 1437.93,1109.02 1442.09,1110.37 1446.25,1111.71 1450.41,1113.06 1454.57,1114.4 
  1458.73,1115.75 1462.88,1117.1 1467.04,1118.44 1471.2,1119.79 1475.36,1121.13 1479.52,1122.48 1483.68,1123.82 1487.83,1125.17 1491.99,1126.51 1496.15,1127.86 
  1500.31,1129.2 1504.47,1130.55 1508.62,1131.9 1512.78,1133.24 1516.94,1134.59 1521.1,1135.93 1525.26,1137.28 1529.42,1138.62 1533.57,1139.97 1537.73,1141.31 
  1541.89,1142.66 1546.05,1144 1550.21,1145.35 1554.37,1146.69 1558.52,1148.04 1562.68,1149.38 1566.84,1150.73 1571,1152.07 1575.16,1153.42 1579.32,1154.76 
  1583.47,1156.1 1587.63,1157.45 1591.79,1158.79 1595.95,1160.14 1600.11,1161.48 1604.27,1162.83 1608.42,1164.17 1612.58,1165.52 1616.74,1166.86 1620.9,1168.2 
  1625.06,1169.55 1629.21,1170.89 1633.37,1172.24 1637.53,1173.58 1641.69,1174.93 1645.85,1176.27 1650.01,1177.61 1654.16,1178.96 1658.32,1180.3 1662.48,1181.65 
  1666.64,1182.99 1670.8,1184.33 1674.96,1185.68 1679.11,1187.02 1683.27,1188.37 1687.43,1189.71 1691.59,1191.05 1695.75,1192.4 1699.91,1193.74 1704.06,1195.08 
  1708.22,1196.43 1712.38,1197.77 1716.54,1199.11 1720.7,1200.46 1724.86,1201.8 1729.01,1203.15 1733.17,1204.49 1737.33,1205.83 1741.49,1207.18 1745.65,1208.52 
  1749.81,1209.86 1753.96,1211.21 1758.12,1212.55 1762.28,1213.89 1766.44,1215.23 1770.6,1216.58 1774.75,1217.92 1778.91,1219.26 1783.07,1220.61 1787.23,1221.95 
  1791.39,1223.29 1795.55,1224.64 1799.7,1225.98 1803.86,1227.32 1808.02,1228.66 1812.18,1230.01 1816.34,1231.35 1820.5,1232.69 1824.65,1234.04 1828.81,1235.38 
  1832.97,1236.72 1837.13,1238.06 1841.29,1239.41 1845.45,1240.75 1849.6,1242.09 1853.76,1243.43 1857.92,1244.78 1862.08,1246.12 1866.24,1247.46 1870.4,1248.8 
  1874.55,1250.15 1878.71,1251.49 1882.87,1252.83 1887.03,1254.17 1891.19,1255.52 1895.34,1256.86 1899.5,1258.2 1903.66,1259.54 1907.82,1260.88 1911.98,1262.23 
  1916.14,1263.57 1920.29,1264.91 1924.45,1266.25 1928.61,1267.59 1932.77,1268.94 1936.93,1270.28 1941.09,1271.62 1945.24,1272.96 1949.4,1274.3 1953.56,1275.65 
  1957.72,1276.99 1961.88,1278.33 1966.04,1279.67 1970.19,1281.01 1974.35,1282.35 1978.51,1283.7 1982.67,1285.04 1986.83,1286.38 1990.99,1287.72 1995.14,1289.06 
  1999.3,1290.4 2003.46,1291.75 2007.62,1293.09 2011.78,1294.43 2015.94,1295.77 2020.09,1297.11 2024.25,1298.45 2028.41,1299.79 2032.57,1301.13 2036.73,1302.48 
  2040.88,1303.82 2045.04,1305.16 2049.2,1306.5 2053.36,1307.84 2057.52,1309.18 2061.68,1310.52 2065.83,1311.86 2069.99,1313.21 2074.15,1314.55 2078.31,1315.89 
  2082.47,1317.23 2086.63,1318.57 2090.78,1319.91 2094.94,1321.25 2099.1,1322.59 2103.26,1323.93 2107.42,1325.27 2111.58,1326.61 2115.73,1327.95 2119.89,1329.29 
  2124.05,1330.64 2128.21,1331.98 2132.37,1333.32 2136.53,1334.66 2140.68,1336 2144.84,1337.34 2149,1338.68 2153.16,1340.02 2157.32,1341.36 2161.47,1342.7 
  2165.63,1344.04 2169.79,1345.38 2173.95,1346.72 2178.11,1348.06 2182.27,1349.4 2186.42,1350.74 2190.58,1352.08 2194.74,1353.42 2198.9,1354.76 2203.06,1356.1 
  2207.22,1357.44 2211.37,1358.78 2215.53,1360.12 2219.69,1361.46 2223.85,1362.8 2228.01,1364.14 2232.17,1365.48 2236.32,1366.82 2240.48,1368.16 2244.64,1369.5 
  2248.8,1370.84 2252.96,1372.18 2257.12,1373.52 2261.27,1374.86 2265.43,1376.2 2269.59,1377.54 2273.75,1378.88 2277.91,1380.22 2282.07,1381.56 2286.22,1382.9 
  2290.38,1384.24 
  "/>
<polyline clip-path="url(#clip052)" style="stroke:#e26f46; stroke-linecap:round; stroke-linejoin:round; stroke-width:4; stroke-opacity:1; fill:none" points="
  211.241,752.624 215.399,751.298 219.558,749.972 223.716,748.644 227.874,747.315 232.032,745.986 236.191,744.655 240.349,743.324 244.507,741.993 248.666,740.661 
  252.824,739.328 256.982,737.996 261.14,736.662 265.299,735.329 269.457,733.995 273.615,732.661 277.774,731.327 281.932,729.992 286.09,728.657 290.248,727.323 
  294.407,725.988 298.565,724.653 302.723,723.318 306.881,721.983 311.04,720.648 315.198,719.313 319.356,717.977 323.515,716.642 327.673,715.307 331.831,713.972 
  335.989,712.637 340.148,711.302 344.306,709.967 348.464,708.633 352.623,707.298 356.781,705.963 360.939,704.629 365.097,703.294 369.256,701.96 373.414,700.626 
  377.572,699.291 381.731,697.957 385.889,696.624 390.047,695.29 394.205,693.956 398.364,692.623 402.522,691.289 406.68,689.956 410.839,688.623 414.997,687.29 
  419.155,685.958 423.313,684.625 427.472,683.293 431.63,681.961 435.788,680.628 439.946,679.297 444.105,677.965 448.263,676.633 452.421,675.302 456.58,673.971 
  460.738,672.639 464.896,671.309 469.054,669.978 473.213,668.647 477.371,667.317 481.529,665.987 485.688,664.656 489.846,663.327 494.004,661.997 498.162,660.667 
  502.321,659.338 506.479,658.008 510.637,656.679 514.796,655.35 518.954,654.021 523.112,652.693 527.27,651.364 531.429,650.036 535.587,648.708 539.745,647.38 
  543.904,646.052 548.062,644.724 552.22,643.396 556.378,642.069 560.537,640.741 564.695,639.414 568.853,638.087 573.011,636.76 577.17,635.433 581.328,634.107 
  585.486,632.78 589.645,631.454 593.803,630.127 597.961,628.801 602.119,627.475 606.278,626.149 610.436,624.823 614.594,623.497 618.753,622.172 622.911,620.846 
  627.069,619.521 631.227,618.195 635.386,616.87 639.544,615.545 643.702,614.22 647.861,612.895 652.019,611.57 656.177,610.246 660.335,608.921 664.494,607.596 
  668.652,606.272 672.81,604.947 676.969,603.623 681.127,602.299 685.285,600.975 689.443,599.65 693.602,598.326 697.76,597.002 701.918,595.678 706.076,594.355 
  710.235,593.031 714.393,591.707 718.551,590.383 722.71,589.06 726.868,587.736 731.026,586.412 735.184,585.089 739.343,583.766 743.501,582.442 747.659,581.119 
  751.818,579.795 755.976,578.472 760.134,577.149 764.292,575.826 768.451,574.502 772.609,573.179 776.767,571.856 780.926,570.533 785.084,569.21 789.242,567.887 
  793.4,566.564 797.559,565.241 801.717,563.918 805.875,562.595 810.034,561.272 814.192,559.949 818.35,558.626 822.508,557.303 826.667,555.98 830.825,554.657 
  834.983,553.334 839.141,552.011 843.3,550.689 847.458,549.366 851.616,548.043 855.775,546.72 859.933,545.397 864.091,544.074 868.249,542.751 872.408,541.428 
  876.566,540.105 880.724,538.782 884.883,537.459 889.041,536.136 893.199,534.813 897.357,533.49 901.516,532.167 905.674,530.844 909.832,529.521 913.991,528.198 
  918.149,526.875 922.307,525.551 926.465,524.228 930.624,522.905 934.782,521.582 938.94,520.258 943.099,518.935 947.257,517.612 951.415,516.288 955.573,514.965 
  959.732,513.641 963.89,512.318 968.048,510.994 972.207,509.671 976.365,508.347 980.523,507.024 984.681,505.7 988.84,504.376 992.998,503.053 997.156,501.729 
  1001.31,500.405 1005.47,499.081 1009.63,497.757 1013.79,496.433 1017.95,495.109 1022.11,493.785 1026.26,492.461 1030.42,491.137 1034.58,489.812 1038.74,488.488 
  1042.9,487.164 1047.06,485.839 1051.21,484.515 1055.37,483.19 1059.53,481.866 1063.69,480.541 1067.85,479.216 1072.01,477.892 1076.16,476.567 1080.32,475.242 
  1084.48,473.917 1088.64,472.592 1092.8,471.267 1096.95,469.942 1101.11,468.617 1105.27,467.292 1109.43,465.966 1113.59,464.641 1117.75,463.315 1121.9,461.99 
  1126.06,460.664 1130.22,459.339 1134.38,458.013 1138.54,456.687 1142.7,455.361 1146.85,454.035 1151.01,452.709 1155.17,451.383 1159.33,450.057 1163.49,448.731 
  1167.65,447.405 1171.8,446.078 1175.96,444.752 1180.12,443.426 1184.28,442.099 1188.44,440.772 1192.6,439.446 1196.75,438.119 1200.91,436.792 1205.07,435.465 
  1209.23,434.138 1213.39,432.811 1217.55,431.484 1221.7,430.156 1225.86,428.829 1230.02,427.502 1234.18,426.174 1238.34,424.847 1242.49,423.519 1246.65,422.191 
  1250.81,420.863 1254.97,419.535 1259.13,418.207 1263.29,416.879 1267.44,415.551 1271.6,414.223 1275.76,412.895 1279.92,411.566 1284.08,410.238 1288.24,408.909 
  1292.39,407.581 1296.55,406.252 1300.71,404.923 1304.87,403.594 1309.03,402.265 1313.19,400.936 1317.34,399.607 1321.5,398.278 1325.66,396.949 1329.82,395.619 
  1333.98,394.29 1338.14,392.96 1342.29,391.63 1346.45,390.301 1350.61,388.971 1354.77,387.641 1358.93,386.311 1363.08,384.981 1367.24,383.651 1371.4,382.32 
  1375.56,380.99 1379.72,379.66 1383.88,378.329 1388.03,376.998 1392.19,375.668 1396.35,374.337 1400.51,373.006 1404.67,371.675 1408.83,370.344 1412.98,369.013 
  1417.14,367.682 1421.3,366.35 1425.46,365.019 1429.62,363.687 1433.78,362.356 1437.93,361.024 1442.09,359.692 1446.25,358.361 1450.41,357.029 1454.57,355.697 
  1458.73,354.364 1462.88,353.032 1467.04,351.7 1471.2,350.368 1475.36,349.035 1479.52,347.703 1483.68,346.37 1487.83,345.037 1491.99,343.704 1496.15,342.371 
  1500.31,341.038 1504.47,339.705 1508.62,338.372 1512.78,337.039 1516.94,335.705 1521.1,334.372 1525.26,333.038 1529.42,331.705 1533.57,330.371 1537.73,329.037 
  1541.89,327.703 1546.05,326.369 1550.21,325.035 1554.37,323.701 1558.52,322.367 1562.68,321.033 1566.84,319.698 1571,318.364 1575.16,317.029 1579.32,315.694 
  1583.47,314.359 1587.63,313.024 1591.79,311.689 1595.95,310.354 1600.11,309.019 1604.27,307.684 1608.42,306.349 1612.58,305.013 1616.74,303.678 1620.9,302.342 
  1625.06,301.006 1629.21,299.671 1633.37,298.335 1637.53,296.999 1641.69,295.663 1645.85,294.326 1650.01,292.99 1654.16,291.654 1658.32,290.317 1662.48,288.981 
  1666.64,287.644 1670.8,286.308 1674.96,284.971 1679.11,283.634 1683.27,282.297 1687.43,280.96 1691.59,279.623 1695.75,278.286 1699.91,276.948 1704.06,275.611 
  1708.22,274.273 1712.38,272.936 1716.54,271.598 1720.7,270.26 1724.86,268.922 1729.01,267.585 1733.17,266.246 1737.33,264.908 1741.49,263.57 1745.65,262.232 
  1749.81,260.893 1753.96,259.555 1758.12,258.216 1762.28,256.878 1766.44,255.539 1770.6,254.2 1774.75,252.861 1778.91,251.522 1783.07,250.183 1787.23,248.844 
  1791.39,247.505 1795.55,246.165 1799.7,244.826 1803.86,243.486 1808.02,242.147 1812.18,240.807 1816.34,239.467 1820.5,238.127 1824.65,236.787 1828.81,235.447 
  1832.97,234.107 1837.13,232.767 1841.29,231.426 1845.45,230.086 1849.6,228.746 1853.76,227.405 1857.92,226.064 1862.08,224.723 1866.24,223.383 1870.4,222.042 
  1874.55,220.701 1878.71,219.36 1882.87,218.018 1887.03,216.677 1891.19,215.336 1895.34,213.994 1899.5,212.653 1903.66,211.311 1907.82,209.969 1911.98,208.628 
  1916.14,207.286 1920.29,205.944 1924.45,204.602 1928.61,203.26 1932.77,201.917 1936.93,200.575 1941.09,199.233 1945.24,197.89 1949.4,196.548 1953.56,195.205 
  1957.72,193.862 1961.88,192.52 1966.04,191.177 1970.19,189.834 1974.35,188.491 1978.51,187.148 1982.67,185.804 1986.83,184.461 1990.99,183.118 1995.14,181.774 
  1999.3,180.431 2003.46,179.087 2007.62,177.743 2011.78,176.4 2015.94,175.056 2020.09,173.712 2024.25,172.368 2028.41,171.024 2032.57,169.679 2036.73,168.335 
  2040.88,166.991 2045.04,165.646 2049.2,164.302 2053.36,162.957 2057.52,161.613 2061.68,160.268 2065.83,158.923 2069.99,157.578 2074.15,156.233 2078.31,154.888 
  2082.47,153.543 2086.63,152.197 2090.78,150.852 2094.94,149.507 2099.1,148.161 2103.26,146.816 2107.42,145.47 2111.58,144.124 2115.73,142.779 2119.89,141.433 
  2124.05,140.087 2128.21,138.741 2132.37,137.395 2136.53,136.048 2140.68,134.702 2144.84,133.356 2149,132.009 2153.16,130.663 2157.32,129.316 2161.47,127.97 
  2165.63,126.623 2169.79,125.276 2173.95,123.929 2178.11,122.582 2182.27,121.235 2186.42,119.888 2190.58,118.541 2194.74,117.194 2198.9,115.846 2203.06,114.499 
  2207.22,113.151 2211.37,111.804 2215.53,110.456 2219.69,109.108 2223.85,107.761 2228.01,106.413 2232.17,105.065 2236.32,103.717 2240.48,102.369 2244.64,101.02 
  2248.8,99.6722 2252.96,98.3239 2257.12,96.9755 2261.27,95.627 2265.43,94.2785 2269.59,92.9299 2273.75,91.5812 2277.91,90.2324 2282.07,88.8836 2286.22,87.5347 
  2290.38,86.1857 
  "/>
<path clip-path="url(#clip050)" d="
M222.33 248.629 L895.448 248.629 L895.448 93.1086 L222.33 93.1086  Z
  " fill="#ffffff" fill-rule="evenodd" fill-opacity="1"/>
<polyline clip-path="url(#clip050)" style="stroke:#000000; stroke-linecap:round; stroke-linejoin:round; stroke-width:4; stroke-opacity:1; fill:none" points="
  222.33,248.629 895.448,248.629 895.448,93.1086 222.33,93.1086 222.33,248.629 
  "/>
<polyline clip-path="url(#clip050)" style="stroke:#009af9; stroke-linecap:round; stroke-linejoin:round; stroke-width:4; stroke-opacity:1; fill:none" points="
  246.817,144.949 393.743,144.949 
  "/>
<path clip-path="url(#clip050)" d="M438.578 141.28 Q440.175 138.409 442.398 137.044 Q444.62 135.678 447.629 135.678 Q451.68 135.678 453.879 138.525 Q456.078 141.349 456.078 146.581 L456.078 162.229 L451.796 162.229 L451.796 146.719 Q451.796 142.993 450.476 141.187 Q449.157 139.382 446.448 139.382 Q443.138 139.382 441.217 141.581 Q439.296 143.78 439.296 147.576 L439.296 162.229 L435.013 162.229 L435.013 146.719 Q435.013 142.969 433.694 141.187 Q432.374 139.382 429.62 139.382 Q426.356 139.382 424.435 141.604 Q422.513 143.803 422.513 147.576 L422.513 162.229 L418.231 162.229 L418.231 136.303 L422.513 136.303 L422.513 140.331 Q423.972 137.946 426.009 136.812 Q428.046 135.678 430.847 135.678 Q433.671 135.678 435.638 137.113 Q437.629 138.548 438.578 141.28 Z" fill="#000000" fill-rule="evenodd" fill-opacity="1" /><path clip-path="url(#clip050)" d="M476.356 149.196 Q471.194 149.196 469.203 150.377 Q467.212 151.557 467.212 154.405 Q467.212 156.673 468.694 158.016 Q470.198 159.335 472.768 159.335 Q476.309 159.335 478.439 156.835 Q480.592 154.312 480.592 150.145 L480.592 149.196 L476.356 149.196 M484.851 147.437 L484.851 162.229 L480.592 162.229 L480.592 158.293 Q479.133 160.655 476.958 161.789 Q474.782 162.9 471.634 162.9 Q467.652 162.9 465.291 160.678 Q462.953 158.432 462.953 154.682 Q462.953 150.307 465.87 148.085 Q468.809 145.863 474.62 145.863 L480.592 145.863 L480.592 145.446 Q480.592 142.507 478.647 140.909 Q476.726 139.289 473.231 139.289 Q471.009 139.289 468.902 139.821 Q466.796 140.354 464.851 141.419 L464.851 137.483 Q467.189 136.581 469.388 136.141 Q471.587 135.678 473.671 135.678 Q479.296 135.678 482.073 138.594 Q484.851 141.511 484.851 147.437 Z" fill="#000000" fill-rule="evenodd" fill-opacity="1" /><path clip-path="url(#clip050)" d="M510.152 137.067 L510.152 141.094 Q508.346 140.169 506.402 139.706 Q504.457 139.243 502.374 139.243 Q499.203 139.243 497.606 140.215 Q496.032 141.187 496.032 143.131 Q496.032 144.613 497.166 145.469 Q498.3 146.303 501.726 147.067 L503.184 147.391 Q507.721 148.363 509.619 150.145 Q511.541 151.905 511.541 155.076 Q511.541 158.687 508.67 160.793 Q505.823 162.9 500.823 162.9 Q498.74 162.9 496.471 162.483 Q494.226 162.09 491.726 161.28 L491.726 156.881 Q494.087 158.108 496.379 158.733 Q498.67 159.335 500.916 159.335 Q503.925 159.335 505.545 158.317 Q507.166 157.275 507.166 155.4 Q507.166 153.664 505.985 152.738 Q504.828 151.812 500.869 150.956 L499.388 150.608 Q495.43 149.775 493.67 148.062 Q491.911 146.326 491.911 143.317 Q491.911 139.659 494.504 137.669 Q497.096 135.678 501.865 135.678 Q504.226 135.678 506.309 136.025 Q508.393 136.372 510.152 137.067 Z" fill="#000000" fill-rule="evenodd" fill-opacity="1" /><path clip-path="url(#clip050)" d="M534.851 137.067 L534.851 141.094 Q533.045 140.169 531.101 139.706 Q529.156 139.243 527.073 139.243 Q523.902 139.243 522.305 140.215 Q520.73 141.187 520.73 143.131 Q520.73 144.613 521.865 145.469 Q522.999 146.303 526.425 147.067 L527.883 147.391 Q532.42 148.363 534.318 150.145 Q536.24 151.905 536.24 155.076 Q536.24 158.687 533.369 160.793 Q530.522 162.9 525.522 162.9 Q523.439 162.9 521.17 162.483 Q518.925 162.09 516.425 161.28 L516.425 156.881 Q518.786 158.108 521.078 158.733 Q523.369 159.335 525.615 159.335 Q528.624 159.335 530.244 158.317 Q531.865 157.275 531.865 155.4 Q531.865 153.664 530.684 152.738 Q529.527 151.812 525.568 150.956 L524.087 150.608 Q520.129 149.775 518.369 148.062 Q516.61 146.326 516.61 143.317 Q516.61 139.659 519.203 137.669 Q521.795 135.678 526.564 135.678 Q528.925 135.678 531.008 136.025 Q533.092 136.372 534.851 137.067 Z" fill="#000000" fill-rule="evenodd" fill-opacity="1" /><path clip-path="url(#clip050)" d="M543.624 156.349 L548.508 156.349 L548.508 162.229 L543.624 162.229 L543.624 156.349 Z" fill="#000000" fill-rule="evenodd" fill-opacity="1" /><path clip-path="url(#clip050)" d="M574.619 137.067 L574.619 141.094 Q572.814 140.169 570.869 139.706 Q568.925 139.243 566.841 139.243 Q563.67 139.243 562.073 140.215 Q560.499 141.187 560.499 143.131 Q560.499 144.613 561.633 145.469 Q562.767 146.303 566.193 147.067 L567.652 147.391 Q572.189 148.363 574.087 150.145 Q576.008 151.905 576.008 155.076 Q576.008 158.687 573.138 160.793 Q570.29 162.9 565.29 162.9 Q563.207 162.9 560.939 162.483 Q558.693 162.09 556.193 161.28 L556.193 156.881 Q558.554 158.108 560.846 158.733 Q563.138 159.335 565.383 159.335 Q568.392 159.335 570.013 158.317 Q571.633 157.275 571.633 155.4 Q571.633 153.664 570.452 152.738 Q569.295 151.812 565.337 150.956 L563.855 150.608 Q559.897 149.775 558.138 148.062 Q556.378 146.326 556.378 143.317 Q556.378 139.659 558.971 137.669 Q561.564 135.678 566.332 135.678 Q568.693 135.678 570.776 136.025 Q572.86 136.372 574.619 137.067 Z" fill="#000000" fill-rule="evenodd" fill-opacity="1" /><path clip-path="url(#clip050)" d="M608.091 126.257 Q604.989 131.581 603.485 136.789 Q601.98 141.997 601.98 147.344 Q601.98 152.692 603.485 157.946 Q605.012 163.178 608.091 168.479 L604.387 168.479 Q600.915 163.039 599.179 157.784 Q597.466 152.53 597.466 147.344 Q597.466 142.182 599.179 136.951 Q600.892 131.72 604.387 126.257 L608.091 126.257 Z" fill="#000000" fill-rule="evenodd" fill-opacity="1" /><path clip-path="url(#clip050)" d="M631.123 143.594 Q634.48 144.312 636.355 146.581 Q638.253 148.849 638.253 152.182 Q638.253 157.298 634.734 160.099 Q631.216 162.9 624.735 162.9 Q622.559 162.9 620.244 162.46 Q617.952 162.043 615.498 161.187 L615.498 156.673 Q617.443 157.807 619.758 158.386 Q622.073 158.965 624.596 158.965 Q628.994 158.965 631.285 157.229 Q633.6 155.493 633.6 152.182 Q633.6 149.127 631.447 147.414 Q629.318 145.678 625.498 145.678 L621.471 145.678 L621.471 141.835 L625.684 141.835 Q629.133 141.835 630.961 140.469 Q632.79 139.081 632.79 136.488 Q632.79 133.826 630.892 132.414 Q629.017 130.979 625.498 130.979 Q623.577 130.979 621.378 131.395 Q619.179 131.812 616.54 132.692 L616.54 128.525 Q619.202 127.784 621.517 127.414 Q623.855 127.044 625.915 127.044 Q631.239 127.044 634.341 129.474 Q637.443 131.882 637.443 136.002 Q637.443 138.872 635.799 140.863 Q634.156 142.831 631.123 143.594 Z" fill="#000000" fill-rule="evenodd" fill-opacity="1" /><path clip-path="url(#clip050)" d="M661.285 143.594 Q664.642 144.312 666.517 146.581 Q668.415 148.849 668.415 152.182 Q668.415 157.298 664.896 160.099 Q661.378 162.9 654.896 162.9 Q652.721 162.9 650.406 162.46 Q648.114 162.043 645.66 161.187 L645.66 156.673 Q647.605 157.807 649.92 158.386 Q652.234 158.965 654.758 158.965 Q659.156 158.965 661.447 157.229 Q663.762 155.493 663.762 152.182 Q663.762 149.127 661.609 147.414 Q659.48 145.678 655.66 145.678 L651.633 145.678 L651.633 141.835 L655.845 141.835 Q659.295 141.835 661.123 140.469 Q662.952 139.081 662.952 136.488 Q662.952 133.826 661.054 132.414 Q659.179 130.979 655.66 130.979 Q653.739 130.979 651.54 131.395 Q649.341 131.812 646.702 132.692 L646.702 128.525 Q649.364 127.784 651.679 127.414 Q654.017 127.044 656.077 127.044 Q661.401 127.044 664.503 129.474 Q667.605 131.882 667.605 136.002 Q667.605 138.872 665.961 140.863 Q664.318 142.831 661.285 143.594 Z" fill="#000000" fill-rule="evenodd" fill-opacity="1" /><path clip-path="url(#clip050)" d="M677.327 127.669 L695.683 127.669 L695.683 131.604 L681.609 131.604 L681.609 140.076 Q682.628 139.729 683.646 139.567 Q684.665 139.382 685.683 139.382 Q691.47 139.382 694.85 142.553 Q698.23 145.724 698.23 151.141 Q698.23 156.719 694.757 159.821 Q691.285 162.9 684.966 162.9 Q682.79 162.9 680.521 162.53 Q678.276 162.159 675.869 161.418 L675.869 156.719 Q677.952 157.854 680.174 158.409 Q682.396 158.965 684.873 158.965 Q688.878 158.965 691.216 156.858 Q693.554 154.752 693.554 151.141 Q693.554 147.53 691.216 145.423 Q688.878 143.317 684.873 143.317 Q682.998 143.317 681.123 143.733 Q679.271 144.15 677.327 145.03 L677.327 127.669 Z" fill="#000000" fill-rule="evenodd" fill-opacity="1" /><path clip-path="url(#clip050)" d="M707.489 127.669 L725.845 127.669 L725.845 131.604 L711.771 131.604 L711.771 140.076 Q712.79 139.729 713.808 139.567 Q714.827 139.382 715.845 139.382 Q721.632 139.382 725.012 142.553 Q728.391 145.724 728.391 151.141 Q728.391 156.719 724.919 159.821 Q721.447 162.9 715.128 162.9 Q712.952 162.9 710.683 162.53 Q708.438 162.159 706.03 161.418 L706.03 156.719 Q708.114 157.854 710.336 158.409 Q712.558 158.965 715.035 158.965 Q719.04 158.965 721.378 156.858 Q723.715 154.752 723.715 151.141 Q723.715 147.53 721.378 145.423 Q719.04 143.317 715.035 143.317 Q713.16 143.317 711.285 143.733 Q709.433 144.15 707.489 145.03 L707.489 127.669 Z" fill="#000000" fill-rule="evenodd" fill-opacity="1" /><path clip-path="url(#clip050)" d="M750.451 131.743 L738.646 150.192 L750.451 150.192 L750.451 131.743 M749.225 127.669 L755.104 127.669 L755.104 150.192 L760.035 150.192 L760.035 154.081 L755.104 154.081 L755.104 162.229 L750.451 162.229 L750.451 154.081 L734.85 154.081 L734.85 149.567 L749.225 127.669 Z" fill="#000000" fill-rule="evenodd" fill-opacity="1" /><path clip-path="url(#clip050)" d="M780.613 131.743 L768.808 150.192 L780.613 150.192 L780.613 131.743 M779.386 127.669 L785.266 127.669 L785.266 150.192 L790.197 150.192 L790.197 154.081 L785.266 154.081 L785.266 162.229 L780.613 162.229 L780.613 154.081 L765.012 154.081 L765.012 149.567 L779.386 127.669 Z" fill="#000000" fill-rule="evenodd" fill-opacity="1" /><path clip-path="url(#clip050)" d="M812.095 143.594 Q815.451 144.312 817.326 146.581 Q819.224 148.849 819.224 152.182 Q819.224 157.298 815.706 160.099 Q812.187 162.9 805.706 162.9 Q803.53 162.9 801.215 162.46 Q798.923 162.043 796.47 161.187 L796.47 156.673 Q798.414 157.807 800.729 158.386 Q803.044 158.965 805.567 158.965 Q809.965 158.965 812.257 157.229 Q814.571 155.493 814.571 152.182 Q814.571 149.127 812.419 147.414 Q810.289 145.678 806.47 145.678 L802.442 145.678 L802.442 141.835 L806.655 141.835 Q810.104 141.835 811.933 140.469 Q813.761 139.081 813.761 136.488 Q813.761 133.826 811.863 132.414 Q809.988 130.979 806.47 130.979 Q804.548 130.979 802.349 131.395 Q800.15 131.812 797.511 132.692 L797.511 128.525 Q800.173 127.784 802.488 127.414 Q804.826 127.044 806.886 127.044 Q812.21 127.044 815.312 129.474 Q818.414 131.882 818.414 136.002 Q818.414 138.872 816.771 140.863 Q815.127 142.831 812.095 143.594 Z" fill="#000000" fill-rule="evenodd" fill-opacity="1" /><path clip-path="url(#clip050)" d="M832.118 158.293 L848.437 158.293 L848.437 162.229 L826.493 162.229 L826.493 158.293 Q829.155 155.539 833.738 150.909 Q838.345 146.256 839.525 144.914 Q841.77 142.391 842.65 140.655 Q843.553 138.895 843.553 137.206 Q843.553 134.451 841.608 132.715 Q839.687 130.979 836.585 130.979 Q834.386 130.979 831.933 131.743 Q829.502 132.507 826.724 134.057 L826.724 129.335 Q829.548 128.201 832.002 127.622 Q834.456 127.044 836.493 127.044 Q841.863 127.044 845.057 129.729 Q848.252 132.414 848.252 136.905 Q848.252 139.034 847.442 140.956 Q846.655 142.854 844.548 145.446 Q843.969 146.118 840.868 149.335 Q837.766 152.53 832.118 158.293 Z" fill="#000000" fill-rule="evenodd" fill-opacity="1" /><path clip-path="url(#clip050)" d="M856.979 126.257 L860.682 126.257 Q864.155 131.72 865.868 136.951 Q867.604 142.182 867.604 147.344 Q867.604 152.53 865.868 157.784 Q864.155 163.039 860.682 168.479 L856.979 168.479 Q860.057 163.178 861.562 157.946 Q863.09 152.692 863.09 147.344 Q863.09 141.997 861.562 136.789 Q860.057 131.581 856.979 126.257 Z" fill="#000000" fill-rule="evenodd" fill-opacity="1" /><polyline clip-path="url(#clip050)" style="stroke:#e26f46; stroke-linecap:round; stroke-linejoin:round; stroke-width:4; stroke-opacity:1; fill:none" points="
  246.817,196.789 393.743,196.789 
  "/>
<path clip-path="url(#clip050)" d="M438.578 193.12 Q440.175 190.249 442.398 188.884 Q444.62 187.518 447.629 187.518 Q451.68 187.518 453.879 190.365 Q456.078 193.189 456.078 198.421 L456.078 214.069 L451.796 214.069 L451.796 198.559 Q451.796 194.833 450.476 193.027 Q449.157 191.222 446.448 191.222 Q443.138 191.222 441.217 193.421 Q439.296 195.62 439.296 199.416 L439.296 214.069 L435.013 214.069 L435.013 198.559 Q435.013 194.809 433.694 193.027 Q432.374 191.222 429.62 191.222 Q426.356 191.222 424.435 193.444 Q422.513 195.643 422.513 199.416 L422.513 214.069 L418.231 214.069 L418.231 188.143 L422.513 188.143 L422.513 192.171 Q423.972 189.786 426.009 188.652 Q428.046 187.518 430.847 187.518 Q433.671 187.518 435.638 188.953 Q437.629 190.388 438.578 193.12 Z" fill="#000000" fill-rule="evenodd" fill-opacity="1" /><path clip-path="url(#clip050)" d="M476.356 201.036 Q471.194 201.036 469.203 202.217 Q467.212 203.397 467.212 206.245 Q467.212 208.513 468.694 209.856 Q470.198 211.175 472.768 211.175 Q476.309 211.175 478.439 208.675 Q480.592 206.152 480.592 201.985 L480.592 201.036 L476.356 201.036 M484.851 199.277 L484.851 214.069 L480.592 214.069 L480.592 210.133 Q479.133 212.495 476.958 213.629 Q474.782 214.74 471.634 214.74 Q467.652 214.74 465.291 212.518 Q462.953 210.272 462.953 206.522 Q462.953 202.147 465.87 199.925 Q468.809 197.703 474.62 197.703 L480.592 197.703 L480.592 197.286 Q480.592 194.347 478.647 192.749 Q476.726 191.129 473.231 191.129 Q471.009 191.129 468.902 191.661 Q466.796 192.194 464.851 193.259 L464.851 189.323 Q467.189 188.421 469.388 187.981 Q471.587 187.518 473.671 187.518 Q479.296 187.518 482.073 190.434 Q484.851 193.351 484.851 199.277 Z" fill="#000000" fill-rule="evenodd" fill-opacity="1" /><path clip-path="url(#clip050)" d="M510.152 188.907 L510.152 192.934 Q508.346 192.009 506.402 191.546 Q504.457 191.083 502.374 191.083 Q499.203 191.083 497.606 192.055 Q496.032 193.027 496.032 194.971 Q496.032 196.453 497.166 197.309 Q498.3 198.143 501.726 198.907 L503.184 199.231 Q507.721 200.203 509.619 201.985 Q511.541 203.745 511.541 206.916 Q511.541 210.527 508.67 212.633 Q505.823 214.74 500.823 214.74 Q498.74 214.74 496.471 214.323 Q494.226 213.93 491.726 213.12 L491.726 208.721 Q494.087 209.948 496.379 210.573 Q498.67 211.175 500.916 211.175 Q503.925 211.175 505.545 210.157 Q507.166 209.115 507.166 207.24 Q507.166 205.504 505.985 204.578 Q504.828 203.652 500.869 202.796 L499.388 202.448 Q495.43 201.615 493.67 199.902 Q491.911 198.166 491.911 195.157 Q491.911 191.499 494.504 189.509 Q497.096 187.518 501.865 187.518 Q504.226 187.518 506.309 187.865 Q508.393 188.212 510.152 188.907 Z" fill="#000000" fill-rule="evenodd" fill-opacity="1" /><path clip-path="url(#clip050)" d="M534.851 188.907 L534.851 192.934 Q533.045 192.009 531.101 191.546 Q529.156 191.083 527.073 191.083 Q523.902 191.083 522.305 192.055 Q520.73 193.027 520.73 194.971 Q520.73 196.453 521.865 197.309 Q522.999 198.143 526.425 198.907 L527.883 199.231 Q532.42 200.203 534.318 201.985 Q536.24 203.745 536.24 206.916 Q536.24 210.527 533.369 212.633 Q530.522 214.74 525.522 214.74 Q523.439 214.74 521.17 214.323 Q518.925 213.93 516.425 213.12 L516.425 208.721 Q518.786 209.948 521.078 210.573 Q523.369 211.175 525.615 211.175 Q528.624 211.175 530.244 210.157 Q531.865 209.115 531.865 207.24 Q531.865 205.504 530.684 204.578 Q529.527 203.652 525.568 202.796 L524.087 202.448 Q520.129 201.615 518.369 199.902 Q516.61 198.166 516.61 195.157 Q516.61 191.499 519.203 189.509 Q521.795 187.518 526.564 187.518 Q528.925 187.518 531.008 187.865 Q533.092 188.212 534.851 188.907 Z" fill="#000000" fill-rule="evenodd" fill-opacity="1" /><path clip-path="url(#clip050)" d="M543.624 208.189 L548.508 208.189 L548.508 214.069 L543.624 214.069 L543.624 208.189 Z" fill="#000000" fill-rule="evenodd" fill-opacity="1" /><path clip-path="url(#clip050)" d="M555.036 188.143 L559.55 188.143 L567.652 209.902 L575.753 188.143 L580.267 188.143 L570.545 214.069 L564.758 214.069 L555.036 188.143 Z" fill="#000000" fill-rule="evenodd" fill-opacity="1" /><path clip-path="url(#clip050)" d="M611.448 178.097 Q608.346 183.421 606.841 188.629 Q605.336 193.837 605.336 199.184 Q605.336 204.532 606.841 209.786 Q608.369 215.018 611.448 220.319 L607.744 220.319 Q604.272 214.879 602.536 209.624 Q600.823 204.37 600.823 199.184 Q600.823 194.022 602.536 188.791 Q604.249 183.56 607.744 178.097 L611.448 178.097 Z" fill="#000000" fill-rule="evenodd" fill-opacity="1" /><path clip-path="url(#clip050)" d="M634.48 195.434 Q637.836 196.152 639.711 198.421 Q641.609 200.689 641.609 204.022 Q641.609 209.138 638.091 211.939 Q634.572 214.74 628.091 214.74 Q625.915 214.74 623.6 214.3 Q621.309 213.883 618.855 213.027 L618.855 208.513 Q620.799 209.647 623.114 210.226 Q625.429 210.805 627.952 210.805 Q632.35 210.805 634.642 209.069 Q636.957 207.333 636.957 204.022 Q636.957 200.967 634.804 199.254 Q632.674 197.518 628.855 197.518 L624.827 197.518 L624.827 193.675 L629.04 193.675 Q632.489 193.675 634.318 192.309 Q636.147 190.921 636.147 188.328 Q636.147 185.666 634.248 184.254 Q632.373 182.819 628.855 182.819 Q626.934 182.819 624.735 183.235 Q622.535 183.652 619.897 184.532 L619.897 180.365 Q622.559 179.624 624.873 179.254 Q627.211 178.884 629.272 178.884 Q634.596 178.884 637.697 181.314 Q640.799 183.722 640.799 187.842 Q640.799 190.712 639.156 192.703 Q637.512 194.671 634.48 195.434 Z" fill="#000000" fill-rule="evenodd" fill-opacity="1" /><path clip-path="url(#clip050)" d="M664.642 195.434 Q667.998 196.152 669.873 198.421 Q671.771 200.689 671.771 204.022 Q671.771 209.138 668.253 211.939 Q664.734 214.74 658.253 214.74 Q656.077 214.74 653.762 214.3 Q651.471 213.883 649.017 213.027 L649.017 208.513 Q650.961 209.647 653.276 210.226 Q655.591 210.805 658.114 210.805 Q662.512 210.805 664.804 209.069 Q667.119 207.333 667.119 204.022 Q667.119 200.967 664.966 199.254 Q662.836 197.518 659.017 197.518 L654.989 197.518 L654.989 193.675 L659.202 193.675 Q662.651 193.675 664.48 192.309 Q666.308 190.921 666.308 188.328 Q666.308 185.666 664.41 184.254 Q662.535 182.819 659.017 182.819 Q657.095 182.819 654.896 183.235 Q652.697 183.652 650.058 184.532 L650.058 180.365 Q652.721 179.624 655.035 179.254 Q657.373 178.884 659.433 178.884 Q664.757 178.884 667.859 181.314 Q670.961 183.722 670.961 187.842 Q670.961 190.712 669.318 192.703 Q667.674 194.671 664.642 195.434 Z" fill="#000000" fill-rule="evenodd" fill-opacity="1" /><path clip-path="url(#clip050)" d="M680.683 179.509 L699.04 179.509 L699.04 183.444 L684.966 183.444 L684.966 191.916 Q685.984 191.569 687.003 191.407 Q688.021 191.222 689.04 191.222 Q694.827 191.222 698.206 194.393 Q701.586 197.564 701.586 202.981 Q701.586 208.559 698.114 211.661 Q694.642 214.74 688.322 214.74 Q686.146 214.74 683.878 214.37 Q681.632 213.999 679.225 213.258 L679.225 208.559 Q681.308 209.694 683.531 210.249 Q685.753 210.805 688.23 210.805 Q692.234 210.805 694.572 208.698 Q696.91 206.592 696.91 202.981 Q696.91 199.37 694.572 197.263 Q692.234 195.157 688.23 195.157 Q686.355 195.157 684.48 195.573 Q682.628 195.99 680.683 196.87 L680.683 179.509 Z" fill="#000000" fill-rule="evenodd" fill-opacity="1" /><path clip-path="url(#clip050)" d="M710.845 179.509 L729.202 179.509 L729.202 183.444 L715.128 183.444 L715.128 191.916 Q716.146 191.569 717.165 191.407 Q718.183 191.222 719.202 191.222 Q724.989 191.222 728.368 194.393 Q731.748 197.564 731.748 202.981 Q731.748 208.559 728.276 211.661 Q724.803 214.74 718.484 214.74 Q716.308 214.74 714.04 214.37 Q711.794 213.999 709.387 213.258 L709.387 208.559 Q711.47 209.694 713.692 210.249 Q715.915 210.805 718.391 210.805 Q722.396 210.805 724.734 208.698 Q727.072 206.592 727.072 202.981 Q727.072 199.37 724.734 197.263 Q722.396 195.157 718.391 195.157 Q716.516 195.157 714.641 195.573 Q712.79 195.99 710.845 196.87 L710.845 179.509 Z" fill="#000000" fill-rule="evenodd" fill-opacity="1" /><path clip-path="url(#clip050)" d="M753.808 183.583 L742.002 202.032 L753.808 202.032 L753.808 183.583 M752.581 179.509 L758.461 179.509 L758.461 202.032 L763.391 202.032 L763.391 205.921 L758.461 205.921 L758.461 214.069 L753.808 214.069 L753.808 205.921 L738.206 205.921 L738.206 201.407 L752.581 179.509 Z" fill="#000000" fill-rule="evenodd" fill-opacity="1" /><path clip-path="url(#clip050)" d="M783.97 183.583 L772.164 202.032 L783.97 202.032 L783.97 183.583 M782.743 179.509 L788.623 179.509 L788.623 202.032 L793.553 202.032 L793.553 205.921 L788.623 205.921 L788.623 214.069 L783.97 214.069 L783.97 205.921 L768.368 205.921 L768.368 201.407 L782.743 179.509 Z" fill="#000000" fill-rule="evenodd" fill-opacity="1" /><path clip-path="url(#clip050)" d="M815.451 195.434 Q818.808 196.152 820.683 198.421 Q822.581 200.689 822.581 204.022 Q822.581 209.138 819.062 211.939 Q815.544 214.74 809.062 214.74 Q806.886 214.74 804.572 214.3 Q802.28 213.883 799.826 213.027 L799.826 208.513 Q801.771 209.647 804.085 210.226 Q806.4 210.805 808.923 210.805 Q813.321 210.805 815.613 209.069 Q817.928 207.333 817.928 204.022 Q817.928 200.967 815.775 199.254 Q813.646 197.518 809.826 197.518 L805.798 197.518 L805.798 193.675 L810.011 193.675 Q813.46 193.675 815.289 192.309 Q817.118 190.921 817.118 188.328 Q817.118 185.666 815.22 184.254 Q813.345 182.819 809.826 182.819 Q807.905 182.819 805.706 183.235 Q803.507 183.652 800.868 184.532 L800.868 180.365 Q803.53 179.624 805.845 179.254 Q808.183 178.884 810.243 178.884 Q815.567 178.884 818.669 181.314 Q821.771 183.722 821.771 187.842 Q821.771 190.712 820.127 192.703 Q818.484 194.671 815.451 195.434 Z" fill="#000000" fill-rule="evenodd" fill-opacity="1" /><path clip-path="url(#clip050)" d="M845.613 195.434 Q848.969 196.152 850.844 198.421 Q852.743 200.689 852.743 204.022 Q852.743 209.138 849.224 211.939 Q845.706 214.74 839.224 214.74 Q837.048 214.74 834.733 214.3 Q832.442 213.883 829.988 213.027 L829.988 208.513 Q831.933 209.647 834.247 210.226 Q836.562 210.805 839.085 210.805 Q843.483 210.805 845.775 209.069 Q848.09 207.333 848.09 204.022 Q848.09 200.967 845.937 199.254 Q843.807 197.518 839.988 197.518 L835.96 197.518 L835.96 193.675 L840.173 193.675 Q843.622 193.675 845.451 192.309 Q847.28 190.921 847.28 188.328 Q847.28 185.666 845.382 184.254 Q843.507 182.819 839.988 182.819 Q838.067 182.819 835.868 183.235 Q833.669 183.652 831.03 184.532 L831.03 180.365 Q833.692 179.624 836.007 179.254 Q838.345 178.884 840.405 178.884 Q845.729 178.884 848.831 181.314 Q851.932 183.722 851.932 187.842 Q851.932 190.712 850.289 192.703 Q848.645 194.671 845.613 195.434 Z" fill="#000000" fill-rule="evenodd" fill-opacity="1" /><path clip-path="url(#clip050)" d="M860.335 178.097 L864.039 178.097 Q867.511 183.56 869.224 188.791 Q870.96 194.022 870.96 199.184 Q870.96 204.37 869.224 209.624 Q867.511 214.879 864.039 220.319 L860.335 220.319 Q863.414 215.018 864.918 209.786 Q866.446 204.532 866.446 199.184 Q866.446 193.837 864.918 188.629 Q863.414 183.421 860.335 178.097 Z" fill="#000000" fill-rule="evenodd" fill-opacity="1" /></svg>
