<?xml version="1.0" encoding="utf-8"?>
<svg xmlns="http://www.w3.org/2000/svg" xmlns:xlink="http://www.w3.org/1999/xlink" width="600" height="400" viewBox="0 0 2400 1600">
<defs>
  <clipPath id="clip820">
    <rect x="0" y="0" width="2400" height="1600"/>
  </clipPath>
</defs>
<path clip-path="url(#clip820)" d="M0 1600 L2400 1600 L2400 0 L0 0  Z" fill="#ffffff" fill-rule="evenodd" fill-opacity="1"/>
<defs>
  <clipPath id="clip821">
    <rect x="480" y="0" width="1681" height="1600"/>
  </clipPath>
</defs>
<path clip-path="url(#clip820)" d="M303.503 1401.58 L2352.76 1401.58 L2352.76 47.2441 L303.503 47.2441  Z" fill="#ffffff" fill-rule="evenodd" fill-opacity="1"/>
<defs>
  <clipPath id="clip822">
    <rect x="303" y="47" width="2050" height="1355"/>
  </clipPath>
</defs>
<polyline clip-path="url(#clip822)" style="stroke:#000000; stroke-linecap:round; stroke-linejoin:round; stroke-width:2; stroke-opacity:0.1; fill:none" points="361.501,1401.58 361.501,47.2441 "/>
<polyline clip-path="url(#clip822)" style="stroke:#000000; stroke-linecap:round; stroke-linejoin:round; stroke-width:2; stroke-opacity:0.1; fill:none" points="748.152,1401.58 748.152,47.2441 "/>
<polyline clip-path="url(#clip822)" style="stroke:#000000; stroke-linecap:round; stroke-linejoin:round; stroke-width:2; stroke-opacity:0.1; fill:none" points="1134.8,1401.58 1134.8,47.2441 "/>
<polyline clip-path="url(#clip822)" style="stroke:#000000; stroke-linecap:round; stroke-linejoin:round; stroke-width:2; stroke-opacity:0.1; fill:none" points="1521.46,1401.58 1521.46,47.2441 "/>
<polyline clip-path="url(#clip822)" style="stroke:#000000; stroke-linecap:round; stroke-linejoin:round; stroke-width:2; stroke-opacity:0.1; fill:none" points="1908.11,1401.58 1908.11,47.2441 "/>
<polyline clip-path="url(#clip822)" style="stroke:#000000; stroke-linecap:round; stroke-linejoin:round; stroke-width:2; stroke-opacity:0.1; fill:none" points="2294.76,1401.58 2294.76,47.2441 "/>
<polyline clip-path="url(#clip820)" style="stroke:#000000; stroke-linecap:round; stroke-linejoin:round; stroke-width:4; stroke-opacity:1; fill:none" points="303.503,1401.58 2352.76,1401.58 "/>
<polyline clip-path="url(#clip820)" style="stroke:#000000; stroke-linecap:round; stroke-linejoin:round; stroke-width:4; stroke-opacity:1; fill:none" points="361.501,1401.58 361.501,1382.68 "/>
<polyline clip-path="url(#clip820)" style="stroke:#000000; stroke-linecap:round; stroke-linejoin:round; stroke-width:4; stroke-opacity:1; fill:none" points="748.152,1401.58 748.152,1382.68 "/>
<polyline clip-path="url(#clip820)" style="stroke:#000000; stroke-linecap:round; stroke-linejoin:round; stroke-width:4; stroke-opacity:1; fill:none" points="1134.8,1401.58 1134.8,1382.68 "/>
<polyline clip-path="url(#clip820)" style="stroke:#000000; stroke-linecap:round; stroke-linejoin:round; stroke-width:4; stroke-opacity:1; fill:none" points="1521.46,1401.58 1521.46,1382.68 "/>
<polyline clip-path="url(#clip820)" style="stroke:#000000; stroke-linecap:round; stroke-linejoin:round; stroke-width:4; stroke-opacity:1; fill:none" points="1908.11,1401.58 1908.11,1382.68 "/>
<polyline clip-path="url(#clip820)" style="stroke:#000000; stroke-linecap:round; stroke-linejoin:round; stroke-width:4; stroke-opacity:1; fill:none" points="2294.76,1401.58 2294.76,1382.68 "/>
<path clip-path="url(#clip820)" d="M361.501 1438.36 Q356.084 1438.36 353.341 1443.71 Q350.633 1449.02 350.633 1459.71 Q350.633 1470.37 353.341 1475.72 Q356.084 1481.03 361.501 1481.03 Q366.952 1481.03 369.66 1475.72 Q372.403 1470.37 372.403 1459.71 Q372.403 1449.02 369.66 1443.71 Q366.952 1438.36 361.501 1438.36 M361.501 1432.8 Q370.216 1432.8 374.799 1439.71 Q379.417 1446.59 379.417 1459.71 Q379.417 1472.8 374.799 1479.71 Q370.216 1486.59 361.501 1486.59 Q352.785 1486.59 348.167 1479.71 Q343.584 1472.8 343.584 1459.71 Q343.584 1446.59 348.167 1439.71 Q352.785 1432.8 361.501 1432.8 Z" fill="#000000" fill-rule="nonzero" fill-opacity="1" /><path clip-path="url(#clip820)" d="M733.725 1479.68 L745.183 1479.68 L745.183 1440.13 L732.718 1442.63 L732.718 1436.24 L745.114 1433.74 L752.128 1433.74 L752.128 1479.68 L763.586 1479.68 L763.586 1485.58 L733.725 1485.58 L733.725 1479.68 Z" fill="#000000" fill-rule="nonzero" fill-opacity="1" /><path clip-path="url(#clip820)" d="M1126.78 1479.68 L1151.26 1479.68 L1151.26 1485.58 L1118.35 1485.58 L1118.35 1479.68 Q1122.34 1475.55 1129.21 1468.6 Q1136.12 1461.62 1137.89 1459.61 Q1141.26 1455.82 1142.58 1453.22 Q1143.94 1450.58 1143.94 1448.05 Q1143.94 1443.91 1141.02 1441.31 Q1138.14 1438.71 1133.48 1438.71 Q1130.19 1438.71 1126.51 1439.85 Q1122.86 1441 1118.69 1443.32 L1118.69 1436.24 Q1122.93 1434.54 1126.61 1433.67 Q1130.29 1432.8 1133.35 1432.8 Q1141.4 1432.8 1146.19 1436.83 Q1150.98 1440.86 1150.98 1447.59 Q1150.98 1450.79 1149.77 1453.67 Q1148.59 1456.52 1145.43 1460.41 Q1144.56 1461.41 1139.91 1466.24 Q1135.26 1471.03 1126.78 1479.68 Z" fill="#000000" fill-rule="nonzero" fill-opacity="1" /><path clip-path="url(#clip820)" d="M1527.83 1457.63 Q1532.86 1458.7 1535.67 1462.11 Q1538.52 1465.51 1538.52 1470.51 Q1538.52 1478.18 1533.24 1482.39 Q1527.97 1486.59 1518.24 1486.59 Q1514.98 1486.59 1511.51 1485.93 Q1508.07 1485.3 1504.39 1484.02 L1504.39 1477.25 Q1507.31 1478.95 1510.78 1479.82 Q1514.25 1480.68 1518.04 1480.68 Q1524.63 1480.68 1528.07 1478.08 Q1531.54 1475.48 1531.54 1470.51 Q1531.54 1465.93 1528.31 1463.36 Q1525.12 1460.75 1519.39 1460.75 L1513.35 1460.75 L1513.35 1454.99 L1519.67 1454.99 Q1524.84 1454.99 1527.58 1452.94 Q1530.33 1450.86 1530.33 1446.97 Q1530.33 1442.98 1527.48 1440.86 Q1524.67 1438.71 1519.39 1438.71 Q1516.51 1438.71 1513.21 1439.33 Q1509.91 1439.96 1505.95 1441.27 L1505.95 1435.02 Q1509.94 1433.91 1513.42 1433.36 Q1516.92 1432.8 1520.01 1432.8 Q1528 1432.8 1532.65 1436.45 Q1537.31 1440.06 1537.31 1446.24 Q1537.31 1450.55 1534.84 1453.53 Q1532.38 1456.48 1527.83 1457.63 Z" fill="#000000" fill-rule="nonzero" fill-opacity="1" /><path clip-path="url(#clip820)" d="M1912.62 1439.85 L1894.91 1467.52 L1912.62 1467.52 L1912.62 1439.85 M1910.78 1433.74 L1919.6 1433.74 L1919.6 1467.52 L1927 1467.52 L1927 1473.36 L1919.6 1473.36 L1919.6 1485.58 L1912.62 1485.58 L1912.62 1473.36 L1889.22 1473.36 L1889.22 1466.59 L1910.78 1433.74 Z" fill="#000000" fill-rule="nonzero" fill-opacity="1" /><path clip-path="url(#clip820)" d="M2280.17 1433.74 L2307.71 1433.74 L2307.71 1439.64 L2286.6 1439.64 L2286.6 1452.35 Q2288.13 1451.83 2289.65 1451.59 Q2291.18 1451.31 2292.71 1451.31 Q2301.39 1451.31 2306.46 1456.07 Q2311.53 1460.82 2311.53 1468.95 Q2311.53 1477.32 2306.32 1481.97 Q2301.11 1486.59 2291.63 1486.59 Q2288.37 1486.59 2284.97 1486.03 Q2281.6 1485.48 2277.99 1484.36 L2277.99 1477.32 Q2281.11 1479.02 2284.45 1479.85 Q2287.78 1480.68 2291.49 1480.68 Q2297.5 1480.68 2301.01 1477.52 Q2304.52 1474.36 2304.52 1468.95 Q2304.52 1463.53 2301.01 1460.37 Q2297.5 1457.21 2291.49 1457.21 Q2288.68 1457.21 2285.87 1457.84 Q2283.09 1458.46 2280.17 1459.78 L2280.17 1433.74 Z" fill="#000000" fill-rule="nonzero" fill-opacity="1" /><path clip-path="url(#clip820)" d="M1271.74 1527.62 L1271.74 1538.66 L1284.9 1538.66 L1284.9 1543.62 L1271.74 1543.62 L1271.74 1564.74 Q1271.74 1569.49 1273.03 1570.85 Q1274.35 1572.2 1278.34 1572.2 L1284.9 1572.2 L1284.9 1577.55 L1278.34 1577.55 Q1270.94 1577.55 1268.13 1574.8 Q1265.32 1572.03 1265.32 1564.74 L1265.32 1543.62 L1260.63 1543.62 L1260.63 1538.66 L1265.32 1538.66 L1265.32 1527.62 L1271.74 1527.62 Z" fill="#000000" fill-rule="nonzero" fill-opacity="1" /><path clip-path="url(#clip820)" d="M1315.32 1523.52 L1330.04 1523.52 L1330.04 1528.49 L1321.71 1528.49 L1321.71 1581.96 L1330.04 1581.96 L1330.04 1586.92 L1315.32 1586.92 L1315.32 1523.52 Z" fill="#000000" fill-rule="nonzero" fill-opacity="1" /><path clip-path="url(#clip820)" d="M1368.44 1539.8 L1368.44 1545.85 Q1365.73 1544.46 1362.82 1543.76 Q1359.9 1543.07 1356.78 1543.07 Q1352.02 1543.07 1349.62 1544.53 Q1347.26 1545.99 1347.26 1548.9 Q1347.26 1551.12 1348.96 1552.41 Q1350.66 1553.66 1355.8 1554.8 L1357.99 1555.29 Q1364.8 1556.75 1367.64 1559.42 Q1370.53 1562.06 1370.53 1566.82 Q1370.53 1572.24 1366.22 1575.4 Q1361.95 1578.55 1354.45 1578.55 Q1351.32 1578.55 1347.92 1577.93 Q1344.55 1577.34 1340.8 1576.12 L1340.8 1569.53 Q1344.34 1571.37 1347.78 1572.3 Q1351.22 1573.21 1354.59 1573.21 Q1359.1 1573.21 1361.53 1571.68 Q1363.96 1570.12 1363.96 1567.3 Q1363.96 1564.7 1362.19 1563.31 Q1360.46 1561.92 1354.52 1560.64 L1352.3 1560.12 Q1346.36 1558.87 1343.72 1556.3 Q1341.08 1553.69 1341.08 1549.18 Q1341.08 1543.69 1344.97 1540.71 Q1348.86 1537.72 1356.01 1537.72 Q1359.55 1537.72 1362.68 1538.24 Q1365.8 1538.76 1368.44 1539.8 Z" fill="#000000" fill-rule="nonzero" fill-opacity="1" /><path clip-path="url(#clip820)" d="M1395.63 1523.52 L1395.63 1586.92 L1380.91 1586.92 L1380.91 1581.96 L1389.21 1581.96 L1389.21 1528.49 L1380.91 1528.49 L1380.91 1523.52 L1395.63 1523.52 Z" fill="#000000" fill-rule="nonzero" fill-opacity="1" /><polyline clip-path="url(#clip822)" style="stroke:#000000; stroke-linecap:round; stroke-linejoin:round; stroke-width:2; stroke-opacity:0.1; fill:none" points="303.503,1361.96 2352.76,1361.96 "/>
<polyline clip-path="url(#clip822)" style="stroke:#000000; stroke-linecap:round; stroke-linejoin:round; stroke-width:2; stroke-opacity:0.1; fill:none" points="303.503,1096.36 2352.76,1096.36 "/>
<polyline clip-path="url(#clip822)" style="stroke:#000000; stroke-linecap:round; stroke-linejoin:round; stroke-width:2; stroke-opacity:0.1; fill:none" points="303.503,830.761 2352.76,830.761 "/>
<polyline clip-path="url(#clip822)" style="stroke:#000000; stroke-linecap:round; stroke-linejoin:round; stroke-width:2; stroke-opacity:0.1; fill:none" points="303.503,565.16 2352.76,565.16 "/>
<polyline clip-path="url(#clip822)" style="stroke:#000000; stroke-linecap:round; stroke-linejoin:round; stroke-width:2; stroke-opacity:0.1; fill:none" points="303.503,299.559 2352.76,299.559 "/>
<polyline clip-path="url(#clip820)" style="stroke:#000000; stroke-linecap:round; stroke-linejoin:round; stroke-width:4; stroke-opacity:1; fill:none" points="303.503,1401.58 303.503,47.2441 "/>
<polyline clip-path="url(#clip820)" style="stroke:#000000; stroke-linecap:round; stroke-linejoin:round; stroke-width:4; stroke-opacity:1; fill:none" points="303.503,1361.96 322.401,1361.96 "/>
<polyline clip-path="url(#clip820)" style="stroke:#000000; stroke-linecap:round; stroke-linejoin:round; stroke-width:4; stroke-opacity:1; fill:none" points="303.503,1096.36 322.401,1096.36 "/>
<polyline clip-path="url(#clip820)" style="stroke:#000000; stroke-linecap:round; stroke-linejoin:round; stroke-width:4; stroke-opacity:1; fill:none" points="303.503,830.761 322.401,830.761 "/>
<polyline clip-path="url(#clip820)" style="stroke:#000000; stroke-linecap:round; stroke-linejoin:round; stroke-width:4; stroke-opacity:1; fill:none" points="303.503,565.16 322.401,565.16 "/>
<polyline clip-path="url(#clip820)" style="stroke:#000000; stroke-linecap:round; stroke-linejoin:round; stroke-width:4; stroke-opacity:1; fill:none" points="303.503,299.559 322.401,299.559 "/>
<path clip-path="url(#clip820)" d="M136.497 1340.66 Q131.08 1340.66 128.337 1346.01 Q125.629 1351.32 125.629 1362.01 Q125.629 1372.67 128.337 1378.02 Q131.08 1383.33 136.497 1383.33 Q141.948 1383.33 144.656 1378.02 Q147.399 1372.67 147.399 1362.01 Q147.399 1351.32 144.656 1346.01 Q141.948 1340.66 136.497 1340.66 M136.497 1335.11 Q145.212 1335.11 149.795 1342.01 Q154.413 1348.89 154.413 1362.01 Q154.413 1375.1 149.795 1382.01 Q145.212 1388.89 136.497 1388.89 Q127.781 1388.89 123.163 1382.01 Q118.58 1375.1 118.58 1362.01 Q118.58 1348.89 123.163 1342.01 Q127.781 1335.11 136.497 1335.11 Z" fill="#000000" fill-rule="nonzero" fill-opacity="1" /><path clip-path="url(#clip820)" d="M166.74 1379.06 L174.066 1379.06 L174.066 1387.88 L166.74 1387.88 L166.74 1379.06 Z" fill="#000000" fill-rule="nonzero" fill-opacity="1" /><path clip-path="url(#clip820)" d="M189.413 1336.04 L216.948 1336.04 L216.948 1341.95 L195.837 1341.95 L195.837 1354.65 Q197.364 1354.13 198.892 1353.89 Q200.42 1353.61 201.948 1353.61 Q210.628 1353.61 215.698 1358.37 Q220.767 1363.13 220.767 1371.25 Q220.767 1379.62 215.559 1384.27 Q210.35 1388.89 200.871 1388.89 Q197.608 1388.89 194.205 1388.33 Q190.837 1387.78 187.226 1386.67 L187.226 1379.62 Q190.351 1381.32 193.684 1382.15 Q197.017 1382.99 200.732 1382.99 Q206.739 1382.99 210.246 1379.83 Q213.753 1376.67 213.753 1371.25 Q213.753 1365.83 210.246 1362.67 Q206.739 1359.51 200.732 1359.51 Q197.92 1359.51 195.108 1360.14 Q192.33 1360.76 189.413 1362.08 L189.413 1336.04 Z" fill="#000000" fill-rule="nonzero" fill-opacity="1" /><path clip-path="url(#clip820)" d="M249.586 1340.66 Q244.17 1340.66 241.427 1346.01 Q238.718 1351.32 238.718 1362.01 Q238.718 1372.67 241.427 1378.02 Q244.17 1383.33 249.586 1383.33 Q255.038 1383.33 257.746 1378.02 Q260.489 1372.67 260.489 1362.01 Q260.489 1351.32 257.746 1346.01 Q255.038 1340.66 249.586 1340.66 M249.586 1335.11 Q258.302 1335.11 262.885 1342.01 Q267.503 1348.89 267.503 1362.01 Q267.503 1375.1 262.885 1382.01 Q258.302 1388.89 249.586 1388.89 Q240.871 1388.89 236.253 1382.01 Q231.67 1375.1 231.67 1362.01 Q231.67 1348.89 236.253 1342.01 Q240.871 1335.11 249.586 1335.11 Z" fill="#000000" fill-rule="nonzero" fill-opacity="1" /><path clip-path="url(#clip820)" d="M137.99 1075.06 Q132.573 1075.06 129.83 1080.41 Q127.122 1085.72 127.122 1096.41 Q127.122 1107.07 129.83 1112.42 Q132.573 1117.73 137.99 1117.73 Q143.441 1117.73 146.149 1112.42 Q148.892 1107.07 148.892 1096.41 Q148.892 1085.72 146.149 1080.41 Q143.441 1075.06 137.99 1075.06 M137.99 1069.5 Q146.705 1069.5 151.288 1076.41 Q155.906 1083.29 155.906 1096.41 Q155.906 1109.5 151.288 1116.41 Q146.705 1123.29 137.99 1123.29 Q129.275 1123.29 124.657 1116.41 Q120.073 1109.5 120.073 1096.41 Q120.073 1083.29 124.657 1076.41 Q129.275 1069.5 137.99 1069.5 Z" fill="#000000" fill-rule="nonzero" fill-opacity="1" /><path clip-path="url(#clip820)" d="M168.233 1113.46 L175.559 1113.46 L175.559 1122.28 L168.233 1122.28 L168.233 1113.46 Z" fill="#000000" fill-rule="nonzero" fill-opacity="1" /><path clip-path="url(#clip820)" d="M189.066 1070.44 L222.399 1070.44 L222.399 1073.43 L203.58 1122.28 L196.253 1122.28 L213.962 1076.34 L189.066 1076.34 L189.066 1070.44 Z" fill="#000000" fill-rule="nonzero" fill-opacity="1" /><path clip-path="url(#clip820)" d="M236.149 1070.44 L263.684 1070.44 L263.684 1076.34 L242.573 1076.34 L242.573 1089.05 Q244.1 1088.53 245.628 1088.29 Q247.156 1088.01 248.684 1088.01 Q257.364 1088.01 262.434 1092.77 Q267.503 1097.52 267.503 1105.65 Q267.503 1114.02 262.295 1118.67 Q257.086 1123.29 247.607 1123.29 Q244.343 1123.29 240.941 1122.73 Q237.573 1122.18 233.961 1121.07 L233.961 1114.02 Q237.086 1115.72 240.42 1116.55 Q243.753 1117.39 247.468 1117.39 Q253.475 1117.39 256.982 1114.23 Q260.489 1111.07 260.489 1105.65 Q260.489 1100.23 256.982 1097.07 Q253.475 1093.91 247.468 1093.91 Q244.656 1093.91 241.843 1094.54 Q239.066 1095.16 236.149 1096.48 L236.149 1070.44 Z" fill="#000000" fill-rule="nonzero" fill-opacity="1" /><path clip-path="url(#clip820)" d="M122.712 850.778 L134.17 850.778 L134.17 811.23 L121.705 813.73 L121.705 807.341 L134.101 804.841 L141.115 804.841 L141.115 850.778 L152.573 850.778 L152.573 856.681 L122.712 856.681 L122.712 850.778 Z" fill="#000000" fill-rule="nonzero" fill-opacity="1" /><path clip-path="url(#clip820)" d="M166.74 847.861 L174.066 847.861 L174.066 856.681 L166.74 856.681 L166.74 847.861 Z" fill="#000000" fill-rule="nonzero" fill-opacity="1" /><path clip-path="url(#clip820)" d="M204.344 809.459 Q198.927 809.459 196.184 814.806 Q193.476 820.118 193.476 830.813 Q193.476 841.472 196.184 846.82 Q198.927 852.132 204.344 852.132 Q209.795 852.132 212.503 846.82 Q215.246 841.472 215.246 830.813 Q215.246 820.118 212.503 814.806 Q209.795 809.459 204.344 809.459 M204.344 803.903 Q213.059 803.903 217.642 810.813 Q222.26 817.688 222.26 830.813 Q222.26 843.903 217.642 850.813 Q213.059 857.688 204.344 857.688 Q195.628 857.688 191.01 850.813 Q186.427 843.903 186.427 830.813 Q186.427 817.688 191.01 810.813 Q195.628 803.903 204.344 803.903 Z" fill="#000000" fill-rule="nonzero" fill-opacity="1" /><path clip-path="url(#clip820)" d="M249.586 809.459 Q244.17 809.459 241.427 814.806 Q238.718 820.118 238.718 830.813 Q238.718 841.472 241.427 846.82 Q244.17 852.132 249.586 852.132 Q255.038 852.132 257.746 846.82 Q260.489 841.472 260.489 830.813 Q260.489 820.118 257.746 814.806 Q255.038 809.459 249.586 809.459 M249.586 803.903 Q258.302 803.903 262.885 810.813 Q267.503 817.688 267.503 830.813 Q267.503 843.903 262.885 850.813 Q258.302 857.688 249.586 857.688 Q240.871 857.688 236.253 850.813 Q231.67 843.903 231.67 830.813 Q231.67 817.688 236.253 810.813 Q240.871 803.903 249.586 803.903 Z" fill="#000000" fill-rule="nonzero" fill-opacity="1" /><path clip-path="url(#clip820)" d="M124.205 585.177 L135.663 585.177 L135.663 545.629 L123.198 548.129 L123.198 541.74 L135.594 539.24 L142.608 539.24 L142.608 585.177 L154.066 585.177 L154.066 591.08 L124.205 591.08 L124.205 585.177 Z" fill="#000000" fill-rule="nonzero" fill-opacity="1" /><path clip-path="url(#clip820)" d="M168.233 582.26 L175.559 582.26 L175.559 591.08 L168.233 591.08 L168.233 582.26 Z" fill="#000000" fill-rule="nonzero" fill-opacity="1" /><path clip-path="url(#clip820)" d="M196.878 585.177 L221.357 585.177 L221.357 591.08 L188.441 591.08 L188.441 585.177 Q192.434 581.045 199.309 574.101 Q206.219 567.122 207.989 565.108 Q211.357 561.323 212.677 558.719 Q214.031 556.08 214.031 553.545 Q214.031 549.413 211.114 546.809 Q208.232 544.205 203.58 544.205 Q200.281 544.205 196.601 545.351 Q192.955 546.497 188.788 548.823 L188.788 541.74 Q193.024 540.038 196.705 539.17 Q200.385 538.302 203.441 538.302 Q211.496 538.302 216.288 542.33 Q221.08 546.358 221.08 553.094 Q221.08 556.288 219.864 559.17 Q218.684 562.017 215.524 565.906 Q214.656 566.913 210.003 571.74 Q205.351 576.531 196.878 585.177 Z" fill="#000000" fill-rule="nonzero" fill-opacity="1" /><path clip-path="url(#clip820)" d="M236.149 539.24 L263.684 539.24 L263.684 545.143 L242.573 545.143 L242.573 557.851 Q244.1 557.33 245.628 557.087 Q247.156 556.809 248.684 556.809 Q257.364 556.809 262.434 561.566 Q267.503 566.323 267.503 574.448 Q267.503 582.816 262.295 587.469 Q257.086 592.087 247.607 592.087 Q244.343 592.087 240.941 591.531 Q237.573 590.976 233.961 589.865 L233.961 582.816 Q237.086 584.517 240.42 585.351 Q243.753 586.184 247.468 586.184 Q253.475 586.184 256.982 583.024 Q260.489 579.865 260.489 574.448 Q260.489 569.031 256.982 565.872 Q253.475 562.712 247.468 562.712 Q244.656 562.712 241.843 563.337 Q239.066 563.962 236.149 565.281 L236.149 539.24 Z" fill="#000000" fill-rule="nonzero" fill-opacity="1" /><path clip-path="url(#clip820)" d="M122.712 319.576 L134.17 319.576 L134.17 280.028 L121.705 282.528 L121.705 276.139 L134.101 273.639 L141.115 273.639 L141.115 319.576 L152.573 319.576 L152.573 325.479 L122.712 325.479 L122.712 319.576 Z" fill="#000000" fill-rule="nonzero" fill-opacity="1" /><path clip-path="url(#clip820)" d="M166.74 316.659 L174.066 316.659 L174.066 325.479 L166.74 325.479 L166.74 316.659 Z" fill="#000000" fill-rule="nonzero" fill-opacity="1" /><path clip-path="url(#clip820)" d="M189.413 273.639 L216.948 273.639 L216.948 279.542 L195.837 279.542 L195.837 292.25 Q197.364 291.729 198.892 291.486 Q200.42 291.208 201.948 291.208 Q210.628 291.208 215.698 295.965 Q220.767 300.722 220.767 308.847 Q220.767 317.215 215.559 321.868 Q210.35 326.486 200.871 326.486 Q197.608 326.486 194.205 325.93 Q190.837 325.375 187.226 324.264 L187.226 317.215 Q190.351 318.916 193.684 319.75 Q197.017 320.583 200.732 320.583 Q206.739 320.583 210.246 317.423 Q213.753 314.264 213.753 308.847 Q213.753 303.43 210.246 300.271 Q206.739 297.111 200.732 297.111 Q197.92 297.111 195.108 297.736 Q192.33 298.361 189.413 299.68 L189.413 273.639 Z" fill="#000000" fill-rule="nonzero" fill-opacity="1" /><path clip-path="url(#clip820)" d="M249.586 278.257 Q244.17 278.257 241.427 283.604 Q238.718 288.917 238.718 299.611 Q238.718 310.271 241.427 315.618 Q244.17 320.93 249.586 320.93 Q255.038 320.93 257.746 315.618 Q260.489 310.271 260.489 299.611 Q260.489 288.917 257.746 283.604 Q255.038 278.257 249.586 278.257 M249.586 272.701 Q258.302 272.701 262.885 279.611 Q267.503 286.486 267.503 299.611 Q267.503 312.701 262.885 319.611 Q258.302 326.486 249.586 326.486 Q240.871 326.486 236.253 319.611 Q231.67 312.701 231.67 299.611 Q231.67 286.486 236.253 279.611 Q240.871 272.701 249.586 272.701 Z" fill="#000000" fill-rule="nonzero" fill-opacity="1" /><path clip-path="url(#clip820)" d="M35.6047 1006.89 Q31.2992 1004.5 29.2506 1001.16 Q27.202 997.831 27.202 993.317 Q27.202 987.24 31.4728 983.942 Q35.7089 980.643 43.5561 980.643 L67.0282 980.643 L67.0282 987.067 L43.7644 987.067 Q38.1741 987.067 35.4658 989.046 Q32.7575 991.025 32.7575 995.088 Q32.7575 1000.05 36.0561 1002.93 Q39.3547 1005.82 45.0491 1005.82 L67.0282 1005.82 L67.0282 1012.24 L43.7644 1012.24 Q38.1394 1012.24 35.4658 1014.22 Q32.7575 1016.2 32.7575 1020.33 Q32.7575 1025.23 36.0908 1028.11 Q39.3894 1030.99 45.0491 1030.99 L67.0282 1030.99 L67.0282 1037.41 L28.1395 1037.41 L28.1395 1030.99 L34.1811 1030.99 Q30.6047 1028.8 28.9034 1025.75 Q27.202 1022.69 27.202 1018.49 Q27.202 1014.25 29.3547 1011.3 Q31.5075 1008.32 35.6047 1006.89 Z" fill="#000000" fill-rule="nonzero" fill-opacity="1" /><path clip-path="url(#clip820)" d="M47.4797 950.227 Q47.4797 957.97 49.2505 960.956 Q51.0213 963.942 55.2921 963.942 Q58.6949 963.942 60.7087 961.72 Q62.6879 959.463 62.6879 955.609 Q62.6879 950.296 58.9379 947.102 Q55.1532 943.873 48.9033 943.873 L47.4797 943.873 L47.4797 950.227 M44.8408 937.484 L67.0282 937.484 L67.0282 943.873 L61.1254 943.873 Q64.6671 946.06 66.3684 949.324 Q68.0351 952.588 68.0351 957.31 Q68.0351 963.282 64.7018 966.824 Q61.3337 970.331 55.7088 970.331 Q49.1463 970.331 45.813 965.956 Q42.4797 961.546 42.4797 952.831 L42.4797 943.873 L41.8547 943.873 Q37.445 943.873 35.0492 946.789 Q32.6186 949.671 32.6186 954.914 Q32.6186 958.248 33.4172 961.407 Q34.2158 964.567 35.813 967.484 L29.9103 967.484 Q28.5561 963.977 27.8964 960.678 Q27.202 957.379 27.202 954.254 Q27.202 945.817 31.577 941.65 Q35.9519 937.484 44.8408 937.484 Z" fill="#000000" fill-rule="nonzero" fill-opacity="1" /><path clip-path="url(#clip820)" d="M29.2853 899.533 L35.3269 899.533 Q33.9381 902.241 33.2436 905.158 Q32.5492 908.074 32.5492 911.199 Q32.5492 915.956 34.0075 918.352 Q35.4658 920.713 38.3825 920.713 Q40.6047 920.713 41.8894 919.012 Q43.1394 917.31 44.2852 912.171 L44.7713 909.984 Q46.2297 903.178 48.9033 900.331 Q51.5421 897.449 56.299 897.449 Q61.7157 897.449 64.8754 901.755 Q68.0351 906.026 68.0351 913.526 Q68.0351 916.651 67.4101 920.053 Q66.8198 923.421 65.6046 927.171 L59.0074 927.171 Q60.8476 923.63 61.7851 920.192 Q62.6879 916.755 62.6879 913.387 Q62.6879 908.873 61.1601 906.442 Q59.5976 904.012 56.7852 904.012 Q54.181 904.012 52.7921 905.783 Q51.4032 907.519 50.1185 913.456 L49.5977 915.678 Q48.3477 921.616 45.7783 924.255 Q43.1741 926.894 38.6603 926.894 Q33.1742 926.894 30.1881 923.005 Q27.202 919.116 27.202 911.963 Q27.202 908.421 27.7228 905.296 Q28.2436 902.171 29.2853 899.533 Z" fill="#000000" fill-rule="nonzero" fill-opacity="1" /><path clip-path="url(#clip820)" d="M29.2853 862.484 L35.3269 862.484 Q33.9381 865.192 33.2436 868.109 Q32.5492 871.026 32.5492 874.151 Q32.5492 878.908 34.0075 881.303 Q35.4658 883.665 38.3825 883.665 Q40.6047 883.665 41.8894 881.963 Q43.1394 880.262 44.2852 875.123 L44.7713 872.935 Q46.2297 866.13 48.9033 863.283 Q51.5421 860.401 56.299 860.401 Q61.7157 860.401 64.8754 864.706 Q68.0351 868.977 68.0351 876.477 Q68.0351 879.602 67.4101 883.005 Q66.8198 886.373 65.6046 890.123 L59.0074 890.123 Q60.8476 886.581 61.7851 883.144 Q62.6879 879.706 62.6879 876.338 Q62.6879 871.824 61.1601 869.394 Q59.5976 866.963 56.7852 866.963 Q54.181 866.963 52.7921 868.734 Q51.4032 870.47 50.1185 876.408 L49.5977 878.63 Q48.3477 884.567 45.7783 887.206 Q43.1741 889.845 38.6603 889.845 Q33.1742 889.845 30.1881 885.956 Q27.202 882.067 27.202 874.915 Q27.202 871.373 27.7228 868.248 Q28.2436 865.123 29.2853 862.484 Z" fill="#000000" fill-rule="nonzero" fill-opacity="1" /><path clip-path="url(#clip820)" d="M61.1949 821.443 L81.8197 821.443 L81.8197 827.866 L28.1395 827.866 L28.1395 821.443 L34.0422 821.443 Q30.57 819.429 28.9034 816.373 Q27.202 813.283 27.202 809.012 Q27.202 801.929 32.827 797.519 Q38.4519 793.075 47.6185 793.075 Q56.7852 793.075 62.4101 797.519 Q68.0351 801.929 68.0351 809.012 Q68.0351 813.283 66.3684 816.373 Q64.6671 819.429 61.1949 821.443 M47.6185 799.707 Q40.57 799.707 36.5769 802.623 Q32.5492 805.505 32.5492 810.575 Q32.5492 815.644 36.5769 818.561 Q40.57 821.443 47.6185 821.443 Q54.6671 821.443 58.6949 818.561 Q62.6879 815.644 62.6879 810.575 Q62.6879 805.505 58.6949 802.623 Q54.6671 799.707 47.6185 799.707 Z" fill="#000000" fill-rule="nonzero" fill-opacity="1" /><path clip-path="url(#clip820)" d="M32.6186 767.415 Q32.6186 772.554 36.6464 775.54 Q40.6394 778.526 47.6185 778.526 Q54.5977 778.526 58.6254 775.575 Q62.6185 772.589 62.6185 767.415 Q62.6185 762.311 58.5907 759.325 Q54.5629 756.339 47.6185 756.339 Q40.7089 756.339 36.6811 759.325 Q32.6186 762.311 32.6186 767.415 M27.202 767.415 Q27.202 759.082 32.6186 754.325 Q38.0353 749.568 47.6185 749.568 Q57.1671 749.568 62.6185 754.325 Q68.0351 759.082 68.0351 767.415 Q68.0351 775.783 62.6185 780.54 Q57.1671 785.262 47.6185 785.262 Q38.0353 785.262 32.6186 780.54 Q27.202 775.783 27.202 767.415 Z" fill="#000000" fill-rule="nonzero" fill-opacity="1" /><path clip-path="url(#clip820)" d="M29.2853 714.186 L35.3269 714.186 Q33.9381 716.895 33.2436 719.811 Q32.5492 722.728 32.5492 725.853 Q32.5492 730.61 34.0075 733.006 Q35.4658 735.367 38.3825 735.367 Q40.6047 735.367 41.8894 733.665 Q43.1394 731.964 44.2852 726.825 L44.7713 724.638 Q46.2297 717.832 48.9033 714.985 Q51.5421 712.103 56.299 712.103 Q61.7157 712.103 64.8754 716.409 Q68.0351 720.679 68.0351 728.179 Q68.0351 731.304 67.4101 734.707 Q66.8198 738.075 65.6046 741.825 L59.0074 741.825 Q60.8476 738.283 61.7851 734.846 Q62.6879 731.408 62.6879 728.04 Q62.6879 723.527 61.1601 721.096 Q59.5976 718.665 56.7852 718.665 Q54.181 718.665 52.7921 720.436 Q51.4032 722.172 50.1185 728.11 L49.5977 730.332 Q48.3477 736.27 45.7783 738.908 Q43.1741 741.547 38.6603 741.547 Q33.1742 741.547 30.1881 737.658 Q27.202 733.77 27.202 726.617 Q27.202 723.075 27.7228 719.95 Q28.2436 716.825 29.2853 714.186 Z" fill="#000000" fill-rule="nonzero" fill-opacity="1" /><path clip-path="url(#clip820)" d="M28.1395 701.929 L28.1395 695.541 L67.0282 695.541 L67.0282 701.929 L28.1395 701.929 M13.0007 701.929 L13.0007 695.541 L21.0909 695.541 L21.0909 701.929 L13.0007 701.929 Z" fill="#000000" fill-rule="nonzero" fill-opacity="1" /><path clip-path="url(#clip820)" d="M17.0979 675.853 L28.1395 675.853 L28.1395 662.694 L33.1047 662.694 L33.1047 675.853 L54.2157 675.853 Q58.9726 675.853 60.3268 674.568 Q61.681 673.249 61.681 669.256 L61.681 662.694 L67.0282 662.694 L67.0282 669.256 Q67.0282 676.652 64.2851 679.464 Q61.5074 682.277 54.2157 682.277 L33.1047 682.277 L33.1047 686.964 L28.1395 686.964 L28.1395 682.277 L17.0979 682.277 L17.0979 675.853 Z" fill="#000000" fill-rule="nonzero" fill-opacity="1" /><path clip-path="url(#clip820)" d="M28.1395 654.291 L28.1395 647.902 L67.0282 647.902 L67.0282 654.291 L28.1395 654.291 M13.0007 654.291 L13.0007 647.902 L21.0909 647.902 L21.0909 654.291 L13.0007 654.291 Z" fill="#000000" fill-rule="nonzero" fill-opacity="1" /><path clip-path="url(#clip820)" d="M32.6186 619.465 Q32.6186 624.603 36.6464 627.59 Q40.6394 630.576 47.6185 630.576 Q54.5977 630.576 58.6254 627.624 Q62.6185 624.638 62.6185 619.465 Q62.6185 614.36 58.5907 611.374 Q54.5629 608.388 47.6185 608.388 Q40.7089 608.388 36.6811 611.374 Q32.6186 614.36 32.6186 619.465 M27.202 619.465 Q27.202 611.131 32.6186 606.374 Q38.0353 601.617 47.6185 601.617 Q57.1671 601.617 62.6185 606.374 Q68.0351 611.131 68.0351 619.465 Q68.0351 627.833 62.6185 632.59 Q57.1671 637.312 47.6185 637.312 Q38.0353 637.312 32.6186 632.59 Q27.202 627.833 27.202 619.465 Z" fill="#000000" fill-rule="nonzero" fill-opacity="1" /><path clip-path="url(#clip820)" d="M43.5561 558.701 L67.0282 558.701 L67.0282 565.09 L43.7644 565.09 Q38.2436 565.09 35.5005 567.243 Q32.7575 569.395 32.7575 573.701 Q32.7575 578.875 36.0561 581.861 Q39.3547 584.847 45.0491 584.847 L67.0282 584.847 L67.0282 591.27 L28.1395 591.27 L28.1395 584.847 L34.1811 584.847 Q30.6742 582.555 28.9381 579.465 Q27.202 576.34 27.202 572.277 Q27.202 565.576 31.3686 562.139 Q35.5005 558.701 43.5561 558.701 Z" fill="#000000" fill-rule="nonzero" fill-opacity="1" /><path clip-path="url(#clip820)" d="M13.0007 523.944 L13.0007 509.222 L17.9659 509.222 L17.9659 517.555 L71.4379 517.555 L71.4379 509.222 L76.4031 509.222 L76.4031 523.944 L13.0007 523.944 Z" fill="#000000" fill-rule="nonzero" fill-opacity="1" /><path clip-path="url(#clip820)" d="M35.6047 465.333 Q31.2992 462.938 29.2506 459.604 Q27.202 456.271 27.202 451.757 Q27.202 445.681 31.4728 442.382 Q35.7089 439.084 43.5561 439.084 L67.0282 439.084 L67.0282 445.507 L43.7644 445.507 Q38.1741 445.507 35.4658 447.486 Q32.7575 449.466 32.7575 453.528 Q32.7575 458.493 36.0561 461.375 Q39.3547 464.257 45.0491 464.257 L67.0282 464.257 L67.0282 470.681 L43.7644 470.681 Q38.1394 470.681 35.4658 472.66 Q32.7575 474.639 32.7575 478.771 Q32.7575 483.667 36.0908 486.549 Q39.3894 489.431 45.0491 489.431 L67.0282 489.431 L67.0282 495.854 L28.1395 495.854 L28.1395 489.431 L34.1811 489.431 Q30.6047 487.243 28.9034 484.188 Q27.202 481.132 27.202 476.931 Q27.202 472.695 29.3547 469.743 Q31.5075 466.757 35.6047 465.333 Z" fill="#000000" fill-rule="nonzero" fill-opacity="1" /><path clip-path="url(#clip820)" d="M13.0007 411.41 L76.4031 411.41 L76.4031 426.132 L71.4379 426.132 L71.4379 417.834 L17.9659 417.834 L17.9659 426.132 L13.0007 426.132 L13.0007 411.41 Z" fill="#000000" fill-rule="nonzero" fill-opacity="1" /><polyline clip-path="url(#clip822)" style="stroke:#009af9; stroke-linecap:round; stroke-linejoin:round; stroke-width:8; stroke-opacity:1; fill:none" points="361.501,1361.96 365.367,1361.63 369.234,1360.67 373.1,1359.08 376.967,1356.85 380.833,1353.99 384.7,1350.51 388.566,1346.39 392.433,1341.66 396.299,1336.31 400.166,1330.34 404.032,1323.77 407.899,1316.6 411.765,1308.85 415.632,1300.5 419.498,1291.59 423.365,1282.1 427.231,1272.06 431.098,1261.48 434.964,1250.35 438.831,1238.7 442.698,1226.54 446.564,1213.87 450.431,1200.71 454.297,1187.08 458.164,1172.99 462.03,1158.44 465.897,1143.47 469.763,1128.08 473.63,1112.28 477.496,1096.1 481.363,1079.55 485.229,1062.63 489.096,1045.38 492.962,1027.81 496.829,1009.94 500.695,991.785 504.562,973.358 508.428,954.678 512.295,935.763 516.161,916.636 520.028,897.318 523.894,877.825 527.761,858.176 531.627,838.392 535.494,818.493 539.36,798.499 543.227,778.426 547.093,758.297 550.96,738.133 554.826,717.956 558.693,697.786 562.559,677.644 566.426,657.548 570.293,637.513 574.159,617.565 578.026,597.724 581.892,578.011 585.759,558.448 589.625,539.055 593.492,519.839 597.358,500.828 601.225,482.04 605.091,463.496 608.958,445.216 612.824,427.217 616.691,409.516 620.557,392.125 624.424,375.067 628.29,358.359 632.157,342.018 636.023,326.062 639.89,310.507 643.756,295.363 647.623,280.646 651.489,266.373 655.356,252.559 659.222,239.218 663.089,226.365 666.955,214.011 670.822,202.163 674.688,190.837 678.555,180.046 682.421,169.8 686.288,160.111 690.154,150.988 694.021,142.437 697.887,134.466 701.754,127.085 705.621,120.303 709.487,114.126 713.354,108.561 717.22,103.613 721.087,99.2832 724.953,95.579 728.82,92.5042 732.686,90.0622 736.553,88.2558 740.419,87.087 744.286,86.5554 748.152,86.6609 752.019,87.4047 755.885,88.7862 759.752,90.8041 763.618,93.4565 767.485,96.7409 771.351,100.653 775.218,105.189 779.084,110.344 782.951,116.115 786.817,122.494 790.684,129.476 794.55,137.053 798.417,145.218 802.283,153.963 806.15,163.279 810.016,173.157 813.883,183.586 817.749,194.555 821.616,206.056 825.482,218.077 829.349,230.604 833.216,243.626 837.082,257.128 840.949,271.096 844.815,285.519 848.682,300.383 852.548,315.672 856.415,331.37 860.281,347.461 864.148,363.928 868.014,380.754 871.881,397.927 875.747,415.429 879.614,433.239 883.48,451.341 887.347,469.715 891.213,488.343 895.08,507.206 898.946,526.291 902.813,545.575 906.679,565.038 910.546,584.659 914.412,604.419 918.279,624.297 922.145,644.279 926.012,664.343 929.878,684.468 933.745,704.632 937.611,724.815 941.478,744.995 945.344,765.154 949.211,785.278 953.077,805.341 956.944,825.324 960.811,845.205 964.677,864.963 968.544,884.578 972.41,904.036 976.277,923.318 980.143,942.401 984.01,961.265 987.876,979.892 991.743,998.26 995.609,1016.35 999.476,1034.16 1003.34,1051.66 1007.21,1068.83 1011.08,1085.65 1014.94,1102.11 1018.81,1118.2 1022.67,1133.88 1026.54,1149.17 1030.41,1164.03 1034.27,1178.45 1038.14,1192.41 1042.01,1205.9 1045.87,1218.91 1049.74,1231.43 1053.61,1243.45 1057.47,1254.94 1061.34,1265.9 1065.21,1276.32 1069.07,1286.19 1072.94,1295.49 1076.81,1304.23 1080.67,1312.39 1084.54,1319.95 1088.41,1326.93 1092.27,1333.29 1096.14,1339.05 1100.01,1344.2 1103.87,1348.72 1107.74,1352.62 1111.6,1355.89 1115.47,1358.53 1119.34,1360.54 1123.2,1361.91 1127.07,1362.64 1130.94,1362.73 1134.8,1362.19 1138.67,1361 1142.54,1359.18 1146.4,1356.73 1150.27,1353.64 1154.14,1349.92 1158,1345.58 1161.87,1340.61 1165.74,1335.03 1169.6,1328.84 1173.47,1322.04 1177.34,1314.64 1181.2,1306.66 1185.07,1298.09 1188.93,1288.95 1192.8,1279.24 1196.67,1268.98 1200.53,1258.17 1204.4,1246.83 1208.27,1234.96 1212.13,1222.59 1216,1209.71 1219.87,1196.36 1223.73,1182.53 1227.6,1168.24 1231.47,1153.5 1235.33,1138.34 1239.2,1122.76 1243.07,1106.78 1246.93,1090.43 1250.8,1073.7 1254.67,1056.63 1258.53,1039.22 1262.4,1021.5 1266.27,1003.48 1270.13,985.181 1274,966.626 1277.86,947.823 1281.73,928.796 1285.6,909.565 1289.46,890.149 1293.33,870.568 1297.2,850.843 1301.06,830.992 1304.93,811.03 1308.8,790.98 1312.66,770.865 1316.53,750.704 1320.4,730.518 1324.26,710.33 1328.13,690.15 1332,670.004 1335.86,649.911 1339.73,629.894 1343.6,609.973 1347.46,590.169 1351.33,570.5 1355.2,550.979 1359.06,531.632 1362.93,512.478 1366.79,493.537 1370.66,474.829 1374.53,456.374 1378.39,438.183 1382.26,420.276 1386.13,402.673 1389.99,385.393 1393.86,368.453 1397.73,351.872 1401.59,335.665 1405.46,319.841 1409.33,304.422 1413.19,289.424 1417.06,274.862 1420.93,260.751 1424.79,247.106 1428.66,233.938 1432.53,221.256 1436.39,209.079 1440.26,197.417 1444.12,186.284 1447.99,175.691 1451.86,165.65 1455.72,156.162 1459.59,147.243 1463.46,138.902 1467.32,131.147 1471.19,123.987 1475.06,117.429 1478.92,111.479 1482.79,106.139 1486.66,101.418 1490.52,97.3201 1494.39,93.8508 1498.26,91.0134 1502.12,88.8112 1505.99,87.2427 1509.86,86.3116 1513.72,86.0191 1517.59,86.3658 1521.46,87.3514 1525.32,88.9751 1529.19,91.2349 1533.05,94.1275 1536.92,97.6508 1540.79,101.802 1544.65,106.575 1548.52,111.968 1552.39,117.973 1556.25,124.585 1560.12,131.798 1563.99,139.604 1567.85,147.996 1571.72,156.964 1575.59,166.499 1579.45,176.593 1583.32,187.236 1587.19,198.417 1591.05,210.125 1594.92,222.347 1598.79,235.071 1602.65,248.284 1606.52,261.974 1610.39,276.129 1614.25,290.733 1618.12,305.77 1621.98,321.226 1625.85,337.084 1629.72,353.329 1633.58,369.949 1637.45,386.925 1641.32,404.238 1645.18,421.871 1649.05,439.805 1652.92,458.023 1656.78,476.509 1660.65,495.246 1664.52,514.213 1668.38,533.39 1672.25,552.757 1676.12,572.294 1679.98,591.982 1683.85,611.808 1687.72,631.747 1691.58,651.779 1695.45,671.883 1699.31,692.039 1703.18,712.224 1707.05,732.423 1710.91,752.619 1714.78,772.786 1718.65,792.905 1722.51,812.954 1726.38,832.913 1730.25,852.761 1734.11,872.486 1737.98,892.065 1741.85,911.476 1745.71,930.699 1749.58,949.714 1753.45,968.502 1757.31,987.045 1761.18,1005.33 1765.05,1023.34 1768.91,1041.04 1772.78,1058.43 1776.65,1075.48 1780.51,1092.18 1784.38,1108.52 1788.24,1124.47 1792.11,1140.02 1795.98,1155.16 1799.84,1169.86 1803.71,1184.12 1807.58,1197.92 1811.44,1211.24 1815.31,1224.08 1819.18,1236.42 1823.04,1248.25 1826.91,1259.55 1830.78,1270.32 1834.64,1280.54 1838.51,1290.21 1842.38,1299.31 1846.24,1307.83 1850.11,1315.77 1853.98,1323.12 1857.84,1329.87 1861.71,1336.01 1865.58,1341.55 1869.44,1346.46 1873.31,1350.76 1877.17,1354.42 1881.04,1357.46 1884.91,1359.86 1888.77,1361.63 1892.64,1362.76 1896.51,1363.25 1900.37,1363.1 1904.24,1362.31 1908.11,1360.89 1911.97,1358.83 1915.84,1356.13 1919.71,1352.8 1923.57,1348.84 1927.44,1344.26 1931.31,1339.06 1935.17,1333.24 1939.04,1326.82 1942.91,1319.79 1946.77,1312.16 1950.64,1303.95 1954.5,1295.16 1958.37,1285.79 1962.24,1275.87 1966.1,1265.39 1969.97,1254.37 1973.84,1242.82 1977.7,1230.75 1981.57,1218.18 1985.44,1205.11 1989.3,1191.56 1993.17,1177.55 1997.04,1163.08 2000.9,1148.17 2004.77,1132.83 2008.64,1117.1 2012.5,1100.96 2016.37,1084.45 2020.24,1067.57 2024.1,1050.36 2027.97,1032.82 2031.84,1014.97 2035.7,996.832 2039.57,978.417 2043.43,959.748 2047.3,940.843 2051.17,921.723 2055.03,902.407 2058.9,882.916 2062.77,863.262 2066.63,843.467 2070.5,823.554 2074.37,803.541 2078.23,783.451 2082.1,763.303 2085.97,743.119 2089.83,722.909 2093.7,702.701 2097.57,682.515 2101.43,662.372 2105.3,642.293 2109.17,622.298 2113.03,602.404 2116.9,582.628 2120.77,562.993 2124.63,543.521 2128.5,524.231 2132.36,505.144 2136.23,486.278 2140.1,467.644 2143.96,449.267 2147.83,431.165 2151.7,413.358 2155.56,395.864 2159.43,378.7 2163.3,361.882 2167.16,345.422 2171.03,329.342 2174.9,313.657 2178.76,298.384 2182.63,283.54 2186.5,269.139 2190.36,255.189 2194.23,241.707 2198.1,228.708 2201.96,216.206 2205.83,204.214 2209.69,192.745 2213.56,181.808 2217.43,171.409 2221.29,161.564 2225.16,152.283 2229.03,143.575 2232.89,135.449 2236.76,127.915 2240.63,120.974 2244.49,114.637 2248.36,108.91 2252.23,103.799 2256.09,99.3096 2259.96,95.4472 2263.83,92.2148 2267.69,89.6125 2271.56,87.6455 2275.43,86.3159 2279.29,85.6252 2283.16,85.5744 2287.03,86.1637 2290.89,87.3909 2294.76,89.2551 "/>
<polyline clip-path="url(#clip822)" style="stroke:#e26f46; stroke-linecap:round; stroke-linejoin:round; stroke-width:8; stroke-opacity:1; fill:none" points="361.501,1361.96 365.367,1361.73 369.234,1361.04 373.1,1359.89 376.967,1358.29 380.833,1356.23 384.7,1353.7 388.566,1350.71 392.433,1347.26 396.299,1343.35 400.166,1338.99 404.032,1334.16 407.899,1328.88 411.765,1323.15 415.632,1316.98 419.498,1310.37 423.365,1303.32 427.231,1295.85 431.098,1287.95 434.964,1279.64 438.831,1270.92 442.698,1261.8 446.564,1252.29 450.431,1242.4 454.297,1232.13 458.164,1221.51 462.03,1210.54 465.897,1199.23 469.763,1187.59 473.63,1175.62 477.496,1163.35 481.363,1150.78 485.229,1137.94 489.096,1124.83 492.962,1111.45 496.829,1097.84 500.695,1083.99 504.562,1069.92 508.428,1055.64 512.295,1041.18 516.161,1026.55 520.028,1011.75 523.894,996.814 527.761,981.742 531.627,966.555 535.494,951.267 539.36,935.893 543.227,920.45 547.093,904.955 550.96,889.422 554.826,873.87 558.693,858.31 562.559,842.756 566.426,827.226 570.293,811.737 574.159,796.306 578.026,780.948 581.892,765.681 585.759,750.51 589.625,735.456 593.492,720.534 597.358,705.762 601.225,691.153 605.091,676.724 608.958,662.485 612.824,648.449 616.691,634.633 620.557,621.051 624.424,607.718 628.29,594.646 632.157,581.851 636.023,569.339 639.89,557.126 643.756,545.225 647.623,533.648 651.489,522.408 655.356,511.517 659.222,500.985 663.089,490.819 666.955,481.033 670.822,471.637 674.688,462.642 678.555,454.057 682.421,445.892 686.288,438.154 690.154,430.851 694.021,423.992 697.887,417.587 701.754,411.641 705.621,406.164 709.487,401.161 713.354,396.639 717.22,392.604 721.087,389.063 724.953,386.021 728.82,383.484 732.686,381.457 736.553,379.945 740.419,378.952 744.286,378.483 748.152,378.547 752.019,378.979 755.885,379.782 759.752,380.96 763.618,382.516 767.485,384.454 771.351,386.774 775.218,389.476 779.084,392.559 782.951,396.024 786.817,399.868 790.684,404.09 794.55,408.686 798.417,413.652 802.283,418.98 806.15,424.671 810.016,430.721 813.883,437.128 817.749,443.883 821.616,450.97 825.482,458.394 829.349,466.15 833.216,474.233 837.082,482.635 840.949,491.332 844.815,500.328 848.682,509.618 852.548,519.194 856.415,529.047 860.281,539.152 864.148,549.51 868.014,560.113 871.881,570.952 875.747,582.019 879.614,593.286 883.48,604.754 887.347,616.412 891.213,628.249 895.08,640.256 898.946,652.409 902.813,664.704 906.679,677.128 910.546,689.671 914.412,702.32 918.279,715.058 922.145,727.874 926.012,740.756 929.878,753.692 933.745,766.671 937.611,779.675 941.478,792.693 945.344,805.712 949.211,818.72 953.077,831.704 956.944,844.651 960.811,857.546 964.677,870.377 968.544,883.133 972.41,895.798 976.277,908.362 980.143,920.813 984.01,933.136 987.876,945.319 991.743,957.349 995.609,969.216 999.476,980.909 1003.34,992.415 1007.21,1003.72 1011.08,1014.81 1014.94,1025.68 1018.81,1036.32 1022.67,1046.72 1026.54,1056.86 1030.41,1066.74 1034.27,1076.33 1038.14,1085.65 1042.01,1094.67 1045.87,1103.39 1049.74,1111.79 1053.61,1119.86 1057.47,1127.62 1061.34,1135.03 1065.21,1142.09 1069.07,1148.8 1072.94,1155.13 1076.81,1161.11 1080.67,1166.71 1084.54,1171.92 1088.41,1176.74 1092.27,1181.16 1096.14,1185.18 1100.01,1188.79 1103.87,1191.99 1107.74,1194.76 1111.6,1197.11 1115.47,1199.03 1119.34,1200.53 1123.2,1201.58 1127.07,1202.19 1130.94,1202.35 1134.8,1202.1 1138.67,1201.6 1142.54,1200.81 1146.4,1199.72 1150.27,1198.34 1154.14,1196.66 1158,1194.68 1161.87,1192.4 1165.74,1189.82 1169.6,1186.94 1173.47,1183.76 1177.34,1180.29 1181.2,1176.52 1185.07,1172.47 1188.93,1168.12 1192.8,1163.49 1196.67,1158.58 1200.53,1153.39 1204.4,1147.92 1208.27,1142.19 1212.13,1136.19 1216,1129.94 1219.87,1123.43 1223.73,1116.67 1227.6,1109.67 1231.47,1102.44 1235.33,1094.99 1239.2,1087.31 1243.07,1079.41 1246.93,1071.31 1250.8,1063.01 1254.67,1054.52 1258.53,1045.84 1262.4,1036.99 1266.27,1027.98 1270.13,1018.81 1274,1009.49 1277.86,1000.03 1281.73,990.443 1285.6,980.738 1289.46,970.923 1293.33,961.008 1297.2,951.001 1301.06,940.912 1304.93,930.749 1308.8,920.523 1312.66,910.25 1316.53,899.936 1320.4,889.592 1324.26,879.226 1328.13,868.85 1332,858.473 1335.86,848.107 1339.73,837.76 1343.6,827.444 1347.46,817.169 1351.33,806.946 1355.2,796.786 1359.06,786.698 1362.93,776.694 1366.79,766.785 1370.66,756.977 1374.53,747.279 1378.39,737.703 1382.26,728.261 1386.13,718.961 1389.99,709.815 1393.86,700.833 1397.73,692.024 1401.59,683.39 1405.46,674.943 1409.33,666.693 1413.19,658.651 1417.06,650.824 1420.93,643.222 1424.79,635.852 1428.66,628.724 1432.53,621.837 1436.39,615.204 1440.26,608.833 1444.12,602.73 1447.99,596.904 1451.86,591.361 1455.72,586.108 1459.59,581.15 1463.46,576.489 1467.32,572.136 1471.19,568.094 1475.06,564.371 1478.92,560.97 1482.79,557.897 1486.66,555.157 1490.52,552.752 1494.39,550.688 1498.26,548.968 1502.12,547.597 1505.99,546.577 1509.86,545.913 1513.72,545.607 1517.59,545.677 1521.46,545.954 1525.32,546.426 1529.19,547.091 1533.05,547.964 1536.92,549.046 1540.79,550.338 1544.65,551.842 1548.52,553.556 1552.39,555.482 1556.25,557.619 1560.12,559.966 1563.99,562.521 1567.85,565.286 1571.72,568.255 1575.59,571.43 1579.45,574.807 1583.32,578.384 1587.19,582.158 1591.05,586.126 1594.92,590.279 1598.79,594.619 1602.65,599.144 1606.52,603.85 1610.39,608.736 1614.25,613.794 1618.12,619.01 1621.98,624.389 1625.85,629.928 1629.72,635.622 1633.58,641.469 1637.45,647.462 1641.32,653.58 1645.18,659.83 1649.05,666.207 1652.92,672.706 1656.78,679.322 1660.65,686.051 1664.52,692.869 1668.38,699.781 1672.25,706.782 1676.12,713.864 1679.98,721.024 1683.85,728.253 1687.72,735.537 1691.58,742.871 1695.45,750.252 1699.31,757.671 1703.18,765.123 1707.05,772.6 1710.91,780.09 1714.78,787.588 1718.65,795.086 1722.51,802.578 1726.38,810.057 1730.25,817.515 1734.11,824.944 1737.98,832.335 1741.85,839.682 1745.71,846.977 1749.58,854.213 1753.45,861.383 1757.31,868.48 1761.18,875.496 1765.05,882.424 1768.91,889.256 1772.78,895.985 1776.65,902.605 1780.51,909.107 1784.38,915.489 1788.24,921.742 1792.11,927.857 1795.98,933.829 1799.84,939.65 1803.71,945.313 1807.58,950.82 1811.44,956.16 1815.31,961.325 1819.18,966.309 1823.04,971.106 1826.91,975.709 1830.78,980.124 1834.64,984.338 1838.51,988.345 1842.38,992.139 1846.24,995.715 1850.11,999.067 1853.98,1002.2 1857.84,1005.11 1861.71,1007.78 1865.58,1010.21 1869.44,1012.4 1873.31,1014.34 1877.17,1016.04 1881.04,1017.48 1884.91,1018.67 1888.77,1019.6 1892.64,1020.27 1896.51,1020.67 1900.37,1020.8 1904.24,1020.73 1908.11,1020.56 1911.97,1020.27 1915.84,1019.88 1919.71,1019.36 1923.57,1018.74 1927.44,1018 1931.31,1017.15 1935.17,1016.19 1939.04,1015.11 1942.91,1013.92 1946.77,1012.62 1950.64,1011.2 1954.5,1009.67 1958.37,1008.03 1962.24,1006.28 1966.1,1004.42 1969.97,1002.46 1973.84,1000.38 1977.7,998.199 1981.57,995.914 1985.44,993.529 1989.3,991.043 1993.17,988.456 1997.04,985.77 2000.9,982.988 2004.77,980.117 2008.64,977.155 2012.5,974.105 2016.37,970.966 2020.24,967.743 2024.1,964.444 2027.97,961.068 2031.84,957.616 2035.7,954.093 2039.57,950.499 2043.43,946.843 2047.3,943.126 2051.17,939.352 2055.03,935.522 2058.9,931.64 2062.77,927.71 2066.63,923.739 2070.5,919.729 2074.37,915.682 2078.23,911.603 2082.1,907.494 2085.97,903.363 2089.83,899.213 2093.7,895.046 2097.57,890.867 2101.43,886.68 2105.3,882.49 2109.17,878.302 2113.03,874.118 2116.9,869.943 2120.77,865.781 2124.63,861.636 2128.5,857.514 2132.36,853.418 2136.23,849.351 2140.1,845.319 2143.96,841.326 2147.83,837.375 2151.7,833.471 2155.56,829.618 2159.43,825.82 2163.3,822.079 2167.16,818.402 2171.03,814.791 2174.9,811.251 2178.76,807.786 2182.63,804.4 2186.5,801.096 2190.36,797.88 2194.23,794.754 2198.1,791.72 2201.96,788.781 2205.83,785.942 2209.69,783.208 2213.56,780.581 2217.43,778.064 2221.29,775.663 2225.16,773.379 2229.03,771.217 2232.89,769.176 2236.76,767.259 2240.63,765.47 2244.49,763.812 2248.36,762.288 2252.23,760.901 2256.09,759.653 2259.96,758.547 2263.83,757.586 2267.69,756.771 2271.56,756.103 2275.43,755.584 2279.29,755.216 2283.16,755.001 2287.03,754.94 2290.89,754.94 2294.76,754.94 "/>
<polyline clip-path="url(#clip822)" style="stroke:#3da44d; stroke-linecap:round; stroke-linejoin:round; stroke-width:8; stroke-opacity:1; fill:none" points="361.501,1361.96 365.367,1353.86 369.234,1345.77 373.1,1337.71 376.967,1329.65 380.833,1321.62 384.7,1313.6 388.566,1305.6 392.433,1297.62 396.299,1289.65 400.166,1281.69 404.032,1273.75 407.899,1265.83 411.765,1257.91 415.632,1250.01 419.498,1242.13 423.365,1234.26 427.231,1226.4 431.098,1218.55 434.964,1210.71 438.831,1202.88 442.698,1195.06 446.564,1187.26 450.431,1179.46 454.297,1171.67 458.164,1163.89 462.03,1156.11 465.897,1148.35 469.763,1140.58 473.63,1132.83 477.496,1125.08 481.363,1117.33 485.229,1109.59 489.096,1101.85 492.962,1094.11 496.829,1086.37 500.695,1078.64 504.562,1070.9 508.428,1063.17 512.295,1055.43 516.161,1047.69 520.028,1039.96 523.894,1032.21 527.761,1024.47 531.627,1016.72 535.494,1008.98 539.36,1001.22 543.227,993.465 547.093,985.704 550.96,977.941 554.826,970.176 558.693,962.41 562.559,954.641 566.426,946.871 570.293,939.102 574.159,931.335 578.026,923.574 581.892,915.822 585.759,908.083 589.625,900.363 593.492,892.667 597.358,885.002 601.225,877.374 605.091,869.791 608.958,862.263 612.824,854.797 616.691,847.404 620.557,840.094 624.424,832.879 628.29,825.77 632.157,818.779 636.023,811.92 639.89,805.206 643.756,798.648 647.623,792.256 651.489,786.04 655.356,780.007 659.222,774.164 663.089,768.517 666.955,763.071 670.822,757.83 674.688,752.795 678.555,747.967 682.421,743.347 686.288,738.934 690.154,734.725 694.021,730.717 697.887,726.905 701.754,723.283 705.621,719.846 709.487,716.584 713.354,713.49 717.22,710.565 721.087,707.801 724.953,705.192 728.82,702.732 732.686,700.415 736.553,698.235 740.419,696.187 744.286,694.266 748.152,692.465 752.019,690.78 755.885,689.206 759.752,687.738 763.618,686.373 767.485,685.105 771.351,683.931 775.218,682.847 779.084,681.848 782.951,680.933 786.817,680.096 790.684,679.336 794.55,678.649 798.417,678.033 802.283,677.485 806.15,677.003 810.016,676.583 813.883,676.223 817.749,675.921 821.616,675.674 825.482,675.481 829.349,675.34 833.216,675.249 837.082,675.206 840.949,675.209 844.815,675.258 848.682,675.349 852.548,675.481 856.415,675.654 860.281,675.866 864.148,676.114 868.014,676.399 871.881,676.718 875.747,677.07 879.614,677.455 883.48,677.871 887.347,678.318 891.213,678.793 895.08,679.297 898.946,679.829 902.813,680.386 906.679,680.969 910.546,681.577 914.412,682.209 918.279,682.864 922.145,683.541 926.012,684.241 929.878,684.961 933.745,685.701 937.611,686.461 941.478,687.24 945.344,688.038 949.211,688.852 953.077,689.684 956.944,690.532 960.811,691.396 964.677,692.275 968.544,693.168 972.41,694.075 976.277,694.995 980.143,695.927 984.01,696.872 987.876,697.827 991.743,698.794 995.609,699.77 999.476,700.757 1003.34,701.752 1007.21,702.756 1011.08,703.768 1014.94,704.787 1018.81,705.813 1022.67,706.845 1026.54,707.884 1030.41,708.928 1034.27,709.977 1038.14,711.031 1042.01,712.089 1045.87,713.15 1049.74,714.215 1053.61,715.283 1057.47,716.352 1061.34,717.424 1065.21,718.497 1069.07,719.572 1072.94,720.646 1076.81,721.721 1080.67,722.796 1084.54,723.87 1088.41,724.944 1092.27,726.015 1096.14,727.085 1100.01,728.153 1103.87,729.218 1107.74,730.281 1111.6,731.34 1115.47,732.395 1119.34,733.446 1123.2,734.493 1127.07,735.535 1130.94,736.571 1134.8,737.603 1138.67,738.629 1142.54,739.649 1146.4,740.664 1150.27,741.672 1154.14,742.674 1158,743.67 1161.87,744.66 1165.74,745.643 1169.6,746.619 1173.47,747.588 1177.34,748.55 1181.2,749.505 1185.07,750.452 1188.93,751.393 1192.8,752.325 1196.67,753.251 1200.53,754.168 1204.4,755.078 1208.27,755.98 1212.13,756.874 1216,757.76 1219.87,758.638 1223.73,759.508 1227.6,760.37 1231.47,761.223 1235.33,762.068 1239.2,762.905 1243.07,763.734 1246.93,764.554 1250.8,765.366 1254.67,766.17 1258.53,766.965 1262.4,767.751 1266.27,768.53 1270.13,769.3 1274,770.063 1277.86,770.817 1281.73,771.564 1285.6,772.303 1289.46,773.034 1293.33,773.758 1297.2,774.474 1301.06,775.182 1304.93,775.883 1308.8,776.577 1312.66,777.263 1316.53,777.942 1320.4,778.613 1324.26,779.277 1328.13,779.934 1332,780.585 1335.86,781.228 1339.73,781.864 1343.6,782.493 1347.46,783.116 1351.33,783.732 1355.2,784.341 1359.06,784.944 1362.93,785.54 1366.79,786.13 1370.66,786.714 1374.53,787.292 1378.39,787.864 1382.26,788.43 1386.13,788.99 1389.99,789.544 1393.86,790.092 1397.73,790.635 1401.59,791.173 1405.46,791.705 1409.33,792.233 1413.19,792.755 1417.06,793.272 1420.93,793.784 1424.79,794.292 1428.66,794.795 1432.53,795.295 1436.39,795.79 1440.26,796.281 1444.12,796.768 1447.99,797.251 1451.86,797.73 1455.72,798.204 1459.59,798.674 1463.46,799.14 1467.32,799.601 1471.19,800.058 1475.06,800.512 1478.92,800.96 1482.79,801.405 1486.66,801.846 1490.52,802.282 1494.39,802.714 1498.26,803.143 1502.12,803.567 1505.99,803.987 1509.86,804.403 1513.72,804.816 1517.59,805.224 1521.46,805.629 1525.32,806.029 1529.19,806.426 1533.05,806.82 1536.92,807.21 1540.79,807.596 1544.65,807.979 1548.52,808.359 1552.39,808.735 1556.25,809.108 1560.12,809.478 1563.99,809.845 1567.85,810.209 1571.72,810.57 1575.59,810.928 1579.45,811.284 1583.32,811.637 1587.19,811.988 1591.05,812.336 1594.92,812.682 1598.79,813.026 1602.65,813.369 1606.52,813.709 1610.39,814.047 1614.25,814.384 1618.12,814.72 1621.98,815.054 1625.85,815.387 1629.72,815.719 1633.58,816.05 1637.45,816.379 1641.32,816.706 1645.18,817.031 1649.05,817.354 1652.92,817.675 1656.78,817.995 1660.65,818.313 1664.52,818.628 1668.38,818.942 1672.25,819.254 1676.12,819.564 1679.98,819.873 1683.85,820.179 1687.72,820.484 1691.58,820.787 1695.45,821.088 1699.31,821.387 1703.18,821.684 1707.05,821.98 1710.91,822.274 1714.78,822.566 1718.65,822.857 1722.51,823.146 1726.38,823.433 1730.25,823.718 1734.11,824.002 1737.98,824.285 1741.85,824.566 1745.71,824.845 1749.58,825.123 1753.45,825.399 1757.31,825.674 1761.18,825.947 1765.05,826.219 1768.91,826.49 1772.78,826.759 1776.65,827.027 1780.51,827.294 1784.38,827.56 1788.24,827.824 1792.11,828.088 1795.98,828.35 1799.84,828.611 1803.71,828.872 1807.58,829.131 1811.44,829.39 1815.31,829.647 1819.18,829.904 1823.04,830.16 1826.91,830.416 1830.78,830.67 1834.64,830.924 1838.51,831.178 1842.38,831.43 1846.24,831.682 1850.11,831.932 1853.98,832.182 1857.84,832.431 1861.71,832.679 1865.58,832.927 1869.44,833.173 1873.31,833.419 1877.17,833.663 1881.04,833.907 1884.91,834.149 1888.77,834.391 1892.64,834.631 1896.51,834.871 1900.37,835.11 1904.24,835.347 1908.11,835.584 1911.97,835.819 1915.84,836.054 1919.71,836.288 1923.57,836.52 1927.44,836.752 1931.31,836.983 1935.17,837.212 1939.04,837.441 1942.91,837.669 1946.77,837.896 1950.64,838.121 1954.5,838.346 1958.37,838.57 1962.24,838.793 1966.1,839.015 1969.97,839.236 1973.84,839.457 1977.7,839.676 1981.57,839.895 1985.44,840.113 1989.3,840.33 1993.17,840.546 1997.04,840.762 2000.9,840.977 2004.77,841.191 2008.64,841.404 2012.5,841.617 2016.37,841.829 2020.24,842.041 2024.1,842.252 2027.97,842.463 2031.84,842.673 2035.7,842.883 2039.57,843.092 2043.43,843.301 2047.3,843.509 2051.17,843.718 2055.03,843.926 2058.9,844.134 2062.77,844.342 2066.63,844.549 2070.5,844.757 2074.37,844.964 2078.23,845.172 2082.1,845.379 2085.97,845.585 2089.83,845.791 2093.7,845.997 2097.57,846.202 2101.43,846.406 2105.3,846.61 2109.17,846.814 2113.03,847.017 2116.9,847.219 2120.77,847.421 2124.63,847.623 2128.5,847.824 2132.36,848.024 2136.23,848.224 2140.1,848.424 2143.96,848.623 2147.83,848.821 2151.7,849.019 2155.56,849.217 2159.43,849.413 2163.3,849.61 2167.16,849.806 2171.03,850.001 2174.9,850.196 2178.76,850.391 2182.63,850.585 2186.5,850.778 2190.36,850.971 2194.23,851.164 2198.1,851.356 2201.96,851.547 2205.83,851.739 2209.69,851.929 2213.56,852.12 2217.43,852.31 2221.29,852.499 2225.16,852.688 2229.03,852.877 2232.89,853.065 2236.76,853.253 2240.63,853.44 2244.49,853.628 2248.36,853.814 2252.23,854.001 2256.09,854.187 2259.96,854.373 2263.83,854.558 2267.69,854.744 2271.56,854.929 2275.43,855.113 2279.29,855.298 2283.16,855.482 2287.03,855.666 2290.89,855.85 2294.76,856.034 "/>
<polyline clip-path="url(#clip822)" style="stroke:#c271d2; stroke-linecap:round; stroke-linejoin:round; stroke-width:8; stroke-opacity:1; fill:none" points="361.501,1361.96 365.367,1353.24 369.234,1344.48 373.1,1335.69 376.967,1326.88 380.833,1318.03 384.7,1309.16 388.566,1300.25 392.433,1291.31 396.299,1282.34 400.166,1273.33 404.032,1264.29 407.899,1255.21 411.765,1246.1 415.632,1236.95 419.498,1227.76 423.365,1218.52 427.231,1209.25 431.098,1199.92 434.964,1190.55 438.831,1181.13 442.698,1171.65 446.564,1162.12 450.431,1152.53 454.297,1142.88 458.164,1133.15 462.03,1123.36 465.897,1113.5 469.763,1103.55 473.63,1093.51 477.496,1083.39 481.363,1073.17 485.229,1062.84 489.096,1052.4 492.962,1041.84 496.829,1031.17 500.695,1020.37 504.562,1009.42 508.428,998.306 512.295,987.027 516.161,975.567 520.028,963.92 523.894,952.081 527.761,940.046 531.627,927.813 535.494,915.385 539.36,902.764 543.227,889.955 547.093,876.966 550.96,863.805 554.826,850.484 558.693,837.016 562.559,823.411 566.426,809.733 570.293,796.069 574.159,782.498 578.026,769.089 581.892,755.906 585.759,743.002 589.625,730.423 593.492,718.207 597.358,706.382 601.225,694.969 605.091,683.982 608.958,673.425 612.824,663.296 616.691,653.591 620.557,644.303 624.424,635.421 628.29,626.935 632.157,618.835 636.023,611.11 639.89,603.751 643.756,596.747 647.623,590.089 651.489,583.767 655.356,577.771 659.222,572.091 663.089,566.717 666.955,561.64 670.822,556.85 674.688,552.34 678.555,548.104 682.421,544.137 686.288,540.432 690.154,536.984 694.021,533.788 697.887,530.839 701.754,528.132 705.621,525.664 709.487,523.428 713.354,521.422 717.22,519.642 721.087,518.083 724.953,516.743 728.82,515.618 732.686,514.705 736.553,514.002 740.419,513.505 744.286,513.213 748.152,513.123 752.019,513.233 755.885,513.54 759.752,514.04 763.618,514.729 767.485,515.604 771.351,516.662 775.218,517.899 779.084,519.312 782.951,520.9 786.817,522.658 790.684,524.584 794.55,526.677 798.417,528.934 802.283,531.352 806.15,533.931 810.016,536.667 813.883,539.56 817.749,542.609 821.616,545.811 825.482,549.166 829.349,552.673 833.216,556.33 837.082,560.138 840.949,564.096 844.815,568.203 848.682,572.46 852.548,576.864 856.415,581.409 860.281,586.1 864.148,590.942 868.014,595.943 871.881,601.106 875.747,606.438 879.614,611.942 883.48,617.62 887.347,623.477 891.213,629.514 895.08,635.732 898.946,642.133 902.813,648.715 906.679,655.48 910.546,662.425 914.412,669.549 918.279,676.85 922.145,684.324 926.012,691.967 929.878,699.775 933.745,707.744 937.611,715.867 941.478,724.138 945.344,732.55 949.211,741.095 953.077,749.766 956.944,758.553 960.811,767.446 964.677,776.436 968.544,785.512 972.41,794.662 976.277,803.871 980.143,813.106 984.01,822.334 987.876,831.525 991.743,840.651 995.609,849.687 999.476,858.608 1003.34,867.393 1007.21,876.023 1011.08,884.479 1014.94,892.748 1018.81,900.815 1022.67,908.669 1026.54,916.301 1030.41,923.704 1034.27,930.874 1038.14,937.806 1042.01,944.501 1045.87,950.959 1049.74,957.184 1053.61,963.181 1057.47,968.957 1061.34,974.507 1065.21,979.832 1069.07,984.935 1072.94,989.821 1076.81,994.492 1080.67,998.953 1084.54,1003.21 1088.41,1007.26 1092.27,1011.11 1096.14,1014.76 1100.01,1018.22 1103.87,1021.49 1107.74,1024.58 1111.6,1027.48 1115.47,1030.2 1119.34,1032.74 1123.2,1035.11 1127.07,1037.31 1130.94,1039.34 1134.8,1041.2 1138.67,1042.9 1142.54,1044.44 1146.4,1045.82 1150.27,1047.04 1154.14,1048.11 1158,1049.04 1161.87,1049.81 1165.74,1050.43 1169.6,1050.92 1173.47,1051.26 1177.34,1051.46 1181.2,1051.52 1185.07,1051.44 1188.93,1051.23 1192.8,1050.89 1196.67,1050.41 1200.53,1049.8 1204.4,1049.07 1208.27,1048.2 1212.13,1047.21 1216,1046.1 1219.87,1044.86 1223.73,1043.51 1227.6,1042.03 1231.47,1040.43 1235.33,1038.72 1239.2,1036.89 1243.07,1034.94 1246.93,1032.88 1250.8,1030.71 1254.67,1028.43 1258.53,1026.04 1262.4,1023.54 1266.27,1020.94 1270.13,1018.23 1274,1015.41 1277.86,1012.49 1281.73,1009.47 1285.6,1006.35 1289.46,1003.13 1293.33,999.825 1297.2,996.422 1301.06,992.925 1304.93,989.335 1308.8,985.653 1312.66,981.88 1316.53,978.018 1320.4,974.067 1324.26,970.031 1328.13,965.911 1332,961.709 1335.86,957.427 1339.73,953.07 1343.6,948.638 1347.46,944.136 1351.33,939.567 1355.2,934.935 1359.06,930.243 1362.93,925.495 1366.79,920.695 1370.66,915.849 1374.53,910.96 1378.39,906.034 1382.26,901.075 1386.13,896.09 1389.99,891.082 1393.86,886.059 1397.73,881.027 1401.59,875.99 1405.46,870.957 1409.33,865.933 1413.19,860.925 1417.06,855.94 1420.93,850.987 1424.79,846.075 1428.66,841.219 1432.53,836.432 1436.39,831.728 1440.26,827.119 1444.12,822.614 1447.99,818.226 1451.86,813.964 1455.72,809.837 1459.59,805.852 1463.46,802.019 1467.32,798.342 1471.19,794.829 1475.06,791.484 1478.92,788.312 1482.79,785.317 1486.66,782.501 1490.52,779.868 1494.39,777.417 1498.26,775.15 1502.12,773.067 1505.99,771.166 1509.86,769.447 1513.72,767.909 1517.59,766.55 1521.46,765.369 1525.32,764.364 1529.19,763.533 1533.05,762.874 1536.92,762.384 1540.79,762.062 1544.65,761.903 1548.52,761.906 1552.39,762.067 1556.25,762.383 1560.12,762.85 1563.99,763.464 1567.85,764.222 1571.72,765.119 1575.59,766.151 1579.45,767.314 1583.32,768.603 1587.19,770.014 1591.05,771.544 1594.92,773.187 1598.79,774.938 1602.65,776.791 1606.52,778.741 1610.39,780.783 1614.25,782.911 1618.12,785.119 1621.98,787.4 1625.85,789.75 1629.72,792.162 1633.58,794.63 1637.45,797.147 1641.32,799.707 1645.18,802.304 1649.05,804.931 1652.92,807.582 1656.78,810.248 1660.65,812.925 1664.52,815.604 1668.38,818.279 1672.25,820.946 1676.12,823.6 1679.98,826.234 1683.85,828.842 1687.72,831.42 1691.58,833.96 1695.45,836.46 1699.31,838.913 1703.18,841.316 1707.05,843.665 1710.91,845.956 1714.78,848.185 1718.65,850.35 1722.51,852.447 1726.38,854.475 1730.25,856.431 1734.11,858.314 1737.98,860.122 1741.85,861.853 1745.71,863.508 1749.58,865.086 1753.45,866.586 1757.31,868.009 1761.18,869.355 1765.05,870.621 1768.91,871.808 1772.78,872.915 1776.65,873.943 1780.51,874.892 1784.38,875.761 1788.24,876.551 1792.11,877.263 1795.98,877.896 1799.84,878.451 1803.71,878.93 1807.58,879.332 1811.44,879.658 1815.31,879.91 1819.18,880.089 1823.04,880.196 1826.91,880.231 1830.78,880.197 1834.64,880.096 1838.51,879.927 1842.38,879.695 1846.24,879.399 1850.11,879.042 1853.98,878.627 1857.84,878.155 1861.71,877.629 1865.58,877.05 1869.44,876.422 1873.31,875.746 1877.17,875.02 1881.04,874.248 1884.91,873.432 1888.77,872.573 1892.64,871.674 1896.51,870.736 1900.37,869.762 1904.24,868.755 1908.11,867.715 1911.97,866.646 1915.84,865.549 1919.71,864.428 1923.57,863.284 1927.44,862.119 1931.31,860.935 1935.17,859.736 1939.04,858.524 1942.91,857.3 1946.77,856.067 1950.64,854.828 1954.5,853.585 1958.37,852.34 1962.24,851.096 1966.1,849.854 1969.97,848.616 1973.84,847.385 1977.7,846.163 1981.57,844.953 1985.44,843.757 1989.3,842.578 1993.17,841.417 1997.04,840.277 2000.9,839.159 2004.77,838.066 2008.64,836.999 2012.5,835.96 2016.37,834.951 2020.24,833.972 2024.1,833.027 2027.97,832.114 2031.84,831.237 2035.7,830.396 2039.57,829.592 2043.43,828.825 2047.3,828.098 2051.17,827.41 2055.03,826.762 2058.9,826.155 2062.77,825.589 2066.63,825.065 2070.5,824.582 2074.37,824.142 2078.23,823.742 2082.1,823.384 2085.97,823.067 2089.83,822.791 2093.7,822.556 2097.57,822.362 2101.43,822.208 2105.3,822.095 2109.17,822.021 2113.03,821.986 2116.9,821.99 2120.77,822.032 2124.63,822.111 2128.5,822.226 2132.36,822.377 2136.23,822.561 2140.1,822.779 2143.96,823.029 2147.83,823.309 2151.7,823.619 2155.56,823.956 2159.43,824.321 2163.3,824.71 2167.16,825.122 2171.03,825.555 2174.9,826.008 2178.76,826.479 2182.63,826.966 2186.5,827.468 2190.36,827.985 2194.23,828.516 2198.1,829.059 2201.96,829.613 2205.83,830.176 2209.69,830.748 2213.56,831.325 2217.43,831.907 2221.29,832.493 2225.16,833.082 2229.03,833.671 2232.89,834.261 2236.76,834.849 2240.63,835.435 2244.49,836.017 2248.36,836.594 2252.23,837.165 2256.09,837.73 2259.96,838.287 2263.83,838.836 2267.69,839.374 2271.56,839.902 2275.43,840.419 2279.29,840.924 2283.16,841.416 2287.03,841.894 2290.89,842.358 2294.76,842.807 "/>
<path clip-path="url(#clip820)" d="M1472.14 351.589 L2284.45 351.589 L2284.45 92.3886 L1472.14 92.3886  Z" fill="#ffffff" fill-rule="evenodd" fill-opacity="1"/>
<polyline clip-path="url(#clip820)" style="stroke:#000000; stroke-linecap:round; stroke-linejoin:round; stroke-width:4; stroke-opacity:1; fill:none" points="1472.14,351.589 2284.45,351.589 2284.45,92.3886 1472.14,92.3886 1472.14,351.589 "/>
<polyline clip-path="url(#clip820)" style="stroke:#009af9; stroke-linecap:round; stroke-linejoin:round; stroke-width:8; stroke-opacity:1; fill:none" points="1494.91,144.229 1631.53,144.229 "/>
<path clip-path="url(#clip820)" d="M1676.54 128.083 L1676.54 132.643 Q1673.88 131.37 1671.52 130.745 Q1669.16 130.12 1666.96 130.12 Q1663.14 130.12 1661.06 131.601 Q1659 133.083 1659 135.814 Q1659 138.106 1660.36 139.287 Q1661.75 140.444 1665.59 141.162 L1668.42 141.74 Q1673.65 142.736 1676.13 145.259 Q1678.63 147.759 1678.63 151.972 Q1678.63 156.995 1675.25 159.587 Q1671.89 162.18 1665.38 162.18 Q1662.93 162.18 1660.15 161.624 Q1657.4 161.069 1654.44 159.981 L1654.44 155.166 Q1657.28 156.763 1660.01 157.573 Q1662.75 158.384 1665.38 158.384 Q1669.39 158.384 1671.57 156.81 Q1673.74 155.236 1673.74 152.319 Q1673.74 149.773 1672.17 148.337 Q1670.62 146.902 1667.05 146.185 L1664.2 145.629 Q1658.97 144.587 1656.63 142.365 Q1654.3 140.143 1654.3 136.185 Q1654.3 131.601 1657.51 128.962 Q1660.76 126.324 1666.43 126.324 Q1668.86 126.324 1671.38 126.763 Q1673.9 127.203 1676.54 128.083 Z" fill="#000000" fill-rule="nonzero" fill-opacity="1" /><path clip-path="url(#clip820)" d="M1685.73 135.583 L1689.99 135.583 L1689.99 161.509 L1685.73 161.509 L1685.73 135.583 M1685.73 125.49 L1689.99 125.49 L1689.99 130.884 L1685.73 130.884 L1685.73 125.49 Z" fill="#000000" fill-rule="nonzero" fill-opacity="1" /><path clip-path="url(#clip820)" d="M1719.09 140.56 Q1720.69 137.689 1722.91 136.324 Q1725.13 134.958 1728.14 134.958 Q1732.19 134.958 1734.39 137.805 Q1736.59 140.629 1736.59 145.861 L1736.59 161.509 L1732.31 161.509 L1732.31 145.999 Q1732.31 142.273 1730.99 140.467 Q1729.67 138.662 1726.96 138.662 Q1723.65 138.662 1721.73 140.861 Q1719.81 143.06 1719.81 146.856 L1719.81 161.509 L1715.52 161.509 L1715.52 145.999 Q1715.52 142.249 1714.2 140.467 Q1712.88 138.662 1710.13 138.662 Q1706.87 138.662 1704.94 140.884 Q1703.02 143.083 1703.02 146.856 L1703.02 161.509 L1698.74 161.509 L1698.74 135.583 L1703.02 135.583 L1703.02 139.611 Q1704.48 137.226 1706.52 136.092 Q1708.56 134.958 1711.36 134.958 Q1714.18 134.958 1716.15 136.393 Q1718.14 137.828 1719.09 140.56 Z" fill="#000000" fill-rule="nonzero" fill-opacity="1" /><path clip-path="url(#clip820)" d="M1749.2 157.62 L1749.2 171.37 L1744.92 171.37 L1744.92 135.583 L1749.2 135.583 L1749.2 139.518 Q1750.55 137.203 1752.58 136.092 Q1754.64 134.958 1757.49 134.958 Q1762.21 134.958 1765.15 138.708 Q1768.12 142.458 1768.12 148.569 Q1768.12 154.68 1765.15 158.43 Q1762.21 162.18 1757.49 162.18 Q1754.64 162.18 1752.58 161.069 Q1750.55 159.935 1749.2 157.62 M1763.69 148.569 Q1763.69 143.87 1761.75 141.208 Q1759.83 138.523 1756.45 138.523 Q1753.07 138.523 1751.13 141.208 Q1749.2 143.87 1749.2 148.569 Q1749.2 153.268 1751.13 155.953 Q1753.07 158.615 1756.45 158.615 Q1759.83 158.615 1761.75 155.953 Q1763.69 153.268 1763.69 148.569 Z" fill="#000000" fill-rule="nonzero" fill-opacity="1" /><path clip-path="url(#clip820)" d="M1775.18 125.49 L1779.44 125.49 L1779.44 161.509 L1775.18 161.509 L1775.18 125.49 Z" fill="#000000" fill-rule="nonzero" fill-opacity="1" /><path clip-path="url(#clip820)" d="M1810.52 147.481 L1810.52 149.564 L1790.94 149.564 Q1791.22 153.962 1793.58 156.277 Q1795.96 158.569 1800.2 158.569 Q1802.65 158.569 1804.94 157.967 Q1807.26 157.365 1809.53 156.161 L1809.53 160.189 Q1807.24 161.161 1804.83 161.671 Q1802.42 162.18 1799.94 162.18 Q1793.74 162.18 1790.11 158.569 Q1786.5 154.958 1786.5 148.8 Q1786.5 142.435 1789.92 138.708 Q1793.37 134.958 1799.2 134.958 Q1804.44 134.958 1807.47 138.337 Q1810.52 141.694 1810.52 147.481 M1806.26 146.231 Q1806.22 142.736 1804.3 140.652 Q1802.4 138.569 1799.25 138.569 Q1795.69 138.569 1793.53 140.583 Q1791.4 142.597 1791.08 146.254 L1806.26 146.231 Z" fill="#000000" fill-rule="nonzero" fill-opacity="1" /><path clip-path="url(#clip820)" d="M1817.7 126.949 L1837.56 126.949 L1837.56 130.884 L1822.37 130.884 L1822.37 141.069 L1836.08 141.069 L1836.08 145.004 L1822.37 145.004 L1822.37 161.509 L1817.7 161.509 L1817.7 126.949 Z" fill="#000000" fill-rule="nonzero" fill-opacity="1" /><path clip-path="url(#clip820)" d="M1844.97 126.949 L1851.93 126.949 L1860.75 150.467 L1869.62 126.949 L1876.59 126.949 L1876.59 161.509 L1872.03 161.509 L1872.03 131.162 L1863.12 154.865 L1858.42 154.865 L1849.5 131.162 L1849.5 161.509 L1844.97 161.509 L1844.97 126.949 Z" fill="#000000" fill-rule="nonzero" fill-opacity="1" /><path clip-path="url(#clip820)" d="M1885.34 126.949 L1890.04 126.949 L1890.04 147.944 Q1890.04 153.499 1892.05 155.953 Q1894.06 158.384 1898.58 158.384 Q1903.07 158.384 1905.08 155.953 Q1907.1 153.499 1907.1 147.944 L1907.1 126.949 L1911.8 126.949 L1911.8 148.523 Q1911.8 155.282 1908.44 158.731 Q1905.11 162.18 1898.58 162.18 Q1892.03 162.18 1888.67 158.731 Q1885.34 155.282 1885.34 148.523 L1885.34 126.949 Z" fill="#000000" fill-rule="nonzero" fill-opacity="1" /><polyline clip-path="url(#clip820)" style="stroke:#e26f46; stroke-linecap:round; stroke-linejoin:round; stroke-width:8; stroke-opacity:1; fill:none" points="1494.91,196.069 1631.53,196.069 "/>
<path clip-path="url(#clip820)" d="M1670.69 197.145 Q1672.19 197.654 1673.6 199.321 Q1675.04 200.988 1676.47 203.904 L1681.22 213.349 L1676.2 213.349 L1671.77 204.483 Q1670.06 201.011 1668.44 199.876 Q1666.84 198.742 1664.07 198.742 L1658.97 198.742 L1658.97 213.349 L1654.3 213.349 L1654.3 178.789 L1664.85 178.789 Q1670.78 178.789 1673.7 181.265 Q1676.61 183.742 1676.61 188.742 Q1676.61 192.006 1675.08 194.159 Q1673.58 196.312 1670.69 197.145 M1658.97 182.631 L1658.97 194.9 L1664.85 194.9 Q1668.23 194.9 1669.95 193.349 Q1671.68 191.775 1671.68 188.742 Q1671.68 185.71 1669.95 184.182 Q1668.23 182.631 1664.85 182.631 L1658.97 182.631 Z" fill="#000000" fill-rule="nonzero" fill-opacity="1" /><path clip-path="url(#clip820)" d="M1707.1 199.321 L1707.1 201.404 L1687.51 201.404 Q1687.79 205.802 1690.15 208.117 Q1692.54 210.409 1696.77 210.409 Q1699.23 210.409 1701.52 209.807 Q1703.83 209.205 1706.1 208.001 L1706.1 212.029 Q1703.81 213.001 1701.4 213.511 Q1699 214.02 1696.52 214.02 Q1690.32 214.02 1686.68 210.409 Q1683.07 206.798 1683.07 200.64 Q1683.07 194.275 1686.5 190.548 Q1689.94 186.798 1695.78 186.798 Q1701.01 186.798 1704.04 190.177 Q1707.1 193.534 1707.1 199.321 M1702.84 198.071 Q1702.79 194.576 1700.87 192.492 Q1698.97 190.409 1695.82 190.409 Q1692.26 190.409 1690.11 192.423 Q1687.98 194.437 1687.65 198.094 L1702.84 198.071 Z" fill="#000000" fill-rule="nonzero" fill-opacity="1" /><path clip-path="url(#clip820)" d="M1725.87 200.316 Q1720.71 200.316 1718.72 201.497 Q1716.73 202.677 1716.73 205.525 Q1716.73 207.793 1718.21 209.136 Q1719.71 210.455 1722.28 210.455 Q1725.82 210.455 1727.95 207.955 Q1730.11 205.432 1730.11 201.265 L1730.11 200.316 L1725.87 200.316 M1734.37 198.557 L1734.37 213.349 L1730.11 213.349 L1730.11 209.413 Q1728.65 211.775 1726.47 212.909 Q1724.3 214.02 1721.15 214.02 Q1717.17 214.02 1714.81 211.798 Q1712.47 209.552 1712.47 205.802 Q1712.47 201.427 1715.38 199.205 Q1718.32 196.983 1724.13 196.983 L1730.11 196.983 L1730.11 196.566 Q1730.11 193.627 1728.16 192.029 Q1726.24 190.409 1722.75 190.409 Q1720.52 190.409 1718.42 190.941 Q1716.31 191.474 1714.37 192.539 L1714.37 188.603 Q1716.7 187.701 1718.9 187.261 Q1721.1 186.798 1723.19 186.798 Q1728.81 186.798 1731.59 189.714 Q1734.37 192.631 1734.37 198.557 Z" fill="#000000" fill-rule="nonzero" fill-opacity="1" /><path clip-path="url(#clip820)" d="M1743.14 177.33 L1747.4 177.33 L1747.4 213.349 L1743.14 213.349 L1743.14 177.33 Z" fill="#000000" fill-rule="nonzero" fill-opacity="1" /><path clip-path="url(#clip820)" d="M1756.5 178.789 L1776.36 178.789 L1776.36 182.724 L1761.17 182.724 L1761.17 192.909 L1774.88 192.909 L1774.88 196.844 L1761.17 196.844 L1761.17 213.349 L1756.5 213.349 L1756.5 178.789 Z" fill="#000000" fill-rule="nonzero" fill-opacity="1" /><path clip-path="url(#clip820)" d="M1783.76 178.789 L1790.73 178.789 L1799.55 202.307 L1808.42 178.789 L1815.38 178.789 L1815.38 213.349 L1810.82 213.349 L1810.82 183.002 L1801.91 206.705 L1797.21 206.705 L1788.3 183.002 L1788.3 213.349 L1783.76 213.349 L1783.76 178.789 Z" fill="#000000" fill-rule="nonzero" fill-opacity="1" /><path clip-path="url(#clip820)" d="M1824.13 178.789 L1828.83 178.789 L1828.83 199.784 Q1828.83 205.339 1830.85 207.793 Q1832.86 210.224 1837.37 210.224 Q1841.87 210.224 1843.88 207.793 Q1845.89 205.339 1845.89 199.784 L1845.89 178.789 L1850.59 178.789 L1850.59 200.363 Q1850.59 207.122 1847.24 210.571 Q1843.9 214.02 1837.37 214.02 Q1830.82 214.02 1827.47 210.571 Q1824.13 207.122 1824.13 200.363 L1824.13 178.789 Z" fill="#000000" fill-rule="nonzero" fill-opacity="1" /><polyline clip-path="url(#clip820)" style="stroke:#3da44d; stroke-linecap:round; stroke-linejoin:round; stroke-width:8; stroke-opacity:1; fill:none" points="1494.91,247.909 1631.53,247.909 "/>
<path clip-path="url(#clip820)" d="M1654.3 230.629 L1660.59 230.629 L1675.92 259.541 L1675.92 230.629 L1680.45 230.629 L1680.45 265.189 L1674.16 265.189 L1658.83 236.277 L1658.83 265.189 L1654.3 265.189 L1654.3 230.629 Z" fill="#000000" fill-rule="nonzero" fill-opacity="1" /><path clip-path="url(#clip820)" d="M1711.75 251.161 L1711.75 253.244 L1692.17 253.244 Q1692.44 257.642 1694.81 259.957 Q1697.19 262.249 1701.43 262.249 Q1703.88 262.249 1706.17 261.647 Q1708.49 261.045 1710.76 259.841 L1710.76 263.869 Q1708.46 264.841 1706.06 265.351 Q1703.65 265.86 1701.17 265.86 Q1694.97 265.86 1691.33 262.249 Q1687.72 258.638 1687.72 252.48 Q1687.72 246.115 1691.15 242.388 Q1694.6 238.638 1700.43 238.638 Q1705.66 238.638 1708.69 242.017 Q1711.75 245.374 1711.75 251.161 M1707.49 249.911 Q1707.44 246.416 1705.52 244.332 Q1703.63 242.249 1700.48 242.249 Q1696.91 242.249 1694.76 244.263 Q1692.63 246.277 1692.31 249.934 L1707.49 249.911 Z" fill="#000000" fill-rule="nonzero" fill-opacity="1" /><path clip-path="url(#clip820)" d="M1718.3 254.957 L1718.3 239.263 L1722.56 239.263 L1722.56 254.795 Q1722.56 258.476 1724 260.328 Q1725.43 262.156 1728.3 262.156 Q1731.75 262.156 1733.74 259.957 Q1735.75 257.758 1735.75 253.962 L1735.75 239.263 L1740.01 239.263 L1740.01 265.189 L1735.75 265.189 L1735.75 261.207 Q1734.2 263.568 1732.14 264.726 Q1730.11 265.86 1727.4 265.86 Q1722.93 265.86 1720.62 263.082 Q1718.3 260.304 1718.3 254.957 M1729.02 238.638 L1729.02 238.638 Z" fill="#000000" fill-rule="nonzero" fill-opacity="1" /><path clip-path="url(#clip820)" d="M1763.81 243.244 Q1763.09 242.828 1762.24 242.642 Q1761.4 242.434 1760.38 242.434 Q1756.77 242.434 1754.83 244.795 Q1752.91 247.133 1752.91 251.531 L1752.91 265.189 L1748.63 265.189 L1748.63 239.263 L1752.91 239.263 L1752.91 243.291 Q1754.25 240.929 1756.4 239.795 Q1758.56 238.638 1761.63 238.638 Q1762.07 238.638 1762.61 238.707 Q1763.14 238.754 1763.79 238.869 L1763.81 243.244 Z" fill="#000000" fill-rule="nonzero" fill-opacity="1" /><path clip-path="url(#clip820)" d="M1780.06 252.156 Q1774.9 252.156 1772.91 253.337 Q1770.92 254.517 1770.92 257.365 Q1770.92 259.633 1772.4 260.976 Q1773.9 262.295 1776.47 262.295 Q1780.01 262.295 1782.14 259.795 Q1784.3 257.272 1784.3 253.105 L1784.3 252.156 L1780.06 252.156 M1788.56 250.397 L1788.56 265.189 L1784.3 265.189 L1784.3 261.253 Q1782.84 263.615 1780.66 264.749 Q1778.49 265.86 1775.34 265.86 Q1771.36 265.86 1769 263.638 Q1766.66 261.392 1766.66 257.642 Q1766.66 253.267 1769.57 251.045 Q1772.51 248.823 1778.32 248.823 L1784.3 248.823 L1784.3 248.406 Q1784.3 245.467 1782.35 243.869 Q1780.43 242.249 1776.94 242.249 Q1774.71 242.249 1772.61 242.781 Q1770.5 243.314 1768.56 244.379 L1768.56 240.443 Q1770.89 239.541 1773.09 239.101 Q1775.29 238.638 1777.38 238.638 Q1783 238.638 1785.78 241.554 Q1788.56 244.471 1788.56 250.397 Z" fill="#000000" fill-rule="nonzero" fill-opacity="1" /><path clip-path="url(#clip820)" d="M1797.33 229.17 L1801.59 229.17 L1801.59 265.189 L1797.33 265.189 L1797.33 229.17 Z" fill="#000000" fill-rule="nonzero" fill-opacity="1" /><path clip-path="url(#clip820)" d="M1810.69 230.629 L1830.55 230.629 L1830.55 234.564 L1815.36 234.564 L1815.36 244.749 L1829.06 244.749 L1829.06 248.684 L1815.36 248.684 L1815.36 265.189 L1810.69 265.189 L1810.69 230.629 Z" fill="#000000" fill-rule="nonzero" fill-opacity="1" /><path clip-path="url(#clip820)" d="M1837.95 230.629 L1844.92 230.629 L1853.74 254.147 L1862.61 230.629 L1869.57 230.629 L1869.57 265.189 L1865.01 265.189 L1865.01 234.842 L1856.1 258.545 L1851.4 258.545 L1842.49 234.842 L1842.49 265.189 L1837.95 265.189 L1837.95 230.629 Z" fill="#000000" fill-rule="nonzero" fill-opacity="1" /><path clip-path="url(#clip820)" d="M1878.32 230.629 L1883.02 230.629 L1883.02 251.624 Q1883.02 257.179 1885.04 259.633 Q1887.05 262.064 1891.56 262.064 Q1896.05 262.064 1898.07 259.633 Q1900.08 257.179 1900.08 251.624 L1900.08 230.629 L1904.78 230.629 L1904.78 252.203 Q1904.78 258.962 1901.43 262.411 Q1898.09 265.86 1891.56 265.86 Q1885.01 265.86 1881.66 262.411 Q1878.32 258.962 1878.32 252.203 L1878.32 230.629 Z" fill="#000000" fill-rule="nonzero" fill-opacity="1" /><path clip-path="url(#clip820)" d="M1938.67 229.217 Q1935.57 234.541 1934.06 239.749 Q1932.56 244.957 1932.56 250.304 Q1932.56 255.652 1934.06 260.906 Q1935.59 266.138 1938.67 271.439 L1934.97 271.439 Q1931.49 265.999 1929.76 260.744 Q1928.05 255.49 1928.05 250.304 Q1928.05 245.142 1929.76 239.911 Q1931.47 234.68 1934.97 229.217 L1938.67 229.217 Z" fill="#000000" fill-rule="nonzero" fill-opacity="1" /><path clip-path="url(#clip820)" d="M1961.7 246.554 Q1965.06 247.272 1966.93 249.541 Q1968.83 251.809 1968.83 255.142 Q1968.83 260.258 1965.31 263.059 Q1961.8 265.86 1955.31 265.86 Q1953.14 265.86 1950.82 265.42 Q1948.53 265.003 1946.08 264.147 L1946.08 259.633 Q1948.02 260.767 1950.34 261.346 Q1952.65 261.925 1955.18 261.925 Q1959.57 261.925 1961.86 260.189 Q1964.18 258.453 1964.18 255.142 Q1964.18 252.087 1962.03 250.374 Q1959.9 248.638 1956.08 248.638 L1952.05 248.638 L1952.05 244.795 L1956.26 244.795 Q1959.71 244.795 1961.54 243.429 Q1963.37 242.041 1963.37 239.448 Q1963.37 236.786 1961.47 235.374 Q1959.6 233.939 1956.08 233.939 Q1954.16 233.939 1951.96 234.355 Q1949.76 234.772 1947.12 235.652 L1947.12 231.485 Q1949.78 230.744 1952.1 230.374 Q1954.43 230.004 1956.49 230.004 Q1961.82 230.004 1964.92 232.434 Q1968.02 234.842 1968.02 238.962 Q1968.02 241.832 1966.38 243.823 Q1964.74 245.791 1961.7 246.554 Z" fill="#000000" fill-rule="nonzero" fill-opacity="1" /><path clip-path="url(#clip820)" d="M1987.7 233.707 Q1984.09 233.707 1982.26 237.272 Q1980.45 240.814 1980.45 247.943 Q1980.45 255.05 1982.26 258.615 Q1984.09 262.156 1987.7 262.156 Q1991.33 262.156 1993.14 258.615 Q1994.97 255.05 1994.97 247.943 Q1994.97 240.814 1993.14 237.272 Q1991.33 233.707 1987.7 233.707 M1987.7 230.004 Q1993.51 230.004 1996.56 234.61 Q1999.64 239.193 1999.64 247.943 Q1999.64 256.67 1996.56 261.277 Q1993.51 265.86 1987.7 265.86 Q1981.89 265.86 1978.81 261.277 Q1975.75 256.67 1975.75 247.943 Q1975.75 239.193 1978.81 234.61 Q1981.89 230.004 1987.7 230.004 Z" fill="#000000" fill-rule="nonzero" fill-opacity="1" /><path clip-path="url(#clip820)" d="M2017.86 233.707 Q2014.25 233.707 2012.42 237.272 Q2010.61 240.814 2010.61 247.943 Q2010.61 255.05 2012.42 258.615 Q2014.25 262.156 2017.86 262.156 Q2021.49 262.156 2023.3 258.615 Q2025.13 255.05 2025.13 247.943 Q2025.13 240.814 2023.3 237.272 Q2021.49 233.707 2017.86 233.707 M2017.86 230.004 Q2023.67 230.004 2026.73 234.61 Q2029.8 239.193 2029.8 247.943 Q2029.8 256.67 2026.73 261.277 Q2023.67 265.86 2017.86 265.86 Q2012.05 265.86 2008.97 261.277 Q2005.92 256.67 2005.92 247.943 Q2005.92 239.193 2008.97 234.61 Q2012.05 230.004 2017.86 230.004 Z" fill="#000000" fill-rule="nonzero" fill-opacity="1" /><path clip-path="url(#clip820)" d="M2074.67 251.161 L2074.67 253.244 L2055.08 253.244 Q2055.36 257.642 2057.72 259.957 Q2060.11 262.249 2064.34 262.249 Q2066.79 262.249 2069.09 261.647 Q2071.4 261.045 2073.67 259.841 L2073.67 263.869 Q2071.38 264.841 2068.97 265.351 Q2066.56 265.86 2064.09 265.86 Q2057.88 265.86 2054.25 262.249 Q2050.64 258.638 2050.64 252.48 Q2050.64 246.115 2054.06 242.388 Q2057.51 238.638 2063.35 238.638 Q2068.58 238.638 2071.61 242.017 Q2074.67 245.374 2074.67 251.161 M2070.41 249.911 Q2070.36 246.416 2068.44 244.332 Q2066.54 242.249 2063.39 242.249 Q2059.83 242.249 2057.67 244.263 Q2055.54 246.277 2055.22 249.934 L2070.41 249.911 Z" fill="#000000" fill-rule="nonzero" fill-opacity="1" /><path clip-path="url(#clip820)" d="M2085.78 261.3 L2085.78 275.05 L2081.49 275.05 L2081.49 239.263 L2085.78 239.263 L2085.78 243.198 Q2087.12 240.883 2089.16 239.772 Q2091.22 238.638 2094.06 238.638 Q2098.79 238.638 2101.73 242.388 Q2104.69 246.138 2104.69 252.249 Q2104.69 258.36 2101.73 262.11 Q2098.79 265.86 2094.06 265.86 Q2091.22 265.86 2089.16 264.749 Q2087.12 263.615 2085.78 261.3 M2100.27 252.249 Q2100.27 247.55 2098.32 244.888 Q2096.4 242.203 2093.02 242.203 Q2089.64 242.203 2087.7 244.888 Q2085.78 247.55 2085.78 252.249 Q2085.78 256.948 2087.7 259.633 Q2089.64 262.295 2093.02 262.295 Q2096.4 262.295 2098.32 259.633 Q2100.27 256.948 2100.27 252.249 Z" fill="#000000" fill-rule="nonzero" fill-opacity="1" /><path clip-path="url(#clip820)" d="M2121.79 242.249 Q2118.37 242.249 2116.38 244.934 Q2114.39 247.596 2114.39 252.249 Q2114.39 256.902 2116.35 259.587 Q2118.35 262.249 2121.79 262.249 Q2125.2 262.249 2127.19 259.564 Q2129.18 256.878 2129.18 252.249 Q2129.18 247.642 2127.19 244.957 Q2125.2 242.249 2121.79 242.249 M2121.79 238.638 Q2127.35 238.638 2130.52 242.249 Q2133.69 245.86 2133.69 252.249 Q2133.69 258.615 2130.52 262.249 Q2127.35 265.86 2121.79 265.86 Q2116.22 265.86 2113.04 262.249 Q2109.9 258.615 2109.9 252.249 Q2109.9 245.86 2113.04 242.249 Q2116.22 238.638 2121.79 238.638 Z" fill="#000000" fill-rule="nonzero" fill-opacity="1" /><path clip-path="url(#clip820)" d="M2159.41 240.258 L2159.41 244.24 Q2157.6 243.244 2155.78 242.758 Q2153.97 242.249 2152.12 242.249 Q2147.97 242.249 2145.68 244.888 Q2143.39 247.504 2143.39 252.249 Q2143.39 256.994 2145.68 259.633 Q2147.97 262.249 2152.12 262.249 Q2153.97 262.249 2155.78 261.763 Q2157.6 261.253 2159.41 260.258 L2159.41 264.193 Q2157.63 265.027 2155.71 265.443 Q2153.81 265.86 2151.66 265.86 Q2145.8 265.86 2142.35 262.179 Q2138.9 258.499 2138.9 252.249 Q2138.9 245.906 2142.37 242.272 Q2145.87 238.638 2151.93 238.638 Q2153.9 238.638 2155.78 239.055 Q2157.65 239.448 2159.41 240.258 Z" fill="#000000" fill-rule="nonzero" fill-opacity="1" /><path clip-path="url(#clip820)" d="M2188.37 249.541 L2188.37 265.189 L2184.11 265.189 L2184.11 249.679 Q2184.11 245.999 2182.67 244.17 Q2181.24 242.342 2178.37 242.342 Q2174.92 242.342 2172.93 244.541 Q2170.94 246.74 2170.94 250.536 L2170.94 265.189 L2166.66 265.189 L2166.66 229.17 L2170.94 229.17 L2170.94 243.291 Q2172.47 240.953 2174.53 239.795 Q2176.61 238.638 2179.32 238.638 Q2183.78 238.638 2186.08 241.416 Q2188.37 244.17 2188.37 249.541 Z" fill="#000000" fill-rule="nonzero" fill-opacity="1" /><path clip-path="url(#clip820)" d="M2213.39 240.027 L2213.39 244.054 Q2211.59 243.129 2209.64 242.666 Q2207.7 242.203 2205.61 242.203 Q2202.44 242.203 2200.84 243.175 Q2199.27 244.147 2199.27 246.091 Q2199.27 247.573 2200.41 248.429 Q2201.54 249.263 2204.97 250.027 L2206.42 250.351 Q2210.96 251.323 2212.86 253.105 Q2214.78 254.865 2214.78 258.036 Q2214.78 261.647 2211.91 263.753 Q2209.06 265.86 2204.06 265.86 Q2201.98 265.86 2199.71 265.443 Q2197.47 265.05 2194.97 264.24 L2194.97 259.841 Q2197.33 261.068 2199.62 261.693 Q2201.91 262.295 2204.16 262.295 Q2207.16 262.295 2208.78 261.277 Q2210.41 260.235 2210.41 258.36 Q2210.41 256.624 2209.22 255.698 Q2208.07 254.772 2204.11 253.916 L2202.63 253.568 Q2198.67 252.735 2196.91 251.022 Q2195.15 249.286 2195.15 246.277 Q2195.15 242.619 2197.74 240.629 Q2200.34 238.638 2205.1 238.638 Q2207.47 238.638 2209.55 238.985 Q2211.63 239.332 2213.39 240.027 Z" fill="#000000" fill-rule="nonzero" fill-opacity="1" /><path clip-path="url(#clip820)" d="M2220.89 229.217 L2224.59 229.217 Q2228.07 234.68 2229.78 239.911 Q2231.52 245.142 2231.52 250.304 Q2231.52 255.49 2229.78 260.744 Q2228.07 265.999 2224.59 271.439 L2220.89 271.439 Q2223.97 266.138 2225.47 260.906 Q2227 255.652 2227 250.304 Q2227 244.957 2225.47 239.749 Q2223.97 234.541 2220.89 229.217 Z" fill="#000000" fill-rule="nonzero" fill-opacity="1" /><polyline clip-path="url(#clip820)" style="stroke:#c271d2; stroke-linecap:round; stroke-linejoin:round; stroke-width:8; stroke-opacity:1; fill:none" points="1494.91,299.749 1631.53,299.749 "/>
<path clip-path="url(#clip820)" d="M1654.3 282.469 L1660.59 282.469 L1675.92 311.381 L1675.92 282.469 L1680.45 282.469 L1680.45 317.029 L1674.16 317.029 L1658.83 288.117 L1658.83 317.029 L1654.3 317.029 L1654.3 282.469 Z" fill="#000000" fill-rule="nonzero" fill-opacity="1" /><path clip-path="url(#clip820)" d="M1711.75 303.001 L1711.75 305.084 L1692.17 305.084 Q1692.44 309.482 1694.81 311.797 Q1697.19 314.089 1701.43 314.089 Q1703.88 314.089 1706.17 313.487 Q1708.49 312.885 1710.76 311.681 L1710.76 315.709 Q1708.46 316.681 1706.06 317.191 Q1703.65 317.7 1701.17 317.7 Q1694.97 317.7 1691.33 314.089 Q1687.72 310.478 1687.72 304.32 Q1687.72 297.955 1691.15 294.228 Q1694.6 290.478 1700.43 290.478 Q1705.66 290.478 1708.69 293.857 Q1711.75 297.214 1711.75 303.001 M1707.49 301.751 Q1707.44 298.256 1705.52 296.172 Q1703.63 294.089 1700.48 294.089 Q1696.91 294.089 1694.76 296.103 Q1692.63 298.117 1692.31 301.774 L1707.49 301.751 Z" fill="#000000" fill-rule="nonzero" fill-opacity="1" /><path clip-path="url(#clip820)" d="M1718.3 306.797 L1718.3 291.103 L1722.56 291.103 L1722.56 306.635 Q1722.56 310.316 1724 312.168 Q1725.43 313.996 1728.3 313.996 Q1731.75 313.996 1733.74 311.797 Q1735.75 309.598 1735.75 305.802 L1735.75 291.103 L1740.01 291.103 L1740.01 317.029 L1735.75 317.029 L1735.75 313.047 Q1734.2 315.408 1732.14 316.566 Q1730.11 317.7 1727.4 317.7 Q1722.93 317.7 1720.62 314.922 Q1718.3 312.144 1718.3 306.797 M1729.02 290.478 L1729.02 290.478 Z" fill="#000000" fill-rule="nonzero" fill-opacity="1" /><path clip-path="url(#clip820)" d="M1763.81 295.084 Q1763.09 294.668 1762.24 294.482 Q1761.4 294.274 1760.38 294.274 Q1756.77 294.274 1754.83 296.635 Q1752.91 298.973 1752.91 303.371 L1752.91 317.029 L1748.63 317.029 L1748.63 291.103 L1752.91 291.103 L1752.91 295.131 Q1754.25 292.769 1756.4 291.635 Q1758.56 290.478 1761.63 290.478 Q1762.07 290.478 1762.61 290.547 Q1763.14 290.594 1763.79 290.709 L1763.81 295.084 Z" fill="#000000" fill-rule="nonzero" fill-opacity="1" /><path clip-path="url(#clip820)" d="M1780.06 303.996 Q1774.9 303.996 1772.91 305.177 Q1770.92 306.357 1770.92 309.205 Q1770.92 311.473 1772.4 312.816 Q1773.9 314.135 1776.47 314.135 Q1780.01 314.135 1782.14 311.635 Q1784.3 309.112 1784.3 304.945 L1784.3 303.996 L1780.06 303.996 M1788.56 302.237 L1788.56 317.029 L1784.3 317.029 L1784.3 313.093 Q1782.84 315.455 1780.66 316.589 Q1778.49 317.7 1775.34 317.7 Q1771.36 317.7 1769 315.478 Q1766.66 313.232 1766.66 309.482 Q1766.66 305.107 1769.57 302.885 Q1772.51 300.663 1778.32 300.663 L1784.3 300.663 L1784.3 300.246 Q1784.3 297.307 1782.35 295.709 Q1780.43 294.089 1776.94 294.089 Q1774.71 294.089 1772.61 294.621 Q1770.5 295.154 1768.56 296.219 L1768.56 292.283 Q1770.89 291.381 1773.09 290.941 Q1775.29 290.478 1777.38 290.478 Q1783 290.478 1785.78 293.394 Q1788.56 296.311 1788.56 302.237 Z" fill="#000000" fill-rule="nonzero" fill-opacity="1" /><path clip-path="url(#clip820)" d="M1797.33 281.01 L1801.59 281.01 L1801.59 317.029 L1797.33 317.029 L1797.33 281.01 Z" fill="#000000" fill-rule="nonzero" fill-opacity="1" /><path clip-path="url(#clip820)" d="M1810.69 282.469 L1830.55 282.469 L1830.55 286.404 L1815.36 286.404 L1815.36 296.589 L1829.06 296.589 L1829.06 300.524 L1815.36 300.524 L1815.36 317.029 L1810.69 317.029 L1810.69 282.469 Z" fill="#000000" fill-rule="nonzero" fill-opacity="1" /><path clip-path="url(#clip820)" d="M1837.95 282.469 L1844.92 282.469 L1853.74 305.987 L1862.61 282.469 L1869.57 282.469 L1869.57 317.029 L1865.01 317.029 L1865.01 286.682 L1856.1 310.385 L1851.4 310.385 L1842.49 286.682 L1842.49 317.029 L1837.95 317.029 L1837.95 282.469 Z" fill="#000000" fill-rule="nonzero" fill-opacity="1" /><path clip-path="url(#clip820)" d="M1878.32 282.469 L1883.02 282.469 L1883.02 303.464 Q1883.02 309.019 1885.04 311.473 Q1887.05 313.904 1891.56 313.904 Q1896.05 313.904 1898.07 311.473 Q1900.08 309.019 1900.08 303.464 L1900.08 282.469 L1904.78 282.469 L1904.78 304.043 Q1904.78 310.802 1901.43 314.251 Q1898.09 317.7 1891.56 317.7 Q1885.01 317.7 1881.66 314.251 Q1878.32 310.802 1878.32 304.043 L1878.32 282.469 Z" fill="#000000" fill-rule="nonzero" fill-opacity="1" /><path clip-path="url(#clip820)" d="M1938.67 281.057 Q1935.57 286.381 1934.06 291.589 Q1932.56 296.797 1932.56 302.144 Q1932.56 307.492 1934.06 312.746 Q1935.59 317.978 1938.67 323.279 L1934.97 323.279 Q1931.49 317.839 1929.76 312.584 Q1928.05 307.33 1928.05 302.144 Q1928.05 296.982 1929.76 291.751 Q1931.47 286.52 1934.97 281.057 L1938.67 281.057 Z" fill="#000000" fill-rule="nonzero" fill-opacity="1" /><path clip-path="url(#clip820)" d="M1948.35 313.093 L1955.99 313.093 L1955.99 286.728 L1947.68 288.395 L1947.68 284.135 L1955.94 282.469 L1960.61 282.469 L1960.61 313.093 L1968.25 313.093 L1968.25 317.029 L1948.35 317.029 L1948.35 313.093 Z" fill="#000000" fill-rule="nonzero" fill-opacity="1" /><path clip-path="url(#clip820)" d="M1977.74 282.469 L1996.1 282.469 L1996.1 286.404 L1982.03 286.404 L1982.03 294.876 Q1983.05 294.529 1984.06 294.367 Q1985.08 294.182 1986.1 294.182 Q1991.89 294.182 1995.27 297.353 Q1998.65 300.524 1998.65 305.941 Q1998.65 311.519 1995.17 314.621 Q1991.7 317.7 1985.38 317.7 Q1983.21 317.7 1980.94 317.33 Q1978.69 316.959 1976.29 316.218 L1976.29 311.519 Q1978.37 312.654 1980.59 313.209 Q1982.81 313.765 1985.29 313.765 Q1989.3 313.765 1991.63 311.658 Q1993.97 309.552 1993.97 305.941 Q1993.97 302.33 1991.63 300.223 Q1989.3 298.117 1985.29 298.117 Q1983.42 298.117 1981.54 298.533 Q1979.69 298.95 1977.74 299.83 L1977.74 282.469 Z" fill="#000000" fill-rule="nonzero" fill-opacity="1" /><path clip-path="url(#clip820)" d="M2017.86 285.547 Q2014.25 285.547 2012.42 289.112 Q2010.61 292.654 2010.61 299.783 Q2010.61 306.89 2012.42 310.455 Q2014.25 313.996 2017.86 313.996 Q2021.49 313.996 2023.3 310.455 Q2025.13 306.89 2025.13 299.783 Q2025.13 292.654 2023.3 289.112 Q2021.49 285.547 2017.86 285.547 M2017.86 281.844 Q2023.67 281.844 2026.73 286.45 Q2029.8 291.033 2029.8 299.783 Q2029.8 308.51 2026.73 313.117 Q2023.67 317.7 2017.86 317.7 Q2012.05 317.7 2008.97 313.117 Q2005.92 308.51 2005.92 299.783 Q2005.92 291.033 2008.97 286.45 Q2012.05 281.844 2017.86 281.844 Z" fill="#000000" fill-rule="nonzero" fill-opacity="1" /><path clip-path="url(#clip820)" d="M2048.02 285.547 Q2044.41 285.547 2042.58 289.112 Q2040.78 292.654 2040.78 299.783 Q2040.78 306.89 2042.58 310.455 Q2044.41 313.996 2048.02 313.996 Q2051.66 313.996 2053.46 310.455 Q2055.29 306.89 2055.29 299.783 Q2055.29 292.654 2053.46 289.112 Q2051.66 285.547 2048.02 285.547 M2048.02 281.844 Q2053.83 281.844 2056.89 286.45 Q2059.97 291.033 2059.97 299.783 Q2059.97 308.51 2056.89 313.117 Q2053.83 317.7 2048.02 317.7 Q2042.21 317.7 2039.13 313.117 Q2036.08 308.51 2036.08 299.783 Q2036.08 291.033 2039.13 286.45 Q2042.21 281.844 2048.02 281.844 Z" fill="#000000" fill-rule="nonzero" fill-opacity="1" /><path clip-path="url(#clip820)" d="M2104.83 303.001 L2104.83 305.084 L2085.24 305.084 Q2085.52 309.482 2087.88 311.797 Q2090.27 314.089 2094.5 314.089 Q2096.96 314.089 2099.25 313.487 Q2101.56 312.885 2103.83 311.681 L2103.83 315.709 Q2101.54 316.681 2099.13 317.191 Q2096.73 317.7 2094.25 317.7 Q2088.04 317.7 2084.41 314.089 Q2080.8 310.478 2080.8 304.32 Q2080.8 297.955 2084.23 294.228 Q2087.67 290.478 2093.51 290.478 Q2098.74 290.478 2101.77 293.857 Q2104.83 297.214 2104.83 303.001 M2100.57 301.751 Q2100.52 298.256 2098.6 296.172 Q2096.7 294.089 2093.55 294.089 Q2089.99 294.089 2087.84 296.103 Q2085.71 298.117 2085.38 301.774 L2100.57 301.751 Z" fill="#000000" fill-rule="nonzero" fill-opacity="1" /><path clip-path="url(#clip820)" d="M2115.94 313.14 L2115.94 326.89 L2111.66 326.89 L2111.66 291.103 L2115.94 291.103 L2115.94 295.038 Q2117.28 292.723 2119.32 291.612 Q2121.38 290.478 2124.23 290.478 Q2128.95 290.478 2131.89 294.228 Q2134.85 297.978 2134.85 304.089 Q2134.85 310.2 2131.89 313.95 Q2128.95 317.7 2124.23 317.7 Q2121.38 317.7 2119.32 316.589 Q2117.28 315.455 2115.94 313.14 M2130.43 304.089 Q2130.43 299.39 2128.48 296.728 Q2126.56 294.043 2123.18 294.043 Q2119.8 294.043 2117.86 296.728 Q2115.94 299.39 2115.94 304.089 Q2115.94 308.788 2117.86 311.473 Q2119.8 314.135 2123.18 314.135 Q2126.56 314.135 2128.48 311.473 Q2130.43 308.788 2130.43 304.089 Z" fill="#000000" fill-rule="nonzero" fill-opacity="1" /><path clip-path="url(#clip820)" d="M2151.96 294.089 Q2148.53 294.089 2146.54 296.774 Q2144.55 299.436 2144.55 304.089 Q2144.55 308.742 2146.52 311.427 Q2148.51 314.089 2151.96 314.089 Q2155.36 314.089 2157.35 311.404 Q2159.34 308.718 2159.34 304.089 Q2159.34 299.482 2157.35 296.797 Q2155.36 294.089 2151.96 294.089 M2151.96 290.478 Q2157.51 290.478 2160.68 294.089 Q2163.85 297.7 2163.85 304.089 Q2163.85 310.455 2160.68 314.089 Q2157.51 317.7 2151.96 317.7 Q2146.38 317.7 2143.21 314.089 Q2140.06 310.455 2140.06 304.089 Q2140.06 297.7 2143.21 294.089 Q2146.38 290.478 2151.96 290.478 Z" fill="#000000" fill-rule="nonzero" fill-opacity="1" /><path clip-path="url(#clip820)" d="M2189.57 292.098 L2189.57 296.08 Q2187.77 295.084 2185.94 294.598 Q2184.13 294.089 2182.28 294.089 Q2178.14 294.089 2175.85 296.728 Q2173.55 299.344 2173.55 304.089 Q2173.55 308.834 2175.85 311.473 Q2178.14 314.089 2182.28 314.089 Q2184.13 314.089 2185.94 313.603 Q2187.77 313.093 2189.57 312.098 L2189.57 316.033 Q2187.79 316.867 2185.87 317.283 Q2183.97 317.7 2181.82 317.7 Q2175.96 317.7 2172.51 314.019 Q2169.06 310.339 2169.06 304.089 Q2169.06 297.746 2172.53 294.112 Q2176.03 290.478 2182.1 290.478 Q2184.06 290.478 2185.94 290.895 Q2187.81 291.288 2189.57 292.098 Z" fill="#000000" fill-rule="nonzero" fill-opacity="1" /><path clip-path="url(#clip820)" d="M2218.53 301.381 L2218.53 317.029 L2214.27 317.029 L2214.27 301.519 Q2214.27 297.839 2212.84 296.01 Q2211.4 294.182 2208.53 294.182 Q2205.08 294.182 2203.09 296.381 Q2201.1 298.58 2201.1 302.376 L2201.1 317.029 L2196.82 317.029 L2196.82 281.01 L2201.1 281.01 L2201.1 295.131 Q2202.63 292.793 2204.69 291.635 Q2206.77 290.478 2209.48 290.478 Q2213.95 290.478 2216.24 293.256 Q2218.53 296.01 2218.53 301.381 Z" fill="#000000" fill-rule="nonzero" fill-opacity="1" /><path clip-path="url(#clip820)" d="M2243.55 291.867 L2243.55 295.894 Q2241.75 294.969 2239.8 294.506 Q2237.86 294.043 2235.78 294.043 Q2232.6 294.043 2231.01 295.015 Q2229.43 295.987 2229.43 297.931 Q2229.43 299.413 2230.57 300.269 Q2231.7 301.103 2235.13 301.867 L2236.59 302.191 Q2241.12 303.163 2243.02 304.945 Q2244.94 306.705 2244.94 309.876 Q2244.94 313.487 2242.07 315.593 Q2239.22 317.7 2234.22 317.7 Q2232.14 317.7 2229.87 317.283 Q2227.63 316.89 2225.13 316.08 L2225.13 311.681 Q2227.49 312.908 2229.78 313.533 Q2232.07 314.135 2234.32 314.135 Q2237.33 314.135 2238.95 313.117 Q2240.57 312.075 2240.57 310.2 Q2240.57 308.464 2239.39 307.538 Q2238.23 306.612 2234.27 305.756 L2232.79 305.408 Q2228.83 304.575 2227.07 302.862 Q2225.31 301.126 2225.31 298.117 Q2225.31 294.459 2227.91 292.469 Q2230.5 290.478 2235.27 290.478 Q2237.63 290.478 2239.71 290.825 Q2241.79 291.172 2243.55 291.867 Z" fill="#000000" fill-rule="nonzero" fill-opacity="1" /><path clip-path="url(#clip820)" d="M2251.05 281.057 L2254.76 281.057 Q2258.23 286.52 2259.94 291.751 Q2261.68 296.982 2261.68 302.144 Q2261.68 307.33 2259.94 312.584 Q2258.23 317.839 2254.76 323.279 L2251.05 323.279 Q2254.13 317.978 2255.64 312.746 Q2257.16 307.492 2257.16 302.144 Q2257.16 296.797 2255.64 291.589 Q2254.13 286.381 2251.05 281.057 Z" fill="#000000" fill-rule="nonzero" fill-opacity="1" /></svg>
