<?xml version="1.0" encoding="utf-8"?>
<svg xmlns="http://www.w3.org/2000/svg" xmlns:xlink="http://www.w3.org/1999/xlink" width="600" height="400" viewBox="0 0 2400 1600">
<defs>
  <clipPath id="clip940">
    <rect x="0" y="0" width="2400" height="1600"/>
  </clipPath>
</defs>
<path clip-path="url(#clip940)" d="
M0 1600 L2400 1600 L2400 0 L0 0  Z
  " fill="#ffffff" fill-rule="evenodd" fill-opacity="1"/>
<defs>
  <clipPath id="clip941">
    <rect x="480" y="0" width="1681" height="1600"/>
  </clipPath>
</defs>
<path clip-path="url(#clip940)" d="
M303.503 1401.58 L2352.76 1401.58 L2352.76 47.2441 L303.503 47.2441  Z
  " fill="#ffffff" fill-rule="evenodd" fill-opacity="1"/>
<defs>
  <clipPath id="clip942">
    <rect x="303" y="47" width="2050" height="1355"/>
  </clipPath>
</defs>
<polyline clip-path="url(#clip942)" style="stroke:#000000; stroke-linecap:round; stroke-linejoin:round; stroke-width:2; stroke-opacity:0.1; fill:none" points="
  361.501,1401.58 361.501,47.2441 
  "/>
<polyline clip-path="url(#clip942)" style="stroke:#000000; stroke-linecap:round; stroke-linejoin:round; stroke-width:2; stroke-opacity:0.1; fill:none" points="
  748.152,1401.58 748.152,47.2441 
  "/>
<polyline clip-path="url(#clip942)" style="stroke:#000000; stroke-linecap:round; stroke-linejoin:round; stroke-width:2; stroke-opacity:0.1; fill:none" points="
  1134.8,1401.58 1134.8,47.2441 
  "/>
<polyline clip-path="url(#clip942)" style="stroke:#000000; stroke-linecap:round; stroke-linejoin:round; stroke-width:2; stroke-opacity:0.1; fill:none" points="
  1521.46,1401.58 1521.46,47.2441 
  "/>
<polyline clip-path="url(#clip942)" style="stroke:#000000; stroke-linecap:round; stroke-linejoin:round; stroke-width:2; stroke-opacity:0.1; fill:none" points="
  1908.11,1401.58 1908.11,47.2441 
  "/>
<polyline clip-path="url(#clip942)" style="stroke:#000000; stroke-linecap:round; stroke-linejoin:round; stroke-width:2; stroke-opacity:0.1; fill:none" points="
  2294.76,1401.58 2294.76,47.2441 
  "/>
<polyline clip-path="url(#clip940)" style="stroke:#000000; stroke-linecap:round; stroke-linejoin:round; stroke-width:4; stroke-opacity:1; fill:none" points="
  303.503,1401.58 2352.76,1401.58 
  "/>
<polyline clip-path="url(#clip940)" style="stroke:#000000; stroke-linecap:round; stroke-linejoin:round; stroke-width:4; stroke-opacity:1; fill:none" points="
  361.501,1401.58 361.501,1382.68 
  "/>
<polyline clip-path="url(#clip940)" style="stroke:#000000; stroke-linecap:round; stroke-linejoin:round; stroke-width:4; stroke-opacity:1; fill:none" points="
  748.152,1401.58 748.152,1382.68 
  "/>
<polyline clip-path="url(#clip940)" style="stroke:#000000; stroke-linecap:round; stroke-linejoin:round; stroke-width:4; stroke-opacity:1; fill:none" points="
  1134.8,1401.58 1134.8,1382.68 
  "/>
<polyline clip-path="url(#clip940)" style="stroke:#000000; stroke-linecap:round; stroke-linejoin:round; stroke-width:4; stroke-opacity:1; fill:none" points="
  1521.46,1401.58 1521.46,1382.68 
  "/>
<polyline clip-path="url(#clip940)" style="stroke:#000000; stroke-linecap:round; stroke-linejoin:round; stroke-width:4; stroke-opacity:1; fill:none" points="
  1908.11,1401.58 1908.11,1382.68 
  "/>
<polyline clip-path="url(#clip940)" style="stroke:#000000; stroke-linecap:round; stroke-linejoin:round; stroke-width:4; stroke-opacity:1; fill:none" points="
  2294.76,1401.58 2294.76,1382.68 
  "/>
<path clip-path="url(#clip940)" d="M361.501 1438.36 Q356.084 1438.36 353.341 1443.71 Q350.633 1449.02 350.633 1459.71 Q350.633 1470.37 353.341 1475.72 Q356.084 1481.03 361.501 1481.03 Q366.952 1481.03 369.66 1475.72 Q372.403 1470.37 372.403 1459.71 Q372.403 1449.02 369.66 1443.71 Q366.952 1438.36 361.501 1438.36 M361.501 1432.8 Q370.216 1432.8 374.799 1439.71 Q379.417 1446.59 379.417 1459.71 Q379.417 1472.8 374.799 1479.71 Q370.216 1486.59 361.501 1486.59 Q352.785 1486.59 348.167 1479.71 Q343.584 1472.8 343.584 1459.71 Q343.584 1446.59 348.167 1439.71 Q352.785 1432.8 361.501 1432.8 Z" fill="#000000" fill-rule="evenodd" fill-opacity="1" /><path clip-path="url(#clip940)" d="M733.725 1479.68 L745.183 1479.68 L745.183 1440.13 L732.718 1442.63 L732.718 1436.24 L745.114 1433.74 L752.128 1433.74 L752.128 1479.68 L763.586 1479.68 L763.586 1485.58 L733.725 1485.58 L733.725 1479.68 Z" fill="#000000" fill-rule="evenodd" fill-opacity="1" /><path clip-path="url(#clip940)" d="M1126.78 1479.68 L1151.26 1479.68 L1151.26 1485.58 L1118.35 1485.58 L1118.35 1479.68 Q1122.34 1475.55 1129.21 1468.6 Q1136.12 1461.62 1137.89 1459.61 Q1141.26 1455.82 1142.58 1453.22 Q1143.94 1450.58 1143.94 1448.05 Q1143.94 1443.91 1141.02 1441.31 Q1138.14 1438.71 1133.48 1438.71 Q1130.19 1438.71 1126.51 1439.85 Q1122.86 1441 1118.69 1443.32 L1118.69 1436.24 Q1122.93 1434.54 1126.61 1433.67 Q1130.29 1432.8 1133.35 1432.8 Q1141.4 1432.8 1146.19 1436.83 Q1150.98 1440.86 1150.98 1447.59 Q1150.98 1450.79 1149.77 1453.67 Q1148.59 1456.52 1145.43 1460.41 Q1144.56 1461.41 1139.91 1466.24 Q1135.26 1471.03 1126.78 1479.68 Z" fill="#000000" fill-rule="evenodd" fill-opacity="1" /><path clip-path="url(#clip940)" d="M1527.83 1457.63 Q1532.86 1458.7 1535.67 1462.11 Q1538.52 1465.51 1538.52 1470.51 Q1538.52 1478.18 1533.24 1482.39 Q1527.97 1486.59 1518.24 1486.59 Q1514.98 1486.59 1511.51 1485.93 Q1508.07 1485.3 1504.39 1484.02 L1504.39 1477.25 Q1507.31 1478.95 1510.78 1479.82 Q1514.25 1480.68 1518.04 1480.68 Q1524.63 1480.68 1528.07 1478.08 Q1531.54 1475.48 1531.54 1470.51 Q1531.54 1465.93 1528.31 1463.36 Q1525.12 1460.75 1519.39 1460.75 L1513.35 1460.75 L1513.35 1454.99 L1519.67 1454.99 Q1524.84 1454.99 1527.58 1452.94 Q1530.33 1450.86 1530.33 1446.97 Q1530.33 1442.98 1527.48 1440.86 Q1524.67 1438.71 1519.39 1438.71 Q1516.51 1438.71 1513.21 1439.33 Q1509.91 1439.96 1505.95 1441.27 L1505.95 1435.02 Q1509.94 1433.91 1513.42 1433.36 Q1516.92 1432.8 1520.01 1432.8 Q1528 1432.8 1532.65 1436.45 Q1537.31 1440.06 1537.31 1446.24 Q1537.31 1450.55 1534.84 1453.53 Q1532.38 1456.48 1527.83 1457.63 Z" fill="#000000" fill-rule="evenodd" fill-opacity="1" /><path clip-path="url(#clip940)" d="M1912.62 1439.85 L1894.91 1467.52 L1912.62 1467.52 L1912.62 1439.85 M1910.78 1433.74 L1919.6 1433.74 L1919.6 1467.52 L1927 1467.52 L1927 1473.36 L1919.6 1473.36 L1919.6 1485.58 L1912.62 1485.58 L1912.62 1473.36 L1889.22 1473.36 L1889.22 1466.59 L1910.78 1433.74 Z" fill="#000000" fill-rule="evenodd" fill-opacity="1" /><path clip-path="url(#clip940)" d="M2280.17 1433.74 L2307.71 1433.74 L2307.71 1439.64 L2286.6 1439.64 L2286.6 1452.35 Q2288.13 1451.83 2289.65 1451.59 Q2291.18 1451.31 2292.71 1451.31 Q2301.39 1451.31 2306.46 1456.07 Q2311.53 1460.82 2311.53 1468.95 Q2311.53 1477.32 2306.32 1481.97 Q2301.11 1486.59 2291.63 1486.59 Q2288.37 1486.59 2284.97 1486.03 Q2281.6 1485.48 2277.99 1484.36 L2277.99 1477.32 Q2281.11 1479.02 2284.45 1479.85 Q2287.78 1480.68 2291.49 1480.68 Q2297.5 1480.68 2301.01 1477.52 Q2304.52 1474.36 2304.52 1468.95 Q2304.52 1463.53 2301.01 1460.37 Q2297.5 1457.21 2291.49 1457.21 Q2288.68 1457.21 2285.87 1457.84 Q2283.09 1458.46 2280.17 1459.78 L2280.17 1433.74 Z" fill="#000000" fill-rule="evenodd" fill-opacity="1" /><path clip-path="url(#clip940)" d="M1271.74 1527.62 L1271.74 1538.66 L1284.9 1538.66 L1284.9 1543.62 L1271.74 1543.62 L1271.74 1564.74 Q1271.74 1569.49 1273.03 1570.85 Q1274.35 1572.2 1278.34 1572.2 L1284.9 1572.2 L1284.9 1577.55 L1278.34 1577.55 Q1270.94 1577.55 1268.13 1574.8 Q1265.32 1572.03 1265.32 1564.74 L1265.32 1543.62 L1260.63 1543.62 L1260.63 1538.66 L1265.32 1538.66 L1265.32 1527.62 L1271.74 1527.62 Z" fill="#000000" fill-rule="evenodd" fill-opacity="1" /><path clip-path="url(#clip940)" d="M1315.32 1523.52 L1330.04 1523.52 L1330.04 1528.49 L1321.71 1528.49 L1321.71 1581.96 L1330.04 1581.96 L1330.04 1586.92 L1315.32 1586.92 L1315.32 1523.52 Z" fill="#000000" fill-rule="evenodd" fill-opacity="1" /><path clip-path="url(#clip940)" d="M1368.44 1539.8 L1368.44 1545.85 Q1365.73 1544.46 1362.82 1543.76 Q1359.9 1543.07 1356.78 1543.07 Q1352.02 1543.07 1349.62 1544.53 Q1347.26 1545.99 1347.26 1548.9 Q1347.26 1551.12 1348.96 1552.41 Q1350.66 1553.66 1355.8 1554.8 L1357.99 1555.29 Q1364.8 1556.75 1367.64 1559.42 Q1370.53 1562.06 1370.53 1566.82 Q1370.53 1572.24 1366.22 1575.4 Q1361.95 1578.55 1354.45 1578.55 Q1351.32 1578.55 1347.92 1577.93 Q1344.55 1577.34 1340.8 1576.12 L1340.8 1569.53 Q1344.34 1571.37 1347.78 1572.3 Q1351.22 1573.21 1354.59 1573.21 Q1359.1 1573.21 1361.53 1571.68 Q1363.96 1570.12 1363.96 1567.3 Q1363.96 1564.7 1362.19 1563.31 Q1360.46 1561.92 1354.52 1560.64 L1352.3 1560.12 Q1346.36 1558.87 1343.72 1556.3 Q1341.08 1553.69 1341.08 1549.18 Q1341.08 1543.69 1344.97 1540.71 Q1348.86 1537.72 1356.01 1537.72 Q1359.55 1537.72 1362.68 1538.24 Q1365.8 1538.76 1368.44 1539.8 Z" fill="#000000" fill-rule="evenodd" fill-opacity="1" /><path clip-path="url(#clip940)" d="M1395.63 1523.52 L1395.63 1586.92 L1380.91 1586.92 L1380.91 1581.96 L1389.21 1581.96 L1389.21 1528.49 L1380.91 1528.49 L1380.91 1523.52 L1395.63 1523.52 Z" fill="#000000" fill-rule="evenodd" fill-opacity="1" /><polyline clip-path="url(#clip942)" style="stroke:#000000; stroke-linecap:round; stroke-linejoin:round; stroke-width:2; stroke-opacity:0.1; fill:none" points="
  303.503,1361.96 2352.76,1361.96 
  "/>
<polyline clip-path="url(#clip942)" style="stroke:#000000; stroke-linecap:round; stroke-linejoin:round; stroke-width:2; stroke-opacity:0.1; fill:none" points="
  303.503,1096.36 2352.76,1096.36 
  "/>
<polyline clip-path="url(#clip942)" style="stroke:#000000; stroke-linecap:round; stroke-linejoin:round; stroke-width:2; stroke-opacity:0.1; fill:none" points="
  303.503,830.761 2352.76,830.761 
  "/>
<polyline clip-path="url(#clip942)" style="stroke:#000000; stroke-linecap:round; stroke-linejoin:round; stroke-width:2; stroke-opacity:0.1; fill:none" points="
  303.503,565.16 2352.76,565.16 
  "/>
<polyline clip-path="url(#clip942)" style="stroke:#000000; stroke-linecap:round; stroke-linejoin:round; stroke-width:2; stroke-opacity:0.1; fill:none" points="
  303.503,299.559 2352.76,299.559 
  "/>
<polyline clip-path="url(#clip940)" style="stroke:#000000; stroke-linecap:round; stroke-linejoin:round; stroke-width:4; stroke-opacity:1; fill:none" points="
  303.503,1401.58 303.503,47.2441 
  "/>
<polyline clip-path="url(#clip940)" style="stroke:#000000; stroke-linecap:round; stroke-linejoin:round; stroke-width:4; stroke-opacity:1; fill:none" points="
  303.503,1361.96 322.401,1361.96 
  "/>
<polyline clip-path="url(#clip940)" style="stroke:#000000; stroke-linecap:round; stroke-linejoin:round; stroke-width:4; stroke-opacity:1; fill:none" points="
  303.503,1096.36 322.401,1096.36 
  "/>
<polyline clip-path="url(#clip940)" style="stroke:#000000; stroke-linecap:round; stroke-linejoin:round; stroke-width:4; stroke-opacity:1; fill:none" points="
  303.503,830.761 322.401,830.761 
  "/>
<polyline clip-path="url(#clip940)" style="stroke:#000000; stroke-linecap:round; stroke-linejoin:round; stroke-width:4; stroke-opacity:1; fill:none" points="
  303.503,565.16 322.401,565.16 
  "/>
<polyline clip-path="url(#clip940)" style="stroke:#000000; stroke-linecap:round; stroke-linejoin:round; stroke-width:4; stroke-opacity:1; fill:none" points="
  303.503,299.559 322.401,299.559 
  "/>
<path clip-path="url(#clip940)" d="M136.497 1340.66 Q131.08 1340.66 128.337 1346.01 Q125.629 1351.32 125.629 1362.01 Q125.629 1372.67 128.337 1378.02 Q131.08 1383.33 136.497 1383.33 Q141.948 1383.33 144.656 1378.02 Q147.399 1372.67 147.399 1362.01 Q147.399 1351.32 144.656 1346.01 Q141.948 1340.66 136.497 1340.66 M136.497 1335.11 Q145.212 1335.11 149.795 1342.01 Q154.413 1348.89 154.413 1362.01 Q154.413 1375.1 149.795 1382.01 Q145.212 1388.89 136.497 1388.89 Q127.781 1388.89 123.163 1382.01 Q118.58 1375.1 118.58 1362.01 Q118.58 1348.89 123.163 1342.01 Q127.781 1335.11 136.497 1335.11 Z" fill="#000000" fill-rule="evenodd" fill-opacity="1" /><path clip-path="url(#clip940)" d="M166.74 1379.06 L174.066 1379.06 L174.066 1387.88 L166.74 1387.88 L166.74 1379.06 Z" fill="#000000" fill-rule="evenodd" fill-opacity="1" /><path clip-path="url(#clip940)" d="M189.413 1336.04 L216.948 1336.04 L216.948 1341.95 L195.837 1341.95 L195.837 1354.65 Q197.364 1354.13 198.892 1353.89 Q200.42 1353.61 201.948 1353.61 Q210.628 1353.61 215.698 1358.37 Q220.767 1363.13 220.767 1371.25 Q220.767 1379.62 215.559 1384.27 Q210.35 1388.89 200.871 1388.89 Q197.608 1388.89 194.205 1388.33 Q190.837 1387.78 187.226 1386.67 L187.226 1379.62 Q190.351 1381.32 193.684 1382.15 Q197.017 1382.99 200.732 1382.99 Q206.739 1382.99 210.246 1379.83 Q213.753 1376.67 213.753 1371.25 Q213.753 1365.83 210.246 1362.67 Q206.739 1359.51 200.732 1359.51 Q197.92 1359.51 195.108 1360.14 Q192.33 1360.76 189.413 1362.08 L189.413 1336.04 Z" fill="#000000" fill-rule="evenodd" fill-opacity="1" /><path clip-path="url(#clip940)" d="M249.586 1340.66 Q244.17 1340.66 241.427 1346.01 Q238.718 1351.32 238.718 1362.01 Q238.718 1372.67 241.427 1378.02 Q244.17 1383.33 249.586 1383.33 Q255.038 1383.33 257.746 1378.02 Q260.489 1372.67 260.489 1362.01 Q260.489 1351.32 257.746 1346.01 Q255.038 1340.66 249.586 1340.66 M249.586 1335.11 Q258.302 1335.11 262.885 1342.01 Q267.503 1348.89 267.503 1362.01 Q267.503 1375.1 262.885 1382.01 Q258.302 1388.89 249.586 1388.89 Q240.871 1388.89 236.253 1382.01 Q231.67 1375.1 231.67 1362.01 Q231.67 1348.89 236.253 1342.01 Q240.871 1335.11 249.586 1335.11 Z" fill="#000000" fill-rule="evenodd" fill-opacity="1" /><path clip-path="url(#clip940)" d="M137.99 1075.06 Q132.573 1075.06 129.83 1080.41 Q127.122 1085.72 127.122 1096.41 Q127.122 1107.07 129.83 1112.42 Q132.573 1117.73 137.99 1117.73 Q143.441 1117.73 146.149 1112.42 Q148.892 1107.07 148.892 1096.41 Q148.892 1085.72 146.149 1080.41 Q143.441 1075.06 137.99 1075.06 M137.99 1069.5 Q146.705 1069.5 151.288 1076.41 Q155.906 1083.29 155.906 1096.41 Q155.906 1109.5 151.288 1116.41 Q146.705 1123.29 137.99 1123.29 Q129.275 1123.29 124.657 1116.41 Q120.073 1109.5 120.073 1096.41 Q120.073 1083.29 124.657 1076.41 Q129.275 1069.5 137.99 1069.5 Z" fill="#000000" fill-rule="evenodd" fill-opacity="1" /><path clip-path="url(#clip940)" d="M168.233 1113.46 L175.559 1113.46 L175.559 1122.28 L168.233 1122.28 L168.233 1113.46 Z" fill="#000000" fill-rule="evenodd" fill-opacity="1" /><path clip-path="url(#clip940)" d="M189.066 1070.44 L222.399 1070.44 L222.399 1073.43 L203.58 1122.28 L196.253 1122.28 L213.962 1076.34 L189.066 1076.34 L189.066 1070.44 Z" fill="#000000" fill-rule="evenodd" fill-opacity="1" /><path clip-path="url(#clip940)" d="M236.149 1070.44 L263.684 1070.44 L263.684 1076.34 L242.573 1076.34 L242.573 1089.05 Q244.1 1088.53 245.628 1088.29 Q247.156 1088.01 248.684 1088.01 Q257.364 1088.01 262.434 1092.77 Q267.503 1097.52 267.503 1105.65 Q267.503 1114.02 262.295 1118.67 Q257.086 1123.29 247.607 1123.29 Q244.343 1123.29 240.941 1122.73 Q237.573 1122.18 233.961 1121.07 L233.961 1114.02 Q237.086 1115.72 240.42 1116.55 Q243.753 1117.39 247.468 1117.39 Q253.475 1117.39 256.982 1114.23 Q260.489 1111.07 260.489 1105.65 Q260.489 1100.23 256.982 1097.07 Q253.475 1093.91 247.468 1093.91 Q244.656 1093.91 241.843 1094.54 Q239.066 1095.16 236.149 1096.48 L236.149 1070.44 Z" fill="#000000" fill-rule="evenodd" fill-opacity="1" /><path clip-path="url(#clip940)" d="M122.712 850.778 L134.17 850.778 L134.17 811.23 L121.705 813.73 L121.705 807.341 L134.101 804.841 L141.115 804.841 L141.115 850.778 L152.573 850.778 L152.573 856.681 L122.712 856.681 L122.712 850.778 Z" fill="#000000" fill-rule="evenodd" fill-opacity="1" /><path clip-path="url(#clip940)" d="M166.74 847.861 L174.066 847.861 L174.066 856.681 L166.74 856.681 L166.74 847.861 Z" fill="#000000" fill-rule="evenodd" fill-opacity="1" /><path clip-path="url(#clip940)" d="M204.344 809.459 Q198.927 809.459 196.184 814.806 Q193.476 820.118 193.476 830.813 Q193.476 841.472 196.184 846.82 Q198.927 852.132 204.344 852.132 Q209.795 852.132 212.503 846.82 Q215.246 841.472 215.246 830.813 Q215.246 820.118 212.503 814.806 Q209.795 809.459 204.344 809.459 M204.344 803.903 Q213.059 803.903 217.642 810.813 Q222.26 817.688 222.26 830.813 Q222.26 843.903 217.642 850.813 Q213.059 857.688 204.344 857.688 Q195.628 857.688 191.01 850.813 Q186.427 843.903 186.427 830.813 Q186.427 817.688 191.01 810.813 Q195.628 803.903 204.344 803.903 Z" fill="#000000" fill-rule="evenodd" fill-opacity="1" /><path clip-path="url(#clip940)" d="M249.586 809.459 Q244.17 809.459 241.427 814.806 Q238.718 820.118 238.718 830.813 Q238.718 841.472 241.427 846.82 Q244.17 852.132 249.586 852.132 Q255.038 852.132 257.746 846.82 Q260.489 841.472 260.489 830.813 Q260.489 820.118 257.746 814.806 Q255.038 809.459 249.586 809.459 M249.586 803.903 Q258.302 803.903 262.885 810.813 Q267.503 817.688 267.503 830.813 Q267.503 843.903 262.885 850.813 Q258.302 857.688 249.586 857.688 Q240.871 857.688 236.253 850.813 Q231.67 843.903 231.67 830.813 Q231.67 817.688 236.253 810.813 Q240.871 803.903 249.586 803.903 Z" fill="#000000" fill-rule="evenodd" fill-opacity="1" /><path clip-path="url(#clip940)" d="M124.205 585.177 L135.663 585.177 L135.663 545.629 L123.198 548.129 L123.198 541.74 L135.594 539.24 L142.608 539.24 L142.608 585.177 L154.066 585.177 L154.066 591.08 L124.205 591.08 L124.205 585.177 Z" fill="#000000" fill-rule="evenodd" fill-opacity="1" /><path clip-path="url(#clip940)" d="M168.233 582.26 L175.559 582.26 L175.559 591.08 L168.233 591.08 L168.233 582.26 Z" fill="#000000" fill-rule="evenodd" fill-opacity="1" /><path clip-path="url(#clip940)" d="M196.878 585.177 L221.357 585.177 L221.357 591.08 L188.441 591.08 L188.441 585.177 Q192.434 581.045 199.309 574.101 Q206.219 567.122 207.989 565.108 Q211.357 561.323 212.677 558.719 Q214.031 556.08 214.031 553.545 Q214.031 549.413 211.114 546.809 Q208.232 544.205 203.58 544.205 Q200.281 544.205 196.601 545.351 Q192.955 546.497 188.788 548.823 L188.788 541.74 Q193.024 540.038 196.705 539.17 Q200.385 538.302 203.441 538.302 Q211.496 538.302 216.288 542.33 Q221.08 546.358 221.08 553.094 Q221.08 556.288 219.864 559.17 Q218.684 562.017 215.524 565.906 Q214.656 566.913 210.003 571.74 Q205.351 576.531 196.878 585.177 Z" fill="#000000" fill-rule="evenodd" fill-opacity="1" /><path clip-path="url(#clip940)" d="M236.149 539.24 L263.684 539.24 L263.684 545.143 L242.573 545.143 L242.573 557.851 Q244.1 557.33 245.628 557.087 Q247.156 556.809 248.684 556.809 Q257.364 556.809 262.434 561.566 Q267.503 566.323 267.503 574.448 Q267.503 582.816 262.295 587.469 Q257.086 592.087 247.607 592.087 Q244.343 592.087 240.941 591.531 Q237.573 590.976 233.961 589.865 L233.961 582.816 Q237.086 584.517 240.42 585.351 Q243.753 586.184 247.468 586.184 Q253.475 586.184 256.982 583.024 Q260.489 579.865 260.489 574.448 Q260.489 569.031 256.982 565.872 Q253.475 562.712 247.468 562.712 Q244.656 562.712 241.843 563.337 Q239.066 563.962 236.149 565.281 L236.149 539.24 Z" fill="#000000" fill-rule="evenodd" fill-opacity="1" /><path clip-path="url(#clip940)" d="M122.712 319.576 L134.17 319.576 L134.17 280.028 L121.705 282.528 L121.705 276.139 L134.101 273.639 L141.115 273.639 L141.115 319.576 L152.573 319.576 L152.573 325.479 L122.712 325.479 L122.712 319.576 Z" fill="#000000" fill-rule="evenodd" fill-opacity="1" /><path clip-path="url(#clip940)" d="M166.74 316.659 L174.066 316.659 L174.066 325.479 L166.74 325.479 L166.74 316.659 Z" fill="#000000" fill-rule="evenodd" fill-opacity="1" /><path clip-path="url(#clip940)" d="M189.413 273.639 L216.948 273.639 L216.948 279.542 L195.837 279.542 L195.837 292.25 Q197.364 291.729 198.892 291.486 Q200.42 291.208 201.948 291.208 Q210.628 291.208 215.698 295.965 Q220.767 300.722 220.767 308.847 Q220.767 317.215 215.559 321.868 Q210.35 326.486 200.871 326.486 Q197.608 326.486 194.205 325.93 Q190.837 325.375 187.226 324.264 L187.226 317.215 Q190.351 318.916 193.684 319.75 Q197.017 320.583 200.732 320.583 Q206.739 320.583 210.246 317.423 Q213.753 314.264 213.753 308.847 Q213.753 303.43 210.246 300.271 Q206.739 297.111 200.732 297.111 Q197.92 297.111 195.108 297.736 Q192.33 298.361 189.413 299.68 L189.413 273.639 Z" fill="#000000" fill-rule="evenodd" fill-opacity="1" /><path clip-path="url(#clip940)" d="M249.586 278.257 Q244.17 278.257 241.427 283.604 Q238.718 288.917 238.718 299.611 Q238.718 310.271 241.427 315.618 Q244.17 320.93 249.586 320.93 Q255.038 320.93 257.746 315.618 Q260.489 310.271 260.489 299.611 Q260.489 288.917 257.746 283.604 Q255.038 278.257 249.586 278.257 M249.586 272.701 Q258.302 272.701 262.885 279.611 Q267.503 286.486 267.503 299.611 Q267.503 312.701 262.885 319.611 Q258.302 326.486 249.586 326.486 Q240.871 326.486 236.253 319.611 Q231.67 312.701 231.67 299.611 Q231.67 286.486 236.253 279.611 Q240.871 272.701 249.586 272.701 Z" fill="#000000" fill-rule="evenodd" fill-opacity="1" /><path clip-path="url(#clip940)" d="M35.6047 1006.89 Q31.2992 1004.5 29.2506 1001.16 Q27.202 997.831 27.202 993.317 Q27.202 987.24 31.4728 983.942 Q35.7089 980.643 43.5561 980.643 L67.0282 980.643 L67.0282 987.067 L43.7644 987.067 Q38.1741 987.067 35.4658 989.046 Q32.7575 991.025 32.7575 995.088 Q32.7575 1000.05 36.0561 1002.93 Q39.3547 1005.82 45.0491 1005.82 L67.0282 1005.82 L67.0282 1012.24 L43.7644 1012.24 Q38.1394 1012.24 35.4658 1014.22 Q32.7575 1016.2 32.7575 1020.33 Q32.7575 1025.23 36.0908 1028.11 Q39.3894 1030.99 45.0491 1030.99 L67.0282 1030.99 L67.0282 1037.41 L28.1395 1037.41 L28.1395 1030.99 L34.1811 1030.99 Q30.6047 1028.8 28.9034 1025.75 Q27.202 1022.69 27.202 1018.49 Q27.202 1014.25 29.3547 1011.3 Q31.5075 1008.32 35.6047 1006.89 Z" fill="#000000" fill-rule="evenodd" fill-opacity="1" /><path clip-path="url(#clip940)" d="M47.4797 950.227 Q47.4797 957.97 49.2505 960.956 Q51.0213 963.942 55.2921 963.942 Q58.6949 963.942 60.7087 961.72 Q62.6879 959.463 62.6879 955.609 Q62.6879 950.296 58.9379 947.102 Q55.1532 943.873 48.9033 943.873 L47.4797 943.873 L47.4797 950.227 M44.8408 937.484 L67.0282 937.484 L67.0282 943.873 L61.1254 943.873 Q64.6671 946.06 66.3684 949.324 Q68.0351 952.588 68.0351 957.31 Q68.0351 963.282 64.7018 966.824 Q61.3337 970.331 55.7088 970.331 Q49.1463 970.331 45.813 965.956 Q42.4797 961.546 42.4797 952.831 L42.4797 943.873 L41.8547 943.873 Q37.445 943.873 35.0492 946.789 Q32.6186 949.671 32.6186 954.914 Q32.6186 958.248 33.4172 961.407 Q34.2158 964.567 35.813 967.484 L29.9103 967.484 Q28.5561 963.977 27.8964 960.678 Q27.202 957.379 27.202 954.254 Q27.202 945.817 31.577 941.65 Q35.9519 937.484 44.8408 937.484 Z" fill="#000000" fill-rule="evenodd" fill-opacity="1" /><path clip-path="url(#clip940)" d="M29.2853 899.533 L35.3269 899.533 Q33.9381 902.241 33.2436 905.158 Q32.5492 908.074 32.5492 911.199 Q32.5492 915.956 34.0075 918.352 Q35.4658 920.713 38.3825 920.713 Q40.6047 920.713 41.8894 919.012 Q43.1394 917.31 44.2852 912.171 L44.7713 909.984 Q46.2297 903.178 48.9033 900.331 Q51.5421 897.449 56.299 897.449 Q61.7157 897.449 64.8754 901.755 Q68.0351 906.026 68.0351 913.526 Q68.0351 916.651 67.4101 920.053 Q66.8198 923.421 65.6046 927.171 L59.0074 927.171 Q60.8476 923.63 61.7851 920.192 Q62.6879 916.755 62.6879 913.387 Q62.6879 908.873 61.1601 906.442 Q59.5976 904.012 56.7852 904.012 Q54.181 904.012 52.7921 905.783 Q51.4032 907.519 50.1185 913.456 L49.5977 915.678 Q48.3477 921.616 45.7783 924.255 Q43.1741 926.894 38.6603 926.894 Q33.1742 926.894 30.1881 923.005 Q27.202 919.116 27.202 911.963 Q27.202 908.421 27.7228 905.296 Q28.2436 902.171 29.2853 899.533 Z" fill="#000000" fill-rule="evenodd" fill-opacity="1" /><path clip-path="url(#clip940)" d="M29.2853 862.484 L35.3269 862.484 Q33.9381 865.192 33.2436 868.109 Q32.5492 871.026 32.5492 874.151 Q32.5492 878.908 34.0075 881.303 Q35.4658 883.665 38.3825 883.665 Q40.6047 883.665 41.8894 881.963 Q43.1394 880.262 44.2852 875.123 L44.7713 872.935 Q46.2297 866.13 48.9033 863.283 Q51.5421 860.401 56.299 860.401 Q61.7157 860.401 64.8754 864.706 Q68.0351 868.977 68.0351 876.477 Q68.0351 879.602 67.4101 883.005 Q66.8198 886.373 65.6046 890.123 L59.0074 890.123 Q60.8476 886.581 61.7851 883.144 Q62.6879 879.706 62.6879 876.338 Q62.6879 871.824 61.1601 869.394 Q59.5976 866.963 56.7852 866.963 Q54.181 866.963 52.7921 868.734 Q51.4032 870.47 50.1185 876.408 L49.5977 878.63 Q48.3477 884.567 45.7783 887.206 Q43.1741 889.845 38.6603 889.845 Q33.1742 889.845 30.1881 885.956 Q27.202 882.067 27.202 874.915 Q27.202 871.373 27.7228 868.248 Q28.2436 865.123 29.2853 862.484 Z" fill="#000000" fill-rule="evenodd" fill-opacity="1" /><path clip-path="url(#clip940)" d="M61.1949 821.443 L81.8197 821.443 L81.8197 827.866 L28.1395 827.866 L28.1395 821.443 L34.0422 821.443 Q30.57 819.429 28.9034 816.373 Q27.202 813.283 27.202 809.012 Q27.202 801.929 32.827 797.519 Q38.4519 793.075 47.6185 793.075 Q56.7852 793.075 62.4101 797.519 Q68.0351 801.929 68.0351 809.012 Q68.0351 813.283 66.3684 816.373 Q64.6671 819.429 61.1949 821.443 M47.6185 799.707 Q40.57 799.707 36.5769 802.623 Q32.5492 805.505 32.5492 810.575 Q32.5492 815.644 36.5769 818.561 Q40.57 821.443 47.6185 821.443 Q54.6671 821.443 58.6949 818.561 Q62.6879 815.644 62.6879 810.575 Q62.6879 805.505 58.6949 802.623 Q54.6671 799.707 47.6185 799.707 Z" fill="#000000" fill-rule="evenodd" fill-opacity="1" /><path clip-path="url(#clip940)" d="M32.6186 767.415 Q32.6186 772.554 36.6464 775.54 Q40.6394 778.526 47.6185 778.526 Q54.5977 778.526 58.6254 775.575 Q62.6185 772.589 62.6185 767.415 Q62.6185 762.311 58.5907 759.325 Q54.5629 756.339 47.6185 756.339 Q40.7089 756.339 36.6811 759.325 Q32.6186 762.311 32.6186 767.415 M27.202 767.415 Q27.202 759.082 32.6186 754.325 Q38.0353 749.568 47.6185 749.568 Q57.1671 749.568 62.6185 754.325 Q68.0351 759.082 68.0351 767.415 Q68.0351 775.783 62.6185 780.54 Q57.1671 785.262 47.6185 785.262 Q38.0353 785.262 32.6186 780.54 Q27.202 775.783 27.202 767.415 Z" fill="#000000" fill-rule="evenodd" fill-opacity="1" /><path clip-path="url(#clip940)" d="M29.2853 714.186 L35.3269 714.186 Q33.9381 716.895 33.2436 719.811 Q32.5492 722.728 32.5492 725.853 Q32.5492 730.61 34.0075 733.006 Q35.4658 735.367 38.3825 735.367 Q40.6047 735.367 41.8894 733.665 Q43.1394 731.964 44.2852 726.825 L44.7713 724.638 Q46.2297 717.832 48.9033 714.985 Q51.5421 712.103 56.299 712.103 Q61.7157 712.103 64.8754 716.409 Q68.0351 720.679 68.0351 728.179 Q68.0351 731.304 67.4101 734.707 Q66.8198 738.075 65.6046 741.825 L59.0074 741.825 Q60.8476 738.283 61.7851 734.846 Q62.6879 731.408 62.6879 728.04 Q62.6879 723.527 61.1601 721.096 Q59.5976 718.665 56.7852 718.665 Q54.181 718.665 52.7921 720.436 Q51.4032 722.172 50.1185 728.11 L49.5977 730.332 Q48.3477 736.27 45.7783 738.908 Q43.1741 741.547 38.6603 741.547 Q33.1742 741.547 30.1881 737.658 Q27.202 733.77 27.202 726.617 Q27.202 723.075 27.7228 719.95 Q28.2436 716.825 29.2853 714.186 Z" fill="#000000" fill-rule="evenodd" fill-opacity="1" /><path clip-path="url(#clip940)" d="M28.1395 701.929 L28.1395 695.541 L67.0282 695.541 L67.0282 701.929 L28.1395 701.929 M13.0007 701.929 L13.0007 695.541 L21.0909 695.541 L21.0909 701.929 L13.0007 701.929 Z" fill="#000000" fill-rule="evenodd" fill-opacity="1" /><path clip-path="url(#clip940)" d="M17.0979 675.853 L28.1395 675.853 L28.1395 662.694 L33.1047 662.694 L33.1047 675.853 L54.2157 675.853 Q58.9726 675.853 60.3268 674.568 Q61.681 673.249 61.681 669.256 L61.681 662.694 L67.0282 662.694 L67.0282 669.256 Q67.0282 676.652 64.2851 679.464 Q61.5074 682.277 54.2157 682.277 L33.1047 682.277 L33.1047 686.964 L28.1395 686.964 L28.1395 682.277 L17.0979 682.277 L17.0979 675.853 Z" fill="#000000" fill-rule="evenodd" fill-opacity="1" /><path clip-path="url(#clip940)" d="M28.1395 654.291 L28.1395 647.902 L67.0282 647.902 L67.0282 654.291 L28.1395 654.291 M13.0007 654.291 L13.0007 647.902 L21.0909 647.902 L21.0909 654.291 L13.0007 654.291 Z" fill="#000000" fill-rule="evenodd" fill-opacity="1" /><path clip-path="url(#clip940)" d="M32.6186 619.465 Q32.6186 624.603 36.6464 627.59 Q40.6394 630.576 47.6185 630.576 Q54.5977 630.576 58.6254 627.624 Q62.6185 624.638 62.6185 619.465 Q62.6185 614.36 58.5907 611.374 Q54.5629 608.388 47.6185 608.388 Q40.7089 608.388 36.6811 611.374 Q32.6186 614.36 32.6186 619.465 M27.202 619.465 Q27.202 611.131 32.6186 606.374 Q38.0353 601.617 47.6185 601.617 Q57.1671 601.617 62.6185 606.374 Q68.0351 611.131 68.0351 619.465 Q68.0351 627.833 62.6185 632.59 Q57.1671 637.312 47.6185 637.312 Q38.0353 637.312 32.6186 632.59 Q27.202 627.833 27.202 619.465 Z" fill="#000000" fill-rule="evenodd" fill-opacity="1" /><path clip-path="url(#clip940)" d="M43.5561 558.701 L67.0282 558.701 L67.0282 565.09 L43.7644 565.09 Q38.2436 565.09 35.5005 567.243 Q32.7575 569.395 32.7575 573.701 Q32.7575 578.875 36.0561 581.861 Q39.3547 584.847 45.0491 584.847 L67.0282 584.847 L67.0282 591.27 L28.1395 591.27 L28.1395 584.847 L34.1811 584.847 Q30.6742 582.555 28.9381 579.465 Q27.202 576.34 27.202 572.277 Q27.202 565.576 31.3686 562.139 Q35.5005 558.701 43.5561 558.701 Z" fill="#000000" fill-rule="evenodd" fill-opacity="1" /><path clip-path="url(#clip940)" d="M13.0007 523.944 L13.0007 509.222 L17.9659 509.222 L17.9659 517.555 L71.4379 517.555 L71.4379 509.222 L76.4031 509.222 L76.4031 523.944 L13.0007 523.944 Z" fill="#000000" fill-rule="evenodd" fill-opacity="1" /><path clip-path="url(#clip940)" d="M35.6047 465.333 Q31.2992 462.938 29.2506 459.604 Q27.202 456.271 27.202 451.757 Q27.202 445.681 31.4728 442.382 Q35.7089 439.084 43.5561 439.084 L67.0282 439.084 L67.0282 445.507 L43.7644 445.507 Q38.1741 445.507 35.4658 447.486 Q32.7575 449.466 32.7575 453.528 Q32.7575 458.493 36.0561 461.375 Q39.3547 464.257 45.0491 464.257 L67.0282 464.257 L67.0282 470.681 L43.7644 470.681 Q38.1394 470.681 35.4658 472.66 Q32.7575 474.639 32.7575 478.771 Q32.7575 483.667 36.0908 486.549 Q39.3894 489.431 45.0491 489.431 L67.0282 489.431 L67.0282 495.854 L28.1395 495.854 L28.1395 489.431 L34.1811 489.431 Q30.6047 487.243 28.9034 484.188 Q27.202 481.132 27.202 476.931 Q27.202 472.695 29.3547 469.743 Q31.5075 466.757 35.6047 465.333 Z" fill="#000000" fill-rule="evenodd" fill-opacity="1" /><path clip-path="url(#clip940)" d="M13.0007 411.41 L76.4031 411.41 L76.4031 426.132 L71.4379 426.132 L71.4379 417.834 L17.9659 417.834 L17.9659 426.132 L13.0007 426.132 L13.0007 411.41 Z" fill="#000000" fill-rule="evenodd" fill-opacity="1" /><polyline clip-path="url(#clip942)" style="stroke:#009af9; stroke-linecap:round; stroke-linejoin:round; stroke-width:8; stroke-opacity:1; fill:none" points="
  361.501,1361.96 365.367,1361.63 369.234,1360.67 373.1,1359.08 376.967,1356.85 380.833,1353.99 384.7,1350.51 388.566,1346.39 392.433,1341.66 396.299,1336.31 
  400.166,1330.34 404.032,1323.77 407.899,1316.6 411.765,1308.85 415.632,1300.5 419.498,1291.59 423.365,1282.1 427.231,1272.06 431.098,1261.48 434.964,1250.35 
  438.831,1238.7 442.698,1226.54 446.564,1213.87 450.431,1200.71 454.297,1187.08 458.164,1172.99 462.03,1158.44 465.897,1143.47 469.763,1128.08 473.63,1112.28 
  477.496,1096.1 481.363,1079.55 485.229,1062.63 489.096,1045.38 492.962,1027.81 496.829,1009.94 500.695,991.785 504.562,973.358 508.428,954.678 512.295,935.763 
  516.161,916.636 520.028,897.318 523.894,877.825 527.761,858.176 531.627,838.392 535.494,818.493 539.36,798.499 543.227,778.426 547.093,758.297 550.96,738.133 
  554.826,717.956 558.693,697.786 562.559,677.644 566.426,657.548 570.293,637.513 574.159,617.565 578.026,597.724 581.892,578.011 585.759,558.448 589.625,539.055 
  593.492,519.839 597.358,500.828 601.225,482.04 605.091,463.496 608.958,445.216 612.824,427.217 616.691,409.516 620.557,392.125 624.424,375.067 628.29,358.359 
  632.157,342.018 636.023,326.062 639.89,310.507 643.756,295.363 647.623,280.646 651.489,266.373 655.356,252.559 659.222,239.218 663.089,226.365 666.955,214.011 
  670.822,202.163 674.688,190.837 678.555,180.046 682.421,169.8 686.288,160.111 690.154,150.988 694.021,142.437 697.887,134.466 701.754,127.085 705.621,120.303 
  709.487,114.126 713.354,108.561 717.22,103.613 721.087,99.2832 724.953,95.579 728.82,92.5042 732.686,90.0622 736.553,88.2558 740.419,87.087 744.286,86.5554 
  748.152,86.6609 752.019,87.4047 755.885,88.7862 759.752,90.8041 763.618,93.4565 767.485,96.7409 771.351,100.653 775.218,105.189 779.084,110.344 782.951,116.115 
  786.817,122.494 790.684,129.476 794.55,137.053 798.417,145.218 802.283,153.963 806.15,163.279 810.016,173.157 813.883,183.586 817.749,194.555 821.616,206.056 
  825.482,218.077 829.349,230.604 833.216,243.626 837.082,257.128 840.949,271.096 844.815,285.519 848.682,300.383 852.548,315.672 856.415,331.37 860.281,347.461 
  864.148,363.928 868.014,380.754 871.881,397.927 875.747,415.429 879.614,433.239 883.48,451.341 887.347,469.715 891.213,488.343 895.08,507.206 898.946,526.291 
  902.813,545.575 906.679,565.038 910.546,584.659 914.412,604.419 918.279,624.297 922.145,644.279 926.012,664.343 929.878,684.468 933.745,704.632 937.611,724.815 
  941.478,744.995 945.344,765.154 949.211,785.278 953.077,805.341 956.944,825.324 960.811,845.205 964.677,864.963 968.544,884.578 972.41,904.036 976.277,923.318 
  980.143,942.401 984.01,961.265 987.876,979.892 991.743,998.26 995.609,1016.35 999.476,1034.16 1003.34,1051.66 1007.21,1068.83 1011.08,1085.65 1014.94,1102.11 
  1018.81,1118.2 1022.67,1133.88 1026.54,1149.17 1030.41,1164.03 1034.27,1178.45 1038.14,1192.41 1042.01,1205.9 1045.87,1218.91 1049.74,1231.43 1053.61,1243.45 
  1057.47,1254.94 1061.34,1265.9 1065.21,1276.32 1069.07,1286.19 1072.94,1295.49 1076.81,1304.23 1080.67,1312.39 1084.54,1319.95 1088.41,1326.93 1092.27,1333.29 
  1096.14,1339.05 1100.01,1344.2 1103.87,1348.72 1107.74,1352.62 1111.6,1355.89 1115.47,1358.53 1119.34,1360.54 1123.2,1361.91 1127.07,1362.64 1130.94,1362.73 
  1134.8,1362.19 1138.67,1361 1142.54,1359.18 1146.4,1356.73 1150.27,1353.64 1154.14,1349.92 1158,1345.58 1161.87,1340.61 1165.74,1335.03 1169.6,1328.84 
  1173.47,1322.04 1177.34,1314.64 1181.2,1306.66 1185.07,1298.09 1188.93,1288.95 1192.8,1279.24 1196.67,1268.98 1200.53,1258.17 1204.4,1246.83 1208.27,1234.96 
  1212.13,1222.59 1216,1209.71 1219.87,1196.36 1223.73,1182.53 1227.6,1168.24 1231.47,1153.5 1235.33,1138.34 1239.2,1122.76 1243.07,1106.78 1246.93,1090.43 
  1250.8,1073.7 1254.67,1056.63 1258.53,1039.22 1262.4,1021.5 1266.27,1003.48 1270.13,985.181 1274,966.626 1277.86,947.823 1281.73,928.796 1285.6,909.565 
  1289.46,890.149 1293.33,870.568 1297.2,850.843 1301.06,830.992 1304.93,811.03 1308.8,790.98 1312.66,770.865 1316.53,750.704 1320.4,730.518 1324.26,710.33 
  1328.13,690.15 1332,670.004 1335.86,649.911 1339.73,629.894 1343.6,609.973 1347.46,590.169 1351.33,570.5 1355.2,550.979 1359.06,531.632 1362.93,512.478 
  1366.79,493.537 1370.66,474.829 1374.53,456.374 1378.39,438.183 1382.26,420.276 1386.13,402.673 1389.99,385.393 1393.86,368.453 1397.73,351.872 1401.59,335.665 
  1405.46,319.841 1409.33,304.422 1413.19,289.424 1417.06,274.862 1420.93,260.751 1424.79,247.106 1428.66,233.938 1432.53,221.256 1436.39,209.079 1440.26,197.417 
  1444.12,186.284 1447.99,175.691 1451.86,165.65 1455.72,156.162 1459.59,147.243 1463.46,138.902 1467.32,131.147 1471.19,123.987 1475.06,117.429 1478.92,111.479 
  1482.79,106.139 1486.66,101.418 1490.52,97.3201 1494.39,93.8508 1498.26,91.0134 1502.12,88.8112 1505.99,87.2427 1509.86,86.3116 1513.72,86.0191 1517.59,86.3658 
  1521.46,87.3514 1525.32,88.9751 1529.19,91.2349 1533.05,94.1275 1536.92,97.6508 1540.79,101.802 1544.65,106.575 1548.52,111.968 1552.39,117.973 1556.25,124.585 
  1560.12,131.798 1563.99,139.604 1567.85,147.996 1571.72,156.964 1575.59,166.499 1579.45,176.593 1583.32,187.236 1587.19,198.417 1591.05,210.125 1594.92,222.347 
  1598.79,235.071 1602.65,248.284 1606.52,261.974 1610.39,276.129 1614.25,290.733 1618.12,305.77 1621.98,321.226 1625.85,337.084 1629.72,353.329 1633.58,369.949 
  1637.45,386.925 1641.32,404.238 1645.18,421.871 1649.05,439.805 1652.92,458.023 1656.78,476.509 1660.65,495.246 1664.52,514.213 1668.38,533.39 1672.25,552.757 
  1676.12,572.294 1679.98,591.982 1683.85,611.808 1687.72,631.747 1691.58,651.779 1695.45,671.883 1699.31,692.039 1703.18,712.224 1707.05,732.423 1710.91,752.619 
  1714.78,772.786 1718.65,792.905 1722.51,812.954 1726.38,832.913 1730.25,852.761 1734.11,872.486 1737.98,892.065 1741.85,911.476 1745.71,930.699 1749.58,949.714 
  1753.45,968.502 1757.31,987.045 1761.18,1005.33 1765.05,1023.34 1768.91,1041.04 1772.78,1058.43 1776.65,1075.48 1780.51,1092.18 1784.38,1108.52 1788.24,1124.47 
  1792.11,1140.02 1795.98,1155.16 1799.84,1169.86 1803.71,1184.12 1807.58,1197.92 1811.44,1211.24 1815.31,1224.08 1819.18,1236.42 1823.04,1248.25 1826.91,1259.55 
  1830.78,1270.32 1834.64,1280.54 1838.51,1290.21 1842.38,1299.31 1846.24,1307.83 1850.11,1315.77 1853.98,1323.12 1857.84,1329.87 1861.71,1336.01 1865.58,1341.55 
  1869.44,1346.46 1873.31,1350.76 1877.17,1354.42 1881.04,1357.46 1884.91,1359.86 1888.77,1361.63 1892.64,1362.76 1896.51,1363.25 1900.37,1363.1 1904.24,1362.31 
  1908.11,1360.89 1911.97,1358.83 1915.84,1356.13 1919.71,1352.8 1923.57,1348.84 1927.44,1344.26 1931.31,1339.06 1935.17,1333.24 1939.04,1326.82 1942.91,1319.79 
  1946.77,1312.16 1950.64,1303.95 1954.5,1295.16 1958.37,1285.79 1962.24,1275.87 1966.1,1265.39 1969.97,1254.37 1973.84,1242.82 1977.7,1230.75 1981.57,1218.18 
  1985.44,1205.11 1989.3,1191.56 1993.17,1177.55 1997.04,1163.08 2000.9,1148.17 2004.77,1132.83 2008.64,1117.1 2012.5,1100.96 2016.37,1084.45 2020.24,1067.57 
  2024.1,1050.36 2027.97,1032.82 2031.84,1014.97 2035.7,996.832 2039.57,978.417 2043.43,959.748 2047.3,940.843 2051.17,921.723 2055.03,902.407 2058.9,882.916 
  2062.77,863.262 2066.63,843.467 2070.5,823.554 2074.37,803.541 2078.23,783.451 2082.1,763.303 2085.97,743.119 2089.83,722.909 2093.7,702.701 2097.57,682.515 
  2101.43,662.372 2105.3,642.293 2109.17,622.298 2113.03,602.404 2116.9,582.628 2120.77,562.993 2124.63,543.521 2128.5,524.231 2132.36,505.144 2136.23,486.278 
  2140.1,467.644 2143.96,449.267 2147.83,431.165 2151.7,413.358 2155.56,395.864 2159.43,378.7 2163.3,361.882 2167.16,345.422 2171.03,329.342 2174.9,313.657 
  2178.76,298.384 2182.63,283.54 2186.5,269.139 2190.36,255.189 2194.23,241.707 2198.1,228.708 2201.96,216.206 2205.83,204.214 2209.69,192.745 2213.56,181.808 
  2217.43,171.409 2221.29,161.564 2225.16,152.283 2229.03,143.575 2232.89,135.449 2236.76,127.915 2240.63,120.974 2244.49,114.637 2248.36,108.91 2252.23,103.799 
  2256.09,99.3096 2259.96,95.4472 2263.83,92.2148 2267.69,89.6125 2271.56,87.6455 2275.43,86.3159 2279.29,85.6252 2283.16,85.5744 2287.03,86.1637 2290.89,87.3909 
  2294.76,89.2551 
  "/>
<polyline clip-path="url(#clip942)" style="stroke:#e26f46; stroke-linecap:round; stroke-linejoin:round; stroke-width:8; stroke-opacity:1; fill:none" points="
  361.501,1361.96 365.367,1361.73 369.234,1361.04 373.1,1359.89 376.967,1358.29 380.833,1356.23 384.7,1353.7 388.566,1350.71 392.433,1347.26 396.299,1343.35 
  400.166,1338.99 404.032,1334.16 407.899,1328.88 411.765,1323.15 415.632,1316.98 419.498,1310.37 423.365,1303.32 427.231,1295.85 431.098,1287.95 434.964,1279.64 
  438.831,1270.92 442.698,1261.8 446.564,1252.29 450.431,1242.4 454.297,1232.13 458.164,1221.51 462.03,1210.54 465.897,1199.23 469.763,1187.59 473.63,1175.62 
  477.496,1163.35 481.363,1150.78 485.229,1137.94 489.096,1124.83 492.962,1111.45 496.829,1097.84 500.695,1083.99 504.562,1069.92 508.428,1055.64 512.295,1041.18 
  516.161,1026.55 520.028,1011.75 523.894,996.814 527.761,981.742 531.627,966.555 535.494,951.267 539.36,935.893 543.227,920.45 547.093,904.955 550.96,889.422 
  554.826,873.87 558.693,858.31 562.559,842.756 566.426,827.226 570.293,811.737 574.159,796.306 578.026,780.948 581.892,765.681 585.759,750.51 589.625,735.456 
  593.492,720.534 597.358,705.762 601.225,691.153 605.091,676.724 608.958,662.485 612.824,648.449 616.691,634.633 620.557,621.051 624.424,607.718 628.29,594.646 
  632.157,581.851 636.023,569.339 639.89,557.126 643.756,545.225 647.623,533.648 651.489,522.408 655.356,511.517 659.222,500.985 663.089,490.819 666.955,481.033 
  670.822,471.637 674.688,462.642 678.555,454.057 682.421,445.892 686.288,438.154 690.154,430.851 694.021,423.992 697.887,417.587 701.754,411.641 705.621,406.164 
  709.487,401.161 713.354,396.639 717.22,392.604 721.087,389.063 724.953,386.021 728.82,383.484 732.686,381.457 736.553,379.945 740.419,378.952 744.286,378.483 
  748.152,378.547 752.019,378.979 755.885,379.782 759.752,380.96 763.618,382.516 767.485,384.454 771.351,386.774 775.218,389.476 779.084,392.559 782.951,396.024 
  786.817,399.868 790.684,404.09 794.55,408.686 798.417,413.652 802.283,418.98 806.15,424.671 810.016,430.721 813.883,437.128 817.749,443.883 821.616,450.97 
  825.482,458.394 829.349,466.15 833.216,474.233 837.082,482.635 840.949,491.332 844.815,500.328 848.682,509.618 852.548,519.194 856.415,529.047 860.281,539.152 
  864.148,549.51 868.014,560.113 871.881,570.952 875.747,582.019 879.614,593.286 883.48,604.754 887.347,616.412 891.213,628.249 895.08,640.256 898.946,652.409 
  902.813,664.704 906.679,677.128 910.546,689.671 914.412,702.32 918.279,715.058 922.145,727.874 926.012,740.756 929.878,753.692 933.745,766.671 937.611,779.675 
  941.478,792.693 945.344,805.712 949.211,818.72 953.077,831.704 956.944,844.651 960.811,857.546 964.677,870.377 968.544,883.133 972.41,895.798 976.277,908.362 
  980.143,920.813 984.01,933.136 987.876,945.319 991.743,957.349 995.609,969.216 999.476,980.909 1003.34,992.415 1007.21,1003.72 1011.08,1014.81 1014.94,1025.68 
  1018.81,1036.32 1022.67,1046.72 1026.54,1056.86 1030.41,1066.74 1034.27,1076.33 1038.14,1085.65 1042.01,1094.67 1045.87,1103.39 1049.74,1111.79 1053.61,1119.86 
  1057.47,1127.62 1061.34,1135.03 1065.21,1142.09 1069.07,1148.8 1072.94,1155.13 1076.81,1161.11 1080.67,1166.71 1084.54,1171.92 1088.41,1176.74 1092.27,1181.16 
  1096.14,1185.18 1100.01,1188.79 1103.87,1191.99 1107.74,1194.76 1111.6,1197.11 1115.47,1199.03 1119.34,1200.53 1123.2,1201.58 1127.07,1202.19 1130.94,1202.35 
  1134.8,1202.1 1138.67,1201.6 1142.54,1200.81 1146.4,1199.72 1150.27,1198.34 1154.14,1196.66 1158,1194.68 1161.87,1192.4 1165.74,1189.82 1169.6,1186.94 
  1173.47,1183.76 1177.34,1180.29 1181.2,1176.52 1185.07,1172.47 1188.93,1168.12 1192.8,1163.49 1196.67,1158.58 1200.53,1153.39 1204.4,1147.92 1208.27,1142.19 
  1212.13,1136.19 1216,1129.94 1219.87,1123.43 1223.73,1116.67 1227.6,1109.67 1231.47,1102.44 1235.33,1094.99 1239.2,1087.31 1243.07,1079.41 1246.93,1071.31 
  1250.8,1063.01 1254.67,1054.52 1258.53,1045.84 1262.4,1036.99 1266.27,1027.98 1270.13,1018.81 1274,1009.49 1277.86,1000.03 1281.73,990.443 1285.6,980.738 
  1289.46,970.923 1293.33,961.008 1297.2,951.001 1301.06,940.912 1304.93,930.749 1308.8,920.523 1312.66,910.25 1316.53,899.936 1320.4,889.592 1324.26,879.226 
  1328.13,868.85 1332,858.473 1335.86,848.107 1339.73,837.76 1343.6,827.444 1347.46,817.169 1351.33,806.946 1355.2,796.786 1359.06,786.698 1362.93,776.694 
  1366.79,766.785 1370.66,756.977 1374.53,747.279 1378.39,737.703 1382.26,728.261 1386.13,718.961 1389.99,709.815 1393.86,700.833 1397.73,692.024 1401.59,683.39 
  1405.46,674.943 1409.33,666.693 1413.19,658.651 1417.06,650.824 1420.93,643.222 1424.79,635.852 1428.66,628.724 1432.53,621.837 1436.39,615.204 1440.26,608.833 
  1444.12,602.73 1447.99,596.904 1451.86,591.361 1455.72,586.108 1459.59,581.15 1463.46,576.489 1467.32,572.136 1471.19,568.094 1475.06,564.371 1478.92,560.97 
  1482.79,557.897 1486.66,555.157 1490.52,552.752 1494.39,550.688 1498.26,548.968 1502.12,547.597 1505.99,546.577 1509.86,545.913 1513.72,545.607 1517.59,545.677 
  1521.46,545.954 1525.32,546.426 1529.19,547.091 1533.05,547.964 1536.92,549.046 1540.79,550.338 1544.65,551.842 1548.52,553.556 1552.39,555.482 1556.25,557.619 
  1560.12,559.966 1563.99,562.521 1567.85,565.286 1571.72,568.255 1575.59,571.43 1579.45,574.807 1583.32,578.384 1587.19,582.158 1591.05,586.126 1594.92,590.279 
  1598.79,594.619 1602.65,599.144 1606.52,603.85 1610.39,608.736 1614.25,613.794 1618.12,619.01 1621.98,624.389 1625.85,629.928 1629.72,635.622 1633.58,641.469 
  1637.45,647.462 1641.32,653.58 1645.18,659.83 1649.05,666.207 1652.92,672.706 1656.78,679.322 1660.65,686.051 1664.52,692.869 1668.38,699.781 1672.25,706.782 
  1676.12,713.864 1679.98,721.024 1683.85,728.253 1687.72,735.537 1691.58,742.871 1695.45,750.252 1699.31,757.671 1703.18,765.123 1707.05,772.6 1710.91,780.09 
  1714.78,787.588 1718.65,795.086 1722.51,802.578 1726.38,810.057 1730.25,817.515 1734.11,824.944 1737.98,832.335 1741.85,839.682 1745.71,846.977 1749.58,854.213 
  1753.45,861.383 1757.31,868.48 1761.18,875.496 1765.05,882.424 1768.91,889.256 1772.78,895.985 1776.65,902.605 1780.51,909.107 1784.38,915.489 1788.24,921.742 
  1792.11,927.857 1795.98,933.829 1799.84,939.65 1803.71,945.313 1807.58,950.82 1811.44,956.16 1815.31,961.325 1819.18,966.309 1823.04,971.106 1826.91,975.709 
  1830.78,980.124 1834.64,984.338 1838.51,988.345 1842.38,992.139 1846.24,995.715 1850.11,999.067 1853.98,1002.2 1857.84,1005.11 1861.71,1007.78 1865.58,1010.21 
  1869.44,1012.4 1873.31,1014.34 1877.17,1016.04 1881.04,1017.48 1884.91,1018.67 1888.77,1019.6 1892.64,1020.27 1896.51,1020.67 1900.37,1020.8 1904.24,1020.73 
  1908.11,1020.56 1911.97,1020.27 1915.84,1019.88 1919.71,1019.36 1923.57,1018.74 1927.44,1018 1931.31,1017.15 1935.17,1016.19 1939.04,1015.11 1942.91,1013.92 
  1946.77,1012.62 1950.64,1011.2 1954.5,1009.67 1958.37,1008.03 1962.24,1006.28 1966.1,1004.42 1969.97,1002.46 1973.84,1000.38 1977.7,998.199 1981.57,995.914 
  1985.44,993.529 1989.3,991.043 1993.17,988.456 1997.04,985.77 2000.9,982.988 2004.77,980.117 2008.64,977.155 2012.5,974.105 2016.37,970.966 2020.24,967.743 
  2024.1,964.444 2027.97,961.068 2031.84,957.616 2035.7,954.093 2039.57,950.499 2043.43,946.843 2047.3,943.126 2051.17,939.352 2055.03,935.522 2058.9,931.64 
  2062.77,927.71 2066.63,923.739 2070.5,919.729 2074.37,915.682 2078.23,911.603 2082.1,907.494 2085.97,903.363 2089.83,899.213 2093.7,895.046 2097.57,890.867 
  2101.43,886.68 2105.3,882.49 2109.17,878.302 2113.03,874.118 2116.9,869.943 2120.77,865.781 2124.63,861.636 2128.5,857.514 2132.36,853.418 2136.23,849.351 
  2140.1,845.319 2143.96,841.326 2147.83,837.375 2151.7,833.471 2155.56,829.618 2159.43,825.82 2163.3,822.079 2167.16,818.402 2171.03,814.791 2174.9,811.251 
  2178.76,807.786 2182.63,804.4 2186.5,801.096 2190.36,797.88 2194.23,794.754 2198.1,791.72 2201.96,788.781 2205.83,785.942 2209.69,783.208 2213.56,780.581 
  2217.43,778.064 2221.29,775.663 2225.16,773.379 2229.03,771.217 2232.89,769.176 2236.76,767.259 2240.63,765.47 2244.49,763.812 2248.36,762.288 2252.23,760.901 
  2256.09,759.653 2259.96,758.547 2263.83,757.586 2267.69,756.771 2271.56,756.103 2275.43,755.584 2279.29,755.216 2283.16,755.001 2287.03,754.94 2290.89,754.94 
  2294.76,754.94 
  "/>
<polyline clip-path="url(#clip942)" style="stroke:#3da44d; stroke-linecap:round; stroke-linejoin:round; stroke-width:8; stroke-opacity:1; fill:none" points="
  361.501,1361.96 365.367,1354.32 369.234,1346.66 373.1,1339 376.967,1331.32 380.833,1323.64 384.7,1315.94 388.566,1308.23 392.433,1300.51 396.299,1292.77 
  400.166,1285.02 404.032,1277.26 407.899,1269.47 411.765,1261.67 415.632,1253.86 419.498,1246.02 423.365,1238.16 427.231,1230.28 431.098,1222.38 434.964,1214.45 
  438.831,1206.49 442.698,1198.51 446.564,1190.5 450.431,1182.45 454.297,1174.38 458.164,1166.26 462.03,1158.11 465.897,1149.92 469.763,1141.69 473.63,1133.42 
  477.496,1125.09 481.363,1116.72 485.229,1108.29 489.096,1099.81 492.962,1091.27 496.829,1082.66 500.695,1073.99 504.562,1065.25 508.428,1056.44 512.295,1047.55 
  516.161,1038.58 520.028,1029.53 523.894,1020.38 527.761,1011.15 531.627,1001.81 535.494,992.378 539.36,982.836 543.227,973.18 547.093,963.403 550.96,953.504 
  554.826,943.482 558.693,933.339 562.559,923.079 566.426,912.709 570.293,902.239 574.159,891.68 578.026,881.047 581.892,870.356 585.759,859.626 589.625,848.878 
  593.492,838.137 597.358,827.429 601.225,816.782 605.091,806.228 608.958,795.822 612.824,785.653 616.691,775.794 620.557,766.306 624.424,757.24 628.29,748.637 
  632.157,740.525 636.023,732.925 639.89,725.846 643.756,719.286 647.623,713.234 651.489,707.668 655.356,702.555 659.222,697.852 663.089,693.529 666.955,689.573 
  670.822,685.958 674.688,682.657 678.555,679.648 682.421,676.908 686.288,674.415 690.154,672.152 694.021,670.099 697.887,668.241 701.754,666.563 705.621,665.051 
  709.487,663.694 713.354,662.481 717.22,661.403 721.087,660.454 724.953,659.625 728.82,658.91 732.686,658.302 736.553,657.796 740.419,657.386 744.286,657.066 
  748.152,656.831 752.019,656.676 755.885,656.598 759.752,656.592 763.618,656.653 767.485,656.779 771.351,656.965 775.218,657.21 779.084,657.51 782.951,657.862 
  786.817,658.265 790.684,658.714 794.55,659.21 798.417,659.748 802.283,660.329 806.15,660.949 810.016,661.607 813.883,662.302 817.749,663.032 821.616,663.795 
  825.482,664.59 829.349,665.414 833.216,666.267 837.082,667.147 840.949,668.053 844.815,668.983 848.682,669.936 852.548,670.91 856.415,671.905 860.281,672.919 
  864.148,673.95 868.014,674.999 871.881,676.063 875.747,677.141 879.614,678.233 883.48,679.338 887.347,680.455 891.213,681.584 895.08,682.723 898.946,683.872 
  902.813,685.029 906.679,686.195 910.546,687.368 914.412,688.548 918.279,689.733 922.145,690.923 926.012,692.118 929.878,693.316 933.745,694.517 937.611,695.719 
  941.478,696.923 945.344,698.128 949.211,699.332 953.077,700.535 956.944,701.736 960.811,702.935 964.677,704.13 968.544,705.322 972.41,706.51 976.277,707.693 
  980.143,708.872 984.01,710.046 987.876,711.214 991.743,712.377 995.609,713.534 999.476,714.684 1003.34,715.829 1007.21,716.966 1011.08,718.096 1014.94,719.219 
  1018.81,720.335 1022.67,721.442 1026.54,722.542 1030.41,723.633 1034.27,724.715 1038.14,725.788 1042.01,726.852 1045.87,727.906 1049.74,728.951 1053.61,729.985 
  1057.47,731.01 1061.34,732.023 1065.21,733.026 1069.07,734.018 1072.94,734.999 1076.81,735.971 1080.67,736.932 1084.54,737.883 1088.41,738.824 1092.27,739.755 
  1096.14,740.675 1100.01,741.586 1103.87,742.486 1107.74,743.377 1111.6,744.257 1115.47,745.128 1119.34,745.989 1123.2,746.84 1127.07,747.681 1130.94,748.513 
  1134.8,749.335 1138.67,750.147 1142.54,750.95 1146.4,751.744 1150.27,752.528 1154.14,753.303 1158,754.069 1161.87,754.826 1165.74,755.575 1169.6,756.314 
  1173.47,757.045 1177.34,757.767 1181.2,758.481 1185.07,759.187 1188.93,759.889 1192.8,760.589 1196.67,761.287 1200.53,761.983 1204.4,762.675 1208.27,763.363 
  1212.13,764.046 1216,764.724 1219.87,765.396 1223.73,766.062 1227.6,766.721 1231.47,767.372 1235.33,768.017 1239.2,768.653 1243.07,769.28 1246.93,769.899 
  1250.8,770.509 1254.67,771.109 1258.53,771.7 1262.4,772.281 1266.27,772.853 1270.13,773.415 1274,773.966 1277.86,774.507 1281.73,775.039 1285.6,775.56 
  1289.46,776.071 1293.33,776.572 1297.2,777.063 1301.06,777.545 1304.93,778.017 1308.8,778.479 1312.66,778.933 1316.53,779.377 1320.4,779.813 1324.26,780.241 
  1328.13,780.662 1332,781.074 1335.86,781.48 1339.73,781.879 1343.6,782.273 1347.46,782.66 1351.33,783.043 1355.2,783.422 1359.06,783.797 1362.93,784.169 
  1366.79,784.539 1370.66,784.907 1374.53,785.275 1378.39,785.643 1382.26,786.011 1386.13,786.381 1389.99,786.754 1393.86,787.131 1397.73,787.512 1401.59,787.898 
  1405.46,788.291 1409.33,788.692 1413.19,789.098 1417.06,789.499 1420.93,789.896 1424.79,790.288 1428.66,790.676 1432.53,791.059 1436.39,791.437 1440.26,791.811 
  1444.12,792.181 1447.99,792.545 1451.86,792.906 1455.72,793.262 1459.59,793.613 1463.46,793.96 1467.32,794.303 1471.19,794.641 1475.06,794.976 1478.92,795.306 
  1482.79,795.632 1486.66,795.955 1490.52,796.273 1494.39,796.589 1498.26,796.9 1502.12,797.208 1505.99,797.513 1509.86,797.815 1513.72,798.114 1517.59,798.411 
  1521.46,798.704 1525.32,798.996 1529.19,799.285 1533.05,799.572 1536.92,799.857 1540.79,800.14 1544.65,800.422 1548.52,800.702 1552.39,800.981 1556.25,801.257 
  1560.12,801.531 1563.99,801.804 1567.85,802.074 1571.72,802.342 1575.59,802.608 1579.45,802.871 1583.32,803.132 1587.19,803.39 1591.05,803.646 1594.92,803.899 
  1598.79,804.15 1602.65,804.398 1606.52,804.644 1610.39,804.887 1614.25,805.127 1618.12,805.365 1621.98,805.6 1625.85,805.832 1629.72,806.062 1633.58,806.289 
  1637.45,806.514 1641.32,806.736 1645.18,806.956 1649.05,807.174 1652.92,807.389 1656.78,807.602 1660.65,807.813 1664.52,808.021 1668.38,808.228 1672.25,808.432 
  1676.12,808.635 1679.98,808.836 1683.85,809.035 1687.72,809.233 1691.58,809.43 1695.45,809.625 1699.31,809.819 1703.18,810.012 1707.05,810.204 1710.91,810.395 
  1714.78,810.586 1718.65,810.776 1722.51,810.966 1726.38,811.156 1730.25,811.346 1734.11,811.536 1737.98,811.724 1741.85,811.911 1745.71,812.097 1749.58,812.282 
  1753.45,812.466 1757.31,812.648 1761.18,812.829 1765.05,813.009 1768.91,813.187 1772.78,813.363 1776.65,813.538 1780.51,813.712 1784.38,813.884 1788.24,814.054 
  1792.11,814.223 1795.98,814.39 1799.84,814.556 1803.71,814.72 1807.58,814.882 1811.44,815.043 1815.31,815.202 1819.18,815.359 1823.04,815.515 1826.91,815.669 
  1830.78,815.822 1834.64,815.973 1838.51,816.122 1842.38,816.27 1846.24,816.417 1850.11,816.562 1853.98,816.706 1857.84,816.848 1861.71,816.989 1865.58,817.129 
  1869.44,817.268 1873.31,817.405 1877.17,817.542 1881.04,817.677 1884.91,817.812 1888.77,817.946 1892.64,818.079 1896.51,818.211 1900.37,818.343 1904.24,818.474 
  1908.11,818.604 1911.97,818.735 1915.84,818.865 1919.71,818.995 1923.57,819.125 1927.44,819.255 1931.31,819.385 1935.17,819.515 1939.04,819.644 1942.91,819.773 
  1946.77,819.901 1950.64,820.029 1954.5,820.156 1958.37,820.283 1962.24,820.408 1966.1,820.533 1969.97,820.657 1973.84,820.78 1977.7,820.902 1981.57,821.023 
  1985.44,821.142 1989.3,821.261 1993.17,821.379 1997.04,821.495 2000.9,821.61 2004.77,821.724 2008.64,821.837 2012.5,821.949 2016.37,822.059 2020.24,822.168 
  2024.1,822.276 2027.97,822.383 2031.84,822.488 2035.7,822.592 2039.57,822.695 2043.43,822.797 2047.3,822.897 2051.17,822.996 2055.03,823.094 2058.9,823.191 
  2062.77,823.287 2066.63,823.382 2070.5,823.476 2074.37,823.568 2078.23,823.66 2082.1,823.751 2085.97,823.841 2089.83,823.93 2093.7,824.019 2097.57,824.107 
  2101.43,824.194 2105.3,824.281 2109.17,824.367 2113.03,824.453 2116.9,824.538 2120.77,824.623 2124.63,824.709 2128.5,824.794 2132.36,824.879 2136.23,824.964 
  2140.1,825.05 2143.96,825.136 2147.83,825.222 2151.7,825.309 2155.56,825.397 2159.43,825.485 2163.3,825.572 2167.16,825.659 2171.03,825.745 2174.9,825.83 
  2178.76,825.915 2182.63,825.999 2186.5,826.082 2190.36,826.164 2194.23,826.246 2198.1,826.327 2201.96,826.408 2205.83,826.488 2209.69,826.567 2213.56,826.645 
  2217.43,826.723 2221.29,826.8 2225.16,826.877 2229.03,826.953 2232.89,827.028 2236.76,827.103 2240.63,827.177 2244.49,827.25 2248.36,827.323 2252.23,827.395 
  2256.09,827.467 2259.96,827.538 2263.83,827.609 2267.69,827.679 2271.56,827.749 2275.43,827.818 2279.29,827.887 2283.16,827.955 2287.03,828.023 2290.89,828.091 
  2294.76,828.159 
  "/>
<polyline clip-path="url(#clip942)" style="stroke:#c271d2; stroke-linecap:round; stroke-linejoin:round; stroke-width:8; stroke-opacity:1; fill:none" points="
  361.501,1361.96 365.367,1354.78 369.234,1347.54 373.1,1340.25 376.967,1332.91 380.833,1325.52 384.7,1318.07 388.566,1310.57 392.433,1303.02 396.299,1295.42 
  400.166,1287.75 404.032,1280.04 407.899,1272.26 411.765,1264.42 415.632,1256.53 419.498,1248.57 423.365,1240.55 427.231,1232.45 431.098,1224.29 434.964,1216.06 
  438.831,1207.74 442.698,1199.35 446.564,1190.87 450.431,1182.31 454.297,1173.65 458.164,1164.89 462.03,1156.02 465.897,1147.04 469.763,1137.95 473.63,1128.73 
  477.496,1119.38 481.363,1109.9 485.229,1100.26 489.096,1090.47 492.962,1080.51 496.829,1070.37 500.695,1060.03 504.562,1049.48 508.428,1038.71 512.295,1027.7 
  516.161,1016.43 520.028,1004.88 523.894,993.041 527.761,980.884 531.627,968.39 535.494,955.54 539.36,942.381 543.227,928.89 547.093,915.009 550.96,900.694 
  554.826,885.917 558.693,870.662 562.559,854.931 566.426,838.739 570.293,822.115 574.159,805.104 578.026,787.765 581.892,770.173 585.759,752.417 589.625,734.599 
  593.492,716.838 597.358,699.268 601.225,682.035 605.091,665.302 608.958,649.246 612.824,634.059 616.691,619.852 620.557,606.425 624.424,593.755 628.29,581.833 
  632.157,570.647 636.023,560.182 639.89,550.421 643.756,541.342 647.623,532.92 651.489,525.128 655.356,517.935 659.222,511.305 663.089,505.203 666.955,499.595 
  670.822,494.461 674.688,489.781 678.555,485.531 682.421,481.693 686.288,478.247 690.154,475.175 694.021,472.458 697.887,470.08 701.754,468.025 705.621,466.279 
  709.487,464.827 713.354,463.655 717.22,462.752 721.087,462.106 724.953,461.707 728.82,461.545 732.686,461.61 736.553,461.896 740.419,462.395 744.286,463.1 
  748.152,464.008 752.019,465.112 755.885,466.409 759.752,467.891 763.618,469.552 767.485,471.39 771.351,473.4 775.218,475.579 779.084,477.925 782.951,480.433 
  786.817,483.104 790.684,485.934 794.55,488.924 798.417,492.072 802.283,495.379 806.15,498.844 810.016,502.468 813.883,506.253 817.749,510.2 821.616,514.311 
  825.482,518.588 829.349,523.034 833.216,527.654 837.082,532.446 840.949,537.405 844.815,542.54 848.682,547.863 852.548,553.384 856.415,559.115 860.281,565.064 
  864.148,571.242 868.014,577.658 871.881,584.321 875.747,591.239 879.614,598.419 883.48,605.869 887.347,613.596 891.213,621.606 895.08,629.906 898.946,638.501 
  902.813,647.396 906.679,656.596 910.546,666.104 914.412,675.926 918.279,686.064 922.145,696.521 926.012,707.3 929.878,718.403 933.745,729.83 937.611,741.584 
  941.478,753.665 945.344,766.076 949.211,778.824 953.077,791.858 956.944,805.119 960.811,818.55 964.677,832.097 968.544,845.71 972.41,859.34 976.277,872.94 
  980.143,886.468 984.01,899.882 987.876,913.146 991.743,926.225 995.609,939.084 999.476,951.695 1003.34,964.031 1007.21,976.067 1011.08,987.781 1014.94,999.155 
  1018.81,1010.17 1022.67,1020.82 1026.54,1031.08 1030.41,1040.95 1034.27,1050.43 1038.14,1059.5 1042.01,1068.18 1045.87,1076.46 1049.74,1084.34 1053.61,1091.83 
  1057.47,1098.93 1061.34,1105.66 1065.21,1112.01 1069.07,1118 1072.94,1123.63 1076.81,1128.92 1080.67,1133.87 1084.54,1138.48 1088.41,1142.77 1092.27,1146.74 
  1096.14,1150.4 1100.01,1153.75 1103.87,1156.81 1107.74,1159.58 1111.6,1162.07 1115.47,1164.28 1119.34,1166.23 1123.2,1167.91 1127.07,1169.34 1130.94,1170.53 
  1134.8,1171.47 1138.67,1172.18 1142.54,1172.66 1146.4,1172.92 1150.27,1172.97 1154.14,1172.81 1158,1172.43 1161.87,1171.86 1165.74,1171.09 1169.6,1170.13 
  1173.47,1168.98 1177.34,1167.66 1181.2,1166.15 1185.07,1164.47 1188.93,1162.63 1192.8,1160.62 1196.67,1158.44 1200.53,1156.11 1204.4,1153.63 1208.27,1150.99 
  1212.13,1148.21 1216,1145.27 1219.87,1142.2 1223.73,1138.98 1227.6,1135.62 1231.47,1132.13 1235.33,1128.5 1239.2,1124.73 1243.07,1120.83 1246.93,1116.8 
  1250.8,1112.63 1254.67,1108.33 1258.53,1103.9 1262.4,1099.34 1266.27,1094.65 1270.13,1089.83 1274,1084.87 1277.86,1079.78 1281.73,1074.57 1285.6,1069.23 
  1289.46,1063.77 1293.33,1058.18 1297.2,1052.45 1301.06,1046.58 1304.93,1040.56 1308.8,1034.4 1312.66,1028.09 1316.53,1021.63 1320.4,1015.01 1324.26,1008.24 
  1328.13,1001.3 1332,994.2 1335.86,986.933 1339.73,979.498 1343.6,971.893 1347.46,964.117 1351.33,956.167 1355.2,948.043 1359.06,939.743 1362.93,931.266 
  1366.79,922.612 1370.66,913.778 1374.53,904.766 1378.39,895.574 1382.26,886.203 1386.13,876.652 1389.99,866.921 1393.86,857.011 1397.73,846.919 1401.59,836.612 
  1405.46,826.126 1409.33,815.519 1413.19,804.845 1417.06,794.155 1420.93,783.499 1424.79,772.922 1428.66,762.468 1432.53,752.178 1436.39,742.09 1440.26,732.238 
  1444.12,722.656 1447.99,713.372 1451.86,704.414 1455.72,695.807 1459.59,687.572 1463.46,679.727 1467.32,672.288 1471.19,665.27 1475.06,658.682 1478.92,652.532 
  1482.79,646.826 1486.66,641.566 1490.52,636.751 1494.39,632.379 1498.26,628.443 1502.12,624.935 1505.99,621.844 1509.86,619.125 1513.72,616.747 1517.59,614.7 
  1521.46,612.971 1525.32,611.553 1529.19,610.435 1533.05,609.61 1536.92,609.069 1540.79,608.804 1544.65,608.81 1548.52,609.079 1552.39,609.605 1556.25,610.384 
  1560.12,611.411 1563.99,612.681 1567.85,614.192 1571.72,615.939 1575.59,617.921 1579.45,620.136 1583.32,622.582 1587.19,625.259 1591.05,628.166 1594.92,631.304 
  1598.79,634.669 1602.65,638.241 1606.52,642.027 1610.39,646.037 1614.25,650.279 1618.12,654.761 1621.98,659.489 1625.85,664.467 1629.72,669.7 1633.58,675.19 
  1637.45,680.939 1641.32,686.945 1645.18,693.209 1649.05,699.726 1652.92,706.494 1656.78,713.508 1660.65,720.76 1664.52,728.244 1668.38,735.95 1672.25,743.868 
  1676.12,751.988 1679.98,760.297 1683.85,768.779 1687.72,777.422 1691.58,786.207 1695.45,795.119 1699.31,804.136 1703.18,813.241 1707.05,822.41 1710.91,831.622 
  1714.78,840.853 1718.65,850.077 1722.51,859.268 1726.38,868.398 1730.25,877.44 1734.11,886.362 1737.98,895.15 1741.85,903.783 1745.71,912.242 1749.58,920.509 
  1753.45,928.567 1757.31,936.401 1761.18,943.997 1765.05,951.343 1768.91,958.427 1772.78,965.242 1776.65,971.777 1780.51,978.028 1784.38,983.988 1788.24,989.655 
  1792.11,995.026 1795.98,1000.1 1799.84,1004.88 1803.71,1009.36 1807.58,1013.56 1811.44,1017.47 1815.31,1021.1 1819.18,1024.46 1823.04,1027.56 1826.91,1030.41 
  1830.78,1033.02 1834.64,1035.4 1838.51,1037.58 1842.38,1039.56 1846.24,1041.3 1850.11,1042.81 1853.98,1044.09 1857.84,1045.16 1861.71,1046.01 1865.58,1046.65 
  1869.44,1047.09 1873.31,1047.32 1877.17,1047.35 1881.04,1047.19 1884.91,1046.84 1888.77,1046.3 1892.64,1045.57 1896.51,1044.67 1900.37,1043.59 1904.24,1042.33 
  1908.11,1040.91 1911.97,1039.31 1915.84,1037.55 1919.71,1035.63 1923.57,1033.54 1927.44,1031.3 1931.31,1028.9 1935.17,1026.34 1939.04,1023.64 1942.91,1020.79 
  1946.77,1017.79 1950.64,1014.65 1954.5,1011.37 1958.37,1007.93 1962.24,1004.35 1966.1,1000.63 1969.97,996.759 1973.84,992.745 1977.7,988.587 1981.57,984.286 
  1985.44,979.842 1989.3,975.257 1993.17,970.531 1997.04,965.666 2000.9,960.663 2004.77,955.523 2008.64,950.247 2012.5,944.837 2016.37,939.295 2020.24,933.621 
  2024.1,927.819 2027.97,921.89 2031.84,915.835 2035.7,909.657 2039.57,903.359 2043.43,896.941 2047.3,890.407 2051.17,883.76 2055.03,877.001 2058.9,870.133 
  2062.77,863.16 2066.63,856.093 2070.5,848.946 2074.37,841.737 2078.23,834.48 2082.1,827.193 2085.97,819.893 2089.83,812.596 2093.7,805.321 2097.57,798.086 
  2101.43,790.909 2105.3,783.808 2109.17,776.804 2113.03,769.915 2116.9,763.161 2120.77,756.563 2124.63,750.142 2128.5,743.917 2132.36,737.911 2136.23,732.146 
  2140.1,726.642 2143.96,721.405 2147.83,716.438 2151.7,711.747 2155.56,707.336 2159.43,703.209 2163.3,699.37 2167.16,695.819 2171.03,692.559 2174.9,689.589 
  2178.76,686.909 2182.63,684.518 2186.5,682.413 2190.36,680.591 2194.23,679.048 2198.1,677.779 2201.96,676.779 2205.83,676.04 2209.69,675.555 2213.56,675.324 
  2217.43,675.344 2221.29,675.613 2225.16,676.128 2229.03,676.885 2232.89,677.882 2236.76,679.115 2240.63,680.583 2244.49,682.283 2248.36,684.211 2252.23,686.366 
  2256.09,688.744 2259.96,691.345 2263.83,694.164 2267.69,697.2 2271.56,700.451 2275.43,703.914 2279.29,707.588 2283.16,711.47 2287.03,715.559 2290.89,719.852 
  2294.76,724.347 
  "/>
<path clip-path="url(#clip940)" d="
M1472.14 351.589 L2284.45 351.589 L2284.45 92.3886 L1472.14 92.3886  Z
  " fill="#ffffff" fill-rule="evenodd" fill-opacity="1"/>
<polyline clip-path="url(#clip940)" style="stroke:#000000; stroke-linecap:round; stroke-linejoin:round; stroke-width:4; stroke-opacity:1; fill:none" points="
  1472.14,351.589 2284.45,351.589 2284.45,92.3886 1472.14,92.3886 1472.14,351.589 
  "/>
<polyline clip-path="url(#clip940)" style="stroke:#009af9; stroke-linecap:round; stroke-linejoin:round; stroke-width:8; stroke-opacity:1; fill:none" points="
  1494.91,144.229 1631.53,144.229 
  "/>
<path clip-path="url(#clip940)" d="M1676.54 128.083 L1676.54 132.643 Q1673.88 131.37 1671.52 130.745 Q1669.16 130.12 1666.96 130.12 Q1663.14 130.12 1661.06 131.601 Q1659 133.083 1659 135.814 Q1659 138.106 1660.36 139.287 Q1661.75 140.444 1665.59 141.162 L1668.42 141.74 Q1673.65 142.736 1676.13 145.259 Q1678.63 147.759 1678.63 151.972 Q1678.63 156.995 1675.25 159.587 Q1671.89 162.18 1665.38 162.18 Q1662.93 162.18 1660.15 161.624 Q1657.4 161.069 1654.44 159.981 L1654.44 155.166 Q1657.28 156.763 1660.01 157.573 Q1662.75 158.384 1665.38 158.384 Q1669.39 158.384 1671.57 156.81 Q1673.74 155.236 1673.74 152.319 Q1673.74 149.773 1672.17 148.337 Q1670.62 146.902 1667.05 146.185 L1664.2 145.629 Q1658.97 144.587 1656.63 142.365 Q1654.3 140.143 1654.3 136.185 Q1654.3 131.601 1657.51 128.962 Q1660.76 126.324 1666.43 126.324 Q1668.86 126.324 1671.38 126.763 Q1673.9 127.203 1676.54 128.083 Z" fill="#000000" fill-rule="evenodd" fill-opacity="1" /><path clip-path="url(#clip940)" d="M1685.73 135.583 L1689.99 135.583 L1689.99 161.509 L1685.73 161.509 L1685.73 135.583 M1685.73 125.49 L1689.99 125.49 L1689.99 130.884 L1685.73 130.884 L1685.73 125.49 Z" fill="#000000" fill-rule="evenodd" fill-opacity="1" /><path clip-path="url(#clip940)" d="M1719.09 140.56 Q1720.69 137.689 1722.91 136.324 Q1725.13 134.958 1728.14 134.958 Q1732.19 134.958 1734.39 137.805 Q1736.59 140.629 1736.59 145.861 L1736.59 161.509 L1732.31 161.509 L1732.31 145.999 Q1732.31 142.273 1730.99 140.467 Q1729.67 138.662 1726.96 138.662 Q1723.65 138.662 1721.73 140.861 Q1719.81 143.06 1719.81 146.856 L1719.81 161.509 L1715.52 161.509 L1715.52 145.999 Q1715.52 142.249 1714.2 140.467 Q1712.88 138.662 1710.13 138.662 Q1706.87 138.662 1704.94 140.884 Q1703.02 143.083 1703.02 146.856 L1703.02 161.509 L1698.74 161.509 L1698.74 135.583 L1703.02 135.583 L1703.02 139.611 Q1704.48 137.226 1706.52 136.092 Q1708.56 134.958 1711.36 134.958 Q1714.18 134.958 1716.15 136.393 Q1718.14 137.828 1719.09 140.56 Z" fill="#000000" fill-rule="evenodd" fill-opacity="1" /><path clip-path="url(#clip940)" d="M1749.2 157.62 L1749.2 171.37 L1744.92 171.37 L1744.92 135.583 L1749.2 135.583 L1749.2 139.518 Q1750.55 137.203 1752.58 136.092 Q1754.64 134.958 1757.49 134.958 Q1762.21 134.958 1765.15 138.708 Q1768.12 142.458 1768.12 148.569 Q1768.12 154.68 1765.15 158.43 Q1762.21 162.18 1757.49 162.18 Q1754.64 162.18 1752.58 161.069 Q1750.55 159.935 1749.2 157.62 M1763.69 148.569 Q1763.69 143.87 1761.75 141.208 Q1759.83 138.523 1756.45 138.523 Q1753.07 138.523 1751.13 141.208 Q1749.2 143.87 1749.2 148.569 Q1749.2 153.268 1751.13 155.953 Q1753.07 158.615 1756.45 158.615 Q1759.83 158.615 1761.75 155.953 Q1763.69 153.268 1763.69 148.569 Z" fill="#000000" fill-rule="evenodd" fill-opacity="1" /><path clip-path="url(#clip940)" d="M1775.18 125.49 L1779.44 125.49 L1779.44 161.509 L1775.18 161.509 L1775.18 125.49 Z" fill="#000000" fill-rule="evenodd" fill-opacity="1" /><path clip-path="url(#clip940)" d="M1810.52 147.481 L1810.52 149.564 L1790.94 149.564 Q1791.22 153.962 1793.58 156.277 Q1795.96 158.569 1800.2 158.569 Q1802.65 158.569 1804.94 157.967 Q1807.26 157.365 1809.53 156.161 L1809.53 160.189 Q1807.24 161.161 1804.83 161.671 Q1802.42 162.18 1799.94 162.18 Q1793.74 162.18 1790.11 158.569 Q1786.5 154.958 1786.5 148.8 Q1786.5 142.435 1789.92 138.708 Q1793.37 134.958 1799.2 134.958 Q1804.44 134.958 1807.47 138.337 Q1810.52 141.694 1810.52 147.481 M1806.26 146.231 Q1806.22 142.736 1804.3 140.652 Q1802.4 138.569 1799.25 138.569 Q1795.69 138.569 1793.53 140.583 Q1791.4 142.597 1791.08 146.254 L1806.26 146.231 Z" fill="#000000" fill-rule="evenodd" fill-opacity="1" /><path clip-path="url(#clip940)" d="M1817.7 126.949 L1837.56 126.949 L1837.56 130.884 L1822.37 130.884 L1822.37 141.069 L1836.08 141.069 L1836.08 145.004 L1822.37 145.004 L1822.37 161.509 L1817.7 161.509 L1817.7 126.949 Z" fill="#000000" fill-rule="evenodd" fill-opacity="1" /><path clip-path="url(#clip940)" d="M1844.97 126.949 L1851.93 126.949 L1860.75 150.467 L1869.62 126.949 L1876.59 126.949 L1876.59 161.509 L1872.03 161.509 L1872.03 131.162 L1863.12 154.865 L1858.42 154.865 L1849.5 131.162 L1849.5 161.509 L1844.97 161.509 L1844.97 126.949 Z" fill="#000000" fill-rule="evenodd" fill-opacity="1" /><path clip-path="url(#clip940)" d="M1885.34 126.949 L1890.04 126.949 L1890.04 147.944 Q1890.04 153.499 1892.05 155.953 Q1894.06 158.384 1898.58 158.384 Q1903.07 158.384 1905.08 155.953 Q1907.1 153.499 1907.1 147.944 L1907.1 126.949 L1911.8 126.949 L1911.8 148.523 Q1911.8 155.282 1908.44 158.731 Q1905.11 162.18 1898.58 162.18 Q1892.03 162.18 1888.67 158.731 Q1885.34 155.282 1885.34 148.523 L1885.34 126.949 Z" fill="#000000" fill-rule="evenodd" fill-opacity="1" /><polyline clip-path="url(#clip940)" style="stroke:#e26f46; stroke-linecap:round; stroke-linejoin:round; stroke-width:8; stroke-opacity:1; fill:none" points="
  1494.91,196.069 1631.53,196.069 
  "/>
<path clip-path="url(#clip940)" d="M1670.69 197.145 Q1672.19 197.654 1673.6 199.321 Q1675.04 200.988 1676.47 203.904 L1681.22 213.349 L1676.2 213.349 L1671.77 204.483 Q1670.06 201.011 1668.44 199.876 Q1666.84 198.742 1664.07 198.742 L1658.97 198.742 L1658.97 213.349 L1654.3 213.349 L1654.3 178.789 L1664.85 178.789 Q1670.78 178.789 1673.7 181.265 Q1676.61 183.742 1676.61 188.742 Q1676.61 192.006 1675.08 194.159 Q1673.58 196.312 1670.69 197.145 M1658.97 182.631 L1658.97 194.9 L1664.85 194.9 Q1668.23 194.9 1669.95 193.349 Q1671.68 191.775 1671.68 188.742 Q1671.68 185.71 1669.95 184.182 Q1668.23 182.631 1664.85 182.631 L1658.97 182.631 Z" fill="#000000" fill-rule="evenodd" fill-opacity="1" /><path clip-path="url(#clip940)" d="M1707.1 199.321 L1707.1 201.404 L1687.51 201.404 Q1687.79 205.802 1690.15 208.117 Q1692.54 210.409 1696.77 210.409 Q1699.23 210.409 1701.52 209.807 Q1703.83 209.205 1706.1 208.001 L1706.1 212.029 Q1703.81 213.001 1701.4 213.511 Q1699 214.02 1696.52 214.02 Q1690.32 214.02 1686.68 210.409 Q1683.07 206.798 1683.07 200.64 Q1683.07 194.275 1686.5 190.548 Q1689.94 186.798 1695.78 186.798 Q1701.01 186.798 1704.04 190.177 Q1707.1 193.534 1707.1 199.321 M1702.84 198.071 Q1702.79 194.576 1700.87 192.492 Q1698.97 190.409 1695.82 190.409 Q1692.26 190.409 1690.11 192.423 Q1687.98 194.437 1687.65 198.094 L1702.84 198.071 Z" fill="#000000" fill-rule="evenodd" fill-opacity="1" /><path clip-path="url(#clip940)" d="M1725.87 200.316 Q1720.71 200.316 1718.72 201.497 Q1716.73 202.677 1716.73 205.525 Q1716.73 207.793 1718.21 209.136 Q1719.71 210.455 1722.28 210.455 Q1725.82 210.455 1727.95 207.955 Q1730.11 205.432 1730.11 201.265 L1730.11 200.316 L1725.87 200.316 M1734.37 198.557 L1734.37 213.349 L1730.11 213.349 L1730.11 209.413 Q1728.65 211.775 1726.47 212.909 Q1724.3 214.02 1721.15 214.02 Q1717.17 214.02 1714.81 211.798 Q1712.47 209.552 1712.47 205.802 Q1712.47 201.427 1715.38 199.205 Q1718.32 196.983 1724.13 196.983 L1730.11 196.983 L1730.11 196.566 Q1730.11 193.627 1728.16 192.029 Q1726.24 190.409 1722.75 190.409 Q1720.52 190.409 1718.42 190.941 Q1716.31 191.474 1714.37 192.539 L1714.37 188.603 Q1716.7 187.701 1718.9 187.261 Q1721.1 186.798 1723.19 186.798 Q1728.81 186.798 1731.59 189.714 Q1734.37 192.631 1734.37 198.557 Z" fill="#000000" fill-rule="evenodd" fill-opacity="1" /><path clip-path="url(#clip940)" d="M1743.14 177.33 L1747.4 177.33 L1747.4 213.349 L1743.14 213.349 L1743.14 177.33 Z" fill="#000000" fill-rule="evenodd" fill-opacity="1" /><path clip-path="url(#clip940)" d="M1756.5 178.789 L1776.36 178.789 L1776.36 182.724 L1761.17 182.724 L1761.17 192.909 L1774.88 192.909 L1774.88 196.844 L1761.17 196.844 L1761.17 213.349 L1756.5 213.349 L1756.5 178.789 Z" fill="#000000" fill-rule="evenodd" fill-opacity="1" /><path clip-path="url(#clip940)" d="M1783.76 178.789 L1790.73 178.789 L1799.55 202.307 L1808.42 178.789 L1815.38 178.789 L1815.38 213.349 L1810.82 213.349 L1810.82 183.002 L1801.91 206.705 L1797.21 206.705 L1788.3 183.002 L1788.3 213.349 L1783.76 213.349 L1783.76 178.789 Z" fill="#000000" fill-rule="evenodd" fill-opacity="1" /><path clip-path="url(#clip940)" d="M1824.13 178.789 L1828.83 178.789 L1828.83 199.784 Q1828.83 205.339 1830.85 207.793 Q1832.86 210.224 1837.37 210.224 Q1841.87 210.224 1843.88 207.793 Q1845.89 205.339 1845.89 199.784 L1845.89 178.789 L1850.59 178.789 L1850.59 200.363 Q1850.59 207.122 1847.24 210.571 Q1843.9 214.02 1837.37 214.02 Q1830.82 214.02 1827.47 210.571 Q1824.13 207.122 1824.13 200.363 L1824.13 178.789 Z" fill="#000000" fill-rule="evenodd" fill-opacity="1" /><polyline clip-path="url(#clip940)" style="stroke:#3da44d; stroke-linecap:round; stroke-linejoin:round; stroke-width:8; stroke-opacity:1; fill:none" points="
  1494.91,247.909 1631.53,247.909 
  "/>
<path clip-path="url(#clip940)" d="M1654.3 230.629 L1660.59 230.629 L1675.92 259.541 L1675.92 230.629 L1680.45 230.629 L1680.45 265.189 L1674.16 265.189 L1658.83 236.277 L1658.83 265.189 L1654.3 265.189 L1654.3 230.629 Z" fill="#000000" fill-rule="evenodd" fill-opacity="1" /><path clip-path="url(#clip940)" d="M1711.75 251.161 L1711.75 253.244 L1692.17 253.244 Q1692.44 257.642 1694.81 259.957 Q1697.19 262.249 1701.43 262.249 Q1703.88 262.249 1706.17 261.647 Q1708.49 261.045 1710.76 259.841 L1710.76 263.869 Q1708.46 264.841 1706.06 265.351 Q1703.65 265.86 1701.17 265.86 Q1694.97 265.86 1691.33 262.249 Q1687.72 258.638 1687.72 252.48 Q1687.72 246.115 1691.15 242.388 Q1694.6 238.638 1700.43 238.638 Q1705.66 238.638 1708.69 242.017 Q1711.75 245.374 1711.75 251.161 M1707.49 249.911 Q1707.44 246.416 1705.52 244.332 Q1703.63 242.249 1700.48 242.249 Q1696.91 242.249 1694.76 244.263 Q1692.63 246.277 1692.31 249.934 L1707.49 249.911 Z" fill="#000000" fill-rule="evenodd" fill-opacity="1" /><path clip-path="url(#clip940)" d="M1718.3 254.957 L1718.3 239.263 L1722.56 239.263 L1722.56 254.795 Q1722.56 258.476 1724 260.328 Q1725.43 262.156 1728.3 262.156 Q1731.75 262.156 1733.74 259.957 Q1735.75 257.758 1735.75 253.962 L1735.75 239.263 L1740.01 239.263 L1740.01 265.189 L1735.75 265.189 L1735.75 261.207 Q1734.2 263.568 1732.14 264.726 Q1730.11 265.86 1727.4 265.86 Q1722.93 265.86 1720.62 263.082 Q1718.3 260.304 1718.3 254.957 M1729.02 238.638 L1729.02 238.638 Z" fill="#000000" fill-rule="evenodd" fill-opacity="1" /><path clip-path="url(#clip940)" d="M1763.81 243.244 Q1763.09 242.828 1762.24 242.642 Q1761.4 242.434 1760.38 242.434 Q1756.77 242.434 1754.83 244.795 Q1752.91 247.133 1752.91 251.531 L1752.91 265.189 L1748.63 265.189 L1748.63 239.263 L1752.91 239.263 L1752.91 243.291 Q1754.25 240.929 1756.4 239.795 Q1758.56 238.638 1761.63 238.638 Q1762.07 238.638 1762.61 238.707 Q1763.14 238.754 1763.79 238.869 L1763.81 243.244 Z" fill="#000000" fill-rule="evenodd" fill-opacity="1" /><path clip-path="url(#clip940)" d="M1780.06 252.156 Q1774.9 252.156 1772.91 253.337 Q1770.92 254.517 1770.92 257.365 Q1770.92 259.633 1772.4 260.976 Q1773.9 262.295 1776.47 262.295 Q1780.01 262.295 1782.14 259.795 Q1784.3 257.272 1784.3 253.105 L1784.3 252.156 L1780.06 252.156 M1788.56 250.397 L1788.56 265.189 L1784.3 265.189 L1784.3 261.253 Q1782.84 263.615 1780.66 264.749 Q1778.49 265.86 1775.34 265.86 Q1771.36 265.86 1769 263.638 Q1766.66 261.392 1766.66 257.642 Q1766.66 253.267 1769.57 251.045 Q1772.51 248.823 1778.32 248.823 L1784.3 248.823 L1784.3 248.406 Q1784.3 245.467 1782.35 243.869 Q1780.43 242.249 1776.94 242.249 Q1774.71 242.249 1772.61 242.781 Q1770.5 243.314 1768.56 244.379 L1768.56 240.443 Q1770.89 239.541 1773.09 239.101 Q1775.29 238.638 1777.38 238.638 Q1783 238.638 1785.78 241.554 Q1788.56 244.471 1788.56 250.397 Z" fill="#000000" fill-rule="evenodd" fill-opacity="1" /><path clip-path="url(#clip940)" d="M1797.33 229.17 L1801.59 229.17 L1801.59 265.189 L1797.33 265.189 L1797.33 229.17 Z" fill="#000000" fill-rule="evenodd" fill-opacity="1" /><path clip-path="url(#clip940)" d="M1810.69 230.629 L1830.55 230.629 L1830.55 234.564 L1815.36 234.564 L1815.36 244.749 L1829.06 244.749 L1829.06 248.684 L1815.36 248.684 L1815.36 265.189 L1810.69 265.189 L1810.69 230.629 Z" fill="#000000" fill-rule="evenodd" fill-opacity="1" /><path clip-path="url(#clip940)" d="M1837.95 230.629 L1844.92 230.629 L1853.74 254.147 L1862.61 230.629 L1869.57 230.629 L1869.57 265.189 L1865.01 265.189 L1865.01 234.842 L1856.1 258.545 L1851.4 258.545 L1842.49 234.842 L1842.49 265.189 L1837.95 265.189 L1837.95 230.629 Z" fill="#000000" fill-rule="evenodd" fill-opacity="1" /><path clip-path="url(#clip940)" d="M1878.32 230.629 L1883.02 230.629 L1883.02 251.624 Q1883.02 257.179 1885.04 259.633 Q1887.05 262.064 1891.56 262.064 Q1896.05 262.064 1898.07 259.633 Q1900.08 257.179 1900.08 251.624 L1900.08 230.629 L1904.78 230.629 L1904.78 252.203 Q1904.78 258.962 1901.43 262.411 Q1898.09 265.86 1891.56 265.86 Q1885.01 265.86 1881.66 262.411 Q1878.32 258.962 1878.32 252.203 L1878.32 230.629 Z" fill="#000000" fill-rule="evenodd" fill-opacity="1" /><path clip-path="url(#clip940)" d="M1938.67 229.217 Q1935.57 234.541 1934.06 239.749 Q1932.56 244.957 1932.56 250.304 Q1932.56 255.652 1934.06 260.906 Q1935.59 266.138 1938.67 271.439 L1934.97 271.439 Q1931.49 265.999 1929.76 260.744 Q1928.05 255.49 1928.05 250.304 Q1928.05 245.142 1929.76 239.911 Q1931.47 234.68 1934.97 229.217 L1938.67 229.217 Z" fill="#000000" fill-rule="evenodd" fill-opacity="1" /><path clip-path="url(#clip940)" d="M1961.7 246.554 Q1965.06 247.272 1966.93 249.541 Q1968.83 251.809 1968.83 255.142 Q1968.83 260.258 1965.31 263.059 Q1961.8 265.86 1955.31 265.86 Q1953.14 265.86 1950.82 265.42 Q1948.53 265.003 1946.08 264.147 L1946.08 259.633 Q1948.02 260.767 1950.34 261.346 Q1952.65 261.925 1955.18 261.925 Q1959.57 261.925 1961.86 260.189 Q1964.18 258.453 1964.18 255.142 Q1964.18 252.087 1962.03 250.374 Q1959.9 248.638 1956.08 248.638 L1952.05 248.638 L1952.05 244.795 L1956.26 244.795 Q1959.71 244.795 1961.54 243.429 Q1963.37 242.041 1963.37 239.448 Q1963.37 236.786 1961.47 235.374 Q1959.6 233.939 1956.08 233.939 Q1954.16 233.939 1951.96 234.355 Q1949.76 234.772 1947.12 235.652 L1947.12 231.485 Q1949.78 230.744 1952.1 230.374 Q1954.43 230.004 1956.49 230.004 Q1961.82 230.004 1964.92 232.434 Q1968.02 234.842 1968.02 238.962 Q1968.02 241.832 1966.38 243.823 Q1964.74 245.791 1961.7 246.554 Z" fill="#000000" fill-rule="evenodd" fill-opacity="1" /><path clip-path="url(#clip940)" d="M1987.7 233.707 Q1984.09 233.707 1982.26 237.272 Q1980.45 240.814 1980.45 247.943 Q1980.45 255.05 1982.26 258.615 Q1984.09 262.156 1987.7 262.156 Q1991.33 262.156 1993.14 258.615 Q1994.97 255.05 1994.97 247.943 Q1994.97 240.814 1993.14 237.272 Q1991.33 233.707 1987.7 233.707 M1987.7 230.004 Q1993.51 230.004 1996.56 234.61 Q1999.64 239.193 1999.64 247.943 Q1999.64 256.67 1996.56 261.277 Q1993.51 265.86 1987.7 265.86 Q1981.89 265.86 1978.81 261.277 Q1975.75 256.67 1975.75 247.943 Q1975.75 239.193 1978.81 234.61 Q1981.89 230.004 1987.7 230.004 Z" fill="#000000" fill-rule="evenodd" fill-opacity="1" /><path clip-path="url(#clip940)" d="M2017.86 233.707 Q2014.25 233.707 2012.42 237.272 Q2010.61 240.814 2010.61 247.943 Q2010.61 255.05 2012.42 258.615 Q2014.25 262.156 2017.86 262.156 Q2021.49 262.156 2023.3 258.615 Q2025.13 255.05 2025.13 247.943 Q2025.13 240.814 2023.3 237.272 Q2021.49 233.707 2017.86 233.707 M2017.86 230.004 Q2023.67 230.004 2026.73 234.61 Q2029.8 239.193 2029.8 247.943 Q2029.8 256.67 2026.73 261.277 Q2023.67 265.86 2017.86 265.86 Q2012.05 265.86 2008.97 261.277 Q2005.92 256.67 2005.92 247.943 Q2005.92 239.193 2008.97 234.61 Q2012.05 230.004 2017.86 230.004 Z" fill="#000000" fill-rule="evenodd" fill-opacity="1" /><path clip-path="url(#clip940)" d="M2074.67 251.161 L2074.67 253.244 L2055.08 253.244 Q2055.36 257.642 2057.72 259.957 Q2060.11 262.249 2064.34 262.249 Q2066.79 262.249 2069.09 261.647 Q2071.4 261.045 2073.67 259.841 L2073.67 263.869 Q2071.38 264.841 2068.97 265.351 Q2066.56 265.86 2064.09 265.86 Q2057.88 265.86 2054.25 262.249 Q2050.64 258.638 2050.64 252.48 Q2050.64 246.115 2054.06 242.388 Q2057.51 238.638 2063.35 238.638 Q2068.58 238.638 2071.61 242.017 Q2074.67 245.374 2074.67 251.161 M2070.41 249.911 Q2070.36 246.416 2068.44 244.332 Q2066.54 242.249 2063.39 242.249 Q2059.83 242.249 2057.67 244.263 Q2055.54 246.277 2055.22 249.934 L2070.41 249.911 Z" fill="#000000" fill-rule="evenodd" fill-opacity="1" /><path clip-path="url(#clip940)" d="M2085.78 261.3 L2085.78 275.05 L2081.49 275.05 L2081.49 239.263 L2085.78 239.263 L2085.78 243.198 Q2087.12 240.883 2089.16 239.772 Q2091.22 238.638 2094.06 238.638 Q2098.79 238.638 2101.73 242.388 Q2104.69 246.138 2104.69 252.249 Q2104.69 258.36 2101.73 262.11 Q2098.79 265.86 2094.06 265.86 Q2091.22 265.86 2089.16 264.749 Q2087.12 263.615 2085.78 261.3 M2100.27 252.249 Q2100.27 247.55 2098.32 244.888 Q2096.4 242.203 2093.02 242.203 Q2089.64 242.203 2087.7 244.888 Q2085.78 247.55 2085.78 252.249 Q2085.78 256.948 2087.7 259.633 Q2089.64 262.295 2093.02 262.295 Q2096.4 262.295 2098.32 259.633 Q2100.27 256.948 2100.27 252.249 Z" fill="#000000" fill-rule="evenodd" fill-opacity="1" /><path clip-path="url(#clip940)" d="M2121.79 242.249 Q2118.37 242.249 2116.38 244.934 Q2114.39 247.596 2114.39 252.249 Q2114.39 256.902 2116.35 259.587 Q2118.35 262.249 2121.79 262.249 Q2125.2 262.249 2127.19 259.564 Q2129.18 256.878 2129.18 252.249 Q2129.18 247.642 2127.19 244.957 Q2125.2 242.249 2121.79 242.249 M2121.79 238.638 Q2127.35 238.638 2130.52 242.249 Q2133.69 245.86 2133.69 252.249 Q2133.69 258.615 2130.52 262.249 Q2127.35 265.86 2121.79 265.86 Q2116.22 265.86 2113.04 262.249 Q2109.9 258.615 2109.9 252.249 Q2109.9 245.86 2113.04 242.249 Q2116.22 238.638 2121.79 238.638 Z" fill="#000000" fill-rule="evenodd" fill-opacity="1" /><path clip-path="url(#clip940)" d="M2159.41 240.258 L2159.41 244.24 Q2157.6 243.244 2155.78 242.758 Q2153.97 242.249 2152.12 242.249 Q2147.97 242.249 2145.68 244.888 Q2143.39 247.504 2143.39 252.249 Q2143.39 256.994 2145.68 259.633 Q2147.97 262.249 2152.12 262.249 Q2153.97 262.249 2155.78 261.763 Q2157.6 261.253 2159.41 260.258 L2159.41 264.193 Q2157.63 265.027 2155.71 265.443 Q2153.81 265.86 2151.66 265.86 Q2145.8 265.86 2142.35 262.179 Q2138.9 258.499 2138.9 252.249 Q2138.9 245.906 2142.37 242.272 Q2145.87 238.638 2151.93 238.638 Q2153.9 238.638 2155.78 239.055 Q2157.65 239.448 2159.41 240.258 Z" fill="#000000" fill-rule="evenodd" fill-opacity="1" /><path clip-path="url(#clip940)" d="M2188.37 249.541 L2188.37 265.189 L2184.11 265.189 L2184.11 249.679 Q2184.11 245.999 2182.67 244.17 Q2181.24 242.342 2178.37 242.342 Q2174.92 242.342 2172.93 244.541 Q2170.94 246.74 2170.94 250.536 L2170.94 265.189 L2166.66 265.189 L2166.66 229.17 L2170.94 229.17 L2170.94 243.291 Q2172.47 240.953 2174.53 239.795 Q2176.61 238.638 2179.32 238.638 Q2183.78 238.638 2186.08 241.416 Q2188.37 244.17 2188.37 249.541 Z" fill="#000000" fill-rule="evenodd" fill-opacity="1" /><path clip-path="url(#clip940)" d="M2213.39 240.027 L2213.39 244.054 Q2211.59 243.129 2209.64 242.666 Q2207.7 242.203 2205.61 242.203 Q2202.44 242.203 2200.84 243.175 Q2199.27 244.147 2199.27 246.091 Q2199.27 247.573 2200.41 248.429 Q2201.54 249.263 2204.97 250.027 L2206.42 250.351 Q2210.96 251.323 2212.86 253.105 Q2214.78 254.865 2214.78 258.036 Q2214.78 261.647 2211.91 263.753 Q2209.06 265.86 2204.06 265.86 Q2201.98 265.86 2199.71 265.443 Q2197.47 265.05 2194.97 264.24 L2194.97 259.841 Q2197.33 261.068 2199.62 261.693 Q2201.91 262.295 2204.16 262.295 Q2207.16 262.295 2208.78 261.277 Q2210.41 260.235 2210.41 258.36 Q2210.41 256.624 2209.22 255.698 Q2208.07 254.772 2204.11 253.916 L2202.63 253.568 Q2198.67 252.735 2196.91 251.022 Q2195.15 249.286 2195.15 246.277 Q2195.15 242.619 2197.74 240.629 Q2200.34 238.638 2205.1 238.638 Q2207.47 238.638 2209.55 238.985 Q2211.63 239.332 2213.39 240.027 Z" fill="#000000" fill-rule="evenodd" fill-opacity="1" /><path clip-path="url(#clip940)" d="M2220.89 229.217 L2224.59 229.217 Q2228.07 234.68 2229.78 239.911 Q2231.52 245.142 2231.52 250.304 Q2231.52 255.49 2229.78 260.744 Q2228.07 265.999 2224.59 271.439 L2220.89 271.439 Q2223.97 266.138 2225.47 260.906 Q2227 255.652 2227 250.304 Q2227 244.957 2225.47 239.749 Q2223.97 234.541 2220.89 229.217 Z" fill="#000000" fill-rule="evenodd" fill-opacity="1" /><polyline clip-path="url(#clip940)" style="stroke:#c271d2; stroke-linecap:round; stroke-linejoin:round; stroke-width:8; stroke-opacity:1; fill:none" points="
  1494.91,299.749 1631.53,299.749 
  "/>
<path clip-path="url(#clip940)" d="M1654.3 282.469 L1660.59 282.469 L1675.92 311.381 L1675.92 282.469 L1680.45 282.469 L1680.45 317.029 L1674.16 317.029 L1658.83 288.117 L1658.83 317.029 L1654.3 317.029 L1654.3 282.469 Z" fill="#000000" fill-rule="evenodd" fill-opacity="1" /><path clip-path="url(#clip940)" d="M1711.75 303.001 L1711.75 305.084 L1692.17 305.084 Q1692.44 309.482 1694.81 311.797 Q1697.19 314.089 1701.43 314.089 Q1703.88 314.089 1706.17 313.487 Q1708.49 312.885 1710.76 311.681 L1710.76 315.709 Q1708.46 316.681 1706.06 317.191 Q1703.65 317.7 1701.17 317.7 Q1694.97 317.7 1691.33 314.089 Q1687.72 310.478 1687.72 304.32 Q1687.72 297.955 1691.15 294.228 Q1694.6 290.478 1700.43 290.478 Q1705.66 290.478 1708.69 293.857 Q1711.75 297.214 1711.75 303.001 M1707.49 301.751 Q1707.44 298.256 1705.52 296.172 Q1703.63 294.089 1700.48 294.089 Q1696.91 294.089 1694.76 296.103 Q1692.63 298.117 1692.31 301.774 L1707.49 301.751 Z" fill="#000000" fill-rule="evenodd" fill-opacity="1" /><path clip-path="url(#clip940)" d="M1718.3 306.797 L1718.3 291.103 L1722.56 291.103 L1722.56 306.635 Q1722.56 310.316 1724 312.168 Q1725.43 313.996 1728.3 313.996 Q1731.75 313.996 1733.74 311.797 Q1735.75 309.598 1735.75 305.802 L1735.75 291.103 L1740.01 291.103 L1740.01 317.029 L1735.75 317.029 L1735.75 313.047 Q1734.2 315.408 1732.14 316.566 Q1730.11 317.7 1727.4 317.7 Q1722.93 317.7 1720.62 314.922 Q1718.3 312.144 1718.3 306.797 M1729.02 290.478 L1729.02 290.478 Z" fill="#000000" fill-rule="evenodd" fill-opacity="1" /><path clip-path="url(#clip940)" d="M1763.81 295.084 Q1763.09 294.668 1762.24 294.482 Q1761.4 294.274 1760.38 294.274 Q1756.77 294.274 1754.83 296.635 Q1752.91 298.973 1752.91 303.371 L1752.91 317.029 L1748.63 317.029 L1748.63 291.103 L1752.91 291.103 L1752.91 295.131 Q1754.25 292.769 1756.4 291.635 Q1758.56 290.478 1761.63 290.478 Q1762.07 290.478 1762.61 290.547 Q1763.14 290.594 1763.79 290.709 L1763.81 295.084 Z" fill="#000000" fill-rule="evenodd" fill-opacity="1" /><path clip-path="url(#clip940)" d="M1780.06 303.996 Q1774.9 303.996 1772.91 305.177 Q1770.92 306.357 1770.92 309.205 Q1770.92 311.473 1772.4 312.816 Q1773.9 314.135 1776.47 314.135 Q1780.01 314.135 1782.14 311.635 Q1784.3 309.112 1784.3 304.945 L1784.3 303.996 L1780.06 303.996 M1788.56 302.237 L1788.56 317.029 L1784.3 317.029 L1784.3 313.093 Q1782.84 315.455 1780.66 316.589 Q1778.49 317.7 1775.34 317.7 Q1771.36 317.7 1769 315.478 Q1766.66 313.232 1766.66 309.482 Q1766.66 305.107 1769.57 302.885 Q1772.51 300.663 1778.32 300.663 L1784.3 300.663 L1784.3 300.246 Q1784.3 297.307 1782.35 295.709 Q1780.43 294.089 1776.94 294.089 Q1774.71 294.089 1772.61 294.621 Q1770.5 295.154 1768.56 296.219 L1768.56 292.283 Q1770.89 291.381 1773.09 290.941 Q1775.29 290.478 1777.38 290.478 Q1783 290.478 1785.78 293.394 Q1788.56 296.311 1788.56 302.237 Z" fill="#000000" fill-rule="evenodd" fill-opacity="1" /><path clip-path="url(#clip940)" d="M1797.33 281.01 L1801.59 281.01 L1801.59 317.029 L1797.33 317.029 L1797.33 281.01 Z" fill="#000000" fill-rule="evenodd" fill-opacity="1" /><path clip-path="url(#clip940)" d="M1810.69 282.469 L1830.55 282.469 L1830.55 286.404 L1815.36 286.404 L1815.36 296.589 L1829.06 296.589 L1829.06 300.524 L1815.36 300.524 L1815.36 317.029 L1810.69 317.029 L1810.69 282.469 Z" fill="#000000" fill-rule="evenodd" fill-opacity="1" /><path clip-path="url(#clip940)" d="M1837.95 282.469 L1844.92 282.469 L1853.74 305.987 L1862.61 282.469 L1869.57 282.469 L1869.57 317.029 L1865.01 317.029 L1865.01 286.682 L1856.1 310.385 L1851.4 310.385 L1842.49 286.682 L1842.49 317.029 L1837.95 317.029 L1837.95 282.469 Z" fill="#000000" fill-rule="evenodd" fill-opacity="1" /><path clip-path="url(#clip940)" d="M1878.32 282.469 L1883.02 282.469 L1883.02 303.464 Q1883.02 309.019 1885.04 311.473 Q1887.05 313.904 1891.56 313.904 Q1896.05 313.904 1898.07 311.473 Q1900.08 309.019 1900.08 303.464 L1900.08 282.469 L1904.78 282.469 L1904.78 304.043 Q1904.78 310.802 1901.43 314.251 Q1898.09 317.7 1891.56 317.7 Q1885.01 317.7 1881.66 314.251 Q1878.32 310.802 1878.32 304.043 L1878.32 282.469 Z" fill="#000000" fill-rule="evenodd" fill-opacity="1" /><path clip-path="url(#clip940)" d="M1938.67 281.057 Q1935.57 286.381 1934.06 291.589 Q1932.56 296.797 1932.56 302.144 Q1932.56 307.492 1934.06 312.746 Q1935.59 317.978 1938.67 323.279 L1934.97 323.279 Q1931.49 317.839 1929.76 312.584 Q1928.05 307.33 1928.05 302.144 Q1928.05 296.982 1929.76 291.751 Q1931.47 286.52 1934.97 281.057 L1938.67 281.057 Z" fill="#000000" fill-rule="evenodd" fill-opacity="1" /><path clip-path="url(#clip940)" d="M1948.35 313.093 L1955.99 313.093 L1955.99 286.728 L1947.68 288.395 L1947.68 284.135 L1955.94 282.469 L1960.61 282.469 L1960.61 313.093 L1968.25 313.093 L1968.25 317.029 L1948.35 317.029 L1948.35 313.093 Z" fill="#000000" fill-rule="evenodd" fill-opacity="1" /><path clip-path="url(#clip940)" d="M1977.74 282.469 L1996.1 282.469 L1996.1 286.404 L1982.03 286.404 L1982.03 294.876 Q1983.05 294.529 1984.06 294.367 Q1985.08 294.182 1986.1 294.182 Q1991.89 294.182 1995.27 297.353 Q1998.65 300.524 1998.65 305.941 Q1998.65 311.519 1995.17 314.621 Q1991.7 317.7 1985.38 317.7 Q1983.21 317.7 1980.94 317.33 Q1978.69 316.959 1976.29 316.218 L1976.29 311.519 Q1978.37 312.654 1980.59 313.209 Q1982.81 313.765 1985.29 313.765 Q1989.3 313.765 1991.63 311.658 Q1993.97 309.552 1993.97 305.941 Q1993.97 302.33 1991.63 300.223 Q1989.3 298.117 1985.29 298.117 Q1983.42 298.117 1981.54 298.533 Q1979.69 298.95 1977.74 299.83 L1977.74 282.469 Z" fill="#000000" fill-rule="evenodd" fill-opacity="1" /><path clip-path="url(#clip940)" d="M2017.86 285.547 Q2014.25 285.547 2012.42 289.112 Q2010.61 292.654 2010.61 299.783 Q2010.61 306.89 2012.42 310.455 Q2014.25 313.996 2017.86 313.996 Q2021.49 313.996 2023.3 310.455 Q2025.13 306.89 2025.13 299.783 Q2025.13 292.654 2023.3 289.112 Q2021.49 285.547 2017.86 285.547 M2017.86 281.844 Q2023.67 281.844 2026.73 286.45 Q2029.8 291.033 2029.8 299.783 Q2029.8 308.51 2026.73 313.117 Q2023.67 317.7 2017.86 317.7 Q2012.05 317.7 2008.97 313.117 Q2005.92 308.51 2005.92 299.783 Q2005.92 291.033 2008.97 286.45 Q2012.05 281.844 2017.86 281.844 Z" fill="#000000" fill-rule="evenodd" fill-opacity="1" /><path clip-path="url(#clip940)" d="M2048.02 285.547 Q2044.41 285.547 2042.58 289.112 Q2040.78 292.654 2040.78 299.783 Q2040.78 306.89 2042.58 310.455 Q2044.41 313.996 2048.02 313.996 Q2051.66 313.996 2053.46 310.455 Q2055.29 306.89 2055.29 299.783 Q2055.29 292.654 2053.46 289.112 Q2051.66 285.547 2048.02 285.547 M2048.02 281.844 Q2053.83 281.844 2056.89 286.45 Q2059.97 291.033 2059.97 299.783 Q2059.97 308.51 2056.89 313.117 Q2053.83 317.7 2048.02 317.7 Q2042.21 317.7 2039.13 313.117 Q2036.08 308.51 2036.08 299.783 Q2036.08 291.033 2039.13 286.45 Q2042.21 281.844 2048.02 281.844 Z" fill="#000000" fill-rule="evenodd" fill-opacity="1" /><path clip-path="url(#clip940)" d="M2104.83 303.001 L2104.83 305.084 L2085.24 305.084 Q2085.52 309.482 2087.88 311.797 Q2090.27 314.089 2094.5 314.089 Q2096.96 314.089 2099.25 313.487 Q2101.56 312.885 2103.83 311.681 L2103.83 315.709 Q2101.54 316.681 2099.13 317.191 Q2096.73 317.7 2094.25 317.7 Q2088.04 317.7 2084.41 314.089 Q2080.8 310.478 2080.8 304.32 Q2080.8 297.955 2084.23 294.228 Q2087.67 290.478 2093.51 290.478 Q2098.74 290.478 2101.77 293.857 Q2104.83 297.214 2104.83 303.001 M2100.57 301.751 Q2100.52 298.256 2098.6 296.172 Q2096.7 294.089 2093.55 294.089 Q2089.99 294.089 2087.84 296.103 Q2085.71 298.117 2085.38 301.774 L2100.57 301.751 Z" fill="#000000" fill-rule="evenodd" fill-opacity="1" /><path clip-path="url(#clip940)" d="M2115.94 313.14 L2115.94 326.89 L2111.66 326.89 L2111.66 291.103 L2115.94 291.103 L2115.94 295.038 Q2117.28 292.723 2119.32 291.612 Q2121.38 290.478 2124.23 290.478 Q2128.95 290.478 2131.89 294.228 Q2134.85 297.978 2134.85 304.089 Q2134.85 310.2 2131.89 313.95 Q2128.95 317.7 2124.23 317.7 Q2121.38 317.7 2119.32 316.589 Q2117.28 315.455 2115.94 313.14 M2130.43 304.089 Q2130.43 299.39 2128.48 296.728 Q2126.56 294.043 2123.18 294.043 Q2119.8 294.043 2117.86 296.728 Q2115.94 299.39 2115.94 304.089 Q2115.94 308.788 2117.86 311.473 Q2119.8 314.135 2123.18 314.135 Q2126.56 314.135 2128.48 311.473 Q2130.43 308.788 2130.43 304.089 Z" fill="#000000" fill-rule="evenodd" fill-opacity="1" /><path clip-path="url(#clip940)" d="M2151.96 294.089 Q2148.53 294.089 2146.54 296.774 Q2144.55 299.436 2144.55 304.089 Q2144.55 308.742 2146.52 311.427 Q2148.51 314.089 2151.96 314.089 Q2155.36 314.089 2157.35 311.404 Q2159.34 308.718 2159.34 304.089 Q2159.34 299.482 2157.35 296.797 Q2155.36 294.089 2151.96 294.089 M2151.96 290.478 Q2157.51 290.478 2160.68 294.089 Q2163.85 297.7 2163.85 304.089 Q2163.85 310.455 2160.68 314.089 Q2157.51 317.7 2151.96 317.7 Q2146.38 317.7 2143.21 314.089 Q2140.06 310.455 2140.06 304.089 Q2140.06 297.7 2143.21 294.089 Q2146.38 290.478 2151.96 290.478 Z" fill="#000000" fill-rule="evenodd" fill-opacity="1" /><path clip-path="url(#clip940)" d="M2189.57 292.098 L2189.57 296.08 Q2187.77 295.084 2185.94 294.598 Q2184.13 294.089 2182.28 294.089 Q2178.14 294.089 2175.85 296.728 Q2173.55 299.344 2173.55 304.089 Q2173.55 308.834 2175.85 311.473 Q2178.14 314.089 2182.28 314.089 Q2184.13 314.089 2185.94 313.603 Q2187.77 313.093 2189.57 312.098 L2189.57 316.033 Q2187.79 316.867 2185.87 317.283 Q2183.97 317.7 2181.82 317.7 Q2175.96 317.7 2172.51 314.019 Q2169.06 310.339 2169.06 304.089 Q2169.06 297.746 2172.53 294.112 Q2176.03 290.478 2182.1 290.478 Q2184.06 290.478 2185.94 290.895 Q2187.81 291.288 2189.57 292.098 Z" fill="#000000" fill-rule="evenodd" fill-opacity="1" /><path clip-path="url(#clip940)" d="M2218.53 301.381 L2218.53 317.029 L2214.27 317.029 L2214.27 301.519 Q2214.27 297.839 2212.84 296.01 Q2211.4 294.182 2208.53 294.182 Q2205.08 294.182 2203.09 296.381 Q2201.1 298.58 2201.1 302.376 L2201.1 317.029 L2196.82 317.029 L2196.82 281.01 L2201.1 281.01 L2201.1 295.131 Q2202.63 292.793 2204.69 291.635 Q2206.77 290.478 2209.48 290.478 Q2213.95 290.478 2216.24 293.256 Q2218.53 296.01 2218.53 301.381 Z" fill="#000000" fill-rule="evenodd" fill-opacity="1" /><path clip-path="url(#clip940)" d="M2243.55 291.867 L2243.55 295.894 Q2241.75 294.969 2239.8 294.506 Q2237.86 294.043 2235.78 294.043 Q2232.6 294.043 2231.01 295.015 Q2229.43 295.987 2229.43 297.931 Q2229.43 299.413 2230.57 300.269 Q2231.7 301.103 2235.13 301.867 L2236.59 302.191 Q2241.12 303.163 2243.02 304.945 Q2244.94 306.705 2244.94 309.876 Q2244.94 313.487 2242.07 315.593 Q2239.22 317.7 2234.22 317.7 Q2232.14 317.7 2229.87 317.283 Q2227.63 316.89 2225.13 316.08 L2225.13 311.681 Q2227.49 312.908 2229.78 313.533 Q2232.07 314.135 2234.32 314.135 Q2237.33 314.135 2238.95 313.117 Q2240.57 312.075 2240.57 310.2 Q2240.57 308.464 2239.39 307.538 Q2238.23 306.612 2234.27 305.756 L2232.79 305.408 Q2228.83 304.575 2227.07 302.862 Q2225.31 301.126 2225.31 298.117 Q2225.31 294.459 2227.91 292.469 Q2230.5 290.478 2235.27 290.478 Q2237.63 290.478 2239.71 290.825 Q2241.79 291.172 2243.55 291.867 Z" fill="#000000" fill-rule="evenodd" fill-opacity="1" /><path clip-path="url(#clip940)" d="M2251.05 281.057 L2254.76 281.057 Q2258.23 286.52 2259.94 291.751 Q2261.68 296.982 2261.68 302.144 Q2261.68 307.33 2259.94 312.584 Q2258.23 317.839 2254.76 323.279 L2251.05 323.279 Q2254.13 317.978 2255.64 312.746 Q2257.16 307.492 2257.16 302.144 Q2257.16 296.797 2255.64 291.589 Q2254.13 286.381 2251.05 281.057 Z" fill="#000000" fill-rule="evenodd" fill-opacity="1" /></svg>
