<?xml version="1.0" encoding="utf-8"?>
<svg xmlns="http://www.w3.org/2000/svg" xmlns:xlink="http://www.w3.org/1999/xlink" width="600" height="400" viewBox="0 0 2400 1600">
<defs>
  <clipPath id="clip850">
    <rect x="0" y="0" width="2400" height="1600"/>
  </clipPath>
</defs>
<path clip-path="url(#clip850)" d="M0 1600 L2400 1600 L2400 0 L0 0  Z" fill="#ffffff" fill-rule="evenodd" fill-opacity="1"/>
<defs>
  <clipPath id="clip851">
    <rect x="480" y="0" width="1681" height="1600"/>
  </clipPath>
</defs>
<path clip-path="url(#clip850)" d="M148.057 1423.18 L2352.76 1423.18 L2352.76 47.2441 L148.057 47.2441  Z" fill="#ffffff" fill-rule="evenodd" fill-opacity="1"/>
<defs>
  <clipPath id="clip852">
    <rect x="148" y="47" width="2206" height="1377"/>
  </clipPath>
</defs>
<polyline clip-path="url(#clip852)" style="stroke:#000000; stroke-linecap:round; stroke-linejoin:round; stroke-width:2; stroke-opacity:0.1; fill:none" points="210.454,1423.18 210.454,47.2441 "/>
<polyline clip-path="url(#clip852)" style="stroke:#000000; stroke-linecap:round; stroke-linejoin:round; stroke-width:2; stroke-opacity:0.1; fill:none" points="626.435,1423.18 626.435,47.2441 "/>
<polyline clip-path="url(#clip852)" style="stroke:#000000; stroke-linecap:round; stroke-linejoin:round; stroke-width:2; stroke-opacity:0.1; fill:none" points="1042.42,1423.18 1042.42,47.2441 "/>
<polyline clip-path="url(#clip852)" style="stroke:#000000; stroke-linecap:round; stroke-linejoin:round; stroke-width:2; stroke-opacity:0.1; fill:none" points="1458.4,1423.18 1458.4,47.2441 "/>
<polyline clip-path="url(#clip852)" style="stroke:#000000; stroke-linecap:round; stroke-linejoin:round; stroke-width:2; stroke-opacity:0.1; fill:none" points="1874.38,1423.18 1874.38,47.2441 "/>
<polyline clip-path="url(#clip852)" style="stroke:#000000; stroke-linecap:round; stroke-linejoin:round; stroke-width:2; stroke-opacity:0.1; fill:none" points="2290.36,1423.18 2290.36,47.2441 "/>
<polyline clip-path="url(#clip850)" style="stroke:#000000; stroke-linecap:round; stroke-linejoin:round; stroke-width:4; stroke-opacity:1; fill:none" points="148.057,1423.18 2352.76,1423.18 "/>
<polyline clip-path="url(#clip850)" style="stroke:#000000; stroke-linecap:round; stroke-linejoin:round; stroke-width:4; stroke-opacity:1; fill:none" points="210.454,1423.18 210.454,1404.28 "/>
<polyline clip-path="url(#clip850)" style="stroke:#000000; stroke-linecap:round; stroke-linejoin:round; stroke-width:4; stroke-opacity:1; fill:none" points="626.435,1423.18 626.435,1404.28 "/>
<polyline clip-path="url(#clip850)" style="stroke:#000000; stroke-linecap:round; stroke-linejoin:round; stroke-width:4; stroke-opacity:1; fill:none" points="1042.42,1423.18 1042.42,1404.28 "/>
<polyline clip-path="url(#clip850)" style="stroke:#000000; stroke-linecap:round; stroke-linejoin:round; stroke-width:4; stroke-opacity:1; fill:none" points="1458.4,1423.18 1458.4,1404.28 "/>
<polyline clip-path="url(#clip850)" style="stroke:#000000; stroke-linecap:round; stroke-linejoin:round; stroke-width:4; stroke-opacity:1; fill:none" points="1874.38,1423.18 1874.38,1404.28 "/>
<polyline clip-path="url(#clip850)" style="stroke:#000000; stroke-linecap:round; stroke-linejoin:round; stroke-width:4; stroke-opacity:1; fill:none" points="2290.36,1423.18 2290.36,1404.28 "/>
<path clip-path="url(#clip850)" d="M210.454 1454.1 Q206.843 1454.1 205.014 1457.66 Q203.208 1461.2 203.208 1468.33 Q203.208 1475.44 205.014 1479.01 Q206.843 1482.55 210.454 1482.55 Q214.088 1482.55 215.894 1479.01 Q217.722 1475.44 217.722 1468.33 Q217.722 1461.2 215.894 1457.66 Q214.088 1454.1 210.454 1454.1 M210.454 1450.39 Q216.264 1450.39 219.319 1455 Q222.398 1459.58 222.398 1468.33 Q222.398 1477.06 219.319 1481.67 Q216.264 1486.25 210.454 1486.25 Q204.644 1486.25 201.565 1481.67 Q198.509 1477.06 198.509 1468.33 Q198.509 1459.58 201.565 1455 Q204.644 1450.39 210.454 1450.39 Z" fill="#000000" fill-rule="nonzero" fill-opacity="1" /><path clip-path="url(#clip850)" d="M616.817 1481.64 L624.456 1481.64 L624.456 1455.28 L616.145 1456.95 L616.145 1452.69 L624.409 1451.02 L629.085 1451.02 L629.085 1481.64 L636.724 1481.64 L636.724 1485.58 L616.817 1485.58 L616.817 1481.64 Z" fill="#000000" fill-rule="nonzero" fill-opacity="1" /><path clip-path="url(#clip850)" d="M1037.07 1481.64 L1053.39 1481.64 L1053.39 1485.58 L1031.44 1485.58 L1031.44 1481.64 Q1034.11 1478.89 1038.69 1474.26 Q1043.3 1469.61 1044.48 1468.27 Q1046.72 1465.74 1047.6 1464.01 Q1048.5 1462.25 1048.5 1460.56 Q1048.5 1457.8 1046.56 1456.07 Q1044.64 1454.33 1041.54 1454.33 Q1039.34 1454.33 1036.88 1455.09 Q1034.45 1455.86 1031.68 1457.41 L1031.68 1452.69 Q1034.5 1451.55 1036.95 1450.97 Q1039.41 1450.39 1041.44 1450.39 Q1046.81 1450.39 1050.01 1453.08 Q1053.2 1455.77 1053.2 1460.26 Q1053.2 1462.39 1052.39 1464.31 Q1051.61 1466.2 1049.5 1468.8 Q1048.92 1469.47 1045.82 1472.69 Q1042.72 1475.88 1037.07 1481.64 Z" fill="#000000" fill-rule="nonzero" fill-opacity="1" /><path clip-path="url(#clip850)" d="M1462.64 1466.95 Q1466 1467.66 1467.88 1469.93 Q1469.77 1472.2 1469.77 1475.53 Q1469.77 1480.65 1466.26 1483.45 Q1462.74 1486.25 1456.26 1486.25 Q1454.08 1486.25 1451.76 1485.81 Q1449.47 1485.39 1447.02 1484.54 L1447.02 1480.02 Q1448.96 1481.16 1451.28 1481.74 Q1453.59 1482.32 1456.12 1482.32 Q1460.51 1482.32 1462.81 1480.58 Q1465.12 1478.84 1465.12 1475.53 Q1465.12 1472.48 1462.97 1470.77 Q1460.84 1469.03 1457.02 1469.03 L1452.99 1469.03 L1452.99 1465.19 L1457.2 1465.19 Q1460.65 1465.19 1462.48 1463.82 Q1464.31 1462.43 1464.31 1459.84 Q1464.31 1457.18 1462.41 1455.77 Q1460.54 1454.33 1457.02 1454.33 Q1455.1 1454.33 1452.9 1454.75 Q1450.7 1455.16 1448.06 1456.04 L1448.06 1451.88 Q1450.72 1451.14 1453.04 1450.77 Q1455.38 1450.39 1457.44 1450.39 Q1462.76 1450.39 1465.86 1452.83 Q1468.96 1455.23 1468.96 1459.35 Q1468.96 1462.22 1467.32 1464.21 Q1465.68 1466.18 1462.64 1466.95 Z" fill="#000000" fill-rule="nonzero" fill-opacity="1" /><path clip-path="url(#clip850)" d="M1877.39 1455.09 L1865.58 1473.54 L1877.39 1473.54 L1877.39 1455.09 M1876.16 1451.02 L1882.04 1451.02 L1882.04 1473.54 L1886.97 1473.54 L1886.97 1477.43 L1882.04 1477.43 L1882.04 1485.58 L1877.39 1485.58 L1877.39 1477.43 L1861.79 1477.43 L1861.79 1472.92 L1876.16 1451.02 Z" fill="#000000" fill-rule="nonzero" fill-opacity="1" /><path clip-path="url(#clip850)" d="M2280.64 1451.02 L2298.99 1451.02 L2298.99 1454.96 L2284.92 1454.96 L2284.92 1463.43 Q2285.94 1463.08 2286.96 1462.92 Q2287.97 1462.73 2288.99 1462.73 Q2294.78 1462.73 2298.16 1465.9 Q2301.54 1469.08 2301.54 1474.49 Q2301.54 1480.07 2298.07 1483.17 Q2294.59 1486.25 2288.28 1486.25 Q2286.1 1486.25 2283.83 1485.88 Q2281.59 1485.51 2279.18 1484.77 L2279.18 1480.07 Q2281.26 1481.2 2283.48 1481.76 Q2285.71 1482.32 2288.18 1482.32 Q2292.19 1482.32 2294.53 1480.21 Q2296.86 1478.1 2296.86 1474.49 Q2296.86 1470.88 2294.53 1468.77 Q2292.19 1466.67 2288.18 1466.67 Q2286.31 1466.67 2284.43 1467.08 Q2282.58 1467.5 2280.64 1468.38 L2280.64 1451.02 Z" fill="#000000" fill-rule="nonzero" fill-opacity="1" /><path clip-path="url(#clip850)" d="M1198.72 1522.27 L1198.72 1532.4 L1210.78 1532.4 L1210.78 1536.95 L1198.72 1536.95 L1198.72 1556.3 Q1198.72 1560.66 1199.89 1561.9 Q1201.1 1563.14 1204.76 1563.14 L1210.78 1563.14 L1210.78 1568.04 L1204.76 1568.04 Q1197.98 1568.04 1195.41 1565.53 Q1192.83 1562.98 1192.83 1556.3 L1192.83 1536.95 L1188.53 1536.95 L1188.53 1532.4 L1192.83 1532.4 L1192.83 1522.27 L1198.72 1522.27 Z" fill="#000000" fill-rule="nonzero" fill-opacity="1" /><path clip-path="url(#clip850)" d="M1238.66 1518.52 L1252.16 1518.52 L1252.16 1523.07 L1244.52 1523.07 L1244.52 1572.09 L1252.16 1572.09 L1252.16 1576.64 L1238.66 1576.64 L1238.66 1518.52 Z" fill="#000000" fill-rule="nonzero" fill-opacity="1" /><path clip-path="url(#clip850)" d="M1287.36 1533.45 L1287.36 1538.98 Q1284.88 1537.71 1282.2 1537.07 Q1279.53 1536.44 1276.66 1536.44 Q1272.3 1536.44 1270.11 1537.77 Q1267.94 1539.11 1267.94 1541.79 Q1267.94 1543.82 1269.5 1545 Q1271.06 1546.15 1275.77 1547.2 L1277.78 1547.64 Q1284.02 1548.98 1286.63 1551.43 Q1289.27 1553.85 1289.27 1558.21 Q1289.27 1563.17 1285.32 1566.07 Q1281.41 1568.97 1274.53 1568.97 Q1271.67 1568.97 1268.55 1568.39 Q1265.46 1567.85 1262.02 1566.74 L1262.02 1560.69 Q1265.27 1562.38 1268.42 1563.24 Q1271.57 1564.07 1274.66 1564.07 Q1278.8 1564.07 1281.03 1562.66 Q1283.25 1561.23 1283.25 1558.65 Q1283.25 1556.27 1281.63 1554.99 Q1280.04 1553.72 1274.6 1552.54 L1272.56 1552.07 Q1267.12 1550.92 1264.7 1548.56 Q1262.28 1546.18 1262.28 1542.04 Q1262.28 1537.01 1265.84 1534.27 Q1269.41 1531.54 1275.96 1531.54 Q1279.21 1531.54 1282.08 1532.01 Q1284.94 1532.49 1287.36 1533.45 Z" fill="#000000" fill-rule="nonzero" fill-opacity="1" /><path clip-path="url(#clip850)" d="M1312.28 1518.52 L1312.28 1576.64 L1298.79 1576.64 L1298.79 1572.09 L1306.39 1572.09 L1306.39 1523.07 L1298.79 1523.07 L1298.79 1518.52 L1312.28 1518.52 Z" fill="#000000" fill-rule="nonzero" fill-opacity="1" /><polyline clip-path="url(#clip852)" style="stroke:#000000; stroke-linecap:round; stroke-linejoin:round; stroke-width:2; stroke-opacity:0.1; fill:none" points="148.057,1178.55 2352.76,1178.55 "/>
<polyline clip-path="url(#clip852)" style="stroke:#000000; stroke-linecap:round; stroke-linejoin:round; stroke-width:2; stroke-opacity:0.1; fill:none" points="148.057,924.835 2352.76,924.835 "/>
<polyline clip-path="url(#clip852)" style="stroke:#000000; stroke-linecap:round; stroke-linejoin:round; stroke-width:2; stroke-opacity:0.1; fill:none" points="148.057,671.123 2352.76,671.123 "/>
<polyline clip-path="url(#clip852)" style="stroke:#000000; stroke-linecap:round; stroke-linejoin:round; stroke-width:2; stroke-opacity:0.1; fill:none" points="148.057,417.411 2352.76,417.411 "/>
<polyline clip-path="url(#clip852)" style="stroke:#000000; stroke-linecap:round; stroke-linejoin:round; stroke-width:2; stroke-opacity:0.1; fill:none" points="148.057,163.699 2352.76,163.699 "/>
<polyline clip-path="url(#clip850)" style="stroke:#000000; stroke-linecap:round; stroke-linejoin:round; stroke-width:4; stroke-opacity:1; fill:none" points="148.057,1423.18 148.057,47.2441 "/>
<polyline clip-path="url(#clip850)" style="stroke:#000000; stroke-linecap:round; stroke-linejoin:round; stroke-width:4; stroke-opacity:1; fill:none" points="148.057,1178.55 166.954,1178.55 "/>
<polyline clip-path="url(#clip850)" style="stroke:#000000; stroke-linecap:round; stroke-linejoin:round; stroke-width:4; stroke-opacity:1; fill:none" points="148.057,924.835 166.954,924.835 "/>
<polyline clip-path="url(#clip850)" style="stroke:#000000; stroke-linecap:round; stroke-linejoin:round; stroke-width:4; stroke-opacity:1; fill:none" points="148.057,671.123 166.954,671.123 "/>
<polyline clip-path="url(#clip850)" style="stroke:#000000; stroke-linecap:round; stroke-linejoin:round; stroke-width:4; stroke-opacity:1; fill:none" points="148.057,417.411 166.954,417.411 "/>
<polyline clip-path="url(#clip850)" style="stroke:#000000; stroke-linecap:round; stroke-linejoin:round; stroke-width:4; stroke-opacity:1; fill:none" points="148.057,163.699 166.954,163.699 "/>
<path clip-path="url(#clip850)" d="M50.9921 1179 L80.6679 1179 L80.6679 1182.93 L50.9921 1182.93 L50.9921 1179 Z" fill="#000000" fill-rule="nonzero" fill-opacity="1" /><path clip-path="url(#clip850)" d="M104.927 1177.19 Q108.283 1177.91 110.158 1180.18 Q112.057 1182.45 112.057 1185.78 Q112.057 1190.9 108.538 1193.7 Q105.02 1196.5 98.5382 1196.5 Q96.3623 1196.5 94.0475 1196.06 Q91.7558 1195.64 89.3021 1194.79 L89.3021 1190.27 Q91.2465 1191.41 93.5613 1191.98 Q95.8761 1192.56 98.3993 1192.56 Q102.797 1192.56 105.089 1190.83 Q107.404 1189.09 107.404 1185.78 Q107.404 1182.73 105.251 1181.01 Q103.121 1179.28 99.3021 1179.28 L95.2743 1179.28 L95.2743 1175.43 L99.4872 1175.43 Q102.936 1175.43 104.765 1174.07 Q106.594 1172.68 106.594 1170.09 Q106.594 1167.42 104.696 1166.01 Q102.821 1164.58 99.3021 1164.58 Q97.3808 1164.58 95.1817 1164.99 Q92.9826 1165.41 90.3438 1166.29 L90.3438 1162.12 Q93.0058 1161.38 95.3206 1161.01 Q97.6585 1160.64 99.7187 1160.64 Q105.043 1160.64 108.145 1163.07 Q111.246 1165.48 111.246 1169.6 Q111.246 1172.47 109.603 1174.46 Q107.959 1176.43 104.927 1177.19 Z" fill="#000000" fill-rule="nonzero" fill-opacity="1" /><path clip-path="url(#clip850)" d="M100.112 910.634 Q96.5011 910.634 94.6724 914.198 Q92.8669 917.74 92.8669 924.87 Q92.8669 931.976 94.6724 935.541 Q96.5011 939.082 100.112 939.082 Q103.746 939.082 105.552 935.541 Q107.381 931.976 107.381 924.87 Q107.381 917.74 105.552 914.198 Q103.746 910.634 100.112 910.634 M100.112 906.93 Q105.922 906.93 108.978 911.536 Q112.057 916.12 112.057 924.87 Q112.057 933.596 108.978 938.203 Q105.922 942.786 100.112 942.786 Q94.3021 942.786 91.2234 938.203 Q88.1679 933.596 88.1679 924.87 Q88.1679 916.12 91.2234 911.536 Q94.3021 906.93 100.112 906.93 Z" fill="#000000" fill-rule="nonzero" fill-opacity="1" /><path clip-path="url(#clip850)" d="M104.927 669.769 Q108.283 670.486 110.158 672.755 Q112.057 675.023 112.057 678.357 Q112.057 683.472 108.538 686.273 Q105.02 689.074 98.5382 689.074 Q96.3623 689.074 94.0475 688.634 Q91.7558 688.218 89.3021 687.361 L89.3021 682.847 Q91.2465 683.982 93.5613 684.56 Q95.8761 685.139 98.3993 685.139 Q102.797 685.139 105.089 683.403 Q107.404 681.667 107.404 678.357 Q107.404 675.301 105.251 673.588 Q103.121 671.852 99.3021 671.852 L95.2743 671.852 L95.2743 668.009 L99.4872 668.009 Q102.936 668.009 104.765 666.644 Q106.594 665.255 106.594 662.662 Q106.594 660 104.696 658.588 Q102.821 657.153 99.3021 657.153 Q97.3808 657.153 95.1817 657.57 Q92.9826 657.986 90.3438 658.866 L90.3438 654.699 Q93.0058 653.959 95.3206 653.588 Q97.6585 653.218 99.7187 653.218 Q105.043 653.218 108.145 655.648 Q111.246 658.056 111.246 662.176 Q111.246 665.046 109.603 667.037 Q107.959 669.005 104.927 669.769 Z" fill="#000000" fill-rule="nonzero" fill-opacity="1" /><path clip-path="url(#clip850)" d="M100.529 415.547 Q97.3808 415.547 95.5289 417.7 Q93.7002 419.853 93.7002 423.603 Q93.7002 427.33 95.5289 429.506 Q97.3808 431.658 100.529 431.658 Q103.677 431.658 105.506 429.506 Q107.358 427.33 107.358 423.603 Q107.358 419.853 105.506 417.7 Q103.677 415.547 100.529 415.547 M109.811 400.895 L109.811 405.154 Q108.052 404.321 106.246 403.881 Q104.464 403.441 102.705 403.441 Q98.0752 403.441 95.6215 406.566 Q93.191 409.691 92.8438 416.01 Q94.2095 413.996 96.2697 412.932 Q98.3298 411.844 100.807 411.844 Q106.015 411.844 109.024 415.015 Q112.057 418.163 112.057 423.603 Q112.057 428.927 108.908 432.144 Q105.76 435.362 100.529 435.362 Q94.5336 435.362 91.3623 430.779 Q88.191 426.172 88.191 417.445 Q88.191 409.251 92.0799 404.39 Q95.9687 399.506 102.52 399.506 Q104.279 399.506 106.061 399.853 Q107.867 400.2 109.811 400.895 Z" fill="#000000" fill-rule="nonzero" fill-opacity="1" /><path clip-path="url(#clip850)" d="M90.4364 180.261 L90.4364 176.002 Q92.1956 176.835 94.0012 177.275 Q95.8067 177.715 97.5428 177.715 Q102.172 177.715 104.603 174.613 Q107.057 171.488 107.404 165.145 Q106.061 167.136 104.001 168.201 Q101.941 169.266 99.4409 169.266 Q94.2558 169.266 91.2234 166.141 Q88.2141 162.993 88.2141 157.553 Q88.2141 152.229 91.3623 149.011 Q94.5104 145.794 99.7419 145.794 Q105.737 145.794 108.885 150.4 Q112.057 154.983 112.057 163.733 Q112.057 171.905 108.168 176.789 Q104.302 181.65 97.7511 181.65 Q95.9919 181.65 94.1863 181.303 Q92.3808 180.956 90.4364 180.261 M99.7419 165.608 Q102.89 165.608 104.719 163.456 Q106.571 161.303 106.571 157.553 Q106.571 153.826 104.719 151.673 Q102.89 149.497 99.7419 149.497 Q96.5937 149.497 94.7419 151.673 Q92.9132 153.826 92.9132 157.553 Q92.9132 161.303 94.7419 163.456 Q96.5937 165.608 99.7419 165.608 Z" fill="#000000" fill-rule="nonzero" fill-opacity="1" /><polyline clip-path="url(#clip852)" style="stroke:#009af9; stroke-linecap:round; stroke-linejoin:round; stroke-width:4; stroke-opacity:1; fill:none" points="210.454,882.55 214.614,883.588 218.773,884.63 222.933,885.674 227.093,886.721 231.253,887.77 235.413,888.821 239.572,889.875 243.732,890.93 247.892,891.988 252.052,893.046 256.212,894.107 260.371,895.169 264.531,896.232 268.691,897.296 272.851,898.361 277.011,899.427 281.171,900.495 285.33,901.562 289.49,902.631 293.65,903.7 297.81,904.77 301.97,905.84 306.129,906.91 310.289,907.981 314.449,909.052 318.609,910.124 322.769,911.195 326.928,912.267 331.088,913.339 335.248,914.41 339.408,915.482 343.568,916.554 347.727,917.626 351.887,918.697 356.047,919.769 360.207,920.84 364.367,921.911 368.527,922.982 372.686,924.053 376.846,925.123 381.006,926.193 385.166,927.263 389.326,928.333 393.485,929.402 397.645,930.471 401.805,931.54 405.965,932.608 410.125,933.676 414.284,934.743 418.444,935.811 422.604,936.877 426.764,937.944 430.924,939.01 435.084,940.076 439.243,941.141 443.403,942.206 447.563,943.27 451.723,944.334 455.883,945.398 460.042,946.461 464.202,947.524 468.362,948.586 472.522,949.648 476.682,950.709 480.841,951.771 485.001,952.831 489.161,953.891 493.321,954.951 497.481,956.011 501.64,957.07 505.8,958.128 509.96,959.186 514.12,960.244 518.28,961.301 522.44,962.358 526.599,963.414 530.759,964.47 534.919,965.526 539.079,966.581 543.239,967.636 547.398,968.69 551.558,969.744 555.718,970.798 559.878,971.851 564.038,972.904 568.197,973.956 572.357,975.008 576.517,976.06 580.677,977.111 584.837,978.161 588.996,979.212 593.156,980.262 597.316,981.311 601.476,982.361 605.636,983.409 609.796,984.458 613.955,985.506 618.115,986.553 622.275,987.601 626.435,988.648 630.595,989.694 634.754,990.74 638.914,991.786 643.074,992.831 647.234,993.876 651.394,994.921 655.553,995.965 659.713,997.009 663.873,998.053 668.033,999.096 672.193,1000.14 676.352,1001.18 680.512,1002.22 684.672,1003.27 688.832,1004.31 692.992,1005.35 697.152,1006.39 701.311,1007.43 705.471,1008.47 709.631,1009.51 713.791,1010.55 717.951,1011.59 722.11,1012.63 726.27,1013.66 730.43,1014.7 734.59,1015.74 738.75,1016.78 742.909,1017.81 747.069,1018.85 751.229,1019.89 755.389,1020.92 759.549,1021.96 763.708,1022.99 767.868,1024.03 772.028,1025.06 776.188,1026.1 780.348,1027.13 784.508,1028.16 788.667,1029.2 792.827,1030.23 796.987,1031.26 801.147,1032.29 805.307,1033.33 809.466,1034.36 813.626,1035.39 817.786,1036.42 821.946,1037.45 826.106,1038.48 830.265,1039.51 834.425,1040.54 838.585,1041.57 842.745,1042.6 846.905,1043.63 851.065,1044.66 855.224,1045.68 859.384,1046.71 863.544,1047.74 867.704,1048.77 871.864,1049.79 876.023,1050.82 880.183,1051.84 884.343,1052.87 888.503,1053.9 892.663,1054.92 896.822,1055.95 900.982,1056.97 905.142,1057.99 909.302,1059.02 913.462,1060.04 917.621,1061.07 921.781,1062.09 925.941,1063.11 930.101,1064.13 934.261,1065.16 938.421,1066.18 942.58,1067.2 946.74,1068.22 950.9,1069.24 955.06,1070.26 959.22,1071.28 963.379,1072.3 967.539,1073.32 971.699,1074.34 975.859,1075.36 980.019,1076.38 984.178,1077.4 988.338,1078.41 992.498,1079.43 996.658,1080.45 1000.82,1081.47 1004.98,1082.48 1009.14,1083.5 1013.3,1084.52 1017.46,1085.53 1021.62,1086.55 1025.78,1087.56 1029.94,1088.58 1034.1,1089.59 1038.26,1090.61 1042.42,1091.62 1046.58,1092.64 1050.74,1093.65 1054.9,1094.66 1059.06,1095.68 1063.21,1096.69 1067.37,1097.7 1071.53,1098.71 1075.69,1099.73 1079.85,1100.74 1084.01,1101.75 1088.17,1102.76 1092.33,1103.77 1096.49,1104.78 1100.65,1105.79 1104.81,1106.8 1108.97,1107.81 1113.13,1108.82 1117.29,1109.83 1121.45,1110.84 1125.61,1111.85 1129.77,1112.85 1133.93,1113.86 1138.09,1114.87 1142.25,1115.88 1146.41,1116.88 1150.57,1117.89 1154.73,1118.9 1158.89,1119.9 1163.05,1120.91 1167.21,1121.91 1171.37,1122.92 1175.53,1123.92 1179.69,1124.93 1183.85,1125.93 1188.01,1126.94 1192.17,1127.94 1196.33,1128.94 1200.49,1129.95 1204.65,1130.95 1208.81,1131.95 1212.97,1132.96 1217.13,1133.96 1221.29,1134.96 1225.45,1135.96 1229.61,1136.96 1233.77,1137.96 1237.93,1138.96 1242.09,1139.96 1246.25,1140.96 1250.41,1141.96 1254.57,1142.96 1258.73,1143.96 1262.89,1144.96 1267.05,1145.96 1271.21,1146.96 1275.37,1147.96 1279.52,1148.96 1283.68,1149.95 1287.84,1150.95 1292,1151.95 1296.16,1152.95 1300.32,1153.94 1304.48,1154.94 1308.64,1155.93 1312.8,1156.93 1316.96,1157.93 1321.12,1158.92 1325.28,1159.92 1329.44,1160.91 1333.6,1161.91 1337.76,1162.9 1341.92,1163.89 1346.08,1164.89 1350.24,1165.88 1354.4,1166.87 1358.56,1167.87 1362.72,1168.86 1366.88,1169.85 1371.04,1170.84 1375.2,1171.83 1379.36,1172.83 1383.52,1173.82 1387.68,1174.81 1391.84,1175.8 1396,1176.79 1400.16,1177.78 1404.32,1178.77 1408.48,1179.76 1412.64,1180.75 1416.8,1181.74 1420.96,1182.73 1425.12,1183.71 1429.28,1184.7 1433.44,1185.69 1437.6,1186.68 1441.76,1187.67 1445.92,1188.65 1450.08,1189.64 1454.24,1190.63 1458.4,1191.61 1462.56,1192.6 1466.72,1193.59 1470.88,1194.57 1475.04,1195.56 1479.2,1196.54 1483.36,1197.53 1487.52,1198.51 1491.68,1199.5 1495.84,1200.48 1499.99,1201.46 1504.15,1202.45 1508.31,1203.43 1512.47,1204.42 1516.63,1205.4 1520.79,1206.38 1524.95,1207.36 1529.11,1208.35 1533.27,1209.33 1537.43,1210.31 1541.59,1211.29 1545.75,1212.27 1549.91,1213.25 1554.07,1214.23 1558.23,1215.21 1562.39,1216.19 1566.55,1217.17 1570.71,1218.15 1574.87,1219.13 1579.03,1220.11 1583.19,1221.09 1587.35,1222.07 1591.51,1223.05 1595.67,1224.03 1599.83,1225 1603.99,1225.98 1608.15,1226.96 1612.31,1227.94 1616.47,1228.91 1620.63,1229.89 1624.79,1230.87 1628.95,1231.84 1633.11,1232.82 1637.27,1233.79 1641.43,1234.77 1645.59,1235.75 1649.75,1236.72 1653.91,1237.69 1658.07,1238.67 1662.23,1239.64 1666.39,1240.62 1670.55,1241.59 1674.71,1242.57 1678.87,1243.54 1683.03,1244.51 1687.19,1245.48 1691.35,1246.46 1695.51,1247.43 1699.67,1248.4 1703.83,1249.37 1707.99,1250.35 1712.15,1251.32 1716.3,1252.29 1720.46,1253.26 1724.62,1254.23 1728.78,1255.2 1732.94,1256.17 1737.1,1257.14 1741.26,1258.11 1745.42,1259.08 1749.58,1260.05 1753.74,1261.02 1757.9,1261.99 1762.06,1262.96 1766.22,1263.92 1770.38,1264.89 1774.54,1265.86 1778.7,1266.83 1782.86,1267.8 1787.02,1268.76 1791.18,1269.73 1795.34,1270.7 1799.5,1271.66 1803.66,1272.63 1807.82,1273.6 1811.98,1274.56 1816.14,1275.53 1820.3,1276.49 1824.46,1277.46 1828.62,1278.42 1832.78,1279.39 1836.94,1280.35 1841.1,1281.32 1845.26,1282.28 1849.42,1283.25 1853.58,1284.21 1857.74,1285.17 1861.9,1286.14 1866.06,1287.1 1870.22,1288.06 1874.38,1289.02 1878.54,1289.99 1882.7,1290.95 1886.86,1291.91 1891.02,1292.87 1895.18,1293.83 1899.34,1294.8 1903.5,1295.76 1907.66,1296.72 1911.82,1297.68 1915.98,1298.64 1920.14,1299.6 1924.3,1300.56 1928.46,1301.52 1932.62,1302.48 1936.77,1303.44 1940.93,1304.4 1945.09,1305.36 1949.25,1306.31 1953.41,1307.27 1957.57,1308.23 1961.73,1309.19 1965.89,1310.15 1970.05,1311.1 1974.21,1312.06 1978.37,1313.02 1982.53,1313.98 1986.69,1314.93 1990.85,1315.89 1995.01,1316.85 1999.17,1317.8 2003.33,1318.76 2007.49,1319.71 2011.65,1320.67 2015.81,1321.62 2019.97,1322.58 2024.13,1323.53 2028.29,1324.49 2032.45,1325.44 2036.61,1326.4 2040.77,1327.35 2044.93,1328.31 2049.09,1329.26 2053.25,1330.21 2057.41,1331.17 2061.57,1332.12 2065.73,1333.07 2069.89,1334.03 2074.05,1334.98 2078.21,1335.93 2082.37,1336.88 2086.53,1337.83 2090.69,1338.79 2094.85,1339.74 2099.01,1340.69 2103.17,1341.64 2107.33,1342.59 2111.49,1343.54 2115.65,1344.49 2119.81,1345.44 2123.97,1346.39 2128.13,1347.34 2132.29,1348.29 2136.45,1349.24 2140.61,1350.19 2144.77,1351.14 2148.93,1352.09 2153.09,1353.04 2157.24,1353.99 2161.4,1354.93 2165.56,1355.88 2169.72,1356.83 2173.88,1357.78 2178.04,1358.73 2182.2,1359.67 2186.36,1360.62 2190.52,1361.57 2194.68,1362.51 2198.84,1363.46 2203,1364.41 2207.16,1365.35 2211.32,1366.3 2215.48,1367.24 2219.64,1368.19 2223.8,1369.14 2227.96,1370.08 2232.12,1371.03 2236.28,1371.97 2240.44,1372.92 2244.6,1373.86 2248.76,1374.8 2252.92,1375.75 2257.08,1376.69 2261.24,1377.64 2265.4,1378.58 2269.56,1379.52 2273.72,1380.47 2277.88,1381.41 2282.04,1382.35 2286.2,1383.3 2290.36,1384.24 "/>
<polyline clip-path="url(#clip852)" style="stroke:#e26f46; stroke-linecap:round; stroke-linejoin:round; stroke-width:4; stroke-opacity:1; fill:none" points="210.454,924.835 214.614,923.327 218.773,921.811 222.933,920.285 227.093,918.751 231.253,917.209 235.413,915.659 239.572,914.102 243.732,912.538 247.892,910.967 252.052,909.39 256.212,907.807 260.371,906.218 264.531,904.624 268.691,903.025 272.851,901.42 277.011,899.811 281.171,898.198 285.33,896.58 289.49,894.959 293.65,893.333 297.81,891.704 301.97,890.071 306.129,888.436 310.289,886.797 314.449,885.155 318.609,883.51 322.769,881.863 326.928,880.213 331.088,878.56 335.248,876.906 339.408,875.249 343.568,873.59 347.727,871.929 351.887,870.266 356.047,868.602 360.207,866.936 364.367,865.268 368.527,863.599 372.686,861.928 376.846,860.256 381.006,858.583 385.166,856.909 389.326,855.233 393.485,853.557 397.645,851.879 401.805,850.2 405.965,848.52 410.125,846.84 414.284,845.158 418.444,843.476 422.604,841.793 426.764,840.11 430.924,838.425 435.084,836.74 439.243,835.055 443.403,833.369 447.563,831.682 451.723,829.995 455.883,828.307 460.042,826.619 464.202,824.93 468.362,823.241 472.522,821.551 476.682,819.862 480.841,818.171 485.001,816.481 489.161,814.79 493.321,813.099 497.481,811.408 501.64,809.716 505.8,808.024 509.96,806.332 514.12,804.64 518.28,802.947 522.44,801.255 526.599,799.562 530.759,797.869 534.919,796.175 539.079,794.482 543.239,792.789 547.398,791.095 551.558,789.401 555.718,787.707 559.878,786.013 564.038,784.319 568.197,782.625 572.357,780.931 576.517,779.237 580.677,777.542 584.837,775.848 588.996,774.154 593.156,772.459 597.316,770.764 601.476,769.07 605.636,767.375 609.796,765.681 613.955,763.986 618.115,762.291 622.275,760.596 626.435,758.902 630.595,757.207 634.754,755.512 638.914,753.817 643.074,752.123 647.234,750.428 651.394,748.733 655.553,747.038 659.713,745.344 663.873,743.649 668.033,741.954 672.193,740.26 676.352,738.565 680.512,736.87 684.672,735.176 688.832,733.481 692.992,731.787 697.152,730.092 701.311,728.398 705.471,726.704 709.631,725.009 713.791,723.315 717.951,721.621 722.11,719.926 726.27,718.232 730.43,716.538 734.59,714.844 738.75,713.15 742.909,711.456 747.069,709.762 751.229,708.068 755.389,706.374 759.549,704.68 763.708,702.987 767.868,701.293 772.028,699.599 776.188,697.906 780.348,696.212 784.508,694.519 788.667,692.825 792.827,691.132 796.987,689.439 801.147,687.745 805.307,686.052 809.466,684.359 813.626,682.666 817.786,680.973 821.946,679.28 826.106,677.587 830.265,675.894 834.425,674.202 838.585,672.509 842.745,670.816 846.905,669.124 851.065,667.431 855.224,665.739 859.384,664.047 863.544,662.354 867.704,660.662 871.864,658.97 876.023,657.278 880.183,655.586 884.343,653.894 888.503,652.202 892.663,650.51 896.822,648.818 900.982,647.127 905.142,645.435 909.302,643.744 913.462,642.052 917.621,640.361 921.781,638.67 925.941,636.978 930.101,635.287 934.261,633.596 938.421,631.905 942.58,630.214 946.74,628.523 950.9,626.832 955.06,625.142 959.22,623.451 963.379,621.76 967.539,620.07 971.699,618.379 975.859,616.689 980.019,614.999 984.178,613.309 988.338,611.618 992.498,609.928 996.658,608.238 1000.82,606.548 1004.98,604.859 1009.14,603.169 1013.3,601.479 1017.46,599.79 1021.62,598.1 1025.78,596.41 1029.94,594.721 1034.1,593.032 1038.26,591.342 1042.42,589.653 1046.58,587.964 1050.74,586.275 1054.9,584.586 1059.06,582.897 1063.21,581.209 1067.37,579.52 1071.53,577.831 1075.69,576.143 1079.85,574.454 1084.01,572.766 1088.17,571.077 1092.33,569.389 1096.49,567.701 1100.65,566.013 1104.81,564.325 1108.97,562.637 1113.13,560.949 1117.29,559.261 1121.45,557.573 1125.61,555.885 1129.77,554.198 1133.93,552.51 1138.09,550.823 1142.25,549.135 1146.41,547.448 1150.57,545.761 1154.73,544.074 1158.89,542.387 1163.05,540.7 1167.21,539.013 1171.37,537.326 1175.53,535.639 1179.69,533.952 1183.85,532.266 1188.01,530.579 1192.17,528.893 1196.33,527.206 1200.49,525.52 1204.65,523.834 1208.81,522.148 1212.97,520.462 1217.13,518.776 1221.29,517.09 1225.45,515.404 1229.61,513.718 1233.77,512.032 1237.93,510.347 1242.09,508.661 1246.25,506.976 1250.41,505.29 1254.57,503.605 1258.73,501.919 1262.89,500.234 1267.05,498.549 1271.21,496.864 1275.37,495.179 1279.52,493.494 1283.68,491.81 1287.84,490.125 1292,488.44 1296.16,486.756 1300.32,485.071 1304.48,483.387 1308.64,481.702 1312.8,480.018 1316.96,478.334 1321.12,476.65 1325.28,474.966 1329.44,473.282 1333.6,471.598 1337.76,469.914 1341.92,468.23 1346.08,466.546 1350.24,464.863 1354.4,463.179 1358.56,461.496 1362.72,459.812 1366.88,458.129 1371.04,456.446 1375.2,454.763 1379.36,453.08 1383.52,451.397 1387.68,449.714 1391.84,448.031 1396,446.348 1400.16,444.665 1404.32,442.983 1408.48,441.3 1412.64,439.618 1416.8,437.935 1420.96,436.253 1425.12,434.571 1429.28,432.889 1433.44,431.207 1437.6,429.525 1441.76,427.843 1445.92,426.161 1450.08,424.479 1454.24,422.797 1458.4,421.115 1462.56,419.434 1466.72,417.752 1470.88,416.071 1475.04,414.39 1479.2,412.708 1483.36,411.027 1487.52,409.346 1491.68,407.665 1495.84,405.984 1499.99,404.303 1504.15,402.622 1508.31,400.941 1512.47,399.261 1516.63,397.58 1520.79,395.9 1524.95,394.219 1529.11,392.539 1533.27,390.858 1537.43,389.178 1541.59,387.498 1545.75,385.818 1549.91,384.138 1554.07,382.458 1558.23,380.778 1562.39,379.098 1566.55,377.418 1570.71,375.739 1574.87,374.059 1579.03,372.379 1583.19,370.7 1587.35,369.021 1591.51,367.341 1595.67,365.662 1599.83,363.983 1603.99,362.304 1608.15,360.625 1612.31,358.946 1616.47,357.267 1620.63,355.588 1624.79,353.909 1628.95,352.231 1633.11,350.552 1637.27,348.874 1641.43,347.195 1645.59,345.517 1649.75,343.839 1653.91,342.16 1658.07,340.482 1662.23,338.804 1666.39,337.126 1670.55,335.448 1674.71,333.77 1678.87,332.092 1683.03,330.415 1687.19,328.737 1691.35,327.059 1695.51,325.382 1699.67,323.704 1703.83,322.027 1707.99,320.35 1712.15,318.673 1716.3,316.995 1720.46,315.318 1724.62,313.641 1728.78,311.964 1732.94,310.287 1737.1,308.611 1741.26,306.934 1745.42,305.257 1749.58,303.581 1753.74,301.904 1757.9,300.228 1762.06,298.551 1766.22,296.875 1770.38,295.199 1774.54,293.522 1778.7,291.846 1782.86,290.17 1787.02,288.494 1791.18,286.818 1795.34,285.142 1799.5,283.467 1803.66,281.791 1807.82,280.115 1811.98,278.44 1816.14,276.764 1820.3,275.089 1824.46,273.413 1828.62,271.738 1832.78,270.063 1836.94,268.388 1841.1,266.713 1845.26,265.038 1849.42,263.363 1853.58,261.688 1857.74,260.013 1861.9,258.338 1866.06,256.664 1870.22,254.989 1874.38,253.314 1878.54,251.64 1882.7,249.965 1886.86,248.291 1891.02,246.617 1895.18,244.943 1899.34,243.269 1903.5,241.594 1907.66,239.92 1911.82,238.246 1915.98,236.573 1920.14,234.899 1924.3,233.225 1928.46,231.551 1932.62,229.878 1936.77,228.204 1940.93,226.531 1945.09,224.857 1949.25,223.184 1953.41,221.511 1957.57,219.837 1961.73,218.164 1965.89,216.491 1970.05,214.818 1974.21,213.145 1978.37,211.472 1982.53,209.8 1986.69,208.127 1990.85,206.454 1995.01,204.781 1999.17,203.109 2003.33,201.436 2007.49,199.764 2011.65,198.092 2015.81,196.419 2019.97,194.747 2024.13,193.075 2028.29,191.403 2032.45,189.731 2036.61,188.059 2040.77,186.387 2044.93,184.715 2049.09,183.043 2053.25,181.371 2057.41,179.7 2061.57,178.028 2065.73,176.357 2069.89,174.685 2074.05,173.014 2078.21,171.342 2082.37,169.671 2086.53,168 2090.69,166.329 2094.85,164.658 2099.01,162.987 2103.17,161.316 2107.33,159.645 2111.49,157.974 2115.65,156.303 2119.81,154.632 2123.97,152.962 2128.13,151.291 2132.29,149.621 2136.45,147.95 2140.61,146.28 2144.77,144.609 2148.93,142.939 2153.09,141.269 2157.24,139.599 2161.4,137.929 2165.56,136.259 2169.72,134.589 2173.88,132.919 2178.04,131.249 2182.2,129.579 2186.36,127.909 2190.52,126.24 2194.68,124.57 2198.84,122.901 2203,121.231 2207.16,119.562 2211.32,117.892 2215.48,116.223 2219.64,114.554 2223.8,112.885 2227.96,111.215 2232.12,109.546 2236.28,107.877 2240.44,106.208 2244.6,104.54 2248.76,102.871 2252.92,101.202 2257.08,99.5332 2261.24,97.8646 2265.4,96.196 2269.56,94.5274 2273.72,92.859 2277.88,91.1906 2282.04,89.5222 2286.2,87.8539 2290.36,86.1857 "/>
<path clip-path="url(#clip850)" d="M221.547 248.629 L894.746 248.629 L894.746 93.1086 L221.547 93.1086  Z" fill="#ffffff" fill-rule="evenodd" fill-opacity="1"/>
<polyline clip-path="url(#clip850)" style="stroke:#000000; stroke-linecap:round; stroke-linejoin:round; stroke-width:4; stroke-opacity:1; fill:none" points="221.547,248.629 894.746,248.629 894.746,93.1086 221.547,93.1086 221.547,248.629 "/>
<polyline clip-path="url(#clip850)" style="stroke:#009af9; stroke-linecap:round; stroke-linejoin:round; stroke-width:4; stroke-opacity:1; fill:none" points="246.043,144.949 393.023,144.949 "/>
<path clip-path="url(#clip850)" d="M437.867 141.28 Q439.464 138.409 441.686 137.044 Q443.909 135.678 446.918 135.678 Q450.969 135.678 453.168 138.525 Q455.367 141.349 455.367 146.581 L455.367 162.229 L451.084 162.229 L451.084 146.719 Q451.084 142.993 449.765 141.187 Q448.446 139.382 445.737 139.382 Q442.427 139.382 440.506 141.581 Q438.585 143.78 438.585 147.576 L438.585 162.229 L434.302 162.229 L434.302 146.719 Q434.302 142.969 432.983 141.187 Q431.663 139.382 428.909 139.382 Q425.645 139.382 423.724 141.604 Q421.802 143.803 421.802 147.576 L421.802 162.229 L417.52 162.229 L417.52 136.303 L421.802 136.303 L421.802 140.331 Q423.261 137.946 425.298 136.812 Q427.335 135.678 430.136 135.678 Q432.96 135.678 434.927 137.113 Q436.918 138.548 437.867 141.28 Z" fill="#000000" fill-rule="nonzero" fill-opacity="1" /><path clip-path="url(#clip850)" d="M475.645 149.196 Q470.483 149.196 468.492 150.377 Q466.501 151.557 466.501 154.405 Q466.501 156.673 467.983 158.016 Q469.487 159.335 472.057 159.335 Q475.598 159.335 477.728 156.835 Q479.881 154.312 479.881 150.145 L479.881 149.196 L475.645 149.196 M484.14 147.437 L484.14 162.229 L479.881 162.229 L479.881 158.293 Q478.422 160.655 476.246 161.789 Q474.07 162.9 470.922 162.9 Q466.941 162.9 464.58 160.678 Q462.242 158.432 462.242 154.682 Q462.242 150.307 465.158 148.085 Q468.098 145.863 473.908 145.863 L479.881 145.863 L479.881 145.446 Q479.881 142.507 477.936 140.909 Q476.015 139.289 472.52 139.289 Q470.297 139.289 468.191 139.821 Q466.084 140.354 464.14 141.419 L464.14 137.483 Q466.478 136.581 468.677 136.141 Q470.876 135.678 472.959 135.678 Q478.584 135.678 481.362 138.594 Q484.14 141.511 484.14 147.437 Z" fill="#000000" fill-rule="nonzero" fill-opacity="1" /><path clip-path="url(#clip850)" d="M509.441 137.067 L509.441 141.094 Q507.635 140.169 505.691 139.706 Q503.746 139.243 501.663 139.243 Q498.492 139.243 496.894 140.215 Q495.32 141.187 495.32 143.131 Q495.32 144.613 496.455 145.469 Q497.589 146.303 501.015 147.067 L502.473 147.391 Q507.01 148.363 508.908 150.145 Q510.83 151.905 510.83 155.076 Q510.83 158.687 507.959 160.793 Q505.112 162.9 500.112 162.9 Q498.029 162.9 495.76 162.483 Q493.515 162.09 491.015 161.28 L491.015 156.881 Q493.376 158.108 495.668 158.733 Q497.959 159.335 500.205 159.335 Q503.214 159.335 504.834 158.317 Q506.455 157.275 506.455 155.4 Q506.455 153.664 505.274 152.738 Q504.117 151.812 500.158 150.956 L498.677 150.608 Q494.719 149.775 492.959 148.062 Q491.2 146.326 491.2 143.317 Q491.2 139.659 493.793 137.669 Q496.385 135.678 501.154 135.678 Q503.515 135.678 505.598 136.025 Q507.681 136.372 509.441 137.067 Z" fill="#000000" fill-rule="nonzero" fill-opacity="1" /><path clip-path="url(#clip850)" d="M534.14 137.067 L534.14 141.094 Q532.334 140.169 530.39 139.706 Q528.445 139.243 526.362 139.243 Q523.191 139.243 521.593 140.215 Q520.019 141.187 520.019 143.131 Q520.019 144.613 521.154 145.469 Q522.288 146.303 525.714 147.067 L527.172 147.391 Q531.709 148.363 533.607 150.145 Q535.528 151.905 535.528 155.076 Q535.528 158.687 532.658 160.793 Q529.811 162.9 524.811 162.9 Q522.728 162.9 520.459 162.483 Q518.214 162.09 515.714 161.28 L515.714 156.881 Q518.075 158.108 520.367 158.733 Q522.658 159.335 524.904 159.335 Q527.913 159.335 529.533 158.317 Q531.154 157.275 531.154 155.4 Q531.154 153.664 529.973 152.738 Q528.816 151.812 524.857 150.956 L523.376 150.608 Q519.417 149.775 517.658 148.062 Q515.899 146.326 515.899 143.317 Q515.899 139.659 518.492 137.669 Q521.084 135.678 525.853 135.678 Q528.214 135.678 530.297 136.025 Q532.38 136.372 534.14 137.067 Z" fill="#000000" fill-rule="nonzero" fill-opacity="1" /><path clip-path="url(#clip850)" d="M542.913 156.349 L547.797 156.349 L547.797 162.229 L542.913 162.229 L542.913 156.349 Z" fill="#000000" fill-rule="nonzero" fill-opacity="1" /><path clip-path="url(#clip850)" d="M573.908 137.067 L573.908 141.094 Q572.102 140.169 570.158 139.706 Q568.213 139.243 566.13 139.243 Q562.959 139.243 561.362 140.215 Q559.788 141.187 559.788 143.131 Q559.788 144.613 560.922 145.469 Q562.056 146.303 565.482 147.067 L566.94 147.391 Q571.477 148.363 573.376 150.145 Q575.297 151.905 575.297 155.076 Q575.297 158.687 572.426 160.793 Q569.579 162.9 564.579 162.9 Q562.496 162.9 560.227 162.483 Q557.982 162.09 555.482 161.28 L555.482 156.881 Q557.843 158.108 560.135 158.733 Q562.426 159.335 564.672 159.335 Q567.681 159.335 569.301 158.317 Q570.922 157.275 570.922 155.4 Q570.922 153.664 569.741 152.738 Q568.584 151.812 564.626 150.956 L563.144 150.608 Q559.186 149.775 557.427 148.062 Q555.667 146.326 555.667 143.317 Q555.667 139.659 558.26 137.669 Q560.852 135.678 565.621 135.678 Q567.982 135.678 570.065 136.025 Q572.149 136.372 573.908 137.067 Z" fill="#000000" fill-rule="nonzero" fill-opacity="1" /><path clip-path="url(#clip850)" d="M607.38 126.257 Q604.278 131.581 602.773 136.789 Q601.269 141.997 601.269 147.344 Q601.269 152.692 602.773 157.946 Q604.301 163.178 607.38 168.479 L603.676 168.479 Q600.204 163.039 598.468 157.784 Q596.755 152.53 596.755 147.344 Q596.755 142.182 598.468 136.951 Q600.181 131.72 603.676 126.257 L607.38 126.257 Z" fill="#000000" fill-rule="nonzero" fill-opacity="1" /><path clip-path="url(#clip850)" d="M630.412 143.594 Q633.769 144.312 635.644 146.581 Q637.542 148.849 637.542 152.182 Q637.542 157.298 634.023 160.099 Q630.505 162.9 624.023 162.9 Q621.847 162.9 619.533 162.46 Q617.241 162.043 614.787 161.187 L614.787 156.673 Q616.732 157.807 619.047 158.386 Q621.361 158.965 623.884 158.965 Q628.283 158.965 630.574 157.229 Q632.889 155.493 632.889 152.182 Q632.889 149.127 630.736 147.414 Q628.607 145.678 624.787 145.678 L620.76 145.678 L620.76 141.835 L624.972 141.835 Q628.422 141.835 630.25 140.469 Q632.079 139.081 632.079 136.488 Q632.079 133.826 630.181 132.414 Q628.306 130.979 624.787 130.979 Q622.866 130.979 620.667 131.395 Q618.468 131.812 615.829 132.692 L615.829 128.525 Q618.491 127.784 620.806 127.414 Q623.144 127.044 625.204 127.044 Q630.528 127.044 633.63 129.474 Q636.732 131.882 636.732 136.002 Q636.732 138.872 635.088 140.863 Q633.445 142.831 630.412 143.594 Z" fill="#000000" fill-rule="nonzero" fill-opacity="1" /><path clip-path="url(#clip850)" d="M660.574 143.594 Q663.931 144.312 665.806 146.581 Q667.704 148.849 667.704 152.182 Q667.704 157.298 664.185 160.099 Q660.667 162.9 654.185 162.9 Q652.009 162.9 649.695 162.46 Q647.403 162.043 644.949 161.187 L644.949 156.673 Q646.894 157.807 649.208 158.386 Q651.523 158.965 654.046 158.965 Q658.444 158.965 660.736 157.229 Q663.051 155.493 663.051 152.182 Q663.051 149.127 660.898 147.414 Q658.769 145.678 654.949 145.678 L650.921 145.678 L650.921 141.835 L655.134 141.835 Q658.583 141.835 660.412 140.469 Q662.241 139.081 662.241 136.488 Q662.241 133.826 660.343 132.414 Q658.468 130.979 654.949 130.979 Q653.028 130.979 650.829 131.395 Q648.63 131.812 645.991 132.692 L645.991 128.525 Q648.653 127.784 650.968 127.414 Q653.306 127.044 655.366 127.044 Q660.69 127.044 663.792 129.474 Q666.894 131.882 666.894 136.002 Q666.894 138.872 665.25 140.863 Q663.607 142.831 660.574 143.594 Z" fill="#000000" fill-rule="nonzero" fill-opacity="1" /><path clip-path="url(#clip850)" d="M676.616 127.669 L694.972 127.669 L694.972 131.604 L680.898 131.604 L680.898 140.076 Q681.917 139.729 682.935 139.567 Q683.954 139.382 684.972 139.382 Q690.759 139.382 694.139 142.553 Q697.518 145.724 697.518 151.141 Q697.518 156.719 694.046 159.821 Q690.574 162.9 684.255 162.9 Q682.079 162.9 679.81 162.53 Q677.565 162.159 675.157 161.418 L675.157 156.719 Q677.241 157.854 679.463 158.409 Q681.685 158.965 684.162 158.965 Q688.167 158.965 690.505 156.858 Q692.842 154.752 692.842 151.141 Q692.842 147.53 690.505 145.423 Q688.167 143.317 684.162 143.317 Q682.287 143.317 680.412 143.733 Q678.56 144.15 676.616 145.03 L676.616 127.669 Z" fill="#000000" fill-rule="nonzero" fill-opacity="1" /><path clip-path="url(#clip850)" d="M706.778 127.669 L725.134 127.669 L725.134 131.604 L711.06 131.604 L711.06 140.076 Q712.078 139.729 713.097 139.567 Q714.115 139.382 715.134 139.382 Q720.921 139.382 724.301 142.553 Q727.68 145.724 727.68 151.141 Q727.68 156.719 724.208 159.821 Q720.736 162.9 714.416 162.9 Q712.241 162.9 709.972 162.53 Q707.727 162.159 705.319 161.418 L705.319 156.719 Q707.403 157.854 709.625 158.409 Q711.847 158.965 714.324 158.965 Q718.328 158.965 720.666 156.858 Q723.004 154.752 723.004 151.141 Q723.004 147.53 720.666 145.423 Q718.328 143.317 714.324 143.317 Q712.449 143.317 710.574 143.733 Q708.722 144.15 706.778 145.03 L706.778 127.669 Z" fill="#000000" fill-rule="nonzero" fill-opacity="1" /><path clip-path="url(#clip850)" d="M749.74 131.743 L737.935 150.192 L749.74 150.192 L749.74 131.743 M748.513 127.669 L754.393 127.669 L754.393 150.192 L759.324 150.192 L759.324 154.081 L754.393 154.081 L754.393 162.229 L749.74 162.229 L749.74 154.081 L734.139 154.081 L734.139 149.567 L748.513 127.669 Z" fill="#000000" fill-rule="nonzero" fill-opacity="1" /><path clip-path="url(#clip850)" d="M779.902 131.743 L768.097 150.192 L779.902 150.192 L779.902 131.743 M778.675 127.669 L784.555 127.669 L784.555 150.192 L789.485 150.192 L789.485 154.081 L784.555 154.081 L784.555 162.229 L779.902 162.229 L779.902 154.081 L764.3 154.081 L764.3 149.567 L778.675 127.669 Z" fill="#000000" fill-rule="nonzero" fill-opacity="1" /><path clip-path="url(#clip850)" d="M811.383 143.594 Q814.74 144.312 816.615 146.581 Q818.513 148.849 818.513 152.182 Q818.513 157.298 814.995 160.099 Q811.476 162.9 804.995 162.9 Q802.819 162.9 800.504 162.46 Q798.212 162.043 795.759 161.187 L795.759 156.673 Q797.703 157.807 800.018 158.386 Q802.333 158.965 804.856 158.965 Q809.254 158.965 811.546 157.229 Q813.86 155.493 813.86 152.182 Q813.86 149.127 811.708 147.414 Q809.578 145.678 805.759 145.678 L801.731 145.678 L801.731 141.835 L805.944 141.835 Q809.393 141.835 811.221 140.469 Q813.05 139.081 813.05 136.488 Q813.05 133.826 811.152 132.414 Q809.277 130.979 805.759 130.979 Q803.837 130.979 801.638 131.395 Q799.439 131.812 796.8 132.692 L796.8 128.525 Q799.462 127.784 801.777 127.414 Q804.115 127.044 806.175 127.044 Q811.499 127.044 814.601 129.474 Q817.703 131.882 817.703 136.002 Q817.703 138.872 816.059 140.863 Q814.416 142.831 811.383 143.594 Z" fill="#000000" fill-rule="nonzero" fill-opacity="1" /><path clip-path="url(#clip850)" d="M831.407 158.293 L847.726 158.293 L847.726 162.229 L825.782 162.229 L825.782 158.293 Q828.444 155.539 833.027 150.909 Q837.633 146.256 838.814 144.914 Q841.059 142.391 841.939 140.655 Q842.842 138.895 842.842 137.206 Q842.842 134.451 840.897 132.715 Q838.976 130.979 835.874 130.979 Q833.675 130.979 831.221 131.743 Q828.791 132.507 826.013 134.057 L826.013 129.335 Q828.837 128.201 831.291 127.622 Q833.744 127.044 835.782 127.044 Q841.152 127.044 844.346 129.729 Q847.541 132.414 847.541 136.905 Q847.541 139.034 846.731 140.956 Q845.943 142.854 843.837 145.446 Q843.258 146.118 840.156 149.335 Q837.055 152.53 831.407 158.293 Z" fill="#000000" fill-rule="nonzero" fill-opacity="1" /><path clip-path="url(#clip850)" d="M856.268 126.257 L859.971 126.257 Q863.443 131.72 865.156 136.951 Q866.892 142.182 866.892 147.344 Q866.892 152.53 865.156 157.784 Q863.443 163.039 859.971 168.479 L856.268 168.479 Q859.346 163.178 860.851 157.946 Q862.379 152.692 862.379 147.344 Q862.379 141.997 860.851 136.789 Q859.346 131.581 856.268 126.257 Z" fill="#000000" fill-rule="nonzero" fill-opacity="1" /><polyline clip-path="url(#clip850)" style="stroke:#e26f46; stroke-linecap:round; stroke-linejoin:round; stroke-width:4; stroke-opacity:1; fill:none" points="246.043,196.789 393.023,196.789 "/>
<path clip-path="url(#clip850)" d="M437.867 193.12 Q439.464 190.249 441.686 188.884 Q443.909 187.518 446.918 187.518 Q450.969 187.518 453.168 190.365 Q455.367 193.189 455.367 198.421 L455.367 214.069 L451.084 214.069 L451.084 198.559 Q451.084 194.833 449.765 193.027 Q448.446 191.222 445.737 191.222 Q442.427 191.222 440.506 193.421 Q438.585 195.62 438.585 199.416 L438.585 214.069 L434.302 214.069 L434.302 198.559 Q434.302 194.809 432.983 193.027 Q431.663 191.222 428.909 191.222 Q425.645 191.222 423.724 193.444 Q421.802 195.643 421.802 199.416 L421.802 214.069 L417.52 214.069 L417.52 188.143 L421.802 188.143 L421.802 192.171 Q423.261 189.786 425.298 188.652 Q427.335 187.518 430.136 187.518 Q432.96 187.518 434.927 188.953 Q436.918 190.388 437.867 193.12 Z" fill="#000000" fill-rule="nonzero" fill-opacity="1" /><path clip-path="url(#clip850)" d="M475.645 201.036 Q470.483 201.036 468.492 202.217 Q466.501 203.397 466.501 206.245 Q466.501 208.513 467.983 209.856 Q469.487 211.175 472.057 211.175 Q475.598 211.175 477.728 208.675 Q479.881 206.152 479.881 201.985 L479.881 201.036 L475.645 201.036 M484.14 199.277 L484.14 214.069 L479.881 214.069 L479.881 210.133 Q478.422 212.495 476.246 213.629 Q474.07 214.74 470.922 214.74 Q466.941 214.74 464.58 212.518 Q462.242 210.272 462.242 206.522 Q462.242 202.147 465.158 199.925 Q468.098 197.703 473.908 197.703 L479.881 197.703 L479.881 197.286 Q479.881 194.347 477.936 192.749 Q476.015 191.129 472.52 191.129 Q470.297 191.129 468.191 191.661 Q466.084 192.194 464.14 193.259 L464.14 189.323 Q466.478 188.421 468.677 187.981 Q470.876 187.518 472.959 187.518 Q478.584 187.518 481.362 190.434 Q484.14 193.351 484.14 199.277 Z" fill="#000000" fill-rule="nonzero" fill-opacity="1" /><path clip-path="url(#clip850)" d="M509.441 188.907 L509.441 192.934 Q507.635 192.009 505.691 191.546 Q503.746 191.083 501.663 191.083 Q498.492 191.083 496.894 192.055 Q495.32 193.027 495.32 194.971 Q495.32 196.453 496.455 197.309 Q497.589 198.143 501.015 198.907 L502.473 199.231 Q507.01 200.203 508.908 201.985 Q510.83 203.745 510.83 206.916 Q510.83 210.527 507.959 212.633 Q505.112 214.74 500.112 214.74 Q498.029 214.74 495.76 214.323 Q493.515 213.93 491.015 213.12 L491.015 208.721 Q493.376 209.948 495.668 210.573 Q497.959 211.175 500.205 211.175 Q503.214 211.175 504.834 210.157 Q506.455 209.115 506.455 207.24 Q506.455 205.504 505.274 204.578 Q504.117 203.652 500.158 202.796 L498.677 202.448 Q494.719 201.615 492.959 199.902 Q491.2 198.166 491.2 195.157 Q491.2 191.499 493.793 189.509 Q496.385 187.518 501.154 187.518 Q503.515 187.518 505.598 187.865 Q507.681 188.212 509.441 188.907 Z" fill="#000000" fill-rule="nonzero" fill-opacity="1" /><path clip-path="url(#clip850)" d="M534.14 188.907 L534.14 192.934 Q532.334 192.009 530.39 191.546 Q528.445 191.083 526.362 191.083 Q523.191 191.083 521.593 192.055 Q520.019 193.027 520.019 194.971 Q520.019 196.453 521.154 197.309 Q522.288 198.143 525.714 198.907 L527.172 199.231 Q531.709 200.203 533.607 201.985 Q535.528 203.745 535.528 206.916 Q535.528 210.527 532.658 212.633 Q529.811 214.74 524.811 214.74 Q522.728 214.74 520.459 214.323 Q518.214 213.93 515.714 213.12 L515.714 208.721 Q518.075 209.948 520.367 210.573 Q522.658 211.175 524.904 211.175 Q527.913 211.175 529.533 210.157 Q531.154 209.115 531.154 207.24 Q531.154 205.504 529.973 204.578 Q528.816 203.652 524.857 202.796 L523.376 202.448 Q519.417 201.615 517.658 199.902 Q515.899 198.166 515.899 195.157 Q515.899 191.499 518.492 189.509 Q521.084 187.518 525.853 187.518 Q528.214 187.518 530.297 187.865 Q532.38 188.212 534.14 188.907 Z" fill="#000000" fill-rule="nonzero" fill-opacity="1" /><path clip-path="url(#clip850)" d="M542.913 208.189 L547.797 208.189 L547.797 214.069 L542.913 214.069 L542.913 208.189 Z" fill="#000000" fill-rule="nonzero" fill-opacity="1" /><path clip-path="url(#clip850)" d="M554.325 188.143 L558.839 188.143 L566.94 209.902 L575.042 188.143 L579.556 188.143 L569.834 214.069 L564.047 214.069 L554.325 188.143 Z" fill="#000000" fill-rule="nonzero" fill-opacity="1" /><path clip-path="url(#clip850)" d="M610.736 178.097 Q607.635 183.421 606.13 188.629 Q604.625 193.837 604.625 199.184 Q604.625 204.532 606.13 209.786 Q607.658 215.018 610.736 220.319 L607.033 220.319 Q603.561 214.879 601.824 209.624 Q600.111 204.37 600.111 199.184 Q600.111 194.022 601.824 188.791 Q603.537 183.56 607.033 178.097 L610.736 178.097 Z" fill="#000000" fill-rule="nonzero" fill-opacity="1" /><path clip-path="url(#clip850)" d="M633.769 195.434 Q637.125 196.152 639 198.421 Q640.898 200.689 640.898 204.022 Q640.898 209.138 637.38 211.939 Q633.861 214.74 627.38 214.74 Q625.204 214.74 622.889 214.3 Q620.597 213.883 618.144 213.027 L618.144 208.513 Q620.088 209.647 622.403 210.226 Q624.718 210.805 627.241 210.805 Q631.639 210.805 633.931 209.069 Q636.246 207.333 636.246 204.022 Q636.246 200.967 634.093 199.254 Q631.963 197.518 628.144 197.518 L624.116 197.518 L624.116 193.675 L628.329 193.675 Q631.778 193.675 633.607 192.309 Q635.435 190.921 635.435 188.328 Q635.435 185.666 633.537 184.254 Q631.662 182.819 628.144 182.819 Q626.222 182.819 624.023 183.235 Q621.824 183.652 619.185 184.532 L619.185 180.365 Q621.847 179.624 624.162 179.254 Q626.5 178.884 628.56 178.884 Q633.884 178.884 636.986 181.314 Q640.088 183.722 640.088 187.842 Q640.088 190.712 638.445 192.703 Q636.801 194.671 633.769 195.434 Z" fill="#000000" fill-rule="nonzero" fill-opacity="1" /><path clip-path="url(#clip850)" d="M663.931 195.434 Q667.287 196.152 669.162 198.421 Q671.06 200.689 671.06 204.022 Q671.06 209.138 667.542 211.939 Q664.023 214.74 657.542 214.74 Q655.366 214.74 653.051 214.3 Q650.759 213.883 648.306 213.027 L648.306 208.513 Q650.25 209.647 652.565 210.226 Q654.88 210.805 657.403 210.805 Q661.801 210.805 664.093 209.069 Q666.407 207.333 666.407 204.022 Q666.407 200.967 664.255 199.254 Q662.125 197.518 658.306 197.518 L654.278 197.518 L654.278 193.675 L658.491 193.675 Q661.94 193.675 663.769 192.309 Q665.597 190.921 665.597 188.328 Q665.597 185.666 663.699 184.254 Q661.824 182.819 658.306 182.819 Q656.384 182.819 654.185 183.235 Q651.986 183.652 649.347 184.532 L649.347 180.365 Q652.009 179.624 654.324 179.254 Q656.662 178.884 658.722 178.884 Q664.046 178.884 667.148 181.314 Q670.25 183.722 670.25 187.842 Q670.25 190.712 668.606 192.703 Q666.963 194.671 663.931 195.434 Z" fill="#000000" fill-rule="nonzero" fill-opacity="1" /><path clip-path="url(#clip850)" d="M679.972 179.509 L698.329 179.509 L698.329 183.444 L684.255 183.444 L684.255 191.916 Q685.273 191.569 686.292 191.407 Q687.31 191.222 688.329 191.222 Q694.116 191.222 697.495 194.393 Q700.875 197.564 700.875 202.981 Q700.875 208.559 697.403 211.661 Q693.93 214.74 687.611 214.74 Q685.435 214.74 683.167 214.37 Q680.921 213.999 678.514 213.258 L678.514 208.559 Q680.597 209.694 682.819 210.249 Q685.042 210.805 687.518 210.805 Q691.523 210.805 693.861 208.698 Q696.199 206.592 696.199 202.981 Q696.199 199.37 693.861 197.263 Q691.523 195.157 687.518 195.157 Q685.643 195.157 683.768 195.573 Q681.917 195.99 679.972 196.87 L679.972 179.509 Z" fill="#000000" fill-rule="nonzero" fill-opacity="1" /><path clip-path="url(#clip850)" d="M710.134 179.509 L728.49 179.509 L728.49 183.444 L714.416 183.444 L714.416 191.916 Q715.435 191.569 716.453 191.407 Q717.472 191.222 718.49 191.222 Q724.277 191.222 727.657 194.393 Q731.037 197.564 731.037 202.981 Q731.037 208.559 727.564 211.661 Q724.092 214.74 717.773 214.74 Q715.597 214.74 713.328 214.37 Q711.083 213.999 708.676 213.258 L708.676 208.559 Q710.759 209.694 712.981 210.249 Q715.203 210.805 717.68 210.805 Q721.685 210.805 724.023 208.698 Q726.361 206.592 726.361 202.981 Q726.361 199.37 724.023 197.263 Q721.685 195.157 717.68 195.157 Q715.805 195.157 713.93 195.573 Q712.078 195.99 710.134 196.87 L710.134 179.509 Z" fill="#000000" fill-rule="nonzero" fill-opacity="1" /><path clip-path="url(#clip850)" d="M753.097 183.583 L741.291 202.032 L753.097 202.032 L753.097 183.583 M751.87 179.509 L757.75 179.509 L757.75 202.032 L762.68 202.032 L762.68 205.921 L757.75 205.921 L757.75 214.069 L753.097 214.069 L753.097 205.921 L737.495 205.921 L737.495 201.407 L751.87 179.509 Z" fill="#000000" fill-rule="nonzero" fill-opacity="1" /><path clip-path="url(#clip850)" d="M783.259 183.583 L771.453 202.032 L783.259 202.032 L783.259 183.583 M782.032 179.509 L787.911 179.509 L787.911 202.032 L792.842 202.032 L792.842 205.921 L787.911 205.921 L787.911 214.069 L783.259 214.069 L783.259 205.921 L767.657 205.921 L767.657 201.407 L782.032 179.509 Z" fill="#000000" fill-rule="nonzero" fill-opacity="1" /><path clip-path="url(#clip850)" d="M814.74 195.434 Q818.096 196.152 819.971 198.421 Q821.87 200.689 821.87 204.022 Q821.87 209.138 818.351 211.939 Q814.833 214.74 808.351 214.74 Q806.175 214.74 803.86 214.3 Q801.569 213.883 799.115 213.027 L799.115 208.513 Q801.059 209.647 803.374 210.226 Q805.689 210.805 808.212 210.805 Q812.61 210.805 814.902 209.069 Q817.217 207.333 817.217 204.022 Q817.217 200.967 815.064 199.254 Q812.934 197.518 809.115 197.518 L805.087 197.518 L805.087 193.675 L809.3 193.675 Q812.749 193.675 814.578 192.309 Q816.407 190.921 816.407 188.328 Q816.407 185.666 814.508 184.254 Q812.633 182.819 809.115 182.819 Q807.194 182.819 804.995 183.235 Q802.796 183.652 800.157 184.532 L800.157 180.365 Q802.819 179.624 805.134 179.254 Q807.471 178.884 809.532 178.884 Q814.856 178.884 817.958 181.314 Q821.059 183.722 821.059 187.842 Q821.059 190.712 819.416 192.703 Q817.772 194.671 814.74 195.434 Z" fill="#000000" fill-rule="nonzero" fill-opacity="1" /><path clip-path="url(#clip850)" d="M844.902 195.434 Q848.258 196.152 850.133 198.421 Q852.031 200.689 852.031 204.022 Q852.031 209.138 848.513 211.939 Q844.994 214.74 838.513 214.74 Q836.337 214.74 834.022 214.3 Q831.731 213.883 829.277 213.027 L829.277 208.513 Q831.221 209.647 833.536 210.226 Q835.851 210.805 838.374 210.805 Q842.772 210.805 845.064 209.069 Q847.379 207.333 847.379 204.022 Q847.379 200.967 845.226 199.254 Q843.096 197.518 839.277 197.518 L835.249 197.518 L835.249 193.675 L839.462 193.675 Q842.911 193.675 844.74 192.309 Q846.568 190.921 846.568 188.328 Q846.568 185.666 844.67 184.254 Q842.795 182.819 839.277 182.819 Q837.356 182.819 835.157 183.235 Q832.957 183.652 830.319 184.532 L830.319 180.365 Q832.981 179.624 835.295 179.254 Q837.633 178.884 839.694 178.884 Q845.018 178.884 848.119 181.314 Q851.221 183.722 851.221 187.842 Q851.221 190.712 849.578 192.703 Q847.934 194.671 844.902 195.434 Z" fill="#000000" fill-rule="nonzero" fill-opacity="1" /><path clip-path="url(#clip850)" d="M859.624 178.097 L863.328 178.097 Q866.8 183.56 868.513 188.791 Q870.249 194.022 870.249 199.184 Q870.249 204.37 868.513 209.624 Q866.8 214.879 863.328 220.319 L859.624 220.319 Q862.703 215.018 864.207 209.786 Q865.735 204.532 865.735 199.184 Q865.735 193.837 864.207 188.629 Q862.703 183.421 859.624 178.097 Z" fill="#000000" fill-rule="nonzero" fill-opacity="1" /></svg>
