<?xml version="1.0" encoding="utf-8"?>
<svg xmlns="http://www.w3.org/2000/svg" xmlns:xlink="http://www.w3.org/1999/xlink" width="600" height="400" viewBox="0 0 2400 1600">
<defs>
  <clipPath id="clip930">
    <rect x="0" y="0" width="2400" height="1600"/>
  </clipPath>
</defs>
<path clip-path="url(#clip930)" d="
M0 1600 L2400 1600 L2400 0 L0 0  Z
  " fill="#ffffff" fill-rule="evenodd" fill-opacity="1"/>
<defs>
  <clipPath id="clip931">
    <rect x="480" y="0" width="1681" height="1600"/>
  </clipPath>
</defs>
<path clip-path="url(#clip930)" d="
M147.478 1423.18 L2352.76 1423.18 L2352.76 47.2441 L147.478 47.2441  Z
  " fill="#ffffff" fill-rule="evenodd" fill-opacity="1"/>
<defs>
  <clipPath id="clip932">
    <rect x="147" y="47" width="2206" height="1377"/>
  </clipPath>
</defs>
<polyline clip-path="url(#clip932)" style="stroke:#000000; stroke-linecap:butt; stroke-linejoin:round; stroke-width:2; stroke-opacity:0.1; fill:none" points="
  209.891,1423.18 209.891,47.2441 
  "/>
<polyline clip-path="url(#clip932)" style="stroke:#000000; stroke-linecap:butt; stroke-linejoin:round; stroke-width:2; stroke-opacity:0.1; fill:none" points="
  625.982,1423.18 625.982,47.2441 
  "/>
<polyline clip-path="url(#clip932)" style="stroke:#000000; stroke-linecap:butt; stroke-linejoin:round; stroke-width:2; stroke-opacity:0.1; fill:none" points="
  1042.07,1423.18 1042.07,47.2441 
  "/>
<polyline clip-path="url(#clip932)" style="stroke:#000000; stroke-linecap:butt; stroke-linejoin:round; stroke-width:2; stroke-opacity:0.1; fill:none" points="
  1458.16,1423.18 1458.16,47.2441 
  "/>
<polyline clip-path="url(#clip932)" style="stroke:#000000; stroke-linecap:butt; stroke-linejoin:round; stroke-width:2; stroke-opacity:0.1; fill:none" points="
  1874.25,1423.18 1874.25,47.2441 
  "/>
<polyline clip-path="url(#clip932)" style="stroke:#000000; stroke-linecap:butt; stroke-linejoin:round; stroke-width:2; stroke-opacity:0.1; fill:none" points="
  2290.34,1423.18 2290.34,47.2441 
  "/>
<polyline clip-path="url(#clip930)" style="stroke:#000000; stroke-linecap:butt; stroke-linejoin:round; stroke-width:4; stroke-opacity:1; fill:none" points="
  147.478,1423.18 2352.76,1423.18 
  "/>
<polyline clip-path="url(#clip930)" style="stroke:#000000; stroke-linecap:butt; stroke-linejoin:round; stroke-width:4; stroke-opacity:1; fill:none" points="
  209.891,1423.18 209.891,1406.67 
  "/>
<polyline clip-path="url(#clip930)" style="stroke:#000000; stroke-linecap:butt; stroke-linejoin:round; stroke-width:4; stroke-opacity:1; fill:none" points="
  625.982,1423.18 625.982,1406.67 
  "/>
<polyline clip-path="url(#clip930)" style="stroke:#000000; stroke-linecap:butt; stroke-linejoin:round; stroke-width:4; stroke-opacity:1; fill:none" points="
  1042.07,1423.18 1042.07,1406.67 
  "/>
<polyline clip-path="url(#clip930)" style="stroke:#000000; stroke-linecap:butt; stroke-linejoin:round; stroke-width:4; stroke-opacity:1; fill:none" points="
  1458.16,1423.18 1458.16,1406.67 
  "/>
<polyline clip-path="url(#clip930)" style="stroke:#000000; stroke-linecap:butt; stroke-linejoin:round; stroke-width:4; stroke-opacity:1; fill:none" points="
  1874.25,1423.18 1874.25,1406.67 
  "/>
<polyline clip-path="url(#clip930)" style="stroke:#000000; stroke-linecap:butt; stroke-linejoin:round; stroke-width:4; stroke-opacity:1; fill:none" points="
  2290.34,1423.18 2290.34,1406.67 
  "/>
<path clip-path="url(#clip930)" d="M209.891 1452.37 Q206.28 1452.37 204.452 1455.94 Q202.646 1459.48 202.646 1466.61 Q202.646 1473.71 204.452 1477.28 Q206.28 1480.82 209.891 1480.82 Q213.526 1480.82 215.331 1477.28 Q217.16 1473.71 217.16 1466.61 Q217.16 1459.48 215.331 1455.94 Q213.526 1452.37 209.891 1452.37 M209.891 1448.67 Q215.702 1448.67 218.757 1453.27 Q221.836 1457.86 221.836 1466.61 Q221.836 1475.33 218.757 1479.94 Q215.702 1484.52 209.891 1484.52 Q204.081 1484.52 201.003 1479.94 Q197.947 1475.33 197.947 1466.61 Q197.947 1457.86 201.003 1453.27 Q204.081 1448.67 209.891 1448.67 Z" fill="#000000" fill-rule="evenodd" fill-opacity="1" /><path clip-path="url(#clip930)" d="M616.364 1479.92 L624.002 1479.92 L624.002 1453.55 L615.692 1455.22 L615.692 1450.96 L623.956 1449.29 L628.632 1449.29 L628.632 1479.92 L636.271 1479.92 L636.271 1483.85 L616.364 1483.85 L616.364 1479.92 Z" fill="#000000" fill-rule="evenodd" fill-opacity="1" /><path clip-path="url(#clip930)" d="M1036.72 1479.92 L1053.04 1479.92 L1053.04 1483.85 L1031.1 1483.85 L1031.1 1479.92 Q1033.76 1477.16 1038.34 1472.53 Q1042.95 1467.88 1044.13 1466.54 Q1046.38 1464.01 1047.26 1462.28 Q1048.16 1460.52 1048.16 1458.83 Q1048.16 1456.07 1046.22 1454.34 Q1044.29 1452.6 1041.19 1452.6 Q1038.99 1452.6 1036.54 1453.37 Q1034.11 1454.13 1031.33 1455.68 L1031.33 1450.96 Q1034.16 1449.82 1036.61 1449.25 Q1039.06 1448.67 1041.1 1448.67 Q1046.47 1448.67 1049.66 1451.35 Q1052.86 1454.04 1052.86 1458.53 Q1052.86 1460.66 1052.05 1462.58 Q1051.26 1464.48 1049.16 1467.07 Q1048.58 1467.74 1045.47 1470.96 Q1042.37 1474.15 1036.72 1479.92 Z" fill="#000000" fill-rule="evenodd" fill-opacity="1" /><path clip-path="url(#clip930)" d="M1462.41 1465.22 Q1465.77 1465.94 1467.64 1468.2 Q1469.54 1470.47 1469.54 1473.81 Q1469.54 1478.92 1466.02 1481.72 Q1462.5 1484.52 1456.02 1484.52 Q1453.84 1484.52 1451.53 1484.08 Q1449.24 1483.67 1446.78 1482.81 L1446.78 1478.3 Q1448.73 1479.43 1451.04 1480.01 Q1453.36 1480.59 1455.88 1480.59 Q1460.28 1480.59 1462.57 1478.85 Q1464.89 1477.12 1464.89 1473.81 Q1464.89 1470.75 1462.73 1469.04 Q1460.6 1467.3 1456.78 1467.3 L1452.76 1467.3 L1452.76 1463.46 L1456.97 1463.46 Q1460.42 1463.46 1462.25 1462.09 Q1464.08 1460.7 1464.08 1458.11 Q1464.08 1455.45 1462.18 1454.04 Q1460.3 1452.6 1456.78 1452.6 Q1454.86 1452.6 1452.66 1453.02 Q1450.47 1453.44 1447.83 1454.31 L1447.83 1450.15 Q1450.49 1449.41 1452.8 1449.04 Q1455.14 1448.67 1457.2 1448.67 Q1462.53 1448.67 1465.63 1451.1 Q1468.73 1453.5 1468.73 1457.63 Q1468.73 1460.5 1467.09 1462.49 Q1465.44 1464.45 1462.41 1465.22 Z" fill="#000000" fill-rule="evenodd" fill-opacity="1" /><path clip-path="url(#clip930)" d="M1877.26 1453.37 L1865.46 1471.81 L1877.26 1471.81 L1877.26 1453.37 M1876.03 1449.29 L1881.91 1449.29 L1881.91 1471.81 L1886.84 1471.81 L1886.84 1475.7 L1881.91 1475.7 L1881.91 1483.85 L1877.26 1483.85 L1877.26 1475.7 L1861.66 1475.7 L1861.66 1471.19 L1876.03 1449.29 Z" fill="#000000" fill-rule="evenodd" fill-opacity="1" /><path clip-path="url(#clip930)" d="M2280.62 1449.29 L2298.98 1449.29 L2298.98 1453.23 L2284.9 1453.23 L2284.9 1461.7 Q2285.92 1461.35 2286.94 1461.19 Q2287.96 1461 2288.98 1461 Q2294.76 1461 2298.14 1464.18 Q2301.52 1467.35 2301.52 1472.76 Q2301.52 1478.34 2298.05 1481.44 Q2294.58 1484.52 2288.26 1484.52 Q2286.08 1484.52 2283.81 1484.15 Q2281.57 1483.78 2279.16 1483.04 L2279.16 1478.34 Q2281.25 1479.48 2283.47 1480.03 Q2285.69 1480.59 2288.17 1480.59 Q2292.17 1480.59 2294.51 1478.48 Q2296.85 1476.38 2296.85 1472.76 Q2296.85 1469.15 2294.51 1467.05 Q2292.17 1464.94 2288.17 1464.94 Q2286.29 1464.94 2284.42 1465.36 Q2282.56 1465.77 2280.62 1466.65 L2280.62 1449.29 Z" fill="#000000" fill-rule="evenodd" fill-opacity="1" /><path clip-path="url(#clip930)" d="M1198.43 1522.27 L1198.43 1532.4 L1210.49 1532.4 L1210.49 1536.95 L1198.43 1536.95 L1198.43 1556.3 Q1198.43 1560.66 1199.61 1561.9 Q1200.81 1563.14 1204.47 1563.14 L1210.49 1563.14 L1210.49 1568.04 L1204.47 1568.04 Q1197.7 1568.04 1195.12 1565.53 Q1192.54 1562.98 1192.54 1556.3 L1192.54 1536.95 L1188.24 1536.95 L1188.24 1532.4 L1192.54 1532.4 L1192.54 1522.27 L1198.43 1522.27 Z" fill="#000000" fill-rule="evenodd" fill-opacity="1" /><path clip-path="url(#clip930)" d="M1238.37 1518.52 L1251.87 1518.52 L1251.87 1523.07 L1244.23 1523.07 L1244.23 1572.09 L1251.87 1572.09 L1251.87 1576.64 L1238.37 1576.64 L1238.37 1518.52 Z" fill="#000000" fill-rule="evenodd" fill-opacity="1" /><path clip-path="url(#clip930)" d="M1287.07 1533.45 L1287.07 1538.98 Q1284.59 1537.71 1281.91 1537.07 Q1279.24 1536.44 1276.38 1536.44 Q1272.01 1536.44 1269.82 1537.77 Q1267.65 1539.11 1267.65 1541.79 Q1267.65 1543.82 1269.21 1545 Q1270.77 1546.15 1275.48 1547.2 L1277.49 1547.64 Q1283.73 1548.98 1286.34 1551.43 Q1288.98 1553.85 1288.98 1558.21 Q1288.98 1563.17 1285.03 1566.07 Q1281.12 1568.97 1274.24 1568.97 Q1271.38 1568.97 1268.26 1568.39 Q1265.17 1567.85 1261.73 1566.74 L1261.73 1560.69 Q1264.98 1562.38 1268.13 1563.24 Q1271.28 1564.07 1274.37 1564.07 Q1278.51 1564.07 1280.74 1562.66 Q1282.96 1561.23 1282.96 1558.65 Q1282.96 1556.27 1281.34 1554.99 Q1279.75 1553.72 1274.31 1552.54 L1272.27 1552.07 Q1266.83 1550.92 1264.41 1548.56 Q1261.99 1546.18 1261.99 1542.04 Q1261.99 1537.01 1265.55 1534.27 Q1269.12 1531.54 1275.68 1531.54 Q1278.92 1531.54 1281.79 1532.01 Q1284.65 1532.49 1287.07 1533.45 Z" fill="#000000" fill-rule="evenodd" fill-opacity="1" /><path clip-path="url(#clip930)" d="M1311.99 1518.52 L1311.99 1576.64 L1298.5 1576.64 L1298.5 1572.09 L1306.1 1572.09 L1306.1 1523.07 L1298.5 1523.07 L1298.5 1518.52 L1311.99 1518.52 Z" fill="#000000" fill-rule="evenodd" fill-opacity="1" /><polyline clip-path="url(#clip932)" style="stroke:#000000; stroke-linecap:butt; stroke-linejoin:round; stroke-width:2; stroke-opacity:0.1; fill:none" points="
  147.478,1383.72 2352.76,1383.72 
  "/>
<polyline clip-path="url(#clip932)" style="stroke:#000000; stroke-linecap:butt; stroke-linejoin:round; stroke-width:2; stroke-opacity:0.1; fill:none" points="
  147.478,1059.5 2352.76,1059.5 
  "/>
<polyline clip-path="url(#clip932)" style="stroke:#000000; stroke-linecap:butt; stroke-linejoin:round; stroke-width:2; stroke-opacity:0.1; fill:none" points="
  147.478,735.273 2352.76,735.273 
  "/>
<polyline clip-path="url(#clip932)" style="stroke:#000000; stroke-linecap:butt; stroke-linejoin:round; stroke-width:2; stroke-opacity:0.1; fill:none" points="
  147.478,411.05 2352.76,411.05 
  "/>
<polyline clip-path="url(#clip932)" style="stroke:#000000; stroke-linecap:butt; stroke-linejoin:round; stroke-width:2; stroke-opacity:0.1; fill:none" points="
  147.478,86.8263 2352.76,86.8263 
  "/>
<polyline clip-path="url(#clip930)" style="stroke:#000000; stroke-linecap:butt; stroke-linejoin:round; stroke-width:4; stroke-opacity:1; fill:none" points="
  147.478,1423.18 147.478,47.2441 
  "/>
<polyline clip-path="url(#clip930)" style="stroke:#000000; stroke-linecap:butt; stroke-linejoin:round; stroke-width:4; stroke-opacity:1; fill:none" points="
  147.478,1383.72 173.941,1383.72 
  "/>
<polyline clip-path="url(#clip930)" style="stroke:#000000; stroke-linecap:butt; stroke-linejoin:round; stroke-width:4; stroke-opacity:1; fill:none" points="
  147.478,1059.5 173.941,1059.5 
  "/>
<polyline clip-path="url(#clip930)" style="stroke:#000000; stroke-linecap:butt; stroke-linejoin:round; stroke-width:4; stroke-opacity:1; fill:none" points="
  147.478,735.273 173.941,735.273 
  "/>
<polyline clip-path="url(#clip930)" style="stroke:#000000; stroke-linecap:butt; stroke-linejoin:round; stroke-width:4; stroke-opacity:1; fill:none" points="
  147.478,411.05 173.941,411.05 
  "/>
<polyline clip-path="url(#clip930)" style="stroke:#000000; stroke-linecap:butt; stroke-linejoin:round; stroke-width:4; stroke-opacity:1; fill:none" points="
  147.478,86.8263 173.941,86.8263 
  "/>
<path clip-path="url(#clip930)" d="M51.3625 1384.17 L81.0383 1384.17 L81.0383 1388.11 L51.3625 1388.11 L51.3625 1384.17 Z" fill="#000000" fill-rule="evenodd" fill-opacity="1" /><path clip-path="url(#clip930)" d="M95.1586 1397.06 L111.478 1397.06 L111.478 1401 L89.5336 1401 L89.5336 1397.06 Q92.1956 1394.31 96.7789 1389.68 Q101.385 1385.03 102.566 1383.68 Q104.811 1381.16 105.691 1379.43 Q106.594 1377.67 106.594 1375.98 Q106.594 1373.22 104.649 1371.49 Q102.728 1369.75 99.6261 1369.75 Q97.4271 1369.75 94.9734 1370.51 Q92.5428 1371.28 89.7651 1372.83 L89.7651 1368.11 Q92.5891 1366.97 95.0428 1366.39 Q97.4965 1365.81 99.5335 1365.81 Q104.904 1365.81 108.098 1368.5 Q111.293 1371.18 111.293 1375.68 Q111.293 1377.8 110.483 1379.73 Q109.696 1381.62 107.589 1384.22 Q107.01 1384.89 103.909 1388.11 Q100.807 1391.3 95.1586 1397.06 Z" fill="#000000" fill-rule="evenodd" fill-opacity="1" /><path clip-path="url(#clip930)" d="M50.9921 1059.95 L80.6679 1059.95 L80.6679 1063.88 L50.9921 1063.88 L50.9921 1059.95 Z" fill="#000000" fill-rule="evenodd" fill-opacity="1" /><path clip-path="url(#clip930)" d="M91.5706 1072.84 L99.2095 1072.84 L99.2095 1046.48 L90.8993 1048.14 L90.8993 1043.88 L99.1632 1042.22 L103.839 1042.22 L103.839 1072.84 L111.478 1072.84 L111.478 1076.78 L91.5706 1076.78 L91.5706 1072.84 Z" fill="#000000" fill-rule="evenodd" fill-opacity="1" /><path clip-path="url(#clip930)" d="M99.5335 721.071 Q95.9224 721.071 94.0937 724.636 Q92.2882 728.178 92.2882 735.307 Q92.2882 742.414 94.0937 745.979 Q95.9224 749.52 99.5335 749.52 Q103.168 749.52 104.973 745.979 Q106.802 742.414 106.802 735.307 Q106.802 728.178 104.973 724.636 Q103.168 721.071 99.5335 721.071 M99.5335 717.368 Q105.344 717.368 108.399 721.974 Q111.478 726.558 111.478 735.307 Q111.478 744.034 108.399 748.641 Q105.344 753.224 99.5335 753.224 Q93.7234 753.224 90.6447 748.641 Q87.5892 744.034 87.5892 735.307 Q87.5892 726.558 90.6447 721.974 Q93.7234 717.368 99.5335 717.368 Z" fill="#000000" fill-rule="evenodd" fill-opacity="1" /><path clip-path="url(#clip930)" d="M91.5706 424.394 L99.2095 424.394 L99.2095 398.029 L90.8993 399.695 L90.8993 395.436 L99.1632 393.77 L103.839 393.77 L103.839 424.394 L111.478 424.394 L111.478 428.33 L91.5706 428.33 L91.5706 424.394 Z" fill="#000000" fill-rule="evenodd" fill-opacity="1" /><path clip-path="url(#clip930)" d="M95.1586 100.171 L111.478 100.171 L111.478 104.106 L89.5336 104.106 L89.5336 100.171 Q92.1956 97.4165 96.7789 92.7869 Q101.385 88.1342 102.566 86.7916 Q104.811 84.2685 105.691 82.5324 Q106.594 80.7731 106.594 79.0833 Q106.594 76.3287 104.649 74.5926 Q102.728 72.8565 99.6261 72.8565 Q97.4271 72.8565 94.9734 73.6204 Q92.5428 74.3843 89.7651 75.9352 L89.7651 71.213 Q92.5891 70.0787 95.0428 69.5 Q97.4965 68.9213 99.5335 68.9213 Q104.904 68.9213 108.098 71.6065 Q111.293 74.2917 111.293 78.7824 Q111.293 80.912 110.483 82.8333 Q109.696 84.7314 107.589 87.324 Q107.01 87.9953 103.909 91.2129 Q100.807 94.4073 95.1586 100.171 Z" fill="#000000" fill-rule="evenodd" fill-opacity="1" /><polyline clip-path="url(#clip932)" style="stroke:#009af9; stroke-linecap:butt; stroke-linejoin:round; stroke-width:4; stroke-opacity:1; fill:none" points="
  209.891,313.783 214.052,313.816 218.213,313.913 222.374,314.075 226.535,314.301 230.696,314.592 234.857,314.947 239.018,315.365 243.179,315.847 247.34,316.392 
  251.5,316.998 255.661,317.666 259.822,318.395 263.983,319.185 268.144,320.034 272.305,320.941 276.466,321.906 280.627,322.928 284.788,324.005 288.949,325.137 
  293.109,326.321 297.27,327.559 301.431,328.847 305.592,330.186 309.753,331.572 313.914,333.006 318.075,334.486 322.236,336.01 326.397,337.577 330.558,339.185 
  334.718,340.832 338.879,342.518 343.04,344.239 347.201,345.995 351.362,347.784 355.523,349.603 359.684,351.451 363.845,353.327 368.006,355.228 372.167,357.152 
  376.328,359.098 380.488,361.063 384.649,363.045 388.81,365.044 392.971,367.056 397.132,369.079 401.293,371.112 405.454,373.153 409.615,375.199 413.776,377.248 
  417.937,379.299 422.097,381.349 426.258,383.396 430.419,385.439 434.58,387.475 438.741,389.502 442.902,391.519 447.063,393.522 451.224,395.511 455.385,397.482 
  459.546,399.435 463.706,401.368 467.867,403.277 472.028,405.162 476.189,407.02 480.35,408.85 484.511,410.65 488.672,412.418 492.833,414.152 496.994,415.85 
  501.155,417.511 505.315,419.133 509.476,420.715 513.637,422.254 517.798,423.75 521.959,425.201 526.12,426.605 530.281,427.961 534.442,429.268 538.603,430.525 
  542.764,431.729 546.924,432.88 551.085,433.977 555.246,435.019 559.407,436.004 563.568,436.932 567.729,437.801 571.89,438.611 576.051,439.361 580.212,440.051 
  584.373,440.679 588.534,441.245 592.694,441.748 596.855,442.188 601.016,442.565 605.177,442.878 609.338,443.126 613.499,443.31 617.66,443.429 621.821,443.483 
  625.982,443.473 630.143,443.398 634.303,443.257 638.464,443.053 642.625,442.783 646.786,442.45 650.947,442.053 655.108,441.592 659.269,441.068 663.43,440.482 
  667.591,439.834 671.752,439.124 675.912,438.355 680.073,437.525 684.234,436.636 688.395,435.69 692.556,434.686 696.717,433.627 700.878,432.512 705.039,431.343 
  709.2,430.122 713.361,428.849 717.521,427.526 721.682,426.154 725.843,424.734 730.004,423.268 734.165,421.758 738.326,420.205 742.487,418.61 746.648,416.974 
  750.809,415.301 754.97,413.59 759.13,411.845 763.291,410.067 767.452,408.257 771.613,406.418 775.774,404.55 779.935,402.657 784.096,400.74 788.257,398.8 
  792.418,396.841 796.579,394.863 800.74,392.868 804.9,390.86 809.061,388.84 813.222,386.809 817.383,384.77 821.544,382.725 825.705,380.675 829.866,378.624 
  834.027,376.573 838.188,374.523 842.349,372.478 846.509,370.439 850.67,368.408 854.831,366.387 858.992,364.379 863.153,362.385 867.314,360.407 871.475,358.447 
  875.636,356.507 879.797,354.59 883.958,352.697 888.118,350.829 892.279,348.99 896.44,347.18 900.601,345.401 904.762,343.656 908.923,341.946 913.084,340.272 
  917.245,338.636 921.406,337.041 925.567,335.487 929.727,333.977 933.888,332.511 938.049,331.091 942.21,329.719 946.371,328.395 950.532,327.122 954.693,325.901 
  958.854,324.732 963.015,323.617 967.176,322.557 971.336,321.553 975.497,320.607 979.658,319.718 983.819,318.888 987.98,318.118 992.141,317.409 996.302,316.76 
  1000.46,316.174 1004.62,315.65 1008.78,315.189 1012.95,314.792 1017.11,314.458 1021.27,314.189 1025.43,313.984 1029.59,313.844 1033.75,313.768 1037.91,313.758 
  1042.07,313.812 1046.23,313.931 1050.39,314.115 1054.55,314.363 1058.72,314.676 1062.88,315.053 1067.04,315.493 1071.2,315.996 1075.36,316.562 1079.52,317.191 
  1083.68,317.88 1087.84,318.631 1092,319.441 1096.16,320.311 1100.32,321.239 1104.49,322.224 1108.65,323.266 1112.81,324.363 1116.97,325.514 1121.13,326.719 
  1125.29,327.975 1129.45,329.283 1133.61,330.639 1137.77,332.044 1141.93,333.495 1146.09,334.991 1150.26,336.531 1154.42,338.113 1158.58,339.736 1162.74,341.398 
  1166.9,343.096 1171.06,344.831 1175.22,346.599 1179.38,348.399 1183.54,350.23 1187.7,352.089 1191.86,353.974 1196.03,355.884 1200.19,357.817 1204.35,359.771 
  1208.51,361.743 1212.67,363.733 1216.83,365.737 1220.99,367.754 1225.15,369.782 1229.31,371.819 1233.47,373.863 1237.63,375.912 1241.8,377.963 1245.96,380.015 
  1250.12,382.066 1254.28,384.113 1258.44,386.155 1262.6,388.189 1266.76,390.213 1270.92,392.226 1275.08,394.226 1279.24,396.21 1283.4,398.176 1287.57,400.123 
  1291.73,402.048 1295.89,403.95 1300.05,405.826 1304.21,407.676 1308.37,409.496 1312.53,411.285 1316.69,413.042 1320.85,414.764 1325.01,416.45 1329.17,418.099 
  1333.33,419.707 1337.5,421.275 1341.66,422.8 1345.82,424.281 1349.98,425.716 1354.14,427.105 1358.3,428.444 1362.46,429.734 1366.62,430.973 1370.78,432.159 
  1374.94,433.292 1379.1,434.37 1383.27,435.392 1387.43,436.358 1391.59,437.266 1395.75,438.115 1399.91,438.905 1404.07,439.634 1408.23,440.302 1412.39,440.909 
  1416.55,441.454 1420.71,441.935 1424.87,442.353 1429.04,442.708 1433.2,442.998 1437.36,443.224 1441.52,443.385 1445.68,443.482 1449.84,443.514 1454,443.481 
  1458.16,443.382 1462.32,443.22 1466.48,442.992 1470.64,442.7 1474.81,442.344 1478.97,441.925 1483.13,441.442 1487.29,440.896 1491.45,440.288 1495.61,439.618 
  1499.77,438.887 1503.93,438.096 1508.09,437.245 1512.25,436.336 1516.41,435.369 1520.58,434.345 1524.74,433.266 1528.9,432.131 1533.06,430.944 1537.22,429.704 
  1541.38,428.413 1545.54,427.072 1549.7,425.682 1553.86,424.246 1558.02,422.764 1562.18,421.237 1566.35,419.668 1570.51,418.058 1574.67,416.409 1578.83,414.722 
  1582.99,412.999 1587.15,411.241 1591.31,409.45 1595.47,407.629 1599.63,405.779 1603.79,403.902 1607.95,401.999 1612.12,400.073 1616.28,398.125 1620.44,396.158 
  1624.6,394.174 1628.76,392.174 1632.92,390.16 1637.08,388.135 1641.24,386.1 1645.4,384.058 1649.56,382.01 1653.72,379.959 1657.89,377.907 1662.05,375.855 
  1666.21,373.806 1670.37,371.762 1674.53,369.725 1678.69,367.696 1682.85,365.679 1687.01,363.674 1691.17,361.685 1695.33,359.712 1699.49,357.759 1703.66,355.826 
  1707.82,353.916 1711.98,352.03 1716.14,350.171 1720.3,348.341 1724.46,346.542 1728.62,344.774 1732.78,343.039 1736.94,341.341 1741.1,339.68 1745.26,338.058 
  1749.43,336.476 1753.59,334.937 1757.75,333.441 1761.91,331.99 1766.07,330.586 1770.23,329.231 1774.39,327.924 1778.55,326.668 1782.71,325.465 1786.87,324.314 
  1791.03,323.218 1795.2,322.177 1799.36,321.193 1803.52,320.266 1807.68,319.397 1811.84,318.588 1816,317.839 1820.16,317.15 1824.32,316.523 1828.48,315.958 
  1832.64,315.456 1836.8,315.017 1840.96,314.642 1845.13,314.331 1849.29,314.084 1853.45,313.901 1857.61,313.783 1861.77,313.731 1865.93,313.743 1870.09,313.82 
  1874.25,313.962 1878.41,314.168 1882.57,314.439 1886.73,314.774 1890.9,315.173 1895.06,315.636 1899.22,316.162 1903.38,316.75 1907.54,317.4 1911.7,318.111 
  1915.86,318.883 1920.02,319.714 1924.18,320.605 1928.34,321.553 1932.5,322.559 1936.67,323.62 1940.83,324.737 1944.99,325.908 1949.15,327.131 1953.31,328.406 
  1957.47,329.731 1961.63,331.105 1965.79,332.527 1969.95,333.995 1974.11,335.507 1978.27,337.063 1982.44,338.66 1986.6,340.297 1990.76,341.972 1994.92,343.684 
  1999.08,345.431 2003.24,347.212 2007.4,349.023 2011.56,350.865 2015.72,352.734 2019.88,354.629 2024.04,356.548 2028.21,358.489 2032.37,360.45 2036.53,362.43 
  2040.69,364.426 2044.85,366.436 2049.01,368.458 2053.17,370.49 2057.33,372.53 2061.49,374.577 2065.65,376.628 2069.81,378.68 2073.98,380.733 2078.14,382.783 
  2082.3,384.829 2086.46,386.87 2090.62,388.902 2094.78,390.923 2098.94,392.933 2103.1,394.928 2107.26,396.906 2111.42,398.867 2115.58,400.807 2119.75,402.725 
  2123.91,404.619 2128.07,406.487 2132.23,408.327 2136.39,410.137 2140.55,411.916 2144.71,413.662 2148.87,415.373 2153.03,417.046 2157.19,418.682 2161.35,420.277 
  2165.52,421.831 2169.68,423.341 2173.84,424.807 2178,426.226 2182.16,427.598 2186.32,428.921 2190.48,430.194 2194.64,431.415 2198.8,432.583 2202.96,433.697 
  2207.12,434.757 2211.29,435.76 2215.45,436.706 2219.61,437.593 2223.77,438.422 2227.93,439.191 2232.09,439.9 2236.25,440.547 2240.41,441.132 2244.57,441.655 
  2248.73,442.114 2252.89,442.51 2257.06,442.843 2261.22,443.111 2265.38,443.314 2269.54,443.453 2273.7,443.527 2277.86,443.536 2282.02,443.48 2286.18,443.359 
  2290.34,443.174 
  "/>
<polyline clip-path="url(#clip932)" style="stroke:#e26f46; stroke-linecap:butt; stroke-linejoin:round; stroke-width:4; stroke-opacity:1; fill:none" points="
  209.891,735.273 214.052,741.756 218.213,748.231 222.374,754.694 226.535,761.138 230.696,767.557 234.857,773.944 239.018,780.292 243.179,786.595 247.34,792.847 
  251.5,799.041 255.661,805.171 259.822,811.232 263.983,817.216 268.144,823.119 272.305,828.933 276.466,834.655 280.627,840.276 284.788,845.794 288.949,851.201 
  293.109,856.493 297.27,861.665 301.431,866.709 305.592,871.621 309.753,876.398 313.914,881.034 318.075,885.523 322.236,889.862 326.397,894.046 330.558,898.071 
  334.718,901.934 338.879,905.629 343.04,909.154 347.201,912.506 351.362,915.68 355.523,918.673 359.684,921.484 363.845,924.108 368.006,926.543 372.167,928.787 
  376.328,930.838 380.488,932.693 384.649,934.35 388.81,935.809 392.971,937.067 397.132,938.123 401.293,938.976 405.454,939.626 409.615,940.071 413.776,940.312 
  417.937,940.347 422.097,940.177 426.258,939.803 430.419,939.224 434.58,938.441 438.741,937.455 442.902,936.266 447.063,934.877 451.224,933.288 455.385,931.501 
  459.546,929.517 463.706,927.34 467.867,924.97 472.028,922.41 476.189,919.664 480.35,916.733 484.511,913.62 488.672,910.328 492.833,906.862 496.994,903.224 
  501.155,899.418 505.315,895.448 509.476,891.317 513.637,887.03 517.798,882.592 521.959,878.006 526.12,873.278 530.281,868.411 534.442,863.411 538.603,858.282 
  542.764,853.031 546.924,847.662 551.085,842.181 555.246,836.592 559.407,830.902 563.568,825.117 567.729,819.241 571.89,813.282 576.051,807.245 580.212,801.135 
  584.373,794.959 588.534,788.724 592.694,782.435 596.855,776.1 601.016,769.724 605.177,763.312 609.338,756.872 613.499,750.411 617.66,743.935 621.821,737.452 
  625.982,730.964 630.143,724.481 634.303,718.009 638.464,711.554 642.625,705.124 646.786,698.723 650.947,692.359 655.108,686.037 659.269,679.764 663.43,673.548 
  667.591,667.393 671.752,661.306 675.912,655.293 680.073,649.359 684.234,643.512 688.395,637.757 692.556,632.099 696.717,626.545 700.878,621.098 705.039,615.766 
  709.2,610.554 713.361,605.466 717.521,600.509 721.682,595.686 725.843,591.002 730.004,586.463 734.165,582.073 738.326,577.836 742.487,573.757 746.648,569.839 
  750.809,566.086 754.97,562.503 759.13,559.092 763.291,555.859 767.452,552.804 771.613,549.932 775.774,547.245 779.935,544.746 784.096,542.438 788.257,540.323 
  792.418,538.402 796.579,536.679 800.74,535.154 804.9,533.829 809.061,532.707 813.222,531.787 817.383,531.07 821.544,530.557 825.705,530.249 829.866,530.146 
  834.027,530.249 838.188,530.557 842.349,531.069 846.509,531.786 850.67,532.706 854.831,533.829 858.992,535.153 863.153,536.678 867.314,538.401 871.475,540.321 
  875.636,542.436 879.797,544.744 883.958,547.243 888.118,549.93 892.279,552.802 896.44,555.857 900.601,559.091 904.762,562.502 908.923,566.085 913.084,569.838 
  917.245,573.756 921.406,577.836 925.567,582.073 929.727,586.463 933.888,591.002 938.049,595.686 942.21,600.51 946.371,605.468 950.532,610.556 954.693,615.768 
  958.854,621.101 963.015,626.548 967.176,632.103 971.336,637.762 975.497,643.518 979.658,649.365 983.819,655.3 987.98,661.314 992.141,667.402 996.302,673.558 
  1000.46,679.776 1004.62,686.048 1008.78,692.371 1012.95,698.737 1017.11,705.139 1021.27,711.571 1025.43,718.027 1029.59,724.499 1033.75,730.984 1037.91,737.472 
  1042.07,743.959 1046.23,750.436 1050.39,756.898 1054.55,763.338 1058.72,769.751 1062.88,776.13 1067.04,782.468 1071.2,788.758 1075.36,794.994 1079.52,801.171 
  1083.68,807.282 1087.84,813.322 1092,819.283 1096.16,825.159 1100.32,830.946 1104.49,836.638 1108.65,842.228 1112.81,847.711 1116.97,853.082 1121.13,858.335 
  1125.29,863.464 1129.45,868.466 1133.61,873.334 1137.77,878.065 1141.93,882.652 1146.09,887.092 1150.26,891.38 1154.42,895.512 1158.58,899.484 1162.74,903.292 
  1166.9,906.931 1171.06,910.398 1175.22,913.691 1179.38,916.805 1183.54,919.738 1187.7,922.486 1191.86,925.046 1196.03,927.417 1200.19,929.596 1204.35,931.58 
  1208.51,933.368 1212.67,934.958 1216.83,936.348 1220.99,937.537 1225.15,938.523 1229.31,939.307 1233.47,939.886 1237.63,940.261 1241.8,940.43 1245.96,940.394 
  1250.12,940.153 1254.28,939.707 1258.44,939.057 1262.6,938.203 1266.76,937.145 1270.92,935.886 1275.08,934.426 1279.24,932.767 1283.4,930.91 1287.57,928.858 
  1291.73,926.612 1295.89,924.175 1300.05,921.548 1304.21,918.735 1308.37,915.739 1312.53,912.562 1316.69,909.208 1320.85,905.68 1325.01,901.981 1329.17,898.115 
  1333.33,894.087 1337.5,889.9 1341.66,885.558 1345.82,881.065 1349.98,876.427 1354.14,871.647 1358.3,866.732 1362.46,861.685 1366.62,856.511 1370.78,851.215 
  1374.94,845.804 1379.1,840.282 1383.27,834.656 1387.43,828.93 1391.59,823.11 1395.75,817.201 1399.91,811.211 1404.07,805.146 1408.23,799.01 1412.39,792.811 
  1416.55,786.554 1420.71,780.245 1424.87,773.891 1429.04,767.499 1433.2,761.075 1437.36,754.625 1441.52,748.155 1445.68,741.672 1449.84,735.183 1454,728.695 
  1458.16,722.213 1462.32,715.744 1466.48,709.294 1470.64,702.869 1474.81,696.478 1478.97,690.126 1483.13,683.819 1487.29,677.562 1491.45,671.364 1495.61,665.229 
  1499.77,659.164 1503.93,653.177 1508.09,647.271 1512.25,641.452 1516.41,635.728 1520.58,630.102 1524.74,624.583 1528.9,619.175 1533.06,613.882 1537.22,608.71 
  1541.38,603.665 1545.54,598.752 1549.7,593.975 1553.86,589.341 1558.02,584.851 1562.18,580.512 1566.35,576.327 1570.51,572.302 1574.67,568.44 1578.83,564.746 
  1582.99,561.221 1587.15,557.87 1591.31,554.697 1595.47,551.704 1599.63,548.895 1603.79,546.273 1607.95,543.84 1612.12,541.597 1616.28,539.549 1620.44,537.697 
  1624.6,536.042 1628.76,534.587 1632.92,533.332 1637.08,532.279 1641.24,531.429 1645.4,530.784 1649.56,530.343 1653.72,530.106 1657.89,530.075 1662.05,530.249 
  1666.21,530.629 1670.37,531.213 1674.53,532.001 1678.69,532.993 1682.85,534.187 1687.01,535.582 1691.17,537.176 1695.33,538.969 1699.49,540.959 1703.66,543.143 
  1707.82,545.519 1711.98,548.084 1716.14,550.837 1720.3,553.775 1724.46,556.894 1728.62,560.192 1732.78,563.665 1736.94,567.309 1741.1,571.121 1745.26,575.098 
  1749.43,579.235 1753.59,583.528 1757.75,587.973 1761.91,592.565 1766.07,597.3 1770.23,602.172 1774.39,607.179 1778.55,612.313 1782.71,617.571 1786.87,622.946 
  1791.03,628.433 1795.2,634.027 1799.36,639.723 1803.52,645.515 1807.68,651.396 1811.84,657.361 1816,663.404 1820.16,669.518 1824.32,675.7 1828.48,681.94 
  1832.64,688.234 1836.8,694.575 1840.96,700.955 1845.13,707.372 1849.29,713.816 1853.45,720.281 1857.61,726.762 1861.77,733.25 1865.93,739.741 1870.09,746.227 
  1874.25,752.703 1878.41,759.162 1882.57,765.596 1886.73,772 1890.9,778.366 1895.06,784.691 1899.22,790.966 1903.38,797.185 1907.54,803.343 1911.7,809.431 
  1915.86,815.446 1920.02,821.381 1924.18,827.23 1928.34,832.987 1932.5,838.646 1936.67,844.2 1940.83,849.647 1944.99,854.98 1949.15,860.193 1953.31,865.28 
  1957.47,870.238 1961.63,875.06 1965.79,879.743 1969.95,884.281 1974.11,888.671 1978.27,892.907 1982.44,896.984 1986.6,900.9 1990.76,904.651 1994.92,908.233 
  1999.08,911.641 2003.24,914.873 2007.4,917.925 2011.56,920.794 2015.72,923.479 2019.88,925.974 2024.04,928.28 2028.21,930.391 2032.37,932.308 2036.53,934.027 
  2040.69,935.548 2044.85,936.869 2049.01,937.988 2053.17,938.904 2057.33,939.616 2061.49,940.124 2065.65,940.427 2069.81,940.525 2073.98,940.417 2078.14,940.104 
  2082.3,939.587 2086.46,938.865 2090.62,937.939 2094.78,936.811 2098.94,935.48 2103.1,933.95 2107.26,932.221 2111.42,930.295 2115.58,928.174 2119.75,925.86 
  2123.91,923.355 2128.07,920.662 2132.23,917.783 2136.39,914.722 2140.55,911.482 2144.71,908.065 2148.87,904.475 2153.03,900.717 2157.19,896.792 2161.35,892.706 
  2165.52,888.462 2169.68,884.065 2173.84,879.52 2178,874.83 2182.16,870 2186.32,865.035 2190.48,859.941 2194.64,854.722 2198.8,849.384 2202.96,843.932 
  2207.12,838.37 2211.29,832.705 2215.45,826.943 2219.61,821.089 2223.77,815.151 2227.93,809.131 2232.09,803.037 2236.25,796.875 2240.41,790.652 2244.57,784.374 
  2248.73,778.048 2252.89,771.677 2257.06,765.27 2261.22,758.833 2265.38,752.372 2269.54,745.896 2273.7,739.408 2277.86,732.915 2282.02,726.425 2286.18,719.943 
  2290.34,713.478 
  "/>
<polyline clip-path="url(#clip932)" style="stroke:#3da44d; stroke-linecap:butt; stroke-linejoin:round; stroke-width:4; stroke-opacity:1; fill:none" points="
  209.891,1383.72 214.052,1383.39 218.213,1382.41 222.374,1380.8 226.535,1378.53 230.696,1375.62 234.857,1372.08 239.018,1367.89 243.179,1363.07 247.34,1357.63 
  251.5,1351.56 255.661,1344.88 259.822,1337.59 263.983,1329.7 268.144,1321.21 272.305,1312.13 276.466,1302.48 280.627,1292.27 284.788,1281.49 288.949,1270.18 
  293.109,1258.33 297.27,1245.96 301.431,1233.08 305.592,1219.69 309.753,1205.82 313.914,1191.48 318.075,1176.68 322.236,1161.44 326.397,1145.77 330.558,1129.69 
  334.718,1113.22 338.879,1096.37 343.04,1079.15 347.201,1061.59 351.362,1043.71 355.523,1025.51 359.684,1007.03 363.845,988.275 368.006,969.268 372.167,950.026 
  376.328,930.569 380.488,910.918 384.649,891.091 388.81,871.108 392.971,850.989 397.132,830.755 401.293,810.425 405.454,790.02 409.615,769.56 413.776,749.066 
  417.937,728.558 422.097,708.056 426.258,687.582 430.419,667.156 434.58,646.795 438.741,626.523 442.902,606.359 447.063,586.325 451.224,566.44 455.385,546.724 
  459.546,527.193 463.706,507.869 467.867,488.774 472.028,469.926 476.189,451.345 480.35,433.046 484.511,415.048 488.672,397.369 492.833,380.03 496.994,363.047 
  501.155,346.438 505.315,330.216 509.476,314.397 513.637,299 517.798,284.04 521.959,269.533 526.12,255.493 530.281,241.93 534.442,228.86 538.603,216.298 
  542.764,204.254 546.924,192.744 551.085,181.776 555.246,171.36 559.407,161.508 563.568,152.23 567.729,143.535 571.89,135.434 576.051,127.933 580.212,121.037 
  584.373,114.756 588.534,109.096 592.694,104.062 596.855,99.6616 601.016,95.8953 605.177,92.7681 609.338,90.2836 613.499,88.4446 617.66,87.2531 621.821,86.7104 
  625.982,86.8153 630.143,87.5689 634.303,88.9705 638.464,91.0188 642.625,93.7117 646.786,97.0466 650.947,101.02 655.108,105.627 659.269,110.864 663.43,116.726 
  667.591,123.207 671.752,130.3 675.912,137.999 680.073,146.295 684.234,155.18 688.395,164.645 692.556,174.681 696.717,185.278 700.878,196.426 705.039,208.113 
  709.2,220.326 713.361,233.055 717.521,246.285 721.682,260.006 725.843,274.203 730.004,288.861 734.165,303.965 738.326,319.499 742.487,335.45 746.648,351.802 
  750.809,368.538 754.97,385.64 759.13,403.092 763.291,420.875 767.452,438.973 771.613,457.369 775.774,476.044 779.935,494.977 784.096,514.149 788.257,533.542 
  792.418,553.138 796.579,572.918 800.74,592.86 804.9,612.944 809.061,633.149 813.222,653.455 817.383,673.847 821.544,694.3 825.705,714.794 829.866,735.307 
  834.027,755.819 838.188,776.31 842.349,796.764 846.509,817.156 850.67,837.465 854.831,857.672 858.992,877.754 863.153,897.695 867.314,917.476 871.475,937.074 
  875.636,956.47 879.797,975.644 883.958,994.575 888.118,1013.25 892.279,1031.65 896.44,1049.75 900.601,1067.54 904.762,1084.99 908.923,1102.09 913.084,1118.83 
  917.245,1135.18 921.406,1151.14 925.567,1166.67 929.727,1181.78 933.888,1196.43 938.049,1210.63 942.21,1224.36 946.371,1237.59 950.532,1250.32 954.693,1262.54 
  958.854,1274.22 963.015,1285.37 967.176,1295.97 971.336,1306.01 975.497,1315.48 979.658,1324.36 983.819,1332.66 987.98,1340.36 992.141,1347.46 996.302,1353.94 
  1000.46,1359.8 1004.62,1365.04 1008.78,1369.65 1012.95,1373.63 1017.11,1376.96 1021.27,1379.66 1025.43,1381.71 1029.59,1383.11 1033.75,1383.86 1037.91,1383.97 
  1042.07,1383.43 1046.23,1382.23 1050.39,1380.4 1054.55,1377.91 1058.72,1374.78 1062.88,1371.02 1067.04,1366.62 1071.2,1361.58 1075.36,1355.92 1079.52,1349.64 
  1083.68,1342.74 1087.84,1335.24 1092,1327.13 1096.16,1318.44 1100.32,1309.16 1104.49,1299.31 1108.65,1288.89 1112.81,1277.92 1116.97,1266.4 1121.13,1254.36 
  1125.29,1241.79 1129.45,1228.72 1133.61,1215.15 1137.77,1201.11 1141.93,1186.59 1146.09,1171.63 1150.26,1156.23 1154.42,1140.41 1158.58,1124.18 1162.74,1107.57 
  1166.9,1090.58 1171.06,1073.24 1175.22,1055.56 1179.38,1037.55 1183.54,1019.25 1187.7,1000.66 1191.86,981.806 1196.03,962.707 1200.19,943.377 1204.35,923.839 
  1208.51,904.113 1212.67,884.218 1216.83,864.176 1220.99,844.005 1225.15,823.722 1229.31,803.351 1233.47,782.912 1237.63,762.427 1241.8,741.915 1245.96,721.396 
  1250.12,700.889 1254.28,680.416 1258.44,659.998 1262.6,639.657 1266.76,619.413 1270.92,599.283 1275.08,579.287 1279.24,559.447 1283.4,539.784 1287.57,520.318 
  1291.73,501.068 1295.89,482.049 1300.05,463.283 1304.21,444.789 1308.37,426.587 1312.53,408.694 1316.69,391.129 1320.85,373.905 1325.01,357.042 1329.17,340.559 
  1333.33,324.47 1337.5,308.795 1341.66,293.545 1345.82,278.734 1349.98,264.381 1354.14,250.499 1358.3,237.103 1362.46,224.207 1366.62,211.819 1370.78,199.954 
  1374.94,188.626 1379.1,177.844 1383.27,167.621 1387.43,157.967 1391.59,148.887 1395.75,140.395 1399.91,132.497 1404.07,125.203 1408.23,118.52 1412.39,112.454 
  1416.55,107.01 1420.71,102.194 1424.87,98.0115 1429.04,94.467 1433.2,91.5642 1437.36,89.3048 1441.52,87.6908 1445.68,86.7247 1449.84,86.4076 1454,86.7398 
  1458.16,87.7212 1462.32,89.3498 1466.48,91.6244 1470.64,94.5429 1474.81,98.1024 1478.97,102.299 1483.13,107.13 1487.29,112.588 1491.45,118.67 1495.61,125.368 
  1499.77,132.677 1503.93,140.588 1508.09,149.094 1512.25,158.187 1516.41,167.857 1520.58,178.095 1524.74,188.889 1528.9,200.23 1533.06,212.107 1537.22,224.508 
  1541.38,237.419 1545.54,250.829 1549.7,264.723 1553.86,279.086 1558.02,293.907 1562.18,309.171 1566.35,324.861 1570.51,340.96 1574.67,357.454 1578.83,374.324 
  1582.99,391.558 1587.15,409.136 1591.31,427.041 1595.47,445.253 1599.63,463.753 1603.79,482.526 1607.95,501.554 1612.12,520.815 1616.28,540.291 1620.44,559.961 
  1624.6,579.805 1628.76,599.806 1632.92,619.944 1637.08,640.197 1641.24,660.546 1645.4,680.967 1649.56,701.442 1653.72,721.953 1657.89,742.478 1662.05,762.997 
  1666.21,783.486 1670.37,803.926 1674.53,824.297 1678.69,844.581 1682.85,864.757 1687.01,884.803 1691.17,904.699 1695.33,924.423 1699.49,943.958 1703.66,963.288 
  1707.82,982.389 1711.98,1001.24 1716.14,1019.83 1720.3,1038.13 1724.46,1056.13 1728.62,1073.81 1732.78,1091.15 1736.94,1108.14 1741.1,1124.75 1745.26,1140.97 
  1749.43,1156.78 1753.59,1172.18 1757.75,1187.14 1761.91,1201.64 1766.07,1215.68 1770.23,1229.24 1774.39,1242.3 1778.55,1254.86 1782.71,1266.9 1786.87,1278.41 
  1791.03,1289.37 1795.2,1299.77 1799.36,1309.62 1803.52,1318.89 1807.68,1327.58 1811.84,1335.67 1816,1343.16 1820.16,1350.04 1824.32,1356.31 1828.48,1361.96 
  1832.64,1366.98 1836.8,1371.37 1840.96,1375.12 1845.13,1378.24 1849.29,1380.71 1853.45,1382.53 1857.61,1383.71 1861.77,1384.24 1865.93,1384.12 1870.09,1383.35 
  1874.25,1381.93 1878.41,1379.86 1882.57,1377.15 1886.73,1373.8 1890.9,1369.81 1895.06,1365.18 1899.22,1359.93 1903.38,1354.05 1907.54,1347.55 1911.7,1340.44 
  1915.86,1332.72 1920.02,1324.4 1924.18,1315.5 1928.34,1306.01 1932.5,1295.96 1936.67,1285.34 1940.83,1274.17 1944.99,1262.47 1949.15,1250.23 1953.31,1237.48 
  1957.47,1224.23 1961.63,1210.49 1965.79,1196.28 1969.95,1181.6 1974.11,1166.47 1978.27,1150.92 1982.44,1134.95 1986.6,1118.58 1990.76,1101.82 1994.92,1084.7 
  1999.08,1067.23 2003.24,1049.43 2007.4,1031.31 2011.56,1012.9 2015.72,994.206 2019.88,975.255 2024.04,956.064 2028.21,936.653 2032.37,917.043 2036.53,897.247 
  2040.69,877.289 2044.85,857.189 2049.01,836.967 2053.17,816.645 2057.33,796.243 2061.49,775.776 2065.65,755.269 2069.81,734.742 2073.98,714.216 2078.14,693.713 
  2082.3,673.251 2086.46,652.848 2090.62,632.528 2094.78,612.311 2098.94,592.218 2103.1,572.27 2107.26,552.483 2111.42,532.877 2115.58,513.474 2119.75,494.293 
  2123.91,475.354 2128.07,456.677 2132.23,438.275 2136.39,420.17 2140.55,402.38 2144.71,384.924 2148.87,367.82 2153.03,351.084 2157.19,334.729 2161.35,318.775 
  2165.52,303.238 2169.68,288.133 2173.84,273.478 2178,259.284 2182.16,245.563 2186.32,232.333 2190.48,219.606 2194.64,207.396 2198.8,195.715 2202.96,184.572 
  2207.12,173.98 2211.29,163.948 2215.45,154.489 2219.61,145.611 2223.77,137.324 2227.93,129.634 2232.09,122.549 2236.25,116.076 2240.41,110.224 2244.57,104.998 
  2248.73,100.403 2252.89,96.4406 2257.06,93.1178 2261.22,90.4374 2265.38,88.4024 2269.54,87.0151 2273.7,86.2762 2277.86,86.1857 2282.02,86.7445 2286.18,87.9522 
  2290.34,89.8076 
  "/>
<path clip-path="url(#clip930)" d="
M1550.33 335.029 L2279.25 335.029 L2279.25 93.1086 L1550.33 93.1086  Z
  " fill="#ffffff" fill-rule="evenodd" fill-opacity="1"/>
<polyline clip-path="url(#clip930)" style="stroke:#000000; stroke-linecap:butt; stroke-linejoin:round; stroke-width:4; stroke-opacity:1; fill:none" points="
  1550.33,335.029 2279.25,335.029 2279.25,93.1086 1550.33,93.1086 1550.33,335.029 
  "/>
<polyline clip-path="url(#clip930)" style="stroke:#009af9; stroke-linecap:butt; stroke-linejoin:round; stroke-width:4; stroke-opacity:1; fill:none" points="
  1574.83,153.589 1721.85,153.589 
  "/>
<path clip-path="url(#clip930)" d="M1766.7 149.92 Q1768.3 147.049 1770.52 145.684 Q1772.74 144.318 1775.75 144.318 Q1779.8 144.318 1782 147.165 Q1784.2 149.989 1784.2 155.221 L1784.2 170.869 L1779.92 170.869 L1779.92 155.359 Q1779.92 151.633 1778.6 149.827 Q1777.28 148.022 1774.57 148.022 Q1771.26 148.022 1769.34 150.221 Q1767.42 152.42 1767.42 156.216 L1767.42 170.869 L1763.14 170.869 L1763.14 155.359 Q1763.14 151.609 1761.82 149.827 Q1760.5 148.022 1757.74 148.022 Q1754.48 148.022 1752.56 150.244 Q1750.64 152.443 1750.64 156.216 L1750.64 170.869 L1746.35 170.869 L1746.35 144.943 L1750.64 144.943 L1750.64 148.971 Q1752.09 146.586 1754.13 145.452 Q1756.17 144.318 1758.97 144.318 Q1761.79 144.318 1763.76 145.753 Q1765.75 147.188 1766.7 149.92 Z" fill="#000000" fill-rule="evenodd" fill-opacity="1" /><path clip-path="url(#clip930)" d="M1804.48 157.836 Q1799.32 157.836 1797.33 159.017 Q1795.34 160.197 1795.34 163.045 Q1795.34 165.313 1796.82 166.656 Q1798.32 167.975 1800.89 167.975 Q1804.43 167.975 1806.56 165.475 Q1808.71 162.952 1808.71 158.785 L1808.71 157.836 L1804.48 157.836 M1812.97 156.077 L1812.97 170.869 L1808.71 170.869 L1808.71 166.933 Q1807.26 169.295 1805.08 170.429 Q1802.9 171.54 1799.76 171.54 Q1795.78 171.54 1793.41 169.318 Q1791.08 167.072 1791.08 163.322 Q1791.08 158.947 1793.99 156.725 Q1796.93 154.503 1802.74 154.503 L1808.71 154.503 L1808.71 154.086 Q1808.71 151.147 1806.77 149.549 Q1804.85 147.929 1801.35 147.929 Q1799.13 147.929 1797.03 148.461 Q1794.92 148.994 1792.97 150.059 L1792.97 146.123 Q1795.31 145.221 1797.51 144.781 Q1799.71 144.318 1801.79 144.318 Q1807.42 144.318 1810.2 147.234 Q1812.97 150.151 1812.97 156.077 Z" fill="#000000" fill-rule="evenodd" fill-opacity="1" /><path clip-path="url(#clip930)" d="M1838.27 145.707 L1838.27 149.734 Q1836.47 148.809 1834.52 148.346 Q1832.58 147.883 1830.5 147.883 Q1827.33 147.883 1825.73 148.855 Q1824.15 149.827 1824.15 151.771 Q1824.15 153.253 1825.29 154.109 Q1826.42 154.943 1829.85 155.707 L1831.31 156.031 Q1835.84 157.003 1837.74 158.785 Q1839.66 160.545 1839.66 163.716 Q1839.66 167.327 1836.79 169.433 Q1833.95 171.54 1828.95 171.54 Q1826.86 171.54 1824.59 171.123 Q1822.35 170.73 1819.85 169.92 L1819.85 165.521 Q1822.21 166.748 1824.5 167.373 Q1826.79 167.975 1829.04 167.975 Q1832.05 167.975 1833.67 166.957 Q1835.29 165.915 1835.29 164.04 Q1835.29 162.304 1834.11 161.378 Q1832.95 160.452 1828.99 159.596 L1827.51 159.248 Q1823.55 158.415 1821.79 156.702 Q1820.03 154.966 1820.03 151.957 Q1820.03 148.299 1822.63 146.309 Q1825.22 144.318 1829.99 144.318 Q1832.35 144.318 1834.43 144.665 Q1836.52 145.012 1838.27 145.707 Z" fill="#000000" fill-rule="evenodd" fill-opacity="1" /><path clip-path="url(#clip930)" d="M1862.97 145.707 L1862.97 149.734 Q1861.17 148.809 1859.22 148.346 Q1857.28 147.883 1855.2 147.883 Q1852.02 147.883 1850.43 148.855 Q1848.85 149.827 1848.85 151.771 Q1848.85 153.253 1849.99 154.109 Q1851.12 154.943 1854.55 155.707 L1856.01 156.031 Q1860.54 157.003 1862.44 158.785 Q1864.36 160.545 1864.36 163.716 Q1864.36 167.327 1861.49 169.433 Q1858.65 171.54 1853.65 171.54 Q1851.56 171.54 1849.29 171.123 Q1847.05 170.73 1844.55 169.92 L1844.55 165.521 Q1846.91 166.748 1849.2 167.373 Q1851.49 167.975 1853.74 167.975 Q1856.75 167.975 1858.37 166.957 Q1859.99 165.915 1859.99 164.04 Q1859.99 162.304 1858.81 161.378 Q1857.65 160.452 1853.69 159.596 L1852.21 159.248 Q1848.25 158.415 1846.49 156.702 Q1844.73 154.966 1844.73 151.957 Q1844.73 148.299 1847.33 146.309 Q1849.92 144.318 1854.69 144.318 Q1857.05 144.318 1859.13 144.665 Q1861.21 145.012 1862.97 145.707 Z" fill="#000000" fill-rule="evenodd" fill-opacity="1" /><path clip-path="url(#clip930)" d="M1871.75 164.989 L1876.63 164.989 L1876.63 170.869 L1871.75 170.869 L1871.75 164.989 Z" fill="#000000" fill-rule="evenodd" fill-opacity="1" /><path clip-path="url(#clip930)" d="M1902.74 145.707 L1902.74 149.734 Q1900.94 148.809 1898.99 148.346 Q1897.05 147.883 1894.96 147.883 Q1891.79 147.883 1890.2 148.855 Q1888.62 149.827 1888.62 151.771 Q1888.62 153.253 1889.76 154.109 Q1890.89 154.943 1894.32 155.707 L1895.77 156.031 Q1900.31 157.003 1902.21 158.785 Q1904.13 160.545 1904.13 163.716 Q1904.13 167.327 1901.26 169.433 Q1898.41 171.54 1893.41 171.54 Q1891.33 171.54 1889.06 171.123 Q1886.82 170.73 1884.32 169.92 L1884.32 165.521 Q1886.68 166.748 1888.97 167.373 Q1891.26 167.975 1893.51 167.975 Q1896.52 167.975 1898.14 166.957 Q1899.76 165.915 1899.76 164.04 Q1899.76 162.304 1898.58 161.378 Q1897.42 160.452 1893.46 159.596 L1891.98 159.248 Q1888.02 158.415 1886.26 156.702 Q1884.5 154.966 1884.5 151.957 Q1884.5 148.299 1887.09 146.309 Q1889.69 144.318 1894.46 144.318 Q1896.82 144.318 1898.9 144.665 Q1900.98 145.012 1902.74 145.707 Z" fill="#000000" fill-rule="evenodd" fill-opacity="1" /><path clip-path="url(#clip930)" d="M1936.21 134.897 Q1933.11 140.221 1931.61 145.429 Q1930.1 150.637 1930.1 155.984 Q1930.1 161.332 1931.61 166.586 Q1933.14 171.818 1936.21 177.119 L1932.51 177.119 Q1929.04 171.679 1927.3 166.424 Q1925.59 161.17 1925.59 155.984 Q1925.59 150.822 1927.3 145.591 Q1929.02 140.36 1932.51 134.897 L1936.21 134.897 Z" fill="#000000" fill-rule="evenodd" fill-opacity="1" /><path clip-path="url(#clip930)" d="M1959.25 152.234 Q1962.6 152.952 1964.48 155.221 Q1966.38 157.489 1966.38 160.822 Q1966.38 165.938 1962.86 168.739 Q1959.34 171.54 1952.86 171.54 Q1950.68 171.54 1948.37 171.1 Q1946.08 170.683 1943.62 169.827 L1943.62 165.313 Q1945.57 166.447 1947.88 167.026 Q1950.2 167.605 1952.72 167.605 Q1957.12 167.605 1959.41 165.869 Q1961.72 164.133 1961.72 160.822 Q1961.72 157.767 1959.57 156.054 Q1957.44 154.318 1953.62 154.318 L1949.59 154.318 L1949.59 150.475 L1953.81 150.475 Q1957.26 150.475 1959.08 149.109 Q1960.91 147.721 1960.91 145.128 Q1960.91 142.466 1959.02 141.054 Q1957.14 139.619 1953.62 139.619 Q1951.7 139.619 1949.5 140.035 Q1947.3 140.452 1944.66 141.332 L1944.66 137.165 Q1947.33 136.424 1949.64 136.054 Q1951.98 135.684 1954.04 135.684 Q1959.36 135.684 1962.46 138.114 Q1965.57 140.522 1965.57 144.642 Q1965.57 147.512 1963.92 149.503 Q1962.28 151.471 1959.25 152.234 Z" fill="#000000" fill-rule="evenodd" fill-opacity="1" /><path clip-path="url(#clip930)" d="M1989.41 152.234 Q1992.76 152.952 1994.64 155.221 Q1996.54 157.489 1996.54 160.822 Q1996.54 165.938 1993.02 168.739 Q1989.5 171.54 1983.02 171.54 Q1980.84 171.54 1978.53 171.1 Q1976.24 170.683 1973.78 169.827 L1973.78 165.313 Q1975.73 166.447 1978.04 167.026 Q1980.36 167.605 1982.88 167.605 Q1987.28 167.605 1989.57 165.869 Q1991.89 164.133 1991.89 160.822 Q1991.89 157.767 1989.73 156.054 Q1987.6 154.318 1983.78 154.318 L1979.76 154.318 L1979.76 150.475 L1983.97 150.475 Q1987.42 150.475 1989.25 149.109 Q1991.08 147.721 1991.08 145.128 Q1991.08 142.466 1989.18 141.054 Q1987.3 139.619 1983.78 139.619 Q1981.86 139.619 1979.66 140.035 Q1977.46 140.452 1974.83 141.332 L1974.83 137.165 Q1977.49 136.424 1979.8 136.054 Q1982.14 135.684 1984.2 135.684 Q1989.52 135.684 1992.63 138.114 Q1995.73 140.522 1995.73 144.642 Q1995.73 147.512 1994.08 149.503 Q1992.44 151.471 1989.41 152.234 Z" fill="#000000" fill-rule="evenodd" fill-opacity="1" /><path clip-path="url(#clip930)" d="M2005.45 136.309 L2023.81 136.309 L2023.81 140.244 L2009.73 140.244 L2009.73 148.716 Q2010.75 148.369 2011.77 148.207 Q2012.79 148.022 2013.81 148.022 Q2019.59 148.022 2022.97 151.193 Q2026.35 154.364 2026.35 159.781 Q2026.35 165.359 2022.88 168.461 Q2019.41 171.54 2013.09 171.54 Q2010.91 171.54 2008.64 171.17 Q2006.4 170.799 2003.99 170.058 L2003.99 165.359 Q2006.07 166.494 2008.3 167.049 Q2010.52 167.605 2013 167.605 Q2017 167.605 2019.34 165.498 Q2021.68 163.392 2021.68 159.781 Q2021.68 156.17 2019.34 154.063 Q2017 151.957 2013 151.957 Q2011.12 151.957 2009.25 152.373 Q2007.39 152.79 2005.45 153.67 L2005.45 136.309 Z" fill="#000000" fill-rule="evenodd" fill-opacity="1" /><path clip-path="url(#clip930)" d="M2035.61 136.309 L2053.97 136.309 L2053.97 140.244 L2039.89 140.244 L2039.89 148.716 Q2040.91 148.369 2041.93 148.207 Q2042.95 148.022 2043.97 148.022 Q2049.76 148.022 2053.13 151.193 Q2056.51 154.364 2056.51 159.781 Q2056.51 165.359 2053.04 168.461 Q2049.57 171.54 2043.25 171.54 Q2041.07 171.54 2038.81 171.17 Q2036.56 170.799 2034.15 170.058 L2034.15 165.359 Q2036.24 166.494 2038.46 167.049 Q2040.68 167.605 2043.16 167.605 Q2047.16 167.605 2049.5 165.498 Q2051.84 163.392 2051.84 159.781 Q2051.84 156.17 2049.5 154.063 Q2047.16 151.957 2043.16 151.957 Q2041.28 151.957 2039.41 152.373 Q2037.56 152.79 2035.61 153.67 L2035.61 136.309 Z" fill="#000000" fill-rule="evenodd" fill-opacity="1" /><path clip-path="url(#clip930)" d="M2078.57 140.383 L2066.77 158.832 L2078.57 158.832 L2078.57 140.383 M2077.35 136.309 L2083.23 136.309 L2083.23 158.832 L2088.16 158.832 L2088.16 162.721 L2083.23 162.721 L2083.23 170.869 L2078.57 170.869 L2078.57 162.721 L2062.97 162.721 L2062.97 158.207 L2077.35 136.309 Z" fill="#000000" fill-rule="evenodd" fill-opacity="1" /><path clip-path="url(#clip930)" d="M2108.74 140.383 L2096.93 158.832 L2108.74 158.832 L2108.74 140.383 M2107.51 136.309 L2113.39 136.309 L2113.39 158.832 L2118.32 158.832 L2118.32 162.721 L2113.39 162.721 L2113.39 170.869 L2108.74 170.869 L2108.74 162.721 L2093.13 162.721 L2093.13 158.207 L2107.51 136.309 Z" fill="#000000" fill-rule="evenodd" fill-opacity="1" /><path clip-path="url(#clip930)" d="M2140.22 152.234 Q2143.57 152.952 2145.45 155.221 Q2147.35 157.489 2147.35 160.822 Q2147.35 165.938 2143.83 168.739 Q2140.31 171.54 2133.83 171.54 Q2131.65 171.54 2129.34 171.1 Q2127.05 170.683 2124.59 169.827 L2124.59 165.313 Q2126.54 166.447 2128.85 167.026 Q2131.17 167.605 2133.69 167.605 Q2138.09 167.605 2140.38 165.869 Q2142.69 164.133 2142.69 160.822 Q2142.69 157.767 2140.54 156.054 Q2138.41 154.318 2134.59 154.318 L2130.57 154.318 L2130.57 150.475 L2134.78 150.475 Q2138.23 150.475 2140.06 149.109 Q2141.88 147.721 2141.88 145.128 Q2141.88 142.466 2139.99 141.054 Q2138.11 139.619 2134.59 139.619 Q2132.67 139.619 2130.47 140.035 Q2128.27 140.452 2125.63 141.332 L2125.63 137.165 Q2128.3 136.424 2130.61 136.054 Q2132.95 135.684 2135.01 135.684 Q2140.33 135.684 2143.44 138.114 Q2146.54 140.522 2146.54 144.642 Q2146.54 147.512 2144.89 149.503 Q2143.25 151.471 2140.22 152.234 Z" fill="#000000" fill-rule="evenodd" fill-opacity="1" /><path clip-path="url(#clip930)" d="M2160.24 166.933 L2176.56 166.933 L2176.56 170.869 L2154.62 170.869 L2154.62 166.933 Q2157.28 164.179 2161.86 159.549 Q2166.47 154.896 2167.65 153.554 Q2169.89 151.031 2170.77 149.295 Q2171.68 147.535 2171.68 145.846 Q2171.68 143.091 2169.73 141.355 Q2167.81 139.619 2164.71 139.619 Q2162.51 139.619 2160.06 140.383 Q2157.63 141.147 2154.85 142.697 L2154.85 137.975 Q2157.67 136.841 2160.13 136.262 Q2162.58 135.684 2164.62 135.684 Q2169.99 135.684 2173.18 138.369 Q2176.38 141.054 2176.38 145.545 Q2176.38 147.674 2175.56 149.596 Q2174.78 151.494 2172.67 154.086 Q2172.09 154.758 2168.99 157.975 Q2165.89 161.17 2160.24 166.933 Z" fill="#000000" fill-rule="evenodd" fill-opacity="1" /><path clip-path="url(#clip930)" d="M2185.1 134.897 L2188.81 134.897 Q2192.28 140.36 2193.99 145.591 Q2195.73 150.822 2195.73 155.984 Q2195.73 161.17 2193.99 166.424 Q2192.28 171.679 2188.81 177.119 L2185.1 177.119 Q2188.18 171.818 2189.69 166.586 Q2191.21 161.332 2191.21 155.984 Q2191.21 150.637 2189.69 145.429 Q2188.18 140.221 2185.1 134.897 Z" fill="#000000" fill-rule="evenodd" fill-opacity="1" /><polyline clip-path="url(#clip930)" style="stroke:#e26f46; stroke-linecap:butt; stroke-linejoin:round; stroke-width:4; stroke-opacity:1; fill:none" points="
  1574.83,214.069 1721.85,214.069 
  "/>
<path clip-path="url(#clip930)" d="M1766.7 210.4 Q1768.3 207.529 1770.52 206.164 Q1772.74 204.798 1775.75 204.798 Q1779.8 204.798 1782 207.645 Q1784.2 210.469 1784.2 215.701 L1784.2 231.349 L1779.92 231.349 L1779.92 215.839 Q1779.92 212.113 1778.6 210.307 Q1777.28 208.502 1774.57 208.502 Q1771.26 208.502 1769.34 210.701 Q1767.42 212.9 1767.42 216.696 L1767.42 231.349 L1763.14 231.349 L1763.14 215.839 Q1763.14 212.089 1761.82 210.307 Q1760.5 208.502 1757.74 208.502 Q1754.48 208.502 1752.56 210.724 Q1750.64 212.923 1750.64 216.696 L1750.64 231.349 L1746.35 231.349 L1746.35 205.423 L1750.64 205.423 L1750.64 209.451 Q1752.09 207.066 1754.13 205.932 Q1756.17 204.798 1758.97 204.798 Q1761.79 204.798 1763.76 206.233 Q1765.75 207.668 1766.7 210.4 Z" fill="#000000" fill-rule="evenodd" fill-opacity="1" /><path clip-path="url(#clip930)" d="M1804.48 218.316 Q1799.32 218.316 1797.33 219.497 Q1795.34 220.677 1795.34 223.525 Q1795.34 225.793 1796.82 227.136 Q1798.32 228.455 1800.89 228.455 Q1804.43 228.455 1806.56 225.955 Q1808.71 223.432 1808.71 219.265 L1808.71 218.316 L1804.48 218.316 M1812.97 216.557 L1812.97 231.349 L1808.71 231.349 L1808.71 227.413 Q1807.26 229.775 1805.08 230.909 Q1802.9 232.02 1799.76 232.02 Q1795.78 232.02 1793.41 229.798 Q1791.08 227.552 1791.08 223.802 Q1791.08 219.427 1793.99 217.205 Q1796.93 214.983 1802.74 214.983 L1808.71 214.983 L1808.71 214.566 Q1808.71 211.627 1806.77 210.029 Q1804.85 208.409 1801.35 208.409 Q1799.13 208.409 1797.03 208.941 Q1794.92 209.474 1792.97 210.539 L1792.97 206.603 Q1795.31 205.701 1797.51 205.261 Q1799.71 204.798 1801.79 204.798 Q1807.42 204.798 1810.2 207.714 Q1812.97 210.631 1812.97 216.557 Z" fill="#000000" fill-rule="evenodd" fill-opacity="1" /><path clip-path="url(#clip930)" d="M1838.27 206.187 L1838.27 210.214 Q1836.47 209.289 1834.52 208.826 Q1832.58 208.363 1830.5 208.363 Q1827.33 208.363 1825.73 209.335 Q1824.15 210.307 1824.15 212.251 Q1824.15 213.733 1825.29 214.589 Q1826.42 215.423 1829.85 216.187 L1831.31 216.511 Q1835.84 217.483 1837.74 219.265 Q1839.66 221.025 1839.66 224.196 Q1839.66 227.807 1836.79 229.913 Q1833.95 232.02 1828.95 232.02 Q1826.86 232.02 1824.59 231.603 Q1822.35 231.21 1819.85 230.4 L1819.85 226.001 Q1822.21 227.228 1824.5 227.853 Q1826.79 228.455 1829.04 228.455 Q1832.05 228.455 1833.67 227.437 Q1835.29 226.395 1835.29 224.52 Q1835.29 222.784 1834.11 221.858 Q1832.95 220.932 1828.99 220.076 L1827.51 219.728 Q1823.55 218.895 1821.79 217.182 Q1820.03 215.446 1820.03 212.437 Q1820.03 208.779 1822.63 206.789 Q1825.22 204.798 1829.99 204.798 Q1832.35 204.798 1834.43 205.145 Q1836.52 205.492 1838.27 206.187 Z" fill="#000000" fill-rule="evenodd" fill-opacity="1" /><path clip-path="url(#clip930)" d="M1862.97 206.187 L1862.97 210.214 Q1861.17 209.289 1859.22 208.826 Q1857.28 208.363 1855.2 208.363 Q1852.02 208.363 1850.43 209.335 Q1848.85 210.307 1848.85 212.251 Q1848.85 213.733 1849.99 214.589 Q1851.12 215.423 1854.55 216.187 L1856.01 216.511 Q1860.54 217.483 1862.44 219.265 Q1864.36 221.025 1864.36 224.196 Q1864.36 227.807 1861.49 229.913 Q1858.65 232.02 1853.65 232.02 Q1851.56 232.02 1849.29 231.603 Q1847.05 231.21 1844.55 230.4 L1844.55 226.001 Q1846.91 227.228 1849.2 227.853 Q1851.49 228.455 1853.74 228.455 Q1856.75 228.455 1858.37 227.437 Q1859.99 226.395 1859.99 224.52 Q1859.99 222.784 1858.81 221.858 Q1857.65 220.932 1853.69 220.076 L1852.21 219.728 Q1848.25 218.895 1846.49 217.182 Q1844.73 215.446 1844.73 212.437 Q1844.73 208.779 1847.33 206.789 Q1849.92 204.798 1854.69 204.798 Q1857.05 204.798 1859.13 205.145 Q1861.21 205.492 1862.97 206.187 Z" fill="#000000" fill-rule="evenodd" fill-opacity="1" /><path clip-path="url(#clip930)" d="M1871.75 225.469 L1876.63 225.469 L1876.63 231.349 L1871.75 231.349 L1871.75 225.469 Z" fill="#000000" fill-rule="evenodd" fill-opacity="1" /><path clip-path="url(#clip930)" d="M1883.16 205.423 L1887.67 205.423 L1895.77 227.182 L1903.88 205.423 L1908.39 205.423 L1898.67 231.349 L1892.88 231.349 L1883.16 205.423 Z" fill="#000000" fill-rule="evenodd" fill-opacity="1" /><path clip-path="url(#clip930)" d="M1939.57 195.377 Q1936.47 200.701 1934.96 205.909 Q1933.46 211.117 1933.46 216.464 Q1933.46 221.812 1934.96 227.066 Q1936.49 232.298 1939.57 237.599 L1935.87 237.599 Q1932.39 232.159 1930.66 226.904 Q1928.95 221.65 1928.95 216.464 Q1928.95 211.302 1930.66 206.071 Q1932.37 200.84 1935.87 195.377 L1939.57 195.377 Z" fill="#000000" fill-rule="evenodd" fill-opacity="1" /><path clip-path="url(#clip930)" d="M1962.6 212.714 Q1965.96 213.432 1967.83 215.701 Q1969.73 217.969 1969.73 221.302 Q1969.73 226.418 1966.21 229.219 Q1962.7 232.02 1956.21 232.02 Q1954.04 232.02 1951.72 231.58 Q1949.43 231.163 1946.98 230.307 L1946.98 225.793 Q1948.92 226.927 1951.24 227.506 Q1953.55 228.085 1956.08 228.085 Q1960.47 228.085 1962.77 226.349 Q1965.08 224.613 1965.08 221.302 Q1965.08 218.247 1962.93 216.534 Q1960.8 214.798 1956.98 214.798 L1952.95 214.798 L1952.95 210.955 L1957.16 210.955 Q1960.61 210.955 1962.44 209.589 Q1964.27 208.201 1964.27 205.608 Q1964.27 202.946 1962.37 201.534 Q1960.5 200.099 1956.98 200.099 Q1955.06 200.099 1952.86 200.515 Q1950.66 200.932 1948.02 201.812 L1948.02 197.645 Q1950.68 196.904 1953 196.534 Q1955.33 196.164 1957.39 196.164 Q1962.72 196.164 1965.82 198.594 Q1968.92 201.002 1968.92 205.122 Q1968.92 207.992 1967.28 209.983 Q1965.64 211.951 1962.6 212.714 Z" fill="#000000" fill-rule="evenodd" fill-opacity="1" /><path clip-path="url(#clip930)" d="M1992.76 212.714 Q1996.12 213.432 1998 215.701 Q1999.89 217.969 1999.89 221.302 Q1999.89 226.418 1996.38 229.219 Q1992.86 232.02 1986.38 232.02 Q1984.2 232.02 1981.89 231.58 Q1979.59 231.163 1977.14 230.307 L1977.14 225.793 Q1979.08 226.927 1981.4 227.506 Q1983.71 228.085 1986.24 228.085 Q1990.64 228.085 1992.93 226.349 Q1995.24 224.613 1995.24 221.302 Q1995.24 218.247 1993.09 216.534 Q1990.96 214.798 1987.14 214.798 L1983.11 214.798 L1983.11 210.955 L1987.33 210.955 Q1990.77 210.955 1992.6 209.589 Q1994.43 208.201 1994.43 205.608 Q1994.43 202.946 1992.53 201.534 Q1990.66 200.099 1987.14 200.099 Q1985.22 200.099 1983.02 200.515 Q1980.82 200.932 1978.18 201.812 L1978.18 197.645 Q1980.84 196.904 1983.16 196.534 Q1985.5 196.164 1987.56 196.164 Q1992.88 196.164 1995.98 198.594 Q1999.08 201.002 1999.08 205.122 Q1999.08 207.992 1997.44 209.983 Q1995.8 211.951 1992.76 212.714 Z" fill="#000000" fill-rule="evenodd" fill-opacity="1" /><path clip-path="url(#clip930)" d="M2008.81 196.789 L2027.16 196.789 L2027.16 200.724 L2013.09 200.724 L2013.09 209.196 Q2014.11 208.849 2015.13 208.687 Q2016.14 208.502 2017.16 208.502 Q2022.95 208.502 2026.33 211.673 Q2029.71 214.844 2029.71 220.261 Q2029.71 225.839 2026.24 228.941 Q2022.76 232.02 2016.45 232.02 Q2014.27 232.02 2012 231.65 Q2009.76 231.279 2007.35 230.538 L2007.35 225.839 Q2009.43 226.974 2011.65 227.529 Q2013.88 228.085 2016.35 228.085 Q2020.36 228.085 2022.7 225.978 Q2025.03 223.872 2025.03 220.261 Q2025.03 216.65 2022.7 214.543 Q2020.36 212.437 2016.35 212.437 Q2014.48 212.437 2012.6 212.853 Q2010.75 213.27 2008.81 214.15 L2008.81 196.789 Z" fill="#000000" fill-rule="evenodd" fill-opacity="1" /><path clip-path="url(#clip930)" d="M2038.97 196.789 L2057.32 196.789 L2057.32 200.724 L2043.25 200.724 L2043.25 209.196 Q2044.27 208.849 2045.29 208.687 Q2046.31 208.502 2047.32 208.502 Q2053.11 208.502 2056.49 211.673 Q2059.87 214.844 2059.87 220.261 Q2059.87 225.839 2056.4 228.941 Q2052.93 232.02 2046.61 232.02 Q2044.43 232.02 2042.16 231.65 Q2039.92 231.279 2037.51 230.538 L2037.51 225.839 Q2039.59 226.974 2041.82 227.529 Q2044.04 228.085 2046.51 228.085 Q2050.52 228.085 2052.86 225.978 Q2055.2 223.872 2055.2 220.261 Q2055.2 216.65 2052.86 214.543 Q2050.52 212.437 2046.51 212.437 Q2044.64 212.437 2042.76 212.853 Q2040.91 213.27 2038.97 214.15 L2038.97 196.789 Z" fill="#000000" fill-rule="evenodd" fill-opacity="1" /><path clip-path="url(#clip930)" d="M2081.93 200.863 L2070.13 219.312 L2081.93 219.312 L2081.93 200.863 M2080.7 196.789 L2086.58 196.789 L2086.58 219.312 L2091.51 219.312 L2091.51 223.201 L2086.58 223.201 L2086.58 231.349 L2081.93 231.349 L2081.93 223.201 L2066.33 223.201 L2066.33 218.687 L2080.7 196.789 Z" fill="#000000" fill-rule="evenodd" fill-opacity="1" /><path clip-path="url(#clip930)" d="M2112.09 200.863 L2100.29 219.312 L2112.09 219.312 L2112.09 200.863 M2110.87 196.789 L2116.75 196.789 L2116.75 219.312 L2121.68 219.312 L2121.68 223.201 L2116.75 223.201 L2116.75 231.349 L2112.09 231.349 L2112.09 223.201 L2096.49 223.201 L2096.49 218.687 L2110.87 196.789 Z" fill="#000000" fill-rule="evenodd" fill-opacity="1" /><path clip-path="url(#clip930)" d="M2143.57 212.714 Q2146.93 213.432 2148.81 215.701 Q2150.7 217.969 2150.7 221.302 Q2150.7 226.418 2147.19 229.219 Q2143.67 232.02 2137.19 232.02 Q2135.01 232.02 2132.69 231.58 Q2130.4 231.163 2127.95 230.307 L2127.95 225.793 Q2129.89 226.927 2132.21 227.506 Q2134.52 228.085 2137.05 228.085 Q2141.44 228.085 2143.74 226.349 Q2146.05 224.613 2146.05 221.302 Q2146.05 218.247 2143.9 216.534 Q2141.77 214.798 2137.95 214.798 L2133.92 214.798 L2133.92 210.955 L2138.13 210.955 Q2141.58 210.955 2143.41 209.589 Q2145.24 208.201 2145.24 205.608 Q2145.24 202.946 2143.34 201.534 Q2141.47 200.099 2137.95 200.099 Q2136.03 200.099 2133.83 200.515 Q2131.63 200.932 2128.99 201.812 L2128.99 197.645 Q2131.65 196.904 2133.97 196.534 Q2136.31 196.164 2138.37 196.164 Q2143.69 196.164 2146.79 198.594 Q2149.89 201.002 2149.89 205.122 Q2149.89 207.992 2148.25 209.983 Q2146.61 211.951 2143.57 212.714 Z" fill="#000000" fill-rule="evenodd" fill-opacity="1" /><path clip-path="url(#clip930)" d="M2173.74 212.714 Q2177.09 213.432 2178.97 215.701 Q2180.87 217.969 2180.87 221.302 Q2180.87 226.418 2177.35 229.219 Q2173.83 232.02 2167.35 232.02 Q2165.17 232.02 2162.86 231.58 Q2160.56 231.163 2158.11 230.307 L2158.11 225.793 Q2160.06 226.927 2162.37 227.506 Q2164.69 228.085 2167.21 228.085 Q2171.61 228.085 2173.9 226.349 Q2176.21 224.613 2176.21 221.302 Q2176.21 218.247 2174.06 216.534 Q2171.93 214.798 2168.11 214.798 L2164.08 214.798 L2164.08 210.955 L2168.3 210.955 Q2171.75 210.955 2173.57 209.589 Q2175.4 208.201 2175.4 205.608 Q2175.4 202.946 2173.5 201.534 Q2171.63 200.099 2168.11 200.099 Q2166.19 200.099 2163.99 200.515 Q2161.79 200.932 2159.15 201.812 L2159.15 197.645 Q2161.81 196.904 2164.13 196.534 Q2166.47 196.164 2168.53 196.164 Q2173.85 196.164 2176.95 198.594 Q2180.06 201.002 2180.06 205.122 Q2180.06 207.992 2178.41 209.983 Q2176.77 211.951 2173.74 212.714 Z" fill="#000000" fill-rule="evenodd" fill-opacity="1" /><path clip-path="url(#clip930)" d="M2188.46 195.377 L2192.16 195.377 Q2195.63 200.84 2197.35 206.071 Q2199.08 211.302 2199.08 216.464 Q2199.08 221.65 2197.35 226.904 Q2195.63 232.159 2192.16 237.599 L2188.46 237.599 Q2191.54 232.298 2193.04 227.066 Q2194.57 221.812 2194.57 216.464 Q2194.57 211.117 2193.04 205.909 Q2191.54 200.701 2188.46 195.377 Z" fill="#000000" fill-rule="evenodd" fill-opacity="1" /><polyline clip-path="url(#clip930)" style="stroke:#3da44d; stroke-linecap:butt; stroke-linejoin:round; stroke-width:4; stroke-opacity:1; fill:none" points="
  1574.83,274.549 1721.85,274.549 
  "/>
<path clip-path="url(#clip930)" d="M1766.7 270.88 Q1768.3 268.009 1770.52 266.644 Q1772.74 265.278 1775.75 265.278 Q1779.8 265.278 1782 268.125 Q1784.2 270.949 1784.2 276.181 L1784.2 291.829 L1779.92 291.829 L1779.92 276.319 Q1779.92 272.593 1778.6 270.787 Q1777.28 268.982 1774.57 268.982 Q1771.26 268.982 1769.34 271.181 Q1767.42 273.38 1767.42 277.176 L1767.42 291.829 L1763.14 291.829 L1763.14 276.319 Q1763.14 272.569 1761.82 270.787 Q1760.5 268.982 1757.74 268.982 Q1754.48 268.982 1752.56 271.204 Q1750.64 273.403 1750.64 277.176 L1750.64 291.829 L1746.35 291.829 L1746.35 265.903 L1750.64 265.903 L1750.64 269.931 Q1752.09 267.546 1754.13 266.412 Q1756.17 265.278 1758.97 265.278 Q1761.79 265.278 1763.76 266.713 Q1765.75 268.148 1766.7 270.88 Z" fill="#000000" fill-rule="evenodd" fill-opacity="1" /><path clip-path="url(#clip930)" d="M1804.48 278.796 Q1799.32 278.796 1797.33 279.977 Q1795.34 281.157 1795.34 284.005 Q1795.34 286.273 1796.82 287.616 Q1798.32 288.935 1800.89 288.935 Q1804.43 288.935 1806.56 286.435 Q1808.71 283.912 1808.71 279.745 L1808.71 278.796 L1804.48 278.796 M1812.97 277.037 L1812.97 291.829 L1808.71 291.829 L1808.71 287.893 Q1807.26 290.255 1805.08 291.389 Q1802.9 292.5 1799.76 292.5 Q1795.78 292.5 1793.41 290.278 Q1791.08 288.032 1791.08 284.282 Q1791.08 279.907 1793.99 277.685 Q1796.93 275.463 1802.74 275.463 L1808.71 275.463 L1808.71 275.046 Q1808.71 272.107 1806.77 270.509 Q1804.85 268.889 1801.35 268.889 Q1799.13 268.889 1797.03 269.421 Q1794.92 269.954 1792.97 271.019 L1792.97 267.083 Q1795.31 266.181 1797.51 265.741 Q1799.71 265.278 1801.79 265.278 Q1807.42 265.278 1810.2 268.194 Q1812.97 271.111 1812.97 277.037 Z" fill="#000000" fill-rule="evenodd" fill-opacity="1" /><path clip-path="url(#clip930)" d="M1838.27 266.667 L1838.27 270.694 Q1836.47 269.769 1834.52 269.306 Q1832.58 268.843 1830.5 268.843 Q1827.33 268.843 1825.73 269.815 Q1824.15 270.787 1824.15 272.731 Q1824.15 274.213 1825.29 275.069 Q1826.42 275.903 1829.85 276.667 L1831.31 276.991 Q1835.84 277.963 1837.74 279.745 Q1839.66 281.505 1839.66 284.676 Q1839.66 288.287 1836.79 290.393 Q1833.95 292.5 1828.95 292.5 Q1826.86 292.5 1824.59 292.083 Q1822.35 291.69 1819.85 290.88 L1819.85 286.481 Q1822.21 287.708 1824.5 288.333 Q1826.79 288.935 1829.04 288.935 Q1832.05 288.935 1833.67 287.917 Q1835.29 286.875 1835.29 285 Q1835.29 283.264 1834.11 282.338 Q1832.95 281.412 1828.99 280.556 L1827.51 280.208 Q1823.55 279.375 1821.79 277.662 Q1820.03 275.926 1820.03 272.917 Q1820.03 269.259 1822.63 267.269 Q1825.22 265.278 1829.99 265.278 Q1832.35 265.278 1834.43 265.625 Q1836.52 265.972 1838.27 266.667 Z" fill="#000000" fill-rule="evenodd" fill-opacity="1" /><path clip-path="url(#clip930)" d="M1862.97 266.667 L1862.97 270.694 Q1861.17 269.769 1859.22 269.306 Q1857.28 268.843 1855.2 268.843 Q1852.02 268.843 1850.43 269.815 Q1848.85 270.787 1848.85 272.731 Q1848.85 274.213 1849.99 275.069 Q1851.12 275.903 1854.55 276.667 L1856.01 276.991 Q1860.54 277.963 1862.44 279.745 Q1864.36 281.505 1864.36 284.676 Q1864.36 288.287 1861.49 290.393 Q1858.65 292.5 1853.65 292.5 Q1851.56 292.5 1849.29 292.083 Q1847.05 291.69 1844.55 290.88 L1844.55 286.481 Q1846.91 287.708 1849.2 288.333 Q1851.49 288.935 1853.74 288.935 Q1856.75 288.935 1858.37 287.917 Q1859.99 286.875 1859.99 285 Q1859.99 283.264 1858.81 282.338 Q1857.65 281.412 1853.69 280.556 L1852.21 280.208 Q1848.25 279.375 1846.49 277.662 Q1844.73 275.926 1844.73 272.917 Q1844.73 269.259 1847.33 267.269 Q1849.92 265.278 1854.69 265.278 Q1857.05 265.278 1859.13 265.625 Q1861.21 265.972 1862.97 266.667 Z" fill="#000000" fill-rule="evenodd" fill-opacity="1" /><path clip-path="url(#clip930)" d="M1871.75 285.949 L1876.63 285.949 L1876.63 291.829 L1871.75 291.829 L1871.75 285.949 Z" fill="#000000" fill-rule="evenodd" fill-opacity="1" /><path clip-path="url(#clip930)" d="M1898 278.796 Q1892.83 278.796 1890.84 279.977 Q1888.85 281.157 1888.85 284.005 Q1888.85 286.273 1890.33 287.616 Q1891.84 288.935 1894.41 288.935 Q1897.95 288.935 1900.08 286.435 Q1902.23 283.912 1902.23 279.745 L1902.23 278.796 L1898 278.796 M1906.49 277.037 L1906.49 291.829 L1902.23 291.829 L1902.23 287.893 Q1900.77 290.255 1898.6 291.389 Q1896.42 292.5 1893.27 292.5 Q1889.29 292.5 1886.93 290.278 Q1884.59 288.032 1884.59 284.282 Q1884.59 279.907 1887.51 277.685 Q1890.45 275.463 1896.26 275.463 L1902.23 275.463 L1902.23 275.046 Q1902.23 272.107 1900.29 270.509 Q1898.37 268.889 1894.87 268.889 Q1892.65 268.889 1890.54 269.421 Q1888.44 269.954 1886.49 271.019 L1886.49 267.083 Q1888.83 266.181 1891.03 265.741 Q1893.23 265.278 1895.31 265.278 Q1900.94 265.278 1903.71 268.194 Q1906.49 271.111 1906.49 277.037 Z" fill="#000000" fill-rule="evenodd" fill-opacity="1" /><path clip-path="url(#clip930)" d="M1940.57 255.857 Q1937.46 261.181 1935.96 266.389 Q1934.46 271.597 1934.46 276.944 Q1934.46 282.292 1935.96 287.546 Q1937.49 292.778 1940.57 298.079 L1936.86 298.079 Q1933.39 292.639 1931.65 287.384 Q1929.94 282.13 1929.94 276.944 Q1929.94 271.782 1931.65 266.551 Q1933.37 261.32 1936.86 255.857 L1940.57 255.857 Z" fill="#000000" fill-rule="evenodd" fill-opacity="1" /><path clip-path="url(#clip930)" d="M1949.48 257.269 L1967.83 257.269 L1967.83 261.204 L1953.76 261.204 L1953.76 269.676 Q1954.78 269.329 1955.8 269.167 Q1956.82 268.982 1957.83 268.982 Q1963.62 268.982 1967 272.153 Q1970.38 275.324 1970.38 280.741 Q1970.38 286.319 1966.91 289.421 Q1963.44 292.5 1957.12 292.5 Q1954.94 292.5 1952.67 292.13 Q1950.43 291.759 1948.02 291.018 L1948.02 286.319 Q1950.1 287.454 1952.33 288.009 Q1954.55 288.565 1957.02 288.565 Q1961.03 288.565 1963.37 286.458 Q1965.7 284.352 1965.7 280.741 Q1965.7 277.13 1963.37 275.023 Q1961.03 272.917 1957.02 272.917 Q1955.15 272.917 1953.27 273.333 Q1951.42 273.75 1949.48 274.63 L1949.48 257.269 Z" fill="#000000" fill-rule="evenodd" fill-opacity="1" /><path clip-path="url(#clip930)" d="M1989.59 275.417 Q1986.26 275.417 1984.34 277.199 Q1982.44 278.981 1982.44 282.106 Q1982.44 285.231 1984.34 287.014 Q1986.26 288.796 1989.59 288.796 Q1992.93 288.796 1994.85 287.014 Q1996.77 285.208 1996.77 282.106 Q1996.77 278.981 1994.85 277.199 Q1992.95 275.417 1989.59 275.417 M1984.92 273.426 Q1981.91 272.685 1980.22 270.625 Q1978.55 268.565 1978.55 265.602 Q1978.55 261.458 1981.49 259.051 Q1984.45 256.644 1989.59 256.644 Q1994.76 256.644 1997.7 259.051 Q2000.64 261.458 2000.64 265.602 Q2000.64 268.565 1998.95 270.625 Q1997.28 272.685 1994.29 273.426 Q1997.67 274.213 1999.55 276.505 Q2001.45 278.796 2001.45 282.106 Q2001.45 287.13 1998.37 289.815 Q1995.31 292.5 1989.59 292.5 Q1983.88 292.5 1980.8 289.815 Q1977.74 287.13 1977.74 282.106 Q1977.74 278.796 1979.64 276.505 Q1981.54 274.213 1984.92 273.426 M1983.2 266.042 Q1983.2 268.727 1984.87 270.232 Q1986.56 271.736 1989.59 271.736 Q1992.6 271.736 1994.29 270.232 Q1996.01 268.727 1996.01 266.042 Q1996.01 263.357 1994.29 261.852 Q1992.6 260.347 1989.59 260.347 Q1986.56 260.347 1984.87 261.852 Q1983.2 263.357 1983.2 266.042 Z" fill="#000000" fill-rule="evenodd" fill-opacity="1" /><path clip-path="url(#clip930)" d="M2008.57 257.269 L2030.8 257.269 L2030.8 259.259 L2018.25 291.829 L2013.37 291.829 L2025.17 261.204 L2008.57 261.204 L2008.57 257.269 Z" fill="#000000" fill-rule="evenodd" fill-opacity="1" /><path clip-path="url(#clip930)" d="M2043.95 287.893 L2060.26 287.893 L2060.26 291.829 L2038.32 291.829 L2038.32 287.893 Q2040.98 285.139 2045.57 280.509 Q2050.17 275.856 2051.35 274.514 Q2053.6 271.991 2054.48 270.255 Q2055.38 268.495 2055.38 266.806 Q2055.38 264.051 2053.44 262.315 Q2051.51 260.579 2048.41 260.579 Q2046.21 260.579 2043.76 261.343 Q2041.33 262.107 2038.55 263.657 L2038.55 258.935 Q2041.38 257.801 2043.83 257.222 Q2046.28 256.644 2048.32 256.644 Q2053.69 256.644 2056.88 259.329 Q2060.08 262.014 2060.08 266.505 Q2060.08 268.634 2059.27 270.556 Q2058.48 272.454 2056.38 275.046 Q2055.8 275.718 2052.7 278.935 Q2049.59 282.13 2043.95 287.893 Z" fill="#000000" fill-rule="evenodd" fill-opacity="1" /><path clip-path="url(#clip930)" d="M2080.08 260.347 Q2076.47 260.347 2074.64 263.912 Q2072.83 267.454 2072.83 274.583 Q2072.83 281.69 2074.64 285.255 Q2076.47 288.796 2080.08 288.796 Q2083.71 288.796 2085.52 285.255 Q2087.35 281.69 2087.35 274.583 Q2087.35 267.454 2085.52 263.912 Q2083.71 260.347 2080.08 260.347 M2080.08 256.644 Q2085.89 256.644 2088.94 261.25 Q2092.02 265.833 2092.02 274.583 Q2092.02 283.31 2088.94 287.917 Q2085.89 292.5 2080.08 292.5 Q2074.27 292.5 2071.19 287.917 Q2068.13 283.31 2068.13 274.583 Q2068.13 265.833 2071.19 261.25 Q2074.27 256.644 2080.08 256.644 Z" fill="#000000" fill-rule="evenodd" fill-opacity="1" /><path clip-path="url(#clip930)" d="M2104.27 287.893 L2120.59 287.893 L2120.59 291.829 L2098.64 291.829 L2098.64 287.893 Q2101.31 285.139 2105.89 280.509 Q2110.5 275.856 2111.68 274.514 Q2113.92 271.991 2114.8 270.255 Q2115.7 268.495 2115.7 266.806 Q2115.7 264.051 2113.76 262.315 Q2111.84 260.579 2108.74 260.579 Q2106.54 260.579 2104.08 261.343 Q2101.65 262.107 2098.88 263.657 L2098.88 258.935 Q2101.7 257.801 2104.15 257.222 Q2106.61 256.644 2108.64 256.644 Q2114.01 256.644 2117.21 259.329 Q2120.4 262.014 2120.4 266.505 Q2120.4 268.634 2119.59 270.556 Q2118.81 272.454 2116.7 275.046 Q2116.12 275.718 2113.02 278.935 Q2109.92 282.13 2104.27 287.893 Z" fill="#000000" fill-rule="evenodd" fill-opacity="1" /><path clip-path="url(#clip930)" d="M2130.45 257.269 L2148.81 257.269 L2148.81 261.204 L2134.73 261.204 L2134.73 269.676 Q2135.75 269.329 2136.77 269.167 Q2137.79 268.982 2138.81 268.982 Q2144.59 268.982 2147.97 272.153 Q2151.35 275.324 2151.35 280.741 Q2151.35 286.319 2147.88 289.421 Q2144.41 292.5 2138.09 292.5 Q2135.91 292.5 2133.64 292.13 Q2131.4 291.759 2128.99 291.018 L2128.99 286.319 Q2131.07 287.454 2133.3 288.009 Q2135.52 288.565 2138 288.565 Q2142 288.565 2144.34 286.458 Q2146.68 284.352 2146.68 280.741 Q2146.68 277.13 2144.34 275.023 Q2142 272.917 2138 272.917 Q2136.12 272.917 2134.25 273.333 Q2132.39 273.75 2130.45 274.63 L2130.45 257.269 Z" fill="#000000" fill-rule="evenodd" fill-opacity="1" /><path clip-path="url(#clip930)" d="M2171.14 272.685 Q2168 272.685 2166.14 274.838 Q2164.31 276.991 2164.31 280.741 Q2164.31 284.468 2166.14 286.643 Q2168 288.796 2171.14 288.796 Q2174.29 288.796 2176.12 286.643 Q2177.97 284.468 2177.97 280.741 Q2177.97 276.991 2176.12 274.838 Q2174.29 272.685 2171.14 272.685 M2180.43 258.033 L2180.43 262.292 Q2178.67 261.458 2176.86 261.019 Q2175.08 260.579 2173.32 260.579 Q2168.69 260.579 2166.24 263.704 Q2163.81 266.829 2163.46 273.148 Q2164.82 271.134 2166.88 270.069 Q2168.94 268.982 2171.42 268.982 Q2176.63 268.982 2179.64 272.153 Q2182.67 275.301 2182.67 280.741 Q2182.67 286.065 2179.52 289.282 Q2176.38 292.5 2171.14 292.5 Q2165.15 292.5 2161.98 287.917 Q2158.81 283.31 2158.81 274.583 Q2158.81 266.389 2162.69 261.528 Q2166.58 256.644 2173.13 256.644 Q2174.89 256.644 2176.68 256.991 Q2178.48 257.338 2180.43 258.033 Z" fill="#000000" fill-rule="evenodd" fill-opacity="1" /><path clip-path="url(#clip930)" d="M2191.54 287.893 L2199.18 287.893 L2199.18 261.528 L2190.87 263.195 L2190.87 258.935 L2199.13 257.269 L2203.81 257.269 L2203.81 287.893 L2211.44 287.893 L2211.44 291.829 L2191.54 291.829 L2191.54 287.893 Z" fill="#000000" fill-rule="evenodd" fill-opacity="1" /><path clip-path="url(#clip930)" d="M2219.62 255.857 L2223.32 255.857 Q2226.79 261.32 2228.5 266.551 Q2230.24 271.782 2230.24 276.944 Q2230.24 282.13 2228.5 287.384 Q2226.79 292.639 2223.32 298.079 L2219.62 298.079 Q2222.69 292.778 2224.2 287.546 Q2225.73 282.292 2225.73 276.944 Q2225.73 271.597 2224.2 266.389 Q2222.69 261.181 2219.62 255.857 Z" fill="#000000" fill-rule="evenodd" fill-opacity="1" /></svg>
