<?xml version="1.0" encoding="utf-8"?>
<svg xmlns="http://www.w3.org/2000/svg" xmlns:xlink="http://www.w3.org/1999/xlink" width="600" height="400" viewBox="0 0 2400 1600">
<defs>
  <clipPath id="clip180">
    <rect x="0" y="0" width="2400" height="1600"/>
  </clipPath>
</defs>
<path clip-path="url(#clip180)" d="
M0 1600 L2400 1600 L2400 0 L0 0  Z
  " fill="#ffffff" fill-rule="evenodd" fill-opacity="1"/>
<defs>
  <clipPath id="clip181">
    <rect x="480" y="0" width="1681" height="1600"/>
  </clipPath>
</defs>
<path clip-path="url(#clip180)" d="
M194.098 1486.45 L2352.76 1486.45 L2352.76 47.2441 L194.098 47.2441  Z
  " fill="#ffffff" fill-rule="evenodd" fill-opacity="1"/>
<defs>
  <clipPath id="clip182">
    <rect x="194" y="47" width="2160" height="1440"/>
  </clipPath>
</defs>
<polyline clip-path="url(#clip182)" style="stroke:#000000; stroke-linecap:butt; stroke-linejoin:round; stroke-width:2; stroke-opacity:0.1; fill:none" points="
  255.192,1486.45 255.192,47.2441 
  "/>
<polyline clip-path="url(#clip182)" style="stroke:#000000; stroke-linecap:butt; stroke-linejoin:round; stroke-width:2; stroke-opacity:0.1; fill:none" points="
  662.486,1486.45 662.486,47.2441 
  "/>
<polyline clip-path="url(#clip182)" style="stroke:#000000; stroke-linecap:butt; stroke-linejoin:round; stroke-width:2; stroke-opacity:0.1; fill:none" points="
  1069.78,1486.45 1069.78,47.2441 
  "/>
<polyline clip-path="url(#clip182)" style="stroke:#000000; stroke-linecap:butt; stroke-linejoin:round; stroke-width:2; stroke-opacity:0.1; fill:none" points="
  1477.07,1486.45 1477.07,47.2441 
  "/>
<polyline clip-path="url(#clip182)" style="stroke:#000000; stroke-linecap:butt; stroke-linejoin:round; stroke-width:2; stroke-opacity:0.1; fill:none" points="
  1884.37,1486.45 1884.37,47.2441 
  "/>
<polyline clip-path="url(#clip182)" style="stroke:#000000; stroke-linecap:butt; stroke-linejoin:round; stroke-width:2; stroke-opacity:0.1; fill:none" points="
  2291.66,1486.45 2291.66,47.2441 
  "/>
<polyline clip-path="url(#clip180)" style="stroke:#000000; stroke-linecap:butt; stroke-linejoin:round; stroke-width:4; stroke-opacity:1; fill:none" points="
  194.098,1486.45 2352.76,1486.45 
  "/>
<polyline clip-path="url(#clip180)" style="stroke:#000000; stroke-linecap:butt; stroke-linejoin:round; stroke-width:4; stroke-opacity:1; fill:none" points="
  255.192,1486.45 255.192,1469.18 
  "/>
<polyline clip-path="url(#clip180)" style="stroke:#000000; stroke-linecap:butt; stroke-linejoin:round; stroke-width:4; stroke-opacity:1; fill:none" points="
  662.486,1486.45 662.486,1469.18 
  "/>
<polyline clip-path="url(#clip180)" style="stroke:#000000; stroke-linecap:butt; stroke-linejoin:round; stroke-width:4; stroke-opacity:1; fill:none" points="
  1069.78,1486.45 1069.78,1469.18 
  "/>
<polyline clip-path="url(#clip180)" style="stroke:#000000; stroke-linecap:butt; stroke-linejoin:round; stroke-width:4; stroke-opacity:1; fill:none" points="
  1477.07,1486.45 1477.07,1469.18 
  "/>
<polyline clip-path="url(#clip180)" style="stroke:#000000; stroke-linecap:butt; stroke-linejoin:round; stroke-width:4; stroke-opacity:1; fill:none" points="
  1884.37,1486.45 1884.37,1469.18 
  "/>
<polyline clip-path="url(#clip180)" style="stroke:#000000; stroke-linecap:butt; stroke-linejoin:round; stroke-width:4; stroke-opacity:1; fill:none" points="
  2291.66,1486.45 2291.66,1469.18 
  "/>
<path clip-path="url(#clip180)" d="M255.192 1515.64 Q251.581 1515.64 249.752 1519.2 Q247.947 1522.75 247.947 1529.87 Q247.947 1536.98 249.752 1540.55 Q251.581 1544.09 255.192 1544.09 Q258.826 1544.09 260.632 1540.55 Q262.461 1536.98 262.461 1529.87 Q262.461 1522.75 260.632 1519.2 Q258.826 1515.64 255.192 1515.64 M255.192 1511.93 Q261.002 1511.93 264.058 1516.54 Q267.137 1521.12 267.137 1529.87 Q267.137 1538.6 264.058 1543.21 Q261.002 1547.79 255.192 1547.79 Q249.382 1547.79 246.303 1543.21 Q243.248 1538.6 243.248 1529.87 Q243.248 1521.12 246.303 1516.54 Q249.382 1511.93 255.192 1511.93 Z" fill="#000000" fill-rule="evenodd" fill-opacity="1" /><path clip-path="url(#clip180)" d="M652.868 1543.18 L660.507 1543.18 L660.507 1516.82 L652.197 1518.49 L652.197 1514.23 L660.461 1512.56 L665.137 1512.56 L665.137 1543.18 L672.775 1543.18 L672.775 1547.12 L652.868 1547.12 L652.868 1543.18 Z" fill="#000000" fill-rule="evenodd" fill-opacity="1" /><path clip-path="url(#clip180)" d="M1064.43 1543.18 L1080.75 1543.18 L1080.75 1547.12 L1058.81 1547.12 L1058.81 1543.18 Q1061.47 1540.43 1066.05 1535.8 Q1070.66 1531.15 1071.84 1529.81 Q1074.09 1527.28 1074.97 1525.55 Q1075.87 1523.79 1075.87 1522.1 Q1075.87 1519.34 1073.92 1517.61 Q1072 1515.87 1068.9 1515.87 Q1066.7 1515.87 1064.25 1516.63 Q1061.82 1517.4 1059.04 1518.95 L1059.04 1514.23 Q1061.86 1513.09 1064.32 1512.51 Q1066.77 1511.93 1068.81 1511.93 Q1074.18 1511.93 1077.37 1514.62 Q1080.57 1517.31 1080.57 1521.8 Q1080.57 1523.93 1079.76 1525.85 Q1078.97 1527.74 1076.86 1530.34 Q1076.28 1531.01 1073.18 1534.23 Q1070.08 1537.42 1064.43 1543.18 Z" fill="#000000" fill-rule="evenodd" fill-opacity="1" /><path clip-path="url(#clip180)" d="M1481.32 1528.49 Q1484.68 1529.2 1486.55 1531.47 Q1488.45 1533.74 1488.45 1537.07 Q1488.45 1542.19 1484.93 1544.99 Q1481.41 1547.79 1474.93 1547.79 Q1472.76 1547.79 1470.44 1547.35 Q1468.15 1546.93 1465.7 1546.08 L1465.7 1541.56 Q1467.64 1542.7 1469.96 1543.28 Q1472.27 1543.86 1474.79 1543.86 Q1479.19 1543.86 1481.48 1542.12 Q1483.8 1540.38 1483.8 1537.07 Q1483.8 1534.02 1481.65 1532.31 Q1479.52 1530.57 1475.7 1530.57 L1471.67 1530.57 L1471.67 1526.73 L1475.88 1526.73 Q1479.33 1526.73 1481.16 1525.36 Q1482.99 1523.97 1482.99 1521.38 Q1482.99 1518.72 1481.09 1517.31 Q1479.22 1515.87 1475.7 1515.87 Q1473.78 1515.87 1471.58 1516.29 Q1469.38 1516.7 1466.74 1517.58 L1466.74 1513.42 Q1469.4 1512.68 1471.72 1512.31 Q1474.05 1511.93 1476.11 1511.93 Q1481.44 1511.93 1484.54 1514.37 Q1487.64 1516.77 1487.64 1520.89 Q1487.64 1523.76 1486 1525.75 Q1484.35 1527.72 1481.32 1528.49 Z" fill="#000000" fill-rule="evenodd" fill-opacity="1" /><path clip-path="url(#clip180)" d="M1887.38 1516.63 L1875.57 1535.08 L1887.38 1535.08 L1887.38 1516.63 M1886.15 1512.56 L1892.03 1512.56 L1892.03 1535.08 L1896.96 1535.08 L1896.96 1538.97 L1892.03 1538.97 L1892.03 1547.12 L1887.38 1547.12 L1887.38 1538.97 L1871.78 1538.97 L1871.78 1534.46 L1886.15 1512.56 Z" fill="#000000" fill-rule="evenodd" fill-opacity="1" /><path clip-path="url(#clip180)" d="M2281.94 1512.56 L2300.3 1512.56 L2300.3 1516.5 L2286.22 1516.5 L2286.22 1524.97 Q2287.24 1524.62 2288.26 1524.46 Q2289.28 1524.27 2290.3 1524.27 Q2296.08 1524.27 2299.46 1527.44 Q2302.84 1530.62 2302.84 1536.03 Q2302.84 1541.61 2299.37 1544.71 Q2295.9 1547.79 2289.58 1547.79 Q2287.4 1547.79 2285.13 1547.42 Q2282.89 1547.05 2280.48 1546.31 L2280.48 1541.61 Q2282.56 1542.74 2284.79 1543.3 Q2287.01 1543.86 2289.49 1543.86 Q2293.49 1543.86 2295.83 1541.75 Q2298.17 1539.64 2298.17 1536.03 Q2298.17 1532.42 2295.83 1530.31 Q2293.49 1528.21 2289.49 1528.21 Q2287.61 1528.21 2285.74 1528.62 Q2283.88 1529.04 2281.94 1529.92 L2281.94 1512.56 Z" fill="#000000" fill-rule="evenodd" fill-opacity="1" /><polyline clip-path="url(#clip182)" style="stroke:#000000; stroke-linecap:butt; stroke-linejoin:round; stroke-width:2; stroke-opacity:0.1; fill:none" points="
  194.098,1278.94 2352.76,1278.94 
  "/>
<polyline clip-path="url(#clip182)" style="stroke:#000000; stroke-linecap:butt; stroke-linejoin:round; stroke-width:2; stroke-opacity:0.1; fill:none" points="
  194.098,1022.92 2352.76,1022.92 
  "/>
<polyline clip-path="url(#clip182)" style="stroke:#000000; stroke-linecap:butt; stroke-linejoin:round; stroke-width:2; stroke-opacity:0.1; fill:none" points="
  194.098,766.898 2352.76,766.898 
  "/>
<polyline clip-path="url(#clip182)" style="stroke:#000000; stroke-linecap:butt; stroke-linejoin:round; stroke-width:2; stroke-opacity:0.1; fill:none" points="
  194.098,510.875 2352.76,510.875 
  "/>
<polyline clip-path="url(#clip182)" style="stroke:#000000; stroke-linecap:butt; stroke-linejoin:round; stroke-width:2; stroke-opacity:0.1; fill:none" points="
  194.098,254.852 2352.76,254.852 
  "/>
<polyline clip-path="url(#clip180)" style="stroke:#000000; stroke-linecap:butt; stroke-linejoin:round; stroke-width:4; stroke-opacity:1; fill:none" points="
  194.098,1486.45 194.098,47.2441 
  "/>
<polyline clip-path="url(#clip180)" style="stroke:#000000; stroke-linecap:butt; stroke-linejoin:round; stroke-width:4; stroke-opacity:1; fill:none" points="
  194.098,1278.94 220.002,1278.94 
  "/>
<polyline clip-path="url(#clip180)" style="stroke:#000000; stroke-linecap:butt; stroke-linejoin:round; stroke-width:4; stroke-opacity:1; fill:none" points="
  194.098,1022.92 220.002,1022.92 
  "/>
<polyline clip-path="url(#clip180)" style="stroke:#000000; stroke-linecap:butt; stroke-linejoin:round; stroke-width:4; stroke-opacity:1; fill:none" points="
  194.098,766.898 220.002,766.898 
  "/>
<polyline clip-path="url(#clip180)" style="stroke:#000000; stroke-linecap:butt; stroke-linejoin:round; stroke-width:4; stroke-opacity:1; fill:none" points="
  194.098,510.875 220.002,510.875 
  "/>
<polyline clip-path="url(#clip180)" style="stroke:#000000; stroke-linecap:butt; stroke-linejoin:round; stroke-width:4; stroke-opacity:1; fill:none" points="
  194.098,254.852 220.002,254.852 
  "/>
<path clip-path="url(#clip180)" d="M50.9921 1279.4 L80.6679 1279.4 L80.6679 1283.33 L50.9921 1283.33 L50.9921 1279.4 Z" fill="#000000" fill-rule="evenodd" fill-opacity="1" /><path clip-path="url(#clip180)" d="M100.76 1264.74 Q97.1493 1264.74 95.3206 1268.31 Q93.515 1271.85 93.515 1278.98 Q93.515 1286.09 95.3206 1289.65 Q97.1493 1293.19 100.76 1293.19 Q104.395 1293.19 106.2 1289.65 Q108.029 1286.09 108.029 1278.98 Q108.029 1271.85 106.2 1268.31 Q104.395 1264.74 100.76 1264.74 M100.76 1261.04 Q106.571 1261.04 109.626 1265.65 Q112.705 1270.23 112.705 1278.98 Q112.705 1287.71 109.626 1292.31 Q106.571 1296.9 100.76 1296.9 Q94.9502 1296.9 91.8715 1292.31 Q88.816 1287.71 88.816 1278.98 Q88.816 1270.23 91.8715 1265.65 Q94.9502 1261.04 100.76 1261.04 Z" fill="#000000" fill-rule="evenodd" fill-opacity="1" /><path clip-path="url(#clip180)" d="M120.922 1290.35 L125.807 1290.35 L125.807 1296.22 L120.922 1296.22 L120.922 1290.35 Z" fill="#000000" fill-rule="evenodd" fill-opacity="1" /><path clip-path="url(#clip180)" d="M146.57 1277.08 Q143.422 1277.08 141.57 1279.23 Q139.742 1281.39 139.742 1285.14 Q139.742 1288.86 141.57 1291.04 Q143.422 1293.19 146.57 1293.19 Q149.718 1293.19 151.547 1291.04 Q153.399 1288.86 153.399 1285.14 Q153.399 1281.39 151.547 1279.23 Q149.718 1277.08 146.57 1277.08 M155.853 1262.43 L155.853 1266.69 Q154.093 1265.85 152.288 1265.41 Q150.505 1264.97 148.746 1264.97 Q144.117 1264.97 141.663 1268.1 Q139.232 1271.22 138.885 1277.54 Q140.251 1275.53 142.311 1274.47 Q144.371 1273.38 146.848 1273.38 Q152.056 1273.38 155.066 1276.55 Q158.098 1279.7 158.098 1285.14 Q158.098 1290.46 154.95 1293.68 Q151.802 1296.9 146.57 1296.9 Q140.575 1296.9 137.404 1292.31 Q134.232 1287.71 134.232 1278.98 Q134.232 1270.79 138.121 1265.92 Q142.01 1261.04 148.561 1261.04 Q150.32 1261.04 152.103 1261.39 Q153.908 1261.73 155.853 1262.43 Z" fill="#000000" fill-rule="evenodd" fill-opacity="1" /><path clip-path="url(#clip180)" d="M51.8023 1023.37 L81.4781 1023.37 L81.4781 1027.31 L51.8023 1027.31 L51.8023 1023.37 Z" fill="#000000" fill-rule="evenodd" fill-opacity="1" /><path clip-path="url(#clip180)" d="M101.571 1008.72 Q97.9595 1008.72 96.1308 1012.29 Q94.3252 1015.83 94.3252 1022.96 Q94.3252 1030.06 96.1308 1033.63 Q97.9595 1037.17 101.571 1037.17 Q105.205 1037.17 107.01 1033.63 Q108.839 1030.06 108.839 1022.96 Q108.839 1015.83 107.01 1012.29 Q105.205 1008.72 101.571 1008.72 M101.571 1005.02 Q107.381 1005.02 110.436 1009.62 Q113.515 1014.21 113.515 1022.96 Q113.515 1031.68 110.436 1036.29 Q107.381 1040.87 101.571 1040.87 Q95.7604 1040.87 92.6817 1036.29 Q89.6262 1031.68 89.6262 1022.96 Q89.6262 1014.21 92.6817 1009.62 Q95.7604 1005.02 101.571 1005.02 Z" fill="#000000" fill-rule="evenodd" fill-opacity="1" /><path clip-path="url(#clip180)" d="M121.732 1034.32 L126.617 1034.32 L126.617 1040.2 L121.732 1040.2 L121.732 1034.32 Z" fill="#000000" fill-rule="evenodd" fill-opacity="1" /><path clip-path="url(#clip180)" d="M150.968 1021.57 Q154.325 1022.29 156.2 1024.55 Q158.098 1026.82 158.098 1030.16 Q158.098 1035.27 154.58 1038.07 Q151.061 1040.87 144.58 1040.87 Q142.404 1040.87 140.089 1040.43 Q137.797 1040.02 135.344 1039.16 L135.344 1034.65 Q137.288 1035.78 139.603 1036.36 Q141.918 1036.94 144.441 1036.94 Q148.839 1036.94 151.13 1035.2 Q153.445 1033.47 153.445 1030.16 Q153.445 1027.1 151.293 1025.39 Q149.163 1023.65 145.343 1023.65 L141.316 1023.65 L141.316 1019.81 L145.529 1019.81 Q148.978 1019.81 150.806 1018.44 Q152.635 1017.05 152.635 1014.46 Q152.635 1011.8 150.737 1010.39 Q148.862 1008.95 145.343 1008.95 Q143.422 1008.95 141.223 1009.37 Q139.024 1009.79 136.385 1010.66 L136.385 1006.5 Q139.047 1005.76 141.362 1005.39 Q143.7 1005.02 145.76 1005.02 Q151.084 1005.02 154.186 1007.45 Q157.288 1009.85 157.288 1013.97 Q157.288 1016.85 155.644 1018.84 Q154.001 1020.8 150.968 1021.57 Z" fill="#000000" fill-rule="evenodd" fill-opacity="1" /><path clip-path="url(#clip180)" d="M100.922 752.697 Q97.3113 752.697 95.4826 756.262 Q93.6771 759.804 93.6771 766.933 Q93.6771 774.04 95.4826 777.604 Q97.3113 781.146 100.922 781.146 Q104.557 781.146 106.362 777.604 Q108.191 774.04 108.191 766.933 Q108.191 759.804 106.362 756.262 Q104.557 752.697 100.922 752.697 M100.922 748.993 Q106.733 748.993 109.788 753.6 Q112.867 758.183 112.867 766.933 Q112.867 775.66 109.788 780.266 Q106.733 784.85 100.922 784.85 Q95.1123 784.85 92.0336 780.266 Q88.978 775.66 88.978 766.933 Q88.978 758.183 92.0336 753.6 Q95.1123 748.993 100.922 748.993 Z" fill="#000000" fill-rule="evenodd" fill-opacity="1" /><path clip-path="url(#clip180)" d="M121.084 778.299 L125.969 778.299 L125.969 784.178 L121.084 784.178 L121.084 778.299 Z" fill="#000000" fill-rule="evenodd" fill-opacity="1" /><path clip-path="url(#clip180)" d="M146.154 752.697 Q142.543 752.697 140.714 756.262 Q138.908 759.804 138.908 766.933 Q138.908 774.04 140.714 777.604 Q142.543 781.146 146.154 781.146 Q149.788 781.146 151.593 777.604 Q153.422 774.04 153.422 766.933 Q153.422 759.804 151.593 756.262 Q149.788 752.697 146.154 752.697 M146.154 748.993 Q151.964 748.993 155.019 753.6 Q158.098 758.183 158.098 766.933 Q158.098 775.66 155.019 780.266 Q151.964 784.85 146.154 784.85 Q140.343 784.85 137.265 780.266 Q134.209 775.66 134.209 766.933 Q134.209 758.183 137.265 753.6 Q140.343 748.993 146.154 748.993 Z" fill="#000000" fill-rule="evenodd" fill-opacity="1" /><path clip-path="url(#clip180)" d="M101.571 496.674 Q97.9595 496.674 96.1308 500.239 Q94.3252 503.78 94.3252 510.91 Q94.3252 518.016 96.1308 521.581 Q97.9595 525.123 101.571 525.123 Q105.205 525.123 107.01 521.581 Q108.839 518.016 108.839 510.91 Q108.839 503.78 107.01 500.239 Q105.205 496.674 101.571 496.674 M101.571 492.97 Q107.381 492.97 110.436 497.577 Q113.515 502.16 113.515 510.91 Q113.515 519.637 110.436 524.243 Q107.381 528.827 101.571 528.827 Q95.7604 528.827 92.6817 524.243 Q89.6262 519.637 89.6262 510.91 Q89.6262 502.16 92.6817 497.577 Q95.7604 492.97 101.571 492.97 Z" fill="#000000" fill-rule="evenodd" fill-opacity="1" /><path clip-path="url(#clip180)" d="M121.732 522.276 L126.617 522.276 L126.617 528.155 L121.732 528.155 L121.732 522.276 Z" fill="#000000" fill-rule="evenodd" fill-opacity="1" /><path clip-path="url(#clip180)" d="M150.968 509.521 Q154.325 510.239 156.2 512.507 Q158.098 514.776 158.098 518.109 Q158.098 523.225 154.58 526.026 Q151.061 528.827 144.58 528.827 Q142.404 528.827 140.089 528.387 Q137.797 527.97 135.344 527.114 L135.344 522.6 Q137.288 523.734 139.603 524.313 Q141.918 524.891 144.441 524.891 Q148.839 524.891 151.13 523.155 Q153.445 521.419 153.445 518.109 Q153.445 515.054 151.293 513.341 Q149.163 511.604 145.343 511.604 L141.316 511.604 L141.316 507.762 L145.529 507.762 Q148.978 507.762 150.806 506.396 Q152.635 505.007 152.635 502.415 Q152.635 499.753 150.737 498.341 Q148.862 496.905 145.343 496.905 Q143.422 496.905 141.223 497.322 Q139.024 497.739 136.385 498.618 L136.385 494.452 Q139.047 493.711 141.362 493.341 Q143.7 492.97 145.76 492.97 Q151.084 492.97 154.186 495.401 Q157.288 497.808 157.288 501.929 Q157.288 504.799 155.644 506.79 Q154.001 508.757 150.968 509.521 Z" fill="#000000" fill-rule="evenodd" fill-opacity="1" /><path clip-path="url(#clip180)" d="M100.76 240.651 Q97.1493 240.651 95.3206 244.216 Q93.515 247.757 93.515 254.887 Q93.515 261.993 95.3206 265.558 Q97.1493 269.1 100.76 269.1 Q104.395 269.1 106.2 265.558 Q108.029 261.993 108.029 254.887 Q108.029 247.757 106.2 244.216 Q104.395 240.651 100.76 240.651 M100.76 236.947 Q106.571 236.947 109.626 241.554 Q112.705 246.137 112.705 254.887 Q112.705 263.614 109.626 268.22 Q106.571 272.803 100.76 272.803 Q94.9502 272.803 91.8715 268.22 Q88.816 263.614 88.816 254.887 Q88.816 246.137 91.8715 241.554 Q94.9502 236.947 100.76 236.947 Z" fill="#000000" fill-rule="evenodd" fill-opacity="1" /><path clip-path="url(#clip180)" d="M120.922 266.253 L125.807 266.253 L125.807 272.132 L120.922 272.132 L120.922 266.253 Z" fill="#000000" fill-rule="evenodd" fill-opacity="1" /><path clip-path="url(#clip180)" d="M146.57 252.989 Q143.422 252.989 141.57 255.141 Q139.742 257.294 139.742 261.044 Q139.742 264.771 141.57 266.947 Q143.422 269.1 146.57 269.1 Q149.718 269.1 151.547 266.947 Q153.399 264.771 153.399 261.044 Q153.399 257.294 151.547 255.141 Q149.718 252.989 146.57 252.989 M155.853 238.336 L155.853 242.595 Q154.093 241.762 152.288 241.322 Q150.505 240.882 148.746 240.882 Q144.117 240.882 141.663 244.007 Q139.232 247.132 138.885 253.452 Q140.251 251.438 142.311 250.373 Q144.371 249.285 146.848 249.285 Q152.056 249.285 155.066 252.456 Q158.098 255.604 158.098 261.044 Q158.098 266.368 154.95 269.586 Q151.802 272.803 146.57 272.803 Q140.575 272.803 137.404 268.22 Q134.232 263.614 134.232 254.887 Q134.232 246.692 138.121 241.831 Q142.01 236.947 148.561 236.947 Q150.32 236.947 152.103 237.294 Q153.908 237.642 155.853 238.336 Z" fill="#000000" fill-rule="evenodd" fill-opacity="1" /><polyline clip-path="url(#clip182)" style="stroke:#009af9; stroke-linecap:butt; stroke-linejoin:round; stroke-width:8; stroke-opacity:1; fill:none" points="
  255.192,1080.45 259.265,1094.48 263.338,1108.76 267.411,1123.27 271.484,1137.98 275.557,1152.86 279.63,1167.89 283.703,1183.03 287.776,1198.25 291.849,1213.52 
  295.922,1228.81 299.994,1244.07 304.067,1259.26 308.14,1274.35 312.213,1289.28 316.286,1304.01 320.359,1318.47 324.432,1332.61 328.505,1346.37 332.578,1359.67 
  336.651,1372.44 340.724,1384.58 344.797,1396.01 348.87,1406.61 352.943,1416.28 357.016,1424.88 361.089,1432.26 365.161,1438.25 369.234,1442.66 373.307,1445.25 
  377.38,1445.72 381.453,1443.72 385.526,1438.83 389.599,1430.59 393.672,1418.5 397.745,1402.17 401.818,1381.41 405.891,1356.43 409.964,1327.92 414.037,1297.15 
  418.11,1265.79 422.183,1235.67 426.256,1208.44 430.329,1185.25 434.401,1166.6 438.474,1152.27 442.547,1141.44 446.62,1132.87 450.693,1125.06 454.766,1116.48 
  458.839,1105.7 462.912,1091.51 466.985,1073.03 471.058,1049.81 475.131,1021.89 479.204,989.819 483.277,954.625 487.35,917.697 491.423,880.604 495.496,844.865 
  499.568,811.761 503.641,782.205 507.714,756.704 511.787,735.388 515.86,718.084 519.933,704.415 524.006,693.881 528.079,685.939 532.152,680.049 536.225,675.708 
  540.298,672.473 544.371,669.963 548.444,667.86 552.517,665.909 556.59,663.905 560.663,661.69 564.736,659.145 568.808,656.18 572.881,652.732 576.954,648.757 
  581.027,644.227 585.1,639.126 589.173,633.445 593.246,627.184 597.319,620.348 601.392,612.943 605.465,604.98 609.538,596.473 613.611,587.435 617.684,577.881 
  621.757,567.829 625.83,557.297 629.903,546.302 633.975,534.864 638.048,523.003 642.121,510.74 646.194,498.096 650.267,485.094 654.34,471.757 658.413,458.108 
  662.486,444.17 666.559,429.971 670.632,415.534 674.705,400.887 678.778,386.057 682.851,371.073 686.924,355.965 690.997,340.763 695.07,325.502 699.143,310.215 
  703.215,294.94 707.288,279.716 711.361,264.584 715.434,249.592 719.507,234.787 723.58,220.224 727.653,205.961 731.726,192.062 735.799,178.595 739.872,165.636 
  743.945,153.269 748.018,141.586 752.091,130.689 756.164,120.689 760.237,111.712 764.31,103.9 768.382,97.4123 772.455,92.4387 776.528,89.203 780.601,87.9763 
  784.674,89.0891 788.747,92.9387 792.82,99.9833 796.893,110.709 800.966,125.558 805.039,144.803 809.112,168.395 813.185,195.811 817.258,225.979 821.331,257.344 
  825.404,288.09 829.477,316.468 833.55,341.127 837.622,361.336 841.695,377.077 845.768,388.978 849.841,398.161 853.914,406.056 857.987,414.2 862.06,424.079 
  866.133,436.992 870.206,453.935 874.279,475.516 878.352,501.869 882.425,532.621 886.498,566.894 890.571,603.402 894.644,640.619 898.717,676.984 902.789,711.115 
  906.862,741.962 910.935,768.88 915.008,791.618 919.081,810.255 923.154,825.111 927.227,836.655 931.3,845.42 935.373,851.952 939.446,856.769 943.519,860.337 
  947.592,863.057 951.665,865.267 955.738,867.246 959.811,869.215 963.884,871.345 967.957,873.769 972.029,876.585 976.102,879.864 980.175,883.657 984.248,887.996 
  988.321,892.903 992.394,898.387 996.467,904.452 1000.54,911.095 1004.61,918.309 1008.69,926.084 1012.76,934.407 1016.83,943.266 1020.9,952.646 1024.98,962.531 
  1029.05,972.902 1033.12,983.742 1037.2,995.032 1041.27,1006.75 1045.34,1018.88 1049.42,1031.39 1053.49,1044.28 1057.56,1057.5 1061.63,1071.05 1065.71,1084.89 
  1069.78,1099 1073.85,1113.36 1077.93,1127.93 1082,1142.7 1086.07,1157.64 1090.14,1172.7 1094.22,1187.87 1098.29,1203.12 1102.36,1218.4 1106.44,1233.68 
  1110.51,1248.92 1114.58,1264.08 1118.66,1279.13 1122.73,1293.99 1126.8,1308.64 1130.87,1323.01 1134.95,1337.03 1139.02,1350.65 1143.09,1363.79 1147.17,1376.36 
  1151.24,1388.28 1155.31,1399.45 1159.38,1409.77 1163.46,1419.1 1167.53,1427.32 1171.6,1434.28 1175.68,1439.79 1179.75,1443.64 1183.82,1445.57 1187.9,1445.29 
  1191.97,1442.42 1196.04,1436.51 1200.11,1427.08 1204.19,1413.67 1208.26,1395.93 1212.33,1373.78 1216.41,1347.57 1220.48,1318.19 1224.55,1287.04 1228.62,1255.88 
  1232.7,1226.53 1236.77,1200.5 1240.84,1178.74 1244.92,1161.52 1248.99,1148.41 1253.06,1138.44 1257.14,1130.26 1261.21,1122.35 1265.28,1113.2 1269.35,1101.43 
  1273.43,1085.92 1277.5,1065.95 1281.57,1041.19 1285.65,1011.86 1289.72,978.664 1293.79,942.762 1297.86,905.625 1301.94,868.823 1306.01,833.816 1310.08,801.777 
  1314.16,773.491 1318.23,749.336 1322.3,729.336 1326.38,713.244 1330.45,700.633 1334.52,690.984 1338.59,683.75 1342.67,678.402 1346.74,674.454 1350.81,671.483 
  1354.89,669.129 1358.96,667.096 1363.03,665.144 1367.1,663.084 1371.18,660.771 1375.25,658.097 1379.32,654.981 1383.4,651.367 1387.47,647.217 1391.54,642.506 
  1395.62,637.22 1399.69,631.354 1403.76,624.909 1407.83,617.89 1411.91,610.306 1415.98,602.169 1420.05,593.493 1424.13,584.291 1428.2,574.579 1432.27,564.374 
  1436.34,553.694 1440.42,542.558 1444.49,530.986 1448.56,518.998 1452.64,506.615 1456.71,493.86 1460.78,480.753 1464.86,467.318 1468.93,453.578 1473,439.56 
  1477.07,425.287 1481.15,410.787 1485.22,396.085 1489.29,381.21 1493.37,366.19 1497.44,351.055 1501.51,335.838 1505.58,320.572 1509.66,305.293 1513.73,290.038 
  1517.8,274.849 1521.88,259.767 1525.95,244.84 1530.02,230.117 1534.1,215.655 1538.17,201.512 1542.24,187.754 1546.31,174.453 1550.39,161.685 1554.46,149.538 
  1558.53,138.105 1562.61,127.492 1566.68,117.815 1570.75,109.205 1574.82,101.807 1578.9,95.7914 1582.97,91.3567 1587.04,88.7416 1591.12,88.2347 1595.19,90.1877 
  1599.26,95.0189 1603.34,103.2 1607.41,115.212 1611.48,131.457 1615.55,152.122 1619.63,177.019 1623.7,205.45 1627.77,236.174 1631.85,267.523 1635.92,297.67 
  1639.99,324.963 1644.06,348.235 1648.14,366.987 1652.21,381.418 1656.28,392.335 1660.36,400.976 1664.43,408.822 1668.5,417.408 1672.58,428.169 1676.65,442.312 
  1680.72,460.721 1684.79,483.853 1688.87,511.684 1692.94,543.671 1697.01,578.797 1701.09,615.676 1705.16,652.749 1709.23,688.497 1713.3,721.638 1717.38,751.25 
  1721.45,776.819 1725.52,798.21 1729.6,815.588 1733.67,829.328 1737.74,839.924 1741.81,847.92 1745.89,853.856 1749.96,858.233 1754.03,861.497 1758.11,864.028 
  1762.18,866.144 1766.25,868.103 1770.33,870.11 1774.4,872.324 1778.47,874.866 1782.54,877.825 1786.62,881.265 1790.69,885.229 1794.76,889.748 1798.84,894.836 
  1802.91,900.503 1806.98,906.75 1811.05,913.573 1815.13,920.964 1819.2,928.912 1823.27,937.405 1827.35,946.428 1831.42,955.965 1835.49,966.001 1839.57,976.518 
  1843.64,987.498 1847.71,998.921 1851.78,1010.77 1855.86,1023.01 1859.93,1035.64 1864,1048.63 1868.08,1061.95 1872.15,1075.58 1876.22,1089.5 1880.29,1103.69 
  1884.37,1118.11 1888.44,1132.74 1892.51,1147.55 1896.59,1162.52 1900.66,1177.61 1904.73,1192.8 1908.81,1208.05 1912.88,1223.32 1916.95,1238.58 1921.02,1253.79 
  1925.1,1268.91 1929.17,1283.89 1933.24,1298.68 1937.32,1313.23 1941.39,1327.48 1945.46,1341.37 1949.53,1354.84 1953.61,1367.79 1957.68,1380.15 1961.75,1391.84 
  1965.83,1402.74 1969.9,1412.74 1973.97,1421.73 1978.05,1429.55 1982.12,1436.06 1986.19,1441.05 1990.26,1444.31 1994.34,1445.57 1998.41,1444.5 2002.48,1440.7 
  2006.56,1433.72 2010.63,1423.07 2014.7,1408.3 2018.77,1389.15 2022.85,1365.65 2026.92,1338.33 2030.99,1308.22 2035.07,1276.9 2039.14,1246.15 2043.21,1217.72 
  2047.29,1192.99 2051.36,1172.68 2055.43,1156.82 2059.5,1144.82 2063.58,1135.55 2067.65,1127.59 2071.72,1119.42 2075.8,1109.55 2079.87,1096.67 2083.94,1079.79 
  2088.01,1058.3 2092.09,1032.05 2096.16,1001.4 2100.23,967.218 2104.31,930.779 2108.38,893.606 2112.45,857.253 2116.53,823.105 2120.6,792.214 2124.67,765.232 
  2128.74,742.418 2132.82,723.699 2136.89,708.763 2140.96,697.148 2145.04,688.32 2149.11,681.735 2153.18,676.875 2157.25,673.274 2161.33,670.53 2165.4,668.303 
  2169.47,666.315 2173.55,664.344 2177.62,662.217 2181.69,659.8 2185.77,656.994 2189.84,653.727 2193.91,649.948 2197.98,645.624 2202.06,640.734 2206.13,635.268 
  2210.2,629.222 2214.28,622.598 2218.35,615.404 2222.42,607.649 2226.49,599.344 2230.57,590.505 2234.64,581.144 2238.71,571.28 2242.79,560.928 2246.86,550.108 
  2250.93,538.838 2255.01,527.139 2259.08,515.03 2263.15,502.533 2267.22,489.67 2271.3,476.463 2275.37,462.936 2279.44,449.113 2283.52,435.019 2287.59,420.678 
  2291.66,406.118 
  "/>
<path clip-path="url(#clip180)" d="
M1612.11 216.178 L2280.8 216.178 L2280.8 95.2176 L1612.11 95.2176  Z
  " fill="#ffffff" fill-rule="evenodd" fill-opacity="1"/>
<polyline clip-path="url(#clip180)" style="stroke:#000000; stroke-linecap:butt; stroke-linejoin:round; stroke-width:4; stroke-opacity:1; fill:none" points="
  1612.11,216.178 2280.8,216.178 2280.8,95.2176 1612.11,95.2176 1612.11,216.178 
  "/>
<polyline clip-path="url(#clip180)" style="stroke:#009af9; stroke-linecap:butt; stroke-linejoin:round; stroke-width:4; stroke-opacity:1; fill:none" points="
  1636.09,155.698 1780.01,155.698 
  "/>
<path clip-path="url(#clip180)" d="M1817.39 159.945 Q1812.23 159.945 1810.24 161.126 Q1808.25 162.306 1808.25 165.154 Q1808.25 167.422 1809.73 168.765 Q1811.24 170.084 1813.8 170.084 Q1817.35 170.084 1819.48 167.584 Q1821.63 165.061 1821.63 160.894 L1821.63 159.945 L1817.39 159.945 M1825.89 158.186 L1825.89 172.978 L1821.63 172.978 L1821.63 169.042 Q1820.17 171.403 1817.99 172.538 Q1815.82 173.649 1812.67 173.649 Q1808.69 173.649 1806.33 171.427 Q1803.99 169.181 1803.99 165.431 Q1803.99 161.056 1806.91 158.834 Q1809.85 156.612 1815.66 156.612 L1821.63 156.612 L1821.63 156.195 Q1821.63 153.255 1819.68 151.658 Q1817.76 150.038 1814.27 150.038 Q1812.05 150.038 1809.94 150.57 Q1807.83 151.103 1805.89 152.167 L1805.89 148.232 Q1808.23 147.33 1810.43 146.89 Q1812.62 146.427 1814.71 146.427 Q1820.33 146.427 1823.11 149.343 Q1825.89 152.26 1825.89 158.186 Z" fill="#000000" fill-rule="evenodd" fill-opacity="1" /><path clip-path="url(#clip180)" d="M1853.32 148.047 L1853.32 152.029 Q1851.51 151.033 1849.68 150.547 Q1847.88 150.038 1846.03 150.038 Q1841.88 150.038 1839.59 152.677 Q1837.3 155.292 1837.3 160.038 Q1837.3 164.783 1839.59 167.422 Q1841.88 170.038 1846.03 170.038 Q1847.88 170.038 1849.68 169.552 Q1851.51 169.042 1853.32 168.047 L1853.32 171.982 Q1851.54 172.816 1849.61 173.232 Q1847.72 173.649 1845.56 173.649 Q1839.71 173.649 1836.26 169.968 Q1832.81 166.288 1832.81 160.038 Q1832.81 153.695 1836.28 150.061 Q1839.78 146.427 1845.84 146.427 Q1847.81 146.427 1849.68 146.843 Q1851.56 147.237 1853.32 148.047 Z" fill="#000000" fill-rule="evenodd" fill-opacity="1" /><path clip-path="url(#clip180)" d="M1879.38 148.047 L1879.38 152.029 Q1877.58 151.033 1875.75 150.547 Q1873.94 150.038 1872.09 150.038 Q1867.95 150.038 1865.66 152.677 Q1863.36 155.292 1863.36 160.038 Q1863.36 164.783 1865.66 167.422 Q1867.95 170.038 1872.09 170.038 Q1873.94 170.038 1875.75 169.552 Q1877.58 169.042 1879.38 168.047 L1879.38 171.982 Q1877.6 172.816 1875.68 173.232 Q1873.78 173.649 1871.63 173.649 Q1865.77 173.649 1862.32 169.968 Q1858.87 166.288 1858.87 160.038 Q1858.87 153.695 1862.35 150.061 Q1865.84 146.427 1871.91 146.427 Q1873.87 146.427 1875.75 146.843 Q1877.62 147.237 1879.38 148.047 Z" fill="#000000" fill-rule="evenodd" fill-opacity="1" /><path clip-path="url(#clip180)" d="M1927.92 141.08 L1927.92 146.01 Q1925.56 143.811 1922.88 142.723 Q1920.22 141.635 1917.21 141.635 Q1911.28 141.635 1908.13 145.269 Q1904.99 148.88 1904.99 155.732 Q1904.99 162.561 1908.13 166.195 Q1911.28 169.806 1917.21 169.806 Q1920.22 169.806 1922.88 168.718 Q1925.56 167.63 1927.92 165.431 L1927.92 170.316 Q1925.47 171.982 1922.72 172.816 Q1919.98 173.649 1916.93 173.649 Q1909.08 173.649 1904.57 168.857 Q1900.05 164.042 1900.05 155.732 Q1900.05 147.399 1904.57 142.607 Q1909.08 137.793 1916.93 137.793 Q1920.03 137.793 1922.76 138.626 Q1925.52 139.436 1927.92 141.08 Z" fill="#000000" fill-rule="evenodd" fill-opacity="1" /><path clip-path="url(#clip180)" d="M1955.86 139.552 L1955.86 144.112 Q1953.2 142.839 1950.84 142.214 Q1948.48 141.589 1946.28 141.589 Q1942.46 141.589 1940.38 143.07 Q1938.32 144.552 1938.32 147.283 Q1938.32 149.575 1939.68 150.755 Q1941.07 151.913 1944.92 152.63 L1947.74 153.209 Q1952.97 154.205 1955.45 156.728 Q1957.95 159.228 1957.95 163.441 Q1957.95 168.464 1954.57 171.056 Q1951.21 173.649 1944.71 173.649 Q1942.25 173.649 1939.48 173.093 Q1936.72 172.538 1933.76 171.45 L1933.76 166.635 Q1936.61 168.232 1939.34 169.042 Q1942.07 169.853 1944.71 169.853 Q1948.71 169.853 1950.89 168.279 Q1953.06 166.704 1953.06 163.788 Q1953.06 161.242 1951.49 159.806 Q1949.94 158.371 1946.37 157.654 L1943.53 157.098 Q1938.3 156.056 1935.96 153.834 Q1933.62 151.612 1933.62 147.654 Q1933.62 143.07 1936.84 140.431 Q1940.08 137.793 1945.75 137.793 Q1948.18 137.793 1950.7 138.232 Q1953.23 138.672 1955.86 139.552 Z" fill="#000000" fill-rule="evenodd" fill-opacity="1" /><path clip-path="url(#clip180)" d="M1962.9 158.093 L1975.38 158.093 L1975.38 161.89 L1962.9 161.89 L1962.9 158.093 Z" fill="#000000" fill-rule="evenodd" fill-opacity="1" /><path clip-path="url(#clip180)" d="M1982.35 138.418 L1988.64 138.418 L2003.97 167.329 L2003.97 138.418 L2008.5 138.418 L2008.5 172.978 L2002.21 172.978 L1986.88 144.066 L1986.88 172.978 L1982.35 172.978 L1982.35 138.418 Z" fill="#000000" fill-rule="evenodd" fill-opacity="1" /><path clip-path="url(#clip180)" d="M2039.8 158.95 L2039.8 161.033 L2020.22 161.033 Q2020.49 165.431 2022.85 167.746 Q2025.24 170.038 2029.48 170.038 Q2031.93 170.038 2034.22 169.436 Q2036.54 168.834 2038.8 167.63 L2038.8 171.658 Q2036.51 172.63 2034.1 173.14 Q2031.7 173.649 2029.22 173.649 Q2023.02 173.649 2019.38 170.038 Q2015.77 166.427 2015.77 160.269 Q2015.77 153.904 2019.2 150.177 Q2022.65 146.427 2028.48 146.427 Q2033.71 146.427 2036.74 149.806 Q2039.8 153.163 2039.8 158.95 M2035.54 157.7 Q2035.49 154.205 2033.57 152.121 Q2031.67 150.038 2028.53 150.038 Q2024.96 150.038 2022.81 152.052 Q2020.68 154.066 2020.35 157.723 L2035.54 157.7 Z" fill="#000000" fill-rule="evenodd" fill-opacity="1" /><path clip-path="url(#clip180)" d="M2046.35 162.746 L2046.35 147.052 L2050.61 147.052 L2050.61 162.584 Q2050.61 166.265 2052.04 168.116 Q2053.48 169.945 2056.35 169.945 Q2059.8 169.945 2061.79 167.746 Q2063.8 165.547 2063.8 161.751 L2063.8 147.052 L2068.06 147.052 L2068.06 172.978 L2063.8 172.978 L2063.8 168.996 Q2062.25 171.357 2060.19 172.515 Q2058.16 173.649 2055.45 173.649 Q2050.98 173.649 2048.66 170.871 Q2046.35 168.093 2046.35 162.746 M2057.07 146.427 L2057.07 146.427 Z" fill="#000000" fill-rule="evenodd" fill-opacity="1" /><path clip-path="url(#clip180)" d="M2091.86 151.033 Q2091.14 150.617 2090.28 150.431 Q2089.45 150.223 2088.43 150.223 Q2084.82 150.223 2082.88 152.584 Q2080.96 154.922 2080.96 159.32 L2080.96 172.978 L2076.67 172.978 L2076.67 147.052 L2080.96 147.052 L2080.96 151.08 Q2082.3 148.718 2084.45 147.584 Q2086.6 146.427 2089.68 146.427 Q2090.12 146.427 2090.66 146.496 Q2091.19 146.543 2091.84 146.658 L2091.86 151.033 Z" fill="#000000" fill-rule="evenodd" fill-opacity="1" /><path clip-path="url(#clip180)" d="M2108.11 159.945 Q2102.95 159.945 2100.96 161.126 Q2098.97 162.306 2098.97 165.154 Q2098.97 167.422 2100.45 168.765 Q2101.95 170.084 2104.52 170.084 Q2108.06 170.084 2110.19 167.584 Q2112.35 165.061 2112.35 160.894 L2112.35 159.945 L2108.11 159.945 M2116.6 158.186 L2116.6 172.978 L2112.35 172.978 L2112.35 169.042 Q2110.89 171.403 2108.71 172.538 Q2106.53 173.649 2103.39 173.649 Q2099.41 173.649 2097.04 171.427 Q2094.71 169.181 2094.71 165.431 Q2094.71 161.056 2097.62 158.834 Q2100.56 156.612 2106.37 156.612 L2112.35 156.612 L2112.35 156.195 Q2112.35 153.255 2110.4 151.658 Q2108.48 150.038 2104.98 150.038 Q2102.76 150.038 2100.66 150.57 Q2098.55 151.103 2096.6 152.167 L2096.6 148.232 Q2098.94 147.33 2101.14 146.89 Q2103.34 146.427 2105.42 146.427 Q2111.05 146.427 2113.83 149.343 Q2116.6 152.26 2116.6 158.186 Z" fill="#000000" fill-rule="evenodd" fill-opacity="1" /><path clip-path="url(#clip180)" d="M2125.38 136.959 L2129.64 136.959 L2129.64 172.978 L2125.38 172.978 L2125.38 136.959 Z" fill="#000000" fill-rule="evenodd" fill-opacity="1" /><path clip-path="url(#clip180)" d="M2138.73 138.418 L2158.59 138.418 L2158.59 142.353 L2143.41 142.353 L2143.41 152.538 L2157.11 152.538 L2157.11 156.473 L2143.41 156.473 L2143.41 172.978 L2138.73 172.978 L2138.73 138.418 Z" fill="#000000" fill-rule="evenodd" fill-opacity="1" /><path clip-path="url(#clip180)" d="M2166 138.418 L2172.97 138.418 L2181.79 161.936 L2190.65 138.418 L2197.62 138.418 L2197.62 172.978 L2193.06 172.978 L2193.06 142.63 L2184.15 166.334 L2179.45 166.334 L2170.54 142.63 L2170.54 172.978 L2166 172.978 L2166 138.418 Z" fill="#000000" fill-rule="evenodd" fill-opacity="1" /><path clip-path="url(#clip180)" d="M2206.37 138.418 L2211.07 138.418 L2211.07 159.413 Q2211.07 164.968 2213.09 167.422 Q2215.1 169.853 2219.61 169.853 Q2224.1 169.853 2226.12 167.422 Q2228.13 164.968 2228.13 159.413 L2228.13 138.418 L2232.83 138.418 L2232.83 159.992 Q2232.83 166.751 2229.47 170.2 Q2226.14 173.649 2219.61 173.649 Q2213.06 173.649 2209.71 170.2 Q2206.37 166.751 2206.37 159.992 L2206.37 138.418 Z" fill="#000000" fill-rule="evenodd" fill-opacity="1" /></svg>
