<?xml version="1.0" encoding="utf-8"?>
<svg xmlns="http://www.w3.org/2000/svg" xmlns:xlink="http://www.w3.org/1999/xlink" width="600" height="400" viewBox="0 0 2400 1600">
<defs>
  <clipPath id="clip100">
    <rect x="0" y="0" width="2400" height="1600"/>
  </clipPath>
</defs>
<path clip-path="url(#clip100)" d="
M0 1600 L2400 1600 L2400 0 L0 0  Z
  " fill="#ffffff" fill-rule="evenodd" fill-opacity="1"/>
<defs>
  <clipPath id="clip101">
    <rect x="480" y="0" width="1681" height="1600"/>
  </clipPath>
</defs>
<path clip-path="url(#clip100)" d="
M224.098 1486.45 L2352.76 1486.45 L2352.76 47.2441 L224.098 47.2441  Z
  " fill="#ffffff" fill-rule="evenodd" fill-opacity="1"/>
<defs>
  <clipPath id="clip102">
    <rect x="224" y="47" width="2130" height="1440"/>
  </clipPath>
</defs>
<polyline clip-path="url(#clip102)" style="stroke:#000000; stroke-linecap:butt; stroke-linejoin:round; stroke-width:2; stroke-opacity:0.1; fill:none" points="
  284.343,1486.45 284.343,47.2441 
  "/>
<polyline clip-path="url(#clip102)" style="stroke:#000000; stroke-linecap:butt; stroke-linejoin:round; stroke-width:2; stroke-opacity:0.1; fill:none" points="
  685.977,1486.45 685.977,47.2441 
  "/>
<polyline clip-path="url(#clip102)" style="stroke:#000000; stroke-linecap:butt; stroke-linejoin:round; stroke-width:2; stroke-opacity:0.1; fill:none" points="
  1087.61,1486.45 1087.61,47.2441 
  "/>
<polyline clip-path="url(#clip102)" style="stroke:#000000; stroke-linecap:butt; stroke-linejoin:round; stroke-width:2; stroke-opacity:0.1; fill:none" points="
  1489.24,1486.45 1489.24,47.2441 
  "/>
<polyline clip-path="url(#clip102)" style="stroke:#000000; stroke-linecap:butt; stroke-linejoin:round; stroke-width:2; stroke-opacity:0.1; fill:none" points="
  1890.88,1486.45 1890.88,47.2441 
  "/>
<polyline clip-path="url(#clip102)" style="stroke:#000000; stroke-linecap:butt; stroke-linejoin:round; stroke-width:2; stroke-opacity:0.1; fill:none" points="
  2292.51,1486.45 2292.51,47.2441 
  "/>
<polyline clip-path="url(#clip100)" style="stroke:#000000; stroke-linecap:butt; stroke-linejoin:round; stroke-width:4; stroke-opacity:1; fill:none" points="
  224.098,1486.45 2352.76,1486.45 
  "/>
<polyline clip-path="url(#clip100)" style="stroke:#000000; stroke-linecap:butt; stroke-linejoin:round; stroke-width:4; stroke-opacity:1; fill:none" points="
  284.343,1486.45 284.343,1467.55 
  "/>
<polyline clip-path="url(#clip100)" style="stroke:#000000; stroke-linecap:butt; stroke-linejoin:round; stroke-width:4; stroke-opacity:1; fill:none" points="
  685.977,1486.45 685.977,1467.55 
  "/>
<polyline clip-path="url(#clip100)" style="stroke:#000000; stroke-linecap:butt; stroke-linejoin:round; stroke-width:4; stroke-opacity:1; fill:none" points="
  1087.61,1486.45 1087.61,1467.55 
  "/>
<polyline clip-path="url(#clip100)" style="stroke:#000000; stroke-linecap:butt; stroke-linejoin:round; stroke-width:4; stroke-opacity:1; fill:none" points="
  1489.24,1486.45 1489.24,1467.55 
  "/>
<polyline clip-path="url(#clip100)" style="stroke:#000000; stroke-linecap:butt; stroke-linejoin:round; stroke-width:4; stroke-opacity:1; fill:none" points="
  1890.88,1486.45 1890.88,1467.55 
  "/>
<polyline clip-path="url(#clip100)" style="stroke:#000000; stroke-linecap:butt; stroke-linejoin:round; stroke-width:4; stroke-opacity:1; fill:none" points="
  2292.51,1486.45 2292.51,1467.55 
  "/>
<path clip-path="url(#clip100)" d="M284.343 1517.37 Q280.732 1517.37 278.903 1520.93 Q277.098 1524.47 277.098 1531.6 Q277.098 1538.71 278.903 1542.27 Q280.732 1545.82 284.343 1545.82 Q287.977 1545.82 289.783 1542.27 Q291.611 1538.71 291.611 1531.6 Q291.611 1524.47 289.783 1520.93 Q287.977 1517.37 284.343 1517.37 M284.343 1513.66 Q290.153 1513.66 293.209 1518.27 Q296.287 1522.85 296.287 1531.6 Q296.287 1540.33 293.209 1544.94 Q290.153 1549.52 284.343 1549.52 Q278.533 1549.52 275.454 1544.94 Q272.399 1540.33 272.399 1531.6 Q272.399 1522.85 275.454 1518.27 Q278.533 1513.66 284.343 1513.66 Z" fill="#000000" fill-rule="evenodd" fill-opacity="1" /><path clip-path="url(#clip100)" d="M676.358 1544.91 L683.997 1544.91 L683.997 1518.55 L675.687 1520.21 L675.687 1515.95 L683.951 1514.29 L688.627 1514.29 L688.627 1544.91 L696.266 1544.91 L696.266 1548.85 L676.358 1548.85 L676.358 1544.91 Z" fill="#000000" fill-rule="evenodd" fill-opacity="1" /><path clip-path="url(#clip100)" d="M1082.26 1544.91 L1098.58 1544.91 L1098.58 1548.85 L1076.64 1548.85 L1076.64 1544.91 Q1079.3 1542.16 1083.88 1537.53 Q1088.49 1532.88 1089.67 1531.53 Q1091.92 1529.01 1092.8 1527.27 Q1093.7 1525.51 1093.7 1523.82 Q1093.7 1521.07 1091.75 1519.33 Q1089.83 1517.6 1086.73 1517.6 Q1084.53 1517.6 1082.08 1518.36 Q1079.65 1519.13 1076.87 1520.68 L1076.87 1515.95 Q1079.69 1514.82 1082.15 1514.24 Q1084.6 1513.66 1086.64 1513.66 Q1092.01 1513.66 1095.2 1516.35 Q1098.4 1519.03 1098.4 1523.52 Q1098.4 1525.65 1097.59 1527.57 Q1096.8 1529.47 1094.69 1532.07 Q1094.11 1532.74 1091.01 1535.95 Q1087.91 1539.15 1082.26 1544.91 Z" fill="#000000" fill-rule="evenodd" fill-opacity="1" /><path clip-path="url(#clip100)" d="M1493.49 1530.21 Q1496.85 1530.93 1498.72 1533.2 Q1500.62 1535.47 1500.62 1538.8 Q1500.62 1543.92 1497.1 1546.72 Q1493.58 1549.52 1487.1 1549.52 Q1484.93 1549.52 1482.61 1549.08 Q1480.32 1548.66 1477.87 1547.81 L1477.87 1543.29 Q1479.81 1544.43 1482.13 1545.01 Q1484.44 1545.58 1486.96 1545.58 Q1491.36 1545.58 1493.65 1543.85 Q1495.97 1542.11 1495.97 1538.8 Q1495.97 1535.75 1493.82 1534.03 Q1491.69 1532.3 1487.87 1532.3 L1483.84 1532.3 L1483.84 1528.45 L1488.05 1528.45 Q1491.5 1528.45 1493.33 1527.09 Q1495.16 1525.7 1495.16 1523.11 Q1495.16 1520.45 1493.26 1519.03 Q1491.38 1517.6 1487.87 1517.6 Q1485.95 1517.6 1483.75 1518.01 Q1481.55 1518.43 1478.91 1519.31 L1478.91 1515.14 Q1481.57 1514.4 1483.88 1514.03 Q1486.22 1513.66 1488.28 1513.66 Q1493.61 1513.66 1496.71 1516.09 Q1499.81 1518.5 1499.81 1522.62 Q1499.81 1525.49 1498.17 1527.48 Q1496.52 1529.45 1493.49 1530.21 Z" fill="#000000" fill-rule="evenodd" fill-opacity="1" /><path clip-path="url(#clip100)" d="M1893.89 1518.36 L1882.08 1536.81 L1893.89 1536.81 L1893.89 1518.36 M1892.66 1514.29 L1898.54 1514.29 L1898.54 1536.81 L1903.47 1536.81 L1903.47 1540.7 L1898.54 1540.7 L1898.54 1548.85 L1893.89 1548.85 L1893.89 1540.7 L1878.28 1540.7 L1878.28 1536.19 L1892.66 1514.29 Z" fill="#000000" fill-rule="evenodd" fill-opacity="1" /><path clip-path="url(#clip100)" d="M2282.79 1514.29 L2301.15 1514.29 L2301.15 1518.22 L2287.07 1518.22 L2287.07 1526.7 Q2288.09 1526.35 2289.11 1526.19 Q2290.13 1526 2291.15 1526 Q2296.93 1526 2300.31 1529.17 Q2303.69 1532.34 2303.69 1537.76 Q2303.69 1543.34 2300.22 1546.44 Q2296.75 1549.52 2290.43 1549.52 Q2288.25 1549.52 2285.98 1549.15 Q2283.74 1548.78 2281.33 1548.04 L2281.33 1543.34 Q2283.41 1544.47 2285.64 1545.03 Q2287.86 1545.58 2290.33 1545.58 Q2294.34 1545.58 2296.68 1543.48 Q2299.02 1541.37 2299.02 1537.76 Q2299.02 1534.15 2296.68 1532.04 Q2294.34 1529.94 2290.33 1529.94 Q2288.46 1529.94 2286.58 1530.35 Q2284.73 1530.77 2282.79 1531.65 L2282.79 1514.29 Z" fill="#000000" fill-rule="evenodd" fill-opacity="1" /><polyline clip-path="url(#clip102)" style="stroke:#000000; stroke-linecap:butt; stroke-linejoin:round; stroke-width:2; stroke-opacity:0.1; fill:none" points="
  224.098,1355.49 2352.76,1355.49 
  "/>
<polyline clip-path="url(#clip102)" style="stroke:#000000; stroke-linecap:butt; stroke-linejoin:round; stroke-width:2; stroke-opacity:0.1; fill:none" points="
  224.098,1061.26 2352.76,1061.26 
  "/>
<polyline clip-path="url(#clip102)" style="stroke:#000000; stroke-linecap:butt; stroke-linejoin:round; stroke-width:2; stroke-opacity:0.1; fill:none" points="
  224.098,767.02 2352.76,767.02 
  "/>
<polyline clip-path="url(#clip102)" style="stroke:#000000; stroke-linecap:butt; stroke-linejoin:round; stroke-width:2; stroke-opacity:0.1; fill:none" points="
  224.098,472.784 2352.76,472.784 
  "/>
<polyline clip-path="url(#clip102)" style="stroke:#000000; stroke-linecap:butt; stroke-linejoin:round; stroke-width:2; stroke-opacity:0.1; fill:none" points="
  224.098,178.548 2352.76,178.548 
  "/>
<polyline clip-path="url(#clip100)" style="stroke:#000000; stroke-linecap:butt; stroke-linejoin:round; stroke-width:4; stroke-opacity:1; fill:none" points="
  224.098,1486.45 224.098,47.2441 
  "/>
<polyline clip-path="url(#clip100)" style="stroke:#000000; stroke-linecap:butt; stroke-linejoin:round; stroke-width:4; stroke-opacity:1; fill:none" points="
  224.098,1355.49 242.996,1355.49 
  "/>
<polyline clip-path="url(#clip100)" style="stroke:#000000; stroke-linecap:butt; stroke-linejoin:round; stroke-width:4; stroke-opacity:1; fill:none" points="
  224.098,1061.26 242.996,1061.26 
  "/>
<polyline clip-path="url(#clip100)" style="stroke:#000000; stroke-linecap:butt; stroke-linejoin:round; stroke-width:4; stroke-opacity:1; fill:none" points="
  224.098,767.02 242.996,767.02 
  "/>
<polyline clip-path="url(#clip100)" style="stroke:#000000; stroke-linecap:butt; stroke-linejoin:round; stroke-width:4; stroke-opacity:1; fill:none" points="
  224.098,472.784 242.996,472.784 
  "/>
<polyline clip-path="url(#clip100)" style="stroke:#000000; stroke-linecap:butt; stroke-linejoin:round; stroke-width:4; stroke-opacity:1; fill:none" points="
  224.098,178.548 242.996,178.548 
  "/>
<path clip-path="url(#clip100)" d="M50.9921 1355.94 L80.6679 1355.94 L80.6679 1359.88 L50.9921 1359.88 L50.9921 1355.94 Z" fill="#000000" fill-rule="evenodd" fill-opacity="1" /><path clip-path="url(#clip100)" d="M100.76 1341.29 Q97.1493 1341.29 95.3206 1344.86 Q93.515 1348.4 93.515 1355.53 Q93.515 1362.63 95.3206 1366.2 Q97.1493 1369.74 100.76 1369.74 Q104.395 1369.74 106.2 1366.2 Q108.029 1362.63 108.029 1355.53 Q108.029 1348.4 106.2 1344.86 Q104.395 1341.29 100.76 1341.29 M100.76 1337.59 Q106.571 1337.59 109.626 1342.19 Q112.705 1346.78 112.705 1355.53 Q112.705 1364.25 109.626 1368.86 Q106.571 1373.44 100.76 1373.44 Q94.9502 1373.44 91.8715 1368.86 Q88.816 1364.25 88.816 1355.53 Q88.816 1346.78 91.8715 1342.19 Q94.9502 1337.59 100.76 1337.59 Z" fill="#000000" fill-rule="evenodd" fill-opacity="1" /><path clip-path="url(#clip100)" d="M120.922 1366.89 L125.807 1366.89 L125.807 1372.77 L120.922 1372.77 L120.922 1366.89 Z" fill="#000000" fill-rule="evenodd" fill-opacity="1" /><path clip-path="url(#clip100)" d="M136.038 1338.21 L154.394 1338.21 L154.394 1342.15 L140.32 1342.15 L140.32 1350.62 Q141.339 1350.27 142.357 1350.11 Q143.376 1349.93 144.394 1349.93 Q150.181 1349.93 153.561 1353.1 Q156.941 1356.27 156.941 1361.68 Q156.941 1367.26 153.468 1370.37 Q149.996 1373.44 143.677 1373.44 Q141.501 1373.44 139.232 1373.07 Q136.987 1372.7 134.58 1371.96 L134.58 1367.26 Q136.663 1368.4 138.885 1368.95 Q141.107 1369.51 143.584 1369.51 Q147.589 1369.51 149.927 1367.4 Q152.265 1365.3 152.265 1361.68 Q152.265 1358.07 149.927 1355.97 Q147.589 1353.86 143.584 1353.86 Q141.709 1353.86 139.834 1354.28 Q137.982 1354.69 136.038 1355.57 L136.038 1338.21 Z" fill="#000000" fill-rule="evenodd" fill-opacity="1" /><path clip-path="url(#clip100)" d="M176.153 1341.29 Q172.542 1341.29 170.714 1344.86 Q168.908 1348.4 168.908 1355.53 Q168.908 1362.63 170.714 1366.2 Q172.542 1369.74 176.153 1369.74 Q179.788 1369.74 181.593 1366.2 Q183.422 1362.63 183.422 1355.53 Q183.422 1348.4 181.593 1344.86 Q179.788 1341.29 176.153 1341.29 M176.153 1337.59 Q181.964 1337.59 185.019 1342.19 Q188.098 1346.78 188.098 1355.53 Q188.098 1364.25 185.019 1368.86 Q181.964 1373.44 176.153 1373.44 Q170.343 1373.44 167.265 1368.86 Q164.209 1364.25 164.209 1355.53 Q164.209 1346.78 167.265 1342.19 Q170.343 1337.59 176.153 1337.59 Z" fill="#000000" fill-rule="evenodd" fill-opacity="1" /><path clip-path="url(#clip100)" d="M51.9875 1061.71 L81.6633 1061.71 L81.6633 1065.64 L51.9875 1065.64 L51.9875 1061.71 Z" fill="#000000" fill-rule="evenodd" fill-opacity="1" /><path clip-path="url(#clip100)" d="M101.756 1047.06 Q98.1447 1047.06 96.316 1050.62 Q94.5104 1054.16 94.5104 1061.29 Q94.5104 1068.4 96.316 1071.96 Q98.1447 1075.5 101.756 1075.5 Q105.39 1075.5 107.196 1071.96 Q109.024 1068.4 109.024 1061.29 Q109.024 1054.16 107.196 1050.62 Q105.39 1047.06 101.756 1047.06 M101.756 1043.35 Q107.566 1043.35 110.621 1047.96 Q113.7 1052.54 113.7 1061.29 Q113.7 1070.02 110.621 1074.62 Q107.566 1079.21 101.756 1079.21 Q95.9456 1079.21 92.8669 1074.62 Q89.8114 1070.02 89.8114 1061.29 Q89.8114 1052.54 92.8669 1047.96 Q95.9456 1043.35 101.756 1043.35 Z" fill="#000000" fill-rule="evenodd" fill-opacity="1" /><path clip-path="url(#clip100)" d="M121.918 1072.66 L126.802 1072.66 L126.802 1078.54 L121.918 1078.54 L121.918 1072.66 Z" fill="#000000" fill-rule="evenodd" fill-opacity="1" /><path clip-path="url(#clip100)" d="M141.015 1074.6 L157.334 1074.6 L157.334 1078.54 L135.39 1078.54 L135.39 1074.6 Q138.052 1071.85 142.635 1067.22 Q147.242 1062.56 148.422 1061.22 Q150.668 1058.7 151.547 1056.96 Q152.45 1055.2 152.45 1053.51 Q152.45 1050.76 150.505 1049.02 Q148.584 1047.29 145.482 1047.29 Q143.283 1047.29 140.83 1048.05 Q138.399 1048.81 135.621 1050.37 L135.621 1045.64 Q138.445 1044.51 140.899 1043.93 Q143.353 1043.35 145.39 1043.35 Q150.76 1043.35 153.955 1046.04 Q157.149 1048.72 157.149 1053.21 Q157.149 1055.34 156.339 1057.26 Q155.552 1059.16 153.445 1061.75 Q152.867 1062.43 149.765 1065.64 Q146.663 1068.84 141.015 1074.6 Z" fill="#000000" fill-rule="evenodd" fill-opacity="1" /><path clip-path="url(#clip100)" d="M167.195 1043.98 L185.552 1043.98 L185.552 1047.91 L171.478 1047.91 L171.478 1056.38 Q172.496 1056.04 173.515 1055.87 Q174.533 1055.69 175.552 1055.69 Q181.339 1055.69 184.718 1058.86 Q188.098 1062.03 188.098 1067.45 Q188.098 1073.03 184.626 1076.13 Q181.153 1079.21 174.834 1079.21 Q172.658 1079.21 170.39 1078.84 Q168.144 1078.47 165.737 1077.73 L165.737 1073.03 Q167.82 1074.16 170.042 1074.72 Q172.265 1075.27 174.741 1075.27 Q178.746 1075.27 181.084 1073.17 Q183.422 1071.06 183.422 1067.45 Q183.422 1063.84 181.084 1061.73 Q178.746 1059.62 174.741 1059.62 Q172.866 1059.62 170.991 1060.04 Q169.14 1060.46 167.195 1061.34 L167.195 1043.98 Z" fill="#000000" fill-rule="evenodd" fill-opacity="1" /><path clip-path="url(#clip100)" d="M100.76 752.819 Q97.1493 752.819 95.3206 756.384 Q93.515 759.926 93.515 767.055 Q93.515 774.162 95.3206 777.726 Q97.1493 781.268 100.76 781.268 Q104.395 781.268 106.2 777.726 Q108.029 774.162 108.029 767.055 Q108.029 759.926 106.2 756.384 Q104.395 752.819 100.76 752.819 M100.76 749.115 Q106.571 749.115 109.626 753.722 Q112.705 758.305 112.705 767.055 Q112.705 775.782 109.626 780.388 Q106.571 784.972 100.76 784.972 Q94.9502 784.972 91.8715 780.388 Q88.816 775.782 88.816 767.055 Q88.816 758.305 91.8715 753.722 Q94.9502 749.115 100.76 749.115 Z" fill="#000000" fill-rule="evenodd" fill-opacity="1" /><path clip-path="url(#clip100)" d="M120.922 778.421 L125.807 778.421 L125.807 784.3 L120.922 784.3 L120.922 778.421 Z" fill="#000000" fill-rule="evenodd" fill-opacity="1" /><path clip-path="url(#clip100)" d="M145.992 752.819 Q142.381 752.819 140.552 756.384 Q138.746 759.926 138.746 767.055 Q138.746 774.162 140.552 777.726 Q142.381 781.268 145.992 781.268 Q149.626 781.268 151.431 777.726 Q153.26 774.162 153.26 767.055 Q153.26 759.926 151.431 756.384 Q149.626 752.819 145.992 752.819 M145.992 749.115 Q151.802 749.115 154.857 753.722 Q157.936 758.305 157.936 767.055 Q157.936 775.782 154.857 780.388 Q151.802 784.972 145.992 784.972 Q140.181 784.972 137.103 780.388 Q134.047 775.782 134.047 767.055 Q134.047 758.305 137.103 753.722 Q140.181 749.115 145.992 749.115 Z" fill="#000000" fill-rule="evenodd" fill-opacity="1" /><path clip-path="url(#clip100)" d="M176.153 752.819 Q172.542 752.819 170.714 756.384 Q168.908 759.926 168.908 767.055 Q168.908 774.162 170.714 777.726 Q172.542 781.268 176.153 781.268 Q179.788 781.268 181.593 777.726 Q183.422 774.162 183.422 767.055 Q183.422 759.926 181.593 756.384 Q179.788 752.819 176.153 752.819 M176.153 749.115 Q181.964 749.115 185.019 753.722 Q188.098 758.305 188.098 767.055 Q188.098 775.782 185.019 780.388 Q181.964 784.972 176.153 784.972 Q170.343 784.972 167.265 780.388 Q164.209 775.782 164.209 767.055 Q164.209 758.305 167.265 753.722 Q170.343 749.115 176.153 749.115 Z" fill="#000000" fill-rule="evenodd" fill-opacity="1" /><path clip-path="url(#clip100)" d="M101.756 458.583 Q98.1447 458.583 96.316 462.148 Q94.5104 465.689 94.5104 472.819 Q94.5104 479.925 96.316 483.49 Q98.1447 487.032 101.756 487.032 Q105.39 487.032 107.196 483.49 Q109.024 479.925 109.024 472.819 Q109.024 465.689 107.196 462.148 Q105.39 458.583 101.756 458.583 M101.756 454.879 Q107.566 454.879 110.621 459.486 Q113.7 464.069 113.7 472.819 Q113.7 481.546 110.621 486.152 Q107.566 490.736 101.756 490.736 Q95.9456 490.736 92.8669 486.152 Q89.8114 481.546 89.8114 472.819 Q89.8114 464.069 92.8669 459.486 Q95.9456 454.879 101.756 454.879 Z" fill="#000000" fill-rule="evenodd" fill-opacity="1" /><path clip-path="url(#clip100)" d="M121.918 484.185 L126.802 484.185 L126.802 490.064 L121.918 490.064 L121.918 484.185 Z" fill="#000000" fill-rule="evenodd" fill-opacity="1" /><path clip-path="url(#clip100)" d="M141.015 486.129 L157.334 486.129 L157.334 490.064 L135.39 490.064 L135.39 486.129 Q138.052 483.375 142.635 478.745 Q147.242 474.092 148.422 472.75 Q150.668 470.226 151.547 468.49 Q152.45 466.731 152.45 465.041 Q152.45 462.287 150.505 460.551 Q148.584 458.814 145.482 458.814 Q143.283 458.814 140.83 459.578 Q138.399 460.342 135.621 461.893 L135.621 457.171 Q138.445 456.037 140.899 455.458 Q143.353 454.879 145.39 454.879 Q150.76 454.879 153.955 457.564 Q157.149 460.25 157.149 464.74 Q157.149 466.87 156.339 468.791 Q155.552 470.689 153.445 473.282 Q152.867 473.953 149.765 477.171 Q146.663 480.365 141.015 486.129 Z" fill="#000000" fill-rule="evenodd" fill-opacity="1" /><path clip-path="url(#clip100)" d="M167.195 455.504 L185.552 455.504 L185.552 459.439 L171.478 459.439 L171.478 467.912 Q172.496 467.564 173.515 467.402 Q174.533 467.217 175.552 467.217 Q181.339 467.217 184.718 470.388 Q188.098 473.56 188.098 478.976 Q188.098 484.555 184.626 487.657 Q181.153 490.736 174.834 490.736 Q172.658 490.736 170.39 490.365 Q168.144 489.995 165.737 489.254 L165.737 484.555 Q167.82 485.689 170.042 486.245 Q172.265 486.8 174.741 486.8 Q178.746 486.8 181.084 484.694 Q183.422 482.588 183.422 478.976 Q183.422 475.365 181.084 473.259 Q178.746 471.152 174.741 471.152 Q172.866 471.152 170.991 471.569 Q169.14 471.986 167.195 472.865 L167.195 455.504 Z" fill="#000000" fill-rule="evenodd" fill-opacity="1" /><path clip-path="url(#clip100)" d="M100.76 164.347 Q97.1493 164.347 95.3206 167.912 Q93.515 171.453 93.515 178.583 Q93.515 185.689 95.3206 189.254 Q97.1493 192.796 100.76 192.796 Q104.395 192.796 106.2 189.254 Q108.029 185.689 108.029 178.583 Q108.029 171.453 106.2 167.912 Q104.395 164.347 100.76 164.347 M100.76 160.643 Q106.571 160.643 109.626 165.25 Q112.705 169.833 112.705 178.583 Q112.705 187.31 109.626 191.916 Q106.571 196.499 100.76 196.499 Q94.9502 196.499 91.8715 191.916 Q88.816 187.31 88.816 178.583 Q88.816 169.833 91.8715 165.25 Q94.9502 160.643 100.76 160.643 Z" fill="#000000" fill-rule="evenodd" fill-opacity="1" /><path clip-path="url(#clip100)" d="M120.922 189.949 L125.807 189.949 L125.807 195.828 L120.922 195.828 L120.922 189.949 Z" fill="#000000" fill-rule="evenodd" fill-opacity="1" /><path clip-path="url(#clip100)" d="M136.038 161.268 L154.394 161.268 L154.394 165.203 L140.32 165.203 L140.32 173.676 Q141.339 173.328 142.357 173.166 Q143.376 172.981 144.394 172.981 Q150.181 172.981 153.561 176.152 Q156.941 179.324 156.941 184.74 Q156.941 190.319 153.468 193.421 Q149.996 196.499 143.677 196.499 Q141.501 196.499 139.232 196.129 Q136.987 195.759 134.58 195.018 L134.58 190.319 Q136.663 191.453 138.885 192.009 Q141.107 192.564 143.584 192.564 Q147.589 192.564 149.927 190.458 Q152.265 188.351 152.265 184.74 Q152.265 181.129 149.927 179.023 Q147.589 176.916 143.584 176.916 Q141.709 176.916 139.834 177.333 Q137.982 177.75 136.038 178.629 L136.038 161.268 Z" fill="#000000" fill-rule="evenodd" fill-opacity="1" /><path clip-path="url(#clip100)" d="M176.153 164.347 Q172.542 164.347 170.714 167.912 Q168.908 171.453 168.908 178.583 Q168.908 185.689 170.714 189.254 Q172.542 192.796 176.153 192.796 Q179.788 192.796 181.593 189.254 Q183.422 185.689 183.422 178.583 Q183.422 171.453 181.593 167.912 Q179.788 164.347 176.153 164.347 M176.153 160.643 Q181.964 160.643 185.019 165.25 Q188.098 169.833 188.098 178.583 Q188.098 187.31 185.019 191.916 Q181.964 196.499 176.153 196.499 Q170.343 196.499 167.265 191.916 Q164.209 187.31 164.209 178.583 Q164.209 169.833 167.265 165.25 Q170.343 160.643 176.153 160.643 Z" fill="#000000" fill-rule="evenodd" fill-opacity="1" /><polyline clip-path="url(#clip102)" style="stroke:#009af9; stroke-linecap:butt; stroke-linejoin:round; stroke-width:8; stroke-opacity:1; fill:none" points="
  284.343,889.522 288.359,891.842 292.376,894.863 296.392,898.577 300.408,902.973 304.425,908.038 308.441,913.761 312.457,920.128 316.474,927.128 320.49,934.748 
  324.506,942.978 328.523,951.806 332.539,961.223 336.555,971.224 340.572,981.801 344.588,992.953 348.604,1004.68 352.621,1016.99 356.637,1029.9 360.653,1043.42 
  364.67,1057.57 368.686,1072.38 372.702,1087.9 376.719,1104.18 380.735,1121.26 384.751,1139.22 388.768,1158.13 392.784,1178.05 396.8,1199.04 400.817,1221.17 
  404.833,1244.43 408.849,1268.79 412.866,1294.12 416.882,1320.15 420.898,1346.43 424.915,1372.25 428.931,1396.59 432.947,1418.04 436.964,1434.75 440.98,1444.55 
  444.996,1445.01 449.013,1433.75 453.029,1408.9 457.045,1369.49 461.062,1315.88 465.078,1249.82 469.094,1174.24 473.111,1092.63 477.127,1008.46 481.143,924.624 
  485.16,843.263 489.176,765.77 493.192,693.012 497.209,625.561 501.225,563.882 505.241,508.419 509.258,459.59 513.274,417.729 517.29,383.033 521.307,355.506 
  525.323,334.953 529.339,320.99 533.356,313.085 537.372,310.598 541.388,312.831 545.405,319.063 549.421,328.584 553.437,340.72 557.454,354.85 561.47,370.417 
  565.486,386.937 569.503,403.996 573.519,421.251 577.535,438.427 581.552,455.308 585.568,471.73 589.584,487.57 593.601,502.748 597.617,517.207 601.633,530.912 
  605.65,543.847 609.666,556.003 613.682,567.381 617.699,577.985 621.715,587.819 625.731,596.89 629.748,605.202 633.764,612.76 637.78,619.565 641.797,625.621 
  645.813,630.929 649.829,635.487 653.846,639.297 657.862,642.36 661.878,644.677 665.895,646.25 669.911,647.081 673.927,647.177 677.944,646.541 681.96,645.181 
  685.977,643.106 689.993,640.323 694.009,636.844 698.026,632.679 702.042,627.841 706.058,622.341 710.075,616.191 714.091,609.405 718.107,601.994 722.124,593.969 
  726.14,585.343 730.156,576.124 734.173,566.32 738.189,555.937 742.205,544.978 746.222,533.442 750.238,521.326 754.254,508.62 758.271,495.312 762.287,481.377 
  766.303,466.789 770.32,451.51 774.336,435.495 778.352,418.692 782.369,401.036 786.385,382.462 790.401,362.897 794.418,342.274 798.434,320.539 802.45,297.663 
  806.467,273.668 810.483,248.648 814.499,222.819 818.516,196.561 822.532,170.484 826.548,145.501 830.565,122.886 834.581,104.325 838.597,91.8976 842.614,87.9763 
  846.63,94.9858 850.646,115.032 854.663,149.439 858.679,198.332 862.695,260.418 866.712,333.129 870.728,413.086 874.744,496.747 878.761,580.977 882.777,663.371 
  886.793,742.304 890.81,816.758 894.826,886.081 898.842,949.785 902.859,1007.42 906.875,1058.56 910.891,1102.83 914.908,1139.98 918.924,1169.94 922.94,1192.84 
  926.957,1209 930.973,1218.9 934.989,1223.16 939.006,1222.45 943.022,1217.5 947.038,1209.02 951.055,1197.7 955.071,1184.19 959.087,1169.05 963.104,1152.81 
  967.12,1135.89 971.136,1118.67 975.153,1101.44 979.169,1084.44 983.185,1067.85 987.202,1051.8 991.218,1036.39 995.234,1021.68 999.251,1007.72 1003.27,994.525 
  1007.28,982.105 1011.3,970.464 1015.32,959.6 1019.33,949.507 1023.35,940.179 1027.37,931.612 1031.38,923.8 1035.4,916.74 1039.41,910.43 1043.43,904.871 
  1047.45,900.059 1051.46,895.997 1055.48,892.681 1059.5,890.113 1063.51,888.289 1067.53,887.206 1071.54,886.862 1075.56,887.251 1079.58,888.367 1083.59,890.201 
  1087.61,892.745 1091.63,895.99 1095.64,899.923 1099.66,904.533 1103.68,909.81 1107.69,915.74 1111.71,922.312 1115.72,929.512 1119.74,937.329 1123.76,945.752 
  1127.77,954.769 1131.79,964.373 1135.81,974.559 1139.82,985.321 1143.84,996.659 1147.86,1008.57 1151.87,1021.08 1155.89,1034.18 1159.9,1047.89 1163.92,1062.25 
  1167.94,1077.29 1171.95,1093.05 1175.97,1109.57 1179.99,1126.93 1184,1145.18 1188.02,1164.4 1192.03,1184.66 1196.05,1206.01 1200.07,1228.49 1204.08,1252.11 
  1208.1,1276.8 1212.12,1302.38 1216.13,1328.54 1220.15,1354.76 1224.17,1380.22 1228.18,1403.79 1232.2,1423.92 1236.21,1438.66 1240.23,1445.72 1244.25,1442.65 
  1248.26,1427.2 1252.28,1397.72 1256.3,1353.66 1260.31,1295.82 1264.33,1226.37 1268.35,1148.48 1272.36,1065.71 1276.38,981.388 1280.39,898.175 1284.41,817.953 
  1288.43,741.922 1292.44,670.825 1296.46,605.192 1300.48,545.474 1304.49,492.11 1308.51,445.496 1312.52,405.929 1316.54,373.547 1320.56,348.289 1324.57,329.896 
  1328.59,317.933 1332.61,311.829 1336.62,310.922 1340.64,314.502 1344.66,321.848 1348.67,332.262 1352.69,345.086 1356.7,359.718 1360.72,375.625 1364.74,392.345 
  1368.75,409.488 1372.77,426.733 1376.79,443.824 1380.8,460.563 1384.82,476.8 1388.84,492.429 1392.85,507.373 1396.87,521.587 1400.88,535.041 1404.9,547.721 
  1408.92,559.623 1412.93,570.748 1416.95,581.1 1420.97,590.684 1424.98,599.507 1429,607.573 1433.01,614.886 1437.03,621.448 1441.05,627.261 1445.06,632.325 
  1449.08,636.641 1453.1,640.208 1457.11,643.029 1461.13,645.105 1465.15,646.438 1469.16,647.032 1473.18,646.892 1477.19,646.023 1481.21,644.432 1485.23,642.129 
  1489.24,639.122 1493.26,635.423 1497.28,631.042 1501.29,625.992 1505.31,620.285 1509.33,613.932 1513.34,606.947 1517.36,599.341 1521.37,591.125 1525.39,582.312 
  1529.41,572.909 1533.42,562.924 1537.44,552.361 1541.46,541.222 1545.47,529.507 1549.49,517.209 1553.51,504.318 1557.52,490.817 1561.54,476.682 1565.55,461.884 
  1569.57,446.38 1573.59,430.123 1577.6,413.058 1581.62,395.12 1585.64,376.24 1589.65,356.347 1593.67,335.378 1597.68,313.286 1601.7,290.053 1605.72,265.723 
  1609.73,240.427 1613.75,214.425 1617.77,188.168 1621.78,162.356 1625.8,138.012 1629.82,116.538 1633.83,99.7519 1637.85,89.8432 1641.86,89.2293 1645.88,100.274 
  1649.9,124.879 1653.91,164.014 1657.93,217.352 1661.95,283.165 1665.96,358.561 1669.98,440.042 1674,524.149 1678.01,607.965 1682.03,689.343 1686.04,766.875 
  1690.06,839.686 1694.08,907.203 1698.09,968.957 1702.11,1024.5 1706.13,1073.43 1710.14,1115.4 1714.16,1150.21 1718.17,1177.86 1722.19,1198.54 1726.21,1212.63 
  1730.22,1220.66 1734.24,1223.26 1738.26,1221.14 1742.27,1215 1746.29,1205.57 1750.31,1193.51 1754.32,1179.44 1758.34,1163.92 1762.35,1147.45 1766.37,1130.42 
  1770.39,1113.19 1774.4,1096.03 1778.42,1079.16 1782.44,1062.75 1786.45,1046.91 1790.47,1031.73 1794.49,1017.27 1798.5,1003.56 1802.52,990.62 1806.53,978.457 
  1810.55,967.072 1814.57,956.461 1818.58,946.62 1822.6,937.542 1826.62,929.221 1830.63,921.656 1834.65,914.841 1838.66,908.776 1842.68,903.459 1846.7,898.89 
  1850.71,895.07 1854.73,891.996 1858.75,889.669 1862.76,888.084 1866.78,887.24 1870.8,887.132 1874.81,887.753 1878.83,889.099 1882.84,891.159 1886.86,893.926 
  1890.88,897.389 1894.89,901.537 1898.91,906.358 1902.93,911.84 1906.94,917.972 1910.96,924.739 1914.98,932.132 1918.99,940.136 1923.01,948.743 1927.02,957.942 
  1931.04,967.726 1935.06,978.089 1939.07,989.027 1943.09,1000.54 1947.11,1012.63 1951.12,1025.32 1955.14,1038.6 1959.15,1052.52 1963.17,1067.08 1967.19,1082.34 
  1971.2,1098.33 1975.22,1115.11 1979.24,1132.73 1983.25,1151.28 1987.27,1170.82 1991.29,1191.41 1995.3,1213.11 1999.32,1235.95 2003.33,1259.91 2007.35,1284.89 
  2011.37,1310.68 2015.38,1336.9 2019.4,1362.95 2023.42,1387.92 2027.43,1410.54 2031.45,1429.14 2035.47,1441.65 2039.48,1445.7 2043.5,1438.87 2047.51,1419.05 
  2051.53,1384.92 2055.55,1336.31 2059.56,1274.5 2063.58,1202.02 2067.6,1122.24 2071.61,1038.69 2075.63,954.521 2079.65,872.137 2083.66,793.186 2087.68,718.698 
  2091.69,649.33 2095.71,585.569 2099.73,527.863 2103.74,476.638 2107.76,432.266 2111.78,394.998 2115.79,364.91 2119.81,341.876 2123.82,325.579 2127.84,315.537 
  2131.86,311.145 2135.87,311.724 2139.89,316.558 2143.91,324.931 2147.92,336.157 2151.94,349.594 2155.96,364.664 2159.97,380.855 2163.99,397.729 2168,414.918 
  2172.02,432.124 2176.04,449.11 2180.05,465.692 2184.07,481.736 2188.09,497.145 2192.1,511.855 2196.12,525.824 2200.14,539.028 2204.15,551.457 2208.17,563.108 
  2212.18,573.983 2216.2,584.088 2220.22,593.428 2224.23,602.008 2228.25,609.833 2232.27,616.906 2236.28,623.229 2240.3,628.803 2244.31,633.629 2248.33,637.708 
  2252.35,641.039 2256.36,643.624 2260.38,645.466 2264.4,646.565 2268.41,646.928 2272.43,646.557 2276.45,645.461 2280.46,643.647 2284.48,641.123 2288.49,637.9 
  2292.51,633.987 
  "/>
<path clip-path="url(#clip100)" d="
M1616.44 198.898 L2281.8 198.898 L2281.8 95.2176 L1616.44 95.2176  Z
  " fill="#ffffff" fill-rule="evenodd" fill-opacity="1"/>
<polyline clip-path="url(#clip100)" style="stroke:#000000; stroke-linecap:butt; stroke-linejoin:round; stroke-width:4; stroke-opacity:1; fill:none" points="
  1616.44,198.898 2281.8,198.898 2281.8,95.2176 1616.44,95.2176 1616.44,198.898 
  "/>
<polyline clip-path="url(#clip100)" style="stroke:#009af9; stroke-linecap:butt; stroke-linejoin:round; stroke-width:4; stroke-opacity:1; fill:none" points="
  1640.09,147.058 1782.01,147.058 
  "/>
<path clip-path="url(#clip100)" d="M1819.06 151.305 Q1813.9 151.305 1811.91 152.486 Q1809.92 153.666 1809.92 156.514 Q1809.92 158.782 1811.4 160.125 Q1812.9 161.444 1815.47 161.444 Q1819.01 161.444 1821.14 158.944 Q1823.3 156.421 1823.3 152.254 L1823.3 151.305 L1819.06 151.305 M1827.55 149.546 L1827.55 164.338 L1823.3 164.338 L1823.3 160.402 Q1821.84 162.763 1819.66 163.898 Q1817.49 165.009 1814.34 165.009 Q1810.36 165.009 1807.99 162.787 Q1805.66 160.541 1805.66 156.791 Q1805.66 152.416 1808.57 150.194 Q1811.51 147.972 1817.32 147.972 L1823.3 147.972 L1823.3 147.555 Q1823.3 144.615 1821.35 143.018 Q1819.43 141.398 1815.93 141.398 Q1813.71 141.398 1811.61 141.93 Q1809.5 142.463 1807.55 143.527 L1807.55 139.592 Q1809.89 138.69 1812.09 138.25 Q1814.29 137.787 1816.37 137.787 Q1822 137.787 1824.78 140.703 Q1827.55 143.62 1827.55 149.546 Z" fill="#000000" fill-rule="evenodd" fill-opacity="1" /><path clip-path="url(#clip100)" d="M1854.99 139.407 L1854.99 143.389 Q1853.18 142.393 1851.35 141.907 Q1849.55 141.398 1847.69 141.398 Q1843.55 141.398 1841.26 144.037 Q1838.97 146.652 1838.97 151.398 Q1838.97 156.143 1841.26 158.782 Q1843.55 161.398 1847.69 161.398 Q1849.55 161.398 1851.35 160.912 Q1853.18 160.402 1854.99 159.407 L1854.99 163.342 Q1853.2 164.176 1851.28 164.592 Q1849.38 165.009 1847.23 165.009 Q1841.37 165.009 1837.93 161.328 Q1834.48 157.648 1834.48 151.398 Q1834.48 145.055 1837.95 141.421 Q1841.44 137.787 1847.51 137.787 Q1849.48 137.787 1851.35 138.203 Q1853.23 138.597 1854.99 139.407 Z" fill="#000000" fill-rule="evenodd" fill-opacity="1" /><path clip-path="url(#clip100)" d="M1881.05 139.407 L1881.05 143.389 Q1879.24 142.393 1877.42 141.907 Q1875.61 141.398 1873.76 141.398 Q1869.61 141.398 1867.32 144.037 Q1865.03 146.652 1865.03 151.398 Q1865.03 156.143 1867.32 158.782 Q1869.61 161.398 1873.76 161.398 Q1875.61 161.398 1877.42 160.912 Q1879.24 160.402 1881.05 159.407 L1881.05 163.342 Q1879.27 164.176 1877.35 164.592 Q1875.45 165.009 1873.3 165.009 Q1867.44 165.009 1863.99 161.328 Q1860.54 157.648 1860.54 151.398 Q1860.54 145.055 1864.01 141.421 Q1867.51 137.787 1873.57 137.787 Q1875.54 137.787 1877.42 138.203 Q1879.29 138.597 1881.05 139.407 Z" fill="#000000" fill-rule="evenodd" fill-opacity="1" /><path clip-path="url(#clip100)" d="M1929.59 132.44 L1929.59 137.37 Q1927.23 135.171 1924.55 134.083 Q1921.88 132.995 1918.87 132.995 Q1912.95 132.995 1909.8 136.629 Q1906.65 140.24 1906.65 147.092 Q1906.65 153.921 1909.8 157.555 Q1912.95 161.166 1918.87 161.166 Q1921.88 161.166 1924.55 160.078 Q1927.23 158.99 1929.59 156.791 L1929.59 161.676 Q1927.14 163.342 1924.38 164.176 Q1921.65 165.009 1918.6 165.009 Q1910.75 165.009 1906.23 160.217 Q1901.72 155.402 1901.72 147.092 Q1901.72 138.759 1906.23 133.967 Q1910.75 129.153 1918.6 129.153 Q1921.7 129.153 1924.43 129.986 Q1927.18 130.796 1929.59 132.44 Z" fill="#000000" fill-rule="evenodd" fill-opacity="1" /><path clip-path="url(#clip100)" d="M1957.53 130.912 L1957.53 135.472 Q1954.87 134.199 1952.51 133.574 Q1950.15 132.949 1947.95 132.949 Q1944.13 132.949 1942.04 134.43 Q1939.98 135.912 1939.98 138.643 Q1939.98 140.935 1941.35 142.115 Q1942.74 143.273 1946.58 143.99 L1949.41 144.569 Q1954.64 145.565 1957.11 148.088 Q1959.61 150.588 1959.61 154.801 Q1959.61 159.824 1956.23 162.416 Q1952.88 165.009 1946.37 165.009 Q1943.92 165.009 1941.14 164.453 Q1938.39 163.898 1935.42 162.81 L1935.42 157.995 Q1938.27 159.592 1941 160.402 Q1943.73 161.213 1946.37 161.213 Q1950.38 161.213 1952.55 159.639 Q1954.73 158.064 1954.73 155.148 Q1954.73 152.602 1953.16 151.166 Q1951.61 149.731 1948.04 149.014 L1945.19 148.458 Q1939.96 147.416 1937.62 145.194 Q1935.29 142.972 1935.29 139.014 Q1935.29 134.43 1938.5 131.791 Q1941.74 129.153 1947.42 129.153 Q1949.85 129.153 1952.37 129.592 Q1954.89 130.032 1957.53 130.912 Z" fill="#000000" fill-rule="evenodd" fill-opacity="1" /><path clip-path="url(#clip100)" d="M1964.57 149.453 L1977.04 149.453 L1977.04 153.25 L1964.57 153.25 L1964.57 149.453 Z" fill="#000000" fill-rule="evenodd" fill-opacity="1" /><path clip-path="url(#clip100)" d="M1984.01 129.778 L1990.31 129.778 L2005.63 158.689 L2005.63 129.778 L2010.17 129.778 L2010.17 164.338 L2003.87 164.338 L1988.55 135.426 L1988.55 164.338 L1984.01 164.338 L1984.01 129.778 Z" fill="#000000" fill-rule="evenodd" fill-opacity="1" /><path clip-path="url(#clip100)" d="M2041.47 150.31 L2041.47 152.393 L2021.88 152.393 Q2022.16 156.791 2024.52 159.106 Q2026.91 161.398 2031.14 161.398 Q2033.6 161.398 2035.89 160.796 Q2038.2 160.194 2040.47 158.99 L2040.47 163.018 Q2038.18 163.99 2035.77 164.5 Q2033.36 165.009 2030.89 165.009 Q2024.68 165.009 2021.05 161.398 Q2017.44 157.787 2017.44 151.629 Q2017.44 145.264 2020.86 141.537 Q2024.31 137.787 2030.15 137.787 Q2035.38 137.787 2038.41 141.166 Q2041.47 144.523 2041.47 150.31 M2037.21 149.06 Q2037.16 145.565 2035.24 143.481 Q2033.34 141.398 2030.19 141.398 Q2026.63 141.398 2024.48 143.412 Q2022.35 145.426 2022.02 149.083 L2037.21 149.06 Z" fill="#000000" fill-rule="evenodd" fill-opacity="1" /><path clip-path="url(#clip100)" d="M2048.02 154.106 L2048.02 138.412 L2052.28 138.412 L2052.28 153.944 Q2052.28 157.625 2053.71 159.476 Q2055.15 161.305 2058.02 161.305 Q2061.47 161.305 2063.46 159.106 Q2065.47 156.907 2065.47 153.111 L2065.47 138.412 L2069.73 138.412 L2069.73 164.338 L2065.47 164.338 L2065.47 160.356 Q2063.92 162.717 2061.86 163.875 Q2059.82 165.009 2057.11 165.009 Q2052.65 165.009 2050.33 162.231 Q2048.02 159.453 2048.02 154.106 M2058.73 137.787 L2058.73 137.787 Z" fill="#000000" fill-rule="evenodd" fill-opacity="1" /><path clip-path="url(#clip100)" d="M2093.53 142.393 Q2092.81 141.977 2091.95 141.791 Q2091.12 141.583 2090.1 141.583 Q2086.49 141.583 2084.54 143.944 Q2082.62 146.282 2082.62 150.68 L2082.62 164.338 L2078.34 164.338 L2078.34 138.412 L2082.62 138.412 L2082.62 142.44 Q2083.97 140.078 2086.12 138.944 Q2088.27 137.787 2091.35 137.787 Q2091.79 137.787 2092.32 137.856 Q2092.85 137.903 2093.5 138.018 L2093.53 142.393 Z" fill="#000000" fill-rule="evenodd" fill-opacity="1" /><path clip-path="url(#clip100)" d="M2109.78 151.305 Q2104.61 151.305 2102.62 152.486 Q2100.63 153.666 2100.63 156.514 Q2100.63 158.782 2102.11 160.125 Q2103.62 161.444 2106.19 161.444 Q2109.73 161.444 2111.86 158.944 Q2114.01 156.421 2114.01 152.254 L2114.01 151.305 L2109.78 151.305 M2118.27 149.546 L2118.27 164.338 L2114.01 164.338 L2114.01 160.402 Q2112.55 162.763 2110.38 163.898 Q2108.2 165.009 2105.05 165.009 Q2101.07 165.009 2098.71 162.787 Q2096.37 160.541 2096.37 156.791 Q2096.37 152.416 2099.29 150.194 Q2102.23 147.972 2108.04 147.972 L2114.01 147.972 L2114.01 147.555 Q2114.01 144.615 2112.07 143.018 Q2110.15 141.398 2106.65 141.398 Q2104.43 141.398 2102.32 141.93 Q2100.22 142.463 2098.27 143.527 L2098.27 139.592 Q2100.61 138.69 2102.81 138.25 Q2105.01 137.787 2107.09 137.787 Q2112.72 137.787 2115.49 140.703 Q2118.27 143.62 2118.27 149.546 Z" fill="#000000" fill-rule="evenodd" fill-opacity="1" /><path clip-path="url(#clip100)" d="M2127.04 128.319 L2131.3 128.319 L2131.3 164.338 L2127.04 164.338 L2127.04 128.319 Z" fill="#000000" fill-rule="evenodd" fill-opacity="1" /><path clip-path="url(#clip100)" d="M2140.4 129.778 L2160.26 129.778 L2160.26 133.713 L2145.08 133.713 L2145.08 143.898 L2158.78 143.898 L2158.78 147.833 L2145.08 147.833 L2145.08 164.338 L2140.4 164.338 L2140.4 129.778 Z" fill="#000000" fill-rule="evenodd" fill-opacity="1" /><path clip-path="url(#clip100)" d="M2167.67 129.778 L2174.64 129.778 L2183.46 153.296 L2192.32 129.778 L2199.29 129.778 L2199.29 164.338 L2194.73 164.338 L2194.73 133.99 L2185.82 157.694 L2181.12 157.694 L2172.21 133.99 L2172.21 164.338 L2167.67 164.338 L2167.67 129.778 Z" fill="#000000" fill-rule="evenodd" fill-opacity="1" /><path clip-path="url(#clip100)" d="M2208.04 129.778 L2212.74 129.778 L2212.74 150.773 Q2212.74 156.328 2214.75 158.782 Q2216.77 161.213 2221.28 161.213 Q2225.77 161.213 2227.78 158.782 Q2229.8 156.328 2229.8 150.773 L2229.8 129.778 L2234.5 129.778 L2234.5 151.352 Q2234.5 158.111 2231.14 161.56 Q2227.81 165.009 2221.28 165.009 Q2214.73 165.009 2211.37 161.56 Q2208.04 158.111 2208.04 151.352 L2208.04 129.778 Z" fill="#000000" fill-rule="evenodd" fill-opacity="1" /></svg>
