<?xml version="1.0" encoding="utf-8"?>
<svg xmlns="http://www.w3.org/2000/svg" xmlns:xlink="http://www.w3.org/1999/xlink" width="600" height="400" viewBox="0 0 2400 1600">
<defs>
  <clipPath id="clip220">
    <rect x="0" y="0" width="2400" height="1600"/>
  </clipPath>
</defs>
<path clip-path="url(#clip220)" d="
M0 1600 L2400 1600 L2400 0 L0 0  Z
  " fill="#ffffff" fill-rule="evenodd" fill-opacity="1"/>
<defs>
  <clipPath id="clip221">
    <rect x="480" y="0" width="1681" height="1600"/>
  </clipPath>
</defs>
<path clip-path="url(#clip220)" d="
M314.996 1401.58 L2352.76 1401.58 L2352.76 47.2441 L314.996 47.2441  Z
  " fill="#ffffff" fill-rule="evenodd" fill-opacity="1"/>
<defs>
  <clipPath id="clip222">
    <rect x="314" y="47" width="2039" height="1355"/>
  </clipPath>
</defs>
<polyline clip-path="url(#clip222)" style="stroke:#000000; stroke-linecap:butt; stroke-linejoin:round; stroke-width:2; stroke-opacity:0.1; fill:none" points="
  372.668,1401.58 372.668,47.2441 
  "/>
<polyline clip-path="url(#clip222)" style="stroke:#000000; stroke-linecap:butt; stroke-linejoin:round; stroke-width:2; stroke-opacity:0.1; fill:none" points="
  757.151,1401.58 757.151,47.2441 
  "/>
<polyline clip-path="url(#clip222)" style="stroke:#000000; stroke-linecap:butt; stroke-linejoin:round; stroke-width:2; stroke-opacity:0.1; fill:none" points="
  1141.63,1401.58 1141.63,47.2441 
  "/>
<polyline clip-path="url(#clip222)" style="stroke:#000000; stroke-linecap:butt; stroke-linejoin:round; stroke-width:2; stroke-opacity:0.1; fill:none" points="
  1526.12,1401.58 1526.12,47.2441 
  "/>
<polyline clip-path="url(#clip222)" style="stroke:#000000; stroke-linecap:butt; stroke-linejoin:round; stroke-width:2; stroke-opacity:0.1; fill:none" points="
  1910.6,1401.58 1910.6,47.2441 
  "/>
<polyline clip-path="url(#clip222)" style="stroke:#000000; stroke-linecap:butt; stroke-linejoin:round; stroke-width:2; stroke-opacity:0.1; fill:none" points="
  2295.08,1401.58 2295.08,47.2441 
  "/>
<polyline clip-path="url(#clip220)" style="stroke:#000000; stroke-linecap:butt; stroke-linejoin:round; stroke-width:4; stroke-opacity:1; fill:none" points="
  314.996,1401.58 2352.76,1401.58 
  "/>
<polyline clip-path="url(#clip220)" style="stroke:#000000; stroke-linecap:butt; stroke-linejoin:round; stroke-width:4; stroke-opacity:1; fill:none" points="
  372.668,1401.58 372.668,1385.33 
  "/>
<polyline clip-path="url(#clip220)" style="stroke:#000000; stroke-linecap:butt; stroke-linejoin:round; stroke-width:4; stroke-opacity:1; fill:none" points="
  757.151,1401.58 757.151,1385.33 
  "/>
<polyline clip-path="url(#clip220)" style="stroke:#000000; stroke-linecap:butt; stroke-linejoin:round; stroke-width:4; stroke-opacity:1; fill:none" points="
  1141.63,1401.58 1141.63,1385.33 
  "/>
<polyline clip-path="url(#clip220)" style="stroke:#000000; stroke-linecap:butt; stroke-linejoin:round; stroke-width:4; stroke-opacity:1; fill:none" points="
  1526.12,1401.58 1526.12,1385.33 
  "/>
<polyline clip-path="url(#clip220)" style="stroke:#000000; stroke-linecap:butt; stroke-linejoin:round; stroke-width:4; stroke-opacity:1; fill:none" points="
  1910.6,1401.58 1910.6,1385.33 
  "/>
<polyline clip-path="url(#clip220)" style="stroke:#000000; stroke-linecap:butt; stroke-linejoin:round; stroke-width:4; stroke-opacity:1; fill:none" points="
  2295.08,1401.58 2295.08,1385.33 
  "/>
<path clip-path="url(#clip220)" d="M372.668 1435.77 Q367.252 1435.77 364.509 1441.11 Q361.8 1446.43 361.8 1457.12 Q361.8 1467.78 364.509 1473.13 Q367.252 1478.44 372.668 1478.44 Q378.12 1478.44 380.828 1473.13 Q383.571 1467.78 383.571 1457.12 Q383.571 1446.43 380.828 1441.11 Q378.12 1435.77 372.668 1435.77 M372.668 1430.21 Q381.384 1430.21 385.967 1437.12 Q390.585 1443.99 390.585 1457.12 Q390.585 1470.21 385.967 1477.12 Q381.384 1483.99 372.668 1483.99 Q363.953 1483.99 359.335 1477.12 Q354.752 1470.21 354.752 1457.12 Q354.752 1443.99 359.335 1437.12 Q363.953 1430.21 372.668 1430.21 Z" fill="#000000" fill-rule="evenodd" fill-opacity="1" /><path clip-path="url(#clip220)" d="M742.724 1477.09 L754.183 1477.09 L754.183 1437.54 L741.717 1440.04 L741.717 1433.65 L754.113 1431.15 L761.127 1431.15 L761.127 1477.09 L772.585 1477.09 L772.585 1482.99 L742.724 1482.99 L742.724 1477.09 Z" fill="#000000" fill-rule="evenodd" fill-opacity="1" /><path clip-path="url(#clip220)" d="M1133.61 1477.09 L1158.09 1477.09 L1158.09 1482.99 L1125.18 1482.99 L1125.18 1477.09 Q1129.17 1472.95 1136.04 1466.01 Q1142.95 1459.03 1144.72 1457.02 Q1148.09 1453.23 1149.41 1450.63 Q1150.77 1447.99 1150.77 1445.45 Q1150.77 1441.32 1147.85 1438.72 Q1144.97 1436.11 1140.31 1436.11 Q1137.02 1436.11 1133.34 1437.26 Q1129.69 1438.4 1125.52 1440.73 L1125.52 1433.65 Q1129.76 1431.95 1133.44 1431.08 Q1137.12 1430.21 1140.18 1430.21 Q1148.23 1430.21 1153.02 1434.24 Q1157.81 1438.27 1157.81 1445 Q1157.81 1448.2 1156.6 1451.08 Q1155.42 1453.93 1152.26 1457.81 Q1151.39 1458.82 1146.74 1463.65 Q1142.09 1468.44 1133.61 1477.09 Z" fill="#000000" fill-rule="evenodd" fill-opacity="1" /><path clip-path="url(#clip220)" d="M1532.49 1455.04 Q1537.52 1456.11 1540.34 1459.52 Q1543.18 1462.92 1543.18 1467.92 Q1543.18 1475.59 1537.91 1479.79 Q1532.63 1483.99 1522.91 1483.99 Q1519.64 1483.99 1516.17 1483.34 Q1512.73 1482.71 1509.05 1481.43 L1509.05 1474.65 Q1511.97 1476.36 1515.44 1477.22 Q1518.91 1478.09 1522.7 1478.09 Q1529.29 1478.09 1532.73 1475.49 Q1536.2 1472.88 1536.2 1467.92 Q1536.2 1463.34 1532.98 1460.77 Q1529.78 1458.16 1524.05 1458.16 L1518.01 1458.16 L1518.01 1452.4 L1524.33 1452.4 Q1529.5 1452.4 1532.25 1450.35 Q1534.99 1448.27 1534.99 1444.38 Q1534.99 1440.38 1532.14 1438.27 Q1529.33 1436.11 1524.05 1436.11 Q1521.17 1436.11 1517.87 1436.74 Q1514.57 1437.36 1510.61 1438.68 L1510.61 1432.43 Q1514.61 1431.32 1518.08 1430.77 Q1521.59 1430.21 1524.68 1430.21 Q1532.66 1430.21 1537.32 1433.86 Q1541.97 1437.47 1541.97 1443.65 Q1541.97 1447.95 1539.5 1450.94 Q1537.04 1453.89 1532.49 1455.04 Z" fill="#000000" fill-rule="evenodd" fill-opacity="1" /><path clip-path="url(#clip220)" d="M1915.11 1437.26 L1897.41 1464.93 L1915.11 1464.93 L1915.11 1437.26 M1913.27 1431.15 L1922.09 1431.15 L1922.09 1464.93 L1929.49 1464.93 L1929.49 1470.77 L1922.09 1470.77 L1922.09 1482.99 L1915.11 1482.99 L1915.11 1470.77 L1891.71 1470.77 L1891.71 1463.99 L1913.27 1431.15 Z" fill="#000000" fill-rule="evenodd" fill-opacity="1" /><path clip-path="url(#clip220)" d="M2280.5 1431.15 L2308.03 1431.15 L2308.03 1437.05 L2286.92 1437.05 L2286.92 1449.76 Q2288.45 1449.24 2289.98 1448.99 Q2291.51 1448.72 2293.03 1448.72 Q2301.72 1448.72 2306.78 1453.47 Q2311.85 1458.23 2311.85 1466.36 Q2311.85 1474.72 2306.65 1479.38 Q2301.44 1483.99 2291.96 1483.99 Q2288.69 1483.99 2285.29 1483.44 Q2281.92 1482.88 2278.31 1481.77 L2278.31 1474.72 Q2281.44 1476.43 2284.77 1477.26 Q2288.1 1478.09 2291.82 1478.09 Q2297.83 1478.09 2301.33 1474.93 Q2304.84 1471.77 2304.84 1466.36 Q2304.84 1460.94 2301.33 1457.78 Q2297.83 1454.62 2291.82 1454.62 Q2289.01 1454.62 2286.19 1455.24 Q2283.42 1455.87 2280.5 1457.19 L2280.5 1431.15 Z" fill="#000000" fill-rule="evenodd" fill-opacity="1" /><path clip-path="url(#clip220)" d="M1277.49 1527.62 L1277.49 1538.66 L1290.65 1538.66 L1290.65 1543.62 L1277.49 1543.62 L1277.49 1564.74 Q1277.49 1569.49 1278.77 1570.85 Q1280.09 1572.2 1284.08 1572.2 L1290.65 1572.2 L1290.65 1577.55 L1284.08 1577.55 Q1276.69 1577.55 1273.88 1574.8 Q1271.06 1572.03 1271.06 1564.74 L1271.06 1543.62 L1266.38 1543.62 L1266.38 1538.66 L1271.06 1538.66 L1271.06 1527.62 L1277.49 1527.62 Z" fill="#000000" fill-rule="evenodd" fill-opacity="1" /><path clip-path="url(#clip220)" d="M1321.06 1523.52 L1335.79 1523.52 L1335.79 1528.49 L1327.45 1528.49 L1327.45 1581.96 L1335.79 1581.96 L1335.79 1586.92 L1321.06 1586.92 L1321.06 1523.52 Z" fill="#000000" fill-rule="evenodd" fill-opacity="1" /><path clip-path="url(#clip220)" d="M1374.19 1539.8 L1374.19 1545.85 Q1371.48 1544.46 1368.56 1543.76 Q1365.65 1543.07 1362.52 1543.07 Q1357.76 1543.07 1355.37 1544.53 Q1353.01 1545.99 1353.01 1548.9 Q1353.01 1551.12 1354.71 1552.41 Q1356.41 1553.66 1361.55 1554.8 L1363.74 1555.29 Q1370.54 1556.75 1373.39 1559.42 Q1376.27 1562.06 1376.27 1566.82 Q1376.27 1572.24 1371.97 1575.4 Q1367.7 1578.55 1360.2 1578.55 Q1357.07 1578.55 1353.67 1577.93 Q1350.3 1577.34 1346.55 1576.12 L1346.55 1569.53 Q1350.09 1571.37 1353.53 1572.3 Q1356.97 1573.21 1360.33 1573.21 Q1364.85 1573.21 1367.28 1571.68 Q1369.71 1570.12 1369.71 1567.3 Q1369.71 1564.7 1367.94 1563.31 Q1366.2 1561.92 1360.26 1560.64 L1358.04 1560.12 Q1352.11 1558.87 1349.47 1556.3 Q1346.83 1553.69 1346.83 1549.18 Q1346.83 1543.69 1350.72 1540.71 Q1354.6 1537.72 1361.76 1537.72 Q1365.3 1537.72 1368.42 1538.24 Q1371.55 1538.76 1374.19 1539.8 Z" fill="#000000" fill-rule="evenodd" fill-opacity="1" /><path clip-path="url(#clip220)" d="M1401.38 1523.52 L1401.38 1586.92 L1386.65 1586.92 L1386.65 1581.96 L1394.95 1581.96 L1394.95 1528.49 L1386.65 1528.49 L1386.65 1523.52 L1401.38 1523.52 Z" fill="#000000" fill-rule="evenodd" fill-opacity="1" /><polyline clip-path="url(#clip222)" style="stroke:#000000; stroke-linecap:butt; stroke-linejoin:round; stroke-width:2; stroke-opacity:0.1; fill:none" points="
  314.996,1256.75 2352.76,1256.75 
  "/>
<polyline clip-path="url(#clip222)" style="stroke:#000000; stroke-linecap:butt; stroke-linejoin:round; stroke-width:2; stroke-opacity:0.1; fill:none" points="
  314.996,990.57 2352.76,990.57 
  "/>
<polyline clip-path="url(#clip222)" style="stroke:#000000; stroke-linecap:butt; stroke-linejoin:round; stroke-width:2; stroke-opacity:0.1; fill:none" points="
  314.996,724.395 2352.76,724.395 
  "/>
<polyline clip-path="url(#clip222)" style="stroke:#000000; stroke-linecap:butt; stroke-linejoin:round; stroke-width:2; stroke-opacity:0.1; fill:none" points="
  314.996,458.22 2352.76,458.22 
  "/>
<polyline clip-path="url(#clip222)" style="stroke:#000000; stroke-linecap:butt; stroke-linejoin:round; stroke-width:2; stroke-opacity:0.1; fill:none" points="
  314.996,192.044 2352.76,192.044 
  "/>
<polyline clip-path="url(#clip220)" style="stroke:#000000; stroke-linecap:butt; stroke-linejoin:round; stroke-width:4; stroke-opacity:1; fill:none" points="
  314.996,1401.58 314.996,47.2441 
  "/>
<polyline clip-path="url(#clip220)" style="stroke:#000000; stroke-linecap:butt; stroke-linejoin:round; stroke-width:4; stroke-opacity:1; fill:none" points="
  314.996,1256.75 339.449,1256.75 
  "/>
<polyline clip-path="url(#clip220)" style="stroke:#000000; stroke-linecap:butt; stroke-linejoin:round; stroke-width:4; stroke-opacity:1; fill:none" points="
  314.996,990.57 339.449,990.57 
  "/>
<polyline clip-path="url(#clip220)" style="stroke:#000000; stroke-linecap:butt; stroke-linejoin:round; stroke-width:4; stroke-opacity:1; fill:none" points="
  314.996,724.395 339.449,724.395 
  "/>
<polyline clip-path="url(#clip220)" style="stroke:#000000; stroke-linecap:butt; stroke-linejoin:round; stroke-width:4; stroke-opacity:1; fill:none" points="
  314.996,458.22 339.449,458.22 
  "/>
<polyline clip-path="url(#clip220)" style="stroke:#000000; stroke-linecap:butt; stroke-linejoin:round; stroke-width:4; stroke-opacity:1; fill:none" points="
  314.996,192.044 339.449,192.044 
  "/>
<path clip-path="url(#clip220)" d="M118.58 1257.42 L163.094 1257.42 L163.094 1263.33 L118.58 1263.33 L118.58 1257.42 Z" fill="#000000" fill-rule="evenodd" fill-opacity="1" /><path clip-path="url(#clip220)" d="M178.302 1230.83 L205.837 1230.83 L205.837 1236.73 L184.726 1236.73 L184.726 1249.44 Q186.253 1248.92 187.781 1248.67 Q189.309 1248.39 190.837 1248.39 Q199.517 1248.39 204.587 1253.15 Q209.656 1257.91 209.656 1266.03 Q209.656 1274.4 204.448 1279.05 Q199.239 1283.67 189.76 1283.67 Q186.496 1283.67 183.094 1283.12 Q179.726 1282.56 176.115 1281.45 L176.115 1274.4 Q179.24 1276.1 182.573 1276.94 Q185.906 1277.77 189.621 1277.77 Q195.628 1277.77 199.135 1274.61 Q202.642 1271.45 202.642 1266.03 Q202.642 1260.62 199.135 1257.46 Q195.628 1254.3 189.621 1254.3 Q186.809 1254.3 183.996 1254.92 Q181.219 1255.55 178.302 1256.87 L178.302 1230.83 Z" fill="#000000" fill-rule="evenodd" fill-opacity="1" /><path clip-path="url(#clip220)" d="M223.475 1273.85 L230.802 1273.85 L230.802 1282.67 L223.475 1282.67 L223.475 1273.85 Z" fill="#000000" fill-rule="evenodd" fill-opacity="1" /><path clip-path="url(#clip220)" d="M261.079 1235.44 Q255.663 1235.44 252.92 1240.79 Q250.211 1246.1 250.211 1256.8 Q250.211 1267.46 252.92 1272.8 Q255.663 1278.12 261.079 1278.12 Q266.531 1278.12 269.239 1272.8 Q271.982 1267.46 271.982 1256.8 Q271.982 1246.1 269.239 1240.79 Q266.531 1235.44 261.079 1235.44 M261.079 1229.89 Q269.795 1229.89 274.378 1236.8 Q278.996 1243.67 278.996 1256.8 Q278.996 1269.89 274.378 1276.8 Q269.795 1283.67 261.079 1283.67 Q252.364 1283.67 247.746 1276.8 Q243.163 1269.89 243.163 1256.8 Q243.163 1243.67 247.746 1236.8 Q252.364 1229.89 261.079 1229.89 Z" fill="#000000" fill-rule="evenodd" fill-opacity="1" /><path clip-path="url(#clip220)" d="M120.073 991.247 L164.587 991.247 L164.587 997.15 L120.073 997.15 L120.073 991.247 Z" fill="#000000" fill-rule="evenodd" fill-opacity="1" /><path clip-path="url(#clip220)" d="M185.767 1010.59 L210.246 1010.59 L210.246 1016.49 L177.33 1016.49 L177.33 1010.59 Q181.323 1006.46 188.198 999.511 Q195.108 992.532 196.878 990.518 Q200.246 986.733 201.566 984.129 Q202.92 981.49 202.92 978.955 Q202.92 974.824 200.003 972.219 Q197.121 969.615 192.469 969.615 Q189.17 969.615 185.49 970.761 Q181.844 971.907 177.677 974.233 L177.677 967.15 Q181.913 965.449 185.594 964.581 Q189.274 963.713 192.33 963.713 Q200.385 963.713 205.177 967.74 Q209.969 971.768 209.969 978.504 Q209.969 981.699 208.753 984.58 Q207.573 987.428 204.413 991.317 Q203.545 992.323 198.892 997.15 Q194.239 1001.94 185.767 1010.59 Z" fill="#000000" fill-rule="evenodd" fill-opacity="1" /><path clip-path="url(#clip220)" d="M224.968 1007.67 L232.295 1007.67 L232.295 1016.49 L224.968 1016.49 L224.968 1007.67 Z" fill="#000000" fill-rule="evenodd" fill-opacity="1" /><path clip-path="url(#clip220)" d="M247.642 964.65 L275.177 964.65 L275.177 970.553 L254.066 970.553 L254.066 983.261 Q255.593 982.74 257.121 982.497 Q258.649 982.219 260.177 982.219 Q268.857 982.219 273.927 986.976 Q278.996 991.733 278.996 999.858 Q278.996 1008.23 273.788 1012.88 Q268.579 1017.5 259.1 1017.5 Q255.836 1017.5 252.434 1016.94 Q249.066 1016.39 245.454 1015.27 L245.454 1008.23 Q248.579 1009.93 251.913 1010.76 Q255.246 1011.59 258.961 1011.59 Q264.968 1011.59 268.475 1008.43 Q271.982 1005.27 271.982 999.858 Q271.982 994.442 268.475 991.282 Q264.968 988.122 258.961 988.122 Q256.149 988.122 253.336 988.747 Q250.559 989.372 247.642 990.692 L247.642 964.65 Z" fill="#000000" fill-rule="evenodd" fill-opacity="1" /><path clip-path="url(#clip220)" d="M193.233 703.093 Q187.816 703.093 185.073 708.44 Q182.365 713.753 182.365 724.447 Q182.365 735.107 185.073 740.454 Q187.816 745.766 193.233 745.766 Q198.684 745.766 201.392 740.454 Q204.135 735.107 204.135 724.447 Q204.135 713.753 201.392 708.44 Q198.684 703.093 193.233 703.093 M193.233 697.537 Q201.948 697.537 206.531 704.447 Q211.149 711.322 211.149 724.447 Q211.149 737.537 206.531 744.447 Q201.948 751.322 193.233 751.322 Q184.517 751.322 179.899 744.447 Q175.316 737.537 175.316 724.447 Q175.316 711.322 179.899 704.447 Q184.517 697.537 193.233 697.537 Z" fill="#000000" fill-rule="evenodd" fill-opacity="1" /><path clip-path="url(#clip220)" d="M223.475 741.495 L230.802 741.495 L230.802 750.315 L223.475 750.315 L223.475 741.495 Z" fill="#000000" fill-rule="evenodd" fill-opacity="1" /><path clip-path="url(#clip220)" d="M261.079 703.093 Q255.663 703.093 252.92 708.44 Q250.211 713.753 250.211 724.447 Q250.211 735.107 252.92 740.454 Q255.663 745.766 261.079 745.766 Q266.531 745.766 269.239 740.454 Q271.982 735.107 271.982 724.447 Q271.982 713.753 269.239 708.44 Q266.531 703.093 261.079 703.093 M261.079 697.537 Q269.795 697.537 274.378 704.447 Q278.996 711.322 278.996 724.447 Q278.996 737.537 274.378 744.447 Q269.795 751.322 261.079 751.322 Q252.364 751.322 247.746 744.447 Q243.163 737.537 243.163 724.447 Q243.163 711.322 247.746 704.447 Q252.364 697.537 261.079 697.537 Z" fill="#000000" fill-rule="evenodd" fill-opacity="1" /><path clip-path="url(#clip220)" d="M185.767 478.237 L210.246 478.237 L210.246 484.14 L177.33 484.14 L177.33 478.237 Q181.323 474.105 188.198 467.161 Q195.108 460.181 196.878 458.168 Q200.246 454.383 201.566 451.779 Q202.92 449.14 202.92 446.605 Q202.92 442.473 200.003 439.869 Q197.121 437.265 192.469 437.265 Q189.17 437.265 185.49 438.411 Q181.844 439.557 177.677 441.883 L177.677 434.8 Q181.913 433.098 185.594 432.23 Q189.274 431.362 192.33 431.362 Q200.385 431.362 205.177 435.39 Q209.969 439.418 209.969 446.154 Q209.969 449.348 208.753 452.23 Q207.573 455.077 204.413 458.966 Q203.545 459.973 198.892 464.799 Q194.239 469.591 185.767 478.237 Z" fill="#000000" fill-rule="evenodd" fill-opacity="1" /><path clip-path="url(#clip220)" d="M224.968 475.32 L232.295 475.32 L232.295 484.14 L224.968 484.14 L224.968 475.32 Z" fill="#000000" fill-rule="evenodd" fill-opacity="1" /><path clip-path="url(#clip220)" d="M247.642 432.3 L275.177 432.3 L275.177 438.202 L254.066 438.202 L254.066 450.911 Q255.593 450.39 257.121 450.147 Q258.649 449.869 260.177 449.869 Q268.857 449.869 273.927 454.626 Q278.996 459.383 278.996 467.508 Q278.996 475.876 273.788 480.529 Q268.579 485.147 259.1 485.147 Q255.836 485.147 252.434 484.591 Q249.066 484.035 245.454 482.924 L245.454 475.876 Q248.579 477.577 251.913 478.41 Q255.246 479.244 258.961 479.244 Q264.968 479.244 268.475 476.084 Q271.982 472.924 271.982 467.508 Q271.982 462.091 268.475 458.931 Q264.968 455.772 258.961 455.772 Q256.149 455.772 253.336 456.397 Q250.559 457.022 247.642 458.341 L247.642 432.3 Z" fill="#000000" fill-rule="evenodd" fill-opacity="1" /><path clip-path="url(#clip220)" d="M178.302 166.124 L205.837 166.124 L205.837 172.027 L184.726 172.027 L184.726 184.735 Q186.253 184.215 187.781 183.972 Q189.309 183.694 190.837 183.694 Q199.517 183.694 204.587 188.451 Q209.656 193.208 209.656 201.333 Q209.656 209.701 204.448 214.353 Q199.239 218.971 189.76 218.971 Q186.496 218.971 183.094 218.416 Q179.726 217.86 176.115 216.749 L176.115 209.701 Q179.24 211.402 182.573 212.235 Q185.906 213.069 189.621 213.069 Q195.628 213.069 199.135 209.909 Q202.642 206.749 202.642 201.333 Q202.642 195.916 199.135 192.756 Q195.628 189.597 189.621 189.597 Q186.809 189.597 183.996 190.222 Q181.219 190.847 178.302 192.166 L178.302 166.124 Z" fill="#000000" fill-rule="evenodd" fill-opacity="1" /><path clip-path="url(#clip220)" d="M223.475 209.145 L230.802 209.145 L230.802 217.964 L223.475 217.964 L223.475 209.145 Z" fill="#000000" fill-rule="evenodd" fill-opacity="1" /><path clip-path="url(#clip220)" d="M261.079 170.742 Q255.663 170.742 252.92 176.09 Q250.211 181.402 250.211 192.097 Q250.211 202.756 252.92 208.103 Q255.663 213.416 261.079 213.416 Q266.531 213.416 269.239 208.103 Q271.982 202.756 271.982 192.097 Q271.982 181.402 269.239 176.09 Q266.531 170.742 261.079 170.742 M261.079 165.187 Q269.795 165.187 274.378 172.097 Q278.996 178.972 278.996 192.097 Q278.996 205.187 274.378 212.096 Q269.795 218.971 261.079 218.971 Q252.364 218.971 247.746 212.096 Q243.163 205.187 243.163 192.097 Q243.163 178.972 247.746 172.097 Q252.364 165.187 261.079 165.187 Z" fill="#000000" fill-rule="evenodd" fill-opacity="1" /><path clip-path="url(#clip220)" d="M35.6047 1168 Q31.2992 1165.61 29.2506 1162.27 Q27.202 1158.94 27.202 1154.43 Q27.202 1148.35 31.4728 1145.05 Q35.7089 1141.75 43.5561 1141.75 L67.0282 1141.75 L67.0282 1148.18 L43.7644 1148.18 Q38.1741 1148.18 35.4658 1150.16 Q32.7575 1152.14 32.7575 1156.2 Q32.7575 1161.16 36.0561 1164.05 Q39.3547 1166.93 45.0491 1166.93 L67.0282 1166.93 L67.0282 1173.35 L43.7644 1173.35 Q38.1394 1173.35 35.4658 1175.33 Q32.7575 1177.31 32.7575 1181.44 Q32.7575 1186.34 36.0908 1189.22 Q39.3894 1192.1 45.0491 1192.1 L67.0282 1192.1 L67.0282 1198.52 L28.1395 1198.52 L28.1395 1192.1 L34.1811 1192.1 Q30.6047 1189.91 28.9034 1186.86 Q27.202 1183.8 27.202 1179.6 Q27.202 1175.36 29.3547 1172.41 Q31.5075 1169.43 35.6047 1168 Z" fill="#000000" fill-rule="evenodd" fill-opacity="1" /><path clip-path="url(#clip220)" d="M47.4797 1111.34 Q47.4797 1119.08 49.2505 1122.07 Q51.0213 1125.05 55.2921 1125.05 Q58.6949 1125.05 60.7087 1122.83 Q62.6879 1120.57 62.6879 1116.72 Q62.6879 1111.41 58.9379 1108.21 Q55.1532 1104.98 48.9033 1104.98 L47.4797 1104.98 L47.4797 1111.34 M44.8408 1098.59 L67.0282 1098.59 L67.0282 1104.98 L61.1254 1104.98 Q64.6671 1107.17 66.3684 1110.43 Q68.0351 1113.7 68.0351 1118.42 Q68.0351 1124.39 64.7018 1127.93 Q61.3337 1131.44 55.7088 1131.44 Q49.1463 1131.44 45.813 1127.07 Q42.4797 1122.66 42.4797 1113.94 L42.4797 1104.98 L41.8547 1104.98 Q37.445 1104.98 35.0492 1107.9 Q32.6186 1110.78 32.6186 1116.02 Q32.6186 1119.36 33.4172 1122.52 Q34.2158 1125.68 35.813 1128.59 L29.9103 1128.59 Q28.5561 1125.09 27.8964 1121.79 Q27.202 1118.49 27.202 1115.36 Q27.202 1106.93 31.577 1102.76 Q35.9519 1098.59 44.8408 1098.59 Z" fill="#000000" fill-rule="evenodd" fill-opacity="1" /><path clip-path="url(#clip220)" d="M29.2853 1060.64 L35.3269 1060.64 Q33.9381 1063.35 33.2436 1066.27 Q32.5492 1069.18 32.5492 1072.31 Q32.5492 1077.07 34.0075 1079.46 Q35.4658 1081.82 38.3825 1081.82 Q40.6047 1081.82 41.8894 1080.12 Q43.1394 1078.42 44.2852 1073.28 L44.7713 1071.09 Q46.2297 1064.29 48.9033 1061.44 Q51.5421 1058.56 56.299 1058.56 Q61.7157 1058.56 64.8754 1062.87 Q68.0351 1067.14 68.0351 1074.64 Q68.0351 1077.76 67.4101 1081.16 Q66.8198 1084.53 65.6046 1088.28 L59.0074 1088.28 Q60.8476 1084.74 61.7851 1081.3 Q62.6879 1077.86 62.6879 1074.5 Q62.6879 1069.98 61.1601 1067.55 Q59.5976 1065.12 56.7852 1065.12 Q54.181 1065.12 52.7921 1066.89 Q51.4032 1068.63 50.1185 1074.57 L49.5977 1076.79 Q48.3477 1082.73 45.7783 1085.36 Q43.1741 1088 38.6603 1088 Q33.1742 1088 30.1881 1084.11 Q27.202 1080.23 27.202 1073.07 Q27.202 1069.53 27.7228 1066.41 Q28.2436 1063.28 29.2853 1060.64 Z" fill="#000000" fill-rule="evenodd" fill-opacity="1" /><path clip-path="url(#clip220)" d="M29.2853 1023.59 L35.3269 1023.59 Q33.9381 1026.3 33.2436 1029.22 Q32.5492 1032.14 32.5492 1035.26 Q32.5492 1040.02 34.0075 1042.41 Q35.4658 1044.77 38.3825 1044.77 Q40.6047 1044.77 41.8894 1043.07 Q43.1394 1041.37 44.2852 1036.23 L44.7713 1034.05 Q46.2297 1027.24 48.9033 1024.39 Q51.5421 1021.51 56.299 1021.51 Q61.7157 1021.51 64.8754 1025.82 Q68.0351 1030.09 68.0351 1037.59 Q68.0351 1040.71 67.4101 1044.12 Q66.8198 1047.48 65.6046 1051.23 L59.0074 1051.23 Q60.8476 1047.69 61.7851 1044.25 Q62.6879 1040.82 62.6879 1037.45 Q62.6879 1032.93 61.1601 1030.5 Q59.5976 1028.07 56.7852 1028.07 Q54.181 1028.07 52.7921 1029.84 Q51.4032 1031.58 50.1185 1037.52 L49.5977 1039.74 Q48.3477 1045.68 45.7783 1048.32 Q43.1741 1050.96 38.6603 1050.96 Q33.1742 1050.96 30.1881 1047.07 Q27.202 1043.18 27.202 1036.02 Q27.202 1032.48 27.7228 1029.36 Q28.2436 1026.23 29.2853 1023.59 Z" fill="#000000" fill-rule="evenodd" fill-opacity="1" /><path clip-path="url(#clip220)" d="M47.4797 971.06 Q47.4797 978.803 49.2505 981.789 Q51.0213 984.775 55.2921 984.775 Q58.6949 984.775 60.7087 982.553 Q62.6879 980.296 62.6879 976.442 Q62.6879 971.129 58.9379 967.935 Q55.1532 964.706 48.9033 964.706 L47.4797 964.706 L47.4797 971.06 M44.8408 958.317 L67.0282 958.317 L67.0282 964.706 L61.1254 964.706 Q64.6671 966.893 66.3684 970.157 Q68.0351 973.421 68.0351 978.143 Q68.0351 984.115 64.7018 987.657 Q61.3337 991.164 55.7088 991.164 Q49.1463 991.164 45.813 986.789 Q42.4797 982.379 42.4797 973.664 L42.4797 964.706 L41.8547 964.706 Q37.445 964.706 35.0492 967.622 Q32.6186 970.504 32.6186 975.747 Q32.6186 979.081 33.4172 982.24 Q34.2158 985.4 35.813 988.317 L29.9103 988.317 Q28.5561 984.81 27.8964 981.511 Q27.202 978.213 27.202 975.088 Q27.202 966.65 31.577 962.484 Q35.9519 958.317 44.8408 958.317 Z" fill="#000000" fill-rule="evenodd" fill-opacity="1" /><path clip-path="url(#clip220)" d="M29.6325 917.171 L35.6047 917.171 Q34.1117 919.88 33.3825 922.623 Q32.6186 925.331 32.6186 928.109 Q32.6186 934.324 36.5769 937.762 Q40.5005 941.199 47.6185 941.199 Q54.7366 941.199 58.6949 937.762 Q62.6185 934.324 62.6185 928.109 Q62.6185 925.331 61.8893 922.623 Q61.1254 919.88 59.6324 917.171 L65.5351 917.171 Q66.7851 919.845 67.4101 922.727 Q68.0351 925.574 68.0351 928.803 Q68.0351 937.588 62.5143 942.761 Q56.9935 947.935 47.6185 947.935 Q38.1047 947.935 32.6533 942.727 Q27.202 937.484 27.202 928.387 Q27.202 925.435 27.827 922.623 Q28.4173 919.81 29.6325 917.171 Z" fill="#000000" fill-rule="evenodd" fill-opacity="1" /><path clip-path="url(#clip220)" d="M29.6325 878.074 L35.6047 878.074 Q34.1117 880.783 33.3825 883.526 Q32.6186 886.234 32.6186 889.012 Q32.6186 895.227 36.5769 898.665 Q40.5005 902.102 47.6185 902.102 Q54.7366 902.102 58.6949 898.665 Q62.6185 895.227 62.6185 889.012 Q62.6185 886.234 61.8893 883.526 Q61.1254 880.783 59.6324 878.074 L65.5351 878.074 Q66.7851 880.748 67.4101 883.63 Q68.0351 886.477 68.0351 889.706 Q68.0351 898.491 62.5143 903.664 Q56.9935 908.838 47.6185 908.838 Q38.1047 908.838 32.6533 903.63 Q27.202 898.387 27.202 889.29 Q27.202 886.338 27.827 883.526 Q28.4173 880.713 29.6325 878.074 Z" fill="#000000" fill-rule="evenodd" fill-opacity="1" /><path clip-path="url(#clip220)" d="M45.9866 833.7 L49.1116 833.7 L49.1116 863.074 Q55.7088 862.658 59.181 859.116 Q62.6185 855.54 62.6185 849.186 Q62.6185 845.505 61.7157 842.068 Q60.8129 838.595 59.0074 835.193 L65.049 835.193 Q66.5073 838.63 67.2712 842.241 Q68.0351 845.852 68.0351 849.568 Q68.0351 858.873 62.6185 864.324 Q57.2018 869.741 47.9658 869.741 Q38.4172 869.741 32.827 864.602 Q27.202 859.429 27.202 850.679 Q27.202 842.831 32.2714 838.283 Q37.3061 833.7 45.9866 833.7 M44.1116 840.088 Q38.8686 840.158 35.7436 843.04 Q32.6186 845.887 32.6186 850.609 Q32.6186 855.956 35.6394 859.186 Q38.6603 862.38 44.1463 862.866 L44.1116 840.088 Z" fill="#000000" fill-rule="evenodd" fill-opacity="1" /><path clip-path="url(#clip220)" d="M13.0007 823.214 L13.0007 816.825 L67.0282 816.825 L67.0282 823.214 L13.0007 823.214 Z" fill="#000000" fill-rule="evenodd" fill-opacity="1" /><path clip-path="url(#clip220)" d="M45.9866 770.193 L49.1116 770.193 L49.1116 799.568 Q55.7088 799.151 59.181 795.61 Q62.6185 792.033 62.6185 785.679 Q62.6185 781.998 61.7157 778.561 Q60.8129 775.089 59.0074 771.686 L65.049 771.686 Q66.5073 775.124 67.2712 778.735 Q68.0351 782.346 68.0351 786.061 Q68.0351 795.366 62.6185 800.818 Q57.2018 806.234 47.9658 806.234 Q38.4172 806.234 32.827 801.096 Q27.202 795.922 27.202 787.172 Q27.202 779.325 32.2714 774.776 Q37.3061 770.193 45.9866 770.193 M44.1116 776.582 Q38.8686 776.651 35.7436 779.533 Q32.6186 782.38 32.6186 787.103 Q32.6186 792.45 35.6394 795.679 Q38.6603 798.873 44.1463 799.359 L44.1116 776.582 Z" fill="#000000" fill-rule="evenodd" fill-opacity="1" /><path clip-path="url(#clip220)" d="M34.1117 737.172 Q33.4867 738.249 33.2089 739.533 Q32.8964 740.783 32.8964 742.311 Q32.8964 747.728 36.438 750.644 Q39.945 753.526 46.5422 753.526 L67.0282 753.526 L67.0282 759.95 L28.1395 759.95 L28.1395 753.526 L34.1811 753.526 Q30.6395 751.513 28.9381 748.283 Q27.202 745.054 27.202 740.436 Q27.202 739.776 27.3061 738.978 Q27.3756 738.179 27.5492 737.207 L34.1117 737.172 Z" fill="#000000" fill-rule="evenodd" fill-opacity="1" /><path clip-path="url(#clip220)" d="M47.4797 712.797 Q47.4797 720.54 49.2505 723.527 Q51.0213 726.513 55.2921 726.513 Q58.6949 726.513 60.7087 724.29 Q62.6879 722.034 62.6879 718.179 Q62.6879 712.867 58.9379 709.672 Q55.1532 706.443 48.9033 706.443 L47.4797 706.443 L47.4797 712.797 M44.8408 700.054 L67.0282 700.054 L67.0282 706.443 L61.1254 706.443 Q64.6671 708.631 66.3684 711.895 Q68.0351 715.159 68.0351 719.881 Q68.0351 725.853 64.7018 729.395 Q61.3337 732.902 55.7088 732.902 Q49.1463 732.902 45.813 728.527 Q42.4797 724.117 42.4797 715.402 L42.4797 706.443 L41.8547 706.443 Q37.445 706.443 35.0492 709.36 Q32.6186 712.242 32.6186 717.485 Q32.6186 720.818 33.4172 723.978 Q34.2158 727.138 35.813 730.054 L29.9103 730.054 Q28.5561 726.547 27.8964 723.249 Q27.202 719.95 27.202 716.825 Q27.202 708.388 31.577 704.221 Q35.9519 700.054 44.8408 700.054 Z" fill="#000000" fill-rule="evenodd" fill-opacity="1" /><path clip-path="url(#clip220)" d="M17.0979 680.575 L28.1395 680.575 L28.1395 667.416 L33.1047 667.416 L33.1047 680.575 L54.2157 680.575 Q58.9726 680.575 60.3268 679.291 Q61.681 677.971 61.681 673.978 L61.681 667.416 L67.0282 667.416 L67.0282 673.978 Q67.0282 681.374 64.2851 684.186 Q61.5074 686.999 54.2157 686.999 L33.1047 686.999 L33.1047 691.686 L28.1395 691.686 L28.1395 686.999 L17.0979 686.999 L17.0979 680.575 Z" fill="#000000" fill-rule="evenodd" fill-opacity="1" /><path clip-path="url(#clip220)" d="M28.1395 659.013 L28.1395 652.624 L67.0282 652.624 L67.0282 659.013 L28.1395 659.013 M13.0007 659.013 L13.0007 652.624 L21.0909 652.624 L21.0909 659.013 L13.0007 659.013 Z" fill="#000000" fill-rule="evenodd" fill-opacity="1" /><path clip-path="url(#clip220)" d="M32.6186 624.187 Q32.6186 629.326 36.6464 632.312 Q40.6394 635.298 47.6185 635.298 Q54.5977 635.298 58.6254 632.346 Q62.6185 629.36 62.6185 624.187 Q62.6185 619.083 58.5907 616.097 Q54.5629 613.11 47.6185 613.11 Q40.7089 613.11 36.6811 616.097 Q32.6186 619.083 32.6186 624.187 M27.202 624.187 Q27.202 615.854 32.6186 611.097 Q38.0353 606.34 47.6185 606.34 Q57.1671 606.34 62.6185 611.097 Q68.0351 615.854 68.0351 624.187 Q68.0351 632.555 62.6185 637.312 Q57.1671 642.034 47.6185 642.034 Q38.0353 642.034 32.6186 637.312 Q27.202 632.555 27.202 624.187 Z" fill="#000000" fill-rule="evenodd" fill-opacity="1" /><path clip-path="url(#clip220)" d="M43.5561 563.423 L67.0282 563.423 L67.0282 569.812 L43.7644 569.812 Q38.2436 569.812 35.5005 571.965 Q32.7575 574.118 32.7575 578.423 Q32.7575 583.597 36.0561 586.583 Q39.3547 589.569 45.0491 589.569 L67.0282 589.569 L67.0282 595.993 L28.1395 595.993 L28.1395 589.569 L34.1811 589.569 Q30.6742 587.277 28.9381 584.187 Q27.202 581.062 27.202 577 Q27.202 570.298 31.3686 566.861 Q35.5005 563.423 43.5561 563.423 Z" fill="#000000" fill-rule="evenodd" fill-opacity="1" /><path clip-path="url(#clip220)" d="M13.0007 528.666 L13.0007 513.944 L17.9659 513.944 L17.9659 522.278 L71.4379 522.278 L71.4379 513.944 L76.4031 513.944 L76.4031 528.666 L13.0007 528.666 Z" fill="#000000" fill-rule="evenodd" fill-opacity="1" /><path clip-path="url(#clip220)" d="M35.6047 470.056 Q31.2992 467.66 29.2506 464.327 Q27.202 460.993 27.202 456.479 Q27.202 450.403 31.4728 447.104 Q35.7089 443.806 43.5561 443.806 L67.0282 443.806 L67.0282 450.229 L43.7644 450.229 Q38.1741 450.229 35.4658 452.209 Q32.7575 454.188 32.7575 458.25 Q32.7575 463.215 36.0561 466.097 Q39.3547 468.979 45.0491 468.979 L67.0282 468.979 L67.0282 475.403 L43.7644 475.403 Q38.1394 475.403 35.4658 477.382 Q32.7575 479.361 32.7575 483.493 Q32.7575 488.389 36.0908 491.271 Q39.3894 494.153 45.0491 494.153 L67.0282 494.153 L67.0282 500.576 L28.1395 500.576 L28.1395 494.153 L34.1811 494.153 Q30.6047 491.965 28.9034 488.91 Q27.202 485.854 27.202 481.653 Q27.202 477.417 29.3547 474.465 Q31.5075 471.479 35.6047 470.056 Z" fill="#000000" fill-rule="evenodd" fill-opacity="1" /><path clip-path="url(#clip220)" d="M15.1882 419.709 L15.1882 413.806 L73.6253 431.861 L73.6253 437.764 L15.1882 419.709 Z" fill="#000000" fill-rule="evenodd" fill-opacity="1" /><path clip-path="url(#clip220)" d="M29.2853 382.313 L35.3269 382.313 Q33.9381 385.021 33.2436 387.938 Q32.5492 390.855 32.5492 393.98 Q32.5492 398.737 34.0075 401.132 Q35.4658 403.494 38.3825 403.494 Q40.6047 403.494 41.8894 401.792 Q43.1394 400.091 44.2852 394.952 L44.7713 392.764 Q46.2297 385.959 48.9033 383.112 Q51.5421 380.23 56.299 380.23 Q61.7157 380.23 64.8754 384.535 Q68.0351 388.806 68.0351 396.306 Q68.0351 399.431 67.4101 402.834 Q66.8198 406.202 65.6046 409.952 L59.0074 409.952 Q60.8476 406.41 61.7851 402.973 Q62.6879 399.535 62.6879 396.167 Q62.6879 391.653 61.1601 389.223 Q59.5976 386.792 56.7852 386.792 Q54.181 386.792 52.7921 388.563 Q51.4032 390.299 50.1185 396.237 L49.5977 398.459 Q48.3477 404.396 45.7783 407.035 Q43.1741 409.674 38.6603 409.674 Q33.1742 409.674 30.1881 405.785 Q27.202 401.896 27.202 394.744 Q27.202 391.202 27.7228 388.077 Q28.2436 384.952 29.2853 382.313 Z" fill="#000000" fill-rule="evenodd" fill-opacity="1" /><path clip-path="url(#clip220)" d="M15.1882 343.563 L34.5283 324.709 L34.5283 331.688 L20.8131 346.966 L34.5283 362.244 L34.5283 369.223 L15.1882 350.369 L15.1882 343.563 Z" fill="#000000" fill-rule="evenodd" fill-opacity="1" /><path clip-path="url(#clip220)" d="M61.1254 303.529 L61.1254 279.05 L67.0282 279.05 L67.0282 311.966 L61.1254 311.966 Q56.9935 307.973 50.0491 301.098 Q43.07 294.189 41.0561 292.418 Q37.2714 289.05 34.6672 287.73 Q32.0283 286.376 29.4936 286.376 Q25.3617 286.376 22.7576 289.293 Q20.1534 292.175 20.1534 296.827 Q20.1534 300.126 21.2992 303.807 Q22.4451 307.452 24.7714 311.619 L17.6881 311.619 Q15.9868 307.383 15.1187 303.702 Q14.2507 300.022 14.2507 296.966 Q14.2507 288.911 18.2784 284.119 Q22.3062 279.328 29.0422 279.328 Q32.2367 279.328 35.1186 280.543 Q37.9658 281.723 41.8547 284.883 Q42.8616 285.751 47.688 290.404 Q52.4796 295.057 61.1254 303.529 Z" fill="#000000" fill-rule="evenodd" fill-opacity="1" /><path clip-path="url(#clip220)" d="M13.0007 250.3 L76.4031 250.3 L76.4031 265.022 L71.4379 265.022 L71.4379 256.724 L17.9659 256.724 L17.9659 265.022 L13.0007 265.022 L13.0007 250.3 Z" fill="#000000" fill-rule="evenodd" fill-opacity="1" /><polyline clip-path="url(#clip222)" style="stroke:#009af9; stroke-linecap:butt; stroke-linejoin:round; stroke-width:8; stroke-opacity:1; fill:none" points="
  372.668,85.5744 376.513,85.8956 380.358,86.8535 384.203,88.4486 388.048,90.6795 391.893,93.5435 395.737,97.0379 399.582,101.16 403.427,105.904 407.272,111.267 
  411.117,117.243 414.962,123.826 418.806,131.009 422.651,138.787 426.496,147.148 430.341,156.085 434.186,165.591 438.031,175.657 441.875,186.269 445.72,197.419 
  449.565,209.098 453.41,221.294 457.255,233.991 461.1,247.18 464.944,260.847 468.789,274.978 472.634,289.56 476.479,304.576 480.324,320.013 484.168,335.854 
  488.013,352.084 491.858,368.687 495.703,385.645 499.548,402.942 503.393,420.56 507.237,438.483 511.082,456.691 514.927,475.166 518.772,493.891 522.617,512.847 
  526.462,532.013 530.306,551.372 534.151,570.905 537.996,590.591 541.841,610.41 545.686,630.343 549.531,650.371 553.375,670.473 557.22,690.628 561.065,710.818 
  564.91,731.021 568.755,751.218 572.6,771.387 576.444,791.509 580.289,811.565 584.134,831.534 587.979,851.395 591.824,871.129 595.669,890.717 599.513,910.138 
  603.358,929.373 607.203,948.404 611.048,967.211 614.893,985.774 618.738,1004.08 622.582,1022.1 626.427,1039.82 630.272,1057.23 634.117,1074.31 637.962,1091.04 
  641.807,1107.4 645.651,1123.37 649.496,1138.95 653.341,1154.12 657.186,1168.85 661.031,1183.14 664.876,1196.97 668.72,1210.33 672.565,1223.2 676.41,1235.57 
  680.255,1247.44 684.1,1258.78 687.944,1269.58 691.789,1279.84 695.634,1289.54 699.479,1298.68 703.324,1307.25 707.169,1315.23 711.013,1322.62 714.858,1329.41 
  718.703,1335.6 722.548,1341.18 726.393,1346.14 730.238,1350.48 734.082,1354.19 737.927,1357.27 741.772,1359.72 745.617,1361.53 749.462,1362.71 753.307,1363.25 
  757.151,1363.15 760.996,1362.41 764.841,1361.03 768.686,1359.02 772.531,1356.37 776.376,1353.09 780.22,1349.18 784.065,1344.65 787.91,1339.49 791.755,1333.72 
  795.6,1327.35 799.445,1320.36 803.289,1312.79 807.134,1304.62 810.979,1295.87 814.824,1286.55 818.669,1276.67 822.514,1266.24 826.358,1255.27 830.203,1243.76 
  834.048,1231.74 837.893,1219.2 841.738,1206.18 845.583,1192.67 849.427,1178.69 853.272,1164.26 857.117,1149.39 860.962,1134.09 864.807,1118.39 868.651,1102.29 
  872.496,1085.81 876.341,1068.97 880.186,1051.79 884.031,1034.28 887.876,1016.46 891.72,998.349 895.565,979.963 899.41,961.321 903.255,942.443 907.1,923.346 
  910.945,904.05 914.789,884.575 918.634,864.94 922.479,845.164 926.324,825.266 930.169,805.268 934.014,785.189 937.858,765.049 941.703,744.869 945.548,724.668 
  949.393,704.467 953.238,684.285 957.083,664.142 960.927,644.06 964.772,624.059 968.617,604.157 972.462,584.377 976.307,564.738 980.152,545.257 983.996,525.955 
  987.841,506.851 991.686,487.965 995.531,469.316 999.376,450.923 1003.22,432.803 1007.07,414.976 1010.91,397.457 1014.76,380.266 1018.6,363.42 1022.44,346.934 
  1026.29,330.826 1030.13,315.112 1033.98,299.808 1037.82,284.928 1041.67,270.489 1045.51,256.504 1049.36,242.986 1053.2,229.951 1057.05,217.41 1060.89,205.375 
  1064.74,193.859 1068.58,182.875 1072.43,172.433 1076.27,162.543 1080.12,153.214 1083.96,144.457 1087.81,136.28 1091.65,128.69 1095.5,121.695 1099.34,115.305 
  1103.19,109.524 1107.03,104.358 1110.88,99.8115 1114.72,95.8897 1118.57,92.596 1122.41,89.9334 1126.26,87.905 1130.1,86.5149 1133.94,85.7628 1137.79,85.6494 
  1141.63,86.1745 1145.48,87.3376 1149.32,89.1372 1153.17,91.5712 1157.01,94.6387 1160.86,98.3373 1164.7,102.662 1168.55,107.609 1172.39,113.172 1176.24,119.345 
  1180.08,126.124 1183.93,133.499 1187.77,141.467 1191.62,150.019 1195.46,159.145 1199.31,168.836 1203.15,179.083 1207,189.874 1210.84,201.199 1214.69,213.046 
  1218.53,225.407 1222.38,238.267 1226.22,251.612 1230.07,265.431 1233.91,279.708 1237.76,294.429 1241.6,309.579 1245.44,325.144 1249.29,341.11 1253.13,357.459 
  1256.98,374.174 1260.82,391.24 1264.67,408.638 1268.51,426.352 1272.36,444.362 1276.2,462.653 1280.05,481.207 1283.89,500.004 1287.74,519.025 1291.58,538.251 
  1295.43,557.663 1299.27,577.241 1303.12,596.965 1306.96,616.818 1310.81,636.779 1314.65,656.827 1318.5,676.942 1322.34,697.105 1326.19,717.294 1330.03,737.49 
  1333.88,757.672 1337.72,777.822 1341.57,797.919 1345.41,817.941 1349.26,837.87 1353.1,857.686 1356.94,877.367 1360.79,896.895 1364.63,916.251 1368.48,935.415 
  1372.32,954.368 1376.17,973.09 1380.01,991.564 1383.86,1009.77 1387.7,1027.69 1391.55,1045.31 1395.39,1062.61 1399.24,1079.56 1403.08,1096.17 1406.93,1112.4 
  1410.77,1128.24 1414.62,1143.68 1418.46,1158.7 1422.31,1173.28 1426.15,1187.42 1430,1201.09 1433.84,1214.28 1437.69,1226.99 1441.53,1239.19 1445.38,1250.88 
  1449.22,1262.04 1453.07,1272.67 1456.91,1282.74 1460.76,1292.26 1464.6,1301.21 1468.44,1309.58 1472.29,1317.37 1476.13,1324.56 1479.98,1331.15 1483.82,1337.14 
  1487.67,1342.51 1491.51,1347.27 1495.36,1351.4 1499.2,1354.91 1503.05,1357.78 1506.89,1360.02 1510.74,1361.63 1514.58,1362.6 1518.43,1362.93 1522.27,1362.62 
  1526.12,1361.67 1529.96,1360.09 1533.81,1357.87 1537.65,1355.02 1541.5,1351.53 1545.34,1347.42 1549.19,1342.69 1553.03,1337.33 1556.88,1331.37 1560.72,1324.8 
  1564.57,1317.62 1568.41,1309.86 1572.26,1301.51 1576.1,1292.58 1579.95,1283.08 1583.79,1273.03 1587.63,1262.42 1591.48,1251.28 1595.32,1239.61 1599.17,1227.43 
  1603.01,1214.75 1606.86,1201.57 1610.7,1187.91 1614.55,1173.8 1618.39,1159.23 1622.24,1144.23 1626.08,1128.81 1629.93,1112.98 1633.77,1096.77 1637.62,1080.18 
  1641.46,1063.24 1645.31,1045.96 1649.15,1028.36 1653,1010.45 1656.84,992.26 1660.69,973.802 1664.53,955.092 1668.38,936.152 1672.22,917.001 1676.07,897.657 
  1679.91,878.14 1683.76,858.47 1687.6,838.667 1691.45,818.749 1695.29,798.736 1699.13,778.649 1702.98,758.508 1706.82,738.333 1710.67,718.145 1714.51,697.963 
  1718.36,677.808 1722.2,657.699 1726.05,637.657 1729.89,617.702 1733.74,597.853 1737.58,578.132 1741.43,558.557 1745.27,539.148 1749.12,519.925 1752.96,500.906 
  1756.81,482.11 1760.65,463.557 1764.5,445.265 1768.34,427.253 1772.19,409.537 1776.03,392.137 1779.88,375.069 1783.72,358.351 1787.57,341.998 1791.41,326.029 
  1795.26,310.458 1799.1,295.301 1802.95,280.573 1806.79,266.288 1810.63,252.463 1814.48,239.109 1818.32,226.241 1822.17,213.872 1826.01,202.013 1829.86,190.676 
  1833.7,179.872 1837.55,169.613 1841.39,159.91 1845.24,150.772 1849.08,142.207 1852.93,134.225 1856.77,126.832 1860.62,120.037 1864.46,113.846 1868.31,108.265 
  1872.15,103.302 1876,98.9606 1879.84,95.2442 1883.69,92.1569 1887.53,89.7016 1891.38,87.8803 1895.22,86.6947 1899.07,86.1472 1902.91,86.238 1906.76,86.9667 
  1910.6,88.3326 1914.45,90.3341 1918.29,92.9693 1922.13,96.236 1925.98,100.131 1929.82,104.65 1933.67,109.788 1937.51,115.541 1941.36,121.903 1945.2,128.867 
  1949.05,136.427 1952.89,144.575 1956.74,153.303 1960.58,162.601 1964.43,172.462 1968.27,182.875 1972.12,193.829 1975.96,205.314 1979.81,217.317 1983.65,229.827 
  1987.5,242.833 1991.34,256.32 1995.19,270.275 1999.03,284.684 2002.88,299.532 2006.72,314.805 2010.57,330.488 2014.41,346.565 2018.26,363.019 2022.1,379.835 
  2025.95,396.995 2029.79,414.482 2033.64,432.28 2037.48,450.369 2041.32,468.733 2045.17,487.352 2049.01,506.207 2052.86,525.281 2056.7,544.555 2060.55,564.008 
  2064.39,583.621 2068.24,603.375 2072.08,623.25 2075.93,643.226 2079.77,663.284 2083.62,683.402 2087.46,703.561 2091.31,723.741 2095.15,743.922 2099,764.083 
  2102.84,784.205 2106.69,804.266 2110.53,824.248 2114.38,844.13 2118.22,863.892 2122.07,883.515 2125.91,902.978 2129.76,922.263 2133.6,941.35 2137.45,960.22 
  2141.29,978.854 2145.14,997.233 2148.98,1015.34 2152.82,1033.16 2156.67,1050.66 2160.51,1067.84 2164.36,1084.68 2168.2,1101.16 2172.05,1117.26 2175.89,1132.96 
  2179.74,1148.26 2183.58,1163.14 2187.43,1177.57 2191.27,1191.56 2195.12,1205.07 2198.96,1218.11 2202.81,1230.65 2206.65,1242.69 2210.5,1254.2 2214.34,1265.19 
  2218.19,1275.64 2222.03,1285.53 2225.88,1294.86 2229.72,1303.63 2233.57,1311.81 2237.41,1319.41 2241.26,1326.41 2245.1,1332.81 2248.95,1338.6 2252.79,1343.78 
  2256.64,1348.34 2260.48,1352.27 2264.32,1355.58 2268.17,1358.25 2272.01,1360.29 2275.86,1361.7 2279.7,1362.47 2283.55,1362.6 2287.39,1362.09 2291.24,1360.94 
  2295.08,1359.16 
  "/>
<polyline clip-path="url(#clip222)" style="stroke:#e26f46; stroke-linecap:butt; stroke-linejoin:round; stroke-width:8; stroke-opacity:1; fill:none" points="
  372.668,937.335 376.513,937.226 380.358,936.907 384.203,936.375 388.048,935.631 391.893,934.677 395.737,933.511 399.582,932.137 403.427,930.555 407.272,928.768 
  411.117,926.775 414.962,924.581 418.806,922.187 422.651,919.595 426.496,916.808 430.341,913.828 434.186,910.659 438.031,907.303 441.875,903.766 445.72,900.05 
  449.565,896.159 453.41,892.097 457.255,887.866 461.1,883.47 464.944,878.916 468.789,874.207 472.634,869.348 476.479,864.343 480.324,859.198 484.168,853.917 
  488.013,848.507 491.858,842.973 495.703,837.319 499.548,831.553 503.393,825.68 507.237,819.706 511.082,813.636 514.927,807.477 518.772,801.235 522.617,794.917 
  526.462,788.527 530.306,782.074 534.151,775.563 537.996,769.001 541.841,762.394 545.686,755.75 549.531,749.074 553.375,742.373 557.22,735.654 561.065,728.924 
  564.91,722.19 568.755,715.457 572.6,708.734 576.444,702.026 580.289,695.34 584.134,688.683 587.979,682.062 591.824,675.482 595.669,668.953 599.513,662.478 
  603.358,656.064 607.203,649.719 611.048,643.448 614.893,637.259 618.738,631.157 622.582,625.148 626.427,619.238 630.272,613.432 634.117,607.738 637.962,602.161 
  641.807,596.707 645.651,591.38 649.496,586.186 653.341,581.129 657.186,576.217 661.031,571.453 664.876,566.842 668.72,562.388 672.565,558.097 676.41,553.971 
  680.255,550.016 684.1,546.236 687.944,542.635 691.789,539.214 695.634,535.979 699.479,532.932 703.324,530.077 707.169,527.417 711.013,524.953 714.858,522.689 
  718.703,520.626 722.548,518.768 726.393,517.115 730.238,515.67 734.082,514.433 737.927,513.406 741.772,512.59 745.617,511.986 749.462,511.595 753.307,511.417 
  757.151,511.451 760.996,511.699 764.841,512.159 768.686,512.831 772.531,513.716 776.376,514.811 780.22,516.116 784.065,517.629 787.91,519.348 791.755,521.273 
  795.6,523.402 799.445,525.731 803.289,528.259 807.134,530.983 810.979,533.901 814.824,537.009 818.669,540.305 822.514,543.785 826.358,547.445 830.203,551.283 
  834.048,555.294 837.893,559.474 841.738,563.819 845.583,568.324 849.427,572.986 853.272,577.8 857.117,582.76 860.962,587.861 864.807,593.099 868.651,598.469 
  872.496,603.965 876.341,609.581 880.186,615.312 884.031,621.151 887.876,627.094 891.72,633.135 895.565,639.268 899.41,645.485 903.255,651.781 907.1,658.149 
  910.945,664.585 914.789,671.08 918.634,677.629 922.479,684.224 926.324,690.859 930.169,697.527 934.014,704.223 937.858,710.94 941.703,717.67 945.548,724.406 
  949.393,731.142 953.238,737.871 957.083,744.588 960.927,751.284 964.772,757.953 968.617,764.589 972.462,771.184 976.307,777.732 980.152,784.228 983.996,790.663 
  987.841,797.033 991.686,803.329 995.531,809.546 999.376,815.679 1003.22,821.72 1007.07,827.664 1010.91,833.505 1014.76,839.236 1018.6,844.852 1022.44,850.348 
  1026.29,855.719 1030.13,860.958 1033.98,866.06 1037.82,871.02 1041.67,875.834 1045.51,880.496 1049.36,885.003 1053.2,889.349 1057.05,893.529 1060.89,897.54 
  1064.74,901.378 1068.58,905.04 1072.43,908.521 1076.27,911.817 1080.12,914.926 1083.96,917.844 1087.81,920.569 1091.65,923.097 1095.5,925.428 1099.34,927.556 
  1103.19,929.482 1107.03,931.202 1110.88,932.715 1114.72,934.021 1118.57,935.116 1122.41,936.001 1126.26,936.674 1130.1,937.134 1133.94,937.382 1137.79,937.417 
  1141.63,937.239 1145.48,936.847 1149.32,936.243 1153.17,935.428 1157.01,934.401 1160.86,933.164 1164.7,931.718 1168.55,930.065 1172.39,928.206 1176.24,926.144 
  1180.08,923.879 1183.93,921.415 1187.77,918.753 1191.62,915.898 1195.46,912.851 1199.31,909.615 1203.15,906.194 1207,902.591 1210.84,898.809 1214.69,894.854 
  1218.53,890.728 1222.38,886.435 1226.22,881.98 1230.07,877.368 1233.91,872.602 1237.76,867.689 1241.6,862.632 1245.44,857.436 1249.29,852.107 1253.13,846.651 
  1256.98,841.072 1260.82,835.378 1264.67,829.571 1268.51,823.659 1272.36,817.648 1276.2,811.544 1280.05,805.352 1283.89,799.081 1287.74,792.733 1291.58,786.317 
  1295.43,779.839 1299.27,773.306 1303.12,766.725 1306.96,760.101 1310.81,753.44 1314.65,746.751 1318.5,740.039 1322.34,733.312 1326.19,726.576 1330.03,719.838 
  1333.88,713.104 1337.72,706.381 1341.57,699.676 1345.41,692.996 1349.26,686.348 1353.1,679.738 1356.94,673.171 1360.79,666.656 1364.63,660.199 1368.48,653.807 
  1372.32,647.486 1376.17,641.24 1380.01,635.077 1383.86,629.004 1387.7,623.027 1391.55,617.151 1395.39,611.383 1399.24,605.727 1403.08,600.19 1406.93,594.777 
  1410.77,589.493 1414.62,584.346 1418.46,579.338 1422.31,574.474 1426.15,569.761 1430,565.202 1433.84,560.803 1437.69,556.568 1441.53,552.5 1445.38,548.604 
  1449.22,544.884 1453.07,541.343 1456.91,537.986 1460.76,534.816 1464.6,531.835 1468.44,529.046 1472.29,526.452 1476.13,524.057 1479.98,521.862 1483.82,519.871 
  1487.67,518.083 1491.51,516.501 1495.36,515.128 1499.2,513.964 1503.05,513.01 1506.89,512.269 1510.74,511.739 1514.58,511.421 1518.43,511.317 1522.27,511.426 
  1526.12,511.749 1529.96,512.283 1533.81,513.03 1537.65,513.989 1541.5,515.158 1545.34,516.536 1549.19,518.122 1553.03,519.915 1556.88,521.912 1560.72,524.111 
  1564.57,526.511 1568.41,529.109 1572.26,531.902 1576.1,534.888 1579.95,538.064 1583.79,541.426 1587.63,544.971 1591.48,548.695 1595.32,552.595 1599.17,556.667 
  1603.01,560.907 1606.86,565.311 1610.7,569.873 1614.55,574.59 1618.39,579.457 1622.24,584.469 1626.08,589.622 1629.93,594.908 1633.77,600.325 1637.62,605.865 
  1641.46,611.524 1645.31,617.297 1649.15,623.176 1653,629.156 1656.84,635.232 1660.69,641.397 1664.53,647.645 1668.38,653.97 1672.22,660.366 1676.07,666.825 
  1679.91,673.342 1683.76,679.909 1687.6,686.523 1691.45,693.174 1695.29,699.856 1699.13,706.562 1702.98,713.285 1706.82,720.021 1710.67,726.761 1714.51,733.499 
  1718.36,740.227 1722.2,746.94 1726.05,753.629 1729.89,760.29 1733.74,766.916 1737.58,773.498 1741.43,780.032 1745.27,786.509 1749.12,792.924 1752.96,799.272 
  1756.81,805.544 1760.65,811.736 1764.5,817.839 1768.34,823.849 1772.19,829.76 1776.03,835.565 1779.88,841.26 1783.72,846.838 1787.57,852.292 1791.41,857.619 
  1795.26,862.812 1799.1,867.868 1802.95,872.78 1806.79,877.544 1810.63,882.154 1814.48,886.605 1818.32,890.896 1822.17,895.02 1826.01,898.973 1829.86,902.752 
  1833.7,906.351 1837.55,909.769 1841.39,913.002 1845.24,916.046 1849.08,918.898 1852.93,921.556 1856.77,924.016 1860.62,926.276 1864.46,928.335 1868.31,930.19 
  1872.15,931.839 1876,933.281 1879.84,934.513 1883.69,935.535 1887.53,936.346 1891.38,936.946 1895.22,937.332 1899.07,937.505 1902.91,937.465 1906.76,937.213 
  1910.6,936.747 1914.45,936.069 1918.29,935.179 1922.13,934.078 1925.98,932.767 1929.82,931.248 1933.67,929.523 1937.51,927.591 1941.36,925.457 1945.2,923.122 
  1949.05,920.587 1952.89,917.856 1956.74,914.932 1960.58,911.817 1964.43,908.515 1968.27,905.029 1972.12,901.362 1975.96,897.517 1979.81,893.5 1983.65,889.313 
  1987.5,884.962 1991.34,880.45 1995.19,875.781 1999.03,870.961 2002.88,865.995 2006.72,860.887 2010.57,855.642 2014.41,850.267 2018.26,844.765 2022.1,839.142 
  2025.95,833.405 2029.79,827.559 2033.64,821.61 2037.48,815.563 2041.32,809.425 2045.17,803.201 2049.01,796.899 2052.86,790.525 2056.7,784.085 2060.55,777.585 
  2064.39,771.031 2068.24,764.43 2072.08,757.79 2075.93,751.116 2079.77,744.417 2083.62,737.696 2087.46,730.961 2091.31,724.22 2095.15,717.48 2099,710.747 
  2102.84,704.028 2106.69,697.328 2110.53,690.655 2114.38,684.016 2118.22,677.418 2122.07,670.867 2125.91,664.369 2129.76,657.931 2133.6,651.559 2137.45,645.261 
  2141.29,639.041 2145.14,632.908 2148.98,626.865 2152.82,620.92 2156.67,615.078 2160.51,609.346 2164.36,603.729 2168.2,598.233 2172.05,592.862 2175.89,587.623 
  2179.74,582.521 2183.58,577.561 2187.43,572.748 2191.27,568.087 2195.12,563.582 2198.96,559.237 2202.81,555.058 2206.65,551.048 2210.5,547.212 2214.34,543.553 
  2218.19,540.074 2222.03,536.78 2225.88,533.674 2229.72,530.759 2233.57,528.037 2237.41,525.512 2241.26,523.185 2245.1,521.06 2248.95,519.138 2252.79,517.422 
  2256.64,515.913 2260.48,514.612 2264.32,513.521 2268.17,512.64 2272.01,511.972 2275.86,511.517 2279.7,511.274 2283.55,511.244 2287.39,511.428 2291.24,511.824 
  2295.08,512.434 
  "/>
<polyline clip-path="url(#clip222)" style="stroke:#3da44d; stroke-linecap:butt; stroke-linejoin:round; stroke-width:8; stroke-opacity:1; fill:none" points="
  372.668,930.292 376.513,930.627 380.358,930.822 384.203,930.872 388.048,930.77 391.893,930.51 395.737,930.083 399.582,929.481 403.427,928.695 407.272,927.715 
  411.117,926.53 414.962,925.13 418.806,923.504 422.651,921.643 426.496,919.537 430.341,917.179 434.186,914.562 438.031,911.685 441.875,908.547 445.72,905.149 
  449.565,901.499 453.41,897.603 457.255,893.47 461.1,889.109 464.944,884.527 468.789,879.726 472.634,874.705 476.479,869.456 480.324,863.965 484.168,858.213 
  488.013,852.178 491.858,845.839 495.703,839.184 499.548,832.211 503.393,824.94 507.237,817.414 511.082,809.705 514.927,801.911 518.772,794.155 522.617,786.569 
  526.462,779.285 530.306,772.42 534.151,766.058 537.996,760.243 541.841,754.97 545.686,750.187 549.531,745.795 553.375,741.663 557.22,737.637 561.065,733.553 
  564.91,729.25 568.755,724.582 572.6,719.426 576.444,713.694 580.289,707.334 584.134,700.342 587.979,692.756 591.824,684.659 595.669,676.169 599.513,667.428 
  603.358,658.588 607.203,649.798 611.048,641.192 614.893,632.878 618.738,624.938 622.582,617.425 626.427,610.367 630.272,603.771 634.117,597.628 637.962,591.915 
  641.807,586.605 645.651,581.666 649.496,577.062 653.341,572.762 657.186,568.732 661.031,564.946 664.876,561.375 668.72,558 672.565,554.8 676.41,551.761 
  680.255,548.87 684.1,546.118 687.944,543.497 691.789,541.004 695.634,538.633 699.479,536.384 703.324,534.256 707.169,532.248 711.013,530.361 714.858,528.597 
  718.703,526.955 722.548,525.437 726.393,524.045 730.238,522.78 734.082,521.643 737.927,520.636 741.772,519.759 745.617,519.014 749.462,518.403 753.307,517.928 
  757.151,517.59 760.996,517.392 764.841,517.335 768.686,517.424 772.531,517.661 776.376,518.05 780.22,518.596 784.065,519.303 787.91,520.176 791.755,521.222 
  795.6,522.447 799.445,523.857 803.289,525.46 807.134,527.265 810.979,529.278 814.824,531.509 818.669,533.966 822.514,536.659 826.358,539.597 830.203,542.792 
  834.048,546.253 837.893,549.994 841.738,554.028 845.583,558.374 849.427,563.05 853.272,568.081 857.117,573.492 860.962,579.312 864.807,585.569 868.651,592.286 
  872.496,599.475 876.341,607.128 880.186,615.208 884.031,623.641 887.876,632.313 891.72,641.068 895.565,649.724 899.41,658.082 903.255,665.956 907.1,673.189 
  910.945,679.678 914.789,685.38 918.634,690.318 922.479,694.575 926.324,698.282 930.169,701.606 934.014,704.734 937.858,707.858 941.703,711.167 945.548,714.835 
  949.393,719.012 953.238,723.822 957.083,729.35 960.927,735.645 964.772,742.707 968.617,750.491 972.462,758.904 976.307,767.812 980.152,777.051 983.996,786.444 
  987.841,795.811 991.686,804.99 995.531,813.846 999.376,822.277 1003.22,830.217 1007.07,837.63 1010.91,844.508 1014.76,850.862 1018.6,856.72 1022.44,862.119 
  1026.29,867.1 1030.13,871.704 1033.98,875.975 1037.82,879.95 1041.67,883.665 1045.51,887.15 1049.36,890.433 1053.2,893.535 1057.05,896.474 1060.89,899.265 
  1064.74,901.921 1068.58,904.449 1072.43,906.856 1076.27,909.146 1080.12,911.324 1083.96,913.391 1087.81,915.347 1091.65,917.194 1095.5,918.931 1099.34,920.557 
  1103.19,922.071 1107.03,923.473 1110.88,924.761 1114.72,925.933 1118.57,926.988 1122.41,927.923 1126.26,928.736 1130.1,929.424 1133.94,929.984 1137.79,930.411 
  1141.63,930.702 1145.48,930.851 1149.32,930.853 1153.17,930.701 1157.01,930.388 1160.86,929.906 1164.7,929.246 1168.55,928.399 1172.39,927.354 1176.24,926.101 
  1180.08,924.63 1183.93,922.93 1187.77,920.991 1191.62,918.804 1195.46,916.363 1199.31,913.663 1203.15,910.701 1207,907.478 1210.84,903.999 1214.69,900.268 
  1218.53,896.295 1222.38,892.088 1226.22,887.655 1230.07,883.003 1233.91,878.133 1237.76,873.04 1241.6,867.716 1245.44,862.144 1249.29,856.303 1253.13,850.173 
  1256.98,843.735 1260.82,836.978 1264.67,829.907 1268.51,822.55 1272.36,814.957 1276.2,807.21 1280.05,799.415 1283.89,791.699 1287.74,784.197 1291.58,777.036 
  1295.43,770.325 1299.27,764.135 1303.12,758.496 1306.96,753.386 1310.81,748.738 1314.65,744.443 1318.5,740.359 1322.34,736.33 1326.19,732.19 1330.03,727.784 
  1333.88,722.969 1337.72,717.635 1341.57,711.704 1345.41,705.14 1349.26,697.951 1353.1,690.192 1356.94,681.957 1360.79,673.372 1364.63,664.585 1368.48,655.747 
  1372.32,647.005 1376.17,638.483 1380.01,630.283 1383.86,622.477 1387.7,615.11 1391.55,608.201 1395.39,601.752 1399.24,595.75 1403.08,590.17 1406.93,584.983 
  1410.77,580.155 1414.62,575.652 1418.46,571.443 1422.31,567.494 1426.15,563.78 1430,560.274 1433.84,556.957 1437.69,553.811 1441.53,550.821 1445.38,547.977 
  1449.22,545.268 1453.07,542.689 1456.91,540.236 1460.76,537.906 1464.6,535.696 1468.44,533.608 1472.29,531.64 1476.13,529.793 1479.98,528.068 1483.82,526.467 
  1487.67,524.991 1491.51,523.64 1495.36,522.417 1499.2,521.322 1503.05,520.357 1506.89,519.523 1510.74,518.822 1514.58,518.256 1518.43,517.825 1522.27,517.532 
  1526.12,517.38 1529.96,517.371 1533.81,517.507 1537.65,517.793 1541.5,518.233 1545.34,518.831 1549.19,519.591 1553.03,520.52 1556.88,521.623 1560.72,522.907 
  1564.57,524.379 1568.41,526.047 1572.26,527.918 1576.1,530 1579.95,532.303 1583.79,534.835 1587.63,537.606 1591.48,540.625 1595.32,543.904 1599.17,547.453 
  1603.01,551.287 1606.86,555.42 1610.7,559.869 1614.55,564.657 1618.39,569.807 1622.24,575.346 1626.08,581.304 1629.93,587.707 1633.77,594.575 1637.62,601.915 
  1641.46,609.71 1645.31,617.912 1649.15,626.433 1653,635.147 1656.84,643.888 1660.69,652.466 1664.53,660.685 1668.38,668.364 1672.22,675.365 1676.07,681.602 
  1679.91,687.054 1683.76,691.763 1687.6,695.831 1691.45,699.4 1695.29,702.645 1699.13,705.757 1702.98,708.927 1706.82,712.339 1710.67,716.161 1714.51,720.534 
  1718.36,725.571 1722.2,731.345 1726.05,737.889 1729.89,745.19 1733.74,753.186 1737.58,761.771 1741.43,770.8 1745.27,780.102 1749.12,789.499 1752.96,798.816 
  1756.81,807.899 1760.65,816.623 1764.5,824.899 1768.34,832.668 1772.19,839.906 1776.03,846.611 1779.88,852.8 1783.72,858.506 1787.57,863.765 1791.41,868.619 
  1795.26,873.112 1799.1,877.283 1802.95,881.17 1806.79,884.807 1810.63,888.224 1814.48,891.446 1818.32,894.493 1822.17,897.383 1826.01,900.128 1829.86,902.741 
  1833.7,905.228 1837.55,907.596 1841.39,909.849 1845.24,911.99 1849.08,914.019 1852.93,915.939 1856.77,917.749 1860.62,919.449 1864.46,921.038 1868.31,922.516 
  1872.15,923.88 1876,925.129 1879.84,926.263 1883.69,927.278 1887.53,928.173 1891.38,928.945 1895.22,929.591 1899.07,930.107 1902.91,930.49 1906.76,930.735 
  1910.6,930.836 1914.45,930.789 1918.29,930.585 1922.13,930.218 1925.98,929.678 1929.82,928.959 1933.67,928.048 1937.51,926.937 1941.36,925.615 1945.2,924.07 
  1949.05,922.294 1952.89,920.276 1956.74,918.009 1960.58,915.485 1964.43,912.701 1968.27,909.656 1972.12,906.351 1975.96,902.791 1979.81,898.984 1983.65,894.936 
  1987.5,890.657 1991.34,886.155 1995.19,881.435 1999.03,876.495 2002.88,871.332 2006.72,865.931 2010.57,860.277 2014.41,854.348 2018.26,848.123 2022.1,841.586 
  2025.95,834.729 2029.79,827.565 2033.64,820.128 2037.48,812.479 2041.32,804.707 2045.17,796.927 2049.01,789.268 2052.86,781.864 2056.7,774.838 2060.55,768.288 
  2064.39,762.273 2068.24,756.805 2072.08,751.85 2075.93,747.325 2079.77,743.109 2083.62,739.057 2087.46,735.006 2091.31,730.794 2095.15,726.268 2099,721.296 
  2102.84,715.778 2106.69,709.647 2110.53,702.882 2114.38,695.506 2118.22,687.586 2122.07,679.228 2125.91,670.566 2129.76,661.75 2133.6,652.933 2137.45,644.252 
  2141.29,635.827 2145.14,627.748 2148.98,620.081 2152.82,612.86 2156.67,606.1 2160.51,599.797 2164.36,593.933 2168.2,588.482 2172.05,583.413 2175.89,578.693 
  2179.74,574.287 2183.58,570.164 2187.43,566.293 2191.27,562.648 2195.12,559.205 2198.96,555.945 2202.81,552.85 2206.65,549.908 2210.5,547.109 2214.34,544.443 
  2218.19,541.905 2222.03,539.492 2225.88,537.201 2229.72,535.031 2233.57,532.981 2237.41,531.052 2241.26,529.245 2245.1,527.56 2248.95,525.999 2252.79,524.563 
  2256.64,523.253 2260.48,522.071 2264.32,521.018 2268.17,520.095 2272.01,519.304 2275.86,518.645 2279.7,518.122 2283.55,517.735 2287.39,517.486 2291.24,517.379 
  2295.08,517.416 
  "/>
<path clip-path="url(#clip220)" d="
M1468.95 334.309 L2284.83 334.309 L2284.83 92.3886 L1468.95 92.3886  Z
  " fill="#ffffff" fill-rule="evenodd" fill-opacity="1"/>
<polyline clip-path="url(#clip220)" style="stroke:#000000; stroke-linecap:butt; stroke-linejoin:round; stroke-width:4; stroke-opacity:1; fill:none" points="
  1468.95,334.309 2284.83,334.309 2284.83,92.3886 1468.95,92.3886 1468.95,334.309 
  "/>
<polyline clip-path="url(#clip220)" style="stroke:#009af9; stroke-linecap:butt; stroke-linejoin:round; stroke-width:4; stroke-opacity:1; fill:none" points="
  1491.59,152.869 1627.44,152.869 
  "/>
<path clip-path="url(#clip220)" d="M1668.99 148.158 L1668.99 134.13 L1673.25 134.13 L1673.25 170.149 L1668.99 170.149 L1668.99 166.26 Q1667.65 168.575 1665.59 169.709 Q1663.55 170.82 1660.68 170.82 Q1655.99 170.82 1653.02 167.07 Q1650.08 163.32 1650.08 157.209 Q1650.08 151.098 1653.02 147.348 Q1655.99 143.598 1660.68 143.598 Q1663.55 143.598 1665.59 144.732 Q1667.65 145.843 1668.99 148.158 M1654.48 157.209 Q1654.48 161.908 1656.4 164.593 Q1658.35 167.255 1661.73 167.255 Q1665.11 167.255 1667.05 164.593 Q1668.99 161.908 1668.99 157.209 Q1668.99 152.51 1667.05 149.848 Q1665.11 147.163 1661.73 147.163 Q1658.35 147.163 1656.4 149.848 Q1654.48 152.51 1654.48 157.209 Z" fill="#000000" fill-rule="evenodd" fill-opacity="1" /><path clip-path="url(#clip220)" d="M1704.2 156.121 L1704.2 158.204 L1684.62 158.204 Q1684.9 162.602 1687.26 164.917 Q1689.64 167.209 1693.88 167.209 Q1696.33 167.209 1698.62 166.607 Q1700.94 166.005 1703.21 164.801 L1703.21 168.829 Q1700.92 169.801 1698.51 170.311 Q1696.1 170.82 1693.62 170.82 Q1687.42 170.82 1683.79 167.209 Q1680.18 163.598 1680.18 157.44 Q1680.18 151.075 1683.6 147.348 Q1687.05 143.598 1692.88 143.598 Q1698.11 143.598 1701.15 146.977 Q1704.2 150.334 1704.2 156.121 M1699.94 154.871 Q1699.9 151.376 1697.98 149.292 Q1696.08 147.209 1692.93 147.209 Q1689.36 147.209 1687.21 149.223 Q1685.08 151.237 1684.76 154.894 L1699.94 154.871 Z" fill="#000000" fill-rule="evenodd" fill-opacity="1" /><path clip-path="url(#clip220)" d="M1724.32 134.13 L1724.32 137.672 L1720.24 137.672 Q1717.95 137.672 1717.05 138.598 Q1716.17 139.524 1716.17 141.931 L1716.17 144.223 L1723.18 144.223 L1723.18 147.533 L1716.17 147.533 L1716.17 170.149 L1711.89 170.149 L1711.89 147.533 L1707.81 147.533 L1707.81 144.223 L1711.89 144.223 L1711.89 142.417 Q1711.89 138.089 1713.9 136.121 Q1715.92 134.13 1720.29 134.13 L1724.32 134.13 Z" fill="#000000" fill-rule="evenodd" fill-opacity="1" /><path clip-path="url(#clip220)" d="M1739.67 157.116 Q1734.5 157.116 1732.51 158.297 Q1730.52 159.477 1730.52 162.325 Q1730.52 164.593 1732 165.936 Q1733.51 167.255 1736.08 167.255 Q1739.62 167.255 1741.75 164.755 Q1743.9 162.232 1743.9 158.065 L1743.9 157.116 L1739.67 157.116 M1748.16 155.357 L1748.16 170.149 L1743.9 170.149 L1743.9 166.213 Q1742.44 168.575 1740.27 169.709 Q1738.09 170.82 1734.94 170.82 Q1730.96 170.82 1728.6 168.598 Q1726.26 166.352 1726.26 162.602 Q1726.26 158.227 1729.18 156.005 Q1732.12 153.783 1737.93 153.783 L1743.9 153.783 L1743.9 153.366 Q1743.9 150.427 1741.96 148.829 Q1740.04 147.209 1736.54 147.209 Q1734.32 147.209 1732.21 147.741 Q1730.11 148.274 1728.16 149.339 L1728.16 145.403 Q1730.5 144.501 1732.7 144.061 Q1734.9 143.598 1736.98 143.598 Q1742.61 143.598 1745.38 146.514 Q1748.16 149.431 1748.16 155.357 Z" fill="#000000" fill-rule="evenodd" fill-opacity="1" /><path clip-path="url(#clip220)" d="M1756.49 159.917 L1756.49 144.223 L1760.75 144.223 L1760.75 159.755 Q1760.75 163.436 1762.19 165.288 Q1763.62 167.116 1766.49 167.116 Q1769.94 167.116 1771.93 164.917 Q1773.95 162.718 1773.95 158.922 L1773.95 144.223 L1778.21 144.223 L1778.21 170.149 L1773.95 170.149 L1773.95 166.167 Q1772.4 168.528 1770.34 169.686 Q1768.3 170.82 1765.59 170.82 Q1761.12 170.82 1758.81 168.042 Q1756.49 165.264 1756.49 159.917 M1767.21 143.598 L1767.21 143.598 Z" fill="#000000" fill-rule="evenodd" fill-opacity="1" /><path clip-path="url(#clip220)" d="M1786.98 134.13 L1791.24 134.13 L1791.24 170.149 L1786.98 170.149 L1786.98 134.13 Z" fill="#000000" fill-rule="evenodd" fill-opacity="1" /><path clip-path="url(#clip220)" d="M1804.36 136.862 L1804.36 144.223 L1813.14 144.223 L1813.14 147.533 L1804.36 147.533 L1804.36 161.607 Q1804.36 164.778 1805.22 165.681 Q1806.1 166.584 1808.76 166.584 L1813.14 166.584 L1813.14 170.149 L1808.76 170.149 Q1803.83 170.149 1801.96 168.32 Q1800.08 166.468 1800.08 161.607 L1800.08 147.533 L1796.96 147.533 L1796.96 144.223 L1800.08 144.223 L1800.08 136.862 L1804.36 136.862 Z" fill="#000000" fill-rule="evenodd" fill-opacity="1" /><path clip-path="url(#clip220)" d="M1818.92 135.589 L1838.79 135.589 L1838.79 139.524 L1823.6 139.524 L1823.6 149.709 L1837.3 149.709 L1837.3 153.644 L1823.6 153.644 L1823.6 170.149 L1818.92 170.149 L1818.92 135.589 Z" fill="#000000" fill-rule="evenodd" fill-opacity="1" /><path clip-path="url(#clip220)" d="M1846.19 135.589 L1853.16 135.589 L1861.98 159.107 L1870.85 135.589 L1877.81 135.589 L1877.81 170.149 L1873.25 170.149 L1873.25 139.802 L1864.34 163.505 L1859.64 163.505 L1850.73 139.802 L1850.73 170.149 L1846.19 170.149 L1846.19 135.589 Z" fill="#000000" fill-rule="evenodd" fill-opacity="1" /><path clip-path="url(#clip220)" d="M1886.56 135.589 L1891.26 135.589 L1891.26 156.584 Q1891.26 162.139 1893.28 164.593 Q1895.29 167.024 1899.8 167.024 Q1904.29 167.024 1906.31 164.593 Q1908.32 162.139 1908.32 156.584 L1908.32 135.589 L1913.02 135.589 L1913.02 157.163 Q1913.02 163.922 1909.66 167.371 Q1906.33 170.82 1899.8 170.82 Q1893.25 170.82 1889.9 167.371 Q1886.56 163.922 1886.56 157.163 L1886.56 135.589 Z" fill="#000000" fill-rule="evenodd" fill-opacity="1" /><polyline clip-path="url(#clip220)" style="stroke:#e26f46; stroke-linecap:butt; stroke-linejoin:round; stroke-width:4; stroke-opacity:1; fill:none" points="
  1491.59,213.349 1627.44,213.349 
  "/>
<path clip-path="url(#clip220)" d="M1665.27 208.684 Q1664.55 208.268 1663.69 208.082 Q1662.86 207.874 1661.84 207.874 Q1658.23 207.874 1656.29 210.235 Q1654.36 212.573 1654.36 216.971 L1654.36 230.629 L1650.08 230.629 L1650.08 204.703 L1654.36 204.703 L1654.36 208.731 Q1655.71 206.369 1657.86 205.235 Q1660.01 204.078 1663.09 204.078 Q1663.53 204.078 1664.06 204.147 Q1664.6 204.194 1665.24 204.309 L1665.27 208.684 Z" fill="#000000" fill-rule="evenodd" fill-opacity="1" /><path clip-path="url(#clip220)" d="M1690.87 216.601 L1690.87 218.684 L1671.29 218.684 Q1671.56 223.082 1673.93 225.397 Q1676.31 227.689 1680.55 227.689 Q1683 227.689 1685.29 227.087 Q1687.61 226.485 1689.87 225.281 L1689.87 229.309 Q1687.58 230.281 1685.17 230.791 Q1682.77 231.3 1680.29 231.3 Q1674.09 231.3 1670.45 227.689 Q1666.84 224.078 1666.84 217.92 Q1666.84 211.555 1670.27 207.828 Q1673.72 204.078 1679.55 204.078 Q1684.78 204.078 1687.81 207.457 Q1690.87 210.814 1690.87 216.601 M1686.61 215.351 Q1686.56 211.856 1684.64 209.772 Q1682.74 207.689 1679.6 207.689 Q1676.03 207.689 1673.88 209.703 Q1671.75 211.717 1671.43 215.374 L1686.61 215.351 Z" fill="#000000" fill-rule="evenodd" fill-opacity="1" /><path clip-path="url(#clip220)" d="M1710.99 194.61 L1710.99 198.152 L1706.91 198.152 Q1704.62 198.152 1703.72 199.078 Q1702.84 200.004 1702.84 202.411 L1702.84 204.703 L1709.85 204.703 L1709.85 208.013 L1702.84 208.013 L1702.84 230.629 L1698.55 230.629 L1698.55 208.013 L1694.48 208.013 L1694.48 204.703 L1698.55 204.703 L1698.55 202.897 Q1698.55 198.569 1700.57 196.601 Q1702.58 194.61 1706.96 194.61 L1710.99 194.61 Z" fill="#000000" fill-rule="evenodd" fill-opacity="1" /><path clip-path="url(#clip220)" d="M1736.73 216.601 L1736.73 218.684 L1717.14 218.684 Q1717.42 223.082 1719.78 225.397 Q1722.17 227.689 1726.4 227.689 Q1728.86 227.689 1731.15 227.087 Q1733.46 226.485 1735.73 225.281 L1735.73 229.309 Q1733.44 230.281 1731.03 230.791 Q1728.62 231.3 1726.15 231.3 Q1719.94 231.3 1716.31 227.689 Q1712.7 224.078 1712.7 217.92 Q1712.7 211.555 1716.12 207.828 Q1719.57 204.078 1725.41 204.078 Q1730.64 204.078 1733.67 207.457 Q1736.73 210.814 1736.73 216.601 M1732.47 215.351 Q1732.42 211.856 1730.5 209.772 Q1728.6 207.689 1725.45 207.689 Q1721.89 207.689 1719.73 209.703 Q1717.61 211.717 1717.28 215.374 L1732.47 215.351 Z" fill="#000000" fill-rule="evenodd" fill-opacity="1" /><path clip-path="url(#clip220)" d="M1758.74 208.684 Q1758.02 208.268 1757.17 208.082 Q1756.33 207.874 1755.31 207.874 Q1751.7 207.874 1749.76 210.235 Q1747.84 212.573 1747.84 216.971 L1747.84 230.629 L1743.55 230.629 L1743.55 204.703 L1747.84 204.703 L1747.84 208.731 Q1749.18 206.369 1751.33 205.235 Q1753.48 204.078 1756.56 204.078 Q1757 204.078 1757.54 204.147 Q1758.07 204.194 1758.72 204.309 L1758.74 208.684 Z" fill="#000000" fill-rule="evenodd" fill-opacity="1" /><path clip-path="url(#clip220)" d="M1784.34 216.601 L1784.34 218.684 L1764.76 218.684 Q1765.04 223.082 1767.4 225.397 Q1769.78 227.689 1774.02 227.689 Q1776.47 227.689 1778.76 227.087 Q1781.08 226.485 1783.35 225.281 L1783.35 229.309 Q1781.05 230.281 1778.65 230.791 Q1776.24 231.3 1773.76 231.3 Q1767.56 231.3 1763.92 227.689 Q1760.31 224.078 1760.31 217.92 Q1760.31 211.555 1763.74 207.828 Q1767.19 204.078 1773.02 204.078 Q1778.25 204.078 1781.29 207.457 Q1784.34 210.814 1784.34 216.601 M1780.08 215.351 Q1780.04 211.856 1778.11 209.772 Q1776.22 207.689 1773.07 207.689 Q1769.5 207.689 1767.35 209.703 Q1765.22 211.717 1764.9 215.374 L1780.08 215.351 Z" fill="#000000" fill-rule="evenodd" fill-opacity="1" /><path clip-path="url(#clip220)" d="M1812.88 214.981 L1812.88 230.629 L1808.62 230.629 L1808.62 215.119 Q1808.62 211.439 1807.19 209.61 Q1805.75 207.782 1802.88 207.782 Q1799.43 207.782 1797.44 209.981 Q1795.45 212.18 1795.45 215.976 L1795.45 230.629 L1791.17 230.629 L1791.17 204.703 L1795.45 204.703 L1795.45 208.731 Q1796.98 206.393 1799.04 205.235 Q1801.12 204.078 1803.83 204.078 Q1808.3 204.078 1810.59 206.856 Q1812.88 209.61 1812.88 214.981 Z" fill="#000000" fill-rule="evenodd" fill-opacity="1" /><path clip-path="url(#clip220)" d="M1840.04 205.698 L1840.04 209.68 Q1838.23 208.684 1836.4 208.198 Q1834.6 207.689 1832.74 207.689 Q1828.6 207.689 1826.31 210.328 Q1824.02 212.944 1824.02 217.689 Q1824.02 222.434 1826.31 225.073 Q1828.6 227.689 1832.74 227.689 Q1834.6 227.689 1836.4 227.203 Q1838.23 226.693 1840.04 225.698 L1840.04 229.633 Q1838.25 230.467 1836.33 230.883 Q1834.43 231.3 1832.28 231.3 Q1826.42 231.3 1822.98 227.619 Q1819.53 223.939 1819.53 217.689 Q1819.53 211.346 1823 207.712 Q1826.49 204.078 1832.56 204.078 Q1834.53 204.078 1836.4 204.495 Q1838.28 204.888 1840.04 205.698 Z" fill="#000000" fill-rule="evenodd" fill-opacity="1" /><path clip-path="url(#clip220)" d="M1869.62 216.601 L1869.62 218.684 L1850.04 218.684 Q1850.31 223.082 1852.67 225.397 Q1855.06 227.689 1859.29 227.689 Q1861.75 227.689 1864.04 227.087 Q1866.35 226.485 1868.62 225.281 L1868.62 229.309 Q1866.33 230.281 1863.92 230.791 Q1861.52 231.3 1859.04 231.3 Q1852.84 231.3 1849.2 227.689 Q1845.59 224.078 1845.59 217.92 Q1845.59 211.555 1849.02 207.828 Q1852.47 204.078 1858.3 204.078 Q1863.53 204.078 1866.56 207.457 Q1869.62 210.814 1869.62 216.601 M1865.36 215.351 Q1865.31 211.856 1863.39 209.772 Q1861.49 207.689 1858.35 207.689 Q1854.78 207.689 1852.63 209.703 Q1850.5 211.717 1850.17 215.374 L1865.36 215.351 Z" fill="#000000" fill-rule="evenodd" fill-opacity="1" /><path clip-path="url(#clip220)" d="M1876.79 196.069 L1896.66 196.069 L1896.66 200.004 L1881.47 200.004 L1881.47 210.189 L1895.17 210.189 L1895.17 214.124 L1881.47 214.124 L1881.47 230.629 L1876.79 230.629 L1876.79 196.069 Z" fill="#000000" fill-rule="evenodd" fill-opacity="1" /><path clip-path="url(#clip220)" d="M1904.06 196.069 L1911.03 196.069 L1919.85 219.587 L1928.72 196.069 L1935.68 196.069 L1935.68 230.629 L1931.12 230.629 L1931.12 200.282 L1922.21 223.985 L1917.51 223.985 L1908.6 200.282 L1908.6 230.629 L1904.06 230.629 L1904.06 196.069 Z" fill="#000000" fill-rule="evenodd" fill-opacity="1" /><path clip-path="url(#clip220)" d="M1944.43 196.069 L1949.13 196.069 L1949.13 217.064 Q1949.13 222.619 1951.15 225.073 Q1953.16 227.504 1957.67 227.504 Q1962.16 227.504 1964.18 225.073 Q1966.19 222.619 1966.19 217.064 L1966.19 196.069 L1970.89 196.069 L1970.89 217.643 Q1970.89 224.402 1967.53 227.851 Q1964.2 231.3 1957.67 231.3 Q1951.12 231.3 1947.77 227.851 Q1944.43 224.402 1944.43 217.643 L1944.43 196.069 Z" fill="#000000" fill-rule="evenodd" fill-opacity="1" /><polyline clip-path="url(#clip220)" style="stroke:#3da44d; stroke-linecap:butt; stroke-linejoin:round; stroke-width:4; stroke-opacity:1; fill:none" points="
  1491.59,273.829 1627.44,273.829 
  "/>
<path clip-path="url(#clip220)" d="M1677.95 259.211 L1677.95 264.141 Q1675.59 261.942 1672.91 260.854 Q1670.24 259.766 1667.24 259.766 Q1661.31 259.766 1658.16 263.4 Q1655.01 267.012 1655.01 273.863 Q1655.01 280.692 1658.16 284.326 Q1661.31 287.937 1667.24 287.937 Q1670.24 287.937 1672.91 286.849 Q1675.59 285.761 1677.95 283.562 L1677.95 288.447 Q1675.5 290.113 1672.74 290.947 Q1670.01 291.78 1666.96 291.78 Q1659.11 291.78 1654.6 286.988 Q1650.08 282.173 1650.08 273.863 Q1650.08 265.53 1654.6 260.738 Q1659.11 255.924 1666.96 255.924 Q1670.06 255.924 1672.79 256.757 Q1675.55 257.567 1677.95 259.211 Z" fill="#000000" fill-rule="evenodd" fill-opacity="1" /><path clip-path="url(#clip220)" d="M1705.89 257.683 L1705.89 262.243 Q1703.23 260.97 1700.87 260.345 Q1698.51 259.72 1696.31 259.72 Q1692.49 259.72 1690.41 261.201 Q1688.35 262.683 1688.35 265.414 Q1688.35 267.706 1689.71 268.887 Q1691.1 270.044 1694.94 270.762 L1697.77 271.34 Q1703 272.336 1705.48 274.859 Q1707.98 277.359 1707.98 281.572 Q1707.98 286.595 1704.6 289.187 Q1701.24 291.78 1694.74 291.78 Q1692.28 291.78 1689.5 291.224 Q1686.75 290.669 1683.79 289.581 L1683.79 284.766 Q1686.63 286.363 1689.36 287.173 Q1692.1 287.984 1694.74 287.984 Q1698.74 287.984 1700.92 286.41 Q1703.09 284.836 1703.09 281.919 Q1703.09 279.373 1701.52 277.937 Q1699.97 276.502 1696.4 275.785 L1693.55 275.229 Q1688.32 274.187 1685.99 271.965 Q1683.65 269.743 1683.65 265.785 Q1683.65 261.201 1686.86 258.562 Q1690.11 255.924 1695.78 255.924 Q1698.21 255.924 1700.73 256.363 Q1703.25 256.803 1705.89 257.683 Z" fill="#000000" fill-rule="evenodd" fill-opacity="1" /><path clip-path="url(#clip220)" d="M1712.93 276.224 L1725.41 276.224 L1725.41 280.021 L1712.93 280.021 L1712.93 276.224 Z" fill="#000000" fill-rule="evenodd" fill-opacity="1" /><path clip-path="url(#clip220)" d="M1732.37 256.549 L1738.67 256.549 L1753.99 285.461 L1753.99 256.549 L1758.53 256.549 L1758.53 291.109 L1752.23 291.109 L1736.91 262.197 L1736.91 291.109 L1732.37 291.109 L1732.37 256.549 Z" fill="#000000" fill-rule="evenodd" fill-opacity="1" /><path clip-path="url(#clip220)" d="M1789.83 277.081 L1789.83 279.164 L1770.24 279.164 Q1770.52 283.562 1772.88 285.877 Q1775.27 288.169 1779.5 288.169 Q1781.96 288.169 1784.25 287.567 Q1786.56 286.965 1788.83 285.761 L1788.83 289.789 Q1786.54 290.761 1784.13 291.271 Q1781.73 291.78 1779.25 291.78 Q1773.04 291.78 1769.41 288.169 Q1765.8 284.558 1765.8 278.4 Q1765.8 272.035 1769.23 268.308 Q1772.67 264.558 1778.51 264.558 Q1783.74 264.558 1786.77 267.937 Q1789.83 271.294 1789.83 277.081 M1785.57 275.831 Q1785.52 272.336 1783.6 270.252 Q1781.7 268.169 1778.55 268.169 Q1774.99 268.169 1772.84 270.183 Q1770.71 272.197 1770.38 275.854 L1785.57 275.831 Z" fill="#000000" fill-rule="evenodd" fill-opacity="1" /><path clip-path="url(#clip220)" d="M1796.38 280.877 L1796.38 265.183 L1800.64 265.183 L1800.64 280.715 Q1800.64 284.396 1802.07 286.248 Q1803.51 288.076 1806.38 288.076 Q1809.83 288.076 1811.82 285.877 Q1813.83 283.678 1813.83 279.882 L1813.83 265.183 L1818.09 265.183 L1818.09 291.109 L1813.83 291.109 L1813.83 287.127 Q1812.28 289.488 1810.22 290.646 Q1808.18 291.78 1805.48 291.78 Q1801.01 291.78 1798.69 289.002 Q1796.38 286.224 1796.38 280.877 M1807.1 264.558 L1807.1 264.558 Z" fill="#000000" fill-rule="evenodd" fill-opacity="1" /><path clip-path="url(#clip220)" d="M1841.89 269.164 Q1841.17 268.748 1840.31 268.562 Q1839.48 268.354 1838.46 268.354 Q1834.85 268.354 1832.91 270.715 Q1830.98 273.053 1830.98 277.451 L1830.98 291.109 L1826.7 291.109 L1826.7 265.183 L1830.98 265.183 L1830.98 269.211 Q1832.33 266.849 1834.48 265.715 Q1836.63 264.558 1839.71 264.558 Q1840.15 264.558 1840.68 264.627 Q1841.22 264.674 1841.86 264.789 L1841.89 269.164 Z" fill="#000000" fill-rule="evenodd" fill-opacity="1" /><path clip-path="url(#clip220)" d="M1858.14 278.076 Q1852.98 278.076 1850.98 279.257 Q1848.99 280.437 1848.99 283.285 Q1848.99 285.553 1850.48 286.896 Q1851.98 288.215 1854.55 288.215 Q1858.09 288.215 1860.22 285.715 Q1862.37 283.192 1862.37 279.025 L1862.37 278.076 L1858.14 278.076 M1866.63 276.317 L1866.63 291.109 L1862.37 291.109 L1862.37 287.173 Q1860.91 289.535 1858.74 290.669 Q1856.56 291.78 1853.41 291.78 Q1849.43 291.78 1847.07 289.558 Q1844.73 287.312 1844.73 283.562 Q1844.73 279.187 1847.65 276.965 Q1850.59 274.743 1856.4 274.743 L1862.37 274.743 L1862.37 274.326 Q1862.37 271.387 1860.43 269.789 Q1858.51 268.169 1855.01 268.169 Q1852.79 268.169 1850.68 268.701 Q1848.58 269.234 1846.63 270.299 L1846.63 266.363 Q1848.97 265.461 1851.17 265.021 Q1853.37 264.558 1855.45 264.558 Q1861.08 264.558 1863.85 267.474 Q1866.63 270.391 1866.63 276.317 Z" fill="#000000" fill-rule="evenodd" fill-opacity="1" /><path clip-path="url(#clip220)" d="M1875.41 255.09 L1879.66 255.09 L1879.66 291.109 L1875.41 291.109 L1875.41 255.09 Z" fill="#000000" fill-rule="evenodd" fill-opacity="1" /><path clip-path="url(#clip220)" d="M1888.76 256.549 L1908.62 256.549 L1908.62 260.484 L1893.44 260.484 L1893.44 270.669 L1907.14 270.669 L1907.14 274.604 L1893.44 274.604 L1893.44 291.109 L1888.76 291.109 L1888.76 256.549 Z" fill="#000000" fill-rule="evenodd" fill-opacity="1" /><path clip-path="url(#clip220)" d="M1916.03 256.549 L1923 256.549 L1931.82 280.067 L1940.68 256.549 L1947.65 256.549 L1947.65 291.109 L1943.09 291.109 L1943.09 260.762 L1934.18 284.465 L1929.48 284.465 L1920.57 260.762 L1920.57 291.109 L1916.03 291.109 L1916.03 256.549 Z" fill="#000000" fill-rule="evenodd" fill-opacity="1" /><path clip-path="url(#clip220)" d="M1956.4 256.549 L1961.1 256.549 L1961.1 277.544 Q1961.1 283.099 1963.11 285.553 Q1965.13 287.984 1969.64 287.984 Q1974.13 287.984 1976.15 285.553 Q1978.16 283.099 1978.16 277.544 L1978.16 256.549 L1982.86 256.549 L1982.86 278.123 Q1982.86 284.882 1979.5 288.331 Q1976.17 291.78 1969.64 291.78 Q1963.09 291.78 1959.73 288.331 Q1956.4 284.882 1956.4 278.123 L1956.4 256.549 Z" fill="#000000" fill-rule="evenodd" fill-opacity="1" /><path clip-path="url(#clip220)" d="M2016.75 255.137 Q2013.65 260.461 2012.14 265.669 Q2010.64 270.877 2010.64 276.224 Q2010.64 281.572 2012.14 286.826 Q2013.67 292.058 2016.75 297.359 L2013.04 297.359 Q2009.57 291.919 2007.84 286.664 Q2006.12 281.41 2006.12 276.224 Q2006.12 271.062 2007.84 265.831 Q2009.55 260.6 2013.04 255.137 L2016.75 255.137 Z" fill="#000000" fill-rule="evenodd" fill-opacity="1" /><path clip-path="url(#clip220)" d="M2039.78 272.474 Q2043.14 273.192 2045.01 275.461 Q2046.91 277.729 2046.91 281.062 Q2046.91 286.178 2043.39 288.979 Q2039.87 291.78 2033.39 291.78 Q2031.21 291.78 2028.9 291.34 Q2026.61 290.923 2024.15 290.067 L2024.15 285.553 Q2026.1 286.687 2028.41 287.266 Q2030.73 287.845 2033.25 287.845 Q2037.65 287.845 2039.94 286.109 Q2042.26 284.373 2042.26 281.062 Q2042.26 278.007 2040.1 276.294 Q2037.97 274.558 2034.15 274.558 L2030.13 274.558 L2030.13 270.715 L2034.34 270.715 Q2037.79 270.715 2039.62 269.349 Q2041.45 267.961 2041.45 265.368 Q2041.45 262.706 2039.55 261.294 Q2037.67 259.859 2034.15 259.859 Q2032.23 259.859 2030.03 260.275 Q2027.84 260.692 2025.2 261.572 L2025.2 257.405 Q2027.86 256.664 2030.17 256.294 Q2032.51 255.924 2034.57 255.924 Q2039.9 255.924 2043 258.354 Q2046.1 260.762 2046.1 264.882 Q2046.1 267.752 2044.46 269.743 Q2042.81 271.711 2039.78 272.474 Z" fill="#000000" fill-rule="evenodd" fill-opacity="1" /><path clip-path="url(#clip220)" d="M2065.77 259.627 Q2062.16 259.627 2060.34 263.192 Q2058.53 266.734 2058.53 273.863 Q2058.53 280.97 2060.34 284.535 Q2062.16 288.076 2065.77 288.076 Q2069.41 288.076 2071.21 284.535 Q2073.04 280.97 2073.04 273.863 Q2073.04 266.734 2071.21 263.192 Q2069.41 259.627 2065.77 259.627 M2065.77 255.924 Q2071.58 255.924 2074.64 260.53 Q2077.72 265.113 2077.72 273.863 Q2077.72 282.59 2074.64 287.197 Q2071.58 291.78 2065.77 291.78 Q2059.96 291.78 2056.89 287.197 Q2053.83 282.59 2053.83 273.863 Q2053.83 265.113 2056.89 260.53 Q2059.96 255.924 2065.77 255.924 Z" fill="#000000" fill-rule="evenodd" fill-opacity="1" /><path clip-path="url(#clip220)" d="M2095.94 259.627 Q2092.33 259.627 2090.5 263.192 Q2088.69 266.734 2088.69 273.863 Q2088.69 280.97 2090.5 284.535 Q2092.33 288.076 2095.94 288.076 Q2099.57 288.076 2101.38 284.535 Q2103.21 280.97 2103.21 273.863 Q2103.21 266.734 2101.38 263.192 Q2099.57 259.627 2095.94 259.627 M2095.94 255.924 Q2101.75 255.924 2104.8 260.53 Q2107.88 265.113 2107.88 273.863 Q2107.88 282.59 2104.8 287.197 Q2101.75 291.78 2095.94 291.78 Q2090.13 291.78 2087.05 287.197 Q2083.99 282.59 2083.99 273.863 Q2083.99 265.113 2087.05 260.53 Q2090.13 255.924 2095.94 255.924 Z" fill="#000000" fill-rule="evenodd" fill-opacity="1" /><path clip-path="url(#clip220)" d="M2152.74 277.081 L2152.74 279.164 L2133.16 279.164 Q2133.44 283.562 2135.8 285.877 Q2138.18 288.169 2142.42 288.169 Q2144.87 288.169 2147.16 287.567 Q2149.48 286.965 2151.75 285.761 L2151.75 289.789 Q2149.45 290.761 2147.05 291.271 Q2144.64 291.78 2142.16 291.78 Q2135.96 291.78 2132.33 288.169 Q2128.71 284.558 2128.71 278.4 Q2128.71 272.035 2132.14 268.308 Q2135.59 264.558 2141.42 264.558 Q2146.65 264.558 2149.69 267.937 Q2152.74 271.294 2152.74 277.081 M2148.48 275.831 Q2148.44 272.336 2146.52 270.252 Q2144.62 268.169 2141.47 268.169 Q2137.9 268.169 2135.75 270.183 Q2133.62 272.197 2133.3 275.854 L2148.48 275.831 Z" fill="#000000" fill-rule="evenodd" fill-opacity="1" /><path clip-path="url(#clip220)" d="M2163.85 287.22 L2163.85 300.97 L2159.57 300.97 L2159.57 265.183 L2163.85 265.183 L2163.85 269.118 Q2165.2 266.803 2167.23 265.692 Q2169.29 264.558 2172.14 264.558 Q2176.86 264.558 2179.8 268.308 Q2182.76 272.058 2182.76 278.169 Q2182.76 284.28 2179.8 288.03 Q2176.86 291.78 2172.14 291.78 Q2169.29 291.78 2167.23 290.669 Q2165.2 289.535 2163.85 287.22 M2178.34 278.169 Q2178.34 273.47 2176.4 270.808 Q2174.48 268.123 2171.1 268.123 Q2167.72 268.123 2165.77 270.808 Q2163.85 273.47 2163.85 278.169 Q2163.85 282.868 2165.77 285.553 Q2167.72 288.215 2171.1 288.215 Q2174.48 288.215 2176.4 285.553 Q2178.34 282.868 2178.34 278.169 Z" fill="#000000" fill-rule="evenodd" fill-opacity="1" /><path clip-path="url(#clip220)" d="M2206.35 265.947 L2206.35 269.974 Q2204.55 269.049 2202.6 268.586 Q2200.66 268.123 2198.58 268.123 Q2195.4 268.123 2193.81 269.095 Q2192.23 270.067 2192.23 272.011 Q2192.23 273.493 2193.37 274.349 Q2194.5 275.183 2197.93 275.947 L2199.39 276.271 Q2203.92 277.243 2205.82 279.025 Q2207.74 280.785 2207.74 283.956 Q2207.74 287.567 2204.87 289.673 Q2202.02 291.78 2197.02 291.78 Q2194.94 291.78 2192.67 291.363 Q2190.43 290.97 2187.93 290.16 L2187.93 285.761 Q2190.29 286.988 2192.58 287.613 Q2194.87 288.215 2197.12 288.215 Q2200.13 288.215 2201.75 287.197 Q2203.37 286.155 2203.37 284.28 Q2203.37 282.544 2202.19 281.618 Q2201.03 280.692 2197.07 279.836 L2195.59 279.488 Q2191.63 278.655 2189.87 276.942 Q2188.11 275.206 2188.11 272.197 Q2188.11 268.539 2190.7 266.549 Q2193.3 264.558 2198.07 264.558 Q2200.43 264.558 2202.51 264.905 Q2204.59 265.252 2206.35 265.947 Z" fill="#000000" fill-rule="evenodd" fill-opacity="1" /><path clip-path="url(#clip220)" d="M2215.13 285.229 L2220.01 285.229 L2220.01 291.109 L2215.13 291.109 L2215.13 285.229 Z" fill="#000000" fill-rule="evenodd" fill-opacity="1" /><path clip-path="url(#clip220)" d="M2228.92 255.137 L2232.63 255.137 Q2236.1 260.6 2237.81 265.831 Q2239.55 271.062 2239.55 276.224 Q2239.55 281.41 2237.81 286.664 Q2236.1 291.919 2232.63 297.359 L2228.92 297.359 Q2232 292.058 2233.51 286.826 Q2235.03 281.572 2235.03 276.224 Q2235.03 270.877 2233.51 265.669 Q2232 260.461 2228.92 255.137 Z" fill="#000000" fill-rule="evenodd" fill-opacity="1" /></svg>
