<?xml version="1.0" encoding="utf-8"?>
<svg xmlns="http://www.w3.org/2000/svg" xmlns:xlink="http://www.w3.org/1999/xlink" width="600" height="400" viewBox="0 0 2400 1600">
<defs>
  <clipPath id="clip500">
    <rect x="0" y="0" width="2400" height="1600"/>
  </clipPath>
</defs>
<path clip-path="url(#clip500)" d="
M0 1600 L2400 1600 L2400 0 L0 0  Z
  " fill="#ffffff" fill-rule="evenodd" fill-opacity="1"/>
<defs>
  <clipPath id="clip501">
    <rect x="480" y="0" width="1681" height="1600"/>
  </clipPath>
</defs>
<path clip-path="url(#clip500)" d="
M194.422 1486.45 L2352.76 1486.45 L2352.76 47.2441 L194.422 47.2441  Z
  " fill="#ffffff" fill-rule="evenodd" fill-opacity="1"/>
<defs>
  <clipPath id="clip502">
    <rect x="194" y="47" width="2159" height="1440"/>
  </clipPath>
</defs>
<polyline clip-path="url(#clip502)" style="stroke:#000000; stroke-linecap:round; stroke-linejoin:round; stroke-width:2; stroke-opacity:0.1; fill:none" points="
  255.507,1486.45 255.507,47.2441 
  "/>
<polyline clip-path="url(#clip502)" style="stroke:#000000; stroke-linecap:round; stroke-linejoin:round; stroke-width:2; stroke-opacity:0.1; fill:none" points="
  662.74,1486.45 662.74,47.2441 
  "/>
<polyline clip-path="url(#clip502)" style="stroke:#000000; stroke-linecap:round; stroke-linejoin:round; stroke-width:2; stroke-opacity:0.1; fill:none" points="
  1069.97,1486.45 1069.97,47.2441 
  "/>
<polyline clip-path="url(#clip502)" style="stroke:#000000; stroke-linecap:round; stroke-linejoin:round; stroke-width:2; stroke-opacity:0.1; fill:none" points="
  1477.21,1486.45 1477.21,47.2441 
  "/>
<polyline clip-path="url(#clip502)" style="stroke:#000000; stroke-linecap:round; stroke-linejoin:round; stroke-width:2; stroke-opacity:0.1; fill:none" points="
  1884.44,1486.45 1884.44,47.2441 
  "/>
<polyline clip-path="url(#clip502)" style="stroke:#000000; stroke-linecap:round; stroke-linejoin:round; stroke-width:2; stroke-opacity:0.1; fill:none" points="
  2291.67,1486.45 2291.67,47.2441 
  "/>
<polyline clip-path="url(#clip500)" style="stroke:#000000; stroke-linecap:round; stroke-linejoin:round; stroke-width:4; stroke-opacity:1; fill:none" points="
  194.422,1486.45 2352.76,1486.45 
  "/>
<polyline clip-path="url(#clip500)" style="stroke:#000000; stroke-linecap:round; stroke-linejoin:round; stroke-width:4; stroke-opacity:1; fill:none" points="
  255.507,1486.45 255.507,1467.55 
  "/>
<polyline clip-path="url(#clip500)" style="stroke:#000000; stroke-linecap:round; stroke-linejoin:round; stroke-width:4; stroke-opacity:1; fill:none" points="
  662.74,1486.45 662.74,1467.55 
  "/>
<polyline clip-path="url(#clip500)" style="stroke:#000000; stroke-linecap:round; stroke-linejoin:round; stroke-width:4; stroke-opacity:1; fill:none" points="
  1069.97,1486.45 1069.97,1467.55 
  "/>
<polyline clip-path="url(#clip500)" style="stroke:#000000; stroke-linecap:round; stroke-linejoin:round; stroke-width:4; stroke-opacity:1; fill:none" points="
  1477.21,1486.45 1477.21,1467.55 
  "/>
<polyline clip-path="url(#clip500)" style="stroke:#000000; stroke-linecap:round; stroke-linejoin:round; stroke-width:4; stroke-opacity:1; fill:none" points="
  1884.44,1486.45 1884.44,1467.55 
  "/>
<polyline clip-path="url(#clip500)" style="stroke:#000000; stroke-linecap:round; stroke-linejoin:round; stroke-width:4; stroke-opacity:1; fill:none" points="
  2291.67,1486.45 2291.67,1467.55 
  "/>
<path clip-path="url(#clip500)" d="M255.507 1517.37 Q251.896 1517.37 250.067 1520.93 Q248.262 1524.47 248.262 1531.6 Q248.262 1538.71 250.067 1542.27 Q251.896 1545.82 255.507 1545.82 Q259.141 1545.82 260.947 1542.27 Q262.776 1538.71 262.776 1531.6 Q262.776 1524.47 260.947 1520.93 Q259.141 1517.37 255.507 1517.37 M255.507 1513.66 Q261.317 1513.66 264.373 1518.27 Q267.451 1522.85 267.451 1531.6 Q267.451 1540.33 264.373 1544.94 Q261.317 1549.52 255.507 1549.52 Q249.697 1549.52 246.618 1544.94 Q243.563 1540.33 243.563 1531.6 Q243.563 1522.85 246.618 1518.27 Q249.697 1513.66 255.507 1513.66 Z" fill="#000000" fill-rule="evenodd" fill-opacity="1" /><path clip-path="url(#clip500)" d="M653.122 1544.91 L660.761 1544.91 L660.761 1518.55 L652.451 1520.21 L652.451 1515.95 L660.714 1514.29 L665.39 1514.29 L665.39 1544.91 L673.029 1544.91 L673.029 1548.85 L653.122 1548.85 L653.122 1544.91 Z" fill="#000000" fill-rule="evenodd" fill-opacity="1" /><path clip-path="url(#clip500)" d="M1064.63 1544.91 L1080.94 1544.91 L1080.94 1548.85 L1059 1548.85 L1059 1544.91 Q1061.66 1542.16 1066.25 1537.53 Q1070.85 1532.88 1072.03 1531.53 Q1074.28 1529.01 1075.16 1527.27 Q1076.06 1525.51 1076.06 1523.82 Q1076.06 1521.07 1074.12 1519.33 Q1072.19 1517.6 1069.09 1517.6 Q1066.89 1517.6 1064.44 1518.36 Q1062.01 1519.13 1059.23 1520.68 L1059.23 1515.95 Q1062.06 1514.82 1064.51 1514.24 Q1066.96 1513.66 1069 1513.66 Q1074.37 1513.66 1077.57 1516.35 Q1080.76 1519.03 1080.76 1523.52 Q1080.76 1525.65 1079.95 1527.57 Q1079.16 1529.47 1077.06 1532.07 Q1076.48 1532.74 1073.38 1535.95 Q1070.27 1539.15 1064.63 1544.91 Z" fill="#000000" fill-rule="evenodd" fill-opacity="1" /><path clip-path="url(#clip500)" d="M1481.45 1530.21 Q1484.81 1530.93 1486.68 1533.2 Q1488.58 1535.47 1488.58 1538.8 Q1488.58 1543.92 1485.06 1546.72 Q1481.55 1549.52 1475.06 1549.52 Q1472.89 1549.52 1470.57 1549.08 Q1468.28 1548.66 1465.83 1547.81 L1465.83 1543.29 Q1467.77 1544.43 1470.09 1545.01 Q1472.4 1545.58 1474.93 1545.58 Q1479.32 1545.58 1481.62 1543.85 Q1483.93 1542.11 1483.93 1538.8 Q1483.93 1535.75 1481.78 1534.03 Q1479.65 1532.3 1475.83 1532.3 L1471.8 1532.3 L1471.8 1528.45 L1476.01 1528.45 Q1479.46 1528.45 1481.29 1527.09 Q1483.12 1525.7 1483.12 1523.11 Q1483.12 1520.45 1481.22 1519.03 Q1479.35 1517.6 1475.83 1517.6 Q1473.91 1517.6 1471.71 1518.01 Q1469.51 1518.43 1466.87 1519.31 L1466.87 1515.14 Q1469.53 1514.4 1471.85 1514.03 Q1474.18 1513.66 1476.24 1513.66 Q1481.57 1513.66 1484.67 1516.09 Q1487.77 1518.5 1487.77 1522.62 Q1487.77 1525.49 1486.13 1527.48 Q1484.49 1529.45 1481.45 1530.21 Z" fill="#000000" fill-rule="evenodd" fill-opacity="1" /><path clip-path="url(#clip500)" d="M1887.45 1518.36 L1875.64 1536.81 L1887.45 1536.81 L1887.45 1518.36 M1886.22 1514.29 L1892.1 1514.29 L1892.1 1536.81 L1897.03 1536.81 L1897.03 1540.7 L1892.1 1540.7 L1892.1 1548.85 L1887.45 1548.85 L1887.45 1540.7 L1871.85 1540.7 L1871.85 1536.19 L1886.22 1514.29 Z" fill="#000000" fill-rule="evenodd" fill-opacity="1" /><path clip-path="url(#clip500)" d="M2281.95 1514.29 L2300.31 1514.29 L2300.31 1518.22 L2286.23 1518.22 L2286.23 1526.7 Q2287.25 1526.35 2288.27 1526.19 Q2289.29 1526 2290.31 1526 Q2296.09 1526 2299.47 1529.17 Q2302.85 1532.34 2302.85 1537.76 Q2302.85 1543.34 2299.38 1546.44 Q2295.91 1549.52 2289.59 1549.52 Q2287.41 1549.52 2285.14 1549.15 Q2282.9 1548.78 2280.49 1548.04 L2280.49 1543.34 Q2282.57 1544.47 2284.8 1545.03 Q2287.02 1545.58 2289.5 1545.58 Q2293.5 1545.58 2295.84 1543.48 Q2298.18 1541.37 2298.18 1537.76 Q2298.18 1534.15 2295.84 1532.04 Q2293.5 1529.94 2289.5 1529.94 Q2287.62 1529.94 2285.75 1530.35 Q2283.89 1530.77 2281.95 1531.65 L2281.95 1514.29 Z" fill="#000000" fill-rule="evenodd" fill-opacity="1" /><polyline clip-path="url(#clip502)" style="stroke:#000000; stroke-linecap:round; stroke-linejoin:round; stroke-width:2; stroke-opacity:0.1; fill:none" points="
  194.422,1415.3 2352.76,1415.3 
  "/>
<polyline clip-path="url(#clip502)" style="stroke:#000000; stroke-linecap:round; stroke-linejoin:round; stroke-width:2; stroke-opacity:0.1; fill:none" points="
  194.422,1091.03 2352.76,1091.03 
  "/>
<polyline clip-path="url(#clip502)" style="stroke:#000000; stroke-linecap:round; stroke-linejoin:round; stroke-width:2; stroke-opacity:0.1; fill:none" points="
  194.422,766.755 2352.76,766.755 
  "/>
<polyline clip-path="url(#clip502)" style="stroke:#000000; stroke-linecap:round; stroke-linejoin:round; stroke-width:2; stroke-opacity:0.1; fill:none" points="
  194.422,442.485 2352.76,442.485 
  "/>
<polyline clip-path="url(#clip502)" style="stroke:#000000; stroke-linecap:round; stroke-linejoin:round; stroke-width:2; stroke-opacity:0.1; fill:none" points="
  194.422,118.215 2352.76,118.215 
  "/>
<polyline clip-path="url(#clip500)" style="stroke:#000000; stroke-linecap:round; stroke-linejoin:round; stroke-width:4; stroke-opacity:1; fill:none" points="
  194.422,1486.45 194.422,47.2441 
  "/>
<polyline clip-path="url(#clip500)" style="stroke:#000000; stroke-linecap:round; stroke-linejoin:round; stroke-width:4; stroke-opacity:1; fill:none" points="
  194.422,1415.3 213.32,1415.3 
  "/>
<polyline clip-path="url(#clip500)" style="stroke:#000000; stroke-linecap:round; stroke-linejoin:round; stroke-width:4; stroke-opacity:1; fill:none" points="
  194.422,1091.03 213.32,1091.03 
  "/>
<polyline clip-path="url(#clip500)" style="stroke:#000000; stroke-linecap:round; stroke-linejoin:round; stroke-width:4; stroke-opacity:1; fill:none" points="
  194.422,766.755 213.32,766.755 
  "/>
<polyline clip-path="url(#clip500)" style="stroke:#000000; stroke-linecap:round; stroke-linejoin:round; stroke-width:4; stroke-opacity:1; fill:none" points="
  194.422,442.485 213.32,442.485 
  "/>
<polyline clip-path="url(#clip500)" style="stroke:#000000; stroke-linecap:round; stroke-linejoin:round; stroke-width:4; stroke-opacity:1; fill:none" points="
  194.422,118.215 213.32,118.215 
  "/>
<path clip-path="url(#clip500)" d="M50.9921 1415.75 L80.6679 1415.75 L80.6679 1419.68 L50.9921 1419.68 L50.9921 1415.75 Z" fill="#000000" fill-rule="evenodd" fill-opacity="1" /><path clip-path="url(#clip500)" d="M100.76 1401.09 Q97.1493 1401.09 95.3206 1404.66 Q93.515 1408.2 93.515 1415.33 Q93.515 1422.44 95.3206 1426 Q97.1493 1429.54 100.76 1429.54 Q104.395 1429.54 106.2 1426 Q108.029 1422.44 108.029 1415.33 Q108.029 1408.2 106.2 1404.66 Q104.395 1401.09 100.76 1401.09 M100.76 1397.39 Q106.571 1397.39 109.626 1402 Q112.705 1406.58 112.705 1415.33 Q112.705 1424.06 109.626 1428.66 Q106.571 1433.25 100.76 1433.25 Q94.9502 1433.25 91.8715 1428.66 Q88.816 1424.06 88.816 1415.33 Q88.816 1406.58 91.8715 1402 Q94.9502 1397.39 100.76 1397.39 Z" fill="#000000" fill-rule="evenodd" fill-opacity="1" /><path clip-path="url(#clip500)" d="M120.922 1426.7 L125.807 1426.7 L125.807 1432.58 L120.922 1432.58 L120.922 1426.7 Z" fill="#000000" fill-rule="evenodd" fill-opacity="1" /><path clip-path="url(#clip500)" d="M148.839 1402.09 L137.033 1420.54 L148.839 1420.54 L148.839 1402.09 M147.612 1398.02 L153.492 1398.02 L153.492 1420.54 L158.422 1420.54 L158.422 1424.43 L153.492 1424.43 L153.492 1432.58 L148.839 1432.58 L148.839 1424.43 L133.237 1424.43 L133.237 1419.91 L147.612 1398.02 Z" fill="#000000" fill-rule="evenodd" fill-opacity="1" /><path clip-path="url(#clip500)" d="M53.0754 1091.48 L82.7512 1091.48 L82.7512 1095.41 L53.0754 1095.41 L53.0754 1091.48 Z" fill="#000000" fill-rule="evenodd" fill-opacity="1" /><path clip-path="url(#clip500)" d="M102.844 1076.82 Q99.2326 1076.82 97.4039 1080.39 Q95.5984 1083.93 95.5984 1091.06 Q95.5984 1098.17 97.4039 1101.73 Q99.2326 1105.27 102.844 1105.27 Q106.478 1105.27 108.283 1101.73 Q110.112 1098.17 110.112 1091.06 Q110.112 1083.93 108.283 1080.39 Q106.478 1076.82 102.844 1076.82 M102.844 1073.12 Q108.654 1073.12 111.709 1077.73 Q114.788 1082.31 114.788 1091.06 Q114.788 1099.79 111.709 1104.39 Q108.654 1108.98 102.844 1108.98 Q97.0335 1108.98 93.9549 1104.39 Q90.8993 1099.79 90.8993 1091.06 Q90.8993 1082.31 93.9549 1077.73 Q97.0335 1073.12 102.844 1073.12 Z" fill="#000000" fill-rule="evenodd" fill-opacity="1" /><path clip-path="url(#clip500)" d="M123.006 1102.43 L127.89 1102.43 L127.89 1108.31 L123.006 1108.31 L123.006 1102.43 Z" fill="#000000" fill-rule="evenodd" fill-opacity="1" /><path clip-path="url(#clip500)" d="M142.103 1104.37 L158.422 1104.37 L158.422 1108.31 L136.478 1108.31 L136.478 1104.37 Q139.14 1101.62 143.723 1096.99 Q148.33 1092.33 149.51 1090.99 Q151.755 1088.47 152.635 1086.73 Q153.538 1084.97 153.538 1083.28 Q153.538 1080.53 151.593 1078.79 Q149.672 1077.06 146.57 1077.06 Q144.371 1077.06 141.918 1077.82 Q139.487 1078.58 136.709 1080.13 L136.709 1075.41 Q139.533 1074.28 141.987 1073.7 Q144.441 1073.12 146.478 1073.12 Q151.848 1073.12 155.042 1075.81 Q158.237 1078.49 158.237 1082.98 Q158.237 1085.11 157.427 1087.03 Q156.64 1088.93 154.533 1091.52 Q153.955 1092.19 150.853 1095.41 Q147.751 1098.61 142.103 1104.37 Z" fill="#000000" fill-rule="evenodd" fill-opacity="1" /><path clip-path="url(#clip500)" d="M101.246 752.554 Q97.6354 752.554 95.8067 756.119 Q94.0012 759.66 94.0012 766.79 Q94.0012 773.896 95.8067 777.461 Q97.6354 781.003 101.246 781.003 Q104.881 781.003 106.686 777.461 Q108.515 773.896 108.515 766.79 Q108.515 759.66 106.686 756.119 Q104.881 752.554 101.246 752.554 M101.246 748.85 Q107.057 748.85 110.112 753.457 Q113.191 758.04 113.191 766.79 Q113.191 775.517 110.112 780.123 Q107.057 784.706 101.246 784.706 Q95.4363 784.706 92.3576 780.123 Q89.3021 775.517 89.3021 766.79 Q89.3021 758.04 92.3576 753.457 Q95.4363 748.85 101.246 748.85 Z" fill="#000000" fill-rule="evenodd" fill-opacity="1" /><path clip-path="url(#clip500)" d="M121.408 778.156 L126.293 778.156 L126.293 784.035 L121.408 784.035 L121.408 778.156 Z" fill="#000000" fill-rule="evenodd" fill-opacity="1" /><path clip-path="url(#clip500)" d="M146.478 752.554 Q142.867 752.554 141.038 756.119 Q139.232 759.66 139.232 766.79 Q139.232 773.896 141.038 777.461 Q142.867 781.003 146.478 781.003 Q150.112 781.003 151.918 777.461 Q153.746 773.896 153.746 766.79 Q153.746 759.66 151.918 756.119 Q150.112 752.554 146.478 752.554 M146.478 748.85 Q152.288 748.85 155.343 753.457 Q158.422 758.04 158.422 766.79 Q158.422 775.517 155.343 780.123 Q152.288 784.706 146.478 784.706 Q140.668 784.706 137.589 780.123 Q134.533 775.517 134.533 766.79 Q134.533 758.04 137.589 753.457 Q140.668 748.85 146.478 748.85 Z" fill="#000000" fill-rule="evenodd" fill-opacity="1" /><path clip-path="url(#clip500)" d="M102.844 428.284 Q99.2326 428.284 97.4039 431.849 Q95.5984 435.39 95.5984 442.52 Q95.5984 449.626 97.4039 453.191 Q99.2326 456.733 102.844 456.733 Q106.478 456.733 108.283 453.191 Q110.112 449.626 110.112 442.52 Q110.112 435.39 108.283 431.849 Q106.478 428.284 102.844 428.284 M102.844 424.58 Q108.654 424.58 111.709 429.187 Q114.788 433.77 114.788 442.52 Q114.788 451.247 111.709 455.853 Q108.654 460.436 102.844 460.436 Q97.0335 460.436 93.9549 455.853 Q90.8993 451.247 90.8993 442.52 Q90.8993 433.77 93.9549 429.187 Q97.0335 424.58 102.844 424.58 Z" fill="#000000" fill-rule="evenodd" fill-opacity="1" /><path clip-path="url(#clip500)" d="M123.006 453.886 L127.89 453.886 L127.89 459.765 L123.006 459.765 L123.006 453.886 Z" fill="#000000" fill-rule="evenodd" fill-opacity="1" /><path clip-path="url(#clip500)" d="M142.103 455.83 L158.422 455.83 L158.422 459.765 L136.478 459.765 L136.478 455.83 Q139.14 453.075 143.723 448.446 Q148.33 443.793 149.51 442.45 Q151.755 439.927 152.635 438.191 Q153.538 436.432 153.538 434.742 Q153.538 431.988 151.593 430.251 Q149.672 428.515 146.57 428.515 Q144.371 428.515 141.918 429.279 Q139.487 430.043 136.709 431.594 L136.709 426.872 Q139.533 425.738 141.987 425.159 Q144.441 424.58 146.478 424.58 Q151.848 424.58 155.042 427.265 Q158.237 429.951 158.237 434.441 Q158.237 436.571 157.427 438.492 Q156.64 440.39 154.533 442.983 Q153.955 443.654 150.853 446.872 Q147.751 450.066 142.103 455.83 Z" fill="#000000" fill-rule="evenodd" fill-opacity="1" /><path clip-path="url(#clip500)" d="M100.76 104.014 Q97.1493 104.014 95.3206 107.579 Q93.515 111.12 93.515 118.25 Q93.515 125.356 95.3206 128.921 Q97.1493 132.463 100.76 132.463 Q104.395 132.463 106.2 128.921 Q108.029 125.356 108.029 118.25 Q108.029 111.12 106.2 107.579 Q104.395 104.014 100.76 104.014 M100.76 100.31 Q106.571 100.31 109.626 104.917 Q112.705 109.5 112.705 118.25 Q112.705 126.977 109.626 131.583 Q106.571 136.166 100.76 136.166 Q94.9502 136.166 91.8715 131.583 Q88.816 126.977 88.816 118.25 Q88.816 109.5 91.8715 104.917 Q94.9502 100.31 100.76 100.31 Z" fill="#000000" fill-rule="evenodd" fill-opacity="1" /><path clip-path="url(#clip500)" d="M120.922 129.616 L125.807 129.616 L125.807 135.495 L120.922 135.495 L120.922 129.616 Z" fill="#000000" fill-rule="evenodd" fill-opacity="1" /><path clip-path="url(#clip500)" d="M148.839 105.009 L137.033 123.458 L148.839 123.458 L148.839 105.009 M147.612 100.935 L153.492 100.935 L153.492 123.458 L158.422 123.458 L158.422 127.347 L153.492 127.347 L153.492 135.495 L148.839 135.495 L148.839 127.347 L133.237 127.347 L133.237 122.833 L147.612 100.935 Z" fill="#000000" fill-rule="evenodd" fill-opacity="1" /><polyline clip-path="url(#clip502)" style="stroke:#009af9; stroke-linecap:round; stroke-linejoin:round; stroke-width:8; stroke-opacity:1; fill:none" points="
  255.507,1249.52 259.579,1246.18 263.652,1242.71 267.724,1239.06 271.796,1235.23 275.869,1231.19 279.941,1226.9 284.013,1222.33 288.086,1217.45 292.158,1212.22 
  296.23,1206.57 300.303,1200.48 304.375,1193.88 308.447,1186.73 312.52,1178.98 316.592,1170.57 320.664,1161.45 324.737,1151.61 328.809,1141.01 332.881,1129.63 
  336.954,1117.5 341.026,1104.64 345.098,1091.12 349.171,1077.04 353.243,1062.54 357.315,1047.82 361.388,1033.1 365.46,1018.71 369.532,1004.99 373.605,992.381 
  377.677,981.373 381.749,972.527 385.822,966.467 389.894,963.861 393.966,965.408 398.039,971.777 402.111,983.538 406.183,1001.03 410.255,1024.19 414.328,1052.39 
  418.4,1084.2 422.472,1117.35 426.545,1148.78 430.617,1174.81 434.689,1191.55 438.762,1195.36 442.834,1183.28 446.906,1153.39 450.979,1105.07 455.051,1039.06 
  459.123,957.447 463.196,863.509 467.268,761.423 471.34,655.875 475.413,551.623 479.485,453.047 483.557,363.766 487.63,286.382 491.702,222.378 495.774,172.145 
  499.847,135.128 503.919,110.049 507.991,95.1709 512.064,88.5603 516.136,88.3019 520.208,92.6571 524.281,100.152 528.353,109.609 532.425,120.13 536.498,131.067 
  540.57,141.969 544.642,152.543 548.715,162.606 552.787,172.059 556.859,180.858 560.932,188.996 565.004,196.489 569.076,203.369 573.149,209.676 577.221,215.455 
  581.293,220.751 585.366,225.611 589.438,230.082 593.51,234.208 597.583,238.034 601.655,241.6 605.727,244.948 609.8,248.116 613.872,251.14 617.944,254.053 
  622.017,256.889 626.089,259.675 630.161,262.438 634.234,265.203 638.306,267.99 642.378,270.821 646.451,273.711 650.523,276.677 654.595,279.735 658.667,282.899 
  662.74,286.185 666.812,289.611 670.884,293.194 674.957,296.957 679.029,300.924 683.101,305.125 687.174,309.59 691.246,314.357 695.318,319.467 699.391,324.965 
  703.463,330.897 707.535,337.315 711.608,344.269 715.68,351.814 719.752,359.997 723.825,368.865 727.897,378.457 731.969,388.802 736.042,399.915 740.114,411.793 
  744.186,424.413 748.259,437.718 752.331,451.623 756.403,465.998 760.476,480.672 764.548,495.42 768.62,509.961 772.693,523.954 776.765,536.993 780.837,548.606 
  784.91,558.255 788.982,565.338 793.054,569.199 797.127,569.146 801.199,564.494 805.271,554.625 809.344,539.107 813.416,517.84 817.488,491.246 821.561,460.46 
  825.633,427.453 829.705,395.044 833.778,366.736 837.85,346.39 841.922,337.787 845.995,344.168 850.067,367.837 854.139,409.881 858.212,470.024 862.284,546.622 
  866.356,636.782 870.429,736.603 874.501,841.519 878.573,946.739 882.646,1047.71 886.718,1140.51 890.79,1222.18 894.863,1290.85 898.935,1345.76 903.007,1387.17 
  907.079,1416.15 911.152,1434.29 915.224,1443.5 919.296,1445.72 923.369,1442.75 927.441,1436.18 931.513,1427.28 935.586,1417.04 939.658,1406.18 943.73,1395.23 
  947.803,1384.52 951.875,1374.27 955.947,1364.6 960.02,1355.58 964.092,1347.22 968.164,1339.51 972.237,1332.43 976.309,1325.93 980.381,1319.98 984.454,1314.53 
  988.526,1309.52 992.598,1304.93 996.671,1300.69 1000.74,1296.77 1004.82,1293.12 1008.89,1289.7 1012.96,1286.48 1017.03,1283.41 1021.1,1280.46 1025.18,1277.6 
  1029.25,1274.8 1033.32,1272.04 1037.39,1269.27 1041.47,1266.5 1045.54,1263.68 1049.61,1260.81 1053.68,1257.87 1057.76,1254.85 1061.83,1251.72 1065.9,1248.48 
  1069.97,1245.1 1074.04,1241.57 1078.12,1237.87 1082.19,1233.98 1086.26,1229.86 1090.33,1225.49 1094.41,1220.82 1098.48,1215.83 1102.55,1210.47 1106.62,1204.69 
  1110.7,1198.44 1114.77,1191.67 1118.84,1184.33 1122.91,1176.37 1126.99,1167.74 1131.06,1158.4 1135.13,1148.31 1139.2,1137.46 1143.27,1125.84 1147.35,1113.47 
  1151.42,1100.39 1155.49,1086.68 1159.56,1072.45 1163.64,1057.86 1167.71,1043.11 1171.78,1028.47 1175.85,1014.26 1179.93,1000.85 1184,988.706 1188.07,978.333 
  1192.14,970.317 1196.21,965.294 1200.29,963.948 1204.36,966.971 1208.43,975.013 1212.5,988.584 1216.58,1007.92 1220.65,1032.78 1224.72,1062.31 1228.79,1094.82 
  1232.87,1127.77 1236.94,1157.86 1241.01,1181.31 1245.08,1194.27 1249.16,1193.25 1253.23,1175.62 1257.3,1139.83 1261.37,1085.72 1265.44,1014.45 1269.52,928.524 
  1273.59,831.535 1277.66,727.859 1281.73,622.257 1285.81,519.411 1289.88,423.488 1293.95,337.802 1298.02,264.602 1302.1,205.011 1306.17,159.099 1310.24,126.052 
  1314.31,104.419 1318.38,92.3767 1322.46,87.9763 1326.53,89.3473 1330.6,94.8303 1334.67,103.046 1338.75,112.909 1342.82,123.608 1346.89,134.56 1350.96,145.372 
  1355.04,155.787 1359.11,165.655 1363.18,174.894 1367.25,183.475 1371.32,191.398 1375.4,198.687 1379.47,205.375 1383.54,211.504 1387.61,217.12 1391.69,222.27 
  1395.76,226.999 1399.83,231.353 1403.9,235.377 1407.98,239.114 1412.05,242.606 1416.12,245.891 1420.19,249.009 1424.27,251.994 1428.34,254.88 1432.41,257.697 
  1436.48,260.474 1440.55,263.237 1444.63,266.008 1448.7,268.809 1452.77,271.658 1456.84,274.573 1460.92,277.57 1464.99,280.662 1469.06,283.867 1473.13,287.199 
  1477.21,290.676 1481.28,294.319 1485.35,298.149 1489.42,302.192 1493.49,306.478 1497.57,311.042 1501.64,315.919 1505.71,321.154 1509.78,326.791 1513.86,332.88 
  1517.93,339.47 1522,346.613 1526.07,354.361 1530.15,362.763 1534.22,371.863 1538.29,381.695 1542.36,392.286 1546.43,403.646 1550.51,415.763 1554.58,428.605 
  1558.65,442.108 1562.72,456.172 1566.8,470.656 1570.87,485.369 1574.94,500.071 1579.01,514.461 1583.09,528.178 1587.16,540.796 1591.23,551.821 1595.3,560.695 
  1599.38,566.798 1603.45,569.461 1607.52,567.99 1611.59,561.713 1615.66,550.061 1619.74,532.691 1623.81,509.651 1627.88,481.576 1631.95,449.859 1636.03,416.752 
  1640.1,385.317 1644.17,359.208 1648.24,342.305 1652.32,338.256 1656.39,350.034 1660.46,379.569 1664.53,427.517 1668.6,493.157 1672.68,574.426 1676.75,668.078 
  1680.82,769.958 1684.89,875.399 1688.97,979.64 1693.04,1078.3 1697.11,1167.75 1701.18,1245.36 1705.26,1309.62 1709.33,1360.14 1713.4,1397.43 1717.47,1422.77 
  1721.55,1437.87 1725.62,1444.67 1729.69,1445.09 1733.76,1440.85 1737.83,1433.45 1741.91,1424.06 1745.98,1413.59 1750.05,1402.68 1754.12,1391.8 1758.2,1381.24 
  1762.27,1371.18 1766.34,1361.73 1770.41,1352.92 1774.49,1344.78 1778.56,1337.29 1782.63,1330.4 1786.7,1324.09 1790.77,1318.31 1794.85,1313.01 1798.92,1308.14 
  1802.99,1303.66 1807.06,1299.53 1811.14,1295.7 1815.21,1292.13 1819.28,1288.78 1823.35,1285.61 1827.43,1282.58 1831.5,1279.67 1835.57,1276.83 1839.64,1274.04 
  1843.71,1271.27 1847.79,1268.51 1851.86,1265.72 1855.93,1262.88 1860,1259.99 1864.08,1257.02 1868.15,1253.96 1872.22,1250.79 1876.29,1247.51 1880.37,1244.08 
  1884.44,1240.49 1888.51,1236.72 1892.58,1232.75 1896.66,1228.55 1900.73,1224.08 1904.8,1219.31 1908.87,1214.2 1912.94,1208.7 1917.02,1202.77 1921.09,1196.35 
  1925.16,1189.4 1929.23,1181.86 1933.31,1173.69 1937.38,1164.83 1941.45,1155.25 1945.52,1144.91 1949.6,1133.82 1953.67,1121.96 1957.74,1109.36 1961.81,1096.07 
  1965.88,1082.19 1969.96,1067.84 1974.03,1053.18 1978.1,1038.45 1982.17,1023.93 1986.25,1009.94 1990.32,996.907 1994.39,985.288 1998.46,975.621 2002.54,968.507 
  2006.61,964.599 2010.68,964.586 2014.75,969.154 2018.83,978.919 2022.9,994.315 2026.97,1015.45 2031.04,1041.91 2035.11,1072.57 2039.19,1105.49 2043.26,1137.86 
  2047.33,1166.2 2051.4,1186.66 2055.48,1195.46 2059.55,1189.36 2063.62,1166.04 2067.69,1124.39 2071.77,1064.65 2075.84,988.449 2079.91,898.635 2083.98,799.092 
  2088.05,694.361 2092.13,589.218 2096.2,488.218 2100.27,395.285 2104.34,313.405 2108.42,244.471 2112.49,189.259 2116.56,147.539 2120.63,118.27 2124.71,99.8561 
  2128.78,90.4129 2132.85,88.0013 2136.92,90.8086 2140.99,97.2615 2145.07,106.075 2149.14,116.254 2153.21,127.065 2157.28,137.991 2161.36,148.684 2165.43,158.927 
  2169.5,168.591 2173.57,177.616 2177.65,185.98 2181.72,193.695 2185.79,200.785 2189.86,207.288 2193.94,213.247 2198.01,218.709 2202.08,223.718 2206.15,228.323 
  2210.22,232.567 2214.3,236.496 2218.37,240.151 2222.44,243.574 2226.51,246.804 2230.59,249.877 2234.66,252.829 2238.73,255.691 2242.8,258.494 2246.88,261.266 
  2250.95,264.031 2255.02,266.811 2259.09,269.628 2263.16,272.499 2267.24,275.441 2271.31,278.469 2275.38,281.598 2279.45,284.844 2283.53,288.224 2287.6,291.754 
  2291.67,295.457 
  "/>
<path clip-path="url(#clip500)" d="
M1612.16 198.898 L2280.81 198.898 L2280.81 95.2176 L1612.16 95.2176  Z
  " fill="#ffffff" fill-rule="evenodd" fill-opacity="1"/>
<polyline clip-path="url(#clip500)" style="stroke:#000000; stroke-linecap:round; stroke-linejoin:round; stroke-width:4; stroke-opacity:1; fill:none" points="
  1612.16,198.898 2280.81,198.898 2280.81,95.2176 1612.16,95.2176 1612.16,198.898 
  "/>
<polyline clip-path="url(#clip500)" style="stroke:#009af9; stroke-linecap:round; stroke-linejoin:round; stroke-width:4; stroke-opacity:1; fill:none" points="
  1636.14,147.058 1780.03,147.058 
  "/>
<path clip-path="url(#clip500)" d="M1817.41 151.305 Q1812.25 151.305 1810.26 152.486 Q1808.27 153.666 1808.27 156.514 Q1808.27 158.782 1809.75 160.125 Q1811.25 161.444 1813.82 161.444 Q1817.36 161.444 1819.49 158.944 Q1821.65 156.421 1821.65 152.254 L1821.65 151.305 L1817.41 151.305 M1825.91 149.546 L1825.91 164.338 L1821.65 164.338 L1821.65 160.402 Q1820.19 162.763 1818.01 163.898 Q1815.84 165.009 1812.69 165.009 Q1808.71 165.009 1806.35 162.787 Q1804.01 160.541 1804.01 156.791 Q1804.01 152.416 1806.92 150.194 Q1809.86 147.972 1815.67 147.972 L1821.65 147.972 L1821.65 147.555 Q1821.65 144.615 1819.7 143.018 Q1817.78 141.398 1814.29 141.398 Q1812.06 141.398 1809.96 141.93 Q1807.85 142.463 1805.91 143.527 L1805.91 139.592 Q1808.24 138.69 1810.44 138.25 Q1812.64 137.787 1814.73 137.787 Q1820.35 137.787 1823.13 140.703 Q1825.91 143.62 1825.91 149.546 Z" fill="#000000" fill-rule="evenodd" fill-opacity="1" /><path clip-path="url(#clip500)" d="M1853.34 139.407 L1853.34 143.389 Q1851.53 142.393 1849.7 141.907 Q1847.9 141.398 1846.04 141.398 Q1841.9 141.398 1839.61 144.037 Q1837.32 146.652 1837.32 151.398 Q1837.32 156.143 1839.61 158.782 Q1841.9 161.398 1846.04 161.398 Q1847.9 161.398 1849.7 160.912 Q1851.53 160.402 1853.34 159.407 L1853.34 163.342 Q1851.55 164.176 1849.63 164.592 Q1847.73 165.009 1845.58 165.009 Q1839.73 165.009 1836.28 161.328 Q1832.83 157.648 1832.83 151.398 Q1832.83 145.055 1836.3 141.421 Q1839.8 137.787 1845.86 137.787 Q1847.83 137.787 1849.7 138.203 Q1851.58 138.597 1853.34 139.407 Z" fill="#000000" fill-rule="evenodd" fill-opacity="1" /><path clip-path="url(#clip500)" d="M1879.4 139.407 L1879.4 143.389 Q1877.6 142.393 1875.77 141.907 Q1873.96 141.398 1872.11 141.398 Q1867.97 141.398 1865.67 144.037 Q1863.38 146.652 1863.38 151.398 Q1863.38 156.143 1865.67 158.782 Q1867.97 161.398 1872.11 161.398 Q1873.96 161.398 1875.77 160.912 Q1877.6 160.402 1879.4 159.407 L1879.4 163.342 Q1877.62 164.176 1875.7 164.592 Q1873.8 165.009 1871.65 165.009 Q1865.79 165.009 1862.34 161.328 Q1858.89 157.648 1858.89 151.398 Q1858.89 145.055 1862.36 141.421 Q1865.86 137.787 1871.92 137.787 Q1873.89 137.787 1875.77 138.203 Q1877.64 138.597 1879.4 139.407 Z" fill="#000000" fill-rule="evenodd" fill-opacity="1" /><path clip-path="url(#clip500)" d="M1927.94 132.44 L1927.94 137.37 Q1925.58 135.171 1922.9 134.083 Q1920.23 132.995 1917.23 132.995 Q1911.3 132.995 1908.15 136.629 Q1905 140.24 1905 147.092 Q1905 153.921 1908.15 157.555 Q1911.3 161.166 1917.23 161.166 Q1920.23 161.166 1922.9 160.078 Q1925.58 158.99 1927.94 156.791 L1927.94 161.676 Q1925.49 163.342 1922.73 164.176 Q1920 165.009 1916.95 165.009 Q1909.1 165.009 1904.59 160.217 Q1900.07 155.402 1900.07 147.092 Q1900.07 138.759 1904.59 133.967 Q1909.1 129.153 1916.95 129.153 Q1920.05 129.153 1922.78 129.986 Q1925.54 130.796 1927.94 132.44 Z" fill="#000000" fill-rule="evenodd" fill-opacity="1" /><path clip-path="url(#clip500)" d="M1955.88 130.912 L1955.88 135.472 Q1953.22 134.199 1950.86 133.574 Q1948.5 132.949 1946.3 132.949 Q1942.48 132.949 1940.4 134.43 Q1938.34 135.912 1938.34 138.643 Q1938.34 140.935 1939.7 142.115 Q1941.09 143.273 1944.93 143.99 L1947.76 144.569 Q1952.99 145.565 1955.47 148.088 Q1957.97 150.588 1957.97 154.801 Q1957.97 159.824 1954.59 162.416 Q1951.23 165.009 1944.73 165.009 Q1942.27 165.009 1939.49 164.453 Q1936.74 163.898 1933.78 162.81 L1933.78 157.995 Q1936.62 159.592 1939.35 160.402 Q1942.09 161.213 1944.73 161.213 Q1948.73 161.213 1950.91 159.639 Q1953.08 158.064 1953.08 155.148 Q1953.08 152.602 1951.51 151.166 Q1949.96 149.731 1946.39 149.014 L1943.54 148.458 Q1938.31 147.416 1935.98 145.194 Q1933.64 142.972 1933.64 139.014 Q1933.64 134.43 1936.85 131.791 Q1940.1 129.153 1945.77 129.153 Q1948.2 129.153 1950.72 129.592 Q1953.24 130.032 1955.88 130.912 Z" fill="#000000" fill-rule="evenodd" fill-opacity="1" /><path clip-path="url(#clip500)" d="M1962.92 149.453 L1975.4 149.453 L1975.4 153.25 L1962.92 153.25 L1962.92 149.453 Z" fill="#000000" fill-rule="evenodd" fill-opacity="1" /><path clip-path="url(#clip500)" d="M1982.36 129.778 L1988.66 129.778 L2003.98 158.689 L2003.98 129.778 L2008.52 129.778 L2008.52 164.338 L2002.22 164.338 L1986.9 135.426 L1986.9 164.338 L1982.36 164.338 L1982.36 129.778 Z" fill="#000000" fill-rule="evenodd" fill-opacity="1" /><path clip-path="url(#clip500)" d="M2039.82 150.31 L2039.82 152.393 L2020.23 152.393 Q2020.51 156.791 2022.87 159.106 Q2025.26 161.398 2029.49 161.398 Q2031.95 161.398 2034.24 160.796 Q2036.55 160.194 2038.82 158.99 L2038.82 163.018 Q2036.53 163.99 2034.12 164.5 Q2031.72 165.009 2029.24 165.009 Q2023.03 165.009 2019.4 161.398 Q2015.79 157.787 2015.79 151.629 Q2015.79 145.264 2019.22 141.537 Q2022.66 137.787 2028.5 137.787 Q2033.73 137.787 2036.76 141.166 Q2039.82 144.523 2039.82 150.31 M2035.56 149.06 Q2035.51 145.565 2033.59 143.481 Q2031.69 141.398 2028.54 141.398 Q2024.98 141.398 2022.83 143.412 Q2020.7 145.426 2020.37 149.083 L2035.56 149.06 Z" fill="#000000" fill-rule="evenodd" fill-opacity="1" /><path clip-path="url(#clip500)" d="M2046.37 154.106 L2046.37 138.412 L2050.63 138.412 L2050.63 153.944 Q2050.63 157.625 2052.06 159.476 Q2053.5 161.305 2056.37 161.305 Q2059.82 161.305 2061.81 159.106 Q2063.82 156.907 2063.82 153.111 L2063.82 138.412 L2068.08 138.412 L2068.08 164.338 L2063.82 164.338 L2063.82 160.356 Q2062.27 162.717 2060.21 163.875 Q2058.17 165.009 2055.47 165.009 Q2051 165.009 2048.68 162.231 Q2046.37 159.453 2046.37 154.106 M2057.09 137.787 L2057.09 137.787 Z" fill="#000000" fill-rule="evenodd" fill-opacity="1" /><path clip-path="url(#clip500)" d="M2091.88 142.393 Q2091.16 141.977 2090.3 141.791 Q2089.47 141.583 2088.45 141.583 Q2084.84 141.583 2082.9 143.944 Q2080.97 146.282 2080.97 150.68 L2080.97 164.338 L2076.69 164.338 L2076.69 138.412 L2080.97 138.412 L2080.97 142.44 Q2082.32 140.078 2084.47 138.944 Q2086.62 137.787 2089.7 137.787 Q2090.14 137.787 2090.67 137.856 Q2091.21 137.903 2091.85 138.018 L2091.88 142.393 Z" fill="#000000" fill-rule="evenodd" fill-opacity="1" /><path clip-path="url(#clip500)" d="M2108.13 151.305 Q2102.96 151.305 2100.97 152.486 Q2098.98 153.666 2098.98 156.514 Q2098.98 158.782 2100.46 160.125 Q2101.97 161.444 2104.54 161.444 Q2108.08 161.444 2110.21 158.944 Q2112.36 156.421 2112.36 152.254 L2112.36 151.305 L2108.13 151.305 M2116.62 149.546 L2116.62 164.338 L2112.36 164.338 L2112.36 160.402 Q2110.9 162.763 2108.73 163.898 Q2106.55 165.009 2103.4 165.009 Q2099.42 165.009 2097.06 162.787 Q2094.72 160.541 2094.72 156.791 Q2094.72 152.416 2097.64 150.194 Q2100.58 147.972 2106.39 147.972 L2112.36 147.972 L2112.36 147.555 Q2112.36 144.615 2110.42 143.018 Q2108.5 141.398 2105 141.398 Q2102.78 141.398 2100.67 141.93 Q2098.57 142.463 2096.62 143.527 L2096.62 139.592 Q2098.96 138.69 2101.16 138.25 Q2103.36 137.787 2105.44 137.787 Q2111.07 137.787 2113.84 140.703 Q2116.62 143.62 2116.62 149.546 Z" fill="#000000" fill-rule="evenodd" fill-opacity="1" /><path clip-path="url(#clip500)" d="M2125.4 128.319 L2129.65 128.319 L2129.65 164.338 L2125.4 164.338 L2125.4 128.319 Z" fill="#000000" fill-rule="evenodd" fill-opacity="1" /><path clip-path="url(#clip500)" d="M2138.75 129.778 L2158.61 129.778 L2158.61 133.713 L2143.43 133.713 L2143.43 143.898 L2157.13 143.898 L2157.13 147.833 L2143.43 147.833 L2143.43 164.338 L2138.75 164.338 L2138.75 129.778 Z" fill="#000000" fill-rule="evenodd" fill-opacity="1" /><path clip-path="url(#clip500)" d="M2166.02 129.778 L2172.99 129.778 L2181.81 153.296 L2190.67 129.778 L2197.64 129.778 L2197.64 164.338 L2193.08 164.338 L2193.08 133.99 L2184.17 157.694 L2179.47 157.694 L2170.56 133.99 L2170.56 164.338 L2166.02 164.338 L2166.02 129.778 Z" fill="#000000" fill-rule="evenodd" fill-opacity="1" /><path clip-path="url(#clip500)" d="M2206.39 129.778 L2211.09 129.778 L2211.09 150.773 Q2211.09 156.328 2213.1 158.782 Q2215.12 161.213 2219.63 161.213 Q2224.12 161.213 2226.14 158.782 Q2228.15 156.328 2228.15 150.773 L2228.15 129.778 L2232.85 129.778 L2232.85 151.352 Q2232.85 158.111 2229.49 161.56 Q2226.16 165.009 2219.63 165.009 Q2213.08 165.009 2209.72 161.56 Q2206.39 158.111 2206.39 151.352 L2206.39 129.778 Z" fill="#000000" fill-rule="evenodd" fill-opacity="1" /></svg>
