<?xml version="1.0" encoding="utf-8"?>
<svg xmlns="http://www.w3.org/2000/svg" xmlns:xlink="http://www.w3.org/1999/xlink" width="600" height="400" viewBox="0 0 2400 1600">
<defs>
  <clipPath id="clip780">
    <rect x="0" y="0" width="2400" height="1600"/>
  </clipPath>
</defs>
<path clip-path="url(#clip780)" d="
M0 1600 L2400 1600 L2400 0 L0 0  Z
  " fill="#ffffff" fill-rule="evenodd" fill-opacity="1"/>
<defs>
  <clipPath id="clip781">
    <rect x="480" y="0" width="1681" height="1600"/>
  </clipPath>
</defs>
<path clip-path="url(#clip780)" d="
M193.936 1423.18 L2352.76 1423.18 L2352.76 47.2441 L193.936 47.2441  Z
  " fill="#ffffff" fill-rule="evenodd" fill-opacity="1"/>
<defs>
  <clipPath id="clip782">
    <rect x="193" y="47" width="2160" height="1377"/>
  </clipPath>
</defs>
<polyline clip-path="url(#clip782)" style="stroke:#000000; stroke-linecap:round; stroke-linejoin:round; stroke-width:2; stroke-opacity:0.1; fill:none" points="
  255.035,1423.18 255.035,47.2441 
  "/>
<polyline clip-path="url(#clip782)" style="stroke:#000000; stroke-linecap:round; stroke-linejoin:round; stroke-width:2; stroke-opacity:0.1; fill:none" points="
  662.359,1423.18 662.359,47.2441 
  "/>
<polyline clip-path="url(#clip782)" style="stroke:#000000; stroke-linecap:round; stroke-linejoin:round; stroke-width:2; stroke-opacity:0.1; fill:none" points="
  1069.68,1423.18 1069.68,47.2441 
  "/>
<polyline clip-path="url(#clip782)" style="stroke:#000000; stroke-linecap:round; stroke-linejoin:round; stroke-width:2; stroke-opacity:0.1; fill:none" points="
  1477.01,1423.18 1477.01,47.2441 
  "/>
<polyline clip-path="url(#clip782)" style="stroke:#000000; stroke-linecap:round; stroke-linejoin:round; stroke-width:2; stroke-opacity:0.1; fill:none" points="
  1884.33,1423.18 1884.33,47.2441 
  "/>
<polyline clip-path="url(#clip782)" style="stroke:#000000; stroke-linecap:round; stroke-linejoin:round; stroke-width:2; stroke-opacity:0.1; fill:none" points="
  2291.66,1423.18 2291.66,47.2441 
  "/>
<polyline clip-path="url(#clip780)" style="stroke:#000000; stroke-linecap:round; stroke-linejoin:round; stroke-width:4; stroke-opacity:1; fill:none" points="
  193.936,1423.18 2352.76,1423.18 
  "/>
<polyline clip-path="url(#clip780)" style="stroke:#000000; stroke-linecap:round; stroke-linejoin:round; stroke-width:4; stroke-opacity:1; fill:none" points="
  255.035,1423.18 255.035,1404.28 
  "/>
<polyline clip-path="url(#clip780)" style="stroke:#000000; stroke-linecap:round; stroke-linejoin:round; stroke-width:4; stroke-opacity:1; fill:none" points="
  662.359,1423.18 662.359,1404.28 
  "/>
<polyline clip-path="url(#clip780)" style="stroke:#000000; stroke-linecap:round; stroke-linejoin:round; stroke-width:4; stroke-opacity:1; fill:none" points="
  1069.68,1423.18 1069.68,1404.28 
  "/>
<polyline clip-path="url(#clip780)" style="stroke:#000000; stroke-linecap:round; stroke-linejoin:round; stroke-width:4; stroke-opacity:1; fill:none" points="
  1477.01,1423.18 1477.01,1404.28 
  "/>
<polyline clip-path="url(#clip780)" style="stroke:#000000; stroke-linecap:round; stroke-linejoin:round; stroke-width:4; stroke-opacity:1; fill:none" points="
  1884.33,1423.18 1884.33,1404.28 
  "/>
<polyline clip-path="url(#clip780)" style="stroke:#000000; stroke-linecap:round; stroke-linejoin:round; stroke-width:4; stroke-opacity:1; fill:none" points="
  2291.66,1423.18 2291.66,1404.28 
  "/>
<path clip-path="url(#clip780)" d="M255.035 1454.1 Q251.424 1454.1 249.595 1457.66 Q247.789 1461.2 247.789 1468.33 Q247.789 1475.44 249.595 1479.01 Q251.424 1482.55 255.035 1482.55 Q258.669 1482.55 260.474 1479.01 Q262.303 1475.44 262.303 1468.33 Q262.303 1461.2 260.474 1457.66 Q258.669 1454.1 255.035 1454.1 M255.035 1450.39 Q260.845 1450.39 263.9 1455 Q266.979 1459.58 266.979 1468.33 Q266.979 1477.06 263.9 1481.67 Q260.845 1486.25 255.035 1486.25 Q249.225 1486.25 246.146 1481.67 Q243.09 1477.06 243.09 1468.33 Q243.09 1459.58 246.146 1455 Q249.225 1450.39 255.035 1450.39 Z" fill="#000000" fill-rule="evenodd" fill-opacity="1" /><path clip-path="url(#clip780)" d="M652.741 1481.64 L660.38 1481.64 L660.38 1455.28 L652.07 1456.95 L652.07 1452.69 L660.334 1451.02 L665.01 1451.02 L665.01 1481.64 L672.648 1481.64 L672.648 1485.58 L652.741 1485.58 L652.741 1481.64 Z" fill="#000000" fill-rule="evenodd" fill-opacity="1" /><path clip-path="url(#clip780)" d="M1064.34 1481.64 L1080.66 1481.64 L1080.66 1485.58 L1058.71 1485.58 L1058.71 1481.64 Q1061.37 1478.89 1065.96 1474.26 Q1070.56 1469.61 1071.74 1468.27 Q1073.99 1465.74 1074.87 1464.01 Q1075.77 1462.25 1075.77 1460.56 Q1075.77 1457.8 1073.83 1456.07 Q1071.91 1454.33 1068.8 1454.33 Q1066.61 1454.33 1064.15 1455.09 Q1061.72 1455.86 1058.94 1457.41 L1058.94 1452.69 Q1061.77 1451.55 1064.22 1450.97 Q1066.67 1450.39 1068.71 1450.39 Q1074.08 1450.39 1077.28 1453.08 Q1080.47 1455.77 1080.47 1460.26 Q1080.47 1462.39 1079.66 1464.31 Q1078.87 1466.2 1076.77 1468.8 Q1076.19 1469.47 1073.09 1472.69 Q1069.98 1475.88 1064.34 1481.64 Z" fill="#000000" fill-rule="evenodd" fill-opacity="1" /><path clip-path="url(#clip780)" d="M1481.26 1466.95 Q1484.61 1467.66 1486.49 1469.93 Q1488.39 1472.2 1488.39 1475.53 Q1488.39 1480.65 1484.87 1483.45 Q1481.35 1486.25 1474.87 1486.25 Q1472.69 1486.25 1470.38 1485.81 Q1468.08 1485.39 1465.63 1484.54 L1465.63 1480.02 Q1467.58 1481.16 1469.89 1481.74 Q1472.2 1482.32 1474.73 1482.32 Q1479.13 1482.32 1481.42 1480.58 Q1483.73 1478.84 1483.73 1475.53 Q1483.73 1472.48 1481.58 1470.77 Q1479.45 1469.03 1475.63 1469.03 L1471.6 1469.03 L1471.6 1465.19 L1475.82 1465.19 Q1479.27 1465.19 1481.09 1463.82 Q1482.92 1462.43 1482.92 1459.84 Q1482.92 1457.18 1481.02 1455.77 Q1479.15 1454.33 1475.63 1454.33 Q1473.71 1454.33 1471.51 1454.75 Q1469.31 1455.16 1466.67 1456.04 L1466.67 1451.88 Q1469.33 1451.14 1471.65 1450.77 Q1473.99 1450.39 1476.05 1450.39 Q1481.37 1450.39 1484.47 1452.83 Q1487.58 1455.23 1487.58 1459.35 Q1487.58 1462.22 1485.93 1464.21 Q1484.29 1466.18 1481.26 1466.95 Z" fill="#000000" fill-rule="evenodd" fill-opacity="1" /><path clip-path="url(#clip780)" d="M1887.34 1455.09 L1875.54 1473.54 L1887.34 1473.54 L1887.34 1455.09 M1886.12 1451.02 L1891.99 1451.02 L1891.99 1473.54 L1896.93 1473.54 L1896.93 1477.43 L1891.99 1477.43 L1891.99 1485.58 L1887.34 1485.58 L1887.34 1477.43 L1871.74 1477.43 L1871.74 1472.92 L1886.12 1451.02 Z" fill="#000000" fill-rule="evenodd" fill-opacity="1" /><path clip-path="url(#clip780)" d="M2281.94 1451.02 L2300.29 1451.02 L2300.29 1454.96 L2286.22 1454.96 L2286.22 1463.43 Q2287.24 1463.08 2288.25 1462.92 Q2289.27 1462.73 2290.29 1462.73 Q2296.08 1462.73 2299.46 1465.9 Q2302.84 1469.08 2302.84 1474.49 Q2302.84 1480.07 2299.37 1483.17 Q2295.89 1486.25 2289.57 1486.25 Q2287.4 1486.25 2285.13 1485.88 Q2282.88 1485.51 2280.48 1484.77 L2280.48 1480.07 Q2282.56 1481.2 2284.78 1481.76 Q2287 1482.32 2289.48 1482.32 Q2293.49 1482.32 2295.82 1480.21 Q2298.16 1478.1 2298.16 1474.49 Q2298.16 1470.88 2295.82 1468.77 Q2293.49 1466.67 2289.48 1466.67 Q2287.61 1466.67 2285.73 1467.08 Q2283.88 1467.5 2281.94 1468.38 L2281.94 1451.02 Z" fill="#000000" fill-rule="evenodd" fill-opacity="1" /><path clip-path="url(#clip780)" d="M1221.66 1522.27 L1221.66 1532.4 L1233.72 1532.4 L1233.72 1536.95 L1221.66 1536.95 L1221.66 1556.3 Q1221.66 1560.66 1222.83 1561.9 Q1224.04 1563.14 1227.7 1563.14 L1233.72 1563.14 L1233.72 1568.04 L1227.7 1568.04 Q1220.92 1568.04 1218.35 1565.53 Q1215.77 1562.98 1215.77 1556.3 L1215.77 1536.95 L1211.47 1536.95 L1211.47 1532.4 L1215.77 1532.4 L1215.77 1522.27 L1221.66 1522.27 Z" fill="#000000" fill-rule="evenodd" fill-opacity="1" /><path clip-path="url(#clip780)" d="M1261.6 1518.52 L1275.1 1518.52 L1275.1 1523.07 L1267.46 1523.07 L1267.46 1572.09 L1275.1 1572.09 L1275.1 1576.64 L1261.6 1576.64 L1261.6 1518.52 Z" fill="#000000" fill-rule="evenodd" fill-opacity="1" /><path clip-path="url(#clip780)" d="M1310.3 1533.45 L1310.3 1538.98 Q1307.82 1537.71 1305.14 1537.07 Q1302.47 1536.44 1299.6 1536.44 Q1295.24 1536.44 1293.05 1537.77 Q1290.88 1539.11 1290.88 1541.79 Q1290.88 1543.82 1292.44 1545 Q1294 1546.15 1298.71 1547.2 L1300.72 1547.64 Q1306.96 1548.98 1309.57 1551.43 Q1312.21 1553.85 1312.21 1558.21 Q1312.21 1563.17 1308.26 1566.07 Q1304.35 1568.97 1297.47 1568.97 Q1294.61 1568.97 1291.49 1568.39 Q1288.4 1567.85 1284.96 1566.74 L1284.96 1560.69 Q1288.21 1562.38 1291.36 1563.24 Q1294.51 1564.07 1297.6 1564.07 Q1301.74 1564.07 1303.97 1562.66 Q1306.19 1561.23 1306.19 1558.65 Q1306.19 1556.27 1304.57 1554.99 Q1302.98 1553.72 1297.54 1552.54 L1295.5 1552.07 Q1290.06 1550.92 1287.64 1548.56 Q1285.22 1546.18 1285.22 1542.04 Q1285.22 1537.01 1288.78 1534.27 Q1292.35 1531.54 1298.9 1531.54 Q1302.15 1531.54 1305.02 1532.01 Q1307.88 1532.49 1310.3 1533.45 Z" fill="#000000" fill-rule="evenodd" fill-opacity="1" /><path clip-path="url(#clip780)" d="M1335.22 1518.52 L1335.22 1576.64 L1321.73 1576.64 L1321.73 1572.09 L1329.33 1572.09 L1329.33 1523.07 L1321.73 1523.07 L1321.73 1518.52 L1335.22 1518.52 Z" fill="#000000" fill-rule="evenodd" fill-opacity="1" /><polyline clip-path="url(#clip782)" style="stroke:#000000; stroke-linecap:round; stroke-linejoin:round; stroke-width:2; stroke-opacity:0.1; fill:none" points="
  193.936,1274.78 2352.76,1274.78 
  "/>
<polyline clip-path="url(#clip782)" style="stroke:#000000; stroke-linecap:round; stroke-linejoin:round; stroke-width:2; stroke-opacity:0.1; fill:none" points="
  193.936,1004.94 2352.76,1004.94 
  "/>
<polyline clip-path="url(#clip782)" style="stroke:#000000; stroke-linecap:round; stroke-linejoin:round; stroke-width:2; stroke-opacity:0.1; fill:none" points="
  193.936,735.102 2352.76,735.102 
  "/>
<polyline clip-path="url(#clip782)" style="stroke:#000000; stroke-linecap:round; stroke-linejoin:round; stroke-width:2; stroke-opacity:0.1; fill:none" points="
  193.936,465.265 2352.76,465.265 
  "/>
<polyline clip-path="url(#clip782)" style="stroke:#000000; stroke-linecap:round; stroke-linejoin:round; stroke-width:2; stroke-opacity:0.1; fill:none" points="
  193.936,195.428 2352.76,195.428 
  "/>
<polyline clip-path="url(#clip780)" style="stroke:#000000; stroke-linecap:round; stroke-linejoin:round; stroke-width:4; stroke-opacity:1; fill:none" points="
  193.936,1423.18 193.936,47.2441 
  "/>
<polyline clip-path="url(#clip780)" style="stroke:#000000; stroke-linecap:round; stroke-linejoin:round; stroke-width:4; stroke-opacity:1; fill:none" points="
  193.936,1274.78 212.834,1274.78 
  "/>
<polyline clip-path="url(#clip780)" style="stroke:#000000; stroke-linecap:round; stroke-linejoin:round; stroke-width:4; stroke-opacity:1; fill:none" points="
  193.936,1004.94 212.834,1004.94 
  "/>
<polyline clip-path="url(#clip780)" style="stroke:#000000; stroke-linecap:round; stroke-linejoin:round; stroke-width:4; stroke-opacity:1; fill:none" points="
  193.936,735.102 212.834,735.102 
  "/>
<polyline clip-path="url(#clip780)" style="stroke:#000000; stroke-linecap:round; stroke-linejoin:round; stroke-width:4; stroke-opacity:1; fill:none" points="
  193.936,465.265 212.834,465.265 
  "/>
<polyline clip-path="url(#clip780)" style="stroke:#000000; stroke-linecap:round; stroke-linejoin:round; stroke-width:4; stroke-opacity:1; fill:none" points="
  193.936,195.428 212.834,195.428 
  "/>
<path clip-path="url(#clip780)" d="M50.9921 1275.23 L80.6679 1275.23 L80.6679 1279.16 L50.9921 1279.16 L50.9921 1275.23 Z" fill="#000000" fill-rule="evenodd" fill-opacity="1" /><path clip-path="url(#clip780)" d="M90.8067 1257.5 L109.163 1257.5 L109.163 1261.43 L95.0891 1261.43 L95.0891 1269.9 Q96.1076 1269.56 97.1261 1269.39 Q98.1447 1269.21 99.1632 1269.21 Q104.95 1269.21 108.33 1272.38 Q111.709 1275.55 111.709 1280.97 Q111.709 1286.55 108.237 1289.65 Q104.765 1292.73 98.4456 1292.73 Q96.2697 1292.73 94.0012 1292.36 Q91.7558 1291.99 89.3484 1291.25 L89.3484 1286.55 Q91.4317 1287.68 93.6539 1288.24 Q95.8761 1288.79 98.353 1288.79 Q102.358 1288.79 104.696 1286.69 Q107.033 1284.58 107.033 1280.97 Q107.033 1277.36 104.696 1275.25 Q102.358 1273.14 98.353 1273.14 Q96.478 1273.14 94.603 1273.56 Q92.7512 1273.98 90.8067 1274.86 L90.8067 1257.5 Z" fill="#000000" fill-rule="evenodd" fill-opacity="1" /><path clip-path="url(#clip780)" d="M120.922 1286.18 L125.807 1286.18 L125.807 1292.06 L120.922 1292.06 L120.922 1286.18 Z" fill="#000000" fill-rule="evenodd" fill-opacity="1" /><path clip-path="url(#clip780)" d="M145.992 1260.57 Q142.381 1260.57 140.552 1264.14 Q138.746 1267.68 138.746 1274.81 Q138.746 1281.92 140.552 1285.48 Q142.381 1289.02 145.992 1289.02 Q149.626 1289.02 151.431 1285.48 Q153.26 1281.92 153.26 1274.81 Q153.26 1267.68 151.431 1264.14 Q149.626 1260.57 145.992 1260.57 M145.992 1256.87 Q151.802 1256.87 154.857 1261.48 Q157.936 1266.06 157.936 1274.81 Q157.936 1283.54 154.857 1288.14 Q151.802 1292.73 145.992 1292.73 Q140.181 1292.73 137.103 1288.14 Q134.047 1283.54 134.047 1274.81 Q134.047 1266.06 137.103 1261.48 Q140.181 1256.87 145.992 1256.87 Z" fill="#000000" fill-rule="evenodd" fill-opacity="1" /><path clip-path="url(#clip780)" d="M51.9875 1005.39 L81.6633 1005.39 L81.6633 1009.33 L51.9875 1009.33 L51.9875 1005.39 Z" fill="#000000" fill-rule="evenodd" fill-opacity="1" /><path clip-path="url(#clip780)" d="M95.7836 1018.28 L112.103 1018.28 L112.103 1022.22 L90.1586 1022.22 L90.1586 1018.28 Q92.8206 1015.53 97.4039 1010.9 Q102.01 1006.25 103.191 1004.9 Q105.436 1002.38 106.316 1000.64 Q107.219 998.886 107.219 997.196 Q107.219 994.441 105.274 992.705 Q103.353 990.969 100.251 990.969 Q98.0521 990.969 95.5984 991.733 Q93.1678 992.497 90.3901 994.048 L90.3901 989.325 Q93.2141 988.191 95.6678 987.613 Q98.1215 987.034 100.159 987.034 Q105.529 987.034 108.723 989.719 Q111.918 992.404 111.918 996.895 Q111.918 999.024 111.108 1000.95 Q110.321 1002.84 108.214 1005.44 Q107.635 1006.11 104.534 1009.33 Q101.432 1012.52 95.7836 1018.28 Z" fill="#000000" fill-rule="evenodd" fill-opacity="1" /><path clip-path="url(#clip780)" d="M121.918 1016.34 L126.802 1016.34 L126.802 1022.22 L121.918 1022.22 L121.918 1016.34 Z" fill="#000000" fill-rule="evenodd" fill-opacity="1" /><path clip-path="url(#clip780)" d="M137.033 987.659 L155.39 987.659 L155.39 991.594 L141.316 991.594 L141.316 1000.07 Q142.334 999.719 143.353 999.557 Q144.371 999.372 145.39 999.372 Q151.177 999.372 154.556 1002.54 Q157.936 1005.71 157.936 1011.13 Q157.936 1016.71 154.464 1019.81 Q150.992 1022.89 144.672 1022.89 Q142.496 1022.89 140.228 1022.52 Q137.982 1022.15 135.575 1021.41 L135.575 1016.71 Q137.658 1017.84 139.881 1018.4 Q142.103 1018.95 144.58 1018.95 Q148.584 1018.95 150.922 1016.85 Q153.26 1014.74 153.26 1011.13 Q153.26 1007.52 150.922 1005.41 Q148.584 1003.31 144.58 1003.31 Q142.705 1003.31 140.83 1003.72 Q138.978 1004.14 137.033 1005.02 L137.033 987.659 Z" fill="#000000" fill-rule="evenodd" fill-opacity="1" /><path clip-path="url(#clip780)" d="M100.76 720.901 Q97.1493 720.901 95.3206 724.465 Q93.515 728.007 93.515 735.137 Q93.515 742.243 95.3206 745.808 Q97.1493 749.349 100.76 749.349 Q104.395 749.349 106.2 745.808 Q108.029 742.243 108.029 735.137 Q108.029 728.007 106.2 724.465 Q104.395 720.901 100.76 720.901 M100.76 717.197 Q106.571 717.197 109.626 721.803 Q112.705 726.387 112.705 735.137 Q112.705 743.863 109.626 748.47 Q106.571 753.053 100.76 753.053 Q94.9502 753.053 91.8715 748.47 Q88.816 743.863 88.816 735.137 Q88.816 726.387 91.8715 721.803 Q94.9502 717.197 100.76 717.197 Z" fill="#000000" fill-rule="evenodd" fill-opacity="1" /><path clip-path="url(#clip780)" d="M120.922 746.502 L125.807 746.502 L125.807 752.382 L120.922 752.382 L120.922 746.502 Z" fill="#000000" fill-rule="evenodd" fill-opacity="1" /><path clip-path="url(#clip780)" d="M145.992 720.901 Q142.381 720.901 140.552 724.465 Q138.746 728.007 138.746 735.137 Q138.746 742.243 140.552 745.808 Q142.381 749.349 145.992 749.349 Q149.626 749.349 151.431 745.808 Q153.26 742.243 153.26 735.137 Q153.26 728.007 151.431 724.465 Q149.626 720.901 145.992 720.901 M145.992 717.197 Q151.802 717.197 154.857 721.803 Q157.936 726.387 157.936 735.137 Q157.936 743.863 154.857 748.47 Q151.802 753.053 145.992 753.053 Q140.181 753.053 137.103 748.47 Q134.047 743.863 134.047 735.137 Q134.047 726.387 137.103 721.803 Q140.181 717.197 145.992 717.197 Z" fill="#000000" fill-rule="evenodd" fill-opacity="1" /><path clip-path="url(#clip780)" d="M95.7836 478.61 L112.103 478.61 L112.103 482.545 L90.1586 482.545 L90.1586 478.61 Q92.8206 475.855 97.4039 471.226 Q102.01 466.573 103.191 465.23 Q105.436 462.707 106.316 460.971 Q107.219 459.212 107.219 457.522 Q107.219 454.767 105.274 453.031 Q103.353 451.295 100.251 451.295 Q98.0521 451.295 95.5984 452.059 Q93.1678 452.823 90.3901 454.374 L90.3901 449.652 Q93.2141 448.517 95.6678 447.939 Q98.1215 447.36 100.159 447.36 Q105.529 447.36 108.723 450.045 Q111.918 452.73 111.918 457.221 Q111.918 459.351 111.108 461.272 Q110.321 463.17 108.214 465.763 Q107.635 466.434 104.534 469.651 Q101.432 472.846 95.7836 478.61 Z" fill="#000000" fill-rule="evenodd" fill-opacity="1" /><path clip-path="url(#clip780)" d="M121.918 476.665 L126.802 476.665 L126.802 482.545 L121.918 482.545 L121.918 476.665 Z" fill="#000000" fill-rule="evenodd" fill-opacity="1" /><path clip-path="url(#clip780)" d="M137.033 447.985 L155.39 447.985 L155.39 451.92 L141.316 451.92 L141.316 460.392 Q142.334 460.045 143.353 459.883 Q144.371 459.698 145.39 459.698 Q151.177 459.698 154.556 462.869 Q157.936 466.04 157.936 471.457 Q157.936 477.036 154.464 480.138 Q150.992 483.216 144.672 483.216 Q142.496 483.216 140.228 482.846 Q137.982 482.475 135.575 481.735 L135.575 477.036 Q137.658 478.17 139.881 478.726 Q142.103 479.281 144.58 479.281 Q148.584 479.281 150.922 477.175 Q153.26 475.068 153.26 471.457 Q153.26 467.846 150.922 465.739 Q148.584 463.633 144.58 463.633 Q142.705 463.633 140.83 464.05 Q138.978 464.466 137.033 465.346 L137.033 447.985 Z" fill="#000000" fill-rule="evenodd" fill-opacity="1" /><path clip-path="url(#clip780)" d="M90.8067 178.148 L109.163 178.148 L109.163 182.083 L95.0891 182.083 L95.0891 190.555 Q96.1076 190.208 97.1261 190.046 Q98.1447 189.861 99.1632 189.861 Q104.95 189.861 108.33 193.032 Q111.709 196.203 111.709 201.62 Q111.709 207.199 108.237 210.301 Q104.765 213.379 98.4456 213.379 Q96.2697 213.379 94.0012 213.009 Q91.7558 212.639 89.3484 211.898 L89.3484 207.199 Q91.4317 208.333 93.6539 208.889 Q95.8761 209.444 98.353 209.444 Q102.358 209.444 104.696 207.338 Q107.033 205.231 107.033 201.62 Q107.033 198.009 104.696 195.903 Q102.358 193.796 98.353 193.796 Q96.478 193.796 94.603 194.213 Q92.7512 194.629 90.8067 195.509 L90.8067 178.148 Z" fill="#000000" fill-rule="evenodd" fill-opacity="1" /><path clip-path="url(#clip780)" d="M120.922 206.828 L125.807 206.828 L125.807 212.708 L120.922 212.708 L120.922 206.828 Z" fill="#000000" fill-rule="evenodd" fill-opacity="1" /><path clip-path="url(#clip780)" d="M145.992 181.227 Q142.381 181.227 140.552 184.791 Q138.746 188.333 138.746 195.463 Q138.746 202.569 140.552 206.134 Q142.381 209.676 145.992 209.676 Q149.626 209.676 151.431 206.134 Q153.26 202.569 153.26 195.463 Q153.26 188.333 151.431 184.791 Q149.626 181.227 145.992 181.227 M145.992 177.523 Q151.802 177.523 154.857 182.129 Q157.936 186.713 157.936 195.463 Q157.936 204.19 154.857 208.796 Q151.802 213.379 145.992 213.379 Q140.181 213.379 137.103 208.796 Q134.047 204.19 134.047 195.463 Q134.047 186.713 137.103 182.129 Q140.181 177.523 145.992 177.523 Z" fill="#000000" fill-rule="evenodd" fill-opacity="1" /><polyline clip-path="url(#clip782)" style="stroke:#009af9; stroke-linecap:round; stroke-linejoin:round; stroke-width:4; stroke-opacity:1; fill:none" points="
  255.035,681.134 259.108,681.101 263.181,681.003 267.254,680.841 271.328,680.615 275.401,680.325 279.474,679.971 283.547,679.553 287.621,679.072 291.694,678.528 
  295.767,677.922 299.84,677.255 303.914,676.526 307.987,675.738 312.06,674.891 316.133,673.985 320.207,673.021 324.28,672.001 328.353,670.926 332.426,669.795 
  336.5,668.612 340.573,667.376 344.646,666.089 348.719,664.752 352.793,663.368 356.866,661.936 360.939,660.458 365.012,658.936 369.086,657.373 373.159,655.768 
  377.232,654.124 381.305,652.443 385.379,650.724 389.452,648.971 393.525,647.187 397.598,645.371 401.671,643.526 405.745,641.654 409.818,639.756 413.891,637.835 
  417.964,635.892 422.038,633.929 426.111,631.949 430.184,629.952 434.257,627.942 438.331,625.921 442.404,623.889 446.477,621.85 450.55,619.805 454.624,617.757 
  458.697,615.707 462.77,613.657 466.843,611.611 470.917,609.57 474.99,607.534 479.063,605.507 483.136,603.492 487.21,601.489 491.283,599.502 495.356,597.531 
  499.429,595.579 503.503,593.648 507.576,591.739 511.649,589.855 515.722,587.998 519.796,586.169 523.869,584.371 527.942,582.604 532.015,580.871 536.089,579.174 
  540.162,577.513 544.235,575.892 548.308,574.312 552.382,572.773 556.455,571.278 560.528,569.828 564.601,568.425 568.675,567.069 572.748,565.764 576.821,564.508 
  580.894,563.305 584.968,562.154 589.041,561.058 593.114,560.017 597.187,559.033 601.261,558.106 605.334,557.237 609.407,556.427 613.48,555.677 617.553,554.988 
  621.627,554.361 625.7,553.795 629.773,553.293 633.846,552.853 637.92,552.476 641.993,552.164 646.066,551.916 650.139,551.732 654.213,551.614 658.286,551.56 
  662.359,551.57 666.432,551.646 670.506,551.786 674.579,551.991 678.652,552.261 682.725,552.594 686.799,552.992 690.872,553.453 694.945,553.976 699.018,554.563 
  703.092,555.211 707.165,555.92 711.238,556.69 715.311,557.519 719.385,558.408 723.458,559.354 727.531,560.358 731.604,561.417 735.678,562.532 739.751,563.7 
  743.824,564.922 747.897,566.194 751.971,567.517 756.044,568.889 760.117,570.308 764.19,571.773 768.264,573.283 772.337,574.837 776.41,576.432 780.483,578.066 
  784.557,579.739 788.63,581.449 792.703,583.193 796.776,584.971 800.85,586.781 804.923,588.62 808.996,590.487 813.069,592.379 817.142,594.296 821.216,596.235 
  825.289,598.194 829.362,600.171 833.435,602.164 837.509,604.172 841.582,606.191 845.655,608.221 849.728,610.26 853.802,612.304 857.875,614.353 861.948,616.404 
  866.021,618.454 870.095,620.502 874.168,622.546 878.241,624.585 882.314,626.615 886.388,628.635 890.461,630.642 894.534,632.635 898.607,634.611 902.681,636.57 
  906.754,638.509 910.827,640.426 914.9,642.318 918.974,644.184 923.047,646.022 927.12,647.831 931.193,649.609 935.267,651.353 939.34,653.063 943.413,654.735 
  947.486,656.369 951.56,657.963 955.633,659.516 959.706,661.025 963.779,662.49 967.853,663.909 971.926,665.28 975.999,666.601 980.072,667.873 984.146,669.094 
  988.219,670.262 992.292,671.375 996.365,672.434 1000.44,673.436 1004.51,674.382 1008.59,675.269 1012.66,676.098 1016.73,676.867 1020.8,677.575 1024.88,678.222 
  1028.95,678.807 1033.02,679.329 1037.1,679.789 1041.17,680.186 1045.24,680.518 1049.32,680.786 1053.39,680.99 1057.46,681.129 1061.54,681.203 1065.61,681.213 
  1069.68,681.157 1073.76,681.037 1077.83,680.852 1081.9,680.602 1085.98,680.289 1090.05,679.911 1094.12,679.47 1098.2,678.965 1102.27,678.398 1106.34,677.769 
  1110.42,677.078 1114.49,676.327 1118.56,675.516 1122.64,674.645 1126.71,673.716 1130.78,672.73 1134.86,671.688 1138.93,670.59 1143,669.437 1147.08,668.232 
  1151.15,666.975 1155.22,665.667 1159.3,664.31 1163.37,662.905 1167.44,661.453 1171.51,659.956 1175.59,658.415 1179.66,656.833 1183.73,655.21 1187.81,653.548 
  1191.88,651.849 1195.95,650.114 1200.03,648.346 1204.1,646.545 1208.17,644.714 1212.25,642.855 1216.32,640.97 1220.39,639.06 1224.47,637.127 1228.54,635.173 
  1232.61,633.201 1236.69,631.211 1240.76,629.207 1244.83,627.191 1248.91,625.163 1252.98,623.126 1257.05,621.082 1261.13,619.034 1265.2,616.983 1269.27,614.932 
  1273.35,612.882 1277.42,610.835 1281.49,608.794 1285.57,606.76 1289.64,604.736 1293.71,602.724 1297.79,600.726 1301.86,598.743 1305.93,596.777 1310.01,594.831 
  1314.08,592.907 1318.15,591.006 1322.22,589.131 1326.3,587.283 1330.37,585.464 1334.44,583.676 1338.52,581.92 1342.59,580.199 1346.66,578.514 1350.74,576.868 
  1354.81,575.26 1358.88,573.694 1362.96,572.17 1367.03,570.691 1371.1,569.257 1375.18,567.871 1379.25,566.533 1383.32,565.245 1387.4,564.007 1391.47,562.823 
  1395.54,561.692 1399.62,560.615 1403.69,559.595 1407.76,558.631 1411.84,557.725 1415.91,556.878 1419.98,556.09 1424.06,555.362 1428.13,554.696 1432.2,554.092 
  1436.28,553.549 1440.35,553.07 1444.42,552.653 1448.5,552.301 1452.57,552.013 1456.64,551.789 1460.72,551.629 1464.79,551.535 1468.86,551.505 1472.93,551.54 
  1477.01,551.641 1481.08,551.805 1485.15,552.035 1489.23,552.329 1493.3,552.687 1497.37,553.109 1501.45,553.594 1505.52,554.141 1509.59,554.752 1513.67,555.423 
  1517.74,556.156 1521.81,556.949 1525.89,557.802 1529.96,558.713 1534.03,559.682 1538.11,560.707 1542.18,561.788 1546.25,562.924 1550.33,564.114 1554.4,565.355 
  1558.47,566.648 1562.55,567.99 1566.62,569.381 1570.69,570.819 1574.77,572.303 1578.84,573.831 1582.91,575.401 1586.99,577.012 1591.06,578.662 1595.13,580.351 
  1599.21,582.076 1603.28,583.835 1607.35,585.626 1611.43,587.448 1615.5,589.299 1619.57,591.177 1623.65,593.081 1627.72,595.007 1631.79,596.956 1635.86,598.923 
  1639.94,600.908 1644.01,602.908 1648.08,604.923 1652.16,606.948 1656.23,608.983 1660.3,611.026 1664.38,613.074 1668.45,615.124 1672.52,617.176 1676.6,619.228 
  1680.67,621.277 1684.74,623.321 1688.82,625.358 1692.89,627.386 1696.96,629.402 1701.04,631.406 1705.11,633.395 1709.18,635.367 1713.26,637.32 1717.33,639.252 
  1721.4,641.161 1725.48,643.045 1729.55,644.903 1733.62,646.732 1737.7,648.531 1741.77,650.297 1745.84,652.03 1749.92,653.726 1753.99,655.386 1758.06,657.006 
  1762.14,658.587 1766.21,660.124 1770.28,661.618 1774.36,663.067 1778.43,664.468 1782.5,665.822 1786.57,667.127 1790.65,668.38 1794.72,669.582 1798.79,670.73 
  1802.87,671.824 1806.94,672.862 1811.01,673.844 1815.09,674.769 1819.16,675.635 1823.23,676.442 1827.31,677.188 1831.38,677.874 1835.45,678.498 1839.53,679.06 
  1843.6,679.56 1847.67,679.996 1851.75,680.368 1855.82,680.677 1859.89,680.921 1863.97,681.1 1868.04,681.215 1872.11,681.265 1876.19,681.25 1880.26,681.17 
  1884.33,681.025 1888.41,680.816 1892.48,680.542 1896.55,680.204 1900.63,679.802 1904.7,679.336 1908.77,678.808 1912.85,678.217 1916.92,677.564 1920.99,676.85 
  1925.07,676.075 1929.14,675.241 1933.21,674.347 1937.28,673.396 1941.36,672.388 1945.43,671.323 1949.5,670.204 1953.58,669.03 1957.65,667.804 1961.72,666.527 
  1965.8,665.2 1969.87,663.823 1973.94,662.399 1978.02,660.929 1982.09,659.414 1986.16,657.856 1990.24,656.257 1994.31,654.618 1998.38,652.94 2002.46,651.226 
  2006.53,649.477 2010.6,647.695 2014.68,645.882 2018.75,644.039 2022.82,642.168 2026.9,640.272 2030.97,638.351 2035.04,636.408 2039.12,634.446 2043.19,632.466 
  2047.26,630.469 2051.34,628.458 2055.41,626.435 2059.48,624.402 2063.56,622.361 2067.63,620.314 2071.7,618.263 2075.78,616.21 2079.85,614.157 2083.92,612.106 
  2087.99,610.06 2092.07,608.02 2096.14,605.988 2100.21,603.967 2104.29,601.958 2108.36,599.963 2112.43,597.985 2116.51,596.025 2120.58,594.086 2124.65,592.169 
  2128.73,590.276 2132.8,588.409 2136.87,586.57 2140.95,584.761 2145.02,582.984 2149.09,581.24 2153.17,579.531 2157.24,577.859 2161.31,576.225 2165.39,574.632 
  2169.46,573.08 2173.53,571.572 2177.61,570.109 2181.68,568.692 2185.75,567.322 2189.83,566.002 2193.9,564.732 2197.97,563.513 2202.05,562.348 2206.12,561.237 
  2210.19,560.18 2214.27,559.18 2218.34,558.237 2222.41,557.353 2226.49,556.527 2230.56,555.762 2234.63,555.056 2238.71,554.413 2242.78,553.831 2246.85,553.311 
  2250.92,552.855 2255,552.463 2259.07,552.135 2263.14,551.87 2267.22,551.67 2271.29,551.535 2275.36,551.465 2279.44,551.46 2283.51,551.52 2287.58,551.645 
  2291.66,551.834 
  "/>
<polyline clip-path="url(#clip782)" style="stroke:#e26f46; stroke-linecap:round; stroke-linejoin:round; stroke-width:4; stroke-opacity:1; fill:none" points="
  255.035,735.102 259.108,728.627 263.181,722.162 267.254,715.709 271.328,709.276 275.401,702.868 279.474,696.49 283.547,690.15 287.621,683.853 291.694,677.608 
  295.767,671.421 299.84,665.299 303.914,659.246 307.987,653.268 312.06,647.372 316.133,641.565 320.207,635.85 324.28,630.234 328.353,624.724 332.426,619.324 
  336.5,614.039 340.573,608.875 344.646,603.837 348.719,598.931 352.793,594.16 356.866,589.53 360.939,585.047 365.012,580.711 369.086,576.529 373.159,572.504 
  377.232,568.641 381.305,564.946 385.379,561.421 389.452,558.072 393.525,554.894 397.598,551.896 401.671,549.081 405.745,546.453 409.818,544.015 413.891,541.77 
  417.964,539.717 422.038,537.858 426.111,536.196 430.184,534.733 434.257,533.472 438.331,532.414 442.404,531.559 446.477,530.907 450.55,530.459 454.624,530.216 
  458.697,530.179 462.77,530.347 466.843,530.72 470.917,531.298 474.99,532.08 479.063,533.065 483.136,534.252 487.21,535.641 491.283,537.229 495.356,539.014 
  499.429,540.997 503.503,543.173 507.576,545.542 511.649,548.101 515.722,550.846 519.796,553.775 523.869,556.886 527.942,560.176 532.015,563.641 536.089,567.277 
  540.162,571.081 544.235,575.049 548.308,579.177 552.382,583.461 556.455,587.898 560.528,592.481 564.601,597.208 568.675,602.072 572.748,607.069 576.821,612.193 
  580.894,617.442 584.968,622.809 589.041,628.288 593.114,633.873 597.187,639.56 601.261,645.342 605.334,651.214 609.407,657.171 613.48,663.206 617.553,669.313 
  621.627,675.485 625.7,681.716 629.773,688 633.846,694.334 637.92,700.708 641.993,707.116 646.066,713.553 650.139,720.01 654.213,726.482 658.286,732.963 
  662.359,739.447 666.432,745.927 670.506,752.396 674.579,758.848 678.652,765.274 682.725,771.67 686.799,778.032 690.872,784.351 694.945,790.62 699.018,796.834 
  703.092,802.985 707.165,809.068 711.238,815.077 715.311,821.007 719.385,826.852 723.458,832.604 727.531,838.259 731.604,843.81 735.678,849.251 739.751,854.58 
  743.824,859.79 747.897,864.874 751.971,869.829 756.044,874.649 760.117,879.328 764.19,883.863 768.264,888.25 772.337,892.485 776.41,896.562 780.483,900.477 
  784.557,904.226 788.63,907.805 792.703,911.212 796.776,914.444 800.85,917.496 804.923,920.366 808.996,923.049 813.069,925.545 817.142,927.849 821.216,929.962 
  825.289,931.88 829.362,933.601 833.435,935.123 837.509,936.445 841.582,937.565 845.655,938.483 849.728,939.197 853.802,939.708 857.875,940.013 861.948,940.114 
  866.021,940.009 870.095,939.699 874.168,939.184 878.241,938.466 882.314,937.544 886.388,936.419 890.461,935.093 894.534,933.566 898.607,931.841 902.681,929.92 
  906.754,927.803 910.827,925.493 914.9,922.993 918.974,920.305 923.047,917.432 927.12,914.376 931.193,911.14 935.267,907.728 939.34,904.144 943.413,900.391 
  947.486,896.472 951.56,892.392 955.633,888.154 959.706,883.763 963.779,879.223 967.853,874.539 971.926,869.715 975.999,864.758 980.072,859.67 984.146,854.456 
  988.219,849.124 992.292,843.677 996.365,838.122 1000.44,832.465 1004.51,826.71 1008.59,820.862 1012.66,814.928 1016.73,808.915 1020.8,802.827 1024.88,796.673 
  1028.95,790.458 1033.02,784.186 1037.1,777.864 1041.17,771.499 1045.24,765.099 1049.32,758.668 1053.39,752.215 1057.46,745.745 1061.54,739.262 1065.61,732.775 
  1069.68,726.291 1073.76,719.815 1077.83,713.356 1081.9,706.919 1085.98,700.509 1090.05,694.133 1094.12,687.797 1098.2,681.51 1102.27,675.276 1106.34,669.103 
  1110.42,662.996 1114.49,656.96 1118.56,651.002 1122.64,645.128 1126.71,639.344 1130.78,633.656 1134.86,628.071 1138.93,622.592 1143,617.225 1147.08,611.975 
  1151.15,606.849 1155.22,601.852 1159.3,596.988 1163.37,592.264 1167.44,587.68 1171.51,583.244 1175.59,578.96 1179.66,574.832 1183.73,570.865 1187.81,567.063 
  1191.88,563.429 1195.95,559.966 1200.03,556.677 1204.1,553.568 1208.17,550.64 1212.25,547.897 1216.32,545.343 1220.39,542.977 1224.47,540.802 1228.54,538.823 
  1232.61,537.04 1236.69,535.455 1240.76,534.071 1244.83,532.887 1248.91,531.905 1252.98,531.127 1257.05,530.553 1261.13,530.183 1265.2,530.019 1269.27,530.06 
  1273.35,530.306 1277.42,530.757 1281.49,531.412 1285.57,532.271 1289.64,533.334 1293.71,534.598 1297.79,536.063 1301.86,537.726 1305.93,539.588 1310.01,541.645 
  1314.08,543.896 1318.15,546.337 1322.22,548.968 1326.3,551.785 1330.37,554.786 1334.44,557.967 1338.52,561.326 1342.59,564.858 1346.66,568.56 1350.74,572.429 
  1354.81,576.461 1358.88,580.653 1362.96,584.998 1367.03,589.494 1371.1,594.135 1375.18,598.917 1379.25,603.836 1383.32,608.886 1387.4,614.063 1391.47,619.361 
  1395.54,624.775 1399.62,630.298 1403.69,635.926 1407.76,641.654 1411.84,647.477 1415.91,653.387 1419.98,659.378 1424.06,665.445 1428.13,671.581 1432.2,677.781 
  1436.28,684.039 1440.35,690.348 1444.42,696.703 1448.5,703.095 1452.57,709.519 1456.64,715.967 1460.72,722.437 1464.79,728.92 1468.86,735.408 1472.93,741.896 
  1477.01,748.377 1481.08,754.844 1485.15,761.292 1489.23,767.714 1493.3,774.105 1497.37,780.456 1501.45,786.761 1505.52,793.014 1509.59,799.208 1513.67,805.34 
  1517.74,811.402 1521.81,817.387 1525.89,823.29 1529.96,829.105 1534.03,834.824 1538.11,840.444 1542.18,845.96 1546.25,851.365 1550.33,856.654 1554.4,861.821 
  1558.47,866.86 1562.55,871.767 1566.62,876.538 1570.69,881.169 1574.77,885.653 1578.84,889.987 1582.91,894.165 1586.99,898.183 1591.06,902.038 1595.13,905.728 
  1599.21,909.246 1603.28,912.591 1607.35,915.757 1611.43,918.743 1615.5,921.544 1619.57,924.159 1623.65,926.586 1627.72,928.821 1631.79,930.862 1635.86,932.707 
  1639.94,934.354 1644.01,935.801 1648.08,937.049 1652.16,938.094 1656.23,938.936 1660.3,939.574 1664.38,940.008 1668.45,940.236 1672.52,940.258 1676.6,940.076 
  1680.67,939.689 1684.74,939.097 1688.82,938.301 1692.89,937.302 1696.96,936.1 1701.04,934.697 1705.11,933.094 1709.18,931.294 1713.26,929.297 1717.33,927.105 
  1721.4,924.722 1725.48,922.149 1729.55,919.388 1733.62,916.443 1737.7,913.316 1741.77,910.012 1745.84,906.532 1749.92,902.881 1753.99,899.062 1758.06,895.078 
  1762.14,890.934 1766.21,886.635 1770.28,882.184 1774.36,877.586 1778.43,872.846 1782.5,867.967 1786.57,862.955 1790.65,857.814 1794.72,852.552 1798.79,847.172 
  1802.87,841.681 1806.94,836.082 1811.01,830.381 1815.09,824.585 1819.16,818.7 1823.23,812.731 1827.31,806.685 1831.38,800.568 1835.45,794.384 1839.53,788.141 
  1843.6,781.844 1847.67,775.501 1851.75,769.118 1855.82,762.701 1859.89,756.256 1863.97,749.789 1868.04,743.307 1872.11,736.818 1876.19,730.326 1880.26,723.841 
  1884.33,717.367 1888.41,710.909 1892.48,704.475 1896.55,698.071 1900.63,691.705 1904.7,685.383 1908.77,679.111 1912.85,672.895 1916.92,666.74 1920.99,660.653 
  1925.07,654.641 1929.14,648.709 1933.21,642.865 1937.28,637.114 1941.36,631.459 1945.43,625.907 1949.5,620.465 1953.58,615.137 1957.65,609.93 1961.72,604.849 
  1965.8,599.899 1969.87,595.082 1973.94,590.405 1978.02,585.873 1982.09,581.49 1986.16,577.262 1990.24,573.193 1994.31,569.284 1998.38,565.541 2002.46,561.967 
  2006.53,558.567 2010.6,555.343 2014.68,552.3 2018.75,549.441 2022.82,546.765 2026.9,544.278 2030.97,541.983 2035.04,539.88 2039.12,537.973 2043.19,536.264 
  2047.26,534.754 2051.34,533.443 2055.41,532.334 2059.48,531.428 2063.56,530.726 2067.63,530.229 2071.7,529.937 2075.78,529.85 2079.85,529.968 2083.92,530.291 
  2087.99,530.82 2092.07,531.553 2096.14,532.489 2100.21,533.629 2104.29,534.97 2108.36,536.511 2112.43,538.251 2116.51,540.188 2120.58,542.32 2124.65,544.644 
  2128.73,547.16 2132.8,549.863 2136.87,552.752 2140.95,555.824 2145.02,559.075 2149.09,562.501 2153.17,566.101 2157.24,569.87 2161.31,573.804 2165.39,577.9 
  2169.46,582.153 2173.53,586.559 2177.61,591.113 2181.68,595.812 2185.75,600.65 2189.83,605.623 2193.9,610.726 2197.97,615.953 2202.05,621.298 2206.12,626.758 
  2210.19,632.327 2214.27,637.998 2218.34,643.767 2222.41,649.628 2226.49,655.573 2230.56,661.597 2234.63,667.696 2238.71,673.863 2242.78,680.091 2246.85,686.374 
  2250.92,692.705 2255,699.079 2259.07,705.488 2263.14,711.928 2267.22,718.392 2271.29,724.872 2275.36,731.362 2279.44,737.856 2283.51,744.346 2287.58,750.828 
  2291.66,757.295 
  "/>
<polyline clip-path="url(#clip782)" style="stroke:#3da44d; stroke-linecap:round; stroke-linejoin:round; stroke-width:4; stroke-opacity:1; fill:none" points="
  255.035,87.4932 259.108,87.8307 263.181,88.8074 267.254,90.4261 271.328,92.6875 275.401,95.5897 279.474,99.1318 283.547,103.309 287.621,108.12 291.694,113.558 
  295.767,119.618 299.84,126.293 303.914,133.576 307.987,141.457 312.06,149.932 316.133,158.993 320.207,168.627 324.28,178.825 328.353,189.582 332.426,200.887 
  336.5,212.72 340.573,225.077 344.646,237.947 348.719,251.315 352.793,265.162 356.866,279.482 360.939,294.26 365.012,309.475 369.086,325.11 373.159,341.155 
  377.232,357.593 381.305,374.412 385.379,391.595 389.452,409.126 393.525,426.973 397.598,445.128 401.671,463.574 405.745,482.295 409.818,501.273 413.891,520.49 
  417.964,539.922 422.038,559.548 426.111,579.352 430.184,599.314 434.257,619.414 438.331,639.63 442.404,659.944 446.477,680.337 450.55,700.787 454.624,721.272 
  458.697,741.771 462.77,762.263 466.843,782.725 470.917,803.142 474.99,823.497 479.063,843.763 483.136,863.92 487.21,883.947 491.283,903.823 495.356,923.526 
  499.429,943.048 503.503,962.362 507.576,981.449 511.649,1000.29 515.722,1018.86 519.796,1037.15 523.869,1055.13 527.942,1072.8 532.015,1090.13 536.089,1107.1 
  540.162,1123.7 544.235,1139.91 548.308,1155.72 552.382,1171.1 556.455,1186.06 560.528,1200.56 564.601,1214.59 568.675,1228.14 572.748,1241.2 576.821,1253.75 
  580.894,1265.79 584.968,1277.3 589.041,1288.26 593.114,1298.67 597.187,1308.51 601.261,1317.78 605.334,1326.47 609.407,1334.57 613.48,1342.07 617.553,1348.96 
  621.627,1355.23 625.7,1360.89 629.773,1365.91 633.846,1370.31 637.92,1374.07 641.993,1377.2 646.066,1379.68 650.139,1381.51 654.213,1382.7 658.286,1383.24 
  662.359,1383.13 666.432,1382.38 670.506,1380.98 674.579,1378.93 678.652,1376.23 682.725,1372.89 686.799,1368.92 690.872,1364.31 694.945,1359.07 699.018,1353.21 
  703.092,1346.73 707.165,1339.64 711.238,1331.94 715.311,1323.64 719.385,1314.76 723.458,1305.29 727.531,1295.26 731.604,1284.66 735.678,1273.52 739.751,1261.83 
  743.824,1249.62 747.897,1236.9 751.971,1223.67 756.044,1209.95 760.117,1195.76 764.19,1181.1 768.264,1166 772.337,1150.47 776.41,1134.52 780.483,1118.17 
  784.557,1101.45 788.63,1084.35 792.703,1066.9 796.776,1049.12 800.85,1031.03 804.923,1012.64 808.996,993.971 813.069,975.046 817.142,955.882 821.216,936.493 
  825.289,916.901 829.362,897.128 833.435,877.193 837.509,857.118 841.582,836.924 845.655,816.623 849.728,796.239 853.802,775.793 857.875,755.307 861.948,734.803 
  866.021,714.3 870.095,693.82 874.168,673.375 878.241,652.992 882.314,632.691 886.388,612.493 890.461,592.419 894.534,572.491 898.607,552.723 902.681,533.134 
  906.754,513.747 910.827,494.581 914.9,475.658 918.974,456.996 923.047,438.616 927.12,420.524 931.193,402.748 935.267,385.304 939.34,368.21 943.413,351.486 
  947.486,335.148 951.56,319.208 955.633,303.681 959.706,288.585 963.779,273.936 967.853,259.75 971.926,246.041 975.999,232.825 980.072,220.105 984.146,207.9 
  988.219,196.222 992.292,185.084 996.365,174.498 1000.44,164.475 1004.51,155.022 1008.59,146.146 1012.66,137.86 1016.73,130.171 1020.8,123.088 1024.88,116.619 
  1028.95,110.77 1033.02,105.543 1037.1,100.946 1041.17,96.9824 1045.24,93.6581 1049.32,90.9761 1053.39,88.9397 1057.46,87.5503 1061.54,86.8068 1065.61,86.7119 
  1069.68,87.266 1073.76,88.4685 1077.83,90.3184 1081.9,92.8142 1085.98,95.9521 1090.05,99.7292 1094.12,104.142 1098.2,109.186 1102.27,114.857 1106.34,121.148 
  1110.42,128.054 1114.49,135.568 1118.56,143.681 1122.64,152.387 1126.71,161.675 1130.78,171.537 1134.86,181.962 1138.93,192.941 1143,204.464 1147.08,216.518 
  1151.15,229.091 1155.22,242.17 1159.3,255.741 1163.37,269.791 1167.44,284.309 1171.51,299.279 1175.59,314.685 1179.66,330.511 1183.73,346.741 1187.81,363.358 
  1191.88,380.349 1195.95,397.697 1200.03,415.383 1204.1,433.388 1208.17,451.695 1212.25,470.283 1216.32,489.135 1220.39,508.238 1224.47,527.568 1228.54,547.106 
  1232.61,566.832 1236.69,586.725 1240.76,606.764 1244.83,626.932 1248.91,647.213 1252.98,667.582 1257.05,688.018 1261.13,708.501 1265.2,729.008 1269.27,749.519 
  1273.35,770.02 1277.42,790.488 1281.49,810.901 1285.57,831.237 1289.64,851.476 1293.71,871.596 1297.79,891.579 1301.86,911.411 1305.93,931.066 1310.01,950.526 
  1314.08,969.769 1318.15,988.775 1322.22,1007.53 1326.3,1026.01 1330.37,1044.2 1334.44,1062.08 1338.52,1079.64 1342.59,1096.85 1346.66,1113.69 1350.74,1130.16 
  1354.81,1146.23 1358.88,1161.9 1362.96,1177.14 1367.03,1191.93 1371.1,1206.27 1375.18,1220.13 1379.25,1233.51 1383.32,1246.39 1387.4,1258.76 1391.47,1270.61 
  1395.54,1281.92 1399.62,1292.68 1403.69,1302.89 1407.76,1312.52 1411.84,1321.59 1415.91,1330.06 1419.98,1337.94 1424.06,1345.21 1428.13,1351.88 1432.2,1357.92 
  1436.28,1363.35 1440.35,1368.14 1444.42,1372.31 1448.5,1375.83 1452.57,1378.71 1456.64,1380.95 1460.72,1382.54 1464.79,1383.49 1468.86,1383.79 1472.93,1383.43 
  1477.01,1382.43 1481.08,1380.78 1485.15,1378.49 1489.23,1375.55 1493.3,1371.97 1497.37,1367.75 1501.45,1362.9 1505.52,1357.42 1509.59,1351.32 1513.67,1344.6 
  1517.74,1337.28 1521.81,1329.35 1525.89,1320.82 1529.96,1311.71 1534.03,1302.02 1538.11,1291.77 1542.18,1280.95 1546.25,1269.6 1550.33,1257.7 1554.4,1245.28 
  1558.47,1232.36 1562.55,1218.93 1566.62,1205.02 1570.69,1190.64 1574.77,1175.81 1578.84,1160.53 1582.91,1144.83 1586.99,1128.72 1591.06,1112.21 1595.13,1095.33 
  1599.21,1078.08 1603.28,1060.49 1607.35,1042.58 1611.43,1024.36 1615.5,1005.85 1619.57,987.069 1623.65,968.032 1627.72,948.763 1631.79,929.28 1635.86,909.604 
  1639.94,889.756 1644.01,869.754 1648.08,849.612 1652.16,829.355 1656.23,809.003 1660.3,788.578 1664.38,768.102 1668.45,747.594 1672.52,727.073 1676.6,706.556 
  1680.67,686.066 1684.74,665.627 1688.82,645.257 1692.89,624.98 1696.96,604.816 1701.04,584.776 1705.11,564.885 1709.18,545.165 1713.26,525.635 1717.33,506.316 
  1721.4,487.229 1725.48,468.39 1729.55,449.812 1733.62,431.52 1737.7,413.531 1741.77,395.865 1745.84,378.541 1749.92,361.576 1753.99,344.98 1758.06,328.773 
  1762.14,312.972 1766.21,297.594 1770.28,282.656 1774.36,268.172 1778.43,254.156 1782.5,240.616 1786.57,227.571 1790.65,215.033 1794.72,203.017 1798.79,191.535 
  1802.87,180.599 1806.94,170.215 1811.01,160.394 1815.09,151.148 1819.16,142.487 1823.23,134.42 1827.31,126.955 1831.38,120.1 1835.45,113.856 1839.53,108.234 
  1843.6,103.24 1847.67,98.8776 1851.75,95.153 1855.82,92.0701 1859.89,89.6296 1863.97,87.8335 1868.04,86.6851 1872.11,86.1857 1876.19,86.3359 1880.26,87.136 
  1884.33,88.5851 1888.41,90.6797 1892.48,93.4191 1896.55,96.8006 1900.63,100.821 1904.7,105.476 1908.77,110.762 1912.85,116.672 1916.92,123.201 1920.99,130.342 
  1925.07,138.089 1929.14,146.432 1933.21,155.365 1937.28,164.877 1941.36,174.961 1945.43,185.606 1949.5,196.801 1953.58,208.534 1957.65,220.794 1961.72,233.567 
  1965.8,246.843 1969.87,260.609 1973.94,274.85 1978.02,289.552 1982.09,304.699 1986.16,320.276 1990.24,336.266 1994.31,352.658 1998.38,369.434 2002.46,386.576 
  2006.53,404.067 2010.6,421.887 2014.68,440.02 2018.75,458.447 2022.82,477.156 2026.9,496.123 2030.97,515.329 2035.04,534.754 2039.12,554.378 2043.19,574.18 
  2047.26,594.147 2051.34,614.258 2055.41,634.489 2059.48,654.821 2063.56,675.232 2067.63,695.7 2071.7,716.207 2075.78,736.738 2079.85,757.269 2083.92,777.777 
  2087.99,798.241 2092.07,818.641 2096.14,838.954 2100.21,859.166 2104.29,879.258 2108.36,899.205 2112.43,918.988 2116.51,938.586 2120.58,957.978 2124.65,977.144 
  2128.73,996.075 2132.8,1014.75 2136.87,1033.14 2140.95,1051.23 2145.02,1069 2149.09,1086.44 2153.17,1103.52 2157.24,1120.25 2161.31,1136.58 2165.39,1152.52 
  2169.46,1168.03 2173.53,1183.12 2177.61,1197.75 2181.68,1211.92 2185.75,1225.62 2189.83,1238.82 2193.9,1251.52 2197.97,1263.71 2202.05,1275.36 2206.12,1286.47 
  2210.19,1297.03 2214.27,1307.04 2218.34,1316.47 2222.41,1325.31 2226.49,1333.57 2230.56,1341.22 2234.63,1348.27 2238.71,1354.71 2242.78,1360.53 2246.85,1365.72 
  2250.92,1370.28 2255,1374.21 2259.07,1377.49 2263.14,1380.14 2267.22,1382.13 2271.29,1383.48 2275.36,1384.19 2279.44,1384.24 2283.51,1383.64 2287.58,1382.39 
  2291.66,1380.5 
  "/>
<path clip-path="url(#clip780)" d="
M1557.04 300.469 L2280.8 300.469 L2280.8 93.1086 L1557.04 93.1086  Z
  " fill="#ffffff" fill-rule="evenodd" fill-opacity="1"/>
<polyline clip-path="url(#clip780)" style="stroke:#000000; stroke-linecap:round; stroke-linejoin:round; stroke-width:4; stroke-opacity:1; fill:none" points="
  1557.04,300.469 2280.8,300.469 2280.8,93.1086 1557.04,93.1086 1557.04,300.469 
  "/>
<polyline clip-path="url(#clip780)" style="stroke:#009af9; stroke-linecap:round; stroke-linejoin:round; stroke-width:4; stroke-opacity:1; fill:none" points="
  1581.03,144.949 1724.95,144.949 
  "/>
<path clip-path="url(#clip780)" d="M1769.28 141.28 Q1770.88 138.409 1773.1 137.044 Q1775.32 135.678 1778.33 135.678 Q1782.38 135.678 1784.58 138.525 Q1786.78 141.349 1786.78 146.581 L1786.78 162.229 L1782.5 162.229 L1782.5 146.719 Q1782.5 142.993 1781.18 141.187 Q1779.86 139.382 1777.15 139.382 Q1773.84 139.382 1771.92 141.581 Q1770 143.78 1770 147.576 L1770 162.229 L1765.72 162.229 L1765.72 146.719 Q1765.72 142.969 1764.4 141.187 Q1763.08 139.382 1760.32 139.382 Q1757.06 139.382 1755.14 141.604 Q1753.22 143.803 1753.22 147.576 L1753.22 162.229 L1748.94 162.229 L1748.94 136.303 L1753.22 136.303 L1753.22 140.331 Q1754.68 137.946 1756.71 136.812 Q1758.75 135.678 1761.55 135.678 Q1764.37 135.678 1766.34 137.113 Q1768.33 138.548 1769.28 141.28 Z" fill="#000000" fill-rule="evenodd" fill-opacity="1" /><path clip-path="url(#clip780)" d="M1807.06 149.196 Q1801.9 149.196 1799.91 150.377 Q1797.92 151.557 1797.92 154.405 Q1797.92 156.673 1799.4 158.016 Q1800.9 159.335 1803.47 159.335 Q1807.01 159.335 1809.14 156.835 Q1811.3 154.312 1811.3 150.145 L1811.3 149.196 L1807.06 149.196 M1815.56 147.437 L1815.56 162.229 L1811.3 162.229 L1811.3 158.293 Q1809.84 160.655 1807.66 161.789 Q1805.49 162.9 1802.34 162.9 Q1798.36 162.9 1796 160.678 Q1793.66 158.432 1793.66 154.682 Q1793.66 150.307 1796.57 148.085 Q1799.51 145.863 1805.32 145.863 L1811.3 145.863 L1811.3 145.446 Q1811.3 142.507 1809.35 140.909 Q1807.43 139.289 1803.93 139.289 Q1801.71 139.289 1799.61 139.821 Q1797.5 140.354 1795.56 141.419 L1795.56 137.483 Q1797.89 136.581 1800.09 136.141 Q1802.29 135.678 1804.37 135.678 Q1810 135.678 1812.78 138.594 Q1815.56 141.511 1815.56 147.437 Z" fill="#000000" fill-rule="evenodd" fill-opacity="1" /><path clip-path="url(#clip780)" d="M1840.86 137.067 L1840.86 141.094 Q1839.05 140.169 1837.11 139.706 Q1835.16 139.243 1833.08 139.243 Q1829.91 139.243 1828.31 140.215 Q1826.74 141.187 1826.74 143.131 Q1826.74 144.613 1827.87 145.469 Q1829 146.303 1832.43 147.067 L1833.89 147.391 Q1838.43 148.363 1840.32 150.145 Q1842.24 151.905 1842.24 155.076 Q1842.24 158.687 1839.37 160.793 Q1836.53 162.9 1831.53 162.9 Q1829.44 162.9 1827.18 162.483 Q1824.93 162.09 1822.43 161.28 L1822.43 156.881 Q1824.79 158.108 1827.08 158.733 Q1829.37 159.335 1831.62 159.335 Q1834.63 159.335 1836.25 158.317 Q1837.87 157.275 1837.87 155.4 Q1837.87 153.664 1836.69 152.738 Q1835.53 151.812 1831.57 150.956 L1830.09 150.608 Q1826.13 149.775 1824.37 148.062 Q1822.62 146.326 1822.62 143.317 Q1822.62 139.659 1825.21 137.669 Q1827.8 135.678 1832.57 135.678 Q1834.93 135.678 1837.01 136.025 Q1839.1 136.372 1840.86 137.067 Z" fill="#000000" fill-rule="evenodd" fill-opacity="1" /><path clip-path="url(#clip780)" d="M1865.55 137.067 L1865.55 141.094 Q1863.75 140.169 1861.8 139.706 Q1859.86 139.243 1857.78 139.243 Q1854.61 139.243 1853.01 140.215 Q1851.43 141.187 1851.43 143.131 Q1851.43 144.613 1852.57 145.469 Q1853.7 146.303 1857.13 147.067 L1858.59 147.391 Q1863.12 148.363 1865.02 150.145 Q1866.94 151.905 1866.94 155.076 Q1866.94 158.687 1864.07 160.793 Q1861.23 162.9 1856.23 162.9 Q1854.14 162.9 1851.87 162.483 Q1849.63 162.09 1847.13 161.28 L1847.13 156.881 Q1849.49 158.108 1851.78 158.733 Q1854.07 159.335 1856.32 159.335 Q1859.33 159.335 1860.95 158.317 Q1862.57 157.275 1862.57 155.4 Q1862.57 153.664 1861.39 152.738 Q1860.23 151.812 1856.27 150.956 L1854.79 150.608 Q1850.83 149.775 1849.07 148.062 Q1847.31 146.326 1847.31 143.317 Q1847.31 139.659 1849.91 137.669 Q1852.5 135.678 1857.27 135.678 Q1859.63 135.678 1861.71 136.025 Q1863.8 136.372 1865.55 137.067 Z" fill="#000000" fill-rule="evenodd" fill-opacity="1" /><path clip-path="url(#clip780)" d="M1874.33 156.349 L1879.21 156.349 L1879.21 162.229 L1874.33 162.229 L1874.33 156.349 Z" fill="#000000" fill-rule="evenodd" fill-opacity="1" /><path clip-path="url(#clip780)" d="M1905.32 137.067 L1905.32 141.094 Q1903.52 140.169 1901.57 139.706 Q1899.63 139.243 1897.55 139.243 Q1894.37 139.243 1892.78 140.215 Q1891.2 141.187 1891.2 143.131 Q1891.2 144.613 1892.34 145.469 Q1893.47 146.303 1896.9 147.067 L1898.36 147.391 Q1902.89 148.363 1904.79 150.145 Q1906.71 151.905 1906.71 155.076 Q1906.71 158.687 1903.84 160.793 Q1900.99 162.9 1895.99 162.9 Q1893.91 162.9 1891.64 162.483 Q1889.4 162.09 1886.9 161.28 L1886.9 156.881 Q1889.26 158.108 1891.55 158.733 Q1893.84 159.335 1896.09 159.335 Q1899.1 159.335 1900.72 158.317 Q1902.34 157.275 1902.34 155.4 Q1902.34 153.664 1901.16 152.738 Q1900 151.812 1896.04 150.956 L1894.56 150.608 Q1890.6 149.775 1888.84 148.062 Q1887.08 146.326 1887.08 143.317 Q1887.08 139.659 1889.68 137.669 Q1892.27 135.678 1897.04 135.678 Q1899.4 135.678 1901.48 136.025 Q1903.56 136.372 1905.32 137.067 Z" fill="#000000" fill-rule="evenodd" fill-opacity="1" /><path clip-path="url(#clip780)" d="M1938.8 126.257 Q1935.69 131.581 1934.19 136.789 Q1932.68 141.997 1932.68 147.344 Q1932.68 152.692 1934.19 157.946 Q1935.72 163.178 1938.8 168.479 L1935.09 168.479 Q1931.62 163.039 1929.88 157.784 Q1928.17 152.53 1928.17 147.344 Q1928.17 142.182 1929.88 136.951 Q1931.6 131.72 1935.09 126.257 L1938.8 126.257 Z" fill="#000000" fill-rule="evenodd" fill-opacity="1" /><path clip-path="url(#clip780)" d="M1961.83 143.594 Q1965.18 144.312 1967.06 146.581 Q1968.96 148.849 1968.96 152.182 Q1968.96 157.298 1965.44 160.099 Q1961.92 162.9 1955.44 162.9 Q1953.26 162.9 1950.95 162.46 Q1948.66 162.043 1946.2 161.187 L1946.2 156.673 Q1948.15 157.807 1950.46 158.386 Q1952.78 158.965 1955.3 158.965 Q1959.7 158.965 1961.99 157.229 Q1964.3 155.493 1964.3 152.182 Q1964.3 149.127 1962.15 147.414 Q1960.02 145.678 1956.2 145.678 L1952.17 145.678 L1952.17 141.835 L1956.39 141.835 Q1959.84 141.835 1961.67 140.469 Q1963.49 139.081 1963.49 136.488 Q1963.49 133.826 1961.6 132.414 Q1959.72 130.979 1956.2 130.979 Q1954.28 130.979 1952.08 131.395 Q1949.88 131.812 1947.24 132.692 L1947.24 128.525 Q1949.91 127.784 1952.22 127.414 Q1954.56 127.044 1956.62 127.044 Q1961.94 127.044 1965.05 129.474 Q1968.15 131.882 1968.15 136.002 Q1968.15 138.872 1966.5 140.863 Q1964.86 142.831 1961.83 143.594 Z" fill="#000000" fill-rule="evenodd" fill-opacity="1" /><path clip-path="url(#clip780)" d="M1991.99 143.594 Q1995.35 144.312 1997.22 146.581 Q1999.12 148.849 1999.12 152.182 Q1999.12 157.298 1995.6 160.099 Q1992.08 162.9 1985.6 162.9 Q1983.42 162.9 1981.11 162.46 Q1978.82 162.043 1976.36 161.187 L1976.36 156.673 Q1978.31 157.807 1980.62 158.386 Q1982.94 158.965 1985.46 158.965 Q1989.86 158.965 1992.15 157.229 Q1994.47 155.493 1994.47 152.182 Q1994.47 149.127 1992.31 147.414 Q1990.18 145.678 1986.36 145.678 L1982.34 145.678 L1982.34 141.835 L1986.55 141.835 Q1990 141.835 1991.83 140.469 Q1993.66 139.081 1993.66 136.488 Q1993.66 133.826 1991.76 132.414 Q1989.88 130.979 1986.36 130.979 Q1984.44 130.979 1982.24 131.395 Q1980.05 131.812 1977.41 132.692 L1977.41 128.525 Q1980.07 127.784 1982.38 127.414 Q1984.72 127.044 1986.78 127.044 Q1992.11 127.044 1995.21 129.474 Q1998.31 131.882 1998.31 136.002 Q1998.31 138.872 1996.67 140.863 Q1995.02 142.831 1991.99 143.594 Z" fill="#000000" fill-rule="evenodd" fill-opacity="1" /><path clip-path="url(#clip780)" d="M2008.03 127.669 L2026.39 127.669 L2026.39 131.604 L2012.31 131.604 L2012.31 140.076 Q2013.33 139.729 2014.35 139.567 Q2015.37 139.382 2016.39 139.382 Q2022.17 139.382 2025.55 142.553 Q2028.93 145.724 2028.93 151.141 Q2028.93 156.719 2025.46 159.821 Q2021.99 162.9 2015.67 162.9 Q2013.49 162.9 2011.23 162.53 Q2008.98 162.159 2006.57 161.418 L2006.57 156.719 Q2008.66 157.854 2010.88 158.409 Q2013.1 158.965 2015.58 158.965 Q2019.58 158.965 2021.92 156.858 Q2024.26 154.752 2024.26 151.141 Q2024.26 147.53 2021.92 145.423 Q2019.58 143.317 2015.58 143.317 Q2013.7 143.317 2011.83 143.733 Q2009.98 144.15 2008.03 145.03 L2008.03 127.669 Z" fill="#000000" fill-rule="evenodd" fill-opacity="1" /><path clip-path="url(#clip780)" d="M2038.19 127.669 L2056.55 127.669 L2056.55 131.604 L2042.48 131.604 L2042.48 140.076 Q2043.49 139.729 2044.51 139.567 Q2045.53 139.382 2046.55 139.382 Q2052.34 139.382 2055.72 142.553 Q2059.1 145.724 2059.1 151.141 Q2059.1 156.719 2055.62 159.821 Q2052.15 162.9 2045.83 162.9 Q2043.66 162.9 2041.39 162.53 Q2039.14 162.159 2036.73 161.418 L2036.73 156.719 Q2038.82 157.854 2041.04 158.409 Q2043.26 158.965 2045.74 158.965 Q2049.74 158.965 2052.08 156.858 Q2054.42 154.752 2054.42 151.141 Q2054.42 147.53 2052.08 145.423 Q2049.74 143.317 2045.74 143.317 Q2043.86 143.317 2041.99 143.733 Q2040.14 144.15 2038.19 145.03 L2038.19 127.669 Z" fill="#000000" fill-rule="evenodd" fill-opacity="1" /><path clip-path="url(#clip780)" d="M2081.16 131.743 L2069.35 150.192 L2081.16 150.192 L2081.16 131.743 M2079.93 127.669 L2085.81 127.669 L2085.81 150.192 L2090.74 150.192 L2090.74 154.081 L2085.81 154.081 L2085.81 162.229 L2081.16 162.229 L2081.16 154.081 L2065.55 154.081 L2065.55 149.567 L2079.93 127.669 Z" fill="#000000" fill-rule="evenodd" fill-opacity="1" /><path clip-path="url(#clip780)" d="M2111.32 131.743 L2099.51 150.192 L2111.32 150.192 L2111.32 131.743 M2110.09 127.669 L2115.97 127.669 L2115.97 150.192 L2120.9 150.192 L2120.9 154.081 L2115.97 154.081 L2115.97 162.229 L2111.32 162.229 L2111.32 154.081 L2095.72 154.081 L2095.72 149.567 L2110.09 127.669 Z" fill="#000000" fill-rule="evenodd" fill-opacity="1" /><path clip-path="url(#clip780)" d="M2142.8 143.594 Q2146.16 144.312 2148.03 146.581 Q2149.93 148.849 2149.93 152.182 Q2149.93 157.298 2146.41 160.099 Q2142.89 162.9 2136.41 162.9 Q2134.23 162.9 2131.92 162.46 Q2129.63 162.043 2127.17 161.187 L2127.17 156.673 Q2129.12 157.807 2131.43 158.386 Q2133.75 158.965 2136.27 158.965 Q2140.67 158.965 2142.96 157.229 Q2145.28 155.493 2145.28 152.182 Q2145.28 149.127 2143.12 147.414 Q2140.99 145.678 2137.17 145.678 L2133.15 145.678 L2133.15 141.835 L2137.36 141.835 Q2140.81 141.835 2142.64 140.469 Q2144.47 139.081 2144.47 136.488 Q2144.47 133.826 2142.57 132.414 Q2140.69 130.979 2137.17 130.979 Q2135.25 130.979 2133.05 131.395 Q2130.85 131.812 2128.22 132.692 L2128.22 128.525 Q2130.88 127.784 2133.19 127.414 Q2135.53 127.044 2137.59 127.044 Q2142.91 127.044 2146.02 129.474 Q2149.12 131.882 2149.12 136.002 Q2149.12 138.872 2147.47 140.863 Q2145.83 142.831 2142.8 143.594 Z" fill="#000000" fill-rule="evenodd" fill-opacity="1" /><path clip-path="url(#clip780)" d="M2162.82 158.293 L2179.14 158.293 L2179.14 162.229 L2157.2 162.229 L2157.2 158.293 Q2159.86 155.539 2164.44 150.909 Q2169.05 146.256 2170.23 144.914 Q2172.47 142.391 2173.35 140.655 Q2174.26 138.895 2174.26 137.206 Q2174.26 134.451 2172.31 132.715 Q2170.39 130.979 2167.29 130.979 Q2165.09 130.979 2162.64 131.743 Q2160.21 132.507 2157.43 134.057 L2157.43 129.335 Q2160.25 128.201 2162.71 127.622 Q2165.16 127.044 2167.2 127.044 Q2172.57 127.044 2175.76 129.729 Q2178.96 132.414 2178.96 136.905 Q2178.96 139.034 2178.15 140.956 Q2177.36 142.854 2175.25 145.446 Q2174.67 146.118 2171.57 149.335 Q2168.47 152.53 2162.82 158.293 Z" fill="#000000" fill-rule="evenodd" fill-opacity="1" /><path clip-path="url(#clip780)" d="M2187.68 126.257 L2191.39 126.257 Q2194.86 131.72 2196.57 136.951 Q2198.31 142.182 2198.31 147.344 Q2198.31 152.53 2196.57 157.784 Q2194.86 163.039 2191.39 168.479 L2187.68 168.479 Q2190.76 163.178 2192.27 157.946 Q2193.79 152.692 2193.79 147.344 Q2193.79 141.997 2192.27 136.789 Q2190.76 131.581 2187.68 126.257 Z" fill="#000000" fill-rule="evenodd" fill-opacity="1" /><polyline clip-path="url(#clip780)" style="stroke:#e26f46; stroke-linecap:round; stroke-linejoin:round; stroke-width:4; stroke-opacity:1; fill:none" points="
  1581.03,196.789 1724.95,196.789 
  "/>
<path clip-path="url(#clip780)" d="M1769.28 193.12 Q1770.88 190.249 1773.1 188.884 Q1775.32 187.518 1778.33 187.518 Q1782.38 187.518 1784.58 190.365 Q1786.78 193.189 1786.78 198.421 L1786.78 214.069 L1782.5 214.069 L1782.5 198.559 Q1782.5 194.833 1781.18 193.027 Q1779.86 191.222 1777.15 191.222 Q1773.84 191.222 1771.92 193.421 Q1770 195.62 1770 199.416 L1770 214.069 L1765.72 214.069 L1765.72 198.559 Q1765.72 194.809 1764.4 193.027 Q1763.08 191.222 1760.32 191.222 Q1757.06 191.222 1755.14 193.444 Q1753.22 195.643 1753.22 199.416 L1753.22 214.069 L1748.94 214.069 L1748.94 188.143 L1753.22 188.143 L1753.22 192.171 Q1754.68 189.786 1756.71 188.652 Q1758.75 187.518 1761.55 187.518 Q1764.37 187.518 1766.34 188.953 Q1768.33 190.388 1769.28 193.12 Z" fill="#000000" fill-rule="evenodd" fill-opacity="1" /><path clip-path="url(#clip780)" d="M1807.06 201.036 Q1801.9 201.036 1799.91 202.217 Q1797.92 203.397 1797.92 206.245 Q1797.92 208.513 1799.4 209.856 Q1800.9 211.175 1803.47 211.175 Q1807.01 211.175 1809.14 208.675 Q1811.3 206.152 1811.3 201.985 L1811.3 201.036 L1807.06 201.036 M1815.56 199.277 L1815.56 214.069 L1811.3 214.069 L1811.3 210.133 Q1809.84 212.495 1807.66 213.629 Q1805.49 214.74 1802.34 214.74 Q1798.36 214.74 1796 212.518 Q1793.66 210.272 1793.66 206.522 Q1793.66 202.147 1796.57 199.925 Q1799.51 197.703 1805.32 197.703 L1811.3 197.703 L1811.3 197.286 Q1811.3 194.347 1809.35 192.749 Q1807.43 191.129 1803.93 191.129 Q1801.71 191.129 1799.61 191.661 Q1797.5 192.194 1795.56 193.259 L1795.56 189.323 Q1797.89 188.421 1800.09 187.981 Q1802.29 187.518 1804.37 187.518 Q1810 187.518 1812.78 190.434 Q1815.56 193.351 1815.56 199.277 Z" fill="#000000" fill-rule="evenodd" fill-opacity="1" /><path clip-path="url(#clip780)" d="M1840.86 188.907 L1840.86 192.934 Q1839.05 192.009 1837.11 191.546 Q1835.16 191.083 1833.08 191.083 Q1829.91 191.083 1828.31 192.055 Q1826.74 193.027 1826.74 194.971 Q1826.74 196.453 1827.87 197.309 Q1829 198.143 1832.43 198.907 L1833.89 199.231 Q1838.43 200.203 1840.32 201.985 Q1842.24 203.745 1842.24 206.916 Q1842.24 210.527 1839.37 212.633 Q1836.53 214.74 1831.53 214.74 Q1829.44 214.74 1827.18 214.323 Q1824.93 213.93 1822.43 213.12 L1822.43 208.721 Q1824.79 209.948 1827.08 210.573 Q1829.37 211.175 1831.62 211.175 Q1834.63 211.175 1836.25 210.157 Q1837.87 209.115 1837.87 207.24 Q1837.87 205.504 1836.69 204.578 Q1835.53 203.652 1831.57 202.796 L1830.09 202.448 Q1826.13 201.615 1824.37 199.902 Q1822.62 198.166 1822.62 195.157 Q1822.62 191.499 1825.21 189.509 Q1827.8 187.518 1832.57 187.518 Q1834.93 187.518 1837.01 187.865 Q1839.1 188.212 1840.86 188.907 Z" fill="#000000" fill-rule="evenodd" fill-opacity="1" /><path clip-path="url(#clip780)" d="M1865.55 188.907 L1865.55 192.934 Q1863.75 192.009 1861.8 191.546 Q1859.86 191.083 1857.78 191.083 Q1854.61 191.083 1853.01 192.055 Q1851.43 193.027 1851.43 194.971 Q1851.43 196.453 1852.57 197.309 Q1853.7 198.143 1857.13 198.907 L1858.59 199.231 Q1863.12 200.203 1865.02 201.985 Q1866.94 203.745 1866.94 206.916 Q1866.94 210.527 1864.07 212.633 Q1861.23 214.74 1856.23 214.74 Q1854.14 214.74 1851.87 214.323 Q1849.63 213.93 1847.13 213.12 L1847.13 208.721 Q1849.49 209.948 1851.78 210.573 Q1854.07 211.175 1856.32 211.175 Q1859.33 211.175 1860.95 210.157 Q1862.57 209.115 1862.57 207.24 Q1862.57 205.504 1861.39 204.578 Q1860.23 203.652 1856.27 202.796 L1854.79 202.448 Q1850.83 201.615 1849.07 199.902 Q1847.31 198.166 1847.31 195.157 Q1847.31 191.499 1849.91 189.509 Q1852.5 187.518 1857.27 187.518 Q1859.63 187.518 1861.71 187.865 Q1863.8 188.212 1865.55 188.907 Z" fill="#000000" fill-rule="evenodd" fill-opacity="1" /><path clip-path="url(#clip780)" d="M1874.33 208.189 L1879.21 208.189 L1879.21 214.069 L1874.33 214.069 L1874.33 208.189 Z" fill="#000000" fill-rule="evenodd" fill-opacity="1" /><path clip-path="url(#clip780)" d="M1885.74 188.143 L1890.25 188.143 L1898.36 209.902 L1906.46 188.143 L1910.97 188.143 L1901.25 214.069 L1895.46 214.069 L1885.74 188.143 Z" fill="#000000" fill-rule="evenodd" fill-opacity="1" /><path clip-path="url(#clip780)" d="M1942.15 178.097 Q1939.05 183.421 1937.55 188.629 Q1936.04 193.837 1936.04 199.184 Q1936.04 204.532 1937.55 209.786 Q1939.07 215.018 1942.15 220.319 L1938.45 220.319 Q1934.98 214.879 1933.24 209.624 Q1931.53 204.37 1931.53 199.184 Q1931.53 194.022 1933.24 188.791 Q1934.95 183.56 1938.45 178.097 L1942.15 178.097 Z" fill="#000000" fill-rule="evenodd" fill-opacity="1" /><path clip-path="url(#clip780)" d="M1965.18 195.434 Q1968.54 196.152 1970.42 198.421 Q1972.31 200.689 1972.31 204.022 Q1972.31 209.138 1968.8 211.939 Q1965.28 214.74 1958.8 214.74 Q1956.62 214.74 1954.3 214.3 Q1952.01 213.883 1949.56 213.027 L1949.56 208.513 Q1951.5 209.647 1953.82 210.226 Q1956.13 210.805 1958.66 210.805 Q1963.05 210.805 1965.35 209.069 Q1967.66 207.333 1967.66 204.022 Q1967.66 200.967 1965.51 199.254 Q1963.38 197.518 1959.56 197.518 L1955.53 197.518 L1955.53 193.675 L1959.74 193.675 Q1963.19 193.675 1965.02 192.309 Q1966.85 190.921 1966.85 188.328 Q1966.85 185.666 1964.95 184.254 Q1963.08 182.819 1959.56 182.819 Q1957.64 182.819 1955.44 183.235 Q1953.24 183.652 1950.6 184.532 L1950.6 180.365 Q1953.26 179.624 1955.58 179.254 Q1957.92 178.884 1959.98 178.884 Q1965.3 178.884 1968.4 181.314 Q1971.5 183.722 1971.5 187.842 Q1971.5 190.712 1969.86 192.703 Q1968.22 194.671 1965.18 195.434 Z" fill="#000000" fill-rule="evenodd" fill-opacity="1" /><path clip-path="url(#clip780)" d="M1995.35 195.434 Q1998.7 196.152 2000.58 198.421 Q2002.48 200.689 2002.48 204.022 Q2002.48 209.138 1998.96 211.939 Q1995.44 214.74 1988.96 214.74 Q1986.78 214.74 1984.47 214.3 Q1982.17 213.883 1979.72 213.027 L1979.72 208.513 Q1981.67 209.647 1983.98 210.226 Q1986.3 210.805 1988.82 210.805 Q1993.22 210.805 1995.51 209.069 Q1997.82 207.333 1997.82 204.022 Q1997.82 200.967 1995.67 199.254 Q1993.54 197.518 1989.72 197.518 L1985.69 197.518 L1985.69 193.675 L1989.91 193.675 Q1993.36 193.675 1995.18 192.309 Q1997.01 190.921 1997.01 188.328 Q1997.01 185.666 1995.11 184.254 Q1993.24 182.819 1989.72 182.819 Q1987.8 182.819 1985.6 183.235 Q1983.4 183.652 1980.76 184.532 L1980.76 180.365 Q1983.42 179.624 1985.74 179.254 Q1988.08 178.884 1990.14 178.884 Q1995.46 178.884 1998.56 181.314 Q2001.67 183.722 2001.67 187.842 Q2001.67 190.712 2000.02 192.703 Q1998.38 194.671 1995.35 195.434 Z" fill="#000000" fill-rule="evenodd" fill-opacity="1" /><path clip-path="url(#clip780)" d="M2011.39 179.509 L2029.74 179.509 L2029.74 183.444 L2015.67 183.444 L2015.67 191.916 Q2016.69 191.569 2017.71 191.407 Q2018.73 191.222 2019.74 191.222 Q2025.53 191.222 2028.91 194.393 Q2032.29 197.564 2032.29 202.981 Q2032.29 208.559 2028.82 211.661 Q2025.35 214.74 2019.03 214.74 Q2016.85 214.74 2014.58 214.37 Q2012.34 213.999 2009.93 213.258 L2009.93 208.559 Q2012.01 209.694 2014.23 210.249 Q2016.46 210.805 2018.93 210.805 Q2022.94 210.805 2025.28 208.698 Q2027.61 206.592 2027.61 202.981 Q2027.61 199.37 2025.28 197.263 Q2022.94 195.157 2018.93 195.157 Q2017.06 195.157 2015.18 195.573 Q2013.33 195.99 2011.39 196.87 L2011.39 179.509 Z" fill="#000000" fill-rule="evenodd" fill-opacity="1" /><path clip-path="url(#clip780)" d="M2041.55 179.509 L2059.91 179.509 L2059.91 183.444 L2045.83 183.444 L2045.83 191.916 Q2046.85 191.569 2047.87 191.407 Q2048.89 191.222 2049.91 191.222 Q2055.69 191.222 2059.07 194.393 Q2062.45 197.564 2062.45 202.981 Q2062.45 208.559 2058.98 211.661 Q2055.51 214.74 2049.19 214.74 Q2047.01 214.74 2044.74 214.37 Q2042.5 213.999 2040.09 213.258 L2040.09 208.559 Q2042.17 209.694 2044.4 210.249 Q2046.62 210.805 2049.1 210.805 Q2053.1 210.805 2055.44 208.698 Q2057.78 206.592 2057.78 202.981 Q2057.78 199.37 2055.44 197.263 Q2053.1 195.157 2049.1 195.157 Q2047.22 195.157 2045.35 195.573 Q2043.49 195.99 2041.55 196.87 L2041.55 179.509 Z" fill="#000000" fill-rule="evenodd" fill-opacity="1" /><path clip-path="url(#clip780)" d="M2084.51 183.583 L2072.71 202.032 L2084.51 202.032 L2084.51 183.583 M2083.29 179.509 L2089.16 179.509 L2089.16 202.032 L2094.1 202.032 L2094.1 205.921 L2089.16 205.921 L2089.16 214.069 L2084.51 214.069 L2084.51 205.921 L2068.91 205.921 L2068.91 201.407 L2083.29 179.509 Z" fill="#000000" fill-rule="evenodd" fill-opacity="1" /><path clip-path="url(#clip780)" d="M2114.67 183.583 L2102.87 202.032 L2114.67 202.032 L2114.67 183.583 M2113.45 179.509 L2119.33 179.509 L2119.33 202.032 L2124.26 202.032 L2124.26 205.921 L2119.33 205.921 L2119.33 214.069 L2114.67 214.069 L2114.67 205.921 L2099.07 205.921 L2099.07 201.407 L2113.45 179.509 Z" fill="#000000" fill-rule="evenodd" fill-opacity="1" /><path clip-path="url(#clip780)" d="M2146.16 195.434 Q2149.51 196.152 2151.39 198.421 Q2153.28 200.689 2153.28 204.022 Q2153.28 209.138 2149.77 211.939 Q2146.25 214.74 2139.77 214.74 Q2137.59 214.74 2135.28 214.3 Q2132.98 213.883 2130.53 213.027 L2130.53 208.513 Q2132.47 209.647 2134.79 210.226 Q2137.1 210.805 2139.63 210.805 Q2144.03 210.805 2146.32 209.069 Q2148.63 207.333 2148.63 204.022 Q2148.63 200.967 2146.48 199.254 Q2144.35 197.518 2140.53 197.518 L2136.5 197.518 L2136.5 193.675 L2140.72 193.675 Q2144.16 193.675 2145.99 192.309 Q2147.82 190.921 2147.82 188.328 Q2147.82 185.666 2145.92 184.254 Q2144.05 182.819 2140.53 182.819 Q2138.61 182.819 2136.41 183.235 Q2134.21 183.652 2131.57 184.532 L2131.57 180.365 Q2134.23 179.624 2136.55 179.254 Q2138.89 178.884 2140.95 178.884 Q2146.27 178.884 2149.37 181.314 Q2152.47 183.722 2152.47 187.842 Q2152.47 190.712 2150.83 192.703 Q2149.19 194.671 2146.16 195.434 Z" fill="#000000" fill-rule="evenodd" fill-opacity="1" /><path clip-path="url(#clip780)" d="M2176.32 195.434 Q2179.67 196.152 2181.55 198.421 Q2183.45 200.689 2183.45 204.022 Q2183.45 209.138 2179.93 211.939 Q2176.41 214.74 2169.93 214.74 Q2167.75 214.74 2165.44 214.3 Q2163.15 213.883 2160.69 213.027 L2160.69 208.513 Q2162.64 209.647 2164.95 210.226 Q2167.27 210.805 2169.79 210.805 Q2174.19 210.805 2176.48 209.069 Q2178.79 207.333 2178.79 204.022 Q2178.79 200.967 2176.64 199.254 Q2174.51 197.518 2170.69 197.518 L2166.66 197.518 L2166.66 193.675 L2170.88 193.675 Q2174.33 193.675 2176.16 192.309 Q2177.98 190.921 2177.98 188.328 Q2177.98 185.666 2176.09 184.254 Q2174.21 182.819 2170.69 182.819 Q2168.77 182.819 2166.57 183.235 Q2164.37 183.652 2161.73 184.532 L2161.73 180.365 Q2164.4 179.624 2166.71 179.254 Q2169.05 178.884 2171.11 178.884 Q2176.43 178.884 2179.53 181.314 Q2182.64 183.722 2182.64 187.842 Q2182.64 190.712 2180.99 192.703 Q2179.35 194.671 2176.32 195.434 Z" fill="#000000" fill-rule="evenodd" fill-opacity="1" /><path clip-path="url(#clip780)" d="M2191.04 178.097 L2194.74 178.097 Q2198.22 183.56 2199.93 188.791 Q2201.66 194.022 2201.66 199.184 Q2201.66 204.37 2199.93 209.624 Q2198.22 214.879 2194.74 220.319 L2191.04 220.319 Q2194.12 215.018 2195.62 209.786 Q2197.15 204.532 2197.15 199.184 Q2197.15 193.837 2195.62 188.629 Q2194.12 183.421 2191.04 178.097 Z" fill="#000000" fill-rule="evenodd" fill-opacity="1" /><polyline clip-path="url(#clip780)" style="stroke:#3da44d; stroke-linecap:round; stroke-linejoin:round; stroke-width:4; stroke-opacity:1; fill:none" points="
  1581.03,248.629 1724.95,248.629 
  "/>
<path clip-path="url(#clip780)" d="M1769.28 244.96 Q1770.88 242.089 1773.1 240.724 Q1775.32 239.358 1778.33 239.358 Q1782.38 239.358 1784.58 242.205 Q1786.78 245.029 1786.78 250.261 L1786.78 265.909 L1782.5 265.909 L1782.5 250.399 Q1782.5 246.673 1781.18 244.867 Q1779.86 243.062 1777.15 243.062 Q1773.84 243.062 1771.92 245.261 Q1770 247.46 1770 251.256 L1770 265.909 L1765.72 265.909 L1765.72 250.399 Q1765.72 246.649 1764.4 244.867 Q1763.08 243.062 1760.32 243.062 Q1757.06 243.062 1755.14 245.284 Q1753.22 247.483 1753.22 251.256 L1753.22 265.909 L1748.94 265.909 L1748.94 239.983 L1753.22 239.983 L1753.22 244.011 Q1754.68 241.626 1756.71 240.492 Q1758.75 239.358 1761.55 239.358 Q1764.37 239.358 1766.34 240.793 Q1768.33 242.228 1769.28 244.96 Z" fill="#000000" fill-rule="evenodd" fill-opacity="1" /><path clip-path="url(#clip780)" d="M1807.06 252.876 Q1801.9 252.876 1799.91 254.057 Q1797.92 255.237 1797.92 258.085 Q1797.92 260.353 1799.4 261.696 Q1800.9 263.015 1803.47 263.015 Q1807.01 263.015 1809.14 260.515 Q1811.3 257.992 1811.3 253.825 L1811.3 252.876 L1807.06 252.876 M1815.56 251.117 L1815.56 265.909 L1811.3 265.909 L1811.3 261.973 Q1809.84 264.335 1807.66 265.469 Q1805.49 266.58 1802.34 266.58 Q1798.36 266.58 1796 264.358 Q1793.66 262.112 1793.66 258.362 Q1793.66 253.987 1796.57 251.765 Q1799.51 249.543 1805.32 249.543 L1811.3 249.543 L1811.3 249.126 Q1811.3 246.187 1809.35 244.589 Q1807.43 242.969 1803.93 242.969 Q1801.71 242.969 1799.61 243.501 Q1797.5 244.034 1795.56 245.099 L1795.56 241.163 Q1797.89 240.261 1800.09 239.821 Q1802.29 239.358 1804.37 239.358 Q1810 239.358 1812.78 242.274 Q1815.56 245.191 1815.56 251.117 Z" fill="#000000" fill-rule="evenodd" fill-opacity="1" /><path clip-path="url(#clip780)" d="M1840.86 240.747 L1840.86 244.774 Q1839.05 243.849 1837.11 243.386 Q1835.16 242.923 1833.08 242.923 Q1829.91 242.923 1828.31 243.895 Q1826.74 244.867 1826.74 246.811 Q1826.74 248.293 1827.87 249.149 Q1829 249.983 1832.43 250.747 L1833.89 251.071 Q1838.43 252.043 1840.32 253.825 Q1842.24 255.585 1842.24 258.756 Q1842.24 262.367 1839.37 264.473 Q1836.53 266.58 1831.53 266.58 Q1829.44 266.58 1827.18 266.163 Q1824.93 265.77 1822.43 264.96 L1822.43 260.561 Q1824.79 261.788 1827.08 262.413 Q1829.37 263.015 1831.62 263.015 Q1834.63 263.015 1836.25 261.997 Q1837.87 260.955 1837.87 259.08 Q1837.87 257.344 1836.69 256.418 Q1835.53 255.492 1831.57 254.636 L1830.09 254.288 Q1826.13 253.455 1824.37 251.742 Q1822.62 250.006 1822.62 246.997 Q1822.62 243.339 1825.21 241.349 Q1827.8 239.358 1832.57 239.358 Q1834.93 239.358 1837.01 239.705 Q1839.1 240.052 1840.86 240.747 Z" fill="#000000" fill-rule="evenodd" fill-opacity="1" /><path clip-path="url(#clip780)" d="M1865.55 240.747 L1865.55 244.774 Q1863.75 243.849 1861.8 243.386 Q1859.86 242.923 1857.78 242.923 Q1854.61 242.923 1853.01 243.895 Q1851.43 244.867 1851.43 246.811 Q1851.43 248.293 1852.57 249.149 Q1853.7 249.983 1857.13 250.747 L1858.59 251.071 Q1863.12 252.043 1865.02 253.825 Q1866.94 255.585 1866.94 258.756 Q1866.94 262.367 1864.07 264.473 Q1861.23 266.58 1856.23 266.58 Q1854.14 266.58 1851.87 266.163 Q1849.63 265.77 1847.13 264.96 L1847.13 260.561 Q1849.49 261.788 1851.78 262.413 Q1854.07 263.015 1856.32 263.015 Q1859.33 263.015 1860.95 261.997 Q1862.57 260.955 1862.57 259.08 Q1862.57 257.344 1861.39 256.418 Q1860.23 255.492 1856.27 254.636 L1854.79 254.288 Q1850.83 253.455 1849.07 251.742 Q1847.31 250.006 1847.31 246.997 Q1847.31 243.339 1849.91 241.349 Q1852.5 239.358 1857.27 239.358 Q1859.63 239.358 1861.71 239.705 Q1863.8 240.052 1865.55 240.747 Z" fill="#000000" fill-rule="evenodd" fill-opacity="1" /><path clip-path="url(#clip780)" d="M1874.33 260.029 L1879.21 260.029 L1879.21 265.909 L1874.33 265.909 L1874.33 260.029 Z" fill="#000000" fill-rule="evenodd" fill-opacity="1" /><path clip-path="url(#clip780)" d="M1900.58 252.876 Q1895.42 252.876 1893.43 254.057 Q1891.43 255.237 1891.43 258.085 Q1891.43 260.353 1892.92 261.696 Q1894.42 263.015 1896.99 263.015 Q1900.53 263.015 1902.66 260.515 Q1904.81 257.992 1904.81 253.825 L1904.81 252.876 L1900.58 252.876 M1909.07 251.117 L1909.07 265.909 L1904.81 265.909 L1904.81 261.973 Q1903.36 264.335 1901.18 265.469 Q1899 266.58 1895.86 266.58 Q1891.87 266.58 1889.51 264.358 Q1887.18 262.112 1887.18 258.362 Q1887.18 253.987 1890.09 251.765 Q1893.03 249.543 1898.84 249.543 L1904.81 249.543 L1904.81 249.126 Q1904.81 246.187 1902.87 244.589 Q1900.95 242.969 1897.45 242.969 Q1895.23 242.969 1893.12 243.501 Q1891.02 244.034 1889.07 245.099 L1889.07 241.163 Q1891.41 240.261 1893.61 239.821 Q1895.81 239.358 1897.89 239.358 Q1903.52 239.358 1906.3 242.274 Q1909.07 245.191 1909.07 251.117 Z" fill="#000000" fill-rule="evenodd" fill-opacity="1" /><path clip-path="url(#clip780)" d="M1943.15 229.937 Q1940.05 235.261 1938.54 240.469 Q1937.04 245.677 1937.04 251.024 Q1937.04 256.372 1938.54 261.626 Q1940.07 266.858 1943.15 272.159 L1939.44 272.159 Q1935.97 266.719 1934.24 261.464 Q1932.52 256.21 1932.52 251.024 Q1932.52 245.862 1934.24 240.631 Q1935.95 235.4 1939.44 229.937 L1943.15 229.937 Z" fill="#000000" fill-rule="evenodd" fill-opacity="1" /><path clip-path="url(#clip780)" d="M1952.06 231.349 L1970.42 231.349 L1970.42 235.284 L1956.34 235.284 L1956.34 243.756 Q1957.36 243.409 1958.38 243.247 Q1959.4 243.062 1960.42 243.062 Q1966.2 243.062 1969.58 246.233 Q1972.96 249.404 1972.96 254.821 Q1972.96 260.399 1969.49 263.501 Q1966.02 266.58 1959.7 266.58 Q1957.52 266.58 1955.25 266.21 Q1953.01 265.839 1950.6 265.098 L1950.6 260.399 Q1952.68 261.534 1954.91 262.089 Q1957.13 262.645 1959.61 262.645 Q1963.61 262.645 1965.95 260.538 Q1968.29 258.432 1968.29 254.821 Q1968.29 251.21 1965.95 249.103 Q1963.61 246.997 1959.61 246.997 Q1957.73 246.997 1955.86 247.413 Q1954 247.83 1952.06 248.71 L1952.06 231.349 Z" fill="#000000" fill-rule="evenodd" fill-opacity="1" /><path clip-path="url(#clip780)" d="M1992.17 249.497 Q1988.84 249.497 1986.92 251.279 Q1985.02 253.061 1985.02 256.186 Q1985.02 259.311 1986.92 261.094 Q1988.84 262.876 1992.17 262.876 Q1995.51 262.876 1997.43 261.094 Q1999.35 259.288 1999.35 256.186 Q1999.35 253.061 1997.43 251.279 Q1995.53 249.497 1992.17 249.497 M1987.5 247.506 Q1984.49 246.765 1982.8 244.705 Q1981.13 242.645 1981.13 239.682 Q1981.13 235.538 1984.07 233.131 Q1987.04 230.724 1992.17 230.724 Q1997.34 230.724 2000.28 233.131 Q2003.22 235.538 2003.22 239.682 Q2003.22 242.645 2001.53 244.705 Q1999.86 246.765 1996.87 247.506 Q2000.25 248.293 2002.13 250.585 Q2004.03 252.876 2004.03 256.186 Q2004.03 261.21 2000.95 263.895 Q1997.89 266.58 1992.17 266.58 Q1986.46 266.58 1983.38 263.895 Q1980.32 261.21 1980.32 256.186 Q1980.32 252.876 1982.22 250.585 Q1984.12 248.293 1987.5 247.506 M1985.79 240.122 Q1985.79 242.807 1987.45 244.312 Q1989.14 245.816 1992.17 245.816 Q1995.18 245.816 1996.87 244.312 Q1998.59 242.807 1998.59 240.122 Q1998.59 237.437 1996.87 235.932 Q1995.18 234.427 1992.17 234.427 Q1989.14 234.427 1987.45 235.932 Q1985.79 237.437 1985.79 240.122 Z" fill="#000000" fill-rule="evenodd" fill-opacity="1" /><path clip-path="url(#clip780)" d="M2011.16 231.349 L2033.38 231.349 L2033.38 233.339 L2020.83 265.909 L2015.95 265.909 L2027.75 235.284 L2011.16 235.284 L2011.16 231.349 Z" fill="#000000" fill-rule="evenodd" fill-opacity="1" /><path clip-path="url(#clip780)" d="M2046.53 261.973 L2062.85 261.973 L2062.85 265.909 L2040.9 265.909 L2040.9 261.973 Q2043.56 259.219 2048.15 254.589 Q2052.75 249.936 2053.93 248.594 Q2056.18 246.071 2057.06 244.335 Q2057.96 242.575 2057.96 240.886 Q2057.96 238.131 2056.02 236.395 Q2054.1 234.659 2050.99 234.659 Q2048.79 234.659 2046.34 235.423 Q2043.91 236.187 2041.13 237.737 L2041.13 233.015 Q2043.96 231.881 2046.41 231.302 Q2048.86 230.724 2050.9 230.724 Q2056.27 230.724 2059.47 233.409 Q2062.66 236.094 2062.66 240.585 Q2062.66 242.714 2061.85 244.636 Q2061.06 246.534 2058.96 249.126 Q2058.38 249.798 2055.28 253.015 Q2052.17 256.21 2046.53 261.973 Z" fill="#000000" fill-rule="evenodd" fill-opacity="1" /><path clip-path="url(#clip780)" d="M2082.66 234.427 Q2079.05 234.427 2077.22 237.992 Q2075.41 241.534 2075.41 248.663 Q2075.41 255.77 2077.22 259.335 Q2079.05 262.876 2082.66 262.876 Q2086.29 262.876 2088.1 259.335 Q2089.93 255.77 2089.93 248.663 Q2089.93 241.534 2088.1 237.992 Q2086.29 234.427 2082.66 234.427 M2082.66 230.724 Q2088.47 230.724 2091.53 235.33 Q2094.6 239.913 2094.6 248.663 Q2094.6 257.39 2091.53 261.997 Q2088.47 266.58 2082.66 266.58 Q2076.85 266.58 2073.77 261.997 Q2070.72 257.39 2070.72 248.663 Q2070.72 239.913 2073.77 235.33 Q2076.85 230.724 2082.66 230.724 Z" fill="#000000" fill-rule="evenodd" fill-opacity="1" /><path clip-path="url(#clip780)" d="M2106.85 261.973 L2123.17 261.973 L2123.17 265.909 L2101.22 265.909 L2101.22 261.973 Q2103.89 259.219 2108.47 254.589 Q2113.08 249.936 2114.26 248.594 Q2116.5 246.071 2117.38 244.335 Q2118.29 242.575 2118.29 240.886 Q2118.29 238.131 2116.34 236.395 Q2114.42 234.659 2111.32 234.659 Q2109.12 234.659 2106.66 235.423 Q2104.23 236.187 2101.46 237.737 L2101.46 233.015 Q2104.28 231.881 2106.73 231.302 Q2109.19 230.724 2111.22 230.724 Q2116.6 230.724 2119.79 233.409 Q2122.98 236.094 2122.98 240.585 Q2122.98 242.714 2122.17 244.636 Q2121.39 246.534 2119.28 249.126 Q2118.7 249.798 2115.6 253.015 Q2112.5 256.21 2106.85 261.973 Z" fill="#000000" fill-rule="evenodd" fill-opacity="1" /><path clip-path="url(#clip780)" d="M2133.03 231.349 L2151.39 231.349 L2151.39 235.284 L2137.31 235.284 L2137.31 243.756 Q2138.33 243.409 2139.35 243.247 Q2140.37 243.062 2141.39 243.062 Q2147.17 243.062 2150.55 246.233 Q2153.93 249.404 2153.93 254.821 Q2153.93 260.399 2150.46 263.501 Q2146.99 266.58 2140.67 266.58 Q2138.49 266.58 2136.22 266.21 Q2133.98 265.839 2131.57 265.098 L2131.57 260.399 Q2133.66 261.534 2135.88 262.089 Q2138.1 262.645 2140.58 262.645 Q2144.58 262.645 2146.92 260.538 Q2149.26 258.432 2149.26 254.821 Q2149.26 251.21 2146.92 249.103 Q2144.58 246.997 2140.58 246.997 Q2138.7 246.997 2136.83 247.413 Q2134.97 247.83 2133.03 248.71 L2133.03 231.349 Z" fill="#000000" fill-rule="evenodd" fill-opacity="1" /><path clip-path="url(#clip780)" d="M2173.72 246.765 Q2170.58 246.765 2168.72 248.918 Q2166.9 251.071 2166.9 254.821 Q2166.9 258.548 2168.72 260.723 Q2170.58 262.876 2173.72 262.876 Q2176.87 262.876 2178.7 260.723 Q2180.55 258.548 2180.55 254.821 Q2180.55 251.071 2178.7 248.918 Q2176.87 246.765 2173.72 246.765 M2183.01 232.113 L2183.01 236.372 Q2181.25 235.538 2179.44 235.099 Q2177.66 234.659 2175.9 234.659 Q2171.27 234.659 2168.82 237.784 Q2166.39 240.909 2166.04 247.228 Q2167.41 245.214 2169.47 244.149 Q2171.53 243.062 2174 243.062 Q2179.21 243.062 2182.22 246.233 Q2185.25 249.381 2185.25 254.821 Q2185.25 260.145 2182.1 263.362 Q2178.96 266.58 2173.72 266.58 Q2167.73 266.58 2164.56 261.997 Q2161.39 257.39 2161.39 248.663 Q2161.39 240.469 2165.28 235.608 Q2169.16 230.724 2175.72 230.724 Q2177.47 230.724 2179.26 231.071 Q2181.06 231.418 2183.01 232.113 Z" fill="#000000" fill-rule="evenodd" fill-opacity="1" /><path clip-path="url(#clip780)" d="M2194.12 261.973 L2201.76 261.973 L2201.76 235.608 L2193.45 237.275 L2193.45 233.015 L2201.71 231.349 L2206.39 231.349 L2206.39 261.973 L2214.03 261.973 L2214.03 265.909 L2194.12 265.909 L2194.12 261.973 Z" fill="#000000" fill-rule="evenodd" fill-opacity="1" /><path clip-path="url(#clip780)" d="M2222.2 229.937 L2225.9 229.937 Q2229.37 235.4 2231.09 240.631 Q2232.82 245.862 2232.82 251.024 Q2232.82 256.21 2231.09 261.464 Q2229.37 266.719 2225.9 272.159 L2222.2 272.159 Q2225.28 266.858 2226.78 261.626 Q2228.31 256.372 2228.31 251.024 Q2228.31 245.677 2226.78 240.469 Q2225.28 235.261 2222.2 229.937 Z" fill="#000000" fill-rule="evenodd" fill-opacity="1" /></svg>
