<?xml version="1.0" encoding="utf-8"?>
<svg xmlns="http://www.w3.org/2000/svg" xmlns:xlink="http://www.w3.org/1999/xlink" width="600" height="400" viewBox="0 0 2400 1600">
<defs>
  <clipPath id="clip030">
    <rect x="0" y="0" width="2400" height="1600"/>
  </clipPath>
</defs>
<path clip-path="url(#clip030)" d="
M0 1600 L2400 1600 L2400 0 L0 0  Z
  " fill="#ffffff" fill-rule="evenodd" fill-opacity="1"/>
<defs>
  <clipPath id="clip031">
    <rect x="480" y="0" width="1681" height="1600"/>
  </clipPath>
</defs>
<path clip-path="url(#clip030)" d="
M147.478 1423.18 L2352.76 1423.18 L2352.76 47.2441 L147.478 47.2441  Z
  " fill="#ffffff" fill-rule="evenodd" fill-opacity="1"/>
<defs>
  <clipPath id="clip032">
    <rect x="147" y="47" width="2206" height="1377"/>
  </clipPath>
</defs>
<polyline clip-path="url(#clip032)" style="stroke:#000000; stroke-linecap:butt; stroke-linejoin:round; stroke-width:2; stroke-opacity:0.1; fill:none" points="
  209.891,1423.18 209.891,47.2441 
  "/>
<polyline clip-path="url(#clip032)" style="stroke:#000000; stroke-linecap:butt; stroke-linejoin:round; stroke-width:2; stroke-opacity:0.1; fill:none" points="
  625.982,1423.18 625.982,47.2441 
  "/>
<polyline clip-path="url(#clip032)" style="stroke:#000000; stroke-linecap:butt; stroke-linejoin:round; stroke-width:2; stroke-opacity:0.1; fill:none" points="
  1042.07,1423.18 1042.07,47.2441 
  "/>
<polyline clip-path="url(#clip032)" style="stroke:#000000; stroke-linecap:butt; stroke-linejoin:round; stroke-width:2; stroke-opacity:0.1; fill:none" points="
  1458.16,1423.18 1458.16,47.2441 
  "/>
<polyline clip-path="url(#clip032)" style="stroke:#000000; stroke-linecap:butt; stroke-linejoin:round; stroke-width:2; stroke-opacity:0.1; fill:none" points="
  1874.25,1423.18 1874.25,47.2441 
  "/>
<polyline clip-path="url(#clip032)" style="stroke:#000000; stroke-linecap:butt; stroke-linejoin:round; stroke-width:2; stroke-opacity:0.1; fill:none" points="
  2290.34,1423.18 2290.34,47.2441 
  "/>
<polyline clip-path="url(#clip030)" style="stroke:#000000; stroke-linecap:butt; stroke-linejoin:round; stroke-width:4; stroke-opacity:1; fill:none" points="
  147.478,1423.18 2352.76,1423.18 
  "/>
<polyline clip-path="url(#clip030)" style="stroke:#000000; stroke-linecap:butt; stroke-linejoin:round; stroke-width:4; stroke-opacity:1; fill:none" points="
  209.891,1423.18 209.891,1406.67 
  "/>
<polyline clip-path="url(#clip030)" style="stroke:#000000; stroke-linecap:butt; stroke-linejoin:round; stroke-width:4; stroke-opacity:1; fill:none" points="
  625.982,1423.18 625.982,1406.67 
  "/>
<polyline clip-path="url(#clip030)" style="stroke:#000000; stroke-linecap:butt; stroke-linejoin:round; stroke-width:4; stroke-opacity:1; fill:none" points="
  1042.07,1423.18 1042.07,1406.67 
  "/>
<polyline clip-path="url(#clip030)" style="stroke:#000000; stroke-linecap:butt; stroke-linejoin:round; stroke-width:4; stroke-opacity:1; fill:none" points="
  1458.16,1423.18 1458.16,1406.67 
  "/>
<polyline clip-path="url(#clip030)" style="stroke:#000000; stroke-linecap:butt; stroke-linejoin:round; stroke-width:4; stroke-opacity:1; fill:none" points="
  1874.25,1423.18 1874.25,1406.67 
  "/>
<polyline clip-path="url(#clip030)" style="stroke:#000000; stroke-linecap:butt; stroke-linejoin:round; stroke-width:4; stroke-opacity:1; fill:none" points="
  2290.34,1423.18 2290.34,1406.67 
  "/>
<path clip-path="url(#clip030)" d="M209.891 1452.37 Q206.28 1452.37 204.452 1455.94 Q202.646 1459.48 202.646 1466.61 Q202.646 1473.71 204.452 1477.28 Q206.28 1480.82 209.891 1480.82 Q213.526 1480.82 215.331 1477.28 Q217.16 1473.71 217.16 1466.61 Q217.16 1459.48 215.331 1455.94 Q213.526 1452.37 209.891 1452.37 M209.891 1448.67 Q215.702 1448.67 218.757 1453.27 Q221.836 1457.86 221.836 1466.61 Q221.836 1475.33 218.757 1479.94 Q215.702 1484.52 209.891 1484.52 Q204.081 1484.52 201.003 1479.94 Q197.947 1475.33 197.947 1466.61 Q197.947 1457.86 201.003 1453.27 Q204.081 1448.67 209.891 1448.67 Z" fill="#000000" fill-rule="evenodd" fill-opacity="1" /><path clip-path="url(#clip030)" d="M616.364 1479.92 L624.002 1479.92 L624.002 1453.55 L615.692 1455.22 L615.692 1450.96 L623.956 1449.29 L628.632 1449.29 L628.632 1479.92 L636.271 1479.92 L636.271 1483.85 L616.364 1483.85 L616.364 1479.92 Z" fill="#000000" fill-rule="evenodd" fill-opacity="1" /><path clip-path="url(#clip030)" d="M1036.72 1479.92 L1053.04 1479.92 L1053.04 1483.85 L1031.1 1483.85 L1031.1 1479.92 Q1033.76 1477.16 1038.34 1472.53 Q1042.95 1467.88 1044.13 1466.54 Q1046.38 1464.01 1047.26 1462.28 Q1048.16 1460.52 1048.16 1458.83 Q1048.16 1456.07 1046.22 1454.34 Q1044.29 1452.6 1041.19 1452.6 Q1038.99 1452.6 1036.54 1453.37 Q1034.11 1454.13 1031.33 1455.68 L1031.33 1450.96 Q1034.16 1449.82 1036.61 1449.25 Q1039.06 1448.67 1041.1 1448.67 Q1046.47 1448.67 1049.66 1451.35 Q1052.86 1454.04 1052.86 1458.53 Q1052.86 1460.66 1052.05 1462.58 Q1051.26 1464.48 1049.16 1467.07 Q1048.58 1467.74 1045.47 1470.96 Q1042.37 1474.15 1036.72 1479.92 Z" fill="#000000" fill-rule="evenodd" fill-opacity="1" /><path clip-path="url(#clip030)" d="M1462.41 1465.22 Q1465.77 1465.94 1467.64 1468.2 Q1469.54 1470.47 1469.54 1473.81 Q1469.54 1478.92 1466.02 1481.72 Q1462.5 1484.52 1456.02 1484.52 Q1453.84 1484.52 1451.53 1484.08 Q1449.24 1483.67 1446.78 1482.81 L1446.78 1478.3 Q1448.73 1479.43 1451.04 1480.01 Q1453.36 1480.59 1455.88 1480.59 Q1460.28 1480.59 1462.57 1478.85 Q1464.89 1477.12 1464.89 1473.81 Q1464.89 1470.75 1462.73 1469.04 Q1460.6 1467.3 1456.78 1467.3 L1452.76 1467.3 L1452.76 1463.46 L1456.97 1463.46 Q1460.42 1463.46 1462.25 1462.09 Q1464.08 1460.7 1464.08 1458.11 Q1464.08 1455.45 1462.18 1454.04 Q1460.3 1452.6 1456.78 1452.6 Q1454.86 1452.6 1452.66 1453.02 Q1450.47 1453.44 1447.83 1454.31 L1447.83 1450.15 Q1450.49 1449.41 1452.8 1449.04 Q1455.14 1448.67 1457.2 1448.67 Q1462.53 1448.67 1465.63 1451.1 Q1468.73 1453.5 1468.73 1457.63 Q1468.73 1460.5 1467.09 1462.49 Q1465.44 1464.45 1462.41 1465.22 Z" fill="#000000" fill-rule="evenodd" fill-opacity="1" /><path clip-path="url(#clip030)" d="M1877.26 1453.37 L1865.46 1471.81 L1877.26 1471.81 L1877.26 1453.37 M1876.03 1449.29 L1881.91 1449.29 L1881.91 1471.81 L1886.84 1471.81 L1886.84 1475.7 L1881.91 1475.7 L1881.91 1483.85 L1877.26 1483.85 L1877.26 1475.7 L1861.66 1475.7 L1861.66 1471.19 L1876.03 1449.29 Z" fill="#000000" fill-rule="evenodd" fill-opacity="1" /><path clip-path="url(#clip030)" d="M2280.62 1449.29 L2298.98 1449.29 L2298.98 1453.23 L2284.9 1453.23 L2284.9 1461.7 Q2285.92 1461.35 2286.94 1461.19 Q2287.96 1461 2288.98 1461 Q2294.76 1461 2298.14 1464.18 Q2301.52 1467.35 2301.52 1472.76 Q2301.52 1478.34 2298.05 1481.44 Q2294.58 1484.52 2288.26 1484.52 Q2286.08 1484.52 2283.81 1484.15 Q2281.57 1483.78 2279.16 1483.04 L2279.16 1478.34 Q2281.25 1479.48 2283.47 1480.03 Q2285.69 1480.59 2288.17 1480.59 Q2292.17 1480.59 2294.51 1478.48 Q2296.85 1476.38 2296.85 1472.76 Q2296.85 1469.15 2294.51 1467.05 Q2292.17 1464.94 2288.17 1464.94 Q2286.29 1464.94 2284.42 1465.36 Q2282.56 1465.77 2280.62 1466.65 L2280.62 1449.29 Z" fill="#000000" fill-rule="evenodd" fill-opacity="1" /><path clip-path="url(#clip030)" d="M1198.43 1522.27 L1198.43 1532.4 L1210.49 1532.4 L1210.49 1536.95 L1198.43 1536.95 L1198.43 1556.3 Q1198.43 1560.66 1199.61 1561.9 Q1200.81 1563.14 1204.47 1563.14 L1210.49 1563.14 L1210.49 1568.04 L1204.47 1568.04 Q1197.7 1568.04 1195.12 1565.53 Q1192.54 1562.98 1192.54 1556.3 L1192.54 1536.95 L1188.24 1536.95 L1188.24 1532.4 L1192.54 1532.4 L1192.54 1522.27 L1198.43 1522.27 Z" fill="#000000" fill-rule="evenodd" fill-opacity="1" /><path clip-path="url(#clip030)" d="M1238.37 1518.52 L1251.87 1518.52 L1251.87 1523.07 L1244.23 1523.07 L1244.23 1572.09 L1251.87 1572.09 L1251.87 1576.64 L1238.37 1576.64 L1238.37 1518.52 Z" fill="#000000" fill-rule="evenodd" fill-opacity="1" /><path clip-path="url(#clip030)" d="M1287.07 1533.45 L1287.07 1538.98 Q1284.59 1537.71 1281.91 1537.07 Q1279.24 1536.44 1276.38 1536.44 Q1272.01 1536.44 1269.82 1537.77 Q1267.65 1539.11 1267.65 1541.79 Q1267.65 1543.82 1269.21 1545 Q1270.77 1546.15 1275.48 1547.2 L1277.49 1547.64 Q1283.73 1548.98 1286.34 1551.43 Q1288.98 1553.85 1288.98 1558.21 Q1288.98 1563.17 1285.03 1566.07 Q1281.12 1568.97 1274.24 1568.97 Q1271.38 1568.97 1268.26 1568.39 Q1265.17 1567.85 1261.73 1566.74 L1261.73 1560.69 Q1264.98 1562.38 1268.13 1563.24 Q1271.28 1564.07 1274.37 1564.07 Q1278.51 1564.07 1280.74 1562.66 Q1282.96 1561.23 1282.96 1558.65 Q1282.96 1556.27 1281.34 1554.99 Q1279.75 1553.72 1274.31 1552.54 L1272.27 1552.07 Q1266.83 1550.92 1264.41 1548.56 Q1261.99 1546.18 1261.99 1542.04 Q1261.99 1537.01 1265.55 1534.27 Q1269.12 1531.54 1275.68 1531.54 Q1278.92 1531.54 1281.79 1532.01 Q1284.65 1532.49 1287.07 1533.45 Z" fill="#000000" fill-rule="evenodd" fill-opacity="1" /><path clip-path="url(#clip030)" d="M1311.99 1518.52 L1311.99 1576.64 L1298.5 1576.64 L1298.5 1572.09 L1306.1 1572.09 L1306.1 1523.07 L1298.5 1523.07 L1298.5 1518.52 L1311.99 1518.52 Z" fill="#000000" fill-rule="evenodd" fill-opacity="1" /><polyline clip-path="url(#clip032)" style="stroke:#000000; stroke-linecap:butt; stroke-linejoin:round; stroke-width:2; stroke-opacity:0.1; fill:none" points="
  147.478,1302.4 2352.76,1302.4 
  "/>
<polyline clip-path="url(#clip032)" style="stroke:#000000; stroke-linecap:butt; stroke-linejoin:round; stroke-width:2; stroke-opacity:0.1; fill:none" points="
  147.478,913.501 2352.76,913.501 
  "/>
<polyline clip-path="url(#clip032)" style="stroke:#000000; stroke-linecap:butt; stroke-linejoin:round; stroke-width:2; stroke-opacity:0.1; fill:none" points="
  147.478,524.598 2352.76,524.598 
  "/>
<polyline clip-path="url(#clip032)" style="stroke:#000000; stroke-linecap:butt; stroke-linejoin:round; stroke-width:2; stroke-opacity:0.1; fill:none" points="
  147.478,135.694 2352.76,135.694 
  "/>
<polyline clip-path="url(#clip030)" style="stroke:#000000; stroke-linecap:butt; stroke-linejoin:round; stroke-width:4; stroke-opacity:1; fill:none" points="
  147.478,1423.18 147.478,47.2441 
  "/>
<polyline clip-path="url(#clip030)" style="stroke:#000000; stroke-linecap:butt; stroke-linejoin:round; stroke-width:4; stroke-opacity:1; fill:none" points="
  147.478,1302.4 173.941,1302.4 
  "/>
<polyline clip-path="url(#clip030)" style="stroke:#000000; stroke-linecap:butt; stroke-linejoin:round; stroke-width:4; stroke-opacity:1; fill:none" points="
  147.478,913.501 173.941,913.501 
  "/>
<polyline clip-path="url(#clip030)" style="stroke:#000000; stroke-linecap:butt; stroke-linejoin:round; stroke-width:4; stroke-opacity:1; fill:none" points="
  147.478,524.598 173.941,524.598 
  "/>
<polyline clip-path="url(#clip030)" style="stroke:#000000; stroke-linecap:butt; stroke-linejoin:round; stroke-width:4; stroke-opacity:1; fill:none" points="
  147.478,135.694 173.941,135.694 
  "/>
<path clip-path="url(#clip030)" d="M51.3625 1302.86 L81.0383 1302.86 L81.0383 1306.79 L51.3625 1306.79 L51.3625 1302.86 Z" fill="#000000" fill-rule="evenodd" fill-opacity="1" /><path clip-path="url(#clip030)" d="M95.1586 1315.75 L111.478 1315.75 L111.478 1319.68 L89.5336 1319.68 L89.5336 1315.75 Q92.1956 1312.99 96.7789 1308.37 Q101.385 1303.71 102.566 1302.37 Q104.811 1299.85 105.691 1298.11 Q106.594 1296.35 106.594 1294.66 Q106.594 1291.91 104.649 1290.17 Q102.728 1288.43 99.6261 1288.43 Q97.4271 1288.43 94.9734 1289.2 Q92.5428 1289.96 89.7651 1291.51 L89.7651 1286.79 Q92.5891 1285.66 95.0428 1285.08 Q97.4965 1284.5 99.5335 1284.5 Q104.904 1284.5 108.098 1287.18 Q111.293 1289.87 111.293 1294.36 Q111.293 1296.49 110.483 1298.41 Q109.696 1300.31 107.589 1302.9 Q107.01 1303.57 103.909 1306.79 Q100.807 1309.99 95.1586 1315.75 Z" fill="#000000" fill-rule="evenodd" fill-opacity="1" /><path clip-path="url(#clip030)" d="M50.9921 913.952 L80.6679 913.952 L80.6679 917.888 L50.9921 917.888 L50.9921 913.952 Z" fill="#000000" fill-rule="evenodd" fill-opacity="1" /><path clip-path="url(#clip030)" d="M91.5706 926.846 L99.2095 926.846 L99.2095 900.48 L90.8993 902.147 L90.8993 897.888 L99.1632 896.221 L103.839 896.221 L103.839 926.846 L111.478 926.846 L111.478 930.781 L91.5706 930.781 L91.5706 926.846 Z" fill="#000000" fill-rule="evenodd" fill-opacity="1" /><path clip-path="url(#clip030)" d="M99.5335 510.396 Q95.9224 510.396 94.0937 513.961 Q92.2882 517.503 92.2882 524.632 Q92.2882 531.739 94.0937 535.303 Q95.9224 538.845 99.5335 538.845 Q103.168 538.845 104.973 535.303 Q106.802 531.739 106.802 524.632 Q106.802 517.503 104.973 513.961 Q103.168 510.396 99.5335 510.396 M99.5335 506.693 Q105.344 506.693 108.399 511.299 Q111.478 515.882 111.478 524.632 Q111.478 533.359 108.399 537.966 Q105.344 542.549 99.5335 542.549 Q93.7234 542.549 90.6447 537.966 Q87.5892 533.359 87.5892 524.632 Q87.5892 515.882 90.6447 511.299 Q93.7234 506.693 99.5335 506.693 Z" fill="#000000" fill-rule="evenodd" fill-opacity="1" /><path clip-path="url(#clip030)" d="M91.5706 149.039 L99.2095 149.039 L99.2095 122.673 L90.8993 124.34 L90.8993 120.081 L99.1632 118.414 L103.839 118.414 L103.839 149.039 L111.478 149.039 L111.478 152.974 L91.5706 152.974 L91.5706 149.039 Z" fill="#000000" fill-rule="evenodd" fill-opacity="1" /><polyline clip-path="url(#clip032)" style="stroke:#009af9; stroke-linecap:butt; stroke-linejoin:round; stroke-width:4; stroke-opacity:1; fill:none" points="
  209.891,330.146 214.052,329.85 218.213,329.551 222.374,329.25 226.535,328.946 230.696,328.639 234.857,328.33 239.018,328.018 243.179,327.703 247.34,327.385 
  251.5,327.064 255.661,326.741 259.822,326.415 263.983,326.086 268.144,325.754 272.305,325.419 276.466,325.082 280.627,324.742 284.788,324.398 288.949,324.052 
  293.109,323.703 297.27,323.351 301.431,322.996 305.592,322.638 309.753,322.277 313.914,321.913 318.075,321.546 322.236,321.176 326.397,320.804 330.558,320.428 
  334.718,320.049 338.879,319.667 343.04,319.282 347.201,318.894 351.362,318.503 355.523,318.109 359.684,317.712 363.845,317.312 368.006,316.908 372.167,316.502 
  376.328,316.093 380.488,315.68 384.649,315.264 388.81,314.846 392.971,314.424 397.132,313.999 401.293,313.571 405.454,313.139 409.615,312.705 413.776,312.267 
  417.937,311.827 422.097,311.383 426.258,310.936 430.419,310.486 434.58,310.033 438.741,309.576 442.902,309.117 447.063,308.654 451.224,308.189 455.385,307.72 
  459.546,307.248 463.706,306.772 467.867,306.294 472.028,305.813 476.189,305.328 480.35,304.84 484.511,304.349 488.672,303.855 492.833,303.358 496.994,302.858 
  501.155,302.355 505.315,301.848 509.476,301.339 513.637,300.826 517.798,300.31 521.959,299.791 526.12,299.27 530.281,298.745 534.442,298.217 538.603,297.686 
  542.764,297.152 546.924,296.615 551.085,296.075 555.246,295.531 559.407,294.985 563.568,294.436 567.729,293.885 571.89,293.33 576.051,292.772 580.212,292.211 
  584.373,291.647 588.534,291.081 592.694,290.512 596.855,289.939 601.016,289.364 605.177,288.787 609.338,288.206 613.499,287.623 617.66,287.036 621.821,286.447 
  625.982,285.856 630.143,285.262 634.303,284.665 638.464,284.065 642.625,283.463 646.786,282.858 650.947,282.25 655.108,281.64 659.269,281.028 663.43,280.413 
  667.591,279.795 671.752,279.175 675.912,278.553 680.073,277.928 684.234,277.301 688.395,276.671 692.556,276.04 696.717,275.405 700.878,274.769 705.039,274.13 
  709.2,273.49 713.361,272.847 717.521,272.201 721.682,271.554 725.843,270.905 730.004,270.253 734.165,269.6 738.326,268.944 742.487,268.287 746.648,267.628 
  750.809,266.966 754.97,266.303 759.13,265.638 763.291,264.972 767.452,264.303 771.613,263.633 775.774,262.961 779.935,262.288 784.096,261.613 788.257,260.936 
  792.418,260.258 796.579,259.578 800.74,258.897 804.9,258.215 809.061,257.531 813.222,256.846 817.383,256.16 821.544,255.472 825.705,254.784 829.866,254.094 
  834.027,253.403 838.188,252.711 842.349,252.017 846.509,251.323 850.67,250.628 854.831,249.932 858.992,249.235 863.153,248.537 867.314,247.839 871.475,247.139 
  875.636,246.439 879.797,245.738 883.958,245.037 888.118,244.335 892.279,243.632 896.44,242.929 900.601,242.225 904.762,241.521 908.923,240.816 913.084,240.111 
  917.245,239.405 921.406,238.7 925.567,237.994 929.727,237.287 933.888,236.581 938.049,235.874 942.21,235.167 946.371,234.46 950.532,233.753 954.693,233.046 
  958.854,232.339 963.015,231.633 967.176,230.926 971.336,230.219 975.497,229.512 979.658,228.806 983.819,228.1 987.98,227.394 992.141,226.689 996.302,225.984 
  1000.46,225.279 1004.62,224.575 1008.78,223.871 1012.95,223.167 1017.11,222.465 1021.27,221.762 1025.43,221.061 1029.59,220.36 1033.75,219.66 1037.91,218.96 
  1042.07,218.261 1046.23,217.563 1050.39,216.866 1054.55,216.17 1058.72,215.475 1062.88,214.78 1067.04,214.086 1071.2,213.394 1075.36,212.702 1079.52,212.012 
  1083.68,211.322 1087.84,210.633 1092,209.946 1096.16,209.26 1100.32,208.575 1104.49,207.891 1108.65,207.208 1112.81,206.526 1116.97,205.846 1121.13,205.167 
  1125.29,204.489 1129.45,203.813 1133.61,203.138 1137.77,202.464 1141.93,201.792 1146.09,201.121 1150.26,200.452 1154.42,199.784 1158.58,199.117 1162.74,198.452 
  1166.9,197.789 1171.06,197.127 1175.22,196.466 1179.38,195.808 1183.54,195.15 1187.7,194.495 1191.86,193.841 1196.03,193.189 1200.19,192.538 1204.35,191.889 
  1208.51,191.242 1212.67,190.596 1216.83,189.952 1220.99,189.31 1225.15,188.67 1229.31,188.031 1233.47,187.395 1237.63,186.76 1241.8,186.126 1245.96,185.495 
  1250.12,184.866 1254.28,184.238 1258.44,183.612 1262.6,182.988 1266.76,182.366 1270.92,181.746 1275.08,181.128 1279.24,180.512 1283.4,179.898 1287.57,179.285 
  1291.73,178.675 1295.89,178.066 1300.05,177.46 1304.21,176.855 1308.37,176.253 1312.53,175.652 1316.69,175.053 1320.85,174.457 1325.01,173.862 1329.17,173.269 
  1333.33,172.679 1337.5,172.09 1341.66,171.504 1345.82,170.919 1349.98,170.337 1354.14,169.756 1358.3,169.178 1362.46,168.601 1366.62,168.027 1370.78,167.455 
  1374.94,166.884 1379.1,166.316 1383.27,165.75 1387.43,165.186 1391.59,164.624 1395.75,164.064 1399.91,163.506 1404.07,162.95 1408.23,162.396 1412.39,161.844 
  1416.55,161.295 1420.71,160.747 1424.87,160.202 1429.04,159.658 1433.2,159.117 1437.36,158.577 1441.52,158.04 1445.68,157.505 1449.84,156.972 1454,156.441 
  1458.16,155.912 1462.32,155.385 1466.48,154.86 1470.64,154.337 1474.81,153.816 1478.97,153.298 1483.13,152.781 1487.29,152.266 1491.45,151.754 1495.61,151.243 
  1499.77,150.735 1503.93,150.228 1508.09,149.724 1512.25,149.221 1516.41,148.721 1520.58,148.223 1524.74,147.726 1528.9,147.232 1533.06,146.74 1537.22,146.25 
  1541.38,145.761 1545.54,145.275 1549.7,144.791 1553.86,144.309 1558.02,143.829 1562.18,143.351 1566.35,142.874 1570.51,142.4 1574.67,141.928 1578.83,141.458 
  1582.99,140.99 1587.15,140.524 1591.31,140.06 1595.47,139.597 1599.63,139.137 1603.79,138.679 1607.95,138.223 1612.12,137.768 1616.28,137.316 1620.44,136.866 
  1624.6,136.417 1628.76,135.971 1632.92,135.526 1637.08,135.084 1641.24,134.643 1645.4,134.204 1649.56,133.768 1653.72,133.333 1657.89,132.9 1662.05,132.469 
  1666.21,132.04 1670.37,131.613 1674.53,131.187 1678.69,130.764 1682.85,130.343 1687.01,129.923 1691.17,129.505 1695.33,129.09 1699.49,128.676 1703.66,128.264 
  1707.82,127.853 1711.98,127.445 1716.14,127.039 1720.3,126.634 1724.46,126.231 1728.62,125.83 1732.78,125.431 1736.94,125.034 1741.1,124.639 1745.26,124.245 
  1749.43,123.853 1753.59,123.463 1757.75,123.075 1761.91,122.689 1766.07,122.304 1770.23,121.922 1774.39,121.541 1778.55,121.161 1782.71,120.784 1786.87,120.408 
  1791.03,120.034 1795.2,119.662 1799.36,119.292 1803.52,118.923 1807.68,118.556 1811.84,118.191 1816,117.827 1820.16,117.466 1824.32,117.106 1828.48,116.748 
  1832.64,116.391 1836.8,116.036 1840.96,115.683 1845.13,115.332 1849.29,114.982 1853.45,114.634 1857.61,114.287 1861.77,113.943 1865.93,113.6 1870.09,113.258 
  1874.25,112.919 1878.41,112.58 1882.57,112.244 1886.73,111.909 1890.9,111.576 1895.06,111.244 1899.22,110.914 1903.38,110.586 1907.54,110.259 1911.7,109.934 
  1915.86,109.611 1920.02,109.289 1924.18,108.968 1928.34,108.649 1932.5,108.332 1936.67,108.016 1940.83,107.702 1944.99,107.389 1949.15,107.078 1953.31,106.769 
  1957.47,106.461 1961.63,106.154 1965.79,105.849 1969.95,105.546 1974.11,105.244 1978.27,104.943 1982.44,104.644 1986.6,104.346 1990.76,104.05 1994.92,103.756 
  1999.08,103.463 2003.24,103.171 2007.4,102.881 2011.56,102.592 2015.72,102.304 2019.88,102.018 2024.04,101.734 2028.21,101.451 2032.37,101.169 2036.53,100.889 
  2040.69,100.61 2044.85,100.332 2049.01,100.056 2053.17,99.7813 2057.33,99.5079 2061.49,99.2358 2065.65,98.9652 2069.81,98.6958 2073.98,98.4279 2078.14,98.1612 
  2082.3,97.8959 2086.46,97.6319 2090.62,97.3693 2094.78,97.1079 2098.94,96.8479 2103.1,96.5891 2107.26,96.3316 2111.42,96.0755 2115.58,95.8206 2119.75,95.567 
  2123.91,95.3146 2128.07,95.0635 2132.23,94.8137 2136.39,94.5651 2140.55,94.3178 2144.71,94.0717 2148.87,93.8268 2153.03,93.5832 2157.19,93.3407 2161.35,93.0995 
  2165.52,92.8595 2169.68,92.6206 2173.84,92.383 2178,92.1465 2182.16,91.9113 2186.32,91.6771 2190.48,91.4442 2194.64,91.2124 2198.8,90.9818 2202.96,90.7523 
  2207.12,90.5239 2211.29,90.2967 2215.45,90.0706 2219.61,89.8456 2223.77,89.6217 2227.93,89.399 2232.09,89.1773 2236.25,88.9567 2240.41,88.7372 2244.57,88.5188 
  2248.73,88.3015 2252.89,88.0852 2257.06,87.87 2261.22,87.6559 2265.38,87.4427 2269.54,87.2307 2273.7,87.0196 2277.86,86.8096 2282.02,86.6006 2286.18,86.3926 
  2290.34,86.1857 
  "/>
<polyline clip-path="url(#clip032)" style="stroke:#e26f46; stroke-linecap:butt; stroke-linejoin:round; stroke-width:4; stroke-opacity:1; fill:none" points="
  209.891,524.598 214.052,527.099 218.213,529.603 222.374,532.109 226.535,534.618 230.696,537.13 234.857,539.643 239.018,542.159 243.179,544.678 247.34,547.199 
  251.5,549.722 255.661,552.247 259.822,554.775 263.983,557.306 268.144,559.838 272.305,562.374 276.466,564.911 280.627,567.451 284.788,569.993 288.949,572.537 
  293.109,575.084 297.27,577.633 301.431,580.185 305.592,582.738 309.753,585.294 313.914,587.852 318.075,590.413 322.236,592.976 326.397,595.541 330.558,598.108 
  334.718,600.677 338.879,603.249 343.04,605.823 347.201,608.399 351.362,610.977 355.523,613.558 359.684,616.14 363.845,618.725 368.006,621.312 372.167,623.901 
  376.328,626.492 380.488,629.085 384.649,631.68 388.81,634.278 392.971,636.877 397.132,639.478 401.293,642.082 405.454,644.687 409.615,647.294 413.776,649.903 
  417.937,652.514 422.097,655.128 426.258,657.742 430.419,660.359 434.58,662.978 438.741,665.599 442.902,668.221 447.063,670.845 451.224,673.471 455.385,676.099 
  459.546,678.728 463.706,681.359 467.867,683.992 472.028,686.626 476.189,689.262 480.35,691.9 484.511,694.539 488.672,697.18 492.833,699.822 496.994,702.466 
  501.155,705.112 505.315,707.758 509.476,710.407 513.637,713.056 517.798,715.707 521.959,718.36 526.12,721.013 530.281,723.668 534.442,726.324 538.603,728.982 
  542.764,731.64 546.924,734.3 551.085,736.961 555.246,739.623 559.407,742.285 563.568,744.949 567.729,747.614 571.89,750.28 576.051,752.947 580.212,755.614 
  584.373,758.283 588.534,760.952 592.694,763.622 596.855,766.293 601.016,768.964 605.177,771.636 609.338,774.309 613.499,776.982 617.66,779.655 621.821,782.329 
  625.982,785.004 630.143,787.679 634.303,790.354 638.464,793.029 642.625,795.705 646.786,798.381 650.947,801.057 655.108,803.733 659.269,806.409 663.43,809.085 
  667.591,811.762 671.752,814.438 675.912,817.114 680.073,819.789 684.234,822.465 688.395,825.14 692.556,827.815 696.717,830.489 700.878,833.163 705.039,835.837 
  709.2,838.51 713.361,841.182 717.521,843.854 721.682,846.525 725.843,849.195 730.004,851.864 734.165,854.533 738.326,857.2 742.487,859.867 746.648,862.532 
  750.809,865.196 754.97,867.86 759.13,870.522 763.291,873.182 767.452,875.841 771.613,878.499 775.774,881.155 779.935,883.81 784.096,886.463 788.257,889.114 
  792.418,891.764 796.579,894.412 800.74,897.058 804.9,899.702 809.061,902.344 813.222,904.983 817.383,907.621 821.544,910.257 825.705,912.89 829.866,915.521 
  834.027,918.149 838.188,920.775 842.349,923.398 846.509,926.019 850.67,928.637 854.831,931.252 858.992,933.865 863.153,936.474 867.314,939.081 871.475,941.685 
  875.636,944.285 879.797,946.882 883.958,949.477 888.118,952.067 892.279,954.655 896.44,957.239 900.601,959.819 904.762,962.396 908.923,964.97 913.084,967.539 
  917.245,970.105 921.406,972.667 925.567,975.225 929.727,977.779 933.888,980.329 938.049,982.874 942.21,985.416 946.371,987.953 950.532,990.486 954.693,993.014 
  958.854,995.538 963.015,998.058 967.176,1000.57 971.336,1003.08 975.497,1005.59 979.658,1008.09 983.819,1010.58 987.98,1013.07 992.141,1015.56 996.302,1018.04 
  1000.46,1020.51 1004.62,1022.98 1008.78,1025.45 1012.95,1027.91 1017.11,1030.36 1021.27,1032.81 1025.43,1035.25 1029.59,1037.68 1033.75,1040.11 1037.91,1042.54 
  1042.07,1044.96 1046.23,1047.37 1050.39,1049.77 1054.55,1052.17 1058.72,1054.57 1062.88,1056.95 1067.04,1059.34 1071.2,1061.71 1075.36,1064.08 1079.52,1066.44 
  1083.68,1068.79 1087.84,1071.14 1092,1073.48 1096.16,1075.82 1100.32,1078.15 1104.49,1080.47 1108.65,1082.78 1112.81,1085.08 1116.97,1087.38 1121.13,1089.68 
  1125.29,1091.96 1129.45,1094.24 1133.61,1096.51 1137.77,1098.77 1141.93,1101.02 1146.09,1103.27 1150.26,1105.51 1154.42,1107.74 1158.58,1109.96 1162.74,1112.18 
  1166.9,1114.38 1171.06,1116.58 1175.22,1118.78 1179.38,1120.96 1183.54,1123.13 1187.7,1125.3 1191.86,1127.46 1196.03,1129.61 1200.19,1131.75 1204.35,1133.88 
  1208.51,1136.01 1212.67,1138.12 1216.83,1140.23 1220.99,1142.33 1225.15,1144.42 1229.31,1146.5 1233.47,1148.57 1237.63,1150.64 1241.8,1152.69 1245.96,1154.74 
  1250.12,1156.77 1254.28,1158.8 1258.44,1160.82 1262.6,1162.83 1266.76,1164.83 1270.92,1166.82 1275.08,1168.8 1279.24,1170.77 1283.4,1172.73 1287.57,1174.69 
  1291.73,1176.63 1295.89,1178.57 1300.05,1180.49 1304.21,1182.41 1308.37,1184.31 1312.53,1186.21 1316.69,1188.09 1320.85,1189.97 1325.01,1191.84 1329.17,1193.69 
  1333.33,1195.54 1337.5,1197.38 1341.66,1199.21 1345.82,1201.02 1349.98,1202.83 1354.14,1204.63 1358.3,1206.41 1362.46,1208.19 1366.62,1209.96 1370.78,1211.72 
  1374.94,1213.46 1379.1,1215.2 1383.27,1216.93 1387.43,1218.64 1391.59,1220.35 1395.75,1222.04 1399.91,1223.73 1404.07,1225.4 1408.23,1227.07 1412.39,1228.72 
  1416.55,1230.37 1420.71,1232 1424.87,1233.62 1429.04,1235.24 1433.2,1236.84 1437.36,1238.43 1441.52,1240.01 1445.68,1241.58 1449.84,1243.15 1454,1244.7 
  1458.16,1246.24 1462.32,1247.77 1466.48,1249.28 1470.64,1250.79 1474.81,1252.29 1478.97,1253.78 1483.13,1255.26 1487.29,1256.73 1491.45,1258.18 1495.61,1259.63 
  1499.77,1261.06 1503.93,1262.49 1508.09,1263.91 1512.25,1265.31 1516.41,1266.7 1520.58,1268.09 1524.74,1269.46 1528.9,1270.83 1533.06,1272.18 1537.22,1273.52 
  1541.38,1274.85 1545.54,1276.18 1549.7,1277.49 1553.86,1278.79 1558.02,1280.08 1562.18,1281.36 1566.35,1282.63 1570.51,1283.89 1574.67,1285.14 1578.83,1286.38 
  1582.99,1287.61 1587.15,1288.84 1591.31,1290.05 1595.47,1291.25 1599.63,1292.43 1603.79,1293.61 1607.95,1294.78 1612.12,1295.94 1616.28,1297.09 1620.44,1298.23 
  1624.6,1299.37 1628.76,1300.49 1632.92,1301.6 1637.08,1302.7 1641.24,1303.79 1645.4,1304.87 1649.56,1305.94 1653.72,1307 1657.89,1308.05 1662.05,1309.1 
  1666.21,1310.13 1670.37,1311.15 1674.53,1312.17 1678.69,1313.17 1682.85,1314.17 1687.01,1315.15 1691.17,1316.13 1695.33,1317.1 1699.49,1318.05 1703.66,1319 
  1707.82,1319.94 1711.98,1320.87 1716.14,1321.79 1720.3,1322.71 1724.46,1323.61 1728.62,1324.51 1732.78,1325.39 1736.94,1326.27 1741.1,1327.14 1745.26,1327.99 
  1749.43,1328.85 1753.59,1329.69 1757.75,1330.52 1761.91,1331.35 1766.07,1332.16 1770.23,1332.97 1774.39,1333.77 1778.55,1334.56 1782.71,1335.34 1786.87,1336.12 
  1791.03,1336.89 1795.2,1337.64 1799.36,1338.39 1803.52,1339.14 1807.68,1339.87 1811.84,1340.6 1816,1341.32 1820.16,1342.03 1824.32,1342.73 1828.48,1343.42 
  1832.64,1344.11 1836.8,1344.79 1840.96,1345.46 1845.13,1346.13 1849.29,1346.79 1853.45,1347.44 1857.61,1348.08 1861.77,1348.71 1865.93,1349.34 1870.09,1349.96 
  1874.25,1350.57 1878.41,1351.18 1882.57,1351.78 1886.73,1352.37 1890.9,1352.96 1895.06,1353.54 1899.22,1354.11 1903.38,1354.67 1907.54,1355.23 1911.7,1355.78 
  1915.86,1356.33 1920.02,1356.87 1924.18,1357.4 1928.34,1357.93 1932.5,1358.44 1936.67,1358.96 1940.83,1359.46 1944.99,1359.97 1949.15,1360.46 1953.31,1360.95 
  1957.47,1361.43 1961.63,1361.91 1965.79,1362.38 1969.95,1362.84 1974.11,1363.3 1978.27,1363.75 1982.44,1364.2 1986.6,1364.64 1990.76,1365.07 1994.92,1365.5 
  1999.08,1365.93 2003.24,1366.34 2007.4,1366.76 2011.56,1367.16 2015.72,1367.57 2019.88,1367.96 2024.04,1368.35 2028.21,1368.74 2032.37,1369.12 2036.53,1369.5 
  2040.69,1369.87 2044.85,1370.23 2049.01,1370.59 2053.17,1370.95 2057.33,1371.3 2061.49,1371.64 2065.65,1371.98 2069.81,1372.32 2073.98,1372.65 2078.14,1372.98 
  2082.3,1373.3 2086.46,1373.61 2090.62,1373.93 2094.78,1374.23 2098.94,1374.54 2103.1,1374.84 2107.26,1375.13 2111.42,1375.42 2115.58,1375.7 2119.75,1375.99 
  2123.91,1376.26 2128.07,1376.53 2132.23,1376.8 2136.39,1377.07 2140.55,1377.33 2144.71,1377.58 2148.87,1377.83 2153.03,1378.08 2157.19,1378.33 2161.35,1378.57 
  2165.52,1378.8 2169.68,1379.03 2173.84,1379.26 2178,1379.49 2182.16,1379.71 2186.32,1379.92 2190.48,1380.14 2194.64,1380.35 2198.8,1380.55 2202.96,1380.76 
  2207.12,1380.95 2211.29,1381.15 2215.45,1381.34 2219.61,1381.53 2223.77,1381.71 2227.93,1381.9 2232.09,1382.07 2236.25,1382.25 2240.41,1382.42 2244.57,1382.59 
  2248.73,1382.75 2252.89,1382.92 2257.06,1383.08 2261.22,1383.23 2265.38,1383.38 2269.54,1383.53 2273.7,1383.68 2277.86,1383.82 2282.02,1383.97 2286.18,1384.1 
  2290.34,1384.24 
  "/>
<path clip-path="url(#clip030)" d="
M1581.49 274.549 L2279.25 274.549 L2279.25 93.1086 L1581.49 93.1086  Z
  " fill="#ffffff" fill-rule="evenodd" fill-opacity="1"/>
<polyline clip-path="url(#clip030)" style="stroke:#000000; stroke-linecap:butt; stroke-linejoin:round; stroke-width:4; stroke-opacity:1; fill:none" points="
  1581.49,274.549 2279.25,274.549 2279.25,93.1086 1581.49,93.1086 1581.49,274.549 
  "/>
<polyline clip-path="url(#clip030)" style="stroke:#009af9; stroke-linecap:butt; stroke-linejoin:round; stroke-width:4; stroke-opacity:1; fill:none" points="
  1605.99,153.589 1753.01,153.589 
  "/>
<path clip-path="url(#clip030)" d="M1797.86 149.92 Q1799.46 147.049 1801.68 145.684 Q1803.9 144.318 1806.91 144.318 Q1810.96 144.318 1813.16 147.165 Q1815.36 149.989 1815.36 155.221 L1815.36 170.869 L1811.08 170.869 L1811.08 155.359 Q1811.08 151.633 1809.76 149.827 Q1808.44 148.022 1805.73 148.022 Q1802.42 148.022 1800.5 150.221 Q1798.58 152.42 1798.58 156.216 L1798.58 170.869 L1794.29 170.869 L1794.29 155.359 Q1794.29 151.609 1792.97 149.827 Q1791.65 148.022 1788.9 148.022 Q1785.64 148.022 1783.72 150.244 Q1781.79 152.443 1781.79 156.216 L1781.79 170.869 L1777.51 170.869 L1777.51 144.943 L1781.79 144.943 L1781.79 148.971 Q1783.25 146.586 1785.29 145.452 Q1787.33 144.318 1790.13 144.318 Q1792.95 144.318 1794.92 145.753 Q1796.91 147.188 1797.86 149.92 Z" fill="#000000" fill-rule="evenodd" fill-opacity="1" /><path clip-path="url(#clip030)" d="M1835.64 157.836 Q1830.47 157.836 1828.48 159.017 Q1826.49 160.197 1826.49 163.045 Q1826.49 165.313 1827.97 166.656 Q1829.48 167.975 1832.05 167.975 Q1835.59 167.975 1837.72 165.475 Q1839.87 162.952 1839.87 158.785 L1839.87 157.836 L1835.64 157.836 M1844.13 156.077 L1844.13 170.869 L1839.87 170.869 L1839.87 166.933 Q1838.41 169.295 1836.24 170.429 Q1834.06 171.54 1830.91 171.54 Q1826.93 171.54 1824.57 169.318 Q1822.23 167.072 1822.23 163.322 Q1822.23 158.947 1825.15 156.725 Q1828.09 154.503 1833.9 154.503 L1839.87 154.503 L1839.87 154.086 Q1839.87 151.147 1837.93 149.549 Q1836.01 147.929 1832.51 147.929 Q1830.29 147.929 1828.18 148.461 Q1826.08 148.994 1824.13 150.059 L1824.13 146.123 Q1826.47 145.221 1828.67 144.781 Q1830.87 144.318 1832.95 144.318 Q1838.58 144.318 1841.35 147.234 Q1844.13 150.151 1844.13 156.077 Z" fill="#000000" fill-rule="evenodd" fill-opacity="1" /><path clip-path="url(#clip030)" d="M1869.43 145.707 L1869.43 149.734 Q1867.63 148.809 1865.68 148.346 Q1863.74 147.883 1861.65 147.883 Q1858.48 147.883 1856.89 148.855 Q1855.31 149.827 1855.31 151.771 Q1855.31 153.253 1856.45 154.109 Q1857.58 154.943 1861.01 155.707 L1862.46 156.031 Q1867 157.003 1868.9 158.785 Q1870.82 160.545 1870.82 163.716 Q1870.82 167.327 1867.95 169.433 Q1865.1 171.54 1860.1 171.54 Q1858.02 171.54 1855.75 171.123 Q1853.51 170.73 1851.01 169.92 L1851.01 165.521 Q1853.37 166.748 1855.66 167.373 Q1857.95 167.975 1860.2 167.975 Q1863.21 167.975 1864.83 166.957 Q1866.45 165.915 1866.45 164.04 Q1866.45 162.304 1865.27 161.378 Q1864.11 160.452 1860.15 159.596 L1858.67 159.248 Q1854.71 158.415 1852.95 156.702 Q1851.19 154.966 1851.19 151.957 Q1851.19 148.299 1853.78 146.309 Q1856.38 144.318 1861.15 144.318 Q1863.51 144.318 1865.59 144.665 Q1867.67 145.012 1869.43 145.707 Z" fill="#000000" fill-rule="evenodd" fill-opacity="1" /><path clip-path="url(#clip030)" d="M1894.13 145.707 L1894.13 149.734 Q1892.33 148.809 1890.38 148.346 Q1888.44 147.883 1886.35 147.883 Q1883.18 147.883 1881.58 148.855 Q1880.01 149.827 1880.01 151.771 Q1880.01 153.253 1881.15 154.109 Q1882.28 154.943 1885.71 155.707 L1887.16 156.031 Q1891.7 157.003 1893.6 158.785 Q1895.52 160.545 1895.52 163.716 Q1895.52 167.327 1892.65 169.433 Q1889.8 171.54 1884.8 171.54 Q1882.72 171.54 1880.45 171.123 Q1878.21 170.73 1875.71 169.92 L1875.71 165.521 Q1878.07 166.748 1880.36 167.373 Q1882.65 167.975 1884.9 167.975 Q1887.9 167.975 1889.52 166.957 Q1891.15 165.915 1891.15 164.04 Q1891.15 162.304 1889.96 161.378 Q1888.81 160.452 1884.85 159.596 L1883.37 159.248 Q1879.41 158.415 1877.65 156.702 Q1875.89 154.966 1875.89 151.957 Q1875.89 148.299 1878.48 146.309 Q1881.08 144.318 1885.84 144.318 Q1888.21 144.318 1890.29 144.665 Q1892.37 145.012 1894.13 145.707 Z" fill="#000000" fill-rule="evenodd" fill-opacity="1" /><path clip-path="url(#clip030)" d="M1902.9 164.989 L1907.79 164.989 L1907.79 170.869 L1902.9 170.869 L1902.9 164.989 Z" fill="#000000" fill-rule="evenodd" fill-opacity="1" /><path clip-path="url(#clip030)" d="M1933.9 145.707 L1933.9 149.734 Q1932.09 148.809 1930.15 148.346 Q1928.21 147.883 1926.12 147.883 Q1922.95 147.883 1921.35 148.855 Q1919.78 149.827 1919.78 151.771 Q1919.78 153.253 1920.91 154.109 Q1922.05 154.943 1925.47 155.707 L1926.93 156.031 Q1931.47 157.003 1933.37 158.785 Q1935.29 160.545 1935.29 163.716 Q1935.29 167.327 1932.42 169.433 Q1929.57 171.54 1924.57 171.54 Q1922.49 171.54 1920.22 171.123 Q1917.97 170.73 1915.47 169.92 L1915.47 165.521 Q1917.83 166.748 1920.13 167.373 Q1922.42 167.975 1924.66 167.975 Q1927.67 167.975 1929.29 166.957 Q1930.91 165.915 1930.91 164.04 Q1930.91 162.304 1929.73 161.378 Q1928.58 160.452 1924.62 159.596 L1923.14 159.248 Q1919.18 158.415 1917.42 156.702 Q1915.66 154.966 1915.66 151.957 Q1915.66 148.299 1918.25 146.309 Q1920.84 144.318 1925.61 144.318 Q1927.97 144.318 1930.06 144.665 Q1932.14 145.012 1933.9 145.707 Z" fill="#000000" fill-rule="evenodd" fill-opacity="1" /><path clip-path="url(#clip030)" d="M1967.37 134.897 Q1964.27 140.221 1962.77 145.429 Q1961.26 150.637 1961.26 155.984 Q1961.26 161.332 1962.77 166.586 Q1964.29 171.818 1967.37 177.119 L1963.67 177.119 Q1960.2 171.679 1958.46 166.424 Q1956.75 161.17 1956.75 155.984 Q1956.75 150.822 1958.46 145.591 Q1960.17 140.36 1963.67 134.897 L1967.37 134.897 Z" fill="#000000" fill-rule="evenodd" fill-opacity="1" /><path clip-path="url(#clip030)" d="M1990.4 152.234 Q1993.76 152.952 1995.64 155.221 Q1997.53 157.489 1997.53 160.822 Q1997.53 165.938 1994.01 168.739 Q1990.5 171.54 1984.01 171.54 Q1981.84 171.54 1979.52 171.1 Q1977.23 170.683 1974.78 169.827 L1974.78 165.313 Q1976.72 166.447 1979.04 167.026 Q1981.35 167.605 1983.88 167.605 Q1988.27 167.605 1990.57 165.869 Q1992.88 164.133 1992.88 160.822 Q1992.88 157.767 1990.73 156.054 Q1988.6 154.318 1984.78 154.318 L1980.75 154.318 L1980.75 150.475 L1984.96 150.475 Q1988.41 150.475 1990.24 149.109 Q1992.07 147.721 1992.07 145.128 Q1992.07 142.466 1990.17 141.054 Q1988.3 139.619 1984.78 139.619 Q1982.86 139.619 1980.66 140.035 Q1978.46 140.452 1975.82 141.332 L1975.82 137.165 Q1978.48 136.424 1980.8 136.054 Q1983.14 135.684 1985.2 135.684 Q1990.52 135.684 1993.62 138.114 Q1996.72 140.522 1996.72 144.642 Q1996.72 147.512 1995.08 149.503 Q1993.44 151.471 1990.4 152.234 Z" fill="#000000" fill-rule="evenodd" fill-opacity="1" /><path clip-path="url(#clip030)" d="M2020.57 152.234 Q2023.92 152.952 2025.8 155.221 Q2027.7 157.489 2027.7 160.822 Q2027.7 165.938 2024.18 168.739 Q2020.66 171.54 2014.18 171.54 Q2012 171.54 2009.69 171.1 Q2007.39 170.683 2004.94 169.827 L2004.94 165.313 Q2006.89 166.447 2009.2 167.026 Q2011.51 167.605 2014.04 167.605 Q2018.44 167.605 2020.73 165.869 Q2023.04 164.133 2023.04 160.822 Q2023.04 157.767 2020.89 156.054 Q2018.76 154.318 2014.94 154.318 L2010.91 154.318 L2010.91 150.475 L2015.13 150.475 Q2018.57 150.475 2020.4 149.109 Q2022.23 147.721 2022.23 145.128 Q2022.23 142.466 2020.33 141.054 Q2018.46 139.619 2014.94 139.619 Q2013.02 139.619 2010.82 140.035 Q2008.62 140.452 2005.98 141.332 L2005.98 137.165 Q2008.64 136.424 2010.96 136.054 Q2013.3 135.684 2015.36 135.684 Q2020.68 135.684 2023.78 138.114 Q2026.89 140.522 2026.89 144.642 Q2026.89 147.512 2025.24 149.503 Q2023.6 151.471 2020.57 152.234 Z" fill="#000000" fill-rule="evenodd" fill-opacity="1" /><path clip-path="url(#clip030)" d="M2036.61 136.309 L2054.96 136.309 L2054.96 140.244 L2040.89 140.244 L2040.89 148.716 Q2041.91 148.369 2042.93 148.207 Q2043.95 148.022 2044.96 148.022 Q2050.75 148.022 2054.13 151.193 Q2057.51 154.364 2057.51 159.781 Q2057.51 165.359 2054.04 168.461 Q2050.57 171.54 2044.25 171.54 Q2042.07 171.54 2039.8 171.17 Q2037.56 170.799 2035.15 170.058 L2035.15 165.359 Q2037.23 166.494 2039.45 167.049 Q2041.68 167.605 2044.15 167.605 Q2048.16 167.605 2050.5 165.498 Q2052.83 163.392 2052.83 159.781 Q2052.83 156.17 2050.5 154.063 Q2048.16 151.957 2044.15 151.957 Q2042.28 151.957 2040.4 152.373 Q2038.55 152.79 2036.61 153.67 L2036.61 136.309 Z" fill="#000000" fill-rule="evenodd" fill-opacity="1" /><path clip-path="url(#clip030)" d="M2066.77 136.309 L2085.13 136.309 L2085.13 140.244 L2071.05 140.244 L2071.05 148.716 Q2072.07 148.369 2073.09 148.207 Q2074.11 148.022 2075.13 148.022 Q2080.91 148.022 2084.29 151.193 Q2087.67 154.364 2087.67 159.781 Q2087.67 165.359 2084.2 168.461 Q2080.73 171.54 2074.41 171.54 Q2072.23 171.54 2069.96 171.17 Q2067.72 170.799 2065.31 170.058 L2065.31 165.359 Q2067.39 166.494 2069.62 167.049 Q2071.84 167.605 2074.32 167.605 Q2078.32 167.605 2080.66 165.498 Q2083 163.392 2083 159.781 Q2083 156.17 2080.66 154.063 Q2078.32 151.957 2074.32 151.957 Q2072.44 151.957 2070.57 152.373 Q2068.71 152.79 2066.77 153.67 L2066.77 136.309 Z" fill="#000000" fill-rule="evenodd" fill-opacity="1" /><path clip-path="url(#clip030)" d="M2109.73 140.383 L2097.93 158.832 L2109.73 158.832 L2109.73 140.383 M2108.51 136.309 L2114.38 136.309 L2114.38 158.832 L2119.32 158.832 L2119.32 162.721 L2114.38 162.721 L2114.38 170.869 L2109.73 170.869 L2109.73 162.721 L2094.13 162.721 L2094.13 158.207 L2108.51 136.309 Z" fill="#000000" fill-rule="evenodd" fill-opacity="1" /><path clip-path="url(#clip030)" d="M2139.89 140.383 L2128.09 158.832 L2139.89 158.832 L2139.89 140.383 M2138.67 136.309 L2144.55 136.309 L2144.55 158.832 L2149.48 158.832 L2149.48 162.721 L2144.55 162.721 L2144.55 170.869 L2139.89 170.869 L2139.89 162.721 L2124.29 162.721 L2124.29 158.207 L2138.67 136.309 Z" fill="#000000" fill-rule="evenodd" fill-opacity="1" /><path clip-path="url(#clip030)" d="M2171.38 152.234 Q2174.73 152.952 2176.61 155.221 Q2178.5 157.489 2178.5 160.822 Q2178.5 165.938 2174.99 168.739 Q2171.47 171.54 2164.99 171.54 Q2162.81 171.54 2160.5 171.1 Q2158.2 170.683 2155.75 169.827 L2155.75 165.313 Q2157.69 166.447 2160.01 167.026 Q2162.32 167.605 2164.85 167.605 Q2169.25 167.605 2171.54 165.869 Q2173.85 164.133 2173.85 160.822 Q2173.85 157.767 2171.7 156.054 Q2169.57 154.318 2165.75 154.318 L2161.72 154.318 L2161.72 150.475 L2165.94 150.475 Q2169.38 150.475 2171.21 149.109 Q2173.04 147.721 2173.04 145.128 Q2173.04 142.466 2171.14 141.054 Q2169.27 139.619 2165.75 139.619 Q2163.83 139.619 2161.63 140.035 Q2159.43 140.452 2156.79 141.332 L2156.79 137.165 Q2159.45 136.424 2161.77 136.054 Q2164.11 135.684 2166.17 135.684 Q2171.49 135.684 2174.59 138.114 Q2177.69 140.522 2177.69 144.642 Q2177.69 147.512 2176.05 149.503 Q2174.41 151.471 2171.38 152.234 Z" fill="#000000" fill-rule="evenodd" fill-opacity="1" /><path clip-path="url(#clip030)" d="M2191.4 166.933 L2207.72 166.933 L2207.72 170.869 L2185.77 170.869 L2185.77 166.933 Q2188.44 164.179 2193.02 159.549 Q2197.62 154.896 2198.81 153.554 Q2201.05 151.031 2201.93 149.295 Q2202.83 147.535 2202.83 145.846 Q2202.83 143.091 2200.89 141.355 Q2198.97 139.619 2195.87 139.619 Q2193.67 139.619 2191.21 140.383 Q2188.78 141.147 2186 142.697 L2186 137.975 Q2188.83 136.841 2191.28 136.262 Q2193.74 135.684 2195.77 135.684 Q2201.14 135.684 2204.34 138.369 Q2207.53 141.054 2207.53 145.545 Q2207.53 147.674 2206.72 149.596 Q2205.94 151.494 2203.83 154.086 Q2203.25 154.758 2200.15 157.975 Q2197.05 161.17 2191.4 166.933 Z" fill="#000000" fill-rule="evenodd" fill-opacity="1" /><path clip-path="url(#clip030)" d="M2216.26 134.897 L2219.96 134.897 Q2223.43 140.36 2225.15 145.591 Q2226.88 150.822 2226.88 155.984 Q2226.88 161.17 2225.15 166.424 Q2223.43 171.679 2219.96 177.119 L2216.26 177.119 Q2219.34 171.818 2220.84 166.586 Q2222.37 161.332 2222.37 155.984 Q2222.37 150.637 2220.84 145.429 Q2219.34 140.221 2216.26 134.897 Z" fill="#000000" fill-rule="evenodd" fill-opacity="1" /><polyline clip-path="url(#clip030)" style="stroke:#e26f46; stroke-linecap:butt; stroke-linejoin:round; stroke-width:4; stroke-opacity:1; fill:none" points="
  1605.99,214.069 1753.01,214.069 
  "/>
<path clip-path="url(#clip030)" d="M1797.86 210.4 Q1799.46 207.529 1801.68 206.164 Q1803.9 204.798 1806.91 204.798 Q1810.96 204.798 1813.16 207.645 Q1815.36 210.469 1815.36 215.701 L1815.36 231.349 L1811.08 231.349 L1811.08 215.839 Q1811.08 212.113 1809.76 210.307 Q1808.44 208.502 1805.73 208.502 Q1802.42 208.502 1800.5 210.701 Q1798.58 212.9 1798.58 216.696 L1798.58 231.349 L1794.29 231.349 L1794.29 215.839 Q1794.29 212.089 1792.97 210.307 Q1791.65 208.502 1788.9 208.502 Q1785.64 208.502 1783.72 210.724 Q1781.79 212.923 1781.79 216.696 L1781.79 231.349 L1777.51 231.349 L1777.51 205.423 L1781.79 205.423 L1781.79 209.451 Q1783.25 207.066 1785.29 205.932 Q1787.33 204.798 1790.13 204.798 Q1792.95 204.798 1794.92 206.233 Q1796.91 207.668 1797.86 210.4 Z" fill="#000000" fill-rule="evenodd" fill-opacity="1" /><path clip-path="url(#clip030)" d="M1835.64 218.316 Q1830.47 218.316 1828.48 219.497 Q1826.49 220.677 1826.49 223.525 Q1826.49 225.793 1827.97 227.136 Q1829.48 228.455 1832.05 228.455 Q1835.59 228.455 1837.72 225.955 Q1839.87 223.432 1839.87 219.265 L1839.87 218.316 L1835.64 218.316 M1844.13 216.557 L1844.13 231.349 L1839.87 231.349 L1839.87 227.413 Q1838.41 229.775 1836.24 230.909 Q1834.06 232.02 1830.91 232.02 Q1826.93 232.02 1824.57 229.798 Q1822.23 227.552 1822.23 223.802 Q1822.23 219.427 1825.15 217.205 Q1828.09 214.983 1833.9 214.983 L1839.87 214.983 L1839.87 214.566 Q1839.87 211.627 1837.93 210.029 Q1836.01 208.409 1832.51 208.409 Q1830.29 208.409 1828.18 208.941 Q1826.08 209.474 1824.13 210.539 L1824.13 206.603 Q1826.47 205.701 1828.67 205.261 Q1830.87 204.798 1832.95 204.798 Q1838.58 204.798 1841.35 207.714 Q1844.13 210.631 1844.13 216.557 Z" fill="#000000" fill-rule="evenodd" fill-opacity="1" /><path clip-path="url(#clip030)" d="M1869.43 206.187 L1869.43 210.214 Q1867.63 209.289 1865.68 208.826 Q1863.74 208.363 1861.65 208.363 Q1858.48 208.363 1856.89 209.335 Q1855.31 210.307 1855.31 212.251 Q1855.31 213.733 1856.45 214.589 Q1857.58 215.423 1861.01 216.187 L1862.46 216.511 Q1867 217.483 1868.9 219.265 Q1870.82 221.025 1870.82 224.196 Q1870.82 227.807 1867.95 229.913 Q1865.1 232.02 1860.1 232.02 Q1858.02 232.02 1855.75 231.603 Q1853.51 231.21 1851.01 230.4 L1851.01 226.001 Q1853.37 227.228 1855.66 227.853 Q1857.95 228.455 1860.2 228.455 Q1863.21 228.455 1864.83 227.437 Q1866.45 226.395 1866.45 224.52 Q1866.45 222.784 1865.27 221.858 Q1864.11 220.932 1860.15 220.076 L1858.67 219.728 Q1854.71 218.895 1852.95 217.182 Q1851.19 215.446 1851.19 212.437 Q1851.19 208.779 1853.78 206.789 Q1856.38 204.798 1861.15 204.798 Q1863.51 204.798 1865.59 205.145 Q1867.67 205.492 1869.43 206.187 Z" fill="#000000" fill-rule="evenodd" fill-opacity="1" /><path clip-path="url(#clip030)" d="M1894.13 206.187 L1894.13 210.214 Q1892.33 209.289 1890.38 208.826 Q1888.44 208.363 1886.35 208.363 Q1883.18 208.363 1881.58 209.335 Q1880.01 210.307 1880.01 212.251 Q1880.01 213.733 1881.15 214.589 Q1882.28 215.423 1885.71 216.187 L1887.16 216.511 Q1891.7 217.483 1893.6 219.265 Q1895.52 221.025 1895.52 224.196 Q1895.52 227.807 1892.65 229.913 Q1889.8 232.02 1884.8 232.02 Q1882.72 232.02 1880.45 231.603 Q1878.21 231.21 1875.71 230.4 L1875.71 226.001 Q1878.07 227.228 1880.36 227.853 Q1882.65 228.455 1884.9 228.455 Q1887.9 228.455 1889.52 227.437 Q1891.15 226.395 1891.15 224.52 Q1891.15 222.784 1889.96 221.858 Q1888.81 220.932 1884.85 220.076 L1883.37 219.728 Q1879.41 218.895 1877.65 217.182 Q1875.89 215.446 1875.89 212.437 Q1875.89 208.779 1878.48 206.789 Q1881.08 204.798 1885.84 204.798 Q1888.21 204.798 1890.29 205.145 Q1892.37 205.492 1894.13 206.187 Z" fill="#000000" fill-rule="evenodd" fill-opacity="1" /><path clip-path="url(#clip030)" d="M1902.9 225.469 L1907.79 225.469 L1907.79 231.349 L1902.9 231.349 L1902.9 225.469 Z" fill="#000000" fill-rule="evenodd" fill-opacity="1" /><path clip-path="url(#clip030)" d="M1914.32 205.423 L1918.83 205.423 L1926.93 227.182 L1935.03 205.423 L1939.55 205.423 L1929.83 231.349 L1924.04 231.349 L1914.32 205.423 Z" fill="#000000" fill-rule="evenodd" fill-opacity="1" /><path clip-path="url(#clip030)" d="M1970.73 195.377 Q1967.63 200.701 1966.12 205.909 Q1964.62 211.117 1964.62 216.464 Q1964.62 221.812 1966.12 227.066 Q1967.65 232.298 1970.73 237.599 L1967.02 237.599 Q1963.55 232.159 1961.82 226.904 Q1960.1 221.65 1960.1 216.464 Q1960.1 211.302 1961.82 206.071 Q1963.53 200.84 1967.02 195.377 L1970.73 195.377 Z" fill="#000000" fill-rule="evenodd" fill-opacity="1" /><path clip-path="url(#clip030)" d="M1993.76 212.714 Q1997.12 213.432 1998.99 215.701 Q2000.89 217.969 2000.89 221.302 Q2000.89 226.418 1997.37 229.219 Q1993.85 232.02 1987.37 232.02 Q1985.2 232.02 1982.88 231.58 Q1980.59 231.163 1978.14 230.307 L1978.14 225.793 Q1980.08 226.927 1982.39 227.506 Q1984.71 228.085 1987.23 228.085 Q1991.63 228.085 1993.92 226.349 Q1996.24 224.613 1996.24 221.302 Q1996.24 218.247 1994.08 216.534 Q1991.95 214.798 1988.14 214.798 L1984.11 214.798 L1984.11 210.955 L1988.32 210.955 Q1991.77 210.955 1993.6 209.589 Q1995.43 208.201 1995.43 205.608 Q1995.43 202.946 1993.53 201.534 Q1991.65 200.099 1988.14 200.099 Q1986.21 200.099 1984.01 200.515 Q1981.82 200.932 1979.18 201.812 L1979.18 197.645 Q1981.84 196.904 1984.15 196.534 Q1986.49 196.164 1988.55 196.164 Q1993.88 196.164 1996.98 198.594 Q2000.08 201.002 2000.08 205.122 Q2000.08 207.992 1998.44 209.983 Q1996.79 211.951 1993.76 212.714 Z" fill="#000000" fill-rule="evenodd" fill-opacity="1" /><path clip-path="url(#clip030)" d="M2023.92 212.714 Q2027.28 213.432 2029.15 215.701 Q2031.05 217.969 2031.05 221.302 Q2031.05 226.418 2027.53 229.219 Q2024.01 232.02 2017.53 232.02 Q2015.36 232.02 2013.04 231.58 Q2010.75 231.163 2008.3 230.307 L2008.3 225.793 Q2010.24 226.927 2012.56 227.506 Q2014.87 228.085 2017.39 228.085 Q2021.79 228.085 2024.08 226.349 Q2026.4 224.613 2026.4 221.302 Q2026.4 218.247 2024.25 216.534 Q2022.12 214.798 2018.3 214.798 L2014.27 214.798 L2014.27 210.955 L2018.48 210.955 Q2021.93 210.955 2023.76 209.589 Q2025.59 208.201 2025.59 205.608 Q2025.59 202.946 2023.69 201.534 Q2021.82 200.099 2018.3 200.099 Q2016.38 200.099 2014.18 200.515 Q2011.98 200.932 2009.34 201.812 L2009.34 197.645 Q2012 196.904 2014.32 196.534 Q2016.65 196.164 2018.71 196.164 Q2024.04 196.164 2027.14 198.594 Q2030.24 201.002 2030.24 205.122 Q2030.24 207.992 2028.6 209.983 Q2026.95 211.951 2023.92 212.714 Z" fill="#000000" fill-rule="evenodd" fill-opacity="1" /><path clip-path="url(#clip030)" d="M2039.96 196.789 L2058.32 196.789 L2058.32 200.724 L2044.25 200.724 L2044.25 209.196 Q2045.26 208.849 2046.28 208.687 Q2047.3 208.502 2048.32 208.502 Q2054.11 208.502 2057.49 211.673 Q2060.87 214.844 2060.87 220.261 Q2060.87 225.839 2057.39 228.941 Q2053.92 232.02 2047.6 232.02 Q2045.43 232.02 2043.16 231.65 Q2040.91 231.279 2038.51 230.538 L2038.51 225.839 Q2040.59 226.974 2042.81 227.529 Q2045.03 228.085 2047.51 228.085 Q2051.51 228.085 2053.85 225.978 Q2056.19 223.872 2056.19 220.261 Q2056.19 216.65 2053.85 214.543 Q2051.51 212.437 2047.51 212.437 Q2045.63 212.437 2043.76 212.853 Q2041.91 213.27 2039.96 214.15 L2039.96 196.789 Z" fill="#000000" fill-rule="evenodd" fill-opacity="1" /><path clip-path="url(#clip030)" d="M2070.13 196.789 L2088.48 196.789 L2088.48 200.724 L2074.41 200.724 L2074.41 209.196 Q2075.43 208.849 2076.44 208.687 Q2077.46 208.502 2078.48 208.502 Q2084.27 208.502 2087.65 211.673 Q2091.03 214.844 2091.03 220.261 Q2091.03 225.839 2087.56 228.941 Q2084.08 232.02 2077.76 232.02 Q2075.59 232.02 2073.32 231.65 Q2071.07 231.279 2068.67 230.538 L2068.67 225.839 Q2070.75 226.974 2072.97 227.529 Q2075.19 228.085 2077.67 228.085 Q2081.68 228.085 2084.01 225.978 Q2086.35 223.872 2086.35 220.261 Q2086.35 216.65 2084.01 214.543 Q2081.68 212.437 2077.67 212.437 Q2075.8 212.437 2073.92 212.853 Q2072.07 213.27 2070.13 214.15 L2070.13 196.789 Z" fill="#000000" fill-rule="evenodd" fill-opacity="1" /><path clip-path="url(#clip030)" d="M2113.09 200.863 L2101.28 219.312 L2113.09 219.312 L2113.09 200.863 M2111.86 196.789 L2117.74 196.789 L2117.74 219.312 L2122.67 219.312 L2122.67 223.201 L2117.74 223.201 L2117.74 231.349 L2113.09 231.349 L2113.09 223.201 L2097.49 223.201 L2097.49 218.687 L2111.86 196.789 Z" fill="#000000" fill-rule="evenodd" fill-opacity="1" /><path clip-path="url(#clip030)" d="M2143.25 200.863 L2131.44 219.312 L2143.25 219.312 L2143.25 200.863 M2142.02 196.789 L2147.9 196.789 L2147.9 219.312 L2152.83 219.312 L2152.83 223.201 L2147.9 223.201 L2147.9 231.349 L2143.25 231.349 L2143.25 223.201 L2127.65 223.201 L2127.65 218.687 L2142.02 196.789 Z" fill="#000000" fill-rule="evenodd" fill-opacity="1" /><path clip-path="url(#clip030)" d="M2174.73 212.714 Q2178.09 213.432 2179.96 215.701 Q2181.86 217.969 2181.86 221.302 Q2181.86 226.418 2178.34 229.219 Q2174.82 232.02 2168.34 232.02 Q2166.17 232.02 2163.85 231.58 Q2161.56 231.163 2159.11 230.307 L2159.11 225.793 Q2161.05 226.927 2163.37 227.506 Q2165.68 228.085 2168.2 228.085 Q2172.6 228.085 2174.89 226.349 Q2177.21 224.613 2177.21 221.302 Q2177.21 218.247 2175.06 216.534 Q2172.93 214.798 2169.11 214.798 L2165.08 214.798 L2165.08 210.955 L2169.29 210.955 Q2172.74 210.955 2174.57 209.589 Q2176.4 208.201 2176.4 205.608 Q2176.4 202.946 2174.5 201.534 Q2172.63 200.099 2169.11 200.099 Q2167.19 200.099 2164.99 200.515 Q2162.79 200.932 2160.15 201.812 L2160.15 197.645 Q2162.81 196.904 2165.13 196.534 Q2167.46 196.164 2169.52 196.164 Q2174.85 196.164 2177.95 198.594 Q2181.05 201.002 2181.05 205.122 Q2181.05 207.992 2179.41 209.983 Q2177.76 211.951 2174.73 212.714 Z" fill="#000000" fill-rule="evenodd" fill-opacity="1" /><path clip-path="url(#clip030)" d="M2204.89 212.714 Q2208.25 213.432 2210.12 215.701 Q2212.02 217.969 2212.02 221.302 Q2212.02 226.418 2208.5 229.219 Q2204.99 232.02 2198.5 232.02 Q2196.33 232.02 2194.01 231.58 Q2191.72 231.163 2189.27 230.307 L2189.27 225.793 Q2191.21 226.927 2193.53 227.506 Q2195.84 228.085 2198.37 228.085 Q2202.76 228.085 2205.06 226.349 Q2207.37 224.613 2207.37 221.302 Q2207.37 218.247 2205.22 216.534 Q2203.09 214.798 2199.27 214.798 L2195.24 214.798 L2195.24 210.955 L2199.45 210.955 Q2202.9 210.955 2204.73 209.589 Q2206.56 208.201 2206.56 205.608 Q2206.56 202.946 2204.66 201.534 Q2202.79 200.099 2199.27 200.099 Q2197.35 200.099 2195.15 200.515 Q2192.95 200.932 2190.31 201.812 L2190.31 197.645 Q2192.97 196.904 2195.29 196.534 Q2197.62 196.164 2199.69 196.164 Q2205.01 196.164 2208.11 198.594 Q2211.21 201.002 2211.21 205.122 Q2211.21 207.992 2209.57 209.983 Q2207.93 211.951 2204.89 212.714 Z" fill="#000000" fill-rule="evenodd" fill-opacity="1" /><path clip-path="url(#clip030)" d="M2219.62 195.377 L2223.32 195.377 Q2226.79 200.84 2228.5 206.071 Q2230.24 211.302 2230.24 216.464 Q2230.24 221.65 2228.5 226.904 Q2226.79 232.159 2223.32 237.599 L2219.62 237.599 Q2222.69 232.298 2224.2 227.066 Q2225.73 221.812 2225.73 216.464 Q2225.73 211.117 2224.2 205.909 Q2222.69 200.701 2219.62 195.377 Z" fill="#000000" fill-rule="evenodd" fill-opacity="1" /></svg>
