<?xml version="1.0" encoding="utf-8"?>
<svg xmlns="http://www.w3.org/2000/svg" xmlns:xlink="http://www.w3.org/1999/xlink" width="600" height="400" viewBox="0 0 2400 1600">
<defs>
  <clipPath id="clip070">
    <rect x="0" y="0" width="2400" height="1600"/>
  </clipPath>
</defs>
<path clip-path="url(#clip070)" d="
M0 1600 L2400 1600 L2400 0 L0 0  Z
  " fill="#ffffff" fill-rule="evenodd" fill-opacity="1"/>
<defs>
  <clipPath id="clip071">
    <rect x="480" y="0" width="1681" height="1600"/>
  </clipPath>
</defs>
<path clip-path="url(#clip070)" d="
M303.503 1401.58 L2352.76 1401.58 L2352.76 47.2441 L303.503 47.2441  Z
  " fill="#ffffff" fill-rule="evenodd" fill-opacity="1"/>
<defs>
  <clipPath id="clip072">
    <rect x="303" y="47" width="2050" height="1355"/>
  </clipPath>
</defs>
<polyline clip-path="url(#clip072)" style="stroke:#000000; stroke-linecap:butt; stroke-linejoin:round; stroke-width:2; stroke-opacity:0.1; fill:none" points="
  361.501,1401.58 361.501,47.2441 
  "/>
<polyline clip-path="url(#clip072)" style="stroke:#000000; stroke-linecap:butt; stroke-linejoin:round; stroke-width:2; stroke-opacity:0.1; fill:none" points="
  748.152,1401.58 748.152,47.2441 
  "/>
<polyline clip-path="url(#clip072)" style="stroke:#000000; stroke-linecap:butt; stroke-linejoin:round; stroke-width:2; stroke-opacity:0.1; fill:none" points="
  1134.8,1401.58 1134.8,47.2441 
  "/>
<polyline clip-path="url(#clip072)" style="stroke:#000000; stroke-linecap:butt; stroke-linejoin:round; stroke-width:2; stroke-opacity:0.1; fill:none" points="
  1521.46,1401.58 1521.46,47.2441 
  "/>
<polyline clip-path="url(#clip072)" style="stroke:#000000; stroke-linecap:butt; stroke-linejoin:round; stroke-width:2; stroke-opacity:0.1; fill:none" points="
  1908.11,1401.58 1908.11,47.2441 
  "/>
<polyline clip-path="url(#clip072)" style="stroke:#000000; stroke-linecap:butt; stroke-linejoin:round; stroke-width:2; stroke-opacity:0.1; fill:none" points="
  2294.76,1401.58 2294.76,47.2441 
  "/>
<polyline clip-path="url(#clip070)" style="stroke:#000000; stroke-linecap:butt; stroke-linejoin:round; stroke-width:4; stroke-opacity:1; fill:none" points="
  303.503,1401.58 2352.76,1401.58 
  "/>
<polyline clip-path="url(#clip070)" style="stroke:#000000; stroke-linecap:butt; stroke-linejoin:round; stroke-width:4; stroke-opacity:1; fill:none" points="
  361.501,1401.58 361.501,1385.33 
  "/>
<polyline clip-path="url(#clip070)" style="stroke:#000000; stroke-linecap:butt; stroke-linejoin:round; stroke-width:4; stroke-opacity:1; fill:none" points="
  748.152,1401.58 748.152,1385.33 
  "/>
<polyline clip-path="url(#clip070)" style="stroke:#000000; stroke-linecap:butt; stroke-linejoin:round; stroke-width:4; stroke-opacity:1; fill:none" points="
  1134.8,1401.58 1134.8,1385.33 
  "/>
<polyline clip-path="url(#clip070)" style="stroke:#000000; stroke-linecap:butt; stroke-linejoin:round; stroke-width:4; stroke-opacity:1; fill:none" points="
  1521.46,1401.58 1521.46,1385.33 
  "/>
<polyline clip-path="url(#clip070)" style="stroke:#000000; stroke-linecap:butt; stroke-linejoin:round; stroke-width:4; stroke-opacity:1; fill:none" points="
  1908.11,1401.58 1908.11,1385.33 
  "/>
<polyline clip-path="url(#clip070)" style="stroke:#000000; stroke-linecap:butt; stroke-linejoin:round; stroke-width:4; stroke-opacity:1; fill:none" points="
  2294.76,1401.58 2294.76,1385.33 
  "/>
<path clip-path="url(#clip070)" d="M361.501 1435.77 Q356.084 1435.77 353.341 1441.11 Q350.633 1446.43 350.633 1457.12 Q350.633 1467.78 353.341 1473.13 Q356.084 1478.44 361.501 1478.44 Q366.952 1478.44 369.66 1473.13 Q372.403 1467.78 372.403 1457.12 Q372.403 1446.43 369.66 1441.11 Q366.952 1435.77 361.501 1435.77 M361.501 1430.21 Q370.216 1430.21 374.799 1437.12 Q379.417 1443.99 379.417 1457.12 Q379.417 1470.21 374.799 1477.12 Q370.216 1483.99 361.501 1483.99 Q352.785 1483.99 348.167 1477.12 Q343.584 1470.21 343.584 1457.12 Q343.584 1443.99 348.167 1437.12 Q352.785 1430.21 361.501 1430.21 Z" fill="#000000" fill-rule="evenodd" fill-opacity="1" /><path clip-path="url(#clip070)" d="M733.725 1477.09 L745.183 1477.09 L745.183 1437.54 L732.718 1440.04 L732.718 1433.65 L745.114 1431.15 L752.128 1431.15 L752.128 1477.09 L763.586 1477.09 L763.586 1482.99 L733.725 1482.99 L733.725 1477.09 Z" fill="#000000" fill-rule="evenodd" fill-opacity="1" /><path clip-path="url(#clip070)" d="M1126.78 1477.09 L1151.26 1477.09 L1151.26 1482.99 L1118.35 1482.99 L1118.35 1477.09 Q1122.34 1472.95 1129.21 1466.01 Q1136.12 1459.03 1137.89 1457.02 Q1141.26 1453.23 1142.58 1450.63 Q1143.94 1447.99 1143.94 1445.45 Q1143.94 1441.32 1141.02 1438.72 Q1138.14 1436.11 1133.48 1436.11 Q1130.19 1436.11 1126.51 1437.26 Q1122.86 1438.4 1118.69 1440.73 L1118.69 1433.65 Q1122.93 1431.95 1126.61 1431.08 Q1130.29 1430.21 1133.35 1430.21 Q1141.4 1430.21 1146.19 1434.24 Q1150.98 1438.27 1150.98 1445 Q1150.98 1448.2 1149.77 1451.08 Q1148.59 1453.93 1145.43 1457.81 Q1144.56 1458.82 1139.91 1463.65 Q1135.26 1468.44 1126.78 1477.09 Z" fill="#000000" fill-rule="evenodd" fill-opacity="1" /><path clip-path="url(#clip070)" d="M1527.83 1455.04 Q1532.86 1456.11 1535.67 1459.52 Q1538.52 1462.92 1538.52 1467.92 Q1538.52 1475.59 1533.24 1479.79 Q1527.97 1483.99 1518.24 1483.99 Q1514.98 1483.99 1511.51 1483.34 Q1508.07 1482.71 1504.39 1481.43 L1504.39 1474.65 Q1507.31 1476.36 1510.78 1477.22 Q1514.25 1478.09 1518.04 1478.09 Q1524.63 1478.09 1528.07 1475.49 Q1531.54 1472.88 1531.54 1467.92 Q1531.54 1463.34 1528.31 1460.77 Q1525.12 1458.16 1519.39 1458.16 L1513.35 1458.16 L1513.35 1452.4 L1519.67 1452.4 Q1524.84 1452.4 1527.58 1450.35 Q1530.33 1448.27 1530.33 1444.38 Q1530.33 1440.38 1527.48 1438.27 Q1524.67 1436.11 1519.39 1436.11 Q1516.51 1436.11 1513.21 1436.74 Q1509.91 1437.36 1505.95 1438.68 L1505.95 1432.43 Q1509.94 1431.32 1513.42 1430.77 Q1516.92 1430.21 1520.01 1430.21 Q1528 1430.21 1532.65 1433.86 Q1537.31 1437.47 1537.31 1443.65 Q1537.31 1447.95 1534.84 1450.94 Q1532.38 1453.89 1527.83 1455.04 Z" fill="#000000" fill-rule="evenodd" fill-opacity="1" /><path clip-path="url(#clip070)" d="M1912.62 1437.26 L1894.91 1464.93 L1912.62 1464.93 L1912.62 1437.26 M1910.78 1431.15 L1919.6 1431.15 L1919.6 1464.93 L1927 1464.93 L1927 1470.77 L1919.6 1470.77 L1919.6 1482.99 L1912.62 1482.99 L1912.62 1470.77 L1889.22 1470.77 L1889.22 1463.99 L1910.78 1431.15 Z" fill="#000000" fill-rule="evenodd" fill-opacity="1" /><path clip-path="url(#clip070)" d="M2280.17 1431.15 L2307.71 1431.15 L2307.71 1437.05 L2286.6 1437.05 L2286.6 1449.76 Q2288.13 1449.24 2289.65 1448.99 Q2291.18 1448.72 2292.71 1448.72 Q2301.39 1448.72 2306.46 1453.47 Q2311.53 1458.23 2311.53 1466.36 Q2311.53 1474.72 2306.32 1479.38 Q2301.11 1483.99 2291.63 1483.99 Q2288.37 1483.99 2284.97 1483.44 Q2281.6 1482.88 2277.99 1481.77 L2277.99 1474.72 Q2281.11 1476.43 2284.45 1477.26 Q2287.78 1478.09 2291.49 1478.09 Q2297.5 1478.09 2301.01 1474.93 Q2304.52 1471.77 2304.52 1466.36 Q2304.52 1460.94 2301.01 1457.78 Q2297.5 1454.62 2291.49 1454.62 Q2288.68 1454.62 2285.87 1455.24 Q2283.09 1455.87 2280.17 1457.19 L2280.17 1431.15 Z" fill="#000000" fill-rule="evenodd" fill-opacity="1" /><path clip-path="url(#clip070)" d="M1271.74 1527.62 L1271.74 1538.66 L1284.9 1538.66 L1284.9 1543.62 L1271.74 1543.62 L1271.74 1564.74 Q1271.74 1569.49 1273.03 1570.85 Q1274.35 1572.2 1278.34 1572.2 L1284.9 1572.2 L1284.9 1577.55 L1278.34 1577.55 Q1270.94 1577.55 1268.13 1574.8 Q1265.32 1572.03 1265.32 1564.74 L1265.32 1543.62 L1260.63 1543.62 L1260.63 1538.66 L1265.32 1538.66 L1265.32 1527.62 L1271.74 1527.62 Z" fill="#000000" fill-rule="evenodd" fill-opacity="1" /><path clip-path="url(#clip070)" d="M1315.32 1523.52 L1330.04 1523.52 L1330.04 1528.49 L1321.71 1528.49 L1321.71 1581.96 L1330.04 1581.96 L1330.04 1586.92 L1315.32 1586.92 L1315.32 1523.52 Z" fill="#000000" fill-rule="evenodd" fill-opacity="1" /><path clip-path="url(#clip070)" d="M1368.44 1539.8 L1368.44 1545.85 Q1365.73 1544.46 1362.82 1543.76 Q1359.9 1543.07 1356.78 1543.07 Q1352.02 1543.07 1349.62 1544.53 Q1347.26 1545.99 1347.26 1548.9 Q1347.26 1551.12 1348.96 1552.41 Q1350.66 1553.66 1355.8 1554.8 L1357.99 1555.29 Q1364.8 1556.75 1367.64 1559.42 Q1370.53 1562.06 1370.53 1566.82 Q1370.53 1572.24 1366.22 1575.4 Q1361.95 1578.55 1354.45 1578.55 Q1351.32 1578.55 1347.92 1577.93 Q1344.55 1577.34 1340.8 1576.12 L1340.8 1569.53 Q1344.34 1571.37 1347.78 1572.3 Q1351.22 1573.21 1354.59 1573.21 Q1359.1 1573.21 1361.53 1571.68 Q1363.96 1570.12 1363.96 1567.3 Q1363.96 1564.7 1362.19 1563.31 Q1360.46 1561.92 1354.52 1560.64 L1352.3 1560.12 Q1346.36 1558.87 1343.72 1556.3 Q1341.08 1553.69 1341.08 1549.18 Q1341.08 1543.69 1344.97 1540.71 Q1348.86 1537.72 1356.01 1537.72 Q1359.55 1537.72 1362.68 1538.24 Q1365.8 1538.76 1368.44 1539.8 Z" fill="#000000" fill-rule="evenodd" fill-opacity="1" /><path clip-path="url(#clip070)" d="M1395.63 1523.52 L1395.63 1586.92 L1380.91 1586.92 L1380.91 1581.96 L1389.21 1581.96 L1389.21 1528.49 L1380.91 1528.49 L1380.91 1523.52 L1395.63 1523.52 Z" fill="#000000" fill-rule="evenodd" fill-opacity="1" /><polyline clip-path="url(#clip072)" style="stroke:#000000; stroke-linecap:butt; stroke-linejoin:round; stroke-width:2; stroke-opacity:0.1; fill:none" points="
  303.503,1363.25 2352.76,1363.25 
  "/>
<polyline clip-path="url(#clip072)" style="stroke:#000000; stroke-linecap:butt; stroke-linejoin:round; stroke-width:2; stroke-opacity:0.1; fill:none" points="
  303.503,1097.07 2352.76,1097.07 
  "/>
<polyline clip-path="url(#clip072)" style="stroke:#000000; stroke-linecap:butt; stroke-linejoin:round; stroke-width:2; stroke-opacity:0.1; fill:none" points="
  303.503,830.899 2352.76,830.899 
  "/>
<polyline clip-path="url(#clip072)" style="stroke:#000000; stroke-linecap:butt; stroke-linejoin:round; stroke-width:2; stroke-opacity:0.1; fill:none" points="
  303.503,564.724 2352.76,564.724 
  "/>
<polyline clip-path="url(#clip072)" style="stroke:#000000; stroke-linecap:butt; stroke-linejoin:round; stroke-width:2; stroke-opacity:0.1; fill:none" points="
  303.503,298.549 2352.76,298.549 
  "/>
<polyline clip-path="url(#clip070)" style="stroke:#000000; stroke-linecap:butt; stroke-linejoin:round; stroke-width:4; stroke-opacity:1; fill:none" points="
  303.503,1401.58 303.503,47.2441 
  "/>
<polyline clip-path="url(#clip070)" style="stroke:#000000; stroke-linecap:butt; stroke-linejoin:round; stroke-width:4; stroke-opacity:1; fill:none" points="
  303.503,1363.25 328.094,1363.25 
  "/>
<polyline clip-path="url(#clip070)" style="stroke:#000000; stroke-linecap:butt; stroke-linejoin:round; stroke-width:4; stroke-opacity:1; fill:none" points="
  303.503,1097.07 328.094,1097.07 
  "/>
<polyline clip-path="url(#clip070)" style="stroke:#000000; stroke-linecap:butt; stroke-linejoin:round; stroke-width:4; stroke-opacity:1; fill:none" points="
  303.503,830.899 328.094,830.899 
  "/>
<polyline clip-path="url(#clip070)" style="stroke:#000000; stroke-linecap:butt; stroke-linejoin:round; stroke-width:4; stroke-opacity:1; fill:none" points="
  303.503,564.724 328.094,564.724 
  "/>
<polyline clip-path="url(#clip070)" style="stroke:#000000; stroke-linecap:butt; stroke-linejoin:round; stroke-width:4; stroke-opacity:1; fill:none" points="
  303.503,298.549 328.094,298.549 
  "/>
<path clip-path="url(#clip070)" d="M136.497 1341.95 Q131.08 1341.95 128.337 1347.29 Q125.629 1352.61 125.629 1363.3 Q125.629 1373.96 128.337 1379.31 Q131.08 1384.62 136.497 1384.62 Q141.948 1384.62 144.656 1379.31 Q147.399 1373.96 147.399 1363.3 Q147.399 1352.61 144.656 1347.29 Q141.948 1341.95 136.497 1341.95 M136.497 1336.39 Q145.212 1336.39 149.795 1343.3 Q154.413 1350.18 154.413 1363.3 Q154.413 1376.39 149.795 1383.3 Q145.212 1390.18 136.497 1390.18 Q127.781 1390.18 123.163 1383.3 Q118.58 1376.39 118.58 1363.3 Q118.58 1350.18 123.163 1343.3 Q127.781 1336.39 136.497 1336.39 Z" fill="#000000" fill-rule="evenodd" fill-opacity="1" /><path clip-path="url(#clip070)" d="M166.74 1380.35 L174.066 1380.35 L174.066 1389.17 L166.74 1389.17 L166.74 1380.35 Z" fill="#000000" fill-rule="evenodd" fill-opacity="1" /><path clip-path="url(#clip070)" d="M189.413 1337.33 L216.948 1337.33 L216.948 1343.23 L195.837 1343.23 L195.837 1355.94 Q197.364 1355.42 198.892 1355.18 Q200.42 1354.9 201.948 1354.9 Q210.628 1354.9 215.698 1359.66 Q220.767 1364.41 220.767 1372.54 Q220.767 1380.91 215.559 1385.56 Q210.35 1390.18 200.871 1390.18 Q197.608 1390.18 194.205 1389.62 Q190.837 1389.07 187.226 1387.95 L187.226 1380.91 Q190.351 1382.61 193.684 1383.44 Q197.017 1384.27 200.732 1384.27 Q206.739 1384.27 210.246 1381.11 Q213.753 1377.95 213.753 1372.54 Q213.753 1367.12 210.246 1363.96 Q206.739 1360.8 200.732 1360.8 Q197.92 1360.8 195.108 1361.43 Q192.33 1362.05 189.413 1363.37 L189.413 1337.33 Z" fill="#000000" fill-rule="evenodd" fill-opacity="1" /><path clip-path="url(#clip070)" d="M249.586 1341.95 Q244.17 1341.95 241.427 1347.29 Q238.718 1352.61 238.718 1363.3 Q238.718 1373.96 241.427 1379.31 Q244.17 1384.62 249.586 1384.62 Q255.038 1384.62 257.746 1379.31 Q260.489 1373.96 260.489 1363.3 Q260.489 1352.61 257.746 1347.29 Q255.038 1341.95 249.586 1341.95 M249.586 1336.39 Q258.302 1336.39 262.885 1343.3 Q267.503 1350.18 267.503 1363.3 Q267.503 1376.39 262.885 1383.3 Q258.302 1390.18 249.586 1390.18 Q240.871 1390.18 236.253 1383.3 Q231.67 1376.39 231.67 1363.3 Q231.67 1350.18 236.253 1343.3 Q240.871 1336.39 249.586 1336.39 Z" fill="#000000" fill-rule="evenodd" fill-opacity="1" /><path clip-path="url(#clip070)" d="M137.99 1075.77 Q132.573 1075.77 129.83 1081.12 Q127.122 1086.43 127.122 1097.13 Q127.122 1107.79 129.83 1113.13 Q132.573 1118.45 137.99 1118.45 Q143.441 1118.45 146.149 1113.13 Q148.892 1107.79 148.892 1097.13 Q148.892 1086.43 146.149 1081.12 Q143.441 1075.77 137.99 1075.77 M137.99 1070.22 Q146.705 1070.22 151.288 1077.13 Q155.906 1084 155.906 1097.13 Q155.906 1110.22 151.288 1117.13 Q146.705 1124 137.99 1124 Q129.275 1124 124.657 1117.13 Q120.073 1110.22 120.073 1097.13 Q120.073 1084 124.657 1077.13 Q129.275 1070.22 137.99 1070.22 Z" fill="#000000" fill-rule="evenodd" fill-opacity="1" /><path clip-path="url(#clip070)" d="M168.233 1114.17 L175.559 1114.17 L175.559 1122.99 L168.233 1122.99 L168.233 1114.17 Z" fill="#000000" fill-rule="evenodd" fill-opacity="1" /><path clip-path="url(#clip070)" d="M189.066 1071.15 L222.399 1071.15 L222.399 1074.14 L203.58 1122.99 L196.253 1122.99 L213.962 1077.06 L189.066 1077.06 L189.066 1071.15 Z" fill="#000000" fill-rule="evenodd" fill-opacity="1" /><path clip-path="url(#clip070)" d="M236.149 1071.15 L263.684 1071.15 L263.684 1077.06 L242.573 1077.06 L242.573 1089.77 Q244.1 1089.24 245.628 1089 Q247.156 1088.72 248.684 1088.72 Q257.364 1088.72 262.434 1093.48 Q267.503 1098.24 267.503 1106.36 Q267.503 1114.73 262.295 1119.38 Q257.086 1124 247.607 1124 Q244.343 1124 240.941 1123.45 Q237.573 1122.89 233.961 1121.78 L233.961 1114.73 Q237.086 1116.43 240.42 1117.27 Q243.753 1118.1 247.468 1118.1 Q253.475 1118.1 256.982 1114.94 Q260.489 1111.78 260.489 1106.36 Q260.489 1100.95 256.982 1097.79 Q253.475 1094.63 247.468 1094.63 Q244.656 1094.63 241.843 1095.25 Q239.066 1095.88 236.149 1097.2 L236.149 1071.15 Z" fill="#000000" fill-rule="evenodd" fill-opacity="1" /><path clip-path="url(#clip070)" d="M122.712 850.916 L134.17 850.916 L134.17 811.368 L121.705 813.868 L121.705 807.479 L134.101 804.979 L141.115 804.979 L141.115 850.916 L152.573 850.916 L152.573 856.819 L122.712 856.819 L122.712 850.916 Z" fill="#000000" fill-rule="evenodd" fill-opacity="1" /><path clip-path="url(#clip070)" d="M166.74 848 L174.066 848 L174.066 856.819 L166.74 856.819 L166.74 848 Z" fill="#000000" fill-rule="evenodd" fill-opacity="1" /><path clip-path="url(#clip070)" d="M204.344 809.597 Q198.927 809.597 196.184 814.944 Q193.476 820.257 193.476 830.951 Q193.476 841.611 196.184 846.958 Q198.927 852.271 204.344 852.271 Q209.795 852.271 212.503 846.958 Q215.246 841.611 215.246 830.951 Q215.246 820.257 212.503 814.944 Q209.795 809.597 204.344 809.597 M204.344 804.042 Q213.059 804.042 217.642 810.951 Q222.26 817.826 222.26 830.951 Q222.26 844.041 217.642 850.951 Q213.059 857.826 204.344 857.826 Q195.628 857.826 191.01 850.951 Q186.427 844.041 186.427 830.951 Q186.427 817.826 191.01 810.951 Q195.628 804.042 204.344 804.042 Z" fill="#000000" fill-rule="evenodd" fill-opacity="1" /><path clip-path="url(#clip070)" d="M249.586 809.597 Q244.17 809.597 241.427 814.944 Q238.718 820.257 238.718 830.951 Q238.718 841.611 241.427 846.958 Q244.17 852.271 249.586 852.271 Q255.038 852.271 257.746 846.958 Q260.489 841.611 260.489 830.951 Q260.489 820.257 257.746 814.944 Q255.038 809.597 249.586 809.597 M249.586 804.042 Q258.302 804.042 262.885 810.951 Q267.503 817.826 267.503 830.951 Q267.503 844.041 262.885 850.951 Q258.302 857.826 249.586 857.826 Q240.871 857.826 236.253 850.951 Q231.67 844.041 231.67 830.951 Q231.67 817.826 236.253 810.951 Q240.871 804.042 249.586 804.042 Z" fill="#000000" fill-rule="evenodd" fill-opacity="1" /><path clip-path="url(#clip070)" d="M124.205 584.741 L135.663 584.741 L135.663 545.193 L123.198 547.693 L123.198 541.304 L135.594 538.804 L142.608 538.804 L142.608 584.741 L154.066 584.741 L154.066 590.644 L124.205 590.644 L124.205 584.741 Z" fill="#000000" fill-rule="evenodd" fill-opacity="1" /><path clip-path="url(#clip070)" d="M168.233 581.825 L175.559 581.825 L175.559 590.644 L168.233 590.644 L168.233 581.825 Z" fill="#000000" fill-rule="evenodd" fill-opacity="1" /><path clip-path="url(#clip070)" d="M196.878 584.741 L221.357 584.741 L221.357 590.644 L188.441 590.644 L188.441 584.741 Q192.434 580.609 199.309 573.665 Q206.219 566.686 207.989 564.672 Q211.357 560.887 212.677 558.283 Q214.031 555.644 214.031 553.109 Q214.031 548.978 211.114 546.373 Q208.232 543.769 203.58 543.769 Q200.281 543.769 196.601 544.915 Q192.955 546.061 188.788 548.387 L188.788 541.304 Q193.024 539.603 196.705 538.735 Q200.385 537.867 203.441 537.867 Q211.496 537.867 216.288 541.894 Q221.08 545.922 221.08 552.658 Q221.08 555.853 219.864 558.734 Q218.684 561.582 215.524 565.471 Q214.656 566.477 210.003 571.304 Q205.351 576.095 196.878 584.741 Z" fill="#000000" fill-rule="evenodd" fill-opacity="1" /><path clip-path="url(#clip070)" d="M236.149 538.804 L263.684 538.804 L263.684 544.707 L242.573 544.707 L242.573 557.415 Q244.1 556.894 245.628 556.651 Q247.156 556.373 248.684 556.373 Q257.364 556.373 262.434 561.13 Q267.503 565.887 267.503 574.012 Q267.503 582.38 262.295 587.033 Q257.086 591.651 247.607 591.651 Q244.343 591.651 240.941 591.095 Q237.573 590.54 233.961 589.429 L233.961 582.38 Q237.086 584.082 240.42 584.915 Q243.753 585.748 247.468 585.748 Q253.475 585.748 256.982 582.588 Q260.489 579.429 260.489 574.012 Q260.489 568.596 256.982 565.436 Q253.475 562.276 247.468 562.276 Q244.656 562.276 241.843 562.901 Q239.066 563.526 236.149 564.846 L236.149 538.804 Z" fill="#000000" fill-rule="evenodd" fill-opacity="1" /><path clip-path="url(#clip070)" d="M122.712 318.566 L134.17 318.566 L134.17 279.018 L121.705 281.518 L121.705 275.129 L134.101 272.629 L141.115 272.629 L141.115 318.566 L152.573 318.566 L152.573 324.469 L122.712 324.469 L122.712 318.566 Z" fill="#000000" fill-rule="evenodd" fill-opacity="1" /><path clip-path="url(#clip070)" d="M166.74 315.649 L174.066 315.649 L174.066 324.469 L166.74 324.469 L166.74 315.649 Z" fill="#000000" fill-rule="evenodd" fill-opacity="1" /><path clip-path="url(#clip070)" d="M189.413 272.629 L216.948 272.629 L216.948 278.532 L195.837 278.532 L195.837 291.24 Q197.364 290.719 198.892 290.476 Q200.42 290.198 201.948 290.198 Q210.628 290.198 215.698 294.955 Q220.767 299.712 220.767 307.837 Q220.767 316.205 215.559 320.858 Q210.35 325.476 200.871 325.476 Q197.608 325.476 194.205 324.92 Q190.837 324.365 187.226 323.254 L187.226 316.205 Q190.351 317.906 193.684 318.74 Q197.017 319.573 200.732 319.573 Q206.739 319.573 210.246 316.413 Q213.753 313.254 213.753 307.837 Q213.753 302.42 210.246 299.261 Q206.739 296.101 200.732 296.101 Q197.92 296.101 195.108 296.726 Q192.33 297.351 189.413 298.67 L189.413 272.629 Z" fill="#000000" fill-rule="evenodd" fill-opacity="1" /><path clip-path="url(#clip070)" d="M249.586 277.247 Q244.17 277.247 241.427 282.594 Q238.718 287.907 238.718 298.601 Q238.718 309.261 241.427 314.608 Q244.17 319.92 249.586 319.92 Q255.038 319.92 257.746 314.608 Q260.489 309.261 260.489 298.601 Q260.489 287.907 257.746 282.594 Q255.038 277.247 249.586 277.247 M249.586 271.691 Q258.302 271.691 262.885 278.601 Q267.503 285.476 267.503 298.601 Q267.503 311.691 262.885 318.601 Q258.302 325.476 249.586 325.476 Q240.871 325.476 236.253 318.601 Q231.67 311.691 231.67 298.601 Q231.67 285.476 236.253 278.601 Q240.871 271.691 249.586 271.691 Z" fill="#000000" fill-rule="evenodd" fill-opacity="1" /><path clip-path="url(#clip070)" d="M35.6047 1006.89 Q31.2992 1004.5 29.2506 1001.16 Q27.202 997.831 27.202 993.317 Q27.202 987.24 31.4728 983.942 Q35.7089 980.643 43.5561 980.643 L67.0282 980.643 L67.0282 987.067 L43.7644 987.067 Q38.1741 987.067 35.4658 989.046 Q32.7575 991.025 32.7575 995.088 Q32.7575 1000.05 36.0561 1002.93 Q39.3547 1005.82 45.0491 1005.82 L67.0282 1005.82 L67.0282 1012.24 L43.7644 1012.24 Q38.1394 1012.24 35.4658 1014.22 Q32.7575 1016.2 32.7575 1020.33 Q32.7575 1025.23 36.0908 1028.11 Q39.3894 1030.99 45.0491 1030.99 L67.0282 1030.99 L67.0282 1037.41 L28.1395 1037.41 L28.1395 1030.99 L34.1811 1030.99 Q30.6047 1028.8 28.9034 1025.75 Q27.202 1022.69 27.202 1018.49 Q27.202 1014.25 29.3547 1011.3 Q31.5075 1008.32 35.6047 1006.89 Z" fill="#000000" fill-rule="evenodd" fill-opacity="1" /><path clip-path="url(#clip070)" d="M47.4797 950.227 Q47.4797 957.97 49.2505 960.956 Q51.0213 963.942 55.2921 963.942 Q58.6949 963.942 60.7087 961.72 Q62.6879 959.463 62.6879 955.609 Q62.6879 950.296 58.9379 947.102 Q55.1532 943.873 48.9033 943.873 L47.4797 943.873 L47.4797 950.227 M44.8408 937.484 L67.0282 937.484 L67.0282 943.873 L61.1254 943.873 Q64.6671 946.06 66.3684 949.324 Q68.0351 952.588 68.0351 957.31 Q68.0351 963.282 64.7018 966.824 Q61.3337 970.331 55.7088 970.331 Q49.1463 970.331 45.813 965.956 Q42.4797 961.546 42.4797 952.831 L42.4797 943.873 L41.8547 943.873 Q37.445 943.873 35.0492 946.789 Q32.6186 949.671 32.6186 954.914 Q32.6186 958.248 33.4172 961.407 Q34.2158 964.567 35.813 967.484 L29.9103 967.484 Q28.5561 963.977 27.8964 960.678 Q27.202 957.379 27.202 954.254 Q27.202 945.817 31.577 941.65 Q35.9519 937.484 44.8408 937.484 Z" fill="#000000" fill-rule="evenodd" fill-opacity="1" /><path clip-path="url(#clip070)" d="M29.2853 899.533 L35.3269 899.533 Q33.9381 902.241 33.2436 905.158 Q32.5492 908.074 32.5492 911.199 Q32.5492 915.956 34.0075 918.352 Q35.4658 920.713 38.3825 920.713 Q40.6047 920.713 41.8894 919.012 Q43.1394 917.31 44.2852 912.171 L44.7713 909.984 Q46.2297 903.178 48.9033 900.331 Q51.5421 897.449 56.299 897.449 Q61.7157 897.449 64.8754 901.755 Q68.0351 906.026 68.0351 913.526 Q68.0351 916.651 67.4101 920.053 Q66.8198 923.421 65.6046 927.171 L59.0074 927.171 Q60.8476 923.63 61.7851 920.192 Q62.6879 916.755 62.6879 913.387 Q62.6879 908.873 61.1601 906.442 Q59.5976 904.012 56.7852 904.012 Q54.181 904.012 52.7921 905.783 Q51.4032 907.519 50.1185 913.456 L49.5977 915.678 Q48.3477 921.616 45.7783 924.255 Q43.1741 926.894 38.6603 926.894 Q33.1742 926.894 30.1881 923.005 Q27.202 919.116 27.202 911.963 Q27.202 908.421 27.7228 905.296 Q28.2436 902.171 29.2853 899.533 Z" fill="#000000" fill-rule="evenodd" fill-opacity="1" /><path clip-path="url(#clip070)" d="M29.2853 862.484 L35.3269 862.484 Q33.9381 865.192 33.2436 868.109 Q32.5492 871.026 32.5492 874.151 Q32.5492 878.908 34.0075 881.303 Q35.4658 883.665 38.3825 883.665 Q40.6047 883.665 41.8894 881.963 Q43.1394 880.262 44.2852 875.123 L44.7713 872.935 Q46.2297 866.13 48.9033 863.283 Q51.5421 860.401 56.299 860.401 Q61.7157 860.401 64.8754 864.706 Q68.0351 868.977 68.0351 876.477 Q68.0351 879.602 67.4101 883.005 Q66.8198 886.373 65.6046 890.123 L59.0074 890.123 Q60.8476 886.581 61.7851 883.144 Q62.6879 879.706 62.6879 876.338 Q62.6879 871.824 61.1601 869.394 Q59.5976 866.963 56.7852 866.963 Q54.181 866.963 52.7921 868.734 Q51.4032 870.47 50.1185 876.408 L49.5977 878.63 Q48.3477 884.567 45.7783 887.206 Q43.1741 889.845 38.6603 889.845 Q33.1742 889.845 30.1881 885.956 Q27.202 882.067 27.202 874.915 Q27.202 871.373 27.7228 868.248 Q28.2436 865.123 29.2853 862.484 Z" fill="#000000" fill-rule="evenodd" fill-opacity="1" /><path clip-path="url(#clip070)" d="M61.1949 821.443 L81.8197 821.443 L81.8197 827.866 L28.1395 827.866 L28.1395 821.443 L34.0422 821.443 Q30.57 819.429 28.9034 816.373 Q27.202 813.283 27.202 809.012 Q27.202 801.929 32.827 797.519 Q38.4519 793.075 47.6185 793.075 Q56.7852 793.075 62.4101 797.519 Q68.0351 801.929 68.0351 809.012 Q68.0351 813.283 66.3684 816.373 Q64.6671 819.429 61.1949 821.443 M47.6185 799.707 Q40.57 799.707 36.5769 802.623 Q32.5492 805.505 32.5492 810.575 Q32.5492 815.644 36.5769 818.561 Q40.57 821.443 47.6185 821.443 Q54.6671 821.443 58.6949 818.561 Q62.6879 815.644 62.6879 810.575 Q62.6879 805.505 58.6949 802.623 Q54.6671 799.707 47.6185 799.707 Z" fill="#000000" fill-rule="evenodd" fill-opacity="1" /><path clip-path="url(#clip070)" d="M32.6186 767.415 Q32.6186 772.554 36.6464 775.54 Q40.6394 778.526 47.6185 778.526 Q54.5977 778.526 58.6254 775.575 Q62.6185 772.589 62.6185 767.415 Q62.6185 762.311 58.5907 759.325 Q54.5629 756.339 47.6185 756.339 Q40.7089 756.339 36.6811 759.325 Q32.6186 762.311 32.6186 767.415 M27.202 767.415 Q27.202 759.082 32.6186 754.325 Q38.0353 749.568 47.6185 749.568 Q57.1671 749.568 62.6185 754.325 Q68.0351 759.082 68.0351 767.415 Q68.0351 775.783 62.6185 780.54 Q57.1671 785.262 47.6185 785.262 Q38.0353 785.262 32.6186 780.54 Q27.202 775.783 27.202 767.415 Z" fill="#000000" fill-rule="evenodd" fill-opacity="1" /><path clip-path="url(#clip070)" d="M29.2853 714.186 L35.3269 714.186 Q33.9381 716.895 33.2436 719.811 Q32.5492 722.728 32.5492 725.853 Q32.5492 730.61 34.0075 733.006 Q35.4658 735.367 38.3825 735.367 Q40.6047 735.367 41.8894 733.665 Q43.1394 731.964 44.2852 726.825 L44.7713 724.638 Q46.2297 717.832 48.9033 714.985 Q51.5421 712.103 56.299 712.103 Q61.7157 712.103 64.8754 716.409 Q68.0351 720.679 68.0351 728.179 Q68.0351 731.304 67.4101 734.707 Q66.8198 738.075 65.6046 741.825 L59.0074 741.825 Q60.8476 738.283 61.7851 734.846 Q62.6879 731.408 62.6879 728.04 Q62.6879 723.527 61.1601 721.096 Q59.5976 718.665 56.7852 718.665 Q54.181 718.665 52.7921 720.436 Q51.4032 722.172 50.1185 728.11 L49.5977 730.332 Q48.3477 736.27 45.7783 738.908 Q43.1741 741.547 38.6603 741.547 Q33.1742 741.547 30.1881 737.658 Q27.202 733.77 27.202 726.617 Q27.202 723.075 27.7228 719.95 Q28.2436 716.825 29.2853 714.186 Z" fill="#000000" fill-rule="evenodd" fill-opacity="1" /><path clip-path="url(#clip070)" d="M28.1395 701.929 L28.1395 695.541 L67.0282 695.541 L67.0282 701.929 L28.1395 701.929 M13.0007 701.929 L13.0007 695.541 L21.0909 695.541 L21.0909 701.929 L13.0007 701.929 Z" fill="#000000" fill-rule="evenodd" fill-opacity="1" /><path clip-path="url(#clip070)" d="M17.0979 675.853 L28.1395 675.853 L28.1395 662.694 L33.1047 662.694 L33.1047 675.853 L54.2157 675.853 Q58.9726 675.853 60.3268 674.568 Q61.681 673.249 61.681 669.256 L61.681 662.694 L67.0282 662.694 L67.0282 669.256 Q67.0282 676.652 64.2851 679.464 Q61.5074 682.277 54.2157 682.277 L33.1047 682.277 L33.1047 686.964 L28.1395 686.964 L28.1395 682.277 L17.0979 682.277 L17.0979 675.853 Z" fill="#000000" fill-rule="evenodd" fill-opacity="1" /><path clip-path="url(#clip070)" d="M28.1395 654.291 L28.1395 647.902 L67.0282 647.902 L67.0282 654.291 L28.1395 654.291 M13.0007 654.291 L13.0007 647.902 L21.0909 647.902 L21.0909 654.291 L13.0007 654.291 Z" fill="#000000" fill-rule="evenodd" fill-opacity="1" /><path clip-path="url(#clip070)" d="M32.6186 619.465 Q32.6186 624.603 36.6464 627.59 Q40.6394 630.576 47.6185 630.576 Q54.5977 630.576 58.6254 627.624 Q62.6185 624.638 62.6185 619.465 Q62.6185 614.36 58.5907 611.374 Q54.5629 608.388 47.6185 608.388 Q40.7089 608.388 36.6811 611.374 Q32.6186 614.36 32.6186 619.465 M27.202 619.465 Q27.202 611.131 32.6186 606.374 Q38.0353 601.617 47.6185 601.617 Q57.1671 601.617 62.6185 606.374 Q68.0351 611.131 68.0351 619.465 Q68.0351 627.833 62.6185 632.59 Q57.1671 637.312 47.6185 637.312 Q38.0353 637.312 32.6186 632.59 Q27.202 627.833 27.202 619.465 Z" fill="#000000" fill-rule="evenodd" fill-opacity="1" /><path clip-path="url(#clip070)" d="M43.5561 558.701 L67.0282 558.701 L67.0282 565.09 L43.7644 565.09 Q38.2436 565.09 35.5005 567.243 Q32.7575 569.395 32.7575 573.701 Q32.7575 578.875 36.0561 581.861 Q39.3547 584.847 45.0491 584.847 L67.0282 584.847 L67.0282 591.27 L28.1395 591.27 L28.1395 584.847 L34.1811 584.847 Q30.6742 582.555 28.9381 579.465 Q27.202 576.34 27.202 572.277 Q27.202 565.576 31.3686 562.139 Q35.5005 558.701 43.5561 558.701 Z" fill="#000000" fill-rule="evenodd" fill-opacity="1" /><path clip-path="url(#clip070)" d="M13.0007 523.944 L13.0007 509.222 L17.9659 509.222 L17.9659 517.555 L71.4379 517.555 L71.4379 509.222 L76.4031 509.222 L76.4031 523.944 L13.0007 523.944 Z" fill="#000000" fill-rule="evenodd" fill-opacity="1" /><path clip-path="url(#clip070)" d="M35.6047 465.333 Q31.2992 462.938 29.2506 459.604 Q27.202 456.271 27.202 451.757 Q27.202 445.681 31.4728 442.382 Q35.7089 439.084 43.5561 439.084 L67.0282 439.084 L67.0282 445.507 L43.7644 445.507 Q38.1741 445.507 35.4658 447.486 Q32.7575 449.466 32.7575 453.528 Q32.7575 458.493 36.0561 461.375 Q39.3547 464.257 45.0491 464.257 L67.0282 464.257 L67.0282 470.681 L43.7644 470.681 Q38.1394 470.681 35.4658 472.66 Q32.7575 474.639 32.7575 478.771 Q32.7575 483.667 36.0908 486.549 Q39.3894 489.431 45.0491 489.431 L67.0282 489.431 L67.0282 495.854 L28.1395 495.854 L28.1395 489.431 L34.1811 489.431 Q30.6047 487.243 28.9034 484.188 Q27.202 481.132 27.202 476.931 Q27.202 472.695 29.3547 469.743 Q31.5075 466.757 35.6047 465.333 Z" fill="#000000" fill-rule="evenodd" fill-opacity="1" /><path clip-path="url(#clip070)" d="M13.0007 411.41 L76.4031 411.41 L76.4031 426.132 L71.4379 426.132 L71.4379 417.834 L17.9659 417.834 L17.9659 426.132 L13.0007 426.132 L13.0007 411.41 Z" fill="#000000" fill-rule="evenodd" fill-opacity="1" /><polyline clip-path="url(#clip072)" style="stroke:#009af9; stroke-linecap:butt; stroke-linejoin:round; stroke-width:8; stroke-opacity:1; fill:none" points="
  361.501,1363.25 365.367,1362.93 369.234,1361.97 373.1,1360.38 376.967,1358.14 380.833,1355.28 384.7,1351.79 388.566,1347.66 392.433,1342.92 396.299,1337.56 
  400.166,1331.58 404.032,1325 407.899,1317.81 411.765,1310.04 415.632,1301.68 419.498,1292.74 423.365,1283.23 427.231,1273.17 431.098,1262.55 434.964,1251.4 
  438.831,1239.73 442.698,1227.53 446.564,1214.83 450.431,1201.64 454.297,1187.98 458.164,1173.85 462.03,1159.26 465.897,1144.25 469.763,1128.81 473.63,1112.97 
  477.496,1096.74 481.363,1080.14 485.229,1063.18 489.096,1045.88 492.962,1028.26 496.829,1010.34 500.695,992.133 504.562,973.658 508.428,954.933 512.295,935.977 
  516.161,916.811 520.028,897.452 523.894,877.919 527.761,858.233 531.627,838.414 535.494,818.481 539.36,798.453 543.227,778.351 547.093,758.195 550.96,738.006 
  554.826,717.803 558.693,697.606 562.559,677.437 566.426,657.315 570.293,637.259 574.159,617.29 578.026,597.429 581.892,577.695 585.759,558.107 589.625,538.686 
  593.492,519.451 597.358,500.42 601.225,481.613 605.091,463.05 608.958,444.747 612.824,426.725 616.691,409 620.557,391.59 624.424,374.514 628.29,357.787 
  632.157,341.426 636.023,325.449 639.89,309.871 643.756,294.708 647.623,279.973 651.489,265.684 655.356,251.853 659.222,238.495 663.089,225.623 666.955,213.249 
  670.822,201.387 674.688,190.048 678.555,179.243 682.421,168.983 686.288,159.279 690.154,150.14 694.021,141.575 697.887,133.593 701.754,126.203 705.621,119.41 
  709.487,113.222 713.354,107.645 717.22,102.685 721.087,98.3472 724.953,94.6352 728.82,91.553 732.686,89.1038 736.553,87.2898 740.419,86.1129 744.286,85.5744 
  748.152,85.6748 752.019,86.4139 755.885,87.791 759.752,89.8048 763.618,92.4532 767.485,95.7336 771.351,99.6427 775.218,104.177 779.084,109.331 782.951,115.1 
  786.817,121.479 790.684,128.46 794.55,136.038 798.417,144.204 802.283,152.951 806.15,162.269 810.016,172.15 813.883,182.583 817.749,193.558 821.616,205.063 
  825.482,217.088 829.349,229.621 833.216,242.648 837.082,256.156 840.949,270.133 844.815,284.564 848.682,299.435 852.548,314.73 856.415,330.436 860.281,346.535 
  864.148,363.012 868.014,379.85 871.881,397.033 875.747,414.543 879.614,432.363 883.48,450.475 887.347,468.861 891.213,487.503 895.08,506.381 898.946,525.478 
  902.813,544.774 906.679,564.249 910.546,583.884 914.412,603.66 918.279,623.557 922.145,643.556 926.012,663.635 929.878,683.775 933.745,703.955 937.611,724.156 
  941.478,744.357 945.344,764.539 949.211,784.682 953.077,804.764 956.944,824.765 960.811,844.666 964.677,864.447 968.544,884.086 972.41,903.567 976.277,922.869 
  980.143,941.973 984.01,960.859 987.876,979.508 991.743,997.901 995.609,1016.02 999.476,1033.85 1003.34,1051.37 1007.21,1068.56 1011.08,1085.4 1014.94,1101.89 
  1018.81,1118 1022.67,1133.71 1026.54,1149.02 1030.41,1163.9 1034.27,1178.34 1038.14,1192.32 1042.01,1205.84 1045.87,1218.87 1049.74,1231.41 1053.61,1243.45 
  1057.47,1254.96 1061.34,1265.95 1065.21,1276.39 1069.07,1286.28 1072.94,1295.61 1076.81,1304.37 1080.67,1312.54 1084.54,1320.13 1088.41,1327.13 1092.27,1333.52 
  1096.14,1339.3 1100.01,1344.47 1103.87,1349.01 1107.74,1352.93 1111.6,1356.23 1115.47,1358.89 1119.34,1360.92 1123.2,1362.31 1127.07,1363.06 1130.94,1363.17 
  1134.8,1362.65 1138.67,1361.49 1142.54,1359.69 1146.4,1357.25 1150.27,1354.19 1154.14,1350.49 1158,1346.16 1161.87,1341.22 1165.74,1335.65 1169.6,1329.48 
  1173.47,1322.7 1177.34,1315.33 1181.2,1307.36 1185.07,1298.81 1188.93,1289.68 1192.8,1279.99 1196.67,1269.74 1200.53,1258.95 1204.4,1247.63 1208.27,1235.78 
  1212.13,1223.42 1216,1210.56 1219.87,1197.21 1223.73,1183.39 1227.6,1169.12 1231.47,1154.39 1235.33,1139.24 1239.2,1123.68 1243.07,1107.71 1246.93,1091.37 
  1250.8,1074.65 1254.67,1057.58 1258.53,1040.19 1262.4,1022.47 1266.27,1004.46 1270.13,986.17 1274,967.617 1277.86,948.82 1281.73,929.799 1285.6,910.573 
  1289.46,891.161 1293.33,871.583 1297.2,851.859 1301.06,832.006 1304.93,812.045 1308.8,791.997 1312.66,771.882 1316.53,751.719 1320.4,731.53 1324.26,711.334 
  1328.13,691.152 1332,671.002 1335.86,650.905 1339.73,630.882 1343.6,610.954 1347.46,591.138 1351.33,571.457 1355.2,551.928 1359.06,532.573 1362.93,513.409 
  1366.79,494.456 1370.66,475.733 1374.53,457.26 1378.39,439.053 1382.26,421.132 1386.13,403.515 1389.99,386.219 1393.86,369.261 1397.73,352.658 1401.59,336.428 
  1405.46,320.585 1409.33,305.147 1413.19,290.127 1417.06,275.542 1420.93,261.407 1424.79,247.734 1428.66,234.539 1432.53,221.834 1436.39,209.631 1440.26,197.943 
  1444.12,186.78 1447.99,176.156 1451.86,166.081 1455.72,156.565 1459.59,147.617 1463.46,139.245 1467.32,131.459 1471.19,124.264 1475.06,117.67 1478.92,111.683 
  1482.79,106.31 1486.66,101.555 1490.52,97.4234 1494.39,93.9183 1498.26,91.0433 1502.12,88.8011 1505.99,87.1936 1509.86,86.2257 1513.72,85.8961 1517.59,86.2052 
  1521.46,87.1523 1525.32,88.7365 1529.19,90.9559 1533.05,93.8078 1536.92,97.2902 1540.79,101.402 1544.65,106.136 1548.52,111.489 1552.39,117.455 1556.25,124.027 
  1560.12,131.199 1563.99,138.963 1567.85,147.314 1571.72,156.243 1575.59,165.74 1579.45,175.796 1583.32,186.4 1587.19,197.541 1591.05,209.209 1594.92,221.391 
  1598.79,234.077 1602.65,247.255 1606.52,260.91 1610.39,275.027 1614.25,289.595 1618.12,304.596 1621.98,320.016 1625.85,335.84 1629.72,352.054 1633.58,368.641 
  1637.45,385.584 1641.32,402.865 1645.18,420.467 1649.05,438.373 1652.92,456.563 1656.78,475.022 1660.65,493.732 1664.52,512.672 1668.38,531.823 1672.25,551.167 
  1676.12,570.684 1679.98,590.354 1683.85,610.157 1687.72,630.075 1691.58,650.088 1695.45,670.175 1699.31,690.316 1703.18,710.491 1707.05,730.679 1710.91,750.861 
  1714.78,771.016 1718.65,791.125 1722.51,811.167 1726.38,831.122 1730.25,850.971 1734.11,870.692 1737.98,890.267 1741.85,909.676 1745.71,928.899 1749.58,947.918 
  1753.45,966.714 1757.31,985.267 1761.18,1003.56 1765.05,1021.57 1768.91,1039.29 1772.78,1056.69 1776.65,1073.76 1780.51,1090.47 1784.38,1106.83 1788.24,1122.8 
  1792.11,1138.37 1795.98,1153.52 1799.84,1168.25 1803.71,1182.54 1807.58,1196.36 1811.44,1209.71 1815.31,1222.58 1819.18,1234.95 1823.04,1246.81 1826.91,1258.15 
  1830.78,1268.95 1834.64,1279.21 1838.51,1288.91 1842.38,1298.05 1846.24,1306.62 1850.11,1314.6 1853.98,1321.99 1857.84,1328.79 1861.71,1334.98 1865.58,1340.56 
  1869.44,1345.52 1873.31,1349.86 1877.17,1353.58 1881.04,1356.67 1884.91,1359.12 1888.77,1360.94 1892.64,1362.13 1896.51,1362.68 1900.37,1362.59 1904.24,1361.86 
  1908.11,1360.49 1911.97,1358.49 1915.84,1355.85 1919.71,1352.59 1923.57,1348.69 1927.44,1344.17 1931.31,1339.04 1935.17,1333.28 1939.04,1326.92 1942.91,1319.96 
  1946.77,1312.4 1950.64,1304.25 1954.5,1295.52 1958.37,1286.22 1962.24,1276.36 1966.1,1265.95 1969.97,1255 1973.84,1243.51 1977.7,1231.51 1981.57,1219 
  1985.44,1205.99 1989.3,1192.5 1993.17,1178.55 1997.04,1164.14 2000.9,1149.29 2004.77,1134.02 2008.64,1118.34 2012.5,1102.26 2016.37,1085.8 2020.24,1068.99 
  2024.1,1051.83 2027.97,1034.34 2031.84,1016.54 2035.7,998.455 2039.57,980.091 2043.43,961.472 2047.3,942.617 2051.17,923.543 2055.03,904.269 2058.9,884.816 
  2062.77,865.203 2066.63,845.449 2070.5,825.574 2074.37,805.598 2078.23,785.54 2082.1,765.422 2085.97,745.263 2089.83,725.083 2093.7,704.902 2097.57,684.741 
  2101.43,664.619 2105.3,644.557 2109.17,624.576 2113.03,604.694 2116.9,584.932 2120.77,565.309 2124.63,545.846 2128.5,526.561 2132.36,507.474 2136.23,488.604 
  2140.1,469.97 2143.96,451.591 2147.83,433.484 2151.7,415.668 2155.56,398.161 2159.43,380.981 2163.3,364.143 2167.16,347.667 2171.03,331.566 2174.9,315.859 
  2178.76,300.56 2182.63,285.685 2186.5,271.249 2190.36,257.266 2194.23,243.751 2198.1,230.716 2201.96,218.174 2205.83,206.139 2209.69,194.622 2213.56,183.635 
  2217.43,173.189 2221.29,163.294 2225.16,153.959 2229.03,145.196 2232.89,137.012 2236.76,129.415 2240.63,122.413 2244.49,116.013 2248.36,110.222 2252.23,105.044 
  2256.09,100.487 2259.96,96.5526 2263.83,93.2463 2267.69,90.5709 2271.56,88.5297 2275.43,87.1245 2279.29,86.3566 2283.16,86.2266 2287.03,86.7345 2290.89,87.8799 
  2294.76,89.6624 
  "/>
<polyline clip-path="url(#clip072)" style="stroke:#e26f46; stroke-linecap:butt; stroke-linejoin:round; stroke-width:8; stroke-opacity:1; fill:none" points="
  361.501,1363.25 365.367,1363.02 369.234,1362.34 373.1,1361.19 376.967,1359.59 380.833,1357.52 384.7,1354.99 388.566,1351.99 392.433,1348.54 396.299,1344.61 
  400.166,1340.23 404.032,1335.39 407.899,1330.1 411.765,1324.35 415.632,1318.16 419.498,1311.53 423.365,1304.46 427.231,1296.96 431.098,1289.04 434.964,1280.7 
  438.831,1271.96 442.698,1262.81 446.564,1253.28 450.431,1243.36 454.297,1233.07 458.164,1222.41 462.03,1211.4 465.897,1200.05 469.763,1188.37 473.63,1176.37 
  477.496,1164.06 481.363,1151.46 485.229,1138.57 489.096,1125.41 492.962,1111.99 496.829,1098.33 500.695,1084.44 504.562,1070.33 508.428,1056.02 512.295,1041.52 
  516.161,1026.85 520.028,1012.01 523.894,997.032 527.761,981.924 531.627,966.704 535.494,951.387 539.36,935.992 543.227,920.525 547.093,905.007 550.96,889.453 
  554.826,873.88 558.693,858.302 562.559,842.733 566.426,827.191 570.293,811.689 574.159,796.245 578.026,780.872 581.892,765.586 585.759,750.403 589.625,735.337 
  593.492,720.405 597.358,705.62 601.225,690.997 605.091,676.552 608.958,662.298 612.824,648.251 616.691,634.423 620.557,620.829 624.424,607.483 628.29,594.398 
  632.157,581.588 636.023,569.064 639.89,556.84 643.756,544.929 647.623,533.343 651.489,522.093 655.356,511.19 659.222,500.646 663.089,490.472 666.955,480.679 
  670.822,471.275 674.688,462.272 678.555,453.68 682.421,445.506 686.288,437.761 690.154,430.452 694.021,423.588 697.887,417.177 701.754,411.226 705.621,405.742 
  709.487,400.734 713.354,396.206 717.22,392.165 721.087,388.618 724.953,385.571 728.82,383.028 732.686,380.995 736.553,379.479 740.419,378.483 744.286,378.012 
  748.152,378.044 752.019,378.463 755.885,379.259 759.752,380.434 763.618,381.992 767.485,383.932 771.351,386.255 775.218,388.962 779.084,392.051 782.951,395.522 
  786.817,399.373 790.684,403.601 794.55,408.205 798.417,413.179 802.283,418.522 806.15,424.23 810.016,430.296 813.883,436.718 817.749,443.488 821.616,450.601 
  825.482,458.051 829.349,465.83 833.216,473.933 837.082,482.35 840.949,491.074 844.815,500.097 848.682,509.409 852.548,519.001 856.415,528.865 860.281,538.994 
  864.148,549.375 868.014,559.999 871.881,570.855 875.747,581.933 879.614,593.222 883.48,604.71 887.347,616.386 891.213,628.238 895.08,640.254 898.946,652.423 
  902.813,664.732 906.679,677.169 910.546,689.722 914.412,702.378 918.279,715.125 922.145,727.949 926.012,740.839 929.878,753.782 933.745,766.764 937.611,779.772 
  941.478,792.794 945.344,805.817 949.211,818.828 953.077,831.813 956.944,844.759 960.811,857.653 964.677,870.483 968.544,883.237 972.41,895.9 976.277,908.46 
  980.143,920.903 984.01,933.22 987.876,945.396 991.743,957.42 995.609,969.278 999.476,980.959 1003.34,992.452 1007.21,1003.75 1011.08,1014.83 1014.94,1025.69 
  1018.81,1036.31 1022.67,1046.69 1026.54,1056.81 1030.41,1066.67 1034.27,1076.25 1038.14,1085.55 1042.01,1094.55 1045.87,1103.25 1049.74,1111.63 1053.61,1119.69 
  1057.47,1127.42 1061.34,1134.8 1065.21,1141.84 1069.07,1148.53 1072.94,1154.85 1076.81,1160.8 1080.67,1166.37 1084.54,1171.56 1088.41,1176.36 1092.27,1180.76 
  1096.14,1184.75 1100.01,1188.34 1103.87,1191.52 1107.74,1194.27 1111.6,1196.6 1115.47,1198.5 1119.34,1199.97 1123.2,1201 1127.07,1201.59 1130.94,1201.73 
  1134.8,1201.53 1138.67,1201.03 1142.54,1200.24 1146.4,1199.15 1150.27,1197.76 1154.14,1196.08 1158,1194.09 1161.87,1191.81 1165.74,1189.22 1169.6,1186.34 
  1173.47,1183.16 1177.34,1179.68 1181.2,1175.91 1185.07,1171.85 1188.93,1167.5 1192.8,1162.87 1196.67,1157.96 1200.53,1152.77 1204.4,1147.31 1208.27,1141.58 
  1212.13,1135.59 1216,1129.33 1219.87,1122.83 1223.73,1116.07 1227.6,1109.08 1231.47,1101.85 1235.33,1094.39 1239.2,1086.71 1243.07,1078.82 1246.93,1070.73 
  1250.8,1062.43 1254.67,1053.95 1258.53,1045.28 1262.4,1036.45 1266.27,1027.44 1270.13,1018.29 1274,1008.98 1277.86,999.537 1281.73,989.966 1285.6,980.275 
  1289.46,970.476 1293.33,960.576 1297.2,950.585 1301.06,940.513 1304.93,930.37 1308.8,920.168 1312.66,909.917 1316.53,899.628 1320.4,889.308 1324.26,878.966 
  1328.13,868.616 1332,858.269 1335.86,847.933 1339.73,837.622 1343.6,827.344 1347.46,817.109 1351.33,806.926 1355.2,796.807 1359.06,786.763 1362.93,776.803 
  1366.79,766.938 1370.66,757.178 1374.53,747.531 1378.39,738.008 1382.26,728.619 1386.13,719.373 1389.99,710.28 1393.86,701.347 1397.73,692.586 1401.59,684.005 
  1405.46,675.613 1409.33,667.418 1413.19,659.429 1417.06,651.653 1420.93,644.1 1424.79,636.777 1428.66,629.692 1432.53,622.854 1436.39,616.268 1440.26,609.942 
  1444.12,603.884 1447.99,598.099 1451.86,592.595 1455.72,587.379 1459.59,582.455 1463.46,577.831 1467.32,573.512 1471.19,569.503 1475.06,565.81 1478.92,562.438 
  1482.79,559.392 1486.66,556.677 1490.52,554.298 1494.39,552.257 1498.26,550.561 1502.12,549.211 1505.99,548.213 1509.86,547.57 1513.72,547.286 1517.59,547.327 
  1521.46,547.577 1525.32,548.033 1529.19,548.697 1533.05,549.57 1536.92,550.653 1540.79,551.946 1544.65,553.449 1548.52,555.163 1552.39,557.087 1556.25,559.221 
  1560.12,561.563 1563.99,564.114 1567.85,566.87 1571.72,569.831 1575.59,572.995 1579.45,576.359 1583.32,579.922 1587.19,583.681 1591.05,587.632 1594.92,591.773 
  1598.79,596.101 1602.65,600.61 1606.52,605.297 1610.39,610.159 1614.25,615.193 1618.12,620.395 1621.98,625.758 1625.85,631.277 1629.72,636.95 1633.58,642.769 
  1637.45,648.729 1641.32,654.825 1645.18,661.051 1649.05,667.401 1652.92,673.868 1656.78,680.447 1660.65,687.131 1664.52,693.913 1668.38,700.788 1672.25,707.748 
  1676.12,714.787 1679.98,721.898 1683.85,729.074 1687.72,736.308 1691.58,743.592 1695.45,750.92 1699.31,758.284 1703.18,765.678 1707.05,773.094 1710.91,780.524 
  1714.78,787.96 1718.65,795.396 1722.51,802.824 1726.38,810.237 1730.25,817.627 1734.11,824.986 1737.98,832.307 1741.85,839.583 1745.71,846.806 1749.58,853.97 
  1753.45,861.066 1757.31,868.087 1761.18,875.027 1765.05,881.877 1768.91,888.632 1772.78,895.284 1776.65,901.826 1780.51,908.252 1784.38,914.554 1788.24,920.727 
  1792.11,926.763 1795.98,932.656 1799.84,938.4 1803.71,943.989 1807.58,949.416 1811.44,954.676 1815.31,959.763 1819.18,964.672 1823.04,969.395 1826.91,973.93 
  1830.78,978.269 1834.64,982.408 1838.51,986.342 1842.38,990.066 1846.24,993.576 1850.11,996.866 1853.98,999.933 1857.84,1002.77 1861.71,1005.38 1865.58,1007.75 
  1869.44,1009.88 1873.31,1011.77 1877.17,1013.42 1881.04,1014.81 1884.91,1015.95 1888.77,1016.83 1892.64,1017.45 1896.51,1017.82 1900.37,1017.91 1904.24,1017.84 
  1908.11,1017.66 1911.97,1017.38 1915.84,1016.98 1919.71,1016.48 1923.57,1015.86 1927.44,1015.14 1931.31,1014.3 1935.17,1013.35 1939.04,1012.29 1942.91,1011.12 
  1946.77,1009.83 1950.64,1008.44 1954.5,1006.94 1958.37,1005.33 1962.24,1003.61 1966.1,1001.79 1969.97,999.855 1973.84,997.819 1977.7,995.681 1981.57,993.441 
  1985.44,991.101 1989.3,988.661 1993.17,986.126 1997.04,983.497 2000.9,980.775 2004.77,977.961 2008.64,975.061 2012.5,972.076 2016.37,969.007 2020.24,965.857 
  2024.1,962.63 2027.97,959.329 2031.84,955.955 2035.7,952.513 2039.57,949.005 2043.43,945.435 2047.3,941.805 2051.17,938.12 2055.03,934.383 2058.9,930.597 
  2062.77,926.765 2066.63,922.892 2070.5,918.981 2074.37,915.036 2078.23,911.06 2082.1,907.058 2085.97,903.033 2089.83,898.99 2093.7,894.932 2097.57,890.863 
  2101.43,886.788 2105.3,882.71 2109.17,878.633 2113.03,874.563 2116.9,870.501 2120.77,866.454 2124.63,862.424 2128.5,858.417 2132.36,854.435 2136.23,850.484 
  2140.1,846.567 2143.96,842.689 2147.83,838.853 2151.7,835.063 2155.56,831.325 2159.43,827.64 2163.3,824.014 2167.16,820.451 2171.03,816.954 2174.9,813.527 
  2178.76,810.174 2182.63,806.898 2186.5,803.704 2190.36,800.594 2194.23,797.573 2198.1,794.644 2201.96,791.81 2205.83,789.075 2209.69,786.442 2213.56,783.913 
  2217.43,781.493 2221.29,779.185 2225.16,776.991 2229.03,774.914 2232.89,772.957 2236.76,771.122 2240.63,769.414 2244.49,767.833 2248.36,766.382 2252.23,765.065 
  2256.09,763.882 2259.96,762.837 2263.83,761.932 2267.69,761.168 2271.56,760.547 2275.43,760.071 2279.29,759.743 2283.16,759.564 2287.03,759.528 2290.89,759.528 
  2294.76,759.528 
  "/>
<polyline clip-path="url(#clip072)" style="stroke:#3da44d; stroke-linecap:butt; stroke-linejoin:round; stroke-width:8; stroke-opacity:1; fill:none" points="
  361.501,1363.25 365.367,1352.1 369.234,1340.95 373.1,1329.8 376.967,1318.65 380.833,1307.49 384.7,1296.33 388.566,1285.18 392.433,1274.02 396.299,1262.87 
  400.166,1251.72 404.032,1240.57 407.899,1229.44 411.765,1218.31 415.632,1207.18 419.498,1196.08 423.365,1184.98 427.231,1173.9 431.098,1162.84 434.964,1151.8 
  438.831,1140.79 442.698,1129.81 446.564,1118.86 450.431,1107.95 454.297,1097.07 458.164,1086.25 462.03,1075.48 465.897,1064.76 469.763,1054.11 473.63,1043.53 
  477.496,1033.03 481.363,1022.61 485.229,1012.29 489.096,1002.08 492.962,991.974 496.829,981.996 500.695,972.15 504.562,962.447 508.428,952.898 512.295,943.513 
  516.161,934.303 520.028,925.279 523.894,916.454 527.761,907.838 531.627,899.445 535.494,891.287 539.36,883.371 543.227,875.706 547.093,868.298 550.96,861.154 
  554.826,854.277 558.693,847.671 562.559,841.34 566.426,835.284 570.293,829.503 574.159,823.997 578.026,818.764 581.892,813.8 585.759,809.101 589.625,804.662 
  593.492,800.476 597.358,796.535 601.225,792.831 605.091,789.354 608.958,786.093 612.824,783.051 616.691,780.268 620.557,777.721 624.424,775.385 628.29,773.236 
  632.157,771.252 636.023,769.413 639.89,767.701 643.756,766.099 647.623,764.592 651.489,763.168 655.356,761.816 659.222,760.527 663.089,759.293 666.955,758.109 
  670.822,756.971 674.688,755.877 678.555,754.828 682.421,753.825 686.288,752.872 690.154,751.974 694.021,751.139 697.887,750.375 701.754,749.695 705.621,749.11 
  709.487,748.635 713.354,748.287 717.22,748.083 721.087,748.018 724.953,747.992 728.82,747.993 732.686,748.021 736.553,748.073 740.419,748.149 744.286,748.247 
  748.152,748.366 752.019,748.505 755.885,748.663 759.752,748.839 763.618,749.031 767.485,749.239 771.351,749.462 775.218,749.699 779.084,749.948 782.951,750.209 
  786.817,750.482 790.684,750.764 794.55,751.056 798.417,751.357 802.283,751.667 806.15,751.985 810.016,752.311 813.883,752.646 817.749,752.988 821.616,753.338 
  825.482,753.696 829.349,754.061 833.216,754.433 837.082,754.811 840.949,755.196 844.815,755.587 848.682,755.984 852.548,756.387 856.415,756.795 860.281,757.208 
  864.148,757.626 868.014,758.049 871.881,758.475 875.747,758.905 879.614,759.339 883.48,759.776 887.347,760.215 891.213,760.657 895.08,761.101 898.946,761.547 
  902.813,761.994 906.679,762.444 910.546,762.896 914.412,763.351 918.279,763.808 922.145,764.268 926.012,764.729 929.878,765.193 933.745,765.659 937.611,766.127 
  941.478,766.597 945.344,767.069 949.211,767.542 953.077,768.018 956.944,768.495 960.811,768.974 964.677,769.454 968.544,769.936 972.41,770.419 976.277,770.903 
  980.143,771.389 984.01,771.876 987.876,772.364 991.743,772.853 995.609,773.343 999.476,773.834 1003.34,774.326 1007.21,774.818 1011.08,775.311 1014.94,775.804 
  1018.81,776.298 1022.67,776.793 1026.54,777.288 1030.41,777.783 1034.27,778.279 1038.14,778.775 1042.01,779.272 1045.87,779.769 1049.74,780.267 1053.61,780.764 
  1057.47,781.262 1061.34,781.761 1065.21,782.259 1069.07,782.757 1072.94,783.256 1076.81,783.755 1080.67,784.253 1084.54,784.752 1088.41,785.251 1092.27,785.749 
  1096.14,786.248 1100.01,786.746 1103.87,787.244 1107.74,787.742 1111.6,788.24 1115.47,788.738 1119.34,789.235 1123.2,789.732 1127.07,790.228 1130.94,790.724 
  1134.8,791.22 1138.67,791.715 1142.54,792.209 1146.4,792.704 1150.27,793.197 1154.14,793.69 1158,794.182 1161.87,794.674 1165.74,795.165 1169.6,795.655 
  1173.47,796.145 1177.34,796.633 1181.2,797.121 1185.07,797.608 1188.93,798.094 1192.8,798.58 1196.67,799.065 1200.53,799.549 1204.4,800.034 1208.27,800.518 
  1212.13,801.001 1216,801.483 1219.87,801.965 1223.73,802.445 1227.6,802.925 1231.47,803.404 1235.33,803.882 1239.2,804.359 1243.07,804.834 1246.93,805.308 
  1250.8,805.781 1254.67,806.253 1258.53,806.723 1262.4,807.192 1266.27,807.659 1270.13,808.125 1274,808.589 1277.86,809.052 1281.73,809.513 1285.6,809.972 
  1289.46,810.43 1293.33,810.886 1297.2,811.34 1301.06,811.792 1304.93,812.242 1308.8,812.691 1312.66,813.138 1316.53,813.583 1320.4,814.026 1324.26,814.468 
  1328.13,814.907 1332,815.345 1335.86,815.78 1339.73,816.214 1343.6,816.646 1347.46,817.076 1351.33,817.505 1355.2,817.931 1359.06,818.356 1362.93,818.778 
  1366.79,819.199 1370.66,819.619 1374.53,820.036 1378.39,820.452 1382.26,820.866 1386.13,821.279 1389.99,821.69 1393.86,822.099 1397.73,822.507 1401.59,822.913 
  1405.46,823.318 1409.33,823.721 1413.19,824.123 1417.06,824.524 1420.93,824.924 1424.79,825.322 1428.66,825.719 1432.53,826.115 1436.39,826.511 1440.26,826.905 
  1444.12,827.298 1447.99,827.689 1451.86,828.079 1455.72,828.467 1459.59,828.853 1463.46,829.238 1467.32,829.62 1471.19,830.001 1475.06,830.381 1478.92,830.758 
  1482.79,831.133 1486.66,831.507 1490.52,831.878 1494.39,832.248 1498.26,832.615 1502.12,832.981 1505.99,833.344 1509.86,833.705 1513.72,834.065 1517.59,834.422 
  1521.46,834.777 1525.32,835.13 1529.19,835.481 1533.05,835.83 1536.92,836.177 1540.79,836.522 1544.65,836.864 1548.52,837.205 1552.39,837.543 1556.25,837.879 
  1560.12,838.214 1563.99,838.546 1567.85,838.876 1571.72,839.204 1575.59,839.529 1579.45,839.853 1583.32,840.175 1587.19,840.495 1591.05,840.813 1594.92,841.129 
  1598.79,841.443 1602.65,841.755 1606.52,842.065 1610.39,842.373 1614.25,842.68 1618.12,842.984 1621.98,843.287 1625.85,843.588 1629.72,843.888 1633.58,844.185 
  1637.45,844.482 1641.32,844.776 1645.18,845.069 1649.05,845.361 1652.92,845.651 1656.78,845.94 1660.65,846.227 1664.52,846.513 1668.38,846.798 1672.25,847.081 
  1676.12,847.362 1679.98,847.642 1683.85,847.92 1687.72,848.197 1691.58,848.472 1695.45,848.745 1699.31,849.017 1703.18,849.287 1707.05,849.555 1710.91,849.821 
  1714.78,850.085 1718.65,850.348 1722.51,850.608 1726.38,850.867 1730.25,851.124 1734.11,851.379 1737.98,851.632 1741.85,851.883 1745.71,852.132 1749.58,852.379 
  1753.45,852.624 1757.31,852.867 1761.18,853.108 1765.05,853.347 1768.91,853.584 1772.78,853.82 1776.65,854.053 1780.51,854.284 1784.38,854.513 1788.24,854.741 
  1792.11,854.966 1795.98,855.189 1799.84,855.411 1803.71,855.631 1807.58,855.848 1811.44,856.064 1815.31,856.278 1819.18,856.491 1823.04,856.701 1826.91,856.91 
  1830.78,857.117 1834.64,857.322 1838.51,857.525 1842.38,857.727 1846.24,857.928 1850.11,858.126 1853.98,858.323 1857.84,858.519 1861.71,858.713 1865.58,858.906 
  1869.44,859.097 1873.31,859.288 1877.17,859.476 1881.04,859.664 1884.91,859.85 1888.77,860.035 1892.64,860.22 1896.51,860.403 1900.37,860.585 1904.24,860.766 
  1908.11,860.946 1911.97,861.126 1915.84,861.305 1919.71,861.483 1923.57,861.661 1927.44,861.837 1931.31,862.012 1935.17,862.186 1939.04,862.359 1942.91,862.531 
  1946.77,862.701 1950.64,862.871 1954.5,863.039 1958.37,863.206 1962.24,863.372 1966.1,863.536 1969.97,863.699 1973.84,863.861 1977.7,864.022 1981.57,864.181 
  1985.44,864.339 1989.3,864.495 1993.17,864.651 1997.04,864.805 2000.9,864.957 2004.77,865.108 2008.64,865.258 2012.5,865.406 2016.37,865.553 2020.24,865.699 
  2024.1,865.843 2027.97,865.986 2031.84,866.127 2035.7,866.267 2039.57,866.406 2043.43,866.543 2047.3,866.679 2051.17,866.814 2055.03,866.947 2058.9,867.079 
  2062.77,867.21 2066.63,867.339 2070.5,867.467 2074.37,867.594 2078.23,867.72 2082.1,867.844 2085.97,867.967 2089.83,868.089 2093.7,868.209 2097.57,868.329 
  2101.43,868.447 2105.3,868.565 2109.17,868.681 2113.03,868.796 2116.9,868.91 2120.77,869.023 2124.63,869.135 2128.5,869.246 2132.36,869.356 2136.23,869.466 
  2140.1,869.574 2143.96,869.682 2147.83,869.789 2151.7,869.895 2155.56,870.001 2159.43,870.106 2163.3,870.21 2167.16,870.314 2171.03,870.417 2174.9,870.519 
  2178.76,870.622 2182.63,870.724 2186.5,870.825 2190.36,870.926 2194.23,871.027 2198.1,871.127 2201.96,871.226 2205.83,871.324 2209.69,871.422 2213.56,871.519 
  2217.43,871.614 2221.29,871.709 2225.16,871.804 2229.03,871.897 2232.89,871.99 2236.76,872.082 2240.63,872.173 2244.49,872.263 2248.36,872.353 2252.23,872.442 
  2256.09,872.53 2259.96,872.617 2263.83,872.704 2267.69,872.79 2271.56,872.875 2275.43,872.96 2279.29,873.044 2283.16,873.127 2287.03,873.209 2290.89,873.291 
  2294.76,873.372 
  "/>
<path clip-path="url(#clip070)" d="
M1670.5 1356.44 L2284.45 1356.44 L2284.45 993.555 L1670.5 993.555  Z
  " fill="#ffffff" fill-rule="evenodd" fill-opacity="1"/>
<polyline clip-path="url(#clip070)" style="stroke:#000000; stroke-linecap:butt; stroke-linejoin:round; stroke-width:4; stroke-opacity:1; fill:none" points="
  1670.5,1356.44 2284.45,1356.44 2284.45,993.555 1670.5,993.555 1670.5,1356.44 
  "/>
<polyline clip-path="url(#clip070)" style="stroke:#009af9; stroke-linecap:butt; stroke-linejoin:round; stroke-width:6; stroke-opacity:1; fill:none" points="
  1693.27,1084.28 1829.89,1084.28 
  "/>
<path clip-path="url(#clip070)" d="M1886.03 1060.06 L1886.03 1066.9 Q1882.04 1064.99 1878.49 1064.05 Q1874.95 1063.11 1871.65 1063.11 Q1865.92 1063.11 1862.8 1065.33 Q1859.71 1067.56 1859.71 1071.65 Q1859.71 1075.09 1861.76 1076.86 Q1863.84 1078.6 1869.6 1079.67 L1873.84 1080.54 Q1881.69 1082.04 1885.4 1085.82 Q1889.15 1089.57 1889.15 1095.89 Q1889.15 1103.42 1884.08 1107.31 Q1879.05 1111.2 1869.29 1111.2 Q1865.61 1111.2 1861.45 1110.37 Q1857.31 1109.54 1852.87 1107.9 L1852.87 1100.68 Q1857.14 1103.08 1861.24 1104.29 Q1865.33 1105.51 1869.29 1105.51 Q1875.3 1105.51 1878.56 1103.15 Q1881.83 1100.79 1881.83 1096.41 Q1881.83 1092.59 1879.47 1090.44 Q1877.14 1088.29 1871.79 1087.21 L1867.52 1086.38 Q1859.67 1084.81 1856.17 1081.48 Q1852.66 1078.15 1852.66 1072.21 Q1852.66 1065.33 1857.49 1061.38 Q1862.35 1057.42 1870.85 1057.42 Q1874.5 1057.42 1878.29 1058.08 Q1882.07 1058.74 1886.03 1060.06 Z" fill="#000000" fill-rule="evenodd" fill-opacity="1" /><path clip-path="url(#clip070)" d="M1899.81 1071.31 L1906.2 1071.31 L1906.2 1110.2 L1899.81 1110.2 L1899.81 1071.31 M1899.81 1056.17 L1906.2 1056.17 L1906.2 1064.26 L1899.81 1064.26 L1899.81 1056.17 Z" fill="#000000" fill-rule="evenodd" fill-opacity="1" /><path clip-path="url(#clip070)" d="M1949.85 1078.77 Q1952.24 1074.47 1955.58 1072.42 Q1958.91 1070.37 1963.42 1070.37 Q1969.5 1070.37 1972.8 1074.64 Q1976.1 1078.88 1976.1 1086.72 L1976.1 1110.2 L1969.67 1110.2 L1969.67 1086.93 Q1969.67 1081.34 1967.69 1078.63 Q1965.72 1075.92 1961.65 1075.92 Q1956.69 1075.92 1953.81 1079.22 Q1950.92 1082.52 1950.92 1088.22 L1950.92 1110.2 L1944.5 1110.2 L1944.5 1086.93 Q1944.5 1081.31 1942.52 1078.63 Q1940.54 1075.92 1936.41 1075.92 Q1931.51 1075.92 1928.63 1079.26 Q1925.75 1082.56 1925.75 1088.22 L1925.75 1110.2 L1919.33 1110.2 L1919.33 1071.31 L1925.75 1071.31 L1925.75 1077.35 Q1927.94 1073.77 1930.99 1072.07 Q1934.05 1070.37 1938.25 1070.37 Q1942.49 1070.37 1945.44 1072.52 Q1948.42 1074.67 1949.85 1078.77 Z" fill="#000000" fill-rule="evenodd" fill-opacity="1" /><path clip-path="url(#clip070)" d="M1995.02 1104.36 L1995.02 1124.99 L1988.6 1124.99 L1988.6 1071.31 L1995.02 1071.31 L1995.02 1077.21 Q1997.03 1073.74 2000.09 1072.07 Q2003.18 1070.37 2007.45 1070.37 Q2014.53 1070.37 2018.94 1075.99 Q2023.39 1081.62 2023.39 1090.79 Q2023.39 1099.95 2018.94 1105.58 Q2014.53 1111.2 2007.45 1111.2 Q2003.18 1111.2 2000.09 1109.54 Q1997.03 1107.83 1995.02 1104.36 M2016.76 1090.79 Q2016.76 1083.74 2013.84 1079.74 Q2010.96 1075.72 2005.89 1075.72 Q2000.82 1075.72 1997.9 1079.74 Q1995.02 1083.74 1995.02 1090.79 Q1995.02 1097.83 1997.9 1101.86 Q2000.82 1105.86 2005.89 1105.86 Q2010.96 1105.86 2013.84 1101.86 Q2016.76 1097.83 2016.76 1090.79 Z" fill="#000000" fill-rule="evenodd" fill-opacity="1" /><path clip-path="url(#clip070)" d="M2033.98 1056.17 L2040.37 1056.17 L2040.37 1110.2 L2033.98 1110.2 L2033.98 1056.17 Z" fill="#000000" fill-rule="evenodd" fill-opacity="1" /><path clip-path="url(#clip070)" d="M2087 1089.15 L2087 1092.28 L2057.62 1092.28 Q2058.04 1098.88 2061.58 1102.35 Q2065.16 1105.79 2071.51 1105.79 Q2075.19 1105.79 2078.63 1104.88 Q2082.1 1103.98 2085.51 1102.17 L2085.51 1108.22 Q2082.07 1109.67 2078.46 1110.44 Q2074.85 1111.2 2071.13 1111.2 Q2061.83 1111.2 2056.37 1105.79 Q2050.96 1100.37 2050.96 1091.13 Q2050.96 1081.58 2056.1 1075.99 Q2061.27 1070.37 2070.02 1070.37 Q2077.87 1070.37 2082.42 1075.44 Q2087 1080.47 2087 1089.15 M2080.61 1087.28 Q2080.54 1082.04 2077.66 1078.91 Q2074.81 1075.79 2070.09 1075.79 Q2064.74 1075.79 2061.51 1078.81 Q2058.32 1081.83 2057.83 1087.31 L2080.61 1087.28 Z" fill="#000000" fill-rule="evenodd" fill-opacity="1" /><path clip-path="url(#clip070)" d="M2097.76 1058.36 L2127.55 1058.36 L2127.55 1064.26 L2104.78 1064.26 L2104.78 1079.54 L2125.33 1079.54 L2125.33 1085.44 L2104.78 1085.44 L2104.78 1110.2 L2097.76 1110.2 L2097.76 1058.36 Z" fill="#000000" fill-rule="evenodd" fill-opacity="1" /><path clip-path="url(#clip070)" d="M2138.67 1058.36 L2149.12 1058.36 L2162.35 1093.63 L2175.64 1058.36 L2186.1 1058.36 L2186.1 1110.2 L2179.26 1110.2 L2179.26 1064.67 L2165.89 1100.23 L2158.84 1100.23 L2145.47 1064.67 L2145.47 1110.2 L2138.67 1110.2 L2138.67 1058.36 Z" fill="#000000" fill-rule="evenodd" fill-opacity="1" /><path clip-path="url(#clip070)" d="M2199.22 1058.36 L2206.27 1058.36 L2206.27 1089.85 Q2206.27 1098.18 2209.29 1101.86 Q2212.31 1105.51 2219.08 1105.51 Q2225.82 1105.51 2228.84 1101.86 Q2231.86 1098.18 2231.86 1089.85 L2231.86 1058.36 L2238.91 1058.36 L2238.91 1090.72 Q2238.91 1100.86 2233.87 1106.03 Q2228.87 1111.2 2219.08 1111.2 Q2209.26 1111.2 2204.22 1106.03 Q2199.22 1100.86 2199.22 1090.72 L2199.22 1058.36 Z" fill="#000000" fill-rule="evenodd" fill-opacity="1" /><polyline clip-path="url(#clip070)" style="stroke:#e26f46; stroke-linecap:butt; stroke-linejoin:round; stroke-width:6; stroke-opacity:1; fill:none" points="
  1693.27,1175 1829.89,1175 
  "/>
<path clip-path="url(#clip070)" d="M1877.24 1176.61 Q1879.5 1177.37 1881.62 1179.87 Q1883.77 1182.37 1885.92 1186.75 L1893.04 1200.92 L1885.51 1200.92 L1878.88 1187.62 Q1876.31 1182.41 1873.88 1180.71 Q1871.48 1179.01 1867.31 1179.01 L1859.67 1179.01 L1859.67 1200.92 L1852.66 1200.92 L1852.66 1149.08 L1868.49 1149.08 Q1877.38 1149.08 1881.76 1152.79 Q1886.13 1156.51 1886.13 1164.01 Q1886.13 1168.9 1883.84 1172.13 Q1881.58 1175.36 1877.24 1176.61 M1859.67 1154.84 L1859.67 1173.24 L1868.49 1173.24 Q1873.56 1173.24 1876.13 1170.92 Q1878.74 1168.55 1878.74 1164.01 Q1878.74 1159.46 1876.13 1157.17 Q1873.56 1154.84 1868.49 1154.84 L1859.67 1154.84 Z" fill="#000000" fill-rule="evenodd" fill-opacity="1" /><path clip-path="url(#clip070)" d="M1931.86 1179.87 L1931.86 1183 L1902.49 1183 Q1902.9 1189.6 1906.45 1193.07 Q1910.02 1196.51 1916.38 1196.51 Q1920.06 1196.51 1923.49 1195.6 Q1926.97 1194.7 1930.37 1192.89 L1930.37 1198.94 Q1926.93 1200.39 1923.32 1201.16 Q1919.71 1201.92 1915.99 1201.92 Q1906.69 1201.92 1901.24 1196.51 Q1895.82 1191.09 1895.82 1181.85 Q1895.82 1172.3 1900.96 1166.71 Q1906.13 1161.09 1914.88 1161.09 Q1922.73 1161.09 1927.28 1166.16 Q1931.86 1171.19 1931.86 1179.87 M1925.47 1178 Q1925.4 1172.76 1922.52 1169.63 Q1919.67 1166.51 1914.95 1166.51 Q1909.6 1166.51 1906.38 1169.53 Q1903.18 1172.55 1902.7 1178.03 L1925.47 1178 Z" fill="#000000" fill-rule="evenodd" fill-opacity="1" /><path clip-path="url(#clip070)" d="M1960.02 1181.37 Q1952.28 1181.37 1949.29 1183.14 Q1946.31 1184.91 1946.31 1189.18 Q1946.31 1192.58 1948.53 1194.6 Q1950.79 1196.58 1954.64 1196.58 Q1959.95 1196.58 1963.15 1192.83 Q1966.38 1189.04 1966.38 1182.79 L1966.38 1181.37 L1960.02 1181.37 M1972.76 1178.73 L1972.76 1200.92 L1966.38 1200.92 L1966.38 1195.01 Q1964.19 1198.55 1960.92 1200.26 Q1957.66 1201.92 1952.94 1201.92 Q1946.97 1201.92 1943.42 1198.59 Q1939.92 1195.22 1939.92 1189.6 Q1939.92 1183.03 1944.29 1179.7 Q1948.7 1176.37 1957.42 1176.37 L1966.38 1176.37 L1966.38 1175.74 Q1966.38 1171.33 1963.46 1168.94 Q1960.58 1166.51 1955.33 1166.51 Q1952 1166.51 1948.84 1167.3 Q1945.68 1168.1 1942.76 1169.7 L1942.76 1163.8 Q1946.27 1162.44 1949.57 1161.78 Q1952.87 1161.09 1955.99 1161.09 Q1964.43 1161.09 1968.6 1165.46 Q1972.76 1169.84 1972.76 1178.73 Z" fill="#000000" fill-rule="evenodd" fill-opacity="1" /><path clip-path="url(#clip070)" d="M1985.92 1146.89 L1992.31 1146.89 L1992.31 1200.92 L1985.92 1200.92 L1985.92 1146.89 Z" fill="#000000" fill-rule="evenodd" fill-opacity="1" /><path clip-path="url(#clip070)" d="M2005.96 1149.08 L2035.75 1149.08 L2035.75 1154.98 L2012.97 1154.98 L2012.97 1170.26 L2033.53 1170.26 L2033.53 1176.16 L2012.97 1176.16 L2012.97 1200.92 L2005.96 1200.92 L2005.96 1149.08 Z" fill="#000000" fill-rule="evenodd" fill-opacity="1" /><path clip-path="url(#clip070)" d="M2046.86 1149.08 L2057.31 1149.08 L2070.54 1184.35 L2083.84 1149.08 L2094.29 1149.08 L2094.29 1200.92 L2087.45 1200.92 L2087.45 1155.39 L2074.08 1190.95 L2067.03 1190.95 L2053.67 1155.39 L2053.67 1200.92 L2046.86 1200.92 L2046.86 1149.08 Z" fill="#000000" fill-rule="evenodd" fill-opacity="1" /><path clip-path="url(#clip070)" d="M2107.42 1149.08 L2114.46 1149.08 L2114.46 1180.57 Q2114.46 1188.9 2117.49 1192.58 Q2120.51 1196.23 2127.28 1196.23 Q2134.01 1196.23 2137.03 1192.58 Q2140.05 1188.9 2140.05 1180.57 L2140.05 1149.08 L2147.1 1149.08 L2147.1 1181.44 Q2147.1 1191.58 2142.07 1196.75 Q2137.07 1201.92 2127.28 1201.92 Q2117.45 1201.92 2112.42 1196.75 Q2107.42 1191.58 2107.42 1181.44 L2107.42 1149.08 Z" fill="#000000" fill-rule="evenodd" fill-opacity="1" /><polyline clip-path="url(#clip070)" style="stroke:#3da44d; stroke-linecap:butt; stroke-linejoin:round; stroke-width:6; stroke-opacity:1; fill:none" points="
  1693.27,1265.72 1829.89,1265.72 
  "/>
<path clip-path="url(#clip070)" d="M1852.66 1239.8 L1862.1 1239.8 L1885.09 1283.16 L1885.09 1239.8 L1891.9 1239.8 L1891.9 1291.64 L1882.45 1291.64 L1859.47 1248.27 L1859.47 1291.64 L1852.66 1291.64 L1852.66 1239.8 Z" fill="#000000" fill-rule="evenodd" fill-opacity="1" /><path clip-path="url(#clip070)" d="M1938.84 1270.59 L1938.84 1273.72 L1909.47 1273.72 Q1909.88 1280.32 1913.42 1283.79 Q1917 1287.23 1923.35 1287.23 Q1927.04 1287.23 1930.47 1286.32 Q1933.94 1285.42 1937.35 1283.61 L1937.35 1289.66 Q1933.91 1291.11 1930.3 1291.88 Q1926.69 1292.64 1922.97 1292.64 Q1913.67 1292.64 1908.22 1287.23 Q1902.8 1281.81 1902.8 1272.57 Q1902.8 1263.02 1907.94 1257.43 Q1913.11 1251.81 1921.86 1251.81 Q1929.71 1251.81 1934.26 1256.88 Q1938.84 1261.91 1938.84 1270.59 M1932.45 1268.72 Q1932.38 1263.48 1929.5 1260.35 Q1926.65 1257.23 1921.93 1257.23 Q1916.58 1257.23 1913.35 1260.25 Q1910.16 1263.27 1909.67 1268.75 L1932.45 1268.72 Z" fill="#000000" fill-rule="evenodd" fill-opacity="1" /><path clip-path="url(#clip070)" d="M1948.67 1276.29 L1948.67 1252.75 L1955.06 1252.75 L1955.06 1276.05 Q1955.06 1281.57 1957.21 1284.34 Q1959.36 1287.09 1963.67 1287.09 Q1968.84 1287.09 1971.83 1283.79 Q1974.85 1280.49 1974.85 1274.8 L1974.85 1252.75 L1981.24 1252.75 L1981.24 1291.64 L1974.85 1291.64 L1974.85 1285.66 Q1972.52 1289.2 1969.43 1290.94 Q1966.38 1292.64 1962.31 1292.64 Q1955.61 1292.64 1952.14 1288.48 Q1948.67 1284.31 1948.67 1276.29 M1964.74 1251.81 L1964.74 1251.81 Z" fill="#000000" fill-rule="evenodd" fill-opacity="1" /><path clip-path="url(#clip070)" d="M2016.93 1258.72 Q2015.85 1258.09 2014.57 1257.82 Q2013.32 1257.5 2011.79 1257.5 Q2006.38 1257.5 2003.46 1261.05 Q2000.58 1264.55 2000.58 1271.15 L2000.58 1291.64 L1994.15 1291.64 L1994.15 1252.75 L2000.58 1252.75 L2000.58 1258.79 Q2002.59 1255.25 2005.82 1253.55 Q2009.05 1251.81 2013.67 1251.81 Q2014.33 1251.81 2015.12 1251.91 Q2015.92 1251.98 2016.9 1252.16 L2016.93 1258.72 Z" fill="#000000" fill-rule="evenodd" fill-opacity="1" /><path clip-path="url(#clip070)" d="M2041.31 1272.09 Q2033.56 1272.09 2030.58 1273.86 Q2027.59 1275.63 2027.59 1279.9 Q2027.59 1283.3 2029.81 1285.32 Q2032.07 1287.3 2035.92 1287.3 Q2041.24 1287.3 2044.43 1283.55 Q2047.66 1279.76 2047.66 1273.51 L2047.66 1272.09 L2041.31 1272.09 M2054.05 1269.45 L2054.05 1291.64 L2047.66 1291.64 L2047.66 1285.73 Q2045.47 1289.27 2042.21 1290.98 Q2038.94 1292.64 2034.22 1292.64 Q2028.25 1292.64 2024.71 1289.31 Q2021.2 1285.94 2021.2 1280.32 Q2021.2 1273.75 2025.58 1270.42 Q2029.99 1267.09 2038.7 1267.09 L2047.66 1267.09 L2047.66 1266.46 Q2047.66 1262.05 2044.74 1259.66 Q2041.86 1257.23 2036.62 1257.23 Q2033.28 1257.23 2030.12 1258.02 Q2026.97 1258.82 2024.05 1260.42 L2024.05 1254.52 Q2027.56 1253.16 2030.85 1252.5 Q2034.15 1251.81 2037.28 1251.81 Q2045.72 1251.81 2049.88 1256.18 Q2054.05 1260.56 2054.05 1269.45 Z" fill="#000000" fill-rule="evenodd" fill-opacity="1" /><path clip-path="url(#clip070)" d="M2067.21 1237.61 L2073.6 1237.61 L2073.6 1291.64 L2067.21 1291.64 L2067.21 1237.61 Z" fill="#000000" fill-rule="evenodd" fill-opacity="1" /><path clip-path="url(#clip070)" d="M2087.24 1239.8 L2117.03 1239.8 L2117.03 1245.7 L2094.26 1245.7 L2094.26 1260.98 L2114.81 1260.98 L2114.81 1266.88 L2094.26 1266.88 L2094.26 1291.64 L2087.24 1291.64 L2087.24 1239.8 Z" fill="#000000" fill-rule="evenodd" fill-opacity="1" /><path clip-path="url(#clip070)" d="M2128.15 1239.8 L2138.6 1239.8 L2151.83 1275.07 L2165.12 1239.8 L2175.58 1239.8 L2175.58 1291.64 L2168.74 1291.64 L2168.74 1246.11 L2155.37 1281.67 L2148.32 1281.67 L2134.95 1246.11 L2134.95 1291.64 L2128.15 1291.64 L2128.15 1239.8 Z" fill="#000000" fill-rule="evenodd" fill-opacity="1" /><path clip-path="url(#clip070)" d="M2188.7 1239.8 L2195.75 1239.8 L2195.75 1271.29 Q2195.75 1279.62 2198.77 1283.3 Q2201.79 1286.95 2208.56 1286.95 Q2215.3 1286.95 2218.32 1283.3 Q2221.34 1279.62 2221.34 1271.29 L2221.34 1239.8 L2228.39 1239.8 L2228.39 1272.16 Q2228.39 1282.3 2223.35 1287.47 Q2218.35 1292.64 2208.56 1292.64 Q2198.74 1292.64 2193.7 1287.47 Q2188.7 1282.3 2188.7 1272.16 L2188.7 1239.8 Z" fill="#000000" fill-rule="evenodd" fill-opacity="1" /></svg>
