<?xml version="1.0" encoding="utf-8"?>
<svg xmlns="http://www.w3.org/2000/svg" xmlns:xlink="http://www.w3.org/1999/xlink" width="600" height="400" viewBox="0 0 2400 1600">
<defs>
  <clipPath id="clip950">
    <rect x="0" y="0" width="2400" height="1600"/>
  </clipPath>
</defs>
<path clip-path="url(#clip950)" d="M0 1600 L2400 1600 L2400 0 L0 0  Z" fill="#ffffff" fill-rule="evenodd" fill-opacity="1"/>
<defs>
  <clipPath id="clip951">
    <rect x="480" y="0" width="1681" height="1600"/>
  </clipPath>
</defs>
<path clip-path="url(#clip950)" d="M303.503 1401.58 L2352.76 1401.58 L2352.76 123.472 L303.503 123.472  Z" fill="#ffffff" fill-rule="evenodd" fill-opacity="1"/>
<defs>
  <clipPath id="clip952">
    <rect x="303" y="123" width="2050" height="1279"/>
  </clipPath>
</defs>
<polyline clip-path="url(#clip952)" style="stroke:#000000; stroke-linecap:round; stroke-linejoin:round; stroke-width:2; stroke-opacity:0.1; fill:none" points="361.501,1401.58 361.501,123.472 "/>
<polyline clip-path="url(#clip952)" style="stroke:#000000; stroke-linecap:round; stroke-linejoin:round; stroke-width:2; stroke-opacity:0.1; fill:none" points="844.815,1401.58 844.815,123.472 "/>
<polyline clip-path="url(#clip952)" style="stroke:#000000; stroke-linecap:round; stroke-linejoin:round; stroke-width:2; stroke-opacity:0.1; fill:none" points="1328.13,1401.58 1328.13,123.472 "/>
<polyline clip-path="url(#clip952)" style="stroke:#000000; stroke-linecap:round; stroke-linejoin:round; stroke-width:2; stroke-opacity:0.1; fill:none" points="1811.44,1401.58 1811.44,123.472 "/>
<polyline clip-path="url(#clip952)" style="stroke:#000000; stroke-linecap:round; stroke-linejoin:round; stroke-width:2; stroke-opacity:0.1; fill:none" points="2294.76,1401.58 2294.76,123.472 "/>
<polyline clip-path="url(#clip950)" style="stroke:#000000; stroke-linecap:round; stroke-linejoin:round; stroke-width:4; stroke-opacity:1; fill:none" points="303.503,1401.58 2352.76,1401.58 "/>
<polyline clip-path="url(#clip950)" style="stroke:#000000; stroke-linecap:round; stroke-linejoin:round; stroke-width:4; stroke-opacity:1; fill:none" points="361.501,1401.58 361.501,1382.68 "/>
<polyline clip-path="url(#clip950)" style="stroke:#000000; stroke-linecap:round; stroke-linejoin:round; stroke-width:4; stroke-opacity:1; fill:none" points="844.815,1401.58 844.815,1382.68 "/>
<polyline clip-path="url(#clip950)" style="stroke:#000000; stroke-linecap:round; stroke-linejoin:round; stroke-width:4; stroke-opacity:1; fill:none" points="1328.13,1401.58 1328.13,1382.68 "/>
<polyline clip-path="url(#clip950)" style="stroke:#000000; stroke-linecap:round; stroke-linejoin:round; stroke-width:4; stroke-opacity:1; fill:none" points="1811.44,1401.58 1811.44,1382.68 "/>
<polyline clip-path="url(#clip950)" style="stroke:#000000; stroke-linecap:round; stroke-linejoin:round; stroke-width:4; stroke-opacity:1; fill:none" points="2294.76,1401.58 2294.76,1382.68 "/>
<path clip-path="url(#clip950)" d="M361.501 1438.36 Q356.084 1438.36 353.341 1443.71 Q350.633 1449.02 350.633 1459.71 Q350.633 1470.37 353.341 1475.72 Q356.084 1481.03 361.501 1481.03 Q366.952 1481.03 369.66 1475.72 Q372.403 1470.37 372.403 1459.71 Q372.403 1449.02 369.66 1443.71 Q366.952 1438.36 361.501 1438.36 M361.501 1432.8 Q370.216 1432.8 374.799 1439.71 Q379.417 1446.59 379.417 1459.71 Q379.417 1472.8 374.799 1479.71 Q370.216 1486.59 361.501 1486.59 Q352.785 1486.59 348.167 1479.71 Q343.584 1472.8 343.584 1459.71 Q343.584 1446.59 348.167 1439.71 Q352.785 1432.8 361.501 1432.8 Z" fill="#000000" fill-rule="nonzero" fill-opacity="1" /><path clip-path="url(#clip950)" d="M830.388 1479.68 L841.846 1479.68 L841.846 1440.13 L829.381 1442.63 L829.381 1436.24 L841.777 1433.74 L848.791 1433.74 L848.791 1479.68 L860.249 1479.68 L860.249 1485.58 L830.388 1485.58 L830.388 1479.68 Z" fill="#000000" fill-rule="nonzero" fill-opacity="1" /><path clip-path="url(#clip950)" d="M1320.11 1479.68 L1344.59 1479.68 L1344.59 1485.58 L1311.67 1485.58 L1311.67 1479.68 Q1315.66 1475.55 1322.54 1468.6 Q1329.45 1461.62 1331.22 1459.61 Q1334.59 1455.82 1335.91 1453.22 Q1337.26 1450.58 1337.26 1448.05 Q1337.26 1443.91 1334.34 1441.31 Q1331.46 1438.71 1326.81 1438.71 Q1323.51 1438.71 1319.83 1439.85 Q1316.19 1441 1312.02 1443.32 L1312.02 1436.24 Q1316.25 1434.54 1319.94 1433.67 Q1323.62 1432.8 1326.67 1432.8 Q1334.73 1432.8 1339.52 1436.83 Q1344.31 1440.86 1344.31 1447.59 Q1344.31 1450.79 1343.09 1453.67 Q1341.91 1456.52 1338.75 1460.41 Q1337.89 1461.41 1333.23 1466.24 Q1328.58 1471.03 1320.11 1479.68 Z" fill="#000000" fill-rule="nonzero" fill-opacity="1" /><path clip-path="url(#clip950)" d="M1817.82 1457.63 Q1822.85 1458.7 1825.66 1462.11 Q1828.51 1465.51 1828.51 1470.51 Q1828.51 1478.18 1823.23 1482.39 Q1817.95 1486.59 1808.23 1486.59 Q1804.97 1486.59 1801.5 1485.93 Q1798.06 1485.3 1794.38 1484.02 L1794.38 1477.25 Q1797.29 1478.95 1800.77 1479.82 Q1804.24 1480.68 1808.02 1480.68 Q1814.62 1480.68 1818.06 1478.08 Q1821.53 1475.48 1821.53 1470.51 Q1821.53 1465.93 1818.3 1463.36 Q1815.11 1460.75 1809.38 1460.75 L1803.34 1460.75 L1803.34 1454.99 L1809.66 1454.99 Q1814.83 1454.99 1817.57 1452.94 Q1820.32 1450.86 1820.32 1446.97 Q1820.32 1442.98 1817.47 1440.86 Q1814.66 1438.71 1809.38 1438.71 Q1806.5 1438.71 1803.2 1439.33 Q1799.9 1439.96 1795.94 1441.27 L1795.94 1435.02 Q1799.93 1433.91 1803.41 1433.36 Q1806.91 1432.8 1810 1432.8 Q1817.99 1432.8 1822.64 1436.45 Q1827.29 1440.06 1827.29 1446.24 Q1827.29 1450.55 1824.83 1453.53 Q1822.36 1456.48 1817.82 1457.63 Z" fill="#000000" fill-rule="nonzero" fill-opacity="1" /><path clip-path="url(#clip950)" d="M2299.27 1439.85 L2281.56 1467.52 L2299.27 1467.52 L2299.27 1439.85 M2297.43 1433.74 L2306.25 1433.74 L2306.25 1467.52 L2313.65 1467.52 L2313.65 1473.36 L2306.25 1473.36 L2306.25 1485.58 L2299.27 1485.58 L2299.27 1473.36 L2275.87 1473.36 L2275.87 1466.59 L2297.43 1433.74 Z" fill="#000000" fill-rule="nonzero" fill-opacity="1" /><path clip-path="url(#clip950)" d="M1271.74 1527.62 L1271.74 1538.66 L1284.9 1538.66 L1284.9 1543.62 L1271.74 1543.62 L1271.74 1564.74 Q1271.74 1569.49 1273.03 1570.85 Q1274.35 1572.2 1278.34 1572.2 L1284.9 1572.2 L1284.9 1577.55 L1278.34 1577.55 Q1270.94 1577.55 1268.13 1574.8 Q1265.32 1572.03 1265.32 1564.74 L1265.32 1543.62 L1260.63 1543.62 L1260.63 1538.66 L1265.32 1538.66 L1265.32 1527.62 L1271.74 1527.62 Z" fill="#000000" fill-rule="nonzero" fill-opacity="1" /><path clip-path="url(#clip950)" d="M1315.32 1523.52 L1330.04 1523.52 L1330.04 1528.49 L1321.71 1528.49 L1321.71 1581.96 L1330.04 1581.96 L1330.04 1586.92 L1315.32 1586.92 L1315.32 1523.52 Z" fill="#000000" fill-rule="nonzero" fill-opacity="1" /><path clip-path="url(#clip950)" d="M1368.44 1539.8 L1368.44 1545.85 Q1365.73 1544.46 1362.82 1543.76 Q1359.9 1543.07 1356.78 1543.07 Q1352.02 1543.07 1349.62 1544.53 Q1347.26 1545.99 1347.26 1548.9 Q1347.26 1551.12 1348.96 1552.41 Q1350.66 1553.66 1355.8 1554.8 L1357.99 1555.29 Q1364.8 1556.75 1367.64 1559.42 Q1370.53 1562.06 1370.53 1566.82 Q1370.53 1572.24 1366.22 1575.4 Q1361.95 1578.55 1354.45 1578.55 Q1351.32 1578.55 1347.92 1577.93 Q1344.55 1577.34 1340.8 1576.12 L1340.8 1569.53 Q1344.34 1571.37 1347.78 1572.3 Q1351.22 1573.21 1354.59 1573.21 Q1359.1 1573.21 1361.53 1571.68 Q1363.96 1570.12 1363.96 1567.3 Q1363.96 1564.7 1362.19 1563.31 Q1360.46 1561.92 1354.52 1560.64 L1352.3 1560.12 Q1346.36 1558.87 1343.72 1556.3 Q1341.08 1553.69 1341.08 1549.18 Q1341.08 1543.69 1344.97 1540.71 Q1348.86 1537.72 1356.01 1537.72 Q1359.55 1537.72 1362.68 1538.24 Q1365.8 1538.76 1368.44 1539.8 Z" fill="#000000" fill-rule="nonzero" fill-opacity="1" /><path clip-path="url(#clip950)" d="M1395.63 1523.52 L1395.63 1586.92 L1380.91 1586.92 L1380.91 1581.96 L1389.21 1581.96 L1389.21 1528.49 L1380.91 1528.49 L1380.91 1523.52 L1395.63 1523.52 Z" fill="#000000" fill-rule="nonzero" fill-opacity="1" /><polyline clip-path="url(#clip952)" style="stroke:#000000; stroke-linecap:round; stroke-linejoin:round; stroke-width:2; stroke-opacity:0.1; fill:none" points="303.503,1363.89 2352.76,1363.89 "/>
<polyline clip-path="url(#clip952)" style="stroke:#000000; stroke-linecap:round; stroke-linejoin:round; stroke-width:2; stroke-opacity:0.1; fill:none" points="303.503,1113.21 2352.76,1113.21 "/>
<polyline clip-path="url(#clip952)" style="stroke:#000000; stroke-linecap:round; stroke-linejoin:round; stroke-width:2; stroke-opacity:0.1; fill:none" points="303.503,862.535 2352.76,862.535 "/>
<polyline clip-path="url(#clip952)" style="stroke:#000000; stroke-linecap:round; stroke-linejoin:round; stroke-width:2; stroke-opacity:0.1; fill:none" points="303.503,611.86 2352.76,611.86 "/>
<polyline clip-path="url(#clip952)" style="stroke:#000000; stroke-linecap:round; stroke-linejoin:round; stroke-width:2; stroke-opacity:0.1; fill:none" points="303.503,361.185 2352.76,361.185 "/>
<polyline clip-path="url(#clip950)" style="stroke:#000000; stroke-linecap:round; stroke-linejoin:round; stroke-width:4; stroke-opacity:1; fill:none" points="303.503,1401.58 303.503,123.472 "/>
<polyline clip-path="url(#clip950)" style="stroke:#000000; stroke-linecap:round; stroke-linejoin:round; stroke-width:4; stroke-opacity:1; fill:none" points="303.503,1363.89 322.401,1363.89 "/>
<polyline clip-path="url(#clip950)" style="stroke:#000000; stroke-linecap:round; stroke-linejoin:round; stroke-width:4; stroke-opacity:1; fill:none" points="303.503,1113.21 322.401,1113.21 "/>
<polyline clip-path="url(#clip950)" style="stroke:#000000; stroke-linecap:round; stroke-linejoin:round; stroke-width:4; stroke-opacity:1; fill:none" points="303.503,862.535 322.401,862.535 "/>
<polyline clip-path="url(#clip950)" style="stroke:#000000; stroke-linecap:round; stroke-linejoin:round; stroke-width:4; stroke-opacity:1; fill:none" points="303.503,611.86 322.401,611.86 "/>
<polyline clip-path="url(#clip950)" style="stroke:#000000; stroke-linecap:round; stroke-linejoin:round; stroke-width:4; stroke-opacity:1; fill:none" points="303.503,361.185 322.401,361.185 "/>
<path clip-path="url(#clip950)" d="M136.497 1342.58 Q131.08 1342.58 128.337 1347.93 Q125.629 1353.24 125.629 1363.94 Q125.629 1374.6 128.337 1379.94 Q131.08 1385.26 136.497 1385.26 Q141.948 1385.26 144.656 1379.94 Q147.399 1374.6 147.399 1363.94 Q147.399 1353.24 144.656 1347.93 Q141.948 1342.58 136.497 1342.58 M136.497 1337.03 Q145.212 1337.03 149.795 1343.94 Q154.413 1350.81 154.413 1363.94 Q154.413 1377.03 149.795 1383.94 Q145.212 1390.81 136.497 1390.81 Q127.781 1390.81 123.163 1383.94 Q118.58 1377.03 118.58 1363.94 Q118.58 1350.81 123.163 1343.94 Q127.781 1337.03 136.497 1337.03 Z" fill="#000000" fill-rule="nonzero" fill-opacity="1" /><path clip-path="url(#clip950)" d="M166.74 1380.99 L174.066 1380.99 L174.066 1389.81 L166.74 1389.81 L166.74 1380.99 Z" fill="#000000" fill-rule="nonzero" fill-opacity="1" /><path clip-path="url(#clip950)" d="M189.413 1337.97 L216.948 1337.97 L216.948 1343.87 L195.837 1343.87 L195.837 1356.58 Q197.364 1356.06 198.892 1355.81 Q200.42 1355.54 201.948 1355.54 Q210.628 1355.54 215.698 1360.29 Q220.767 1365.05 220.767 1373.17 Q220.767 1381.54 215.559 1386.19 Q210.35 1390.81 200.871 1390.81 Q197.608 1390.81 194.205 1390.26 Q190.837 1389.7 187.226 1388.59 L187.226 1381.54 Q190.351 1383.24 193.684 1384.08 Q197.017 1384.91 200.732 1384.91 Q206.739 1384.91 210.246 1381.75 Q213.753 1378.59 213.753 1373.17 Q213.753 1367.76 210.246 1364.6 Q206.739 1361.44 200.732 1361.44 Q197.92 1361.44 195.108 1362.06 Q192.33 1362.69 189.413 1364.01 L189.413 1337.97 Z" fill="#000000" fill-rule="nonzero" fill-opacity="1" /><path clip-path="url(#clip950)" d="M249.586 1342.58 Q244.17 1342.58 241.427 1347.93 Q238.718 1353.24 238.718 1363.94 Q238.718 1374.6 241.427 1379.94 Q244.17 1385.26 249.586 1385.26 Q255.038 1385.26 257.746 1379.94 Q260.489 1374.6 260.489 1363.94 Q260.489 1353.24 257.746 1347.93 Q255.038 1342.58 249.586 1342.58 M249.586 1337.03 Q258.302 1337.03 262.885 1343.94 Q267.503 1350.81 267.503 1363.94 Q267.503 1377.03 262.885 1383.94 Q258.302 1390.81 249.586 1390.81 Q240.871 1390.81 236.253 1383.94 Q231.67 1377.03 231.67 1363.94 Q231.67 1350.81 236.253 1343.94 Q240.871 1337.03 249.586 1337.03 Z" fill="#000000" fill-rule="nonzero" fill-opacity="1" /><path clip-path="url(#clip950)" d="M137.99 1091.91 Q132.573 1091.91 129.83 1097.26 Q127.122 1102.57 127.122 1113.26 Q127.122 1123.92 129.83 1129.27 Q132.573 1134.58 137.99 1134.58 Q143.441 1134.58 146.149 1129.27 Q148.892 1123.92 148.892 1113.26 Q148.892 1102.57 146.149 1097.26 Q143.441 1091.91 137.99 1091.91 M137.99 1086.35 Q146.705 1086.35 151.288 1093.26 Q155.906 1100.14 155.906 1113.26 Q155.906 1126.35 151.288 1133.26 Q146.705 1140.14 137.99 1140.14 Q129.275 1140.14 124.657 1133.26 Q120.073 1126.35 120.073 1113.26 Q120.073 1100.14 124.657 1093.26 Q129.275 1086.35 137.99 1086.35 Z" fill="#000000" fill-rule="nonzero" fill-opacity="1" /><path clip-path="url(#clip950)" d="M168.233 1130.31 L175.559 1130.31 L175.559 1139.13 L168.233 1139.13 L168.233 1130.31 Z" fill="#000000" fill-rule="nonzero" fill-opacity="1" /><path clip-path="url(#clip950)" d="M189.066 1087.29 L222.399 1087.29 L222.399 1090.28 L203.58 1139.13 L196.253 1139.13 L213.962 1093.19 L189.066 1093.19 L189.066 1087.29 Z" fill="#000000" fill-rule="nonzero" fill-opacity="1" /><path clip-path="url(#clip950)" d="M236.149 1087.29 L263.684 1087.29 L263.684 1093.19 L242.573 1093.19 L242.573 1105.9 Q244.1 1105.38 245.628 1105.14 Q247.156 1104.86 248.684 1104.86 Q257.364 1104.86 262.434 1109.62 Q267.503 1114.37 267.503 1122.5 Q267.503 1130.87 262.295 1135.52 Q257.086 1140.14 247.607 1140.14 Q244.343 1140.14 240.941 1139.58 Q237.573 1139.03 233.961 1137.92 L233.961 1130.87 Q237.086 1132.57 240.42 1133.4 Q243.753 1134.23 247.468 1134.23 Q253.475 1134.23 256.982 1131.08 Q260.489 1127.92 260.489 1122.5 Q260.489 1117.08 256.982 1113.92 Q253.475 1110.76 247.468 1110.76 Q244.656 1110.76 241.843 1111.39 Q239.066 1112.01 236.149 1113.33 L236.149 1087.29 Z" fill="#000000" fill-rule="nonzero" fill-opacity="1" /><path clip-path="url(#clip950)" d="M122.712 882.553 L134.17 882.553 L134.17 843.004 L121.705 845.504 L121.705 839.115 L134.101 836.615 L141.115 836.615 L141.115 882.553 L152.573 882.553 L152.573 888.455 L122.712 888.455 L122.712 882.553 Z" fill="#000000" fill-rule="nonzero" fill-opacity="1" /><path clip-path="url(#clip950)" d="M166.74 879.636 L174.066 879.636 L174.066 888.455 L166.74 888.455 L166.74 879.636 Z" fill="#000000" fill-rule="nonzero" fill-opacity="1" /><path clip-path="url(#clip950)" d="M204.344 841.233 Q198.927 841.233 196.184 846.581 Q193.476 851.893 193.476 862.587 Q193.476 873.247 196.184 878.594 Q198.927 883.907 204.344 883.907 Q209.795 883.907 212.503 878.594 Q215.246 873.247 215.246 862.587 Q215.246 851.893 212.503 846.581 Q209.795 841.233 204.344 841.233 M204.344 835.678 Q213.059 835.678 217.642 842.587 Q222.26 849.462 222.26 862.587 Q222.26 875.678 217.642 882.587 Q213.059 889.462 204.344 889.462 Q195.628 889.462 191.01 882.587 Q186.427 875.678 186.427 862.587 Q186.427 849.462 191.01 842.587 Q195.628 835.678 204.344 835.678 Z" fill="#000000" fill-rule="nonzero" fill-opacity="1" /><path clip-path="url(#clip950)" d="M249.586 841.233 Q244.17 841.233 241.427 846.581 Q238.718 851.893 238.718 862.587 Q238.718 873.247 241.427 878.594 Q244.17 883.907 249.586 883.907 Q255.038 883.907 257.746 878.594 Q260.489 873.247 260.489 862.587 Q260.489 851.893 257.746 846.581 Q255.038 841.233 249.586 841.233 M249.586 835.678 Q258.302 835.678 262.885 842.587 Q267.503 849.462 267.503 862.587 Q267.503 875.678 262.885 882.587 Q258.302 889.462 249.586 889.462 Q240.871 889.462 236.253 882.587 Q231.67 875.678 231.67 862.587 Q231.67 849.462 236.253 842.587 Q240.871 835.678 249.586 835.678 Z" fill="#000000" fill-rule="nonzero" fill-opacity="1" /><path clip-path="url(#clip950)" d="M124.205 631.877 L135.663 631.877 L135.663 592.329 L123.198 594.829 L123.198 588.44 L135.594 585.94 L142.608 585.94 L142.608 631.877 L154.066 631.877 L154.066 637.78 L124.205 637.78 L124.205 631.877 Z" fill="#000000" fill-rule="nonzero" fill-opacity="1" /><path clip-path="url(#clip950)" d="M168.233 628.961 L175.559 628.961 L175.559 637.78 L168.233 637.78 L168.233 628.961 Z" fill="#000000" fill-rule="nonzero" fill-opacity="1" /><path clip-path="url(#clip950)" d="M196.878 631.877 L221.357 631.877 L221.357 637.78 L188.441 637.78 L188.441 631.877 Q192.434 627.745 199.309 620.801 Q206.219 613.822 207.989 611.808 Q211.357 608.023 212.677 605.419 Q214.031 602.78 214.031 600.245 Q214.031 596.114 211.114 593.509 Q208.232 590.905 203.58 590.905 Q200.281 590.905 196.601 592.051 Q192.955 593.197 188.788 595.523 L188.788 588.44 Q193.024 586.739 196.705 585.871 Q200.385 585.002 203.441 585.002 Q211.496 585.002 216.288 589.03 Q221.08 593.058 221.08 599.794 Q221.08 602.989 219.864 605.87 Q218.684 608.718 215.524 612.607 Q214.656 613.613 210.003 618.44 Q205.351 623.231 196.878 631.877 Z" fill="#000000" fill-rule="nonzero" fill-opacity="1" /><path clip-path="url(#clip950)" d="M236.149 585.94 L263.684 585.94 L263.684 591.843 L242.573 591.843 L242.573 604.551 Q244.1 604.03 245.628 603.787 Q247.156 603.509 248.684 603.509 Q257.364 603.509 262.434 608.266 Q267.503 613.023 267.503 621.148 Q267.503 629.516 262.295 634.169 Q257.086 638.787 247.607 638.787 Q244.343 638.787 240.941 638.231 Q237.573 637.676 233.961 636.565 L233.961 629.516 Q237.086 631.218 240.42 632.051 Q243.753 632.884 247.468 632.884 Q253.475 632.884 256.982 629.724 Q260.489 626.565 260.489 621.148 Q260.489 615.731 256.982 612.572 Q253.475 609.412 247.468 609.412 Q244.656 609.412 241.843 610.037 Q239.066 610.662 236.149 611.982 L236.149 585.94 Z" fill="#000000" fill-rule="nonzero" fill-opacity="1" /><path clip-path="url(#clip950)" d="M122.712 381.202 L134.17 381.202 L134.17 341.654 L121.705 344.154 L121.705 337.765 L134.101 335.265 L141.115 335.265 L141.115 381.202 L152.573 381.202 L152.573 387.105 L122.712 387.105 L122.712 381.202 Z" fill="#000000" fill-rule="nonzero" fill-opacity="1" /><path clip-path="url(#clip950)" d="M166.74 378.285 L174.066 378.285 L174.066 387.105 L166.74 387.105 L166.74 378.285 Z" fill="#000000" fill-rule="nonzero" fill-opacity="1" /><path clip-path="url(#clip950)" d="M189.413 335.265 L216.948 335.265 L216.948 341.167 L195.837 341.167 L195.837 353.876 Q197.364 353.355 198.892 353.112 Q200.42 352.834 201.948 352.834 Q210.628 352.834 215.698 357.591 Q220.767 362.348 220.767 370.473 Q220.767 378.841 215.559 383.494 Q210.35 388.112 200.871 388.112 Q197.608 388.112 194.205 387.556 Q190.837 387.001 187.226 385.889 L187.226 378.841 Q190.351 380.542 193.684 381.376 Q197.017 382.209 200.732 382.209 Q206.739 382.209 210.246 379.049 Q213.753 375.889 213.753 370.473 Q213.753 365.056 210.246 361.896 Q206.739 358.737 200.732 358.737 Q197.92 358.737 195.108 359.362 Q192.33 359.987 189.413 361.306 L189.413 335.265 Z" fill="#000000" fill-rule="nonzero" fill-opacity="1" /><path clip-path="url(#clip950)" d="M249.586 339.883 Q244.17 339.883 241.427 345.23 Q238.718 350.542 238.718 361.237 Q238.718 371.896 241.427 377.244 Q244.17 382.556 249.586 382.556 Q255.038 382.556 257.746 377.244 Q260.489 371.896 260.489 361.237 Q260.489 350.542 257.746 345.23 Q255.038 339.883 249.586 339.883 M249.586 334.327 Q258.302 334.327 262.885 341.237 Q267.503 348.112 267.503 361.237 Q267.503 374.327 262.885 381.237 Q258.302 388.112 249.586 388.112 Q240.871 388.112 236.253 381.237 Q231.67 374.327 231.67 361.237 Q231.67 348.112 236.253 341.237 Q240.871 334.327 249.586 334.327 Z" fill="#000000" fill-rule="nonzero" fill-opacity="1" /><path clip-path="url(#clip950)" d="M35.6047 1045.01 Q31.2992 1042.61 29.2506 1039.28 Q27.202 1035.94 27.202 1031.43 Q27.202 1025.35 31.4728 1022.06 Q35.7089 1018.76 43.5561 1018.76 L67.0282 1018.76 L67.0282 1025.18 L43.7644 1025.18 Q38.1741 1025.18 35.4658 1027.16 Q32.7575 1029.14 32.7575 1033.2 Q32.7575 1038.17 36.0561 1041.05 Q39.3547 1043.93 45.0491 1043.93 L67.0282 1043.93 L67.0282 1050.35 L43.7644 1050.35 Q38.1394 1050.35 35.4658 1052.33 Q32.7575 1054.31 32.7575 1058.44 Q32.7575 1063.34 36.0908 1066.22 Q39.3894 1069.1 45.0491 1069.1 L67.0282 1069.1 L67.0282 1075.53 L28.1395 1075.53 L28.1395 1069.1 L34.1811 1069.1 Q30.6047 1066.92 28.9034 1063.86 Q27.202 1060.81 27.202 1056.6 Q27.202 1052.37 29.3547 1049.42 Q31.5075 1046.43 35.6047 1045.01 Z" fill="#000000" fill-rule="nonzero" fill-opacity="1" /><path clip-path="url(#clip950)" d="M47.4797 988.341 Q47.4797 996.084 49.2505 999.07 Q51.0213 1002.06 55.2921 1002.06 Q58.6949 1002.06 60.7087 999.834 Q62.6879 997.577 62.6879 993.723 Q62.6879 988.41 58.9379 985.216 Q55.1532 981.987 48.9033 981.987 L47.4797 981.987 L47.4797 988.341 M44.8408 975.598 L67.0282 975.598 L67.0282 981.987 L61.1254 981.987 Q64.6671 984.174 66.3684 987.438 Q68.0351 990.702 68.0351 995.424 Q68.0351 1001.4 64.7018 1004.94 Q61.3337 1008.44 55.7088 1008.44 Q49.1463 1008.44 45.813 1004.07 Q42.4797 999.66 42.4797 990.945 L42.4797 981.987 L41.8547 981.987 Q37.445 981.987 35.0492 984.903 Q32.6186 987.785 32.6186 993.028 Q32.6186 996.362 33.4172 999.521 Q34.2158 1002.68 35.813 1005.6 L29.9103 1005.6 Q28.5561 1002.09 27.8964 998.792 Q27.202 995.493 27.202 992.369 Q27.202 983.931 31.577 979.764 Q35.9519 975.598 44.8408 975.598 Z" fill="#000000" fill-rule="nonzero" fill-opacity="1" /><path clip-path="url(#clip950)" d="M29.2853 937.647 L35.3269 937.647 Q33.9381 940.355 33.2436 943.272 Q32.5492 946.188 32.5492 949.313 Q32.5492 954.07 34.0075 956.466 Q35.4658 958.827 38.3825 958.827 Q40.6047 958.827 41.8894 957.126 Q43.1394 955.424 44.2852 950.285 L44.7713 948.098 Q46.2297 941.292 48.9033 938.445 Q51.5421 935.563 56.299 935.563 Q61.7157 935.563 64.8754 939.869 Q68.0351 944.14 68.0351 951.64 Q68.0351 954.765 67.4101 958.167 Q66.8198 961.535 65.6046 965.285 L59.0074 965.285 Q60.8476 961.744 61.7851 958.306 Q62.6879 954.869 62.6879 951.501 Q62.6879 946.987 61.1601 944.556 Q59.5976 942.126 56.7852 942.126 Q54.181 942.126 52.7921 943.897 Q51.4032 945.633 50.1185 951.57 L49.5977 953.792 Q48.3477 959.73 45.7783 962.369 Q43.1741 965.008 38.6603 965.008 Q33.1742 965.008 30.1881 961.119 Q27.202 957.23 27.202 950.077 Q27.202 946.535 27.7228 943.41 Q28.2436 940.285 29.2853 937.647 Z" fill="#000000" fill-rule="nonzero" fill-opacity="1" /><path clip-path="url(#clip950)" d="M29.2853 900.598 L35.3269 900.598 Q33.9381 903.306 33.2436 906.223 Q32.5492 909.14 32.5492 912.265 Q32.5492 917.022 34.0075 919.418 Q35.4658 921.779 38.3825 921.779 Q40.6047 921.779 41.8894 920.077 Q43.1394 918.376 44.2852 913.237 L44.7713 911.049 Q46.2297 904.244 48.9033 901.397 Q51.5421 898.515 56.299 898.515 Q61.7157 898.515 64.8754 902.82 Q68.0351 907.091 68.0351 914.591 Q68.0351 917.716 67.4101 921.119 Q66.8198 924.487 65.6046 928.237 L59.0074 928.237 Q60.8476 924.695 61.7851 921.258 Q62.6879 917.82 62.6879 914.452 Q62.6879 909.938 61.1601 907.508 Q59.5976 905.077 56.7852 905.077 Q54.181 905.077 52.7921 906.848 Q51.4032 908.584 50.1185 914.522 L49.5977 916.744 Q48.3477 922.681 45.7783 925.32 Q43.1741 927.959 38.6603 927.959 Q33.1742 927.959 30.1881 924.07 Q27.202 920.181 27.202 913.029 Q27.202 909.487 27.7228 906.362 Q28.2436 903.237 29.2853 900.598 Z" fill="#000000" fill-rule="nonzero" fill-opacity="1" /><path clip-path="url(#clip950)" d="M61.1949 859.557 L81.8197 859.557 L81.8197 865.98 L28.1395 865.98 L28.1395 859.557 L34.0422 859.557 Q30.57 857.543 28.9034 854.487 Q27.202 851.397 27.202 847.126 Q27.202 840.043 32.827 835.633 Q38.4519 831.189 47.6185 831.189 Q56.7852 831.189 62.4101 835.633 Q68.0351 840.043 68.0351 847.126 Q68.0351 851.397 66.3684 854.487 Q64.6671 857.543 61.1949 859.557 M47.6185 837.821 Q40.57 837.821 36.5769 840.737 Q32.5492 843.619 32.5492 848.689 Q32.5492 853.758 36.5769 856.675 Q40.57 859.557 47.6185 859.557 Q54.6671 859.557 58.6949 856.675 Q62.6879 853.758 62.6879 848.689 Q62.6879 843.619 58.6949 840.737 Q54.6671 837.821 47.6185 837.821 Z" fill="#000000" fill-rule="nonzero" fill-opacity="1" /><path clip-path="url(#clip950)" d="M32.6186 805.529 Q32.6186 810.668 36.6464 813.654 Q40.6394 816.64 47.6185 816.64 Q54.5977 816.64 58.6254 813.689 Q62.6185 810.703 62.6185 805.529 Q62.6185 800.425 58.5907 797.439 Q54.5629 794.453 47.6185 794.453 Q40.7089 794.453 36.6811 797.439 Q32.6186 800.425 32.6186 805.529 M27.202 805.529 Q27.202 797.196 32.6186 792.439 Q38.0353 787.682 47.6185 787.682 Q57.1671 787.682 62.6185 792.439 Q68.0351 797.196 68.0351 805.529 Q68.0351 813.897 62.6185 818.654 Q57.1671 823.376 47.6185 823.376 Q38.0353 823.376 32.6186 818.654 Q27.202 813.897 27.202 805.529 Z" fill="#000000" fill-rule="nonzero" fill-opacity="1" /><path clip-path="url(#clip950)" d="M29.2853 752.3 L35.3269 752.3 Q33.9381 755.009 33.2436 757.925 Q32.5492 760.842 32.5492 763.967 Q32.5492 768.724 34.0075 771.12 Q35.4658 773.481 38.3825 773.481 Q40.6047 773.481 41.8894 771.779 Q43.1394 770.078 44.2852 764.939 L44.7713 762.752 Q46.2297 755.946 48.9033 753.099 Q51.5421 750.217 56.299 750.217 Q61.7157 750.217 64.8754 754.523 Q68.0351 758.793 68.0351 766.293 Q68.0351 769.418 67.4101 772.821 Q66.8198 776.189 65.6046 779.939 L59.0074 779.939 Q60.8476 776.397 61.7851 772.96 Q62.6879 769.522 62.6879 766.154 Q62.6879 761.641 61.1601 759.21 Q59.5976 756.779 56.7852 756.779 Q54.181 756.779 52.7921 758.55 Q51.4032 760.286 50.1185 766.224 L49.5977 768.446 Q48.3477 774.384 45.7783 777.022 Q43.1741 779.661 38.6603 779.661 Q33.1742 779.661 30.1881 775.772 Q27.202 771.884 27.202 764.731 Q27.202 761.189 27.7228 758.064 Q28.2436 754.939 29.2853 752.3 Z" fill="#000000" fill-rule="nonzero" fill-opacity="1" /><path clip-path="url(#clip950)" d="M28.1395 740.043 L28.1395 733.655 L67.0282 733.655 L67.0282 740.043 L28.1395 740.043 M13.0007 740.043 L13.0007 733.655 L21.0909 733.655 L21.0909 740.043 L13.0007 740.043 Z" fill="#000000" fill-rule="nonzero" fill-opacity="1" /><path clip-path="url(#clip950)" d="M17.0979 713.967 L28.1395 713.967 L28.1395 700.808 L33.1047 700.808 L33.1047 713.967 L54.2157 713.967 Q58.9726 713.967 60.3268 712.683 Q61.681 711.363 61.681 707.37 L61.681 700.808 L67.0282 700.808 L67.0282 707.37 Q67.0282 714.766 64.2851 717.578 Q61.5074 720.391 54.2157 720.391 L33.1047 720.391 L33.1047 725.078 L28.1395 725.078 L28.1395 720.391 L17.0979 720.391 L17.0979 713.967 Z" fill="#000000" fill-rule="nonzero" fill-opacity="1" /><path clip-path="url(#clip950)" d="M28.1395 692.405 L28.1395 686.016 L67.0282 686.016 L67.0282 692.405 L28.1395 692.405 M13.0007 692.405 L13.0007 686.016 L21.0909 686.016 L21.0909 692.405 L13.0007 692.405 Z" fill="#000000" fill-rule="nonzero" fill-opacity="1" /><path clip-path="url(#clip950)" d="M32.6186 657.579 Q32.6186 662.717 36.6464 665.704 Q40.6394 668.69 47.6185 668.69 Q54.5977 668.69 58.6254 665.738 Q62.6185 662.752 62.6185 657.579 Q62.6185 652.474 58.5907 649.488 Q54.5629 646.502 47.6185 646.502 Q40.7089 646.502 36.6811 649.488 Q32.6186 652.474 32.6186 657.579 M27.202 657.579 Q27.202 649.245 32.6186 644.488 Q38.0353 639.732 47.6185 639.732 Q57.1671 639.732 62.6185 644.488 Q68.0351 649.245 68.0351 657.579 Q68.0351 665.947 62.6185 670.704 Q57.1671 675.426 47.6185 675.426 Q38.0353 675.426 32.6186 670.704 Q27.202 665.947 27.202 657.579 Z" fill="#000000" fill-rule="nonzero" fill-opacity="1" /><path clip-path="url(#clip950)" d="M43.5561 596.815 L67.0282 596.815 L67.0282 603.204 L43.7644 603.204 Q38.2436 603.204 35.5005 605.357 Q32.7575 607.509 32.7575 611.815 Q32.7575 616.989 36.0561 619.975 Q39.3547 622.961 45.0491 622.961 L67.0282 622.961 L67.0282 629.384 L28.1395 629.384 L28.1395 622.961 L34.1811 622.961 Q30.6742 620.669 28.9381 617.579 Q27.202 614.454 27.202 610.391 Q27.202 603.69 31.3686 600.253 Q35.5005 596.815 43.5561 596.815 Z" fill="#000000" fill-rule="nonzero" fill-opacity="1" /><path clip-path="url(#clip950)" d="M13.0007 562.058 L13.0007 547.336 L17.9659 547.336 L17.9659 555.669 L71.4379 555.669 L71.4379 547.336 L76.4031 547.336 L76.4031 562.058 L13.0007 562.058 Z" fill="#000000" fill-rule="nonzero" fill-opacity="1" /><path clip-path="url(#clip950)" d="M35.6047 503.448 Q31.2992 501.052 29.2506 497.718 Q27.202 494.385 27.202 489.871 Q27.202 483.795 31.4728 480.496 Q35.7089 477.198 43.5561 477.198 L67.0282 477.198 L67.0282 483.621 L43.7644 483.621 Q38.1741 483.621 35.4658 485.6 Q32.7575 487.58 32.7575 491.642 Q32.7575 496.607 36.0561 499.489 Q39.3547 502.371 45.0491 502.371 L67.0282 502.371 L67.0282 508.795 L43.7644 508.795 Q38.1394 508.795 35.4658 510.774 Q32.7575 512.753 32.7575 516.885 Q32.7575 521.781 36.0908 524.663 Q39.3894 527.545 45.0491 527.545 L67.0282 527.545 L67.0282 533.968 L28.1395 533.968 L28.1395 527.545 L34.1811 527.545 Q30.6047 525.357 28.9034 522.302 Q27.202 519.246 27.202 515.045 Q27.202 510.809 29.3547 507.857 Q31.5075 504.871 35.6047 503.448 Z" fill="#000000" fill-rule="nonzero" fill-opacity="1" /><path clip-path="url(#clip950)" d="M13.0007 449.524 L76.4031 449.524 L76.4031 464.246 L71.4379 464.246 L71.4379 455.948 L17.9659 455.948 L17.9659 464.246 L13.0007 464.246 L13.0007 449.524 Z" fill="#000000" fill-rule="nonzero" fill-opacity="1" /><path clip-path="url(#clip950)" d="M625.966 18.8205 L625.966 65.8515 L635.85 65.8515 Q648.367 65.8515 654.16 60.1802 Q659.994 54.509 659.994 42.2752 Q659.994 30.1225 654.16 24.4918 Q648.367 18.8205 635.85 18.8205 L625.966 18.8205 M617.783 12.096 L634.594 12.096 Q652.175 12.096 660.399 19.4281 Q668.622 26.7198 668.622 42.2752 Q668.622 57.9117 660.358 65.2439 Q652.094 72.576 634.594 72.576 L617.783 72.576 L617.783 12.096 Z" fill="#000000" fill-rule="nonzero" fill-opacity="1" /><path clip-path="url(#clip950)" d="M720.149 48.0275 L720.149 51.6733 L685.879 51.6733 Q686.365 59.3701 690.497 63.421 Q694.669 67.4314 702.082 67.4314 Q706.376 67.4314 710.387 66.3781 Q714.438 65.3249 718.408 63.2184 L718.408 70.267 Q714.397 71.9684 710.184 72.8596 Q705.971 73.7508 701.637 73.7508 Q690.78 73.7508 684.421 67.4314 Q678.101 61.1119 678.101 50.3365 Q678.101 39.1965 684.096 32.6746 Q690.132 26.1121 700.341 26.1121 Q709.496 26.1121 714.802 32.0264 Q720.149 37.9003 720.149 48.0275 M712.696 45.84 Q712.615 39.7232 709.253 36.0774 Q705.931 32.4315 700.422 32.4315 Q694.183 32.4315 690.416 35.9558 Q686.689 39.4801 686.122 45.8805 L712.696 45.84 Z" fill="#000000" fill-rule="nonzero" fill-opacity="1" /><path clip-path="url(#clip950)" d="M755.352 9.54393 L755.352 15.7418 L748.222 15.7418 Q744.212 15.7418 742.632 17.3622 Q741.093 18.9825 741.093 23.1955 L741.093 27.2059 L753.367 27.2059 L753.367 32.9987 L741.093 32.9987 L741.093 72.576 L733.598 72.576 L733.598 32.9987 L726.469 32.9987 L726.469 27.2059 L733.598 27.2059 L733.598 24.0462 Q733.598 16.471 737.123 13.0277 Q740.647 9.54393 748.303 9.54393 L755.352 9.54393 Z" fill="#000000" fill-rule="nonzero" fill-opacity="1" /><path clip-path="url(#clip950)" d="M782.209 49.7694 Q773.176 49.7694 769.692 51.8354 Q766.208 53.9013 766.208 58.8839 Q766.208 62.8538 768.801 65.2034 Q771.434 67.5124 775.93 67.5124 Q782.128 67.5124 785.855 63.1374 Q789.622 58.7219 789.622 51.4303 L789.622 49.7694 L782.209 49.7694 M797.076 46.6907 L797.076 72.576 L789.622 72.576 L789.622 65.6895 Q787.07 69.8214 783.263 71.8063 Q779.455 73.7508 773.945 73.7508 Q766.978 73.7508 762.846 69.8619 Q758.755 65.9325 758.755 59.3701 Q758.755 51.7138 763.859 47.825 Q769.003 43.9361 779.171 43.9361 L789.622 43.9361 L789.622 43.2069 Q789.622 38.0623 786.22 35.2672 Q782.857 32.4315 776.741 32.4315 Q772.852 32.4315 769.165 33.3632 Q765.479 34.295 762.076 36.1584 L762.076 29.2718 Q766.168 27.692 770.016 26.9223 Q773.864 26.1121 777.51 26.1121 Q787.354 26.1121 792.215 31.2163 Q797.076 36.3204 797.076 46.6907 Z" fill="#000000" fill-rule="nonzero" fill-opacity="1" /><path clip-path="url(#clip950)" d="M811.659 54.671 L811.659 27.2059 L819.113 27.2059 L819.113 54.3874 Q819.113 60.8284 821.625 64.0691 Q824.136 67.2693 829.159 67.2693 Q835.195 67.2693 838.679 63.421 Q842.203 59.5726 842.203 52.9291 L842.203 27.2059 L849.657 27.2059 L849.657 72.576 L842.203 72.576 L842.203 65.6084 Q839.489 69.7404 835.884 71.7658 Q832.319 73.7508 827.579 73.7508 Q819.761 73.7508 815.71 68.8897 Q811.659 64.0286 811.659 54.671 M830.415 26.1121 L830.415 26.1121 Z" fill="#000000" fill-rule="nonzero" fill-opacity="1" /><path clip-path="url(#clip950)" d="M865.01 9.54393 L872.463 9.54393 L872.463 72.576 L865.01 72.576 L865.01 9.54393 Z" fill="#000000" fill-rule="nonzero" fill-opacity="1" /><path clip-path="url(#clip950)" d="M895.432 14.324 L895.432 27.2059 L910.785 27.2059 L910.785 32.9987 L895.432 32.9987 L895.432 57.6282 Q895.432 63.1779 896.931 64.7578 Q898.47 66.3376 903.129 66.3376 L910.785 66.3376 L910.785 72.576 L903.129 72.576 Q894.5 72.576 891.219 69.3758 Q887.938 66.1351 887.938 57.6282 L887.938 32.9987 L882.469 32.9987 L882.469 27.2059 L887.938 27.2059 L887.938 14.324 L895.432 14.324 Z" fill="#000000" fill-rule="nonzero" fill-opacity="1" /><path clip-path="url(#clip950)" d="M922.492 62.2867 L931.04 62.2867 L931.04 72.576 L922.492 72.576 L922.492 62.2867 M922.492 29.6769 L931.04 29.6769 L931.04 39.9662 L922.492 39.9662 L922.492 29.6769 Z" fill="#000000" fill-rule="nonzero" fill-opacity="1" /><path clip-path="url(#clip950)" d="M975.235 12.096 L987.428 12.096 L1002.86 53.2532 L1018.38 12.096 L1030.57 12.096 L1030.57 72.576 L1022.59 72.576 L1022.59 19.4686 L1006.99 60.9499 L998.771 60.9499 L983.175 19.4686 L983.175 72.576 L975.235 72.576 L975.235 12.096 Z" fill="#000000" fill-rule="nonzero" fill-opacity="1" /><path clip-path="url(#clip950)" d="M1067.11 49.7694 Q1058.08 49.7694 1054.59 51.8354 Q1051.11 53.9013 1051.11 58.8839 Q1051.11 62.8538 1053.7 65.2034 Q1056.33 67.5124 1060.83 67.5124 Q1067.03 67.5124 1070.76 63.1374 Q1074.52 58.7219 1074.52 51.4303 L1074.52 49.7694 L1067.11 49.7694 M1081.98 46.6907 L1081.98 72.576 L1074.52 72.576 L1074.52 65.6895 Q1071.97 69.8214 1068.16 71.8063 Q1064.35 73.7508 1058.85 73.7508 Q1051.88 73.7508 1047.75 69.8619 Q1043.65 65.9325 1043.65 59.3701 Q1043.65 51.7138 1048.76 47.825 Q1053.9 43.9361 1064.07 43.9361 L1074.52 43.9361 L1074.52 43.2069 Q1074.52 38.0623 1071.12 35.2672 Q1067.76 32.4315 1061.64 32.4315 Q1057.75 32.4315 1054.07 33.3632 Q1050.38 34.295 1046.98 36.1584 L1046.98 29.2718 Q1051.07 27.692 1054.92 26.9223 Q1058.76 26.1121 1062.41 26.1121 Q1072.25 26.1121 1077.12 31.2163 Q1081.98 36.3204 1081.98 46.6907 Z" fill="#000000" fill-rule="nonzero" fill-opacity="1" /><path clip-path="url(#clip950)" d="M1126.25 28.5427 L1126.25 35.5912 Q1123.09 33.9709 1119.69 33.1607 Q1116.29 32.3505 1112.64 32.3505 Q1107.09 32.3505 1104.3 34.0519 Q1101.54 35.7533 1101.54 39.156 Q1101.54 41.7486 1103.53 43.2475 Q1105.51 44.7058 1111.51 46.0426 L1114.06 46.6097 Q1122 48.3111 1125.32 51.4303 Q1128.68 54.509 1128.68 60.0587 Q1128.68 66.3781 1123.66 70.0644 Q1118.68 73.7508 1109.93 73.7508 Q1106.28 73.7508 1102.31 73.0216 Q1098.38 72.3329 1094.01 70.9151 L1094.01 63.2184 Q1098.14 65.3654 1102.15 66.4591 Q1106.16 67.5124 1110.09 67.5124 Q1115.36 67.5124 1118.19 65.73 Q1121.03 63.9071 1121.03 60.6258 Q1121.03 57.5877 1118.96 55.9673 Q1116.94 54.3469 1110.01 52.8481 L1107.42 52.2405 Q1100.49 50.7821 1097.41 47.7845 Q1094.33 44.7463 1094.33 39.4801 Q1094.33 33.0797 1098.87 29.5959 Q1103.41 26.1121 1111.75 26.1121 Q1115.88 26.1121 1119.53 26.7198 Q1123.17 27.3274 1126.25 28.5427 Z" fill="#000000" fill-rule="nonzero" fill-opacity="1" /><path clip-path="url(#clip950)" d="M1169.48 28.5427 L1169.48 35.5912 Q1166.32 33.9709 1162.91 33.1607 Q1159.51 32.3505 1155.86 32.3505 Q1150.31 32.3505 1147.52 34.0519 Q1144.77 35.7533 1144.77 39.156 Q1144.77 41.7486 1146.75 43.2475 Q1148.74 44.7058 1154.73 46.0426 L1157.28 46.6097 Q1165.22 48.3111 1168.54 51.4303 Q1171.91 54.509 1171.91 60.0587 Q1171.91 66.3781 1166.88 70.0644 Q1161.9 73.7508 1153.15 73.7508 Q1149.5 73.7508 1145.53 73.0216 Q1141.61 72.3329 1137.23 70.9151 L1137.23 63.2184 Q1141.36 65.3654 1145.37 66.4591 Q1149.38 67.5124 1153.31 67.5124 Q1158.58 67.5124 1161.41 65.73 Q1164.25 63.9071 1164.25 60.6258 Q1164.25 57.5877 1162.18 55.9673 Q1160.16 54.3469 1153.23 52.8481 L1150.64 52.2405 Q1143.71 50.7821 1140.63 47.7845 Q1137.55 44.7463 1137.55 39.4801 Q1137.55 33.0797 1142.09 29.5959 Q1146.63 26.1121 1154.97 26.1121 Q1159.11 26.1121 1162.75 26.7198 Q1166.4 27.3274 1169.48 28.5427 Z" fill="#000000" fill-rule="nonzero" fill-opacity="1" /><path clip-path="url(#clip950)" d="M1217.36 65.7705 L1217.36 89.8329 L1209.86 89.8329 L1209.86 27.2059 L1217.36 27.2059 L1217.36 34.0924 Q1219.71 30.0415 1223.27 28.0971 Q1226.88 26.1121 1231.86 26.1121 Q1240.12 26.1121 1245.27 32.6746 Q1250.45 39.2371 1250.45 49.9314 Q1250.45 60.6258 1245.27 67.1883 Q1240.12 73.7508 1231.86 73.7508 Q1226.88 73.7508 1223.27 71.8063 Q1219.71 69.8214 1217.36 65.7705 M1242.72 49.9314 Q1242.72 41.7081 1239.31 37.0496 Q1235.95 32.3505 1230.04 32.3505 Q1224.12 32.3505 1220.72 37.0496 Q1217.36 41.7081 1217.36 49.9314 Q1217.36 58.1548 1220.72 62.8538 Q1224.12 67.5124 1230.04 67.5124 Q1235.95 67.5124 1239.31 62.8538 Q1242.72 58.1548 1242.72 49.9314 Z" fill="#000000" fill-rule="nonzero" fill-opacity="1" /><path clip-path="url(#clip950)" d="M1280.39 32.4315 Q1274.39 32.4315 1270.91 37.1306 Q1267.43 41.7891 1267.43 49.9314 Q1267.43 58.0738 1270.87 62.7728 Q1274.35 67.4314 1280.39 67.4314 Q1286.34 67.4314 1289.83 62.7323 Q1293.31 58.0333 1293.31 49.9314 Q1293.31 41.8701 1289.83 37.1711 Q1286.34 32.4315 1280.39 32.4315 M1280.39 26.1121 Q1290.11 26.1121 1295.66 32.4315 Q1301.21 38.7509 1301.21 49.9314 Q1301.21 61.0714 1295.66 67.4314 Q1290.11 73.7508 1280.39 73.7508 Q1270.63 73.7508 1265.08 67.4314 Q1259.57 61.0714 1259.57 49.9314 Q1259.57 38.7509 1265.08 32.4315 Q1270.63 26.1121 1280.39 26.1121 Z" fill="#000000" fill-rule="nonzero" fill-opacity="1" /><path clip-path="url(#clip950)" d="M1342.49 28.5427 L1342.49 35.5912 Q1339.33 33.9709 1335.93 33.1607 Q1332.52 32.3505 1328.88 32.3505 Q1323.33 32.3505 1320.53 34.0519 Q1317.78 35.7533 1317.78 39.156 Q1317.78 41.7486 1319.76 43.2475 Q1321.75 44.7058 1327.74 46.0426 L1330.3 46.6097 Q1338.24 48.3111 1341.56 51.4303 Q1344.92 54.509 1344.92 60.0587 Q1344.92 66.3781 1339.9 70.0644 Q1334.91 73.7508 1326.16 73.7508 Q1322.52 73.7508 1318.55 73.0216 Q1314.62 72.3329 1310.24 70.9151 L1310.24 63.2184 Q1314.38 65.3654 1318.39 66.4591 Q1322.4 67.5124 1326.33 67.5124 Q1331.59 67.5124 1334.43 65.73 Q1337.26 63.9071 1337.26 60.6258 Q1337.26 57.5877 1335.2 55.9673 Q1333.17 54.3469 1326.25 52.8481 L1323.65 52.2405 Q1316.73 50.7821 1313.65 47.7845 Q1310.57 44.7463 1310.57 39.4801 Q1310.57 33.0797 1315.11 29.5959 Q1319.64 26.1121 1327.99 26.1121 Q1332.12 26.1121 1335.77 26.7198 Q1339.41 27.3274 1342.49 28.5427 Z" fill="#000000" fill-rule="nonzero" fill-opacity="1" /><path clip-path="url(#clip950)" d="M1356.79 27.2059 L1364.24 27.2059 L1364.24 72.576 L1356.79 72.576 L1356.79 27.2059 M1356.79 9.54393 L1364.24 9.54393 L1364.24 18.9825 L1356.79 18.9825 L1356.79 9.54393 Z" fill="#000000" fill-rule="nonzero" fill-opacity="1" /><path clip-path="url(#clip950)" d="M1387.21 14.324 L1387.21 27.2059 L1402.56 27.2059 L1402.56 32.9987 L1387.21 32.9987 L1387.21 57.6282 Q1387.21 63.1779 1388.71 64.7578 Q1390.25 66.3376 1394.91 66.3376 L1402.56 66.3376 L1402.56 72.576 L1394.91 72.576 Q1386.28 72.576 1383 69.3758 Q1379.72 66.1351 1379.72 57.6282 L1379.72 32.9987 L1374.25 32.9987 L1374.25 27.2059 L1379.72 27.2059 L1379.72 14.324 L1387.21 14.324 Z" fill="#000000" fill-rule="nonzero" fill-opacity="1" /><path clip-path="url(#clip950)" d="M1412.37 27.2059 L1419.82 27.2059 L1419.82 72.576 L1412.37 72.576 L1412.37 27.2059 M1412.37 9.54393 L1419.82 9.54393 L1419.82 18.9825 L1412.37 18.9825 L1412.37 9.54393 Z" fill="#000000" fill-rule="nonzero" fill-opacity="1" /><path clip-path="url(#clip950)" d="M1453 32.4315 Q1447 32.4315 1443.52 37.1306 Q1440.04 41.7891 1440.04 49.9314 Q1440.04 58.0738 1443.48 62.7728 Q1446.96 67.4314 1453 67.4314 Q1458.95 67.4314 1462.44 62.7323 Q1465.92 58.0333 1465.92 49.9314 Q1465.92 41.8701 1462.44 37.1711 Q1458.95 32.4315 1453 32.4315 M1453 26.1121 Q1462.72 26.1121 1468.27 32.4315 Q1473.82 38.7509 1473.82 49.9314 Q1473.82 61.0714 1468.27 67.4314 Q1462.72 73.7508 1453 73.7508 Q1443.24 73.7508 1437.69 67.4314 Q1432.18 61.0714 1432.18 49.9314 Q1432.18 38.7509 1437.69 32.4315 Q1443.24 26.1121 1453 26.1121 Z" fill="#000000" fill-rule="nonzero" fill-opacity="1" /><path clip-path="url(#clip950)" d="M1523.89 45.1919 L1523.89 72.576 L1516.44 72.576 L1516.44 45.4349 Q1516.44 38.994 1513.92 35.7938 Q1511.41 32.5936 1506.39 32.5936 Q1500.35 32.5936 1496.87 36.4419 Q1493.39 40.2903 1493.39 46.9338 L1493.39 72.576 L1485.89 72.576 L1485.89 27.2059 L1493.39 27.2059 L1493.39 34.2544 Q1496.06 30.163 1499.66 28.1376 Q1503.31 26.1121 1508.05 26.1121 Q1515.87 26.1121 1519.88 30.9732 Q1523.89 35.7938 1523.89 45.1919 Z" fill="#000000" fill-rule="nonzero" fill-opacity="1" /><path clip-path="url(#clip950)" d="M1585.75 49.7694 Q1576.71 49.7694 1573.23 51.8354 Q1569.75 53.9013 1569.75 58.8839 Q1569.75 62.8538 1572.34 65.2034 Q1574.97 67.5124 1579.47 67.5124 Q1585.67 67.5124 1589.39 63.1374 Q1593.16 58.7219 1593.16 51.4303 L1593.16 49.7694 L1585.75 49.7694 M1600.61 46.6907 L1600.61 72.576 L1593.16 72.576 L1593.16 65.6895 Q1590.61 69.8214 1586.8 71.8063 Q1582.99 73.7508 1577.48 73.7508 Q1570.52 73.7508 1566.38 69.8619 Q1562.29 65.9325 1562.29 59.3701 Q1562.29 51.7138 1567.4 47.825 Q1572.54 43.9361 1582.71 43.9361 L1593.16 43.9361 L1593.16 43.2069 Q1593.16 38.0623 1589.76 35.2672 Q1586.39 32.4315 1580.28 32.4315 Q1576.39 32.4315 1572.7 33.3632 Q1569.02 34.295 1565.61 36.1584 L1565.61 29.2718 Q1569.71 27.692 1573.55 26.9223 Q1577.4 26.1121 1581.05 26.1121 Q1590.89 26.1121 1595.75 31.2163 Q1600.61 36.3204 1600.61 46.6907 Z" fill="#000000" fill-rule="nonzero" fill-opacity="1" /><path clip-path="url(#clip950)" d="M1638.94 9.54393 L1638.94 15.7418 L1631.81 15.7418 Q1627.8 15.7418 1626.22 17.3622 Q1624.68 18.9825 1624.68 23.1955 L1624.68 27.2059 L1636.95 27.2059 L1636.95 32.9987 L1624.68 32.9987 L1624.68 72.576 L1617.18 72.576 L1617.18 32.9987 L1610.05 32.9987 L1610.05 27.2059 L1617.18 27.2059 L1617.18 24.0462 Q1617.18 16.471 1620.71 13.0277 Q1624.23 9.54393 1631.89 9.54393 L1638.94 9.54393 Z" fill="#000000" fill-rule="nonzero" fill-opacity="1" /><path clip-path="url(#clip950)" d="M1651.09 14.324 L1651.09 27.2059 L1666.44 27.2059 L1666.44 32.9987 L1651.09 32.9987 L1651.09 57.6282 Q1651.09 63.1779 1652.59 64.7578 Q1654.13 66.3376 1658.78 66.3376 L1666.44 66.3376 L1666.44 72.576 L1658.78 72.576 Q1650.16 72.576 1646.87 69.3758 Q1643.59 66.1351 1643.59 57.6282 L1643.59 32.9987 L1638.12 32.9987 L1638.12 27.2059 L1643.59 27.2059 L1643.59 14.324 L1651.09 14.324 Z" fill="#000000" fill-rule="nonzero" fill-opacity="1" /><path clip-path="url(#clip950)" d="M1715.05 48.0275 L1715.05 51.6733 L1680.78 51.6733 Q1681.27 59.3701 1685.4 63.421 Q1689.57 67.4314 1696.98 67.4314 Q1701.28 67.4314 1705.29 66.3781 Q1709.34 65.3249 1713.31 63.2184 L1713.31 70.267 Q1709.3 71.9684 1705.09 72.8596 Q1700.87 73.7508 1696.54 73.7508 Q1685.68 73.7508 1679.32 67.4314 Q1673 61.1119 1673 50.3365 Q1673 39.1965 1679 32.6746 Q1685.03 26.1121 1695.24 26.1121 Q1704.4 26.1121 1709.7 32.0264 Q1715.05 37.9003 1715.05 48.0275 M1707.6 45.84 Q1707.52 39.7232 1704.15 36.0774 Q1700.83 32.4315 1695.32 32.4315 Q1689.09 32.4315 1685.32 35.9558 Q1681.59 39.4801 1681.02 45.8805 L1707.6 45.84 Z" fill="#000000" fill-rule="nonzero" fill-opacity="1" /><path clip-path="url(#clip950)" d="M1753.58 34.1734 Q1752.32 33.4443 1750.82 33.1202 Q1749.36 32.7556 1747.58 32.7556 Q1741.26 32.7556 1737.86 36.8875 Q1734.5 40.9789 1734.5 48.6757 L1734.5 72.576 L1727 72.576 L1727 27.2059 L1734.5 27.2059 L1734.5 34.2544 Q1736.85 30.1225 1740.61 28.1376 Q1744.38 26.1121 1749.77 26.1121 Q1750.54 26.1121 1751.47 26.2337 Q1752.4 26.3147 1753.54 26.5172 L1753.58 34.1734 Z" fill="#000000" fill-rule="nonzero" fill-opacity="1" /><path clip-path="url(#clip950)" d="M1816.77 44.2197 Q1819.4 45.1109 1821.87 48.0275 Q1824.39 50.9442 1826.9 56.0483 L1835.2 72.576 L1826.41 72.576 L1818.67 57.061 Q1815.68 50.9847 1812.84 48.9997 Q1810.05 47.0148 1805.18 47.0148 L1796.27 47.0148 L1796.27 72.576 L1788.09 72.576 L1788.09 12.096 L1806.56 12.096 Q1816.93 12.096 1822.04 16.4305 Q1827.14 20.7649 1827.14 29.5149 Q1827.14 35.2267 1824.47 38.994 Q1821.83 42.7613 1816.77 44.2197 M1796.27 18.8205 L1796.27 40.2903 L1806.56 40.2903 Q1812.48 40.2903 1815.47 37.5762 Q1818.51 34.8216 1818.51 29.5149 Q1818.51 24.2082 1815.47 21.5346 Q1812.48 18.8205 1806.56 18.8205 L1796.27 18.8205 Z" fill="#000000" fill-rule="nonzero" fill-opacity="1" /><path clip-path="url(#clip950)" d="M1840.91 54.671 L1840.91 27.2059 L1848.37 27.2059 L1848.37 54.3874 Q1848.37 60.8284 1850.88 64.0691 Q1853.39 67.2693 1858.41 67.2693 Q1864.45 67.2693 1867.93 63.421 Q1871.46 59.5726 1871.46 52.9291 L1871.46 27.2059 L1878.91 27.2059 L1878.91 72.576 L1871.46 72.576 L1871.46 65.6084 Q1868.74 69.7404 1865.14 71.7658 Q1861.57 73.7508 1856.83 73.7508 Q1849.01 73.7508 1844.96 68.8897 Q1840.91 64.0286 1840.91 54.671 M1859.67 26.1121 L1859.67 26.1121 Z" fill="#000000" fill-rule="nonzero" fill-opacity="1" /><path clip-path="url(#clip950)" d="M1931.98 45.1919 L1931.98 72.576 L1924.52 72.576 L1924.52 45.4349 Q1924.52 38.994 1922.01 35.7938 Q1919.5 32.5936 1914.48 32.5936 Q1908.44 32.5936 1904.96 36.4419 Q1901.47 40.2903 1901.47 46.9338 L1901.47 72.576 L1893.98 72.576 L1893.98 27.2059 L1901.47 27.2059 L1901.47 34.2544 Q1904.15 30.163 1907.75 28.1376 Q1911.4 26.1121 1916.14 26.1121 Q1923.96 26.1121 1927.97 30.9732 Q1931.98 35.7938 1931.98 45.1919 Z" fill="#000000" fill-rule="nonzero" fill-opacity="1" /><path clip-path="url(#clip950)" d="M1948.75 62.2867 L1957.3 62.2867 L1957.3 72.576 L1948.75 72.576 L1948.75 62.2867 M1948.75 29.6769 L1957.3 29.6769 L1957.3 39.9662 L1948.75 39.9662 L1948.75 29.6769 Z" fill="#000000" fill-rule="nonzero" fill-opacity="1" /><path clip-path="url(#clip950)" d="M2003.64 65.6895 L2017.01 65.6895 L2017.01 19.5497 L2002.46 22.4663 L2002.46 15.0127 L2016.92 12.096 L2025.11 12.096 L2025.11 65.6895 L2038.48 65.6895 L2038.48 72.576 L2003.64 72.576 L2003.64 65.6895 Z" fill="#000000" fill-rule="nonzero" fill-opacity="1" /><polyline clip-path="url(#clip952)" style="stroke:#009af9; stroke-linecap:round; stroke-linejoin:round; stroke-width:8; stroke-opacity:1; fill:none" points="361.501,1363.89 366.334,1363.57 371.167,1362.67 376,1361.16 380.833,1359.06 385.666,1356.36 390.5,1353.07 395.333,1349.19 400.166,1344.72 404.999,1339.67 409.832,1334.04 414.665,1327.84 419.498,1321.08 424.332,1313.75 429.165,1305.88 433.998,1297.46 438.831,1288.51 443.664,1279.04 448.497,1269.05 453.33,1258.54 458.164,1247.55 462.997,1236.07 467.83,1224.12 472.663,1211.7 477.496,1198.83 482.329,1185.53 487.162,1171.8 491.996,1157.67 496.829,1143.14 501.662,1128.24 506.495,1112.97 511.328,1097.34 516.161,1081.38 520.994,1065.09 525.828,1048.51 530.661,1031.65 535.494,1014.51 540.327,997.119 545.16,979.489 549.993,961.637 554.826,943.585 559.66,925.352 564.493,906.955 569.326,888.41 574.159,869.738 578.992,850.957 583.825,832.086 588.658,813.141 593.492,794.144 598.325,775.113 603.158,756.069 607.991,737.033 612.824,718.023 617.657,699.056 622.49,680.147 627.324,661.32 632.157,642.594 636.99,623.989 641.823,605.525 646.656,587.222 651.489,569.086 656.322,551.143 661.156,533.411 665.989,515.91 670.822,498.656 675.655,481.669 680.488,464.963 685.321,448.549 690.154,432.45 694.988,416.681 699.821,401.258 704.654,386.199 709.487,371.518 714.32,357.224 719.153,343.334 723.986,329.863 728.82,316.826 733.653,304.235 738.486,292.104 743.319,280.444 748.152,269.262 752.985,258.573 757.818,248.388 762.652,238.718 767.485,229.573 772.318,220.963 777.151,212.892 781.984,205.369 786.817,198.403 791.65,192.002 796.484,186.172 801.317,180.92 806.15,176.25 810.983,172.164 815.816,168.668 820.649,165.766 825.482,163.461 830.316,161.756 835.149,160.653 839.982,160.151 844.815,160.251 849.648,160.953 854.481,162.257 859.314,164.161 864.148,166.664 868.981,169.764 873.814,173.456 878.647,177.737 883.48,182.603 888.313,188.049 893.147,194.07 897.98,200.659 902.813,207.811 907.646,215.517 912.479,223.771 917.312,232.564 922.145,241.886 926.979,251.729 931.812,262.081 936.645,272.937 941.478,284.282 946.311,296.105 951.144,308.395 955.977,321.138 960.811,334.322 965.644,347.934 970.477,361.963 975.31,376.393 980.143,391.208 984.976,406.395 989.809,421.936 994.643,437.817 999.476,454.025 1004.31,470.543 1009.14,487.353 1013.98,504.437 1018.81,521.779 1023.64,539.36 1028.47,557.163 1033.31,575.176 1038.14,593.376 1042.97,611.745 1047.81,630.264 1052.64,648.913 1057.47,667.674 1062.31,686.533 1067.14,705.47 1071.97,724.463 1076.81,743.494 1081.64,762.543 1086.47,781.59 1091.31,800.615 1096.14,819.608 1100.97,838.544 1105.8,857.404 1110.64,876.168 1115.47,894.816 1120.3,913.329 1125.14,931.693 1129.97,949.891 1134.8,967.902 1139.64,985.706 1144.47,1003.29 1149.3,1020.62 1154.14,1037.7 1158.97,1054.5 1163.8,1071.02 1168.64,1087.22 1173.47,1103.1 1178.3,1118.64 1183.14,1133.82 1187.97,1148.63 1192.8,1163.05 1197.63,1177.07 1202.47,1190.68 1207.3,1203.86 1212.13,1216.6 1216.97,1228.87 1221.8,1240.69 1226.63,1252.03 1231.47,1262.88 1236.3,1273.22 1241.13,1283.06 1245.97,1292.37 1250.8,1301.15 1255.63,1309.4 1260.47,1317.1 1265.3,1324.24 1270.13,1330.82 1274.96,1336.83 1279.8,1342.26 1284.63,1347.12 1289.46,1351.39 1294.3,1355.07 1299.13,1358.16 1303.96,1360.65 1308.8,1362.54 1313.63,1363.83 1318.46,1364.52 1323.3,1364.61 1328.13,1364.1 1332.96,1362.98 1337.8,1361.26 1342.63,1358.94 1347.46,1356.03 1352.3,1352.52 1357.13,1348.42 1361.96,1343.73 1366.79,1338.47 1371.63,1332.62 1376.46,1326.21 1381.29,1319.23 1386.13,1311.69 1390.96,1303.6 1395.79,1294.97 1400.63,1285.81 1405.46,1276.13 1410.29,1265.93 1415.13,1255.22 1419.96,1244.02 1424.79,1232.34 1429.63,1220.19 1434.46,1207.59 1439.29,1194.53 1444.12,1181.05 1448.96,1167.14 1453.79,1152.83 1458.62,1138.13 1463.46,1123.05 1468.29,1107.61 1473.12,1091.83 1477.96,1075.71 1482.79,1059.28 1487.62,1042.55 1492.46,1025.55 1497.29,1008.28 1502.12,990.766 1506.96,973.019 1511.79,955.061 1516.62,936.911 1521.46,918.586 1526.29,900.106 1531.12,881.489 1535.95,862.754 1540.79,843.913 1545.62,824.99 1550.45,806.005 1555.29,786.977 1560.12,767.926 1564.95,748.872 1569.79,729.827 1574.62,710.812 1579.45,691.849 1584.29,672.957 1589.12,654.155 1593.95,635.464 1598.79,616.9 1603.62,598.476 1608.45,580.216 1613.28,562.139 1618.12,544.262 1622.95,526.605 1627.78,509.187 1632.62,492.019 1637.45,475.118 1642.28,458.504 1647.12,442.195 1651.95,426.207 1656.78,410.558 1661.62,395.262 1666.45,380.328 1671.28,365.775 1676.12,351.619 1680.95,337.875 1685.78,324.558 1690.62,311.68 1695.45,299.251 1700.28,287.282 1705.11,275.789 1709.95,264.783 1714.78,254.276 1719.61,244.278 1724.45,234.801 1729.28,225.846 1734.11,217.428 1738.95,209.556 1743.78,202.237 1748.61,195.479 1753.45,189.29 1758.28,183.674 1763.11,178.634 1767.95,174.178 1772.78,170.311 1777.61,167.037 1782.44,164.359 1787.28,162.28 1792.11,160.8 1796.94,159.921 1801.78,159.645 1806.61,159.972 1811.44,160.902 1816.28,162.435 1821.11,164.568 1825.94,167.298 1830.78,170.623 1835.61,174.54 1840.44,179.046 1845.28,184.135 1850.11,189.803 1854.94,196.044 1859.78,202.852 1864.61,210.219 1869.44,218.139 1874.27,226.603 1879.11,235.602 1883.94,245.129 1888.77,255.174 1893.61,265.727 1898.44,276.777 1903.27,288.312 1908.11,300.321 1912.94,312.791 1917.77,325.712 1922.61,339.072 1927.44,352.855 1932.27,367.047 1937.11,381.634 1941.94,396.601 1946.77,411.933 1951.6,427.62 1956.44,443.641 1961.27,459.981 1966.1,476.623 1970.94,493.55 1975.77,510.744 1980.6,528.191 1985.44,545.875 1990.27,563.776 1995.1,581.876 1999.94,600.154 2004.77,618.594 2009.6,637.175 2014.44,655.887 2019.27,674.705 2024.1,693.612 2028.94,712.586 2033.77,731.609 2038.6,750.66 2043.43,769.724 2048.27,788.784 2053.1,807.819 2057.93,826.807 2062.77,845.73 2067.6,864.567 2072.43,883.299 2077.27,901.916 2082.1,920.394 2086.93,938.715 2091.77,956.857 2096.6,974.804 2101.43,992.536 2106.27,1010.04 2111.1,1027.3 2115.93,1044.29 2120.77,1061 2125.6,1077.41 2130.43,1093.51 2135.26,1109.27 2140.1,1124.68 2144.93,1139.74 2149.76,1154.42 2154.6,1168.7 2159.43,1182.58 2164.26,1196.04 2169.1,1209.06 2173.93,1221.64 2178.76,1233.76 2183.6,1245.4 2188.43,1256.57 2193.26,1267.23 2198.1,1277.39 2202.93,1287.04 2207.76,1296.16 2212.59,1304.75 2217.43,1312.8 2222.26,1320.29 2227.09,1327.23 2231.93,1333.59 2236.76,1339.39 2241.59,1344.62 2246.43,1349.26 2251.26,1353.31 2256.09,1356.77 2260.93,1359.63 2265.76,1361.9 2270.59,1363.57 2275.43,1364.64 2280.26,1365.1 2285.09,1364.96 2289.93,1364.22 2294.76,1362.87 "/>
<polyline clip-path="url(#clip952)" style="stroke:#e26f46; stroke-linecap:round; stroke-linejoin:round; stroke-width:8; stroke-opacity:1; fill:none" points="361.501,1363.89 366.334,1363.66 371.167,1363.01 376,1361.93 380.833,1360.42 385.666,1358.47 390.5,1356.09 395.333,1353.27 400.166,1350.01 404.999,1346.32 409.832,1342.2 414.665,1337.65 419.498,1332.66 424.332,1327.26 429.165,1321.43 433.998,1315.19 438.831,1308.54 443.664,1301.49 448.497,1294.03 453.33,1286.19 458.164,1277.96 462.997,1269.35 467.83,1260.38 472.663,1251.04 477.496,1241.35 482.329,1231.33 487.162,1220.97 491.996,1210.3 496.829,1199.31 501.662,1188.02 506.495,1176.44 511.328,1164.57 516.161,1152.45 520.994,1140.07 525.828,1127.46 530.661,1114.6 535.494,1101.53 540.327,1088.25 545.16,1074.78 549.993,1061.13 554.826,1047.32 559.66,1033.36 564.493,1019.26 569.326,1005.03 574.159,990.699 578.992,976.269 583.825,961.76 588.658,947.185 593.492,932.56 598.325,917.9 603.158,903.222 607.991,888.537 612.824,873.856 617.657,859.199 622.49,844.581 627.324,830.017 632.157,815.522 636.99,801.113 641.823,786.794 646.656,772.586 651.489,758.503 656.322,744.561 661.156,730.773 665.989,717.154 670.822,703.716 675.655,690.469 680.488,677.429 685.321,664.611 690.154,652.026 694.988,639.689 699.821,627.613 704.654,615.804 709.487,604.278 714.32,593.045 719.153,582.119 723.986,571.511 728.82,561.232 733.653,551.291 738.486,541.697 743.319,532.46 748.152,523.593 752.985,515.103 757.818,507.001 762.652,499.295 767.485,491.991 772.318,485.099 777.151,478.626 781.984,472.58 786.817,466.969 791.65,461.799 796.484,457.077 801.317,452.809 806.15,449.001 810.983,445.659 815.816,442.788 820.649,440.394 825.482,438.481 830.316,437.053 835.149,436.116 839.982,435.674 844.815,435.734 849.648,436.141 854.481,436.9 859.314,438.011 864.148,439.48 868.981,441.309 873.814,443.498 878.647,446.049 883.48,448.959 888.313,452.229 893.147,455.857 897.98,459.842 902.813,464.18 907.646,468.866 912.479,473.895 917.312,479.266 922.145,484.976 926.979,491.023 931.812,497.398 936.645,504.087 941.478,511.094 946.311,518.414 951.144,526.043 955.977,533.973 960.811,542.181 965.644,550.672 970.477,559.439 975.31,568.477 980.143,577.777 984.976,587.314 989.809,597.09 994.643,607.097 999.476,617.327 1004.31,627.772 1009.14,638.406 1013.98,649.229 1018.81,660.232 1023.64,671.404 1028.47,682.736 1033.31,694.207 1038.14,705.81 1042.97,717.536 1047.81,729.374 1052.64,741.313 1057.47,753.335 1062.31,765.43 1067.14,777.588 1071.97,789.798 1076.81,802.047 1081.64,814.32 1086.47,826.607 1091.31,838.894 1096.14,851.171 1100.97,863.426 1105.8,875.645 1110.64,887.815 1115.47,899.926 1120.3,911.964 1125.14,923.918 1129.97,935.776 1134.8,947.527 1139.64,959.157 1144.47,970.656 1149.3,982.01 1154.14,993.21 1158.97,1004.25 1163.8,1015.1 1168.64,1025.77 1173.47,1036.24 1178.3,1046.5 1183.14,1056.55 1187.97,1066.36 1192.8,1075.93 1197.63,1085.25 1202.47,1094.31 1207.3,1103.1 1212.13,1111.62 1216.97,1119.84 1221.8,1127.77 1226.63,1135.39 1231.47,1142.71 1236.3,1149.7 1241.13,1156.37 1245.97,1162.7 1250.8,1168.68 1255.63,1174.32 1260.47,1179.6 1265.3,1184.52 1270.13,1189.07 1274.96,1193.24 1279.8,1197.03 1284.63,1200.45 1289.46,1203.46 1294.3,1206.08 1299.13,1208.3 1303.96,1210.11 1308.8,1211.52 1313.63,1212.52 1318.46,1213.09 1323.3,1213.24 1328.13,1213.01 1332.96,1212.53 1337.8,1211.79 1342.63,1210.76 1347.46,1209.46 1352.3,1207.87 1357.13,1206 1361.96,1203.85 1366.79,1201.41 1371.63,1198.7 1376.46,1195.7 1381.29,1192.42 1386.13,1188.87 1390.96,1185.04 1395.79,1180.94 1400.63,1176.57 1405.46,1171.93 1410.29,1167.03 1415.13,1161.87 1419.96,1156.46 1424.79,1150.8 1429.63,1144.9 1434.46,1138.76 1439.29,1132.38 1444.12,1125.77 1448.96,1118.95 1453.79,1111.91 1458.62,1104.66 1463.46,1097.21 1468.29,1089.56 1473.12,1081.73 1477.96,1073.72 1482.79,1065.53 1487.62,1057.18 1492.46,1048.67 1497.29,1040.02 1502.12,1031.22 1506.96,1022.29 1511.79,1013.24 1516.62,1004.08 1521.46,994.821 1526.29,985.463 1531.12,976.018 1535.95,966.496 1540.79,956.905 1545.62,947.253 1550.45,937.557 1555.29,927.823 1560.12,918.06 1564.95,908.277 1569.79,898.484 1574.62,888.691 1579.45,878.906 1584.29,869.141 1589.12,859.405 1593.95,849.708 1598.79,840.059 1603.62,830.469 1608.45,820.949 1613.28,811.507 1618.12,802.155 1622.95,792.898 1627.78,783.745 1632.62,774.707 1637.45,765.795 1642.28,757.019 1647.12,748.386 1651.95,739.909 1656.78,731.595 1661.62,723.446 1666.45,715.474 1671.28,707.688 1676.12,700.097 1680.95,692.71 1685.78,685.535 1690.62,678.58 1695.45,671.852 1700.28,665.352 1705.11,659.092 1709.95,653.079 1714.78,647.319 1719.61,641.821 1724.45,636.589 1729.28,631.631 1734.11,626.951 1738.95,622.553 1743.78,618.444 1748.61,614.63 1753.45,611.115 1758.28,607.905 1763.11,605.005 1767.95,602.419 1772.78,600.15 1777.61,598.201 1782.44,596.578 1787.28,595.284 1792.11,594.322 1796.94,593.695 1801.78,593.406 1806.61,593.472 1811.44,593.733 1816.28,594.179 1821.11,594.807 1825.94,595.631 1830.78,596.652 1835.61,597.871 1840.44,599.29 1845.28,600.908 1850.11,602.726 1854.94,604.743 1859.78,606.958 1864.61,609.37 1869.44,611.979 1874.27,614.782 1879.11,617.778 1883.94,620.965 1888.77,624.341 1893.61,627.903 1898.44,631.648 1903.27,635.568 1908.11,639.664 1912.94,643.934 1917.77,648.376 1922.61,652.988 1927.44,657.762 1932.27,662.684 1937.11,667.761 1941.94,672.988 1946.77,678.363 1951.6,683.881 1956.44,689.537 1961.27,695.311 1966.1,701.21 1970.94,707.229 1975.77,713.363 1980.6,719.607 1985.44,725.957 1990.27,732.392 1995.1,738.916 1999.94,745.523 2004.77,752.208 2009.6,758.965 2014.44,765.788 2019.27,772.662 2024.1,779.585 2028.94,786.551 2033.77,793.553 2038.6,800.586 2043.43,807.643 2048.27,814.712 2053.1,821.788 2057.93,828.865 2062.77,835.937 2067.6,842.995 2072.43,850.034 2077.27,857.045 2082.1,864.021 2086.93,870.955 2091.77,877.84 2096.6,884.67 2101.43,891.437 2106.27,898.134 2111.1,904.756 2115.93,911.295 2120.77,917.743 2125.6,924.095 2130.43,930.342 2135.26,936.479 2140.1,942.503 2144.93,948.404 2149.76,954.176 2154.6,959.812 2159.43,965.305 2164.26,970.65 2169.1,975.848 2173.93,980.887 2178.76,985.762 2183.6,990.466 2188.43,994.994 2193.26,999.339 2198.1,1003.5 2202.93,1007.48 2207.76,1011.26 2212.59,1014.84 2217.43,1018.22 2222.26,1021.38 2227.09,1024.34 2231.93,1027.08 2236.76,1029.6 2241.59,1031.9 2246.43,1033.97 2251.26,1035.8 2256.09,1037.4 2260.93,1038.76 2265.76,1039.89 2270.59,1040.77 2275.43,1041.4 2280.26,1041.77 2285.09,1041.9 2289.93,1041.83 2294.76,1041.67 "/>
<polyline clip-path="url(#clip952)" style="stroke:#008000; stroke-linecap:round; stroke-linejoin:round; stroke-width:8; stroke-opacity:1; fill:none" stroke-dasharray="4, 8" points="361.501,1363.89 366.334,1364.57 371.167,1365.05 376,1365.33 380.833,1365.41 385.666,1365.27 390.5,1364.92 395.333,1364.35 400.166,1363.53 404.999,1362.47 409.832,1361.13 414.665,1359.49 419.498,1357.54 424.332,1355.22 429.165,1352.49 433.998,1349.3 438.831,1345.56 443.664,1341.2 448.497,1336.16 453.33,1330.29 458.164,1323.44 462.997,1315.48 467.83,1306.31 472.663,1295.9 477.496,1284.2 482.329,1271.24 487.162,1257.06 491.996,1241.74 496.829,1225.48 501.662,1208.47 506.495,1190.92 511.328,1173.04 516.161,1155.01 520.994,1137.01 525.828,1119.22 530.661,1101.81 535.494,1084.88 540.327,1068.4 545.16,1052.34 549.993,1036.65 554.826,1021.29 559.66,1006.24 564.493,991.436 569.326,976.846 574.159,962.427 578.992,948.151 583.825,934.015 588.658,920.016 593.492,906.15 598.325,892.417 603.158,878.815 607.991,865.346 612.824,852.01 617.657,838.81 622.49,825.75 627.324,812.832 632.157,800.063 636.99,787.449 641.823,774.995 646.656,762.702 651.489,750.575 656.322,738.616 661.156,726.828 665.989,715.214 670.822,703.776 675.655,692.516 680.488,681.438 685.321,670.544 690.154,659.835 694.988,649.314 699.821,638.982 704.654,628.842 709.487,618.896 714.32,609.144 719.153,599.588 723.986,590.231 728.82,581.08 733.653,572.147 738.486,563.426 743.319,554.914 748.152,546.606 752.985,538.503 757.818,530.603 762.652,522.909 767.485,515.422 772.318,508.149 777.151,501.094 781.984,494.266 786.817,487.674 791.65,481.327 796.484,475.238 801.317,469.421 806.15,463.89 810.983,458.663 815.816,453.756 820.649,449.19 825.482,444.985 830.316,441.164 835.149,437.751 839.982,434.821 844.815,432.542 849.648,430.94 854.481,430.024 859.314,429.801 864.148,430.276 868.981,431.446 873.814,433.308 878.647,435.853 883.48,439.069 888.313,442.939 893.147,447.445 897.98,452.562 902.813,458.263 907.646,464.518 912.479,471.29 917.312,478.541 922.145,486.228 926.979,494.305 931.812,502.722 936.645,511.424 941.478,520.354 946.311,529.45 951.144,538.669 955.977,548.02 960.811,557.501 965.644,567.108 970.477,576.836 975.31,586.681 980.143,596.639 984.976,606.704 989.809,616.87 994.643,627.133 999.476,637.485 1004.31,647.92 1009.14,658.431 1013.98,669.011 1018.81,679.653 1023.64,690.349 1028.47,701.091 1033.31,711.876 1038.14,722.695 1042.97,733.541 1047.81,744.406 1052.64,755.283 1057.47,766.165 1062.31,777.045 1067.14,787.915 1071.97,798.769 1076.81,809.6 1081.64,820.401 1086.47,831.165 1091.31,841.887 1096.14,852.559 1100.97,863.175 1105.8,873.729 1110.64,884.215 1115.47,894.628 1120.3,904.96 1125.14,915.206 1129.97,925.362 1134.8,935.42 1139.64,945.375 1144.47,955.223 1149.3,964.957 1154.14,974.573 1158.97,984.066 1163.8,993.43 1168.64,1002.66 1173.47,1011.75 1178.3,1020.7 1183.14,1029.51 1187.97,1038.16 1192.8,1046.66 1197.63,1055.01 1202.47,1063.19 1207.3,1071.21 1212.13,1079.07 1216.97,1086.75 1221.8,1094.26 1226.63,1101.6 1231.47,1108.76 1236.3,1115.74 1241.13,1122.53 1245.97,1129.14 1250.8,1135.57 1255.63,1141.81 1260.47,1147.86 1265.3,1153.71 1270.13,1159.38 1274.96,1164.85 1279.8,1170.13 1284.63,1175.22 1289.46,1180.1 1294.3,1184.8 1299.13,1189.29 1303.96,1193.59 1308.8,1197.7 1313.63,1201.57 1318.46,1205.12 1323.3,1208.4 1328.13,1211.43 1332.96,1214.22 1337.8,1216.82 1342.63,1219.23 1347.46,1221.46 1352.3,1223.53 1357.13,1225.46 1361.96,1227.23 1366.79,1228.85 1371.63,1230.33 1376.46,1231.64 1381.29,1232.79 1386.13,1233.76 1390.96,1234.54 1395.79,1235.1 1400.63,1235.42 1405.46,1235.48 1410.29,1235.24 1415.13,1234.67 1419.96,1233.73 1424.79,1232.39 1429.63,1230.59 1434.46,1228.29 1439.29,1225.45 1444.12,1222 1448.96,1217.89 1453.79,1213.05 1458.62,1207.43 1463.46,1200.95 1468.29,1193.54 1473.12,1185.13 1477.96,1175.63 1482.79,1164.9 1487.62,1152.92 1492.46,1139.92 1497.29,1126.09 1502.12,1111.61 1506.96,1096.67 1511.79,1081.4 1516.62,1065.96 1521.46,1050.45 1526.29,1034.99 1531.12,1019.67 1535.95,1004.55 1540.79,989.691 1545.62,975.139 1550.45,960.916 1555.29,947.03 1560.12,933.451 1564.95,920.136 1569.79,907.068 1574.62,894.232 1579.45,881.614 1584.29,869.202 1589.12,856.985 1593.95,844.954 1598.79,833.101 1603.62,821.42 1608.45,809.906 1613.28,798.555 1618.12,787.367 1622.95,776.34 1627.78,765.476 1632.62,754.778 1637.45,744.25 1642.28,733.898 1647.12,723.729 1651.95,713.747 1656.78,703.953 1661.62,694.346 1666.45,684.926 1671.28,675.696 1676.12,666.657 1680.95,657.812 1685.78,649.164 1690.62,640.718 1695.45,632.478 1700.28,624.449 1705.11,616.637 1709.95,609.049 1714.78,601.693 1719.61,594.576 1724.45,587.707 1729.28,581.095 1734.11,574.75 1738.95,568.683 1743.78,562.905 1748.61,557.428 1753.45,552.24 1758.28,547.302 1763.11,542.674 1767.95,538.418 1772.78,534.589 1777.61,531.238 1782.44,528.407 1787.28,526.134 1792.11,524.452 1796.94,523.385 1801.78,522.953 1806.61,523.169 1811.44,524.042 1816.28,525.572 1821.11,527.756 1825.94,530.582 1830.78,534.034 1835.61,538.09 1840.44,542.721 1845.28,547.893 1850.11,553.565 1854.94,559.691 1859.78,566.217 1864.61,573.086 1869.44,580.232 1874.27,587.586 1879.11,595.115 1883.94,602.849 1888.77,610.774 1893.61,618.879 1898.44,627.15 1903.27,635.575 1908.11,644.143 1912.94,652.842 1917.77,661.662 1922.61,670.591 1927.44,679.62 1932.27,688.739 1937.11,697.939 1941.94,707.211 1946.77,716.546 1951.6,725.936 1956.44,735.374 1961.27,744.852 1966.1,754.363 1970.94,763.899 1975.77,773.452 1980.6,783.014 1985.44,792.577 1990.27,802.135 1995.1,811.679 1999.94,821.204 2004.77,830.701 2009.6,840.164 2014.44,849.587 2019.27,858.962 2024.1,868.284 2028.94,877.546 2033.77,886.742 2038.6,895.866 2043.43,904.913 2048.27,913.876 2053.1,922.75 2057.93,931.531 2062.77,940.212 2067.6,948.788 2072.43,957.256 2077.27,965.609 2082.1,973.844 2086.93,981.956 2091.77,989.94 2096.6,997.793 2101.43,1005.51 2106.27,1013.09 2111.1,1020.52 2115.93,1027.81 2120.77,1034.95 2125.6,1041.93 2130.43,1048.76 2135.26,1055.43 2140.1,1061.94 2144.93,1068.29 2149.76,1074.47 2154.6,1080.48 2159.43,1086.32 2164.26,1091.99 2169.1,1097.48 2173.93,1102.79 2178.76,1107.93 2183.6,1112.89 2188.43,1117.66 2193.26,1122.25 2198.1,1126.65 2202.93,1130.87 2207.76,1134.89 2212.59,1138.73 2217.43,1142.38 2222.26,1145.83 2227.09,1149.1 2231.93,1152.16 2236.76,1155.04 2241.59,1157.72 2246.43,1160.2 2251.26,1162.47 2256.09,1164.53 2260.93,1166.38 2265.76,1168.01 2270.59,1169.42 2275.43,1170.59 2280.26,1171.52 2285.09,1172.2 2289.93,1172.61 2294.76,1172.73 "/>
<path clip-path="url(#clip950)" d="M1444.66 477.116 L2284.45 477.116 L2284.45 166.076 L1444.66 166.076  Z" fill="#ffffff" fill-rule="evenodd" fill-opacity="1"/>
<polyline clip-path="url(#clip950)" style="stroke:#000000; stroke-linecap:round; stroke-linejoin:round; stroke-width:4; stroke-opacity:1; fill:none" points="1444.66,477.116 2284.45,477.116 2284.45,166.076 1444.66,166.076 1444.66,477.116 "/>
<polyline clip-path="url(#clip950)" style="stroke:#009af9; stroke-linecap:round; stroke-linejoin:round; stroke-width:12; stroke-opacity:1; fill:none" points="1467.43,243.836 1604.05,243.836 "/>
<path clip-path="url(#clip950)" d="M1660.19 219.617 L1660.19 226.457 Q1656.2 224.548 1652.65 223.61 Q1649.11 222.673 1645.81 222.673 Q1640.08 222.673 1636.96 224.895 Q1633.87 227.117 1633.87 231.214 Q1633.87 234.652 1635.92 236.423 Q1638 238.159 1643.76 239.235 L1648 240.103 Q1655.85 241.596 1659.56 245.381 Q1663.31 249.131 1663.31 255.45 Q1663.31 262.985 1658.24 266.874 Q1653.21 270.763 1643.45 270.763 Q1639.77 270.763 1635.6 269.929 Q1631.47 269.096 1627.03 267.464 L1627.03 260.242 Q1631.3 262.638 1635.4 263.853 Q1639.49 265.068 1643.45 265.068 Q1649.46 265.068 1652.72 262.707 Q1655.99 260.346 1655.99 255.971 Q1655.99 252.152 1653.63 249.999 Q1651.3 247.846 1645.95 246.77 L1641.68 245.936 Q1633.83 244.374 1630.33 241.041 Q1626.82 237.707 1626.82 231.77 Q1626.82 224.895 1631.65 220.937 Q1636.51 216.978 1645.01 216.978 Q1648.66 216.978 1652.45 217.638 Q1656.23 218.298 1660.19 219.617 Z" fill="#000000" fill-rule="nonzero" fill-opacity="1" /><path clip-path="url(#clip950)" d="M1673.97 230.867 L1680.36 230.867 L1680.36 269.756 L1673.97 269.756 L1673.97 230.867 M1673.97 215.728 L1680.36 215.728 L1680.36 223.818 L1673.97 223.818 L1673.97 215.728 Z" fill="#000000" fill-rule="nonzero" fill-opacity="1" /><path clip-path="url(#clip950)" d="M1724.01 238.332 Q1726.4 234.027 1729.74 231.978 Q1733.07 229.93 1737.58 229.93 Q1743.66 229.93 1746.96 234.2 Q1750.26 238.436 1750.26 246.284 L1750.26 269.756 L1743.83 269.756 L1743.83 246.492 Q1743.83 240.902 1741.85 238.193 Q1739.88 235.485 1735.81 235.485 Q1730.85 235.485 1727.97 238.784 Q1725.08 242.082 1725.08 247.777 L1725.08 269.756 L1718.66 269.756 L1718.66 246.492 Q1718.66 240.867 1716.68 238.193 Q1714.7 235.485 1710.57 235.485 Q1705.67 235.485 1702.79 238.818 Q1699.91 242.117 1699.91 247.777 L1699.91 269.756 L1693.49 269.756 L1693.49 230.867 L1699.91 230.867 L1699.91 236.909 Q1702.1 233.332 1705.15 231.631 Q1708.21 229.93 1712.41 229.93 Q1716.65 229.93 1719.6 232.082 Q1722.58 234.235 1724.01 238.332 Z" fill="#000000" fill-rule="nonzero" fill-opacity="1" /><path clip-path="url(#clip950)" d="M1769.18 263.922 L1769.18 284.547 L1762.76 284.547 L1762.76 230.867 L1769.18 230.867 L1769.18 236.77 Q1771.19 233.298 1774.25 231.631 Q1777.34 229.93 1781.61 229.93 Q1788.69 229.93 1793.1 235.555 Q1797.55 241.179 1797.55 250.346 Q1797.55 259.513 1793.1 265.138 Q1788.69 270.763 1781.61 270.763 Q1777.34 270.763 1774.25 269.096 Q1771.19 267.395 1769.18 263.922 M1790.92 250.346 Q1790.92 243.298 1788 239.304 Q1785.12 235.277 1780.05 235.277 Q1774.98 235.277 1772.06 239.304 Q1769.18 243.298 1769.18 250.346 Q1769.18 257.395 1772.06 261.422 Q1774.98 265.415 1780.05 265.415 Q1785.12 265.415 1788 261.422 Q1790.92 257.395 1790.92 250.346 Z" fill="#000000" fill-rule="nonzero" fill-opacity="1" /><path clip-path="url(#clip950)" d="M1808.14 215.728 L1814.53 215.728 L1814.53 269.756 L1808.14 269.756 L1808.14 215.728 Z" fill="#000000" fill-rule="nonzero" fill-opacity="1" /><path clip-path="url(#clip950)" d="M1861.16 248.714 L1861.16 251.839 L1831.78 251.839 Q1832.2 258.436 1835.74 261.909 Q1839.32 265.346 1845.67 265.346 Q1849.35 265.346 1852.79 264.443 Q1856.26 263.54 1859.67 261.735 L1859.67 267.777 Q1856.23 269.235 1852.62 269.999 Q1849.01 270.763 1845.29 270.763 Q1835.99 270.763 1830.53 265.346 Q1825.12 259.929 1825.12 250.693 Q1825.12 241.145 1830.26 235.555 Q1835.43 229.93 1844.18 229.93 Q1852.03 229.93 1856.58 234.999 Q1861.16 240.034 1861.16 248.714 M1854.77 246.839 Q1854.7 241.596 1851.82 238.471 Q1848.97 235.346 1844.25 235.346 Q1838.9 235.346 1835.67 238.367 Q1832.48 241.388 1831.99 246.874 L1854.77 246.839 Z" fill="#000000" fill-rule="nonzero" fill-opacity="1" /><path clip-path="url(#clip950)" d="M1871.92 217.916 L1901.71 217.916 L1901.71 223.818 L1878.94 223.818 L1878.94 239.096 L1899.49 239.096 L1899.49 244.999 L1878.94 244.999 L1878.94 269.756 L1871.92 269.756 L1871.92 217.916 Z" fill="#000000" fill-rule="nonzero" fill-opacity="1" /><path clip-path="url(#clip950)" d="M1912.83 217.916 L1923.28 217.916 L1936.51 253.193 L1949.8 217.916 L1960.26 217.916 L1960.26 269.756 L1953.42 269.756 L1953.42 224.235 L1940.05 259.79 L1933 259.79 L1919.63 224.235 L1919.63 269.756 L1912.83 269.756 L1912.83 217.916 Z" fill="#000000" fill-rule="nonzero" fill-opacity="1" /><path clip-path="url(#clip950)" d="M1973.38 217.916 L1980.43 217.916 L1980.43 249.409 Q1980.43 257.742 1983.45 261.422 Q1986.47 265.068 1993.24 265.068 Q1999.98 265.068 2003 261.422 Q2006.02 257.742 2006.02 249.409 L2006.02 217.916 L2013.07 217.916 L2013.07 250.277 Q2013.07 260.415 2008.03 265.589 Q2003.03 270.763 1993.24 270.763 Q1983.42 270.763 1978.38 265.589 Q1973.38 260.415 1973.38 250.277 L1973.38 217.916 Z" fill="#000000" fill-rule="nonzero" fill-opacity="1" /><polyline clip-path="url(#clip950)" style="stroke:#e26f46; stroke-linecap:round; stroke-linejoin:round; stroke-width:12; stroke-opacity:1; fill:none" points="1467.43,321.596 1604.05,321.596 "/>
<path clip-path="url(#clip950)" d="M1651.4 323.21 Q1653.66 323.974 1655.78 326.474 Q1657.93 328.974 1660.08 333.349 L1667.2 347.516 L1659.67 347.516 L1653.04 334.217 Q1650.47 329.009 1648.04 327.307 Q1645.64 325.606 1641.47 325.606 L1633.83 325.606 L1633.83 347.516 L1626.82 347.516 L1626.82 295.676 L1642.65 295.676 Q1651.54 295.676 1655.92 299.391 Q1660.29 303.106 1660.29 310.606 Q1660.29 315.502 1658 318.731 Q1655.74 321.96 1651.4 323.21 M1633.83 301.44 L1633.83 319.842 L1642.65 319.842 Q1647.72 319.842 1650.29 317.516 Q1652.9 315.155 1652.9 310.606 Q1652.9 306.058 1650.29 303.766 Q1647.72 301.44 1642.65 301.44 L1633.83 301.44 Z" fill="#000000" fill-rule="nonzero" fill-opacity="1" /><path clip-path="url(#clip950)" d="M1706.02 326.474 L1706.02 329.599 L1676.65 329.599 Q1677.06 336.196 1680.6 339.669 Q1684.18 343.106 1690.54 343.106 Q1694.22 343.106 1697.65 342.203 Q1701.13 341.3 1704.53 339.495 L1704.53 345.537 Q1701.09 346.995 1697.48 347.759 Q1693.87 348.523 1690.15 348.523 Q1680.85 348.523 1675.4 343.106 Q1669.98 337.689 1669.98 328.453 Q1669.98 318.905 1675.12 313.315 Q1680.29 307.69 1689.04 307.69 Q1696.89 307.69 1701.44 312.759 Q1706.02 317.794 1706.02 326.474 M1699.63 324.599 Q1699.56 319.356 1696.68 316.231 Q1693.83 313.106 1689.11 313.106 Q1683.76 313.106 1680.54 316.127 Q1677.34 319.148 1676.85 324.634 L1699.63 324.599 Z" fill="#000000" fill-rule="nonzero" fill-opacity="1" /><path clip-path="url(#clip950)" d="M1736.19 293.488 L1736.19 298.801 L1730.08 298.801 Q1726.65 298.801 1725.29 300.19 Q1723.97 301.578 1723.97 305.19 L1723.97 308.627 L1734.49 308.627 L1734.49 313.592 L1723.97 313.592 L1723.97 347.516 L1717.55 347.516 L1717.55 313.592 L1711.44 313.592 L1711.44 308.627 L1717.55 308.627 L1717.55 305.919 Q1717.55 299.426 1720.57 296.474 Q1723.59 293.488 1730.15 293.488 L1736.19 293.488 Z" fill="#000000" fill-rule="nonzero" fill-opacity="1" /><path clip-path="url(#clip950)" d="M1774.81 326.474 L1774.81 329.599 L1745.43 329.599 Q1745.85 336.196 1749.39 339.669 Q1752.97 343.106 1759.32 343.106 Q1763 343.106 1766.44 342.203 Q1769.91 341.3 1773.31 339.495 L1773.31 345.537 Q1769.88 346.995 1766.26 347.759 Q1762.65 348.523 1758.94 348.523 Q1749.63 348.523 1744.18 343.106 Q1738.76 337.689 1738.76 328.453 Q1738.76 318.905 1743.9 313.315 Q1749.08 307.69 1757.83 307.69 Q1765.67 307.69 1770.22 312.759 Q1774.81 317.794 1774.81 326.474 M1768.42 324.599 Q1768.35 319.356 1765.47 316.231 Q1762.62 313.106 1757.9 313.106 Q1752.55 313.106 1749.32 316.127 Q1746.13 319.148 1745.64 324.634 L1768.42 324.599 Z" fill="#000000" fill-rule="nonzero" fill-opacity="1" /><path clip-path="url(#clip950)" d="M1807.83 314.599 Q1806.75 313.974 1805.47 313.696 Q1804.22 313.384 1802.69 313.384 Q1797.27 313.384 1794.35 316.926 Q1791.47 320.433 1791.47 327.03 L1791.47 347.516 L1785.05 347.516 L1785.05 308.627 L1791.47 308.627 L1791.47 314.669 Q1793.49 311.127 1796.72 309.426 Q1799.94 307.69 1804.56 307.69 Q1805.22 307.69 1806.02 307.794 Q1806.82 307.863 1807.79 308.037 L1807.83 314.599 Z" fill="#000000" fill-rule="nonzero" fill-opacity="1" /><path clip-path="url(#clip950)" d="M1846.23 326.474 L1846.23 329.599 L1816.85 329.599 Q1817.27 336.196 1820.81 339.669 Q1824.39 343.106 1830.74 343.106 Q1834.42 343.106 1837.86 342.203 Q1841.33 341.3 1844.74 339.495 L1844.74 345.537 Q1841.3 346.995 1837.69 347.759 Q1834.08 348.523 1830.36 348.523 Q1821.06 348.523 1815.6 343.106 Q1810.19 337.689 1810.19 328.453 Q1810.19 318.905 1815.33 313.315 Q1820.5 307.69 1829.25 307.69 Q1837.1 307.69 1841.65 312.759 Q1846.23 317.794 1846.23 326.474 M1839.84 324.599 Q1839.77 319.356 1836.89 316.231 Q1834.04 313.106 1829.32 313.106 Q1823.97 313.106 1820.74 316.127 Q1817.55 319.148 1817.06 324.634 L1839.84 324.599 Z" fill="#000000" fill-rule="nonzero" fill-opacity="1" /><path clip-path="url(#clip950)" d="M1889.04 324.044 L1889.04 347.516 L1882.65 347.516 L1882.65 324.252 Q1882.65 318.731 1880.5 315.988 Q1878.35 313.245 1874.04 313.245 Q1868.87 313.245 1865.88 316.544 Q1862.9 319.842 1862.9 325.537 L1862.9 347.516 L1856.47 347.516 L1856.47 308.627 L1862.9 308.627 L1862.9 314.669 Q1865.19 311.162 1868.28 309.426 Q1871.4 307.69 1875.46 307.69 Q1882.17 307.69 1885.6 311.856 Q1889.04 315.988 1889.04 324.044 Z" fill="#000000" fill-rule="nonzero" fill-opacity="1" /><path clip-path="url(#clip950)" d="M1929.77 310.12 L1929.77 316.092 Q1927.06 314.599 1924.32 313.87 Q1921.61 313.106 1918.83 313.106 Q1912.62 313.106 1909.18 317.064 Q1905.74 320.988 1905.74 328.106 Q1905.74 335.224 1909.18 339.182 Q1912.62 343.106 1918.83 343.106 Q1921.61 343.106 1924.32 342.377 Q1927.06 341.613 1929.77 340.12 L1929.77 346.023 Q1927.1 347.273 1924.21 347.898 Q1921.37 348.523 1918.14 348.523 Q1909.35 348.523 1904.18 343.002 Q1899.01 337.481 1899.01 328.106 Q1899.01 318.592 1904.21 313.141 Q1909.46 307.69 1918.55 307.69 Q1921.51 307.69 1924.32 308.315 Q1927.13 308.905 1929.77 310.12 Z" fill="#000000" fill-rule="nonzero" fill-opacity="1" /><path clip-path="url(#clip950)" d="M1974.14 326.474 L1974.14 329.599 L1944.77 329.599 Q1945.19 336.196 1948.73 339.669 Q1952.3 343.106 1958.66 343.106 Q1962.34 343.106 1965.78 342.203 Q1969.25 341.3 1972.65 339.495 L1972.65 345.537 Q1969.21 346.995 1965.6 347.759 Q1961.99 348.523 1958.28 348.523 Q1948.97 348.523 1943.52 343.106 Q1938.1 337.689 1938.1 328.453 Q1938.1 318.905 1943.24 313.315 Q1948.42 307.69 1957.17 307.69 Q1965.01 307.69 1969.56 312.759 Q1974.14 317.794 1974.14 326.474 M1967.76 324.599 Q1967.69 319.356 1964.8 316.231 Q1961.96 313.106 1957.24 313.106 Q1951.89 313.106 1948.66 316.127 Q1945.46 319.148 1944.98 324.634 L1967.76 324.599 Z" fill="#000000" fill-rule="nonzero" fill-opacity="1" /><polyline clip-path="url(#clip950)" style="stroke:#008000; stroke-linecap:round; stroke-linejoin:round; stroke-width:12; stroke-opacity:1; fill:none" stroke-dasharray="6, 12" points="1467.43,399.356 1604.05,399.356 "/>
<path clip-path="url(#clip950)" d="M1626.82 373.436 L1636.26 373.436 L1659.25 416.804 L1659.25 373.436 L1666.06 373.436 L1666.06 425.276 L1656.61 425.276 L1633.63 381.908 L1633.63 425.276 L1626.82 425.276 L1626.82 373.436 Z" fill="#000000" fill-rule="nonzero" fill-opacity="1" /><path clip-path="url(#clip950)" d="M1713 404.234 L1713 407.359 L1683.63 407.359 Q1684.04 413.956 1687.58 417.429 Q1691.16 420.866 1697.51 420.866 Q1701.19 420.866 1704.63 419.963 Q1708.1 419.06 1711.51 417.255 L1711.51 423.297 Q1708.07 424.755 1704.46 425.519 Q1700.85 426.283 1697.13 426.283 Q1687.83 426.283 1682.38 420.866 Q1676.96 415.449 1676.96 406.213 Q1676.96 396.665 1682.1 391.075 Q1687.27 385.45 1696.02 385.45 Q1703.87 385.45 1708.42 390.519 Q1713 395.554 1713 404.234 M1706.61 402.359 Q1706.54 397.116 1703.66 393.991 Q1700.81 390.866 1696.09 390.866 Q1690.74 390.866 1687.51 393.887 Q1684.32 396.908 1683.83 402.394 L1706.61 402.359 Z" fill="#000000" fill-rule="nonzero" fill-opacity="1" /><path clip-path="url(#clip950)" d="M1722.83 409.929 L1722.83 386.387 L1729.22 386.387 L1729.22 409.686 Q1729.22 415.206 1731.37 417.984 Q1733.52 420.727 1737.83 420.727 Q1743 420.727 1745.99 417.429 Q1749.01 414.13 1749.01 408.436 L1749.01 386.387 L1755.4 386.387 L1755.4 425.276 L1749.01 425.276 L1749.01 419.304 Q1746.68 422.845 1743.59 424.581 Q1740.53 426.283 1736.47 426.283 Q1729.77 426.283 1726.3 422.116 Q1722.83 417.949 1722.83 409.929 M1738.9 385.45 L1738.9 385.45 Z" fill="#000000" fill-rule="nonzero" fill-opacity="1" /><path clip-path="url(#clip950)" d="M1791.09 392.359 Q1790.01 391.734 1788.73 391.456 Q1787.48 391.144 1785.95 391.144 Q1780.53 391.144 1777.62 394.686 Q1774.74 398.193 1774.74 404.79 L1774.74 425.276 L1768.31 425.276 L1768.31 386.387 L1774.74 386.387 L1774.74 392.429 Q1776.75 388.887 1779.98 387.186 Q1783.21 385.45 1787.83 385.45 Q1788.49 385.45 1789.28 385.554 Q1790.08 385.623 1791.06 385.797 L1791.09 392.359 Z" fill="#000000" fill-rule="nonzero" fill-opacity="1" /><path clip-path="url(#clip950)" d="M1815.47 405.727 Q1807.72 405.727 1804.74 407.498 Q1801.75 409.269 1801.75 413.54 Q1801.75 416.942 1803.97 418.956 Q1806.23 420.935 1810.08 420.935 Q1815.4 420.935 1818.59 417.185 Q1821.82 413.401 1821.82 407.151 L1821.82 405.727 L1815.47 405.727 M1828.21 403.088 L1828.21 425.276 L1821.82 425.276 L1821.82 419.373 Q1819.63 422.915 1816.37 424.616 Q1813.1 426.283 1808.38 426.283 Q1802.41 426.283 1798.87 422.949 Q1795.36 419.581 1795.36 413.956 Q1795.36 407.394 1799.74 404.061 Q1804.15 400.727 1812.86 400.727 L1821.82 400.727 L1821.82 400.102 Q1821.82 395.693 1818.9 393.297 Q1816.02 390.866 1810.78 390.866 Q1807.44 390.866 1804.28 391.665 Q1801.12 392.463 1798.21 394.061 L1798.21 388.158 Q1801.72 386.804 1805.01 386.144 Q1808.31 385.45 1811.44 385.45 Q1819.87 385.45 1824.04 389.825 Q1828.21 394.199 1828.21 403.088 Z" fill="#000000" fill-rule="nonzero" fill-opacity="1" /><path clip-path="url(#clip950)" d="M1841.37 371.248 L1847.76 371.248 L1847.76 425.276 L1841.37 425.276 L1841.37 371.248 Z" fill="#000000" fill-rule="nonzero" fill-opacity="1" /><path clip-path="url(#clip950)" d="M1861.4 373.436 L1891.19 373.436 L1891.19 379.338 L1868.42 379.338 L1868.42 394.616 L1888.97 394.616 L1888.97 400.519 L1868.42 400.519 L1868.42 425.276 L1861.4 425.276 L1861.4 373.436 Z" fill="#000000" fill-rule="nonzero" fill-opacity="1" /><path clip-path="url(#clip950)" d="M1902.3 373.436 L1912.76 373.436 L1925.99 408.713 L1939.28 373.436 L1949.74 373.436 L1949.74 425.276 L1942.89 425.276 L1942.89 379.755 L1929.53 415.31 L1922.48 415.31 L1909.11 379.755 L1909.11 425.276 L1902.3 425.276 L1902.3 373.436 Z" fill="#000000" fill-rule="nonzero" fill-opacity="1" /><path clip-path="url(#clip950)" d="M1962.86 373.436 L1969.91 373.436 L1969.91 404.929 Q1969.91 413.262 1972.93 416.942 Q1975.95 420.588 1982.72 420.588 Q1989.46 420.588 1992.48 416.942 Q1995.5 413.262 1995.5 404.929 L1995.5 373.436 L2002.55 373.436 L2002.55 405.797 Q2002.55 415.935 1997.51 421.109 Q1992.51 426.283 1982.72 426.283 Q1972.89 426.283 1967.86 421.109 Q1962.86 415.935 1962.86 405.797 L1962.86 373.436 Z" fill="#000000" fill-rule="nonzero" fill-opacity="1" /><path clip-path="url(#clip950)" d="M2053.38 371.318 Q2048.73 379.304 2046.47 387.116 Q2044.21 394.929 2044.21 402.949 Q2044.21 410.97 2046.47 418.852 Q2048.76 426.699 2053.38 434.651 L2047.82 434.651 Q2042.62 426.491 2040.01 418.609 Q2037.44 410.727 2037.44 402.949 Q2037.44 395.206 2040.01 387.359 Q2042.58 379.512 2047.82 371.318 L2053.38 371.318 Z" fill="#000000" fill-rule="nonzero" fill-opacity="1" /><path clip-path="url(#clip950)" d="M2072.72 419.373 L2097.2 419.373 L2097.2 425.276 L2064.28 425.276 L2064.28 419.373 Q2068.28 415.241 2075.15 408.297 Q2082.06 401.318 2083.83 399.304 Q2087.2 395.519 2088.52 392.915 Q2089.87 390.276 2089.87 387.741 Q2089.87 383.609 2086.96 381.005 Q2084.07 378.401 2079.42 378.401 Q2076.12 378.401 2072.44 379.547 Q2068.8 380.693 2064.63 383.019 L2064.63 375.936 Q2068.87 374.234 2072.55 373.366 Q2076.23 372.498 2079.28 372.498 Q2087.34 372.498 2092.13 376.526 Q2096.92 380.554 2096.92 387.29 Q2096.92 390.484 2095.71 393.366 Q2094.53 396.213 2091.37 400.102 Q2090.5 401.109 2085.85 405.936 Q2081.19 410.727 2072.72 419.373 Z" fill="#000000" fill-rule="nonzero" fill-opacity="1" /><path clip-path="url(#clip950)" d="M2111.99 373.436 L2139.53 373.436 L2139.53 379.338 L2118.41 379.338 L2118.41 392.047 Q2119.94 391.526 2121.47 391.283 Q2123 391.005 2124.53 391.005 Q2133.21 391.005 2138.28 395.762 Q2143.35 400.519 2143.35 408.644 Q2143.35 417.012 2138.14 421.665 Q2132.93 426.283 2123.45 426.283 Q2120.19 426.283 2116.78 425.727 Q2113.41 425.172 2109.8 424.06 L2109.8 417.012 Q2112.93 418.713 2116.26 419.547 Q2119.6 420.38 2123.31 420.38 Q2129.32 420.38 2132.82 417.22 Q2136.33 414.06 2136.33 408.644 Q2136.33 403.227 2132.82 400.068 Q2129.32 396.908 2123.31 396.908 Q2120.5 396.908 2117.69 397.533 Q2114.91 398.158 2111.99 399.477 L2111.99 373.436 Z" fill="#000000" fill-rule="nonzero" fill-opacity="1" /><path clip-path="url(#clip950)" d="M2172.16 378.054 Q2166.75 378.054 2164 383.401 Q2161.3 388.713 2161.3 399.408 Q2161.3 410.067 2164 415.415 Q2166.75 420.727 2172.16 420.727 Q2177.62 420.727 2180.32 415.415 Q2183.07 410.067 2183.07 399.408 Q2183.07 388.713 2180.32 383.401 Q2177.62 378.054 2172.16 378.054 M2172.16 372.498 Q2180.88 372.498 2185.46 379.408 Q2190.08 386.283 2190.08 399.408 Q2190.08 412.498 2185.46 419.408 Q2180.88 426.283 2172.16 426.283 Q2163.45 426.283 2158.83 419.408 Q2154.25 412.498 2154.25 399.408 Q2154.25 386.283 2158.83 379.408 Q2163.45 372.498 2172.16 372.498 Z" fill="#000000" fill-rule="nonzero" fill-opacity="1" /><path clip-path="url(#clip950)" d="M2217.41 378.054 Q2211.99 378.054 2209.25 383.401 Q2206.54 388.713 2206.54 399.408 Q2206.54 410.067 2209.25 415.415 Q2211.99 420.727 2217.41 420.727 Q2222.86 420.727 2225.57 415.415 Q2228.31 410.067 2228.31 399.408 Q2228.31 388.713 2225.57 383.401 Q2222.86 378.054 2217.41 378.054 M2217.41 372.498 Q2226.12 372.498 2230.71 379.408 Q2235.32 386.283 2235.32 399.408 Q2235.32 412.498 2230.71 419.408 Q2226.12 426.283 2217.41 426.283 Q2208.69 426.283 2204.07 419.408 Q2199.49 412.498 2199.49 399.408 Q2199.49 386.283 2204.07 379.408 Q2208.69 372.498 2217.41 372.498 Z" fill="#000000" fill-rule="nonzero" fill-opacity="1" /><path clip-path="url(#clip950)" d="M2245.74 371.318 L2251.3 371.318 Q2256.5 379.512 2259.07 387.359 Q2261.68 395.206 2261.68 402.949 Q2261.68 410.727 2259.07 418.609 Q2256.5 426.491 2251.3 434.651 L2245.74 434.651 Q2250.36 426.699 2252.62 418.852 Q2254.91 410.97 2254.91 402.949 Q2254.91 394.929 2252.62 387.116 Q2250.36 379.304 2245.74 371.318 Z" fill="#000000" fill-rule="nonzero" fill-opacity="1" /></svg>
