<?xml version="1.0" encoding="utf-8"?>
<svg xmlns="http://www.w3.org/2000/svg" xmlns:xlink="http://www.w3.org/1999/xlink" width="600" height="400" viewBox="0 0 2400 1600">
<defs>
  <clipPath id="clip750">
    <rect x="0" y="0" width="2400" height="1600"/>
  </clipPath>
</defs>
<path clip-path="url(#clip750)" d="
M0 1600 L2400 1600 L2400 0 L0 0  Z
  " fill="#ffffff" fill-rule="evenodd" fill-opacity="1"/>
<defs>
  <clipPath id="clip751">
    <rect x="480" y="0" width="1681" height="1600"/>
  </clipPath>
</defs>
<path clip-path="url(#clip750)" d="
M247.878 1401.58 L2352.76 1401.58 L2352.76 123.472 L247.878 123.472  Z
  " fill="#ffffff" fill-rule="evenodd" fill-opacity="1"/>
<defs>
  <clipPath id="clip752">
    <rect x="247" y="123" width="2106" height="1279"/>
  </clipPath>
</defs>
<polyline clip-path="url(#clip752)" style="stroke:#000000; stroke-linecap:round; stroke-linejoin:round; stroke-width:2; stroke-opacity:0.1; fill:none" points="
  458.366,1401.58 458.366,123.472 
  "/>
<polyline clip-path="url(#clip752)" style="stroke:#000000; stroke-linecap:round; stroke-linejoin:round; stroke-width:2; stroke-opacity:0.1; fill:none" points="
  879.342,1401.58 879.342,123.472 
  "/>
<polyline clip-path="url(#clip752)" style="stroke:#000000; stroke-linecap:round; stroke-linejoin:round; stroke-width:2; stroke-opacity:0.1; fill:none" points="
  1300.32,1401.58 1300.32,123.472 
  "/>
<polyline clip-path="url(#clip752)" style="stroke:#000000; stroke-linecap:round; stroke-linejoin:round; stroke-width:2; stroke-opacity:0.1; fill:none" points="
  1721.29,1401.58 1721.29,123.472 
  "/>
<polyline clip-path="url(#clip752)" style="stroke:#000000; stroke-linecap:round; stroke-linejoin:round; stroke-width:2; stroke-opacity:0.1; fill:none" points="
  2142.27,1401.58 2142.27,123.472 
  "/>
<polyline clip-path="url(#clip750)" style="stroke:#000000; stroke-linecap:round; stroke-linejoin:round; stroke-width:4; stroke-opacity:1; fill:none" points="
  247.878,1401.58 2352.76,1401.58 
  "/>
<polyline clip-path="url(#clip750)" style="stroke:#000000; stroke-linecap:round; stroke-linejoin:round; stroke-width:4; stroke-opacity:1; fill:none" points="
  458.366,1401.58 458.366,1382.68 
  "/>
<polyline clip-path="url(#clip750)" style="stroke:#000000; stroke-linecap:round; stroke-linejoin:round; stroke-width:4; stroke-opacity:1; fill:none" points="
  879.342,1401.58 879.342,1382.68 
  "/>
<polyline clip-path="url(#clip750)" style="stroke:#000000; stroke-linecap:round; stroke-linejoin:round; stroke-width:4; stroke-opacity:1; fill:none" points="
  1300.32,1401.58 1300.32,1382.68 
  "/>
<polyline clip-path="url(#clip750)" style="stroke:#000000; stroke-linecap:round; stroke-linejoin:round; stroke-width:4; stroke-opacity:1; fill:none" points="
  1721.29,1401.58 1721.29,1382.68 
  "/>
<polyline clip-path="url(#clip750)" style="stroke:#000000; stroke-linecap:round; stroke-linejoin:round; stroke-width:4; stroke-opacity:1; fill:none" points="
  2142.27,1401.58 2142.27,1382.68 
  "/>
<path clip-path="url(#clip750)" d="M378.158 1460.34 L422.672 1460.34 L422.672 1466.24 L378.158 1466.24 L378.158 1460.34 Z" fill="#000000" fill-rule="evenodd" fill-opacity="1" /><path clip-path="url(#clip750)" d="M439.026 1479.68 L450.484 1479.68 L450.484 1440.13 L438.019 1442.63 L438.019 1436.24 L450.415 1433.74 L457.429 1433.74 L457.429 1479.68 L468.887 1479.68 L468.887 1485.58 L439.026 1485.58 L439.026 1479.68 Z" fill="#000000" fill-rule="evenodd" fill-opacity="1" /><path clip-path="url(#clip750)" d="M483.053 1476.76 L490.38 1476.76 L490.38 1485.58 L483.053 1485.58 L483.053 1476.76 Z" fill="#000000" fill-rule="evenodd" fill-opacity="1" /><path clip-path="url(#clip750)" d="M520.657 1438.36 Q515.241 1438.36 512.498 1443.71 Q509.789 1449.02 509.789 1459.71 Q509.789 1470.37 512.498 1475.72 Q515.241 1481.03 520.657 1481.03 Q526.109 1481.03 528.817 1475.72 Q531.56 1470.37 531.56 1459.71 Q531.56 1449.02 528.817 1443.71 Q526.109 1438.36 520.657 1438.36 M520.657 1432.8 Q529.373 1432.8 533.956 1439.71 Q538.574 1446.59 538.574 1459.71 Q538.574 1472.8 533.956 1479.71 Q529.373 1486.59 520.657 1486.59 Q511.942 1486.59 507.324 1479.71 Q502.741 1472.8 502.741 1459.71 Q502.741 1446.59 507.324 1439.71 Q511.942 1432.8 520.657 1432.8 Z" fill="#000000" fill-rule="evenodd" fill-opacity="1" /><path clip-path="url(#clip750)" d="M799.88 1460.34 L844.394 1460.34 L844.394 1466.24 L799.88 1466.24 L799.88 1460.34 Z" fill="#000000" fill-rule="evenodd" fill-opacity="1" /><path clip-path="url(#clip750)" d="M874.533 1438.36 Q869.116 1438.36 866.373 1443.71 Q863.665 1449.02 863.665 1459.71 Q863.665 1470.37 866.373 1475.72 Q869.116 1481.03 874.533 1481.03 Q879.984 1481.03 882.692 1475.72 Q885.435 1470.37 885.435 1459.71 Q885.435 1449.02 882.692 1443.71 Q879.984 1438.36 874.533 1438.36 M874.533 1432.8 Q883.248 1432.8 887.831 1439.71 Q892.449 1446.59 892.449 1459.71 Q892.449 1472.8 887.831 1479.71 Q883.248 1486.59 874.533 1486.59 Q865.817 1486.59 861.199 1479.71 Q856.616 1472.8 856.616 1459.71 Q856.616 1446.59 861.199 1439.71 Q865.817 1432.8 874.533 1432.8 Z" fill="#000000" fill-rule="evenodd" fill-opacity="1" /><path clip-path="url(#clip750)" d="M904.775 1476.76 L912.102 1476.76 L912.102 1485.58 L904.775 1485.58 L904.775 1476.76 Z" fill="#000000" fill-rule="evenodd" fill-opacity="1" /><path clip-path="url(#clip750)" d="M927.449 1433.74 L954.984 1433.74 L954.984 1439.64 L933.873 1439.64 L933.873 1452.35 Q935.4 1451.83 936.928 1451.59 Q938.456 1451.31 939.984 1451.31 Q948.664 1451.31 953.734 1456.07 Q958.803 1460.82 958.803 1468.95 Q958.803 1477.32 953.595 1481.97 Q948.386 1486.59 938.907 1486.59 Q935.643 1486.59 932.241 1486.03 Q928.873 1485.48 925.261 1484.36 L925.261 1477.32 Q928.386 1479.02 931.72 1479.85 Q935.053 1480.68 938.768 1480.68 Q944.775 1480.68 948.282 1477.52 Q951.789 1474.36 951.789 1468.95 Q951.789 1463.53 948.282 1460.37 Q944.775 1457.21 938.768 1457.21 Q935.956 1457.21 933.143 1457.84 Q930.366 1458.46 927.449 1459.78 L927.449 1433.74 Z" fill="#000000" fill-rule="evenodd" fill-opacity="1" /><path clip-path="url(#clip750)" d="M1266.39 1438.36 Q1260.98 1438.36 1258.23 1443.71 Q1255.53 1449.02 1255.53 1459.71 Q1255.53 1470.37 1258.23 1475.72 Q1260.98 1481.03 1266.39 1481.03 Q1271.85 1481.03 1274.55 1475.72 Q1277.3 1470.37 1277.3 1459.71 Q1277.3 1449.02 1274.55 1443.71 Q1271.85 1438.36 1266.39 1438.36 M1266.39 1432.8 Q1275.11 1432.8 1279.69 1439.71 Q1284.31 1446.59 1284.31 1459.71 Q1284.31 1472.8 1279.69 1479.71 Q1275.11 1486.59 1266.39 1486.59 Q1257.68 1486.59 1253.06 1479.71 Q1248.48 1472.8 1248.48 1459.71 Q1248.48 1446.59 1253.06 1439.71 Q1257.68 1432.8 1266.39 1432.8 Z" fill="#000000" fill-rule="evenodd" fill-opacity="1" /><path clip-path="url(#clip750)" d="M1296.64 1476.76 L1303.96 1476.76 L1303.96 1485.58 L1296.64 1485.58 L1296.64 1476.76 Z" fill="#000000" fill-rule="evenodd" fill-opacity="1" /><path clip-path="url(#clip750)" d="M1334.24 1438.36 Q1328.82 1438.36 1326.08 1443.71 Q1323.37 1449.02 1323.37 1459.71 Q1323.37 1470.37 1326.08 1475.72 Q1328.82 1481.03 1334.24 1481.03 Q1339.69 1481.03 1342.4 1475.72 Q1345.14 1470.37 1345.14 1459.71 Q1345.14 1449.02 1342.4 1443.71 Q1339.69 1438.36 1334.24 1438.36 M1334.24 1432.8 Q1342.96 1432.8 1347.54 1439.71 Q1352.16 1446.59 1352.16 1459.71 Q1352.16 1472.8 1347.54 1479.71 Q1342.96 1486.59 1334.24 1486.59 Q1325.53 1486.59 1320.91 1479.71 Q1316.32 1472.8 1316.32 1459.71 Q1316.32 1446.59 1320.91 1439.71 Q1325.53 1432.8 1334.24 1432.8 Z" fill="#000000" fill-rule="evenodd" fill-opacity="1" /><path clip-path="url(#clip750)" d="M1688.12 1438.36 Q1682.7 1438.36 1679.96 1443.71 Q1677.25 1449.02 1677.25 1459.71 Q1677.25 1470.37 1679.96 1475.72 Q1682.7 1481.03 1688.12 1481.03 Q1693.57 1481.03 1696.28 1475.72 Q1699.02 1470.37 1699.02 1459.71 Q1699.02 1449.02 1696.28 1443.71 Q1693.57 1438.36 1688.12 1438.36 M1688.12 1432.8 Q1696.83 1432.8 1701.41 1439.71 Q1706.03 1446.59 1706.03 1459.71 Q1706.03 1472.8 1701.41 1479.71 Q1696.83 1486.59 1688.12 1486.59 Q1679.4 1486.59 1674.78 1479.71 Q1670.2 1472.8 1670.2 1459.71 Q1670.2 1446.59 1674.78 1439.71 Q1679.4 1432.8 1688.12 1432.8 Z" fill="#000000" fill-rule="evenodd" fill-opacity="1" /><path clip-path="url(#clip750)" d="M1718.36 1476.76 L1725.68 1476.76 L1725.68 1485.58 L1718.36 1485.58 L1718.36 1476.76 Z" fill="#000000" fill-rule="evenodd" fill-opacity="1" /><path clip-path="url(#clip750)" d="M1741.03 1433.74 L1768.57 1433.74 L1768.57 1439.64 L1747.46 1439.64 L1747.46 1452.35 Q1748.98 1451.83 1750.51 1451.59 Q1752.04 1451.31 1753.57 1451.31 Q1762.25 1451.31 1767.32 1456.07 Q1772.39 1460.82 1772.39 1468.95 Q1772.39 1477.32 1767.18 1481.97 Q1761.97 1486.59 1752.49 1486.59 Q1749.23 1486.59 1745.82 1486.03 Q1742.46 1485.48 1738.84 1484.36 L1738.84 1477.32 Q1741.97 1479.02 1745.3 1479.85 Q1748.64 1480.68 1752.35 1480.68 Q1758.36 1480.68 1761.87 1477.52 Q1765.37 1474.36 1765.37 1468.95 Q1765.37 1463.53 1761.87 1460.37 Q1758.36 1457.21 1752.35 1457.21 Q1749.54 1457.21 1746.73 1457.84 Q1743.95 1458.46 1741.03 1459.78 L1741.03 1433.74 Z" fill="#000000" fill-rule="evenodd" fill-opacity="1" /><path clip-path="url(#clip750)" d="M2093 1479.68 L2104.46 1479.68 L2104.46 1440.13 L2091.99 1442.63 L2091.99 1436.24 L2104.39 1433.74 L2111.4 1433.74 L2111.4 1479.68 L2122.86 1479.68 L2122.86 1485.58 L2093 1485.58 L2093 1479.68 Z" fill="#000000" fill-rule="evenodd" fill-opacity="1" /><path clip-path="url(#clip750)" d="M2137.03 1476.76 L2144.35 1476.76 L2144.35 1485.58 L2137.03 1485.58 L2137.03 1476.76 Z" fill="#000000" fill-rule="evenodd" fill-opacity="1" /><path clip-path="url(#clip750)" d="M2174.63 1438.36 Q2169.21 1438.36 2166.47 1443.71 Q2163.76 1449.02 2163.76 1459.71 Q2163.76 1470.37 2166.47 1475.72 Q2169.21 1481.03 2174.63 1481.03 Q2180.08 1481.03 2182.79 1475.72 Q2185.53 1470.37 2185.53 1459.71 Q2185.53 1449.02 2182.79 1443.71 Q2180.08 1438.36 2174.63 1438.36 M2174.63 1432.8 Q2183.34 1432.8 2187.93 1439.71 Q2192.55 1446.59 2192.55 1459.71 Q2192.55 1472.8 2187.93 1479.71 Q2183.34 1486.59 2174.63 1486.59 Q2165.91 1486.59 2161.3 1479.71 Q2156.71 1472.8 2156.71 1459.71 Q2156.71 1446.59 2161.3 1439.71 Q2165.91 1432.8 2174.63 1432.8 Z" fill="#000000" fill-rule="evenodd" fill-opacity="1" /><path clip-path="url(#clip750)" d="M1179.21 1538.66 L1185.98 1538.66 L1198.13 1571.3 L1210.28 1538.66 L1217.05 1538.66 L1202.47 1577.55 L1193.79 1577.55 L1179.21 1538.66 Z" fill="#000000" fill-rule="evenodd" fill-opacity="1" /><path clip-path="url(#clip750)" d="M1247.89 1523.52 L1262.61 1523.52 L1262.61 1528.49 L1254.28 1528.49 L1254.28 1581.96 L1262.61 1581.96 L1262.61 1586.92 L1247.89 1586.92 L1247.89 1523.52 Z" fill="#000000" fill-rule="evenodd" fill-opacity="1" /><path clip-path="url(#clip750)" d="M1306.5 1546.12 Q1308.89 1541.82 1312.23 1539.77 Q1315.56 1537.72 1320.07 1537.72 Q1326.15 1537.72 1329.45 1541.99 Q1332.75 1546.23 1332.75 1554.08 L1332.75 1577.55 L1326.32 1577.55 L1326.32 1554.28 Q1326.32 1548.69 1324.34 1545.99 Q1322.37 1543.28 1318.3 1543.28 Q1313.34 1543.28 1310.46 1546.58 Q1307.57 1549.87 1307.57 1555.57 L1307.57 1577.55 L1301.15 1577.55 L1301.15 1554.28 Q1301.15 1548.66 1299.17 1545.99 Q1297.19 1543.28 1293.06 1543.28 Q1288.16 1543.28 1285.28 1546.61 Q1282.4 1549.91 1282.4 1555.57 L1282.4 1577.55 L1275.98 1577.55 L1275.98 1538.66 L1282.4 1538.66 L1282.4 1544.7 Q1284.59 1541.12 1287.64 1539.42 Q1290.7 1537.72 1294.9 1537.72 Q1299.14 1537.72 1302.09 1539.87 Q1305.07 1542.03 1306.5 1546.12 Z" fill="#000000" fill-rule="evenodd" fill-opacity="1" /><path clip-path="url(#clip750)" d="M1356.84 1525.71 L1362.75 1525.71 L1344.69 1584.15 L1338.79 1584.15 L1356.84 1525.71 Z" fill="#000000" fill-rule="evenodd" fill-opacity="1" /><path clip-path="url(#clip750)" d="M1394.24 1539.8 L1394.24 1545.85 Q1391.53 1544.46 1388.62 1543.76 Q1385.7 1543.07 1382.57 1543.07 Q1377.82 1543.07 1375.42 1544.53 Q1373.06 1545.99 1373.06 1548.9 Q1373.06 1551.12 1374.76 1552.41 Q1376.46 1553.66 1381.6 1554.8 L1383.79 1555.29 Q1390.59 1556.75 1393.44 1559.42 Q1396.32 1562.06 1396.32 1566.82 Q1396.32 1572.24 1392.02 1575.4 Q1387.75 1578.55 1380.25 1578.55 Q1377.12 1578.55 1373.72 1577.93 Q1370.35 1577.34 1366.6 1576.12 L1366.6 1569.53 Q1370.14 1571.37 1373.58 1572.3 Q1377.02 1573.21 1380.39 1573.21 Q1384.9 1573.21 1387.33 1571.68 Q1389.76 1570.12 1389.76 1567.3 Q1389.76 1564.7 1387.99 1563.31 Q1386.25 1561.92 1380.32 1560.64 L1378.09 1560.12 Q1372.16 1558.87 1369.52 1556.3 Q1366.88 1553.69 1366.88 1549.18 Q1366.88 1543.69 1370.77 1540.71 Q1374.66 1537.72 1381.81 1537.72 Q1385.35 1537.72 1388.48 1538.24 Q1391.6 1538.76 1394.24 1539.8 Z" fill="#000000" fill-rule="evenodd" fill-opacity="1" /><path clip-path="url(#clip750)" d="M1421.43 1523.52 L1421.43 1586.92 L1406.71 1586.92 L1406.71 1581.96 L1415 1581.96 L1415 1528.49 L1406.71 1528.49 L1406.71 1523.52 L1421.43 1523.52 Z" fill="#000000" fill-rule="evenodd" fill-opacity="1" /><polyline clip-path="url(#clip752)" style="stroke:#000000; stroke-linecap:round; stroke-linejoin:round; stroke-width:2; stroke-opacity:0.1; fill:none" points="
  247.878,1301.15 2352.76,1301.15 
  "/>
<polyline clip-path="url(#clip752)" style="stroke:#000000; stroke-linecap:round; stroke-linejoin:round; stroke-width:2; stroke-opacity:0.1; fill:none" points="
  247.878,1055.62 2352.76,1055.62 
  "/>
<polyline clip-path="url(#clip752)" style="stroke:#000000; stroke-linecap:round; stroke-linejoin:round; stroke-width:2; stroke-opacity:0.1; fill:none" points="
  247.878,810.095 2352.76,810.095 
  "/>
<polyline clip-path="url(#clip752)" style="stroke:#000000; stroke-linecap:round; stroke-linejoin:round; stroke-width:2; stroke-opacity:0.1; fill:none" points="
  247.878,564.567 2352.76,564.567 
  "/>
<polyline clip-path="url(#clip752)" style="stroke:#000000; stroke-linecap:round; stroke-linejoin:round; stroke-width:2; stroke-opacity:0.1; fill:none" points="
  247.878,319.039 2352.76,319.039 
  "/>
<polyline clip-path="url(#clip750)" style="stroke:#000000; stroke-linecap:round; stroke-linejoin:round; stroke-width:4; stroke-opacity:1; fill:none" points="
  247.878,1401.58 247.878,123.472 
  "/>
<polyline clip-path="url(#clip750)" style="stroke:#000000; stroke-linecap:round; stroke-linejoin:round; stroke-width:4; stroke-opacity:1; fill:none" points="
  247.878,1301.15 266.776,1301.15 
  "/>
<polyline clip-path="url(#clip750)" style="stroke:#000000; stroke-linecap:round; stroke-linejoin:round; stroke-width:4; stroke-opacity:1; fill:none" points="
  247.878,1055.62 266.776,1055.62 
  "/>
<polyline clip-path="url(#clip750)" style="stroke:#000000; stroke-linecap:round; stroke-linejoin:round; stroke-width:4; stroke-opacity:1; fill:none" points="
  247.878,810.095 266.776,810.095 
  "/>
<polyline clip-path="url(#clip750)" style="stroke:#000000; stroke-linecap:round; stroke-linejoin:round; stroke-width:4; stroke-opacity:1; fill:none" points="
  247.878,564.567 266.776,564.567 
  "/>
<polyline clip-path="url(#clip750)" style="stroke:#000000; stroke-linecap:round; stroke-linejoin:round; stroke-width:4; stroke-opacity:1; fill:none" points="
  247.878,319.039 266.776,319.039 
  "/>
<path clip-path="url(#clip750)" d="M118.58 1301.83 L163.094 1301.83 L163.094 1307.73 L118.58 1307.73 L118.58 1301.83 Z" fill="#000000" fill-rule="evenodd" fill-opacity="1" /><path clip-path="url(#clip750)" d="M197.503 1281.34 L179.795 1309.02 L197.503 1309.02 L197.503 1281.34 M195.663 1275.23 L204.482 1275.23 L204.482 1309.02 L211.878 1309.02 L211.878 1314.85 L204.482 1314.85 L204.482 1327.07 L197.503 1327.07 L197.503 1314.85 L174.101 1314.85 L174.101 1308.08 L195.663 1275.23 Z" fill="#000000" fill-rule="evenodd" fill-opacity="1" /><path clip-path="url(#clip750)" d="M121.705 1056.3 L166.219 1056.3 L166.219 1062.2 L121.705 1062.2 L121.705 1056.3 Z" fill="#000000" fill-rule="evenodd" fill-opacity="1" /><path clip-path="url(#clip750)" d="M187.399 1075.64 L211.878 1075.64 L211.878 1081.54 L178.962 1081.54 L178.962 1075.64 Q182.955 1071.51 189.83 1064.56 Q196.739 1057.58 198.51 1055.57 Q201.878 1051.79 203.198 1049.18 Q204.552 1046.54 204.552 1044.01 Q204.552 1039.88 201.635 1037.27 Q198.753 1034.67 194.101 1034.67 Q190.802 1034.67 187.121 1035.81 Q183.476 1036.96 179.309 1039.29 L179.309 1032.2 Q183.545 1030.5 187.226 1029.63 Q190.906 1028.77 193.962 1028.77 Q202.017 1028.77 206.809 1032.79 Q211.6 1036.82 211.6 1043.56 Q211.6 1046.75 210.385 1049.63 Q209.205 1052.48 206.045 1056.37 Q205.177 1057.38 200.524 1062.2 Q195.871 1066.99 187.399 1075.64 Z" fill="#000000" fill-rule="evenodd" fill-opacity="1" /><path clip-path="url(#clip750)" d="M193.962 788.793 Q188.545 788.793 185.802 794.14 Q183.094 799.453 183.094 810.147 Q183.094 820.807 185.802 826.154 Q188.545 831.466 193.962 831.466 Q199.413 831.466 202.121 826.154 Q204.864 820.807 204.864 810.147 Q204.864 799.453 202.121 794.14 Q199.413 788.793 193.962 788.793 M193.962 783.237 Q202.677 783.237 207.26 790.147 Q211.878 797.022 211.878 810.147 Q211.878 823.237 207.26 830.147 Q202.677 837.022 193.962 837.022 Q185.246 837.022 180.628 830.147 Q176.045 823.237 176.045 810.147 Q176.045 797.022 180.628 790.147 Q185.246 783.237 193.962 783.237 Z" fill="#000000" fill-rule="evenodd" fill-opacity="1" /><path clip-path="url(#clip750)" d="M187.399 584.584 L211.878 584.584 L211.878 590.487 L178.962 590.487 L178.962 584.584 Q182.955 580.452 189.83 573.508 Q196.739 566.529 198.51 564.515 Q201.878 560.73 203.198 558.126 Q204.552 555.487 204.552 552.952 Q204.552 548.821 201.635 546.216 Q198.753 543.612 194.101 543.612 Q190.802 543.612 187.121 544.758 Q183.476 545.904 179.309 548.23 L179.309 541.147 Q183.545 539.446 187.226 538.578 Q190.906 537.709 193.962 537.709 Q202.017 537.709 206.809 541.737 Q211.6 545.765 211.6 552.501 Q211.6 555.695 210.385 558.577 Q209.205 561.425 206.045 565.313 Q205.177 566.32 200.524 571.147 Q195.871 575.938 187.399 584.584 Z" fill="#000000" fill-rule="evenodd" fill-opacity="1" /><path clip-path="url(#clip750)" d="M197.503 299.23 L179.795 326.904 L197.503 326.904 L197.503 299.23 M195.663 293.119 L204.482 293.119 L204.482 326.904 L211.878 326.904 L211.878 332.737 L204.482 332.737 L204.482 344.959 L197.503 344.959 L197.503 332.737 L174.101 332.737 L174.101 325.966 L195.663 293.119 Z" fill="#000000" fill-rule="evenodd" fill-opacity="1" /><path clip-path="url(#clip750)" d="M13.0007 1025.04 L18.3131 1025.04 L18.3131 1031.15 Q18.3131 1034.59 19.702 1035.94 Q21.0909 1037.26 24.702 1037.26 L28.1395 1037.26 L28.1395 1026.74 L33.1047 1026.74 L33.1047 1037.26 L67.0282 1037.26 L67.0282 1043.69 L33.1047 1043.69 L33.1047 1049.8 L28.1395 1049.8 L28.1395 1043.69 L25.4312 1043.69 Q18.9381 1043.69 15.9868 1040.67 Q13.0007 1037.65 13.0007 1031.08 L13.0007 1025.04 Z" fill="#000000" fill-rule="evenodd" fill-opacity="1" /><path clip-path="url(#clip750)" d="M34.1117 997.16 Q33.4867 998.237 33.2089 999.521 Q32.8964 1000.77 32.8964 1002.3 Q32.8964 1007.72 36.438 1010.63 Q39.945 1013.51 46.5422 1013.51 L67.0282 1013.51 L67.0282 1019.94 L28.1395 1019.94 L28.1395 1013.51 L34.1811 1013.51 Q30.6395 1011.5 28.9381 1008.27 Q27.202 1005.04 27.202 1000.42 Q27.202 999.764 27.3061 998.966 Q27.3756 998.167 27.5492 997.195 L34.1117 997.16 Z" fill="#000000" fill-rule="evenodd" fill-opacity="1" /><path clip-path="url(#clip750)" d="M28.1395 990.459 L28.1395 984.07 L67.0282 984.07 L67.0282 990.459 L28.1395 990.459 M13.0007 990.459 L13.0007 984.07 L21.0909 984.07 L21.0909 990.459 L13.0007 990.459 Z" fill="#000000" fill-rule="evenodd" fill-opacity="1" /><path clip-path="url(#clip750)" d="M29.6325 942.716 L35.6047 942.716 Q34.1117 945.424 33.3825 948.167 Q32.6186 950.876 32.6186 953.653 Q32.6186 959.869 36.5769 963.306 Q40.5005 966.744 47.6185 966.744 Q54.7366 966.744 58.6949 963.306 Q62.6185 959.869 62.6185 953.653 Q62.6185 950.876 61.8893 948.167 Q61.1254 945.424 59.6324 942.716 L65.5351 942.716 Q66.7851 945.39 67.4101 948.272 Q68.0351 951.119 68.0351 954.348 Q68.0351 963.133 62.5143 968.306 Q56.9935 973.48 47.6185 973.48 Q38.1047 973.48 32.6533 968.271 Q27.202 963.028 27.202 953.931 Q27.202 950.98 27.827 948.167 Q28.4173 945.355 29.6325 942.716 Z" fill="#000000" fill-rule="evenodd" fill-opacity="1" /><path clip-path="url(#clip750)" d="M17.0979 925.286 L28.1395 925.286 L28.1395 912.126 L33.1047 912.126 L33.1047 925.286 L54.2157 925.286 Q58.9726 925.286 60.3268 924.001 Q61.681 922.681 61.681 918.688 L61.681 912.126 L67.0282 912.126 L67.0282 918.688 Q67.0282 926.084 64.2851 928.897 Q61.5074 931.709 54.2157 931.709 L33.1047 931.709 L33.1047 936.397 L28.1395 936.397 L28.1395 931.709 L17.0979 931.709 L17.0979 925.286 Z" fill="#000000" fill-rule="evenodd" fill-opacity="1" /><path clip-path="url(#clip750)" d="M28.1395 903.723 L28.1395 897.334 L67.0282 897.334 L67.0282 903.723 L28.1395 903.723 M13.0007 903.723 L13.0007 897.334 L21.0909 897.334 L21.0909 903.723 L13.0007 903.723 Z" fill="#000000" fill-rule="evenodd" fill-opacity="1" /><path clip-path="url(#clip750)" d="M32.6186 868.897 Q32.6186 874.036 36.6464 877.022 Q40.6394 880.008 47.6185 880.008 Q54.5977 880.008 58.6254 877.057 Q62.6185 874.071 62.6185 868.897 Q62.6185 863.793 58.5907 860.807 Q54.5629 857.821 47.6185 857.821 Q40.7089 857.821 36.6811 860.807 Q32.6186 863.793 32.6186 868.897 M27.202 868.897 Q27.202 860.564 32.6186 855.807 Q38.0353 851.05 47.6185 851.05 Q57.1671 851.05 62.6185 855.807 Q68.0351 860.564 68.0351 868.897 Q68.0351 877.265 62.6185 882.022 Q57.1671 886.744 47.6185 886.744 Q38.0353 886.744 32.6186 882.022 Q27.202 877.265 27.202 868.897 Z" fill="#000000" fill-rule="evenodd" fill-opacity="1" /><path clip-path="url(#clip750)" d="M43.5561 808.133 L67.0282 808.133 L67.0282 814.522 L43.7644 814.522 Q38.2436 814.522 35.5005 816.675 Q32.7575 818.828 32.7575 823.133 Q32.7575 828.307 36.0561 831.293 Q39.3547 834.279 45.0491 834.279 L67.0282 834.279 L67.0282 840.703 L28.1395 840.703 L28.1395 834.279 L34.1811 834.279 Q30.6742 831.987 28.9381 828.897 Q27.202 825.772 27.202 821.71 Q27.202 815.008 31.3686 811.571 Q35.5005 808.133 43.5561 808.133 Z" fill="#000000" fill-rule="evenodd" fill-opacity="1" /><path clip-path="url(#clip750)" d="M13.0007 753.099 L18.3131 753.099 L18.3131 759.21 Q18.3131 762.648 19.702 764.002 Q21.0909 765.321 24.702 765.321 L28.1395 765.321 L28.1395 754.8 L33.1047 754.8 L33.1047 765.321 L67.0282 765.321 L67.0282 771.745 L33.1047 771.745 L33.1047 777.856 L28.1395 777.856 L28.1395 771.745 L25.4312 771.745 Q18.9381 771.745 15.9868 768.724 Q13.0007 765.703 13.0007 759.141 L13.0007 753.099 Z" fill="#000000" fill-rule="evenodd" fill-opacity="1" /><path clip-path="url(#clip750)" d="M32.6186 732.682 Q32.6186 737.821 36.6464 740.807 Q40.6394 743.793 47.6185 743.793 Q54.5977 743.793 58.6254 740.842 Q62.6185 737.856 62.6185 732.682 Q62.6185 727.578 58.5907 724.592 Q54.5629 721.606 47.6185 721.606 Q40.7089 721.606 36.6811 724.592 Q32.6186 727.578 32.6186 732.682 M27.202 732.682 Q27.202 724.349 32.6186 719.592 Q38.0353 714.835 47.6185 714.835 Q57.1671 714.835 62.6185 719.592 Q68.0351 724.349 68.0351 732.682 Q68.0351 741.05 62.6185 745.807 Q57.1671 750.53 47.6185 750.53 Q38.0353 750.53 32.6186 745.807 Q27.202 741.05 27.202 732.682 Z" fill="#000000" fill-rule="evenodd" fill-opacity="1" /><path clip-path="url(#clip750)" d="M34.1117 681.71 Q33.4867 682.787 33.2089 684.072 Q32.8964 685.322 32.8964 686.849 Q32.8964 692.266 36.438 695.183 Q39.945 698.065 46.5422 698.065 L67.0282 698.065 L67.0282 704.488 L28.1395 704.488 L28.1395 698.065 L34.1811 698.065 Q30.6395 696.051 28.9381 692.821 Q27.202 689.592 27.202 684.974 Q27.202 684.315 27.3061 683.516 Q27.3756 682.717 27.5492 681.745 L34.1117 681.71 Z" fill="#000000" fill-rule="evenodd" fill-opacity="1" /><path clip-path="url(#clip750)" d="M29.6325 648.586 L35.6047 648.586 Q34.1117 651.294 33.3825 654.037 Q32.6186 656.745 32.6186 659.523 Q32.6186 665.738 36.5769 669.176 Q40.5005 672.613 47.6185 672.613 Q54.7366 672.613 58.6949 669.176 Q62.6185 665.738 62.6185 659.523 Q62.6185 656.745 61.8893 654.037 Q61.1254 651.294 59.6324 648.586 L65.5351 648.586 Q66.7851 651.259 67.4101 654.141 Q68.0351 656.988 68.0351 660.218 Q68.0351 669.002 62.5143 674.176 Q56.9935 679.349 47.6185 679.349 Q38.1047 679.349 32.6533 674.141 Q27.202 668.898 27.202 659.801 Q27.202 656.849 27.827 654.037 Q28.4173 651.224 29.6325 648.586 Z" fill="#000000" fill-rule="evenodd" fill-opacity="1" /><path clip-path="url(#clip750)" d="M45.9866 604.211 L49.1116 604.211 L49.1116 633.586 Q55.7088 633.169 59.181 629.627 Q62.6185 626.051 62.6185 619.697 Q62.6185 616.016 61.7157 612.579 Q60.8129 609.107 59.0074 605.704 L65.049 605.704 Q66.5073 609.141 67.2712 612.752 Q68.0351 616.364 68.0351 620.079 Q68.0351 629.384 62.6185 634.836 Q57.2018 640.252 47.9658 640.252 Q38.4172 640.252 32.827 635.113 Q27.202 629.94 27.202 621.19 Q27.202 613.343 32.2714 608.794 Q37.3061 604.211 45.9866 604.211 M44.1116 610.6 Q38.8686 610.669 35.7436 613.551 Q32.6186 616.398 32.6186 621.12 Q32.6186 626.468 35.6394 629.697 Q38.6603 632.891 44.1463 633.377 L44.1116 610.6 Z" fill="#000000" fill-rule="evenodd" fill-opacity="1" /><path clip-path="url(#clip750)" d="M13.0007 571.711 L13.0007 556.989 L17.9659 556.989 L17.9659 565.322 L71.4379 565.322 L71.4379 556.989 L76.4031 556.989 L76.4031 571.711 L13.0007 571.711 Z" fill="#000000" fill-rule="evenodd" fill-opacity="1" /><path clip-path="url(#clip750)" d="M15.1882 543.1 L15.1882 533.656 L58.556 510.67 L15.1882 510.67 L15.1882 503.864 L67.0282 503.864 L67.0282 513.309 L23.6603 536.295 L67.0282 536.295 L67.0282 543.1 L15.1882 543.1 Z" fill="#000000" fill-rule="evenodd" fill-opacity="1" /><path clip-path="url(#clip750)" d="M13.0007 475.253 L76.4031 475.253 L76.4031 489.975 L71.4379 489.975 L71.4379 481.677 L17.9659 481.677 L17.9659 489.975 L13.0007 489.975 L13.0007 475.253 Z" fill="#000000" fill-rule="evenodd" fill-opacity="1" /><path clip-path="url(#clip750)" d="M974.604 12.096 L1009.36 12.096 L1009.36 18.9825 L982.787 18.9825 L982.787 36.8065 L1006.77 36.8065 L1006.77 43.6931 L982.787 43.6931 L982.787 72.576 L974.604 72.576 L974.604 12.096 Z" fill="#000000" fill-rule="evenodd" fill-opacity="1" /><path clip-path="url(#clip750)" d="M1042.25 34.1734 Q1041 33.4443 1039.5 33.1202 Q1038.04 32.7556 1036.26 32.7556 Q1029.94 32.7556 1026.54 36.8875 Q1023.17 40.9789 1023.17 48.6757 L1023.17 72.576 L1015.68 72.576 L1015.68 27.2059 L1023.17 27.2059 L1023.17 34.2544 Q1025.52 30.1225 1029.29 28.1376 Q1033.06 26.1121 1038.45 26.1121 Q1039.22 26.1121 1040.15 26.2337 Q1041.08 26.3147 1042.21 26.5172 L1042.25 34.1734 Z" fill="#000000" fill-rule="evenodd" fill-opacity="1" /><path clip-path="url(#clip750)" d="M1050.07 27.2059 L1057.53 27.2059 L1057.53 72.576 L1050.07 72.576 L1050.07 27.2059 M1050.07 9.54393 L1057.53 9.54393 L1057.53 18.9825 L1050.07 18.9825 L1050.07 9.54393 Z" fill="#000000" fill-rule="evenodd" fill-opacity="1" /><path clip-path="url(#clip750)" d="M1105.77 28.9478 L1105.77 35.9153 Q1102.61 34.1734 1099.41 33.3227 Q1096.25 32.4315 1093.01 32.4315 Q1085.76 32.4315 1081.75 37.0496 Q1077.74 41.6271 1077.74 49.9314 Q1077.74 58.2358 1081.75 62.8538 Q1085.76 67.4314 1093.01 67.4314 Q1096.25 67.4314 1099.41 66.5807 Q1102.61 65.6895 1105.77 63.9476 L1105.77 70.8341 Q1102.65 72.2924 1099.29 73.0216 Q1095.97 73.7508 1092.2 73.7508 Q1081.95 73.7508 1075.92 67.3098 Q1069.88 60.8689 1069.88 49.9314 Q1069.88 38.832 1075.96 32.472 Q1082.07 26.1121 1092.69 26.1121 Q1096.13 26.1121 1099.41 26.8413 Q1102.69 27.5299 1105.77 28.9478 Z" fill="#000000" fill-rule="evenodd" fill-opacity="1" /><path clip-path="url(#clip750)" d="M1126.11 14.324 L1126.11 27.2059 L1141.46 27.2059 L1141.46 32.9987 L1126.11 32.9987 L1126.11 57.6282 Q1126.11 63.1779 1127.61 64.7578 Q1129.15 66.3376 1133.8 66.3376 L1141.46 66.3376 L1141.46 72.576 L1133.8 72.576 Q1125.18 72.576 1121.9 69.3758 Q1118.61 66.1351 1118.61 57.6282 L1118.61 32.9987 L1113.15 32.9987 L1113.15 27.2059 L1118.61 27.2059 L1118.61 14.324 L1126.11 14.324 Z" fill="#000000" fill-rule="evenodd" fill-opacity="1" /><path clip-path="url(#clip750)" d="M1151.26 27.2059 L1158.72 27.2059 L1158.72 72.576 L1151.26 72.576 L1151.26 27.2059 M1151.26 9.54393 L1158.72 9.54393 L1158.72 18.9825 L1151.26 18.9825 L1151.26 9.54393 Z" fill="#000000" fill-rule="evenodd" fill-opacity="1" /><path clip-path="url(#clip750)" d="M1191.89 32.4315 Q1185.9 32.4315 1182.42 37.1306 Q1178.93 41.7891 1178.93 49.9314 Q1178.93 58.0738 1182.38 62.7728 Q1185.86 67.4314 1191.89 67.4314 Q1197.85 67.4314 1201.33 62.7323 Q1204.82 58.0333 1204.82 49.9314 Q1204.82 41.8701 1201.33 37.1711 Q1197.85 32.4315 1191.89 32.4315 M1191.89 26.1121 Q1201.62 26.1121 1207.17 32.4315 Q1212.72 38.7509 1212.72 49.9314 Q1212.72 61.0714 1207.17 67.4314 Q1201.62 73.7508 1191.89 73.7508 Q1182.13 73.7508 1176.58 67.4314 Q1171.07 61.0714 1171.07 49.9314 Q1171.07 38.7509 1176.58 32.4315 Q1182.13 26.1121 1191.89 26.1121 Z" fill="#000000" fill-rule="evenodd" fill-opacity="1" /><path clip-path="url(#clip750)" d="M1262.79 45.1919 L1262.79 72.576 L1255.33 72.576 L1255.33 45.4349 Q1255.33 38.994 1252.82 35.7938 Q1250.31 32.5936 1245.29 32.5936 Q1239.25 32.5936 1235.77 36.4419 Q1232.28 40.2903 1232.28 46.9338 L1232.28 72.576 L1224.79 72.576 L1224.79 27.2059 L1232.28 27.2059 L1232.28 34.2544 Q1234.96 30.163 1238.56 28.1376 Q1242.21 26.1121 1246.95 26.1121 Q1254.76 26.1121 1258.78 30.9732 Q1262.79 35.7938 1262.79 45.1919 Z" fill="#000000" fill-rule="evenodd" fill-opacity="1" /><path clip-path="url(#clip750)" d="M1339.35 35.9153 Q1342.14 30.8922 1346.03 28.5022 Q1349.92 26.1121 1355.19 26.1121 Q1362.28 26.1121 1366.12 31.0947 Q1369.97 36.0368 1369.97 45.1919 L1369.97 72.576 L1362.48 72.576 L1362.48 45.4349 Q1362.48 38.913 1360.17 35.7533 Q1357.86 32.5936 1353.12 32.5936 Q1347.33 32.5936 1343.97 36.4419 Q1340.6 40.2903 1340.6 46.9338 L1340.6 72.576 L1333.11 72.576 L1333.11 45.4349 Q1333.11 38.8725 1330.8 35.7533 Q1328.49 32.5936 1323.67 32.5936 Q1317.96 32.5936 1314.6 36.4824 Q1311.23 40.3308 1311.23 46.9338 L1311.23 72.576 L1303.74 72.576 L1303.74 27.2059 L1311.23 27.2059 L1311.23 34.2544 Q1313.79 30.082 1317.35 28.0971 Q1320.92 26.1121 1325.82 26.1121 Q1330.76 26.1121 1334.2 28.6237 Q1337.69 31.1352 1339.35 35.9153 Z" fill="#000000" fill-rule="evenodd" fill-opacity="1" /><path clip-path="url(#clip750)" d="M1402.42 32.4315 Q1396.42 32.4315 1392.94 37.1306 Q1389.46 41.7891 1389.46 49.9314 Q1389.46 58.0738 1392.9 62.7728 Q1396.38 67.4314 1402.42 67.4314 Q1408.37 67.4314 1411.86 62.7323 Q1415.34 58.0333 1415.34 49.9314 Q1415.34 41.8701 1411.86 37.1711 Q1408.37 32.4315 1402.42 32.4315 M1402.42 26.1121 Q1412.14 26.1121 1417.69 32.4315 Q1423.24 38.7509 1423.24 49.9314 Q1423.24 61.0714 1417.69 67.4314 Q1412.14 73.7508 1402.42 73.7508 Q1392.66 73.7508 1387.11 67.4314 Q1381.6 61.0714 1381.6 49.9314 Q1381.6 38.7509 1387.11 32.4315 Q1392.66 26.1121 1402.42 26.1121 Z" fill="#000000" fill-rule="evenodd" fill-opacity="1" /><path clip-path="url(#clip750)" d="M1465.45 34.0924 L1465.45 9.54393 L1472.91 9.54393 L1472.91 72.576 L1465.45 72.576 L1465.45 65.7705 Q1463.1 69.8214 1459.5 71.8063 Q1455.93 73.7508 1450.91 73.7508 Q1442.69 73.7508 1437.5 67.1883 Q1432.36 60.6258 1432.36 49.9314 Q1432.36 39.2371 1437.5 32.6746 Q1442.69 26.1121 1450.91 26.1121 Q1455.93 26.1121 1459.5 28.0971 Q1463.1 30.0415 1465.45 34.0924 M1440.05 49.9314 Q1440.05 58.1548 1443.42 62.8538 Q1446.82 67.5124 1452.73 67.5124 Q1458.65 67.5124 1462.05 62.8538 Q1465.45 58.1548 1465.45 49.9314 Q1465.45 41.7081 1462.05 37.0496 Q1458.65 32.3505 1452.73 32.3505 Q1446.82 32.3505 1443.42 37.0496 Q1440.05 41.7081 1440.05 49.9314 Z" fill="#000000" fill-rule="evenodd" fill-opacity="1" /><path clip-path="url(#clip750)" d="M1527.07 48.0275 L1527.07 51.6733 L1492.8 51.6733 Q1493.28 59.3701 1497.41 63.421 Q1501.59 67.4314 1509 67.4314 Q1513.29 67.4314 1517.3 66.3781 Q1521.35 65.3249 1525.32 63.2184 L1525.32 70.267 Q1521.31 71.9684 1517.1 72.8596 Q1512.89 73.7508 1508.55 73.7508 Q1497.7 73.7508 1491.34 67.4314 Q1485.02 61.1119 1485.02 50.3365 Q1485.02 39.1965 1491.01 32.6746 Q1497.05 26.1121 1507.26 26.1121 Q1516.41 26.1121 1521.72 32.0264 Q1527.07 37.9003 1527.07 48.0275 M1519.61 45.84 Q1519.53 39.7232 1516.17 36.0774 Q1512.85 32.4315 1507.34 32.4315 Q1501.1 32.4315 1497.33 35.9558 Q1493.61 39.4801 1493.04 45.8805 L1519.61 45.84 Z" fill="#000000" fill-rule="evenodd" fill-opacity="1" /><path clip-path="url(#clip750)" d="M1539.3 9.54393 L1546.75 9.54393 L1546.75 72.576 L1539.3 72.576 L1539.3 9.54393 Z" fill="#000000" fill-rule="evenodd" fill-opacity="1" /><path clip-path="url(#clip750)" d="M1591.19 65.6895 L1604.56 65.6895 L1604.56 19.5497 L1590.02 22.4663 L1590.02 15.0127 L1604.48 12.096 L1612.66 12.096 L1612.66 65.6895 L1626.03 65.6895 L1626.03 72.576 L1591.19 72.576 L1591.19 65.6895 Z" fill="#000000" fill-rule="evenodd" fill-opacity="1" /><polyline clip-path="url(#clip752)" style="stroke:#009af9; stroke-linecap:round; stroke-linejoin:round; stroke-width:8; stroke-opacity:1; fill:none" points="
  1300.32,810.095 1336.26,810.095 1372.46,810.095 1408.86,810.095 1445.4,810.095 1482.05,810.095 1518.74,810.095 1555.39,810.095 1591.98,810.095 1628.45,810.095 
  1664.76,810.095 1700.83,810.095 1736.64,810.095 1772.13,810.095 1807.24,810.095 1841.95,810.095 1876.19,810.095 1909.93,810.095 1943.12,810.095 1975.73,810.095 
  2007.71,810.095 2039.02,810.095 2069.64,810.095 2099.53,810.095 2128.63,810.095 2156.95,810.095 2184.45,810.095 2211.09,810.095 2236.83,810.095 2261.65,810.095 
  2285.52,810.095 2308.4,810.095 2330.32,810.095 2351.22,810.095 2371.08,810.095 2389.86,810.095 2407.55,810.095 2424.12,810.095 2439.58,810.095 2453.92,810.095 
  2467.1,810.095 2479.12,810.095 2489.95,810.095 2499.58,810.095 2508.01,810.095 2515.24,810.095 2521.25,810.095 2526.04,810.095 2529.6,810.095 2531.93,810.095 
  2533.02,810.095 2532.88,810.095 2531.5,810.095 2528.89,810.095 2525.05,810.095 2519.98,810.095 2513.7,810.095 2506.2,810.095 2497.48,810.095 2487.57,810.095 
  2476.47,810.095 2464.2,810.095 2450.75,810.095 2436.16,810.095 2420.42,810.095 2403.56,810.095 2385.59,810.095 2366.53,810.095 2346.4,810.095 2325.22,810.095 
  2303,810.095 2279.77,810.095 2255.54,810.095 2230.34,810.095 2204.2,810.095 2177.14,810.095 2149.18,810.095 2120.35,810.095 2090.66,810.095 2060.15,810.095 
  2028.85,810.095 1996.77,810.095 1963.96,810.095 1930.43,810.095 1896.21,810.095 1861.31,810.095 1825.77,810.095 1789.63,810.095 1752.9,810.095 1715.62,810.095 
  1677.81,810.095 1639.45,810.095 1600.59,810.095 1561.26,810.095 1521.48,810.095 1481.27,810.095 1440.66,810.095 1399.66,810.095 1358.31,810.095 1316.61,810.095 
  1282.19,810.095 1252.38,810.095 1222.38,810.095 1192.23,810.095 1161.97,810.095 1131.65,810.095 1101.32,810.095 1070.99,810.095 1040.74,810.095 1010.59,810.095 
  980.589,810.095 950.779,810.095 921.203,810.095 891.895,810.095 862.886,810.095 834.222,810.095 805.944,810.095 778.094,810.095 750.699,810.095 723.766,810.095 
  697.354,810.095 671.501,810.095 646.243,810.095 621.604,810.095 597.576,810.095 574.216,810.095 551.558,810.095 529.632,810.095 508.464,810.095 488.033,810.095 
  468.396,810.095 449.578,810.095 431.605,810.095 414.503,810.095 398.24,810.095 382.868,810.095 368.408,810.095 354.881,810.095 342.308,810.095 330.657,810.095 
  319.965,810.095 310.253,810.095 301.536,810.095 293.83,810.095 287.104,810.095 281.379,810.095 276.675,810.095 273.002,810.095 270.37,810.095 268.751,810.095 
  268.149,810.095 268.583,810.095 270.057,810.095 272.577,810.095 276.116,810.095 280.663,810.095 286.235,810.095 292.832,810.095 300.453,810.095 309.073,810.095 
  318.669,810.095 329.254,810.095 340.824,810.095 353.372,810.095 366.875,810.095 381.3,810.095 396.655,810.095 412.932,810.095 430.12,810.095 448.197,810.095 
  467.121,810.095 486.898,810.095 507.513,810.095 528.953,810.095 551.198,810.095 574.2,810.095 597.961,810.095 622.463,810.095 647.688,810.095 673.617,810.095 
  700.207,810.095 727.451,810.095 755.329,810.095 783.821,810.095 812.906,810.095 842.555,810.095 872.75,810.095 903.472,810.095 934.698,810.095 966.408,810.095 
  998.592,810.095 1031.23,810.095 1064.29,810.095 1097.76,810.095 1131.61,810.095 1165.81,810.095 1200.34,810.095 1235.17,810.095 1270.28,810.095 1303.8,810.095 
  1327.1,810.095 1350.54,810.095 1374.12,810.095 1397.8,810.095 1421.56,810.095 1445.35,810.095 1469.16,810.095 1492.94,810.095 1516.67,810.095 1540.32,810.095 
  1563.84,810.095 1587.22,810.095 1610.43,810.095 1633.43,810.095 1656.2,810.095 1678.7,810.095 1700.91,810.095 1722.79,810.095 1744.32,810.095 1765.47,810.095 
  1786.22,810.095 1806.54,810.095 1826.41,810.095 1845.8,810.095 1864.68,810.095 1883.06,810.095 1900.88,810.095 1918.14,810.095 1934.81,810.095 1950.87,810.095 
  1966.32,810.095 1981.12,810.095 1995.26,810.095 2008.71,810.095 2021.5,810.095 2033.57,810.095 2044.93,810.095 2055.55,810.095 2065.43,810.095 2074.58,810.095 
  2082.96,810.095 2090.58,810.095 2097.41,810.095 2103.45,810.095 2108.67,810.095 2113.08,810.095 2116.72,810.095 2119.55,810.095 2121.56,810.095 2122.75,810.095 
  2123.11,810.095 2122.64,810.095 2121.33,810.095 2119.2,810.095 2116.26,810.095 2112.5,810.095 2107.93,810.095 2102.54,810.095 2096.33,810.095 2089.32,810.095 
  2081.51,810.095 2072.91,810.095 2063.52,810.095 2053.35,810.095 2042.41,810.095 2030.72,810.095 2018.28,810.095 2005.1,810.095 1991.19,810.095 1976.57,810.095 
  1961.25,810.095 1945.23,810.095 1928.54,810.095 1911.2,810.095 1893.21,810.095 1874.59,810.095 1855.37,810.095 1835.52,810.095 1815.1,810.095 1794.11,810.095 
  1772.57,810.095 1750.5,810.095 1727.91,810.095 1704.84,810.095 1681.27,810.095 1657.23,810.095 1632.73,810.095 1607.8,810.095 1582.45,810.095 1556.71,810.095 
  1530.6,810.095 1504.12,810.095 1477.3,810.095 1450.15,810.095 1422.7,810.095 1394.96,810.095 1366.95,810.095 1338.7,810.095 1310.22,810.095 1289.61,810.095 
  1273.15,810.095 1256.58,810.095 1239.93,810.095 1223.21,810.095 1206.45,810.095 1189.64,810.095 1172.83,810.095 1156.04,810.095 1139.28,810.095 1122.57,810.095 
  1105.94,810.095 1089.4,810.095 1072.97,810.095 1056.69,810.095 1040.56,810.095 1024.61,810.095 1008.86,810.095 993.324,810.095 978.029,810.095 962.983,810.095 
  948.212,810.095 933.736,810.095 919.575,810.095 905.75,810.095 892.27,810.095 879.133,810.095 866.374,810.095 854.012,810.095 842.063,810.095 830.547,810.095 
  819.475,810.095 808.823,810.095 798.634,810.095 788.923,810.095 779.703,810.095 770.991,810.095 762.799,810.095 755.092,810.095 747.912,810.095 741.27,810.095 
  735.179,810.095 729.649,810.095 724.692,810.095 720.273,810.095 716.417,810.095 713.14,810.095 710.45,810.095 708.353,810.095 706.858,810.095 705.935,810.095 
  705.59,810.095 705.842,810.095 706.695,810.095 708.152,810.095 710.218,810.095 712.868,810.095 716.092,810.095 719.91,810.095 724.32,810.095 729.324,810.095 
  734.923,810.095 741.098,810.095 747.823,810.095 755.117,810.095 762.978,810.095 771.403,810.095 780.388,810.095 789.92,810.095 799.963,810.095 810.534,810.095 
  821.627,810.095 833.237,810.095 845.356,810.095 857.977,810.095 871.055,810.095 884.606,810.095 898.62,810.095 913.09,810.095 928.006,810.095 943.36,810.095 
  959.114,810.095 975.273,810.095 991.828,810.095 1008.77,810.095 1026.08,810.095 1043.76,810.095 1061.78,810.095 1080.13,810.095 1098.81,810.095 1117.79,810.095 
  1137.08,810.095 1156.66,810.095 1176.51,810.095 1196.63,810.095 1217.01,810.095 1237.63,810.095 1258.48,810.095 1279.54,810.095 1300.49,810.095 1309.29,810.095 
  1318.15,810.095 
  "/>
<polyline clip-path="url(#clip752)" style="stroke:#e26f46; stroke-linecap:round; stroke-linejoin:round; stroke-width:8; stroke-opacity:1; fill:none" points="
  1300.32,718.022 1336.26,722.783 1372.46,727.162 1408.86,731.182 1445.4,734.859 1482.05,738.217 1518.74,741.276 1555.39,744.056 1591.98,746.577 1628.45,748.858 
  1664.76,750.92 1700.83,752.778 1736.64,754.45 1772.13,755.952 1807.24,757.297 1841.95,758.501 1876.19,759.576 1909.93,760.534 1943.12,761.385 1975.73,762.141 
  2007.71,762.811 2039.02,763.402 2069.64,763.924 2099.53,764.382 2128.63,764.784 2156.95,765.136 2184.45,765.443 2211.09,765.71 2236.83,765.94 2261.65,766.139 
  2285.52,766.31 2308.4,766.456 2330.32,766.58 2351.22,766.685 2371.08,766.774 2389.86,766.847 2407.55,766.908 2424.12,766.958 2439.58,766.999 2453.92,767.031 
  2467.1,767.057 2479.12,767.078 2489.95,767.094 2499.58,767.106 2508.01,767.115 2515.24,767.121 2521.25,767.126 2526.04,767.129 2529.6,767.132 2531.93,767.133 
  2533.02,767.133 2532.88,767.133 2531.5,767.133 2528.89,767.131 2525.05,767.129 2519.98,767.125 2513.7,767.12 2506.2,767.113 2497.48,767.103 2487.57,767.09 
  2476.47,767.074 2464.2,767.052 2450.75,767.024 2436.16,766.99 2420.42,766.947 2403.56,766.895 2385.59,766.831 2366.53,766.754 2346.4,766.662 2325.22,766.553 
  2303,766.423 2279.77,766.271 2255.54,766.092 2230.34,765.885 2204.2,765.643 2177.14,765.365 2149.18,765.043 2120.35,764.674 2090.66,764.251 2060.15,763.768 
  2028.85,763.217 1996.77,762.59 1963.96,761.877 1930.43,761.07 1896.21,760.156 1861.31,759.122 1825.77,757.955 1789.63,756.639 1752.9,755.156 1715.62,753.489 
  1677.81,751.613 1639.45,749.504 1600.59,747.135 1561.26,744.476 1521.48,741.493 1481.27,738.149 1440.66,734.4 1399.66,730.201 1358.31,725.498 1316.61,720.234 
  1282.19,899.714 1252.38,895.911 1222.38,892.362 1192.23,889.056 1161.97,885.984 1131.65,883.134 1101.32,880.496 1070.99,878.059 1040.74,875.811 1010.59,873.74 
  980.589,871.838 950.779,870.091 921.203,868.492 891.895,867.028 862.886,865.69 834.222,864.47 805.944,863.358 778.094,862.347 750.699,861.428 723.766,860.594 
  697.354,859.837 671.501,859.153 646.243,858.534 621.604,857.976 597.576,857.472 574.216,857.018 551.558,856.61 529.632,856.244 508.464,855.916 488.033,855.621 
  468.396,855.358 449.578,855.124 431.605,854.915 414.503,854.729 398.24,854.564 382.868,854.418 368.408,854.289 354.881,854.175 342.308,854.076 330.657,853.988 
  319.965,853.913 310.253,853.847 301.536,853.791 293.83,853.743 287.104,853.703 281.379,853.67 276.675,853.644 273.002,853.624 270.37,853.61 268.751,853.601 
  268.149,853.598 268.583,853.6 270.057,853.608 272.577,853.621 276.116,853.641 280.663,853.666 286.235,853.698 292.832,853.737 300.453,853.784 309.073,853.839 
  318.669,853.904 329.254,853.978 340.824,854.064 353.372,854.163 366.875,854.275 381.3,854.403 396.655,854.548 412.932,854.713 430.12,854.898 448.197,855.107 
  467.121,855.342 486.898,855.606 507.513,855.902 528.953,856.233 551.198,856.604 574.2,857.018 597.961,857.48 622.463,857.995 647.688,858.568 673.617,859.207 
  700.207,859.916 727.451,860.704 755.329,861.578 783.821,862.548 812.906,863.624 842.555,864.815 872.75,866.133 903.472,867.592 934.698,869.206 966.408,870.99 
  998.592,872.961 1031.23,875.139 1064.29,877.545 1097.76,880.2 1131.61,883.131 1165.81,886.361 1200.34,889.92 1235.17,893.842 1270.28,898.159 1303.8,718.502 
  1327.1,721.61 1350.54,724.559 1374.12,727.355 1397.8,729.999 1421.56,732.498 1445.35,734.853 1469.16,737.072 1492.94,739.156 1516.67,741.112 1540.32,742.945 
  1563.84,744.66 1587.22,746.262 1610.43,747.759 1633.43,749.153 1656.2,750.452 1678.7,751.66 1700.91,752.782 1722.79,753.823 1744.32,754.788 1765.47,755.681 
  1786.22,756.508 1806.54,757.272 1826.41,757.977 1845.8,758.627 1864.68,759.227 1883.06,759.779 1900.88,760.286 1918.14,760.752 1934.81,761.18 1950.87,761.572 
  1966.32,761.931 1981.12,762.259 1995.26,762.558 2008.71,762.831 2021.5,763.079 2033.57,763.304 2044.93,763.507 2055.55,763.69 2065.43,763.855 2074.58,764.003 
  2082.96,764.134 2090.58,764.25 2097.41,764.351 2103.45,764.439 2108.67,764.513 2113.08,764.575 2116.72,764.625 2119.55,764.663 2121.56,764.691 2122.75,764.707 
  2123.11,764.711 2122.64,764.705 2121.33,764.688 2119.2,764.659 2116.26,764.619 2112.5,764.567 2107.93,764.503 2102.54,764.426 2096.33,764.336 2089.32,764.231 
  2081.51,764.112 2072.91,763.976 2063.52,763.824 2053.35,763.653 2042.41,763.463 2030.72,763.251 2018.28,763.017 2005.1,762.759 1991.19,762.474 1976.57,762.16 
  1961.25,761.815 1945.23,761.437 1928.54,761.022 1911.2,760.568 1893.21,760.071 1874.59,759.528 1855.37,758.935 1835.52,758.287 1815.1,757.58 1794.11,756.809 
  1772.57,755.969 1750.5,755.054 1727.91,754.058 1704.84,752.973 1681.27,751.793 1657.23,750.509 1632.73,749.112 1607.8,747.594 1582.45,745.943 1556.71,744.151 
  1530.6,742.205 1504.12,740.092 1477.3,737.799 1450.15,735.311 1422.7,732.614 1394.96,729.69 1366.95,726.522 1338.7,723.091 1310.22,719.377 1289.61,900.704 
  1273.15,898.529 1256.58,896.43 1239.93,894.406 1223.21,892.457 1206.45,890.583 1189.64,888.784 1172.83,887.059 1156.04,885.409 1139.28,883.831 1122.57,882.323 
  1105.94,880.885 1089.4,879.516 1072.97,878.212 1056.69,876.973 1040.56,875.797 1024.61,874.682 1008.86,873.626 993.324,872.627 978.029,871.682 962.983,870.79 
  948.212,869.948 933.736,869.154 919.575,868.407 905.75,867.705 892.27,867.046 879.133,866.426 866.374,865.846 854.012,865.302 842.063,864.794 830.547,864.32 
  819.475,863.879 808.823,863.467 798.634,863.085 788.923,862.731 779.703,862.403 770.991,862.102 762.799,861.825 755.092,861.571 747.912,861.339 741.27,861.128 
  735.179,860.939 729.649,860.77 724.692,860.621 720.273,860.49 716.417,860.377 713.14,860.282 710.45,860.205 708.353,860.145 706.858,860.103 705.935,860.076 
  705.59,860.067 705.842,860.074 706.695,860.098 708.152,860.139 710.218,860.198 712.868,860.274 716.092,860.368 719.91,860.479 724.32,860.61 729.324,860.76 
  734.923,860.931 741.098,861.123 747.823,861.336 755.117,861.571 762.978,861.831 771.403,862.116 780.388,862.427 789.92,862.767 799.963,863.134 810.534,863.533 
  821.627,863.964 833.237,864.43 845.356,864.932 857.977,865.474 871.055,866.056 884.606,866.682 898.62,867.354 913.09,868.075 928.006,868.848 943.36,869.678 
  959.114,870.566 975.273,871.516 991.828,872.533 1008.77,873.62 1026.08,874.784 1043.76,876.027 1061.78,877.355 1080.13,878.773 1098.81,880.287 1117.79,881.904 
  1137.08,883.628 1156.66,885.468 1176.51,887.431 1196.63,889.523 1217.01,891.754 1237.63,894.132 1258.48,896.665 1279.54,899.364 1300.49,718.046 1309.29,719.251 
  1318.15,720.437 
  "/>
<polyline clip-path="url(#clip752)" style="stroke:#008000; stroke-linecap:round; stroke-linejoin:round; stroke-width:8; stroke-opacity:1; fill:none" stroke-dasharray="4, 8" points="
  1300.32,495.305 1336.26,521.216 1372.46,548.445 1408.86,576.932 1445.4,606.56 1482.05,637.223 1518.74,668.775 1555.39,701.028 1591.98,733.819 1628.45,766.936 
  1664.76,800.191 1700.83,833.353 1736.64,866.223 1772.13,898.591 1807.24,930.267 1841.95,961.084 1876.19,990.886 1909.93,1019.54 1943.12,1046.94 1975.73,1073.03 
  2007.71,1097.74 2039.02,1121.03 2069.64,1142.92 2099.53,1163.4 2128.63,1182.5 2156.95,1200.26 2184.45,1216.74 2211.09,1231.98 2236.83,1246.04 2261.65,1258.99 
  2285.52,1270.88 2308.4,1281.77 2330.32,1291.76 2351.22,1300.89 2371.08,1309.2 2389.86,1316.76 2407.55,1323.61 2424.12,1329.8 2439.58,1335.39 2453.92,1340.4 
  2467.1,1344.87 2479.12,1348.84 2489.95,1352.33 2499.58,1355.36 2508.01,1357.97 2515.24,1360.16 2521.25,1361.96 2526.04,1363.37 2529.6,1364.41 2531.93,1365.09 
  2533.02,1365.41 2532.88,1365.37 2531.5,1364.97 2528.89,1364.21 2525.05,1363.08 2519.98,1361.58 2513.7,1359.69 2506.2,1357.41 2497.48,1354.71 2487.57,1351.57 
  2476.47,1347.98 2464.2,1343.9 2450.75,1339.3 2436.16,1334.16 2420.42,1328.44 2403.56,1322.09 2385.59,1315.07 2366.53,1307.33 2346.4,1298.82 2325.22,1289.47 
  2303,1279.25 2279.77,1268.06 2255.54,1255.85 2230.34,1242.56 2204.2,1228.11 2177.14,1212.43 2149.18,1195.47 2120.35,1177.15 2090.66,1157.42 2060.15,1136.23 
  2028.85,1113.56 1996.77,1089.39 1963.96,1063.71 1930.43,1036.57 1896.21,1007.98 1861.31,978.015 1825.77,946.79 1789.63,914.429 1752.9,881.087 1715.62,846.941 
  1677.81,812.182 1639.45,776.985 1600.59,741.599 1561.26,706.25 1521.48,671.164 1481.27,636.563 1440.66,602.655 1399.66,569.632 1358.31,537.667 1316.61,506.909 
  1282.19,482.681 1252.38,462.568 1222.38,443.158 1192.23,424.496 1161.97,406.617 1131.65,389.55 1101.32,373.314 1070.99,357.909 1040.74,343.343 1010.59,329.602 
  980.589,316.675 950.779,304.542 921.203,293.179 891.895,282.555 862.886,272.636 834.222,263.392 805.944,254.79 778.094,246.797 750.699,239.374 723.766,232.481 
  697.354,226.091 671.501,220.172 646.243,214.694 621.604,209.627 597.576,204.933 574.216,200.595 551.558,196.587 529.632,192.887 508.464,189.474 488.033,186.322 
  468.396,183.416 449.578,180.742 431.605,178.284 414.503,176.029 398.24,173.958 382.868,172.062 368.408,170.333 354.881,168.762 342.308,167.339 330.657,166.053 
  319.965,164.899 310.253,163.872 301.536,162.968 293.83,162.181 287.104,161.504 281.379,160.935 276.675,160.473 273.002,160.114 270.37,159.859 268.751,159.703 
  268.149,159.645 268.583,159.687 270.057,159.829 272.577,160.073 276.116,160.418 280.663,160.865 286.235,161.417 292.832,162.08 300.453,162.856 309.073,163.749 
  318.669,164.761 329.254,165.9 340.824,167.174 353.372,168.589 366.875,170.153 381.3,171.872 396.655,173.76 412.932,175.826 430.12,178.085 448.197,180.55 
  467.121,183.232 486.898,186.151 507.513,189.325 528.953,192.775 551.198,196.525 574.2,200.592 597.961,205.007 622.463,209.799 647.688,215 673.617,220.644 
  700.207,226.764 727.451,233.401 755.329,240.599 783.821,248.403 812.906,256.862 842.555,266.024 872.75,275.944 903.472,286.678 934.698,298.282 966.408,310.817 
  998.592,324.344 1031.23,338.924 1064.29,354.611 1097.76,371.463 1131.61,389.529 1165.81,408.84 1200.34,429.43 1235.17,451.327 1270.28,474.542 1303.8,497.764 
  1327.1,514.5 1350.54,531.826 1374.12,549.727 1397.8,568.163 1421.56,587.114 1445.35,606.515 1469.16,626.336 1492.94,646.51 1516.67,666.979 1540.32,687.691 
  1563.84,708.553 1587.22,729.522 1610.43,750.528 1633.43,771.485 1656.2,792.335 1678.7,813.003 1700.91,833.419 1722.79,853.52 1744.32,873.246 1765.47,892.538 
  1786.22,911.351 1806.54,929.64 1826.41,947.359 1845.8,964.47 1864.68,980.943 1883.06,996.775 1900.88,1011.93 1918.14,1026.4 1934.81,1040.16 1950.87,1053.22 
  1966.32,1065.59 1981.12,1077.26 1995.26,1088.22 2008.71,1098.5 2021.5,1108.1 2033.57,1117.04 2044.93,1125.32 2055.55,1132.96 2065.43,1139.96 2074.58,1146.36 
  2082.96,1152.16 2090.58,1157.36 2097.41,1161.98 2103.45,1166.02 2108.67,1169.49 2113.08,1172.4 2116.72,1174.78 2119.55,1176.62 2121.56,1177.93 2122.75,1178.7 
  2123.11,1178.94 2122.64,1178.63 2121.33,1177.79 2119.2,1176.4 2116.26,1174.48 2112.5,1172.02 2107.93,1169 2102.54,1165.41 2096.33,1161.25 2089.32,1156.51 
  2081.51,1151.16 2072.91,1145.2 2063.52,1138.61 2053.35,1131.38 2042.41,1123.5 2030.72,1114.94 2018.28,1105.7 2005.1,1095.75 1991.19,1085.09 1976.57,1073.69 
  1961.25,1061.55 1945.23,1048.66 1928.54,1035.01 1911.2,1020.6 1893.21,1005.43 1874.59,989.507 1855.37,972.839 1835.52,955.423 1815.1,937.291 1794.11,918.468 
  1772.57,898.989 1750.5,878.892 1727.91,858.222 1704.84,837.033 1681.27,815.368 1657.23,793.278 1632.73,770.843 1607.8,748.135 1582.45,725.23 1556.71,702.204 
  1530.6,679.137 1504.12,656.11 1477.3,633.197 1450.15,610.478 1422.7,588.031 1394.96,565.927 1366.95,544.234 1338.7,523.017 1310.22,502.332 1289.61,487.81 
  1273.15,476.49 1256.58,465.354 1239.93,454.413 1223.21,443.685 1206.45,433.189 1189.64,422.933 1172.83,412.935 1156.04,403.21 1139.28,393.766 1122.57,384.601 
  1105.94,375.734 1089.4,367.163 1072.97,358.89 1056.69,350.922 1040.56,343.257 1024.61,335.895 1008.86,328.835 993.324,322.073 978.029,315.606 962.983,309.426 
  948.212,303.53 933.736,297.914 919.575,292.573 905.75,287.5 892.27,282.687 879.133,278.12 866.374,273.798 854.012,269.716 842.063,265.868 830.547,262.246 
  819.475,258.844 808.823,255.644 798.634,252.647 788.923,249.85 779.703,247.246 770.991,244.831 762.799,242.6 755.092,240.536 747.912,238.643 741.27,236.916 
  735.179,235.354 729.649,233.953 724.692,232.711 720.273,231.615 716.417,230.667 713.14,229.867 710.45,229.214 708.353,228.708 706.858,228.349 705.935,228.128 
  705.59,228.045 705.842,228.106 706.695,228.31 708.152,228.66 710.218,229.158 712.868,229.801 716.092,230.587 719.91,231.525 724.32,232.619 729.324,233.872 
  734.923,235.289 741.098,236.872 747.823,238.619 755.117,240.543 762.978,242.649 771.403,244.944 780.388,247.438 789.92,250.135 799.963,253.035 810.534,256.153 
  821.627,259.499 833.237,263.084 845.356,266.919 857.977,271.014 871.055,275.371 884.606,280.008 898.62,284.938 913.09,290.176 928.006,295.735 943.36,301.63 
  959.114,307.865 975.273,314.461 991.828,321.432 1008.77,328.796 1026.08,336.567 1043.76,344.761 1061.78,353.389 1080.13,362.466 1098.81,372.008 1117.79,382.03 
  1137.08,392.544 1156.66,403.564 1176.51,415.102 1196.63,427.168 1217.01,439.77 1237.63,452.917 1258.48,466.612 1279.54,480.86 1300.49,495.427 1309.29,501.663 
  1318.15,508.014 
  "/>
<path clip-path="url(#clip750)" d="
M1437.25 477.116 L2282.59 477.116 L2282.59 166.076 L1437.25 166.076  Z
  " fill="#ffffff" fill-rule="evenodd" fill-opacity="1"/>
<polyline clip-path="url(#clip750)" style="stroke:#000000; stroke-linecap:round; stroke-linejoin:round; stroke-width:4; stroke-opacity:1; fill:none" points="
  1437.25,477.116 2282.59,477.116 2282.59,166.076 1437.25,166.076 1437.25,477.116 
  "/>
<polyline clip-path="url(#clip750)" style="stroke:#009af9; stroke-linecap:round; stroke-linejoin:round; stroke-width:12; stroke-opacity:1; fill:none" points="
  1460.64,243.836 1600.96,243.836 
  "/>
<path clip-path="url(#clip750)" d="M1657.72 219.617 L1657.72 226.457 Q1653.72 224.548 1650.18 223.61 Q1646.64 222.673 1643.34 222.673 Q1637.61 222.673 1634.49 224.895 Q1631.4 227.117 1631.4 231.214 Q1631.4 234.652 1633.45 236.423 Q1635.53 238.159 1641.29 239.235 L1645.53 240.103 Q1653.38 241.596 1657.09 245.381 Q1660.84 249.131 1660.84 255.45 Q1660.84 262.985 1655.77 266.874 Q1650.74 270.763 1640.98 270.763 Q1637.3 270.763 1633.13 269.929 Q1629 269.096 1624.56 267.464 L1624.56 260.242 Q1628.83 262.638 1632.92 263.853 Q1637.02 265.068 1640.98 265.068 Q1646.99 265.068 1650.25 262.707 Q1653.51 260.346 1653.51 255.971 Q1653.51 252.152 1651.15 249.999 Q1648.83 247.846 1643.48 246.77 L1639.21 245.936 Q1631.36 244.374 1627.86 241.041 Q1624.35 237.707 1624.35 231.77 Q1624.35 224.895 1629.17 220.937 Q1634.04 216.978 1642.54 216.978 Q1646.19 216.978 1649.97 217.638 Q1653.76 218.298 1657.72 219.617 Z" fill="#000000" fill-rule="evenodd" fill-opacity="1" /><path clip-path="url(#clip750)" d="M1671.5 230.867 L1677.89 230.867 L1677.89 269.756 L1671.5 269.756 L1671.5 230.867 M1671.5 215.728 L1677.89 215.728 L1677.89 223.818 L1671.5 223.818 L1671.5 215.728 Z" fill="#000000" fill-rule="evenodd" fill-opacity="1" /><path clip-path="url(#clip750)" d="M1721.54 238.332 Q1723.93 234.027 1727.26 231.978 Q1730.6 229.93 1735.11 229.93 Q1741.19 229.93 1744.49 234.2 Q1747.78 238.436 1747.78 246.284 L1747.78 269.756 L1741.36 269.756 L1741.36 246.492 Q1741.36 240.902 1739.38 238.193 Q1737.4 235.485 1733.34 235.485 Q1728.38 235.485 1725.49 238.784 Q1722.61 242.082 1722.61 247.777 L1722.61 269.756 L1716.19 269.756 L1716.19 246.492 Q1716.19 240.867 1714.21 238.193 Q1712.23 235.485 1708.1 235.485 Q1703.2 235.485 1700.32 238.818 Q1697.44 242.117 1697.44 247.777 L1697.44 269.756 L1691.01 269.756 L1691.01 230.867 L1697.44 230.867 L1697.44 236.909 Q1699.63 233.332 1702.68 231.631 Q1705.74 229.93 1709.94 229.93 Q1714.17 229.93 1717.13 232.082 Q1720.11 234.235 1721.54 238.332 Z" fill="#000000" fill-rule="evenodd" fill-opacity="1" /><path clip-path="url(#clip750)" d="M1766.71 263.922 L1766.71 284.547 L1760.28 284.547 L1760.28 230.867 L1766.71 230.867 L1766.71 236.77 Q1768.72 233.298 1771.78 231.631 Q1774.87 229.93 1779.14 229.93 Q1786.22 229.93 1790.63 235.555 Q1795.08 241.179 1795.08 250.346 Q1795.08 259.513 1790.63 265.138 Q1786.22 270.763 1779.14 270.763 Q1774.87 270.763 1771.78 269.096 Q1768.72 267.395 1766.71 263.922 M1788.44 250.346 Q1788.44 243.298 1785.53 239.304 Q1782.65 235.277 1777.58 235.277 Q1772.51 235.277 1769.59 239.304 Q1766.71 243.298 1766.71 250.346 Q1766.71 257.395 1769.59 261.422 Q1772.51 265.415 1777.58 265.415 Q1782.65 265.415 1785.53 261.422 Q1788.44 257.395 1788.44 250.346 Z" fill="#000000" fill-rule="evenodd" fill-opacity="1" /><path clip-path="url(#clip750)" d="M1805.67 215.728 L1812.06 215.728 L1812.06 269.756 L1805.67 269.756 L1805.67 215.728 Z" fill="#000000" fill-rule="evenodd" fill-opacity="1" /><path clip-path="url(#clip750)" d="M1858.69 248.714 L1858.69 251.839 L1829.31 251.839 Q1829.73 258.436 1833.27 261.909 Q1836.85 265.346 1843.2 265.346 Q1846.88 265.346 1850.32 264.443 Q1853.79 263.54 1857.19 261.735 L1857.19 267.777 Q1853.76 269.235 1850.15 269.999 Q1846.53 270.763 1842.82 270.763 Q1833.51 270.763 1828.06 265.346 Q1822.65 259.929 1822.65 250.693 Q1822.65 241.145 1827.78 235.555 Q1832.96 229.93 1841.71 229.93 Q1849.56 229.93 1854.1 234.999 Q1858.69 240.034 1858.69 248.714 M1852.3 246.839 Q1852.23 241.596 1849.35 238.471 Q1846.5 235.346 1841.78 235.346 Q1836.43 235.346 1833.2 238.367 Q1830.01 241.388 1829.52 246.874 L1852.3 246.839 Z" fill="#000000" fill-rule="evenodd" fill-opacity="1" /><path clip-path="url(#clip750)" d="M1869.45 217.916 L1899.24 217.916 L1899.24 223.818 L1876.46 223.818 L1876.46 239.096 L1897.02 239.096 L1897.02 244.999 L1876.46 244.999 L1876.46 269.756 L1869.45 269.756 L1869.45 217.916 Z" fill="#000000" fill-rule="evenodd" fill-opacity="1" /><path clip-path="url(#clip750)" d="M1910.35 217.916 L1920.8 217.916 L1934.03 253.193 L1947.33 217.916 L1957.78 217.916 L1957.78 269.756 L1950.94 269.756 L1950.94 224.235 L1937.58 259.79 L1930.53 259.79 L1917.16 224.235 L1917.16 269.756 L1910.35 269.756 L1910.35 217.916 Z" fill="#000000" fill-rule="evenodd" fill-opacity="1" /><path clip-path="url(#clip750)" d="M1970.91 217.916 L1977.96 217.916 L1977.96 249.409 Q1977.96 257.742 1980.98 261.422 Q1984 265.068 1990.77 265.068 Q1997.51 265.068 2000.53 261.422 Q2003.55 257.742 2003.55 249.409 L2003.55 217.916 L2010.6 217.916 L2010.6 250.277 Q2010.6 260.415 2005.56 265.589 Q2000.56 270.763 1990.77 270.763 Q1980.94 270.763 1975.91 265.589 Q1970.91 260.415 1970.91 250.277 L1970.91 217.916 Z" fill="#000000" fill-rule="evenodd" fill-opacity="1" /><polyline clip-path="url(#clip750)" style="stroke:#e26f46; stroke-linecap:round; stroke-linejoin:round; stroke-width:12; stroke-opacity:1; fill:none" points="
  1460.64,321.596 1600.96,321.596 
  "/>
<path clip-path="url(#clip750)" d="M1647.13 314.599 Q1646.05 313.974 1644.76 313.696 Q1643.51 313.384 1641.99 313.384 Q1636.57 313.384 1633.65 316.926 Q1630.77 320.433 1630.77 327.03 L1630.77 347.516 L1624.35 347.516 L1624.35 308.627 L1630.77 308.627 L1630.77 314.669 Q1632.79 311.127 1636.01 309.426 Q1639.24 307.69 1643.86 307.69 Q1644.52 307.69 1645.32 307.794 Q1646.12 307.863 1647.09 308.037 L1647.13 314.599 Z" fill="#000000" fill-rule="evenodd" fill-opacity="1" /><path clip-path="url(#clip750)" d="M1685.53 326.474 L1685.53 329.599 L1656.15 329.599 Q1656.57 336.196 1660.11 339.669 Q1663.69 343.106 1670.04 343.106 Q1673.72 343.106 1677.16 342.203 Q1680.63 341.3 1684.04 339.495 L1684.04 345.537 Q1680.6 346.995 1676.99 347.759 Q1673.38 348.523 1669.66 348.523 Q1660.35 348.523 1654.9 343.106 Q1649.49 337.689 1649.49 328.453 Q1649.49 318.905 1654.63 313.315 Q1659.8 307.69 1668.55 307.69 Q1676.4 307.69 1680.94 312.759 Q1685.53 317.794 1685.53 326.474 M1679.14 324.599 Q1679.07 319.356 1676.19 316.231 Q1673.34 313.106 1668.62 313.106 Q1663.27 313.106 1660.04 316.127 Q1656.85 319.148 1656.36 324.634 L1679.14 324.599 Z" fill="#000000" fill-rule="evenodd" fill-opacity="1" /><path clip-path="url(#clip750)" d="M1715.7 293.488 L1715.7 298.801 L1709.59 298.801 Q1706.15 298.801 1704.8 300.19 Q1703.48 301.578 1703.48 305.19 L1703.48 308.627 L1714 308.627 L1714 313.592 L1703.48 313.592 L1703.48 347.516 L1697.06 347.516 L1697.06 313.592 L1690.94 313.592 L1690.94 308.627 L1697.06 308.627 L1697.06 305.919 Q1697.06 299.426 1700.08 296.474 Q1703.1 293.488 1709.66 293.488 L1715.7 293.488 Z" fill="#000000" fill-rule="evenodd" fill-opacity="1" /><path clip-path="url(#clip750)" d="M1754.31 326.474 L1754.31 329.599 L1724.94 329.599 Q1725.35 336.196 1728.9 339.669 Q1732.47 343.106 1738.83 343.106 Q1742.51 343.106 1745.94 342.203 Q1749.42 341.3 1752.82 339.495 L1752.82 345.537 Q1749.38 346.995 1745.77 347.759 Q1742.16 348.523 1738.44 348.523 Q1729.14 348.523 1723.69 343.106 Q1718.27 337.689 1718.27 328.453 Q1718.27 318.905 1723.41 313.315 Q1728.58 307.69 1737.33 307.69 Q1745.18 307.69 1749.73 312.759 Q1754.31 317.794 1754.31 326.474 M1747.92 324.599 Q1747.85 319.356 1744.97 316.231 Q1742.13 313.106 1737.4 313.106 Q1732.06 313.106 1728.83 316.127 Q1725.63 319.148 1725.15 324.634 L1747.92 324.599 Z" fill="#000000" fill-rule="evenodd" fill-opacity="1" /><path clip-path="url(#clip750)" d="M1787.33 314.599 Q1786.26 313.974 1784.97 313.696 Q1783.72 313.384 1782.19 313.384 Q1776.78 313.384 1773.86 316.926 Q1770.98 320.433 1770.98 327.03 L1770.98 347.516 L1764.56 347.516 L1764.56 308.627 L1770.98 308.627 L1770.98 314.669 Q1772.99 311.127 1776.22 309.426 Q1779.45 307.69 1784.07 307.69 Q1784.73 307.69 1785.53 307.794 Q1786.33 307.863 1787.3 308.037 L1787.33 314.599 Z" fill="#000000" fill-rule="evenodd" fill-opacity="1" /><path clip-path="url(#clip750)" d="M1825.74 326.474 L1825.74 329.599 L1796.36 329.599 Q1796.78 336.196 1800.32 339.669 Q1803.9 343.106 1810.25 343.106 Q1813.93 343.106 1817.37 342.203 Q1820.84 341.3 1824.24 339.495 L1824.24 345.537 Q1820.81 346.995 1817.19 347.759 Q1813.58 348.523 1809.87 348.523 Q1800.56 348.523 1795.11 343.106 Q1789.69 337.689 1789.69 328.453 Q1789.69 318.905 1794.83 313.315 Q1800.01 307.69 1808.76 307.69 Q1816.6 307.69 1821.15 312.759 Q1825.74 317.794 1825.74 326.474 M1819.35 324.599 Q1819.28 319.356 1816.4 316.231 Q1813.55 313.106 1808.83 313.106 Q1803.48 313.106 1800.25 316.127 Q1797.06 319.148 1796.57 324.634 L1819.35 324.599 Z" fill="#000000" fill-rule="evenodd" fill-opacity="1" /><path clip-path="url(#clip750)" d="M1868.55 324.044 L1868.55 347.516 L1862.16 347.516 L1862.16 324.252 Q1862.16 318.731 1860.01 315.988 Q1857.85 313.245 1853.55 313.245 Q1848.37 313.245 1845.39 316.544 Q1842.4 319.842 1842.4 325.537 L1842.4 347.516 L1835.98 347.516 L1835.98 308.627 L1842.4 308.627 L1842.4 314.669 Q1844.69 311.162 1847.78 309.426 Q1850.91 307.69 1854.97 307.69 Q1861.67 307.69 1865.11 311.856 Q1868.55 315.988 1868.55 324.044 Z" fill="#000000" fill-rule="evenodd" fill-opacity="1" /><path clip-path="url(#clip750)" d="M1909.28 310.12 L1909.28 316.092 Q1906.57 314.599 1903.83 313.87 Q1901.12 313.106 1898.34 313.106 Q1892.12 313.106 1888.69 317.064 Q1885.25 320.988 1885.25 328.106 Q1885.25 335.224 1888.69 339.182 Q1892.12 343.106 1898.34 343.106 Q1901.12 343.106 1903.83 342.377 Q1906.57 341.613 1909.28 340.12 L1909.28 346.023 Q1906.6 347.273 1903.72 347.898 Q1900.87 348.523 1897.65 348.523 Q1888.86 348.523 1883.69 343.002 Q1878.51 337.481 1878.51 328.106 Q1878.51 318.592 1883.72 313.141 Q1888.96 307.69 1898.06 307.69 Q1901.01 307.69 1903.83 308.315 Q1906.64 308.905 1909.28 310.12 Z" fill="#000000" fill-rule="evenodd" fill-opacity="1" /><path clip-path="url(#clip750)" d="M1953.65 326.474 L1953.65 329.599 L1924.28 329.599 Q1924.69 336.196 1928.24 339.669 Q1931.81 343.106 1938.17 343.106 Q1941.85 343.106 1945.28 342.203 Q1948.76 341.3 1952.16 339.495 L1952.16 345.537 Q1948.72 346.995 1945.11 347.759 Q1941.5 348.523 1937.78 348.523 Q1928.48 348.523 1923.03 343.106 Q1917.61 337.689 1917.61 328.453 Q1917.61 318.905 1922.75 313.315 Q1927.92 307.69 1936.67 307.69 Q1944.52 307.69 1949.07 312.759 Q1953.65 317.794 1953.65 326.474 M1947.26 324.599 Q1947.19 319.356 1944.31 316.231 Q1941.46 313.106 1936.74 313.106 Q1931.4 313.106 1928.17 316.127 Q1924.97 319.148 1924.49 324.634 L1947.26 324.599 Z" fill="#000000" fill-rule="evenodd" fill-opacity="1" /><polyline clip-path="url(#clip750)" style="stroke:#008000; stroke-linecap:round; stroke-linejoin:round; stroke-width:12; stroke-opacity:1; fill:none" stroke-dasharray="6, 12" points="
  1460.64,399.356 1600.96,399.356 
  "/>
<path clip-path="url(#clip750)" d="M1624.35 373.436 L1633.79 373.436 L1656.78 416.804 L1656.78 373.436 L1663.58 373.436 L1663.58 425.276 L1654.14 425.276 L1631.15 381.908 L1631.15 425.276 L1624.35 425.276 L1624.35 373.436 Z" fill="#000000" fill-rule="evenodd" fill-opacity="1" /><path clip-path="url(#clip750)" d="M1710.53 404.234 L1710.53 407.359 L1681.15 407.359 Q1681.57 413.956 1685.11 417.429 Q1688.69 420.866 1695.04 420.866 Q1698.72 420.866 1702.16 419.963 Q1705.63 419.06 1709.04 417.255 L1709.04 423.297 Q1705.6 424.755 1701.99 425.519 Q1698.38 426.283 1694.66 426.283 Q1685.35 426.283 1679.9 420.866 Q1674.49 415.449 1674.49 406.213 Q1674.49 396.665 1679.63 391.075 Q1684.8 385.45 1693.55 385.45 Q1701.4 385.45 1705.94 390.519 Q1710.53 395.554 1710.53 404.234 M1704.14 402.359 Q1704.07 397.116 1701.19 393.991 Q1698.34 390.866 1693.62 390.866 Q1688.27 390.866 1685.04 393.887 Q1681.85 396.908 1681.36 402.394 L1704.14 402.359 Z" fill="#000000" fill-rule="evenodd" fill-opacity="1" /><path clip-path="url(#clip750)" d="M1720.35 409.929 L1720.35 386.387 L1726.74 386.387 L1726.74 409.686 Q1726.74 415.206 1728.9 417.984 Q1731.05 420.727 1735.35 420.727 Q1740.53 420.727 1743.51 417.429 Q1746.53 414.13 1746.53 408.436 L1746.53 386.387 L1752.92 386.387 L1752.92 425.276 L1746.53 425.276 L1746.53 419.304 Q1744.21 422.845 1741.12 424.581 Q1738.06 426.283 1734 426.283 Q1727.3 426.283 1723.83 422.116 Q1720.35 417.949 1720.35 409.929 M1736.43 385.45 L1736.43 385.45 Z" fill="#000000" fill-rule="evenodd" fill-opacity="1" /><path clip-path="url(#clip750)" d="M1788.62 392.359 Q1787.54 391.734 1786.26 391.456 Q1785.01 391.144 1783.48 391.144 Q1778.06 391.144 1775.15 394.686 Q1772.26 398.193 1772.26 404.79 L1772.26 425.276 L1765.84 425.276 L1765.84 386.387 L1772.26 386.387 L1772.26 392.429 Q1774.28 388.887 1777.51 387.186 Q1780.74 385.45 1785.35 385.45 Q1786.01 385.45 1786.81 385.554 Q1787.61 385.623 1788.58 385.797 L1788.62 392.359 Z" fill="#000000" fill-rule="evenodd" fill-opacity="1" /><path clip-path="url(#clip750)" d="M1812.99 405.727 Q1805.25 405.727 1802.26 407.498 Q1799.28 409.269 1799.28 413.54 Q1799.28 416.942 1801.5 418.956 Q1803.76 420.935 1807.61 420.935 Q1812.92 420.935 1816.12 417.185 Q1819.35 413.401 1819.35 407.151 L1819.35 405.727 L1812.99 405.727 M1825.74 403.088 L1825.74 425.276 L1819.35 425.276 L1819.35 419.373 Q1817.16 422.915 1813.9 424.616 Q1810.63 426.283 1805.91 426.283 Q1799.94 426.283 1796.4 422.949 Q1792.89 419.581 1792.89 413.956 Q1792.89 407.394 1797.26 404.061 Q1801.67 400.727 1810.39 400.727 L1819.35 400.727 L1819.35 400.102 Q1819.35 395.693 1816.43 393.297 Q1813.55 390.866 1808.31 390.866 Q1804.97 390.866 1801.81 391.665 Q1798.65 392.463 1795.74 394.061 L1795.74 388.158 Q1799.24 386.804 1802.54 386.144 Q1805.84 385.45 1808.97 385.45 Q1817.4 385.45 1821.57 389.825 Q1825.74 394.199 1825.74 403.088 Z" fill="#000000" fill-rule="evenodd" fill-opacity="1" /><path clip-path="url(#clip750)" d="M1838.9 371.248 L1845.28 371.248 L1845.28 425.276 L1838.9 425.276 L1838.9 371.248 Z" fill="#000000" fill-rule="evenodd" fill-opacity="1" /><path clip-path="url(#clip750)" d="M1858.93 373.436 L1888.72 373.436 L1888.72 379.338 L1865.94 379.338 L1865.94 394.616 L1886.5 394.616 L1886.5 400.519 L1865.94 400.519 L1865.94 425.276 L1858.93 425.276 L1858.93 373.436 Z" fill="#000000" fill-rule="evenodd" fill-opacity="1" /><path clip-path="url(#clip750)" d="M1899.83 373.436 L1910.28 373.436 L1923.51 408.713 L1936.81 373.436 L1947.26 373.436 L1947.26 425.276 L1940.42 425.276 L1940.42 379.755 L1927.05 415.31 L1920.01 415.31 L1906.64 379.755 L1906.64 425.276 L1899.83 425.276 L1899.83 373.436 Z" fill="#000000" fill-rule="evenodd" fill-opacity="1" /><path clip-path="url(#clip750)" d="M1960.39 373.436 L1967.44 373.436 L1967.44 404.929 Q1967.44 413.262 1970.46 416.942 Q1973.48 420.588 1980.25 420.588 Q1986.99 420.588 1990.01 416.942 Q1993.03 413.262 1993.03 404.929 L1993.03 373.436 L2000.08 373.436 L2000.08 405.797 Q2000.08 415.935 1995.04 421.109 Q1990.04 426.283 1980.25 426.283 Q1970.42 426.283 1965.39 421.109 Q1960.39 415.935 1960.39 405.797 L1960.39 373.436 Z" fill="#000000" fill-rule="evenodd" fill-opacity="1" /><path clip-path="url(#clip750)" d="M2050.91 371.318 Q2046.26 379.304 2044 387.116 Q2041.74 394.929 2041.74 402.949 Q2041.74 410.97 2044 418.852 Q2046.29 426.699 2050.91 434.651 L2045.35 434.651 Q2040.14 426.491 2037.54 418.609 Q2034.97 410.727 2034.97 402.949 Q2034.97 395.206 2037.54 387.359 Q2040.11 379.512 2045.35 371.318 L2050.91 371.318 Z" fill="#000000" fill-rule="evenodd" fill-opacity="1" /><path clip-path="url(#clip750)" d="M2070.25 419.373 L2094.73 419.373 L2094.73 425.276 L2061.81 425.276 L2061.81 419.373 Q2065.8 415.241 2072.68 408.297 Q2079.59 401.318 2081.36 399.304 Q2084.73 395.519 2086.05 392.915 Q2087.4 390.276 2087.4 387.741 Q2087.4 383.609 2084.48 381.005 Q2081.6 378.401 2076.95 378.401 Q2073.65 378.401 2069.97 379.547 Q2066.32 380.693 2062.16 383.019 L2062.16 375.936 Q2066.39 374.234 2070.07 373.366 Q2073.76 372.498 2076.81 372.498 Q2084.87 372.498 2089.66 376.526 Q2094.45 380.554 2094.45 387.29 Q2094.45 390.484 2093.23 393.366 Q2092.05 396.213 2088.89 400.102 Q2088.03 401.109 2083.37 405.936 Q2078.72 410.727 2070.25 419.373 Z" fill="#000000" fill-rule="evenodd" fill-opacity="1" /><path clip-path="url(#clip750)" d="M2109.52 373.436 L2137.05 373.436 L2137.05 379.338 L2115.94 379.338 L2115.94 392.047 Q2117.47 391.526 2119 391.283 Q2120.53 391.005 2122.05 391.005 Q2130.73 391.005 2135.8 395.762 Q2140.87 400.519 2140.87 408.644 Q2140.87 417.012 2135.66 421.665 Q2130.46 426.283 2120.98 426.283 Q2117.71 426.283 2114.31 425.727 Q2110.94 425.172 2107.33 424.06 L2107.33 417.012 Q2110.46 418.713 2113.79 419.547 Q2117.12 420.38 2120.84 420.38 Q2126.85 420.38 2130.35 417.22 Q2133.86 414.06 2133.86 408.644 Q2133.86 403.227 2130.35 400.068 Q2126.85 396.908 2120.84 396.908 Q2118.03 396.908 2115.21 397.533 Q2112.44 398.158 2109.52 399.477 L2109.52 373.436 Z" fill="#000000" fill-rule="evenodd" fill-opacity="1" /><path clip-path="url(#clip750)" d="M2169.69 378.054 Q2164.28 378.054 2161.53 383.401 Q2158.82 388.713 2158.82 399.408 Q2158.82 410.067 2161.53 415.415 Q2164.28 420.727 2169.69 420.727 Q2175.14 420.727 2177.85 415.415 Q2180.6 410.067 2180.6 399.408 Q2180.6 388.713 2177.85 383.401 Q2175.14 378.054 2169.69 378.054 M2169.69 372.498 Q2178.41 372.498 2182.99 379.408 Q2187.61 386.283 2187.61 399.408 Q2187.61 412.498 2182.99 419.408 Q2178.41 426.283 2169.69 426.283 Q2160.98 426.283 2156.36 419.408 Q2151.78 412.498 2151.78 399.408 Q2151.78 386.283 2156.36 379.408 Q2160.98 372.498 2169.69 372.498 Z" fill="#000000" fill-rule="evenodd" fill-opacity="1" /><path clip-path="url(#clip750)" d="M2214.94 378.054 Q2209.52 378.054 2206.78 383.401 Q2204.07 388.713 2204.07 399.408 Q2204.07 410.067 2206.78 415.415 Q2209.52 420.727 2214.94 420.727 Q2220.39 420.727 2223.09 415.415 Q2225.84 410.067 2225.84 399.408 Q2225.84 388.713 2223.09 383.401 Q2220.39 378.054 2214.94 378.054 M2214.94 372.498 Q2223.65 372.498 2228.23 379.408 Q2232.85 386.283 2232.85 399.408 Q2232.85 412.498 2228.23 419.408 Q2223.65 426.283 2214.94 426.283 Q2206.22 426.283 2201.6 419.408 Q2197.02 412.498 2197.02 399.408 Q2197.02 386.283 2201.6 379.408 Q2206.22 372.498 2214.94 372.498 Z" fill="#000000" fill-rule="evenodd" fill-opacity="1" /><path clip-path="url(#clip750)" d="M2243.27 371.318 L2248.82 371.318 Q2254.03 379.512 2256.6 387.359 Q2259.21 395.206 2259.21 402.949 Q2259.21 410.727 2256.6 418.609 Q2254.03 426.491 2248.82 434.651 L2243.27 434.651 Q2247.89 426.699 2250.14 418.852 Q2252.43 410.97 2252.43 402.949 Q2252.43 394.929 2250.14 387.116 Q2247.89 379.304 2243.27 371.318 Z" fill="#000000" fill-rule="evenodd" fill-opacity="1" /></svg>
