<?xml version="1.0" encoding="utf-8"?>
<svg xmlns="http://www.w3.org/2000/svg" xmlns:xlink="http://www.w3.org/1999/xlink" width="600" height="400" viewBox="0 0 2400 1600">
<defs>
  <clipPath id="clip710">
    <rect x="0" y="0" width="2400" height="1600"/>
  </clipPath>
</defs>
<path clip-path="url(#clip710)" d="
M0 1600 L2400 1600 L2400 0 L0 0  Z
  " fill="#ffffff" fill-rule="evenodd" fill-opacity="1"/>
<defs>
  <clipPath id="clip711">
    <rect x="480" y="0" width="1681" height="1600"/>
  </clipPath>
</defs>
<path clip-path="url(#clip710)" d="
M314.996 1401.58 L2352.76 1401.58 L2352.76 123.472 L314.996 123.472  Z
  " fill="#ffffff" fill-rule="evenodd" fill-opacity="1"/>
<defs>
  <clipPath id="clip712">
    <rect x="314" y="123" width="2039" height="1279"/>
  </clipPath>
</defs>
<polyline clip-path="url(#clip712)" style="stroke:#000000; stroke-linecap:round; stroke-linejoin:round; stroke-width:2; stroke-opacity:0.1; fill:none" points="
  372.668,1401.58 372.668,123.472 
  "/>
<polyline clip-path="url(#clip712)" style="stroke:#000000; stroke-linecap:round; stroke-linejoin:round; stroke-width:2; stroke-opacity:0.1; fill:none" points="
  853.272,1401.58 853.272,123.472 
  "/>
<polyline clip-path="url(#clip712)" style="stroke:#000000; stroke-linecap:round; stroke-linejoin:round; stroke-width:2; stroke-opacity:0.1; fill:none" points="
  1333.88,1401.58 1333.88,123.472 
  "/>
<polyline clip-path="url(#clip712)" style="stroke:#000000; stroke-linecap:round; stroke-linejoin:round; stroke-width:2; stroke-opacity:0.1; fill:none" points="
  1814.48,1401.58 1814.48,123.472 
  "/>
<polyline clip-path="url(#clip712)" style="stroke:#000000; stroke-linecap:round; stroke-linejoin:round; stroke-width:2; stroke-opacity:0.1; fill:none" points="
  2295.08,1401.58 2295.08,123.472 
  "/>
<polyline clip-path="url(#clip710)" style="stroke:#000000; stroke-linecap:round; stroke-linejoin:round; stroke-width:4; stroke-opacity:1; fill:none" points="
  314.996,1401.58 2352.76,1401.58 
  "/>
<polyline clip-path="url(#clip710)" style="stroke:#000000; stroke-linecap:round; stroke-linejoin:round; stroke-width:4; stroke-opacity:1; fill:none" points="
  372.668,1401.58 372.668,1382.68 
  "/>
<polyline clip-path="url(#clip710)" style="stroke:#000000; stroke-linecap:round; stroke-linejoin:round; stroke-width:4; stroke-opacity:1; fill:none" points="
  853.272,1401.58 853.272,1382.68 
  "/>
<polyline clip-path="url(#clip710)" style="stroke:#000000; stroke-linecap:round; stroke-linejoin:round; stroke-width:4; stroke-opacity:1; fill:none" points="
  1333.88,1401.58 1333.88,1382.68 
  "/>
<polyline clip-path="url(#clip710)" style="stroke:#000000; stroke-linecap:round; stroke-linejoin:round; stroke-width:4; stroke-opacity:1; fill:none" points="
  1814.48,1401.58 1814.48,1382.68 
  "/>
<polyline clip-path="url(#clip710)" style="stroke:#000000; stroke-linecap:round; stroke-linejoin:round; stroke-width:4; stroke-opacity:1; fill:none" points="
  2295.08,1401.58 2295.08,1382.68 
  "/>
<path clip-path="url(#clip710)" d="M372.668 1438.36 Q367.252 1438.36 364.509 1443.71 Q361.8 1449.02 361.8 1459.71 Q361.8 1470.37 364.509 1475.72 Q367.252 1481.03 372.668 1481.03 Q378.12 1481.03 380.828 1475.72 Q383.571 1470.37 383.571 1459.71 Q383.571 1449.02 380.828 1443.71 Q378.12 1438.36 372.668 1438.36 M372.668 1432.8 Q381.384 1432.8 385.967 1439.71 Q390.585 1446.59 390.585 1459.71 Q390.585 1472.8 385.967 1479.71 Q381.384 1486.59 372.668 1486.59 Q363.953 1486.59 359.335 1479.71 Q354.752 1472.8 354.752 1459.71 Q354.752 1446.59 359.335 1439.71 Q363.953 1432.8 372.668 1432.8 Z" fill="#000000" fill-rule="evenodd" fill-opacity="1" /><path clip-path="url(#clip710)" d="M838.845 1479.68 L850.303 1479.68 L850.303 1440.13 L837.838 1442.63 L837.838 1436.24 L850.234 1433.74 L857.248 1433.74 L857.248 1479.68 L868.706 1479.68 L868.706 1485.58 L838.845 1485.58 L838.845 1479.68 Z" fill="#000000" fill-rule="evenodd" fill-opacity="1" /><path clip-path="url(#clip710)" d="M1325.86 1479.68 L1350.33 1479.68 L1350.33 1485.58 L1317.42 1485.58 L1317.42 1479.68 Q1321.41 1475.55 1328.29 1468.6 Q1335.2 1461.62 1336.97 1459.61 Q1340.33 1455.82 1341.65 1453.22 Q1343.01 1450.58 1343.01 1448.05 Q1343.01 1443.91 1340.09 1441.31 Q1337.21 1438.71 1332.56 1438.71 Q1329.26 1438.71 1325.58 1439.85 Q1321.93 1441 1317.76 1443.32 L1317.76 1436.24 Q1322 1434.54 1325.68 1433.67 Q1329.36 1432.8 1332.42 1432.8 Q1340.47 1432.8 1345.26 1436.83 Q1350.06 1440.86 1350.06 1447.59 Q1350.06 1450.79 1348.84 1453.67 Q1347.66 1456.52 1344.5 1460.41 Q1343.63 1461.41 1338.98 1466.24 Q1334.33 1471.03 1325.86 1479.68 Z" fill="#000000" fill-rule="evenodd" fill-opacity="1" /><path clip-path="url(#clip710)" d="M1820.85 1457.63 Q1825.89 1458.7 1828.7 1462.11 Q1831.55 1465.51 1831.55 1470.51 Q1831.55 1478.18 1826.27 1482.39 Q1820.99 1486.59 1811.27 1486.59 Q1808 1486.59 1804.53 1485.93 Q1801.09 1485.3 1797.41 1484.02 L1797.41 1477.25 Q1800.33 1478.95 1803.8 1479.82 Q1807.27 1480.68 1811.06 1480.68 Q1817.66 1480.68 1821.09 1478.08 Q1824.57 1475.48 1824.57 1470.51 Q1824.57 1465.93 1821.34 1463.36 Q1818.14 1460.75 1812.41 1460.75 L1806.37 1460.75 L1806.37 1454.99 L1812.69 1454.99 Q1817.87 1454.99 1820.61 1452.94 Q1823.35 1450.86 1823.35 1446.97 Q1823.35 1442.98 1820.5 1440.86 Q1817.69 1438.71 1812.41 1438.71 Q1809.53 1438.71 1806.23 1439.33 Q1802.93 1439.96 1798.98 1441.27 L1798.98 1435.02 Q1802.97 1433.91 1806.44 1433.36 Q1809.95 1432.8 1813.04 1432.8 Q1821.02 1432.8 1825.68 1436.45 Q1830.33 1440.06 1830.33 1446.24 Q1830.33 1450.55 1827.87 1453.53 Q1825.4 1456.48 1820.85 1457.63 Z" fill="#000000" fill-rule="evenodd" fill-opacity="1" /><path clip-path="url(#clip710)" d="M2299.6 1439.85 L2281.89 1467.52 L2299.6 1467.52 L2299.6 1439.85 M2297.76 1433.74 L2306.58 1433.74 L2306.58 1467.52 L2313.97 1467.52 L2313.97 1473.36 L2306.58 1473.36 L2306.58 1485.58 L2299.6 1485.58 L2299.6 1473.36 L2276.19 1473.36 L2276.19 1466.59 L2297.76 1433.74 Z" fill="#000000" fill-rule="evenodd" fill-opacity="1" /><path clip-path="url(#clip710)" d="M1277.49 1527.62 L1277.49 1538.66 L1290.65 1538.66 L1290.65 1543.62 L1277.49 1543.62 L1277.49 1564.74 Q1277.49 1569.49 1278.77 1570.85 Q1280.09 1572.2 1284.08 1572.2 L1290.65 1572.2 L1290.65 1577.55 L1284.08 1577.55 Q1276.69 1577.55 1273.88 1574.8 Q1271.06 1572.03 1271.06 1564.74 L1271.06 1543.62 L1266.38 1543.62 L1266.38 1538.66 L1271.06 1538.66 L1271.06 1527.62 L1277.49 1527.62 Z" fill="#000000" fill-rule="evenodd" fill-opacity="1" /><path clip-path="url(#clip710)" d="M1321.06 1523.52 L1335.79 1523.52 L1335.79 1528.49 L1327.45 1528.49 L1327.45 1581.96 L1335.79 1581.96 L1335.79 1586.92 L1321.06 1586.92 L1321.06 1523.52 Z" fill="#000000" fill-rule="evenodd" fill-opacity="1" /><path clip-path="url(#clip710)" d="M1374.19 1539.8 L1374.19 1545.85 Q1371.48 1544.46 1368.56 1543.76 Q1365.65 1543.07 1362.52 1543.07 Q1357.76 1543.07 1355.37 1544.53 Q1353.01 1545.99 1353.01 1548.9 Q1353.01 1551.12 1354.71 1552.41 Q1356.41 1553.66 1361.55 1554.8 L1363.74 1555.29 Q1370.54 1556.75 1373.39 1559.42 Q1376.27 1562.06 1376.27 1566.82 Q1376.27 1572.24 1371.97 1575.4 Q1367.7 1578.55 1360.2 1578.55 Q1357.07 1578.55 1353.67 1577.93 Q1350.3 1577.34 1346.55 1576.12 L1346.55 1569.53 Q1350.09 1571.37 1353.53 1572.3 Q1356.97 1573.21 1360.33 1573.21 Q1364.85 1573.21 1367.28 1571.68 Q1369.71 1570.12 1369.71 1567.3 Q1369.71 1564.7 1367.94 1563.31 Q1366.2 1561.92 1360.26 1560.64 L1358.04 1560.12 Q1352.11 1558.87 1349.47 1556.3 Q1346.83 1553.69 1346.83 1549.18 Q1346.83 1543.69 1350.72 1540.71 Q1354.6 1537.72 1361.76 1537.72 Q1365.3 1537.72 1368.42 1538.24 Q1371.55 1538.76 1374.19 1539.8 Z" fill="#000000" fill-rule="evenodd" fill-opacity="1" /><path clip-path="url(#clip710)" d="M1401.38 1523.52 L1401.38 1586.92 L1386.65 1586.92 L1386.65 1581.96 L1394.95 1581.96 L1394.95 1528.49 L1386.65 1528.49 L1386.65 1523.52 L1401.38 1523.52 Z" fill="#000000" fill-rule="evenodd" fill-opacity="1" /><polyline clip-path="url(#clip712)" style="stroke:#000000; stroke-linecap:round; stroke-linejoin:round; stroke-width:2; stroke-opacity:0.1; fill:none" points="
  314.996,1352.36 2352.76,1352.36 
  "/>
<polyline clip-path="url(#clip712)" style="stroke:#000000; stroke-linecap:round; stroke-linejoin:round; stroke-width:2; stroke-opacity:0.1; fill:none" points="
  314.996,1155.77 2352.76,1155.77 
  "/>
<polyline clip-path="url(#clip712)" style="stroke:#000000; stroke-linecap:round; stroke-linejoin:round; stroke-width:2; stroke-opacity:0.1; fill:none" points="
  314.996,959.189 2352.76,959.189 
  "/>
<polyline clip-path="url(#clip712)" style="stroke:#000000; stroke-linecap:round; stroke-linejoin:round; stroke-width:2; stroke-opacity:0.1; fill:none" points="
  314.996,762.603 2352.76,762.603 
  "/>
<polyline clip-path="url(#clip712)" style="stroke:#000000; stroke-linecap:round; stroke-linejoin:round; stroke-width:2; stroke-opacity:0.1; fill:none" points="
  314.996,566.018 2352.76,566.018 
  "/>
<polyline clip-path="url(#clip712)" style="stroke:#000000; stroke-linecap:round; stroke-linejoin:round; stroke-width:2; stroke-opacity:0.1; fill:none" points="
  314.996,369.433 2352.76,369.433 
  "/>
<polyline clip-path="url(#clip712)" style="stroke:#000000; stroke-linecap:round; stroke-linejoin:round; stroke-width:2; stroke-opacity:0.1; fill:none" points="
  314.996,172.847 2352.76,172.847 
  "/>
<polyline clip-path="url(#clip710)" style="stroke:#000000; stroke-linecap:round; stroke-linejoin:round; stroke-width:4; stroke-opacity:1; fill:none" points="
  314.996,1401.58 314.996,123.472 
  "/>
<polyline clip-path="url(#clip710)" style="stroke:#000000; stroke-linecap:round; stroke-linejoin:round; stroke-width:4; stroke-opacity:1; fill:none" points="
  314.996,1352.36 333.894,1352.36 
  "/>
<polyline clip-path="url(#clip710)" style="stroke:#000000; stroke-linecap:round; stroke-linejoin:round; stroke-width:4; stroke-opacity:1; fill:none" points="
  314.996,1155.77 333.894,1155.77 
  "/>
<polyline clip-path="url(#clip710)" style="stroke:#000000; stroke-linecap:round; stroke-linejoin:round; stroke-width:4; stroke-opacity:1; fill:none" points="
  314.996,959.189 333.894,959.189 
  "/>
<polyline clip-path="url(#clip710)" style="stroke:#000000; stroke-linecap:round; stroke-linejoin:round; stroke-width:4; stroke-opacity:1; fill:none" points="
  314.996,762.603 333.894,762.603 
  "/>
<polyline clip-path="url(#clip710)" style="stroke:#000000; stroke-linecap:round; stroke-linejoin:round; stroke-width:4; stroke-opacity:1; fill:none" points="
  314.996,566.018 333.894,566.018 
  "/>
<polyline clip-path="url(#clip710)" style="stroke:#000000; stroke-linecap:round; stroke-linejoin:round; stroke-width:4; stroke-opacity:1; fill:none" points="
  314.996,369.433 333.894,369.433 
  "/>
<polyline clip-path="url(#clip710)" style="stroke:#000000; stroke-linecap:round; stroke-linejoin:round; stroke-width:4; stroke-opacity:1; fill:none" points="
  314.996,172.847 333.894,172.847 
  "/>
<path clip-path="url(#clip710)" d="M120.073 1353.04 L164.587 1353.04 L164.587 1358.94 L120.073 1358.94 L120.073 1353.04 Z" fill="#000000" fill-rule="evenodd" fill-opacity="1" /><path clip-path="url(#clip710)" d="M180.941 1372.38 L192.399 1372.38 L192.399 1332.83 L179.934 1335.33 L179.934 1328.94 L192.33 1326.44 L199.344 1326.44 L199.344 1372.38 L210.802 1372.38 L210.802 1378.28 L180.941 1378.28 L180.941 1372.38 Z" fill="#000000" fill-rule="evenodd" fill-opacity="1" /><path clip-path="url(#clip710)" d="M224.968 1369.46 L232.295 1369.46 L232.295 1378.28 L224.968 1378.28 L224.968 1369.46 Z" fill="#000000" fill-rule="evenodd" fill-opacity="1" /><path clip-path="url(#clip710)" d="M247.642 1326.44 L275.177 1326.44 L275.177 1332.34 L254.066 1332.34 L254.066 1345.05 Q255.593 1344.53 257.121 1344.29 Q258.649 1344.01 260.177 1344.01 Q268.857 1344.01 273.927 1348.77 Q278.996 1353.52 278.996 1361.65 Q278.996 1370.02 273.788 1374.67 Q268.579 1379.29 259.1 1379.29 Q255.836 1379.29 252.434 1378.73 Q249.066 1378.18 245.454 1377.06 L245.454 1370.02 Q248.579 1371.72 251.913 1372.55 Q255.246 1373.38 258.961 1373.38 Q264.968 1373.38 268.475 1370.22 Q271.982 1367.06 271.982 1361.65 Q271.982 1356.23 268.475 1353.07 Q264.968 1349.91 258.961 1349.91 Q256.149 1349.91 253.336 1350.54 Q250.559 1351.16 247.642 1352.48 L247.642 1326.44 Z" fill="#000000" fill-rule="evenodd" fill-opacity="1" /><path clip-path="url(#clip710)" d="M118.58 1156.45 L163.094 1156.45 L163.094 1162.35 L118.58 1162.35 L118.58 1156.45 Z" fill="#000000" fill-rule="evenodd" fill-opacity="1" /><path clip-path="url(#clip710)" d="M179.448 1175.79 L190.906 1175.79 L190.906 1136.24 L178.441 1138.74 L178.441 1132.35 L190.837 1129.85 L197.851 1129.85 L197.851 1175.79 L209.309 1175.79 L209.309 1181.69 L179.448 1181.69 L179.448 1175.79 Z" fill="#000000" fill-rule="evenodd" fill-opacity="1" /><path clip-path="url(#clip710)" d="M223.475 1172.87 L230.802 1172.87 L230.802 1181.69 L223.475 1181.69 L223.475 1172.87 Z" fill="#000000" fill-rule="evenodd" fill-opacity="1" /><path clip-path="url(#clip710)" d="M261.079 1134.47 Q255.663 1134.47 252.92 1139.82 Q250.211 1145.13 250.211 1155.83 Q250.211 1166.49 252.92 1171.83 Q255.663 1177.15 261.079 1177.15 Q266.531 1177.15 269.239 1171.83 Q271.982 1166.49 271.982 1155.83 Q271.982 1145.13 269.239 1139.82 Q266.531 1134.47 261.079 1134.47 M261.079 1128.92 Q269.795 1128.92 274.378 1135.83 Q278.996 1142.7 278.996 1155.83 Q278.996 1168.92 274.378 1175.83 Q269.795 1182.7 261.079 1182.7 Q252.364 1182.7 247.746 1175.83 Q243.163 1168.92 243.163 1155.83 Q243.163 1142.7 247.746 1135.83 Q252.364 1128.92 261.079 1128.92 Z" fill="#000000" fill-rule="evenodd" fill-opacity="1" /><path clip-path="url(#clip710)" d="M120.073 959.866 L164.587 959.866 L164.587 965.769 L120.073 965.769 L120.073 959.866 Z" fill="#000000" fill-rule="evenodd" fill-opacity="1" /><path clip-path="url(#clip710)" d="M194.726 937.887 Q189.309 937.887 186.566 943.234 Q183.858 948.547 183.858 959.241 Q183.858 969.901 186.566 975.248 Q189.309 980.56 194.726 980.56 Q200.177 980.56 202.885 975.248 Q205.628 969.901 205.628 959.241 Q205.628 948.547 202.885 943.234 Q200.177 937.887 194.726 937.887 M194.726 932.331 Q203.441 932.331 208.024 939.241 Q212.642 946.116 212.642 959.241 Q212.642 972.331 208.024 979.241 Q203.441 986.116 194.726 986.116 Q186.01 986.116 181.392 979.241 Q176.809 972.331 176.809 959.241 Q176.809 946.116 181.392 939.241 Q186.01 932.331 194.726 932.331 Z" fill="#000000" fill-rule="evenodd" fill-opacity="1" /><path clip-path="url(#clip710)" d="M224.968 976.289 L232.295 976.289 L232.295 985.109 L224.968 985.109 L224.968 976.289 Z" fill="#000000" fill-rule="evenodd" fill-opacity="1" /><path clip-path="url(#clip710)" d="M247.642 933.269 L275.177 933.269 L275.177 939.172 L254.066 939.172 L254.066 951.88 Q255.593 951.359 257.121 951.116 Q258.649 950.838 260.177 950.838 Q268.857 950.838 273.927 955.595 Q278.996 960.352 278.996 968.477 Q278.996 976.845 273.788 981.498 Q268.579 986.116 259.1 986.116 Q255.836 986.116 252.434 985.56 Q249.066 985.005 245.454 983.894 L245.454 976.845 Q248.579 978.546 251.913 979.38 Q255.246 980.213 258.961 980.213 Q264.968 980.213 268.475 977.053 Q271.982 973.894 271.982 968.477 Q271.982 963.06 268.475 959.901 Q264.968 956.741 258.961 956.741 Q256.149 956.741 253.336 957.366 Q250.559 957.991 247.642 959.31 L247.642 933.269 Z" fill="#000000" fill-rule="evenodd" fill-opacity="1" /><path clip-path="url(#clip710)" d="M193.233 741.301 Q187.816 741.301 185.073 746.649 Q182.365 751.961 182.365 762.656 Q182.365 773.315 185.073 778.662 Q187.816 783.975 193.233 783.975 Q198.684 783.975 201.392 778.662 Q204.135 773.315 204.135 762.656 Q204.135 751.961 201.392 746.649 Q198.684 741.301 193.233 741.301 M193.233 735.746 Q201.948 735.746 206.531 742.656 Q211.149 749.531 211.149 762.656 Q211.149 775.746 206.531 782.655 Q201.948 789.53 193.233 789.53 Q184.517 789.53 179.899 782.655 Q175.316 775.746 175.316 762.656 Q175.316 749.531 179.899 742.656 Q184.517 735.746 193.233 735.746 Z" fill="#000000" fill-rule="evenodd" fill-opacity="1" /><path clip-path="url(#clip710)" d="M223.475 779.704 L230.802 779.704 L230.802 788.523 L223.475 788.523 L223.475 779.704 Z" fill="#000000" fill-rule="evenodd" fill-opacity="1" /><path clip-path="url(#clip710)" d="M261.079 741.301 Q255.663 741.301 252.92 746.649 Q250.211 751.961 250.211 762.656 Q250.211 773.315 252.92 778.662 Q255.663 783.975 261.079 783.975 Q266.531 783.975 269.239 778.662 Q271.982 773.315 271.982 762.656 Q271.982 751.961 269.239 746.649 Q266.531 741.301 261.079 741.301 M261.079 735.746 Q269.795 735.746 274.378 742.656 Q278.996 749.531 278.996 762.656 Q278.996 775.746 274.378 782.655 Q269.795 789.53 261.079 789.53 Q252.364 789.53 247.746 782.655 Q243.163 775.746 243.163 762.656 Q243.163 749.531 247.746 742.656 Q252.364 735.746 261.079 735.746 Z" fill="#000000" fill-rule="evenodd" fill-opacity="1" /><path clip-path="url(#clip710)" d="M194.726 544.716 Q189.309 544.716 186.566 550.063 Q183.858 555.376 183.858 566.07 Q183.858 576.73 186.566 582.077 Q189.309 587.389 194.726 587.389 Q200.177 587.389 202.885 582.077 Q205.628 576.73 205.628 566.07 Q205.628 555.376 202.885 550.063 Q200.177 544.716 194.726 544.716 M194.726 539.161 Q203.441 539.161 208.024 546.07 Q212.642 552.945 212.642 566.07 Q212.642 579.16 208.024 586.07 Q203.441 592.945 194.726 592.945 Q186.01 592.945 181.392 586.07 Q176.809 579.16 176.809 566.07 Q176.809 552.945 181.392 546.07 Q186.01 539.161 194.726 539.161 Z" fill="#000000" fill-rule="evenodd" fill-opacity="1" /><path clip-path="url(#clip710)" d="M224.968 583.119 L232.295 583.119 L232.295 591.938 L224.968 591.938 L224.968 583.119 Z" fill="#000000" fill-rule="evenodd" fill-opacity="1" /><path clip-path="url(#clip710)" d="M247.642 540.098 L275.177 540.098 L275.177 546.001 L254.066 546.001 L254.066 558.709 Q255.593 558.188 257.121 557.945 Q258.649 557.667 260.177 557.667 Q268.857 557.667 273.927 562.424 Q278.996 567.181 278.996 575.306 Q278.996 583.674 273.788 588.327 Q268.579 592.945 259.1 592.945 Q255.836 592.945 252.434 592.389 Q249.066 591.834 245.454 590.723 L245.454 583.674 Q248.579 585.376 251.913 586.209 Q255.246 587.042 258.961 587.042 Q264.968 587.042 268.475 583.883 Q271.982 580.723 271.982 575.306 Q271.982 569.89 268.475 566.73 Q264.968 563.57 258.961 563.57 Q256.149 563.57 253.336 564.195 Q250.559 564.82 247.642 566.14 L247.642 540.098 Z" fill="#000000" fill-rule="evenodd" fill-opacity="1" /><path clip-path="url(#clip710)" d="M179.448 389.45 L190.906 389.45 L190.906 349.901 L178.441 352.401 L178.441 346.013 L190.837 343.513 L197.851 343.513 L197.851 389.45 L209.309 389.45 L209.309 395.353 L179.448 395.353 L179.448 389.45 Z" fill="#000000" fill-rule="evenodd" fill-opacity="1" /><path clip-path="url(#clip710)" d="M223.475 386.533 L230.802 386.533 L230.802 395.353 L223.475 395.353 L223.475 386.533 Z" fill="#000000" fill-rule="evenodd" fill-opacity="1" /><path clip-path="url(#clip710)" d="M261.079 348.131 Q255.663 348.131 252.92 353.478 Q250.211 358.79 250.211 369.485 Q250.211 380.144 252.92 385.492 Q255.663 390.804 261.079 390.804 Q266.531 390.804 269.239 385.492 Q271.982 380.144 271.982 369.485 Q271.982 358.79 269.239 353.478 Q266.531 348.131 261.079 348.131 M261.079 342.575 Q269.795 342.575 274.378 349.485 Q278.996 356.36 278.996 369.485 Q278.996 382.575 274.378 389.485 Q269.795 396.36 261.079 396.36 Q252.364 396.36 247.746 389.485 Q243.163 382.575 243.163 369.485 Q243.163 356.36 247.746 349.485 Q252.364 342.575 261.079 342.575 Z" fill="#000000" fill-rule="evenodd" fill-opacity="1" /><path clip-path="url(#clip710)" d="M180.941 192.864 L192.399 192.864 L192.399 153.316 L179.934 155.816 L179.934 149.427 L192.33 146.927 L199.344 146.927 L199.344 192.864 L210.802 192.864 L210.802 198.767 L180.941 198.767 L180.941 192.864 Z" fill="#000000" fill-rule="evenodd" fill-opacity="1" /><path clip-path="url(#clip710)" d="M224.968 189.948 L232.295 189.948 L232.295 198.767 L224.968 198.767 L224.968 189.948 Z" fill="#000000" fill-rule="evenodd" fill-opacity="1" /><path clip-path="url(#clip710)" d="M247.642 146.927 L275.177 146.927 L275.177 152.83 L254.066 152.83 L254.066 165.538 Q255.593 165.017 257.121 164.774 Q258.649 164.497 260.177 164.497 Q268.857 164.497 273.927 169.254 Q278.996 174.01 278.996 182.135 Q278.996 190.503 273.788 195.156 Q268.579 199.774 259.1 199.774 Q255.836 199.774 252.434 199.219 Q249.066 198.663 245.454 197.552 L245.454 190.503 Q248.579 192.205 251.913 193.038 Q255.246 193.871 258.961 193.871 Q264.968 193.871 268.475 190.712 Q271.982 187.552 271.982 182.135 Q271.982 176.719 268.475 173.559 Q264.968 170.399 258.961 170.399 Q256.149 170.399 253.336 171.024 Q250.559 171.649 247.642 172.969 L247.642 146.927 Z" fill="#000000" fill-rule="evenodd" fill-opacity="1" /><path clip-path="url(#clip710)" d="M35.6047 1073.64 Q31.2992 1071.24 29.2506 1067.91 Q27.202 1064.57 27.202 1060.06 Q27.202 1053.98 31.4728 1050.68 Q35.7089 1047.39 43.5561 1047.39 L67.0282 1047.39 L67.0282 1053.81 L43.7644 1053.81 Q38.1741 1053.81 35.4658 1055.79 Q32.7575 1057.77 32.7575 1061.83 Q32.7575 1066.8 36.0561 1069.68 Q39.3547 1072.56 45.0491 1072.56 L67.0282 1072.56 L67.0282 1078.98 L43.7644 1078.98 Q38.1394 1078.98 35.4658 1080.96 Q32.7575 1082.94 32.7575 1087.07 Q32.7575 1091.97 36.0908 1094.85 Q39.3894 1097.73 45.0491 1097.73 L67.0282 1097.73 L67.0282 1104.16 L28.1395 1104.16 L28.1395 1097.73 L34.1811 1097.73 Q30.6047 1095.55 28.9034 1092.49 Q27.202 1089.43 27.202 1085.23 Q27.202 1081 29.3547 1078.05 Q31.5075 1075.06 35.6047 1073.64 Z" fill="#000000" fill-rule="evenodd" fill-opacity="1" /><path clip-path="url(#clip710)" d="M47.4797 1016.97 Q47.4797 1024.71 49.2505 1027.7 Q51.0213 1030.68 55.2921 1030.68 Q58.6949 1030.68 60.7087 1028.46 Q62.6879 1026.21 62.6879 1022.35 Q62.6879 1017.04 58.9379 1013.84 Q55.1532 1010.61 48.9033 1010.61 L47.4797 1010.61 L47.4797 1016.97 M44.8408 1004.23 L67.0282 1004.23 L67.0282 1010.61 L61.1254 1010.61 Q64.6671 1012.8 66.3684 1016.07 Q68.0351 1019.33 68.0351 1024.05 Q68.0351 1030.02 64.7018 1033.57 Q61.3337 1037.07 55.7088 1037.07 Q49.1463 1037.07 45.813 1032.7 Q42.4797 1028.29 42.4797 1019.57 L42.4797 1010.61 L41.8547 1010.61 Q37.445 1010.61 35.0492 1013.53 Q32.6186 1016.41 32.6186 1021.66 Q32.6186 1024.99 33.4172 1028.15 Q34.2158 1031.31 35.813 1034.23 L29.9103 1034.23 Q28.5561 1030.72 27.8964 1027.42 Q27.202 1024.12 27.202 1021 Q27.202 1012.56 31.577 1008.39 Q35.9519 1004.23 44.8408 1004.23 Z" fill="#000000" fill-rule="evenodd" fill-opacity="1" /><path clip-path="url(#clip710)" d="M29.2853 966.275 L35.3269 966.275 Q33.9381 968.983 33.2436 971.9 Q32.5492 974.817 32.5492 977.941 Q32.5492 982.698 34.0075 985.094 Q35.4658 987.455 38.3825 987.455 Q40.6047 987.455 41.8894 985.754 Q43.1394 984.053 44.2852 978.914 L44.7713 976.726 Q46.2297 969.921 48.9033 967.073 Q51.5421 964.192 56.299 964.192 Q61.7157 964.192 64.8754 968.497 Q68.0351 972.768 68.0351 980.268 Q68.0351 983.393 67.4101 986.796 Q66.8198 990.164 65.6046 993.914 L59.0074 993.914 Q60.8476 990.372 61.7851 986.935 Q62.6879 983.497 62.6879 980.129 Q62.6879 975.615 61.1601 973.185 Q59.5976 970.754 56.7852 970.754 Q54.181 970.754 52.7921 972.525 Q51.4032 974.261 50.1185 980.198 L49.5977 982.421 Q48.3477 988.358 45.7783 990.997 Q43.1741 993.636 38.6603 993.636 Q33.1742 993.636 30.1881 989.747 Q27.202 985.858 27.202 978.705 Q27.202 975.164 27.7228 972.039 Q28.2436 968.914 29.2853 966.275 Z" fill="#000000" fill-rule="evenodd" fill-opacity="1" /><path clip-path="url(#clip710)" d="M29.2853 929.226 L35.3269 929.226 Q33.9381 931.935 33.2436 934.851 Q32.5492 937.768 32.5492 940.893 Q32.5492 945.65 34.0075 948.046 Q35.4658 950.407 38.3825 950.407 Q40.6047 950.407 41.8894 948.706 Q43.1394 947.004 44.2852 941.865 L44.7713 939.678 Q46.2297 932.872 48.9033 930.025 Q51.5421 927.143 56.299 927.143 Q61.7157 927.143 64.8754 931.449 Q68.0351 935.72 68.0351 943.219 Q68.0351 946.344 67.4101 949.747 Q66.8198 953.115 65.6046 956.865 L59.0074 956.865 Q60.8476 953.324 61.7851 949.886 Q62.6879 946.449 62.6879 943.081 Q62.6879 938.567 61.1601 936.136 Q59.5976 933.706 56.7852 933.706 Q54.181 933.706 52.7921 935.476 Q51.4032 937.213 50.1185 943.15 L49.5977 945.372 Q48.3477 951.31 45.7783 953.949 Q43.1741 956.587 38.6603 956.587 Q33.1742 956.587 30.1881 952.699 Q27.202 948.81 27.202 941.657 Q27.202 938.115 27.7228 934.99 Q28.2436 931.865 29.2853 929.226 Z" fill="#000000" fill-rule="evenodd" fill-opacity="1" /><path clip-path="url(#clip710)" d="M28.1395 898.949 L28.1395 892.178 L60.7782 880.025 L28.1395 867.873 L28.1395 861.102 L67.0282 875.685 L67.0282 884.366 L28.1395 898.949 Z" fill="#000000" fill-rule="evenodd" fill-opacity="1" /><path clip-path="url(#clip710)" d="M45.9866 819.019 L49.1116 819.019 L49.1116 848.394 Q55.7088 847.977 59.181 844.435 Q62.6185 840.859 62.6185 834.505 Q62.6185 830.824 61.7157 827.387 Q60.8129 823.915 59.0074 820.512 L65.049 820.512 Q66.5073 823.949 67.2712 827.56 Q68.0351 831.171 68.0351 834.887 Q68.0351 844.192 62.6185 849.644 Q57.2018 855.06 47.9658 855.06 Q38.4172 855.06 32.827 849.921 Q27.202 844.748 27.202 835.998 Q27.202 828.151 32.2714 823.602 Q37.3061 819.019 45.9866 819.019 M44.1116 825.408 Q38.8686 825.477 35.7436 828.359 Q32.6186 831.206 32.6186 835.928 Q32.6186 841.276 35.6394 844.505 Q38.6603 847.699 44.1463 848.185 L44.1116 825.408 Z" fill="#000000" fill-rule="evenodd" fill-opacity="1" /><path clip-path="url(#clip710)" d="M13.0007 808.533 L13.0007 802.144 L67.0282 802.144 L67.0282 808.533 L13.0007 808.533 Z" fill="#000000" fill-rule="evenodd" fill-opacity="1" /><path clip-path="url(#clip710)" d="M32.6186 773.706 Q32.6186 778.845 36.6464 781.831 Q40.6394 784.818 47.6185 784.818 Q54.5977 784.818 58.6254 781.866 Q62.6185 778.88 62.6185 773.706 Q62.6185 768.602 58.5907 765.616 Q54.5629 762.63 47.6185 762.63 Q40.7089 762.63 36.6811 765.616 Q32.6186 768.602 32.6186 773.706 M27.202 773.706 Q27.202 765.373 32.6186 760.616 Q38.0353 755.859 47.6185 755.859 Q57.1671 755.859 62.6185 760.616 Q68.0351 765.373 68.0351 773.706 Q68.0351 782.074 62.6185 786.831 Q57.1671 791.554 47.6185 791.554 Q38.0353 791.554 32.6186 786.831 Q27.202 782.074 27.202 773.706 Z" fill="#000000" fill-rule="evenodd" fill-opacity="1" /><path clip-path="url(#clip710)" d="M29.6325 717.283 L35.6047 717.283 Q34.1117 719.991 33.3825 722.735 Q32.6186 725.443 32.6186 728.221 Q32.6186 734.436 36.5769 737.873 Q40.5005 741.311 47.6185 741.311 Q54.7366 741.311 58.6949 737.873 Q62.6185 734.436 62.6185 728.221 Q62.6185 725.443 61.8893 722.735 Q61.1254 719.991 59.6324 717.283 L65.5351 717.283 Q66.7851 719.957 67.4101 722.839 Q68.0351 725.686 68.0351 728.915 Q68.0351 737.7 62.5143 742.873 Q56.9935 748.047 47.6185 748.047 Q38.1047 748.047 32.6533 742.839 Q27.202 737.596 27.202 728.498 Q27.202 725.547 27.827 722.735 Q28.4173 719.922 29.6325 717.283 Z" fill="#000000" fill-rule="evenodd" fill-opacity="1" /><path clip-path="url(#clip710)" d="M28.1395 706.172 L28.1395 699.783 L67.0282 699.783 L67.0282 706.172 L28.1395 706.172 M13.0007 706.172 L13.0007 699.783 L21.0909 699.783 L21.0909 706.172 L13.0007 706.172 Z" fill="#000000" fill-rule="evenodd" fill-opacity="1" /><path clip-path="url(#clip710)" d="M17.0979 680.096 L28.1395 680.096 L28.1395 666.936 L33.1047 666.936 L33.1047 680.096 L54.2157 680.096 Q58.9726 680.096 60.3268 678.811 Q61.681 677.492 61.681 673.499 L61.681 666.936 L67.0282 666.936 L67.0282 673.499 Q67.0282 680.894 64.2851 683.707 Q61.5074 686.519 54.2157 686.519 L33.1047 686.519 L33.1047 691.207 L28.1395 691.207 L28.1395 686.519 L17.0979 686.519 L17.0979 680.096 Z" fill="#000000" fill-rule="evenodd" fill-opacity="1" /><path clip-path="url(#clip710)" d="M70.6392 642.353 Q77.5837 645.061 79.7017 647.631 Q81.8197 650.2 81.8197 654.506 L81.8197 659.61 L76.4726 659.61 L76.4726 655.86 Q76.4726 653.221 75.2226 651.763 Q73.9726 650.304 69.3198 648.534 L66.4032 647.388 L28.1395 663.117 L28.1395 656.346 L58.556 644.193 L28.1395 632.041 L28.1395 625.27 L70.6392 642.353 Z" fill="#000000" fill-rule="evenodd" fill-opacity="1" /><path clip-path="url(#clip710)" d="M13.0007 594.437 L13.0007 579.714 L17.9659 579.714 L17.9659 588.048 L71.4379 588.048 L71.4379 579.714 L76.4031 579.714 L76.4031 594.437 L13.0007 594.437 Z" fill="#000000" fill-rule="evenodd" fill-opacity="1" /><path clip-path="url(#clip710)" d="M35.6047 535.826 Q31.2992 533.43 29.2506 530.097 Q27.202 526.763 27.202 522.249 Q27.202 516.173 31.4728 512.875 Q35.7089 509.576 43.5561 509.576 L67.0282 509.576 L67.0282 516 L43.7644 516 Q38.1741 516 35.4658 517.979 Q32.7575 519.958 32.7575 524.02 Q32.7575 528.986 36.0561 531.867 Q39.3547 534.749 45.0491 534.749 L67.0282 534.749 L67.0282 541.173 L43.7644 541.173 Q38.1394 541.173 35.4658 543.152 Q32.7575 545.131 32.7575 549.263 Q32.7575 554.159 36.0908 557.041 Q39.3894 559.923 45.0491 559.923 L67.0282 559.923 L67.0282 566.346 L28.1395 566.346 L28.1395 559.923 L34.1811 559.923 Q30.6047 557.735 28.9034 554.68 Q27.202 551.624 27.202 547.423 Q27.202 543.187 29.3547 540.236 Q31.5075 537.249 35.6047 535.826 Z" fill="#000000" fill-rule="evenodd" fill-opacity="1" /><path clip-path="url(#clip710)" d="M15.1882 485.479 L15.1882 479.576 L73.6253 497.632 L73.6253 503.534 L15.1882 485.479 Z" fill="#000000" fill-rule="evenodd" fill-opacity="1" /><path clip-path="url(#clip710)" d="M29.2853 448.083 L35.3269 448.083 Q33.9381 450.792 33.2436 453.708 Q32.5492 456.625 32.5492 459.75 Q32.5492 464.507 34.0075 466.903 Q35.4658 469.264 38.3825 469.264 Q40.6047 469.264 41.8894 467.562 Q43.1394 465.861 44.2852 460.722 L44.7713 458.535 Q46.2297 451.729 48.9033 448.882 Q51.5421 446 56.299 446 Q61.7157 446 64.8754 450.305 Q68.0351 454.576 68.0351 462.076 Q68.0351 465.201 67.4101 468.604 Q66.8198 471.972 65.6046 475.722 L59.0074 475.722 Q60.8476 472.18 61.7851 468.743 Q62.6879 465.305 62.6879 461.937 Q62.6879 457.423 61.1601 454.993 Q59.5976 452.562 56.7852 452.562 Q54.181 452.562 52.7921 454.333 Q51.4032 456.069 50.1185 462.007 L49.5977 464.229 Q48.3477 470.166 45.7783 472.805 Q43.1741 475.444 38.6603 475.444 Q33.1742 475.444 30.1881 471.555 Q27.202 467.666 27.202 460.514 Q27.202 456.972 27.7228 453.847 Q28.2436 450.722 29.2853 448.083 Z" fill="#000000" fill-rule="evenodd" fill-opacity="1" /><path clip-path="url(#clip710)" d="M13.0007 420.896 L76.4031 420.896 L76.4031 435.618 L71.4379 435.618 L71.4379 427.319 L17.9659 427.319 L17.9659 435.618 L13.0007 435.618 L13.0007 420.896 Z" fill="#000000" fill-rule="evenodd" fill-opacity="1" /><path clip-path="url(#clip710)" d="M600.277 12.096 L612.471 12.096 L627.905 53.2532 L643.42 12.096 L655.613 12.096 L655.613 72.576 L647.633 72.576 L647.633 19.4686 L632.037 60.9499 L623.813 60.9499 L608.217 19.4686 L608.217 72.576 L600.277 72.576 L600.277 12.096 Z" fill="#000000" fill-rule="evenodd" fill-opacity="1" /><path clip-path="url(#clip710)" d="M689.114 32.4315 Q683.118 32.4315 679.635 37.1306 Q676.151 41.7891 676.151 49.9314 Q676.151 58.0738 679.594 62.7728 Q683.078 67.4314 689.114 67.4314 Q695.069 67.4314 698.552 62.7323 Q702.036 58.0333 702.036 49.9314 Q702.036 41.8701 698.552 37.1711 Q695.069 32.4315 689.114 32.4315 M689.114 26.1121 Q698.836 26.1121 704.386 32.4315 Q709.935 38.7509 709.935 49.9314 Q709.935 61.0714 704.386 67.4314 Q698.836 73.7508 689.114 73.7508 Q679.351 73.7508 673.801 67.4314 Q668.292 61.0714 668.292 49.9314 Q668.292 38.7509 673.801 32.4315 Q679.351 26.1121 689.114 26.1121 Z" fill="#000000" fill-rule="evenodd" fill-opacity="1" /><path clip-path="url(#clip710)" d="M752.146 34.0924 L752.146 9.54393 L759.599 9.54393 L759.599 72.576 L752.146 72.576 L752.146 65.7705 Q749.796 69.8214 746.191 71.8063 Q742.626 73.7508 737.603 73.7508 Q729.38 73.7508 724.195 67.1883 Q719.05 60.6258 719.05 49.9314 Q719.05 39.2371 724.195 32.6746 Q729.38 26.1121 737.603 26.1121 Q742.626 26.1121 746.191 28.0971 Q749.796 30.0415 752.146 34.0924 M726.747 49.9314 Q726.747 58.1548 730.109 62.8538 Q733.512 67.5124 739.426 67.5124 Q745.34 67.5124 748.743 62.8538 Q752.146 58.1548 752.146 49.9314 Q752.146 41.7081 748.743 37.0496 Q745.34 32.3505 739.426 32.3505 Q733.512 32.3505 730.109 37.0496 Q726.747 41.7081 726.747 49.9314 Z" fill="#000000" fill-rule="evenodd" fill-opacity="1" /><path clip-path="url(#clip710)" d="M774.952 27.2059 L782.406 27.2059 L782.406 72.576 L774.952 72.576 L774.952 27.2059 M774.952 9.54393 L782.406 9.54393 L782.406 18.9825 L774.952 18.9825 L774.952 9.54393 Z" fill="#000000" fill-rule="evenodd" fill-opacity="1" /><path clip-path="url(#clip710)" d="M820.971 9.54393 L820.971 15.7418 L813.841 15.7418 Q809.831 15.7418 808.251 17.3622 Q806.712 18.9825 806.712 23.1955 L806.712 27.2059 L818.986 27.2059 L818.986 32.9987 L806.712 32.9987 L806.712 72.576 L799.217 72.576 L799.217 32.9987 L792.088 32.9987 L792.088 27.2059 L799.217 27.2059 L799.217 24.0462 Q799.217 16.471 802.742 13.0277 Q806.266 9.54393 813.922 9.54393 L820.971 9.54393 Z" fill="#000000" fill-rule="evenodd" fill-opacity="1" /><path clip-path="url(#clip710)" d="M827.209 27.2059 L834.663 27.2059 L834.663 72.576 L827.209 72.576 L827.209 27.2059 M827.209 9.54393 L834.663 9.54393 L834.663 18.9825 L827.209 18.9825 L827.209 9.54393 Z" fill="#000000" fill-rule="evenodd" fill-opacity="1" /><path clip-path="url(#clip710)" d="M889.066 48.0275 L889.066 51.6733 L854.796 51.6733 Q855.282 59.3701 859.414 63.421 Q863.586 67.4314 870.999 67.4314 Q875.293 67.4314 879.304 66.3781 Q883.355 65.3249 887.325 63.2184 L887.325 70.267 Q883.314 71.9684 879.101 72.8596 Q874.888 73.7508 870.554 73.7508 Q859.697 73.7508 853.337 67.4314 Q847.018 61.1119 847.018 50.3365 Q847.018 39.1965 853.013 32.6746 Q859.049 26.1121 869.257 26.1121 Q878.413 26.1121 883.719 32.0264 Q889.066 37.9003 889.066 48.0275 M881.613 45.84 Q881.532 39.7232 878.169 36.0774 Q874.848 32.4315 869.338 32.4315 Q863.1 32.4315 859.333 35.9558 Q855.606 39.4801 855.039 45.8805 L881.613 45.84 Z" fill="#000000" fill-rule="evenodd" fill-opacity="1" /><path clip-path="url(#clip710)" d="M931.155 34.0924 L931.155 9.54393 L938.609 9.54393 L938.609 72.576 L931.155 72.576 L931.155 65.7705 Q928.806 69.8214 925.2 71.8063 Q921.636 73.7508 916.613 73.7508 Q908.389 73.7508 903.204 67.1883 Q898.059 60.6258 898.059 49.9314 Q898.059 39.2371 903.204 32.6746 Q908.389 26.1121 916.613 26.1121 Q921.636 26.1121 925.2 28.0971 Q928.806 30.0415 931.155 34.0924 M905.756 49.9314 Q905.756 58.1548 909.118 62.8538 Q912.521 67.5124 918.435 67.5124 Q924.35 67.5124 927.753 62.8538 Q931.155 58.1548 931.155 49.9314 Q931.155 41.7081 927.753 37.0496 Q924.35 32.3505 918.435 32.3505 Q912.521 32.3505 909.118 37.0496 Q905.756 41.7081 905.756 49.9314 Z" fill="#000000" fill-rule="evenodd" fill-opacity="1" /><path clip-path="url(#clip710)" d="M955.866 62.2867 L964.413 62.2867 L964.413 72.576 L955.866 72.576 L955.866 62.2867 M955.866 29.6769 L964.413 29.6769 L964.413 39.9662 L955.866 39.9662 L955.866 29.6769 Z" fill="#000000" fill-rule="evenodd" fill-opacity="1" /><path clip-path="url(#clip710)" d="M1008.61 12.096 L1020.8 12.096 L1036.24 53.2532 L1051.75 12.096 L1063.94 12.096 L1063.94 72.576 L1055.96 72.576 L1055.96 19.4686 L1040.37 60.9499 L1032.14 60.9499 L1016.55 19.4686 L1016.55 72.576 L1008.61 72.576 L1008.61 12.096 Z" fill="#000000" fill-rule="evenodd" fill-opacity="1" /><path clip-path="url(#clip710)" d="M1100.48 49.7694 Q1091.45 49.7694 1087.97 51.8354 Q1084.48 53.9013 1084.48 58.8839 Q1084.48 62.8538 1087.07 65.2034 Q1089.71 67.5124 1094.2 67.5124 Q1100.4 67.5124 1104.13 63.1374 Q1107.9 58.7219 1107.9 51.4303 L1107.9 49.7694 L1100.48 49.7694 M1115.35 46.6907 L1115.35 72.576 L1107.9 72.576 L1107.9 65.6895 Q1105.34 69.8214 1101.54 71.8063 Q1097.73 73.7508 1092.22 73.7508 Q1085.25 73.7508 1081.12 69.8619 Q1077.03 65.9325 1077.03 59.3701 Q1077.03 51.7138 1082.13 47.825 Q1087.28 43.9361 1097.44 43.9361 L1107.9 43.9361 L1107.9 43.2069 Q1107.9 38.0623 1104.49 35.2672 Q1101.13 32.4315 1095.01 32.4315 Q1091.13 32.4315 1087.44 33.3632 Q1083.75 34.295 1080.35 36.1584 L1080.35 29.2718 Q1084.44 27.692 1088.29 26.9223 Q1092.14 26.1121 1095.78 26.1121 Q1105.63 26.1121 1110.49 31.2163 Q1115.35 36.3204 1115.35 46.6907 Z" fill="#000000" fill-rule="evenodd" fill-opacity="1" /><path clip-path="url(#clip710)" d="M1159.63 28.5427 L1159.63 35.5912 Q1156.47 33.9709 1153.06 33.1607 Q1149.66 32.3505 1146.02 32.3505 Q1140.47 32.3505 1137.67 34.0519 Q1134.92 35.7533 1134.92 39.156 Q1134.92 41.7486 1136.9 43.2475 Q1138.89 44.7058 1144.88 46.0426 L1147.43 46.6097 Q1155.37 48.3111 1158.69 51.4303 Q1162.06 54.509 1162.06 60.0587 Q1162.06 66.3781 1157.03 70.0644 Q1152.05 73.7508 1143.3 73.7508 Q1139.66 73.7508 1135.69 73.0216 Q1131.76 72.3329 1127.38 70.9151 L1127.38 63.2184 Q1131.51 65.3654 1135.52 66.4591 Q1139.53 67.5124 1143.46 67.5124 Q1148.73 67.5124 1151.56 65.73 Q1154.4 63.9071 1154.4 60.6258 Q1154.4 57.5877 1152.33 55.9673 Q1150.31 54.3469 1143.38 52.8481 L1140.79 52.2405 Q1133.86 50.7821 1130.78 47.7845 Q1127.71 44.7463 1127.71 39.4801 Q1127.71 33.0797 1132.24 29.5959 Q1136.78 26.1121 1145.12 26.1121 Q1149.26 26.1121 1152.9 26.7198 Q1156.55 27.3274 1159.63 28.5427 Z" fill="#000000" fill-rule="evenodd" fill-opacity="1" /><path clip-path="url(#clip710)" d="M1202.85 28.5427 L1202.85 35.5912 Q1199.69 33.9709 1196.29 33.1607 Q1192.88 32.3505 1189.24 32.3505 Q1183.69 32.3505 1180.89 34.0519 Q1178.14 35.7533 1178.14 39.156 Q1178.14 41.7486 1180.12 43.2475 Q1182.11 44.7058 1188.1 46.0426 L1190.66 46.6097 Q1198.6 48.3111 1201.92 51.4303 Q1205.28 54.509 1205.28 60.0587 Q1205.28 66.3781 1200.26 70.0644 Q1195.27 73.7508 1186.52 73.7508 Q1182.88 73.7508 1178.91 73.0216 Q1174.98 72.3329 1170.6 70.9151 L1170.6 63.2184 Q1174.74 65.3654 1178.75 66.4591 Q1182.76 67.5124 1186.69 67.5124 Q1191.95 67.5124 1194.79 65.73 Q1197.62 63.9071 1197.62 60.6258 Q1197.62 57.5877 1195.56 55.9673 Q1193.53 54.3469 1186.61 52.8481 L1184.01 52.2405 Q1177.09 50.7821 1174.01 47.7845 Q1170.93 44.7463 1170.93 39.4801 Q1170.93 33.0797 1175.47 29.5959 Q1180 26.1121 1188.35 26.1121 Q1192.48 26.1121 1196.12 26.7198 Q1199.77 27.3274 1202.85 28.5427 Z" fill="#000000" fill-rule="evenodd" fill-opacity="1" /><path clip-path="url(#clip710)" d="M1238.17 27.2059 L1246.07 27.2059 L1260.25 65.2844 L1274.43 27.2059 L1282.33 27.2059 L1265.31 72.576 L1255.19 72.576 L1238.17 27.2059 Z" fill="#000000" fill-rule="evenodd" fill-opacity="1" /><path clip-path="url(#clip710)" d="M1331.43 48.0275 L1331.43 51.6733 L1297.15 51.6733 Q1297.64 59.3701 1301.77 63.421 Q1305.94 67.4314 1313.36 67.4314 Q1317.65 67.4314 1321.66 66.3781 Q1325.71 65.3249 1329.68 63.2184 L1329.68 70.267 Q1325.67 71.9684 1321.46 72.8596 Q1317.25 73.7508 1312.91 73.7508 Q1302.06 73.7508 1295.7 67.4314 Q1289.38 61.1119 1289.38 50.3365 Q1289.38 39.1965 1295.37 32.6746 Q1301.41 26.1121 1311.62 26.1121 Q1320.77 26.1121 1326.08 32.0264 Q1331.43 37.9003 1331.43 48.0275 M1323.97 45.84 Q1323.89 39.7232 1320.53 36.0774 Q1317.21 32.4315 1311.7 32.4315 Q1305.46 32.4315 1301.69 35.9558 Q1297.96 39.4801 1297.4 45.8805 L1323.97 45.84 Z" fill="#000000" fill-rule="evenodd" fill-opacity="1" /><path clip-path="url(#clip710)" d="M1343.66 9.54393 L1351.11 9.54393 L1351.11 72.576 L1343.66 72.576 L1343.66 9.54393 Z" fill="#000000" fill-rule="evenodd" fill-opacity="1" /><path clip-path="url(#clip710)" d="M1384.29 32.4315 Q1378.29 32.4315 1374.81 37.1306 Q1371.33 41.7891 1371.33 49.9314 Q1371.33 58.0738 1374.77 62.7728 Q1378.25 67.4314 1384.29 67.4314 Q1390.24 67.4314 1393.73 62.7323 Q1397.21 58.0333 1397.21 49.9314 Q1397.21 41.8701 1393.73 37.1711 Q1390.24 32.4315 1384.29 32.4315 M1384.29 26.1121 Q1394.01 26.1121 1399.56 32.4315 Q1405.11 38.7509 1405.11 49.9314 Q1405.11 61.0714 1399.56 67.4314 Q1394.01 73.7508 1384.29 73.7508 Q1374.53 73.7508 1368.98 67.4314 Q1363.47 61.0714 1363.47 49.9314 Q1363.47 38.7509 1368.98 32.4315 Q1374.53 26.1121 1384.29 26.1121 Z" fill="#000000" fill-rule="evenodd" fill-opacity="1" /><path clip-path="url(#clip710)" d="M1450.12 28.9478 L1450.12 35.9153 Q1446.96 34.1734 1443.76 33.3227 Q1440.6 32.4315 1437.36 32.4315 Q1430.11 32.4315 1426.09 37.0496 Q1422.08 41.6271 1422.08 49.9314 Q1422.08 58.2358 1426.09 62.8538 Q1430.11 67.4314 1437.36 67.4314 Q1440.6 67.4314 1443.76 66.5807 Q1446.96 65.6895 1450.12 63.9476 L1450.12 70.8341 Q1447 72.2924 1443.64 73.0216 Q1440.31 73.7508 1436.55 73.7508 Q1426.3 73.7508 1420.26 67.3098 Q1414.23 60.8689 1414.23 49.9314 Q1414.23 38.832 1420.3 32.472 Q1426.42 26.1121 1437.03 26.1121 Q1440.48 26.1121 1443.76 26.8413 Q1447.04 27.5299 1450.12 28.9478 Z" fill="#000000" fill-rule="evenodd" fill-opacity="1" /><path clip-path="url(#clip710)" d="M1463.08 27.2059 L1470.53 27.2059 L1470.53 72.576 L1463.08 72.576 L1463.08 27.2059 M1463.08 9.54393 L1470.53 9.54393 L1470.53 18.9825 L1463.08 18.9825 L1463.08 9.54393 Z" fill="#000000" fill-rule="evenodd" fill-opacity="1" /><path clip-path="url(#clip710)" d="M1493.5 14.324 L1493.5 27.2059 L1508.85 27.2059 L1508.85 32.9987 L1493.5 32.9987 L1493.5 57.6282 Q1493.5 63.1779 1495 64.7578 Q1496.54 66.3376 1501.2 66.3376 L1508.85 66.3376 L1508.85 72.576 L1501.2 72.576 Q1492.57 72.576 1489.29 69.3758 Q1486.01 66.1351 1486.01 57.6282 L1486.01 32.9987 L1480.54 32.9987 L1480.54 27.2059 L1486.01 27.2059 L1486.01 14.324 L1493.5 14.324 Z" fill="#000000" fill-rule="evenodd" fill-opacity="1" /><path clip-path="url(#clip710)" d="M1537.54 76.7889 Q1534.38 84.8907 1531.38 87.3618 Q1528.38 89.8329 1523.36 89.8329 L1517.4 89.8329 L1517.4 83.5945 L1521.78 83.5945 Q1524.86 83.5945 1526.56 82.1361 Q1528.26 80.6778 1530.32 75.2496 L1531.66 71.8468 L1513.31 27.2059 L1521.21 27.2059 L1535.39 62.6918 L1549.57 27.2059 L1557.47 27.2059 L1537.54 76.7889 Z" fill="#000000" fill-rule="evenodd" fill-opacity="1" /><path clip-path="url(#clip710)" d="M1614.75 49.7694 Q1605.71 49.7694 1602.23 51.8354 Q1598.74 53.9013 1598.74 58.8839 Q1598.74 62.8538 1601.34 65.2034 Q1603.97 67.5124 1608.47 67.5124 Q1614.66 67.5124 1618.39 63.1374 Q1622.16 58.7219 1622.16 51.4303 L1622.16 49.7694 L1614.75 49.7694 M1629.61 46.6907 L1629.61 72.576 L1622.16 72.576 L1622.16 65.6895 Q1619.61 69.8214 1615.8 71.8063 Q1611.99 73.7508 1606.48 73.7508 Q1599.51 73.7508 1595.38 69.8619 Q1591.29 65.9325 1591.29 59.3701 Q1591.29 51.7138 1596.39 47.825 Q1601.54 43.9361 1611.71 43.9361 L1622.16 43.9361 L1622.16 43.2069 Q1622.16 38.0623 1618.76 35.2672 Q1615.39 32.4315 1609.28 32.4315 Q1605.39 32.4315 1601.7 33.3632 Q1598.02 34.295 1594.61 36.1584 L1594.61 29.2718 Q1598.7 27.692 1602.55 26.9223 Q1606.4 26.1121 1610.05 26.1121 Q1619.89 26.1121 1624.75 31.2163 Q1629.61 36.3204 1629.61 46.6907 Z" fill="#000000" fill-rule="evenodd" fill-opacity="1" /><path clip-path="url(#clip710)" d="M1667.93 9.54393 L1667.93 15.7418 L1660.8 15.7418 Q1656.79 15.7418 1655.21 17.3622 Q1653.67 18.9825 1653.67 23.1955 L1653.67 27.2059 L1665.95 27.2059 L1665.95 32.9987 L1653.67 32.9987 L1653.67 72.576 L1646.18 72.576 L1646.18 32.9987 L1639.05 32.9987 L1639.05 27.2059 L1646.18 27.2059 L1646.18 24.0462 Q1646.18 16.471 1649.7 13.0277 Q1653.23 9.54393 1660.89 9.54393 L1667.93 9.54393 Z" fill="#000000" fill-rule="evenodd" fill-opacity="1" /><path clip-path="url(#clip710)" d="M1680.09 14.324 L1680.09 27.2059 L1695.44 27.2059 L1695.44 32.9987 L1680.09 32.9987 L1680.09 57.6282 Q1680.09 63.1779 1681.59 64.7578 Q1683.12 66.3376 1687.78 66.3376 L1695.44 66.3376 L1695.44 72.576 L1687.78 72.576 Q1679.15 72.576 1675.87 69.3758 Q1672.59 66.1351 1672.59 57.6282 L1672.59 32.9987 L1667.12 32.9987 L1667.12 27.2059 L1672.59 27.2059 L1672.59 14.324 L1680.09 14.324 Z" fill="#000000" fill-rule="evenodd" fill-opacity="1" /><path clip-path="url(#clip710)" d="M1744.05 48.0275 L1744.05 51.6733 L1709.78 51.6733 Q1710.27 59.3701 1714.4 63.421 Q1718.57 67.4314 1725.98 67.4314 Q1730.28 67.4314 1734.29 66.3781 Q1738.34 65.3249 1742.31 63.2184 L1742.31 70.267 Q1738.3 71.9684 1734.09 72.8596 Q1729.87 73.7508 1725.54 73.7508 Q1714.68 73.7508 1708.32 67.4314 Q1702 61.1119 1702 50.3365 Q1702 39.1965 1708 32.6746 Q1714.03 26.1121 1724.24 26.1121 Q1733.4 26.1121 1738.7 32.0264 Q1744.05 37.9003 1744.05 48.0275 M1736.6 45.84 Q1736.52 39.7232 1733.15 36.0774 Q1729.83 32.4315 1724.32 32.4315 Q1718.08 32.4315 1714.32 35.9558 Q1710.59 39.4801 1710.02 45.8805 L1736.6 45.84 Z" fill="#000000" fill-rule="evenodd" fill-opacity="1" /><path clip-path="url(#clip710)" d="M1782.57 34.1734 Q1781.32 33.4443 1779.82 33.1202 Q1778.36 32.7556 1776.58 32.7556 Q1770.26 32.7556 1766.86 36.8875 Q1763.49 40.9789 1763.49 48.6757 L1763.49 72.576 L1756 72.576 L1756 27.2059 L1763.49 27.2059 L1763.49 34.2544 Q1765.84 30.1225 1769.61 28.1376 Q1773.38 26.1121 1778.77 26.1121 Q1779.54 26.1121 1780.47 26.2337 Q1781.4 26.3147 1782.53 26.5172 L1782.57 34.1734 Z" fill="#000000" fill-rule="evenodd" fill-opacity="1" /><path clip-path="url(#clip710)" d="M1845.77 44.2197 Q1848.4 45.1109 1850.87 48.0275 Q1853.38 50.9442 1855.9 56.0483 L1864.2 72.576 L1855.41 72.576 L1847.67 57.061 Q1844.67 50.9847 1841.84 48.9997 Q1839.04 47.0148 1834.18 47.0148 L1825.27 47.0148 L1825.27 72.576 L1817.09 72.576 L1817.09 12.096 L1835.56 12.096 Q1845.93 12.096 1851.03 16.4305 Q1856.14 20.7649 1856.14 29.5149 Q1856.14 35.2267 1853.47 38.994 Q1850.83 42.7613 1845.77 44.2197 M1825.27 18.8205 L1825.27 40.2903 L1835.56 40.2903 Q1841.47 40.2903 1844.47 37.5762 Q1847.51 34.8216 1847.51 29.5149 Q1847.51 24.2082 1844.47 21.5346 Q1841.47 18.8205 1835.56 18.8205 L1825.27 18.8205 Z" fill="#000000" fill-rule="evenodd" fill-opacity="1" /><path clip-path="url(#clip710)" d="M1869.91 54.671 L1869.91 27.2059 L1877.37 27.2059 L1877.37 54.3874 Q1877.37 60.8284 1879.88 64.0691 Q1882.39 67.2693 1887.41 67.2693 Q1893.45 67.2693 1896.93 63.421 Q1900.46 59.5726 1900.46 52.9291 L1900.46 27.2059 L1907.91 27.2059 L1907.91 72.576 L1900.46 72.576 L1900.46 65.6084 Q1897.74 69.7404 1894.14 71.7658 Q1890.57 73.7508 1885.83 73.7508 Q1878.01 73.7508 1873.96 68.8897 Q1869.91 64.0286 1869.91 54.671 M1888.67 26.1121 L1888.67 26.1121 Z" fill="#000000" fill-rule="evenodd" fill-opacity="1" /><path clip-path="url(#clip710)" d="M1960.98 45.1919 L1960.98 72.576 L1953.52 72.576 L1953.52 45.4349 Q1953.52 38.994 1951.01 35.7938 Q1948.5 32.5936 1943.48 32.5936 Q1937.44 32.5936 1933.96 36.4419 Q1930.47 40.2903 1930.47 46.9338 L1930.47 72.576 L1922.98 72.576 L1922.98 27.2059 L1930.47 27.2059 L1930.47 34.2544 Q1933.15 30.163 1936.75 28.1376 Q1940.4 26.1121 1945.14 26.1121 Q1952.96 26.1121 1956.97 30.9732 Q1960.98 35.7938 1960.98 45.1919 Z" fill="#000000" fill-rule="evenodd" fill-opacity="1" /><path clip-path="url(#clip710)" d="M1977.75 62.2867 L1986.29 62.2867 L1986.29 72.576 L1977.75 72.576 L1977.75 62.2867 M1977.75 29.6769 L1986.29 29.6769 L1986.29 39.9662 L1977.75 39.9662 L1977.75 29.6769 Z" fill="#000000" fill-rule="evenodd" fill-opacity="1" /><path clip-path="url(#clip710)" d="M2032.64 65.6895 L2046 65.6895 L2046 19.5497 L2031.46 22.4663 L2031.46 15.0127 L2045.92 12.096 L2054.11 12.096 L2054.11 65.6895 L2067.47 65.6895 L2067.47 72.576 L2032.64 72.576 L2032.64 65.6895 Z" fill="#000000" fill-rule="evenodd" fill-opacity="1" /><polyline clip-path="url(#clip712)" style="stroke:#009af9; stroke-linecap:round; stroke-linejoin:round; stroke-width:8; stroke-opacity:1; fill:none" points="
  372.668,1352.36 377.474,1348.05 382.28,1343.22 387.087,1337.82 391.893,1331.85 396.699,1325.32 401.505,1318.23 406.311,1310.59 411.117,1302.4 415.923,1293.68 
  420.729,1284.42 425.535,1274.65 430.341,1264.37 435.147,1253.58 439.953,1242.31 444.759,1230.55 449.565,1218.34 454.371,1205.67 459.177,1192.56 463.983,1179.01 
  468.789,1165.05 473.595,1150.68 478.401,1135.92 483.207,1120.79 488.013,1105.3 492.819,1089.46 497.625,1073.3 502.431,1056.82 507.237,1040.05 512.044,1023 
  516.85,1005.69 521.656,988.141 526.462,970.362 531.268,952.374 536.074,934.197 540.88,915.848 545.686,897.345 550.492,878.707 555.298,859.953 560.104,841.101 
  564.91,822.169 569.716,803.178 574.522,784.146 579.328,765.092 584.134,746.035 588.94,726.994 593.746,707.988 598.552,689.037 603.358,670.158 608.164,651.372 
  612.97,632.697 617.776,614.151 622.582,595.752 627.388,577.52 632.194,559.474 637,541.629 641.807,524.005 646.613,506.619 651.419,489.49 656.225,472.631 
  661.031,456.06 665.837,439.796 670.643,423.855 675.449,408.254 680.255,393.005 685.061,378.123 689.867,363.625 694.673,349.527 699.479,335.844 704.285,322.589 
  709.091,309.77 713.897,297.404 718.703,285.504 723.509,274.083 728.315,263.151 733.121,252.717 737.927,242.793 742.733,233.389 747.539,224.515 752.345,216.18 
  757.151,208.392 761.957,201.157 766.763,194.484 771.57,188.379 776.376,182.85 781.182,177.9 785.988,173.535 790.794,169.758 795.6,166.575 800.406,163.988 
  805.212,162 810.018,160.613 814.824,159.828 819.63,159.645 824.436,160.066 829.242,161.089 834.048,162.714 838.854,164.939 843.66,167.762 848.466,171.179 
  853.272,175.189 858.078,179.786 862.884,184.966 867.69,190.724 872.496,197.054 877.302,203.95 882.108,211.406 886.914,219.413 891.72,227.965 896.527,237.051 
  901.333,246.663 906.139,256.792 910.945,267.427 915.751,278.556 920.557,290.173 925.363,302.263 930.169,314.814 934.975,327.813 939.781,341.247 944.587,355.103 
  949.393,369.366 954.199,384.021 959.005,399.055 963.811,414.457 968.617,430.207 973.423,446.289 978.229,462.688 983.035,479.386 987.841,496.367 992.647,513.613 
  997.453,531.106 1002.26,548.833 1007.07,566.775 1011.87,584.912 1016.68,603.227 1021.48,621.701 1026.29,640.314 1031.1,659.049 1035.9,677.887 1040.71,696.807 
  1045.51,715.796 1050.32,734.831 1055.13,753.893 1059.93,772.964 1064.74,792.023 1069.54,811.053 1074.35,830.033 1079.16,848.945 1083.96,867.771 1088.77,886.492 
  1093.57,905.088 1098.38,923.542 1103.19,941.835 1107.99,959.948 1112.8,977.863 1117.6,995.563 1122.41,1013.03 1127.22,1030.25 1132.02,1047.19 1136.83,1063.86 
  1141.63,1080.22 1146.44,1096.26 1151.25,1111.97 1156.05,1127.34 1160.86,1142.33 1165.66,1156.95 1170.47,1171.17 1175.28,1184.98 1180.08,1198.37 1184.89,1211.33 
  1189.69,1223.83 1194.5,1235.88 1199.31,1247.45 1204.11,1258.53 1208.92,1269.12 1213.72,1279.21 1218.53,1288.77 1223.34,1297.81 1228.14,1306.31 1232.95,1314.27 
  1237.76,1321.68 1242.56,1328.53 1247.37,1334.82 1252.17,1340.52 1256.98,1345.66 1261.79,1350.2 1266.59,1354.16 1271.4,1357.53 1276.2,1360.31 1281.01,1362.48 
  1285.82,1364.06 1290.62,1365.04 1295.43,1365.41 1300.23,1365.17 1305.04,1364.34 1309.85,1362.9 1314.65,1360.87 1319.46,1358.23 1324.26,1355 1329.07,1351.18 
  1333.88,1346.77 1338.68,1341.78 1343.49,1336.2 1348.29,1330.05 1353.1,1323.33 1357.91,1316.06 1362.71,1308.23 1367.52,1299.86 1372.32,1290.95 1377.13,1281.5 
  1381.94,1271.54 1386.74,1261.07 1391.55,1250.11 1396.35,1238.65 1401.16,1226.72 1405.97,1214.33 1410.77,1201.48 1415.58,1188.2 1420.38,1174.49 1425.19,1160.36 
  1430,1145.84 1434.8,1130.94 1439.61,1115.67 1444.41,1100.04 1449.22,1084.08 1454.03,1067.8 1458.83,1051.22 1463.64,1034.34 1468.44,1017.19 1473.25,999.786 
  1478.06,982.146 1482.86,964.288 1487.67,946.228 1492.48,927.986 1497.28,909.579 1502.09,891.023 1506.89,872.338 1511.7,853.544 1516.51,834.659 1521.31,815.703 
  1526.12,796.695 1530.92,777.653 1535.73,758.597 1540.54,739.544 1545.34,720.514 1550.15,701.526 1554.95,682.599 1559.76,663.753 1564.57,645.007 1569.37,626.378 
  1574.18,607.886 1578.98,589.549 1583.79,571.385 1588.6,553.413 1593.4,535.649 1598.21,518.114 1603.01,500.822 1607.82,483.793 1612.63,467.043 1617.43,450.589 
  1622.24,434.448 1627.04,418.634 1631.85,403.165 1636.66,388.056 1641.46,373.322 1646.27,358.977 1651.07,345.035 1655.88,331.511 1660.69,318.419 1665.49,305.771 
  1670.3,293.581 1675.1,281.861 1679.91,270.621 1684.72,259.873 1689.52,249.628 1694.33,239.895 1699.13,230.685 1703.94,222.007 1708.75,213.872 1713.55,206.286 
  1718.36,199.256 1723.16,192.79 1727.97,186.893 1732.78,181.571 1737.58,176.83 1742.39,172.674 1747.2,169.11 1752,166.141 1756.81,163.768 1761.61,161.995 
  1766.42,160.821 1771.23,160.25 1776.03,160.279 1780.84,160.91 1785.64,162.143 1790.45,163.979 1795.26,166.414 1800.06,169.445 1804.87,173.07 1809.67,177.283 
  1814.48,182.082 1819.29,187.46 1824.09,193.411 1828.9,199.933 1833.7,207.021 1838.51,214.663 1843.32,222.854 1848.12,231.584 1852.93,240.845 1857.73,250.627 
  1862.54,260.919 1867.35,271.711 1872.15,282.999 1876.96,294.766 1881.76,307.001 1886.57,319.691 1891.38,332.824 1896.18,346.386 1900.99,360.363 1905.79,374.741 
  1910.6,389.507 1915.41,404.649 1920.21,420.148 1925.02,435.99 1929.82,452.159 1934.63,468.637 1939.44,485.408 1944.24,502.455 1949.05,519.761 1953.85,537.312 
  1958.66,555.09 1963.47,573.074 1968.27,591.248 1973.08,609.592 1977.88,628.09 1982.69,646.72 1987.5,665.466 1992.3,684.308 1997.11,703.23 2001.92,722.212 
  2006.72,741.233 2011.53,760.276 2016.33,779.321 2021.14,798.348 2025.95,817.339 2030.75,836.274 2035.56,855.136 2040.36,873.906 2045.17,892.565 2049.98,911.093 
  2054.78,929.472 2059.59,947.684 2064.39,965.711 2069.2,983.534 2074.01,1001.14 2078.81,1018.5 2083.62,1035.61 2088.42,1052.44 2093.23,1068.98 2098.04,1085.22 
  2102.84,1101.13 2107.65,1116.71 2112.45,1131.93 2117.26,1146.78 2122.07,1161.25 2126.87,1175.32 2131.68,1188.97 2136.48,1202.2 2141.29,1214.99 2146.1,1227.32 
  2150.9,1239.2 2155.71,1250.59 2160.51,1261.5 2165.32,1271.9 2170.13,1281.8 2174.93,1291.18 2179.74,1300.03 2184.54,1308.34 2189.35,1316.1 2194.16,1323.32 
  2198.96,1329.97 2203.77,1336.05 2208.57,1341.56 2213.38,1346.49 2218.19,1350.83 2222.99,1354.59 2227.8,1357.76 2232.6,1360.33 2237.41,1362.3 2242.22,1363.68 
  2247.02,1364.45 2251.83,1364.62 2256.64,1364.18 2261.44,1363.15 2266.25,1361.51 2271.05,1359.28 2275.86,1356.45 2280.67,1353.03 2285.47,1349.02 2290.28,1344.41 
  2295.08,1339.23 
  "/>
<polyline clip-path="url(#clip712)" style="stroke:#e26f46; stroke-linecap:round; stroke-linejoin:round; stroke-width:8; stroke-opacity:1; fill:none" points="
  372.668,1352.36 377.474,1350.6 382.28,1348.32 387.087,1345.47 391.893,1342.04 396.699,1338.04 401.505,1333.46 406.311,1328.32 411.117,1322.61 415.923,1316.34 
  420.729,1309.52 425.535,1302.15 430.341,1294.24 435.147,1285.8 439.953,1276.82 444.759,1267.33 449.565,1257.33 454.371,1246.83 459.177,1235.84 463.983,1224.38 
  468.789,1212.44 473.595,1200.05 478.401,1187.22 483.207,1173.95 488.013,1160.26 492.819,1146.17 497.625,1131.68 502.431,1116.8 507.237,1101.55 512.044,1085.95 
  516.85,1070 521.656,1053.71 526.462,1037.11 531.268,1020.19 536.074,1002.98 540.88,985.493 545.686,967.728 550.492,949.701 555.298,931.426 560.104,912.913 
  564.91,894.175 569.716,875.213 574.522,856.034 579.328,836.651 584.134,817.07 588.94,797.3 593.746,777.385 598.552,758.889 603.358,744.5 608.164,730.013 
  612.97,715.456 617.776,700.837 622.582,686.184 627.388,671.517 632.194,656.851 637,642.22 641.807,627.631 646.613,613.113 651.419,598.674 656.225,584.345 
  661.031,570.138 665.837,556.075 670.643,542.175 675.449,528.455 680.255,514.931 685.061,501.622 689.867,488.548 694.673,475.719 699.479,463.151 704.285,450.864 
  709.091,438.873 713.897,427.182 718.703,415.812 723.509,404.778 728.315,394.088 733.121,383.744 737.927,373.766 742.733,364.165 747.539,354.954 752.345,346.146 
  757.151,337.752 761.957,329.787 766.763,322.227 771.57,315.098 776.376,308.411 781.182,302.176 785.988,296.403 790.794,291.099 795.6,286.273 800.406,281.921 
  805.212,278.034 810.018,274.63 814.824,271.714 819.63,269.29 824.436,267.362 829.242,265.931 834.048,265.002 838.854,264.567 843.66,264.63 848.466,265.193 
  853.272,266.257 858.078,267.819 862.884,269.879 867.69,272.434 872.496,275.483 877.302,279.021 882.108,283.046 886.914,287.553 891.72,292.538 896.527,297.996 
  901.333,303.922 906.139,310.308 910.945,317.156 915.751,324.454 920.557,332.196 925.363,340.373 930.169,348.979 934.975,358.003 939.781,367.439 944.587,377.28 
  949.393,387.52 954.199,398.146 959.005,409.15 963.811,420.519 968.617,432.244 973.423,444.313 978.229,456.716 983.035,469.457 987.841,482.514 992.647,495.878 
  997.453,509.536 1002.26,523.478 1007.07,537.691 1011.87,552.163 1016.68,566.894 1021.48,581.879 1026.29,597.1 1031.1,612.545 1035.9,628.203 1040.71,644.065 
  1045.51,660.119 1050.32,676.354 1055.13,692.779 1059.93,709.38 1064.74,726.149 1069.54,743.082 1074.35,760.113 1079.16,772.303 1083.96,783.732 1088.77,795.233 
  1093.57,806.782 1098.38,818.377 1103.19,829.989 1107.99,841.615 1112.8,853.23 1117.6,864.823 1122.41,876.38 1127.22,887.877 1132.02,899.308 1136.83,910.661 
  1141.63,921.911 1146.44,933.051 1151.25,944.065 1156.05,954.936 1160.86,965.651 1165.66,976.199 1170.47,986.564 1175.28,996.733 1180.08,1006.69 1184.89,1016.44 
  1189.69,1025.95 1194.5,1035.21 1199.31,1044.22 1204.11,1052.98 1208.92,1061.45 1213.72,1069.64 1218.53,1077.53 1223.34,1085.13 1228.14,1092.42 1232.95,1099.39 
  1237.76,1106.04 1242.56,1112.34 1247.37,1118.3 1252.17,1123.91 1256.98,1129.18 1261.79,1134.08 1266.59,1138.62 1271.4,1142.79 1276.2,1146.57 1281.01,1149.97 
  1285.82,1152.98 1290.62,1155.62 1295.43,1157.86 1300.23,1159.71 1305.04,1161.16 1309.85,1162.21 1314.65,1162.86 1319.46,1163.11 1324.26,1162.95 1329.07,1162.4 
  1333.88,1161.45 1338.68,1160.09 1343.49,1158.34 1348.29,1156.18 1353.1,1153.63 1357.91,1150.69 1362.71,1147.35 1367.52,1143.63 1372.32,1139.52 1377.13,1135.03 
  1381.94,1130.16 1386.74,1124.92 1391.55,1119.3 1396.35,1113.33 1401.16,1106.99 1405.97,1100.31 1410.77,1093.27 1415.58,1085.9 1420.38,1078.19 1425.19,1070.15 
  1430,1061.8 1434.8,1053.12 1439.61,1044.14 1444.41,1034.87 1449.22,1025.3 1454.03,1015.45 1458.83,1005.32 1463.64,994.92 1468.44,984.263 1473.25,973.355 
  1478.06,962.207 1482.86,950.824 1487.67,939.207 1492.48,927.371 1497.28,915.325 1502.09,903.076 1506.89,890.635 1511.7,878.009 1516.51,865.203 1521.31,852.215 
  1526.12,839.06 1530.92,825.745 1535.73,812.278 1540.54,798.666 1545.34,784.916 1550.15,771.034 1554.95,759.363 1559.76,751.156 1564.57,742.9 1569.37,734.597 
  1574.18,726.256 1578.98,717.889 1583.79,709.504 1588.6,701.112 1593.4,692.73 1598.21,684.359 1603.01,676.013 1607.82,667.705 1612.63,659.44 1617.43,651.234 
  1622.24,643.095 1627.04,635.034 1631.85,627.062 1636.66,619.19 1641.46,611.424 1646.27,603.774 1651.07,596.253 1655.88,588.87 1660.69,581.635 1665.49,574.557 
  1670.3,567.635 1675.1,560.886 1679.91,554.318 1684.72,547.941 1689.52,541.765 1694.33,535.787 1699.13,530.015 1703.94,524.461 1708.75,519.133 1713.55,514.039 
  1718.36,509.185 1723.16,504.562 1727.97,500.187 1732.78,496.067 1737.58,492.207 1742.39,488.614 1747.2,485.285 1752,482.22 1756.81,479.43 1761.61,476.92 
  1766.42,474.695 1771.23,472.76 1776.03,471.098 1780.84,469.725 1785.64,468.643 1790.45,467.857 1795.26,467.369 1800.06,467.175 1804.87,467.267 1809.67,467.655 
  1814.48,468.342 1819.29,469.328 1824.09,470.615 1828.9,472.186 1833.7,474.049 1838.51,476.205 1843.32,478.654 1848.12,481.397 1852.93,484.428 1857.73,487.734 
  1862.54,491.323 1867.35,495.192 1872.15,499.34 1876.96,503.766 1881.76,508.454 1886.57,513.405 1891.38,518.617 1896.18,524.089 1900.99,529.817 1905.79,535.796 
  1910.6,542.01 1915.41,548.463 1920.21,555.151 1925.02,562.069 1929.82,569.213 1934.63,576.573 1939.44,584.141 1944.24,591.915 1949.05,599.892 1953.85,608.065 
  1958.66,616.429 1963.47,624.971 1968.27,633.691 1973.08,642.582 1977.88,651.639 1982.69,660.856 1987.5,670.227 1992.3,679.744 1997.11,689.404 2001.92,699.2 
  2006.72,709.127 2011.53,719.178 2016.33,729.349 2021.14,739.635 2025.95,750.031 2030.75,760.489 2035.56,766.359 2040.36,771.092 2045.17,775.851 2049.98,780.636 
  2054.78,785.44 2059.59,790.263 2064.39,795.094 2069.2,799.934 2074.01,804.769 2078.81,809.604 2083.62,814.42 2088.42,819.219 2093.23,824 2098.04,828.753 
  2102.84,833.469 2107.65,838.148 2112.45,842.783 2117.26,847.366 2122.07,851.893 2126.87,856.357 2131.68,860.754 2136.48,865.078 2141.29,869.322 2146.1,873.484 
  2150.9,877.56 2155.71,881.542 2160.51,885.426 2165.32,889.206 2170.13,892.876 2174.93,896.431 2179.74,899.87 2184.54,903.194 2189.35,906.393 2194.16,909.462 
  2198.96,912.396 2203.77,915.19 2208.57,917.84 2213.38,920.347 2218.19,922.716 2222.99,924.934 2227.8,926.999 2232.6,928.905 2237.41,930.65 2242.22,932.229 
  2247.02,933.646 2251.83,934.908 2256.64,936.002 2261.44,936.926 2266.25,937.677 2271.05,938.252 2275.86,938.649 2280.67,938.872 2285.47,938.932 2290.28,938.814 
  2295.08,938.519 
  "/>
<polyline clip-path="url(#clip712)" style="stroke:#008000; stroke-linecap:round; stroke-linejoin:round; stroke-width:8; stroke-opacity:1; fill:none" stroke-dasharray="4, 8" points="
  372.668,1352.36 377.474,1351.92 382.28,1351.08 387.087,1349.86 391.893,1348.26 396.699,1346.28 401.505,1343.92 406.311,1341.2 411.117,1338.11 415.923,1334.66 
  420.729,1330.85 425.535,1326.69 430.341,1322.18 435.147,1317.32 439.953,1312.11 444.759,1306.57 449.565,1300.68 454.371,1294.47 459.177,1287.92 463.983,1281.04 
  468.789,1273.84 473.595,1266.32 478.401,1258.48 483.207,1250.33 488.013,1241.86 492.819,1233.1 497.625,1224.03 502.431,1214.67 507.237,1205.02 512.044,1195.08 
  516.85,1184.86 521.656,1174.36 526.462,1163.6 531.268,1152.57 536.074,1141.28 540.88,1129.74 545.686,1117.95 550.492,1105.92 555.298,1093.66 560.104,1081.17 
  564.91,1068.45 569.716,1055.52 574.522,1042.38 579.328,1029.03 584.134,1015.49 588.94,1001.75 593.746,987.823 598.552,973.719 603.358,959.439 608.164,944.992 
  612.97,930.382 617.776,915.617 622.582,900.701 627.388,885.64 632.194,870.442 637,855.112 641.807,839.656 646.613,824.079 651.419,808.389 656.225,792.589 
  661.031,776.687 665.837,760.688 670.643,744.6 675.449,728.431 680.255,712.189 685.061,695.884 689.867,679.526 694.673,663.127 699.479,646.698 704.285,630.251 
  709.091,613.801 713.897,597.36 718.703,580.945 723.509,564.569 728.315,548.251 733.121,532.006 737.927,515.853 742.733,499.81 747.539,483.896 752.345,468.133 
  757.151,452.54 761.957,437.139 766.763,421.952 771.57,407.003 776.376,392.306 781.182,377.915 785.988,363.9 790.794,350.326 795.6,337.252 800.406,324.732 
  805.212,312.815 810.018,301.545 814.824,290.959 819.63,281.09 824.436,271.965 829.242,263.606 834.048,256.03 838.854,249.229 843.66,243.136 848.466,237.724 
  853.272,232.969 858.078,228.853 862.884,225.356 867.69,222.462 872.496,220.157 877.302,218.427 882.108,217.263 886.914,216.656 891.72,216.6 896.527,217.089 
  901.333,218.121 906.139,219.695 910.945,221.813 915.751,224.471 920.557,227.656 925.363,231.355 930.169,235.561 934.975,240.261 939.781,245.447 944.587,251.107 
  949.393,257.231 954.199,263.806 959.005,270.822 963.811,278.267 968.617,286.13 973.423,294.396 978.229,303.056 983.035,312.094 987.841,321.499 992.647,331.258 
  997.453,341.356 1002.26,351.78 1007.07,362.516 1011.87,373.553 1016.68,384.881 1021.48,396.487 1026.29,408.36 1031.1,420.489 1035.9,432.863 1040.71,445.471 
  1045.51,458.301 1050.32,471.343 1055.13,484.586 1059.93,498.019 1064.74,511.631 1069.54,525.412 1074.35,539.352 1079.16,553.44 1083.96,567.665 1088.77,582.018 
  1093.57,596.489 1098.38,611.068 1103.19,625.744 1107.99,640.508 1112.8,655.351 1117.6,670.277 1122.41,685.307 1127.22,700.402 1132.02,715.521 1136.83,730.628 
  1141.63,745.688 1146.44,760.666 1151.25,775.535 1156.05,790.264 1160.86,804.83 1165.66,819.209 1170.47,833.381 1175.28,847.328 1180.08,861.034 1184.89,874.485 
  1189.69,887.673 1194.5,900.587 1199.31,913.222 1204.11,925.574 1208.92,937.644 1213.72,949.431 1218.53,960.941 1223.34,972.179 1228.14,983.154 1232.95,993.883 
  1237.76,1004.37 1242.56,1014.61 1247.37,1024.6 1252.17,1034.34 1256.98,1043.82 1261.79,1053.04 1266.59,1061.99 1271.4,1070.67 1276.2,1079.08 1281.01,1087.2 
  1285.82,1095.03 1290.62,1102.57 1295.43,1109.81 1300.23,1116.73 1305.04,1123.33 1309.85,1129.61 1314.65,1135.55 1319.46,1141.14 1324.26,1146.38 1329.07,1151.25 
  1333.88,1155.75 1338.68,1159.89 1343.49,1163.65 1348.29,1167.04 1353.1,1170.06 1357.91,1172.71 1362.71,1174.98 1367.52,1176.88 1372.32,1178.4 1377.13,1179.54 
  1381.94,1180.31 1386.74,1180.71 1391.55,1180.74 1396.35,1180.39 1401.16,1179.67 1405.97,1178.59 1410.77,1177.14 1415.58,1175.33 1420.38,1173.16 1425.19,1170.63 
  1430,1167.75 1434.8,1164.52 1439.61,1160.95 1444.41,1157.03 1449.22,1152.78 1454.03,1148.19 1458.83,1143.28 1463.64,1138.05 1468.44,1132.51 1473.25,1126.65 
  1478.06,1120.49 1482.86,1114.03 1487.67,1107.26 1492.48,1100.2 1497.28,1092.84 1502.09,1085.19 1506.89,1077.27 1511.7,1069.06 1516.51,1060.59 1521.31,1051.85 
  1526.12,1042.84 1530.92,1033.59 1535.73,1024.08 1540.54,1014.33 1545.34,1004.34 1550.15,994.128 1554.95,983.687 1559.76,973.029 1564.57,962.16 1569.37,951.088 
  1574.18,939.819 1578.98,928.361 1583.79,916.72 1588.6,904.905 1593.4,892.923 1598.21,880.782 1603.01,868.488 1607.82,856.048 1612.63,843.471 1617.43,830.763 
  1622.24,817.933 1627.04,804.991 1631.85,791.945 1636.66,778.805 1641.46,765.583 1646.27,752.29 1651.07,738.936 1655.88,725.534 1660.69,712.097 1665.49,698.637 
  1670.3,685.169 1675.1,671.706 1679.91,658.264 1684.72,644.857 1689.52,631.502 1694.33,618.214 1699.13,605.01 1703.94,591.908 1708.75,578.925 1713.55,566.08 
  1718.36,553.392 1723.16,540.88 1727.97,528.547 1732.78,516.4 1737.58,504.494 1742.39,492.88 1747.2,481.607 1752,470.72 1756.81,460.26 1761.61,450.264 
  1766.42,440.766 1771.23,431.796 1776.03,423.381 1780.84,415.544 1785.64,408.304 1790.45,401.677 1795.26,395.674 1800.06,390.304 1804.87,385.573 1809.67,381.481 
  1814.48,378.025 1819.29,375.2 1824.09,372.994 1828.9,371.363 1833.7,370.283 1838.51,369.739 1843.32,369.715 1848.12,370.198 1852.93,371.174 1857.73,372.628 
  1862.54,374.548 1867.35,376.92 1872.15,379.731 1876.96,382.97 1881.76,386.623 1886.57,390.679 1891.38,395.127 1896.18,399.956 1900.99,405.154 1905.79,410.712 
  1910.6,416.619 1915.41,422.866 1920.21,429.443 1925.02,436.34 1929.82,443.55 1934.63,451.064 1939.44,458.876 1944.24,466.977 1949.05,475.353 1953.85,483.99 
  1958.66,492.875 1963.47,501.995 1968.27,511.336 1973.08,520.883 1977.88,530.624 1982.69,540.545 1987.5,550.63 1992.3,560.868 1997.11,571.244 2001.92,581.743 
  2006.72,592.352 2011.53,603.057 2016.33,613.844 2021.14,624.698 2025.95,635.606 2030.75,646.553 2035.56,657.525 2040.36,668.507 2045.17,679.486 2049.98,690.446 
  2054.78,701.375 2059.59,712.256 2064.39,723.075 2069.2,733.803 2074.01,744.418 2078.81,754.91 2083.62,765.27 2088.42,775.488 2093.23,785.558 2098.04,795.474 
  2102.84,805.228 2107.65,814.818 2112.45,824.238 2117.26,833.488 2122.07,842.565 2126.87,851.468 2131.68,860.198 2136.48,868.757 2141.29,877.146 2146.1,885.369 
  2150.9,893.43 2155.71,901.335 2160.51,909.09 2165.32,916.688 2170.13,924.118 2174.93,931.374 2179.74,938.45 2184.54,945.339 2189.35,952.037 2194.16,958.536 
  2198.96,964.831 2203.77,970.915 2208.57,976.784 2213.38,982.431 2218.19,987.85 2222.99,993.035 2227.8,997.982 2232.6,1002.68 2237.41,1007.13 2242.22,1011.33 
  2247.02,1015.26 2251.83,1018.92 2256.64,1022.31 2261.44,1025.43 2266.25,1028.25 2271.05,1030.8 2275.86,1033.05 2280.67,1035.02 2285.47,1036.69 2290.28,1038.06 
  2295.08,1039.14 
  "/>
<path clip-path="url(#clip710)" d="
M1446.2 477.116 L2284.83 477.116 L2284.83 166.076 L1446.2 166.076  Z
  " fill="#ffffff" fill-rule="evenodd" fill-opacity="1"/>
<polyline clip-path="url(#clip710)" style="stroke:#000000; stroke-linecap:round; stroke-linejoin:round; stroke-width:4; stroke-opacity:1; fill:none" points="
  1446.2,477.116 2284.83,477.116 2284.83,166.076 1446.2,166.076 1446.2,477.116 
  "/>
<polyline clip-path="url(#clip710)" style="stroke:#009af9; stroke-linecap:round; stroke-linejoin:round; stroke-width:12; stroke-opacity:1; fill:none" points="
  1468.84,243.836 1604.69,243.836 
  "/>
<path clip-path="url(#clip710)" d="M1660.7 219.617 L1660.7 226.457 Q1656.71 224.548 1653.16 223.61 Q1649.62 222.673 1646.32 222.673 Q1640.59 222.673 1637.47 224.895 Q1634.38 227.117 1634.38 231.214 Q1634.38 234.652 1636.43 236.423 Q1638.51 238.159 1644.28 239.235 L1648.51 240.103 Q1656.36 241.596 1660.07 245.381 Q1663.82 249.131 1663.82 255.45 Q1663.82 262.985 1658.75 266.874 Q1653.72 270.763 1643.96 270.763 Q1640.28 270.763 1636.12 269.929 Q1631.98 269.096 1627.54 267.464 L1627.54 260.242 Q1631.81 262.638 1635.91 263.853 Q1640 265.068 1643.96 265.068 Q1649.97 265.068 1653.23 262.707 Q1656.5 260.346 1656.5 255.971 Q1656.5 252.152 1654.14 249.999 Q1651.81 247.846 1646.46 246.77 L1642.19 245.936 Q1634.34 244.374 1630.84 241.041 Q1627.33 237.707 1627.33 231.77 Q1627.33 224.895 1632.16 220.937 Q1637.02 216.978 1645.53 216.978 Q1649.17 216.978 1652.96 217.638 Q1656.74 218.298 1660.7 219.617 Z" fill="#000000" fill-rule="evenodd" fill-opacity="1" /><path clip-path="url(#clip710)" d="M1674.48 230.867 L1680.87 230.867 L1680.87 269.756 L1674.48 269.756 L1674.48 230.867 M1674.48 215.728 L1680.87 215.728 L1680.87 223.818 L1674.48 223.818 L1674.48 215.728 Z" fill="#000000" fill-rule="evenodd" fill-opacity="1" /><path clip-path="url(#clip710)" d="M1724.52 238.332 Q1726.91 234.027 1730.25 231.978 Q1733.58 229.93 1738.09 229.93 Q1744.17 229.93 1747.47 234.2 Q1750.77 238.436 1750.77 246.284 L1750.77 269.756 L1744.34 269.756 L1744.34 246.492 Q1744.34 240.902 1742.37 238.193 Q1740.39 235.485 1736.32 235.485 Q1731.36 235.485 1728.48 238.784 Q1725.59 242.082 1725.59 247.777 L1725.59 269.756 L1719.17 269.756 L1719.17 246.492 Q1719.17 240.867 1717.19 238.193 Q1715.21 235.485 1711.08 235.485 Q1706.18 235.485 1703.3 238.818 Q1700.42 242.117 1700.42 247.777 L1700.42 269.756 L1694 269.756 L1694 230.867 L1700.42 230.867 L1700.42 236.909 Q1702.61 233.332 1705.66 231.631 Q1708.72 229.93 1712.92 229.93 Q1717.16 229.93 1720.11 232.082 Q1723.09 234.235 1724.52 238.332 Z" fill="#000000" fill-rule="evenodd" fill-opacity="1" /><path clip-path="url(#clip710)" d="M1769.69 263.922 L1769.69 284.547 L1763.27 284.547 L1763.27 230.867 L1769.69 230.867 L1769.69 236.77 Q1771.71 233.298 1774.76 231.631 Q1777.85 229.93 1782.12 229.93 Q1789.21 229.93 1793.61 235.555 Q1798.06 241.179 1798.06 250.346 Q1798.06 259.513 1793.61 265.138 Q1789.21 270.763 1782.12 270.763 Q1777.85 270.763 1774.76 269.096 Q1771.71 267.395 1769.69 263.922 M1791.43 250.346 Q1791.43 243.298 1788.51 239.304 Q1785.63 235.277 1780.56 235.277 Q1775.49 235.277 1772.57 239.304 Q1769.69 243.298 1769.69 250.346 Q1769.69 257.395 1772.57 261.422 Q1775.49 265.415 1780.56 265.415 Q1785.63 265.415 1788.51 261.422 Q1791.43 257.395 1791.43 250.346 Z" fill="#000000" fill-rule="evenodd" fill-opacity="1" /><path clip-path="url(#clip710)" d="M1808.65 215.728 L1815.04 215.728 L1815.04 269.756 L1808.65 269.756 L1808.65 215.728 Z" fill="#000000" fill-rule="evenodd" fill-opacity="1" /><path clip-path="url(#clip710)" d="M1861.67 248.714 L1861.67 251.839 L1832.3 251.839 Q1832.71 258.436 1836.25 261.909 Q1839.83 265.346 1846.18 265.346 Q1849.86 265.346 1853.3 264.443 Q1856.77 263.54 1860.18 261.735 L1860.18 267.777 Q1856.74 269.235 1853.13 269.999 Q1849.52 270.763 1845.8 270.763 Q1836.5 270.763 1831.05 265.346 Q1825.63 259.929 1825.63 250.693 Q1825.63 241.145 1830.77 235.555 Q1835.94 229.93 1844.69 229.93 Q1852.54 229.93 1857.09 234.999 Q1861.67 240.034 1861.67 248.714 M1855.28 246.839 Q1855.21 241.596 1852.33 238.471 Q1849.48 235.346 1844.76 235.346 Q1839.41 235.346 1836.18 238.367 Q1832.99 241.388 1832.5 246.874 L1855.28 246.839 Z" fill="#000000" fill-rule="evenodd" fill-opacity="1" /><path clip-path="url(#clip710)" d="M1872.43 217.916 L1902.23 217.916 L1902.23 223.818 L1879.45 223.818 L1879.45 239.096 L1900 239.096 L1900 244.999 L1879.45 244.999 L1879.45 269.756 L1872.43 269.756 L1872.43 217.916 Z" fill="#000000" fill-rule="evenodd" fill-opacity="1" /><path clip-path="url(#clip710)" d="M1913.34 217.916 L1923.79 217.916 L1937.02 253.193 L1950.32 217.916 L1960.77 217.916 L1960.77 269.756 L1953.93 269.756 L1953.93 224.235 L1940.56 259.79 L1933.51 259.79 L1920.14 224.235 L1920.14 269.756 L1913.34 269.756 L1913.34 217.916 Z" fill="#000000" fill-rule="evenodd" fill-opacity="1" /><path clip-path="url(#clip710)" d="M1973.89 217.916 L1980.94 217.916 L1980.94 249.409 Q1980.94 257.742 1983.96 261.422 Q1986.98 265.068 1993.75 265.068 Q2000.49 265.068 2003.51 261.422 Q2006.53 257.742 2006.53 249.409 L2006.53 217.916 L2013.58 217.916 L2013.58 250.277 Q2013.58 260.415 2008.54 265.589 Q2003.54 270.763 1993.75 270.763 Q1983.93 270.763 1978.89 265.589 Q1973.89 260.415 1973.89 250.277 L1973.89 217.916 Z" fill="#000000" fill-rule="evenodd" fill-opacity="1" /><polyline clip-path="url(#clip710)" style="stroke:#e26f46; stroke-linecap:round; stroke-linejoin:round; stroke-width:12; stroke-opacity:1; fill:none" points="
  1468.84,321.596 1604.69,321.596 
  "/>
<path clip-path="url(#clip710)" d="M1651.91 323.21 Q1654.17 323.974 1656.29 326.474 Q1658.44 328.974 1660.59 333.349 L1667.71 347.516 L1660.18 347.516 L1653.55 334.217 Q1650.98 329.009 1648.55 327.307 Q1646.15 325.606 1641.98 325.606 L1634.34 325.606 L1634.34 347.516 L1627.33 347.516 L1627.33 295.676 L1643.16 295.676 Q1652.05 295.676 1656.43 299.391 Q1660.8 303.106 1660.8 310.606 Q1660.8 315.502 1658.51 318.731 Q1656.25 321.96 1651.91 323.21 M1634.34 301.44 L1634.34 319.842 L1643.16 319.842 Q1648.23 319.842 1650.8 317.516 Q1653.41 315.155 1653.41 310.606 Q1653.41 306.058 1650.8 303.766 Q1648.23 301.44 1643.16 301.44 L1634.34 301.44 Z" fill="#000000" fill-rule="evenodd" fill-opacity="1" /><path clip-path="url(#clip710)" d="M1706.53 326.474 L1706.53 329.599 L1677.16 329.599 Q1677.57 336.196 1681.12 339.669 Q1684.69 343.106 1691.05 343.106 Q1694.73 343.106 1698.16 342.203 Q1701.64 341.3 1705.04 339.495 L1705.04 345.537 Q1701.6 346.995 1697.99 347.759 Q1694.38 348.523 1690.66 348.523 Q1681.36 348.523 1675.91 343.106 Q1670.49 337.689 1670.49 328.453 Q1670.49 318.905 1675.63 313.315 Q1680.8 307.69 1689.55 307.69 Q1697.4 307.69 1701.95 312.759 Q1706.53 317.794 1706.53 326.474 M1700.14 324.599 Q1700.07 319.356 1697.19 316.231 Q1694.34 313.106 1689.62 313.106 Q1684.28 313.106 1681.05 316.127 Q1677.85 319.148 1677.37 324.634 L1700.14 324.599 Z" fill="#000000" fill-rule="evenodd" fill-opacity="1" /><path clip-path="url(#clip710)" d="M1736.71 293.488 L1736.71 298.801 L1730.59 298.801 Q1727.16 298.801 1725.8 300.19 Q1724.48 301.578 1724.48 305.19 L1724.48 308.627 L1735 308.627 L1735 313.592 L1724.48 313.592 L1724.48 347.516 L1718.06 347.516 L1718.06 313.592 L1711.95 313.592 L1711.95 308.627 L1718.06 308.627 L1718.06 305.919 Q1718.06 299.426 1721.08 296.474 Q1724.1 293.488 1730.66 293.488 L1736.71 293.488 Z" fill="#000000" fill-rule="evenodd" fill-opacity="1" /><path clip-path="url(#clip710)" d="M1775.32 326.474 L1775.32 329.599 L1745.94 329.599 Q1746.36 336.196 1749.9 339.669 Q1753.48 343.106 1759.83 343.106 Q1763.51 343.106 1766.95 342.203 Q1770.42 341.3 1773.82 339.495 L1773.82 345.537 Q1770.39 346.995 1766.77 347.759 Q1763.16 348.523 1759.45 348.523 Q1750.14 348.523 1744.69 343.106 Q1739.27 337.689 1739.27 328.453 Q1739.27 318.905 1744.41 313.315 Q1749.59 307.69 1758.34 307.69 Q1766.18 307.69 1770.73 312.759 Q1775.32 317.794 1775.32 326.474 M1768.93 324.599 Q1768.86 319.356 1765.98 316.231 Q1763.13 313.106 1758.41 313.106 Q1753.06 313.106 1749.83 316.127 Q1746.64 319.148 1746.15 324.634 L1768.93 324.599 Z" fill="#000000" fill-rule="evenodd" fill-opacity="1" /><path clip-path="url(#clip710)" d="M1808.34 314.599 Q1807.26 313.974 1805.98 313.696 Q1804.73 313.384 1803.2 313.384 Q1797.78 313.384 1794.86 316.926 Q1791.98 320.433 1791.98 327.03 L1791.98 347.516 L1785.56 347.516 L1785.56 308.627 L1791.98 308.627 L1791.98 314.669 Q1794 311.127 1797.23 309.426 Q1800.46 307.69 1805.07 307.69 Q1805.73 307.69 1806.53 307.794 Q1807.33 307.863 1808.3 308.037 L1808.34 314.599 Z" fill="#000000" fill-rule="evenodd" fill-opacity="1" /><path clip-path="url(#clip710)" d="M1846.74 326.474 L1846.74 329.599 L1817.36 329.599 Q1817.78 336.196 1821.32 339.669 Q1824.9 343.106 1831.25 343.106 Q1834.93 343.106 1838.37 342.203 Q1841.84 341.3 1845.25 339.495 L1845.25 345.537 Q1841.81 346.995 1838.2 347.759 Q1834.59 348.523 1830.87 348.523 Q1821.57 348.523 1816.11 343.106 Q1810.7 337.689 1810.7 328.453 Q1810.7 318.905 1815.84 313.315 Q1821.01 307.69 1829.76 307.69 Q1837.61 307.69 1842.16 312.759 Q1846.74 317.794 1846.74 326.474 M1840.35 324.599 Q1840.28 319.356 1837.4 316.231 Q1834.55 313.106 1829.83 313.106 Q1824.48 313.106 1821.25 316.127 Q1818.06 319.148 1817.57 324.634 L1840.35 324.599 Z" fill="#000000" fill-rule="evenodd" fill-opacity="1" /><path clip-path="url(#clip710)" d="M1889.55 324.044 L1889.55 347.516 L1883.16 347.516 L1883.16 324.252 Q1883.16 318.731 1881.01 315.988 Q1878.86 313.245 1874.55 313.245 Q1869.38 313.245 1866.39 316.544 Q1863.41 319.842 1863.41 325.537 L1863.41 347.516 L1856.98 347.516 L1856.98 308.627 L1863.41 308.627 L1863.41 314.669 Q1865.7 311.162 1868.79 309.426 Q1871.91 307.69 1875.98 307.69 Q1882.68 307.69 1886.11 311.856 Q1889.55 315.988 1889.55 324.044 Z" fill="#000000" fill-rule="evenodd" fill-opacity="1" /><path clip-path="url(#clip710)" d="M1930.28 310.12 L1930.28 316.092 Q1927.57 314.599 1924.83 313.87 Q1922.12 313.106 1919.34 313.106 Q1913.13 313.106 1909.69 317.064 Q1906.25 320.988 1906.25 328.106 Q1906.25 335.224 1909.69 339.182 Q1913.13 343.106 1919.34 343.106 Q1922.12 343.106 1924.83 342.377 Q1927.57 341.613 1930.28 340.12 L1930.28 346.023 Q1927.61 347.273 1924.73 347.898 Q1921.88 348.523 1918.65 348.523 Q1909.86 348.523 1904.69 343.002 Q1899.52 337.481 1899.52 328.106 Q1899.52 318.592 1904.73 313.141 Q1909.97 307.69 1919.07 307.69 Q1922.02 307.69 1924.83 308.315 Q1927.64 308.905 1930.28 310.12 Z" fill="#000000" fill-rule="evenodd" fill-opacity="1" /><path clip-path="url(#clip710)" d="M1974.66 326.474 L1974.66 329.599 L1945.28 329.599 Q1945.7 336.196 1949.24 339.669 Q1952.82 343.106 1959.17 343.106 Q1962.85 343.106 1966.29 342.203 Q1969.76 341.3 1973.16 339.495 L1973.16 345.537 Q1969.73 346.995 1966.11 347.759 Q1962.5 348.523 1958.79 348.523 Q1949.48 348.523 1944.03 343.106 Q1938.61 337.689 1938.61 328.453 Q1938.61 318.905 1943.75 313.315 Q1948.93 307.69 1957.68 307.69 Q1965.52 307.69 1970.07 312.759 Q1974.66 317.794 1974.66 326.474 M1968.27 324.599 Q1968.2 319.356 1965.32 316.231 Q1962.47 313.106 1957.75 313.106 Q1952.4 313.106 1949.17 316.127 Q1945.98 319.148 1945.49 324.634 L1968.27 324.599 Z" fill="#000000" fill-rule="evenodd" fill-opacity="1" /><polyline clip-path="url(#clip710)" style="stroke:#008000; stroke-linecap:round; stroke-linejoin:round; stroke-width:12; stroke-opacity:1; fill:none" stroke-dasharray="6, 12" points="
  1468.84,399.356 1604.69,399.356 
  "/>
<path clip-path="url(#clip710)" d="M1627.33 373.436 L1636.78 373.436 L1659.76 416.804 L1659.76 373.436 L1666.57 373.436 L1666.57 425.276 L1657.12 425.276 L1634.14 381.908 L1634.14 425.276 L1627.33 425.276 L1627.33 373.436 Z" fill="#000000" fill-rule="evenodd" fill-opacity="1" /><path clip-path="url(#clip710)" d="M1713.51 404.234 L1713.51 407.359 L1684.14 407.359 Q1684.55 413.956 1688.09 417.429 Q1691.67 420.866 1698.03 420.866 Q1701.71 420.866 1705.14 419.963 Q1708.62 419.06 1712.02 417.255 L1712.02 423.297 Q1708.58 424.755 1704.97 425.519 Q1701.36 426.283 1697.64 426.283 Q1688.34 426.283 1682.89 420.866 Q1677.47 415.449 1677.47 406.213 Q1677.47 396.665 1682.61 391.075 Q1687.78 385.45 1696.53 385.45 Q1704.38 385.45 1708.93 390.519 Q1713.51 395.554 1713.51 404.234 M1707.12 402.359 Q1707.05 397.116 1704.17 393.991 Q1701.32 390.866 1696.6 390.866 Q1691.25 390.866 1688.03 393.887 Q1684.83 396.908 1684.34 402.394 L1707.12 402.359 Z" fill="#000000" fill-rule="evenodd" fill-opacity="1" /><path clip-path="url(#clip710)" d="M1723.34 409.929 L1723.34 386.387 L1729.73 386.387 L1729.73 409.686 Q1729.73 415.206 1731.88 417.984 Q1734.03 420.727 1738.34 420.727 Q1743.51 420.727 1746.5 417.429 Q1749.52 414.13 1749.52 408.436 L1749.52 386.387 L1755.91 386.387 L1755.91 425.276 L1749.52 425.276 L1749.52 419.304 Q1747.19 422.845 1744.1 424.581 Q1741.05 426.283 1736.98 426.283 Q1730.28 426.283 1726.81 422.116 Q1723.34 417.949 1723.34 409.929 M1739.41 385.45 L1739.41 385.45 Z" fill="#000000" fill-rule="evenodd" fill-opacity="1" /><path clip-path="url(#clip710)" d="M1791.6 392.359 Q1790.52 391.734 1789.24 391.456 Q1787.99 391.144 1786.46 391.144 Q1781.05 391.144 1778.13 394.686 Q1775.25 398.193 1775.25 404.79 L1775.25 425.276 L1768.82 425.276 L1768.82 386.387 L1775.25 386.387 L1775.25 392.429 Q1777.26 388.887 1780.49 387.186 Q1783.72 385.45 1788.34 385.45 Q1789 385.45 1789.8 385.554 Q1790.59 385.623 1791.57 385.797 L1791.6 392.359 Z" fill="#000000" fill-rule="evenodd" fill-opacity="1" /><path clip-path="url(#clip710)" d="M1815.98 405.727 Q1808.23 405.727 1805.25 407.498 Q1802.26 409.269 1802.26 413.54 Q1802.26 416.942 1804.48 418.956 Q1806.74 420.935 1810.59 420.935 Q1815.91 420.935 1819.1 417.185 Q1822.33 413.401 1822.33 407.151 L1822.33 405.727 L1815.98 405.727 M1828.72 403.088 L1828.72 425.276 L1822.33 425.276 L1822.33 419.373 Q1820.14 422.915 1816.88 424.616 Q1813.61 426.283 1808.89 426.283 Q1802.92 426.283 1799.38 422.949 Q1795.87 419.581 1795.87 413.956 Q1795.87 407.394 1800.25 404.061 Q1804.66 400.727 1813.37 400.727 L1822.33 400.727 L1822.33 400.102 Q1822.33 395.693 1819.41 393.297 Q1816.53 390.866 1811.29 390.866 Q1807.96 390.866 1804.8 391.665 Q1801.64 392.463 1798.72 394.061 L1798.72 388.158 Q1802.23 386.804 1805.52 386.144 Q1808.82 385.45 1811.95 385.45 Q1820.39 385.45 1824.55 389.825 Q1828.72 394.199 1828.72 403.088 Z" fill="#000000" fill-rule="evenodd" fill-opacity="1" /><path clip-path="url(#clip710)" d="M1841.88 371.248 L1848.27 371.248 L1848.27 425.276 L1841.88 425.276 L1841.88 371.248 Z" fill="#000000" fill-rule="evenodd" fill-opacity="1" /><path clip-path="url(#clip710)" d="M1861.91 373.436 L1891.7 373.436 L1891.7 379.338 L1868.93 379.338 L1868.93 394.616 L1889.48 394.616 L1889.48 400.519 L1868.93 400.519 L1868.93 425.276 L1861.91 425.276 L1861.91 373.436 Z" fill="#000000" fill-rule="evenodd" fill-opacity="1" /><path clip-path="url(#clip710)" d="M1902.82 373.436 L1913.27 373.436 L1926.5 408.713 L1939.79 373.436 L1950.25 373.436 L1950.25 425.276 L1943.41 425.276 L1943.41 379.755 L1930.04 415.31 L1922.99 415.31 L1909.62 379.755 L1909.62 425.276 L1902.82 425.276 L1902.82 373.436 Z" fill="#000000" fill-rule="evenodd" fill-opacity="1" /><path clip-path="url(#clip710)" d="M1963.37 373.436 L1970.42 373.436 L1970.42 404.929 Q1970.42 413.262 1973.44 416.942 Q1976.46 420.588 1983.23 420.588 Q1989.97 420.588 1992.99 416.942 Q1996.01 413.262 1996.01 404.929 L1996.01 373.436 L2003.06 373.436 L2003.06 405.797 Q2003.06 415.935 1998.02 421.109 Q1993.02 426.283 1983.23 426.283 Q1973.41 426.283 1968.37 421.109 Q1963.37 415.935 1963.37 405.797 L1963.37 373.436 Z" fill="#000000" fill-rule="evenodd" fill-opacity="1" /><path clip-path="url(#clip710)" d="M2053.89 371.318 Q2049.24 379.304 2046.98 387.116 Q2044.72 394.929 2044.72 402.949 Q2044.72 410.97 2046.98 418.852 Q2049.27 426.699 2053.89 434.651 L2048.34 434.651 Q2043.13 426.491 2040.52 418.609 Q2037.95 410.727 2037.95 402.949 Q2037.95 395.206 2040.52 387.359 Q2043.09 379.512 2048.34 371.318 L2053.89 371.318 Z" fill="#000000" fill-rule="evenodd" fill-opacity="1" /><path clip-path="url(#clip710)" d="M2073.23 419.373 L2097.71 419.373 L2097.71 425.276 L2064.79 425.276 L2064.79 419.373 Q2068.79 415.241 2075.66 408.297 Q2082.57 401.318 2084.34 399.304 Q2087.71 395.519 2089.03 392.915 Q2090.38 390.276 2090.38 387.741 Q2090.38 383.609 2087.47 381.005 Q2084.59 378.401 2079.93 378.401 Q2076.63 378.401 2072.95 379.547 Q2069.31 380.693 2065.14 383.019 L2065.14 375.936 Q2069.38 374.234 2073.06 373.366 Q2076.74 372.498 2079.79 372.498 Q2087.85 372.498 2092.64 376.526 Q2097.43 380.554 2097.43 387.29 Q2097.43 390.484 2096.22 393.366 Q2095.04 396.213 2091.88 400.102 Q2091.01 401.109 2086.36 405.936 Q2081.7 410.727 2073.23 419.373 Z" fill="#000000" fill-rule="evenodd" fill-opacity="1" /><path clip-path="url(#clip710)" d="M2112.5 373.436 L2140.04 373.436 L2140.04 379.338 L2118.93 379.338 L2118.93 392.047 Q2120.45 391.526 2121.98 391.283 Q2123.51 391.005 2125.04 391.005 Q2133.72 391.005 2138.79 395.762 Q2143.86 400.519 2143.86 408.644 Q2143.86 417.012 2138.65 421.665 Q2133.44 426.283 2123.96 426.283 Q2120.7 426.283 2117.29 425.727 Q2113.93 425.172 2110.31 424.06 L2110.31 417.012 Q2113.44 418.713 2116.77 419.547 Q2120.11 420.38 2123.82 420.38 Q2129.83 420.38 2133.34 417.22 Q2136.84 414.06 2136.84 408.644 Q2136.84 403.227 2133.34 400.068 Q2129.83 396.908 2123.82 396.908 Q2121.01 396.908 2118.2 397.533 Q2115.42 398.158 2112.5 399.477 L2112.5 373.436 Z" fill="#000000" fill-rule="evenodd" fill-opacity="1" /><path clip-path="url(#clip710)" d="M2172.68 378.054 Q2167.26 378.054 2164.52 383.401 Q2161.81 388.713 2161.81 399.408 Q2161.81 410.067 2164.52 415.415 Q2167.26 420.727 2172.68 420.727 Q2178.13 420.727 2180.84 415.415 Q2183.58 410.067 2183.58 399.408 Q2183.58 388.713 2180.84 383.401 Q2178.13 378.054 2172.68 378.054 M2172.68 372.498 Q2181.39 372.498 2185.97 379.408 Q2190.59 386.283 2190.59 399.408 Q2190.59 412.498 2185.97 419.408 Q2181.39 426.283 2172.68 426.283 Q2163.96 426.283 2159.34 419.408 Q2154.76 412.498 2154.76 399.408 Q2154.76 386.283 2159.34 379.408 Q2163.96 372.498 2172.68 372.498 Z" fill="#000000" fill-rule="evenodd" fill-opacity="1" /><path clip-path="url(#clip710)" d="M2217.92 378.054 Q2212.5 378.054 2209.76 383.401 Q2207.05 388.713 2207.05 399.408 Q2207.05 410.067 2209.76 415.415 Q2212.5 420.727 2217.92 420.727 Q2223.37 420.727 2226.08 415.415 Q2228.82 410.067 2228.82 399.408 Q2228.82 388.713 2226.08 383.401 Q2223.37 378.054 2217.92 378.054 M2217.92 372.498 Q2226.63 372.498 2231.22 379.408 Q2235.83 386.283 2235.83 399.408 Q2235.83 412.498 2231.22 419.408 Q2226.63 426.283 2217.92 426.283 Q2209.2 426.283 2204.58 419.408 Q2200 412.498 2200 399.408 Q2200 386.283 2204.58 379.408 Q2209.2 372.498 2217.92 372.498 Z" fill="#000000" fill-rule="evenodd" fill-opacity="1" /><path clip-path="url(#clip710)" d="M2246.25 371.318 L2251.81 371.318 Q2257.02 379.512 2259.58 387.359 Q2262.19 395.206 2262.19 402.949 Q2262.19 410.727 2259.58 418.609 Q2257.02 426.491 2251.81 434.651 L2246.25 434.651 Q2250.87 426.699 2253.13 418.852 Q2255.42 410.97 2255.42 402.949 Q2255.42 394.929 2253.13 387.116 Q2250.87 379.304 2246.25 371.318 Z" fill="#000000" fill-rule="evenodd" fill-opacity="1" /></svg>
