<?xml version="1.0" encoding="utf-8"?>
<svg xmlns="http://www.w3.org/2000/svg" xmlns:xlink="http://www.w3.org/1999/xlink" width="600" height="400" viewBox="0 0 2400 1600">
<defs>
  <clipPath id="clip000">
    <rect x="0" y="0" width="2400" height="1600"/>
  </clipPath>
</defs>
<path clip-path="url(#clip000)" d="M0 1600 L2400 1600 L2400 0 L0 0  Z" fill="#ffffff" fill-rule="evenodd" fill-opacity="1"/>
<defs>
  <clipPath id="clip001">
    <rect x="480" y="0" width="1681" height="1600"/>
  </clipPath>
</defs>
<path clip-path="url(#clip000)" d="M303.503 1401.58 L2352.76 1401.58 L2352.76 123.472 L303.503 123.472  Z" fill="#ffffff" fill-rule="evenodd" fill-opacity="1"/>
<defs>
  <clipPath id="clip002">
    <rect x="303" y="123" width="2050" height="1279"/>
  </clipPath>
</defs>
<polyline clip-path="url(#clip002)" style="stroke:#000000; stroke-linecap:round; stroke-linejoin:round; stroke-width:2; stroke-opacity:0.1; fill:none" points="361.501,1401.58 361.501,123.472 "/>
<polyline clip-path="url(#clip002)" style="stroke:#000000; stroke-linecap:round; stroke-linejoin:round; stroke-width:2; stroke-opacity:0.1; fill:none" points="844.815,1401.58 844.815,123.472 "/>
<polyline clip-path="url(#clip002)" style="stroke:#000000; stroke-linecap:round; stroke-linejoin:round; stroke-width:2; stroke-opacity:0.1; fill:none" points="1328.13,1401.58 1328.13,123.472 "/>
<polyline clip-path="url(#clip002)" style="stroke:#000000; stroke-linecap:round; stroke-linejoin:round; stroke-width:2; stroke-opacity:0.1; fill:none" points="1811.44,1401.58 1811.44,123.472 "/>
<polyline clip-path="url(#clip002)" style="stroke:#000000; stroke-linecap:round; stroke-linejoin:round; stroke-width:2; stroke-opacity:0.1; fill:none" points="2294.76,1401.58 2294.76,123.472 "/>
<polyline clip-path="url(#clip000)" style="stroke:#000000; stroke-linecap:round; stroke-linejoin:round; stroke-width:4; stroke-opacity:1; fill:none" points="303.503,1401.58 2352.76,1401.58 "/>
<polyline clip-path="url(#clip000)" style="stroke:#000000; stroke-linecap:round; stroke-linejoin:round; stroke-width:4; stroke-opacity:1; fill:none" points="361.501,1401.58 361.501,1382.68 "/>
<polyline clip-path="url(#clip000)" style="stroke:#000000; stroke-linecap:round; stroke-linejoin:round; stroke-width:4; stroke-opacity:1; fill:none" points="844.815,1401.58 844.815,1382.68 "/>
<polyline clip-path="url(#clip000)" style="stroke:#000000; stroke-linecap:round; stroke-linejoin:round; stroke-width:4; stroke-opacity:1; fill:none" points="1328.13,1401.58 1328.13,1382.68 "/>
<polyline clip-path="url(#clip000)" style="stroke:#000000; stroke-linecap:round; stroke-linejoin:round; stroke-width:4; stroke-opacity:1; fill:none" points="1811.44,1401.58 1811.44,1382.68 "/>
<polyline clip-path="url(#clip000)" style="stroke:#000000; stroke-linecap:round; stroke-linejoin:round; stroke-width:4; stroke-opacity:1; fill:none" points="2294.76,1401.58 2294.76,1382.68 "/>
<path clip-path="url(#clip000)" d="M361.501 1438.36 Q356.084 1438.36 353.341 1443.71 Q350.633 1449.02 350.633 1459.71 Q350.633 1470.37 353.341 1475.72 Q356.084 1481.03 361.501 1481.03 Q366.952 1481.03 369.66 1475.72 Q372.403 1470.37 372.403 1459.71 Q372.403 1449.02 369.66 1443.71 Q366.952 1438.36 361.501 1438.36 M361.501 1432.8 Q370.216 1432.8 374.799 1439.71 Q379.417 1446.59 379.417 1459.71 Q379.417 1472.8 374.799 1479.71 Q370.216 1486.59 361.501 1486.59 Q352.785 1486.59 348.167 1479.71 Q343.584 1472.8 343.584 1459.71 Q343.584 1446.59 348.167 1439.71 Q352.785 1432.8 361.501 1432.8 Z" fill="#000000" fill-rule="nonzero" fill-opacity="1" /><path clip-path="url(#clip000)" d="M830.388 1479.68 L841.846 1479.68 L841.846 1440.13 L829.381 1442.63 L829.381 1436.24 L841.777 1433.74 L848.791 1433.74 L848.791 1479.68 L860.249 1479.68 L860.249 1485.58 L830.388 1485.58 L830.388 1479.68 Z" fill="#000000" fill-rule="nonzero" fill-opacity="1" /><path clip-path="url(#clip000)" d="M1320.11 1479.68 L1344.59 1479.68 L1344.59 1485.58 L1311.67 1485.58 L1311.67 1479.68 Q1315.66 1475.55 1322.54 1468.6 Q1329.45 1461.62 1331.22 1459.61 Q1334.59 1455.82 1335.91 1453.22 Q1337.26 1450.58 1337.26 1448.05 Q1337.26 1443.91 1334.34 1441.31 Q1331.46 1438.71 1326.81 1438.71 Q1323.51 1438.71 1319.83 1439.85 Q1316.19 1441 1312.02 1443.32 L1312.02 1436.24 Q1316.25 1434.54 1319.94 1433.67 Q1323.62 1432.8 1326.67 1432.8 Q1334.73 1432.8 1339.52 1436.83 Q1344.31 1440.86 1344.31 1447.59 Q1344.31 1450.79 1343.09 1453.67 Q1341.91 1456.52 1338.75 1460.41 Q1337.89 1461.41 1333.23 1466.24 Q1328.58 1471.03 1320.11 1479.68 Z" fill="#000000" fill-rule="nonzero" fill-opacity="1" /><path clip-path="url(#clip000)" d="M1817.82 1457.63 Q1822.85 1458.7 1825.66 1462.11 Q1828.51 1465.51 1828.51 1470.51 Q1828.51 1478.18 1823.23 1482.39 Q1817.95 1486.59 1808.23 1486.59 Q1804.97 1486.59 1801.5 1485.93 Q1798.06 1485.3 1794.38 1484.02 L1794.38 1477.25 Q1797.29 1478.95 1800.77 1479.82 Q1804.24 1480.68 1808.02 1480.68 Q1814.62 1480.68 1818.06 1478.08 Q1821.53 1475.48 1821.53 1470.51 Q1821.53 1465.93 1818.3 1463.36 Q1815.11 1460.75 1809.38 1460.75 L1803.34 1460.75 L1803.34 1454.99 L1809.66 1454.99 Q1814.83 1454.99 1817.57 1452.94 Q1820.32 1450.86 1820.32 1446.97 Q1820.32 1442.98 1817.47 1440.86 Q1814.66 1438.71 1809.38 1438.71 Q1806.5 1438.71 1803.2 1439.33 Q1799.9 1439.96 1795.94 1441.27 L1795.94 1435.02 Q1799.93 1433.91 1803.41 1433.36 Q1806.91 1432.8 1810 1432.8 Q1817.99 1432.8 1822.64 1436.45 Q1827.29 1440.06 1827.29 1446.24 Q1827.29 1450.55 1824.83 1453.53 Q1822.36 1456.48 1817.82 1457.63 Z" fill="#000000" fill-rule="nonzero" fill-opacity="1" /><path clip-path="url(#clip000)" d="M2299.27 1439.85 L2281.56 1467.52 L2299.27 1467.52 L2299.27 1439.85 M2297.43 1433.74 L2306.25 1433.74 L2306.25 1467.52 L2313.65 1467.52 L2313.65 1473.36 L2306.25 1473.36 L2306.25 1485.58 L2299.27 1485.58 L2299.27 1473.36 L2275.87 1473.36 L2275.87 1466.59 L2297.43 1433.74 Z" fill="#000000" fill-rule="nonzero" fill-opacity="1" /><path clip-path="url(#clip000)" d="M1271.74 1527.62 L1271.74 1538.66 L1284.9 1538.66 L1284.9 1543.62 L1271.74 1543.62 L1271.74 1564.74 Q1271.74 1569.49 1273.03 1570.85 Q1274.35 1572.2 1278.34 1572.2 L1284.9 1572.2 L1284.9 1577.55 L1278.34 1577.55 Q1270.94 1577.55 1268.13 1574.8 Q1265.32 1572.03 1265.32 1564.74 L1265.32 1543.62 L1260.63 1543.62 L1260.63 1538.66 L1265.32 1538.66 L1265.32 1527.62 L1271.74 1527.62 Z" fill="#000000" fill-rule="nonzero" fill-opacity="1" /><path clip-path="url(#clip000)" d="M1315.32 1523.52 L1330.04 1523.52 L1330.04 1528.49 L1321.71 1528.49 L1321.71 1581.96 L1330.04 1581.96 L1330.04 1586.92 L1315.32 1586.92 L1315.32 1523.52 Z" fill="#000000" fill-rule="nonzero" fill-opacity="1" /><path clip-path="url(#clip000)" d="M1368.44 1539.8 L1368.44 1545.85 Q1365.73 1544.46 1362.82 1543.76 Q1359.9 1543.07 1356.78 1543.07 Q1352.02 1543.07 1349.62 1544.53 Q1347.26 1545.99 1347.26 1548.9 Q1347.26 1551.12 1348.96 1552.41 Q1350.66 1553.66 1355.8 1554.8 L1357.99 1555.29 Q1364.8 1556.75 1367.64 1559.42 Q1370.53 1562.06 1370.53 1566.82 Q1370.53 1572.24 1366.22 1575.4 Q1361.95 1578.55 1354.45 1578.55 Q1351.32 1578.55 1347.92 1577.93 Q1344.55 1577.34 1340.8 1576.12 L1340.8 1569.53 Q1344.34 1571.37 1347.78 1572.3 Q1351.22 1573.21 1354.59 1573.21 Q1359.1 1573.21 1361.53 1571.68 Q1363.96 1570.12 1363.96 1567.3 Q1363.96 1564.7 1362.19 1563.31 Q1360.46 1561.92 1354.52 1560.64 L1352.3 1560.12 Q1346.36 1558.87 1343.72 1556.3 Q1341.08 1553.69 1341.08 1549.18 Q1341.08 1543.69 1344.97 1540.71 Q1348.86 1537.72 1356.01 1537.72 Q1359.55 1537.72 1362.68 1538.24 Q1365.8 1538.76 1368.44 1539.8 Z" fill="#000000" fill-rule="nonzero" fill-opacity="1" /><path clip-path="url(#clip000)" d="M1395.63 1523.52 L1395.63 1586.92 L1380.91 1586.92 L1380.91 1581.96 L1389.21 1581.96 L1389.21 1528.49 L1380.91 1528.49 L1380.91 1523.52 L1395.63 1523.52 Z" fill="#000000" fill-rule="nonzero" fill-opacity="1" /><polyline clip-path="url(#clip002)" style="stroke:#000000; stroke-linecap:round; stroke-linejoin:round; stroke-width:2; stroke-opacity:0.1; fill:none" points="303.503,1389.46 2352.76,1389.46 "/>
<polyline clip-path="url(#clip002)" style="stroke:#000000; stroke-linecap:round; stroke-linejoin:round; stroke-width:2; stroke-opacity:0.1; fill:none" points="303.503,1106.08 2352.76,1106.08 "/>
<polyline clip-path="url(#clip002)" style="stroke:#000000; stroke-linecap:round; stroke-linejoin:round; stroke-width:2; stroke-opacity:0.1; fill:none" points="303.503,822.695 2352.76,822.695 "/>
<polyline clip-path="url(#clip002)" style="stroke:#000000; stroke-linecap:round; stroke-linejoin:round; stroke-width:2; stroke-opacity:0.1; fill:none" points="303.503,539.311 2352.76,539.311 "/>
<polyline clip-path="url(#clip002)" style="stroke:#000000; stroke-linecap:round; stroke-linejoin:round; stroke-width:2; stroke-opacity:0.1; fill:none" points="303.503,255.927 2352.76,255.927 "/>
<polyline clip-path="url(#clip000)" style="stroke:#000000; stroke-linecap:round; stroke-linejoin:round; stroke-width:4; stroke-opacity:1; fill:none" points="303.503,1401.58 303.503,123.472 "/>
<polyline clip-path="url(#clip000)" style="stroke:#000000; stroke-linecap:round; stroke-linejoin:round; stroke-width:4; stroke-opacity:1; fill:none" points="303.503,1389.46 322.401,1389.46 "/>
<polyline clip-path="url(#clip000)" style="stroke:#000000; stroke-linecap:round; stroke-linejoin:round; stroke-width:4; stroke-opacity:1; fill:none" points="303.503,1106.08 322.401,1106.08 "/>
<polyline clip-path="url(#clip000)" style="stroke:#000000; stroke-linecap:round; stroke-linejoin:round; stroke-width:4; stroke-opacity:1; fill:none" points="303.503,822.695 322.401,822.695 "/>
<polyline clip-path="url(#clip000)" style="stroke:#000000; stroke-linecap:round; stroke-linejoin:round; stroke-width:4; stroke-opacity:1; fill:none" points="303.503,539.311 322.401,539.311 "/>
<polyline clip-path="url(#clip000)" style="stroke:#000000; stroke-linecap:round; stroke-linejoin:round; stroke-width:4; stroke-opacity:1; fill:none" points="303.503,255.927 322.401,255.927 "/>
<path clip-path="url(#clip000)" d="M136.497 1368.16 Q131.08 1368.16 128.337 1373.51 Q125.629 1378.82 125.629 1389.51 Q125.629 1400.17 128.337 1405.52 Q131.08 1410.83 136.497 1410.83 Q141.948 1410.83 144.656 1405.52 Q147.399 1400.17 147.399 1389.51 Q147.399 1378.82 144.656 1373.51 Q141.948 1368.16 136.497 1368.16 M136.497 1362.6 Q145.212 1362.6 149.795 1369.51 Q154.413 1376.39 154.413 1389.51 Q154.413 1402.6 149.795 1409.51 Q145.212 1416.39 136.497 1416.39 Q127.781 1416.39 123.163 1409.51 Q118.58 1402.6 118.58 1389.51 Q118.58 1376.39 123.163 1369.51 Q127.781 1362.6 136.497 1362.6 Z" fill="#000000" fill-rule="nonzero" fill-opacity="1" /><path clip-path="url(#clip000)" d="M166.74 1406.56 L174.066 1406.56 L174.066 1415.38 L166.74 1415.38 L166.74 1406.56 Z" fill="#000000" fill-rule="nonzero" fill-opacity="1" /><path clip-path="url(#clip000)" d="M189.413 1363.54 L216.948 1363.54 L216.948 1369.45 L195.837 1369.45 L195.837 1382.15 Q197.364 1381.63 198.892 1381.39 Q200.42 1381.11 201.948 1381.11 Q210.628 1381.11 215.698 1385.87 Q220.767 1390.63 220.767 1398.75 Q220.767 1407.12 215.559 1411.77 Q210.35 1416.39 200.871 1416.39 Q197.608 1416.39 194.205 1415.83 Q190.837 1415.28 187.226 1414.17 L187.226 1407.12 Q190.351 1408.82 193.684 1409.65 Q197.017 1410.49 200.732 1410.49 Q206.739 1410.49 210.246 1407.33 Q213.753 1404.17 213.753 1398.75 Q213.753 1393.33 210.246 1390.17 Q206.739 1387.01 200.732 1387.01 Q197.92 1387.01 195.108 1387.64 Q192.33 1388.26 189.413 1389.58 L189.413 1363.54 Z" fill="#000000" fill-rule="nonzero" fill-opacity="1" /><path clip-path="url(#clip000)" d="M249.586 1368.16 Q244.17 1368.16 241.427 1373.51 Q238.718 1378.82 238.718 1389.51 Q238.718 1400.17 241.427 1405.52 Q244.17 1410.83 249.586 1410.83 Q255.038 1410.83 257.746 1405.52 Q260.489 1400.17 260.489 1389.51 Q260.489 1378.82 257.746 1373.51 Q255.038 1368.16 249.586 1368.16 M249.586 1362.6 Q258.302 1362.6 262.885 1369.51 Q267.503 1376.39 267.503 1389.51 Q267.503 1402.6 262.885 1409.51 Q258.302 1416.39 249.586 1416.39 Q240.871 1416.39 236.253 1409.51 Q231.67 1402.6 231.67 1389.51 Q231.67 1376.39 236.253 1369.51 Q240.871 1362.6 249.586 1362.6 Z" fill="#000000" fill-rule="nonzero" fill-opacity="1" /><path clip-path="url(#clip000)" d="M137.99 1084.78 Q132.573 1084.78 129.83 1090.12 Q127.122 1095.44 127.122 1106.13 Q127.122 1116.79 129.83 1122.14 Q132.573 1127.45 137.99 1127.45 Q143.441 1127.45 146.149 1122.14 Q148.892 1116.79 148.892 1106.13 Q148.892 1095.44 146.149 1090.12 Q143.441 1084.78 137.99 1084.78 M137.99 1079.22 Q146.705 1079.22 151.288 1086.13 Q155.906 1093.01 155.906 1106.13 Q155.906 1119.22 151.288 1126.13 Q146.705 1133.01 137.99 1133.01 Q129.275 1133.01 124.657 1126.13 Q120.073 1119.22 120.073 1106.13 Q120.073 1093.01 124.657 1086.13 Q129.275 1079.22 137.99 1079.22 Z" fill="#000000" fill-rule="nonzero" fill-opacity="1" /><path clip-path="url(#clip000)" d="M168.233 1123.18 L175.559 1123.18 L175.559 1132 L168.233 1132 L168.233 1123.18 Z" fill="#000000" fill-rule="nonzero" fill-opacity="1" /><path clip-path="url(#clip000)" d="M189.066 1080.16 L222.399 1080.16 L222.399 1083.14 L203.58 1132 L196.253 1132 L213.962 1086.06 L189.066 1086.06 L189.066 1080.16 Z" fill="#000000" fill-rule="nonzero" fill-opacity="1" /><path clip-path="url(#clip000)" d="M236.149 1080.16 L263.684 1080.16 L263.684 1086.06 L242.573 1086.06 L242.573 1098.77 Q244.1 1098.25 245.628 1098.01 Q247.156 1097.73 248.684 1097.73 Q257.364 1097.73 262.434 1102.48 Q267.503 1107.24 267.503 1115.37 Q267.503 1123.73 262.295 1128.39 Q257.086 1133.01 247.607 1133.01 Q244.343 1133.01 240.941 1132.45 Q237.573 1131.89 233.961 1130.78 L233.961 1123.73 Q237.086 1125.44 240.42 1126.27 Q243.753 1127.1 247.468 1127.1 Q253.475 1127.1 256.982 1123.94 Q260.489 1120.78 260.489 1115.37 Q260.489 1109.95 256.982 1106.79 Q253.475 1103.63 247.468 1103.63 Q244.656 1103.63 241.843 1104.26 Q239.066 1104.88 236.149 1106.2 L236.149 1080.16 Z" fill="#000000" fill-rule="nonzero" fill-opacity="1" /><path clip-path="url(#clip000)" d="M122.712 842.712 L134.17 842.712 L134.17 803.164 L121.705 805.664 L121.705 799.275 L134.101 796.775 L141.115 796.775 L141.115 842.712 L152.573 842.712 L152.573 848.615 L122.712 848.615 L122.712 842.712 Z" fill="#000000" fill-rule="nonzero" fill-opacity="1" /><path clip-path="url(#clip000)" d="M166.74 839.795 L174.066 839.795 L174.066 848.615 L166.74 848.615 L166.74 839.795 Z" fill="#000000" fill-rule="nonzero" fill-opacity="1" /><path clip-path="url(#clip000)" d="M204.344 801.393 Q198.927 801.393 196.184 806.74 Q193.476 812.053 193.476 822.747 Q193.476 833.407 196.184 838.754 Q198.927 844.066 204.344 844.066 Q209.795 844.066 212.503 838.754 Q215.246 833.407 215.246 822.747 Q215.246 812.053 212.503 806.74 Q209.795 801.393 204.344 801.393 M204.344 795.837 Q213.059 795.837 217.642 802.747 Q222.26 809.622 222.26 822.747 Q222.26 835.837 217.642 842.747 Q213.059 849.622 204.344 849.622 Q195.628 849.622 191.01 842.747 Q186.427 835.837 186.427 822.747 Q186.427 809.622 191.01 802.747 Q195.628 795.837 204.344 795.837 Z" fill="#000000" fill-rule="nonzero" fill-opacity="1" /><path clip-path="url(#clip000)" d="M249.586 801.393 Q244.17 801.393 241.427 806.74 Q238.718 812.053 238.718 822.747 Q238.718 833.407 241.427 838.754 Q244.17 844.066 249.586 844.066 Q255.038 844.066 257.746 838.754 Q260.489 833.407 260.489 822.747 Q260.489 812.053 257.746 806.74 Q255.038 801.393 249.586 801.393 M249.586 795.837 Q258.302 795.837 262.885 802.747 Q267.503 809.622 267.503 822.747 Q267.503 835.837 262.885 842.747 Q258.302 849.622 249.586 849.622 Q240.871 849.622 236.253 842.747 Q231.67 835.837 231.67 822.747 Q231.67 809.622 236.253 802.747 Q240.871 795.837 249.586 795.837 Z" fill="#000000" fill-rule="nonzero" fill-opacity="1" /><path clip-path="url(#clip000)" d="M124.205 559.328 L135.663 559.328 L135.663 519.78 L123.198 522.28 L123.198 515.891 L135.594 513.391 L142.608 513.391 L142.608 559.328 L154.066 559.328 L154.066 565.231 L124.205 565.231 L124.205 559.328 Z" fill="#000000" fill-rule="nonzero" fill-opacity="1" /><path clip-path="url(#clip000)" d="M168.233 556.412 L175.559 556.412 L175.559 565.231 L168.233 565.231 L168.233 556.412 Z" fill="#000000" fill-rule="nonzero" fill-opacity="1" /><path clip-path="url(#clip000)" d="M196.878 559.328 L221.357 559.328 L221.357 565.231 L188.441 565.231 L188.441 559.328 Q192.434 555.196 199.309 548.252 Q206.219 541.273 207.989 539.259 Q211.357 535.474 212.677 532.87 Q214.031 530.231 214.031 527.697 Q214.031 523.565 211.114 520.961 Q208.232 518.356 203.58 518.356 Q200.281 518.356 196.601 519.502 Q192.955 520.648 188.788 522.974 L188.788 515.891 Q193.024 514.19 196.705 513.322 Q200.385 512.454 203.441 512.454 Q211.496 512.454 216.288 516.481 Q221.08 520.509 221.08 527.245 Q221.08 530.44 219.864 533.322 Q218.684 536.169 215.524 540.058 Q214.656 541.065 210.003 545.891 Q205.351 550.683 196.878 559.328 Z" fill="#000000" fill-rule="nonzero" fill-opacity="1" /><path clip-path="url(#clip000)" d="M236.149 513.391 L263.684 513.391 L263.684 519.294 L242.573 519.294 L242.573 532.002 Q244.1 531.481 245.628 531.238 Q247.156 530.961 248.684 530.961 Q257.364 530.961 262.434 535.717 Q267.503 540.474 267.503 548.599 Q267.503 556.967 262.295 561.62 Q257.086 566.238 247.607 566.238 Q244.343 566.238 240.941 565.683 Q237.573 565.127 233.961 564.016 L233.961 556.967 Q237.086 558.669 240.42 559.502 Q243.753 560.335 247.468 560.335 Q253.475 560.335 256.982 557.176 Q260.489 554.016 260.489 548.599 Q260.489 543.183 256.982 540.023 Q253.475 536.863 247.468 536.863 Q244.656 536.863 241.843 537.488 Q239.066 538.113 236.149 539.433 L236.149 513.391 Z" fill="#000000" fill-rule="nonzero" fill-opacity="1" /><path clip-path="url(#clip000)" d="M122.712 275.945 L134.17 275.945 L134.17 236.396 L121.705 238.896 L121.705 232.507 L134.101 230.007 L141.115 230.007 L141.115 275.945 L152.573 275.945 L152.573 281.847 L122.712 281.847 L122.712 275.945 Z" fill="#000000" fill-rule="nonzero" fill-opacity="1" /><path clip-path="url(#clip000)" d="M166.74 273.028 L174.066 273.028 L174.066 281.847 L166.74 281.847 L166.74 273.028 Z" fill="#000000" fill-rule="nonzero" fill-opacity="1" /><path clip-path="url(#clip000)" d="M189.413 230.007 L216.948 230.007 L216.948 235.91 L195.837 235.91 L195.837 248.618 Q197.364 248.098 198.892 247.855 Q200.42 247.577 201.948 247.577 Q210.628 247.577 215.698 252.334 Q220.767 257.091 220.767 265.216 Q220.767 273.584 215.559 278.236 Q210.35 282.854 200.871 282.854 Q197.608 282.854 194.205 282.299 Q190.837 281.743 187.226 280.632 L187.226 273.584 Q190.351 275.285 193.684 276.118 Q197.017 276.952 200.732 276.952 Q206.739 276.952 210.246 273.792 Q213.753 270.632 213.753 265.216 Q213.753 259.799 210.246 256.639 Q206.739 253.48 200.732 253.48 Q197.92 253.48 195.108 254.105 Q192.33 254.73 189.413 256.049 L189.413 230.007 Z" fill="#000000" fill-rule="nonzero" fill-opacity="1" /><path clip-path="url(#clip000)" d="M249.586 234.625 Q244.17 234.625 241.427 239.973 Q238.718 245.285 238.718 255.98 Q238.718 266.639 241.427 271.986 Q244.17 277.299 249.586 277.299 Q255.038 277.299 257.746 271.986 Q260.489 266.639 260.489 255.98 Q260.489 245.285 257.746 239.973 Q255.038 234.625 249.586 234.625 M249.586 229.07 Q258.302 229.07 262.885 235.98 Q267.503 242.855 267.503 255.98 Q267.503 269.07 262.885 275.979 Q258.302 282.854 249.586 282.854 Q240.871 282.854 236.253 275.979 Q231.67 269.07 231.67 255.98 Q231.67 242.855 236.253 235.98 Q240.871 229.07 249.586 229.07 Z" fill="#000000" fill-rule="nonzero" fill-opacity="1" /><path clip-path="url(#clip000)" d="M35.6047 1045.01 Q31.2992 1042.61 29.2506 1039.28 Q27.202 1035.94 27.202 1031.43 Q27.202 1025.35 31.4728 1022.06 Q35.7089 1018.76 43.5561 1018.76 L67.0282 1018.76 L67.0282 1025.18 L43.7644 1025.18 Q38.1741 1025.18 35.4658 1027.16 Q32.7575 1029.14 32.7575 1033.2 Q32.7575 1038.17 36.0561 1041.05 Q39.3547 1043.93 45.0491 1043.93 L67.0282 1043.93 L67.0282 1050.35 L43.7644 1050.35 Q38.1394 1050.35 35.4658 1052.33 Q32.7575 1054.31 32.7575 1058.44 Q32.7575 1063.34 36.0908 1066.22 Q39.3894 1069.1 45.0491 1069.1 L67.0282 1069.1 L67.0282 1075.53 L28.1395 1075.53 L28.1395 1069.1 L34.1811 1069.1 Q30.6047 1066.92 28.9034 1063.86 Q27.202 1060.81 27.202 1056.6 Q27.202 1052.37 29.3547 1049.42 Q31.5075 1046.43 35.6047 1045.01 Z" fill="#000000" fill-rule="nonzero" fill-opacity="1" /><path clip-path="url(#clip000)" d="M47.4797 988.341 Q47.4797 996.084 49.2505 999.07 Q51.0213 1002.06 55.2921 1002.06 Q58.6949 1002.06 60.7087 999.834 Q62.6879 997.577 62.6879 993.723 Q62.6879 988.41 58.9379 985.216 Q55.1532 981.987 48.9033 981.987 L47.4797 981.987 L47.4797 988.341 M44.8408 975.598 L67.0282 975.598 L67.0282 981.987 L61.1254 981.987 Q64.6671 984.174 66.3684 987.438 Q68.0351 990.702 68.0351 995.424 Q68.0351 1001.4 64.7018 1004.94 Q61.3337 1008.44 55.7088 1008.44 Q49.1463 1008.44 45.813 1004.07 Q42.4797 999.66 42.4797 990.945 L42.4797 981.987 L41.8547 981.987 Q37.445 981.987 35.0492 984.903 Q32.6186 987.785 32.6186 993.028 Q32.6186 996.362 33.4172 999.521 Q34.2158 1002.68 35.813 1005.6 L29.9103 1005.6 Q28.5561 1002.09 27.8964 998.792 Q27.202 995.493 27.202 992.369 Q27.202 983.931 31.577 979.764 Q35.9519 975.598 44.8408 975.598 Z" fill="#000000" fill-rule="nonzero" fill-opacity="1" /><path clip-path="url(#clip000)" d="M29.2853 937.647 L35.3269 937.647 Q33.9381 940.355 33.2436 943.272 Q32.5492 946.188 32.5492 949.313 Q32.5492 954.07 34.0075 956.466 Q35.4658 958.827 38.3825 958.827 Q40.6047 958.827 41.8894 957.126 Q43.1394 955.424 44.2852 950.285 L44.7713 948.098 Q46.2297 941.292 48.9033 938.445 Q51.5421 935.563 56.299 935.563 Q61.7157 935.563 64.8754 939.869 Q68.0351 944.14 68.0351 951.64 Q68.0351 954.765 67.4101 958.167 Q66.8198 961.535 65.6046 965.285 L59.0074 965.285 Q60.8476 961.744 61.7851 958.306 Q62.6879 954.869 62.6879 951.501 Q62.6879 946.987 61.1601 944.556 Q59.5976 942.126 56.7852 942.126 Q54.181 942.126 52.7921 943.897 Q51.4032 945.633 50.1185 951.57 L49.5977 953.792 Q48.3477 959.73 45.7783 962.369 Q43.1741 965.008 38.6603 965.008 Q33.1742 965.008 30.1881 961.119 Q27.202 957.23 27.202 950.077 Q27.202 946.535 27.7228 943.41 Q28.2436 940.285 29.2853 937.647 Z" fill="#000000" fill-rule="nonzero" fill-opacity="1" /><path clip-path="url(#clip000)" d="M29.2853 900.598 L35.3269 900.598 Q33.9381 903.306 33.2436 906.223 Q32.5492 909.14 32.5492 912.265 Q32.5492 917.022 34.0075 919.418 Q35.4658 921.779 38.3825 921.779 Q40.6047 921.779 41.8894 920.077 Q43.1394 918.376 44.2852 913.237 L44.7713 911.049 Q46.2297 904.244 48.9033 901.397 Q51.5421 898.515 56.299 898.515 Q61.7157 898.515 64.8754 902.82 Q68.0351 907.091 68.0351 914.591 Q68.0351 917.716 67.4101 921.119 Q66.8198 924.487 65.6046 928.237 L59.0074 928.237 Q60.8476 924.695 61.7851 921.258 Q62.6879 917.82 62.6879 914.452 Q62.6879 909.938 61.1601 907.508 Q59.5976 905.077 56.7852 905.077 Q54.181 905.077 52.7921 906.848 Q51.4032 908.584 50.1185 914.522 L49.5977 916.744 Q48.3477 922.681 45.7783 925.32 Q43.1741 927.959 38.6603 927.959 Q33.1742 927.959 30.1881 924.07 Q27.202 920.181 27.202 913.029 Q27.202 909.487 27.7228 906.362 Q28.2436 903.237 29.2853 900.598 Z" fill="#000000" fill-rule="nonzero" fill-opacity="1" /><path clip-path="url(#clip000)" d="M61.1949 859.557 L81.8197 859.557 L81.8197 865.98 L28.1395 865.98 L28.1395 859.557 L34.0422 859.557 Q30.57 857.543 28.9034 854.487 Q27.202 851.397 27.202 847.126 Q27.202 840.043 32.827 835.633 Q38.4519 831.189 47.6185 831.189 Q56.7852 831.189 62.4101 835.633 Q68.0351 840.043 68.0351 847.126 Q68.0351 851.397 66.3684 854.487 Q64.6671 857.543 61.1949 859.557 M47.6185 837.821 Q40.57 837.821 36.5769 840.737 Q32.5492 843.619 32.5492 848.689 Q32.5492 853.758 36.5769 856.675 Q40.57 859.557 47.6185 859.557 Q54.6671 859.557 58.6949 856.675 Q62.6879 853.758 62.6879 848.689 Q62.6879 843.619 58.6949 840.737 Q54.6671 837.821 47.6185 837.821 Z" fill="#000000" fill-rule="nonzero" fill-opacity="1" /><path clip-path="url(#clip000)" d="M32.6186 805.529 Q32.6186 810.668 36.6464 813.654 Q40.6394 816.64 47.6185 816.64 Q54.5977 816.64 58.6254 813.689 Q62.6185 810.703 62.6185 805.529 Q62.6185 800.425 58.5907 797.439 Q54.5629 794.453 47.6185 794.453 Q40.7089 794.453 36.6811 797.439 Q32.6186 800.425 32.6186 805.529 M27.202 805.529 Q27.202 797.196 32.6186 792.439 Q38.0353 787.682 47.6185 787.682 Q57.1671 787.682 62.6185 792.439 Q68.0351 797.196 68.0351 805.529 Q68.0351 813.897 62.6185 818.654 Q57.1671 823.376 47.6185 823.376 Q38.0353 823.376 32.6186 818.654 Q27.202 813.897 27.202 805.529 Z" fill="#000000" fill-rule="nonzero" fill-opacity="1" /><path clip-path="url(#clip000)" d="M29.2853 752.3 L35.3269 752.3 Q33.9381 755.009 33.2436 757.925 Q32.5492 760.842 32.5492 763.967 Q32.5492 768.724 34.0075 771.12 Q35.4658 773.481 38.3825 773.481 Q40.6047 773.481 41.8894 771.779 Q43.1394 770.078 44.2852 764.939 L44.7713 762.752 Q46.2297 755.946 48.9033 753.099 Q51.5421 750.217 56.299 750.217 Q61.7157 750.217 64.8754 754.523 Q68.0351 758.793 68.0351 766.293 Q68.0351 769.418 67.4101 772.821 Q66.8198 776.189 65.6046 779.939 L59.0074 779.939 Q60.8476 776.397 61.7851 772.96 Q62.6879 769.522 62.6879 766.154 Q62.6879 761.641 61.1601 759.21 Q59.5976 756.779 56.7852 756.779 Q54.181 756.779 52.7921 758.55 Q51.4032 760.286 50.1185 766.224 L49.5977 768.446 Q48.3477 774.384 45.7783 777.022 Q43.1741 779.661 38.6603 779.661 Q33.1742 779.661 30.1881 775.772 Q27.202 771.884 27.202 764.731 Q27.202 761.189 27.7228 758.064 Q28.2436 754.939 29.2853 752.3 Z" fill="#000000" fill-rule="nonzero" fill-opacity="1" /><path clip-path="url(#clip000)" d="M28.1395 740.043 L28.1395 733.655 L67.0282 733.655 L67.0282 740.043 L28.1395 740.043 M13.0007 740.043 L13.0007 733.655 L21.0909 733.655 L21.0909 740.043 L13.0007 740.043 Z" fill="#000000" fill-rule="nonzero" fill-opacity="1" /><path clip-path="url(#clip000)" d="M17.0979 713.967 L28.1395 713.967 L28.1395 700.808 L33.1047 700.808 L33.1047 713.967 L54.2157 713.967 Q58.9726 713.967 60.3268 712.683 Q61.681 711.363 61.681 707.37 L61.681 700.808 L67.0282 700.808 L67.0282 707.37 Q67.0282 714.766 64.2851 717.578 Q61.5074 720.391 54.2157 720.391 L33.1047 720.391 L33.1047 725.078 L28.1395 725.078 L28.1395 720.391 L17.0979 720.391 L17.0979 713.967 Z" fill="#000000" fill-rule="nonzero" fill-opacity="1" /><path clip-path="url(#clip000)" d="M28.1395 692.405 L28.1395 686.016 L67.0282 686.016 L67.0282 692.405 L28.1395 692.405 M13.0007 692.405 L13.0007 686.016 L21.0909 686.016 L21.0909 692.405 L13.0007 692.405 Z" fill="#000000" fill-rule="nonzero" fill-opacity="1" /><path clip-path="url(#clip000)" d="M32.6186 657.579 Q32.6186 662.717 36.6464 665.704 Q40.6394 668.69 47.6185 668.69 Q54.5977 668.69 58.6254 665.738 Q62.6185 662.752 62.6185 657.579 Q62.6185 652.474 58.5907 649.488 Q54.5629 646.502 47.6185 646.502 Q40.7089 646.502 36.6811 649.488 Q32.6186 652.474 32.6186 657.579 M27.202 657.579 Q27.202 649.245 32.6186 644.488 Q38.0353 639.732 47.6185 639.732 Q57.1671 639.732 62.6185 644.488 Q68.0351 649.245 68.0351 657.579 Q68.0351 665.947 62.6185 670.704 Q57.1671 675.426 47.6185 675.426 Q38.0353 675.426 32.6186 670.704 Q27.202 665.947 27.202 657.579 Z" fill="#000000" fill-rule="nonzero" fill-opacity="1" /><path clip-path="url(#clip000)" d="M43.5561 596.815 L67.0282 596.815 L67.0282 603.204 L43.7644 603.204 Q38.2436 603.204 35.5005 605.357 Q32.7575 607.509 32.7575 611.815 Q32.7575 616.989 36.0561 619.975 Q39.3547 622.961 45.0491 622.961 L67.0282 622.961 L67.0282 629.384 L28.1395 629.384 L28.1395 622.961 L34.1811 622.961 Q30.6742 620.669 28.9381 617.579 Q27.202 614.454 27.202 610.391 Q27.202 603.69 31.3686 600.253 Q35.5005 596.815 43.5561 596.815 Z" fill="#000000" fill-rule="nonzero" fill-opacity="1" /><path clip-path="url(#clip000)" d="M13.0007 562.058 L13.0007 547.336 L17.9659 547.336 L17.9659 555.669 L71.4379 555.669 L71.4379 547.336 L76.4031 547.336 L76.4031 562.058 L13.0007 562.058 Z" fill="#000000" fill-rule="nonzero" fill-opacity="1" /><path clip-path="url(#clip000)" d="M35.6047 503.448 Q31.2992 501.052 29.2506 497.718 Q27.202 494.385 27.202 489.871 Q27.202 483.795 31.4728 480.496 Q35.7089 477.198 43.5561 477.198 L67.0282 477.198 L67.0282 483.621 L43.7644 483.621 Q38.1741 483.621 35.4658 485.6 Q32.7575 487.58 32.7575 491.642 Q32.7575 496.607 36.0561 499.489 Q39.3547 502.371 45.0491 502.371 L67.0282 502.371 L67.0282 508.795 L43.7644 508.795 Q38.1394 508.795 35.4658 510.774 Q32.7575 512.753 32.7575 516.885 Q32.7575 521.781 36.0908 524.663 Q39.3894 527.545 45.0491 527.545 L67.0282 527.545 L67.0282 533.968 L28.1395 533.968 L28.1395 527.545 L34.1811 527.545 Q30.6047 525.357 28.9034 522.302 Q27.202 519.246 27.202 515.045 Q27.202 510.809 29.3547 507.857 Q31.5075 504.871 35.6047 503.448 Z" fill="#000000" fill-rule="nonzero" fill-opacity="1" /><path clip-path="url(#clip000)" d="M13.0007 449.524 L76.4031 449.524 L76.4031 464.246 L71.4379 464.246 L71.4379 455.948 L17.9659 455.948 L17.9659 464.246 L13.0007 464.246 L13.0007 449.524 Z" fill="#000000" fill-rule="nonzero" fill-opacity="1" /><path clip-path="url(#clip000)" d="M592.668 12.096 L604.861 12.096 L620.295 53.2532 L635.81 12.096 L648.003 12.096 L648.003 72.576 L640.023 72.576 L640.023 19.4686 L624.427 60.9499 L616.203 60.9499 L600.607 19.4686 L600.607 72.576 L592.668 72.576 L592.668 12.096 Z" fill="#000000" fill-rule="nonzero" fill-opacity="1" /><path clip-path="url(#clip000)" d="M681.504 32.4315 Q675.509 32.4315 672.025 37.1306 Q668.541 41.7891 668.541 49.9314 Q668.541 58.0738 671.984 62.7728 Q675.468 67.4314 681.504 67.4314 Q687.459 67.4314 690.942 62.7323 Q694.426 58.0333 694.426 49.9314 Q694.426 41.8701 690.942 37.1711 Q687.459 32.4315 681.504 32.4315 M681.504 26.1121 Q691.226 26.1121 696.776 32.4315 Q702.325 38.7509 702.325 49.9314 Q702.325 61.0714 696.776 67.4314 Q691.226 73.7508 681.504 73.7508 Q671.741 73.7508 666.191 67.4314 Q660.682 61.0714 660.682 49.9314 Q660.682 38.7509 666.191 32.4315 Q671.741 26.1121 681.504 26.1121 Z" fill="#000000" fill-rule="nonzero" fill-opacity="1" /><path clip-path="url(#clip000)" d="M744.536 34.0924 L744.536 9.54393 L751.99 9.54393 L751.99 72.576 L744.536 72.576 L744.536 65.7705 Q742.186 69.8214 738.581 71.8063 Q735.016 73.7508 729.993 73.7508 Q721.77 73.7508 716.585 67.1883 Q711.44 60.6258 711.44 49.9314 Q711.44 39.2371 716.585 32.6746 Q721.77 26.1121 729.993 26.1121 Q735.016 26.1121 738.581 28.0971 Q742.186 30.0415 744.536 34.0924 M719.137 49.9314 Q719.137 58.1548 722.499 62.8538 Q725.902 67.5124 731.816 67.5124 Q737.73 67.5124 741.133 62.8538 Q744.536 58.1548 744.536 49.9314 Q744.536 41.7081 741.133 37.0496 Q737.73 32.3505 731.816 32.3505 Q725.902 32.3505 722.499 37.0496 Q719.137 41.7081 719.137 49.9314 Z" fill="#000000" fill-rule="nonzero" fill-opacity="1" /><path clip-path="url(#clip000)" d="M767.343 27.2059 L774.796 27.2059 L774.796 72.576 L767.343 72.576 L767.343 27.2059 M767.343 9.54393 L774.796 9.54393 L774.796 18.9825 L767.343 18.9825 L767.343 9.54393 Z" fill="#000000" fill-rule="nonzero" fill-opacity="1" /><path clip-path="url(#clip000)" d="M813.361 9.54393 L813.361 15.7418 L806.231 15.7418 Q802.221 15.7418 800.641 17.3622 Q799.102 18.9825 799.102 23.1955 L799.102 27.2059 L811.376 27.2059 L811.376 32.9987 L799.102 32.9987 L799.102 72.576 L791.607 72.576 L791.607 32.9987 L784.478 32.9987 L784.478 27.2059 L791.607 27.2059 L791.607 24.0462 Q791.607 16.471 795.132 13.0277 Q798.656 9.54393 806.312 9.54393 L813.361 9.54393 Z" fill="#000000" fill-rule="nonzero" fill-opacity="1" /><path clip-path="url(#clip000)" d="M819.599 27.2059 L827.053 27.2059 L827.053 72.576 L819.599 72.576 L819.599 27.2059 M819.599 9.54393 L827.053 9.54393 L827.053 18.9825 L819.599 18.9825 L819.599 9.54393 Z" fill="#000000" fill-rule="nonzero" fill-opacity="1" /><path clip-path="url(#clip000)" d="M881.456 48.0275 L881.456 51.6733 L847.186 51.6733 Q847.672 59.3701 851.804 63.421 Q855.976 67.4314 863.389 67.4314 Q867.683 67.4314 871.694 66.3781 Q875.745 65.3249 879.715 63.2184 L879.715 70.267 Q875.704 71.9684 871.491 72.8596 Q867.278 73.7508 862.944 73.7508 Q852.087 73.7508 845.728 67.4314 Q839.408 61.1119 839.408 50.3365 Q839.408 39.1965 845.403 32.6746 Q851.439 26.1121 861.648 26.1121 Q870.803 26.1121 876.109 32.0264 Q881.456 37.9003 881.456 48.0275 M874.003 45.84 Q873.922 39.7232 870.56 36.0774 Q867.238 32.4315 861.729 32.4315 Q855.49 32.4315 851.723 35.9558 Q847.996 39.4801 847.429 45.8805 L874.003 45.84 Z" fill="#000000" fill-rule="nonzero" fill-opacity="1" /><path clip-path="url(#clip000)" d="M923.545 34.0924 L923.545 9.54393 L930.999 9.54393 L930.999 72.576 L923.545 72.576 L923.545 65.7705 Q921.196 69.8214 917.591 71.8063 Q914.026 73.7508 909.003 73.7508 Q900.779 73.7508 895.594 67.1883 Q890.449 60.6258 890.449 49.9314 Q890.449 39.2371 895.594 32.6746 Q900.779 26.1121 909.003 26.1121 Q914.026 26.1121 917.591 28.0971 Q921.196 30.0415 923.545 34.0924 M898.146 49.9314 Q898.146 58.1548 901.508 62.8538 Q904.911 67.5124 910.826 67.5124 Q916.74 67.5124 920.143 62.8538 Q923.545 58.1548 923.545 49.9314 Q923.545 41.7081 920.143 37.0496 Q916.74 32.3505 910.826 32.3505 Q904.911 32.3505 901.508 37.0496 Q898.146 41.7081 898.146 49.9314 Z" fill="#000000" fill-rule="nonzero" fill-opacity="1" /><path clip-path="url(#clip000)" d="M948.256 62.2867 L956.803 62.2867 L956.803 72.576 L948.256 72.576 L948.256 62.2867 M948.256 29.6769 L956.803 29.6769 L956.803 39.9662 L948.256 39.9662 L948.256 29.6769 Z" fill="#000000" fill-rule="nonzero" fill-opacity="1" /><path clip-path="url(#clip000)" d="M1001 12.096 L1013.19 12.096 L1028.63 53.2532 L1044.14 12.096 L1056.33 12.096 L1056.33 72.576 L1048.35 72.576 L1048.35 19.4686 L1032.76 60.9499 L1024.53 60.9499 L1008.94 19.4686 L1008.94 72.576 L1001 72.576 L1001 12.096 Z" fill="#000000" fill-rule="nonzero" fill-opacity="1" /><path clip-path="url(#clip000)" d="M1092.87 49.7694 Q1083.84 49.7694 1080.36 51.8354 Q1076.87 53.9013 1076.87 58.8839 Q1076.87 62.8538 1079.46 65.2034 Q1082.1 67.5124 1086.59 67.5124 Q1092.79 67.5124 1096.52 63.1374 Q1100.29 58.7219 1100.29 51.4303 L1100.29 49.7694 L1092.87 49.7694 M1107.74 46.6907 L1107.74 72.576 L1100.29 72.576 L1100.29 65.6895 Q1097.73 69.8214 1093.93 71.8063 Q1090.12 73.7508 1084.61 73.7508 Q1077.64 73.7508 1073.51 69.8619 Q1069.42 65.9325 1069.42 59.3701 Q1069.42 51.7138 1074.52 47.825 Q1079.67 43.9361 1089.83 43.9361 L1100.29 43.9361 L1100.29 43.2069 Q1100.29 38.0623 1096.88 35.2672 Q1093.52 32.4315 1087.4 32.4315 Q1083.52 32.4315 1079.83 33.3632 Q1076.14 34.295 1072.74 36.1584 L1072.74 29.2718 Q1076.83 27.692 1080.68 26.9223 Q1084.53 26.1121 1088.17 26.1121 Q1098.02 26.1121 1102.88 31.2163 Q1107.74 36.3204 1107.74 46.6907 Z" fill="#000000" fill-rule="nonzero" fill-opacity="1" /><path clip-path="url(#clip000)" d="M1152.02 28.5427 L1152.02 35.5912 Q1148.86 33.9709 1145.45 33.1607 Q1142.05 32.3505 1138.41 32.3505 Q1132.86 32.3505 1130.06 34.0519 Q1127.31 35.7533 1127.31 39.156 Q1127.31 41.7486 1129.29 43.2475 Q1131.28 44.7058 1137.27 46.0426 L1139.82 46.6097 Q1147.76 48.3111 1151.08 51.4303 Q1154.45 54.509 1154.45 60.0587 Q1154.45 66.3781 1149.42 70.0644 Q1144.44 73.7508 1135.69 73.7508 Q1132.05 73.7508 1128.08 73.0216 Q1124.15 72.3329 1119.77 70.9151 L1119.77 63.2184 Q1123.9 65.3654 1127.91 66.4591 Q1131.92 67.5124 1135.85 67.5124 Q1141.12 67.5124 1143.96 65.73 Q1146.79 63.9071 1146.79 60.6258 Q1146.79 57.5877 1144.72 55.9673 Q1142.7 54.3469 1135.77 52.8481 L1133.18 52.2405 Q1126.25 50.7821 1123.17 47.7845 Q1120.1 44.7463 1120.1 39.4801 Q1120.1 33.0797 1124.63 29.5959 Q1129.17 26.1121 1137.51 26.1121 Q1141.65 26.1121 1145.29 26.7198 Q1148.94 27.3274 1152.02 28.5427 Z" fill="#000000" fill-rule="nonzero" fill-opacity="1" /><path clip-path="url(#clip000)" d="M1195.24 28.5427 L1195.24 35.5912 Q1192.08 33.9709 1188.68 33.1607 Q1185.27 32.3505 1181.63 32.3505 Q1176.08 32.3505 1173.28 34.0519 Q1170.53 35.7533 1170.53 39.156 Q1170.53 41.7486 1172.51 43.2475 Q1174.5 44.7058 1180.49 46.0426 L1183.05 46.6097 Q1190.99 48.3111 1194.31 51.4303 Q1197.67 54.509 1197.67 60.0587 Q1197.67 66.3781 1192.65 70.0644 Q1187.66 73.7508 1178.91 73.7508 Q1175.27 73.7508 1171.3 73.0216 Q1167.37 72.3329 1162.99 70.9151 L1162.99 63.2184 Q1167.13 65.3654 1171.14 66.4591 Q1175.15 67.5124 1179.08 67.5124 Q1184.34 67.5124 1187.18 65.73 Q1190.01 63.9071 1190.01 60.6258 Q1190.01 57.5877 1187.95 55.9673 Q1185.92 54.3469 1179 52.8481 L1176.4 52.2405 Q1169.48 50.7821 1166.4 47.7845 Q1163.32 44.7463 1163.32 39.4801 Q1163.32 33.0797 1167.86 29.5959 Q1172.39 26.1121 1180.74 26.1121 Q1184.87 26.1121 1188.52 26.7198 Q1192.16 27.3274 1195.24 28.5427 Z" fill="#000000" fill-rule="nonzero" fill-opacity="1" /><path clip-path="url(#clip000)" d="M1243.12 65.7705 L1243.12 89.8329 L1235.63 89.8329 L1235.63 27.2059 L1243.12 27.2059 L1243.12 34.0924 Q1245.47 30.0415 1249.04 28.0971 Q1252.64 26.1121 1257.62 26.1121 Q1265.89 26.1121 1271.03 32.6746 Q1276.22 39.2371 1276.22 49.9314 Q1276.22 60.6258 1271.03 67.1883 Q1265.89 73.7508 1257.62 73.7508 Q1252.64 73.7508 1249.04 71.8063 Q1245.47 69.8214 1243.12 65.7705 M1268.48 49.9314 Q1268.48 41.7081 1265.08 37.0496 Q1261.71 32.3505 1255.8 32.3505 Q1249.89 32.3505 1246.48 37.0496 Q1243.12 41.7081 1243.12 49.9314 Q1243.12 58.1548 1246.48 62.8538 Q1249.89 67.5124 1255.8 67.5124 Q1261.71 67.5124 1265.08 62.8538 Q1268.48 58.1548 1268.48 49.9314 Z" fill="#000000" fill-rule="nonzero" fill-opacity="1" /><path clip-path="url(#clip000)" d="M1306.15 32.4315 Q1300.16 32.4315 1296.67 37.1306 Q1293.19 41.7891 1293.19 49.9314 Q1293.19 58.0738 1296.63 62.7728 Q1300.12 67.4314 1306.15 67.4314 Q1312.11 67.4314 1315.59 62.7323 Q1319.08 58.0333 1319.08 49.9314 Q1319.08 41.8701 1315.59 37.1711 Q1312.11 32.4315 1306.15 32.4315 M1306.15 26.1121 Q1315.88 26.1121 1321.43 32.4315 Q1326.97 38.7509 1326.97 49.9314 Q1326.97 61.0714 1321.43 67.4314 Q1315.88 73.7508 1306.15 73.7508 Q1296.39 73.7508 1290.84 67.4314 Q1285.33 61.0714 1285.33 49.9314 Q1285.33 38.7509 1290.84 32.4315 Q1296.39 26.1121 1306.15 26.1121 Z" fill="#000000" fill-rule="nonzero" fill-opacity="1" /><path clip-path="url(#clip000)" d="M1368.25 28.5427 L1368.25 35.5912 Q1365.09 33.9709 1361.69 33.1607 Q1358.29 32.3505 1354.64 32.3505 Q1349.09 32.3505 1346.3 34.0519 Q1343.54 35.7533 1343.54 39.156 Q1343.54 41.7486 1345.53 43.2475 Q1347.51 44.7058 1353.51 46.0426 L1356.06 46.6097 Q1364 48.3111 1367.32 51.4303 Q1370.68 54.509 1370.68 60.0587 Q1370.68 66.3781 1365.66 70.0644 Q1360.68 73.7508 1351.93 73.7508 Q1348.28 73.7508 1344.31 73.0216 Q1340.38 72.3329 1336.01 70.9151 L1336.01 63.2184 Q1340.14 65.3654 1344.15 66.4591 Q1348.16 67.5124 1352.09 67.5124 Q1357.36 67.5124 1360.19 65.73 Q1363.03 63.9071 1363.03 60.6258 Q1363.03 57.5877 1360.96 55.9673 Q1358.94 54.3469 1352.01 52.8481 L1349.42 52.2405 Q1342.49 50.7821 1339.41 47.7845 Q1336.33 44.7463 1336.33 39.4801 Q1336.33 33.0797 1340.87 29.5959 Q1345.41 26.1121 1353.75 26.1121 Q1357.88 26.1121 1361.53 26.7198 Q1365.17 27.3274 1368.25 28.5427 Z" fill="#000000" fill-rule="nonzero" fill-opacity="1" /><path clip-path="url(#clip000)" d="M1382.55 27.2059 L1390.01 27.2059 L1390.01 72.576 L1382.55 72.576 L1382.55 27.2059 M1382.55 9.54393 L1390.01 9.54393 L1390.01 18.9825 L1382.55 18.9825 L1382.55 9.54393 Z" fill="#000000" fill-rule="nonzero" fill-opacity="1" /><path clip-path="url(#clip000)" d="M1412.98 14.324 L1412.98 27.2059 L1428.33 27.2059 L1428.33 32.9987 L1412.98 32.9987 L1412.98 57.6282 Q1412.98 63.1779 1414.47 64.7578 Q1416.01 66.3376 1420.67 66.3376 L1428.33 66.3376 L1428.33 72.576 L1420.67 72.576 Q1412.04 72.576 1408.76 69.3758 Q1405.48 66.1351 1405.48 57.6282 L1405.48 32.9987 L1400.01 32.9987 L1400.01 27.2059 L1405.48 27.2059 L1405.48 14.324 L1412.98 14.324 Z" fill="#000000" fill-rule="nonzero" fill-opacity="1" /><path clip-path="url(#clip000)" d="M1438.13 27.2059 L1445.59 27.2059 L1445.59 72.576 L1438.13 72.576 L1438.13 27.2059 M1438.13 9.54393 L1445.59 9.54393 L1445.59 18.9825 L1438.13 18.9825 L1438.13 9.54393 Z" fill="#000000" fill-rule="nonzero" fill-opacity="1" /><path clip-path="url(#clip000)" d="M1478.76 32.4315 Q1472.77 32.4315 1469.28 37.1306 Q1465.8 41.7891 1465.8 49.9314 Q1465.8 58.0738 1469.24 62.7728 Q1472.73 67.4314 1478.76 67.4314 Q1484.72 67.4314 1488.2 62.7323 Q1491.68 58.0333 1491.68 49.9314 Q1491.68 41.8701 1488.2 37.1711 Q1484.72 32.4315 1478.76 32.4315 M1478.76 26.1121 Q1488.48 26.1121 1494.03 32.4315 Q1499.58 38.7509 1499.58 49.9314 Q1499.58 61.0714 1494.03 67.4314 Q1488.48 73.7508 1478.76 73.7508 Q1469 73.7508 1463.45 67.4314 Q1457.94 61.0714 1457.94 49.9314 Q1457.94 38.7509 1463.45 32.4315 Q1469 26.1121 1478.76 26.1121 Z" fill="#000000" fill-rule="nonzero" fill-opacity="1" /><path clip-path="url(#clip000)" d="M1549.65 45.1919 L1549.65 72.576 L1542.2 72.576 L1542.2 45.4349 Q1542.2 38.994 1539.69 35.7938 Q1537.18 32.5936 1532.15 32.5936 Q1526.12 32.5936 1522.63 36.4419 Q1519.15 40.2903 1519.15 46.9338 L1519.15 72.576 L1511.66 72.576 L1511.66 27.2059 L1519.15 27.2059 L1519.15 34.2544 Q1521.82 30.163 1525.43 28.1376 Q1529.07 26.1121 1533.81 26.1121 Q1541.63 26.1121 1545.64 30.9732 Q1549.65 35.7938 1549.65 45.1919 Z" fill="#000000" fill-rule="nonzero" fill-opacity="1" /><path clip-path="url(#clip000)" d="M1611.51 49.7694 Q1602.48 49.7694 1598.99 51.8354 Q1595.51 53.9013 1595.51 58.8839 Q1595.51 62.8538 1598.1 65.2034 Q1600.74 67.5124 1605.23 67.5124 Q1611.43 67.5124 1615.16 63.1374 Q1618.92 58.7219 1618.92 51.4303 L1618.92 49.7694 L1611.51 49.7694 M1626.38 46.6907 L1626.38 72.576 L1618.92 72.576 L1618.92 65.6895 Q1616.37 69.8214 1612.56 71.8063 Q1608.76 73.7508 1603.25 73.7508 Q1596.28 73.7508 1592.15 69.8619 Q1588.06 65.9325 1588.06 59.3701 Q1588.06 51.7138 1593.16 47.825 Q1598.3 43.9361 1608.47 43.9361 L1618.92 43.9361 L1618.92 43.2069 Q1618.92 38.0623 1615.52 35.2672 Q1612.16 32.4315 1606.04 32.4315 Q1602.15 32.4315 1598.47 33.3632 Q1594.78 34.295 1591.38 36.1584 L1591.38 29.2718 Q1595.47 27.692 1599.32 26.9223 Q1603.17 26.1121 1606.81 26.1121 Q1616.66 26.1121 1621.52 31.2163 Q1626.38 36.3204 1626.38 46.6907 Z" fill="#000000" fill-rule="nonzero" fill-opacity="1" /><path clip-path="url(#clip000)" d="M1664.7 9.54393 L1664.7 15.7418 L1657.57 15.7418 Q1653.56 15.7418 1651.98 17.3622 Q1650.44 18.9825 1650.44 23.1955 L1650.44 27.2059 L1662.71 27.2059 L1662.71 32.9987 L1650.44 32.9987 L1650.44 72.576 L1642.95 72.576 L1642.95 32.9987 L1635.82 32.9987 L1635.82 27.2059 L1642.95 27.2059 L1642.95 24.0462 Q1642.95 16.471 1646.47 13.0277 Q1649.99 9.54393 1657.65 9.54393 L1664.7 9.54393 Z" fill="#000000" fill-rule="nonzero" fill-opacity="1" /><path clip-path="url(#clip000)" d="M1676.85 14.324 L1676.85 27.2059 L1692.2 27.2059 L1692.2 32.9987 L1676.85 32.9987 L1676.85 57.6282 Q1676.85 63.1779 1678.35 64.7578 Q1679.89 66.3376 1684.55 66.3376 L1692.2 66.3376 L1692.2 72.576 L1684.55 72.576 Q1675.92 72.576 1672.64 69.3758 Q1669.36 66.1351 1669.36 57.6282 L1669.36 32.9987 L1663.89 32.9987 L1663.89 27.2059 L1669.36 27.2059 L1669.36 14.324 L1676.85 14.324 Z" fill="#000000" fill-rule="nonzero" fill-opacity="1" /><path clip-path="url(#clip000)" d="M1740.82 48.0275 L1740.82 51.6733 L1706.54 51.6733 Q1707.03 59.3701 1711.16 63.421 Q1715.34 67.4314 1722.75 67.4314 Q1727.04 67.4314 1731.05 66.3781 Q1735.1 65.3249 1739.07 63.2184 L1739.07 70.267 Q1735.06 71.9684 1730.85 72.8596 Q1726.64 73.7508 1722.3 73.7508 Q1711.45 73.7508 1705.09 67.4314 Q1698.77 61.1119 1698.77 50.3365 Q1698.77 39.1965 1704.76 32.6746 Q1710.8 26.1121 1721.01 26.1121 Q1730.16 26.1121 1735.47 32.0264 Q1740.82 37.9003 1740.82 48.0275 M1733.36 45.84 Q1733.28 39.7232 1729.92 36.0774 Q1726.6 32.4315 1721.09 32.4315 Q1714.85 32.4315 1711.08 35.9558 Q1707.35 39.4801 1706.79 45.8805 L1733.36 45.84 Z" fill="#000000" fill-rule="nonzero" fill-opacity="1" /><path clip-path="url(#clip000)" d="M1779.34 34.1734 Q1778.08 33.4443 1776.58 33.1202 Q1775.13 32.7556 1773.34 32.7556 Q1767.02 32.7556 1763.62 36.8875 Q1760.26 40.9789 1760.26 48.6757 L1760.26 72.576 L1752.77 72.576 L1752.77 27.2059 L1760.26 27.2059 L1760.26 34.2544 Q1762.61 30.1225 1766.38 28.1376 Q1770.14 26.1121 1775.53 26.1121 Q1776.3 26.1121 1777.23 26.2337 Q1778.16 26.3147 1779.3 26.5172 L1779.34 34.1734 Z" fill="#000000" fill-rule="nonzero" fill-opacity="1" /><path clip-path="url(#clip000)" d="M1842.53 44.2197 Q1845.17 45.1109 1847.64 48.0275 Q1850.15 50.9442 1852.66 56.0483 L1860.97 72.576 L1852.17 72.576 L1844.44 57.061 Q1841.44 50.9847 1838.6 48.9997 Q1835.81 47.0148 1830.95 47.0148 L1822.04 47.0148 L1822.04 72.576 L1813.85 72.576 L1813.85 12.096 L1832.33 12.096 Q1842.7 12.096 1847.8 16.4305 Q1852.9 20.7649 1852.9 29.5149 Q1852.9 35.2267 1850.23 38.994 Q1847.6 42.7613 1842.53 44.2197 M1822.04 18.8205 L1822.04 40.2903 L1832.33 40.2903 Q1838.24 40.2903 1841.24 37.5762 Q1844.28 34.8216 1844.28 29.5149 Q1844.28 24.2082 1841.24 21.5346 Q1838.24 18.8205 1832.33 18.8205 L1822.04 18.8205 Z" fill="#000000" fill-rule="nonzero" fill-opacity="1" /><path clip-path="url(#clip000)" d="M1866.68 54.671 L1866.68 27.2059 L1874.13 27.2059 L1874.13 54.3874 Q1874.13 60.8284 1876.64 64.0691 Q1879.15 67.2693 1884.18 67.2693 Q1890.21 67.2693 1893.7 63.421 Q1897.22 59.5726 1897.22 52.9291 L1897.22 27.2059 L1904.67 27.2059 L1904.67 72.576 L1897.22 72.576 L1897.22 65.6084 Q1894.51 69.7404 1890.9 71.7658 Q1887.34 73.7508 1882.6 73.7508 Q1874.78 73.7508 1870.73 68.8897 Q1866.68 64.0286 1866.68 54.671 M1885.43 26.1121 L1885.43 26.1121 Z" fill="#000000" fill-rule="nonzero" fill-opacity="1" /><path clip-path="url(#clip000)" d="M1957.74 45.1919 L1957.74 72.576 L1950.29 72.576 L1950.29 45.4349 Q1950.29 38.994 1947.78 35.7938 Q1945.26 32.5936 1940.24 32.5936 Q1934.21 32.5936 1930.72 36.4419 Q1927.24 40.2903 1927.24 46.9338 L1927.24 72.576 L1919.74 72.576 L1919.74 27.2059 L1927.24 27.2059 L1927.24 34.2544 Q1929.91 30.163 1933.52 28.1376 Q1937.16 26.1121 1941.9 26.1121 Q1949.72 26.1121 1953.73 30.9732 Q1957.74 35.7938 1957.74 45.1919 Z" fill="#000000" fill-rule="nonzero" fill-opacity="1" /><path clip-path="url(#clip000)" d="M1974.51 62.2867 L1983.06 62.2867 L1983.06 72.576 L1974.51 72.576 L1974.51 62.2867 M1974.51 29.6769 L1983.06 29.6769 L1983.06 39.9662 L1974.51 39.9662 L1974.51 29.6769 Z" fill="#000000" fill-rule="nonzero" fill-opacity="1" /><path clip-path="url(#clip000)" d="M2035.03 65.6895 L2063.59 65.6895 L2063.59 72.576 L2025.19 72.576 L2025.19 65.6895 Q2029.85 60.8689 2037.87 52.7671 Q2045.93 44.6248 2048 42.2752 Q2051.92 37.8598 2053.46 34.8216 Q2055.04 31.7429 2055.04 28.7857 Q2055.04 23.9651 2051.64 20.927 Q2048.28 17.8888 2042.85 17.8888 Q2039 17.8888 2034.71 19.2256 Q2030.45 20.5624 2025.59 23.2765 L2025.59 15.0127 Q2030.54 13.0277 2034.83 12.015 Q2039.12 11.0023 2042.69 11.0023 Q2052.09 11.0023 2057.68 15.7013 Q2063.27 20.4004 2063.27 28.2591 Q2063.27 31.9859 2061.85 35.3482 Q2060.47 38.6699 2056.79 43.2069 Q2055.77 44.3817 2050.34 50.0125 Q2044.92 55.6027 2035.03 65.6895 Z" fill="#000000" fill-rule="nonzero" fill-opacity="1" /><polyline clip-path="url(#clip002)" style="stroke:#009af9; stroke-linecap:round; stroke-linejoin:round; stroke-width:8; stroke-opacity:1; fill:none" points="361.501,822.695 366.334,839.618 371.167,856.421 376,873.077 380.833,889.569 385.666,905.861 390.5,921.969 395.333,937.851 400.166,953.513 404.999,968.925 409.832,984.08 414.665,998.963 419.498,1013.55 424.332,1027.85 429.165,1041.81 433.998,1055.46 438.831,1068.74 443.664,1081.67 448.497,1094.24 453.33,1106.43 458.164,1118.22 462.997,1129.61 467.83,1140.58 472.663,1151.13 477.496,1161.23 482.329,1170.89 487.162,1180.08 491.996,1188.81 496.829,1197.06 501.662,1204.81 506.495,1212.08 511.328,1218.84 516.161,1225.09 520.994,1230.83 525.828,1236.05 530.661,1240.74 535.494,1244.89 540.327,1248.52 545.16,1251.6 549.993,1254.14 554.826,1256.14 559.66,1257.59 564.493,1258.49 569.326,1258.84 574.159,1258.64 578.992,1257.9 583.825,1256.61 588.658,1254.76 593.492,1252.38 598.325,1249.45 603.158,1245.98 607.991,1241.97 612.824,1237.43 617.657,1232.36 622.49,1226.77 627.324,1220.66 632.157,1214.05 636.99,1206.92 641.823,1199.3 646.656,1191.19 651.489,1182.6 656.322,1173.54 661.156,1164.01 665.989,1154.02 670.822,1143.59 675.655,1132.73 680.488,1121.44 685.321,1109.74 690.154,1097.64 694.988,1085.15 699.821,1072.28 704.654,1059.05 709.487,1045.47 714.32,1031.55 719.153,1017.3 723.986,1002.75 728.82,987.904 733.653,972.778 738.486,957.389 743.319,941.753 748.152,925.883 752.985,909.795 757.818,893.507 762.652,877.035 767.485,860.396 772.318,843.607 777.151,826.681 781.984,809.638 786.817,792.495 791.65,775.27 796.484,757.98 801.317,740.64 806.15,723.268 810.983,705.882 815.816,688.5 820.649,671.139 825.482,653.818 830.316,636.547 835.149,619.349 839.982,602.239 844.815,585.236 849.648,568.357 854.481,551.62 859.314,535.041 864.148,518.64 868.981,502.425 873.814,486.411 878.647,470.62 883.48,455.066 888.313,439.767 893.147,424.739 897.98,409.998 902.813,395.559 907.646,381.439 912.479,367.637 917.312,354.176 922.145,341.072 926.979,328.336 931.812,315.983 936.645,304.025 941.478,292.475 946.311,281.344 951.144,270.642 955.977,260.378 960.811,250.564 965.644,241.209 970.477,232.324 975.31,223.917 980.143,215.996 984.976,208.569 989.809,201.642 994.643,195.226 999.476,189.326 1004.31,183.946 1009.14,179.092 1013.98,174.769 1018.81,170.98 1023.64,167.729 1028.47,165.018 1033.31,162.85 1038.14,161.233 1042.97,160.164 1047.81,159.645 1052.64,159.675 1057.47,160.254 1062.31,161.382 1067.14,163.056 1071.97,165.275 1076.81,168.039 1081.64,171.346 1086.47,175.191 1091.31,179.57 1096.14,184.478 1100.97,189.911 1105.8,195.863 1110.64,202.327 1115.47,209.296 1120.3,216.769 1125.14,224.734 1129.97,233.184 1134.8,242.11 1139.64,251.503 1144.47,261.353 1149.3,271.651 1154.14,282.385 1158.97,293.546 1163.8,305.126 1168.64,317.11 1173.47,329.486 1178.3,342.242 1183.14,355.365 1187.97,368.841 1192.8,382.657 1197.63,396.798 1202.47,411.253 1207.3,426.008 1212.13,441.047 1216.97,456.353 1221.8,471.912 1226.63,487.708 1231.47,503.725 1236.3,519.946 1241.13,536.355 1245.97,552.941 1250.8,569.682 1255.63,586.563 1260.47,603.567 1265.3,620.676 1270.13,637.872 1274.96,655.14 1279.8,672.46 1284.63,689.818 1289.46,707.196 1294.3,724.576 1299.13,741.941 1303.96,759.272 1308.8,776.553 1313.63,793.767 1318.46,810.895 1323.3,827.922 1328.13,844.83 1332.96,861.602 1337.8,878.222 1342.63,894.673 1347.46,910.939 1352.3,927.002 1357.13,942.848 1361.96,958.459 1366.79,973.822 1371.63,988.919 1376.46,1003.74 1381.29,1018.26 1386.13,1032.47 1390.96,1046.36 1395.79,1059.92 1400.63,1073.12 1405.46,1085.96 1410.29,1098.42 1415.13,1110.49 1419.96,1122.17 1424.79,1133.42 1429.63,1144.26 1434.46,1154.66 1439.29,1164.61 1444.12,1174.11 1448.96,1183.14 1453.79,1191.7 1458.62,1199.78 1463.46,1207.36 1468.29,1214.45 1473.12,1221.03 1477.96,1227.1 1482.79,1232.65 1487.62,1237.68 1492.46,1242.18 1497.29,1246.15 1502.12,1249.58 1506.96,1252.47 1511.79,1254.81 1516.62,1256.62 1521.46,1257.87 1526.29,1258.58 1531.12,1258.73 1535.95,1258.34 1540.79,1257.4 1545.62,1255.9 1550.45,1253.86 1555.29,1251.28 1560.12,1248.16 1564.95,1244.49 1569.79,1240.3 1574.62,1235.57 1579.45,1230.31 1584.29,1224.54 1589.12,1218.24 1593.95,1211.44 1598.79,1204.14 1603.62,1196.34 1608.45,1188.06 1613.28,1179.3 1618.12,1170.06 1622.95,1160.37 1627.78,1150.22 1632.62,1139.64 1637.45,1128.62 1642.28,1117.18 1647.12,1105.34 1651.95,1093.1 1656.78,1080.48 1661.62,1067.49 1666.45,1054.14 1671.28,1040.44 1676.12,1026.41 1680.95,1012.07 1685.78,997.419 1690.62,982.485 1695.45,967.279 1700.28,951.815 1705.11,936.106 1709.95,920.171 1714.78,904.025 1719.61,887.684 1724.45,871.166 1729.28,854.487 1734.11,837.663 1738.95,820.713 1743.78,803.649 1748.61,786.49 1753.45,769.255 1758.28,751.96 1763.11,734.623 1767.95,717.261 1772.78,699.891 1777.61,682.532 1782.44,665.2 1787.28,647.911 1792.11,630.684 1796.94,613.536 1801.78,596.484 1806.61,579.544 1811.44,562.736 1816.28,546.074 1821.11,529.576 1825.94,513.258 1830.78,497.136 1835.61,481.226 1840.44,465.545 1845.28,450.107 1850.11,434.929 1854.94,420.026 1859.78,405.413 1864.61,391.103 1869.44,377.112 1874.27,363.454 1879.11,350.142 1883.94,337.19 1888.77,324.609 1893.61,312.414 1898.44,300.615 1903.27,289.225 1908.11,278.255 1912.94,267.718 1917.77,257.623 1922.61,247.979 1927.44,238.797 1932.27,230.086 1937.11,221.854 1941.94,214.108 1946.77,206.858 1951.6,200.111 1956.44,193.875 1961.27,188.154 1966.1,182.955 1970.94,178.282 1975.77,174.14 1980.6,170.533 1985.44,167.463 1990.27,164.935 1995.1,162.955 1999.94,161.521 2004.77,160.635 2009.6,160.298 2014.44,160.509 2019.27,161.269 2024.1,162.576 2028.94,164.429 2033.77,166.828 2038.6,169.772 2043.43,173.255 2048.27,177.274 2053.1,181.825 2057.93,186.904 2062.77,192.504 2067.6,198.62 2072.43,205.244 2077.27,212.378 2082.1,220.008 2086.93,228.127 2091.77,236.728 2096.6,245.801 2101.43,255.337 2106.27,265.325 2111.1,275.757 2115.93,286.622 2120.77,297.913 2125.6,309.615 2130.43,321.717 2135.26,334.206 2140.1,347.07 2144.93,360.296 2149.76,373.869 2154.6,387.776 2159.43,402.007 2164.26,416.547 2169.1,431.379 2173.93,446.489 2178.76,461.861 2183.6,477.481 2188.43,493.331 2193.26,509.396 2198.1,525.66 2202.93,542.111 2207.76,558.728 2212.59,575.496 2217.43,592.398 2222.26,609.416 2227.09,626.534 2231.93,643.733 2236.76,660.997 2241.59,678.31 2246.43,695.655 2251.26,713.013 2256.09,730.368 2260.93,747.701 2265.76,764.995 2270.59,782.233 2275.43,799.398 2280.26,816.471 2285.09,833.439 2289.93,850.282 2294.76,866.984 "/>
<polyline clip-path="url(#clip002)" style="stroke:#e26f46; stroke-linecap:round; stroke-linejoin:round; stroke-width:8; stroke-opacity:1; fill:none" points="361.501,822.695 366.334,839.666 371.167,856.582 376,873.423 380.833,890.172 385.666,906.797 390.5,923.309 395.333,939.666 400.166,955.878 404.999,971.906 409.832,987.755 414.665,1003.4 419.498,1018.82 424.332,1034.03 429.165,1048.99 433.998,1063.68 438.831,1078.1 443.664,1092.23 448.497,1106.05 453.33,1119.54 458.164,1132.69 462.997,1145.49 467.83,1157.93 472.663,1169.98 477.496,1181.64 482.329,1192.91 487.162,1203.75 491.996,1214.18 496.829,1224.17 501.662,1233.72 506.495,1242.81 511.328,1251.44 516.161,1259.59 520.994,1267.27 525.828,1274.45 530.661,1281.13 535.494,1287.31 540.327,1292.97 545.16,1298.1 549.993,1302.71 554.826,1306.78 559.66,1310.3 564.493,1313.27 569.326,1315.69 574.159,1317.55 578.992,1318.83 583.825,1319.55 588.658,1319.68 593.492,1319.34 598.325,1318.6 603.158,1317.45 607.991,1315.88 612.824,1313.88 617.657,1311.46 622.49,1308.63 627.324,1305.37 632.157,1301.69 636.99,1297.59 641.823,1293.07 646.656,1288.14 651.489,1282.8 656.322,1277.05 661.156,1270.89 665.989,1264.34 670.822,1257.4 675.655,1250.08 680.488,1242.37 685.321,1234.29 690.154,1225.84 694.988,1217.04 699.821,1207.88 704.654,1198.38 709.487,1188.56 714.32,1178.4 719.153,1167.94 723.986,1157.17 728.82,1146.12 733.653,1134.79 738.486,1123.19 743.319,1111.32 748.152,1099.21 752.985,1086.85 757.818,1074.28 762.652,1061.5 767.485,1048.52 772.318,1035.36 777.151,1022.02 781.984,1008.51 786.817,994.859 791.65,981.068 796.484,967.164 801.317,953.153 806.15,939.048 810.983,924.865 815.816,910.617 820.649,896.319 825.482,881.985 830.316,867.628 835.149,853.263 839.982,838.905 844.815,824.57 849.648,810.274 854.481,796.03 859.314,781.856 864.148,767.761 868.981,753.753 873.814,739.853 878.647,726.077 883.48,712.438 888.313,698.952 893.147,685.634 897.98,672.497 902.813,659.542 907.646,646.79 912.479,634.255 917.312,621.95 922.145,609.889 926.979,598.085 931.812,586.55 936.645,575.293 941.478,564.32 946.311,553.648 951.144,543.288 955.977,533.253 960.811,523.551 965.644,514.195 970.477,505.195 975.31,496.552 980.143,488.281 984.976,480.391 989.809,472.891 994.643,465.79 999.476,459.096 1004.31,452.818 1009.14,446.96 1013.98,441.53 1018.81,436.536 1023.64,431.984 1028.47,427.88 1033.31,424.232 1038.14,421.044 1042.97,418.323 1047.81,416.073 1052.64,414.3 1057.47,413.007 1062.31,412.201 1067.14,411.882 1071.97,412.046 1076.81,412.509 1081.64,413.291 1086.47,414.404 1091.31,415.847 1096.14,417.625 1100.97,419.737 1105.8,422.183 1110.64,424.962 1115.47,428.076 1120.3,431.52 1125.14,435.295 1129.97,439.399 1134.8,443.827 1139.64,448.579 1144.47,453.65 1149.3,459.037 1154.14,464.735 1158.97,470.736 1163.8,477.039 1168.64,483.639 1173.47,490.53 1178.3,497.701 1183.14,505.15 1187.97,512.872 1192.8,520.858 1197.63,529.097 1202.47,537.586 1207.3,546.316 1212.13,555.278 1216.97,564.458 1221.8,573.852 1226.63,583.45 1231.47,593.246 1236.3,603.231 1241.13,613.395 1245.97,623.725 1250.8,634.206 1255.63,644.835 1260.47,655.601 1265.3,666.494 1270.13,677.504 1274.96,688.62 1279.8,699.829 1284.63,711.119 1289.46,722.48 1294.3,733.902 1299.13,745.372 1303.96,756.878 1308.8,768.41 1313.63,779.957 1318.46,791.507 1323.3,803.048 1328.13,814.568 1332.96,826.053 1337.8,837.493 1342.63,848.874 1347.46,860.192 1352.3,871.433 1357.13,882.583 1361.96,893.63 1366.79,904.564 1371.63,915.371 1376.46,926.041 1381.29,936.571 1386.13,946.944 1390.96,957.15 1395.79,967.178 1400.63,977.017 1405.46,986.657 1410.29,996.086 1415.13,1005.3 1419.96,1014.29 1424.79,1023.04 1429.63,1031.55 1434.46,1039.8 1439.29,1047.79 1444.12,1055.5 1448.96,1062.94 1453.79,1070.09 1458.62,1076.94 1463.46,1083.49 1468.29,1089.73 1473.12,1095.64 1477.96,1101.24 1482.79,1106.5 1487.62,1111.42 1492.46,1116 1497.29,1120.23 1502.12,1124.1 1506.96,1127.61 1511.79,1130.76 1516.62,1133.53 1521.46,1135.92 1526.29,1137.94 1531.12,1139.56 1535.95,1140.8 1540.79,1141.64 1545.62,1142.08 1550.45,1142.11 1555.29,1141.85 1560.12,1141.38 1564.95,1140.68 1569.79,1139.75 1574.62,1138.57 1579.45,1137.16 1584.29,1135.51 1589.12,1133.62 1593.95,1131.48 1598.79,1129.11 1603.62,1126.49 1608.45,1123.64 1613.28,1120.55 1618.12,1117.22 1622.95,1113.66 1627.78,1109.87 1632.62,1105.85 1637.45,1101.6 1642.28,1097.14 1647.12,1092.46 1651.95,1087.57 1656.78,1082.46 1661.62,1077.15 1666.45,1071.64 1671.28,1065.94 1676.12,1060.04 1680.95,1053.95 1685.78,1047.68 1690.62,1041.24 1695.45,1034.63 1700.28,1027.86 1705.11,1020.92 1709.95,1013.84 1714.78,1006.61 1719.61,999.245 1724.45,991.754 1729.28,984.139 1734.11,976.406 1738.95,968.563 1743.78,960.621 1748.61,952.59 1753.45,944.475 1758.28,936.281 1763.11,928.017 1767.95,919.69 1772.78,911.316 1777.61,902.897 1782.44,894.443 1787.28,885.96 1792.11,877.457 1796.94,868.944 1801.78,860.431 1806.61,851.924 1811.44,843.433 1816.28,834.964 1821.11,826.528 1825.94,818.132 1830.78,809.786 1835.61,801.498 1840.44,793.276 1845.28,785.128 1850.11,777.064 1854.94,769.089 1859.78,761.214 1864.61,753.446 1869.44,745.794 1874.27,738.266 1879.11,730.868 1883.94,723.607 1888.77,716.493 1893.61,709.533 1898.44,702.736 1903.27,696.108 1908.11,689.652 1912.94,683.378 1917.77,677.295 1922.61,671.408 1927.44,665.727 1932.27,660.252 1937.11,654.989 1941.94,649.947 1946.77,645.134 1951.6,640.556 1956.44,636.218 1961.27,632.117 1966.1,628.265 1970.94,624.668 1975.77,621.331 1980.6,618.261 1985.44,615.457 1990.27,612.92 1995.1,610.661 1999.94,608.684 2004.77,606.993 2009.6,605.593 2014.44,604.484 2019.27,603.671 2024.1,603.157 2028.94,602.944 2033.77,603.026 2038.6,603.241 2043.43,603.574 2048.27,604.036 2053.1,604.632 2057.93,605.364 2062.77,606.234 2067.6,607.242 2072.43,608.389 2077.27,609.674 2082.1,611.098 2086.93,612.661 2091.77,614.361 2096.6,616.199 2101.43,618.172 2106.27,620.281 2111.1,622.525 2115.93,624.901 2120.77,627.408 2125.6,630.045 2130.43,632.81 2135.26,635.7 2140.1,638.714 2144.93,641.849 2149.76,645.097 2154.6,648.46 2159.43,651.935 2164.26,655.522 2169.1,659.218 2173.93,663.02 2178.76,666.922 2183.6,670.913 2188.43,674.998 2193.26,679.173 2198.1,683.437 2202.93,687.786 2207.76,692.218 2212.59,696.723 2217.43,701.291 2222.26,705.925 2227.09,710.622 2231.93,715.378 2236.76,720.189 2241.59,725.052 2246.43,729.957 2251.26,734.896 2256.09,739.869 2260.93,744.872 2265.76,749.9 2270.59,754.95 2275.43,760.016 2280.26,765.092 2285.09,770.168 2289.93,775.244 2294.76,780.314 "/>
<polyline clip-path="url(#clip002)" style="stroke:#008000; stroke-linecap:round; stroke-linejoin:round; stroke-width:8; stroke-opacity:1; fill:none" stroke-dasharray="4, 8" points="361.501,822.695 366.334,837.525 371.167,852.334 376,867.107 380.833,881.835 385.666,896.505 390.5,911.106 395.333,925.627 400.166,940.056 404.999,954.384 409.832,968.6 414.665,982.694 419.498,996.655 424.332,1010.48 429.165,1024.14 433.998,1037.65 438.831,1050.99 443.664,1064.16 448.497,1077.14 453.33,1089.92 458.164,1102.51 462.997,1114.89 467.83,1127.05 472.663,1138.99 477.496,1150.71 482.329,1162.18 487.162,1173.42 491.996,1184.41 496.829,1195.15 501.662,1205.63 506.495,1215.84 511.328,1225.78 516.161,1235.44 520.994,1244.81 525.828,1253.89 530.661,1262.68 535.494,1271.16 540.327,1279.33 545.16,1287.18 549.993,1294.71 554.826,1301.9 559.66,1308.76 564.493,1315.27 569.326,1321.42 574.159,1327.21 578.992,1332.63 583.825,1337.66 588.658,1342.31 593.492,1346.56 598.325,1350.4 603.158,1353.83 607.991,1356.83 612.824,1359.4 617.657,1361.52 622.49,1363.2 627.324,1364.41 632.157,1365.15 636.99,1365.41 641.823,1365.18 646.656,1364.46 651.489,1363.23 656.322,1361.49 661.156,1359.22 665.989,1356.42 670.822,1353.08 675.655,1349.19 680.488,1344.74 685.321,1339.74 690.154,1334.18 694.988,1328.05 699.821,1321.36 704.654,1314.11 709.487,1306.29 714.32,1297.91 719.153,1288.97 723.986,1279.47 728.82,1269.42 733.653,1258.83 738.486,1247.71 743.319,1236.05 748.152,1223.87 752.985,1211.16 757.818,1197.82 762.652,1183.96 767.485,1169.69 772.318,1155.13 777.151,1140.35 781.984,1125.46 786.817,1110.52 791.65,1095.58 796.484,1080.69 801.317,1065.9 806.15,1051.22 810.983,1036.66 815.816,1022.22 820.649,1007.9 825.482,993.655 830.316,979.463 835.149,965.274 839.982,951.071 844.815,936.855 849.648,922.63 854.481,908.397 859.314,894.16 864.148,879.924 868.981,865.695 873.814,851.479 878.647,837.283 883.48,823.116 888.313,808.988 893.147,794.91 897.98,780.892 902.813,766.948 907.646,753.09 912.479,739.334 917.312,725.695 922.145,712.189 926.979,698.834 931.812,685.639 936.645,672.614 941.478,659.771 946.311,647.119 951.144,634.67 955.977,622.435 960.811,610.425 965.644,598.65 970.477,587.121 975.31,575.848 980.143,564.843 984.976,554.117 989.809,543.679 994.643,533.54 999.476,523.711 1004.31,514.203 1009.14,505.026 1013.98,496.19 1018.81,487.706 1023.64,479.585 1028.47,471.836 1033.31,464.471 1038.14,457.499 1042.97,450.931 1047.81,444.776 1052.64,439.047 1057.47,433.751 1062.31,428.9 1067.14,424.5 1071.97,420.518 1076.81,416.97 1081.64,413.878 1086.47,411.262 1091.31,409.137 1096.14,407.515 1100.97,406.401 1105.8,405.799 1110.64,405.709 1115.47,406.124 1120.3,407.035 1125.14,408.429 1129.97,410.288 1134.8,412.591 1139.64,415.311 1144.47,418.42 1149.3,421.882 1154.14,425.66 1158.97,429.711 1163.8,433.99 1168.64,438.446 1173.47,443.025 1178.3,447.667 1183.14,452.321 1187.97,457.073 1192.8,461.979 1197.63,467.058 1202.47,472.329 1207.3,477.807 1212.13,483.508 1216.97,489.444 1221.8,495.626 1226.63,502.063 1231.47,508.761 1236.3,515.726 1241.13,522.962 1245.97,530.469 1250.8,538.248 1255.63,546.296 1260.47,554.609 1265.3,563.182 1270.13,572.006 1274.96,581.072 1279.8,590.377 1284.63,599.916 1289.46,609.679 1294.3,619.654 1299.13,629.83 1303.96,640.197 1308.8,650.744 1313.63,661.459 1318.46,672.331 1323.3,683.348 1328.13,694.501 1332.96,705.777 1337.8,717.164 1342.63,728.653 1347.46,740.23 1352.3,751.885 1357.13,763.606 1361.96,775.381 1366.79,787.199 1371.63,799.047 1376.46,810.915 1381.29,822.791 1386.13,834.662 1390.96,846.516 1395.79,858.343 1400.63,870.128 1405.46,881.862 1410.29,893.531 1415.13,905.123 1419.96,916.626 1424.79,928.028 1429.63,939.317 1434.46,950.483 1439.29,961.519 1444.12,972.416 1448.96,983.164 1453.79,993.753 1458.62,1004.17 1463.46,1014.41 1468.29,1024.47 1473.12,1034.33 1477.96,1043.98 1482.79,1053.41 1487.62,1062.62 1492.46,1071.6 1497.29,1080.34 1502.12,1088.83 1506.96,1097.06 1511.79,1105.02 1516.62,1112.71 1521.46,1120.12 1526.29,1127.24 1531.12,1134.06 1535.95,1140.58 1540.79,1146.78 1545.62,1152.68 1550.45,1158.25 1555.29,1163.49 1560.12,1168.39 1564.95,1172.94 1569.79,1177.13 1574.62,1180.95 1579.45,1184.39 1584.29,1187.44 1589.12,1190.09 1593.95,1192.33 1598.79,1194.16 1603.62,1195.58 1608.45,1196.56 1613.28,1197.11 1618.12,1197.22 1622.95,1196.89 1627.78,1196.1 1632.62,1194.87 1637.45,1193.17 1642.28,1191.01 1647.12,1188.39 1651.95,1185.3 1656.78,1181.73 1661.62,1177.69 1666.45,1173.18 1671.28,1168.2 1676.12,1162.73 1680.95,1156.79 1685.78,1150.38 1690.62,1143.5 1695.45,1136.15 1700.28,1128.34 1705.11,1120.07 1709.95,1111.36 1714.78,1102.21 1719.61,1092.65 1724.45,1082.69 1729.28,1072.36 1734.11,1061.68 1738.95,1050.69 1743.78,1039.42 1748.61,1027.9 1753.45,1016.18 1758.28,1004.31 1763.11,992.328 1767.95,980.287 1772.78,968.243 1777.61,956.256 1782.44,944.386 1787.28,932.687 1792.11,921.131 1796.94,909.701 1801.78,898.393 1806.61,887.2 1811.44,876.118 1816.28,865.143 1821.11,854.273 1825.94,843.506 1830.78,832.841 1835.61,822.278 1840.44,811.819 1845.28,801.465 1850.11,791.219 1854.94,781.085 1859.78,771.068 1864.61,761.173 1869.44,751.407 1874.27,741.777 1879.11,732.292 1883.94,722.962 1888.77,713.796 1893.61,704.806 1898.44,696.004 1903.27,687.402 1908.11,679.008 1912.94,670.825 1917.77,662.866 1922.61,655.142 1927.44,647.663 1932.27,640.441 1937.11,633.484 1941.94,626.801 1946.77,620.399 1951.6,614.286 1956.44,608.467 1961.27,602.948 1966.1,597.734 1970.94,592.829 1975.77,588.235 1980.6,583.955 1985.44,579.991 1990.27,576.343 1995.1,573.012 1999.94,569.998 2004.77,567.297 2009.6,564.909 2014.44,562.831 2019.27,561.058 2024.1,559.586 2028.94,558.41 2033.77,557.522 2038.6,556.904 2043.43,556.537 2048.27,556.406 2053.1,556.495 2057.93,556.791 2062.77,557.282 2067.6,557.958 2072.43,558.811 2077.27,559.834 2082.1,561.022 2086.93,562.372 2091.77,563.882 2096.6,565.551 2101.43,567.382 2106.27,569.377 2111.1,571.541 2115.93,573.88 2120.77,576.402 2125.6,579.118 2130.43,582.038 2135.26,585.174 2140.1,588.522 2144.93,592.08 2149.76,595.851 2154.6,599.835 2159.43,604.033 2164.26,608.445 2169.1,613.071 2173.93,617.909 2178.76,622.957 2183.6,628.212 2188.43,633.673 2193.26,639.335 2198.1,645.195 2202.93,651.247 2207.76,657.486 2212.59,663.907 2217.43,670.502 2222.26,677.265 2227.09,684.189 2231.93,691.264 2236.76,698.483 2241.59,705.836 2246.43,713.316 2251.26,720.915 2256.09,728.624 2260.93,736.434 2265.76,744.336 2270.59,752.321 2275.43,760.379 2280.26,768.502 2285.09,776.678 2289.93,784.899 2294.76,793.154 "/>
<polyline clip-path="url(#clip002)" style="stroke:#008000; stroke-linecap:round; stroke-linejoin:round; stroke-width:8; stroke-opacity:1; fill:none" points="361.501,822.695 366.334,839.525 371.167,856.256 376,872.867 380.833,889.341 385.666,905.661 390.5,921.81 395.333,937.771 400.166,953.53 404.999,969.073 409.832,984.386 414.665,999.456 419.498,1014.27 424.332,1028.82 429.165,1043.1 433.998,1057.09 438.831,1070.79 443.664,1084.18 448.497,1097.26 453.33,1110.03 458.164,1122.47 462.997,1134.58 467.83,1146.36 472.663,1157.79 477.496,1168.89 482.329,1179.63 487.162,1190.02 491.996,1200.05 496.829,1209.72 501.662,1219.02 506.495,1227.96 511.328,1236.52 516.161,1244.7 520.994,1252.5 525.828,1259.92 530.661,1266.95 535.494,1273.58 540.327,1279.82 545.16,1285.66 549.993,1291.09 554.826,1296.11 559.66,1300.71 564.493,1304.88 569.326,1308.63 574.159,1311.93 578.992,1314.8 583.825,1317.21 588.658,1319.16 593.492,1320.64 598.325,1321.65 603.158,1322.17 607.991,1322.2 612.824,1321.72 617.657,1320.74 622.49,1319.23 627.324,1317.18 632.157,1314.59 636.99,1311.45 641.823,1307.75 646.656,1303.46 651.489,1298.57 656.322,1293.06 661.156,1286.94 665.989,1280.18 670.822,1272.81 675.655,1264.82 680.488,1256.23 685.321,1247.04 690.154,1237.29 694.988,1227 699.821,1216.19 704.654,1204.91 709.487,1193.19 714.32,1181.08 719.153,1168.61 723.986,1156.05 728.82,1144.06 733.653,1132.58 738.486,1121.53 743.319,1110.81 748.152,1100.33 752.985,1090.01 757.818,1079.75 762.652,1069.5 767.485,1059.18 772.318,1048.73 777.151,1038.09 781.984,1027.2 786.817,1016.03 791.65,1004.56 796.484,992.815 801.317,980.814 806.15,968.565 810.983,956.083 815.816,943.38 820.649,930.471 825.482,917.371 830.316,904.095 835.149,890.66 839.982,877.083 844.815,863.381 849.648,849.573 854.481,835.676 859.314,821.711 864.148,807.698 868.981,793.656 873.814,779.607 878.647,765.568 883.48,751.559 888.313,737.6 893.147,723.711 897.98,709.911 902.813,696.219 907.646,682.657 912.479,669.241 917.312,655.992 922.145,642.929 926.979,630.07 931.812,617.434 936.645,605.04 941.478,592.905 946.311,581.048 951.144,569.487 955.977,558.241 960.811,547.326 965.644,536.76 970.477,526.561 975.31,516.746 980.143,507.33 984.976,498.328 989.809,489.758 994.643,481.638 999.476,473.982 1004.31,466.807 1009.14,460.128 1013.98,453.958 1018.81,448.311 1023.64,443.198 1028.47,438.633 1033.31,434.626 1038.14,431.188 1042.97,428.327 1047.81,426.054 1052.64,424.376 1057.47,423.3 1062.31,422.833 1067.14,422.982 1071.97,423.751 1076.81,425.175 1081.64,427.513 1086.47,430.622 1091.31,434.279 1096.14,438.285 1100.97,442.469 1105.8,446.688 1110.64,450.826 1115.47,454.793 1120.3,458.529 1125.14,461.998 1129.97,465.193 1134.8,468.134 1139.64,470.87 1144.47,473.473 1149.3,476.046 1154.14,478.718 1158.97,481.645 1163.8,485.007 1168.64,488.8 1173.47,492.964 1178.3,497.504 1183.14,502.425 1187.97,507.726 1192.8,513.409 1197.63,519.473 1202.47,525.915 1207.3,532.73 1212.13,539.914 1216.97,547.458 1221.8,555.355 1226.63,563.594 1231.47,572.165 1236.3,581.053 1241.13,590.245 1245.97,599.725 1250.8,609.479 1255.63,619.498 1260.47,629.765 1265.3,640.263 1270.13,650.976 1274.96,661.887 1279.8,672.979 1284.63,684.236 1289.46,695.639 1294.3,707.174 1299.13,718.823 1303.96,730.569 1308.8,742.395 1313.63,754.285 1318.46,766.223 1323.3,778.19 1328.13,790.172 1332.96,802.15 1337.8,814.108 1342.63,826.03 1347.46,837.899 1352.3,849.697 1357.13,861.409 1361.96,873.019 1366.79,884.515 1371.63,895.884 1376.46,907.114 1381.29,918.192 1386.13,929.104 1390.96,939.838 1395.79,950.384 1400.63,960.729 1405.46,970.863 1410.29,980.775 1415.13,990.456 1419.96,999.896 1424.79,1009.09 1429.63,1018.02 1434.46,1026.68 1439.29,1035.07 1444.12,1043.17 1448.96,1050.99 1453.79,1058.51 1458.62,1065.73 1463.46,1072.64 1468.29,1079.24 1473.12,1085.52 1477.96,1091.47 1482.79,1097.1 1487.62,1102.38 1492.46,1107.32 1497.29,1111.9 1502.12,1116.13 1506.96,1119.99 1511.79,1123.48 1516.62,1126.59 1521.46,1129.32 1526.29,1131.66 1531.12,1133.6 1535.95,1135.15 1540.79,1136.29 1545.62,1137.02 1550.45,1137.33 1555.29,1137.23 1560.12,1136.71 1564.95,1135.76 1569.79,1134.38 1574.62,1132.56 1579.45,1130.31 1584.29,1127.62 1589.12,1124.48 1593.95,1120.9 1598.79,1116.86 1603.62,1112.43 1608.45,1107.6 1613.28,1102.35 1618.12,1096.66 1622.95,1090.52 1627.78,1083.92 1632.62,1076.88 1637.45,1069.4 1642.28,1061.52 1647.12,1053.26 1651.95,1044.67 1656.78,1035.79 1661.62,1026.68 1666.45,1017.4 1671.28,1008.03 1676.12,998.655 1680.95,989.359 1685.78,980.243 1690.62,971.415 1695.45,962.991 1700.28,955.094 1705.11,947.805 1709.95,940.783 1714.78,933.914 1719.61,927.17 1724.45,920.524 1729.28,913.951 1734.11,907.43 1738.95,900.941 1743.78,894.467 1748.61,887.994 1753.45,881.51 1758.28,875.004 1763.11,868.47 1767.95,861.902 1772.78,855.298 1777.61,848.658 1782.44,841.984 1787.28,835.281 1792.11,828.555 1796.94,821.817 1801.78,815.083 1806.61,808.369 1811.44,801.684 1816.28,795.038 1821.11,788.44 1825.94,781.9 1830.78,775.425 1835.61,769.026 1840.44,762.712 1845.28,756.493 1850.11,750.378 1854.94,744.377 1859.78,738.5 1864.61,732.756 1869.44,727.155 1874.27,721.707 1879.11,716.423 1883.94,711.313 1888.77,706.386 1893.61,701.653 1898.44,697.124 1903.27,692.81 1908.11,688.721 1912.94,684.869 1917.77,681.264 1922.61,677.904 1927.44,674.789 1932.27,671.913 1937.11,669.274 1941.94,666.866 1946.77,664.682 1951.6,662.716 1956.44,660.959 1961.27,659.402 1966.1,658.035 1970.94,656.846 1975.77,655.823 1980.6,654.953 1985.44,654.222 1990.27,653.614 1995.1,653.114 1999.94,652.704 2004.77,652.366 2009.6,652.08 2014.44,651.827 2019.27,651.586 2024.1,651.334 2028.94,651.048 2033.77,650.704 2038.6,650.276 2043.43,649.739 2048.27,649.066 2053.1,648.228 2057.93,647.221 2062.77,646.181 2067.6,645.148 2072.43,644.139 2077.27,643.172 2082.1,642.261 2086.93,641.423 2091.77,640.672 2096.6,640.021 2101.43,639.483 2106.27,639.071 2111.1,638.795 2115.93,638.665 2120.77,638.693 2125.6,638.886 2130.43,639.253 2135.26,639.801 2140.1,640.537 2144.93,641.466 2149.76,642.595 2154.6,643.926 2159.43,645.463 2164.26,647.21 2169.1,649.165 2173.93,651.326 2178.76,653.69 2183.6,656.256 2188.43,659.021 2193.26,661.982 2198.1,665.136 2202.93,668.48 2207.76,672.009 2212.59,675.72 2217.43,679.608 2222.26,683.669 2227.09,687.895 2231.93,692.284 2236.76,696.827 2241.59,701.52 2246.43,706.355 2251.26,711.325 2256.09,716.424 2260.93,721.643 2265.76,726.974 2270.59,732.409 2275.43,737.939 2280.26,743.555 2285.09,749.248 2289.93,755.008 2294.76,760.825 "/>
<path clip-path="url(#clip000)" d="M1444.66 554.876 L2284.45 554.876 L2284.45 166.076 L1444.66 166.076  Z" fill="#ffffff" fill-rule="evenodd" fill-opacity="1"/>
<polyline clip-path="url(#clip000)" style="stroke:#000000; stroke-linecap:round; stroke-linejoin:round; stroke-width:4; stroke-opacity:1; fill:none" points="1444.66,554.876 2284.45,554.876 2284.45,166.076 1444.66,166.076 1444.66,554.876 "/>
<polyline clip-path="url(#clip000)" style="stroke:#009af9; stroke-linecap:round; stroke-linejoin:round; stroke-width:12; stroke-opacity:1; fill:none" points="1467.43,243.836 1604.05,243.836 "/>
<path clip-path="url(#clip000)" d="M1660.19 219.617 L1660.19 226.457 Q1656.2 224.548 1652.65 223.61 Q1649.11 222.673 1645.81 222.673 Q1640.08 222.673 1636.96 224.895 Q1633.87 227.117 1633.87 231.214 Q1633.87 234.652 1635.92 236.423 Q1638 238.159 1643.76 239.235 L1648 240.103 Q1655.85 241.596 1659.56 245.381 Q1663.31 249.131 1663.31 255.45 Q1663.31 262.985 1658.24 266.874 Q1653.21 270.763 1643.45 270.763 Q1639.77 270.763 1635.6 269.929 Q1631.47 269.096 1627.03 267.464 L1627.03 260.242 Q1631.3 262.638 1635.4 263.853 Q1639.49 265.068 1643.45 265.068 Q1649.46 265.068 1652.72 262.707 Q1655.99 260.346 1655.99 255.971 Q1655.99 252.152 1653.63 249.999 Q1651.3 247.846 1645.95 246.77 L1641.68 245.936 Q1633.83 244.374 1630.33 241.041 Q1626.82 237.707 1626.82 231.77 Q1626.82 224.895 1631.65 220.937 Q1636.51 216.978 1645.01 216.978 Q1648.66 216.978 1652.45 217.638 Q1656.23 218.298 1660.19 219.617 Z" fill="#000000" fill-rule="nonzero" fill-opacity="1" /><path clip-path="url(#clip000)" d="M1673.97 230.867 L1680.36 230.867 L1680.36 269.756 L1673.97 269.756 L1673.97 230.867 M1673.97 215.728 L1680.36 215.728 L1680.36 223.818 L1673.97 223.818 L1673.97 215.728 Z" fill="#000000" fill-rule="nonzero" fill-opacity="1" /><path clip-path="url(#clip000)" d="M1724.01 238.332 Q1726.4 234.027 1729.74 231.978 Q1733.07 229.93 1737.58 229.93 Q1743.66 229.93 1746.96 234.2 Q1750.26 238.436 1750.26 246.284 L1750.26 269.756 L1743.83 269.756 L1743.83 246.492 Q1743.83 240.902 1741.85 238.193 Q1739.88 235.485 1735.81 235.485 Q1730.85 235.485 1727.97 238.784 Q1725.08 242.082 1725.08 247.777 L1725.08 269.756 L1718.66 269.756 L1718.66 246.492 Q1718.66 240.867 1716.68 238.193 Q1714.7 235.485 1710.57 235.485 Q1705.67 235.485 1702.79 238.818 Q1699.91 242.117 1699.91 247.777 L1699.91 269.756 L1693.49 269.756 L1693.49 230.867 L1699.91 230.867 L1699.91 236.909 Q1702.1 233.332 1705.15 231.631 Q1708.21 229.93 1712.41 229.93 Q1716.65 229.93 1719.6 232.082 Q1722.58 234.235 1724.01 238.332 Z" fill="#000000" fill-rule="nonzero" fill-opacity="1" /><path clip-path="url(#clip000)" d="M1769.18 263.922 L1769.18 284.547 L1762.76 284.547 L1762.76 230.867 L1769.18 230.867 L1769.18 236.77 Q1771.19 233.298 1774.25 231.631 Q1777.34 229.93 1781.61 229.93 Q1788.69 229.93 1793.1 235.555 Q1797.55 241.179 1797.55 250.346 Q1797.55 259.513 1793.1 265.138 Q1788.69 270.763 1781.61 270.763 Q1777.34 270.763 1774.25 269.096 Q1771.19 267.395 1769.18 263.922 M1790.92 250.346 Q1790.92 243.298 1788 239.304 Q1785.12 235.277 1780.05 235.277 Q1774.98 235.277 1772.06 239.304 Q1769.18 243.298 1769.18 250.346 Q1769.18 257.395 1772.06 261.422 Q1774.98 265.415 1780.05 265.415 Q1785.12 265.415 1788 261.422 Q1790.92 257.395 1790.92 250.346 Z" fill="#000000" fill-rule="nonzero" fill-opacity="1" /><path clip-path="url(#clip000)" d="M1808.14 215.728 L1814.53 215.728 L1814.53 269.756 L1808.14 269.756 L1808.14 215.728 Z" fill="#000000" fill-rule="nonzero" fill-opacity="1" /><path clip-path="url(#clip000)" d="M1861.16 248.714 L1861.16 251.839 L1831.78 251.839 Q1832.2 258.436 1835.74 261.909 Q1839.32 265.346 1845.67 265.346 Q1849.35 265.346 1852.79 264.443 Q1856.26 263.54 1859.67 261.735 L1859.67 267.777 Q1856.23 269.235 1852.62 269.999 Q1849.01 270.763 1845.29 270.763 Q1835.99 270.763 1830.53 265.346 Q1825.12 259.929 1825.12 250.693 Q1825.12 241.145 1830.26 235.555 Q1835.43 229.93 1844.18 229.93 Q1852.03 229.93 1856.58 234.999 Q1861.16 240.034 1861.16 248.714 M1854.77 246.839 Q1854.7 241.596 1851.82 238.471 Q1848.97 235.346 1844.25 235.346 Q1838.9 235.346 1835.67 238.367 Q1832.48 241.388 1831.99 246.874 L1854.77 246.839 Z" fill="#000000" fill-rule="nonzero" fill-opacity="1" /><path clip-path="url(#clip000)" d="M1871.92 217.916 L1901.71 217.916 L1901.71 223.818 L1878.94 223.818 L1878.94 239.096 L1899.49 239.096 L1899.49 244.999 L1878.94 244.999 L1878.94 269.756 L1871.92 269.756 L1871.92 217.916 Z" fill="#000000" fill-rule="nonzero" fill-opacity="1" /><path clip-path="url(#clip000)" d="M1912.83 217.916 L1923.28 217.916 L1936.51 253.193 L1949.8 217.916 L1960.26 217.916 L1960.26 269.756 L1953.42 269.756 L1953.42 224.235 L1940.05 259.79 L1933 259.79 L1919.63 224.235 L1919.63 269.756 L1912.83 269.756 L1912.83 217.916 Z" fill="#000000" fill-rule="nonzero" fill-opacity="1" /><path clip-path="url(#clip000)" d="M1973.38 217.916 L1980.43 217.916 L1980.43 249.409 Q1980.43 257.742 1983.45 261.422 Q1986.47 265.068 1993.24 265.068 Q1999.98 265.068 2003 261.422 Q2006.02 257.742 2006.02 249.409 L2006.02 217.916 L2013.07 217.916 L2013.07 250.277 Q2013.07 260.415 2008.03 265.589 Q2003.03 270.763 1993.24 270.763 Q1983.42 270.763 1978.38 265.589 Q1973.38 260.415 1973.38 250.277 L1973.38 217.916 Z" fill="#000000" fill-rule="nonzero" fill-opacity="1" /><polyline clip-path="url(#clip000)" style="stroke:#e26f46; stroke-linecap:round; stroke-linejoin:round; stroke-width:12; stroke-opacity:1; fill:none" points="1467.43,321.596 1604.05,321.596 "/>
<path clip-path="url(#clip000)" d="M1651.4 323.21 Q1653.66 323.974 1655.78 326.474 Q1657.93 328.974 1660.08 333.349 L1667.2 347.516 L1659.67 347.516 L1653.04 334.217 Q1650.47 329.009 1648.04 327.307 Q1645.64 325.606 1641.47 325.606 L1633.83 325.606 L1633.83 347.516 L1626.82 347.516 L1626.82 295.676 L1642.65 295.676 Q1651.54 295.676 1655.92 299.391 Q1660.29 303.106 1660.29 310.606 Q1660.29 315.502 1658 318.731 Q1655.74 321.96 1651.4 323.21 M1633.83 301.44 L1633.83 319.842 L1642.65 319.842 Q1647.72 319.842 1650.29 317.516 Q1652.9 315.155 1652.9 310.606 Q1652.9 306.058 1650.29 303.766 Q1647.72 301.44 1642.65 301.44 L1633.83 301.44 Z" fill="#000000" fill-rule="nonzero" fill-opacity="1" /><path clip-path="url(#clip000)" d="M1706.02 326.474 L1706.02 329.599 L1676.65 329.599 Q1677.06 336.196 1680.6 339.669 Q1684.18 343.106 1690.54 343.106 Q1694.22 343.106 1697.65 342.203 Q1701.13 341.3 1704.53 339.495 L1704.53 345.537 Q1701.09 346.995 1697.48 347.759 Q1693.87 348.523 1690.15 348.523 Q1680.85 348.523 1675.4 343.106 Q1669.98 337.689 1669.98 328.453 Q1669.98 318.905 1675.12 313.315 Q1680.29 307.69 1689.04 307.69 Q1696.89 307.69 1701.44 312.759 Q1706.02 317.794 1706.02 326.474 M1699.63 324.599 Q1699.56 319.356 1696.68 316.231 Q1693.83 313.106 1689.11 313.106 Q1683.76 313.106 1680.54 316.127 Q1677.34 319.148 1676.85 324.634 L1699.63 324.599 Z" fill="#000000" fill-rule="nonzero" fill-opacity="1" /><path clip-path="url(#clip000)" d="M1736.19 293.488 L1736.19 298.801 L1730.08 298.801 Q1726.65 298.801 1725.29 300.19 Q1723.97 301.578 1723.97 305.19 L1723.97 308.627 L1734.49 308.627 L1734.49 313.592 L1723.97 313.592 L1723.97 347.516 L1717.55 347.516 L1717.55 313.592 L1711.44 313.592 L1711.44 308.627 L1717.55 308.627 L1717.55 305.919 Q1717.55 299.426 1720.57 296.474 Q1723.59 293.488 1730.15 293.488 L1736.19 293.488 Z" fill="#000000" fill-rule="nonzero" fill-opacity="1" /><path clip-path="url(#clip000)" d="M1774.81 326.474 L1774.81 329.599 L1745.43 329.599 Q1745.85 336.196 1749.39 339.669 Q1752.97 343.106 1759.32 343.106 Q1763 343.106 1766.44 342.203 Q1769.91 341.3 1773.31 339.495 L1773.31 345.537 Q1769.88 346.995 1766.26 347.759 Q1762.65 348.523 1758.94 348.523 Q1749.63 348.523 1744.18 343.106 Q1738.76 337.689 1738.76 328.453 Q1738.76 318.905 1743.9 313.315 Q1749.08 307.69 1757.83 307.69 Q1765.67 307.69 1770.22 312.759 Q1774.81 317.794 1774.81 326.474 M1768.42 324.599 Q1768.35 319.356 1765.47 316.231 Q1762.62 313.106 1757.9 313.106 Q1752.55 313.106 1749.32 316.127 Q1746.13 319.148 1745.64 324.634 L1768.42 324.599 Z" fill="#000000" fill-rule="nonzero" fill-opacity="1" /><path clip-path="url(#clip000)" d="M1807.83 314.599 Q1806.75 313.974 1805.47 313.696 Q1804.22 313.384 1802.69 313.384 Q1797.27 313.384 1794.35 316.926 Q1791.47 320.433 1791.47 327.03 L1791.47 347.516 L1785.05 347.516 L1785.05 308.627 L1791.47 308.627 L1791.47 314.669 Q1793.49 311.127 1796.72 309.426 Q1799.94 307.69 1804.56 307.69 Q1805.22 307.69 1806.02 307.794 Q1806.82 307.863 1807.79 308.037 L1807.83 314.599 Z" fill="#000000" fill-rule="nonzero" fill-opacity="1" /><path clip-path="url(#clip000)" d="M1846.23 326.474 L1846.23 329.599 L1816.85 329.599 Q1817.27 336.196 1820.81 339.669 Q1824.39 343.106 1830.74 343.106 Q1834.42 343.106 1837.86 342.203 Q1841.33 341.3 1844.74 339.495 L1844.74 345.537 Q1841.3 346.995 1837.69 347.759 Q1834.08 348.523 1830.36 348.523 Q1821.06 348.523 1815.6 343.106 Q1810.19 337.689 1810.19 328.453 Q1810.19 318.905 1815.33 313.315 Q1820.5 307.69 1829.25 307.69 Q1837.1 307.69 1841.65 312.759 Q1846.23 317.794 1846.23 326.474 M1839.84 324.599 Q1839.77 319.356 1836.89 316.231 Q1834.04 313.106 1829.32 313.106 Q1823.97 313.106 1820.74 316.127 Q1817.55 319.148 1817.06 324.634 L1839.84 324.599 Z" fill="#000000" fill-rule="nonzero" fill-opacity="1" /><path clip-path="url(#clip000)" d="M1889.04 324.044 L1889.04 347.516 L1882.65 347.516 L1882.65 324.252 Q1882.65 318.731 1880.5 315.988 Q1878.35 313.245 1874.04 313.245 Q1868.87 313.245 1865.88 316.544 Q1862.9 319.842 1862.9 325.537 L1862.9 347.516 L1856.47 347.516 L1856.47 308.627 L1862.9 308.627 L1862.9 314.669 Q1865.19 311.162 1868.28 309.426 Q1871.4 307.69 1875.46 307.69 Q1882.17 307.69 1885.6 311.856 Q1889.04 315.988 1889.04 324.044 Z" fill="#000000" fill-rule="nonzero" fill-opacity="1" /><path clip-path="url(#clip000)" d="M1929.77 310.12 L1929.77 316.092 Q1927.06 314.599 1924.32 313.87 Q1921.61 313.106 1918.83 313.106 Q1912.62 313.106 1909.18 317.064 Q1905.74 320.988 1905.74 328.106 Q1905.74 335.224 1909.18 339.182 Q1912.62 343.106 1918.83 343.106 Q1921.61 343.106 1924.32 342.377 Q1927.06 341.613 1929.77 340.12 L1929.77 346.023 Q1927.1 347.273 1924.21 347.898 Q1921.37 348.523 1918.14 348.523 Q1909.35 348.523 1904.18 343.002 Q1899.01 337.481 1899.01 328.106 Q1899.01 318.592 1904.21 313.141 Q1909.46 307.69 1918.55 307.69 Q1921.51 307.69 1924.32 308.315 Q1927.13 308.905 1929.77 310.12 Z" fill="#000000" fill-rule="nonzero" fill-opacity="1" /><path clip-path="url(#clip000)" d="M1974.14 326.474 L1974.14 329.599 L1944.77 329.599 Q1945.19 336.196 1948.73 339.669 Q1952.3 343.106 1958.66 343.106 Q1962.34 343.106 1965.78 342.203 Q1969.25 341.3 1972.65 339.495 L1972.65 345.537 Q1969.21 346.995 1965.6 347.759 Q1961.99 348.523 1958.28 348.523 Q1948.97 348.523 1943.52 343.106 Q1938.1 337.689 1938.1 328.453 Q1938.1 318.905 1943.24 313.315 Q1948.42 307.69 1957.17 307.69 Q1965.01 307.69 1969.56 312.759 Q1974.14 317.794 1974.14 326.474 M1967.76 324.599 Q1967.69 319.356 1964.8 316.231 Q1961.96 313.106 1957.24 313.106 Q1951.89 313.106 1948.66 316.127 Q1945.46 319.148 1944.98 324.634 L1967.76 324.599 Z" fill="#000000" fill-rule="nonzero" fill-opacity="1" /><polyline clip-path="url(#clip000)" style="stroke:#008000; stroke-linecap:round; stroke-linejoin:round; stroke-width:12; stroke-opacity:1; fill:none" stroke-dasharray="6, 12" points="1467.43,399.356 1604.05,399.356 "/>
<path clip-path="url(#clip000)" d="M1626.82 373.436 L1636.26 373.436 L1659.25 416.804 L1659.25 373.436 L1666.06 373.436 L1666.06 425.276 L1656.61 425.276 L1633.63 381.908 L1633.63 425.276 L1626.82 425.276 L1626.82 373.436 Z" fill="#000000" fill-rule="nonzero" fill-opacity="1" /><path clip-path="url(#clip000)" d="M1713 404.234 L1713 407.359 L1683.63 407.359 Q1684.04 413.956 1687.58 417.429 Q1691.16 420.866 1697.51 420.866 Q1701.19 420.866 1704.63 419.963 Q1708.1 419.06 1711.51 417.255 L1711.51 423.297 Q1708.07 424.755 1704.46 425.519 Q1700.85 426.283 1697.13 426.283 Q1687.83 426.283 1682.38 420.866 Q1676.96 415.449 1676.96 406.213 Q1676.96 396.665 1682.1 391.075 Q1687.27 385.45 1696.02 385.45 Q1703.87 385.45 1708.42 390.519 Q1713 395.554 1713 404.234 M1706.61 402.359 Q1706.54 397.116 1703.66 393.991 Q1700.81 390.866 1696.09 390.866 Q1690.74 390.866 1687.51 393.887 Q1684.32 396.908 1683.83 402.394 L1706.61 402.359 Z" fill="#000000" fill-rule="nonzero" fill-opacity="1" /><path clip-path="url(#clip000)" d="M1722.83 409.929 L1722.83 386.387 L1729.22 386.387 L1729.22 409.686 Q1729.22 415.206 1731.37 417.984 Q1733.52 420.727 1737.83 420.727 Q1743 420.727 1745.99 417.429 Q1749.01 414.13 1749.01 408.436 L1749.01 386.387 L1755.4 386.387 L1755.4 425.276 L1749.01 425.276 L1749.01 419.304 Q1746.68 422.845 1743.59 424.581 Q1740.53 426.283 1736.47 426.283 Q1729.77 426.283 1726.3 422.116 Q1722.83 417.949 1722.83 409.929 M1738.9 385.45 L1738.9 385.45 Z" fill="#000000" fill-rule="nonzero" fill-opacity="1" /><path clip-path="url(#clip000)" d="M1791.09 392.359 Q1790.01 391.734 1788.73 391.456 Q1787.48 391.144 1785.95 391.144 Q1780.53 391.144 1777.62 394.686 Q1774.74 398.193 1774.74 404.79 L1774.74 425.276 L1768.31 425.276 L1768.31 386.387 L1774.74 386.387 L1774.74 392.429 Q1776.75 388.887 1779.98 387.186 Q1783.21 385.45 1787.83 385.45 Q1788.49 385.45 1789.28 385.554 Q1790.08 385.623 1791.06 385.797 L1791.09 392.359 Z" fill="#000000" fill-rule="nonzero" fill-opacity="1" /><path clip-path="url(#clip000)" d="M1815.47 405.727 Q1807.72 405.727 1804.74 407.498 Q1801.75 409.269 1801.75 413.54 Q1801.75 416.942 1803.97 418.956 Q1806.23 420.935 1810.08 420.935 Q1815.4 420.935 1818.59 417.185 Q1821.82 413.401 1821.82 407.151 L1821.82 405.727 L1815.47 405.727 M1828.21 403.088 L1828.21 425.276 L1821.82 425.276 L1821.82 419.373 Q1819.63 422.915 1816.37 424.616 Q1813.1 426.283 1808.38 426.283 Q1802.41 426.283 1798.87 422.949 Q1795.36 419.581 1795.36 413.956 Q1795.36 407.394 1799.74 404.061 Q1804.15 400.727 1812.86 400.727 L1821.82 400.727 L1821.82 400.102 Q1821.82 395.693 1818.9 393.297 Q1816.02 390.866 1810.78 390.866 Q1807.44 390.866 1804.28 391.665 Q1801.12 392.463 1798.21 394.061 L1798.21 388.158 Q1801.72 386.804 1805.01 386.144 Q1808.31 385.45 1811.44 385.45 Q1819.87 385.45 1824.04 389.825 Q1828.21 394.199 1828.21 403.088 Z" fill="#000000" fill-rule="nonzero" fill-opacity="1" /><path clip-path="url(#clip000)" d="M1841.37 371.248 L1847.76 371.248 L1847.76 425.276 L1841.37 425.276 L1841.37 371.248 Z" fill="#000000" fill-rule="nonzero" fill-opacity="1" /><path clip-path="url(#clip000)" d="M1861.4 373.436 L1891.19 373.436 L1891.19 379.338 L1868.42 379.338 L1868.42 394.616 L1888.97 394.616 L1888.97 400.519 L1868.42 400.519 L1868.42 425.276 L1861.4 425.276 L1861.4 373.436 Z" fill="#000000" fill-rule="nonzero" fill-opacity="1" /><path clip-path="url(#clip000)" d="M1902.3 373.436 L1912.76 373.436 L1925.99 408.713 L1939.28 373.436 L1949.74 373.436 L1949.74 425.276 L1942.89 425.276 L1942.89 379.755 L1929.53 415.31 L1922.48 415.31 L1909.11 379.755 L1909.11 425.276 L1902.3 425.276 L1902.3 373.436 Z" fill="#000000" fill-rule="nonzero" fill-opacity="1" /><path clip-path="url(#clip000)" d="M1962.86 373.436 L1969.91 373.436 L1969.91 404.929 Q1969.91 413.262 1972.93 416.942 Q1975.95 420.588 1982.72 420.588 Q1989.46 420.588 1992.48 416.942 Q1995.5 413.262 1995.5 404.929 L1995.5 373.436 L2002.55 373.436 L2002.55 405.797 Q2002.55 415.935 1997.51 421.109 Q1992.51 426.283 1982.72 426.283 Q1972.89 426.283 1967.86 421.109 Q1962.86 415.935 1962.86 405.797 L1962.86 373.436 Z" fill="#000000" fill-rule="nonzero" fill-opacity="1" /><path clip-path="url(#clip000)" d="M2053.38 371.318 Q2048.73 379.304 2046.47 387.116 Q2044.21 394.929 2044.21 402.949 Q2044.21 410.97 2046.47 418.852 Q2048.76 426.699 2053.38 434.651 L2047.82 434.651 Q2042.62 426.491 2040.01 418.609 Q2037.44 410.727 2037.44 402.949 Q2037.44 395.206 2040.01 387.359 Q2042.58 379.512 2047.82 371.318 L2053.38 371.318 Z" fill="#000000" fill-rule="nonzero" fill-opacity="1" /><path clip-path="url(#clip000)" d="M2072.72 419.373 L2097.2 419.373 L2097.2 425.276 L2064.28 425.276 L2064.28 419.373 Q2068.28 415.241 2075.15 408.297 Q2082.06 401.318 2083.83 399.304 Q2087.2 395.519 2088.52 392.915 Q2089.87 390.276 2089.87 387.741 Q2089.87 383.609 2086.96 381.005 Q2084.07 378.401 2079.42 378.401 Q2076.12 378.401 2072.44 379.547 Q2068.8 380.693 2064.63 383.019 L2064.63 375.936 Q2068.87 374.234 2072.55 373.366 Q2076.23 372.498 2079.28 372.498 Q2087.34 372.498 2092.13 376.526 Q2096.92 380.554 2096.92 387.29 Q2096.92 390.484 2095.71 393.366 Q2094.53 396.213 2091.37 400.102 Q2090.5 401.109 2085.85 405.936 Q2081.19 410.727 2072.72 419.373 Z" fill="#000000" fill-rule="nonzero" fill-opacity="1" /><path clip-path="url(#clip000)" d="M2111.99 373.436 L2139.53 373.436 L2139.53 379.338 L2118.41 379.338 L2118.41 392.047 Q2119.94 391.526 2121.47 391.283 Q2123 391.005 2124.53 391.005 Q2133.21 391.005 2138.28 395.762 Q2143.35 400.519 2143.35 408.644 Q2143.35 417.012 2138.14 421.665 Q2132.93 426.283 2123.45 426.283 Q2120.19 426.283 2116.78 425.727 Q2113.41 425.172 2109.8 424.06 L2109.8 417.012 Q2112.93 418.713 2116.26 419.547 Q2119.6 420.38 2123.31 420.38 Q2129.32 420.38 2132.82 417.22 Q2136.33 414.06 2136.33 408.644 Q2136.33 403.227 2132.82 400.068 Q2129.32 396.908 2123.31 396.908 Q2120.5 396.908 2117.69 397.533 Q2114.91 398.158 2111.99 399.477 L2111.99 373.436 Z" fill="#000000" fill-rule="nonzero" fill-opacity="1" /><path clip-path="url(#clip000)" d="M2172.16 378.054 Q2166.75 378.054 2164 383.401 Q2161.3 388.713 2161.3 399.408 Q2161.3 410.067 2164 415.415 Q2166.75 420.727 2172.16 420.727 Q2177.62 420.727 2180.32 415.415 Q2183.07 410.067 2183.07 399.408 Q2183.07 388.713 2180.32 383.401 Q2177.62 378.054 2172.16 378.054 M2172.16 372.498 Q2180.88 372.498 2185.46 379.408 Q2190.08 386.283 2190.08 399.408 Q2190.08 412.498 2185.46 419.408 Q2180.88 426.283 2172.16 426.283 Q2163.45 426.283 2158.83 419.408 Q2154.25 412.498 2154.25 399.408 Q2154.25 386.283 2158.83 379.408 Q2163.45 372.498 2172.16 372.498 Z" fill="#000000" fill-rule="nonzero" fill-opacity="1" /><path clip-path="url(#clip000)" d="M2217.41 378.054 Q2211.99 378.054 2209.25 383.401 Q2206.54 388.713 2206.54 399.408 Q2206.54 410.067 2209.25 415.415 Q2211.99 420.727 2217.41 420.727 Q2222.86 420.727 2225.57 415.415 Q2228.31 410.067 2228.31 399.408 Q2228.31 388.713 2225.57 383.401 Q2222.86 378.054 2217.41 378.054 M2217.41 372.498 Q2226.12 372.498 2230.71 379.408 Q2235.32 386.283 2235.32 399.408 Q2235.32 412.498 2230.71 419.408 Q2226.12 426.283 2217.41 426.283 Q2208.69 426.283 2204.07 419.408 Q2199.49 412.498 2199.49 399.408 Q2199.49 386.283 2204.07 379.408 Q2208.69 372.498 2217.41 372.498 Z" fill="#000000" fill-rule="nonzero" fill-opacity="1" /><path clip-path="url(#clip000)" d="M2245.74 371.318 L2251.3 371.318 Q2256.5 379.512 2259.07 387.359 Q2261.68 395.206 2261.68 402.949 Q2261.68 410.727 2259.07 418.609 Q2256.5 426.491 2251.3 434.651 L2245.74 434.651 Q2250.36 426.699 2252.62 418.852 Q2254.91 410.97 2254.91 402.949 Q2254.91 394.929 2252.62 387.116 Q2250.36 379.304 2245.74 371.318 Z" fill="#000000" fill-rule="nonzero" fill-opacity="1" /><polyline clip-path="url(#clip000)" style="stroke:#008000; stroke-linecap:round; stroke-linejoin:round; stroke-width:12; stroke-opacity:1; fill:none" points="1467.43,477.116 1604.05,477.116 "/>
<path clip-path="url(#clip000)" d="M1626.82 451.196 L1636.26 451.196 L1659.25 494.564 L1659.25 451.196 L1666.06 451.196 L1666.06 503.036 L1656.61 503.036 L1633.63 459.668 L1633.63 503.036 L1626.82 503.036 L1626.82 451.196 Z" fill="#000000" fill-rule="nonzero" fill-opacity="1" /><path clip-path="url(#clip000)" d="M1713 481.994 L1713 485.119 L1683.63 485.119 Q1684.04 491.716 1687.58 495.189 Q1691.16 498.626 1697.51 498.626 Q1701.19 498.626 1704.63 497.723 Q1708.1 496.82 1711.51 495.015 L1711.51 501.057 Q1708.07 502.515 1704.46 503.279 Q1700.85 504.043 1697.13 504.043 Q1687.83 504.043 1682.38 498.626 Q1676.96 493.209 1676.96 483.973 Q1676.96 474.425 1682.1 468.835 Q1687.27 463.21 1696.02 463.21 Q1703.87 463.21 1708.42 468.279 Q1713 473.314 1713 481.994 M1706.61 480.119 Q1706.54 474.876 1703.66 471.751 Q1700.81 468.626 1696.09 468.626 Q1690.74 468.626 1687.51 471.647 Q1684.32 474.668 1683.83 480.154 L1706.61 480.119 Z" fill="#000000" fill-rule="nonzero" fill-opacity="1" /><path clip-path="url(#clip000)" d="M1722.83 487.689 L1722.83 464.147 L1729.22 464.147 L1729.22 487.446 Q1729.22 492.966 1731.37 495.744 Q1733.52 498.487 1737.83 498.487 Q1743 498.487 1745.99 495.189 Q1749.01 491.89 1749.01 486.196 L1749.01 464.147 L1755.4 464.147 L1755.4 503.036 L1749.01 503.036 L1749.01 497.064 Q1746.68 500.605 1743.59 502.341 Q1740.53 504.043 1736.47 504.043 Q1729.77 504.043 1726.3 499.876 Q1722.83 495.709 1722.83 487.689 M1738.9 463.21 L1738.9 463.21 Z" fill="#000000" fill-rule="nonzero" fill-opacity="1" /><path clip-path="url(#clip000)" d="M1791.09 470.119 Q1790.01 469.494 1788.73 469.216 Q1787.48 468.904 1785.95 468.904 Q1780.53 468.904 1777.62 472.446 Q1774.74 475.953 1774.74 482.55 L1774.74 503.036 L1768.31 503.036 L1768.31 464.147 L1774.74 464.147 L1774.74 470.189 Q1776.75 466.647 1779.98 464.946 Q1783.21 463.21 1787.83 463.21 Q1788.49 463.21 1789.28 463.314 Q1790.08 463.383 1791.06 463.557 L1791.09 470.119 Z" fill="#000000" fill-rule="nonzero" fill-opacity="1" /><path clip-path="url(#clip000)" d="M1815.47 483.487 Q1807.72 483.487 1804.74 485.258 Q1801.75 487.029 1801.75 491.3 Q1801.75 494.702 1803.97 496.716 Q1806.23 498.695 1810.08 498.695 Q1815.4 498.695 1818.59 494.945 Q1821.82 491.161 1821.82 484.911 L1821.82 483.487 L1815.47 483.487 M1828.21 480.848 L1828.21 503.036 L1821.82 503.036 L1821.82 497.133 Q1819.63 500.675 1816.37 502.376 Q1813.1 504.043 1808.38 504.043 Q1802.41 504.043 1798.87 500.709 Q1795.36 497.341 1795.36 491.716 Q1795.36 485.154 1799.74 481.821 Q1804.15 478.487 1812.86 478.487 L1821.82 478.487 L1821.82 477.862 Q1821.82 473.453 1818.9 471.057 Q1816.02 468.626 1810.78 468.626 Q1807.44 468.626 1804.28 469.425 Q1801.12 470.223 1798.21 471.821 L1798.21 465.918 Q1801.72 464.564 1805.01 463.904 Q1808.31 463.21 1811.44 463.21 Q1819.87 463.21 1824.04 467.585 Q1828.21 471.959 1828.21 480.848 Z" fill="#000000" fill-rule="nonzero" fill-opacity="1" /><path clip-path="url(#clip000)" d="M1841.37 449.008 L1847.76 449.008 L1847.76 503.036 L1841.37 503.036 L1841.37 449.008 Z" fill="#000000" fill-rule="nonzero" fill-opacity="1" /><path clip-path="url(#clip000)" d="M1861.4 451.196 L1891.19 451.196 L1891.19 457.098 L1868.42 457.098 L1868.42 472.376 L1888.97 472.376 L1888.97 478.279 L1868.42 478.279 L1868.42 503.036 L1861.4 503.036 L1861.4 451.196 Z" fill="#000000" fill-rule="nonzero" fill-opacity="1" /><path clip-path="url(#clip000)" d="M1902.3 451.196 L1912.76 451.196 L1925.99 486.473 L1939.28 451.196 L1949.74 451.196 L1949.74 503.036 L1942.89 503.036 L1942.89 457.515 L1929.53 493.07 L1922.48 493.07 L1909.11 457.515 L1909.11 503.036 L1902.3 503.036 L1902.3 451.196 Z" fill="#000000" fill-rule="nonzero" fill-opacity="1" /><path clip-path="url(#clip000)" d="M1962.86 451.196 L1969.91 451.196 L1969.91 482.689 Q1969.91 491.022 1972.93 494.702 Q1975.95 498.348 1982.72 498.348 Q1989.46 498.348 1992.48 494.702 Q1995.5 491.022 1995.5 482.689 L1995.5 451.196 L2002.55 451.196 L2002.55 483.557 Q2002.55 493.695 1997.51 498.869 Q1992.51 504.043 1982.72 504.043 Q1972.89 504.043 1967.86 498.869 Q1962.86 493.695 1962.86 483.557 L1962.86 451.196 Z" fill="#000000" fill-rule="nonzero" fill-opacity="1" /><path clip-path="url(#clip000)" d="M2053.38 449.078 Q2048.73 457.064 2046.47 464.876 Q2044.21 472.689 2044.21 480.709 Q2044.21 488.73 2046.47 496.612 Q2048.76 504.459 2053.38 512.411 L2047.82 512.411 Q2042.62 504.251 2040.01 496.369 Q2037.44 488.487 2037.44 480.709 Q2037.44 472.966 2040.01 465.119 Q2042.58 457.272 2047.82 449.078 L2053.38 449.078 Z" fill="#000000" fill-rule="nonzero" fill-opacity="1" /><path clip-path="url(#clip000)" d="M2066.75 451.196 L2094.28 451.196 L2094.28 457.098 L2073.17 457.098 L2073.17 469.807 Q2074.7 469.286 2076.23 469.043 Q2077.76 468.765 2079.28 468.765 Q2087.96 468.765 2093.03 473.522 Q2098.1 478.279 2098.1 486.404 Q2098.1 494.772 2092.89 499.425 Q2087.69 504.043 2078.21 504.043 Q2074.94 504.043 2071.54 503.487 Q2068.17 502.932 2064.56 501.82 L2064.56 494.772 Q2067.69 496.473 2071.02 497.307 Q2074.35 498.14 2078.07 498.14 Q2084.07 498.14 2087.58 494.98 Q2091.09 491.82 2091.09 486.404 Q2091.09 480.987 2087.58 477.828 Q2084.07 474.668 2078.07 474.668 Q2075.26 474.668 2072.44 475.293 Q2069.67 475.918 2066.75 477.237 L2066.75 451.196 Z" fill="#000000" fill-rule="nonzero" fill-opacity="1" /><path clip-path="url(#clip000)" d="M2126.92 455.814 Q2121.51 455.814 2118.76 461.161 Q2116.05 466.473 2116.05 477.168 Q2116.05 487.827 2118.76 493.175 Q2121.51 498.487 2126.92 498.487 Q2132.37 498.487 2135.08 493.175 Q2137.82 487.827 2137.82 477.168 Q2137.82 466.473 2135.08 461.161 Q2132.37 455.814 2126.92 455.814 M2126.92 450.258 Q2135.64 450.258 2140.22 457.168 Q2144.84 464.043 2144.84 477.168 Q2144.84 490.258 2140.22 497.168 Q2135.64 504.043 2126.92 504.043 Q2118.21 504.043 2113.59 497.168 Q2109.01 490.258 2109.01 477.168 Q2109.01 464.043 2113.59 457.168 Q2118.21 450.258 2126.92 450.258 Z" fill="#000000" fill-rule="nonzero" fill-opacity="1" /><path clip-path="url(#clip000)" d="M2172.16 455.814 Q2166.75 455.814 2164 461.161 Q2161.3 466.473 2161.3 477.168 Q2161.3 487.827 2164 493.175 Q2166.75 498.487 2172.16 498.487 Q2177.62 498.487 2180.32 493.175 Q2183.07 487.827 2183.07 477.168 Q2183.07 466.473 2180.32 461.161 Q2177.62 455.814 2172.16 455.814 M2172.16 450.258 Q2180.88 450.258 2185.46 457.168 Q2190.08 464.043 2190.08 477.168 Q2190.08 490.258 2185.46 497.168 Q2180.88 504.043 2172.16 504.043 Q2163.45 504.043 2158.83 497.168 Q2154.25 490.258 2154.25 477.168 Q2154.25 464.043 2158.83 457.168 Q2163.45 450.258 2172.16 450.258 Z" fill="#000000" fill-rule="nonzero" fill-opacity="1" /><path clip-path="url(#clip000)" d="M2217.41 455.814 Q2211.99 455.814 2209.25 461.161 Q2206.54 466.473 2206.54 477.168 Q2206.54 487.827 2209.25 493.175 Q2211.99 498.487 2217.41 498.487 Q2222.86 498.487 2225.57 493.175 Q2228.31 487.827 2228.31 477.168 Q2228.31 466.473 2225.57 461.161 Q2222.86 455.814 2217.41 455.814 M2217.41 450.258 Q2226.12 450.258 2230.71 457.168 Q2235.32 464.043 2235.32 477.168 Q2235.32 490.258 2230.71 497.168 Q2226.12 504.043 2217.41 504.043 Q2208.69 504.043 2204.07 497.168 Q2199.49 490.258 2199.49 477.168 Q2199.49 464.043 2204.07 457.168 Q2208.69 450.258 2217.41 450.258 Z" fill="#000000" fill-rule="nonzero" fill-opacity="1" /><path clip-path="url(#clip000)" d="M2245.74 449.078 L2251.3 449.078 Q2256.5 457.272 2259.07 465.119 Q2261.68 472.966 2261.68 480.709 Q2261.68 488.487 2259.07 496.369 Q2256.5 504.251 2251.3 512.411 L2245.74 512.411 Q2250.36 504.459 2252.62 496.612 Q2254.91 488.73 2254.91 480.709 Q2254.91 472.689 2252.62 464.876 Q2250.36 457.064 2245.74 449.078 Z" fill="#000000" fill-rule="nonzero" fill-opacity="1" /></svg>
