<?xml version="1.0" encoding="utf-8"?>
<svg xmlns="http://www.w3.org/2000/svg" xmlns:xlink="http://www.w3.org/1999/xlink" width="600" height="400" viewBox="0 0 2400 1600">
<defs>
  <clipPath id="clip580">
    <rect x="0" y="0" width="2400" height="1600"/>
  </clipPath>
</defs>
<path clip-path="url(#clip580)" d="
M0 1600 L2400 1600 L2400 0 L0 0  Z
  " fill="#ffffff" fill-rule="evenodd" fill-opacity="1"/>
<defs>
  <clipPath id="clip581">
    <rect x="480" y="0" width="1681" height="1600"/>
  </clipPath>
</defs>
<path clip-path="url(#clip580)" d="
M314.996 1401.58 L2352.76 1401.58 L2352.76 123.472 L314.996 123.472  Z
  " fill="#ffffff" fill-rule="evenodd" fill-opacity="1"/>
<defs>
  <clipPath id="clip582">
    <rect x="314" y="123" width="2039" height="1279"/>
  </clipPath>
</defs>
<polyline clip-path="url(#clip582)" style="stroke:#000000; stroke-linecap:round; stroke-linejoin:round; stroke-width:2; stroke-opacity:0.1; fill:none" points="
  518.772,1401.58 518.772,123.472 
  "/>
<polyline clip-path="url(#clip582)" style="stroke:#000000; stroke-linecap:round; stroke-linejoin:round; stroke-width:2; stroke-opacity:0.1; fill:none" points="
  926.324,1401.58 926.324,123.472 
  "/>
<polyline clip-path="url(#clip582)" style="stroke:#000000; stroke-linecap:round; stroke-linejoin:round; stroke-width:2; stroke-opacity:0.1; fill:none" points="
  1333.88,1401.58 1333.88,123.472 
  "/>
<polyline clip-path="url(#clip582)" style="stroke:#000000; stroke-linecap:round; stroke-linejoin:round; stroke-width:2; stroke-opacity:0.1; fill:none" points="
  1741.43,1401.58 1741.43,123.472 
  "/>
<polyline clip-path="url(#clip582)" style="stroke:#000000; stroke-linecap:round; stroke-linejoin:round; stroke-width:2; stroke-opacity:0.1; fill:none" points="
  2148.98,1401.58 2148.98,123.472 
  "/>
<polyline clip-path="url(#clip580)" style="stroke:#000000; stroke-linecap:round; stroke-linejoin:round; stroke-width:4; stroke-opacity:1; fill:none" points="
  314.996,1401.58 2352.76,1401.58 
  "/>
<polyline clip-path="url(#clip580)" style="stroke:#000000; stroke-linecap:round; stroke-linejoin:round; stroke-width:4; stroke-opacity:1; fill:none" points="
  518.772,1401.58 518.772,1382.68 
  "/>
<polyline clip-path="url(#clip580)" style="stroke:#000000; stroke-linecap:round; stroke-linejoin:round; stroke-width:4; stroke-opacity:1; fill:none" points="
  926.324,1401.58 926.324,1382.68 
  "/>
<polyline clip-path="url(#clip580)" style="stroke:#000000; stroke-linecap:round; stroke-linejoin:round; stroke-width:4; stroke-opacity:1; fill:none" points="
  1333.88,1401.58 1333.88,1382.68 
  "/>
<polyline clip-path="url(#clip580)" style="stroke:#000000; stroke-linecap:round; stroke-linejoin:round; stroke-width:4; stroke-opacity:1; fill:none" points="
  1741.43,1401.58 1741.43,1382.68 
  "/>
<polyline clip-path="url(#clip580)" style="stroke:#000000; stroke-linecap:round; stroke-linejoin:round; stroke-width:4; stroke-opacity:1; fill:none" points="
  2148.98,1401.58 2148.98,1382.68 
  "/>
<path clip-path="url(#clip580)" d="M438.564 1460.34 L483.078 1460.34 L483.078 1466.24 L438.564 1466.24 L438.564 1460.34 Z" fill="#000000" fill-rule="evenodd" fill-opacity="1" /><path clip-path="url(#clip580)" d="M499.432 1479.68 L510.89 1479.68 L510.89 1440.13 L498.425 1442.63 L498.425 1436.24 L510.821 1433.74 L517.834 1433.74 L517.834 1479.68 L529.293 1479.68 L529.293 1485.58 L499.432 1485.58 L499.432 1479.68 Z" fill="#000000" fill-rule="evenodd" fill-opacity="1" /><path clip-path="url(#clip580)" d="M543.459 1476.76 L550.786 1476.76 L550.786 1485.58 L543.459 1485.58 L543.459 1476.76 Z" fill="#000000" fill-rule="evenodd" fill-opacity="1" /><path clip-path="url(#clip580)" d="M581.063 1438.36 Q575.647 1438.36 572.904 1443.71 Q570.195 1449.02 570.195 1459.71 Q570.195 1470.37 572.904 1475.72 Q575.647 1481.03 581.063 1481.03 Q586.515 1481.03 589.223 1475.72 Q591.966 1470.37 591.966 1459.71 Q591.966 1449.02 589.223 1443.71 Q586.515 1438.36 581.063 1438.36 M581.063 1432.8 Q589.779 1432.8 594.362 1439.71 Q598.98 1446.59 598.98 1459.71 Q598.98 1472.8 594.362 1479.71 Q589.779 1486.59 581.063 1486.59 Q572.348 1486.59 567.73 1479.71 Q563.147 1472.8 563.147 1459.71 Q563.147 1446.59 567.73 1439.71 Q572.348 1432.8 581.063 1432.8 Z" fill="#000000" fill-rule="evenodd" fill-opacity="1" /><path clip-path="url(#clip580)" d="M846.863 1460.34 L891.376 1460.34 L891.376 1466.24 L846.863 1466.24 L846.863 1460.34 Z" fill="#000000" fill-rule="evenodd" fill-opacity="1" /><path clip-path="url(#clip580)" d="M921.515 1438.36 Q916.098 1438.36 913.355 1443.71 Q910.647 1449.02 910.647 1459.71 Q910.647 1470.37 913.355 1475.72 Q916.098 1481.03 921.515 1481.03 Q926.966 1481.03 929.675 1475.72 Q932.418 1470.37 932.418 1459.71 Q932.418 1449.02 929.675 1443.71 Q926.966 1438.36 921.515 1438.36 M921.515 1432.8 Q930.23 1432.8 934.813 1439.71 Q939.432 1446.59 939.432 1459.71 Q939.432 1472.8 934.813 1479.71 Q930.23 1486.59 921.515 1486.59 Q912.8 1486.59 908.182 1479.71 Q903.598 1472.8 903.598 1459.71 Q903.598 1446.59 908.182 1439.71 Q912.8 1432.8 921.515 1432.8 Z" fill="#000000" fill-rule="evenodd" fill-opacity="1" /><path clip-path="url(#clip580)" d="M951.758 1476.76 L959.084 1476.76 L959.084 1485.58 L951.758 1485.58 L951.758 1476.76 Z" fill="#000000" fill-rule="evenodd" fill-opacity="1" /><path clip-path="url(#clip580)" d="M974.431 1433.74 L1001.97 1433.74 L1001.97 1439.64 L980.855 1439.64 L980.855 1452.35 Q982.383 1451.83 983.91 1451.59 Q985.438 1451.31 986.966 1451.31 Q995.646 1451.31 1000.72 1456.07 Q1005.79 1460.82 1005.79 1468.95 Q1005.79 1477.32 1000.58 1481.97 Q995.369 1486.59 985.89 1486.59 Q982.626 1486.59 979.223 1486.03 Q975.855 1485.48 972.244 1484.36 L972.244 1477.32 Q975.369 1479.02 978.702 1479.85 Q982.035 1480.68 985.751 1480.68 Q991.758 1480.68 995.265 1477.52 Q998.771 1474.36 998.771 1468.95 Q998.771 1463.53 995.265 1460.37 Q991.758 1457.21 985.751 1457.21 Q982.938 1457.21 980.126 1457.84 Q977.348 1458.46 974.431 1459.78 L974.431 1433.74 Z" fill="#000000" fill-rule="evenodd" fill-opacity="1" /><path clip-path="url(#clip580)" d="M1299.95 1438.36 Q1294.54 1438.36 1291.79 1443.71 Q1289.08 1449.02 1289.08 1459.71 Q1289.08 1470.37 1291.79 1475.72 Q1294.54 1481.03 1299.95 1481.03 Q1305.4 1481.03 1308.11 1475.72 Q1310.86 1470.37 1310.86 1459.71 Q1310.86 1449.02 1308.11 1443.71 Q1305.4 1438.36 1299.95 1438.36 M1299.95 1432.8 Q1308.67 1432.8 1313.25 1439.71 Q1317.87 1446.59 1317.87 1459.71 Q1317.87 1472.8 1313.25 1479.71 Q1308.67 1486.59 1299.95 1486.59 Q1291.24 1486.59 1286.62 1479.71 Q1282.04 1472.8 1282.04 1459.71 Q1282.04 1446.59 1286.62 1439.71 Q1291.24 1432.8 1299.95 1432.8 Z" fill="#000000" fill-rule="evenodd" fill-opacity="1" /><path clip-path="url(#clip580)" d="M1330.2 1476.76 L1337.52 1476.76 L1337.52 1485.58 L1330.2 1485.58 L1330.2 1476.76 Z" fill="#000000" fill-rule="evenodd" fill-opacity="1" /><path clip-path="url(#clip580)" d="M1367.8 1438.36 Q1362.38 1438.36 1359.64 1443.71 Q1356.93 1449.02 1356.93 1459.71 Q1356.93 1470.37 1359.64 1475.72 Q1362.38 1481.03 1367.8 1481.03 Q1373.25 1481.03 1375.96 1475.72 Q1378.7 1470.37 1378.7 1459.71 Q1378.7 1449.02 1375.96 1443.71 Q1373.25 1438.36 1367.8 1438.36 M1367.8 1432.8 Q1376.51 1432.8 1381.1 1439.71 Q1385.72 1446.59 1385.72 1459.71 Q1385.72 1472.8 1381.1 1479.71 Q1376.51 1486.59 1367.8 1486.59 Q1359.08 1486.59 1354.47 1479.71 Q1349.88 1472.8 1349.88 1459.71 Q1349.88 1446.59 1354.47 1439.71 Q1359.08 1432.8 1367.8 1432.8 Z" fill="#000000" fill-rule="evenodd" fill-opacity="1" /><path clip-path="url(#clip580)" d="M1708.25 1438.36 Q1702.83 1438.36 1700.09 1443.71 Q1697.38 1449.02 1697.38 1459.71 Q1697.38 1470.37 1700.09 1475.72 Q1702.83 1481.03 1708.25 1481.03 Q1713.7 1481.03 1716.41 1475.72 Q1719.15 1470.37 1719.15 1459.71 Q1719.15 1449.02 1716.41 1443.71 Q1713.7 1438.36 1708.25 1438.36 M1708.25 1432.8 Q1716.97 1432.8 1721.55 1439.71 Q1726.17 1446.59 1726.17 1459.71 Q1726.17 1472.8 1721.55 1479.71 Q1716.97 1486.59 1708.25 1486.59 Q1699.54 1486.59 1694.92 1479.71 Q1690.33 1472.8 1690.33 1459.71 Q1690.33 1446.59 1694.92 1439.71 Q1699.54 1432.8 1708.25 1432.8 Z" fill="#000000" fill-rule="evenodd" fill-opacity="1" /><path clip-path="url(#clip580)" d="M1738.49 1476.76 L1745.82 1476.76 L1745.82 1485.58 L1738.49 1485.58 L1738.49 1476.76 Z" fill="#000000" fill-rule="evenodd" fill-opacity="1" /><path clip-path="url(#clip580)" d="M1761.17 1433.74 L1788.7 1433.74 L1788.7 1439.64 L1767.59 1439.64 L1767.59 1452.35 Q1769.12 1451.83 1770.65 1451.59 Q1772.17 1451.31 1773.7 1451.31 Q1782.38 1451.31 1787.45 1456.07 Q1792.52 1460.82 1792.52 1468.95 Q1792.52 1477.32 1787.31 1481.97 Q1782.1 1486.59 1772.63 1486.59 Q1769.36 1486.59 1765.96 1486.03 Q1762.59 1485.48 1758.98 1484.36 L1758.98 1477.32 Q1762.1 1479.02 1765.44 1479.85 Q1768.77 1480.68 1772.49 1480.68 Q1778.49 1480.68 1782 1477.52 Q1785.51 1474.36 1785.51 1468.95 Q1785.51 1463.53 1782 1460.37 Q1778.49 1457.21 1772.49 1457.21 Q1769.67 1457.21 1766.86 1457.84 Q1764.08 1458.46 1761.17 1459.78 L1761.17 1433.74 Z" fill="#000000" fill-rule="evenodd" fill-opacity="1" /><path clip-path="url(#clip580)" d="M2099.71 1479.68 L2111.17 1479.68 L2111.17 1440.13 L2098.7 1442.63 L2098.7 1436.24 L2111.1 1433.74 L2118.11 1433.74 L2118.11 1479.68 L2129.57 1479.68 L2129.57 1485.58 L2099.71 1485.58 L2099.71 1479.68 Z" fill="#000000" fill-rule="evenodd" fill-opacity="1" /><path clip-path="url(#clip580)" d="M2143.74 1476.76 L2151.06 1476.76 L2151.06 1485.58 L2143.74 1485.58 L2143.74 1476.76 Z" fill="#000000" fill-rule="evenodd" fill-opacity="1" /><path clip-path="url(#clip580)" d="M2181.34 1438.36 Q2175.92 1438.36 2173.18 1443.71 Q2170.47 1449.02 2170.47 1459.71 Q2170.47 1470.37 2173.18 1475.72 Q2175.92 1481.03 2181.34 1481.03 Q2186.79 1481.03 2189.5 1475.72 Q2192.24 1470.37 2192.24 1459.71 Q2192.24 1449.02 2189.5 1443.71 Q2186.79 1438.36 2181.34 1438.36 M2181.34 1432.8 Q2190.06 1432.8 2194.64 1439.71 Q2199.26 1446.59 2199.26 1459.71 Q2199.26 1472.8 2194.64 1479.71 Q2190.06 1486.59 2181.34 1486.59 Q2172.63 1486.59 2168.01 1479.71 Q2163.42 1472.8 2163.42 1459.71 Q2163.42 1446.59 2168.01 1439.71 Q2172.63 1432.8 2181.34 1432.8 Z" fill="#000000" fill-rule="evenodd" fill-opacity="1" /><path clip-path="url(#clip580)" d="M1212.77 1538.66 L1219.54 1538.66 L1231.69 1571.3 L1243.84 1538.66 L1250.61 1538.66 L1236.03 1577.55 L1227.35 1577.55 L1212.77 1538.66 Z" fill="#000000" fill-rule="evenodd" fill-opacity="1" /><path clip-path="url(#clip580)" d="M1281.45 1523.52 L1296.17 1523.52 L1296.17 1528.49 L1287.83 1528.49 L1287.83 1581.96 L1296.17 1581.96 L1296.17 1586.92 L1281.45 1586.92 L1281.45 1523.52 Z" fill="#000000" fill-rule="evenodd" fill-opacity="1" /><path clip-path="url(#clip580)" d="M1340.06 1546.12 Q1342.45 1541.82 1345.79 1539.77 Q1349.12 1537.72 1353.63 1537.72 Q1359.71 1537.72 1363.01 1541.99 Q1366.31 1546.23 1366.31 1554.08 L1366.31 1577.55 L1359.88 1577.55 L1359.88 1554.28 Q1359.88 1548.69 1357.9 1545.99 Q1355.92 1543.28 1351.86 1543.28 Q1346.9 1543.28 1344.01 1546.58 Q1341.13 1549.87 1341.13 1555.57 L1341.13 1577.55 L1334.71 1577.55 L1334.71 1554.28 Q1334.71 1548.66 1332.73 1545.99 Q1330.75 1543.28 1326.62 1543.28 Q1321.72 1543.28 1318.84 1546.61 Q1315.96 1549.91 1315.96 1555.57 L1315.96 1577.55 L1309.54 1577.55 L1309.54 1538.66 L1315.96 1538.66 L1315.96 1544.7 Q1318.15 1541.12 1321.2 1539.42 Q1324.26 1537.72 1328.46 1537.72 Q1332.7 1537.72 1335.65 1539.87 Q1338.63 1542.03 1340.06 1546.12 Z" fill="#000000" fill-rule="evenodd" fill-opacity="1" /><path clip-path="url(#clip580)" d="M1390.4 1525.71 L1396.31 1525.71 L1378.25 1584.15 L1372.35 1584.15 L1390.4 1525.71 Z" fill="#000000" fill-rule="evenodd" fill-opacity="1" /><path clip-path="url(#clip580)" d="M1427.8 1539.8 L1427.8 1545.85 Q1425.09 1544.46 1422.17 1543.76 Q1419.26 1543.07 1416.13 1543.07 Q1411.38 1543.07 1408.98 1544.53 Q1406.62 1545.99 1406.62 1548.9 Q1406.62 1551.12 1408.32 1552.41 Q1410.02 1553.66 1415.16 1554.8 L1417.35 1555.29 Q1424.15 1556.75 1427 1559.42 Q1429.88 1562.06 1429.88 1566.82 Q1429.88 1572.24 1425.58 1575.4 Q1421.31 1578.55 1413.81 1578.55 Q1410.68 1578.55 1407.28 1577.93 Q1403.91 1577.34 1400.16 1576.12 L1400.16 1569.53 Q1403.7 1571.37 1407.14 1572.3 Q1410.58 1573.21 1413.94 1573.21 Q1418.46 1573.21 1420.89 1571.68 Q1423.32 1570.12 1423.32 1567.3 Q1423.32 1564.7 1421.55 1563.31 Q1419.81 1561.92 1413.88 1560.64 L1411.65 1560.12 Q1405.72 1558.87 1403.08 1556.3 Q1400.44 1553.69 1400.44 1549.18 Q1400.44 1543.69 1404.33 1540.71 Q1408.22 1537.72 1415.37 1537.72 Q1418.91 1537.72 1422.04 1538.24 Q1425.16 1538.76 1427.8 1539.8 Z" fill="#000000" fill-rule="evenodd" fill-opacity="1" /><path clip-path="url(#clip580)" d="M1454.99 1523.52 L1454.99 1586.92 L1440.26 1586.92 L1440.26 1581.96 L1448.56 1581.96 L1448.56 1528.49 L1440.26 1528.49 L1440.26 1523.52 L1454.99 1523.52 Z" fill="#000000" fill-rule="evenodd" fill-opacity="1" /><polyline clip-path="url(#clip582)" style="stroke:#000000; stroke-linecap:round; stroke-linejoin:round; stroke-width:2; stroke-opacity:0.1; fill:none" points="
  314.996,1398.27 2352.76,1398.27 
  "/>
<polyline clip-path="url(#clip582)" style="stroke:#000000; stroke-linecap:round; stroke-linejoin:round; stroke-width:2; stroke-opacity:0.1; fill:none" points="
  314.996,1113.76 2352.76,1113.76 
  "/>
<polyline clip-path="url(#clip582)" style="stroke:#000000; stroke-linecap:round; stroke-linejoin:round; stroke-width:2; stroke-opacity:0.1; fill:none" points="
  314.996,829.248 2352.76,829.248 
  "/>
<polyline clip-path="url(#clip582)" style="stroke:#000000; stroke-linecap:round; stroke-linejoin:round; stroke-width:2; stroke-opacity:0.1; fill:none" points="
  314.996,544.739 2352.76,544.739 
  "/>
<polyline clip-path="url(#clip582)" style="stroke:#000000; stroke-linecap:round; stroke-linejoin:round; stroke-width:2; stroke-opacity:0.1; fill:none" points="
  314.996,260.229 2352.76,260.229 
  "/>
<polyline clip-path="url(#clip580)" style="stroke:#000000; stroke-linecap:round; stroke-linejoin:round; stroke-width:4; stroke-opacity:1; fill:none" points="
  314.996,1401.58 314.996,123.472 
  "/>
<polyline clip-path="url(#clip580)" style="stroke:#000000; stroke-linecap:round; stroke-linejoin:round; stroke-width:4; stroke-opacity:1; fill:none" points="
  314.996,1398.27 333.894,1398.27 
  "/>
<polyline clip-path="url(#clip580)" style="stroke:#000000; stroke-linecap:round; stroke-linejoin:round; stroke-width:4; stroke-opacity:1; fill:none" points="
  314.996,1113.76 333.894,1113.76 
  "/>
<polyline clip-path="url(#clip580)" style="stroke:#000000; stroke-linecap:round; stroke-linejoin:round; stroke-width:4; stroke-opacity:1; fill:none" points="
  314.996,829.248 333.894,829.248 
  "/>
<polyline clip-path="url(#clip580)" style="stroke:#000000; stroke-linecap:round; stroke-linejoin:round; stroke-width:4; stroke-opacity:1; fill:none" points="
  314.996,544.739 333.894,544.739 
  "/>
<polyline clip-path="url(#clip580)" style="stroke:#000000; stroke-linecap:round; stroke-linejoin:round; stroke-width:4; stroke-opacity:1; fill:none" points="
  314.996,260.229 333.894,260.229 
  "/>
<path clip-path="url(#clip580)" d="M118.58 1398.94 L163.094 1398.94 L163.094 1404.85 L118.58 1404.85 L118.58 1398.94 Z" fill="#000000" fill-rule="evenodd" fill-opacity="1" /><path clip-path="url(#clip580)" d="M178.302 1372.35 L205.837 1372.35 L205.837 1378.25 L184.726 1378.25 L184.726 1390.96 Q186.253 1390.44 187.781 1390.19 Q189.309 1389.92 190.837 1389.92 Q199.517 1389.92 204.587 1394.67 Q209.656 1399.43 209.656 1407.55 Q209.656 1415.92 204.448 1420.58 Q199.239 1425.19 189.76 1425.19 Q186.496 1425.19 183.094 1424.64 Q179.726 1424.08 176.115 1422.97 L176.115 1415.92 Q179.24 1417.62 182.573 1418.46 Q185.906 1419.29 189.621 1419.29 Q195.628 1419.29 199.135 1416.13 Q202.642 1412.97 202.642 1407.55 Q202.642 1402.14 199.135 1398.98 Q195.628 1395.82 189.621 1395.82 Q186.809 1395.82 183.996 1396.44 Q181.219 1397.07 178.302 1398.39 L178.302 1372.35 Z" fill="#000000" fill-rule="evenodd" fill-opacity="1" /><path clip-path="url(#clip580)" d="M223.475 1415.37 L230.802 1415.37 L230.802 1424.19 L223.475 1424.19 L223.475 1415.37 Z" fill="#000000" fill-rule="evenodd" fill-opacity="1" /><path clip-path="url(#clip580)" d="M261.079 1376.96 Q255.663 1376.96 252.92 1382.31 Q250.211 1387.62 250.211 1398.32 Q250.211 1408.98 252.92 1414.33 Q255.663 1419.64 261.079 1419.64 Q266.531 1419.64 269.239 1414.33 Q271.982 1408.98 271.982 1398.32 Q271.982 1387.62 269.239 1382.31 Q266.531 1376.96 261.079 1376.96 M261.079 1371.41 Q269.795 1371.41 274.378 1378.32 Q278.996 1385.19 278.996 1398.32 Q278.996 1411.41 274.378 1418.32 Q269.795 1425.19 261.079 1425.19 Q252.364 1425.19 247.746 1418.32 Q243.163 1411.41 243.163 1398.32 Q243.163 1385.19 247.746 1378.32 Q252.364 1371.41 261.079 1371.41 Z" fill="#000000" fill-rule="evenodd" fill-opacity="1" /><path clip-path="url(#clip580)" d="M120.073 1114.43 L164.587 1114.43 L164.587 1120.34 L120.073 1120.34 L120.073 1114.43 Z" fill="#000000" fill-rule="evenodd" fill-opacity="1" /><path clip-path="url(#clip580)" d="M185.767 1133.77 L210.246 1133.77 L210.246 1139.68 L177.33 1139.68 L177.33 1133.77 Q181.323 1129.64 188.198 1122.7 Q195.108 1115.72 196.878 1113.7 Q200.246 1109.92 201.566 1107.32 Q202.92 1104.68 202.92 1102.14 Q202.92 1098.01 200.003 1095.41 Q197.121 1092.8 192.469 1092.8 Q189.17 1092.8 185.49 1093.95 Q181.844 1095.09 177.677 1097.42 L177.677 1090.34 Q181.913 1088.64 185.594 1087.77 Q189.274 1086.9 192.33 1086.9 Q200.385 1086.9 205.177 1090.93 Q209.969 1094.96 209.969 1101.69 Q209.969 1104.89 208.753 1107.77 Q207.573 1110.61 204.413 1114.5 Q203.545 1115.51 198.892 1120.34 Q194.239 1125.13 185.767 1133.77 Z" fill="#000000" fill-rule="evenodd" fill-opacity="1" /><path clip-path="url(#clip580)" d="M224.968 1130.86 L232.295 1130.86 L232.295 1139.68 L224.968 1139.68 L224.968 1130.86 Z" fill="#000000" fill-rule="evenodd" fill-opacity="1" /><path clip-path="url(#clip580)" d="M247.642 1087.84 L275.177 1087.84 L275.177 1093.74 L254.066 1093.74 L254.066 1106.45 Q255.593 1105.93 257.121 1105.68 Q258.649 1105.41 260.177 1105.41 Q268.857 1105.41 273.927 1110.16 Q278.996 1114.92 278.996 1123.05 Q278.996 1131.41 273.788 1136.07 Q268.579 1140.68 259.1 1140.68 Q255.836 1140.68 252.434 1140.13 Q249.066 1139.57 245.454 1138.46 L245.454 1131.41 Q248.579 1133.11 251.913 1133.95 Q255.246 1134.78 258.961 1134.78 Q264.968 1134.78 268.475 1131.62 Q271.982 1128.46 271.982 1123.05 Q271.982 1117.63 268.475 1114.47 Q264.968 1111.31 258.961 1111.31 Q256.149 1111.31 253.336 1111.93 Q250.559 1112.56 247.642 1113.88 L247.642 1087.84 Z" fill="#000000" fill-rule="evenodd" fill-opacity="1" /><path clip-path="url(#clip580)" d="M193.233 807.946 Q187.816 807.946 185.073 813.293 Q182.365 818.606 182.365 829.3 Q182.365 839.96 185.073 845.307 Q187.816 850.619 193.233 850.619 Q198.684 850.619 201.392 845.307 Q204.135 839.96 204.135 829.3 Q204.135 818.606 201.392 813.293 Q198.684 807.946 193.233 807.946 M193.233 802.39 Q201.948 802.39 206.531 809.3 Q211.149 816.175 211.149 829.3 Q211.149 842.39 206.531 849.3 Q201.948 856.175 193.233 856.175 Q184.517 856.175 179.899 849.3 Q175.316 842.39 175.316 829.3 Q175.316 816.175 179.899 809.3 Q184.517 802.39 193.233 802.39 Z" fill="#000000" fill-rule="evenodd" fill-opacity="1" /><path clip-path="url(#clip580)" d="M223.475 846.348 L230.802 846.348 L230.802 855.168 L223.475 855.168 L223.475 846.348 Z" fill="#000000" fill-rule="evenodd" fill-opacity="1" /><path clip-path="url(#clip580)" d="M261.079 807.946 Q255.663 807.946 252.92 813.293 Q250.211 818.606 250.211 829.3 Q250.211 839.96 252.92 845.307 Q255.663 850.619 261.079 850.619 Q266.531 850.619 269.239 845.307 Q271.982 839.96 271.982 829.3 Q271.982 818.606 269.239 813.293 Q266.531 807.946 261.079 807.946 M261.079 802.39 Q269.795 802.39 274.378 809.3 Q278.996 816.175 278.996 829.3 Q278.996 842.39 274.378 849.3 Q269.795 856.175 261.079 856.175 Q252.364 856.175 247.746 849.3 Q243.163 842.39 243.163 829.3 Q243.163 816.175 247.746 809.3 Q252.364 802.39 261.079 802.39 Z" fill="#000000" fill-rule="evenodd" fill-opacity="1" /><path clip-path="url(#clip580)" d="M185.767 564.756 L210.246 564.756 L210.246 570.659 L177.33 570.659 L177.33 564.756 Q181.323 560.624 188.198 553.68 Q195.108 546.7 196.878 544.687 Q200.246 540.902 201.566 538.298 Q202.92 535.659 202.92 533.124 Q202.92 528.992 200.003 526.388 Q197.121 523.784 192.469 523.784 Q189.17 523.784 185.49 524.93 Q181.844 526.076 177.677 528.402 L177.677 521.319 Q181.913 519.617 185.594 518.749 Q189.274 517.881 192.33 517.881 Q200.385 517.881 205.177 521.909 Q209.969 525.937 209.969 532.673 Q209.969 535.867 208.753 538.749 Q207.573 541.596 204.413 545.485 Q203.545 546.492 198.892 551.318 Q194.239 556.11 185.767 564.756 Z" fill="#000000" fill-rule="evenodd" fill-opacity="1" /><path clip-path="url(#clip580)" d="M224.968 561.839 L232.295 561.839 L232.295 570.659 L224.968 570.659 L224.968 561.839 Z" fill="#000000" fill-rule="evenodd" fill-opacity="1" /><path clip-path="url(#clip580)" d="M247.642 518.819 L275.177 518.819 L275.177 524.721 L254.066 524.721 L254.066 537.43 Q255.593 536.909 257.121 536.666 Q258.649 536.388 260.177 536.388 Q268.857 536.388 273.927 541.145 Q278.996 545.902 278.996 554.027 Q278.996 562.395 273.788 567.048 Q268.579 571.666 259.1 571.666 Q255.836 571.666 252.434 571.11 Q249.066 570.554 245.454 569.443 L245.454 562.395 Q248.579 564.096 251.913 564.929 Q255.246 565.763 258.961 565.763 Q264.968 565.763 268.475 562.603 Q271.982 559.443 271.982 554.027 Q271.982 548.61 268.475 545.45 Q264.968 542.291 258.961 542.291 Q256.149 542.291 253.336 542.916 Q250.559 543.541 247.642 544.86 L247.642 518.819 Z" fill="#000000" fill-rule="evenodd" fill-opacity="1" /><path clip-path="url(#clip580)" d="M178.302 234.309 L205.837 234.309 L205.837 240.212 L184.726 240.212 L184.726 252.92 Q186.253 252.4 187.781 252.157 Q189.309 251.879 190.837 251.879 Q199.517 251.879 204.587 256.636 Q209.656 261.393 209.656 269.518 Q209.656 277.886 204.448 282.538 Q199.239 287.156 189.76 287.156 Q186.496 287.156 183.094 286.601 Q179.726 286.045 176.115 284.934 L176.115 277.886 Q179.24 279.587 182.573 280.42 Q185.906 281.254 189.621 281.254 Q195.628 281.254 199.135 278.094 Q202.642 274.934 202.642 269.518 Q202.642 264.101 199.135 260.941 Q195.628 257.782 189.621 257.782 Q186.809 257.782 183.996 258.407 Q181.219 259.032 178.302 260.351 L178.302 234.309 Z" fill="#000000" fill-rule="evenodd" fill-opacity="1" /><path clip-path="url(#clip580)" d="M223.475 277.33 L230.802 277.33 L230.802 286.149 L223.475 286.149 L223.475 277.33 Z" fill="#000000" fill-rule="evenodd" fill-opacity="1" /><path clip-path="url(#clip580)" d="M261.079 238.927 Q255.663 238.927 252.92 244.275 Q250.211 249.587 250.211 260.282 Q250.211 270.941 252.92 276.288 Q255.663 281.601 261.079 281.601 Q266.531 281.601 269.239 276.288 Q271.982 270.941 271.982 260.282 Q271.982 249.587 269.239 244.275 Q266.531 238.927 261.079 238.927 M261.079 233.372 Q269.795 233.372 274.378 240.282 Q278.996 247.157 278.996 260.282 Q278.996 273.372 274.378 280.281 Q269.795 287.156 261.079 287.156 Q252.364 287.156 247.746 280.281 Q243.163 273.372 243.163 260.282 Q243.163 247.157 247.746 240.282 Q252.364 233.372 261.079 233.372 Z" fill="#000000" fill-rule="evenodd" fill-opacity="1" /><path clip-path="url(#clip580)" d="M13.0007 1025.04 L18.3131 1025.04 L18.3131 1031.15 Q18.3131 1034.59 19.702 1035.94 Q21.0909 1037.26 24.702 1037.26 L28.1395 1037.26 L28.1395 1026.74 L33.1047 1026.74 L33.1047 1037.26 L67.0282 1037.26 L67.0282 1043.69 L33.1047 1043.69 L33.1047 1049.8 L28.1395 1049.8 L28.1395 1043.69 L25.4312 1043.69 Q18.9381 1043.69 15.9868 1040.67 Q13.0007 1037.65 13.0007 1031.08 L13.0007 1025.04 Z" fill="#000000" fill-rule="evenodd" fill-opacity="1" /><path clip-path="url(#clip580)" d="M34.1117 997.16 Q33.4867 998.237 33.2089 999.521 Q32.8964 1000.77 32.8964 1002.3 Q32.8964 1007.72 36.438 1010.63 Q39.945 1013.51 46.5422 1013.51 L67.0282 1013.51 L67.0282 1019.94 L28.1395 1019.94 L28.1395 1013.51 L34.1811 1013.51 Q30.6395 1011.5 28.9381 1008.27 Q27.202 1005.04 27.202 1000.42 Q27.202 999.764 27.3061 998.966 Q27.3756 998.167 27.5492 997.195 L34.1117 997.16 Z" fill="#000000" fill-rule="evenodd" fill-opacity="1" /><path clip-path="url(#clip580)" d="M28.1395 990.459 L28.1395 984.07 L67.0282 984.07 L67.0282 990.459 L28.1395 990.459 M13.0007 990.459 L13.0007 984.07 L21.0909 984.07 L21.0909 990.459 L13.0007 990.459 Z" fill="#000000" fill-rule="evenodd" fill-opacity="1" /><path clip-path="url(#clip580)" d="M29.6325 942.716 L35.6047 942.716 Q34.1117 945.424 33.3825 948.167 Q32.6186 950.876 32.6186 953.653 Q32.6186 959.869 36.5769 963.306 Q40.5005 966.744 47.6185 966.744 Q54.7366 966.744 58.6949 963.306 Q62.6185 959.869 62.6185 953.653 Q62.6185 950.876 61.8893 948.167 Q61.1254 945.424 59.6324 942.716 L65.5351 942.716 Q66.7851 945.39 67.4101 948.272 Q68.0351 951.119 68.0351 954.348 Q68.0351 963.133 62.5143 968.306 Q56.9935 973.48 47.6185 973.48 Q38.1047 973.48 32.6533 968.271 Q27.202 963.028 27.202 953.931 Q27.202 950.98 27.827 948.167 Q28.4173 945.355 29.6325 942.716 Z" fill="#000000" fill-rule="evenodd" fill-opacity="1" /><path clip-path="url(#clip580)" d="M17.0979 925.286 L28.1395 925.286 L28.1395 912.126 L33.1047 912.126 L33.1047 925.286 L54.2157 925.286 Q58.9726 925.286 60.3268 924.001 Q61.681 922.681 61.681 918.688 L61.681 912.126 L67.0282 912.126 L67.0282 918.688 Q67.0282 926.084 64.2851 928.897 Q61.5074 931.709 54.2157 931.709 L33.1047 931.709 L33.1047 936.397 L28.1395 936.397 L28.1395 931.709 L17.0979 931.709 L17.0979 925.286 Z" fill="#000000" fill-rule="evenodd" fill-opacity="1" /><path clip-path="url(#clip580)" d="M28.1395 903.723 L28.1395 897.334 L67.0282 897.334 L67.0282 903.723 L28.1395 903.723 M13.0007 903.723 L13.0007 897.334 L21.0909 897.334 L21.0909 903.723 L13.0007 903.723 Z" fill="#000000" fill-rule="evenodd" fill-opacity="1" /><path clip-path="url(#clip580)" d="M32.6186 868.897 Q32.6186 874.036 36.6464 877.022 Q40.6394 880.008 47.6185 880.008 Q54.5977 880.008 58.6254 877.057 Q62.6185 874.071 62.6185 868.897 Q62.6185 863.793 58.5907 860.807 Q54.5629 857.821 47.6185 857.821 Q40.7089 857.821 36.6811 860.807 Q32.6186 863.793 32.6186 868.897 M27.202 868.897 Q27.202 860.564 32.6186 855.807 Q38.0353 851.05 47.6185 851.05 Q57.1671 851.05 62.6185 855.807 Q68.0351 860.564 68.0351 868.897 Q68.0351 877.265 62.6185 882.022 Q57.1671 886.744 47.6185 886.744 Q38.0353 886.744 32.6186 882.022 Q27.202 877.265 27.202 868.897 Z" fill="#000000" fill-rule="evenodd" fill-opacity="1" /><path clip-path="url(#clip580)" d="M43.5561 808.133 L67.0282 808.133 L67.0282 814.522 L43.7644 814.522 Q38.2436 814.522 35.5005 816.675 Q32.7575 818.828 32.7575 823.133 Q32.7575 828.307 36.0561 831.293 Q39.3547 834.279 45.0491 834.279 L67.0282 834.279 L67.0282 840.703 L28.1395 840.703 L28.1395 834.279 L34.1811 834.279 Q30.6742 831.987 28.9381 828.897 Q27.202 825.772 27.202 821.71 Q27.202 815.008 31.3686 811.571 Q35.5005 808.133 43.5561 808.133 Z" fill="#000000" fill-rule="evenodd" fill-opacity="1" /><path clip-path="url(#clip580)" d="M13.0007 753.099 L18.3131 753.099 L18.3131 759.21 Q18.3131 762.648 19.702 764.002 Q21.0909 765.321 24.702 765.321 L28.1395 765.321 L28.1395 754.8 L33.1047 754.8 L33.1047 765.321 L67.0282 765.321 L67.0282 771.745 L33.1047 771.745 L33.1047 777.856 L28.1395 777.856 L28.1395 771.745 L25.4312 771.745 Q18.9381 771.745 15.9868 768.724 Q13.0007 765.703 13.0007 759.141 L13.0007 753.099 Z" fill="#000000" fill-rule="evenodd" fill-opacity="1" /><path clip-path="url(#clip580)" d="M32.6186 732.682 Q32.6186 737.821 36.6464 740.807 Q40.6394 743.793 47.6185 743.793 Q54.5977 743.793 58.6254 740.842 Q62.6185 737.856 62.6185 732.682 Q62.6185 727.578 58.5907 724.592 Q54.5629 721.606 47.6185 721.606 Q40.7089 721.606 36.6811 724.592 Q32.6186 727.578 32.6186 732.682 M27.202 732.682 Q27.202 724.349 32.6186 719.592 Q38.0353 714.835 47.6185 714.835 Q57.1671 714.835 62.6185 719.592 Q68.0351 724.349 68.0351 732.682 Q68.0351 741.05 62.6185 745.807 Q57.1671 750.53 47.6185 750.53 Q38.0353 750.53 32.6186 745.807 Q27.202 741.05 27.202 732.682 Z" fill="#000000" fill-rule="evenodd" fill-opacity="1" /><path clip-path="url(#clip580)" d="M34.1117 681.71 Q33.4867 682.787 33.2089 684.072 Q32.8964 685.322 32.8964 686.849 Q32.8964 692.266 36.438 695.183 Q39.945 698.065 46.5422 698.065 L67.0282 698.065 L67.0282 704.488 L28.1395 704.488 L28.1395 698.065 L34.1811 698.065 Q30.6395 696.051 28.9381 692.821 Q27.202 689.592 27.202 684.974 Q27.202 684.315 27.3061 683.516 Q27.3756 682.717 27.5492 681.745 L34.1117 681.71 Z" fill="#000000" fill-rule="evenodd" fill-opacity="1" /><path clip-path="url(#clip580)" d="M29.6325 648.586 L35.6047 648.586 Q34.1117 651.294 33.3825 654.037 Q32.6186 656.745 32.6186 659.523 Q32.6186 665.738 36.5769 669.176 Q40.5005 672.613 47.6185 672.613 Q54.7366 672.613 58.6949 669.176 Q62.6185 665.738 62.6185 659.523 Q62.6185 656.745 61.8893 654.037 Q61.1254 651.294 59.6324 648.586 L65.5351 648.586 Q66.7851 651.259 67.4101 654.141 Q68.0351 656.988 68.0351 660.218 Q68.0351 669.002 62.5143 674.176 Q56.9935 679.349 47.6185 679.349 Q38.1047 679.349 32.6533 674.141 Q27.202 668.898 27.202 659.801 Q27.202 656.849 27.827 654.037 Q28.4173 651.224 29.6325 648.586 Z" fill="#000000" fill-rule="evenodd" fill-opacity="1" /><path clip-path="url(#clip580)" d="M45.9866 604.211 L49.1116 604.211 L49.1116 633.586 Q55.7088 633.169 59.181 629.627 Q62.6185 626.051 62.6185 619.697 Q62.6185 616.016 61.7157 612.579 Q60.8129 609.107 59.0074 605.704 L65.049 605.704 Q66.5073 609.141 67.2712 612.752 Q68.0351 616.364 68.0351 620.079 Q68.0351 629.384 62.6185 634.836 Q57.2018 640.252 47.9658 640.252 Q38.4172 640.252 32.827 635.113 Q27.202 629.94 27.202 621.19 Q27.202 613.343 32.2714 608.794 Q37.3061 604.211 45.9866 604.211 M44.1116 610.6 Q38.8686 610.669 35.7436 613.551 Q32.6186 616.398 32.6186 621.12 Q32.6186 626.468 35.6394 629.697 Q38.6603 632.891 44.1463 633.377 L44.1116 610.6 Z" fill="#000000" fill-rule="evenodd" fill-opacity="1" /><path clip-path="url(#clip580)" d="M13.0007 571.711 L13.0007 556.989 L17.9659 556.989 L17.9659 565.322 L71.4379 565.322 L71.4379 556.989 L76.4031 556.989 L76.4031 571.711 L13.0007 571.711 Z" fill="#000000" fill-rule="evenodd" fill-opacity="1" /><path clip-path="url(#clip580)" d="M15.1882 543.1 L15.1882 533.656 L58.556 510.67 L15.1882 510.67 L15.1882 503.864 L67.0282 503.864 L67.0282 513.309 L23.6603 536.295 L67.0282 536.295 L67.0282 543.1 L15.1882 543.1 Z" fill="#000000" fill-rule="evenodd" fill-opacity="1" /><path clip-path="url(#clip580)" d="M13.0007 475.253 L76.4031 475.253 L76.4031 489.975 L71.4379 489.975 L71.4379 481.677 L17.9659 481.677 L17.9659 489.975 L13.0007 489.975 L13.0007 475.253 Z" fill="#000000" fill-rule="evenodd" fill-opacity="1" /><path clip-path="url(#clip580)" d="M1008.49 12.096 L1043.24 12.096 L1043.24 18.9825 L1016.67 18.9825 L1016.67 36.8065 L1040.65 36.8065 L1040.65 43.6931 L1016.67 43.6931 L1016.67 72.576 L1008.49 72.576 L1008.49 12.096 Z" fill="#000000" fill-rule="evenodd" fill-opacity="1" /><path clip-path="url(#clip580)" d="M1076.14 34.1734 Q1074.88 33.4443 1073.38 33.1202 Q1071.92 32.7556 1070.14 32.7556 Q1063.82 32.7556 1060.42 36.8875 Q1057.06 40.9789 1057.06 48.6757 L1057.06 72.576 L1049.56 72.576 L1049.56 27.2059 L1057.06 27.2059 L1057.06 34.2544 Q1059.41 30.1225 1063.17 28.1376 Q1066.94 26.1121 1072.33 26.1121 Q1073.1 26.1121 1074.03 26.2337 Q1074.96 26.3147 1076.1 26.5172 L1076.14 34.1734 Z" fill="#000000" fill-rule="evenodd" fill-opacity="1" /><path clip-path="url(#clip580)" d="M1083.96 27.2059 L1091.41 27.2059 L1091.41 72.576 L1083.96 72.576 L1083.96 27.2059 M1083.96 9.54393 L1091.41 9.54393 L1091.41 18.9825 L1083.96 18.9825 L1083.96 9.54393 Z" fill="#000000" fill-rule="evenodd" fill-opacity="1" /><path clip-path="url(#clip580)" d="M1139.66 28.9478 L1139.66 35.9153 Q1136.5 34.1734 1133.3 33.3227 Q1130.14 32.4315 1126.89 32.4315 Q1119.64 32.4315 1115.63 37.0496 Q1111.62 41.6271 1111.62 49.9314 Q1111.62 58.2358 1115.63 62.8538 Q1119.64 67.4314 1126.89 67.4314 Q1130.14 67.4314 1133.3 66.5807 Q1136.5 65.6895 1139.66 63.9476 L1139.66 70.8341 Q1136.54 72.2924 1133.17 73.0216 Q1129.85 73.7508 1126.08 73.7508 Q1115.84 73.7508 1109.8 67.3098 Q1103.76 60.8689 1103.76 49.9314 Q1103.76 38.832 1109.84 32.472 Q1115.96 26.1121 1126.57 26.1121 Q1130.01 26.1121 1133.3 26.8413 Q1136.58 27.5299 1139.66 28.9478 Z" fill="#000000" fill-rule="evenodd" fill-opacity="1" /><path clip-path="url(#clip580)" d="M1159.99 14.324 L1159.99 27.2059 L1175.34 27.2059 L1175.34 32.9987 L1159.99 32.9987 L1159.99 57.6282 Q1159.99 63.1779 1161.49 64.7578 Q1163.03 66.3376 1167.69 66.3376 L1175.34 66.3376 L1175.34 72.576 L1167.69 72.576 Q1159.06 72.576 1155.78 69.3758 Q1152.5 66.1351 1152.5 57.6282 L1152.5 32.9987 L1147.03 32.9987 L1147.03 27.2059 L1152.5 27.2059 L1152.5 14.324 L1159.99 14.324 Z" fill="#000000" fill-rule="evenodd" fill-opacity="1" /><path clip-path="url(#clip580)" d="M1185.15 27.2059 L1192.6 27.2059 L1192.6 72.576 L1185.15 72.576 L1185.15 27.2059 M1185.15 9.54393 L1192.6 9.54393 L1192.6 18.9825 L1185.15 18.9825 L1185.15 9.54393 Z" fill="#000000" fill-rule="evenodd" fill-opacity="1" /><path clip-path="url(#clip580)" d="M1225.78 32.4315 Q1219.78 32.4315 1216.3 37.1306 Q1212.81 41.7891 1212.81 49.9314 Q1212.81 58.0738 1216.26 62.7728 Q1219.74 67.4314 1225.78 67.4314 Q1231.73 67.4314 1235.22 62.7323 Q1238.7 58.0333 1238.7 49.9314 Q1238.7 41.8701 1235.22 37.1711 Q1231.73 32.4315 1225.78 32.4315 M1225.78 26.1121 Q1235.5 26.1121 1241.05 32.4315 Q1246.6 38.7509 1246.6 49.9314 Q1246.6 61.0714 1241.05 67.4314 Q1235.5 73.7508 1225.78 73.7508 Q1216.01 73.7508 1210.47 67.4314 Q1204.96 61.0714 1204.96 49.9314 Q1204.96 38.7509 1210.47 32.4315 Q1216.01 26.1121 1225.78 26.1121 Z" fill="#000000" fill-rule="evenodd" fill-opacity="1" /><path clip-path="url(#clip580)" d="M1296.67 45.1919 L1296.67 72.576 L1289.21 72.576 L1289.21 45.4349 Q1289.21 38.994 1286.7 35.7938 Q1284.19 32.5936 1279.17 32.5936 Q1273.13 32.5936 1269.65 36.4419 Q1266.17 40.2903 1266.17 46.9338 L1266.17 72.576 L1258.67 72.576 L1258.67 27.2059 L1266.17 27.2059 L1266.17 34.2544 Q1268.84 30.163 1272.44 28.1376 Q1276.09 26.1121 1280.83 26.1121 Q1288.65 26.1121 1292.66 30.9732 Q1296.67 35.7938 1296.67 45.1919 Z" fill="#000000" fill-rule="evenodd" fill-opacity="1" /><path clip-path="url(#clip580)" d="M1373.23 35.9153 Q1376.03 30.8922 1379.91 28.5022 Q1383.8 26.1121 1389.07 26.1121 Q1396.16 26.1121 1400.01 31.0947 Q1403.86 36.0368 1403.86 45.1919 L1403.86 72.576 L1396.36 72.576 L1396.36 45.4349 Q1396.36 38.913 1394.05 35.7533 Q1391.74 32.5936 1387 32.5936 Q1381.21 32.5936 1377.85 36.4419 Q1374.49 40.2903 1374.49 46.9338 L1374.49 72.576 L1366.99 72.576 L1366.99 45.4349 Q1366.99 38.8725 1364.68 35.7533 Q1362.37 32.5936 1357.55 32.5936 Q1351.84 32.5936 1348.48 36.4824 Q1345.12 40.3308 1345.12 46.9338 L1345.12 72.576 L1337.62 72.576 L1337.62 27.2059 L1345.12 27.2059 L1345.12 34.2544 Q1347.67 30.082 1351.23 28.0971 Q1354.8 26.1121 1359.7 26.1121 Q1364.64 26.1121 1368.09 28.6237 Q1371.57 31.1352 1373.23 35.9153 Z" fill="#000000" fill-rule="evenodd" fill-opacity="1" /><path clip-path="url(#clip580)" d="M1436.3 32.4315 Q1430.31 32.4315 1426.82 37.1306 Q1423.34 41.7891 1423.34 49.9314 Q1423.34 58.0738 1426.78 62.7728 Q1430.27 67.4314 1436.3 67.4314 Q1442.26 67.4314 1445.74 62.7323 Q1449.23 58.0333 1449.23 49.9314 Q1449.23 41.8701 1445.74 37.1711 Q1442.26 32.4315 1436.3 32.4315 M1436.3 26.1121 Q1446.03 26.1121 1451.57 32.4315 Q1457.12 38.7509 1457.12 49.9314 Q1457.12 61.0714 1451.57 67.4314 Q1446.03 73.7508 1436.3 73.7508 Q1426.54 73.7508 1420.99 67.4314 Q1415.48 61.0714 1415.48 49.9314 Q1415.48 38.7509 1420.99 32.4315 Q1426.54 26.1121 1436.3 26.1121 Z" fill="#000000" fill-rule="evenodd" fill-opacity="1" /><path clip-path="url(#clip580)" d="M1499.34 34.0924 L1499.34 9.54393 L1506.79 9.54393 L1506.79 72.576 L1499.34 72.576 L1499.34 65.7705 Q1496.99 69.8214 1493.38 71.8063 Q1489.82 73.7508 1484.79 73.7508 Q1476.57 73.7508 1471.38 67.1883 Q1466.24 60.6258 1466.24 49.9314 Q1466.24 39.2371 1471.38 32.6746 Q1476.57 26.1121 1484.79 26.1121 Q1489.82 26.1121 1493.38 28.0971 Q1496.99 30.0415 1499.34 34.0924 M1473.94 49.9314 Q1473.94 58.1548 1477.3 62.8538 Q1480.7 67.5124 1486.62 67.5124 Q1492.53 67.5124 1495.93 62.8538 Q1499.34 58.1548 1499.34 49.9314 Q1499.34 41.7081 1495.93 37.0496 Q1492.53 32.3505 1486.62 32.3505 Q1480.7 32.3505 1477.3 37.0496 Q1473.94 41.7081 1473.94 49.9314 Z" fill="#000000" fill-rule="evenodd" fill-opacity="1" /><path clip-path="url(#clip580)" d="M1560.95 48.0275 L1560.95 51.6733 L1526.68 51.6733 Q1527.16 59.3701 1531.3 63.421 Q1535.47 67.4314 1542.88 67.4314 Q1547.18 67.4314 1551.19 66.3781 Q1555.24 65.3249 1559.21 63.2184 L1559.21 70.267 Q1555.2 71.9684 1550.98 72.8596 Q1546.77 73.7508 1542.44 73.7508 Q1531.58 73.7508 1525.22 67.4314 Q1518.9 61.1119 1518.9 50.3365 Q1518.9 39.1965 1524.9 32.6746 Q1530.93 26.1121 1541.14 26.1121 Q1550.3 26.1121 1555.6 32.0264 Q1560.95 37.9003 1560.95 48.0275 M1553.5 45.84 Q1553.41 39.7232 1550.05 36.0774 Q1546.73 32.4315 1541.22 32.4315 Q1534.98 32.4315 1531.22 35.9558 Q1527.49 39.4801 1526.92 45.8805 L1553.5 45.84 Z" fill="#000000" fill-rule="evenodd" fill-opacity="1" /><path clip-path="url(#clip580)" d="M1573.18 9.54393 L1580.64 9.54393 L1580.64 72.576 L1573.18 72.576 L1573.18 9.54393 Z" fill="#000000" fill-rule="evenodd" fill-opacity="1" /><path clip-path="url(#clip580)" d="M1630.71 65.6895 L1659.26 65.6895 L1659.26 72.576 L1620.86 72.576 L1620.86 65.6895 Q1625.52 60.8689 1633.54 52.7671 Q1641.6 44.6248 1643.67 42.2752 Q1647.6 37.8598 1649.14 34.8216 Q1650.72 31.7429 1650.72 28.7857 Q1650.72 23.9651 1647.31 20.927 Q1643.95 17.8888 1638.52 17.8888 Q1634.68 17.8888 1630.38 19.2256 Q1626.13 20.5624 1621.27 23.2765 L1621.27 15.0127 Q1626.21 13.0277 1630.5 12.015 Q1634.8 11.0023 1638.36 11.0023 Q1647.76 11.0023 1653.35 15.7013 Q1658.94 20.4004 1658.94 28.2591 Q1658.94 31.9859 1657.52 35.3482 Q1656.15 38.6699 1652.46 43.2069 Q1651.45 44.3817 1646.02 50.0125 Q1640.59 55.6027 1630.71 65.6895 Z" fill="#000000" fill-rule="evenodd" fill-opacity="1" /><polyline clip-path="url(#clip582)" style="stroke:#009af9; stroke-linecap:round; stroke-linejoin:round; stroke-width:8; stroke-opacity:1; fill:none" points="
  1333.88,829.248 1368.67,829.248 1403.71,829.248 1438.96,829.248 1474.34,829.248 1509.81,829.248 1545.33,829.248 1580.82,829.248 1616.24,829.248 1651.55,829.248 
  1686.69,829.248 1721.62,829.248 1756.29,829.248 1790.64,829.248 1824.64,829.248 1858.24,829.248 1891.39,829.248 1924.05,829.248 1956.18,829.248 1987.75,829.248 
  2018.71,829.248 2049.03,829.248 2078.67,829.248 2107.6,829.248 2135.78,829.248 2163.19,829.248 2189.82,829.248 2215.6,829.248 2240.53,829.248 2264.56,829.248 
  2287.66,829.248 2309.81,829.248 2331.04,829.248 2351.27,829.248 2370.49,829.248 2388.68,829.248 2405.8,829.248 2421.85,829.248 2436.81,829.248 2450.69,829.248 
  2463.46,829.248 2475.09,829.248 2485.57,829.248 2494.9,829.248 2503.06,829.248 2510.06,829.248 2515.88,829.248 2520.52,829.248 2523.96,829.248 2526.22,829.248 
  2527.27,829.248 2527.13,829.248 2525.8,829.248 2523.27,829.248 2519.56,829.248 2514.65,829.248 2508.57,829.248 2501.3,829.248 2492.87,829.248 2483.27,829.248 
  2472.53,829.248 2460.64,829.248 2447.63,829.248 2433.5,829.248 2418.27,829.248 2401.94,829.248 2384.54,829.248 2366.09,829.248 2346.6,829.248 2326.09,829.248 
  2304.59,829.248 2282.09,829.248 2258.64,829.248 2234.25,829.248 2208.94,829.248 2182.74,829.248 2155.67,829.248 2127.76,829.248 2099.02,829.248 2069.48,829.248 
  2039.17,829.248 2008.12,829.248 1976.36,829.248 1943.9,829.248 1910.77,829.248 1876.98,829.248 1842.58,829.248 1807.58,829.248 1772.03,829.248 1735.94,829.248 
  1699.33,829.248 1662.19,829.248 1624.57,829.248 1586.5,829.248 1547.98,829.248 1509.06,829.248 1469.74,829.248 1430.05,829.248 1390.02,829.248 1349.65,829.248 
  1316.33,829.248 1287.47,829.248 1258.43,829.248 1229.24,829.248 1199.94,829.248 1170.59,829.248 1141.22,829.248 1111.87,829.248 1082.58,829.248 1053.39,829.248 
  1024.34,829.248 995.484,829.248 966.851,829.248 938.477,829.248 910.393,829.248 882.643,829.248 855.267,829.248 828.305,829.248 801.783,829.248 775.709,829.248 
  750.14,829.248 725.111,829.248 700.658,829.248 676.805,829.248 653.543,829.248 630.928,829.248 608.993,829.248 587.766,829.248 567.272,829.248 547.493,829.248 
  528.482,829.248 510.264,829.248 492.864,829.248 476.308,829.248 460.563,829.248 445.681,829.248 431.682,829.248 418.587,829.248 406.415,829.248 395.135,829.248 
  384.784,829.248 375.382,829.248 366.943,829.248 359.482,829.248 352.971,829.248 347.429,829.248 342.875,829.248 339.319,829.248 336.771,829.248 335.203,829.248 
  334.62,829.248 335.04,829.248 336.468,829.248 338.907,829.248 342.333,829.248 346.735,829.248 352.13,829.248 358.516,829.248 365.894,829.248 374.239,829.248 
  383.529,829.248 393.777,829.248 404.978,829.248 417.126,829.248 430.199,829.248 444.163,829.248 459.029,829.248 474.787,829.248 491.426,829.248 508.927,829.248 
  527.247,829.248 546.394,829.248 566.352,829.248 587.109,829.248 608.643,829.248 630.912,829.248 653.915,829.248 677.636,829.248 702.057,829.248 727.16,829.248 
  752.901,829.248 779.277,829.248 806.266,829.248 833.849,829.248 862.007,829.248 890.71,829.248 919.943,829.248 949.685,829.248 979.916,829.248 1010.61,829.248 
  1041.77,829.248 1073.36,829.248 1105.37,829.248 1137.77,829.248 1170.55,829.248 1203.66,829.248 1237.08,829.248 1270.8,829.248 1304.79,829.248 1337.25,829.248 
  1359.8,829.248 1382.5,829.248 1405.33,829.248 1428.25,829.248 1451.25,829.248 1474.28,829.248 1497.33,829.248 1520.36,829.248 1543.33,829.248 1566.23,829.248 
  1589,829.248 1611.63,829.248 1634.1,829.248 1656.37,829.248 1678.41,829.248 1700.19,829.248 1721.69,829.248 1742.87,829.248 1763.72,829.248 1784.19,829.248 
  1804.28,829.248 1823.96,829.248 1843.2,829.248 1861.97,829.248 1880.25,829.248 1898.03,829.248 1915.29,829.248 1932,829.248 1948.13,829.248 1963.68,829.248 
  1978.64,829.248 1992.97,829.248 2006.66,829.248 2019.68,829.248 2032.06,829.248 2043.75,829.248 2054.75,829.248 2065.02,829.248 2074.59,829.248 2083.45,829.248 
  2091.57,829.248 2098.94,829.248 2105.55,829.248 2111.4,829.248 2116.46,829.248 2120.73,829.248 2124.24,829.248 2126.98,829.248 2128.93,829.248 2130.08,829.248 
  2130.43,829.248 2129.98,829.248 2128.71,829.248 2126.64,829.248 2123.8,829.248 2120.17,829.248 2115.74,829.248 2110.52,829.248 2104.51,829.248 2097.72,829.248 
  2090.16,829.248 2081.83,829.248 2072.74,829.248 2062.9,829.248 2052.31,829.248 2040.99,829.248 2028.94,829.248 2016.18,829.248 2002.72,829.248 1988.57,829.248 
  1973.73,829.248 1958.23,829.248 1942.07,829.248 1925.28,829.248 1907.86,829.248 1889.84,829.248 1871.23,829.248 1852.02,829.248 1832.24,829.248 1811.92,829.248 
  1791.07,829.248 1769.7,829.248 1747.84,829.248 1725.5,829.248 1702.68,829.248 1679.4,829.248 1655.69,829.248 1631.55,829.248 1607.02,829.248 1582.1,829.248 
  1556.81,829.248 1531.18,829.248 1505.21,829.248 1478.93,829.248 1452.35,829.248 1425.5,829.248 1398.39,829.248 1371.04,829.248 1343.47,829.248 1323.51,829.248 
  1307.57,829.248 1291.54,829.248 1275.42,829.248 1259.23,829.248 1243,829.248 1226.73,829.248 1210.46,829.248 1194.2,829.248 1177.98,829.248 1161.8,829.248 
  1145.7,829.248 1129.69,829.248 1113.78,829.248 1098.01,829.248 1082.4,829.248 1066.96,829.248 1051.71,829.248 1036.67,829.248 1021.86,829.248 1007.3,829.248 
  992.999,829.248 978.984,829.248 965.274,829.248 951.89,829.248 938.84,829.248 926.122,829.248 913.77,829.248 901.802,829.248 890.234,829.248 879.086,829.248 
  868.366,829.248 858.054,829.248 848.19,829.248 838.788,829.248 829.863,829.248 821.428,829.248 813.498,829.248 806.036,829.248 799.085,829.248 792.655,829.248 
  786.758,829.248 781.405,829.248 776.606,829.248 772.327,829.248 768.595,829.248 765.422,829.248 762.817,829.248 760.787,829.248 759.34,829.248 758.446,829.248 
  758.113,829.248 758.357,829.248 759.183,829.248 760.593,829.248 762.593,829.248 765.159,829.248 768.28,829.248 771.976,829.248 776.246,829.248 781.09,829.248 
  786.511,829.248 792.489,829.248 798.999,829.248 806.061,829.248 813.671,829.248 821.827,829.248 830.525,829.248 839.754,829.248 849.477,829.248 859.711,829.248 
  870.45,829.248 881.689,829.248 893.422,829.248 905.641,829.248 918.302,829.248 931.42,829.248 944.988,829.248 958.996,829.248 973.437,829.248 988.301,829.248 
  1003.55,829.248 1019.2,829.248 1035.22,829.248 1051.62,829.248 1068.39,829.248 1085.5,829.248 1102.95,829.248 1120.71,829.248 1138.79,829.248 1157.17,829.248 
  1175.85,829.248 1194.8,829.248 1214.02,829.248 1233.5,829.248 1253.22,829.248 1273.18,829.248 1293.37,829.248 1313.77,829.248 1334.04,829.248 1342.56,829.248 
  1351.14,829.248 
  "/>
<polyline clip-path="url(#clip582)" style="stroke:#e26f46; stroke-linecap:round; stroke-linejoin:round; stroke-width:8; stroke-opacity:1; fill:none" points="
  1333.88,743.895 1368.67,748.309 1403.71,752.369 1438.96,756.094 1474.34,759.503 1509.81,762.616 1545.33,765.452 1580.82,768.029 1616.24,770.366 1651.55,772.481 
  1686.69,774.392 1721.62,776.115 1756.29,777.665 1790.64,779.056 1824.64,780.304 1858.24,781.42 1891.39,782.416 1924.05,783.304 1956.18,784.094 1987.75,784.794 
  2018.71,785.415 2049.03,785.963 2078.67,786.447 2107.6,786.872 2135.78,787.245 2163.19,787.571 2189.82,787.855 2215.6,788.102 2240.53,788.316 2264.56,788.501 
  2287.66,788.659 2309.81,788.794 2331.04,788.909 2351.27,789.007 2370.49,789.088 2388.68,789.157 2405.8,789.213 2421.85,789.259 2436.81,789.297 2450.69,789.327 
  2463.46,789.352 2475.09,789.371 2485.57,789.385 2494.9,789.396 2503.06,789.405 2510.06,789.411 2515.88,789.415 2520.52,789.418 2523.96,789.42 2526.22,789.422 
  2527.27,789.422 2527.13,789.422 2525.8,789.421 2523.27,789.42 2519.56,789.418 2514.65,789.414 2508.57,789.41 2501.3,789.403 2492.87,789.394 2483.27,789.382 
  2472.53,789.367 2460.64,789.347 2447.63,789.321 2433.5,789.289 2418.27,789.25 2401.94,789.201 2384.54,789.142 2366.09,789.071 2346.6,788.985 2326.09,788.884 
  2304.59,788.764 2282.09,788.622 2258.64,788.457 2234.25,788.264 2208.94,788.041 2182.74,787.782 2155.67,787.485 2127.76,787.142 2099.02,786.75 2069.48,786.302 
  2039.17,785.791 2008.12,785.21 1976.36,784.55 1943.9,783.801 1910.77,782.954 1876.98,781.995 1842.58,780.913 1807.58,779.693 1772.03,778.319 1735.94,776.773 
  1699.33,775.035 1662.19,773.08 1624.57,770.884 1586.5,768.419 1547.98,765.654 1509.06,762.553 1469.74,759.078 1430.05,755.185 1390.02,750.825 1349.65,745.945 
  1316.33,912.325 1287.47,908.801 1258.43,905.511 1229.24,902.446 1199.94,899.598 1170.59,896.956 1141.22,894.511 1111.87,892.251 1082.58,890.167 1053.39,888.248 
  1024.34,886.484 995.484,884.865 966.851,883.383 938.477,882.026 910.393,880.786 882.643,879.654 855.267,878.624 828.305,877.686 801.783,876.834 775.709,876.061 
  750.14,875.36 725.111,874.725 700.658,874.152 676.805,873.634 653.543,873.167 630.928,872.746 608.993,872.368 587.766,872.029 567.272,871.724 547.493,871.452 
  528.482,871.208 510.264,870.99 492.864,870.796 476.308,870.624 460.563,870.471 445.681,870.336 431.682,870.216 418.587,870.111 406.415,870.019 395.135,869.938 
  384.784,869.867 375.382,869.807 366.943,869.755 359.482,869.71 352.971,869.673 347.429,869.643 342.875,869.618 339.319,869.6 336.771,869.587 335.203,869.579 
  334.62,869.576 335.04,869.578 336.468,869.585 338.907,869.598 342.333,869.615 346.735,869.639 352.13,869.669 358.516,869.705 365.894,869.748 374.239,869.799 
  383.529,869.859 393.777,869.928 404.978,870.008 417.126,870.099 430.199,870.204 444.163,870.322 459.029,870.457 474.787,870.609 491.426,870.781 508.927,870.975 
  527.247,871.192 546.394,871.437 566.352,871.711 587.109,872.019 608.643,872.362 630.912,872.746 653.915,873.174 677.636,873.652 702.057,874.183 727.16,874.775 
  752.901,875.433 779.277,876.163 806.266,876.974 833.849,877.873 862.007,878.87 890.71,879.974 919.943,881.196 949.685,882.549 979.916,884.045 1010.61,885.698 
  1041.77,887.526 1073.36,889.545 1105.37,891.775 1137.77,894.236 1170.55,896.953 1203.66,899.948 1237.08,903.247 1270.8,906.882 1304.79,910.885 1337.25,744.34 
  1359.8,747.221 1382.5,749.955 1405.33,752.547 1428.25,754.998 1451.25,757.315 1474.28,759.498 1497.33,761.554 1520.36,763.487 1543.33,765.3 1566.23,766.999 
  1589,768.589 1611.63,770.074 1634.1,771.462 1656.37,772.754 1678.41,773.958 1700.19,775.078 1721.69,776.118 1742.87,777.083 1763.72,777.977 1784.19,778.806 
  1804.28,779.572 1823.96,780.28 1843.2,780.934 1861.97,781.537 1880.25,782.092 1898.03,782.604 1915.29,783.075 1932,783.507 1948.13,783.903 1963.68,784.267 
  1978.64,784.599 1992.97,784.903 2006.66,785.181 2019.68,785.433 2032.06,785.663 2043.75,785.872 2054.75,786.06 2065.02,786.23 2074.59,786.383 2083.45,786.52 
  2091.57,786.642 2098.94,786.749 2105.55,786.843 2111.4,786.924 2116.46,786.993 2120.73,787.05 2124.24,787.097 2126.98,787.132 2128.93,787.158 2130.08,787.172 
  2130.43,787.177 2129.98,787.171 2128.71,787.155 2126.64,787.128 2123.8,787.091 2120.17,787.043 2115.74,786.983 2110.52,786.912 2104.51,786.829 2097.72,786.732 
  2090.16,786.621 2081.83,786.495 2072.74,786.354 2062.9,786.196 2052.31,786.019 2040.99,785.823 2028.94,785.606 2016.18,785.367 2002.72,785.102 1988.57,784.812 
  1973.73,784.492 1958.23,784.141 1942.07,783.757 1925.28,783.336 1907.86,782.875 1889.84,782.372 1871.23,781.822 1852.02,781.222 1832.24,780.566 1811.92,779.852 
  1791.07,779.073 1769.7,778.224 1747.84,777.301 1725.5,776.296 1702.68,775.202 1679.4,774.011 1655.69,772.716 1631.55,771.308 1607.02,769.779 1582.1,768.117 
  1556.81,766.313 1531.18,764.354 1505.21,762.229 1478.93,759.923 1452.35,757.422 1425.5,754.712 1398.39,751.775 1371.04,748.595 1343.47,745.152 1323.51,913.244 
  1307.57,911.228 1291.54,909.282 1275.42,907.405 1259.23,905.599 1243,903.862 1226.73,902.194 1210.46,900.595 1194.2,899.065 1177.98,897.602 1161.8,896.204 
  1145.7,894.871 1129.69,893.602 1113.78,892.393 1098.01,891.245 1082.4,890.155 1066.96,889.121 1051.71,888.142 1036.67,887.216 1021.86,886.34 1007.3,885.513 
  992.999,884.732 978.984,883.997 965.274,883.304 951.89,882.654 938.84,882.042 926.122,881.468 913.77,880.929 901.802,880.426 890.234,879.955 879.086,879.516 
  868.366,879.107 858.054,878.725 848.19,878.37 838.788,878.042 829.863,877.738 821.428,877.459 813.498,877.202 806.036,876.967 799.085,876.752 792.655,876.557 
  786.758,876.381 781.405,876.225 776.606,876.086 772.327,875.965 768.595,875.86 765.422,875.772 762.817,875.7 760.787,875.645 759.34,875.606 758.446,875.581 
  758.113,875.572 758.357,875.579 759.183,875.601 760.593,875.64 762.593,875.694 765.159,875.765 768.28,875.851 771.976,875.955 776.246,876.076 781.09,876.215 
  786.511,876.374 792.489,876.552 798.999,876.749 806.061,876.967 813.671,877.208 821.827,877.472 830.525,877.761 839.754,878.075 849.477,878.416 859.711,878.785 
  870.45,879.185 881.689,879.617 893.422,880.083 905.641,880.585 918.302,881.125 931.42,881.705 944.988,882.327 958.996,882.996 973.437,883.713 988.301,884.482 
  1003.55,885.305 1019.2,886.186 1035.22,887.129 1051.62,888.137 1068.39,889.215 1085.5,890.368 1102.95,891.599 1120.71,892.914 1138.79,894.317 1157.17,895.816 
  1175.85,897.414 1194.8,899.12 1214.02,900.939 1233.5,902.879 1253.22,904.947 1273.18,907.151 1293.37,909.5 1313.77,912.001 1334.04,743.917 1342.56,745.034 
  1351.14,746.134 
  "/>
<polyline clip-path="url(#clip582)" style="stroke:#008000; stroke-linecap:round; stroke-linejoin:round; stroke-width:8; stroke-opacity:1; fill:none" stroke-dasharray="4, 8" points="
  1333.88,537.434 1368.67,561.454 1403.71,586.695 1438.96,613.103 1474.34,640.569 1509.81,668.993 1545.33,698.243 1580.82,728.142 1616.24,758.539 1651.55,789.239 
  1686.69,820.066 1721.62,850.808 1756.29,881.279 1790.64,911.285 1824.64,940.648 1858.24,969.217 1891.39,996.843 1924.05,1023.4 1956.18,1048.81 1987.75,1072.99 
  2018.71,1095.9 2049.03,1117.49 2078.67,1137.78 2107.6,1156.77 2135.78,1174.47 2163.19,1190.94 2189.82,1206.21 2215.6,1220.34 2240.53,1233.38 2264.56,1245.38 
  2287.66,1256.4 2309.81,1266.5 2331.04,1275.76 2351.27,1284.22 2370.49,1291.93 2388.68,1298.93 2405.8,1305.29 2421.85,1311.02 2436.81,1316.2 2450.69,1320.85 
  2463.46,1324.99 2475.09,1328.67 2485.57,1331.9 2494.9,1334.72 2503.06,1337.13 2510.06,1339.16 2515.88,1340.83 2520.52,1342.14 2523.96,1343.11 2526.22,1343.74 
  2527.27,1344.03 2527.13,1343.99 2525.8,1343.62 2523.27,1342.92 2519.56,1341.87 2514.65,1340.48 2508.57,1338.73 2501.3,1336.61 2492.87,1334.11 2483.27,1331.2 
  2472.53,1327.87 2460.64,1324.09 2447.63,1319.83 2433.5,1315.07 2418.27,1309.76 2401.94,1303.87 2384.54,1297.37 2366.09,1290.19 2346.6,1282.3 2326.09,1273.64 
  2304.59,1264.16 2282.09,1253.79 2258.64,1242.47 2234.25,1230.15 2208.94,1216.75 2182.74,1202.22 2155.67,1186.49 2127.76,1169.51 2099.02,1151.22 2069.48,1131.58 
  2039.17,1110.56 2008.12,1088.15 1976.36,1064.36 1943.9,1039.19 1910.77,1012.69 1876.98,984.912 1842.58,955.966 1807.58,925.967 1772.03,895.058 1735.94,863.405 
  1699.33,831.182 1662.19,798.555 1624.57,765.751 1586.5,732.982 1547.98,700.458 1509.06,668.382 1469.74,636.948 1430.05,606.336 1390.02,576.704 1349.65,548.191 
  1316.33,525.731 1287.47,507.086 1258.43,489.093 1229.24,471.793 1199.94,455.219 1170.59,439.397 1141.22,424.346 1111.87,410.066 1082.58,396.563 1053.39,383.825 
  1024.34,371.842 995.484,360.594 966.851,350.061 938.477,340.212 910.393,331.017 882.643,322.448 855.267,314.474 828.305,307.064 801.783,300.183 775.709,293.793 
  750.14,287.869 725.111,282.382 700.658,277.304 676.805,272.606 653.543,268.256 630.928,264.234 608.993,260.518 587.766,257.089 567.272,253.925 547.493,251.002 
  528.482,248.309 510.264,245.83 492.864,243.552 476.308,241.461 460.563,239.541 445.681,237.784 431.682,236.181 418.587,234.724 406.415,233.405 395.135,232.213 
  384.784,231.143 375.382,230.192 366.943,229.353 359.482,228.624 352.971,227.996 347.429,227.469 342.875,227.04 339.319,226.708 336.771,226.471 335.203,226.327 
  334.62,226.273 335.04,226.312 336.468,226.443 338.907,226.67 342.333,226.989 346.735,227.403 352.13,227.916 358.516,228.53 365.894,229.25 374.239,230.077 
  383.529,231.015 393.777,232.071 404.978,233.252 417.126,234.564 430.199,236.014 444.163,237.608 459.029,239.357 474.787,241.273 491.426,243.367 508.927,245.652 
  527.247,248.138 546.394,250.844 566.352,253.786 587.109,256.985 608.643,260.461 630.912,264.231 653.915,268.324 677.636,272.766 702.057,277.587 727.16,282.82 
  752.901,288.493 779.277,294.646 806.266,301.318 833.849,308.553 862.007,316.394 890.71,324.887 919.943,334.083 949.685,344.034 979.916,354.791 1010.61,366.411 
  1041.77,378.951 1073.36,392.466 1105.37,407.009 1137.77,422.631 1170.55,439.379 1203.66,457.28 1237.08,476.367 1270.8,496.665 1304.79,518.186 1337.25,539.714 
  1359.8,555.228 1382.5,571.289 1405.33,587.884 1428.25,604.975 1451.25,622.542 1474.28,640.527 1497.33,658.901 1520.36,677.603 1543.33,696.578 1566.23,715.778 
  1589,735.117 1611.63,754.556 1634.1,774.028 1656.37,793.456 1678.41,812.785 1700.19,831.943 1721.69,850.87 1742.87,869.504 1763.72,887.79 1784.19,905.674 
  1804.28,923.114 1823.96,940.068 1843.2,956.493 1861.97,972.355 1880.25,987.626 1898.03,1002.3 1915.29,1016.35 1932,1029.76 1948.13,1042.52 1963.68,1054.63 
  1978.64,1066.09 1992.97,1076.91 2006.66,1087.08 2019.68,1096.6 2032.06,1105.51 2043.75,1113.79 2054.75,1121.47 2065.02,1128.54 2074.59,1135.04 2083.45,1140.97 
  2091.57,1146.34 2098.94,1151.17 2105.55,1155.45 2111.4,1159.19 2116.46,1162.41 2120.73,1165.11 2124.24,1167.32 2126.98,1169.03 2128.93,1170.24 2130.08,1170.95 
  2130.43,1171.17 2129.98,1170.89 2128.71,1170.1 2126.64,1168.81 2123.8,1167.04 2120.17,1164.76 2115.74,1161.96 2110.52,1158.63 2104.51,1154.78 2097.72,1150.38 
  2090.16,1145.42 2081.83,1139.89 2072.74,1133.79 2062.9,1127.09 2052.31,1119.78 2040.99,1111.84 2028.94,1103.28 2016.18,1094.05 2002.72,1084.17 1988.57,1073.61 
  1973.73,1062.35 1958.23,1050.4 1942.07,1037.75 1925.28,1024.39 1907.86,1010.33 1889.84,995.565 1871.23,980.114 1852.02,963.969 1832.24,947.16 1811.92,929.711 
  1791.07,911.654 1769.7,893.023 1747.84,873.863 1725.5,854.22 1702.68,834.136 1679.4,813.658 1655.69,792.861 1631.55,771.811 1607.02,750.577 1582.1,729.231 
  1556.81,707.848 1531.18,686.502 1505.21,665.262 1478.93,644.201 1452.35,623.392 1425.5,602.901 1398.39,582.792 1371.04,563.123 1343.47,543.948 1323.51,530.486 
  1307.57,519.992 1291.54,509.668 1275.42,499.527 1259.23,489.582 1243,479.851 1226.73,470.344 1210.46,461.076 1194.2,452.061 1177.98,443.306 1161.8,434.81 
  1145.7,426.59 1129.69,418.645 1113.78,410.976 1098.01,403.589 1082.4,396.483 1066.96,389.659 1051.71,383.114 1036.67,376.846 1021.86,370.85 1007.3,365.121 
  992.999,359.656 978.984,354.45 965.274,349.498 951.89,344.796 938.84,340.334 926.122,336.1 913.77,332.094 901.802,328.31 890.234,324.742 879.086,321.385 
  868.366,318.231 858.054,315.265 848.19,312.487 838.788,309.894 829.863,307.48 821.428,305.241 813.498,303.173 806.036,301.26 799.085,299.505 792.655,297.904 
  786.758,296.456 781.405,295.158 776.606,294.006 772.327,292.99 768.595,292.111 765.422,291.37 762.817,290.765 760.787,290.295 759.34,289.962 758.446,289.757 
  758.113,289.681 758.357,289.737 759.183,289.926 760.593,290.251 762.593,290.713 765.159,291.308 768.28,292.037 771.976,292.907 776.246,293.92 781.09,295.082 
  786.511,296.396 792.489,297.863 798.999,299.483 806.061,301.266 813.671,303.218 821.827,305.346 830.525,307.658 839.754,310.158 849.477,312.846 859.711,315.737 
  870.45,318.839 881.689,322.162 893.422,325.717 905.641,329.514 918.302,333.552 931.42,337.851 944.988,342.421 958.996,347.277 973.437,352.43 988.301,357.894 
  1003.55,363.674 1019.2,369.789 1035.22,376.252 1051.62,383.078 1068.39,390.282 1085.5,397.878 1102.95,405.876 1120.71,414.29 1138.79,423.136 1157.17,432.426 
  1175.85,442.173 1194.8,452.389 1214.02,463.085 1233.5,474.27 1253.22,485.952 1273.18,498.139 1293.37,510.835 1313.77,524.043 1334.04,537.547 1342.56,543.328 
  1351.14,549.215 
  "/>
<polyline clip-path="url(#clip582)" style="stroke:#008000; stroke-linecap:round; stroke-linejoin:round; stroke-width:8; stroke-opacity:1; fill:none" points="
  1333.88,585.177 1368.67,613.472 1403.71,642.58 1438.96,672.378 1474.34,702.695 1509.81,733.384 1545.33,764.278 1580.82,795.184 1616.24,825.955 1651.55,856.418 
  1686.69,886.435 1721.62,915.851 1756.29,944.546 1790.64,972.402 1824.64,999.326 1858.24,1025.25 1891.39,1050.09 1924.05,1073.82 1956.18,1096.4 1987.75,1117.83 
  2018.71,1138.08 2049.03,1157.18 2078.67,1175.14 2107.6,1191.98 2135.78,1207.74 2163.19,1222.45 2189.82,1236.17 2215.6,1248.92 2240.53,1260.76 2264.56,1271.72 
  2287.66,1281.85 2309.81,1291.19 2331.04,1299.81 2351.27,1307.73 2370.49,1314.99 2388.68,1321.63 2405.8,1327.68 2421.85,1333.18 2436.81,1338.16 2450.69,1342.66 
  2463.46,1346.69 2475.09,1350.27 2485.57,1353.44 2494.9,1356.2 2503.06,1358.58 2510.06,1360.58 2515.88,1362.23 2520.52,1363.53 2523.96,1364.49 2526.22,1365.12 
  2527.27,1365.41 2527.13,1365.37 2525.8,1365 2523.27,1364.3 2519.56,1363.27 2514.65,1361.89 2508.57,1360.16 2501.3,1358.07 2492.87,1355.6 2483.27,1352.75 
  2472.53,1349.49 2460.64,1345.81 2447.63,1341.67 2433.5,1337.07 2418.27,1331.97 2401.94,1326.33 2384.54,1320.14 2366.09,1313.35 2346.6,1305.93 2326.09,1297.83 
  2304.59,1289.02 2282.09,1279.45 2258.64,1269.06 2234.25,1257.82 2208.94,1245.68 2182.74,1232.58 2155.67,1218.48 2127.76,1203.32 2099.02,1187.06 2069.48,1169.65 
  2039.17,1151.05 2008.12,1131.24 1976.36,1110.18 1943.9,1087.86 1910.77,1064.26 1876.98,1039.38 1842.58,1013.25 1807.58,985.903 1772.03,957.384 1735.94,927.766 
  1699.33,897.129 1662.19,865.547 1624.57,833.165 1586.5,800.127 1547.98,766.59 1509.06,732.731 1469.74,698.737 1430.05,664.804 1390.02,631.133 1349.65,597.922 
  1316.33,571.174 1287.47,548.56 1258.43,526.373 1229.24,504.695 1199.94,483.599 1170.59,463.157 1141.22,443.428 1111.87,424.451 1082.58,406.271 1053.39,388.91 
  1024.34,372.39 995.484,356.717 966.851,341.892 938.477,327.905 910.393,314.737 882.643,302.373 855.267,290.789 828.305,279.959 801.783,269.849 775.709,260.416 
  750.14,251.637 725.111,243.478 700.658,235.906 676.805,228.886 653.543,222.372 630.928,216.344 608.993,210.77 587.766,205.623 567.272,200.874 547.493,196.488 
  528.482,192.448 510.264,188.733 492.864,185.321 476.308,182.194 460.563,179.324 445.681,176.703 431.682,174.315 418.587,172.146 406.415,170.187 395.135,168.418 
  384.784,166.833 375.382,165.424 366.943,164.184 359.482,163.108 352.971,162.182 347.429,161.405 342.875,160.774 339.319,160.285 336.771,159.937 335.203,159.724 
  334.62,159.645 335.04,159.702 336.468,159.896 338.907,160.229 342.333,160.699 346.735,161.309 352.13,162.064 358.516,162.969 365.894,164.032 374.239,165.255 
  383.529,166.643 393.777,168.208 404.978,169.959 417.126,171.908 430.199,174.066 444.163,176.44 459.029,179.05 474.787,181.912 491.426,185.045 508.927,188.466 
  527.247,192.192 546.394,196.25 566.352,200.666 587.109,205.467 608.643,210.683 630.912,216.339 653.915,222.474 677.636,229.124 702.057,236.329 727.16,244.13 
  752.901,252.563 779.277,261.678 806.266,271.521 833.849,282.14 862.007,293.585 890.71,305.902 919.943,319.14 949.685,333.347 979.916,348.567 1010.61,364.842 
  1041.77,382.213 1073.36,400.71 1105.37,420.355 1137.77,441.162 1170.55,463.133 1203.66,486.24 1237.08,510.46 1270.8,535.755 1304.79,562.069 1337.25,587.888 
  1359.8,606.195 1382.5,624.888 1405.33,643.935 1428.25,663.276 1451.25,682.873 1474.28,702.649 1497.33,722.565 1520.36,742.548 1543.33,762.537 1566.23,782.483 
  1589,802.301 1611.63,821.958 1634.1,841.399 1656.37,860.557 1678.41,879.394 1700.19,897.858 1721.69,915.909 1742.87,933.508 1763.72,950.622 1784.19,967.221 
  1804.28,983.286 1823.96,998.797 1843.2,1013.73 1861.97,1028.08 1880.25,1041.82 1898.03,1054.98 1915.29,1067.53 1932,1079.48 1948.13,1090.82 1963.68,1101.56 
  1978.64,1111.72 1992.97,1121.29 2006.66,1130.28 2019.68,1138.7 2032.06,1146.58 2043.75,1153.91 2054.75,1160.7 2065.02,1166.96 2074.59,1172.71 2083.45,1177.96 
  2091.57,1182.73 2098.94,1187.01 2105.55,1190.81 2111.4,1194.14 2116.46,1197 2120.73,1199.4 2124.24,1201.36 2126.98,1202.89 2128.93,1203.97 2130.08,1204.6 
  2130.43,1204.8 2129.98,1204.54 2128.71,1203.85 2126.64,1202.7 2123.8,1201.12 2120.17,1199.08 2115.74,1196.59 2110.52,1193.64 2104.51,1190.21 2097.72,1186.31 
  2090.16,1181.91 2081.83,1177.01 2072.74,1171.6 2062.9,1165.67 2052.31,1159.2 2040.99,1152.18 2028.94,1144.61 2016.18,1136.45 2002.72,1127.71 1988.57,1118.37 
  1973.73,1108.4 1958.23,1097.81 1942.07,1086.58 1925.28,1074.7 1907.86,1062.15 1889.84,1048.95 1871.23,1035.07 1852.02,1020.5 1832.24,1005.26 1811.92,989.334 
  1791.07,972.743 1769.7,955.493 1747.84,937.601 1725.5,919.085 1702.68,899.959 1679.4,880.24 1655.69,859.973 1631.55,839.197 1607.02,817.955 1582.1,796.298 
  1556.81,774.279 1531.18,751.958 1505.21,729.394 1478.93,706.655 1452.35,683.814 1425.5,660.944 1398.39,638.119 1371.04,615.416 1343.47,592.909 1323.51,576.881 
  1307.57,564.253 1291.54,551.715 1275.42,539.283 1259.23,526.981 1243,514.836 1226.73,502.863 1210.46,491.091 1194.2,479.543 1177.98,468.235 1161.8,457.173 
  1145.7,446.387 1129.69,435.882 1113.78,425.667 1098.01,415.759 1082.4,406.164 1066.96,396.887 1051.71,387.935 1036.67,379.311 1021.86,371.015 1007.3,363.044 
  992.999,355.402 978.984,348.086 965.274,341.097 951.89,334.43 938.84,328.079 926.122,322.03 913.77,316.285 901.802,310.841 890.234,305.692 879.086,300.833 
  868.366,296.257 858.054,291.941 848.19,287.891 838.788,284.103 829.863,280.569 821.428,277.286 813.498,274.249 806.036,271.435 799.085,268.85 792.655,266.49 
  786.758,264.353 781.405,262.435 776.606,260.732 772.327,259.229 768.595,257.927 765.422,256.829 762.817,255.933 760.787,255.237 759.34,254.743 758.446,254.439 
  758.113,254.326 758.357,254.409 759.183,254.69 760.593,255.171 762.593,255.856 765.159,256.738 768.28,257.818 771.976,259.106 776.246,260.605 781.09,262.323 
  786.511,264.264 792.489,266.43 798.999,268.818 806.061,271.444 813.671,274.315 821.827,277.441 830.525,280.83 839.754,284.489 849.477,288.415 859.711,292.628 
  870.45,297.139 881.689,301.959 893.422,307.1 905.641,312.574 918.302,318.378 931.42,324.533 944.988,331.053 958.996,337.951 973.437,345.238 988.301,352.93 
  1003.55,361.025 1019.2,369.541 1035.22,378.491 1051.62,387.886 1068.39,397.737 1085.5,408.052 1102.95,418.834 1120.71,430.091 1138.79,441.83 1157.17,454.054 
  1175.85,466.766 1194.8,479.965 1214.02,493.651 1233.5,507.82 1253.22,522.463 1273.18,537.573 1293.37,553.138 1313.77,569.142 1334.04,585.312 1342.56,592.175 
  1351.14,599.129 
  "/>
<path clip-path="url(#clip580)" d="
M1446.2 554.876 L2284.83 554.876 L2284.83 166.076 L1446.2 166.076  Z
  " fill="#ffffff" fill-rule="evenodd" fill-opacity="1"/>
<polyline clip-path="url(#clip580)" style="stroke:#000000; stroke-linecap:round; stroke-linejoin:round; stroke-width:4; stroke-opacity:1; fill:none" points="
  1446.2,554.876 2284.83,554.876 2284.83,166.076 1446.2,166.076 1446.2,554.876 
  "/>
<polyline clip-path="url(#clip580)" style="stroke:#009af9; stroke-linecap:round; stroke-linejoin:round; stroke-width:12; stroke-opacity:1; fill:none" points="
  1468.84,243.836 1604.69,243.836 
  "/>
<path clip-path="url(#clip580)" d="M1660.7 219.617 L1660.7 226.457 Q1656.71 224.548 1653.16 223.61 Q1649.62 222.673 1646.32 222.673 Q1640.59 222.673 1637.47 224.895 Q1634.38 227.117 1634.38 231.214 Q1634.38 234.652 1636.43 236.423 Q1638.51 238.159 1644.28 239.235 L1648.51 240.103 Q1656.36 241.596 1660.07 245.381 Q1663.82 249.131 1663.82 255.45 Q1663.82 262.985 1658.75 266.874 Q1653.72 270.763 1643.96 270.763 Q1640.28 270.763 1636.12 269.929 Q1631.98 269.096 1627.54 267.464 L1627.54 260.242 Q1631.81 262.638 1635.91 263.853 Q1640 265.068 1643.96 265.068 Q1649.97 265.068 1653.23 262.707 Q1656.5 260.346 1656.5 255.971 Q1656.5 252.152 1654.14 249.999 Q1651.81 247.846 1646.46 246.77 L1642.19 245.936 Q1634.34 244.374 1630.84 241.041 Q1627.33 237.707 1627.33 231.77 Q1627.33 224.895 1632.16 220.937 Q1637.02 216.978 1645.53 216.978 Q1649.17 216.978 1652.96 217.638 Q1656.74 218.298 1660.7 219.617 Z" fill="#000000" fill-rule="evenodd" fill-opacity="1" /><path clip-path="url(#clip580)" d="M1674.48 230.867 L1680.87 230.867 L1680.87 269.756 L1674.48 269.756 L1674.48 230.867 M1674.48 215.728 L1680.87 215.728 L1680.87 223.818 L1674.48 223.818 L1674.48 215.728 Z" fill="#000000" fill-rule="evenodd" fill-opacity="1" /><path clip-path="url(#clip580)" d="M1724.52 238.332 Q1726.91 234.027 1730.25 231.978 Q1733.58 229.93 1738.09 229.93 Q1744.17 229.93 1747.47 234.2 Q1750.77 238.436 1750.77 246.284 L1750.77 269.756 L1744.34 269.756 L1744.34 246.492 Q1744.34 240.902 1742.37 238.193 Q1740.39 235.485 1736.32 235.485 Q1731.36 235.485 1728.48 238.784 Q1725.59 242.082 1725.59 247.777 L1725.59 269.756 L1719.17 269.756 L1719.17 246.492 Q1719.17 240.867 1717.19 238.193 Q1715.21 235.485 1711.08 235.485 Q1706.18 235.485 1703.3 238.818 Q1700.42 242.117 1700.42 247.777 L1700.42 269.756 L1694 269.756 L1694 230.867 L1700.42 230.867 L1700.42 236.909 Q1702.61 233.332 1705.66 231.631 Q1708.72 229.93 1712.92 229.93 Q1717.16 229.93 1720.11 232.082 Q1723.09 234.235 1724.52 238.332 Z" fill="#000000" fill-rule="evenodd" fill-opacity="1" /><path clip-path="url(#clip580)" d="M1769.69 263.922 L1769.69 284.547 L1763.27 284.547 L1763.27 230.867 L1769.69 230.867 L1769.69 236.77 Q1771.71 233.298 1774.76 231.631 Q1777.85 229.93 1782.12 229.93 Q1789.21 229.93 1793.61 235.555 Q1798.06 241.179 1798.06 250.346 Q1798.06 259.513 1793.61 265.138 Q1789.21 270.763 1782.12 270.763 Q1777.85 270.763 1774.76 269.096 Q1771.71 267.395 1769.69 263.922 M1791.43 250.346 Q1791.43 243.298 1788.51 239.304 Q1785.63 235.277 1780.56 235.277 Q1775.49 235.277 1772.57 239.304 Q1769.69 243.298 1769.69 250.346 Q1769.69 257.395 1772.57 261.422 Q1775.49 265.415 1780.56 265.415 Q1785.63 265.415 1788.51 261.422 Q1791.43 257.395 1791.43 250.346 Z" fill="#000000" fill-rule="evenodd" fill-opacity="1" /><path clip-path="url(#clip580)" d="M1808.65 215.728 L1815.04 215.728 L1815.04 269.756 L1808.65 269.756 L1808.65 215.728 Z" fill="#000000" fill-rule="evenodd" fill-opacity="1" /><path clip-path="url(#clip580)" d="M1861.67 248.714 L1861.67 251.839 L1832.3 251.839 Q1832.71 258.436 1836.25 261.909 Q1839.83 265.346 1846.18 265.346 Q1849.86 265.346 1853.3 264.443 Q1856.77 263.54 1860.18 261.735 L1860.18 267.777 Q1856.74 269.235 1853.13 269.999 Q1849.52 270.763 1845.8 270.763 Q1836.5 270.763 1831.05 265.346 Q1825.63 259.929 1825.63 250.693 Q1825.63 241.145 1830.77 235.555 Q1835.94 229.93 1844.69 229.93 Q1852.54 229.93 1857.09 234.999 Q1861.67 240.034 1861.67 248.714 M1855.28 246.839 Q1855.21 241.596 1852.33 238.471 Q1849.48 235.346 1844.76 235.346 Q1839.41 235.346 1836.18 238.367 Q1832.99 241.388 1832.5 246.874 L1855.28 246.839 Z" fill="#000000" fill-rule="evenodd" fill-opacity="1" /><path clip-path="url(#clip580)" d="M1872.43 217.916 L1902.23 217.916 L1902.23 223.818 L1879.45 223.818 L1879.45 239.096 L1900 239.096 L1900 244.999 L1879.45 244.999 L1879.45 269.756 L1872.43 269.756 L1872.43 217.916 Z" fill="#000000" fill-rule="evenodd" fill-opacity="1" /><path clip-path="url(#clip580)" d="M1913.34 217.916 L1923.79 217.916 L1937.02 253.193 L1950.32 217.916 L1960.77 217.916 L1960.77 269.756 L1953.93 269.756 L1953.93 224.235 L1940.56 259.79 L1933.51 259.79 L1920.14 224.235 L1920.14 269.756 L1913.34 269.756 L1913.34 217.916 Z" fill="#000000" fill-rule="evenodd" fill-opacity="1" /><path clip-path="url(#clip580)" d="M1973.89 217.916 L1980.94 217.916 L1980.94 249.409 Q1980.94 257.742 1983.96 261.422 Q1986.98 265.068 1993.75 265.068 Q2000.49 265.068 2003.51 261.422 Q2006.53 257.742 2006.53 249.409 L2006.53 217.916 L2013.58 217.916 L2013.58 250.277 Q2013.58 260.415 2008.54 265.589 Q2003.54 270.763 1993.75 270.763 Q1983.93 270.763 1978.89 265.589 Q1973.89 260.415 1973.89 250.277 L1973.89 217.916 Z" fill="#000000" fill-rule="evenodd" fill-opacity="1" /><polyline clip-path="url(#clip580)" style="stroke:#e26f46; stroke-linecap:round; stroke-linejoin:round; stroke-width:12; stroke-opacity:1; fill:none" points="
  1468.84,321.596 1604.69,321.596 
  "/>
<path clip-path="url(#clip580)" d="M1650.11 314.599 Q1649.03 313.974 1647.75 313.696 Q1646.5 313.384 1644.97 313.384 Q1639.55 313.384 1636.64 316.926 Q1633.75 320.433 1633.75 327.03 L1633.75 347.516 L1627.33 347.516 L1627.33 308.627 L1633.75 308.627 L1633.75 314.669 Q1635.77 311.127 1639 309.426 Q1642.23 307.69 1646.84 307.69 Q1647.5 307.69 1648.3 307.794 Q1649.1 307.863 1650.07 308.037 L1650.11 314.599 Z" fill="#000000" fill-rule="evenodd" fill-opacity="1" /><path clip-path="url(#clip580)" d="M1688.51 326.474 L1688.51 329.599 L1659.14 329.599 Q1659.55 336.196 1663.09 339.669 Q1666.67 343.106 1673.03 343.106 Q1676.71 343.106 1680.14 342.203 Q1683.62 341.3 1687.02 339.495 L1687.02 345.537 Q1683.58 346.995 1679.97 347.759 Q1676.36 348.523 1672.64 348.523 Q1663.34 348.523 1657.89 343.106 Q1652.47 337.689 1652.47 328.453 Q1652.47 318.905 1657.61 313.315 Q1662.78 307.69 1671.53 307.69 Q1679.38 307.69 1683.93 312.759 Q1688.51 317.794 1688.51 326.474 M1682.12 324.599 Q1682.05 319.356 1679.17 316.231 Q1676.32 313.106 1671.6 313.106 Q1666.25 313.106 1663.03 316.127 Q1659.83 319.148 1659.34 324.634 L1682.12 324.599 Z" fill="#000000" fill-rule="evenodd" fill-opacity="1" /><path clip-path="url(#clip580)" d="M1718.68 293.488 L1718.68 298.801 L1712.57 298.801 Q1709.14 298.801 1707.78 300.19 Q1706.46 301.578 1706.46 305.19 L1706.46 308.627 L1716.98 308.627 L1716.98 313.592 L1706.46 313.592 L1706.46 347.516 L1700.04 347.516 L1700.04 313.592 L1693.93 313.592 L1693.93 308.627 L1700.04 308.627 L1700.04 305.919 Q1700.04 299.426 1703.06 296.474 Q1706.08 293.488 1712.64 293.488 L1718.68 293.488 Z" fill="#000000" fill-rule="evenodd" fill-opacity="1" /><path clip-path="url(#clip580)" d="M1757.3 326.474 L1757.3 329.599 L1727.92 329.599 Q1728.34 336.196 1731.88 339.669 Q1735.46 343.106 1741.81 343.106 Q1745.49 343.106 1748.93 342.203 Q1752.4 341.3 1755.8 339.495 L1755.8 345.537 Q1752.37 346.995 1748.75 347.759 Q1745.14 348.523 1741.43 348.523 Q1732.12 348.523 1726.67 343.106 Q1721.25 337.689 1721.25 328.453 Q1721.25 318.905 1726.39 313.315 Q1731.57 307.69 1740.32 307.69 Q1748.16 307.69 1752.71 312.759 Q1757.3 317.794 1757.3 326.474 M1750.91 324.599 Q1750.84 319.356 1747.96 316.231 Q1745.11 313.106 1740.39 313.106 Q1735.04 313.106 1731.81 316.127 Q1728.62 319.148 1728.13 324.634 L1750.91 324.599 Z" fill="#000000" fill-rule="evenodd" fill-opacity="1" /><path clip-path="url(#clip580)" d="M1790.32 314.599 Q1789.24 313.974 1787.96 313.696 Q1786.71 313.384 1785.18 313.384 Q1779.76 313.384 1776.84 316.926 Q1773.96 320.433 1773.96 327.03 L1773.96 347.516 L1767.54 347.516 L1767.54 308.627 L1773.96 308.627 L1773.96 314.669 Q1775.98 311.127 1779.21 309.426 Q1782.43 307.69 1787.05 307.69 Q1787.71 307.69 1788.51 307.794 Q1789.31 307.863 1790.28 308.037 L1790.32 314.599 Z" fill="#000000" fill-rule="evenodd" fill-opacity="1" /><path clip-path="url(#clip580)" d="M1828.72 326.474 L1828.72 329.599 L1799.34 329.599 Q1799.76 336.196 1803.3 339.669 Q1806.88 343.106 1813.23 343.106 Q1816.91 343.106 1820.35 342.203 Q1823.82 341.3 1827.23 339.495 L1827.23 345.537 Q1823.79 346.995 1820.18 347.759 Q1816.57 348.523 1812.85 348.523 Q1803.55 348.523 1798.09 343.106 Q1792.68 337.689 1792.68 328.453 Q1792.68 318.905 1797.82 313.315 Q1802.99 307.69 1811.74 307.69 Q1819.59 307.69 1824.14 312.759 Q1828.72 317.794 1828.72 326.474 M1822.33 324.599 Q1822.26 319.356 1819.38 316.231 Q1816.53 313.106 1811.81 313.106 Q1806.46 313.106 1803.23 316.127 Q1800.04 319.148 1799.55 324.634 L1822.33 324.599 Z" fill="#000000" fill-rule="evenodd" fill-opacity="1" /><path clip-path="url(#clip580)" d="M1871.53 324.044 L1871.53 347.516 L1865.14 347.516 L1865.14 324.252 Q1865.14 318.731 1862.99 315.988 Q1860.84 313.245 1856.53 313.245 Q1851.36 313.245 1848.37 316.544 Q1845.39 319.842 1845.39 325.537 L1845.39 347.516 L1838.96 347.516 L1838.96 308.627 L1845.39 308.627 L1845.39 314.669 Q1847.68 311.162 1850.77 309.426 Q1853.89 307.69 1857.95 307.69 Q1864.66 307.69 1868.09 311.856 Q1871.53 315.988 1871.53 324.044 Z" fill="#000000" fill-rule="evenodd" fill-opacity="1" /><path clip-path="url(#clip580)" d="M1912.26 310.12 L1912.26 316.092 Q1909.55 314.599 1906.81 313.87 Q1904.1 313.106 1901.32 313.106 Q1895.11 313.106 1891.67 317.064 Q1888.23 320.988 1888.23 328.106 Q1888.23 335.224 1891.67 339.182 Q1895.11 343.106 1901.32 343.106 Q1904.1 343.106 1906.81 342.377 Q1909.55 341.613 1912.26 340.12 L1912.26 346.023 Q1909.59 347.273 1906.7 347.898 Q1903.86 348.523 1900.63 348.523 Q1891.84 348.523 1886.67 343.002 Q1881.5 337.481 1881.5 328.106 Q1881.5 318.592 1886.7 313.141 Q1891.95 307.69 1901.04 307.69 Q1904 307.69 1906.81 308.315 Q1909.62 308.905 1912.26 310.12 Z" fill="#000000" fill-rule="evenodd" fill-opacity="1" /><path clip-path="url(#clip580)" d="M1956.63 326.474 L1956.63 329.599 L1927.26 329.599 Q1927.68 336.196 1931.22 339.669 Q1934.79 343.106 1941.15 343.106 Q1944.83 343.106 1948.27 342.203 Q1951.74 341.3 1955.14 339.495 L1955.14 345.537 Q1951.7 346.995 1948.09 347.759 Q1944.48 348.523 1940.77 348.523 Q1931.46 348.523 1926.01 343.106 Q1920.59 337.689 1920.59 328.453 Q1920.59 318.905 1925.73 313.315 Q1930.91 307.69 1939.66 307.69 Q1947.5 307.69 1952.05 312.759 Q1956.63 317.794 1956.63 326.474 M1950.25 324.599 Q1950.18 319.356 1947.29 316.231 Q1944.45 313.106 1939.73 313.106 Q1934.38 313.106 1931.15 316.127 Q1927.95 319.148 1927.47 324.634 L1950.25 324.599 Z" fill="#000000" fill-rule="evenodd" fill-opacity="1" /><polyline clip-path="url(#clip580)" style="stroke:#008000; stroke-linecap:round; stroke-linejoin:round; stroke-width:12; stroke-opacity:1; fill:none" stroke-dasharray="6, 12" points="
  1468.84,399.356 1604.69,399.356 
  "/>
<path clip-path="url(#clip580)" d="M1627.33 373.436 L1636.78 373.436 L1659.76 416.804 L1659.76 373.436 L1666.57 373.436 L1666.57 425.276 L1657.12 425.276 L1634.14 381.908 L1634.14 425.276 L1627.33 425.276 L1627.33 373.436 Z" fill="#000000" fill-rule="evenodd" fill-opacity="1" /><path clip-path="url(#clip580)" d="M1713.51 404.234 L1713.51 407.359 L1684.14 407.359 Q1684.55 413.956 1688.09 417.429 Q1691.67 420.866 1698.03 420.866 Q1701.71 420.866 1705.14 419.963 Q1708.62 419.06 1712.02 417.255 L1712.02 423.297 Q1708.58 424.755 1704.97 425.519 Q1701.36 426.283 1697.64 426.283 Q1688.34 426.283 1682.89 420.866 Q1677.47 415.449 1677.47 406.213 Q1677.47 396.665 1682.61 391.075 Q1687.78 385.45 1696.53 385.45 Q1704.38 385.45 1708.93 390.519 Q1713.51 395.554 1713.51 404.234 M1707.12 402.359 Q1707.05 397.116 1704.17 393.991 Q1701.32 390.866 1696.6 390.866 Q1691.25 390.866 1688.03 393.887 Q1684.83 396.908 1684.34 402.394 L1707.12 402.359 Z" fill="#000000" fill-rule="evenodd" fill-opacity="1" /><path clip-path="url(#clip580)" d="M1723.34 409.929 L1723.34 386.387 L1729.73 386.387 L1729.73 409.686 Q1729.73 415.206 1731.88 417.984 Q1734.03 420.727 1738.34 420.727 Q1743.51 420.727 1746.5 417.429 Q1749.52 414.13 1749.52 408.436 L1749.52 386.387 L1755.91 386.387 L1755.91 425.276 L1749.52 425.276 L1749.52 419.304 Q1747.19 422.845 1744.1 424.581 Q1741.05 426.283 1736.98 426.283 Q1730.28 426.283 1726.81 422.116 Q1723.34 417.949 1723.34 409.929 M1739.41 385.45 L1739.41 385.45 Z" fill="#000000" fill-rule="evenodd" fill-opacity="1" /><path clip-path="url(#clip580)" d="M1791.6 392.359 Q1790.52 391.734 1789.24 391.456 Q1787.99 391.144 1786.46 391.144 Q1781.05 391.144 1778.13 394.686 Q1775.25 398.193 1775.25 404.79 L1775.25 425.276 L1768.82 425.276 L1768.82 386.387 L1775.25 386.387 L1775.25 392.429 Q1777.26 388.887 1780.49 387.186 Q1783.72 385.45 1788.34 385.45 Q1789 385.45 1789.8 385.554 Q1790.59 385.623 1791.57 385.797 L1791.6 392.359 Z" fill="#000000" fill-rule="evenodd" fill-opacity="1" /><path clip-path="url(#clip580)" d="M1815.98 405.727 Q1808.23 405.727 1805.25 407.498 Q1802.26 409.269 1802.26 413.54 Q1802.26 416.942 1804.48 418.956 Q1806.74 420.935 1810.59 420.935 Q1815.91 420.935 1819.1 417.185 Q1822.33 413.401 1822.33 407.151 L1822.33 405.727 L1815.98 405.727 M1828.72 403.088 L1828.72 425.276 L1822.33 425.276 L1822.33 419.373 Q1820.14 422.915 1816.88 424.616 Q1813.61 426.283 1808.89 426.283 Q1802.92 426.283 1799.38 422.949 Q1795.87 419.581 1795.87 413.956 Q1795.87 407.394 1800.25 404.061 Q1804.66 400.727 1813.37 400.727 L1822.33 400.727 L1822.33 400.102 Q1822.33 395.693 1819.41 393.297 Q1816.53 390.866 1811.29 390.866 Q1807.96 390.866 1804.8 391.665 Q1801.64 392.463 1798.72 394.061 L1798.72 388.158 Q1802.23 386.804 1805.52 386.144 Q1808.82 385.45 1811.95 385.45 Q1820.39 385.45 1824.55 389.825 Q1828.72 394.199 1828.72 403.088 Z" fill="#000000" fill-rule="evenodd" fill-opacity="1" /><path clip-path="url(#clip580)" d="M1841.88 371.248 L1848.27 371.248 L1848.27 425.276 L1841.88 425.276 L1841.88 371.248 Z" fill="#000000" fill-rule="evenodd" fill-opacity="1" /><path clip-path="url(#clip580)" d="M1861.91 373.436 L1891.7 373.436 L1891.7 379.338 L1868.93 379.338 L1868.93 394.616 L1889.48 394.616 L1889.48 400.519 L1868.93 400.519 L1868.93 425.276 L1861.91 425.276 L1861.91 373.436 Z" fill="#000000" fill-rule="evenodd" fill-opacity="1" /><path clip-path="url(#clip580)" d="M1902.82 373.436 L1913.27 373.436 L1926.5 408.713 L1939.79 373.436 L1950.25 373.436 L1950.25 425.276 L1943.41 425.276 L1943.41 379.755 L1930.04 415.31 L1922.99 415.31 L1909.62 379.755 L1909.62 425.276 L1902.82 425.276 L1902.82 373.436 Z" fill="#000000" fill-rule="evenodd" fill-opacity="1" /><path clip-path="url(#clip580)" d="M1963.37 373.436 L1970.42 373.436 L1970.42 404.929 Q1970.42 413.262 1973.44 416.942 Q1976.46 420.588 1983.23 420.588 Q1989.97 420.588 1992.99 416.942 Q1996.01 413.262 1996.01 404.929 L1996.01 373.436 L2003.06 373.436 L2003.06 405.797 Q2003.06 415.935 1998.02 421.109 Q1993.02 426.283 1983.23 426.283 Q1973.41 426.283 1968.37 421.109 Q1963.37 415.935 1963.37 405.797 L1963.37 373.436 Z" fill="#000000" fill-rule="evenodd" fill-opacity="1" /><path clip-path="url(#clip580)" d="M2053.89 371.318 Q2049.24 379.304 2046.98 387.116 Q2044.72 394.929 2044.72 402.949 Q2044.72 410.97 2046.98 418.852 Q2049.27 426.699 2053.89 434.651 L2048.34 434.651 Q2043.13 426.491 2040.52 418.609 Q2037.95 410.727 2037.95 402.949 Q2037.95 395.206 2040.52 387.359 Q2043.09 379.512 2048.34 371.318 L2053.89 371.318 Z" fill="#000000" fill-rule="evenodd" fill-opacity="1" /><path clip-path="url(#clip580)" d="M2073.23 419.373 L2097.71 419.373 L2097.71 425.276 L2064.79 425.276 L2064.79 419.373 Q2068.79 415.241 2075.66 408.297 Q2082.57 401.318 2084.34 399.304 Q2087.71 395.519 2089.03 392.915 Q2090.38 390.276 2090.38 387.741 Q2090.38 383.609 2087.47 381.005 Q2084.59 378.401 2079.93 378.401 Q2076.63 378.401 2072.95 379.547 Q2069.31 380.693 2065.14 383.019 L2065.14 375.936 Q2069.38 374.234 2073.06 373.366 Q2076.74 372.498 2079.79 372.498 Q2087.85 372.498 2092.64 376.526 Q2097.43 380.554 2097.43 387.29 Q2097.43 390.484 2096.22 393.366 Q2095.04 396.213 2091.88 400.102 Q2091.01 401.109 2086.36 405.936 Q2081.7 410.727 2073.23 419.373 Z" fill="#000000" fill-rule="evenodd" fill-opacity="1" /><path clip-path="url(#clip580)" d="M2112.5 373.436 L2140.04 373.436 L2140.04 379.338 L2118.93 379.338 L2118.93 392.047 Q2120.45 391.526 2121.98 391.283 Q2123.51 391.005 2125.04 391.005 Q2133.72 391.005 2138.79 395.762 Q2143.86 400.519 2143.86 408.644 Q2143.86 417.012 2138.65 421.665 Q2133.44 426.283 2123.96 426.283 Q2120.7 426.283 2117.29 425.727 Q2113.93 425.172 2110.31 424.06 L2110.31 417.012 Q2113.44 418.713 2116.77 419.547 Q2120.11 420.38 2123.82 420.38 Q2129.83 420.38 2133.34 417.22 Q2136.84 414.06 2136.84 408.644 Q2136.84 403.227 2133.34 400.068 Q2129.83 396.908 2123.82 396.908 Q2121.01 396.908 2118.2 397.533 Q2115.42 398.158 2112.5 399.477 L2112.5 373.436 Z" fill="#000000" fill-rule="evenodd" fill-opacity="1" /><path clip-path="url(#clip580)" d="M2172.68 378.054 Q2167.26 378.054 2164.52 383.401 Q2161.81 388.713 2161.81 399.408 Q2161.81 410.067 2164.52 415.415 Q2167.26 420.727 2172.68 420.727 Q2178.13 420.727 2180.84 415.415 Q2183.58 410.067 2183.58 399.408 Q2183.58 388.713 2180.84 383.401 Q2178.13 378.054 2172.68 378.054 M2172.68 372.498 Q2181.39 372.498 2185.97 379.408 Q2190.59 386.283 2190.59 399.408 Q2190.59 412.498 2185.97 419.408 Q2181.39 426.283 2172.68 426.283 Q2163.96 426.283 2159.34 419.408 Q2154.76 412.498 2154.76 399.408 Q2154.76 386.283 2159.34 379.408 Q2163.96 372.498 2172.68 372.498 Z" fill="#000000" fill-rule="evenodd" fill-opacity="1" /><path clip-path="url(#clip580)" d="M2217.92 378.054 Q2212.5 378.054 2209.76 383.401 Q2207.05 388.713 2207.05 399.408 Q2207.05 410.067 2209.76 415.415 Q2212.5 420.727 2217.92 420.727 Q2223.37 420.727 2226.08 415.415 Q2228.82 410.067 2228.82 399.408 Q2228.82 388.713 2226.08 383.401 Q2223.37 378.054 2217.92 378.054 M2217.92 372.498 Q2226.63 372.498 2231.22 379.408 Q2235.83 386.283 2235.83 399.408 Q2235.83 412.498 2231.22 419.408 Q2226.63 426.283 2217.92 426.283 Q2209.2 426.283 2204.58 419.408 Q2200 412.498 2200 399.408 Q2200 386.283 2204.58 379.408 Q2209.2 372.498 2217.92 372.498 Z" fill="#000000" fill-rule="evenodd" fill-opacity="1" /><path clip-path="url(#clip580)" d="M2246.25 371.318 L2251.81 371.318 Q2257.02 379.512 2259.58 387.359 Q2262.19 395.206 2262.19 402.949 Q2262.19 410.727 2259.58 418.609 Q2257.02 426.491 2251.81 434.651 L2246.25 434.651 Q2250.87 426.699 2253.13 418.852 Q2255.42 410.97 2255.42 402.949 Q2255.42 394.929 2253.13 387.116 Q2250.87 379.304 2246.25 371.318 Z" fill="#000000" fill-rule="evenodd" fill-opacity="1" /><polyline clip-path="url(#clip580)" style="stroke:#008000; stroke-linecap:round; stroke-linejoin:round; stroke-width:12; stroke-opacity:1; fill:none" points="
  1468.84,477.116 1604.69,477.116 
  "/>
<path clip-path="url(#clip580)" d="M1627.33 451.196 L1636.78 451.196 L1659.76 494.564 L1659.76 451.196 L1666.57 451.196 L1666.57 503.036 L1657.12 503.036 L1634.14 459.668 L1634.14 503.036 L1627.33 503.036 L1627.33 451.196 Z" fill="#000000" fill-rule="evenodd" fill-opacity="1" /><path clip-path="url(#clip580)" d="M1713.51 481.994 L1713.51 485.119 L1684.14 485.119 Q1684.55 491.716 1688.09 495.189 Q1691.67 498.626 1698.03 498.626 Q1701.71 498.626 1705.14 497.723 Q1708.62 496.82 1712.02 495.015 L1712.02 501.057 Q1708.58 502.515 1704.97 503.279 Q1701.36 504.043 1697.64 504.043 Q1688.34 504.043 1682.89 498.626 Q1677.47 493.209 1677.47 483.973 Q1677.47 474.425 1682.61 468.835 Q1687.78 463.21 1696.53 463.21 Q1704.38 463.21 1708.93 468.279 Q1713.51 473.314 1713.51 481.994 M1707.12 480.119 Q1707.05 474.876 1704.17 471.751 Q1701.32 468.626 1696.6 468.626 Q1691.25 468.626 1688.03 471.647 Q1684.83 474.668 1684.34 480.154 L1707.12 480.119 Z" fill="#000000" fill-rule="evenodd" fill-opacity="1" /><path clip-path="url(#clip580)" d="M1723.34 487.689 L1723.34 464.147 L1729.73 464.147 L1729.73 487.446 Q1729.73 492.966 1731.88 495.744 Q1734.03 498.487 1738.34 498.487 Q1743.51 498.487 1746.5 495.189 Q1749.52 491.89 1749.52 486.196 L1749.52 464.147 L1755.91 464.147 L1755.91 503.036 L1749.52 503.036 L1749.52 497.064 Q1747.19 500.605 1744.1 502.341 Q1741.05 504.043 1736.98 504.043 Q1730.28 504.043 1726.81 499.876 Q1723.34 495.709 1723.34 487.689 M1739.41 463.21 L1739.41 463.21 Z" fill="#000000" fill-rule="evenodd" fill-opacity="1" /><path clip-path="url(#clip580)" d="M1791.6 470.119 Q1790.52 469.494 1789.24 469.216 Q1787.99 468.904 1786.46 468.904 Q1781.05 468.904 1778.13 472.446 Q1775.25 475.953 1775.25 482.55 L1775.25 503.036 L1768.82 503.036 L1768.82 464.147 L1775.25 464.147 L1775.25 470.189 Q1777.26 466.647 1780.49 464.946 Q1783.72 463.21 1788.34 463.21 Q1789 463.21 1789.8 463.314 Q1790.59 463.383 1791.57 463.557 L1791.6 470.119 Z" fill="#000000" fill-rule="evenodd" fill-opacity="1" /><path clip-path="url(#clip580)" d="M1815.98 483.487 Q1808.23 483.487 1805.25 485.258 Q1802.26 487.029 1802.26 491.3 Q1802.26 494.702 1804.48 496.716 Q1806.74 498.695 1810.59 498.695 Q1815.91 498.695 1819.1 494.945 Q1822.33 491.161 1822.33 484.911 L1822.33 483.487 L1815.98 483.487 M1828.72 480.848 L1828.72 503.036 L1822.33 503.036 L1822.33 497.133 Q1820.14 500.675 1816.88 502.376 Q1813.61 504.043 1808.89 504.043 Q1802.92 504.043 1799.38 500.709 Q1795.87 497.341 1795.87 491.716 Q1795.87 485.154 1800.25 481.821 Q1804.66 478.487 1813.37 478.487 L1822.33 478.487 L1822.33 477.862 Q1822.33 473.453 1819.41 471.057 Q1816.53 468.626 1811.29 468.626 Q1807.96 468.626 1804.8 469.425 Q1801.64 470.223 1798.72 471.821 L1798.72 465.918 Q1802.23 464.564 1805.52 463.904 Q1808.82 463.21 1811.95 463.21 Q1820.39 463.21 1824.55 467.585 Q1828.72 471.959 1828.72 480.848 Z" fill="#000000" fill-rule="evenodd" fill-opacity="1" /><path clip-path="url(#clip580)" d="M1841.88 449.008 L1848.27 449.008 L1848.27 503.036 L1841.88 503.036 L1841.88 449.008 Z" fill="#000000" fill-rule="evenodd" fill-opacity="1" /><path clip-path="url(#clip580)" d="M1861.91 451.196 L1891.7 451.196 L1891.7 457.098 L1868.93 457.098 L1868.93 472.376 L1889.48 472.376 L1889.48 478.279 L1868.93 478.279 L1868.93 503.036 L1861.91 503.036 L1861.91 451.196 Z" fill="#000000" fill-rule="evenodd" fill-opacity="1" /><path clip-path="url(#clip580)" d="M1902.82 451.196 L1913.27 451.196 L1926.5 486.473 L1939.79 451.196 L1950.25 451.196 L1950.25 503.036 L1943.41 503.036 L1943.41 457.515 L1930.04 493.07 L1922.99 493.07 L1909.62 457.515 L1909.62 503.036 L1902.82 503.036 L1902.82 451.196 Z" fill="#000000" fill-rule="evenodd" fill-opacity="1" /><path clip-path="url(#clip580)" d="M1963.37 451.196 L1970.42 451.196 L1970.42 482.689 Q1970.42 491.022 1973.44 494.702 Q1976.46 498.348 1983.23 498.348 Q1989.97 498.348 1992.99 494.702 Q1996.01 491.022 1996.01 482.689 L1996.01 451.196 L2003.06 451.196 L2003.06 483.557 Q2003.06 493.695 1998.02 498.869 Q1993.02 504.043 1983.23 504.043 Q1973.41 504.043 1968.37 498.869 Q1963.37 493.695 1963.37 483.557 L1963.37 451.196 Z" fill="#000000" fill-rule="evenodd" fill-opacity="1" /><path clip-path="url(#clip580)" d="M2053.89 449.078 Q2049.24 457.064 2046.98 464.876 Q2044.72 472.689 2044.72 480.709 Q2044.72 488.73 2046.98 496.612 Q2049.27 504.459 2053.89 512.411 L2048.34 512.411 Q2043.13 504.251 2040.52 496.369 Q2037.95 488.487 2037.95 480.709 Q2037.95 472.966 2040.52 465.119 Q2043.09 457.272 2048.34 449.078 L2053.89 449.078 Z" fill="#000000" fill-rule="evenodd" fill-opacity="1" /><path clip-path="url(#clip580)" d="M2067.26 451.196 L2094.79 451.196 L2094.79 457.098 L2073.68 457.098 L2073.68 469.807 Q2075.21 469.286 2076.74 469.043 Q2078.27 468.765 2079.79 468.765 Q2088.47 468.765 2093.54 473.522 Q2098.61 478.279 2098.61 486.404 Q2098.61 494.772 2093.4 499.425 Q2088.2 504.043 2078.72 504.043 Q2075.45 504.043 2072.05 503.487 Q2068.68 502.932 2065.07 501.82 L2065.07 494.772 Q2068.2 496.473 2071.53 497.307 Q2074.86 498.14 2078.58 498.14 Q2084.59 498.14 2088.09 494.98 Q2091.6 491.82 2091.6 486.404 Q2091.6 480.987 2088.09 477.828 Q2084.59 474.668 2078.58 474.668 Q2075.77 474.668 2072.95 475.293 Q2070.18 475.918 2067.26 477.237 L2067.26 451.196 Z" fill="#000000" fill-rule="evenodd" fill-opacity="1" /><path clip-path="url(#clip580)" d="M2127.43 455.814 Q2122.02 455.814 2119.27 461.161 Q2116.56 466.473 2116.56 477.168 Q2116.56 487.827 2119.27 493.175 Q2122.02 498.487 2127.43 498.487 Q2132.88 498.487 2135.59 493.175 Q2138.34 487.827 2138.34 477.168 Q2138.34 466.473 2135.59 461.161 Q2132.88 455.814 2127.43 455.814 M2127.43 450.258 Q2136.15 450.258 2140.73 457.168 Q2145.35 464.043 2145.35 477.168 Q2145.35 490.258 2140.73 497.168 Q2136.15 504.043 2127.43 504.043 Q2118.72 504.043 2114.1 497.168 Q2109.52 490.258 2109.52 477.168 Q2109.52 464.043 2114.1 457.168 Q2118.72 450.258 2127.43 450.258 Z" fill="#000000" fill-rule="evenodd" fill-opacity="1" /><path clip-path="url(#clip580)" d="M2172.68 455.814 Q2167.26 455.814 2164.52 461.161 Q2161.81 466.473 2161.81 477.168 Q2161.81 487.827 2164.52 493.175 Q2167.26 498.487 2172.68 498.487 Q2178.13 498.487 2180.84 493.175 Q2183.58 487.827 2183.58 477.168 Q2183.58 466.473 2180.84 461.161 Q2178.13 455.814 2172.68 455.814 M2172.68 450.258 Q2181.39 450.258 2185.97 457.168 Q2190.59 464.043 2190.59 477.168 Q2190.59 490.258 2185.97 497.168 Q2181.39 504.043 2172.68 504.043 Q2163.96 504.043 2159.34 497.168 Q2154.76 490.258 2154.76 477.168 Q2154.76 464.043 2159.34 457.168 Q2163.96 450.258 2172.68 450.258 Z" fill="#000000" fill-rule="evenodd" fill-opacity="1" /><path clip-path="url(#clip580)" d="M2217.92 455.814 Q2212.5 455.814 2209.76 461.161 Q2207.05 466.473 2207.05 477.168 Q2207.05 487.827 2209.76 493.175 Q2212.5 498.487 2217.92 498.487 Q2223.37 498.487 2226.08 493.175 Q2228.82 487.827 2228.82 477.168 Q2228.82 466.473 2226.08 461.161 Q2223.37 455.814 2217.92 455.814 M2217.92 450.258 Q2226.63 450.258 2231.22 457.168 Q2235.83 464.043 2235.83 477.168 Q2235.83 490.258 2231.22 497.168 Q2226.63 504.043 2217.92 504.043 Q2209.2 504.043 2204.58 497.168 Q2200 490.258 2200 477.168 Q2200 464.043 2204.58 457.168 Q2209.2 450.258 2217.92 450.258 Z" fill="#000000" fill-rule="evenodd" fill-opacity="1" /><path clip-path="url(#clip580)" d="M2246.25 449.078 L2251.81 449.078 Q2257.02 457.272 2259.58 465.119 Q2262.19 472.966 2262.19 480.709 Q2262.19 488.487 2259.58 496.369 Q2257.02 504.251 2251.81 512.411 L2246.25 512.411 Q2250.87 504.459 2253.13 496.612 Q2255.42 488.73 2255.42 480.709 Q2255.42 472.689 2253.13 464.876 Q2250.87 457.064 2246.25 449.078 Z" fill="#000000" fill-rule="evenodd" fill-opacity="1" /></svg>
