<?xml version="1.0" encoding="utf-8"?>
<svg xmlns="http://www.w3.org/2000/svg" xmlns:xlink="http://www.w3.org/1999/xlink" width="600" height="400" viewBox="0 0 2400 1600">
<defs>
  <clipPath id="clip820">
    <rect x="0" y="0" width="2400" height="1600"/>
  </clipPath>
</defs>
<path clip-path="url(#clip820)" d="M0 1600 L2400 1600 L2400 0 L0 0  Z" fill="#ffffff" fill-rule="evenodd" fill-opacity="1"/>
<defs>
  <clipPath id="clip821">
    <rect x="480" y="0" width="1681" height="1600"/>
  </clipPath>
</defs>
<path clip-path="url(#clip820)" d="M313.156 1401.58 L2352.76 1401.58 L2352.76 123.472 L313.156 123.472  Z" fill="#ffffff" fill-rule="evenodd" fill-opacity="1"/>
<defs>
  <clipPath id="clip822">
    <rect x="313" y="123" width="2041" height="1279"/>
  </clipPath>
</defs>
<polyline clip-path="url(#clip822)" style="stroke:#000000; stroke-linecap:round; stroke-linejoin:round; stroke-width:2; stroke-opacity:0.1; fill:none" points="370.88,1401.58 370.88,123.472 "/>
<polyline clip-path="url(#clip822)" style="stroke:#000000; stroke-linecap:round; stroke-linejoin:round; stroke-width:2; stroke-opacity:0.1; fill:none" points="851.918,1401.58 851.918,123.472 "/>
<polyline clip-path="url(#clip822)" style="stroke:#000000; stroke-linecap:round; stroke-linejoin:round; stroke-width:2; stroke-opacity:0.1; fill:none" points="1332.96,1401.58 1332.96,123.472 "/>
<polyline clip-path="url(#clip822)" style="stroke:#000000; stroke-linecap:round; stroke-linejoin:round; stroke-width:2; stroke-opacity:0.1; fill:none" points="1813.99,1401.58 1813.99,123.472 "/>
<polyline clip-path="url(#clip822)" style="stroke:#000000; stroke-linecap:round; stroke-linejoin:round; stroke-width:2; stroke-opacity:0.1; fill:none" points="2295.03,1401.58 2295.03,123.472 "/>
<polyline clip-path="url(#clip820)" style="stroke:#000000; stroke-linecap:round; stroke-linejoin:round; stroke-width:4; stroke-opacity:1; fill:none" points="313.156,1401.58 2352.76,1401.58 "/>
<polyline clip-path="url(#clip820)" style="stroke:#000000; stroke-linecap:round; stroke-linejoin:round; stroke-width:4; stroke-opacity:1; fill:none" points="370.88,1401.58 370.88,1382.68 "/>
<polyline clip-path="url(#clip820)" style="stroke:#000000; stroke-linecap:round; stroke-linejoin:round; stroke-width:4; stroke-opacity:1; fill:none" points="851.918,1401.58 851.918,1382.68 "/>
<polyline clip-path="url(#clip820)" style="stroke:#000000; stroke-linecap:round; stroke-linejoin:round; stroke-width:4; stroke-opacity:1; fill:none" points="1332.96,1401.58 1332.96,1382.68 "/>
<polyline clip-path="url(#clip820)" style="stroke:#000000; stroke-linecap:round; stroke-linejoin:round; stroke-width:4; stroke-opacity:1; fill:none" points="1813.99,1401.58 1813.99,1382.68 "/>
<polyline clip-path="url(#clip820)" style="stroke:#000000; stroke-linecap:round; stroke-linejoin:round; stroke-width:4; stroke-opacity:1; fill:none" points="2295.03,1401.58 2295.03,1382.68 "/>
<path clip-path="url(#clip820)" d="M370.88 1438.36 Q365.464 1438.36 362.721 1443.71 Q360.012 1449.02 360.012 1459.71 Q360.012 1470.37 362.721 1475.72 Q365.464 1481.03 370.88 1481.03 Q376.332 1481.03 379.04 1475.72 Q381.783 1470.37 381.783 1459.71 Q381.783 1449.02 379.04 1443.71 Q376.332 1438.36 370.88 1438.36 M370.88 1432.8 Q379.595 1432.8 384.179 1439.71 Q388.797 1446.59 388.797 1459.71 Q388.797 1472.8 384.179 1479.71 Q379.595 1486.59 370.88 1486.59 Q362.165 1486.59 357.547 1479.71 Q352.964 1472.8 352.964 1459.71 Q352.964 1446.59 357.547 1439.71 Q362.165 1432.8 370.88 1432.8 Z" fill="#000000" fill-rule="nonzero" fill-opacity="1" /><path clip-path="url(#clip820)" d="M837.491 1479.68 L848.949 1479.68 L848.949 1440.13 L836.484 1442.63 L836.484 1436.24 L848.88 1433.74 L855.894 1433.74 L855.894 1479.68 L867.352 1479.68 L867.352 1485.58 L837.491 1485.58 L837.491 1479.68 Z" fill="#000000" fill-rule="nonzero" fill-opacity="1" /><path clip-path="url(#clip820)" d="M1324.94 1479.68 L1349.41 1479.68 L1349.41 1485.58 L1316.5 1485.58 L1316.5 1479.68 Q1320.49 1475.55 1327.37 1468.6 Q1334.28 1461.62 1336.05 1459.61 Q1339.41 1455.82 1340.73 1453.22 Q1342.09 1450.58 1342.09 1448.05 Q1342.09 1443.91 1339.17 1441.31 Q1336.29 1438.71 1331.64 1438.71 Q1328.34 1438.71 1324.66 1439.85 Q1321.01 1441 1316.84 1443.32 L1316.84 1436.24 Q1321.08 1434.54 1324.76 1433.67 Q1328.44 1432.8 1331.5 1432.8 Q1339.55 1432.8 1344.34 1436.83 Q1349.14 1440.86 1349.14 1447.59 Q1349.14 1450.79 1347.92 1453.67 Q1346.74 1456.52 1343.58 1460.41 Q1342.71 1461.41 1338.06 1466.24 Q1333.41 1471.03 1324.94 1479.68 Z" fill="#000000" fill-rule="nonzero" fill-opacity="1" /><path clip-path="url(#clip820)" d="M1820.37 1457.63 Q1825.4 1458.7 1828.21 1462.11 Q1831.06 1465.51 1831.06 1470.51 Q1831.06 1478.18 1825.78 1482.39 Q1820.5 1486.59 1810.78 1486.59 Q1807.52 1486.59 1804.05 1485.93 Q1800.61 1485.3 1796.93 1484.02 L1796.93 1477.25 Q1799.84 1478.95 1803.32 1479.82 Q1806.79 1480.68 1810.57 1480.68 Q1817.17 1480.68 1820.61 1478.08 Q1824.08 1475.48 1824.08 1470.51 Q1824.08 1465.93 1820.85 1463.36 Q1817.66 1460.75 1811.93 1460.75 L1805.89 1460.75 L1805.89 1454.99 L1812.21 1454.99 Q1817.38 1454.99 1820.12 1452.94 Q1822.87 1450.86 1822.87 1446.97 Q1822.87 1442.98 1820.02 1440.86 Q1817.21 1438.71 1811.93 1438.71 Q1809.05 1438.71 1805.75 1439.33 Q1802.45 1439.96 1798.49 1441.27 L1798.49 1435.02 Q1802.48 1433.91 1805.96 1433.36 Q1809.46 1432.8 1812.55 1432.8 Q1820.54 1432.8 1825.19 1436.45 Q1829.84 1440.06 1829.84 1446.24 Q1829.84 1450.55 1827.38 1453.53 Q1824.91 1456.48 1820.37 1457.63 Z" fill="#000000" fill-rule="nonzero" fill-opacity="1" /><path clip-path="url(#clip820)" d="M2299.55 1439.85 L2281.84 1467.52 L2299.55 1467.52 L2299.55 1439.85 M2297.7 1433.74 L2306.52 1433.74 L2306.52 1467.52 L2313.92 1467.52 L2313.92 1473.36 L2306.52 1473.36 L2306.52 1485.58 L2299.55 1485.58 L2299.55 1473.36 L2276.14 1473.36 L2276.14 1466.59 L2297.7 1433.74 Z" fill="#000000" fill-rule="nonzero" fill-opacity="1" /><path clip-path="url(#clip820)" d="M1276.57 1527.62 L1276.57 1538.66 L1289.73 1538.66 L1289.73 1543.62 L1276.57 1543.62 L1276.57 1564.74 Q1276.57 1569.49 1277.85 1570.85 Q1279.17 1572.2 1283.16 1572.2 L1289.73 1572.2 L1289.73 1577.55 L1283.16 1577.55 Q1275.77 1577.55 1272.96 1574.8 Q1270.14 1572.03 1270.14 1564.74 L1270.14 1543.62 L1265.46 1543.62 L1265.46 1538.66 L1270.14 1538.66 L1270.14 1527.62 L1276.57 1527.62 Z" fill="#000000" fill-rule="nonzero" fill-opacity="1" /><path clip-path="url(#clip820)" d="M1320.14 1523.52 L1334.87 1523.52 L1334.87 1528.49 L1326.53 1528.49 L1326.53 1581.96 L1334.87 1581.96 L1334.87 1586.92 L1320.14 1586.92 L1320.14 1523.52 Z" fill="#000000" fill-rule="nonzero" fill-opacity="1" /><path clip-path="url(#clip820)" d="M1373.27 1539.8 L1373.27 1545.85 Q1370.56 1544.46 1367.64 1543.76 Q1364.73 1543.07 1361.6 1543.07 Q1356.84 1543.07 1354.45 1544.53 Q1352.09 1545.99 1352.09 1548.9 Q1352.09 1551.12 1353.79 1552.41 Q1355.49 1553.66 1360.63 1554.8 L1362.82 1555.29 Q1369.62 1556.75 1372.47 1559.42 Q1375.35 1562.06 1375.35 1566.82 Q1375.35 1572.24 1371.05 1575.4 Q1366.78 1578.55 1359.28 1578.55 Q1356.15 1578.55 1352.75 1577.93 Q1349.38 1577.34 1345.63 1576.12 L1345.63 1569.53 Q1349.17 1571.37 1352.61 1572.3 Q1356.05 1573.21 1359.41 1573.21 Q1363.93 1573.21 1366.36 1571.68 Q1368.79 1570.12 1368.79 1567.3 Q1368.79 1564.7 1367.02 1563.31 Q1365.28 1561.92 1359.34 1560.64 L1357.12 1560.12 Q1351.18 1558.87 1348.55 1556.3 Q1345.91 1553.69 1345.91 1549.18 Q1345.91 1543.69 1349.8 1540.71 Q1353.68 1537.72 1360.84 1537.72 Q1364.38 1537.72 1367.5 1538.24 Q1370.63 1538.76 1373.27 1539.8 Z" fill="#000000" fill-rule="nonzero" fill-opacity="1" /><path clip-path="url(#clip820)" d="M1400.46 1523.52 L1400.46 1586.92 L1385.73 1586.92 L1385.73 1581.96 L1394.03 1581.96 L1394.03 1528.49 L1385.73 1528.49 L1385.73 1523.52 L1400.46 1523.52 Z" fill="#000000" fill-rule="nonzero" fill-opacity="1" /><polyline clip-path="url(#clip822)" style="stroke:#000000; stroke-linecap:round; stroke-linejoin:round; stroke-width:2; stroke-opacity:0.1; fill:none" points="313.156,1106.53 2352.76,1106.53 "/>
<polyline clip-path="url(#clip822)" style="stroke:#000000; stroke-linecap:round; stroke-linejoin:round; stroke-width:2; stroke-opacity:0.1; fill:none" points="313.156,790.9 2352.76,790.9 "/>
<polyline clip-path="url(#clip822)" style="stroke:#000000; stroke-linecap:round; stroke-linejoin:round; stroke-width:2; stroke-opacity:0.1; fill:none" points="313.156,475.273 2352.76,475.273 "/>
<polyline clip-path="url(#clip822)" style="stroke:#000000; stroke-linecap:round; stroke-linejoin:round; stroke-width:2; stroke-opacity:0.1; fill:none" points="313.156,159.645 2352.76,159.645 "/>
<polyline clip-path="url(#clip820)" style="stroke:#000000; stroke-linecap:round; stroke-linejoin:round; stroke-width:4; stroke-opacity:1; fill:none" points="313.156,1401.58 313.156,123.472 "/>
<polyline clip-path="url(#clip820)" style="stroke:#000000; stroke-linecap:round; stroke-linejoin:round; stroke-width:4; stroke-opacity:1; fill:none" points="313.156,1106.53 332.053,1106.53 "/>
<polyline clip-path="url(#clip820)" style="stroke:#000000; stroke-linecap:round; stroke-linejoin:round; stroke-width:4; stroke-opacity:1; fill:none" points="313.156,790.9 332.053,790.9 "/>
<polyline clip-path="url(#clip820)" style="stroke:#000000; stroke-linecap:round; stroke-linejoin:round; stroke-width:4; stroke-opacity:1; fill:none" points="313.156,475.273 332.053,475.273 "/>
<polyline clip-path="url(#clip820)" style="stroke:#000000; stroke-linecap:round; stroke-linejoin:round; stroke-width:4; stroke-opacity:1; fill:none" points="313.156,159.645 332.053,159.645 "/>
<path clip-path="url(#clip820)" d="M119.136 1107.21 L163.649 1107.21 L163.649 1113.11 L119.136 1113.11 L119.136 1107.21 Z" fill="#000000" fill-rule="nonzero" fill-opacity="1" /><path clip-path="url(#clip820)" d="M193.788 1085.23 Q188.371 1085.23 185.628 1090.57 Q182.92 1095.89 182.92 1106.58 Q182.92 1117.24 185.628 1122.59 Q188.371 1127.9 193.788 1127.9 Q199.239 1127.9 201.948 1122.59 Q204.691 1117.24 204.691 1106.58 Q204.691 1095.89 201.948 1090.57 Q199.239 1085.23 193.788 1085.23 M193.788 1079.67 Q202.503 1079.67 207.087 1086.58 Q211.705 1093.46 211.705 1106.58 Q211.705 1119.67 207.087 1126.58 Q202.503 1133.45 193.788 1133.45 Q185.073 1133.45 180.455 1126.58 Q175.872 1119.67 175.872 1106.58 Q175.872 1093.46 180.455 1086.58 Q185.073 1079.67 193.788 1079.67 Z" fill="#000000" fill-rule="nonzero" fill-opacity="1" /><path clip-path="url(#clip820)" d="M224.031 1123.63 L231.357 1123.63 L231.357 1132.45 L224.031 1132.45 L224.031 1123.63 Z" fill="#000000" fill-rule="nonzero" fill-opacity="1" /><path clip-path="url(#clip820)" d="M252.677 1126.55 L277.156 1126.55 L277.156 1132.45 L244.239 1132.45 L244.239 1126.55 Q248.232 1122.41 255.107 1115.47 Q262.017 1108.49 263.788 1106.48 Q267.156 1102.69 268.475 1100.09 Q269.829 1097.45 269.829 1094.91 Q269.829 1090.78 266.913 1088.18 Q264.031 1085.57 259.378 1085.57 Q256.079 1085.57 252.399 1086.72 Q248.753 1087.86 244.586 1090.19 L244.586 1083.11 Q248.823 1081.41 252.503 1080.54 Q256.184 1079.67 259.239 1079.67 Q267.295 1079.67 272.086 1083.7 Q276.878 1087.73 276.878 1094.46 Q276.878 1097.66 275.663 1100.54 Q274.482 1103.39 271.322 1107.27 Q270.454 1108.28 265.802 1113.11 Q261.149 1117.9 252.677 1126.55 Z" fill="#000000" fill-rule="nonzero" fill-opacity="1" /><path clip-path="url(#clip820)" d="M118.58 791.577 L163.094 791.577 L163.094 797.48 L118.58 797.48 L118.58 791.577 Z" fill="#000000" fill-rule="nonzero" fill-opacity="1" /><path clip-path="url(#clip820)" d="M193.233 769.598 Q187.816 769.598 185.073 774.946 Q182.365 780.258 182.365 790.952 Q182.365 801.612 185.073 806.959 Q187.816 812.272 193.233 812.272 Q198.684 812.272 201.392 806.959 Q204.135 801.612 204.135 790.952 Q204.135 780.258 201.392 774.946 Q198.684 769.598 193.233 769.598 M193.233 764.043 Q201.948 764.043 206.531 770.952 Q211.149 777.827 211.149 790.952 Q211.149 804.043 206.531 810.952 Q201.948 817.827 193.233 817.827 Q184.517 817.827 179.899 810.952 Q175.316 804.043 175.316 790.952 Q175.316 777.827 179.899 770.952 Q184.517 764.043 193.233 764.043 Z" fill="#000000" fill-rule="nonzero" fill-opacity="1" /><path clip-path="url(#clip820)" d="M223.475 808.001 L230.802 808.001 L230.802 816.82 L223.475 816.82 L223.475 808.001 Z" fill="#000000" fill-rule="nonzero" fill-opacity="1" /><path clip-path="url(#clip820)" d="M247.295 810.918 L258.753 810.918 L258.753 771.369 L246.288 773.869 L246.288 767.48 L258.684 764.98 L265.697 764.98 L265.697 810.918 L277.156 810.918 L277.156 816.82 L247.295 816.82 L247.295 810.918 Z" fill="#000000" fill-rule="nonzero" fill-opacity="1" /><path clip-path="url(#clip820)" d="M191.392 453.971 Q185.976 453.971 183.233 459.318 Q180.524 464.63 180.524 475.325 Q180.524 485.984 183.233 491.332 Q185.976 496.644 191.392 496.644 Q196.844 496.644 199.552 491.332 Q202.295 485.984 202.295 475.325 Q202.295 464.63 199.552 459.318 Q196.844 453.971 191.392 453.971 M191.392 448.415 Q200.107 448.415 204.691 455.325 Q209.309 462.2 209.309 475.325 Q209.309 488.415 204.691 495.325 Q200.107 502.2 191.392 502.2 Q182.677 502.2 178.059 495.325 Q173.476 488.415 173.476 475.325 Q173.476 462.2 178.059 455.325 Q182.677 448.415 191.392 448.415 Z" fill="#000000" fill-rule="nonzero" fill-opacity="1" /><path clip-path="url(#clip820)" d="M221.635 492.373 L228.962 492.373 L228.962 501.193 L221.635 501.193 L221.635 492.373 Z" fill="#000000" fill-rule="nonzero" fill-opacity="1" /><path clip-path="url(#clip820)" d="M259.239 453.971 Q253.822 453.971 251.079 459.318 Q248.371 464.63 248.371 475.325 Q248.371 485.984 251.079 491.332 Q253.822 496.644 259.239 496.644 Q264.69 496.644 267.399 491.332 Q270.142 485.984 270.142 475.325 Q270.142 464.63 267.399 459.318 Q264.69 453.971 259.239 453.971 M259.239 448.415 Q267.954 448.415 272.538 455.325 Q277.156 462.2 277.156 475.325 Q277.156 488.415 272.538 495.325 Q267.954 502.2 259.239 502.2 Q250.524 502.2 245.906 495.325 Q241.323 488.415 241.323 475.325 Q241.323 462.2 245.906 455.325 Q250.524 448.415 259.239 448.415 Z" fill="#000000" fill-rule="nonzero" fill-opacity="1" /><path clip-path="url(#clip820)" d="M193.233 138.343 Q187.816 138.343 185.073 143.69 Q182.365 149.003 182.365 159.697 Q182.365 170.357 185.073 175.704 Q187.816 181.016 193.233 181.016 Q198.684 181.016 201.392 175.704 Q204.135 170.357 204.135 159.697 Q204.135 149.003 201.392 143.69 Q198.684 138.343 193.233 138.343 M193.233 132.787 Q201.948 132.787 206.531 139.697 Q211.149 146.572 211.149 159.697 Q211.149 172.787 206.531 179.697 Q201.948 186.572 193.233 186.572 Q184.517 186.572 179.899 179.697 Q175.316 172.787 175.316 159.697 Q175.316 146.572 179.899 139.697 Q184.517 132.787 193.233 132.787 Z" fill="#000000" fill-rule="nonzero" fill-opacity="1" /><path clip-path="url(#clip820)" d="M223.475 176.746 L230.802 176.746 L230.802 185.565 L223.475 185.565 L223.475 176.746 Z" fill="#000000" fill-rule="nonzero" fill-opacity="1" /><path clip-path="url(#clip820)" d="M247.295 179.662 L258.753 179.662 L258.753 140.114 L246.288 142.614 L246.288 136.225 L258.684 133.725 L265.697 133.725 L265.697 179.662 L277.156 179.662 L277.156 185.565 L247.295 185.565 L247.295 179.662 Z" fill="#000000" fill-rule="nonzero" fill-opacity="1" /><path clip-path="url(#clip820)" d="M34.0422 1042.44 L13.0007 1042.44 L13.0007 1036.05 L67.0282 1036.05 L67.0282 1042.44 L61.1949 1042.44 Q64.6671 1044.45 66.3684 1047.54 Q68.0351 1050.6 68.0351 1054.9 Q68.0351 1061.95 62.4101 1066.4 Q56.7852 1070.81 47.6185 1070.81 Q38.4519 1070.81 32.827 1066.4 Q27.202 1061.95 27.202 1054.9 Q27.202 1050.6 28.9034 1047.54 Q30.57 1044.45 34.0422 1042.44 M47.6185 1064.21 Q54.6671 1064.21 58.6949 1061.33 Q62.6879 1058.41 62.6879 1053.34 Q62.6879 1048.27 58.6949 1045.35 Q54.6671 1042.44 47.6185 1042.44 Q40.57 1042.44 36.5769 1045.35 Q32.5492 1048.27 32.5492 1053.34 Q32.5492 1058.41 36.5769 1061.33 Q40.57 1064.21 47.6185 1064.21 Z" fill="#000000" fill-rule="nonzero" fill-opacity="1" /><path clip-path="url(#clip820)" d="M28.1395 1022.89 L28.1395 1016.5 L67.0282 1016.5 L67.0282 1022.89 L28.1395 1022.89 M13.0007 1022.89 L13.0007 1016.5 L21.0909 1016.5 L21.0909 1022.89 L13.0007 1022.89 Z" fill="#000000" fill-rule="nonzero" fill-opacity="1" /><path clip-path="url(#clip820)" d="M29.2853 978.341 L35.3269 978.341 Q33.9381 981.049 33.2436 983.966 Q32.5492 986.882 32.5492 990.007 Q32.5492 994.764 34.0075 997.16 Q35.4658 999.521 38.3825 999.521 Q40.6047 999.521 41.8894 997.82 Q43.1394 996.118 44.2852 990.98 L44.7713 988.792 Q46.2297 981.987 48.9033 979.139 Q51.5421 976.257 56.299 976.257 Q61.7157 976.257 64.8754 980.563 Q68.0351 984.834 68.0351 992.334 Q68.0351 995.459 67.4101 998.862 Q66.8198 1002.23 65.6046 1005.98 L59.0074 1005.98 Q60.8476 1002.44 61.7851 999 Q62.6879 995.563 62.6879 992.195 Q62.6879 987.681 61.1601 985.25 Q59.5976 982.82 56.7852 982.82 Q54.181 982.82 52.7921 984.591 Q51.4032 986.327 50.1185 992.264 L49.5977 994.487 Q48.3477 1000.42 45.7783 1003.06 Q43.1741 1005.7 38.6603 1005.7 Q33.1742 1005.7 30.1881 1001.81 Q27.202 997.924 27.202 990.771 Q27.202 987.23 27.7228 984.105 Q28.2436 980.98 29.2853 978.341 Z" fill="#000000" fill-rule="nonzero" fill-opacity="1" /><path clip-path="url(#clip820)" d="M61.1949 959.903 L81.8197 959.903 L81.8197 966.327 L28.1395 966.327 L28.1395 959.903 L34.0422 959.903 Q30.57 957.89 28.9034 954.834 Q27.202 951.744 27.202 947.473 Q27.202 940.39 32.827 935.98 Q38.4519 931.535 47.6185 931.535 Q56.7852 931.535 62.4101 935.98 Q68.0351 940.39 68.0351 947.473 Q68.0351 951.744 66.3684 954.834 Q64.6671 957.89 61.1949 959.903 M47.6185 938.167 Q40.57 938.167 36.5769 941.084 Q32.5492 943.966 32.5492 949.035 Q32.5492 954.105 36.5769 957.021 Q40.57 959.903 47.6185 959.903 Q54.6671 959.903 58.6949 957.021 Q62.6879 954.105 62.6879 949.035 Q62.6879 943.966 58.6949 941.084 Q54.6671 938.167 47.6185 938.167 Z" fill="#000000" fill-rule="nonzero" fill-opacity="1" /><path clip-path="url(#clip820)" d="M13.0007 920.945 L13.0007 914.556 L67.0282 914.556 L67.0282 920.945 L13.0007 920.945 Z" fill="#000000" fill-rule="nonzero" fill-opacity="1" /><path clip-path="url(#clip820)" d="M47.4797 883.515 Q47.4797 891.258 49.2505 894.244 Q51.0213 897.23 55.2921 897.23 Q58.6949 897.23 60.7087 895.008 Q62.6879 892.751 62.6879 888.897 Q62.6879 883.584 58.9379 880.39 Q55.1532 877.161 48.9033 877.161 L47.4797 877.161 L47.4797 883.515 M44.8408 870.772 L67.0282 870.772 L67.0282 877.161 L61.1254 877.161 Q64.6671 879.348 66.3684 882.612 Q68.0351 885.876 68.0351 890.598 Q68.0351 896.57 64.7018 900.112 Q61.3337 903.619 55.7088 903.619 Q49.1463 903.619 45.813 899.244 Q42.4797 894.834 42.4797 886.119 L42.4797 877.161 L41.8547 877.161 Q37.445 877.161 35.0492 880.077 Q32.6186 882.959 32.6186 888.202 Q32.6186 891.536 33.4172 894.695 Q34.2158 897.855 35.813 900.772 L29.9103 900.772 Q28.5561 897.265 27.8964 893.966 Q27.202 890.668 27.202 887.543 Q27.202 879.105 31.577 874.939 Q35.9519 870.772 44.8408 870.772 Z" fill="#000000" fill-rule="nonzero" fill-opacity="1" /><path clip-path="url(#clip820)" d="M29.6325 829.626 L35.6047 829.626 Q34.1117 832.335 33.3825 835.078 Q32.6186 837.786 32.6186 840.564 Q32.6186 846.779 36.5769 850.216 Q40.5005 853.654 47.6185 853.654 Q54.7366 853.654 58.6949 850.216 Q62.6185 846.779 62.6185 840.564 Q62.6185 837.786 61.8893 835.078 Q61.1254 832.335 59.6324 829.626 L65.5351 829.626 Q66.7851 832.3 67.4101 835.182 Q68.0351 838.029 68.0351 841.258 Q68.0351 850.043 62.5143 855.216 Q56.9935 860.39 47.6185 860.39 Q38.1047 860.39 32.6533 855.182 Q27.202 849.939 27.202 840.842 Q27.202 837.89 27.827 835.078 Q28.4173 832.265 29.6325 829.626 Z" fill="#000000" fill-rule="nonzero" fill-opacity="1" /><path clip-path="url(#clip820)" d="M45.9866 785.252 L49.1116 785.252 L49.1116 814.626 Q55.7088 814.21 59.181 810.668 Q62.6185 807.092 62.6185 800.738 Q62.6185 797.057 61.7157 793.62 Q60.8129 790.147 59.0074 786.745 L65.049 786.745 Q66.5073 790.182 67.2712 793.793 Q68.0351 797.404 68.0351 801.12 Q68.0351 810.425 62.6185 815.876 Q57.2018 821.293 47.9658 821.293 Q38.4172 821.293 32.827 816.154 Q27.202 810.981 27.202 802.231 Q27.202 794.383 32.2714 789.835 Q37.3061 785.252 45.9866 785.252 M44.1116 791.64 Q38.8686 791.71 35.7436 794.592 Q32.6186 797.439 32.6186 802.161 Q32.6186 807.508 35.6394 810.738 Q38.6603 813.932 44.1463 814.418 L44.1116 791.64 Z" fill="#000000" fill-rule="nonzero" fill-opacity="1" /><path clip-path="url(#clip820)" d="M35.6047 744.488 Q31.2992 742.092 29.2506 738.759 Q27.202 735.425 27.202 730.912 Q27.202 724.835 31.4728 721.537 Q35.7089 718.238 43.5561 718.238 L67.0282 718.238 L67.0282 724.662 L43.7644 724.662 Q38.1741 724.662 35.4658 726.641 Q32.7575 728.62 32.7575 732.682 Q32.7575 737.648 36.0561 740.53 Q39.3547 743.412 45.0491 743.412 L67.0282 743.412 L67.0282 749.835 L43.7644 749.835 Q38.1394 749.835 35.4658 751.814 Q32.7575 753.793 32.7575 757.925 Q32.7575 762.821 36.0908 765.703 Q39.3894 768.585 45.0491 768.585 L67.0282 768.585 L67.0282 775.009 L28.1395 775.009 L28.1395 768.585 L34.1811 768.585 Q30.6047 766.397 28.9034 763.342 Q27.202 760.286 27.202 756.085 Q27.202 751.849 29.3547 748.898 Q31.5075 745.911 35.6047 744.488 Z" fill="#000000" fill-rule="nonzero" fill-opacity="1" /><path clip-path="url(#clip820)" d="M45.9866 672.231 L49.1116 672.231 L49.1116 701.606 Q55.7088 701.19 59.181 697.648 Q62.6185 694.071 62.6185 687.717 Q62.6185 684.037 61.7157 680.599 Q60.8129 677.127 59.0074 673.724 L65.049 673.724 Q66.5073 677.162 67.2712 680.773 Q68.0351 684.384 68.0351 688.099 Q68.0351 697.405 62.6185 702.856 Q57.2018 708.273 47.9658 708.273 Q38.4172 708.273 32.827 703.134 Q27.202 697.96 27.202 689.21 Q27.202 681.363 32.2714 676.815 Q37.3061 672.231 45.9866 672.231 M44.1116 678.62 Q38.8686 678.69 35.7436 681.572 Q32.6186 684.419 32.6186 689.141 Q32.6186 694.488 35.6394 697.717 Q38.6603 700.912 44.1463 701.398 L44.1116 678.62 Z" fill="#000000" fill-rule="nonzero" fill-opacity="1" /><path clip-path="url(#clip820)" d="M43.5561 629.419 L67.0282 629.419 L67.0282 635.808 L43.7644 635.808 Q38.2436 635.808 35.5005 637.961 Q32.7575 640.113 32.7575 644.419 Q32.7575 649.593 36.0561 652.579 Q39.3547 655.565 45.0491 655.565 L67.0282 655.565 L67.0282 661.988 L28.1395 661.988 L28.1395 655.565 L34.1811 655.565 Q30.6742 653.273 28.9381 650.183 Q27.202 647.058 27.202 642.995 Q27.202 636.294 31.3686 632.857 Q35.5005 629.419 43.5561 629.419 Z" fill="#000000" fill-rule="nonzero" fill-opacity="1" /><path clip-path="url(#clip820)" d="M17.0979 610.357 L28.1395 610.357 L28.1395 597.197 L33.1047 597.197 L33.1047 610.357 L54.2157 610.357 Q58.9726 610.357 60.3268 609.072 Q61.681 607.753 61.681 603.759 L61.681 597.197 L67.0282 597.197 L67.0282 603.759 Q67.0282 611.155 64.2851 613.968 Q61.5074 616.78 54.2157 616.78 L33.1047 616.78 L33.1047 621.468 L28.1395 621.468 L28.1395 616.78 L17.0979 616.78 L17.0979 610.357 Z" fill="#000000" fill-rule="nonzero" fill-opacity="1" /><path clip-path="url(#clip820)" d="M13.0007 566.781 L13.0007 552.058 L17.9659 552.058 L17.9659 560.392 L71.4379 560.392 L71.4379 552.058 L76.4031 552.058 L76.4031 566.781 L13.0007 566.781 Z" fill="#000000" fill-rule="nonzero" fill-opacity="1" /><path clip-path="url(#clip820)" d="M35.6047 508.17 Q31.2992 505.774 29.2506 502.441 Q27.202 499.107 27.202 494.593 Q27.202 488.517 31.4728 485.218 Q35.7089 481.92 43.5561 481.92 L67.0282 481.92 L67.0282 488.343 L43.7644 488.343 Q38.1741 488.343 35.4658 490.323 Q32.7575 492.302 32.7575 496.364 Q32.7575 501.329 36.0561 504.211 Q39.3547 507.093 45.0491 507.093 L67.0282 507.093 L67.0282 513.517 L43.7644 513.517 Q38.1394 513.517 35.4658 515.496 Q32.7575 517.475 32.7575 521.607 Q32.7575 526.503 36.0908 529.385 Q39.3894 532.267 45.0491 532.267 L67.0282 532.267 L67.0282 538.69 L28.1395 538.69 L28.1395 532.267 L34.1811 532.267 Q30.6047 530.079 28.9034 527.024 Q27.202 523.968 27.202 519.767 Q27.202 515.531 29.3547 512.579 Q31.5075 509.593 35.6047 508.17 Z" fill="#000000" fill-rule="nonzero" fill-opacity="1" /><path clip-path="url(#clip820)" d="M13.0007 454.246 L76.4031 454.246 L76.4031 468.969 L71.4379 468.969 L71.4379 460.67 L17.9659 460.67 L17.9659 468.969 L13.0007 468.969 L13.0007 454.246 Z" fill="#000000" fill-rule="nonzero" fill-opacity="1" /><path clip-path="url(#clip820)" d="M881.948 18.8205 L881.948 65.8515 L891.833 65.8515 Q904.35 65.8515 910.143 60.1802 Q915.976 54.509 915.976 42.2752 Q915.976 30.1225 910.143 24.4918 Q904.35 18.8205 891.833 18.8205 L881.948 18.8205 M873.766 12.096 L890.577 12.096 Q908.158 12.096 916.381 19.4281 Q924.604 26.7198 924.604 42.2752 Q924.604 57.9117 916.341 65.2439 Q908.077 72.576 890.577 72.576 L873.766 72.576 L873.766 12.096 Z" fill="#000000" fill-rule="nonzero" fill-opacity="1" /><path clip-path="url(#clip820)" d="M937.324 27.2059 L944.778 27.2059 L944.778 72.576 L937.324 72.576 L937.324 27.2059 M937.324 9.54393 L944.778 9.54393 L944.778 18.9825 L937.324 18.9825 L937.324 9.54393 Z" fill="#000000" fill-rule="nonzero" fill-opacity="1" /><path clip-path="url(#clip820)" d="M989.297 28.5427 L989.297 35.5912 Q986.138 33.9709 982.735 33.1607 Q979.332 32.3505 975.686 32.3505 Q970.137 32.3505 967.341 34.0519 Q964.587 35.7533 964.587 39.156 Q964.587 41.7486 966.572 43.2475 Q968.557 44.7058 974.552 46.0426 L977.104 46.6097 Q985.044 48.3111 988.366 51.4303 Q991.728 54.509 991.728 60.0587 Q991.728 66.3781 986.705 70.0644 Q981.722 73.7508 972.972 73.7508 Q969.326 73.7508 965.356 73.0216 Q961.427 72.3329 957.052 70.9151 L957.052 63.2184 Q961.184 65.3654 965.194 66.4591 Q969.205 67.5124 973.134 67.5124 Q978.4 67.5124 981.236 65.73 Q984.072 63.9071 984.072 60.6258 Q984.072 57.5877 982.006 55.9673 Q979.98 54.3469 973.053 52.8481 L970.461 52.2405 Q963.534 50.7821 960.455 47.7845 Q957.376 44.7463 957.376 39.4801 Q957.376 33.0797 961.913 29.5959 Q966.45 26.1121 974.795 26.1121 Q978.927 26.1121 982.573 26.7198 Q986.219 27.3274 989.297 28.5427 Z" fill="#000000" fill-rule="nonzero" fill-opacity="1" /><path clip-path="url(#clip820)" d="M1010.81 65.7705 L1010.81 89.8329 L1003.31 89.8329 L1003.31 27.2059 L1010.81 27.2059 L1010.81 34.0924 Q1013.16 30.0415 1016.72 28.0971 Q1020.33 26.1121 1025.31 26.1121 Q1033.57 26.1121 1038.72 32.6746 Q1043.9 39.2371 1043.9 49.9314 Q1043.9 60.6258 1038.72 67.1883 Q1033.57 73.7508 1025.31 73.7508 Q1020.33 73.7508 1016.72 71.8063 Q1013.16 69.8214 1010.81 65.7705 M1036.17 49.9314 Q1036.17 41.7081 1032.76 37.0496 Q1029.4 32.3505 1023.49 32.3505 Q1017.57 32.3505 1014.17 37.0496 Q1010.81 41.7081 1010.81 49.9314 Q1010.81 58.1548 1014.17 62.8538 Q1017.57 67.5124 1023.49 67.5124 Q1029.4 67.5124 1032.76 62.8538 Q1036.17 58.1548 1036.17 49.9314 Z" fill="#000000" fill-rule="nonzero" fill-opacity="1" /><path clip-path="url(#clip820)" d="M1056.26 9.54393 L1063.71 9.54393 L1063.71 72.576 L1056.26 72.576 L1056.26 9.54393 Z" fill="#000000" fill-rule="nonzero" fill-opacity="1" /><path clip-path="url(#clip820)" d="M1099.93 49.7694 Q1090.89 49.7694 1087.41 51.8354 Q1083.93 53.9013 1083.93 58.8839 Q1083.93 62.8538 1086.52 65.2034 Q1089.15 67.5124 1093.65 67.5124 Q1099.85 67.5124 1103.57 63.1374 Q1107.34 58.7219 1107.34 51.4303 L1107.34 49.7694 L1099.93 49.7694 M1114.79 46.6907 L1114.79 72.576 L1107.34 72.576 L1107.34 65.6895 Q1104.79 69.8214 1100.98 71.8063 Q1097.17 73.7508 1091.66 73.7508 Q1084.7 73.7508 1080.56 69.8619 Q1076.47 65.9325 1076.47 59.3701 Q1076.47 51.7138 1081.58 47.825 Q1086.72 43.9361 1096.89 43.9361 L1107.34 43.9361 L1107.34 43.2069 Q1107.34 38.0623 1103.94 35.2672 Q1100.58 32.4315 1094.46 32.4315 Q1090.57 32.4315 1086.88 33.3632 Q1083.2 34.295 1079.79 36.1584 L1079.79 29.2718 Q1083.89 27.692 1087.73 26.9223 Q1091.58 26.1121 1095.23 26.1121 Q1105.07 26.1121 1109.93 31.2163 Q1114.79 36.3204 1114.79 46.6907 Z" fill="#000000" fill-rule="nonzero" fill-opacity="1" /><path clip-path="url(#clip820)" d="M1162.8 28.9478 L1162.8 35.9153 Q1159.64 34.1734 1156.44 33.3227 Q1153.28 32.4315 1150.04 32.4315 Q1142.79 32.4315 1138.78 37.0496 Q1134.77 41.6271 1134.77 49.9314 Q1134.77 58.2358 1138.78 62.8538 Q1142.79 67.4314 1150.04 67.4314 Q1153.28 67.4314 1156.44 66.5807 Q1159.64 65.6895 1162.8 63.9476 L1162.8 70.8341 Q1159.68 72.2924 1156.32 73.0216 Q1152.99 73.7508 1149.23 73.7508 Q1138.98 73.7508 1132.94 67.3098 Q1126.91 60.8689 1126.91 49.9314 Q1126.91 38.832 1132.98 32.472 Q1139.1 26.1121 1149.71 26.1121 Q1153.16 26.1121 1156.44 26.8413 Q1159.72 27.5299 1162.8 28.9478 Z" fill="#000000" fill-rule="nonzero" fill-opacity="1" /><path clip-path="url(#clip820)" d="M1214.57 48.0275 L1214.57 51.6733 L1180.3 51.6733 Q1180.78 59.3701 1184.92 63.421 Q1189.09 67.4314 1196.5 67.4314 Q1200.8 67.4314 1204.81 66.3781 Q1208.86 65.3249 1212.83 63.2184 L1212.83 70.267 Q1208.82 71.9684 1204.6 72.8596 Q1200.39 73.7508 1196.06 73.7508 Q1185.2 73.7508 1178.84 67.4314 Q1172.52 61.1119 1172.52 50.3365 Q1172.52 39.1965 1178.52 32.6746 Q1184.55 26.1121 1194.76 26.1121 Q1203.91 26.1121 1209.22 32.0264 Q1214.57 37.9003 1214.57 48.0275 M1207.11 45.84 Q1207.03 39.7232 1203.67 36.0774 Q1200.35 32.4315 1194.84 32.4315 Q1188.6 32.4315 1184.83 35.9558 Q1181.11 39.4801 1180.54 45.8805 L1207.11 45.84 Z" fill="#000000" fill-rule="nonzero" fill-opacity="1" /><path clip-path="url(#clip820)" d="M1262.13 35.9153 Q1264.92 30.8922 1268.81 28.5022 Q1272.7 26.1121 1277.96 26.1121 Q1285.05 26.1121 1288.9 31.0947 Q1292.75 36.0368 1292.75 45.1919 L1292.75 72.576 L1285.26 72.576 L1285.26 45.4349 Q1285.26 38.913 1282.95 35.7533 Q1280.64 32.5936 1275.9 32.5936 Q1270.11 32.5936 1266.74 36.4419 Q1263.38 40.2903 1263.38 46.9338 L1263.38 72.576 L1255.89 72.576 L1255.89 45.4349 Q1255.89 38.8725 1253.58 35.7533 Q1251.27 32.5936 1246.45 32.5936 Q1240.74 32.5936 1237.37 36.4824 Q1234.01 40.3308 1234.01 46.9338 L1234.01 72.576 L1226.52 72.576 L1226.52 27.2059 L1234.01 27.2059 L1234.01 34.2544 Q1236.56 30.082 1240.13 28.0971 Q1243.69 26.1121 1248.6 26.1121 Q1253.54 26.1121 1256.98 28.6237 Q1260.46 31.1352 1262.13 35.9153 Z" fill="#000000" fill-rule="nonzero" fill-opacity="1" /><path clip-path="url(#clip820)" d="M1346.43 48.0275 L1346.43 51.6733 L1312.15 51.6733 Q1312.64 59.3701 1316.77 63.421 Q1320.94 67.4314 1328.36 67.4314 Q1332.65 67.4314 1336.66 66.3781 Q1340.71 65.3249 1344.68 63.2184 L1344.68 70.267 Q1340.67 71.9684 1336.46 72.8596 Q1332.25 73.7508 1327.91 73.7508 Q1317.06 73.7508 1310.7 67.4314 Q1304.38 61.1119 1304.38 50.3365 Q1304.38 39.1965 1310.37 32.6746 Q1316.41 26.1121 1326.62 26.1121 Q1335.77 26.1121 1341.08 32.0264 Q1346.43 37.9003 1346.43 48.0275 M1338.97 45.84 Q1338.89 39.7232 1335.53 36.0774 Q1332.21 32.4315 1326.7 32.4315 Q1320.46 32.4315 1316.69 35.9558 Q1312.96 39.4801 1312.4 45.8805 L1338.97 45.84 Z" fill="#000000" fill-rule="nonzero" fill-opacity="1" /><path clip-path="url(#clip820)" d="M1396.37 45.1919 L1396.37 72.576 L1388.92 72.576 L1388.92 45.4349 Q1388.92 38.994 1386.41 35.7938 Q1383.9 32.5936 1378.87 32.5936 Q1372.84 32.5936 1369.35 36.4419 Q1365.87 40.2903 1365.87 46.9338 L1365.87 72.576 L1358.38 72.576 L1358.38 27.2059 L1365.87 27.2059 L1365.87 34.2544 Q1368.54 30.163 1372.15 28.1376 Q1375.79 26.1121 1380.53 26.1121 Q1388.35 26.1121 1392.36 30.9732 Q1396.37 35.7938 1396.37 45.1919 Z" fill="#000000" fill-rule="nonzero" fill-opacity="1" /><path clip-path="url(#clip820)" d="M1418.61 14.324 L1418.61 27.2059 L1433.97 27.2059 L1433.97 32.9987 L1418.61 32.9987 L1418.61 57.6282 Q1418.61 63.1779 1420.11 64.7578 Q1421.65 66.3376 1426.31 66.3376 L1433.97 66.3376 L1433.97 72.576 L1426.31 72.576 Q1417.68 72.576 1414.4 69.3758 Q1411.12 66.1351 1411.12 57.6282 L1411.12 32.9987 L1405.65 32.9987 L1405.65 27.2059 L1411.12 27.2059 L1411.12 14.324 L1418.61 14.324 Z" fill="#000000" fill-rule="nonzero" fill-opacity="1" /><path clip-path="url(#clip820)" d="M1505.46 35.9153 Q1508.26 30.8922 1512.15 28.5022 Q1516.04 26.1121 1521.3 26.1121 Q1528.39 26.1121 1532.24 31.0947 Q1536.09 36.0368 1536.09 45.1919 L1536.09 72.576 L1528.59 72.576 L1528.59 45.4349 Q1528.59 38.913 1526.29 35.7533 Q1523.98 32.5936 1519.24 32.5936 Q1513.44 32.5936 1510.08 36.4419 Q1506.72 40.2903 1506.72 46.9338 L1506.72 72.576 L1499.23 72.576 L1499.23 45.4349 Q1499.23 38.8725 1496.92 35.7533 Q1494.61 32.5936 1489.79 32.5936 Q1484.07 32.5936 1480.71 36.4824 Q1477.35 40.3308 1477.35 46.9338 L1477.35 72.576 L1469.86 72.576 L1469.86 27.2059 L1477.35 27.2059 L1477.35 34.2544 Q1479.9 30.082 1483.47 28.0971 Q1487.03 26.1121 1491.93 26.1121 Q1496.88 26.1121 1500.32 28.6237 Q1503.8 31.1352 1505.46 35.9153 Z" fill="#000000" fill-rule="nonzero" fill-opacity="1" /><path clip-path="url(#clip820)" d="M1568.54 32.4315 Q1562.54 32.4315 1559.06 37.1306 Q1555.57 41.7891 1555.57 49.9314 Q1555.57 58.0738 1559.02 62.7728 Q1562.5 67.4314 1568.54 67.4314 Q1574.49 67.4314 1577.97 62.7323 Q1581.46 58.0333 1581.46 49.9314 Q1581.46 41.8701 1577.97 37.1711 Q1574.49 32.4315 1568.54 32.4315 M1568.54 26.1121 Q1578.26 26.1121 1583.81 32.4315 Q1589.36 38.7509 1589.36 49.9314 Q1589.36 61.0714 1583.81 67.4314 Q1578.26 73.7508 1568.54 73.7508 Q1558.77 73.7508 1553.22 67.4314 Q1547.71 61.0714 1547.71 49.9314 Q1547.71 38.7509 1553.22 32.4315 Q1558.77 26.1121 1568.54 26.1121 Z" fill="#000000" fill-rule="nonzero" fill-opacity="1" /><path clip-path="url(#clip820)" d="M1631.57 34.0924 L1631.57 9.54393 L1639.02 9.54393 L1639.02 72.576 L1631.57 72.576 L1631.57 65.7705 Q1629.22 69.8214 1625.61 71.8063 Q1622.05 73.7508 1617.03 73.7508 Q1608.8 73.7508 1603.62 67.1883 Q1598.47 60.6258 1598.47 49.9314 Q1598.47 39.2371 1603.62 32.6746 Q1608.8 26.1121 1617.03 26.1121 Q1622.05 26.1121 1625.61 28.0971 Q1629.22 30.0415 1631.57 34.0924 M1606.17 49.9314 Q1606.17 58.1548 1609.53 62.8538 Q1612.93 67.5124 1618.85 67.5124 Q1624.76 67.5124 1628.17 62.8538 Q1631.57 58.1548 1631.57 49.9314 Q1631.57 41.7081 1628.17 37.0496 Q1624.76 32.3505 1618.85 32.3505 Q1612.93 32.3505 1609.53 37.0496 Q1606.17 41.7081 1606.17 49.9314 Z" fill="#000000" fill-rule="nonzero" fill-opacity="1" /><path clip-path="url(#clip820)" d="M1693.18 48.0275 L1693.18 51.6733 L1658.91 51.6733 Q1659.4 59.3701 1663.53 63.421 Q1667.7 67.4314 1675.12 67.4314 Q1679.41 67.4314 1683.42 66.3781 Q1687.47 65.3249 1691.44 63.2184 L1691.44 70.267 Q1687.43 71.9684 1683.22 72.8596 Q1679 73.7508 1674.67 73.7508 Q1663.81 73.7508 1657.45 67.4314 Q1651.13 61.1119 1651.13 50.3365 Q1651.13 39.1965 1657.13 32.6746 Q1663.17 26.1121 1673.37 26.1121 Q1682.53 26.1121 1687.84 32.0264 Q1693.18 37.9003 1693.18 48.0275 M1685.73 45.84 Q1685.65 39.7232 1682.29 36.0774 Q1678.96 32.4315 1673.45 32.4315 Q1667.22 32.4315 1663.45 35.9558 Q1659.72 39.4801 1659.15 45.8805 L1685.73 45.84 Z" fill="#000000" fill-rule="nonzero" fill-opacity="1" /><path clip-path="url(#clip820)" d="M1705.42 9.54393 L1712.87 9.54393 L1712.87 72.576 L1705.42 72.576 L1705.42 9.54393 Z" fill="#000000" fill-rule="nonzero" fill-opacity="1" /><path clip-path="url(#clip820)" d="M1757.31 65.6895 L1770.68 65.6895 L1770.68 19.5497 L1756.13 22.4663 L1756.13 15.0127 L1770.6 12.096 L1778.78 12.096 L1778.78 65.6895 L1792.15 65.6895 L1792.15 72.576 L1757.31 72.576 L1757.31 65.6895 Z" fill="#000000" fill-rule="nonzero" fill-opacity="1" /><polyline clip-path="url(#clip822)" style="stroke:#009af9; stroke-linecap:round; stroke-linejoin:round; stroke-width:8; stroke-opacity:1; fill:none" points="370.88,159.645 2295.03,159.645 "/>
<polyline clip-path="url(#clip822)" style="stroke:#e26f46; stroke-linecap:round; stroke-linejoin:round; stroke-width:8; stroke-opacity:1; fill:none" points="370.88,475.273 2295.03,475.273 "/>
<polyline clip-path="url(#clip822)" style="stroke:#008000; stroke-linecap:round; stroke-linejoin:round; stroke-width:8; stroke-opacity:1; fill:none" stroke-dasharray="4, 8" points="370.88,609.645 375.691,609.828 380.501,610.357 385.311,611.236 390.122,612.468 394.932,614.054 399.742,615.994 404.553,618.29 409.363,620.941 414.174,623.945 418.984,627.302 423.794,631.009 428.605,635.066 433.415,639.467 438.226,644.212 443.036,649.292 447.846,654.707 452.657,660.452 457.467,666.521 462.277,672.907 467.088,679.607 471.898,686.617 476.709,693.923 481.519,701.524 486.329,709.412 491.14,717.576 495.95,726.007 500.76,734.7 505.571,743.646 510.381,752.838 515.192,762.269 520.002,771.93 524.812,781.799 529.623,791.875 534.433,802.15 539.243,812.614 544.054,823.257 548.864,834.071 553.675,845.039 558.485,856.15 563.295,867.396 568.106,878.765 572.916,890.246 577.726,901.828 582.537,913.499 587.347,925.248 592.158,937.062 596.968,948.929 601.778,960.836 606.589,972.772 611.399,984.723 616.21,996.68 621.02,1008.63 625.83,1020.57 630.641,1032.47 635.451,1044.33 640.261,1056.13 645.072,1067.86 649.882,1079.52 654.693,1091.09 659.503,1102.56 664.313,1113.91 669.124,1125.13 673.934,1136.22 678.744,1147.16 683.555,1157.95 688.365,1168.57 693.176,1179 697.986,1189.25 702.796,1199.29 707.607,1209.13 712.417,1218.74 717.227,1228.13 722.038,1237.27 726.848,1246.17 731.659,1254.81 736.469,1263.18 741.279,1271.27 746.09,1279.08 750.9,1286.6 755.71,1293.82 760.521,1300.73 765.331,1307.33 770.142,1313.61 774.952,1319.55 779.762,1325.16 784.573,1330.44 789.383,1335.36 794.193,1339.93 799.004,1344.14 803.814,1347.98 808.625,1351.46 813.435,1354.56 818.245,1357.28 823.056,1359.61 827.866,1361.56 832.677,1363.12 837.487,1364.28 842.297,1365.05 847.108,1365.41 851.918,1365.36 856.728,1365.03 861.539,1364.41 866.349,1363.5 871.16,1362.31 875.97,1360.82 880.78,1359.04 885.591,1356.96 890.401,1354.59 895.211,1351.93 900.022,1348.97 904.832,1345.73 909.643,1342.2 914.453,1338.38 919.263,1334.29 924.074,1329.91 928.884,1325.26 933.694,1320.34 938.505,1315.15 943.315,1309.7 948.126,1304 952.936,1298.04 957.746,1291.83 962.557,1285.37 967.367,1278.69 972.177,1271.77 976.988,1264.64 981.798,1257.28 986.609,1249.7 991.419,1241.94 996.229,1233.98 1001.04,1225.83 1005.85,1217.5 1010.66,1209 1015.47,1200.34 1020.28,1191.53 1025.09,1182.57 1029.9,1173.47 1034.71,1164.25 1039.52,1154.91 1044.33,1145.46 1049.14,1135.91 1053.95,1126.27 1058.76,1116.55 1063.57,1106.76 1068.39,1096.92 1073.2,1087.02 1078.01,1077.08 1082.82,1067.1 1087.63,1057.11 1092.44,1047.1 1097.25,1037.1 1102.06,1027.1 1106.87,1017.13 1111.68,1007.18 1116.49,997.268 1121.3,987.407 1126.11,977.606 1130.92,967.873 1135.73,958.218 1140.54,948.65 1145.35,939.18 1150.16,929.818 1154.97,920.573 1159.78,911.454 1164.59,902.469 1169.4,893.627 1174.21,884.94 1179.02,876.415 1183.83,868.062 1188.64,859.885 1193.45,851.896 1198.27,844.103 1203.08,836.515 1207.89,829.14 1212.7,821.98 1217.51,815.047 1222.32,808.348 1227.13,801.892 1231.94,795.687 1236.75,789.73 1241.56,784.034 1246.37,778.607 1251.18,773.454 1255.99,768.584 1260.8,763.993 1265.61,759.691 1270.42,755.685 1275.23,751.982 1280.04,748.588 1284.85,745.498 1289.66,742.721 1294.47,740.264 1299.28,738.131 1304.09,736.327 1308.9,734.85 1313.71,733.703 1318.52,732.893 1323.34,732.424 1328.15,732.304 1332.96,732.491 1337.77,732.879 1342.58,733.486 1347.39,734.32 1352.2,735.382 1357.01,736.675 1361.82,738.197 1366.63,739.95 1371.44,741.933 1376.25,744.145 1381.06,746.585 1385.87,749.253 1390.68,752.146 1395.49,755.263 1400.3,758.603 1405.11,762.161 1409.92,765.937 1414.73,769.927 1419.54,774.126 1424.35,778.533 1429.16,783.142 1433.97,787.948 1438.78,792.948 1443.59,798.14 1448.4,803.52 1453.22,809.075 1458.03,814.805 1462.84,820.707 1467.65,826.776 1472.46,833.002 1477.27,839.378 1482.08,845.903 1486.89,852.569 1491.7,859.371 1496.51,866.297 1501.32,873.343 1506.13,880.504 1510.94,887.774 1515.75,895.142 1520.56,902.6 1525.37,910.142 1530.18,917.762 1534.99,925.452 1539.8,933.205 1544.61,941.014 1549.42,948.873 1554.23,956.767 1559.04,964.693 1563.85,972.642 1568.66,980.608 1573.47,988.581 1578.29,996.555 1583.1,1004.52 1587.91,1012.47 1592.72,1020.4 1597.53,1028.3 1602.34,1036.15 1607.15,1043.96 1611.96,1051.71 1616.77,1059.4 1621.58,1067.01 1626.39,1074.55 1631.2,1082 1636.01,1089.36 1640.82,1096.62 1645.63,1103.76 1650.44,1110.79 1655.25,1117.7 1660.06,1124.46 1664.87,1131.1 1669.68,1137.59 1674.49,1143.93 1679.3,1150.11 1684.11,1156.12 1688.92,1161.97 1693.73,1167.63 1698.54,1173.11 1703.35,1178.4 1708.17,1183.5 1712.98,1188.39 1717.79,1193.08 1722.6,1197.56 1727.41,1201.82 1732.22,1205.86 1737.03,1209.67 1741.84,1213.25 1746.65,1216.59 1751.46,1219.7 1756.27,1222.56 1761.08,1225.17 1765.89,1227.54 1770.7,1229.64 1775.51,1231.49 1780.32,1233.07 1785.13,1234.4 1789.94,1235.45 1794.75,1236.23 1799.56,1236.74 1804.37,1236.98 1809.18,1236.93 1813.99,1236.71 1818.8,1236.35 1823.61,1235.84 1828.42,1235.17 1833.24,1234.34 1838.05,1233.34 1842.86,1232.19 1847.67,1230.87 1852.48,1229.39 1857.29,1227.75 1862.1,1225.95 1866.91,1223.98 1871.72,1221.86 1876.53,1219.58 1881.34,1217.14 1886.15,1214.54 1890.96,1211.79 1895.77,1208.89 1900.58,1205.84 1905.39,1202.65 1910.2,1199.32 1915.01,1195.84 1919.82,1192.22 1924.63,1188.47 1929.44,1184.58 1934.25,1180.57 1939.06,1176.44 1943.87,1172.18 1948.68,1167.81 1953.49,1163.31 1958.3,1158.71 1963.12,1154.01 1967.93,1149.2 1972.74,1144.3 1977.55,1139.31 1982.36,1134.22 1987.17,1129.05 1991.98,1123.82 1996.79,1118.5 2001.6,1113.12 2006.41,1107.68 2011.22,1102.18 2016.03,1096.62 2020.84,1091.03 2025.65,1085.39 2030.46,1079.72 2035.27,1074.02 2040.08,1068.29 2044.89,1062.55 2049.7,1056.79 2054.51,1051.03 2059.32,1045.27 2064.13,1039.51 2068.94,1033.76 2073.75,1028.03 2078.56,1022.32 2083.37,1016.64 2088.19,1011 2093,1005.39 2097.81,999.829 2102.62,994.319 2107.43,988.866 2112.24,983.474 2117.05,978.15 2121.86,972.9 2126.67,967.729 2131.48,962.642 2136.29,957.645 2141.1,952.741 2145.91,947.936 2150.72,943.237 2155.53,938.648 2160.34,934.175 2165.15,929.823 2169.96,925.591 2174.77,921.488 2179.58,917.518 2184.39,913.688 2189.2,910.002 2194.01,906.464 2198.82,903.072 2203.63,899.834 2208.44,896.755 2213.25,893.839 2218.07,891.091 2222.88,888.515 2227.69,886.107 2232.5,883.874 2237.31,881.821 2242.12,879.952 2246.93,878.27 2251.74,876.778 2256.55,875.476 2261.36,874.364 2266.17,873.448 2270.98,872.733 2275.79,872.22 2280.6,871.912 2285.41,871.812 2290.22,871.866 2295.03,872 "/>
<path clip-path="url(#clip820)" d="M1445.95 477.116 L2284.77 477.116 L2284.77 166.076 L1445.95 166.076  Z" fill="#ffffff" fill-rule="evenodd" fill-opacity="1"/>
<polyline clip-path="url(#clip820)" style="stroke:#000000; stroke-linecap:round; stroke-linejoin:round; stroke-width:4; stroke-opacity:1; fill:none" points="1445.95,477.116 2284.77,477.116 2284.77,166.076 1445.95,166.076 1445.95,477.116 "/>
<polyline clip-path="url(#clip820)" style="stroke:#009af9; stroke-linecap:round; stroke-linejoin:round; stroke-width:12; stroke-opacity:1; fill:none" points="1468.61,243.836 1604.59,243.836 "/>
<path clip-path="url(#clip820)" d="M1654.89 232.013 L1654.89 238.054 Q1652.18 236.666 1649.26 235.971 Q1646.35 235.277 1643.22 235.277 Q1638.46 235.277 1636.07 236.735 Q1633.71 238.193 1633.71 241.11 Q1633.71 243.332 1635.41 244.617 Q1637.11 245.867 1642.25 247.013 L1644.44 247.499 Q1651.24 248.957 1654.09 251.631 Q1656.97 254.27 1656.97 259.027 Q1656.97 264.443 1652.67 267.603 Q1648.4 270.763 1640.9 270.763 Q1637.77 270.763 1634.37 270.138 Q1631 269.547 1627.25 268.332 L1627.25 261.735 Q1630.79 263.575 1634.23 264.513 Q1637.67 265.415 1641.03 265.415 Q1645.55 265.415 1647.98 263.888 Q1650.41 262.325 1650.41 259.513 Q1650.41 256.909 1648.64 255.52 Q1646.9 254.131 1640.96 252.846 L1638.74 252.325 Q1632.8 251.075 1630.17 248.506 Q1627.53 245.902 1627.53 241.388 Q1627.53 235.902 1631.42 232.916 Q1635.3 229.93 1642.46 229.93 Q1646 229.93 1649.12 230.45 Q1652.25 230.971 1654.89 232.013 Z" fill="#000000" fill-rule="nonzero" fill-opacity="1" /><path clip-path="url(#clip820)" d="M1667.14 230.867 L1673.53 230.867 L1673.53 269.756 L1667.14 269.756 L1667.14 230.867 M1667.14 215.728 L1673.53 215.728 L1673.53 223.818 L1667.14 223.818 L1667.14 215.728 Z" fill="#000000" fill-rule="nonzero" fill-opacity="1" /><path clip-path="url(#clip820)" d="M1717.18 238.332 Q1719.58 234.027 1722.91 231.978 Q1726.24 229.93 1730.76 229.93 Q1736.83 229.93 1740.13 234.2 Q1743.43 238.436 1743.43 246.284 L1743.43 269.756 L1737.01 269.756 L1737.01 246.492 Q1737.01 240.902 1735.03 238.193 Q1733.05 235.485 1728.98 235.485 Q1724.02 235.485 1721.14 238.784 Q1718.26 242.082 1718.26 247.777 L1718.26 269.756 L1711.83 269.756 L1711.83 246.492 Q1711.83 240.867 1709.85 238.193 Q1707.87 235.485 1703.74 235.485 Q1698.85 235.485 1695.96 238.818 Q1693.08 242.117 1693.08 247.777 L1693.08 269.756 L1686.66 269.756 L1686.66 230.867 L1693.08 230.867 L1693.08 236.909 Q1695.27 233.332 1698.33 231.631 Q1701.38 229.93 1705.58 229.93 Q1709.82 229.93 1712.77 232.082 Q1715.76 234.235 1717.18 238.332 Z" fill="#000000" fill-rule="nonzero" fill-opacity="1" /><path clip-path="url(#clip820)" d="M1762.35 263.922 L1762.35 284.547 L1755.93 284.547 L1755.93 230.867 L1762.35 230.867 L1762.35 236.77 Q1764.37 233.298 1767.42 231.631 Q1770.51 229.93 1774.78 229.93 Q1781.87 229.93 1786.28 235.555 Q1790.72 241.179 1790.72 250.346 Q1790.72 259.513 1786.28 265.138 Q1781.87 270.763 1774.78 270.763 Q1770.51 270.763 1767.42 269.096 Q1764.37 267.395 1762.35 263.922 M1784.09 250.346 Q1784.09 243.298 1781.17 239.304 Q1778.29 235.277 1773.22 235.277 Q1768.15 235.277 1765.23 239.304 Q1762.35 243.298 1762.35 250.346 Q1762.35 257.395 1765.23 261.422 Q1768.15 265.415 1773.22 265.415 Q1778.29 265.415 1781.17 261.422 Q1784.09 257.395 1784.09 250.346 Z" fill="#000000" fill-rule="nonzero" fill-opacity="1" /><path clip-path="url(#clip820)" d="M1801.31 215.728 L1807.7 215.728 L1807.7 269.756 L1801.31 269.756 L1801.31 215.728 Z" fill="#000000" fill-rule="nonzero" fill-opacity="1" /><path clip-path="url(#clip820)" d="M1854.33 248.714 L1854.33 251.839 L1824.96 251.839 Q1825.37 258.436 1828.91 261.909 Q1832.49 265.346 1838.85 265.346 Q1842.53 265.346 1845.96 264.443 Q1849.44 263.54 1852.84 261.735 L1852.84 267.777 Q1849.4 269.235 1845.79 269.999 Q1842.18 270.763 1838.46 270.763 Q1829.16 270.763 1823.71 265.346 Q1818.29 259.929 1818.29 250.693 Q1818.29 241.145 1823.43 235.555 Q1828.6 229.93 1837.35 229.93 Q1845.2 229.93 1849.75 234.999 Q1854.33 240.034 1854.33 248.714 M1847.94 246.839 Q1847.87 241.596 1844.99 238.471 Q1842.14 235.346 1837.42 235.346 Q1832.07 235.346 1828.85 238.367 Q1825.65 241.388 1825.16 246.874 L1847.94 246.839 Z" fill="#000000" fill-rule="nonzero" fill-opacity="1" /><path clip-path="url(#clip820)" d="M1865.1 217.916 L1894.89 217.916 L1894.89 223.818 L1872.11 223.818 L1872.11 239.096 L1892.66 239.096 L1892.66 244.999 L1872.11 244.999 L1872.11 269.756 L1865.1 269.756 L1865.1 217.916 Z" fill="#000000" fill-rule="nonzero" fill-opacity="1" /><path clip-path="url(#clip820)" d="M1906 217.916 L1916.45 217.916 L1929.68 253.193 L1942.98 217.916 L1953.43 217.916 L1953.43 269.756 L1946.59 269.756 L1946.59 224.235 L1933.22 259.79 L1926.17 259.79 L1912.8 224.235 L1912.8 269.756 L1906 269.756 L1906 217.916 Z" fill="#000000" fill-rule="nonzero" fill-opacity="1" /><path clip-path="url(#clip820)" d="M1966.55 217.916 L1973.6 217.916 L1973.6 249.409 Q1973.6 257.742 1976.62 261.422 Q1979.64 265.068 1986.41 265.068 Q1993.15 265.068 1996.17 261.422 Q1999.19 257.742 1999.19 249.409 L1999.19 217.916 L2006.24 217.916 L2006.24 250.277 Q2006.24 260.415 2001.21 265.589 Q1996.21 270.763 1986.41 270.763 Q1976.59 270.763 1971.55 265.589 Q1966.55 260.415 1966.55 250.277 L1966.55 217.916 Z" fill="#000000" fill-rule="nonzero" fill-opacity="1" /><polyline clip-path="url(#clip820)" style="stroke:#e26f46; stroke-linecap:round; stroke-linejoin:round; stroke-width:12; stroke-opacity:1; fill:none" points="1468.61,321.596 1604.59,321.596 "/>
<path clip-path="url(#clip820)" d="M1650.03 314.599 Q1648.95 313.974 1647.67 313.696 Q1646.42 313.384 1644.89 313.384 Q1639.47 313.384 1636.55 316.926 Q1633.67 320.433 1633.67 327.03 L1633.67 347.516 L1627.25 347.516 L1627.25 308.627 L1633.67 308.627 L1633.67 314.669 Q1635.69 311.127 1638.92 309.426 Q1642.15 307.69 1646.76 307.69 Q1647.42 307.69 1648.22 307.794 Q1649.02 307.863 1649.99 308.037 L1650.03 314.599 Z" fill="#000000" fill-rule="nonzero" fill-opacity="1" /><path clip-path="url(#clip820)" d="M1688.43 326.474 L1688.43 329.599 L1659.05 329.599 Q1659.47 336.196 1663.01 339.669 Q1666.59 343.106 1672.94 343.106 Q1676.62 343.106 1680.06 342.203 Q1683.53 341.3 1686.94 339.495 L1686.94 345.537 Q1683.5 346.995 1679.89 347.759 Q1676.28 348.523 1672.56 348.523 Q1663.26 348.523 1657.8 343.106 Q1652.39 337.689 1652.39 328.453 Q1652.39 318.905 1657.53 313.315 Q1662.7 307.69 1671.45 307.69 Q1679.3 307.69 1683.85 312.759 Q1688.43 317.794 1688.43 326.474 M1682.04 324.599 Q1681.97 319.356 1679.09 316.231 Q1676.24 313.106 1671.52 313.106 Q1666.17 313.106 1662.94 316.127 Q1659.75 319.148 1659.26 324.634 L1682.04 324.599 Z" fill="#000000" fill-rule="nonzero" fill-opacity="1" /><path clip-path="url(#clip820)" d="M1718.6 293.488 L1718.6 298.801 L1712.49 298.801 Q1709.05 298.801 1707.7 300.19 Q1706.38 301.578 1706.38 305.19 L1706.38 308.627 L1716.9 308.627 L1716.9 313.592 L1706.38 313.592 L1706.38 347.516 L1699.96 347.516 L1699.96 313.592 L1693.85 313.592 L1693.85 308.627 L1699.96 308.627 L1699.96 305.919 Q1699.96 299.426 1702.98 296.474 Q1706 293.488 1712.56 293.488 L1718.6 293.488 Z" fill="#000000" fill-rule="nonzero" fill-opacity="1" /><path clip-path="url(#clip820)" d="M1757.21 326.474 L1757.21 329.599 L1727.84 329.599 Q1728.26 336.196 1731.8 339.669 Q1735.37 343.106 1741.73 343.106 Q1745.41 343.106 1748.85 342.203 Q1752.32 341.3 1755.72 339.495 L1755.72 345.537 Q1752.28 346.995 1748.67 347.759 Q1745.06 348.523 1741.35 348.523 Q1732.04 348.523 1726.59 343.106 Q1721.17 337.689 1721.17 328.453 Q1721.17 318.905 1726.31 313.315 Q1731.48 307.69 1740.23 307.69 Q1748.08 307.69 1752.63 312.759 Q1757.21 317.794 1757.21 326.474 M1750.83 324.599 Q1750.76 319.356 1747.87 316.231 Q1745.03 313.106 1740.3 313.106 Q1734.96 313.106 1731.73 316.127 Q1728.53 319.148 1728.05 324.634 L1750.83 324.599 Z" fill="#000000" fill-rule="nonzero" fill-opacity="1" /><path clip-path="url(#clip820)" d="M1790.23 314.599 Q1789.16 313.974 1787.87 313.696 Q1786.62 313.384 1785.1 313.384 Q1779.68 313.384 1776.76 316.926 Q1773.88 320.433 1773.88 327.03 L1773.88 347.516 L1767.46 347.516 L1767.46 308.627 L1773.88 308.627 L1773.88 314.669 Q1775.89 311.127 1779.12 309.426 Q1782.35 307.69 1786.97 307.69 Q1787.63 307.69 1788.43 307.794 Q1789.23 307.863 1790.2 308.037 L1790.23 314.599 Z" fill="#000000" fill-rule="nonzero" fill-opacity="1" /><path clip-path="url(#clip820)" d="M1828.64 326.474 L1828.64 329.599 L1799.26 329.599 Q1799.68 336.196 1803.22 339.669 Q1806.8 343.106 1813.15 343.106 Q1816.83 343.106 1820.27 342.203 Q1823.74 341.3 1827.14 339.495 L1827.14 345.537 Q1823.71 346.995 1820.1 347.759 Q1816.48 348.523 1812.77 348.523 Q1803.46 348.523 1798.01 343.106 Q1792.6 337.689 1792.6 328.453 Q1792.6 318.905 1797.73 313.315 Q1802.91 307.69 1811.66 307.69 Q1819.51 307.69 1824.05 312.759 Q1828.64 317.794 1828.64 326.474 M1822.25 324.599 Q1822.18 319.356 1819.3 316.231 Q1816.45 313.106 1811.73 313.106 Q1806.38 313.106 1803.15 316.127 Q1799.96 319.148 1799.47 324.634 L1822.25 324.599 Z" fill="#000000" fill-rule="nonzero" fill-opacity="1" /><path clip-path="url(#clip820)" d="M1871.45 324.044 L1871.45 347.516 L1865.06 347.516 L1865.06 324.252 Q1865.06 318.731 1862.91 315.988 Q1860.75 313.245 1856.45 313.245 Q1851.28 313.245 1848.29 316.544 Q1845.3 319.842 1845.3 325.537 L1845.3 347.516 L1838.88 347.516 L1838.88 308.627 L1845.3 308.627 L1845.3 314.669 Q1847.6 311.162 1850.69 309.426 Q1853.81 307.69 1857.87 307.69 Q1864.57 307.69 1868.01 311.856 Q1871.45 315.988 1871.45 324.044 Z" fill="#000000" fill-rule="nonzero" fill-opacity="1" /><path clip-path="url(#clip820)" d="M1912.18 310.12 L1912.18 316.092 Q1909.47 314.599 1906.73 313.87 Q1904.02 313.106 1901.24 313.106 Q1895.03 313.106 1891.59 317.064 Q1888.15 320.988 1888.15 328.106 Q1888.15 335.224 1891.59 339.182 Q1895.03 343.106 1901.24 343.106 Q1904.02 343.106 1906.73 342.377 Q1909.47 341.613 1912.18 340.12 L1912.18 346.023 Q1909.5 347.273 1906.62 347.898 Q1903.78 348.523 1900.55 348.523 Q1891.76 348.523 1886.59 343.002 Q1881.41 337.481 1881.41 328.106 Q1881.41 318.592 1886.62 313.141 Q1891.87 307.69 1900.96 307.69 Q1903.91 307.69 1906.73 308.315 Q1909.54 308.905 1912.18 310.12 Z" fill="#000000" fill-rule="nonzero" fill-opacity="1" /><path clip-path="url(#clip820)" d="M1956.55 326.474 L1956.55 329.599 L1927.18 329.599 Q1927.59 336.196 1931.14 339.669 Q1934.71 343.106 1941.07 343.106 Q1944.75 343.106 1948.19 342.203 Q1951.66 341.3 1955.06 339.495 L1955.06 345.537 Q1951.62 346.995 1948.01 347.759 Q1944.4 348.523 1940.69 348.523 Q1931.38 348.523 1925.93 343.106 Q1920.51 337.689 1920.51 328.453 Q1920.51 318.905 1925.65 313.315 Q1930.82 307.69 1939.57 307.69 Q1947.42 307.69 1951.97 312.759 Q1956.55 317.794 1956.55 326.474 M1950.16 324.599 Q1950.09 319.356 1947.21 316.231 Q1944.37 313.106 1939.64 313.106 Q1934.3 313.106 1931.07 316.127 Q1927.87 319.148 1927.39 324.634 L1950.16 324.599 Z" fill="#000000" fill-rule="nonzero" fill-opacity="1" /><polyline clip-path="url(#clip820)" style="stroke:#008000; stroke-linecap:round; stroke-linejoin:round; stroke-width:12; stroke-opacity:1; fill:none" stroke-dasharray="6, 12" points="1468.61,399.356 1604.59,399.356 "/>
<path clip-path="url(#clip820)" d="M1627.25 373.436 L1636.69 373.436 L1659.68 416.804 L1659.68 373.436 L1666.49 373.436 L1666.49 425.276 L1657.04 425.276 L1634.05 381.908 L1634.05 425.276 L1627.25 425.276 L1627.25 373.436 Z" fill="#000000" fill-rule="nonzero" fill-opacity="1" /><path clip-path="url(#clip820)" d="M1713.43 404.234 L1713.43 407.359 L1684.05 407.359 Q1684.47 413.956 1688.01 417.429 Q1691.59 420.866 1697.94 420.866 Q1701.62 420.866 1705.06 419.963 Q1708.53 419.06 1711.94 417.255 L1711.94 423.297 Q1708.5 424.755 1704.89 425.519 Q1701.28 426.283 1697.56 426.283 Q1688.26 426.283 1682.8 420.866 Q1677.39 415.449 1677.39 406.213 Q1677.39 396.665 1682.53 391.075 Q1687.7 385.45 1696.45 385.45 Q1704.3 385.45 1708.85 390.519 Q1713.43 395.554 1713.43 404.234 M1707.04 402.359 Q1706.97 397.116 1704.09 393.991 Q1701.24 390.866 1696.52 390.866 Q1691.17 390.866 1687.94 393.887 Q1684.75 396.908 1684.26 402.394 L1707.04 402.359 Z" fill="#000000" fill-rule="nonzero" fill-opacity="1" /><path clip-path="url(#clip820)" d="M1723.26 409.929 L1723.26 386.387 L1729.64 386.387 L1729.64 409.686 Q1729.64 415.206 1731.8 417.984 Q1733.95 420.727 1738.26 420.727 Q1743.43 420.727 1746.42 417.429 Q1749.44 414.13 1749.44 408.436 L1749.44 386.387 L1755.82 386.387 L1755.82 425.276 L1749.44 425.276 L1749.44 419.304 Q1747.11 422.845 1744.02 424.581 Q1740.96 426.283 1736.9 426.283 Q1730.2 426.283 1726.73 422.116 Q1723.26 417.949 1723.26 409.929 M1739.33 385.45 L1739.33 385.45 Z" fill="#000000" fill-rule="nonzero" fill-opacity="1" /><path clip-path="url(#clip820)" d="M1791.52 392.359 Q1790.44 391.734 1789.16 391.456 Q1787.91 391.144 1786.38 391.144 Q1780.96 391.144 1778.05 394.686 Q1775.17 398.193 1775.17 404.79 L1775.17 425.276 L1768.74 425.276 L1768.74 386.387 L1775.17 386.387 L1775.17 392.429 Q1777.18 388.887 1780.41 387.186 Q1783.64 385.45 1788.26 385.45 Q1788.92 385.45 1789.71 385.554 Q1790.51 385.623 1791.48 385.797 L1791.52 392.359 Z" fill="#000000" fill-rule="nonzero" fill-opacity="1" /><path clip-path="url(#clip820)" d="M1815.89 405.727 Q1808.15 405.727 1805.17 407.498 Q1802.18 409.269 1802.18 413.54 Q1802.18 416.942 1804.4 418.956 Q1806.66 420.935 1810.51 420.935 Q1815.82 420.935 1819.02 417.185 Q1822.25 413.401 1822.25 407.151 L1822.25 405.727 L1815.89 405.727 M1828.64 403.088 L1828.64 425.276 L1822.25 425.276 L1822.25 419.373 Q1820.06 422.915 1816.8 424.616 Q1813.53 426.283 1808.81 426.283 Q1802.84 426.283 1799.3 422.949 Q1795.79 419.581 1795.79 413.956 Q1795.79 407.394 1800.17 404.061 Q1804.57 400.727 1813.29 400.727 L1822.25 400.727 L1822.25 400.102 Q1822.25 395.693 1819.33 393.297 Q1816.45 390.866 1811.21 390.866 Q1807.87 390.866 1804.71 391.665 Q1801.55 392.463 1798.64 394.061 L1798.64 388.158 Q1802.14 386.804 1805.44 386.144 Q1808.74 385.45 1811.87 385.45 Q1820.3 385.45 1824.47 389.825 Q1828.64 394.199 1828.64 403.088 Z" fill="#000000" fill-rule="nonzero" fill-opacity="1" /><path clip-path="url(#clip820)" d="M1841.8 371.248 L1848.19 371.248 L1848.19 425.276 L1841.8 425.276 L1841.8 371.248 Z" fill="#000000" fill-rule="nonzero" fill-opacity="1" /><path clip-path="url(#clip820)" d="M1861.83 373.436 L1891.62 373.436 L1891.62 379.338 L1868.85 379.338 L1868.85 394.616 L1889.4 394.616 L1889.4 400.519 L1868.85 400.519 L1868.85 425.276 L1861.83 425.276 L1861.83 373.436 Z" fill="#000000" fill-rule="nonzero" fill-opacity="1" /><path clip-path="url(#clip820)" d="M1902.73 373.436 L1913.19 373.436 L1926.41 408.713 L1939.71 373.436 L1950.16 373.436 L1950.16 425.276 L1943.32 425.276 L1943.32 379.755 L1929.96 415.31 L1922.91 415.31 L1909.54 379.755 L1909.54 425.276 L1902.73 425.276 L1902.73 373.436 Z" fill="#000000" fill-rule="nonzero" fill-opacity="1" /><path clip-path="url(#clip820)" d="M1963.29 373.436 L1970.34 373.436 L1970.34 404.929 Q1970.34 413.262 1973.36 416.942 Q1976.38 420.588 1983.15 420.588 Q1989.89 420.588 1992.91 416.942 Q1995.93 413.262 1995.93 404.929 L1995.93 373.436 L2002.98 373.436 L2002.98 405.797 Q2002.98 415.935 1997.94 421.109 Q1992.94 426.283 1983.15 426.283 Q1973.32 426.283 1968.29 421.109 Q1963.29 415.935 1963.29 405.797 L1963.29 373.436 Z" fill="#000000" fill-rule="nonzero" fill-opacity="1" /><path clip-path="url(#clip820)" d="M2053.81 371.318 Q2049.16 379.304 2046.9 387.116 Q2044.64 394.929 2044.64 402.949 Q2044.64 410.97 2046.9 418.852 Q2049.19 426.699 2053.81 434.651 L2048.25 434.651 Q2043.05 426.491 2040.44 418.609 Q2037.87 410.727 2037.87 402.949 Q2037.87 395.206 2040.44 387.359 Q2043.01 379.512 2048.25 371.318 L2053.81 371.318 Z" fill="#000000" fill-rule="nonzero" fill-opacity="1" /><path clip-path="url(#clip820)" d="M2073.15 419.373 L2097.63 419.373 L2097.63 425.276 L2064.71 425.276 L2064.71 419.373 Q2068.71 415.241 2075.58 408.297 Q2082.49 401.318 2084.26 399.304 Q2087.63 395.519 2088.95 392.915 Q2090.3 390.276 2090.3 387.741 Q2090.3 383.609 2087.39 381.005 Q2084.5 378.401 2079.85 378.401 Q2076.55 378.401 2072.87 379.547 Q2069.23 380.693 2065.06 383.019 L2065.06 375.936 Q2069.3 374.234 2072.98 373.366 Q2076.66 372.498 2079.71 372.498 Q2087.77 372.498 2092.56 376.526 Q2097.35 380.554 2097.35 387.29 Q2097.35 390.484 2096.14 393.366 Q2094.96 396.213 2091.8 400.102 Q2090.93 401.109 2086.27 405.936 Q2081.62 410.727 2073.15 419.373 Z" fill="#000000" fill-rule="nonzero" fill-opacity="1" /><path clip-path="url(#clip820)" d="M2112.42 373.436 L2139.95 373.436 L2139.95 379.338 L2118.84 379.338 L2118.84 392.047 Q2120.37 391.526 2121.9 391.283 Q2123.43 391.005 2124.95 391.005 Q2133.64 391.005 2138.7 395.762 Q2143.77 400.519 2143.77 408.644 Q2143.77 417.012 2138.57 421.665 Q2133.36 426.283 2123.88 426.283 Q2120.61 426.283 2117.21 425.727 Q2113.84 425.172 2110.23 424.06 L2110.23 417.012 Q2113.36 418.713 2116.69 419.547 Q2120.02 420.38 2123.74 420.38 Q2129.75 420.38 2133.25 417.22 Q2136.76 414.06 2136.76 408.644 Q2136.76 403.227 2133.25 400.068 Q2129.75 396.908 2123.74 396.908 Q2120.93 396.908 2118.11 397.533 Q2115.34 398.158 2112.42 399.477 L2112.42 373.436 Z" fill="#000000" fill-rule="nonzero" fill-opacity="1" /><path clip-path="url(#clip820)" d="M2172.59 378.054 Q2167.18 378.054 2164.43 383.401 Q2161.73 388.713 2161.73 399.408 Q2161.73 410.067 2164.43 415.415 Q2167.18 420.727 2172.59 420.727 Q2178.04 420.727 2180.75 415.415 Q2183.5 410.067 2183.5 399.408 Q2183.5 388.713 2180.75 383.401 Q2178.04 378.054 2172.59 378.054 M2172.59 372.498 Q2181.31 372.498 2185.89 379.408 Q2190.51 386.283 2190.51 399.408 Q2190.51 412.498 2185.89 419.408 Q2181.31 426.283 2172.59 426.283 Q2163.88 426.283 2159.26 419.408 Q2154.68 412.498 2154.68 399.408 Q2154.68 386.283 2159.26 379.408 Q2163.88 372.498 2172.59 372.498 Z" fill="#000000" fill-rule="nonzero" fill-opacity="1" /><path clip-path="url(#clip820)" d="M2217.84 378.054 Q2212.42 378.054 2209.68 383.401 Q2206.97 388.713 2206.97 399.408 Q2206.97 410.067 2209.68 415.415 Q2212.42 420.727 2217.84 420.727 Q2223.29 420.727 2226 415.415 Q2228.74 410.067 2228.74 399.408 Q2228.74 388.713 2226 383.401 Q2223.29 378.054 2217.84 378.054 M2217.84 372.498 Q2226.55 372.498 2231.13 379.408 Q2235.75 386.283 2235.75 399.408 Q2235.75 412.498 2231.13 419.408 Q2226.55 426.283 2217.84 426.283 Q2209.12 426.283 2204.5 419.408 Q2199.92 412.498 2199.92 399.408 Q2199.92 386.283 2204.5 379.408 Q2209.12 372.498 2217.84 372.498 Z" fill="#000000" fill-rule="nonzero" fill-opacity="1" /><path clip-path="url(#clip820)" d="M2246.17 371.318 L2251.73 371.318 Q2256.93 379.512 2259.5 387.359 Q2262.11 395.206 2262.11 402.949 Q2262.11 410.727 2259.5 418.609 Q2256.93 426.491 2251.73 434.651 L2246.17 434.651 Q2250.79 426.699 2253.04 418.852 Q2255.34 410.97 2255.34 402.949 Q2255.34 394.929 2253.04 387.116 Q2250.79 379.304 2246.17 371.318 Z" fill="#000000" fill-rule="nonzero" fill-opacity="1" /></svg>
