<?xml version="1.0" encoding="utf-8"?>
<svg xmlns="http://www.w3.org/2000/svg" xmlns:xlink="http://www.w3.org/1999/xlink" width="600" height="400" viewBox="0 0 2400 1600">
<defs>
  <clipPath id="clip550">
    <rect x="0" y="0" width="2400" height="1600"/>
  </clipPath>
</defs>
<path clip-path="url(#clip550)" d="M0 1600 L2400 1600 L2400 0 L0 0  Z" fill="#ffffff" fill-rule="evenodd" fill-opacity="1"/>
<defs>
  <clipPath id="clip551">
    <rect x="480" y="0" width="1681" height="1600"/>
  </clipPath>
</defs>
<path clip-path="url(#clip550)" d="M303.503 1401.58 L2352.76 1401.58 L2352.76 123.472 L303.503 123.472  Z" fill="#ffffff" fill-rule="evenodd" fill-opacity="1"/>
<defs>
  <clipPath id="clip552">
    <rect x="303" y="123" width="2050" height="1279"/>
  </clipPath>
</defs>
<polyline clip-path="url(#clip552)" style="stroke:#000000; stroke-linecap:round; stroke-linejoin:round; stroke-width:2; stroke-opacity:0.1; fill:none" points="361.501,1401.58 361.501,123.472 "/>
<polyline clip-path="url(#clip552)" style="stroke:#000000; stroke-linecap:round; stroke-linejoin:round; stroke-width:2; stroke-opacity:0.1; fill:none" points="844.815,1401.58 844.815,123.472 "/>
<polyline clip-path="url(#clip552)" style="stroke:#000000; stroke-linecap:round; stroke-linejoin:round; stroke-width:2; stroke-opacity:0.1; fill:none" points="1328.13,1401.58 1328.13,123.472 "/>
<polyline clip-path="url(#clip552)" style="stroke:#000000; stroke-linecap:round; stroke-linejoin:round; stroke-width:2; stroke-opacity:0.1; fill:none" points="1811.44,1401.58 1811.44,123.472 "/>
<polyline clip-path="url(#clip552)" style="stroke:#000000; stroke-linecap:round; stroke-linejoin:round; stroke-width:2; stroke-opacity:0.1; fill:none" points="2294.76,1401.58 2294.76,123.472 "/>
<polyline clip-path="url(#clip550)" style="stroke:#000000; stroke-linecap:round; stroke-linejoin:round; stroke-width:4; stroke-opacity:1; fill:none" points="303.503,1401.58 2352.76,1401.58 "/>
<polyline clip-path="url(#clip550)" style="stroke:#000000; stroke-linecap:round; stroke-linejoin:round; stroke-width:4; stroke-opacity:1; fill:none" points="361.501,1401.58 361.501,1382.68 "/>
<polyline clip-path="url(#clip550)" style="stroke:#000000; stroke-linecap:round; stroke-linejoin:round; stroke-width:4; stroke-opacity:1; fill:none" points="844.815,1401.58 844.815,1382.68 "/>
<polyline clip-path="url(#clip550)" style="stroke:#000000; stroke-linecap:round; stroke-linejoin:round; stroke-width:4; stroke-opacity:1; fill:none" points="1328.13,1401.58 1328.13,1382.68 "/>
<polyline clip-path="url(#clip550)" style="stroke:#000000; stroke-linecap:round; stroke-linejoin:round; stroke-width:4; stroke-opacity:1; fill:none" points="1811.44,1401.58 1811.44,1382.68 "/>
<polyline clip-path="url(#clip550)" style="stroke:#000000; stroke-linecap:round; stroke-linejoin:round; stroke-width:4; stroke-opacity:1; fill:none" points="2294.76,1401.58 2294.76,1382.68 "/>
<path clip-path="url(#clip550)" d="M361.501 1438.36 Q356.084 1438.36 353.341 1443.71 Q350.633 1449.02 350.633 1459.71 Q350.633 1470.37 353.341 1475.72 Q356.084 1481.03 361.501 1481.03 Q366.952 1481.03 369.66 1475.72 Q372.403 1470.37 372.403 1459.71 Q372.403 1449.02 369.66 1443.71 Q366.952 1438.36 361.501 1438.36 M361.501 1432.8 Q370.216 1432.8 374.799 1439.71 Q379.417 1446.59 379.417 1459.71 Q379.417 1472.8 374.799 1479.71 Q370.216 1486.59 361.501 1486.59 Q352.785 1486.59 348.167 1479.71 Q343.584 1472.8 343.584 1459.71 Q343.584 1446.59 348.167 1439.71 Q352.785 1432.8 361.501 1432.8 Z" fill="#000000" fill-rule="nonzero" fill-opacity="1" /><path clip-path="url(#clip550)" d="M830.388 1479.68 L841.846 1479.68 L841.846 1440.13 L829.381 1442.63 L829.381 1436.24 L841.777 1433.74 L848.791 1433.74 L848.791 1479.68 L860.249 1479.68 L860.249 1485.58 L830.388 1485.58 L830.388 1479.68 Z" fill="#000000" fill-rule="nonzero" fill-opacity="1" /><path clip-path="url(#clip550)" d="M1320.11 1479.68 L1344.59 1479.68 L1344.59 1485.58 L1311.67 1485.58 L1311.67 1479.68 Q1315.66 1475.55 1322.54 1468.6 Q1329.45 1461.62 1331.22 1459.61 Q1334.59 1455.82 1335.91 1453.22 Q1337.26 1450.58 1337.26 1448.05 Q1337.26 1443.91 1334.34 1441.31 Q1331.46 1438.71 1326.81 1438.71 Q1323.51 1438.71 1319.83 1439.85 Q1316.19 1441 1312.02 1443.32 L1312.02 1436.24 Q1316.25 1434.54 1319.94 1433.67 Q1323.62 1432.8 1326.67 1432.8 Q1334.73 1432.8 1339.52 1436.83 Q1344.31 1440.86 1344.31 1447.59 Q1344.31 1450.79 1343.09 1453.67 Q1341.91 1456.52 1338.75 1460.41 Q1337.89 1461.41 1333.23 1466.24 Q1328.58 1471.03 1320.11 1479.68 Z" fill="#000000" fill-rule="nonzero" fill-opacity="1" /><path clip-path="url(#clip550)" d="M1817.82 1457.63 Q1822.85 1458.7 1825.66 1462.11 Q1828.51 1465.51 1828.51 1470.51 Q1828.51 1478.18 1823.23 1482.39 Q1817.95 1486.59 1808.23 1486.59 Q1804.97 1486.59 1801.5 1485.93 Q1798.06 1485.3 1794.38 1484.02 L1794.38 1477.25 Q1797.29 1478.95 1800.77 1479.82 Q1804.24 1480.68 1808.02 1480.68 Q1814.62 1480.68 1818.06 1478.08 Q1821.53 1475.48 1821.53 1470.51 Q1821.53 1465.93 1818.3 1463.36 Q1815.11 1460.75 1809.38 1460.75 L1803.34 1460.75 L1803.34 1454.99 L1809.66 1454.99 Q1814.83 1454.99 1817.57 1452.94 Q1820.32 1450.86 1820.32 1446.97 Q1820.32 1442.98 1817.47 1440.86 Q1814.66 1438.71 1809.38 1438.71 Q1806.5 1438.71 1803.2 1439.33 Q1799.9 1439.96 1795.94 1441.27 L1795.94 1435.02 Q1799.93 1433.91 1803.41 1433.36 Q1806.91 1432.8 1810 1432.8 Q1817.99 1432.8 1822.64 1436.45 Q1827.29 1440.06 1827.29 1446.24 Q1827.29 1450.55 1824.83 1453.53 Q1822.36 1456.48 1817.82 1457.63 Z" fill="#000000" fill-rule="nonzero" fill-opacity="1" /><path clip-path="url(#clip550)" d="M2299.27 1439.85 L2281.56 1467.52 L2299.27 1467.52 L2299.27 1439.85 M2297.43 1433.74 L2306.25 1433.74 L2306.25 1467.52 L2313.65 1467.52 L2313.65 1473.36 L2306.25 1473.36 L2306.25 1485.58 L2299.27 1485.58 L2299.27 1473.36 L2275.87 1473.36 L2275.87 1466.59 L2297.43 1433.74 Z" fill="#000000" fill-rule="nonzero" fill-opacity="1" /><path clip-path="url(#clip550)" d="M1271.74 1527.62 L1271.74 1538.66 L1284.9 1538.66 L1284.9 1543.62 L1271.74 1543.62 L1271.74 1564.74 Q1271.74 1569.49 1273.03 1570.85 Q1274.35 1572.2 1278.34 1572.2 L1284.9 1572.2 L1284.9 1577.55 L1278.34 1577.55 Q1270.94 1577.55 1268.13 1574.8 Q1265.32 1572.03 1265.32 1564.74 L1265.32 1543.62 L1260.63 1543.62 L1260.63 1538.66 L1265.32 1538.66 L1265.32 1527.62 L1271.74 1527.62 Z" fill="#000000" fill-rule="nonzero" fill-opacity="1" /><path clip-path="url(#clip550)" d="M1315.32 1523.52 L1330.04 1523.52 L1330.04 1528.49 L1321.71 1528.49 L1321.71 1581.96 L1330.04 1581.96 L1330.04 1586.92 L1315.32 1586.92 L1315.32 1523.52 Z" fill="#000000" fill-rule="nonzero" fill-opacity="1" /><path clip-path="url(#clip550)" d="M1368.44 1539.8 L1368.44 1545.85 Q1365.73 1544.46 1362.82 1543.76 Q1359.9 1543.07 1356.78 1543.07 Q1352.02 1543.07 1349.62 1544.53 Q1347.26 1545.99 1347.26 1548.9 Q1347.26 1551.12 1348.96 1552.41 Q1350.66 1553.66 1355.8 1554.8 L1357.99 1555.29 Q1364.8 1556.75 1367.64 1559.42 Q1370.53 1562.06 1370.53 1566.82 Q1370.53 1572.24 1366.22 1575.4 Q1361.95 1578.55 1354.45 1578.55 Q1351.32 1578.55 1347.92 1577.93 Q1344.55 1577.34 1340.8 1576.12 L1340.8 1569.53 Q1344.34 1571.37 1347.78 1572.3 Q1351.22 1573.21 1354.59 1573.21 Q1359.1 1573.21 1361.53 1571.68 Q1363.96 1570.12 1363.96 1567.3 Q1363.96 1564.7 1362.19 1563.31 Q1360.46 1561.92 1354.52 1560.64 L1352.3 1560.12 Q1346.36 1558.87 1343.72 1556.3 Q1341.08 1553.69 1341.08 1549.18 Q1341.08 1543.69 1344.97 1540.71 Q1348.86 1537.72 1356.01 1537.72 Q1359.55 1537.72 1362.68 1538.24 Q1365.8 1538.76 1368.44 1539.8 Z" fill="#000000" fill-rule="nonzero" fill-opacity="1" /><path clip-path="url(#clip550)" d="M1395.63 1523.52 L1395.63 1586.92 L1380.91 1586.92 L1380.91 1581.96 L1389.21 1581.96 L1389.21 1528.49 L1380.91 1528.49 L1380.91 1523.52 L1395.63 1523.52 Z" fill="#000000" fill-rule="nonzero" fill-opacity="1" /><polyline clip-path="url(#clip552)" style="stroke:#000000; stroke-linecap:round; stroke-linejoin:round; stroke-width:2; stroke-opacity:0.1; fill:none" points="303.503,1398.92 2352.76,1398.92 "/>
<polyline clip-path="url(#clip552)" style="stroke:#000000; stroke-linecap:round; stroke-linejoin:round; stroke-width:2; stroke-opacity:0.1; fill:none" points="303.503,1113.36 2352.76,1113.36 "/>
<polyline clip-path="url(#clip552)" style="stroke:#000000; stroke-linecap:round; stroke-linejoin:round; stroke-width:2; stroke-opacity:0.1; fill:none" points="303.503,827.793 2352.76,827.793 "/>
<polyline clip-path="url(#clip552)" style="stroke:#000000; stroke-linecap:round; stroke-linejoin:round; stroke-width:2; stroke-opacity:0.1; fill:none" points="303.503,542.23 2352.76,542.23 "/>
<polyline clip-path="url(#clip552)" style="stroke:#000000; stroke-linecap:round; stroke-linejoin:round; stroke-width:2; stroke-opacity:0.1; fill:none" points="303.503,256.668 2352.76,256.668 "/>
<polyline clip-path="url(#clip550)" style="stroke:#000000; stroke-linecap:round; stroke-linejoin:round; stroke-width:4; stroke-opacity:1; fill:none" points="303.503,1401.58 303.503,123.472 "/>
<polyline clip-path="url(#clip550)" style="stroke:#000000; stroke-linecap:round; stroke-linejoin:round; stroke-width:4; stroke-opacity:1; fill:none" points="303.503,1398.92 322.401,1398.92 "/>
<polyline clip-path="url(#clip550)" style="stroke:#000000; stroke-linecap:round; stroke-linejoin:round; stroke-width:4; stroke-opacity:1; fill:none" points="303.503,1113.36 322.401,1113.36 "/>
<polyline clip-path="url(#clip550)" style="stroke:#000000; stroke-linecap:round; stroke-linejoin:round; stroke-width:4; stroke-opacity:1; fill:none" points="303.503,827.793 322.401,827.793 "/>
<polyline clip-path="url(#clip550)" style="stroke:#000000; stroke-linecap:round; stroke-linejoin:round; stroke-width:4; stroke-opacity:1; fill:none" points="303.503,542.23 322.401,542.23 "/>
<polyline clip-path="url(#clip550)" style="stroke:#000000; stroke-linecap:round; stroke-linejoin:round; stroke-width:4; stroke-opacity:1; fill:none" points="303.503,256.668 322.401,256.668 "/>
<path clip-path="url(#clip550)" d="M136.497 1377.62 Q131.08 1377.62 128.337 1382.96 Q125.629 1388.28 125.629 1398.97 Q125.629 1409.63 128.337 1414.98 Q131.08 1420.29 136.497 1420.29 Q141.948 1420.29 144.656 1414.98 Q147.399 1409.63 147.399 1398.97 Q147.399 1388.28 144.656 1382.96 Q141.948 1377.62 136.497 1377.62 M136.497 1372.06 Q145.212 1372.06 149.795 1378.97 Q154.413 1385.85 154.413 1398.97 Q154.413 1412.06 149.795 1418.97 Q145.212 1425.85 136.497 1425.85 Q127.781 1425.85 123.163 1418.97 Q118.58 1412.06 118.58 1398.97 Q118.58 1385.85 123.163 1378.97 Q127.781 1372.06 136.497 1372.06 Z" fill="#000000" fill-rule="nonzero" fill-opacity="1" /><path clip-path="url(#clip550)" d="M166.74 1416.02 L174.066 1416.02 L174.066 1424.84 L166.74 1424.84 L166.74 1416.02 Z" fill="#000000" fill-rule="nonzero" fill-opacity="1" /><path clip-path="url(#clip550)" d="M189.413 1373 L216.948 1373 L216.948 1378.9 L195.837 1378.9 L195.837 1391.61 Q197.364 1391.09 198.892 1390.85 Q200.42 1390.57 201.948 1390.57 Q210.628 1390.57 215.698 1395.32 Q220.767 1400.08 220.767 1408.21 Q220.767 1416.57 215.559 1421.23 Q210.35 1425.85 200.871 1425.85 Q197.608 1425.85 194.205 1425.29 Q190.837 1424.73 187.226 1423.62 L187.226 1416.57 Q190.351 1418.28 193.684 1419.11 Q197.017 1419.94 200.732 1419.94 Q206.739 1419.94 210.246 1416.78 Q213.753 1413.62 213.753 1408.21 Q213.753 1402.79 210.246 1399.63 Q206.739 1396.47 200.732 1396.47 Q197.92 1396.47 195.108 1397.1 Q192.33 1397.72 189.413 1399.04 L189.413 1373 Z" fill="#000000" fill-rule="nonzero" fill-opacity="1" /><path clip-path="url(#clip550)" d="M249.586 1377.62 Q244.17 1377.62 241.427 1382.96 Q238.718 1388.28 238.718 1398.97 Q238.718 1409.63 241.427 1414.98 Q244.17 1420.29 249.586 1420.29 Q255.038 1420.29 257.746 1414.98 Q260.489 1409.63 260.489 1398.97 Q260.489 1388.28 257.746 1382.96 Q255.038 1377.62 249.586 1377.62 M249.586 1372.06 Q258.302 1372.06 262.885 1378.97 Q267.503 1385.85 267.503 1398.97 Q267.503 1412.06 262.885 1418.97 Q258.302 1425.85 249.586 1425.85 Q240.871 1425.85 236.253 1418.97 Q231.67 1412.06 231.67 1398.97 Q231.67 1385.85 236.253 1378.97 Q240.871 1372.06 249.586 1372.06 Z" fill="#000000" fill-rule="nonzero" fill-opacity="1" /><path clip-path="url(#clip550)" d="M137.99 1092.05 Q132.573 1092.05 129.83 1097.4 Q127.122 1102.71 127.122 1113.41 Q127.122 1124.07 129.83 1129.41 Q132.573 1134.73 137.99 1134.73 Q143.441 1134.73 146.149 1129.41 Q148.892 1124.07 148.892 1113.41 Q148.892 1102.71 146.149 1097.4 Q143.441 1092.05 137.99 1092.05 M137.99 1086.5 Q146.705 1086.5 151.288 1093.41 Q155.906 1100.28 155.906 1113.41 Q155.906 1126.5 151.288 1133.41 Q146.705 1140.28 137.99 1140.28 Q129.275 1140.28 124.657 1133.41 Q120.073 1126.5 120.073 1113.41 Q120.073 1100.28 124.657 1093.41 Q129.275 1086.5 137.99 1086.5 Z" fill="#000000" fill-rule="nonzero" fill-opacity="1" /><path clip-path="url(#clip550)" d="M168.233 1130.46 L175.559 1130.46 L175.559 1139.28 L168.233 1139.28 L168.233 1130.46 Z" fill="#000000" fill-rule="nonzero" fill-opacity="1" /><path clip-path="url(#clip550)" d="M189.066 1087.44 L222.399 1087.44 L222.399 1090.42 L203.58 1139.28 L196.253 1139.28 L213.962 1093.34 L189.066 1093.34 L189.066 1087.44 Z" fill="#000000" fill-rule="nonzero" fill-opacity="1" /><path clip-path="url(#clip550)" d="M236.149 1087.44 L263.684 1087.44 L263.684 1093.34 L242.573 1093.34 L242.573 1106.05 Q244.1 1105.53 245.628 1105.28 Q247.156 1105 248.684 1105 Q257.364 1105 262.434 1109.76 Q267.503 1114.52 267.503 1122.64 Q267.503 1131.01 262.295 1135.66 Q257.086 1140.28 247.607 1140.28 Q244.343 1140.28 240.941 1139.73 Q237.573 1139.17 233.961 1138.06 L233.961 1131.01 Q237.086 1132.71 240.42 1133.55 Q243.753 1134.38 247.468 1134.38 Q253.475 1134.38 256.982 1131.22 Q260.489 1128.06 260.489 1122.64 Q260.489 1117.23 256.982 1114.07 Q253.475 1110.91 247.468 1110.91 Q244.656 1110.91 241.843 1111.53 Q239.066 1112.16 236.149 1113.48 L236.149 1087.44 Z" fill="#000000" fill-rule="nonzero" fill-opacity="1" /><path clip-path="url(#clip550)" d="M122.712 847.81 L134.17 847.81 L134.17 808.262 L121.705 810.762 L121.705 804.373 L134.101 801.873 L141.115 801.873 L141.115 847.81 L152.573 847.81 L152.573 853.713 L122.712 853.713 L122.712 847.81 Z" fill="#000000" fill-rule="nonzero" fill-opacity="1" /><path clip-path="url(#clip550)" d="M166.74 844.894 L174.066 844.894 L174.066 853.713 L166.74 853.713 L166.74 844.894 Z" fill="#000000" fill-rule="nonzero" fill-opacity="1" /><path clip-path="url(#clip550)" d="M204.344 806.491 Q198.927 806.491 196.184 811.838 Q193.476 817.151 193.476 827.845 Q193.476 838.505 196.184 843.852 Q198.927 849.164 204.344 849.164 Q209.795 849.164 212.503 843.852 Q215.246 838.505 215.246 827.845 Q215.246 817.151 212.503 811.838 Q209.795 806.491 204.344 806.491 M204.344 800.935 Q213.059 800.935 217.642 807.845 Q222.26 814.72 222.26 827.845 Q222.26 840.935 217.642 847.845 Q213.059 854.72 204.344 854.72 Q195.628 854.72 191.01 847.845 Q186.427 840.935 186.427 827.845 Q186.427 814.72 191.01 807.845 Q195.628 800.935 204.344 800.935 Z" fill="#000000" fill-rule="nonzero" fill-opacity="1" /><path clip-path="url(#clip550)" d="M249.586 806.491 Q244.17 806.491 241.427 811.838 Q238.718 817.151 238.718 827.845 Q238.718 838.505 241.427 843.852 Q244.17 849.164 249.586 849.164 Q255.038 849.164 257.746 843.852 Q260.489 838.505 260.489 827.845 Q260.489 817.151 257.746 811.838 Q255.038 806.491 249.586 806.491 M249.586 800.935 Q258.302 800.935 262.885 807.845 Q267.503 814.72 267.503 827.845 Q267.503 840.935 262.885 847.845 Q258.302 854.72 249.586 854.72 Q240.871 854.72 236.253 847.845 Q231.67 840.935 231.67 827.845 Q231.67 814.72 236.253 807.845 Q240.871 800.935 249.586 800.935 Z" fill="#000000" fill-rule="nonzero" fill-opacity="1" /><path clip-path="url(#clip550)" d="M124.205 562.248 L135.663 562.248 L135.663 522.699 L123.198 525.199 L123.198 518.81 L135.594 516.31 L142.608 516.31 L142.608 562.248 L154.066 562.248 L154.066 568.15 L124.205 568.15 L124.205 562.248 Z" fill="#000000" fill-rule="nonzero" fill-opacity="1" /><path clip-path="url(#clip550)" d="M168.233 559.331 L175.559 559.331 L175.559 568.15 L168.233 568.15 L168.233 559.331 Z" fill="#000000" fill-rule="nonzero" fill-opacity="1" /><path clip-path="url(#clip550)" d="M196.878 562.248 L221.357 562.248 L221.357 568.15 L188.441 568.15 L188.441 562.248 Q192.434 558.116 199.309 551.171 Q206.219 544.192 207.989 542.178 Q211.357 538.394 212.677 535.789 Q214.031 533.151 214.031 530.616 Q214.031 526.484 211.114 523.88 Q208.232 521.276 203.58 521.276 Q200.281 521.276 196.601 522.421 Q192.955 523.567 188.788 525.894 L188.788 518.81 Q193.024 517.109 196.705 516.241 Q200.385 515.373 203.441 515.373 Q211.496 515.373 216.288 519.401 Q221.08 523.428 221.08 530.164 Q221.08 533.359 219.864 536.241 Q218.684 539.088 215.524 542.977 Q214.656 543.984 210.003 548.81 Q205.351 553.602 196.878 562.248 Z" fill="#000000" fill-rule="nonzero" fill-opacity="1" /><path clip-path="url(#clip550)" d="M236.149 516.31 L263.684 516.31 L263.684 522.213 L242.573 522.213 L242.573 534.921 Q244.1 534.401 245.628 534.157 Q247.156 533.88 248.684 533.88 Q257.364 533.88 262.434 538.637 Q267.503 543.394 267.503 551.519 Q267.503 559.887 262.295 564.539 Q257.086 569.157 247.607 569.157 Q244.343 569.157 240.941 568.602 Q237.573 568.046 233.961 566.935 L233.961 559.887 Q237.086 561.588 240.42 562.421 Q243.753 563.255 247.468 563.255 Q253.475 563.255 256.982 560.095 Q260.489 556.935 260.489 551.519 Q260.489 546.102 256.982 542.942 Q253.475 539.782 247.468 539.782 Q244.656 539.782 241.843 540.407 Q239.066 541.032 236.149 542.352 L236.149 516.31 Z" fill="#000000" fill-rule="nonzero" fill-opacity="1" /><path clip-path="url(#clip550)" d="M122.712 276.685 L134.17 276.685 L134.17 237.137 L121.705 239.637 L121.705 233.248 L134.101 230.748 L141.115 230.748 L141.115 276.685 L152.573 276.685 L152.573 282.588 L122.712 282.588 L122.712 276.685 Z" fill="#000000" fill-rule="nonzero" fill-opacity="1" /><path clip-path="url(#clip550)" d="M166.74 273.768 L174.066 273.768 L174.066 282.588 L166.74 282.588 L166.74 273.768 Z" fill="#000000" fill-rule="nonzero" fill-opacity="1" /><path clip-path="url(#clip550)" d="M189.413 230.748 L216.948 230.748 L216.948 236.651 L195.837 236.651 L195.837 249.359 Q197.364 248.838 198.892 248.595 Q200.42 248.317 201.948 248.317 Q210.628 248.317 215.698 253.074 Q220.767 257.831 220.767 265.956 Q220.767 274.324 215.559 278.977 Q210.35 283.595 200.871 283.595 Q197.608 283.595 194.205 283.039 Q190.837 282.484 187.226 281.372 L187.226 274.324 Q190.351 276.025 193.684 276.859 Q197.017 277.692 200.732 277.692 Q206.739 277.692 210.246 274.532 Q213.753 271.373 213.753 265.956 Q213.753 260.539 210.246 257.38 Q206.739 254.22 200.732 254.22 Q197.92 254.22 195.108 254.845 Q192.33 255.47 189.413 256.789 L189.413 230.748 Z" fill="#000000" fill-rule="nonzero" fill-opacity="1" /><path clip-path="url(#clip550)" d="M249.586 235.366 Q244.17 235.366 241.427 240.713 Q238.718 246.025 238.718 256.72 Q238.718 267.38 241.427 272.727 Q244.17 278.039 249.586 278.039 Q255.038 278.039 257.746 272.727 Q260.489 267.38 260.489 256.72 Q260.489 246.025 257.746 240.713 Q255.038 235.366 249.586 235.366 M249.586 229.81 Q258.302 229.81 262.885 236.72 Q267.503 243.595 267.503 256.72 Q267.503 269.81 262.885 276.72 Q258.302 283.595 249.586 283.595 Q240.871 283.595 236.253 276.72 Q231.67 269.81 231.67 256.72 Q231.67 243.595 236.253 236.72 Q240.871 229.81 249.586 229.81 Z" fill="#000000" fill-rule="nonzero" fill-opacity="1" /><path clip-path="url(#clip550)" d="M35.6047 1045.01 Q31.2992 1042.61 29.2506 1039.28 Q27.202 1035.94 27.202 1031.43 Q27.202 1025.35 31.4728 1022.06 Q35.7089 1018.76 43.5561 1018.76 L67.0282 1018.76 L67.0282 1025.18 L43.7644 1025.18 Q38.1741 1025.18 35.4658 1027.16 Q32.7575 1029.14 32.7575 1033.2 Q32.7575 1038.17 36.0561 1041.05 Q39.3547 1043.93 45.0491 1043.93 L67.0282 1043.93 L67.0282 1050.35 L43.7644 1050.35 Q38.1394 1050.35 35.4658 1052.33 Q32.7575 1054.31 32.7575 1058.44 Q32.7575 1063.34 36.0908 1066.22 Q39.3894 1069.1 45.0491 1069.1 L67.0282 1069.1 L67.0282 1075.53 L28.1395 1075.53 L28.1395 1069.1 L34.1811 1069.1 Q30.6047 1066.92 28.9034 1063.86 Q27.202 1060.81 27.202 1056.6 Q27.202 1052.37 29.3547 1049.42 Q31.5075 1046.43 35.6047 1045.01 Z" fill="#000000" fill-rule="nonzero" fill-opacity="1" /><path clip-path="url(#clip550)" d="M47.4797 988.341 Q47.4797 996.084 49.2505 999.07 Q51.0213 1002.06 55.2921 1002.06 Q58.6949 1002.06 60.7087 999.834 Q62.6879 997.577 62.6879 993.723 Q62.6879 988.41 58.9379 985.216 Q55.1532 981.987 48.9033 981.987 L47.4797 981.987 L47.4797 988.341 M44.8408 975.598 L67.0282 975.598 L67.0282 981.987 L61.1254 981.987 Q64.6671 984.174 66.3684 987.438 Q68.0351 990.702 68.0351 995.424 Q68.0351 1001.4 64.7018 1004.94 Q61.3337 1008.44 55.7088 1008.44 Q49.1463 1008.44 45.813 1004.07 Q42.4797 999.66 42.4797 990.945 L42.4797 981.987 L41.8547 981.987 Q37.445 981.987 35.0492 984.903 Q32.6186 987.785 32.6186 993.028 Q32.6186 996.362 33.4172 999.521 Q34.2158 1002.68 35.813 1005.6 L29.9103 1005.6 Q28.5561 1002.09 27.8964 998.792 Q27.202 995.493 27.202 992.369 Q27.202 983.931 31.577 979.764 Q35.9519 975.598 44.8408 975.598 Z" fill="#000000" fill-rule="nonzero" fill-opacity="1" /><path clip-path="url(#clip550)" d="M29.2853 937.647 L35.3269 937.647 Q33.9381 940.355 33.2436 943.272 Q32.5492 946.188 32.5492 949.313 Q32.5492 954.07 34.0075 956.466 Q35.4658 958.827 38.3825 958.827 Q40.6047 958.827 41.8894 957.126 Q43.1394 955.424 44.2852 950.285 L44.7713 948.098 Q46.2297 941.292 48.9033 938.445 Q51.5421 935.563 56.299 935.563 Q61.7157 935.563 64.8754 939.869 Q68.0351 944.14 68.0351 951.64 Q68.0351 954.765 67.4101 958.167 Q66.8198 961.535 65.6046 965.285 L59.0074 965.285 Q60.8476 961.744 61.7851 958.306 Q62.6879 954.869 62.6879 951.501 Q62.6879 946.987 61.1601 944.556 Q59.5976 942.126 56.7852 942.126 Q54.181 942.126 52.7921 943.897 Q51.4032 945.633 50.1185 951.57 L49.5977 953.792 Q48.3477 959.73 45.7783 962.369 Q43.1741 965.008 38.6603 965.008 Q33.1742 965.008 30.1881 961.119 Q27.202 957.23 27.202 950.077 Q27.202 946.535 27.7228 943.41 Q28.2436 940.285 29.2853 937.647 Z" fill="#000000" fill-rule="nonzero" fill-opacity="1" /><path clip-path="url(#clip550)" d="M29.2853 900.598 L35.3269 900.598 Q33.9381 903.306 33.2436 906.223 Q32.5492 909.14 32.5492 912.265 Q32.5492 917.022 34.0075 919.418 Q35.4658 921.779 38.3825 921.779 Q40.6047 921.779 41.8894 920.077 Q43.1394 918.376 44.2852 913.237 L44.7713 911.049 Q46.2297 904.244 48.9033 901.397 Q51.5421 898.515 56.299 898.515 Q61.7157 898.515 64.8754 902.82 Q68.0351 907.091 68.0351 914.591 Q68.0351 917.716 67.4101 921.119 Q66.8198 924.487 65.6046 928.237 L59.0074 928.237 Q60.8476 924.695 61.7851 921.258 Q62.6879 917.82 62.6879 914.452 Q62.6879 909.938 61.1601 907.508 Q59.5976 905.077 56.7852 905.077 Q54.181 905.077 52.7921 906.848 Q51.4032 908.584 50.1185 914.522 L49.5977 916.744 Q48.3477 922.681 45.7783 925.32 Q43.1741 927.959 38.6603 927.959 Q33.1742 927.959 30.1881 924.07 Q27.202 920.181 27.202 913.029 Q27.202 909.487 27.7228 906.362 Q28.2436 903.237 29.2853 900.598 Z" fill="#000000" fill-rule="nonzero" fill-opacity="1" /><path clip-path="url(#clip550)" d="M61.1949 859.557 L81.8197 859.557 L81.8197 865.98 L28.1395 865.98 L28.1395 859.557 L34.0422 859.557 Q30.57 857.543 28.9034 854.487 Q27.202 851.397 27.202 847.126 Q27.202 840.043 32.827 835.633 Q38.4519 831.189 47.6185 831.189 Q56.7852 831.189 62.4101 835.633 Q68.0351 840.043 68.0351 847.126 Q68.0351 851.397 66.3684 854.487 Q64.6671 857.543 61.1949 859.557 M47.6185 837.821 Q40.57 837.821 36.5769 840.737 Q32.5492 843.619 32.5492 848.689 Q32.5492 853.758 36.5769 856.675 Q40.57 859.557 47.6185 859.557 Q54.6671 859.557 58.6949 856.675 Q62.6879 853.758 62.6879 848.689 Q62.6879 843.619 58.6949 840.737 Q54.6671 837.821 47.6185 837.821 Z" fill="#000000" fill-rule="nonzero" fill-opacity="1" /><path clip-path="url(#clip550)" d="M32.6186 805.529 Q32.6186 810.668 36.6464 813.654 Q40.6394 816.64 47.6185 816.64 Q54.5977 816.64 58.6254 813.689 Q62.6185 810.703 62.6185 805.529 Q62.6185 800.425 58.5907 797.439 Q54.5629 794.453 47.6185 794.453 Q40.7089 794.453 36.6811 797.439 Q32.6186 800.425 32.6186 805.529 M27.202 805.529 Q27.202 797.196 32.6186 792.439 Q38.0353 787.682 47.6185 787.682 Q57.1671 787.682 62.6185 792.439 Q68.0351 797.196 68.0351 805.529 Q68.0351 813.897 62.6185 818.654 Q57.1671 823.376 47.6185 823.376 Q38.0353 823.376 32.6186 818.654 Q27.202 813.897 27.202 805.529 Z" fill="#000000" fill-rule="nonzero" fill-opacity="1" /><path clip-path="url(#clip550)" d="M29.2853 752.3 L35.3269 752.3 Q33.9381 755.009 33.2436 757.925 Q32.5492 760.842 32.5492 763.967 Q32.5492 768.724 34.0075 771.12 Q35.4658 773.481 38.3825 773.481 Q40.6047 773.481 41.8894 771.779 Q43.1394 770.078 44.2852 764.939 L44.7713 762.752 Q46.2297 755.946 48.9033 753.099 Q51.5421 750.217 56.299 750.217 Q61.7157 750.217 64.8754 754.523 Q68.0351 758.793 68.0351 766.293 Q68.0351 769.418 67.4101 772.821 Q66.8198 776.189 65.6046 779.939 L59.0074 779.939 Q60.8476 776.397 61.7851 772.96 Q62.6879 769.522 62.6879 766.154 Q62.6879 761.641 61.1601 759.21 Q59.5976 756.779 56.7852 756.779 Q54.181 756.779 52.7921 758.55 Q51.4032 760.286 50.1185 766.224 L49.5977 768.446 Q48.3477 774.384 45.7783 777.022 Q43.1741 779.661 38.6603 779.661 Q33.1742 779.661 30.1881 775.772 Q27.202 771.884 27.202 764.731 Q27.202 761.189 27.7228 758.064 Q28.2436 754.939 29.2853 752.3 Z" fill="#000000" fill-rule="nonzero" fill-opacity="1" /><path clip-path="url(#clip550)" d="M28.1395 740.043 L28.1395 733.655 L67.0282 733.655 L67.0282 740.043 L28.1395 740.043 M13.0007 740.043 L13.0007 733.655 L21.0909 733.655 L21.0909 740.043 L13.0007 740.043 Z" fill="#000000" fill-rule="nonzero" fill-opacity="1" /><path clip-path="url(#clip550)" d="M17.0979 713.967 L28.1395 713.967 L28.1395 700.808 L33.1047 700.808 L33.1047 713.967 L54.2157 713.967 Q58.9726 713.967 60.3268 712.683 Q61.681 711.363 61.681 707.37 L61.681 700.808 L67.0282 700.808 L67.0282 707.37 Q67.0282 714.766 64.2851 717.578 Q61.5074 720.391 54.2157 720.391 L33.1047 720.391 L33.1047 725.078 L28.1395 725.078 L28.1395 720.391 L17.0979 720.391 L17.0979 713.967 Z" fill="#000000" fill-rule="nonzero" fill-opacity="1" /><path clip-path="url(#clip550)" d="M28.1395 692.405 L28.1395 686.016 L67.0282 686.016 L67.0282 692.405 L28.1395 692.405 M13.0007 692.405 L13.0007 686.016 L21.0909 686.016 L21.0909 692.405 L13.0007 692.405 Z" fill="#000000" fill-rule="nonzero" fill-opacity="1" /><path clip-path="url(#clip550)" d="M32.6186 657.579 Q32.6186 662.717 36.6464 665.704 Q40.6394 668.69 47.6185 668.69 Q54.5977 668.69 58.6254 665.738 Q62.6185 662.752 62.6185 657.579 Q62.6185 652.474 58.5907 649.488 Q54.5629 646.502 47.6185 646.502 Q40.7089 646.502 36.6811 649.488 Q32.6186 652.474 32.6186 657.579 M27.202 657.579 Q27.202 649.245 32.6186 644.488 Q38.0353 639.732 47.6185 639.732 Q57.1671 639.732 62.6185 644.488 Q68.0351 649.245 68.0351 657.579 Q68.0351 665.947 62.6185 670.704 Q57.1671 675.426 47.6185 675.426 Q38.0353 675.426 32.6186 670.704 Q27.202 665.947 27.202 657.579 Z" fill="#000000" fill-rule="nonzero" fill-opacity="1" /><path clip-path="url(#clip550)" d="M43.5561 596.815 L67.0282 596.815 L67.0282 603.204 L43.7644 603.204 Q38.2436 603.204 35.5005 605.357 Q32.7575 607.509 32.7575 611.815 Q32.7575 616.989 36.0561 619.975 Q39.3547 622.961 45.0491 622.961 L67.0282 622.961 L67.0282 629.384 L28.1395 629.384 L28.1395 622.961 L34.1811 622.961 Q30.6742 620.669 28.9381 617.579 Q27.202 614.454 27.202 610.391 Q27.202 603.69 31.3686 600.253 Q35.5005 596.815 43.5561 596.815 Z" fill="#000000" fill-rule="nonzero" fill-opacity="1" /><path clip-path="url(#clip550)" d="M13.0007 562.058 L13.0007 547.336 L17.9659 547.336 L17.9659 555.669 L71.4379 555.669 L71.4379 547.336 L76.4031 547.336 L76.4031 562.058 L13.0007 562.058 Z" fill="#000000" fill-rule="nonzero" fill-opacity="1" /><path clip-path="url(#clip550)" d="M35.6047 503.448 Q31.2992 501.052 29.2506 497.718 Q27.202 494.385 27.202 489.871 Q27.202 483.795 31.4728 480.496 Q35.7089 477.198 43.5561 477.198 L67.0282 477.198 L67.0282 483.621 L43.7644 483.621 Q38.1741 483.621 35.4658 485.6 Q32.7575 487.58 32.7575 491.642 Q32.7575 496.607 36.0561 499.489 Q39.3547 502.371 45.0491 502.371 L67.0282 502.371 L67.0282 508.795 L43.7644 508.795 Q38.1394 508.795 35.4658 510.774 Q32.7575 512.753 32.7575 516.885 Q32.7575 521.781 36.0908 524.663 Q39.3894 527.545 45.0491 527.545 L67.0282 527.545 L67.0282 533.968 L28.1395 533.968 L28.1395 527.545 L34.1811 527.545 Q30.6047 525.357 28.9034 522.302 Q27.202 519.246 27.202 515.045 Q27.202 510.809 29.3547 507.857 Q31.5075 504.871 35.6047 503.448 Z" fill="#000000" fill-rule="nonzero" fill-opacity="1" /><path clip-path="url(#clip550)" d="M13.0007 449.524 L76.4031 449.524 L76.4031 464.246 L71.4379 464.246 L71.4379 455.948 L17.9659 455.948 L17.9659 464.246 L13.0007 464.246 L13.0007 449.524 Z" fill="#000000" fill-rule="nonzero" fill-opacity="1" /><path clip-path="url(#clip550)" d="M592.668 12.096 L604.861 12.096 L620.295 53.2532 L635.81 12.096 L648.003 12.096 L648.003 72.576 L640.023 72.576 L640.023 19.4686 L624.427 60.9499 L616.203 60.9499 L600.607 19.4686 L600.607 72.576 L592.668 72.576 L592.668 12.096 Z" fill="#000000" fill-rule="nonzero" fill-opacity="1" /><path clip-path="url(#clip550)" d="M681.504 32.4315 Q675.509 32.4315 672.025 37.1306 Q668.541 41.7891 668.541 49.9314 Q668.541 58.0738 671.984 62.7728 Q675.468 67.4314 681.504 67.4314 Q687.459 67.4314 690.942 62.7323 Q694.426 58.0333 694.426 49.9314 Q694.426 41.8701 690.942 37.1711 Q687.459 32.4315 681.504 32.4315 M681.504 26.1121 Q691.226 26.1121 696.776 32.4315 Q702.325 38.7509 702.325 49.9314 Q702.325 61.0714 696.776 67.4314 Q691.226 73.7508 681.504 73.7508 Q671.741 73.7508 666.191 67.4314 Q660.682 61.0714 660.682 49.9314 Q660.682 38.7509 666.191 32.4315 Q671.741 26.1121 681.504 26.1121 Z" fill="#000000" fill-rule="nonzero" fill-opacity="1" /><path clip-path="url(#clip550)" d="M744.536 34.0924 L744.536 9.54393 L751.99 9.54393 L751.99 72.576 L744.536 72.576 L744.536 65.7705 Q742.186 69.8214 738.581 71.8063 Q735.016 73.7508 729.993 73.7508 Q721.77 73.7508 716.585 67.1883 Q711.44 60.6258 711.44 49.9314 Q711.44 39.2371 716.585 32.6746 Q721.77 26.1121 729.993 26.1121 Q735.016 26.1121 738.581 28.0971 Q742.186 30.0415 744.536 34.0924 M719.137 49.9314 Q719.137 58.1548 722.499 62.8538 Q725.902 67.5124 731.816 67.5124 Q737.73 67.5124 741.133 62.8538 Q744.536 58.1548 744.536 49.9314 Q744.536 41.7081 741.133 37.0496 Q737.73 32.3505 731.816 32.3505 Q725.902 32.3505 722.499 37.0496 Q719.137 41.7081 719.137 49.9314 Z" fill="#000000" fill-rule="nonzero" fill-opacity="1" /><path clip-path="url(#clip550)" d="M767.343 27.2059 L774.796 27.2059 L774.796 72.576 L767.343 72.576 L767.343 27.2059 M767.343 9.54393 L774.796 9.54393 L774.796 18.9825 L767.343 18.9825 L767.343 9.54393 Z" fill="#000000" fill-rule="nonzero" fill-opacity="1" /><path clip-path="url(#clip550)" d="M813.361 9.54393 L813.361 15.7418 L806.231 15.7418 Q802.221 15.7418 800.641 17.3622 Q799.102 18.9825 799.102 23.1955 L799.102 27.2059 L811.376 27.2059 L811.376 32.9987 L799.102 32.9987 L799.102 72.576 L791.607 72.576 L791.607 32.9987 L784.478 32.9987 L784.478 27.2059 L791.607 27.2059 L791.607 24.0462 Q791.607 16.471 795.132 13.0277 Q798.656 9.54393 806.312 9.54393 L813.361 9.54393 Z" fill="#000000" fill-rule="nonzero" fill-opacity="1" /><path clip-path="url(#clip550)" d="M819.599 27.2059 L827.053 27.2059 L827.053 72.576 L819.599 72.576 L819.599 27.2059 M819.599 9.54393 L827.053 9.54393 L827.053 18.9825 L819.599 18.9825 L819.599 9.54393 Z" fill="#000000" fill-rule="nonzero" fill-opacity="1" /><path clip-path="url(#clip550)" d="M881.456 48.0275 L881.456 51.6733 L847.186 51.6733 Q847.672 59.3701 851.804 63.421 Q855.976 67.4314 863.389 67.4314 Q867.683 67.4314 871.694 66.3781 Q875.745 65.3249 879.715 63.2184 L879.715 70.267 Q875.704 71.9684 871.491 72.8596 Q867.278 73.7508 862.944 73.7508 Q852.087 73.7508 845.728 67.4314 Q839.408 61.1119 839.408 50.3365 Q839.408 39.1965 845.403 32.6746 Q851.439 26.1121 861.648 26.1121 Q870.803 26.1121 876.109 32.0264 Q881.456 37.9003 881.456 48.0275 M874.003 45.84 Q873.922 39.7232 870.56 36.0774 Q867.238 32.4315 861.729 32.4315 Q855.49 32.4315 851.723 35.9558 Q847.996 39.4801 847.429 45.8805 L874.003 45.84 Z" fill="#000000" fill-rule="nonzero" fill-opacity="1" /><path clip-path="url(#clip550)" d="M923.545 34.0924 L923.545 9.54393 L930.999 9.54393 L930.999 72.576 L923.545 72.576 L923.545 65.7705 Q921.196 69.8214 917.591 71.8063 Q914.026 73.7508 909.003 73.7508 Q900.779 73.7508 895.594 67.1883 Q890.449 60.6258 890.449 49.9314 Q890.449 39.2371 895.594 32.6746 Q900.779 26.1121 909.003 26.1121 Q914.026 26.1121 917.591 28.0971 Q921.196 30.0415 923.545 34.0924 M898.146 49.9314 Q898.146 58.1548 901.508 62.8538 Q904.911 67.5124 910.826 67.5124 Q916.74 67.5124 920.143 62.8538 Q923.545 58.1548 923.545 49.9314 Q923.545 41.7081 920.143 37.0496 Q916.74 32.3505 910.826 32.3505 Q904.911 32.3505 901.508 37.0496 Q898.146 41.7081 898.146 49.9314 Z" fill="#000000" fill-rule="nonzero" fill-opacity="1" /><path clip-path="url(#clip550)" d="M948.256 62.2867 L956.803 62.2867 L956.803 72.576 L948.256 72.576 L948.256 62.2867 M948.256 29.6769 L956.803 29.6769 L956.803 39.9662 L948.256 39.9662 L948.256 29.6769 Z" fill="#000000" fill-rule="nonzero" fill-opacity="1" /><path clip-path="url(#clip550)" d="M1001 12.096 L1013.19 12.096 L1028.63 53.2532 L1044.14 12.096 L1056.33 12.096 L1056.33 72.576 L1048.35 72.576 L1048.35 19.4686 L1032.76 60.9499 L1024.53 60.9499 L1008.94 19.4686 L1008.94 72.576 L1001 72.576 L1001 12.096 Z" fill="#000000" fill-rule="nonzero" fill-opacity="1" /><path clip-path="url(#clip550)" d="M1092.87 49.7694 Q1083.84 49.7694 1080.36 51.8354 Q1076.87 53.9013 1076.87 58.8839 Q1076.87 62.8538 1079.46 65.2034 Q1082.1 67.5124 1086.59 67.5124 Q1092.79 67.5124 1096.52 63.1374 Q1100.29 58.7219 1100.29 51.4303 L1100.29 49.7694 L1092.87 49.7694 M1107.74 46.6907 L1107.74 72.576 L1100.29 72.576 L1100.29 65.6895 Q1097.73 69.8214 1093.93 71.8063 Q1090.12 73.7508 1084.61 73.7508 Q1077.64 73.7508 1073.51 69.8619 Q1069.42 65.9325 1069.42 59.3701 Q1069.42 51.7138 1074.52 47.825 Q1079.67 43.9361 1089.83 43.9361 L1100.29 43.9361 L1100.29 43.2069 Q1100.29 38.0623 1096.88 35.2672 Q1093.52 32.4315 1087.4 32.4315 Q1083.52 32.4315 1079.83 33.3632 Q1076.14 34.295 1072.74 36.1584 L1072.74 29.2718 Q1076.83 27.692 1080.68 26.9223 Q1084.53 26.1121 1088.17 26.1121 Q1098.02 26.1121 1102.88 31.2163 Q1107.74 36.3204 1107.74 46.6907 Z" fill="#000000" fill-rule="nonzero" fill-opacity="1" /><path clip-path="url(#clip550)" d="M1152.02 28.5427 L1152.02 35.5912 Q1148.86 33.9709 1145.45 33.1607 Q1142.05 32.3505 1138.41 32.3505 Q1132.86 32.3505 1130.06 34.0519 Q1127.31 35.7533 1127.31 39.156 Q1127.31 41.7486 1129.29 43.2475 Q1131.28 44.7058 1137.27 46.0426 L1139.82 46.6097 Q1147.76 48.3111 1151.08 51.4303 Q1154.45 54.509 1154.45 60.0587 Q1154.45 66.3781 1149.42 70.0644 Q1144.44 73.7508 1135.69 73.7508 Q1132.05 73.7508 1128.08 73.0216 Q1124.15 72.3329 1119.77 70.9151 L1119.77 63.2184 Q1123.9 65.3654 1127.91 66.4591 Q1131.92 67.5124 1135.85 67.5124 Q1141.12 67.5124 1143.96 65.73 Q1146.79 63.9071 1146.79 60.6258 Q1146.79 57.5877 1144.72 55.9673 Q1142.7 54.3469 1135.77 52.8481 L1133.18 52.2405 Q1126.25 50.7821 1123.17 47.7845 Q1120.1 44.7463 1120.1 39.4801 Q1120.1 33.0797 1124.63 29.5959 Q1129.17 26.1121 1137.51 26.1121 Q1141.65 26.1121 1145.29 26.7198 Q1148.94 27.3274 1152.02 28.5427 Z" fill="#000000" fill-rule="nonzero" fill-opacity="1" /><path clip-path="url(#clip550)" d="M1195.24 28.5427 L1195.24 35.5912 Q1192.08 33.9709 1188.68 33.1607 Q1185.27 32.3505 1181.63 32.3505 Q1176.08 32.3505 1173.28 34.0519 Q1170.53 35.7533 1170.53 39.156 Q1170.53 41.7486 1172.51 43.2475 Q1174.5 44.7058 1180.49 46.0426 L1183.05 46.6097 Q1190.99 48.3111 1194.31 51.4303 Q1197.67 54.509 1197.67 60.0587 Q1197.67 66.3781 1192.65 70.0644 Q1187.66 73.7508 1178.91 73.7508 Q1175.27 73.7508 1171.3 73.0216 Q1167.37 72.3329 1162.99 70.9151 L1162.99 63.2184 Q1167.13 65.3654 1171.14 66.4591 Q1175.15 67.5124 1179.08 67.5124 Q1184.34 67.5124 1187.18 65.73 Q1190.01 63.9071 1190.01 60.6258 Q1190.01 57.5877 1187.95 55.9673 Q1185.92 54.3469 1179 52.8481 L1176.4 52.2405 Q1169.48 50.7821 1166.4 47.7845 Q1163.32 44.7463 1163.32 39.4801 Q1163.32 33.0797 1167.86 29.5959 Q1172.39 26.1121 1180.74 26.1121 Q1184.87 26.1121 1188.52 26.7198 Q1192.16 27.3274 1195.24 28.5427 Z" fill="#000000" fill-rule="nonzero" fill-opacity="1" /><path clip-path="url(#clip550)" d="M1243.12 65.7705 L1243.12 89.8329 L1235.63 89.8329 L1235.63 27.2059 L1243.12 27.2059 L1243.12 34.0924 Q1245.47 30.0415 1249.04 28.0971 Q1252.64 26.1121 1257.62 26.1121 Q1265.89 26.1121 1271.03 32.6746 Q1276.22 39.2371 1276.22 49.9314 Q1276.22 60.6258 1271.03 67.1883 Q1265.89 73.7508 1257.62 73.7508 Q1252.64 73.7508 1249.04 71.8063 Q1245.47 69.8214 1243.12 65.7705 M1268.48 49.9314 Q1268.48 41.7081 1265.08 37.0496 Q1261.71 32.3505 1255.8 32.3505 Q1249.89 32.3505 1246.48 37.0496 Q1243.12 41.7081 1243.12 49.9314 Q1243.12 58.1548 1246.48 62.8538 Q1249.89 67.5124 1255.8 67.5124 Q1261.71 67.5124 1265.08 62.8538 Q1268.48 58.1548 1268.48 49.9314 Z" fill="#000000" fill-rule="nonzero" fill-opacity="1" /><path clip-path="url(#clip550)" d="M1306.15 32.4315 Q1300.16 32.4315 1296.67 37.1306 Q1293.19 41.7891 1293.19 49.9314 Q1293.19 58.0738 1296.63 62.7728 Q1300.12 67.4314 1306.15 67.4314 Q1312.11 67.4314 1315.59 62.7323 Q1319.08 58.0333 1319.08 49.9314 Q1319.08 41.8701 1315.59 37.1711 Q1312.11 32.4315 1306.15 32.4315 M1306.15 26.1121 Q1315.88 26.1121 1321.43 32.4315 Q1326.97 38.7509 1326.97 49.9314 Q1326.97 61.0714 1321.43 67.4314 Q1315.88 73.7508 1306.15 73.7508 Q1296.39 73.7508 1290.84 67.4314 Q1285.33 61.0714 1285.33 49.9314 Q1285.33 38.7509 1290.84 32.4315 Q1296.39 26.1121 1306.15 26.1121 Z" fill="#000000" fill-rule="nonzero" fill-opacity="1" /><path clip-path="url(#clip550)" d="M1368.25 28.5427 L1368.25 35.5912 Q1365.09 33.9709 1361.69 33.1607 Q1358.29 32.3505 1354.64 32.3505 Q1349.09 32.3505 1346.3 34.0519 Q1343.54 35.7533 1343.54 39.156 Q1343.54 41.7486 1345.53 43.2475 Q1347.51 44.7058 1353.51 46.0426 L1356.06 46.6097 Q1364 48.3111 1367.32 51.4303 Q1370.68 54.509 1370.68 60.0587 Q1370.68 66.3781 1365.66 70.0644 Q1360.68 73.7508 1351.93 73.7508 Q1348.28 73.7508 1344.31 73.0216 Q1340.38 72.3329 1336.01 70.9151 L1336.01 63.2184 Q1340.14 65.3654 1344.15 66.4591 Q1348.16 67.5124 1352.09 67.5124 Q1357.36 67.5124 1360.19 65.73 Q1363.03 63.9071 1363.03 60.6258 Q1363.03 57.5877 1360.96 55.9673 Q1358.94 54.3469 1352.01 52.8481 L1349.42 52.2405 Q1342.49 50.7821 1339.41 47.7845 Q1336.33 44.7463 1336.33 39.4801 Q1336.33 33.0797 1340.87 29.5959 Q1345.41 26.1121 1353.75 26.1121 Q1357.88 26.1121 1361.53 26.7198 Q1365.17 27.3274 1368.25 28.5427 Z" fill="#000000" fill-rule="nonzero" fill-opacity="1" /><path clip-path="url(#clip550)" d="M1382.55 27.2059 L1390.01 27.2059 L1390.01 72.576 L1382.55 72.576 L1382.55 27.2059 M1382.55 9.54393 L1390.01 9.54393 L1390.01 18.9825 L1382.55 18.9825 L1382.55 9.54393 Z" fill="#000000" fill-rule="nonzero" fill-opacity="1" /><path clip-path="url(#clip550)" d="M1412.98 14.324 L1412.98 27.2059 L1428.33 27.2059 L1428.33 32.9987 L1412.98 32.9987 L1412.98 57.6282 Q1412.98 63.1779 1414.47 64.7578 Q1416.01 66.3376 1420.67 66.3376 L1428.33 66.3376 L1428.33 72.576 L1420.67 72.576 Q1412.04 72.576 1408.76 69.3758 Q1405.48 66.1351 1405.48 57.6282 L1405.48 32.9987 L1400.01 32.9987 L1400.01 27.2059 L1405.48 27.2059 L1405.48 14.324 L1412.98 14.324 Z" fill="#000000" fill-rule="nonzero" fill-opacity="1" /><path clip-path="url(#clip550)" d="M1438.13 27.2059 L1445.59 27.2059 L1445.59 72.576 L1438.13 72.576 L1438.13 27.2059 M1438.13 9.54393 L1445.59 9.54393 L1445.59 18.9825 L1438.13 18.9825 L1438.13 9.54393 Z" fill="#000000" fill-rule="nonzero" fill-opacity="1" /><path clip-path="url(#clip550)" d="M1478.76 32.4315 Q1472.77 32.4315 1469.28 37.1306 Q1465.8 41.7891 1465.8 49.9314 Q1465.8 58.0738 1469.24 62.7728 Q1472.73 67.4314 1478.76 67.4314 Q1484.72 67.4314 1488.2 62.7323 Q1491.68 58.0333 1491.68 49.9314 Q1491.68 41.8701 1488.2 37.1711 Q1484.72 32.4315 1478.76 32.4315 M1478.76 26.1121 Q1488.48 26.1121 1494.03 32.4315 Q1499.58 38.7509 1499.58 49.9314 Q1499.58 61.0714 1494.03 67.4314 Q1488.48 73.7508 1478.76 73.7508 Q1469 73.7508 1463.45 67.4314 Q1457.94 61.0714 1457.94 49.9314 Q1457.94 38.7509 1463.45 32.4315 Q1469 26.1121 1478.76 26.1121 Z" fill="#000000" fill-rule="nonzero" fill-opacity="1" /><path clip-path="url(#clip550)" d="M1549.65 45.1919 L1549.65 72.576 L1542.2 72.576 L1542.2 45.4349 Q1542.2 38.994 1539.69 35.7938 Q1537.18 32.5936 1532.15 32.5936 Q1526.12 32.5936 1522.63 36.4419 Q1519.15 40.2903 1519.15 46.9338 L1519.15 72.576 L1511.66 72.576 L1511.66 27.2059 L1519.15 27.2059 L1519.15 34.2544 Q1521.82 30.163 1525.43 28.1376 Q1529.07 26.1121 1533.81 26.1121 Q1541.63 26.1121 1545.64 30.9732 Q1549.65 35.7938 1549.65 45.1919 Z" fill="#000000" fill-rule="nonzero" fill-opacity="1" /><path clip-path="url(#clip550)" d="M1611.51 49.7694 Q1602.48 49.7694 1598.99 51.8354 Q1595.51 53.9013 1595.51 58.8839 Q1595.51 62.8538 1598.1 65.2034 Q1600.74 67.5124 1605.23 67.5124 Q1611.43 67.5124 1615.16 63.1374 Q1618.92 58.7219 1618.92 51.4303 L1618.92 49.7694 L1611.51 49.7694 M1626.38 46.6907 L1626.38 72.576 L1618.92 72.576 L1618.92 65.6895 Q1616.37 69.8214 1612.56 71.8063 Q1608.76 73.7508 1603.25 73.7508 Q1596.28 73.7508 1592.15 69.8619 Q1588.06 65.9325 1588.06 59.3701 Q1588.06 51.7138 1593.16 47.825 Q1598.3 43.9361 1608.47 43.9361 L1618.92 43.9361 L1618.92 43.2069 Q1618.92 38.0623 1615.52 35.2672 Q1612.16 32.4315 1606.04 32.4315 Q1602.15 32.4315 1598.47 33.3632 Q1594.78 34.295 1591.38 36.1584 L1591.38 29.2718 Q1595.47 27.692 1599.32 26.9223 Q1603.17 26.1121 1606.81 26.1121 Q1616.66 26.1121 1621.52 31.2163 Q1626.38 36.3204 1626.38 46.6907 Z" fill="#000000" fill-rule="nonzero" fill-opacity="1" /><path clip-path="url(#clip550)" d="M1664.7 9.54393 L1664.7 15.7418 L1657.57 15.7418 Q1653.56 15.7418 1651.98 17.3622 Q1650.44 18.9825 1650.44 23.1955 L1650.44 27.2059 L1662.71 27.2059 L1662.71 32.9987 L1650.44 32.9987 L1650.44 72.576 L1642.95 72.576 L1642.95 32.9987 L1635.82 32.9987 L1635.82 27.2059 L1642.95 27.2059 L1642.95 24.0462 Q1642.95 16.471 1646.47 13.0277 Q1649.99 9.54393 1657.65 9.54393 L1664.7 9.54393 Z" fill="#000000" fill-rule="nonzero" fill-opacity="1" /><path clip-path="url(#clip550)" d="M1676.85 14.324 L1676.85 27.2059 L1692.2 27.2059 L1692.2 32.9987 L1676.85 32.9987 L1676.85 57.6282 Q1676.85 63.1779 1678.35 64.7578 Q1679.89 66.3376 1684.55 66.3376 L1692.2 66.3376 L1692.2 72.576 L1684.55 72.576 Q1675.92 72.576 1672.64 69.3758 Q1669.36 66.1351 1669.36 57.6282 L1669.36 32.9987 L1663.89 32.9987 L1663.89 27.2059 L1669.36 27.2059 L1669.36 14.324 L1676.85 14.324 Z" fill="#000000" fill-rule="nonzero" fill-opacity="1" /><path clip-path="url(#clip550)" d="M1740.82 48.0275 L1740.82 51.6733 L1706.54 51.6733 Q1707.03 59.3701 1711.16 63.421 Q1715.34 67.4314 1722.75 67.4314 Q1727.04 67.4314 1731.05 66.3781 Q1735.1 65.3249 1739.07 63.2184 L1739.07 70.267 Q1735.06 71.9684 1730.85 72.8596 Q1726.64 73.7508 1722.3 73.7508 Q1711.45 73.7508 1705.09 67.4314 Q1698.77 61.1119 1698.77 50.3365 Q1698.77 39.1965 1704.76 32.6746 Q1710.8 26.1121 1721.01 26.1121 Q1730.16 26.1121 1735.47 32.0264 Q1740.82 37.9003 1740.82 48.0275 M1733.36 45.84 Q1733.28 39.7232 1729.92 36.0774 Q1726.6 32.4315 1721.09 32.4315 Q1714.85 32.4315 1711.08 35.9558 Q1707.35 39.4801 1706.79 45.8805 L1733.36 45.84 Z" fill="#000000" fill-rule="nonzero" fill-opacity="1" /><path clip-path="url(#clip550)" d="M1779.34 34.1734 Q1778.08 33.4443 1776.58 33.1202 Q1775.13 32.7556 1773.34 32.7556 Q1767.02 32.7556 1763.62 36.8875 Q1760.26 40.9789 1760.26 48.6757 L1760.26 72.576 L1752.77 72.576 L1752.77 27.2059 L1760.26 27.2059 L1760.26 34.2544 Q1762.61 30.1225 1766.38 28.1376 Q1770.14 26.1121 1775.53 26.1121 Q1776.3 26.1121 1777.23 26.2337 Q1778.16 26.3147 1779.3 26.5172 L1779.34 34.1734 Z" fill="#000000" fill-rule="nonzero" fill-opacity="1" /><path clip-path="url(#clip550)" d="M1842.53 44.2197 Q1845.17 45.1109 1847.64 48.0275 Q1850.15 50.9442 1852.66 56.0483 L1860.97 72.576 L1852.17 72.576 L1844.44 57.061 Q1841.44 50.9847 1838.6 48.9997 Q1835.81 47.0148 1830.95 47.0148 L1822.04 47.0148 L1822.04 72.576 L1813.85 72.576 L1813.85 12.096 L1832.33 12.096 Q1842.7 12.096 1847.8 16.4305 Q1852.9 20.7649 1852.9 29.5149 Q1852.9 35.2267 1850.23 38.994 Q1847.6 42.7613 1842.53 44.2197 M1822.04 18.8205 L1822.04 40.2903 L1832.33 40.2903 Q1838.24 40.2903 1841.24 37.5762 Q1844.28 34.8216 1844.28 29.5149 Q1844.28 24.2082 1841.24 21.5346 Q1838.24 18.8205 1832.33 18.8205 L1822.04 18.8205 Z" fill="#000000" fill-rule="nonzero" fill-opacity="1" /><path clip-path="url(#clip550)" d="M1866.68 54.671 L1866.68 27.2059 L1874.13 27.2059 L1874.13 54.3874 Q1874.13 60.8284 1876.64 64.0691 Q1879.15 67.2693 1884.18 67.2693 Q1890.21 67.2693 1893.7 63.421 Q1897.22 59.5726 1897.22 52.9291 L1897.22 27.2059 L1904.67 27.2059 L1904.67 72.576 L1897.22 72.576 L1897.22 65.6084 Q1894.51 69.7404 1890.9 71.7658 Q1887.34 73.7508 1882.6 73.7508 Q1874.78 73.7508 1870.73 68.8897 Q1866.68 64.0286 1866.68 54.671 M1885.43 26.1121 L1885.43 26.1121 Z" fill="#000000" fill-rule="nonzero" fill-opacity="1" /><path clip-path="url(#clip550)" d="M1957.74 45.1919 L1957.74 72.576 L1950.29 72.576 L1950.29 45.4349 Q1950.29 38.994 1947.78 35.7938 Q1945.26 32.5936 1940.24 32.5936 Q1934.21 32.5936 1930.72 36.4419 Q1927.24 40.2903 1927.24 46.9338 L1927.24 72.576 L1919.74 72.576 L1919.74 27.2059 L1927.24 27.2059 L1927.24 34.2544 Q1929.91 30.163 1933.52 28.1376 Q1937.16 26.1121 1941.9 26.1121 Q1949.72 26.1121 1953.73 30.9732 Q1957.74 35.7938 1957.74 45.1919 Z" fill="#000000" fill-rule="nonzero" fill-opacity="1" /><path clip-path="url(#clip550)" d="M1974.51 62.2867 L1983.06 62.2867 L1983.06 72.576 L1974.51 72.576 L1974.51 62.2867 M1974.51 29.6769 L1983.06 29.6769 L1983.06 39.9662 L1974.51 39.9662 L1974.51 29.6769 Z" fill="#000000" fill-rule="nonzero" fill-opacity="1" /><path clip-path="url(#clip550)" d="M2035.03 65.6895 L2063.59 65.6895 L2063.59 72.576 L2025.19 72.576 L2025.19 65.6895 Q2029.85 60.8689 2037.87 52.7671 Q2045.93 44.6248 2048 42.2752 Q2051.92 37.8598 2053.46 34.8216 Q2055.04 31.7429 2055.04 28.7857 Q2055.04 23.9651 2051.64 20.927 Q2048.28 17.8888 2042.85 17.8888 Q2039 17.8888 2034.71 19.2256 Q2030.45 20.5624 2025.59 23.2765 L2025.59 15.0127 Q2030.54 13.0277 2034.83 12.015 Q2039.12 11.0023 2042.69 11.0023 Q2052.09 11.0023 2057.68 15.7013 Q2063.27 20.4004 2063.27 28.2591 Q2063.27 31.9859 2061.85 35.3482 Q2060.47 38.6699 2056.79 43.2069 Q2055.77 44.3817 2050.34 50.0125 Q2044.92 55.6027 2035.03 65.6895 Z" fill="#000000" fill-rule="nonzero" fill-opacity="1" /><polyline clip-path="url(#clip552)" style="stroke:#009af9; stroke-linecap:round; stroke-linejoin:round; stroke-width:8; stroke-opacity:1; fill:none" points="361.501,827.793 366.334,844.847 371.167,861.779 376,878.563 380.833,895.181 385.666,911.599 390.5,927.831 395.333,943.834 400.166,959.616 404.999,975.148 409.832,990.419 414.665,1005.42 419.498,1020.12 424.332,1034.52 429.165,1048.59 433.998,1062.35 438.831,1075.73 443.664,1088.76 448.497,1101.43 453.33,1113.71 458.164,1125.59 462.997,1137.07 467.83,1148.13 472.663,1158.75 477.496,1168.94 482.329,1178.66 487.162,1187.93 491.996,1196.72 496.829,1205.03 501.662,1212.85 506.495,1220.17 511.328,1226.99 516.161,1233.29 520.994,1239.07 525.828,1244.32 530.661,1249.05 535.494,1253.24 540.327,1256.89 545.16,1260 549.993,1262.56 554.826,1264.57 559.66,1266.03 564.493,1266.94 569.326,1267.29 574.159,1267.09 578.992,1266.35 583.825,1265.04 588.658,1263.18 593.492,1260.78 598.325,1257.83 603.158,1254.33 607.991,1250.29 612.824,1245.72 617.657,1240.61 622.49,1234.98 627.324,1228.82 632.157,1222.15 636.99,1214.97 641.823,1207.29 646.656,1199.12 651.489,1190.47 656.322,1181.33 661.156,1171.73 665.989,1161.67 670.822,1151.16 675.655,1140.21 680.488,1128.84 685.321,1117.05 690.154,1104.85 694.988,1092.26 699.821,1079.3 704.654,1065.96 709.487,1052.28 714.32,1038.25 719.153,1023.9 723.986,1009.23 728.82,994.272 733.653,979.03 738.486,963.523 743.319,947.766 748.152,931.775 752.985,915.563 757.818,899.149 762.652,882.551 767.485,865.784 772.318,848.866 777.151,831.81 781.984,814.636 786.817,797.361 791.65,780.003 796.484,762.58 801.317,745.107 806.15,727.601 810.983,710.082 815.816,692.566 820.649,675.072 825.482,657.617 830.316,640.214 835.149,622.884 839.982,605.643 844.815,588.509 849.648,571.5 854.481,554.634 859.314,537.928 864.148,521.4 868.981,505.061 873.814,488.924 878.647,473.011 883.48,457.338 888.313,441.921 893.147,426.778 897.98,411.923 902.813,397.373 907.646,383.144 912.479,369.236 917.312,355.672 922.145,342.467 926.979,329.633 931.812,317.185 936.645,305.135 941.478,293.496 946.311,282.28 951.144,271.496 955.977,261.152 960.811,251.263 965.644,241.837 970.477,232.883 975.31,224.411 980.143,216.429 984.976,208.945 989.809,201.965 994.643,195.5 999.476,189.554 1004.31,184.133 1009.14,179.242 1013.98,174.885 1018.81,171.067 1023.64,167.791 1028.47,165.059 1033.31,162.874 1038.14,161.245 1042.97,160.168 1047.81,159.645 1052.64,159.675 1057.47,160.259 1062.31,161.395 1067.14,163.082 1071.97,165.318 1076.81,168.104 1081.64,171.436 1086.47,175.311 1091.31,179.723 1096.14,184.669 1100.97,190.144 1105.8,196.141 1110.64,202.655 1115.47,209.678 1120.3,217.208 1125.14,225.234 1129.97,233.749 1134.8,242.744 1139.64,252.209 1144.47,262.135 1149.3,272.512 1154.14,283.329 1158.97,294.576 1163.8,306.245 1168.64,318.321 1173.47,330.792 1178.3,343.646 1183.14,356.87 1187.97,370.45 1192.8,384.372 1197.63,398.621 1202.47,413.188 1207.3,428.056 1212.13,443.21 1216.97,458.635 1221.8,474.313 1226.63,490.231 1231.47,506.371 1236.3,522.716 1241.13,539.252 1245.97,555.965 1250.8,572.835 1255.63,589.846 1260.47,606.98 1265.3,624.22 1270.13,641.549 1274.96,658.95 1279.8,676.403 1284.63,693.894 1289.46,711.406 1294.3,728.92 1299.13,746.418 1303.96,763.883 1308.8,781.297 1313.63,798.643 1318.46,815.903 1323.3,833.06 1328.13,850.098 1332.96,867 1337.8,883.748 1342.63,900.325 1347.46,916.715 1352.3,932.902 1357.13,948.87 1361.96,964.601 1366.79,980.082 1371.63,995.295 1376.46,1010.23 1381.29,1024.86 1386.13,1039.19 1390.96,1053.18 1395.79,1066.84 1400.63,1080.14 1405.46,1093.08 1410.29,1105.64 1415.13,1117.81 1419.96,1129.57 1424.79,1140.91 1429.63,1151.83 1434.46,1162.31 1439.29,1172.34 1444.12,1181.91 1448.96,1191.01 1453.79,1199.64 1458.62,1207.77 1463.46,1215.42 1468.29,1222.56 1473.12,1229.19 1477.96,1235.31 1482.79,1240.9 1487.62,1245.97 1492.46,1250.51 1497.29,1254.5 1502.12,1257.96 1506.96,1260.87 1511.79,1263.23 1516.62,1265.05 1521.46,1266.31 1526.29,1267.02 1531.12,1267.18 1535.95,1266.79 1540.79,1265.84 1545.62,1264.33 1550.45,1262.28 1555.29,1259.67 1560.12,1256.53 1564.95,1252.84 1569.79,1248.61 1574.62,1243.84 1579.45,1238.55 1584.29,1232.72 1589.12,1226.38 1593.95,1219.53 1598.79,1212.17 1603.62,1204.31 1608.45,1195.96 1613.28,1187.14 1618.12,1177.83 1622.95,1168.06 1627.78,1157.84 1632.62,1147.17 1637.45,1136.07 1642.28,1124.55 1647.12,1112.61 1651.95,1100.28 1656.78,1087.56 1661.62,1074.47 1666.45,1061.01 1671.28,1047.21 1676.12,1033.08 1680.95,1018.62 1685.78,1003.86 1690.62,988.812 1695.45,973.489 1700.28,957.906 1705.11,942.076 1709.95,926.018 1714.78,909.748 1719.61,893.282 1724.45,876.637 1729.28,859.829 1734.11,842.876 1738.95,825.796 1743.78,808.601 1748.61,791.31 1753.45,773.942 1758.28,756.514 1763.11,739.044 1767.95,721.548 1772.78,704.045 1777.61,686.552 1782.44,669.087 1787.28,651.666 1792.11,634.306 1796.94,617.026 1801.78,599.842 1806.61,582.773 1811.44,565.835 1816.28,549.045 1821.11,532.42 1825.94,515.977 1830.78,499.731 1835.61,483.698 1840.44,467.897 1845.28,452.341 1850.11,437.046 1854.94,422.028 1859.78,407.302 1864.61,392.883 1869.44,378.784 1874.27,365.021 1879.11,351.607 1883.94,338.555 1888.77,325.878 1893.61,313.588 1898.44,301.699 1903.27,290.221 1908.11,279.167 1912.94,268.549 1917.77,258.376 1922.61,248.659 1927.44,239.406 1932.27,230.628 1937.11,222.332 1941.94,214.527 1946.77,207.221 1951.6,200.422 1956.44,194.138 1961.27,188.374 1966.1,183.134 1970.94,178.425 1975.77,174.252 1980.6,170.616 1985.44,167.523 1990.27,164.976 1995.1,162.98 1999.94,161.535 2004.77,160.643 2009.6,160.303 2014.44,160.516 2019.27,161.282 2024.1,162.599 2028.94,164.466 2033.77,166.883 2038.6,169.85 2043.43,173.36 2048.27,177.41 2053.1,181.996 2057.93,187.113 2062.77,192.757 2067.6,198.919 2072.43,205.595 2077.27,212.783 2082.1,220.472 2086.93,228.654 2091.77,237.321 2096.6,246.463 2101.43,256.072 2106.27,266.138 2111.1,276.65 2115.93,287.599 2120.77,298.976 2125.6,310.768 2130.43,322.963 2135.26,335.549 2140.1,348.511 2144.93,361.839 2149.76,375.516 2154.6,389.53 2159.43,403.871 2164.26,418.522 2169.1,433.468 2173.93,448.694 2178.76,464.185 2183.6,479.924 2188.43,495.897 2193.26,512.085 2198.1,528.474 2202.93,545.051 2207.76,561.797 2212.59,578.694 2217.43,595.725 2222.26,612.874 2227.09,630.124 2231.93,647.455 2236.76,664.852 2241.59,682.298 2246.43,699.776 2251.26,717.268 2256.09,734.756 2260.93,752.222 2265.76,769.649 2270.59,787.02 2275.43,804.317 2280.26,821.522 2285.09,838.62 2289.93,855.592 2294.76,872.423 "/>
<polyline clip-path="url(#clip552)" style="stroke:#e26f46; stroke-linecap:round; stroke-linejoin:round; stroke-width:8; stroke-opacity:1; fill:none" points="361.501,827.793 366.334,844.894 371.167,861.941 376,878.911 380.833,895.789 385.666,912.542 390.5,929.181 395.333,945.663 400.166,962 404.999,978.152 409.832,994.122 414.665,1009.88 419.498,1025.43 424.332,1040.75 429.165,1055.83 433.998,1070.63 438.831,1085.16 443.664,1099.4 448.497,1113.33 453.33,1126.92 458.164,1140.17 462.997,1153.07 467.83,1165.6 472.663,1177.75 477.496,1189.5 482.329,1200.85 487.162,1211.78 491.996,1222.29 496.829,1232.36 501.662,1241.98 506.495,1251.14 511.328,1259.83 516.161,1268.05 520.994,1275.78 525.828,1283.02 530.661,1289.75 535.494,1295.98 540.327,1301.68 545.16,1306.86 549.993,1311.5 554.826,1315.6 559.66,1319.15 564.493,1322.14 569.326,1324.58 574.159,1326.45 578.992,1327.75 583.825,1328.47 588.658,1328.6 593.492,1328.26 598.325,1327.52 603.158,1326.35 607.991,1324.77 612.824,1322.76 617.657,1320.32 622.49,1317.46 627.324,1314.18 632.157,1310.47 636.99,1306.34 641.823,1301.79 646.656,1296.82 651.489,1291.43 656.322,1285.64 661.156,1279.44 665.989,1272.84 670.822,1265.84 675.655,1258.46 680.488,1250.69 685.321,1242.55 690.154,1234.04 694.988,1225.17 699.821,1215.94 704.654,1206.37 709.487,1196.47 714.32,1186.24 719.153,1175.69 723.986,1164.84 728.82,1153.71 733.653,1142.29 738.486,1130.6 743.319,1118.64 748.152,1106.43 752.985,1093.98 757.818,1081.31 762.652,1068.44 767.485,1055.36 772.318,1042.09 777.151,1028.65 781.984,1015.04 786.817,1001.28 791.65,987.384 796.484,973.373 801.317,959.254 806.15,945.041 810.983,930.749 815.816,916.391 820.649,901.983 825.482,887.539 830.316,873.071 835.149,858.596 839.982,844.128 844.815,829.683 849.648,815.276 854.481,800.924 859.314,786.64 864.148,772.436 868.981,758.321 873.814,744.314 878.647,730.432 883.48,716.689 888.313,703.099 893.147,689.678 897.98,676.441 902.813,663.386 907.646,650.535 912.479,637.904 917.312,625.505 922.145,613.351 926.979,601.456 931.812,589.833 936.645,578.488 941.478,567.431 946.311,556.677 951.144,546.238 955.977,536.125 960.811,526.349 965.644,516.921 970.477,507.852 975.31,499.142 980.143,490.808 984.976,482.857 989.809,475.3 994.643,468.144 999.476,461.399 1004.31,455.072 1009.14,449.169 1013.98,443.698 1018.81,438.665 1023.64,434.078 1028.47,429.943 1033.31,426.267 1038.14,423.054 1042.97,420.312 1047.81,418.045 1052.64,416.258 1057.47,414.956 1062.31,414.143 1067.14,413.822 1071.97,413.987 1076.81,414.454 1081.64,415.241 1086.47,416.363 1091.31,417.817 1096.14,419.609 1100.97,421.736 1105.8,424.201 1110.64,427.002 1115.47,430.14 1120.3,433.61 1125.14,437.414 1129.97,441.55 1134.8,446.012 1139.64,450.801 1144.47,455.911 1149.3,461.339 1154.14,467.081 1158.97,473.128 1163.8,479.479 1168.64,486.13 1173.47,493.074 1178.3,500.3 1183.14,507.806 1187.97,515.588 1192.8,523.636 1197.63,531.938 1202.47,540.491 1207.3,549.289 1212.13,558.32 1216.97,567.571 1221.8,577.036 1226.63,586.709 1231.47,596.58 1236.3,606.641 1241.13,616.884 1245.97,627.293 1250.8,637.855 1255.63,648.566 1260.47,659.414 1265.3,670.391 1270.13,681.485 1274.96,692.687 1279.8,703.982 1284.63,715.359 1289.46,726.808 1294.3,738.317 1299.13,749.875 1303.96,761.471 1308.8,773.09 1313.63,784.726 1318.46,796.366 1323.3,807.995 1328.13,819.603 1332.96,831.177 1337.8,842.705 1342.63,854.173 1347.46,865.579 1352.3,876.905 1357.13,888.141 1361.96,899.274 1366.79,910.291 1371.63,921.182 1376.46,931.934 1381.29,942.545 1386.13,952.998 1390.96,963.282 1395.79,973.387 1400.63,983.302 1405.46,993.015 1410.29,1002.52 1415.13,1011.8 1419.96,1020.86 1424.79,1029.68 1429.63,1038.26 1434.46,1046.57 1439.29,1054.62 1444.12,1062.39 1448.96,1069.89 1453.79,1077.09 1458.62,1083.99 1463.46,1090.59 1468.29,1096.88 1473.12,1102.84 1477.96,1108.48 1482.79,1113.78 1487.62,1118.74 1492.46,1123.36 1497.29,1127.62 1502.12,1131.52 1506.96,1135.06 1511.79,1138.22 1516.62,1141.02 1521.46,1143.43 1526.29,1145.46 1531.12,1147.1 1535.95,1148.34 1540.79,1149.19 1545.62,1149.64 1550.45,1149.66 1555.29,1149.4 1560.12,1148.92 1564.95,1148.22 1569.79,1147.28 1574.62,1146.1 1579.45,1144.68 1584.29,1143.01 1589.12,1141.11 1593.95,1138.95 1598.79,1136.56 1603.62,1133.93 1608.45,1131.05 1613.28,1127.93 1618.12,1124.58 1622.95,1120.99 1627.78,1117.17 1632.62,1113.12 1637.45,1108.85 1642.28,1104.35 1647.12,1099.64 1651.95,1094.71 1656.78,1089.56 1661.62,1084.2 1666.45,1078.65 1671.28,1072.9 1676.12,1066.96 1680.95,1060.83 1685.78,1054.51 1690.62,1048.01 1695.45,1041.36 1700.28,1034.53 1705.11,1027.55 1709.95,1020.41 1714.78,1013.12 1719.61,1005.7 1724.45,998.152 1729.28,990.478 1734.11,982.686 1738.95,974.783 1743.78,966.78 1748.61,958.687 1753.45,950.509 1758.28,942.253 1763.11,933.925 1767.95,925.534 1772.78,917.095 1777.61,908.612 1782.44,900.092 1787.28,891.544 1792.11,882.976 1796.94,874.398 1801.78,865.819 1806.61,857.247 1811.44,848.69 1816.28,840.157 1821.11,831.655 1825.94,823.195 1830.78,814.785 1835.61,806.433 1840.44,798.148 1845.28,789.938 1850.11,781.811 1854.94,773.775 1859.78,765.839 1864.61,758.011 1869.44,750.301 1874.27,742.715 1879.11,735.26 1883.94,727.943 1888.77,720.774 1893.61,713.761 1898.44,706.912 1903.27,700.233 1908.11,693.727 1912.94,687.405 1917.77,681.275 1922.61,675.343 1927.44,669.618 1932.27,664.101 1937.11,658.797 1941.94,653.717 1946.77,648.867 1951.6,644.253 1956.44,639.883 1961.27,635.75 1966.1,631.869 1970.94,628.244 1975.77,624.881 1980.6,621.787 1985.44,618.961 1990.27,616.406 1995.1,614.129 1999.94,612.136 2004.77,610.432 2009.6,609.022 2014.44,607.904 2019.27,607.085 2024.1,606.567 2028.94,606.353 2033.77,606.436 2038.6,606.652 2043.43,606.987 2048.27,607.453 2053.1,608.054 2057.93,608.791 2062.77,609.668 2067.6,610.683 2072.43,611.839 2077.27,613.134 2082.1,614.569 2086.93,616.144 2091.77,617.857 2096.6,619.709 2101.43,621.698 2106.27,623.823 2111.1,626.084 2115.93,628.478 2120.77,631.004 2125.6,633.662 2130.43,636.448 2135.26,639.361 2140.1,642.398 2144.93,645.556 2149.76,648.829 2154.6,652.218 2159.43,655.721 2164.26,659.335 2169.1,663.059 2173.93,666.891 2178.76,670.823 2183.6,674.844 2188.43,678.96 2193.26,683.168 2198.1,687.465 2202.93,691.847 2207.76,696.313 2212.59,700.853 2217.43,705.456 2222.26,710.125 2227.09,714.858 2231.93,719.651 2236.76,724.499 2241.59,729.399 2246.43,734.342 2251.26,739.319 2256.09,744.33 2260.93,749.371 2265.76,754.439 2270.59,759.527 2275.43,764.632 2280.26,769.747 2285.09,774.862 2289.93,779.977 2294.76,785.086 "/>
<polyline clip-path="url(#clip552)" style="stroke:#008000; stroke-linecap:round; stroke-linejoin:round; stroke-width:8; stroke-opacity:1; fill:none" stroke-dasharray="4, 8" points="361.501,827.793 366.334,841.528 371.167,855.186 376,868.76 380.833,882.243 385.666,895.629 390.5,908.91 395.333,922.082 400.166,935.137 404.999,948.069 409.832,960.873 414.665,973.542 419.498,986.071 424.332,998.454 429.165,1010.69 433.998,1022.76 438.831,1034.68 443.664,1046.42 448.497,1058 453.33,1069.4 458.164,1080.62 462.997,1091.66 467.83,1102.51 472.663,1113.17 477.496,1123.64 482.329,1133.91 487.162,1143.97 491.996,1153.84 496.829,1163.49 501.662,1172.94 506.495,1182.17 511.328,1191.19 516.161,1200 520.994,1208.59 525.828,1216.95 530.661,1225.1 535.494,1233.02 540.327,1240.72 545.16,1248.19 549.993,1255.44 554.826,1262.46 559.66,1269.25 564.493,1275.81 569.326,1282.14 574.159,1288.24 578.992,1294.11 583.825,1299.75 588.658,1305.16 593.492,1310.34 598.325,1315.28 603.158,1320 607.991,1324.48 612.824,1328.74 617.657,1332.76 622.49,1336.55 627.324,1340.11 632.157,1343.45 636.99,1346.55 641.823,1349.43 646.656,1352.08 651.489,1354.5 656.322,1356.69 661.156,1358.67 665.989,1360.41 670.822,1361.94 675.655,1363.2 680.488,1364.14 685.321,1364.8 690.154,1365.21 694.988,1365.41 699.821,1365.4 704.654,1365.2 709.487,1364.8 714.32,1364.19 719.153,1363.36 723.986,1362.27 728.82,1360.89 733.653,1359.18 738.486,1357.07 743.319,1354.5 748.152,1351.41 752.985,1347.7 757.818,1343.29 762.652,1338.08 767.485,1331.96 772.318,1324.82 777.151,1316.52 781.984,1306.92 786.817,1295.71 791.65,1282.88 796.484,1268.6 801.317,1253.03 806.15,1236.35 810.983,1218.72 815.816,1200.31 820.649,1181.28 825.482,1161.8 830.316,1142.01 835.149,1122.08 839.982,1102.17 844.815,1082.41 849.648,1062.98 854.481,1044.01 859.314,1025.65 864.148,1007.95 868.981,990.66 873.814,973.71 878.647,957.064 883.48,940.688 888.313,924.552 893.147,908.631 897.98,892.903 902.813,877.352 907.646,861.965 912.479,846.733 917.312,831.655 922.145,816.729 926.979,801.961 931.812,787.361 936.645,772.94 941.478,758.696 946.311,744.631 951.144,730.75 955.977,717.055 960.811,703.55 965.644,690.239 970.477,677.124 975.31,664.209 980.143,651.496 984.976,638.989 989.809,626.69 994.643,614.602 999.476,602.727 1004.31,591.069 1009.14,579.628 1013.98,568.408 1018.81,557.41 1023.64,546.637 1028.47,536.09 1033.31,525.772 1038.14,515.691 1042.97,505.912 1047.81,496.429 1052.64,487.221 1057.47,478.27 1062.31,469.561 1067.14,461.085 1071.97,452.833 1076.81,444.805 1081.64,437 1086.47,429.423 1091.31,422.083 1096.14,414.992 1100.97,408.168 1105.8,401.628 1110.64,395.398 1115.47,389.505 1120.3,383.981 1125.14,378.86 1129.97,374.182 1134.8,369.99 1139.64,366.33 1144.47,363.253 1149.3,360.813 1154.14,359.068 1158.97,358.08 1163.8,357.915 1168.64,358.642 1173.47,360.335 1178.3,363.071 1183.14,366.939 1187.97,371.932 1192.8,377.912 1197.63,384.742 1202.47,392.301 1207.3,400.473 1212.13,409.157 1216.97,418.259 1221.8,427.699 1226.63,437.404 1231.47,447.314 1236.3,457.379 1241.13,467.558 1245.97,477.822 1250.8,488.153 1255.63,498.543 1260.47,508.993 1265.3,519.516 1270.13,530.136 1274.96,540.886 1279.8,551.81 1284.63,562.964 1289.46,574.354 1294.3,585.852 1299.13,597.441 1303.96,609.114 1308.8,620.862 1313.63,632.676 1318.46,644.55 1323.3,656.474 1328.13,668.441 1332.96,680.442 1337.8,692.47 1342.63,704.517 1347.46,716.574 1352.3,728.634 1357.13,740.689 1361.96,752.731 1366.79,764.752 1371.63,776.744 1376.46,788.7 1381.29,800.611 1386.13,812.472 1390.96,824.277 1395.79,836.018 1400.63,847.687 1405.46,859.276 1410.29,870.779 1415.13,882.187 1419.96,893.494 1424.79,904.694 1429.63,915.779 1434.46,926.743 1439.29,937.58 1444.12,948.285 1448.96,958.85 1453.79,969.272 1458.62,979.545 1463.46,989.663 1468.29,999.621 1473.12,1009.42 1477.96,1019.04 1482.79,1028.5 1487.62,1037.78 1492.46,1046.87 1497.29,1055.79 1502.12,1064.51 1506.96,1073.05 1511.79,1081.39 1516.62,1089.54 1521.46,1097.49 1526.29,1105.24 1531.12,1112.79 1535.95,1120.13 1540.79,1127.27 1545.62,1134.18 1550.45,1140.89 1555.29,1147.37 1560.12,1153.65 1564.95,1159.71 1569.79,1165.55 1574.62,1171.18 1579.45,1176.59 1584.29,1181.79 1589.12,1186.78 1593.95,1191.54 1598.79,1196.09 1603.62,1200.42 1608.45,1204.53 1613.28,1208.42 1618.12,1212.09 1622.95,1215.53 1627.78,1218.74 1632.62,1221.72 1637.45,1224.47 1642.28,1226.98 1647.12,1229.26 1651.95,1231.29 1656.78,1233.08 1661.62,1234.62 1666.45,1235.91 1671.28,1236.94 1676.12,1237.72 1680.95,1238.27 1685.78,1238.78 1690.62,1239.16 1695.45,1239.28 1700.28,1239.04 1705.11,1238.34 1709.95,1237.08 1714.78,1235.18 1719.61,1232.56 1724.45,1229.16 1729.28,1224.92 1734.11,1219.79 1738.95,1213.74 1743.78,1206.73 1748.61,1198.74 1753.45,1189.75 1758.28,1179.76 1763.11,1168.78 1767.95,1156.82 1772.78,1143.89 1777.61,1130.04 1782.44,1115.29 1787.28,1099.7 1792.11,1083.33 1796.94,1066.23 1801.78,1048.69 1806.61,1031.09 1811.44,1013.55 1816.28,996.15 1821.11,978.98 1825.94,962.097 1830.78,945.552 1835.61,929.378 1840.44,913.597 1845.28,898.213 1850.11,883.22 1854.94,868.594 1859.78,854.299 1864.61,840.284 1869.44,826.484 1874.27,812.819 1879.11,799.304 1883.94,785.992 1888.77,772.883 1893.61,759.974 1898.44,747.266 1903.27,734.758 1908.11,722.45 1912.94,710.344 1917.77,698.44 1922.61,686.739 1927.44,675.244 1932.27,663.955 1937.11,652.877 1941.94,642.011 1946.77,631.362 1951.6,620.932 1956.44,610.726 1961.27,600.747 1966.1,591.002 1970.94,581.497 1975.77,572.234 1980.6,563.216 1985.44,554.447 1990.27,545.933 1995.1,537.683 1999.94,529.705 2004.77,522.011 2009.6,514.614 2014.44,507.53 2019.27,500.775 2024.1,494.367 2028.94,488.326 2033.77,482.676 2038.6,477.438 2043.43,472.639 2048.27,468.306 2053.1,464.468 2057.93,461.156 2062.77,458.402 2067.6,456.24 2072.43,454.707 2077.27,453.841 2082.1,453.68 2086.93,454.267 2091.77,455.643 2096.6,457.855 2101.43,460.949 2106.27,464.867 2111.1,469.498 2115.93,474.778 2120.77,480.647 2125.6,487.048 2130.43,493.927 2135.26,501.236 2140.1,508.929 2144.93,516.963 2149.76,525.3 2154.6,533.905 2159.43,542.746 2164.26,551.796 2169.1,561.031 2173.93,570.429 2178.76,579.975 2183.6,589.654 2188.43,599.458 2193.26,609.379 2198.1,619.417 2202.93,629.571 2207.76,639.845 2212.59,650.217 2217.43,660.666 2222.26,671.183 2227.09,681.759 2231.93,692.384 2236.76,703.049 2241.59,713.746 2246.43,724.465 2251.26,735.198 2256.09,745.937 2260.93,756.673 2265.76,767.398 2270.59,778.105 2275.43,788.784 2280.26,799.429 2285.09,810.033 2289.93,820.586 2294.76,831.083 "/>
<polyline clip-path="url(#clip552)" style="stroke:#008000; stroke-linecap:round; stroke-linejoin:round; stroke-width:8; stroke-opacity:1; fill:none" points="361.501,827.793 366.334,844.508 371.167,861.135 376,877.659 380.833,894.062 385.666,910.327 390.5,926.441 395.333,942.389 400.166,958.155 404.999,973.728 409.832,989.095 414.665,1004.24 419.498,1019.16 424.332,1033.84 429.165,1048.27 433.998,1062.44 438.831,1076.34 443.664,1089.96 448.497,1103.29 453.33,1116.33 458.164,1129.07 462.997,1141.5 467.83,1153.61 472.663,1165.39 477.496,1176.85 482.329,1187.97 487.162,1198.75 491.996,1209.18 496.829,1219.26 501.662,1228.97 506.495,1238.32 511.328,1247.3 516.161,1255.9 520.994,1264.11 525.828,1271.93 530.661,1279.36 535.494,1286.38 540.327,1293 545.16,1299.2 549.993,1304.98 554.826,1310.33 559.66,1315.25 564.493,1319.72 569.326,1323.74 574.159,1327.3 578.992,1330.39 583.825,1333.01 588.658,1335.14 593.492,1336.77 598.325,1337.9 603.158,1338.52 607.991,1338.62 612.824,1338.19 617.657,1337.21 622.49,1335.68 627.324,1333.6 632.157,1330.93 636.99,1327.69 641.823,1323.87 646.656,1319.47 651.489,1314.45 656.322,1308.78 661.156,1302.43 665.989,1295.39 670.822,1287.66 675.655,1279.24 680.488,1270.16 685.321,1260.45 690.154,1250.14 694.988,1239.28 699.821,1227.94 704.654,1216.18 709.487,1204.1 714.32,1191.77 719.153,1179.31 723.986,1166.83 728.82,1154.71 733.653,1143.31 738.486,1132.46 743.319,1121.99 748.152,1111.76 752.985,1101.64 757.818,1091.51 762.652,1081.29 767.485,1070.9 772.318,1060.28 777.151,1049.41 781.984,1038.27 786.817,1026.85 791.65,1015.16 796.484,1003.2 801.317,990.983 806.15,978.532 810.983,965.856 815.816,952.972 820.649,939.894 825.482,926.637 830.316,913.219 835.149,899.655 839.982,885.962 844.815,872.158 849.648,858.26 854.481,844.287 859.314,830.255 864.148,816.186 868.981,802.097 873.814,788.007 878.647,773.938 883.48,759.905 888.313,745.927 893.147,732.021 897.98,718.207 902.813,704.5 907.646,690.92 912.479,677.483 917.312,664.208 922.145,651.112 926.979,638.213 931.812,625.526 936.645,613.071 941.478,600.863 946.311,588.92 951.144,577.258 955.977,565.894 960.811,554.846 965.644,544.128 970.477,533.759 975.31,523.754 980.143,514.128 984.976,504.897 989.809,496.078 994.643,487.689 999.476,479.748 1004.31,472.269 1009.14,465.27 1013.98,458.764 1018.81,452.767 1023.64,447.291 1028.47,442.351 1033.31,437.959 1038.14,434.125 1042.97,430.863 1047.81,428.182 1052.64,426.092 1057.47,424.602 1062.31,423.722 1067.14,423.458 1071.97,423.819 1076.81,424.811 1081.64,426.472 1086.47,428.973 1091.31,432.155 1096.14,435.809 1100.97,439.757 1105.8,443.842 1110.64,447.933 1115.47,451.924 1120.3,455.734 1125.14,459.308 1129.97,462.613 1134.8,465.644 1139.64,468.419 1144.47,470.982 1149.3,473.401 1154.14,475.771 1158.97,478.209 1163.8,480.859 1168.64,483.888 1173.47,487.492 1178.3,491.805 1183.14,496.565 1187.97,501.725 1192.8,507.284 1197.63,513.238 1202.47,519.584 1207.3,526.317 1212.13,533.431 1216.97,540.918 1221.8,548.77 1226.63,556.977 1231.47,565.528 1236.3,574.413 1241.13,583.616 1245.97,593.126 1250.8,602.925 1255.63,613.001 1260.47,623.343 1265.3,633.934 1270.13,644.757 1274.96,655.794 1279.8,667.026 1284.63,678.438 1289.46,690.012 1294.3,701.731 1299.13,713.577 1303.96,725.533 1308.8,737.584 1313.63,749.711 1318.46,761.899 1323.3,774.131 1328.13,786.39 1332.96,798.66 1337.8,810.925 1342.63,823.169 1347.46,835.375 1352.3,847.528 1357.13,859.612 1361.96,871.611 1366.79,883.509 1371.63,895.291 1376.46,906.943 1381.29,918.453 1386.13,929.81 1390.96,941.003 1395.79,952.018 1400.63,962.844 1405.46,973.47 1410.29,983.884 1415.13,994.076 1419.96,1004.04 1424.79,1013.75 1429.63,1023.22 1434.46,1032.42 1439.29,1041.35 1444.12,1050 1448.96,1058.36 1453.79,1066.42 1458.62,1074.18 1463.46,1081.63 1468.29,1088.75 1473.12,1095.56 1477.96,1102.02 1482.79,1108.16 1487.62,1113.95 1492.46,1119.39 1497.29,1124.47 1502.12,1129.19 1506.96,1133.52 1511.79,1137.48 1516.62,1141.03 1521.46,1144.19 1526.29,1146.94 1531.12,1149.27 1535.95,1151.18 1540.79,1152.67 1545.62,1153.71 1550.45,1154.32 1555.29,1154.49 1560.12,1154.2 1564.95,1153.46 1569.79,1152.27 1574.62,1150.61 1579.45,1148.48 1584.29,1145.89 1589.12,1142.82 1593.95,1139.28 1598.79,1135.27 1603.62,1130.78 1608.45,1125.81 1613.28,1120.36 1618.12,1114.43 1622.95,1107.82 1627.78,1100.49 1632.62,1092.57 1637.45,1084.2 1642.28,1075.49 1647.12,1066.57 1651.95,1057.53 1656.78,1048.45 1661.62,1039.42 1666.45,1030.5 1671.28,1021.74 1676.12,1013.19 1680.95,1004.87 1685.78,996.799 1690.62,988.992 1695.45,981.44 1700.28,974.127 1705.11,967.027 1709.95,960.1 1714.78,953.295 1719.61,946.552 1724.45,939.826 1729.28,933.104 1734.11,926.374 1738.95,919.625 1743.78,912.849 1748.61,906.038 1753.45,899.186 1758.28,892.29 1763.11,885.346 1767.95,878.354 1772.78,871.313 1777.61,864.224 1782.44,857.093 1787.28,849.922 1792.11,842.719 1796.94,835.491 1801.78,828.248 1806.61,820.999 1811.44,813.758 1816.28,806.539 1821.11,799.356 1825.94,792.248 1830.78,785.251 1835.61,778.36 1840.44,771.575 1845.28,764.894 1850.11,758.318 1854.94,751.847 1859.78,745.485 1864.61,739.235 1869.44,733.1 1874.27,727.085 1879.11,721.198 1883.94,715.446 1888.77,709.836 1893.61,704.379 1898.44,699.083 1903.27,693.962 1908.11,689.027 1912.94,684.291 1917.77,679.77 1922.61,675.478 1927.44,671.431 1932.27,667.648 1937.11,664.147 1941.94,660.946 1946.77,658.068 1951.6,655.532 1956.44,653.362 1961.27,651.541 1966.1,650.034 1970.94,648.807 1975.77,647.831 1980.6,647.073 1985.44,646.506 1990.27,646.1 1995.1,645.828 1999.94,645.661 2004.77,645.575 2009.6,645.543 2014.44,645.541 2019.27,645.544 2024.1,645.531 2028.94,645.478 2033.77,645.364 2038.6,645.168 2043.43,644.871 2048.27,644.453 2053.1,643.909 2057.93,643.288 2062.77,642.615 2067.6,641.91 2072.43,641.192 2077.27,640.48 2082.1,639.793 2086.93,639.147 2091.77,638.56 2096.6,638.047 2101.43,637.625 2106.27,637.308 2111.1,637.111 2115.93,637.048 2120.77,637.132 2125.6,637.375 2130.43,637.79 2135.26,638.388 2140.1,639.18 2144.93,640.177 2149.76,641.387 2154.6,642.816 2159.43,644.455 2164.26,646.303 2169.1,648.36 2173.93,650.625 2178.76,653.097 2183.6,655.776 2188.43,658.659 2193.26,661.744 2198.1,665.029 2202.93,668.509 2207.76,672.182 2212.59,676.042 2217.43,680.086 2222.26,684.308 2227.09,688.702 2231.93,693.262 2236.76,697.982 2241.59,702.854 2246.43,707.871 2251.26,713.025 2256.09,718.308 2260.93,723.709 2265.76,729.223 2270.59,734.841 2275.43,740.556 2280.26,746.359 2285.09,752.24 2289.93,758.193 2294.76,764.206 "/>
<path clip-path="url(#clip550)" d="M1444.66 554.876 L2284.45 554.876 L2284.45 166.076 L1444.66 166.076  Z" fill="#ffffff" fill-rule="evenodd" fill-opacity="1"/>
<polyline clip-path="url(#clip550)" style="stroke:#000000; stroke-linecap:round; stroke-linejoin:round; stroke-width:4; stroke-opacity:1; fill:none" points="1444.66,554.876 2284.45,554.876 2284.45,166.076 1444.66,166.076 1444.66,554.876 "/>
<polyline clip-path="url(#clip550)" style="stroke:#009af9; stroke-linecap:round; stroke-linejoin:round; stroke-width:12; stroke-opacity:1; fill:none" points="1467.43,243.836 1604.05,243.836 "/>
<path clip-path="url(#clip550)" d="M1660.19 219.617 L1660.19 226.457 Q1656.2 224.548 1652.65 223.61 Q1649.11 222.673 1645.81 222.673 Q1640.08 222.673 1636.96 224.895 Q1633.87 227.117 1633.87 231.214 Q1633.87 234.652 1635.92 236.423 Q1638 238.159 1643.76 239.235 L1648 240.103 Q1655.85 241.596 1659.56 245.381 Q1663.31 249.131 1663.31 255.45 Q1663.31 262.985 1658.24 266.874 Q1653.21 270.763 1643.45 270.763 Q1639.77 270.763 1635.6 269.929 Q1631.47 269.096 1627.03 267.464 L1627.03 260.242 Q1631.3 262.638 1635.4 263.853 Q1639.49 265.068 1643.45 265.068 Q1649.46 265.068 1652.72 262.707 Q1655.99 260.346 1655.99 255.971 Q1655.99 252.152 1653.63 249.999 Q1651.3 247.846 1645.95 246.77 L1641.68 245.936 Q1633.83 244.374 1630.33 241.041 Q1626.82 237.707 1626.82 231.77 Q1626.82 224.895 1631.65 220.937 Q1636.51 216.978 1645.01 216.978 Q1648.66 216.978 1652.45 217.638 Q1656.23 218.298 1660.19 219.617 Z" fill="#000000" fill-rule="nonzero" fill-opacity="1" /><path clip-path="url(#clip550)" d="M1673.97 230.867 L1680.36 230.867 L1680.36 269.756 L1673.97 269.756 L1673.97 230.867 M1673.97 215.728 L1680.36 215.728 L1680.36 223.818 L1673.97 223.818 L1673.97 215.728 Z" fill="#000000" fill-rule="nonzero" fill-opacity="1" /><path clip-path="url(#clip550)" d="M1724.01 238.332 Q1726.4 234.027 1729.74 231.978 Q1733.07 229.93 1737.58 229.93 Q1743.66 229.93 1746.96 234.2 Q1750.26 238.436 1750.26 246.284 L1750.26 269.756 L1743.83 269.756 L1743.83 246.492 Q1743.83 240.902 1741.85 238.193 Q1739.88 235.485 1735.81 235.485 Q1730.85 235.485 1727.97 238.784 Q1725.08 242.082 1725.08 247.777 L1725.08 269.756 L1718.66 269.756 L1718.66 246.492 Q1718.66 240.867 1716.68 238.193 Q1714.7 235.485 1710.57 235.485 Q1705.67 235.485 1702.79 238.818 Q1699.91 242.117 1699.91 247.777 L1699.91 269.756 L1693.49 269.756 L1693.49 230.867 L1699.91 230.867 L1699.91 236.909 Q1702.1 233.332 1705.15 231.631 Q1708.21 229.93 1712.41 229.93 Q1716.65 229.93 1719.6 232.082 Q1722.58 234.235 1724.01 238.332 Z" fill="#000000" fill-rule="nonzero" fill-opacity="1" /><path clip-path="url(#clip550)" d="M1769.18 263.922 L1769.18 284.547 L1762.76 284.547 L1762.76 230.867 L1769.18 230.867 L1769.18 236.77 Q1771.19 233.298 1774.25 231.631 Q1777.34 229.93 1781.61 229.93 Q1788.69 229.93 1793.1 235.555 Q1797.55 241.179 1797.55 250.346 Q1797.55 259.513 1793.1 265.138 Q1788.69 270.763 1781.61 270.763 Q1777.34 270.763 1774.25 269.096 Q1771.19 267.395 1769.18 263.922 M1790.92 250.346 Q1790.92 243.298 1788 239.304 Q1785.12 235.277 1780.05 235.277 Q1774.98 235.277 1772.06 239.304 Q1769.18 243.298 1769.18 250.346 Q1769.18 257.395 1772.06 261.422 Q1774.98 265.415 1780.05 265.415 Q1785.12 265.415 1788 261.422 Q1790.92 257.395 1790.92 250.346 Z" fill="#000000" fill-rule="nonzero" fill-opacity="1" /><path clip-path="url(#clip550)" d="M1808.14 215.728 L1814.53 215.728 L1814.53 269.756 L1808.14 269.756 L1808.14 215.728 Z" fill="#000000" fill-rule="nonzero" fill-opacity="1" /><path clip-path="url(#clip550)" d="M1861.16 248.714 L1861.16 251.839 L1831.78 251.839 Q1832.2 258.436 1835.74 261.909 Q1839.32 265.346 1845.67 265.346 Q1849.35 265.346 1852.79 264.443 Q1856.26 263.54 1859.67 261.735 L1859.67 267.777 Q1856.23 269.235 1852.62 269.999 Q1849.01 270.763 1845.29 270.763 Q1835.99 270.763 1830.53 265.346 Q1825.12 259.929 1825.12 250.693 Q1825.12 241.145 1830.26 235.555 Q1835.43 229.93 1844.18 229.93 Q1852.03 229.93 1856.58 234.999 Q1861.16 240.034 1861.16 248.714 M1854.77 246.839 Q1854.7 241.596 1851.82 238.471 Q1848.97 235.346 1844.25 235.346 Q1838.9 235.346 1835.67 238.367 Q1832.48 241.388 1831.99 246.874 L1854.77 246.839 Z" fill="#000000" fill-rule="nonzero" fill-opacity="1" /><path clip-path="url(#clip550)" d="M1871.92 217.916 L1901.71 217.916 L1901.71 223.818 L1878.94 223.818 L1878.94 239.096 L1899.49 239.096 L1899.49 244.999 L1878.94 244.999 L1878.94 269.756 L1871.92 269.756 L1871.92 217.916 Z" fill="#000000" fill-rule="nonzero" fill-opacity="1" /><path clip-path="url(#clip550)" d="M1912.83 217.916 L1923.28 217.916 L1936.51 253.193 L1949.8 217.916 L1960.26 217.916 L1960.26 269.756 L1953.42 269.756 L1953.42 224.235 L1940.05 259.79 L1933 259.79 L1919.63 224.235 L1919.63 269.756 L1912.83 269.756 L1912.83 217.916 Z" fill="#000000" fill-rule="nonzero" fill-opacity="1" /><path clip-path="url(#clip550)" d="M1973.38 217.916 L1980.43 217.916 L1980.43 249.409 Q1980.43 257.742 1983.45 261.422 Q1986.47 265.068 1993.24 265.068 Q1999.98 265.068 2003 261.422 Q2006.02 257.742 2006.02 249.409 L2006.02 217.916 L2013.07 217.916 L2013.07 250.277 Q2013.07 260.415 2008.03 265.589 Q2003.03 270.763 1993.24 270.763 Q1983.42 270.763 1978.38 265.589 Q1973.38 260.415 1973.38 250.277 L1973.38 217.916 Z" fill="#000000" fill-rule="nonzero" fill-opacity="1" /><polyline clip-path="url(#clip550)" style="stroke:#e26f46; stroke-linecap:round; stroke-linejoin:round; stroke-width:12; stroke-opacity:1; fill:none" points="1467.43,321.596 1604.05,321.596 "/>
<path clip-path="url(#clip550)" d="M1651.4 323.21 Q1653.66 323.974 1655.78 326.474 Q1657.93 328.974 1660.08 333.349 L1667.2 347.516 L1659.67 347.516 L1653.04 334.217 Q1650.47 329.009 1648.04 327.307 Q1645.64 325.606 1641.47 325.606 L1633.83 325.606 L1633.83 347.516 L1626.82 347.516 L1626.82 295.676 L1642.65 295.676 Q1651.54 295.676 1655.92 299.391 Q1660.29 303.106 1660.29 310.606 Q1660.29 315.502 1658 318.731 Q1655.74 321.96 1651.4 323.21 M1633.83 301.44 L1633.83 319.842 L1642.65 319.842 Q1647.72 319.842 1650.29 317.516 Q1652.9 315.155 1652.9 310.606 Q1652.9 306.058 1650.29 303.766 Q1647.72 301.44 1642.65 301.44 L1633.83 301.44 Z" fill="#000000" fill-rule="nonzero" fill-opacity="1" /><path clip-path="url(#clip550)" d="M1706.02 326.474 L1706.02 329.599 L1676.65 329.599 Q1677.06 336.196 1680.6 339.669 Q1684.18 343.106 1690.54 343.106 Q1694.22 343.106 1697.65 342.203 Q1701.13 341.3 1704.53 339.495 L1704.53 345.537 Q1701.09 346.995 1697.48 347.759 Q1693.87 348.523 1690.15 348.523 Q1680.85 348.523 1675.4 343.106 Q1669.98 337.689 1669.98 328.453 Q1669.98 318.905 1675.12 313.315 Q1680.29 307.69 1689.04 307.69 Q1696.89 307.69 1701.44 312.759 Q1706.02 317.794 1706.02 326.474 M1699.63 324.599 Q1699.56 319.356 1696.68 316.231 Q1693.83 313.106 1689.11 313.106 Q1683.76 313.106 1680.54 316.127 Q1677.34 319.148 1676.85 324.634 L1699.63 324.599 Z" fill="#000000" fill-rule="nonzero" fill-opacity="1" /><path clip-path="url(#clip550)" d="M1736.19 293.488 L1736.19 298.801 L1730.08 298.801 Q1726.65 298.801 1725.29 300.19 Q1723.97 301.578 1723.97 305.19 L1723.97 308.627 L1734.49 308.627 L1734.49 313.592 L1723.97 313.592 L1723.97 347.516 L1717.55 347.516 L1717.55 313.592 L1711.44 313.592 L1711.44 308.627 L1717.55 308.627 L1717.55 305.919 Q1717.55 299.426 1720.57 296.474 Q1723.59 293.488 1730.15 293.488 L1736.19 293.488 Z" fill="#000000" fill-rule="nonzero" fill-opacity="1" /><path clip-path="url(#clip550)" d="M1774.81 326.474 L1774.81 329.599 L1745.43 329.599 Q1745.85 336.196 1749.39 339.669 Q1752.97 343.106 1759.32 343.106 Q1763 343.106 1766.44 342.203 Q1769.91 341.3 1773.31 339.495 L1773.31 345.537 Q1769.88 346.995 1766.26 347.759 Q1762.65 348.523 1758.94 348.523 Q1749.63 348.523 1744.18 343.106 Q1738.76 337.689 1738.76 328.453 Q1738.76 318.905 1743.9 313.315 Q1749.08 307.69 1757.83 307.69 Q1765.67 307.69 1770.22 312.759 Q1774.81 317.794 1774.81 326.474 M1768.42 324.599 Q1768.35 319.356 1765.47 316.231 Q1762.62 313.106 1757.9 313.106 Q1752.55 313.106 1749.32 316.127 Q1746.13 319.148 1745.64 324.634 L1768.42 324.599 Z" fill="#000000" fill-rule="nonzero" fill-opacity="1" /><path clip-path="url(#clip550)" d="M1807.83 314.599 Q1806.75 313.974 1805.47 313.696 Q1804.22 313.384 1802.69 313.384 Q1797.27 313.384 1794.35 316.926 Q1791.47 320.433 1791.47 327.03 L1791.47 347.516 L1785.05 347.516 L1785.05 308.627 L1791.47 308.627 L1791.47 314.669 Q1793.49 311.127 1796.72 309.426 Q1799.94 307.69 1804.56 307.69 Q1805.22 307.69 1806.02 307.794 Q1806.82 307.863 1807.79 308.037 L1807.83 314.599 Z" fill="#000000" fill-rule="nonzero" fill-opacity="1" /><path clip-path="url(#clip550)" d="M1846.23 326.474 L1846.23 329.599 L1816.85 329.599 Q1817.27 336.196 1820.81 339.669 Q1824.39 343.106 1830.74 343.106 Q1834.42 343.106 1837.86 342.203 Q1841.33 341.3 1844.74 339.495 L1844.74 345.537 Q1841.3 346.995 1837.69 347.759 Q1834.08 348.523 1830.36 348.523 Q1821.06 348.523 1815.6 343.106 Q1810.19 337.689 1810.19 328.453 Q1810.19 318.905 1815.33 313.315 Q1820.5 307.69 1829.25 307.69 Q1837.1 307.69 1841.65 312.759 Q1846.23 317.794 1846.23 326.474 M1839.84 324.599 Q1839.77 319.356 1836.89 316.231 Q1834.04 313.106 1829.32 313.106 Q1823.97 313.106 1820.74 316.127 Q1817.55 319.148 1817.06 324.634 L1839.84 324.599 Z" fill="#000000" fill-rule="nonzero" fill-opacity="1" /><path clip-path="url(#clip550)" d="M1889.04 324.044 L1889.04 347.516 L1882.65 347.516 L1882.65 324.252 Q1882.65 318.731 1880.5 315.988 Q1878.35 313.245 1874.04 313.245 Q1868.87 313.245 1865.88 316.544 Q1862.9 319.842 1862.9 325.537 L1862.9 347.516 L1856.47 347.516 L1856.47 308.627 L1862.9 308.627 L1862.9 314.669 Q1865.19 311.162 1868.28 309.426 Q1871.4 307.69 1875.46 307.69 Q1882.17 307.69 1885.6 311.856 Q1889.04 315.988 1889.04 324.044 Z" fill="#000000" fill-rule="nonzero" fill-opacity="1" /><path clip-path="url(#clip550)" d="M1929.77 310.12 L1929.77 316.092 Q1927.06 314.599 1924.32 313.87 Q1921.61 313.106 1918.83 313.106 Q1912.62 313.106 1909.18 317.064 Q1905.74 320.988 1905.74 328.106 Q1905.74 335.224 1909.18 339.182 Q1912.62 343.106 1918.83 343.106 Q1921.61 343.106 1924.32 342.377 Q1927.06 341.613 1929.77 340.12 L1929.77 346.023 Q1927.1 347.273 1924.21 347.898 Q1921.37 348.523 1918.14 348.523 Q1909.35 348.523 1904.18 343.002 Q1899.01 337.481 1899.01 328.106 Q1899.01 318.592 1904.21 313.141 Q1909.46 307.69 1918.55 307.69 Q1921.51 307.69 1924.32 308.315 Q1927.13 308.905 1929.77 310.12 Z" fill="#000000" fill-rule="nonzero" fill-opacity="1" /><path clip-path="url(#clip550)" d="M1974.14 326.474 L1974.14 329.599 L1944.77 329.599 Q1945.19 336.196 1948.73 339.669 Q1952.3 343.106 1958.66 343.106 Q1962.34 343.106 1965.78 342.203 Q1969.25 341.3 1972.65 339.495 L1972.65 345.537 Q1969.21 346.995 1965.6 347.759 Q1961.99 348.523 1958.28 348.523 Q1948.97 348.523 1943.52 343.106 Q1938.1 337.689 1938.1 328.453 Q1938.1 318.905 1943.24 313.315 Q1948.42 307.69 1957.17 307.69 Q1965.01 307.69 1969.56 312.759 Q1974.14 317.794 1974.14 326.474 M1967.76 324.599 Q1967.69 319.356 1964.8 316.231 Q1961.96 313.106 1957.24 313.106 Q1951.89 313.106 1948.66 316.127 Q1945.46 319.148 1944.98 324.634 L1967.76 324.599 Z" fill="#000000" fill-rule="nonzero" fill-opacity="1" /><polyline clip-path="url(#clip550)" style="stroke:#008000; stroke-linecap:round; stroke-linejoin:round; stroke-width:12; stroke-opacity:1; fill:none" stroke-dasharray="6, 12" points="1467.43,399.356 1604.05,399.356 "/>
<path clip-path="url(#clip550)" d="M1626.82 373.436 L1636.26 373.436 L1659.25 416.804 L1659.25 373.436 L1666.06 373.436 L1666.06 425.276 L1656.61 425.276 L1633.63 381.908 L1633.63 425.276 L1626.82 425.276 L1626.82 373.436 Z" fill="#000000" fill-rule="nonzero" fill-opacity="1" /><path clip-path="url(#clip550)" d="M1713 404.234 L1713 407.359 L1683.63 407.359 Q1684.04 413.956 1687.58 417.429 Q1691.16 420.866 1697.51 420.866 Q1701.19 420.866 1704.63 419.963 Q1708.1 419.06 1711.51 417.255 L1711.51 423.297 Q1708.07 424.755 1704.46 425.519 Q1700.85 426.283 1697.13 426.283 Q1687.83 426.283 1682.38 420.866 Q1676.96 415.449 1676.96 406.213 Q1676.96 396.665 1682.1 391.075 Q1687.27 385.45 1696.02 385.45 Q1703.87 385.45 1708.42 390.519 Q1713 395.554 1713 404.234 M1706.61 402.359 Q1706.54 397.116 1703.66 393.991 Q1700.81 390.866 1696.09 390.866 Q1690.74 390.866 1687.51 393.887 Q1684.32 396.908 1683.83 402.394 L1706.61 402.359 Z" fill="#000000" fill-rule="nonzero" fill-opacity="1" /><path clip-path="url(#clip550)" d="M1722.83 409.929 L1722.83 386.387 L1729.22 386.387 L1729.22 409.686 Q1729.22 415.206 1731.37 417.984 Q1733.52 420.727 1737.83 420.727 Q1743 420.727 1745.99 417.429 Q1749.01 414.13 1749.01 408.436 L1749.01 386.387 L1755.4 386.387 L1755.4 425.276 L1749.01 425.276 L1749.01 419.304 Q1746.68 422.845 1743.59 424.581 Q1740.53 426.283 1736.47 426.283 Q1729.77 426.283 1726.3 422.116 Q1722.83 417.949 1722.83 409.929 M1738.9 385.45 L1738.9 385.45 Z" fill="#000000" fill-rule="nonzero" fill-opacity="1" /><path clip-path="url(#clip550)" d="M1791.09 392.359 Q1790.01 391.734 1788.73 391.456 Q1787.48 391.144 1785.95 391.144 Q1780.53 391.144 1777.62 394.686 Q1774.74 398.193 1774.74 404.79 L1774.74 425.276 L1768.31 425.276 L1768.31 386.387 L1774.74 386.387 L1774.74 392.429 Q1776.75 388.887 1779.98 387.186 Q1783.21 385.45 1787.83 385.45 Q1788.49 385.45 1789.28 385.554 Q1790.08 385.623 1791.06 385.797 L1791.09 392.359 Z" fill="#000000" fill-rule="nonzero" fill-opacity="1" /><path clip-path="url(#clip550)" d="M1815.47 405.727 Q1807.72 405.727 1804.74 407.498 Q1801.75 409.269 1801.75 413.54 Q1801.75 416.942 1803.97 418.956 Q1806.23 420.935 1810.08 420.935 Q1815.4 420.935 1818.59 417.185 Q1821.82 413.401 1821.82 407.151 L1821.82 405.727 L1815.47 405.727 M1828.21 403.088 L1828.21 425.276 L1821.82 425.276 L1821.82 419.373 Q1819.63 422.915 1816.37 424.616 Q1813.1 426.283 1808.38 426.283 Q1802.41 426.283 1798.87 422.949 Q1795.36 419.581 1795.36 413.956 Q1795.36 407.394 1799.74 404.061 Q1804.15 400.727 1812.86 400.727 L1821.82 400.727 L1821.82 400.102 Q1821.82 395.693 1818.9 393.297 Q1816.02 390.866 1810.78 390.866 Q1807.44 390.866 1804.28 391.665 Q1801.12 392.463 1798.21 394.061 L1798.21 388.158 Q1801.72 386.804 1805.01 386.144 Q1808.31 385.45 1811.44 385.45 Q1819.87 385.45 1824.04 389.825 Q1828.21 394.199 1828.21 403.088 Z" fill="#000000" fill-rule="nonzero" fill-opacity="1" /><path clip-path="url(#clip550)" d="M1841.37 371.248 L1847.76 371.248 L1847.76 425.276 L1841.37 425.276 L1841.37 371.248 Z" fill="#000000" fill-rule="nonzero" fill-opacity="1" /><path clip-path="url(#clip550)" d="M1861.4 373.436 L1891.19 373.436 L1891.19 379.338 L1868.42 379.338 L1868.42 394.616 L1888.97 394.616 L1888.97 400.519 L1868.42 400.519 L1868.42 425.276 L1861.4 425.276 L1861.4 373.436 Z" fill="#000000" fill-rule="nonzero" fill-opacity="1" /><path clip-path="url(#clip550)" d="M1902.3 373.436 L1912.76 373.436 L1925.99 408.713 L1939.28 373.436 L1949.74 373.436 L1949.74 425.276 L1942.89 425.276 L1942.89 379.755 L1929.53 415.31 L1922.48 415.31 L1909.11 379.755 L1909.11 425.276 L1902.3 425.276 L1902.3 373.436 Z" fill="#000000" fill-rule="nonzero" fill-opacity="1" /><path clip-path="url(#clip550)" d="M1962.86 373.436 L1969.91 373.436 L1969.91 404.929 Q1969.91 413.262 1972.93 416.942 Q1975.95 420.588 1982.72 420.588 Q1989.46 420.588 1992.48 416.942 Q1995.5 413.262 1995.5 404.929 L1995.5 373.436 L2002.55 373.436 L2002.55 405.797 Q2002.55 415.935 1997.51 421.109 Q1992.51 426.283 1982.72 426.283 Q1972.89 426.283 1967.86 421.109 Q1962.86 415.935 1962.86 405.797 L1962.86 373.436 Z" fill="#000000" fill-rule="nonzero" fill-opacity="1" /><path clip-path="url(#clip550)" d="M2053.38 371.318 Q2048.73 379.304 2046.47 387.116 Q2044.21 394.929 2044.21 402.949 Q2044.21 410.97 2046.47 418.852 Q2048.76 426.699 2053.38 434.651 L2047.82 434.651 Q2042.62 426.491 2040.01 418.609 Q2037.44 410.727 2037.44 402.949 Q2037.44 395.206 2040.01 387.359 Q2042.58 379.512 2047.82 371.318 L2053.38 371.318 Z" fill="#000000" fill-rule="nonzero" fill-opacity="1" /><path clip-path="url(#clip550)" d="M2072.72 419.373 L2097.2 419.373 L2097.2 425.276 L2064.28 425.276 L2064.28 419.373 Q2068.28 415.241 2075.15 408.297 Q2082.06 401.318 2083.83 399.304 Q2087.2 395.519 2088.52 392.915 Q2089.87 390.276 2089.87 387.741 Q2089.87 383.609 2086.96 381.005 Q2084.07 378.401 2079.42 378.401 Q2076.12 378.401 2072.44 379.547 Q2068.8 380.693 2064.63 383.019 L2064.63 375.936 Q2068.87 374.234 2072.55 373.366 Q2076.23 372.498 2079.28 372.498 Q2087.34 372.498 2092.13 376.526 Q2096.92 380.554 2096.92 387.29 Q2096.92 390.484 2095.71 393.366 Q2094.53 396.213 2091.37 400.102 Q2090.5 401.109 2085.85 405.936 Q2081.19 410.727 2072.72 419.373 Z" fill="#000000" fill-rule="nonzero" fill-opacity="1" /><path clip-path="url(#clip550)" d="M2111.99 373.436 L2139.53 373.436 L2139.53 379.338 L2118.41 379.338 L2118.41 392.047 Q2119.94 391.526 2121.47 391.283 Q2123 391.005 2124.53 391.005 Q2133.21 391.005 2138.28 395.762 Q2143.35 400.519 2143.35 408.644 Q2143.35 417.012 2138.14 421.665 Q2132.93 426.283 2123.45 426.283 Q2120.19 426.283 2116.78 425.727 Q2113.41 425.172 2109.8 424.06 L2109.8 417.012 Q2112.93 418.713 2116.26 419.547 Q2119.6 420.38 2123.31 420.38 Q2129.32 420.38 2132.82 417.22 Q2136.33 414.06 2136.33 408.644 Q2136.33 403.227 2132.82 400.068 Q2129.32 396.908 2123.31 396.908 Q2120.5 396.908 2117.69 397.533 Q2114.91 398.158 2111.99 399.477 L2111.99 373.436 Z" fill="#000000" fill-rule="nonzero" fill-opacity="1" /><path clip-path="url(#clip550)" d="M2172.16 378.054 Q2166.75 378.054 2164 383.401 Q2161.3 388.713 2161.3 399.408 Q2161.3 410.067 2164 415.415 Q2166.75 420.727 2172.16 420.727 Q2177.62 420.727 2180.32 415.415 Q2183.07 410.067 2183.07 399.408 Q2183.07 388.713 2180.32 383.401 Q2177.62 378.054 2172.16 378.054 M2172.16 372.498 Q2180.88 372.498 2185.46 379.408 Q2190.08 386.283 2190.08 399.408 Q2190.08 412.498 2185.46 419.408 Q2180.88 426.283 2172.16 426.283 Q2163.45 426.283 2158.83 419.408 Q2154.25 412.498 2154.25 399.408 Q2154.25 386.283 2158.83 379.408 Q2163.45 372.498 2172.16 372.498 Z" fill="#000000" fill-rule="nonzero" fill-opacity="1" /><path clip-path="url(#clip550)" d="M2217.41 378.054 Q2211.99 378.054 2209.25 383.401 Q2206.54 388.713 2206.54 399.408 Q2206.54 410.067 2209.25 415.415 Q2211.99 420.727 2217.41 420.727 Q2222.86 420.727 2225.57 415.415 Q2228.31 410.067 2228.31 399.408 Q2228.31 388.713 2225.57 383.401 Q2222.86 378.054 2217.41 378.054 M2217.41 372.498 Q2226.12 372.498 2230.71 379.408 Q2235.32 386.283 2235.32 399.408 Q2235.32 412.498 2230.71 419.408 Q2226.12 426.283 2217.41 426.283 Q2208.69 426.283 2204.07 419.408 Q2199.49 412.498 2199.49 399.408 Q2199.49 386.283 2204.07 379.408 Q2208.69 372.498 2217.41 372.498 Z" fill="#000000" fill-rule="nonzero" fill-opacity="1" /><path clip-path="url(#clip550)" d="M2245.74 371.318 L2251.3 371.318 Q2256.5 379.512 2259.07 387.359 Q2261.68 395.206 2261.68 402.949 Q2261.68 410.727 2259.07 418.609 Q2256.5 426.491 2251.3 434.651 L2245.74 434.651 Q2250.36 426.699 2252.62 418.852 Q2254.91 410.97 2254.91 402.949 Q2254.91 394.929 2252.62 387.116 Q2250.36 379.304 2245.74 371.318 Z" fill="#000000" fill-rule="nonzero" fill-opacity="1" /><polyline clip-path="url(#clip550)" style="stroke:#008000; stroke-linecap:round; stroke-linejoin:round; stroke-width:12; stroke-opacity:1; fill:none" points="1467.43,477.116 1604.05,477.116 "/>
<path clip-path="url(#clip550)" d="M1626.82 451.196 L1636.26 451.196 L1659.25 494.564 L1659.25 451.196 L1666.06 451.196 L1666.06 503.036 L1656.61 503.036 L1633.63 459.668 L1633.63 503.036 L1626.82 503.036 L1626.82 451.196 Z" fill="#000000" fill-rule="nonzero" fill-opacity="1" /><path clip-path="url(#clip550)" d="M1713 481.994 L1713 485.119 L1683.63 485.119 Q1684.04 491.716 1687.58 495.189 Q1691.16 498.626 1697.51 498.626 Q1701.19 498.626 1704.63 497.723 Q1708.1 496.82 1711.51 495.015 L1711.51 501.057 Q1708.07 502.515 1704.46 503.279 Q1700.85 504.043 1697.13 504.043 Q1687.83 504.043 1682.38 498.626 Q1676.96 493.209 1676.96 483.973 Q1676.96 474.425 1682.1 468.835 Q1687.27 463.21 1696.02 463.21 Q1703.87 463.21 1708.42 468.279 Q1713 473.314 1713 481.994 M1706.61 480.119 Q1706.54 474.876 1703.66 471.751 Q1700.81 468.626 1696.09 468.626 Q1690.74 468.626 1687.51 471.647 Q1684.32 474.668 1683.83 480.154 L1706.61 480.119 Z" fill="#000000" fill-rule="nonzero" fill-opacity="1" /><path clip-path="url(#clip550)" d="M1722.83 487.689 L1722.83 464.147 L1729.22 464.147 L1729.22 487.446 Q1729.22 492.966 1731.37 495.744 Q1733.52 498.487 1737.83 498.487 Q1743 498.487 1745.99 495.189 Q1749.01 491.89 1749.01 486.196 L1749.01 464.147 L1755.4 464.147 L1755.4 503.036 L1749.01 503.036 L1749.01 497.064 Q1746.68 500.605 1743.59 502.341 Q1740.53 504.043 1736.47 504.043 Q1729.77 504.043 1726.3 499.876 Q1722.83 495.709 1722.83 487.689 M1738.9 463.21 L1738.9 463.21 Z" fill="#000000" fill-rule="nonzero" fill-opacity="1" /><path clip-path="url(#clip550)" d="M1791.09 470.119 Q1790.01 469.494 1788.73 469.216 Q1787.48 468.904 1785.95 468.904 Q1780.53 468.904 1777.62 472.446 Q1774.74 475.953 1774.74 482.55 L1774.74 503.036 L1768.31 503.036 L1768.31 464.147 L1774.74 464.147 L1774.74 470.189 Q1776.75 466.647 1779.98 464.946 Q1783.21 463.21 1787.83 463.21 Q1788.49 463.21 1789.28 463.314 Q1790.08 463.383 1791.06 463.557 L1791.09 470.119 Z" fill="#000000" fill-rule="nonzero" fill-opacity="1" /><path clip-path="url(#clip550)" d="M1815.47 483.487 Q1807.72 483.487 1804.74 485.258 Q1801.75 487.029 1801.75 491.3 Q1801.75 494.702 1803.97 496.716 Q1806.23 498.695 1810.08 498.695 Q1815.4 498.695 1818.59 494.945 Q1821.82 491.161 1821.82 484.911 L1821.82 483.487 L1815.47 483.487 M1828.21 480.848 L1828.21 503.036 L1821.82 503.036 L1821.82 497.133 Q1819.63 500.675 1816.37 502.376 Q1813.1 504.043 1808.38 504.043 Q1802.41 504.043 1798.87 500.709 Q1795.36 497.341 1795.36 491.716 Q1795.36 485.154 1799.74 481.821 Q1804.15 478.487 1812.86 478.487 L1821.82 478.487 L1821.82 477.862 Q1821.82 473.453 1818.9 471.057 Q1816.02 468.626 1810.78 468.626 Q1807.44 468.626 1804.28 469.425 Q1801.12 470.223 1798.21 471.821 L1798.21 465.918 Q1801.72 464.564 1805.01 463.904 Q1808.31 463.21 1811.44 463.21 Q1819.87 463.21 1824.04 467.585 Q1828.21 471.959 1828.21 480.848 Z" fill="#000000" fill-rule="nonzero" fill-opacity="1" /><path clip-path="url(#clip550)" d="M1841.37 449.008 L1847.76 449.008 L1847.76 503.036 L1841.37 503.036 L1841.37 449.008 Z" fill="#000000" fill-rule="nonzero" fill-opacity="1" /><path clip-path="url(#clip550)" d="M1861.4 451.196 L1891.19 451.196 L1891.19 457.098 L1868.42 457.098 L1868.42 472.376 L1888.97 472.376 L1888.97 478.279 L1868.42 478.279 L1868.42 503.036 L1861.4 503.036 L1861.4 451.196 Z" fill="#000000" fill-rule="nonzero" fill-opacity="1" /><path clip-path="url(#clip550)" d="M1902.3 451.196 L1912.76 451.196 L1925.99 486.473 L1939.28 451.196 L1949.74 451.196 L1949.74 503.036 L1942.89 503.036 L1942.89 457.515 L1929.53 493.07 L1922.48 493.07 L1909.11 457.515 L1909.11 503.036 L1902.3 503.036 L1902.3 451.196 Z" fill="#000000" fill-rule="nonzero" fill-opacity="1" /><path clip-path="url(#clip550)" d="M1962.86 451.196 L1969.91 451.196 L1969.91 482.689 Q1969.91 491.022 1972.93 494.702 Q1975.95 498.348 1982.72 498.348 Q1989.46 498.348 1992.48 494.702 Q1995.5 491.022 1995.5 482.689 L1995.5 451.196 L2002.55 451.196 L2002.55 483.557 Q2002.55 493.695 1997.51 498.869 Q1992.51 504.043 1982.72 504.043 Q1972.89 504.043 1967.86 498.869 Q1962.86 493.695 1962.86 483.557 L1962.86 451.196 Z" fill="#000000" fill-rule="nonzero" fill-opacity="1" /><path clip-path="url(#clip550)" d="M2053.38 449.078 Q2048.73 457.064 2046.47 464.876 Q2044.21 472.689 2044.21 480.709 Q2044.21 488.73 2046.47 496.612 Q2048.76 504.459 2053.38 512.411 L2047.82 512.411 Q2042.62 504.251 2040.01 496.369 Q2037.44 488.487 2037.44 480.709 Q2037.44 472.966 2040.01 465.119 Q2042.58 457.272 2047.82 449.078 L2053.38 449.078 Z" fill="#000000" fill-rule="nonzero" fill-opacity="1" /><path clip-path="url(#clip550)" d="M2066.75 451.196 L2094.28 451.196 L2094.28 457.098 L2073.17 457.098 L2073.17 469.807 Q2074.7 469.286 2076.23 469.043 Q2077.76 468.765 2079.28 468.765 Q2087.96 468.765 2093.03 473.522 Q2098.1 478.279 2098.1 486.404 Q2098.1 494.772 2092.89 499.425 Q2087.69 504.043 2078.21 504.043 Q2074.94 504.043 2071.54 503.487 Q2068.17 502.932 2064.56 501.82 L2064.56 494.772 Q2067.69 496.473 2071.02 497.307 Q2074.35 498.14 2078.07 498.14 Q2084.07 498.14 2087.58 494.98 Q2091.09 491.82 2091.09 486.404 Q2091.09 480.987 2087.58 477.828 Q2084.07 474.668 2078.07 474.668 Q2075.26 474.668 2072.44 475.293 Q2069.67 475.918 2066.75 477.237 L2066.75 451.196 Z" fill="#000000" fill-rule="nonzero" fill-opacity="1" /><path clip-path="url(#clip550)" d="M2126.92 455.814 Q2121.51 455.814 2118.76 461.161 Q2116.05 466.473 2116.05 477.168 Q2116.05 487.827 2118.76 493.175 Q2121.51 498.487 2126.92 498.487 Q2132.37 498.487 2135.08 493.175 Q2137.82 487.827 2137.82 477.168 Q2137.82 466.473 2135.08 461.161 Q2132.37 455.814 2126.92 455.814 M2126.92 450.258 Q2135.64 450.258 2140.22 457.168 Q2144.84 464.043 2144.84 477.168 Q2144.84 490.258 2140.22 497.168 Q2135.64 504.043 2126.92 504.043 Q2118.21 504.043 2113.59 497.168 Q2109.01 490.258 2109.01 477.168 Q2109.01 464.043 2113.59 457.168 Q2118.21 450.258 2126.92 450.258 Z" fill="#000000" fill-rule="nonzero" fill-opacity="1" /><path clip-path="url(#clip550)" d="M2172.16 455.814 Q2166.75 455.814 2164 461.161 Q2161.3 466.473 2161.3 477.168 Q2161.3 487.827 2164 493.175 Q2166.75 498.487 2172.16 498.487 Q2177.62 498.487 2180.32 493.175 Q2183.07 487.827 2183.07 477.168 Q2183.07 466.473 2180.32 461.161 Q2177.62 455.814 2172.16 455.814 M2172.16 450.258 Q2180.88 450.258 2185.46 457.168 Q2190.08 464.043 2190.08 477.168 Q2190.08 490.258 2185.46 497.168 Q2180.88 504.043 2172.16 504.043 Q2163.45 504.043 2158.83 497.168 Q2154.25 490.258 2154.25 477.168 Q2154.25 464.043 2158.83 457.168 Q2163.45 450.258 2172.16 450.258 Z" fill="#000000" fill-rule="nonzero" fill-opacity="1" /><path clip-path="url(#clip550)" d="M2217.41 455.814 Q2211.99 455.814 2209.25 461.161 Q2206.54 466.473 2206.54 477.168 Q2206.54 487.827 2209.25 493.175 Q2211.99 498.487 2217.41 498.487 Q2222.86 498.487 2225.57 493.175 Q2228.31 487.827 2228.31 477.168 Q2228.31 466.473 2225.57 461.161 Q2222.86 455.814 2217.41 455.814 M2217.41 450.258 Q2226.12 450.258 2230.71 457.168 Q2235.32 464.043 2235.32 477.168 Q2235.32 490.258 2230.71 497.168 Q2226.12 504.043 2217.41 504.043 Q2208.69 504.043 2204.07 497.168 Q2199.49 490.258 2199.49 477.168 Q2199.49 464.043 2204.07 457.168 Q2208.69 450.258 2217.41 450.258 Z" fill="#000000" fill-rule="nonzero" fill-opacity="1" /><path clip-path="url(#clip550)" d="M2245.74 449.078 L2251.3 449.078 Q2256.5 457.272 2259.07 465.119 Q2261.68 472.966 2261.68 480.709 Q2261.68 488.487 2259.07 496.369 Q2256.5 504.251 2251.3 512.411 L2245.74 512.411 Q2250.36 504.459 2252.62 496.612 Q2254.91 488.73 2254.91 480.709 Q2254.91 472.689 2252.62 464.876 Q2250.36 457.064 2245.74 449.078 Z" fill="#000000" fill-rule="nonzero" fill-opacity="1" /></svg>
