<?xml version="1.0" encoding="utf-8"?>
<svg xmlns="http://www.w3.org/2000/svg" xmlns:xlink="http://www.w3.org/1999/xlink" width="600" height="400" viewBox="0 0 2400 1600">
<defs>
  <clipPath id="clip910">
    <rect x="0" y="0" width="2400" height="1600"/>
  </clipPath>
</defs>
<path clip-path="url(#clip910)" d="
M0 1600 L2400 1600 L2400 0 L0 0  Z
  " fill="#ffffff" fill-rule="evenodd" fill-opacity="1"/>
<defs>
  <clipPath id="clip911">
    <rect x="480" y="0" width="1681" height="1600"/>
  </clipPath>
</defs>
<path clip-path="url(#clip910)" d="
M245.309 1401.58 L2352.76 1401.58 L2352.76 123.472 L245.309 123.472  Z
  " fill="#ffffff" fill-rule="evenodd" fill-opacity="1"/>
<defs>
  <clipPath id="clip912">
    <rect x="245" y="123" width="2108" height="1279"/>
  </clipPath>
</defs>
<polyline clip-path="url(#clip912)" style="stroke:#000000; stroke-linecap:round; stroke-linejoin:round; stroke-width:2; stroke-opacity:0.1; fill:none" points="
  304.954,1401.58 304.954,123.472 
  "/>
<polyline clip-path="url(#clip912)" style="stroke:#000000; stroke-linecap:round; stroke-linejoin:round; stroke-width:2; stroke-opacity:0.1; fill:none" points="
  801.993,1401.58 801.993,123.472 
  "/>
<polyline clip-path="url(#clip912)" style="stroke:#000000; stroke-linecap:round; stroke-linejoin:round; stroke-width:2; stroke-opacity:0.1; fill:none" points="
  1299.03,1401.58 1299.03,123.472 
  "/>
<polyline clip-path="url(#clip912)" style="stroke:#000000; stroke-linecap:round; stroke-linejoin:round; stroke-width:2; stroke-opacity:0.1; fill:none" points="
  1796.07,1401.58 1796.07,123.472 
  "/>
<polyline clip-path="url(#clip912)" style="stroke:#000000; stroke-linecap:round; stroke-linejoin:round; stroke-width:2; stroke-opacity:0.1; fill:none" points="
  2293.11,1401.58 2293.11,123.472 
  "/>
<polyline clip-path="url(#clip910)" style="stroke:#000000; stroke-linecap:round; stroke-linejoin:round; stroke-width:4; stroke-opacity:1; fill:none" points="
  245.309,1401.58 2352.76,1401.58 
  "/>
<polyline clip-path="url(#clip910)" style="stroke:#000000; stroke-linecap:round; stroke-linejoin:round; stroke-width:4; stroke-opacity:1; fill:none" points="
  304.954,1401.58 304.954,1382.68 
  "/>
<polyline clip-path="url(#clip910)" style="stroke:#000000; stroke-linecap:round; stroke-linejoin:round; stroke-width:4; stroke-opacity:1; fill:none" points="
  801.993,1401.58 801.993,1382.68 
  "/>
<polyline clip-path="url(#clip910)" style="stroke:#000000; stroke-linecap:round; stroke-linejoin:round; stroke-width:4; stroke-opacity:1; fill:none" points="
  1299.03,1401.58 1299.03,1382.68 
  "/>
<polyline clip-path="url(#clip910)" style="stroke:#000000; stroke-linecap:round; stroke-linejoin:round; stroke-width:4; stroke-opacity:1; fill:none" points="
  1796.07,1401.58 1796.07,1382.68 
  "/>
<polyline clip-path="url(#clip910)" style="stroke:#000000; stroke-linecap:round; stroke-linejoin:round; stroke-width:4; stroke-opacity:1; fill:none" points="
  2293.11,1401.58 2293.11,1382.68 
  "/>
<path clip-path="url(#clip910)" d="M304.954 1438.36 Q299.537 1438.36 296.794 1443.71 Q294.086 1449.02 294.086 1459.71 Q294.086 1470.37 296.794 1475.72 Q299.537 1481.03 304.954 1481.03 Q310.405 1481.03 313.113 1475.72 Q315.856 1470.37 315.856 1459.71 Q315.856 1449.02 313.113 1443.71 Q310.405 1438.36 304.954 1438.36 M304.954 1432.8 Q313.669 1432.8 318.252 1439.71 Q322.87 1446.59 322.87 1459.71 Q322.87 1472.8 318.252 1479.71 Q313.669 1486.59 304.954 1486.59 Q296.238 1486.59 291.62 1479.71 Q287.037 1472.8 287.037 1459.71 Q287.037 1446.59 291.62 1439.71 Q296.238 1432.8 304.954 1432.8 Z" fill="#000000" fill-rule="evenodd" fill-opacity="1" /><path clip-path="url(#clip910)" d="M787.566 1479.68 L799.024 1479.68 L799.024 1440.13 L786.559 1442.63 L786.559 1436.24 L798.955 1433.74 L805.969 1433.74 L805.969 1479.68 L817.427 1479.68 L817.427 1485.58 L787.566 1485.58 L787.566 1479.68 Z" fill="#000000" fill-rule="evenodd" fill-opacity="1" /><path clip-path="url(#clip910)" d="M1291.01 1479.68 L1315.49 1479.68 L1315.49 1485.58 L1282.57 1485.58 L1282.57 1479.68 Q1286.57 1475.55 1293.44 1468.6 Q1300.35 1461.62 1302.12 1459.61 Q1305.49 1455.82 1306.81 1453.22 Q1308.16 1450.58 1308.16 1448.05 Q1308.16 1443.91 1305.25 1441.31 Q1302.37 1438.71 1297.71 1438.71 Q1294.41 1438.71 1290.73 1439.85 Q1287.09 1441 1282.92 1443.32 L1282.92 1436.24 Q1287.16 1434.54 1290.84 1433.67 Q1294.52 1432.8 1297.57 1432.8 Q1305.63 1432.8 1310.42 1436.83 Q1315.21 1440.86 1315.21 1447.59 Q1315.21 1450.79 1314 1453.67 Q1312.82 1456.52 1309.66 1460.41 Q1308.79 1461.41 1304.14 1466.24 Q1299.48 1471.03 1291.01 1479.68 Z" fill="#000000" fill-rule="evenodd" fill-opacity="1" /><path clip-path="url(#clip910)" d="M1802.44 1457.63 Q1807.48 1458.7 1810.29 1462.11 Q1813.14 1465.51 1813.14 1470.51 Q1813.14 1478.18 1807.86 1482.39 Q1802.58 1486.59 1792.86 1486.59 Q1789.6 1486.59 1786.12 1485.93 Q1782.69 1485.3 1779.01 1484.02 L1779.01 1477.25 Q1781.92 1478.95 1785.39 1479.82 Q1788.87 1480.68 1792.65 1480.68 Q1799.25 1480.68 1802.69 1478.08 Q1806.16 1475.48 1806.16 1470.51 Q1806.16 1465.93 1802.93 1463.36 Q1799.73 1460.75 1794.01 1460.75 L1787.96 1460.75 L1787.96 1454.99 L1794.28 1454.99 Q1799.46 1454.99 1802.2 1452.94 Q1804.94 1450.86 1804.94 1446.97 Q1804.94 1442.98 1802.1 1440.86 Q1799.28 1438.71 1794.01 1438.71 Q1791.12 1438.71 1787.83 1439.33 Q1784.53 1439.96 1780.57 1441.27 L1780.57 1435.02 Q1784.56 1433.91 1788.03 1433.36 Q1791.54 1432.8 1794.63 1432.8 Q1802.62 1432.8 1807.27 1436.45 Q1811.92 1440.06 1811.92 1446.24 Q1811.92 1450.55 1809.46 1453.53 Q1806.99 1456.48 1802.44 1457.63 Z" fill="#000000" fill-rule="evenodd" fill-opacity="1" /><path clip-path="url(#clip910)" d="M2297.63 1439.85 L2279.92 1467.52 L2297.63 1467.52 L2297.63 1439.85 M2295.78 1433.74 L2304.6 1433.74 L2304.6 1467.52 L2312 1467.52 L2312 1473.36 L2304.6 1473.36 L2304.6 1485.58 L2297.63 1485.58 L2297.63 1473.36 L2274.22 1473.36 L2274.22 1466.59 L2295.78 1433.74 Z" fill="#000000" fill-rule="evenodd" fill-opacity="1" /><path clip-path="url(#clip910)" d="M1242.64 1527.62 L1242.64 1538.66 L1255.8 1538.66 L1255.8 1543.62 L1242.64 1543.62 L1242.64 1564.74 Q1242.64 1569.49 1243.93 1570.85 Q1245.25 1572.2 1249.24 1572.2 L1255.8 1572.2 L1255.8 1577.55 L1249.24 1577.55 Q1241.85 1577.55 1239.03 1574.8 Q1236.22 1572.03 1236.22 1564.74 L1236.22 1543.62 L1231.53 1543.62 L1231.53 1538.66 L1236.22 1538.66 L1236.22 1527.62 L1242.64 1527.62 Z" fill="#000000" fill-rule="evenodd" fill-opacity="1" /><path clip-path="url(#clip910)" d="M1286.22 1523.52 L1300.94 1523.52 L1300.94 1528.49 L1292.61 1528.49 L1292.61 1581.96 L1300.94 1581.96 L1300.94 1586.92 L1286.22 1586.92 L1286.22 1523.52 Z" fill="#000000" fill-rule="evenodd" fill-opacity="1" /><path clip-path="url(#clip910)" d="M1339.34 1539.8 L1339.34 1545.85 Q1336.64 1544.46 1333.72 1543.76 Q1330.8 1543.07 1327.68 1543.07 Q1322.92 1543.07 1320.53 1544.53 Q1318.16 1545.99 1318.16 1548.9 Q1318.16 1551.12 1319.87 1552.41 Q1321.57 1553.66 1326.71 1554.8 L1328.89 1555.29 Q1335.7 1556.75 1338.55 1559.42 Q1341.43 1562.06 1341.43 1566.82 Q1341.43 1572.24 1337.12 1575.4 Q1332.85 1578.55 1325.35 1578.55 Q1322.23 1578.55 1318.82 1577.93 Q1315.46 1577.34 1311.71 1576.12 L1311.71 1569.53 Q1315.25 1571.37 1318.69 1572.3 Q1322.12 1573.21 1325.49 1573.21 Q1330 1573.21 1332.43 1571.68 Q1334.87 1570.12 1334.87 1567.3 Q1334.87 1564.7 1333.09 1563.31 Q1331.36 1561.92 1325.42 1560.64 L1323.2 1560.12 Q1317.26 1558.87 1314.62 1556.3 Q1311.98 1553.69 1311.98 1549.18 Q1311.98 1543.69 1315.87 1540.71 Q1319.76 1537.72 1326.91 1537.72 Q1330.46 1537.72 1333.58 1538.24 Q1336.71 1538.76 1339.34 1539.8 Z" fill="#000000" fill-rule="evenodd" fill-opacity="1" /><path clip-path="url(#clip910)" d="M1366.53 1523.52 L1366.53 1586.92 L1351.81 1586.92 L1351.81 1581.96 L1360.11 1581.96 L1360.11 1528.49 L1351.81 1528.49 L1351.81 1523.52 L1366.53 1523.52 Z" fill="#000000" fill-rule="evenodd" fill-opacity="1" /><polyline clip-path="url(#clip912)" style="stroke:#000000; stroke-linecap:round; stroke-linejoin:round; stroke-width:2; stroke-opacity:0.1; fill:none" points="
  245.309,1396.89 2352.76,1396.89 
  "/>
<polyline clip-path="url(#clip912)" style="stroke:#000000; stroke-linecap:round; stroke-linejoin:round; stroke-width:2; stroke-opacity:0.1; fill:none" points="
  245.309,1079.66 2352.76,1079.66 
  "/>
<polyline clip-path="url(#clip912)" style="stroke:#000000; stroke-linecap:round; stroke-linejoin:round; stroke-width:2; stroke-opacity:0.1; fill:none" points="
  245.309,762.418 2352.76,762.418 
  "/>
<polyline clip-path="url(#clip912)" style="stroke:#000000; stroke-linecap:round; stroke-linejoin:round; stroke-width:2; stroke-opacity:0.1; fill:none" points="
  245.309,445.179 2352.76,445.179 
  "/>
<polyline clip-path="url(#clip912)" style="stroke:#000000; stroke-linecap:round; stroke-linejoin:round; stroke-width:2; stroke-opacity:0.1; fill:none" points="
  245.309,127.941 2352.76,127.941 
  "/>
<polyline clip-path="url(#clip910)" style="stroke:#000000; stroke-linecap:round; stroke-linejoin:round; stroke-width:4; stroke-opacity:1; fill:none" points="
  245.309,1401.58 245.309,123.472 
  "/>
<polyline clip-path="url(#clip910)" style="stroke:#000000; stroke-linecap:round; stroke-linejoin:round; stroke-width:4; stroke-opacity:1; fill:none" points="
  245.309,1396.89 264.206,1396.89 
  "/>
<polyline clip-path="url(#clip910)" style="stroke:#000000; stroke-linecap:round; stroke-linejoin:round; stroke-width:4; stroke-opacity:1; fill:none" points="
  245.309,1079.66 264.206,1079.66 
  "/>
<polyline clip-path="url(#clip910)" style="stroke:#000000; stroke-linecap:round; stroke-linejoin:round; stroke-width:4; stroke-opacity:1; fill:none" points="
  245.309,762.418 264.206,762.418 
  "/>
<polyline clip-path="url(#clip910)" style="stroke:#000000; stroke-linecap:round; stroke-linejoin:round; stroke-width:4; stroke-opacity:1; fill:none" points="
  245.309,445.179 264.206,445.179 
  "/>
<polyline clip-path="url(#clip910)" style="stroke:#000000; stroke-linecap:round; stroke-linejoin:round; stroke-width:4; stroke-opacity:1; fill:none" points="
  245.309,127.941 264.206,127.941 
  "/>
<path clip-path="url(#clip910)" d="M119.136 1397.57 L163.649 1397.57 L163.649 1403.47 L119.136 1403.47 L119.136 1397.57 Z" fill="#000000" fill-rule="evenodd" fill-opacity="1" /><path clip-path="url(#clip910)" d="M184.83 1416.91 L209.309 1416.91 L209.309 1422.81 L176.392 1422.81 L176.392 1416.91 Q180.385 1412.78 187.26 1405.84 Q194.17 1398.86 195.941 1396.84 Q199.309 1393.06 200.628 1390.45 Q201.982 1387.81 201.982 1385.28 Q201.982 1381.15 199.066 1378.54 Q196.184 1375.94 191.531 1375.94 Q188.233 1375.94 184.552 1377.09 Q180.906 1378.23 176.74 1380.56 L176.74 1373.47 Q180.976 1371.77 184.656 1370.9 Q188.337 1370.04 191.392 1370.04 Q199.448 1370.04 204.239 1374.06 Q209.031 1378.09 209.031 1384.83 Q209.031 1388.02 207.816 1390.9 Q206.635 1393.75 203.476 1397.64 Q202.607 1398.65 197.955 1403.47 Q193.302 1408.27 184.83 1416.91 Z" fill="#000000" fill-rule="evenodd" fill-opacity="1" /><path clip-path="url(#clip910)" d="M118.58 1080.33 L163.094 1080.33 L163.094 1086.24 L118.58 1086.24 L118.58 1080.33 Z" fill="#000000" fill-rule="evenodd" fill-opacity="1" /><path clip-path="url(#clip910)" d="M179.448 1099.67 L190.906 1099.67 L190.906 1060.12 L178.441 1062.62 L178.441 1056.24 L190.837 1053.74 L197.851 1053.74 L197.851 1099.67 L209.309 1099.67 L209.309 1105.58 L179.448 1105.58 L179.448 1099.67 Z" fill="#000000" fill-rule="evenodd" fill-opacity="1" /><path clip-path="url(#clip910)" d="M191.392 741.116 Q185.976 741.116 183.233 746.463 Q180.524 751.775 180.524 762.47 Q180.524 773.129 183.233 778.477 Q185.976 783.789 191.392 783.789 Q196.844 783.789 199.552 778.477 Q202.295 773.129 202.295 762.47 Q202.295 751.775 199.552 746.463 Q196.844 741.116 191.392 741.116 M191.392 735.56 Q200.107 735.56 204.691 742.47 Q209.309 749.345 209.309 762.47 Q209.309 775.56 204.691 782.47 Q200.107 789.345 191.392 789.345 Q182.677 789.345 178.059 782.47 Q173.476 775.56 173.476 762.47 Q173.476 749.345 178.059 742.47 Q182.677 735.56 191.392 735.56 Z" fill="#000000" fill-rule="evenodd" fill-opacity="1" /><path clip-path="url(#clip910)" d="M179.448 465.197 L190.906 465.197 L190.906 425.648 L178.441 428.148 L178.441 421.759 L190.837 419.259 L197.851 419.259 L197.851 465.197 L209.309 465.197 L209.309 471.099 L179.448 471.099 L179.448 465.197 Z" fill="#000000" fill-rule="evenodd" fill-opacity="1" /><path clip-path="url(#clip910)" d="M184.83 147.958 L209.309 147.958 L209.309 153.861 L176.392 153.861 L176.392 147.958 Q180.385 143.827 187.26 136.882 Q194.17 129.903 195.941 127.889 Q199.309 124.104 200.628 121.5 Q201.982 118.861 201.982 116.327 Q201.982 112.195 199.066 109.591 Q196.184 106.986 191.531 106.986 Q188.233 106.986 184.552 108.132 Q180.906 109.278 176.74 111.604 L176.74 104.521 Q180.976 102.82 184.656 101.952 Q188.337 101.084 191.392 101.084 Q199.448 101.084 204.239 105.111 Q209.031 109.139 209.031 115.875 Q209.031 119.07 207.816 121.952 Q206.635 124.799 203.476 128.688 Q202.607 129.695 197.955 134.521 Q193.302 139.313 184.83 147.958 Z" fill="#000000" fill-rule="evenodd" fill-opacity="1" /><path clip-path="url(#clip910)" d="M35.6047 1073.64 Q31.2992 1071.24 29.2506 1067.91 Q27.202 1064.57 27.202 1060.06 Q27.202 1053.98 31.4728 1050.68 Q35.7089 1047.39 43.5561 1047.39 L67.0282 1047.39 L67.0282 1053.81 L43.7644 1053.81 Q38.1741 1053.81 35.4658 1055.79 Q32.7575 1057.77 32.7575 1061.83 Q32.7575 1066.8 36.0561 1069.68 Q39.3547 1072.56 45.0491 1072.56 L67.0282 1072.56 L67.0282 1078.98 L43.7644 1078.98 Q38.1394 1078.98 35.4658 1080.96 Q32.7575 1082.94 32.7575 1087.07 Q32.7575 1091.97 36.0908 1094.85 Q39.3894 1097.73 45.0491 1097.73 L67.0282 1097.73 L67.0282 1104.16 L28.1395 1104.16 L28.1395 1097.73 L34.1811 1097.73 Q30.6047 1095.55 28.9034 1092.49 Q27.202 1089.43 27.202 1085.23 Q27.202 1081 29.3547 1078.05 Q31.5075 1075.06 35.6047 1073.64 Z" fill="#000000" fill-rule="evenodd" fill-opacity="1" /><path clip-path="url(#clip910)" d="M47.4797 1016.97 Q47.4797 1024.71 49.2505 1027.7 Q51.0213 1030.68 55.2921 1030.68 Q58.6949 1030.68 60.7087 1028.46 Q62.6879 1026.21 62.6879 1022.35 Q62.6879 1017.04 58.9379 1013.84 Q55.1532 1010.61 48.9033 1010.61 L47.4797 1010.61 L47.4797 1016.97 M44.8408 1004.23 L67.0282 1004.23 L67.0282 1010.61 L61.1254 1010.61 Q64.6671 1012.8 66.3684 1016.07 Q68.0351 1019.33 68.0351 1024.05 Q68.0351 1030.02 64.7018 1033.57 Q61.3337 1037.07 55.7088 1037.07 Q49.1463 1037.07 45.813 1032.7 Q42.4797 1028.29 42.4797 1019.57 L42.4797 1010.61 L41.8547 1010.61 Q37.445 1010.61 35.0492 1013.53 Q32.6186 1016.41 32.6186 1021.66 Q32.6186 1024.99 33.4172 1028.15 Q34.2158 1031.31 35.813 1034.23 L29.9103 1034.23 Q28.5561 1030.72 27.8964 1027.42 Q27.202 1024.12 27.202 1021 Q27.202 1012.56 31.577 1008.39 Q35.9519 1004.23 44.8408 1004.23 Z" fill="#000000" fill-rule="evenodd" fill-opacity="1" /><path clip-path="url(#clip910)" d="M29.2853 966.275 L35.3269 966.275 Q33.9381 968.983 33.2436 971.9 Q32.5492 974.817 32.5492 977.941 Q32.5492 982.698 34.0075 985.094 Q35.4658 987.455 38.3825 987.455 Q40.6047 987.455 41.8894 985.754 Q43.1394 984.053 44.2852 978.914 L44.7713 976.726 Q46.2297 969.921 48.9033 967.073 Q51.5421 964.192 56.299 964.192 Q61.7157 964.192 64.8754 968.497 Q68.0351 972.768 68.0351 980.268 Q68.0351 983.393 67.4101 986.796 Q66.8198 990.164 65.6046 993.914 L59.0074 993.914 Q60.8476 990.372 61.7851 986.935 Q62.6879 983.497 62.6879 980.129 Q62.6879 975.615 61.1601 973.185 Q59.5976 970.754 56.7852 970.754 Q54.181 970.754 52.7921 972.525 Q51.4032 974.261 50.1185 980.198 L49.5977 982.421 Q48.3477 988.358 45.7783 990.997 Q43.1741 993.636 38.6603 993.636 Q33.1742 993.636 30.1881 989.747 Q27.202 985.858 27.202 978.705 Q27.202 975.164 27.7228 972.039 Q28.2436 968.914 29.2853 966.275 Z" fill="#000000" fill-rule="evenodd" fill-opacity="1" /><path clip-path="url(#clip910)" d="M29.2853 929.226 L35.3269 929.226 Q33.9381 931.935 33.2436 934.851 Q32.5492 937.768 32.5492 940.893 Q32.5492 945.65 34.0075 948.046 Q35.4658 950.407 38.3825 950.407 Q40.6047 950.407 41.8894 948.706 Q43.1394 947.004 44.2852 941.865 L44.7713 939.678 Q46.2297 932.872 48.9033 930.025 Q51.5421 927.143 56.299 927.143 Q61.7157 927.143 64.8754 931.449 Q68.0351 935.72 68.0351 943.219 Q68.0351 946.344 67.4101 949.747 Q66.8198 953.115 65.6046 956.865 L59.0074 956.865 Q60.8476 953.324 61.7851 949.886 Q62.6879 946.449 62.6879 943.081 Q62.6879 938.567 61.1601 936.136 Q59.5976 933.706 56.7852 933.706 Q54.181 933.706 52.7921 935.476 Q51.4032 937.213 50.1185 943.15 L49.5977 945.372 Q48.3477 951.31 45.7783 953.949 Q43.1741 956.587 38.6603 956.587 Q33.1742 956.587 30.1881 952.699 Q27.202 948.81 27.202 941.657 Q27.202 938.115 27.7228 934.99 Q28.2436 931.865 29.2853 929.226 Z" fill="#000000" fill-rule="evenodd" fill-opacity="1" /><path clip-path="url(#clip910)" d="M28.1395 898.949 L28.1395 892.178 L60.7782 880.025 L28.1395 867.873 L28.1395 861.102 L67.0282 875.685 L67.0282 884.366 L28.1395 898.949 Z" fill="#000000" fill-rule="evenodd" fill-opacity="1" /><path clip-path="url(#clip910)" d="M45.9866 819.019 L49.1116 819.019 L49.1116 848.394 Q55.7088 847.977 59.181 844.435 Q62.6185 840.859 62.6185 834.505 Q62.6185 830.824 61.7157 827.387 Q60.8129 823.915 59.0074 820.512 L65.049 820.512 Q66.5073 823.949 67.2712 827.56 Q68.0351 831.171 68.0351 834.887 Q68.0351 844.192 62.6185 849.644 Q57.2018 855.06 47.9658 855.06 Q38.4172 855.06 32.827 849.921 Q27.202 844.748 27.202 835.998 Q27.202 828.151 32.2714 823.602 Q37.3061 819.019 45.9866 819.019 M44.1116 825.408 Q38.8686 825.477 35.7436 828.359 Q32.6186 831.206 32.6186 835.928 Q32.6186 841.276 35.6394 844.505 Q38.6603 847.699 44.1463 848.185 L44.1116 825.408 Z" fill="#000000" fill-rule="evenodd" fill-opacity="1" /><path clip-path="url(#clip910)" d="M13.0007 808.533 L13.0007 802.144 L67.0282 802.144 L67.0282 808.533 L13.0007 808.533 Z" fill="#000000" fill-rule="evenodd" fill-opacity="1" /><path clip-path="url(#clip910)" d="M32.6186 773.706 Q32.6186 778.845 36.6464 781.831 Q40.6394 784.818 47.6185 784.818 Q54.5977 784.818 58.6254 781.866 Q62.6185 778.88 62.6185 773.706 Q62.6185 768.602 58.5907 765.616 Q54.5629 762.63 47.6185 762.63 Q40.7089 762.63 36.6811 765.616 Q32.6186 768.602 32.6186 773.706 M27.202 773.706 Q27.202 765.373 32.6186 760.616 Q38.0353 755.859 47.6185 755.859 Q57.1671 755.859 62.6185 760.616 Q68.0351 765.373 68.0351 773.706 Q68.0351 782.074 62.6185 786.831 Q57.1671 791.554 47.6185 791.554 Q38.0353 791.554 32.6186 786.831 Q27.202 782.074 27.202 773.706 Z" fill="#000000" fill-rule="evenodd" fill-opacity="1" /><path clip-path="url(#clip910)" d="M29.6325 717.283 L35.6047 717.283 Q34.1117 719.991 33.3825 722.735 Q32.6186 725.443 32.6186 728.221 Q32.6186 734.436 36.5769 737.873 Q40.5005 741.311 47.6185 741.311 Q54.7366 741.311 58.6949 737.873 Q62.6185 734.436 62.6185 728.221 Q62.6185 725.443 61.8893 722.735 Q61.1254 719.991 59.6324 717.283 L65.5351 717.283 Q66.7851 719.957 67.4101 722.839 Q68.0351 725.686 68.0351 728.915 Q68.0351 737.7 62.5143 742.873 Q56.9935 748.047 47.6185 748.047 Q38.1047 748.047 32.6533 742.839 Q27.202 737.596 27.202 728.498 Q27.202 725.547 27.827 722.735 Q28.4173 719.922 29.6325 717.283 Z" fill="#000000" fill-rule="evenodd" fill-opacity="1" /><path clip-path="url(#clip910)" d="M28.1395 706.172 L28.1395 699.783 L67.0282 699.783 L67.0282 706.172 L28.1395 706.172 M13.0007 706.172 L13.0007 699.783 L21.0909 699.783 L21.0909 706.172 L13.0007 706.172 Z" fill="#000000" fill-rule="evenodd" fill-opacity="1" /><path clip-path="url(#clip910)" d="M17.0979 680.096 L28.1395 680.096 L28.1395 666.936 L33.1047 666.936 L33.1047 680.096 L54.2157 680.096 Q58.9726 680.096 60.3268 678.811 Q61.681 677.492 61.681 673.499 L61.681 666.936 L67.0282 666.936 L67.0282 673.499 Q67.0282 680.894 64.2851 683.707 Q61.5074 686.519 54.2157 686.519 L33.1047 686.519 L33.1047 691.207 L28.1395 691.207 L28.1395 686.519 L17.0979 686.519 L17.0979 680.096 Z" fill="#000000" fill-rule="evenodd" fill-opacity="1" /><path clip-path="url(#clip910)" d="M70.6392 642.353 Q77.5837 645.061 79.7017 647.631 Q81.8197 650.2 81.8197 654.506 L81.8197 659.61 L76.4726 659.61 L76.4726 655.86 Q76.4726 653.221 75.2226 651.763 Q73.9726 650.304 69.3198 648.534 L66.4032 647.388 L28.1395 663.117 L28.1395 656.346 L58.556 644.193 L28.1395 632.041 L28.1395 625.27 L70.6392 642.353 Z" fill="#000000" fill-rule="evenodd" fill-opacity="1" /><path clip-path="url(#clip910)" d="M13.0007 594.437 L13.0007 579.714 L17.9659 579.714 L17.9659 588.048 L71.4379 588.048 L71.4379 579.714 L76.4031 579.714 L76.4031 594.437 L13.0007 594.437 Z" fill="#000000" fill-rule="evenodd" fill-opacity="1" /><path clip-path="url(#clip910)" d="M35.6047 535.826 Q31.2992 533.43 29.2506 530.097 Q27.202 526.763 27.202 522.249 Q27.202 516.173 31.4728 512.875 Q35.7089 509.576 43.5561 509.576 L67.0282 509.576 L67.0282 516 L43.7644 516 Q38.1741 516 35.4658 517.979 Q32.7575 519.958 32.7575 524.02 Q32.7575 528.986 36.0561 531.867 Q39.3547 534.749 45.0491 534.749 L67.0282 534.749 L67.0282 541.173 L43.7644 541.173 Q38.1394 541.173 35.4658 543.152 Q32.7575 545.131 32.7575 549.263 Q32.7575 554.159 36.0908 557.041 Q39.3894 559.923 45.0491 559.923 L67.0282 559.923 L67.0282 566.346 L28.1395 566.346 L28.1395 559.923 L34.1811 559.923 Q30.6047 557.735 28.9034 554.68 Q27.202 551.624 27.202 547.423 Q27.202 543.187 29.3547 540.236 Q31.5075 537.249 35.6047 535.826 Z" fill="#000000" fill-rule="evenodd" fill-opacity="1" /><path clip-path="url(#clip910)" d="M15.1882 485.479 L15.1882 479.576 L73.6253 497.632 L73.6253 503.534 L15.1882 485.479 Z" fill="#000000" fill-rule="evenodd" fill-opacity="1" /><path clip-path="url(#clip910)" d="M29.2853 448.083 L35.3269 448.083 Q33.9381 450.792 33.2436 453.708 Q32.5492 456.625 32.5492 459.75 Q32.5492 464.507 34.0075 466.903 Q35.4658 469.264 38.3825 469.264 Q40.6047 469.264 41.8894 467.562 Q43.1394 465.861 44.2852 460.722 L44.7713 458.535 Q46.2297 451.729 48.9033 448.882 Q51.5421 446 56.299 446 Q61.7157 446 64.8754 450.305 Q68.0351 454.576 68.0351 462.076 Q68.0351 465.201 67.4101 468.604 Q66.8198 471.972 65.6046 475.722 L59.0074 475.722 Q60.8476 472.18 61.7851 468.743 Q62.6879 465.305 62.6879 461.937 Q62.6879 457.423 61.1601 454.993 Q59.5976 452.562 56.7852 452.562 Q54.181 452.562 52.7921 454.333 Q51.4032 456.069 50.1185 462.007 L49.5977 464.229 Q48.3477 470.166 45.7783 472.805 Q43.1741 475.444 38.6603 475.444 Q33.1742 475.444 30.1881 471.555 Q27.202 467.666 27.202 460.514 Q27.202 456.972 27.7228 453.847 Q28.2436 450.722 29.2853 448.083 Z" fill="#000000" fill-rule="evenodd" fill-opacity="1" /><path clip-path="url(#clip910)" d="M13.0007 420.896 L76.4031 420.896 L76.4031 435.618 L71.4379 435.618 L71.4379 427.319 L17.9659 427.319 L17.9659 435.618 L13.0007 435.618 L13.0007 420.896 Z" fill="#000000" fill-rule="evenodd" fill-opacity="1" /><path clip-path="url(#clip910)" d="M599.38 18.8205 L599.38 65.8515 L609.265 65.8515 Q621.782 65.8515 627.575 60.1802 Q633.408 54.509 633.408 42.2752 Q633.408 30.1225 627.575 24.4918 Q621.782 18.8205 609.265 18.8205 L599.38 18.8205 M591.198 12.096 L608.009 12.096 Q625.59 12.096 633.813 19.4281 Q642.036 26.7198 642.036 42.2752 Q642.036 57.9117 633.773 65.2439 Q625.509 72.576 608.009 72.576 L591.198 72.576 L591.198 12.096 Z" fill="#000000" fill-rule="evenodd" fill-opacity="1" /><path clip-path="url(#clip910)" d="M693.564 48.0275 L693.564 51.6733 L659.293 51.6733 Q659.779 59.3701 663.911 63.421 Q668.084 67.4314 675.497 67.4314 Q679.791 67.4314 683.801 66.3781 Q687.852 65.3249 691.822 63.2184 L691.822 70.267 Q687.812 71.9684 683.599 72.8596 Q679.386 73.7508 675.051 73.7508 Q664.195 73.7508 657.835 67.4314 Q651.516 61.1119 651.516 50.3365 Q651.516 39.1965 657.511 32.6746 Q663.547 26.1121 673.755 26.1121 Q682.91 26.1121 688.217 32.0264 Q693.564 37.9003 693.564 48.0275 M686.11 45.84 Q686.029 39.7232 682.667 36.0774 Q679.345 32.4315 673.836 32.4315 Q667.598 32.4315 663.83 35.9558 Q660.104 39.4801 659.536 45.8805 L686.11 45.84 Z" fill="#000000" fill-rule="evenodd" fill-opacity="1" /><path clip-path="url(#clip910)" d="M728.766 9.54393 L728.766 15.7418 L721.637 15.7418 Q717.626 15.7418 716.046 17.3622 Q714.507 18.9825 714.507 23.1955 L714.507 27.2059 L726.781 27.2059 L726.781 32.9987 L714.507 32.9987 L714.507 72.576 L707.013 72.576 L707.013 32.9987 L699.883 32.9987 L699.883 27.2059 L707.013 27.2059 L707.013 24.0462 Q707.013 16.471 710.537 13.0277 Q714.062 9.54393 721.718 9.54393 L728.766 9.54393 Z" fill="#000000" fill-rule="evenodd" fill-opacity="1" /><path clip-path="url(#clip910)" d="M755.624 49.7694 Q746.59 49.7694 743.107 51.8354 Q739.623 53.9013 739.623 58.8839 Q739.623 62.8538 742.215 65.2034 Q744.848 67.5124 749.345 67.5124 Q755.543 67.5124 759.27 63.1374 Q763.037 58.7219 763.037 51.4303 L763.037 49.7694 L755.624 49.7694 M770.491 46.6907 L770.491 72.576 L763.037 72.576 L763.037 65.6895 Q760.485 69.8214 756.677 71.8063 Q752.869 73.7508 747.36 73.7508 Q740.392 73.7508 736.261 69.8619 Q732.169 65.9325 732.169 59.3701 Q732.169 51.7138 737.273 47.825 Q742.418 43.9361 752.586 43.9361 L763.037 43.9361 L763.037 43.2069 Q763.037 38.0623 759.634 35.2672 Q756.272 32.4315 750.155 32.4315 Q746.266 32.4315 742.58 33.3632 Q738.894 34.295 735.491 36.1584 L735.491 29.2718 Q739.582 27.692 743.431 26.9223 Q747.279 26.1121 750.925 26.1121 Q760.768 26.1121 765.63 31.2163 Q770.491 36.3204 770.491 46.6907 Z" fill="#000000" fill-rule="evenodd" fill-opacity="1" /><path clip-path="url(#clip910)" d="M785.074 54.671 L785.074 27.2059 L792.528 27.2059 L792.528 54.3874 Q792.528 60.8284 795.039 64.0691 Q797.551 67.2693 802.574 67.2693 Q808.61 67.2693 812.093 63.421 Q815.618 59.5726 815.618 52.9291 L815.618 27.2059 L823.071 27.2059 L823.071 72.576 L815.618 72.576 L815.618 65.6084 Q812.904 69.7404 809.298 71.7658 Q805.734 73.7508 800.994 73.7508 Q793.176 73.7508 789.125 68.8897 Q785.074 64.0286 785.074 54.671 M803.83 26.1121 L803.83 26.1121 Z" fill="#000000" fill-rule="evenodd" fill-opacity="1" /><path clip-path="url(#clip910)" d="M838.424 9.54393 L845.878 9.54393 L845.878 72.576 L838.424 72.576 L838.424 9.54393 Z" fill="#000000" fill-rule="evenodd" fill-opacity="1" /><path clip-path="url(#clip910)" d="M868.847 14.324 L868.847 27.2059 L884.2 27.2059 L884.2 32.9987 L868.847 32.9987 L868.847 57.6282 Q868.847 63.1779 870.345 64.7578 Q871.885 66.3376 876.543 66.3376 L884.2 66.3376 L884.2 72.576 L876.543 72.576 Q867.915 72.576 864.634 69.3758 Q861.352 66.1351 861.352 57.6282 L861.352 32.9987 L855.884 32.9987 L855.884 27.2059 L861.352 27.2059 L861.352 14.324 L868.847 14.324 Z" fill="#000000" fill-rule="evenodd" fill-opacity="1" /><path clip-path="url(#clip910)" d="M895.907 62.2867 L904.454 62.2867 L904.454 72.576 L895.907 72.576 L895.907 62.2867 M895.907 29.6769 L904.454 29.6769 L904.454 39.9662 L895.907 39.9662 L895.907 29.6769 Z" fill="#000000" fill-rule="evenodd" fill-opacity="1" /><path clip-path="url(#clip910)" d="M948.649 12.096 L960.843 12.096 L976.277 53.2532 L991.792 12.096 L1003.98 12.096 L1003.98 72.576 L996.004 72.576 L996.004 19.4686 L980.409 60.9499 L972.185 60.9499 L956.589 19.4686 L956.589 72.576 L948.649 72.576 L948.649 12.096 Z" fill="#000000" fill-rule="evenodd" fill-opacity="1" /><path clip-path="url(#clip910)" d="M1040.52 49.7694 Q1031.49 49.7694 1028.01 51.8354 Q1024.52 53.9013 1024.52 58.8839 Q1024.52 62.8538 1027.12 65.2034 Q1029.75 67.5124 1034.25 67.5124 Q1040.44 67.5124 1044.17 63.1374 Q1047.94 58.7219 1047.94 51.4303 L1047.94 49.7694 L1040.52 49.7694 M1055.39 46.6907 L1055.39 72.576 L1047.94 72.576 L1047.94 65.6895 Q1045.39 69.8214 1041.58 71.8063 Q1037.77 73.7508 1032.26 73.7508 Q1025.29 73.7508 1021.16 69.8619 Q1017.07 65.9325 1017.07 59.3701 Q1017.07 51.7138 1022.17 47.825 Q1027.32 43.9361 1037.49 43.9361 L1047.94 43.9361 L1047.94 43.2069 Q1047.94 38.0623 1044.53 35.2672 Q1041.17 32.4315 1035.06 32.4315 Q1031.17 32.4315 1027.48 33.3632 Q1023.79 34.295 1020.39 36.1584 L1020.39 29.2718 Q1024.48 27.692 1028.33 26.9223 Q1032.18 26.1121 1035.82 26.1121 Q1045.67 26.1121 1050.53 31.2163 Q1055.39 36.3204 1055.39 46.6907 Z" fill="#000000" fill-rule="evenodd" fill-opacity="1" /><path clip-path="url(#clip910)" d="M1099.67 28.5427 L1099.67 35.5912 Q1096.51 33.9709 1093.1 33.1607 Q1089.7 32.3505 1086.06 32.3505 Q1080.51 32.3505 1077.71 34.0519 Q1074.96 35.7533 1074.96 39.156 Q1074.96 41.7486 1076.94 43.2475 Q1078.93 44.7058 1084.92 46.0426 L1087.47 46.6097 Q1095.41 48.3111 1098.74 51.4303 Q1102.1 54.509 1102.1 60.0587 Q1102.1 66.3781 1097.07 70.0644 Q1092.09 73.7508 1083.34 73.7508 Q1079.7 73.7508 1075.73 73.0216 Q1071.8 72.3329 1067.42 70.9151 L1067.42 63.2184 Q1071.55 65.3654 1075.56 66.4591 Q1079.57 67.5124 1083.5 67.5124 Q1088.77 67.5124 1091.61 65.73 Q1094.44 63.9071 1094.44 60.6258 Q1094.44 57.5877 1092.38 55.9673 Q1090.35 54.3469 1083.42 52.8481 L1080.83 52.2405 Q1073.9 50.7821 1070.82 47.7845 Q1067.75 44.7463 1067.75 39.4801 Q1067.75 33.0797 1072.28 29.5959 Q1076.82 26.1121 1085.16 26.1121 Q1089.3 26.1121 1092.94 26.7198 Q1096.59 27.3274 1099.67 28.5427 Z" fill="#000000" fill-rule="evenodd" fill-opacity="1" /><path clip-path="url(#clip910)" d="M1142.89 28.5427 L1142.89 35.5912 Q1139.73 33.9709 1136.33 33.1607 Q1132.93 32.3505 1129.28 32.3505 Q1123.73 32.3505 1120.93 34.0519 Q1118.18 35.7533 1118.18 39.156 Q1118.18 41.7486 1120.16 43.2475 Q1122.15 44.7058 1128.14 46.0426 L1130.7 46.6097 Q1138.64 48.3111 1141.96 51.4303 Q1145.32 54.509 1145.32 60.0587 Q1145.32 66.3781 1140.3 70.0644 Q1135.32 73.7508 1126.57 73.7508 Q1122.92 73.7508 1118.95 73.0216 Q1115.02 72.3329 1110.65 70.9151 L1110.65 63.2184 Q1114.78 65.3654 1118.79 66.4591 Q1122.8 67.5124 1126.73 67.5124 Q1131.99 67.5124 1134.83 65.73 Q1137.66 63.9071 1137.66 60.6258 Q1137.66 57.5877 1135.6 55.9673 Q1133.57 54.3469 1126.65 52.8481 L1124.05 52.2405 Q1117.13 50.7821 1114.05 47.7845 Q1110.97 44.7463 1110.97 39.4801 Q1110.97 33.0797 1115.51 29.5959 Q1120.04 26.1121 1128.39 26.1121 Q1132.52 26.1121 1136.17 26.7198 Q1139.81 27.3274 1142.89 28.5427 Z" fill="#000000" fill-rule="evenodd" fill-opacity="1" /><path clip-path="url(#clip910)" d="M1178.21 27.2059 L1186.11 27.2059 L1200.29 65.2844 L1214.47 27.2059 L1222.37 27.2059 L1205.36 72.576 L1195.23 72.576 L1178.21 27.2059 Z" fill="#000000" fill-rule="evenodd" fill-opacity="1" /><path clip-path="url(#clip910)" d="M1271.47 48.0275 L1271.47 51.6733 L1237.2 51.6733 Q1237.68 59.3701 1241.81 63.421 Q1245.99 67.4314 1253.4 67.4314 Q1257.69 67.4314 1261.7 66.3781 Q1265.75 65.3249 1269.72 63.2184 L1269.72 70.267 Q1265.71 71.9684 1261.5 72.8596 Q1257.29 73.7508 1252.95 73.7508 Q1242.1 73.7508 1235.74 67.4314 Q1229.42 61.1119 1229.42 50.3365 Q1229.42 39.1965 1235.41 32.6746 Q1241.45 26.1121 1251.66 26.1121 Q1260.81 26.1121 1266.12 32.0264 Q1271.47 37.9003 1271.47 48.0275 M1264.01 45.84 Q1263.93 39.7232 1260.57 36.0774 Q1257.25 32.4315 1251.74 32.4315 Q1245.5 32.4315 1241.73 35.9558 Q1238.01 39.4801 1237.44 45.8805 L1264.01 45.84 Z" fill="#000000" fill-rule="evenodd" fill-opacity="1" /><path clip-path="url(#clip910)" d="M1283.7 9.54393 L1291.15 9.54393 L1291.15 72.576 L1283.7 72.576 L1283.7 9.54393 Z" fill="#000000" fill-rule="evenodd" fill-opacity="1" /><path clip-path="url(#clip910)" d="M1324.33 32.4315 Q1318.33 32.4315 1314.85 37.1306 Q1311.37 41.7891 1311.37 49.9314 Q1311.37 58.0738 1314.81 62.7728 Q1318.29 67.4314 1324.33 67.4314 Q1330.29 67.4314 1333.77 62.7323 Q1337.25 58.0333 1337.25 49.9314 Q1337.25 41.8701 1333.77 37.1711 Q1330.29 32.4315 1324.33 32.4315 M1324.33 26.1121 Q1334.05 26.1121 1339.6 32.4315 Q1345.15 38.7509 1345.15 49.9314 Q1345.15 61.0714 1339.6 67.4314 Q1334.05 73.7508 1324.33 73.7508 Q1314.57 73.7508 1309.02 67.4314 Q1303.51 61.0714 1303.51 49.9314 Q1303.51 38.7509 1309.02 32.4315 Q1314.57 26.1121 1324.33 26.1121 Z" fill="#000000" fill-rule="evenodd" fill-opacity="1" /><path clip-path="url(#clip910)" d="M1390.16 28.9478 L1390.16 35.9153 Q1387 34.1734 1383.8 33.3227 Q1380.64 32.4315 1377.4 32.4315 Q1370.15 32.4315 1366.14 37.0496 Q1362.13 41.6271 1362.13 49.9314 Q1362.13 58.2358 1366.14 62.8538 Q1370.15 67.4314 1377.4 67.4314 Q1380.64 67.4314 1383.8 66.5807 Q1387 65.6895 1390.16 63.9476 L1390.16 70.8341 Q1387.04 72.2924 1383.68 73.0216 Q1380.35 73.7508 1376.59 73.7508 Q1366.34 73.7508 1360.3 67.3098 Q1354.27 60.8689 1354.27 49.9314 Q1354.27 38.832 1360.34 32.472 Q1366.46 26.1121 1377.07 26.1121 Q1380.52 26.1121 1383.8 26.8413 Q1387.08 27.5299 1390.16 28.9478 Z" fill="#000000" fill-rule="evenodd" fill-opacity="1" /><path clip-path="url(#clip910)" d="M1403.12 27.2059 L1410.57 27.2059 L1410.57 72.576 L1403.12 72.576 L1403.12 27.2059 M1403.12 9.54393 L1410.57 9.54393 L1410.57 18.9825 L1403.12 18.9825 L1403.12 9.54393 Z" fill="#000000" fill-rule="evenodd" fill-opacity="1" /><path clip-path="url(#clip910)" d="M1433.54 14.324 L1433.54 27.2059 L1448.9 27.2059 L1448.9 32.9987 L1433.54 32.9987 L1433.54 57.6282 Q1433.54 63.1779 1435.04 64.7578 Q1436.58 66.3376 1441.24 66.3376 L1448.9 66.3376 L1448.9 72.576 L1441.24 72.576 Q1432.61 72.576 1429.33 69.3758 Q1426.05 66.1351 1426.05 57.6282 L1426.05 32.9987 L1420.58 32.9987 L1420.58 27.2059 L1426.05 27.2059 L1426.05 14.324 L1433.54 14.324 Z" fill="#000000" fill-rule="evenodd" fill-opacity="1" /><path clip-path="url(#clip910)" d="M1477.58 76.7889 Q1474.42 84.8907 1471.42 87.3618 Q1468.42 89.8329 1463.4 89.8329 L1457.44 89.8329 L1457.44 83.5945 L1461.82 83.5945 Q1464.9 83.5945 1466.6 82.1361 Q1468.3 80.6778 1470.37 75.2496 L1471.7 71.8468 L1453.35 27.2059 L1461.25 27.2059 L1475.43 62.6918 L1489.61 27.2059 L1497.51 27.2059 L1477.58 76.7889 Z" fill="#000000" fill-rule="evenodd" fill-opacity="1" /><path clip-path="url(#clip910)" d="M1554.79 49.7694 Q1545.75 49.7694 1542.27 51.8354 Q1538.79 53.9013 1538.79 58.8839 Q1538.79 62.8538 1541.38 65.2034 Q1544.01 67.5124 1548.51 67.5124 Q1554.71 67.5124 1558.43 63.1374 Q1562.2 58.7219 1562.2 51.4303 L1562.2 49.7694 L1554.79 49.7694 M1569.65 46.6907 L1569.65 72.576 L1562.2 72.576 L1562.2 65.6895 Q1559.65 69.8214 1555.84 71.8063 Q1552.03 73.7508 1546.52 73.7508 Q1539.55 73.7508 1535.42 69.8619 Q1531.33 65.9325 1531.33 59.3701 Q1531.33 51.7138 1536.44 47.825 Q1541.58 43.9361 1551.75 43.9361 L1562.2 43.9361 L1562.2 43.2069 Q1562.2 38.0623 1558.8 35.2672 Q1555.43 32.4315 1549.32 32.4315 Q1545.43 32.4315 1541.74 33.3632 Q1538.06 34.295 1534.65 36.1584 L1534.65 29.2718 Q1538.74 27.692 1542.59 26.9223 Q1546.44 26.1121 1550.09 26.1121 Q1559.93 26.1121 1564.79 31.2163 Q1569.65 36.3204 1569.65 46.6907 Z" fill="#000000" fill-rule="evenodd" fill-opacity="1" /><path clip-path="url(#clip910)" d="M1607.97 9.54393 L1607.97 15.7418 L1600.84 15.7418 Q1596.83 15.7418 1595.25 17.3622 Q1593.72 18.9825 1593.72 23.1955 L1593.72 27.2059 L1605.99 27.2059 L1605.99 32.9987 L1593.72 32.9987 L1593.72 72.576 L1586.22 72.576 L1586.22 32.9987 L1579.09 32.9987 L1579.09 27.2059 L1586.22 27.2059 L1586.22 24.0462 Q1586.22 16.471 1589.75 13.0277 Q1593.27 9.54393 1600.93 9.54393 L1607.97 9.54393 Z" fill="#000000" fill-rule="evenodd" fill-opacity="1" /><path clip-path="url(#clip910)" d="M1620.13 14.324 L1620.13 27.2059 L1635.48 27.2059 L1635.48 32.9987 L1620.13 32.9987 L1620.13 57.6282 Q1620.13 63.1779 1621.63 64.7578 Q1623.17 66.3376 1627.82 66.3376 L1635.48 66.3376 L1635.48 72.576 L1627.82 72.576 Q1619.2 72.576 1615.91 69.3758 Q1612.63 66.1351 1612.63 57.6282 L1612.63 32.9987 L1607.16 32.9987 L1607.16 27.2059 L1612.63 27.2059 L1612.63 14.324 L1620.13 14.324 Z" fill="#000000" fill-rule="evenodd" fill-opacity="1" /><path clip-path="url(#clip910)" d="M1684.09 48.0275 L1684.09 51.6733 L1649.82 51.6733 Q1650.31 59.3701 1654.44 63.421 Q1658.61 67.4314 1666.02 67.4314 Q1670.32 67.4314 1674.33 66.3781 Q1678.38 65.3249 1682.35 63.2184 L1682.35 70.267 Q1678.34 71.9684 1674.13 72.8596 Q1669.91 73.7508 1665.58 73.7508 Q1654.72 73.7508 1648.36 67.4314 Q1642.04 61.1119 1642.04 50.3365 Q1642.04 39.1965 1648.04 32.6746 Q1654.07 26.1121 1664.28 26.1121 Q1673.44 26.1121 1678.74 32.0264 Q1684.09 37.9003 1684.09 48.0275 M1676.64 45.84 Q1676.56 39.7232 1673.19 36.0774 Q1669.87 32.4315 1664.36 32.4315 Q1658.12 32.4315 1654.36 35.9558 Q1650.63 39.4801 1650.06 45.8805 L1676.64 45.84 Z" fill="#000000" fill-rule="evenodd" fill-opacity="1" /><path clip-path="url(#clip910)" d="M1722.62 34.1734 Q1721.36 33.4443 1719.86 33.1202 Q1718.4 32.7556 1716.62 32.7556 Q1710.3 32.7556 1706.9 36.8875 Q1703.54 40.9789 1703.54 48.6757 L1703.54 72.576 L1696.04 72.576 L1696.04 27.2059 L1703.54 27.2059 L1703.54 34.2544 Q1705.88 30.1225 1709.65 28.1376 Q1713.42 26.1121 1718.81 26.1121 Q1719.58 26.1121 1720.51 26.2337 Q1721.44 26.3147 1722.57 26.5172 L1722.62 34.1734 Z" fill="#000000" fill-rule="evenodd" fill-opacity="1" /><path clip-path="url(#clip910)" d="M1785.81 44.2197 Q1788.44 45.1109 1790.91 48.0275 Q1793.42 50.9442 1795.94 56.0483 L1804.24 72.576 L1795.45 72.576 L1787.71 57.061 Q1784.72 50.9847 1781.88 48.9997 Q1779.08 47.0148 1774.22 47.0148 L1765.31 47.0148 L1765.31 72.576 L1757.13 72.576 L1757.13 12.096 L1775.6 12.096 Q1785.97 12.096 1791.08 16.4305 Q1796.18 20.7649 1796.18 29.5149 Q1796.18 35.2267 1793.51 38.994 Q1790.87 42.7613 1785.81 44.2197 M1765.31 18.8205 L1765.31 40.2903 L1775.6 40.2903 Q1781.52 40.2903 1784.51 37.5762 Q1787.55 34.8216 1787.55 29.5149 Q1787.55 24.2082 1784.51 21.5346 Q1781.52 18.8205 1775.6 18.8205 L1765.31 18.8205 Z" fill="#000000" fill-rule="evenodd" fill-opacity="1" /><path clip-path="url(#clip910)" d="M1809.95 54.671 L1809.95 27.2059 L1817.41 27.2059 L1817.41 54.3874 Q1817.41 60.8284 1819.92 64.0691 Q1822.43 67.2693 1827.45 67.2693 Q1833.49 67.2693 1836.97 63.421 Q1840.5 59.5726 1840.5 52.9291 L1840.5 27.2059 L1847.95 27.2059 L1847.95 72.576 L1840.5 72.576 L1840.5 65.6084 Q1837.78 69.7404 1834.18 71.7658 Q1830.61 73.7508 1825.87 73.7508 Q1818.05 73.7508 1814 68.8897 Q1809.95 64.0286 1809.95 54.671 M1828.71 26.1121 L1828.71 26.1121 Z" fill="#000000" fill-rule="evenodd" fill-opacity="1" /><path clip-path="url(#clip910)" d="M1901.02 45.1919 L1901.02 72.576 L1893.56 72.576 L1893.56 45.4349 Q1893.56 38.994 1891.05 35.7938 Q1888.54 32.5936 1883.52 32.5936 Q1877.48 32.5936 1874 36.4419 Q1870.51 40.2903 1870.51 46.9338 L1870.51 72.576 L1863.02 72.576 L1863.02 27.2059 L1870.51 27.2059 L1870.51 34.2544 Q1873.19 30.163 1876.79 28.1376 Q1880.44 26.1121 1885.18 26.1121 Q1893 26.1121 1897.01 30.9732 Q1901.02 35.7938 1901.02 45.1919 Z" fill="#000000" fill-rule="evenodd" fill-opacity="1" /><path clip-path="url(#clip910)" d="M1917.79 62.2867 L1926.34 62.2867 L1926.34 72.576 L1917.79 72.576 L1917.79 62.2867 M1917.79 29.6769 L1926.34 29.6769 L1926.34 39.9662 L1917.79 39.9662 L1917.79 29.6769 Z" fill="#000000" fill-rule="evenodd" fill-opacity="1" /><path clip-path="url(#clip910)" d="M1978.31 65.6895 L2006.87 65.6895 L2006.87 72.576 L1968.46 72.576 L1968.46 65.6895 Q1973.12 60.8689 1981.14 52.7671 Q1989.21 44.6248 1991.27 42.2752 Q1995.2 37.8598 1996.74 34.8216 Q1998.32 31.7429 1998.32 28.7857 Q1998.32 23.9651 1994.92 20.927 Q1991.55 17.8888 1986.13 17.8888 Q1982.28 17.8888 1977.98 19.2256 Q1973.73 20.5624 1968.87 23.2765 L1968.87 15.0127 Q1973.81 13.0277 1978.11 12.015 Q1982.4 11.0023 1985.96 11.0023 Q1995.36 11.0023 2000.95 15.7013 Q2006.54 20.4004 2006.54 28.2591 Q2006.54 31.9859 2005.13 35.3482 Q2003.75 38.6699 2000.06 43.2069 Q1999.05 44.3817 1993.62 50.0125 Q1988.19 55.6027 1978.31 65.6895 Z" fill="#000000" fill-rule="evenodd" fill-opacity="1" /><polyline clip-path="url(#clip912)" style="stroke:#009af9; stroke-linecap:round; stroke-linejoin:round; stroke-width:8; stroke-opacity:1; fill:none" points="
  304.954,762.418 309.924,743.388 314.894,724.384 319.865,705.418 324.835,686.51 329.806,667.678 334.776,648.93 339.746,630.296 344.717,611.789 349.687,593.435 
  354.658,575.25 359.628,557.254 364.598,539.464 369.569,521.895 374.539,504.566 379.509,487.496 384.48,470.7 389.45,454.194 394.421,437.998 399.391,422.127 
  404.361,406.593 409.332,391.415 414.302,376.609 419.273,362.189 424.243,348.167 429.213,334.559 434.184,321.38 439.154,308.638 444.125,296.345 449.095,284.515 
  454.065,273.163 459.036,262.3 464.006,251.941 468.977,242.096 473.947,232.756 478.917,223.945 483.888,215.672 488.858,207.948 493.829,200.782 498.799,194.183 
  503.769,188.149 508.74,182.684 513.71,177.799 518.681,173.501 523.651,169.794 528.621,166.683 533.592,164.172 538.562,162.255 543.532,160.938 548.503,160.225 
  553.473,160.115 558.444,160.608 563.414,161.706 568.384,163.404 573.355,165.702 578.325,168.598 583.296,172.087 588.266,176.168 593.236,180.835 598.207,186.084 
  603.177,191.911 608.148,198.308 613.118,205.27 618.088,212.79 623.059,220.859 628.029,229.469 633,238.613 637.97,248.282 642.94,258.465 647.911,269.153 
  652.881,280.334 657.852,291.996 662.822,304.128 667.792,316.721 672.763,329.76 677.733,343.232 682.704,357.124 687.674,371.42 692.644,386.106 697.615,401.169 
  702.585,416.596 707.555,432.37 712.526,448.473 717.496,464.891 722.467,481.605 727.437,498.598 732.407,515.857 737.378,533.366 742.348,551.103 747.319,569.052 
  752.289,587.193 757.259,605.508 762.23,623.979 767.2,642.593 772.171,661.328 777.141,680.164 782.111,699.081 787.082,718.06 792.052,737.081 797.023,756.13 
  801.993,775.189 806.963,794.235 811.934,813.248 816.904,832.21 821.875,851.1 826.845,869.899 831.815,888.596 836.786,907.168 841.756,925.595 846.727,943.858 
  851.697,961.938 856.667,979.816 861.638,997.477 866.608,1014.91 871.578,1032.09 876.549,1048.99 881.519,1065.61 886.49,1081.93 891.46,1097.92 896.43,1113.58 
  901.401,1128.9 906.371,1143.84 911.342,1158.4 916.312,1172.57 921.282,1186.32 926.253,1199.65 931.223,1212.55 936.194,1224.99 941.164,1236.97 946.134,1248.48 
  951.105,1259.5 956.075,1270.02 961.046,1280.03 966.016,1289.53 970.986,1298.5 975.957,1306.94 980.927,1314.83 985.898,1322.16 990.868,1328.93 995.838,1335.14 
  1000.81,1340.78 1005.78,1345.84 1010.75,1350.31 1015.72,1354.2 1020.69,1357.49 1025.66,1360.19 1030.63,1362.29 1035.6,1363.79 1040.57,1364.69 1045.54,1364.98 
  1050.51,1364.67 1055.48,1363.76 1060.45,1362.25 1065.42,1360.14 1070.39,1357.43 1075.36,1354.12 1080.34,1350.22 1085.31,1345.74 1090.28,1340.67 1095.25,1335.02 
  1100.22,1328.8 1105.19,1322.01 1110.16,1314.66 1115.13,1306.76 1120.1,1298.32 1125.07,1289.33 1130.04,1279.82 1135.01,1269.8 1139.98,1259.26 1144.95,1248.23 
  1149.92,1236.71 1154.89,1224.72 1159.86,1212.26 1164.83,1199.36 1169.8,1186.01 1174.77,1172.25 1179.74,1158.07 1184.71,1143.5 1189.68,1128.54 1194.65,1113.22 
  1199.62,1097.55 1204.59,1081.54 1209.57,1065.21 1214.54,1048.58 1219.51,1031.67 1224.48,1014.48 1229.45,997.04 1234.42,979.366 1239.39,961.474 1244.36,943.385 
  1249.33,925.118 1254.3,906.683 1259.27,888.102 1264.24,869.396 1269.21,850.583 1274.18,831.683 1279.15,812.716 1284.12,793.699 1289.09,774.645 1294.06,755.579 
  1299.03,736.52 1304,717.488 1308.97,698.502 1313.94,679.583 1318.91,660.743 1323.88,642.003 1328.85,623.382 1333.83,604.902 1338.8,586.58 1343.77,568.436 
  1348.74,550.488 1353.71,532.746 1358.68,515.233 1363.65,497.968 1368.62,480.969 1373.59,464.252 1378.56,447.836 1383.53,431.733 1388.5,415.957 1393.47,400.528 
  1398.44,385.462 1403.41,370.773 1408.38,356.479 1413.35,342.593 1418.32,329.121 1423.29,316.082 1428.26,303.49 1433.23,291.358 1438.2,279.699 1443.17,268.524 
  1448.14,257.843 1453.11,247.663 1458.08,237.999 1463.06,228.859 1468.03,220.254 1473,212.193 1477.97,204.684 1482.94,197.729 1487.91,191.34 1492.88,185.521 
  1497.85,180.28 1502.82,175.623 1507.79,171.553 1512.76,168.075 1517.73,165.19 1522.7,162.902 1527.67,161.214 1532.64,160.128 1537.61,159.645 1542.58,159.766 
  1547.55,160.489 1552.52,161.814 1557.49,163.74 1562.46,166.265 1567.43,169.387 1572.4,173.103 1577.37,177.408 1582.34,182.299 1587.32,187.77 1592.29,193.816 
  1597.26,200.431 1602.23,207.608 1607.2,215.34 1612.17,223.62 1617.14,232.44 1622.11,241.79 1627.08,251.661 1632.05,262.042 1637.02,272.924 1641.99,284.295 
  1646.96,296.147 1651.93,308.465 1656.9,321.238 1661.87,334.452 1666.84,348.093 1671.81,362.148 1676.78,376.604 1681.75,391.449 1686.72,406.665 1691.69,422.236 
  1696.66,438.147 1701.63,454.382 1706.6,470.923 1711.58,487.76 1716.55,504.873 1721.52,522.243 1726.49,539.853 1731.46,557.684 1736.43,575.718 1741.4,593.941 
  1746.37,612.335 1751.34,630.88 1756.31,649.556 1761.28,668.344 1766.25,687.225 1771.22,706.178 1776.19,725.193 1781.16,744.247 1786.13,763.318 1791.1,782.388 
  1796.07,801.437 1801.04,820.444 1806.01,839.394 1810.98,858.271 1815.95,877.053 1820.92,895.72 1825.89,914.252 1830.86,932.631 1835.83,950.836 1840.81,968.858 
  1845.78,986.675 1850.75,1004.27 1855.72,1021.62 1860.69,1038.71 1865.66,1055.52 1870.63,1072.04 1875.6,1088.25 1880.57,1104.14 1885.54,1119.68 1890.51,1134.87 
  1895.48,1149.68 1900.45,1164.1 1905.42,1178.12 1910.39,1191.73 1915.36,1204.91 1920.33,1217.65 1925.3,1229.93 1930.27,1241.74 1935.24,1253.07 1940.21,1263.92 
  1945.18,1274.26 1950.15,1284.09 1955.12,1293.39 1960.09,1302.17 1965.07,1310.4 1970.04,1318.09 1975.01,1325.22 1979.98,1331.79 1984.95,1337.79 1989.92,1343.21 
  1994.89,1348.05 1999.86,1352.31 2004.83,1355.97 2009.8,1359.04 2014.77,1361.52 2019.74,1363.4 2024.71,1364.67 2029.68,1365.34 2034.65,1365.41 2039.62,1364.87 
  2044.59,1363.73 2049.56,1361.99 2054.53,1359.65 2059.5,1356.72 2064.47,1353.18 2069.44,1349.06 2074.41,1344.35 2079.38,1339.06 2084.35,1333.19 2089.33,1326.75 
  2094.3,1319.74 2099.27,1312.18 2104.24,1304.07 2109.21,1295.41 2114.18,1286.22 2119.15,1276.51 2124.12,1266.28 2129.09,1255.55 2134.06,1244.32 2139.03,1232.61 
  2144,1220.44 2148.97,1207.8 2153.94,1194.72 2158.91,1181.2 2163.88,1167.27 2168.85,1152.93 2173.82,1138.2 2178.79,1123.09 2183.76,1107.62 2188.73,1091.81 
  2193.7,1075.67 2198.67,1059.21 2203.64,1042.46 2208.61,1025.42 2213.58,1008.13 2218.56,990.583 2223.53,972.814 2228.5,954.835 2233.47,936.658 2238.44,918.307 
  2243.41,899.8 2248.38,881.157 2253.35,862.395 2258.32,843.537 2263.29,824.594 2268.26,805.586 2273.23,786.535 2278.2,767.46 2283.17,748.382 2288.14,729.319 
  2293.11,710.291 
  "/>
<polyline clip-path="url(#clip912)" style="stroke:#e26f46; stroke-linecap:round; stroke-linejoin:round; stroke-width:8; stroke-opacity:1; fill:none" points="
  304.954,762.418 309.924,748.874 314.894,735.237 319.865,721.519 324.835,707.75 329.806,693.944 334.776,680.12 339.746,666.309 344.717,652.52 349.687,638.781 
  354.658,625.101 359.628,611.507 364.598,598.015 369.569,584.644 374.539,571.413 379.509,558.336 384.48,545.433 389.45,532.722 394.421,520.216 399.391,507.929 
  404.361,495.879 409.332,484.082 414.302,472.544 419.273,461.284 424.243,450.317 429.213,439.647 434.184,429.286 439.154,419.249 444.125,409.548 449.095,400.196 
  454.065,391.205 459.036,382.583 464.006,374.324 468.977,366.448 473.947,358.967 478.917,351.889 483.888,345.224 488.858,338.98 493.829,333.155 498.799,327.753 
  503.769,322.785 508.74,318.259 513.71,314.178 518.681,310.547 523.651,307.371 528.621,304.647 533.592,302.382 538.562,300.577 543.532,299.236 548.503,298.359 
  553.473,297.948 558.444,298.002 563.414,298.521 568.384,299.504 573.355,300.951 578.325,302.86 583.296,305.229 588.266,308.055 593.236,311.338 598.207,315.072 
  603.177,319.254 608.148,323.88 613.118,328.946 618.088,334.445 623.059,340.373 628.029,346.727 633,353.498 637.97,360.679 642.94,368.265 647.911,376.247 
  652.881,384.617 657.852,393.371 662.822,402.5 667.792,411.994 672.763,421.844 677.733,432.04 682.704,442.574 687.674,453.437 692.644,464.623 697.615,476.12 
  702.585,487.916 707.555,500.001 712.526,512.365 717.496,524.996 722.467,537.892 727.437,551.042 732.407,564.431 737.378,578.051 742.348,591.889 747.319,605.936 
  752.289,620.183 757.259,634.637 762.23,649.278 767.2,664.098 772.171,679.087 777.141,694.237 782.111,709.539 787.082,724.986 792.052,740.568 797.023,756.278 
  801.993,769.246 806.963,780.479 811.934,791.783 816.904,803.143 821.875,814.544 826.845,825.969 831.815,837.399 836.786,848.824 841.756,860.223 846.727,871.584 
  851.697,882.888 856.667,894.12 861.638,905.264 866.608,916.307 871.578,927.237 876.549,938.037 881.519,948.692 886.49,959.186 891.46,969.508 896.43,979.656 
  901.401,989.608 906.371,999.349 911.342,1008.87 916.312,1018.15 921.282,1027.2 926.253,1036 931.223,1044.54 936.194,1052.8 941.164,1060.78 946.134,1068.48 
  951.105,1075.88 956.075,1082.97 961.046,1089.74 966.016,1096.18 970.986,1102.31 975.957,1108.1 980.927,1113.55 985.898,1118.65 990.868,1123.39 995.838,1127.78 
  1000.81,1131.8 1005.78,1135.46 1010.75,1138.75 1015.72,1141.65 1020.69,1144.19 1025.66,1146.34 1030.63,1148.12 1035.6,1149.5 1040.57,1150.49 1045.54,1151.1 
  1050.51,1151.33 1055.48,1151.16 1060.45,1150.61 1065.42,1149.66 1070.39,1148.33 1075.36,1146.61 1080.34,1144.51 1085.31,1142.03 1090.28,1139.16 1095.25,1135.91 
  1100.22,1132.29 1105.19,1128.3 1110.16,1123.94 1115.13,1119.22 1120.1,1114.13 1125.07,1108.69 1130.04,1102.91 1135.01,1096.77 1139.98,1090.3 1144.95,1083.49 
  1149.92,1076.36 1154.89,1068.91 1159.86,1061.14 1164.83,1053.06 1169.8,1044.68 1174.77,1036.01 1179.74,1027.06 1184.71,1017.83 1189.68,1008.32 1194.65,998.551 
  1199.62,988.533 1204.59,978.268 1209.57,967.763 1214.54,957.028 1219.51,946.069 1224.48,934.898 1229.45,923.52 1234.42,911.945 1239.39,900.179 1244.36,888.231 
  1249.33,876.105 1254.3,863.809 1259.27,851.351 1264.24,838.74 1269.21,825.983 1274.18,813.097 1279.15,800.089 1284.12,786.966 1289.09,773.737 1294.06,761.106 
  1299.03,752.328 1304,743.493 1308.97,734.608 1313.94,725.687 1318.91,716.734 1323.88,707.771 1328.85,698.799 1333.83,689.838 1338.8,680.898 1343.77,671.985 
  1348.74,663.124 1353.71,654.315 1358.68,645.569 1363.65,636.904 1368.62,628.325 1373.59,619.847 1378.56,611.48 1383.53,603.235 1388.5,595.123 1393.47,587.154 
  1398.44,579.335 1403.41,571.677 1408.38,564.19 1413.35,556.885 1418.32,549.771 1423.29,542.848 1428.26,536.13 1433.23,529.628 1438.2,523.349 1443.17,517.297 
  1448.14,511.476 1453.11,505.898 1458.08,500.571 1463.06,495.501 1468.03,490.685 1473,486.134 1477.97,481.855 1482.94,477.855 1487.91,474.132 1492.88,470.685 
  1497.85,467.525 1502.82,464.656 1507.79,462.082 1512.76,459.807 1517.73,457.837 1522.7,456.176 1527.67,454.807 1532.64,453.741 1537.61,452.983 1542.58,452.535 
  1547.55,452.398 1552.52,452.575 1557.49,453.067 1562.46,453.873 1567.43,454.979 1572.4,456.394 1577.37,458.118 1582.34,460.149 1587.32,462.487 1592.29,465.128 
  1597.26,468.072 1602.23,471.314 1607.2,474.852 1612.17,478.683 1617.14,482.804 1622.11,487.21 1627.08,491.899 1632.05,496.864 1637.02,502.103 1641.99,507.612 
  1646.96,513.387 1651.93,519.421 1656.9,525.709 1661.87,532.245 1666.84,539.023 1671.81,546.037 1676.78,553.281 1681.75,560.757 1686.72,568.453 1691.69,576.362 
  1696.66,584.479 1701.63,592.795 1706.6,601.304 1711.58,609.999 1716.55,618.878 1721.52,627.938 1726.49,637.169 1731.46,646.562 1736.43,656.111 1741.4,665.81 
  1746.37,675.651 1751.34,685.627 1756.31,695.734 1761.28,705.963 1766.25,716.306 1771.22,726.758 1776.19,737.31 1781.16,747.954 1786.13,758.685 1791.1,766.452 
  1796.07,772.656 1801.04,778.896 1806.01,785.169 1810.98,791.469 1815.95,797.787 1820.92,804.119 1825.89,810.453 1830.86,816.78 1835.83,823.093 1840.81,829.391 
  1845.78,835.657 1850.75,841.889 1855.72,848.078 1860.69,854.215 1865.66,860.292 1870.63,866.302 1875.6,872.237 1880.57,878.089 1885.54,883.852 1890.51,889.521 
  1895.48,895.087 1900.45,900.542 1905.42,905.877 1910.39,911.087 1915.36,916.166 1920.33,921.116 1925.3,925.923 1930.27,930.581 1935.24,935.083 1940.21,939.422 
  1945.18,943.594 1950.15,947.607 1955.12,951.446 1960.09,955.106 1965.07,958.58 1970.04,961.862 1975.01,964.949 1979.98,967.853 1984.95,970.558 1989.92,973.061 
  1994.89,975.356 1999.86,977.439 2004.83,979.307 2009.8,980.972 2014.77,982.425 2019.74,983.66 2024.71,984.674 2029.68,985.464 2034.65,986.027 2039.62,986.375 
  2044.59,986.504 2049.56,986.409 2054.53,986.088 2059.5,985.539 2064.47,984.761 2069.44,983.762 2074.41,982.547 2079.38,981.109 2084.35,979.447 2089.33,977.562 
  2094.3,975.452 2099.27,973.125 2104.24,970.592 2109.21,967.843 2114.18,964.881 2119.15,961.707 2124.12,958.322 2129.09,954.73 2134.06,950.946 2139.03,946.963 
  2144,942.783 2148.97,938.409 2153.94,933.842 2158.91,929.087 2163.88,924.159 2168.85,919.053 2173.82,913.773 2178.79,908.321 2183.76,902.701 2188.73,896.915 
  2193.7,890.979 2198.67,884.891 2203.64,878.653 2208.61,872.27 2213.58,865.746 2218.56,859.085 2223.53,852.296 2228.5,845.381 2233.47,838.344 2238.44,831.19 
  2243.41,823.923 2248.38,816.547 2253.35,809.066 2258.32,801.485 2263.29,793.808 2268.26,786.039 2273.23,778.183 2278.2,770.245 2283.17,762.352 2288.14,759.038 
  2293.11,755.7 
  "/>
<polyline clip-path="url(#clip912)" style="stroke:#008000; stroke-linecap:round; stroke-linejoin:round; stroke-width:8; stroke-opacity:1; fill:none" stroke-dasharray="4, 8" points="
  304.954,762.418 309.924,749.224 314.894,735.965 319.865,722.649 324.835,709.28 329.806,695.867 334.776,682.416 339.746,668.935 344.717,655.433 349.687,641.918 
  354.658,628.401 359.628,614.891 364.598,601.399 369.569,587.939 374.539,574.522 379.509,561.164 384.48,547.879 389.45,534.685 394.421,521.598 399.391,508.638 
  404.361,495.827 409.332,483.184 414.302,470.731 419.273,458.493 424.243,446.5 429.213,434.784 434.184,423.383 439.154,412.338 444.125,401.692 449.095,391.493 
  454.065,381.803 459.036,372.677 464.006,364.148 468.977,356.239 473.947,348.964 478.917,342.324 483.888,336.312 488.858,330.91 493.829,326.089 498.799,321.811 
  503.769,318.028 508.74,314.734 513.71,311.928 518.681,309.602 523.651,307.751 528.621,306.369 533.592,305.451 538.562,304.993 543.532,304.99 548.503,305.441 
  553.473,306.343 558.444,307.693 563.414,309.485 568.384,311.714 573.355,314.372 578.325,317.452 583.296,320.946 588.266,324.846 593.236,329.145 598.207,333.834 
  603.177,338.904 608.148,344.345 613.118,350.148 618.088,356.303 623.059,362.8 628.029,369.627 633,376.775 637.97,384.232 642.94,391.986 647.911,400.025 
  652.881,408.341 657.852,416.925 662.822,425.764 667.792,434.851 672.763,444.173 677.733,453.723 682.704,463.49 687.674,473.465 692.644,483.64 697.615,494.004 
  702.585,504.55 707.555,515.27 712.526,526.154 717.496,537.196 722.467,548.386 727.437,559.719 732.407,571.182 737.378,582.728 742.348,594.35 747.319,606.058 
  752.289,617.86 757.259,629.762 762.23,641.767 767.2,653.874 772.171,666.083 777.141,678.387 782.111,690.781 787.082,703.253 792.052,715.793 797.023,728.385 
  801.993,741.011 806.963,753.652 811.934,766.286 816.904,778.887 821.875,791.427 826.845,803.878 831.815,816.206 836.786,828.377 841.756,840.352 846.727,852.091 
  851.697,863.553 856.667,874.69 861.638,885.458 866.608,895.899 871.578,906.071 876.549,915.989 881.519,925.665 886.49,935.109 891.46,944.331 896.43,953.337 
  901.401,962.133 906.371,970.723 911.342,979.11 916.312,987.293 921.282,995.271 926.253,1003.04 931.223,1010.6 936.194,1017.94 941.164,1025.06 946.134,1031.95 
  951.105,1038.61 956.075,1045.02 961.046,1051.19 966.016,1057.09 970.986,1062.73 975.957,1068.09 980.927,1073.18 985.898,1077.98 990.868,1082.49 995.838,1086.71 
  1000.81,1090.64 1005.78,1094.26 1010.75,1097.58 1015.72,1100.59 1020.69,1103.3 1025.66,1105.69 1030.63,1107.78 1035.6,1109.55 1040.57,1111.02 1045.54,1112.18 
  1050.51,1113.03 1055.48,1113.57 1060.45,1113.81 1065.42,1113.74 1070.39,1113.37 1075.36,1112.7 1080.34,1111.73 1085.31,1110.47 1090.28,1108.91 1095.25,1107.07 
  1100.22,1104.94 1105.19,1102.52 1110.16,1099.82 1115.13,1096.84 1120.1,1093.58 1125.07,1090.05 1130.04,1086.26 1135.01,1082.19 1139.98,1077.86 1144.95,1073.28 
  1149.92,1068.43 1154.89,1063.33 1159.86,1057.99 1164.83,1052.4 1169.8,1046.56 1174.77,1040.49 1179.74,1034.18 1184.71,1027.64 1189.68,1020.88 1194.65,1013.89 
  1199.62,1006.69 1204.59,999.268 1209.57,991.642 1214.54,983.812 1219.51,975.784 1224.48,967.562 1229.45,959.151 1234.42,950.557 1239.39,941.785 1244.36,932.84 
  1249.33,923.728 1254.3,914.454 1259.27,905.024 1264.24,895.443 1269.21,885.719 1274.18,875.856 1279.15,865.861 1284.12,855.739 1289.09,845.498 1294.06,835.143 
  1299.03,824.681 1304,814.119 1308.97,803.463 1313.94,792.72 1318.91,781.896 1323.88,770.997 1328.85,760.018 1333.83,748.971 1338.8,737.868 1343.77,726.72 
  1348.74,715.539 1353.71,704.339 1358.68,693.133 1363.65,681.933 1368.62,670.755 1373.59,659.612 1378.56,648.52 1383.53,637.492 1388.5,626.545 1393.47,615.695 
  1398.44,604.957 1403.41,594.348 1408.38,583.885 1413.35,573.586 1418.32,563.468 1423.29,553.549 1428.26,543.849 1433.23,534.385 1438.2,525.177 1443.17,516.244 
  1448.14,507.608 1453.11,499.287 1458.08,491.324 1463.06,483.769 1468.03,476.663 1473,470.038 1477.97,463.924 1482.94,458.343 1487.91,453.312 1492.88,448.844 
  1497.85,444.943 1502.82,441.611 1507.79,438.844 1512.76,436.629 1517.73,434.952 1522.7,433.79 1527.67,433.116 1532.64,432.899 1537.61,433.099 1542.58,433.672 
  1547.55,434.57 1552.52,435.737 1557.49,437.186 1562.46,439.003 1567.43,441.181 1572.4,443.713 1577.37,446.59 1582.34,449.805 1587.32,453.349 1592.29,457.214 
  1597.26,461.391 1602.23,465.873 1607.2,470.65 1612.17,475.714 1617.14,481.058 1622.11,486.671 1627.08,492.545 1632.05,498.671 1637.02,505.04 1641.99,511.644 
  1646.96,518.473 1651.93,525.518 1656.9,532.77 1661.87,540.219 1666.84,547.845 1671.81,555.623 1676.78,563.551 1681.75,571.627 1686.72,579.846 1691.69,588.205 
  1696.66,596.698 1701.63,605.319 1706.6,614.061 1711.58,622.915 1716.55,631.873 1721.52,640.924 1726.49,650.059 1731.46,659.266 1736.43,668.532 1741.4,677.844 
  1746.37,687.187 1751.34,696.547 1756.31,705.908 1761.28,715.252 1766.25,724.562 1771.22,733.82 1776.19,743.005 1781.16,752.098 1786.13,761.077 1791.1,769.92 
  1796.07,778.604 1801.04,787.104 1806.01,795.397 1810.98,803.461 1815.95,811.349 1820.92,819.09 1825.89,826.686 1830.86,834.141 1835.83,841.457 1840.81,848.636 
  1845.78,855.678 1850.75,862.584 1855.72,869.355 1860.69,875.99 1865.66,882.487 1870.63,888.846 1875.6,895.064 1880.57,901.137 1885.54,907.064 1890.51,912.84 
  1895.48,918.46 1900.45,923.921 1905.42,929.215 1910.39,934.338 1915.36,939.282 1920.33,944.047 1925.3,948.627 1930.27,953.017 1935.24,957.209 1940.21,961.199 
  1945.18,964.981 1950.15,968.55 1955.12,971.901 1960.09,975.03 1965.07,977.933 1970.04,980.606 1975.01,983.046 1979.98,985.251 1984.95,987.217 1989.92,988.943 
  1994.89,990.426 1999.86,991.665 2004.83,992.659 2009.8,993.407 2014.77,993.909 2019.74,994.163 2024.71,994.172 2029.68,993.934 2034.65,993.452 2039.62,992.726 
  2044.59,991.758 2049.56,990.55 2054.53,989.103 2059.5,987.417 2064.47,985.494 2069.44,983.336 2074.41,980.944 2079.38,978.322 2084.35,975.471 2089.33,972.394 
  2094.3,969.094 2099.27,965.574 2104.24,961.837 2109.21,957.886 2114.18,953.724 2119.15,949.356 2124.12,944.784 2129.09,940.013 2134.06,935.048 2139.03,929.891 
  2144,924.547 2148.97,919.022 2153.94,913.32 2158.91,907.446 2163.88,901.404 2168.85,895.201 2173.82,888.841 2178.79,882.328 2183.76,875.668 2188.73,868.867 
  2193.7,861.93 2198.67,854.862 2203.64,847.67 2208.61,840.36 2213.58,832.939 2218.56,825.414 2223.53,817.792 2228.5,810.079 2233.47,802.284 2238.44,794.415 
  2243.41,786.479 2248.38,778.485 2253.35,770.441 2258.32,762.356 2263.29,754.239 2268.26,746.1 2273.23,737.948 2278.2,729.792 2283.17,721.643 2288.14,713.511 
  2293.11,705.407 
  "/>
<polyline clip-path="url(#clip912)" style="stroke:#008000; stroke-linecap:round; stroke-linejoin:round; stroke-width:8; stroke-opacity:1; fill:none" points="
  304.954,762.418 309.924,748.557 314.894,734.693 319.865,720.833 324.835,706.986 329.806,693.159 334.776,679.361 339.746,665.6 344.717,651.886 349.687,638.227 
  354.658,624.635 359.628,611.118 364.598,597.687 369.569,584.354 374.539,571.129 379.509,558.025 384.48,545.056 389.45,532.233 394.421,519.57 399.391,507.093 
  404.361,494.822 409.332,482.759 414.302,470.913 419.273,459.306 424.243,447.97 429.213,436.944 434.184,426.28 439.154,416.04 444.125,406.293 449.095,397.117 
  454.065,388.49 459.036,380.348 464.006,372.644 468.977,365.34 473.947,358.412 478.917,351.841 483.888,345.623 488.858,339.76 493.829,334.256 498.799,329.122 
  503.769,324.37 508.74,320.014 513.71,316.063 518.681,312.53 523.651,309.426 528.621,306.761 533.592,304.545 538.562,302.788 543.532,301.501 548.503,300.692 
  553.473,300.368 558.444,300.533 563.414,301.191 568.384,302.343 573.355,303.991 578.325,306.135 583.296,308.774 588.266,311.904 593.236,315.522 598.207,319.622 
  603.177,324.2 608.148,329.247 613.118,334.754 618.088,340.712 623.059,347.11 628.029,353.936 633,361.176 637.97,368.815 642.94,376.838 647.911,385.232 
  652.881,393.987 657.852,403.087 662.822,412.52 667.792,422.27 672.763,432.324 677.733,442.668 682.704,453.288 687.674,464.171 692.644,475.303 697.615,486.671 
  702.585,498.262 707.555,510.064 712.526,522.063 717.496,534.247 722.467,546.605 727.437,559.126 732.407,571.798 737.378,584.609 742.348,597.546 747.319,610.597 
  752.289,623.751 757.259,636.994 762.23,650.314 767.2,663.7 772.171,677.137 777.141,690.613 782.111,704.117 787.082,717.635 792.052,731.153 797.023,744.66 
  801.993,758.143 806.963,771.588 811.934,784.982 816.904,798.312 821.875,811.567 826.845,824.755 831.815,837.827 836.786,850.72 841.756,863.385 846.727,875.781 
  851.697,887.878 856.667,899.656 861.638,911.107 866.608,922.232 871.578,933.041 876.549,943.558 881.519,953.814 886.49,963.853 891.46,973.727 896.43,983.466 
  901.401,993.024 906.371,1002.39 911.342,1011.55 916.312,1020.5 921.282,1029.23 926.253,1037.73 931.223,1045.99 936.194,1054 941.164,1061.75 946.134,1069.22 
  951.105,1076.41 956.075,1083.31 961.046,1089.9 966.016,1096.17 970.986,1102.11 975.957,1107.71 980.927,1112.97 985.898,1117.88 990.868,1122.43 995.838,1126.62 
  1000.81,1130.43 1005.78,1133.87 1010.75,1136.93 1015.72,1139.61 1020.69,1141.91 1025.66,1143.81 1030.63,1145.33 1035.6,1146.46 1040.57,1147.2 1045.54,1147.55 
  1050.51,1147.51 1055.48,1147.09 1060.45,1146.29 1065.42,1145.12 1070.39,1143.57 1075.36,1141.65 1080.34,1139.37 1085.31,1136.74 1090.28,1133.75 1095.25,1130.41 
  1100.22,1126.73 1105.19,1122.72 1110.16,1118.37 1115.13,1113.71 1120.1,1108.73 1125.07,1103.44 1130.04,1097.85 1135.01,1091.97 1139.98,1085.8 1144.95,1079.36 
  1149.92,1072.64 1154.89,1065.66 1159.86,1058.43 1164.83,1050.94 1169.8,1043.22 1174.77,1035.27 1179.74,1027.1 1184.71,1018.72 1189.68,1010.12 1194.65,1001.33 
  1199.62,992.35 1204.59,983.187 1209.57,973.849 1214.54,964.345 1219.51,954.683 1224.48,944.872 1229.45,934.919 1234.42,924.833 1239.39,914.621 1244.36,904.293 
  1249.33,893.856 1254.3,883.318 1259.27,872.688 1264.24,861.974 1269.21,851.184 1274.18,840.326 1279.15,829.409 1284.12,818.44 1289.09,807.429 1294.06,796.383 
  1299.03,785.31 1304,774.219 1308.97,763.118 1313.94,752.016 1318.91,740.92 1323.88,729.839 1328.85,718.78 1333.83,707.753 1338.8,696.77 1343.77,685.841 
  1348.74,674.977 1353.71,664.19 1358.68,653.492 1363.65,642.897 1368.62,632.416 1373.59,622.063 1378.56,611.854 1383.53,601.801 1388.5,591.92 1393.47,582.226 
  1398.44,572.735 1403.41,563.463 1408.38,554.427 1413.35,545.643 1418.32,537.13 1423.29,528.905 1428.26,520.988 1433.23,513.398 1438.2,506.24 1443.17,499.54 
  1448.14,493.277 1453.11,487.43 1458.08,481.98 1463.06,476.91 1468.03,472.204 1473,467.85 1477.97,463.835 1482.94,460.149 1487.91,456.783 1492.88,453.731 
  1497.85,450.986 1502.82,448.547 1507.79,446.41 1512.76,444.575 1517.73,443.045 1522.7,441.823 1527.67,440.913 1532.64,440.321 1537.61,440.05 1542.58,440.094 
  1547.55,440.458 1552.52,441.143 1557.49,442.149 1562.46,443.478 1567.43,445.13 1572.4,447.103 1577.37,449.397 1582.34,452.01 1587.32,454.94 1592.29,458.184 
  1597.26,461.738 1602.23,465.597 1607.2,469.759 1612.17,474.216 1617.14,478.963 1622.11,483.994 1627.08,489.301 1632.05,494.877 1637.02,500.714 1641.99,506.802 
  1646.96,513.133 1651.93,519.696 1656.9,526.481 1661.87,533.485 1666.84,540.711 1671.81,548.143 1676.78,555.768 1681.75,563.571 1686.72,571.538 1691.69,579.656 
  1696.66,587.912 1701.63,596.292 1706.6,604.785 1711.58,613.376 1716.55,622.056 1721.52,630.811 1726.49,639.63 1731.46,648.502 1736.43,657.417 1741.4,666.364 
  1746.37,675.332 1751.34,684.312 1756.31,693.294 1761.28,702.269 1766.25,711.227 1771.22,720.161 1776.19,729.061 1781.16,737.9 1786.13,746.632 1791.1,755.243 
  1796.07,763.72 1801.04,772.053 1806.01,780.234 1810.98,788.256 1815.95,796.115 1820.92,803.809 1825.89,811.339 1830.86,818.705 1835.83,825.912 1840.81,832.966 
  1845.78,839.876 1850.75,846.649 1855.72,853.3 1860.69,859.842 1865.66,866.292 1870.63,872.666 1875.6,878.986 1880.57,885.23 1885.54,891.365 1890.51,897.386 
  1895.48,903.285 1900.45,909.056 1905.42,914.694 1910.39,920.192 1915.36,925.543 1920.33,930.742 1925.3,935.782 1930.27,940.655 1935.24,945.357 1940.21,949.881 
  1945.18,954.219 1950.15,958.366 1955.12,962.315 1960.09,966.059 1965.07,969.592 1970.04,972.908 1975.01,976 1979.98,978.868 1984.95,981.507 1989.92,983.913 
  1994.89,986.081 1999.86,988.009 2004.83,989.694 2009.8,991.134 2014.77,992.326 2019.74,993.269 2024.71,993.961 2029.68,994.402 2034.65,994.591 2039.62,994.528 
  2044.59,994.213 2049.56,993.648 2054.53,992.833 2059.5,991.769 2064.47,990.459 2069.44,988.905 2074.41,987.11 2079.38,985.076 2084.35,982.808 2089.33,980.308 
  2094.3,977.582 2099.27,974.635 2104.24,971.468 2109.21,968.086 2114.18,964.492 2119.15,960.692 2124.12,956.69 2129.09,952.491 2134.06,948.1 2139.03,943.523 
  2144,938.765 2148.97,933.832 2153.94,928.728 2158.91,923.461 2163.88,918.035 2168.85,912.458 2173.82,906.735 2178.79,900.873 2183.76,894.877 2188.73,888.756 
  2193.7,882.515 2198.67,876.162 2203.64,869.703 2208.61,863.146 2213.58,856.499 2218.56,849.766 2223.53,842.956 2228.5,836.076 2233.47,829.132 2238.44,822.132 
  2243.41,815.084 2248.38,807.995 2253.35,800.873 2258.32,793.725 2263.29,786.56 2268.26,779.385 2273.23,772.208 2278.2,765.037 2283.17,757.882 2288.14,750.749 
  2293.11,743.647 
  "/>
<path clip-path="url(#clip910)" d="
M1436.91 554.876 L2282.51 554.876 L2282.51 166.076 L1436.91 166.076  Z
  " fill="#ffffff" fill-rule="evenodd" fill-opacity="1"/>
<polyline clip-path="url(#clip910)" style="stroke:#000000; stroke-linecap:round; stroke-linejoin:round; stroke-width:4; stroke-opacity:1; fill:none" points="
  1436.91,554.876 2282.51,554.876 2282.51,166.076 1436.91,166.076 1436.91,554.876 
  "/>
<polyline clip-path="url(#clip910)" style="stroke:#009af9; stroke-linecap:round; stroke-linejoin:round; stroke-width:12; stroke-opacity:1; fill:none" points="
  1460.32,243.836 1600.82,243.836 
  "/>
<path clip-path="url(#clip910)" d="M1657.6 219.617 L1657.6 226.457 Q1653.61 224.548 1650.07 223.61 Q1646.53 222.673 1643.23 222.673 Q1637.5 222.673 1634.37 224.895 Q1631.28 227.117 1631.28 231.214 Q1631.28 234.652 1633.33 236.423 Q1635.41 238.159 1641.18 239.235 L1645.41 240.103 Q1653.26 241.596 1656.98 245.381 Q1660.73 249.131 1660.73 255.45 Q1660.73 262.985 1655.66 266.874 Q1650.62 270.763 1640.87 270.763 Q1637.19 270.763 1633.02 269.929 Q1628.89 269.096 1624.44 267.464 L1624.44 260.242 Q1628.71 262.638 1632.81 263.853 Q1636.91 265.068 1640.87 265.068 Q1646.87 265.068 1650.14 262.707 Q1653.4 260.346 1653.4 255.971 Q1653.4 252.152 1651.04 249.999 Q1648.71 247.846 1643.37 246.77 L1639.09 245.936 Q1631.25 244.374 1627.74 241.041 Q1624.23 237.707 1624.23 231.77 Q1624.23 224.895 1629.06 220.937 Q1633.92 216.978 1642.43 216.978 Q1646.07 216.978 1649.86 217.638 Q1653.64 218.298 1657.6 219.617 Z" fill="#000000" fill-rule="evenodd" fill-opacity="1" /><path clip-path="url(#clip910)" d="M1671.39 230.867 L1677.78 230.867 L1677.78 269.756 L1671.39 269.756 L1671.39 230.867 M1671.39 215.728 L1677.78 215.728 L1677.78 223.818 L1671.39 223.818 L1671.39 215.728 Z" fill="#000000" fill-rule="evenodd" fill-opacity="1" /><path clip-path="url(#clip910)" d="M1721.42 238.332 Q1723.82 234.027 1727.15 231.978 Q1730.48 229.93 1735 229.93 Q1741.07 229.93 1744.37 234.2 Q1747.67 238.436 1747.67 246.284 L1747.67 269.756 L1741.25 269.756 L1741.25 246.492 Q1741.25 240.902 1739.27 238.193 Q1737.29 235.485 1733.23 235.485 Q1728.26 235.485 1725.38 238.784 Q1722.5 242.082 1722.5 247.777 L1722.5 269.756 L1716.07 269.756 L1716.07 246.492 Q1716.07 240.867 1714.09 238.193 Q1712.12 235.485 1707.98 235.485 Q1703.09 235.485 1700.21 238.818 Q1697.32 242.117 1697.32 247.777 L1697.32 269.756 L1690.9 269.756 L1690.9 230.867 L1697.32 230.867 L1697.32 236.909 Q1699.51 233.332 1702.57 231.631 Q1705.62 229.93 1709.82 229.93 Q1714.06 229.93 1717.01 232.082 Q1720 234.235 1721.42 238.332 Z" fill="#000000" fill-rule="evenodd" fill-opacity="1" /><path clip-path="url(#clip910)" d="M1766.59 263.922 L1766.59 284.547 L1760.17 284.547 L1760.17 230.867 L1766.59 230.867 L1766.59 236.77 Q1768.61 233.298 1771.66 231.631 Q1774.75 229.93 1779.02 229.93 Q1786.11 229.93 1790.52 235.555 Q1794.96 241.179 1794.96 250.346 Q1794.96 259.513 1790.52 265.138 Q1786.11 270.763 1779.02 270.763 Q1774.75 270.763 1771.66 269.096 Q1768.61 267.395 1766.59 263.922 M1788.33 250.346 Q1788.33 243.298 1785.41 239.304 Q1782.53 235.277 1777.46 235.277 Q1772.39 235.277 1769.48 239.304 Q1766.59 243.298 1766.59 250.346 Q1766.59 257.395 1769.48 261.422 Q1772.39 265.415 1777.46 265.415 Q1782.53 265.415 1785.41 261.422 Q1788.33 257.395 1788.33 250.346 Z" fill="#000000" fill-rule="evenodd" fill-opacity="1" /><path clip-path="url(#clip910)" d="M1805.55 215.728 L1811.94 215.728 L1811.94 269.756 L1805.55 269.756 L1805.55 215.728 Z" fill="#000000" fill-rule="evenodd" fill-opacity="1" /><path clip-path="url(#clip910)" d="M1858.57 248.714 L1858.57 251.839 L1829.2 251.839 Q1829.61 258.436 1833.16 261.909 Q1836.73 265.346 1843.09 265.346 Q1846.77 265.346 1850.2 264.443 Q1853.68 263.54 1857.08 261.735 L1857.08 267.777 Q1853.64 269.235 1850.03 269.999 Q1846.42 270.763 1842.7 270.763 Q1833.4 270.763 1827.95 265.346 Q1822.53 259.929 1822.53 250.693 Q1822.53 241.145 1827.67 235.555 Q1832.84 229.93 1841.59 229.93 Q1849.44 229.93 1853.99 234.999 Q1858.57 240.034 1858.57 248.714 M1852.18 246.839 Q1852.11 241.596 1849.23 238.471 Q1846.39 235.346 1841.66 235.346 Q1836.32 235.346 1833.09 238.367 Q1829.89 241.388 1829.41 246.874 L1852.18 246.839 Z" fill="#000000" fill-rule="evenodd" fill-opacity="1" /><path clip-path="url(#clip910)" d="M1869.34 217.916 L1899.13 217.916 L1899.13 223.818 L1876.35 223.818 L1876.35 239.096 L1896.91 239.096 L1896.91 244.999 L1876.35 244.999 L1876.35 269.756 L1869.34 269.756 L1869.34 217.916 Z" fill="#000000" fill-rule="evenodd" fill-opacity="1" /><path clip-path="url(#clip910)" d="M1910.24 217.916 L1920.69 217.916 L1933.92 253.193 L1947.22 217.916 L1957.67 217.916 L1957.67 269.756 L1950.83 269.756 L1950.83 224.235 L1937.46 259.79 L1930.41 259.79 L1917.04 224.235 L1917.04 269.756 L1910.24 269.756 L1910.24 217.916 Z" fill="#000000" fill-rule="evenodd" fill-opacity="1" /><path clip-path="url(#clip910)" d="M1970.79 217.916 L1977.84 217.916 L1977.84 249.409 Q1977.84 257.742 1980.86 261.422 Q1983.88 265.068 1990.66 265.068 Q1997.39 265.068 2000.41 261.422 Q2003.43 257.742 2003.43 249.409 L2003.43 217.916 L2010.48 217.916 L2010.48 250.277 Q2010.48 260.415 2005.45 265.589 Q2000.45 270.763 1990.66 270.763 Q1980.83 270.763 1975.79 265.589 Q1970.79 260.415 1970.79 250.277 L1970.79 217.916 Z" fill="#000000" fill-rule="evenodd" fill-opacity="1" /><polyline clip-path="url(#clip910)" style="stroke:#e26f46; stroke-linecap:round; stroke-linejoin:round; stroke-width:12; stroke-opacity:1; fill:none" points="
  1460.32,321.596 1600.82,321.596 
  "/>
<path clip-path="url(#clip910)" d="M1648.82 323.21 Q1651.07 323.974 1653.19 326.474 Q1655.34 328.974 1657.5 333.349 L1664.62 347.516 L1657.08 347.516 L1650.45 334.217 Q1647.88 329.009 1645.45 327.307 Q1643.05 325.606 1638.89 325.606 L1631.25 325.606 L1631.25 347.516 L1624.23 347.516 L1624.23 295.676 L1640.07 295.676 Q1648.96 295.676 1653.33 299.391 Q1657.71 303.106 1657.71 310.606 Q1657.71 315.502 1655.41 318.731 Q1653.16 321.96 1648.82 323.21 M1631.25 301.44 L1631.25 319.842 L1640.07 319.842 Q1645.14 319.842 1647.71 317.516 Q1650.31 315.155 1650.31 310.606 Q1650.31 306.058 1647.71 303.766 Q1645.14 301.44 1640.07 301.44 L1631.25 301.44 Z" fill="#000000" fill-rule="evenodd" fill-opacity="1" /><path clip-path="url(#clip910)" d="M1703.43 326.474 L1703.43 329.599 L1674.06 329.599 Q1674.48 336.196 1678.02 339.669 Q1681.59 343.106 1687.95 343.106 Q1691.63 343.106 1695.07 342.203 Q1698.54 341.3 1701.94 339.495 L1701.94 345.537 Q1698.5 346.995 1694.89 347.759 Q1691.28 348.523 1687.57 348.523 Q1678.26 348.523 1672.81 343.106 Q1667.39 337.689 1667.39 328.453 Q1667.39 318.905 1672.53 313.315 Q1677.71 307.69 1686.46 307.69 Q1694.3 307.69 1698.85 312.759 Q1703.43 317.794 1703.43 326.474 M1697.05 324.599 Q1696.98 319.356 1694.09 316.231 Q1691.25 313.106 1686.53 313.106 Q1681.18 313.106 1677.95 316.127 Q1674.75 319.148 1674.27 324.634 L1697.05 324.599 Z" fill="#000000" fill-rule="evenodd" fill-opacity="1" /><path clip-path="url(#clip910)" d="M1733.61 293.488 L1733.61 298.801 L1727.5 298.801 Q1724.06 298.801 1722.71 300.19 Q1721.39 301.578 1721.39 305.19 L1721.39 308.627 L1731.91 308.627 L1731.91 313.592 L1721.39 313.592 L1721.39 347.516 L1714.96 347.516 L1714.96 313.592 L1708.85 313.592 L1708.85 308.627 L1714.96 308.627 L1714.96 305.919 Q1714.96 299.426 1717.98 296.474 Q1721 293.488 1727.57 293.488 L1733.61 293.488 Z" fill="#000000" fill-rule="evenodd" fill-opacity="1" /><path clip-path="url(#clip910)" d="M1772.22 326.474 L1772.22 329.599 L1742.84 329.599 Q1743.26 336.196 1746.8 339.669 Q1750.38 343.106 1756.73 343.106 Q1760.41 343.106 1763.85 342.203 Q1767.32 341.3 1770.73 339.495 L1770.73 345.537 Q1767.29 346.995 1763.68 347.759 Q1760.07 348.523 1756.35 348.523 Q1747.05 348.523 1741.59 343.106 Q1736.18 337.689 1736.18 328.453 Q1736.18 318.905 1741.32 313.315 Q1746.49 307.69 1755.24 307.69 Q1763.09 307.69 1767.64 312.759 Q1772.22 317.794 1772.22 326.474 M1765.83 324.599 Q1765.76 319.356 1762.88 316.231 Q1760.03 313.106 1755.31 313.106 Q1749.96 313.106 1746.73 316.127 Q1743.54 319.148 1743.05 324.634 L1765.83 324.599 Z" fill="#000000" fill-rule="evenodd" fill-opacity="1" /><path clip-path="url(#clip910)" d="M1805.24 314.599 Q1804.16 313.974 1802.88 313.696 Q1801.63 313.384 1800.1 313.384 Q1794.68 313.384 1791.77 316.926 Q1788.89 320.433 1788.89 327.03 L1788.89 347.516 L1782.46 347.516 L1782.46 308.627 L1788.89 308.627 L1788.89 314.669 Q1790.9 311.127 1794.13 309.426 Q1797.36 307.69 1801.98 307.69 Q1802.64 307.69 1803.43 307.794 Q1804.23 307.863 1805.21 308.037 L1805.24 314.599 Z" fill="#000000" fill-rule="evenodd" fill-opacity="1" /><path clip-path="url(#clip910)" d="M1843.64 326.474 L1843.64 329.599 L1814.27 329.599 Q1814.68 336.196 1818.23 339.669 Q1821.8 343.106 1828.16 343.106 Q1831.84 343.106 1835.27 342.203 Q1838.75 341.3 1842.15 339.495 L1842.15 345.537 Q1838.71 346.995 1835.1 347.759 Q1831.49 348.523 1827.77 348.523 Q1818.47 348.523 1813.02 343.106 Q1807.6 337.689 1807.6 328.453 Q1807.6 318.905 1812.74 313.315 Q1817.91 307.69 1826.66 307.69 Q1834.51 307.69 1839.06 312.759 Q1843.64 317.794 1843.64 326.474 M1837.25 324.599 Q1837.18 319.356 1834.3 316.231 Q1831.45 313.106 1826.73 313.106 Q1821.39 313.106 1818.16 316.127 Q1814.96 319.148 1814.48 324.634 L1837.25 324.599 Z" fill="#000000" fill-rule="evenodd" fill-opacity="1" /><path clip-path="url(#clip910)" d="M1886.45 324.044 L1886.45 347.516 L1880.07 347.516 L1880.07 324.252 Q1880.07 318.731 1877.91 315.988 Q1875.76 313.245 1871.45 313.245 Q1866.28 313.245 1863.3 316.544 Q1860.31 319.842 1860.31 325.537 L1860.31 347.516 L1853.89 347.516 L1853.89 308.627 L1860.31 308.627 L1860.31 314.669 Q1862.6 311.162 1865.69 309.426 Q1868.82 307.69 1872.88 307.69 Q1879.58 307.69 1883.02 311.856 Q1886.45 315.988 1886.45 324.044 Z" fill="#000000" fill-rule="evenodd" fill-opacity="1" /><path clip-path="url(#clip910)" d="M1927.18 310.12 L1927.18 316.092 Q1924.48 314.599 1921.73 313.87 Q1919.02 313.106 1916.25 313.106 Q1910.03 313.106 1906.59 317.064 Q1903.16 320.988 1903.16 328.106 Q1903.16 335.224 1906.59 339.182 Q1910.03 343.106 1916.25 343.106 Q1919.02 343.106 1921.73 342.377 Q1924.48 341.613 1927.18 340.12 L1927.18 346.023 Q1924.51 347.273 1921.63 347.898 Q1918.78 348.523 1915.55 348.523 Q1906.77 348.523 1901.59 343.002 Q1896.42 337.481 1896.42 328.106 Q1896.42 318.592 1901.63 313.141 Q1906.87 307.69 1915.97 307.69 Q1918.92 307.69 1921.73 308.315 Q1924.54 308.905 1927.18 310.12 Z" fill="#000000" fill-rule="evenodd" fill-opacity="1" /><path clip-path="url(#clip910)" d="M1971.56 326.474 L1971.56 329.599 L1942.18 329.599 Q1942.6 336.196 1946.14 339.669 Q1949.72 343.106 1956.07 343.106 Q1959.75 343.106 1963.19 342.203 Q1966.66 341.3 1970.07 339.495 L1970.07 345.537 Q1966.63 346.995 1963.02 347.759 Q1959.41 348.523 1955.69 348.523 Q1946.38 348.523 1940.93 343.106 Q1935.52 337.689 1935.52 328.453 Q1935.52 318.905 1940.66 313.315 Q1945.83 307.69 1954.58 307.69 Q1962.43 307.69 1966.98 312.759 Q1971.56 317.794 1971.56 326.474 M1965.17 324.599 Q1965.1 319.356 1962.22 316.231 Q1959.37 313.106 1954.65 313.106 Q1949.3 313.106 1946.07 316.127 Q1942.88 319.148 1942.39 324.634 L1965.17 324.599 Z" fill="#000000" fill-rule="evenodd" fill-opacity="1" /><polyline clip-path="url(#clip910)" style="stroke:#008000; stroke-linecap:round; stroke-linejoin:round; stroke-width:12; stroke-opacity:1; fill:none" stroke-dasharray="6, 12" points="
  1460.32,399.356 1600.82,399.356 
  "/>
<path clip-path="url(#clip910)" d="M1624.23 373.436 L1633.68 373.436 L1656.66 416.804 L1656.66 373.436 L1663.47 373.436 L1663.47 425.276 L1654.03 425.276 L1631.04 381.908 L1631.04 425.276 L1624.23 425.276 L1624.23 373.436 Z" fill="#000000" fill-rule="evenodd" fill-opacity="1" /><path clip-path="url(#clip910)" d="M1710.41 404.234 L1710.41 407.359 L1681.04 407.359 Q1681.46 413.956 1685 417.429 Q1688.57 420.866 1694.93 420.866 Q1698.61 420.866 1702.05 419.963 Q1705.52 419.06 1708.92 417.255 L1708.92 423.297 Q1705.48 424.755 1701.87 425.519 Q1698.26 426.283 1694.55 426.283 Q1685.24 426.283 1679.79 420.866 Q1674.37 415.449 1674.37 406.213 Q1674.37 396.665 1679.51 391.075 Q1684.68 385.45 1693.43 385.45 Q1701.28 385.45 1705.83 390.519 Q1710.41 395.554 1710.41 404.234 M1704.03 402.359 Q1703.96 397.116 1701.07 393.991 Q1698.23 390.866 1693.5 390.866 Q1688.16 390.866 1684.93 393.887 Q1681.73 396.908 1681.25 402.394 L1704.03 402.359 Z" fill="#000000" fill-rule="evenodd" fill-opacity="1" /><path clip-path="url(#clip910)" d="M1720.24 409.929 L1720.24 386.387 L1726.63 386.387 L1726.63 409.686 Q1726.63 415.206 1728.78 417.984 Q1730.93 420.727 1735.24 420.727 Q1740.41 420.727 1743.4 417.429 Q1746.42 414.13 1746.42 408.436 L1746.42 386.387 L1752.81 386.387 L1752.81 425.276 L1746.42 425.276 L1746.42 419.304 Q1744.09 422.845 1741 424.581 Q1737.95 426.283 1733.89 426.283 Q1727.18 426.283 1723.71 422.116 Q1720.24 417.949 1720.24 409.929 M1736.32 385.45 L1736.32 385.45 Z" fill="#000000" fill-rule="evenodd" fill-opacity="1" /><path clip-path="url(#clip910)" d="M1788.5 392.359 Q1787.43 391.734 1786.14 391.456 Q1784.89 391.144 1783.36 391.144 Q1777.95 391.144 1775.03 394.686 Q1772.15 398.193 1772.15 404.79 L1772.15 425.276 L1765.73 425.276 L1765.73 386.387 L1772.15 386.387 L1772.15 392.429 Q1774.16 388.887 1777.39 387.186 Q1780.62 385.45 1785.24 385.45 Q1785.9 385.45 1786.7 385.554 Q1787.5 385.623 1788.47 385.797 L1788.5 392.359 Z" fill="#000000" fill-rule="evenodd" fill-opacity="1" /><path clip-path="url(#clip910)" d="M1812.88 405.727 Q1805.14 405.727 1802.15 407.498 Q1799.16 409.269 1799.16 413.54 Q1799.16 416.942 1801.39 418.956 Q1803.64 420.935 1807.5 420.935 Q1812.81 420.935 1816 417.185 Q1819.23 413.401 1819.23 407.151 L1819.23 405.727 L1812.88 405.727 M1825.62 403.088 L1825.62 425.276 L1819.23 425.276 L1819.23 419.373 Q1817.05 422.915 1813.78 424.616 Q1810.52 426.283 1805.8 426.283 Q1799.82 426.283 1796.28 422.949 Q1792.77 419.581 1792.77 413.956 Q1792.77 407.394 1797.15 404.061 Q1801.56 400.727 1810.27 400.727 L1819.23 400.727 L1819.23 400.102 Q1819.23 395.693 1816.32 393.297 Q1813.43 390.866 1808.19 390.866 Q1804.86 390.866 1801.7 391.665 Q1798.54 392.463 1795.62 394.061 L1795.62 388.158 Q1799.13 386.804 1802.43 386.144 Q1805.73 385.45 1808.85 385.45 Q1817.29 385.45 1821.46 389.825 Q1825.62 394.199 1825.62 403.088 Z" fill="#000000" fill-rule="evenodd" fill-opacity="1" /><path clip-path="url(#clip910)" d="M1838.78 371.248 L1845.17 371.248 L1845.17 425.276 L1838.78 425.276 L1838.78 371.248 Z" fill="#000000" fill-rule="evenodd" fill-opacity="1" /><path clip-path="url(#clip910)" d="M1858.82 373.436 L1888.61 373.436 L1888.61 379.338 L1865.83 379.338 L1865.83 394.616 L1886.39 394.616 L1886.39 400.519 L1865.83 400.519 L1865.83 425.276 L1858.82 425.276 L1858.82 373.436 Z" fill="#000000" fill-rule="evenodd" fill-opacity="1" /><path clip-path="url(#clip910)" d="M1899.72 373.436 L1910.17 373.436 L1923.4 408.713 L1936.7 373.436 L1947.15 373.436 L1947.15 425.276 L1940.31 425.276 L1940.31 379.755 L1926.94 415.31 L1919.89 415.31 L1906.52 379.755 L1906.52 425.276 L1899.72 425.276 L1899.72 373.436 Z" fill="#000000" fill-rule="evenodd" fill-opacity="1" /><path clip-path="url(#clip910)" d="M1960.27 373.436 L1967.32 373.436 L1967.32 404.929 Q1967.32 413.262 1970.34 416.942 Q1973.36 420.588 1980.13 420.588 Q1986.87 420.588 1989.89 416.942 Q1992.91 413.262 1992.91 404.929 L1992.91 373.436 L1999.96 373.436 L1999.96 405.797 Q1999.96 415.935 1994.93 421.109 Q1989.93 426.283 1980.13 426.283 Q1970.31 426.283 1965.27 421.109 Q1960.27 415.935 1960.27 405.797 L1960.27 373.436 Z" fill="#000000" fill-rule="evenodd" fill-opacity="1" /><path clip-path="url(#clip910)" d="M2050.79 371.318 Q2046.14 379.304 2043.88 387.116 Q2041.63 394.929 2041.63 402.949 Q2041.63 410.97 2043.88 418.852 Q2046.18 426.699 2050.79 434.651 L2045.24 434.651 Q2040.03 426.491 2037.43 418.609 Q2034.86 410.727 2034.86 402.949 Q2034.86 395.206 2037.43 387.359 Q2040 379.512 2045.24 371.318 L2050.79 371.318 Z" fill="#000000" fill-rule="evenodd" fill-opacity="1" /><path clip-path="url(#clip910)" d="M2070.13 419.373 L2094.61 419.373 L2094.61 425.276 L2061.7 425.276 L2061.7 419.373 Q2065.69 415.241 2072.56 408.297 Q2079.47 401.318 2081.25 399.304 Q2084.61 395.519 2085.93 392.915 Q2087.29 390.276 2087.29 387.741 Q2087.29 383.609 2084.37 381.005 Q2081.49 378.401 2076.84 378.401 Q2073.54 378.401 2069.86 379.547 Q2066.21 380.693 2062.04 383.019 L2062.04 375.936 Q2066.28 374.234 2069.96 373.366 Q2073.64 372.498 2076.7 372.498 Q2084.75 372.498 2089.54 376.526 Q2094.34 380.554 2094.34 387.29 Q2094.34 390.484 2093.12 393.366 Q2091.94 396.213 2088.78 400.102 Q2087.91 401.109 2083.26 405.936 Q2078.61 410.727 2070.13 419.373 Z" fill="#000000" fill-rule="evenodd" fill-opacity="1" /><path clip-path="url(#clip910)" d="M2109.4 373.436 L2136.94 373.436 L2136.94 379.338 L2115.83 379.338 L2115.83 392.047 Q2117.36 391.526 2118.88 391.283 Q2120.41 391.005 2121.94 391.005 Q2130.62 391.005 2135.69 395.762 Q2140.76 400.519 2140.76 408.644 Q2140.76 417.012 2135.55 421.665 Q2130.34 426.283 2120.86 426.283 Q2117.6 426.283 2114.2 425.727 Q2110.83 425.172 2107.22 424.06 L2107.22 417.012 Q2110.34 418.713 2113.68 419.547 Q2117.01 420.38 2120.72 420.38 Q2126.73 420.38 2130.24 417.22 Q2133.75 414.06 2133.75 408.644 Q2133.75 403.227 2130.24 400.068 Q2126.73 396.908 2120.72 396.908 Q2117.91 396.908 2115.1 397.533 Q2112.32 398.158 2109.4 399.477 L2109.4 373.436 Z" fill="#000000" fill-rule="evenodd" fill-opacity="1" /><path clip-path="url(#clip910)" d="M2169.58 378.054 Q2164.16 378.054 2161.42 383.401 Q2158.71 388.713 2158.71 399.408 Q2158.71 410.067 2161.42 415.415 Q2164.16 420.727 2169.58 420.727 Q2175.03 420.727 2177.74 415.415 Q2180.48 410.067 2180.48 399.408 Q2180.48 388.713 2177.74 383.401 Q2175.03 378.054 2169.58 378.054 M2169.58 372.498 Q2178.29 372.498 2182.88 379.408 Q2187.49 386.283 2187.49 399.408 Q2187.49 412.498 2182.88 419.408 Q2178.29 426.283 2169.58 426.283 Q2160.86 426.283 2156.24 419.408 Q2151.66 412.498 2151.66 399.408 Q2151.66 386.283 2156.24 379.408 Q2160.86 372.498 2169.58 372.498 Z" fill="#000000" fill-rule="evenodd" fill-opacity="1" /><path clip-path="url(#clip910)" d="M2214.82 378.054 Q2209.4 378.054 2206.66 383.401 Q2203.95 388.713 2203.95 399.408 Q2203.95 410.067 2206.66 415.415 Q2209.4 420.727 2214.82 420.727 Q2220.27 420.727 2222.98 415.415 Q2225.72 410.067 2225.72 399.408 Q2225.72 388.713 2222.98 383.401 Q2220.27 378.054 2214.82 378.054 M2214.82 372.498 Q2223.54 372.498 2228.12 379.408 Q2232.74 386.283 2232.74 399.408 Q2232.74 412.498 2228.12 419.408 Q2223.54 426.283 2214.82 426.283 Q2206.11 426.283 2201.49 419.408 Q2196.9 412.498 2196.9 399.408 Q2196.9 386.283 2201.49 379.408 Q2206.11 372.498 2214.82 372.498 Z" fill="#000000" fill-rule="evenodd" fill-opacity="1" /><path clip-path="url(#clip910)" d="M2243.15 371.318 L2248.71 371.318 Q2253.92 379.512 2256.49 387.359 Q2259.09 395.206 2259.09 402.949 Q2259.09 410.727 2256.49 418.609 Q2253.92 426.491 2248.71 434.651 L2243.15 434.651 Q2247.77 426.699 2250.03 418.852 Q2252.32 410.97 2252.32 402.949 Q2252.32 394.929 2250.03 387.116 Q2247.77 379.304 2243.15 371.318 Z" fill="#000000" fill-rule="evenodd" fill-opacity="1" /><polyline clip-path="url(#clip910)" style="stroke:#008000; stroke-linecap:round; stroke-linejoin:round; stroke-width:12; stroke-opacity:1; fill:none" points="
  1460.32,477.116 1600.82,477.116 
  "/>
<path clip-path="url(#clip910)" d="M1624.23 451.196 L1633.68 451.196 L1656.66 494.564 L1656.66 451.196 L1663.47 451.196 L1663.47 503.036 L1654.03 503.036 L1631.04 459.668 L1631.04 503.036 L1624.23 503.036 L1624.23 451.196 Z" fill="#000000" fill-rule="evenodd" fill-opacity="1" /><path clip-path="url(#clip910)" d="M1710.41 481.994 L1710.41 485.119 L1681.04 485.119 Q1681.46 491.716 1685 495.189 Q1688.57 498.626 1694.93 498.626 Q1698.61 498.626 1702.05 497.723 Q1705.52 496.82 1708.92 495.015 L1708.92 501.057 Q1705.48 502.515 1701.87 503.279 Q1698.26 504.043 1694.55 504.043 Q1685.24 504.043 1679.79 498.626 Q1674.37 493.209 1674.37 483.973 Q1674.37 474.425 1679.51 468.835 Q1684.68 463.21 1693.43 463.21 Q1701.28 463.21 1705.83 468.279 Q1710.41 473.314 1710.41 481.994 M1704.03 480.119 Q1703.96 474.876 1701.07 471.751 Q1698.23 468.626 1693.5 468.626 Q1688.16 468.626 1684.93 471.647 Q1681.73 474.668 1681.25 480.154 L1704.03 480.119 Z" fill="#000000" fill-rule="evenodd" fill-opacity="1" /><path clip-path="url(#clip910)" d="M1720.24 487.689 L1720.24 464.147 L1726.63 464.147 L1726.63 487.446 Q1726.63 492.966 1728.78 495.744 Q1730.93 498.487 1735.24 498.487 Q1740.41 498.487 1743.4 495.189 Q1746.42 491.89 1746.42 486.196 L1746.42 464.147 L1752.81 464.147 L1752.81 503.036 L1746.42 503.036 L1746.42 497.064 Q1744.09 500.605 1741 502.341 Q1737.95 504.043 1733.89 504.043 Q1727.18 504.043 1723.71 499.876 Q1720.24 495.709 1720.24 487.689 M1736.32 463.21 L1736.32 463.21 Z" fill="#000000" fill-rule="evenodd" fill-opacity="1" /><path clip-path="url(#clip910)" d="M1788.5 470.119 Q1787.43 469.494 1786.14 469.216 Q1784.89 468.904 1783.36 468.904 Q1777.95 468.904 1775.03 472.446 Q1772.15 475.953 1772.15 482.55 L1772.15 503.036 L1765.73 503.036 L1765.73 464.147 L1772.15 464.147 L1772.15 470.189 Q1774.16 466.647 1777.39 464.946 Q1780.62 463.21 1785.24 463.21 Q1785.9 463.21 1786.7 463.314 Q1787.5 463.383 1788.47 463.557 L1788.5 470.119 Z" fill="#000000" fill-rule="evenodd" fill-opacity="1" /><path clip-path="url(#clip910)" d="M1812.88 483.487 Q1805.14 483.487 1802.15 485.258 Q1799.16 487.029 1799.16 491.3 Q1799.16 494.702 1801.39 496.716 Q1803.64 498.695 1807.5 498.695 Q1812.81 498.695 1816 494.945 Q1819.23 491.161 1819.23 484.911 L1819.23 483.487 L1812.88 483.487 M1825.62 480.848 L1825.62 503.036 L1819.23 503.036 L1819.23 497.133 Q1817.05 500.675 1813.78 502.376 Q1810.52 504.043 1805.8 504.043 Q1799.82 504.043 1796.28 500.709 Q1792.77 497.341 1792.77 491.716 Q1792.77 485.154 1797.15 481.821 Q1801.56 478.487 1810.27 478.487 L1819.23 478.487 L1819.23 477.862 Q1819.23 473.453 1816.32 471.057 Q1813.43 468.626 1808.19 468.626 Q1804.86 468.626 1801.7 469.425 Q1798.54 470.223 1795.62 471.821 L1795.62 465.918 Q1799.13 464.564 1802.43 463.904 Q1805.73 463.21 1808.85 463.21 Q1817.29 463.21 1821.46 467.585 Q1825.62 471.959 1825.62 480.848 Z" fill="#000000" fill-rule="evenodd" fill-opacity="1" /><path clip-path="url(#clip910)" d="M1838.78 449.008 L1845.17 449.008 L1845.17 503.036 L1838.78 503.036 L1838.78 449.008 Z" fill="#000000" fill-rule="evenodd" fill-opacity="1" /><path clip-path="url(#clip910)" d="M1858.82 451.196 L1888.61 451.196 L1888.61 457.098 L1865.83 457.098 L1865.83 472.376 L1886.39 472.376 L1886.39 478.279 L1865.83 478.279 L1865.83 503.036 L1858.82 503.036 L1858.82 451.196 Z" fill="#000000" fill-rule="evenodd" fill-opacity="1" /><path clip-path="url(#clip910)" d="M1899.72 451.196 L1910.17 451.196 L1923.4 486.473 L1936.7 451.196 L1947.15 451.196 L1947.15 503.036 L1940.31 503.036 L1940.31 457.515 L1926.94 493.07 L1919.89 493.07 L1906.52 457.515 L1906.52 503.036 L1899.72 503.036 L1899.72 451.196 Z" fill="#000000" fill-rule="evenodd" fill-opacity="1" /><path clip-path="url(#clip910)" d="M1960.27 451.196 L1967.32 451.196 L1967.32 482.689 Q1967.32 491.022 1970.34 494.702 Q1973.36 498.348 1980.13 498.348 Q1986.87 498.348 1989.89 494.702 Q1992.91 491.022 1992.91 482.689 L1992.91 451.196 L1999.96 451.196 L1999.96 483.557 Q1999.96 493.695 1994.93 498.869 Q1989.93 504.043 1980.13 504.043 Q1970.31 504.043 1965.27 498.869 Q1960.27 493.695 1960.27 483.557 L1960.27 451.196 Z" fill="#000000" fill-rule="evenodd" fill-opacity="1" /><path clip-path="url(#clip910)" d="M2050.79 449.078 Q2046.14 457.064 2043.88 464.876 Q2041.63 472.689 2041.63 480.709 Q2041.63 488.73 2043.88 496.612 Q2046.18 504.459 2050.79 512.411 L2045.24 512.411 Q2040.03 504.251 2037.43 496.369 Q2034.86 488.487 2034.86 480.709 Q2034.86 472.966 2037.43 465.119 Q2040 457.272 2045.24 449.078 L2050.79 449.078 Z" fill="#000000" fill-rule="evenodd" fill-opacity="1" /><path clip-path="url(#clip910)" d="M2064.16 451.196 L2091.7 451.196 L2091.7 457.098 L2070.59 457.098 L2070.59 469.807 Q2072.11 469.286 2073.64 469.043 Q2075.17 468.765 2076.7 468.765 Q2085.38 468.765 2090.45 473.522 Q2095.52 478.279 2095.52 486.404 Q2095.52 494.772 2090.31 499.425 Q2085.1 504.043 2075.62 504.043 Q2072.36 504.043 2068.95 503.487 Q2065.59 502.932 2061.97 501.82 L2061.97 494.772 Q2065.1 496.473 2068.43 497.307 Q2071.77 498.14 2075.48 498.14 Q2081.49 498.14 2085 494.98 Q2088.5 491.82 2088.5 486.404 Q2088.5 480.987 2085 477.828 Q2081.49 474.668 2075.48 474.668 Q2072.67 474.668 2069.86 475.293 Q2067.08 475.918 2064.16 477.237 L2064.16 451.196 Z" fill="#000000" fill-rule="evenodd" fill-opacity="1" /><path clip-path="url(#clip910)" d="M2124.34 455.814 Q2118.92 455.814 2116.18 461.161 Q2113.47 466.473 2113.47 477.168 Q2113.47 487.827 2116.18 493.175 Q2118.92 498.487 2124.34 498.487 Q2129.79 498.487 2132.5 493.175 Q2135.24 487.827 2135.24 477.168 Q2135.24 466.473 2132.5 461.161 Q2129.79 455.814 2124.34 455.814 M2124.34 450.258 Q2133.05 450.258 2137.63 457.168 Q2142.25 464.043 2142.25 477.168 Q2142.25 490.258 2137.63 497.168 Q2133.05 504.043 2124.34 504.043 Q2115.62 504.043 2111 497.168 Q2106.42 490.258 2106.42 477.168 Q2106.42 464.043 2111 457.168 Q2115.62 450.258 2124.34 450.258 Z" fill="#000000" fill-rule="evenodd" fill-opacity="1" /><path clip-path="url(#clip910)" d="M2169.58 455.814 Q2164.16 455.814 2161.42 461.161 Q2158.71 466.473 2158.71 477.168 Q2158.71 487.827 2161.42 493.175 Q2164.16 498.487 2169.58 498.487 Q2175.03 498.487 2177.74 493.175 Q2180.48 487.827 2180.48 477.168 Q2180.48 466.473 2177.74 461.161 Q2175.03 455.814 2169.58 455.814 M2169.58 450.258 Q2178.29 450.258 2182.88 457.168 Q2187.49 464.043 2187.49 477.168 Q2187.49 490.258 2182.88 497.168 Q2178.29 504.043 2169.58 504.043 Q2160.86 504.043 2156.24 497.168 Q2151.66 490.258 2151.66 477.168 Q2151.66 464.043 2156.24 457.168 Q2160.86 450.258 2169.58 450.258 Z" fill="#000000" fill-rule="evenodd" fill-opacity="1" /><path clip-path="url(#clip910)" d="M2214.82 455.814 Q2209.4 455.814 2206.66 461.161 Q2203.95 466.473 2203.95 477.168 Q2203.95 487.827 2206.66 493.175 Q2209.4 498.487 2214.82 498.487 Q2220.27 498.487 2222.98 493.175 Q2225.72 487.827 2225.72 477.168 Q2225.72 466.473 2222.98 461.161 Q2220.27 455.814 2214.82 455.814 M2214.82 450.258 Q2223.54 450.258 2228.12 457.168 Q2232.74 464.043 2232.74 477.168 Q2232.74 490.258 2228.12 497.168 Q2223.54 504.043 2214.82 504.043 Q2206.11 504.043 2201.49 497.168 Q2196.9 490.258 2196.9 477.168 Q2196.9 464.043 2201.49 457.168 Q2206.11 450.258 2214.82 450.258 Z" fill="#000000" fill-rule="evenodd" fill-opacity="1" /><path clip-path="url(#clip910)" d="M2243.15 449.078 L2248.71 449.078 Q2253.92 457.272 2256.49 465.119 Q2259.09 472.966 2259.09 480.709 Q2259.09 488.487 2256.49 496.369 Q2253.92 504.251 2248.71 512.411 L2243.15 512.411 Q2247.77 504.459 2250.03 496.612 Q2252.32 488.73 2252.32 480.709 Q2252.32 472.689 2250.03 464.876 Q2247.77 457.064 2243.15 449.078 Z" fill="#000000" fill-rule="evenodd" fill-opacity="1" /></svg>
