<?xml version="1.0" encoding="utf-8"?>
<svg xmlns="http://www.w3.org/2000/svg" xmlns:xlink="http://www.w3.org/1999/xlink" width="600" height="400" viewBox="0 0 2400 1600">
<defs>
  <clipPath id="clip370">
    <rect x="0" y="0" width="2400" height="1600"/>
  </clipPath>
</defs>
<path clip-path="url(#clip370)" d="M0 1600 L2400 1600 L2400 0 L0 0  Z" fill="#ffffff" fill-rule="evenodd" fill-opacity="1"/>
<defs>
  <clipPath id="clip371">
    <rect x="480" y="0" width="1681" height="1600"/>
  </clipPath>
</defs>
<path clip-path="url(#clip370)" d="M303.503 1401.58 L2352.76 1401.58 L2352.76 123.472 L303.503 123.472  Z" fill="#ffffff" fill-rule="evenodd" fill-opacity="1"/>
<defs>
  <clipPath id="clip372">
    <rect x="303" y="123" width="2050" height="1279"/>
  </clipPath>
</defs>
<polyline clip-path="url(#clip372)" style="stroke:#000000; stroke-linecap:round; stroke-linejoin:round; stroke-width:2; stroke-opacity:0.1; fill:none" points="361.501,1401.58 361.501,123.472 "/>
<polyline clip-path="url(#clip372)" style="stroke:#000000; stroke-linecap:round; stroke-linejoin:round; stroke-width:2; stroke-opacity:0.1; fill:none" points="844.815,1401.58 844.815,123.472 "/>
<polyline clip-path="url(#clip372)" style="stroke:#000000; stroke-linecap:round; stroke-linejoin:round; stroke-width:2; stroke-opacity:0.1; fill:none" points="1328.13,1401.58 1328.13,123.472 "/>
<polyline clip-path="url(#clip372)" style="stroke:#000000; stroke-linecap:round; stroke-linejoin:round; stroke-width:2; stroke-opacity:0.1; fill:none" points="1811.44,1401.58 1811.44,123.472 "/>
<polyline clip-path="url(#clip372)" style="stroke:#000000; stroke-linecap:round; stroke-linejoin:round; stroke-width:2; stroke-opacity:0.1; fill:none" points="2294.76,1401.58 2294.76,123.472 "/>
<polyline clip-path="url(#clip370)" style="stroke:#000000; stroke-linecap:round; stroke-linejoin:round; stroke-width:4; stroke-opacity:1; fill:none" points="303.503,1401.58 2352.76,1401.58 "/>
<polyline clip-path="url(#clip370)" style="stroke:#000000; stroke-linecap:round; stroke-linejoin:round; stroke-width:4; stroke-opacity:1; fill:none" points="361.501,1401.58 361.501,1382.68 "/>
<polyline clip-path="url(#clip370)" style="stroke:#000000; stroke-linecap:round; stroke-linejoin:round; stroke-width:4; stroke-opacity:1; fill:none" points="844.815,1401.58 844.815,1382.68 "/>
<polyline clip-path="url(#clip370)" style="stroke:#000000; stroke-linecap:round; stroke-linejoin:round; stroke-width:4; stroke-opacity:1; fill:none" points="1328.13,1401.58 1328.13,1382.68 "/>
<polyline clip-path="url(#clip370)" style="stroke:#000000; stroke-linecap:round; stroke-linejoin:round; stroke-width:4; stroke-opacity:1; fill:none" points="1811.44,1401.58 1811.44,1382.68 "/>
<polyline clip-path="url(#clip370)" style="stroke:#000000; stroke-linecap:round; stroke-linejoin:round; stroke-width:4; stroke-opacity:1; fill:none" points="2294.76,1401.58 2294.76,1382.68 "/>
<path clip-path="url(#clip370)" d="M361.501 1438.36 Q356.084 1438.36 353.341 1443.71 Q350.633 1449.02 350.633 1459.71 Q350.633 1470.37 353.341 1475.72 Q356.084 1481.03 361.501 1481.03 Q366.952 1481.03 369.66 1475.72 Q372.403 1470.37 372.403 1459.71 Q372.403 1449.02 369.66 1443.71 Q366.952 1438.36 361.501 1438.36 M361.501 1432.8 Q370.216 1432.8 374.799 1439.71 Q379.417 1446.59 379.417 1459.71 Q379.417 1472.8 374.799 1479.71 Q370.216 1486.59 361.501 1486.59 Q352.785 1486.59 348.167 1479.71 Q343.584 1472.8 343.584 1459.71 Q343.584 1446.59 348.167 1439.71 Q352.785 1432.8 361.501 1432.8 Z" fill="#000000" fill-rule="nonzero" fill-opacity="1" /><path clip-path="url(#clip370)" d="M830.388 1479.68 L841.846 1479.68 L841.846 1440.13 L829.381 1442.63 L829.381 1436.24 L841.777 1433.74 L848.791 1433.74 L848.791 1479.68 L860.249 1479.68 L860.249 1485.58 L830.388 1485.58 L830.388 1479.68 Z" fill="#000000" fill-rule="nonzero" fill-opacity="1" /><path clip-path="url(#clip370)" d="M1320.11 1479.68 L1344.59 1479.68 L1344.59 1485.58 L1311.67 1485.58 L1311.67 1479.68 Q1315.66 1475.55 1322.54 1468.6 Q1329.45 1461.62 1331.22 1459.61 Q1334.59 1455.82 1335.91 1453.22 Q1337.26 1450.58 1337.26 1448.05 Q1337.26 1443.91 1334.34 1441.31 Q1331.46 1438.71 1326.81 1438.71 Q1323.51 1438.71 1319.83 1439.85 Q1316.19 1441 1312.02 1443.32 L1312.02 1436.24 Q1316.25 1434.54 1319.94 1433.67 Q1323.62 1432.8 1326.67 1432.8 Q1334.73 1432.8 1339.52 1436.83 Q1344.31 1440.86 1344.31 1447.59 Q1344.31 1450.79 1343.09 1453.67 Q1341.91 1456.52 1338.75 1460.41 Q1337.89 1461.41 1333.23 1466.24 Q1328.58 1471.03 1320.11 1479.68 Z" fill="#000000" fill-rule="nonzero" fill-opacity="1" /><path clip-path="url(#clip370)" d="M1817.82 1457.63 Q1822.85 1458.7 1825.66 1462.11 Q1828.51 1465.51 1828.51 1470.51 Q1828.51 1478.18 1823.23 1482.39 Q1817.95 1486.59 1808.23 1486.59 Q1804.97 1486.59 1801.5 1485.93 Q1798.06 1485.3 1794.38 1484.02 L1794.38 1477.25 Q1797.29 1478.95 1800.77 1479.82 Q1804.24 1480.68 1808.02 1480.68 Q1814.62 1480.68 1818.06 1478.08 Q1821.53 1475.48 1821.53 1470.51 Q1821.53 1465.93 1818.3 1463.36 Q1815.11 1460.75 1809.38 1460.75 L1803.34 1460.75 L1803.34 1454.99 L1809.66 1454.99 Q1814.83 1454.99 1817.57 1452.94 Q1820.32 1450.86 1820.32 1446.97 Q1820.32 1442.98 1817.47 1440.86 Q1814.66 1438.71 1809.38 1438.71 Q1806.5 1438.71 1803.2 1439.33 Q1799.9 1439.96 1795.94 1441.27 L1795.94 1435.02 Q1799.93 1433.91 1803.41 1433.36 Q1806.91 1432.8 1810 1432.8 Q1817.99 1432.8 1822.64 1436.45 Q1827.29 1440.06 1827.29 1446.24 Q1827.29 1450.55 1824.83 1453.53 Q1822.36 1456.48 1817.82 1457.63 Z" fill="#000000" fill-rule="nonzero" fill-opacity="1" /><path clip-path="url(#clip370)" d="M2299.27 1439.85 L2281.56 1467.52 L2299.27 1467.52 L2299.27 1439.85 M2297.43 1433.74 L2306.25 1433.74 L2306.25 1467.52 L2313.65 1467.52 L2313.65 1473.36 L2306.25 1473.36 L2306.25 1485.58 L2299.27 1485.58 L2299.27 1473.36 L2275.87 1473.36 L2275.87 1466.59 L2297.43 1433.74 Z" fill="#000000" fill-rule="nonzero" fill-opacity="1" /><path clip-path="url(#clip370)" d="M1271.74 1527.62 L1271.74 1538.66 L1284.9 1538.66 L1284.9 1543.62 L1271.74 1543.62 L1271.74 1564.74 Q1271.74 1569.49 1273.03 1570.85 Q1274.35 1572.2 1278.34 1572.2 L1284.9 1572.2 L1284.9 1577.55 L1278.34 1577.55 Q1270.94 1577.55 1268.13 1574.8 Q1265.32 1572.03 1265.32 1564.74 L1265.32 1543.62 L1260.63 1543.62 L1260.63 1538.66 L1265.32 1538.66 L1265.32 1527.62 L1271.74 1527.62 Z" fill="#000000" fill-rule="nonzero" fill-opacity="1" /><path clip-path="url(#clip370)" d="M1315.32 1523.52 L1330.04 1523.52 L1330.04 1528.49 L1321.71 1528.49 L1321.71 1581.96 L1330.04 1581.96 L1330.04 1586.92 L1315.32 1586.92 L1315.32 1523.52 Z" fill="#000000" fill-rule="nonzero" fill-opacity="1" /><path clip-path="url(#clip370)" d="M1368.44 1539.8 L1368.44 1545.85 Q1365.73 1544.46 1362.82 1543.76 Q1359.9 1543.07 1356.78 1543.07 Q1352.02 1543.07 1349.62 1544.53 Q1347.26 1545.99 1347.26 1548.9 Q1347.26 1551.12 1348.96 1552.41 Q1350.66 1553.66 1355.8 1554.8 L1357.99 1555.29 Q1364.8 1556.75 1367.64 1559.42 Q1370.53 1562.06 1370.53 1566.82 Q1370.53 1572.24 1366.22 1575.4 Q1361.95 1578.55 1354.45 1578.55 Q1351.32 1578.55 1347.92 1577.93 Q1344.55 1577.34 1340.8 1576.12 L1340.8 1569.53 Q1344.34 1571.37 1347.78 1572.3 Q1351.22 1573.21 1354.59 1573.21 Q1359.1 1573.21 1361.53 1571.68 Q1363.96 1570.12 1363.96 1567.3 Q1363.96 1564.7 1362.19 1563.31 Q1360.46 1561.92 1354.52 1560.64 L1352.3 1560.12 Q1346.36 1558.87 1343.72 1556.3 Q1341.08 1553.69 1341.08 1549.18 Q1341.08 1543.69 1344.97 1540.71 Q1348.86 1537.72 1356.01 1537.72 Q1359.55 1537.72 1362.68 1538.24 Q1365.8 1538.76 1368.44 1539.8 Z" fill="#000000" fill-rule="nonzero" fill-opacity="1" /><path clip-path="url(#clip370)" d="M1395.63 1523.52 L1395.63 1586.92 L1380.91 1586.92 L1380.91 1581.96 L1389.21 1581.96 L1389.21 1528.49 L1380.91 1528.49 L1380.91 1523.52 L1395.63 1523.52 Z" fill="#000000" fill-rule="nonzero" fill-opacity="1" /><polyline clip-path="url(#clip372)" style="stroke:#000000; stroke-linecap:round; stroke-linejoin:round; stroke-width:2; stroke-opacity:0.1; fill:none" points="303.503,1364.19 2352.76,1364.19 "/>
<polyline clip-path="url(#clip372)" style="stroke:#000000; stroke-linecap:round; stroke-linejoin:round; stroke-width:2; stroke-opacity:0.1; fill:none" points="303.503,1113.45 2352.76,1113.45 "/>
<polyline clip-path="url(#clip372)" style="stroke:#000000; stroke-linecap:round; stroke-linejoin:round; stroke-width:2; stroke-opacity:0.1; fill:none" points="303.503,862.714 2352.76,862.714 "/>
<polyline clip-path="url(#clip372)" style="stroke:#000000; stroke-linecap:round; stroke-linejoin:round; stroke-width:2; stroke-opacity:0.1; fill:none" points="303.503,611.975 2352.76,611.975 "/>
<polyline clip-path="url(#clip372)" style="stroke:#000000; stroke-linecap:round; stroke-linejoin:round; stroke-width:2; stroke-opacity:0.1; fill:none" points="303.503,361.236 2352.76,361.236 "/>
<polyline clip-path="url(#clip370)" style="stroke:#000000; stroke-linecap:round; stroke-linejoin:round; stroke-width:4; stroke-opacity:1; fill:none" points="303.503,1401.58 303.503,123.472 "/>
<polyline clip-path="url(#clip370)" style="stroke:#000000; stroke-linecap:round; stroke-linejoin:round; stroke-width:4; stroke-opacity:1; fill:none" points="303.503,1364.19 322.401,1364.19 "/>
<polyline clip-path="url(#clip370)" style="stroke:#000000; stroke-linecap:round; stroke-linejoin:round; stroke-width:4; stroke-opacity:1; fill:none" points="303.503,1113.45 322.401,1113.45 "/>
<polyline clip-path="url(#clip370)" style="stroke:#000000; stroke-linecap:round; stroke-linejoin:round; stroke-width:4; stroke-opacity:1; fill:none" points="303.503,862.714 322.401,862.714 "/>
<polyline clip-path="url(#clip370)" style="stroke:#000000; stroke-linecap:round; stroke-linejoin:round; stroke-width:4; stroke-opacity:1; fill:none" points="303.503,611.975 322.401,611.975 "/>
<polyline clip-path="url(#clip370)" style="stroke:#000000; stroke-linecap:round; stroke-linejoin:round; stroke-width:4; stroke-opacity:1; fill:none" points="303.503,361.236 322.401,361.236 "/>
<path clip-path="url(#clip370)" d="M136.497 1342.89 Q131.08 1342.89 128.337 1348.24 Q125.629 1353.55 125.629 1364.24 Q125.629 1374.9 128.337 1380.25 Q131.08 1385.56 136.497 1385.56 Q141.948 1385.56 144.656 1380.25 Q147.399 1374.9 147.399 1364.24 Q147.399 1353.55 144.656 1348.24 Q141.948 1342.89 136.497 1342.89 M136.497 1337.33 Q145.212 1337.33 149.795 1344.24 Q154.413 1351.12 154.413 1364.24 Q154.413 1377.33 149.795 1384.24 Q145.212 1391.12 136.497 1391.12 Q127.781 1391.12 123.163 1384.24 Q118.58 1377.33 118.58 1364.24 Q118.58 1351.12 123.163 1344.24 Q127.781 1337.33 136.497 1337.33 Z" fill="#000000" fill-rule="nonzero" fill-opacity="1" /><path clip-path="url(#clip370)" d="M166.74 1381.29 L174.066 1381.29 L174.066 1390.11 L166.74 1390.11 L166.74 1381.29 Z" fill="#000000" fill-rule="nonzero" fill-opacity="1" /><path clip-path="url(#clip370)" d="M189.413 1338.27 L216.948 1338.27 L216.948 1344.17 L195.837 1344.17 L195.837 1356.88 Q197.364 1356.36 198.892 1356.12 Q200.42 1355.84 201.948 1355.84 Q210.628 1355.84 215.698 1360.6 Q220.767 1365.36 220.767 1373.48 Q220.767 1381.85 215.559 1386.5 Q210.35 1391.12 200.871 1391.12 Q197.608 1391.12 194.205 1390.56 Q190.837 1390.01 187.226 1388.9 L187.226 1381.85 Q190.351 1383.55 193.684 1384.38 Q197.017 1385.22 200.732 1385.22 Q206.739 1385.22 210.246 1382.06 Q213.753 1378.9 213.753 1373.48 Q213.753 1368.06 210.246 1364.9 Q206.739 1361.74 200.732 1361.74 Q197.92 1361.74 195.108 1362.37 Q192.33 1362.99 189.413 1364.31 L189.413 1338.27 Z" fill="#000000" fill-rule="nonzero" fill-opacity="1" /><path clip-path="url(#clip370)" d="M249.586 1342.89 Q244.17 1342.89 241.427 1348.24 Q238.718 1353.55 238.718 1364.24 Q238.718 1374.9 241.427 1380.25 Q244.17 1385.56 249.586 1385.56 Q255.038 1385.56 257.746 1380.25 Q260.489 1374.9 260.489 1364.24 Q260.489 1353.55 257.746 1348.24 Q255.038 1342.89 249.586 1342.89 M249.586 1337.33 Q258.302 1337.33 262.885 1344.24 Q267.503 1351.12 267.503 1364.24 Q267.503 1377.33 262.885 1384.24 Q258.302 1391.12 249.586 1391.12 Q240.871 1391.12 236.253 1384.24 Q231.67 1377.33 231.67 1364.24 Q231.67 1351.12 236.253 1344.24 Q240.871 1337.33 249.586 1337.33 Z" fill="#000000" fill-rule="nonzero" fill-opacity="1" /><path clip-path="url(#clip370)" d="M137.99 1092.15 Q132.573 1092.15 129.83 1097.5 Q127.122 1102.81 127.122 1113.51 Q127.122 1124.16 129.83 1129.51 Q132.573 1134.82 137.99 1134.82 Q143.441 1134.82 146.149 1129.51 Q148.892 1124.16 148.892 1113.51 Q148.892 1102.81 146.149 1097.5 Q143.441 1092.15 137.99 1092.15 M137.99 1086.6 Q146.705 1086.6 151.288 1093.51 Q155.906 1100.38 155.906 1113.51 Q155.906 1126.6 151.288 1133.5 Q146.705 1140.38 137.99 1140.38 Q129.275 1140.38 124.657 1133.5 Q120.073 1126.6 120.073 1113.51 Q120.073 1100.38 124.657 1093.51 Q129.275 1086.6 137.99 1086.6 Z" fill="#000000" fill-rule="nonzero" fill-opacity="1" /><path clip-path="url(#clip370)" d="M168.233 1130.55 L175.559 1130.55 L175.559 1139.37 L168.233 1139.37 L168.233 1130.55 Z" fill="#000000" fill-rule="nonzero" fill-opacity="1" /><path clip-path="url(#clip370)" d="M189.066 1087.53 L222.399 1087.53 L222.399 1090.52 L203.58 1139.37 L196.253 1139.37 L213.962 1093.44 L189.066 1093.44 L189.066 1087.53 Z" fill="#000000" fill-rule="nonzero" fill-opacity="1" /><path clip-path="url(#clip370)" d="M236.149 1087.53 L263.684 1087.53 L263.684 1093.44 L242.573 1093.44 L242.573 1106.14 Q244.1 1105.62 245.628 1105.38 Q247.156 1105.1 248.684 1105.1 Q257.364 1105.1 262.434 1109.86 Q267.503 1114.62 267.503 1122.74 Q267.503 1131.11 262.295 1135.76 Q257.086 1140.38 247.607 1140.38 Q244.343 1140.38 240.941 1139.82 Q237.573 1139.27 233.961 1138.16 L233.961 1131.11 Q237.086 1132.81 240.42 1133.64 Q243.753 1134.48 247.468 1134.48 Q253.475 1134.48 256.982 1131.32 Q260.489 1128.16 260.489 1122.74 Q260.489 1117.32 256.982 1114.16 Q253.475 1111.01 247.468 1111.01 Q244.656 1111.01 241.843 1111.63 Q239.066 1112.26 236.149 1113.57 L236.149 1087.53 Z" fill="#000000" fill-rule="nonzero" fill-opacity="1" /><path clip-path="url(#clip370)" d="M122.712 882.731 L134.17 882.731 L134.17 843.183 L121.705 845.683 L121.705 839.294 L134.101 836.794 L141.115 836.794 L141.115 882.731 L152.573 882.731 L152.573 888.634 L122.712 888.634 L122.712 882.731 Z" fill="#000000" fill-rule="nonzero" fill-opacity="1" /><path clip-path="url(#clip370)" d="M166.74 879.815 L174.066 879.815 L174.066 888.634 L166.74 888.634 L166.74 879.815 Z" fill="#000000" fill-rule="nonzero" fill-opacity="1" /><path clip-path="url(#clip370)" d="M204.344 841.412 Q198.927 841.412 196.184 846.759 Q193.476 852.072 193.476 862.766 Q193.476 873.426 196.184 878.773 Q198.927 884.085 204.344 884.085 Q209.795 884.085 212.503 878.773 Q215.246 873.426 215.246 862.766 Q215.246 852.072 212.503 846.759 Q209.795 841.412 204.344 841.412 M204.344 835.856 Q213.059 835.856 217.642 842.766 Q222.26 849.641 222.26 862.766 Q222.26 875.856 217.642 882.766 Q213.059 889.641 204.344 889.641 Q195.628 889.641 191.01 882.766 Q186.427 875.856 186.427 862.766 Q186.427 849.641 191.01 842.766 Q195.628 835.856 204.344 835.856 Z" fill="#000000" fill-rule="nonzero" fill-opacity="1" /><path clip-path="url(#clip370)" d="M249.586 841.412 Q244.17 841.412 241.427 846.759 Q238.718 852.072 238.718 862.766 Q238.718 873.426 241.427 878.773 Q244.17 884.085 249.586 884.085 Q255.038 884.085 257.746 878.773 Q260.489 873.426 260.489 862.766 Q260.489 852.072 257.746 846.759 Q255.038 841.412 249.586 841.412 M249.586 835.856 Q258.302 835.856 262.885 842.766 Q267.503 849.641 267.503 862.766 Q267.503 875.856 262.885 882.766 Q258.302 889.641 249.586 889.641 Q240.871 889.641 236.253 882.766 Q231.67 875.856 231.67 862.766 Q231.67 849.641 236.253 842.766 Q240.871 835.856 249.586 835.856 Z" fill="#000000" fill-rule="nonzero" fill-opacity="1" /><path clip-path="url(#clip370)" d="M124.205 631.992 L135.663 631.992 L135.663 592.444 L123.198 594.944 L123.198 588.555 L135.594 586.055 L142.608 586.055 L142.608 631.992 L154.066 631.992 L154.066 637.895 L124.205 637.895 L124.205 631.992 Z" fill="#000000" fill-rule="nonzero" fill-opacity="1" /><path clip-path="url(#clip370)" d="M168.233 629.076 L175.559 629.076 L175.559 637.895 L168.233 637.895 L168.233 629.076 Z" fill="#000000" fill-rule="nonzero" fill-opacity="1" /><path clip-path="url(#clip370)" d="M196.878 631.992 L221.357 631.992 L221.357 637.895 L188.441 637.895 L188.441 631.992 Q192.434 627.86 199.309 620.916 Q206.219 613.937 207.989 611.923 Q211.357 608.138 212.677 605.534 Q214.031 602.895 214.031 600.36 Q214.031 596.228 211.114 593.624 Q208.232 591.02 203.58 591.02 Q200.281 591.02 196.601 592.166 Q192.955 593.312 188.788 595.638 L188.788 588.555 Q193.024 586.854 196.705 585.985 Q200.385 585.117 203.441 585.117 Q211.496 585.117 216.288 589.145 Q221.08 593.173 221.08 599.909 Q221.08 603.103 219.864 605.985 Q218.684 608.833 215.524 612.721 Q214.656 613.728 210.003 618.555 Q205.351 623.346 196.878 631.992 Z" fill="#000000" fill-rule="nonzero" fill-opacity="1" /><path clip-path="url(#clip370)" d="M236.149 586.055 L263.684 586.055 L263.684 591.958 L242.573 591.958 L242.573 604.666 Q244.1 604.145 245.628 603.902 Q247.156 603.624 248.684 603.624 Q257.364 603.624 262.434 608.381 Q267.503 613.138 267.503 621.263 Q267.503 629.631 262.295 634.284 Q257.086 638.902 247.607 638.902 Q244.343 638.902 240.941 638.346 Q237.573 637.791 233.961 636.68 L233.961 629.631 Q237.086 631.332 240.42 632.166 Q243.753 632.999 247.468 632.999 Q253.475 632.999 256.982 629.839 Q260.489 626.68 260.489 621.263 Q260.489 615.846 256.982 612.687 Q253.475 609.527 247.468 609.527 Q244.656 609.527 241.843 610.152 Q239.066 610.777 236.149 612.096 L236.149 586.055 Z" fill="#000000" fill-rule="nonzero" fill-opacity="1" /><path clip-path="url(#clip370)" d="M122.712 381.253 L134.17 381.253 L134.17 341.705 L121.705 344.205 L121.705 337.816 L134.101 335.316 L141.115 335.316 L141.115 381.253 L152.573 381.253 L152.573 387.156 L122.712 387.156 L122.712 381.253 Z" fill="#000000" fill-rule="nonzero" fill-opacity="1" /><path clip-path="url(#clip370)" d="M166.74 378.337 L174.066 378.337 L174.066 387.156 L166.74 387.156 L166.74 378.337 Z" fill="#000000" fill-rule="nonzero" fill-opacity="1" /><path clip-path="url(#clip370)" d="M189.413 335.316 L216.948 335.316 L216.948 341.219 L195.837 341.219 L195.837 353.927 Q197.364 353.406 198.892 353.163 Q200.42 352.885 201.948 352.885 Q210.628 352.885 215.698 357.642 Q220.767 362.399 220.767 370.524 Q220.767 378.892 215.559 383.545 Q210.35 388.163 200.871 388.163 Q197.608 388.163 194.205 387.607 Q190.837 387.052 187.226 385.941 L187.226 378.892 Q190.351 380.593 193.684 381.427 Q197.017 382.26 200.732 382.26 Q206.739 382.26 210.246 379.1 Q213.753 375.941 213.753 370.524 Q213.753 365.107 210.246 361.948 Q206.739 358.788 200.732 358.788 Q197.92 358.788 195.108 359.413 Q192.33 360.038 189.413 361.357 L189.413 335.316 Z" fill="#000000" fill-rule="nonzero" fill-opacity="1" /><path clip-path="url(#clip370)" d="M249.586 339.934 Q244.17 339.934 241.427 345.281 Q238.718 350.594 238.718 361.288 Q238.718 371.948 241.427 377.295 Q244.17 382.607 249.586 382.607 Q255.038 382.607 257.746 377.295 Q260.489 371.948 260.489 361.288 Q260.489 350.594 257.746 345.281 Q255.038 339.934 249.586 339.934 M249.586 334.378 Q258.302 334.378 262.885 341.288 Q267.503 348.163 267.503 361.288 Q267.503 374.378 262.885 381.288 Q258.302 388.163 249.586 388.163 Q240.871 388.163 236.253 381.288 Q231.67 374.378 231.67 361.288 Q231.67 348.163 236.253 341.288 Q240.871 334.378 249.586 334.378 Z" fill="#000000" fill-rule="nonzero" fill-opacity="1" /><path clip-path="url(#clip370)" d="M35.6047 1045.01 Q31.2992 1042.61 29.2506 1039.28 Q27.202 1035.94 27.202 1031.43 Q27.202 1025.35 31.4728 1022.06 Q35.7089 1018.76 43.5561 1018.76 L67.0282 1018.76 L67.0282 1025.18 L43.7644 1025.18 Q38.1741 1025.18 35.4658 1027.16 Q32.7575 1029.14 32.7575 1033.2 Q32.7575 1038.17 36.0561 1041.05 Q39.3547 1043.93 45.0491 1043.93 L67.0282 1043.93 L67.0282 1050.35 L43.7644 1050.35 Q38.1394 1050.35 35.4658 1052.33 Q32.7575 1054.31 32.7575 1058.44 Q32.7575 1063.34 36.0908 1066.22 Q39.3894 1069.1 45.0491 1069.1 L67.0282 1069.1 L67.0282 1075.53 L28.1395 1075.53 L28.1395 1069.1 L34.1811 1069.1 Q30.6047 1066.92 28.9034 1063.86 Q27.202 1060.81 27.202 1056.6 Q27.202 1052.37 29.3547 1049.42 Q31.5075 1046.43 35.6047 1045.01 Z" fill="#000000" fill-rule="nonzero" fill-opacity="1" /><path clip-path="url(#clip370)" d="M47.4797 988.341 Q47.4797 996.084 49.2505 999.07 Q51.0213 1002.06 55.2921 1002.06 Q58.6949 1002.06 60.7087 999.834 Q62.6879 997.577 62.6879 993.723 Q62.6879 988.41 58.9379 985.216 Q55.1532 981.987 48.9033 981.987 L47.4797 981.987 L47.4797 988.341 M44.8408 975.598 L67.0282 975.598 L67.0282 981.987 L61.1254 981.987 Q64.6671 984.174 66.3684 987.438 Q68.0351 990.702 68.0351 995.424 Q68.0351 1001.4 64.7018 1004.94 Q61.3337 1008.44 55.7088 1008.44 Q49.1463 1008.44 45.813 1004.07 Q42.4797 999.66 42.4797 990.945 L42.4797 981.987 L41.8547 981.987 Q37.445 981.987 35.0492 984.903 Q32.6186 987.785 32.6186 993.028 Q32.6186 996.362 33.4172 999.521 Q34.2158 1002.68 35.813 1005.6 L29.9103 1005.6 Q28.5561 1002.09 27.8964 998.792 Q27.202 995.493 27.202 992.369 Q27.202 983.931 31.577 979.764 Q35.9519 975.598 44.8408 975.598 Z" fill="#000000" fill-rule="nonzero" fill-opacity="1" /><path clip-path="url(#clip370)" d="M29.2853 937.647 L35.3269 937.647 Q33.9381 940.355 33.2436 943.272 Q32.5492 946.188 32.5492 949.313 Q32.5492 954.07 34.0075 956.466 Q35.4658 958.827 38.3825 958.827 Q40.6047 958.827 41.8894 957.126 Q43.1394 955.424 44.2852 950.285 L44.7713 948.098 Q46.2297 941.292 48.9033 938.445 Q51.5421 935.563 56.299 935.563 Q61.7157 935.563 64.8754 939.869 Q68.0351 944.14 68.0351 951.64 Q68.0351 954.765 67.4101 958.167 Q66.8198 961.535 65.6046 965.285 L59.0074 965.285 Q60.8476 961.744 61.7851 958.306 Q62.6879 954.869 62.6879 951.501 Q62.6879 946.987 61.1601 944.556 Q59.5976 942.126 56.7852 942.126 Q54.181 942.126 52.7921 943.897 Q51.4032 945.633 50.1185 951.57 L49.5977 953.792 Q48.3477 959.73 45.7783 962.369 Q43.1741 965.008 38.6603 965.008 Q33.1742 965.008 30.1881 961.119 Q27.202 957.23 27.202 950.077 Q27.202 946.535 27.7228 943.41 Q28.2436 940.285 29.2853 937.647 Z" fill="#000000" fill-rule="nonzero" fill-opacity="1" /><path clip-path="url(#clip370)" d="M29.2853 900.598 L35.3269 900.598 Q33.9381 903.306 33.2436 906.223 Q32.5492 909.14 32.5492 912.265 Q32.5492 917.022 34.0075 919.418 Q35.4658 921.779 38.3825 921.779 Q40.6047 921.779 41.8894 920.077 Q43.1394 918.376 44.2852 913.237 L44.7713 911.049 Q46.2297 904.244 48.9033 901.397 Q51.5421 898.515 56.299 898.515 Q61.7157 898.515 64.8754 902.82 Q68.0351 907.091 68.0351 914.591 Q68.0351 917.716 67.4101 921.119 Q66.8198 924.487 65.6046 928.237 L59.0074 928.237 Q60.8476 924.695 61.7851 921.258 Q62.6879 917.82 62.6879 914.452 Q62.6879 909.938 61.1601 907.508 Q59.5976 905.077 56.7852 905.077 Q54.181 905.077 52.7921 906.848 Q51.4032 908.584 50.1185 914.522 L49.5977 916.744 Q48.3477 922.681 45.7783 925.32 Q43.1741 927.959 38.6603 927.959 Q33.1742 927.959 30.1881 924.07 Q27.202 920.181 27.202 913.029 Q27.202 909.487 27.7228 906.362 Q28.2436 903.237 29.2853 900.598 Z" fill="#000000" fill-rule="nonzero" fill-opacity="1" /><path clip-path="url(#clip370)" d="M61.1949 859.557 L81.8197 859.557 L81.8197 865.98 L28.1395 865.98 L28.1395 859.557 L34.0422 859.557 Q30.57 857.543 28.9034 854.487 Q27.202 851.397 27.202 847.126 Q27.202 840.043 32.827 835.633 Q38.4519 831.189 47.6185 831.189 Q56.7852 831.189 62.4101 835.633 Q68.0351 840.043 68.0351 847.126 Q68.0351 851.397 66.3684 854.487 Q64.6671 857.543 61.1949 859.557 M47.6185 837.821 Q40.57 837.821 36.5769 840.737 Q32.5492 843.619 32.5492 848.689 Q32.5492 853.758 36.5769 856.675 Q40.57 859.557 47.6185 859.557 Q54.6671 859.557 58.6949 856.675 Q62.6879 853.758 62.6879 848.689 Q62.6879 843.619 58.6949 840.737 Q54.6671 837.821 47.6185 837.821 Z" fill="#000000" fill-rule="nonzero" fill-opacity="1" /><path clip-path="url(#clip370)" d="M32.6186 805.529 Q32.6186 810.668 36.6464 813.654 Q40.6394 816.64 47.6185 816.64 Q54.5977 816.64 58.6254 813.689 Q62.6185 810.703 62.6185 805.529 Q62.6185 800.425 58.5907 797.439 Q54.5629 794.453 47.6185 794.453 Q40.7089 794.453 36.6811 797.439 Q32.6186 800.425 32.6186 805.529 M27.202 805.529 Q27.202 797.196 32.6186 792.439 Q38.0353 787.682 47.6185 787.682 Q57.1671 787.682 62.6185 792.439 Q68.0351 797.196 68.0351 805.529 Q68.0351 813.897 62.6185 818.654 Q57.1671 823.376 47.6185 823.376 Q38.0353 823.376 32.6186 818.654 Q27.202 813.897 27.202 805.529 Z" fill="#000000" fill-rule="nonzero" fill-opacity="1" /><path clip-path="url(#clip370)" d="M29.2853 752.3 L35.3269 752.3 Q33.9381 755.009 33.2436 757.925 Q32.5492 760.842 32.5492 763.967 Q32.5492 768.724 34.0075 771.12 Q35.4658 773.481 38.3825 773.481 Q40.6047 773.481 41.8894 771.779 Q43.1394 770.078 44.2852 764.939 L44.7713 762.752 Q46.2297 755.946 48.9033 753.099 Q51.5421 750.217 56.299 750.217 Q61.7157 750.217 64.8754 754.523 Q68.0351 758.793 68.0351 766.293 Q68.0351 769.418 67.4101 772.821 Q66.8198 776.189 65.6046 779.939 L59.0074 779.939 Q60.8476 776.397 61.7851 772.96 Q62.6879 769.522 62.6879 766.154 Q62.6879 761.641 61.1601 759.21 Q59.5976 756.779 56.7852 756.779 Q54.181 756.779 52.7921 758.55 Q51.4032 760.286 50.1185 766.224 L49.5977 768.446 Q48.3477 774.384 45.7783 777.022 Q43.1741 779.661 38.6603 779.661 Q33.1742 779.661 30.1881 775.772 Q27.202 771.884 27.202 764.731 Q27.202 761.189 27.7228 758.064 Q28.2436 754.939 29.2853 752.3 Z" fill="#000000" fill-rule="nonzero" fill-opacity="1" /><path clip-path="url(#clip370)" d="M28.1395 740.043 L28.1395 733.655 L67.0282 733.655 L67.0282 740.043 L28.1395 740.043 M13.0007 740.043 L13.0007 733.655 L21.0909 733.655 L21.0909 740.043 L13.0007 740.043 Z" fill="#000000" fill-rule="nonzero" fill-opacity="1" /><path clip-path="url(#clip370)" d="M17.0979 713.967 L28.1395 713.967 L28.1395 700.808 L33.1047 700.808 L33.1047 713.967 L54.2157 713.967 Q58.9726 713.967 60.3268 712.683 Q61.681 711.363 61.681 707.37 L61.681 700.808 L67.0282 700.808 L67.0282 707.37 Q67.0282 714.766 64.2851 717.578 Q61.5074 720.391 54.2157 720.391 L33.1047 720.391 L33.1047 725.078 L28.1395 725.078 L28.1395 720.391 L17.0979 720.391 L17.0979 713.967 Z" fill="#000000" fill-rule="nonzero" fill-opacity="1" /><path clip-path="url(#clip370)" d="M28.1395 692.405 L28.1395 686.016 L67.0282 686.016 L67.0282 692.405 L28.1395 692.405 M13.0007 692.405 L13.0007 686.016 L21.0909 686.016 L21.0909 692.405 L13.0007 692.405 Z" fill="#000000" fill-rule="nonzero" fill-opacity="1" /><path clip-path="url(#clip370)" d="M32.6186 657.579 Q32.6186 662.717 36.6464 665.704 Q40.6394 668.69 47.6185 668.69 Q54.5977 668.69 58.6254 665.738 Q62.6185 662.752 62.6185 657.579 Q62.6185 652.474 58.5907 649.488 Q54.5629 646.502 47.6185 646.502 Q40.7089 646.502 36.6811 649.488 Q32.6186 652.474 32.6186 657.579 M27.202 657.579 Q27.202 649.245 32.6186 644.488 Q38.0353 639.732 47.6185 639.732 Q57.1671 639.732 62.6185 644.488 Q68.0351 649.245 68.0351 657.579 Q68.0351 665.947 62.6185 670.704 Q57.1671 675.426 47.6185 675.426 Q38.0353 675.426 32.6186 670.704 Q27.202 665.947 27.202 657.579 Z" fill="#000000" fill-rule="nonzero" fill-opacity="1" /><path clip-path="url(#clip370)" d="M43.5561 596.815 L67.0282 596.815 L67.0282 603.204 L43.7644 603.204 Q38.2436 603.204 35.5005 605.357 Q32.7575 607.509 32.7575 611.815 Q32.7575 616.989 36.0561 619.975 Q39.3547 622.961 45.0491 622.961 L67.0282 622.961 L67.0282 629.384 L28.1395 629.384 L28.1395 622.961 L34.1811 622.961 Q30.6742 620.669 28.9381 617.579 Q27.202 614.454 27.202 610.391 Q27.202 603.69 31.3686 600.253 Q35.5005 596.815 43.5561 596.815 Z" fill="#000000" fill-rule="nonzero" fill-opacity="1" /><path clip-path="url(#clip370)" d="M13.0007 562.058 L13.0007 547.336 L17.9659 547.336 L17.9659 555.669 L71.4379 555.669 L71.4379 547.336 L76.4031 547.336 L76.4031 562.058 L13.0007 562.058 Z" fill="#000000" fill-rule="nonzero" fill-opacity="1" /><path clip-path="url(#clip370)" d="M35.6047 503.448 Q31.2992 501.052 29.2506 497.718 Q27.202 494.385 27.202 489.871 Q27.202 483.795 31.4728 480.496 Q35.7089 477.198 43.5561 477.198 L67.0282 477.198 L67.0282 483.621 L43.7644 483.621 Q38.1741 483.621 35.4658 485.6 Q32.7575 487.58 32.7575 491.642 Q32.7575 496.607 36.0561 499.489 Q39.3547 502.371 45.0491 502.371 L67.0282 502.371 L67.0282 508.795 L43.7644 508.795 Q38.1394 508.795 35.4658 510.774 Q32.7575 512.753 32.7575 516.885 Q32.7575 521.781 36.0908 524.663 Q39.3894 527.545 45.0491 527.545 L67.0282 527.545 L67.0282 533.968 L28.1395 533.968 L28.1395 527.545 L34.1811 527.545 Q30.6047 525.357 28.9034 522.302 Q27.202 519.246 27.202 515.045 Q27.202 510.809 29.3547 507.857 Q31.5075 504.871 35.6047 503.448 Z" fill="#000000" fill-rule="nonzero" fill-opacity="1" /><path clip-path="url(#clip370)" d="M13.0007 449.524 L76.4031 449.524 L76.4031 464.246 L71.4379 464.246 L71.4379 455.948 L17.9659 455.948 L17.9659 464.246 L13.0007 464.246 L13.0007 449.524 Z" fill="#000000" fill-rule="nonzero" fill-opacity="1" /><path clip-path="url(#clip370)" d="M625.966 18.8205 L625.966 65.8515 L635.85 65.8515 Q648.367 65.8515 654.16 60.1802 Q659.994 54.509 659.994 42.2752 Q659.994 30.1225 654.16 24.4918 Q648.367 18.8205 635.85 18.8205 L625.966 18.8205 M617.783 12.096 L634.594 12.096 Q652.175 12.096 660.399 19.4281 Q668.622 26.7198 668.622 42.2752 Q668.622 57.9117 660.358 65.2439 Q652.094 72.576 634.594 72.576 L617.783 72.576 L617.783 12.096 Z" fill="#000000" fill-rule="nonzero" fill-opacity="1" /><path clip-path="url(#clip370)" d="M720.149 48.0275 L720.149 51.6733 L685.879 51.6733 Q686.365 59.3701 690.497 63.421 Q694.669 67.4314 702.082 67.4314 Q706.376 67.4314 710.387 66.3781 Q714.438 65.3249 718.408 63.2184 L718.408 70.267 Q714.397 71.9684 710.184 72.8596 Q705.971 73.7508 701.637 73.7508 Q690.78 73.7508 684.421 67.4314 Q678.101 61.1119 678.101 50.3365 Q678.101 39.1965 684.096 32.6746 Q690.132 26.1121 700.341 26.1121 Q709.496 26.1121 714.802 32.0264 Q720.149 37.9003 720.149 48.0275 M712.696 45.84 Q712.615 39.7232 709.253 36.0774 Q705.931 32.4315 700.422 32.4315 Q694.183 32.4315 690.416 35.9558 Q686.689 39.4801 686.122 45.8805 L712.696 45.84 Z" fill="#000000" fill-rule="nonzero" fill-opacity="1" /><path clip-path="url(#clip370)" d="M755.352 9.54393 L755.352 15.7418 L748.222 15.7418 Q744.212 15.7418 742.632 17.3622 Q741.093 18.9825 741.093 23.1955 L741.093 27.2059 L753.367 27.2059 L753.367 32.9987 L741.093 32.9987 L741.093 72.576 L733.598 72.576 L733.598 32.9987 L726.469 32.9987 L726.469 27.2059 L733.598 27.2059 L733.598 24.0462 Q733.598 16.471 737.123 13.0277 Q740.647 9.54393 748.303 9.54393 L755.352 9.54393 Z" fill="#000000" fill-rule="nonzero" fill-opacity="1" /><path clip-path="url(#clip370)" d="M782.209 49.7694 Q773.176 49.7694 769.692 51.8354 Q766.208 53.9013 766.208 58.8839 Q766.208 62.8538 768.801 65.2034 Q771.434 67.5124 775.93 67.5124 Q782.128 67.5124 785.855 63.1374 Q789.622 58.7219 789.622 51.4303 L789.622 49.7694 L782.209 49.7694 M797.076 46.6907 L797.076 72.576 L789.622 72.576 L789.622 65.6895 Q787.07 69.8214 783.263 71.8063 Q779.455 73.7508 773.945 73.7508 Q766.978 73.7508 762.846 69.8619 Q758.755 65.9325 758.755 59.3701 Q758.755 51.7138 763.859 47.825 Q769.003 43.9361 779.171 43.9361 L789.622 43.9361 L789.622 43.2069 Q789.622 38.0623 786.22 35.2672 Q782.857 32.4315 776.741 32.4315 Q772.852 32.4315 769.165 33.3632 Q765.479 34.295 762.076 36.1584 L762.076 29.2718 Q766.168 27.692 770.016 26.9223 Q773.864 26.1121 777.51 26.1121 Q787.354 26.1121 792.215 31.2163 Q797.076 36.3204 797.076 46.6907 Z" fill="#000000" fill-rule="nonzero" fill-opacity="1" /><path clip-path="url(#clip370)" d="M811.659 54.671 L811.659 27.2059 L819.113 27.2059 L819.113 54.3874 Q819.113 60.8284 821.625 64.0691 Q824.136 67.2693 829.159 67.2693 Q835.195 67.2693 838.679 63.421 Q842.203 59.5726 842.203 52.9291 L842.203 27.2059 L849.657 27.2059 L849.657 72.576 L842.203 72.576 L842.203 65.6084 Q839.489 69.7404 835.884 71.7658 Q832.319 73.7508 827.579 73.7508 Q819.761 73.7508 815.71 68.8897 Q811.659 64.0286 811.659 54.671 M830.415 26.1121 L830.415 26.1121 Z" fill="#000000" fill-rule="nonzero" fill-opacity="1" /><path clip-path="url(#clip370)" d="M865.01 9.54393 L872.463 9.54393 L872.463 72.576 L865.01 72.576 L865.01 9.54393 Z" fill="#000000" fill-rule="nonzero" fill-opacity="1" /><path clip-path="url(#clip370)" d="M895.432 14.324 L895.432 27.2059 L910.785 27.2059 L910.785 32.9987 L895.432 32.9987 L895.432 57.6282 Q895.432 63.1779 896.931 64.7578 Q898.47 66.3376 903.129 66.3376 L910.785 66.3376 L910.785 72.576 L903.129 72.576 Q894.5 72.576 891.219 69.3758 Q887.938 66.1351 887.938 57.6282 L887.938 32.9987 L882.469 32.9987 L882.469 27.2059 L887.938 27.2059 L887.938 14.324 L895.432 14.324 Z" fill="#000000" fill-rule="nonzero" fill-opacity="1" /><path clip-path="url(#clip370)" d="M922.492 62.2867 L931.04 62.2867 L931.04 72.576 L922.492 72.576 L922.492 62.2867 M922.492 29.6769 L931.04 29.6769 L931.04 39.9662 L922.492 39.9662 L922.492 29.6769 Z" fill="#000000" fill-rule="nonzero" fill-opacity="1" /><path clip-path="url(#clip370)" d="M975.235 12.096 L987.428 12.096 L1002.86 53.2532 L1018.38 12.096 L1030.57 12.096 L1030.57 72.576 L1022.59 72.576 L1022.59 19.4686 L1006.99 60.9499 L998.771 60.9499 L983.175 19.4686 L983.175 72.576 L975.235 72.576 L975.235 12.096 Z" fill="#000000" fill-rule="nonzero" fill-opacity="1" /><path clip-path="url(#clip370)" d="M1067.11 49.7694 Q1058.08 49.7694 1054.59 51.8354 Q1051.11 53.9013 1051.11 58.8839 Q1051.11 62.8538 1053.7 65.2034 Q1056.33 67.5124 1060.83 67.5124 Q1067.03 67.5124 1070.76 63.1374 Q1074.52 58.7219 1074.52 51.4303 L1074.52 49.7694 L1067.11 49.7694 M1081.98 46.6907 L1081.98 72.576 L1074.52 72.576 L1074.52 65.6895 Q1071.97 69.8214 1068.16 71.8063 Q1064.35 73.7508 1058.85 73.7508 Q1051.88 73.7508 1047.75 69.8619 Q1043.65 65.9325 1043.65 59.3701 Q1043.65 51.7138 1048.76 47.825 Q1053.9 43.9361 1064.07 43.9361 L1074.52 43.9361 L1074.52 43.2069 Q1074.52 38.0623 1071.12 35.2672 Q1067.76 32.4315 1061.64 32.4315 Q1057.75 32.4315 1054.07 33.3632 Q1050.38 34.295 1046.98 36.1584 L1046.98 29.2718 Q1051.07 27.692 1054.92 26.9223 Q1058.76 26.1121 1062.41 26.1121 Q1072.25 26.1121 1077.12 31.2163 Q1081.98 36.3204 1081.98 46.6907 Z" fill="#000000" fill-rule="nonzero" fill-opacity="1" /><path clip-path="url(#clip370)" d="M1126.25 28.5427 L1126.25 35.5912 Q1123.09 33.9709 1119.69 33.1607 Q1116.29 32.3505 1112.64 32.3505 Q1107.09 32.3505 1104.3 34.0519 Q1101.54 35.7533 1101.54 39.156 Q1101.54 41.7486 1103.53 43.2475 Q1105.51 44.7058 1111.51 46.0426 L1114.06 46.6097 Q1122 48.3111 1125.32 51.4303 Q1128.68 54.509 1128.68 60.0587 Q1128.68 66.3781 1123.66 70.0644 Q1118.68 73.7508 1109.93 73.7508 Q1106.28 73.7508 1102.31 73.0216 Q1098.38 72.3329 1094.01 70.9151 L1094.01 63.2184 Q1098.14 65.3654 1102.15 66.4591 Q1106.16 67.5124 1110.09 67.5124 Q1115.36 67.5124 1118.19 65.73 Q1121.03 63.9071 1121.03 60.6258 Q1121.03 57.5877 1118.96 55.9673 Q1116.94 54.3469 1110.01 52.8481 L1107.42 52.2405 Q1100.49 50.7821 1097.41 47.7845 Q1094.33 44.7463 1094.33 39.4801 Q1094.33 33.0797 1098.87 29.5959 Q1103.41 26.1121 1111.75 26.1121 Q1115.88 26.1121 1119.53 26.7198 Q1123.17 27.3274 1126.25 28.5427 Z" fill="#000000" fill-rule="nonzero" fill-opacity="1" /><path clip-path="url(#clip370)" d="M1169.48 28.5427 L1169.48 35.5912 Q1166.32 33.9709 1162.91 33.1607 Q1159.51 32.3505 1155.86 32.3505 Q1150.31 32.3505 1147.52 34.0519 Q1144.77 35.7533 1144.77 39.156 Q1144.77 41.7486 1146.75 43.2475 Q1148.74 44.7058 1154.73 46.0426 L1157.28 46.6097 Q1165.22 48.3111 1168.54 51.4303 Q1171.91 54.509 1171.91 60.0587 Q1171.91 66.3781 1166.88 70.0644 Q1161.9 73.7508 1153.15 73.7508 Q1149.5 73.7508 1145.53 73.0216 Q1141.61 72.3329 1137.23 70.9151 L1137.23 63.2184 Q1141.36 65.3654 1145.37 66.4591 Q1149.38 67.5124 1153.31 67.5124 Q1158.58 67.5124 1161.41 65.73 Q1164.25 63.9071 1164.25 60.6258 Q1164.25 57.5877 1162.18 55.9673 Q1160.16 54.3469 1153.23 52.8481 L1150.64 52.2405 Q1143.71 50.7821 1140.63 47.7845 Q1137.55 44.7463 1137.55 39.4801 Q1137.55 33.0797 1142.09 29.5959 Q1146.63 26.1121 1154.97 26.1121 Q1159.11 26.1121 1162.75 26.7198 Q1166.4 27.3274 1169.48 28.5427 Z" fill="#000000" fill-rule="nonzero" fill-opacity="1" /><path clip-path="url(#clip370)" d="M1217.36 65.7705 L1217.36 89.8329 L1209.86 89.8329 L1209.86 27.2059 L1217.36 27.2059 L1217.36 34.0924 Q1219.71 30.0415 1223.27 28.0971 Q1226.88 26.1121 1231.86 26.1121 Q1240.12 26.1121 1245.27 32.6746 Q1250.45 39.2371 1250.45 49.9314 Q1250.45 60.6258 1245.27 67.1883 Q1240.12 73.7508 1231.86 73.7508 Q1226.88 73.7508 1223.27 71.8063 Q1219.71 69.8214 1217.36 65.7705 M1242.72 49.9314 Q1242.72 41.7081 1239.31 37.0496 Q1235.95 32.3505 1230.04 32.3505 Q1224.12 32.3505 1220.72 37.0496 Q1217.36 41.7081 1217.36 49.9314 Q1217.36 58.1548 1220.72 62.8538 Q1224.12 67.5124 1230.04 67.5124 Q1235.95 67.5124 1239.31 62.8538 Q1242.72 58.1548 1242.72 49.9314 Z" fill="#000000" fill-rule="nonzero" fill-opacity="1" /><path clip-path="url(#clip370)" d="M1280.39 32.4315 Q1274.39 32.4315 1270.91 37.1306 Q1267.43 41.7891 1267.43 49.9314 Q1267.43 58.0738 1270.87 62.7728 Q1274.35 67.4314 1280.39 67.4314 Q1286.34 67.4314 1289.83 62.7323 Q1293.31 58.0333 1293.31 49.9314 Q1293.31 41.8701 1289.83 37.1711 Q1286.34 32.4315 1280.39 32.4315 M1280.39 26.1121 Q1290.11 26.1121 1295.66 32.4315 Q1301.21 38.7509 1301.21 49.9314 Q1301.21 61.0714 1295.66 67.4314 Q1290.11 73.7508 1280.39 73.7508 Q1270.63 73.7508 1265.08 67.4314 Q1259.57 61.0714 1259.57 49.9314 Q1259.57 38.7509 1265.08 32.4315 Q1270.63 26.1121 1280.39 26.1121 Z" fill="#000000" fill-rule="nonzero" fill-opacity="1" /><path clip-path="url(#clip370)" d="M1342.49 28.5427 L1342.49 35.5912 Q1339.33 33.9709 1335.93 33.1607 Q1332.52 32.3505 1328.88 32.3505 Q1323.33 32.3505 1320.53 34.0519 Q1317.78 35.7533 1317.78 39.156 Q1317.78 41.7486 1319.76 43.2475 Q1321.75 44.7058 1327.74 46.0426 L1330.3 46.6097 Q1338.24 48.3111 1341.56 51.4303 Q1344.92 54.509 1344.92 60.0587 Q1344.92 66.3781 1339.9 70.0644 Q1334.91 73.7508 1326.16 73.7508 Q1322.52 73.7508 1318.55 73.0216 Q1314.62 72.3329 1310.24 70.9151 L1310.24 63.2184 Q1314.38 65.3654 1318.39 66.4591 Q1322.4 67.5124 1326.33 67.5124 Q1331.59 67.5124 1334.43 65.73 Q1337.26 63.9071 1337.26 60.6258 Q1337.26 57.5877 1335.2 55.9673 Q1333.17 54.3469 1326.25 52.8481 L1323.65 52.2405 Q1316.73 50.7821 1313.65 47.7845 Q1310.57 44.7463 1310.57 39.4801 Q1310.57 33.0797 1315.11 29.5959 Q1319.64 26.1121 1327.99 26.1121 Q1332.12 26.1121 1335.77 26.7198 Q1339.41 27.3274 1342.49 28.5427 Z" fill="#000000" fill-rule="nonzero" fill-opacity="1" /><path clip-path="url(#clip370)" d="M1356.79 27.2059 L1364.24 27.2059 L1364.24 72.576 L1356.79 72.576 L1356.79 27.2059 M1356.79 9.54393 L1364.24 9.54393 L1364.24 18.9825 L1356.79 18.9825 L1356.79 9.54393 Z" fill="#000000" fill-rule="nonzero" fill-opacity="1" /><path clip-path="url(#clip370)" d="M1387.21 14.324 L1387.21 27.2059 L1402.56 27.2059 L1402.56 32.9987 L1387.21 32.9987 L1387.21 57.6282 Q1387.21 63.1779 1388.71 64.7578 Q1390.25 66.3376 1394.91 66.3376 L1402.56 66.3376 L1402.56 72.576 L1394.91 72.576 Q1386.28 72.576 1383 69.3758 Q1379.72 66.1351 1379.72 57.6282 L1379.72 32.9987 L1374.25 32.9987 L1374.25 27.2059 L1379.72 27.2059 L1379.72 14.324 L1387.21 14.324 Z" fill="#000000" fill-rule="nonzero" fill-opacity="1" /><path clip-path="url(#clip370)" d="M1412.37 27.2059 L1419.82 27.2059 L1419.82 72.576 L1412.37 72.576 L1412.37 27.2059 M1412.37 9.54393 L1419.82 9.54393 L1419.82 18.9825 L1412.37 18.9825 L1412.37 9.54393 Z" fill="#000000" fill-rule="nonzero" fill-opacity="1" /><path clip-path="url(#clip370)" d="M1453 32.4315 Q1447 32.4315 1443.52 37.1306 Q1440.04 41.7891 1440.04 49.9314 Q1440.04 58.0738 1443.48 62.7728 Q1446.96 67.4314 1453 67.4314 Q1458.95 67.4314 1462.44 62.7323 Q1465.92 58.0333 1465.92 49.9314 Q1465.92 41.8701 1462.44 37.1711 Q1458.95 32.4315 1453 32.4315 M1453 26.1121 Q1462.72 26.1121 1468.27 32.4315 Q1473.82 38.7509 1473.82 49.9314 Q1473.82 61.0714 1468.27 67.4314 Q1462.72 73.7508 1453 73.7508 Q1443.24 73.7508 1437.69 67.4314 Q1432.18 61.0714 1432.18 49.9314 Q1432.18 38.7509 1437.69 32.4315 Q1443.24 26.1121 1453 26.1121 Z" fill="#000000" fill-rule="nonzero" fill-opacity="1" /><path clip-path="url(#clip370)" d="M1523.89 45.1919 L1523.89 72.576 L1516.44 72.576 L1516.44 45.4349 Q1516.44 38.994 1513.92 35.7938 Q1511.41 32.5936 1506.39 32.5936 Q1500.35 32.5936 1496.87 36.4419 Q1493.39 40.2903 1493.39 46.9338 L1493.39 72.576 L1485.89 72.576 L1485.89 27.2059 L1493.39 27.2059 L1493.39 34.2544 Q1496.06 30.163 1499.66 28.1376 Q1503.31 26.1121 1508.05 26.1121 Q1515.87 26.1121 1519.88 30.9732 Q1523.89 35.7938 1523.89 45.1919 Z" fill="#000000" fill-rule="nonzero" fill-opacity="1" /><path clip-path="url(#clip370)" d="M1585.75 49.7694 Q1576.71 49.7694 1573.23 51.8354 Q1569.75 53.9013 1569.75 58.8839 Q1569.75 62.8538 1572.34 65.2034 Q1574.97 67.5124 1579.47 67.5124 Q1585.67 67.5124 1589.39 63.1374 Q1593.16 58.7219 1593.16 51.4303 L1593.16 49.7694 L1585.75 49.7694 M1600.61 46.6907 L1600.61 72.576 L1593.16 72.576 L1593.16 65.6895 Q1590.61 69.8214 1586.8 71.8063 Q1582.99 73.7508 1577.48 73.7508 Q1570.52 73.7508 1566.38 69.8619 Q1562.29 65.9325 1562.29 59.3701 Q1562.29 51.7138 1567.4 47.825 Q1572.54 43.9361 1582.71 43.9361 L1593.16 43.9361 L1593.16 43.2069 Q1593.16 38.0623 1589.76 35.2672 Q1586.39 32.4315 1580.28 32.4315 Q1576.39 32.4315 1572.7 33.3632 Q1569.02 34.295 1565.61 36.1584 L1565.61 29.2718 Q1569.71 27.692 1573.55 26.9223 Q1577.4 26.1121 1581.05 26.1121 Q1590.89 26.1121 1595.75 31.2163 Q1600.61 36.3204 1600.61 46.6907 Z" fill="#000000" fill-rule="nonzero" fill-opacity="1" /><path clip-path="url(#clip370)" d="M1638.94 9.54393 L1638.94 15.7418 L1631.81 15.7418 Q1627.8 15.7418 1626.22 17.3622 Q1624.68 18.9825 1624.68 23.1955 L1624.68 27.2059 L1636.95 27.2059 L1636.95 32.9987 L1624.68 32.9987 L1624.68 72.576 L1617.18 72.576 L1617.18 32.9987 L1610.05 32.9987 L1610.05 27.2059 L1617.18 27.2059 L1617.18 24.0462 Q1617.18 16.471 1620.71 13.0277 Q1624.23 9.54393 1631.89 9.54393 L1638.94 9.54393 Z" fill="#000000" fill-rule="nonzero" fill-opacity="1" /><path clip-path="url(#clip370)" d="M1651.09 14.324 L1651.09 27.2059 L1666.44 27.2059 L1666.44 32.9987 L1651.09 32.9987 L1651.09 57.6282 Q1651.09 63.1779 1652.59 64.7578 Q1654.13 66.3376 1658.78 66.3376 L1666.44 66.3376 L1666.44 72.576 L1658.78 72.576 Q1650.16 72.576 1646.87 69.3758 Q1643.59 66.1351 1643.59 57.6282 L1643.59 32.9987 L1638.12 32.9987 L1638.12 27.2059 L1643.59 27.2059 L1643.59 14.324 L1651.09 14.324 Z" fill="#000000" fill-rule="nonzero" fill-opacity="1" /><path clip-path="url(#clip370)" d="M1715.05 48.0275 L1715.05 51.6733 L1680.78 51.6733 Q1681.27 59.3701 1685.4 63.421 Q1689.57 67.4314 1696.98 67.4314 Q1701.28 67.4314 1705.29 66.3781 Q1709.34 65.3249 1713.31 63.2184 L1713.31 70.267 Q1709.3 71.9684 1705.09 72.8596 Q1700.87 73.7508 1696.54 73.7508 Q1685.68 73.7508 1679.32 67.4314 Q1673 61.1119 1673 50.3365 Q1673 39.1965 1679 32.6746 Q1685.03 26.1121 1695.24 26.1121 Q1704.4 26.1121 1709.7 32.0264 Q1715.05 37.9003 1715.05 48.0275 M1707.6 45.84 Q1707.52 39.7232 1704.15 36.0774 Q1700.83 32.4315 1695.32 32.4315 Q1689.09 32.4315 1685.32 35.9558 Q1681.59 39.4801 1681.02 45.8805 L1707.6 45.84 Z" fill="#000000" fill-rule="nonzero" fill-opacity="1" /><path clip-path="url(#clip370)" d="M1753.58 34.1734 Q1752.32 33.4443 1750.82 33.1202 Q1749.36 32.7556 1747.58 32.7556 Q1741.26 32.7556 1737.86 36.8875 Q1734.5 40.9789 1734.5 48.6757 L1734.5 72.576 L1727 72.576 L1727 27.2059 L1734.5 27.2059 L1734.5 34.2544 Q1736.85 30.1225 1740.61 28.1376 Q1744.38 26.1121 1749.77 26.1121 Q1750.54 26.1121 1751.47 26.2337 Q1752.4 26.3147 1753.54 26.5172 L1753.58 34.1734 Z" fill="#000000" fill-rule="nonzero" fill-opacity="1" /><path clip-path="url(#clip370)" d="M1816.77 44.2197 Q1819.4 45.1109 1821.87 48.0275 Q1824.39 50.9442 1826.9 56.0483 L1835.2 72.576 L1826.41 72.576 L1818.67 57.061 Q1815.68 50.9847 1812.84 48.9997 Q1810.05 47.0148 1805.18 47.0148 L1796.27 47.0148 L1796.27 72.576 L1788.09 72.576 L1788.09 12.096 L1806.56 12.096 Q1816.93 12.096 1822.04 16.4305 Q1827.14 20.7649 1827.14 29.5149 Q1827.14 35.2267 1824.47 38.994 Q1821.83 42.7613 1816.77 44.2197 M1796.27 18.8205 L1796.27 40.2903 L1806.56 40.2903 Q1812.48 40.2903 1815.47 37.5762 Q1818.51 34.8216 1818.51 29.5149 Q1818.51 24.2082 1815.47 21.5346 Q1812.48 18.8205 1806.56 18.8205 L1796.27 18.8205 Z" fill="#000000" fill-rule="nonzero" fill-opacity="1" /><path clip-path="url(#clip370)" d="M1840.91 54.671 L1840.91 27.2059 L1848.37 27.2059 L1848.37 54.3874 Q1848.37 60.8284 1850.88 64.0691 Q1853.39 67.2693 1858.41 67.2693 Q1864.45 67.2693 1867.93 63.421 Q1871.46 59.5726 1871.46 52.9291 L1871.46 27.2059 L1878.91 27.2059 L1878.91 72.576 L1871.46 72.576 L1871.46 65.6084 Q1868.74 69.7404 1865.14 71.7658 Q1861.57 73.7508 1856.83 73.7508 Q1849.01 73.7508 1844.96 68.8897 Q1840.91 64.0286 1840.91 54.671 M1859.67 26.1121 L1859.67 26.1121 Z" fill="#000000" fill-rule="nonzero" fill-opacity="1" /><path clip-path="url(#clip370)" d="M1931.98 45.1919 L1931.98 72.576 L1924.52 72.576 L1924.52 45.4349 Q1924.52 38.994 1922.01 35.7938 Q1919.5 32.5936 1914.48 32.5936 Q1908.44 32.5936 1904.96 36.4419 Q1901.47 40.2903 1901.47 46.9338 L1901.47 72.576 L1893.98 72.576 L1893.98 27.2059 L1901.47 27.2059 L1901.47 34.2544 Q1904.15 30.163 1907.75 28.1376 Q1911.4 26.1121 1916.14 26.1121 Q1923.96 26.1121 1927.97 30.9732 Q1931.98 35.7938 1931.98 45.1919 Z" fill="#000000" fill-rule="nonzero" fill-opacity="1" /><path clip-path="url(#clip370)" d="M1948.75 62.2867 L1957.3 62.2867 L1957.3 72.576 L1948.75 72.576 L1948.75 62.2867 M1948.75 29.6769 L1957.3 29.6769 L1957.3 39.9662 L1948.75 39.9662 L1948.75 29.6769 Z" fill="#000000" fill-rule="nonzero" fill-opacity="1" /><path clip-path="url(#clip370)" d="M2003.64 65.6895 L2017.01 65.6895 L2017.01 19.5497 L2002.46 22.4663 L2002.46 15.0127 L2016.92 12.096 L2025.11 12.096 L2025.11 65.6895 L2038.48 65.6895 L2038.48 72.576 L2003.64 72.576 L2003.64 65.6895 Z" fill="#000000" fill-rule="nonzero" fill-opacity="1" /><polyline clip-path="url(#clip372)" style="stroke:#009af9; stroke-linecap:round; stroke-linejoin:round; stroke-width:8; stroke-opacity:1; fill:none" points="361.501,1364.19 366.334,1363.88 371.167,1362.97 376,1361.47 380.833,1359.37 385.666,1356.67 390.5,1353.38 395.333,1349.5 400.166,1345.02 404.999,1339.97 409.832,1334.34 414.665,1328.14 419.498,1321.37 424.332,1314.05 429.165,1306.17 433.998,1297.75 438.831,1288.8 443.664,1279.32 448.497,1269.33 453.33,1258.82 458.164,1247.83 462.997,1236.35 467.83,1224.39 472.663,1211.97 477.496,1199.1 482.329,1185.79 487.162,1172.06 491.996,1157.92 496.829,1143.39 501.662,1128.48 506.495,1113.21 511.328,1097.58 516.161,1081.61 520.994,1065.32 525.828,1048.74 530.661,1031.87 535.494,1014.73 540.327,997.332 545.16,979.698 549.993,961.841 554.826,943.784 559.66,925.547 564.493,907.145 569.326,888.596 574.159,869.919 578.992,851.133 583.825,832.257 588.658,813.307 593.492,794.305 598.325,775.269 603.158,756.221 607.991,737.18 612.824,718.165 617.657,699.194 622.49,680.28 627.324,661.448 632.157,642.717 636.99,624.108 641.823,605.639 646.656,587.33 651.489,569.19 656.322,551.243 661.156,533.506 665.989,516 670.822,498.742 675.655,481.751 680.488,465.041 685.321,448.623 690.154,432.519 694.988,416.746 699.821,401.32 704.654,386.256 709.487,371.572 714.32,357.274 719.153,343.381 723.986,329.907 728.82,316.866 733.653,304.272 738.486,292.138 743.319,280.475 748.152,269.29 752.985,258.598 757.818,248.411 762.652,238.738 767.485,229.591 772.318,220.979 777.151,212.906 781.984,205.381 786.817,198.413 791.65,192.01 796.484,186.179 801.317,180.925 806.15,176.254 810.983,172.167 815.816,168.67 820.649,165.767 825.482,163.462 830.316,161.756 835.149,160.653 839.982,160.151 844.815,160.251 849.648,160.953 854.481,162.257 859.314,164.162 864.148,166.666 868.981,169.767 873.814,173.46 878.647,177.742 883.48,182.609 888.313,188.057 893.147,194.079 897.98,200.67 902.813,207.823 907.646,215.531 912.479,223.787 917.312,232.582 922.145,241.907 926.979,251.752 931.812,262.107 936.645,272.965 941.478,284.313 946.311,296.14 951.144,308.433 955.977,321.179 960.811,334.366 965.644,347.982 970.477,362.014 975.31,376.448 980.143,391.267 984.976,406.458 989.809,422.003 994.643,437.888 999.476,454.1 1004.31,470.622 1009.14,487.436 1013.98,504.525 1018.81,521.871 1023.64,539.456 1028.47,557.264 1033.31,575.281 1038.14,593.486 1042.97,611.86 1047.81,630.383 1052.64,649.038 1057.47,667.803 1062.31,686.667 1067.14,705.608 1071.97,724.607 1076.81,743.643 1081.64,762.696 1086.47,781.748 1091.31,800.778 1096.14,819.776 1100.97,838.717 1105.8,857.581 1110.64,876.35 1115.47,895.003 1120.3,913.52 1125.14,931.889 1129.97,950.092 1134.8,968.107 1139.64,985.916 1144.47,1003.5 1149.3,1020.84 1154.14,1037.92 1158.97,1054.73 1163.8,1071.25 1168.64,1087.46 1173.47,1103.34 1178.3,1118.88 1183.14,1134.07 1187.97,1148.88 1192.8,1163.31 1197.63,1177.33 1202.47,1190.94 1207.3,1204.13 1212.13,1216.87 1216.97,1229.15 1221.8,1240.97 1226.63,1252.31 1231.47,1263.16 1236.3,1273.51 1241.13,1283.34 1245.97,1292.66 1250.8,1301.44 1255.63,1309.69 1260.47,1317.39 1265.3,1324.53 1270.13,1331.12 1274.96,1337.13 1279.8,1342.56 1284.63,1347.42 1289.46,1351.69 1294.3,1355.37 1299.13,1358.46 1303.96,1360.96 1308.8,1362.85 1313.63,1364.14 1318.46,1364.83 1323.3,1364.92 1328.13,1364.4 1332.96,1363.29 1337.8,1361.57 1342.63,1359.25 1347.46,1356.33 1352.3,1352.82 1357.13,1348.72 1361.96,1344.03 1366.79,1338.76 1371.63,1332.92 1376.46,1326.5 1381.29,1319.52 1386.13,1311.98 1390.96,1303.89 1395.79,1295.26 1400.63,1286.1 1405.46,1276.41 1410.29,1266.21 1415.13,1255.5 1419.96,1244.3 1424.79,1232.62 1429.63,1220.46 1434.46,1207.85 1439.29,1194.8 1444.12,1181.31 1448.96,1167.4 1453.79,1153.08 1458.62,1138.37 1463.46,1123.29 1468.29,1107.85 1473.12,1092.06 1477.96,1075.94 1482.79,1059.51 1487.62,1042.78 1492.46,1025.77 1497.29,1008.49 1502.12,990.977 1506.96,973.226 1511.79,955.264 1516.62,937.108 1521.46,918.779 1526.29,900.294 1531.12,881.673 1535.95,862.932 1540.79,844.087 1545.62,825.159 1550.45,806.17 1555.29,787.137 1560.12,768.081 1564.95,749.022 1569.79,729.972 1574.62,710.952 1579.45,691.984 1584.29,673.087 1589.12,654.281 1593.95,635.585 1598.79,617.016 1603.62,598.588 1608.45,580.323 1613.28,562.241 1618.12,544.36 1622.95,526.699 1627.78,509.276 1632.62,492.103 1637.45,475.198 1642.28,458.58 1647.12,442.267 1651.95,426.275 1656.78,410.622 1661.62,395.322 1666.45,380.384 1671.28,365.827 1676.12,351.668 1680.95,337.921 1685.78,324.599 1690.62,311.718 1695.45,299.286 1700.28,287.315 1705.11,275.819 1709.95,264.81 1714.78,254.3 1719.61,244.3 1724.45,234.82 1729.28,225.863 1734.11,217.443 1738.95,209.569 1743.78,202.248 1748.61,195.488 1753.45,189.298 1758.28,183.68 1763.11,178.639 1767.95,174.182 1772.78,170.314 1777.61,167.038 1782.44,164.36 1787.28,162.281 1792.11,160.8 1796.94,159.921 1801.78,159.645 1806.61,159.972 1811.44,160.903 1816.28,162.436 1821.11,164.569 1825.94,167.3 1830.78,170.626 1835.61,174.544 1840.44,179.051 1845.28,184.142 1850.11,189.811 1854.94,196.053 1859.78,202.863 1864.61,210.232 1869.44,218.154 1874.27,226.62 1879.11,235.622 1883.94,245.151 1888.77,255.198 1893.61,265.754 1898.44,276.806 1903.27,288.345 1908.11,300.356 1912.94,312.83 1917.77,325.754 1922.61,339.117 1927.44,352.904 1932.27,367.1 1937.11,381.691 1941.94,396.662 1946.77,411.997 1951.6,427.688 1956.44,443.713 1961.27,460.057 1966.1,476.704 1970.94,493.635 1975.77,510.833 1980.6,528.285 1985.44,545.974 1990.27,563.879 1995.1,581.983 1999.94,600.266 2004.77,618.71 2009.6,637.296 2014.44,656.013 2019.27,674.836 2024.1,693.747 2028.94,712.727 2033.77,731.754 2038.6,750.81 2043.43,769.879 2048.27,788.944 2053.1,807.983 2057.93,826.976 2062.77,845.904 2067.6,864.746 2072.43,883.483 2077.27,902.105 2082.1,920.588 2086.93,938.913 2091.77,957.06 2096.6,975.011 2101.43,992.748 2106.27,1010.25 2111.1,1027.52 2115.93,1044.51 2120.77,1061.23 2125.6,1077.65 2130.43,1093.74 2135.26,1109.51 2140.1,1124.93 2144.93,1139.99 2149.76,1154.67 2154.6,1168.96 2159.43,1182.84 2164.26,1196.3 2169.1,1209.33 2173.93,1221.91 2178.76,1234.03 2183.6,1245.68 2188.43,1256.84 2193.26,1267.51 2198.1,1277.68 2202.93,1287.32 2207.76,1296.45 2212.59,1305.04 2217.43,1313.09 2222.26,1320.59 2227.09,1327.52 2231.93,1333.89 2236.76,1339.69 2241.59,1344.92 2246.43,1349.56 2251.26,1353.61 2256.09,1357.07 2260.93,1359.94 2265.76,1362.21 2270.59,1363.88 2275.43,1364.94 2280.26,1365.41 2285.09,1365.27 2289.93,1364.52 2294.76,1363.18 "/>
<polyline clip-path="url(#clip372)" style="stroke:#e26f46; stroke-linecap:round; stroke-linejoin:round; stroke-width:8; stroke-opacity:1; fill:none" points="361.501,1364.19 366.334,1363.97 371.167,1363.32 376,1362.24 380.833,1360.72 385.666,1358.78 390.5,1356.39 395.333,1353.57 400.166,1350.32 404.999,1346.63 409.832,1342.5 414.665,1337.95 419.498,1332.96 424.332,1327.56 429.165,1321.73 433.998,1315.49 438.831,1308.83 443.664,1301.78 448.497,1294.32 453.33,1286.48 458.164,1278.24 462.997,1269.63 467.83,1260.66 472.663,1251.32 477.496,1241.63 482.329,1231.6 487.162,1221.24 491.996,1210.56 496.829,1199.57 501.662,1188.28 506.495,1176.69 511.328,1164.83 516.161,1152.7 520.994,1140.32 525.828,1127.7 530.661,1114.85 535.494,1101.77 540.327,1088.49 545.16,1075.01 549.993,1061.36 554.826,1047.55 559.66,1033.58 564.493,1019.48 569.326,1005.25 574.159,990.91 578.992,976.477 583.825,961.963 588.658,947.385 593.492,932.756 598.325,918.093 603.158,903.411 607.991,888.722 612.824,874.038 617.657,859.377 622.49,844.755 627.324,830.187 632.157,815.689 636.99,801.276 641.823,786.954 646.656,772.742 651.489,758.655 656.322,744.709 661.156,730.918 665.989,717.296 670.822,703.855 675.655,690.604 680.488,677.561 685.321,664.739 690.154,652.151 694.988,639.812 699.821,627.732 704.654,615.92 709.487,604.391 714.32,593.156 719.153,582.227 723.986,571.616 728.82,561.334 733.653,551.391 738.486,541.794 743.319,532.555 748.152,523.685 752.985,515.193 757.818,507.089 762.652,499.381 767.485,492.076 772.318,485.181 777.151,478.707 781.984,472.66 786.817,467.047 791.65,461.876 796.484,457.153 801.317,452.884 806.15,449.075 810.983,445.732 815.816,442.86 820.649,440.465 825.482,438.551 830.316,437.124 835.149,436.187 839.982,435.744 844.815,435.804 849.648,436.212 854.481,436.97 859.314,438.082 864.148,439.551 868.981,441.38 873.814,443.571 878.647,446.121 883.48,449.033 888.313,452.304 893.147,455.933 897.98,459.918 902.813,464.257 907.646,468.945 912.479,473.975 917.312,479.347 922.145,485.058 926.979,491.107 931.812,497.484 936.645,504.175 941.478,511.183 946.311,518.505 951.144,526.136 955.977,534.068 960.811,542.278 965.644,550.771 970.477,559.541 975.31,568.581 980.143,577.883 984.976,587.422 989.809,597.201 994.643,607.211 999.476,617.443 1004.31,627.891 1009.14,638.528 1013.98,649.354 1018.81,660.359 1023.64,671.534 1028.47,682.869 1033.31,694.343 1038.14,705.949 1042.97,717.678 1047.81,729.519 1052.64,741.46 1057.47,753.486 1062.31,765.584 1067.14,777.745 1071.97,789.958 1076.81,802.21 1081.64,814.487 1086.47,826.776 1091.31,839.067 1096.14,851.347 1100.97,863.605 1105.8,875.827 1110.64,888 1115.47,900.114 1120.3,912.155 1125.14,924.112 1129.97,935.973 1134.8,947.727 1139.64,959.361 1144.47,970.862 1149.3,982.219 1154.14,993.422 1158.97,1004.46 1163.8,1015.32 1168.64,1025.99 1173.47,1036.47 1178.3,1046.73 1183.14,1056.77 1187.97,1066.59 1192.8,1076.16 1197.63,1085.48 1202.47,1094.54 1207.3,1103.34 1212.13,1111.86 1216.97,1120.09 1221.8,1128.02 1226.63,1135.64 1231.47,1142.96 1236.3,1149.96 1241.13,1156.62 1245.97,1162.95 1250.8,1168.94 1255.63,1174.58 1260.47,1179.86 1265.3,1184.78 1270.13,1189.33 1274.96,1193.5 1279.8,1197.3 1284.63,1200.71 1289.46,1203.73 1294.3,1206.35 1299.13,1208.56 1303.96,1210.38 1308.8,1211.79 1313.63,1212.78 1318.46,1213.36 1323.3,1213.51 1328.13,1213.28 1332.96,1212.8 1337.8,1212.06 1342.63,1211.03 1347.46,1209.73 1352.3,1208.14 1357.13,1206.27 1361.96,1204.11 1366.79,1201.68 1371.63,1198.96 1376.46,1195.96 1381.29,1192.69 1386.13,1189.13 1390.96,1185.3 1395.79,1181.2 1400.63,1176.83 1405.46,1172.19 1410.29,1167.29 1415.13,1162.13 1419.96,1156.71 1424.79,1151.05 1429.63,1145.15 1434.46,1139.01 1439.29,1132.63 1444.12,1126.02 1448.96,1119.19 1453.79,1112.15 1458.62,1104.9 1463.46,1097.45 1468.29,1089.8 1473.12,1081.97 1477.96,1073.95 1482.79,1065.76 1487.62,1057.41 1492.46,1048.9 1497.29,1040.24 1502.12,1031.44 1506.96,1022.51 1511.79,1013.46 1516.62,1004.3 1521.46,995.034 1526.29,985.673 1531.12,976.226 1535.95,966.701 1540.79,957.107 1545.62,947.453 1550.45,937.755 1555.29,928.019 1560.12,918.253 1564.95,908.468 1569.79,898.672 1574.62,888.876 1579.45,879.089 1584.29,869.321 1589.12,859.583 1593.95,849.883 1598.79,840.232 1603.62,830.64 1608.45,821.117 1613.28,811.673 1618.12,802.318 1622.95,793.059 1627.78,783.903 1632.62,774.864 1637.45,765.949 1642.28,757.17 1647.12,748.536 1651.95,740.056 1656.78,731.74 1661.62,723.589 1666.45,715.615 1671.28,707.827 1676.12,700.235 1680.95,692.846 1685.78,685.669 1690.62,678.712 1695.45,671.983 1700.28,665.481 1705.11,659.219 1709.95,653.204 1714.78,647.443 1719.61,641.943 1724.45,636.71 1729.28,631.751 1734.11,627.07 1738.95,622.671 1743.78,618.561 1748.61,614.745 1753.45,611.23 1758.28,608.019 1763.11,605.119 1767.95,602.532 1772.78,600.262 1777.61,598.313 1782.44,596.689 1787.28,595.395 1792.11,594.432 1796.94,593.805 1801.78,593.516 1806.61,593.582 1811.44,593.844 1816.28,594.289 1821.11,594.918 1825.94,595.742 1830.78,596.763 1835.61,597.983 1840.44,599.402 1845.28,601.021 1850.11,602.839 1854.94,604.856 1859.78,607.071 1864.61,609.484 1869.44,612.094 1874.27,614.897 1879.11,617.894 1883.94,621.083 1888.77,624.459 1893.61,628.022 1898.44,631.768 1903.27,635.689 1908.11,639.786 1912.94,644.058 1917.77,648.501 1922.61,653.113 1927.44,657.888 1932.27,662.812 1937.11,667.89 1941.94,673.119 1946.77,678.495 1951.6,684.014 1956.44,689.672 1961.27,695.448 1966.1,701.348 1970.94,707.368 1975.77,713.504 1980.6,719.75 1985.44,726.101 1990.27,732.538 1995.1,739.063 1999.94,745.672 2004.77,752.359 2009.6,759.117 2014.44,765.942 2019.27,772.818 2024.1,779.742 2028.94,786.71 2033.77,793.714 2038.6,800.749 2043.43,807.807 2048.27,814.879 2053.1,821.957 2057.93,829.035 2062.77,836.108 2067.6,843.169 2072.43,850.209 2077.27,857.222 2082.1,864.2 2086.93,871.136 2091.77,878.023 2096.6,884.854 2101.43,891.623 2106.27,898.322 2111.1,904.946 2115.93,911.486 2120.77,917.936 2125.6,924.289 2130.43,930.538 2135.26,936.676 2140.1,942.702 2144.93,948.604 2149.76,954.378 2154.6,960.015 2159.43,965.51 2164.26,970.856 2169.1,976.055 2173.93,981.096 2178.76,985.972 2183.6,990.677 2188.43,995.206 2193.26,999.552 2198.1,1003.72 2202.93,1007.7 2207.76,1011.48 2212.59,1015.06 2217.43,1018.44 2222.26,1021.6 2227.09,1024.56 2231.93,1027.3 2236.76,1029.83 2241.59,1032.12 2246.43,1034.19 2251.26,1036.02 2256.09,1037.62 2260.93,1038.99 2265.76,1040.11 2270.59,1040.99 2275.43,1041.62 2280.26,1042 2285.09,1042.12 2289.93,1042.06 2294.76,1041.89 "/>
<polyline clip-path="url(#clip372)" style="stroke:#008000; stroke-linecap:round; stroke-linejoin:round; stroke-width:8; stroke-opacity:1; fill:none" stroke-dasharray="4, 8" points="361.501,1364.19 366.334,1363.61 371.167,1362.58 376,1361.09 380.833,1359.13 385.666,1356.7 390.5,1353.8 395.333,1350.41 400.166,1346.52 404.999,1342.15 409.832,1337.27 414.665,1331.89 419.498,1326 424.332,1319.61 429.165,1312.71 433.998,1305.29 438.831,1297.38 443.664,1288.95 448.497,1280.03 453.33,1270.61 458.164,1260.71 462.997,1250.33 467.83,1239.48 472.663,1228.17 477.496,1216.4 482.329,1204.22 487.162,1191.66 491.996,1178.75 496.829,1165.56 501.662,1152.13 506.495,1138.54 511.328,1124.89 516.161,1111.25 520.994,1097.67 525.828,1084.18 530.661,1070.81 535.494,1057.55 540.327,1044.42 545.16,1031.4 549.993,1018.47 554.826,1005.58 559.66,992.709 564.493,979.799 569.326,966.864 574.159,953.906 578.992,940.925 583.825,927.924 588.658,914.908 593.492,901.883 598.325,888.857 603.158,875.84 607.991,862.843 612.824,849.879 617.657,836.962 622.49,824.104 627.324,811.315 632.157,798.609 636.99,785.997 641.823,773.491 646.656,761.103 651.489,748.842 656.322,736.722 661.156,724.751 665.989,712.941 670.822,701.302 675.655,689.843 680.488,678.575 685.321,667.507 690.154,656.647 694.988,646.006 699.821,635.592 704.654,625.414 709.487,615.478 714.32,605.795 719.153,596.372 723.986,587.22 728.82,578.347 733.653,569.763 738.486,561.478 743.319,553.502 748.152,545.842 752.985,538.51 757.818,531.514 762.652,524.864 767.485,518.57 772.318,512.64 777.151,507.084 781.984,501.912 786.817,497.134 791.65,492.758 796.484,488.794 801.317,485.23 806.15,482.045 810.983,479.263 815.816,476.904 820.649,474.983 825.482,473.515 830.316,472.507 835.149,471.966 839.982,471.893 844.815,472.287 849.648,473.141 854.481,474.446 859.314,476.189 864.148,478.354 868.981,480.92 873.814,483.862 878.647,487.154 883.48,490.764 888.313,494.656 893.147,498.793 897.98,503.13 902.813,507.622 907.646,512.219 912.479,516.868 917.312,521.511 922.145,526.187 926.979,531.002 931.812,535.977 936.645,541.129 941.478,546.474 946.311,552.028 951.144,557.8 955.977,563.801 960.811,570.038 965.644,576.517 970.477,583.241 975.31,590.211 980.143,597.425 984.976,604.881 989.809,612.574 994.643,620.504 999.476,628.664 1004.31,637.048 1009.14,645.647 1013.98,654.453 1018.81,663.457 1023.64,672.65 1028.47,682.025 1033.31,691.572 1038.14,701.282 1042.97,711.146 1047.81,721.154 1052.64,731.298 1057.47,741.566 1062.31,751.95 1067.14,762.439 1071.97,773.023 1076.81,783.692 1081.64,794.436 1086.47,805.244 1091.31,816.104 1096.14,827.007 1100.97,837.94 1105.8,848.894 1110.64,859.855 1115.47,870.814 1120.3,881.757 1125.14,892.674 1129.97,903.553 1134.8,914.386 1139.64,925.164 1144.47,935.878 1149.3,946.516 1154.14,957.07 1158.97,967.529 1163.8,977.884 1168.64,988.126 1173.47,998.246 1178.3,1008.23 1183.14,1018.08 1187.97,1027.78 1192.8,1037.32 1197.63,1046.7 1202.47,1055.91 1207.3,1064.93 1212.13,1073.76 1216.97,1082.4 1221.8,1090.84 1226.63,1099.07 1231.47,1107.08 1236.3,1114.88 1241.13,1122.45 1245.97,1129.79 1250.8,1136.89 1255.63,1143.73 1260.47,1150.32 1265.3,1156.64 1270.13,1162.68 1274.96,1168.43 1279.8,1173.89 1284.63,1179.06 1289.46,1183.91 1294.3,1188.45 1299.13,1192.66 1303.96,1196.55 1308.8,1200.1 1313.63,1203.3 1318.46,1206.16 1323.3,1208.66 1328.13,1210.79 1332.96,1212.56 1337.8,1213.95 1342.63,1214.97 1347.46,1215.59 1352.3,1215.83 1357.13,1215.67 1361.96,1215.11 1366.79,1214.14 1371.63,1212.76 1376.46,1210.97 1381.29,1208.75 1386.13,1206.11 1390.96,1203.05 1395.79,1199.56 1400.63,1195.65 1405.46,1191.32 1410.29,1186.56 1415.13,1181.35 1419.96,1175.69 1424.79,1169.58 1429.63,1163.02 1434.46,1156.01 1439.29,1148.56 1444.12,1140.69 1448.96,1132.39 1453.79,1123.7 1458.62,1114.63 1463.46,1105.21 1468.29,1095.45 1473.12,1085.4 1477.96,1075.07 1482.79,1064.52 1487.62,1053.78 1492.46,1042.88 1497.29,1031.88 1502.12,1020.83 1506.96,1009.81 1511.79,998.904 1516.62,988.101 1521.46,977.397 1526.29,966.784 1531.12,956.257 1535.95,945.813 1540.79,935.447 1545.62,925.158 1550.45,914.942 1555.29,904.799 1560.12,894.729 1564.95,884.732 1569.79,874.809 1574.62,864.962 1579.45,855.195 1584.29,845.51 1589.12,835.912 1593.95,826.406 1598.79,816.999 1603.62,807.697 1608.45,798.508 1613.28,789.44 1618.12,780.502 1622.95,771.704 1627.78,763.056 1632.62,754.566 1637.45,746.245 1642.28,738.1 1647.12,730.14 1651.95,722.374 1656.78,714.81 1661.62,707.457 1666.45,700.32 1671.28,693.41 1676.12,686.733 1680.95,680.296 1685.78,674.106 1690.62,668.171 1695.45,662.497 1700.28,657.09 1705.11,651.958 1709.95,647.105 1714.78,642.539 1719.61,638.264 1724.45,634.287 1729.28,630.613 1734.11,627.247 1738.95,624.194 1743.78,621.459 1748.61,619.046 1753.45,616.964 1758.28,615.224 1763.11,613.805 1767.95,612.686 1772.78,611.846 1777.61,611.267 1782.44,610.932 1787.28,610.825 1792.11,610.931 1796.94,611.237 1801.78,611.732 1806.61,612.406 1811.44,613.251 1816.28,614.259 1821.11,615.424 1825.94,616.743 1830.78,618.213 1835.61,619.831 1840.44,621.599 1845.28,623.517 1850.11,625.59 1854.94,627.82 1859.78,630.215 1864.61,632.778 1869.44,635.516 1874.27,638.433 1879.11,641.535 1883.94,644.823 1888.77,648.303 1893.61,651.976 1898.44,655.844 1903.27,659.908 1908.11,664.169 1912.94,668.627 1917.77,673.281 1922.61,678.129 1927.44,683.17 1932.27,688.4 1937.11,693.816 1941.94,699.415 1946.77,705.19 1951.6,711.138 1956.44,717.251 1961.27,723.523 1966.1,729.947 1970.94,736.515 1975.77,743.219 1980.6,750.056 1985.44,757.017 1990.27,764.093 1995.1,771.277 1999.94,778.558 2004.77,785.93 2009.6,793.382 2014.44,800.906 2019.27,808.493 2024.1,816.135 2028.94,823.823 2033.77,831.547 2038.6,839.3 2043.43,847.072 2048.27,854.853 2053.1,862.637 2057.93,870.412 2062.77,878.171 2067.6,885.905 2072.43,893.604 2077.27,901.26 2082.1,908.863 2086.93,916.405 2091.77,923.877 2096.6,931.269 2101.43,938.572 2106.27,945.777 2111.1,952.876 2115.93,959.861 2120.77,966.727 2125.6,973.464 2130.43,980.065 2135.26,986.522 2140.1,992.825 2144.93,998.969 2149.76,1004.94 2154.6,1010.74 2159.43,1016.36 2164.26,1021.78 2169.1,1027.01 2173.93,1032.03 2178.76,1036.84 2183.6,1041.43 2188.43,1045.8 2193.26,1049.93 2198.1,1053.83 2202.93,1057.49 2207.76,1060.89 2212.59,1064.04 2217.43,1066.93 2222.26,1069.55 2227.09,1071.9 2231.93,1073.97 2236.76,1075.76 2241.59,1077.27 2246.43,1078.48 2251.26,1079.39 2256.09,1080 2260.93,1080.31 2265.76,1080.3 2270.59,1079.98 2275.43,1079.35 2280.26,1078.4 2285.09,1077.13 2289.93,1075.53 2294.76,1073.61 "/>
<path clip-path="url(#clip370)" d="M1444.66 477.116 L2284.45 477.116 L2284.45 166.076 L1444.66 166.076  Z" fill="#ffffff" fill-rule="evenodd" fill-opacity="1"/>
<polyline clip-path="url(#clip370)" style="stroke:#000000; stroke-linecap:round; stroke-linejoin:round; stroke-width:4; stroke-opacity:1; fill:none" points="1444.66,477.116 2284.45,477.116 2284.45,166.076 1444.66,166.076 1444.66,477.116 "/>
<polyline clip-path="url(#clip370)" style="stroke:#009af9; stroke-linecap:round; stroke-linejoin:round; stroke-width:12; stroke-opacity:1; fill:none" points="1467.43,243.836 1604.05,243.836 "/>
<path clip-path="url(#clip370)" d="M1660.19 219.617 L1660.19 226.457 Q1656.2 224.548 1652.65 223.61 Q1649.11 222.673 1645.81 222.673 Q1640.08 222.673 1636.96 224.895 Q1633.87 227.117 1633.87 231.214 Q1633.87 234.652 1635.92 236.423 Q1638 238.159 1643.76 239.235 L1648 240.103 Q1655.85 241.596 1659.56 245.381 Q1663.31 249.131 1663.31 255.45 Q1663.31 262.985 1658.24 266.874 Q1653.21 270.763 1643.45 270.763 Q1639.77 270.763 1635.6 269.929 Q1631.47 269.096 1627.03 267.464 L1627.03 260.242 Q1631.3 262.638 1635.4 263.853 Q1639.49 265.068 1643.45 265.068 Q1649.46 265.068 1652.72 262.707 Q1655.99 260.346 1655.99 255.971 Q1655.99 252.152 1653.63 249.999 Q1651.3 247.846 1645.95 246.77 L1641.68 245.936 Q1633.83 244.374 1630.33 241.041 Q1626.82 237.707 1626.82 231.77 Q1626.82 224.895 1631.65 220.937 Q1636.51 216.978 1645.01 216.978 Q1648.66 216.978 1652.45 217.638 Q1656.23 218.298 1660.19 219.617 Z" fill="#000000" fill-rule="nonzero" fill-opacity="1" /><path clip-path="url(#clip370)" d="M1673.97 230.867 L1680.36 230.867 L1680.36 269.756 L1673.97 269.756 L1673.97 230.867 M1673.97 215.728 L1680.36 215.728 L1680.36 223.818 L1673.97 223.818 L1673.97 215.728 Z" fill="#000000" fill-rule="nonzero" fill-opacity="1" /><path clip-path="url(#clip370)" d="M1724.01 238.332 Q1726.4 234.027 1729.74 231.978 Q1733.07 229.93 1737.58 229.93 Q1743.66 229.93 1746.96 234.2 Q1750.26 238.436 1750.26 246.284 L1750.26 269.756 L1743.83 269.756 L1743.83 246.492 Q1743.83 240.902 1741.85 238.193 Q1739.88 235.485 1735.81 235.485 Q1730.85 235.485 1727.97 238.784 Q1725.08 242.082 1725.08 247.777 L1725.08 269.756 L1718.66 269.756 L1718.66 246.492 Q1718.66 240.867 1716.68 238.193 Q1714.7 235.485 1710.57 235.485 Q1705.67 235.485 1702.79 238.818 Q1699.91 242.117 1699.91 247.777 L1699.91 269.756 L1693.49 269.756 L1693.49 230.867 L1699.91 230.867 L1699.91 236.909 Q1702.1 233.332 1705.15 231.631 Q1708.21 229.93 1712.41 229.93 Q1716.65 229.93 1719.6 232.082 Q1722.58 234.235 1724.01 238.332 Z" fill="#000000" fill-rule="nonzero" fill-opacity="1" /><path clip-path="url(#clip370)" d="M1769.18 263.922 L1769.18 284.547 L1762.76 284.547 L1762.76 230.867 L1769.18 230.867 L1769.18 236.77 Q1771.19 233.298 1774.25 231.631 Q1777.34 229.93 1781.61 229.93 Q1788.69 229.93 1793.1 235.555 Q1797.55 241.179 1797.55 250.346 Q1797.55 259.513 1793.1 265.138 Q1788.69 270.763 1781.61 270.763 Q1777.34 270.763 1774.25 269.096 Q1771.19 267.395 1769.18 263.922 M1790.92 250.346 Q1790.92 243.298 1788 239.304 Q1785.12 235.277 1780.05 235.277 Q1774.98 235.277 1772.06 239.304 Q1769.18 243.298 1769.18 250.346 Q1769.18 257.395 1772.06 261.422 Q1774.98 265.415 1780.05 265.415 Q1785.12 265.415 1788 261.422 Q1790.92 257.395 1790.92 250.346 Z" fill="#000000" fill-rule="nonzero" fill-opacity="1" /><path clip-path="url(#clip370)" d="M1808.14 215.728 L1814.53 215.728 L1814.53 269.756 L1808.14 269.756 L1808.14 215.728 Z" fill="#000000" fill-rule="nonzero" fill-opacity="1" /><path clip-path="url(#clip370)" d="M1861.16 248.714 L1861.16 251.839 L1831.78 251.839 Q1832.2 258.436 1835.74 261.909 Q1839.32 265.346 1845.67 265.346 Q1849.35 265.346 1852.79 264.443 Q1856.26 263.54 1859.67 261.735 L1859.67 267.777 Q1856.23 269.235 1852.62 269.999 Q1849.01 270.763 1845.29 270.763 Q1835.99 270.763 1830.53 265.346 Q1825.12 259.929 1825.12 250.693 Q1825.12 241.145 1830.26 235.555 Q1835.43 229.93 1844.18 229.93 Q1852.03 229.93 1856.58 234.999 Q1861.16 240.034 1861.16 248.714 M1854.77 246.839 Q1854.7 241.596 1851.82 238.471 Q1848.97 235.346 1844.25 235.346 Q1838.9 235.346 1835.67 238.367 Q1832.48 241.388 1831.99 246.874 L1854.77 246.839 Z" fill="#000000" fill-rule="nonzero" fill-opacity="1" /><path clip-path="url(#clip370)" d="M1871.92 217.916 L1901.71 217.916 L1901.71 223.818 L1878.94 223.818 L1878.94 239.096 L1899.49 239.096 L1899.49 244.999 L1878.94 244.999 L1878.94 269.756 L1871.92 269.756 L1871.92 217.916 Z" fill="#000000" fill-rule="nonzero" fill-opacity="1" /><path clip-path="url(#clip370)" d="M1912.83 217.916 L1923.28 217.916 L1936.51 253.193 L1949.8 217.916 L1960.26 217.916 L1960.26 269.756 L1953.42 269.756 L1953.42 224.235 L1940.05 259.79 L1933 259.79 L1919.63 224.235 L1919.63 269.756 L1912.83 269.756 L1912.83 217.916 Z" fill="#000000" fill-rule="nonzero" fill-opacity="1" /><path clip-path="url(#clip370)" d="M1973.38 217.916 L1980.43 217.916 L1980.43 249.409 Q1980.43 257.742 1983.45 261.422 Q1986.47 265.068 1993.24 265.068 Q1999.98 265.068 2003 261.422 Q2006.02 257.742 2006.02 249.409 L2006.02 217.916 L2013.07 217.916 L2013.07 250.277 Q2013.07 260.415 2008.03 265.589 Q2003.03 270.763 1993.24 270.763 Q1983.42 270.763 1978.38 265.589 Q1973.38 260.415 1973.38 250.277 L1973.38 217.916 Z" fill="#000000" fill-rule="nonzero" fill-opacity="1" /><polyline clip-path="url(#clip370)" style="stroke:#e26f46; stroke-linecap:round; stroke-linejoin:round; stroke-width:12; stroke-opacity:1; fill:none" points="1467.43,321.596 1604.05,321.596 "/>
<path clip-path="url(#clip370)" d="M1651.4 323.21 Q1653.66 323.974 1655.78 326.474 Q1657.93 328.974 1660.08 333.349 L1667.2 347.516 L1659.67 347.516 L1653.04 334.217 Q1650.47 329.009 1648.04 327.307 Q1645.64 325.606 1641.47 325.606 L1633.83 325.606 L1633.83 347.516 L1626.82 347.516 L1626.82 295.676 L1642.65 295.676 Q1651.54 295.676 1655.92 299.391 Q1660.29 303.106 1660.29 310.606 Q1660.29 315.502 1658 318.731 Q1655.74 321.96 1651.4 323.21 M1633.83 301.44 L1633.83 319.842 L1642.65 319.842 Q1647.72 319.842 1650.29 317.516 Q1652.9 315.155 1652.9 310.606 Q1652.9 306.058 1650.29 303.766 Q1647.72 301.44 1642.65 301.44 L1633.83 301.44 Z" fill="#000000" fill-rule="nonzero" fill-opacity="1" /><path clip-path="url(#clip370)" d="M1706.02 326.474 L1706.02 329.599 L1676.65 329.599 Q1677.06 336.196 1680.6 339.669 Q1684.18 343.106 1690.54 343.106 Q1694.22 343.106 1697.65 342.203 Q1701.13 341.3 1704.53 339.495 L1704.53 345.537 Q1701.09 346.995 1697.48 347.759 Q1693.87 348.523 1690.15 348.523 Q1680.85 348.523 1675.4 343.106 Q1669.98 337.689 1669.98 328.453 Q1669.98 318.905 1675.12 313.315 Q1680.29 307.69 1689.04 307.69 Q1696.89 307.69 1701.44 312.759 Q1706.02 317.794 1706.02 326.474 M1699.63 324.599 Q1699.56 319.356 1696.68 316.231 Q1693.83 313.106 1689.11 313.106 Q1683.76 313.106 1680.54 316.127 Q1677.34 319.148 1676.85 324.634 L1699.63 324.599 Z" fill="#000000" fill-rule="nonzero" fill-opacity="1" /><path clip-path="url(#clip370)" d="M1736.19 293.488 L1736.19 298.801 L1730.08 298.801 Q1726.65 298.801 1725.29 300.19 Q1723.97 301.578 1723.97 305.19 L1723.97 308.627 L1734.49 308.627 L1734.49 313.592 L1723.97 313.592 L1723.97 347.516 L1717.55 347.516 L1717.55 313.592 L1711.44 313.592 L1711.44 308.627 L1717.55 308.627 L1717.55 305.919 Q1717.55 299.426 1720.57 296.474 Q1723.59 293.488 1730.15 293.488 L1736.19 293.488 Z" fill="#000000" fill-rule="nonzero" fill-opacity="1" /><path clip-path="url(#clip370)" d="M1774.81 326.474 L1774.81 329.599 L1745.43 329.599 Q1745.85 336.196 1749.39 339.669 Q1752.97 343.106 1759.32 343.106 Q1763 343.106 1766.44 342.203 Q1769.91 341.3 1773.31 339.495 L1773.31 345.537 Q1769.88 346.995 1766.26 347.759 Q1762.65 348.523 1758.94 348.523 Q1749.63 348.523 1744.18 343.106 Q1738.76 337.689 1738.76 328.453 Q1738.76 318.905 1743.9 313.315 Q1749.08 307.69 1757.83 307.69 Q1765.67 307.69 1770.22 312.759 Q1774.81 317.794 1774.81 326.474 M1768.42 324.599 Q1768.35 319.356 1765.47 316.231 Q1762.62 313.106 1757.9 313.106 Q1752.55 313.106 1749.32 316.127 Q1746.13 319.148 1745.64 324.634 L1768.42 324.599 Z" fill="#000000" fill-rule="nonzero" fill-opacity="1" /><path clip-path="url(#clip370)" d="M1807.83 314.599 Q1806.75 313.974 1805.47 313.696 Q1804.22 313.384 1802.69 313.384 Q1797.27 313.384 1794.35 316.926 Q1791.47 320.433 1791.47 327.03 L1791.47 347.516 L1785.05 347.516 L1785.05 308.627 L1791.47 308.627 L1791.47 314.669 Q1793.49 311.127 1796.72 309.426 Q1799.94 307.69 1804.56 307.69 Q1805.22 307.69 1806.02 307.794 Q1806.82 307.863 1807.79 308.037 L1807.83 314.599 Z" fill="#000000" fill-rule="nonzero" fill-opacity="1" /><path clip-path="url(#clip370)" d="M1846.23 326.474 L1846.23 329.599 L1816.85 329.599 Q1817.27 336.196 1820.81 339.669 Q1824.39 343.106 1830.74 343.106 Q1834.42 343.106 1837.86 342.203 Q1841.33 341.3 1844.74 339.495 L1844.74 345.537 Q1841.3 346.995 1837.69 347.759 Q1834.08 348.523 1830.36 348.523 Q1821.06 348.523 1815.6 343.106 Q1810.19 337.689 1810.19 328.453 Q1810.19 318.905 1815.33 313.315 Q1820.5 307.69 1829.25 307.69 Q1837.1 307.69 1841.65 312.759 Q1846.23 317.794 1846.23 326.474 M1839.84 324.599 Q1839.77 319.356 1836.89 316.231 Q1834.04 313.106 1829.32 313.106 Q1823.97 313.106 1820.74 316.127 Q1817.55 319.148 1817.06 324.634 L1839.84 324.599 Z" fill="#000000" fill-rule="nonzero" fill-opacity="1" /><path clip-path="url(#clip370)" d="M1889.04 324.044 L1889.04 347.516 L1882.65 347.516 L1882.65 324.252 Q1882.65 318.731 1880.5 315.988 Q1878.35 313.245 1874.04 313.245 Q1868.87 313.245 1865.88 316.544 Q1862.9 319.842 1862.9 325.537 L1862.9 347.516 L1856.47 347.516 L1856.47 308.627 L1862.9 308.627 L1862.9 314.669 Q1865.19 311.162 1868.28 309.426 Q1871.4 307.69 1875.46 307.69 Q1882.17 307.69 1885.6 311.856 Q1889.04 315.988 1889.04 324.044 Z" fill="#000000" fill-rule="nonzero" fill-opacity="1" /><path clip-path="url(#clip370)" d="M1929.77 310.12 L1929.77 316.092 Q1927.06 314.599 1924.32 313.87 Q1921.61 313.106 1918.83 313.106 Q1912.62 313.106 1909.18 317.064 Q1905.74 320.988 1905.74 328.106 Q1905.74 335.224 1909.18 339.182 Q1912.62 343.106 1918.83 343.106 Q1921.61 343.106 1924.32 342.377 Q1927.06 341.613 1929.77 340.12 L1929.77 346.023 Q1927.1 347.273 1924.21 347.898 Q1921.37 348.523 1918.14 348.523 Q1909.35 348.523 1904.18 343.002 Q1899.01 337.481 1899.01 328.106 Q1899.01 318.592 1904.21 313.141 Q1909.46 307.69 1918.55 307.69 Q1921.51 307.69 1924.32 308.315 Q1927.13 308.905 1929.77 310.12 Z" fill="#000000" fill-rule="nonzero" fill-opacity="1" /><path clip-path="url(#clip370)" d="M1974.14 326.474 L1974.14 329.599 L1944.77 329.599 Q1945.19 336.196 1948.73 339.669 Q1952.3 343.106 1958.66 343.106 Q1962.34 343.106 1965.78 342.203 Q1969.25 341.3 1972.65 339.495 L1972.65 345.537 Q1969.21 346.995 1965.6 347.759 Q1961.99 348.523 1958.28 348.523 Q1948.97 348.523 1943.52 343.106 Q1938.1 337.689 1938.1 328.453 Q1938.1 318.905 1943.24 313.315 Q1948.42 307.69 1957.17 307.69 Q1965.01 307.69 1969.56 312.759 Q1974.14 317.794 1974.14 326.474 M1967.76 324.599 Q1967.69 319.356 1964.8 316.231 Q1961.96 313.106 1957.24 313.106 Q1951.89 313.106 1948.66 316.127 Q1945.46 319.148 1944.98 324.634 L1967.76 324.599 Z" fill="#000000" fill-rule="nonzero" fill-opacity="1" /><polyline clip-path="url(#clip370)" style="stroke:#008000; stroke-linecap:round; stroke-linejoin:round; stroke-width:12; stroke-opacity:1; fill:none" stroke-dasharray="6, 12" points="1467.43,399.356 1604.05,399.356 "/>
<path clip-path="url(#clip370)" d="M1626.82 373.436 L1636.26 373.436 L1659.25 416.804 L1659.25 373.436 L1666.06 373.436 L1666.06 425.276 L1656.61 425.276 L1633.63 381.908 L1633.63 425.276 L1626.82 425.276 L1626.82 373.436 Z" fill="#000000" fill-rule="nonzero" fill-opacity="1" /><path clip-path="url(#clip370)" d="M1713 404.234 L1713 407.359 L1683.63 407.359 Q1684.04 413.956 1687.58 417.429 Q1691.16 420.866 1697.51 420.866 Q1701.19 420.866 1704.63 419.963 Q1708.1 419.06 1711.51 417.255 L1711.51 423.297 Q1708.07 424.755 1704.46 425.519 Q1700.85 426.283 1697.13 426.283 Q1687.83 426.283 1682.38 420.866 Q1676.96 415.449 1676.96 406.213 Q1676.96 396.665 1682.1 391.075 Q1687.27 385.45 1696.02 385.45 Q1703.87 385.45 1708.42 390.519 Q1713 395.554 1713 404.234 M1706.61 402.359 Q1706.54 397.116 1703.66 393.991 Q1700.81 390.866 1696.09 390.866 Q1690.74 390.866 1687.51 393.887 Q1684.32 396.908 1683.83 402.394 L1706.61 402.359 Z" fill="#000000" fill-rule="nonzero" fill-opacity="1" /><path clip-path="url(#clip370)" d="M1722.83 409.929 L1722.83 386.387 L1729.22 386.387 L1729.22 409.686 Q1729.22 415.206 1731.37 417.984 Q1733.52 420.727 1737.83 420.727 Q1743 420.727 1745.99 417.429 Q1749.01 414.13 1749.01 408.436 L1749.01 386.387 L1755.4 386.387 L1755.4 425.276 L1749.01 425.276 L1749.01 419.304 Q1746.68 422.845 1743.59 424.581 Q1740.53 426.283 1736.47 426.283 Q1729.77 426.283 1726.3 422.116 Q1722.83 417.949 1722.83 409.929 M1738.9 385.45 L1738.9 385.45 Z" fill="#000000" fill-rule="nonzero" fill-opacity="1" /><path clip-path="url(#clip370)" d="M1791.09 392.359 Q1790.01 391.734 1788.73 391.456 Q1787.48 391.144 1785.95 391.144 Q1780.53 391.144 1777.62 394.686 Q1774.74 398.193 1774.74 404.79 L1774.74 425.276 L1768.31 425.276 L1768.31 386.387 L1774.74 386.387 L1774.74 392.429 Q1776.75 388.887 1779.98 387.186 Q1783.21 385.45 1787.83 385.45 Q1788.49 385.45 1789.28 385.554 Q1790.08 385.623 1791.06 385.797 L1791.09 392.359 Z" fill="#000000" fill-rule="nonzero" fill-opacity="1" /><path clip-path="url(#clip370)" d="M1815.47 405.727 Q1807.72 405.727 1804.74 407.498 Q1801.75 409.269 1801.75 413.54 Q1801.75 416.942 1803.97 418.956 Q1806.23 420.935 1810.08 420.935 Q1815.4 420.935 1818.59 417.185 Q1821.82 413.401 1821.82 407.151 L1821.82 405.727 L1815.47 405.727 M1828.21 403.088 L1828.21 425.276 L1821.82 425.276 L1821.82 419.373 Q1819.63 422.915 1816.37 424.616 Q1813.1 426.283 1808.38 426.283 Q1802.41 426.283 1798.87 422.949 Q1795.36 419.581 1795.36 413.956 Q1795.36 407.394 1799.74 404.061 Q1804.15 400.727 1812.86 400.727 L1821.82 400.727 L1821.82 400.102 Q1821.82 395.693 1818.9 393.297 Q1816.02 390.866 1810.78 390.866 Q1807.44 390.866 1804.28 391.665 Q1801.12 392.463 1798.21 394.061 L1798.21 388.158 Q1801.72 386.804 1805.01 386.144 Q1808.31 385.45 1811.44 385.45 Q1819.87 385.45 1824.04 389.825 Q1828.21 394.199 1828.21 403.088 Z" fill="#000000" fill-rule="nonzero" fill-opacity="1" /><path clip-path="url(#clip370)" d="M1841.37 371.248 L1847.76 371.248 L1847.76 425.276 L1841.37 425.276 L1841.37 371.248 Z" fill="#000000" fill-rule="nonzero" fill-opacity="1" /><path clip-path="url(#clip370)" d="M1861.4 373.436 L1891.19 373.436 L1891.19 379.338 L1868.42 379.338 L1868.42 394.616 L1888.97 394.616 L1888.97 400.519 L1868.42 400.519 L1868.42 425.276 L1861.4 425.276 L1861.4 373.436 Z" fill="#000000" fill-rule="nonzero" fill-opacity="1" /><path clip-path="url(#clip370)" d="M1902.3 373.436 L1912.76 373.436 L1925.99 408.713 L1939.28 373.436 L1949.74 373.436 L1949.74 425.276 L1942.89 425.276 L1942.89 379.755 L1929.53 415.31 L1922.48 415.31 L1909.11 379.755 L1909.11 425.276 L1902.3 425.276 L1902.3 373.436 Z" fill="#000000" fill-rule="nonzero" fill-opacity="1" /><path clip-path="url(#clip370)" d="M1962.86 373.436 L1969.91 373.436 L1969.91 404.929 Q1969.91 413.262 1972.93 416.942 Q1975.95 420.588 1982.72 420.588 Q1989.46 420.588 1992.48 416.942 Q1995.5 413.262 1995.5 404.929 L1995.5 373.436 L2002.55 373.436 L2002.55 405.797 Q2002.55 415.935 1997.51 421.109 Q1992.51 426.283 1982.72 426.283 Q1972.89 426.283 1967.86 421.109 Q1962.86 415.935 1962.86 405.797 L1962.86 373.436 Z" fill="#000000" fill-rule="nonzero" fill-opacity="1" /><path clip-path="url(#clip370)" d="M2053.38 371.318 Q2048.73 379.304 2046.47 387.116 Q2044.21 394.929 2044.21 402.949 Q2044.21 410.97 2046.47 418.852 Q2048.76 426.699 2053.38 434.651 L2047.82 434.651 Q2042.62 426.491 2040.01 418.609 Q2037.44 410.727 2037.44 402.949 Q2037.44 395.206 2040.01 387.359 Q2042.58 379.512 2047.82 371.318 L2053.38 371.318 Z" fill="#000000" fill-rule="nonzero" fill-opacity="1" /><path clip-path="url(#clip370)" d="M2072.72 419.373 L2097.2 419.373 L2097.2 425.276 L2064.28 425.276 L2064.28 419.373 Q2068.28 415.241 2075.15 408.297 Q2082.06 401.318 2083.83 399.304 Q2087.2 395.519 2088.52 392.915 Q2089.87 390.276 2089.87 387.741 Q2089.87 383.609 2086.96 381.005 Q2084.07 378.401 2079.42 378.401 Q2076.12 378.401 2072.44 379.547 Q2068.8 380.693 2064.63 383.019 L2064.63 375.936 Q2068.87 374.234 2072.55 373.366 Q2076.23 372.498 2079.28 372.498 Q2087.34 372.498 2092.13 376.526 Q2096.92 380.554 2096.92 387.29 Q2096.92 390.484 2095.71 393.366 Q2094.53 396.213 2091.37 400.102 Q2090.5 401.109 2085.85 405.936 Q2081.19 410.727 2072.72 419.373 Z" fill="#000000" fill-rule="nonzero" fill-opacity="1" /><path clip-path="url(#clip370)" d="M2111.99 373.436 L2139.53 373.436 L2139.53 379.338 L2118.41 379.338 L2118.41 392.047 Q2119.94 391.526 2121.47 391.283 Q2123 391.005 2124.53 391.005 Q2133.21 391.005 2138.28 395.762 Q2143.35 400.519 2143.35 408.644 Q2143.35 417.012 2138.14 421.665 Q2132.93 426.283 2123.45 426.283 Q2120.19 426.283 2116.78 425.727 Q2113.41 425.172 2109.8 424.06 L2109.8 417.012 Q2112.93 418.713 2116.26 419.547 Q2119.6 420.38 2123.31 420.38 Q2129.32 420.38 2132.82 417.22 Q2136.33 414.06 2136.33 408.644 Q2136.33 403.227 2132.82 400.068 Q2129.32 396.908 2123.31 396.908 Q2120.5 396.908 2117.69 397.533 Q2114.91 398.158 2111.99 399.477 L2111.99 373.436 Z" fill="#000000" fill-rule="nonzero" fill-opacity="1" /><path clip-path="url(#clip370)" d="M2172.16 378.054 Q2166.75 378.054 2164 383.401 Q2161.3 388.713 2161.3 399.408 Q2161.3 410.067 2164 415.415 Q2166.75 420.727 2172.16 420.727 Q2177.62 420.727 2180.32 415.415 Q2183.07 410.067 2183.07 399.408 Q2183.07 388.713 2180.32 383.401 Q2177.62 378.054 2172.16 378.054 M2172.16 372.498 Q2180.88 372.498 2185.46 379.408 Q2190.08 386.283 2190.08 399.408 Q2190.08 412.498 2185.46 419.408 Q2180.88 426.283 2172.16 426.283 Q2163.45 426.283 2158.83 419.408 Q2154.25 412.498 2154.25 399.408 Q2154.25 386.283 2158.83 379.408 Q2163.45 372.498 2172.16 372.498 Z" fill="#000000" fill-rule="nonzero" fill-opacity="1" /><path clip-path="url(#clip370)" d="M2217.41 378.054 Q2211.99 378.054 2209.25 383.401 Q2206.54 388.713 2206.54 399.408 Q2206.54 410.067 2209.25 415.415 Q2211.99 420.727 2217.41 420.727 Q2222.86 420.727 2225.57 415.415 Q2228.31 410.067 2228.31 399.408 Q2228.31 388.713 2225.57 383.401 Q2222.86 378.054 2217.41 378.054 M2217.41 372.498 Q2226.12 372.498 2230.71 379.408 Q2235.32 386.283 2235.32 399.408 Q2235.32 412.498 2230.71 419.408 Q2226.12 426.283 2217.41 426.283 Q2208.69 426.283 2204.07 419.408 Q2199.49 412.498 2199.49 399.408 Q2199.49 386.283 2204.07 379.408 Q2208.69 372.498 2217.41 372.498 Z" fill="#000000" fill-rule="nonzero" fill-opacity="1" /><path clip-path="url(#clip370)" d="M2245.74 371.318 L2251.3 371.318 Q2256.5 379.512 2259.07 387.359 Q2261.68 395.206 2261.68 402.949 Q2261.68 410.727 2259.07 418.609 Q2256.5 426.491 2251.3 434.651 L2245.74 434.651 Q2250.36 426.699 2252.62 418.852 Q2254.91 410.97 2254.91 402.949 Q2254.91 394.929 2252.62 387.116 Q2250.36 379.304 2245.74 371.318 Z" fill="#000000" fill-rule="nonzero" fill-opacity="1" /></svg>
