<?xml version="1.0" encoding="utf-8"?>
<svg xmlns="http://www.w3.org/2000/svg" xmlns:xlink="http://www.w3.org/1999/xlink" width="600" height="400" viewBox="0 0 2400 1600">
<defs>
  <clipPath id="clip110">
    <rect x="0" y="0" width="2400" height="1600"/>
  </clipPath>
</defs>
<path clip-path="url(#clip110)" d="M0 1600 L2400 1600 L2400 0 L0 0  Z" fill="#ffffff" fill-rule="evenodd" fill-opacity="1"/>
<defs>
  <clipPath id="clip111">
    <rect x="480" y="0" width="1681" height="1600"/>
  </clipPath>
</defs>
<path clip-path="url(#clip110)" d="M247.878 1401.58 L2352.76 1401.58 L2352.76 123.472 L247.878 123.472  Z" fill="#ffffff" fill-rule="evenodd" fill-opacity="1"/>
<defs>
  <clipPath id="clip112">
    <rect x="247" y="123" width="2106" height="1279"/>
  </clipPath>
</defs>
<polyline clip-path="url(#clip112)" style="stroke:#000000; stroke-linecap:round; stroke-linejoin:round; stroke-width:2; stroke-opacity:0.1; fill:none" points="458.366,1401.58 458.366,123.472 "/>
<polyline clip-path="url(#clip112)" style="stroke:#000000; stroke-linecap:round; stroke-linejoin:round; stroke-width:2; stroke-opacity:0.1; fill:none" points="879.342,1401.58 879.342,123.472 "/>
<polyline clip-path="url(#clip112)" style="stroke:#000000; stroke-linecap:round; stroke-linejoin:round; stroke-width:2; stroke-opacity:0.1; fill:none" points="1300.32,1401.58 1300.32,123.472 "/>
<polyline clip-path="url(#clip112)" style="stroke:#000000; stroke-linecap:round; stroke-linejoin:round; stroke-width:2; stroke-opacity:0.1; fill:none" points="1721.29,1401.58 1721.29,123.472 "/>
<polyline clip-path="url(#clip112)" style="stroke:#000000; stroke-linecap:round; stroke-linejoin:round; stroke-width:2; stroke-opacity:0.1; fill:none" points="2142.27,1401.58 2142.27,123.472 "/>
<polyline clip-path="url(#clip110)" style="stroke:#000000; stroke-linecap:round; stroke-linejoin:round; stroke-width:4; stroke-opacity:1; fill:none" points="247.878,1401.58 2352.76,1401.58 "/>
<polyline clip-path="url(#clip110)" style="stroke:#000000; stroke-linecap:round; stroke-linejoin:round; stroke-width:4; stroke-opacity:1; fill:none" points="458.366,1401.58 458.366,1382.68 "/>
<polyline clip-path="url(#clip110)" style="stroke:#000000; stroke-linecap:round; stroke-linejoin:round; stroke-width:4; stroke-opacity:1; fill:none" points="879.342,1401.58 879.342,1382.68 "/>
<polyline clip-path="url(#clip110)" style="stroke:#000000; stroke-linecap:round; stroke-linejoin:round; stroke-width:4; stroke-opacity:1; fill:none" points="1300.32,1401.58 1300.32,1382.68 "/>
<polyline clip-path="url(#clip110)" style="stroke:#000000; stroke-linecap:round; stroke-linejoin:round; stroke-width:4; stroke-opacity:1; fill:none" points="1721.29,1401.58 1721.29,1382.68 "/>
<polyline clip-path="url(#clip110)" style="stroke:#000000; stroke-linecap:round; stroke-linejoin:round; stroke-width:4; stroke-opacity:1; fill:none" points="2142.27,1401.58 2142.27,1382.68 "/>
<path clip-path="url(#clip110)" d="M378.158 1460.34 L422.672 1460.34 L422.672 1466.24 L378.158 1466.24 L378.158 1460.34 Z" fill="#000000" fill-rule="nonzero" fill-opacity="1" /><path clip-path="url(#clip110)" d="M439.026 1479.68 L450.484 1479.68 L450.484 1440.13 L438.019 1442.63 L438.019 1436.24 L450.415 1433.74 L457.429 1433.74 L457.429 1479.68 L468.887 1479.68 L468.887 1485.58 L439.026 1485.58 L439.026 1479.68 Z" fill="#000000" fill-rule="nonzero" fill-opacity="1" /><path clip-path="url(#clip110)" d="M483.053 1476.76 L490.38 1476.76 L490.38 1485.58 L483.053 1485.58 L483.053 1476.76 Z" fill="#000000" fill-rule="nonzero" fill-opacity="1" /><path clip-path="url(#clip110)" d="M520.657 1438.36 Q515.241 1438.36 512.498 1443.71 Q509.789 1449.02 509.789 1459.71 Q509.789 1470.37 512.498 1475.72 Q515.241 1481.03 520.657 1481.03 Q526.109 1481.03 528.817 1475.72 Q531.56 1470.37 531.56 1459.71 Q531.56 1449.02 528.817 1443.71 Q526.109 1438.36 520.657 1438.36 M520.657 1432.8 Q529.373 1432.8 533.956 1439.71 Q538.574 1446.59 538.574 1459.71 Q538.574 1472.8 533.956 1479.71 Q529.373 1486.59 520.657 1486.59 Q511.942 1486.59 507.324 1479.71 Q502.741 1472.8 502.741 1459.71 Q502.741 1446.59 507.324 1439.71 Q511.942 1432.8 520.657 1432.8 Z" fill="#000000" fill-rule="nonzero" fill-opacity="1" /><path clip-path="url(#clip110)" d="M799.88 1460.34 L844.394 1460.34 L844.394 1466.24 L799.88 1466.24 L799.88 1460.34 Z" fill="#000000" fill-rule="nonzero" fill-opacity="1" /><path clip-path="url(#clip110)" d="M874.533 1438.36 Q869.116 1438.36 866.373 1443.71 Q863.665 1449.02 863.665 1459.71 Q863.665 1470.37 866.373 1475.72 Q869.116 1481.03 874.533 1481.03 Q879.984 1481.03 882.692 1475.72 Q885.435 1470.37 885.435 1459.71 Q885.435 1449.02 882.692 1443.71 Q879.984 1438.36 874.533 1438.36 M874.533 1432.8 Q883.248 1432.8 887.831 1439.71 Q892.449 1446.59 892.449 1459.71 Q892.449 1472.8 887.831 1479.71 Q883.248 1486.59 874.533 1486.59 Q865.817 1486.59 861.199 1479.71 Q856.616 1472.8 856.616 1459.71 Q856.616 1446.59 861.199 1439.71 Q865.817 1432.8 874.533 1432.8 Z" fill="#000000" fill-rule="nonzero" fill-opacity="1" /><path clip-path="url(#clip110)" d="M904.775 1476.76 L912.102 1476.76 L912.102 1485.58 L904.775 1485.58 L904.775 1476.76 Z" fill="#000000" fill-rule="nonzero" fill-opacity="1" /><path clip-path="url(#clip110)" d="M927.449 1433.74 L954.984 1433.74 L954.984 1439.64 L933.873 1439.64 L933.873 1452.35 Q935.4 1451.83 936.928 1451.59 Q938.456 1451.31 939.984 1451.31 Q948.664 1451.31 953.734 1456.07 Q958.803 1460.82 958.803 1468.95 Q958.803 1477.32 953.595 1481.97 Q948.386 1486.59 938.907 1486.59 Q935.643 1486.59 932.241 1486.03 Q928.873 1485.48 925.261 1484.36 L925.261 1477.32 Q928.386 1479.02 931.72 1479.85 Q935.053 1480.68 938.768 1480.68 Q944.775 1480.68 948.282 1477.52 Q951.789 1474.36 951.789 1468.95 Q951.789 1463.53 948.282 1460.37 Q944.775 1457.21 938.768 1457.21 Q935.956 1457.21 933.143 1457.84 Q930.366 1458.46 927.449 1459.78 L927.449 1433.74 Z" fill="#000000" fill-rule="nonzero" fill-opacity="1" /><path clip-path="url(#clip110)" d="M1266.39 1438.36 Q1260.98 1438.36 1258.23 1443.71 Q1255.53 1449.02 1255.53 1459.71 Q1255.53 1470.37 1258.23 1475.72 Q1260.98 1481.03 1266.39 1481.03 Q1271.85 1481.03 1274.55 1475.72 Q1277.3 1470.37 1277.3 1459.71 Q1277.3 1449.02 1274.55 1443.71 Q1271.85 1438.36 1266.39 1438.36 M1266.39 1432.8 Q1275.11 1432.8 1279.69 1439.71 Q1284.31 1446.59 1284.31 1459.71 Q1284.31 1472.8 1279.69 1479.71 Q1275.11 1486.59 1266.39 1486.59 Q1257.68 1486.59 1253.06 1479.71 Q1248.48 1472.8 1248.48 1459.71 Q1248.48 1446.59 1253.06 1439.71 Q1257.68 1432.8 1266.39 1432.8 Z" fill="#000000" fill-rule="nonzero" fill-opacity="1" /><path clip-path="url(#clip110)" d="M1296.64 1476.76 L1303.96 1476.76 L1303.96 1485.58 L1296.64 1485.58 L1296.64 1476.76 Z" fill="#000000" fill-rule="nonzero" fill-opacity="1" /><path clip-path="url(#clip110)" d="M1334.24 1438.36 Q1328.82 1438.36 1326.08 1443.71 Q1323.37 1449.02 1323.37 1459.71 Q1323.37 1470.37 1326.08 1475.72 Q1328.82 1481.03 1334.24 1481.03 Q1339.69 1481.03 1342.4 1475.72 Q1345.14 1470.37 1345.14 1459.71 Q1345.14 1449.02 1342.4 1443.71 Q1339.69 1438.36 1334.24 1438.36 M1334.24 1432.8 Q1342.96 1432.8 1347.54 1439.71 Q1352.16 1446.59 1352.16 1459.71 Q1352.16 1472.8 1347.54 1479.71 Q1342.96 1486.59 1334.24 1486.59 Q1325.53 1486.59 1320.91 1479.71 Q1316.32 1472.8 1316.32 1459.71 Q1316.32 1446.59 1320.91 1439.71 Q1325.53 1432.8 1334.24 1432.8 Z" fill="#000000" fill-rule="nonzero" fill-opacity="1" /><path clip-path="url(#clip110)" d="M1688.12 1438.36 Q1682.7 1438.36 1679.96 1443.71 Q1677.25 1449.02 1677.25 1459.71 Q1677.25 1470.37 1679.96 1475.72 Q1682.7 1481.03 1688.12 1481.03 Q1693.57 1481.03 1696.28 1475.72 Q1699.02 1470.37 1699.02 1459.71 Q1699.02 1449.02 1696.28 1443.71 Q1693.57 1438.36 1688.12 1438.36 M1688.12 1432.8 Q1696.83 1432.8 1701.41 1439.71 Q1706.03 1446.59 1706.03 1459.71 Q1706.03 1472.8 1701.41 1479.71 Q1696.83 1486.59 1688.12 1486.59 Q1679.4 1486.59 1674.78 1479.71 Q1670.2 1472.8 1670.2 1459.71 Q1670.2 1446.59 1674.78 1439.71 Q1679.4 1432.8 1688.12 1432.8 Z" fill="#000000" fill-rule="nonzero" fill-opacity="1" /><path clip-path="url(#clip110)" d="M1718.36 1476.76 L1725.68 1476.76 L1725.68 1485.58 L1718.36 1485.58 L1718.36 1476.76 Z" fill="#000000" fill-rule="nonzero" fill-opacity="1" /><path clip-path="url(#clip110)" d="M1741.03 1433.74 L1768.57 1433.74 L1768.57 1439.64 L1747.46 1439.64 L1747.46 1452.35 Q1748.98 1451.83 1750.51 1451.59 Q1752.04 1451.31 1753.57 1451.31 Q1762.25 1451.31 1767.32 1456.07 Q1772.39 1460.82 1772.39 1468.95 Q1772.39 1477.32 1767.18 1481.97 Q1761.97 1486.59 1752.49 1486.59 Q1749.23 1486.59 1745.82 1486.03 Q1742.46 1485.48 1738.84 1484.36 L1738.84 1477.32 Q1741.97 1479.02 1745.3 1479.85 Q1748.64 1480.68 1752.35 1480.68 Q1758.36 1480.68 1761.87 1477.52 Q1765.37 1474.36 1765.37 1468.95 Q1765.37 1463.53 1761.87 1460.37 Q1758.36 1457.21 1752.35 1457.21 Q1749.54 1457.21 1746.73 1457.84 Q1743.95 1458.46 1741.03 1459.78 L1741.03 1433.74 Z" fill="#000000" fill-rule="nonzero" fill-opacity="1" /><path clip-path="url(#clip110)" d="M2093 1479.68 L2104.46 1479.68 L2104.46 1440.13 L2091.99 1442.63 L2091.99 1436.24 L2104.39 1433.74 L2111.4 1433.74 L2111.4 1479.68 L2122.86 1479.68 L2122.86 1485.58 L2093 1485.58 L2093 1479.68 Z" fill="#000000" fill-rule="nonzero" fill-opacity="1" /><path clip-path="url(#clip110)" d="M2137.03 1476.76 L2144.35 1476.76 L2144.35 1485.58 L2137.03 1485.58 L2137.03 1476.76 Z" fill="#000000" fill-rule="nonzero" fill-opacity="1" /><path clip-path="url(#clip110)" d="M2174.63 1438.36 Q2169.21 1438.36 2166.47 1443.71 Q2163.76 1449.02 2163.76 1459.71 Q2163.76 1470.37 2166.47 1475.72 Q2169.21 1481.03 2174.63 1481.03 Q2180.08 1481.03 2182.79 1475.72 Q2185.53 1470.37 2185.53 1459.71 Q2185.53 1449.02 2182.79 1443.71 Q2180.08 1438.36 2174.63 1438.36 M2174.63 1432.8 Q2183.34 1432.8 2187.93 1439.71 Q2192.55 1446.59 2192.55 1459.71 Q2192.55 1472.8 2187.93 1479.71 Q2183.34 1486.59 2174.63 1486.59 Q2165.91 1486.59 2161.3 1479.71 Q2156.71 1472.8 2156.71 1459.71 Q2156.71 1446.59 2161.3 1439.71 Q2165.91 1432.8 2174.63 1432.8 Z" fill="#000000" fill-rule="nonzero" fill-opacity="1" /><path clip-path="url(#clip110)" d="M1179.21 1538.66 L1185.98 1538.66 L1198.13 1571.3 L1210.28 1538.66 L1217.05 1538.66 L1202.47 1577.55 L1193.79 1577.55 L1179.21 1538.66 Z" fill="#000000" fill-rule="nonzero" fill-opacity="1" /><path clip-path="url(#clip110)" d="M1247.89 1523.52 L1262.61 1523.52 L1262.61 1528.49 L1254.28 1528.49 L1254.28 1581.96 L1262.61 1581.96 L1262.61 1586.92 L1247.89 1586.92 L1247.89 1523.52 Z" fill="#000000" fill-rule="nonzero" fill-opacity="1" /><path clip-path="url(#clip110)" d="M1306.5 1546.12 Q1308.89 1541.82 1312.23 1539.77 Q1315.56 1537.72 1320.07 1537.72 Q1326.15 1537.72 1329.45 1541.99 Q1332.75 1546.23 1332.75 1554.08 L1332.75 1577.55 L1326.32 1577.55 L1326.32 1554.28 Q1326.32 1548.69 1324.34 1545.99 Q1322.37 1543.28 1318.3 1543.28 Q1313.34 1543.28 1310.46 1546.58 Q1307.57 1549.87 1307.57 1555.57 L1307.57 1577.55 L1301.15 1577.55 L1301.15 1554.28 Q1301.15 1548.66 1299.17 1545.99 Q1297.19 1543.28 1293.06 1543.28 Q1288.16 1543.28 1285.28 1546.61 Q1282.4 1549.91 1282.4 1555.57 L1282.4 1577.55 L1275.98 1577.55 L1275.98 1538.66 L1282.4 1538.66 L1282.4 1544.7 Q1284.59 1541.12 1287.64 1539.42 Q1290.7 1537.72 1294.9 1537.72 Q1299.14 1537.72 1302.09 1539.87 Q1305.07 1542.03 1306.5 1546.12 Z" fill="#000000" fill-rule="nonzero" fill-opacity="1" /><path clip-path="url(#clip110)" d="M1356.84 1525.71 L1362.75 1525.71 L1344.69 1584.15 L1338.79 1584.15 L1356.84 1525.71 Z" fill="#000000" fill-rule="nonzero" fill-opacity="1" /><path clip-path="url(#clip110)" d="M1394.24 1539.8 L1394.24 1545.85 Q1391.53 1544.46 1388.62 1543.76 Q1385.7 1543.07 1382.57 1543.07 Q1377.82 1543.07 1375.42 1544.53 Q1373.06 1545.99 1373.06 1548.9 Q1373.06 1551.12 1374.76 1552.41 Q1376.46 1553.66 1381.6 1554.8 L1383.79 1555.29 Q1390.59 1556.75 1393.44 1559.42 Q1396.32 1562.06 1396.32 1566.82 Q1396.32 1572.24 1392.02 1575.4 Q1387.75 1578.55 1380.25 1578.55 Q1377.12 1578.55 1373.72 1577.93 Q1370.35 1577.34 1366.6 1576.12 L1366.6 1569.53 Q1370.14 1571.37 1373.58 1572.3 Q1377.02 1573.21 1380.39 1573.21 Q1384.9 1573.21 1387.33 1571.68 Q1389.76 1570.12 1389.76 1567.3 Q1389.76 1564.7 1387.99 1563.31 Q1386.25 1561.92 1380.32 1560.64 L1378.09 1560.12 Q1372.16 1558.87 1369.52 1556.3 Q1366.88 1553.69 1366.88 1549.18 Q1366.88 1543.69 1370.77 1540.71 Q1374.66 1537.72 1381.81 1537.72 Q1385.35 1537.72 1388.48 1538.24 Q1391.6 1538.76 1394.24 1539.8 Z" fill="#000000" fill-rule="nonzero" fill-opacity="1" /><path clip-path="url(#clip110)" d="M1421.43 1523.52 L1421.43 1586.92 L1406.71 1586.92 L1406.71 1581.96 L1415 1581.96 L1415 1528.49 L1406.71 1528.49 L1406.71 1523.52 L1421.43 1523.52 Z" fill="#000000" fill-rule="nonzero" fill-opacity="1" /><polyline clip-path="url(#clip112)" style="stroke:#000000; stroke-linecap:round; stroke-linejoin:round; stroke-width:2; stroke-opacity:0.1; fill:none" points="247.878,1339.21 2352.76,1339.21 "/>
<polyline clip-path="url(#clip112)" style="stroke:#000000; stroke-linecap:round; stroke-linejoin:round; stroke-width:2; stroke-opacity:0.1; fill:none" points="247.878,1080.26 2352.76,1080.26 "/>
<polyline clip-path="url(#clip112)" style="stroke:#000000; stroke-linecap:round; stroke-linejoin:round; stroke-width:2; stroke-opacity:0.1; fill:none" points="247.878,821.31 2352.76,821.31 "/>
<polyline clip-path="url(#clip112)" style="stroke:#000000; stroke-linecap:round; stroke-linejoin:round; stroke-width:2; stroke-opacity:0.1; fill:none" points="247.878,562.358 2352.76,562.358 "/>
<polyline clip-path="url(#clip112)" style="stroke:#000000; stroke-linecap:round; stroke-linejoin:round; stroke-width:2; stroke-opacity:0.1; fill:none" points="247.878,303.406 2352.76,303.406 "/>
<polyline clip-path="url(#clip110)" style="stroke:#000000; stroke-linecap:round; stroke-linejoin:round; stroke-width:4; stroke-opacity:1; fill:none" points="247.878,1401.58 247.878,123.472 "/>
<polyline clip-path="url(#clip110)" style="stroke:#000000; stroke-linecap:round; stroke-linejoin:round; stroke-width:4; stroke-opacity:1; fill:none" points="247.878,1339.21 266.776,1339.21 "/>
<polyline clip-path="url(#clip110)" style="stroke:#000000; stroke-linecap:round; stroke-linejoin:round; stroke-width:4; stroke-opacity:1; fill:none" points="247.878,1080.26 266.776,1080.26 "/>
<polyline clip-path="url(#clip110)" style="stroke:#000000; stroke-linecap:round; stroke-linejoin:round; stroke-width:4; stroke-opacity:1; fill:none" points="247.878,821.31 266.776,821.31 "/>
<polyline clip-path="url(#clip110)" style="stroke:#000000; stroke-linecap:round; stroke-linejoin:round; stroke-width:4; stroke-opacity:1; fill:none" points="247.878,562.358 266.776,562.358 "/>
<polyline clip-path="url(#clip110)" style="stroke:#000000; stroke-linecap:round; stroke-linejoin:round; stroke-width:4; stroke-opacity:1; fill:none" points="247.878,303.406 266.776,303.406 "/>
<path clip-path="url(#clip110)" d="M118.58 1339.89 L163.094 1339.89 L163.094 1345.79 L118.58 1345.79 L118.58 1339.89 Z" fill="#000000" fill-rule="nonzero" fill-opacity="1" /><path clip-path="url(#clip110)" d="M197.503 1319.4 L179.795 1347.08 L197.503 1347.08 L197.503 1319.4 M195.663 1313.29 L204.482 1313.29 L204.482 1347.08 L211.878 1347.08 L211.878 1352.91 L204.482 1352.91 L204.482 1365.13 L197.503 1365.13 L197.503 1352.91 L174.101 1352.91 L174.101 1346.14 L195.663 1313.29 Z" fill="#000000" fill-rule="nonzero" fill-opacity="1" /><path clip-path="url(#clip110)" d="M121.705 1080.94 L166.219 1080.94 L166.219 1086.84 L121.705 1086.84 L121.705 1080.94 Z" fill="#000000" fill-rule="nonzero" fill-opacity="1" /><path clip-path="url(#clip110)" d="M187.399 1100.28 L211.878 1100.28 L211.878 1106.18 L178.962 1106.18 L178.962 1100.28 Q182.955 1096.15 189.83 1089.2 Q196.739 1082.22 198.51 1080.21 Q201.878 1076.42 203.198 1073.82 Q204.552 1071.18 204.552 1068.65 Q204.552 1064.52 201.635 1061.91 Q198.753 1059.31 194.101 1059.31 Q190.802 1059.31 187.121 1060.45 Q183.476 1061.6 179.309 1063.92 L179.309 1056.84 Q183.545 1055.14 187.226 1054.27 Q190.906 1053.4 193.962 1053.4 Q202.017 1053.4 206.809 1057.43 Q211.6 1061.46 211.6 1068.2 Q211.6 1071.39 210.385 1074.27 Q209.205 1077.12 206.045 1081.01 Q205.177 1082.02 200.524 1086.84 Q195.871 1091.63 187.399 1100.28 Z" fill="#000000" fill-rule="nonzero" fill-opacity="1" /><path clip-path="url(#clip110)" d="M193.962 800.008 Q188.545 800.008 185.802 805.355 Q183.094 810.667 183.094 821.362 Q183.094 832.021 185.802 837.369 Q188.545 842.681 193.962 842.681 Q199.413 842.681 202.121 837.369 Q204.864 832.021 204.864 821.362 Q204.864 810.667 202.121 805.355 Q199.413 800.008 193.962 800.008 M193.962 794.452 Q202.677 794.452 207.26 801.362 Q211.878 808.237 211.878 821.362 Q211.878 834.452 207.26 841.362 Q202.677 848.237 193.962 848.237 Q185.246 848.237 180.628 841.362 Q176.045 834.452 176.045 821.362 Q176.045 808.237 180.628 801.362 Q185.246 794.452 193.962 794.452 Z" fill="#000000" fill-rule="nonzero" fill-opacity="1" /><path clip-path="url(#clip110)" d="M187.399 582.375 L211.878 582.375 L211.878 588.278 L178.962 588.278 L178.962 582.375 Q182.955 578.243 189.83 571.299 Q196.739 564.319 198.51 562.306 Q201.878 558.521 203.198 555.917 Q204.552 553.278 204.552 550.743 Q204.552 546.611 201.635 544.007 Q198.753 541.403 194.101 541.403 Q190.802 541.403 187.121 542.549 Q183.476 543.695 179.309 546.021 L179.309 538.938 Q183.545 537.236 187.226 536.368 Q190.906 535.5 193.962 535.5 Q202.017 535.5 206.809 539.528 Q211.6 543.556 211.6 550.292 Q211.6 553.486 210.385 556.368 Q209.205 559.215 206.045 563.104 Q205.177 564.111 200.524 568.937 Q195.871 573.729 187.399 582.375 Z" fill="#000000" fill-rule="nonzero" fill-opacity="1" /><path clip-path="url(#clip110)" d="M197.503 283.597 L179.795 311.27 L197.503 311.27 L197.503 283.597 M195.663 277.486 L204.482 277.486 L204.482 311.27 L211.878 311.27 L211.878 317.104 L204.482 317.104 L204.482 329.326 L197.503 329.326 L197.503 317.104 L174.101 317.104 L174.101 310.333 L195.663 277.486 Z" fill="#000000" fill-rule="nonzero" fill-opacity="1" /><path clip-path="url(#clip110)" d="M13.0007 1025.04 L18.3131 1025.04 L18.3131 1031.15 Q18.3131 1034.59 19.702 1035.94 Q21.0909 1037.26 24.702 1037.26 L28.1395 1037.26 L28.1395 1026.74 L33.1047 1026.74 L33.1047 1037.26 L67.0282 1037.26 L67.0282 1043.69 L33.1047 1043.69 L33.1047 1049.8 L28.1395 1049.8 L28.1395 1043.69 L25.4312 1043.69 Q18.9381 1043.69 15.9868 1040.67 Q13.0007 1037.65 13.0007 1031.08 L13.0007 1025.04 Z" fill="#000000" fill-rule="nonzero" fill-opacity="1" /><path clip-path="url(#clip110)" d="M34.1117 997.16 Q33.4867 998.237 33.2089 999.521 Q32.8964 1000.77 32.8964 1002.3 Q32.8964 1007.72 36.438 1010.63 Q39.945 1013.51 46.5422 1013.51 L67.0282 1013.51 L67.0282 1019.94 L28.1395 1019.94 L28.1395 1013.51 L34.1811 1013.51 Q30.6395 1011.5 28.9381 1008.27 Q27.202 1005.04 27.202 1000.42 Q27.202 999.764 27.3061 998.966 Q27.3756 998.167 27.5492 997.195 L34.1117 997.16 Z" fill="#000000" fill-rule="nonzero" fill-opacity="1" /><path clip-path="url(#clip110)" d="M28.1395 990.459 L28.1395 984.07 L67.0282 984.07 L67.0282 990.459 L28.1395 990.459 M13.0007 990.459 L13.0007 984.07 L21.0909 984.07 L21.0909 990.459 L13.0007 990.459 Z" fill="#000000" fill-rule="nonzero" fill-opacity="1" /><path clip-path="url(#clip110)" d="M29.6325 942.716 L35.6047 942.716 Q34.1117 945.424 33.3825 948.167 Q32.6186 950.876 32.6186 953.653 Q32.6186 959.869 36.5769 963.306 Q40.5005 966.744 47.6185 966.744 Q54.7366 966.744 58.6949 963.306 Q62.6185 959.869 62.6185 953.653 Q62.6185 950.876 61.8893 948.167 Q61.1254 945.424 59.6324 942.716 L65.5351 942.716 Q66.7851 945.39 67.4101 948.272 Q68.0351 951.119 68.0351 954.348 Q68.0351 963.133 62.5143 968.306 Q56.9935 973.48 47.6185 973.48 Q38.1047 973.48 32.6533 968.271 Q27.202 963.028 27.202 953.931 Q27.202 950.98 27.827 948.167 Q28.4173 945.355 29.6325 942.716 Z" fill="#000000" fill-rule="nonzero" fill-opacity="1" /><path clip-path="url(#clip110)" d="M17.0979 925.286 L28.1395 925.286 L28.1395 912.126 L33.1047 912.126 L33.1047 925.286 L54.2157 925.286 Q58.9726 925.286 60.3268 924.001 Q61.681 922.681 61.681 918.688 L61.681 912.126 L67.0282 912.126 L67.0282 918.688 Q67.0282 926.084 64.2851 928.897 Q61.5074 931.709 54.2157 931.709 L33.1047 931.709 L33.1047 936.397 L28.1395 936.397 L28.1395 931.709 L17.0979 931.709 L17.0979 925.286 Z" fill="#000000" fill-rule="nonzero" fill-opacity="1" /><path clip-path="url(#clip110)" d="M28.1395 903.723 L28.1395 897.334 L67.0282 897.334 L67.0282 903.723 L28.1395 903.723 M13.0007 903.723 L13.0007 897.334 L21.0909 897.334 L21.0909 903.723 L13.0007 903.723 Z" fill="#000000" fill-rule="nonzero" fill-opacity="1" /><path clip-path="url(#clip110)" d="M32.6186 868.897 Q32.6186 874.036 36.6464 877.022 Q40.6394 880.008 47.6185 880.008 Q54.5977 880.008 58.6254 877.057 Q62.6185 874.071 62.6185 868.897 Q62.6185 863.793 58.5907 860.807 Q54.5629 857.821 47.6185 857.821 Q40.7089 857.821 36.6811 860.807 Q32.6186 863.793 32.6186 868.897 M27.202 868.897 Q27.202 860.564 32.6186 855.807 Q38.0353 851.05 47.6185 851.05 Q57.1671 851.05 62.6185 855.807 Q68.0351 860.564 68.0351 868.897 Q68.0351 877.265 62.6185 882.022 Q57.1671 886.744 47.6185 886.744 Q38.0353 886.744 32.6186 882.022 Q27.202 877.265 27.202 868.897 Z" fill="#000000" fill-rule="nonzero" fill-opacity="1" /><path clip-path="url(#clip110)" d="M43.5561 808.133 L67.0282 808.133 L67.0282 814.522 L43.7644 814.522 Q38.2436 814.522 35.5005 816.675 Q32.7575 818.828 32.7575 823.133 Q32.7575 828.307 36.0561 831.293 Q39.3547 834.279 45.0491 834.279 L67.0282 834.279 L67.0282 840.703 L28.1395 840.703 L28.1395 834.279 L34.1811 834.279 Q30.6742 831.987 28.9381 828.897 Q27.202 825.772 27.202 821.71 Q27.202 815.008 31.3686 811.571 Q35.5005 808.133 43.5561 808.133 Z" fill="#000000" fill-rule="nonzero" fill-opacity="1" /><path clip-path="url(#clip110)" d="M13.0007 753.099 L18.3131 753.099 L18.3131 759.21 Q18.3131 762.648 19.702 764.002 Q21.0909 765.321 24.702 765.321 L28.1395 765.321 L28.1395 754.8 L33.1047 754.8 L33.1047 765.321 L67.0282 765.321 L67.0282 771.745 L33.1047 771.745 L33.1047 777.856 L28.1395 777.856 L28.1395 771.745 L25.4312 771.745 Q18.9381 771.745 15.9868 768.724 Q13.0007 765.703 13.0007 759.141 L13.0007 753.099 Z" fill="#000000" fill-rule="nonzero" fill-opacity="1" /><path clip-path="url(#clip110)" d="M32.6186 732.682 Q32.6186 737.821 36.6464 740.807 Q40.6394 743.793 47.6185 743.793 Q54.5977 743.793 58.6254 740.842 Q62.6185 737.856 62.6185 732.682 Q62.6185 727.578 58.5907 724.592 Q54.5629 721.606 47.6185 721.606 Q40.7089 721.606 36.6811 724.592 Q32.6186 727.578 32.6186 732.682 M27.202 732.682 Q27.202 724.349 32.6186 719.592 Q38.0353 714.835 47.6185 714.835 Q57.1671 714.835 62.6185 719.592 Q68.0351 724.349 68.0351 732.682 Q68.0351 741.05 62.6185 745.807 Q57.1671 750.53 47.6185 750.53 Q38.0353 750.53 32.6186 745.807 Q27.202 741.05 27.202 732.682 Z" fill="#000000" fill-rule="nonzero" fill-opacity="1" /><path clip-path="url(#clip110)" d="M34.1117 681.71 Q33.4867 682.787 33.2089 684.072 Q32.8964 685.322 32.8964 686.849 Q32.8964 692.266 36.438 695.183 Q39.945 698.065 46.5422 698.065 L67.0282 698.065 L67.0282 704.488 L28.1395 704.488 L28.1395 698.065 L34.1811 698.065 Q30.6395 696.051 28.9381 692.821 Q27.202 689.592 27.202 684.974 Q27.202 684.315 27.3061 683.516 Q27.3756 682.717 27.5492 681.745 L34.1117 681.71 Z" fill="#000000" fill-rule="nonzero" fill-opacity="1" /><path clip-path="url(#clip110)" d="M29.6325 648.586 L35.6047 648.586 Q34.1117 651.294 33.3825 654.037 Q32.6186 656.745 32.6186 659.523 Q32.6186 665.738 36.5769 669.176 Q40.5005 672.613 47.6185 672.613 Q54.7366 672.613 58.6949 669.176 Q62.6185 665.738 62.6185 659.523 Q62.6185 656.745 61.8893 654.037 Q61.1254 651.294 59.6324 648.586 L65.5351 648.586 Q66.7851 651.259 67.4101 654.141 Q68.0351 656.988 68.0351 660.218 Q68.0351 669.002 62.5143 674.176 Q56.9935 679.349 47.6185 679.349 Q38.1047 679.349 32.6533 674.141 Q27.202 668.898 27.202 659.801 Q27.202 656.849 27.827 654.037 Q28.4173 651.224 29.6325 648.586 Z" fill="#000000" fill-rule="nonzero" fill-opacity="1" /><path clip-path="url(#clip110)" d="M45.9866 604.211 L49.1116 604.211 L49.1116 633.586 Q55.7088 633.169 59.181 629.627 Q62.6185 626.051 62.6185 619.697 Q62.6185 616.016 61.7157 612.579 Q60.8129 609.107 59.0074 605.704 L65.049 605.704 Q66.5073 609.141 67.2712 612.752 Q68.0351 616.364 68.0351 620.079 Q68.0351 629.384 62.6185 634.836 Q57.2018 640.252 47.9658 640.252 Q38.4172 640.252 32.827 635.113 Q27.202 629.94 27.202 621.19 Q27.202 613.343 32.2714 608.794 Q37.3061 604.211 45.9866 604.211 M44.1116 610.6 Q38.8686 610.669 35.7436 613.551 Q32.6186 616.398 32.6186 621.12 Q32.6186 626.468 35.6394 629.697 Q38.6603 632.891 44.1463 633.377 L44.1116 610.6 Z" fill="#000000" fill-rule="nonzero" fill-opacity="1" /><path clip-path="url(#clip110)" d="M13.0007 571.711 L13.0007 556.989 L17.9659 556.989 L17.9659 565.322 L71.4379 565.322 L71.4379 556.989 L76.4031 556.989 L76.4031 571.711 L13.0007 571.711 Z" fill="#000000" fill-rule="nonzero" fill-opacity="1" /><path clip-path="url(#clip110)" d="M15.1882 543.1 L15.1882 533.656 L58.556 510.67 L15.1882 510.67 L15.1882 503.864 L67.0282 503.864 L67.0282 513.309 L23.6603 536.295 L67.0282 536.295 L67.0282 543.1 L15.1882 543.1 Z" fill="#000000" fill-rule="nonzero" fill-opacity="1" /><path clip-path="url(#clip110)" d="M13.0007 475.253 L76.4031 475.253 L76.4031 489.975 L71.4379 489.975 L71.4379 481.677 L17.9659 481.677 L17.9659 489.975 L13.0007 489.975 L13.0007 475.253 Z" fill="#000000" fill-rule="nonzero" fill-opacity="1" /><path clip-path="url(#clip110)" d="M974.604 12.096 L1009.36 12.096 L1009.36 18.9825 L982.787 18.9825 L982.787 36.8065 L1006.77 36.8065 L1006.77 43.6931 L982.787 43.6931 L982.787 72.576 L974.604 72.576 L974.604 12.096 Z" fill="#000000" fill-rule="nonzero" fill-opacity="1" /><path clip-path="url(#clip110)" d="M1042.25 34.1734 Q1041 33.4443 1039.5 33.1202 Q1038.04 32.7556 1036.26 32.7556 Q1029.94 32.7556 1026.54 36.8875 Q1023.17 40.9789 1023.17 48.6757 L1023.17 72.576 L1015.68 72.576 L1015.68 27.2059 L1023.17 27.2059 L1023.17 34.2544 Q1025.52 30.1225 1029.29 28.1376 Q1033.06 26.1121 1038.45 26.1121 Q1039.22 26.1121 1040.15 26.2337 Q1041.08 26.3147 1042.21 26.5172 L1042.25 34.1734 Z" fill="#000000" fill-rule="nonzero" fill-opacity="1" /><path clip-path="url(#clip110)" d="M1050.07 27.2059 L1057.53 27.2059 L1057.53 72.576 L1050.07 72.576 L1050.07 27.2059 M1050.07 9.54393 L1057.53 9.54393 L1057.53 18.9825 L1050.07 18.9825 L1050.07 9.54393 Z" fill="#000000" fill-rule="nonzero" fill-opacity="1" /><path clip-path="url(#clip110)" d="M1105.77 28.9478 L1105.77 35.9153 Q1102.61 34.1734 1099.41 33.3227 Q1096.25 32.4315 1093.01 32.4315 Q1085.76 32.4315 1081.75 37.0496 Q1077.74 41.6271 1077.74 49.9314 Q1077.74 58.2358 1081.75 62.8538 Q1085.76 67.4314 1093.01 67.4314 Q1096.25 67.4314 1099.41 66.5807 Q1102.61 65.6895 1105.77 63.9476 L1105.77 70.8341 Q1102.65 72.2924 1099.29 73.0216 Q1095.97 73.7508 1092.2 73.7508 Q1081.95 73.7508 1075.92 67.3098 Q1069.88 60.8689 1069.88 49.9314 Q1069.88 38.832 1075.96 32.472 Q1082.07 26.1121 1092.69 26.1121 Q1096.13 26.1121 1099.41 26.8413 Q1102.69 27.5299 1105.77 28.9478 Z" fill="#000000" fill-rule="nonzero" fill-opacity="1" /><path clip-path="url(#clip110)" d="M1126.11 14.324 L1126.11 27.2059 L1141.46 27.2059 L1141.46 32.9987 L1126.11 32.9987 L1126.11 57.6282 Q1126.11 63.1779 1127.61 64.7578 Q1129.15 66.3376 1133.8 66.3376 L1141.46 66.3376 L1141.46 72.576 L1133.8 72.576 Q1125.18 72.576 1121.9 69.3758 Q1118.61 66.1351 1118.61 57.6282 L1118.61 32.9987 L1113.15 32.9987 L1113.15 27.2059 L1118.61 27.2059 L1118.61 14.324 L1126.11 14.324 Z" fill="#000000" fill-rule="nonzero" fill-opacity="1" /><path clip-path="url(#clip110)" d="M1151.26 27.2059 L1158.72 27.2059 L1158.72 72.576 L1151.26 72.576 L1151.26 27.2059 M1151.26 9.54393 L1158.72 9.54393 L1158.72 18.9825 L1151.26 18.9825 L1151.26 9.54393 Z" fill="#000000" fill-rule="nonzero" fill-opacity="1" /><path clip-path="url(#clip110)" d="M1191.89 32.4315 Q1185.9 32.4315 1182.42 37.1306 Q1178.93 41.7891 1178.93 49.9314 Q1178.93 58.0738 1182.38 62.7728 Q1185.86 67.4314 1191.89 67.4314 Q1197.85 67.4314 1201.33 62.7323 Q1204.82 58.0333 1204.82 49.9314 Q1204.82 41.8701 1201.33 37.1711 Q1197.85 32.4315 1191.89 32.4315 M1191.89 26.1121 Q1201.62 26.1121 1207.17 32.4315 Q1212.72 38.7509 1212.72 49.9314 Q1212.72 61.0714 1207.17 67.4314 Q1201.62 73.7508 1191.89 73.7508 Q1182.13 73.7508 1176.58 67.4314 Q1171.07 61.0714 1171.07 49.9314 Q1171.07 38.7509 1176.58 32.4315 Q1182.13 26.1121 1191.89 26.1121 Z" fill="#000000" fill-rule="nonzero" fill-opacity="1" /><path clip-path="url(#clip110)" d="M1262.79 45.1919 L1262.79 72.576 L1255.33 72.576 L1255.33 45.4349 Q1255.33 38.994 1252.82 35.7938 Q1250.31 32.5936 1245.29 32.5936 Q1239.25 32.5936 1235.77 36.4419 Q1232.28 40.2903 1232.28 46.9338 L1232.28 72.576 L1224.79 72.576 L1224.79 27.2059 L1232.28 27.2059 L1232.28 34.2544 Q1234.96 30.163 1238.56 28.1376 Q1242.21 26.1121 1246.95 26.1121 Q1254.76 26.1121 1258.78 30.9732 Q1262.79 35.7938 1262.79 45.1919 Z" fill="#000000" fill-rule="nonzero" fill-opacity="1" /><path clip-path="url(#clip110)" d="M1339.35 35.9153 Q1342.14 30.8922 1346.03 28.5022 Q1349.92 26.1121 1355.19 26.1121 Q1362.28 26.1121 1366.12 31.0947 Q1369.97 36.0368 1369.97 45.1919 L1369.97 72.576 L1362.48 72.576 L1362.48 45.4349 Q1362.48 38.913 1360.17 35.7533 Q1357.86 32.5936 1353.12 32.5936 Q1347.33 32.5936 1343.97 36.4419 Q1340.6 40.2903 1340.6 46.9338 L1340.6 72.576 L1333.11 72.576 L1333.11 45.4349 Q1333.11 38.8725 1330.8 35.7533 Q1328.49 32.5936 1323.67 32.5936 Q1317.96 32.5936 1314.6 36.4824 Q1311.23 40.3308 1311.23 46.9338 L1311.23 72.576 L1303.74 72.576 L1303.74 27.2059 L1311.23 27.2059 L1311.23 34.2544 Q1313.79 30.082 1317.35 28.0971 Q1320.92 26.1121 1325.82 26.1121 Q1330.76 26.1121 1334.2 28.6237 Q1337.69 31.1352 1339.35 35.9153 Z" fill="#000000" fill-rule="nonzero" fill-opacity="1" /><path clip-path="url(#clip110)" d="M1402.42 32.4315 Q1396.42 32.4315 1392.94 37.1306 Q1389.46 41.7891 1389.46 49.9314 Q1389.46 58.0738 1392.9 62.7728 Q1396.38 67.4314 1402.42 67.4314 Q1408.37 67.4314 1411.86 62.7323 Q1415.34 58.0333 1415.34 49.9314 Q1415.34 41.8701 1411.86 37.1711 Q1408.37 32.4315 1402.42 32.4315 M1402.42 26.1121 Q1412.14 26.1121 1417.69 32.4315 Q1423.24 38.7509 1423.24 49.9314 Q1423.24 61.0714 1417.69 67.4314 Q1412.14 73.7508 1402.42 73.7508 Q1392.66 73.7508 1387.11 67.4314 Q1381.6 61.0714 1381.6 49.9314 Q1381.6 38.7509 1387.11 32.4315 Q1392.66 26.1121 1402.42 26.1121 Z" fill="#000000" fill-rule="nonzero" fill-opacity="1" /><path clip-path="url(#clip110)" d="M1465.45 34.0924 L1465.45 9.54393 L1472.91 9.54393 L1472.91 72.576 L1465.45 72.576 L1465.45 65.7705 Q1463.1 69.8214 1459.5 71.8063 Q1455.93 73.7508 1450.91 73.7508 Q1442.69 73.7508 1437.5 67.1883 Q1432.36 60.6258 1432.36 49.9314 Q1432.36 39.2371 1437.5 32.6746 Q1442.69 26.1121 1450.91 26.1121 Q1455.93 26.1121 1459.5 28.0971 Q1463.1 30.0415 1465.45 34.0924 M1440.05 49.9314 Q1440.05 58.1548 1443.42 62.8538 Q1446.82 67.5124 1452.73 67.5124 Q1458.65 67.5124 1462.05 62.8538 Q1465.45 58.1548 1465.45 49.9314 Q1465.45 41.7081 1462.05 37.0496 Q1458.65 32.3505 1452.73 32.3505 Q1446.82 32.3505 1443.42 37.0496 Q1440.05 41.7081 1440.05 49.9314 Z" fill="#000000" fill-rule="nonzero" fill-opacity="1" /><path clip-path="url(#clip110)" d="M1527.07 48.0275 L1527.07 51.6733 L1492.8 51.6733 Q1493.28 59.3701 1497.41 63.421 Q1501.59 67.4314 1509 67.4314 Q1513.29 67.4314 1517.3 66.3781 Q1521.35 65.3249 1525.32 63.2184 L1525.32 70.267 Q1521.31 71.9684 1517.1 72.8596 Q1512.89 73.7508 1508.55 73.7508 Q1497.7 73.7508 1491.34 67.4314 Q1485.02 61.1119 1485.02 50.3365 Q1485.02 39.1965 1491.01 32.6746 Q1497.05 26.1121 1507.26 26.1121 Q1516.41 26.1121 1521.72 32.0264 Q1527.07 37.9003 1527.07 48.0275 M1519.61 45.84 Q1519.53 39.7232 1516.17 36.0774 Q1512.85 32.4315 1507.34 32.4315 Q1501.1 32.4315 1497.33 35.9558 Q1493.61 39.4801 1493.04 45.8805 L1519.61 45.84 Z" fill="#000000" fill-rule="nonzero" fill-opacity="1" /><path clip-path="url(#clip110)" d="M1539.3 9.54393 L1546.75 9.54393 L1546.75 72.576 L1539.3 72.576 L1539.3 9.54393 Z" fill="#000000" fill-rule="nonzero" fill-opacity="1" /><path clip-path="url(#clip110)" d="M1591.19 65.6895 L1604.56 65.6895 L1604.56 19.5497 L1590.02 22.4663 L1590.02 15.0127 L1604.48 12.096 L1612.66 12.096 L1612.66 65.6895 L1626.03 65.6895 L1626.03 72.576 L1591.19 72.576 L1591.19 65.6895 Z" fill="#000000" fill-rule="nonzero" fill-opacity="1" /><polyline clip-path="url(#clip112)" style="stroke:#009af9; stroke-linecap:round; stroke-linejoin:round; stroke-width:8; stroke-opacity:1; fill:none" points="1300.32,821.31 1336.26,821.31 1372.46,821.31 1408.86,821.31 1445.4,821.31 1482.05,821.31 1518.74,821.31 1555.39,821.31 1591.98,821.31 1628.45,821.31 1664.76,821.31 1700.83,821.31 1736.64,821.31 1772.13,821.31 1807.24,821.31 1841.95,821.31 1876.19,821.31 1909.93,821.31 1943.12,821.31 1975.73,821.31 2007.71,821.31 2039.02,821.31 2069.64,821.31 2099.53,821.31 2128.63,821.31 2156.95,821.31 2184.45,821.31 2211.09,821.31 2236.83,821.31 2261.65,821.31 2285.52,821.31 2308.4,821.31 2330.32,821.31 2351.22,821.31 2371.08,821.31 2389.86,821.31 2407.55,821.31 2424.12,821.31 2439.58,821.31 2453.92,821.31 2467.1,821.31 2479.12,821.31 2489.95,821.31 2499.58,821.31 2508.01,821.31 2515.24,821.31 2521.25,821.31 2526.04,821.31 2529.6,821.31 2531.93,821.31 2533.02,821.31 2532.88,821.31 2531.5,821.31 2528.89,821.31 2525.05,821.31 2519.98,821.31 2513.7,821.31 2506.2,821.31 2497.48,821.31 2487.57,821.31 2476.47,821.31 2464.2,821.31 2450.75,821.31 2436.16,821.31 2420.42,821.31 2403.56,821.31 2385.59,821.31 2366.53,821.31 2346.4,821.31 2325.22,821.31 2303,821.31 2279.77,821.31 2255.54,821.31 2230.34,821.31 2204.2,821.31 2177.14,821.31 2149.18,821.31 2120.35,821.31 2090.66,821.31 2060.15,821.31 2028.85,821.31 1996.77,821.31 1963.96,821.31 1930.43,821.31 1896.21,821.31 1861.31,821.31 1825.77,821.31 1789.63,821.31 1752.9,821.31 1715.62,821.31 1677.81,821.31 1639.45,821.31 1600.59,821.31 1561.26,821.31 1521.48,821.31 1481.27,821.31 1440.66,821.31 1399.66,821.31 1358.31,821.31 1316.61,821.31 1282.19,821.31 1252.38,821.31 1222.38,821.31 1192.23,821.31 1161.97,821.31 1131.65,821.31 1101.32,821.31 1070.99,821.31 1040.74,821.31 1010.59,821.31 980.589,821.31 950.779,821.31 921.203,821.31 891.895,821.31 862.886,821.31 834.222,821.31 805.944,821.31 778.094,821.31 750.699,821.31 723.766,821.31 697.354,821.31 671.501,821.31 646.243,821.31 621.604,821.31 597.576,821.31 574.216,821.31 551.558,821.31 529.632,821.31 508.464,821.31 488.033,821.31 468.396,821.31 449.578,821.31 431.605,821.31 414.503,821.31 398.24,821.31 382.868,821.31 368.408,821.31 354.881,821.31 342.308,821.31 330.657,821.31 319.965,821.31 310.253,821.31 301.536,821.31 293.83,821.31 287.104,821.31 281.379,821.31 276.675,821.31 273.002,821.31 270.37,821.31 268.751,821.31 268.149,821.31 268.583,821.31 270.057,821.31 272.577,821.31 276.116,821.31 280.663,821.31 286.235,821.31 292.832,821.31 300.453,821.31 309.073,821.31 318.669,821.31 329.254,821.31 340.824,821.31 353.372,821.31 366.875,821.31 381.3,821.31 396.655,821.31 412.932,821.31 430.12,821.31 448.197,821.31 467.121,821.31 486.898,821.31 507.513,821.31 528.953,821.31 551.198,821.31 574.2,821.31 597.961,821.31 622.463,821.31 647.688,821.31 673.617,821.31 700.207,821.31 727.451,821.31 755.329,821.31 783.821,821.31 812.906,821.31 842.555,821.31 872.75,821.31 903.472,821.31 934.698,821.31 966.408,821.31 998.592,821.31 1031.23,821.31 1064.29,821.31 1097.76,821.31 1131.61,821.31 1165.81,821.31 1200.34,821.31 1235.17,821.31 1270.28,821.31 1303.8,821.31 1327.1,821.31 1350.54,821.31 1374.12,821.31 1397.8,821.31 1421.56,821.31 1445.35,821.31 1469.16,821.31 1492.94,821.31 1516.67,821.31 1540.32,821.31 1563.84,821.31 1587.22,821.31 1610.43,821.31 1633.43,821.31 1656.2,821.31 1678.7,821.31 1700.91,821.31 1722.79,821.31 1744.32,821.31 1765.47,821.31 1786.22,821.31 1806.54,821.31 1826.41,821.31 1845.8,821.31 1864.68,821.31 1883.06,821.31 1900.88,821.31 1918.14,821.31 1934.81,821.31 1950.87,821.31 1966.32,821.31 1981.12,821.31 1995.26,821.31 2008.71,821.31 2021.5,821.31 2033.57,821.31 2044.93,821.31 2055.55,821.31 2065.43,821.31 2074.58,821.31 2082.96,821.31 2090.58,821.31 2097.41,821.31 2103.45,821.31 2108.67,821.31 2113.08,821.31 2116.72,821.31 2119.55,821.31 2121.56,821.31 2122.75,821.31 2123.11,821.31 2122.64,821.31 2121.33,821.31 2119.2,821.31 2116.26,821.31 2112.5,821.31 2107.93,821.31 2102.54,821.31 2096.33,821.31 2089.32,821.31 2081.51,821.31 2072.91,821.31 2063.52,821.31 2053.35,821.31 2042.41,821.31 2030.72,821.31 2018.28,821.31 2005.1,821.31 1991.19,821.31 1976.57,821.31 1961.25,821.31 1945.23,821.31 1928.54,821.31 1911.2,821.31 1893.21,821.31 1874.59,821.31 1855.37,821.31 1835.52,821.31 1815.1,821.31 1794.11,821.31 1772.57,821.31 1750.5,821.31 1727.91,821.31 1704.84,821.31 1681.27,821.31 1657.23,821.31 1632.73,821.31 1607.8,821.31 1582.45,821.31 1556.71,821.31 1530.6,821.31 1504.12,821.31 1477.3,821.31 1450.15,821.31 1422.7,821.31 1394.96,821.31 1366.95,821.31 1338.7,821.31 1310.22,821.31 1289.61,821.31 1273.15,821.31 1256.58,821.31 1239.93,821.31 1223.21,821.31 1206.45,821.31 1189.64,821.31 1172.83,821.31 1156.04,821.31 1139.28,821.31 1122.57,821.31 1105.94,821.31 1089.4,821.31 1072.97,821.31 1056.69,821.31 1040.56,821.31 1024.61,821.31 1008.86,821.31 993.324,821.31 978.029,821.31 962.983,821.31 948.212,821.31 933.736,821.31 919.575,821.31 905.75,821.31 892.27,821.31 879.133,821.31 866.374,821.31 854.012,821.31 842.063,821.31 830.547,821.31 819.475,821.31 808.823,821.31 798.634,821.31 788.923,821.31 779.703,821.31 770.991,821.31 762.799,821.31 755.092,821.31 747.912,821.31 741.27,821.31 735.179,821.31 729.649,821.31 724.692,821.31 720.273,821.31 716.417,821.31 713.14,821.31 710.45,821.31 708.353,821.31 706.858,821.31 705.935,821.31 705.59,821.31 705.842,821.31 706.695,821.31 708.152,821.31 710.218,821.31 712.868,821.31 716.092,821.31 719.91,821.31 724.32,821.31 729.324,821.31 734.923,821.31 741.098,821.31 747.823,821.31 755.117,821.31 762.978,821.31 771.403,821.31 780.388,821.31 789.92,821.31 799.963,821.31 810.534,821.31 821.627,821.31 833.237,821.31 845.356,821.31 857.977,821.31 871.055,821.31 884.606,821.31 898.62,821.31 913.09,821.31 928.006,821.31 943.36,821.31 959.114,821.31 975.273,821.31 991.828,821.31 1008.77,821.31 1026.08,821.31 1043.76,821.31 1061.78,821.31 1080.13,821.31 1098.81,821.31 1117.79,821.31 1137.08,821.31 1156.66,821.31 1176.51,821.31 1196.63,821.31 1217.01,821.31 1237.63,821.31 1258.48,821.31 1279.54,821.31 1300.49,821.31 1309.29,821.31 1318.15,821.31 "/>
<polyline clip-path="url(#clip112)" style="stroke:#e26f46; stroke-linecap:round; stroke-linejoin:round; stroke-width:8; stroke-opacity:1; fill:none" points="1300.32,724.203 1336.26,729.224 1372.46,733.843 1408.86,738.082 1445.4,741.96 1482.05,745.502 1518.74,748.728 1555.39,751.66 1591.98,754.319 1628.45,756.725 1664.76,758.9 1700.83,760.859 1736.64,762.623 1772.13,764.206 1807.24,765.625 1841.95,766.895 1876.19,768.029 1909.93,769.039 1943.12,769.937 1975.73,770.734 2007.71,771.44 2039.02,772.064 2069.64,772.614 2099.53,773.098 2128.63,773.522 2156.95,773.893 2184.45,774.216 2211.09,774.498 2236.83,774.741 2261.65,774.951 2285.52,775.131 2308.4,775.285 2330.32,775.416 2351.22,775.527 2371.08,775.62 2389.86,775.697 2407.55,775.762 2424.12,775.814 2439.58,775.857 2453.92,775.892 2467.1,775.919 2479.12,775.941 2489.95,775.957 2499.58,775.97 2508.01,775.98 2515.24,775.987 2521.25,775.992 2526.04,775.995 2529.6,775.997 2531.93,775.999 2533.02,775.999 2532.88,775.999 2531.5,775.998 2528.89,775.997 2525.05,775.994 2519.98,775.991 2513.7,775.985 2506.2,775.978 2497.48,775.968 2487.57,775.954 2476.47,775.936 2464.2,775.913 2450.75,775.884 2436.16,775.848 2420.42,775.803 2403.56,775.748 2385.59,775.681 2366.53,775.6 2346.4,775.502 2325.22,775.387 2303,775.25 2279.77,775.09 2255.54,774.901 2230.34,774.682 2204.2,774.428 2177.14,774.134 2149.18,773.795 2120.35,773.406 2090.66,772.96 2060.15,772.45 2028.85,771.868 1996.77,771.207 1963.96,770.456 1930.43,769.604 1896.21,768.64 1861.31,767.55 1825.77,766.319 1789.63,764.931 1752.9,763.368 1715.62,761.609 1677.81,759.631 1639.45,757.406 1600.59,754.908 1561.26,752.104 1521.48,748.958 1481.27,745.43 1440.66,741.476 1399.66,737.047 1358.31,732.087 1316.61,726.535 1282.19,915.828 1252.38,911.818 1222.38,908.075 1192.23,904.588 1161.97,901.348 1131.65,898.342 1101.32,895.56 1070.99,892.989 1040.74,890.618 1010.59,888.435 980.589,886.428 950.779,884.587 921.203,882.899 891.895,881.356 862.886,879.945 834.222,878.658 805.944,877.485 778.094,876.419 750.699,875.45 723.766,874.569 697.354,873.772 671.501,873.05 646.243,872.397 621.604,871.809 597.576,871.277 574.216,870.798 551.558,870.368 529.632,869.982 508.464,869.636 488.033,869.325 468.396,869.048 449.578,868.8 431.605,868.58 414.503,868.384 398.24,868.21 382.868,868.056 368.408,867.92 354.881,867.8 342.308,867.695 330.657,867.603 319.965,867.523 310.253,867.454 301.536,867.395 293.83,867.344 287.104,867.302 281.379,867.267 276.675,867.24 273.002,867.219 270.37,867.204 268.751,867.195 268.149,867.191 268.583,867.194 270.057,867.202 272.577,867.216 276.116,867.236 280.663,867.263 286.235,867.297 292.832,867.338 300.453,867.388 309.073,867.446 318.669,867.514 329.254,867.592 340.824,867.683 353.372,867.787 366.875,867.906 381.3,868.041 396.655,868.194 412.932,868.367 430.12,868.562 448.197,868.783 467.121,869.031 486.898,869.309 507.513,869.621 528.953,869.97 551.198,870.362 574.2,870.798 597.961,871.285 622.463,871.828 647.688,872.433 673.617,873.107 700.207,873.855 727.451,874.686 755.329,875.608 783.821,876.631 812.906,877.765 842.555,879.021 872.75,880.412 903.472,881.951 934.698,883.653 966.408,885.534 998.592,887.613 1031.23,889.911 1064.29,892.447 1097.76,895.248 1131.61,898.339 1165.81,901.746 1200.34,905.5 1235.17,909.635 1270.28,914.189 1303.8,724.709 1327.1,727.987 1350.54,731.097 1374.12,734.046 1397.8,736.835 1421.56,739.471 1445.35,741.955 1469.16,744.294 1492.94,746.492 1516.67,748.555 1540.32,750.489 1563.84,752.297 1587.22,753.987 1610.43,755.565 1633.43,757.036 1656.2,758.406 1678.7,759.68 1700.91,760.863 1722.79,761.961 1744.32,762.979 1765.47,763.921 1786.22,764.793 1806.54,765.598 1826.41,766.342 1845.8,767.028 1864.68,767.66 1883.06,768.242 1900.88,768.778 1918.14,769.27 1934.81,769.72 1950.87,770.134 1966.32,770.512 1981.12,770.858 1995.26,771.174 2008.71,771.461 2021.5,771.723 2033.57,771.96 2044.93,772.175 2055.55,772.368 2065.43,772.542 2074.58,772.698 2082.96,772.836 2090.58,772.958 2097.41,773.065 2103.45,773.158 2108.67,773.236 2113.08,773.301 2116.72,773.354 2119.55,773.394 2121.56,773.423 2122.75,773.44 2123.11,773.445 2122.64,773.438 2121.33,773.42 2119.2,773.389 2116.26,773.347 2112.5,773.292 2107.93,773.225 2102.54,773.144 2096.33,773.049 2089.32,772.938 2081.51,772.812 2072.91,772.67 2063.52,772.509 2053.35,772.329 2042.41,772.128 2030.72,771.905 2018.28,771.658 2005.1,771.385 1991.19,771.085 1976.57,770.754 1961.25,770.39 1945.23,769.991 1928.54,769.554 1911.2,769.075 1893.21,768.551 1874.59,767.978 1855.37,767.353 1835.52,766.669 1815.1,765.924 1794.11,765.111 1772.57,764.225 1750.5,763.26 1727.91,762.209 1704.84,761.065 1681.27,759.821 1657.23,758.466 1632.73,756.993 1607.8,755.391 1582.45,753.651 1556.71,751.76 1530.6,749.708 1504.12,747.479 1477.3,745.061 1450.15,742.438 1422.7,739.593 1394.96,736.509 1366.95,733.168 1338.7,729.549 1310.22,725.632 1289.61,916.873 1273.15,914.579 1256.58,912.365 1239.93,910.23 1223.21,908.175 1206.45,906.199 1189.64,904.301 1172.83,902.482 1156.04,900.741 1139.28,899.077 1122.57,897.487 1105.94,895.97 1089.4,894.526 1072.97,893.151 1056.69,891.845 1040.56,890.605 1024.61,889.428 1008.86,888.315 993.324,887.261 978.029,886.264 962.983,885.323 948.212,884.435 933.736,883.598 919.575,882.81 905.75,882.07 892.27,881.375 879.133,880.721 866.374,880.109 854.012,879.535 842.063,879 830.547,878.5 819.475,878.035 808.823,877.6 798.634,877.197 788.923,876.823 779.703,876.478 770.991,876.16 762.799,875.868 755.092,875.6 747.912,875.355 741.27,875.134 735.179,874.934 729.649,874.756 724.692,874.598 720.273,874.46 716.417,874.341 713.14,874.241 710.45,874.159 708.353,874.096 706.858,874.051 705.935,874.024 705.59,874.014 705.842,874.021 706.695,874.047 708.152,874.09 710.218,874.152 712.868,874.233 716.092,874.331 719.91,874.449 724.32,874.587 729.324,874.745 734.923,874.926 741.098,875.128 747.823,875.352 755.117,875.601 762.978,875.874 771.403,876.175 780.388,876.503 789.92,876.861 799.963,877.249 810.534,877.669 821.627,878.124 833.237,878.615 845.356,879.146 857.977,879.717 871.055,880.331 884.606,880.991 898.62,881.699 913.09,882.46 928.006,883.276 943.36,884.151 959.114,885.087 975.273,886.089 991.828,887.161 1008.77,888.309 1026.08,889.535 1043.76,890.847 1061.78,892.247 1080.13,893.743 1098.81,895.34 1117.79,897.045 1137.08,898.864 1156.66,900.804 1176.51,902.874 1196.63,905.081 1217.01,907.434 1237.63,909.941 1258.48,912.613 1279.54,915.459 1300.49,724.228 1309.29,725.498 1318.15,726.75 "/>
<polyline clip-path="url(#clip112)" style="stroke:#008000; stroke-linecap:round; stroke-linejoin:round; stroke-width:8; stroke-opacity:1; fill:none" stroke-dasharray="4, 8" points="1300.32,486.414 1336.26,511.507 1372.46,537.881 1408.86,565.496 1445.4,594.253 1482.05,624.069 1518.74,654.822 1555.39,686.346 1591.98,718.501 1628.45,751.096 1664.76,783.957 1700.83,816.866 1736.64,849.63 1772.13,882.041 1807.24,913.903 1841.95,945.044 1876.19,975.292 1909.93,1004.5 1943.12,1032.55 1975.73,1059.36 2007.71,1084.84 2039.02,1108.95 2069.64,1131.67 2099.53,1152.99 2128.63,1172.93 2156.95,1191.51 2184.45,1208.78 2211.09,1224.79 2236.83,1239.58 2261.65,1253.21 2285.52,1265.74 2308.4,1277.23 2330.32,1287.77 2351.22,1297.4 2371.08,1306.18 2389.86,1314.16 2407.55,1321.39 2424.12,1327.92 2439.58,1333.81 2453.92,1339.1 2467.1,1343.81 2479.12,1347.99 2489.95,1351.66 2499.58,1354.85 2508.01,1357.59 2515.24,1359.9 2521.25,1361.79 2526.04,1363.27 2529.6,1364.36 2531.93,1365.07 2533.02,1365.41 2532.88,1365.36 2531.5,1364.94 2528.89,1364.15 2525.05,1362.96 2519.98,1361.39 2513.7,1359.41 2506.2,1357.01 2497.48,1354.17 2487.57,1350.87 2476.47,1347.08 2464.2,1342.78 2450.75,1337.94 2436.16,1332.52 2420.42,1326.49 2403.56,1319.78 2385.59,1312.37 2366.53,1304.2 2346.4,1295.21 2325.22,1285.35 2303,1274.56 2279.77,1262.77 2255.54,1249.91 2230.34,1235.91 2204.2,1220.72 2177.14,1204.27 2149.18,1186.49 2120.35,1167.34 2090.66,1146.76 2060.15,1124.72 2028.85,1101.21 1996.77,1076.22 1963.96,1049.77 1930.43,1021.92 1896.21,992.698 1861.31,962.212 1825.77,930.582 1789.63,897.954 1752.9,864.495 1715.62,830.393 1677.81,795.84 1639.45,761.012 1600.59,726.147 1561.26,691.459 1521.48,657.153 1481.27,623.427 1440.66,590.46 1399.66,558.416 1358.31,527.44 1316.61,497.652 1282.19,474.187 1252.38,454.699 1222.38,435.881 1192.23,417.769 1161.97,400.395 1131.65,383.787 1101.32,367.963 1070.99,352.923 1040.74,338.676 1010.59,325.212 980.589,312.524 950.779,300.596 921.203,289.408 891.895,278.933 862.886,269.144 834.222,260.014 805.944,251.515 778.094,243.615 750.699,236.282 723.766,229.477 697.354,223.176 671.501,217.348 646.243,211.965 621.604,206.997 597.576,202.408 574.216,198.18 551.558,194.287 529.632,190.708 508.464,187.42 488.033,184.396 468.396,181.622 449.578,179.081 431.605,176.757 414.503,174.635 398.24,172.697 382.868,170.932 368.408,169.331 354.881,167.882 342.308,166.578 330.657,165.404 319.965,164.355 310.253,163.426 301.536,162.611 293.83,161.905 287.104,161.299 281.379,160.791 276.675,160.379 273.002,160.061 270.37,159.835 268.751,159.696 268.149,159.645 268.583,159.682 270.057,159.808 272.577,160.025 276.116,160.331 280.663,160.728 286.235,161.222 292.832,161.814 300.453,162.511 309.073,163.315 318.669,164.23 329.254,165.265 340.824,166.426 353.372,167.724 366.875,169.164 381.3,170.756 396.655,172.512 412.932,174.445 430.12,176.569 448.197,178.898 467.121,181.446 486.898,184.232 507.513,187.276 528.953,190.6 551.198,194.227 574.2,198.177 597.961,202.48 622.463,207.166 647.688,212.265 673.617,217.813 700.207,223.839 727.451,230.385 755.329,237.492 783.821,245.202 812.906,253.562 842.555,262.614 872.75,272.41 903.472,282.999 934.698,294.434 966.408,306.767 998.592,320.055 1031.23,334.349 1064.29,349.7 1097.76,366.157 1131.61,383.768 1165.81,402.557 1200.34,422.559 1235.17,443.803 1270.28,466.303 1303.8,488.796 1327.1,505.003 1350.54,521.782 1374.12,539.124 1397.8,556.993 1421.56,575.374 1445.35,594.209 1469.16,613.475 1492.94,633.113 1516.67,653.069 1540.32,673.298 1563.84,693.715 1587.22,714.281 1610.43,734.931 1633.43,755.583 1656.2,776.182 1678.7,796.654 1700.91,816.932 1722.79,836.951 1744.32,856.65 1765.47,875.968 1786.22,894.859 1806.54,913.271 1826.41,931.157 1845.8,948.473 1864.68,965.186 1883.06,981.285 1900.88,996.733 1918.14,1011.51 1934.81,1025.59 1950.87,1038.99 1966.32,1051.7 1981.12,1063.71 1995.26,1075.02 2008.71,1085.63 2021.5,1095.56 2033.57,1104.82 2044.93,1113.4 2055.55,1121.32 2065.43,1128.6 2074.58,1135.25 2082.96,1141.28 2090.58,1146.7 2097.41,1151.51 2103.45,1155.73 2108.67,1159.35 2113.08,1162.38 2116.72,1164.87 2119.55,1166.79 2121.56,1168.16 2122.75,1168.96 2123.11,1169.21 2122.64,1168.89 2121.33,1168.01 2119.2,1166.56 2116.26,1164.56 2112.5,1161.99 2107.93,1158.83 2102.54,1155.1 2096.33,1150.76 2089.32,1145.81 2081.51,1140.24 2072.91,1134.04 2063.52,1127.2 2053.35,1119.69 2042.41,1111.51 2030.72,1102.64 2018.28,1093.07 2005.1,1082.79 1991.19,1071.79 1976.57,1060.04 1961.25,1047.55 1945.23,1034.31 1928.54,1020.32 1911.2,1005.58 1893.21,990.102 1874.59,973.89 1855.37,956.959 1835.52,939.312 1815.1,920.988 1794.11,902.018 1772.57,882.44 1750.5,862.298 1727.91,841.642 1704.84,820.527 1681.27,799 1657.23,777.114 1632.73,754.95 1607.8,732.577 1582.45,710.067 1556.71,687.497 1530.6,664.939 1504.12,642.468 1477.3,620.151 1450.15,598.06 1422.7,576.263 1394.96,554.824 1366.95,533.802 1338.7,513.25 1310.22,493.219 1289.61,479.155 1273.15,468.19 1256.58,457.399 1239.93,446.795 1223.21,436.392 1206.45,426.208 1189.64,416.251 1172.83,406.538 1156.04,397.082 1139.28,387.893 1122.57,378.967 1105.94,370.324 1089.4,361.961 1072.97,353.882 1056.69,346.092 1040.56,338.592 1024.61,331.382 1008.86,324.46 993.324,317.826 978.029,311.474 962.983,305.399 948.212,299.6 933.736,294.071 919.575,288.81 905.75,283.81 892.27,279.063 879.133,274.557 866.374,270.291 854.012,266.261 842.063,262.459 830.547,258.882 819.475,255.52 808.823,252.358 798.634,249.397 788.923,246.632 779.703,244.059 770.991,241.673 762.799,239.469 755.092,237.43 747.912,235.56 741.27,233.855 735.179,232.313 729.649,230.93 724.692,229.705 720.273,228.623 716.417,227.688 713.14,226.899 710.45,226.255 708.353,225.756 706.858,225.402 705.935,225.184 705.59,225.102 705.842,225.162 706.695,225.363 708.152,225.709 710.218,226.2 712.868,226.834 716.092,227.609 719.91,228.535 724.32,229.613 729.324,230.85 734.923,232.249 741.098,233.812 747.823,235.537 755.117,237.437 762.978,239.517 771.403,241.785 780.388,244.249 789.92,246.914 799.963,249.779 810.534,252.861 821.627,256.168 833.237,259.71 845.356,263.498 857.977,267.543 871.055,271.844 884.606,276.42 898.62,281.284 913.09,286.448 928.006,291.925 943.36,297.73 959.114,303.864 975.273,310.348 991.828,317.196 1008.77,324.422 1026.08,332.04 1043.76,340.065 1061.78,348.505 1080.13,357.375 1098.81,366.689 1117.79,376.461 1137.08,386.703 1156.66,397.427 1176.51,408.643 1196.63,420.363 1217.01,432.594 1237.63,445.344 1258.48,458.619 1279.54,472.423 1300.49,486.533 1309.29,492.571 1318.15,498.721 "/>
<path clip-path="url(#clip110)" d="M1437.25 477.116 L2282.59 477.116 L2282.59 166.076 L1437.25 166.076  Z" fill="#ffffff" fill-rule="evenodd" fill-opacity="1"/>
<polyline clip-path="url(#clip110)" style="stroke:#000000; stroke-linecap:round; stroke-linejoin:round; stroke-width:4; stroke-opacity:1; fill:none" points="1437.25,477.116 2282.59,477.116 2282.59,166.076 1437.25,166.076 1437.25,477.116 "/>
<polyline clip-path="url(#clip110)" style="stroke:#009af9; stroke-linecap:round; stroke-linejoin:round; stroke-width:12; stroke-opacity:1; fill:none" points="1460.64,243.836 1600.96,243.836 "/>
<path clip-path="url(#clip110)" d="M1657.72 219.617 L1657.72 226.457 Q1653.72 224.548 1650.18 223.61 Q1646.64 222.673 1643.34 222.673 Q1637.61 222.673 1634.49 224.895 Q1631.4 227.117 1631.4 231.214 Q1631.4 234.652 1633.45 236.423 Q1635.53 238.159 1641.29 239.235 L1645.53 240.103 Q1653.38 241.596 1657.09 245.381 Q1660.84 249.131 1660.84 255.45 Q1660.84 262.985 1655.77 266.874 Q1650.74 270.763 1640.98 270.763 Q1637.3 270.763 1633.13 269.929 Q1629 269.096 1624.56 267.464 L1624.56 260.242 Q1628.83 262.638 1632.92 263.853 Q1637.02 265.068 1640.98 265.068 Q1646.99 265.068 1650.25 262.707 Q1653.51 260.346 1653.51 255.971 Q1653.51 252.152 1651.15 249.999 Q1648.83 247.846 1643.48 246.77 L1639.21 245.936 Q1631.36 244.374 1627.86 241.041 Q1624.35 237.707 1624.35 231.77 Q1624.35 224.895 1629.17 220.937 Q1634.04 216.978 1642.54 216.978 Q1646.19 216.978 1649.97 217.638 Q1653.76 218.298 1657.72 219.617 Z" fill="#000000" fill-rule="nonzero" fill-opacity="1" /><path clip-path="url(#clip110)" d="M1671.5 230.867 L1677.89 230.867 L1677.89 269.756 L1671.5 269.756 L1671.5 230.867 M1671.5 215.728 L1677.89 215.728 L1677.89 223.818 L1671.5 223.818 L1671.5 215.728 Z" fill="#000000" fill-rule="nonzero" fill-opacity="1" /><path clip-path="url(#clip110)" d="M1721.54 238.332 Q1723.93 234.027 1727.26 231.978 Q1730.6 229.93 1735.11 229.93 Q1741.19 229.93 1744.49 234.2 Q1747.78 238.436 1747.78 246.284 L1747.78 269.756 L1741.36 269.756 L1741.36 246.492 Q1741.36 240.902 1739.38 238.193 Q1737.4 235.485 1733.34 235.485 Q1728.38 235.485 1725.49 238.784 Q1722.61 242.082 1722.61 247.777 L1722.61 269.756 L1716.19 269.756 L1716.19 246.492 Q1716.19 240.867 1714.21 238.193 Q1712.23 235.485 1708.1 235.485 Q1703.2 235.485 1700.32 238.818 Q1697.44 242.117 1697.44 247.777 L1697.44 269.756 L1691.01 269.756 L1691.01 230.867 L1697.44 230.867 L1697.44 236.909 Q1699.63 233.332 1702.68 231.631 Q1705.74 229.93 1709.94 229.93 Q1714.17 229.93 1717.13 232.082 Q1720.11 234.235 1721.54 238.332 Z" fill="#000000" fill-rule="nonzero" fill-opacity="1" /><path clip-path="url(#clip110)" d="M1766.71 263.922 L1766.71 284.547 L1760.28 284.547 L1760.28 230.867 L1766.71 230.867 L1766.71 236.77 Q1768.72 233.298 1771.78 231.631 Q1774.87 229.93 1779.14 229.93 Q1786.22 229.93 1790.63 235.555 Q1795.08 241.179 1795.08 250.346 Q1795.08 259.513 1790.63 265.138 Q1786.22 270.763 1779.14 270.763 Q1774.87 270.763 1771.78 269.096 Q1768.72 267.395 1766.71 263.922 M1788.44 250.346 Q1788.44 243.298 1785.53 239.304 Q1782.65 235.277 1777.58 235.277 Q1772.51 235.277 1769.59 239.304 Q1766.71 243.298 1766.71 250.346 Q1766.71 257.395 1769.59 261.422 Q1772.51 265.415 1777.58 265.415 Q1782.65 265.415 1785.53 261.422 Q1788.44 257.395 1788.44 250.346 Z" fill="#000000" fill-rule="nonzero" fill-opacity="1" /><path clip-path="url(#clip110)" d="M1805.67 215.728 L1812.06 215.728 L1812.06 269.756 L1805.67 269.756 L1805.67 215.728 Z" fill="#000000" fill-rule="nonzero" fill-opacity="1" /><path clip-path="url(#clip110)" d="M1858.69 248.714 L1858.69 251.839 L1829.31 251.839 Q1829.73 258.436 1833.27 261.909 Q1836.85 265.346 1843.2 265.346 Q1846.88 265.346 1850.32 264.443 Q1853.79 263.54 1857.19 261.735 L1857.19 267.777 Q1853.76 269.235 1850.15 269.999 Q1846.53 270.763 1842.82 270.763 Q1833.51 270.763 1828.06 265.346 Q1822.65 259.929 1822.65 250.693 Q1822.65 241.145 1827.78 235.555 Q1832.96 229.93 1841.71 229.93 Q1849.56 229.93 1854.1 234.999 Q1858.69 240.034 1858.69 248.714 M1852.3 246.839 Q1852.23 241.596 1849.35 238.471 Q1846.5 235.346 1841.78 235.346 Q1836.43 235.346 1833.2 238.367 Q1830.01 241.388 1829.52 246.874 L1852.3 246.839 Z" fill="#000000" fill-rule="nonzero" fill-opacity="1" /><path clip-path="url(#clip110)" d="M1869.45 217.916 L1899.24 217.916 L1899.24 223.818 L1876.46 223.818 L1876.46 239.096 L1897.02 239.096 L1897.02 244.999 L1876.46 244.999 L1876.46 269.756 L1869.45 269.756 L1869.45 217.916 Z" fill="#000000" fill-rule="nonzero" fill-opacity="1" /><path clip-path="url(#clip110)" d="M1910.35 217.916 L1920.8 217.916 L1934.03 253.193 L1947.33 217.916 L1957.78 217.916 L1957.78 269.756 L1950.94 269.756 L1950.94 224.235 L1937.58 259.79 L1930.53 259.79 L1917.16 224.235 L1917.16 269.756 L1910.35 269.756 L1910.35 217.916 Z" fill="#000000" fill-rule="nonzero" fill-opacity="1" /><path clip-path="url(#clip110)" d="M1970.91 217.916 L1977.96 217.916 L1977.96 249.409 Q1977.96 257.742 1980.98 261.422 Q1984 265.068 1990.77 265.068 Q1997.51 265.068 2000.53 261.422 Q2003.55 257.742 2003.55 249.409 L2003.55 217.916 L2010.6 217.916 L2010.6 250.277 Q2010.6 260.415 2005.56 265.589 Q2000.56 270.763 1990.77 270.763 Q1980.94 270.763 1975.91 265.589 Q1970.91 260.415 1970.91 250.277 L1970.91 217.916 Z" fill="#000000" fill-rule="nonzero" fill-opacity="1" /><polyline clip-path="url(#clip110)" style="stroke:#e26f46; stroke-linecap:round; stroke-linejoin:round; stroke-width:12; stroke-opacity:1; fill:none" points="1460.64,321.596 1600.96,321.596 "/>
<path clip-path="url(#clip110)" d="M1647.13 314.599 Q1646.05 313.974 1644.76 313.696 Q1643.51 313.384 1641.99 313.384 Q1636.57 313.384 1633.65 316.926 Q1630.77 320.433 1630.77 327.03 L1630.77 347.516 L1624.35 347.516 L1624.35 308.627 L1630.77 308.627 L1630.77 314.669 Q1632.79 311.127 1636.01 309.426 Q1639.24 307.69 1643.86 307.69 Q1644.52 307.69 1645.32 307.794 Q1646.12 307.863 1647.09 308.037 L1647.13 314.599 Z" fill="#000000" fill-rule="nonzero" fill-opacity="1" /><path clip-path="url(#clip110)" d="M1685.53 326.474 L1685.53 329.599 L1656.15 329.599 Q1656.57 336.196 1660.11 339.669 Q1663.69 343.106 1670.04 343.106 Q1673.72 343.106 1677.16 342.203 Q1680.63 341.3 1684.04 339.495 L1684.04 345.537 Q1680.6 346.995 1676.99 347.759 Q1673.38 348.523 1669.66 348.523 Q1660.35 348.523 1654.9 343.106 Q1649.49 337.689 1649.49 328.453 Q1649.49 318.905 1654.63 313.315 Q1659.8 307.69 1668.55 307.69 Q1676.4 307.69 1680.94 312.759 Q1685.53 317.794 1685.53 326.474 M1679.14 324.599 Q1679.07 319.356 1676.19 316.231 Q1673.34 313.106 1668.62 313.106 Q1663.27 313.106 1660.04 316.127 Q1656.85 319.148 1656.36 324.634 L1679.14 324.599 Z" fill="#000000" fill-rule="nonzero" fill-opacity="1" /><path clip-path="url(#clip110)" d="M1715.7 293.488 L1715.7 298.801 L1709.59 298.801 Q1706.15 298.801 1704.8 300.19 Q1703.48 301.578 1703.48 305.19 L1703.48 308.627 L1714 308.627 L1714 313.592 L1703.48 313.592 L1703.48 347.516 L1697.06 347.516 L1697.06 313.592 L1690.94 313.592 L1690.94 308.627 L1697.06 308.627 L1697.06 305.919 Q1697.06 299.426 1700.08 296.474 Q1703.1 293.488 1709.66 293.488 L1715.7 293.488 Z" fill="#000000" fill-rule="nonzero" fill-opacity="1" /><path clip-path="url(#clip110)" d="M1754.31 326.474 L1754.31 329.599 L1724.94 329.599 Q1725.35 336.196 1728.9 339.669 Q1732.47 343.106 1738.83 343.106 Q1742.51 343.106 1745.94 342.203 Q1749.42 341.3 1752.82 339.495 L1752.82 345.537 Q1749.38 346.995 1745.77 347.759 Q1742.16 348.523 1738.44 348.523 Q1729.14 348.523 1723.69 343.106 Q1718.27 337.689 1718.27 328.453 Q1718.27 318.905 1723.41 313.315 Q1728.58 307.69 1737.33 307.69 Q1745.18 307.69 1749.73 312.759 Q1754.31 317.794 1754.31 326.474 M1747.92 324.599 Q1747.85 319.356 1744.97 316.231 Q1742.13 313.106 1737.4 313.106 Q1732.06 313.106 1728.83 316.127 Q1725.63 319.148 1725.15 324.634 L1747.92 324.599 Z" fill="#000000" fill-rule="nonzero" fill-opacity="1" /><path clip-path="url(#clip110)" d="M1787.33 314.599 Q1786.26 313.974 1784.97 313.696 Q1783.72 313.384 1782.19 313.384 Q1776.78 313.384 1773.86 316.926 Q1770.98 320.433 1770.98 327.03 L1770.98 347.516 L1764.56 347.516 L1764.56 308.627 L1770.98 308.627 L1770.98 314.669 Q1772.99 311.127 1776.22 309.426 Q1779.45 307.69 1784.07 307.69 Q1784.73 307.69 1785.53 307.794 Q1786.33 307.863 1787.3 308.037 L1787.33 314.599 Z" fill="#000000" fill-rule="nonzero" fill-opacity="1" /><path clip-path="url(#clip110)" d="M1825.74 326.474 L1825.74 329.599 L1796.36 329.599 Q1796.78 336.196 1800.32 339.669 Q1803.9 343.106 1810.25 343.106 Q1813.93 343.106 1817.37 342.203 Q1820.84 341.3 1824.24 339.495 L1824.24 345.537 Q1820.81 346.995 1817.19 347.759 Q1813.58 348.523 1809.87 348.523 Q1800.56 348.523 1795.11 343.106 Q1789.69 337.689 1789.69 328.453 Q1789.69 318.905 1794.83 313.315 Q1800.01 307.69 1808.76 307.69 Q1816.6 307.69 1821.15 312.759 Q1825.74 317.794 1825.74 326.474 M1819.35 324.599 Q1819.28 319.356 1816.4 316.231 Q1813.55 313.106 1808.83 313.106 Q1803.48 313.106 1800.25 316.127 Q1797.06 319.148 1796.57 324.634 L1819.35 324.599 Z" fill="#000000" fill-rule="nonzero" fill-opacity="1" /><path clip-path="url(#clip110)" d="M1868.55 324.044 L1868.55 347.516 L1862.16 347.516 L1862.16 324.252 Q1862.16 318.731 1860.01 315.988 Q1857.85 313.245 1853.55 313.245 Q1848.37 313.245 1845.39 316.544 Q1842.4 319.842 1842.4 325.537 L1842.4 347.516 L1835.98 347.516 L1835.98 308.627 L1842.4 308.627 L1842.4 314.669 Q1844.69 311.162 1847.78 309.426 Q1850.91 307.69 1854.97 307.69 Q1861.67 307.69 1865.11 311.856 Q1868.55 315.988 1868.55 324.044 Z" fill="#000000" fill-rule="nonzero" fill-opacity="1" /><path clip-path="url(#clip110)" d="M1909.28 310.12 L1909.28 316.092 Q1906.57 314.599 1903.83 313.87 Q1901.12 313.106 1898.34 313.106 Q1892.12 313.106 1888.69 317.064 Q1885.25 320.988 1885.25 328.106 Q1885.25 335.224 1888.69 339.182 Q1892.12 343.106 1898.34 343.106 Q1901.12 343.106 1903.83 342.377 Q1906.57 341.613 1909.28 340.12 L1909.28 346.023 Q1906.6 347.273 1903.72 347.898 Q1900.87 348.523 1897.65 348.523 Q1888.86 348.523 1883.69 343.002 Q1878.51 337.481 1878.51 328.106 Q1878.51 318.592 1883.72 313.141 Q1888.96 307.69 1898.06 307.69 Q1901.01 307.69 1903.83 308.315 Q1906.64 308.905 1909.28 310.12 Z" fill="#000000" fill-rule="nonzero" fill-opacity="1" /><path clip-path="url(#clip110)" d="M1953.65 326.474 L1953.65 329.599 L1924.28 329.599 Q1924.69 336.196 1928.24 339.669 Q1931.81 343.106 1938.17 343.106 Q1941.85 343.106 1945.28 342.203 Q1948.76 341.3 1952.16 339.495 L1952.16 345.537 Q1948.72 346.995 1945.11 347.759 Q1941.5 348.523 1937.78 348.523 Q1928.48 348.523 1923.03 343.106 Q1917.61 337.689 1917.61 328.453 Q1917.61 318.905 1922.75 313.315 Q1927.92 307.69 1936.67 307.69 Q1944.52 307.69 1949.07 312.759 Q1953.65 317.794 1953.65 326.474 M1947.26 324.599 Q1947.19 319.356 1944.31 316.231 Q1941.46 313.106 1936.74 313.106 Q1931.4 313.106 1928.17 316.127 Q1924.97 319.148 1924.49 324.634 L1947.26 324.599 Z" fill="#000000" fill-rule="nonzero" fill-opacity="1" /><polyline clip-path="url(#clip110)" style="stroke:#008000; stroke-linecap:round; stroke-linejoin:round; stroke-width:12; stroke-opacity:1; fill:none" stroke-dasharray="6, 12" points="1460.64,399.356 1600.96,399.356 "/>
<path clip-path="url(#clip110)" d="M1624.35 373.436 L1633.79 373.436 L1656.78 416.804 L1656.78 373.436 L1663.58 373.436 L1663.58 425.276 L1654.14 425.276 L1631.15 381.908 L1631.15 425.276 L1624.35 425.276 L1624.35 373.436 Z" fill="#000000" fill-rule="nonzero" fill-opacity="1" /><path clip-path="url(#clip110)" d="M1710.53 404.234 L1710.53 407.359 L1681.15 407.359 Q1681.57 413.956 1685.11 417.429 Q1688.69 420.866 1695.04 420.866 Q1698.72 420.866 1702.16 419.963 Q1705.63 419.06 1709.04 417.255 L1709.04 423.297 Q1705.6 424.755 1701.99 425.519 Q1698.38 426.283 1694.66 426.283 Q1685.35 426.283 1679.9 420.866 Q1674.49 415.449 1674.49 406.213 Q1674.49 396.665 1679.63 391.075 Q1684.8 385.45 1693.55 385.45 Q1701.4 385.45 1705.94 390.519 Q1710.53 395.554 1710.53 404.234 M1704.14 402.359 Q1704.07 397.116 1701.19 393.991 Q1698.34 390.866 1693.62 390.866 Q1688.27 390.866 1685.04 393.887 Q1681.85 396.908 1681.36 402.394 L1704.14 402.359 Z" fill="#000000" fill-rule="nonzero" fill-opacity="1" /><path clip-path="url(#clip110)" d="M1720.35 409.929 L1720.35 386.387 L1726.74 386.387 L1726.74 409.686 Q1726.74 415.206 1728.9 417.984 Q1731.05 420.727 1735.35 420.727 Q1740.53 420.727 1743.51 417.429 Q1746.53 414.13 1746.53 408.436 L1746.53 386.387 L1752.92 386.387 L1752.92 425.276 L1746.53 425.276 L1746.53 419.304 Q1744.21 422.845 1741.12 424.581 Q1738.06 426.283 1734 426.283 Q1727.3 426.283 1723.83 422.116 Q1720.35 417.949 1720.35 409.929 M1736.43 385.45 L1736.43 385.45 Z" fill="#000000" fill-rule="nonzero" fill-opacity="1" /><path clip-path="url(#clip110)" d="M1788.62 392.359 Q1787.54 391.734 1786.26 391.456 Q1785.01 391.144 1783.48 391.144 Q1778.06 391.144 1775.15 394.686 Q1772.26 398.193 1772.26 404.79 L1772.26 425.276 L1765.84 425.276 L1765.84 386.387 L1772.26 386.387 L1772.26 392.429 Q1774.28 388.887 1777.51 387.186 Q1780.74 385.45 1785.35 385.45 Q1786.01 385.45 1786.81 385.554 Q1787.61 385.623 1788.58 385.797 L1788.62 392.359 Z" fill="#000000" fill-rule="nonzero" fill-opacity="1" /><path clip-path="url(#clip110)" d="M1812.99 405.727 Q1805.25 405.727 1802.26 407.498 Q1799.28 409.269 1799.28 413.54 Q1799.28 416.942 1801.5 418.956 Q1803.76 420.935 1807.61 420.935 Q1812.92 420.935 1816.12 417.185 Q1819.35 413.401 1819.35 407.151 L1819.35 405.727 L1812.99 405.727 M1825.74 403.088 L1825.74 425.276 L1819.35 425.276 L1819.35 419.373 Q1817.16 422.915 1813.9 424.616 Q1810.63 426.283 1805.91 426.283 Q1799.94 426.283 1796.4 422.949 Q1792.89 419.581 1792.89 413.956 Q1792.89 407.394 1797.26 404.061 Q1801.67 400.727 1810.39 400.727 L1819.35 400.727 L1819.35 400.102 Q1819.35 395.693 1816.43 393.297 Q1813.55 390.866 1808.31 390.866 Q1804.97 390.866 1801.81 391.665 Q1798.65 392.463 1795.74 394.061 L1795.74 388.158 Q1799.24 386.804 1802.54 386.144 Q1805.84 385.45 1808.97 385.45 Q1817.4 385.45 1821.57 389.825 Q1825.74 394.199 1825.74 403.088 Z" fill="#000000" fill-rule="nonzero" fill-opacity="1" /><path clip-path="url(#clip110)" d="M1838.9 371.248 L1845.28 371.248 L1845.28 425.276 L1838.9 425.276 L1838.9 371.248 Z" fill="#000000" fill-rule="nonzero" fill-opacity="1" /><path clip-path="url(#clip110)" d="M1858.93 373.436 L1888.72 373.436 L1888.72 379.338 L1865.94 379.338 L1865.94 394.616 L1886.5 394.616 L1886.5 400.519 L1865.94 400.519 L1865.94 425.276 L1858.93 425.276 L1858.93 373.436 Z" fill="#000000" fill-rule="nonzero" fill-opacity="1" /><path clip-path="url(#clip110)" d="M1899.83 373.436 L1910.28 373.436 L1923.51 408.713 L1936.81 373.436 L1947.26 373.436 L1947.26 425.276 L1940.42 425.276 L1940.42 379.755 L1927.05 415.31 L1920.01 415.31 L1906.64 379.755 L1906.64 425.276 L1899.83 425.276 L1899.83 373.436 Z" fill="#000000" fill-rule="nonzero" fill-opacity="1" /><path clip-path="url(#clip110)" d="M1960.39 373.436 L1967.44 373.436 L1967.44 404.929 Q1967.44 413.262 1970.46 416.942 Q1973.48 420.588 1980.25 420.588 Q1986.99 420.588 1990.01 416.942 Q1993.03 413.262 1993.03 404.929 L1993.03 373.436 L2000.08 373.436 L2000.08 405.797 Q2000.08 415.935 1995.04 421.109 Q1990.04 426.283 1980.25 426.283 Q1970.42 426.283 1965.39 421.109 Q1960.39 415.935 1960.39 405.797 L1960.39 373.436 Z" fill="#000000" fill-rule="nonzero" fill-opacity="1" /><path clip-path="url(#clip110)" d="M2050.91 371.318 Q2046.26 379.304 2044 387.116 Q2041.74 394.929 2041.74 402.949 Q2041.74 410.97 2044 418.852 Q2046.29 426.699 2050.91 434.651 L2045.35 434.651 Q2040.14 426.491 2037.54 418.609 Q2034.97 410.727 2034.97 402.949 Q2034.97 395.206 2037.54 387.359 Q2040.11 379.512 2045.35 371.318 L2050.91 371.318 Z" fill="#000000" fill-rule="nonzero" fill-opacity="1" /><path clip-path="url(#clip110)" d="M2070.25 419.373 L2094.73 419.373 L2094.73 425.276 L2061.81 425.276 L2061.81 419.373 Q2065.8 415.241 2072.68 408.297 Q2079.59 401.318 2081.36 399.304 Q2084.73 395.519 2086.05 392.915 Q2087.4 390.276 2087.4 387.741 Q2087.4 383.609 2084.48 381.005 Q2081.6 378.401 2076.95 378.401 Q2073.65 378.401 2069.97 379.547 Q2066.32 380.693 2062.16 383.019 L2062.16 375.936 Q2066.39 374.234 2070.07 373.366 Q2073.76 372.498 2076.81 372.498 Q2084.87 372.498 2089.66 376.526 Q2094.45 380.554 2094.45 387.29 Q2094.45 390.484 2093.23 393.366 Q2092.05 396.213 2088.89 400.102 Q2088.03 401.109 2083.37 405.936 Q2078.72 410.727 2070.25 419.373 Z" fill="#000000" fill-rule="nonzero" fill-opacity="1" /><path clip-path="url(#clip110)" d="M2109.52 373.436 L2137.05 373.436 L2137.05 379.338 L2115.94 379.338 L2115.94 392.047 Q2117.47 391.526 2119 391.283 Q2120.53 391.005 2122.05 391.005 Q2130.73 391.005 2135.8 395.762 Q2140.87 400.519 2140.87 408.644 Q2140.87 417.012 2135.66 421.665 Q2130.46 426.283 2120.98 426.283 Q2117.71 426.283 2114.31 425.727 Q2110.94 425.172 2107.33 424.06 L2107.33 417.012 Q2110.46 418.713 2113.79 419.547 Q2117.12 420.38 2120.84 420.38 Q2126.85 420.38 2130.35 417.22 Q2133.86 414.06 2133.86 408.644 Q2133.86 403.227 2130.35 400.068 Q2126.85 396.908 2120.84 396.908 Q2118.03 396.908 2115.21 397.533 Q2112.44 398.158 2109.52 399.477 L2109.52 373.436 Z" fill="#000000" fill-rule="nonzero" fill-opacity="1" /><path clip-path="url(#clip110)" d="M2169.69 378.054 Q2164.28 378.054 2161.53 383.401 Q2158.82 388.713 2158.82 399.408 Q2158.82 410.067 2161.53 415.415 Q2164.28 420.727 2169.69 420.727 Q2175.14 420.727 2177.85 415.415 Q2180.6 410.067 2180.6 399.408 Q2180.6 388.713 2177.85 383.401 Q2175.14 378.054 2169.69 378.054 M2169.69 372.498 Q2178.41 372.498 2182.99 379.408 Q2187.61 386.283 2187.61 399.408 Q2187.61 412.498 2182.99 419.408 Q2178.41 426.283 2169.69 426.283 Q2160.98 426.283 2156.36 419.408 Q2151.78 412.498 2151.78 399.408 Q2151.78 386.283 2156.36 379.408 Q2160.98 372.498 2169.69 372.498 Z" fill="#000000" fill-rule="nonzero" fill-opacity="1" /><path clip-path="url(#clip110)" d="M2214.94 378.054 Q2209.52 378.054 2206.78 383.401 Q2204.07 388.713 2204.07 399.408 Q2204.07 410.067 2206.78 415.415 Q2209.52 420.727 2214.94 420.727 Q2220.39 420.727 2223.09 415.415 Q2225.84 410.067 2225.84 399.408 Q2225.84 388.713 2223.09 383.401 Q2220.39 378.054 2214.94 378.054 M2214.94 372.498 Q2223.65 372.498 2228.23 379.408 Q2232.85 386.283 2232.85 399.408 Q2232.85 412.498 2228.23 419.408 Q2223.65 426.283 2214.94 426.283 Q2206.22 426.283 2201.6 419.408 Q2197.02 412.498 2197.02 399.408 Q2197.02 386.283 2201.6 379.408 Q2206.22 372.498 2214.94 372.498 Z" fill="#000000" fill-rule="nonzero" fill-opacity="1" /><path clip-path="url(#clip110)" d="M2243.27 371.318 L2248.82 371.318 Q2254.03 379.512 2256.6 387.359 Q2259.21 395.206 2259.21 402.949 Q2259.21 410.727 2256.6 418.609 Q2254.03 426.491 2248.82 434.651 L2243.27 434.651 Q2247.89 426.699 2250.14 418.852 Q2252.43 410.97 2252.43 402.949 Q2252.43 394.929 2250.14 387.116 Q2247.89 379.304 2243.27 371.318 Z" fill="#000000" fill-rule="nonzero" fill-opacity="1" /></svg>
