<?xml version="1.0" encoding="utf-8"?>
<svg xmlns="http://www.w3.org/2000/svg" xmlns:xlink="http://www.w3.org/1999/xlink" width="600" height="400" viewBox="0 0 2400 1600">
<defs>
  <clipPath id="clip470">
    <rect x="0" y="0" width="2400" height="1600"/>
  </clipPath>
</defs>
<path clip-path="url(#clip470)" d="M0 1600 L2400 1600 L2400 0 L0 0  Z" fill="#ffffff" fill-rule="evenodd" fill-opacity="1"/>
<defs>
  <clipPath id="clip471">
    <rect x="480" y="0" width="1681" height="1600"/>
  </clipPath>
</defs>
<path clip-path="url(#clip470)" d="M314.024 1401.58 L2352.76 1401.58 L2352.76 123.472 L314.024 123.472  Z" fill="#ffffff" fill-rule="evenodd" fill-opacity="1"/>
<defs>
  <clipPath id="clip472">
    <rect x="314" y="123" width="2040" height="1279"/>
  </clipPath>
</defs>
<polyline clip-path="url(#clip472)" style="stroke:#000000; stroke-linecap:round; stroke-linejoin:round; stroke-width:2; stroke-opacity:0.1; fill:none" points="371.724,1401.58 371.724,123.472 "/>
<polyline clip-path="url(#clip472)" style="stroke:#000000; stroke-linecap:round; stroke-linejoin:round; stroke-width:2; stroke-opacity:0.1; fill:none" points="852.557,1401.58 852.557,123.472 "/>
<polyline clip-path="url(#clip472)" style="stroke:#000000; stroke-linecap:round; stroke-linejoin:round; stroke-width:2; stroke-opacity:0.1; fill:none" points="1333.39,1401.58 1333.39,123.472 "/>
<polyline clip-path="url(#clip472)" style="stroke:#000000; stroke-linecap:round; stroke-linejoin:round; stroke-width:2; stroke-opacity:0.1; fill:none" points="1814.22,1401.58 1814.22,123.472 "/>
<polyline clip-path="url(#clip472)" style="stroke:#000000; stroke-linecap:round; stroke-linejoin:round; stroke-width:2; stroke-opacity:0.1; fill:none" points="2295.06,1401.58 2295.06,123.472 "/>
<polyline clip-path="url(#clip470)" style="stroke:#000000; stroke-linecap:round; stroke-linejoin:round; stroke-width:4; stroke-opacity:1; fill:none" points="314.024,1401.58 2352.76,1401.58 "/>
<polyline clip-path="url(#clip470)" style="stroke:#000000; stroke-linecap:round; stroke-linejoin:round; stroke-width:4; stroke-opacity:1; fill:none" points="371.724,1401.58 371.724,1382.68 "/>
<polyline clip-path="url(#clip470)" style="stroke:#000000; stroke-linecap:round; stroke-linejoin:round; stroke-width:4; stroke-opacity:1; fill:none" points="852.557,1401.58 852.557,1382.68 "/>
<polyline clip-path="url(#clip470)" style="stroke:#000000; stroke-linecap:round; stroke-linejoin:round; stroke-width:4; stroke-opacity:1; fill:none" points="1333.39,1401.58 1333.39,1382.68 "/>
<polyline clip-path="url(#clip470)" style="stroke:#000000; stroke-linecap:round; stroke-linejoin:round; stroke-width:4; stroke-opacity:1; fill:none" points="1814.22,1401.58 1814.22,1382.68 "/>
<polyline clip-path="url(#clip470)" style="stroke:#000000; stroke-linecap:round; stroke-linejoin:round; stroke-width:4; stroke-opacity:1; fill:none" points="2295.06,1401.58 2295.06,1382.68 "/>
<path clip-path="url(#clip470)" d="M371.724 1438.36 Q366.307 1438.36 363.564 1443.71 Q360.856 1449.02 360.856 1459.71 Q360.856 1470.37 363.564 1475.72 Q366.307 1481.03 371.724 1481.03 Q377.175 1481.03 379.883 1475.72 Q382.626 1470.37 382.626 1459.71 Q382.626 1449.02 379.883 1443.71 Q377.175 1438.36 371.724 1438.36 M371.724 1432.8 Q380.439 1432.8 385.022 1439.71 Q389.64 1446.59 389.64 1459.71 Q389.64 1472.8 385.022 1479.71 Q380.439 1486.59 371.724 1486.59 Q363.008 1486.59 358.39 1479.71 Q353.807 1472.8 353.807 1459.71 Q353.807 1446.59 358.39 1439.71 Q363.008 1432.8 371.724 1432.8 Z" fill="#000000" fill-rule="nonzero" fill-opacity="1" /><path clip-path="url(#clip470)" d="M838.13 1479.68 L849.588 1479.68 L849.588 1440.13 L837.123 1442.63 L837.123 1436.24 L849.519 1433.74 L856.532 1433.74 L856.532 1479.68 L867.991 1479.68 L867.991 1485.58 L838.13 1485.58 L838.13 1479.68 Z" fill="#000000" fill-rule="nonzero" fill-opacity="1" /><path clip-path="url(#clip470)" d="M1325.37 1479.68 L1349.85 1479.68 L1349.85 1485.58 L1316.93 1485.58 L1316.93 1479.68 Q1320.92 1475.55 1327.8 1468.6 Q1334.71 1461.62 1336.48 1459.61 Q1339.85 1455.82 1341.17 1453.22 Q1342.52 1450.58 1342.52 1448.05 Q1342.52 1443.91 1339.61 1441.31 Q1336.72 1438.71 1332.07 1438.71 Q1328.77 1438.71 1325.09 1439.85 Q1321.45 1441 1317.28 1443.32 L1317.28 1436.24 Q1321.51 1434.54 1325.2 1433.67 Q1328.88 1432.8 1331.93 1432.8 Q1339.99 1432.8 1344.78 1436.83 Q1349.57 1440.86 1349.57 1447.59 Q1349.57 1450.79 1348.36 1453.67 Q1347.17 1456.52 1344.01 1460.41 Q1343.15 1461.41 1338.49 1466.24 Q1333.84 1471.03 1325.37 1479.68 Z" fill="#000000" fill-rule="nonzero" fill-opacity="1" /><path clip-path="url(#clip470)" d="M1820.59 1457.63 Q1825.63 1458.7 1828.44 1462.11 Q1831.29 1465.51 1831.29 1470.51 Q1831.29 1478.18 1826.01 1482.39 Q1820.73 1486.59 1811.01 1486.59 Q1807.75 1486.59 1804.28 1485.93 Q1800.84 1485.3 1797.16 1484.02 L1797.16 1477.25 Q1800.07 1478.95 1803.55 1479.82 Q1807.02 1480.68 1810.8 1480.68 Q1817.4 1480.68 1820.84 1478.08 Q1824.31 1475.48 1824.31 1470.51 Q1824.31 1465.93 1821.08 1463.36 Q1817.89 1460.75 1812.16 1460.75 L1806.12 1460.75 L1806.12 1454.99 L1812.43 1454.99 Q1817.61 1454.99 1820.35 1452.94 Q1823.09 1450.86 1823.09 1446.97 Q1823.09 1442.98 1820.25 1440.86 Q1817.43 1438.71 1812.16 1438.71 Q1809.27 1438.71 1805.98 1439.33 Q1802.68 1439.96 1798.72 1441.27 L1798.72 1435.02 Q1802.71 1433.91 1806.18 1433.36 Q1809.69 1432.8 1812.78 1432.8 Q1820.77 1432.8 1825.42 1436.45 Q1830.07 1440.06 1830.07 1446.24 Q1830.07 1450.55 1827.61 1453.53 Q1825.14 1456.48 1820.59 1457.63 Z" fill="#000000" fill-rule="nonzero" fill-opacity="1" /><path clip-path="url(#clip470)" d="M2299.57 1439.85 L2281.86 1467.52 L2299.57 1467.52 L2299.57 1439.85 M2297.73 1433.74 L2306.55 1433.74 L2306.55 1467.52 L2313.94 1467.52 L2313.94 1473.36 L2306.55 1473.36 L2306.55 1485.58 L2299.57 1485.58 L2299.57 1473.36 L2276.17 1473.36 L2276.17 1466.59 L2297.73 1433.74 Z" fill="#000000" fill-rule="nonzero" fill-opacity="1" /><path clip-path="url(#clip470)" d="M1277 1527.62 L1277 1538.66 L1290.16 1538.66 L1290.16 1543.62 L1277 1543.62 L1277 1564.74 Q1277 1569.49 1278.29 1570.85 Q1279.61 1572.2 1283.6 1572.2 L1290.16 1572.2 L1290.16 1577.55 L1283.6 1577.55 Q1276.2 1577.55 1273.39 1574.8 Q1270.58 1572.03 1270.58 1564.74 L1270.58 1543.62 L1265.89 1543.62 L1265.89 1538.66 L1270.58 1538.66 L1270.58 1527.62 L1277 1527.62 Z" fill="#000000" fill-rule="nonzero" fill-opacity="1" /><path clip-path="url(#clip470)" d="M1320.58 1523.52 L1335.3 1523.52 L1335.3 1528.49 L1326.97 1528.49 L1326.97 1581.96 L1335.3 1581.96 L1335.3 1586.92 L1320.58 1586.92 L1320.58 1523.52 Z" fill="#000000" fill-rule="nonzero" fill-opacity="1" /><path clip-path="url(#clip470)" d="M1373.7 1539.8 L1373.7 1545.85 Q1370.99 1544.46 1368.08 1543.76 Q1365.16 1543.07 1362.04 1543.07 Q1357.28 1543.07 1354.88 1544.53 Q1352.52 1545.99 1352.52 1548.9 Q1352.52 1551.12 1354.22 1552.41 Q1355.92 1553.66 1361.06 1554.8 L1363.25 1555.29 Q1370.06 1556.75 1372.9 1559.42 Q1375.79 1562.06 1375.79 1566.82 Q1375.79 1572.24 1371.48 1575.4 Q1367.21 1578.55 1359.71 1578.55 Q1356.58 1578.55 1353.18 1577.93 Q1349.81 1577.34 1346.06 1576.12 L1346.06 1569.53 Q1349.61 1571.37 1353.04 1572.3 Q1356.48 1573.21 1359.85 1573.21 Q1364.36 1573.21 1366.79 1571.68 Q1369.22 1570.12 1369.22 1567.3 Q1369.22 1564.7 1367.45 1563.31 Q1365.72 1561.92 1359.78 1560.64 L1357.56 1560.12 Q1351.62 1558.87 1348.98 1556.3 Q1346.34 1553.69 1346.34 1549.18 Q1346.34 1543.69 1350.23 1540.71 Q1354.12 1537.72 1361.27 1537.72 Q1364.81 1537.72 1367.94 1538.24 Q1371.06 1538.76 1373.7 1539.8 Z" fill="#000000" fill-rule="nonzero" fill-opacity="1" /><path clip-path="url(#clip470)" d="M1400.89 1523.52 L1400.89 1586.92 L1386.17 1586.92 L1386.17 1581.96 L1394.47 1581.96 L1394.47 1528.49 L1386.17 1528.49 L1386.17 1523.52 L1400.89 1523.52 Z" fill="#000000" fill-rule="nonzero" fill-opacity="1" /><polyline clip-path="url(#clip472)" style="stroke:#000000; stroke-linecap:round; stroke-linejoin:round; stroke-width:2; stroke-opacity:0.1; fill:none" points="314.024,1377.01 2352.76,1377.01 "/>
<polyline clip-path="url(#clip472)" style="stroke:#000000; stroke-linecap:round; stroke-linejoin:round; stroke-width:2; stroke-opacity:0.1; fill:none" points="314.024,1072.67 2352.76,1072.67 "/>
<polyline clip-path="url(#clip472)" style="stroke:#000000; stroke-linecap:round; stroke-linejoin:round; stroke-width:2; stroke-opacity:0.1; fill:none" points="314.024,768.33 2352.76,768.33 "/>
<polyline clip-path="url(#clip472)" style="stroke:#000000; stroke-linecap:round; stroke-linejoin:round; stroke-width:2; stroke-opacity:0.1; fill:none" points="314.024,463.987 2352.76,463.987 "/>
<polyline clip-path="url(#clip472)" style="stroke:#000000; stroke-linecap:round; stroke-linejoin:round; stroke-width:2; stroke-opacity:0.1; fill:none" points="314.024,159.645 2352.76,159.645 "/>
<polyline clip-path="url(#clip470)" style="stroke:#000000; stroke-linecap:round; stroke-linejoin:round; stroke-width:4; stroke-opacity:1; fill:none" points="314.024,1401.58 314.024,123.472 "/>
<polyline clip-path="url(#clip470)" style="stroke:#000000; stroke-linecap:round; stroke-linejoin:round; stroke-width:4; stroke-opacity:1; fill:none" points="314.024,1377.01 332.921,1377.01 "/>
<polyline clip-path="url(#clip470)" style="stroke:#000000; stroke-linecap:round; stroke-linejoin:round; stroke-width:4; stroke-opacity:1; fill:none" points="314.024,1072.67 332.921,1072.67 "/>
<polyline clip-path="url(#clip470)" style="stroke:#000000; stroke-linecap:round; stroke-linejoin:round; stroke-width:4; stroke-opacity:1; fill:none" points="314.024,768.33 332.921,768.33 "/>
<polyline clip-path="url(#clip470)" style="stroke:#000000; stroke-linecap:round; stroke-linejoin:round; stroke-width:4; stroke-opacity:1; fill:none" points="314.024,463.987 332.921,463.987 "/>
<polyline clip-path="url(#clip470)" style="stroke:#000000; stroke-linecap:round; stroke-linejoin:round; stroke-width:4; stroke-opacity:1; fill:none" points="314.024,159.645 332.921,159.645 "/>
<path clip-path="url(#clip470)" d="M118.58 1377.69 L163.094 1377.69 L163.094 1383.59 L118.58 1383.59 L118.58 1377.69 Z" fill="#000000" fill-rule="nonzero" fill-opacity="1" /><path clip-path="url(#clip470)" d="M193.233 1355.71 Q187.816 1355.71 185.073 1361.06 Q182.365 1366.37 182.365 1377.07 Q182.365 1387.73 185.073 1393.07 Q187.816 1398.39 193.233 1398.39 Q198.684 1398.39 201.392 1393.07 Q204.135 1387.73 204.135 1377.07 Q204.135 1366.37 201.392 1361.06 Q198.684 1355.71 193.233 1355.71 M193.233 1350.16 Q201.948 1350.16 206.531 1357.07 Q211.149 1363.94 211.149 1377.07 Q211.149 1390.16 206.531 1397.07 Q201.948 1403.94 193.233 1403.94 Q184.517 1403.94 179.899 1397.07 Q175.316 1390.16 175.316 1377.07 Q175.316 1363.94 179.899 1357.07 Q184.517 1350.16 193.233 1350.16 Z" fill="#000000" fill-rule="nonzero" fill-opacity="1" /><path clip-path="url(#clip470)" d="M223.475 1394.11 L230.802 1394.11 L230.802 1402.93 L223.475 1402.93 L223.475 1394.11 Z" fill="#000000" fill-rule="nonzero" fill-opacity="1" /><path clip-path="url(#clip470)" d="M267.329 1374.98 Q272.364 1376.06 275.177 1379.46 Q278.024 1382.86 278.024 1387.86 Q278.024 1395.54 272.746 1399.74 Q267.468 1403.94 257.746 1403.94 Q254.482 1403.94 251.01 1403.28 Q247.573 1402.66 243.892 1401.37 L243.892 1394.6 Q246.809 1396.3 250.281 1397.17 Q253.753 1398.04 257.538 1398.04 Q264.135 1398.04 267.572 1395.43 Q271.045 1392.83 271.045 1387.86 Q271.045 1383.28 267.815 1380.71 Q264.621 1378.11 258.892 1378.11 L252.85 1378.11 L252.85 1372.34 L259.17 1372.34 Q264.343 1372.34 267.086 1370.3 Q269.829 1368.21 269.829 1364.32 Q269.829 1360.33 266.982 1358.21 Q264.17 1356.06 258.892 1356.06 Q256.01 1356.06 252.711 1356.68 Q249.413 1357.31 245.454 1358.63 L245.454 1352.38 Q249.448 1351.27 252.92 1350.71 Q256.427 1350.16 259.517 1350.16 Q267.503 1350.16 272.156 1353.8 Q276.808 1357.41 276.808 1363.59 Q276.808 1367.9 274.343 1370.89 Q271.878 1373.84 267.329 1374.98 Z" fill="#000000" fill-rule="nonzero" fill-opacity="1" /><path clip-path="url(#clip470)" d="M120.004 1073.35 L164.517 1073.35 L164.517 1079.25 L120.004 1079.25 L120.004 1073.35 Z" fill="#000000" fill-rule="nonzero" fill-opacity="1" /><path clip-path="url(#clip470)" d="M194.656 1051.37 Q189.24 1051.37 186.496 1056.72 Q183.788 1062.03 183.788 1072.72 Q183.788 1083.38 186.496 1088.73 Q189.24 1094.04 194.656 1094.04 Q200.107 1094.04 202.816 1088.73 Q205.559 1083.38 205.559 1072.72 Q205.559 1062.03 202.816 1056.72 Q200.107 1051.37 194.656 1051.37 M194.656 1045.81 Q203.371 1045.81 207.955 1052.72 Q212.573 1059.6 212.573 1072.72 Q212.573 1085.81 207.955 1092.72 Q203.371 1099.6 194.656 1099.6 Q185.941 1099.6 181.323 1092.72 Q176.74 1085.81 176.74 1072.72 Q176.74 1059.6 181.323 1052.72 Q185.941 1045.81 194.656 1045.81 Z" fill="#000000" fill-rule="nonzero" fill-opacity="1" /><path clip-path="url(#clip470)" d="M224.899 1089.77 L232.225 1089.77 L232.225 1098.59 L224.899 1098.59 L224.899 1089.77 Z" fill="#000000" fill-rule="nonzero" fill-opacity="1" /><path clip-path="url(#clip470)" d="M253.545 1092.69 L278.024 1092.69 L278.024 1098.59 L245.107 1098.59 L245.107 1092.69 Q249.1 1088.56 255.975 1081.61 Q262.885 1074.63 264.656 1072.62 Q268.024 1068.84 269.343 1066.23 Q270.697 1063.59 270.697 1061.06 Q270.697 1056.93 267.781 1054.32 Q264.899 1051.72 260.246 1051.72 Q256.947 1051.72 253.267 1052.86 Q249.621 1054.01 245.454 1056.34 L245.454 1049.25 Q249.691 1047.55 253.371 1046.68 Q257.052 1045.81 260.107 1045.81 Q268.163 1045.81 272.954 1049.84 Q277.746 1053.87 277.746 1060.61 Q277.746 1063.8 276.531 1066.68 Q275.35 1069.53 272.19 1073.42 Q271.322 1074.43 266.67 1079.25 Q262.017 1084.04 253.545 1092.69 Z" fill="#000000" fill-rule="nonzero" fill-opacity="1" /><path clip-path="url(#clip470)" d="M119.448 769.007 L163.962 769.007 L163.962 774.909 L119.448 774.909 L119.448 769.007 Z" fill="#000000" fill-rule="nonzero" fill-opacity="1" /><path clip-path="url(#clip470)" d="M194.101 747.028 Q188.684 747.028 185.941 752.375 Q183.233 757.687 183.233 768.382 Q183.233 779.041 185.941 784.389 Q188.684 789.701 194.101 789.701 Q199.552 789.701 202.26 784.389 Q205.003 779.041 205.003 768.382 Q205.003 757.687 202.26 752.375 Q199.552 747.028 194.101 747.028 M194.101 741.472 Q202.816 741.472 207.399 748.382 Q212.017 755.257 212.017 768.382 Q212.017 781.472 207.399 788.382 Q202.816 795.257 194.101 795.257 Q185.385 795.257 180.767 788.382 Q176.184 781.472 176.184 768.382 Q176.184 755.257 180.767 748.382 Q185.385 741.472 194.101 741.472 Z" fill="#000000" fill-rule="nonzero" fill-opacity="1" /><path clip-path="url(#clip470)" d="M224.343 785.43 L231.67 785.43 L231.67 794.25 L224.343 794.25 L224.343 785.43 Z" fill="#000000" fill-rule="nonzero" fill-opacity="1" /><path clip-path="url(#clip470)" d="M248.163 788.347 L259.621 788.347 L259.621 748.798 L247.156 751.298 L247.156 744.91 L259.552 742.41 L266.565 742.41 L266.565 788.347 L278.024 788.347 L278.024 794.25 L248.163 794.25 L248.163 788.347 Z" fill="#000000" fill-rule="nonzero" fill-opacity="1" /><path clip-path="url(#clip470)" d="M192.26 442.685 Q186.844 442.685 184.101 448.033 Q181.392 453.345 181.392 464.039 Q181.392 474.699 184.101 480.046 Q186.844 485.359 192.26 485.359 Q197.712 485.359 200.42 480.046 Q203.163 474.699 203.163 464.039 Q203.163 453.345 200.42 448.033 Q197.712 442.685 192.26 442.685 M192.26 437.13 Q200.976 437.13 205.559 444.04 Q210.177 450.914 210.177 464.039 Q210.177 477.13 205.559 484.039 Q200.976 490.914 192.26 490.914 Q183.545 490.914 178.927 484.039 Q174.344 477.13 174.344 464.039 Q174.344 450.914 178.927 444.04 Q183.545 437.13 192.26 437.13 Z" fill="#000000" fill-rule="nonzero" fill-opacity="1" /><path clip-path="url(#clip470)" d="M222.503 481.088 L229.83 481.088 L229.83 489.907 L222.503 489.907 L222.503 481.088 Z" fill="#000000" fill-rule="nonzero" fill-opacity="1" /><path clip-path="url(#clip470)" d="M260.107 442.685 Q254.691 442.685 251.947 448.033 Q249.239 453.345 249.239 464.039 Q249.239 474.699 251.947 480.046 Q254.691 485.359 260.107 485.359 Q265.559 485.359 268.267 480.046 Q271.01 474.699 271.01 464.039 Q271.01 453.345 268.267 448.033 Q265.559 442.685 260.107 442.685 M260.107 437.13 Q268.822 437.13 273.406 444.04 Q278.024 450.914 278.024 464.039 Q278.024 477.13 273.406 484.039 Q268.822 490.914 260.107 490.914 Q251.392 490.914 246.774 484.039 Q242.191 477.13 242.191 464.039 Q242.191 450.914 246.774 444.04 Q251.392 437.13 260.107 437.13 Z" fill="#000000" fill-rule="nonzero" fill-opacity="1" /><path clip-path="url(#clip470)" d="M194.101 138.343 Q188.684 138.343 185.941 143.69 Q183.233 149.003 183.233 159.697 Q183.233 170.357 185.941 175.704 Q188.684 181.016 194.101 181.016 Q199.552 181.016 202.26 175.704 Q205.003 170.357 205.003 159.697 Q205.003 149.003 202.26 143.69 Q199.552 138.343 194.101 138.343 M194.101 132.787 Q202.816 132.787 207.399 139.697 Q212.017 146.572 212.017 159.697 Q212.017 172.787 207.399 179.697 Q202.816 186.572 194.101 186.572 Q185.385 186.572 180.767 179.697 Q176.184 172.787 176.184 159.697 Q176.184 146.572 180.767 139.697 Q185.385 132.787 194.101 132.787 Z" fill="#000000" fill-rule="nonzero" fill-opacity="1" /><path clip-path="url(#clip470)" d="M224.343 176.746 L231.67 176.746 L231.67 185.565 L224.343 185.565 L224.343 176.746 Z" fill="#000000" fill-rule="nonzero" fill-opacity="1" /><path clip-path="url(#clip470)" d="M248.163 179.662 L259.621 179.662 L259.621 140.114 L247.156 142.614 L247.156 136.225 L259.552 133.725 L266.565 133.725 L266.565 179.662 L278.024 179.662 L278.024 185.565 L248.163 185.565 L248.163 179.662 Z" fill="#000000" fill-rule="nonzero" fill-opacity="1" /><path clip-path="url(#clip470)" d="M34.0422 1042.44 L13.0007 1042.44 L13.0007 1036.05 L67.0282 1036.05 L67.0282 1042.44 L61.1949 1042.44 Q64.6671 1044.45 66.3684 1047.54 Q68.0351 1050.6 68.0351 1054.9 Q68.0351 1061.95 62.4101 1066.4 Q56.7852 1070.81 47.6185 1070.81 Q38.4519 1070.81 32.827 1066.4 Q27.202 1061.95 27.202 1054.9 Q27.202 1050.6 28.9034 1047.54 Q30.57 1044.45 34.0422 1042.44 M47.6185 1064.21 Q54.6671 1064.21 58.6949 1061.33 Q62.6879 1058.41 62.6879 1053.34 Q62.6879 1048.27 58.6949 1045.35 Q54.6671 1042.44 47.6185 1042.44 Q40.57 1042.44 36.5769 1045.35 Q32.5492 1048.27 32.5492 1053.34 Q32.5492 1058.41 36.5769 1061.33 Q40.57 1064.21 47.6185 1064.21 Z" fill="#000000" fill-rule="nonzero" fill-opacity="1" /><path clip-path="url(#clip470)" d="M28.1395 1022.89 L28.1395 1016.5 L67.0282 1016.5 L67.0282 1022.89 L28.1395 1022.89 M13.0007 1022.89 L13.0007 1016.5 L21.0909 1016.5 L21.0909 1022.89 L13.0007 1022.89 Z" fill="#000000" fill-rule="nonzero" fill-opacity="1" /><path clip-path="url(#clip470)" d="M29.2853 978.341 L35.3269 978.341 Q33.9381 981.049 33.2436 983.966 Q32.5492 986.882 32.5492 990.007 Q32.5492 994.764 34.0075 997.16 Q35.4658 999.521 38.3825 999.521 Q40.6047 999.521 41.8894 997.82 Q43.1394 996.118 44.2852 990.98 L44.7713 988.792 Q46.2297 981.987 48.9033 979.139 Q51.5421 976.257 56.299 976.257 Q61.7157 976.257 64.8754 980.563 Q68.0351 984.834 68.0351 992.334 Q68.0351 995.459 67.4101 998.862 Q66.8198 1002.23 65.6046 1005.98 L59.0074 1005.98 Q60.8476 1002.44 61.7851 999 Q62.6879 995.563 62.6879 992.195 Q62.6879 987.681 61.1601 985.25 Q59.5976 982.82 56.7852 982.82 Q54.181 982.82 52.7921 984.591 Q51.4032 986.327 50.1185 992.264 L49.5977 994.487 Q48.3477 1000.42 45.7783 1003.06 Q43.1741 1005.7 38.6603 1005.7 Q33.1742 1005.7 30.1881 1001.81 Q27.202 997.924 27.202 990.771 Q27.202 987.23 27.7228 984.105 Q28.2436 980.98 29.2853 978.341 Z" fill="#000000" fill-rule="nonzero" fill-opacity="1" /><path clip-path="url(#clip470)" d="M61.1949 959.903 L81.8197 959.903 L81.8197 966.327 L28.1395 966.327 L28.1395 959.903 L34.0422 959.903 Q30.57 957.89 28.9034 954.834 Q27.202 951.744 27.202 947.473 Q27.202 940.39 32.827 935.98 Q38.4519 931.535 47.6185 931.535 Q56.7852 931.535 62.4101 935.98 Q68.0351 940.39 68.0351 947.473 Q68.0351 951.744 66.3684 954.834 Q64.6671 957.89 61.1949 959.903 M47.6185 938.167 Q40.57 938.167 36.5769 941.084 Q32.5492 943.966 32.5492 949.035 Q32.5492 954.105 36.5769 957.021 Q40.57 959.903 47.6185 959.903 Q54.6671 959.903 58.6949 957.021 Q62.6879 954.105 62.6879 949.035 Q62.6879 943.966 58.6949 941.084 Q54.6671 938.167 47.6185 938.167 Z" fill="#000000" fill-rule="nonzero" fill-opacity="1" /><path clip-path="url(#clip470)" d="M13.0007 920.945 L13.0007 914.556 L67.0282 914.556 L67.0282 920.945 L13.0007 920.945 Z" fill="#000000" fill-rule="nonzero" fill-opacity="1" /><path clip-path="url(#clip470)" d="M47.4797 883.515 Q47.4797 891.258 49.2505 894.244 Q51.0213 897.23 55.2921 897.23 Q58.6949 897.23 60.7087 895.008 Q62.6879 892.751 62.6879 888.897 Q62.6879 883.584 58.9379 880.39 Q55.1532 877.161 48.9033 877.161 L47.4797 877.161 L47.4797 883.515 M44.8408 870.772 L67.0282 870.772 L67.0282 877.161 L61.1254 877.161 Q64.6671 879.348 66.3684 882.612 Q68.0351 885.876 68.0351 890.598 Q68.0351 896.57 64.7018 900.112 Q61.3337 903.619 55.7088 903.619 Q49.1463 903.619 45.813 899.244 Q42.4797 894.834 42.4797 886.119 L42.4797 877.161 L41.8547 877.161 Q37.445 877.161 35.0492 880.077 Q32.6186 882.959 32.6186 888.202 Q32.6186 891.536 33.4172 894.695 Q34.2158 897.855 35.813 900.772 L29.9103 900.772 Q28.5561 897.265 27.8964 893.966 Q27.202 890.668 27.202 887.543 Q27.202 879.105 31.577 874.939 Q35.9519 870.772 44.8408 870.772 Z" fill="#000000" fill-rule="nonzero" fill-opacity="1" /><path clip-path="url(#clip470)" d="M29.6325 829.626 L35.6047 829.626 Q34.1117 832.335 33.3825 835.078 Q32.6186 837.786 32.6186 840.564 Q32.6186 846.779 36.5769 850.216 Q40.5005 853.654 47.6185 853.654 Q54.7366 853.654 58.6949 850.216 Q62.6185 846.779 62.6185 840.564 Q62.6185 837.786 61.8893 835.078 Q61.1254 832.335 59.6324 829.626 L65.5351 829.626 Q66.7851 832.3 67.4101 835.182 Q68.0351 838.029 68.0351 841.258 Q68.0351 850.043 62.5143 855.216 Q56.9935 860.39 47.6185 860.39 Q38.1047 860.39 32.6533 855.182 Q27.202 849.939 27.202 840.842 Q27.202 837.89 27.827 835.078 Q28.4173 832.265 29.6325 829.626 Z" fill="#000000" fill-rule="nonzero" fill-opacity="1" /><path clip-path="url(#clip470)" d="M45.9866 785.252 L49.1116 785.252 L49.1116 814.626 Q55.7088 814.21 59.181 810.668 Q62.6185 807.092 62.6185 800.738 Q62.6185 797.057 61.7157 793.62 Q60.8129 790.147 59.0074 786.745 L65.049 786.745 Q66.5073 790.182 67.2712 793.793 Q68.0351 797.404 68.0351 801.12 Q68.0351 810.425 62.6185 815.876 Q57.2018 821.293 47.9658 821.293 Q38.4172 821.293 32.827 816.154 Q27.202 810.981 27.202 802.231 Q27.202 794.383 32.2714 789.835 Q37.3061 785.252 45.9866 785.252 M44.1116 791.64 Q38.8686 791.71 35.7436 794.592 Q32.6186 797.439 32.6186 802.161 Q32.6186 807.508 35.6394 810.738 Q38.6603 813.932 44.1463 814.418 L44.1116 791.64 Z" fill="#000000" fill-rule="nonzero" fill-opacity="1" /><path clip-path="url(#clip470)" d="M35.6047 744.488 Q31.2992 742.092 29.2506 738.759 Q27.202 735.425 27.202 730.912 Q27.202 724.835 31.4728 721.537 Q35.7089 718.238 43.5561 718.238 L67.0282 718.238 L67.0282 724.662 L43.7644 724.662 Q38.1741 724.662 35.4658 726.641 Q32.7575 728.62 32.7575 732.682 Q32.7575 737.648 36.0561 740.53 Q39.3547 743.412 45.0491 743.412 L67.0282 743.412 L67.0282 749.835 L43.7644 749.835 Q38.1394 749.835 35.4658 751.814 Q32.7575 753.793 32.7575 757.925 Q32.7575 762.821 36.0908 765.703 Q39.3894 768.585 45.0491 768.585 L67.0282 768.585 L67.0282 775.009 L28.1395 775.009 L28.1395 768.585 L34.1811 768.585 Q30.6047 766.397 28.9034 763.342 Q27.202 760.286 27.202 756.085 Q27.202 751.849 29.3547 748.898 Q31.5075 745.911 35.6047 744.488 Z" fill="#000000" fill-rule="nonzero" fill-opacity="1" /><path clip-path="url(#clip470)" d="M45.9866 672.231 L49.1116 672.231 L49.1116 701.606 Q55.7088 701.19 59.181 697.648 Q62.6185 694.071 62.6185 687.717 Q62.6185 684.037 61.7157 680.599 Q60.8129 677.127 59.0074 673.724 L65.049 673.724 Q66.5073 677.162 67.2712 680.773 Q68.0351 684.384 68.0351 688.099 Q68.0351 697.405 62.6185 702.856 Q57.2018 708.273 47.9658 708.273 Q38.4172 708.273 32.827 703.134 Q27.202 697.96 27.202 689.21 Q27.202 681.363 32.2714 676.815 Q37.3061 672.231 45.9866 672.231 M44.1116 678.62 Q38.8686 678.69 35.7436 681.572 Q32.6186 684.419 32.6186 689.141 Q32.6186 694.488 35.6394 697.717 Q38.6603 700.912 44.1463 701.398 L44.1116 678.62 Z" fill="#000000" fill-rule="nonzero" fill-opacity="1" /><path clip-path="url(#clip470)" d="M43.5561 629.419 L67.0282 629.419 L67.0282 635.808 L43.7644 635.808 Q38.2436 635.808 35.5005 637.961 Q32.7575 640.113 32.7575 644.419 Q32.7575 649.593 36.0561 652.579 Q39.3547 655.565 45.0491 655.565 L67.0282 655.565 L67.0282 661.988 L28.1395 661.988 L28.1395 655.565 L34.1811 655.565 Q30.6742 653.273 28.9381 650.183 Q27.202 647.058 27.202 642.995 Q27.202 636.294 31.3686 632.857 Q35.5005 629.419 43.5561 629.419 Z" fill="#000000" fill-rule="nonzero" fill-opacity="1" /><path clip-path="url(#clip470)" d="M17.0979 610.357 L28.1395 610.357 L28.1395 597.197 L33.1047 597.197 L33.1047 610.357 L54.2157 610.357 Q58.9726 610.357 60.3268 609.072 Q61.681 607.753 61.681 603.759 L61.681 597.197 L67.0282 597.197 L67.0282 603.759 Q67.0282 611.155 64.2851 613.968 Q61.5074 616.78 54.2157 616.78 L33.1047 616.78 L33.1047 621.468 L28.1395 621.468 L28.1395 616.78 L17.0979 616.78 L17.0979 610.357 Z" fill="#000000" fill-rule="nonzero" fill-opacity="1" /><path clip-path="url(#clip470)" d="M13.0007 566.781 L13.0007 552.058 L17.9659 552.058 L17.9659 560.392 L71.4379 560.392 L71.4379 552.058 L76.4031 552.058 L76.4031 566.781 L13.0007 566.781 Z" fill="#000000" fill-rule="nonzero" fill-opacity="1" /><path clip-path="url(#clip470)" d="M35.6047 508.17 Q31.2992 505.774 29.2506 502.441 Q27.202 499.107 27.202 494.593 Q27.202 488.517 31.4728 485.218 Q35.7089 481.92 43.5561 481.92 L67.0282 481.92 L67.0282 488.343 L43.7644 488.343 Q38.1741 488.343 35.4658 490.323 Q32.7575 492.302 32.7575 496.364 Q32.7575 501.329 36.0561 504.211 Q39.3547 507.093 45.0491 507.093 L67.0282 507.093 L67.0282 513.517 L43.7644 513.517 Q38.1394 513.517 35.4658 515.496 Q32.7575 517.475 32.7575 521.607 Q32.7575 526.503 36.0908 529.385 Q39.3894 532.267 45.0491 532.267 L67.0282 532.267 L67.0282 538.69 L28.1395 538.69 L28.1395 532.267 L34.1811 532.267 Q30.6047 530.079 28.9034 527.024 Q27.202 523.968 27.202 519.767 Q27.202 515.531 29.3547 512.579 Q31.5075 509.593 35.6047 508.17 Z" fill="#000000" fill-rule="nonzero" fill-opacity="1" /><path clip-path="url(#clip470)" d="M13.0007 454.246 L76.4031 454.246 L76.4031 468.969 L71.4379 468.969 L71.4379 460.67 L17.9659 460.67 L17.9659 468.969 L13.0007 468.969 L13.0007 454.246 Z" fill="#000000" fill-rule="nonzero" fill-opacity="1" /><path clip-path="url(#clip470)" d="M882.382 18.8205 L882.382 65.8515 L892.267 65.8515 Q904.784 65.8515 910.577 60.1802 Q916.41 54.509 916.41 42.2752 Q916.41 30.1225 910.577 24.4918 Q904.784 18.8205 892.267 18.8205 L882.382 18.8205 M874.2 12.096 L891.011 12.096 Q908.592 12.096 916.815 19.4281 Q925.038 26.7198 925.038 42.2752 Q925.038 57.9117 916.775 65.2439 Q908.511 72.576 891.011 72.576 L874.2 72.576 L874.2 12.096 Z" fill="#000000" fill-rule="nonzero" fill-opacity="1" /><path clip-path="url(#clip470)" d="M937.758 27.2059 L945.212 27.2059 L945.212 72.576 L937.758 72.576 L937.758 27.2059 M937.758 9.54393 L945.212 9.54393 L945.212 18.9825 L937.758 18.9825 L937.758 9.54393 Z" fill="#000000" fill-rule="nonzero" fill-opacity="1" /><path clip-path="url(#clip470)" d="M989.731 28.5427 L989.731 35.5912 Q986.572 33.9709 983.169 33.1607 Q979.766 32.3505 976.12 32.3505 Q970.571 32.3505 967.775 34.0519 Q965.021 35.7533 965.021 39.156 Q965.021 41.7486 967.006 43.2475 Q968.991 44.7058 974.986 46.0426 L977.538 46.6097 Q985.478 48.3111 988.8 51.4303 Q992.162 54.509 992.162 60.0587 Q992.162 66.3781 987.139 70.0644 Q982.156 73.7508 973.406 73.7508 Q969.76 73.7508 965.791 73.0216 Q961.861 72.3329 957.486 70.9151 L957.486 63.2184 Q961.618 65.3654 965.628 66.4591 Q969.639 67.5124 973.568 67.5124 Q978.834 67.5124 981.67 65.73 Q984.506 63.9071 984.506 60.6258 Q984.506 57.5877 982.44 55.9673 Q980.414 54.3469 973.487 52.8481 L970.895 52.2405 Q963.968 50.7821 960.889 47.7845 Q957.81 44.7463 957.81 39.4801 Q957.81 33.0797 962.347 29.5959 Q966.884 26.1121 975.229 26.1121 Q979.361 26.1121 983.007 26.7198 Q986.653 27.3274 989.731 28.5427 Z" fill="#000000" fill-rule="nonzero" fill-opacity="1" /><path clip-path="url(#clip470)" d="M1011.24 65.7705 L1011.24 89.8329 L1003.75 89.8329 L1003.75 27.2059 L1011.24 27.2059 L1011.24 34.0924 Q1013.59 30.0415 1017.16 28.0971 Q1020.76 26.1121 1025.74 26.1121 Q1034.01 26.1121 1039.15 32.6746 Q1044.34 39.2371 1044.34 49.9314 Q1044.34 60.6258 1039.15 67.1883 Q1034.01 73.7508 1025.74 73.7508 Q1020.76 73.7508 1017.16 71.8063 Q1013.59 69.8214 1011.24 65.7705 M1036.6 49.9314 Q1036.6 41.7081 1033.2 37.0496 Q1029.84 32.3505 1023.92 32.3505 Q1018.01 32.3505 1014.6 37.0496 Q1011.24 41.7081 1011.24 49.9314 Q1011.24 58.1548 1014.6 62.8538 Q1018.01 67.5124 1023.92 67.5124 Q1029.84 67.5124 1033.2 62.8538 Q1036.6 58.1548 1036.6 49.9314 Z" fill="#000000" fill-rule="nonzero" fill-opacity="1" /><path clip-path="url(#clip470)" d="M1056.69 9.54393 L1064.15 9.54393 L1064.15 72.576 L1056.69 72.576 L1056.69 9.54393 Z" fill="#000000" fill-rule="nonzero" fill-opacity="1" /><path clip-path="url(#clip470)" d="M1100.36 49.7694 Q1091.33 49.7694 1087.84 51.8354 Q1084.36 53.9013 1084.36 58.8839 Q1084.36 62.8538 1086.95 65.2034 Q1089.59 67.5124 1094.08 67.5124 Q1100.28 67.5124 1104.01 63.1374 Q1107.77 58.7219 1107.77 51.4303 L1107.77 49.7694 L1100.36 49.7694 M1115.23 46.6907 L1115.23 72.576 L1107.77 72.576 L1107.77 65.6895 Q1105.22 69.8214 1101.41 71.8063 Q1097.61 73.7508 1092.1 73.7508 Q1085.13 73.7508 1081 69.8619 Q1076.91 65.9325 1076.91 59.3701 Q1076.91 51.7138 1082.01 47.825 Q1087.16 43.9361 1097.32 43.9361 L1107.77 43.9361 L1107.77 43.2069 Q1107.77 38.0623 1104.37 35.2672 Q1101.01 32.4315 1094.89 32.4315 Q1091 32.4315 1087.32 33.3632 Q1083.63 34.295 1080.23 36.1584 L1080.23 29.2718 Q1084.32 27.692 1088.17 26.9223 Q1092.02 26.1121 1095.66 26.1121 Q1105.51 26.1121 1110.37 31.2163 Q1115.23 36.3204 1115.23 46.6907 Z" fill="#000000" fill-rule="nonzero" fill-opacity="1" /><path clip-path="url(#clip470)" d="M1163.23 28.9478 L1163.23 35.9153 Q1160.07 34.1734 1156.87 33.3227 Q1153.71 32.4315 1150.47 32.4315 Q1143.22 32.4315 1139.21 37.0496 Q1135.2 41.6271 1135.2 49.9314 Q1135.2 58.2358 1139.21 62.8538 Q1143.22 67.4314 1150.47 67.4314 Q1153.71 67.4314 1156.87 66.5807 Q1160.07 65.6895 1163.23 63.9476 L1163.23 70.8341 Q1160.11 72.2924 1156.75 73.0216 Q1153.43 73.7508 1149.66 73.7508 Q1139.41 73.7508 1133.38 67.3098 Q1127.34 60.8689 1127.34 49.9314 Q1127.34 38.832 1133.42 32.472 Q1139.53 26.1121 1150.15 26.1121 Q1153.59 26.1121 1156.87 26.8413 Q1160.15 27.5299 1163.23 28.9478 Z" fill="#000000" fill-rule="nonzero" fill-opacity="1" /><path clip-path="url(#clip470)" d="M1215 48.0275 L1215 51.6733 L1180.73 51.6733 Q1181.22 59.3701 1185.35 63.421 Q1189.52 67.4314 1196.94 67.4314 Q1201.23 67.4314 1205.24 66.3781 Q1209.29 65.3249 1213.26 63.2184 L1213.26 70.267 Q1209.25 71.9684 1205.04 72.8596 Q1200.82 73.7508 1196.49 73.7508 Q1185.63 73.7508 1179.27 67.4314 Q1172.95 61.1119 1172.95 50.3365 Q1172.95 39.1965 1178.95 32.6746 Q1184.98 26.1121 1195.19 26.1121 Q1204.35 26.1121 1209.65 32.0264 Q1215 37.9003 1215 48.0275 M1207.55 45.84 Q1207.47 39.7232 1204.11 36.0774 Q1200.78 32.4315 1195.27 32.4315 Q1189.04 32.4315 1185.27 35.9558 Q1181.54 39.4801 1180.97 45.8805 L1207.55 45.84 Z" fill="#000000" fill-rule="nonzero" fill-opacity="1" /><path clip-path="url(#clip470)" d="M1262.56 35.9153 Q1265.35 30.8922 1269.24 28.5022 Q1273.13 26.1121 1278.4 26.1121 Q1285.49 26.1121 1289.34 31.0947 Q1293.18 36.0368 1293.18 45.1919 L1293.18 72.576 L1285.69 72.576 L1285.69 45.4349 Q1285.69 38.913 1283.38 35.7533 Q1281.07 32.5936 1276.33 32.5936 Q1270.54 32.5936 1267.18 36.4419 Q1263.82 40.2903 1263.82 46.9338 L1263.82 72.576 L1256.32 72.576 L1256.32 45.4349 Q1256.32 38.8725 1254.01 35.7533 Q1251.7 32.5936 1246.88 32.5936 Q1241.17 32.5936 1237.81 36.4824 Q1234.45 40.3308 1234.45 46.9338 L1234.45 72.576 L1226.95 72.576 L1226.95 27.2059 L1234.45 27.2059 L1234.45 34.2544 Q1237 30.082 1240.56 28.0971 Q1244.13 26.1121 1249.03 26.1121 Q1253.97 26.1121 1257.42 28.6237 Q1260.9 31.1352 1262.56 35.9153 Z" fill="#000000" fill-rule="nonzero" fill-opacity="1" /><path clip-path="url(#clip470)" d="M1346.86 48.0275 L1346.86 51.6733 L1312.59 51.6733 Q1313.07 59.3701 1317.21 63.421 Q1321.38 67.4314 1328.79 67.4314 Q1333.09 67.4314 1337.1 66.3781 Q1341.15 65.3249 1345.12 63.2184 L1345.12 70.267 Q1341.11 71.9684 1336.89 72.8596 Q1332.68 73.7508 1328.35 73.7508 Q1317.49 73.7508 1311.13 67.4314 Q1304.81 61.1119 1304.81 50.3365 Q1304.81 39.1965 1310.81 32.6746 Q1316.84 26.1121 1327.05 26.1121 Q1336.21 26.1121 1341.51 32.0264 Q1346.86 37.9003 1346.86 48.0275 M1339.41 45.84 Q1339.32 39.7232 1335.96 36.0774 Q1332.64 32.4315 1327.13 32.4315 Q1320.89 32.4315 1317.13 35.9558 Q1313.4 39.4801 1312.83 45.8805 L1339.41 45.84 Z" fill="#000000" fill-rule="nonzero" fill-opacity="1" /><path clip-path="url(#clip470)" d="M1396.81 45.1919 L1396.81 72.576 L1389.35 72.576 L1389.35 45.4349 Q1389.35 38.994 1386.84 35.7938 Q1384.33 32.5936 1379.31 32.5936 Q1373.27 32.5936 1369.79 36.4419 Q1366.3 40.2903 1366.3 46.9338 L1366.3 72.576 L1358.81 72.576 L1358.81 27.2059 L1366.3 27.2059 L1366.3 34.2544 Q1368.98 30.163 1372.58 28.1376 Q1376.23 26.1121 1380.97 26.1121 Q1388.79 26.1121 1392.8 30.9732 Q1396.81 35.7938 1396.81 45.1919 Z" fill="#000000" fill-rule="nonzero" fill-opacity="1" /><path clip-path="url(#clip470)" d="M1419.05 14.324 L1419.05 27.2059 L1434.4 27.2059 L1434.4 32.9987 L1419.05 32.9987 L1419.05 57.6282 Q1419.05 63.1779 1420.55 64.7578 Q1422.08 66.3376 1426.74 66.3376 L1434.4 66.3376 L1434.4 72.576 L1426.74 72.576 Q1418.11 72.576 1414.83 69.3758 Q1411.55 66.1351 1411.55 57.6282 L1411.55 32.9987 L1406.08 32.9987 L1406.08 27.2059 L1411.55 27.2059 L1411.55 14.324 L1419.05 14.324 Z" fill="#000000" fill-rule="nonzero" fill-opacity="1" /><path clip-path="url(#clip470)" d="M1505.9 35.9153 Q1508.69 30.8922 1512.58 28.5022 Q1516.47 26.1121 1521.74 26.1121 Q1528.83 26.1121 1532.67 31.0947 Q1536.52 36.0368 1536.52 45.1919 L1536.52 72.576 L1529.03 72.576 L1529.03 45.4349 Q1529.03 38.913 1526.72 35.7533 Q1524.41 32.5936 1519.67 32.5936 Q1513.88 32.5936 1510.52 36.4419 Q1507.15 40.2903 1507.15 46.9338 L1507.15 72.576 L1499.66 72.576 L1499.66 45.4349 Q1499.66 38.8725 1497.35 35.7533 Q1495.04 32.5936 1490.22 32.5936 Q1484.51 32.5936 1481.15 36.4824 Q1477.78 40.3308 1477.78 46.9338 L1477.78 72.576 L1470.29 72.576 L1470.29 27.2059 L1477.78 27.2059 L1477.78 34.2544 Q1480.34 30.082 1483.9 28.0971 Q1487.47 26.1121 1492.37 26.1121 Q1497.31 26.1121 1500.75 28.6237 Q1504.24 31.1352 1505.9 35.9153 Z" fill="#000000" fill-rule="nonzero" fill-opacity="1" /><path clip-path="url(#clip470)" d="M1568.97 32.4315 Q1562.97 32.4315 1559.49 37.1306 Q1556.01 41.7891 1556.01 49.9314 Q1556.01 58.0738 1559.45 62.7728 Q1562.93 67.4314 1568.97 67.4314 Q1574.92 67.4314 1578.41 62.7323 Q1581.89 58.0333 1581.89 49.9314 Q1581.89 41.8701 1578.41 37.1711 Q1574.92 32.4315 1568.97 32.4315 M1568.97 26.1121 Q1578.69 26.1121 1584.24 32.4315 Q1589.79 38.7509 1589.79 49.9314 Q1589.79 61.0714 1584.24 67.4314 Q1578.69 73.7508 1568.97 73.7508 Q1559.21 73.7508 1553.66 67.4314 Q1548.15 61.0714 1548.15 49.9314 Q1548.15 38.7509 1553.66 32.4315 Q1559.21 26.1121 1568.97 26.1121 Z" fill="#000000" fill-rule="nonzero" fill-opacity="1" /><path clip-path="url(#clip470)" d="M1632 34.0924 L1632 9.54393 L1639.46 9.54393 L1639.46 72.576 L1632 72.576 L1632 65.7705 Q1629.65 69.8214 1626.05 71.8063 Q1622.48 73.7508 1617.46 73.7508 Q1609.24 73.7508 1604.05 67.1883 Q1598.91 60.6258 1598.91 49.9314 Q1598.91 39.2371 1604.05 32.6746 Q1609.24 26.1121 1617.46 26.1121 Q1622.48 26.1121 1626.05 28.0971 Q1629.65 30.0415 1632 34.0924 M1606.6 49.9314 Q1606.6 58.1548 1609.97 62.8538 Q1613.37 67.5124 1619.28 67.5124 Q1625.2 67.5124 1628.6 62.8538 Q1632 58.1548 1632 49.9314 Q1632 41.7081 1628.6 37.0496 Q1625.2 32.3505 1619.28 32.3505 Q1613.37 32.3505 1609.97 37.0496 Q1606.6 41.7081 1606.6 49.9314 Z" fill="#000000" fill-rule="nonzero" fill-opacity="1" /><path clip-path="url(#clip470)" d="M1693.62 48.0275 L1693.62 51.6733 L1659.35 51.6733 Q1659.83 59.3701 1663.96 63.421 Q1668.14 67.4314 1675.55 67.4314 Q1679.84 67.4314 1683.85 66.3781 Q1687.9 65.3249 1691.87 63.2184 L1691.87 70.267 Q1687.86 71.9684 1683.65 72.8596 Q1679.44 73.7508 1675.1 73.7508 Q1664.25 73.7508 1657.89 67.4314 Q1651.57 61.1119 1651.57 50.3365 Q1651.57 39.1965 1657.56 32.6746 Q1663.6 26.1121 1673.81 26.1121 Q1682.96 26.1121 1688.27 32.0264 Q1693.62 37.9003 1693.62 48.0275 M1686.16 45.84 Q1686.08 39.7232 1682.72 36.0774 Q1679.4 32.4315 1673.89 32.4315 Q1667.65 32.4315 1663.88 35.9558 Q1660.16 39.4801 1659.59 45.8805 L1686.16 45.84 Z" fill="#000000" fill-rule="nonzero" fill-opacity="1" /><path clip-path="url(#clip470)" d="M1705.85 9.54393 L1713.3 9.54393 L1713.3 72.576 L1705.85 72.576 L1705.85 9.54393 Z" fill="#000000" fill-rule="nonzero" fill-opacity="1" /><path clip-path="url(#clip470)" d="M1757.74 65.6895 L1771.11 65.6895 L1771.11 19.5497 L1756.57 22.4663 L1756.57 15.0127 L1771.03 12.096 L1779.21 12.096 L1779.21 65.6895 L1792.58 65.6895 L1792.58 72.576 L1757.74 72.576 L1757.74 65.6895 Z" fill="#000000" fill-rule="nonzero" fill-opacity="1" /><polyline clip-path="url(#clip472)" style="stroke:#009af9; stroke-linecap:round; stroke-linejoin:round; stroke-width:8; stroke-opacity:1; fill:none" points="371.724,159.645 2295.06,159.645 "/>
<polyline clip-path="url(#clip472)" style="stroke:#e26f46; stroke-linecap:round; stroke-linejoin:round; stroke-width:8; stroke-opacity:1; fill:none" points="371.724,463.987 2295.06,463.987 "/>
<polyline clip-path="url(#clip472)" style="stroke:#008000; stroke-linecap:round; stroke-linejoin:round; stroke-width:8; stroke-opacity:1; fill:none" stroke-dasharray="4, 8" points="371.724,608.742 376.532,608.925 381.34,609.454 386.149,610.334 390.957,611.568 395.765,613.155 400.574,615.098 405.382,617.397 410.19,620.05 414.999,623.058 419.807,626.42 424.615,630.131 429.424,634.193 434.232,638.6 439.04,643.35 443.849,648.436 448.657,653.857 453.465,659.609 458.274,665.685 463.082,672.079 467.89,678.787 472.699,685.805 477.507,693.12 482.315,700.73 487.124,708.628 491.932,716.802 496.74,725.243 501.549,733.946 506.357,742.902 511.165,752.106 515.974,761.548 520.782,771.22 525.59,781.101 530.399,791.189 535.207,801.477 540.015,811.953 544.824,822.609 549.632,833.435 554.44,844.416 559.249,855.541 564.057,866.8 568.865,878.183 573.674,889.678 578.482,901.274 583.29,912.958 588.099,924.721 592.907,936.549 597.715,948.431 602.524,960.353 607.332,972.303 612.14,984.268 616.949,996.24 621.757,1008.21 626.565,1020.16 631.374,1032.07 636.182,1043.94 640.99,1055.76 645.799,1067.51 650.607,1079.18 655.415,1090.76 660.224,1102.24 665.032,1113.61 669.84,1124.85 674.649,1135.95 679.457,1146.9 684.265,1157.7 689.074,1168.33 693.882,1178.78 698.69,1189.04 703.499,1199.1 708.307,1208.94 713.115,1218.57 717.924,1227.96 722.732,1237.12 727.54,1246.03 732.349,1254.67 737.157,1263.05 741.965,1271.16 746.773,1278.98 751.582,1286.51 756.39,1293.74 761.198,1300.66 766.007,1307.26 770.815,1313.54 775.623,1319.5 780.432,1325.12 785.24,1330.39 790.048,1335.32 794.857,1339.9 799.665,1344.11 804.473,1347.96 809.282,1351.44 814.09,1354.54 818.898,1357.27 823.707,1359.61 828.515,1361.56 833.323,1363.12 838.132,1364.28 842.94,1365.05 847.748,1365.41 852.557,1365.36 857.365,1365.03 862.173,1364.41 866.982,1363.5 871.79,1362.3 876.598,1360.81 881.407,1359.03 886.215,1356.95 891.023,1354.58 895.832,1351.91 900.64,1348.95 905.448,1345.71 910.257,1342.17 915.065,1338.35 919.873,1334.25 924.682,1329.87 929.49,1325.22 934.298,1320.29 939.107,1315.09 943.915,1309.64 948.723,1303.93 953.532,1297.96 958.34,1291.74 963.148,1285.28 967.957,1278.58 972.765,1271.66 977.573,1264.51 982.382,1257.15 987.19,1249.57 991.998,1241.79 996.807,1233.82 1001.62,1225.67 1006.42,1217.33 1011.23,1208.81 1016.04,1200.14 1020.85,1191.32 1025.66,1182.35 1030.47,1173.24 1035.27,1164.01 1040.08,1154.65 1044.89,1145.2 1049.7,1135.64 1054.51,1125.99 1059.31,1116.25 1064.12,1106.45 1068.93,1096.59 1073.74,1086.68 1078.55,1076.73 1083.36,1066.75 1088.16,1056.74 1092.97,1046.72 1097.78,1036.71 1102.59,1026.7 1107.4,1016.71 1112.21,1006.75 1117.01,996.828 1121.82,986.955 1126.63,977.142 1131.44,967.397 1136.25,957.731 1141.06,948.152 1145.86,938.671 1150.67,929.297 1155.48,920.041 1160.29,910.911 1165.1,901.915 1169.91,893.063 1174.71,884.365 1179.52,875.831 1184.33,867.468 1189.14,859.281 1193.95,851.282 1198.76,843.479 1203.56,835.883 1208.37,828.499 1213.18,821.33 1217.99,814.389 1222.8,807.682 1227.61,801.219 1232.41,795.006 1237.22,789.042 1242.03,783.339 1246.84,777.905 1251.65,772.747 1256.46,767.871 1261.26,763.274 1266.07,758.967 1270.88,754.956 1275.69,751.249 1280.5,747.85 1285.31,744.756 1290.11,741.976 1294.92,739.516 1299.73,737.381 1304.54,735.575 1309.35,734.096 1314.16,732.948 1318.96,732.137 1323.77,731.668 1328.58,731.547 1333.39,731.734 1338.2,732.123 1343.01,732.73 1347.81,733.565 1352.62,734.629 1357.43,735.923 1362.24,737.447 1367.05,739.202 1371.86,741.187 1376.66,743.402 1381.47,745.845 1386.28,748.516 1391.09,751.413 1395.9,754.534 1400.71,757.877 1405.51,761.44 1410.32,765.22 1415.13,769.215 1419.94,773.419 1424.75,777.832 1429.56,782.446 1434.36,787.257 1439.17,792.264 1443.98,797.462 1448.79,802.848 1453.6,808.409 1458.41,814.147 1463.21,820.056 1468.02,826.132 1472.83,832.365 1477.64,838.75 1482.45,845.281 1487.26,851.955 1492.06,858.766 1496.87,865.7 1501.68,872.755 1506.49,879.925 1511.3,887.203 1516.11,894.58 1520.91,902.047 1525.72,909.598 1530.53,917.227 1535.34,924.926 1540.15,932.688 1544.96,940.507 1549.76,948.375 1554.57,956.279 1559.38,964.214 1564.19,972.173 1569,980.147 1573.81,988.131 1578.61,996.114 1583.42,1004.09 1588.23,1012.05 1593.04,1019.99 1597.85,1027.89 1602.66,1035.76 1607.46,1043.58 1612.27,1051.34 1617.08,1059.03 1621.89,1066.66 1626.7,1074.2 1631.51,1081.66 1636.31,1089.03 1641.12,1096.3 1645.93,1103.45 1650.74,1110.49 1655.55,1117.4 1660.36,1124.18 1665.16,1130.82 1669.97,1137.32 1674.78,1143.67 1679.59,1149.85 1684.4,1155.87 1689.21,1161.72 1694.01,1167.39 1698.82,1172.88 1703.63,1178.18 1708.44,1183.28 1713.25,1188.18 1718.06,1192.88 1722.86,1197.36 1727.67,1201.62 1732.48,1205.67 1737.29,1209.48 1742.1,1213.07 1746.91,1216.42 1751.71,1219.52 1756.52,1222.39 1761.33,1225.01 1766.14,1227.37 1770.95,1229.48 1775.76,1231.33 1780.56,1232.92 1785.37,1234.24 1790.18,1235.3 1794.99,1236.08 1799.8,1236.59 1804.61,1236.83 1809.41,1236.77 1814.22,1236.56 1819.03,1236.2 1823.84,1235.68 1828.65,1235.01 1833.46,1234.18 1838.26,1233.19 1843.07,1232.03 1847.88,1230.71 1852.69,1229.23 1857.5,1227.58 1862.31,1225.78 1867.11,1223.81 1871.92,1221.69 1876.73,1219.4 1881.54,1216.96 1886.35,1214.36 1891.16,1211.61 1895.96,1208.7 1900.77,1205.65 1905.58,1202.46 1910.39,1199.12 1915.2,1195.64 1920.01,1192.01 1924.81,1188.26 1929.62,1184.36 1934.43,1180.35 1939.24,1176.21 1944.05,1171.95 1948.86,1167.57 1953.66,1163.07 1958.47,1158.46 1963.28,1153.75 1968.09,1148.95 1972.9,1144.04 1977.71,1139.04 1982.51,1133.95 1987.32,1128.77 1992.13,1123.53 1996.94,1118.21 2001.75,1112.82 2006.56,1107.37 2011.36,1101.86 2016.17,1096.3 2020.98,1090.7 2025.79,1085.06 2030.6,1079.38 2035.41,1073.67 2040.21,1067.94 2045.02,1062.18 2049.83,1056.42 2054.64,1050.65 2059.45,1044.88 2064.26,1039.12 2069.06,1033.36 2073.87,1027.63 2078.68,1021.91 2083.49,1016.22 2088.3,1010.57 2093.11,1004.96 2097.91,999.392 2102.72,993.875 2107.53,988.416 2112.34,983.018 2117.15,977.687 2121.96,972.431 2126.76,967.253 2131.57,962.161 2136.38,957.158 2141.19,952.247 2146,947.437 2150.81,942.732 2155.61,938.137 2160.42,933.659 2165.23,929.302 2170.04,925.065 2174.85,920.957 2179.66,916.983 2184.46,913.148 2189.27,909.457 2194.08,905.916 2198.89,902.519 2203.7,899.277 2208.51,896.194 2213.31,893.275 2218.12,890.524 2222.93,887.945 2227.74,885.534 2232.55,883.299 2237.36,881.243 2242.16,879.371 2246.97,877.687 2251.78,876.194 2256.59,874.89 2261.4,873.777 2266.21,872.86 2271.01,872.143 2275.82,871.63 2280.63,871.322 2285.44,871.221 2290.25,871.276 2295.06,871.41 "/>
<path clip-path="url(#clip470)" d="M1446.07 477.116 L2284.8 477.116 L2284.8 166.076 L1446.07 166.076  Z" fill="#ffffff" fill-rule="evenodd" fill-opacity="1"/>
<polyline clip-path="url(#clip470)" style="stroke:#000000; stroke-linecap:round; stroke-linejoin:round; stroke-width:4; stroke-opacity:1; fill:none" points="1446.07,477.116 2284.8,477.116 2284.8,166.076 1446.07,166.076 1446.07,477.116 "/>
<polyline clip-path="url(#clip470)" style="stroke:#009af9; stroke-linecap:round; stroke-linejoin:round; stroke-width:12; stroke-opacity:1; fill:none" points="1468.72,243.836 1604.64,243.836 "/>
<path clip-path="url(#clip470)" d="M1654.93 232.013 L1654.93 238.054 Q1652.22 236.666 1649.3 235.971 Q1646.38 235.277 1643.26 235.277 Q1638.5 235.277 1636.11 236.735 Q1633.75 238.193 1633.75 241.11 Q1633.75 243.332 1635.45 244.617 Q1637.15 245.867 1642.29 247.013 L1644.48 247.499 Q1651.28 248.957 1654.13 251.631 Q1657.01 254.27 1657.01 259.027 Q1657.01 264.443 1652.7 267.603 Q1648.43 270.763 1640.93 270.763 Q1637.81 270.763 1634.41 270.138 Q1631.04 269.547 1627.29 268.332 L1627.29 261.735 Q1630.83 263.575 1634.27 264.513 Q1637.7 265.415 1641.07 265.415 Q1645.59 265.415 1648.02 263.888 Q1650.45 262.325 1650.45 259.513 Q1650.45 256.909 1648.68 255.52 Q1646.94 254.131 1641 252.846 L1638.78 252.325 Q1632.84 251.075 1630.2 248.506 Q1627.57 245.902 1627.57 241.388 Q1627.57 235.902 1631.45 232.916 Q1635.34 229.93 1642.5 229.93 Q1646.04 229.93 1649.16 230.45 Q1652.29 230.971 1654.93 232.013 Z" fill="#000000" fill-rule="nonzero" fill-opacity="1" /><path clip-path="url(#clip470)" d="M1667.18 230.867 L1673.57 230.867 L1673.57 269.756 L1667.18 269.756 L1667.18 230.867 M1667.18 215.728 L1673.57 215.728 L1673.57 223.818 L1667.18 223.818 L1667.18 215.728 Z" fill="#000000" fill-rule="nonzero" fill-opacity="1" /><path clip-path="url(#clip470)" d="M1717.22 238.332 Q1719.61 234.027 1722.95 231.978 Q1726.28 229.93 1730.79 229.93 Q1736.87 229.93 1740.17 234.2 Q1743.47 238.436 1743.47 246.284 L1743.47 269.756 L1737.04 269.756 L1737.04 246.492 Q1737.04 240.902 1735.07 238.193 Q1733.09 235.485 1729.02 235.485 Q1724.06 235.485 1721.18 238.784 Q1718.29 242.082 1718.29 247.777 L1718.29 269.756 L1711.87 269.756 L1711.87 246.492 Q1711.87 240.867 1709.89 238.193 Q1707.91 235.485 1703.78 235.485 Q1698.88 235.485 1696 238.818 Q1693.12 242.117 1693.12 247.777 L1693.12 269.756 L1686.7 269.756 L1686.7 230.867 L1693.12 230.867 L1693.12 236.909 Q1695.31 233.332 1698.36 231.631 Q1701.42 229.93 1705.62 229.93 Q1709.86 229.93 1712.81 232.082 Q1715.79 234.235 1717.22 238.332 Z" fill="#000000" fill-rule="nonzero" fill-opacity="1" /><path clip-path="url(#clip470)" d="M1762.39 263.922 L1762.39 284.547 L1755.97 284.547 L1755.97 230.867 L1762.39 230.867 L1762.39 236.77 Q1764.41 233.298 1767.46 231.631 Q1770.55 229.93 1774.82 229.93 Q1781.91 229.93 1786.31 235.555 Q1790.76 241.179 1790.76 250.346 Q1790.76 259.513 1786.31 265.138 Q1781.91 270.763 1774.82 270.763 Q1770.55 270.763 1767.46 269.096 Q1764.41 267.395 1762.39 263.922 M1784.13 250.346 Q1784.13 243.298 1781.21 239.304 Q1778.33 235.277 1773.26 235.277 Q1768.19 235.277 1765.27 239.304 Q1762.39 243.298 1762.39 250.346 Q1762.39 257.395 1765.27 261.422 Q1768.19 265.415 1773.26 265.415 Q1778.33 265.415 1781.21 261.422 Q1784.13 257.395 1784.13 250.346 Z" fill="#000000" fill-rule="nonzero" fill-opacity="1" /><path clip-path="url(#clip470)" d="M1801.35 215.728 L1807.74 215.728 L1807.74 269.756 L1801.35 269.756 L1801.35 215.728 Z" fill="#000000" fill-rule="nonzero" fill-opacity="1" /><path clip-path="url(#clip470)" d="M1854.37 248.714 L1854.37 251.839 L1825 251.839 Q1825.41 258.436 1828.95 261.909 Q1832.53 265.346 1838.88 265.346 Q1842.56 265.346 1846 264.443 Q1849.47 263.54 1852.88 261.735 L1852.88 267.777 Q1849.44 269.235 1845.83 269.999 Q1842.22 270.763 1838.5 270.763 Q1829.2 270.763 1823.75 265.346 Q1818.33 259.929 1818.33 250.693 Q1818.33 241.145 1823.47 235.555 Q1828.64 229.93 1837.39 229.93 Q1845.24 229.93 1849.79 234.999 Q1854.37 240.034 1854.37 248.714 M1847.98 246.839 Q1847.91 241.596 1845.03 238.471 Q1842.18 235.346 1837.46 235.346 Q1832.11 235.346 1828.88 238.367 Q1825.69 241.388 1825.2 246.874 L1847.98 246.839 Z" fill="#000000" fill-rule="nonzero" fill-opacity="1" /><path clip-path="url(#clip470)" d="M1865.13 217.916 L1894.93 217.916 L1894.93 223.818 L1872.15 223.818 L1872.15 239.096 L1892.7 239.096 L1892.7 244.999 L1872.15 244.999 L1872.15 269.756 L1865.13 269.756 L1865.13 217.916 Z" fill="#000000" fill-rule="nonzero" fill-opacity="1" /><path clip-path="url(#clip470)" d="M1906.04 217.916 L1916.49 217.916 L1929.72 253.193 L1943.02 217.916 L1953.47 217.916 L1953.47 269.756 L1946.63 269.756 L1946.63 224.235 L1933.26 259.79 L1926.21 259.79 L1912.84 224.235 L1912.84 269.756 L1906.04 269.756 L1906.04 217.916 Z" fill="#000000" fill-rule="nonzero" fill-opacity="1" /><path clip-path="url(#clip470)" d="M1966.59 217.916 L1973.64 217.916 L1973.64 249.409 Q1973.64 257.742 1976.66 261.422 Q1979.68 265.068 1986.45 265.068 Q1993.19 265.068 1996.21 261.422 Q1999.23 257.742 1999.23 249.409 L1999.23 217.916 L2006.28 217.916 L2006.28 250.277 Q2006.28 260.415 2001.24 265.589 Q1996.24 270.763 1986.45 270.763 Q1976.63 270.763 1971.59 265.589 Q1966.59 260.415 1966.59 250.277 L1966.59 217.916 Z" fill="#000000" fill-rule="nonzero" fill-opacity="1" /><polyline clip-path="url(#clip470)" style="stroke:#e26f46; stroke-linecap:round; stroke-linejoin:round; stroke-width:12; stroke-opacity:1; fill:none" points="1468.72,321.596 1604.64,321.596 "/>
<path clip-path="url(#clip470)" d="M1650.07 314.599 Q1648.99 313.974 1647.7 313.696 Q1646.45 313.384 1644.93 313.384 Q1639.51 313.384 1636.59 316.926 Q1633.71 320.433 1633.71 327.03 L1633.71 347.516 L1627.29 347.516 L1627.29 308.627 L1633.71 308.627 L1633.71 314.669 Q1635.73 311.127 1638.95 309.426 Q1642.18 307.69 1646.8 307.69 Q1647.46 307.69 1648.26 307.794 Q1649.06 307.863 1650.03 308.037 L1650.07 314.599 Z" fill="#000000" fill-rule="nonzero" fill-opacity="1" /><path clip-path="url(#clip470)" d="M1688.47 326.474 L1688.47 329.599 L1659.09 329.599 Q1659.51 336.196 1663.05 339.669 Q1666.63 343.106 1672.98 343.106 Q1676.66 343.106 1680.1 342.203 Q1683.57 341.3 1686.98 339.495 L1686.98 345.537 Q1683.54 346.995 1679.93 347.759 Q1676.32 348.523 1672.6 348.523 Q1663.29 348.523 1657.84 343.106 Q1652.43 337.689 1652.43 328.453 Q1652.43 318.905 1657.57 313.315 Q1662.74 307.69 1671.49 307.69 Q1679.34 307.69 1683.88 312.759 Q1688.47 317.794 1688.47 326.474 M1682.08 324.599 Q1682.01 319.356 1679.13 316.231 Q1676.28 313.106 1671.56 313.106 Q1666.21 313.106 1662.98 316.127 Q1659.79 319.148 1659.3 324.634 L1682.08 324.599 Z" fill="#000000" fill-rule="nonzero" fill-opacity="1" /><path clip-path="url(#clip470)" d="M1718.64 293.488 L1718.64 298.801 L1712.53 298.801 Q1709.09 298.801 1707.74 300.19 Q1706.42 301.578 1706.42 305.19 L1706.42 308.627 L1716.94 308.627 L1716.94 313.592 L1706.42 313.592 L1706.42 347.516 L1700 347.516 L1700 313.592 L1693.88 313.592 L1693.88 308.627 L1700 308.627 L1700 305.919 Q1700 299.426 1703.02 296.474 Q1706.04 293.488 1712.6 293.488 L1718.64 293.488 Z" fill="#000000" fill-rule="nonzero" fill-opacity="1" /><path clip-path="url(#clip470)" d="M1757.25 326.474 L1757.25 329.599 L1727.88 329.599 Q1728.29 336.196 1731.84 339.669 Q1735.41 343.106 1741.77 343.106 Q1745.45 343.106 1748.88 342.203 Q1752.36 341.3 1755.76 339.495 L1755.76 345.537 Q1752.32 346.995 1748.71 347.759 Q1745.1 348.523 1741.38 348.523 Q1732.08 348.523 1726.63 343.106 Q1721.21 337.689 1721.21 328.453 Q1721.21 318.905 1726.35 313.315 Q1731.52 307.69 1740.27 307.69 Q1748.12 307.69 1752.67 312.759 Q1757.25 317.794 1757.25 326.474 M1750.86 324.599 Q1750.79 319.356 1747.91 316.231 Q1745.07 313.106 1740.34 313.106 Q1735 313.106 1731.77 316.127 Q1728.57 319.148 1728.09 324.634 L1750.86 324.599 Z" fill="#000000" fill-rule="nonzero" fill-opacity="1" /><path clip-path="url(#clip470)" d="M1790.27 314.599 Q1789.2 313.974 1787.91 313.696 Q1786.66 313.384 1785.13 313.384 Q1779.72 313.384 1776.8 316.926 Q1773.92 320.433 1773.92 327.03 L1773.92 347.516 L1767.5 347.516 L1767.5 308.627 L1773.92 308.627 L1773.92 314.669 Q1775.93 311.127 1779.16 309.426 Q1782.39 307.69 1787.01 307.69 Q1787.67 307.69 1788.47 307.794 Q1789.27 307.863 1790.24 308.037 L1790.27 314.599 Z" fill="#000000" fill-rule="nonzero" fill-opacity="1" /><path clip-path="url(#clip470)" d="M1828.68 326.474 L1828.68 329.599 L1799.3 329.599 Q1799.72 336.196 1803.26 339.669 Q1806.84 343.106 1813.19 343.106 Q1816.87 343.106 1820.31 342.203 Q1823.78 341.3 1827.18 339.495 L1827.18 345.537 Q1823.75 346.995 1820.13 347.759 Q1816.52 348.523 1812.81 348.523 Q1803.5 348.523 1798.05 343.106 Q1792.63 337.689 1792.63 328.453 Q1792.63 318.905 1797.77 313.315 Q1802.95 307.69 1811.7 307.69 Q1819.54 307.69 1824.09 312.759 Q1828.68 317.794 1828.68 326.474 M1822.29 324.599 Q1822.22 319.356 1819.34 316.231 Q1816.49 313.106 1811.77 313.106 Q1806.42 313.106 1803.19 316.127 Q1800 319.148 1799.51 324.634 L1822.29 324.599 Z" fill="#000000" fill-rule="nonzero" fill-opacity="1" /><path clip-path="url(#clip470)" d="M1871.49 324.044 L1871.49 347.516 L1865.1 347.516 L1865.1 324.252 Q1865.1 318.731 1862.95 315.988 Q1860.79 313.245 1856.49 313.245 Q1851.31 313.245 1848.33 316.544 Q1845.34 319.842 1845.34 325.537 L1845.34 347.516 L1838.92 347.516 L1838.92 308.627 L1845.34 308.627 L1845.34 314.669 Q1847.63 311.162 1850.72 309.426 Q1853.85 307.69 1857.91 307.69 Q1864.61 307.69 1868.05 311.856 Q1871.49 315.988 1871.49 324.044 Z" fill="#000000" fill-rule="nonzero" fill-opacity="1" /><path clip-path="url(#clip470)" d="M1912.22 310.12 L1912.22 316.092 Q1909.51 314.599 1906.77 313.87 Q1904.06 313.106 1901.28 313.106 Q1895.06 313.106 1891.63 317.064 Q1888.19 320.988 1888.19 328.106 Q1888.19 335.224 1891.63 339.182 Q1895.06 343.106 1901.28 343.106 Q1904.06 343.106 1906.77 342.377 Q1909.51 341.613 1912.22 340.12 L1912.22 346.023 Q1909.54 347.273 1906.66 347.898 Q1903.81 348.523 1900.59 348.523 Q1891.8 348.523 1886.63 343.002 Q1881.45 337.481 1881.45 328.106 Q1881.45 318.592 1886.66 313.141 Q1891.9 307.69 1901 307.69 Q1903.95 307.69 1906.77 308.315 Q1909.58 308.905 1912.22 310.12 Z" fill="#000000" fill-rule="nonzero" fill-opacity="1" /><path clip-path="url(#clip470)" d="M1956.59 326.474 L1956.59 329.599 L1927.22 329.599 Q1927.63 336.196 1931.18 339.669 Q1934.75 343.106 1941.11 343.106 Q1944.79 343.106 1948.22 342.203 Q1951.7 341.3 1955.1 339.495 L1955.1 345.537 Q1951.66 346.995 1948.05 347.759 Q1944.44 348.523 1940.72 348.523 Q1931.42 348.523 1925.97 343.106 Q1920.55 337.689 1920.55 328.453 Q1920.55 318.905 1925.69 313.315 Q1930.86 307.69 1939.61 307.69 Q1947.46 307.69 1952.01 312.759 Q1956.59 317.794 1956.59 326.474 M1950.2 324.599 Q1950.13 319.356 1947.25 316.231 Q1944.4 313.106 1939.68 313.106 Q1934.33 313.106 1931.11 316.127 Q1927.91 319.148 1927.43 324.634 L1950.2 324.599 Z" fill="#000000" fill-rule="nonzero" fill-opacity="1" /><polyline clip-path="url(#clip470)" style="stroke:#008000; stroke-linecap:round; stroke-linejoin:round; stroke-width:12; stroke-opacity:1; fill:none" stroke-dasharray="6, 12" points="1468.72,399.356 1604.64,399.356 "/>
<path clip-path="url(#clip470)" d="M1627.29 373.436 L1636.73 373.436 L1659.72 416.804 L1659.72 373.436 L1666.52 373.436 L1666.52 425.276 L1657.08 425.276 L1634.09 381.908 L1634.09 425.276 L1627.29 425.276 L1627.29 373.436 Z" fill="#000000" fill-rule="nonzero" fill-opacity="1" /><path clip-path="url(#clip470)" d="M1713.47 404.234 L1713.47 407.359 L1684.09 407.359 Q1684.51 413.956 1688.05 417.429 Q1691.63 420.866 1697.98 420.866 Q1701.66 420.866 1705.1 419.963 Q1708.57 419.06 1711.97 417.255 L1711.97 423.297 Q1708.54 424.755 1704.93 425.519 Q1701.32 426.283 1697.6 426.283 Q1688.29 426.283 1682.84 420.866 Q1677.43 415.449 1677.43 406.213 Q1677.43 396.665 1682.57 391.075 Q1687.74 385.45 1696.49 385.45 Q1704.34 385.45 1708.88 390.519 Q1713.47 395.554 1713.47 404.234 M1707.08 402.359 Q1707.01 397.116 1704.13 393.991 Q1701.28 390.866 1696.56 390.866 Q1691.21 390.866 1687.98 393.887 Q1684.79 396.908 1684.3 402.394 L1707.08 402.359 Z" fill="#000000" fill-rule="nonzero" fill-opacity="1" /><path clip-path="url(#clip470)" d="M1723.29 409.929 L1723.29 386.387 L1729.68 386.387 L1729.68 409.686 Q1729.68 415.206 1731.84 417.984 Q1733.99 420.727 1738.29 420.727 Q1743.47 420.727 1746.45 417.429 Q1749.47 414.13 1749.47 408.436 L1749.47 386.387 L1755.86 386.387 L1755.86 425.276 L1749.47 425.276 L1749.47 419.304 Q1747.15 422.845 1744.06 424.581 Q1741 426.283 1736.94 426.283 Q1730.24 426.283 1726.77 422.116 Q1723.29 417.949 1723.29 409.929 M1739.37 385.45 L1739.37 385.45 Z" fill="#000000" fill-rule="nonzero" fill-opacity="1" /><path clip-path="url(#clip470)" d="M1791.56 392.359 Q1790.48 391.734 1789.2 391.456 Q1787.95 391.144 1786.42 391.144 Q1781 391.144 1778.09 394.686 Q1775.2 398.193 1775.2 404.79 L1775.2 425.276 L1768.78 425.276 L1768.78 386.387 L1775.2 386.387 L1775.2 392.429 Q1777.22 388.887 1780.45 387.186 Q1783.68 385.45 1788.29 385.45 Q1788.95 385.45 1789.75 385.554 Q1790.55 385.623 1791.52 385.797 L1791.56 392.359 Z" fill="#000000" fill-rule="nonzero" fill-opacity="1" /><path clip-path="url(#clip470)" d="M1815.93 405.727 Q1808.19 405.727 1805.2 407.498 Q1802.22 409.269 1802.22 413.54 Q1802.22 416.942 1804.44 418.956 Q1806.7 420.935 1810.55 420.935 Q1815.86 420.935 1819.06 417.185 Q1822.29 413.401 1822.29 407.151 L1822.29 405.727 L1815.93 405.727 M1828.68 403.088 L1828.68 425.276 L1822.29 425.276 L1822.29 419.373 Q1820.1 422.915 1816.84 424.616 Q1813.57 426.283 1808.85 426.283 Q1802.88 426.283 1799.34 422.949 Q1795.83 419.581 1795.83 413.956 Q1795.83 407.394 1800.2 404.061 Q1804.61 400.727 1813.33 400.727 L1822.29 400.727 L1822.29 400.102 Q1822.29 395.693 1819.37 393.297 Q1816.49 390.866 1811.25 390.866 Q1807.91 390.866 1804.75 391.665 Q1801.59 392.463 1798.68 394.061 L1798.68 388.158 Q1802.18 386.804 1805.48 386.144 Q1808.78 385.45 1811.9 385.45 Q1820.34 385.45 1824.51 389.825 Q1828.68 394.199 1828.68 403.088 Z" fill="#000000" fill-rule="nonzero" fill-opacity="1" /><path clip-path="url(#clip470)" d="M1841.84 371.248 L1848.22 371.248 L1848.22 425.276 L1841.84 425.276 L1841.84 371.248 Z" fill="#000000" fill-rule="nonzero" fill-opacity="1" /><path clip-path="url(#clip470)" d="M1861.87 373.436 L1891.66 373.436 L1891.66 379.338 L1868.88 379.338 L1868.88 394.616 L1889.44 394.616 L1889.44 400.519 L1868.88 400.519 L1868.88 425.276 L1861.87 425.276 L1861.87 373.436 Z" fill="#000000" fill-rule="nonzero" fill-opacity="1" /><path clip-path="url(#clip470)" d="M1902.77 373.436 L1913.22 373.436 L1926.45 408.713 L1939.75 373.436 L1950.2 373.436 L1950.2 425.276 L1943.36 425.276 L1943.36 379.755 L1929.99 415.31 L1922.95 415.31 L1909.58 379.755 L1909.58 425.276 L1902.77 425.276 L1902.77 373.436 Z" fill="#000000" fill-rule="nonzero" fill-opacity="1" /><path clip-path="url(#clip470)" d="M1963.33 373.436 L1970.38 373.436 L1970.38 404.929 Q1970.38 413.262 1973.4 416.942 Q1976.42 420.588 1983.19 420.588 Q1989.92 420.588 1992.95 416.942 Q1995.97 413.262 1995.97 404.929 L1995.97 373.436 L2003.02 373.436 L2003.02 405.797 Q2003.02 415.935 1997.98 421.109 Q1992.98 426.283 1983.19 426.283 Q1973.36 426.283 1968.33 421.109 Q1963.33 415.935 1963.33 405.797 L1963.33 373.436 Z" fill="#000000" fill-rule="nonzero" fill-opacity="1" /><path clip-path="url(#clip470)" d="M2053.85 371.318 Q2049.2 379.304 2046.94 387.116 Q2044.68 394.929 2044.68 402.949 Q2044.68 410.97 2046.94 418.852 Q2049.23 426.699 2053.85 434.651 L2048.29 434.651 Q2043.08 426.491 2040.48 418.609 Q2037.91 410.727 2037.91 402.949 Q2037.91 395.206 2040.48 387.359 Q2043.05 379.512 2048.29 371.318 L2053.85 371.318 Z" fill="#000000" fill-rule="nonzero" fill-opacity="1" /><path clip-path="url(#clip470)" d="M2073.19 419.373 L2097.67 419.373 L2097.67 425.276 L2064.75 425.276 L2064.75 419.373 Q2068.74 415.241 2075.62 408.297 Q2082.53 401.318 2084.3 399.304 Q2087.67 395.519 2088.99 392.915 Q2090.34 390.276 2090.34 387.741 Q2090.34 383.609 2087.42 381.005 Q2084.54 378.401 2079.89 378.401 Q2076.59 378.401 2072.91 379.547 Q2069.26 380.693 2065.1 383.019 L2065.1 375.936 Q2069.33 374.234 2073.01 373.366 Q2076.7 372.498 2079.75 372.498 Q2087.81 372.498 2092.6 376.526 Q2097.39 380.554 2097.39 387.29 Q2097.39 390.484 2096.17 393.366 Q2094.99 396.213 2091.83 400.102 Q2090.97 401.109 2086.31 405.936 Q2081.66 410.727 2073.19 419.373 Z" fill="#000000" fill-rule="nonzero" fill-opacity="1" /><path clip-path="url(#clip470)" d="M2112.46 373.436 L2139.99 373.436 L2139.99 379.338 L2118.88 379.338 L2118.88 392.047 Q2120.41 391.526 2121.94 391.283 Q2123.47 391.005 2124.99 391.005 Q2133.67 391.005 2138.74 395.762 Q2143.81 400.519 2143.81 408.644 Q2143.81 417.012 2138.6 421.665 Q2133.4 426.283 2123.92 426.283 Q2120.65 426.283 2117.25 425.727 Q2113.88 425.172 2110.27 424.06 L2110.27 417.012 Q2113.4 418.713 2116.73 419.547 Q2120.06 420.38 2123.78 420.38 Q2129.79 420.38 2133.29 417.22 Q2136.8 414.06 2136.8 408.644 Q2136.8 403.227 2133.29 400.068 Q2129.79 396.908 2123.78 396.908 Q2120.97 396.908 2118.15 397.533 Q2115.38 398.158 2112.46 399.477 L2112.46 373.436 Z" fill="#000000" fill-rule="nonzero" fill-opacity="1" /><path clip-path="url(#clip470)" d="M2172.63 378.054 Q2167.22 378.054 2164.47 383.401 Q2161.76 388.713 2161.76 399.408 Q2161.76 410.067 2164.47 415.415 Q2167.22 420.727 2172.63 420.727 Q2178.08 420.727 2180.79 415.415 Q2183.53 410.067 2183.53 399.408 Q2183.53 388.713 2180.79 383.401 Q2178.08 378.054 2172.63 378.054 M2172.63 372.498 Q2181.35 372.498 2185.93 379.408 Q2190.55 386.283 2190.55 399.408 Q2190.55 412.498 2185.93 419.408 Q2181.35 426.283 2172.63 426.283 Q2163.92 426.283 2159.3 419.408 Q2154.72 412.498 2154.72 399.408 Q2154.72 386.283 2159.3 379.408 Q2163.92 372.498 2172.63 372.498 Z" fill="#000000" fill-rule="nonzero" fill-opacity="1" /><path clip-path="url(#clip470)" d="M2217.87 378.054 Q2212.46 378.054 2209.72 383.401 Q2207.01 388.713 2207.01 399.408 Q2207.01 410.067 2209.72 415.415 Q2212.46 420.727 2217.87 420.727 Q2223.33 420.727 2226.03 415.415 Q2228.78 410.067 2228.78 399.408 Q2228.78 388.713 2226.03 383.401 Q2223.33 378.054 2217.87 378.054 M2217.87 372.498 Q2226.59 372.498 2231.17 379.408 Q2235.79 386.283 2235.79 399.408 Q2235.79 412.498 2231.17 419.408 Q2226.59 426.283 2217.87 426.283 Q2209.16 426.283 2204.54 419.408 Q2199.96 412.498 2199.96 399.408 Q2199.96 386.283 2204.54 379.408 Q2209.16 372.498 2217.87 372.498 Z" fill="#000000" fill-rule="nonzero" fill-opacity="1" /><path clip-path="url(#clip470)" d="M2246.21 371.318 L2251.76 371.318 Q2256.97 379.512 2259.54 387.359 Q2262.15 395.206 2262.15 402.949 Q2262.15 410.727 2259.54 418.609 Q2256.97 426.491 2251.76 434.651 L2246.21 434.651 Q2250.83 426.699 2253.08 418.852 Q2255.37 410.97 2255.37 402.949 Q2255.37 394.929 2253.08 387.116 Q2250.83 379.304 2246.21 371.318 Z" fill="#000000" fill-rule="nonzero" fill-opacity="1" /></svg>
