<?xml version="1.0" encoding="utf-8"?>
<svg xmlns="http://www.w3.org/2000/svg" xmlns:xlink="http://www.w3.org/1999/xlink" width="600" height="400" viewBox="0 0 2400 1600">
<defs>
  <clipPath id="clip270">
    <rect x="0" y="0" width="2400" height="1600"/>
  </clipPath>
</defs>
<path clip-path="url(#clip270)" d="M0 1600 L2400 1600 L2400 0 L0 0  Z" fill="#ffffff" fill-rule="evenodd" fill-opacity="1"/>
<defs>
  <clipPath id="clip271">
    <rect x="480" y="0" width="1681" height="1600"/>
  </clipPath>
</defs>
<path clip-path="url(#clip270)" d="M247.878 1401.58 L2352.76 1401.58 L2352.76 123.472 L247.878 123.472  Z" fill="#ffffff" fill-rule="evenodd" fill-opacity="1"/>
<defs>
  <clipPath id="clip272">
    <rect x="247" y="123" width="2106" height="1279"/>
  </clipPath>
</defs>
<polyline clip-path="url(#clip272)" style="stroke:#000000; stroke-linecap:round; stroke-linejoin:round; stroke-width:2; stroke-opacity:0.1; fill:none" points="458.366,1401.58 458.366,123.472 "/>
<polyline clip-path="url(#clip272)" style="stroke:#000000; stroke-linecap:round; stroke-linejoin:round; stroke-width:2; stroke-opacity:0.1; fill:none" points="879.342,1401.58 879.342,123.472 "/>
<polyline clip-path="url(#clip272)" style="stroke:#000000; stroke-linecap:round; stroke-linejoin:round; stroke-width:2; stroke-opacity:0.1; fill:none" points="1300.32,1401.58 1300.32,123.472 "/>
<polyline clip-path="url(#clip272)" style="stroke:#000000; stroke-linecap:round; stroke-linejoin:round; stroke-width:2; stroke-opacity:0.1; fill:none" points="1721.29,1401.58 1721.29,123.472 "/>
<polyline clip-path="url(#clip272)" style="stroke:#000000; stroke-linecap:round; stroke-linejoin:round; stroke-width:2; stroke-opacity:0.1; fill:none" points="2142.27,1401.58 2142.27,123.472 "/>
<polyline clip-path="url(#clip270)" style="stroke:#000000; stroke-linecap:round; stroke-linejoin:round; stroke-width:4; stroke-opacity:1; fill:none" points="247.878,1401.58 2352.76,1401.58 "/>
<polyline clip-path="url(#clip270)" style="stroke:#000000; stroke-linecap:round; stroke-linejoin:round; stroke-width:4; stroke-opacity:1; fill:none" points="458.366,1401.58 458.366,1382.68 "/>
<polyline clip-path="url(#clip270)" style="stroke:#000000; stroke-linecap:round; stroke-linejoin:round; stroke-width:4; stroke-opacity:1; fill:none" points="879.342,1401.58 879.342,1382.68 "/>
<polyline clip-path="url(#clip270)" style="stroke:#000000; stroke-linecap:round; stroke-linejoin:round; stroke-width:4; stroke-opacity:1; fill:none" points="1300.32,1401.58 1300.32,1382.68 "/>
<polyline clip-path="url(#clip270)" style="stroke:#000000; stroke-linecap:round; stroke-linejoin:round; stroke-width:4; stroke-opacity:1; fill:none" points="1721.29,1401.58 1721.29,1382.68 "/>
<polyline clip-path="url(#clip270)" style="stroke:#000000; stroke-linecap:round; stroke-linejoin:round; stroke-width:4; stroke-opacity:1; fill:none" points="2142.27,1401.58 2142.27,1382.68 "/>
<path clip-path="url(#clip270)" d="M378.158 1460.34 L422.672 1460.34 L422.672 1466.24 L378.158 1466.24 L378.158 1460.34 Z" fill="#000000" fill-rule="nonzero" fill-opacity="1" /><path clip-path="url(#clip270)" d="M439.026 1479.68 L450.484 1479.68 L450.484 1440.13 L438.019 1442.63 L438.019 1436.24 L450.415 1433.74 L457.429 1433.74 L457.429 1479.68 L468.887 1479.68 L468.887 1485.58 L439.026 1485.58 L439.026 1479.68 Z" fill="#000000" fill-rule="nonzero" fill-opacity="1" /><path clip-path="url(#clip270)" d="M483.053 1476.76 L490.38 1476.76 L490.38 1485.58 L483.053 1485.58 L483.053 1476.76 Z" fill="#000000" fill-rule="nonzero" fill-opacity="1" /><path clip-path="url(#clip270)" d="M520.657 1438.36 Q515.241 1438.36 512.498 1443.71 Q509.789 1449.02 509.789 1459.71 Q509.789 1470.37 512.498 1475.72 Q515.241 1481.03 520.657 1481.03 Q526.109 1481.03 528.817 1475.72 Q531.56 1470.37 531.56 1459.71 Q531.56 1449.02 528.817 1443.71 Q526.109 1438.36 520.657 1438.36 M520.657 1432.8 Q529.373 1432.8 533.956 1439.71 Q538.574 1446.59 538.574 1459.71 Q538.574 1472.8 533.956 1479.71 Q529.373 1486.59 520.657 1486.59 Q511.942 1486.59 507.324 1479.71 Q502.741 1472.8 502.741 1459.71 Q502.741 1446.59 507.324 1439.71 Q511.942 1432.8 520.657 1432.8 Z" fill="#000000" fill-rule="nonzero" fill-opacity="1" /><path clip-path="url(#clip270)" d="M799.88 1460.34 L844.394 1460.34 L844.394 1466.24 L799.88 1466.24 L799.88 1460.34 Z" fill="#000000" fill-rule="nonzero" fill-opacity="1" /><path clip-path="url(#clip270)" d="M874.533 1438.36 Q869.116 1438.36 866.373 1443.71 Q863.665 1449.02 863.665 1459.71 Q863.665 1470.37 866.373 1475.72 Q869.116 1481.03 874.533 1481.03 Q879.984 1481.03 882.692 1475.72 Q885.435 1470.37 885.435 1459.71 Q885.435 1449.02 882.692 1443.71 Q879.984 1438.36 874.533 1438.36 M874.533 1432.8 Q883.248 1432.8 887.831 1439.71 Q892.449 1446.59 892.449 1459.71 Q892.449 1472.8 887.831 1479.71 Q883.248 1486.59 874.533 1486.59 Q865.817 1486.59 861.199 1479.71 Q856.616 1472.8 856.616 1459.71 Q856.616 1446.59 861.199 1439.71 Q865.817 1432.8 874.533 1432.8 Z" fill="#000000" fill-rule="nonzero" fill-opacity="1" /><path clip-path="url(#clip270)" d="M904.775 1476.76 L912.102 1476.76 L912.102 1485.58 L904.775 1485.58 L904.775 1476.76 Z" fill="#000000" fill-rule="nonzero" fill-opacity="1" /><path clip-path="url(#clip270)" d="M927.449 1433.74 L954.984 1433.74 L954.984 1439.64 L933.873 1439.64 L933.873 1452.35 Q935.4 1451.83 936.928 1451.59 Q938.456 1451.31 939.984 1451.31 Q948.664 1451.31 953.734 1456.07 Q958.803 1460.82 958.803 1468.95 Q958.803 1477.32 953.595 1481.97 Q948.386 1486.59 938.907 1486.59 Q935.643 1486.59 932.241 1486.03 Q928.873 1485.48 925.261 1484.36 L925.261 1477.32 Q928.386 1479.02 931.72 1479.85 Q935.053 1480.68 938.768 1480.68 Q944.775 1480.68 948.282 1477.52 Q951.789 1474.36 951.789 1468.95 Q951.789 1463.53 948.282 1460.37 Q944.775 1457.21 938.768 1457.21 Q935.956 1457.21 933.143 1457.84 Q930.366 1458.46 927.449 1459.78 L927.449 1433.74 Z" fill="#000000" fill-rule="nonzero" fill-opacity="1" /><path clip-path="url(#clip270)" d="M1266.39 1438.36 Q1260.98 1438.36 1258.23 1443.71 Q1255.53 1449.02 1255.53 1459.71 Q1255.53 1470.37 1258.23 1475.72 Q1260.98 1481.03 1266.39 1481.03 Q1271.85 1481.03 1274.55 1475.72 Q1277.3 1470.37 1277.3 1459.71 Q1277.3 1449.02 1274.55 1443.71 Q1271.85 1438.36 1266.39 1438.36 M1266.39 1432.8 Q1275.11 1432.8 1279.69 1439.71 Q1284.31 1446.59 1284.31 1459.71 Q1284.31 1472.8 1279.69 1479.71 Q1275.11 1486.59 1266.39 1486.59 Q1257.68 1486.59 1253.06 1479.71 Q1248.48 1472.8 1248.48 1459.71 Q1248.48 1446.59 1253.06 1439.71 Q1257.68 1432.8 1266.39 1432.8 Z" fill="#000000" fill-rule="nonzero" fill-opacity="1" /><path clip-path="url(#clip270)" d="M1296.64 1476.76 L1303.96 1476.76 L1303.96 1485.58 L1296.64 1485.58 L1296.64 1476.76 Z" fill="#000000" fill-rule="nonzero" fill-opacity="1" /><path clip-path="url(#clip270)" d="M1334.24 1438.36 Q1328.82 1438.36 1326.08 1443.71 Q1323.37 1449.02 1323.37 1459.71 Q1323.37 1470.37 1326.08 1475.72 Q1328.82 1481.03 1334.24 1481.03 Q1339.69 1481.03 1342.4 1475.72 Q1345.14 1470.37 1345.14 1459.71 Q1345.14 1449.02 1342.4 1443.71 Q1339.69 1438.36 1334.24 1438.36 M1334.24 1432.8 Q1342.96 1432.8 1347.54 1439.71 Q1352.16 1446.59 1352.16 1459.71 Q1352.16 1472.8 1347.54 1479.71 Q1342.96 1486.59 1334.24 1486.59 Q1325.53 1486.59 1320.91 1479.71 Q1316.32 1472.8 1316.32 1459.71 Q1316.32 1446.59 1320.91 1439.71 Q1325.53 1432.8 1334.24 1432.8 Z" fill="#000000" fill-rule="nonzero" fill-opacity="1" /><path clip-path="url(#clip270)" d="M1688.12 1438.36 Q1682.7 1438.36 1679.96 1443.71 Q1677.25 1449.02 1677.25 1459.71 Q1677.25 1470.37 1679.96 1475.72 Q1682.7 1481.03 1688.12 1481.03 Q1693.57 1481.03 1696.28 1475.72 Q1699.02 1470.37 1699.02 1459.71 Q1699.02 1449.02 1696.28 1443.71 Q1693.57 1438.36 1688.12 1438.36 M1688.12 1432.8 Q1696.83 1432.8 1701.41 1439.71 Q1706.03 1446.59 1706.03 1459.71 Q1706.03 1472.8 1701.41 1479.71 Q1696.83 1486.59 1688.12 1486.59 Q1679.4 1486.59 1674.78 1479.71 Q1670.2 1472.8 1670.2 1459.71 Q1670.2 1446.59 1674.78 1439.71 Q1679.4 1432.8 1688.12 1432.8 Z" fill="#000000" fill-rule="nonzero" fill-opacity="1" /><path clip-path="url(#clip270)" d="M1718.36 1476.76 L1725.68 1476.76 L1725.68 1485.58 L1718.36 1485.58 L1718.36 1476.76 Z" fill="#000000" fill-rule="nonzero" fill-opacity="1" /><path clip-path="url(#clip270)" d="M1741.03 1433.74 L1768.57 1433.74 L1768.57 1439.64 L1747.46 1439.64 L1747.46 1452.35 Q1748.98 1451.83 1750.51 1451.59 Q1752.04 1451.31 1753.57 1451.31 Q1762.25 1451.31 1767.32 1456.07 Q1772.39 1460.82 1772.39 1468.95 Q1772.39 1477.32 1767.18 1481.97 Q1761.97 1486.59 1752.49 1486.59 Q1749.23 1486.59 1745.82 1486.03 Q1742.46 1485.48 1738.84 1484.36 L1738.84 1477.32 Q1741.97 1479.02 1745.3 1479.85 Q1748.64 1480.68 1752.35 1480.68 Q1758.36 1480.68 1761.87 1477.52 Q1765.37 1474.36 1765.37 1468.95 Q1765.37 1463.53 1761.87 1460.37 Q1758.36 1457.21 1752.35 1457.21 Q1749.54 1457.21 1746.73 1457.84 Q1743.95 1458.46 1741.03 1459.78 L1741.03 1433.74 Z" fill="#000000" fill-rule="nonzero" fill-opacity="1" /><path clip-path="url(#clip270)" d="M2093 1479.68 L2104.46 1479.68 L2104.46 1440.13 L2091.99 1442.63 L2091.99 1436.24 L2104.39 1433.74 L2111.4 1433.74 L2111.4 1479.68 L2122.86 1479.68 L2122.86 1485.58 L2093 1485.58 L2093 1479.68 Z" fill="#000000" fill-rule="nonzero" fill-opacity="1" /><path clip-path="url(#clip270)" d="M2137.03 1476.76 L2144.35 1476.76 L2144.35 1485.58 L2137.03 1485.58 L2137.03 1476.76 Z" fill="#000000" fill-rule="nonzero" fill-opacity="1" /><path clip-path="url(#clip270)" d="M2174.63 1438.36 Q2169.21 1438.36 2166.47 1443.71 Q2163.76 1449.02 2163.76 1459.71 Q2163.76 1470.37 2166.47 1475.72 Q2169.21 1481.03 2174.63 1481.03 Q2180.08 1481.03 2182.79 1475.72 Q2185.53 1470.37 2185.53 1459.71 Q2185.53 1449.02 2182.79 1443.71 Q2180.08 1438.36 2174.63 1438.36 M2174.63 1432.8 Q2183.34 1432.8 2187.93 1439.71 Q2192.55 1446.59 2192.55 1459.71 Q2192.55 1472.8 2187.93 1479.71 Q2183.34 1486.59 2174.63 1486.59 Q2165.91 1486.59 2161.3 1479.71 Q2156.71 1472.8 2156.71 1459.71 Q2156.71 1446.59 2161.3 1439.71 Q2165.91 1432.8 2174.63 1432.8 Z" fill="#000000" fill-rule="nonzero" fill-opacity="1" /><path clip-path="url(#clip270)" d="M1179.21 1538.66 L1185.98 1538.66 L1198.13 1571.3 L1210.28 1538.66 L1217.05 1538.66 L1202.47 1577.55 L1193.79 1577.55 L1179.21 1538.66 Z" fill="#000000" fill-rule="nonzero" fill-opacity="1" /><path clip-path="url(#clip270)" d="M1247.89 1523.52 L1262.61 1523.52 L1262.61 1528.49 L1254.28 1528.49 L1254.28 1581.96 L1262.61 1581.96 L1262.61 1586.92 L1247.89 1586.92 L1247.89 1523.52 Z" fill="#000000" fill-rule="nonzero" fill-opacity="1" /><path clip-path="url(#clip270)" d="M1306.5 1546.12 Q1308.89 1541.82 1312.23 1539.77 Q1315.56 1537.72 1320.07 1537.72 Q1326.15 1537.72 1329.45 1541.99 Q1332.75 1546.23 1332.75 1554.08 L1332.75 1577.55 L1326.32 1577.55 L1326.32 1554.28 Q1326.32 1548.69 1324.34 1545.99 Q1322.37 1543.28 1318.3 1543.28 Q1313.34 1543.28 1310.46 1546.58 Q1307.57 1549.87 1307.57 1555.57 L1307.57 1577.55 L1301.15 1577.55 L1301.15 1554.28 Q1301.15 1548.66 1299.17 1545.99 Q1297.19 1543.28 1293.06 1543.28 Q1288.16 1543.28 1285.28 1546.61 Q1282.4 1549.91 1282.4 1555.57 L1282.4 1577.55 L1275.98 1577.55 L1275.98 1538.66 L1282.4 1538.66 L1282.4 1544.7 Q1284.59 1541.12 1287.64 1539.42 Q1290.7 1537.72 1294.9 1537.72 Q1299.14 1537.72 1302.09 1539.87 Q1305.07 1542.03 1306.5 1546.12 Z" fill="#000000" fill-rule="nonzero" fill-opacity="1" /><path clip-path="url(#clip270)" d="M1356.84 1525.71 L1362.75 1525.71 L1344.69 1584.15 L1338.79 1584.15 L1356.84 1525.71 Z" fill="#000000" fill-rule="nonzero" fill-opacity="1" /><path clip-path="url(#clip270)" d="M1394.24 1539.8 L1394.24 1545.85 Q1391.53 1544.46 1388.62 1543.76 Q1385.7 1543.07 1382.57 1543.07 Q1377.82 1543.07 1375.42 1544.53 Q1373.06 1545.99 1373.06 1548.9 Q1373.06 1551.12 1374.76 1552.41 Q1376.46 1553.66 1381.6 1554.8 L1383.79 1555.29 Q1390.59 1556.75 1393.44 1559.42 Q1396.32 1562.06 1396.32 1566.82 Q1396.32 1572.24 1392.02 1575.4 Q1387.75 1578.55 1380.25 1578.55 Q1377.12 1578.55 1373.72 1577.93 Q1370.35 1577.34 1366.6 1576.12 L1366.6 1569.53 Q1370.14 1571.37 1373.58 1572.3 Q1377.02 1573.21 1380.39 1573.21 Q1384.9 1573.21 1387.33 1571.68 Q1389.76 1570.12 1389.76 1567.3 Q1389.76 1564.7 1387.99 1563.31 Q1386.25 1561.92 1380.32 1560.64 L1378.09 1560.12 Q1372.16 1558.87 1369.52 1556.3 Q1366.88 1553.69 1366.88 1549.18 Q1366.88 1543.69 1370.77 1540.71 Q1374.66 1537.72 1381.81 1537.72 Q1385.35 1537.72 1388.48 1538.24 Q1391.6 1538.76 1394.24 1539.8 Z" fill="#000000" fill-rule="nonzero" fill-opacity="1" /><path clip-path="url(#clip270)" d="M1421.43 1523.52 L1421.43 1586.92 L1406.71 1586.92 L1406.71 1581.96 L1415 1581.96 L1415 1528.49 L1406.71 1528.49 L1406.71 1523.52 L1421.43 1523.52 Z" fill="#000000" fill-rule="nonzero" fill-opacity="1" /><polyline clip-path="url(#clip272)" style="stroke:#000000; stroke-linecap:round; stroke-linejoin:round; stroke-width:2; stroke-opacity:0.1; fill:none" points="247.878,1305.94 2352.76,1305.94 "/>
<polyline clip-path="url(#clip272)" style="stroke:#000000; stroke-linecap:round; stroke-linejoin:round; stroke-width:2; stroke-opacity:0.1; fill:none" points="247.878,1061.44 2352.76,1061.44 "/>
<polyline clip-path="url(#clip272)" style="stroke:#000000; stroke-linecap:round; stroke-linejoin:round; stroke-width:2; stroke-opacity:0.1; fill:none" points="247.878,816.932 2352.76,816.932 "/>
<polyline clip-path="url(#clip272)" style="stroke:#000000; stroke-linecap:round; stroke-linejoin:round; stroke-width:2; stroke-opacity:0.1; fill:none" points="247.878,572.428 2352.76,572.428 "/>
<polyline clip-path="url(#clip272)" style="stroke:#000000; stroke-linecap:round; stroke-linejoin:round; stroke-width:2; stroke-opacity:0.1; fill:none" points="247.878,327.924 2352.76,327.924 "/>
<polyline clip-path="url(#clip270)" style="stroke:#000000; stroke-linecap:round; stroke-linejoin:round; stroke-width:4; stroke-opacity:1; fill:none" points="247.878,1401.58 247.878,123.472 "/>
<polyline clip-path="url(#clip270)" style="stroke:#000000; stroke-linecap:round; stroke-linejoin:round; stroke-width:4; stroke-opacity:1; fill:none" points="247.878,1305.94 266.776,1305.94 "/>
<polyline clip-path="url(#clip270)" style="stroke:#000000; stroke-linecap:round; stroke-linejoin:round; stroke-width:4; stroke-opacity:1; fill:none" points="247.878,1061.44 266.776,1061.44 "/>
<polyline clip-path="url(#clip270)" style="stroke:#000000; stroke-linecap:round; stroke-linejoin:round; stroke-width:4; stroke-opacity:1; fill:none" points="247.878,816.932 266.776,816.932 "/>
<polyline clip-path="url(#clip270)" style="stroke:#000000; stroke-linecap:round; stroke-linejoin:round; stroke-width:4; stroke-opacity:1; fill:none" points="247.878,572.428 266.776,572.428 "/>
<polyline clip-path="url(#clip270)" style="stroke:#000000; stroke-linecap:round; stroke-linejoin:round; stroke-width:4; stroke-opacity:1; fill:none" points="247.878,327.924 266.776,327.924 "/>
<path clip-path="url(#clip270)" d="M118.58 1306.62 L163.094 1306.62 L163.094 1312.52 L118.58 1312.52 L118.58 1306.62 Z" fill="#000000" fill-rule="nonzero" fill-opacity="1" /><path clip-path="url(#clip270)" d="M197.503 1286.13 L179.795 1313.8 L197.503 1313.8 L197.503 1286.13 M195.663 1280.02 L204.482 1280.02 L204.482 1313.8 L211.878 1313.8 L211.878 1319.64 L204.482 1319.64 L204.482 1331.86 L197.503 1331.86 L197.503 1319.64 L174.101 1319.64 L174.101 1312.87 L195.663 1280.02 Z" fill="#000000" fill-rule="nonzero" fill-opacity="1" /><path clip-path="url(#clip270)" d="M121.705 1062.11 L166.219 1062.11 L166.219 1068.02 L121.705 1068.02 L121.705 1062.11 Z" fill="#000000" fill-rule="nonzero" fill-opacity="1" /><path clip-path="url(#clip270)" d="M187.399 1081.45 L211.878 1081.45 L211.878 1087.36 L178.962 1087.36 L178.962 1081.45 Q182.955 1077.32 189.83 1070.38 Q196.739 1063.4 198.51 1061.38 Q201.878 1057.6 203.198 1054.99 Q204.552 1052.36 204.552 1049.82 Q204.552 1045.69 201.635 1043.08 Q198.753 1040.48 194.101 1040.48 Q190.802 1040.48 187.121 1041.63 Q183.476 1042.77 179.309 1045.1 L179.309 1038.02 Q183.545 1036.31 187.226 1035.45 Q190.906 1034.58 193.962 1034.58 Q202.017 1034.58 206.809 1038.61 Q211.6 1042.63 211.6 1049.37 Q211.6 1052.56 210.385 1055.45 Q209.205 1058.29 206.045 1062.18 Q205.177 1063.19 200.524 1068.02 Q195.871 1072.81 187.399 1081.45 Z" fill="#000000" fill-rule="nonzero" fill-opacity="1" /><path clip-path="url(#clip270)" d="M193.962 795.63 Q188.545 795.63 185.802 800.977 Q183.094 806.289 183.094 816.984 Q183.094 827.643 185.802 832.991 Q188.545 838.303 193.962 838.303 Q199.413 838.303 202.121 832.991 Q204.864 827.643 204.864 816.984 Q204.864 806.289 202.121 800.977 Q199.413 795.63 193.962 795.63 M193.962 790.074 Q202.677 790.074 207.26 796.984 Q211.878 803.859 211.878 816.984 Q211.878 830.074 207.26 836.984 Q202.677 843.859 193.962 843.859 Q185.246 843.859 180.628 836.984 Q176.045 830.074 176.045 816.984 Q176.045 803.859 180.628 796.984 Q185.246 790.074 193.962 790.074 Z" fill="#000000" fill-rule="nonzero" fill-opacity="1" /><path clip-path="url(#clip270)" d="M187.399 592.445 L211.878 592.445 L211.878 598.348 L178.962 598.348 L178.962 592.445 Q182.955 588.313 189.83 581.369 Q196.739 574.39 198.51 572.376 Q201.878 568.591 203.198 565.987 Q204.552 563.348 204.552 560.813 Q204.552 556.681 201.635 554.077 Q198.753 551.473 194.101 551.473 Q190.802 551.473 187.121 552.619 Q183.476 553.765 179.309 556.091 L179.309 549.008 Q183.545 547.306 187.226 546.438 Q190.906 545.57 193.962 545.57 Q202.017 545.57 206.809 549.598 Q211.6 553.626 211.6 560.362 Q211.6 563.556 210.385 566.438 Q209.205 569.285 206.045 573.174 Q205.177 574.181 200.524 579.008 Q195.871 583.799 187.399 592.445 Z" fill="#000000" fill-rule="nonzero" fill-opacity="1" /><path clip-path="url(#clip270)" d="M197.503 308.115 L179.795 335.788 L197.503 335.788 L197.503 308.115 M195.663 302.004 L204.482 302.004 L204.482 335.788 L211.878 335.788 L211.878 341.622 L204.482 341.622 L204.482 353.844 L197.503 353.844 L197.503 341.622 L174.101 341.622 L174.101 334.851 L195.663 302.004 Z" fill="#000000" fill-rule="nonzero" fill-opacity="1" /><path clip-path="url(#clip270)" d="M13.0007 1025.04 L18.3131 1025.04 L18.3131 1031.15 Q18.3131 1034.59 19.702 1035.94 Q21.0909 1037.26 24.702 1037.26 L28.1395 1037.26 L28.1395 1026.74 L33.1047 1026.74 L33.1047 1037.26 L67.0282 1037.26 L67.0282 1043.69 L33.1047 1043.69 L33.1047 1049.8 L28.1395 1049.8 L28.1395 1043.69 L25.4312 1043.69 Q18.9381 1043.69 15.9868 1040.67 Q13.0007 1037.65 13.0007 1031.08 L13.0007 1025.04 Z" fill="#000000" fill-rule="nonzero" fill-opacity="1" /><path clip-path="url(#clip270)" d="M34.1117 997.16 Q33.4867 998.237 33.2089 999.521 Q32.8964 1000.77 32.8964 1002.3 Q32.8964 1007.72 36.438 1010.63 Q39.945 1013.51 46.5422 1013.51 L67.0282 1013.51 L67.0282 1019.94 L28.1395 1019.94 L28.1395 1013.51 L34.1811 1013.51 Q30.6395 1011.5 28.9381 1008.27 Q27.202 1005.04 27.202 1000.42 Q27.202 999.764 27.3061 998.966 Q27.3756 998.167 27.5492 997.195 L34.1117 997.16 Z" fill="#000000" fill-rule="nonzero" fill-opacity="1" /><path clip-path="url(#clip270)" d="M28.1395 990.459 L28.1395 984.07 L67.0282 984.07 L67.0282 990.459 L28.1395 990.459 M13.0007 990.459 L13.0007 984.07 L21.0909 984.07 L21.0909 990.459 L13.0007 990.459 Z" fill="#000000" fill-rule="nonzero" fill-opacity="1" /><path clip-path="url(#clip270)" d="M29.6325 942.716 L35.6047 942.716 Q34.1117 945.424 33.3825 948.167 Q32.6186 950.876 32.6186 953.653 Q32.6186 959.869 36.5769 963.306 Q40.5005 966.744 47.6185 966.744 Q54.7366 966.744 58.6949 963.306 Q62.6185 959.869 62.6185 953.653 Q62.6185 950.876 61.8893 948.167 Q61.1254 945.424 59.6324 942.716 L65.5351 942.716 Q66.7851 945.39 67.4101 948.272 Q68.0351 951.119 68.0351 954.348 Q68.0351 963.133 62.5143 968.306 Q56.9935 973.48 47.6185 973.48 Q38.1047 973.48 32.6533 968.271 Q27.202 963.028 27.202 953.931 Q27.202 950.98 27.827 948.167 Q28.4173 945.355 29.6325 942.716 Z" fill="#000000" fill-rule="nonzero" fill-opacity="1" /><path clip-path="url(#clip270)" d="M17.0979 925.286 L28.1395 925.286 L28.1395 912.126 L33.1047 912.126 L33.1047 925.286 L54.2157 925.286 Q58.9726 925.286 60.3268 924.001 Q61.681 922.681 61.681 918.688 L61.681 912.126 L67.0282 912.126 L67.0282 918.688 Q67.0282 926.084 64.2851 928.897 Q61.5074 931.709 54.2157 931.709 L33.1047 931.709 L33.1047 936.397 L28.1395 936.397 L28.1395 931.709 L17.0979 931.709 L17.0979 925.286 Z" fill="#000000" fill-rule="nonzero" fill-opacity="1" /><path clip-path="url(#clip270)" d="M28.1395 903.723 L28.1395 897.334 L67.0282 897.334 L67.0282 903.723 L28.1395 903.723 M13.0007 903.723 L13.0007 897.334 L21.0909 897.334 L21.0909 903.723 L13.0007 903.723 Z" fill="#000000" fill-rule="nonzero" fill-opacity="1" /><path clip-path="url(#clip270)" d="M32.6186 868.897 Q32.6186 874.036 36.6464 877.022 Q40.6394 880.008 47.6185 880.008 Q54.5977 880.008 58.6254 877.057 Q62.6185 874.071 62.6185 868.897 Q62.6185 863.793 58.5907 860.807 Q54.5629 857.821 47.6185 857.821 Q40.7089 857.821 36.6811 860.807 Q32.6186 863.793 32.6186 868.897 M27.202 868.897 Q27.202 860.564 32.6186 855.807 Q38.0353 851.05 47.6185 851.05 Q57.1671 851.05 62.6185 855.807 Q68.0351 860.564 68.0351 868.897 Q68.0351 877.265 62.6185 882.022 Q57.1671 886.744 47.6185 886.744 Q38.0353 886.744 32.6186 882.022 Q27.202 877.265 27.202 868.897 Z" fill="#000000" fill-rule="nonzero" fill-opacity="1" /><path clip-path="url(#clip270)" d="M43.5561 808.133 L67.0282 808.133 L67.0282 814.522 L43.7644 814.522 Q38.2436 814.522 35.5005 816.675 Q32.7575 818.828 32.7575 823.133 Q32.7575 828.307 36.0561 831.293 Q39.3547 834.279 45.0491 834.279 L67.0282 834.279 L67.0282 840.703 L28.1395 840.703 L28.1395 834.279 L34.1811 834.279 Q30.6742 831.987 28.9381 828.897 Q27.202 825.772 27.202 821.71 Q27.202 815.008 31.3686 811.571 Q35.5005 808.133 43.5561 808.133 Z" fill="#000000" fill-rule="nonzero" fill-opacity="1" /><path clip-path="url(#clip270)" d="M13.0007 753.099 L18.3131 753.099 L18.3131 759.21 Q18.3131 762.648 19.702 764.002 Q21.0909 765.321 24.702 765.321 L28.1395 765.321 L28.1395 754.8 L33.1047 754.8 L33.1047 765.321 L67.0282 765.321 L67.0282 771.745 L33.1047 771.745 L33.1047 777.856 L28.1395 777.856 L28.1395 771.745 L25.4312 771.745 Q18.9381 771.745 15.9868 768.724 Q13.0007 765.703 13.0007 759.141 L13.0007 753.099 Z" fill="#000000" fill-rule="nonzero" fill-opacity="1" /><path clip-path="url(#clip270)" d="M32.6186 732.682 Q32.6186 737.821 36.6464 740.807 Q40.6394 743.793 47.6185 743.793 Q54.5977 743.793 58.6254 740.842 Q62.6185 737.856 62.6185 732.682 Q62.6185 727.578 58.5907 724.592 Q54.5629 721.606 47.6185 721.606 Q40.7089 721.606 36.6811 724.592 Q32.6186 727.578 32.6186 732.682 M27.202 732.682 Q27.202 724.349 32.6186 719.592 Q38.0353 714.835 47.6185 714.835 Q57.1671 714.835 62.6185 719.592 Q68.0351 724.349 68.0351 732.682 Q68.0351 741.05 62.6185 745.807 Q57.1671 750.53 47.6185 750.53 Q38.0353 750.53 32.6186 745.807 Q27.202 741.05 27.202 732.682 Z" fill="#000000" fill-rule="nonzero" fill-opacity="1" /><path clip-path="url(#clip270)" d="M34.1117 681.71 Q33.4867 682.787 33.2089 684.072 Q32.8964 685.322 32.8964 686.849 Q32.8964 692.266 36.438 695.183 Q39.945 698.065 46.5422 698.065 L67.0282 698.065 L67.0282 704.488 L28.1395 704.488 L28.1395 698.065 L34.1811 698.065 Q30.6395 696.051 28.9381 692.821 Q27.202 689.592 27.202 684.974 Q27.202 684.315 27.3061 683.516 Q27.3756 682.717 27.5492 681.745 L34.1117 681.71 Z" fill="#000000" fill-rule="nonzero" fill-opacity="1" /><path clip-path="url(#clip270)" d="M29.6325 648.586 L35.6047 648.586 Q34.1117 651.294 33.3825 654.037 Q32.6186 656.745 32.6186 659.523 Q32.6186 665.738 36.5769 669.176 Q40.5005 672.613 47.6185 672.613 Q54.7366 672.613 58.6949 669.176 Q62.6185 665.738 62.6185 659.523 Q62.6185 656.745 61.8893 654.037 Q61.1254 651.294 59.6324 648.586 L65.5351 648.586 Q66.7851 651.259 67.4101 654.141 Q68.0351 656.988 68.0351 660.218 Q68.0351 669.002 62.5143 674.176 Q56.9935 679.349 47.6185 679.349 Q38.1047 679.349 32.6533 674.141 Q27.202 668.898 27.202 659.801 Q27.202 656.849 27.827 654.037 Q28.4173 651.224 29.6325 648.586 Z" fill="#000000" fill-rule="nonzero" fill-opacity="1" /><path clip-path="url(#clip270)" d="M45.9866 604.211 L49.1116 604.211 L49.1116 633.586 Q55.7088 633.169 59.181 629.627 Q62.6185 626.051 62.6185 619.697 Q62.6185 616.016 61.7157 612.579 Q60.8129 609.107 59.0074 605.704 L65.049 605.704 Q66.5073 609.141 67.2712 612.752 Q68.0351 616.364 68.0351 620.079 Q68.0351 629.384 62.6185 634.836 Q57.2018 640.252 47.9658 640.252 Q38.4172 640.252 32.827 635.113 Q27.202 629.94 27.202 621.19 Q27.202 613.343 32.2714 608.794 Q37.3061 604.211 45.9866 604.211 M44.1116 610.6 Q38.8686 610.669 35.7436 613.551 Q32.6186 616.398 32.6186 621.12 Q32.6186 626.468 35.6394 629.697 Q38.6603 632.891 44.1463 633.377 L44.1116 610.6 Z" fill="#000000" fill-rule="nonzero" fill-opacity="1" /><path clip-path="url(#clip270)" d="M13.0007 571.711 L13.0007 556.989 L17.9659 556.989 L17.9659 565.322 L71.4379 565.322 L71.4379 556.989 L76.4031 556.989 L76.4031 571.711 L13.0007 571.711 Z" fill="#000000" fill-rule="nonzero" fill-opacity="1" /><path clip-path="url(#clip270)" d="M15.1882 543.1 L15.1882 533.656 L58.556 510.67 L15.1882 510.67 L15.1882 503.864 L67.0282 503.864 L67.0282 513.309 L23.6603 536.295 L67.0282 536.295 L67.0282 543.1 L15.1882 543.1 Z" fill="#000000" fill-rule="nonzero" fill-opacity="1" /><path clip-path="url(#clip270)" d="M13.0007 475.253 L76.4031 475.253 L76.4031 489.975 L71.4379 489.975 L71.4379 481.677 L17.9659 481.677 L17.9659 489.975 L13.0007 489.975 L13.0007 475.253 Z" fill="#000000" fill-rule="nonzero" fill-opacity="1" /><path clip-path="url(#clip270)" d="M974.604 12.096 L1009.36 12.096 L1009.36 18.9825 L982.787 18.9825 L982.787 36.8065 L1006.77 36.8065 L1006.77 43.6931 L982.787 43.6931 L982.787 72.576 L974.604 72.576 L974.604 12.096 Z" fill="#000000" fill-rule="nonzero" fill-opacity="1" /><path clip-path="url(#clip270)" d="M1042.25 34.1734 Q1041 33.4443 1039.5 33.1202 Q1038.04 32.7556 1036.26 32.7556 Q1029.94 32.7556 1026.54 36.8875 Q1023.17 40.9789 1023.17 48.6757 L1023.17 72.576 L1015.68 72.576 L1015.68 27.2059 L1023.17 27.2059 L1023.17 34.2544 Q1025.52 30.1225 1029.29 28.1376 Q1033.06 26.1121 1038.45 26.1121 Q1039.22 26.1121 1040.15 26.2337 Q1041.08 26.3147 1042.21 26.5172 L1042.25 34.1734 Z" fill="#000000" fill-rule="nonzero" fill-opacity="1" /><path clip-path="url(#clip270)" d="M1050.07 27.2059 L1057.53 27.2059 L1057.53 72.576 L1050.07 72.576 L1050.07 27.2059 M1050.07 9.54393 L1057.53 9.54393 L1057.53 18.9825 L1050.07 18.9825 L1050.07 9.54393 Z" fill="#000000" fill-rule="nonzero" fill-opacity="1" /><path clip-path="url(#clip270)" d="M1105.77 28.9478 L1105.77 35.9153 Q1102.61 34.1734 1099.41 33.3227 Q1096.25 32.4315 1093.01 32.4315 Q1085.76 32.4315 1081.75 37.0496 Q1077.74 41.6271 1077.74 49.9314 Q1077.74 58.2358 1081.75 62.8538 Q1085.76 67.4314 1093.01 67.4314 Q1096.25 67.4314 1099.41 66.5807 Q1102.61 65.6895 1105.77 63.9476 L1105.77 70.8341 Q1102.65 72.2924 1099.29 73.0216 Q1095.97 73.7508 1092.2 73.7508 Q1081.95 73.7508 1075.92 67.3098 Q1069.88 60.8689 1069.88 49.9314 Q1069.88 38.832 1075.96 32.472 Q1082.07 26.1121 1092.69 26.1121 Q1096.13 26.1121 1099.41 26.8413 Q1102.69 27.5299 1105.77 28.9478 Z" fill="#000000" fill-rule="nonzero" fill-opacity="1" /><path clip-path="url(#clip270)" d="M1126.11 14.324 L1126.11 27.2059 L1141.46 27.2059 L1141.46 32.9987 L1126.11 32.9987 L1126.11 57.6282 Q1126.11 63.1779 1127.61 64.7578 Q1129.15 66.3376 1133.8 66.3376 L1141.46 66.3376 L1141.46 72.576 L1133.8 72.576 Q1125.18 72.576 1121.9 69.3758 Q1118.61 66.1351 1118.61 57.6282 L1118.61 32.9987 L1113.15 32.9987 L1113.15 27.2059 L1118.61 27.2059 L1118.61 14.324 L1126.11 14.324 Z" fill="#000000" fill-rule="nonzero" fill-opacity="1" /><path clip-path="url(#clip270)" d="M1151.26 27.2059 L1158.72 27.2059 L1158.72 72.576 L1151.26 72.576 L1151.26 27.2059 M1151.26 9.54393 L1158.72 9.54393 L1158.72 18.9825 L1151.26 18.9825 L1151.26 9.54393 Z" fill="#000000" fill-rule="nonzero" fill-opacity="1" /><path clip-path="url(#clip270)" d="M1191.89 32.4315 Q1185.9 32.4315 1182.42 37.1306 Q1178.93 41.7891 1178.93 49.9314 Q1178.93 58.0738 1182.38 62.7728 Q1185.86 67.4314 1191.89 67.4314 Q1197.85 67.4314 1201.33 62.7323 Q1204.82 58.0333 1204.82 49.9314 Q1204.82 41.8701 1201.33 37.1711 Q1197.85 32.4315 1191.89 32.4315 M1191.89 26.1121 Q1201.62 26.1121 1207.17 32.4315 Q1212.72 38.7509 1212.72 49.9314 Q1212.72 61.0714 1207.17 67.4314 Q1201.62 73.7508 1191.89 73.7508 Q1182.13 73.7508 1176.58 67.4314 Q1171.07 61.0714 1171.07 49.9314 Q1171.07 38.7509 1176.58 32.4315 Q1182.13 26.1121 1191.89 26.1121 Z" fill="#000000" fill-rule="nonzero" fill-opacity="1" /><path clip-path="url(#clip270)" d="M1262.79 45.1919 L1262.79 72.576 L1255.33 72.576 L1255.33 45.4349 Q1255.33 38.994 1252.82 35.7938 Q1250.31 32.5936 1245.29 32.5936 Q1239.25 32.5936 1235.77 36.4419 Q1232.28 40.2903 1232.28 46.9338 L1232.28 72.576 L1224.79 72.576 L1224.79 27.2059 L1232.28 27.2059 L1232.28 34.2544 Q1234.96 30.163 1238.56 28.1376 Q1242.21 26.1121 1246.95 26.1121 Q1254.76 26.1121 1258.78 30.9732 Q1262.79 35.7938 1262.79 45.1919 Z" fill="#000000" fill-rule="nonzero" fill-opacity="1" /><path clip-path="url(#clip270)" d="M1339.35 35.9153 Q1342.14 30.8922 1346.03 28.5022 Q1349.92 26.1121 1355.19 26.1121 Q1362.28 26.1121 1366.12 31.0947 Q1369.97 36.0368 1369.97 45.1919 L1369.97 72.576 L1362.48 72.576 L1362.48 45.4349 Q1362.48 38.913 1360.17 35.7533 Q1357.86 32.5936 1353.12 32.5936 Q1347.33 32.5936 1343.97 36.4419 Q1340.6 40.2903 1340.6 46.9338 L1340.6 72.576 L1333.11 72.576 L1333.11 45.4349 Q1333.11 38.8725 1330.8 35.7533 Q1328.49 32.5936 1323.67 32.5936 Q1317.96 32.5936 1314.6 36.4824 Q1311.23 40.3308 1311.23 46.9338 L1311.23 72.576 L1303.74 72.576 L1303.74 27.2059 L1311.23 27.2059 L1311.23 34.2544 Q1313.79 30.082 1317.35 28.0971 Q1320.92 26.1121 1325.82 26.1121 Q1330.76 26.1121 1334.2 28.6237 Q1337.69 31.1352 1339.35 35.9153 Z" fill="#000000" fill-rule="nonzero" fill-opacity="1" /><path clip-path="url(#clip270)" d="M1402.42 32.4315 Q1396.42 32.4315 1392.94 37.1306 Q1389.46 41.7891 1389.46 49.9314 Q1389.46 58.0738 1392.9 62.7728 Q1396.38 67.4314 1402.42 67.4314 Q1408.37 67.4314 1411.86 62.7323 Q1415.34 58.0333 1415.34 49.9314 Q1415.34 41.8701 1411.86 37.1711 Q1408.37 32.4315 1402.42 32.4315 M1402.42 26.1121 Q1412.14 26.1121 1417.69 32.4315 Q1423.24 38.7509 1423.24 49.9314 Q1423.24 61.0714 1417.69 67.4314 Q1412.14 73.7508 1402.42 73.7508 Q1392.66 73.7508 1387.11 67.4314 Q1381.6 61.0714 1381.6 49.9314 Q1381.6 38.7509 1387.11 32.4315 Q1392.66 26.1121 1402.42 26.1121 Z" fill="#000000" fill-rule="nonzero" fill-opacity="1" /><path clip-path="url(#clip270)" d="M1465.45 34.0924 L1465.45 9.54393 L1472.91 9.54393 L1472.91 72.576 L1465.45 72.576 L1465.45 65.7705 Q1463.1 69.8214 1459.5 71.8063 Q1455.93 73.7508 1450.91 73.7508 Q1442.69 73.7508 1437.5 67.1883 Q1432.36 60.6258 1432.36 49.9314 Q1432.36 39.2371 1437.5 32.6746 Q1442.69 26.1121 1450.91 26.1121 Q1455.93 26.1121 1459.5 28.0971 Q1463.1 30.0415 1465.45 34.0924 M1440.05 49.9314 Q1440.05 58.1548 1443.42 62.8538 Q1446.82 67.5124 1452.73 67.5124 Q1458.65 67.5124 1462.05 62.8538 Q1465.45 58.1548 1465.45 49.9314 Q1465.45 41.7081 1462.05 37.0496 Q1458.65 32.3505 1452.73 32.3505 Q1446.82 32.3505 1443.42 37.0496 Q1440.05 41.7081 1440.05 49.9314 Z" fill="#000000" fill-rule="nonzero" fill-opacity="1" /><path clip-path="url(#clip270)" d="M1527.07 48.0275 L1527.07 51.6733 L1492.8 51.6733 Q1493.28 59.3701 1497.41 63.421 Q1501.59 67.4314 1509 67.4314 Q1513.29 67.4314 1517.3 66.3781 Q1521.35 65.3249 1525.32 63.2184 L1525.32 70.267 Q1521.31 71.9684 1517.1 72.8596 Q1512.89 73.7508 1508.55 73.7508 Q1497.7 73.7508 1491.34 67.4314 Q1485.02 61.1119 1485.02 50.3365 Q1485.02 39.1965 1491.01 32.6746 Q1497.05 26.1121 1507.26 26.1121 Q1516.41 26.1121 1521.72 32.0264 Q1527.07 37.9003 1527.07 48.0275 M1519.61 45.84 Q1519.53 39.7232 1516.17 36.0774 Q1512.85 32.4315 1507.34 32.4315 Q1501.1 32.4315 1497.33 35.9558 Q1493.61 39.4801 1493.04 45.8805 L1519.61 45.84 Z" fill="#000000" fill-rule="nonzero" fill-opacity="1" /><path clip-path="url(#clip270)" d="M1539.3 9.54393 L1546.75 9.54393 L1546.75 72.576 L1539.3 72.576 L1539.3 9.54393 Z" fill="#000000" fill-rule="nonzero" fill-opacity="1" /><path clip-path="url(#clip270)" d="M1591.19 65.6895 L1604.56 65.6895 L1604.56 19.5497 L1590.02 22.4663 L1590.02 15.0127 L1604.48 12.096 L1612.66 12.096 L1612.66 65.6895 L1626.03 65.6895 L1626.03 72.576 L1591.19 72.576 L1591.19 65.6895 Z" fill="#000000" fill-rule="nonzero" fill-opacity="1" /><polyline clip-path="url(#clip272)" style="stroke:#009af9; stroke-linecap:round; stroke-linejoin:round; stroke-width:8; stroke-opacity:1; fill:none" points="1300.32,816.932 1336.26,816.932 1372.46,816.932 1408.86,816.932 1445.4,816.932 1482.05,816.932 1518.74,816.932 1555.39,816.932 1591.98,816.932 1628.45,816.932 1664.76,816.932 1700.83,816.932 1736.64,816.932 1772.13,816.932 1807.24,816.932 1841.95,816.932 1876.19,816.932 1909.93,816.932 1943.12,816.932 1975.73,816.932 2007.71,816.932 2039.02,816.932 2069.64,816.932 2099.53,816.932 2128.63,816.932 2156.95,816.932 2184.45,816.932 2211.09,816.932 2236.83,816.932 2261.65,816.932 2285.52,816.932 2308.4,816.932 2330.32,816.932 2351.22,816.932 2371.08,816.932 2389.86,816.932 2407.55,816.932 2424.12,816.932 2439.58,816.932 2453.92,816.932 2467.1,816.932 2479.12,816.932 2489.95,816.932 2499.58,816.932 2508.01,816.932 2515.24,816.932 2521.25,816.932 2526.04,816.932 2529.6,816.932 2531.93,816.932 2533.02,816.932 2532.88,816.932 2531.5,816.932 2528.89,816.932 2525.05,816.932 2519.98,816.932 2513.7,816.932 2506.2,816.932 2497.48,816.932 2487.57,816.932 2476.47,816.932 2464.2,816.932 2450.75,816.932 2436.16,816.932 2420.42,816.932 2403.56,816.932 2385.59,816.932 2366.53,816.932 2346.4,816.932 2325.22,816.932 2303,816.932 2279.77,816.932 2255.54,816.932 2230.34,816.932 2204.2,816.932 2177.14,816.932 2149.18,816.932 2120.35,816.932 2090.66,816.932 2060.15,816.932 2028.85,816.932 1996.77,816.932 1963.96,816.932 1930.43,816.932 1896.21,816.932 1861.31,816.932 1825.77,816.932 1789.63,816.932 1752.9,816.932 1715.62,816.932 1677.81,816.932 1639.45,816.932 1600.59,816.932 1561.26,816.932 1521.48,816.932 1481.27,816.932 1440.66,816.932 1399.66,816.932 1358.31,816.932 1316.61,816.932 1282.19,816.932 1252.38,816.932 1222.38,816.932 1192.23,816.932 1161.97,816.932 1131.65,816.932 1101.32,816.932 1070.99,816.932 1040.74,816.932 1010.59,816.932 980.589,816.932 950.779,816.932 921.203,816.932 891.895,816.932 862.886,816.932 834.222,816.932 805.944,816.932 778.094,816.932 750.699,816.932 723.766,816.932 697.354,816.932 671.501,816.932 646.243,816.932 621.604,816.932 597.576,816.932 574.216,816.932 551.558,816.932 529.632,816.932 508.464,816.932 488.033,816.932 468.396,816.932 449.578,816.932 431.605,816.932 414.503,816.932 398.24,816.932 382.868,816.932 368.408,816.932 354.881,816.932 342.308,816.932 330.657,816.932 319.965,816.932 310.253,816.932 301.536,816.932 293.83,816.932 287.104,816.932 281.379,816.932 276.675,816.932 273.002,816.932 270.37,816.932 268.751,816.932 268.149,816.932 268.583,816.932 270.057,816.932 272.577,816.932 276.116,816.932 280.663,816.932 286.235,816.932 292.832,816.932 300.453,816.932 309.073,816.932 318.669,816.932 329.254,816.932 340.824,816.932 353.372,816.932 366.875,816.932 381.3,816.932 396.655,816.932 412.932,816.932 430.12,816.932 448.197,816.932 467.121,816.932 486.898,816.932 507.513,816.932 528.953,816.932 551.198,816.932 574.2,816.932 597.961,816.932 622.463,816.932 647.688,816.932 673.617,816.932 700.207,816.932 727.451,816.932 755.329,816.932 783.821,816.932 812.906,816.932 842.555,816.932 872.75,816.932 903.472,816.932 934.698,816.932 966.408,816.932 998.592,816.932 1031.23,816.932 1064.29,816.932 1097.76,816.932 1131.61,816.932 1165.81,816.932 1200.34,816.932 1235.17,816.932 1270.28,816.932 1303.8,816.932 1327.1,816.932 1350.54,816.932 1374.12,816.932 1397.8,816.932 1421.56,816.932 1445.35,816.932 1469.16,816.932 1492.94,816.932 1516.67,816.932 1540.32,816.932 1563.84,816.932 1587.22,816.932 1610.43,816.932 1633.43,816.932 1656.2,816.932 1678.7,816.932 1700.91,816.932 1722.79,816.932 1744.32,816.932 1765.47,816.932 1786.22,816.932 1806.54,816.932 1826.41,816.932 1845.8,816.932 1864.68,816.932 1883.06,816.932 1900.88,816.932 1918.14,816.932 1934.81,816.932 1950.87,816.932 1966.32,816.932 1981.12,816.932 1995.26,816.932 2008.71,816.932 2021.5,816.932 2033.57,816.932 2044.93,816.932 2055.55,816.932 2065.43,816.932 2074.58,816.932 2082.96,816.932 2090.58,816.932 2097.41,816.932 2103.45,816.932 2108.67,816.932 2113.08,816.932 2116.72,816.932 2119.55,816.932 2121.56,816.932 2122.75,816.932 2123.11,816.932 2122.64,816.932 2121.33,816.932 2119.2,816.932 2116.26,816.932 2112.5,816.932 2107.93,816.932 2102.54,816.932 2096.33,816.932 2089.32,816.932 2081.51,816.932 2072.91,816.932 2063.52,816.932 2053.35,816.932 2042.41,816.932 2030.72,816.932 2018.28,816.932 2005.1,816.932 1991.19,816.932 1976.57,816.932 1961.25,816.932 1945.23,816.932 1928.54,816.932 1911.2,816.932 1893.21,816.932 1874.59,816.932 1855.37,816.932 1835.52,816.932 1815.1,816.932 1794.11,816.932 1772.57,816.932 1750.5,816.932 1727.91,816.932 1704.84,816.932 1681.27,816.932 1657.23,816.932 1632.73,816.932 1607.8,816.932 1582.45,816.932 1556.71,816.932 1530.6,816.932 1504.12,816.932 1477.3,816.932 1450.15,816.932 1422.7,816.932 1394.96,816.932 1366.95,816.932 1338.7,816.932 1310.22,816.932 1289.61,816.932 1273.15,816.932 1256.58,816.932 1239.93,816.932 1223.21,816.932 1206.45,816.932 1189.64,816.932 1172.83,816.932 1156.04,816.932 1139.28,816.932 1122.57,816.932 1105.94,816.932 1089.4,816.932 1072.97,816.932 1056.69,816.932 1040.56,816.932 1024.61,816.932 1008.86,816.932 993.324,816.932 978.029,816.932 962.983,816.932 948.212,816.932 933.736,816.932 919.575,816.932 905.75,816.932 892.27,816.932 879.133,816.932 866.374,816.932 854.012,816.932 842.063,816.932 830.547,816.932 819.475,816.932 808.823,816.932 798.634,816.932 788.923,816.932 779.703,816.932 770.991,816.932 762.799,816.932 755.092,816.932 747.912,816.932 741.27,816.932 735.179,816.932 729.649,816.932 724.692,816.932 720.273,816.932 716.417,816.932 713.14,816.932 710.45,816.932 708.353,816.932 706.858,816.932 705.935,816.932 705.59,816.932 705.842,816.932 706.695,816.932 708.152,816.932 710.218,816.932 712.868,816.932 716.092,816.932 719.91,816.932 724.32,816.932 729.324,816.932 734.923,816.932 741.098,816.932 747.823,816.932 755.117,816.932 762.978,816.932 771.403,816.932 780.388,816.932 789.92,816.932 799.963,816.932 810.534,816.932 821.627,816.932 833.237,816.932 845.356,816.932 857.977,816.932 871.055,816.932 884.606,816.932 898.62,816.932 913.09,816.932 928.006,816.932 943.36,816.932 959.114,816.932 975.273,816.932 991.828,816.932 1008.77,816.932 1026.08,816.932 1043.76,816.932 1061.78,816.932 1080.13,816.932 1098.81,816.932 1117.79,816.932 1137.08,816.932 1156.66,816.932 1176.51,816.932 1196.63,816.932 1217.01,816.932 1237.63,816.932 1258.48,816.932 1279.54,816.932 1300.49,816.932 1309.29,816.932 1318.15,816.932 "/>
<polyline clip-path="url(#clip272)" style="stroke:#e26f46; stroke-linecap:round; stroke-linejoin:round; stroke-width:8; stroke-opacity:1; fill:none" points="1300.32,725.243 1336.26,729.984 1372.46,734.345 1408.86,738.348 1445.4,742.009 1482.05,745.353 1518.74,748.4 1555.39,751.168 1591.98,753.679 1628.45,755.951 1664.76,758.004 1700.83,759.854 1736.64,761.519 1772.13,763.014 1807.24,764.354 1841.95,765.553 1876.19,766.623 1909.93,767.577 1943.12,768.425 1975.73,769.178 2007.71,769.845 2039.02,770.434 2069.64,770.953 2099.53,771.41 2128.63,771.81 2156.95,772.16 2184.45,772.466 2211.09,772.731 2236.83,772.961 2261.65,773.159 2285.52,773.33 2308.4,773.475 2330.32,773.599 2351.22,773.703 2371.08,773.791 2389.86,773.864 2407.55,773.925 2424.12,773.975 2439.58,774.015 2453.92,774.048 2467.1,774.074 2479.12,774.094 2489.95,774.11 2499.58,774.122 2508.01,774.131 2515.24,774.137 2521.25,774.142 2526.04,774.145 2529.6,774.147 2531.93,774.149 2533.02,774.149 2532.88,774.149 2531.5,774.149 2528.89,774.147 2525.05,774.145 2519.98,774.141 2513.7,774.136 2506.2,774.129 2497.48,774.119 2487.57,774.107 2476.47,774.09 2464.2,774.068 2450.75,774.041 2436.16,774.007 2420.42,773.964 2403.56,773.912 2385.59,773.848 2366.53,773.772 2346.4,773.68 2325.22,773.571 2303,773.442 2279.77,773.29 2255.54,773.113 2230.34,772.906 2204.2,772.666 2177.14,772.388 2149.18,772.068 2120.35,771.701 2090.66,771.279 2060.15,770.798 2028.85,770.249 1996.77,769.624 1963.96,768.915 1930.43,768.111 1896.21,767.201 1861.31,766.171 1825.77,765.009 1789.63,763.699 1752.9,762.222 1715.62,760.561 1677.81,758.694 1639.45,756.594 1600.59,754.235 1561.26,751.587 1521.48,748.616 1481.27,745.286 1440.66,741.553 1399.66,737.371 1358.31,732.687 1316.61,727.445 1282.19,906.177 1252.38,902.39 1222.38,898.856 1192.23,895.564 1161.97,892.504 1131.65,889.666 1101.32,887.04 1070.99,884.612 1040.74,882.373 1010.59,880.312 980.589,878.417 950.779,876.678 921.203,875.085 891.895,873.627 862.886,872.295 834.222,871.08 805.944,869.973 778.094,868.966 750.699,868.051 723.766,867.22 697.354,866.466 671.501,865.785 646.243,865.169 621.604,864.613 597.576,864.111 574.216,863.659 551.558,863.253 529.632,862.888 508.464,862.561 488.033,862.268 468.396,862.006 449.578,861.773 431.605,861.564 414.503,861.38 398.24,861.215 382.868,861.07 368.408,860.941 354.881,860.828 342.308,860.729 330.657,860.642 319.965,860.567 310.253,860.501 301.536,860.445 293.83,860.398 287.104,860.358 281.379,860.325 276.675,860.299 273.002,860.279 270.37,860.265 268.751,860.256 268.149,860.253 268.583,860.255 270.057,860.263 272.577,860.277 276.116,860.296 280.663,860.321 286.235,860.353 292.832,860.392 300.453,860.439 309.073,860.494 318.669,860.558 329.254,860.632 340.824,860.718 353.372,860.816 366.875,860.928 381.3,861.055 396.655,861.2 412.932,861.363 430.12,861.548 448.197,861.756 467.121,861.99 486.898,862.253 507.513,862.547 528.953,862.877 551.198,863.247 574.2,863.659 597.961,864.119 622.463,864.632 647.688,865.203 673.617,865.839 700.207,866.545 727.451,867.33 755.329,868.2 783.821,869.166 812.906,870.237 842.555,871.423 872.75,872.736 903.472,874.189 934.698,875.796 966.408,877.572 998.592,879.536 1031.23,881.705 1064.29,884.1 1097.76,886.745 1131.61,889.663 1165.81,892.88 1200.34,896.424 1235.17,900.329 1270.28,904.629 1303.8,725.721 1327.1,728.815 1350.54,731.753 1374.12,734.537 1397.8,737.17 1421.56,739.659 1445.35,742.004 1469.16,744.213 1492.94,746.289 1516.67,748.236 1540.32,750.062 1563.84,751.769 1587.22,753.365 1610.43,754.856 1633.43,756.244 1656.2,757.538 1678.7,758.74 1700.91,759.858 1722.79,760.894 1744.32,761.855 1765.47,762.745 1786.22,763.568 1806.54,764.329 1826.41,765.031 1845.8,765.679 1864.68,766.276 1883.06,766.825 1900.88,767.331 1918.14,767.795 1934.81,768.221 1950.87,768.611 1966.32,768.969 1981.12,769.295 1995.26,769.593 2008.71,769.865 2021.5,770.112 2033.57,770.336 2044.93,770.538 2055.55,770.721 2065.43,770.885 2074.58,771.032 2082.96,771.163 2090.58,771.278 2097.41,771.379 2103.45,771.466 2108.67,771.54 2113.08,771.602 2116.72,771.651 2119.55,771.69 2121.56,771.717 2122.75,771.733 2123.11,771.737 2122.64,771.731 2121.33,771.714 2119.2,771.685 2116.26,771.645 2112.5,771.594 2107.93,771.53 2102.54,771.453 2096.33,771.363 2089.32,771.259 2081.51,771.14 2072.91,771.005 2063.52,770.853 2053.35,770.683 2042.41,770.494 2030.72,770.283 2018.28,770.05 2005.1,769.793 1991.19,769.509 1976.57,769.197 1961.25,768.853 1945.23,768.476 1928.54,768.063 1911.2,767.611 1893.21,767.116 1874.59,766.576 1855.37,765.985 1835.52,765.34 1815.1,764.636 1794.11,763.868 1772.57,763.032 1750.5,762.12 1727.91,761.128 1704.84,760.048 1681.27,758.873 1657.23,757.594 1632.73,756.203 1607.8,754.691 1582.45,753.048 1556.71,751.263 1530.6,749.325 1504.12,747.221 1477.3,744.937 1450.15,742.46 1422.7,739.774 1394.96,736.862 1366.95,733.708 1338.7,730.291 1310.22,726.592 1289.61,907.163 1273.15,904.997 1256.58,902.907 1239.93,900.891 1223.21,898.95 1206.45,897.085 1189.64,895.293 1172.83,893.575 1156.04,891.931 1139.28,890.36 1122.57,888.858 1105.94,887.427 1089.4,886.063 1072.97,884.765 1056.69,883.531 1040.56,882.36 1024.61,881.25 1008.86,880.198 993.324,879.203 978.029,878.262 962.983,877.373 948.212,876.535 933.736,875.745 919.575,875.001 905.75,874.302 892.27,873.645 879.133,873.028 866.374,872.45 854.012,871.909 842.063,871.403 830.547,870.931 819.475,870.492 808.823,870.082 798.634,869.701 788.923,869.348 779.703,869.022 770.991,868.722 762.799,868.446 755.092,868.193 747.912,867.962 741.27,867.752 735.179,867.564 729.649,867.396 724.692,867.247 720.273,867.117 716.417,867.004 713.14,866.91 710.45,866.833 708.353,866.773 706.858,866.731 705.935,866.705 705.59,866.695 705.842,866.702 706.695,866.726 708.152,866.767 710.218,866.826 712.868,866.902 716.092,866.995 719.91,867.106 724.32,867.236 729.324,867.386 734.923,867.556 741.098,867.747 747.823,867.959 755.117,868.194 762.978,868.452 771.403,868.736 780.388,869.046 789.92,869.384 799.963,869.75 810.534,870.147 821.627,870.576 833.237,871.04 845.356,871.541 857.977,872.08 871.055,872.66 884.606,873.283 898.62,873.952 913.09,874.67 928.006,875.44 943.36,876.266 959.114,877.15 975.273,878.097 991.828,879.109 1008.77,880.192 1026.08,881.351 1043.76,882.589 1061.78,883.911 1080.13,885.324 1098.81,886.831 1117.79,888.441 1137.08,890.158 1156.66,891.991 1176.51,893.945 1196.63,896.029 1217.01,898.251 1237.63,900.618 1258.48,903.141 1279.54,905.828 1300.49,725.267 1309.29,726.466 1318.15,727.648 "/>
<polyline clip-path="url(#clip272)" style="stroke:#008000; stroke-linecap:round; stroke-linejoin:round; stroke-width:8; stroke-opacity:1; fill:none" stroke-dasharray="4, 8" points="1300.32,501.976 1336.26,528.031 1372.46,555.354 1408.86,583.879 1445.4,613.484 1482.05,644.056 1518.74,675.45 1555.39,707.475 1591.98,739.972 1628.45,772.734 1664.76,805.579 1700.83,838.287 1736.64,870.67 1772.13,902.53 1807.24,933.689 1841.95,963.995 1876.19,993.299 1909.93,1021.48 1943.12,1048.45 1975.73,1074.13 2007.71,1098.48 2039.02,1121.46 2069.64,1143.08 2099.53,1163.34 2128.63,1182.26 2156.95,1199.88 2184.45,1216.25 2211.09,1231.42 2236.83,1245.43 2261.65,1258.35 2285.52,1270.24 2308.4,1281.14 2330.32,1291.16 2351.22,1300.31 2371.08,1308.67 2389.86,1316.27 2407.55,1323.17 2424.12,1329.41 2439.58,1335.04 2453.92,1340.1 2467.1,1344.62 2479.12,1348.63 2489.95,1352.16 2499.58,1355.23 2508.01,1357.87 2515.24,1360.09 2521.25,1361.91 2526.04,1363.34 2529.6,1364.4 2531.93,1365.09 2533.02,1365.41 2532.88,1365.37 2531.5,1364.96 2528.89,1364.19 2525.05,1363.05 2519.98,1361.53 2513.7,1359.62 2506.2,1357.3 2497.48,1354.57 2487.57,1351.4 2476.47,1347.76 2464.2,1343.64 2450.75,1339 2436.16,1333.81 2420.42,1328.04 2403.56,1321.64 2385.59,1314.57 2366.53,1306.78 2346.4,1298.23 2325.22,1288.86 2303,1278.61 2279.77,1267.42 2255.54,1255.22 2230.34,1241.96 2204.2,1227.56 2177.14,1211.97 2149.18,1195.12 2120.35,1176.96 2090.66,1157.42 2060.15,1136.47 2028.85,1114.09 1996.77,1090.25 1963.96,1064.96 1930.43,1038.23 1896.21,1010.11 1861.31,980.642 1825.77,949.939 1789.63,918.112 1752.9,885.303 1715.62,851.678 1677.81,817.411 1639.45,782.665 1600.59,747.674 1561.26,712.654 1521.48,677.825 1481.27,643.399 1440.66,609.585 1399.66,576.575 1358.31,544.545 1316.61,513.651 1282.19,489.263 1252.38,468.98 1222.38,449.377 1192.23,430.499 1161.97,412.386 1131.65,395.07 1101.32,378.575 1070.99,362.904 1040.74,348.067 1010.59,334.054 980.589,320.857 950.779,308.458 921.203,296.833 891.895,285.955 862.886,275.79 834.222,266.31 805.944,257.482 778.094,249.273 750.699,241.646 723.766,234.56 697.354,227.989 671.501,221.9 646.243,216.264 621.604,211.049 597.576,206.218 574.216,201.752 551.558,197.626 529.632,193.818 508.464,190.305 488.033,187.06 468.396,184.071 449.578,181.319 431.605,178.791 414.503,176.472 398.24,174.342 382.868,172.394 368.408,170.617 354.881,169.002 342.308,167.541 330.657,166.22 319.965,165.036 310.253,163.982 301.536,163.053 293.83,162.246 287.104,161.552 281.379,160.968 276.675,160.494 273.002,160.126 270.37,159.865 268.751,159.704 268.149,159.645 268.583,159.688 270.057,159.834 272.577,160.084 276.116,160.438 280.663,160.896 286.235,161.463 292.832,162.142 300.453,162.939 309.073,163.855 318.669,164.894 329.254,166.063 340.824,167.371 353.372,168.825 366.875,170.432 381.3,172.198 396.655,174.138 412.932,176.263 430.12,178.586 448.197,181.122 467.121,183.881 486.898,186.884 507.513,190.151 528.953,193.703 551.198,197.562 574.2,201.749 597.961,206.293 622.463,211.226 647.688,216.578 673.617,222.386 700.207,228.681 727.451,235.507 755.329,242.905 783.821,250.923 812.906,259.608 842.555,269.009 872.75,279.181 903.472,290.177 934.698,302.055 966.408,314.872 998.592,328.689 1031.23,343.563 1064.29,359.547 1097.76,376.694 1131.61,395.05 1165.81,414.639 1200.34,435.493 1235.17,457.631 1270.28,481.059 1303.8,504.451 1327.1,521.282 1350.54,538.684 1374.12,556.639 1397.8,575.105 1421.56,594.061 1445.35,613.438 1469.16,633.209 1492.94,653.304 1516.67,673.665 1540.32,694.24 1563.84,714.938 1587.22,735.717 1610.43,756.508 1633.43,777.23 1656.2,797.825 1678.7,818.22 1700.91,838.352 1722.79,858.159 1744.32,877.585 1765.47,896.574 1786.22,915.084 1806.54,933.073 1826.41,950.498 1845.8,967.324 1864.68,983.522 1883.06,999.09 1900.88,1014 1918.14,1028.22 1934.81,1041.77 1950.87,1054.62 1966.32,1066.8 1981.12,1078.29 1995.26,1089.1 2008.71,1099.23 2021.5,1108.71 2033.57,1117.53 2044.93,1125.7 2055.55,1133.24 2065.43,1140.16 2074.58,1146.48 2082.96,1152.22 2090.58,1157.36 2097.41,1161.93 2103.45,1165.93 2108.67,1169.37 2113.08,1172.25 2116.72,1174.61 2119.55,1176.44 2121.56,1177.73 2122.75,1178.5 2123.11,1178.73 2122.64,1178.43 2121.33,1177.59 2119.2,1176.21 2116.26,1174.32 2112.5,1171.88 2107.93,1168.88 2102.54,1165.34 2096.33,1161.22 2089.32,1156.52 2081.51,1151.23 2072.91,1145.34 2063.52,1138.83 2053.35,1131.69 2042.41,1123.9 2030.72,1115.45 2018.28,1106.33 2005.1,1096.52 1991.19,1086.01 1976.57,1074.78 1961.25,1062.83 1945.23,1050.13 1928.54,1036.7 1911.2,1022.52 1893.21,1007.6 1874.59,991.943 1855.37,975.553 1835.52,958.428 1815.1,940.597 1794.11,922.085 1772.57,902.922 1750.5,883.143 1727.91,862.791 1704.84,841.914 1681.27,820.553 1657.23,798.755 1632.73,776.595 1607.8,754.142 1582.45,731.466 1556.71,708.641 1530.6,685.746 1504.12,662.857 1477.3,640.046 1450.15,617.394 1422.7,594.976 1394.96,572.866 1366.95,551.132 1338.7,529.839 1310.22,509.047 1289.61,494.429 1273.15,483.023 1256.58,471.792 1239.93,460.748 1223.21,449.91 1206.45,439.296 1189.64,428.916 1172.83,418.79 1156.04,408.931 1139.28,399.35 1122.57,390.045 1105.94,381.036 1089.4,372.321 1072.97,363.903 1056.69,355.79 1040.56,347.98 1024.61,340.474 1008.86,333.272 993.324,326.37 978.029,319.765 962.983,313.45 948.212,307.422 933.736,301.678 919.575,296.212 905.75,291.019 892.27,286.09 879.133,281.41 866.374,276.981 854.012,272.796 842.063,268.849 830.547,265.134 819.475,261.642 808.823,258.357 798.634,255.281 788.923,252.409 779.703,249.735 770.991,247.254 762.799,244.962 755.092,242.84 747.912,240.894 741.27,239.12 735.179,237.515 729.649,236.074 724.692,234.798 720.273,233.67 716.417,232.695 713.14,231.873 710.45,231.202 708.353,230.681 706.858,230.312 705.935,230.084 705.59,229.999 705.842,230.061 706.695,230.271 708.152,230.632 710.218,231.144 712.868,231.805 716.092,232.614 719.91,233.578 724.32,234.702 729.324,235.99 734.923,237.448 741.098,239.075 747.823,240.871 755.117,242.847 762.978,245.011 771.403,247.37 780.388,249.931 789.92,252.701 799.963,255.679 810.534,258.88 821.627,262.315 833.237,265.993 845.356,269.927 857.977,274.127 871.055,278.593 884.606,283.345 898.62,288.396 913.09,293.759 928.006,299.448 943.36,305.479 959.114,311.854 975.273,318.595 991.828,325.716 1008.77,333.232 1026.08,341.16 1043.76,349.513 1061.78,358.302 1080.13,367.542 1098.81,377.248 1117.79,387.433 1137.08,398.11 1156.66,409.291 1176.51,420.985 1196.63,433.203 1217.01,445.952 1237.63,459.237 1258.48,473.061 1279.54,487.428 1300.49,502.099 1309.29,508.374 1318.15,514.762 "/>
<path clip-path="url(#clip270)" d="M1437.25 477.116 L2282.59 477.116 L2282.59 166.076 L1437.25 166.076  Z" fill="#ffffff" fill-rule="evenodd" fill-opacity="1"/>
<polyline clip-path="url(#clip270)" style="stroke:#000000; stroke-linecap:round; stroke-linejoin:round; stroke-width:4; stroke-opacity:1; fill:none" points="1437.25,477.116 2282.59,477.116 2282.59,166.076 1437.25,166.076 1437.25,477.116 "/>
<polyline clip-path="url(#clip270)" style="stroke:#009af9; stroke-linecap:round; stroke-linejoin:round; stroke-width:12; stroke-opacity:1; fill:none" points="1460.64,243.836 1600.96,243.836 "/>
<path clip-path="url(#clip270)" d="M1657.72 219.617 L1657.72 226.457 Q1653.72 224.548 1650.18 223.61 Q1646.64 222.673 1643.34 222.673 Q1637.61 222.673 1634.49 224.895 Q1631.4 227.117 1631.4 231.214 Q1631.4 234.652 1633.45 236.423 Q1635.53 238.159 1641.29 239.235 L1645.53 240.103 Q1653.38 241.596 1657.09 245.381 Q1660.84 249.131 1660.84 255.45 Q1660.84 262.985 1655.77 266.874 Q1650.74 270.763 1640.98 270.763 Q1637.3 270.763 1633.13 269.929 Q1629 269.096 1624.56 267.464 L1624.56 260.242 Q1628.83 262.638 1632.92 263.853 Q1637.02 265.068 1640.98 265.068 Q1646.99 265.068 1650.25 262.707 Q1653.51 260.346 1653.51 255.971 Q1653.51 252.152 1651.15 249.999 Q1648.83 247.846 1643.48 246.77 L1639.21 245.936 Q1631.36 244.374 1627.86 241.041 Q1624.35 237.707 1624.35 231.77 Q1624.35 224.895 1629.17 220.937 Q1634.04 216.978 1642.54 216.978 Q1646.19 216.978 1649.97 217.638 Q1653.76 218.298 1657.72 219.617 Z" fill="#000000" fill-rule="nonzero" fill-opacity="1" /><path clip-path="url(#clip270)" d="M1671.5 230.867 L1677.89 230.867 L1677.89 269.756 L1671.5 269.756 L1671.5 230.867 M1671.5 215.728 L1677.89 215.728 L1677.89 223.818 L1671.5 223.818 L1671.5 215.728 Z" fill="#000000" fill-rule="nonzero" fill-opacity="1" /><path clip-path="url(#clip270)" d="M1721.54 238.332 Q1723.93 234.027 1727.26 231.978 Q1730.6 229.93 1735.11 229.93 Q1741.19 229.93 1744.49 234.2 Q1747.78 238.436 1747.78 246.284 L1747.78 269.756 L1741.36 269.756 L1741.36 246.492 Q1741.36 240.902 1739.38 238.193 Q1737.4 235.485 1733.34 235.485 Q1728.38 235.485 1725.49 238.784 Q1722.61 242.082 1722.61 247.777 L1722.61 269.756 L1716.19 269.756 L1716.19 246.492 Q1716.19 240.867 1714.21 238.193 Q1712.23 235.485 1708.1 235.485 Q1703.2 235.485 1700.32 238.818 Q1697.44 242.117 1697.44 247.777 L1697.44 269.756 L1691.01 269.756 L1691.01 230.867 L1697.44 230.867 L1697.44 236.909 Q1699.63 233.332 1702.68 231.631 Q1705.74 229.93 1709.94 229.93 Q1714.17 229.93 1717.13 232.082 Q1720.11 234.235 1721.54 238.332 Z" fill="#000000" fill-rule="nonzero" fill-opacity="1" /><path clip-path="url(#clip270)" d="M1766.71 263.922 L1766.71 284.547 L1760.28 284.547 L1760.28 230.867 L1766.71 230.867 L1766.71 236.77 Q1768.72 233.298 1771.78 231.631 Q1774.87 229.93 1779.14 229.93 Q1786.22 229.93 1790.63 235.555 Q1795.08 241.179 1795.08 250.346 Q1795.08 259.513 1790.63 265.138 Q1786.22 270.763 1779.14 270.763 Q1774.87 270.763 1771.78 269.096 Q1768.72 267.395 1766.71 263.922 M1788.44 250.346 Q1788.44 243.298 1785.53 239.304 Q1782.65 235.277 1777.58 235.277 Q1772.51 235.277 1769.59 239.304 Q1766.71 243.298 1766.71 250.346 Q1766.71 257.395 1769.59 261.422 Q1772.51 265.415 1777.58 265.415 Q1782.65 265.415 1785.53 261.422 Q1788.44 257.395 1788.44 250.346 Z" fill="#000000" fill-rule="nonzero" fill-opacity="1" /><path clip-path="url(#clip270)" d="M1805.67 215.728 L1812.06 215.728 L1812.06 269.756 L1805.67 269.756 L1805.67 215.728 Z" fill="#000000" fill-rule="nonzero" fill-opacity="1" /><path clip-path="url(#clip270)" d="M1858.69 248.714 L1858.69 251.839 L1829.31 251.839 Q1829.73 258.436 1833.27 261.909 Q1836.85 265.346 1843.2 265.346 Q1846.88 265.346 1850.32 264.443 Q1853.79 263.54 1857.19 261.735 L1857.19 267.777 Q1853.76 269.235 1850.15 269.999 Q1846.53 270.763 1842.82 270.763 Q1833.51 270.763 1828.06 265.346 Q1822.65 259.929 1822.65 250.693 Q1822.65 241.145 1827.78 235.555 Q1832.96 229.93 1841.71 229.93 Q1849.56 229.93 1854.1 234.999 Q1858.69 240.034 1858.69 248.714 M1852.3 246.839 Q1852.23 241.596 1849.35 238.471 Q1846.5 235.346 1841.78 235.346 Q1836.43 235.346 1833.2 238.367 Q1830.01 241.388 1829.52 246.874 L1852.3 246.839 Z" fill="#000000" fill-rule="nonzero" fill-opacity="1" /><path clip-path="url(#clip270)" d="M1869.45 217.916 L1899.24 217.916 L1899.24 223.818 L1876.46 223.818 L1876.46 239.096 L1897.02 239.096 L1897.02 244.999 L1876.46 244.999 L1876.46 269.756 L1869.45 269.756 L1869.45 217.916 Z" fill="#000000" fill-rule="nonzero" fill-opacity="1" /><path clip-path="url(#clip270)" d="M1910.35 217.916 L1920.8 217.916 L1934.03 253.193 L1947.33 217.916 L1957.78 217.916 L1957.78 269.756 L1950.94 269.756 L1950.94 224.235 L1937.58 259.79 L1930.53 259.79 L1917.16 224.235 L1917.16 269.756 L1910.35 269.756 L1910.35 217.916 Z" fill="#000000" fill-rule="nonzero" fill-opacity="1" /><path clip-path="url(#clip270)" d="M1970.91 217.916 L1977.96 217.916 L1977.96 249.409 Q1977.96 257.742 1980.98 261.422 Q1984 265.068 1990.77 265.068 Q1997.51 265.068 2000.53 261.422 Q2003.55 257.742 2003.55 249.409 L2003.55 217.916 L2010.6 217.916 L2010.6 250.277 Q2010.6 260.415 2005.56 265.589 Q2000.56 270.763 1990.77 270.763 Q1980.94 270.763 1975.91 265.589 Q1970.91 260.415 1970.91 250.277 L1970.91 217.916 Z" fill="#000000" fill-rule="nonzero" fill-opacity="1" /><polyline clip-path="url(#clip270)" style="stroke:#e26f46; stroke-linecap:round; stroke-linejoin:round; stroke-width:12; stroke-opacity:1; fill:none" points="1460.64,321.596 1600.96,321.596 "/>
<path clip-path="url(#clip270)" d="M1647.13 314.599 Q1646.05 313.974 1644.76 313.696 Q1643.51 313.384 1641.99 313.384 Q1636.57 313.384 1633.65 316.926 Q1630.77 320.433 1630.77 327.03 L1630.77 347.516 L1624.35 347.516 L1624.35 308.627 L1630.77 308.627 L1630.77 314.669 Q1632.79 311.127 1636.01 309.426 Q1639.24 307.69 1643.86 307.69 Q1644.52 307.69 1645.32 307.794 Q1646.12 307.863 1647.09 308.037 L1647.13 314.599 Z" fill="#000000" fill-rule="nonzero" fill-opacity="1" /><path clip-path="url(#clip270)" d="M1685.53 326.474 L1685.53 329.599 L1656.15 329.599 Q1656.57 336.196 1660.11 339.669 Q1663.69 343.106 1670.04 343.106 Q1673.72 343.106 1677.16 342.203 Q1680.63 341.3 1684.04 339.495 L1684.04 345.537 Q1680.6 346.995 1676.99 347.759 Q1673.38 348.523 1669.66 348.523 Q1660.35 348.523 1654.9 343.106 Q1649.49 337.689 1649.49 328.453 Q1649.49 318.905 1654.63 313.315 Q1659.8 307.69 1668.55 307.69 Q1676.4 307.69 1680.94 312.759 Q1685.53 317.794 1685.53 326.474 M1679.14 324.599 Q1679.07 319.356 1676.19 316.231 Q1673.34 313.106 1668.62 313.106 Q1663.27 313.106 1660.04 316.127 Q1656.85 319.148 1656.36 324.634 L1679.14 324.599 Z" fill="#000000" fill-rule="nonzero" fill-opacity="1" /><path clip-path="url(#clip270)" d="M1715.7 293.488 L1715.7 298.801 L1709.59 298.801 Q1706.15 298.801 1704.8 300.19 Q1703.48 301.578 1703.48 305.19 L1703.48 308.627 L1714 308.627 L1714 313.592 L1703.48 313.592 L1703.48 347.516 L1697.06 347.516 L1697.06 313.592 L1690.94 313.592 L1690.94 308.627 L1697.06 308.627 L1697.06 305.919 Q1697.06 299.426 1700.08 296.474 Q1703.1 293.488 1709.66 293.488 L1715.7 293.488 Z" fill="#000000" fill-rule="nonzero" fill-opacity="1" /><path clip-path="url(#clip270)" d="M1754.31 326.474 L1754.31 329.599 L1724.94 329.599 Q1725.35 336.196 1728.9 339.669 Q1732.47 343.106 1738.83 343.106 Q1742.51 343.106 1745.94 342.203 Q1749.42 341.3 1752.82 339.495 L1752.82 345.537 Q1749.38 346.995 1745.77 347.759 Q1742.16 348.523 1738.44 348.523 Q1729.14 348.523 1723.69 343.106 Q1718.27 337.689 1718.27 328.453 Q1718.27 318.905 1723.41 313.315 Q1728.58 307.69 1737.33 307.69 Q1745.18 307.69 1749.73 312.759 Q1754.31 317.794 1754.31 326.474 M1747.92 324.599 Q1747.85 319.356 1744.97 316.231 Q1742.13 313.106 1737.4 313.106 Q1732.06 313.106 1728.83 316.127 Q1725.63 319.148 1725.15 324.634 L1747.92 324.599 Z" fill="#000000" fill-rule="nonzero" fill-opacity="1" /><path clip-path="url(#clip270)" d="M1787.33 314.599 Q1786.26 313.974 1784.97 313.696 Q1783.72 313.384 1782.19 313.384 Q1776.78 313.384 1773.86 316.926 Q1770.98 320.433 1770.98 327.03 L1770.98 347.516 L1764.56 347.516 L1764.56 308.627 L1770.98 308.627 L1770.98 314.669 Q1772.99 311.127 1776.22 309.426 Q1779.45 307.69 1784.07 307.69 Q1784.73 307.69 1785.53 307.794 Q1786.33 307.863 1787.3 308.037 L1787.33 314.599 Z" fill="#000000" fill-rule="nonzero" fill-opacity="1" /><path clip-path="url(#clip270)" d="M1825.74 326.474 L1825.74 329.599 L1796.36 329.599 Q1796.78 336.196 1800.32 339.669 Q1803.9 343.106 1810.25 343.106 Q1813.93 343.106 1817.37 342.203 Q1820.84 341.3 1824.24 339.495 L1824.24 345.537 Q1820.81 346.995 1817.19 347.759 Q1813.58 348.523 1809.87 348.523 Q1800.56 348.523 1795.11 343.106 Q1789.69 337.689 1789.69 328.453 Q1789.69 318.905 1794.83 313.315 Q1800.01 307.69 1808.76 307.69 Q1816.6 307.69 1821.15 312.759 Q1825.74 317.794 1825.74 326.474 M1819.35 324.599 Q1819.28 319.356 1816.4 316.231 Q1813.55 313.106 1808.83 313.106 Q1803.48 313.106 1800.25 316.127 Q1797.06 319.148 1796.57 324.634 L1819.35 324.599 Z" fill="#000000" fill-rule="nonzero" fill-opacity="1" /><path clip-path="url(#clip270)" d="M1868.55 324.044 L1868.55 347.516 L1862.16 347.516 L1862.16 324.252 Q1862.16 318.731 1860.01 315.988 Q1857.85 313.245 1853.55 313.245 Q1848.37 313.245 1845.39 316.544 Q1842.4 319.842 1842.4 325.537 L1842.4 347.516 L1835.98 347.516 L1835.98 308.627 L1842.4 308.627 L1842.4 314.669 Q1844.69 311.162 1847.78 309.426 Q1850.91 307.69 1854.97 307.69 Q1861.67 307.69 1865.11 311.856 Q1868.55 315.988 1868.55 324.044 Z" fill="#000000" fill-rule="nonzero" fill-opacity="1" /><path clip-path="url(#clip270)" d="M1909.28 310.12 L1909.28 316.092 Q1906.57 314.599 1903.83 313.87 Q1901.12 313.106 1898.34 313.106 Q1892.12 313.106 1888.69 317.064 Q1885.25 320.988 1885.25 328.106 Q1885.25 335.224 1888.69 339.182 Q1892.12 343.106 1898.34 343.106 Q1901.12 343.106 1903.83 342.377 Q1906.57 341.613 1909.28 340.12 L1909.28 346.023 Q1906.6 347.273 1903.72 347.898 Q1900.87 348.523 1897.65 348.523 Q1888.86 348.523 1883.69 343.002 Q1878.51 337.481 1878.51 328.106 Q1878.51 318.592 1883.72 313.141 Q1888.96 307.69 1898.06 307.69 Q1901.01 307.69 1903.83 308.315 Q1906.64 308.905 1909.28 310.12 Z" fill="#000000" fill-rule="nonzero" fill-opacity="1" /><path clip-path="url(#clip270)" d="M1953.65 326.474 L1953.65 329.599 L1924.28 329.599 Q1924.69 336.196 1928.24 339.669 Q1931.81 343.106 1938.17 343.106 Q1941.85 343.106 1945.28 342.203 Q1948.76 341.3 1952.16 339.495 L1952.16 345.537 Q1948.72 346.995 1945.11 347.759 Q1941.5 348.523 1937.78 348.523 Q1928.48 348.523 1923.03 343.106 Q1917.61 337.689 1917.61 328.453 Q1917.61 318.905 1922.75 313.315 Q1927.92 307.69 1936.67 307.69 Q1944.52 307.69 1949.07 312.759 Q1953.65 317.794 1953.65 326.474 M1947.26 324.599 Q1947.19 319.356 1944.31 316.231 Q1941.46 313.106 1936.74 313.106 Q1931.4 313.106 1928.17 316.127 Q1924.97 319.148 1924.49 324.634 L1947.26 324.599 Z" fill="#000000" fill-rule="nonzero" fill-opacity="1" /><polyline clip-path="url(#clip270)" style="stroke:#008000; stroke-linecap:round; stroke-linejoin:round; stroke-width:12; stroke-opacity:1; fill:none" stroke-dasharray="6, 12" points="1460.64,399.356 1600.96,399.356 "/>
<path clip-path="url(#clip270)" d="M1624.35 373.436 L1633.79 373.436 L1656.78 416.804 L1656.78 373.436 L1663.58 373.436 L1663.58 425.276 L1654.14 425.276 L1631.15 381.908 L1631.15 425.276 L1624.35 425.276 L1624.35 373.436 Z" fill="#000000" fill-rule="nonzero" fill-opacity="1" /><path clip-path="url(#clip270)" d="M1710.53 404.234 L1710.53 407.359 L1681.15 407.359 Q1681.57 413.956 1685.11 417.429 Q1688.69 420.866 1695.04 420.866 Q1698.72 420.866 1702.16 419.963 Q1705.63 419.06 1709.04 417.255 L1709.04 423.297 Q1705.6 424.755 1701.99 425.519 Q1698.38 426.283 1694.66 426.283 Q1685.35 426.283 1679.9 420.866 Q1674.49 415.449 1674.49 406.213 Q1674.49 396.665 1679.63 391.075 Q1684.8 385.45 1693.55 385.45 Q1701.4 385.45 1705.94 390.519 Q1710.53 395.554 1710.53 404.234 M1704.14 402.359 Q1704.07 397.116 1701.19 393.991 Q1698.34 390.866 1693.62 390.866 Q1688.27 390.866 1685.04 393.887 Q1681.85 396.908 1681.36 402.394 L1704.14 402.359 Z" fill="#000000" fill-rule="nonzero" fill-opacity="1" /><path clip-path="url(#clip270)" d="M1720.35 409.929 L1720.35 386.387 L1726.74 386.387 L1726.74 409.686 Q1726.74 415.206 1728.9 417.984 Q1731.05 420.727 1735.35 420.727 Q1740.53 420.727 1743.51 417.429 Q1746.53 414.13 1746.53 408.436 L1746.53 386.387 L1752.92 386.387 L1752.92 425.276 L1746.53 425.276 L1746.53 419.304 Q1744.21 422.845 1741.12 424.581 Q1738.06 426.283 1734 426.283 Q1727.3 426.283 1723.83 422.116 Q1720.35 417.949 1720.35 409.929 M1736.43 385.45 L1736.43 385.45 Z" fill="#000000" fill-rule="nonzero" fill-opacity="1" /><path clip-path="url(#clip270)" d="M1788.62 392.359 Q1787.54 391.734 1786.26 391.456 Q1785.01 391.144 1783.48 391.144 Q1778.06 391.144 1775.15 394.686 Q1772.26 398.193 1772.26 404.79 L1772.26 425.276 L1765.84 425.276 L1765.84 386.387 L1772.26 386.387 L1772.26 392.429 Q1774.28 388.887 1777.51 387.186 Q1780.74 385.45 1785.35 385.45 Q1786.01 385.45 1786.81 385.554 Q1787.61 385.623 1788.58 385.797 L1788.62 392.359 Z" fill="#000000" fill-rule="nonzero" fill-opacity="1" /><path clip-path="url(#clip270)" d="M1812.99 405.727 Q1805.25 405.727 1802.26 407.498 Q1799.28 409.269 1799.28 413.54 Q1799.28 416.942 1801.5 418.956 Q1803.76 420.935 1807.61 420.935 Q1812.92 420.935 1816.12 417.185 Q1819.35 413.401 1819.35 407.151 L1819.35 405.727 L1812.99 405.727 M1825.74 403.088 L1825.74 425.276 L1819.35 425.276 L1819.35 419.373 Q1817.16 422.915 1813.9 424.616 Q1810.63 426.283 1805.91 426.283 Q1799.94 426.283 1796.4 422.949 Q1792.89 419.581 1792.89 413.956 Q1792.89 407.394 1797.26 404.061 Q1801.67 400.727 1810.39 400.727 L1819.35 400.727 L1819.35 400.102 Q1819.35 395.693 1816.43 393.297 Q1813.55 390.866 1808.31 390.866 Q1804.97 390.866 1801.81 391.665 Q1798.65 392.463 1795.74 394.061 L1795.74 388.158 Q1799.24 386.804 1802.54 386.144 Q1805.84 385.45 1808.97 385.45 Q1817.4 385.45 1821.57 389.825 Q1825.74 394.199 1825.74 403.088 Z" fill="#000000" fill-rule="nonzero" fill-opacity="1" /><path clip-path="url(#clip270)" d="M1838.9 371.248 L1845.28 371.248 L1845.28 425.276 L1838.9 425.276 L1838.9 371.248 Z" fill="#000000" fill-rule="nonzero" fill-opacity="1" /><path clip-path="url(#clip270)" d="M1858.93 373.436 L1888.72 373.436 L1888.72 379.338 L1865.94 379.338 L1865.94 394.616 L1886.5 394.616 L1886.5 400.519 L1865.94 400.519 L1865.94 425.276 L1858.93 425.276 L1858.93 373.436 Z" fill="#000000" fill-rule="nonzero" fill-opacity="1" /><path clip-path="url(#clip270)" d="M1899.83 373.436 L1910.28 373.436 L1923.51 408.713 L1936.81 373.436 L1947.26 373.436 L1947.26 425.276 L1940.42 425.276 L1940.42 379.755 L1927.05 415.31 L1920.01 415.31 L1906.64 379.755 L1906.64 425.276 L1899.83 425.276 L1899.83 373.436 Z" fill="#000000" fill-rule="nonzero" fill-opacity="1" /><path clip-path="url(#clip270)" d="M1960.39 373.436 L1967.44 373.436 L1967.44 404.929 Q1967.44 413.262 1970.46 416.942 Q1973.48 420.588 1980.25 420.588 Q1986.99 420.588 1990.01 416.942 Q1993.03 413.262 1993.03 404.929 L1993.03 373.436 L2000.08 373.436 L2000.08 405.797 Q2000.08 415.935 1995.04 421.109 Q1990.04 426.283 1980.25 426.283 Q1970.42 426.283 1965.39 421.109 Q1960.39 415.935 1960.39 405.797 L1960.39 373.436 Z" fill="#000000" fill-rule="nonzero" fill-opacity="1" /><path clip-path="url(#clip270)" d="M2050.91 371.318 Q2046.26 379.304 2044 387.116 Q2041.74 394.929 2041.74 402.949 Q2041.74 410.97 2044 418.852 Q2046.29 426.699 2050.91 434.651 L2045.35 434.651 Q2040.14 426.491 2037.54 418.609 Q2034.97 410.727 2034.97 402.949 Q2034.97 395.206 2037.54 387.359 Q2040.11 379.512 2045.35 371.318 L2050.91 371.318 Z" fill="#000000" fill-rule="nonzero" fill-opacity="1" /><path clip-path="url(#clip270)" d="M2070.25 419.373 L2094.73 419.373 L2094.73 425.276 L2061.81 425.276 L2061.81 419.373 Q2065.8 415.241 2072.68 408.297 Q2079.59 401.318 2081.36 399.304 Q2084.73 395.519 2086.05 392.915 Q2087.4 390.276 2087.4 387.741 Q2087.4 383.609 2084.48 381.005 Q2081.6 378.401 2076.95 378.401 Q2073.65 378.401 2069.97 379.547 Q2066.32 380.693 2062.16 383.019 L2062.16 375.936 Q2066.39 374.234 2070.07 373.366 Q2073.76 372.498 2076.81 372.498 Q2084.87 372.498 2089.66 376.526 Q2094.45 380.554 2094.45 387.29 Q2094.45 390.484 2093.23 393.366 Q2092.05 396.213 2088.89 400.102 Q2088.03 401.109 2083.37 405.936 Q2078.72 410.727 2070.25 419.373 Z" fill="#000000" fill-rule="nonzero" fill-opacity="1" /><path clip-path="url(#clip270)" d="M2109.52 373.436 L2137.05 373.436 L2137.05 379.338 L2115.94 379.338 L2115.94 392.047 Q2117.47 391.526 2119 391.283 Q2120.53 391.005 2122.05 391.005 Q2130.73 391.005 2135.8 395.762 Q2140.87 400.519 2140.87 408.644 Q2140.87 417.012 2135.66 421.665 Q2130.46 426.283 2120.98 426.283 Q2117.71 426.283 2114.31 425.727 Q2110.94 425.172 2107.33 424.06 L2107.33 417.012 Q2110.46 418.713 2113.79 419.547 Q2117.12 420.38 2120.84 420.38 Q2126.85 420.38 2130.35 417.22 Q2133.86 414.06 2133.86 408.644 Q2133.86 403.227 2130.35 400.068 Q2126.85 396.908 2120.84 396.908 Q2118.03 396.908 2115.21 397.533 Q2112.44 398.158 2109.52 399.477 L2109.52 373.436 Z" fill="#000000" fill-rule="nonzero" fill-opacity="1" /><path clip-path="url(#clip270)" d="M2169.69 378.054 Q2164.28 378.054 2161.53 383.401 Q2158.82 388.713 2158.82 399.408 Q2158.82 410.067 2161.53 415.415 Q2164.28 420.727 2169.69 420.727 Q2175.14 420.727 2177.85 415.415 Q2180.6 410.067 2180.6 399.408 Q2180.6 388.713 2177.85 383.401 Q2175.14 378.054 2169.69 378.054 M2169.69 372.498 Q2178.41 372.498 2182.99 379.408 Q2187.61 386.283 2187.61 399.408 Q2187.61 412.498 2182.99 419.408 Q2178.41 426.283 2169.69 426.283 Q2160.98 426.283 2156.36 419.408 Q2151.78 412.498 2151.78 399.408 Q2151.78 386.283 2156.36 379.408 Q2160.98 372.498 2169.69 372.498 Z" fill="#000000" fill-rule="nonzero" fill-opacity="1" /><path clip-path="url(#clip270)" d="M2214.94 378.054 Q2209.52 378.054 2206.78 383.401 Q2204.07 388.713 2204.07 399.408 Q2204.07 410.067 2206.78 415.415 Q2209.52 420.727 2214.94 420.727 Q2220.39 420.727 2223.09 415.415 Q2225.84 410.067 2225.84 399.408 Q2225.84 388.713 2223.09 383.401 Q2220.39 378.054 2214.94 378.054 M2214.94 372.498 Q2223.65 372.498 2228.23 379.408 Q2232.85 386.283 2232.85 399.408 Q2232.85 412.498 2228.23 419.408 Q2223.65 426.283 2214.94 426.283 Q2206.22 426.283 2201.6 419.408 Q2197.02 412.498 2197.02 399.408 Q2197.02 386.283 2201.6 379.408 Q2206.22 372.498 2214.94 372.498 Z" fill="#000000" fill-rule="nonzero" fill-opacity="1" /><path clip-path="url(#clip270)" d="M2243.27 371.318 L2248.82 371.318 Q2254.03 379.512 2256.6 387.359 Q2259.21 395.206 2259.21 402.949 Q2259.21 410.727 2256.6 418.609 Q2254.03 426.491 2248.82 434.651 L2243.27 434.651 Q2247.89 426.699 2250.14 418.852 Q2252.43 410.97 2252.43 402.949 Q2252.43 394.929 2250.14 387.116 Q2247.89 379.304 2243.27 371.318 Z" fill="#000000" fill-rule="nonzero" fill-opacity="1" /></svg>
