<?xml version="1.0" encoding="utf-8"?>
<svg xmlns="http://www.w3.org/2000/svg" xmlns:xlink="http://www.w3.org/1999/xlink" width="600" height="400" viewBox="0 0 2400 1600">
<defs>
  <clipPath id="clip870">
    <rect x="0" y="0" width="2400" height="1600"/>
  </clipPath>
</defs>
<path clip-path="url(#clip870)" d="M0 1600 L2400 1600 L2400 0 L0 0  Z" fill="#ffffff" fill-rule="evenodd" fill-opacity="1"/>
<defs>
  <clipPath id="clip871">
    <rect x="480" y="0" width="1681" height="1600"/>
  </clipPath>
</defs>
<path clip-path="url(#clip870)" d="M149.191 1423.18 L2352.76 1423.18 L2352.76 47.2441 L149.191 47.2441  Z" fill="#ffffff" fill-rule="evenodd" fill-opacity="1"/>
<defs>
  <clipPath id="clip872">
    <rect x="149" y="47" width="2205" height="1377"/>
  </clipPath>
</defs>
<polyline clip-path="url(#clip872)" style="stroke:#000000; stroke-linecap:round; stroke-linejoin:round; stroke-width:2; stroke-opacity:0.1; fill:none" points="211.556,1423.18 211.556,47.2441 "/>
<polyline clip-path="url(#clip872)" style="stroke:#000000; stroke-linecap:round; stroke-linejoin:round; stroke-width:2; stroke-opacity:0.1; fill:none" points="731.265,1423.18 731.265,47.2441 "/>
<polyline clip-path="url(#clip872)" style="stroke:#000000; stroke-linecap:round; stroke-linejoin:round; stroke-width:2; stroke-opacity:0.1; fill:none" points="1250.97,1423.18 1250.97,47.2441 "/>
<polyline clip-path="url(#clip872)" style="stroke:#000000; stroke-linecap:round; stroke-linejoin:round; stroke-width:2; stroke-opacity:0.1; fill:none" points="1770.68,1423.18 1770.68,47.2441 "/>
<polyline clip-path="url(#clip872)" style="stroke:#000000; stroke-linecap:round; stroke-linejoin:round; stroke-width:2; stroke-opacity:0.1; fill:none" points="2290.39,1423.18 2290.39,47.2441 "/>
<polyline clip-path="url(#clip870)" style="stroke:#000000; stroke-linecap:round; stroke-linejoin:round; stroke-width:4; stroke-opacity:1; fill:none" points="149.191,1423.18 2352.76,1423.18 "/>
<polyline clip-path="url(#clip870)" style="stroke:#000000; stroke-linecap:round; stroke-linejoin:round; stroke-width:4; stroke-opacity:1; fill:none" points="211.556,1423.18 211.556,1404.28 "/>
<polyline clip-path="url(#clip870)" style="stroke:#000000; stroke-linecap:round; stroke-linejoin:round; stroke-width:4; stroke-opacity:1; fill:none" points="731.265,1423.18 731.265,1404.28 "/>
<polyline clip-path="url(#clip870)" style="stroke:#000000; stroke-linecap:round; stroke-linejoin:round; stroke-width:4; stroke-opacity:1; fill:none" points="1250.97,1423.18 1250.97,1404.28 "/>
<polyline clip-path="url(#clip870)" style="stroke:#000000; stroke-linecap:round; stroke-linejoin:round; stroke-width:4; stroke-opacity:1; fill:none" points="1770.68,1423.18 1770.68,1404.28 "/>
<polyline clip-path="url(#clip870)" style="stroke:#000000; stroke-linecap:round; stroke-linejoin:round; stroke-width:4; stroke-opacity:1; fill:none" points="2290.39,1423.18 2290.39,1404.28 "/>
<path clip-path="url(#clip870)" d="M211.556 1454.1 Q207.945 1454.1 206.116 1457.66 Q204.311 1461.2 204.311 1468.33 Q204.311 1475.44 206.116 1479.01 Q207.945 1482.55 211.556 1482.55 Q215.19 1482.55 216.996 1479.01 Q218.824 1475.44 218.824 1468.33 Q218.824 1461.2 216.996 1457.66 Q215.19 1454.1 211.556 1454.1 M211.556 1450.39 Q217.366 1450.39 220.422 1455 Q223.5 1459.58 223.5 1468.33 Q223.5 1477.06 220.422 1481.67 Q217.366 1486.25 211.556 1486.25 Q205.746 1486.25 202.667 1481.67 Q199.612 1477.06 199.612 1468.33 Q199.612 1459.58 202.667 1455 Q205.746 1450.39 211.556 1450.39 Z" fill="#000000" fill-rule="nonzero" fill-opacity="1" /><path clip-path="url(#clip870)" d="M721.647 1481.64 L729.285 1481.64 L729.285 1455.28 L720.975 1456.95 L720.975 1452.69 L729.239 1451.02 L733.915 1451.02 L733.915 1481.64 L741.554 1481.64 L741.554 1485.58 L721.647 1485.58 L721.647 1481.64 Z" fill="#000000" fill-rule="nonzero" fill-opacity="1" /><path clip-path="url(#clip870)" d="M1245.63 1481.64 L1261.95 1481.64 L1261.95 1485.58 L1240 1485.58 L1240 1481.64 Q1242.66 1478.89 1247.25 1474.26 Q1251.85 1469.61 1253.03 1468.27 Q1255.28 1465.74 1256.16 1464.01 Q1257.06 1462.25 1257.06 1460.56 Q1257.06 1457.8 1255.12 1456.07 Q1253.2 1454.33 1250.09 1454.33 Q1247.89 1454.33 1245.44 1455.09 Q1243.01 1455.86 1240.23 1457.41 L1240.23 1452.69 Q1243.06 1451.55 1245.51 1450.97 Q1247.96 1450.39 1250 1450.39 Q1255.37 1450.39 1258.57 1453.08 Q1261.76 1455.77 1261.76 1460.26 Q1261.76 1462.39 1260.95 1464.31 Q1260.16 1466.2 1258.06 1468.8 Q1257.48 1469.47 1254.38 1472.69 Q1251.27 1475.88 1245.63 1481.64 Z" fill="#000000" fill-rule="nonzero" fill-opacity="1" /><path clip-path="url(#clip870)" d="M1774.93 1466.95 Q1778.29 1467.66 1780.16 1469.93 Q1782.06 1472.2 1782.06 1475.53 Q1782.06 1480.65 1778.54 1483.45 Q1775.02 1486.25 1768.54 1486.25 Q1766.37 1486.25 1764.05 1485.81 Q1761.76 1485.39 1759.3 1484.54 L1759.3 1480.02 Q1761.25 1481.16 1763.56 1481.74 Q1765.88 1482.32 1768.4 1482.32 Q1772.8 1482.32 1775.09 1480.58 Q1777.41 1478.84 1777.41 1475.53 Q1777.41 1472.48 1775.25 1470.77 Q1773.12 1469.03 1769.3 1469.03 L1765.28 1469.03 L1765.28 1465.19 L1769.49 1465.19 Q1772.94 1465.19 1774.77 1463.82 Q1776.6 1462.43 1776.6 1459.84 Q1776.6 1457.18 1774.7 1455.77 Q1772.82 1454.33 1769.3 1454.33 Q1767.38 1454.33 1765.18 1454.75 Q1762.99 1455.16 1760.35 1456.04 L1760.35 1451.88 Q1763.01 1451.14 1765.32 1450.77 Q1767.66 1450.39 1769.72 1450.39 Q1775.05 1450.39 1778.15 1452.83 Q1781.25 1455.23 1781.25 1459.35 Q1781.25 1462.22 1779.61 1464.21 Q1777.96 1466.18 1774.93 1466.95 Z" fill="#000000" fill-rule="nonzero" fill-opacity="1" /><path clip-path="url(#clip870)" d="M2293.4 1455.09 L2281.59 1473.54 L2293.4 1473.54 L2293.4 1455.09 M2292.17 1451.02 L2298.05 1451.02 L2298.05 1473.54 L2302.98 1473.54 L2302.98 1477.43 L2298.05 1477.43 L2298.05 1485.58 L2293.4 1485.58 L2293.4 1477.43 L2277.8 1477.43 L2277.8 1472.92 L2292.17 1451.02 Z" fill="#000000" fill-rule="nonzero" fill-opacity="1" /><path clip-path="url(#clip870)" d="M1199.28 1522.27 L1199.28 1532.4 L1211.35 1532.4 L1211.35 1536.95 L1199.28 1536.95 L1199.28 1556.3 Q1199.28 1560.66 1200.46 1561.9 Q1201.67 1563.14 1205.33 1563.14 L1211.35 1563.14 L1211.35 1568.04 L1205.33 1568.04 Q1198.55 1568.04 1195.97 1565.53 Q1193.4 1562.98 1193.4 1556.3 L1193.4 1536.95 L1189.1 1536.95 L1189.1 1532.4 L1193.4 1532.4 L1193.4 1522.27 L1199.28 1522.27 Z" fill="#000000" fill-rule="nonzero" fill-opacity="1" /><path clip-path="url(#clip870)" d="M1239.23 1518.52 L1252.72 1518.52 L1252.72 1523.07 L1245.09 1523.07 L1245.09 1572.09 L1252.72 1572.09 L1252.72 1576.64 L1239.23 1576.64 L1239.23 1518.52 Z" fill="#000000" fill-rule="nonzero" fill-opacity="1" /><path clip-path="url(#clip870)" d="M1287.93 1533.45 L1287.93 1538.98 Q1285.44 1537.71 1282.77 1537.07 Q1280.1 1536.44 1277.23 1536.44 Q1272.87 1536.44 1270.68 1537.77 Q1268.51 1539.11 1268.51 1541.79 Q1268.51 1543.82 1270.07 1545 Q1271.63 1546.15 1276.34 1547.2 L1278.35 1547.64 Q1284.58 1548.98 1287.19 1551.43 Q1289.84 1553.85 1289.84 1558.21 Q1289.84 1563.17 1285.89 1566.07 Q1281.97 1568.97 1275.1 1568.97 Q1272.23 1568.97 1269.12 1568.39 Q1266.03 1567.85 1262.59 1566.74 L1262.59 1560.69 Q1265.84 1562.38 1268.99 1563.24 Q1272.14 1564.07 1275.23 1564.07 Q1279.36 1564.07 1281.59 1562.66 Q1283.82 1561.23 1283.82 1558.65 Q1283.82 1556.27 1282.2 1554.99 Q1280.61 1553.72 1275.16 1552.54 L1273.13 1552.07 Q1267.68 1550.92 1265.26 1548.56 Q1262.85 1546.18 1262.85 1542.04 Q1262.85 1537.01 1266.41 1534.27 Q1269.98 1531.54 1276.53 1531.54 Q1279.78 1531.54 1282.64 1532.01 Q1285.51 1532.49 1287.93 1533.45 Z" fill="#000000" fill-rule="nonzero" fill-opacity="1" /><path clip-path="url(#clip870)" d="M1312.85 1518.52 L1312.85 1576.64 L1299.35 1576.64 L1299.35 1572.09 L1306.96 1572.09 L1306.96 1523.07 L1299.35 1523.07 L1299.35 1518.52 L1312.85 1518.52 Z" fill="#000000" fill-rule="nonzero" fill-opacity="1" /><polyline clip-path="url(#clip872)" style="stroke:#000000; stroke-linecap:round; stroke-linejoin:round; stroke-width:2; stroke-opacity:0.1; fill:none" points="149.191,1270.54 2352.76,1270.54 "/>
<polyline clip-path="url(#clip872)" style="stroke:#000000; stroke-linecap:round; stroke-linejoin:round; stroke-width:2; stroke-opacity:0.1; fill:none" points="149.191,1002.82 2352.76,1002.82 "/>
<polyline clip-path="url(#clip872)" style="stroke:#000000; stroke-linecap:round; stroke-linejoin:round; stroke-width:2; stroke-opacity:0.1; fill:none" points="149.191,735.097 2352.76,735.097 "/>
<polyline clip-path="url(#clip872)" style="stroke:#000000; stroke-linecap:round; stroke-linejoin:round; stroke-width:2; stroke-opacity:0.1; fill:none" points="149.191,467.376 2352.76,467.376 "/>
<polyline clip-path="url(#clip872)" style="stroke:#000000; stroke-linecap:round; stroke-linejoin:round; stroke-width:2; stroke-opacity:0.1; fill:none" points="149.191,199.656 2352.76,199.656 "/>
<polyline clip-path="url(#clip870)" style="stroke:#000000; stroke-linecap:round; stroke-linejoin:round; stroke-width:4; stroke-opacity:1; fill:none" points="149.191,1423.18 149.191,47.2441 "/>
<polyline clip-path="url(#clip870)" style="stroke:#000000; stroke-linecap:round; stroke-linejoin:round; stroke-width:4; stroke-opacity:1; fill:none" points="149.191,1270.54 168.089,1270.54 "/>
<polyline clip-path="url(#clip870)" style="stroke:#000000; stroke-linecap:round; stroke-linejoin:round; stroke-width:4; stroke-opacity:1; fill:none" points="149.191,1002.82 168.089,1002.82 "/>
<polyline clip-path="url(#clip870)" style="stroke:#000000; stroke-linecap:round; stroke-linejoin:round; stroke-width:4; stroke-opacity:1; fill:none" points="149.191,735.097 168.089,735.097 "/>
<polyline clip-path="url(#clip870)" style="stroke:#000000; stroke-linecap:round; stroke-linejoin:round; stroke-width:4; stroke-opacity:1; fill:none" points="149.191,467.376 168.089,467.376 "/>
<polyline clip-path="url(#clip870)" style="stroke:#000000; stroke-linecap:round; stroke-linejoin:round; stroke-width:4; stroke-opacity:1; fill:none" points="149.191,199.656 168.089,199.656 "/>
<path clip-path="url(#clip870)" d="M50.9921 1270.99 L80.6679 1270.99 L80.6679 1274.92 L50.9921 1274.92 L50.9921 1270.99 Z" fill="#000000" fill-rule="nonzero" fill-opacity="1" /><path clip-path="url(#clip870)" d="M103.608 1257.33 L91.8021 1275.78 L103.608 1275.78 L103.608 1257.33 M102.381 1253.26 L108.26 1253.26 L108.26 1275.78 L113.191 1275.78 L113.191 1279.67 L108.26 1279.67 L108.26 1287.82 L103.608 1287.82 L103.608 1279.67 L88.0058 1279.67 L88.0058 1275.16 L102.381 1253.26 Z" fill="#000000" fill-rule="nonzero" fill-opacity="1" /><path clip-path="url(#clip870)" d="M53.0754 1003.27 L82.7512 1003.27 L82.7512 1007.2 L53.0754 1007.2 L53.0754 1003.27 Z" fill="#000000" fill-rule="nonzero" fill-opacity="1" /><path clip-path="url(#clip870)" d="M96.8715 1016.16 L113.191 1016.16 L113.191 1020.1 L91.2465 1020.1 L91.2465 1016.16 Q93.9086 1013.41 98.4919 1008.78 Q103.098 1004.12 104.279 1002.78 Q106.524 1000.26 107.404 998.523 Q108.307 996.764 108.307 995.074 Q108.307 992.319 106.362 990.583 Q104.441 988.847 101.339 988.847 Q99.14 988.847 96.6863 989.611 Q94.2558 990.375 91.478 991.926 L91.478 987.204 Q94.3021 986.069 96.7558 985.491 Q99.2095 984.912 101.246 984.912 Q106.617 984.912 109.811 987.597 Q113.006 990.282 113.006 994.773 Q113.006 996.903 112.196 998.824 Q111.408 1000.72 109.302 1003.31 Q108.723 1003.99 105.621 1007.2 Q102.52 1010.4 96.8715 1016.16 Z" fill="#000000" fill-rule="nonzero" fill-opacity="1" /><path clip-path="url(#clip870)" d="M101.246 720.895 Q97.6354 720.895 95.8067 724.46 Q94.0012 728.002 94.0012 735.131 Q94.0012 742.238 95.8067 745.803 Q97.6354 749.344 101.246 749.344 Q104.881 749.344 106.686 745.803 Q108.515 742.238 108.515 735.131 Q108.515 728.002 106.686 724.46 Q104.881 720.895 101.246 720.895 M101.246 717.192 Q107.057 717.192 110.112 721.798 Q113.191 726.381 113.191 735.131 Q113.191 743.858 110.112 748.465 Q107.057 753.048 101.246 753.048 Q95.4363 753.048 92.3576 748.465 Q89.3021 743.858 89.3021 735.131 Q89.3021 726.381 92.3576 721.798 Q95.4363 717.192 101.246 717.192 Z" fill="#000000" fill-rule="nonzero" fill-opacity="1" /><path clip-path="url(#clip870)" d="M96.8715 480.721 L113.191 480.721 L113.191 484.656 L91.2465 484.656 L91.2465 480.721 Q93.9086 477.967 98.4919 473.337 Q103.098 468.684 104.279 467.342 Q106.524 464.819 107.404 463.082 Q108.307 461.323 108.307 459.633 Q108.307 456.879 106.362 455.143 Q104.441 453.407 101.339 453.407 Q99.14 453.407 96.6863 454.17 Q94.2558 454.934 91.478 456.485 L91.478 451.763 Q94.3021 450.629 96.7558 450.05 Q99.2095 449.471 101.246 449.471 Q106.617 449.471 109.811 452.157 Q113.006 454.842 113.006 459.332 Q113.006 461.462 112.196 463.383 Q111.408 465.281 109.302 467.874 Q108.723 468.545 105.621 471.763 Q102.52 474.957 96.8715 480.721 Z" fill="#000000" fill-rule="nonzero" fill-opacity="1" /><path clip-path="url(#clip870)" d="M103.608 186.45 L91.8021 204.899 L103.608 204.899 L103.608 186.45 M102.381 182.376 L108.26 182.376 L108.26 204.899 L113.191 204.899 L113.191 208.788 L108.26 208.788 L108.26 216.936 L103.608 216.936 L103.608 208.788 L88.0058 208.788 L88.0058 204.274 L102.381 182.376 Z" fill="#000000" fill-rule="nonzero" fill-opacity="1" /><polyline clip-path="url(#clip872)" style="stroke:#009af9; stroke-linecap:round; stroke-linejoin:round; stroke-width:4; stroke-opacity:1; fill:none" points="211.556,601.237 216.753,603.235 221.95,605.219 227.147,607.186 232.344,609.134 237.541,611.058 242.738,612.96 247.936,614.835 253.133,616.685 258.33,618.505 263.527,620.295 268.724,622.052 273.921,623.775 279.118,625.463 284.315,627.112 289.512,628.724 294.709,630.293 299.906,631.82 305.103,633.304 310.301,634.743 315.498,636.136 320.695,637.481 325.892,638.776 331.089,640.022 336.286,641.215 341.483,642.355 346.68,643.441 351.877,644.471 357.074,645.445 362.271,646.361 367.469,647.219 372.666,648.018 377.863,648.756 383.06,649.434 388.257,650.05 393.454,650.604 398.651,651.094 403.848,651.522 409.045,651.887 414.242,652.187 419.439,652.422 424.636,652.594 429.834,652.7 435.031,652.742 440.228,652.718 445.425,652.63 450.622,652.478 455.819,652.26 461.016,651.978 466.213,651.632 471.41,651.222 476.607,650.749 481.804,650.213 487.002,649.615 492.199,648.954 497.396,648.233 502.593,647.452 507.79,646.61 512.987,645.71 518.184,644.753 523.381,643.738 528.578,642.668 533.775,641.543 538.972,640.363 544.17,639.132 549.367,637.849 554.564,636.516 559.761,635.134 564.958,633.705 570.155,632.23 575.352,630.71 580.549,629.148 585.746,627.544 590.943,625.9 596.14,624.218 601.337,622.499 606.535,620.746 611.732,618.96 616.929,617.143 622.126,615.296 627.323,613.422 632.52,611.522 637.717,609.599 642.914,607.654 648.111,605.689 653.308,603.706 658.505,601.707 663.703,599.695 668.9,597.67 674.097,595.636 679.294,593.594 684.491,591.547 689.688,589.495 694.885,587.442 700.082,585.389 705.279,583.339 710.476,581.294 715.673,579.254 720.87,577.223 726.068,575.203 731.265,573.195 736.462,571.202 741.659,569.225 746.856,567.267 752.053,565.33 757.25,563.416 762.447,561.525 767.644,559.66 772.841,557.823 778.038,556.016 783.236,554.242 788.433,552.501 793.63,550.796 798.827,549.128 804.024,547.498 809.221,545.909 814.418,544.361 819.615,542.857 824.812,541.398 830.009,539.986 835.206,538.622 840.403,537.308 845.601,536.044 850.798,534.832 855.995,533.673 861.192,532.568 866.389,531.519 871.586,530.526 876.783,529.591 881.98,528.714 887.177,527.896 892.374,527.138 897.571,526.441 902.769,525.806 907.966,525.233 913.163,524.722 918.36,524.275 923.557,523.891 928.754,523.571 933.951,523.315 939.148,523.124 944.345,522.998 949.542,522.936 954.739,522.94 959.936,523.008 965.134,523.141 970.331,523.339 975.528,523.601 980.725,523.928 985.922,524.318 991.119,524.772 996.316,525.289 1001.51,525.869 1006.71,526.511 1011.91,527.213 1017.1,527.977 1022.3,528.8 1027.5,529.682 1032.7,530.623 1037.89,531.621 1043.09,532.675 1048.29,533.784 1053.48,534.947 1058.68,536.163 1063.88,537.431 1069.08,538.749 1074.27,540.116 1079.47,541.532 1084.67,542.993 1089.86,544.499 1095.06,546.049 1100.26,547.641 1105.45,549.272 1110.65,550.942 1115.85,552.649 1121.05,554.391 1126.24,556.167 1131.44,557.975 1136.64,559.812 1141.83,561.678 1147.03,563.569 1152.23,565.485 1157.43,567.422 1162.62,569.381 1167.82,571.358 1173.02,573.352 1178.21,575.359 1183.41,577.38 1188.61,579.411 1193.81,581.45 1199,583.495 1204.2,585.545 1209.4,587.597 1214.59,589.65 1219.79,591.7 1224.99,593.747 1230.19,595.788 1235.38,597.82 1240.58,599.843 1245.78,601.854 1250.97,603.85 1256.17,605.831 1261.37,607.794 1266.56,609.737 1271.76,611.657 1276.96,613.554 1282.16,615.425 1287.35,617.269 1292.55,619.083 1297.75,620.866 1302.94,622.616 1308.14,624.331 1313.34,626.01 1318.54,627.65 1323.73,629.25 1328.93,630.81 1334.13,632.326 1339.32,633.797 1344.52,635.223 1349.72,636.601 1354.92,637.931 1360.11,639.21 1365.31,640.438 1370.51,641.613 1375.7,642.735 1380.9,643.802 1386.1,644.813 1391.29,645.766 1396.49,646.662 1401.69,647.499 1406.89,648.276 1412.08,648.993 1417.28,649.649 1422.48,650.243 1427.67,650.774 1432.87,651.243 1438.07,651.648 1443.27,651.989 1448.46,652.266 1453.66,652.479 1458.86,652.627 1464.05,652.71 1469.25,652.729 1474.45,652.682 1479.65,652.571 1484.84,652.394 1490.04,652.154 1495.24,651.849 1500.43,651.48 1505.63,651.047 1510.83,650.552 1516.02,649.993 1521.22,649.373 1526.42,648.69 1531.62,647.947 1536.81,647.144 1542.01,646.281 1547.21,645.361 1552.4,644.382 1557.6,643.348 1562.8,642.258 1568,641.113 1573.19,639.915 1578.39,638.664 1583.59,637.363 1588.78,636.013 1593.98,634.614 1599.18,633.169 1604.38,631.679 1609.57,630.144 1614.77,628.568 1619.97,626.95 1625.16,625.294 1630.36,623.6 1635.56,621.87 1640.75,620.106 1645.95,618.311 1651.15,616.484 1656.35,614.629 1661.54,612.748 1666.74,610.841 1671.94,608.911 1677.13,606.961 1682.33,604.991 1687.53,603.004 1692.73,601.002 1697.92,598.987 1703.12,596.961 1708.32,594.926 1713.51,592.883 1718.71,590.836 1723.91,588.786 1729.11,586.735 1734.3,584.685 1739.5,582.638 1744.7,580.596 1749.89,578.562 1755.09,576.537 1760.29,574.523 1765.49,572.523 1770.68,570.538 1775.88,568.57 1781.08,566.622 1786.27,564.695 1791.47,562.791 1796.67,560.912 1801.86,559.06 1807.06,557.237 1812.26,555.445 1817.46,553.685 1822.65,551.959 1827.85,550.269 1833.05,548.617 1838.24,547.004 1843.44,545.432 1848.64,543.903 1853.84,542.417 1859.03,540.977 1864.23,539.584 1869.43,538.239 1874.62,536.943 1879.82,535.699 1885.02,534.507 1890.22,533.368 1895.41,532.284 1900.61,531.255 1905.81,530.283 1911,529.368 1916.2,528.512 1921.4,527.715 1926.59,526.979 1931.79,526.303 1936.99,525.689 1942.19,525.137 1947.38,524.648 1952.58,524.222 1957.78,523.86 1962.97,523.561 1968.17,523.327 1973.37,523.158 1978.57,523.053 1983.76,523.013 1988.96,523.038 1994.16,523.128 1999.35,523.283 2004.55,523.501 2009.75,523.785 2014.95,524.132 2020.14,524.544 2025.34,525.018 2030.54,525.556 2035.73,526.155 2040.93,526.817 2046.13,527.539 2051.32,528.321 2056.52,529.164 2061.72,530.065 2066.92,531.023 2072.11,532.039 2077.31,533.111 2082.51,534.237 2087.7,535.416 2092.9,536.648 2098.1,537.931 2103.3,539.265 2108.49,540.646 2113.69,542.076 2118.89,543.55 2124.08,545.07 2129.28,546.631 2134.48,548.234 2139.68,549.877 2144.87,551.557 2150.07,553.274 2155.27,555.026 2160.46,556.81 2165.66,558.625 2170.86,560.47 2176.05,562.342 2181.25,564.239 2186.45,566.159 2191.65,568.102 2196.84,570.064 2202.04,572.045 2207.24,574.041 2212.43,576.05 2217.63,578.072 2222.83,580.103 2228.03,582.141 2233.22,584.186 2238.42,586.234 2243.62,588.284 2248.81,590.334 2254.01,592.38 2259.21,594.423 2264.41,596.458 2269.6,598.485 2274.8,600.502 2280,602.505 2285.19,604.494 2290.39,606.467 "/>
<polyline clip-path="url(#clip872)" style="stroke:#e26f46; stroke-linecap:round; stroke-linejoin:round; stroke-width:4; stroke-opacity:1; fill:none" points="211.556,935.887 216.753,934.419 221.95,932.774 227.147,930.936 232.344,928.905 237.541,926.682 242.738,924.268 247.936,921.667 253.133,918.878 258.33,915.908 263.527,912.757 268.724,909.429 273.921,905.928 279.118,902.255 284.315,898.418 289.512,894.415 294.709,890.258 299.906,885.946 305.103,881.479 310.301,876.867 315.498,872.114 320.695,867.223 325.892,862.197 331.089,857.046 336.286,851.772 341.483,846.38 346.68,840.876 351.877,835.268 357.074,829.558 362.271,823.753 367.469,817.86 372.666,811.884 377.863,805.831 383.06,799.707 388.257,793.518 393.454,787.271 398.651,780.971 403.848,774.626 409.045,768.241 414.242,761.822 419.439,755.376 424.636,748.911 429.834,742.431 435.031,735.944 440.228,729.456 445.425,722.973 450.622,716.502 455.819,710.05 461.016,703.623 466.213,697.227 471.41,690.868 476.607,684.554 481.804,678.29 487.002,672.083 492.199,665.939 497.396,659.863 502.593,653.863 507.79,647.944 512.987,642.112 518.184,636.372 523.381,630.73 528.578,625.193 533.775,619.765 538.972,614.454 544.17,609.262 549.367,604.195 554.564,599.259 559.761,594.46 564.958,589.801 570.155,585.288 575.352,580.924 580.549,576.714 585.746,572.662 590.943,568.773 596.14,565.052 601.337,561.499 606.535,558.12 611.732,554.919 616.929,551.898 622.126,549.06 627.323,546.408 632.52,543.945 637.717,541.673 642.914,539.595 648.111,537.712 653.308,536.027 658.505,534.541 663.703,533.255 668.9,532.171 674.097,531.29 679.294,530.614 684.491,530.141 689.688,529.874 694.885,529.812 700.082,529.955 705.279,530.303 710.476,530.857 715.673,531.614 720.87,532.575 726.068,533.739 731.265,535.104 736.462,536.669 741.659,538.432 746.856,540.393 752.053,542.548 757.25,544.896 762.447,547.434 767.644,550.161 772.841,553.072 778.038,556.165 783.236,559.438 788.433,562.887 793.63,566.507 798.827,570.296 804.024,574.251 809.221,578.368 814.418,582.641 819.615,587.067 824.812,591.64 830.009,596.358 835.206,601.214 840.403,606.203 845.601,611.322 850.798,616.566 855.995,621.928 861.192,627.403 866.389,632.987 871.586,638.672 876.783,644.453 881.98,650.325 887.177,656.28 892.374,662.316 897.571,668.424 902.769,674.599 907.966,680.835 913.163,687.125 918.36,693.462 923.557,699.84 928.754,706.254 933.951,712.695 939.148,719.16 944.345,725.641 949.542,732.131 954.739,738.624 959.936,745.113 965.134,751.592 970.331,758.054 975.528,764.493 980.725,770.902 985.922,777.276 991.119,783.608 996.316,789.89 1001.51,796.118 1006.71,802.285 1011.91,808.385 1017.1,814.411 1022.3,820.358 1027.5,826.219 1032.7,831.989 1037.89,837.663 1043.09,843.233 1048.29,848.696 1053.48,854.045 1058.68,859.275 1063.88,864.38 1069.08,869.357 1074.27,874.199 1079.47,878.901 1084.67,883.46 1089.86,887.871 1095.06,892.128 1100.26,896.229 1105.45,900.168 1110.65,903.943 1115.85,907.548 1121.05,910.981 1126.24,914.237 1131.44,917.315 1136.64,920.21 1141.83,922.92 1147.03,925.442 1152.23,927.774 1157.43,929.914 1162.62,931.858 1167.82,933.604 1173.02,935.153 1178.21,936.501 1183.41,937.648 1188.61,938.592 1193.81,939.333 1199,939.871 1204.2,940.203 1209.4,940.329 1214.59,940.25 1219.79,939.966 1224.99,939.477 1230.19,938.783 1235.38,937.886 1240.58,936.787 1245.78,935.487 1250.97,933.985 1256.17,932.284 1261.37,930.385 1266.56,928.292 1271.76,926.005 1276.96,923.528 1282.16,920.862 1287.35,918.011 1292.55,914.978 1297.75,911.763 1302.94,908.372 1308.14,904.807 1313.34,901.073 1318.54,897.173 1323.73,893.111 1328.93,888.892 1334.13,884.519 1339.32,879.996 1344.52,875.328 1349.72,870.52 1354.92,865.576 1360.11,860.501 1365.31,855.302 1370.51,849.983 1375.7,844.549 1380.9,839.006 1386.1,833.359 1391.29,827.612 1396.49,821.774 1401.69,815.849 1406.89,809.843 1412.08,803.763 1417.28,797.614 1422.48,791.404 1427.67,785.136 1432.87,778.819 1438.07,772.457 1443.27,766.059 1448.46,759.629 1453.66,753.175 1458.86,746.704 1464.05,740.22 1469.25,733.733 1474.45,727.246 1479.65,720.767 1484.84,714.302 1490.04,707.858 1495.24,701.442 1500.43,695.059 1505.63,688.717 1510.83,682.421 1516.02,676.178 1521.22,669.994 1526.42,663.875 1531.62,657.827 1536.81,651.857 1542.01,645.97 1547.21,640.172 1552.4,634.469 1557.6,628.867 1562.8,623.372 1568,617.988 1573.19,612.721 1578.39,607.577 1583.59,602.561 1588.78,597.677 1593.98,592.93 1599.18,588.326 1604.38,583.868 1609.57,579.562 1614.77,575.412 1619.97,571.421 1625.16,567.595 1630.36,563.936 1635.56,560.447 1640.75,557.134 1645.95,553.998 1651.15,551.044 1656.35,548.274 1661.54,545.691 1666.74,543.298 1671.94,541.096 1677.13,539.088 1682.33,537.277 1687.53,535.663 1692.73,534.247 1697.92,533.034 1703.12,532.023 1708.32,531.215 1713.51,530.612 1718.71,530.212 1723.91,530.017 1729.11,530.028 1734.3,530.242 1739.5,530.662 1744.7,531.287 1749.89,532.116 1755.09,533.148 1760.29,534.382 1765.49,535.817 1770.68,537.45 1775.88,539.281 1781.08,541.308 1786.27,543.528 1791.47,545.941 1796.67,548.543 1801.86,551.332 1807.06,554.304 1812.26,557.457 1817.46,560.787 1822.65,564.292 1827.85,567.966 1833.05,571.809 1838.24,575.815 1843.44,579.981 1848.64,584.301 1853.84,588.773 1859.03,593.39 1864.23,598.149 1869.43,603.044 1874.62,608.071 1879.82,613.226 1885.02,618.503 1890.22,623.897 1895.41,629.402 1900.61,635.012 1905.81,640.722 1911,646.526 1916.2,652.418 1921.4,658.393 1926.59,664.446 1931.79,670.569 1936.99,676.756 1942.19,683.002 1947.38,689.3 1952.58,695.643 1957.78,702.025 1962.97,708.44 1968.17,714.882 1973.37,721.345 1978.57,727.821 1983.76,734.304 1988.96,740.788 1994.16,747.267 1999.35,753.732 2004.55,760.179 2009.75,766.601 2014.95,772.991 2020.14,779.344 2025.34,785.652 2030.54,791.909 2035.73,798.11 2040.93,804.247 2046.13,810.315 2051.32,816.308 2056.52,822.219 2061.72,828.044 2066.92,833.775 2072.11,839.408 2077.31,844.936 2082.51,850.354 2087.7,855.657 2092.9,860.839 2098.1,865.895 2103.3,870.821 2108.49,875.61 2113.69,880.259 2118.89,884.763 2124.08,889.117 2129.28,893.317 2134.48,897.359 2139.68,901.238 2144.87,904.951 2150.07,908.494 2155.27,911.864 2160.46,915.056 2165.66,918.069 2170.86,920.899 2176.05,923.543 2181.25,925.998 2186.45,928.263 2191.65,930.334 2196.84,932.21 2202.04,933.888 2207.24,935.368 2212.43,936.647 2217.63,937.725 2222.83,938.601 2228.03,939.273 2233.22,939.741 2238.42,940.003 2243.62,940.061 2248.81,939.913 2254.01,939.561 2259.21,939.004 2264.41,938.244 2269.6,937.281 2274.8,936.116 2280,934.749 2285.19,933.182 2290.39,931.417 "/>
<polyline clip-path="url(#clip872)" style="stroke:#3da44d; stroke-linecap:round; stroke-linejoin:round; stroke-width:4; stroke-opacity:1; fill:none" points="211.556,601.237 216.753,581.251 221.95,561.409 227.147,541.739 232.344,522.264 237.541,503.024 242.738,484.003 247.936,465.248 253.133,446.753 258.33,428.552 263.527,410.655 268.724,393.08 273.921,375.851 279.118,358.972 284.315,342.479 289.512,326.364 294.709,310.676 299.906,295.406 305.103,280.561 310.301,266.167 315.498,252.244 320.695,238.796 325.892,225.837 331.089,213.386 336.286,201.453 341.483,190.052 346.68,179.195 351.877,168.889 357.074,159.15 362.271,149.99 367.469,141.41 372.666,133.422 377.863,126.039 383.06,119.266 388.257,113.104 393.454,107.566 398.651,102.658 403.848,98.3802 409.045,94.7367 414.242,91.7357 419.439,89.3816 424.636,87.6669 429.834,86.6005 435.031,86.1857 440.228,86.4193 445.425,87.2979 450.622,88.826 455.819,91.0046 461.016,93.8214 466.213,97.2796 471.41,101.378 476.607,106.112 481.804,111.47 487.002,117.454 492.199,124.058 497.396,131.271 502.593,139.086 507.79,147.499 512.987,156.502 518.184,166.077 523.381,176.22 528.578,186.922 533.775,198.175 538.972,209.97 544.17,222.286 549.367,235.112 554.564,248.44 559.761,262.257 564.958,276.55 570.155,291.303 575.352,306.499 580.549,322.125 585.746,338.165 590.943,354.603 596.14,371.422 601.337,388.607 606.535,406.14 611.732,424.002 616.929,442.175 622.126,460.64 627.323,479.381 632.52,498.379 637.717,517.614 642.914,537.066 648.111,556.715 653.308,576.541 658.505,596.529 663.703,616.655 668.9,636.9 674.097,657.241 679.294,677.66 684.491,698.136 689.688,718.651 694.885,739.182 700.082,759.709 705.279,780.21 710.476,800.665 715.673,821.06 720.87,841.37 726.068,861.574 731.265,881.653 736.462,901.586 741.659,921.352 746.856,940.929 752.053,960.298 757.25,979.446 762.447,998.357 767.644,1017.01 772.841,1035.37 778.038,1053.44 783.236,1071.19 788.433,1088.59 793.63,1105.64 798.827,1122.32 804.024,1138.62 809.221,1154.51 814.418,1169.99 819.615,1185.03 824.812,1199.62 830.009,1213.74 835.206,1227.38 840.403,1240.52 845.601,1253.16 850.798,1265.28 855.995,1276.87 861.192,1287.92 866.389,1298.41 871.586,1308.34 876.783,1317.69 881.98,1326.46 887.177,1334.64 892.374,1342.22 897.571,1349.19 902.769,1355.54 907.966,1361.27 913.163,1366.38 918.36,1370.85 923.557,1374.69 928.754,1377.89 933.951,1380.45 939.148,1382.36 944.345,1383.62 949.542,1384.24 954.739,1384.2 959.936,1383.52 965.134,1382.19 970.331,1380.21 975.528,1377.59 980.725,1374.33 985.922,1370.42 991.119,1365.88 996.316,1360.71 1001.51,1354.91 1006.71,1348.5 1011.91,1341.47 1017.1,1333.84 1022.3,1325.6 1027.5,1316.78 1032.7,1307.37 1037.89,1297.4 1043.09,1286.85 1048.29,1275.76 1053.48,1264.13 1058.68,1251.97 1063.88,1239.29 1069.08,1226.11 1074.27,1212.44 1079.47,1198.29 1084.67,1183.67 1089.86,1168.61 1095.06,1153.11 1100.26,1137.2 1105.45,1120.88 1110.65,1104.18 1115.85,1087.11 1121.05,1069.69 1126.24,1051.93 1131.44,1033.85 1136.64,1015.48 1141.83,996.825 1147.03,977.911 1152.23,958.755 1157.43,939.377 1162.62,919.792 1167.82,900.021 1173.02,880.086 1178.21,860.007 1183.41,839.803 1188.61,819.495 1193.81,799.104 1199,778.65 1204.2,758.152 1209.4,737.63 1214.59,717.106 1219.79,696.6 1224.99,676.133 1230.19,655.725 1235.38,635.398 1240.58,615.171 1245.78,595.064 1250.97,575.097 1256.17,555.29 1261.37,535.664 1266.56,516.236 1271.76,497.029 1276.96,478.059 1282.16,459.347 1287.35,440.911 1292.55,422.77 1297.75,404.941 1302.94,387.442 1308.14,370.292 1313.34,353.506 1318.54,337.103 1323.73,321.097 1328.93,305.506 1334.13,290.344 1339.32,275.627 1344.52,261.371 1349.72,247.589 1354.92,234.294 1360.11,221.501 1365.31,209.221 1370.51,197.467 1375.7,186.25 1380.9,175.582 1386.1,165.475 1391.29,155.939 1396.49,146.982 1401.69,138.613 1406.89,130.84 1412.08,123.672 1417.28,117.114 1422.48,111.174 1427.67,105.859 1432.87,101.174 1438.07,97.1247 1443.27,93.713 1448.46,90.9427 1453.66,88.8162 1458.86,87.3355 1464.05,86.5015 1469.25,86.3147 1474.45,86.7802 1479.65,87.895 1484.84,89.6571 1490.04,92.0646 1495.24,95.115 1500.43,98.8048 1505.63,103.13 1510.83,108.086 1516.02,113.668 1521.22,119.876 1526.42,126.699 1531.62,134.13 1536.81,142.162 1542.01,150.787 1547.21,159.995 1552.4,169.778 1557.6,180.123 1562.8,191.026 1568,202.475 1573.19,214.456 1578.39,226.959 1583.59,239.968 1588.78,253.473 1593.98,267.458 1599.18,281.909 1604.38,296.812 1609.57,312.157 1614.77,327.925 1619.97,344.1 1625.16,360.667 1630.36,377.607 1635.56,394.903 1640.75,412.539 1645.95,430.496 1651.15,448.758 1656.35,467.308 1661.54,486.126 1666.74,505.193 1671.94,524.49 1677.13,543.996 1682.33,563.693 1687.53,583.56 1692.73,603.577 1697.92,623.728 1703.12,643.991 1708.32,664.344 1713.51,684.768 1718.71,705.242 1723.91,725.745 1729.11,746.257 1734.3,766.756 1739.5,787.223 1744.7,807.64 1749.89,827.984 1755.09,848.234 1760.29,868.372 1765.49,888.375 1770.68,908.225 1775.88,927.901 1781.08,947.383 1786.27,966.654 1791.47,985.692 1796.67,1004.48 1801.86,1023 1807.06,1041.23 1812.26,1059.15 1817.46,1076.75 1822.65,1094.01 1827.85,1110.91 1833.05,1127.43 1838.24,1143.56 1843.44,1159.28 1848.64,1174.57 1853.84,1189.43 1859.03,1203.83 1864.23,1217.77 1869.43,1231.22 1874.62,1244.17 1879.82,1256.61 1885.02,1268.54 1890.22,1279.92 1895.41,1290.77 1900.61,1301.05 1905.81,1310.78 1911,1319.92 1916.2,1328.48 1921.4,1336.45 1926.59,1343.82 1931.79,1350.57 1936.99,1356.71 1942.19,1362.23 1947.38,1367.12 1952.58,1371.38 1957.78,1375.01 1962.97,1377.99 1968.17,1380.33 1973.37,1382.02 1978.57,1383.07 1983.76,1383.47 1988.96,1383.22 1994.16,1382.32 1999.35,1380.78 2004.55,1378.59 2009.75,1375.76 2014.95,1372.28 2020.14,1368.17 2025.34,1363.42 2030.54,1358.05 2035.73,1352.05 2040.93,1345.43 2046.13,1338.21 2051.32,1330.39 2056.52,1321.97 2061.72,1312.96 2066.92,1303.37 2072.11,1293.21 2077.31,1282.5 2082.51,1271.24 2087.7,1259.44 2092.9,1247.12 2098.1,1234.29 2103.3,1220.96 2108.49,1207.14 2113.69,1192.85 2118.89,1178.1 2124.08,1162.91 2129.28,1147.29 2134.48,1131.26 2139.68,1114.84 2144.87,1098.03 2150.07,1080.86 2155.27,1063.35 2160.46,1045.5 2165.66,1027.35 2170.86,1008.9 2176.05,990.186 2181.25,971.214 2186.45,952.007 2191.65,932.581 2196.84,912.957 2202.04,893.155 2207.24,873.196 2212.43,853.099 2217.63,832.885 2222.83,812.574 2228.03,792.187 2233.22,771.742 2238.42,751.259 2243.62,730.761 2248.81,710.267 2254.01,689.798 2259.21,669.375 2264.41,649.018 2269.6,628.748 2274.8,608.586 2280,588.549 2285.19,568.658 2290.39,548.935 "/>
<path clip-path="url(#clip870)" d="M1575.06 300.469 L2279.3 300.469 L2279.3 93.1086 L1575.06 93.1086  Z" fill="#ffffff" fill-rule="evenodd" fill-opacity="1"/>
<polyline clip-path="url(#clip870)" style="stroke:#000000; stroke-linecap:round; stroke-linejoin:round; stroke-width:4; stroke-opacity:1; fill:none" points="1575.06,300.469 2279.3,300.469 2279.3,93.1086 1575.06,93.1086 1575.06,300.469 "/>
<polyline clip-path="url(#clip870)" style="stroke:#009af9; stroke-linecap:round; stroke-linejoin:round; stroke-width:4; stroke-opacity:1; fill:none" points="1599.54,144.949 1746.45,144.949 "/>
<path clip-path="url(#clip870)" d="M1791.28 141.28 Q1792.88 138.409 1795.1 137.044 Q1797.32 135.678 1800.33 135.678 Q1804.38 135.678 1806.58 138.525 Q1808.78 141.349 1808.78 146.581 L1808.78 162.229 L1804.5 162.229 L1804.5 146.719 Q1804.5 142.993 1803.18 141.187 Q1801.86 139.382 1799.15 139.382 Q1795.84 139.382 1793.92 141.581 Q1792 143.78 1792 147.576 L1792 162.229 L1787.72 162.229 L1787.72 146.719 Q1787.72 142.969 1786.4 141.187 Q1785.08 139.382 1782.32 139.382 Q1779.06 139.382 1777.14 141.604 Q1775.22 143.803 1775.22 147.576 L1775.22 162.229 L1770.93 162.229 L1770.93 136.303 L1775.22 136.303 L1775.22 140.331 Q1776.67 137.946 1778.71 136.812 Q1780.75 135.678 1783.55 135.678 Q1786.37 135.678 1788.34 137.113 Q1790.33 138.548 1791.28 141.28 Z" fill="#000000" fill-rule="nonzero" fill-opacity="1" /><path clip-path="url(#clip870)" d="M1829.06 149.196 Q1823.9 149.196 1821.91 150.377 Q1819.91 151.557 1819.91 154.405 Q1819.91 156.673 1821.4 158.016 Q1822.9 159.335 1825.47 159.335 Q1829.01 159.335 1831.14 156.835 Q1833.29 154.312 1833.29 150.145 L1833.29 149.196 L1829.06 149.196 M1837.55 147.437 L1837.55 162.229 L1833.29 162.229 L1833.29 158.293 Q1831.84 160.655 1829.66 161.789 Q1827.48 162.9 1824.34 162.9 Q1820.35 162.9 1817.99 160.678 Q1815.66 158.432 1815.66 154.682 Q1815.66 150.307 1818.57 148.085 Q1821.51 145.863 1827.32 145.863 L1833.29 145.863 L1833.29 145.446 Q1833.29 142.507 1831.35 140.909 Q1829.43 139.289 1825.93 139.289 Q1823.71 139.289 1821.6 139.821 Q1819.5 140.354 1817.55 141.419 L1817.55 137.483 Q1819.89 136.581 1822.09 136.141 Q1824.29 135.678 1826.37 135.678 Q1832 135.678 1834.78 138.594 Q1837.55 141.511 1837.55 147.437 Z" fill="#000000" fill-rule="nonzero" fill-opacity="1" /><path clip-path="url(#clip870)" d="M1862.85 137.067 L1862.85 141.094 Q1861.05 140.169 1859.1 139.706 Q1857.16 139.243 1855.08 139.243 Q1851.91 139.243 1850.31 140.215 Q1848.73 141.187 1848.73 143.131 Q1848.73 144.613 1849.87 145.469 Q1851 146.303 1854.43 147.067 L1855.89 147.391 Q1860.42 148.363 1862.32 150.145 Q1864.24 151.905 1864.24 155.076 Q1864.24 158.687 1861.37 160.793 Q1858.53 162.9 1853.53 162.9 Q1851.44 162.9 1849.17 162.483 Q1846.93 162.09 1844.43 161.28 L1844.43 156.881 Q1846.79 158.108 1849.08 158.733 Q1851.37 159.335 1853.62 159.335 Q1856.63 159.335 1858.25 158.317 Q1859.87 157.275 1859.87 155.4 Q1859.87 153.664 1858.69 152.738 Q1857.53 151.812 1853.57 150.956 L1852.09 150.608 Q1848.13 149.775 1846.37 148.062 Q1844.61 146.326 1844.61 143.317 Q1844.61 139.659 1847.21 137.669 Q1849.8 135.678 1854.57 135.678 Q1856.93 135.678 1859.01 136.025 Q1861.09 136.372 1862.85 137.067 Z" fill="#000000" fill-rule="nonzero" fill-opacity="1" /><path clip-path="url(#clip870)" d="M1887.55 137.067 L1887.55 141.094 Q1885.75 140.169 1883.8 139.706 Q1881.86 139.243 1879.78 139.243 Q1876.6 139.243 1875.01 140.215 Q1873.43 141.187 1873.43 143.131 Q1873.43 144.613 1874.57 145.469 Q1875.7 146.303 1879.13 147.067 L1880.59 147.391 Q1885.12 148.363 1887.02 150.145 Q1888.94 151.905 1888.94 155.076 Q1888.94 158.687 1886.07 160.793 Q1883.22 162.9 1878.22 162.9 Q1876.14 162.9 1873.87 162.483 Q1871.63 162.09 1869.13 161.28 L1869.13 156.881 Q1871.49 158.108 1873.78 158.733 Q1876.07 159.335 1878.32 159.335 Q1881.33 159.335 1882.95 158.317 Q1884.57 157.275 1884.57 155.4 Q1884.57 153.664 1883.39 152.738 Q1882.23 151.812 1878.27 150.956 L1876.79 150.608 Q1872.83 149.775 1871.07 148.062 Q1869.31 146.326 1869.31 143.317 Q1869.31 139.659 1871.91 137.669 Q1874.5 135.678 1879.27 135.678 Q1881.63 135.678 1883.71 136.025 Q1885.79 136.372 1887.55 137.067 Z" fill="#000000" fill-rule="nonzero" fill-opacity="1" /><path clip-path="url(#clip870)" d="M1896.33 156.349 L1901.21 156.349 L1901.21 162.229 L1896.33 162.229 L1896.33 156.349 Z" fill="#000000" fill-rule="nonzero" fill-opacity="1" /><path clip-path="url(#clip870)" d="M1927.32 137.067 L1927.32 141.094 Q1925.52 140.169 1923.57 139.706 Q1921.63 139.243 1919.54 139.243 Q1916.37 139.243 1914.78 140.215 Q1913.2 141.187 1913.2 143.131 Q1913.2 144.613 1914.34 145.469 Q1915.47 146.303 1918.9 147.067 L1920.35 147.391 Q1924.89 148.363 1926.79 150.145 Q1928.71 151.905 1928.71 155.076 Q1928.71 158.687 1925.84 160.793 Q1922.99 162.9 1917.99 162.9 Q1915.91 162.9 1913.64 162.483 Q1911.4 162.09 1908.9 161.28 L1908.9 156.881 Q1911.26 158.108 1913.55 158.733 Q1915.84 159.335 1918.09 159.335 Q1921.09 159.335 1922.71 158.317 Q1924.34 157.275 1924.34 155.4 Q1924.34 153.664 1923.15 152.738 Q1922 151.812 1918.04 150.956 L1916.56 150.608 Q1912.6 149.775 1910.84 148.062 Q1909.08 146.326 1909.08 143.317 Q1909.08 139.659 1911.67 137.669 Q1914.27 135.678 1919.03 135.678 Q1921.4 135.678 1923.48 136.025 Q1925.56 136.372 1927.32 137.067 Z" fill="#000000" fill-rule="nonzero" fill-opacity="1" /><path clip-path="url(#clip870)" d="M1960.79 126.257 Q1957.69 131.581 1956.19 136.789 Q1954.68 141.997 1954.68 147.344 Q1954.68 152.692 1956.19 157.946 Q1957.71 163.178 1960.79 168.479 L1957.09 168.479 Q1953.62 163.039 1951.88 157.784 Q1950.17 152.53 1950.17 147.344 Q1950.17 142.182 1951.88 136.951 Q1953.59 131.72 1957.09 126.257 L1960.79 126.257 Z" fill="#000000" fill-rule="nonzero" fill-opacity="1" /><path clip-path="url(#clip870)" d="M1983.83 143.594 Q1987.18 144.312 1989.06 146.581 Q1990.96 148.849 1990.96 152.182 Q1990.96 157.298 1987.44 160.099 Q1983.92 162.9 1977.44 162.9 Q1975.26 162.9 1972.95 162.46 Q1970.65 162.043 1968.2 161.187 L1968.2 156.673 Q1970.15 157.807 1972.46 158.386 Q1974.77 158.965 1977.3 158.965 Q1981.7 158.965 1983.99 157.229 Q1986.3 155.493 1986.3 152.182 Q1986.3 149.127 1984.15 147.414 Q1982.02 145.678 1978.2 145.678 L1974.17 145.678 L1974.17 141.835 L1978.39 141.835 Q1981.84 141.835 1983.66 140.469 Q1985.49 139.081 1985.49 136.488 Q1985.49 133.826 1983.59 132.414 Q1981.72 130.979 1978.2 130.979 Q1976.28 130.979 1974.08 131.395 Q1971.88 131.812 1969.24 132.692 L1969.24 128.525 Q1971.9 127.784 1974.22 127.414 Q1976.56 127.044 1978.62 127.044 Q1983.94 127.044 1987.04 129.474 Q1990.15 131.882 1990.15 136.002 Q1990.15 138.872 1988.5 140.863 Q1986.86 142.831 1983.83 143.594 Z" fill="#000000" fill-rule="nonzero" fill-opacity="1" /><path clip-path="url(#clip870)" d="M2013.99 143.594 Q2017.34 144.312 2019.22 146.581 Q2021.12 148.849 2021.12 152.182 Q2021.12 157.298 2017.6 160.099 Q2014.08 162.9 2007.6 162.9 Q2005.42 162.9 2003.11 162.46 Q2000.82 162.043 1998.36 161.187 L1998.36 156.673 Q2000.31 157.807 2002.62 158.386 Q2004.94 158.965 2007.46 158.965 Q2011.86 158.965 2014.15 157.229 Q2016.46 155.493 2016.46 152.182 Q2016.46 149.127 2014.31 147.414 Q2012.18 145.678 2008.36 145.678 L2004.33 145.678 L2004.33 141.835 L2008.55 141.835 Q2012 141.835 2013.83 140.469 Q2015.65 139.081 2015.65 136.488 Q2015.65 133.826 2013.76 132.414 Q2011.88 130.979 2008.36 130.979 Q2006.44 130.979 2004.24 131.395 Q2002.04 131.812 1999.4 132.692 L1999.4 128.525 Q2002.07 127.784 2004.38 127.414 Q2006.72 127.044 2008.78 127.044 Q2014.1 127.044 2017.21 129.474 Q2020.31 131.882 2020.31 136.002 Q2020.31 138.872 2018.66 140.863 Q2017.02 142.831 2013.99 143.594 Z" fill="#000000" fill-rule="nonzero" fill-opacity="1" /><path clip-path="url(#clip870)" d="M2030.03 127.669 L2048.39 127.669 L2048.39 131.604 L2034.31 131.604 L2034.31 140.076 Q2035.33 139.729 2036.35 139.567 Q2037.37 139.382 2038.39 139.382 Q2044.17 139.382 2047.55 142.553 Q2050.93 145.724 2050.93 151.141 Q2050.93 156.719 2047.46 159.821 Q2043.99 162.9 2037.67 162.9 Q2035.49 162.9 2033.22 162.53 Q2030.98 162.159 2028.57 161.418 L2028.57 156.719 Q2030.65 157.854 2032.88 158.409 Q2035.1 158.965 2037.58 158.965 Q2041.58 158.965 2043.92 156.858 Q2046.26 154.752 2046.26 151.141 Q2046.26 147.53 2043.92 145.423 Q2041.58 143.317 2037.58 143.317 Q2035.7 143.317 2033.83 143.733 Q2031.97 144.15 2030.03 145.03 L2030.03 127.669 Z" fill="#000000" fill-rule="nonzero" fill-opacity="1" /><path clip-path="url(#clip870)" d="M2060.19 127.669 L2078.55 127.669 L2078.55 131.604 L2064.47 131.604 L2064.47 140.076 Q2065.49 139.729 2066.51 139.567 Q2067.53 139.382 2068.55 139.382 Q2074.33 139.382 2077.71 142.553 Q2081.09 145.724 2081.09 151.141 Q2081.09 156.719 2077.62 159.821 Q2074.15 162.9 2067.83 162.9 Q2065.65 162.9 2063.39 162.53 Q2061.14 162.159 2058.73 161.418 L2058.73 156.719 Q2060.82 157.854 2063.04 158.409 Q2065.26 158.965 2067.74 158.965 Q2071.74 158.965 2074.08 156.858 Q2076.42 154.752 2076.42 151.141 Q2076.42 147.53 2074.08 145.423 Q2071.74 143.317 2067.74 143.317 Q2065.86 143.317 2063.99 143.733 Q2062.14 144.15 2060.19 145.03 L2060.19 127.669 Z" fill="#000000" fill-rule="nonzero" fill-opacity="1" /><path clip-path="url(#clip870)" d="M2103.15 131.743 L2091.35 150.192 L2103.15 150.192 L2103.15 131.743 M2101.93 127.669 L2107.81 127.669 L2107.81 150.192 L2112.74 150.192 L2112.74 154.081 L2107.81 154.081 L2107.81 162.229 L2103.15 162.229 L2103.15 154.081 L2087.55 154.081 L2087.55 149.567 L2101.93 127.669 Z" fill="#000000" fill-rule="nonzero" fill-opacity="1" /><path clip-path="url(#clip870)" d="M2133.32 131.743 L2121.51 150.192 L2133.32 150.192 L2133.32 131.743 M2132.09 127.669 L2137.97 127.669 L2137.97 150.192 L2142.9 150.192 L2142.9 154.081 L2137.97 154.081 L2137.97 162.229 L2133.32 162.229 L2133.32 154.081 L2117.71 154.081 L2117.71 149.567 L2132.09 127.669 Z" fill="#000000" fill-rule="nonzero" fill-opacity="1" /><path clip-path="url(#clip870)" d="M2164.8 143.594 Q2168.15 144.312 2170.03 146.581 Q2171.93 148.849 2171.93 152.182 Q2171.93 157.298 2168.41 160.099 Q2164.89 162.9 2158.41 162.9 Q2156.23 162.9 2153.92 162.46 Q2151.63 162.043 2149.17 161.187 L2149.17 156.673 Q2151.12 157.807 2153.43 158.386 Q2155.75 158.965 2158.27 158.965 Q2162.67 158.965 2164.96 157.229 Q2167.27 155.493 2167.27 152.182 Q2167.27 149.127 2165.12 147.414 Q2162.99 145.678 2159.17 145.678 L2155.14 145.678 L2155.14 141.835 L2159.36 141.835 Q2162.81 141.835 2164.63 140.469 Q2166.46 139.081 2166.46 136.488 Q2166.46 133.826 2164.57 132.414 Q2162.69 130.979 2159.17 130.979 Q2157.25 130.979 2155.05 131.395 Q2152.85 131.812 2150.21 132.692 L2150.21 128.525 Q2152.88 127.784 2155.19 127.414 Q2157.53 127.044 2159.59 127.044 Q2164.91 127.044 2168.01 129.474 Q2171.12 131.882 2171.12 136.002 Q2171.12 138.872 2169.47 140.863 Q2167.83 142.831 2164.8 143.594 Z" fill="#000000" fill-rule="nonzero" fill-opacity="1" /><path clip-path="url(#clip870)" d="M2184.82 158.293 L2201.14 158.293 L2201.14 162.229 L2179.2 162.229 L2179.2 158.293 Q2181.86 155.539 2186.44 150.909 Q2191.05 146.256 2192.23 144.914 Q2194.47 142.391 2195.35 140.655 Q2196.26 138.895 2196.26 137.206 Q2196.26 134.451 2194.31 132.715 Q2192.39 130.979 2189.29 130.979 Q2187.09 130.979 2184.63 131.743 Q2182.2 132.507 2179.43 134.057 L2179.43 129.335 Q2182.25 128.201 2184.7 127.622 Q2187.16 127.044 2189.2 127.044 Q2194.57 127.044 2197.76 129.729 Q2200.95 132.414 2200.95 136.905 Q2200.95 139.034 2200.14 140.956 Q2199.36 142.854 2197.25 145.446 Q2196.67 146.118 2193.57 149.335 Q2190.47 152.53 2184.82 158.293 Z" fill="#000000" fill-rule="nonzero" fill-opacity="1" /><path clip-path="url(#clip870)" d="M2209.68 126.257 L2213.38 126.257 Q2216.86 131.72 2218.57 136.951 Q2220.31 142.182 2220.31 147.344 Q2220.31 152.53 2218.57 157.784 Q2216.86 163.039 2213.38 168.479 L2209.68 168.479 Q2212.76 163.178 2214.26 157.946 Q2215.79 152.692 2215.79 147.344 Q2215.79 141.997 2214.26 136.789 Q2212.76 131.581 2209.68 126.257 Z" fill="#000000" fill-rule="nonzero" fill-opacity="1" /><polyline clip-path="url(#clip870)" style="stroke:#e26f46; stroke-linecap:round; stroke-linejoin:round; stroke-width:4; stroke-opacity:1; fill:none" points="1599.54,196.789 1746.45,196.789 "/>
<path clip-path="url(#clip870)" d="M1791.28 193.12 Q1792.88 190.249 1795.1 188.884 Q1797.32 187.518 1800.33 187.518 Q1804.38 187.518 1806.58 190.365 Q1808.78 193.189 1808.78 198.421 L1808.78 214.069 L1804.5 214.069 L1804.5 198.559 Q1804.5 194.833 1803.18 193.027 Q1801.86 191.222 1799.15 191.222 Q1795.84 191.222 1793.92 193.421 Q1792 195.62 1792 199.416 L1792 214.069 L1787.72 214.069 L1787.72 198.559 Q1787.72 194.809 1786.4 193.027 Q1785.08 191.222 1782.32 191.222 Q1779.06 191.222 1777.14 193.444 Q1775.22 195.643 1775.22 199.416 L1775.22 214.069 L1770.93 214.069 L1770.93 188.143 L1775.22 188.143 L1775.22 192.171 Q1776.67 189.786 1778.71 188.652 Q1780.75 187.518 1783.55 187.518 Q1786.37 187.518 1788.34 188.953 Q1790.33 190.388 1791.28 193.12 Z" fill="#000000" fill-rule="nonzero" fill-opacity="1" /><path clip-path="url(#clip870)" d="M1829.06 201.036 Q1823.9 201.036 1821.91 202.217 Q1819.91 203.397 1819.91 206.245 Q1819.91 208.513 1821.4 209.856 Q1822.9 211.175 1825.47 211.175 Q1829.01 211.175 1831.14 208.675 Q1833.29 206.152 1833.29 201.985 L1833.29 201.036 L1829.06 201.036 M1837.55 199.277 L1837.55 214.069 L1833.29 214.069 L1833.29 210.133 Q1831.84 212.495 1829.66 213.629 Q1827.48 214.74 1824.34 214.74 Q1820.35 214.74 1817.99 212.518 Q1815.66 210.272 1815.66 206.522 Q1815.66 202.147 1818.57 199.925 Q1821.51 197.703 1827.32 197.703 L1833.29 197.703 L1833.29 197.286 Q1833.29 194.347 1831.35 192.749 Q1829.43 191.129 1825.93 191.129 Q1823.71 191.129 1821.6 191.661 Q1819.5 192.194 1817.55 193.259 L1817.55 189.323 Q1819.89 188.421 1822.09 187.981 Q1824.29 187.518 1826.37 187.518 Q1832 187.518 1834.78 190.434 Q1837.55 193.351 1837.55 199.277 Z" fill="#000000" fill-rule="nonzero" fill-opacity="1" /><path clip-path="url(#clip870)" d="M1862.85 188.907 L1862.85 192.934 Q1861.05 192.009 1859.1 191.546 Q1857.16 191.083 1855.08 191.083 Q1851.91 191.083 1850.31 192.055 Q1848.73 193.027 1848.73 194.971 Q1848.73 196.453 1849.87 197.309 Q1851 198.143 1854.43 198.907 L1855.89 199.231 Q1860.42 200.203 1862.32 201.985 Q1864.24 203.745 1864.24 206.916 Q1864.24 210.527 1861.37 212.633 Q1858.53 214.74 1853.53 214.74 Q1851.44 214.74 1849.17 214.323 Q1846.93 213.93 1844.43 213.12 L1844.43 208.721 Q1846.79 209.948 1849.08 210.573 Q1851.37 211.175 1853.62 211.175 Q1856.63 211.175 1858.25 210.157 Q1859.87 209.115 1859.87 207.24 Q1859.87 205.504 1858.69 204.578 Q1857.53 203.652 1853.57 202.796 L1852.09 202.448 Q1848.13 201.615 1846.37 199.902 Q1844.61 198.166 1844.61 195.157 Q1844.61 191.499 1847.21 189.509 Q1849.8 187.518 1854.57 187.518 Q1856.93 187.518 1859.01 187.865 Q1861.09 188.212 1862.85 188.907 Z" fill="#000000" fill-rule="nonzero" fill-opacity="1" /><path clip-path="url(#clip870)" d="M1887.55 188.907 L1887.55 192.934 Q1885.75 192.009 1883.8 191.546 Q1881.86 191.083 1879.78 191.083 Q1876.6 191.083 1875.01 192.055 Q1873.43 193.027 1873.43 194.971 Q1873.43 196.453 1874.57 197.309 Q1875.7 198.143 1879.13 198.907 L1880.59 199.231 Q1885.12 200.203 1887.02 201.985 Q1888.94 203.745 1888.94 206.916 Q1888.94 210.527 1886.07 212.633 Q1883.22 214.74 1878.22 214.74 Q1876.14 214.74 1873.87 214.323 Q1871.63 213.93 1869.13 213.12 L1869.13 208.721 Q1871.49 209.948 1873.78 210.573 Q1876.07 211.175 1878.32 211.175 Q1881.33 211.175 1882.95 210.157 Q1884.57 209.115 1884.57 207.24 Q1884.57 205.504 1883.39 204.578 Q1882.23 203.652 1878.27 202.796 L1876.79 202.448 Q1872.83 201.615 1871.07 199.902 Q1869.31 198.166 1869.31 195.157 Q1869.31 191.499 1871.91 189.509 Q1874.5 187.518 1879.27 187.518 Q1881.63 187.518 1883.71 187.865 Q1885.79 188.212 1887.55 188.907 Z" fill="#000000" fill-rule="nonzero" fill-opacity="1" /><path clip-path="url(#clip870)" d="M1896.33 208.189 L1901.21 208.189 L1901.21 214.069 L1896.33 214.069 L1896.33 208.189 Z" fill="#000000" fill-rule="nonzero" fill-opacity="1" /><path clip-path="url(#clip870)" d="M1907.74 188.143 L1912.25 188.143 L1920.35 209.902 L1928.46 188.143 L1932.97 188.143 L1923.25 214.069 L1917.46 214.069 L1907.74 188.143 Z" fill="#000000" fill-rule="nonzero" fill-opacity="1" /><path clip-path="url(#clip870)" d="M1964.15 178.097 Q1961.05 183.421 1959.54 188.629 Q1958.04 193.837 1958.04 199.184 Q1958.04 204.532 1959.54 209.786 Q1961.07 215.018 1964.15 220.319 L1960.45 220.319 Q1956.97 214.879 1955.24 209.624 Q1953.52 204.37 1953.52 199.184 Q1953.52 194.022 1955.24 188.791 Q1956.95 183.56 1960.45 178.097 L1964.15 178.097 Z" fill="#000000" fill-rule="nonzero" fill-opacity="1" /><path clip-path="url(#clip870)" d="M1987.18 195.434 Q1990.54 196.152 1992.41 198.421 Q1994.31 200.689 1994.31 204.022 Q1994.31 209.138 1990.79 211.939 Q1987.27 214.74 1980.79 214.74 Q1978.62 214.74 1976.3 214.3 Q1974.01 213.883 1971.56 213.027 L1971.56 208.513 Q1973.5 209.647 1975.82 210.226 Q1978.13 210.805 1980.65 210.805 Q1985.05 210.805 1987.34 209.069 Q1989.66 207.333 1989.66 204.022 Q1989.66 200.967 1987.51 199.254 Q1985.38 197.518 1981.56 197.518 L1977.53 197.518 L1977.53 193.675 L1981.74 193.675 Q1985.19 193.675 1987.02 192.309 Q1988.85 190.921 1988.85 188.328 Q1988.85 185.666 1986.95 184.254 Q1985.08 182.819 1981.56 182.819 Q1979.64 182.819 1977.44 183.235 Q1975.24 183.652 1972.6 184.532 L1972.6 180.365 Q1975.26 179.624 1977.58 179.254 Q1979.91 178.884 1981.97 178.884 Q1987.3 178.884 1990.4 181.314 Q1993.5 183.722 1993.5 187.842 Q1993.5 190.712 1991.86 192.703 Q1990.21 194.671 1987.18 195.434 Z" fill="#000000" fill-rule="nonzero" fill-opacity="1" /><path clip-path="url(#clip870)" d="M2017.34 195.434 Q2020.7 196.152 2022.58 198.421 Q2024.47 200.689 2024.47 204.022 Q2024.47 209.138 2020.96 211.939 Q2017.44 214.74 2010.96 214.74 Q2008.78 214.74 2006.46 214.3 Q2004.17 213.883 2001.72 213.027 L2001.72 208.513 Q2003.66 209.647 2005.98 210.226 Q2008.29 210.805 2010.82 210.805 Q2015.21 210.805 2017.51 209.069 Q2019.82 207.333 2019.82 204.022 Q2019.82 200.967 2017.67 199.254 Q2015.54 197.518 2011.72 197.518 L2007.69 197.518 L2007.69 193.675 L2011.9 193.675 Q2015.35 193.675 2017.18 192.309 Q2019.01 190.921 2019.01 188.328 Q2019.01 185.666 2017.11 184.254 Q2015.24 182.819 2011.72 182.819 Q2009.8 182.819 2007.6 183.235 Q2005.4 183.652 2002.76 184.532 L2002.76 180.365 Q2005.42 179.624 2007.74 179.254 Q2010.08 178.884 2012.14 178.884 Q2017.46 178.884 2020.56 181.314 Q2023.66 183.722 2023.66 187.842 Q2023.66 190.712 2022.02 192.703 Q2020.38 194.671 2017.34 195.434 Z" fill="#000000" fill-rule="nonzero" fill-opacity="1" /><path clip-path="url(#clip870)" d="M2033.39 179.509 L2051.74 179.509 L2051.74 183.444 L2037.67 183.444 L2037.67 191.916 Q2038.69 191.569 2039.71 191.407 Q2040.72 191.222 2041.74 191.222 Q2047.53 191.222 2050.91 194.393 Q2054.29 197.564 2054.29 202.981 Q2054.29 208.559 2050.82 211.661 Q2047.34 214.74 2041.02 214.74 Q2038.85 214.74 2036.58 214.37 Q2034.33 213.999 2031.93 213.258 L2031.93 208.559 Q2034.01 209.694 2036.23 210.249 Q2038.46 210.805 2040.93 210.805 Q2044.94 210.805 2047.27 208.698 Q2049.61 206.592 2049.61 202.981 Q2049.61 199.37 2047.27 197.263 Q2044.94 195.157 2040.93 195.157 Q2039.06 195.157 2037.18 195.573 Q2035.33 195.99 2033.39 196.87 L2033.39 179.509 Z" fill="#000000" fill-rule="nonzero" fill-opacity="1" /><path clip-path="url(#clip870)" d="M2063.55 179.509 L2081.9 179.509 L2081.9 183.444 L2067.83 183.444 L2067.83 191.916 Q2068.85 191.569 2069.87 191.407 Q2070.89 191.222 2071.9 191.222 Q2077.69 191.222 2081.07 194.393 Q2084.45 197.564 2084.45 202.981 Q2084.45 208.559 2080.98 211.661 Q2077.51 214.74 2071.19 214.74 Q2069.01 214.74 2066.74 214.37 Q2064.5 213.999 2062.09 213.258 L2062.09 208.559 Q2064.17 209.694 2066.39 210.249 Q2068.62 210.805 2071.09 210.805 Q2075.1 210.805 2077.44 208.698 Q2079.77 206.592 2079.77 202.981 Q2079.77 199.37 2077.44 197.263 Q2075.1 195.157 2071.09 195.157 Q2069.22 195.157 2067.34 195.573 Q2065.49 195.99 2063.55 196.87 L2063.55 179.509 Z" fill="#000000" fill-rule="nonzero" fill-opacity="1" /><path clip-path="url(#clip870)" d="M2106.51 183.583 L2094.7 202.032 L2106.51 202.032 L2106.51 183.583 M2105.28 179.509 L2111.16 179.509 L2111.16 202.032 L2116.09 202.032 L2116.09 205.921 L2111.16 205.921 L2111.16 214.069 L2106.51 214.069 L2106.51 205.921 L2090.91 205.921 L2090.91 201.407 L2105.28 179.509 Z" fill="#000000" fill-rule="nonzero" fill-opacity="1" /><path clip-path="url(#clip870)" d="M2136.67 183.583 L2124.87 202.032 L2136.67 202.032 L2136.67 183.583 M2135.45 179.509 L2141.32 179.509 L2141.32 202.032 L2146.26 202.032 L2146.26 205.921 L2141.32 205.921 L2141.32 214.069 L2136.67 214.069 L2136.67 205.921 L2121.07 205.921 L2121.07 201.407 L2135.45 179.509 Z" fill="#000000" fill-rule="nonzero" fill-opacity="1" /><path clip-path="url(#clip870)" d="M2168.15 195.434 Q2171.51 196.152 2173.38 198.421 Q2175.28 200.689 2175.28 204.022 Q2175.28 209.138 2171.76 211.939 Q2168.25 214.74 2161.76 214.74 Q2159.59 214.74 2157.27 214.3 Q2154.98 213.883 2152.53 213.027 L2152.53 208.513 Q2154.47 209.647 2156.79 210.226 Q2159.1 210.805 2161.63 210.805 Q2166.02 210.805 2168.32 209.069 Q2170.63 207.333 2170.63 204.022 Q2170.63 200.967 2168.48 199.254 Q2166.35 197.518 2162.53 197.518 L2158.5 197.518 L2158.5 193.675 L2162.71 193.675 Q2166.16 193.675 2167.99 192.309 Q2169.82 190.921 2169.82 188.328 Q2169.82 185.666 2167.92 184.254 Q2166.05 182.819 2162.53 182.819 Q2160.61 182.819 2158.41 183.235 Q2156.21 183.652 2153.57 184.532 L2153.57 180.365 Q2156.23 179.624 2158.55 179.254 Q2160.88 178.884 2162.95 178.884 Q2168.27 178.884 2171.37 181.314 Q2174.47 183.722 2174.47 187.842 Q2174.47 190.712 2172.83 192.703 Q2171.19 194.671 2168.15 195.434 Z" fill="#000000" fill-rule="nonzero" fill-opacity="1" /><path clip-path="url(#clip870)" d="M2198.32 195.434 Q2201.67 196.152 2203.55 198.421 Q2205.44 200.689 2205.44 204.022 Q2205.44 209.138 2201.93 211.939 Q2198.41 214.74 2191.93 214.74 Q2189.75 214.74 2187.44 214.3 Q2185.14 213.883 2182.69 213.027 L2182.69 208.513 Q2184.63 209.647 2186.95 210.226 Q2189.26 210.805 2191.79 210.805 Q2196.19 210.805 2198.48 209.069 Q2200.79 207.333 2200.79 204.022 Q2200.79 200.967 2198.64 199.254 Q2196.51 197.518 2192.69 197.518 L2188.66 197.518 L2188.66 193.675 L2192.88 193.675 Q2196.32 193.675 2198.15 192.309 Q2199.98 190.921 2199.98 188.328 Q2199.98 185.666 2198.08 184.254 Q2196.21 182.819 2192.69 182.819 Q2190.77 182.819 2188.57 183.235 Q2186.37 183.652 2183.73 184.532 L2183.73 180.365 Q2186.39 179.624 2188.71 179.254 Q2191.05 178.884 2193.11 178.884 Q2198.43 178.884 2201.53 181.314 Q2204.63 183.722 2204.63 187.842 Q2204.63 190.712 2202.99 192.703 Q2201.35 194.671 2198.32 195.434 Z" fill="#000000" fill-rule="nonzero" fill-opacity="1" /><path clip-path="url(#clip870)" d="M2213.04 178.097 L2216.74 178.097 Q2220.21 183.56 2221.93 188.791 Q2223.66 194.022 2223.66 199.184 Q2223.66 204.37 2221.93 209.624 Q2220.21 214.879 2216.74 220.319 L2213.04 220.319 Q2216.12 215.018 2217.62 209.786 Q2219.15 204.532 2219.15 199.184 Q2219.15 193.837 2217.62 188.629 Q2216.12 183.421 2213.04 178.097 Z" fill="#000000" fill-rule="nonzero" fill-opacity="1" /><polyline clip-path="url(#clip870)" style="stroke:#3da44d; stroke-linecap:round; stroke-linejoin:round; stroke-width:4; stroke-opacity:1; fill:none" points="1599.54,248.629 1746.45,248.629 "/>
<path clip-path="url(#clip870)" d="M1791.28 244.96 Q1792.88 242.089 1795.1 240.724 Q1797.32 239.358 1800.33 239.358 Q1804.38 239.358 1806.58 242.205 Q1808.78 245.029 1808.78 250.261 L1808.78 265.909 L1804.5 265.909 L1804.5 250.399 Q1804.5 246.673 1803.18 244.867 Q1801.86 243.062 1799.15 243.062 Q1795.84 243.062 1793.92 245.261 Q1792 247.46 1792 251.256 L1792 265.909 L1787.72 265.909 L1787.72 250.399 Q1787.72 246.649 1786.4 244.867 Q1785.08 243.062 1782.32 243.062 Q1779.06 243.062 1777.14 245.284 Q1775.22 247.483 1775.22 251.256 L1775.22 265.909 L1770.93 265.909 L1770.93 239.983 L1775.22 239.983 L1775.22 244.011 Q1776.67 241.626 1778.71 240.492 Q1780.75 239.358 1783.55 239.358 Q1786.37 239.358 1788.34 240.793 Q1790.33 242.228 1791.28 244.96 Z" fill="#000000" fill-rule="nonzero" fill-opacity="1" /><path clip-path="url(#clip870)" d="M1829.06 252.876 Q1823.9 252.876 1821.91 254.057 Q1819.91 255.237 1819.91 258.085 Q1819.91 260.353 1821.4 261.696 Q1822.9 263.015 1825.47 263.015 Q1829.01 263.015 1831.14 260.515 Q1833.29 257.992 1833.29 253.825 L1833.29 252.876 L1829.06 252.876 M1837.55 251.117 L1837.55 265.909 L1833.29 265.909 L1833.29 261.973 Q1831.84 264.335 1829.66 265.469 Q1827.48 266.58 1824.34 266.58 Q1820.35 266.58 1817.99 264.358 Q1815.66 262.112 1815.66 258.362 Q1815.66 253.987 1818.57 251.765 Q1821.51 249.543 1827.32 249.543 L1833.29 249.543 L1833.29 249.126 Q1833.29 246.187 1831.35 244.589 Q1829.43 242.969 1825.93 242.969 Q1823.71 242.969 1821.6 243.501 Q1819.5 244.034 1817.55 245.099 L1817.55 241.163 Q1819.89 240.261 1822.09 239.821 Q1824.29 239.358 1826.37 239.358 Q1832 239.358 1834.78 242.274 Q1837.55 245.191 1837.55 251.117 Z" fill="#000000" fill-rule="nonzero" fill-opacity="1" /><path clip-path="url(#clip870)" d="M1862.85 240.747 L1862.85 244.774 Q1861.05 243.849 1859.1 243.386 Q1857.16 242.923 1855.08 242.923 Q1851.91 242.923 1850.31 243.895 Q1848.73 244.867 1848.73 246.811 Q1848.73 248.293 1849.87 249.149 Q1851 249.983 1854.43 250.747 L1855.89 251.071 Q1860.42 252.043 1862.32 253.825 Q1864.24 255.585 1864.24 258.756 Q1864.24 262.367 1861.37 264.473 Q1858.53 266.58 1853.53 266.58 Q1851.44 266.58 1849.17 266.163 Q1846.93 265.77 1844.43 264.96 L1844.43 260.561 Q1846.79 261.788 1849.08 262.413 Q1851.37 263.015 1853.62 263.015 Q1856.63 263.015 1858.25 261.997 Q1859.87 260.955 1859.87 259.08 Q1859.87 257.344 1858.69 256.418 Q1857.53 255.492 1853.57 254.636 L1852.09 254.288 Q1848.13 253.455 1846.37 251.742 Q1844.61 250.006 1844.61 246.997 Q1844.61 243.339 1847.21 241.349 Q1849.8 239.358 1854.57 239.358 Q1856.93 239.358 1859.01 239.705 Q1861.09 240.052 1862.85 240.747 Z" fill="#000000" fill-rule="nonzero" fill-opacity="1" /><path clip-path="url(#clip870)" d="M1887.55 240.747 L1887.55 244.774 Q1885.75 243.849 1883.8 243.386 Q1881.86 242.923 1879.78 242.923 Q1876.6 242.923 1875.01 243.895 Q1873.43 244.867 1873.43 246.811 Q1873.43 248.293 1874.57 249.149 Q1875.7 249.983 1879.13 250.747 L1880.59 251.071 Q1885.12 252.043 1887.02 253.825 Q1888.94 255.585 1888.94 258.756 Q1888.94 262.367 1886.07 264.473 Q1883.22 266.58 1878.22 266.58 Q1876.14 266.58 1873.87 266.163 Q1871.63 265.77 1869.13 264.96 L1869.13 260.561 Q1871.49 261.788 1873.78 262.413 Q1876.07 263.015 1878.32 263.015 Q1881.33 263.015 1882.95 261.997 Q1884.57 260.955 1884.57 259.08 Q1884.57 257.344 1883.39 256.418 Q1882.23 255.492 1878.27 254.636 L1876.79 254.288 Q1872.83 253.455 1871.07 251.742 Q1869.31 250.006 1869.31 246.997 Q1869.31 243.339 1871.91 241.349 Q1874.5 239.358 1879.27 239.358 Q1881.63 239.358 1883.71 239.705 Q1885.79 240.052 1887.55 240.747 Z" fill="#000000" fill-rule="nonzero" fill-opacity="1" /><path clip-path="url(#clip870)" d="M1896.33 260.029 L1901.21 260.029 L1901.21 265.909 L1896.33 265.909 L1896.33 260.029 Z" fill="#000000" fill-rule="nonzero" fill-opacity="1" /><path clip-path="url(#clip870)" d="M1922.58 252.876 Q1917.41 252.876 1915.42 254.057 Q1913.43 255.237 1913.43 258.085 Q1913.43 260.353 1914.91 261.696 Q1916.42 263.015 1918.99 263.015 Q1922.53 263.015 1924.66 260.515 Q1926.81 257.992 1926.81 253.825 L1926.81 252.876 L1922.58 252.876 M1931.07 251.117 L1931.07 265.909 L1926.81 265.909 L1926.81 261.973 Q1925.35 264.335 1923.18 265.469 Q1921 266.58 1917.85 266.58 Q1913.87 266.58 1911.51 264.358 Q1909.17 262.112 1909.17 258.362 Q1909.17 253.987 1912.09 251.765 Q1915.03 249.543 1920.84 249.543 L1926.81 249.543 L1926.81 249.126 Q1926.81 246.187 1924.87 244.589 Q1922.95 242.969 1919.45 242.969 Q1917.23 242.969 1915.12 243.501 Q1913.02 244.034 1911.07 245.099 L1911.07 241.163 Q1913.41 240.261 1915.61 239.821 Q1917.81 239.358 1919.89 239.358 Q1925.52 239.358 1928.29 242.274 Q1931.07 245.191 1931.07 251.117 Z" fill="#000000" fill-rule="nonzero" fill-opacity="1" /><path clip-path="url(#clip870)" d="M1965.15 229.937 Q1962.04 235.261 1960.54 240.469 Q1959.03 245.677 1959.03 251.024 Q1959.03 256.372 1960.54 261.626 Q1962.07 266.858 1965.15 272.159 L1961.44 272.159 Q1957.97 266.719 1956.23 261.464 Q1954.52 256.21 1954.52 251.024 Q1954.52 245.862 1956.23 240.631 Q1957.95 235.4 1961.44 229.937 L1965.15 229.937 Z" fill="#000000" fill-rule="nonzero" fill-opacity="1" /><path clip-path="url(#clip870)" d="M1974.06 231.349 L1992.41 231.349 L1992.41 235.284 L1978.34 235.284 L1978.34 243.756 Q1979.36 243.409 1980.38 243.247 Q1981.4 243.062 1982.41 243.062 Q1988.2 243.062 1991.58 246.233 Q1994.96 249.404 1994.96 254.821 Q1994.96 260.399 1991.49 263.501 Q1988.02 266.58 1981.7 266.58 Q1979.52 266.58 1977.25 266.21 Q1975.01 265.839 1972.6 265.098 L1972.6 260.399 Q1974.68 261.534 1976.9 262.089 Q1979.13 262.645 1981.6 262.645 Q1985.61 262.645 1987.95 260.538 Q1990.28 258.432 1990.28 254.821 Q1990.28 251.21 1987.95 249.103 Q1985.61 246.997 1981.6 246.997 Q1979.73 246.997 1977.85 247.413 Q1976 247.83 1974.06 248.71 L1974.06 231.349 Z" fill="#000000" fill-rule="nonzero" fill-opacity="1" /><path clip-path="url(#clip870)" d="M2014.17 249.497 Q2010.84 249.497 2008.92 251.279 Q2007.02 253.061 2007.02 256.186 Q2007.02 259.311 2008.92 261.094 Q2010.84 262.876 2014.17 262.876 Q2017.51 262.876 2019.43 261.094 Q2021.35 259.288 2021.35 256.186 Q2021.35 253.061 2019.43 251.279 Q2017.53 249.497 2014.17 249.497 M2009.5 247.506 Q2006.49 246.765 2004.8 244.705 Q2003.13 242.645 2003.13 239.682 Q2003.13 235.538 2006.07 233.131 Q2009.03 230.724 2014.17 230.724 Q2019.33 230.724 2022.27 233.131 Q2025.21 235.538 2025.21 239.682 Q2025.21 242.645 2023.52 244.705 Q2021.86 246.765 2018.87 247.506 Q2022.25 248.293 2024.13 250.585 Q2026.02 252.876 2026.02 256.186 Q2026.02 261.21 2022.95 263.895 Q2019.89 266.58 2014.17 266.58 Q2008.46 266.58 2005.38 263.895 Q2002.32 261.21 2002.32 256.186 Q2002.32 252.876 2004.22 250.585 Q2006.12 248.293 2009.5 247.506 M2007.78 240.122 Q2007.78 242.807 2009.45 244.312 Q2011.14 245.816 2014.17 245.816 Q2017.18 245.816 2018.87 244.312 Q2020.58 242.807 2020.58 240.122 Q2020.58 237.437 2018.87 235.932 Q2017.18 234.427 2014.17 234.427 Q2011.14 234.427 2009.45 235.932 Q2007.78 237.437 2007.78 240.122 Z" fill="#000000" fill-rule="nonzero" fill-opacity="1" /><path clip-path="url(#clip870)" d="M2033.15 231.349 L2055.38 231.349 L2055.38 233.339 L2042.83 265.909 L2037.95 265.909 L2049.75 235.284 L2033.15 235.284 L2033.15 231.349 Z" fill="#000000" fill-rule="nonzero" fill-opacity="1" /><path clip-path="url(#clip870)" d="M2068.52 261.973 L2084.84 261.973 L2084.84 265.909 L2062.9 265.909 L2062.9 261.973 Q2065.56 259.219 2070.14 254.589 Q2074.75 249.936 2075.93 248.594 Q2078.18 246.071 2079.06 244.335 Q2079.96 242.575 2079.96 240.886 Q2079.96 238.131 2078.02 236.395 Q2076.09 234.659 2072.99 234.659 Q2070.79 234.659 2068.34 235.423 Q2065.91 236.187 2063.13 237.737 L2063.13 233.015 Q2065.95 231.881 2068.41 231.302 Q2070.86 230.724 2072.9 230.724 Q2078.27 230.724 2081.46 233.409 Q2084.66 236.094 2084.66 240.585 Q2084.66 242.714 2083.85 244.636 Q2083.06 246.534 2080.95 249.126 Q2080.38 249.798 2077.27 253.015 Q2074.17 256.21 2068.52 261.973 Z" fill="#000000" fill-rule="nonzero" fill-opacity="1" /><path clip-path="url(#clip870)" d="M2104.66 234.427 Q2101.05 234.427 2099.22 237.992 Q2097.41 241.534 2097.41 248.663 Q2097.41 255.77 2099.22 259.335 Q2101.05 262.876 2104.66 262.876 Q2108.29 262.876 2110.1 259.335 Q2111.93 255.77 2111.93 248.663 Q2111.93 241.534 2110.1 237.992 Q2108.29 234.427 2104.66 234.427 M2104.66 230.724 Q2110.47 230.724 2113.52 235.33 Q2116.6 239.913 2116.6 248.663 Q2116.6 257.39 2113.52 261.997 Q2110.47 266.58 2104.66 266.58 Q2098.85 266.58 2095.77 261.997 Q2092.71 257.39 2092.71 248.663 Q2092.71 239.913 2095.77 235.33 Q2098.85 230.724 2104.66 230.724 Z" fill="#000000" fill-rule="nonzero" fill-opacity="1" /><path clip-path="url(#clip870)" d="M2128.85 261.973 L2145.17 261.973 L2145.17 265.909 L2123.22 265.909 L2123.22 261.973 Q2125.89 259.219 2130.47 254.589 Q2135.07 249.936 2136.26 248.594 Q2138.5 246.071 2139.38 244.335 Q2140.28 242.575 2140.28 240.886 Q2140.28 238.131 2138.34 236.395 Q2136.42 234.659 2133.32 234.659 Q2131.12 234.659 2128.66 235.423 Q2126.23 236.187 2123.45 237.737 L2123.45 233.015 Q2126.28 231.881 2128.73 231.302 Q2131.19 230.724 2133.22 230.724 Q2138.59 230.724 2141.79 233.409 Q2144.98 236.094 2144.98 240.585 Q2144.98 242.714 2144.17 244.636 Q2143.39 246.534 2141.28 249.126 Q2140.7 249.798 2137.6 253.015 Q2134.5 256.21 2128.85 261.973 Z" fill="#000000" fill-rule="nonzero" fill-opacity="1" /><path clip-path="url(#clip870)" d="M2155.03 231.349 L2173.38 231.349 L2173.38 235.284 L2159.31 235.284 L2159.31 243.756 Q2160.33 243.409 2161.35 243.247 Q2162.37 243.062 2163.38 243.062 Q2169.17 243.062 2172.55 246.233 Q2175.93 249.404 2175.93 254.821 Q2175.93 260.399 2172.46 263.501 Q2168.99 266.58 2162.67 266.58 Q2160.49 266.58 2158.22 266.21 Q2155.98 265.839 2153.57 265.098 L2153.57 260.399 Q2155.65 261.534 2157.88 262.089 Q2160.1 262.645 2162.57 262.645 Q2166.58 262.645 2168.92 260.538 Q2171.26 258.432 2171.26 254.821 Q2171.26 251.21 2168.92 249.103 Q2166.58 246.997 2162.57 246.997 Q2160.7 246.997 2158.82 247.413 Q2156.97 247.83 2155.03 248.71 L2155.03 231.349 Z" fill="#000000" fill-rule="nonzero" fill-opacity="1" /><path clip-path="url(#clip870)" d="M2195.72 246.765 Q2192.57 246.765 2190.72 248.918 Q2188.89 251.071 2188.89 254.821 Q2188.89 258.548 2190.72 260.723 Q2192.57 262.876 2195.72 262.876 Q2198.87 262.876 2200.7 260.723 Q2202.55 258.548 2202.55 254.821 Q2202.55 251.071 2200.7 248.918 Q2198.87 246.765 2195.72 246.765 M2205.01 232.113 L2205.01 236.372 Q2203.25 235.538 2201.44 235.099 Q2199.66 234.659 2197.9 234.659 Q2193.27 234.659 2190.82 237.784 Q2188.38 240.909 2188.04 247.228 Q2189.4 245.214 2191.46 244.149 Q2193.52 243.062 2196 243.062 Q2201.21 243.062 2204.22 246.233 Q2207.25 249.381 2207.25 254.821 Q2207.25 260.145 2204.1 263.362 Q2200.95 266.58 2195.72 266.58 Q2189.73 266.58 2186.56 261.997 Q2183.38 257.39 2183.38 248.663 Q2183.38 240.469 2187.27 235.608 Q2191.16 230.724 2197.71 230.724 Q2199.47 230.724 2201.26 231.071 Q2203.06 231.418 2205.01 232.113 Z" fill="#000000" fill-rule="nonzero" fill-opacity="1" /><path clip-path="url(#clip870)" d="M2216.12 261.973 L2223.76 261.973 L2223.76 235.608 L2215.44 237.275 L2215.44 233.015 L2223.71 231.349 L2228.38 231.349 L2228.38 261.973 L2236.02 261.973 L2236.02 265.909 L2216.12 265.909 L2216.12 261.973 Z" fill="#000000" fill-rule="nonzero" fill-opacity="1" /><path clip-path="url(#clip870)" d="M2244.19 229.937 L2247.9 229.937 Q2251.37 235.4 2253.08 240.631 Q2254.82 245.862 2254.82 251.024 Q2254.82 256.21 2253.08 261.464 Q2251.37 266.719 2247.9 272.159 L2244.19 272.159 Q2247.27 266.858 2248.78 261.626 Q2250.31 256.372 2250.31 251.024 Q2250.31 245.677 2248.78 240.469 Q2247.27 235.261 2244.19 229.937 Z" fill="#000000" fill-rule="nonzero" fill-opacity="1" /></svg>
