<?xml version="1.0" encoding="utf-8"?>
<svg xmlns="http://www.w3.org/2000/svg" xmlns:xlink="http://www.w3.org/1999/xlink" width="600" height="400" viewBox="0 0 2400 1600">
<defs>
  <clipPath id="clip150">
    <rect x="0" y="0" width="2400" height="1600"/>
  </clipPath>
</defs>
<path clip-path="url(#clip150)" d="M0 1600 L2400 1600 L2400 0 L0 0  Z" fill="#ffffff" fill-rule="evenodd" fill-opacity="1"/>
<defs>
  <clipPath id="clip151">
    <rect x="480" y="0" width="1681" height="1600"/>
  </clipPath>
</defs>
<path clip-path="url(#clip150)" d="M303.503 1401.58 L2352.76 1401.58 L2352.76 123.472 L303.503 123.472  Z" fill="#ffffff" fill-rule="evenodd" fill-opacity="1"/>
<defs>
  <clipPath id="clip152">
    <rect x="303" y="123" width="2050" height="1279"/>
  </clipPath>
</defs>
<polyline clip-path="url(#clip152)" style="stroke:#000000; stroke-linecap:round; stroke-linejoin:round; stroke-width:2; stroke-opacity:0.1; fill:none" points="361.501,1401.58 361.501,123.472 "/>
<polyline clip-path="url(#clip152)" style="stroke:#000000; stroke-linecap:round; stroke-linejoin:round; stroke-width:2; stroke-opacity:0.1; fill:none" points="844.815,1401.58 844.815,123.472 "/>
<polyline clip-path="url(#clip152)" style="stroke:#000000; stroke-linecap:round; stroke-linejoin:round; stroke-width:2; stroke-opacity:0.1; fill:none" points="1328.13,1401.58 1328.13,123.472 "/>
<polyline clip-path="url(#clip152)" style="stroke:#000000; stroke-linecap:round; stroke-linejoin:round; stroke-width:2; stroke-opacity:0.1; fill:none" points="1811.44,1401.58 1811.44,123.472 "/>
<polyline clip-path="url(#clip152)" style="stroke:#000000; stroke-linecap:round; stroke-linejoin:round; stroke-width:2; stroke-opacity:0.1; fill:none" points="2294.76,1401.58 2294.76,123.472 "/>
<polyline clip-path="url(#clip150)" style="stroke:#000000; stroke-linecap:round; stroke-linejoin:round; stroke-width:4; stroke-opacity:1; fill:none" points="303.503,1401.58 2352.76,1401.58 "/>
<polyline clip-path="url(#clip150)" style="stroke:#000000; stroke-linecap:round; stroke-linejoin:round; stroke-width:4; stroke-opacity:1; fill:none" points="361.501,1401.58 361.501,1382.68 "/>
<polyline clip-path="url(#clip150)" style="stroke:#000000; stroke-linecap:round; stroke-linejoin:round; stroke-width:4; stroke-opacity:1; fill:none" points="844.815,1401.58 844.815,1382.68 "/>
<polyline clip-path="url(#clip150)" style="stroke:#000000; stroke-linecap:round; stroke-linejoin:round; stroke-width:4; stroke-opacity:1; fill:none" points="1328.13,1401.58 1328.13,1382.68 "/>
<polyline clip-path="url(#clip150)" style="stroke:#000000; stroke-linecap:round; stroke-linejoin:round; stroke-width:4; stroke-opacity:1; fill:none" points="1811.44,1401.58 1811.44,1382.68 "/>
<polyline clip-path="url(#clip150)" style="stroke:#000000; stroke-linecap:round; stroke-linejoin:round; stroke-width:4; stroke-opacity:1; fill:none" points="2294.76,1401.58 2294.76,1382.68 "/>
<path clip-path="url(#clip150)" d="M361.501 1438.36 Q356.084 1438.36 353.341 1443.71 Q350.633 1449.02 350.633 1459.71 Q350.633 1470.37 353.341 1475.72 Q356.084 1481.03 361.501 1481.03 Q366.952 1481.03 369.66 1475.72 Q372.403 1470.37 372.403 1459.71 Q372.403 1449.02 369.66 1443.71 Q366.952 1438.36 361.501 1438.36 M361.501 1432.8 Q370.216 1432.8 374.799 1439.71 Q379.417 1446.59 379.417 1459.71 Q379.417 1472.8 374.799 1479.71 Q370.216 1486.59 361.501 1486.59 Q352.785 1486.59 348.167 1479.71 Q343.584 1472.8 343.584 1459.71 Q343.584 1446.59 348.167 1439.71 Q352.785 1432.8 361.501 1432.8 Z" fill="#000000" fill-rule="nonzero" fill-opacity="1" /><path clip-path="url(#clip150)" d="M830.388 1479.68 L841.846 1479.68 L841.846 1440.13 L829.381 1442.63 L829.381 1436.24 L841.777 1433.74 L848.791 1433.74 L848.791 1479.68 L860.249 1479.68 L860.249 1485.58 L830.388 1485.58 L830.388 1479.68 Z" fill="#000000" fill-rule="nonzero" fill-opacity="1" /><path clip-path="url(#clip150)" d="M1320.11 1479.68 L1344.59 1479.68 L1344.59 1485.58 L1311.67 1485.58 L1311.67 1479.68 Q1315.66 1475.55 1322.54 1468.6 Q1329.45 1461.62 1331.22 1459.61 Q1334.59 1455.82 1335.91 1453.22 Q1337.26 1450.58 1337.26 1448.05 Q1337.26 1443.91 1334.34 1441.31 Q1331.46 1438.71 1326.81 1438.71 Q1323.51 1438.71 1319.83 1439.85 Q1316.19 1441 1312.02 1443.32 L1312.02 1436.24 Q1316.25 1434.54 1319.94 1433.67 Q1323.62 1432.8 1326.67 1432.8 Q1334.73 1432.8 1339.52 1436.83 Q1344.31 1440.86 1344.31 1447.59 Q1344.31 1450.79 1343.09 1453.67 Q1341.91 1456.52 1338.75 1460.41 Q1337.89 1461.41 1333.23 1466.24 Q1328.58 1471.03 1320.11 1479.68 Z" fill="#000000" fill-rule="nonzero" fill-opacity="1" /><path clip-path="url(#clip150)" d="M1817.82 1457.63 Q1822.85 1458.7 1825.66 1462.11 Q1828.51 1465.51 1828.51 1470.51 Q1828.51 1478.18 1823.23 1482.39 Q1817.95 1486.59 1808.23 1486.59 Q1804.97 1486.59 1801.5 1485.93 Q1798.06 1485.3 1794.38 1484.02 L1794.38 1477.25 Q1797.29 1478.95 1800.77 1479.82 Q1804.24 1480.68 1808.02 1480.68 Q1814.62 1480.68 1818.06 1478.08 Q1821.53 1475.48 1821.53 1470.51 Q1821.53 1465.93 1818.3 1463.36 Q1815.11 1460.75 1809.38 1460.75 L1803.34 1460.75 L1803.34 1454.99 L1809.66 1454.99 Q1814.83 1454.99 1817.57 1452.94 Q1820.32 1450.86 1820.32 1446.97 Q1820.32 1442.98 1817.47 1440.86 Q1814.66 1438.71 1809.38 1438.71 Q1806.5 1438.71 1803.2 1439.33 Q1799.9 1439.96 1795.94 1441.27 L1795.94 1435.02 Q1799.93 1433.91 1803.41 1433.36 Q1806.91 1432.8 1810 1432.8 Q1817.99 1432.8 1822.64 1436.45 Q1827.29 1440.06 1827.29 1446.24 Q1827.29 1450.55 1824.83 1453.53 Q1822.36 1456.48 1817.82 1457.63 Z" fill="#000000" fill-rule="nonzero" fill-opacity="1" /><path clip-path="url(#clip150)" d="M2299.27 1439.85 L2281.56 1467.52 L2299.27 1467.52 L2299.27 1439.85 M2297.43 1433.74 L2306.25 1433.74 L2306.25 1467.52 L2313.65 1467.52 L2313.65 1473.36 L2306.25 1473.36 L2306.25 1485.58 L2299.27 1485.58 L2299.27 1473.36 L2275.87 1473.36 L2275.87 1466.59 L2297.43 1433.74 Z" fill="#000000" fill-rule="nonzero" fill-opacity="1" /><path clip-path="url(#clip150)" d="M1271.74 1527.62 L1271.74 1538.66 L1284.9 1538.66 L1284.9 1543.62 L1271.74 1543.62 L1271.74 1564.74 Q1271.74 1569.49 1273.03 1570.85 Q1274.35 1572.2 1278.34 1572.2 L1284.9 1572.2 L1284.9 1577.55 L1278.34 1577.55 Q1270.94 1577.55 1268.13 1574.8 Q1265.32 1572.03 1265.32 1564.74 L1265.32 1543.62 L1260.63 1543.62 L1260.63 1538.66 L1265.32 1538.66 L1265.32 1527.62 L1271.74 1527.62 Z" fill="#000000" fill-rule="nonzero" fill-opacity="1" /><path clip-path="url(#clip150)" d="M1315.32 1523.52 L1330.04 1523.52 L1330.04 1528.49 L1321.71 1528.49 L1321.71 1581.96 L1330.04 1581.96 L1330.04 1586.92 L1315.32 1586.92 L1315.32 1523.52 Z" fill="#000000" fill-rule="nonzero" fill-opacity="1" /><path clip-path="url(#clip150)" d="M1368.44 1539.8 L1368.44 1545.85 Q1365.73 1544.46 1362.82 1543.76 Q1359.9 1543.07 1356.78 1543.07 Q1352.02 1543.07 1349.62 1544.53 Q1347.26 1545.99 1347.26 1548.9 Q1347.26 1551.12 1348.96 1552.41 Q1350.66 1553.66 1355.8 1554.8 L1357.99 1555.29 Q1364.8 1556.75 1367.64 1559.42 Q1370.53 1562.06 1370.53 1566.82 Q1370.53 1572.24 1366.22 1575.4 Q1361.95 1578.55 1354.45 1578.55 Q1351.32 1578.55 1347.92 1577.93 Q1344.55 1577.34 1340.8 1576.12 L1340.8 1569.53 Q1344.34 1571.37 1347.78 1572.3 Q1351.22 1573.21 1354.59 1573.21 Q1359.1 1573.21 1361.53 1571.68 Q1363.96 1570.12 1363.96 1567.3 Q1363.96 1564.7 1362.19 1563.31 Q1360.46 1561.92 1354.52 1560.64 L1352.3 1560.12 Q1346.36 1558.87 1343.72 1556.3 Q1341.08 1553.69 1341.08 1549.18 Q1341.08 1543.69 1344.97 1540.71 Q1348.86 1537.72 1356.01 1537.72 Q1359.55 1537.72 1362.68 1538.24 Q1365.8 1538.76 1368.44 1539.8 Z" fill="#000000" fill-rule="nonzero" fill-opacity="1" /><path clip-path="url(#clip150)" d="M1395.63 1523.52 L1395.63 1586.92 L1380.91 1586.92 L1380.91 1581.96 L1389.21 1581.96 L1389.21 1528.49 L1380.91 1528.49 L1380.91 1523.52 L1395.63 1523.52 Z" fill="#000000" fill-rule="nonzero" fill-opacity="1" /><polyline clip-path="url(#clip152)" style="stroke:#000000; stroke-linecap:round; stroke-linejoin:round; stroke-width:2; stroke-opacity:0.1; fill:none" points="303.503,1398.78 2352.76,1398.78 "/>
<polyline clip-path="url(#clip152)" style="stroke:#000000; stroke-linecap:round; stroke-linejoin:round; stroke-width:2; stroke-opacity:0.1; fill:none" points="303.503,1113.25 2352.76,1113.25 "/>
<polyline clip-path="url(#clip152)" style="stroke:#000000; stroke-linecap:round; stroke-linejoin:round; stroke-width:2; stroke-opacity:0.1; fill:none" points="303.503,827.721 2352.76,827.721 "/>
<polyline clip-path="url(#clip152)" style="stroke:#000000; stroke-linecap:round; stroke-linejoin:round; stroke-width:2; stroke-opacity:0.1; fill:none" points="303.503,542.189 2352.76,542.189 "/>
<polyline clip-path="url(#clip152)" style="stroke:#000000; stroke-linecap:round; stroke-linejoin:round; stroke-width:2; stroke-opacity:0.1; fill:none" points="303.503,256.657 2352.76,256.657 "/>
<polyline clip-path="url(#clip150)" style="stroke:#000000; stroke-linecap:round; stroke-linejoin:round; stroke-width:4; stroke-opacity:1; fill:none" points="303.503,1401.58 303.503,123.472 "/>
<polyline clip-path="url(#clip150)" style="stroke:#000000; stroke-linecap:round; stroke-linejoin:round; stroke-width:4; stroke-opacity:1; fill:none" points="303.503,1398.78 322.401,1398.78 "/>
<polyline clip-path="url(#clip150)" style="stroke:#000000; stroke-linecap:round; stroke-linejoin:round; stroke-width:4; stroke-opacity:1; fill:none" points="303.503,1113.25 322.401,1113.25 "/>
<polyline clip-path="url(#clip150)" style="stroke:#000000; stroke-linecap:round; stroke-linejoin:round; stroke-width:4; stroke-opacity:1; fill:none" points="303.503,827.721 322.401,827.721 "/>
<polyline clip-path="url(#clip150)" style="stroke:#000000; stroke-linecap:round; stroke-linejoin:round; stroke-width:4; stroke-opacity:1; fill:none" points="303.503,542.189 322.401,542.189 "/>
<polyline clip-path="url(#clip150)" style="stroke:#000000; stroke-linecap:round; stroke-linejoin:round; stroke-width:4; stroke-opacity:1; fill:none" points="303.503,256.657 322.401,256.657 "/>
<path clip-path="url(#clip150)" d="M136.497 1377.48 Q131.08 1377.48 128.337 1382.83 Q125.629 1388.14 125.629 1398.84 Q125.629 1409.5 128.337 1414.84 Q131.08 1420.16 136.497 1420.16 Q141.948 1420.16 144.656 1414.84 Q147.399 1409.5 147.399 1398.84 Q147.399 1388.14 144.656 1382.83 Q141.948 1377.48 136.497 1377.48 M136.497 1371.93 Q145.212 1371.93 149.795 1378.84 Q154.413 1385.71 154.413 1398.84 Q154.413 1411.93 149.795 1418.84 Q145.212 1425.71 136.497 1425.71 Q127.781 1425.71 123.163 1418.84 Q118.58 1411.93 118.58 1398.84 Q118.58 1385.71 123.163 1378.84 Q127.781 1371.93 136.497 1371.93 Z" fill="#000000" fill-rule="nonzero" fill-opacity="1" /><path clip-path="url(#clip150)" d="M166.74 1415.88 L174.066 1415.88 L174.066 1424.7 L166.74 1424.7 L166.74 1415.88 Z" fill="#000000" fill-rule="nonzero" fill-opacity="1" /><path clip-path="url(#clip150)" d="M189.413 1372.86 L216.948 1372.86 L216.948 1378.77 L195.837 1378.77 L195.837 1391.48 Q197.364 1390.95 198.892 1390.71 Q200.42 1390.43 201.948 1390.43 Q210.628 1390.43 215.698 1395.19 Q220.767 1399.95 220.767 1408.07 Q220.767 1416.44 215.559 1421.09 Q210.35 1425.71 200.871 1425.71 Q197.608 1425.71 194.205 1425.16 Q190.837 1424.6 187.226 1423.49 L187.226 1416.44 Q190.351 1418.14 193.684 1418.98 Q197.017 1419.81 200.732 1419.81 Q206.739 1419.81 210.246 1416.65 Q213.753 1413.49 213.753 1408.07 Q213.753 1402.66 210.246 1399.5 Q206.739 1396.34 200.732 1396.34 Q197.92 1396.34 195.108 1396.96 Q192.33 1397.59 189.413 1398.91 L189.413 1372.86 Z" fill="#000000" fill-rule="nonzero" fill-opacity="1" /><path clip-path="url(#clip150)" d="M249.586 1377.48 Q244.17 1377.48 241.427 1382.83 Q238.718 1388.14 238.718 1398.84 Q238.718 1409.5 241.427 1414.84 Q244.17 1420.16 249.586 1420.16 Q255.038 1420.16 257.746 1414.84 Q260.489 1409.5 260.489 1398.84 Q260.489 1388.14 257.746 1382.83 Q255.038 1377.48 249.586 1377.48 M249.586 1371.93 Q258.302 1371.93 262.885 1378.84 Q267.503 1385.71 267.503 1398.84 Q267.503 1411.93 262.885 1418.84 Q258.302 1425.71 249.586 1425.71 Q240.871 1425.71 236.253 1418.84 Q231.67 1411.93 231.67 1398.84 Q231.67 1385.71 236.253 1378.84 Q240.871 1371.93 249.586 1371.93 Z" fill="#000000" fill-rule="nonzero" fill-opacity="1" /><path clip-path="url(#clip150)" d="M137.99 1091.95 Q132.573 1091.95 129.83 1097.3 Q127.122 1102.61 127.122 1113.3 Q127.122 1123.96 129.83 1129.31 Q132.573 1134.62 137.99 1134.62 Q143.441 1134.62 146.149 1129.31 Q148.892 1123.96 148.892 1113.3 Q148.892 1102.61 146.149 1097.3 Q143.441 1091.95 137.99 1091.95 M137.99 1086.4 Q146.705 1086.4 151.288 1093.3 Q155.906 1100.18 155.906 1113.3 Q155.906 1126.39 151.288 1133.3 Q146.705 1140.18 137.99 1140.18 Q129.275 1140.18 124.657 1133.3 Q120.073 1126.39 120.073 1113.3 Q120.073 1100.18 124.657 1093.3 Q129.275 1086.4 137.99 1086.4 Z" fill="#000000" fill-rule="nonzero" fill-opacity="1" /><path clip-path="url(#clip150)" d="M168.233 1130.35 L175.559 1130.35 L175.559 1139.17 L168.233 1139.17 L168.233 1130.35 Z" fill="#000000" fill-rule="nonzero" fill-opacity="1" /><path clip-path="url(#clip150)" d="M189.066 1087.33 L222.399 1087.33 L222.399 1090.32 L203.58 1139.17 L196.253 1139.17 L213.962 1093.24 L189.066 1093.24 L189.066 1087.33 Z" fill="#000000" fill-rule="nonzero" fill-opacity="1" /><path clip-path="url(#clip150)" d="M236.149 1087.33 L263.684 1087.33 L263.684 1093.24 L242.573 1093.24 L242.573 1105.94 Q244.1 1105.42 245.628 1105.18 Q247.156 1104.9 248.684 1104.9 Q257.364 1104.9 262.434 1109.66 Q267.503 1114.42 267.503 1122.54 Q267.503 1130.91 262.295 1135.56 Q257.086 1140.18 247.607 1140.18 Q244.343 1140.18 240.941 1139.62 Q237.573 1139.07 233.961 1137.96 L233.961 1130.91 Q237.086 1132.61 240.42 1133.44 Q243.753 1134.28 247.468 1134.28 Q253.475 1134.28 256.982 1131.12 Q260.489 1127.96 260.489 1122.54 Q260.489 1117.12 256.982 1113.96 Q253.475 1110.8 247.468 1110.8 Q244.656 1110.8 241.843 1111.43 Q239.066 1112.05 236.149 1113.37 L236.149 1087.33 Z" fill="#000000" fill-rule="nonzero" fill-opacity="1" /><path clip-path="url(#clip150)" d="M122.712 847.738 L134.17 847.738 L134.17 808.19 L121.705 810.69 L121.705 804.301 L134.101 801.801 L141.115 801.801 L141.115 847.738 L152.573 847.738 L152.573 853.641 L122.712 853.641 L122.712 847.738 Z" fill="#000000" fill-rule="nonzero" fill-opacity="1" /><path clip-path="url(#clip150)" d="M166.74 844.821 L174.066 844.821 L174.066 853.641 L166.74 853.641 L166.74 844.821 Z" fill="#000000" fill-rule="nonzero" fill-opacity="1" /><path clip-path="url(#clip150)" d="M204.344 806.419 Q198.927 806.419 196.184 811.766 Q193.476 817.078 193.476 827.773 Q193.476 838.433 196.184 843.78 Q198.927 849.092 204.344 849.092 Q209.795 849.092 212.503 843.78 Q215.246 838.433 215.246 827.773 Q215.246 817.078 212.503 811.766 Q209.795 806.419 204.344 806.419 M204.344 800.863 Q213.059 800.863 217.642 807.773 Q222.26 814.648 222.26 827.773 Q222.26 840.863 217.642 847.773 Q213.059 854.648 204.344 854.648 Q195.628 854.648 191.01 847.773 Q186.427 840.863 186.427 827.773 Q186.427 814.648 191.01 807.773 Q195.628 800.863 204.344 800.863 Z" fill="#000000" fill-rule="nonzero" fill-opacity="1" /><path clip-path="url(#clip150)" d="M249.586 806.419 Q244.17 806.419 241.427 811.766 Q238.718 817.078 238.718 827.773 Q238.718 838.433 241.427 843.78 Q244.17 849.092 249.586 849.092 Q255.038 849.092 257.746 843.78 Q260.489 838.433 260.489 827.773 Q260.489 817.078 257.746 811.766 Q255.038 806.419 249.586 806.419 M249.586 800.863 Q258.302 800.863 262.885 807.773 Q267.503 814.648 267.503 827.773 Q267.503 840.863 262.885 847.773 Q258.302 854.648 249.586 854.648 Q240.871 854.648 236.253 847.773 Q231.67 840.863 231.67 827.773 Q231.67 814.648 236.253 807.773 Q240.871 800.863 249.586 800.863 Z" fill="#000000" fill-rule="nonzero" fill-opacity="1" /><path clip-path="url(#clip150)" d="M124.205 562.206 L135.663 562.206 L135.663 522.658 L123.198 525.158 L123.198 518.769 L135.594 516.269 L142.608 516.269 L142.608 562.206 L154.066 562.206 L154.066 568.109 L124.205 568.109 L124.205 562.206 Z" fill="#000000" fill-rule="nonzero" fill-opacity="1" /><path clip-path="url(#clip150)" d="M168.233 559.29 L175.559 559.29 L175.559 568.109 L168.233 568.109 L168.233 559.29 Z" fill="#000000" fill-rule="nonzero" fill-opacity="1" /><path clip-path="url(#clip150)" d="M196.878 562.206 L221.357 562.206 L221.357 568.109 L188.441 568.109 L188.441 562.206 Q192.434 558.074 199.309 551.13 Q206.219 544.151 207.989 542.137 Q211.357 538.352 212.677 535.748 Q214.031 533.109 214.031 530.574 Q214.031 526.443 211.114 523.838 Q208.232 521.234 203.58 521.234 Q200.281 521.234 196.601 522.38 Q192.955 523.526 188.788 525.852 L188.788 518.769 Q193.024 517.068 196.705 516.2 Q200.385 515.332 203.441 515.332 Q211.496 515.332 216.288 519.359 Q221.08 523.387 221.08 530.123 Q221.08 533.318 219.864 536.199 Q218.684 539.047 215.524 542.936 Q214.656 543.942 210.003 548.769 Q205.351 553.56 196.878 562.206 Z" fill="#000000" fill-rule="nonzero" fill-opacity="1" /><path clip-path="url(#clip150)" d="M236.149 516.269 L263.684 516.269 L263.684 522.172 L242.573 522.172 L242.573 534.88 Q244.1 534.359 245.628 534.116 Q247.156 533.838 248.684 533.838 Q257.364 533.838 262.434 538.595 Q267.503 543.352 267.503 551.477 Q267.503 559.845 262.295 564.498 Q257.086 569.116 247.607 569.116 Q244.343 569.116 240.941 568.56 Q237.573 568.005 233.961 566.894 L233.961 559.845 Q237.086 561.547 240.42 562.38 Q243.753 563.213 247.468 563.213 Q253.475 563.213 256.982 560.054 Q260.489 556.894 260.489 551.477 Q260.489 546.061 256.982 542.901 Q253.475 539.741 247.468 539.741 Q244.656 539.741 241.843 540.366 Q239.066 540.991 236.149 542.311 L236.149 516.269 Z" fill="#000000" fill-rule="nonzero" fill-opacity="1" /><path clip-path="url(#clip150)" d="M122.712 276.675 L134.17 276.675 L134.17 237.126 L121.705 239.626 L121.705 233.237 L134.101 230.737 L141.115 230.737 L141.115 276.675 L152.573 276.675 L152.573 282.577 L122.712 282.577 L122.712 276.675 Z" fill="#000000" fill-rule="nonzero" fill-opacity="1" /><path clip-path="url(#clip150)" d="M166.74 273.758 L174.066 273.758 L174.066 282.577 L166.74 282.577 L166.74 273.758 Z" fill="#000000" fill-rule="nonzero" fill-opacity="1" /><path clip-path="url(#clip150)" d="M189.413 230.737 L216.948 230.737 L216.948 236.64 L195.837 236.64 L195.837 249.348 Q197.364 248.827 198.892 248.584 Q200.42 248.307 201.948 248.307 Q210.628 248.307 215.698 253.064 Q220.767 257.82 220.767 265.945 Q220.767 274.313 215.559 278.966 Q210.35 283.584 200.871 283.584 Q197.608 283.584 194.205 283.029 Q190.837 282.473 187.226 281.362 L187.226 274.313 Q190.351 276.015 193.684 276.848 Q197.017 277.681 200.732 277.681 Q206.739 277.681 210.246 274.522 Q213.753 271.362 213.753 265.945 Q213.753 260.529 210.246 257.369 Q206.739 254.209 200.732 254.209 Q197.92 254.209 195.108 254.834 Q192.33 255.459 189.413 256.779 L189.413 230.737 Z" fill="#000000" fill-rule="nonzero" fill-opacity="1" /><path clip-path="url(#clip150)" d="M249.586 235.355 Q244.17 235.355 241.427 240.702 Q238.718 246.015 238.718 256.709 Q238.718 267.369 241.427 272.716 Q244.17 278.029 249.586 278.029 Q255.038 278.029 257.746 272.716 Q260.489 267.369 260.489 256.709 Q260.489 246.015 257.746 240.702 Q255.038 235.355 249.586 235.355 M249.586 229.8 Q258.302 229.8 262.885 236.709 Q267.503 243.584 267.503 256.709 Q267.503 269.8 262.885 276.709 Q258.302 283.584 249.586 283.584 Q240.871 283.584 236.253 276.709 Q231.67 269.8 231.67 256.709 Q231.67 243.584 236.253 236.709 Q240.871 229.8 249.586 229.8 Z" fill="#000000" fill-rule="nonzero" fill-opacity="1" /><path clip-path="url(#clip150)" d="M35.6047 1045.01 Q31.2992 1042.61 29.2506 1039.28 Q27.202 1035.94 27.202 1031.43 Q27.202 1025.35 31.4728 1022.06 Q35.7089 1018.76 43.5561 1018.76 L67.0282 1018.76 L67.0282 1025.18 L43.7644 1025.18 Q38.1741 1025.18 35.4658 1027.16 Q32.7575 1029.14 32.7575 1033.2 Q32.7575 1038.17 36.0561 1041.05 Q39.3547 1043.93 45.0491 1043.93 L67.0282 1043.93 L67.0282 1050.35 L43.7644 1050.35 Q38.1394 1050.35 35.4658 1052.33 Q32.7575 1054.31 32.7575 1058.44 Q32.7575 1063.34 36.0908 1066.22 Q39.3894 1069.1 45.0491 1069.1 L67.0282 1069.1 L67.0282 1075.53 L28.1395 1075.53 L28.1395 1069.1 L34.1811 1069.1 Q30.6047 1066.92 28.9034 1063.86 Q27.202 1060.81 27.202 1056.6 Q27.202 1052.37 29.3547 1049.42 Q31.5075 1046.43 35.6047 1045.01 Z" fill="#000000" fill-rule="nonzero" fill-opacity="1" /><path clip-path="url(#clip150)" d="M47.4797 988.341 Q47.4797 996.084 49.2505 999.07 Q51.0213 1002.06 55.2921 1002.06 Q58.6949 1002.06 60.7087 999.834 Q62.6879 997.577 62.6879 993.723 Q62.6879 988.41 58.9379 985.216 Q55.1532 981.987 48.9033 981.987 L47.4797 981.987 L47.4797 988.341 M44.8408 975.598 L67.0282 975.598 L67.0282 981.987 L61.1254 981.987 Q64.6671 984.174 66.3684 987.438 Q68.0351 990.702 68.0351 995.424 Q68.0351 1001.4 64.7018 1004.94 Q61.3337 1008.44 55.7088 1008.44 Q49.1463 1008.44 45.813 1004.07 Q42.4797 999.66 42.4797 990.945 L42.4797 981.987 L41.8547 981.987 Q37.445 981.987 35.0492 984.903 Q32.6186 987.785 32.6186 993.028 Q32.6186 996.362 33.4172 999.521 Q34.2158 1002.68 35.813 1005.6 L29.9103 1005.6 Q28.5561 1002.09 27.8964 998.792 Q27.202 995.493 27.202 992.369 Q27.202 983.931 31.577 979.764 Q35.9519 975.598 44.8408 975.598 Z" fill="#000000" fill-rule="nonzero" fill-opacity="1" /><path clip-path="url(#clip150)" d="M29.2853 937.647 L35.3269 937.647 Q33.9381 940.355 33.2436 943.272 Q32.5492 946.188 32.5492 949.313 Q32.5492 954.07 34.0075 956.466 Q35.4658 958.827 38.3825 958.827 Q40.6047 958.827 41.8894 957.126 Q43.1394 955.424 44.2852 950.285 L44.7713 948.098 Q46.2297 941.292 48.9033 938.445 Q51.5421 935.563 56.299 935.563 Q61.7157 935.563 64.8754 939.869 Q68.0351 944.14 68.0351 951.64 Q68.0351 954.765 67.4101 958.167 Q66.8198 961.535 65.6046 965.285 L59.0074 965.285 Q60.8476 961.744 61.7851 958.306 Q62.6879 954.869 62.6879 951.501 Q62.6879 946.987 61.1601 944.556 Q59.5976 942.126 56.7852 942.126 Q54.181 942.126 52.7921 943.897 Q51.4032 945.633 50.1185 951.57 L49.5977 953.792 Q48.3477 959.73 45.7783 962.369 Q43.1741 965.008 38.6603 965.008 Q33.1742 965.008 30.1881 961.119 Q27.202 957.23 27.202 950.077 Q27.202 946.535 27.7228 943.41 Q28.2436 940.285 29.2853 937.647 Z" fill="#000000" fill-rule="nonzero" fill-opacity="1" /><path clip-path="url(#clip150)" d="M29.2853 900.598 L35.3269 900.598 Q33.9381 903.306 33.2436 906.223 Q32.5492 909.14 32.5492 912.265 Q32.5492 917.022 34.0075 919.418 Q35.4658 921.779 38.3825 921.779 Q40.6047 921.779 41.8894 920.077 Q43.1394 918.376 44.2852 913.237 L44.7713 911.049 Q46.2297 904.244 48.9033 901.397 Q51.5421 898.515 56.299 898.515 Q61.7157 898.515 64.8754 902.82 Q68.0351 907.091 68.0351 914.591 Q68.0351 917.716 67.4101 921.119 Q66.8198 924.487 65.6046 928.237 L59.0074 928.237 Q60.8476 924.695 61.7851 921.258 Q62.6879 917.82 62.6879 914.452 Q62.6879 909.938 61.1601 907.508 Q59.5976 905.077 56.7852 905.077 Q54.181 905.077 52.7921 906.848 Q51.4032 908.584 50.1185 914.522 L49.5977 916.744 Q48.3477 922.681 45.7783 925.32 Q43.1741 927.959 38.6603 927.959 Q33.1742 927.959 30.1881 924.07 Q27.202 920.181 27.202 913.029 Q27.202 909.487 27.7228 906.362 Q28.2436 903.237 29.2853 900.598 Z" fill="#000000" fill-rule="nonzero" fill-opacity="1" /><path clip-path="url(#clip150)" d="M61.1949 859.557 L81.8197 859.557 L81.8197 865.98 L28.1395 865.98 L28.1395 859.557 L34.0422 859.557 Q30.57 857.543 28.9034 854.487 Q27.202 851.397 27.202 847.126 Q27.202 840.043 32.827 835.633 Q38.4519 831.189 47.6185 831.189 Q56.7852 831.189 62.4101 835.633 Q68.0351 840.043 68.0351 847.126 Q68.0351 851.397 66.3684 854.487 Q64.6671 857.543 61.1949 859.557 M47.6185 837.821 Q40.57 837.821 36.5769 840.737 Q32.5492 843.619 32.5492 848.689 Q32.5492 853.758 36.5769 856.675 Q40.57 859.557 47.6185 859.557 Q54.6671 859.557 58.6949 856.675 Q62.6879 853.758 62.6879 848.689 Q62.6879 843.619 58.6949 840.737 Q54.6671 837.821 47.6185 837.821 Z" fill="#000000" fill-rule="nonzero" fill-opacity="1" /><path clip-path="url(#clip150)" d="M32.6186 805.529 Q32.6186 810.668 36.6464 813.654 Q40.6394 816.64 47.6185 816.64 Q54.5977 816.64 58.6254 813.689 Q62.6185 810.703 62.6185 805.529 Q62.6185 800.425 58.5907 797.439 Q54.5629 794.453 47.6185 794.453 Q40.7089 794.453 36.6811 797.439 Q32.6186 800.425 32.6186 805.529 M27.202 805.529 Q27.202 797.196 32.6186 792.439 Q38.0353 787.682 47.6185 787.682 Q57.1671 787.682 62.6185 792.439 Q68.0351 797.196 68.0351 805.529 Q68.0351 813.897 62.6185 818.654 Q57.1671 823.376 47.6185 823.376 Q38.0353 823.376 32.6186 818.654 Q27.202 813.897 27.202 805.529 Z" fill="#000000" fill-rule="nonzero" fill-opacity="1" /><path clip-path="url(#clip150)" d="M29.2853 752.3 L35.3269 752.3 Q33.9381 755.009 33.2436 757.925 Q32.5492 760.842 32.5492 763.967 Q32.5492 768.724 34.0075 771.12 Q35.4658 773.481 38.3825 773.481 Q40.6047 773.481 41.8894 771.779 Q43.1394 770.078 44.2852 764.939 L44.7713 762.752 Q46.2297 755.946 48.9033 753.099 Q51.5421 750.217 56.299 750.217 Q61.7157 750.217 64.8754 754.523 Q68.0351 758.793 68.0351 766.293 Q68.0351 769.418 67.4101 772.821 Q66.8198 776.189 65.6046 779.939 L59.0074 779.939 Q60.8476 776.397 61.7851 772.96 Q62.6879 769.522 62.6879 766.154 Q62.6879 761.641 61.1601 759.21 Q59.5976 756.779 56.7852 756.779 Q54.181 756.779 52.7921 758.55 Q51.4032 760.286 50.1185 766.224 L49.5977 768.446 Q48.3477 774.384 45.7783 777.022 Q43.1741 779.661 38.6603 779.661 Q33.1742 779.661 30.1881 775.772 Q27.202 771.884 27.202 764.731 Q27.202 761.189 27.7228 758.064 Q28.2436 754.939 29.2853 752.3 Z" fill="#000000" fill-rule="nonzero" fill-opacity="1" /><path clip-path="url(#clip150)" d="M28.1395 740.043 L28.1395 733.655 L67.0282 733.655 L67.0282 740.043 L28.1395 740.043 M13.0007 740.043 L13.0007 733.655 L21.0909 733.655 L21.0909 740.043 L13.0007 740.043 Z" fill="#000000" fill-rule="nonzero" fill-opacity="1" /><path clip-path="url(#clip150)" d="M17.0979 713.967 L28.1395 713.967 L28.1395 700.808 L33.1047 700.808 L33.1047 713.967 L54.2157 713.967 Q58.9726 713.967 60.3268 712.683 Q61.681 711.363 61.681 707.37 L61.681 700.808 L67.0282 700.808 L67.0282 707.37 Q67.0282 714.766 64.2851 717.578 Q61.5074 720.391 54.2157 720.391 L33.1047 720.391 L33.1047 725.078 L28.1395 725.078 L28.1395 720.391 L17.0979 720.391 L17.0979 713.967 Z" fill="#000000" fill-rule="nonzero" fill-opacity="1" /><path clip-path="url(#clip150)" d="M28.1395 692.405 L28.1395 686.016 L67.0282 686.016 L67.0282 692.405 L28.1395 692.405 M13.0007 692.405 L13.0007 686.016 L21.0909 686.016 L21.0909 692.405 L13.0007 692.405 Z" fill="#000000" fill-rule="nonzero" fill-opacity="1" /><path clip-path="url(#clip150)" d="M32.6186 657.579 Q32.6186 662.717 36.6464 665.704 Q40.6394 668.69 47.6185 668.69 Q54.5977 668.69 58.6254 665.738 Q62.6185 662.752 62.6185 657.579 Q62.6185 652.474 58.5907 649.488 Q54.5629 646.502 47.6185 646.502 Q40.7089 646.502 36.6811 649.488 Q32.6186 652.474 32.6186 657.579 M27.202 657.579 Q27.202 649.245 32.6186 644.488 Q38.0353 639.732 47.6185 639.732 Q57.1671 639.732 62.6185 644.488 Q68.0351 649.245 68.0351 657.579 Q68.0351 665.947 62.6185 670.704 Q57.1671 675.426 47.6185 675.426 Q38.0353 675.426 32.6186 670.704 Q27.202 665.947 27.202 657.579 Z" fill="#000000" fill-rule="nonzero" fill-opacity="1" /><path clip-path="url(#clip150)" d="M43.5561 596.815 L67.0282 596.815 L67.0282 603.204 L43.7644 603.204 Q38.2436 603.204 35.5005 605.357 Q32.7575 607.509 32.7575 611.815 Q32.7575 616.989 36.0561 619.975 Q39.3547 622.961 45.0491 622.961 L67.0282 622.961 L67.0282 629.384 L28.1395 629.384 L28.1395 622.961 L34.1811 622.961 Q30.6742 620.669 28.9381 617.579 Q27.202 614.454 27.202 610.391 Q27.202 603.69 31.3686 600.253 Q35.5005 596.815 43.5561 596.815 Z" fill="#000000" fill-rule="nonzero" fill-opacity="1" /><path clip-path="url(#clip150)" d="M13.0007 562.058 L13.0007 547.336 L17.9659 547.336 L17.9659 555.669 L71.4379 555.669 L71.4379 547.336 L76.4031 547.336 L76.4031 562.058 L13.0007 562.058 Z" fill="#000000" fill-rule="nonzero" fill-opacity="1" /><path clip-path="url(#clip150)" d="M35.6047 503.448 Q31.2992 501.052 29.2506 497.718 Q27.202 494.385 27.202 489.871 Q27.202 483.795 31.4728 480.496 Q35.7089 477.198 43.5561 477.198 L67.0282 477.198 L67.0282 483.621 L43.7644 483.621 Q38.1741 483.621 35.4658 485.6 Q32.7575 487.58 32.7575 491.642 Q32.7575 496.607 36.0561 499.489 Q39.3547 502.371 45.0491 502.371 L67.0282 502.371 L67.0282 508.795 L43.7644 508.795 Q38.1394 508.795 35.4658 510.774 Q32.7575 512.753 32.7575 516.885 Q32.7575 521.781 36.0908 524.663 Q39.3894 527.545 45.0491 527.545 L67.0282 527.545 L67.0282 533.968 L28.1395 533.968 L28.1395 527.545 L34.1811 527.545 Q30.6047 525.357 28.9034 522.302 Q27.202 519.246 27.202 515.045 Q27.202 510.809 29.3547 507.857 Q31.5075 504.871 35.6047 503.448 Z" fill="#000000" fill-rule="nonzero" fill-opacity="1" /><path clip-path="url(#clip150)" d="M13.0007 449.524 L76.4031 449.524 L76.4031 464.246 L71.4379 464.246 L71.4379 455.948 L17.9659 455.948 L17.9659 464.246 L13.0007 464.246 L13.0007 449.524 Z" fill="#000000" fill-rule="nonzero" fill-opacity="1" /><path clip-path="url(#clip150)" d="M592.343 12.096 L604.537 12.096 L619.971 53.2532 L635.486 12.096 L647.679 12.096 L647.679 72.576 L639.699 72.576 L639.699 19.4686 L624.103 60.9499 L615.879 60.9499 L600.283 19.4686 L600.283 72.576 L592.343 72.576 L592.343 12.096 Z" fill="#000000" fill-rule="nonzero" fill-opacity="1" /><path clip-path="url(#clip150)" d="M681.18 32.4315 Q675.184 32.4315 671.701 37.1306 Q668.217 41.7891 668.217 49.9314 Q668.217 58.0738 671.66 62.7728 Q675.144 67.4314 681.18 67.4314 Q687.135 67.4314 690.618 62.7323 Q694.102 58.0333 694.102 49.9314 Q694.102 41.8701 690.618 37.1711 Q687.135 32.4315 681.18 32.4315 M681.18 26.1121 Q690.902 26.1121 696.452 32.4315 Q702.001 38.7509 702.001 49.9314 Q702.001 61.0714 696.452 67.4314 Q690.902 73.7508 681.18 73.7508 Q671.417 73.7508 665.867 67.4314 Q660.358 61.0714 660.358 49.9314 Q660.358 38.7509 665.867 32.4315 Q671.417 26.1121 681.18 26.1121 Z" fill="#000000" fill-rule="nonzero" fill-opacity="1" /><path clip-path="url(#clip150)" d="M744.212 34.0924 L744.212 9.54393 L751.666 9.54393 L751.666 72.576 L744.212 72.576 L744.212 65.7705 Q741.862 69.8214 738.257 71.8063 Q734.692 73.7508 729.669 73.7508 Q721.446 73.7508 716.261 67.1883 Q711.116 60.6258 711.116 49.9314 Q711.116 39.2371 716.261 32.6746 Q721.446 26.1121 729.669 26.1121 Q734.692 26.1121 738.257 28.0971 Q741.862 30.0415 744.212 34.0924 M718.813 49.9314 Q718.813 58.1548 722.175 62.8538 Q725.578 67.5124 731.492 67.5124 Q737.406 67.5124 740.809 62.8538 Q744.212 58.1548 744.212 49.9314 Q744.212 41.7081 740.809 37.0496 Q737.406 32.3505 731.492 32.3505 Q725.578 32.3505 722.175 37.0496 Q718.813 41.7081 718.813 49.9314 Z" fill="#000000" fill-rule="nonzero" fill-opacity="1" /><path clip-path="url(#clip150)" d="M767.018 27.2059 L774.472 27.2059 L774.472 72.576 L767.018 72.576 L767.018 27.2059 M767.018 9.54393 L774.472 9.54393 L774.472 18.9825 L767.018 18.9825 L767.018 9.54393 Z" fill="#000000" fill-rule="nonzero" fill-opacity="1" /><path clip-path="url(#clip150)" d="M813.037 9.54393 L813.037 15.7418 L805.907 15.7418 Q801.897 15.7418 800.317 17.3622 Q798.778 18.9825 798.778 23.1955 L798.778 27.2059 L811.052 27.2059 L811.052 32.9987 L798.778 32.9987 L798.778 72.576 L791.283 72.576 L791.283 32.9987 L784.154 32.9987 L784.154 27.2059 L791.283 27.2059 L791.283 24.0462 Q791.283 16.471 794.808 13.0277 Q798.332 9.54393 805.988 9.54393 L813.037 9.54393 Z" fill="#000000" fill-rule="nonzero" fill-opacity="1" /><path clip-path="url(#clip150)" d="M819.275 27.2059 L826.729 27.2059 L826.729 72.576 L819.275 72.576 L819.275 27.2059 M819.275 9.54393 L826.729 9.54393 L826.729 18.9825 L819.275 18.9825 L819.275 9.54393 Z" fill="#000000" fill-rule="nonzero" fill-opacity="1" /><path clip-path="url(#clip150)" d="M881.132 48.0275 L881.132 51.6733 L846.862 51.6733 Q847.348 59.3701 851.48 63.421 Q855.652 67.4314 863.065 67.4314 Q867.359 67.4314 871.37 66.3781 Q875.421 65.3249 879.391 63.2184 L879.391 70.267 Q875.38 71.9684 871.167 72.8596 Q866.954 73.7508 862.62 73.7508 Q851.763 73.7508 845.403 67.4314 Q839.084 61.1119 839.084 50.3365 Q839.084 39.1965 845.079 32.6746 Q851.115 26.1121 861.323 26.1121 Q870.479 26.1121 875.785 32.0264 Q881.132 37.9003 881.132 48.0275 M873.679 45.84 Q873.598 39.7232 870.235 36.0774 Q866.914 32.4315 861.405 32.4315 Q855.166 32.4315 851.399 35.9558 Q847.672 39.4801 847.105 45.8805 L873.679 45.84 Z" fill="#000000" fill-rule="nonzero" fill-opacity="1" /><path clip-path="url(#clip150)" d="M923.221 34.0924 L923.221 9.54393 L930.675 9.54393 L930.675 72.576 L923.221 72.576 L923.221 65.7705 Q920.872 69.8214 917.266 71.8063 Q913.702 73.7508 908.679 73.7508 Q900.455 73.7508 895.27 67.1883 Q890.125 60.6258 890.125 49.9314 Q890.125 39.2371 895.27 32.6746 Q900.455 26.1121 908.679 26.1121 Q913.702 26.1121 917.266 28.0971 Q920.872 30.0415 923.221 34.0924 M897.822 49.9314 Q897.822 58.1548 901.184 62.8538 Q904.587 67.5124 910.501 67.5124 Q916.416 67.5124 919.819 62.8538 Q923.221 58.1548 923.221 49.9314 Q923.221 41.7081 919.819 37.0496 Q916.416 32.3505 910.501 32.3505 Q904.587 32.3505 901.184 37.0496 Q897.822 41.7081 897.822 49.9314 Z" fill="#000000" fill-rule="nonzero" fill-opacity="1" /><path clip-path="url(#clip150)" d="M947.932 62.2867 L956.479 62.2867 L956.479 72.576 L947.932 72.576 L947.932 62.2867 M947.932 29.6769 L956.479 29.6769 L956.479 39.9662 L947.932 39.9662 L947.932 29.6769 Z" fill="#000000" fill-rule="nonzero" fill-opacity="1" /><path clip-path="url(#clip150)" d="M1000.67 12.096 L1012.87 12.096 L1028.3 53.2532 L1043.82 12.096 L1056.01 12.096 L1056.01 72.576 L1048.03 72.576 L1048.03 19.4686 L1032.43 60.9499 L1024.21 60.9499 L1008.61 19.4686 L1008.61 72.576 L1000.67 72.576 L1000.67 12.096 Z" fill="#000000" fill-rule="nonzero" fill-opacity="1" /><path clip-path="url(#clip150)" d="M1092.55 49.7694 Q1083.52 49.7694 1080.03 51.8354 Q1076.55 53.9013 1076.55 58.8839 Q1076.55 62.8538 1079.14 65.2034 Q1081.77 67.5124 1086.27 67.5124 Q1092.47 67.5124 1096.19 63.1374 Q1099.96 58.7219 1099.96 51.4303 L1099.96 49.7694 L1092.55 49.7694 M1107.42 46.6907 L1107.42 72.576 L1099.96 72.576 L1099.96 65.6895 Q1097.41 69.8214 1093.6 71.8063 Q1089.79 73.7508 1084.29 73.7508 Q1077.32 73.7508 1073.19 69.8619 Q1069.09 65.9325 1069.09 59.3701 Q1069.09 51.7138 1074.2 47.825 Q1079.34 43.9361 1089.51 43.9361 L1099.96 43.9361 L1099.96 43.2069 Q1099.96 38.0623 1096.56 35.2672 Q1093.2 32.4315 1087.08 32.4315 Q1083.19 32.4315 1079.51 33.3632 Q1075.82 34.295 1072.42 36.1584 L1072.42 29.2718 Q1076.51 27.692 1080.36 26.9223 Q1084.2 26.1121 1087.85 26.1121 Q1097.69 26.1121 1102.55 31.2163 Q1107.42 36.3204 1107.42 46.6907 Z" fill="#000000" fill-rule="nonzero" fill-opacity="1" /><path clip-path="url(#clip150)" d="M1151.69 28.5427 L1151.69 35.5912 Q1148.53 33.9709 1145.13 33.1607 Q1141.73 32.3505 1138.08 32.3505 Q1132.53 32.3505 1129.74 34.0519 Q1126.98 35.7533 1126.98 39.156 Q1126.98 41.7486 1128.97 43.2475 Q1130.95 44.7058 1136.95 46.0426 L1139.5 46.6097 Q1147.44 48.3111 1150.76 51.4303 Q1154.12 54.509 1154.12 60.0587 Q1154.12 66.3781 1149.1 70.0644 Q1144.12 73.7508 1135.37 73.7508 Q1131.72 73.7508 1127.75 73.0216 Q1123.82 72.3329 1119.45 70.9151 L1119.45 63.2184 Q1123.58 65.3654 1127.59 66.4591 Q1131.6 67.5124 1135.53 67.5124 Q1140.8 67.5124 1143.63 65.73 Q1146.47 63.9071 1146.47 60.6258 Q1146.47 57.5877 1144.4 55.9673 Q1142.38 54.3469 1135.45 52.8481 L1132.86 52.2405 Q1125.93 50.7821 1122.85 47.7845 Q1119.77 44.7463 1119.77 39.4801 Q1119.77 33.0797 1124.31 29.5959 Q1128.85 26.1121 1137.19 26.1121 Q1141.32 26.1121 1144.97 26.7198 Q1148.61 27.3274 1151.69 28.5427 Z" fill="#000000" fill-rule="nonzero" fill-opacity="1" /><path clip-path="url(#clip150)" d="M1194.92 28.5427 L1194.92 35.5912 Q1191.76 33.9709 1188.35 33.1607 Q1184.95 32.3505 1181.3 32.3505 Q1175.75 32.3505 1172.96 34.0519 Q1170.2 35.7533 1170.2 39.156 Q1170.2 41.7486 1172.19 43.2475 Q1174.17 44.7058 1180.17 46.0426 L1182.72 46.6097 Q1190.66 48.3111 1193.98 51.4303 Q1197.35 54.509 1197.35 60.0587 Q1197.35 66.3781 1192.32 70.0644 Q1187.34 73.7508 1178.59 73.7508 Q1174.94 73.7508 1170.97 73.0216 Q1167.05 72.3329 1162.67 70.9151 L1162.67 63.2184 Q1166.8 65.3654 1170.81 66.4591 Q1174.82 67.5124 1178.75 67.5124 Q1184.02 67.5124 1186.85 65.73 Q1189.69 63.9071 1189.69 60.6258 Q1189.69 57.5877 1187.62 55.9673 Q1185.6 54.3469 1178.67 52.8481 L1176.08 52.2405 Q1169.15 50.7821 1166.07 47.7845 Q1162.99 44.7463 1162.99 39.4801 Q1162.99 33.0797 1167.53 29.5959 Q1172.07 26.1121 1180.41 26.1121 Q1184.55 26.1121 1188.19 26.7198 Q1191.84 27.3274 1194.92 28.5427 Z" fill="#000000" fill-rule="nonzero" fill-opacity="1" /><path clip-path="url(#clip150)" d="M1242.8 65.7705 L1242.8 89.8329 L1235.3 89.8329 L1235.3 27.2059 L1242.8 27.2059 L1242.8 34.0924 Q1245.15 30.0415 1248.71 28.0971 Q1252.32 26.1121 1257.3 26.1121 Q1265.56 26.1121 1270.71 32.6746 Q1275.89 39.2371 1275.89 49.9314 Q1275.89 60.6258 1270.71 67.1883 Q1265.56 73.7508 1257.3 73.7508 Q1252.32 73.7508 1248.71 71.8063 Q1245.15 69.8214 1242.8 65.7705 M1268.16 49.9314 Q1268.16 41.7081 1264.75 37.0496 Q1261.39 32.3505 1255.48 32.3505 Q1249.56 32.3505 1246.16 37.0496 Q1242.8 41.7081 1242.8 49.9314 Q1242.8 58.1548 1246.16 62.8538 Q1249.56 67.5124 1255.48 67.5124 Q1261.39 67.5124 1264.75 62.8538 Q1268.16 58.1548 1268.16 49.9314 Z" fill="#000000" fill-rule="nonzero" fill-opacity="1" /><path clip-path="url(#clip150)" d="M1305.83 32.4315 Q1299.83 32.4315 1296.35 37.1306 Q1292.87 41.7891 1292.87 49.9314 Q1292.87 58.0738 1296.31 62.7728 Q1299.79 67.4314 1305.83 67.4314 Q1311.78 67.4314 1315.27 62.7323 Q1318.75 58.0333 1318.75 49.9314 Q1318.75 41.8701 1315.27 37.1711 Q1311.78 32.4315 1305.83 32.4315 M1305.83 26.1121 Q1315.55 26.1121 1321.1 32.4315 Q1326.65 38.7509 1326.65 49.9314 Q1326.65 61.0714 1321.1 67.4314 Q1315.55 73.7508 1305.83 73.7508 Q1296.07 73.7508 1290.52 67.4314 Q1285.01 61.0714 1285.01 49.9314 Q1285.01 38.7509 1290.52 32.4315 Q1296.07 26.1121 1305.83 26.1121 Z" fill="#000000" fill-rule="nonzero" fill-opacity="1" /><path clip-path="url(#clip150)" d="M1367.93 28.5427 L1367.93 35.5912 Q1364.77 33.9709 1361.37 33.1607 Q1357.96 32.3505 1354.32 32.3505 Q1348.77 32.3505 1345.97 34.0519 Q1343.22 35.7533 1343.22 39.156 Q1343.22 41.7486 1345.2 43.2475 Q1347.19 44.7058 1353.18 46.0426 L1355.74 46.6097 Q1363.68 48.3111 1367 51.4303 Q1370.36 54.509 1370.36 60.0587 Q1370.36 66.3781 1365.34 70.0644 Q1360.35 73.7508 1351.6 73.7508 Q1347.96 73.7508 1343.99 73.0216 Q1340.06 72.3329 1335.68 70.9151 L1335.68 63.2184 Q1339.82 65.3654 1343.83 66.4591 Q1347.84 67.5124 1351.77 67.5124 Q1357.03 67.5124 1359.87 65.73 Q1362.7 63.9071 1362.7 60.6258 Q1362.7 57.5877 1360.64 55.9673 Q1358.61 54.3469 1351.69 52.8481 L1349.09 52.2405 Q1342.17 50.7821 1339.09 47.7845 Q1336.01 44.7463 1336.01 39.4801 Q1336.01 33.0797 1340.55 29.5959 Q1345.08 26.1121 1353.43 26.1121 Q1357.56 26.1121 1361.21 26.7198 Q1364.85 27.3274 1367.93 28.5427 Z" fill="#000000" fill-rule="nonzero" fill-opacity="1" /><path clip-path="url(#clip150)" d="M1382.23 27.2059 L1389.68 27.2059 L1389.68 72.576 L1382.23 72.576 L1382.23 27.2059 M1382.23 9.54393 L1389.68 9.54393 L1389.68 18.9825 L1382.23 18.9825 L1382.23 9.54393 Z" fill="#000000" fill-rule="nonzero" fill-opacity="1" /><path clip-path="url(#clip150)" d="M1412.65 14.324 L1412.65 27.2059 L1428 27.2059 L1428 32.9987 L1412.65 32.9987 L1412.65 57.6282 Q1412.65 63.1779 1414.15 64.7578 Q1415.69 66.3376 1420.35 66.3376 L1428 66.3376 L1428 72.576 L1420.35 72.576 Q1411.72 72.576 1408.44 69.3758 Q1405.16 66.1351 1405.16 57.6282 L1405.16 32.9987 L1399.69 32.9987 L1399.69 27.2059 L1405.16 27.2059 L1405.16 14.324 L1412.65 14.324 Z" fill="#000000" fill-rule="nonzero" fill-opacity="1" /><path clip-path="url(#clip150)" d="M1437.81 27.2059 L1445.26 27.2059 L1445.26 72.576 L1437.81 72.576 L1437.81 27.2059 M1437.81 9.54393 L1445.26 9.54393 L1445.26 18.9825 L1437.81 18.9825 L1437.81 9.54393 Z" fill="#000000" fill-rule="nonzero" fill-opacity="1" /><path clip-path="url(#clip150)" d="M1478.44 32.4315 Q1472.44 32.4315 1468.96 37.1306 Q1465.48 41.7891 1465.48 49.9314 Q1465.48 58.0738 1468.92 62.7728 Q1472.4 67.4314 1478.44 67.4314 Q1484.39 67.4314 1487.88 62.7323 Q1491.36 58.0333 1491.36 49.9314 Q1491.36 41.8701 1487.88 37.1711 Q1484.39 32.4315 1478.44 32.4315 M1478.44 26.1121 Q1488.16 26.1121 1493.71 32.4315 Q1499.26 38.7509 1499.26 49.9314 Q1499.26 61.0714 1493.71 67.4314 Q1488.16 73.7508 1478.44 73.7508 Q1468.68 73.7508 1463.13 67.4314 Q1457.62 61.0714 1457.62 49.9314 Q1457.62 38.7509 1463.13 32.4315 Q1468.68 26.1121 1478.44 26.1121 Z" fill="#000000" fill-rule="nonzero" fill-opacity="1" /><path clip-path="url(#clip150)" d="M1549.33 45.1919 L1549.33 72.576 L1541.88 72.576 L1541.88 45.4349 Q1541.88 38.994 1539.36 35.7938 Q1536.85 32.5936 1531.83 32.5936 Q1525.79 32.5936 1522.31 36.4419 Q1518.83 40.2903 1518.83 46.9338 L1518.83 72.576 L1511.33 72.576 L1511.33 27.2059 L1518.83 27.2059 L1518.83 34.2544 Q1521.5 30.163 1525.1 28.1376 Q1528.75 26.1121 1533.49 26.1121 Q1541.31 26.1121 1545.32 30.9732 Q1549.33 35.7938 1549.33 45.1919 Z" fill="#000000" fill-rule="nonzero" fill-opacity="1" /><path clip-path="url(#clip150)" d="M1611.19 49.7694 Q1602.15 49.7694 1598.67 51.8354 Q1595.19 53.9013 1595.19 58.8839 Q1595.19 62.8538 1597.78 65.2034 Q1600.41 67.5124 1604.91 67.5124 Q1611.11 67.5124 1614.83 63.1374 Q1618.6 58.7219 1618.6 51.4303 L1618.6 49.7694 L1611.19 49.7694 M1626.05 46.6907 L1626.05 72.576 L1618.6 72.576 L1618.6 65.6895 Q1616.05 69.8214 1612.24 71.8063 Q1608.43 73.7508 1602.92 73.7508 Q1595.95 73.7508 1591.82 69.8619 Q1587.73 65.9325 1587.73 59.3701 Q1587.73 51.7138 1592.84 47.825 Q1597.98 43.9361 1608.15 43.9361 L1618.6 43.9361 L1618.6 43.2069 Q1618.6 38.0623 1615.2 35.2672 Q1611.83 32.4315 1605.72 32.4315 Q1601.83 32.4315 1598.14 33.3632 Q1594.46 34.295 1591.05 36.1584 L1591.05 29.2718 Q1595.14 27.692 1598.99 26.9223 Q1602.84 26.1121 1606.49 26.1121 Q1616.33 26.1121 1621.19 31.2163 Q1626.05 36.3204 1626.05 46.6907 Z" fill="#000000" fill-rule="nonzero" fill-opacity="1" /><path clip-path="url(#clip150)" d="M1664.37 9.54393 L1664.37 15.7418 L1657.25 15.7418 Q1653.23 15.7418 1651.65 17.3622 Q1650.12 18.9825 1650.12 23.1955 L1650.12 27.2059 L1662.39 27.2059 L1662.39 32.9987 L1650.12 32.9987 L1650.12 72.576 L1642.62 72.576 L1642.62 32.9987 L1635.49 32.9987 L1635.49 27.2059 L1642.62 27.2059 L1642.62 24.0462 Q1642.62 16.471 1646.15 13.0277 Q1649.67 9.54393 1657.33 9.54393 L1664.37 9.54393 Z" fill="#000000" fill-rule="nonzero" fill-opacity="1" /><path clip-path="url(#clip150)" d="M1676.53 14.324 L1676.53 27.2059 L1691.88 27.2059 L1691.88 32.9987 L1676.53 32.9987 L1676.53 57.6282 Q1676.53 63.1779 1678.03 64.7578 Q1679.57 66.3376 1684.22 66.3376 L1691.88 66.3376 L1691.88 72.576 L1684.22 72.576 Q1675.6 72.576 1672.31 69.3758 Q1669.03 66.1351 1669.03 57.6282 L1669.03 32.9987 L1663.56 32.9987 L1663.56 27.2059 L1669.03 27.2059 L1669.03 14.324 L1676.53 14.324 Z" fill="#000000" fill-rule="nonzero" fill-opacity="1" /><path clip-path="url(#clip150)" d="M1740.49 48.0275 L1740.49 51.6733 L1706.22 51.6733 Q1706.71 59.3701 1710.84 63.421 Q1715.01 67.4314 1722.42 67.4314 Q1726.72 67.4314 1730.73 66.3781 Q1734.78 65.3249 1738.75 63.2184 L1738.75 70.267 Q1734.74 71.9684 1730.53 72.8596 Q1726.31 73.7508 1721.98 73.7508 Q1711.12 73.7508 1704.76 67.4314 Q1698.44 61.1119 1698.44 50.3365 Q1698.44 39.1965 1704.44 32.6746 Q1710.47 26.1121 1720.68 26.1121 Q1729.84 26.1121 1735.14 32.0264 Q1740.49 37.9003 1740.49 48.0275 M1733.04 45.84 Q1732.96 39.7232 1729.59 36.0774 Q1726.27 32.4315 1720.76 32.4315 Q1714.52 32.4315 1710.76 35.9558 Q1707.03 39.4801 1706.46 45.8805 L1733.04 45.84 Z" fill="#000000" fill-rule="nonzero" fill-opacity="1" /><path clip-path="url(#clip150)" d="M1779.02 34.1734 Q1777.76 33.4443 1776.26 33.1202 Q1774.8 32.7556 1773.02 32.7556 Q1766.7 32.7556 1763.3 36.8875 Q1759.94 40.9789 1759.94 48.6757 L1759.94 72.576 L1752.44 72.576 L1752.44 27.2059 L1759.94 27.2059 L1759.94 34.2544 Q1762.29 30.1225 1766.05 28.1376 Q1769.82 26.1121 1775.21 26.1121 Q1775.98 26.1121 1776.91 26.2337 Q1777.84 26.3147 1778.97 26.5172 L1779.02 34.1734 Z" fill="#000000" fill-rule="nonzero" fill-opacity="1" /><path clip-path="url(#clip150)" d="M1842.21 44.2197 Q1844.84 45.1109 1847.31 48.0275 Q1849.83 50.9442 1852.34 56.0483 L1860.64 72.576 L1851.85 72.576 L1844.11 57.061 Q1841.12 50.9847 1838.28 48.9997 Q1835.48 47.0148 1830.62 47.0148 L1821.71 47.0148 L1821.71 72.576 L1813.53 72.576 L1813.53 12.096 L1832 12.096 Q1842.37 12.096 1847.48 16.4305 Q1852.58 20.7649 1852.58 29.5149 Q1852.58 35.2267 1849.91 38.994 Q1847.27 42.7613 1842.21 44.2197 M1821.71 18.8205 L1821.71 40.2903 L1832 40.2903 Q1837.92 40.2903 1840.91 37.5762 Q1843.95 34.8216 1843.95 29.5149 Q1843.95 24.2082 1840.91 21.5346 Q1837.92 18.8205 1832 18.8205 L1821.71 18.8205 Z" fill="#000000" fill-rule="nonzero" fill-opacity="1" /><path clip-path="url(#clip150)" d="M1866.35 54.671 L1866.35 27.2059 L1873.81 27.2059 L1873.81 54.3874 Q1873.81 60.8284 1876.32 64.0691 Q1878.83 67.2693 1883.85 67.2693 Q1889.89 67.2693 1893.37 63.421 Q1896.9 59.5726 1896.9 52.9291 L1896.9 27.2059 L1904.35 27.2059 L1904.35 72.576 L1896.9 72.576 L1896.9 65.6084 Q1894.18 69.7404 1890.58 71.7658 Q1887.01 73.7508 1882.27 73.7508 Q1874.45 73.7508 1870.4 68.8897 Q1866.35 64.0286 1866.35 54.671 M1885.11 26.1121 L1885.11 26.1121 Z" fill="#000000" fill-rule="nonzero" fill-opacity="1" /><path clip-path="url(#clip150)" d="M1957.42 45.1919 L1957.42 72.576 L1949.96 72.576 L1949.96 45.4349 Q1949.96 38.994 1947.45 35.7938 Q1944.94 32.5936 1939.92 32.5936 Q1933.88 32.5936 1930.4 36.4419 Q1926.91 40.2903 1926.91 46.9338 L1926.91 72.576 L1919.42 72.576 L1919.42 27.2059 L1926.91 27.2059 L1926.91 34.2544 Q1929.59 30.163 1933.19 28.1376 Q1936.84 26.1121 1941.58 26.1121 Q1949.4 26.1121 1953.41 30.9732 Q1957.42 35.7938 1957.42 45.1919 Z" fill="#000000" fill-rule="nonzero" fill-opacity="1" /><path clip-path="url(#clip150)" d="M1974.19 62.2867 L1982.74 62.2867 L1982.74 72.576 L1974.19 72.576 L1974.19 62.2867 M1974.19 29.6769 L1982.74 29.6769 L1982.74 39.9662 L1974.19 39.9662 L1974.19 29.6769 Z" fill="#000000" fill-rule="nonzero" fill-opacity="1" /><path clip-path="url(#clip150)" d="M2029.08 65.6895 L2042.45 65.6895 L2042.45 19.5497 L2027.9 22.4663 L2027.9 15.0127 L2042.36 12.096 L2050.55 12.096 L2050.55 65.6895 L2063.92 65.6895 L2063.92 72.576 L2029.08 72.576 L2029.08 65.6895 Z" fill="#000000" fill-rule="nonzero" fill-opacity="1" /><polyline clip-path="url(#clip152)" style="stroke:#009af9; stroke-linecap:round; stroke-linejoin:round; stroke-width:8; stroke-opacity:1; fill:none" points="361.501,827.721 366.334,844.773 371.167,861.703 376,878.485 380.833,895.102 385.666,911.518 390.5,927.748 395.333,943.75 400.166,959.53 404.999,975.059 409.832,990.329 414.665,1005.33 419.498,1020.02 424.332,1034.43 429.165,1048.5 433.998,1062.25 438.831,1075.63 443.664,1088.66 448.497,1101.33 453.33,1113.61 458.164,1125.49 462.997,1136.96 467.83,1148.02 472.663,1158.64 477.496,1168.83 482.329,1178.55 487.162,1187.82 491.996,1196.61 496.829,1204.92 501.662,1212.74 506.495,1220.06 511.328,1226.87 516.161,1233.17 520.994,1238.95 525.828,1244.21 530.661,1248.93 535.494,1253.12 540.327,1256.77 545.16,1259.88 549.993,1262.44 554.826,1264.45 559.66,1265.91 564.493,1266.82 569.326,1267.17 574.159,1266.98 578.992,1266.23 583.825,1264.92 588.658,1263.06 593.492,1260.66 598.325,1257.71 603.158,1254.21 607.991,1250.17 612.824,1245.6 617.657,1240.5 622.49,1234.86 627.324,1228.71 632.157,1222.04 636.99,1214.86 641.823,1207.18 646.656,1199.01 651.489,1190.36 656.322,1181.22 661.156,1171.62 665.989,1161.56 670.822,1151.05 675.655,1140.11 680.488,1128.73 685.321,1116.95 690.154,1104.75 694.988,1092.16 699.821,1079.2 704.654,1065.87 709.487,1052.18 714.32,1038.15 719.153,1023.8 723.986,1009.14 728.82,994.182 733.653,978.941 738.486,963.436 743.319,947.681 748.152,931.691 752.985,915.481 757.818,899.069 762.652,882.472 767.485,865.707 772.318,848.791 777.151,831.737 781.984,814.565 786.817,797.292 791.65,779.936 796.484,762.515 801.317,745.044 806.15,727.54 810.983,710.022 815.816,692.508 820.649,675.016 825.482,657.564 830.316,640.162 835.149,622.833 839.982,605.594 844.815,588.462 849.648,571.455 854.481,554.591 859.314,537.887 864.148,521.361 868.981,505.023 873.814,488.888 878.647,472.977 883.48,457.306 888.313,441.891 893.147,426.749 897.98,411.896 902.813,397.347 907.646,383.12 912.479,369.213 917.312,355.651 922.145,342.447 926.979,329.615 931.812,317.168 936.645,305.119 941.478,293.481 946.311,282.266 951.144,271.484 955.977,261.141 960.811,251.253 965.644,241.828 970.477,232.875 975.31,224.404 980.143,216.423 984.976,208.94 989.809,201.961 994.643,195.496 999.476,189.551 1004.31,184.13 1009.14,179.24 1013.98,174.884 1018.81,171.066 1023.64,167.79 1028.47,165.058 1033.31,162.874 1038.14,161.245 1042.97,160.168 1047.81,159.645 1052.64,159.675 1057.47,160.259 1062.31,161.395 1067.14,163.082 1071.97,165.318 1076.81,168.103 1081.64,171.435 1086.47,175.309 1091.31,179.721 1096.14,184.667 1100.97,190.141 1105.8,196.137 1110.64,202.65 1115.47,209.673 1120.3,217.202 1125.14,225.227 1129.97,233.741 1134.8,242.735 1139.64,252.199 1144.47,262.124 1149.3,272.5 1154.14,283.315 1158.97,294.561 1163.8,306.229 1168.64,318.304 1173.47,330.774 1178.3,343.627 1183.14,356.849 1187.97,370.427 1192.8,384.347 1197.63,398.595 1202.47,413.161 1207.3,428.027 1212.13,443.18 1216.97,458.602 1221.8,474.279 1226.63,490.195 1231.47,506.333 1236.3,522.677 1241.13,539.211 1245.97,555.922 1250.8,572.79 1255.63,589.799 1260.47,606.932 1265.3,624.17 1270.13,641.497 1274.96,658.896 1279.8,676.347 1284.63,693.837 1289.46,711.346 1294.3,728.858 1299.13,746.354 1303.96,763.817 1308.8,781.23 1313.63,798.574 1318.46,815.832 1323.3,832.987 1328.13,850.023 1332.96,866.923 1337.8,883.669 1342.63,900.245 1347.46,916.633 1352.3,932.819 1357.13,948.784 1361.96,964.514 1366.79,979.993 1371.63,995.205 1376.46,1010.14 1381.29,1024.77 1386.13,1039.09 1390.96,1053.09 1395.79,1066.74 1400.63,1080.05 1405.46,1092.98 1410.29,1105.54 1415.13,1117.7 1419.96,1129.46 1424.79,1140.8 1429.63,1151.72 1434.46,1162.2 1439.29,1172.23 1444.12,1181.8 1448.96,1190.9 1453.79,1199.52 1458.62,1207.66 1463.46,1215.3 1468.29,1222.44 1473.12,1229.07 1477.96,1235.19 1482.79,1240.79 1487.62,1245.85 1492.46,1250.39 1497.29,1254.39 1502.12,1257.84 1506.96,1260.75 1511.79,1263.12 1516.62,1264.93 1521.46,1266.19 1526.29,1266.9 1531.12,1267.06 1535.95,1266.67 1540.79,1265.72 1545.62,1264.21 1550.45,1262.16 1555.29,1259.56 1560.12,1256.41 1564.95,1252.72 1569.79,1248.49 1574.62,1243.73 1579.45,1238.43 1584.29,1232.61 1589.12,1226.27 1593.95,1219.41 1598.79,1212.05 1603.62,1204.2 1608.45,1195.85 1613.28,1187.02 1618.12,1177.72 1622.95,1167.95 1627.78,1157.73 1632.62,1147.06 1637.45,1135.96 1642.28,1124.44 1647.12,1112.51 1651.95,1100.18 1656.78,1087.46 1661.62,1074.37 1666.45,1060.92 1671.28,1047.12 1676.12,1032.98 1680.95,1018.53 1685.78,1003.77 1690.62,988.722 1695.45,973.401 1700.28,957.819 1705.11,941.992 1709.95,925.935 1714.78,909.667 1719.61,893.203 1724.45,876.559 1729.28,859.754 1734.11,842.803 1738.95,825.724 1743.78,808.53 1748.61,791.242 1753.45,773.876 1758.28,756.45 1763.11,738.981 1767.95,721.487 1772.78,703.986 1777.61,686.496 1782.44,669.032 1787.28,651.612 1792.11,634.255 1796.94,616.976 1801.78,599.795 1806.61,582.727 1811.44,565.791 1816.28,549.003 1821.11,532.38 1825.94,515.938 1830.78,499.694 1835.61,483.663 1840.44,467.863 1845.28,452.309 1850.11,437.016 1854.94,422 1859.78,407.276 1864.61,392.858 1869.44,378.761 1874.27,364.999 1879.11,351.586 1883.94,338.535 1888.77,325.86 1893.61,313.572 1898.44,301.684 1903.27,290.207 1908.11,279.154 1912.94,268.537 1917.77,258.365 1922.61,248.649 1927.44,239.397 1932.27,230.62 1937.11,222.325 1941.94,214.521 1946.77,207.215 1951.6,200.418 1956.44,194.134 1961.27,188.37 1966.1,183.132 1970.94,178.423 1975.77,174.25 1980.6,170.615 1985.44,167.523 1990.27,164.976 1995.1,162.98 1999.94,161.535 2004.77,160.643 2009.6,160.303 2014.44,160.516 2019.27,161.282 2024.1,162.599 2028.94,164.465 2033.77,166.883 2038.6,169.848 2043.43,173.358 2048.27,177.408 2053.1,181.994 2057.93,187.11 2062.77,192.753 2067.6,198.915 2072.43,205.59 2077.27,212.777 2082.1,220.465 2086.93,228.646 2091.77,237.312 2096.6,246.454 2101.43,256.062 2106.27,266.127 2111.1,276.637 2115.93,287.585 2120.77,298.961 2125.6,310.752 2130.43,322.946 2135.26,335.53 2140.1,348.491 2144.93,361.817 2149.76,375.493 2154.6,389.506 2159.43,403.845 2164.26,418.494 2169.1,433.439 2173.93,448.663 2178.76,464.152 2183.6,479.89 2188.43,495.86 2193.26,512.047 2198.1,528.435 2202.93,545.01 2207.76,561.753 2212.59,578.649 2217.43,595.678 2222.26,612.825 2227.09,630.073 2231.93,647.403 2236.76,664.797 2241.59,682.241 2246.43,699.718 2251.26,717.208 2256.09,734.694 2260.93,752.158 2265.76,769.584 2270.59,786.952 2275.43,804.247 2280.26,821.45 2285.09,838.546 2289.93,855.517 2294.76,872.346 "/>
<polyline clip-path="url(#clip152)" style="stroke:#e26f46; stroke-linecap:round; stroke-linejoin:round; stroke-width:8; stroke-opacity:1; fill:none" points="361.501,827.721 366.334,844.82 371.167,861.865 376,878.833 380.833,895.71 385.666,912.46 390.5,929.098 395.333,945.578 400.166,961.913 404.999,978.063 409.832,994.032 414.665,1009.79 419.498,1025.33 424.332,1040.65 429.165,1055.73 433.998,1070.54 438.831,1085.06 443.664,1099.3 448.497,1113.22 453.33,1126.82 458.164,1140.07 462.997,1152.96 467.83,1165.49 472.663,1177.64 477.496,1189.39 482.329,1200.74 487.162,1211.67 491.996,1222.17 496.829,1232.24 501.662,1241.86 506.495,1251.02 511.328,1259.71 516.161,1267.93 520.994,1275.66 525.828,1282.9 530.661,1289.63 535.494,1295.85 540.327,1301.56 545.16,1306.73 549.993,1311.37 554.826,1315.47 559.66,1319.02 564.493,1322.02 569.326,1324.45 574.159,1326.32 578.992,1327.62 583.825,1328.34 588.658,1328.47 593.492,1328.13 598.325,1327.39 603.158,1326.22 607.991,1324.64 612.824,1322.63 617.657,1320.2 622.49,1317.34 627.324,1314.05 632.157,1310.34 636.99,1306.21 641.823,1301.66 646.656,1296.69 651.489,1291.31 656.322,1285.52 661.156,1279.32 665.989,1272.72 670.822,1265.72 675.655,1258.34 680.488,1250.57 685.321,1242.43 690.154,1233.92 694.988,1225.05 699.821,1215.82 704.654,1206.26 709.487,1196.35 714.32,1186.12 719.153,1175.58 723.986,1164.74 728.82,1153.6 733.653,1142.18 738.486,1130.49 743.319,1118.54 748.152,1106.33 752.985,1093.88 757.818,1081.21 762.652,1068.34 767.485,1055.26 772.318,1042 777.151,1028.56 781.984,1014.95 786.817,1001.19 791.65,987.295 796.484,973.285 801.317,959.167 806.15,944.956 810.983,930.665 815.816,916.309 820.649,901.903 825.482,887.461 830.316,872.994 835.149,858.52 839.982,844.054 844.815,829.611 849.648,815.205 854.481,800.854 859.314,786.573 864.148,772.37 868.981,758.256 873.814,744.251 878.647,730.37 883.48,716.628 888.313,703.04 893.147,689.621 897.98,676.385 902.813,663.331 907.646,650.482 912.479,637.852 917.312,625.454 922.145,613.302 926.979,601.408 931.812,589.786 936.645,578.443 941.478,567.387 946.311,556.634 951.144,546.196 955.977,536.084 960.811,526.31 965.644,516.883 970.477,507.814 975.31,499.105 980.143,490.772 984.976,482.822 989.809,475.266 994.643,468.111 999.476,461.366 1004.31,455.04 1009.14,449.138 1013.98,443.667 1018.81,438.635 1023.64,434.048 1028.47,429.914 1033.31,426.238 1038.14,423.026 1042.97,420.284 1047.81,418.017 1052.64,416.23 1057.47,414.928 1062.31,414.115 1067.14,413.794 1071.97,413.959 1076.81,414.426 1081.64,415.213 1086.47,416.335 1091.31,417.789 1096.14,419.581 1100.97,421.708 1105.8,424.173 1110.64,426.973 1115.47,430.11 1120.3,433.581 1125.14,437.384 1129.97,441.519 1134.8,445.981 1139.64,450.769 1144.47,455.879 1149.3,461.306 1154.14,467.048 1158.97,473.094 1163.8,479.445 1168.64,486.095 1173.47,493.038 1178.3,500.263 1183.14,507.769 1187.97,515.549 1192.8,523.596 1197.63,531.898 1202.47,540.45 1207.3,549.247 1212.13,558.277 1216.97,567.526 1221.8,576.991 1226.63,586.663 1231.47,596.533 1236.3,606.593 1241.13,616.835 1245.97,627.242 1250.8,637.804 1255.63,648.513 1260.47,659.36 1265.3,670.336 1270.13,681.429 1274.96,692.63 1279.8,703.924 1284.63,715.299 1289.46,726.747 1294.3,738.255 1299.13,749.812 1303.96,761.405 1308.8,773.024 1313.63,784.659 1318.46,796.297 1323.3,807.925 1328.13,819.532 1332.96,831.105 1337.8,842.631 1342.63,854.098 1347.46,865.502 1352.3,876.828 1357.13,888.062 1361.96,899.194 1366.79,910.21 1371.63,921.1 1376.46,931.851 1381.29,942.46 1386.13,952.912 1390.96,963.195 1395.79,973.299 1400.63,983.213 1405.46,992.925 1410.29,1002.43 1415.13,1011.71 1419.96,1020.77 1424.79,1029.59 1429.63,1038.16 1434.46,1046.47 1439.29,1054.52 1444.12,1062.29 1448.96,1069.79 1453.79,1076.99 1458.62,1083.89 1463.46,1090.49 1468.29,1096.78 1473.12,1102.74 1477.96,1108.37 1482.79,1113.68 1487.62,1118.64 1492.46,1123.25 1497.29,1127.51 1502.12,1131.41 1506.96,1134.95 1511.79,1138.12 1516.62,1140.91 1521.46,1143.32 1526.29,1145.35 1531.12,1146.99 1535.95,1148.24 1540.79,1149.08 1545.62,1149.53 1550.45,1149.56 1555.29,1149.29 1560.12,1148.82 1564.95,1148.11 1569.79,1147.17 1574.62,1145.99 1579.45,1144.57 1584.29,1142.91 1589.12,1141 1593.95,1138.85 1598.79,1136.45 1603.62,1133.82 1608.45,1130.94 1613.28,1127.83 1618.12,1124.48 1622.95,1120.89 1627.78,1117.07 1632.62,1113.02 1637.45,1108.74 1642.28,1104.25 1647.12,1099.54 1651.95,1094.6 1656.78,1089.46 1661.62,1084.1 1666.45,1078.55 1671.28,1072.81 1676.12,1066.86 1680.95,1060.73 1685.78,1054.41 1690.62,1047.92 1695.45,1041.26 1700.28,1034.44 1705.11,1027.45 1709.95,1020.31 1714.78,1013.03 1719.61,1005.61 1724.45,998.061 1729.28,990.388 1734.11,982.597 1738.95,974.695 1743.78,966.692 1748.61,958.601 1753.45,950.424 1758.28,942.168 1763.11,933.841 1767.95,925.451 1772.78,917.013 1777.61,908.531 1782.44,900.012 1787.28,891.465 1792.11,882.898 1796.94,874.32 1801.78,865.743 1806.61,857.172 1811.44,848.616 1816.28,840.083 1821.11,831.583 1825.94,823.124 1830.78,814.714 1835.61,806.363 1840.44,798.079 1845.28,789.87 1850.11,781.744 1854.94,773.709 1859.78,765.773 1864.61,757.947 1869.44,750.237 1874.27,742.652 1879.11,735.197 1883.94,727.882 1888.77,720.713 1893.61,713.701 1898.44,706.853 1903.27,700.175 1908.11,693.67 1912.94,687.348 1917.77,681.219 1922.61,675.288 1927.44,669.563 1932.27,664.046 1937.11,658.743 1941.94,653.664 1946.77,648.814 1951.6,644.201 1956.44,639.831 1961.27,635.699 1966.1,631.818 1970.94,628.193 1975.77,624.831 1980.6,621.737 1985.44,618.912 1990.27,616.356 1995.1,614.08 1999.94,612.087 2004.77,610.384 2009.6,608.973 2014.44,607.856 2019.27,607.037 2024.1,606.519 2028.94,606.304 2033.77,606.387 2038.6,606.604 2043.43,606.939 2048.27,607.405 2053.1,608.005 2057.93,608.743 2062.77,609.619 2067.6,610.634 2072.43,611.79 2077.27,613.085 2082.1,614.52 2086.93,616.094 2091.77,617.808 2096.6,619.659 2101.43,621.648 2106.27,623.773 2111.1,626.034 2115.93,628.427 2120.77,630.953 2125.6,633.611 2130.43,636.397 2135.26,639.309 2140.1,642.346 2144.93,645.504 2149.76,648.776 2154.6,652.165 2159.43,655.667 2164.26,659.281 2169.1,663.004 2173.93,666.836 2178.76,670.767 2183.6,674.788 2188.43,678.904 2193.26,683.111 2198.1,687.408 2202.93,691.79 2207.76,696.255 2212.59,700.794 2217.43,705.397 2222.26,710.066 2227.09,714.798 2231.93,719.59 2236.76,724.438 2241.59,729.337 2246.43,734.28 2251.26,739.256 2256.09,744.267 2260.93,749.308 2265.76,754.374 2270.59,759.462 2275.43,764.567 2280.26,769.681 2285.09,774.796 2289.93,779.91 2294.76,785.019 "/>
<polyline clip-path="url(#clip152)" style="stroke:#008000; stroke-linecap:round; stroke-linejoin:round; stroke-width:8; stroke-opacity:1; fill:none" stroke-dasharray="4, 8" points="361.501,827.721 366.334,841.472 371.167,855.148 376,868.74 380.833,882.243 385.666,895.649 390.5,908.952 395.333,922.145 400.166,935.222 404.999,948.177 409.832,961.004 414.665,973.696 419.498,986.248 424.332,998.654 429.165,1010.91 433.998,1023.01 438.831,1034.94 443.664,1046.72 448.497,1058.31 453.33,1069.74 458.164,1080.98 462.997,1092.04 467.83,1102.91 472.663,1113.59 477.496,1124.08 482.329,1134.36 487.162,1144.45 491.996,1154.33 496.829,1164 501.662,1173.46 506.495,1182.71 511.328,1191.74 516.161,1200.56 520.994,1209.16 525.828,1217.54 530.661,1225.69 535.494,1233.63 540.327,1241.33 545.16,1248.81 549.993,1256.06 554.826,1263.08 559.66,1269.88 564.493,1276.44 569.326,1282.77 574.159,1288.87 578.992,1294.74 583.825,1300.38 588.658,1305.79 593.492,1310.96 598.325,1315.9 603.158,1320.61 607.991,1325.08 612.824,1329.33 617.657,1333.34 622.49,1337.12 627.324,1340.66 632.157,1343.98 636.99,1347.06 641.823,1349.91 646.656,1352.53 651.489,1354.92 656.322,1357.08 661.156,1359.01 665.989,1360.71 670.822,1362.18 675.655,1363.39 680.488,1364.29 685.321,1364.91 690.154,1365.27 694.988,1365.41 699.821,1365.31 704.654,1364.99 709.487,1364.44 714.32,1363.64 719.153,1362.56 723.986,1361.17 728.82,1359.43 733.653,1357.28 738.486,1354.68 743.319,1351.54 748.152,1347.8 752.985,1343.37 757.818,1338.16 762.652,1332.06 767.485,1324.96 772.318,1316.76 777.151,1307.31 781.984,1296.45 786.817,1283.92 791.65,1269.88 796.484,1254.53 801.317,1238.08 806.15,1220.7 810.983,1202.57 815.816,1183.86 820.649,1164.75 825.482,1145.36 830.316,1125.86 835.149,1106.38 839.982,1087.04 844.815,1067.96 849.648,1049.26 854.481,1031.03 859.314,1013.38 864.148,996.206 868.981,979.365 873.814,962.819 878.647,946.535 883.48,930.484 888.313,914.643 893.147,898.991 897.98,883.512 902.813,868.191 907.646,853.02 912.479,837.993 917.312,823.108 922.145,808.368 926.979,793.777 931.812,779.346 936.645,765.088 941.478,751.007 946.311,737.102 951.144,723.377 955.977,709.835 960.811,696.481 965.644,683.317 970.477,670.347 975.31,657.574 980.143,645.001 984.976,632.633 989.809,620.47 994.643,608.518 999.476,596.777 1004.31,585.252 1009.14,573.944 1013.98,562.857 1018.81,551.992 1023.64,541.353 1028.47,530.94 1033.31,520.757 1038.14,510.806 1042.97,501.116 1047.81,491.706 1052.64,482.564 1057.47,473.679 1062.31,465.046 1067.14,456.659 1071.97,448.52 1076.81,440.629 1081.64,432.992 1086.47,425.617 1091.31,418.517 1096.14,411.705 1100.97,405.198 1105.8,399.018 1110.64,393.186 1115.47,387.731 1120.3,382.681 1125.14,378.069 1129.97,373.93 1134.8,370.303 1139.64,367.23 1144.47,364.754 1149.3,362.923 1154.14,361.789 1158.97,361.404 1163.8,361.825 1168.64,363.112 1173.47,365.327 1178.3,368.536 1183.14,372.807 1187.97,378.01 1192.8,383.967 1197.63,390.598 1202.47,397.829 1207.3,405.591 1212.13,413.819 1216.97,422.456 1221.8,431.448 1226.63,440.747 1231.47,450.309 1236.3,460.097 1241.13,470.077 1245.97,480.223 1250.8,490.512 1255.63,500.926 1260.47,511.454 1265.3,522.089 1270.13,532.829 1274.96,543.678 1279.8,554.643 1284.63,565.74 1289.46,576.987 1294.3,588.399 1299.13,599.919 1303.96,611.527 1308.8,623.215 1313.63,634.974 1318.46,646.795 1323.3,658.671 1328.13,670.592 1332.96,682.55 1337.8,694.538 1342.63,706.546 1347.46,718.566 1352.3,730.591 1357.13,742.612 1361.96,754.621 1366.79,766.61 1371.63,778.572 1376.46,790.498 1381.29,802.38 1386.13,814.212 1390.96,825.988 1395.79,837.701 1400.63,849.344 1405.46,860.907 1410.29,872.384 1415.13,883.768 1419.96,895.05 1424.79,906.225 1429.63,917.285 1434.46,928.225 1439.29,939.036 1444.12,949.715 1448.96,960.254 1453.79,970.649 1458.62,980.894 1463.46,990.983 1468.29,1000.91 1473.12,1010.68 1477.96,1020.27 1482.79,1029.69 1487.62,1038.94 1492.46,1048 1497.29,1056.87 1502.12,1065.56 1506.96,1074.06 1511.79,1082.36 1516.62,1090.47 1521.46,1098.37 1526.29,1106.08 1531.12,1113.58 1535.95,1120.87 1540.79,1127.96 1545.62,1134.83 1550.45,1141.49 1555.29,1147.92 1560.12,1154.13 1564.95,1160.12 1569.79,1165.9 1574.62,1171.46 1579.45,1176.8 1584.29,1181.93 1589.12,1186.84 1593.95,1191.53 1598.79,1196.01 1603.62,1200.27 1608.45,1204.3 1613.28,1208.12 1618.12,1211.71 1622.95,1215.07 1627.78,1218.19 1632.62,1221.08 1637.45,1223.74 1642.28,1226.14 1647.12,1228.29 1651.95,1230.19 1656.78,1231.83 1661.62,1233.2 1666.45,1234.29 1671.28,1235.1 1676.12,1235.62 1680.95,1235.84 1685.78,1235.76 1690.62,1235.45 1695.45,1234.82 1700.28,1233.79 1705.11,1232.28 1709.95,1230.22 1714.78,1227.55 1719.61,1224.18 1724.45,1220.07 1729.28,1215.16 1734.11,1209.4 1738.95,1202.75 1743.78,1195.15 1748.61,1186.59 1753.45,1177.02 1758.28,1166.42 1763.11,1154.77 1767.95,1142.05 1772.78,1128.26 1777.61,1113.37 1782.44,1097.45 1787.28,1080.74 1792.11,1063.52 1796.94,1046.03 1801.78,1028.46 1806.61,1010.99 1811.44,993.76 1816.28,976.869 1821.11,960.39 1825.94,944.361 1830.78,928.787 1835.61,913.64 1840.44,898.86 1845.28,884.351 1850.11,869.986 1854.94,855.751 1859.78,841.749 1864.61,827.97 1869.44,814.406 1874.27,801.049 1879.11,787.894 1883.94,774.935 1888.77,762.169 1893.61,749.593 1898.44,737.207 1903.27,725.01 1908.11,713.003 1912.94,701.189 1917.77,689.571 1922.61,678.154 1927.44,666.944 1932.27,655.953 1937.11,645.18 1941.94,634.625 1946.77,624.288 1951.6,614.169 1956.44,604.271 1961.27,594.597 1966.1,585.152 1970.94,575.939 1975.77,566.967 1980.6,558.242 1985.44,549.773 1990.27,541.57 1995.1,533.642 1999.94,526.003 2004.77,518.665 2009.6,511.641 2014.44,504.947 2019.27,498.599 2024.1,492.613 2028.94,487.009 2033.77,481.805 2038.6,477.03 2043.43,472.763 2048.27,469.044 2053.1,465.894 2057.93,463.333 2062.77,461.377 2067.6,460.04 2072.43,459.33 2077.27,459.254 2082.1,459.816 2086.93,461.015 2091.77,462.848 2096.6,465.308 2101.43,468.387 2106.27,472.069 2111.1,476.34 2115.93,481.18 2120.77,486.566 2125.6,492.472 2130.43,498.868 2135.26,505.723 2140.1,513 2144.93,520.66 2149.76,528.662 2154.6,536.959 2159.43,545.505 2164.26,554.278 2169.1,563.266 2173.93,572.455 2178.76,581.829 2183.6,591.373 2188.43,601.074 2193.26,610.918 2198.1,620.893 2202.93,630.985 2207.76,641.183 2212.59,651.475 2217.43,661.85 2222.26,672.298 2227.09,682.809 2231.93,693.374 2236.76,703.983 2241.59,714.627 2246.43,725.298 2251.26,735.986 2256.09,746.682 2260.93,757.379 2265.76,768.067 2270.59,778.738 2275.43,789.385 2280.26,800 2285.09,810.574 2289.93,821.1 2294.76,831.571 "/>
<path clip-path="url(#clip150)" d="M1444.66 477.116 L2284.45 477.116 L2284.45 166.076 L1444.66 166.076  Z" fill="#ffffff" fill-rule="evenodd" fill-opacity="1"/>
<polyline clip-path="url(#clip150)" style="stroke:#000000; stroke-linecap:round; stroke-linejoin:round; stroke-width:4; stroke-opacity:1; fill:none" points="1444.66,477.116 2284.45,477.116 2284.45,166.076 1444.66,166.076 1444.66,477.116 "/>
<polyline clip-path="url(#clip150)" style="stroke:#009af9; stroke-linecap:round; stroke-linejoin:round; stroke-width:12; stroke-opacity:1; fill:none" points="1467.43,243.836 1604.05,243.836 "/>
<path clip-path="url(#clip150)" d="M1660.19 219.617 L1660.19 226.457 Q1656.2 224.548 1652.65 223.61 Q1649.11 222.673 1645.81 222.673 Q1640.08 222.673 1636.96 224.895 Q1633.87 227.117 1633.87 231.214 Q1633.87 234.652 1635.92 236.423 Q1638 238.159 1643.76 239.235 L1648 240.103 Q1655.85 241.596 1659.56 245.381 Q1663.31 249.131 1663.31 255.45 Q1663.31 262.985 1658.24 266.874 Q1653.21 270.763 1643.45 270.763 Q1639.77 270.763 1635.6 269.929 Q1631.47 269.096 1627.03 267.464 L1627.03 260.242 Q1631.3 262.638 1635.4 263.853 Q1639.49 265.068 1643.45 265.068 Q1649.46 265.068 1652.72 262.707 Q1655.99 260.346 1655.99 255.971 Q1655.99 252.152 1653.63 249.999 Q1651.3 247.846 1645.95 246.77 L1641.68 245.936 Q1633.83 244.374 1630.33 241.041 Q1626.82 237.707 1626.82 231.77 Q1626.82 224.895 1631.65 220.937 Q1636.51 216.978 1645.01 216.978 Q1648.66 216.978 1652.45 217.638 Q1656.23 218.298 1660.19 219.617 Z" fill="#000000" fill-rule="nonzero" fill-opacity="1" /><path clip-path="url(#clip150)" d="M1673.97 230.867 L1680.36 230.867 L1680.36 269.756 L1673.97 269.756 L1673.97 230.867 M1673.97 215.728 L1680.36 215.728 L1680.36 223.818 L1673.97 223.818 L1673.97 215.728 Z" fill="#000000" fill-rule="nonzero" fill-opacity="1" /><path clip-path="url(#clip150)" d="M1724.01 238.332 Q1726.4 234.027 1729.74 231.978 Q1733.07 229.93 1737.58 229.93 Q1743.66 229.93 1746.96 234.2 Q1750.26 238.436 1750.26 246.284 L1750.26 269.756 L1743.83 269.756 L1743.83 246.492 Q1743.83 240.902 1741.85 238.193 Q1739.88 235.485 1735.81 235.485 Q1730.85 235.485 1727.97 238.784 Q1725.08 242.082 1725.08 247.777 L1725.08 269.756 L1718.66 269.756 L1718.66 246.492 Q1718.66 240.867 1716.68 238.193 Q1714.7 235.485 1710.57 235.485 Q1705.67 235.485 1702.79 238.818 Q1699.91 242.117 1699.91 247.777 L1699.91 269.756 L1693.49 269.756 L1693.49 230.867 L1699.91 230.867 L1699.91 236.909 Q1702.1 233.332 1705.15 231.631 Q1708.21 229.93 1712.41 229.93 Q1716.65 229.93 1719.6 232.082 Q1722.58 234.235 1724.01 238.332 Z" fill="#000000" fill-rule="nonzero" fill-opacity="1" /><path clip-path="url(#clip150)" d="M1769.18 263.922 L1769.18 284.547 L1762.76 284.547 L1762.76 230.867 L1769.18 230.867 L1769.18 236.77 Q1771.19 233.298 1774.25 231.631 Q1777.34 229.93 1781.61 229.93 Q1788.69 229.93 1793.1 235.555 Q1797.55 241.179 1797.55 250.346 Q1797.55 259.513 1793.1 265.138 Q1788.69 270.763 1781.61 270.763 Q1777.34 270.763 1774.25 269.096 Q1771.19 267.395 1769.18 263.922 M1790.92 250.346 Q1790.92 243.298 1788 239.304 Q1785.12 235.277 1780.05 235.277 Q1774.98 235.277 1772.06 239.304 Q1769.18 243.298 1769.18 250.346 Q1769.18 257.395 1772.06 261.422 Q1774.98 265.415 1780.05 265.415 Q1785.12 265.415 1788 261.422 Q1790.92 257.395 1790.92 250.346 Z" fill="#000000" fill-rule="nonzero" fill-opacity="1" /><path clip-path="url(#clip150)" d="M1808.14 215.728 L1814.53 215.728 L1814.53 269.756 L1808.14 269.756 L1808.14 215.728 Z" fill="#000000" fill-rule="nonzero" fill-opacity="1" /><path clip-path="url(#clip150)" d="M1861.16 248.714 L1861.16 251.839 L1831.78 251.839 Q1832.2 258.436 1835.74 261.909 Q1839.32 265.346 1845.67 265.346 Q1849.35 265.346 1852.79 264.443 Q1856.26 263.54 1859.67 261.735 L1859.67 267.777 Q1856.23 269.235 1852.62 269.999 Q1849.01 270.763 1845.29 270.763 Q1835.99 270.763 1830.53 265.346 Q1825.12 259.929 1825.12 250.693 Q1825.12 241.145 1830.26 235.555 Q1835.43 229.93 1844.18 229.93 Q1852.03 229.93 1856.58 234.999 Q1861.16 240.034 1861.16 248.714 M1854.77 246.839 Q1854.7 241.596 1851.82 238.471 Q1848.97 235.346 1844.25 235.346 Q1838.9 235.346 1835.67 238.367 Q1832.48 241.388 1831.99 246.874 L1854.77 246.839 Z" fill="#000000" fill-rule="nonzero" fill-opacity="1" /><path clip-path="url(#clip150)" d="M1871.92 217.916 L1901.71 217.916 L1901.71 223.818 L1878.94 223.818 L1878.94 239.096 L1899.49 239.096 L1899.49 244.999 L1878.94 244.999 L1878.94 269.756 L1871.92 269.756 L1871.92 217.916 Z" fill="#000000" fill-rule="nonzero" fill-opacity="1" /><path clip-path="url(#clip150)" d="M1912.83 217.916 L1923.28 217.916 L1936.51 253.193 L1949.8 217.916 L1960.26 217.916 L1960.26 269.756 L1953.42 269.756 L1953.42 224.235 L1940.05 259.79 L1933 259.79 L1919.63 224.235 L1919.63 269.756 L1912.83 269.756 L1912.83 217.916 Z" fill="#000000" fill-rule="nonzero" fill-opacity="1" /><path clip-path="url(#clip150)" d="M1973.38 217.916 L1980.43 217.916 L1980.43 249.409 Q1980.43 257.742 1983.45 261.422 Q1986.47 265.068 1993.24 265.068 Q1999.98 265.068 2003 261.422 Q2006.02 257.742 2006.02 249.409 L2006.02 217.916 L2013.07 217.916 L2013.07 250.277 Q2013.07 260.415 2008.03 265.589 Q2003.03 270.763 1993.24 270.763 Q1983.42 270.763 1978.38 265.589 Q1973.38 260.415 1973.38 250.277 L1973.38 217.916 Z" fill="#000000" fill-rule="nonzero" fill-opacity="1" /><polyline clip-path="url(#clip150)" style="stroke:#e26f46; stroke-linecap:round; stroke-linejoin:round; stroke-width:12; stroke-opacity:1; fill:none" points="1467.43,321.596 1604.05,321.596 "/>
<path clip-path="url(#clip150)" d="M1651.4 323.21 Q1653.66 323.974 1655.78 326.474 Q1657.93 328.974 1660.08 333.349 L1667.2 347.516 L1659.67 347.516 L1653.04 334.217 Q1650.47 329.009 1648.04 327.307 Q1645.64 325.606 1641.47 325.606 L1633.83 325.606 L1633.83 347.516 L1626.82 347.516 L1626.82 295.676 L1642.65 295.676 Q1651.54 295.676 1655.92 299.391 Q1660.29 303.106 1660.29 310.606 Q1660.29 315.502 1658 318.731 Q1655.74 321.96 1651.4 323.21 M1633.83 301.44 L1633.83 319.842 L1642.65 319.842 Q1647.72 319.842 1650.29 317.516 Q1652.9 315.155 1652.9 310.606 Q1652.9 306.058 1650.29 303.766 Q1647.72 301.44 1642.65 301.44 L1633.83 301.44 Z" fill="#000000" fill-rule="nonzero" fill-opacity="1" /><path clip-path="url(#clip150)" d="M1706.02 326.474 L1706.02 329.599 L1676.65 329.599 Q1677.06 336.196 1680.6 339.669 Q1684.18 343.106 1690.54 343.106 Q1694.22 343.106 1697.65 342.203 Q1701.13 341.3 1704.53 339.495 L1704.53 345.537 Q1701.09 346.995 1697.48 347.759 Q1693.87 348.523 1690.15 348.523 Q1680.85 348.523 1675.4 343.106 Q1669.98 337.689 1669.98 328.453 Q1669.98 318.905 1675.12 313.315 Q1680.29 307.69 1689.04 307.69 Q1696.89 307.69 1701.44 312.759 Q1706.02 317.794 1706.02 326.474 M1699.63 324.599 Q1699.56 319.356 1696.68 316.231 Q1693.83 313.106 1689.11 313.106 Q1683.76 313.106 1680.54 316.127 Q1677.34 319.148 1676.85 324.634 L1699.63 324.599 Z" fill="#000000" fill-rule="nonzero" fill-opacity="1" /><path clip-path="url(#clip150)" d="M1736.19 293.488 L1736.19 298.801 L1730.08 298.801 Q1726.65 298.801 1725.29 300.19 Q1723.97 301.578 1723.97 305.19 L1723.97 308.627 L1734.49 308.627 L1734.49 313.592 L1723.97 313.592 L1723.97 347.516 L1717.55 347.516 L1717.55 313.592 L1711.44 313.592 L1711.44 308.627 L1717.55 308.627 L1717.55 305.919 Q1717.55 299.426 1720.57 296.474 Q1723.59 293.488 1730.15 293.488 L1736.19 293.488 Z" fill="#000000" fill-rule="nonzero" fill-opacity="1" /><path clip-path="url(#clip150)" d="M1774.81 326.474 L1774.81 329.599 L1745.43 329.599 Q1745.85 336.196 1749.39 339.669 Q1752.97 343.106 1759.32 343.106 Q1763 343.106 1766.44 342.203 Q1769.91 341.3 1773.31 339.495 L1773.31 345.537 Q1769.88 346.995 1766.26 347.759 Q1762.65 348.523 1758.94 348.523 Q1749.63 348.523 1744.18 343.106 Q1738.76 337.689 1738.76 328.453 Q1738.76 318.905 1743.9 313.315 Q1749.08 307.69 1757.83 307.69 Q1765.67 307.69 1770.22 312.759 Q1774.81 317.794 1774.81 326.474 M1768.42 324.599 Q1768.35 319.356 1765.47 316.231 Q1762.62 313.106 1757.9 313.106 Q1752.55 313.106 1749.32 316.127 Q1746.13 319.148 1745.64 324.634 L1768.42 324.599 Z" fill="#000000" fill-rule="nonzero" fill-opacity="1" /><path clip-path="url(#clip150)" d="M1807.83 314.599 Q1806.75 313.974 1805.47 313.696 Q1804.22 313.384 1802.69 313.384 Q1797.27 313.384 1794.35 316.926 Q1791.47 320.433 1791.47 327.03 L1791.47 347.516 L1785.05 347.516 L1785.05 308.627 L1791.47 308.627 L1791.47 314.669 Q1793.49 311.127 1796.72 309.426 Q1799.94 307.69 1804.56 307.69 Q1805.22 307.69 1806.02 307.794 Q1806.82 307.863 1807.79 308.037 L1807.83 314.599 Z" fill="#000000" fill-rule="nonzero" fill-opacity="1" /><path clip-path="url(#clip150)" d="M1846.23 326.474 L1846.23 329.599 L1816.85 329.599 Q1817.27 336.196 1820.81 339.669 Q1824.39 343.106 1830.74 343.106 Q1834.42 343.106 1837.86 342.203 Q1841.33 341.3 1844.74 339.495 L1844.74 345.537 Q1841.3 346.995 1837.69 347.759 Q1834.08 348.523 1830.36 348.523 Q1821.06 348.523 1815.6 343.106 Q1810.19 337.689 1810.19 328.453 Q1810.19 318.905 1815.33 313.315 Q1820.5 307.69 1829.25 307.69 Q1837.1 307.69 1841.65 312.759 Q1846.23 317.794 1846.23 326.474 M1839.84 324.599 Q1839.77 319.356 1836.89 316.231 Q1834.04 313.106 1829.32 313.106 Q1823.97 313.106 1820.74 316.127 Q1817.55 319.148 1817.06 324.634 L1839.84 324.599 Z" fill="#000000" fill-rule="nonzero" fill-opacity="1" /><path clip-path="url(#clip150)" d="M1889.04 324.044 L1889.04 347.516 L1882.65 347.516 L1882.65 324.252 Q1882.65 318.731 1880.5 315.988 Q1878.35 313.245 1874.04 313.245 Q1868.87 313.245 1865.88 316.544 Q1862.9 319.842 1862.9 325.537 L1862.9 347.516 L1856.47 347.516 L1856.47 308.627 L1862.9 308.627 L1862.9 314.669 Q1865.19 311.162 1868.28 309.426 Q1871.4 307.69 1875.46 307.69 Q1882.17 307.69 1885.6 311.856 Q1889.04 315.988 1889.04 324.044 Z" fill="#000000" fill-rule="nonzero" fill-opacity="1" /><path clip-path="url(#clip150)" d="M1929.77 310.12 L1929.77 316.092 Q1927.06 314.599 1924.32 313.87 Q1921.61 313.106 1918.83 313.106 Q1912.62 313.106 1909.18 317.064 Q1905.74 320.988 1905.74 328.106 Q1905.74 335.224 1909.18 339.182 Q1912.62 343.106 1918.83 343.106 Q1921.61 343.106 1924.32 342.377 Q1927.06 341.613 1929.77 340.12 L1929.77 346.023 Q1927.1 347.273 1924.21 347.898 Q1921.37 348.523 1918.14 348.523 Q1909.35 348.523 1904.18 343.002 Q1899.01 337.481 1899.01 328.106 Q1899.01 318.592 1904.21 313.141 Q1909.46 307.69 1918.55 307.69 Q1921.51 307.69 1924.32 308.315 Q1927.13 308.905 1929.77 310.12 Z" fill="#000000" fill-rule="nonzero" fill-opacity="1" /><path clip-path="url(#clip150)" d="M1974.14 326.474 L1974.14 329.599 L1944.77 329.599 Q1945.19 336.196 1948.73 339.669 Q1952.3 343.106 1958.66 343.106 Q1962.34 343.106 1965.78 342.203 Q1969.25 341.3 1972.65 339.495 L1972.65 345.537 Q1969.21 346.995 1965.6 347.759 Q1961.99 348.523 1958.28 348.523 Q1948.97 348.523 1943.52 343.106 Q1938.1 337.689 1938.1 328.453 Q1938.1 318.905 1943.24 313.315 Q1948.42 307.69 1957.17 307.69 Q1965.01 307.69 1969.56 312.759 Q1974.14 317.794 1974.14 326.474 M1967.76 324.599 Q1967.69 319.356 1964.8 316.231 Q1961.96 313.106 1957.24 313.106 Q1951.89 313.106 1948.66 316.127 Q1945.46 319.148 1944.98 324.634 L1967.76 324.599 Z" fill="#000000" fill-rule="nonzero" fill-opacity="1" /><polyline clip-path="url(#clip150)" style="stroke:#008000; stroke-linecap:round; stroke-linejoin:round; stroke-width:12; stroke-opacity:1; fill:none" stroke-dasharray="6, 12" points="1467.43,399.356 1604.05,399.356 "/>
<path clip-path="url(#clip150)" d="M1626.82 373.436 L1636.26 373.436 L1659.25 416.804 L1659.25 373.436 L1666.06 373.436 L1666.06 425.276 L1656.61 425.276 L1633.63 381.908 L1633.63 425.276 L1626.82 425.276 L1626.82 373.436 Z" fill="#000000" fill-rule="nonzero" fill-opacity="1" /><path clip-path="url(#clip150)" d="M1713 404.234 L1713 407.359 L1683.63 407.359 Q1684.04 413.956 1687.58 417.429 Q1691.16 420.866 1697.51 420.866 Q1701.19 420.866 1704.63 419.963 Q1708.1 419.06 1711.51 417.255 L1711.51 423.297 Q1708.07 424.755 1704.46 425.519 Q1700.85 426.283 1697.13 426.283 Q1687.83 426.283 1682.38 420.866 Q1676.96 415.449 1676.96 406.213 Q1676.96 396.665 1682.1 391.075 Q1687.27 385.45 1696.02 385.45 Q1703.87 385.45 1708.42 390.519 Q1713 395.554 1713 404.234 M1706.61 402.359 Q1706.54 397.116 1703.66 393.991 Q1700.81 390.866 1696.09 390.866 Q1690.74 390.866 1687.51 393.887 Q1684.32 396.908 1683.83 402.394 L1706.61 402.359 Z" fill="#000000" fill-rule="nonzero" fill-opacity="1" /><path clip-path="url(#clip150)" d="M1722.83 409.929 L1722.83 386.387 L1729.22 386.387 L1729.22 409.686 Q1729.22 415.206 1731.37 417.984 Q1733.52 420.727 1737.83 420.727 Q1743 420.727 1745.99 417.429 Q1749.01 414.13 1749.01 408.436 L1749.01 386.387 L1755.4 386.387 L1755.4 425.276 L1749.01 425.276 L1749.01 419.304 Q1746.68 422.845 1743.59 424.581 Q1740.53 426.283 1736.47 426.283 Q1729.77 426.283 1726.3 422.116 Q1722.83 417.949 1722.83 409.929 M1738.9 385.45 L1738.9 385.45 Z" fill="#000000" fill-rule="nonzero" fill-opacity="1" /><path clip-path="url(#clip150)" d="M1791.09 392.359 Q1790.01 391.734 1788.73 391.456 Q1787.48 391.144 1785.95 391.144 Q1780.53 391.144 1777.62 394.686 Q1774.74 398.193 1774.74 404.79 L1774.74 425.276 L1768.31 425.276 L1768.31 386.387 L1774.74 386.387 L1774.74 392.429 Q1776.75 388.887 1779.98 387.186 Q1783.21 385.45 1787.83 385.45 Q1788.49 385.45 1789.28 385.554 Q1790.08 385.623 1791.06 385.797 L1791.09 392.359 Z" fill="#000000" fill-rule="nonzero" fill-opacity="1" /><path clip-path="url(#clip150)" d="M1815.47 405.727 Q1807.72 405.727 1804.74 407.498 Q1801.75 409.269 1801.75 413.54 Q1801.75 416.942 1803.97 418.956 Q1806.23 420.935 1810.08 420.935 Q1815.4 420.935 1818.59 417.185 Q1821.82 413.401 1821.82 407.151 L1821.82 405.727 L1815.47 405.727 M1828.21 403.088 L1828.21 425.276 L1821.82 425.276 L1821.82 419.373 Q1819.63 422.915 1816.37 424.616 Q1813.1 426.283 1808.38 426.283 Q1802.41 426.283 1798.87 422.949 Q1795.36 419.581 1795.36 413.956 Q1795.36 407.394 1799.74 404.061 Q1804.15 400.727 1812.86 400.727 L1821.82 400.727 L1821.82 400.102 Q1821.82 395.693 1818.9 393.297 Q1816.02 390.866 1810.78 390.866 Q1807.44 390.866 1804.28 391.665 Q1801.12 392.463 1798.21 394.061 L1798.21 388.158 Q1801.72 386.804 1805.01 386.144 Q1808.31 385.45 1811.44 385.45 Q1819.87 385.45 1824.04 389.825 Q1828.21 394.199 1828.21 403.088 Z" fill="#000000" fill-rule="nonzero" fill-opacity="1" /><path clip-path="url(#clip150)" d="M1841.37 371.248 L1847.76 371.248 L1847.76 425.276 L1841.37 425.276 L1841.37 371.248 Z" fill="#000000" fill-rule="nonzero" fill-opacity="1" /><path clip-path="url(#clip150)" d="M1861.4 373.436 L1891.19 373.436 L1891.19 379.338 L1868.42 379.338 L1868.42 394.616 L1888.97 394.616 L1888.97 400.519 L1868.42 400.519 L1868.42 425.276 L1861.4 425.276 L1861.4 373.436 Z" fill="#000000" fill-rule="nonzero" fill-opacity="1" /><path clip-path="url(#clip150)" d="M1902.3 373.436 L1912.76 373.436 L1925.99 408.713 L1939.28 373.436 L1949.74 373.436 L1949.74 425.276 L1942.89 425.276 L1942.89 379.755 L1929.53 415.31 L1922.48 415.31 L1909.11 379.755 L1909.11 425.276 L1902.3 425.276 L1902.3 373.436 Z" fill="#000000" fill-rule="nonzero" fill-opacity="1" /><path clip-path="url(#clip150)" d="M1962.86 373.436 L1969.91 373.436 L1969.91 404.929 Q1969.91 413.262 1972.93 416.942 Q1975.95 420.588 1982.72 420.588 Q1989.46 420.588 1992.48 416.942 Q1995.5 413.262 1995.5 404.929 L1995.5 373.436 L2002.55 373.436 L2002.55 405.797 Q2002.55 415.935 1997.51 421.109 Q1992.51 426.283 1982.72 426.283 Q1972.89 426.283 1967.86 421.109 Q1962.86 415.935 1962.86 405.797 L1962.86 373.436 Z" fill="#000000" fill-rule="nonzero" fill-opacity="1" /><path clip-path="url(#clip150)" d="M2053.38 371.318 Q2048.73 379.304 2046.47 387.116 Q2044.21 394.929 2044.21 402.949 Q2044.21 410.97 2046.47 418.852 Q2048.76 426.699 2053.38 434.651 L2047.82 434.651 Q2042.62 426.491 2040.01 418.609 Q2037.44 410.727 2037.44 402.949 Q2037.44 395.206 2040.01 387.359 Q2042.58 379.512 2047.82 371.318 L2053.38 371.318 Z" fill="#000000" fill-rule="nonzero" fill-opacity="1" /><path clip-path="url(#clip150)" d="M2072.72 419.373 L2097.2 419.373 L2097.2 425.276 L2064.28 425.276 L2064.28 419.373 Q2068.28 415.241 2075.15 408.297 Q2082.06 401.318 2083.83 399.304 Q2087.2 395.519 2088.52 392.915 Q2089.87 390.276 2089.87 387.741 Q2089.87 383.609 2086.96 381.005 Q2084.07 378.401 2079.42 378.401 Q2076.12 378.401 2072.44 379.547 Q2068.8 380.693 2064.63 383.019 L2064.63 375.936 Q2068.87 374.234 2072.55 373.366 Q2076.23 372.498 2079.28 372.498 Q2087.34 372.498 2092.13 376.526 Q2096.92 380.554 2096.92 387.29 Q2096.92 390.484 2095.71 393.366 Q2094.53 396.213 2091.37 400.102 Q2090.5 401.109 2085.85 405.936 Q2081.19 410.727 2072.72 419.373 Z" fill="#000000" fill-rule="nonzero" fill-opacity="1" /><path clip-path="url(#clip150)" d="M2111.99 373.436 L2139.53 373.436 L2139.53 379.338 L2118.41 379.338 L2118.41 392.047 Q2119.94 391.526 2121.47 391.283 Q2123 391.005 2124.53 391.005 Q2133.21 391.005 2138.28 395.762 Q2143.35 400.519 2143.35 408.644 Q2143.35 417.012 2138.14 421.665 Q2132.93 426.283 2123.45 426.283 Q2120.19 426.283 2116.78 425.727 Q2113.41 425.172 2109.8 424.06 L2109.8 417.012 Q2112.93 418.713 2116.26 419.547 Q2119.6 420.38 2123.31 420.38 Q2129.32 420.38 2132.82 417.22 Q2136.33 414.06 2136.33 408.644 Q2136.33 403.227 2132.82 400.068 Q2129.32 396.908 2123.31 396.908 Q2120.5 396.908 2117.69 397.533 Q2114.91 398.158 2111.99 399.477 L2111.99 373.436 Z" fill="#000000" fill-rule="nonzero" fill-opacity="1" /><path clip-path="url(#clip150)" d="M2172.16 378.054 Q2166.75 378.054 2164 383.401 Q2161.3 388.713 2161.3 399.408 Q2161.3 410.067 2164 415.415 Q2166.75 420.727 2172.16 420.727 Q2177.62 420.727 2180.32 415.415 Q2183.07 410.067 2183.07 399.408 Q2183.07 388.713 2180.32 383.401 Q2177.62 378.054 2172.16 378.054 M2172.16 372.498 Q2180.88 372.498 2185.46 379.408 Q2190.08 386.283 2190.08 399.408 Q2190.08 412.498 2185.46 419.408 Q2180.88 426.283 2172.16 426.283 Q2163.45 426.283 2158.83 419.408 Q2154.25 412.498 2154.25 399.408 Q2154.25 386.283 2158.83 379.408 Q2163.45 372.498 2172.16 372.498 Z" fill="#000000" fill-rule="nonzero" fill-opacity="1" /><path clip-path="url(#clip150)" d="M2217.41 378.054 Q2211.99 378.054 2209.25 383.401 Q2206.54 388.713 2206.54 399.408 Q2206.54 410.067 2209.25 415.415 Q2211.99 420.727 2217.41 420.727 Q2222.86 420.727 2225.57 415.415 Q2228.31 410.067 2228.31 399.408 Q2228.31 388.713 2225.57 383.401 Q2222.86 378.054 2217.41 378.054 M2217.41 372.498 Q2226.12 372.498 2230.71 379.408 Q2235.32 386.283 2235.32 399.408 Q2235.32 412.498 2230.71 419.408 Q2226.12 426.283 2217.41 426.283 Q2208.69 426.283 2204.07 419.408 Q2199.49 412.498 2199.49 399.408 Q2199.49 386.283 2204.07 379.408 Q2208.69 372.498 2217.41 372.498 Z" fill="#000000" fill-rule="nonzero" fill-opacity="1" /><path clip-path="url(#clip150)" d="M2245.74 371.318 L2251.3 371.318 Q2256.5 379.512 2259.07 387.359 Q2261.68 395.206 2261.68 402.949 Q2261.68 410.727 2259.07 418.609 Q2256.5 426.491 2251.3 434.651 L2245.74 434.651 Q2250.36 426.699 2252.62 418.852 Q2254.91 410.97 2254.91 402.949 Q2254.91 394.929 2252.62 387.116 Q2250.36 379.304 2245.74 371.318 Z" fill="#000000" fill-rule="nonzero" fill-opacity="1" /></svg>
