<?xml version="1.0" encoding="utf-8"?>
<svg xmlns="http://www.w3.org/2000/svg" xmlns:xlink="http://www.w3.org/1999/xlink" width="600" height="400" viewBox="0 0 2400 1600">
<defs>
  <clipPath id="clip110">
    <rect x="0" y="0" width="2400" height="1600"/>
  </clipPath>
</defs>
<path clip-path="url(#clip110)" d="M0 1600 L2400 1600 L2400 0 L0 0  Z" fill="#ffffff" fill-rule="evenodd" fill-opacity="1"/>
<defs>
  <clipPath id="clip111">
    <rect x="480" y="0" width="1681" height="1600"/>
  </clipPath>
</defs>
<path clip-path="url(#clip110)" d="M149.191 1423.18 L2352.76 1423.18 L2352.76 47.2441 L149.191 47.2441  Z" fill="#ffffff" fill-rule="evenodd" fill-opacity="1"/>
<defs>
  <clipPath id="clip112">
    <rect x="149" y="47" width="2205" height="1377"/>
  </clipPath>
</defs>
<polyline clip-path="url(#clip112)" style="stroke:#000000; stroke-linecap:round; stroke-linejoin:round; stroke-width:2; stroke-opacity:0.1; fill:none" points="211.556,1423.18 211.556,47.2441 "/>
<polyline clip-path="url(#clip112)" style="stroke:#000000; stroke-linecap:round; stroke-linejoin:round; stroke-width:2; stroke-opacity:0.1; fill:none" points="731.265,1423.18 731.265,47.2441 "/>
<polyline clip-path="url(#clip112)" style="stroke:#000000; stroke-linecap:round; stroke-linejoin:round; stroke-width:2; stroke-opacity:0.1; fill:none" points="1250.97,1423.18 1250.97,47.2441 "/>
<polyline clip-path="url(#clip112)" style="stroke:#000000; stroke-linecap:round; stroke-linejoin:round; stroke-width:2; stroke-opacity:0.1; fill:none" points="1770.68,1423.18 1770.68,47.2441 "/>
<polyline clip-path="url(#clip112)" style="stroke:#000000; stroke-linecap:round; stroke-linejoin:round; stroke-width:2; stroke-opacity:0.1; fill:none" points="2290.39,1423.18 2290.39,47.2441 "/>
<polyline clip-path="url(#clip110)" style="stroke:#000000; stroke-linecap:round; stroke-linejoin:round; stroke-width:4; stroke-opacity:1; fill:none" points="149.191,1423.18 2352.76,1423.18 "/>
<polyline clip-path="url(#clip110)" style="stroke:#000000; stroke-linecap:round; stroke-linejoin:round; stroke-width:4; stroke-opacity:1; fill:none" points="211.556,1423.18 211.556,1404.28 "/>
<polyline clip-path="url(#clip110)" style="stroke:#000000; stroke-linecap:round; stroke-linejoin:round; stroke-width:4; stroke-opacity:1; fill:none" points="731.265,1423.18 731.265,1404.28 "/>
<polyline clip-path="url(#clip110)" style="stroke:#000000; stroke-linecap:round; stroke-linejoin:round; stroke-width:4; stroke-opacity:1; fill:none" points="1250.97,1423.18 1250.97,1404.28 "/>
<polyline clip-path="url(#clip110)" style="stroke:#000000; stroke-linecap:round; stroke-linejoin:round; stroke-width:4; stroke-opacity:1; fill:none" points="1770.68,1423.18 1770.68,1404.28 "/>
<polyline clip-path="url(#clip110)" style="stroke:#000000; stroke-linecap:round; stroke-linejoin:round; stroke-width:4; stroke-opacity:1; fill:none" points="2290.39,1423.18 2290.39,1404.28 "/>
<path clip-path="url(#clip110)" d="M211.556 1454.1 Q207.945 1454.1 206.116 1457.66 Q204.311 1461.2 204.311 1468.33 Q204.311 1475.44 206.116 1479.01 Q207.945 1482.55 211.556 1482.55 Q215.19 1482.55 216.996 1479.01 Q218.824 1475.44 218.824 1468.33 Q218.824 1461.2 216.996 1457.66 Q215.19 1454.1 211.556 1454.1 M211.556 1450.39 Q217.366 1450.39 220.422 1455 Q223.5 1459.58 223.5 1468.33 Q223.5 1477.06 220.422 1481.67 Q217.366 1486.25 211.556 1486.25 Q205.746 1486.25 202.667 1481.67 Q199.612 1477.06 199.612 1468.33 Q199.612 1459.58 202.667 1455 Q205.746 1450.39 211.556 1450.39 Z" fill="#000000" fill-rule="nonzero" fill-opacity="1" /><path clip-path="url(#clip110)" d="M721.647 1481.64 L729.285 1481.64 L729.285 1455.28 L720.975 1456.95 L720.975 1452.69 L729.239 1451.02 L733.915 1451.02 L733.915 1481.64 L741.554 1481.64 L741.554 1485.58 L721.647 1485.58 L721.647 1481.64 Z" fill="#000000" fill-rule="nonzero" fill-opacity="1" /><path clip-path="url(#clip110)" d="M1245.63 1481.64 L1261.95 1481.64 L1261.95 1485.58 L1240 1485.58 L1240 1481.64 Q1242.66 1478.89 1247.25 1474.26 Q1251.85 1469.61 1253.03 1468.27 Q1255.28 1465.74 1256.16 1464.01 Q1257.06 1462.25 1257.06 1460.56 Q1257.06 1457.8 1255.12 1456.07 Q1253.2 1454.33 1250.09 1454.33 Q1247.89 1454.33 1245.44 1455.09 Q1243.01 1455.86 1240.23 1457.41 L1240.23 1452.69 Q1243.06 1451.55 1245.51 1450.97 Q1247.96 1450.39 1250 1450.39 Q1255.37 1450.39 1258.57 1453.08 Q1261.76 1455.77 1261.76 1460.26 Q1261.76 1462.39 1260.95 1464.31 Q1260.16 1466.2 1258.06 1468.8 Q1257.48 1469.47 1254.38 1472.69 Q1251.27 1475.88 1245.63 1481.64 Z" fill="#000000" fill-rule="nonzero" fill-opacity="1" /><path clip-path="url(#clip110)" d="M1774.93 1466.95 Q1778.29 1467.66 1780.16 1469.93 Q1782.06 1472.2 1782.06 1475.53 Q1782.06 1480.65 1778.54 1483.45 Q1775.02 1486.25 1768.54 1486.25 Q1766.37 1486.25 1764.05 1485.81 Q1761.76 1485.39 1759.3 1484.54 L1759.3 1480.02 Q1761.25 1481.16 1763.56 1481.74 Q1765.88 1482.32 1768.4 1482.32 Q1772.8 1482.32 1775.09 1480.58 Q1777.41 1478.84 1777.41 1475.53 Q1777.41 1472.48 1775.25 1470.77 Q1773.12 1469.03 1769.3 1469.03 L1765.28 1469.03 L1765.28 1465.19 L1769.49 1465.19 Q1772.94 1465.19 1774.77 1463.82 Q1776.6 1462.43 1776.6 1459.84 Q1776.6 1457.18 1774.7 1455.77 Q1772.82 1454.33 1769.3 1454.33 Q1767.38 1454.33 1765.18 1454.75 Q1762.99 1455.16 1760.35 1456.04 L1760.35 1451.88 Q1763.01 1451.14 1765.32 1450.77 Q1767.66 1450.39 1769.72 1450.39 Q1775.05 1450.39 1778.15 1452.83 Q1781.25 1455.23 1781.25 1459.35 Q1781.25 1462.22 1779.61 1464.21 Q1777.96 1466.18 1774.93 1466.95 Z" fill="#000000" fill-rule="nonzero" fill-opacity="1" /><path clip-path="url(#clip110)" d="M2293.4 1455.09 L2281.59 1473.54 L2293.4 1473.54 L2293.4 1455.09 M2292.17 1451.02 L2298.05 1451.02 L2298.05 1473.54 L2302.98 1473.54 L2302.98 1477.43 L2298.05 1477.43 L2298.05 1485.58 L2293.4 1485.58 L2293.4 1477.43 L2277.8 1477.43 L2277.8 1472.92 L2292.17 1451.02 Z" fill="#000000" fill-rule="nonzero" fill-opacity="1" /><path clip-path="url(#clip110)" d="M1199.28 1522.27 L1199.28 1532.4 L1211.35 1532.4 L1211.35 1536.95 L1199.28 1536.95 L1199.28 1556.3 Q1199.28 1560.66 1200.46 1561.9 Q1201.67 1563.14 1205.33 1563.14 L1211.35 1563.14 L1211.35 1568.04 L1205.33 1568.04 Q1198.55 1568.04 1195.97 1565.53 Q1193.4 1562.98 1193.4 1556.3 L1193.4 1536.95 L1189.1 1536.95 L1189.1 1532.4 L1193.4 1532.4 L1193.4 1522.27 L1199.28 1522.27 Z" fill="#000000" fill-rule="nonzero" fill-opacity="1" /><path clip-path="url(#clip110)" d="M1239.23 1518.52 L1252.72 1518.52 L1252.72 1523.07 L1245.09 1523.07 L1245.09 1572.09 L1252.72 1572.09 L1252.72 1576.64 L1239.23 1576.64 L1239.23 1518.52 Z" fill="#000000" fill-rule="nonzero" fill-opacity="1" /><path clip-path="url(#clip110)" d="M1287.93 1533.45 L1287.93 1538.98 Q1285.44 1537.71 1282.77 1537.07 Q1280.1 1536.44 1277.23 1536.44 Q1272.87 1536.44 1270.68 1537.77 Q1268.51 1539.11 1268.51 1541.79 Q1268.51 1543.82 1270.07 1545 Q1271.63 1546.15 1276.34 1547.2 L1278.35 1547.64 Q1284.58 1548.98 1287.19 1551.43 Q1289.84 1553.85 1289.84 1558.21 Q1289.84 1563.17 1285.89 1566.07 Q1281.97 1568.97 1275.1 1568.97 Q1272.23 1568.97 1269.12 1568.39 Q1266.03 1567.85 1262.59 1566.74 L1262.59 1560.69 Q1265.84 1562.38 1268.99 1563.24 Q1272.14 1564.07 1275.23 1564.07 Q1279.36 1564.07 1281.59 1562.66 Q1283.82 1561.23 1283.82 1558.65 Q1283.82 1556.27 1282.2 1554.99 Q1280.61 1553.72 1275.16 1552.54 L1273.13 1552.07 Q1267.68 1550.92 1265.26 1548.56 Q1262.85 1546.18 1262.85 1542.04 Q1262.85 1537.01 1266.41 1534.27 Q1269.98 1531.54 1276.53 1531.54 Q1279.78 1531.54 1282.64 1532.01 Q1285.51 1532.49 1287.93 1533.45 Z" fill="#000000" fill-rule="nonzero" fill-opacity="1" /><path clip-path="url(#clip110)" d="M1312.85 1518.52 L1312.85 1576.64 L1299.35 1576.64 L1299.35 1572.09 L1306.96 1572.09 L1306.96 1523.07 L1299.35 1523.07 L1299.35 1518.52 L1312.85 1518.52 Z" fill="#000000" fill-rule="nonzero" fill-opacity="1" /><polyline clip-path="url(#clip112)" style="stroke:#000000; stroke-linecap:round; stroke-linejoin:round; stroke-width:2; stroke-opacity:0.1; fill:none" points="149.191,1333.75 2352.76,1333.75 "/>
<polyline clip-path="url(#clip112)" style="stroke:#000000; stroke-linecap:round; stroke-linejoin:round; stroke-width:2; stroke-opacity:0.1; fill:none" points="149.191,1059.53 2352.76,1059.53 "/>
<polyline clip-path="url(#clip112)" style="stroke:#000000; stroke-linecap:round; stroke-linejoin:round; stroke-width:2; stroke-opacity:0.1; fill:none" points="149.191,785.304 2352.76,785.304 "/>
<polyline clip-path="url(#clip112)" style="stroke:#000000; stroke-linecap:round; stroke-linejoin:round; stroke-width:2; stroke-opacity:0.1; fill:none" points="149.191,511.079 2352.76,511.079 "/>
<polyline clip-path="url(#clip112)" style="stroke:#000000; stroke-linecap:round; stroke-linejoin:round; stroke-width:2; stroke-opacity:0.1; fill:none" points="149.191,236.855 2352.76,236.855 "/>
<polyline clip-path="url(#clip110)" style="stroke:#000000; stroke-linecap:round; stroke-linejoin:round; stroke-width:4; stroke-opacity:1; fill:none" points="149.191,1423.18 149.191,47.2441 "/>
<polyline clip-path="url(#clip110)" style="stroke:#000000; stroke-linecap:round; stroke-linejoin:round; stroke-width:4; stroke-opacity:1; fill:none" points="149.191,1333.75 168.089,1333.75 "/>
<polyline clip-path="url(#clip110)" style="stroke:#000000; stroke-linecap:round; stroke-linejoin:round; stroke-width:4; stroke-opacity:1; fill:none" points="149.191,1059.53 168.089,1059.53 "/>
<polyline clip-path="url(#clip110)" style="stroke:#000000; stroke-linecap:round; stroke-linejoin:round; stroke-width:4; stroke-opacity:1; fill:none" points="149.191,785.304 168.089,785.304 "/>
<polyline clip-path="url(#clip110)" style="stroke:#000000; stroke-linecap:round; stroke-linejoin:round; stroke-width:4; stroke-opacity:1; fill:none" points="149.191,511.079 168.089,511.079 "/>
<polyline clip-path="url(#clip110)" style="stroke:#000000; stroke-linecap:round; stroke-linejoin:round; stroke-width:4; stroke-opacity:1; fill:none" points="149.191,236.855 168.089,236.855 "/>
<path clip-path="url(#clip110)" d="M50.9921 1334.21 L80.6679 1334.21 L80.6679 1338.14 L50.9921 1338.14 L50.9921 1334.21 Z" fill="#000000" fill-rule="nonzero" fill-opacity="1" /><path clip-path="url(#clip110)" d="M103.608 1320.55 L91.8021 1339 L103.608 1339 L103.608 1320.55 M102.381 1316.47 L108.26 1316.47 L108.26 1339 L113.191 1339 L113.191 1342.89 L108.26 1342.89 L108.26 1351.03 L103.608 1351.03 L103.608 1342.89 L88.0058 1342.89 L88.0058 1338.37 L102.381 1316.47 Z" fill="#000000" fill-rule="nonzero" fill-opacity="1" /><path clip-path="url(#clip110)" d="M53.0754 1059.98 L82.7512 1059.98 L82.7512 1063.92 L53.0754 1063.92 L53.0754 1059.98 Z" fill="#000000" fill-rule="nonzero" fill-opacity="1" /><path clip-path="url(#clip110)" d="M96.8715 1072.87 L113.191 1072.87 L113.191 1076.81 L91.2465 1076.81 L91.2465 1072.87 Q93.9086 1070.12 98.4919 1065.49 Q103.098 1060.84 104.279 1059.49 Q106.524 1056.97 107.404 1055.24 Q108.307 1053.48 108.307 1051.79 Q108.307 1049.03 106.362 1047.3 Q104.441 1045.56 101.339 1045.56 Q99.14 1045.56 96.6863 1046.32 Q94.2558 1047.09 91.478 1048.64 L91.478 1043.92 Q94.3021 1042.78 96.7558 1042.2 Q99.2095 1041.62 101.246 1041.62 Q106.617 1041.62 109.811 1044.31 Q113.006 1046.99 113.006 1051.49 Q113.006 1053.61 112.196 1055.54 Q111.408 1057.43 109.302 1060.03 Q108.723 1060.7 105.621 1063.92 Q102.52 1067.11 96.8715 1072.87 Z" fill="#000000" fill-rule="nonzero" fill-opacity="1" /><path clip-path="url(#clip110)" d="M101.246 771.103 Q97.6354 771.103 95.8067 774.668 Q94.0012 778.209 94.0012 785.339 Q94.0012 792.445 95.8067 796.01 Q97.6354 799.552 101.246 799.552 Q104.881 799.552 106.686 796.01 Q108.515 792.445 108.515 785.339 Q108.515 778.209 106.686 774.668 Q104.881 771.103 101.246 771.103 M101.246 767.399 Q107.057 767.399 110.112 772.006 Q113.191 776.589 113.191 785.339 Q113.191 794.066 110.112 798.672 Q107.057 803.256 101.246 803.256 Q95.4363 803.256 92.3576 798.672 Q89.3021 794.066 89.3021 785.339 Q89.3021 776.589 92.3576 772.006 Q95.4363 767.399 101.246 767.399 Z" fill="#000000" fill-rule="nonzero" fill-opacity="1" /><path clip-path="url(#clip110)" d="M96.8715 524.424 L113.191 524.424 L113.191 528.359 L91.2465 528.359 L91.2465 524.424 Q93.9086 521.67 98.4919 517.04 Q103.098 512.387 104.279 511.045 Q106.524 508.522 107.404 506.785 Q108.307 505.026 108.307 503.336 Q108.307 500.582 106.362 498.846 Q104.441 497.11 101.339 497.11 Q99.14 497.11 96.6863 497.873 Q94.2558 498.637 91.478 500.188 L91.478 495.466 Q94.3021 494.332 96.7558 493.753 Q99.2095 493.174 101.246 493.174 Q106.617 493.174 109.811 495.86 Q113.006 498.545 113.006 503.035 Q113.006 505.165 112.196 507.086 Q111.408 508.985 109.302 511.577 Q108.723 512.248 105.621 515.466 Q102.52 518.66 96.8715 524.424 Z" fill="#000000" fill-rule="nonzero" fill-opacity="1" /><path clip-path="url(#clip110)" d="M103.608 223.649 L91.8021 242.098 L103.608 242.098 L103.608 223.649 M102.381 219.575 L108.26 219.575 L108.26 242.098 L113.191 242.098 L113.191 245.986 L108.26 245.986 L108.26 254.135 L103.608 254.135 L103.608 245.986 L88.0058 245.986 L88.0058 241.473 L102.381 219.575 Z" fill="#000000" fill-rule="nonzero" fill-opacity="1" /><polyline clip-path="url(#clip112)" style="stroke:#009af9; stroke-linecap:round; stroke-linejoin:round; stroke-width:4; stroke-opacity:1; fill:none" points="211.556,648.192 216.753,650.245 221.95,652.291 227.147,654.328 232.344,656.354 237.541,658.365 242.738,660.362 247.936,662.341 253.133,664.302 258.33,666.241 263.527,668.158 268.724,670.05 273.921,671.915 279.118,673.755 284.315,675.565 289.512,677.342 294.709,679.086 299.906,680.795 305.103,682.466 310.301,684.098 315.498,685.689 320.695,687.237 325.892,688.741 331.089,690.199 336.286,691.61 341.483,692.973 346.68,694.285 351.877,695.546 357.074,696.754 362.271,697.909 367.469,699.009 372.666,700.053 377.863,701.039 383.06,701.967 388.257,702.836 393.454,703.644 398.651,704.391 403.848,705.076 409.045,705.697 414.242,706.255 419.439,706.746 424.636,707.173 429.834,707.532 435.031,707.825 440.228,708.049 445.425,708.205 450.622,708.291 455.819,708.307 461.016,708.267 466.213,708.177 471.41,708.037 476.607,707.847 481.804,707.606 487.002,707.314 492.199,706.97 497.396,706.576 502.593,706.131 507.79,705.635 512.987,705.089 518.184,704.492 523.381,703.846 528.578,703.15 533.775,702.406 538.972,701.614 544.17,700.774 549.367,699.888 554.564,698.955 559.761,697.978 564.958,696.956 570.155,695.891 575.352,694.784 580.549,693.635 585.746,692.446 590.943,691.218 596.14,689.952 601.337,688.651 606.535,687.314 611.732,685.943 616.929,684.54 622.126,683.104 627.323,681.639 632.52,680.144 637.717,678.623 642.914,677.078 648.111,675.508 653.308,673.916 658.505,672.302 663.703,670.669 668.9,669.017 674.097,667.349 679.294,665.667 684.491,663.972 689.688,662.266 694.885,660.55 700.082,658.827 705.279,657.097 710.476,655.364 715.673,653.627 720.87,651.889 726.068,650.153 731.265,648.419 736.462,646.689 741.659,644.967 746.856,643.252 752.053,641.547 757.25,639.853 762.447,638.171 767.644,636.505 772.841,634.855 778.038,633.224 783.236,631.613 788.433,630.024 793.63,628.457 798.827,626.914 804.024,625.398 809.221,623.91 814.418,622.451 819.615,621.023 824.812,619.628 830.009,618.266 835.206,616.939 840.403,615.648 845.601,614.395 850.798,613.181 855.995,612.007 861.192,610.876 866.389,609.787 871.586,608.742 876.783,607.741 881.98,606.787 887.177,605.88 892.374,605.021 897.571,604.211 902.769,603.452 907.966,602.743 913.163,602.086 918.36,601.482 923.557,600.931 928.754,600.435 933.951,599.994 939.148,599.608 944.345,599.279 949.542,599.007 954.739,598.792 959.936,598.636 965.134,598.538 970.331,598.5 975.528,598.52 980.725,598.576 985.922,598.67 991.119,598.805 996.316,598.98 1001.51,599.195 1006.71,599.45 1011.91,599.746 1017.1,600.082 1022.3,600.459 1027.5,600.875 1032.7,601.332 1037.89,601.828 1043.09,602.364 1048.29,602.939 1053.48,603.552 1058.68,604.204 1063.88,604.893 1069.08,605.619 1074.27,606.381 1079.47,607.18 1084.67,608.013 1089.86,608.881 1095.06,609.782 1100.26,610.716 1105.45,611.682 1110.65,612.678 1115.85,613.705 1121.05,614.761 1126.24,615.845 1131.44,616.956 1136.64,618.092 1141.83,619.253 1147.03,620.438 1152.23,621.645 1157.43,622.875 1162.62,624.124 1167.82,625.392 1173.02,626.678 1178.21,627.98 1183.41,629.298 1188.61,630.63 1193.81,631.974 1199,633.33 1204.2,634.696 1209.4,636.07 1214.59,637.451 1219.79,638.839 1224.99,640.231 1230.19,641.626 1235.38,643.022 1240.58,644.419 1245.78,645.815 1250.97,647.209 1256.17,648.598 1261.37,649.982 1266.56,651.358 1271.76,652.728 1276.96,654.087 1282.16,655.436 1287.35,656.772 1292.55,658.095 1297.75,659.402 1302.94,660.693 1308.14,661.966 1313.34,663.221 1318.54,664.456 1323.73,665.669 1328.93,666.859 1334.13,668.025 1339.32,669.165 1344.52,670.28 1349.72,671.367 1354.92,672.426 1360.11,673.455 1365.31,674.453 1370.51,675.419 1375.7,676.352 1380.9,677.252 1386.1,678.117 1391.29,678.945 1396.49,679.738 1401.69,680.492 1406.89,681.208 1412.08,681.884 1417.28,682.521 1422.48,683.116 1427.67,683.67 1432.87,684.182 1438.07,684.65 1443.27,685.075 1448.46,685.455 1453.66,685.79 1458.86,686.08 1464.05,686.323 1469.25,686.52 1474.45,686.67 1479.65,686.772 1484.84,686.825 1490.04,686.828 1495.24,686.797 1500.43,686.739 1505.63,686.655 1510.83,686.542 1516.02,686.401 1521.22,686.23 1526.42,686.03 1531.62,685.801 1536.81,685.543 1542.01,685.255 1547.21,684.939 1552.4,684.594 1557.6,684.22 1562.8,683.818 1568,683.387 1573.19,682.928 1578.39,682.442 1583.59,681.929 1588.78,681.389 1593.98,680.823 1599.18,680.231 1604.38,679.613 1609.57,678.97 1614.77,678.304 1619.97,677.614 1625.16,676.901 1630.36,676.165 1635.56,675.406 1640.75,674.627 1645.95,673.827 1651.15,673.008 1656.35,672.17 1661.54,671.313 1666.74,670.438 1671.94,669.547 1677.13,668.641 1682.33,667.72 1687.53,666.785 1692.73,665.836 1697.92,664.875 1703.12,663.904 1708.32,662.922 1713.51,661.931 1718.71,660.932 1723.91,659.924 1729.11,658.911 1734.3,657.893 1739.5,656.87 1744.7,655.844 1749.89,654.816 1755.09,653.786 1760.29,652.756 1765.49,651.727 1770.68,650.7 1775.88,649.676 1781.08,648.655 1786.27,647.64 1791.47,646.63 1796.67,645.628 1801.86,644.633 1807.06,643.648 1812.26,642.672 1817.46,641.708 1822.65,640.755 1827.85,639.815 1833.05,638.89 1838.24,637.979 1843.44,637.084 1848.64,636.206 1853.84,635.346 1859.03,634.504 1864.23,633.682 1869.43,632.88 1874.62,632.099 1879.82,631.34 1885.02,630.604 1890.22,629.892 1895.41,629.205 1900.61,628.543 1905.81,627.906 1911,627.296 1916.2,626.714 1921.4,626.16 1926.59,625.636 1931.79,625.14 1936.99,624.674 1942.19,624.239 1947.38,623.835 1952.58,623.464 1957.78,623.124 1962.97,622.818 1968.17,622.544 1973.37,622.305 1978.57,622.101 1983.76,621.931 1988.96,621.797 1994.16,621.699 1999.35,621.637 2004.55,621.611 2009.75,621.621 2014.95,621.647 2020.14,621.687 2025.34,621.743 2030.54,621.815 2035.73,621.904 2040.93,622.009 2046.13,622.131 2051.32,622.269 2056.52,622.425 2061.72,622.597 2066.92,622.786 2072.11,622.992 2077.31,623.214 2082.51,623.453 2087.7,623.708 2092.9,623.979 2098.1,624.267 2103.3,624.57 2108.49,624.889 2113.69,625.223 2118.89,625.573 2124.08,625.938 2129.28,626.317 2134.48,626.71 2139.68,627.116 2144.87,627.537 2150.07,627.971 2155.27,628.418 2160.46,628.878 2165.66,629.35 2170.86,629.832 2176.05,630.326 2181.25,630.832 2186.45,631.347 2191.65,631.873 2196.84,632.409 2202.04,632.954 2207.24,633.507 2212.43,634.067 2217.63,634.636 2222.83,635.211 2228.03,635.793 2233.22,636.381 2238.42,636.974 2243.62,637.572 2248.81,638.173 2254.01,638.778 2259.21,639.387 2264.41,639.997 2269.6,640.61 2274.8,641.224 2280,641.838 2285.19,642.452 2290.39,643.065 "/>
<polyline clip-path="url(#clip112)" style="stroke:#e26f46; stroke-linecap:round; stroke-linejoin:round; stroke-width:4; stroke-opacity:1; fill:none" points="211.556,990.973 216.753,990.36 221.95,989.565 227.147,988.571 232.344,987.375 237.541,985.979 242.738,984.382 247.936,982.589 253.133,980.597 258.33,978.412 263.527,976.033 268.724,973.464 273.921,970.706 279.118,967.76 284.315,964.63 289.512,961.321 294.709,957.834 299.906,954.171 305.103,950.339 310.301,946.34 315.498,942.178 320.695,937.858 325.892,933.382 331.089,928.756 336.286,923.982 341.483,919.067 346.68,914.013 351.877,908.825 357.074,903.508 362.271,898.066 367.469,892.503 372.666,886.824 377.863,881.033 383.06,875.135 388.257,869.133 393.454,863.034 398.651,856.838 403.848,850.552 409.045,844.179 414.242,837.723 419.439,831.188 424.636,824.575 429.834,817.887 435.031,811.127 440.228,804.299 445.425,797.404 450.622,790.459 455.819,784.009 461.016,778.991 466.213,773.939 471.41,768.862 476.607,763.764 481.804,758.654 487.002,753.539 492.199,748.425 497.396,743.323 502.593,738.235 507.79,733.172 512.987,728.136 518.184,723.139 523.381,718.185 528.578,713.281 533.775,708.433 538.972,703.649 544.17,698.932 549.367,694.291 554.564,689.732 559.761,685.258 564.958,680.875 570.155,676.59 575.352,672.408 580.549,668.331 585.746,664.366 590.943,660.518 596.14,656.79 601.337,653.183 606.535,649.703 611.732,646.355 616.929,643.143 622.126,640.071 627.323,637.144 632.52,634.366 637.717,631.73 642.914,629.243 648.111,626.911 653.308,624.737 658.505,622.724 663.703,620.874 668.9,619.191 674.097,617.674 679.294,616.318 684.491,615.131 689.688,614.114 694.885,613.269 700.082,612.596 705.279,612.097 710.476,611.773 715.673,611.621 720.87,611.644 726.068,611.84 731.265,612.211 736.462,612.756 741.659,613.474 746.856,614.365 752.053,615.428 757.25,616.662 762.447,618.066 767.644,619.637 772.841,621.376 778.038,623.279 783.236,625.346 788.433,627.573 793.63,629.961 798.827,632.506 804.024,635.206 809.221,638.058 814.418,641.059 819.615,644.206 824.812,647.497 830.009,650.928 835.206,654.5 840.403,658.205 845.601,662.043 850.798,666.007 855.995,670.096 861.192,674.305 866.389,678.631 871.586,683.074 876.783,687.627 881.98,692.288 887.177,697.051 892.374,701.913 897.571,706.869 902.769,711.916 907.966,717.054 913.163,722.279 918.36,727.587 923.557,732.974 928.754,738.434 933.951,743.966 939.148,749.564 944.345,755.226 949.542,760.954 954.739,766.743 959.936,772.592 965.134,778.497 970.331,784.436 975.528,788.687 980.725,792.673 985.922,796.683 991.119,800.711 996.316,804.755 1001.51,808.804 1006.71,812.858 1011.91,816.909 1017.1,820.952 1022.3,824.982 1027.5,828.992 1032.7,832.978 1037.89,836.937 1043.09,840.861 1048.29,844.745 1053.48,848.586 1058.68,852.377 1063.88,856.114 1069.08,859.793 1074.27,863.407 1079.47,866.954 1084.67,870.427 1089.86,873.825 1095.06,877.142 1100.26,880.373 1105.45,883.515 1110.65,886.567 1115.85,889.523 1121.05,892.378 1126.24,895.131 1131.44,897.782 1136.64,900.324 1141.83,902.755 1147.03,905.071 1152.23,907.27 1157.43,909.347 1162.62,911.305 1167.82,913.142 1173.02,914.852 1178.21,916.435 1183.41,917.887 1188.61,919.207 1193.81,920.391 1199,921.444 1204.2,922.362 1209.4,923.144 1214.59,923.788 1219.79,924.294 1224.99,924.66 1230.19,924.886 1235.38,924.973 1240.58,924.921 1245.78,924.728 1250.97,924.395 1256.17,923.923 1261.37,923.31 1266.56,922.559 1271.76,921.67 1276.96,920.643 1282.16,919.48 1287.35,918.181 1292.55,916.747 1297.75,915.181 1302.94,913.484 1308.14,911.655 1313.34,909.698 1318.54,907.614 1323.73,905.405 1328.93,903.073 1334.13,900.621 1339.32,898.05 1344.52,895.361 1349.72,892.558 1354.92,889.643 1360.11,886.619 1365.31,883.488 1370.51,880.253 1375.7,876.917 1380.9,873.48 1386.1,869.948 1391.29,866.321 1396.49,862.605 1401.69,858.801 1406.89,854.913 1412.08,850.943 1417.28,846.892 1422.48,842.765 1427.67,838.564 1432.87,834.292 1438.07,829.953 1443.27,825.55 1448.46,821.084 1453.66,816.555 1458.86,811.967 1464.05,807.324 1469.25,802.628 1474.45,797.881 1479.65,793.085 1484.84,788.244 1490.04,784.174 1495.24,781.312 1500.43,778.433 1505.63,775.538 1510.83,772.629 1516.02,769.711 1521.22,766.787 1526.42,763.86 1531.62,760.937 1536.81,758.018 1542.01,755.107 1547.21,752.21 1552.4,749.328 1557.6,746.466 1562.8,743.627 1568,740.816 1573.19,738.036 1578.39,735.291 1583.59,732.583 1588.78,729.915 1593.98,727.292 1599.18,724.717 1604.38,722.194 1609.57,719.726 1614.77,717.312 1619.97,714.958 1625.16,712.668 1630.36,710.444 1635.56,708.29 1640.75,706.205 1645.95,704.193 1651.15,702.256 1656.35,700.398 1661.54,698.621 1666.74,696.928 1671.94,695.316 1677.13,693.791 1682.33,692.354 1687.53,691.008 1692.73,689.755 1697.92,688.594 1703.12,687.525 1708.32,686.552 1713.51,685.676 1718.71,684.901 1723.91,684.226 1729.11,683.646 1734.3,683.167 1739.5,682.79 1744.7,682.516 1749.89,682.346 1755.09,682.278 1760.29,682.31 1765.49,682.446 1770.68,682.685 1775.88,683.029 1781.08,683.478 1786.27,684.026 1791.47,684.675 1796.67,685.427 1801.86,686.281 1807.06,687.238 1812.26,688.295 1817.46,689.448 1822.65,690.699 1827.85,692.048 1833.05,693.495 1838.24,695.039 1843.44,696.674 1848.64,698.4 1853.84,700.218 1859.03,702.126 1864.23,704.124 1869.43,706.209 1874.62,708.376 1879.82,710.626 1885.02,712.958 1890.22,715.371 1895.41,717.862 1900.61,720.429 1905.81,723.068 1911,725.779 1916.2,728.561 1921.4,731.411 1926.59,734.328 1931.79,737.307 1936.99,740.348 1942.19,743.449 1947.38,746.607 1952.58,749.821 1957.78,753.089 1962.97,756.409 1968.17,759.777 1973.37,763.193 1978.57,766.655 1983.76,770.16 1988.96,773.707 1994.16,777.295 1999.35,780.92 2004.55,784.567 2009.75,786.614 2014.95,788.265 2020.14,789.924 2025.34,791.593 2030.54,793.268 2035.73,794.95 2040.93,796.635 2046.13,798.323 2051.32,800.009 2056.52,801.695 2061.72,803.375 2066.92,805.048 2072.11,806.716 2077.31,808.373 2082.51,810.018 2087.7,811.649 2092.9,813.266 2098.1,814.864 2103.3,816.443 2108.49,818 2113.69,819.533 2118.89,821.041 2124.08,822.521 2129.28,823.972 2134.48,825.394 2139.68,826.782 2144.87,828.137 2150.07,829.455 2155.27,830.735 2160.46,831.975 2165.66,833.174 2170.86,834.333 2176.05,835.449 2181.25,836.519 2186.45,837.542 2191.65,838.517 2196.84,839.441 2202.04,840.315 2207.24,841.141 2212.43,841.915 2217.63,842.635 2222.83,843.3 2228.03,843.908 2233.22,844.459 2238.42,844.953 2243.62,845.393 2248.81,845.775 2254.01,846.097 2259.21,846.359 2264.41,846.559 2269.6,846.697 2274.8,846.775 2280,846.796 2285.19,846.755 2290.39,846.652 "/>
<polyline clip-path="url(#clip112)" style="stroke:#3da44d; stroke-linecap:round; stroke-linejoin:round; stroke-width:4; stroke-opacity:1; fill:none" points="211.556,737.33 216.753,716.802 221.95,696.339 227.147,675.967 232.344,655.705 237.541,635.592 242.738,615.612 247.936,595.816 253.133,576.192 258.33,556.785 263.527,537.589 268.724,518.635 273.921,499.935 279.118,481.488 284.315,463.321 289.512,445.465 294.709,427.924 299.906,410.712 305.103,393.855 310.301,377.365 315.498,361.257 320.695,345.536 325.892,330.22 331.089,315.32 336.286,300.84 341.483,286.788 346.68,273.172 351.877,259.998 357.074,247.266 362.271,234.981 367.469,223.145 372.666,211.75 377.863,200.799 383.06,190.287 388.257,180.207 393.454,170.553 398.651,161.306 403.848,152.454 409.045,143.981 414.242,135.864 419.439,128.08 424.636,120.594 429.834,113.37 435.031,106.367 440.228,99.5386 445.425,92.8294 450.622,86.1857 455.819,285.769 461.016,281.677 466.213,278.38 471.41,275.888 476.607,274.18 481.804,273.251 487.002,273.088 492.199,273.676 497.396,275.003 502.593,277.051 507.79,279.806 512.987,283.252 518.184,287.372 523.381,292.153 528.578,297.575 533.775,303.623 538.972,310.28 544.17,317.526 549.367,325.348 554.564,333.732 559.761,342.656 564.958,352.103 570.155,362.062 575.352,372.519 580.549,383.445 585.746,394.831 590.943,406.663 596.14,418.922 601.337,431.58 606.535,444.628 611.732,458.051 616.929,471.833 622.126,485.961 627.323,500.418 632.52,515.193 637.717,530.243 642.914,545.563 648.111,561.141 653.308,576.961 658.505,593.008 663.703,609.265 668.9,625.716 674.097,642.34 679.294,659.11 684.491,676.018 689.688,693.045 694.885,710.174 700.082,727.388 705.279,744.667 710.476,761.996 715.673,779.358 720.87,796.735 726.068,814.107 731.265,831.458 736.462,848.768 741.659,866.019 746.856,883.192 752.053,900.278 757.25,917.265 762.447,934.128 767.644,950.852 772.841,967.42 778.038,983.814 783.236,1000.02 788.433,1016.02 793.63,1031.81 798.827,1047.38 804.024,1062.7 809.221,1077.77 814.418,1092.57 819.615,1107.08 824.812,1121.3 830.009,1135.22 835.206,1148.83 840.403,1162.11 845.601,1175.07 850.798,1187.69 855.995,1199.96 861.192,1211.87 866.389,1223.43 871.586,1234.63 876.783,1245.47 881.98,1255.94 887.177,1266.04 892.374,1275.78 897.571,1285.15 902.769,1294.16 907.966,1302.82 913.163,1311.13 918.36,1319.11 923.557,1326.76 928.754,1334.1 933.951,1341.14 939.148,1347.91 944.345,1354.42 949.542,1360.71 954.739,1366.8 959.936,1372.73 965.134,1378.53 970.331,1384.24 975.528,1182.32 980.725,1185.25 985.922,1187.6 991.119,1189.37 996.316,1190.56 1001.51,1191.16 1006.71,1191.2 1011.91,1190.67 1017.1,1189.58 1022.3,1187.94 1027.5,1185.76 1032.7,1183.04 1037.89,1179.8 1043.09,1176.04 1048.29,1171.78 1053.48,1167.02 1058.68,1161.78 1063.88,1156.07 1069.08,1149.9 1074.27,1143.28 1079.47,1136.23 1084.67,1128.75 1089.86,1120.86 1095.06,1112.58 1100.26,1103.9 1105.45,1094.85 1110.65,1085.45 1115.85,1075.69 1121.05,1065.6 1126.24,1055.19 1131.44,1044.48 1136.64,1033.47 1141.83,1022.18 1147.03,1010.63 1152.23,998.82 1157.43,986.766 1162.62,974.49 1167.82,962.008 1173.02,949.328 1178.21,936.463 1183.41,923.426 1188.61,910.232 1193.81,896.892 1199,883.427 1204.2,869.85 1209.4,856.173 1214.59,842.412 1219.79,828.579 1224.99,814.691 1230.19,800.761 1235.38,786.8 1240.58,772.825 1245.78,758.849 1250.97,744.888 1256.17,730.957 1261.37,717.068 1266.56,703.239 1271.76,689.472 1276.96,675.785 1282.16,662.193 1287.35,648.709 1292.55,635.347 1297.75,622.12 1302.94,609.04 1308.14,596.109 1313.34,583.345 1318.54,570.759 1323.73,558.363 1328.93,546.167 1334.13,534.182 1339.32,522.417 1344.52,510.873 1349.72,499.565 1354.92,488.501 1360.11,477.688 1365.31,467.133 1370.51,456.843 1375.7,446.823 1380.9,437.073 1386.1,427.601 1391.29,418.41 1396.49,409.504 1401.69,400.883 1406.89,392.55 1412.08,384.504 1417.28,376.739 1422.48,369.257 1427.67,362.054 1432.87,355.125 1438.07,348.466 1443.27,342.069 1448.46,335.924 1453.66,330.02 1458.86,324.345 1464.05,318.887 1469.25,313.629 1474.45,308.553 1479.65,303.641 1484.84,298.868 1490.04,500.709 1495.24,498.413 1500.43,496.468 1505.63,494.891 1510.83,493.695 1516.02,492.883 1521.22,492.456 1526.42,492.414 1531.62,492.758 1536.81,493.484 1542.01,494.589 1547.21,496.07 1552.4,497.926 1557.6,500.149 1562.8,502.737 1568,505.685 1573.19,508.986 1578.39,512.636 1583.59,516.622 1588.78,520.939 1593.98,525.583 1599.18,530.548 1604.38,535.828 1609.57,541.415 1614.77,547.286 1619.97,553.446 1625.16,559.886 1630.36,566.602 1635.56,573.586 1640.75,580.816 1645.95,588.284 1651.15,595.988 1656.35,603.919 1661.54,612.07 1666.74,620.432 1671.94,628.977 1677.13,637.708 1682.33,646.617 1687.53,655.693 1692.73,664.93 1697.92,674.309 1703.12,683.817 1708.32,693.45 1713.51,703.199 1718.71,713.054 1723.91,723.005 1729.11,733.031 1734.3,743.13 1739.5,753.291 1744.7,763.504 1749.89,773.759 1755.09,784.045 1760.29,794.348 1765.49,804.661 1770.68,814.974 1775.88,825.277 1781.08,835.561 1786.27,845.813 1791.47,856.025 1796.67,866.187 1801.86,876.29 1807.06,886.325 1812.26,896.282 1817.46,906.153 1822.65,915.928 1827.85,925.6 1833.05,935.158 1838.24,944.596 1843.44,953.907 1848.64,963.083 1853.84,972.116 1859.03,980.998 1864.23,989.722 1869.43,998.283 1874.62,1006.68 1879.82,1014.9 1885.02,1022.94 1890.22,1030.79 1895.41,1038.46 1900.61,1045.93 1905.81,1053.21 1911,1060.29 1916.2,1067.16 1921.4,1073.83 1926.59,1080.29 1931.79,1086.55 1936.99,1092.6 1942.19,1098.44 1947.38,1104.07 1952.58,1109.5 1957.78,1114.72 1962.97,1119.75 1968.17,1124.58 1973.37,1129.21 1978.57,1133.66 1983.76,1137.91 1988.96,1142 1994.16,1145.91 1999.35,1149.66 2004.55,1153.25 2009.75,949.413 2014.95,950.67 2020.14,951.756 2025.34,952.654 2030.54,953.359 2035.73,953.869 2040.93,954.178 2046.13,954.288 2051.32,954.195 2056.52,953.899 2061.72,953.399 2066.92,952.696 2072.11,951.79 2077.31,950.683 2082.51,949.375 2087.7,947.866 2092.9,946.159 2098.1,944.256 2103.3,942.159 2108.49,939.868 2113.69,937.388 2118.89,934.722 2124.08,931.871 2129.28,928.842 2134.48,925.642 2139.68,922.271 2144.87,918.732 2150.07,915.026 2155.27,911.158 2160.46,907.13 2165.66,902.952 2170.86,898.639 2176.05,894.183 2181.25,889.59 2186.45,884.862 2191.65,880.004 2196.84,875.02 2202.04,869.921 2207.24,864.723 2212.43,859.419 2217.63,854.016 2222.83,848.517 2228.03,842.927 2233.22,837.25 2238.42,831.499 2243.62,825.688 2248.81,819.812 2254.01,813.877 2259.21,807.889 2264.41,801.853 2269.6,795.775 2274.8,789.663 2280,783.53 2285.19,777.376 2290.39,771.206 "/>
<polyline clip-path="url(#clip112)" style="stroke:#c271d2; stroke-linecap:round; stroke-linejoin:round; stroke-width:4; stroke-opacity:1; fill:none" points="211.556,833.279 216.753,833.279 221.95,833.28 227.147,833.281 232.344,833.283 237.541,833.287 242.738,833.294 247.936,833.304 253.133,833.318 258.33,833.337 263.527,833.363 268.724,833.397 273.921,833.44 279.118,833.494 284.315,833.561 289.512,833.643 294.709,833.744 299.906,833.864 305.103,834.008 310.301,834.179 315.498,834.381 320.695,834.617 325.892,834.893 331.089,835.214 336.286,835.585 341.483,836.013 346.68,836.506 351.877,837.071 357.074,837.717 362.271,838.455 367.469,839.296 372.666,840.252 377.863,841.336 383.06,842.566 388.257,843.958 393.454,845.531 398.651,847.308 403.848,849.312 409.045,851.572 414.242,854.118 419.439,856.983 424.636,860.207 429.834,863.834 435.031,867.913 440.228,872.498 445.425,877.651 450.622,883.431 455.819,683.688 461.016,688.186 466.213,692.375 471.41,696.267 476.607,699.877 481.804,703.219 487.002,706.304 492.199,709.149 497.396,711.765 502.593,714.169 507.79,716.372 512.987,718.39 518.184,720.233 523.381,721.916 528.578,723.448 533.775,724.843 538.972,726.11 544.17,727.259 549.367,728.3 554.564,729.241 559.761,730.092 564.958,730.86 570.155,731.551 575.352,732.173 580.549,732.731 585.746,733.233 590.943,733.681 596.14,734.083 601.337,734.441 606.535,734.761 611.732,735.046 616.929,735.299 622.126,735.523 627.323,735.721 632.52,735.896 637.717,736.05 642.914,736.186 648.111,736.304 653.308,736.408 658.505,736.498 663.703,736.576 668.9,736.643 674.097,736.7 679.294,736.749 684.491,736.789 689.688,736.823 694.885,736.85 700.082,736.87 705.279,736.886 710.476,736.895 715.673,736.9 720.87,736.899 726.068,736.893 731.265,736.882 736.462,736.866 741.659,736.843 746.856,736.815 752.053,736.779 757.25,736.736 762.447,736.686 767.644,736.625 772.841,736.555 778.038,736.474 783.236,736.38 788.433,736.271 793.63,736.147 798.827,736.006 804.024,735.844 809.221,735.661 814.418,735.453 819.615,735.217 824.812,734.951 830.009,734.652 835.206,734.314 840.403,733.934 845.601,733.508 850.798,733.03 855.995,732.495 861.192,731.897 866.389,731.229 871.586,730.482 876.783,729.65 881.98,728.723 887.177,727.691 892.374,726.544 897.571,725.269 902.769,723.853 907.966,722.281 913.163,720.535 918.36,718.6 923.557,716.455 928.754,714.078 933.951,711.447 939.148,708.535 944.345,705.314 949.542,701.748 954.739,697.802 959.936,693.438 965.134,688.61 970.331,683.289 975.528,885.007 980.725,881.521 985.922,878.223 991.119,875.111 996.316,872.177 1001.51,869.418 1006.71,866.827 1011.91,864.398 1017.1,862.124 1022.3,859.998 1027.5,858.016 1032.7,856.167 1037.89,854.446 1043.09,852.847 1048.29,851.361 1053.48,849.984 1058.68,848.708 1063.88,847.528 1069.08,846.437 1074.27,845.429 1079.47,844.501 1084.67,843.645 1089.86,842.857 1095.06,842.133 1100.26,841.468 1105.45,840.857 1110.65,840.297 1115.85,839.785 1121.05,839.316 1126.24,838.887 1131.44,838.496 1136.64,838.139 1141.83,837.815 1147.03,837.52 1152.23,837.253 1157.43,837.011 1162.62,836.793 1167.82,836.597 1173.02,836.42 1178.21,836.263 1183.41,836.123 1188.61,836 1193.81,835.893 1199,835.8 1204.2,835.721 1209.4,835.655 1214.59,835.601 1219.79,835.559 1224.99,835.53 1230.19,835.511 1235.38,835.504 1240.58,835.509 1245.78,835.524 1250.97,835.551 1256.17,835.59 1261.37,835.641 1266.56,835.704 1271.76,835.78 1276.96,835.871 1282.16,835.975 1287.35,836.096 1292.55,836.233 1297.75,836.387 1302.94,836.561 1308.14,836.755 1313.34,836.972 1318.54,837.212 1323.73,837.479 1328.93,837.773 1334.13,838.099 1339.32,838.458 1344.52,838.853 1349.72,839.287 1354.92,839.764 1360.11,840.288 1365.31,840.862 1370.51,841.492 1375.7,842.18 1380.9,842.935 1386.1,843.76 1391.29,844.662 1396.49,845.648 1401.69,846.724 1406.89,847.899 1412.08,849.181 1417.28,850.581 1422.48,852.107 1427.67,853.771 1432.87,855.584 1438.07,857.559 1443.27,859.71 1448.46,862.052 1453.66,864.604 1458.86,867.382 1464.05,870.406 1469.25,873.697 1474.45,877.277 1479.65,881.172 1484.84,885.408 1490.04,683.534 1495.24,686.148 1500.43,688.665 1505.63,691.085 1510.83,693.409 1516.02,695.638 1521.22,697.772 1526.42,699.812 1531.62,701.759 1536.81,703.616 1542.01,705.384 1547.21,707.066 1552.4,708.664 1557.6,710.179 1562.8,711.615 1568,712.974 1573.19,714.259 1578.39,715.472 1583.59,716.617 1588.78,717.696 1593.98,718.712 1599.18,719.668 1604.38,720.565 1609.57,721.407 1614.77,722.198 1619.97,722.938 1625.16,723.631 1630.36,724.278 1635.56,724.882 1640.75,725.446 1645.95,725.971 1651.15,726.459 1656.35,726.912 1661.54,727.331 1666.74,727.719 1671.94,728.077 1677.13,728.407 1682.33,728.709 1687.53,728.986 1692.73,729.237 1697.92,729.464 1703.12,729.67 1708.32,729.853 1713.51,730.015 1718.71,730.157 1723.91,730.279 1729.11,730.382 1734.3,730.466 1739.5,730.532 1744.7,730.58 1749.89,730.609 1755.09,730.621 1760.29,730.615 1765.49,730.592 1770.68,730.55 1775.88,730.49 1781.08,730.411 1786.27,730.314 1791.47,730.198 1796.67,730.061 1801.86,729.904 1807.06,729.724 1812.26,729.522 1817.46,729.297 1822.65,729.048 1827.85,728.773 1833.05,728.47 1838.24,728.138 1843.44,727.776 1848.64,727.383 1853.84,726.955 1859.03,726.491 1864.23,725.988 1869.43,725.445 1874.62,724.859 1879.82,724.226 1885.02,723.545 1890.22,722.811 1895.41,722.02 1900.61,721.171 1905.81,720.258 1911,719.278 1916.2,718.226 1921.4,717.097 1926.59,715.885 1931.79,714.586 1936.99,713.194 1942.19,711.703 1947.38,710.106 1952.58,708.395 1957.78,706.564 1962.97,704.604 1968.17,702.507 1973.37,700.264 1978.57,697.865 1983.76,695.301 1988.96,692.559 1994.16,689.629 1999.35,686.498 2004.55,683.166 2009.75,886.907 2014.95,885.389 2020.14,883.902 2025.34,882.444 2030.54,881.018 2035.73,879.623 2040.93,878.262 2046.13,876.933 2051.32,875.639 2056.52,874.38 2061.72,873.157 2066.92,871.971 2072.11,870.819 2077.31,869.704 2082.51,868.625 2087.7,867.582 2092.9,866.575 2098.1,865.605 2103.3,864.669 2108.49,863.77 2113.69,862.905 2118.89,862.076 2124.08,861.28 2129.28,860.518 2134.48,859.789 2139.68,859.092 2144.87,858.428 2150.07,857.795 2155.27,857.193 2160.46,856.621 2165.66,856.079 2170.86,855.566 2176.05,855.08 2181.25,854.623 2186.45,854.193 2191.65,853.79 2196.84,853.414 2202.04,853.063 2207.24,852.736 2212.43,852.434 2217.63,852.156 2222.83,851.903 2228.03,851.673 2233.22,851.468 2238.42,851.285 2243.62,851.123 2248.81,850.984 2254.01,850.867 2259.21,850.772 2264.41,850.7 2269.6,850.65 2274.8,850.622 2280,850.615 2285.19,850.63 2290.39,850.666 "/>
<path clip-path="url(#clip110)" d="M1415.15 352.309 L2279.3 352.309 L2279.3 93.1086 L1415.15 93.1086  Z" fill="#ffffff" fill-rule="evenodd" fill-opacity="1"/>
<polyline clip-path="url(#clip110)" style="stroke:#000000; stroke-linecap:round; stroke-linejoin:round; stroke-width:4; stroke-opacity:1; fill:none" points="1415.15,352.309 2279.3,352.309 2279.3,93.1086 1415.15,93.1086 1415.15,352.309 "/>
<polyline clip-path="url(#clip110)" style="stroke:#009af9; stroke-linecap:round; stroke-linejoin:round; stroke-width:4; stroke-opacity:1; fill:none" points="1439.64,144.949 1586.54,144.949 "/>
<path clip-path="url(#clip110)" d="M1631.37 141.28 Q1632.97 138.409 1635.19 137.044 Q1637.42 135.678 1640.42 135.678 Q1644.48 135.678 1646.67 138.525 Q1648.87 141.349 1648.87 146.581 L1648.87 162.229 L1644.59 162.229 L1644.59 146.719 Q1644.59 142.993 1643.27 141.187 Q1641.95 139.382 1639.24 139.382 Q1635.93 139.382 1634.01 141.581 Q1632.09 143.78 1632.09 147.576 L1632.09 162.229 L1627.81 162.229 L1627.81 146.719 Q1627.81 142.969 1626.49 141.187 Q1625.17 139.382 1622.42 139.382 Q1619.15 139.382 1617.23 141.604 Q1615.31 143.803 1615.31 147.576 L1615.31 162.229 L1611.03 162.229 L1611.03 136.303 L1615.31 136.303 L1615.31 140.331 Q1616.77 137.946 1618.8 136.812 Q1620.84 135.678 1623.64 135.678 Q1626.47 135.678 1628.43 137.113 Q1630.42 138.548 1631.37 141.28 Z" fill="#000000" fill-rule="nonzero" fill-opacity="1" /><path clip-path="url(#clip110)" d="M1669.15 149.196 Q1663.99 149.196 1662 150.377 Q1660.01 151.557 1660.01 154.405 Q1660.01 156.673 1661.49 158.016 Q1662.99 159.335 1665.56 159.335 Q1669.11 159.335 1671.23 156.835 Q1673.39 154.312 1673.39 150.145 L1673.39 149.196 L1669.15 149.196 M1677.65 147.437 L1677.65 162.229 L1673.39 162.229 L1673.39 158.293 Q1671.93 160.655 1669.75 161.789 Q1667.58 162.9 1664.43 162.9 Q1660.45 162.9 1658.09 160.678 Q1655.75 158.432 1655.75 154.682 Q1655.75 150.307 1658.67 148.085 Q1661.61 145.863 1667.42 145.863 L1673.39 145.863 L1673.39 145.446 Q1673.39 142.507 1671.44 140.909 Q1669.52 139.289 1666.03 139.289 Q1663.8 139.289 1661.7 139.821 Q1659.59 140.354 1657.65 141.419 L1657.65 137.483 Q1659.98 136.581 1662.18 136.141 Q1664.38 135.678 1666.47 135.678 Q1672.09 135.678 1674.87 138.594 Q1677.65 141.511 1677.65 147.437 Z" fill="#000000" fill-rule="nonzero" fill-opacity="1" /><path clip-path="url(#clip110)" d="M1702.95 137.067 L1702.95 141.094 Q1701.14 140.169 1699.2 139.706 Q1697.25 139.243 1695.17 139.243 Q1692 139.243 1690.4 140.215 Q1688.83 141.187 1688.83 143.131 Q1688.83 144.613 1689.96 145.469 Q1691.1 146.303 1694.52 147.067 L1695.98 147.391 Q1700.52 148.363 1702.42 150.145 Q1704.34 151.905 1704.34 155.076 Q1704.34 158.687 1701.47 160.793 Q1698.62 162.9 1693.62 162.9 Q1691.54 162.9 1689.27 162.483 Q1687.02 162.09 1684.52 161.28 L1684.52 156.881 Q1686.88 158.108 1689.17 158.733 Q1691.47 159.335 1693.71 159.335 Q1696.72 159.335 1698.34 158.317 Q1699.96 157.275 1699.96 155.4 Q1699.96 153.664 1698.78 152.738 Q1697.62 151.812 1693.67 150.956 L1692.18 150.608 Q1688.23 149.775 1686.47 148.062 Q1684.71 146.326 1684.71 143.317 Q1684.71 139.659 1687.3 137.669 Q1689.89 135.678 1694.66 135.678 Q1697.02 135.678 1699.11 136.025 Q1701.19 136.372 1702.95 137.067 Z" fill="#000000" fill-rule="nonzero" fill-opacity="1" /><path clip-path="url(#clip110)" d="M1727.65 137.067 L1727.65 141.094 Q1725.84 140.169 1723.9 139.706 Q1721.95 139.243 1719.87 139.243 Q1716.7 139.243 1715.1 140.215 Q1713.53 141.187 1713.53 143.131 Q1713.53 144.613 1714.66 145.469 Q1715.79 146.303 1719.22 147.067 L1720.68 147.391 Q1725.22 148.363 1727.11 150.145 Q1729.04 151.905 1729.04 155.076 Q1729.04 158.687 1726.17 160.793 Q1723.32 162.9 1718.32 162.9 Q1716.23 162.9 1713.97 162.483 Q1711.72 162.09 1709.22 161.28 L1709.22 156.881 Q1711.58 158.108 1713.87 158.733 Q1716.17 159.335 1718.41 159.335 Q1721.42 159.335 1723.04 158.317 Q1724.66 157.275 1724.66 155.4 Q1724.66 153.664 1723.48 152.738 Q1722.32 151.812 1718.36 150.956 L1716.88 150.608 Q1712.92 149.775 1711.17 148.062 Q1709.41 146.326 1709.41 143.317 Q1709.41 139.659 1712 137.669 Q1714.59 135.678 1719.36 135.678 Q1721.72 135.678 1723.8 136.025 Q1725.89 136.372 1727.65 137.067 Z" fill="#000000" fill-rule="nonzero" fill-opacity="1" /><path clip-path="url(#clip110)" d="M1736.42 156.349 L1741.3 156.349 L1741.3 162.229 L1736.42 162.229 L1736.42 156.349 Z" fill="#000000" fill-rule="nonzero" fill-opacity="1" /><path clip-path="url(#clip110)" d="M1767.41 137.067 L1767.41 141.094 Q1765.61 140.169 1763.66 139.706 Q1761.72 139.243 1759.64 139.243 Q1756.47 139.243 1754.87 140.215 Q1753.29 141.187 1753.29 143.131 Q1753.29 144.613 1754.43 145.469 Q1755.56 146.303 1758.99 147.067 L1760.45 147.391 Q1764.98 148.363 1766.88 150.145 Q1768.8 151.905 1768.8 155.076 Q1768.8 158.687 1765.93 160.793 Q1763.09 162.9 1758.09 162.9 Q1756 162.9 1753.73 162.483 Q1751.49 162.09 1748.99 161.28 L1748.99 156.881 Q1751.35 158.108 1753.64 158.733 Q1755.93 159.335 1758.18 159.335 Q1761.19 159.335 1762.81 158.317 Q1764.43 157.275 1764.43 155.4 Q1764.43 153.664 1763.25 152.738 Q1762.09 151.812 1758.13 150.956 L1756.65 150.608 Q1752.69 149.775 1750.93 148.062 Q1749.17 146.326 1749.17 143.317 Q1749.17 139.659 1751.77 137.669 Q1754.36 135.678 1759.13 135.678 Q1761.49 135.678 1763.57 136.025 Q1765.66 136.372 1767.41 137.067 Z" fill="#000000" fill-rule="nonzero" fill-opacity="1" /><path clip-path="url(#clip110)" d="M1800.89 126.257 Q1797.79 131.581 1796.28 136.789 Q1794.78 141.997 1794.78 147.344 Q1794.78 152.692 1796.28 157.946 Q1797.81 163.178 1800.89 168.479 L1797.18 168.479 Q1793.71 163.039 1791.97 157.784 Q1790.26 152.53 1790.26 147.344 Q1790.26 142.182 1791.97 136.951 Q1793.69 131.72 1797.18 126.257 L1800.89 126.257 Z" fill="#000000" fill-rule="nonzero" fill-opacity="1" /><path clip-path="url(#clip110)" d="M1823.92 143.594 Q1827.28 144.312 1829.15 146.581 Q1831.05 148.849 1831.05 152.182 Q1831.05 157.298 1827.53 160.099 Q1824.01 162.9 1817.53 162.9 Q1815.35 162.9 1813.04 162.46 Q1810.75 162.043 1808.29 161.187 L1808.29 156.673 Q1810.24 157.807 1812.55 158.386 Q1814.87 158.965 1817.39 158.965 Q1821.79 158.965 1824.08 157.229 Q1826.4 155.493 1826.4 152.182 Q1826.4 149.127 1824.24 147.414 Q1822.11 145.678 1818.29 145.678 L1814.27 145.678 L1814.27 141.835 L1818.48 141.835 Q1821.93 141.835 1823.76 140.469 Q1825.59 139.081 1825.59 136.488 Q1825.59 133.826 1823.69 132.414 Q1821.81 130.979 1818.29 130.979 Q1816.37 130.979 1814.17 131.395 Q1811.97 131.812 1809.34 132.692 L1809.34 128.525 Q1812 127.784 1814.31 127.414 Q1816.65 127.044 1818.71 127.044 Q1824.03 127.044 1827.14 129.474 Q1830.24 131.882 1830.24 136.002 Q1830.24 138.872 1828.6 140.863 Q1826.95 142.831 1823.92 143.594 Z" fill="#000000" fill-rule="nonzero" fill-opacity="1" /><path clip-path="url(#clip110)" d="M1854.08 143.594 Q1857.44 144.312 1859.31 146.581 Q1861.21 148.849 1861.21 152.182 Q1861.21 157.298 1857.69 160.099 Q1854.17 162.9 1847.69 162.9 Q1845.52 162.9 1843.2 162.46 Q1840.91 162.043 1838.46 161.187 L1838.46 156.673 Q1840.4 157.807 1842.72 158.386 Q1845.03 158.965 1847.55 158.965 Q1851.95 158.965 1854.24 157.229 Q1856.56 155.493 1856.56 152.182 Q1856.56 149.127 1854.41 147.414 Q1852.28 145.678 1848.46 145.678 L1844.43 145.678 L1844.43 141.835 L1848.64 141.835 Q1852.09 141.835 1853.92 140.469 Q1855.75 139.081 1855.75 136.488 Q1855.75 133.826 1853.85 132.414 Q1851.97 130.979 1848.46 130.979 Q1846.53 130.979 1844.34 131.395 Q1842.14 131.812 1839.5 132.692 L1839.5 128.525 Q1842.16 127.784 1844.47 127.414 Q1846.81 127.044 1848.87 127.044 Q1854.2 127.044 1857.3 129.474 Q1860.4 131.882 1860.4 136.002 Q1860.4 138.872 1858.76 140.863 Q1857.11 142.831 1854.08 143.594 Z" fill="#000000" fill-rule="nonzero" fill-opacity="1" /><path clip-path="url(#clip110)" d="M1870.12 127.669 L1888.48 127.669 L1888.48 131.604 L1874.41 131.604 L1874.41 140.076 Q1875.42 139.729 1876.44 139.567 Q1877.46 139.382 1878.48 139.382 Q1884.27 139.382 1887.65 142.553 Q1891.03 145.724 1891.03 151.141 Q1891.03 156.719 1887.55 159.821 Q1884.08 162.9 1877.76 162.9 Q1875.59 162.9 1873.32 162.53 Q1871.07 162.159 1868.66 161.418 L1868.66 156.719 Q1870.75 157.854 1872.97 158.409 Q1875.19 158.965 1877.67 158.965 Q1881.67 158.965 1884.01 156.858 Q1886.35 154.752 1886.35 151.141 Q1886.35 147.53 1884.01 145.423 Q1881.67 143.317 1877.67 143.317 Q1875.79 143.317 1873.92 143.733 Q1872.07 144.15 1870.12 145.03 L1870.12 127.669 Z" fill="#000000" fill-rule="nonzero" fill-opacity="1" /><path clip-path="url(#clip110)" d="M1900.28 127.669 L1918.64 127.669 L1918.64 131.604 L1904.57 131.604 L1904.57 140.076 Q1905.59 139.729 1906.6 139.567 Q1907.62 139.382 1908.64 139.382 Q1914.43 139.382 1917.81 142.553 Q1921.19 145.724 1921.19 151.141 Q1921.19 156.719 1917.72 159.821 Q1914.24 162.9 1907.92 162.9 Q1905.75 162.9 1903.48 162.53 Q1901.23 162.159 1898.83 161.418 L1898.83 156.719 Q1900.91 157.854 1903.13 158.409 Q1905.35 158.965 1907.83 158.965 Q1911.84 158.965 1914.17 156.858 Q1916.51 154.752 1916.51 151.141 Q1916.51 147.53 1914.17 145.423 Q1911.84 143.317 1907.83 143.317 Q1905.96 143.317 1904.08 143.733 Q1902.23 144.15 1900.28 145.03 L1900.28 127.669 Z" fill="#000000" fill-rule="nonzero" fill-opacity="1" /><path clip-path="url(#clip110)" d="M1943.25 131.743 L1931.44 150.192 L1943.25 150.192 L1943.25 131.743 M1942.02 127.669 L1947.9 127.669 L1947.9 150.192 L1952.83 150.192 L1952.83 154.081 L1947.9 154.081 L1947.9 162.229 L1943.25 162.229 L1943.25 154.081 L1927.65 154.081 L1927.65 149.567 L1942.02 127.669 Z" fill="#000000" fill-rule="nonzero" fill-opacity="1" /><path clip-path="url(#clip110)" d="M1973.41 131.743 L1961.6 150.192 L1973.41 150.192 L1973.41 131.743 M1972.18 127.669 L1978.06 127.669 L1978.06 150.192 L1982.99 150.192 L1982.99 154.081 L1978.06 154.081 L1978.06 162.229 L1973.41 162.229 L1973.41 154.081 L1957.81 154.081 L1957.81 149.567 L1972.18 127.669 Z" fill="#000000" fill-rule="nonzero" fill-opacity="1" /><path clip-path="url(#clip110)" d="M2004.89 143.594 Q2008.25 144.312 2010.12 146.581 Q2012.02 148.849 2012.02 152.182 Q2012.02 157.298 2008.5 160.099 Q2004.98 162.9 1998.5 162.9 Q1996.33 162.9 1994.01 162.46 Q1991.72 162.043 1989.27 161.187 L1989.27 156.673 Q1991.21 157.807 1993.52 158.386 Q1995.84 158.965 1998.36 158.965 Q2002.76 158.965 2005.05 157.229 Q2007.37 155.493 2007.37 152.182 Q2007.37 149.127 2005.21 147.414 Q2003.08 145.678 1999.27 145.678 L1995.24 145.678 L1995.24 141.835 L1999.45 141.835 Q2002.9 141.835 2004.73 140.469 Q2006.56 139.081 2006.56 136.488 Q2006.56 133.826 2004.66 132.414 Q2002.78 130.979 1999.27 130.979 Q1997.34 130.979 1995.15 131.395 Q1992.95 131.812 1990.31 132.692 L1990.31 128.525 Q1992.97 127.784 1995.28 127.414 Q1997.62 127.044 1999.68 127.044 Q2005.01 127.044 2008.11 129.474 Q2011.21 131.882 2011.21 136.002 Q2011.21 138.872 2009.57 140.863 Q2007.92 142.831 2004.89 143.594 Z" fill="#000000" fill-rule="nonzero" fill-opacity="1" /><path clip-path="url(#clip110)" d="M2024.91 158.293 L2041.23 158.293 L2041.23 162.229 L2019.29 162.229 L2019.29 158.293 Q2021.95 155.539 2026.53 150.909 Q2031.14 146.256 2032.32 144.914 Q2034.57 142.391 2035.45 140.655 Q2036.35 138.895 2036.35 137.206 Q2036.35 134.451 2034.4 132.715 Q2032.48 130.979 2029.38 130.979 Q2027.18 130.979 2024.73 131.743 Q2022.3 132.507 2019.52 134.057 L2019.52 129.335 Q2022.34 128.201 2024.8 127.622 Q2027.25 127.044 2029.29 127.044 Q2034.66 127.044 2037.85 129.729 Q2041.05 132.414 2041.05 136.905 Q2041.05 139.034 2040.24 140.956 Q2039.45 142.854 2037.34 145.446 Q2036.77 146.118 2033.66 149.335 Q2030.56 152.53 2024.91 158.293 Z" fill="#000000" fill-rule="nonzero" fill-opacity="1" /><path clip-path="url(#clip110)" d="M2049.77 126.257 L2053.48 126.257 Q2056.95 131.72 2058.66 136.951 Q2060.4 142.182 2060.4 147.344 Q2060.4 152.53 2058.66 157.784 Q2056.95 163.039 2053.48 168.479 L2049.77 168.479 Q2052.85 163.178 2054.36 157.946 Q2055.89 152.692 2055.89 147.344 Q2055.89 141.997 2054.36 136.789 Q2052.85 131.581 2049.77 126.257 Z" fill="#000000" fill-rule="nonzero" fill-opacity="1" /><polyline clip-path="url(#clip110)" style="stroke:#e26f46; stroke-linecap:round; stroke-linejoin:round; stroke-width:4; stroke-opacity:1; fill:none" points="1439.64,196.789 1586.54,196.789 "/>
<path clip-path="url(#clip110)" d="M1631.37 193.12 Q1632.97 190.249 1635.19 188.884 Q1637.42 187.518 1640.42 187.518 Q1644.48 187.518 1646.67 190.365 Q1648.87 193.189 1648.87 198.421 L1648.87 214.069 L1644.59 214.069 L1644.59 198.559 Q1644.59 194.833 1643.27 193.027 Q1641.95 191.222 1639.24 191.222 Q1635.93 191.222 1634.01 193.421 Q1632.09 195.62 1632.09 199.416 L1632.09 214.069 L1627.81 214.069 L1627.81 198.559 Q1627.81 194.809 1626.49 193.027 Q1625.17 191.222 1622.42 191.222 Q1619.15 191.222 1617.23 193.444 Q1615.31 195.643 1615.31 199.416 L1615.31 214.069 L1611.03 214.069 L1611.03 188.143 L1615.31 188.143 L1615.31 192.171 Q1616.77 189.786 1618.8 188.652 Q1620.84 187.518 1623.64 187.518 Q1626.47 187.518 1628.43 188.953 Q1630.42 190.388 1631.37 193.12 Z" fill="#000000" fill-rule="nonzero" fill-opacity="1" /><path clip-path="url(#clip110)" d="M1669.15 201.036 Q1663.99 201.036 1662 202.217 Q1660.01 203.397 1660.01 206.245 Q1660.01 208.513 1661.49 209.856 Q1662.99 211.175 1665.56 211.175 Q1669.11 211.175 1671.23 208.675 Q1673.39 206.152 1673.39 201.985 L1673.39 201.036 L1669.15 201.036 M1677.65 199.277 L1677.65 214.069 L1673.39 214.069 L1673.39 210.133 Q1671.93 212.495 1669.75 213.629 Q1667.58 214.74 1664.43 214.74 Q1660.45 214.74 1658.09 212.518 Q1655.75 210.272 1655.75 206.522 Q1655.75 202.147 1658.67 199.925 Q1661.61 197.703 1667.42 197.703 L1673.39 197.703 L1673.39 197.286 Q1673.39 194.347 1671.44 192.749 Q1669.52 191.129 1666.03 191.129 Q1663.8 191.129 1661.7 191.661 Q1659.59 192.194 1657.65 193.259 L1657.65 189.323 Q1659.98 188.421 1662.18 187.981 Q1664.38 187.518 1666.47 187.518 Q1672.09 187.518 1674.87 190.434 Q1677.65 193.351 1677.65 199.277 Z" fill="#000000" fill-rule="nonzero" fill-opacity="1" /><path clip-path="url(#clip110)" d="M1702.95 188.907 L1702.95 192.934 Q1701.14 192.009 1699.2 191.546 Q1697.25 191.083 1695.17 191.083 Q1692 191.083 1690.4 192.055 Q1688.83 193.027 1688.83 194.971 Q1688.83 196.453 1689.96 197.309 Q1691.1 198.143 1694.52 198.907 L1695.98 199.231 Q1700.52 200.203 1702.42 201.985 Q1704.34 203.745 1704.34 206.916 Q1704.34 210.527 1701.47 212.633 Q1698.62 214.74 1693.62 214.74 Q1691.54 214.74 1689.27 214.323 Q1687.02 213.93 1684.52 213.12 L1684.52 208.721 Q1686.88 209.948 1689.17 210.573 Q1691.47 211.175 1693.71 211.175 Q1696.72 211.175 1698.34 210.157 Q1699.96 209.115 1699.96 207.24 Q1699.96 205.504 1698.78 204.578 Q1697.62 203.652 1693.67 202.796 L1692.18 202.448 Q1688.23 201.615 1686.47 199.902 Q1684.71 198.166 1684.71 195.157 Q1684.71 191.499 1687.3 189.509 Q1689.89 187.518 1694.66 187.518 Q1697.02 187.518 1699.11 187.865 Q1701.19 188.212 1702.95 188.907 Z" fill="#000000" fill-rule="nonzero" fill-opacity="1" /><path clip-path="url(#clip110)" d="M1727.65 188.907 L1727.65 192.934 Q1725.84 192.009 1723.9 191.546 Q1721.95 191.083 1719.87 191.083 Q1716.7 191.083 1715.1 192.055 Q1713.53 193.027 1713.53 194.971 Q1713.53 196.453 1714.66 197.309 Q1715.79 198.143 1719.22 198.907 L1720.68 199.231 Q1725.22 200.203 1727.11 201.985 Q1729.04 203.745 1729.04 206.916 Q1729.04 210.527 1726.17 212.633 Q1723.32 214.74 1718.32 214.74 Q1716.23 214.74 1713.97 214.323 Q1711.72 213.93 1709.22 213.12 L1709.22 208.721 Q1711.58 209.948 1713.87 210.573 Q1716.17 211.175 1718.41 211.175 Q1721.42 211.175 1723.04 210.157 Q1724.66 209.115 1724.66 207.24 Q1724.66 205.504 1723.48 204.578 Q1722.32 203.652 1718.36 202.796 L1716.88 202.448 Q1712.92 201.615 1711.17 199.902 Q1709.41 198.166 1709.41 195.157 Q1709.41 191.499 1712 189.509 Q1714.59 187.518 1719.36 187.518 Q1721.72 187.518 1723.8 187.865 Q1725.89 188.212 1727.65 188.907 Z" fill="#000000" fill-rule="nonzero" fill-opacity="1" /><path clip-path="url(#clip110)" d="M1736.42 208.189 L1741.3 208.189 L1741.3 214.069 L1736.42 214.069 L1736.42 208.189 Z" fill="#000000" fill-rule="nonzero" fill-opacity="1" /><path clip-path="url(#clip110)" d="M1747.83 188.143 L1752.35 188.143 L1760.45 209.902 L1768.55 188.143 L1773.06 188.143 L1763.34 214.069 L1757.55 214.069 L1747.83 188.143 Z" fill="#000000" fill-rule="nonzero" fill-opacity="1" /><path clip-path="url(#clip110)" d="M1804.24 178.097 Q1801.14 183.421 1799.64 188.629 Q1798.13 193.837 1798.13 199.184 Q1798.13 204.532 1799.64 209.786 Q1801.16 215.018 1804.24 220.319 L1800.54 220.319 Q1797.07 214.879 1795.33 209.624 Q1793.62 204.37 1793.62 199.184 Q1793.62 194.022 1795.33 188.791 Q1797.04 183.56 1800.54 178.097 L1804.24 178.097 Z" fill="#000000" fill-rule="nonzero" fill-opacity="1" /><path clip-path="url(#clip110)" d="M1827.28 195.434 Q1830.63 196.152 1832.51 198.421 Q1834.41 200.689 1834.41 204.022 Q1834.41 209.138 1830.89 211.939 Q1827.37 214.74 1820.89 214.74 Q1818.71 214.74 1816.4 214.3 Q1814.1 213.883 1811.65 213.027 L1811.65 208.513 Q1813.6 209.647 1815.91 210.226 Q1818.22 210.805 1820.75 210.805 Q1825.15 210.805 1827.44 209.069 Q1829.75 207.333 1829.75 204.022 Q1829.75 200.967 1827.6 199.254 Q1825.47 197.518 1821.65 197.518 L1817.62 197.518 L1817.62 193.675 L1821.84 193.675 Q1825.28 193.675 1827.11 192.309 Q1828.94 190.921 1828.94 188.328 Q1828.94 185.666 1827.04 184.254 Q1825.17 182.819 1821.65 182.819 Q1819.73 182.819 1817.53 183.235 Q1815.33 183.652 1812.69 184.532 L1812.69 180.365 Q1815.35 179.624 1817.67 179.254 Q1820.01 178.884 1822.07 178.884 Q1827.39 178.884 1830.49 181.314 Q1833.6 183.722 1833.6 187.842 Q1833.6 190.712 1831.95 192.703 Q1830.31 194.671 1827.28 195.434 Z" fill="#000000" fill-rule="nonzero" fill-opacity="1" /><path clip-path="url(#clip110)" d="M1857.44 195.434 Q1860.79 196.152 1862.67 198.421 Q1864.57 200.689 1864.57 204.022 Q1864.57 209.138 1861.05 211.939 Q1857.53 214.74 1851.05 214.74 Q1848.87 214.74 1846.56 214.3 Q1844.27 213.883 1841.81 213.027 L1841.81 208.513 Q1843.76 209.647 1846.07 210.226 Q1848.39 210.805 1850.91 210.805 Q1855.31 210.805 1857.6 209.069 Q1859.91 207.333 1859.91 204.022 Q1859.91 200.967 1857.76 199.254 Q1855.63 197.518 1851.81 197.518 L1847.78 197.518 L1847.78 193.675 L1852 193.675 Q1855.45 193.675 1857.28 192.309 Q1859.1 190.921 1859.1 188.328 Q1859.1 185.666 1857.21 184.254 Q1855.33 182.819 1851.81 182.819 Q1849.89 182.819 1847.69 183.235 Q1845.49 183.652 1842.85 184.532 L1842.85 180.365 Q1845.52 179.624 1847.83 179.254 Q1850.17 178.884 1852.23 178.884 Q1857.55 178.884 1860.66 181.314 Q1863.76 183.722 1863.76 187.842 Q1863.76 190.712 1862.11 192.703 Q1860.47 194.671 1857.44 195.434 Z" fill="#000000" fill-rule="nonzero" fill-opacity="1" /><path clip-path="url(#clip110)" d="M1873.48 179.509 L1891.84 179.509 L1891.84 183.444 L1877.76 183.444 L1877.76 191.916 Q1878.78 191.569 1879.8 191.407 Q1880.82 191.222 1881.84 191.222 Q1887.62 191.222 1891 194.393 Q1894.38 197.564 1894.38 202.981 Q1894.38 208.559 1890.91 211.661 Q1887.44 214.74 1881.12 214.74 Q1878.94 214.74 1876.67 214.37 Q1874.43 213.999 1872.02 213.258 L1872.02 208.559 Q1874.1 209.694 1876.33 210.249 Q1878.55 210.805 1881.03 210.805 Q1885.03 210.805 1887.37 208.698 Q1889.71 206.592 1889.71 202.981 Q1889.71 199.37 1887.37 197.263 Q1885.03 195.157 1881.03 195.157 Q1879.15 195.157 1877.28 195.573 Q1875.42 195.99 1873.48 196.87 L1873.48 179.509 Z" fill="#000000" fill-rule="nonzero" fill-opacity="1" /><path clip-path="url(#clip110)" d="M1903.64 179.509 L1922 179.509 L1922 183.444 L1907.92 183.444 L1907.92 191.916 Q1908.94 191.569 1909.96 191.407 Q1910.98 191.222 1912 191.222 Q1917.78 191.222 1921.16 194.393 Q1924.54 197.564 1924.54 202.981 Q1924.54 208.559 1921.07 211.661 Q1917.6 214.74 1911.28 214.74 Q1909.1 214.74 1906.84 214.37 Q1904.59 213.999 1902.18 213.258 L1902.18 208.559 Q1904.27 209.694 1906.49 210.249 Q1908.71 210.805 1911.19 210.805 Q1915.19 210.805 1917.53 208.698 Q1919.87 206.592 1919.87 202.981 Q1919.87 199.37 1917.53 197.263 Q1915.19 195.157 1911.19 195.157 Q1909.31 195.157 1907.44 195.573 Q1905.59 195.99 1903.64 196.87 L1903.64 179.509 Z" fill="#000000" fill-rule="nonzero" fill-opacity="1" /><path clip-path="url(#clip110)" d="M1946.6 183.583 L1934.8 202.032 L1946.6 202.032 L1946.6 183.583 M1945.38 179.509 L1951.26 179.509 L1951.26 202.032 L1956.19 202.032 L1956.19 205.921 L1951.26 205.921 L1951.26 214.069 L1946.6 214.069 L1946.6 205.921 L1931 205.921 L1931 201.407 L1945.38 179.509 Z" fill="#000000" fill-rule="nonzero" fill-opacity="1" /><path clip-path="url(#clip110)" d="M1976.77 183.583 L1964.96 202.032 L1976.77 202.032 L1976.77 183.583 M1975.54 179.509 L1981.42 179.509 L1981.42 202.032 L1986.35 202.032 L1986.35 205.921 L1981.42 205.921 L1981.42 214.069 L1976.77 214.069 L1976.77 205.921 L1961.16 205.921 L1961.16 201.407 L1975.54 179.509 Z" fill="#000000" fill-rule="nonzero" fill-opacity="1" /><path clip-path="url(#clip110)" d="M2008.25 195.434 Q2011.6 196.152 2013.48 198.421 Q2015.38 200.689 2015.38 204.022 Q2015.38 209.138 2011.86 211.939 Q2008.34 214.74 2001.86 214.74 Q1999.68 214.74 1997.37 214.3 Q1995.08 213.883 1992.62 213.027 L1992.62 208.513 Q1994.57 209.647 1996.88 210.226 Q1999.2 210.805 2001.72 210.805 Q2006.12 210.805 2008.41 209.069 Q2010.72 207.333 2010.72 204.022 Q2010.72 200.967 2008.57 199.254 Q2006.44 197.518 2002.62 197.518 L1998.59 197.518 L1998.59 193.675 L2002.81 193.675 Q2006.26 193.675 2008.08 192.309 Q2009.91 190.921 2009.91 188.328 Q2009.91 185.666 2008.02 184.254 Q2006.14 182.819 2002.62 182.819 Q2000.7 182.819 1998.5 183.235 Q1996.3 183.652 1993.66 184.532 L1993.66 180.365 Q1996.33 179.624 1998.64 179.254 Q2000.98 178.884 2003.04 178.884 Q2008.36 178.884 2011.46 181.314 Q2014.57 183.722 2014.57 187.842 Q2014.57 190.712 2012.92 192.703 Q2011.28 194.671 2008.25 195.434 Z" fill="#000000" fill-rule="nonzero" fill-opacity="1" /><path clip-path="url(#clip110)" d="M2038.41 195.434 Q2041.77 196.152 2043.64 198.421 Q2045.54 200.689 2045.54 204.022 Q2045.54 209.138 2042.02 211.939 Q2038.5 214.74 2032.02 214.74 Q2029.84 214.74 2027.53 214.3 Q2025.24 213.883 2022.78 213.027 L2022.78 208.513 Q2024.73 209.647 2027.04 210.226 Q2029.36 210.805 2031.88 210.805 Q2036.28 210.805 2038.57 209.069 Q2040.89 207.333 2040.89 204.022 Q2040.89 200.967 2038.73 199.254 Q2036.6 197.518 2032.78 197.518 L2028.76 197.518 L2028.76 193.675 L2032.97 193.675 Q2036.42 193.675 2038.25 192.309 Q2040.08 190.921 2040.08 188.328 Q2040.08 185.666 2038.18 184.254 Q2036.3 182.819 2032.78 182.819 Q2030.86 182.819 2028.66 183.235 Q2026.46 183.652 2023.83 184.532 L2023.83 180.365 Q2026.49 179.624 2028.8 179.254 Q2031.14 178.884 2033.2 178.884 Q2038.52 178.884 2041.63 181.314 Q2044.73 183.722 2044.73 187.842 Q2044.73 190.712 2043.08 192.703 Q2041.44 194.671 2038.41 195.434 Z" fill="#000000" fill-rule="nonzero" fill-opacity="1" /><path clip-path="url(#clip110)" d="M2053.13 178.097 L2056.83 178.097 Q2060.31 183.56 2062.02 188.791 Q2063.76 194.022 2063.76 199.184 Q2063.76 204.37 2062.02 209.624 Q2060.31 214.879 2056.83 220.319 L2053.13 220.319 Q2056.21 215.018 2057.71 209.786 Q2059.24 204.532 2059.24 199.184 Q2059.24 193.837 2057.71 188.629 Q2056.21 183.421 2053.13 178.097 Z" fill="#000000" fill-rule="nonzero" fill-opacity="1" /><polyline clip-path="url(#clip110)" style="stroke:#3da44d; stroke-linecap:round; stroke-linejoin:round; stroke-width:4; stroke-opacity:1; fill:none" points="1439.64,248.629 1586.54,248.629 "/>
<path clip-path="url(#clip110)" d="M1631.37 244.96 Q1632.97 242.089 1635.19 240.724 Q1637.42 239.358 1640.42 239.358 Q1644.48 239.358 1646.67 242.205 Q1648.87 245.029 1648.87 250.261 L1648.87 265.909 L1644.59 265.909 L1644.59 250.399 Q1644.59 246.673 1643.27 244.867 Q1641.95 243.062 1639.24 243.062 Q1635.93 243.062 1634.01 245.261 Q1632.09 247.46 1632.09 251.256 L1632.09 265.909 L1627.81 265.909 L1627.81 250.399 Q1627.81 246.649 1626.49 244.867 Q1625.17 243.062 1622.42 243.062 Q1619.15 243.062 1617.23 245.284 Q1615.31 247.483 1615.31 251.256 L1615.31 265.909 L1611.03 265.909 L1611.03 239.983 L1615.31 239.983 L1615.31 244.011 Q1616.77 241.626 1618.8 240.492 Q1620.84 239.358 1623.64 239.358 Q1626.47 239.358 1628.43 240.793 Q1630.42 242.228 1631.37 244.96 Z" fill="#000000" fill-rule="nonzero" fill-opacity="1" /><path clip-path="url(#clip110)" d="M1669.15 252.876 Q1663.99 252.876 1662 254.057 Q1660.01 255.237 1660.01 258.085 Q1660.01 260.353 1661.49 261.696 Q1662.99 263.015 1665.56 263.015 Q1669.11 263.015 1671.23 260.515 Q1673.39 257.992 1673.39 253.825 L1673.39 252.876 L1669.15 252.876 M1677.65 251.117 L1677.65 265.909 L1673.39 265.909 L1673.39 261.973 Q1671.93 264.335 1669.75 265.469 Q1667.58 266.58 1664.43 266.58 Q1660.45 266.58 1658.09 264.358 Q1655.75 262.112 1655.75 258.362 Q1655.75 253.987 1658.67 251.765 Q1661.61 249.543 1667.42 249.543 L1673.39 249.543 L1673.39 249.126 Q1673.39 246.187 1671.44 244.589 Q1669.52 242.969 1666.03 242.969 Q1663.8 242.969 1661.7 243.501 Q1659.59 244.034 1657.65 245.099 L1657.65 241.163 Q1659.98 240.261 1662.18 239.821 Q1664.38 239.358 1666.47 239.358 Q1672.09 239.358 1674.87 242.274 Q1677.65 245.191 1677.65 251.117 Z" fill="#000000" fill-rule="nonzero" fill-opacity="1" /><path clip-path="url(#clip110)" d="M1702.95 240.747 L1702.95 244.774 Q1701.14 243.849 1699.2 243.386 Q1697.25 242.923 1695.17 242.923 Q1692 242.923 1690.4 243.895 Q1688.83 244.867 1688.83 246.811 Q1688.83 248.293 1689.96 249.149 Q1691.1 249.983 1694.52 250.747 L1695.98 251.071 Q1700.52 252.043 1702.42 253.825 Q1704.34 255.585 1704.34 258.756 Q1704.34 262.367 1701.47 264.473 Q1698.62 266.58 1693.62 266.58 Q1691.54 266.58 1689.27 266.163 Q1687.02 265.77 1684.52 264.96 L1684.52 260.561 Q1686.88 261.788 1689.17 262.413 Q1691.47 263.015 1693.71 263.015 Q1696.72 263.015 1698.34 261.997 Q1699.96 260.955 1699.96 259.08 Q1699.96 257.344 1698.78 256.418 Q1697.62 255.492 1693.67 254.636 L1692.18 254.288 Q1688.23 253.455 1686.47 251.742 Q1684.71 250.006 1684.71 246.997 Q1684.71 243.339 1687.3 241.349 Q1689.89 239.358 1694.66 239.358 Q1697.02 239.358 1699.11 239.705 Q1701.19 240.052 1702.95 240.747 Z" fill="#000000" fill-rule="nonzero" fill-opacity="1" /><path clip-path="url(#clip110)" d="M1727.65 240.747 L1727.65 244.774 Q1725.84 243.849 1723.9 243.386 Q1721.95 242.923 1719.87 242.923 Q1716.7 242.923 1715.1 243.895 Q1713.53 244.867 1713.53 246.811 Q1713.53 248.293 1714.66 249.149 Q1715.79 249.983 1719.22 250.747 L1720.68 251.071 Q1725.22 252.043 1727.11 253.825 Q1729.04 255.585 1729.04 258.756 Q1729.04 262.367 1726.17 264.473 Q1723.32 266.58 1718.32 266.58 Q1716.23 266.58 1713.97 266.163 Q1711.72 265.77 1709.22 264.96 L1709.22 260.561 Q1711.58 261.788 1713.87 262.413 Q1716.17 263.015 1718.41 263.015 Q1721.42 263.015 1723.04 261.997 Q1724.66 260.955 1724.66 259.08 Q1724.66 257.344 1723.48 256.418 Q1722.32 255.492 1718.36 254.636 L1716.88 254.288 Q1712.92 253.455 1711.17 251.742 Q1709.41 250.006 1709.41 246.997 Q1709.41 243.339 1712 241.349 Q1714.59 239.358 1719.36 239.358 Q1721.72 239.358 1723.8 239.705 Q1725.89 240.052 1727.65 240.747 Z" fill="#000000" fill-rule="nonzero" fill-opacity="1" /><path clip-path="url(#clip110)" d="M1736.42 260.029 L1741.3 260.029 L1741.3 265.909 L1736.42 265.909 L1736.42 260.029 Z" fill="#000000" fill-rule="nonzero" fill-opacity="1" /><path clip-path="url(#clip110)" d="M1762.67 252.876 Q1757.51 252.876 1755.52 254.057 Q1753.53 255.237 1753.53 258.085 Q1753.53 260.353 1755.01 261.696 Q1756.51 263.015 1759.08 263.015 Q1762.62 263.015 1764.75 260.515 Q1766.91 257.992 1766.91 253.825 L1766.91 252.876 L1762.67 252.876 M1771.16 251.117 L1771.16 265.909 L1766.91 265.909 L1766.91 261.973 Q1765.45 264.335 1763.27 265.469 Q1761.1 266.58 1757.95 266.58 Q1753.97 266.58 1751.6 264.358 Q1749.27 262.112 1749.27 258.362 Q1749.27 253.987 1752.18 251.765 Q1755.12 249.543 1760.93 249.543 L1766.91 249.543 L1766.91 249.126 Q1766.91 246.187 1764.96 244.589 Q1763.04 242.969 1759.54 242.969 Q1757.32 242.969 1755.22 243.501 Q1753.11 244.034 1751.16 245.099 L1751.16 241.163 Q1753.5 240.261 1755.7 239.821 Q1757.9 239.358 1759.98 239.358 Q1765.61 239.358 1768.39 242.274 Q1771.16 245.191 1771.16 251.117 Z" fill="#000000" fill-rule="nonzero" fill-opacity="1" /><path clip-path="url(#clip110)" d="M1799.64 273.779 L1799.64 277.089 L1775.01 277.089 L1775.01 273.779 L1799.64 273.779 Z" fill="#000000" fill-rule="nonzero" fill-opacity="1" /><path clip-path="url(#clip110)" d="M1818.66 243.964 Q1817.95 243.548 1817.09 243.362 Q1816.26 243.154 1815.24 243.154 Q1811.63 243.154 1809.68 245.515 Q1807.76 247.853 1807.76 252.251 L1807.76 265.909 L1803.48 265.909 L1803.48 239.983 L1807.76 239.983 L1807.76 244.011 Q1809.1 241.649 1811.26 240.515 Q1813.41 239.358 1816.49 239.358 Q1816.93 239.358 1817.46 239.427 Q1817.99 239.474 1818.64 239.589 L1818.66 243.964 Z" fill="#000000" fill-rule="nonzero" fill-opacity="1" /><path clip-path="url(#clip110)" d="M1844.27 251.881 L1844.27 253.964 L1824.68 253.964 Q1824.96 258.362 1827.32 260.677 Q1829.71 262.969 1833.94 262.969 Q1836.4 262.969 1838.69 262.367 Q1841 261.765 1843.27 260.561 L1843.27 264.589 Q1840.98 265.561 1838.57 266.071 Q1836.16 266.58 1833.69 266.58 Q1827.48 266.58 1823.85 262.969 Q1820.24 259.358 1820.24 253.2 Q1820.24 246.835 1823.66 243.108 Q1827.11 239.358 1832.95 239.358 Q1838.18 239.358 1841.21 242.737 Q1844.27 246.094 1844.27 251.881 M1840.01 250.631 Q1839.96 247.136 1838.04 245.052 Q1836.14 242.969 1832.99 242.969 Q1829.43 242.969 1827.28 244.983 Q1825.15 246.997 1824.82 250.654 L1840.01 250.631 Z" fill="#000000" fill-rule="nonzero" fill-opacity="1" /><path clip-path="url(#clip110)" d="M1851.26 229.89 L1855.52 229.89 L1855.52 265.909 L1851.26 265.909 L1851.26 229.89 Z" fill="#000000" fill-rule="nonzero" fill-opacity="1" /><path clip-path="url(#clip110)" d="M1877.55 229.89 L1877.55 233.432 L1873.48 233.432 Q1871.19 233.432 1870.28 234.358 Q1869.41 235.284 1869.41 237.691 L1869.41 239.983 L1876.42 239.983 L1876.42 243.293 L1869.41 243.293 L1869.41 265.909 L1865.12 265.909 L1865.12 243.293 L1861.05 243.293 L1861.05 239.983 L1865.12 239.983 L1865.12 238.177 Q1865.12 233.849 1867.14 231.881 Q1869.15 229.89 1873.53 229.89 L1877.55 229.89 Z" fill="#000000" fill-rule="nonzero" fill-opacity="1" /><path clip-path="url(#clip110)" d="M1896.14 243.964 Q1895.42 243.548 1894.57 243.362 Q1893.73 243.154 1892.72 243.154 Q1889.1 243.154 1887.16 245.515 Q1885.24 247.853 1885.24 252.251 L1885.24 265.909 L1880.96 265.909 L1880.96 239.983 L1885.24 239.983 L1885.24 244.011 Q1886.58 241.649 1888.73 240.515 Q1890.89 239.358 1893.97 239.358 Q1894.4 239.358 1894.94 239.427 Q1895.47 239.474 1896.12 239.589 L1896.14 243.964 Z" fill="#000000" fill-rule="nonzero" fill-opacity="1" /><path clip-path="url(#clip110)" d="M1900.61 239.983 L1904.87 239.983 L1904.87 265.909 L1900.61 265.909 L1900.61 239.983 M1900.61 229.89 L1904.87 229.89 L1904.87 235.284 L1900.61 235.284 L1900.61 229.89 Z" fill="#000000" fill-rule="nonzero" fill-opacity="1" /><path clip-path="url(#clip110)" d="M1932.44 240.978 L1932.44 244.96 Q1930.63 243.964 1928.8 243.478 Q1927 242.969 1925.15 242.969 Q1921 242.969 1918.71 245.608 Q1916.42 248.224 1916.42 252.969 Q1916.42 257.714 1918.71 260.353 Q1921 262.969 1925.15 262.969 Q1927 262.969 1928.8 262.483 Q1930.63 261.973 1932.44 260.978 L1932.44 264.913 Q1930.65 265.747 1928.73 266.163 Q1926.84 266.58 1924.68 266.58 Q1918.83 266.58 1915.38 262.899 Q1911.93 259.219 1911.93 252.969 Q1911.93 246.626 1915.4 242.992 Q1918.9 239.358 1924.96 239.358 Q1926.93 239.358 1928.8 239.775 Q1930.68 240.168 1932.44 240.978 Z" fill="#000000" fill-rule="nonzero" fill-opacity="1" /><path clip-path="url(#clip110)" d="M1965.15 229.937 Q1962.04 235.261 1960.54 240.469 Q1959.03 245.677 1959.03 251.024 Q1959.03 256.372 1960.54 261.626 Q1962.07 266.858 1965.15 272.159 L1961.44 272.159 Q1957.97 266.719 1956.23 261.464 Q1954.52 256.21 1954.52 251.024 Q1954.52 245.862 1956.23 240.631 Q1957.95 235.4 1961.44 229.937 L1965.15 229.937 Z" fill="#000000" fill-rule="nonzero" fill-opacity="1" /><path clip-path="url(#clip110)" d="M1974.06 231.349 L1992.41 231.349 L1992.41 235.284 L1978.34 235.284 L1978.34 243.756 Q1979.36 243.409 1980.38 243.247 Q1981.4 243.062 1982.41 243.062 Q1988.2 243.062 1991.58 246.233 Q1994.96 249.404 1994.96 254.821 Q1994.96 260.399 1991.49 263.501 Q1988.02 266.58 1981.7 266.58 Q1979.52 266.58 1977.25 266.21 Q1975.01 265.839 1972.6 265.098 L1972.6 260.399 Q1974.68 261.534 1976.9 262.089 Q1979.13 262.645 1981.6 262.645 Q1985.61 262.645 1987.95 260.538 Q1990.28 258.432 1990.28 254.821 Q1990.28 251.21 1987.95 249.103 Q1985.61 246.997 1981.6 246.997 Q1979.73 246.997 1977.85 247.413 Q1976 247.83 1974.06 248.71 L1974.06 231.349 Z" fill="#000000" fill-rule="nonzero" fill-opacity="1" /><path clip-path="url(#clip110)" d="M2014.17 249.497 Q2010.84 249.497 2008.92 251.279 Q2007.02 253.061 2007.02 256.186 Q2007.02 259.311 2008.92 261.094 Q2010.84 262.876 2014.17 262.876 Q2017.51 262.876 2019.43 261.094 Q2021.35 259.288 2021.35 256.186 Q2021.35 253.061 2019.43 251.279 Q2017.53 249.497 2014.17 249.497 M2009.5 247.506 Q2006.49 246.765 2004.8 244.705 Q2003.13 242.645 2003.13 239.682 Q2003.13 235.538 2006.07 233.131 Q2009.03 230.724 2014.17 230.724 Q2019.33 230.724 2022.27 233.131 Q2025.21 235.538 2025.21 239.682 Q2025.21 242.645 2023.52 244.705 Q2021.86 246.765 2018.87 247.506 Q2022.25 248.293 2024.13 250.585 Q2026.02 252.876 2026.02 256.186 Q2026.02 261.21 2022.95 263.895 Q2019.89 266.58 2014.17 266.58 Q2008.46 266.58 2005.38 263.895 Q2002.32 261.21 2002.32 256.186 Q2002.32 252.876 2004.22 250.585 Q2006.12 248.293 2009.5 247.506 M2007.78 240.122 Q2007.78 242.807 2009.45 244.312 Q2011.14 245.816 2014.17 245.816 Q2017.18 245.816 2018.87 244.312 Q2020.58 242.807 2020.58 240.122 Q2020.58 237.437 2018.87 235.932 Q2017.18 234.427 2014.17 234.427 Q2011.14 234.427 2009.45 235.932 Q2007.78 237.437 2007.78 240.122 Z" fill="#000000" fill-rule="nonzero" fill-opacity="1" /><path clip-path="url(#clip110)" d="M2033.15 231.349 L2055.38 231.349 L2055.38 233.339 L2042.83 265.909 L2037.95 265.909 L2049.75 235.284 L2033.15 235.284 L2033.15 231.349 Z" fill="#000000" fill-rule="nonzero" fill-opacity="1" /><path clip-path="url(#clip110)" d="M2068.52 261.973 L2084.84 261.973 L2084.84 265.909 L2062.9 265.909 L2062.9 261.973 Q2065.56 259.219 2070.14 254.589 Q2074.75 249.936 2075.93 248.594 Q2078.18 246.071 2079.06 244.335 Q2079.96 242.575 2079.96 240.886 Q2079.96 238.131 2078.02 236.395 Q2076.09 234.659 2072.99 234.659 Q2070.79 234.659 2068.34 235.423 Q2065.91 236.187 2063.13 237.737 L2063.13 233.015 Q2065.95 231.881 2068.41 231.302 Q2070.86 230.724 2072.9 230.724 Q2078.27 230.724 2081.46 233.409 Q2084.66 236.094 2084.66 240.585 Q2084.66 242.714 2083.85 244.636 Q2083.06 246.534 2080.95 249.126 Q2080.38 249.798 2077.27 253.015 Q2074.17 256.21 2068.52 261.973 Z" fill="#000000" fill-rule="nonzero" fill-opacity="1" /><path clip-path="url(#clip110)" d="M2104.66 234.427 Q2101.05 234.427 2099.22 237.992 Q2097.41 241.534 2097.41 248.663 Q2097.41 255.77 2099.22 259.335 Q2101.05 262.876 2104.66 262.876 Q2108.29 262.876 2110.1 259.335 Q2111.93 255.77 2111.93 248.663 Q2111.93 241.534 2110.1 237.992 Q2108.29 234.427 2104.66 234.427 M2104.66 230.724 Q2110.47 230.724 2113.52 235.33 Q2116.6 239.913 2116.6 248.663 Q2116.6 257.39 2113.52 261.997 Q2110.47 266.58 2104.66 266.58 Q2098.85 266.58 2095.77 261.997 Q2092.71 257.39 2092.71 248.663 Q2092.71 239.913 2095.77 235.33 Q2098.85 230.724 2104.66 230.724 Z" fill="#000000" fill-rule="nonzero" fill-opacity="1" /><path clip-path="url(#clip110)" d="M2128.85 261.973 L2145.17 261.973 L2145.17 265.909 L2123.22 265.909 L2123.22 261.973 Q2125.89 259.219 2130.47 254.589 Q2135.07 249.936 2136.26 248.594 Q2138.5 246.071 2139.38 244.335 Q2140.28 242.575 2140.28 240.886 Q2140.28 238.131 2138.34 236.395 Q2136.42 234.659 2133.32 234.659 Q2131.12 234.659 2128.66 235.423 Q2126.23 236.187 2123.45 237.737 L2123.45 233.015 Q2126.28 231.881 2128.73 231.302 Q2131.19 230.724 2133.22 230.724 Q2138.59 230.724 2141.79 233.409 Q2144.98 236.094 2144.98 240.585 Q2144.98 242.714 2144.17 244.636 Q2143.39 246.534 2141.28 249.126 Q2140.7 249.798 2137.6 253.015 Q2134.5 256.21 2128.85 261.973 Z" fill="#000000" fill-rule="nonzero" fill-opacity="1" /><path clip-path="url(#clip110)" d="M2155.03 231.349 L2173.38 231.349 L2173.38 235.284 L2159.31 235.284 L2159.31 243.756 Q2160.33 243.409 2161.35 243.247 Q2162.37 243.062 2163.38 243.062 Q2169.17 243.062 2172.55 246.233 Q2175.93 249.404 2175.93 254.821 Q2175.93 260.399 2172.46 263.501 Q2168.99 266.58 2162.67 266.58 Q2160.49 266.58 2158.22 266.21 Q2155.98 265.839 2153.57 265.098 L2153.57 260.399 Q2155.65 261.534 2157.88 262.089 Q2160.1 262.645 2162.57 262.645 Q2166.58 262.645 2168.92 260.538 Q2171.26 258.432 2171.26 254.821 Q2171.26 251.21 2168.92 249.103 Q2166.58 246.997 2162.57 246.997 Q2160.7 246.997 2158.82 247.413 Q2156.97 247.83 2155.03 248.71 L2155.03 231.349 Z" fill="#000000" fill-rule="nonzero" fill-opacity="1" /><path clip-path="url(#clip110)" d="M2195.72 246.765 Q2192.57 246.765 2190.72 248.918 Q2188.89 251.071 2188.89 254.821 Q2188.89 258.548 2190.72 260.723 Q2192.57 262.876 2195.72 262.876 Q2198.87 262.876 2200.7 260.723 Q2202.55 258.548 2202.55 254.821 Q2202.55 251.071 2200.7 248.918 Q2198.87 246.765 2195.72 246.765 M2205.01 232.113 L2205.01 236.372 Q2203.25 235.538 2201.44 235.099 Q2199.66 234.659 2197.9 234.659 Q2193.27 234.659 2190.82 237.784 Q2188.38 240.909 2188.04 247.228 Q2189.4 245.214 2191.46 244.149 Q2193.52 243.062 2196 243.062 Q2201.21 243.062 2204.22 246.233 Q2207.25 249.381 2207.25 254.821 Q2207.25 260.145 2204.1 263.362 Q2200.95 266.58 2195.72 266.58 Q2189.73 266.58 2186.56 261.997 Q2183.38 257.39 2183.38 248.663 Q2183.38 240.469 2187.27 235.608 Q2191.16 230.724 2197.71 230.724 Q2199.47 230.724 2201.26 231.071 Q2203.06 231.418 2205.01 232.113 Z" fill="#000000" fill-rule="nonzero" fill-opacity="1" /><path clip-path="url(#clip110)" d="M2216.12 261.973 L2223.76 261.973 L2223.76 235.608 L2215.44 237.275 L2215.44 233.015 L2223.71 231.349 L2228.38 231.349 L2228.38 261.973 L2236.02 261.973 L2236.02 265.909 L2216.12 265.909 L2216.12 261.973 Z" fill="#000000" fill-rule="nonzero" fill-opacity="1" /><path clip-path="url(#clip110)" d="M2244.19 229.937 L2247.9 229.937 Q2251.37 235.4 2253.08 240.631 Q2254.82 245.862 2254.82 251.024 Q2254.82 256.21 2253.08 261.464 Q2251.37 266.719 2247.9 272.159 L2244.19 272.159 Q2247.27 266.858 2248.78 261.626 Q2250.31 256.372 2250.31 251.024 Q2250.31 245.677 2248.78 240.469 Q2247.27 235.261 2244.19 229.937 Z" fill="#000000" fill-rule="nonzero" fill-opacity="1" /><polyline clip-path="url(#clip110)" style="stroke:#c271d2; stroke-linecap:round; stroke-linejoin:round; stroke-width:4; stroke-opacity:1; fill:none" points="1439.64,300.469 1586.54,300.469 "/>
<path clip-path="url(#clip110)" d="M1631.37 296.8 Q1632.97 293.929 1635.19 292.564 Q1637.42 291.198 1640.42 291.198 Q1644.48 291.198 1646.67 294.045 Q1648.87 296.869 1648.87 302.101 L1648.87 317.749 L1644.59 317.749 L1644.59 302.239 Q1644.59 298.513 1643.27 296.707 Q1641.95 294.902 1639.24 294.902 Q1635.93 294.902 1634.01 297.101 Q1632.09 299.3 1632.09 303.096 L1632.09 317.749 L1627.81 317.749 L1627.81 302.239 Q1627.81 298.489 1626.49 296.707 Q1625.17 294.902 1622.42 294.902 Q1619.15 294.902 1617.23 297.124 Q1615.31 299.323 1615.31 303.096 L1615.31 317.749 L1611.03 317.749 L1611.03 291.823 L1615.31 291.823 L1615.31 295.851 Q1616.77 293.466 1618.8 292.332 Q1620.84 291.198 1623.64 291.198 Q1626.47 291.198 1628.43 292.633 Q1630.42 294.068 1631.37 296.8 Z" fill="#000000" fill-rule="nonzero" fill-opacity="1" /><path clip-path="url(#clip110)" d="M1669.15 304.716 Q1663.99 304.716 1662 305.897 Q1660.01 307.077 1660.01 309.925 Q1660.01 312.193 1661.49 313.536 Q1662.99 314.855 1665.56 314.855 Q1669.11 314.855 1671.23 312.355 Q1673.39 309.832 1673.39 305.665 L1673.39 304.716 L1669.15 304.716 M1677.65 302.957 L1677.65 317.749 L1673.39 317.749 L1673.39 313.813 Q1671.93 316.175 1669.75 317.309 Q1667.58 318.42 1664.43 318.42 Q1660.45 318.42 1658.09 316.198 Q1655.75 313.952 1655.75 310.202 Q1655.75 305.827 1658.67 303.605 Q1661.61 301.383 1667.42 301.383 L1673.39 301.383 L1673.39 300.966 Q1673.39 298.027 1671.44 296.429 Q1669.52 294.809 1666.03 294.809 Q1663.8 294.809 1661.7 295.341 Q1659.59 295.874 1657.65 296.939 L1657.65 293.003 Q1659.98 292.101 1662.18 291.661 Q1664.38 291.198 1666.47 291.198 Q1672.09 291.198 1674.87 294.114 Q1677.65 297.031 1677.65 302.957 Z" fill="#000000" fill-rule="nonzero" fill-opacity="1" /><path clip-path="url(#clip110)" d="M1702.95 292.587 L1702.95 296.614 Q1701.14 295.689 1699.2 295.226 Q1697.25 294.763 1695.17 294.763 Q1692 294.763 1690.4 295.735 Q1688.83 296.707 1688.83 298.651 Q1688.83 300.133 1689.96 300.989 Q1691.1 301.823 1694.52 302.587 L1695.98 302.911 Q1700.52 303.883 1702.42 305.665 Q1704.34 307.425 1704.34 310.596 Q1704.34 314.207 1701.47 316.313 Q1698.62 318.42 1693.62 318.42 Q1691.54 318.42 1689.27 318.003 Q1687.02 317.61 1684.52 316.8 L1684.52 312.401 Q1686.88 313.628 1689.17 314.253 Q1691.47 314.855 1693.71 314.855 Q1696.72 314.855 1698.34 313.837 Q1699.96 312.795 1699.96 310.92 Q1699.96 309.184 1698.78 308.258 Q1697.62 307.332 1693.67 306.476 L1692.18 306.128 Q1688.23 305.295 1686.47 303.582 Q1684.71 301.846 1684.71 298.837 Q1684.71 295.179 1687.3 293.189 Q1689.89 291.198 1694.66 291.198 Q1697.02 291.198 1699.11 291.545 Q1701.19 291.892 1702.95 292.587 Z" fill="#000000" fill-rule="nonzero" fill-opacity="1" /><path clip-path="url(#clip110)" d="M1727.65 292.587 L1727.65 296.614 Q1725.84 295.689 1723.9 295.226 Q1721.95 294.763 1719.87 294.763 Q1716.7 294.763 1715.1 295.735 Q1713.53 296.707 1713.53 298.651 Q1713.53 300.133 1714.66 300.989 Q1715.79 301.823 1719.22 302.587 L1720.68 302.911 Q1725.22 303.883 1727.11 305.665 Q1729.04 307.425 1729.04 310.596 Q1729.04 314.207 1726.17 316.313 Q1723.32 318.42 1718.32 318.42 Q1716.23 318.42 1713.97 318.003 Q1711.72 317.61 1709.22 316.8 L1709.22 312.401 Q1711.58 313.628 1713.87 314.253 Q1716.17 314.855 1718.41 314.855 Q1721.42 314.855 1723.04 313.837 Q1724.66 312.795 1724.66 310.92 Q1724.66 309.184 1723.48 308.258 Q1722.32 307.332 1718.36 306.476 L1716.88 306.128 Q1712.92 305.295 1711.17 303.582 Q1709.41 301.846 1709.41 298.837 Q1709.41 295.179 1712 293.189 Q1714.59 291.198 1719.36 291.198 Q1721.72 291.198 1723.8 291.545 Q1725.89 291.892 1727.65 292.587 Z" fill="#000000" fill-rule="nonzero" fill-opacity="1" /><path clip-path="url(#clip110)" d="M1736.42 311.869 L1741.3 311.869 L1741.3 317.749 L1736.42 317.749 L1736.42 311.869 Z" fill="#000000" fill-rule="nonzero" fill-opacity="1" /><path clip-path="url(#clip110)" d="M1764.01 281.73 L1764.01 285.272 L1759.94 285.272 Q1757.65 285.272 1756.74 286.198 Q1755.86 287.124 1755.86 289.531 L1755.86 291.823 L1762.88 291.823 L1762.88 295.133 L1755.86 295.133 L1755.86 317.749 L1751.58 317.749 L1751.58 295.133 L1747.51 295.133 L1747.51 291.823 L1751.58 291.823 L1751.58 290.017 Q1751.58 285.689 1753.6 283.721 Q1755.61 281.73 1759.98 281.73 L1764.01 281.73 Z" fill="#000000" fill-rule="nonzero" fill-opacity="1" /><path clip-path="url(#clip110)" d="M1792.88 281.777 Q1789.78 287.101 1788.27 292.309 Q1786.77 297.517 1786.77 302.864 Q1786.77 308.212 1788.27 313.466 Q1789.8 318.698 1792.88 323.999 L1789.17 323.999 Q1785.7 318.559 1783.97 313.304 Q1782.25 308.05 1782.25 302.864 Q1782.25 297.702 1783.97 292.471 Q1785.68 287.24 1789.17 281.777 L1792.88 281.777 Z" fill="#000000" fill-rule="nonzero" fill-opacity="1" /><path clip-path="url(#clip110)" d="M1812.32 298.605 Q1809.17 298.605 1807.32 300.758 Q1805.49 302.911 1805.49 306.661 Q1805.49 310.388 1807.32 312.563 Q1809.17 314.716 1812.32 314.716 Q1815.47 314.716 1817.3 312.563 Q1819.15 310.388 1819.15 306.661 Q1819.15 302.911 1817.3 300.758 Q1815.47 298.605 1812.32 298.605 M1821.6 283.953 L1821.6 288.212 Q1819.85 287.378 1818.04 286.939 Q1816.26 286.499 1814.5 286.499 Q1809.87 286.499 1807.41 289.624 Q1804.98 292.749 1804.64 299.068 Q1806 297.054 1808.06 295.989 Q1810.12 294.902 1812.6 294.902 Q1817.81 294.902 1820.82 298.073 Q1823.85 301.221 1823.85 306.661 Q1823.85 311.985 1820.7 315.202 Q1817.55 318.42 1812.32 318.42 Q1806.33 318.42 1803.16 313.837 Q1799.98 309.23 1799.98 300.503 Q1799.98 292.309 1803.87 287.448 Q1807.76 282.564 1814.31 282.564 Q1816.07 282.564 1817.85 282.911 Q1819.66 283.258 1821.6 283.953 Z" fill="#000000" fill-rule="nonzero" fill-opacity="1" /><path clip-path="url(#clip110)" d="M1846.07 299.114 Q1849.43 299.832 1851.3 302.101 Q1853.2 304.369 1853.2 307.702 Q1853.2 312.818 1849.68 315.619 Q1846.16 318.42 1839.68 318.42 Q1837.51 318.42 1835.19 317.98 Q1832.9 317.563 1830.45 316.707 L1830.45 312.193 Q1832.39 313.327 1834.71 313.906 Q1837.02 314.485 1839.54 314.485 Q1843.94 314.485 1846.23 312.749 Q1848.55 311.013 1848.55 307.702 Q1848.55 304.647 1846.4 302.934 Q1844.27 301.198 1840.45 301.198 L1836.42 301.198 L1836.42 297.355 L1840.63 297.355 Q1844.08 297.355 1845.91 295.989 Q1847.74 294.601 1847.74 292.008 Q1847.74 289.346 1845.84 287.934 Q1843.97 286.499 1840.45 286.499 Q1838.53 286.499 1836.33 286.915 Q1834.13 287.332 1831.49 288.212 L1831.49 284.045 Q1834.15 283.304 1836.47 282.934 Q1838.8 282.564 1840.86 282.564 Q1846.19 282.564 1849.29 284.994 Q1852.39 287.402 1852.39 291.522 Q1852.39 294.392 1850.75 296.383 Q1849.1 298.351 1846.07 299.114 Z" fill="#000000" fill-rule="nonzero" fill-opacity="1" /><path clip-path="url(#clip110)" d="M1860.89 283.189 L1883.11 283.189 L1883.11 285.179 L1870.56 317.749 L1865.68 317.749 L1877.48 287.124 L1860.89 287.124 L1860.89 283.189 Z" fill="#000000" fill-rule="nonzero" fill-opacity="1" /><path clip-path="url(#clip110)" d="M1892.28 283.189 L1910.63 283.189 L1910.63 287.124 L1896.56 287.124 L1896.56 295.596 Q1897.58 295.249 1898.59 295.087 Q1899.61 294.902 1900.63 294.902 Q1906.42 294.902 1909.8 298.073 Q1913.18 301.244 1913.18 306.661 Q1913.18 312.239 1909.71 315.341 Q1906.23 318.42 1899.91 318.42 Q1897.74 318.42 1895.47 318.05 Q1893.22 317.679 1890.82 316.938 L1890.82 312.239 Q1892.9 313.374 1895.12 313.929 Q1897.34 314.485 1899.82 314.485 Q1903.83 314.485 1906.16 312.378 Q1908.5 310.272 1908.5 306.661 Q1908.5 303.05 1906.16 300.943 Q1903.83 298.837 1899.82 298.837 Q1897.95 298.837 1896.07 299.253 Q1894.22 299.67 1892.28 300.55 L1892.28 283.189 Z" fill="#000000" fill-rule="nonzero" fill-opacity="1" /><path clip-path="url(#clip110)" d="M1936.56 299.114 Q1939.91 299.832 1941.79 302.101 Q1943.69 304.369 1943.69 307.702 Q1943.69 312.818 1940.17 315.619 Q1936.65 318.42 1930.17 318.42 Q1927.99 318.42 1925.68 317.98 Q1923.39 317.563 1920.93 316.707 L1920.93 312.193 Q1922.88 313.327 1925.19 313.906 Q1927.51 314.485 1930.03 314.485 Q1934.43 314.485 1936.72 312.749 Q1939.03 311.013 1939.03 307.702 Q1939.03 304.647 1936.88 302.934 Q1934.75 301.198 1930.93 301.198 L1926.9 301.198 L1926.9 297.355 L1931.12 297.355 Q1934.57 297.355 1936.4 295.989 Q1938.22 294.601 1938.22 292.008 Q1938.22 289.346 1936.33 287.934 Q1934.45 286.499 1930.93 286.499 Q1929.01 286.499 1926.81 286.915 Q1924.61 287.332 1921.97 288.212 L1921.97 284.045 Q1924.64 283.304 1926.95 282.934 Q1929.29 282.564 1931.35 282.564 Q1936.67 282.564 1939.78 284.994 Q1942.88 287.402 1942.88 291.522 Q1942.88 294.392 1941.23 296.383 Q1939.59 298.351 1936.56 299.114 Z" fill="#000000" fill-rule="nonzero" fill-opacity="1" /><path clip-path="url(#clip110)" d="M1965.4 287.263 L1953.59 305.712 L1965.4 305.712 L1965.4 287.263 M1964.17 283.189 L1970.05 283.189 L1970.05 305.712 L1974.98 305.712 L1974.98 309.601 L1970.05 309.601 L1970.05 317.749 L1965.4 317.749 L1965.4 309.601 L1949.8 309.601 L1949.8 305.087 L1964.17 283.189 Z" fill="#000000" fill-rule="nonzero" fill-opacity="1" /><path clip-path="url(#clip110)" d="M1986.74 313.813 L2003.06 313.813 L2003.06 317.749 L1981.12 317.749 L1981.12 313.813 Q1983.78 311.059 1988.36 306.429 Q1992.97 301.776 1994.15 300.434 Q1996.4 297.911 1997.27 296.175 Q1998.18 294.415 1998.18 292.726 Q1998.18 289.971 1996.23 288.235 Q1994.31 286.499 1991.21 286.499 Q1989.01 286.499 1986.56 287.263 Q1984.13 288.027 1981.35 289.577 L1981.35 284.855 Q1984.17 283.721 1986.63 283.142 Q1989.08 282.564 1991.12 282.564 Q1996.49 282.564 1999.68 285.249 Q2002.88 287.934 2002.88 292.425 Q2002.88 294.554 2002.07 296.476 Q2001.28 298.374 1999.17 300.966 Q1998.59 301.638 1995.49 304.855 Q1992.39 308.05 1986.74 313.813 Z" fill="#000000" fill-rule="nonzero" fill-opacity="1" /><path clip-path="url(#clip110)" d="M2013.69 313.813 L2021.33 313.813 L2021.33 287.448 L2013.02 289.115 L2013.02 284.855 L2021.28 283.189 L2025.96 283.189 L2025.96 313.813 L2033.59 313.813 L2033.59 317.749 L2013.69 317.749 L2013.69 313.813 Z" fill="#000000" fill-rule="nonzero" fill-opacity="1" /><path clip-path="url(#clip110)" d="M2043.85 313.813 L2051.49 313.813 L2051.49 287.448 L2043.18 289.115 L2043.18 284.855 L2051.44 283.189 L2056.12 283.189 L2056.12 313.813 L2063.76 313.813 L2063.76 317.749 L2043.85 317.749 L2043.85 313.813 Z" fill="#000000" fill-rule="nonzero" fill-opacity="1" /><path clip-path="url(#clip110)" d="M2071.93 281.777 L2075.63 281.777 Q2079.1 287.24 2080.82 292.471 Q2082.55 297.702 2082.55 302.864 Q2082.55 308.05 2080.82 313.304 Q2079.1 318.559 2075.63 323.999 L2071.93 323.999 Q2075.01 318.698 2076.51 313.466 Q2078.04 308.212 2078.04 302.864 Q2078.04 297.517 2076.51 292.309 Q2075.01 287.101 2071.93 281.777 Z" fill="#000000" fill-rule="nonzero" fill-opacity="1" /></svg>
