<?xml version="1.0" encoding="utf-8"?>
<svg xmlns="http://www.w3.org/2000/svg" xmlns:xlink="http://www.w3.org/1999/xlink" width="600" height="400" viewBox="0 0 2400 1600">
<defs>
  <clipPath id="clip670">
    <rect x="0" y="0" width="2400" height="1600"/>
  </clipPath>
</defs>
<path clip-path="url(#clip670)" d="M0 1600 L2400 1600 L2400 0 L0 0  Z" fill="#ffffff" fill-rule="evenodd" fill-opacity="1"/>
<defs>
  <clipPath id="clip671">
    <rect x="480" y="0" width="1681" height="1600"/>
  </clipPath>
</defs>
<path clip-path="url(#clip670)" d="M303.503 1401.58 L2352.76 1401.58 L2352.76 123.472 L303.503 123.472  Z" fill="#ffffff" fill-rule="evenodd" fill-opacity="1"/>
<defs>
  <clipPath id="clip672">
    <rect x="303" y="123" width="2050" height="1279"/>
  </clipPath>
</defs>
<polyline clip-path="url(#clip672)" style="stroke:#000000; stroke-linecap:round; stroke-linejoin:round; stroke-width:2; stroke-opacity:0.1; fill:none" points="361.501,1401.58 361.501,123.472 "/>
<polyline clip-path="url(#clip672)" style="stroke:#000000; stroke-linecap:round; stroke-linejoin:round; stroke-width:2; stroke-opacity:0.1; fill:none" points="844.815,1401.58 844.815,123.472 "/>
<polyline clip-path="url(#clip672)" style="stroke:#000000; stroke-linecap:round; stroke-linejoin:round; stroke-width:2; stroke-opacity:0.1; fill:none" points="1328.13,1401.58 1328.13,123.472 "/>
<polyline clip-path="url(#clip672)" style="stroke:#000000; stroke-linecap:round; stroke-linejoin:round; stroke-width:2; stroke-opacity:0.1; fill:none" points="1811.44,1401.58 1811.44,123.472 "/>
<polyline clip-path="url(#clip672)" style="stroke:#000000; stroke-linecap:round; stroke-linejoin:round; stroke-width:2; stroke-opacity:0.1; fill:none" points="2294.76,1401.58 2294.76,123.472 "/>
<polyline clip-path="url(#clip670)" style="stroke:#000000; stroke-linecap:round; stroke-linejoin:round; stroke-width:4; stroke-opacity:1; fill:none" points="303.503,1401.58 2352.76,1401.58 "/>
<polyline clip-path="url(#clip670)" style="stroke:#000000; stroke-linecap:round; stroke-linejoin:round; stroke-width:4; stroke-opacity:1; fill:none" points="361.501,1401.58 361.501,1382.68 "/>
<polyline clip-path="url(#clip670)" style="stroke:#000000; stroke-linecap:round; stroke-linejoin:round; stroke-width:4; stroke-opacity:1; fill:none" points="844.815,1401.58 844.815,1382.68 "/>
<polyline clip-path="url(#clip670)" style="stroke:#000000; stroke-linecap:round; stroke-linejoin:round; stroke-width:4; stroke-opacity:1; fill:none" points="1328.13,1401.58 1328.13,1382.68 "/>
<polyline clip-path="url(#clip670)" style="stroke:#000000; stroke-linecap:round; stroke-linejoin:round; stroke-width:4; stroke-opacity:1; fill:none" points="1811.44,1401.58 1811.44,1382.68 "/>
<polyline clip-path="url(#clip670)" style="stroke:#000000; stroke-linecap:round; stroke-linejoin:round; stroke-width:4; stroke-opacity:1; fill:none" points="2294.76,1401.58 2294.76,1382.68 "/>
<path clip-path="url(#clip670)" d="M361.501 1438.36 Q356.084 1438.36 353.341 1443.71 Q350.633 1449.02 350.633 1459.71 Q350.633 1470.37 353.341 1475.72 Q356.084 1481.03 361.501 1481.03 Q366.952 1481.03 369.66 1475.72 Q372.403 1470.37 372.403 1459.71 Q372.403 1449.02 369.66 1443.71 Q366.952 1438.36 361.501 1438.36 M361.501 1432.8 Q370.216 1432.8 374.799 1439.71 Q379.417 1446.59 379.417 1459.71 Q379.417 1472.8 374.799 1479.71 Q370.216 1486.59 361.501 1486.59 Q352.785 1486.59 348.167 1479.71 Q343.584 1472.8 343.584 1459.71 Q343.584 1446.59 348.167 1439.71 Q352.785 1432.8 361.501 1432.8 Z" fill="#000000" fill-rule="nonzero" fill-opacity="1" /><path clip-path="url(#clip670)" d="M830.388 1479.68 L841.846 1479.68 L841.846 1440.13 L829.381 1442.63 L829.381 1436.24 L841.777 1433.74 L848.791 1433.74 L848.791 1479.68 L860.249 1479.68 L860.249 1485.58 L830.388 1485.58 L830.388 1479.68 Z" fill="#000000" fill-rule="nonzero" fill-opacity="1" /><path clip-path="url(#clip670)" d="M1320.11 1479.68 L1344.59 1479.68 L1344.59 1485.58 L1311.67 1485.58 L1311.67 1479.68 Q1315.66 1475.55 1322.54 1468.6 Q1329.45 1461.62 1331.22 1459.61 Q1334.59 1455.82 1335.91 1453.22 Q1337.26 1450.58 1337.26 1448.05 Q1337.26 1443.91 1334.34 1441.31 Q1331.46 1438.71 1326.81 1438.71 Q1323.51 1438.71 1319.83 1439.85 Q1316.19 1441 1312.02 1443.32 L1312.02 1436.24 Q1316.25 1434.54 1319.94 1433.67 Q1323.62 1432.8 1326.67 1432.8 Q1334.73 1432.8 1339.52 1436.83 Q1344.31 1440.86 1344.31 1447.59 Q1344.31 1450.79 1343.09 1453.67 Q1341.91 1456.52 1338.75 1460.41 Q1337.89 1461.41 1333.23 1466.24 Q1328.58 1471.03 1320.11 1479.68 Z" fill="#000000" fill-rule="nonzero" fill-opacity="1" /><path clip-path="url(#clip670)" d="M1817.82 1457.63 Q1822.85 1458.7 1825.66 1462.11 Q1828.51 1465.51 1828.51 1470.51 Q1828.51 1478.18 1823.23 1482.39 Q1817.95 1486.59 1808.23 1486.59 Q1804.97 1486.59 1801.5 1485.93 Q1798.06 1485.3 1794.38 1484.02 L1794.38 1477.25 Q1797.29 1478.95 1800.77 1479.82 Q1804.24 1480.68 1808.02 1480.68 Q1814.62 1480.68 1818.06 1478.08 Q1821.53 1475.48 1821.53 1470.51 Q1821.53 1465.93 1818.3 1463.36 Q1815.11 1460.75 1809.38 1460.75 L1803.34 1460.75 L1803.34 1454.99 L1809.66 1454.99 Q1814.83 1454.99 1817.57 1452.94 Q1820.32 1450.86 1820.32 1446.97 Q1820.32 1442.98 1817.47 1440.86 Q1814.66 1438.71 1809.38 1438.71 Q1806.5 1438.71 1803.2 1439.33 Q1799.9 1439.96 1795.94 1441.27 L1795.94 1435.02 Q1799.93 1433.91 1803.41 1433.36 Q1806.91 1432.8 1810 1432.8 Q1817.99 1432.8 1822.64 1436.45 Q1827.29 1440.06 1827.29 1446.24 Q1827.29 1450.55 1824.83 1453.53 Q1822.36 1456.48 1817.82 1457.63 Z" fill="#000000" fill-rule="nonzero" fill-opacity="1" /><path clip-path="url(#clip670)" d="M2299.27 1439.85 L2281.56 1467.52 L2299.27 1467.52 L2299.27 1439.85 M2297.43 1433.74 L2306.25 1433.74 L2306.25 1467.52 L2313.65 1467.52 L2313.65 1473.36 L2306.25 1473.36 L2306.25 1485.58 L2299.27 1485.58 L2299.27 1473.36 L2275.87 1473.36 L2275.87 1466.59 L2297.43 1433.74 Z" fill="#000000" fill-rule="nonzero" fill-opacity="1" /><path clip-path="url(#clip670)" d="M1271.74 1527.62 L1271.74 1538.66 L1284.9 1538.66 L1284.9 1543.62 L1271.74 1543.62 L1271.74 1564.74 Q1271.74 1569.49 1273.03 1570.85 Q1274.35 1572.2 1278.34 1572.2 L1284.9 1572.2 L1284.9 1577.55 L1278.34 1577.55 Q1270.94 1577.55 1268.13 1574.8 Q1265.32 1572.03 1265.32 1564.74 L1265.32 1543.62 L1260.63 1543.62 L1260.63 1538.66 L1265.32 1538.66 L1265.32 1527.62 L1271.74 1527.62 Z" fill="#000000" fill-rule="nonzero" fill-opacity="1" /><path clip-path="url(#clip670)" d="M1315.32 1523.52 L1330.04 1523.52 L1330.04 1528.49 L1321.71 1528.49 L1321.71 1581.96 L1330.04 1581.96 L1330.04 1586.92 L1315.32 1586.92 L1315.32 1523.52 Z" fill="#000000" fill-rule="nonzero" fill-opacity="1" /><path clip-path="url(#clip670)" d="M1368.44 1539.8 L1368.44 1545.85 Q1365.73 1544.46 1362.82 1543.76 Q1359.9 1543.07 1356.78 1543.07 Q1352.02 1543.07 1349.62 1544.53 Q1347.26 1545.99 1347.26 1548.9 Q1347.26 1551.12 1348.96 1552.41 Q1350.66 1553.66 1355.8 1554.8 L1357.99 1555.29 Q1364.8 1556.75 1367.64 1559.42 Q1370.53 1562.06 1370.53 1566.82 Q1370.53 1572.24 1366.22 1575.4 Q1361.95 1578.55 1354.45 1578.55 Q1351.32 1578.55 1347.92 1577.93 Q1344.55 1577.34 1340.8 1576.12 L1340.8 1569.53 Q1344.34 1571.37 1347.78 1572.3 Q1351.22 1573.21 1354.59 1573.21 Q1359.1 1573.21 1361.53 1571.68 Q1363.96 1570.12 1363.96 1567.3 Q1363.96 1564.7 1362.19 1563.31 Q1360.46 1561.92 1354.52 1560.64 L1352.3 1560.12 Q1346.36 1558.87 1343.72 1556.3 Q1341.08 1553.69 1341.08 1549.18 Q1341.08 1543.69 1344.97 1540.71 Q1348.86 1537.72 1356.01 1537.72 Q1359.55 1537.72 1362.68 1538.24 Q1365.8 1538.76 1368.44 1539.8 Z" fill="#000000" fill-rule="nonzero" fill-opacity="1" /><path clip-path="url(#clip670)" d="M1395.63 1523.52 L1395.63 1586.92 L1380.91 1586.92 L1380.91 1581.96 L1389.21 1581.96 L1389.21 1528.49 L1380.91 1528.49 L1380.91 1523.52 L1395.63 1523.52 Z" fill="#000000" fill-rule="nonzero" fill-opacity="1" /><polyline clip-path="url(#clip672)" style="stroke:#000000; stroke-linecap:round; stroke-linejoin:round; stroke-width:2; stroke-opacity:0.1; fill:none" points="303.503,1363.75 2352.76,1363.75 "/>
<polyline clip-path="url(#clip672)" style="stroke:#000000; stroke-linecap:round; stroke-linejoin:round; stroke-width:2; stroke-opacity:0.1; fill:none" points="303.503,1113.1 2352.76,1113.1 "/>
<polyline clip-path="url(#clip672)" style="stroke:#000000; stroke-linecap:round; stroke-linejoin:round; stroke-width:2; stroke-opacity:0.1; fill:none" points="303.503,862.457 2352.76,862.457 "/>
<polyline clip-path="url(#clip672)" style="stroke:#000000; stroke-linecap:round; stroke-linejoin:round; stroke-width:2; stroke-opacity:0.1; fill:none" points="303.503,611.809 2352.76,611.809 "/>
<polyline clip-path="url(#clip672)" style="stroke:#000000; stroke-linecap:round; stroke-linejoin:round; stroke-width:2; stroke-opacity:0.1; fill:none" points="303.503,361.162 2352.76,361.162 "/>
<polyline clip-path="url(#clip670)" style="stroke:#000000; stroke-linecap:round; stroke-linejoin:round; stroke-width:4; stroke-opacity:1; fill:none" points="303.503,1401.58 303.503,123.472 "/>
<polyline clip-path="url(#clip670)" style="stroke:#000000; stroke-linecap:round; stroke-linejoin:round; stroke-width:4; stroke-opacity:1; fill:none" points="303.503,1363.75 322.401,1363.75 "/>
<polyline clip-path="url(#clip670)" style="stroke:#000000; stroke-linecap:round; stroke-linejoin:round; stroke-width:4; stroke-opacity:1; fill:none" points="303.503,1113.1 322.401,1113.1 "/>
<polyline clip-path="url(#clip670)" style="stroke:#000000; stroke-linecap:round; stroke-linejoin:round; stroke-width:4; stroke-opacity:1; fill:none" points="303.503,862.457 322.401,862.457 "/>
<polyline clip-path="url(#clip670)" style="stroke:#000000; stroke-linecap:round; stroke-linejoin:round; stroke-width:4; stroke-opacity:1; fill:none" points="303.503,611.809 322.401,611.809 "/>
<polyline clip-path="url(#clip670)" style="stroke:#000000; stroke-linecap:round; stroke-linejoin:round; stroke-width:4; stroke-opacity:1; fill:none" points="303.503,361.162 322.401,361.162 "/>
<path clip-path="url(#clip670)" d="M136.497 1342.45 Q131.08 1342.45 128.337 1347.8 Q125.629 1353.11 125.629 1363.8 Q125.629 1374.46 128.337 1379.81 Q131.08 1385.12 136.497 1385.12 Q141.948 1385.12 144.656 1379.81 Q147.399 1374.46 147.399 1363.8 Q147.399 1353.11 144.656 1347.8 Q141.948 1342.45 136.497 1342.45 M136.497 1336.89 Q145.212 1336.89 149.795 1343.8 Q154.413 1350.68 154.413 1363.8 Q154.413 1376.89 149.795 1383.8 Q145.212 1390.68 136.497 1390.68 Q127.781 1390.68 123.163 1383.8 Q118.58 1376.89 118.58 1363.8 Q118.58 1350.68 123.163 1343.8 Q127.781 1336.89 136.497 1336.89 Z" fill="#000000" fill-rule="nonzero" fill-opacity="1" /><path clip-path="url(#clip670)" d="M166.74 1380.85 L174.066 1380.85 L174.066 1389.67 L166.74 1389.67 L166.74 1380.85 Z" fill="#000000" fill-rule="nonzero" fill-opacity="1" /><path clip-path="url(#clip670)" d="M189.413 1337.83 L216.948 1337.83 L216.948 1343.73 L195.837 1343.73 L195.837 1356.44 Q197.364 1355.92 198.892 1355.68 Q200.42 1355.4 201.948 1355.4 Q210.628 1355.4 215.698 1360.16 Q220.767 1364.91 220.767 1373.04 Q220.767 1381.41 215.559 1386.06 Q210.35 1390.68 200.871 1390.68 Q197.608 1390.68 194.205 1390.12 Q190.837 1389.57 187.226 1388.46 L187.226 1381.41 Q190.351 1383.11 193.684 1383.94 Q197.017 1384.78 200.732 1384.78 Q206.739 1384.78 210.246 1381.62 Q213.753 1378.46 213.753 1373.04 Q213.753 1367.62 210.246 1364.46 Q206.739 1361.3 200.732 1361.3 Q197.92 1361.3 195.108 1361.93 Q192.33 1362.55 189.413 1363.87 L189.413 1337.83 Z" fill="#000000" fill-rule="nonzero" fill-opacity="1" /><path clip-path="url(#clip670)" d="M249.586 1342.45 Q244.17 1342.45 241.427 1347.8 Q238.718 1353.11 238.718 1363.8 Q238.718 1374.46 241.427 1379.81 Q244.17 1385.12 249.586 1385.12 Q255.038 1385.12 257.746 1379.81 Q260.489 1374.46 260.489 1363.8 Q260.489 1353.11 257.746 1347.8 Q255.038 1342.45 249.586 1342.45 M249.586 1336.89 Q258.302 1336.89 262.885 1343.8 Q267.503 1350.68 267.503 1363.8 Q267.503 1376.89 262.885 1383.8 Q258.302 1390.68 249.586 1390.68 Q240.871 1390.68 236.253 1383.8 Q231.67 1376.89 231.67 1363.8 Q231.67 1350.68 236.253 1343.8 Q240.871 1336.89 249.586 1336.89 Z" fill="#000000" fill-rule="nonzero" fill-opacity="1" /><path clip-path="url(#clip670)" d="M137.99 1091.8 Q132.573 1091.8 129.83 1097.15 Q127.122 1102.46 127.122 1113.16 Q127.122 1123.82 129.83 1129.16 Q132.573 1134.48 137.99 1134.48 Q143.441 1134.48 146.149 1129.16 Q148.892 1123.82 148.892 1113.16 Q148.892 1102.46 146.149 1097.15 Q143.441 1091.8 137.99 1091.8 M137.99 1086.25 Q146.705 1086.25 151.288 1093.16 Q155.906 1100.03 155.906 1113.16 Q155.906 1126.25 151.288 1133.16 Q146.705 1140.03 137.99 1140.03 Q129.275 1140.03 124.657 1133.16 Q120.073 1126.25 120.073 1113.16 Q120.073 1100.03 124.657 1093.16 Q129.275 1086.25 137.99 1086.25 Z" fill="#000000" fill-rule="nonzero" fill-opacity="1" /><path clip-path="url(#clip670)" d="M168.233 1130.2 L175.559 1130.2 L175.559 1139.02 L168.233 1139.02 L168.233 1130.2 Z" fill="#000000" fill-rule="nonzero" fill-opacity="1" /><path clip-path="url(#clip670)" d="M189.066 1087.18 L222.399 1087.18 L222.399 1090.17 L203.58 1139.02 L196.253 1139.02 L213.962 1093.09 L189.066 1093.09 L189.066 1087.18 Z" fill="#000000" fill-rule="nonzero" fill-opacity="1" /><path clip-path="url(#clip670)" d="M236.149 1087.18 L263.684 1087.18 L263.684 1093.09 L242.573 1093.09 L242.573 1105.8 Q244.1 1105.27 245.628 1105.03 Q247.156 1104.75 248.684 1104.75 Q257.364 1104.75 262.434 1109.51 Q267.503 1114.27 267.503 1122.39 Q267.503 1130.76 262.295 1135.41 Q257.086 1140.03 247.607 1140.03 Q244.343 1140.03 240.941 1139.48 Q237.573 1138.92 233.961 1137.81 L233.961 1130.76 Q237.086 1132.46 240.42 1133.29 Q243.753 1134.13 247.468 1134.13 Q253.475 1134.13 256.982 1130.97 Q260.489 1127.81 260.489 1122.39 Q260.489 1116.98 256.982 1113.82 Q253.475 1110.66 247.468 1110.66 Q244.656 1110.66 241.843 1111.28 Q239.066 1111.91 236.149 1113.23 L236.149 1087.18 Z" fill="#000000" fill-rule="nonzero" fill-opacity="1" /><path clip-path="url(#clip670)" d="M122.712 882.474 L134.17 882.474 L134.17 842.926 L121.705 845.426 L121.705 839.037 L134.101 836.537 L141.115 836.537 L141.115 882.474 L152.573 882.474 L152.573 888.377 L122.712 888.377 L122.712 882.474 Z" fill="#000000" fill-rule="nonzero" fill-opacity="1" /><path clip-path="url(#clip670)" d="M166.74 879.557 L174.066 879.557 L174.066 888.377 L166.74 888.377 L166.74 879.557 Z" fill="#000000" fill-rule="nonzero" fill-opacity="1" /><path clip-path="url(#clip670)" d="M204.344 841.155 Q198.927 841.155 196.184 846.502 Q193.476 851.814 193.476 862.509 Q193.476 873.169 196.184 878.516 Q198.927 883.828 204.344 883.828 Q209.795 883.828 212.503 878.516 Q215.246 873.169 215.246 862.509 Q215.246 851.814 212.503 846.502 Q209.795 841.155 204.344 841.155 M204.344 835.599 Q213.059 835.599 217.642 842.509 Q222.26 849.384 222.26 862.509 Q222.26 875.599 217.642 882.509 Q213.059 889.384 204.344 889.384 Q195.628 889.384 191.01 882.509 Q186.427 875.599 186.427 862.509 Q186.427 849.384 191.01 842.509 Q195.628 835.599 204.344 835.599 Z" fill="#000000" fill-rule="nonzero" fill-opacity="1" /><path clip-path="url(#clip670)" d="M249.586 841.155 Q244.17 841.155 241.427 846.502 Q238.718 851.814 238.718 862.509 Q238.718 873.169 241.427 878.516 Q244.17 883.828 249.586 883.828 Q255.038 883.828 257.746 878.516 Q260.489 873.169 260.489 862.509 Q260.489 851.814 257.746 846.502 Q255.038 841.155 249.586 841.155 M249.586 835.599 Q258.302 835.599 262.885 842.509 Q267.503 849.384 267.503 862.509 Q267.503 875.599 262.885 882.509 Q258.302 889.384 249.586 889.384 Q240.871 889.384 236.253 882.509 Q231.67 875.599 231.67 862.509 Q231.67 849.384 236.253 842.509 Q240.871 835.599 249.586 835.599 Z" fill="#000000" fill-rule="nonzero" fill-opacity="1" /><path clip-path="url(#clip670)" d="M124.205 631.827 L135.663 631.827 L135.663 592.278 L123.198 594.778 L123.198 588.389 L135.594 585.889 L142.608 585.889 L142.608 631.827 L154.066 631.827 L154.066 637.729 L124.205 637.729 L124.205 631.827 Z" fill="#000000" fill-rule="nonzero" fill-opacity="1" /><path clip-path="url(#clip670)" d="M168.233 628.91 L175.559 628.91 L175.559 637.729 L168.233 637.729 L168.233 628.91 Z" fill="#000000" fill-rule="nonzero" fill-opacity="1" /><path clip-path="url(#clip670)" d="M196.878 631.827 L221.357 631.827 L221.357 637.729 L188.441 637.729 L188.441 631.827 Q192.434 627.695 199.309 620.75 Q206.219 613.771 207.989 611.757 Q211.357 607.973 212.677 605.369 Q214.031 602.73 214.031 600.195 Q214.031 596.063 211.114 593.459 Q208.232 590.855 203.58 590.855 Q200.281 590.855 196.601 592.001 Q192.955 593.146 188.788 595.473 L188.788 588.389 Q193.024 586.688 196.705 585.82 Q200.385 584.952 203.441 584.952 Q211.496 584.952 216.288 588.98 Q221.08 593.007 221.08 599.744 Q221.08 602.938 219.864 605.82 Q218.684 608.667 215.524 612.556 Q214.656 613.563 210.003 618.389 Q205.351 623.181 196.878 631.827 Z" fill="#000000" fill-rule="nonzero" fill-opacity="1" /><path clip-path="url(#clip670)" d="M236.149 585.889 L263.684 585.889 L263.684 591.792 L242.573 591.792 L242.573 604.5 Q244.1 603.98 245.628 603.737 Q247.156 603.459 248.684 603.459 Q257.364 603.459 262.434 608.216 Q267.503 612.973 267.503 621.098 Q267.503 629.466 262.295 634.118 Q257.086 638.736 247.607 638.736 Q244.343 638.736 240.941 638.181 Q237.573 637.625 233.961 636.514 L233.961 629.466 Q237.086 631.167 240.42 632 Q243.753 632.834 247.468 632.834 Q253.475 632.834 256.982 629.674 Q260.489 626.514 260.489 621.098 Q260.489 615.681 256.982 612.521 Q253.475 609.362 247.468 609.362 Q244.656 609.362 241.843 609.987 Q239.066 610.612 236.149 611.931 L236.149 585.889 Z" fill="#000000" fill-rule="nonzero" fill-opacity="1" /><path clip-path="url(#clip670)" d="M122.712 381.179 L134.17 381.179 L134.17 341.631 L121.705 344.131 L121.705 337.742 L134.101 335.242 L141.115 335.242 L141.115 381.179 L152.573 381.179 L152.573 387.082 L122.712 387.082 L122.712 381.179 Z" fill="#000000" fill-rule="nonzero" fill-opacity="1" /><path clip-path="url(#clip670)" d="M166.74 378.263 L174.066 378.263 L174.066 387.082 L166.74 387.082 L166.74 378.263 Z" fill="#000000" fill-rule="nonzero" fill-opacity="1" /><path clip-path="url(#clip670)" d="M189.413 335.242 L216.948 335.242 L216.948 341.145 L195.837 341.145 L195.837 353.853 Q197.364 353.332 198.892 353.089 Q200.42 352.812 201.948 352.812 Q210.628 352.812 215.698 357.568 Q220.767 362.325 220.767 370.45 Q220.767 378.818 215.559 383.471 Q210.35 388.089 200.871 388.089 Q197.608 388.089 194.205 387.534 Q190.837 386.978 187.226 385.867 L187.226 378.818 Q190.351 380.52 193.684 381.353 Q197.017 382.186 200.732 382.186 Q206.739 382.186 210.246 379.027 Q213.753 375.867 213.753 370.45 Q213.753 365.034 210.246 361.874 Q206.739 358.714 200.732 358.714 Q197.92 358.714 195.108 359.339 Q192.33 359.964 189.413 361.284 L189.413 335.242 Z" fill="#000000" fill-rule="nonzero" fill-opacity="1" /><path clip-path="url(#clip670)" d="M249.586 339.86 Q244.17 339.86 241.427 345.207 Q238.718 350.52 238.718 361.214 Q238.718 371.874 241.427 377.221 Q244.17 382.534 249.586 382.534 Q255.038 382.534 257.746 377.221 Q260.489 371.874 260.489 361.214 Q260.489 350.52 257.746 345.207 Q255.038 339.86 249.586 339.86 M249.586 334.305 Q258.302 334.305 262.885 341.214 Q267.503 348.089 267.503 361.214 Q267.503 374.304 262.885 381.214 Q258.302 388.089 249.586 388.089 Q240.871 388.089 236.253 381.214 Q231.67 374.304 231.67 361.214 Q231.67 348.089 236.253 341.214 Q240.871 334.305 249.586 334.305 Z" fill="#000000" fill-rule="nonzero" fill-opacity="1" /><path clip-path="url(#clip670)" d="M35.6047 1045.01 Q31.2992 1042.61 29.2506 1039.28 Q27.202 1035.94 27.202 1031.43 Q27.202 1025.35 31.4728 1022.06 Q35.7089 1018.76 43.5561 1018.76 L67.0282 1018.76 L67.0282 1025.18 L43.7644 1025.18 Q38.1741 1025.18 35.4658 1027.16 Q32.7575 1029.14 32.7575 1033.2 Q32.7575 1038.17 36.0561 1041.05 Q39.3547 1043.93 45.0491 1043.93 L67.0282 1043.93 L67.0282 1050.35 L43.7644 1050.35 Q38.1394 1050.35 35.4658 1052.33 Q32.7575 1054.31 32.7575 1058.44 Q32.7575 1063.34 36.0908 1066.22 Q39.3894 1069.1 45.0491 1069.1 L67.0282 1069.1 L67.0282 1075.53 L28.1395 1075.53 L28.1395 1069.1 L34.1811 1069.1 Q30.6047 1066.92 28.9034 1063.86 Q27.202 1060.81 27.202 1056.6 Q27.202 1052.37 29.3547 1049.42 Q31.5075 1046.43 35.6047 1045.01 Z" fill="#000000" fill-rule="nonzero" fill-opacity="1" /><path clip-path="url(#clip670)" d="M47.4797 988.341 Q47.4797 996.084 49.2505 999.07 Q51.0213 1002.06 55.2921 1002.06 Q58.6949 1002.06 60.7087 999.834 Q62.6879 997.577 62.6879 993.723 Q62.6879 988.41 58.9379 985.216 Q55.1532 981.987 48.9033 981.987 L47.4797 981.987 L47.4797 988.341 M44.8408 975.598 L67.0282 975.598 L67.0282 981.987 L61.1254 981.987 Q64.6671 984.174 66.3684 987.438 Q68.0351 990.702 68.0351 995.424 Q68.0351 1001.4 64.7018 1004.94 Q61.3337 1008.44 55.7088 1008.44 Q49.1463 1008.44 45.813 1004.07 Q42.4797 999.66 42.4797 990.945 L42.4797 981.987 L41.8547 981.987 Q37.445 981.987 35.0492 984.903 Q32.6186 987.785 32.6186 993.028 Q32.6186 996.362 33.4172 999.521 Q34.2158 1002.68 35.813 1005.6 L29.9103 1005.6 Q28.5561 1002.09 27.8964 998.792 Q27.202 995.493 27.202 992.369 Q27.202 983.931 31.577 979.764 Q35.9519 975.598 44.8408 975.598 Z" fill="#000000" fill-rule="nonzero" fill-opacity="1" /><path clip-path="url(#clip670)" d="M29.2853 937.647 L35.3269 937.647 Q33.9381 940.355 33.2436 943.272 Q32.5492 946.188 32.5492 949.313 Q32.5492 954.07 34.0075 956.466 Q35.4658 958.827 38.3825 958.827 Q40.6047 958.827 41.8894 957.126 Q43.1394 955.424 44.2852 950.285 L44.7713 948.098 Q46.2297 941.292 48.9033 938.445 Q51.5421 935.563 56.299 935.563 Q61.7157 935.563 64.8754 939.869 Q68.0351 944.14 68.0351 951.64 Q68.0351 954.765 67.4101 958.167 Q66.8198 961.535 65.6046 965.285 L59.0074 965.285 Q60.8476 961.744 61.7851 958.306 Q62.6879 954.869 62.6879 951.501 Q62.6879 946.987 61.1601 944.556 Q59.5976 942.126 56.7852 942.126 Q54.181 942.126 52.7921 943.897 Q51.4032 945.633 50.1185 951.57 L49.5977 953.792 Q48.3477 959.73 45.7783 962.369 Q43.1741 965.008 38.6603 965.008 Q33.1742 965.008 30.1881 961.119 Q27.202 957.23 27.202 950.077 Q27.202 946.535 27.7228 943.41 Q28.2436 940.285 29.2853 937.647 Z" fill="#000000" fill-rule="nonzero" fill-opacity="1" /><path clip-path="url(#clip670)" d="M29.2853 900.598 L35.3269 900.598 Q33.9381 903.306 33.2436 906.223 Q32.5492 909.14 32.5492 912.265 Q32.5492 917.022 34.0075 919.418 Q35.4658 921.779 38.3825 921.779 Q40.6047 921.779 41.8894 920.077 Q43.1394 918.376 44.2852 913.237 L44.7713 911.049 Q46.2297 904.244 48.9033 901.397 Q51.5421 898.515 56.299 898.515 Q61.7157 898.515 64.8754 902.82 Q68.0351 907.091 68.0351 914.591 Q68.0351 917.716 67.4101 921.119 Q66.8198 924.487 65.6046 928.237 L59.0074 928.237 Q60.8476 924.695 61.7851 921.258 Q62.6879 917.82 62.6879 914.452 Q62.6879 909.938 61.1601 907.508 Q59.5976 905.077 56.7852 905.077 Q54.181 905.077 52.7921 906.848 Q51.4032 908.584 50.1185 914.522 L49.5977 916.744 Q48.3477 922.681 45.7783 925.32 Q43.1741 927.959 38.6603 927.959 Q33.1742 927.959 30.1881 924.07 Q27.202 920.181 27.202 913.029 Q27.202 909.487 27.7228 906.362 Q28.2436 903.237 29.2853 900.598 Z" fill="#000000" fill-rule="nonzero" fill-opacity="1" /><path clip-path="url(#clip670)" d="M61.1949 859.557 L81.8197 859.557 L81.8197 865.98 L28.1395 865.98 L28.1395 859.557 L34.0422 859.557 Q30.57 857.543 28.9034 854.487 Q27.202 851.397 27.202 847.126 Q27.202 840.043 32.827 835.633 Q38.4519 831.189 47.6185 831.189 Q56.7852 831.189 62.4101 835.633 Q68.0351 840.043 68.0351 847.126 Q68.0351 851.397 66.3684 854.487 Q64.6671 857.543 61.1949 859.557 M47.6185 837.821 Q40.57 837.821 36.5769 840.737 Q32.5492 843.619 32.5492 848.689 Q32.5492 853.758 36.5769 856.675 Q40.57 859.557 47.6185 859.557 Q54.6671 859.557 58.6949 856.675 Q62.6879 853.758 62.6879 848.689 Q62.6879 843.619 58.6949 840.737 Q54.6671 837.821 47.6185 837.821 Z" fill="#000000" fill-rule="nonzero" fill-opacity="1" /><path clip-path="url(#clip670)" d="M32.6186 805.529 Q32.6186 810.668 36.6464 813.654 Q40.6394 816.64 47.6185 816.64 Q54.5977 816.64 58.6254 813.689 Q62.6185 810.703 62.6185 805.529 Q62.6185 800.425 58.5907 797.439 Q54.5629 794.453 47.6185 794.453 Q40.7089 794.453 36.6811 797.439 Q32.6186 800.425 32.6186 805.529 M27.202 805.529 Q27.202 797.196 32.6186 792.439 Q38.0353 787.682 47.6185 787.682 Q57.1671 787.682 62.6185 792.439 Q68.0351 797.196 68.0351 805.529 Q68.0351 813.897 62.6185 818.654 Q57.1671 823.376 47.6185 823.376 Q38.0353 823.376 32.6186 818.654 Q27.202 813.897 27.202 805.529 Z" fill="#000000" fill-rule="nonzero" fill-opacity="1" /><path clip-path="url(#clip670)" d="M29.2853 752.3 L35.3269 752.3 Q33.9381 755.009 33.2436 757.925 Q32.5492 760.842 32.5492 763.967 Q32.5492 768.724 34.0075 771.12 Q35.4658 773.481 38.3825 773.481 Q40.6047 773.481 41.8894 771.779 Q43.1394 770.078 44.2852 764.939 L44.7713 762.752 Q46.2297 755.946 48.9033 753.099 Q51.5421 750.217 56.299 750.217 Q61.7157 750.217 64.8754 754.523 Q68.0351 758.793 68.0351 766.293 Q68.0351 769.418 67.4101 772.821 Q66.8198 776.189 65.6046 779.939 L59.0074 779.939 Q60.8476 776.397 61.7851 772.96 Q62.6879 769.522 62.6879 766.154 Q62.6879 761.641 61.1601 759.21 Q59.5976 756.779 56.7852 756.779 Q54.181 756.779 52.7921 758.55 Q51.4032 760.286 50.1185 766.224 L49.5977 768.446 Q48.3477 774.384 45.7783 777.022 Q43.1741 779.661 38.6603 779.661 Q33.1742 779.661 30.1881 775.772 Q27.202 771.884 27.202 764.731 Q27.202 761.189 27.7228 758.064 Q28.2436 754.939 29.2853 752.3 Z" fill="#000000" fill-rule="nonzero" fill-opacity="1" /><path clip-path="url(#clip670)" d="M28.1395 740.043 L28.1395 733.655 L67.0282 733.655 L67.0282 740.043 L28.1395 740.043 M13.0007 740.043 L13.0007 733.655 L21.0909 733.655 L21.0909 740.043 L13.0007 740.043 Z" fill="#000000" fill-rule="nonzero" fill-opacity="1" /><path clip-path="url(#clip670)" d="M17.0979 713.967 L28.1395 713.967 L28.1395 700.808 L33.1047 700.808 L33.1047 713.967 L54.2157 713.967 Q58.9726 713.967 60.3268 712.683 Q61.681 711.363 61.681 707.37 L61.681 700.808 L67.0282 700.808 L67.0282 707.37 Q67.0282 714.766 64.2851 717.578 Q61.5074 720.391 54.2157 720.391 L33.1047 720.391 L33.1047 725.078 L28.1395 725.078 L28.1395 720.391 L17.0979 720.391 L17.0979 713.967 Z" fill="#000000" fill-rule="nonzero" fill-opacity="1" /><path clip-path="url(#clip670)" d="M28.1395 692.405 L28.1395 686.016 L67.0282 686.016 L67.0282 692.405 L28.1395 692.405 M13.0007 692.405 L13.0007 686.016 L21.0909 686.016 L21.0909 692.405 L13.0007 692.405 Z" fill="#000000" fill-rule="nonzero" fill-opacity="1" /><path clip-path="url(#clip670)" d="M32.6186 657.579 Q32.6186 662.717 36.6464 665.704 Q40.6394 668.69 47.6185 668.69 Q54.5977 668.69 58.6254 665.738 Q62.6185 662.752 62.6185 657.579 Q62.6185 652.474 58.5907 649.488 Q54.5629 646.502 47.6185 646.502 Q40.7089 646.502 36.6811 649.488 Q32.6186 652.474 32.6186 657.579 M27.202 657.579 Q27.202 649.245 32.6186 644.488 Q38.0353 639.732 47.6185 639.732 Q57.1671 639.732 62.6185 644.488 Q68.0351 649.245 68.0351 657.579 Q68.0351 665.947 62.6185 670.704 Q57.1671 675.426 47.6185 675.426 Q38.0353 675.426 32.6186 670.704 Q27.202 665.947 27.202 657.579 Z" fill="#000000" fill-rule="nonzero" fill-opacity="1" /><path clip-path="url(#clip670)" d="M43.5561 596.815 L67.0282 596.815 L67.0282 603.204 L43.7644 603.204 Q38.2436 603.204 35.5005 605.357 Q32.7575 607.509 32.7575 611.815 Q32.7575 616.989 36.0561 619.975 Q39.3547 622.961 45.0491 622.961 L67.0282 622.961 L67.0282 629.384 L28.1395 629.384 L28.1395 622.961 L34.1811 622.961 Q30.6742 620.669 28.9381 617.579 Q27.202 614.454 27.202 610.391 Q27.202 603.69 31.3686 600.253 Q35.5005 596.815 43.5561 596.815 Z" fill="#000000" fill-rule="nonzero" fill-opacity="1" /><path clip-path="url(#clip670)" d="M13.0007 562.058 L13.0007 547.336 L17.9659 547.336 L17.9659 555.669 L71.4379 555.669 L71.4379 547.336 L76.4031 547.336 L76.4031 562.058 L13.0007 562.058 Z" fill="#000000" fill-rule="nonzero" fill-opacity="1" /><path clip-path="url(#clip670)" d="M35.6047 503.448 Q31.2992 501.052 29.2506 497.718 Q27.202 494.385 27.202 489.871 Q27.202 483.795 31.4728 480.496 Q35.7089 477.198 43.5561 477.198 L67.0282 477.198 L67.0282 483.621 L43.7644 483.621 Q38.1741 483.621 35.4658 485.6 Q32.7575 487.58 32.7575 491.642 Q32.7575 496.607 36.0561 499.489 Q39.3547 502.371 45.0491 502.371 L67.0282 502.371 L67.0282 508.795 L43.7644 508.795 Q38.1394 508.795 35.4658 510.774 Q32.7575 512.753 32.7575 516.885 Q32.7575 521.781 36.0908 524.663 Q39.3894 527.545 45.0491 527.545 L67.0282 527.545 L67.0282 533.968 L28.1395 533.968 L28.1395 527.545 L34.1811 527.545 Q30.6047 525.357 28.9034 522.302 Q27.202 519.246 27.202 515.045 Q27.202 510.809 29.3547 507.857 Q31.5075 504.871 35.6047 503.448 Z" fill="#000000" fill-rule="nonzero" fill-opacity="1" /><path clip-path="url(#clip670)" d="M13.0007 449.524 L76.4031 449.524 L76.4031 464.246 L71.4379 464.246 L71.4379 455.948 L17.9659 455.948 L17.9659 464.246 L13.0007 464.246 L13.0007 449.524 Z" fill="#000000" fill-rule="nonzero" fill-opacity="1" /><path clip-path="url(#clip670)" d="M626.29 18.8205 L626.29 65.8515 L636.174 65.8515 Q648.692 65.8515 654.484 60.1802 Q660.318 54.509 660.318 42.2752 Q660.318 30.1225 654.484 24.4918 Q648.692 18.8205 636.174 18.8205 L626.29 18.8205 M618.107 12.096 L634.918 12.096 Q652.499 12.096 660.723 19.4281 Q668.946 26.7198 668.946 42.2752 Q668.946 57.9117 660.682 65.2439 Q652.418 72.576 634.918 72.576 L618.107 72.576 L618.107 12.096 Z" fill="#000000" fill-rule="nonzero" fill-opacity="1" /><path clip-path="url(#clip670)" d="M720.474 48.0275 L720.474 51.6733 L686.203 51.6733 Q686.689 59.3701 690.821 63.421 Q694.993 67.4314 702.407 67.4314 Q706.7 67.4314 710.711 66.3781 Q714.762 65.3249 718.732 63.2184 L718.732 70.267 Q714.721 71.9684 710.508 72.8596 Q706.295 73.7508 701.961 73.7508 Q691.104 73.7508 684.745 67.4314 Q678.425 61.1119 678.425 50.3365 Q678.425 39.1965 684.421 32.6746 Q690.456 26.1121 700.665 26.1121 Q709.82 26.1121 715.126 32.0264 Q720.474 37.9003 720.474 48.0275 M713.02 45.84 Q712.939 39.7232 709.577 36.0774 Q706.255 32.4315 700.746 32.4315 Q694.507 32.4315 690.74 35.9558 Q687.013 39.4801 686.446 45.8805 L713.02 45.84 Z" fill="#000000" fill-rule="nonzero" fill-opacity="1" /><path clip-path="url(#clip670)" d="M755.676 9.54393 L755.676 15.7418 L748.546 15.7418 Q744.536 15.7418 742.956 17.3622 Q741.417 18.9825 741.417 23.1955 L741.417 27.2059 L753.691 27.2059 L753.691 32.9987 L741.417 32.9987 L741.417 72.576 L733.923 72.576 L733.923 32.9987 L726.793 32.9987 L726.793 27.2059 L733.923 27.2059 L733.923 24.0462 Q733.923 16.471 737.447 13.0277 Q740.971 9.54393 748.627 9.54393 L755.676 9.54393 Z" fill="#000000" fill-rule="nonzero" fill-opacity="1" /><path clip-path="url(#clip670)" d="M782.533 49.7694 Q773.5 49.7694 770.016 51.8354 Q766.532 53.9013 766.532 58.8839 Q766.532 62.8538 769.125 65.2034 Q771.758 67.5124 776.255 67.5124 Q782.452 67.5124 786.179 63.1374 Q789.947 58.7219 789.947 51.4303 L789.947 49.7694 L782.533 49.7694 M797.4 46.6907 L797.4 72.576 L789.947 72.576 L789.947 65.6895 Q787.394 69.8214 783.587 71.8063 Q779.779 73.7508 774.27 73.7508 Q767.302 73.7508 763.17 69.8619 Q759.079 65.9325 759.079 59.3701 Q759.079 51.7138 764.183 47.825 Q769.327 43.9361 779.495 43.9361 L789.947 43.9361 L789.947 43.2069 Q789.947 38.0623 786.544 35.2672 Q783.182 32.4315 777.065 32.4315 Q773.176 32.4315 769.489 33.3632 Q765.803 34.295 762.4 36.1584 L762.4 29.2718 Q766.492 27.692 770.34 26.9223 Q774.189 26.1121 777.834 26.1121 Q787.678 26.1121 792.539 31.2163 Q797.4 36.3204 797.4 46.6907 Z" fill="#000000" fill-rule="nonzero" fill-opacity="1" /><path clip-path="url(#clip670)" d="M811.983 54.671 L811.983 27.2059 L819.437 27.2059 L819.437 54.3874 Q819.437 60.8284 821.949 64.0691 Q824.46 67.2693 829.483 67.2693 Q835.519 67.2693 839.003 63.421 Q842.527 59.5726 842.527 52.9291 L842.527 27.2059 L849.981 27.2059 L849.981 72.576 L842.527 72.576 L842.527 65.6084 Q839.813 69.7404 836.208 71.7658 Q832.643 73.7508 827.904 73.7508 Q820.085 73.7508 816.034 68.8897 Q811.983 64.0286 811.983 54.671 M830.739 26.1121 L830.739 26.1121 Z" fill="#000000" fill-rule="nonzero" fill-opacity="1" /><path clip-path="url(#clip670)" d="M865.334 9.54393 L872.788 9.54393 L872.788 72.576 L865.334 72.576 L865.334 9.54393 Z" fill="#000000" fill-rule="nonzero" fill-opacity="1" /><path clip-path="url(#clip670)" d="M895.756 14.324 L895.756 27.2059 L911.109 27.2059 L911.109 32.9987 L895.756 32.9987 L895.756 57.6282 Q895.756 63.1779 897.255 64.7578 Q898.794 66.3376 903.453 66.3376 L911.109 66.3376 L911.109 72.576 L903.453 72.576 Q894.824 72.576 891.543 69.3758 Q888.262 66.1351 888.262 57.6282 L888.262 32.9987 L882.793 32.9987 L882.793 27.2059 L888.262 27.2059 L888.262 14.324 L895.756 14.324 Z" fill="#000000" fill-rule="nonzero" fill-opacity="1" /><path clip-path="url(#clip670)" d="M922.816 62.2867 L931.364 62.2867 L931.364 72.576 L922.816 72.576 L922.816 62.2867 M922.816 29.6769 L931.364 29.6769 L931.364 39.9662 L922.816 39.9662 L922.816 29.6769 Z" fill="#000000" fill-rule="nonzero" fill-opacity="1" /><path clip-path="url(#clip670)" d="M975.559 12.096 L987.752 12.096 L1003.19 53.2532 L1018.7 12.096 L1030.89 12.096 L1030.89 72.576 L1022.91 72.576 L1022.91 19.4686 L1007.32 60.9499 L999.095 60.9499 L983.499 19.4686 L983.499 72.576 L975.559 72.576 L975.559 12.096 Z" fill="#000000" fill-rule="nonzero" fill-opacity="1" /><path clip-path="url(#clip670)" d="M1067.43 49.7694 Q1058.4 49.7694 1054.92 51.8354 Q1051.43 53.9013 1051.43 58.8839 Q1051.43 62.8538 1054.03 65.2034 Q1056.66 67.5124 1061.15 67.5124 Q1067.35 67.5124 1071.08 63.1374 Q1074.85 58.7219 1074.85 51.4303 L1074.85 49.7694 L1067.43 49.7694 M1082.3 46.6907 L1082.3 72.576 L1074.85 72.576 L1074.85 65.6895 Q1072.29 69.8214 1068.49 71.8063 Q1064.68 73.7508 1059.17 73.7508 Q1052.2 73.7508 1048.07 69.8619 Q1043.98 65.9325 1043.98 59.3701 Q1043.98 51.7138 1049.08 47.825 Q1054.23 43.9361 1064.4 43.9361 L1074.85 43.9361 L1074.85 43.2069 Q1074.85 38.0623 1071.44 35.2672 Q1068.08 32.4315 1061.96 32.4315 Q1058.08 32.4315 1054.39 33.3632 Q1050.7 34.295 1047.3 36.1584 L1047.3 29.2718 Q1051.39 27.692 1055.24 26.9223 Q1059.09 26.1121 1062.73 26.1121 Q1072.58 26.1121 1077.44 31.2163 Q1082.3 36.3204 1082.3 46.6907 Z" fill="#000000" fill-rule="nonzero" fill-opacity="1" /><path clip-path="url(#clip670)" d="M1126.58 28.5427 L1126.58 35.5912 Q1123.42 33.9709 1120.01 33.1607 Q1116.61 32.3505 1112.97 32.3505 Q1107.42 32.3505 1104.62 34.0519 Q1101.87 35.7533 1101.87 39.156 Q1101.87 41.7486 1103.85 43.2475 Q1105.84 44.7058 1111.83 46.0426 L1114.38 46.6097 Q1122.32 48.3111 1125.64 51.4303 Q1129.01 54.509 1129.01 60.0587 Q1129.01 66.3781 1123.98 70.0644 Q1119 73.7508 1110.25 73.7508 Q1106.61 73.7508 1102.64 73.0216 Q1098.71 72.3329 1094.33 70.9151 L1094.33 63.2184 Q1098.46 65.3654 1102.47 66.4591 Q1106.48 67.5124 1110.41 67.5124 Q1115.68 67.5124 1118.52 65.73 Q1121.35 63.9071 1121.35 60.6258 Q1121.35 57.5877 1119.29 55.9673 Q1117.26 54.3469 1110.33 52.8481 L1107.74 52.2405 Q1100.81 50.7821 1097.73 47.7845 Q1094.66 44.7463 1094.66 39.4801 Q1094.66 33.0797 1099.19 29.5959 Q1103.73 26.1121 1112.07 26.1121 Q1116.21 26.1121 1119.85 26.7198 Q1123.5 27.3274 1126.58 28.5427 Z" fill="#000000" fill-rule="nonzero" fill-opacity="1" /><path clip-path="url(#clip670)" d="M1169.8 28.5427 L1169.8 35.5912 Q1166.64 33.9709 1163.24 33.1607 Q1159.83 32.3505 1156.19 32.3505 Q1150.64 32.3505 1147.84 34.0519 Q1145.09 35.7533 1145.09 39.156 Q1145.09 41.7486 1147.07 43.2475 Q1149.06 44.7058 1155.05 46.0426 L1157.61 46.6097 Q1165.55 48.3111 1168.87 51.4303 Q1172.23 54.509 1172.23 60.0587 Q1172.23 66.3781 1167.21 70.0644 Q1162.22 73.7508 1153.47 73.7508 Q1149.83 73.7508 1145.86 73.0216 Q1141.93 72.3329 1137.55 70.9151 L1137.55 63.2184 Q1141.69 65.3654 1145.7 66.4591 Q1149.71 67.5124 1153.64 67.5124 Q1158.9 67.5124 1161.74 65.73 Q1164.57 63.9071 1164.57 60.6258 Q1164.57 57.5877 1162.51 55.9673 Q1160.48 54.3469 1153.56 52.8481 L1150.96 52.2405 Q1144.04 50.7821 1140.96 47.7845 Q1137.88 44.7463 1137.88 39.4801 Q1137.88 33.0797 1142.42 29.5959 Q1146.95 26.1121 1155.3 26.1121 Q1159.43 26.1121 1163.08 26.7198 Q1166.72 27.3274 1169.8 28.5427 Z" fill="#000000" fill-rule="nonzero" fill-opacity="1" /><path clip-path="url(#clip670)" d="M1217.68 65.7705 L1217.68 89.8329 L1210.19 89.8329 L1210.19 27.2059 L1217.68 27.2059 L1217.68 34.0924 Q1220.03 30.0415 1223.6 28.0971 Q1227.2 26.1121 1232.18 26.1121 Q1240.45 26.1121 1245.59 32.6746 Q1250.78 39.2371 1250.78 49.9314 Q1250.78 60.6258 1245.59 67.1883 Q1240.45 73.7508 1232.18 73.7508 Q1227.2 73.7508 1223.6 71.8063 Q1220.03 69.8214 1217.68 65.7705 M1243.04 49.9314 Q1243.04 41.7081 1239.64 37.0496 Q1236.28 32.3505 1230.36 32.3505 Q1224.45 32.3505 1221.04 37.0496 Q1217.68 41.7081 1217.68 49.9314 Q1217.68 58.1548 1221.04 62.8538 Q1224.45 67.5124 1230.36 67.5124 Q1236.28 67.5124 1239.64 62.8538 Q1243.04 58.1548 1243.04 49.9314 Z" fill="#000000" fill-rule="nonzero" fill-opacity="1" /><path clip-path="url(#clip670)" d="M1280.71 32.4315 Q1274.72 32.4315 1271.23 37.1306 Q1267.75 41.7891 1267.75 49.9314 Q1267.75 58.0738 1271.19 62.7728 Q1274.68 67.4314 1280.71 67.4314 Q1286.67 67.4314 1290.15 62.7323 Q1293.64 58.0333 1293.64 49.9314 Q1293.64 41.8701 1290.15 37.1711 Q1286.67 32.4315 1280.71 32.4315 M1280.71 26.1121 Q1290.44 26.1121 1295.99 32.4315 Q1301.54 38.7509 1301.54 49.9314 Q1301.54 61.0714 1295.99 67.4314 Q1290.44 73.7508 1280.71 73.7508 Q1270.95 73.7508 1265.4 67.4314 Q1259.89 61.0714 1259.89 49.9314 Q1259.89 38.7509 1265.4 32.4315 Q1270.95 26.1121 1280.71 26.1121 Z" fill="#000000" fill-rule="nonzero" fill-opacity="1" /><path clip-path="url(#clip670)" d="M1342.81 28.5427 L1342.81 35.5912 Q1339.65 33.9709 1336.25 33.1607 Q1332.85 32.3505 1329.2 32.3505 Q1323.65 32.3505 1320.86 34.0519 Q1318.1 35.7533 1318.1 39.156 Q1318.1 41.7486 1320.09 43.2475 Q1322.07 44.7058 1328.07 46.0426 L1330.62 46.6097 Q1338.56 48.3111 1341.88 51.4303 Q1345.24 54.509 1345.24 60.0587 Q1345.24 66.3781 1340.22 70.0644 Q1335.24 73.7508 1326.49 73.7508 Q1322.84 73.7508 1318.87 73.0216 Q1314.94 72.3329 1310.57 70.9151 L1310.57 63.2184 Q1314.7 65.3654 1318.71 66.4591 Q1322.72 67.5124 1326.65 67.5124 Q1331.92 67.5124 1334.75 65.73 Q1337.59 63.9071 1337.59 60.6258 Q1337.59 57.5877 1335.52 55.9673 Q1333.5 54.3469 1326.57 52.8481 L1323.98 52.2405 Q1317.05 50.7821 1313.97 47.7845 Q1310.89 44.7463 1310.89 39.4801 Q1310.89 33.0797 1315.43 29.5959 Q1319.97 26.1121 1328.31 26.1121 Q1332.44 26.1121 1336.09 26.7198 Q1339.74 27.3274 1342.81 28.5427 Z" fill="#000000" fill-rule="nonzero" fill-opacity="1" /><path clip-path="url(#clip670)" d="M1357.11 27.2059 L1364.57 27.2059 L1364.57 72.576 L1357.11 72.576 L1357.11 27.2059 M1357.11 9.54393 L1364.57 9.54393 L1364.57 18.9825 L1357.11 18.9825 L1357.11 9.54393 Z" fill="#000000" fill-rule="nonzero" fill-opacity="1" /><path clip-path="url(#clip670)" d="M1387.54 14.324 L1387.54 27.2059 L1402.89 27.2059 L1402.89 32.9987 L1387.54 32.9987 L1387.54 57.6282 Q1387.54 63.1779 1389.03 64.7578 Q1390.57 66.3376 1395.23 66.3376 L1402.89 66.3376 L1402.89 72.576 L1395.23 72.576 Q1386.6 72.576 1383.32 69.3758 Q1380.04 66.1351 1380.04 57.6282 L1380.04 32.9987 L1374.57 32.9987 L1374.57 27.2059 L1380.04 27.2059 L1380.04 14.324 L1387.54 14.324 Z" fill="#000000" fill-rule="nonzero" fill-opacity="1" /><path clip-path="url(#clip670)" d="M1412.69 27.2059 L1420.15 27.2059 L1420.15 72.576 L1412.69 72.576 L1412.69 27.2059 M1412.69 9.54393 L1420.15 9.54393 L1420.15 18.9825 L1412.69 18.9825 L1412.69 9.54393 Z" fill="#000000" fill-rule="nonzero" fill-opacity="1" /><path clip-path="url(#clip670)" d="M1453.32 32.4315 Q1447.33 32.4315 1443.84 37.1306 Q1440.36 41.7891 1440.36 49.9314 Q1440.36 58.0738 1443.8 62.7728 Q1447.29 67.4314 1453.32 67.4314 Q1459.28 67.4314 1462.76 62.7323 Q1466.25 58.0333 1466.25 49.9314 Q1466.25 41.8701 1462.76 37.1711 Q1459.28 32.4315 1453.32 32.4315 M1453.32 26.1121 Q1463.04 26.1121 1468.59 32.4315 Q1474.14 38.7509 1474.14 49.9314 Q1474.14 61.0714 1468.59 67.4314 Q1463.04 73.7508 1453.32 73.7508 Q1443.56 73.7508 1438.01 67.4314 Q1432.5 61.0714 1432.5 49.9314 Q1432.5 38.7509 1438.01 32.4315 Q1443.56 26.1121 1453.32 26.1121 Z" fill="#000000" fill-rule="nonzero" fill-opacity="1" /><path clip-path="url(#clip670)" d="M1524.21 45.1919 L1524.21 72.576 L1516.76 72.576 L1516.76 45.4349 Q1516.76 38.994 1514.25 35.7938 Q1511.74 32.5936 1506.71 32.5936 Q1500.68 32.5936 1497.19 36.4419 Q1493.71 40.2903 1493.71 46.9338 L1493.71 72.576 L1486.22 72.576 L1486.22 27.2059 L1493.71 27.2059 L1493.71 34.2544 Q1496.38 30.163 1499.99 28.1376 Q1503.63 26.1121 1508.37 26.1121 Q1516.19 26.1121 1520.2 30.9732 Q1524.21 35.7938 1524.21 45.1919 Z" fill="#000000" fill-rule="nonzero" fill-opacity="1" /><path clip-path="url(#clip670)" d="M1586.07 49.7694 Q1577.04 49.7694 1573.55 51.8354 Q1570.07 53.9013 1570.07 58.8839 Q1570.07 62.8538 1572.66 65.2034 Q1575.3 67.5124 1579.79 67.5124 Q1585.99 67.5124 1589.72 63.1374 Q1593.48 58.7219 1593.48 51.4303 L1593.48 49.7694 L1586.07 49.7694 M1600.94 46.6907 L1600.94 72.576 L1593.48 72.576 L1593.48 65.6895 Q1590.93 69.8214 1587.12 71.8063 Q1583.32 73.7508 1577.81 73.7508 Q1570.84 73.7508 1566.71 69.8619 Q1562.62 65.9325 1562.62 59.3701 Q1562.62 51.7138 1567.72 47.825 Q1572.86 43.9361 1583.03 43.9361 L1593.48 43.9361 L1593.48 43.2069 Q1593.48 38.0623 1590.08 35.2672 Q1586.72 32.4315 1580.6 32.4315 Q1576.71 32.4315 1573.03 33.3632 Q1569.34 34.295 1565.94 36.1584 L1565.94 29.2718 Q1570.03 27.692 1573.88 26.9223 Q1577.73 26.1121 1581.37 26.1121 Q1591.22 26.1121 1596.08 31.2163 Q1600.94 36.3204 1600.94 46.6907 Z" fill="#000000" fill-rule="nonzero" fill-opacity="1" /><path clip-path="url(#clip670)" d="M1639.26 9.54393 L1639.26 15.7418 L1632.13 15.7418 Q1628.12 15.7418 1626.54 17.3622 Q1625 18.9825 1625 23.1955 L1625 27.2059 L1637.27 27.2059 L1637.27 32.9987 L1625 32.9987 L1625 72.576 L1617.51 72.576 L1617.51 32.9987 L1610.38 32.9987 L1610.38 27.2059 L1617.51 27.2059 L1617.51 24.0462 Q1617.51 16.471 1621.03 13.0277 Q1624.55 9.54393 1632.21 9.54393 L1639.26 9.54393 Z" fill="#000000" fill-rule="nonzero" fill-opacity="1" /><path clip-path="url(#clip670)" d="M1651.41 14.324 L1651.41 27.2059 L1666.76 27.2059 L1666.76 32.9987 L1651.41 32.9987 L1651.41 57.6282 Q1651.41 63.1779 1652.91 64.7578 Q1654.45 66.3376 1659.11 66.3376 L1666.76 66.3376 L1666.76 72.576 L1659.11 72.576 Q1650.48 72.576 1647.2 69.3758 Q1643.92 66.1351 1643.92 57.6282 L1643.92 32.9987 L1638.45 32.9987 L1638.45 27.2059 L1643.92 27.2059 L1643.92 14.324 L1651.41 14.324 Z" fill="#000000" fill-rule="nonzero" fill-opacity="1" /><path clip-path="url(#clip670)" d="M1715.38 48.0275 L1715.38 51.6733 L1681.1 51.6733 Q1681.59 59.3701 1685.72 63.421 Q1689.9 67.4314 1697.31 67.4314 Q1701.6 67.4314 1705.61 66.3781 Q1709.66 65.3249 1713.63 63.2184 L1713.63 70.267 Q1709.62 71.9684 1705.41 72.8596 Q1701.2 73.7508 1696.86 73.7508 Q1686.01 73.7508 1679.65 67.4314 Q1673.33 61.1119 1673.33 50.3365 Q1673.33 39.1965 1679.32 32.6746 Q1685.36 26.1121 1695.57 26.1121 Q1704.72 26.1121 1710.03 32.0264 Q1715.38 37.9003 1715.38 48.0275 M1707.92 45.84 Q1707.84 39.7232 1704.48 36.0774 Q1701.16 32.4315 1695.65 32.4315 Q1689.41 32.4315 1685.64 35.9558 Q1681.92 39.4801 1681.35 45.8805 L1707.92 45.84 Z" fill="#000000" fill-rule="nonzero" fill-opacity="1" /><path clip-path="url(#clip670)" d="M1753.9 34.1734 Q1752.64 33.4443 1751.15 33.1202 Q1749.69 32.7556 1747.9 32.7556 Q1741.58 32.7556 1738.18 36.8875 Q1734.82 40.9789 1734.82 48.6757 L1734.82 72.576 L1727.33 72.576 L1727.33 27.2059 L1734.82 27.2059 L1734.82 34.2544 Q1737.17 30.1225 1740.94 28.1376 Q1744.7 26.1121 1750.09 26.1121 Q1750.86 26.1121 1751.79 26.2337 Q1752.72 26.3147 1753.86 26.5172 L1753.9 34.1734 Z" fill="#000000" fill-rule="nonzero" fill-opacity="1" /><path clip-path="url(#clip670)" d="M1817.09 44.2197 Q1819.73 45.1109 1822.2 48.0275 Q1824.71 50.9442 1827.22 56.0483 L1835.53 72.576 L1826.73 72.576 L1819 57.061 Q1816 50.9847 1813.16 48.9997 Q1810.37 47.0148 1805.51 47.0148 L1796.6 47.0148 L1796.6 72.576 L1788.41 72.576 L1788.41 12.096 L1806.89 12.096 Q1817.26 12.096 1822.36 16.4305 Q1827.46 20.7649 1827.46 29.5149 Q1827.46 35.2267 1824.79 38.994 Q1822.16 42.7613 1817.09 44.2197 M1796.6 18.8205 L1796.6 40.2903 L1806.89 40.2903 Q1812.8 40.2903 1815.8 37.5762 Q1818.84 34.8216 1818.84 29.5149 Q1818.84 24.2082 1815.8 21.5346 Q1812.8 18.8205 1806.89 18.8205 L1796.6 18.8205 Z" fill="#000000" fill-rule="nonzero" fill-opacity="1" /><path clip-path="url(#clip670)" d="M1841.24 54.671 L1841.24 27.2059 L1848.69 27.2059 L1848.69 54.3874 Q1848.69 60.8284 1851.2 64.0691 Q1853.71 67.2693 1858.74 67.2693 Q1864.77 67.2693 1868.26 63.421 Q1871.78 59.5726 1871.78 52.9291 L1871.78 27.2059 L1879.23 27.2059 L1879.23 72.576 L1871.78 72.576 L1871.78 65.6084 Q1869.07 69.7404 1865.46 71.7658 Q1861.9 73.7508 1857.16 73.7508 Q1849.34 73.7508 1845.29 68.8897 Q1841.24 64.0286 1841.24 54.671 M1859.99 26.1121 L1859.99 26.1121 Z" fill="#000000" fill-rule="nonzero" fill-opacity="1" /><path clip-path="url(#clip670)" d="M1932.3 45.1919 L1932.3 72.576 L1924.85 72.576 L1924.85 45.4349 Q1924.85 38.994 1922.34 35.7938 Q1919.82 32.5936 1914.8 32.5936 Q1908.77 32.5936 1905.28 36.4419 Q1901.8 40.2903 1901.8 46.9338 L1901.8 72.576 L1894.3 72.576 L1894.3 27.2059 L1901.8 27.2059 L1901.8 34.2544 Q1904.47 30.163 1908.08 28.1376 Q1911.72 26.1121 1916.46 26.1121 Q1924.28 26.1121 1928.29 30.9732 Q1932.3 35.7938 1932.3 45.1919 Z" fill="#000000" fill-rule="nonzero" fill-opacity="1" /><path clip-path="url(#clip670)" d="M1949.07 62.2867 L1957.62 62.2867 L1957.62 72.576 L1949.07 72.576 L1949.07 62.2867 M1949.07 29.6769 L1957.62 29.6769 L1957.62 39.9662 L1949.07 39.9662 L1949.07 29.6769 Z" fill="#000000" fill-rule="nonzero" fill-opacity="1" /><path clip-path="url(#clip670)" d="M2009.59 65.6895 L2038.15 65.6895 L2038.15 72.576 L1999.75 72.576 L1999.75 65.6895 Q2004.41 60.8689 2012.43 52.7671 Q2020.49 44.6248 2022.56 42.2752 Q2026.49 37.8598 2028.02 34.8216 Q2029.6 31.7429 2029.6 28.7857 Q2029.6 23.9651 2026.2 20.927 Q2022.84 17.8888 2017.41 17.8888 Q2013.56 17.8888 2009.27 19.2256 Q2005.02 20.5624 2000.15 23.2765 L2000.15 15.0127 Q2005.1 13.0277 2009.39 12.015 Q2013.68 11.0023 2017.25 11.0023 Q2026.65 11.0023 2032.24 15.7013 Q2037.83 20.4004 2037.83 28.2591 Q2037.83 31.9859 2036.41 35.3482 Q2035.03 38.6699 2031.35 43.2069 Q2030.33 44.3817 2024.91 50.0125 Q2019.48 55.6027 2009.59 65.6895 Z" fill="#000000" fill-rule="nonzero" fill-opacity="1" /><polyline clip-path="url(#clip672)" style="stroke:#009af9; stroke-linecap:round; stroke-linejoin:round; stroke-width:8; stroke-opacity:1; fill:none" points="361.501,1363.75 366.334,1363.44 371.167,1362.53 376,1361.03 380.833,1358.93 385.666,1356.23 390.5,1352.94 395.333,1349.06 400.166,1344.59 404.999,1339.54 409.832,1333.91 414.665,1327.71 419.498,1320.95 424.332,1313.62 429.165,1305.75 433.998,1297.34 438.831,1288.39 443.664,1278.91 448.497,1268.92 453.33,1258.42 458.164,1247.43 462.997,1235.95 467.83,1224 472.663,1211.58 477.496,1198.72 482.329,1185.42 487.162,1171.69 491.996,1157.56 496.829,1143.03 501.662,1128.13 506.495,1112.86 511.328,1097.24 516.161,1081.28 520.994,1064.99 525.828,1048.41 530.661,1031.55 535.494,1014.42 540.327,997.026 545.16,979.398 549.993,961.547 554.826,943.497 559.66,925.267 564.493,906.871 569.326,888.329 574.159,869.659 578.992,850.88 583.825,832.011 588.658,813.068 593.492,794.073 598.325,775.044 603.158,756.003 607.991,736.968 612.824,717.961 617.657,698.996 622.49,680.089 627.324,661.264 632.157,642.54 636.99,623.938 641.823,605.476 646.656,587.174 651.489,569.04 656.322,551.099 661.156,533.37 665.989,515.87 670.822,498.618 675.655,481.633 680.488,464.929 685.321,448.517 690.154,432.419 694.988,416.652 699.821,401.231 704.654,386.173 709.487,371.494 714.32,357.202 719.153,343.314 723.986,329.844 728.82,316.808 733.653,304.219 738.486,292.089 743.319,280.431 748.152,269.25 752.985,258.562 757.818,248.378 762.652,238.709 767.485,229.565 772.318,220.956 777.151,212.886 781.984,205.364 786.817,198.399 791.65,191.998 796.484,186.169 801.317,180.917 806.15,176.248 810.983,172.162 815.816,168.667 820.649,165.765 825.482,163.46 830.316,161.756 835.149,160.653 839.982,160.151 844.815,160.251 849.648,160.953 854.481,162.256 859.314,164.161 864.148,166.664 868.981,169.763 873.814,173.455 878.647,177.735 883.48,182.601 888.313,188.046 893.147,194.066 897.98,200.655 902.813,207.805 907.646,215.511 912.479,223.764 917.312,232.555 922.145,241.877 926.979,251.718 931.812,262.07 936.645,272.924 941.478,284.268 946.311,296.09 951.144,308.378 955.977,321.12 960.811,334.302 965.644,347.913 970.477,361.94 975.31,376.368 980.143,391.182 984.976,406.367 989.809,421.907 994.643,437.786 999.476,453.992 1004.31,470.508 1009.14,487.316 1013.98,504.399 1018.81,521.739 1023.64,539.317 1028.47,557.118 1033.31,575.129 1038.14,593.327 1042.97,611.694 1047.81,630.211 1052.64,648.859 1057.47,667.617 1062.31,686.474 1067.14,705.409 1071.97,724.4 1076.81,743.429 1081.64,762.476 1086.47,781.52 1091.31,800.544 1096.14,819.535 1100.97,838.469 1105.8,857.326 1110.64,876.088 1115.47,894.734 1120.3,913.245 1125.14,931.607 1129.97,949.803 1134.8,967.811 1139.64,985.614 1144.47,1003.19 1149.3,1020.53 1154.14,1037.6 1158.97,1054.4 1163.8,1070.92 1168.64,1087.12 1173.47,1103 1178.3,1118.53 1183.14,1133.71 1187.97,1148.51 1192.8,1162.94 1197.63,1176.96 1202.47,1190.57 1207.3,1203.74 1212.13,1216.48 1216.97,1228.76 1221.8,1240.57 1226.63,1251.91 1231.47,1262.75 1236.3,1273.1 1241.13,1282.93 1245.97,1292.24 1250.8,1301.02 1255.63,1309.27 1260.47,1316.97 1265.3,1324.11 1270.13,1330.69 1274.96,1336.7 1279.8,1342.13 1284.63,1346.98 1289.46,1351.26 1294.3,1354.94 1299.13,1358.02 1303.96,1360.52 1308.8,1362.41 1313.63,1363.7 1318.46,1364.39 1323.3,1364.48 1328.13,1363.96 1332.96,1362.85 1337.8,1361.13 1342.63,1358.81 1347.46,1355.89 1352.3,1352.39 1357.13,1348.29 1361.96,1343.6 1366.79,1338.33 1371.63,1332.49 1376.46,1326.07 1381.29,1319.1 1386.13,1311.56 1390.96,1303.47 1395.79,1294.85 1400.63,1285.68 1405.46,1276 1410.29,1265.8 1415.13,1255.1 1419.96,1243.9 1424.79,1232.22 1429.63,1220.07 1434.46,1207.47 1439.29,1194.42 1444.12,1180.93 1448.96,1167.03 1453.79,1152.72 1458.62,1138.02 1463.46,1122.94 1468.29,1107.5 1473.12,1091.72 1477.96,1075.61 1482.79,1059.18 1487.62,1042.46 1492.46,1025.45 1497.29,1008.18 1502.12,990.673 1506.96,972.928 1511.79,954.973 1516.62,936.824 1521.46,918.501 1526.29,900.023 1531.12,881.409 1535.95,862.675 1540.79,843.837 1545.62,824.916 1550.45,805.933 1555.29,786.907 1560.12,767.858 1564.95,748.806 1569.79,729.763 1574.62,710.75 1579.45,691.789 1584.29,672.899 1589.12,654.1 1593.95,635.411 1598.79,616.849 1603.62,598.427 1608.45,580.169 1613.28,562.094 1618.12,544.219 1622.95,526.564 1627.78,509.148 1632.62,491.981 1637.45,475.082 1642.28,458.471 1647.12,442.163 1651.95,426.177 1656.78,410.53 1661.62,395.236 1666.45,380.303 1671.28,365.752 1676.12,351.598 1680.95,337.856 1685.78,324.539 1690.62,311.663 1695.45,299.235 1700.28,287.268 1705.11,275.776 1709.95,264.771 1714.78,254.265 1719.61,244.269 1724.45,234.792 1729.28,225.839 1734.11,217.422 1738.95,209.55 1743.78,202.232 1748.61,195.475 1753.45,189.287 1758.28,183.671 1763.11,178.632 1767.95,174.176 1772.78,170.31 1777.61,167.036 1782.44,164.358 1787.28,162.28 1792.11,160.8 1796.94,159.921 1801.78,159.645 1806.61,159.972 1811.44,160.902 1816.28,162.435 1821.11,164.567 1825.94,167.297 1830.78,170.622 1835.61,174.539 1840.44,179.044 1845.28,184.133 1850.11,189.8 1854.94,196.04 1859.78,202.847 1864.61,210.213 1869.44,218.132 1874.27,226.595 1879.11,235.594 1883.94,245.119 1888.77,255.163 1893.61,265.715 1898.44,276.764 1903.27,288.298 1908.11,300.305 1912.94,312.774 1917.77,325.694 1922.61,339.052 1927.44,352.833 1932.27,367.024 1937.11,381.61 1941.94,396.575 1946.77,411.905 1951.6,427.59 1956.44,443.609 1961.27,459.948 1966.1,476.588 1970.94,493.513 1975.77,510.705 1980.6,528.15 1985.44,545.832 1990.27,563.731 1995.1,581.828 1999.94,600.105 2004.77,618.542 2009.6,637.121 2014.44,655.831 2019.27,674.648 2024.1,693.552 2028.94,712.524 2033.77,731.545 2038.6,750.594 2043.43,769.656 2048.27,788.714 2053.1,807.746 2057.93,826.732 2062.77,845.653 2067.6,864.488 2072.43,883.218 2077.27,901.833 2082.1,920.31 2086.93,938.627 2091.77,956.768 2096.6,974.713 2101.43,992.443 2106.27,1009.94 2111.1,1027.2 2115.93,1044.19 2120.77,1060.9 2125.6,1077.31 2130.43,1093.4 2135.26,1109.16 2140.1,1124.58 2144.93,1139.63 2149.76,1154.31 2154.6,1168.59 2159.43,1182.47 2164.26,1195.92 2169.1,1208.94 2173.93,1221.52 2178.76,1233.64 2183.6,1245.28 2188.43,1256.44 2193.26,1267.11 2198.1,1277.27 2202.93,1286.91 2207.76,1296.03 2212.59,1304.62 2217.43,1312.67 2222.26,1320.16 2227.09,1327.1 2231.93,1333.46 2236.76,1339.26 2241.59,1344.49 2246.43,1349.12 2251.26,1353.18 2256.09,1356.64 2260.93,1359.5 2265.76,1361.77 2270.59,1363.44 2275.43,1364.5 2280.26,1364.97 2285.09,1364.83 2289.93,1364.08 2294.76,1362.74 "/>
<polyline clip-path="url(#clip672)" style="stroke:#e26f46; stroke-linecap:round; stroke-linejoin:round; stroke-width:8; stroke-opacity:1; fill:none" points="361.501,1363.75 366.334,1363.53 371.167,1362.88 376,1361.8 380.833,1360.29 385.666,1358.34 390.5,1355.95 395.333,1353.14 400.166,1349.88 404.999,1346.19 409.832,1342.07 414.665,1337.52 419.498,1332.53 424.332,1327.13 429.165,1321.3 433.998,1315.06 438.831,1308.41 443.664,1301.36 448.497,1293.91 453.33,1286.06 458.164,1277.84 462.997,1269.23 467.83,1260.25 472.663,1250.92 477.496,1241.23 482.329,1231.21 487.162,1220.85 491.996,1210.18 496.829,1199.19 501.662,1187.9 506.495,1176.32 511.328,1164.46 516.161,1152.34 520.994,1139.97 525.828,1127.35 530.661,1114.5 535.494,1101.43 540.327,1088.15 545.16,1074.68 549.993,1061.03 554.826,1047.22 559.66,1033.26 564.493,1019.16 569.326,1004.94 574.159,990.606 578.992,976.178 583.825,961.67 588.658,947.097 593.492,932.473 598.325,917.816 603.158,903.139 607.991,888.455 612.824,873.776 617.657,859.121 622.49,844.504 627.324,829.942 632.157,815.449 636.99,801.041 641.823,786.724 646.656,772.517 651.489,758.436 656.322,744.495 661.156,730.709 665.989,717.092 670.822,703.655 675.655,690.41 680.488,677.371 685.321,664.554 690.154,651.971 694.988,639.636 699.821,627.561 704.654,615.753 709.487,604.228 714.32,592.997 719.153,582.072 723.986,571.465 728.82,561.187 733.653,551.247 738.486,541.654 743.319,532.419 748.152,523.552 752.985,515.063 757.818,506.962 762.652,499.257 767.485,491.954 772.318,485.062 777.151,478.59 781.984,472.545 786.817,466.934 791.65,461.765 796.484,457.044 801.317,452.776 806.15,448.969 810.983,445.627 815.816,442.757 820.649,440.363 825.482,438.449 830.316,437.022 835.149,436.085 839.982,435.643 844.815,435.703 849.648,436.111 854.481,436.869 859.314,437.98 864.148,439.449 868.981,441.277 873.814,443.467 878.647,446.017 883.48,448.927 888.313,452.197 893.147,455.824 897.98,459.808 902.813,464.146 907.646,468.832 912.479,473.86 917.312,479.23 922.145,484.939 926.979,490.986 931.812,497.361 936.645,504.049 941.478,511.054 946.311,518.374 951.144,526.002 955.977,533.931 960.811,542.138 965.644,550.628 970.477,559.395 975.31,568.432 980.143,577.73 984.976,587.266 989.809,597.041 994.643,607.047 999.476,617.276 1004.31,627.72 1009.14,638.353 1013.98,649.175 1018.81,660.176 1023.64,671.347 1028.47,682.678 1033.31,694.147 1038.14,705.749 1042.97,717.474 1047.81,729.31 1052.64,741.248 1057.47,753.268 1062.31,765.362 1067.14,777.519 1071.97,789.727 1076.81,801.975 1081.64,814.247 1086.47,826.532 1091.31,838.818 1096.14,851.094 1100.97,863.347 1105.8,875.565 1110.64,887.734 1115.47,899.843 1120.3,911.88 1125.14,923.833 1129.97,935.689 1134.8,947.439 1139.64,959.068 1144.47,970.565 1149.3,981.918 1154.14,993.117 1158.97,1004.15 1163.8,1015.01 1168.64,1025.68 1173.47,1036.15 1178.3,1046.4 1183.14,1056.45 1187.97,1066.26 1192.8,1075.83 1197.63,1085.15 1202.47,1094.2 1207.3,1103 1212.13,1111.51 1216.97,1119.74 1221.8,1127.66 1226.63,1135.28 1231.47,1142.6 1236.3,1149.59 1241.13,1156.26 1245.97,1162.59 1250.8,1168.57 1255.63,1174.21 1260.47,1179.49 1265.3,1184.41 1270.13,1188.96 1274.96,1193.12 1279.8,1196.92 1284.63,1200.33 1289.46,1203.35 1294.3,1205.97 1299.13,1208.18 1303.96,1210 1308.8,1211.4 1313.63,1212.4 1318.46,1212.97 1323.3,1213.12 1328.13,1212.89 1332.96,1212.42 1337.8,1211.67 1342.63,1210.65 1347.46,1209.34 1352.3,1207.75 1357.13,1205.88 1361.96,1203.73 1366.79,1201.3 1371.63,1198.58 1376.46,1195.58 1381.29,1192.31 1386.13,1188.75 1390.96,1184.93 1395.79,1180.83 1400.63,1176.46 1405.46,1171.82 1410.29,1166.92 1415.13,1161.76 1419.96,1156.35 1424.79,1150.69 1429.63,1144.79 1434.46,1138.65 1439.29,1132.27 1444.12,1125.67 1448.96,1118.84 1453.79,1111.81 1458.62,1104.56 1463.46,1097.11 1468.29,1089.46 1473.12,1081.63 1477.96,1073.62 1482.79,1065.43 1487.62,1057.08 1492.46,1048.57 1497.29,1039.92 1502.12,1031.12 1506.96,1022.2 1511.79,1013.15 1516.62,1003.99 1521.46,994.728 1526.29,985.371 1531.12,975.927 1535.95,966.406 1540.79,956.816 1545.62,947.165 1550.45,937.47 1555.29,927.738 1560.12,917.975 1564.95,908.194 1569.79,898.402 1574.62,888.609 1579.45,878.826 1584.29,869.062 1589.12,859.327 1593.95,849.631 1598.79,839.983 1603.62,830.395 1608.45,820.875 1613.28,811.434 1618.12,802.083 1622.95,792.827 1627.78,783.675 1632.62,774.639 1637.45,765.728 1642.28,756.952 1647.12,748.321 1651.95,739.844 1656.78,731.531 1661.62,723.383 1666.45,715.412 1671.28,707.627 1676.12,700.037 1680.95,692.651 1685.78,685.476 1690.62,678.522 1695.45,671.795 1700.28,665.296 1705.11,659.036 1709.95,653.024 1714.78,647.265 1719.61,641.767 1724.45,636.536 1729.28,631.579 1734.11,626.899 1738.95,622.501 1743.78,618.393 1748.61,614.579 1753.45,611.065 1758.28,607.855 1763.11,604.956 1767.95,602.37 1772.78,600.101 1777.61,598.152 1782.44,596.529 1787.28,595.235 1792.11,594.273 1796.94,593.646 1801.78,593.358 1806.61,593.423 1811.44,593.685 1816.28,594.13 1821.11,594.758 1825.94,595.582 1830.78,596.603 1835.61,597.822 1840.44,599.241 1845.28,600.859 1850.11,602.677 1854.94,604.693 1859.78,606.908 1864.61,609.32 1869.44,611.928 1874.27,614.731 1879.11,617.727 1883.94,620.914 1888.77,624.289 1893.61,627.851 1898.44,631.595 1903.27,635.515 1908.11,639.611 1912.94,643.88 1917.77,648.322 1922.61,652.933 1927.44,657.706 1932.27,662.628 1937.11,667.704 1941.94,672.931 1946.77,678.305 1951.6,683.822 1956.44,689.478 1961.27,695.252 1966.1,701.15 1970.94,707.168 1975.77,713.301 1980.6,719.545 1985.44,725.894 1990.27,732.328 1995.1,738.851 1999.94,745.458 2004.77,752.142 2009.6,758.898 2014.44,765.721 2019.27,772.594 2024.1,779.516 2028.94,786.481 2033.77,793.482 2038.6,800.514 2043.43,807.57 2048.27,814.639 2053.1,821.714 2057.93,828.791 2062.77,835.861 2067.6,842.919 2072.43,849.957 2077.27,856.967 2082.1,863.942 2086.93,870.875 2091.77,877.76 2096.6,884.589 2101.43,891.355 2106.27,898.052 2111.1,904.673 2115.93,911.211 2120.77,917.659 2125.6,924.009 2130.43,930.256 2135.26,936.392 2140.1,942.415 2144.93,948.316 2149.76,954.087 2154.6,959.722 2159.43,965.215 2164.26,970.56 2169.1,975.757 2173.93,980.796 2178.76,985.67 2183.6,990.373 2188.43,994.901 2193.26,999.245 2198.1,1003.41 2202.93,1007.39 2207.76,1011.17 2212.59,1014.75 2217.43,1018.12 2222.26,1021.29 2227.09,1024.24 2231.93,1026.99 2236.76,1029.51 2241.59,1031.8 2246.43,1033.87 2251.26,1035.7 2256.09,1037.3 2260.93,1038.67 2265.76,1039.79 2270.59,1040.67 2275.43,1041.3 2280.26,1041.68 2285.09,1041.8 2289.93,1041.73 2294.76,1041.57 "/>
<polyline clip-path="url(#clip672)" style="stroke:#008000; stroke-linecap:round; stroke-linejoin:round; stroke-width:8; stroke-opacity:1; fill:none" stroke-dasharray="4, 8" points="361.501,1363.75 366.334,1364.47 371.167,1364.99 376,1365.3 380.833,1365.41 385.666,1365.29 390.5,1364.96 395.333,1364.39 400.166,1363.57 404.999,1362.5 409.832,1361.13 414.665,1359.46 419.498,1357.44 424.332,1355.05 429.165,1352.22 433.998,1348.89 438.831,1345 443.664,1340.46 448.497,1335.2 453.33,1329.07 458.164,1321.93 462.997,1313.67 467.83,1304.21 472.663,1293.51 477.496,1281.55 482.329,1268.36 487.162,1253.99 491.996,1238.55 496.829,1222.21 501.662,1205.19 506.495,1187.67 511.328,1169.85 516.161,1151.92 520.994,1134.05 525.828,1116.43 530.661,1099.22 535.494,1082.48 540.327,1066.19 545.16,1050.31 549.993,1034.78 554.826,1019.58 559.66,1004.66 564.493,989.972 569.326,975.482 574.159,961.146 578.992,946.946 583.825,932.878 588.658,918.94 593.492,905.129 598.325,891.446 603.158,877.889 607.991,864.461 612.824,851.162 617.657,837.996 622.49,824.966 627.324,812.078 632.157,799.336 636.99,786.748 641.823,774.318 646.656,762.048 651.489,749.942 656.322,738.003 661.156,726.234 665.989,714.638 670.822,703.217 675.655,691.974 680.488,680.912 685.321,670.033 690.154,659.339 694.988,648.833 699.821,638.516 704.654,628.39 709.487,618.457 714.32,608.719 719.153,599.178 723.986,589.834 728.82,580.7 733.653,571.781 738.486,563.072 743.319,554.57 748.152,546.273 752.985,538.18 757.818,530.292 762.652,522.612 767.485,515.142 772.318,507.888 777.151,500.857 781.984,494.055 786.817,487.492 791.65,481.179 796.484,475.127 801.317,469.351 806.15,463.864 810.983,458.682 815.816,453.824 820.649,449.307 825.482,445.153 830.316,441.383 835.149,438.023 839.982,435.209 844.815,433.025 849.648,431.487 854.481,430.608 859.314,430.398 864.148,430.863 868.981,432.002 873.814,433.815 878.647,436.295 883.48,439.431 888.313,443.21 893.147,447.614 897.98,452.621 902.813,458.205 907.646,464.337 912.479,470.983 917.312,478.106 922.145,485.666 926.979,493.616 931.812,501.909 936.645,510.49 941.478,519.305 946.311,528.291 951.144,537.414 955.977,546.681 960.811,556.088 965.644,565.631 970.477,575.304 975.31,585.102 980.143,595.021 984.976,605.053 989.809,615.194 994.643,625.436 999.476,635.773 1004.31,646.199 1009.14,656.705 1013.98,667.285 1018.81,677.931 1023.64,688.633 1028.47,699.388 1033.31,710.188 1038.14,721.025 1042.97,731.892 1047.81,742.782 1052.64,753.688 1057.47,764.6 1062.31,775.514 1067.14,786.421 1071.97,797.314 1076.81,808.188 1081.64,819.033 1086.47,829.845 1091.31,840.617 1096.14,851.341 1100.97,862.012 1105.8,872.623 1110.64,883.168 1115.47,893.641 1120.3,904.036 1125.14,914.347 1129.97,924.569 1134.8,934.694 1139.64,944.719 1144.47,954.637 1149.3,964.442 1154.14,974.131 1158.97,983.697 1163.8,993.135 1168.64,1002.44 1173.47,1011.61 1178.3,1020.64 1183.14,1029.52 1187.97,1038.25 1192.8,1046.83 1197.63,1055.25 1202.47,1063.51 1207.3,1071.61 1212.13,1079.55 1216.97,1087.31 1221.8,1094.9 1226.63,1102.31 1231.47,1109.55 1236.3,1116.6 1241.13,1123.47 1245.97,1130.16 1250.8,1136.66 1255.63,1142.97 1260.47,1149.1 1265.3,1155.03 1270.13,1160.76 1274.96,1166.31 1279.8,1171.65 1284.63,1176.81 1289.46,1181.76 1294.3,1186.52 1299.13,1191.08 1303.96,1195.45 1308.8,1199.62 1313.63,1203.56 1318.46,1207.19 1323.3,1210.55 1328.13,1213.66 1332.96,1216.54 1337.8,1219.21 1342.63,1221.69 1347.46,1224 1352.3,1226.13 1357.13,1228.11 1361.96,1229.93 1366.79,1231.59 1371.63,1233.09 1376.46,1234.43 1381.29,1235.59 1386.13,1236.56 1390.96,1237.32 1395.79,1237.86 1400.63,1238.14 1405.46,1238.15 1410.29,1237.84 1415.13,1237.2 1419.96,1236.17 1424.79,1234.73 1429.63,1232.82 1434.46,1230.4 1439.29,1227.42 1444.12,1223.82 1448.96,1219.55 1453.79,1214.54 1458.62,1208.73 1463.46,1202.06 1468.29,1194.45 1473.12,1185.82 1477.96,1176.11 1482.79,1165.12 1487.62,1152.96 1492.46,1139.82 1497.29,1125.91 1502.12,1111.4 1506.96,1096.46 1511.79,1081.23 1516.62,1065.84 1521.46,1050.41 1526.29,1035.05 1531.12,1019.82 1535.95,1004.82 1540.79,990.075 1545.62,975.637 1550.45,961.527 1555.29,947.749 1560.12,934.266 1564.95,921.038 1569.79,908.047 1574.62,895.279 1579.45,882.722 1584.29,870.362 1589.12,858.19 1593.95,846.197 1598.79,834.375 1603.62,822.72 1608.45,811.226 1613.28,799.892 1618.12,788.715 1622.95,777.695 1627.78,766.836 1632.62,756.139 1637.45,745.609 1642.28,735.254 1647.12,725.079 1651.95,715.09 1656.78,705.286 1661.62,695.668 1666.45,686.236 1671.28,676.992 1676.12,667.939 1680.95,659.078 1685.78,650.415 1690.62,641.951 1695.45,633.693 1700.28,625.646 1705.11,617.815 1709.95,610.208 1714.78,602.831 1719.61,595.693 1724.45,588.802 1729.28,582.166 1734.11,575.797 1738.95,569.704 1743.78,563.899 1748.61,558.392 1753.45,553.188 1758.28,548.263 1763.11,543.661 1767.95,539.433 1772.78,535.624 1777.61,532.277 1782.44,529.427 1787.28,527.105 1792.11,525.339 1796.94,524.151 1801.78,523.557 1806.61,523.571 1811.44,524.199 1816.28,525.445 1821.11,527.306 1825.94,529.777 1830.78,532.845 1835.61,536.494 1840.44,540.704 1845.28,545.448 1850.11,550.695 1854.94,556.412 1859.78,562.556 1864.61,569.084 1869.44,575.946 1874.27,583.086 1879.11,590.447 1883.94,598.004 1888.77,605.769 1893.61,613.728 1898.44,621.869 1903.27,630.179 1908.11,638.646 1912.94,647.257 1917.77,656.001 1922.61,664.866 1927.44,673.844 1932.27,682.922 1937.11,692.091 1941.94,701.342 1946.77,710.665 1951.6,720.051 1956.44,729.494 1961.27,738.983 1966.1,748.513 1970.94,758.076 1975.77,767.663 1980.6,777.266 1985.44,786.878 1990.27,796.491 1995.1,806.096 1999.94,815.688 2004.77,825.258 2009.6,834.799 2014.44,844.305 2019.27,853.769 2024.1,863.183 2028.94,872.543 2033.77,881.84 2038.6,891.07 2043.43,900.226 2048.27,909.302 2053.1,918.293 2057.93,927.193 2062.77,935.996 2067.6,944.699 2072.43,953.295 2077.27,961.779 2082.1,970.148 2086.93,978.396 2091.77,986.519 2096.6,994.513 2101.43,1002.37 2106.27,1010.1 2111.1,1017.68 2115.93,1025.11 2120.77,1032.4 2125.6,1039.54 2130.43,1046.52 2135.26,1053.34 2140.1,1060 2144.93,1066.5 2149.76,1072.83 2154.6,1078.99 2159.43,1084.99 2164.26,1090.81 2169.1,1096.46 2173.93,1101.93 2178.76,1107.22 2183.6,1112.33 2188.43,1117.25 2193.26,1122 2198.1,1126.55 2202.93,1130.92 2207.76,1135.09 2212.59,1139.08 2217.43,1142.87 2222.26,1146.47 2227.09,1149.87 2231.93,1153.08 2236.76,1156.08 2241.59,1158.89 2246.43,1161.5 2251.26,1163.9 2256.09,1166.08 2260.93,1168.06 2265.76,1169.81 2270.59,1171.33 2275.43,1172.62 2280.26,1173.66 2285.09,1174.45 2289.93,1174.96 2294.76,1175.19 "/>
<polyline clip-path="url(#clip672)" style="stroke:#008000; stroke-linecap:round; stroke-linejoin:round; stroke-width:8; stroke-opacity:1; fill:none" points="361.501,1363.75 366.334,1363.57 371.167,1362.9 376,1361.74 380.833,1360.08 385.666,1357.9 390.5,1355.2 395.333,1351.97 400.166,1348.18 404.999,1343.84 409.832,1338.93 414.665,1333.45 419.498,1327.38 424.332,1320.71 429.165,1313.45 433.998,1305.58 438.831,1297.1 443.664,1288.01 448.497,1278.33 453.33,1268.04 458.164,1257.08 462.997,1245.6 467.83,1233.77 472.663,1221.79 477.496,1209.81 482.329,1198.02 487.162,1186.54 491.996,1175.53 496.829,1165.1 501.662,1155.14 506.495,1145.37 511.328,1135.62 516.161,1125.77 520.994,1115.73 525.828,1105.44 530.661,1094.88 535.494,1084.04 540.327,1072.93 545.16,1061.54 549.993,1049.88 554.826,1037.98 559.66,1025.83 564.493,1013.45 569.326,1000.86 574.159,988.073 578.992,975.098 583.825,961.955 588.658,948.661 593.492,935.232 598.325,921.684 603.158,908.035 607.991,894.302 612.824,880.502 617.657,866.653 622.49,852.772 627.324,838.875 632.157,824.979 636.99,811.1 641.823,797.257 646.656,783.463 651.489,769.737 656.322,756.095 661.156,742.552 665.989,729.124 670.822,715.827 675.655,702.678 680.488,689.69 685.321,676.879 690.154,664.259 694.988,651.844 699.821,639.648 704.654,627.688 709.487,615.975 714.32,604.526 719.153,593.354 723.986,582.474 728.82,571.9 733.653,561.646 738.486,551.727 743.319,542.156 748.152,532.946 752.985,524.11 757.818,515.663 762.652,507.623 767.485,500.005 772.318,492.826 777.151,486.099 781.984,479.84 786.817,474.062 791.65,468.78 796.484,464.005 801.317,459.751 806.15,456.029 810.983,452.852 815.816,450.23 820.649,448.173 825.482,446.692 830.316,445.796 835.149,445.494 839.982,445.795 844.815,446.707 849.648,448.421 854.481,451.166 859.314,454.682 864.148,458.726 868.981,463.087 873.814,467.587 878.647,472.078 883.48,476.444 888.313,480.602 893.147,484.5 897.98,488.116 902.813,491.463 907.646,494.584 912.479,497.552 917.312,500.476 922.145,503.493 926.979,506.773 931.812,510.509 936.645,514.666 941.478,519.195 946.311,524.101 951.144,529.388 955.977,535.058 960.811,541.113 965.644,547.551 970.477,554.37 975.31,561.565 980.143,569.131 984.976,577.06 989.809,585.343 994.643,593.969 999.476,602.925 1004.31,612.198 1009.14,621.771 1013.98,631.634 1018.81,641.777 1023.64,652.184 1028.47,662.836 1033.31,673.719 1038.14,684.816 1042.97,696.109 1047.81,707.584 1052.64,719.224 1057.47,731.011 1062.31,742.931 1067.14,754.966 1071.97,767.1 1076.81,779.317 1081.64,791.601 1086.47,803.935 1091.31,816.303 1096.14,828.689 1100.97,841.076 1105.8,853.449 1110.64,865.791 1115.47,878.085 1120.3,890.317 1125.14,902.469 1129.97,914.531 1134.8,926.49 1139.64,938.335 1144.47,950.051 1149.3,961.628 1154.14,973.053 1158.97,984.315 1163.8,995.404 1168.64,1006.31 1173.47,1017.02 1178.3,1027.52 1183.14,1037.82 1187.97,1047.89 1192.8,1057.73 1197.63,1067.33 1202.47,1076.68 1207.3,1085.78 1212.13,1094.62 1216.97,1103.19 1221.8,1111.48 1226.63,1119.5 1231.47,1127.23 1236.3,1134.67 1241.13,1141.8 1245.97,1148.63 1250.8,1155.15 1255.63,1161.35 1260.47,1167.22 1265.3,1172.76 1270.13,1177.96 1274.96,1182.81 1279.8,1187.31 1284.63,1191.45 1289.46,1195.22 1294.3,1198.62 1299.13,1201.65 1303.96,1204.28 1308.8,1206.53 1313.63,1208.38 1318.46,1209.82 1323.3,1210.85 1328.13,1211.47 1332.96,1211.66 1337.8,1211.43 1342.63,1210.76 1347.46,1209.64 1352.3,1208.08 1357.13,1206.07 1361.96,1203.6 1366.79,1200.7 1371.63,1197.4 1376.46,1193.65 1381.29,1189.4 1386.13,1184.62 1390.96,1179.29 1395.79,1173.39 1400.63,1166.94 1405.46,1159.93 1410.29,1152.41 1415.13,1144.4 1419.96,1135.94 1424.79,1127.11 1429.63,1117.97 1434.46,1108.59 1439.29,1099.09 1444.12,1089.55 1448.96,1080.11 1453.79,1070.87 1458.62,1062.01 1463.46,1053.62 1468.29,1045.63 1473.12,1037.95 1477.96,1030.5 1482.79,1023.21 1487.62,1016.01 1492.46,1008.85 1497.29,1001.69 1502.12,994.471 1506.96,987.168 1511.79,979.752 1516.62,972.203 1521.46,964.509 1526.29,956.665 1531.12,948.672 1535.95,940.541 1540.79,932.287 1545.62,923.924 1550.45,915.461 1555.29,906.91 1560.12,898.281 1564.95,889.587 1569.79,880.838 1574.62,872.047 1579.45,863.224 1584.29,854.383 1589.12,845.534 1593.95,836.691 1598.79,827.866 1603.62,819.072 1608.45,810.321 1613.28,801.626 1618.12,793.001 1622.95,784.459 1627.78,776.014 1632.62,767.679 1637.45,759.468 1642.28,751.396 1647.12,743.476 1651.95,735.724 1656.78,728.15 1661.62,720.765 1666.45,713.582 1671.28,706.613 1676.12,699.87 1680.95,693.367 1685.78,687.114 1690.62,681.123 1695.45,675.405 1700.28,669.972 1705.11,664.833 1709.95,660 1714.78,655.481 1719.61,651.288 1724.45,647.429 1729.28,643.914 1734.11,640.751 1738.95,637.949 1743.78,635.516 1748.61,633.46 1753.45,631.789 1758.28,630.622 1763.11,630.069 1767.95,630.029 1772.78,630.406 1777.61,631.113 1782.44,632.07 1787.28,633.204 1792.11,634.451 1796.94,635.755 1801.78,637.066 1806.61,638.342 1811.44,639.551 1816.28,640.666 1821.11,641.67 1825.94,642.552 1830.78,643.308 1835.61,643.946 1840.44,644.476 1845.28,644.92 1850.11,645.306 1854.94,645.67 1859.78,646.056 1864.61,646.515 1869.44,647.106 1874.27,647.887 1879.11,648.845 1883.94,649.983 1888.77,651.314 1893.61,652.85 1898.44,654.601 1903.27,656.574 1908.11,658.778 1912.94,661.216 1917.77,663.893 1922.61,666.813 1927.44,669.975 1932.27,673.38 1937.11,677.025 1941.94,680.908 1946.77,685.025 1951.6,689.368 1956.44,693.93 1961.27,698.703 1966.1,703.685 1970.94,708.867 1975.77,714.242 1980.6,719.802 1985.44,725.538 1990.27,731.442 1995.1,737.505 1999.94,743.717 2004.77,750.071 2009.6,756.556 2014.44,763.163 2019.27,769.883 2024.1,776.707 2028.94,783.623 2033.77,790.622 2038.6,797.695 2043.43,804.83 2048.27,812.017 2053.1,819.246 2057.93,826.505 2062.77,833.785 2067.6,841.072 2072.43,848.357 2077.27,855.628 2082.1,862.873 2086.93,870.081 2091.77,877.24 2096.6,884.345 2101.43,891.387 2106.27,898.357 2111.1,905.245 2115.93,912.042 2120.77,918.738 2125.6,925.323 2130.43,931.791 2135.26,938.131 2140.1,944.335 2144.93,950.396 2149.76,956.305 2154.6,962.055 2159.43,967.638 2164.26,973.046 2169.1,978.273 2173.93,983.312 2178.76,988.156 2183.6,992.798 2188.43,997.233 2193.26,1001.45 2198.1,1005.46 2202.93,1009.23 2207.76,1012.78 2212.59,1016.09 2217.43,1019.15 2222.26,1021.97 2227.09,1024.53 2231.93,1026.84 2236.76,1028.88 2241.59,1030.65 2246.43,1032.16 2251.26,1033.38 2256.09,1034.33 2260.93,1034.99 2265.76,1035.37 2270.59,1035.46 2275.43,1035.25 2280.26,1034.76 2285.09,1033.96 2289.93,1032.87 2294.76,1031.48 "/>
<path clip-path="url(#clip670)" d="M1444.66 554.876 L2284.45 554.876 L2284.45 166.076 L1444.66 166.076  Z" fill="#ffffff" fill-rule="evenodd" fill-opacity="1"/>
<polyline clip-path="url(#clip670)" style="stroke:#000000; stroke-linecap:round; stroke-linejoin:round; stroke-width:4; stroke-opacity:1; fill:none" points="1444.66,554.876 2284.45,554.876 2284.45,166.076 1444.66,166.076 1444.66,554.876 "/>
<polyline clip-path="url(#clip670)" style="stroke:#009af9; stroke-linecap:round; stroke-linejoin:round; stroke-width:12; stroke-opacity:1; fill:none" points="1467.43,243.836 1604.05,243.836 "/>
<path clip-path="url(#clip670)" d="M1660.19 219.617 L1660.19 226.457 Q1656.2 224.548 1652.65 223.61 Q1649.11 222.673 1645.81 222.673 Q1640.08 222.673 1636.96 224.895 Q1633.87 227.117 1633.87 231.214 Q1633.87 234.652 1635.92 236.423 Q1638 238.159 1643.76 239.235 L1648 240.103 Q1655.85 241.596 1659.56 245.381 Q1663.31 249.131 1663.31 255.45 Q1663.31 262.985 1658.24 266.874 Q1653.21 270.763 1643.45 270.763 Q1639.77 270.763 1635.6 269.929 Q1631.47 269.096 1627.03 267.464 L1627.03 260.242 Q1631.3 262.638 1635.4 263.853 Q1639.49 265.068 1643.45 265.068 Q1649.46 265.068 1652.72 262.707 Q1655.99 260.346 1655.99 255.971 Q1655.99 252.152 1653.63 249.999 Q1651.3 247.846 1645.95 246.77 L1641.68 245.936 Q1633.83 244.374 1630.33 241.041 Q1626.82 237.707 1626.82 231.77 Q1626.82 224.895 1631.65 220.937 Q1636.51 216.978 1645.01 216.978 Q1648.66 216.978 1652.45 217.638 Q1656.23 218.298 1660.19 219.617 Z" fill="#000000" fill-rule="nonzero" fill-opacity="1" /><path clip-path="url(#clip670)" d="M1673.97 230.867 L1680.36 230.867 L1680.36 269.756 L1673.97 269.756 L1673.97 230.867 M1673.97 215.728 L1680.36 215.728 L1680.36 223.818 L1673.97 223.818 L1673.97 215.728 Z" fill="#000000" fill-rule="nonzero" fill-opacity="1" /><path clip-path="url(#clip670)" d="M1724.01 238.332 Q1726.4 234.027 1729.74 231.978 Q1733.07 229.93 1737.58 229.93 Q1743.66 229.93 1746.96 234.2 Q1750.26 238.436 1750.26 246.284 L1750.26 269.756 L1743.83 269.756 L1743.83 246.492 Q1743.83 240.902 1741.85 238.193 Q1739.88 235.485 1735.81 235.485 Q1730.85 235.485 1727.97 238.784 Q1725.08 242.082 1725.08 247.777 L1725.08 269.756 L1718.66 269.756 L1718.66 246.492 Q1718.66 240.867 1716.68 238.193 Q1714.7 235.485 1710.57 235.485 Q1705.67 235.485 1702.79 238.818 Q1699.91 242.117 1699.91 247.777 L1699.91 269.756 L1693.49 269.756 L1693.49 230.867 L1699.91 230.867 L1699.91 236.909 Q1702.1 233.332 1705.15 231.631 Q1708.21 229.93 1712.41 229.93 Q1716.65 229.93 1719.6 232.082 Q1722.58 234.235 1724.01 238.332 Z" fill="#000000" fill-rule="nonzero" fill-opacity="1" /><path clip-path="url(#clip670)" d="M1769.18 263.922 L1769.18 284.547 L1762.76 284.547 L1762.76 230.867 L1769.18 230.867 L1769.18 236.77 Q1771.19 233.298 1774.25 231.631 Q1777.34 229.93 1781.61 229.93 Q1788.69 229.93 1793.1 235.555 Q1797.55 241.179 1797.55 250.346 Q1797.55 259.513 1793.1 265.138 Q1788.69 270.763 1781.61 270.763 Q1777.34 270.763 1774.25 269.096 Q1771.19 267.395 1769.18 263.922 M1790.92 250.346 Q1790.92 243.298 1788 239.304 Q1785.12 235.277 1780.05 235.277 Q1774.98 235.277 1772.06 239.304 Q1769.18 243.298 1769.18 250.346 Q1769.18 257.395 1772.06 261.422 Q1774.98 265.415 1780.05 265.415 Q1785.12 265.415 1788 261.422 Q1790.92 257.395 1790.92 250.346 Z" fill="#000000" fill-rule="nonzero" fill-opacity="1" /><path clip-path="url(#clip670)" d="M1808.14 215.728 L1814.53 215.728 L1814.53 269.756 L1808.14 269.756 L1808.14 215.728 Z" fill="#000000" fill-rule="nonzero" fill-opacity="1" /><path clip-path="url(#clip670)" d="M1861.16 248.714 L1861.16 251.839 L1831.78 251.839 Q1832.2 258.436 1835.74 261.909 Q1839.32 265.346 1845.67 265.346 Q1849.35 265.346 1852.79 264.443 Q1856.26 263.54 1859.67 261.735 L1859.67 267.777 Q1856.23 269.235 1852.62 269.999 Q1849.01 270.763 1845.29 270.763 Q1835.99 270.763 1830.53 265.346 Q1825.12 259.929 1825.12 250.693 Q1825.12 241.145 1830.26 235.555 Q1835.43 229.93 1844.18 229.93 Q1852.03 229.93 1856.58 234.999 Q1861.16 240.034 1861.16 248.714 M1854.77 246.839 Q1854.7 241.596 1851.82 238.471 Q1848.97 235.346 1844.25 235.346 Q1838.9 235.346 1835.67 238.367 Q1832.48 241.388 1831.99 246.874 L1854.77 246.839 Z" fill="#000000" fill-rule="nonzero" fill-opacity="1" /><path clip-path="url(#clip670)" d="M1871.92 217.916 L1901.71 217.916 L1901.71 223.818 L1878.94 223.818 L1878.94 239.096 L1899.49 239.096 L1899.49 244.999 L1878.94 244.999 L1878.94 269.756 L1871.92 269.756 L1871.92 217.916 Z" fill="#000000" fill-rule="nonzero" fill-opacity="1" /><path clip-path="url(#clip670)" d="M1912.83 217.916 L1923.28 217.916 L1936.51 253.193 L1949.8 217.916 L1960.26 217.916 L1960.26 269.756 L1953.42 269.756 L1953.42 224.235 L1940.05 259.79 L1933 259.79 L1919.63 224.235 L1919.63 269.756 L1912.83 269.756 L1912.83 217.916 Z" fill="#000000" fill-rule="nonzero" fill-opacity="1" /><path clip-path="url(#clip670)" d="M1973.38 217.916 L1980.43 217.916 L1980.43 249.409 Q1980.43 257.742 1983.45 261.422 Q1986.47 265.068 1993.24 265.068 Q1999.98 265.068 2003 261.422 Q2006.02 257.742 2006.02 249.409 L2006.02 217.916 L2013.07 217.916 L2013.07 250.277 Q2013.07 260.415 2008.03 265.589 Q2003.03 270.763 1993.24 270.763 Q1983.42 270.763 1978.38 265.589 Q1973.38 260.415 1973.38 250.277 L1973.38 217.916 Z" fill="#000000" fill-rule="nonzero" fill-opacity="1" /><polyline clip-path="url(#clip670)" style="stroke:#e26f46; stroke-linecap:round; stroke-linejoin:round; stroke-width:12; stroke-opacity:1; fill:none" points="1467.43,321.596 1604.05,321.596 "/>
<path clip-path="url(#clip670)" d="M1651.4 323.21 Q1653.66 323.974 1655.78 326.474 Q1657.93 328.974 1660.08 333.349 L1667.2 347.516 L1659.67 347.516 L1653.04 334.217 Q1650.47 329.009 1648.04 327.307 Q1645.64 325.606 1641.47 325.606 L1633.83 325.606 L1633.83 347.516 L1626.82 347.516 L1626.82 295.676 L1642.65 295.676 Q1651.54 295.676 1655.92 299.391 Q1660.29 303.106 1660.29 310.606 Q1660.29 315.502 1658 318.731 Q1655.74 321.96 1651.4 323.21 M1633.83 301.44 L1633.83 319.842 L1642.65 319.842 Q1647.72 319.842 1650.29 317.516 Q1652.9 315.155 1652.9 310.606 Q1652.9 306.058 1650.29 303.766 Q1647.72 301.44 1642.65 301.44 L1633.83 301.44 Z" fill="#000000" fill-rule="nonzero" fill-opacity="1" /><path clip-path="url(#clip670)" d="M1706.02 326.474 L1706.02 329.599 L1676.65 329.599 Q1677.06 336.196 1680.6 339.669 Q1684.18 343.106 1690.54 343.106 Q1694.22 343.106 1697.65 342.203 Q1701.13 341.3 1704.53 339.495 L1704.53 345.537 Q1701.09 346.995 1697.48 347.759 Q1693.87 348.523 1690.15 348.523 Q1680.85 348.523 1675.4 343.106 Q1669.98 337.689 1669.98 328.453 Q1669.98 318.905 1675.12 313.315 Q1680.29 307.69 1689.04 307.69 Q1696.89 307.69 1701.44 312.759 Q1706.02 317.794 1706.02 326.474 M1699.63 324.599 Q1699.56 319.356 1696.68 316.231 Q1693.83 313.106 1689.11 313.106 Q1683.76 313.106 1680.54 316.127 Q1677.34 319.148 1676.85 324.634 L1699.63 324.599 Z" fill="#000000" fill-rule="nonzero" fill-opacity="1" /><path clip-path="url(#clip670)" d="M1736.19 293.488 L1736.19 298.801 L1730.08 298.801 Q1726.65 298.801 1725.29 300.19 Q1723.97 301.578 1723.97 305.19 L1723.97 308.627 L1734.49 308.627 L1734.49 313.592 L1723.97 313.592 L1723.97 347.516 L1717.55 347.516 L1717.55 313.592 L1711.44 313.592 L1711.44 308.627 L1717.55 308.627 L1717.55 305.919 Q1717.55 299.426 1720.57 296.474 Q1723.59 293.488 1730.15 293.488 L1736.19 293.488 Z" fill="#000000" fill-rule="nonzero" fill-opacity="1" /><path clip-path="url(#clip670)" d="M1774.81 326.474 L1774.81 329.599 L1745.43 329.599 Q1745.85 336.196 1749.39 339.669 Q1752.97 343.106 1759.32 343.106 Q1763 343.106 1766.44 342.203 Q1769.91 341.3 1773.31 339.495 L1773.31 345.537 Q1769.88 346.995 1766.26 347.759 Q1762.65 348.523 1758.94 348.523 Q1749.63 348.523 1744.18 343.106 Q1738.76 337.689 1738.76 328.453 Q1738.76 318.905 1743.9 313.315 Q1749.08 307.69 1757.83 307.69 Q1765.67 307.69 1770.22 312.759 Q1774.81 317.794 1774.81 326.474 M1768.42 324.599 Q1768.35 319.356 1765.47 316.231 Q1762.62 313.106 1757.9 313.106 Q1752.55 313.106 1749.32 316.127 Q1746.13 319.148 1745.64 324.634 L1768.42 324.599 Z" fill="#000000" fill-rule="nonzero" fill-opacity="1" /><path clip-path="url(#clip670)" d="M1807.83 314.599 Q1806.75 313.974 1805.47 313.696 Q1804.22 313.384 1802.69 313.384 Q1797.27 313.384 1794.35 316.926 Q1791.47 320.433 1791.47 327.03 L1791.47 347.516 L1785.05 347.516 L1785.05 308.627 L1791.47 308.627 L1791.47 314.669 Q1793.49 311.127 1796.72 309.426 Q1799.94 307.69 1804.56 307.69 Q1805.22 307.69 1806.02 307.794 Q1806.82 307.863 1807.79 308.037 L1807.83 314.599 Z" fill="#000000" fill-rule="nonzero" fill-opacity="1" /><path clip-path="url(#clip670)" d="M1846.23 326.474 L1846.23 329.599 L1816.85 329.599 Q1817.27 336.196 1820.81 339.669 Q1824.39 343.106 1830.74 343.106 Q1834.42 343.106 1837.86 342.203 Q1841.33 341.3 1844.74 339.495 L1844.74 345.537 Q1841.3 346.995 1837.69 347.759 Q1834.08 348.523 1830.36 348.523 Q1821.06 348.523 1815.6 343.106 Q1810.19 337.689 1810.19 328.453 Q1810.19 318.905 1815.33 313.315 Q1820.5 307.69 1829.25 307.69 Q1837.1 307.69 1841.65 312.759 Q1846.23 317.794 1846.23 326.474 M1839.84 324.599 Q1839.77 319.356 1836.89 316.231 Q1834.04 313.106 1829.32 313.106 Q1823.97 313.106 1820.74 316.127 Q1817.55 319.148 1817.06 324.634 L1839.84 324.599 Z" fill="#000000" fill-rule="nonzero" fill-opacity="1" /><path clip-path="url(#clip670)" d="M1889.04 324.044 L1889.04 347.516 L1882.65 347.516 L1882.65 324.252 Q1882.65 318.731 1880.5 315.988 Q1878.35 313.245 1874.04 313.245 Q1868.87 313.245 1865.88 316.544 Q1862.9 319.842 1862.9 325.537 L1862.9 347.516 L1856.47 347.516 L1856.47 308.627 L1862.9 308.627 L1862.9 314.669 Q1865.19 311.162 1868.28 309.426 Q1871.4 307.69 1875.46 307.69 Q1882.17 307.69 1885.6 311.856 Q1889.04 315.988 1889.04 324.044 Z" fill="#000000" fill-rule="nonzero" fill-opacity="1" /><path clip-path="url(#clip670)" d="M1929.77 310.12 L1929.77 316.092 Q1927.06 314.599 1924.32 313.87 Q1921.61 313.106 1918.83 313.106 Q1912.62 313.106 1909.18 317.064 Q1905.74 320.988 1905.74 328.106 Q1905.74 335.224 1909.18 339.182 Q1912.62 343.106 1918.83 343.106 Q1921.61 343.106 1924.32 342.377 Q1927.06 341.613 1929.77 340.12 L1929.77 346.023 Q1927.1 347.273 1924.21 347.898 Q1921.37 348.523 1918.14 348.523 Q1909.35 348.523 1904.18 343.002 Q1899.01 337.481 1899.01 328.106 Q1899.01 318.592 1904.21 313.141 Q1909.46 307.69 1918.55 307.69 Q1921.51 307.69 1924.32 308.315 Q1927.13 308.905 1929.77 310.12 Z" fill="#000000" fill-rule="nonzero" fill-opacity="1" /><path clip-path="url(#clip670)" d="M1974.14 326.474 L1974.14 329.599 L1944.77 329.599 Q1945.19 336.196 1948.73 339.669 Q1952.3 343.106 1958.66 343.106 Q1962.34 343.106 1965.78 342.203 Q1969.25 341.3 1972.65 339.495 L1972.65 345.537 Q1969.21 346.995 1965.6 347.759 Q1961.99 348.523 1958.28 348.523 Q1948.97 348.523 1943.52 343.106 Q1938.1 337.689 1938.1 328.453 Q1938.1 318.905 1943.24 313.315 Q1948.42 307.69 1957.17 307.69 Q1965.01 307.69 1969.56 312.759 Q1974.14 317.794 1974.14 326.474 M1967.76 324.599 Q1967.69 319.356 1964.8 316.231 Q1961.96 313.106 1957.24 313.106 Q1951.89 313.106 1948.66 316.127 Q1945.46 319.148 1944.98 324.634 L1967.76 324.599 Z" fill="#000000" fill-rule="nonzero" fill-opacity="1" /><polyline clip-path="url(#clip670)" style="stroke:#008000; stroke-linecap:round; stroke-linejoin:round; stroke-width:12; stroke-opacity:1; fill:none" stroke-dasharray="6, 12" points="1467.43,399.356 1604.05,399.356 "/>
<path clip-path="url(#clip670)" d="M1626.82 373.436 L1636.26 373.436 L1659.25 416.804 L1659.25 373.436 L1666.06 373.436 L1666.06 425.276 L1656.61 425.276 L1633.63 381.908 L1633.63 425.276 L1626.82 425.276 L1626.82 373.436 Z" fill="#000000" fill-rule="nonzero" fill-opacity="1" /><path clip-path="url(#clip670)" d="M1713 404.234 L1713 407.359 L1683.63 407.359 Q1684.04 413.956 1687.58 417.429 Q1691.16 420.866 1697.51 420.866 Q1701.19 420.866 1704.63 419.963 Q1708.1 419.06 1711.51 417.255 L1711.51 423.297 Q1708.07 424.755 1704.46 425.519 Q1700.85 426.283 1697.13 426.283 Q1687.83 426.283 1682.38 420.866 Q1676.96 415.449 1676.96 406.213 Q1676.96 396.665 1682.1 391.075 Q1687.27 385.45 1696.02 385.45 Q1703.87 385.45 1708.42 390.519 Q1713 395.554 1713 404.234 M1706.61 402.359 Q1706.54 397.116 1703.66 393.991 Q1700.81 390.866 1696.09 390.866 Q1690.74 390.866 1687.51 393.887 Q1684.32 396.908 1683.83 402.394 L1706.61 402.359 Z" fill="#000000" fill-rule="nonzero" fill-opacity="1" /><path clip-path="url(#clip670)" d="M1722.83 409.929 L1722.83 386.387 L1729.22 386.387 L1729.22 409.686 Q1729.22 415.206 1731.37 417.984 Q1733.52 420.727 1737.83 420.727 Q1743 420.727 1745.99 417.429 Q1749.01 414.13 1749.01 408.436 L1749.01 386.387 L1755.4 386.387 L1755.4 425.276 L1749.01 425.276 L1749.01 419.304 Q1746.68 422.845 1743.59 424.581 Q1740.53 426.283 1736.47 426.283 Q1729.77 426.283 1726.3 422.116 Q1722.83 417.949 1722.83 409.929 M1738.9 385.45 L1738.9 385.45 Z" fill="#000000" fill-rule="nonzero" fill-opacity="1" /><path clip-path="url(#clip670)" d="M1791.09 392.359 Q1790.01 391.734 1788.73 391.456 Q1787.48 391.144 1785.95 391.144 Q1780.53 391.144 1777.62 394.686 Q1774.74 398.193 1774.74 404.79 L1774.74 425.276 L1768.31 425.276 L1768.31 386.387 L1774.74 386.387 L1774.74 392.429 Q1776.75 388.887 1779.98 387.186 Q1783.21 385.45 1787.83 385.45 Q1788.49 385.45 1789.28 385.554 Q1790.08 385.623 1791.06 385.797 L1791.09 392.359 Z" fill="#000000" fill-rule="nonzero" fill-opacity="1" /><path clip-path="url(#clip670)" d="M1815.47 405.727 Q1807.72 405.727 1804.74 407.498 Q1801.75 409.269 1801.75 413.54 Q1801.75 416.942 1803.97 418.956 Q1806.23 420.935 1810.08 420.935 Q1815.4 420.935 1818.59 417.185 Q1821.82 413.401 1821.82 407.151 L1821.82 405.727 L1815.47 405.727 M1828.21 403.088 L1828.21 425.276 L1821.82 425.276 L1821.82 419.373 Q1819.63 422.915 1816.37 424.616 Q1813.1 426.283 1808.38 426.283 Q1802.41 426.283 1798.87 422.949 Q1795.36 419.581 1795.36 413.956 Q1795.36 407.394 1799.74 404.061 Q1804.15 400.727 1812.86 400.727 L1821.82 400.727 L1821.82 400.102 Q1821.82 395.693 1818.9 393.297 Q1816.02 390.866 1810.78 390.866 Q1807.44 390.866 1804.28 391.665 Q1801.12 392.463 1798.21 394.061 L1798.21 388.158 Q1801.72 386.804 1805.01 386.144 Q1808.31 385.45 1811.44 385.45 Q1819.87 385.45 1824.04 389.825 Q1828.21 394.199 1828.21 403.088 Z" fill="#000000" fill-rule="nonzero" fill-opacity="1" /><path clip-path="url(#clip670)" d="M1841.37 371.248 L1847.76 371.248 L1847.76 425.276 L1841.37 425.276 L1841.37 371.248 Z" fill="#000000" fill-rule="nonzero" fill-opacity="1" /><path clip-path="url(#clip670)" d="M1861.4 373.436 L1891.19 373.436 L1891.19 379.338 L1868.42 379.338 L1868.42 394.616 L1888.97 394.616 L1888.97 400.519 L1868.42 400.519 L1868.42 425.276 L1861.4 425.276 L1861.4 373.436 Z" fill="#000000" fill-rule="nonzero" fill-opacity="1" /><path clip-path="url(#clip670)" d="M1902.3 373.436 L1912.76 373.436 L1925.99 408.713 L1939.28 373.436 L1949.74 373.436 L1949.74 425.276 L1942.89 425.276 L1942.89 379.755 L1929.53 415.31 L1922.48 415.31 L1909.11 379.755 L1909.11 425.276 L1902.3 425.276 L1902.3 373.436 Z" fill="#000000" fill-rule="nonzero" fill-opacity="1" /><path clip-path="url(#clip670)" d="M1962.86 373.436 L1969.91 373.436 L1969.91 404.929 Q1969.91 413.262 1972.93 416.942 Q1975.95 420.588 1982.72 420.588 Q1989.46 420.588 1992.48 416.942 Q1995.5 413.262 1995.5 404.929 L1995.5 373.436 L2002.55 373.436 L2002.55 405.797 Q2002.55 415.935 1997.51 421.109 Q1992.51 426.283 1982.72 426.283 Q1972.89 426.283 1967.86 421.109 Q1962.86 415.935 1962.86 405.797 L1962.86 373.436 Z" fill="#000000" fill-rule="nonzero" fill-opacity="1" /><path clip-path="url(#clip670)" d="M2053.38 371.318 Q2048.73 379.304 2046.47 387.116 Q2044.21 394.929 2044.21 402.949 Q2044.21 410.97 2046.47 418.852 Q2048.76 426.699 2053.38 434.651 L2047.82 434.651 Q2042.62 426.491 2040.01 418.609 Q2037.44 410.727 2037.44 402.949 Q2037.44 395.206 2040.01 387.359 Q2042.58 379.512 2047.82 371.318 L2053.38 371.318 Z" fill="#000000" fill-rule="nonzero" fill-opacity="1" /><path clip-path="url(#clip670)" d="M2072.72 419.373 L2097.2 419.373 L2097.2 425.276 L2064.28 425.276 L2064.28 419.373 Q2068.28 415.241 2075.15 408.297 Q2082.06 401.318 2083.83 399.304 Q2087.2 395.519 2088.52 392.915 Q2089.87 390.276 2089.87 387.741 Q2089.87 383.609 2086.96 381.005 Q2084.07 378.401 2079.42 378.401 Q2076.12 378.401 2072.44 379.547 Q2068.8 380.693 2064.63 383.019 L2064.63 375.936 Q2068.87 374.234 2072.55 373.366 Q2076.23 372.498 2079.28 372.498 Q2087.34 372.498 2092.13 376.526 Q2096.92 380.554 2096.92 387.29 Q2096.92 390.484 2095.71 393.366 Q2094.53 396.213 2091.37 400.102 Q2090.5 401.109 2085.85 405.936 Q2081.19 410.727 2072.72 419.373 Z" fill="#000000" fill-rule="nonzero" fill-opacity="1" /><path clip-path="url(#clip670)" d="M2111.99 373.436 L2139.53 373.436 L2139.53 379.338 L2118.41 379.338 L2118.41 392.047 Q2119.94 391.526 2121.47 391.283 Q2123 391.005 2124.53 391.005 Q2133.21 391.005 2138.28 395.762 Q2143.35 400.519 2143.35 408.644 Q2143.35 417.012 2138.14 421.665 Q2132.93 426.283 2123.45 426.283 Q2120.19 426.283 2116.78 425.727 Q2113.41 425.172 2109.8 424.06 L2109.8 417.012 Q2112.93 418.713 2116.26 419.547 Q2119.6 420.38 2123.31 420.38 Q2129.32 420.38 2132.82 417.22 Q2136.33 414.06 2136.33 408.644 Q2136.33 403.227 2132.82 400.068 Q2129.32 396.908 2123.31 396.908 Q2120.5 396.908 2117.69 397.533 Q2114.91 398.158 2111.99 399.477 L2111.99 373.436 Z" fill="#000000" fill-rule="nonzero" fill-opacity="1" /><path clip-path="url(#clip670)" d="M2172.16 378.054 Q2166.75 378.054 2164 383.401 Q2161.3 388.713 2161.3 399.408 Q2161.3 410.067 2164 415.415 Q2166.75 420.727 2172.16 420.727 Q2177.62 420.727 2180.32 415.415 Q2183.07 410.067 2183.07 399.408 Q2183.07 388.713 2180.32 383.401 Q2177.62 378.054 2172.16 378.054 M2172.16 372.498 Q2180.88 372.498 2185.46 379.408 Q2190.08 386.283 2190.08 399.408 Q2190.08 412.498 2185.46 419.408 Q2180.88 426.283 2172.16 426.283 Q2163.45 426.283 2158.83 419.408 Q2154.25 412.498 2154.25 399.408 Q2154.25 386.283 2158.83 379.408 Q2163.45 372.498 2172.16 372.498 Z" fill="#000000" fill-rule="nonzero" fill-opacity="1" /><path clip-path="url(#clip670)" d="M2217.41 378.054 Q2211.99 378.054 2209.25 383.401 Q2206.54 388.713 2206.54 399.408 Q2206.54 410.067 2209.25 415.415 Q2211.99 420.727 2217.41 420.727 Q2222.86 420.727 2225.57 415.415 Q2228.31 410.067 2228.31 399.408 Q2228.31 388.713 2225.57 383.401 Q2222.86 378.054 2217.41 378.054 M2217.41 372.498 Q2226.12 372.498 2230.71 379.408 Q2235.32 386.283 2235.32 399.408 Q2235.32 412.498 2230.71 419.408 Q2226.12 426.283 2217.41 426.283 Q2208.69 426.283 2204.07 419.408 Q2199.49 412.498 2199.49 399.408 Q2199.49 386.283 2204.07 379.408 Q2208.69 372.498 2217.41 372.498 Z" fill="#000000" fill-rule="nonzero" fill-opacity="1" /><path clip-path="url(#clip670)" d="M2245.74 371.318 L2251.3 371.318 Q2256.5 379.512 2259.07 387.359 Q2261.68 395.206 2261.68 402.949 Q2261.68 410.727 2259.07 418.609 Q2256.5 426.491 2251.3 434.651 L2245.74 434.651 Q2250.36 426.699 2252.62 418.852 Q2254.91 410.97 2254.91 402.949 Q2254.91 394.929 2252.62 387.116 Q2250.36 379.304 2245.74 371.318 Z" fill="#000000" fill-rule="nonzero" fill-opacity="1" /><polyline clip-path="url(#clip670)" style="stroke:#008000; stroke-linecap:round; stroke-linejoin:round; stroke-width:12; stroke-opacity:1; fill:none" points="1467.43,477.116 1604.05,477.116 "/>
<path clip-path="url(#clip670)" d="M1626.82 451.196 L1636.26 451.196 L1659.25 494.564 L1659.25 451.196 L1666.06 451.196 L1666.06 503.036 L1656.61 503.036 L1633.63 459.668 L1633.63 503.036 L1626.82 503.036 L1626.82 451.196 Z" fill="#000000" fill-rule="nonzero" fill-opacity="1" /><path clip-path="url(#clip670)" d="M1713 481.994 L1713 485.119 L1683.63 485.119 Q1684.04 491.716 1687.58 495.189 Q1691.16 498.626 1697.51 498.626 Q1701.19 498.626 1704.63 497.723 Q1708.1 496.82 1711.51 495.015 L1711.51 501.057 Q1708.07 502.515 1704.46 503.279 Q1700.85 504.043 1697.13 504.043 Q1687.83 504.043 1682.38 498.626 Q1676.96 493.209 1676.96 483.973 Q1676.96 474.425 1682.1 468.835 Q1687.27 463.21 1696.02 463.21 Q1703.87 463.21 1708.42 468.279 Q1713 473.314 1713 481.994 M1706.61 480.119 Q1706.54 474.876 1703.66 471.751 Q1700.81 468.626 1696.09 468.626 Q1690.74 468.626 1687.51 471.647 Q1684.32 474.668 1683.83 480.154 L1706.61 480.119 Z" fill="#000000" fill-rule="nonzero" fill-opacity="1" /><path clip-path="url(#clip670)" d="M1722.83 487.689 L1722.83 464.147 L1729.22 464.147 L1729.22 487.446 Q1729.22 492.966 1731.37 495.744 Q1733.52 498.487 1737.83 498.487 Q1743 498.487 1745.99 495.189 Q1749.01 491.89 1749.01 486.196 L1749.01 464.147 L1755.4 464.147 L1755.4 503.036 L1749.01 503.036 L1749.01 497.064 Q1746.68 500.605 1743.59 502.341 Q1740.53 504.043 1736.47 504.043 Q1729.77 504.043 1726.3 499.876 Q1722.83 495.709 1722.83 487.689 M1738.9 463.21 L1738.9 463.21 Z" fill="#000000" fill-rule="nonzero" fill-opacity="1" /><path clip-path="url(#clip670)" d="M1791.09 470.119 Q1790.01 469.494 1788.73 469.216 Q1787.48 468.904 1785.95 468.904 Q1780.53 468.904 1777.62 472.446 Q1774.74 475.953 1774.74 482.55 L1774.74 503.036 L1768.31 503.036 L1768.31 464.147 L1774.74 464.147 L1774.74 470.189 Q1776.75 466.647 1779.98 464.946 Q1783.21 463.21 1787.83 463.21 Q1788.49 463.21 1789.28 463.314 Q1790.08 463.383 1791.06 463.557 L1791.09 470.119 Z" fill="#000000" fill-rule="nonzero" fill-opacity="1" /><path clip-path="url(#clip670)" d="M1815.47 483.487 Q1807.72 483.487 1804.74 485.258 Q1801.75 487.029 1801.75 491.3 Q1801.75 494.702 1803.97 496.716 Q1806.23 498.695 1810.08 498.695 Q1815.4 498.695 1818.59 494.945 Q1821.82 491.161 1821.82 484.911 L1821.82 483.487 L1815.47 483.487 M1828.21 480.848 L1828.21 503.036 L1821.82 503.036 L1821.82 497.133 Q1819.63 500.675 1816.37 502.376 Q1813.1 504.043 1808.38 504.043 Q1802.41 504.043 1798.87 500.709 Q1795.36 497.341 1795.36 491.716 Q1795.36 485.154 1799.74 481.821 Q1804.15 478.487 1812.86 478.487 L1821.82 478.487 L1821.82 477.862 Q1821.82 473.453 1818.9 471.057 Q1816.02 468.626 1810.78 468.626 Q1807.44 468.626 1804.28 469.425 Q1801.12 470.223 1798.21 471.821 L1798.21 465.918 Q1801.72 464.564 1805.01 463.904 Q1808.31 463.21 1811.44 463.21 Q1819.87 463.21 1824.04 467.585 Q1828.21 471.959 1828.21 480.848 Z" fill="#000000" fill-rule="nonzero" fill-opacity="1" /><path clip-path="url(#clip670)" d="M1841.37 449.008 L1847.76 449.008 L1847.76 503.036 L1841.37 503.036 L1841.37 449.008 Z" fill="#000000" fill-rule="nonzero" fill-opacity="1" /><path clip-path="url(#clip670)" d="M1861.4 451.196 L1891.19 451.196 L1891.19 457.098 L1868.42 457.098 L1868.42 472.376 L1888.97 472.376 L1888.97 478.279 L1868.42 478.279 L1868.42 503.036 L1861.4 503.036 L1861.4 451.196 Z" fill="#000000" fill-rule="nonzero" fill-opacity="1" /><path clip-path="url(#clip670)" d="M1902.3 451.196 L1912.76 451.196 L1925.99 486.473 L1939.28 451.196 L1949.74 451.196 L1949.74 503.036 L1942.89 503.036 L1942.89 457.515 L1929.53 493.07 L1922.48 493.07 L1909.11 457.515 L1909.11 503.036 L1902.3 503.036 L1902.3 451.196 Z" fill="#000000" fill-rule="nonzero" fill-opacity="1" /><path clip-path="url(#clip670)" d="M1962.86 451.196 L1969.91 451.196 L1969.91 482.689 Q1969.91 491.022 1972.93 494.702 Q1975.95 498.348 1982.72 498.348 Q1989.46 498.348 1992.48 494.702 Q1995.5 491.022 1995.5 482.689 L1995.5 451.196 L2002.55 451.196 L2002.55 483.557 Q2002.55 493.695 1997.51 498.869 Q1992.51 504.043 1982.72 504.043 Q1972.89 504.043 1967.86 498.869 Q1962.86 493.695 1962.86 483.557 L1962.86 451.196 Z" fill="#000000" fill-rule="nonzero" fill-opacity="1" /><path clip-path="url(#clip670)" d="M2053.38 449.078 Q2048.73 457.064 2046.47 464.876 Q2044.21 472.689 2044.21 480.709 Q2044.21 488.73 2046.47 496.612 Q2048.76 504.459 2053.38 512.411 L2047.82 512.411 Q2042.62 504.251 2040.01 496.369 Q2037.44 488.487 2037.44 480.709 Q2037.44 472.966 2040.01 465.119 Q2042.58 457.272 2047.82 449.078 L2053.38 449.078 Z" fill="#000000" fill-rule="nonzero" fill-opacity="1" /><path clip-path="url(#clip670)" d="M2066.75 451.196 L2094.28 451.196 L2094.28 457.098 L2073.17 457.098 L2073.17 469.807 Q2074.7 469.286 2076.23 469.043 Q2077.76 468.765 2079.28 468.765 Q2087.96 468.765 2093.03 473.522 Q2098.1 478.279 2098.1 486.404 Q2098.1 494.772 2092.89 499.425 Q2087.69 504.043 2078.21 504.043 Q2074.94 504.043 2071.54 503.487 Q2068.17 502.932 2064.56 501.82 L2064.56 494.772 Q2067.69 496.473 2071.02 497.307 Q2074.35 498.14 2078.07 498.14 Q2084.07 498.14 2087.58 494.98 Q2091.09 491.82 2091.09 486.404 Q2091.09 480.987 2087.58 477.828 Q2084.07 474.668 2078.07 474.668 Q2075.26 474.668 2072.44 475.293 Q2069.67 475.918 2066.75 477.237 L2066.75 451.196 Z" fill="#000000" fill-rule="nonzero" fill-opacity="1" /><path clip-path="url(#clip670)" d="M2126.92 455.814 Q2121.51 455.814 2118.76 461.161 Q2116.05 466.473 2116.05 477.168 Q2116.05 487.827 2118.76 493.175 Q2121.51 498.487 2126.92 498.487 Q2132.37 498.487 2135.08 493.175 Q2137.82 487.827 2137.82 477.168 Q2137.82 466.473 2135.08 461.161 Q2132.37 455.814 2126.92 455.814 M2126.92 450.258 Q2135.64 450.258 2140.22 457.168 Q2144.84 464.043 2144.84 477.168 Q2144.84 490.258 2140.22 497.168 Q2135.64 504.043 2126.92 504.043 Q2118.21 504.043 2113.59 497.168 Q2109.01 490.258 2109.01 477.168 Q2109.01 464.043 2113.59 457.168 Q2118.21 450.258 2126.92 450.258 Z" fill="#000000" fill-rule="nonzero" fill-opacity="1" /><path clip-path="url(#clip670)" d="M2172.16 455.814 Q2166.75 455.814 2164 461.161 Q2161.3 466.473 2161.3 477.168 Q2161.3 487.827 2164 493.175 Q2166.75 498.487 2172.16 498.487 Q2177.62 498.487 2180.32 493.175 Q2183.07 487.827 2183.07 477.168 Q2183.07 466.473 2180.32 461.161 Q2177.62 455.814 2172.16 455.814 M2172.16 450.258 Q2180.88 450.258 2185.46 457.168 Q2190.08 464.043 2190.08 477.168 Q2190.08 490.258 2185.46 497.168 Q2180.88 504.043 2172.16 504.043 Q2163.45 504.043 2158.83 497.168 Q2154.25 490.258 2154.25 477.168 Q2154.25 464.043 2158.83 457.168 Q2163.45 450.258 2172.16 450.258 Z" fill="#000000" fill-rule="nonzero" fill-opacity="1" /><path clip-path="url(#clip670)" d="M2217.41 455.814 Q2211.99 455.814 2209.25 461.161 Q2206.54 466.473 2206.54 477.168 Q2206.54 487.827 2209.25 493.175 Q2211.99 498.487 2217.41 498.487 Q2222.86 498.487 2225.57 493.175 Q2228.31 487.827 2228.31 477.168 Q2228.31 466.473 2225.57 461.161 Q2222.86 455.814 2217.41 455.814 M2217.41 450.258 Q2226.12 450.258 2230.71 457.168 Q2235.32 464.043 2235.32 477.168 Q2235.32 490.258 2230.71 497.168 Q2226.12 504.043 2217.41 504.043 Q2208.69 504.043 2204.07 497.168 Q2199.49 490.258 2199.49 477.168 Q2199.49 464.043 2204.07 457.168 Q2208.69 450.258 2217.41 450.258 Z" fill="#000000" fill-rule="nonzero" fill-opacity="1" /><path clip-path="url(#clip670)" d="M2245.74 449.078 L2251.3 449.078 Q2256.5 457.272 2259.07 465.119 Q2261.68 472.966 2261.68 480.709 Q2261.68 488.487 2259.07 496.369 Q2256.5 504.251 2251.3 512.411 L2245.74 512.411 Q2250.36 504.459 2252.62 496.612 Q2254.91 488.73 2254.91 480.709 Q2254.91 472.689 2252.62 464.876 Q2250.36 457.064 2245.74 449.078 Z" fill="#000000" fill-rule="nonzero" fill-opacity="1" /></svg>
