<?xml version="1.0" encoding="utf-8"?>
<svg xmlns="http://www.w3.org/2000/svg" xmlns:xlink="http://www.w3.org/1999/xlink" width="600" height="400" viewBox="0 0 2400 1600">
<defs>
  <clipPath id="clip390">
    <rect x="0" y="0" width="2400" height="1600"/>
  </clipPath>
</defs>
<path clip-path="url(#clip390)" d="
M0 1600 L2400 1600 L2400 0 L0 0  Z
  " fill="#ffffff" fill-rule="evenodd" fill-opacity="1"/>
<defs>
  <clipPath id="clip391">
    <rect x="480" y="0" width="1681" height="1600"/>
  </clipPath>
</defs>
<path clip-path="url(#clip390)" d="
M149.191 1423.18 L2352.76 1423.18 L2352.76 47.2441 L149.191 47.2441  Z
  " fill="#ffffff" fill-rule="evenodd" fill-opacity="1"/>
<defs>
  <clipPath id="clip392">
    <rect x="149" y="47" width="2205" height="1377"/>
  </clipPath>
</defs>
<polyline clip-path="url(#clip392)" style="stroke:#000000; stroke-linecap:round; stroke-linejoin:round; stroke-width:2; stroke-opacity:0.1; fill:none" points="
  211.556,1423.18 211.556,47.2441 
  "/>
<polyline clip-path="url(#clip392)" style="stroke:#000000; stroke-linecap:round; stroke-linejoin:round; stroke-width:2; stroke-opacity:0.1; fill:none" points="
  731.265,1423.18 731.265,47.2441 
  "/>
<polyline clip-path="url(#clip392)" style="stroke:#000000; stroke-linecap:round; stroke-linejoin:round; stroke-width:2; stroke-opacity:0.1; fill:none" points="
  1250.97,1423.18 1250.97,47.2441 
  "/>
<polyline clip-path="url(#clip392)" style="stroke:#000000; stroke-linecap:round; stroke-linejoin:round; stroke-width:2; stroke-opacity:0.1; fill:none" points="
  1770.68,1423.18 1770.68,47.2441 
  "/>
<polyline clip-path="url(#clip392)" style="stroke:#000000; stroke-linecap:round; stroke-linejoin:round; stroke-width:2; stroke-opacity:0.1; fill:none" points="
  2290.39,1423.18 2290.39,47.2441 
  "/>
<polyline clip-path="url(#clip390)" style="stroke:#000000; stroke-linecap:round; stroke-linejoin:round; stroke-width:4; stroke-opacity:1; fill:none" points="
  149.191,1423.18 2352.76,1423.18 
  "/>
<polyline clip-path="url(#clip390)" style="stroke:#000000; stroke-linecap:round; stroke-linejoin:round; stroke-width:4; stroke-opacity:1; fill:none" points="
  211.556,1423.18 211.556,1404.28 
  "/>
<polyline clip-path="url(#clip390)" style="stroke:#000000; stroke-linecap:round; stroke-linejoin:round; stroke-width:4; stroke-opacity:1; fill:none" points="
  731.265,1423.18 731.265,1404.28 
  "/>
<polyline clip-path="url(#clip390)" style="stroke:#000000; stroke-linecap:round; stroke-linejoin:round; stroke-width:4; stroke-opacity:1; fill:none" points="
  1250.97,1423.18 1250.97,1404.28 
  "/>
<polyline clip-path="url(#clip390)" style="stroke:#000000; stroke-linecap:round; stroke-linejoin:round; stroke-width:4; stroke-opacity:1; fill:none" points="
  1770.68,1423.18 1770.68,1404.28 
  "/>
<polyline clip-path="url(#clip390)" style="stroke:#000000; stroke-linecap:round; stroke-linejoin:round; stroke-width:4; stroke-opacity:1; fill:none" points="
  2290.39,1423.18 2290.39,1404.28 
  "/>
<path clip-path="url(#clip390)" d="M211.556 1454.1 Q207.945 1454.1 206.116 1457.66 Q204.311 1461.2 204.311 1468.33 Q204.311 1475.44 206.116 1479.01 Q207.945 1482.55 211.556 1482.55 Q215.19 1482.55 216.996 1479.01 Q218.824 1475.44 218.824 1468.33 Q218.824 1461.2 216.996 1457.66 Q215.19 1454.1 211.556 1454.1 M211.556 1450.39 Q217.366 1450.39 220.422 1455 Q223.5 1459.58 223.5 1468.33 Q223.5 1477.06 220.422 1481.67 Q217.366 1486.25 211.556 1486.25 Q205.746 1486.25 202.667 1481.67 Q199.612 1477.06 199.612 1468.33 Q199.612 1459.58 202.667 1455 Q205.746 1450.39 211.556 1450.39 Z" fill="#000000" fill-rule="evenodd" fill-opacity="1" /><path clip-path="url(#clip390)" d="M721.647 1481.64 L729.285 1481.64 L729.285 1455.28 L720.975 1456.95 L720.975 1452.69 L729.239 1451.02 L733.915 1451.02 L733.915 1481.64 L741.554 1481.64 L741.554 1485.58 L721.647 1485.58 L721.647 1481.64 Z" fill="#000000" fill-rule="evenodd" fill-opacity="1" /><path clip-path="url(#clip390)" d="M1245.63 1481.64 L1261.95 1481.64 L1261.95 1485.58 L1240 1485.58 L1240 1481.64 Q1242.66 1478.89 1247.25 1474.26 Q1251.85 1469.61 1253.03 1468.27 Q1255.28 1465.74 1256.16 1464.01 Q1257.06 1462.25 1257.06 1460.56 Q1257.06 1457.8 1255.12 1456.07 Q1253.2 1454.33 1250.09 1454.33 Q1247.89 1454.33 1245.44 1455.09 Q1243.01 1455.86 1240.23 1457.41 L1240.23 1452.69 Q1243.06 1451.55 1245.51 1450.97 Q1247.96 1450.39 1250 1450.39 Q1255.37 1450.39 1258.57 1453.08 Q1261.76 1455.77 1261.76 1460.26 Q1261.76 1462.39 1260.95 1464.31 Q1260.16 1466.2 1258.06 1468.8 Q1257.48 1469.47 1254.38 1472.69 Q1251.27 1475.88 1245.63 1481.64 Z" fill="#000000" fill-rule="evenodd" fill-opacity="1" /><path clip-path="url(#clip390)" d="M1774.93 1466.95 Q1778.29 1467.66 1780.16 1469.93 Q1782.06 1472.2 1782.06 1475.53 Q1782.06 1480.65 1778.54 1483.45 Q1775.02 1486.25 1768.54 1486.25 Q1766.37 1486.25 1764.05 1485.81 Q1761.76 1485.39 1759.3 1484.54 L1759.3 1480.02 Q1761.25 1481.16 1763.56 1481.74 Q1765.88 1482.32 1768.4 1482.32 Q1772.8 1482.32 1775.09 1480.58 Q1777.41 1478.84 1777.41 1475.53 Q1777.41 1472.48 1775.25 1470.77 Q1773.12 1469.03 1769.3 1469.03 L1765.28 1469.03 L1765.28 1465.19 L1769.49 1465.19 Q1772.94 1465.19 1774.77 1463.82 Q1776.6 1462.43 1776.6 1459.84 Q1776.6 1457.18 1774.7 1455.77 Q1772.82 1454.33 1769.3 1454.33 Q1767.38 1454.33 1765.18 1454.75 Q1762.99 1455.16 1760.35 1456.04 L1760.35 1451.88 Q1763.01 1451.14 1765.32 1450.77 Q1767.66 1450.39 1769.72 1450.39 Q1775.05 1450.39 1778.15 1452.83 Q1781.25 1455.23 1781.25 1459.35 Q1781.25 1462.22 1779.61 1464.21 Q1777.96 1466.18 1774.93 1466.95 Z" fill="#000000" fill-rule="evenodd" fill-opacity="1" /><path clip-path="url(#clip390)" d="M2293.4 1455.09 L2281.59 1473.54 L2293.4 1473.54 L2293.4 1455.09 M2292.17 1451.02 L2298.05 1451.02 L2298.05 1473.54 L2302.98 1473.54 L2302.98 1477.43 L2298.05 1477.43 L2298.05 1485.58 L2293.4 1485.58 L2293.4 1477.43 L2277.8 1477.43 L2277.8 1472.92 L2292.17 1451.02 Z" fill="#000000" fill-rule="evenodd" fill-opacity="1" /><path clip-path="url(#clip390)" d="M1199.28 1522.27 L1199.28 1532.4 L1211.35 1532.4 L1211.35 1536.95 L1199.28 1536.95 L1199.28 1556.3 Q1199.28 1560.66 1200.46 1561.9 Q1201.67 1563.14 1205.33 1563.14 L1211.35 1563.14 L1211.35 1568.04 L1205.33 1568.04 Q1198.55 1568.04 1195.97 1565.53 Q1193.4 1562.98 1193.4 1556.3 L1193.4 1536.95 L1189.1 1536.95 L1189.1 1532.4 L1193.4 1532.4 L1193.4 1522.27 L1199.28 1522.27 Z" fill="#000000" fill-rule="evenodd" fill-opacity="1" /><path clip-path="url(#clip390)" d="M1239.23 1518.52 L1252.72 1518.52 L1252.72 1523.07 L1245.09 1523.07 L1245.09 1572.09 L1252.72 1572.09 L1252.72 1576.64 L1239.23 1576.64 L1239.23 1518.52 Z" fill="#000000" fill-rule="evenodd" fill-opacity="1" /><path clip-path="url(#clip390)" d="M1287.93 1533.45 L1287.93 1538.98 Q1285.44 1537.71 1282.77 1537.07 Q1280.1 1536.44 1277.23 1536.44 Q1272.87 1536.44 1270.68 1537.77 Q1268.51 1539.11 1268.51 1541.79 Q1268.51 1543.82 1270.07 1545 Q1271.63 1546.15 1276.34 1547.2 L1278.35 1547.64 Q1284.58 1548.98 1287.19 1551.43 Q1289.84 1553.85 1289.84 1558.21 Q1289.84 1563.17 1285.89 1566.07 Q1281.97 1568.97 1275.1 1568.97 Q1272.23 1568.97 1269.12 1568.39 Q1266.03 1567.85 1262.59 1566.74 L1262.59 1560.69 Q1265.84 1562.38 1268.99 1563.24 Q1272.14 1564.07 1275.23 1564.07 Q1279.36 1564.07 1281.59 1562.66 Q1283.82 1561.23 1283.82 1558.65 Q1283.82 1556.27 1282.2 1554.99 Q1280.61 1553.72 1275.16 1552.54 L1273.13 1552.07 Q1267.68 1550.92 1265.26 1548.56 Q1262.85 1546.18 1262.85 1542.04 Q1262.85 1537.01 1266.41 1534.27 Q1269.98 1531.54 1276.53 1531.54 Q1279.78 1531.54 1282.64 1532.01 Q1285.51 1532.49 1287.93 1533.45 Z" fill="#000000" fill-rule="evenodd" fill-opacity="1" /><path clip-path="url(#clip390)" d="M1312.85 1518.52 L1312.85 1576.64 L1299.35 1576.64 L1299.35 1572.09 L1306.96 1572.09 L1306.96 1523.07 L1299.35 1523.07 L1299.35 1518.52 L1312.85 1518.52 Z" fill="#000000" fill-rule="evenodd" fill-opacity="1" /><polyline clip-path="url(#clip392)" style="stroke:#000000; stroke-linecap:round; stroke-linejoin:round; stroke-width:2; stroke-opacity:0.1; fill:none" points="
  149.191,1246.93 2352.76,1246.93 
  "/>
<polyline clip-path="url(#clip392)" style="stroke:#000000; stroke-linecap:round; stroke-linejoin:round; stroke-width:2; stroke-opacity:0.1; fill:none" points="
  149.191,969.298 2352.76,969.298 
  "/>
<polyline clip-path="url(#clip392)" style="stroke:#000000; stroke-linecap:round; stroke-linejoin:round; stroke-width:2; stroke-opacity:0.1; fill:none" points="
  149.191,691.662 2352.76,691.662 
  "/>
<polyline clip-path="url(#clip392)" style="stroke:#000000; stroke-linecap:round; stroke-linejoin:round; stroke-width:2; stroke-opacity:0.1; fill:none" points="
  149.191,414.026 2352.76,414.026 
  "/>
<polyline clip-path="url(#clip392)" style="stroke:#000000; stroke-linecap:round; stroke-linejoin:round; stroke-width:2; stroke-opacity:0.1; fill:none" points="
  149.191,136.39 2352.76,136.39 
  "/>
<polyline clip-path="url(#clip390)" style="stroke:#000000; stroke-linecap:round; stroke-linejoin:round; stroke-width:4; stroke-opacity:1; fill:none" points="
  149.191,1423.18 149.191,47.2441 
  "/>
<polyline clip-path="url(#clip390)" style="stroke:#000000; stroke-linecap:round; stroke-linejoin:round; stroke-width:4; stroke-opacity:1; fill:none" points="
  149.191,1246.93 168.089,1246.93 
  "/>
<polyline clip-path="url(#clip390)" style="stroke:#000000; stroke-linecap:round; stroke-linejoin:round; stroke-width:4; stroke-opacity:1; fill:none" points="
  149.191,969.298 168.089,969.298 
  "/>
<polyline clip-path="url(#clip390)" style="stroke:#000000; stroke-linecap:round; stroke-linejoin:round; stroke-width:4; stroke-opacity:1; fill:none" points="
  149.191,691.662 168.089,691.662 
  "/>
<polyline clip-path="url(#clip390)" style="stroke:#000000; stroke-linecap:round; stroke-linejoin:round; stroke-width:4; stroke-opacity:1; fill:none" points="
  149.191,414.026 168.089,414.026 
  "/>
<polyline clip-path="url(#clip390)" style="stroke:#000000; stroke-linecap:round; stroke-linejoin:round; stroke-width:4; stroke-opacity:1; fill:none" points="
  149.191,136.39 168.089,136.39 
  "/>
<path clip-path="url(#clip390)" d="M50.9921 1247.38 L80.6679 1247.38 L80.6679 1251.32 L50.9921 1251.32 L50.9921 1247.38 Z" fill="#000000" fill-rule="evenodd" fill-opacity="1" /><path clip-path="url(#clip390)" d="M103.608 1233.73 L91.8021 1252.18 L103.608 1252.18 L103.608 1233.73 M102.381 1229.65 L108.26 1229.65 L108.26 1252.18 L113.191 1252.18 L113.191 1256.07 L108.26 1256.07 L108.26 1264.21 L103.608 1264.21 L103.608 1256.07 L88.0058 1256.07 L88.0058 1251.55 L102.381 1229.65 Z" fill="#000000" fill-rule="evenodd" fill-opacity="1" /><path clip-path="url(#clip390)" d="M53.0754 969.749 L82.7512 969.749 L82.7512 973.684 L53.0754 973.684 L53.0754 969.749 Z" fill="#000000" fill-rule="evenodd" fill-opacity="1" /><path clip-path="url(#clip390)" d="M96.8715 982.643 L113.191 982.643 L113.191 986.578 L91.2465 986.578 L91.2465 982.643 Q93.9086 979.888 98.4919 975.258 Q103.098 970.606 104.279 969.263 Q106.524 966.74 107.404 965.004 Q108.307 963.245 108.307 961.555 Q108.307 958.8 106.362 957.064 Q104.441 955.328 101.339 955.328 Q99.14 955.328 96.6863 956.092 Q94.2558 956.856 91.478 958.407 L91.478 953.684 Q94.3021 952.55 96.7558 951.972 Q99.2095 951.393 101.246 951.393 Q106.617 951.393 109.811 954.078 Q113.006 956.763 113.006 961.254 Q113.006 963.384 112.196 965.305 Q111.408 967.203 109.302 969.796 Q108.723 970.467 105.621 973.684 Q102.52 976.879 96.8715 982.643 Z" fill="#000000" fill-rule="evenodd" fill-opacity="1" /><path clip-path="url(#clip390)" d="M101.246 677.461 Q97.6354 677.461 95.8067 681.026 Q94.0012 684.567 94.0012 691.697 Q94.0012 698.803 95.8067 702.368 Q97.6354 705.91 101.246 705.91 Q104.881 705.91 106.686 702.368 Q108.515 698.803 108.515 691.697 Q108.515 684.567 106.686 681.026 Q104.881 677.461 101.246 677.461 M101.246 673.757 Q107.057 673.757 110.112 678.364 Q113.191 682.947 113.191 691.697 Q113.191 700.424 110.112 705.03 Q107.057 709.613 101.246 709.613 Q95.4363 709.613 92.3576 705.03 Q89.3021 700.424 89.3021 691.697 Q89.3021 682.947 92.3576 678.364 Q95.4363 673.757 101.246 673.757 Z" fill="#000000" fill-rule="evenodd" fill-opacity="1" /><path clip-path="url(#clip390)" d="M96.8715 427.371 L113.191 427.371 L113.191 431.306 L91.2465 431.306 L91.2465 427.371 Q93.9086 424.616 98.4919 419.987 Q103.098 415.334 104.279 413.992 Q106.524 411.468 107.404 409.732 Q108.307 407.973 108.307 406.283 Q108.307 403.529 106.362 401.793 Q104.441 400.056 101.339 400.056 Q99.14 400.056 96.6863 400.82 Q94.2558 401.584 91.478 403.135 L91.478 398.413 Q94.3021 397.279 96.7558 396.7 Q99.2095 396.121 101.246 396.121 Q106.617 396.121 109.811 398.806 Q113.006 401.492 113.006 405.982 Q113.006 408.112 112.196 410.033 Q111.408 411.931 109.302 414.524 Q108.723 415.195 105.621 418.413 Q102.52 421.607 96.8715 427.371 Z" fill="#000000" fill-rule="evenodd" fill-opacity="1" /><path clip-path="url(#clip390)" d="M103.608 123.185 L91.8021 141.634 L103.608 141.634 L103.608 123.185 M102.381 119.11 L108.26 119.11 L108.26 141.634 L113.191 141.634 L113.191 145.522 L108.26 145.522 L108.26 153.67 L103.608 153.67 L103.608 145.522 L88.0058 145.522 L88.0058 141.009 L102.381 119.11 Z" fill="#000000" fill-rule="evenodd" fill-opacity="1" /><polyline clip-path="url(#clip392)" style="stroke:#009af9; stroke-linecap:round; stroke-linejoin:round; stroke-width:4; stroke-opacity:1; fill:none" points="
  211.556,622.253 216.753,622.222 221.95,622.132 227.147,621.983 232.344,621.773 237.541,621.504 242.738,621.174 247.936,620.783 253.133,620.333 258.33,619.822 
  263.527,619.251 268.724,618.62 273.921,617.931 279.118,617.182 284.315,616.376 289.512,615.512 294.709,614.591 299.906,613.614 305.103,612.582 310.301,611.496 
  315.498,610.357 320.695,609.165 325.892,607.923 331.089,606.631 336.286,605.289 341.483,603.901 346.68,602.468 351.877,600.99 357.074,599.468 362.271,597.905 
  367.469,596.302 372.666,594.659 377.863,592.981 383.06,591.268 388.257,589.521 393.454,587.742 398.651,585.932 403.848,584.093 409.045,582.228 414.242,580.339 
  419.439,578.427 424.636,576.494 429.834,574.541 435.031,572.572 440.228,570.588 445.425,568.59 450.622,566.581 455.819,564.563 461.016,562.539 466.213,560.509 
  471.41,558.477 476.607,556.444 481.804,554.411 487.002,552.382 492.199,550.358 497.396,548.342 502.593,546.335 507.79,544.341 512.987,542.358 518.184,540.391 
  523.381,538.442 528.578,536.511 533.775,534.602 538.972,532.717 544.17,530.857 549.367,529.023 554.564,527.217 559.761,525.443 564.958,523.7 570.155,521.993 
  575.352,520.321 580.549,518.686 585.746,517.09 590.943,515.535 596.14,514.022 601.337,512.554 606.535,511.131 611.732,509.754 616.929,508.426 622.126,507.147 
  627.323,505.92 632.52,504.744 637.717,503.623 642.914,502.556 648.111,501.545 653.308,500.59 658.505,499.694 663.703,498.857 668.9,498.08 674.097,497.365 
  679.294,496.711 684.491,496.12 689.688,495.593 694.885,495.13 700.082,494.733 705.279,494.401 710.476,494.136 715.673,493.939 720.87,493.809 726.068,493.748 
  731.265,493.756 736.462,493.813 741.659,493.918 746.856,494.071 752.053,494.275 757.25,494.528 762.447,494.831 767.644,495.184 772.841,495.587 778.038,496.04 
  783.236,496.542 788.433,497.094 793.63,497.694 798.827,498.343 804.024,499.039 809.221,499.783 814.418,500.573 819.615,501.41 824.812,502.293 830.009,503.219 
  835.206,504.189 840.403,505.203 845.601,506.259 850.798,507.357 855.995,508.493 861.192,509.669 866.389,510.882 871.586,512.134 876.783,513.421 881.98,514.741 
  887.177,516.095 892.374,517.48 897.571,518.897 902.769,520.343 907.966,521.815 913.163,523.313 918.36,524.836 923.557,526.383 928.754,527.952 933.951,529.54 
  939.148,531.146 944.345,532.77 949.542,534.409 954.739,536.062 959.936,537.726 965.134,539.401 970.331,541.084 975.528,542.774 980.725,544.47 985.922,546.169 
  991.119,547.87 996.316,549.571 1001.51,551.271 1006.71,552.967 1011.91,554.659 1017.1,556.344 1022.3,558.021 1027.5,559.687 1032.7,561.342 1037.89,562.984 
  1043.09,564.611 1048.29,566.221 1053.48,567.813 1058.68,569.385 1063.88,570.935 1069.08,572.463 1074.27,573.966 1079.47,575.444 1084.67,576.893 1089.86,578.313 
  1095.06,579.704 1100.26,581.062 1105.45,582.387 1110.65,583.677 1115.85,584.931 1121.05,586.149 1126.24,587.328 1131.44,588.467 1136.64,589.565 1141.83,590.62 
  1147.03,591.633 1152.23,592.601 1157.43,593.524 1162.62,594.4 1167.82,595.228 1173.02,596.009 1178.21,596.74 1183.41,597.421 1188.61,598.051 1193.81,598.628 
  1199,599.154 1204.2,599.626 1209.4,600.044 1214.59,600.406 1219.79,600.713 1224.99,600.964 1230.19,601.159 1235.38,601.297 1240.58,601.376 1245.78,601.397 
  1250.97,601.365 1256.17,601.299 1261.37,601.196 1266.56,601.054 1271.76,600.874 1276.96,600.654 1282.16,600.395 1287.35,600.097 1292.55,599.76 1297.75,599.384 
  1302.94,598.969 1308.14,598.515 1313.34,598.023 1318.54,597.493 1323.73,596.925 1328.93,596.32 1334.13,595.678 1339.32,595 1344.52,594.286 1349.72,593.536 
  1354.92,592.753 1360.11,591.936 1365.31,591.085 1370.51,590.202 1375.7,589.288 1380.9,588.343 1386.1,587.369 1391.29,586.365 1396.49,585.334 1401.69,584.275 
  1406.89,583.191 1412.08,582.081 1417.28,580.948 1422.48,579.791 1427.67,578.614 1432.87,577.415 1438.07,576.198 1443.27,574.962 1448.46,573.709 1453.66,572.441 
  1458.86,571.158 1464.05,569.863 1469.25,568.555 1474.45,567.237 1479.65,565.909 1484.84,564.573 1490.04,563.23 1495.24,561.883 1500.43,560.531 1505.63,559.177 
  1510.83,557.821 1516.02,556.465 1521.22,555.111 1526.42,553.759 1531.62,552.411 1536.81,551.068 1542.01,549.732 1547.21,548.405 1552.4,547.087 1557.6,545.78 
  1562.8,544.485 1568,543.203 1573.19,541.936 1578.39,540.685 1583.59,539.451 1588.78,538.236 1593.98,537.041 1599.18,535.867 1604.38,534.716 1609.57,533.588 
  1614.77,532.484 1619.97,531.406 1625.16,530.356 1630.36,529.333 1635.56,528.34 1640.75,527.377 1645.95,526.445 1651.15,525.545 1656.35,524.679 1661.54,523.846 
  1666.74,523.049 1671.94,522.288 1677.13,521.563 1682.33,520.877 1687.53,520.229 1692.73,519.62 1697.92,519.051 1703.12,518.523 1708.32,518.037 1713.51,517.592 
  1718.71,517.191 1723.91,516.833 1729.11,516.518 1734.3,516.249 1739.5,516.024 1744.7,515.845 1749.89,515.712 1755.09,515.625 1760.29,515.585 1765.49,515.594 
  1770.68,515.63 1775.88,515.692 1781.08,515.779 1786.27,515.893 1791.47,516.034 1796.67,516.203 1801.86,516.399 1807.06,516.624 1812.26,516.875 1817.46,517.154 
  1822.65,517.461 1827.85,517.795 1833.05,518.156 1838.24,518.544 1843.44,518.959 1848.64,519.4 1853.84,519.868 1859.03,520.361 1864.23,520.879 1869.43,521.422 
  1874.62,521.989 1879.82,522.58 1885.02,523.195 1890.22,523.834 1895.41,524.494 1900.61,525.176 1905.81,525.879 1911,526.603 1916.2,527.347 1921.4,528.111 
  1926.59,528.894 1931.79,529.693 1936.99,530.51 1942.19,531.343 1947.38,532.192 1952.58,533.057 1957.78,533.936 1962.97,534.827 1968.17,535.73 1973.37,536.645 
  1978.57,537.57 1983.76,538.505 1988.96,539.45 1994.16,540.402 1999.35,541.36 2004.55,542.325 2009.75,543.294 2014.95,544.268 2020.14,545.245 2025.34,546.223 
  2030.54,547.203 2035.73,548.183 2040.93,549.162 2046.13,550.139 2051.32,551.113 2056.52,552.084 2061.72,553.05 2066.92,554.01 2072.11,554.963 2077.31,555.909 
  2082.51,556.845 2087.7,557.773 2092.9,558.689 2098.1,559.595 2103.3,560.487 2108.49,561.367 2113.69,562.232 2118.89,563.081 2124.08,563.915 2129.28,564.732 
  2134.48,565.531 2139.68,566.311 2144.87,567.072 2150.07,567.812 2155.27,568.532 2160.46,569.229 2165.66,569.904 2170.86,570.555 2176.05,571.182 2181.25,571.784 
  2186.45,572.361 2191.65,572.911 2196.84,573.435 2202.04,573.93 2207.24,574.398 2212.43,574.836 2217.63,575.245 2222.83,575.625 2228.03,575.974 2233.22,576.292 
  2238.42,576.578 2243.62,576.831 2248.81,577.053 2254.01,577.242 2259.21,577.398 2264.41,577.519 2269.6,577.607 2274.8,577.659 2280,577.676 2285.19,577.667 
  2290.39,577.644 
  "/>
<polyline clip-path="url(#clip392)" style="stroke:#e26f46; stroke-linecap:round; stroke-linejoin:round; stroke-width:4; stroke-opacity:1; fill:none" points="
  211.556,691.662 216.753,685.736 221.95,679.768 227.147,673.765 232.344,667.74 237.541,661.699 242.738,655.65 247.936,649.606 253.133,643.573 258.33,637.561 
  263.527,631.575 268.724,625.626 273.921,619.722 279.118,613.871 284.315,608.082 289.512,602.36 294.709,596.714 299.906,591.151 305.103,585.679 310.301,580.302 
  315.498,575.029 320.695,569.867 325.892,564.818 331.089,559.891 336.286,555.092 341.483,550.423 346.68,545.89 351.877,541.498 357.074,537.253 362.271,533.16 
  367.469,529.226 372.666,525.453 377.863,521.839 383.06,518.393 388.257,515.119 393.454,512.022 398.651,509.105 403.848,506.373 409.045,503.824 414.242,501.46 
  419.439,499.287 424.636,497.306 429.834,495.52 435.031,493.931 440.228,492.542 445.425,491.35 450.622,490.358 455.819,489.569 461.016,488.982 466.213,488.598 
  471.41,488.418 476.607,488.442 481.804,488.669 487.002,489.099 492.199,489.732 497.396,490.568 502.593,491.604 507.79,492.841 512.987,494.277 518.184,495.911 
  523.381,497.742 528.578,499.766 533.775,501.982 538.972,504.389 544.17,506.983 549.367,509.763 554.564,512.726 559.761,515.868 564.958,519.188 570.155,522.68 
  575.352,526.343 580.549,530.174 585.746,534.168 590.943,538.323 596.14,542.633 601.337,547.095 606.535,551.704 611.732,556.458 616.929,561.352 622.126,566.383 
  627.323,571.545 632.52,576.833 637.717,582.243 642.914,587.77 648.111,593.414 653.308,599.168 658.505,605.027 663.703,610.986 668.9,617.042 674.097,623.188 
  679.294,629.423 684.491,635.748 689.688,642.154 694.885,648.639 700.082,655.198 705.279,661.827 710.476,668.523 715.673,675.283 720.87,682.101 726.068,688.975 
  731.265,694.65 736.462,699.566 741.659,704.512 746.856,709.483 752.053,714.472 757.25,719.471 762.447,724.473 767.644,729.472 772.841,734.46 778.038,739.431 
  783.236,744.378 788.433,749.293 793.63,754.169 798.827,759.001 804.024,763.784 809.221,768.51 814.418,773.173 819.615,777.764 824.812,782.281 830.009,786.722 
  835.206,791.076 840.403,795.339 845.601,799.504 850.798,803.566 855.995,807.528 861.192,811.379 866.389,815.115 871.586,818.73 876.783,822.22 881.98,825.589 
  887.177,828.826 892.374,831.929 897.571,834.892 902.769,837.712 907.966,840.393 913.163,842.928 918.36,845.312 923.557,847.542 928.754,849.615 933.951,851.536 
  939.148,853.299 944.345,854.9 949.542,856.337 954.739,857.608 959.936,858.717 965.134,859.661 970.331,860.436 975.528,861.042 980.725,861.476 985.922,861.743 
  991.119,861.842 996.316,861.771 1001.51,861.528 1006.71,861.112 1011.91,860.529 1017.1,859.779 1022.3,858.86 1027.5,857.773 1032.7,856.516 1037.89,855.095 
  1043.09,853.513 1048.29,851.767 1053.48,849.86 1058.68,847.791 1063.88,845.565 1069.08,843.186 1074.27,840.655 1079.47,837.971 1084.67,835.137 1089.86,832.157 
  1095.06,829.036 1100.26,825.776 1105.45,822.377 1110.65,818.842 1115.85,815.174 1121.05,811.382 1126.24,807.464 1131.44,803.424 1136.64,799.265 1141.83,794.99 
  1147.03,790.606 1152.23,786.114 1157.43,781.518 1162.62,776.82 1167.82,772.025 1173.02,767.136 1178.21,762.158 1183.41,757.092 1188.61,751.944 1193.81,746.716 
  1199,741.409 1204.2,736.029 1209.4,730.578 1214.59,725.059 1219.79,719.477 1224.99,713.838 1230.19,708.146 1235.38,702.404 1240.58,696.615 1245.78,691.088 
  1250.97,687.247 1256.17,683.381 1261.37,679.493 1266.56,675.589 1271.76,671.672 1276.96,667.75 1282.16,663.824 1287.35,659.902 1292.55,655.99 1297.75,652.09 
  1302.94,648.213 1308.14,644.358 1313.34,640.531 1318.54,636.739 1323.73,632.986 1328.93,629.276 1334.13,625.614 1339.32,622.007 1344.52,618.457 1349.72,614.97 
  1354.92,611.548 1360.11,608.197 1365.31,604.921 1370.51,601.724 1375.7,598.611 1380.9,595.582 1386.1,592.643 1391.29,589.797 1396.49,587.05 1401.69,584.401 
  1406.89,581.854 1412.08,579.414 1417.28,577.083 1422.48,574.864 1427.67,572.756 1432.87,570.765 1438.07,568.893 1443.27,567.142 1448.46,565.513 1453.66,564.005 
  1458.86,562.622 1464.05,561.367 1469.25,560.24 1474.45,559.245 1479.65,558.383 1484.84,557.656 1490.04,557.057 1495.24,556.591 1500.43,556.259 1505.63,556.063 
  1510.83,556.003 1516.02,556.08 1521.22,556.296 1526.42,556.648 1531.62,557.132 1536.81,557.751 1542.01,558.506 1547.21,559.395 1552.4,560.418 1557.6,561.573 
  1562.8,562.862 1568,564.28 1573.19,565.829 1578.39,567.505 1583.59,569.308 1588.78,571.236 1593.98,573.288 1599.18,575.461 1604.38,577.753 1609.57,580.164 
  1614.77,582.691 1619.97,585.331 1625.16,588.082 1630.36,590.943 1635.56,593.908 1640.75,596.978 1645.95,600.148 1651.15,603.419 1656.35,606.786 1661.54,610.248 
  1666.74,613.799 1671.94,617.438 1677.13,621.162 1682.33,624.966 1687.53,628.851 1692.73,632.816 1697.92,636.855 1703.12,640.966 1708.32,645.144 1713.51,649.388 
  1718.71,653.695 1723.91,658.06 1729.11,662.482 1734.3,666.958 1739.5,671.485 1744.7,676.058 1749.89,680.675 1755.09,685.333 1760.29,690.029 1765.49,693.428 
  1770.68,696.142 1775.88,698.873 1781.08,701.618 1786.27,704.375 1791.47,707.139 1796.67,709.91 1801.86,712.681 1807.06,715.45 1812.26,718.213 1817.46,720.968 
  1822.65,723.71 1827.85,726.437 1833.05,729.146 1838.24,731.831 1843.44,734.49 1848.64,737.12 1853.84,739.717 1859.03,742.278 1864.23,744.8 1869.43,747.28 
  1874.62,749.716 1879.82,752.103 1885.02,754.437 1890.22,756.717 1895.41,758.939 1900.61,761.105 1905.81,763.209 1911,765.247 1916.2,767.217 1921.4,769.116 
  1926.59,770.942 1931.79,772.698 1936.99,774.378 1942.19,775.979 1947.38,777.499 1952.58,778.936 1957.78,780.286 1962.97,781.557 1968.17,782.741 1973.37,783.836 
  1978.57,784.84 1983.76,785.752 1988.96,786.569 1994.16,787.298 1999.35,787.933 2004.55,788.474 2009.75,788.917 2014.95,789.263 2020.14,789.509 2025.34,789.662 
  2030.54,789.718 2035.73,789.677 2040.93,789.536 2046.13,789.296 2051.32,788.955 2056.52,788.518 2061.72,787.987 2066.92,787.358 2072.11,786.63 2077.31,785.805 
  2082.51,784.882 2087.7,783.864 2092.9,782.755 2098.1,781.553 2103.3,780.257 2108.49,778.868 2113.69,777.386 2118.89,775.814 2124.08,774.159 2129.28,772.416 
  2134.48,770.587 2139.68,768.673 2144.87,766.674 2150.07,764.593 2155.27,762.437 2160.46,760.203 2165.66,757.892 2170.86,755.507 2176.05,753.047 2181.25,750.516 
  2186.45,747.918 2191.65,745.254 2196.84,742.525 2202.04,739.732 2207.24,736.877 2212.43,733.962 2217.63,730.991 2222.83,727.965 2228.03,724.886 2233.22,721.756 
  2238.42,718.576 2243.62,715.348 2248.81,712.075 2254.01,708.757 2259.21,705.398 2264.41,701.998 2269.6,698.561 2274.8,695.087 2280,691.633 2285.19,690.183 
  2290.39,688.722 
  "/>
<polyline clip-path="url(#clip392)" style="stroke:#3da44d; stroke-linecap:round; stroke-linejoin:round; stroke-width:4; stroke-opacity:1; fill:none" points="
  211.556,101.686 216.753,96.6121 221.95,92.5599 227.147,89.5093 232.344,87.4464 237.541,86.3455 242.738,86.1857 247.936,86.9467 253.133,88.6024 258.33,91.1309 
  263.527,94.5079 268.724,98.7107 273.921,103.718 279.118,109.504 284.315,116.05 289.512,123.327 294.709,131.317 299.906,140.003 305.103,149.36 310.301,159.363 
  315.498,169.999 320.695,181.249 325.892,193.082 331.089,205.487 336.286,218.446 341.483,231.93 346.68,245.919 351.877,260.397 357.074,275.347 362.271,290.753 
  367.469,306.596 372.666,322.857 377.863,339.497 383.06,356.512 388.257,373.883 393.454,391.592 398.651,409.62 403.848,427.95 409.045,446.554 414.242,465.409 
  419.439,484.502 424.636,503.81 429.834,523.315 435.031,542.994 440.228,562.828 445.425,582.797 450.622,602.88 455.819,623.054 461.016,643.299 466.213,663.593 
  471.41,683.913 476.607,704.244 481.804,724.569 487.002,744.863 492.199,765.104 497.396,785.271 502.593,805.343 507.79,825.3 512.987,845.135 518.184,864.82 
  523.381,884.335 528.578,903.662 533.775,922.782 538.972,941.675 544.17,960.327 549.367,978.727 554.564,996.851 559.761,1014.68 564.958,1032.21 570.155,1049.41 
  575.352,1066.28 580.549,1082.8 585.746,1098.96 590.943,1114.75 596.14,1130.15 601.337,1145.15 606.535,1159.74 611.732,1173.92 616.929,1187.68 622.126,1201.02 
  627.323,1213.92 632.52,1226.38 637.717,1238.4 642.914,1249.98 648.111,1261.13 653.308,1271.84 658.505,1282.12 663.703,1291.98 668.9,1301.42 674.097,1310.47 
  679.294,1319.12 684.491,1327.42 689.688,1335.37 694.885,1343 700.082,1350.35 705.279,1357.45 710.476,1364.33 715.673,1371.06 720.87,1377.67 726.068,1384.24 
  731.265,1181.2 736.462,1184.94 741.659,1187.9 746.856,1190.1 752.053,1191.54 757.25,1192.23 762.447,1192.19 767.644,1191.41 772.841,1189.92 778.038,1187.74 
  783.236,1184.87 788.433,1181.32 793.63,1177.13 798.827,1172.29 804.024,1166.84 809.221,1160.79 814.418,1154.14 819.615,1146.91 824.812,1139.13 830.009,1130.81 
  835.206,1121.96 840.403,1112.6 845.601,1102.74 850.798,1092.39 855.995,1081.6 861.192,1070.36 866.389,1058.68 871.586,1046.58 876.783,1034.08 881.98,1021.21 
  887.177,1007.97 892.374,994.384 897.571,980.457 902.769,966.207 907.966,951.671 913.163,936.852 918.36,921.766 923.557,906.427 928.754,890.851 933.951,875.069 
  939.148,859.091 944.345,842.931 949.542,826.606 954.739,810.131 959.936,793.533 965.134,776.825 970.331,760.022 975.528,743.142 980.725,726.199 985.922,709.217 
  991.119,692.211 996.316,675.197 1001.51,658.191 1006.71,641.211 1011.91,624.273 1017.1,607.394 1022.3,590.592 1027.5,573.881 1032.7,557.279 1037.89,540.8 
  1043.09,524.459 1048.29,508.272 1053.48,492.256 1058.68,476.425 1063.88,460.793 1069.08,445.369 1074.27,430.172 1079.47,415.215 1084.67,400.511 1089.86,386.071 
  1095.06,371.902 1100.26,358.018 1105.45,344.433 1110.65,331.157 1115.85,318.198 1121.05,305.555 1126.24,293.244 1131.44,281.271 1136.64,269.646 1141.83,258.373 
  1147.03,247.442 1152.23,236.866 1157.43,226.648 1162.62,216.791 1167.82,207.294 1173.02,198.14 1178.21,189.334 1183.41,180.874 1188.61,172.753 1193.81,164.964 
  1199,157.48 1204.2,150.296 1209.4,143.398 1214.59,136.768 1219.79,130.388 1224.99,124.223 1230.19,118.248 1235.38,112.437 1240.58,106.758 1245.78,309.705 
  1250.97,306.509 1256.17,303.833 1261.37,301.703 1266.56,300.132 1271.76,299.112 1276.96,298.647 1282.16,298.727 1287.35,299.351 1292.55,300.51 1297.75,302.199 
  1302.94,304.409 1308.14,307.132 1313.34,310.361 1318.54,314.083 1323.73,318.293 1328.93,322.979 1334.13,328.129 1339.32,333.736 1344.52,339.786 1349.72,346.269 
  1354.92,353.171 1360.11,360.478 1365.31,368.184 1370.51,376.276 1375.7,384.745 1380.9,393.566 1386.1,402.736 1391.29,412.244 1396.49,422.08 1401.69,432.223 
  1406.89,442.66 1412.08,453.382 1417.28,464.378 1422.48,475.637 1427.67,487.132 1432.87,498.859 1438.07,510.806 1443.27,522.959 1448.46,535.302 1453.66,547.815 
  1458.86,560.491 1464.05,573.316 1469.25,586.277 1474.45,599.361 1479.65,612.555 1484.84,625.848 1490.04,639.215 1495.24,652.647 1500.43,666.133 1505.63,679.659 
  1510.83,693.211 1516.02,706.777 1521.22,720.343 1526.42,733.895 1531.62,747.419 1536.81,760.903 1542.01,774.333 1547.21,787.696 1552.4,800.979 1557.6,814.169 
  1562.8,827.252 1568,840.22 1573.19,853.065 1578.39,865.77 1583.59,878.323 1588.78,890.713 1593.98,902.928 1599.18,914.957 1604.38,926.789 1609.57,938.426 
  1614.77,949.853 1619.97,961.06 1625.16,972.038 1630.36,982.778 1635.56,993.274 1640.75,1003.52 1645.95,1013.5 1651.15,1023.23 1656.35,1032.7 1661.54,1041.9 
  1666.74,1050.82 1671.94,1059.47 1677.13,1067.84 1682.33,1075.93 1687.53,1083.74 1692.73,1091.28 1697.92,1098.55 1703.12,1105.55 1708.32,1112.28 1713.51,1118.75 
  1718.71,1124.96 1723.91,1130.93 1729.11,1136.67 1734.3,1142.18 1739.5,1147.48 1744.7,1152.57 1749.89,1157.49 1755.09,1162.24 1760.29,1166.84 1765.49,961.706 
  1770.68,963.803 1775.88,965.56 1781.08,966.979 1786.27,968.042 1791.47,968.747 1796.67,969.094 1801.86,969.08 1807.06,968.706 1812.26,967.974 1817.46,966.886 
  1822.65,965.446 1827.85,963.655 1833.05,961.517 1838.24,959.038 1843.44,956.219 1848.64,953.067 1853.84,949.588 1859.03,945.786 1864.23,941.671 1869.43,937.253 
  1874.62,932.534 1879.82,927.519 1885.02,922.214 1890.22,916.623 1895.41,910.76 1900.61,904.646 1905.81,898.274 1911,891.652 1916.2,884.785 1921.4,877.681 
  1926.59,870.35 1931.79,862.821 1936.99,855.087 1942.19,847.155 1947.38,839.033 1952.58,830.729 1957.78,822.251 1962.97,813.63 1968.17,804.86 1973.37,795.951 
  1978.57,786.91 1983.76,777.746 1988.96,768.469 1994.16,759.1 1999.35,749.644 2004.55,740.108 2009.75,730.501 2014.95,720.832 2020.14,711.11 2025.34,701.352 
  2030.54,691.567 2035.73,681.761 2040.93,671.944 2046.13,662.125 2051.32,652.314 2056.52,642.521 2061.72,632.758 2066.92,623.032 2072.11,613.352 2077.31,603.727 
  2082.51,594.165 2087.7,584.676 2092.9,575.268 2098.1,565.949 2103.3,556.728 2108.49,547.613 2113.69,538.612 2118.89,529.732 2124.08,520.977 2129.28,512.356 
  2134.48,503.878 2139.68,495.548 2144.87,487.374 2150.07,479.362 2155.27,471.508 2160.46,463.824 2165.66,456.315 2170.86,448.987 2176.05,441.844 2181.25,434.891 
  2186.45,428.119 2191.65,421.539 2196.84,415.154 2202.04,408.966 2207.24,402.978 2212.43,397.192 2217.63,391.597 2222.83,386.196 2228.03,380.993 2233.22,375.987 
  2238.42,371.176 2243.62,366.56 2248.81,362.126 2254.01,357.869 2259.21,353.789 2264.41,349.884 2269.6,346.147 2274.8,342.573 2280,547.431 2285.19,546.162 
  2290.39,545.048 
  "/>
<polyline clip-path="url(#clip392)" style="stroke:#c271d2; stroke-linecap:round; stroke-linejoin:round; stroke-width:4; stroke-opacity:1; fill:none" points="
  211.556,587.549 216.753,592.933 221.95,597.885 227.147,602.429 232.344,606.587 237.541,610.384 242.738,613.844 247.936,616.987 253.133,619.838 258.33,622.418 
  263.527,624.749 268.724,626.85 273.921,628.741 279.118,630.438 284.315,631.96 289.512,633.321 294.709,634.537 299.906,635.62 305.103,636.583 310.301,637.438 
  315.498,638.195 320.695,638.863 325.892,639.453 331.089,639.972 336.286,640.426 341.483,640.824 346.68,641.171 351.877,641.473 357.074,641.734 362.271,641.959 
  367.469,642.152 372.666,642.317 377.863,642.457 383.06,642.576 388.257,642.676 393.454,642.759 398.651,642.828 403.848,642.884 409.045,642.93 414.242,642.967 
  419.439,642.997 424.636,643.02 429.834,643.038 435.031,643.051 440.228,643.061 445.425,643.069 450.622,643.074 455.819,643.078 461.016,643.08 466.213,643.082 
  471.41,643.083 476.607,643.082 481.804,643.082 487.002,643.08 492.199,643.077 497.396,643.073 502.593,643.067 507.79,643.059 512.987,643.048 518.184,643.034 
  523.381,643.015 528.578,642.99 533.775,642.959 538.972,642.92 544.17,642.872 549.367,642.813 554.564,642.741 559.761,642.654 564.958,642.55 570.155,642.426 
  575.352,642.279 580.549,642.107 585.746,641.905 590.943,641.67 596.14,641.398 601.337,641.082 606.535,640.719 611.732,640.302 616.929,639.824 622.126,639.277 
  627.323,638.654 632.52,637.944 637.717,637.139 642.914,636.226 648.111,635.192 653.308,634.023 658.505,632.704 663.703,631.216 668.9,629.539 674.097,627.653 
  679.294,625.533 684.491,623.148 689.688,620.469 694.885,617.463 700.082,614.09 705.279,610.308 710.476,606.069 715.673,601.32 720.87,596.002 726.068,590.05 
  731.265,793 736.462,788.701 741.659,784.687 746.856,780.95 752.053,777.475 757.25,774.253 762.447,771.27 767.644,768.514 772.841,765.971 778.038,763.631 
  783.236,761.479 788.433,759.505 793.63,757.696 798.827,756.041 804.024,754.528 809.221,753.148 814.418,751.891 819.615,750.747 824.812,749.708 830.009,748.765 
  835.206,747.909 840.403,747.135 845.601,746.436 850.798,745.805 855.995,745.235 861.192,744.722 866.389,744.26 871.586,743.846 876.783,743.475 881.98,743.142 
  887.177,742.845 892.374,742.579 897.571,742.343 902.769,742.133 907.966,741.946 913.163,741.781 918.36,741.635 923.557,741.507 928.754,741.394 933.951,741.296 
  939.148,741.21 944.345,741.136 949.542,741.072 954.739,741.018 959.936,740.973 965.134,740.936 970.331,740.906 975.528,740.883 980.725,740.867 985.922,740.858 
  991.119,740.854 996.316,740.857 1001.51,740.865 1006.71,740.881 1011.91,740.903 1017.1,740.931 1022.3,740.967 1027.5,741.012 1032.7,741.065 1037.89,741.127 
  1043.09,741.2 1048.29,741.284 1053.48,741.381 1058.68,741.493 1063.88,741.62 1069.08,741.765 1074.27,741.929 1079.47,742.114 1084.67,742.324 1089.86,742.561 
  1095.06,742.826 1100.26,743.124 1105.45,743.459 1110.65,743.834 1115.85,744.253 1121.05,744.721 1126.24,745.244 1131.44,745.826 1136.64,746.474 1141.83,747.196 
  1147.03,747.998 1152.23,748.889 1157.43,749.878 1162.62,750.975 1167.82,752.191 1173.02,753.538 1178.21,755.029 1183.41,756.679 1188.61,758.503 1193.81,760.52 
  1199,762.75 1204.2,765.213 1209.4,767.933 1214.59,770.935 1219.79,774.249 1224.99,777.902 1230.19,781.927 1235.38,786.361 1240.58,791.243 1245.78,588.092 
  1250.97,591.606 1256.17,594.941 1261.37,598.102 1266.56,601.092 1271.76,603.918 1276.96,606.581 1282.16,609.089 1287.35,611.446 1292.55,613.658 1297.75,615.731 
  1302.94,617.67 1308.14,619.482 1313.34,621.174 1318.54,622.751 1323.73,624.22 1328.93,625.585 1334.13,626.854 1339.32,628.031 1344.52,629.122 1349.72,630.132 
  1354.92,631.067 1360.11,631.931 1365.31,632.729 1370.51,633.464 1375.7,634.142 1380.9,634.766 1386.1,635.34 1391.29,635.867 1396.49,636.351 1401.69,636.794 
  1406.89,637.2 1412.08,637.571 1417.28,637.909 1422.48,638.217 1427.67,638.498 1432.87,638.752 1438.07,638.982 1443.27,639.189 1448.46,639.376 1453.66,639.543 
  1458.86,639.691 1464.05,639.822 1469.25,639.937 1474.45,640.036 1479.65,640.12 1484.84,640.189 1490.04,640.246 1495.24,640.29 1500.43,640.32 1505.63,640.338 
  1510.83,640.344 1516.02,640.337 1521.22,640.317 1526.42,640.284 1531.62,640.239 1536.81,640.18 1542.01,640.108 1547.21,640.021 1552.4,639.919 1557.6,639.801 
  1562.8,639.666 1568,639.512 1573.19,639.34 1578.39,639.147 1583.59,638.932 1588.78,638.693 1593.98,638.428 1599.18,638.136 1604.38,637.813 1609.57,637.459 
  1614.77,637.069 1619.97,636.641 1625.16,636.172 1630.36,635.658 1635.56,635.097 1640.75,634.483 1645.95,633.812 1651.15,633.08 1656.35,632.28 1661.54,631.408 
  1666.74,630.458 1671.94,629.424 1677.13,628.297 1682.33,627.071 1687.53,625.736 1692.73,624.284 1697.92,622.704 1703.12,620.987 1708.32,619.122 1713.51,617.095 
  1718.71,614.894 1723.91,612.505 1729.11,609.912 1734.3,607.099 1739.5,604.049 1744.7,600.743 1749.89,597.161 1755.09,593.281 1760.29,589.081 1765.49,794.121 
  1770.68,791.661 1775.88,789.287 1781.08,786.999 1786.27,784.795 1791.47,782.676 1796.67,780.642 1801.86,778.691 1807.06,776.825 1812.26,775.04 1817.46,773.335 
  1822.65,771.71 1827.85,770.161 1833.05,768.687 1838.24,767.286 1843.44,765.957 1848.64,764.696 1853.84,763.501 1859.03,762.371 1864.23,761.303 1869.43,760.294 
  1874.62,759.342 1879.82,758.445 1885.02,757.6 1890.22,756.806 1895.41,756.061 1900.61,755.36 1905.81,754.703 1911,754.089 1916.2,753.515 1921.4,752.979 
  1926.59,752.48 1931.79,752.014 1936.99,751.582 1942.19,751.181 1947.38,750.811 1952.58,750.47 1957.78,750.157 1962.97,749.869 1968.17,749.607 1973.37,749.369 
  1978.57,749.155 1983.76,748.964 1988.96,748.796 1994.16,748.648 1999.35,748.52 2004.55,748.412 2009.75,748.325 2014.95,748.257 2020.14,748.209 2025.34,748.18 
  2030.54,748.169 2035.73,748.177 2040.93,748.204 2046.13,748.251 2051.32,748.317 2056.52,748.403 2061.72,748.509 2066.92,748.635 2072.11,748.783 2077.31,748.953 
  2082.51,749.146 2087.7,749.363 2092.9,749.604 2098.1,749.87 2103.3,750.164 2108.49,750.486 2113.69,750.838 2118.89,751.222 2124.08,751.637 2129.28,752.088 
  2134.48,752.576 2139.68,753.102 2144.87,753.671 2150.07,754.284 2155.27,754.942 2160.46,755.649 2165.66,756.409 2170.86,757.224 2176.05,758.099 2181.25,759.037 
  2186.45,760.041 2191.65,761.115 2196.84,762.265 2202.04,763.495 2207.24,764.81 2212.43,766.216 2217.63,767.718 2222.83,769.322 2228.03,771.034 2233.22,772.861 
  2238.42,774.812 2243.62,776.892 2248.81,779.111 2254.01,781.478 2259.21,784 2264.41,786.689 2269.6,789.553 2274.8,792.605 2280,587.576 2285.19,588.938 
  2290.39,590.28 
  "/>
<path clip-path="url(#clip390)" d="
M1415.15 1377.32 L2279.3 1377.32 L2279.3 1118.12 L1415.15 1118.12  Z
  " fill="#ffffff" fill-rule="evenodd" fill-opacity="1"/>
<polyline clip-path="url(#clip390)" style="stroke:#000000; stroke-linecap:round; stroke-linejoin:round; stroke-width:4; stroke-opacity:1; fill:none" points="
  1415.15,1377.32 2279.3,1377.32 2279.3,1118.12 1415.15,1118.12 1415.15,1377.32 
  "/>
<polyline clip-path="url(#clip390)" style="stroke:#009af9; stroke-linecap:round; stroke-linejoin:round; stroke-width:4; stroke-opacity:1; fill:none" points="
  1439.64,1169.96 1586.54,1169.96 
  "/>
<path clip-path="url(#clip390)" d="M1631.37 1166.29 Q1632.97 1163.42 1635.19 1162.05 Q1637.42 1160.68 1640.42 1160.68 Q1644.48 1160.68 1646.67 1163.53 Q1648.87 1166.36 1648.87 1171.59 L1648.87 1187.24 L1644.59 1187.24 L1644.59 1171.73 Q1644.59 1168 1643.27 1166.19 Q1641.95 1164.39 1639.24 1164.39 Q1635.93 1164.39 1634.01 1166.59 Q1632.09 1168.79 1632.09 1172.58 L1632.09 1187.24 L1627.81 1187.24 L1627.81 1171.73 Q1627.81 1167.98 1626.49 1166.19 Q1625.17 1164.39 1622.42 1164.39 Q1619.15 1164.39 1617.23 1166.61 Q1615.31 1168.81 1615.31 1172.58 L1615.31 1187.24 L1611.03 1187.24 L1611.03 1161.31 L1615.31 1161.31 L1615.31 1165.34 Q1616.77 1162.95 1618.8 1161.82 Q1620.84 1160.68 1623.64 1160.68 Q1626.47 1160.68 1628.43 1162.12 Q1630.42 1163.55 1631.37 1166.29 Z" fill="#000000" fill-rule="evenodd" fill-opacity="1" /><path clip-path="url(#clip390)" d="M1669.15 1174.2 Q1663.99 1174.2 1662 1175.38 Q1660.01 1176.56 1660.01 1179.41 Q1660.01 1181.68 1661.49 1183.02 Q1662.99 1184.34 1665.56 1184.34 Q1669.11 1184.34 1671.23 1181.84 Q1673.39 1179.32 1673.39 1175.15 L1673.39 1174.2 L1669.15 1174.2 M1677.65 1172.44 L1677.65 1187.24 L1673.39 1187.24 L1673.39 1183.3 Q1671.93 1185.66 1669.75 1186.8 Q1667.58 1187.91 1664.43 1187.91 Q1660.45 1187.91 1658.09 1185.68 Q1655.75 1183.44 1655.75 1179.69 Q1655.75 1175.31 1658.67 1173.09 Q1661.61 1170.87 1667.42 1170.87 L1673.39 1170.87 L1673.39 1170.45 Q1673.39 1167.51 1671.44 1165.92 Q1669.52 1164.3 1666.03 1164.3 Q1663.8 1164.3 1661.7 1164.83 Q1659.59 1165.36 1657.65 1166.43 L1657.65 1162.49 Q1659.98 1161.59 1662.18 1161.15 Q1664.38 1160.68 1666.47 1160.68 Q1672.09 1160.68 1674.87 1163.6 Q1677.65 1166.52 1677.65 1172.44 Z" fill="#000000" fill-rule="evenodd" fill-opacity="1" /><path clip-path="url(#clip390)" d="M1702.95 1162.07 L1702.95 1166.1 Q1701.14 1165.18 1699.2 1164.71 Q1697.25 1164.25 1695.17 1164.25 Q1692 1164.25 1690.4 1165.22 Q1688.83 1166.19 1688.83 1168.14 Q1688.83 1169.62 1689.96 1170.48 Q1691.1 1171.31 1694.52 1172.07 L1695.98 1172.4 Q1700.52 1173.37 1702.42 1175.15 Q1704.34 1176.91 1704.34 1180.08 Q1704.34 1183.69 1701.47 1185.8 Q1698.62 1187.91 1693.62 1187.91 Q1691.54 1187.91 1689.27 1187.49 Q1687.02 1187.1 1684.52 1186.29 L1684.52 1181.89 Q1686.88 1183.11 1689.17 1183.74 Q1691.47 1184.34 1693.71 1184.34 Q1696.72 1184.34 1698.34 1183.32 Q1699.96 1182.28 1699.96 1180.41 Q1699.96 1178.67 1698.78 1177.74 Q1697.62 1176.82 1693.67 1175.96 L1692.18 1175.62 Q1688.23 1174.78 1686.47 1173.07 Q1684.71 1171.33 1684.71 1168.32 Q1684.71 1164.67 1687.3 1162.68 Q1689.89 1160.68 1694.66 1160.68 Q1697.02 1160.68 1699.11 1161.03 Q1701.19 1161.38 1702.95 1162.07 Z" fill="#000000" fill-rule="evenodd" fill-opacity="1" /><path clip-path="url(#clip390)" d="M1727.65 1162.07 L1727.65 1166.1 Q1725.84 1165.18 1723.9 1164.71 Q1721.95 1164.25 1719.87 1164.25 Q1716.7 1164.25 1715.1 1165.22 Q1713.53 1166.19 1713.53 1168.14 Q1713.53 1169.62 1714.66 1170.48 Q1715.79 1171.31 1719.22 1172.07 L1720.68 1172.4 Q1725.22 1173.37 1727.11 1175.15 Q1729.04 1176.91 1729.04 1180.08 Q1729.04 1183.69 1726.17 1185.8 Q1723.32 1187.91 1718.32 1187.91 Q1716.23 1187.91 1713.97 1187.49 Q1711.72 1187.1 1709.22 1186.29 L1709.22 1181.89 Q1711.58 1183.11 1713.87 1183.74 Q1716.17 1184.34 1718.41 1184.34 Q1721.42 1184.34 1723.04 1183.32 Q1724.66 1182.28 1724.66 1180.41 Q1724.66 1178.67 1723.48 1177.74 Q1722.32 1176.82 1718.36 1175.96 L1716.88 1175.62 Q1712.92 1174.78 1711.17 1173.07 Q1709.41 1171.33 1709.41 1168.32 Q1709.41 1164.67 1712 1162.68 Q1714.59 1160.68 1719.36 1160.68 Q1721.72 1160.68 1723.8 1161.03 Q1725.89 1161.38 1727.65 1162.07 Z" fill="#000000" fill-rule="evenodd" fill-opacity="1" /><path clip-path="url(#clip390)" d="M1736.42 1181.36 L1741.3 1181.36 L1741.3 1187.24 L1736.42 1187.24 L1736.42 1181.36 Z" fill="#000000" fill-rule="evenodd" fill-opacity="1" /><path clip-path="url(#clip390)" d="M1767.41 1162.07 L1767.41 1166.1 Q1765.61 1165.18 1763.66 1164.71 Q1761.72 1164.25 1759.64 1164.25 Q1756.47 1164.25 1754.87 1165.22 Q1753.29 1166.19 1753.29 1168.14 Q1753.29 1169.62 1754.43 1170.48 Q1755.56 1171.31 1758.99 1172.07 L1760.45 1172.4 Q1764.98 1173.37 1766.88 1175.15 Q1768.8 1176.91 1768.8 1180.08 Q1768.8 1183.69 1765.93 1185.8 Q1763.09 1187.91 1758.09 1187.91 Q1756 1187.91 1753.73 1187.49 Q1751.49 1187.1 1748.99 1186.29 L1748.99 1181.89 Q1751.35 1183.11 1753.64 1183.74 Q1755.93 1184.34 1758.18 1184.34 Q1761.19 1184.34 1762.81 1183.32 Q1764.43 1182.28 1764.43 1180.41 Q1764.43 1178.67 1763.25 1177.74 Q1762.09 1176.82 1758.13 1175.96 L1756.65 1175.62 Q1752.69 1174.78 1750.93 1173.07 Q1749.17 1171.33 1749.17 1168.32 Q1749.17 1164.67 1751.77 1162.68 Q1754.36 1160.68 1759.13 1160.68 Q1761.49 1160.68 1763.57 1161.03 Q1765.66 1161.38 1767.41 1162.07 Z" fill="#000000" fill-rule="evenodd" fill-opacity="1" /><path clip-path="url(#clip390)" d="M1800.89 1151.26 Q1797.79 1156.59 1796.28 1161.8 Q1794.78 1167 1794.78 1172.35 Q1794.78 1177.7 1796.28 1182.95 Q1797.81 1188.18 1800.89 1193.49 L1797.18 1193.49 Q1793.71 1188.05 1791.97 1182.79 Q1790.26 1177.54 1790.26 1172.35 Q1790.26 1167.19 1791.97 1161.96 Q1793.69 1156.73 1797.18 1151.26 L1800.89 1151.26 Z" fill="#000000" fill-rule="evenodd" fill-opacity="1" /><path clip-path="url(#clip390)" d="M1823.92 1168.6 Q1827.28 1169.32 1829.15 1171.59 Q1831.05 1173.86 1831.05 1177.19 Q1831.05 1182.3 1827.53 1185.11 Q1824.01 1187.91 1817.53 1187.91 Q1815.35 1187.91 1813.04 1187.47 Q1810.75 1187.05 1808.29 1186.19 L1808.29 1181.68 Q1810.24 1182.81 1812.55 1183.39 Q1814.87 1183.97 1817.39 1183.97 Q1821.79 1183.97 1824.08 1182.24 Q1826.4 1180.5 1826.4 1177.19 Q1826.4 1174.13 1824.24 1172.42 Q1822.11 1170.68 1818.29 1170.68 L1814.27 1170.68 L1814.27 1166.84 L1818.48 1166.84 Q1821.93 1166.84 1823.76 1165.48 Q1825.59 1164.09 1825.59 1161.49 Q1825.59 1158.83 1823.69 1157.42 Q1821.81 1155.99 1818.29 1155.99 Q1816.37 1155.99 1814.17 1156.4 Q1811.97 1156.82 1809.34 1157.7 L1809.34 1153.53 Q1812 1152.79 1814.31 1152.42 Q1816.65 1152.05 1818.71 1152.05 Q1824.03 1152.05 1827.14 1154.48 Q1830.24 1156.89 1830.24 1161.01 Q1830.24 1163.88 1828.6 1165.87 Q1826.95 1167.84 1823.92 1168.6 Z" fill="#000000" fill-rule="evenodd" fill-opacity="1" /><path clip-path="url(#clip390)" d="M1854.08 1168.6 Q1857.44 1169.32 1859.31 1171.59 Q1861.21 1173.86 1861.21 1177.19 Q1861.21 1182.3 1857.69 1185.11 Q1854.17 1187.91 1847.69 1187.91 Q1845.52 1187.91 1843.2 1187.47 Q1840.91 1187.05 1838.46 1186.19 L1838.46 1181.68 Q1840.4 1182.81 1842.72 1183.39 Q1845.03 1183.97 1847.55 1183.97 Q1851.95 1183.97 1854.24 1182.24 Q1856.56 1180.5 1856.56 1177.19 Q1856.56 1174.13 1854.41 1172.42 Q1852.28 1170.68 1848.46 1170.68 L1844.43 1170.68 L1844.43 1166.84 L1848.64 1166.84 Q1852.09 1166.84 1853.92 1165.48 Q1855.75 1164.09 1855.75 1161.49 Q1855.75 1158.83 1853.85 1157.42 Q1851.97 1155.99 1848.46 1155.99 Q1846.53 1155.99 1844.34 1156.4 Q1842.14 1156.82 1839.5 1157.7 L1839.5 1153.53 Q1842.16 1152.79 1844.47 1152.42 Q1846.81 1152.05 1848.87 1152.05 Q1854.2 1152.05 1857.3 1154.48 Q1860.4 1156.89 1860.4 1161.01 Q1860.4 1163.88 1858.76 1165.87 Q1857.11 1167.84 1854.08 1168.6 Z" fill="#000000" fill-rule="evenodd" fill-opacity="1" /><path clip-path="url(#clip390)" d="M1870.12 1152.68 L1888.48 1152.68 L1888.48 1156.61 L1874.41 1156.61 L1874.41 1165.08 Q1875.42 1164.74 1876.44 1164.57 Q1877.46 1164.39 1878.48 1164.39 Q1884.27 1164.39 1887.65 1167.56 Q1891.03 1170.73 1891.03 1176.15 Q1891.03 1181.73 1887.55 1184.83 Q1884.08 1187.91 1877.76 1187.91 Q1875.59 1187.91 1873.32 1187.54 Q1871.07 1187.17 1868.66 1186.43 L1868.66 1181.73 Q1870.75 1182.86 1872.97 1183.42 Q1875.19 1183.97 1877.67 1183.97 Q1881.67 1183.97 1884.01 1181.86 Q1886.35 1179.76 1886.35 1176.15 Q1886.35 1172.54 1884.01 1170.43 Q1881.67 1168.32 1877.67 1168.32 Q1875.79 1168.32 1873.92 1168.74 Q1872.07 1169.16 1870.12 1170.04 L1870.12 1152.68 Z" fill="#000000" fill-rule="evenodd" fill-opacity="1" /><path clip-path="url(#clip390)" d="M1900.28 1152.68 L1918.64 1152.68 L1918.64 1156.61 L1904.57 1156.61 L1904.57 1165.08 Q1905.59 1164.74 1906.6 1164.57 Q1907.62 1164.39 1908.64 1164.39 Q1914.43 1164.39 1917.81 1167.56 Q1921.19 1170.73 1921.19 1176.15 Q1921.19 1181.73 1917.72 1184.83 Q1914.24 1187.91 1907.92 1187.91 Q1905.75 1187.91 1903.48 1187.54 Q1901.23 1187.17 1898.83 1186.43 L1898.83 1181.73 Q1900.91 1182.86 1903.13 1183.42 Q1905.35 1183.97 1907.83 1183.97 Q1911.84 1183.97 1914.17 1181.86 Q1916.51 1179.76 1916.51 1176.15 Q1916.51 1172.54 1914.17 1170.43 Q1911.84 1168.32 1907.83 1168.32 Q1905.96 1168.32 1904.08 1168.74 Q1902.23 1169.16 1900.28 1170.04 L1900.28 1152.68 Z" fill="#000000" fill-rule="evenodd" fill-opacity="1" /><path clip-path="url(#clip390)" d="M1943.25 1156.75 L1931.44 1175.2 L1943.25 1175.2 L1943.25 1156.75 M1942.02 1152.68 L1947.9 1152.68 L1947.9 1175.2 L1952.83 1175.2 L1952.83 1179.09 L1947.9 1179.09 L1947.9 1187.24 L1943.25 1187.24 L1943.25 1179.09 L1927.65 1179.09 L1927.65 1174.57 L1942.02 1152.68 Z" fill="#000000" fill-rule="evenodd" fill-opacity="1" /><path clip-path="url(#clip390)" d="M1973.41 1156.75 L1961.6 1175.2 L1973.41 1175.2 L1973.41 1156.75 M1972.18 1152.68 L1978.06 1152.68 L1978.06 1175.2 L1982.99 1175.2 L1982.99 1179.09 L1978.06 1179.09 L1978.06 1187.24 L1973.41 1187.24 L1973.41 1179.09 L1957.81 1179.09 L1957.81 1174.57 L1972.18 1152.68 Z" fill="#000000" fill-rule="evenodd" fill-opacity="1" /><path clip-path="url(#clip390)" d="M2004.89 1168.6 Q2008.25 1169.32 2010.12 1171.59 Q2012.02 1173.86 2012.02 1177.19 Q2012.02 1182.3 2008.5 1185.11 Q2004.98 1187.91 1998.5 1187.91 Q1996.33 1187.91 1994.01 1187.47 Q1991.72 1187.05 1989.27 1186.19 L1989.27 1181.68 Q1991.21 1182.81 1993.52 1183.39 Q1995.84 1183.97 1998.36 1183.97 Q2002.76 1183.97 2005.05 1182.24 Q2007.37 1180.5 2007.37 1177.19 Q2007.37 1174.13 2005.21 1172.42 Q2003.08 1170.68 1999.27 1170.68 L1995.24 1170.68 L1995.24 1166.84 L1999.45 1166.84 Q2002.9 1166.84 2004.73 1165.48 Q2006.56 1164.09 2006.56 1161.49 Q2006.56 1158.83 2004.66 1157.42 Q2002.78 1155.99 1999.27 1155.99 Q1997.34 1155.99 1995.15 1156.4 Q1992.95 1156.82 1990.31 1157.7 L1990.31 1153.53 Q1992.97 1152.79 1995.28 1152.42 Q1997.62 1152.05 1999.68 1152.05 Q2005.01 1152.05 2008.11 1154.48 Q2011.21 1156.89 2011.21 1161.01 Q2011.21 1163.88 2009.57 1165.87 Q2007.92 1167.84 2004.89 1168.6 Z" fill="#000000" fill-rule="evenodd" fill-opacity="1" /><path clip-path="url(#clip390)" d="M2024.91 1183.3 L2041.23 1183.3 L2041.23 1187.24 L2019.29 1187.24 L2019.29 1183.3 Q2021.95 1180.55 2026.53 1175.92 Q2031.14 1171.26 2032.32 1169.92 Q2034.57 1167.4 2035.45 1165.66 Q2036.35 1163.9 2036.35 1162.21 Q2036.35 1159.46 2034.4 1157.72 Q2032.48 1155.99 2029.38 1155.99 Q2027.18 1155.99 2024.73 1156.75 Q2022.3 1157.51 2019.52 1159.06 L2019.52 1154.34 Q2022.34 1153.21 2024.8 1152.63 Q2027.25 1152.05 2029.29 1152.05 Q2034.66 1152.05 2037.85 1154.74 Q2041.05 1157.42 2041.05 1161.91 Q2041.05 1164.04 2040.24 1165.96 Q2039.45 1167.86 2037.34 1170.45 Q2036.77 1171.12 2033.66 1174.34 Q2030.56 1177.54 2024.91 1183.3 Z" fill="#000000" fill-rule="evenodd" fill-opacity="1" /><path clip-path="url(#clip390)" d="M2049.77 1151.26 L2053.48 1151.26 Q2056.95 1156.73 2058.66 1161.96 Q2060.4 1167.19 2060.4 1172.35 Q2060.4 1177.54 2058.66 1182.79 Q2056.95 1188.05 2053.48 1193.49 L2049.77 1193.49 Q2052.85 1188.18 2054.36 1182.95 Q2055.89 1177.7 2055.89 1172.35 Q2055.89 1167 2054.36 1161.8 Q2052.85 1156.59 2049.77 1151.26 Z" fill="#000000" fill-rule="evenodd" fill-opacity="1" /><polyline clip-path="url(#clip390)" style="stroke:#e26f46; stroke-linecap:round; stroke-linejoin:round; stroke-width:4; stroke-opacity:1; fill:none" points="
  1439.64,1221.8 1586.54,1221.8 
  "/>
<path clip-path="url(#clip390)" d="M1631.37 1218.13 Q1632.97 1215.26 1635.19 1213.89 Q1637.42 1212.52 1640.42 1212.52 Q1644.48 1212.52 1646.67 1215.37 Q1648.87 1218.2 1648.87 1223.43 L1648.87 1239.08 L1644.59 1239.08 L1644.59 1223.57 Q1644.59 1219.84 1643.27 1218.03 Q1641.95 1216.23 1639.24 1216.23 Q1635.93 1216.23 1634.01 1218.43 Q1632.09 1220.63 1632.09 1224.42 L1632.09 1239.08 L1627.81 1239.08 L1627.81 1223.57 Q1627.81 1219.82 1626.49 1218.03 Q1625.17 1216.23 1622.42 1216.23 Q1619.15 1216.23 1617.23 1218.45 Q1615.31 1220.65 1615.31 1224.42 L1615.31 1239.08 L1611.03 1239.08 L1611.03 1213.15 L1615.31 1213.15 L1615.31 1217.18 Q1616.77 1214.79 1618.8 1213.66 Q1620.84 1212.52 1623.64 1212.52 Q1626.47 1212.52 1628.43 1213.96 Q1630.42 1215.39 1631.37 1218.13 Z" fill="#000000" fill-rule="evenodd" fill-opacity="1" /><path clip-path="url(#clip390)" d="M1669.15 1226.04 Q1663.99 1226.04 1662 1227.22 Q1660.01 1228.4 1660.01 1231.25 Q1660.01 1233.52 1661.49 1234.86 Q1662.99 1236.18 1665.56 1236.18 Q1669.11 1236.18 1671.23 1233.68 Q1673.39 1231.16 1673.39 1226.99 L1673.39 1226.04 L1669.15 1226.04 M1677.65 1224.28 L1677.65 1239.08 L1673.39 1239.08 L1673.39 1235.14 Q1671.93 1237.5 1669.75 1238.64 Q1667.58 1239.75 1664.43 1239.75 Q1660.45 1239.75 1658.09 1237.52 Q1655.75 1235.28 1655.75 1231.53 Q1655.75 1227.15 1658.67 1224.93 Q1661.61 1222.71 1667.42 1222.71 L1673.39 1222.71 L1673.39 1222.29 Q1673.39 1219.35 1671.44 1217.76 Q1669.52 1216.14 1666.03 1216.14 Q1663.8 1216.14 1661.7 1216.67 Q1659.59 1217.2 1657.65 1218.27 L1657.65 1214.33 Q1659.98 1213.43 1662.18 1212.99 Q1664.38 1212.52 1666.47 1212.52 Q1672.09 1212.52 1674.87 1215.44 Q1677.65 1218.36 1677.65 1224.28 Z" fill="#000000" fill-rule="evenodd" fill-opacity="1" /><path clip-path="url(#clip390)" d="M1702.95 1213.91 L1702.95 1217.94 Q1701.14 1217.02 1699.2 1216.55 Q1697.25 1216.09 1695.17 1216.09 Q1692 1216.09 1690.4 1217.06 Q1688.83 1218.03 1688.83 1219.98 Q1688.83 1221.46 1689.96 1222.32 Q1691.1 1223.15 1694.52 1223.91 L1695.98 1224.24 Q1700.52 1225.21 1702.42 1226.99 Q1704.34 1228.75 1704.34 1231.92 Q1704.34 1235.53 1701.47 1237.64 Q1698.62 1239.75 1693.62 1239.75 Q1691.54 1239.75 1689.27 1239.33 Q1687.02 1238.94 1684.52 1238.13 L1684.52 1233.73 Q1686.88 1234.95 1689.17 1235.58 Q1691.47 1236.18 1693.71 1236.18 Q1696.72 1236.18 1698.34 1235.16 Q1699.96 1234.12 1699.96 1232.25 Q1699.96 1230.51 1698.78 1229.58 Q1697.62 1228.66 1693.67 1227.8 L1692.18 1227.46 Q1688.23 1226.62 1686.47 1224.91 Q1684.71 1223.17 1684.71 1220.16 Q1684.71 1216.51 1687.3 1214.52 Q1689.89 1212.52 1694.66 1212.52 Q1697.02 1212.52 1699.11 1212.87 Q1701.19 1213.22 1702.95 1213.91 Z" fill="#000000" fill-rule="evenodd" fill-opacity="1" /><path clip-path="url(#clip390)" d="M1727.65 1213.91 L1727.65 1217.94 Q1725.84 1217.02 1723.9 1216.55 Q1721.95 1216.09 1719.87 1216.09 Q1716.7 1216.09 1715.1 1217.06 Q1713.53 1218.03 1713.53 1219.98 Q1713.53 1221.46 1714.66 1222.32 Q1715.79 1223.15 1719.22 1223.91 L1720.68 1224.24 Q1725.22 1225.21 1727.11 1226.99 Q1729.04 1228.75 1729.04 1231.92 Q1729.04 1235.53 1726.17 1237.64 Q1723.32 1239.75 1718.32 1239.75 Q1716.23 1239.75 1713.97 1239.33 Q1711.72 1238.94 1709.22 1238.13 L1709.22 1233.73 Q1711.58 1234.95 1713.87 1235.58 Q1716.17 1236.18 1718.41 1236.18 Q1721.42 1236.18 1723.04 1235.16 Q1724.66 1234.12 1724.66 1232.25 Q1724.66 1230.51 1723.48 1229.58 Q1722.32 1228.66 1718.36 1227.8 L1716.88 1227.46 Q1712.92 1226.62 1711.17 1224.91 Q1709.41 1223.17 1709.41 1220.16 Q1709.41 1216.51 1712 1214.52 Q1714.59 1212.52 1719.36 1212.52 Q1721.72 1212.52 1723.8 1212.87 Q1725.89 1213.22 1727.65 1213.91 Z" fill="#000000" fill-rule="evenodd" fill-opacity="1" /><path clip-path="url(#clip390)" d="M1736.42 1233.2 L1741.3 1233.2 L1741.3 1239.08 L1736.42 1239.08 L1736.42 1233.2 Z" fill="#000000" fill-rule="evenodd" fill-opacity="1" /><path clip-path="url(#clip390)" d="M1747.83 1213.15 L1752.35 1213.15 L1760.45 1234.91 L1768.55 1213.15 L1773.06 1213.15 L1763.34 1239.08 L1757.55 1239.08 L1747.83 1213.15 Z" fill="#000000" fill-rule="evenodd" fill-opacity="1" /><path clip-path="url(#clip390)" d="M1804.24 1203.1 Q1801.14 1208.43 1799.64 1213.64 Q1798.13 1218.84 1798.13 1224.19 Q1798.13 1229.54 1799.64 1234.79 Q1801.16 1240.02 1804.24 1245.33 L1800.54 1245.33 Q1797.07 1239.89 1795.33 1234.63 Q1793.62 1229.38 1793.62 1224.19 Q1793.62 1219.03 1795.33 1213.8 Q1797.04 1208.57 1800.54 1203.1 L1804.24 1203.1 Z" fill="#000000" fill-rule="evenodd" fill-opacity="1" /><path clip-path="url(#clip390)" d="M1827.28 1220.44 Q1830.63 1221.16 1832.51 1223.43 Q1834.41 1225.7 1834.41 1229.03 Q1834.41 1234.14 1830.89 1236.95 Q1827.37 1239.75 1820.89 1239.75 Q1818.71 1239.75 1816.4 1239.31 Q1814.1 1238.89 1811.65 1238.03 L1811.65 1233.52 Q1813.6 1234.65 1815.91 1235.23 Q1818.22 1235.81 1820.75 1235.81 Q1825.15 1235.81 1827.44 1234.08 Q1829.75 1232.34 1829.75 1229.03 Q1829.75 1225.97 1827.6 1224.26 Q1825.47 1222.52 1821.65 1222.52 L1817.62 1222.52 L1817.62 1218.68 L1821.84 1218.68 Q1825.28 1218.68 1827.11 1217.32 Q1828.94 1215.93 1828.94 1213.33 Q1828.94 1210.67 1827.04 1209.26 Q1825.17 1207.83 1821.65 1207.83 Q1819.73 1207.83 1817.53 1208.24 Q1815.33 1208.66 1812.69 1209.54 L1812.69 1205.37 Q1815.35 1204.63 1817.67 1204.26 Q1820.01 1203.89 1822.07 1203.89 Q1827.39 1203.89 1830.49 1206.32 Q1833.6 1208.73 1833.6 1212.85 Q1833.6 1215.72 1831.95 1217.71 Q1830.31 1219.68 1827.28 1220.44 Z" fill="#000000" fill-rule="evenodd" fill-opacity="1" /><path clip-path="url(#clip390)" d="M1857.44 1220.44 Q1860.79 1221.16 1862.67 1223.43 Q1864.57 1225.7 1864.57 1229.03 Q1864.57 1234.14 1861.05 1236.95 Q1857.53 1239.75 1851.05 1239.75 Q1848.87 1239.75 1846.56 1239.31 Q1844.27 1238.89 1841.81 1238.03 L1841.81 1233.52 Q1843.76 1234.65 1846.07 1235.23 Q1848.39 1235.81 1850.91 1235.81 Q1855.31 1235.81 1857.6 1234.08 Q1859.91 1232.34 1859.91 1229.03 Q1859.91 1225.97 1857.76 1224.26 Q1855.63 1222.52 1851.81 1222.52 L1847.78 1222.52 L1847.78 1218.68 L1852 1218.68 Q1855.45 1218.68 1857.28 1217.32 Q1859.1 1215.93 1859.1 1213.33 Q1859.1 1210.67 1857.21 1209.26 Q1855.33 1207.83 1851.81 1207.83 Q1849.89 1207.83 1847.69 1208.24 Q1845.49 1208.66 1842.85 1209.54 L1842.85 1205.37 Q1845.52 1204.63 1847.83 1204.26 Q1850.17 1203.89 1852.23 1203.89 Q1857.55 1203.89 1860.66 1206.32 Q1863.76 1208.73 1863.76 1212.85 Q1863.76 1215.72 1862.11 1217.71 Q1860.47 1219.68 1857.44 1220.44 Z" fill="#000000" fill-rule="evenodd" fill-opacity="1" /><path clip-path="url(#clip390)" d="M1873.48 1204.52 L1891.84 1204.52 L1891.84 1208.45 L1877.76 1208.45 L1877.76 1216.92 Q1878.78 1216.58 1879.8 1216.41 Q1880.82 1216.23 1881.84 1216.23 Q1887.62 1216.23 1891 1219.4 Q1894.38 1222.57 1894.38 1227.99 Q1894.38 1233.57 1890.91 1236.67 Q1887.44 1239.75 1881.12 1239.75 Q1878.94 1239.75 1876.67 1239.38 Q1874.43 1239.01 1872.02 1238.27 L1872.02 1233.57 Q1874.1 1234.7 1876.33 1235.26 Q1878.55 1235.81 1881.03 1235.81 Q1885.03 1235.81 1887.37 1233.7 Q1889.71 1231.6 1889.71 1227.99 Q1889.71 1224.38 1887.37 1222.27 Q1885.03 1220.16 1881.03 1220.16 Q1879.15 1220.16 1877.28 1220.58 Q1875.42 1221 1873.48 1221.88 L1873.48 1204.52 Z" fill="#000000" fill-rule="evenodd" fill-opacity="1" /><path clip-path="url(#clip390)" d="M1903.64 1204.52 L1922 1204.52 L1922 1208.45 L1907.92 1208.45 L1907.92 1216.92 Q1908.94 1216.58 1909.96 1216.41 Q1910.98 1216.23 1912 1216.23 Q1917.78 1216.23 1921.16 1219.4 Q1924.54 1222.57 1924.54 1227.99 Q1924.54 1233.57 1921.07 1236.67 Q1917.6 1239.75 1911.28 1239.75 Q1909.1 1239.75 1906.84 1239.38 Q1904.59 1239.01 1902.18 1238.27 L1902.18 1233.57 Q1904.27 1234.7 1906.49 1235.26 Q1908.71 1235.81 1911.19 1235.81 Q1915.19 1235.81 1917.53 1233.7 Q1919.87 1231.6 1919.87 1227.99 Q1919.87 1224.38 1917.53 1222.27 Q1915.19 1220.16 1911.19 1220.16 Q1909.31 1220.16 1907.44 1220.58 Q1905.59 1221 1903.64 1221.88 L1903.64 1204.52 Z" fill="#000000" fill-rule="evenodd" fill-opacity="1" /><path clip-path="url(#clip390)" d="M1946.6 1208.59 L1934.8 1227.04 L1946.6 1227.04 L1946.6 1208.59 M1945.38 1204.52 L1951.26 1204.52 L1951.26 1227.04 L1956.19 1227.04 L1956.19 1230.93 L1951.26 1230.93 L1951.26 1239.08 L1946.6 1239.08 L1946.6 1230.93 L1931 1230.93 L1931 1226.41 L1945.38 1204.52 Z" fill="#000000" fill-rule="evenodd" fill-opacity="1" /><path clip-path="url(#clip390)" d="M1976.77 1208.59 L1964.96 1227.04 L1976.77 1227.04 L1976.77 1208.59 M1975.54 1204.52 L1981.42 1204.52 L1981.42 1227.04 L1986.35 1227.04 L1986.35 1230.93 L1981.42 1230.93 L1981.42 1239.08 L1976.77 1239.08 L1976.77 1230.93 L1961.16 1230.93 L1961.16 1226.41 L1975.54 1204.52 Z" fill="#000000" fill-rule="evenodd" fill-opacity="1" /><path clip-path="url(#clip390)" d="M2008.25 1220.44 Q2011.6 1221.16 2013.48 1223.43 Q2015.38 1225.7 2015.38 1229.03 Q2015.38 1234.14 2011.86 1236.95 Q2008.34 1239.75 2001.86 1239.75 Q1999.68 1239.75 1997.37 1239.31 Q1995.08 1238.89 1992.62 1238.03 L1992.62 1233.52 Q1994.57 1234.65 1996.88 1235.23 Q1999.2 1235.81 2001.72 1235.81 Q2006.12 1235.81 2008.41 1234.08 Q2010.72 1232.34 2010.72 1229.03 Q2010.72 1225.97 2008.57 1224.26 Q2006.44 1222.52 2002.62 1222.52 L1998.59 1222.52 L1998.59 1218.68 L2002.81 1218.68 Q2006.26 1218.68 2008.08 1217.32 Q2009.91 1215.93 2009.91 1213.33 Q2009.91 1210.67 2008.02 1209.26 Q2006.14 1207.83 2002.62 1207.83 Q2000.7 1207.83 1998.5 1208.24 Q1996.3 1208.66 1993.66 1209.54 L1993.66 1205.37 Q1996.33 1204.63 1998.64 1204.26 Q2000.98 1203.89 2003.04 1203.89 Q2008.36 1203.89 2011.46 1206.32 Q2014.57 1208.73 2014.57 1212.85 Q2014.57 1215.72 2012.92 1217.71 Q2011.28 1219.68 2008.25 1220.44 Z" fill="#000000" fill-rule="evenodd" fill-opacity="1" /><path clip-path="url(#clip390)" d="M2038.41 1220.44 Q2041.77 1221.16 2043.64 1223.43 Q2045.54 1225.7 2045.54 1229.03 Q2045.54 1234.14 2042.02 1236.95 Q2038.5 1239.75 2032.02 1239.75 Q2029.84 1239.75 2027.53 1239.31 Q2025.24 1238.89 2022.78 1238.03 L2022.78 1233.52 Q2024.73 1234.65 2027.04 1235.23 Q2029.36 1235.81 2031.88 1235.81 Q2036.28 1235.81 2038.57 1234.08 Q2040.89 1232.34 2040.89 1229.03 Q2040.89 1225.97 2038.73 1224.26 Q2036.6 1222.52 2032.78 1222.52 L2028.76 1222.52 L2028.76 1218.68 L2032.97 1218.68 Q2036.42 1218.68 2038.25 1217.32 Q2040.08 1215.93 2040.08 1213.33 Q2040.08 1210.67 2038.18 1209.26 Q2036.3 1207.83 2032.78 1207.83 Q2030.86 1207.83 2028.66 1208.24 Q2026.46 1208.66 2023.83 1209.54 L2023.83 1205.37 Q2026.49 1204.63 2028.8 1204.26 Q2031.14 1203.89 2033.2 1203.89 Q2038.52 1203.89 2041.63 1206.32 Q2044.73 1208.73 2044.73 1212.85 Q2044.73 1215.72 2043.08 1217.71 Q2041.44 1219.68 2038.41 1220.44 Z" fill="#000000" fill-rule="evenodd" fill-opacity="1" /><path clip-path="url(#clip390)" d="M2053.13 1203.1 L2056.83 1203.1 Q2060.31 1208.57 2062.02 1213.8 Q2063.76 1219.03 2063.76 1224.19 Q2063.76 1229.38 2062.02 1234.63 Q2060.31 1239.89 2056.83 1245.33 L2053.13 1245.33 Q2056.21 1240.02 2057.71 1234.79 Q2059.24 1229.54 2059.24 1224.19 Q2059.24 1218.84 2057.71 1213.64 Q2056.21 1208.43 2053.13 1203.1 Z" fill="#000000" fill-rule="evenodd" fill-opacity="1" /><polyline clip-path="url(#clip390)" style="stroke:#3da44d; stroke-linecap:round; stroke-linejoin:round; stroke-width:4; stroke-opacity:1; fill:none" points="
  1439.64,1273.64 1586.54,1273.64 
  "/>
<path clip-path="url(#clip390)" d="M1631.37 1269.97 Q1632.97 1267.1 1635.19 1265.73 Q1637.42 1264.36 1640.42 1264.36 Q1644.48 1264.36 1646.67 1267.21 Q1648.87 1270.04 1648.87 1275.27 L1648.87 1290.92 L1644.59 1290.92 L1644.59 1275.41 Q1644.59 1271.68 1643.27 1269.87 Q1641.95 1268.07 1639.24 1268.07 Q1635.93 1268.07 1634.01 1270.27 Q1632.09 1272.47 1632.09 1276.26 L1632.09 1290.92 L1627.81 1290.92 L1627.81 1275.41 Q1627.81 1271.66 1626.49 1269.87 Q1625.17 1268.07 1622.42 1268.07 Q1619.15 1268.07 1617.23 1270.29 Q1615.31 1272.49 1615.31 1276.26 L1615.31 1290.92 L1611.03 1290.92 L1611.03 1264.99 L1615.31 1264.99 L1615.31 1269.02 Q1616.77 1266.63 1618.8 1265.5 Q1620.84 1264.36 1623.64 1264.36 Q1626.47 1264.36 1628.43 1265.8 Q1630.42 1267.23 1631.37 1269.97 Z" fill="#000000" fill-rule="evenodd" fill-opacity="1" /><path clip-path="url(#clip390)" d="M1669.15 1277.88 Q1663.99 1277.88 1662 1279.06 Q1660.01 1280.24 1660.01 1283.09 Q1660.01 1285.36 1661.49 1286.7 Q1662.99 1288.02 1665.56 1288.02 Q1669.11 1288.02 1671.23 1285.52 Q1673.39 1283 1673.39 1278.83 L1673.39 1277.88 L1669.15 1277.88 M1677.65 1276.12 L1677.65 1290.92 L1673.39 1290.92 L1673.39 1286.98 Q1671.93 1289.34 1669.75 1290.48 Q1667.58 1291.59 1664.43 1291.59 Q1660.45 1291.59 1658.09 1289.36 Q1655.75 1287.12 1655.75 1283.37 Q1655.75 1278.99 1658.67 1276.77 Q1661.61 1274.55 1667.42 1274.55 L1673.39 1274.55 L1673.39 1274.13 Q1673.39 1271.19 1671.44 1269.6 Q1669.52 1267.98 1666.03 1267.98 Q1663.8 1267.98 1661.7 1268.51 Q1659.59 1269.04 1657.65 1270.11 L1657.65 1266.17 Q1659.98 1265.27 1662.18 1264.83 Q1664.38 1264.36 1666.47 1264.36 Q1672.09 1264.36 1674.87 1267.28 Q1677.65 1270.2 1677.65 1276.12 Z" fill="#000000" fill-rule="evenodd" fill-opacity="1" /><path clip-path="url(#clip390)" d="M1702.95 1265.75 L1702.95 1269.78 Q1701.14 1268.86 1699.2 1268.39 Q1697.25 1267.93 1695.17 1267.93 Q1692 1267.93 1690.4 1268.9 Q1688.83 1269.87 1688.83 1271.82 Q1688.83 1273.3 1689.96 1274.16 Q1691.1 1274.99 1694.52 1275.75 L1695.98 1276.08 Q1700.52 1277.05 1702.42 1278.83 Q1704.34 1280.59 1704.34 1283.76 Q1704.34 1287.37 1701.47 1289.48 Q1698.62 1291.59 1693.62 1291.59 Q1691.54 1291.59 1689.27 1291.17 Q1687.02 1290.78 1684.52 1289.97 L1684.52 1285.57 Q1686.88 1286.79 1689.17 1287.42 Q1691.47 1288.02 1693.71 1288.02 Q1696.72 1288.02 1698.34 1287 Q1699.96 1285.96 1699.96 1284.09 Q1699.96 1282.35 1698.78 1281.42 Q1697.62 1280.5 1693.67 1279.64 L1692.18 1279.3 Q1688.23 1278.46 1686.47 1276.75 Q1684.71 1275.01 1684.71 1272 Q1684.71 1268.35 1687.3 1266.36 Q1689.89 1264.36 1694.66 1264.36 Q1697.02 1264.36 1699.11 1264.71 Q1701.19 1265.06 1702.95 1265.75 Z" fill="#000000" fill-rule="evenodd" fill-opacity="1" /><path clip-path="url(#clip390)" d="M1727.65 1265.75 L1727.65 1269.78 Q1725.84 1268.86 1723.9 1268.39 Q1721.95 1267.93 1719.87 1267.93 Q1716.7 1267.93 1715.1 1268.9 Q1713.53 1269.87 1713.53 1271.82 Q1713.53 1273.3 1714.66 1274.16 Q1715.79 1274.99 1719.22 1275.75 L1720.68 1276.08 Q1725.22 1277.05 1727.11 1278.83 Q1729.04 1280.59 1729.04 1283.76 Q1729.04 1287.37 1726.17 1289.48 Q1723.32 1291.59 1718.32 1291.59 Q1716.23 1291.59 1713.97 1291.17 Q1711.72 1290.78 1709.22 1289.97 L1709.22 1285.57 Q1711.58 1286.79 1713.87 1287.42 Q1716.17 1288.02 1718.41 1288.02 Q1721.42 1288.02 1723.04 1287 Q1724.66 1285.96 1724.66 1284.09 Q1724.66 1282.35 1723.48 1281.42 Q1722.32 1280.5 1718.36 1279.64 L1716.88 1279.3 Q1712.92 1278.46 1711.17 1276.75 Q1709.41 1275.01 1709.41 1272 Q1709.41 1268.35 1712 1266.36 Q1714.59 1264.36 1719.36 1264.36 Q1721.72 1264.36 1723.8 1264.71 Q1725.89 1265.06 1727.65 1265.75 Z" fill="#000000" fill-rule="evenodd" fill-opacity="1" /><path clip-path="url(#clip390)" d="M1736.42 1285.04 L1741.3 1285.04 L1741.3 1290.92 L1736.42 1290.92 L1736.42 1285.04 Z" fill="#000000" fill-rule="evenodd" fill-opacity="1" /><path clip-path="url(#clip390)" d="M1762.67 1277.88 Q1757.51 1277.88 1755.52 1279.06 Q1753.53 1280.24 1753.53 1283.09 Q1753.53 1285.36 1755.01 1286.7 Q1756.51 1288.02 1759.08 1288.02 Q1762.62 1288.02 1764.75 1285.52 Q1766.91 1283 1766.91 1278.83 L1766.91 1277.88 L1762.67 1277.88 M1771.16 1276.12 L1771.16 1290.92 L1766.91 1290.92 L1766.91 1286.98 Q1765.45 1289.34 1763.27 1290.48 Q1761.1 1291.59 1757.95 1291.59 Q1753.97 1291.59 1751.6 1289.36 Q1749.27 1287.12 1749.27 1283.37 Q1749.27 1278.99 1752.18 1276.77 Q1755.12 1274.55 1760.93 1274.55 L1766.91 1274.55 L1766.91 1274.13 Q1766.91 1271.19 1764.96 1269.6 Q1763.04 1267.98 1759.54 1267.98 Q1757.32 1267.98 1755.22 1268.51 Q1753.11 1269.04 1751.16 1270.11 L1751.16 1266.17 Q1753.5 1265.27 1755.7 1264.83 Q1757.9 1264.36 1759.98 1264.36 Q1765.61 1264.36 1768.39 1267.28 Q1771.16 1270.2 1771.16 1276.12 Z" fill="#000000" fill-rule="evenodd" fill-opacity="1" /><path clip-path="url(#clip390)" d="M1799.64 1298.79 L1799.64 1302.1 L1775.01 1302.1 L1775.01 1298.79 L1799.64 1298.79 Z" fill="#000000" fill-rule="evenodd" fill-opacity="1" /><path clip-path="url(#clip390)" d="M1818.66 1268.97 Q1817.95 1268.55 1817.09 1268.37 Q1816.26 1268.16 1815.24 1268.16 Q1811.63 1268.16 1809.68 1270.52 Q1807.76 1272.86 1807.76 1277.26 L1807.76 1290.92 L1803.48 1290.92 L1803.48 1264.99 L1807.76 1264.99 L1807.76 1269.02 Q1809.1 1266.66 1811.26 1265.52 Q1813.41 1264.36 1816.49 1264.36 Q1816.93 1264.36 1817.46 1264.43 Q1817.99 1264.48 1818.64 1264.6 L1818.66 1268.97 Z" fill="#000000" fill-rule="evenodd" fill-opacity="1" /><path clip-path="url(#clip390)" d="M1844.27 1276.89 L1844.27 1278.97 L1824.68 1278.97 Q1824.96 1283.37 1827.32 1285.68 Q1829.71 1287.98 1833.94 1287.98 Q1836.4 1287.98 1838.69 1287.37 Q1841 1286.77 1843.27 1285.57 L1843.27 1289.6 Q1840.98 1290.57 1838.57 1291.08 Q1836.16 1291.59 1833.69 1291.59 Q1827.48 1291.59 1823.85 1287.98 Q1820.24 1284.36 1820.24 1278.21 Q1820.24 1271.84 1823.66 1268.11 Q1827.11 1264.36 1832.95 1264.36 Q1838.18 1264.36 1841.21 1267.74 Q1844.27 1271.1 1844.27 1276.89 M1840.01 1275.64 Q1839.96 1272.14 1838.04 1270.06 Q1836.14 1267.98 1832.99 1267.98 Q1829.43 1267.98 1827.28 1269.99 Q1825.15 1272 1824.82 1275.66 L1840.01 1275.64 Z" fill="#000000" fill-rule="evenodd" fill-opacity="1" /><path clip-path="url(#clip390)" d="M1851.26 1254.9 L1855.52 1254.9 L1855.52 1290.92 L1851.26 1290.92 L1851.26 1254.9 Z" fill="#000000" fill-rule="evenodd" fill-opacity="1" /><path clip-path="url(#clip390)" d="M1877.55 1254.9 L1877.55 1258.44 L1873.48 1258.44 Q1871.19 1258.44 1870.28 1259.36 Q1869.41 1260.29 1869.41 1262.7 L1869.41 1264.99 L1876.42 1264.99 L1876.42 1268.3 L1869.41 1268.3 L1869.41 1290.92 L1865.12 1290.92 L1865.12 1268.3 L1861.05 1268.3 L1861.05 1264.99 L1865.12 1264.99 L1865.12 1263.18 Q1865.12 1258.86 1867.14 1256.89 Q1869.15 1254.9 1873.53 1254.9 L1877.55 1254.9 Z" fill="#000000" fill-rule="evenodd" fill-opacity="1" /><path clip-path="url(#clip390)" d="M1896.14 1268.97 Q1895.42 1268.55 1894.57 1268.37 Q1893.73 1268.16 1892.72 1268.16 Q1889.1 1268.16 1887.16 1270.52 Q1885.24 1272.86 1885.24 1277.26 L1885.24 1290.92 L1880.96 1290.92 L1880.96 1264.99 L1885.24 1264.99 L1885.24 1269.02 Q1886.58 1266.66 1888.73 1265.52 Q1890.89 1264.36 1893.97 1264.36 Q1894.4 1264.36 1894.94 1264.43 Q1895.47 1264.48 1896.12 1264.6 L1896.14 1268.97 Z" fill="#000000" fill-rule="evenodd" fill-opacity="1" /><path clip-path="url(#clip390)" d="M1900.61 1264.99 L1904.87 1264.99 L1904.87 1290.92 L1900.61 1290.92 L1900.61 1264.99 M1900.61 1254.9 L1904.87 1254.9 L1904.87 1260.29 L1900.61 1260.29 L1900.61 1254.9 Z" fill="#000000" fill-rule="evenodd" fill-opacity="1" /><path clip-path="url(#clip390)" d="M1932.44 1265.98 L1932.44 1269.97 Q1930.63 1268.97 1928.8 1268.48 Q1927 1267.98 1925.15 1267.98 Q1921 1267.98 1918.71 1270.61 Q1916.42 1273.23 1916.42 1277.98 Q1916.42 1282.72 1918.71 1285.36 Q1921 1287.98 1925.15 1287.98 Q1927 1287.98 1928.8 1287.49 Q1930.63 1286.98 1932.44 1285.98 L1932.44 1289.92 Q1930.65 1290.75 1928.73 1291.17 Q1926.84 1291.59 1924.68 1291.59 Q1918.83 1291.59 1915.38 1287.91 Q1911.93 1284.23 1911.93 1277.98 Q1911.93 1271.63 1915.4 1268 Q1918.9 1264.36 1924.96 1264.36 Q1926.93 1264.36 1928.8 1264.78 Q1930.68 1265.17 1932.44 1265.98 Z" fill="#000000" fill-rule="evenodd" fill-opacity="1" /><path clip-path="url(#clip390)" d="M1965.15 1254.94 Q1962.04 1260.27 1960.54 1265.48 Q1959.03 1270.68 1959.03 1276.03 Q1959.03 1281.38 1960.54 1286.63 Q1962.07 1291.86 1965.15 1297.17 L1961.44 1297.17 Q1957.97 1291.73 1956.23 1286.47 Q1954.52 1281.22 1954.52 1276.03 Q1954.52 1270.87 1956.23 1265.64 Q1957.95 1260.41 1961.44 1254.94 L1965.15 1254.94 Z" fill="#000000" fill-rule="evenodd" fill-opacity="1" /><path clip-path="url(#clip390)" d="M1974.06 1256.36 L1992.41 1256.36 L1992.41 1260.29 L1978.34 1260.29 L1978.34 1268.76 Q1979.36 1268.42 1980.38 1268.25 Q1981.4 1268.07 1982.41 1268.07 Q1988.2 1268.07 1991.58 1271.24 Q1994.96 1274.41 1994.96 1279.83 Q1994.96 1285.41 1991.49 1288.51 Q1988.02 1291.59 1981.7 1291.59 Q1979.52 1291.59 1977.25 1291.22 Q1975.01 1290.85 1972.6 1290.11 L1972.6 1285.41 Q1974.68 1286.54 1976.9 1287.1 Q1979.13 1287.65 1981.6 1287.65 Q1985.61 1287.65 1987.95 1285.54 Q1990.28 1283.44 1990.28 1279.83 Q1990.28 1276.22 1987.95 1274.11 Q1985.61 1272 1981.6 1272 Q1979.73 1272 1977.85 1272.42 Q1976 1272.84 1974.06 1273.72 L1974.06 1256.36 Z" fill="#000000" fill-rule="evenodd" fill-opacity="1" /><path clip-path="url(#clip390)" d="M2014.17 1274.5 Q2010.84 1274.5 2008.92 1276.29 Q2007.02 1278.07 2007.02 1281.19 Q2007.02 1284.32 2008.92 1286.1 Q2010.84 1287.88 2014.17 1287.88 Q2017.51 1287.88 2019.43 1286.1 Q2021.35 1284.29 2021.35 1281.19 Q2021.35 1278.07 2019.43 1276.29 Q2017.53 1274.5 2014.17 1274.5 M2009.5 1272.51 Q2006.49 1271.77 2004.8 1269.71 Q2003.13 1267.65 2003.13 1264.69 Q2003.13 1260.55 2006.07 1258.14 Q2009.03 1255.73 2014.17 1255.73 Q2019.33 1255.73 2022.27 1258.14 Q2025.21 1260.55 2025.21 1264.69 Q2025.21 1267.65 2023.52 1269.71 Q2021.86 1271.77 2018.87 1272.51 Q2022.25 1273.3 2024.13 1275.59 Q2026.02 1277.88 2026.02 1281.19 Q2026.02 1286.22 2022.95 1288.9 Q2019.89 1291.59 2014.17 1291.59 Q2008.46 1291.59 2005.38 1288.9 Q2002.32 1286.22 2002.32 1281.19 Q2002.32 1277.88 2004.22 1275.59 Q2006.12 1273.3 2009.5 1272.51 M2007.78 1265.13 Q2007.78 1267.81 2009.45 1269.32 Q2011.14 1270.82 2014.17 1270.82 Q2017.18 1270.82 2018.87 1269.32 Q2020.58 1267.81 2020.58 1265.13 Q2020.58 1262.44 2018.87 1260.94 Q2017.18 1259.43 2014.17 1259.43 Q2011.14 1259.43 2009.45 1260.94 Q2007.78 1262.44 2007.78 1265.13 Z" fill="#000000" fill-rule="evenodd" fill-opacity="1" /><path clip-path="url(#clip390)" d="M2033.15 1256.36 L2055.38 1256.36 L2055.38 1258.35 L2042.83 1290.92 L2037.95 1290.92 L2049.75 1260.29 L2033.15 1260.29 L2033.15 1256.36 Z" fill="#000000" fill-rule="evenodd" fill-opacity="1" /><path clip-path="url(#clip390)" d="M2068.52 1286.98 L2084.84 1286.98 L2084.84 1290.92 L2062.9 1290.92 L2062.9 1286.98 Q2065.56 1284.23 2070.14 1279.6 Q2074.75 1274.94 2075.93 1273.6 Q2078.18 1271.08 2079.06 1269.34 Q2079.96 1267.58 2079.96 1265.89 Q2079.96 1263.14 2078.02 1261.4 Q2076.09 1259.67 2072.99 1259.67 Q2070.79 1259.67 2068.34 1260.43 Q2065.91 1261.19 2063.13 1262.74 L2063.13 1258.02 Q2065.95 1256.89 2068.41 1256.31 Q2070.86 1255.73 2072.9 1255.73 Q2078.27 1255.73 2081.46 1258.42 Q2084.66 1261.1 2084.66 1265.59 Q2084.66 1267.72 2083.85 1269.64 Q2083.06 1271.54 2080.95 1274.13 Q2080.38 1274.8 2077.27 1278.02 Q2074.17 1281.22 2068.52 1286.98 Z" fill="#000000" fill-rule="evenodd" fill-opacity="1" /><path clip-path="url(#clip390)" d="M2104.66 1259.43 Q2101.05 1259.43 2099.22 1263 Q2097.41 1266.54 2097.41 1273.67 Q2097.41 1280.78 2099.22 1284.34 Q2101.05 1287.88 2104.66 1287.88 Q2108.29 1287.88 2110.1 1284.34 Q2111.93 1280.78 2111.93 1273.67 Q2111.93 1266.54 2110.1 1263 Q2108.29 1259.43 2104.66 1259.43 M2104.66 1255.73 Q2110.47 1255.73 2113.52 1260.34 Q2116.6 1264.92 2116.6 1273.67 Q2116.6 1282.4 2113.52 1287 Q2110.47 1291.59 2104.66 1291.59 Q2098.85 1291.59 2095.77 1287 Q2092.71 1282.4 2092.71 1273.67 Q2092.71 1264.92 2095.77 1260.34 Q2098.85 1255.73 2104.66 1255.73 Z" fill="#000000" fill-rule="evenodd" fill-opacity="1" /><path clip-path="url(#clip390)" d="M2128.85 1286.98 L2145.17 1286.98 L2145.17 1290.92 L2123.22 1290.92 L2123.22 1286.98 Q2125.89 1284.23 2130.47 1279.6 Q2135.07 1274.94 2136.26 1273.6 Q2138.5 1271.08 2139.38 1269.34 Q2140.28 1267.58 2140.28 1265.89 Q2140.28 1263.14 2138.34 1261.4 Q2136.42 1259.67 2133.32 1259.67 Q2131.12 1259.67 2128.66 1260.43 Q2126.23 1261.19 2123.45 1262.74 L2123.45 1258.02 Q2126.28 1256.89 2128.73 1256.31 Q2131.19 1255.73 2133.22 1255.73 Q2138.59 1255.73 2141.79 1258.42 Q2144.98 1261.1 2144.98 1265.59 Q2144.98 1267.72 2144.17 1269.64 Q2143.39 1271.54 2141.28 1274.13 Q2140.7 1274.8 2137.6 1278.02 Q2134.5 1281.22 2128.85 1286.98 Z" fill="#000000" fill-rule="evenodd" fill-opacity="1" /><path clip-path="url(#clip390)" d="M2155.03 1256.36 L2173.38 1256.36 L2173.38 1260.29 L2159.31 1260.29 L2159.31 1268.76 Q2160.33 1268.42 2161.35 1268.25 Q2162.37 1268.07 2163.38 1268.07 Q2169.17 1268.07 2172.55 1271.24 Q2175.93 1274.41 2175.93 1279.83 Q2175.93 1285.41 2172.46 1288.51 Q2168.99 1291.59 2162.67 1291.59 Q2160.49 1291.59 2158.22 1291.22 Q2155.98 1290.85 2153.57 1290.11 L2153.57 1285.41 Q2155.65 1286.54 2157.88 1287.1 Q2160.1 1287.65 2162.57 1287.65 Q2166.58 1287.65 2168.92 1285.54 Q2171.26 1283.44 2171.26 1279.83 Q2171.26 1276.22 2168.92 1274.11 Q2166.58 1272 2162.57 1272 Q2160.7 1272 2158.82 1272.42 Q2156.97 1272.84 2155.03 1273.72 L2155.03 1256.36 Z" fill="#000000" fill-rule="evenodd" fill-opacity="1" /><path clip-path="url(#clip390)" d="M2195.72 1271.77 Q2192.57 1271.77 2190.72 1273.92 Q2188.89 1276.08 2188.89 1279.83 Q2188.89 1283.55 2190.72 1285.73 Q2192.57 1287.88 2195.72 1287.88 Q2198.87 1287.88 2200.7 1285.73 Q2202.55 1283.55 2202.55 1279.83 Q2202.55 1276.08 2200.7 1273.92 Q2198.87 1271.77 2195.72 1271.77 M2205.01 1257.12 L2205.01 1261.38 Q2203.25 1260.55 2201.44 1260.11 Q2199.66 1259.67 2197.9 1259.67 Q2193.27 1259.67 2190.82 1262.79 Q2188.38 1265.92 2188.04 1272.23 Q2189.4 1270.22 2191.46 1269.16 Q2193.52 1268.07 2196 1268.07 Q2201.21 1268.07 2204.22 1271.24 Q2207.25 1274.39 2207.25 1279.83 Q2207.25 1285.15 2204.1 1288.37 Q2200.95 1291.59 2195.72 1291.59 Q2189.73 1291.59 2186.56 1287 Q2183.38 1282.4 2183.38 1273.67 Q2183.38 1265.48 2187.27 1260.61 Q2191.16 1255.73 2197.71 1255.73 Q2199.47 1255.73 2201.26 1256.08 Q2203.06 1256.42 2205.01 1257.12 Z" fill="#000000" fill-rule="evenodd" fill-opacity="1" /><path clip-path="url(#clip390)" d="M2216.12 1286.98 L2223.76 1286.98 L2223.76 1260.61 L2215.44 1262.28 L2215.44 1258.02 L2223.71 1256.36 L2228.38 1256.36 L2228.38 1286.98 L2236.02 1286.98 L2236.02 1290.92 L2216.12 1290.92 L2216.12 1286.98 Z" fill="#000000" fill-rule="evenodd" fill-opacity="1" /><path clip-path="url(#clip390)" d="M2244.19 1254.94 L2247.9 1254.94 Q2251.37 1260.41 2253.08 1265.64 Q2254.82 1270.87 2254.82 1276.03 Q2254.82 1281.22 2253.08 1286.47 Q2251.37 1291.73 2247.9 1297.17 L2244.19 1297.17 Q2247.27 1291.86 2248.78 1286.63 Q2250.31 1281.38 2250.31 1276.03 Q2250.31 1270.68 2248.78 1265.48 Q2247.27 1260.27 2244.19 1254.94 Z" fill="#000000" fill-rule="evenodd" fill-opacity="1" /><polyline clip-path="url(#clip390)" style="stroke:#c271d2; stroke-linecap:round; stroke-linejoin:round; stroke-width:4; stroke-opacity:1; fill:none" points="
  1439.64,1325.48 1586.54,1325.48 
  "/>
<path clip-path="url(#clip390)" d="M1631.37 1321.81 Q1632.97 1318.94 1635.19 1317.57 Q1637.42 1316.2 1640.42 1316.2 Q1644.48 1316.2 1646.67 1319.05 Q1648.87 1321.88 1648.87 1327.11 L1648.87 1342.76 L1644.59 1342.76 L1644.59 1327.25 Q1644.59 1323.52 1643.27 1321.71 Q1641.95 1319.91 1639.24 1319.91 Q1635.93 1319.91 1634.01 1322.11 Q1632.09 1324.31 1632.09 1328.1 L1632.09 1342.76 L1627.81 1342.76 L1627.81 1327.25 Q1627.81 1323.5 1626.49 1321.71 Q1625.17 1319.91 1622.42 1319.91 Q1619.15 1319.91 1617.23 1322.13 Q1615.31 1324.33 1615.31 1328.1 L1615.31 1342.76 L1611.03 1342.76 L1611.03 1316.83 L1615.31 1316.83 L1615.31 1320.86 Q1616.77 1318.47 1618.8 1317.34 Q1620.84 1316.2 1623.64 1316.2 Q1626.47 1316.2 1628.43 1317.64 Q1630.42 1319.07 1631.37 1321.81 Z" fill="#000000" fill-rule="evenodd" fill-opacity="1" /><path clip-path="url(#clip390)" d="M1669.15 1329.72 Q1663.99 1329.72 1662 1330.9 Q1660.01 1332.08 1660.01 1334.93 Q1660.01 1337.2 1661.49 1338.54 Q1662.99 1339.86 1665.56 1339.86 Q1669.11 1339.86 1671.23 1337.36 Q1673.39 1334.84 1673.39 1330.67 L1673.39 1329.72 L1669.15 1329.72 M1677.65 1327.96 L1677.65 1342.76 L1673.39 1342.76 L1673.39 1338.82 Q1671.93 1341.18 1669.75 1342.32 Q1667.58 1343.43 1664.43 1343.43 Q1660.45 1343.43 1658.09 1341.2 Q1655.75 1338.96 1655.75 1335.21 Q1655.75 1330.83 1658.67 1328.61 Q1661.61 1326.39 1667.42 1326.39 L1673.39 1326.39 L1673.39 1325.97 Q1673.39 1323.03 1671.44 1321.44 Q1669.52 1319.82 1666.03 1319.82 Q1663.8 1319.82 1661.7 1320.35 Q1659.59 1320.88 1657.65 1321.95 L1657.65 1318.01 Q1659.98 1317.11 1662.18 1316.67 Q1664.38 1316.2 1666.47 1316.2 Q1672.09 1316.2 1674.87 1319.12 Q1677.65 1322.04 1677.65 1327.96 Z" fill="#000000" fill-rule="evenodd" fill-opacity="1" /><path clip-path="url(#clip390)" d="M1702.95 1317.59 L1702.95 1321.62 Q1701.14 1320.7 1699.2 1320.23 Q1697.25 1319.77 1695.17 1319.77 Q1692 1319.77 1690.4 1320.74 Q1688.83 1321.71 1688.83 1323.66 Q1688.83 1325.14 1689.96 1326 Q1691.1 1326.83 1694.52 1327.59 L1695.98 1327.92 Q1700.52 1328.89 1702.42 1330.67 Q1704.34 1332.43 1704.34 1335.6 Q1704.34 1339.21 1701.47 1341.32 Q1698.62 1343.43 1693.62 1343.43 Q1691.54 1343.43 1689.27 1343.01 Q1687.02 1342.62 1684.52 1341.81 L1684.52 1337.41 Q1686.88 1338.63 1689.17 1339.26 Q1691.47 1339.86 1693.71 1339.86 Q1696.72 1339.86 1698.34 1338.84 Q1699.96 1337.8 1699.96 1335.93 Q1699.96 1334.19 1698.78 1333.26 Q1697.62 1332.34 1693.67 1331.48 L1692.18 1331.14 Q1688.23 1330.3 1686.47 1328.59 Q1684.71 1326.85 1684.71 1323.84 Q1684.71 1320.19 1687.3 1318.2 Q1689.89 1316.2 1694.66 1316.2 Q1697.02 1316.2 1699.11 1316.55 Q1701.19 1316.9 1702.95 1317.59 Z" fill="#000000" fill-rule="evenodd" fill-opacity="1" /><path clip-path="url(#clip390)" d="M1727.65 1317.59 L1727.65 1321.62 Q1725.84 1320.7 1723.9 1320.23 Q1721.95 1319.77 1719.87 1319.77 Q1716.7 1319.77 1715.1 1320.74 Q1713.53 1321.71 1713.53 1323.66 Q1713.53 1325.14 1714.66 1326 Q1715.79 1326.83 1719.22 1327.59 L1720.68 1327.92 Q1725.22 1328.89 1727.11 1330.67 Q1729.04 1332.43 1729.04 1335.6 Q1729.04 1339.21 1726.17 1341.32 Q1723.32 1343.43 1718.32 1343.43 Q1716.23 1343.43 1713.97 1343.01 Q1711.72 1342.62 1709.22 1341.81 L1709.22 1337.41 Q1711.58 1338.63 1713.87 1339.26 Q1716.17 1339.86 1718.41 1339.86 Q1721.42 1339.86 1723.04 1338.84 Q1724.66 1337.8 1724.66 1335.93 Q1724.66 1334.19 1723.48 1333.26 Q1722.32 1332.34 1718.36 1331.48 L1716.88 1331.14 Q1712.92 1330.3 1711.17 1328.59 Q1709.41 1326.85 1709.41 1323.84 Q1709.41 1320.19 1712 1318.2 Q1714.59 1316.2 1719.36 1316.2 Q1721.72 1316.2 1723.8 1316.55 Q1725.89 1316.9 1727.65 1317.59 Z" fill="#000000" fill-rule="evenodd" fill-opacity="1" /><path clip-path="url(#clip390)" d="M1736.42 1336.88 L1741.3 1336.88 L1741.3 1342.76 L1736.42 1342.76 L1736.42 1336.88 Z" fill="#000000" fill-rule="evenodd" fill-opacity="1" /><path clip-path="url(#clip390)" d="M1764.01 1306.74 L1764.01 1310.28 L1759.94 1310.28 Q1757.65 1310.28 1756.74 1311.2 Q1755.86 1312.13 1755.86 1314.54 L1755.86 1316.83 L1762.88 1316.83 L1762.88 1320.14 L1755.86 1320.14 L1755.86 1342.76 L1751.58 1342.76 L1751.58 1320.14 L1747.51 1320.14 L1747.51 1316.83 L1751.58 1316.83 L1751.58 1315.02 Q1751.58 1310.7 1753.6 1308.73 Q1755.61 1306.74 1759.98 1306.74 L1764.01 1306.74 Z" fill="#000000" fill-rule="evenodd" fill-opacity="1" /><path clip-path="url(#clip390)" d="M1792.88 1306.78 Q1789.78 1312.11 1788.27 1317.32 Q1786.77 1322.52 1786.77 1327.87 Q1786.77 1333.22 1788.27 1338.47 Q1789.8 1343.7 1792.88 1349.01 L1789.17 1349.01 Q1785.7 1343.57 1783.97 1338.31 Q1782.25 1333.06 1782.25 1327.87 Q1782.25 1322.71 1783.97 1317.48 Q1785.68 1312.25 1789.17 1306.78 L1792.88 1306.78 Z" fill="#000000" fill-rule="evenodd" fill-opacity="1" /><path clip-path="url(#clip390)" d="M1812.32 1323.61 Q1809.17 1323.61 1807.32 1325.76 Q1805.49 1327.92 1805.49 1331.67 Q1805.49 1335.39 1807.32 1337.57 Q1809.17 1339.72 1812.32 1339.72 Q1815.47 1339.72 1817.3 1337.57 Q1819.15 1335.39 1819.15 1331.67 Q1819.15 1327.92 1817.3 1325.76 Q1815.47 1323.61 1812.32 1323.61 M1821.6 1308.96 L1821.6 1313.22 Q1819.85 1312.39 1818.04 1311.95 Q1816.26 1311.51 1814.5 1311.51 Q1809.87 1311.51 1807.41 1314.63 Q1804.98 1317.76 1804.64 1324.07 Q1806 1322.06 1808.06 1321 Q1810.12 1319.91 1812.6 1319.91 Q1817.81 1319.91 1820.82 1323.08 Q1823.85 1326.23 1823.85 1331.67 Q1823.85 1336.99 1820.7 1340.21 Q1817.55 1343.43 1812.32 1343.43 Q1806.33 1343.43 1803.16 1338.84 Q1799.98 1334.24 1799.98 1325.51 Q1799.98 1317.32 1803.87 1312.45 Q1807.76 1307.57 1814.31 1307.57 Q1816.07 1307.57 1817.85 1307.92 Q1819.66 1308.26 1821.6 1308.96 Z" fill="#000000" fill-rule="evenodd" fill-opacity="1" /><path clip-path="url(#clip390)" d="M1846.07 1324.12 Q1849.43 1324.84 1851.3 1327.11 Q1853.2 1329.38 1853.2 1332.71 Q1853.2 1337.82 1849.68 1340.63 Q1846.16 1343.43 1839.68 1343.43 Q1837.51 1343.43 1835.19 1342.99 Q1832.9 1342.57 1830.45 1341.71 L1830.45 1337.2 Q1832.39 1338.33 1834.71 1338.91 Q1837.02 1339.49 1839.54 1339.49 Q1843.94 1339.49 1846.23 1337.76 Q1848.55 1336.02 1848.55 1332.71 Q1848.55 1329.65 1846.4 1327.94 Q1844.27 1326.2 1840.45 1326.2 L1836.42 1326.2 L1836.42 1322.36 L1840.63 1322.36 Q1844.08 1322.36 1845.91 1321 Q1847.74 1319.61 1847.74 1317.01 Q1847.74 1314.35 1845.84 1312.94 Q1843.97 1311.51 1840.45 1311.51 Q1838.53 1311.51 1836.33 1311.92 Q1834.13 1312.34 1831.49 1313.22 L1831.49 1309.05 Q1834.15 1308.31 1836.47 1307.94 Q1838.8 1307.57 1840.86 1307.57 Q1846.19 1307.57 1849.29 1310 Q1852.39 1312.41 1852.39 1316.53 Q1852.39 1319.4 1850.75 1321.39 Q1849.1 1323.36 1846.07 1324.12 Z" fill="#000000" fill-rule="evenodd" fill-opacity="1" /><path clip-path="url(#clip390)" d="M1860.89 1308.2 L1883.11 1308.2 L1883.11 1310.19 L1870.56 1342.76 L1865.68 1342.76 L1877.48 1312.13 L1860.89 1312.13 L1860.89 1308.2 Z" fill="#000000" fill-rule="evenodd" fill-opacity="1" /><path clip-path="url(#clip390)" d="M1892.28 1308.2 L1910.63 1308.2 L1910.63 1312.13 L1896.56 1312.13 L1896.56 1320.6 Q1897.58 1320.26 1898.59 1320.09 Q1899.61 1319.91 1900.63 1319.91 Q1906.42 1319.91 1909.8 1323.08 Q1913.18 1326.25 1913.18 1331.67 Q1913.18 1337.25 1909.71 1340.35 Q1906.23 1343.43 1899.91 1343.43 Q1897.74 1343.43 1895.47 1343.06 Q1893.22 1342.69 1890.82 1341.95 L1890.82 1337.25 Q1892.9 1338.38 1895.12 1338.94 Q1897.34 1339.49 1899.82 1339.49 Q1903.83 1339.49 1906.16 1337.38 Q1908.5 1335.28 1908.5 1331.67 Q1908.5 1328.06 1906.16 1325.95 Q1903.83 1323.84 1899.82 1323.84 Q1897.95 1323.84 1896.07 1324.26 Q1894.22 1324.68 1892.28 1325.56 L1892.28 1308.2 Z" fill="#000000" fill-rule="evenodd" fill-opacity="1" /><path clip-path="url(#clip390)" d="M1936.56 1324.12 Q1939.91 1324.84 1941.79 1327.11 Q1943.69 1329.38 1943.69 1332.71 Q1943.69 1337.82 1940.17 1340.63 Q1936.65 1343.43 1930.17 1343.43 Q1927.99 1343.43 1925.68 1342.99 Q1923.39 1342.57 1920.93 1341.71 L1920.93 1337.2 Q1922.88 1338.33 1925.19 1338.91 Q1927.51 1339.49 1930.03 1339.49 Q1934.43 1339.49 1936.72 1337.76 Q1939.03 1336.02 1939.03 1332.71 Q1939.03 1329.65 1936.88 1327.94 Q1934.75 1326.2 1930.93 1326.2 L1926.9 1326.2 L1926.9 1322.36 L1931.12 1322.36 Q1934.57 1322.36 1936.4 1321 Q1938.22 1319.61 1938.22 1317.01 Q1938.22 1314.35 1936.33 1312.94 Q1934.45 1311.51 1930.93 1311.51 Q1929.01 1311.51 1926.81 1311.92 Q1924.61 1312.34 1921.97 1313.22 L1921.97 1309.05 Q1924.64 1308.31 1926.95 1307.94 Q1929.29 1307.57 1931.35 1307.57 Q1936.67 1307.57 1939.78 1310 Q1942.88 1312.41 1942.88 1316.53 Q1942.88 1319.4 1941.23 1321.39 Q1939.59 1323.36 1936.56 1324.12 Z" fill="#000000" fill-rule="evenodd" fill-opacity="1" /><path clip-path="url(#clip390)" d="M1965.4 1312.27 L1953.59 1330.72 L1965.4 1330.72 L1965.4 1312.27 M1964.17 1308.2 L1970.05 1308.2 L1970.05 1330.72 L1974.98 1330.72 L1974.98 1334.61 L1970.05 1334.61 L1970.05 1342.76 L1965.4 1342.76 L1965.4 1334.61 L1949.8 1334.61 L1949.8 1330.09 L1964.17 1308.2 Z" fill="#000000" fill-rule="evenodd" fill-opacity="1" /><path clip-path="url(#clip390)" d="M1986.74 1338.82 L2003.06 1338.82 L2003.06 1342.76 L1981.12 1342.76 L1981.12 1338.82 Q1983.78 1336.07 1988.36 1331.44 Q1992.97 1326.78 1994.15 1325.44 Q1996.4 1322.92 1997.27 1321.18 Q1998.18 1319.42 1998.18 1317.73 Q1998.18 1314.98 1996.23 1313.24 Q1994.31 1311.51 1991.21 1311.51 Q1989.01 1311.51 1986.56 1312.27 Q1984.13 1313.03 1981.35 1314.58 L1981.35 1309.86 Q1984.17 1308.73 1986.63 1308.15 Q1989.08 1307.57 1991.12 1307.57 Q1996.49 1307.57 1999.68 1310.26 Q2002.88 1312.94 2002.88 1317.43 Q2002.88 1319.56 2002.07 1321.48 Q2001.28 1323.38 1999.17 1325.97 Q1998.59 1326.64 1995.49 1329.86 Q1992.39 1333.06 1986.74 1338.82 Z" fill="#000000" fill-rule="evenodd" fill-opacity="1" /><path clip-path="url(#clip390)" d="M2013.69 1338.82 L2021.33 1338.82 L2021.33 1312.45 L2013.02 1314.12 L2013.02 1309.86 L2021.28 1308.2 L2025.96 1308.2 L2025.96 1338.82 L2033.59 1338.82 L2033.59 1342.76 L2013.69 1342.76 L2013.69 1338.82 Z" fill="#000000" fill-rule="evenodd" fill-opacity="1" /><path clip-path="url(#clip390)" d="M2043.85 1338.82 L2051.49 1338.82 L2051.49 1312.45 L2043.18 1314.12 L2043.18 1309.86 L2051.44 1308.2 L2056.12 1308.2 L2056.12 1338.82 L2063.76 1338.82 L2063.76 1342.76 L2043.85 1342.76 L2043.85 1338.82 Z" fill="#000000" fill-rule="evenodd" fill-opacity="1" /><path clip-path="url(#clip390)" d="M2071.93 1306.78 L2075.63 1306.78 Q2079.1 1312.25 2080.82 1317.48 Q2082.55 1322.71 2082.55 1327.87 Q2082.55 1333.06 2080.82 1338.31 Q2079.1 1343.57 2075.63 1349.01 L2071.93 1349.01 Q2075.01 1343.7 2076.51 1338.47 Q2078.04 1333.22 2078.04 1327.87 Q2078.04 1322.52 2076.51 1317.32 Q2075.01 1312.11 2071.93 1306.78 Z" fill="#000000" fill-rule="evenodd" fill-opacity="1" /></svg>
