<?xml version="1.0" encoding="utf-8"?>
<svg xmlns="http://www.w3.org/2000/svg" xmlns:xlink="http://www.w3.org/1999/xlink" width="600" height="400" viewBox="0 0 2400 1600">
<defs>
  <clipPath id="clip220">
    <rect x="0" y="0" width="2400" height="1600"/>
  </clipPath>
</defs>
<path clip-path="url(#clip220)" d="
M0 1600 L2400 1600 L2400 0 L0 0  Z
  " fill="#ffffff" fill-rule="evenodd" fill-opacity="1"/>
<defs>
  <clipPath id="clip221">
    <rect x="480" y="0" width="1681" height="1600"/>
  </clipPath>
</defs>
<path clip-path="url(#clip220)" d="
M303.503 1401.58 L2352.76 1401.58 L2352.76 123.472 L303.503 123.472  Z
  " fill="#ffffff" fill-rule="evenodd" fill-opacity="1"/>
<defs>
  <clipPath id="clip222">
    <rect x="303" y="123" width="2050" height="1279"/>
  </clipPath>
</defs>
<polyline clip-path="url(#clip222)" style="stroke:#000000; stroke-linecap:round; stroke-linejoin:round; stroke-width:2; stroke-opacity:0.1; fill:none" points="
  361.501,1401.58 361.501,123.472 
  "/>
<polyline clip-path="url(#clip222)" style="stroke:#000000; stroke-linecap:round; stroke-linejoin:round; stroke-width:2; stroke-opacity:0.1; fill:none" points="
  844.815,1401.58 844.815,123.472 
  "/>
<polyline clip-path="url(#clip222)" style="stroke:#000000; stroke-linecap:round; stroke-linejoin:round; stroke-width:2; stroke-opacity:0.1; fill:none" points="
  1328.13,1401.58 1328.13,123.472 
  "/>
<polyline clip-path="url(#clip222)" style="stroke:#000000; stroke-linecap:round; stroke-linejoin:round; stroke-width:2; stroke-opacity:0.1; fill:none" points="
  1811.44,1401.58 1811.44,123.472 
  "/>
<polyline clip-path="url(#clip222)" style="stroke:#000000; stroke-linecap:round; stroke-linejoin:round; stroke-width:2; stroke-opacity:0.1; fill:none" points="
  2294.76,1401.58 2294.76,123.472 
  "/>
<polyline clip-path="url(#clip220)" style="stroke:#000000; stroke-linecap:round; stroke-linejoin:round; stroke-width:4; stroke-opacity:1; fill:none" points="
  303.503,1401.58 2352.76,1401.58 
  "/>
<polyline clip-path="url(#clip220)" style="stroke:#000000; stroke-linecap:round; stroke-linejoin:round; stroke-width:4; stroke-opacity:1; fill:none" points="
  361.501,1401.58 361.501,1382.68 
  "/>
<polyline clip-path="url(#clip220)" style="stroke:#000000; stroke-linecap:round; stroke-linejoin:round; stroke-width:4; stroke-opacity:1; fill:none" points="
  844.815,1401.58 844.815,1382.68 
  "/>
<polyline clip-path="url(#clip220)" style="stroke:#000000; stroke-linecap:round; stroke-linejoin:round; stroke-width:4; stroke-opacity:1; fill:none" points="
  1328.13,1401.58 1328.13,1382.68 
  "/>
<polyline clip-path="url(#clip220)" style="stroke:#000000; stroke-linecap:round; stroke-linejoin:round; stroke-width:4; stroke-opacity:1; fill:none" points="
  1811.44,1401.58 1811.44,1382.68 
  "/>
<polyline clip-path="url(#clip220)" style="stroke:#000000; stroke-linecap:round; stroke-linejoin:round; stroke-width:4; stroke-opacity:1; fill:none" points="
  2294.76,1401.58 2294.76,1382.68 
  "/>
<path clip-path="url(#clip220)" d="M361.501 1438.36 Q356.084 1438.36 353.341 1443.71 Q350.633 1449.02 350.633 1459.71 Q350.633 1470.37 353.341 1475.72 Q356.084 1481.03 361.501 1481.03 Q366.952 1481.03 369.66 1475.72 Q372.403 1470.37 372.403 1459.71 Q372.403 1449.02 369.66 1443.71 Q366.952 1438.36 361.501 1438.36 M361.501 1432.8 Q370.216 1432.8 374.799 1439.71 Q379.417 1446.59 379.417 1459.71 Q379.417 1472.8 374.799 1479.71 Q370.216 1486.59 361.501 1486.59 Q352.785 1486.59 348.167 1479.71 Q343.584 1472.8 343.584 1459.71 Q343.584 1446.59 348.167 1439.71 Q352.785 1432.8 361.501 1432.8 Z" fill="#000000" fill-rule="evenodd" fill-opacity="1" /><path clip-path="url(#clip220)" d="M830.388 1479.68 L841.846 1479.68 L841.846 1440.13 L829.381 1442.63 L829.381 1436.24 L841.777 1433.74 L848.791 1433.74 L848.791 1479.68 L860.249 1479.68 L860.249 1485.58 L830.388 1485.58 L830.388 1479.68 Z" fill="#000000" fill-rule="evenodd" fill-opacity="1" /><path clip-path="url(#clip220)" d="M1320.11 1479.68 L1344.59 1479.68 L1344.59 1485.58 L1311.67 1485.58 L1311.67 1479.68 Q1315.66 1475.55 1322.54 1468.6 Q1329.45 1461.62 1331.22 1459.61 Q1334.59 1455.82 1335.91 1453.22 Q1337.26 1450.58 1337.26 1448.05 Q1337.26 1443.91 1334.34 1441.31 Q1331.46 1438.71 1326.81 1438.71 Q1323.51 1438.71 1319.83 1439.85 Q1316.19 1441 1312.02 1443.32 L1312.02 1436.24 Q1316.25 1434.54 1319.94 1433.67 Q1323.62 1432.8 1326.67 1432.8 Q1334.73 1432.8 1339.52 1436.83 Q1344.31 1440.86 1344.31 1447.59 Q1344.31 1450.79 1343.09 1453.67 Q1341.91 1456.52 1338.75 1460.41 Q1337.89 1461.41 1333.23 1466.24 Q1328.58 1471.03 1320.11 1479.68 Z" fill="#000000" fill-rule="evenodd" fill-opacity="1" /><path clip-path="url(#clip220)" d="M1817.82 1457.63 Q1822.85 1458.7 1825.66 1462.11 Q1828.51 1465.51 1828.51 1470.51 Q1828.51 1478.18 1823.23 1482.39 Q1817.95 1486.59 1808.23 1486.59 Q1804.97 1486.59 1801.5 1485.93 Q1798.06 1485.3 1794.38 1484.02 L1794.38 1477.25 Q1797.29 1478.95 1800.77 1479.82 Q1804.24 1480.68 1808.02 1480.68 Q1814.62 1480.68 1818.06 1478.08 Q1821.53 1475.48 1821.53 1470.51 Q1821.53 1465.93 1818.3 1463.36 Q1815.11 1460.75 1809.38 1460.75 L1803.34 1460.75 L1803.34 1454.99 L1809.66 1454.99 Q1814.83 1454.99 1817.57 1452.94 Q1820.32 1450.86 1820.32 1446.97 Q1820.32 1442.98 1817.47 1440.86 Q1814.66 1438.71 1809.38 1438.71 Q1806.5 1438.71 1803.2 1439.33 Q1799.9 1439.96 1795.94 1441.27 L1795.94 1435.02 Q1799.93 1433.91 1803.41 1433.36 Q1806.91 1432.8 1810 1432.8 Q1817.99 1432.8 1822.64 1436.45 Q1827.29 1440.06 1827.29 1446.24 Q1827.29 1450.55 1824.83 1453.53 Q1822.36 1456.48 1817.82 1457.63 Z" fill="#000000" fill-rule="evenodd" fill-opacity="1" /><path clip-path="url(#clip220)" d="M2299.27 1439.85 L2281.56 1467.52 L2299.27 1467.52 L2299.27 1439.85 M2297.43 1433.74 L2306.25 1433.74 L2306.25 1467.52 L2313.65 1467.52 L2313.65 1473.36 L2306.25 1473.36 L2306.25 1485.58 L2299.27 1485.58 L2299.27 1473.36 L2275.87 1473.36 L2275.87 1466.59 L2297.43 1433.74 Z" fill="#000000" fill-rule="evenodd" fill-opacity="1" /><path clip-path="url(#clip220)" d="M1271.74 1527.62 L1271.74 1538.66 L1284.9 1538.66 L1284.9 1543.62 L1271.74 1543.62 L1271.74 1564.74 Q1271.74 1569.49 1273.03 1570.85 Q1274.35 1572.2 1278.34 1572.2 L1284.9 1572.2 L1284.9 1577.55 L1278.34 1577.55 Q1270.94 1577.55 1268.13 1574.8 Q1265.32 1572.03 1265.32 1564.74 L1265.32 1543.62 L1260.63 1543.62 L1260.63 1538.66 L1265.32 1538.66 L1265.32 1527.62 L1271.74 1527.62 Z" fill="#000000" fill-rule="evenodd" fill-opacity="1" /><path clip-path="url(#clip220)" d="M1315.32 1523.52 L1330.04 1523.52 L1330.04 1528.49 L1321.71 1528.49 L1321.71 1581.96 L1330.04 1581.96 L1330.04 1586.92 L1315.32 1586.92 L1315.32 1523.52 Z" fill="#000000" fill-rule="evenodd" fill-opacity="1" /><path clip-path="url(#clip220)" d="M1368.44 1539.8 L1368.44 1545.85 Q1365.73 1544.46 1362.82 1543.76 Q1359.9 1543.07 1356.78 1543.07 Q1352.02 1543.07 1349.62 1544.53 Q1347.26 1545.99 1347.26 1548.9 Q1347.26 1551.12 1348.96 1552.41 Q1350.66 1553.66 1355.8 1554.8 L1357.99 1555.29 Q1364.8 1556.75 1367.64 1559.42 Q1370.53 1562.06 1370.53 1566.82 Q1370.53 1572.24 1366.22 1575.4 Q1361.95 1578.55 1354.45 1578.55 Q1351.32 1578.55 1347.92 1577.93 Q1344.55 1577.34 1340.8 1576.12 L1340.8 1569.53 Q1344.34 1571.37 1347.78 1572.3 Q1351.22 1573.21 1354.59 1573.21 Q1359.1 1573.21 1361.53 1571.68 Q1363.96 1570.12 1363.96 1567.3 Q1363.96 1564.7 1362.19 1563.31 Q1360.46 1561.92 1354.52 1560.64 L1352.3 1560.12 Q1346.36 1558.87 1343.72 1556.3 Q1341.08 1553.69 1341.08 1549.18 Q1341.08 1543.69 1344.97 1540.71 Q1348.86 1537.72 1356.01 1537.72 Q1359.55 1537.72 1362.68 1538.24 Q1365.8 1538.76 1368.44 1539.8 Z" fill="#000000" fill-rule="evenodd" fill-opacity="1" /><path clip-path="url(#clip220)" d="M1395.63 1523.52 L1395.63 1586.92 L1380.91 1586.92 L1380.91 1581.96 L1389.21 1581.96 L1389.21 1528.49 L1380.91 1528.49 L1380.91 1523.52 L1395.63 1523.52 Z" fill="#000000" fill-rule="evenodd" fill-opacity="1" /><polyline clip-path="url(#clip222)" style="stroke:#000000; stroke-linecap:round; stroke-linejoin:round; stroke-width:2; stroke-opacity:0.1; fill:none" points="
  303.503,1385.87 2352.76,1385.87 
  "/>
<polyline clip-path="url(#clip222)" style="stroke:#000000; stroke-linecap:round; stroke-linejoin:round; stroke-width:2; stroke-opacity:0.1; fill:none" points="
  303.503,1103.31 2352.76,1103.31 
  "/>
<polyline clip-path="url(#clip222)" style="stroke:#000000; stroke-linecap:round; stroke-linejoin:round; stroke-width:2; stroke-opacity:0.1; fill:none" points="
  303.503,820.758 2352.76,820.758 
  "/>
<polyline clip-path="url(#clip222)" style="stroke:#000000; stroke-linecap:round; stroke-linejoin:round; stroke-width:2; stroke-opacity:0.1; fill:none" points="
  303.503,538.202 2352.76,538.202 
  "/>
<polyline clip-path="url(#clip222)" style="stroke:#000000; stroke-linecap:round; stroke-linejoin:round; stroke-width:2; stroke-opacity:0.1; fill:none" points="
  303.503,255.646 2352.76,255.646 
  "/>
<polyline clip-path="url(#clip220)" style="stroke:#000000; stroke-linecap:round; stroke-linejoin:round; stroke-width:4; stroke-opacity:1; fill:none" points="
  303.503,1401.58 303.503,123.472 
  "/>
<polyline clip-path="url(#clip220)" style="stroke:#000000; stroke-linecap:round; stroke-linejoin:round; stroke-width:4; stroke-opacity:1; fill:none" points="
  303.503,1385.87 322.401,1385.87 
  "/>
<polyline clip-path="url(#clip220)" style="stroke:#000000; stroke-linecap:round; stroke-linejoin:round; stroke-width:4; stroke-opacity:1; fill:none" points="
  303.503,1103.31 322.401,1103.31 
  "/>
<polyline clip-path="url(#clip220)" style="stroke:#000000; stroke-linecap:round; stroke-linejoin:round; stroke-width:4; stroke-opacity:1; fill:none" points="
  303.503,820.758 322.401,820.758 
  "/>
<polyline clip-path="url(#clip220)" style="stroke:#000000; stroke-linecap:round; stroke-linejoin:round; stroke-width:4; stroke-opacity:1; fill:none" points="
  303.503,538.202 322.401,538.202 
  "/>
<polyline clip-path="url(#clip220)" style="stroke:#000000; stroke-linecap:round; stroke-linejoin:round; stroke-width:4; stroke-opacity:1; fill:none" points="
  303.503,255.646 322.401,255.646 
  "/>
<path clip-path="url(#clip220)" d="M136.497 1364.57 Q131.08 1364.57 128.337 1369.92 Q125.629 1375.23 125.629 1385.92 Q125.629 1396.58 128.337 1401.93 Q131.08 1407.24 136.497 1407.24 Q141.948 1407.24 144.656 1401.93 Q147.399 1396.58 147.399 1385.92 Q147.399 1375.23 144.656 1369.92 Q141.948 1364.57 136.497 1364.57 M136.497 1359.01 Q145.212 1359.01 149.795 1365.92 Q154.413 1372.8 154.413 1385.92 Q154.413 1399.01 149.795 1405.92 Q145.212 1412.8 136.497 1412.8 Q127.781 1412.8 123.163 1405.92 Q118.58 1399.01 118.58 1385.92 Q118.58 1372.8 123.163 1365.92 Q127.781 1359.01 136.497 1359.01 Z" fill="#000000" fill-rule="evenodd" fill-opacity="1" /><path clip-path="url(#clip220)" d="M166.74 1402.97 L174.066 1402.97 L174.066 1411.79 L166.74 1411.79 L166.74 1402.97 Z" fill="#000000" fill-rule="evenodd" fill-opacity="1" /><path clip-path="url(#clip220)" d="M189.413 1359.95 L216.948 1359.95 L216.948 1365.85 L195.837 1365.85 L195.837 1378.56 Q197.364 1378.04 198.892 1377.8 Q200.42 1377.52 201.948 1377.52 Q210.628 1377.52 215.698 1382.28 Q220.767 1387.03 220.767 1395.16 Q220.767 1403.53 215.559 1408.18 Q210.35 1412.8 200.871 1412.8 Q197.608 1412.8 194.205 1412.24 Q190.837 1411.69 187.226 1410.57 L187.226 1403.53 Q190.351 1405.23 193.684 1406.06 Q197.017 1406.89 200.732 1406.89 Q206.739 1406.89 210.246 1403.73 Q213.753 1400.57 213.753 1395.16 Q213.753 1389.74 210.246 1386.58 Q206.739 1383.42 200.732 1383.42 Q197.92 1383.42 195.108 1384.05 Q192.33 1384.67 189.413 1385.99 L189.413 1359.95 Z" fill="#000000" fill-rule="evenodd" fill-opacity="1" /><path clip-path="url(#clip220)" d="M249.586 1364.57 Q244.17 1364.57 241.427 1369.92 Q238.718 1375.23 238.718 1385.92 Q238.718 1396.58 241.427 1401.93 Q244.17 1407.24 249.586 1407.24 Q255.038 1407.24 257.746 1401.93 Q260.489 1396.58 260.489 1385.92 Q260.489 1375.23 257.746 1369.92 Q255.038 1364.57 249.586 1364.57 M249.586 1359.01 Q258.302 1359.01 262.885 1365.92 Q267.503 1372.8 267.503 1385.92 Q267.503 1399.01 262.885 1405.92 Q258.302 1412.8 249.586 1412.8 Q240.871 1412.8 236.253 1405.92 Q231.67 1399.01 231.67 1385.92 Q231.67 1372.8 236.253 1365.92 Q240.871 1359.01 249.586 1359.01 Z" fill="#000000" fill-rule="evenodd" fill-opacity="1" /><path clip-path="url(#clip220)" d="M137.99 1082.01 Q132.573 1082.01 129.83 1087.36 Q127.122 1092.67 127.122 1103.37 Q127.122 1114.03 129.83 1119.37 Q132.573 1124.69 137.99 1124.69 Q143.441 1124.69 146.149 1119.37 Q148.892 1114.03 148.892 1103.37 Q148.892 1092.67 146.149 1087.36 Q143.441 1082.01 137.99 1082.01 M137.99 1076.46 Q146.705 1076.46 151.288 1083.37 Q155.906 1090.24 155.906 1103.37 Q155.906 1116.46 151.288 1123.37 Q146.705 1130.24 137.99 1130.24 Q129.275 1130.24 124.657 1123.37 Q120.073 1116.46 120.073 1103.37 Q120.073 1090.24 124.657 1083.37 Q129.275 1076.46 137.99 1076.46 Z" fill="#000000" fill-rule="evenodd" fill-opacity="1" /><path clip-path="url(#clip220)" d="M168.233 1120.41 L175.559 1120.41 L175.559 1129.23 L168.233 1129.23 L168.233 1120.41 Z" fill="#000000" fill-rule="evenodd" fill-opacity="1" /><path clip-path="url(#clip220)" d="M189.066 1077.39 L222.399 1077.39 L222.399 1080.38 L203.58 1129.23 L196.253 1129.23 L213.962 1083.3 L189.066 1083.3 L189.066 1077.39 Z" fill="#000000" fill-rule="evenodd" fill-opacity="1" /><path clip-path="url(#clip220)" d="M236.149 1077.39 L263.684 1077.39 L263.684 1083.3 L242.573 1083.3 L242.573 1096.01 Q244.1 1095.48 245.628 1095.24 Q247.156 1094.96 248.684 1094.96 Q257.364 1094.96 262.434 1099.72 Q267.503 1104.48 267.503 1112.6 Q267.503 1120.97 262.295 1125.62 Q257.086 1130.24 247.607 1130.24 Q244.343 1130.24 240.941 1129.69 Q237.573 1129.13 233.961 1128.02 L233.961 1120.97 Q237.086 1122.67 240.42 1123.5 Q243.753 1124.34 247.468 1124.34 Q253.475 1124.34 256.982 1121.18 Q260.489 1118.02 260.489 1112.6 Q260.489 1107.19 256.982 1104.03 Q253.475 1100.87 247.468 1100.87 Q244.656 1100.87 241.843 1101.49 Q239.066 1102.12 236.149 1103.44 L236.149 1077.39 Z" fill="#000000" fill-rule="evenodd" fill-opacity="1" /><path clip-path="url(#clip220)" d="M122.712 840.775 L134.17 840.775 L134.17 801.227 L121.705 803.727 L121.705 797.338 L134.101 794.838 L141.115 794.838 L141.115 840.775 L152.573 840.775 L152.573 846.678 L122.712 846.678 L122.712 840.775 Z" fill="#000000" fill-rule="evenodd" fill-opacity="1" /><path clip-path="url(#clip220)" d="M166.74 837.859 L174.066 837.859 L174.066 846.678 L166.74 846.678 L166.74 837.859 Z" fill="#000000" fill-rule="evenodd" fill-opacity="1" /><path clip-path="url(#clip220)" d="M204.344 799.456 Q198.927 799.456 196.184 804.803 Q193.476 810.116 193.476 820.81 Q193.476 831.47 196.184 836.817 Q198.927 842.13 204.344 842.13 Q209.795 842.13 212.503 836.817 Q215.246 831.47 215.246 820.81 Q215.246 810.116 212.503 804.803 Q209.795 799.456 204.344 799.456 M204.344 793.901 Q213.059 793.901 217.642 800.81 Q222.26 807.685 222.26 820.81 Q222.26 833.9 217.642 840.81 Q213.059 847.685 204.344 847.685 Q195.628 847.685 191.01 840.81 Q186.427 833.9 186.427 820.81 Q186.427 807.685 191.01 800.81 Q195.628 793.901 204.344 793.901 Z" fill="#000000" fill-rule="evenodd" fill-opacity="1" /><path clip-path="url(#clip220)" d="M249.586 799.456 Q244.17 799.456 241.427 804.803 Q238.718 810.116 238.718 820.81 Q238.718 831.47 241.427 836.817 Q244.17 842.13 249.586 842.13 Q255.038 842.13 257.746 836.817 Q260.489 831.47 260.489 820.81 Q260.489 810.116 257.746 804.803 Q255.038 799.456 249.586 799.456 M249.586 793.901 Q258.302 793.901 262.885 800.81 Q267.503 807.685 267.503 820.81 Q267.503 833.9 262.885 840.81 Q258.302 847.685 249.586 847.685 Q240.871 847.685 236.253 840.81 Q231.67 833.9 231.67 820.81 Q231.67 807.685 236.253 800.81 Q240.871 793.901 249.586 793.901 Z" fill="#000000" fill-rule="evenodd" fill-opacity="1" /><path clip-path="url(#clip220)" d="M124.205 558.219 L135.663 558.219 L135.663 518.671 L123.198 521.171 L123.198 514.782 L135.594 512.282 L142.608 512.282 L142.608 558.219 L154.066 558.219 L154.066 564.122 L124.205 564.122 L124.205 558.219 Z" fill="#000000" fill-rule="evenodd" fill-opacity="1" /><path clip-path="url(#clip220)" d="M168.233 555.303 L175.559 555.303 L175.559 564.122 L168.233 564.122 L168.233 555.303 Z" fill="#000000" fill-rule="evenodd" fill-opacity="1" /><path clip-path="url(#clip220)" d="M196.878 558.219 L221.357 558.219 L221.357 564.122 L188.441 564.122 L188.441 558.219 Q192.434 554.087 199.309 547.143 Q206.219 540.164 207.989 538.15 Q211.357 534.365 212.677 531.761 Q214.031 529.122 214.031 526.588 Q214.031 522.456 211.114 519.852 Q208.232 517.247 203.58 517.247 Q200.281 517.247 196.601 518.393 Q192.955 519.539 188.788 521.865 L188.788 514.782 Q193.024 513.081 196.705 512.213 Q200.385 511.345 203.441 511.345 Q211.496 511.345 216.288 515.372 Q221.08 519.4 221.08 526.136 Q221.08 529.331 219.864 532.213 Q218.684 535.06 215.524 538.949 Q214.656 539.956 210.003 544.782 Q205.351 549.574 196.878 558.219 Z" fill="#000000" fill-rule="evenodd" fill-opacity="1" /><path clip-path="url(#clip220)" d="M236.149 512.282 L263.684 512.282 L263.684 518.185 L242.573 518.185 L242.573 530.893 Q244.1 530.372 245.628 530.129 Q247.156 529.852 248.684 529.852 Q257.364 529.852 262.434 534.608 Q267.503 539.365 267.503 547.49 Q267.503 555.858 262.295 560.511 Q257.086 565.129 247.607 565.129 Q244.343 565.129 240.941 564.574 Q237.573 564.018 233.961 562.907 L233.961 555.858 Q237.086 557.56 240.42 558.393 Q243.753 559.226 247.468 559.226 Q253.475 559.226 256.982 556.067 Q260.489 552.907 260.489 547.49 Q260.489 542.074 256.982 538.914 Q253.475 535.754 247.468 535.754 Q244.656 535.754 241.843 536.379 Q239.066 537.004 236.149 538.324 L236.149 512.282 Z" fill="#000000" fill-rule="evenodd" fill-opacity="1" /><path clip-path="url(#clip220)" d="M122.712 275.663 L134.17 275.663 L134.17 236.115 L121.705 238.615 L121.705 232.226 L134.101 229.726 L141.115 229.726 L141.115 275.663 L152.573 275.663 L152.573 281.566 L122.712 281.566 L122.712 275.663 Z" fill="#000000" fill-rule="evenodd" fill-opacity="1" /><path clip-path="url(#clip220)" d="M166.74 272.747 L174.066 272.747 L174.066 281.566 L166.74 281.566 L166.74 272.747 Z" fill="#000000" fill-rule="evenodd" fill-opacity="1" /><path clip-path="url(#clip220)" d="M189.413 229.726 L216.948 229.726 L216.948 235.629 L195.837 235.629 L195.837 248.337 Q197.364 247.816 198.892 247.573 Q200.42 247.296 201.948 247.296 Q210.628 247.296 215.698 252.052 Q220.767 256.809 220.767 264.934 Q220.767 273.302 215.559 277.955 Q210.35 282.573 200.871 282.573 Q197.608 282.573 194.205 282.018 Q190.837 281.462 187.226 280.351 L187.226 273.302 Q190.351 275.004 193.684 275.837 Q197.017 276.67 200.732 276.67 Q206.739 276.67 210.246 273.511 Q213.753 270.351 213.753 264.934 Q213.753 259.518 210.246 256.358 Q206.739 253.198 200.732 253.198 Q197.92 253.198 195.108 253.823 Q192.33 254.448 189.413 255.768 L189.413 229.726 Z" fill="#000000" fill-rule="evenodd" fill-opacity="1" /><path clip-path="url(#clip220)" d="M249.586 234.344 Q244.17 234.344 241.427 239.691 Q238.718 245.004 238.718 255.698 Q238.718 266.358 241.427 271.705 Q244.17 277.018 249.586 277.018 Q255.038 277.018 257.746 271.705 Q260.489 266.358 260.489 255.698 Q260.489 245.004 257.746 239.691 Q255.038 234.344 249.586 234.344 M249.586 228.789 Q258.302 228.789 262.885 235.698 Q267.503 242.573 267.503 255.698 Q267.503 268.789 262.885 275.698 Q258.302 282.573 249.586 282.573 Q240.871 282.573 236.253 275.698 Q231.67 268.789 231.67 255.698 Q231.67 242.573 236.253 235.698 Q240.871 228.789 249.586 228.789 Z" fill="#000000" fill-rule="evenodd" fill-opacity="1" /><path clip-path="url(#clip220)" d="M35.6047 1045.01 Q31.2992 1042.61 29.2506 1039.28 Q27.202 1035.94 27.202 1031.43 Q27.202 1025.35 31.4728 1022.06 Q35.7089 1018.76 43.5561 1018.76 L67.0282 1018.76 L67.0282 1025.18 L43.7644 1025.18 Q38.1741 1025.18 35.4658 1027.16 Q32.7575 1029.14 32.7575 1033.2 Q32.7575 1038.17 36.0561 1041.05 Q39.3547 1043.93 45.0491 1043.93 L67.0282 1043.93 L67.0282 1050.35 L43.7644 1050.35 Q38.1394 1050.35 35.4658 1052.33 Q32.7575 1054.31 32.7575 1058.44 Q32.7575 1063.34 36.0908 1066.22 Q39.3894 1069.1 45.0491 1069.1 L67.0282 1069.1 L67.0282 1075.53 L28.1395 1075.53 L28.1395 1069.1 L34.1811 1069.1 Q30.6047 1066.92 28.9034 1063.86 Q27.202 1060.81 27.202 1056.6 Q27.202 1052.37 29.3547 1049.42 Q31.5075 1046.43 35.6047 1045.01 Z" fill="#000000" fill-rule="evenodd" fill-opacity="1" /><path clip-path="url(#clip220)" d="M47.4797 988.341 Q47.4797 996.084 49.2505 999.07 Q51.0213 1002.06 55.2921 1002.06 Q58.6949 1002.06 60.7087 999.834 Q62.6879 997.577 62.6879 993.723 Q62.6879 988.41 58.9379 985.216 Q55.1532 981.987 48.9033 981.987 L47.4797 981.987 L47.4797 988.341 M44.8408 975.598 L67.0282 975.598 L67.0282 981.987 L61.1254 981.987 Q64.6671 984.174 66.3684 987.438 Q68.0351 990.702 68.0351 995.424 Q68.0351 1001.4 64.7018 1004.94 Q61.3337 1008.44 55.7088 1008.44 Q49.1463 1008.44 45.813 1004.07 Q42.4797 999.66 42.4797 990.945 L42.4797 981.987 L41.8547 981.987 Q37.445 981.987 35.0492 984.903 Q32.6186 987.785 32.6186 993.028 Q32.6186 996.362 33.4172 999.521 Q34.2158 1002.68 35.813 1005.6 L29.9103 1005.6 Q28.5561 1002.09 27.8964 998.792 Q27.202 995.493 27.202 992.369 Q27.202 983.931 31.577 979.764 Q35.9519 975.598 44.8408 975.598 Z" fill="#000000" fill-rule="evenodd" fill-opacity="1" /><path clip-path="url(#clip220)" d="M29.2853 937.647 L35.3269 937.647 Q33.9381 940.355 33.2436 943.272 Q32.5492 946.188 32.5492 949.313 Q32.5492 954.07 34.0075 956.466 Q35.4658 958.827 38.3825 958.827 Q40.6047 958.827 41.8894 957.126 Q43.1394 955.424 44.2852 950.285 L44.7713 948.098 Q46.2297 941.292 48.9033 938.445 Q51.5421 935.563 56.299 935.563 Q61.7157 935.563 64.8754 939.869 Q68.0351 944.14 68.0351 951.64 Q68.0351 954.765 67.4101 958.167 Q66.8198 961.535 65.6046 965.285 L59.0074 965.285 Q60.8476 961.744 61.7851 958.306 Q62.6879 954.869 62.6879 951.501 Q62.6879 946.987 61.1601 944.556 Q59.5976 942.126 56.7852 942.126 Q54.181 942.126 52.7921 943.897 Q51.4032 945.633 50.1185 951.57 L49.5977 953.792 Q48.3477 959.73 45.7783 962.369 Q43.1741 965.008 38.6603 965.008 Q33.1742 965.008 30.1881 961.119 Q27.202 957.23 27.202 950.077 Q27.202 946.535 27.7228 943.41 Q28.2436 940.285 29.2853 937.647 Z" fill="#000000" fill-rule="evenodd" fill-opacity="1" /><path clip-path="url(#clip220)" d="M29.2853 900.598 L35.3269 900.598 Q33.9381 903.306 33.2436 906.223 Q32.5492 909.14 32.5492 912.265 Q32.5492 917.022 34.0075 919.418 Q35.4658 921.779 38.3825 921.779 Q40.6047 921.779 41.8894 920.077 Q43.1394 918.376 44.2852 913.237 L44.7713 911.049 Q46.2297 904.244 48.9033 901.397 Q51.5421 898.515 56.299 898.515 Q61.7157 898.515 64.8754 902.82 Q68.0351 907.091 68.0351 914.591 Q68.0351 917.716 67.4101 921.119 Q66.8198 924.487 65.6046 928.237 L59.0074 928.237 Q60.8476 924.695 61.7851 921.258 Q62.6879 917.82 62.6879 914.452 Q62.6879 909.938 61.1601 907.508 Q59.5976 905.077 56.7852 905.077 Q54.181 905.077 52.7921 906.848 Q51.4032 908.584 50.1185 914.522 L49.5977 916.744 Q48.3477 922.681 45.7783 925.32 Q43.1741 927.959 38.6603 927.959 Q33.1742 927.959 30.1881 924.07 Q27.202 920.181 27.202 913.029 Q27.202 909.487 27.7228 906.362 Q28.2436 903.237 29.2853 900.598 Z" fill="#000000" fill-rule="evenodd" fill-opacity="1" /><path clip-path="url(#clip220)" d="M61.1949 859.557 L81.8197 859.557 L81.8197 865.98 L28.1395 865.98 L28.1395 859.557 L34.0422 859.557 Q30.57 857.543 28.9034 854.487 Q27.202 851.397 27.202 847.126 Q27.202 840.043 32.827 835.633 Q38.4519 831.189 47.6185 831.189 Q56.7852 831.189 62.4101 835.633 Q68.0351 840.043 68.0351 847.126 Q68.0351 851.397 66.3684 854.487 Q64.6671 857.543 61.1949 859.557 M47.6185 837.821 Q40.57 837.821 36.5769 840.737 Q32.5492 843.619 32.5492 848.689 Q32.5492 853.758 36.5769 856.675 Q40.57 859.557 47.6185 859.557 Q54.6671 859.557 58.6949 856.675 Q62.6879 853.758 62.6879 848.689 Q62.6879 843.619 58.6949 840.737 Q54.6671 837.821 47.6185 837.821 Z" fill="#000000" fill-rule="evenodd" fill-opacity="1" /><path clip-path="url(#clip220)" d="M32.6186 805.529 Q32.6186 810.668 36.6464 813.654 Q40.6394 816.64 47.6185 816.64 Q54.5977 816.64 58.6254 813.689 Q62.6185 810.703 62.6185 805.529 Q62.6185 800.425 58.5907 797.439 Q54.5629 794.453 47.6185 794.453 Q40.7089 794.453 36.6811 797.439 Q32.6186 800.425 32.6186 805.529 M27.202 805.529 Q27.202 797.196 32.6186 792.439 Q38.0353 787.682 47.6185 787.682 Q57.1671 787.682 62.6185 792.439 Q68.0351 797.196 68.0351 805.529 Q68.0351 813.897 62.6185 818.654 Q57.1671 823.376 47.6185 823.376 Q38.0353 823.376 32.6186 818.654 Q27.202 813.897 27.202 805.529 Z" fill="#000000" fill-rule="evenodd" fill-opacity="1" /><path clip-path="url(#clip220)" d="M29.2853 752.3 L35.3269 752.3 Q33.9381 755.009 33.2436 757.925 Q32.5492 760.842 32.5492 763.967 Q32.5492 768.724 34.0075 771.12 Q35.4658 773.481 38.3825 773.481 Q40.6047 773.481 41.8894 771.779 Q43.1394 770.078 44.2852 764.939 L44.7713 762.752 Q46.2297 755.946 48.9033 753.099 Q51.5421 750.217 56.299 750.217 Q61.7157 750.217 64.8754 754.523 Q68.0351 758.793 68.0351 766.293 Q68.0351 769.418 67.4101 772.821 Q66.8198 776.189 65.6046 779.939 L59.0074 779.939 Q60.8476 776.397 61.7851 772.96 Q62.6879 769.522 62.6879 766.154 Q62.6879 761.641 61.1601 759.21 Q59.5976 756.779 56.7852 756.779 Q54.181 756.779 52.7921 758.55 Q51.4032 760.286 50.1185 766.224 L49.5977 768.446 Q48.3477 774.384 45.7783 777.022 Q43.1741 779.661 38.6603 779.661 Q33.1742 779.661 30.1881 775.772 Q27.202 771.884 27.202 764.731 Q27.202 761.189 27.7228 758.064 Q28.2436 754.939 29.2853 752.3 Z" fill="#000000" fill-rule="evenodd" fill-opacity="1" /><path clip-path="url(#clip220)" d="M28.1395 740.043 L28.1395 733.655 L67.0282 733.655 L67.0282 740.043 L28.1395 740.043 M13.0007 740.043 L13.0007 733.655 L21.0909 733.655 L21.0909 740.043 L13.0007 740.043 Z" fill="#000000" fill-rule="evenodd" fill-opacity="1" /><path clip-path="url(#clip220)" d="M17.0979 713.967 L28.1395 713.967 L28.1395 700.808 L33.1047 700.808 L33.1047 713.967 L54.2157 713.967 Q58.9726 713.967 60.3268 712.683 Q61.681 711.363 61.681 707.37 L61.681 700.808 L67.0282 700.808 L67.0282 707.37 Q67.0282 714.766 64.2851 717.578 Q61.5074 720.391 54.2157 720.391 L33.1047 720.391 L33.1047 725.078 L28.1395 725.078 L28.1395 720.391 L17.0979 720.391 L17.0979 713.967 Z" fill="#000000" fill-rule="evenodd" fill-opacity="1" /><path clip-path="url(#clip220)" d="M28.1395 692.405 L28.1395 686.016 L67.0282 686.016 L67.0282 692.405 L28.1395 692.405 M13.0007 692.405 L13.0007 686.016 L21.0909 686.016 L21.0909 692.405 L13.0007 692.405 Z" fill="#000000" fill-rule="evenodd" fill-opacity="1" /><path clip-path="url(#clip220)" d="M32.6186 657.579 Q32.6186 662.717 36.6464 665.704 Q40.6394 668.69 47.6185 668.69 Q54.5977 668.69 58.6254 665.738 Q62.6185 662.752 62.6185 657.579 Q62.6185 652.474 58.5907 649.488 Q54.5629 646.502 47.6185 646.502 Q40.7089 646.502 36.6811 649.488 Q32.6186 652.474 32.6186 657.579 M27.202 657.579 Q27.202 649.245 32.6186 644.488 Q38.0353 639.732 47.6185 639.732 Q57.1671 639.732 62.6185 644.488 Q68.0351 649.245 68.0351 657.579 Q68.0351 665.947 62.6185 670.704 Q57.1671 675.426 47.6185 675.426 Q38.0353 675.426 32.6186 670.704 Q27.202 665.947 27.202 657.579 Z" fill="#000000" fill-rule="evenodd" fill-opacity="1" /><path clip-path="url(#clip220)" d="M43.5561 596.815 L67.0282 596.815 L67.0282 603.204 L43.7644 603.204 Q38.2436 603.204 35.5005 605.357 Q32.7575 607.509 32.7575 611.815 Q32.7575 616.989 36.0561 619.975 Q39.3547 622.961 45.0491 622.961 L67.0282 622.961 L67.0282 629.384 L28.1395 629.384 L28.1395 622.961 L34.1811 622.961 Q30.6742 620.669 28.9381 617.579 Q27.202 614.454 27.202 610.391 Q27.202 603.69 31.3686 600.253 Q35.5005 596.815 43.5561 596.815 Z" fill="#000000" fill-rule="evenodd" fill-opacity="1" /><path clip-path="url(#clip220)" d="M13.0007 562.058 L13.0007 547.336 L17.9659 547.336 L17.9659 555.669 L71.4379 555.669 L71.4379 547.336 L76.4031 547.336 L76.4031 562.058 L13.0007 562.058 Z" fill="#000000" fill-rule="evenodd" fill-opacity="1" /><path clip-path="url(#clip220)" d="M35.6047 503.448 Q31.2992 501.052 29.2506 497.718 Q27.202 494.385 27.202 489.871 Q27.202 483.795 31.4728 480.496 Q35.7089 477.198 43.5561 477.198 L67.0282 477.198 L67.0282 483.621 L43.7644 483.621 Q38.1741 483.621 35.4658 485.6 Q32.7575 487.58 32.7575 491.642 Q32.7575 496.607 36.0561 499.489 Q39.3547 502.371 45.0491 502.371 L67.0282 502.371 L67.0282 508.795 L43.7644 508.795 Q38.1394 508.795 35.4658 510.774 Q32.7575 512.753 32.7575 516.885 Q32.7575 521.781 36.0908 524.663 Q39.3894 527.545 45.0491 527.545 L67.0282 527.545 L67.0282 533.968 L28.1395 533.968 L28.1395 527.545 L34.1811 527.545 Q30.6047 525.357 28.9034 522.302 Q27.202 519.246 27.202 515.045 Q27.202 510.809 29.3547 507.857 Q31.5075 504.871 35.6047 503.448 Z" fill="#000000" fill-rule="evenodd" fill-opacity="1" /><path clip-path="url(#clip220)" d="M13.0007 449.524 L76.4031 449.524 L76.4031 464.246 L71.4379 464.246 L71.4379 455.948 L17.9659 455.948 L17.9659 464.246 L13.0007 464.246 L13.0007 449.524 Z" fill="#000000" fill-rule="evenodd" fill-opacity="1" /><path clip-path="url(#clip220)" d="M592.343 12.096 L604.537 12.096 L619.971 53.2532 L635.486 12.096 L647.679 12.096 L647.679 72.576 L639.699 72.576 L639.699 19.4686 L624.103 60.9499 L615.879 60.9499 L600.283 19.4686 L600.283 72.576 L592.343 72.576 L592.343 12.096 Z" fill="#000000" fill-rule="evenodd" fill-opacity="1" /><path clip-path="url(#clip220)" d="M681.18 32.4315 Q675.184 32.4315 671.701 37.1306 Q668.217 41.7891 668.217 49.9314 Q668.217 58.0738 671.66 62.7728 Q675.144 67.4314 681.18 67.4314 Q687.135 67.4314 690.618 62.7323 Q694.102 58.0333 694.102 49.9314 Q694.102 41.8701 690.618 37.1711 Q687.135 32.4315 681.18 32.4315 M681.18 26.1121 Q690.902 26.1121 696.452 32.4315 Q702.001 38.7509 702.001 49.9314 Q702.001 61.0714 696.452 67.4314 Q690.902 73.7508 681.18 73.7508 Q671.417 73.7508 665.867 67.4314 Q660.358 61.0714 660.358 49.9314 Q660.358 38.7509 665.867 32.4315 Q671.417 26.1121 681.18 26.1121 Z" fill="#000000" fill-rule="evenodd" fill-opacity="1" /><path clip-path="url(#clip220)" d="M744.212 34.0924 L744.212 9.54393 L751.666 9.54393 L751.666 72.576 L744.212 72.576 L744.212 65.7705 Q741.862 69.8214 738.257 71.8063 Q734.692 73.7508 729.669 73.7508 Q721.446 73.7508 716.261 67.1883 Q711.116 60.6258 711.116 49.9314 Q711.116 39.2371 716.261 32.6746 Q721.446 26.1121 729.669 26.1121 Q734.692 26.1121 738.257 28.0971 Q741.862 30.0415 744.212 34.0924 M718.813 49.9314 Q718.813 58.1548 722.175 62.8538 Q725.578 67.5124 731.492 67.5124 Q737.406 67.5124 740.809 62.8538 Q744.212 58.1548 744.212 49.9314 Q744.212 41.7081 740.809 37.0496 Q737.406 32.3505 731.492 32.3505 Q725.578 32.3505 722.175 37.0496 Q718.813 41.7081 718.813 49.9314 Z" fill="#000000" fill-rule="evenodd" fill-opacity="1" /><path clip-path="url(#clip220)" d="M767.018 27.2059 L774.472 27.2059 L774.472 72.576 L767.018 72.576 L767.018 27.2059 M767.018 9.54393 L774.472 9.54393 L774.472 18.9825 L767.018 18.9825 L767.018 9.54393 Z" fill="#000000" fill-rule="evenodd" fill-opacity="1" /><path clip-path="url(#clip220)" d="M813.037 9.54393 L813.037 15.7418 L805.907 15.7418 Q801.897 15.7418 800.317 17.3622 Q798.778 18.9825 798.778 23.1955 L798.778 27.2059 L811.052 27.2059 L811.052 32.9987 L798.778 32.9987 L798.778 72.576 L791.283 72.576 L791.283 32.9987 L784.154 32.9987 L784.154 27.2059 L791.283 27.2059 L791.283 24.0462 Q791.283 16.471 794.808 13.0277 Q798.332 9.54393 805.988 9.54393 L813.037 9.54393 Z" fill="#000000" fill-rule="evenodd" fill-opacity="1" /><path clip-path="url(#clip220)" d="M819.275 27.2059 L826.729 27.2059 L826.729 72.576 L819.275 72.576 L819.275 27.2059 M819.275 9.54393 L826.729 9.54393 L826.729 18.9825 L819.275 18.9825 L819.275 9.54393 Z" fill="#000000" fill-rule="evenodd" fill-opacity="1" /><path clip-path="url(#clip220)" d="M881.132 48.0275 L881.132 51.6733 L846.862 51.6733 Q847.348 59.3701 851.48 63.421 Q855.652 67.4314 863.065 67.4314 Q867.359 67.4314 871.37 66.3781 Q875.421 65.3249 879.391 63.2184 L879.391 70.267 Q875.38 71.9684 871.167 72.8596 Q866.954 73.7508 862.62 73.7508 Q851.763 73.7508 845.403 67.4314 Q839.084 61.1119 839.084 50.3365 Q839.084 39.1965 845.079 32.6746 Q851.115 26.1121 861.323 26.1121 Q870.479 26.1121 875.785 32.0264 Q881.132 37.9003 881.132 48.0275 M873.679 45.84 Q873.598 39.7232 870.235 36.0774 Q866.914 32.4315 861.405 32.4315 Q855.166 32.4315 851.399 35.9558 Q847.672 39.4801 847.105 45.8805 L873.679 45.84 Z" fill="#000000" fill-rule="evenodd" fill-opacity="1" /><path clip-path="url(#clip220)" d="M923.221 34.0924 L923.221 9.54393 L930.675 9.54393 L930.675 72.576 L923.221 72.576 L923.221 65.7705 Q920.872 69.8214 917.266 71.8063 Q913.702 73.7508 908.679 73.7508 Q900.455 73.7508 895.27 67.1883 Q890.125 60.6258 890.125 49.9314 Q890.125 39.2371 895.27 32.6746 Q900.455 26.1121 908.679 26.1121 Q913.702 26.1121 917.266 28.0971 Q920.872 30.0415 923.221 34.0924 M897.822 49.9314 Q897.822 58.1548 901.184 62.8538 Q904.587 67.5124 910.501 67.5124 Q916.416 67.5124 919.819 62.8538 Q923.221 58.1548 923.221 49.9314 Q923.221 41.7081 919.819 37.0496 Q916.416 32.3505 910.501 32.3505 Q904.587 32.3505 901.184 37.0496 Q897.822 41.7081 897.822 49.9314 Z" fill="#000000" fill-rule="evenodd" fill-opacity="1" /><path clip-path="url(#clip220)" d="M947.932 62.2867 L956.479 62.2867 L956.479 72.576 L947.932 72.576 L947.932 62.2867 M947.932 29.6769 L956.479 29.6769 L956.479 39.9662 L947.932 39.9662 L947.932 29.6769 Z" fill="#000000" fill-rule="evenodd" fill-opacity="1" /><path clip-path="url(#clip220)" d="M1000.67 12.096 L1012.87 12.096 L1028.3 53.2532 L1043.82 12.096 L1056.01 12.096 L1056.01 72.576 L1048.03 72.576 L1048.03 19.4686 L1032.43 60.9499 L1024.21 60.9499 L1008.61 19.4686 L1008.61 72.576 L1000.67 72.576 L1000.67 12.096 Z" fill="#000000" fill-rule="evenodd" fill-opacity="1" /><path clip-path="url(#clip220)" d="M1092.55 49.7694 Q1083.52 49.7694 1080.03 51.8354 Q1076.55 53.9013 1076.55 58.8839 Q1076.55 62.8538 1079.14 65.2034 Q1081.77 67.5124 1086.27 67.5124 Q1092.47 67.5124 1096.19 63.1374 Q1099.96 58.7219 1099.96 51.4303 L1099.96 49.7694 L1092.55 49.7694 M1107.42 46.6907 L1107.42 72.576 L1099.96 72.576 L1099.96 65.6895 Q1097.41 69.8214 1093.6 71.8063 Q1089.79 73.7508 1084.29 73.7508 Q1077.32 73.7508 1073.19 69.8619 Q1069.09 65.9325 1069.09 59.3701 Q1069.09 51.7138 1074.2 47.825 Q1079.34 43.9361 1089.51 43.9361 L1099.96 43.9361 L1099.96 43.2069 Q1099.96 38.0623 1096.56 35.2672 Q1093.2 32.4315 1087.08 32.4315 Q1083.19 32.4315 1079.51 33.3632 Q1075.82 34.295 1072.42 36.1584 L1072.42 29.2718 Q1076.51 27.692 1080.36 26.9223 Q1084.2 26.1121 1087.85 26.1121 Q1097.69 26.1121 1102.55 31.2163 Q1107.42 36.3204 1107.42 46.6907 Z" fill="#000000" fill-rule="evenodd" fill-opacity="1" /><path clip-path="url(#clip220)" d="M1151.69 28.5427 L1151.69 35.5912 Q1148.53 33.9709 1145.13 33.1607 Q1141.73 32.3505 1138.08 32.3505 Q1132.53 32.3505 1129.74 34.0519 Q1126.98 35.7533 1126.98 39.156 Q1126.98 41.7486 1128.97 43.2475 Q1130.95 44.7058 1136.95 46.0426 L1139.5 46.6097 Q1147.44 48.3111 1150.76 51.4303 Q1154.12 54.509 1154.12 60.0587 Q1154.12 66.3781 1149.1 70.0644 Q1144.12 73.7508 1135.37 73.7508 Q1131.72 73.7508 1127.75 73.0216 Q1123.82 72.3329 1119.45 70.9151 L1119.45 63.2184 Q1123.58 65.3654 1127.59 66.4591 Q1131.6 67.5124 1135.53 67.5124 Q1140.8 67.5124 1143.63 65.73 Q1146.47 63.9071 1146.47 60.6258 Q1146.47 57.5877 1144.4 55.9673 Q1142.38 54.3469 1135.45 52.8481 L1132.86 52.2405 Q1125.93 50.7821 1122.85 47.7845 Q1119.77 44.7463 1119.77 39.4801 Q1119.77 33.0797 1124.31 29.5959 Q1128.85 26.1121 1137.19 26.1121 Q1141.32 26.1121 1144.97 26.7198 Q1148.61 27.3274 1151.69 28.5427 Z" fill="#000000" fill-rule="evenodd" fill-opacity="1" /><path clip-path="url(#clip220)" d="M1194.92 28.5427 L1194.92 35.5912 Q1191.76 33.9709 1188.35 33.1607 Q1184.95 32.3505 1181.3 32.3505 Q1175.75 32.3505 1172.96 34.0519 Q1170.2 35.7533 1170.2 39.156 Q1170.2 41.7486 1172.19 43.2475 Q1174.17 44.7058 1180.17 46.0426 L1182.72 46.6097 Q1190.66 48.3111 1193.98 51.4303 Q1197.35 54.509 1197.35 60.0587 Q1197.35 66.3781 1192.32 70.0644 Q1187.34 73.7508 1178.59 73.7508 Q1174.94 73.7508 1170.97 73.0216 Q1167.05 72.3329 1162.67 70.9151 L1162.67 63.2184 Q1166.8 65.3654 1170.81 66.4591 Q1174.82 67.5124 1178.75 67.5124 Q1184.02 67.5124 1186.85 65.73 Q1189.69 63.9071 1189.69 60.6258 Q1189.69 57.5877 1187.62 55.9673 Q1185.6 54.3469 1178.67 52.8481 L1176.08 52.2405 Q1169.15 50.7821 1166.07 47.7845 Q1162.99 44.7463 1162.99 39.4801 Q1162.99 33.0797 1167.53 29.5959 Q1172.07 26.1121 1180.41 26.1121 Q1184.55 26.1121 1188.19 26.7198 Q1191.84 27.3274 1194.92 28.5427 Z" fill="#000000" fill-rule="evenodd" fill-opacity="1" /><path clip-path="url(#clip220)" d="M1242.8 65.7705 L1242.8 89.8329 L1235.3 89.8329 L1235.3 27.2059 L1242.8 27.2059 L1242.8 34.0924 Q1245.15 30.0415 1248.71 28.0971 Q1252.32 26.1121 1257.3 26.1121 Q1265.56 26.1121 1270.71 32.6746 Q1275.89 39.2371 1275.89 49.9314 Q1275.89 60.6258 1270.71 67.1883 Q1265.56 73.7508 1257.3 73.7508 Q1252.32 73.7508 1248.71 71.8063 Q1245.15 69.8214 1242.8 65.7705 M1268.16 49.9314 Q1268.16 41.7081 1264.75 37.0496 Q1261.39 32.3505 1255.48 32.3505 Q1249.56 32.3505 1246.16 37.0496 Q1242.8 41.7081 1242.8 49.9314 Q1242.8 58.1548 1246.16 62.8538 Q1249.56 67.5124 1255.48 67.5124 Q1261.39 67.5124 1264.75 62.8538 Q1268.16 58.1548 1268.16 49.9314 Z" fill="#000000" fill-rule="evenodd" fill-opacity="1" /><path clip-path="url(#clip220)" d="M1305.83 32.4315 Q1299.83 32.4315 1296.35 37.1306 Q1292.87 41.7891 1292.87 49.9314 Q1292.87 58.0738 1296.31 62.7728 Q1299.79 67.4314 1305.83 67.4314 Q1311.78 67.4314 1315.27 62.7323 Q1318.75 58.0333 1318.75 49.9314 Q1318.75 41.8701 1315.27 37.1711 Q1311.78 32.4315 1305.83 32.4315 M1305.83 26.1121 Q1315.55 26.1121 1321.1 32.4315 Q1326.65 38.7509 1326.65 49.9314 Q1326.65 61.0714 1321.1 67.4314 Q1315.55 73.7508 1305.83 73.7508 Q1296.07 73.7508 1290.52 67.4314 Q1285.01 61.0714 1285.01 49.9314 Q1285.01 38.7509 1290.52 32.4315 Q1296.07 26.1121 1305.83 26.1121 Z" fill="#000000" fill-rule="evenodd" fill-opacity="1" /><path clip-path="url(#clip220)" d="M1367.93 28.5427 L1367.93 35.5912 Q1364.77 33.9709 1361.37 33.1607 Q1357.96 32.3505 1354.32 32.3505 Q1348.77 32.3505 1345.97 34.0519 Q1343.22 35.7533 1343.22 39.156 Q1343.22 41.7486 1345.2 43.2475 Q1347.19 44.7058 1353.18 46.0426 L1355.74 46.6097 Q1363.68 48.3111 1367 51.4303 Q1370.36 54.509 1370.36 60.0587 Q1370.36 66.3781 1365.34 70.0644 Q1360.35 73.7508 1351.6 73.7508 Q1347.96 73.7508 1343.99 73.0216 Q1340.06 72.3329 1335.68 70.9151 L1335.68 63.2184 Q1339.82 65.3654 1343.83 66.4591 Q1347.84 67.5124 1351.77 67.5124 Q1357.03 67.5124 1359.87 65.73 Q1362.7 63.9071 1362.7 60.6258 Q1362.7 57.5877 1360.64 55.9673 Q1358.61 54.3469 1351.69 52.8481 L1349.09 52.2405 Q1342.17 50.7821 1339.09 47.7845 Q1336.01 44.7463 1336.01 39.4801 Q1336.01 33.0797 1340.55 29.5959 Q1345.08 26.1121 1353.43 26.1121 Q1357.56 26.1121 1361.21 26.7198 Q1364.85 27.3274 1367.93 28.5427 Z" fill="#000000" fill-rule="evenodd" fill-opacity="1" /><path clip-path="url(#clip220)" d="M1382.23 27.2059 L1389.68 27.2059 L1389.68 72.576 L1382.23 72.576 L1382.23 27.2059 M1382.23 9.54393 L1389.68 9.54393 L1389.68 18.9825 L1382.23 18.9825 L1382.23 9.54393 Z" fill="#000000" fill-rule="evenodd" fill-opacity="1" /><path clip-path="url(#clip220)" d="M1412.65 14.324 L1412.65 27.2059 L1428 27.2059 L1428 32.9987 L1412.65 32.9987 L1412.65 57.6282 Q1412.65 63.1779 1414.15 64.7578 Q1415.69 66.3376 1420.35 66.3376 L1428 66.3376 L1428 72.576 L1420.35 72.576 Q1411.72 72.576 1408.44 69.3758 Q1405.16 66.1351 1405.16 57.6282 L1405.16 32.9987 L1399.69 32.9987 L1399.69 27.2059 L1405.16 27.2059 L1405.16 14.324 L1412.65 14.324 Z" fill="#000000" fill-rule="evenodd" fill-opacity="1" /><path clip-path="url(#clip220)" d="M1437.81 27.2059 L1445.26 27.2059 L1445.26 72.576 L1437.81 72.576 L1437.81 27.2059 M1437.81 9.54393 L1445.26 9.54393 L1445.26 18.9825 L1437.81 18.9825 L1437.81 9.54393 Z" fill="#000000" fill-rule="evenodd" fill-opacity="1" /><path clip-path="url(#clip220)" d="M1478.44 32.4315 Q1472.44 32.4315 1468.96 37.1306 Q1465.48 41.7891 1465.48 49.9314 Q1465.48 58.0738 1468.92 62.7728 Q1472.4 67.4314 1478.44 67.4314 Q1484.39 67.4314 1487.88 62.7323 Q1491.36 58.0333 1491.36 49.9314 Q1491.36 41.8701 1487.88 37.1711 Q1484.39 32.4315 1478.44 32.4315 M1478.44 26.1121 Q1488.16 26.1121 1493.71 32.4315 Q1499.26 38.7509 1499.26 49.9314 Q1499.26 61.0714 1493.71 67.4314 Q1488.16 73.7508 1478.44 73.7508 Q1468.68 73.7508 1463.13 67.4314 Q1457.62 61.0714 1457.62 49.9314 Q1457.62 38.7509 1463.13 32.4315 Q1468.68 26.1121 1478.44 26.1121 Z" fill="#000000" fill-rule="evenodd" fill-opacity="1" /><path clip-path="url(#clip220)" d="M1549.33 45.1919 L1549.33 72.576 L1541.88 72.576 L1541.88 45.4349 Q1541.88 38.994 1539.36 35.7938 Q1536.85 32.5936 1531.83 32.5936 Q1525.79 32.5936 1522.31 36.4419 Q1518.83 40.2903 1518.83 46.9338 L1518.83 72.576 L1511.33 72.576 L1511.33 27.2059 L1518.83 27.2059 L1518.83 34.2544 Q1521.5 30.163 1525.1 28.1376 Q1528.75 26.1121 1533.49 26.1121 Q1541.31 26.1121 1545.32 30.9732 Q1549.33 35.7938 1549.33 45.1919 Z" fill="#000000" fill-rule="evenodd" fill-opacity="1" /><path clip-path="url(#clip220)" d="M1611.19 49.7694 Q1602.15 49.7694 1598.67 51.8354 Q1595.19 53.9013 1595.19 58.8839 Q1595.19 62.8538 1597.78 65.2034 Q1600.41 67.5124 1604.91 67.5124 Q1611.11 67.5124 1614.83 63.1374 Q1618.6 58.7219 1618.6 51.4303 L1618.6 49.7694 L1611.19 49.7694 M1626.05 46.6907 L1626.05 72.576 L1618.6 72.576 L1618.6 65.6895 Q1616.05 69.8214 1612.24 71.8063 Q1608.43 73.7508 1602.92 73.7508 Q1595.95 73.7508 1591.82 69.8619 Q1587.73 65.9325 1587.73 59.3701 Q1587.73 51.7138 1592.84 47.825 Q1597.98 43.9361 1608.15 43.9361 L1618.6 43.9361 L1618.6 43.2069 Q1618.6 38.0623 1615.2 35.2672 Q1611.83 32.4315 1605.72 32.4315 Q1601.83 32.4315 1598.14 33.3632 Q1594.46 34.295 1591.05 36.1584 L1591.05 29.2718 Q1595.14 27.692 1598.99 26.9223 Q1602.84 26.1121 1606.49 26.1121 Q1616.33 26.1121 1621.19 31.2163 Q1626.05 36.3204 1626.05 46.6907 Z" fill="#000000" fill-rule="evenodd" fill-opacity="1" /><path clip-path="url(#clip220)" d="M1664.37 9.54393 L1664.37 15.7418 L1657.25 15.7418 Q1653.23 15.7418 1651.65 17.3622 Q1650.12 18.9825 1650.12 23.1955 L1650.12 27.2059 L1662.39 27.2059 L1662.39 32.9987 L1650.12 32.9987 L1650.12 72.576 L1642.62 72.576 L1642.62 32.9987 L1635.49 32.9987 L1635.49 27.2059 L1642.62 27.2059 L1642.62 24.0462 Q1642.62 16.471 1646.15 13.0277 Q1649.67 9.54393 1657.33 9.54393 L1664.37 9.54393 Z" fill="#000000" fill-rule="evenodd" fill-opacity="1" /><path clip-path="url(#clip220)" d="M1676.53 14.324 L1676.53 27.2059 L1691.88 27.2059 L1691.88 32.9987 L1676.53 32.9987 L1676.53 57.6282 Q1676.53 63.1779 1678.03 64.7578 Q1679.57 66.3376 1684.22 66.3376 L1691.88 66.3376 L1691.88 72.576 L1684.22 72.576 Q1675.6 72.576 1672.31 69.3758 Q1669.03 66.1351 1669.03 57.6282 L1669.03 32.9987 L1663.56 32.9987 L1663.56 27.2059 L1669.03 27.2059 L1669.03 14.324 L1676.53 14.324 Z" fill="#000000" fill-rule="evenodd" fill-opacity="1" /><path clip-path="url(#clip220)" d="M1740.49 48.0275 L1740.49 51.6733 L1706.22 51.6733 Q1706.71 59.3701 1710.84 63.421 Q1715.01 67.4314 1722.42 67.4314 Q1726.72 67.4314 1730.73 66.3781 Q1734.78 65.3249 1738.75 63.2184 L1738.75 70.267 Q1734.74 71.9684 1730.53 72.8596 Q1726.31 73.7508 1721.98 73.7508 Q1711.12 73.7508 1704.76 67.4314 Q1698.44 61.1119 1698.44 50.3365 Q1698.44 39.1965 1704.44 32.6746 Q1710.47 26.1121 1720.68 26.1121 Q1729.84 26.1121 1735.14 32.0264 Q1740.49 37.9003 1740.49 48.0275 M1733.04 45.84 Q1732.96 39.7232 1729.59 36.0774 Q1726.27 32.4315 1720.76 32.4315 Q1714.52 32.4315 1710.76 35.9558 Q1707.03 39.4801 1706.46 45.8805 L1733.04 45.84 Z" fill="#000000" fill-rule="evenodd" fill-opacity="1" /><path clip-path="url(#clip220)" d="M1779.02 34.1734 Q1777.76 33.4443 1776.26 33.1202 Q1774.8 32.7556 1773.02 32.7556 Q1766.7 32.7556 1763.3 36.8875 Q1759.94 40.9789 1759.94 48.6757 L1759.94 72.576 L1752.44 72.576 L1752.44 27.2059 L1759.94 27.2059 L1759.94 34.2544 Q1762.29 30.1225 1766.05 28.1376 Q1769.82 26.1121 1775.21 26.1121 Q1775.98 26.1121 1776.91 26.2337 Q1777.84 26.3147 1778.97 26.5172 L1779.02 34.1734 Z" fill="#000000" fill-rule="evenodd" fill-opacity="1" /><path clip-path="url(#clip220)" d="M1842.21 44.2197 Q1844.84 45.1109 1847.31 48.0275 Q1849.83 50.9442 1852.34 56.0483 L1860.64 72.576 L1851.85 72.576 L1844.11 57.061 Q1841.12 50.9847 1838.28 48.9997 Q1835.48 47.0148 1830.62 47.0148 L1821.71 47.0148 L1821.71 72.576 L1813.53 72.576 L1813.53 12.096 L1832 12.096 Q1842.37 12.096 1847.48 16.4305 Q1852.58 20.7649 1852.58 29.5149 Q1852.58 35.2267 1849.91 38.994 Q1847.27 42.7613 1842.21 44.2197 M1821.71 18.8205 L1821.71 40.2903 L1832 40.2903 Q1837.92 40.2903 1840.91 37.5762 Q1843.95 34.8216 1843.95 29.5149 Q1843.95 24.2082 1840.91 21.5346 Q1837.92 18.8205 1832 18.8205 L1821.71 18.8205 Z" fill="#000000" fill-rule="evenodd" fill-opacity="1" /><path clip-path="url(#clip220)" d="M1866.35 54.671 L1866.35 27.2059 L1873.81 27.2059 L1873.81 54.3874 Q1873.81 60.8284 1876.32 64.0691 Q1878.83 67.2693 1883.85 67.2693 Q1889.89 67.2693 1893.37 63.421 Q1896.9 59.5726 1896.9 52.9291 L1896.9 27.2059 L1904.35 27.2059 L1904.35 72.576 L1896.9 72.576 L1896.9 65.6084 Q1894.18 69.7404 1890.58 71.7658 Q1887.01 73.7508 1882.27 73.7508 Q1874.45 73.7508 1870.4 68.8897 Q1866.35 64.0286 1866.35 54.671 M1885.11 26.1121 L1885.11 26.1121 Z" fill="#000000" fill-rule="evenodd" fill-opacity="1" /><path clip-path="url(#clip220)" d="M1957.42 45.1919 L1957.42 72.576 L1949.96 72.576 L1949.96 45.4349 Q1949.96 38.994 1947.45 35.7938 Q1944.94 32.5936 1939.92 32.5936 Q1933.88 32.5936 1930.4 36.4419 Q1926.91 40.2903 1926.91 46.9338 L1926.91 72.576 L1919.42 72.576 L1919.42 27.2059 L1926.91 27.2059 L1926.91 34.2544 Q1929.59 30.163 1933.19 28.1376 Q1936.84 26.1121 1941.58 26.1121 Q1949.4 26.1121 1953.41 30.9732 Q1957.42 35.7938 1957.42 45.1919 Z" fill="#000000" fill-rule="evenodd" fill-opacity="1" /><path clip-path="url(#clip220)" d="M1974.19 62.2867 L1982.74 62.2867 L1982.74 72.576 L1974.19 72.576 L1974.19 62.2867 M1974.19 29.6769 L1982.74 29.6769 L1982.74 39.9662 L1974.19 39.9662 L1974.19 29.6769 Z" fill="#000000" fill-rule="evenodd" fill-opacity="1" /><path clip-path="url(#clip220)" d="M2029.08 65.6895 L2042.45 65.6895 L2042.45 19.5497 L2027.9 22.4663 L2027.9 15.0127 L2042.36 12.096 L2050.55 12.096 L2050.55 65.6895 L2063.92 65.6895 L2063.92 72.576 L2029.08 72.576 L2029.08 65.6895 Z" fill="#000000" fill-rule="evenodd" fill-opacity="1" /><polyline clip-path="url(#clip222)" style="stroke:#009af9; stroke-linecap:round; stroke-linejoin:round; stroke-width:8; stroke-opacity:1; fill:none" points="
  361.501,820.758 366.334,837.632 371.167,854.386 376,870.994 380.833,887.437 385.666,903.682 390.5,919.742 395.333,935.578 400.166,951.194 404.999,966.561 
  409.832,981.672 414.665,996.511 419.498,1011.06 424.332,1025.31 429.165,1039.23 433.998,1052.84 438.831,1066.09 443.664,1078.98 448.497,1091.51 453.33,1103.67 
  458.164,1115.42 462.997,1126.78 467.83,1137.72 472.663,1148.23 477.496,1158.31 482.329,1167.93 487.162,1177.1 491.996,1185.8 496.829,1194.03 501.662,1201.76 
  506.495,1209 511.328,1215.75 516.161,1221.98 520.994,1227.7 525.828,1232.9 530.661,1237.58 535.494,1241.72 540.327,1245.34 545.16,1248.41 549.993,1250.95 
  554.826,1252.93 559.66,1254.38 564.493,1255.28 569.326,1255.63 574.159,1255.43 578.992,1254.69 583.825,1253.4 588.658,1251.56 593.492,1249.18 598.325,1246.26 
  603.158,1242.8 607.991,1238.81 612.824,1234.28 617.657,1229.23 622.49,1223.65 627.324,1217.57 632.157,1210.97 636.99,1203.86 641.823,1196.26 646.656,1188.18 
  651.489,1179.61 656.322,1170.58 661.156,1161.08 665.989,1151.12 670.822,1140.72 675.655,1129.89 680.488,1118.64 685.321,1106.97 690.154,1094.9 694.988,1082.44 
  699.821,1069.61 704.654,1056.42 709.487,1042.88 714.32,1029 719.153,1014.8 723.986,1000.29 728.82,985.484 733.653,970.403 738.486,955.059 743.319,939.468 
  748.152,923.645 752.985,907.604 757.818,891.363 762.652,874.939 767.485,858.349 772.318,841.609 777.151,824.733 781.984,807.74 786.817,790.647 791.65,773.471 
  796.484,756.232 801.317,738.943 806.15,721.621 810.983,704.286 815.816,686.955 820.649,669.645 825.482,652.374 830.316,635.154 835.149,618.006 839.982,600.947 
  844.815,583.993 849.648,567.164 854.481,550.475 859.314,533.945 864.148,517.591 868.981,501.424 873.814,485.457 878.647,469.711 883.48,454.203 888.313,438.949 
  893.147,423.965 897.98,409.267 902.813,394.87 907.646,380.791 912.479,367.029 917.312,353.608 922.145,340.542 926.979,327.844 931.812,315.526 936.645,303.603 
  941.478,292.087 946.311,280.988 951.144,270.318 955.977,260.084 960.811,250.298 965.644,240.971 970.477,232.112 975.31,223.73 980.143,215.832 984.976,208.426 
  989.809,201.52 994.643,195.122 999.476,189.239 1004.31,183.875 1009.14,179.036 1013.98,174.725 1018.81,170.947 1023.64,167.705 1028.47,165.002 1033.31,162.84 
  1038.14,161.228 1042.97,160.163 1047.81,159.645 1052.64,159.675 1057.47,160.253 1062.31,161.377 1067.14,163.046 1071.97,165.259 1076.81,168.014 1081.64,171.312 
  1086.47,175.146 1091.31,179.512 1096.14,184.406 1100.97,189.823 1105.8,195.757 1110.64,202.202 1115.47,209.151 1120.3,216.602 1125.14,224.544 1129.97,232.969 
  1134.8,241.869 1139.64,251.234 1144.47,261.056 1149.3,271.324 1154.14,282.026 1158.97,293.155 1163.8,304.701 1168.64,316.65 1173.47,328.99 1178.3,341.709 
  1183.14,354.794 1187.97,368.23 1192.8,382.006 1197.63,396.105 1202.47,410.518 1207.3,425.23 1212.13,440.225 1216.97,455.487 1221.8,471 1226.63,486.75 
  1231.47,502.72 1236.3,518.894 1241.13,535.255 1245.97,551.792 1250.8,568.485 1255.63,585.316 1260.47,602.27 1265.3,619.329 1270.13,636.476 1274.96,653.692 
  1279.8,670.962 1284.63,688.269 1289.46,705.597 1294.3,722.926 1299.13,740.24 1303.96,757.521 1308.8,774.751 1313.63,791.915 1318.46,808.993 1323.3,825.97 
  1328.13,842.828 1332.96,859.552 1337.8,876.123 1342.63,892.526 1347.46,908.744 1352.3,924.761 1357.13,940.56 1361.96,956.126 1366.79,971.443 1371.63,986.497 
  1376.46,1001.27 1381.29,1015.75 1386.13,1029.92 1390.96,1043.77 1395.79,1057.29 1400.63,1070.45 1405.46,1083.25 1410.29,1095.68 1415.13,1107.72 1419.96,1119.35 
  1424.79,1130.58 1429.63,1141.38 1434.46,1151.75 1439.29,1161.67 1444.12,1171.14 1448.96,1180.15 1453.79,1188.69 1458.62,1196.74 1463.46,1204.3 1468.29,1211.37 
  1473.12,1217.93 1477.96,1223.98 1482.79,1229.52 1487.62,1234.53 1492.46,1239.02 1497.29,1242.98 1502.12,1246.4 1506.96,1249.28 1511.79,1251.62 1516.62,1253.41 
  1521.46,1254.66 1526.29,1255.37 1531.12,1255.52 1535.95,1255.13 1540.79,1254.19 1545.62,1252.7 1550.45,1250.67 1555.29,1248.09 1560.12,1244.98 1564.95,1241.33 
  1569.79,1237.14 1574.62,1232.43 1579.45,1227.19 1584.29,1221.43 1589.12,1215.15 1593.95,1208.37 1598.79,1201.09 1603.62,1193.31 1608.45,1185.05 1613.28,1176.32 
  1618.12,1167.11 1622.95,1157.45 1627.78,1147.33 1632.62,1136.77 1637.45,1125.79 1642.28,1114.39 1647.12,1102.58 1651.95,1090.38 1656.78,1077.79 1661.62,1064.84 
  1666.45,1051.52 1671.28,1037.87 1676.12,1023.88 1680.95,1009.58 1685.78,994.972 1690.62,980.081 1695.45,964.92 1700.28,949.501 1705.11,933.838 1709.95,917.949 
  1714.78,901.85 1719.61,885.558 1724.45,869.088 1729.28,852.457 1734.11,835.683 1738.95,818.782 1743.78,801.768 1748.61,784.659 1753.45,767.474 1758.28,750.23 
  1763.11,732.943 1767.95,715.632 1772.78,698.313 1777.61,681.005 1782.44,663.724 1787.28,646.485 1792.11,629.308 1796.94,612.21 1801.78,595.208 1806.61,578.318 
  1811.44,561.558 1816.28,544.945 1821.11,528.495 1825.94,512.225 1830.78,496.15 1835.61,480.287 1840.44,464.651 1845.28,449.259 1850.11,434.125 1854.94,419.266 
  1859.78,404.695 1864.61,390.427 1869.44,376.477 1874.27,362.859 1879.11,349.586 1883.94,336.671 1888.77,324.127 1893.61,311.967 1898.44,300.203 1903.27,288.846 
  1908.11,277.909 1912.94,267.402 1917.77,257.337 1922.61,247.721 1927.44,238.566 1932.27,229.88 1937.11,221.672 1941.94,213.949 1946.77,206.72 1951.6,199.993 
  1956.44,193.775 1961.27,188.071 1966.1,182.887 1970.94,178.228 1975.77,174.098 1980.6,170.501 1985.44,167.44 1990.27,164.92 1995.1,162.945 1999.94,161.516 
  2004.77,160.632 2009.6,160.296 2014.44,160.507 2019.27,161.264 2024.1,162.568 2028.94,164.415 2033.77,166.807 2038.6,169.742 2043.43,173.215 2048.27,177.223 
  2053.1,181.761 2057.93,186.824 2062.77,192.408 2067.6,198.506 2072.43,205.111 2077.27,212.223 2082.1,219.831 2086.93,227.927 2091.77,236.503 2096.6,245.549 
  2101.43,255.057 2106.27,265.017 2111.1,275.418 2115.93,286.251 2120.77,297.509 2125.6,309.177 2130.43,321.244 2135.26,333.697 2140.1,346.523 2144.93,359.71 
  2149.76,373.243 2154.6,387.11 2159.43,401.3 2164.26,415.796 2169.1,430.585 2173.93,445.651 2178.76,460.979 2183.6,476.552 2188.43,492.356 2193.26,508.374 
  2198.1,524.591 2202.93,540.994 2207.76,557.563 2212.59,574.282 2217.43,591.134 2222.26,608.102 2227.09,625.17 2231.93,642.319 2236.76,659.533 2241.59,676.795 
  2246.43,694.089 2251.26,711.397 2256.09,728.701 2260.93,745.983 2265.76,763.227 2270.59,780.415 2275.43,797.529 2280.26,814.553 2285.09,831.471 2289.93,848.265 
  2294.76,864.918 
  "/>
<polyline clip-path="url(#clip222)" style="stroke:#e26f46; stroke-linecap:round; stroke-linejoin:round; stroke-width:8; stroke-opacity:1; fill:none" points="
  361.501,820.758 366.334,837.679 371.167,854.546 376,871.338 380.833,888.039 385.666,904.614 390.5,921.079 395.333,937.388 400.166,953.552 404.999,969.534 
  409.832,985.336 414.665,1000.93 419.498,1016.31 424.332,1031.47 429.165,1046.39 433.998,1061.04 438.831,1075.42 443.664,1089.51 448.497,1103.28 453.33,1116.74 
  458.164,1129.85 462.997,1142.61 467.83,1155.01 472.663,1167.03 477.496,1178.66 482.329,1189.89 487.162,1200.71 491.996,1211.1 496.829,1221.06 501.662,1230.58 
  506.495,1239.64 511.328,1248.25 516.161,1256.38 520.994,1264.03 525.828,1271.19 530.661,1277.85 535.494,1284.01 540.327,1289.66 545.16,1294.78 549.993,1299.37 
  554.826,1303.43 559.66,1306.94 564.493,1309.9 569.326,1312.31 574.159,1314.16 578.992,1315.45 583.825,1316.16 588.658,1316.29 593.492,1315.96 598.325,1315.22 
  603.158,1314.07 607.991,1312.5 612.824,1310.51 617.657,1308.1 622.49,1305.27 627.324,1302.02 632.157,1298.35 636.99,1294.26 641.823,1289.76 646.656,1284.84 
  651.489,1279.52 656.322,1273.78 661.156,1267.65 665.989,1261.12 670.822,1254.2 675.655,1246.89 680.488,1239.2 685.321,1231.15 690.154,1222.73 694.988,1213.95 
  699.821,1204.82 704.654,1195.35 709.487,1185.55 714.32,1175.43 719.153,1164.99 723.986,1154.26 728.82,1143.24 733.653,1131.94 738.486,1120.37 743.319,1108.54 
  748.152,1096.46 752.985,1084.14 757.818,1071.61 762.652,1058.87 767.485,1045.93 772.318,1032.8 777.151,1019.5 781.984,1006.04 786.817,992.419 791.65,978.669 
  796.484,964.805 801.317,950.835 806.15,936.772 810.983,922.63 815.816,908.423 820.649,894.167 825.482,879.876 830.316,865.56 835.149,851.237 839.982,836.921 
  844.815,822.628 849.648,808.373 854.481,794.172 859.314,780.039 864.148,765.984 868.981,752.017 873.814,738.158 878.647,724.422 883.48,710.824 888.313,697.377 
  893.147,684.097 897.98,670.999 902.813,658.082 907.646,645.367 912.479,632.868 917.312,620.6 922.145,608.574 926.979,596.804 931.812,585.303 936.645,574.078 
  941.478,563.138 946.311,552.497 951.144,542.168 955.977,532.161 960.811,522.488 965.644,513.159 970.477,504.185 975.31,495.568 980.143,487.321 984.976,479.454 
  989.809,471.976 994.643,464.896 999.476,458.222 1004.31,451.961 1009.14,446.121 1013.98,440.707 1018.81,435.727 1023.64,431.188 1028.47,427.097 1033.31,423.459 
  1038.14,420.281 1042.97,417.567 1047.81,415.324 1052.64,413.556 1057.47,412.267 1062.31,411.463 1067.14,411.146 1071.97,411.309 1076.81,411.771 1081.64,412.55 
  1086.47,413.66 1091.31,415.099 1096.14,416.872 1100.97,418.977 1105.8,421.416 1110.64,424.187 1115.47,427.292 1120.3,430.726 1125.14,434.49 1129.97,438.582 
  1134.8,442.997 1139.64,447.735 1144.47,452.792 1149.3,458.162 1154.14,463.844 1158.97,469.828 1163.8,476.112 1168.64,482.692 1173.47,489.563 1178.3,496.713 
  1183.14,504.141 1187.97,511.84 1192.8,519.803 1197.63,528.018 1202.47,536.482 1207.3,545.187 1212.13,554.122 1216.97,563.276 1221.8,572.642 1226.63,582.212 
  1231.47,591.98 1236.3,601.935 1241.13,612.07 1245.97,622.369 1250.8,632.82 1255.63,643.418 1260.47,654.152 1265.3,665.013 1270.13,675.991 1274.96,687.075 
  1279.8,698.251 1284.63,709.508 1289.46,720.836 1294.3,732.225 1299.13,743.661 1303.96,755.134 1308.8,766.632 1313.63,778.145 1318.46,789.662 1323.3,801.169 
  1328.13,812.655 1332.96,824.107 1337.8,835.513 1342.63,846.861 1347.46,858.146 1352.3,869.354 1357.13,880.471 1361.96,891.486 1366.79,902.388 1371.63,913.164 
  1376.46,923.803 1381.29,934.302 1386.13,944.645 1390.96,954.821 1395.79,964.819 1400.63,974.63 1405.46,984.241 1410.29,993.643 1415.13,1002.83 1419.96,1011.8 
  1424.79,1020.52 1429.63,1029 1434.46,1037.23 1439.29,1045.2 1444.12,1052.89 1448.96,1060.3 1453.79,1067.43 1458.62,1074.26 1463.46,1080.79 1468.29,1087.01 
  1473.12,1092.91 1477.96,1098.49 1482.79,1103.73 1487.62,1108.64 1492.46,1113.21 1497.29,1117.43 1502.12,1121.29 1506.96,1124.79 1511.79,1127.92 1516.62,1130.68 
  1521.46,1133.07 1526.29,1135.08 1531.12,1136.7 1535.95,1137.93 1540.79,1138.77 1545.62,1139.21 1550.45,1139.24 1555.29,1138.98 1560.12,1138.51 1564.95,1137.81 
  1569.79,1136.88 1574.62,1135.71 1579.45,1134.31 1584.29,1132.66 1589.12,1130.77 1593.95,1128.64 1598.79,1126.27 1603.62,1123.67 1608.45,1120.82 1613.28,1117.74 
  1618.12,1114.42 1622.95,1110.87 1627.78,1107.09 1632.62,1103.08 1637.45,1098.85 1642.28,1094.41 1647.12,1089.74 1651.95,1084.86 1656.78,1079.77 1661.62,1074.47 
  1666.45,1068.98 1671.28,1063.29 1676.12,1057.41 1680.95,1051.34 1685.78,1045.08 1690.62,1038.66 1695.45,1032.07 1700.28,1025.32 1705.11,1018.41 1709.95,1011.34 
  1714.78,1004.13 1719.61,996.792 1724.45,989.323 1729.28,981.73 1734.11,974.021 1738.95,966.2 1743.78,958.281 1748.61,950.274 1753.45,942.182 1758.28,934.013 
  1763.11,925.773 1767.95,917.47 1772.78,909.12 1777.61,900.726 1782.44,892.296 1787.28,883.838 1792.11,875.36 1796.94,866.872 1801.78,858.384 1806.61,849.902 
  1811.44,841.435 1816.28,832.992 1821.11,824.58 1825.94,816.209 1830.78,807.887 1835.61,799.623 1840.44,791.425 1845.28,783.301 1850.11,775.26 1854.94,767.309 
  1859.78,759.456 1864.61,751.711 1869.44,744.082 1874.27,736.576 1879.11,729.199 1883.94,721.959 1888.77,714.866 1893.61,707.927 1898.44,701.15 1903.27,694.541 
  1908.11,688.104 1912.94,681.849 1917.77,675.783 1922.61,669.914 1927.44,664.249 1932.27,658.789 1937.11,653.542 1941.94,648.515 1946.77,643.716 1951.6,639.151 
  1956.44,634.826 1961.27,630.737 1966.1,626.897 1970.94,623.31 1975.77,619.983 1980.6,616.921 1985.44,614.125 1990.27,611.596 1995.1,609.344 1999.94,607.372 
  2004.77,605.686 2009.6,604.291 2014.44,603.185 2019.27,602.374 2024.1,601.862 2028.94,601.649 2033.77,601.731 2038.6,601.946 2043.43,602.277 2048.27,602.738 
  2053.1,603.333 2057.93,604.062 2062.77,604.929 2067.6,605.934 2072.43,607.078 2077.27,608.36 2082.1,609.779 2086.93,611.337 2091.77,613.033 2096.6,614.865 
  2101.43,616.833 2106.27,618.936 2111.1,621.173 2115.93,623.542 2120.77,626.041 2125.6,628.671 2130.43,631.428 2135.26,634.31 2140.1,637.315 2144.93,640.44 
  2149.76,643.679 2154.6,647.032 2159.43,650.497 2164.26,654.074 2169.1,657.758 2173.93,661.55 2178.76,665.44 2183.6,669.42 2188.43,673.492 2193.26,677.656 
  2198.1,681.907 2202.93,686.244 2207.76,690.662 2212.59,695.155 2217.43,699.709 2222.26,704.329 2227.09,709.012 2231.93,713.754 2236.76,718.552 2241.59,723.4 
  2246.43,728.292 2251.26,733.216 2256.09,738.174 2260.93,743.162 2265.76,748.176 2270.59,753.211 2275.43,758.262 2280.26,763.323 2285.09,768.385 2289.93,773.445 
  2294.76,778.501 
  "/>
<polyline clip-path="url(#clip222)" style="stroke:#008000; stroke-linecap:round; stroke-linejoin:round; stroke-width:8; stroke-opacity:1; fill:none" stroke-dasharray="4, 8" points="
  361.501,820.758 366.334,835.424 371.167,850.057 376,864.647 380.833,879.182 385.666,893.653 390.5,908.049 395.333,922.36 400.166,936.576 404.999,950.687 
  409.832,964.685 414.665,978.559 419.498,992.3 424.332,1005.9 429.165,1019.35 433.998,1032.64 438.831,1045.77 443.664,1058.72 448.497,1071.49 453.33,1084.07 
  458.164,1096.46 462.997,1108.64 467.83,1120.62 472.663,1132.38 477.496,1143.92 482.329,1155.23 487.162,1166.31 491.996,1177.15 496.829,1187.75 501.662,1198.11 
  506.495,1208.21 511.328,1218.05 516.161,1227.63 520.994,1236.94 525.828,1245.98 530.661,1254.74 535.494,1263.22 540.327,1271.41 545.16,1279.3 549.993,1286.9 
  554.826,1294.19 559.66,1301.17 564.493,1307.83 569.326,1314.17 574.159,1320.19 578.992,1325.86 583.825,1331.19 588.658,1336.17 593.492,1340.79 598.325,1345.05 
  603.158,1348.93 607.991,1352.42 612.824,1355.52 617.657,1358.22 622.49,1360.51 627.324,1362.37 632.157,1363.8 636.99,1364.78 641.823,1365.32 646.656,1365.41 
  651.489,1365.02 656.322,1364.14 661.156,1362.76 665.989,1360.85 670.822,1358.4 675.655,1355.4 680.488,1351.84 685.321,1347.71 690.154,1342.98 694.988,1337.67 
  699.821,1331.76 704.654,1325.24 709.487,1318.11 714.32,1310.37 719.153,1302.01 723.986,1293.03 728.82,1283.44 733.653,1273.22 738.486,1262.4 743.319,1250.97 
  748.152,1238.93 752.985,1226.29 757.818,1213.07 762.652,1199.26 767.485,1184.84 772.318,1169.87 777.151,1154.44 781.984,1138.66 786.817,1122.62 791.65,1106.4 
  796.484,1090.1 801.317,1073.77 806.15,1057.51 810.983,1041.36 815.816,1025.41 820.649,1009.69 825.482,994.272 830.316,979.155 835.149,964.234 839.982,949.468 
  844.815,934.827 849.648,920.284 854.481,905.819 859.314,891.412 864.148,877.05 868.981,862.725 873.814,848.429 878.647,834.163 883.48,819.929 888.313,805.735 
  893.147,791.591 897.98,777.514 902.813,763.522 907.646,749.632 912.479,735.848 917.312,722.18 922.145,708.639 926.979,695.237 931.812,681.984 936.645,668.89 
  941.478,655.966 946.311,643.222 951.144,630.668 955.977,618.314 960.811,606.169 965.644,594.242 970.477,582.543 975.31,571.081 980.143,559.864 984.976,548.901 
  989.809,538.201 994.643,527.771 999.476,517.62 1004.31,507.755 1009.14,498.186 1013.98,488.923 1018.81,479.978 1023.64,471.36 1028.47,463.081 1033.31,455.151 
  1038.14,447.581 1042.97,440.382 1047.81,433.565 1052.64,427.14 1057.47,421.12 1062.31,415.514 1067.14,410.333 1071.97,405.59 1076.81,401.294 1081.64,397.457 
  1086.47,394.091 1091.31,391.206 1096.14,388.813 1100.97,386.924 1105.8,385.551 1110.64,384.742 1115.47,384.593 1120.3,385.057 1125.14,386.082 1129.97,387.617 
  1134.8,389.619 1139.64,392.043 1144.47,394.85 1149.3,398.004 1154.14,401.473 1158.97,405.226 1163.8,409.237 1168.64,413.482 1173.47,417.941 1178.3,422.598 
  1183.14,427.44 1187.97,432.454 1192.8,437.635 1197.63,442.979 1202.47,448.484 1207.3,454.153 1212.13,459.993 1216.97,466.011 1221.8,472.222 1226.63,478.667 
  1231.47,485.362 1236.3,492.313 1241.13,499.525 1245.97,507.001 1250.8,514.743 1255.63,522.75 1260.47,531.024 1265.3,539.563 1270.13,548.362 1274.96,557.419 
  1279.8,566.727 1284.63,576.281 1289.46,586.072 1294.3,596.092 1299.13,606.329 1303.96,616.774 1308.8,627.413 1313.63,638.232 1318.46,649.216 1323.3,660.352 
  1328.13,671.636 1332.96,683.056 1337.8,694.6 1342.63,706.253 1347.46,718.003 1352.3,729.838 1357.13,741.744 1361.96,753.71 1366.79,765.722 1371.63,777.769 
  1376.46,789.839 1381.29,801.921 1386.13,814.002 1390.96,826.071 1395.79,838.117 1400.63,850.129 1405.46,862.096 1410.29,874.007 1415.13,885.851 1419.96,897.619 
  1424.79,909.299 1429.63,920.882 1434.46,932.357 1439.29,943.716 1444.12,954.948 1448.96,966.043 1453.79,976.993 1458.62,987.789 1463.46,998.421 1468.29,1008.88 
  1473.12,1019.16 1477.96,1029.25 1482.79,1039.14 1487.62,1048.82 1492.46,1058.29 1497.29,1067.54 1502.12,1076.55 1506.96,1085.34 1511.79,1093.87 1516.62,1102.16 
  1521.46,1110.18 1526.29,1117.94 1531.12,1125.42 1535.95,1132.61 1540.79,1139.52 1545.62,1146.13 1550.45,1152.43 1555.29,1158.42 1560.12,1164.09 1564.95,1169.44 
  1569.79,1174.44 1574.62,1179.11 1579.45,1183.42 1584.29,1187.38 1589.12,1190.97 1593.95,1194.2 1598.79,1197.06 1603.62,1199.53 1608.45,1201.61 1613.28,1203.27 
  1618.12,1204.5 1622.95,1205.3 1627.78,1205.66 1632.62,1205.56 1637.45,1204.99 1642.28,1203.95 1647.12,1202.42 1651.95,1200.41 1656.78,1197.9 1661.62,1194.89 
  1666.45,1191.37 1671.28,1187.33 1676.12,1182.79 1680.95,1177.72 1685.78,1172.13 1690.62,1166.01 1695.45,1159.37 1700.28,1152.21 1705.11,1144.52 1709.95,1136.3 
  1714.78,1127.56 1719.61,1118.3 1724.45,1108.48 1729.28,1098.06 1734.11,1087.11 1738.95,1075.69 1743.78,1063.86 1748.61,1051.7 1753.45,1039.26 1758.28,1026.59 
  1763.11,1013.75 1767.95,1000.78 1772.78,987.742 1777.61,974.672 1782.44,961.613 1787.28,948.605 1792.11,935.683 1796.94,922.88 1801.78,910.227 1806.61,897.751 
  1811.44,885.477 1816.28,873.427 1821.11,861.615 1825.94,849.981 1830.78,838.5 1835.61,827.169 1840.44,815.984 1845.28,804.942 1850.11,794.041 1854.94,783.279 
  1859.78,772.658 1864.61,762.177 1869.44,751.838 1874.27,741.645 1879.11,731.599 1883.94,721.706 1888.77,711.97 1893.61,702.397 1898.44,692.996 1903.27,683.772 
  1908.11,674.735 1912.94,665.894 1917.77,657.261 1922.61,648.845 1927.44,640.659 1932.27,632.717 1937.11,625.016 1941.94,617.561 1946.77,610.367 1951.6,603.447 
  1956.44,596.814 1961.27,590.477 1966.1,584.449 1970.94,578.737 1975.77,573.348 1980.6,568.29 1985.44,563.568 1990.27,559.186 1995.1,555.147 1999.94,551.453 
  2004.77,548.104 2009.6,545.101 2014.44,542.441 2019.27,540.122 2024.1,538.139 2028.94,536.489 2033.77,535.164 2038.6,534.157 2043.43,533.46 2048.27,533.063 
  2053.1,532.955 2057.93,533.123 2062.77,533.556 2067.6,534.217 2072.43,535.082 2077.27,536.138 2082.1,537.376 2086.93,538.788 2091.77,540.366 2096.6,542.105 
  2101.43,544.002 2106.27,546.055 2111.1,548.263 2115.93,550.627 2120.77,553.15 2125.6,555.837 2130.43,558.693 2135.26,561.725 2140.1,564.944 2144.93,568.359 
  2149.76,571.983 2154.6,575.83 2159.43,579.915 2164.26,584.241 2169.1,588.8 2173.93,593.594 2178.76,598.619 2183.6,603.875 2188.43,609.359 2193.26,615.067 
  2198.1,620.996 2202.93,627.141 2207.76,633.499 2212.59,640.062 2217.43,646.826 2222.26,653.784 2227.09,660.928 2231.93,668.251 2236.76,675.745 2241.59,683.4 
  2246.43,691.208 2251.26,699.157 2256.09,707.239 2260.93,715.44 2265.76,723.75 2270.59,732.161 2275.43,740.663 2280.26,749.246 2285.09,757.9 2289.93,766.613 
  2294.76,775.376 
  "/>
<path clip-path="url(#clip220)" d="
M1444.66 477.116 L2284.45 477.116 L2284.45 166.076 L1444.66 166.076  Z
  " fill="#ffffff" fill-rule="evenodd" fill-opacity="1"/>
<polyline clip-path="url(#clip220)" style="stroke:#000000; stroke-linecap:round; stroke-linejoin:round; stroke-width:4; stroke-opacity:1; fill:none" points="
  1444.66,477.116 2284.45,477.116 2284.45,166.076 1444.66,166.076 1444.66,477.116 
  "/>
<polyline clip-path="url(#clip220)" style="stroke:#009af9; stroke-linecap:round; stroke-linejoin:round; stroke-width:12; stroke-opacity:1; fill:none" points="
  1467.43,243.836 1604.05,243.836 
  "/>
<path clip-path="url(#clip220)" d="M1660.19 219.617 L1660.19 226.457 Q1656.2 224.548 1652.65 223.61 Q1649.11 222.673 1645.81 222.673 Q1640.08 222.673 1636.96 224.895 Q1633.87 227.117 1633.87 231.214 Q1633.87 234.652 1635.92 236.423 Q1638 238.159 1643.76 239.235 L1648 240.103 Q1655.85 241.596 1659.56 245.381 Q1663.31 249.131 1663.31 255.45 Q1663.31 262.985 1658.24 266.874 Q1653.21 270.763 1643.45 270.763 Q1639.77 270.763 1635.6 269.929 Q1631.47 269.096 1627.03 267.464 L1627.03 260.242 Q1631.3 262.638 1635.4 263.853 Q1639.49 265.068 1643.45 265.068 Q1649.46 265.068 1652.72 262.707 Q1655.99 260.346 1655.99 255.971 Q1655.99 252.152 1653.63 249.999 Q1651.3 247.846 1645.95 246.77 L1641.68 245.936 Q1633.83 244.374 1630.33 241.041 Q1626.82 237.707 1626.82 231.77 Q1626.82 224.895 1631.65 220.937 Q1636.51 216.978 1645.01 216.978 Q1648.66 216.978 1652.45 217.638 Q1656.23 218.298 1660.19 219.617 Z" fill="#000000" fill-rule="evenodd" fill-opacity="1" /><path clip-path="url(#clip220)" d="M1673.97 230.867 L1680.36 230.867 L1680.36 269.756 L1673.97 269.756 L1673.97 230.867 M1673.97 215.728 L1680.36 215.728 L1680.36 223.818 L1673.97 223.818 L1673.97 215.728 Z" fill="#000000" fill-rule="evenodd" fill-opacity="1" /><path clip-path="url(#clip220)" d="M1724.01 238.332 Q1726.4 234.027 1729.74 231.978 Q1733.07 229.93 1737.58 229.93 Q1743.66 229.93 1746.96 234.2 Q1750.26 238.436 1750.26 246.284 L1750.26 269.756 L1743.83 269.756 L1743.83 246.492 Q1743.83 240.902 1741.85 238.193 Q1739.88 235.485 1735.81 235.485 Q1730.85 235.485 1727.97 238.784 Q1725.08 242.082 1725.08 247.777 L1725.08 269.756 L1718.66 269.756 L1718.66 246.492 Q1718.66 240.867 1716.68 238.193 Q1714.7 235.485 1710.57 235.485 Q1705.67 235.485 1702.79 238.818 Q1699.91 242.117 1699.91 247.777 L1699.91 269.756 L1693.49 269.756 L1693.49 230.867 L1699.91 230.867 L1699.91 236.909 Q1702.1 233.332 1705.15 231.631 Q1708.21 229.93 1712.41 229.93 Q1716.65 229.93 1719.6 232.082 Q1722.58 234.235 1724.01 238.332 Z" fill="#000000" fill-rule="evenodd" fill-opacity="1" /><path clip-path="url(#clip220)" d="M1769.18 263.922 L1769.18 284.547 L1762.76 284.547 L1762.76 230.867 L1769.18 230.867 L1769.18 236.77 Q1771.19 233.298 1774.25 231.631 Q1777.34 229.93 1781.61 229.93 Q1788.69 229.93 1793.1 235.555 Q1797.55 241.179 1797.55 250.346 Q1797.55 259.513 1793.1 265.138 Q1788.69 270.763 1781.61 270.763 Q1777.34 270.763 1774.25 269.096 Q1771.19 267.395 1769.18 263.922 M1790.92 250.346 Q1790.92 243.298 1788 239.304 Q1785.12 235.277 1780.05 235.277 Q1774.98 235.277 1772.06 239.304 Q1769.18 243.298 1769.18 250.346 Q1769.18 257.395 1772.06 261.422 Q1774.98 265.415 1780.05 265.415 Q1785.12 265.415 1788 261.422 Q1790.92 257.395 1790.92 250.346 Z" fill="#000000" fill-rule="evenodd" fill-opacity="1" /><path clip-path="url(#clip220)" d="M1808.14 215.728 L1814.53 215.728 L1814.53 269.756 L1808.14 269.756 L1808.14 215.728 Z" fill="#000000" fill-rule="evenodd" fill-opacity="1" /><path clip-path="url(#clip220)" d="M1861.16 248.714 L1861.16 251.839 L1831.78 251.839 Q1832.2 258.436 1835.74 261.909 Q1839.32 265.346 1845.67 265.346 Q1849.35 265.346 1852.79 264.443 Q1856.26 263.54 1859.67 261.735 L1859.67 267.777 Q1856.23 269.235 1852.62 269.999 Q1849.01 270.763 1845.29 270.763 Q1835.99 270.763 1830.53 265.346 Q1825.12 259.929 1825.12 250.693 Q1825.12 241.145 1830.26 235.555 Q1835.43 229.93 1844.18 229.93 Q1852.03 229.93 1856.58 234.999 Q1861.16 240.034 1861.16 248.714 M1854.77 246.839 Q1854.7 241.596 1851.82 238.471 Q1848.97 235.346 1844.25 235.346 Q1838.9 235.346 1835.67 238.367 Q1832.48 241.388 1831.99 246.874 L1854.77 246.839 Z" fill="#000000" fill-rule="evenodd" fill-opacity="1" /><path clip-path="url(#clip220)" d="M1871.92 217.916 L1901.71 217.916 L1901.71 223.818 L1878.94 223.818 L1878.94 239.096 L1899.49 239.096 L1899.49 244.999 L1878.94 244.999 L1878.94 269.756 L1871.92 269.756 L1871.92 217.916 Z" fill="#000000" fill-rule="evenodd" fill-opacity="1" /><path clip-path="url(#clip220)" d="M1912.83 217.916 L1923.28 217.916 L1936.51 253.193 L1949.8 217.916 L1960.26 217.916 L1960.26 269.756 L1953.42 269.756 L1953.42 224.235 L1940.05 259.79 L1933 259.79 L1919.63 224.235 L1919.63 269.756 L1912.83 269.756 L1912.83 217.916 Z" fill="#000000" fill-rule="evenodd" fill-opacity="1" /><path clip-path="url(#clip220)" d="M1973.38 217.916 L1980.43 217.916 L1980.43 249.409 Q1980.43 257.742 1983.45 261.422 Q1986.47 265.068 1993.24 265.068 Q1999.98 265.068 2003 261.422 Q2006.02 257.742 2006.02 249.409 L2006.02 217.916 L2013.07 217.916 L2013.07 250.277 Q2013.07 260.415 2008.03 265.589 Q2003.03 270.763 1993.24 270.763 Q1983.42 270.763 1978.38 265.589 Q1973.38 260.415 1973.38 250.277 L1973.38 217.916 Z" fill="#000000" fill-rule="evenodd" fill-opacity="1" /><polyline clip-path="url(#clip220)" style="stroke:#e26f46; stroke-linecap:round; stroke-linejoin:round; stroke-width:12; stroke-opacity:1; fill:none" points="
  1467.43,321.596 1604.05,321.596 
  "/>
<path clip-path="url(#clip220)" d="M1651.4 323.21 Q1653.66 323.974 1655.78 326.474 Q1657.93 328.974 1660.08 333.349 L1667.2 347.516 L1659.67 347.516 L1653.04 334.217 Q1650.47 329.009 1648.04 327.307 Q1645.64 325.606 1641.47 325.606 L1633.83 325.606 L1633.83 347.516 L1626.82 347.516 L1626.82 295.676 L1642.65 295.676 Q1651.54 295.676 1655.92 299.391 Q1660.29 303.106 1660.29 310.606 Q1660.29 315.502 1658 318.731 Q1655.74 321.96 1651.4 323.21 M1633.83 301.44 L1633.83 319.842 L1642.65 319.842 Q1647.72 319.842 1650.29 317.516 Q1652.9 315.155 1652.9 310.606 Q1652.9 306.058 1650.29 303.766 Q1647.72 301.44 1642.65 301.44 L1633.83 301.44 Z" fill="#000000" fill-rule="evenodd" fill-opacity="1" /><path clip-path="url(#clip220)" d="M1706.02 326.474 L1706.02 329.599 L1676.65 329.599 Q1677.06 336.196 1680.6 339.669 Q1684.18 343.106 1690.54 343.106 Q1694.22 343.106 1697.65 342.203 Q1701.13 341.3 1704.53 339.495 L1704.53 345.537 Q1701.09 346.995 1697.48 347.759 Q1693.87 348.523 1690.15 348.523 Q1680.85 348.523 1675.4 343.106 Q1669.98 337.689 1669.98 328.453 Q1669.98 318.905 1675.12 313.315 Q1680.29 307.69 1689.04 307.69 Q1696.89 307.69 1701.44 312.759 Q1706.02 317.794 1706.02 326.474 M1699.63 324.599 Q1699.56 319.356 1696.68 316.231 Q1693.83 313.106 1689.11 313.106 Q1683.76 313.106 1680.54 316.127 Q1677.34 319.148 1676.85 324.634 L1699.63 324.599 Z" fill="#000000" fill-rule="evenodd" fill-opacity="1" /><path clip-path="url(#clip220)" d="M1736.19 293.488 L1736.19 298.801 L1730.08 298.801 Q1726.65 298.801 1725.29 300.19 Q1723.97 301.578 1723.97 305.19 L1723.97 308.627 L1734.49 308.627 L1734.49 313.592 L1723.97 313.592 L1723.97 347.516 L1717.55 347.516 L1717.55 313.592 L1711.44 313.592 L1711.44 308.627 L1717.55 308.627 L1717.55 305.919 Q1717.55 299.426 1720.57 296.474 Q1723.59 293.488 1730.15 293.488 L1736.19 293.488 Z" fill="#000000" fill-rule="evenodd" fill-opacity="1" /><path clip-path="url(#clip220)" d="M1774.81 326.474 L1774.81 329.599 L1745.43 329.599 Q1745.85 336.196 1749.39 339.669 Q1752.97 343.106 1759.32 343.106 Q1763 343.106 1766.44 342.203 Q1769.91 341.3 1773.31 339.495 L1773.31 345.537 Q1769.88 346.995 1766.26 347.759 Q1762.65 348.523 1758.94 348.523 Q1749.63 348.523 1744.18 343.106 Q1738.76 337.689 1738.76 328.453 Q1738.76 318.905 1743.9 313.315 Q1749.08 307.69 1757.83 307.69 Q1765.67 307.69 1770.22 312.759 Q1774.81 317.794 1774.81 326.474 M1768.42 324.599 Q1768.35 319.356 1765.47 316.231 Q1762.62 313.106 1757.9 313.106 Q1752.55 313.106 1749.32 316.127 Q1746.13 319.148 1745.64 324.634 L1768.42 324.599 Z" fill="#000000" fill-rule="evenodd" fill-opacity="1" /><path clip-path="url(#clip220)" d="M1807.83 314.599 Q1806.75 313.974 1805.47 313.696 Q1804.22 313.384 1802.69 313.384 Q1797.27 313.384 1794.35 316.926 Q1791.47 320.433 1791.47 327.03 L1791.47 347.516 L1785.05 347.516 L1785.05 308.627 L1791.47 308.627 L1791.47 314.669 Q1793.49 311.127 1796.72 309.426 Q1799.94 307.69 1804.56 307.69 Q1805.22 307.69 1806.02 307.794 Q1806.82 307.863 1807.79 308.037 L1807.83 314.599 Z" fill="#000000" fill-rule="evenodd" fill-opacity="1" /><path clip-path="url(#clip220)" d="M1846.23 326.474 L1846.23 329.599 L1816.85 329.599 Q1817.27 336.196 1820.81 339.669 Q1824.39 343.106 1830.74 343.106 Q1834.42 343.106 1837.86 342.203 Q1841.33 341.3 1844.74 339.495 L1844.74 345.537 Q1841.3 346.995 1837.69 347.759 Q1834.08 348.523 1830.36 348.523 Q1821.06 348.523 1815.6 343.106 Q1810.19 337.689 1810.19 328.453 Q1810.19 318.905 1815.33 313.315 Q1820.5 307.69 1829.25 307.69 Q1837.1 307.69 1841.65 312.759 Q1846.23 317.794 1846.23 326.474 M1839.84 324.599 Q1839.77 319.356 1836.89 316.231 Q1834.04 313.106 1829.32 313.106 Q1823.97 313.106 1820.74 316.127 Q1817.55 319.148 1817.06 324.634 L1839.84 324.599 Z" fill="#000000" fill-rule="evenodd" fill-opacity="1" /><path clip-path="url(#clip220)" d="M1889.04 324.044 L1889.04 347.516 L1882.65 347.516 L1882.65 324.252 Q1882.65 318.731 1880.5 315.988 Q1878.35 313.245 1874.04 313.245 Q1868.87 313.245 1865.88 316.544 Q1862.9 319.842 1862.9 325.537 L1862.9 347.516 L1856.47 347.516 L1856.47 308.627 L1862.9 308.627 L1862.9 314.669 Q1865.19 311.162 1868.28 309.426 Q1871.4 307.69 1875.46 307.69 Q1882.17 307.69 1885.6 311.856 Q1889.04 315.988 1889.04 324.044 Z" fill="#000000" fill-rule="evenodd" fill-opacity="1" /><path clip-path="url(#clip220)" d="M1929.77 310.12 L1929.77 316.092 Q1927.06 314.599 1924.32 313.87 Q1921.61 313.106 1918.83 313.106 Q1912.62 313.106 1909.18 317.064 Q1905.74 320.988 1905.74 328.106 Q1905.74 335.224 1909.18 339.182 Q1912.62 343.106 1918.83 343.106 Q1921.61 343.106 1924.32 342.377 Q1927.06 341.613 1929.77 340.12 L1929.77 346.023 Q1927.1 347.273 1924.21 347.898 Q1921.37 348.523 1918.14 348.523 Q1909.35 348.523 1904.18 343.002 Q1899.01 337.481 1899.01 328.106 Q1899.01 318.592 1904.21 313.141 Q1909.46 307.69 1918.55 307.69 Q1921.51 307.69 1924.32 308.315 Q1927.13 308.905 1929.77 310.12 Z" fill="#000000" fill-rule="evenodd" fill-opacity="1" /><path clip-path="url(#clip220)" d="M1974.14 326.474 L1974.14 329.599 L1944.77 329.599 Q1945.19 336.196 1948.73 339.669 Q1952.3 343.106 1958.66 343.106 Q1962.34 343.106 1965.78 342.203 Q1969.25 341.3 1972.65 339.495 L1972.65 345.537 Q1969.21 346.995 1965.6 347.759 Q1961.99 348.523 1958.28 348.523 Q1948.97 348.523 1943.52 343.106 Q1938.1 337.689 1938.1 328.453 Q1938.1 318.905 1943.24 313.315 Q1948.42 307.69 1957.17 307.69 Q1965.01 307.69 1969.56 312.759 Q1974.14 317.794 1974.14 326.474 M1967.76 324.599 Q1967.69 319.356 1964.8 316.231 Q1961.96 313.106 1957.24 313.106 Q1951.89 313.106 1948.66 316.127 Q1945.46 319.148 1944.98 324.634 L1967.76 324.599 Z" fill="#000000" fill-rule="evenodd" fill-opacity="1" /><polyline clip-path="url(#clip220)" style="stroke:#008000; stroke-linecap:round; stroke-linejoin:round; stroke-width:12; stroke-opacity:1; fill:none" stroke-dasharray="6, 12" points="
  1467.43,399.356 1604.05,399.356 
  "/>
<path clip-path="url(#clip220)" d="M1626.82 373.436 L1636.26 373.436 L1659.25 416.804 L1659.25 373.436 L1666.06 373.436 L1666.06 425.276 L1656.61 425.276 L1633.63 381.908 L1633.63 425.276 L1626.82 425.276 L1626.82 373.436 Z" fill="#000000" fill-rule="evenodd" fill-opacity="1" /><path clip-path="url(#clip220)" d="M1713 404.234 L1713 407.359 L1683.63 407.359 Q1684.04 413.956 1687.58 417.429 Q1691.16 420.866 1697.51 420.866 Q1701.19 420.866 1704.63 419.963 Q1708.1 419.06 1711.51 417.255 L1711.51 423.297 Q1708.07 424.755 1704.46 425.519 Q1700.85 426.283 1697.13 426.283 Q1687.83 426.283 1682.38 420.866 Q1676.96 415.449 1676.96 406.213 Q1676.96 396.665 1682.1 391.075 Q1687.27 385.45 1696.02 385.45 Q1703.87 385.45 1708.42 390.519 Q1713 395.554 1713 404.234 M1706.61 402.359 Q1706.54 397.116 1703.66 393.991 Q1700.81 390.866 1696.09 390.866 Q1690.74 390.866 1687.51 393.887 Q1684.32 396.908 1683.83 402.394 L1706.61 402.359 Z" fill="#000000" fill-rule="evenodd" fill-opacity="1" /><path clip-path="url(#clip220)" d="M1722.83 409.929 L1722.83 386.387 L1729.22 386.387 L1729.22 409.686 Q1729.22 415.206 1731.37 417.984 Q1733.52 420.727 1737.83 420.727 Q1743 420.727 1745.99 417.429 Q1749.01 414.13 1749.01 408.436 L1749.01 386.387 L1755.4 386.387 L1755.4 425.276 L1749.01 425.276 L1749.01 419.304 Q1746.68 422.845 1743.59 424.581 Q1740.53 426.283 1736.47 426.283 Q1729.77 426.283 1726.3 422.116 Q1722.83 417.949 1722.83 409.929 M1738.9 385.45 L1738.9 385.45 Z" fill="#000000" fill-rule="evenodd" fill-opacity="1" /><path clip-path="url(#clip220)" d="M1791.09 392.359 Q1790.01 391.734 1788.73 391.456 Q1787.48 391.144 1785.95 391.144 Q1780.53 391.144 1777.62 394.686 Q1774.74 398.193 1774.74 404.79 L1774.74 425.276 L1768.31 425.276 L1768.31 386.387 L1774.74 386.387 L1774.74 392.429 Q1776.75 388.887 1779.98 387.186 Q1783.21 385.45 1787.83 385.45 Q1788.49 385.45 1789.28 385.554 Q1790.08 385.623 1791.06 385.797 L1791.09 392.359 Z" fill="#000000" fill-rule="evenodd" fill-opacity="1" /><path clip-path="url(#clip220)" d="M1815.47 405.727 Q1807.72 405.727 1804.74 407.498 Q1801.75 409.269 1801.75 413.54 Q1801.75 416.942 1803.97 418.956 Q1806.23 420.935 1810.08 420.935 Q1815.4 420.935 1818.59 417.185 Q1821.82 413.401 1821.82 407.151 L1821.82 405.727 L1815.47 405.727 M1828.21 403.088 L1828.21 425.276 L1821.82 425.276 L1821.82 419.373 Q1819.63 422.915 1816.37 424.616 Q1813.1 426.283 1808.38 426.283 Q1802.41 426.283 1798.87 422.949 Q1795.36 419.581 1795.36 413.956 Q1795.36 407.394 1799.74 404.061 Q1804.15 400.727 1812.86 400.727 L1821.82 400.727 L1821.82 400.102 Q1821.82 395.693 1818.9 393.297 Q1816.02 390.866 1810.78 390.866 Q1807.44 390.866 1804.28 391.665 Q1801.12 392.463 1798.21 394.061 L1798.21 388.158 Q1801.72 386.804 1805.01 386.144 Q1808.31 385.45 1811.44 385.45 Q1819.87 385.45 1824.04 389.825 Q1828.21 394.199 1828.21 403.088 Z" fill="#000000" fill-rule="evenodd" fill-opacity="1" /><path clip-path="url(#clip220)" d="M1841.37 371.248 L1847.76 371.248 L1847.76 425.276 L1841.37 425.276 L1841.37 371.248 Z" fill="#000000" fill-rule="evenodd" fill-opacity="1" /><path clip-path="url(#clip220)" d="M1861.4 373.436 L1891.19 373.436 L1891.19 379.338 L1868.42 379.338 L1868.42 394.616 L1888.97 394.616 L1888.97 400.519 L1868.42 400.519 L1868.42 425.276 L1861.4 425.276 L1861.4 373.436 Z" fill="#000000" fill-rule="evenodd" fill-opacity="1" /><path clip-path="url(#clip220)" d="M1902.3 373.436 L1912.76 373.436 L1925.99 408.713 L1939.28 373.436 L1949.74 373.436 L1949.74 425.276 L1942.89 425.276 L1942.89 379.755 L1929.53 415.31 L1922.48 415.31 L1909.11 379.755 L1909.11 425.276 L1902.3 425.276 L1902.3 373.436 Z" fill="#000000" fill-rule="evenodd" fill-opacity="1" /><path clip-path="url(#clip220)" d="M1962.86 373.436 L1969.91 373.436 L1969.91 404.929 Q1969.91 413.262 1972.93 416.942 Q1975.95 420.588 1982.72 420.588 Q1989.46 420.588 1992.48 416.942 Q1995.5 413.262 1995.5 404.929 L1995.5 373.436 L2002.55 373.436 L2002.55 405.797 Q2002.55 415.935 1997.51 421.109 Q1992.51 426.283 1982.72 426.283 Q1972.89 426.283 1967.86 421.109 Q1962.86 415.935 1962.86 405.797 L1962.86 373.436 Z" fill="#000000" fill-rule="evenodd" fill-opacity="1" /><path clip-path="url(#clip220)" d="M2053.38 371.318 Q2048.73 379.304 2046.47 387.116 Q2044.21 394.929 2044.21 402.949 Q2044.21 410.97 2046.47 418.852 Q2048.76 426.699 2053.38 434.651 L2047.82 434.651 Q2042.62 426.491 2040.01 418.609 Q2037.44 410.727 2037.44 402.949 Q2037.44 395.206 2040.01 387.359 Q2042.58 379.512 2047.82 371.318 L2053.38 371.318 Z" fill="#000000" fill-rule="evenodd" fill-opacity="1" /><path clip-path="url(#clip220)" d="M2072.72 419.373 L2097.2 419.373 L2097.2 425.276 L2064.28 425.276 L2064.28 419.373 Q2068.28 415.241 2075.15 408.297 Q2082.06 401.318 2083.83 399.304 Q2087.2 395.519 2088.52 392.915 Q2089.87 390.276 2089.87 387.741 Q2089.87 383.609 2086.96 381.005 Q2084.07 378.401 2079.42 378.401 Q2076.12 378.401 2072.44 379.547 Q2068.8 380.693 2064.63 383.019 L2064.63 375.936 Q2068.87 374.234 2072.55 373.366 Q2076.23 372.498 2079.28 372.498 Q2087.34 372.498 2092.13 376.526 Q2096.92 380.554 2096.92 387.29 Q2096.92 390.484 2095.71 393.366 Q2094.53 396.213 2091.37 400.102 Q2090.5 401.109 2085.85 405.936 Q2081.19 410.727 2072.72 419.373 Z" fill="#000000" fill-rule="evenodd" fill-opacity="1" /><path clip-path="url(#clip220)" d="M2111.99 373.436 L2139.53 373.436 L2139.53 379.338 L2118.41 379.338 L2118.41 392.047 Q2119.94 391.526 2121.47 391.283 Q2123 391.005 2124.53 391.005 Q2133.21 391.005 2138.28 395.762 Q2143.35 400.519 2143.35 408.644 Q2143.35 417.012 2138.14 421.665 Q2132.93 426.283 2123.45 426.283 Q2120.19 426.283 2116.78 425.727 Q2113.41 425.172 2109.8 424.06 L2109.8 417.012 Q2112.93 418.713 2116.26 419.547 Q2119.6 420.38 2123.31 420.38 Q2129.32 420.38 2132.82 417.22 Q2136.33 414.06 2136.33 408.644 Q2136.33 403.227 2132.82 400.068 Q2129.32 396.908 2123.31 396.908 Q2120.5 396.908 2117.69 397.533 Q2114.91 398.158 2111.99 399.477 L2111.99 373.436 Z" fill="#000000" fill-rule="evenodd" fill-opacity="1" /><path clip-path="url(#clip220)" d="M2172.16 378.054 Q2166.75 378.054 2164 383.401 Q2161.3 388.713 2161.3 399.408 Q2161.3 410.067 2164 415.415 Q2166.75 420.727 2172.16 420.727 Q2177.62 420.727 2180.32 415.415 Q2183.07 410.067 2183.07 399.408 Q2183.07 388.713 2180.32 383.401 Q2177.62 378.054 2172.16 378.054 M2172.16 372.498 Q2180.88 372.498 2185.46 379.408 Q2190.08 386.283 2190.08 399.408 Q2190.08 412.498 2185.46 419.408 Q2180.88 426.283 2172.16 426.283 Q2163.45 426.283 2158.83 419.408 Q2154.25 412.498 2154.25 399.408 Q2154.25 386.283 2158.83 379.408 Q2163.45 372.498 2172.16 372.498 Z" fill="#000000" fill-rule="evenodd" fill-opacity="1" /><path clip-path="url(#clip220)" d="M2217.41 378.054 Q2211.99 378.054 2209.25 383.401 Q2206.54 388.713 2206.54 399.408 Q2206.54 410.067 2209.25 415.415 Q2211.99 420.727 2217.41 420.727 Q2222.86 420.727 2225.57 415.415 Q2228.31 410.067 2228.31 399.408 Q2228.31 388.713 2225.57 383.401 Q2222.86 378.054 2217.41 378.054 M2217.41 372.498 Q2226.12 372.498 2230.71 379.408 Q2235.32 386.283 2235.32 399.408 Q2235.32 412.498 2230.71 419.408 Q2226.12 426.283 2217.41 426.283 Q2208.69 426.283 2204.07 419.408 Q2199.49 412.498 2199.49 399.408 Q2199.49 386.283 2204.07 379.408 Q2208.69 372.498 2217.41 372.498 Z" fill="#000000" fill-rule="evenodd" fill-opacity="1" /><path clip-path="url(#clip220)" d="M2245.74 371.318 L2251.3 371.318 Q2256.5 379.512 2259.07 387.359 Q2261.68 395.206 2261.68 402.949 Q2261.68 410.727 2259.07 418.609 Q2256.5 426.491 2251.3 434.651 L2245.74 434.651 Q2250.36 426.699 2252.62 418.852 Q2254.91 410.97 2254.91 402.949 Q2254.91 394.929 2252.62 387.116 Q2250.36 379.304 2245.74 371.318 Z" fill="#000000" fill-rule="evenodd" fill-opacity="1" /></svg>
