<?xml version="1.0" encoding="utf-8"?>
<svg xmlns="http://www.w3.org/2000/svg" xmlns:xlink="http://www.w3.org/1999/xlink" width="600" height="400" viewBox="0 0 2400 1600">
<defs>
  <clipPath id="clip250">
    <rect x="0" y="0" width="2400" height="1600"/>
  </clipPath>
</defs>
<path clip-path="url(#clip250)" d="M0 1600 L2400 1600 L2400 0 L0 0  Z" fill="#ffffff" fill-rule="evenodd" fill-opacity="1"/>
<defs>
  <clipPath id="clip251">
    <rect x="480" y="0" width="1681" height="1600"/>
  </clipPath>
</defs>
<path clip-path="url(#clip250)" d="M314.996 1401.58 L2352.76 1401.58 L2352.76 123.472 L314.996 123.472  Z" fill="#ffffff" fill-rule="evenodd" fill-opacity="1"/>
<defs>
  <clipPath id="clip252">
    <rect x="314" y="123" width="2039" height="1279"/>
  </clipPath>
</defs>
<polyline clip-path="url(#clip252)" style="stroke:#000000; stroke-linecap:round; stroke-linejoin:round; stroke-width:2; stroke-opacity:0.1; fill:none" points="518.772,1401.58 518.772,123.472 "/>
<polyline clip-path="url(#clip252)" style="stroke:#000000; stroke-linecap:round; stroke-linejoin:round; stroke-width:2; stroke-opacity:0.1; fill:none" points="926.324,1401.58 926.324,123.472 "/>
<polyline clip-path="url(#clip252)" style="stroke:#000000; stroke-linecap:round; stroke-linejoin:round; stroke-width:2; stroke-opacity:0.1; fill:none" points="1333.88,1401.58 1333.88,123.472 "/>
<polyline clip-path="url(#clip252)" style="stroke:#000000; stroke-linecap:round; stroke-linejoin:round; stroke-width:2; stroke-opacity:0.1; fill:none" points="1741.43,1401.58 1741.43,123.472 "/>
<polyline clip-path="url(#clip252)" style="stroke:#000000; stroke-linecap:round; stroke-linejoin:round; stroke-width:2; stroke-opacity:0.1; fill:none" points="2148.98,1401.58 2148.98,123.472 "/>
<polyline clip-path="url(#clip252)" style="stroke:#000000; stroke-linecap:round; stroke-linejoin:round; stroke-width:2; stroke-opacity:0.1; fill:none" points="314.996,1400.54 2352.76,1400.54 "/>
<polyline clip-path="url(#clip252)" style="stroke:#000000; stroke-linecap:round; stroke-linejoin:round; stroke-width:2; stroke-opacity:0.1; fill:none" points="314.996,1117.17 2352.76,1117.17 "/>
<polyline clip-path="url(#clip252)" style="stroke:#000000; stroke-linecap:round; stroke-linejoin:round; stroke-width:2; stroke-opacity:0.1; fill:none" points="314.996,833.806 2352.76,833.806 "/>
<polyline clip-path="url(#clip252)" style="stroke:#000000; stroke-linecap:round; stroke-linejoin:round; stroke-width:2; stroke-opacity:0.1; fill:none" points="314.996,550.438 2352.76,550.438 "/>
<polyline clip-path="url(#clip252)" style="stroke:#000000; stroke-linecap:round; stroke-linejoin:round; stroke-width:2; stroke-opacity:0.1; fill:none" points="314.996,267.07 2352.76,267.07 "/>
<polyline clip-path="url(#clip250)" style="stroke:#000000; stroke-linecap:round; stroke-linejoin:round; stroke-width:4; stroke-opacity:1; fill:none" points="314.996,1401.58 2352.76,1401.58 "/>
<polyline clip-path="url(#clip250)" style="stroke:#000000; stroke-linecap:round; stroke-linejoin:round; stroke-width:4; stroke-opacity:1; fill:none" points="518.772,1401.58 518.772,1382.68 "/>
<polyline clip-path="url(#clip250)" style="stroke:#000000; stroke-linecap:round; stroke-linejoin:round; stroke-width:4; stroke-opacity:1; fill:none" points="926.324,1401.58 926.324,1382.68 "/>
<polyline clip-path="url(#clip250)" style="stroke:#000000; stroke-linecap:round; stroke-linejoin:round; stroke-width:4; stroke-opacity:1; fill:none" points="1333.88,1401.58 1333.88,1382.68 "/>
<polyline clip-path="url(#clip250)" style="stroke:#000000; stroke-linecap:round; stroke-linejoin:round; stroke-width:4; stroke-opacity:1; fill:none" points="1741.43,1401.58 1741.43,1382.68 "/>
<polyline clip-path="url(#clip250)" style="stroke:#000000; stroke-linecap:round; stroke-linejoin:round; stroke-width:4; stroke-opacity:1; fill:none" points="2148.98,1401.58 2148.98,1382.68 "/>
<path clip-path="url(#clip250)" d="M438.564 1460.34 L483.078 1460.34 L483.078 1466.24 L438.564 1466.24 L438.564 1460.34 Z" fill="#000000" fill-rule="nonzero" fill-opacity="1" /><path clip-path="url(#clip250)" d="M499.432 1479.68 L510.89 1479.68 L510.89 1440.13 L498.425 1442.63 L498.425 1436.24 L510.821 1433.74 L517.834 1433.74 L517.834 1479.68 L529.293 1479.68 L529.293 1485.58 L499.432 1485.58 L499.432 1479.68 Z" fill="#000000" fill-rule="nonzero" fill-opacity="1" /><path clip-path="url(#clip250)" d="M543.459 1476.76 L550.786 1476.76 L550.786 1485.58 L543.459 1485.58 L543.459 1476.76 Z" fill="#000000" fill-rule="nonzero" fill-opacity="1" /><path clip-path="url(#clip250)" d="M581.063 1438.36 Q575.647 1438.36 572.904 1443.71 Q570.195 1449.02 570.195 1459.71 Q570.195 1470.37 572.904 1475.72 Q575.647 1481.03 581.063 1481.03 Q586.515 1481.03 589.223 1475.72 Q591.966 1470.37 591.966 1459.71 Q591.966 1449.02 589.223 1443.71 Q586.515 1438.36 581.063 1438.36 M581.063 1432.8 Q589.779 1432.8 594.362 1439.71 Q598.98 1446.59 598.98 1459.71 Q598.98 1472.8 594.362 1479.71 Q589.779 1486.59 581.063 1486.59 Q572.348 1486.59 567.73 1479.71 Q563.147 1472.8 563.147 1459.71 Q563.147 1446.59 567.73 1439.71 Q572.348 1432.8 581.063 1432.8 Z" fill="#000000" fill-rule="nonzero" fill-opacity="1" /><path clip-path="url(#clip250)" d="M846.863 1460.34 L891.376 1460.34 L891.376 1466.24 L846.863 1466.24 L846.863 1460.34 Z" fill="#000000" fill-rule="nonzero" fill-opacity="1" /><path clip-path="url(#clip250)" d="M921.515 1438.36 Q916.098 1438.36 913.355 1443.71 Q910.647 1449.02 910.647 1459.71 Q910.647 1470.37 913.355 1475.72 Q916.098 1481.03 921.515 1481.03 Q926.966 1481.03 929.675 1475.72 Q932.418 1470.37 932.418 1459.71 Q932.418 1449.02 929.675 1443.71 Q926.966 1438.36 921.515 1438.36 M921.515 1432.8 Q930.23 1432.8 934.813 1439.71 Q939.432 1446.59 939.432 1459.71 Q939.432 1472.8 934.813 1479.71 Q930.23 1486.59 921.515 1486.59 Q912.8 1486.59 908.182 1479.71 Q903.598 1472.8 903.598 1459.71 Q903.598 1446.59 908.182 1439.71 Q912.8 1432.8 921.515 1432.8 Z" fill="#000000" fill-rule="nonzero" fill-opacity="1" /><path clip-path="url(#clip250)" d="M951.758 1476.76 L959.084 1476.76 L959.084 1485.58 L951.758 1485.58 L951.758 1476.76 Z" fill="#000000" fill-rule="nonzero" fill-opacity="1" /><path clip-path="url(#clip250)" d="M974.431 1433.74 L1001.97 1433.74 L1001.97 1439.64 L980.855 1439.64 L980.855 1452.35 Q982.383 1451.83 983.91 1451.59 Q985.438 1451.31 986.966 1451.31 Q995.646 1451.31 1000.72 1456.07 Q1005.79 1460.82 1005.79 1468.95 Q1005.79 1477.32 1000.58 1481.97 Q995.369 1486.59 985.89 1486.59 Q982.626 1486.59 979.223 1486.03 Q975.855 1485.48 972.244 1484.36 L972.244 1477.32 Q975.369 1479.02 978.702 1479.85 Q982.035 1480.68 985.751 1480.68 Q991.758 1480.68 995.265 1477.52 Q998.771 1474.36 998.771 1468.95 Q998.771 1463.53 995.265 1460.37 Q991.758 1457.21 985.751 1457.21 Q982.938 1457.21 980.126 1457.84 Q977.348 1458.46 974.431 1459.78 L974.431 1433.74 Z" fill="#000000" fill-rule="nonzero" fill-opacity="1" /><path clip-path="url(#clip250)" d="M1299.95 1438.36 Q1294.54 1438.36 1291.79 1443.71 Q1289.08 1449.02 1289.08 1459.71 Q1289.08 1470.37 1291.79 1475.72 Q1294.54 1481.03 1299.95 1481.03 Q1305.4 1481.03 1308.11 1475.72 Q1310.86 1470.37 1310.86 1459.71 Q1310.86 1449.02 1308.11 1443.71 Q1305.4 1438.36 1299.95 1438.36 M1299.95 1432.8 Q1308.67 1432.8 1313.25 1439.71 Q1317.87 1446.59 1317.87 1459.71 Q1317.87 1472.8 1313.25 1479.71 Q1308.67 1486.59 1299.95 1486.59 Q1291.24 1486.59 1286.62 1479.71 Q1282.04 1472.8 1282.04 1459.71 Q1282.04 1446.59 1286.62 1439.71 Q1291.24 1432.8 1299.95 1432.8 Z" fill="#000000" fill-rule="nonzero" fill-opacity="1" /><path clip-path="url(#clip250)" d="M1330.2 1476.76 L1337.52 1476.76 L1337.52 1485.58 L1330.2 1485.58 L1330.2 1476.76 Z" fill="#000000" fill-rule="nonzero" fill-opacity="1" /><path clip-path="url(#clip250)" d="M1367.8 1438.36 Q1362.38 1438.36 1359.64 1443.71 Q1356.93 1449.02 1356.93 1459.71 Q1356.93 1470.37 1359.64 1475.72 Q1362.38 1481.03 1367.8 1481.03 Q1373.25 1481.03 1375.96 1475.72 Q1378.7 1470.37 1378.7 1459.71 Q1378.7 1449.02 1375.96 1443.71 Q1373.25 1438.36 1367.8 1438.36 M1367.8 1432.8 Q1376.51 1432.8 1381.1 1439.71 Q1385.72 1446.59 1385.72 1459.71 Q1385.72 1472.8 1381.1 1479.71 Q1376.51 1486.59 1367.8 1486.59 Q1359.08 1486.59 1354.47 1479.71 Q1349.88 1472.8 1349.88 1459.71 Q1349.88 1446.59 1354.47 1439.71 Q1359.08 1432.8 1367.8 1432.8 Z" fill="#000000" fill-rule="nonzero" fill-opacity="1" /><path clip-path="url(#clip250)" d="M1708.25 1438.36 Q1702.83 1438.36 1700.09 1443.71 Q1697.38 1449.02 1697.38 1459.71 Q1697.38 1470.37 1700.09 1475.72 Q1702.83 1481.03 1708.25 1481.03 Q1713.7 1481.03 1716.41 1475.72 Q1719.15 1470.37 1719.15 1459.71 Q1719.15 1449.02 1716.41 1443.71 Q1713.7 1438.36 1708.25 1438.36 M1708.25 1432.8 Q1716.97 1432.8 1721.55 1439.71 Q1726.17 1446.59 1726.17 1459.71 Q1726.17 1472.8 1721.55 1479.71 Q1716.97 1486.59 1708.25 1486.59 Q1699.54 1486.59 1694.92 1479.71 Q1690.33 1472.8 1690.33 1459.71 Q1690.33 1446.59 1694.92 1439.71 Q1699.54 1432.8 1708.25 1432.8 Z" fill="#000000" fill-rule="nonzero" fill-opacity="1" /><path clip-path="url(#clip250)" d="M1738.49 1476.76 L1745.82 1476.76 L1745.82 1485.58 L1738.49 1485.58 L1738.49 1476.76 Z" fill="#000000" fill-rule="nonzero" fill-opacity="1" /><path clip-path="url(#clip250)" d="M1761.17 1433.74 L1788.7 1433.74 L1788.7 1439.64 L1767.59 1439.64 L1767.59 1452.35 Q1769.12 1451.83 1770.65 1451.59 Q1772.17 1451.31 1773.7 1451.31 Q1782.38 1451.31 1787.45 1456.07 Q1792.52 1460.82 1792.52 1468.95 Q1792.52 1477.32 1787.31 1481.97 Q1782.1 1486.59 1772.63 1486.59 Q1769.36 1486.59 1765.96 1486.03 Q1762.59 1485.48 1758.98 1484.36 L1758.98 1477.32 Q1762.1 1479.02 1765.44 1479.85 Q1768.77 1480.68 1772.49 1480.68 Q1778.49 1480.68 1782 1477.52 Q1785.51 1474.36 1785.51 1468.95 Q1785.51 1463.53 1782 1460.37 Q1778.49 1457.21 1772.49 1457.21 Q1769.67 1457.21 1766.86 1457.84 Q1764.08 1458.46 1761.17 1459.78 L1761.17 1433.74 Z" fill="#000000" fill-rule="nonzero" fill-opacity="1" /><path clip-path="url(#clip250)" d="M2099.71 1479.68 L2111.17 1479.68 L2111.17 1440.13 L2098.7 1442.63 L2098.7 1436.24 L2111.1 1433.74 L2118.11 1433.74 L2118.11 1479.68 L2129.57 1479.68 L2129.57 1485.58 L2099.71 1485.58 L2099.71 1479.68 Z" fill="#000000" fill-rule="nonzero" fill-opacity="1" /><path clip-path="url(#clip250)" d="M2143.74 1476.76 L2151.06 1476.76 L2151.06 1485.58 L2143.74 1485.58 L2143.74 1476.76 Z" fill="#000000" fill-rule="nonzero" fill-opacity="1" /><path clip-path="url(#clip250)" d="M2181.34 1438.36 Q2175.92 1438.36 2173.18 1443.71 Q2170.47 1449.02 2170.47 1459.71 Q2170.47 1470.37 2173.18 1475.72 Q2175.92 1481.03 2181.34 1481.03 Q2186.79 1481.03 2189.5 1475.72 Q2192.24 1470.37 2192.24 1459.71 Q2192.24 1449.02 2189.5 1443.71 Q2186.79 1438.36 2181.34 1438.36 M2181.34 1432.8 Q2190.06 1432.8 2194.64 1439.71 Q2199.26 1446.59 2199.26 1459.71 Q2199.26 1472.8 2194.64 1479.71 Q2190.06 1486.59 2181.34 1486.59 Q2172.63 1486.59 2168.01 1479.71 Q2163.42 1472.8 2163.42 1459.71 Q2163.42 1446.59 2168.01 1439.71 Q2172.63 1432.8 2181.34 1432.8 Z" fill="#000000" fill-rule="nonzero" fill-opacity="1" /><path clip-path="url(#clip250)" d="M1212.77 1538.66 L1219.54 1538.66 L1231.69 1571.3 L1243.84 1538.66 L1250.61 1538.66 L1236.03 1577.55 L1227.35 1577.55 L1212.77 1538.66 Z" fill="#000000" fill-rule="nonzero" fill-opacity="1" /><path clip-path="url(#clip250)" d="M1281.45 1523.52 L1296.17 1523.52 L1296.17 1528.49 L1287.83 1528.49 L1287.83 1581.96 L1296.17 1581.96 L1296.17 1586.92 L1281.45 1586.92 L1281.45 1523.52 Z" fill="#000000" fill-rule="nonzero" fill-opacity="1" /><path clip-path="url(#clip250)" d="M1340.06 1546.12 Q1342.45 1541.82 1345.79 1539.77 Q1349.12 1537.72 1353.63 1537.72 Q1359.71 1537.72 1363.01 1541.99 Q1366.31 1546.23 1366.31 1554.08 L1366.31 1577.55 L1359.88 1577.55 L1359.88 1554.28 Q1359.88 1548.69 1357.9 1545.99 Q1355.92 1543.28 1351.86 1543.28 Q1346.9 1543.28 1344.01 1546.58 Q1341.13 1549.87 1341.13 1555.57 L1341.13 1577.55 L1334.71 1577.55 L1334.71 1554.28 Q1334.71 1548.66 1332.73 1545.99 Q1330.75 1543.28 1326.62 1543.28 Q1321.72 1543.28 1318.84 1546.61 Q1315.96 1549.91 1315.96 1555.57 L1315.96 1577.55 L1309.54 1577.55 L1309.54 1538.66 L1315.96 1538.66 L1315.96 1544.7 Q1318.15 1541.12 1321.2 1539.42 Q1324.26 1537.72 1328.46 1537.72 Q1332.7 1537.72 1335.65 1539.87 Q1338.63 1542.03 1340.06 1546.12 Z" fill="#000000" fill-rule="nonzero" fill-opacity="1" /><path clip-path="url(#clip250)" d="M1390.4 1525.71 L1396.31 1525.71 L1378.25 1584.15 L1372.35 1584.15 L1390.4 1525.71 Z" fill="#000000" fill-rule="nonzero" fill-opacity="1" /><path clip-path="url(#clip250)" d="M1427.8 1539.8 L1427.8 1545.85 Q1425.09 1544.46 1422.17 1543.76 Q1419.26 1543.07 1416.13 1543.07 Q1411.38 1543.07 1408.98 1544.53 Q1406.62 1545.99 1406.62 1548.9 Q1406.62 1551.12 1408.32 1552.41 Q1410.02 1553.66 1415.16 1554.8 L1417.35 1555.29 Q1424.15 1556.75 1427 1559.42 Q1429.88 1562.06 1429.88 1566.82 Q1429.88 1572.24 1425.58 1575.4 Q1421.31 1578.55 1413.81 1578.55 Q1410.68 1578.55 1407.28 1577.93 Q1403.91 1577.34 1400.16 1576.12 L1400.16 1569.53 Q1403.7 1571.37 1407.14 1572.3 Q1410.58 1573.21 1413.94 1573.21 Q1418.46 1573.21 1420.89 1571.68 Q1423.32 1570.12 1423.32 1567.3 Q1423.32 1564.7 1421.55 1563.31 Q1419.81 1561.92 1413.88 1560.64 L1411.65 1560.12 Q1405.72 1558.87 1403.08 1556.3 Q1400.44 1553.69 1400.44 1549.18 Q1400.44 1543.69 1404.33 1540.71 Q1408.22 1537.72 1415.37 1537.72 Q1418.91 1537.72 1422.04 1538.24 Q1425.16 1538.76 1427.8 1539.8 Z" fill="#000000" fill-rule="nonzero" fill-opacity="1" /><path clip-path="url(#clip250)" d="M1454.99 1523.52 L1454.99 1586.92 L1440.26 1586.92 L1440.26 1581.96 L1448.56 1581.96 L1448.56 1528.49 L1440.26 1528.49 L1440.26 1523.52 L1454.99 1523.52 Z" fill="#000000" fill-rule="nonzero" fill-opacity="1" /><polyline clip-path="url(#clip250)" style="stroke:#000000; stroke-linecap:round; stroke-linejoin:round; stroke-width:4; stroke-opacity:1; fill:none" points="314.996,1401.58 314.996,123.472 "/>
<polyline clip-path="url(#clip250)" style="stroke:#000000; stroke-linecap:round; stroke-linejoin:round; stroke-width:4; stroke-opacity:1; fill:none" points="314.996,1400.54 333.894,1400.54 "/>
<polyline clip-path="url(#clip250)" style="stroke:#000000; stroke-linecap:round; stroke-linejoin:round; stroke-width:4; stroke-opacity:1; fill:none" points="314.996,1117.17 333.894,1117.17 "/>
<polyline clip-path="url(#clip250)" style="stroke:#000000; stroke-linecap:round; stroke-linejoin:round; stroke-width:4; stroke-opacity:1; fill:none" points="314.996,833.806 333.894,833.806 "/>
<polyline clip-path="url(#clip250)" style="stroke:#000000; stroke-linecap:round; stroke-linejoin:round; stroke-width:4; stroke-opacity:1; fill:none" points="314.996,550.438 333.894,550.438 "/>
<polyline clip-path="url(#clip250)" style="stroke:#000000; stroke-linecap:round; stroke-linejoin:round; stroke-width:4; stroke-opacity:1; fill:none" points="314.996,267.07 333.894,267.07 "/>
<path clip-path="url(#clip250)" d="M118.58 1401.22 L163.094 1401.22 L163.094 1407.12 L118.58 1407.12 L118.58 1401.22 Z" fill="#000000" fill-rule="nonzero" fill-opacity="1" /><path clip-path="url(#clip250)" d="M178.302 1374.62 L205.837 1374.62 L205.837 1380.52 L184.726 1380.52 L184.726 1393.23 Q186.253 1392.71 187.781 1392.47 Q189.309 1392.19 190.837 1392.19 Q199.517 1392.19 204.587 1396.95 Q209.656 1401.71 209.656 1409.83 Q209.656 1418.2 204.448 1422.85 Q199.239 1427.47 189.76 1427.47 Q186.496 1427.47 183.094 1426.91 Q179.726 1426.36 176.115 1425.25 L176.115 1418.2 Q179.24 1419.9 182.573 1420.73 Q185.906 1421.57 189.621 1421.57 Q195.628 1421.57 199.135 1418.41 Q202.642 1415.25 202.642 1409.83 Q202.642 1404.41 199.135 1401.25 Q195.628 1398.09 189.621 1398.09 Q186.809 1398.09 183.996 1398.72 Q181.219 1399.34 178.302 1400.66 L178.302 1374.62 Z" fill="#000000" fill-rule="nonzero" fill-opacity="1" /><path clip-path="url(#clip250)" d="M223.475 1417.64 L230.802 1417.64 L230.802 1426.46 L223.475 1426.46 L223.475 1417.64 Z" fill="#000000" fill-rule="nonzero" fill-opacity="1" /><path clip-path="url(#clip250)" d="M261.079 1379.24 Q255.663 1379.24 252.92 1384.59 Q250.211 1389.9 250.211 1400.59 Q250.211 1411.25 252.92 1416.6 Q255.663 1421.91 261.079 1421.91 Q266.531 1421.91 269.239 1416.6 Q271.982 1411.25 271.982 1400.59 Q271.982 1389.9 269.239 1384.59 Q266.531 1379.24 261.079 1379.24 M261.079 1373.68 Q269.795 1373.68 274.378 1380.59 Q278.996 1387.47 278.996 1400.59 Q278.996 1413.68 274.378 1420.59 Q269.795 1427.47 261.079 1427.47 Q252.364 1427.47 247.746 1420.59 Q243.163 1413.68 243.163 1400.59 Q243.163 1387.47 247.746 1380.59 Q252.364 1373.68 261.079 1373.68 Z" fill="#000000" fill-rule="nonzero" fill-opacity="1" /><path clip-path="url(#clip250)" d="M120.073 1117.85 L164.587 1117.85 L164.587 1123.75 L120.073 1123.75 L120.073 1117.85 Z" fill="#000000" fill-rule="nonzero" fill-opacity="1" /><path clip-path="url(#clip250)" d="M185.767 1137.19 L210.246 1137.19 L210.246 1143.09 L177.33 1143.09 L177.33 1137.19 Q181.323 1133.06 188.198 1126.11 Q195.108 1119.14 196.878 1117.12 Q200.246 1113.34 201.566 1110.73 Q202.92 1108.09 202.92 1105.56 Q202.92 1101.43 200.003 1098.82 Q197.121 1096.22 192.469 1096.22 Q189.17 1096.22 185.49 1097.37 Q181.844 1098.51 177.677 1100.84 L177.677 1093.75 Q181.913 1092.05 185.594 1091.18 Q189.274 1090.32 192.33 1090.32 Q200.385 1090.32 205.177 1094.34 Q209.969 1098.37 209.969 1105.11 Q209.969 1108.3 208.753 1111.18 Q207.573 1114.03 204.413 1117.92 Q203.545 1118.93 198.892 1123.75 Q194.239 1128.55 185.767 1137.19 Z" fill="#000000" fill-rule="nonzero" fill-opacity="1" /><path clip-path="url(#clip250)" d="M224.968 1134.27 L232.295 1134.27 L232.295 1143.09 L224.968 1143.09 L224.968 1134.27 Z" fill="#000000" fill-rule="nonzero" fill-opacity="1" /><path clip-path="url(#clip250)" d="M247.642 1091.25 L275.177 1091.25 L275.177 1097.16 L254.066 1097.16 L254.066 1109.87 Q255.593 1109.34 257.121 1109.1 Q258.649 1108.82 260.177 1108.82 Q268.857 1108.82 273.927 1113.58 Q278.996 1118.34 278.996 1126.46 Q278.996 1134.83 273.788 1139.48 Q268.579 1144.1 259.1 1144.1 Q255.836 1144.1 252.434 1143.55 Q249.066 1142.99 245.454 1141.88 L245.454 1134.83 Q248.579 1136.53 251.913 1137.36 Q255.246 1138.2 258.961 1138.2 Q264.968 1138.2 268.475 1135.04 Q271.982 1131.88 271.982 1126.46 Q271.982 1121.05 268.475 1117.89 Q264.968 1114.73 258.961 1114.73 Q256.149 1114.73 253.336 1115.35 Q250.559 1115.98 247.642 1117.3 L247.642 1091.25 Z" fill="#000000" fill-rule="nonzero" fill-opacity="1" /><path clip-path="url(#clip250)" d="M193.233 812.504 Q187.816 812.504 185.073 817.851 Q182.365 823.164 182.365 833.858 Q182.365 844.518 185.073 849.865 Q187.816 855.178 193.233 855.178 Q198.684 855.178 201.392 849.865 Q204.135 844.518 204.135 833.858 Q204.135 823.164 201.392 817.851 Q198.684 812.504 193.233 812.504 M193.233 806.949 Q201.948 806.949 206.531 813.858 Q211.149 820.733 211.149 833.858 Q211.149 846.948 206.531 853.858 Q201.948 860.733 193.233 860.733 Q184.517 860.733 179.899 853.858 Q175.316 846.948 175.316 833.858 Q175.316 820.733 179.899 813.858 Q184.517 806.949 193.233 806.949 Z" fill="#000000" fill-rule="nonzero" fill-opacity="1" /><path clip-path="url(#clip250)" d="M223.475 850.907 L230.802 850.907 L230.802 859.726 L223.475 859.726 L223.475 850.907 Z" fill="#000000" fill-rule="nonzero" fill-opacity="1" /><path clip-path="url(#clip250)" d="M261.079 812.504 Q255.663 812.504 252.92 817.851 Q250.211 823.164 250.211 833.858 Q250.211 844.518 252.92 849.865 Q255.663 855.178 261.079 855.178 Q266.531 855.178 269.239 849.865 Q271.982 844.518 271.982 833.858 Q271.982 823.164 269.239 817.851 Q266.531 812.504 261.079 812.504 M261.079 806.949 Q269.795 806.949 274.378 813.858 Q278.996 820.733 278.996 833.858 Q278.996 846.948 274.378 853.858 Q269.795 860.733 261.079 860.733 Q252.364 860.733 247.746 853.858 Q243.163 846.948 243.163 833.858 Q243.163 820.733 247.746 813.858 Q252.364 806.949 261.079 806.949 Z" fill="#000000" fill-rule="nonzero" fill-opacity="1" /><path clip-path="url(#clip250)" d="M185.767 570.456 L210.246 570.456 L210.246 576.358 L177.33 576.358 L177.33 570.456 Q181.323 566.324 188.198 559.379 Q195.108 552.4 196.878 550.386 Q200.246 546.602 201.566 543.997 Q202.92 541.358 202.92 538.824 Q202.92 534.692 200.003 532.088 Q197.121 529.484 192.469 529.484 Q189.17 529.484 185.49 530.629 Q181.844 531.775 177.677 534.102 L177.677 527.018 Q181.913 525.317 185.594 524.449 Q189.274 523.581 192.33 523.581 Q200.385 523.581 205.177 527.609 Q209.969 531.636 209.969 538.372 Q209.969 541.567 208.753 544.449 Q207.573 547.296 204.413 551.185 Q203.545 552.192 198.892 557.018 Q194.239 561.81 185.767 570.456 Z" fill="#000000" fill-rule="nonzero" fill-opacity="1" /><path clip-path="url(#clip250)" d="M224.968 567.539 L232.295 567.539 L232.295 576.358 L224.968 576.358 L224.968 567.539 Z" fill="#000000" fill-rule="nonzero" fill-opacity="1" /><path clip-path="url(#clip250)" d="M247.642 524.518 L275.177 524.518 L275.177 530.421 L254.066 530.421 L254.066 543.129 Q255.593 542.608 257.121 542.365 Q258.649 542.088 260.177 542.088 Q268.857 542.088 273.927 546.845 Q278.996 551.601 278.996 559.726 Q278.996 568.094 273.788 572.747 Q268.579 577.365 259.1 577.365 Q255.836 577.365 252.434 576.81 Q249.066 576.254 245.454 575.143 L245.454 568.094 Q248.579 569.796 251.913 570.629 Q255.246 571.463 258.961 571.463 Q264.968 571.463 268.475 568.303 Q271.982 565.143 271.982 559.726 Q271.982 554.31 268.475 551.15 Q264.968 547.99 258.961 547.99 Q256.149 547.99 253.336 548.615 Q250.559 549.24 247.642 550.56 L247.642 524.518 Z" fill="#000000" fill-rule="nonzero" fill-opacity="1" /><path clip-path="url(#clip250)" d="M178.302 241.15 L205.837 241.15 L205.837 247.053 L184.726 247.053 L184.726 259.761 Q186.253 259.241 187.781 258.998 Q189.309 258.72 190.837 258.72 Q199.517 258.72 204.587 263.477 Q209.656 268.234 209.656 276.359 Q209.656 284.727 204.448 289.379 Q199.239 293.997 189.76 293.997 Q186.496 293.997 183.094 293.442 Q179.726 292.886 176.115 291.775 L176.115 284.727 Q179.24 286.428 182.573 287.261 Q185.906 288.095 189.621 288.095 Q195.628 288.095 199.135 284.935 Q202.642 281.775 202.642 276.359 Q202.642 270.942 199.135 267.782 Q195.628 264.623 189.621 264.623 Q186.809 264.623 183.996 265.248 Q181.219 265.873 178.302 267.192 L178.302 241.15 Z" fill="#000000" fill-rule="nonzero" fill-opacity="1" /><path clip-path="url(#clip250)" d="M223.475 284.171 L230.802 284.171 L230.802 292.99 L223.475 292.99 L223.475 284.171 Z" fill="#000000" fill-rule="nonzero" fill-opacity="1" /><path clip-path="url(#clip250)" d="M261.079 245.768 Q255.663 245.768 252.92 251.116 Q250.211 256.428 250.211 267.123 Q250.211 277.782 252.92 283.129 Q255.663 288.442 261.079 288.442 Q266.531 288.442 269.239 283.129 Q271.982 277.782 271.982 267.123 Q271.982 256.428 269.239 251.116 Q266.531 245.768 261.079 245.768 M261.079 240.213 Q269.795 240.213 274.378 247.123 Q278.996 253.998 278.996 267.123 Q278.996 280.213 274.378 287.122 Q269.795 293.997 261.079 293.997 Q252.364 293.997 247.746 287.122 Q243.163 280.213 243.163 267.123 Q243.163 253.998 247.746 247.123 Q252.364 240.213 261.079 240.213 Z" fill="#000000" fill-rule="nonzero" fill-opacity="1" /><path clip-path="url(#clip250)" d="M13.0007 1025.04 L18.3131 1025.04 L18.3131 1031.15 Q18.3131 1034.59 19.702 1035.94 Q21.0909 1037.26 24.702 1037.26 L28.1395 1037.26 L28.1395 1026.74 L33.1047 1026.74 L33.1047 1037.26 L67.0282 1037.26 L67.0282 1043.69 L33.1047 1043.69 L33.1047 1049.8 L28.1395 1049.8 L28.1395 1043.69 L25.4312 1043.69 Q18.9381 1043.69 15.9868 1040.67 Q13.0007 1037.65 13.0007 1031.08 L13.0007 1025.04 Z" fill="#000000" fill-rule="nonzero" fill-opacity="1" /><path clip-path="url(#clip250)" d="M34.1117 997.16 Q33.4867 998.237 33.2089 999.521 Q32.8964 1000.77 32.8964 1002.3 Q32.8964 1007.72 36.438 1010.63 Q39.945 1013.51 46.5422 1013.51 L67.0282 1013.51 L67.0282 1019.94 L28.1395 1019.94 L28.1395 1013.51 L34.1811 1013.51 Q30.6395 1011.5 28.9381 1008.27 Q27.202 1005.04 27.202 1000.42 Q27.202 999.764 27.3061 998.966 Q27.3756 998.167 27.5492 997.195 L34.1117 997.16 Z" fill="#000000" fill-rule="nonzero" fill-opacity="1" /><path clip-path="url(#clip250)" d="M28.1395 990.459 L28.1395 984.07 L67.0282 984.07 L67.0282 990.459 L28.1395 990.459 M13.0007 990.459 L13.0007 984.07 L21.0909 984.07 L21.0909 990.459 L13.0007 990.459 Z" fill="#000000" fill-rule="nonzero" fill-opacity="1" /><path clip-path="url(#clip250)" d="M29.6325 942.716 L35.6047 942.716 Q34.1117 945.424 33.3825 948.167 Q32.6186 950.876 32.6186 953.653 Q32.6186 959.869 36.5769 963.306 Q40.5005 966.744 47.6185 966.744 Q54.7366 966.744 58.6949 963.306 Q62.6185 959.869 62.6185 953.653 Q62.6185 950.876 61.8893 948.167 Q61.1254 945.424 59.6324 942.716 L65.5351 942.716 Q66.7851 945.39 67.4101 948.272 Q68.0351 951.119 68.0351 954.348 Q68.0351 963.133 62.5143 968.306 Q56.9935 973.48 47.6185 973.48 Q38.1047 973.48 32.6533 968.271 Q27.202 963.028 27.202 953.931 Q27.202 950.98 27.827 948.167 Q28.4173 945.355 29.6325 942.716 Z" fill="#000000" fill-rule="nonzero" fill-opacity="1" /><path clip-path="url(#clip250)" d="M17.0979 925.286 L28.1395 925.286 L28.1395 912.126 L33.1047 912.126 L33.1047 925.286 L54.2157 925.286 Q58.9726 925.286 60.3268 924.001 Q61.681 922.681 61.681 918.688 L61.681 912.126 L67.0282 912.126 L67.0282 918.688 Q67.0282 926.084 64.2851 928.897 Q61.5074 931.709 54.2157 931.709 L33.1047 931.709 L33.1047 936.397 L28.1395 936.397 L28.1395 931.709 L17.0979 931.709 L17.0979 925.286 Z" fill="#000000" fill-rule="nonzero" fill-opacity="1" /><path clip-path="url(#clip250)" d="M28.1395 903.723 L28.1395 897.334 L67.0282 897.334 L67.0282 903.723 L28.1395 903.723 M13.0007 903.723 L13.0007 897.334 L21.0909 897.334 L21.0909 903.723 L13.0007 903.723 Z" fill="#000000" fill-rule="nonzero" fill-opacity="1" /><path clip-path="url(#clip250)" d="M32.6186 868.897 Q32.6186 874.036 36.6464 877.022 Q40.6394 880.008 47.6185 880.008 Q54.5977 880.008 58.6254 877.057 Q62.6185 874.071 62.6185 868.897 Q62.6185 863.793 58.5907 860.807 Q54.5629 857.821 47.6185 857.821 Q40.7089 857.821 36.6811 860.807 Q32.6186 863.793 32.6186 868.897 M27.202 868.897 Q27.202 860.564 32.6186 855.807 Q38.0353 851.05 47.6185 851.05 Q57.1671 851.05 62.6185 855.807 Q68.0351 860.564 68.0351 868.897 Q68.0351 877.265 62.6185 882.022 Q57.1671 886.744 47.6185 886.744 Q38.0353 886.744 32.6186 882.022 Q27.202 877.265 27.202 868.897 Z" fill="#000000" fill-rule="nonzero" fill-opacity="1" /><path clip-path="url(#clip250)" d="M43.5561 808.133 L67.0282 808.133 L67.0282 814.522 L43.7644 814.522 Q38.2436 814.522 35.5005 816.675 Q32.7575 818.828 32.7575 823.133 Q32.7575 828.307 36.0561 831.293 Q39.3547 834.279 45.0491 834.279 L67.0282 834.279 L67.0282 840.703 L28.1395 840.703 L28.1395 834.279 L34.1811 834.279 Q30.6742 831.987 28.9381 828.897 Q27.202 825.772 27.202 821.71 Q27.202 815.008 31.3686 811.571 Q35.5005 808.133 43.5561 808.133 Z" fill="#000000" fill-rule="nonzero" fill-opacity="1" /><path clip-path="url(#clip250)" d="M13.0007 753.099 L18.3131 753.099 L18.3131 759.21 Q18.3131 762.648 19.702 764.002 Q21.0909 765.321 24.702 765.321 L28.1395 765.321 L28.1395 754.8 L33.1047 754.8 L33.1047 765.321 L67.0282 765.321 L67.0282 771.745 L33.1047 771.745 L33.1047 777.856 L28.1395 777.856 L28.1395 771.745 L25.4312 771.745 Q18.9381 771.745 15.9868 768.724 Q13.0007 765.703 13.0007 759.141 L13.0007 753.099 Z" fill="#000000" fill-rule="nonzero" fill-opacity="1" /><path clip-path="url(#clip250)" d="M32.6186 732.682 Q32.6186 737.821 36.6464 740.807 Q40.6394 743.793 47.6185 743.793 Q54.5977 743.793 58.6254 740.842 Q62.6185 737.856 62.6185 732.682 Q62.6185 727.578 58.5907 724.592 Q54.5629 721.606 47.6185 721.606 Q40.7089 721.606 36.6811 724.592 Q32.6186 727.578 32.6186 732.682 M27.202 732.682 Q27.202 724.349 32.6186 719.592 Q38.0353 714.835 47.6185 714.835 Q57.1671 714.835 62.6185 719.592 Q68.0351 724.349 68.0351 732.682 Q68.0351 741.05 62.6185 745.807 Q57.1671 750.53 47.6185 750.53 Q38.0353 750.53 32.6186 745.807 Q27.202 741.05 27.202 732.682 Z" fill="#000000" fill-rule="nonzero" fill-opacity="1" /><path clip-path="url(#clip250)" d="M34.1117 681.71 Q33.4867 682.787 33.2089 684.072 Q32.8964 685.322 32.8964 686.849 Q32.8964 692.266 36.438 695.183 Q39.945 698.065 46.5422 698.065 L67.0282 698.065 L67.0282 704.488 L28.1395 704.488 L28.1395 698.065 L34.1811 698.065 Q30.6395 696.051 28.9381 692.821 Q27.202 689.592 27.202 684.974 Q27.202 684.315 27.3061 683.516 Q27.3756 682.717 27.5492 681.745 L34.1117 681.71 Z" fill="#000000" fill-rule="nonzero" fill-opacity="1" /><path clip-path="url(#clip250)" d="M29.6325 648.586 L35.6047 648.586 Q34.1117 651.294 33.3825 654.037 Q32.6186 656.745 32.6186 659.523 Q32.6186 665.738 36.5769 669.176 Q40.5005 672.613 47.6185 672.613 Q54.7366 672.613 58.6949 669.176 Q62.6185 665.738 62.6185 659.523 Q62.6185 656.745 61.8893 654.037 Q61.1254 651.294 59.6324 648.586 L65.5351 648.586 Q66.7851 651.259 67.4101 654.141 Q68.0351 656.988 68.0351 660.218 Q68.0351 669.002 62.5143 674.176 Q56.9935 679.349 47.6185 679.349 Q38.1047 679.349 32.6533 674.141 Q27.202 668.898 27.202 659.801 Q27.202 656.849 27.827 654.037 Q28.4173 651.224 29.6325 648.586 Z" fill="#000000" fill-rule="nonzero" fill-opacity="1" /><path clip-path="url(#clip250)" d="M45.9866 604.211 L49.1116 604.211 L49.1116 633.586 Q55.7088 633.169 59.181 629.627 Q62.6185 626.051 62.6185 619.697 Q62.6185 616.016 61.7157 612.579 Q60.8129 609.107 59.0074 605.704 L65.049 605.704 Q66.5073 609.141 67.2712 612.752 Q68.0351 616.364 68.0351 620.079 Q68.0351 629.384 62.6185 634.836 Q57.2018 640.252 47.9658 640.252 Q38.4172 640.252 32.827 635.113 Q27.202 629.94 27.202 621.19 Q27.202 613.343 32.2714 608.794 Q37.3061 604.211 45.9866 604.211 M44.1116 610.6 Q38.8686 610.669 35.7436 613.551 Q32.6186 616.398 32.6186 621.12 Q32.6186 626.468 35.6394 629.697 Q38.6603 632.891 44.1463 633.377 L44.1116 610.6 Z" fill="#000000" fill-rule="nonzero" fill-opacity="1" /><path clip-path="url(#clip250)" d="M13.0007 571.711 L13.0007 556.989 L17.9659 556.989 L17.9659 565.322 L71.4379 565.322 L71.4379 556.989 L76.4031 556.989 L76.4031 571.711 L13.0007 571.711 Z" fill="#000000" fill-rule="nonzero" fill-opacity="1" /><path clip-path="url(#clip250)" d="M15.1882 543.1 L15.1882 533.656 L58.556 510.67 L15.1882 510.67 L15.1882 503.864 L67.0282 503.864 L67.0282 513.309 L23.6603 536.295 L67.0282 536.295 L67.0282 543.1 L15.1882 543.1 Z" fill="#000000" fill-rule="nonzero" fill-opacity="1" /><path clip-path="url(#clip250)" d="M13.0007 475.253 L76.4031 475.253 L76.4031 489.975 L71.4379 489.975 L71.4379 481.677 L17.9659 481.677 L17.9659 489.975 L13.0007 489.975 L13.0007 475.253 Z" fill="#000000" fill-rule="nonzero" fill-opacity="1" /><path clip-path="url(#clip250)" d="M1008.49 12.096 L1043.24 12.096 L1043.24 18.9825 L1016.67 18.9825 L1016.67 36.8065 L1040.65 36.8065 L1040.65 43.6931 L1016.67 43.6931 L1016.67 72.576 L1008.49 72.576 L1008.49 12.096 Z" fill="#000000" fill-rule="nonzero" fill-opacity="1" /><path clip-path="url(#clip250)" d="M1076.14 34.1734 Q1074.88 33.4443 1073.38 33.1202 Q1071.92 32.7556 1070.14 32.7556 Q1063.82 32.7556 1060.42 36.8875 Q1057.06 40.9789 1057.06 48.6757 L1057.06 72.576 L1049.56 72.576 L1049.56 27.2059 L1057.06 27.2059 L1057.06 34.2544 Q1059.41 30.1225 1063.17 28.1376 Q1066.94 26.1121 1072.33 26.1121 Q1073.1 26.1121 1074.03 26.2337 Q1074.96 26.3147 1076.1 26.5172 L1076.14 34.1734 Z" fill="#000000" fill-rule="nonzero" fill-opacity="1" /><path clip-path="url(#clip250)" d="M1083.96 27.2059 L1091.41 27.2059 L1091.41 72.576 L1083.96 72.576 L1083.96 27.2059 M1083.96 9.54393 L1091.41 9.54393 L1091.41 18.9825 L1083.96 18.9825 L1083.96 9.54393 Z" fill="#000000" fill-rule="nonzero" fill-opacity="1" /><path clip-path="url(#clip250)" d="M1139.66 28.9478 L1139.66 35.9153 Q1136.5 34.1734 1133.3 33.3227 Q1130.14 32.4315 1126.89 32.4315 Q1119.64 32.4315 1115.63 37.0496 Q1111.62 41.6271 1111.62 49.9314 Q1111.62 58.2358 1115.63 62.8538 Q1119.64 67.4314 1126.89 67.4314 Q1130.14 67.4314 1133.3 66.5807 Q1136.5 65.6895 1139.66 63.9476 L1139.66 70.8341 Q1136.54 72.2924 1133.17 73.0216 Q1129.85 73.7508 1126.08 73.7508 Q1115.84 73.7508 1109.8 67.3098 Q1103.76 60.8689 1103.76 49.9314 Q1103.76 38.832 1109.84 32.472 Q1115.96 26.1121 1126.57 26.1121 Q1130.01 26.1121 1133.3 26.8413 Q1136.58 27.5299 1139.66 28.9478 Z" fill="#000000" fill-rule="nonzero" fill-opacity="1" /><path clip-path="url(#clip250)" d="M1159.99 14.324 L1159.99 27.2059 L1175.34 27.2059 L1175.34 32.9987 L1159.99 32.9987 L1159.99 57.6282 Q1159.99 63.1779 1161.49 64.7578 Q1163.03 66.3376 1167.69 66.3376 L1175.34 66.3376 L1175.34 72.576 L1167.69 72.576 Q1159.06 72.576 1155.78 69.3758 Q1152.5 66.1351 1152.5 57.6282 L1152.5 32.9987 L1147.03 32.9987 L1147.03 27.2059 L1152.5 27.2059 L1152.5 14.324 L1159.99 14.324 Z" fill="#000000" fill-rule="nonzero" fill-opacity="1" /><path clip-path="url(#clip250)" d="M1185.15 27.2059 L1192.6 27.2059 L1192.6 72.576 L1185.15 72.576 L1185.15 27.2059 M1185.15 9.54393 L1192.6 9.54393 L1192.6 18.9825 L1185.15 18.9825 L1185.15 9.54393 Z" fill="#000000" fill-rule="nonzero" fill-opacity="1" /><path clip-path="url(#clip250)" d="M1225.78 32.4315 Q1219.78 32.4315 1216.3 37.1306 Q1212.81 41.7891 1212.81 49.9314 Q1212.81 58.0738 1216.26 62.7728 Q1219.74 67.4314 1225.78 67.4314 Q1231.73 67.4314 1235.22 62.7323 Q1238.7 58.0333 1238.7 49.9314 Q1238.7 41.8701 1235.22 37.1711 Q1231.73 32.4315 1225.78 32.4315 M1225.78 26.1121 Q1235.5 26.1121 1241.05 32.4315 Q1246.6 38.7509 1246.6 49.9314 Q1246.6 61.0714 1241.05 67.4314 Q1235.5 73.7508 1225.78 73.7508 Q1216.01 73.7508 1210.47 67.4314 Q1204.96 61.0714 1204.96 49.9314 Q1204.96 38.7509 1210.47 32.4315 Q1216.01 26.1121 1225.78 26.1121 Z" fill="#000000" fill-rule="nonzero" fill-opacity="1" /><path clip-path="url(#clip250)" d="M1296.67 45.1919 L1296.67 72.576 L1289.21 72.576 L1289.21 45.4349 Q1289.21 38.994 1286.7 35.7938 Q1284.19 32.5936 1279.17 32.5936 Q1273.13 32.5936 1269.65 36.4419 Q1266.17 40.2903 1266.17 46.9338 L1266.17 72.576 L1258.67 72.576 L1258.67 27.2059 L1266.17 27.2059 L1266.17 34.2544 Q1268.84 30.163 1272.44 28.1376 Q1276.09 26.1121 1280.83 26.1121 Q1288.65 26.1121 1292.66 30.9732 Q1296.67 35.7938 1296.67 45.1919 Z" fill="#000000" fill-rule="nonzero" fill-opacity="1" /><path clip-path="url(#clip250)" d="M1373.23 35.9153 Q1376.03 30.8922 1379.91 28.5022 Q1383.8 26.1121 1389.07 26.1121 Q1396.16 26.1121 1400.01 31.0947 Q1403.86 36.0368 1403.86 45.1919 L1403.86 72.576 L1396.36 72.576 L1396.36 45.4349 Q1396.36 38.913 1394.05 35.7533 Q1391.74 32.5936 1387 32.5936 Q1381.21 32.5936 1377.85 36.4419 Q1374.49 40.2903 1374.49 46.9338 L1374.49 72.576 L1366.99 72.576 L1366.99 45.4349 Q1366.99 38.8725 1364.68 35.7533 Q1362.37 32.5936 1357.55 32.5936 Q1351.84 32.5936 1348.48 36.4824 Q1345.12 40.3308 1345.12 46.9338 L1345.12 72.576 L1337.62 72.576 L1337.62 27.2059 L1345.12 27.2059 L1345.12 34.2544 Q1347.67 30.082 1351.23 28.0971 Q1354.8 26.1121 1359.7 26.1121 Q1364.64 26.1121 1368.09 28.6237 Q1371.57 31.1352 1373.23 35.9153 Z" fill="#000000" fill-rule="nonzero" fill-opacity="1" /><path clip-path="url(#clip250)" d="M1436.3 32.4315 Q1430.31 32.4315 1426.82 37.1306 Q1423.34 41.7891 1423.34 49.9314 Q1423.34 58.0738 1426.78 62.7728 Q1430.27 67.4314 1436.3 67.4314 Q1442.26 67.4314 1445.74 62.7323 Q1449.23 58.0333 1449.23 49.9314 Q1449.23 41.8701 1445.74 37.1711 Q1442.26 32.4315 1436.3 32.4315 M1436.3 26.1121 Q1446.03 26.1121 1451.57 32.4315 Q1457.12 38.7509 1457.12 49.9314 Q1457.12 61.0714 1451.57 67.4314 Q1446.03 73.7508 1436.3 73.7508 Q1426.54 73.7508 1420.99 67.4314 Q1415.48 61.0714 1415.48 49.9314 Q1415.48 38.7509 1420.99 32.4315 Q1426.54 26.1121 1436.3 26.1121 Z" fill="#000000" fill-rule="nonzero" fill-opacity="1" /><path clip-path="url(#clip250)" d="M1499.34 34.0924 L1499.34 9.54393 L1506.79 9.54393 L1506.79 72.576 L1499.34 72.576 L1499.34 65.7705 Q1496.99 69.8214 1493.38 71.8063 Q1489.82 73.7508 1484.79 73.7508 Q1476.57 73.7508 1471.38 67.1883 Q1466.24 60.6258 1466.24 49.9314 Q1466.24 39.2371 1471.38 32.6746 Q1476.57 26.1121 1484.79 26.1121 Q1489.82 26.1121 1493.38 28.0971 Q1496.99 30.0415 1499.34 34.0924 M1473.94 49.9314 Q1473.94 58.1548 1477.3 62.8538 Q1480.7 67.5124 1486.62 67.5124 Q1492.53 67.5124 1495.93 62.8538 Q1499.34 58.1548 1499.34 49.9314 Q1499.34 41.7081 1495.93 37.0496 Q1492.53 32.3505 1486.62 32.3505 Q1480.7 32.3505 1477.3 37.0496 Q1473.94 41.7081 1473.94 49.9314 Z" fill="#000000" fill-rule="nonzero" fill-opacity="1" /><path clip-path="url(#clip250)" d="M1560.95 48.0275 L1560.95 51.6733 L1526.68 51.6733 Q1527.16 59.3701 1531.3 63.421 Q1535.47 67.4314 1542.88 67.4314 Q1547.18 67.4314 1551.19 66.3781 Q1555.24 65.3249 1559.21 63.2184 L1559.21 70.267 Q1555.2 71.9684 1550.98 72.8596 Q1546.77 73.7508 1542.44 73.7508 Q1531.58 73.7508 1525.22 67.4314 Q1518.9 61.1119 1518.9 50.3365 Q1518.9 39.1965 1524.9 32.6746 Q1530.93 26.1121 1541.14 26.1121 Q1550.3 26.1121 1555.6 32.0264 Q1560.95 37.9003 1560.95 48.0275 M1553.5 45.84 Q1553.41 39.7232 1550.05 36.0774 Q1546.73 32.4315 1541.22 32.4315 Q1534.98 32.4315 1531.22 35.9558 Q1527.49 39.4801 1526.92 45.8805 L1553.5 45.84 Z" fill="#000000" fill-rule="nonzero" fill-opacity="1" /><path clip-path="url(#clip250)" d="M1573.18 9.54393 L1580.64 9.54393 L1580.64 72.576 L1573.18 72.576 L1573.18 9.54393 Z" fill="#000000" fill-rule="nonzero" fill-opacity="1" /><path clip-path="url(#clip250)" d="M1630.71 65.6895 L1659.26 65.6895 L1659.26 72.576 L1620.86 72.576 L1620.86 65.6895 Q1625.52 60.8689 1633.54 52.7671 Q1641.6 44.6248 1643.67 42.2752 Q1647.6 37.8598 1649.14 34.8216 Q1650.72 31.7429 1650.72 28.7857 Q1650.72 23.9651 1647.31 20.927 Q1643.95 17.8888 1638.52 17.8888 Q1634.68 17.8888 1630.38 19.2256 Q1626.13 20.5624 1621.27 23.2765 L1621.27 15.0127 Q1626.21 13.0277 1630.5 12.015 Q1634.8 11.0023 1638.36 11.0023 Q1647.76 11.0023 1653.35 15.7013 Q1658.94 20.4004 1658.94 28.2591 Q1658.94 31.9859 1657.52 35.3482 Q1656.15 38.6699 1652.46 43.2069 Q1651.45 44.3817 1646.02 50.0125 Q1640.59 55.6027 1630.71 65.6895 Z" fill="#000000" fill-rule="nonzero" fill-opacity="1" /><polyline clip-path="url(#clip252)" style="stroke:#009af9; stroke-linecap:round; stroke-linejoin:round; stroke-width:8; stroke-opacity:1; fill:none" points="1333.88,833.806 1368.67,833.806 1403.74,833.806 1439.01,833.806 1474.44,833.806 1509.95,833.806 1545.51,833.806 1581.04,833.806 1616.51,833.806 1651.85,833.806 1687.02,833.806 1721.97,833.806 1756.64,833.806 1791,833.806 1824.99,833.806 1858.58,833.806 1891.72,833.806 1924.37,833.806 1956.48,833.806 1988.03,833.806 2018.97,833.806 2049.27,833.806 2078.89,833.806 2107.8,833.806 2135.96,833.806 2163.34,833.806 2189.92,833.806 2215.66,833.806 2240.53,833.806 2264.51,833.806 2287.58,833.806 2309.7,833.806 2330.85,833.806 2351.02,833.806 2370.17,833.806 2388.29,833.806 2405.37,833.806 2421.37,833.806 2436.29,833.806 2450.11,833.806 2462.82,833.806 2474.4,833.806 2484.84,833.806 2494.13,833.806 2502.26,833.806 2509.22,833.806 2515.01,833.806 2519.62,833.806 2523.04,833.806 2525.28,833.806 2526.32,833.806 2526.17,833.806 2524.82,833.806 2522.29,833.806 2518.57,833.806 2513.66,833.806 2507.58,833.806 2500.31,833.806 2491.89,833.806 2482.3,833.806 2471.56,833.806 2459.69,833.806 2446.69,833.806 2432.57,833.806 2417.35,833.806 2401.05,833.806 2383.67,833.806 2365.24,833.806 2345.78,833.806 2325.29,833.806 2303.81,833.806 2281.34,833.806 2257.92,833.806 2233.56,833.806 2208.29,833.806 2182.12,833.806 2155.09,833.806 2127.21,833.806 2098.52,833.806 2069.03,833.806 2038.76,833.806 2007.76,833.806 1976.04,833.806 1943.62,833.806 1910.54,833.806 1876.82,833.806 1842.48,833.806 1807.55,833.806 1772.05,833.806 1736.01,833.806 1699.46,833.806 1662.4,833.806 1624.87,833.806 1586.88,833.806 1548.45,833.806 1509.6,833.806 1470.34,833.806 1430.67,833.806 1390.62,833.806 1350.18,833.806 1316.73,833.806 1287.9,833.806 1258.87,833.806 1229.69,833.806 1200.4,833.806 1171.05,833.806 1141.68,833.806 1112.33,833.806 1083.05,833.806 1053.87,833.806 1024.85,833.806 996.009,833.806 967.397,833.806 939.05,833.806 911.005,833.806 883.297,833.806 855.963,833.806 829.036,833.806 802.55,833.806 776.537,833.806 751.029,833.806 726.055,833.806 701.646,833.806 677.83,833.806 654.635,833.806 632.087,833.806 610.212,833.806 589.035,833.806 568.58,833.806 548.869,833.806 529.925,833.806 511.768,833.806 494.419,833.806 477.896,833.806 462.216,833.806 447.399,833.806 433.458,833.806 420.41,833.806 408.268,833.806 397.045,833.806 386.753,833.806 377.404,833.806 369.008,833.806 361.572,833.806 355.106,833.806 349.616,833.806 345.109,833.806 341.588,833.806 339.059,833.806 337.523,833.806 336.984,833.806 337.441,833.806 338.895,833.806 341.344,833.806 344.787,833.806 349.221,833.806 354.641,833.806 361.043,833.806 368.42,833.806 376.766,833.806 386.073,833.806 396.333,833.806 407.535,833.806 419.67,833.806 432.726,833.806 446.691,833.806 461.553,833.806 477.297,833.806 493.909,833.806 511.375,833.806 529.677,833.806 548.801,833.806 568.728,833.806 589.441,833.806 610.922,833.806 633.152,833.806 656.112,833.806 679.783,833.806 704.143,833.806 729.174,833.806 754.854,833.806 781.163,833.806 808.08,833.806 835.584,833.806 863.654,833.806 892.27,833.806 921.41,833.806 951.056,833.806 981.186,833.806 1011.78,833.806 1042.82,833.806 1074.29,833.806 1106.18,833.806 1138.45,833.806 1171.11,833.806 1204.13,833.806 1237.51,833.806 1271.24,833.806 1305.3,833.806 1337.61,833.806 1360.01,833.806 1382.59,833.806 1405.31,833.806 1428.14,833.806 1451.05,833.806 1473.99,833.806 1496.95,833.806 1519.89,833.806 1542.78,833.806 1565.58,833.806 1588.27,833.806 1610.81,833.806 1633.18,833.806 1655.35,833.806 1677.29,833.806 1698.96,833.806 1720.35,833.806 1741.42,833.806 1762.15,833.806 1782.51,833.806 1802.48,833.806 1822.04,833.806 1841.16,833.806 1859.81,833.806 1877.98,833.806 1895.65,833.806 1912.78,833.806 1929.37,833.806 1945.4,833.806 1960.84,833.806 1975.68,833.806 1989.9,833.806 2003.49,833.806 2016.42,833.806 2028.69,833.806 2040.28,833.806 2051.18,833.806 2061.37,833.806 2070.85,833.806 2079.6,833.806 2087.62,833.806 2094.89,833.806 2101.41,833.806 2107.16,833.806 2112.15,833.806 2116.36,833.806 2119.8,833.806 2122.45,833.806 2124.31,833.806 2125.39,833.806 2125.67,833.806 2125.17,833.806 2123.87,833.806 2121.78,833.806 2118.9,833.806 2115.23,833.806 2110.78,833.806 2105.54,833.806 2099.53,833.806 2092.75,833.806 2085.2,833.806 2076.89,833.806 2067.82,833.806 2058.01,833.806 2047.47,833.806 2036.2,833.806 2024.21,833.806 2011.51,833.806 1998.12,833.806 1984.05,833.806 1969.3,833.806 1953.89,833.806 1937.84,833.806 1921.15,833.806 1903.85,833.806 1885.94,833.806 1867.44,833.806 1848.36,833.806 1828.73,833.806 1808.55,833.806 1787.84,833.806 1766.62,833.806 1744.91,833.806 1722.71,833.806 1700.05,833.806 1676.95,833.806 1653.41,833.806 1629.45,833.806 1605.1,833.806 1580.36,833.806 1555.24,833.806 1529.78,833.806 1503.97,833.806 1477.83,833.806 1451.38,833.806 1424.62,833.806 1397.57,833.806 1370.24,833.806 1342.64,833.806 1323.16,833.806 1307.41,833.806 1291.53,833.806 1275.57,833.806 1259.53,833.806 1243.44,833.806 1227.32,833.806 1211.2,833.806 1195.08,833.806 1178.99,833.806 1162.96,833.806 1147,833.806 1131.14,833.806 1115.39,833.806 1099.78,833.806 1084.31,833.806 1069.03,833.806 1053.93,833.806 1039.05,833.806 1024.4,833.806 1010,833.806 995.863,833.806 982.011,833.806 968.46,833.806 955.226,833.806 942.326,833.806 929.775,833.806 917.588,833.806 905.78,833.806 894.366,833.806 883.358,833.806 872.771,833.806 862.617,833.806 852.907,833.806 843.654,833.806 834.868,833.806 826.561,833.806 818.742,833.806 811.42,833.806 804.604,833.806 798.303,833.806 792.525,833.806 787.276,833.806 782.562,833.806 778.391,833.806 774.767,833.806 771.696,833.806 769.181,833.806 767.226,833.806 765.835,833.806 765.009,833.806 764.751,833.806 765.062,833.806 765.943,833.806 767.394,833.806 769.415,833.806 772.006,833.806 775.163,833.806 778.887,833.806 783.174,833.806 788.021,833.806 793.424,833.806 799.38,833.806 805.885,833.806 812.932,833.806 820.517,833.806 828.634,833.806 837.276,833.806 846.437,833.806 856.108,833.806 866.284,833.806 876.954,833.806 888.112,833.806 899.748,833.806 911.853,833.806 924.417,833.806 937.432,833.806 950.886,833.806 964.77,833.806 979.072,833.806 993.784,833.806 1008.89,833.806 1024.39,833.806 1040.26,833.806 1056.49,833.806 1073.08,833.806 1090,833.806 1107.26,833.806 1124.83,833.806 1142.71,833.806 1160.89,833.806 1179.35,833.806 1198.08,833.806 1217.07,833.806 1236.31,833.806 1255.8,833.806 1275.51,833.806 1295.44,833.806 1315.59,833.806 1334.7,833.806 1342.95,833.806 1351.26,833.806 "/>
<polyline clip-path="url(#clip252)" style="stroke:#e26f46; stroke-linecap:round; stroke-linejoin:round; stroke-width:8; stroke-opacity:1; fill:none" points="1333.88,748.796 1368.67,753.192 1403.74,757.238 1439.01,760.951 1474.44,764.35 1509.95,767.453 1545.51,770.28 1581.04,772.848 1616.51,775.177 1651.85,777.285 1687.02,779.187 1721.97,780.902 1756.64,782.445 1791,783.83 1824.99,785.071 1858.58,786.181 1891.72,787.172 1924.37,788.055 1956.48,788.84 1988.03,789.537 2018.97,790.154 2049.27,790.699 2078.89,791.18 2107.8,791.603 2135.96,791.974 2163.34,792.298 2189.92,792.58 2215.66,792.826 2240.53,793.039 2264.51,793.222 2287.58,793.38 2309.7,793.514 2330.85,793.629 2351.02,793.725 2370.17,793.807 2388.29,793.875 2405.37,793.931 2421.37,793.977 2436.29,794.014 2450.11,794.045 2462.82,794.069 2474.4,794.088 2484.84,794.103 2494.13,794.114 2502.26,794.122 2509.22,794.128 2515.01,794.133 2519.62,794.136 2523.04,794.138 2525.28,794.139 2526.32,794.14 2526.17,794.14 2524.82,794.139 2522.29,794.138 2518.57,794.135 2513.66,794.132 2507.58,794.127 2500.31,794.12 2491.89,794.111 2482.3,794.099 2471.56,794.083 2459.69,794.063 2446.69,794.038 2432.57,794.006 2417.35,793.966 2401.05,793.917 2383.67,793.858 2365.24,793.787 2345.78,793.701 2325.29,793.6 2303.81,793.48 2281.34,793.339 2257.92,793.174 2233.56,792.981 2208.29,792.758 2182.12,792.501 2155.09,792.204 2127.21,791.863 2098.52,791.472 2069.03,791.026 2038.76,790.517 2007.76,789.938 1976.04,789.28 1943.62,788.535 1910.54,787.692 1876.82,786.738 1842.48,785.662 1807.55,784.449 1772.05,783.083 1736.01,781.545 1699.46,779.817 1662.4,777.875 1624.87,775.694 1586.88,773.247 1548.45,770.502 1509.6,767.424 1470.34,763.973 1430.67,760.104 1390.62,911.056 1350.18,916.481 1316.73,916.601 1287.9,913.09 1258.87,909.811 1229.69,906.757 1200.4,903.917 1171.05,901.283 1141.68,898.844 1112.33,896.591 1083.05,894.513 1053.87,892.6 1024.85,890.842 996.009,889.229 967.397,887.751 939.05,886.398 911.005,885.163 883.297,884.036 855.963,883.009 829.036,882.075 802.55,881.226 776.537,880.455 751.029,879.756 726.055,879.124 701.646,878.552 677.83,878.036 654.635,877.57 632.087,877.151 610.212,876.774 589.035,876.435 568.58,876.131 548.869,875.859 529.925,875.615 511.768,875.398 494.419,875.205 477.896,875.033 462.216,874.88 447.399,874.744 433.458,874.625 420.41,874.519 408.268,874.427 397.045,874.346 386.753,874.276 377.404,874.215 369.008,874.163 361.572,874.119 355.106,874.081 349.616,874.051 345.109,874.027 341.588,874.008 339.059,873.995 337.523,873.987 336.984,873.984 337.441,873.987 338.895,873.994 341.344,874.007 344.787,874.025 349.221,874.049 354.641,874.079 361.043,874.115 368.42,874.159 376.766,874.211 386.073,874.271 396.333,874.341 407.535,874.422 419.67,874.514 432.726,874.619 446.691,874.738 461.553,874.873 477.297,875.026 493.909,875.199 511.375,875.394 529.677,875.612 548.801,875.858 568.728,876.133 589.441,876.441 610.922,876.785 633.152,877.17 656.112,877.599 679.783,878.077 704.143,878.609 729.174,879.2 754.854,879.858 781.163,880.588 808.08,881.397 835.584,882.295 863.654,883.29 892.27,884.391 921.41,885.61 951.056,886.958 981.186,888.448 1011.78,890.095 1042.82,891.914 1074.29,893.923 1106.18,896.141 1138.45,898.588 1171.11,901.288 1204.13,904.267 1237.51,907.553 1271.24,911.178 1305.3,915.177 1337.61,749.286 1360.01,752.134 1382.59,754.842 1405.31,757.411 1428.14,759.843 1451.05,762.142 1473.99,764.31 1496.95,766.351 1519.89,768.271 1542.78,770.072 1565.58,771.761 1588.27,773.341 1610.81,774.818 1633.18,776.197 1655.35,777.482 1677.29,778.679 1698.96,779.792 1720.35,780.826 1741.42,781.786 1762.15,782.676 1782.51,783.5 1802.48,784.263 1822.04,784.968 1841.16,785.619 1859.81,786.219 1877.98,786.773 1895.65,787.283 1912.78,787.752 1929.37,788.183 1945.4,788.578 1960.84,788.941 1975.68,789.273 1989.9,789.576 2003.49,789.853 2016.42,790.106 2028.69,790.335 2040.28,790.543 2051.18,790.732 2061.37,790.902 2070.85,791.055 2079.6,791.191 2087.62,791.312 2094.89,791.42 2101.41,791.513 2107.16,791.594 2112.15,791.663 2116.36,791.72 2119.8,791.766 2122.45,791.801 2124.31,791.825 2125.39,791.839 2125.67,791.843 2125.17,791.836 2123.87,791.819 2121.78,791.792 2118.9,791.754 2115.23,791.705 2110.78,791.644 2105.54,791.571 2099.53,791.486 2092.75,791.388 2085.2,791.276 2076.89,791.149 2067.82,791.006 2058.01,790.847 2047.47,790.669 2036.2,790.471 2024.21,790.252 2011.51,790.011 1998.12,789.745 1984.05,789.453 1969.3,789.132 1953.89,788.78 1937.84,788.394 1921.15,787.972 1903.85,787.51 1885.94,787.006 1867.44,786.455 1848.36,785.855 1828.73,785.2 1808.55,784.486 1787.84,783.708 1766.62,782.861 1744.91,781.94 1722.71,780.937 1700.05,779.847 1676.95,778.661 1653.41,777.373 1629.45,775.973 1605.1,774.452 1580.36,772.801 1555.24,771.008 1529.78,769.062 1503.97,766.951 1477.83,764.66 1451.38,762.174 1424.62,759.478 1397.57,756.553 1370.24,753.381 1342.64,749.94 1323.16,917.421 1307.41,915.437 1291.53,913.519 1275.57,911.667 1259.53,909.883 1243.44,908.167 1227.32,906.519 1211.2,904.938 1195.08,903.424 1178.99,901.976 1162.96,900.592 1147,899.272 1131.14,898.015 1115.39,896.818 1099.78,895.68 1084.31,894.6 1069.03,893.575 1053.93,892.604 1039.05,891.685 1024.4,890.816 1010,889.996 995.863,889.221 982.011,888.491 968.46,887.804 955.226,887.157 942.326,886.549 929.775,885.979 917.588,885.444 905.78,884.944 894.366,884.475 883.358,884.038 872.771,883.631 862.617,883.252 852.907,882.899 843.654,882.573 834.868,882.271 826.561,881.992 818.742,881.737 811.42,881.502 804.604,881.289 798.303,881.096 792.525,880.921 787.276,880.766 782.562,880.628 778.391,880.508 774.767,880.405 771.696,880.318 769.181,880.248 767.226,880.194 765.835,880.155 765.009,880.132 764.751,880.125 765.062,880.134 765.943,880.158 767.394,880.198 769.415,880.254 772.006,880.327 775.163,880.416 778.887,880.522 783.174,880.646 788.021,880.788 793.424,880.948 799.38,881.128 805.885,881.329 812.932,881.55 820.517,881.794 828.634,882.061 837.276,882.353 846.437,882.67 856.108,883.014 866.284,883.387 876.954,883.79 888.112,884.225 899.748,884.694 911.853,885.199 924.417,885.742 937.432,886.324 950.886,886.95 964.77,887.621 979.072,888.34 993.784,889.11 1008.89,889.934 1024.39,890.815 1040.26,891.758 1056.49,892.766 1073.08,893.842 1090,894.992 1107.26,896.219 1124.83,897.529 1142.71,898.927 1160.89,900.417 1179.35,902.007 1198.08,903.701 1217.07,905.506 1236.31,907.43 1255.8,909.478 1275.51,911.66 1295.44,913.984 1315.59,916.457 1334.7,748.905 1342.95,749.98 1351.26,751.041 "/>
<polyline clip-path="url(#clip252)" style="stroke:#008000; stroke-linecap:round; stroke-linejoin:round; stroke-width:8; stroke-opacity:1; fill:none" stroke-dasharray="4, 8" points="1333.88,549.394 1368.67,574.046 1403.74,599.9 1439.01,626.873 1474.44,654.858 1509.95,683.725 1545.51,713.328 1581.04,743.501 1616.51,774.065 1651.85,804.832 1687.02,835.611 1721.97,866.208 1756.64,896.437 1791,926.12 1824.99,955.093 1858.58,983.212 1891.72,1010.35 1924.37,1036.4 1956.48,1061.29 1988.03,1084.95 2018.97,1107.34 2049.27,1128.45 2078.89,1148.27 2107.8,1166.82 2135.96,1184.12 2163.34,1200.22 2189.92,1215.14 2215.66,1228.96 2240.53,1241.71 2264.51,1253.46 2287.58,1264.26 2309.7,1274.17 2330.85,1283.25 2351.02,1291.54 2370.17,1299.11 2388.29,1305.99 2405.37,1312.24 2421.37,1317.89 2436.29,1322.99 2450.11,1327.56 2462.82,1331.65 2474.4,1335.27 2484.84,1338.46 2494.13,1341.23 2502.26,1343.61 2509.22,1345.62 2515.01,1347.26 2519.62,1348.55 2523.04,1349.5 2525.28,1350.12 2526.32,1350.41 2526.17,1350.37 2524.82,1350 2522.29,1349.3 2518.57,1348.26 2513.66,1346.88 2507.58,1345.14 2500.31,1343.05 2491.89,1340.57 2482.3,1337.69 2471.56,1334.39 2459.69,1330.65 2446.69,1326.44 2432.57,1321.73 2417.35,1316.49 2401.05,1310.68 2383.67,1304.26 2365.24,1297.19 2345.78,1289.42 2325.29,1280.9 2303.81,1271.57 2281.34,1261.39 2257.92,1250.28 2233.56,1238.2 2208.29,1225.07 2182.12,1210.84 2155.09,1195.44 2127.21,1178.83 2098.52,1160.95 2069.03,1141.76 2038.76,1121.22 2007.76,1099.32 1976.04,1076.05 1943.62,1051.42 1910.54,1025.46 1876.82,998.228 1842.48,969.803 1807.55,940.283 1772.05,909.792 1736.01,878.477 1699.46,846.504 1662.4,814.052 1624.87,781.318 1586.88,748.501 1548.45,715.806 1509.6,683.434 1470.34,651.576 1430.67,620.415 1390.62,590.114 1350.18,560.818 1316.73,537.63 1287.9,518.433 1258.87,499.86 1229.69,481.961 1200.4,464.78 1171.05,448.348 1141.68,432.687 1112.33,417.81 1083.05,403.72 1053.87,390.414 1024.85,377.88 996.009,366.101 967.397,355.057 939.05,344.721 911.005,335.065 883.297,326.059 855.963,317.67 829.036,309.866 802.55,302.613 776.537,295.88 751.029,289.634 726.055,283.845 701.646,278.482 677.83,273.517 654.635,268.923 632.087,264.676 610.212,260.75 589.035,257.123 568.58,253.776 548.869,250.689 529.925,247.843 511.768,245.223 494.419,242.814 477.896,240.602 462.216,238.574 447.399,236.719 433.458,235.027 420.41,233.487 408.268,232.093 397.045,230.835 386.753,229.707 377.404,228.704 369.008,227.82 361.572,227.049 355.106,226.389 349.616,225.835 345.109,225.385 341.588,225.037 339.059,224.788 337.523,224.637 336.984,224.585 337.441,224.629 338.895,224.772 341.344,225.013 344.787,225.353 349.221,225.795 354.641,226.342 361.043,226.995 368.42,227.758 376.766,228.636 386.073,229.634 396.333,230.756 407.535,232.01 419.67,233.401 432.726,234.939 446.691,236.632 461.553,238.49 477.297,240.523 493.909,242.745 511.375,245.168 529.677,247.807 548.801,250.678 568.728,253.8 589.441,257.191 610.922,260.874 633.152,264.872 656.112,269.209 679.783,273.915 704.143,279.018 729.174,284.551 754.854,290.549 781.163,297.05 808.08,304.094 835.584,311.723 863.654,319.982 892.27,328.919 921.41,338.583 951.056,349.026 981.186,360.301 1011.78,372.461 1042.82,385.56 1074.29,399.651 1106.18,414.786 1138.45,431.014 1171.11,448.381 1204.13,466.926 1237.51,486.683 1271.24,507.679 1305.3,529.929 1337.61,551.987 1360.01,567.814 1382.59,584.19 1405.31,601.084 1428.14,618.462 1451.05,636.284 1473.99,654.503 1496.95,673.072 1519.89,691.934 1542.78,711.033 1565.58,730.308 1588.27,749.695 1610.81,769.131 1633.18,788.551 1655.35,807.889 1677.29,827.082 1698.96,846.069 1720.35,864.79 1741.42,883.19 1762.15,901.215 1782.51,918.819 1802.48,935.959 1822.04,952.596 1841.16,968.696 1859.81,984.232 1877.98,999.18 1895.65,1013.52 1912.78,1027.24 1929.37,1040.33 1945.4,1052.79 1960.84,1064.6 1975.68,1075.78 1989.9,1086.32 2003.49,1096.24 2016.42,1105.53 2028.69,1114.2 2040.28,1122.27 2051.18,1129.75 2061.37,1136.65 2070.85,1142.97 2079.6,1148.74 2087.62,1153.96 2094.89,1158.64 2101.41,1162.79 2107.16,1166.42 2112.15,1169.54 2116.36,1172.16 2119.8,1174.29 2122.45,1175.92 2124.31,1177.06 2125.39,1177.72 2125.67,1177.89 2125.17,1177.58 2123.87,1176.79 2121.78,1175.51 2118.9,1173.73 2115.23,1171.46 2110.78,1168.69 2105.54,1165.4 2099.53,1161.6 2092.75,1157.26 2085.2,1152.39 2076.89,1146.96 2067.82,1140.96 2058.01,1134.39 2047.47,1127.22 2036.2,1119.44 2024.21,1111.05 2011.51,1102.02 1998.12,1092.34 1984.05,1082.01 1969.3,1071 1953.89,1059.31 1937.84,1046.94 1921.15,1033.87 1903.85,1020.11 1885.94,1005.67 1867.44,990.53 1848.36,974.72 1828.73,958.249 1808.55,941.137 1787.84,923.409 1766.62,905.096 1744.91,886.233 1722.71,866.861 1700.05,847.029 1676.95,826.786 1653.41,806.191 1629.45,785.303 1605.1,764.188 1580.36,742.911 1555.24,721.542 1529.78,700.151 1503.97,678.809 1477.83,657.585 1451.38,636.546 1424.62,615.759 1397.57,595.285 1370.24,575.182 1342.64,555.504 1323.16,542.014 1307.41,531.341 1291.53,520.813 1275.57,510.451 1259.53,500.274 1243.44,490.3 1227.32,480.544 1211.2,471.021 1195.08,461.742 1178.99,452.718 1162.96,443.958 1147,435.469 1131.14,427.257 1115.39,419.325 1099.78,411.677 1084.31,404.314 1069.03,397.235 1053.93,390.44 1039.05,383.927 1024.4,377.692 1010,371.733 995.863,366.043 982.011,360.62 968.46,355.456 955.226,350.547 942.326,345.885 929.775,341.466 917.588,337.282 905.78,333.327 894.366,329.595 883.358,326.078 872.771,322.771 862.617,319.668 852.907,316.762 843.654,314.047 834.868,311.519 826.561,309.171 818.742,306.998 811.42,304.997 804.604,303.161 798.303,301.488 792.525,299.974 787.276,298.614 782.562,297.407 778.391,296.348 774.767,295.436 771.696,294.668 769.181,294.044 767.226,293.56 765.835,293.218 765.009,293.015 764.751,292.952 765.062,293.028 765.943,293.244 767.394,293.602 769.415,294.102 772.006,294.745 775.163,295.535 778.887,296.473 783.174,297.562 788.021,298.806 793.424,300.208 799.38,301.773 805.885,303.504 812.932,305.407 820.517,307.488 828.634,309.753 837.276,312.207 846.437,314.858 856.108,317.713 866.284,320.781 876.954,324.069 888.112,327.587 899.748,331.344 911.853,335.349 924.417,339.614 937.432,344.149 950.886,348.965 964.77,354.074 979.072,359.488 993.784,365.22 1008.89,371.281 1024.39,377.686 1040.26,384.447 1056.49,391.578 1073.08,399.09 1090,406.999 1107.26,415.316 1124.83,424.054 1142.71,433.225 1160.89,442.841 1179.35,452.912 1198.08,463.449 1217.07,474.461 1236.31,485.954 1255.8,497.937 1275.51,510.413 1295.44,523.385 1315.59,536.856 1334.7,549.968 1342.95,555.72 1351.26,561.58 "/>
<polyline clip-path="url(#clip252)" style="stroke:#008000; stroke-linecap:round; stroke-linejoin:round; stroke-width:8; stroke-opacity:1; fill:none" points="1333.88,593.244 1368.67,623.288 1403.74,654.261 1439.01,685.992 1474.44,718.296 1509.95,750.97 1545.51,783.809 1581.04,816.601 1616.51,849.14 1651.85,881.228 1687.02,912.68 1721.97,943.328 1756.64,973.024 1791,1001.64 1824.99,1029.08 1858.58,1055.26 1891.72,1080.13 1924.37,1103.64 1956.48,1125.8 1988.03,1146.59 2018.97,1166.04 2049.27,1184.17 2078.89,1201.03 2107.8,1216.67 2135.96,1231.15 2163.34,1244.51 2189.92,1256.83 2215.66,1268.16 2240.53,1278.56 2264.51,1288.1 2287.58,1296.84 2309.7,1304.83 2330.85,1312.12 2351.02,1318.76 2370.17,1324.8 2388.29,1330.29 2405.37,1335.26 2421.37,1339.74 2436.29,1343.78 2450.11,1347.4 2462.82,1350.63 2474.4,1353.49 2484.84,1356 2494.13,1358.19 2502.26,1360.06 2509.22,1361.64 2515.01,1362.93 2519.62,1363.95 2523.04,1364.7 2525.28,1365.18 2526.32,1365.41 2526.17,1365.37 2524.82,1365.08 2522.29,1364.53 2518.57,1363.72 2513.66,1362.63 2507.58,1361.27 2500.31,1359.62 2491.89,1357.66 2482.3,1355.4 2471.56,1352.8 2459.69,1349.84 2446.69,1346.51 2432.57,1342.79 2417.35,1338.63 2401.05,1334.02 2383.67,1328.91 2365.24,1323.27 2345.78,1317.06 2325.29,1310.23 2303.81,1302.74 2281.34,1294.52 2257.92,1285.53 2233.56,1275.7 2208.29,1264.97 2182.12,1253.28 2155.09,1240.56 2127.21,1226.73 2098.52,1211.74 2069.03,1195.51 2038.76,1177.98 2007.76,1159.1 1976.04,1138.8 1943.62,1117.05 1910.54,1093.81 1876.82,1069.07 1842.48,1042.83 1807.55,1015.12 1772.05,985.966 1736.01,955.449 1699.46,923.66 1662.4,890.717 1624.87,856.764 1586.88,821.971 1548.45,786.528 1509.6,750.643 1470.34,714.54 1430.67,678.448 1390.62,642.602 1350.18,607.229 1316.73,578.729 1287.9,554.799 1258.87,531.356 1229.69,508.497 1200.4,486.309 1171.05,464.869 1141.68,444.238 1112.33,424.466 1083.05,405.591 1053.87,387.637 1024.85,370.616 996.009,354.531 967.397,339.375 939.05,325.133 911.005,311.782 883.297,299.295 855.963,287.64 829.036,276.78 802.55,266.679 776.537,257.297 751.029,248.594 726.055,240.532 701.646,233.071 677.83,226.173 654.635,219.802 632.087,213.922 610.212,208.499 589.035,203.503 568.58,198.904 548.869,194.674 529.925,190.787 511.768,187.22 494.419,183.949 477.896,180.956 462.216,178.221 447.399,175.727 433.458,173.459 420.41,171.402 408.268,169.544 397.045,167.873 386.753,166.38 377.404,165.054 369.008,163.887 361.572,162.874 355.106,162.006 349.616,161.28 345.109,160.691 341.588,160.235 339.059,159.91 337.523,159.714 336.984,159.645 337.441,159.703 338.895,159.889 341.344,160.204 344.787,160.65 349.221,161.229 354.641,161.945 361.043,162.802 368.42,163.807 376.766,164.964 386.073,166.282 396.333,167.769 407.535,169.434 419.67,171.287 432.726,173.342 446.691,175.61 461.553,178.107 477.297,180.85 493.909,183.855 511.375,187.144 529.677,190.737 548.801,194.66 568.728,198.937 589.441,203.597 610.922,208.671 633.152,214.193 656.112,220.198 679.783,226.725 704.143,233.816 729.174,241.515 754.854,249.869 781.163,258.927 808.08,268.741 835.584,279.365 863.654,290.854 892.27,303.264 921.41,316.651 951.056,331.072 981.186,346.58 1011.78,363.227 1042.82,381.058 1074.29,400.114 1106.18,420.428 1138.45,442.023 1171.11,464.912 1204.13,489.093 1237.51,514.553 1271.24,541.259 1305.3,569.166 1337.61,596.428 1360.01,615.741 1382.59,635.506 1405.31,655.666 1428.14,676.16 1451.05,696.925 1473.99,717.89 1496.95,738.987 1519.89,760.143 1542.78,781.287 1565.58,802.346 1588.27,823.25 1610.81,843.933 1633.18,864.33 1655.35,884.38 1677.29,904.028 1698.96,923.224 1720.35,941.921 1741.42,960.08 1762.15,977.667 1782.51,994.653 1802.48,1011.01 1822.04,1026.73 1841.16,1041.8 1859.81,1056.2 1877.98,1069.94 1895.65,1083.01 1912.78,1095.42 1929.37,1107.16 1945.4,1118.26 1960.84,1128.73 1975.68,1138.56 1989.9,1147.79 2003.49,1156.42 2016.42,1164.47 2028.69,1171.95 2040.28,1178.88 2051.18,1185.28 2061.37,1191.16 2070.85,1196.54 2079.6,1201.43 2087.62,1205.84 2094.89,1209.79 2101.41,1213.29 2107.16,1216.34 2112.15,1218.96 2116.36,1221.15 2119.8,1222.93 2122.45,1224.3 2124.31,1225.25 2125.39,1225.8 2125.67,1225.95 2125.17,1225.69 2123.87,1225.03 2121.78,1223.95 2118.9,1222.47 2115.23,1220.57 2110.78,1218.24 2105.54,1215.48 2099.53,1212.28 2092.75,1208.63 2085.2,1204.51 2076.89,1199.92 2067.82,1194.83 2058.01,1189.24 2047.47,1183.12 2036.2,1176.46 2024.21,1169.24 2011.51,1161.43 1998.12,1153.03 1984.05,1144.02 1969.3,1134.36 1953.89,1124.05 1937.84,1113.06 1921.15,1101.38 1903.85,1088.98 1885.94,1075.86 1867.44,1062.01 1848.36,1047.4 1828.73,1032.04 1808.55,1015.92 1787.84,999.051 1766.62,981.427 1744.91,963.063 1722.71,943.976 1700.05,924.188 1676.95,903.727 1653.41,882.63 1629.45,860.938 1605.1,838.698 1580.36,815.967 1555.24,792.803 1529.78,769.274 1503.97,745.452 1477.83,721.41 1451.38,697.229 1424.62,672.989 1397.57,648.772 1370.24,624.661 1342.64,600.737 1323.16,584.152 1307.41,570.923 1291.53,557.782 1275.57,544.759 1259.53,531.882 1243.44,519.179 1227.32,506.676 1211.2,494.396 1195.08,482.361 1178.99,470.591 1162.96,459.104 1147,447.916 1131.14,437.04 1115.39,426.488 1099.78,416.268 1084.31,406.389 1069.03,396.856 1053.93,387.673 1039.05,378.841 1024.4,370.361 1010,362.232 995.863,354.452 982.011,347.017 968.46,339.924 955.226,333.167 942.326,326.74 929.775,320.637 917.588,314.851 905.78,309.375 894.366,304.201 883.358,299.322 872.771,294.73 862.617,290.417 852.907,286.376 843.654,282.6 834.868,279.081 826.561,275.812 818.742,272.787 811.42,269.999 804.604,267.442 798.303,265.111 792.525,263.001 787.276,261.106 782.562,259.423 778.391,257.948 774.767,256.677 771.696,255.608 769.181,254.738 767.226,254.064 765.835,253.587 765.009,253.304 764.751,253.216 765.062,253.322 765.943,253.624 767.394,254.122 769.415,254.818 772.006,255.715 775.163,256.816 778.887,258.123 783.174,259.641 788.021,261.374 793.424,263.328 799.38,265.507 805.885,267.92 812.932,270.571 820.517,273.469 828.634,276.622 837.276,280.039 846.437,283.728 856.108,287.7 866.284,291.964 876.954,296.533 888.112,301.416 899.748,306.626 911.853,312.175 924.417,318.077 937.432,324.343 950.886,330.987 964.77,338.023 979.072,345.464 993.784,353.324 1008.89,361.616 1024.39,370.352 1040.26,379.547 1056.49,389.212 1073.08,399.358 1090,409.996 1107.26,421.135 1124.83,432.784 1142.71,444.949 1160.89,457.635 1179.35,470.846 1198.08,484.581 1217.07,498.84 1236.31,513.62 1255.8,528.913 1275.51,544.711 1295.44,561.002 1315.59,577.771 1334.7,593.949 1342.95,601.002 1351.26,608.158 "/>
<path clip-path="url(#clip250)" d="M1446.2 554.876 L2284.83 554.876 L2284.83 166.076 L1446.2 166.076  Z" fill="#ffffff" fill-rule="evenodd" fill-opacity="1"/>
<polyline clip-path="url(#clip250)" style="stroke:#000000; stroke-linecap:round; stroke-linejoin:round; stroke-width:4; stroke-opacity:1; fill:none" points="1446.2,554.876 2284.83,554.876 2284.83,166.076 1446.2,166.076 1446.2,554.876 "/>
<polyline clip-path="url(#clip250)" style="stroke:#009af9; stroke-linecap:round; stroke-linejoin:round; stroke-width:12; stroke-opacity:1; fill:none" points="1468.84,243.836 1604.69,243.836 "/>
<path clip-path="url(#clip250)" d="M1660.7 219.617 L1660.7 226.457 Q1656.71 224.548 1653.16 223.61 Q1649.62 222.673 1646.32 222.673 Q1640.59 222.673 1637.47 224.895 Q1634.38 227.117 1634.38 231.214 Q1634.38 234.652 1636.43 236.423 Q1638.51 238.159 1644.28 239.235 L1648.51 240.103 Q1656.36 241.596 1660.07 245.381 Q1663.82 249.131 1663.82 255.45 Q1663.82 262.985 1658.75 266.874 Q1653.72 270.763 1643.96 270.763 Q1640.28 270.763 1636.12 269.929 Q1631.98 269.096 1627.54 267.464 L1627.54 260.242 Q1631.81 262.638 1635.91 263.853 Q1640 265.068 1643.96 265.068 Q1649.97 265.068 1653.23 262.707 Q1656.5 260.346 1656.5 255.971 Q1656.5 252.152 1654.14 249.999 Q1651.81 247.846 1646.46 246.77 L1642.19 245.936 Q1634.34 244.374 1630.84 241.041 Q1627.33 237.707 1627.33 231.77 Q1627.33 224.895 1632.16 220.937 Q1637.02 216.978 1645.53 216.978 Q1649.17 216.978 1652.96 217.638 Q1656.74 218.298 1660.7 219.617 Z" fill="#000000" fill-rule="nonzero" fill-opacity="1" /><path clip-path="url(#clip250)" d="M1674.48 230.867 L1680.87 230.867 L1680.87 269.756 L1674.48 269.756 L1674.48 230.867 M1674.48 215.728 L1680.87 215.728 L1680.87 223.818 L1674.48 223.818 L1674.48 215.728 Z" fill="#000000" fill-rule="nonzero" fill-opacity="1" /><path clip-path="url(#clip250)" d="M1724.52 238.332 Q1726.91 234.027 1730.25 231.978 Q1733.58 229.93 1738.09 229.93 Q1744.17 229.93 1747.47 234.2 Q1750.77 238.436 1750.77 246.284 L1750.77 269.756 L1744.34 269.756 L1744.34 246.492 Q1744.34 240.902 1742.37 238.193 Q1740.39 235.485 1736.32 235.485 Q1731.36 235.485 1728.48 238.784 Q1725.59 242.082 1725.59 247.777 L1725.59 269.756 L1719.17 269.756 L1719.17 246.492 Q1719.17 240.867 1717.19 238.193 Q1715.21 235.485 1711.08 235.485 Q1706.18 235.485 1703.3 238.818 Q1700.42 242.117 1700.42 247.777 L1700.42 269.756 L1694 269.756 L1694 230.867 L1700.42 230.867 L1700.42 236.909 Q1702.61 233.332 1705.66 231.631 Q1708.72 229.93 1712.92 229.93 Q1717.16 229.93 1720.11 232.082 Q1723.09 234.235 1724.52 238.332 Z" fill="#000000" fill-rule="nonzero" fill-opacity="1" /><path clip-path="url(#clip250)" d="M1769.69 263.922 L1769.69 284.547 L1763.27 284.547 L1763.27 230.867 L1769.69 230.867 L1769.69 236.77 Q1771.71 233.298 1774.76 231.631 Q1777.85 229.93 1782.12 229.93 Q1789.21 229.93 1793.61 235.555 Q1798.06 241.179 1798.06 250.346 Q1798.06 259.513 1793.61 265.138 Q1789.21 270.763 1782.12 270.763 Q1777.85 270.763 1774.76 269.096 Q1771.71 267.395 1769.69 263.922 M1791.43 250.346 Q1791.43 243.298 1788.51 239.304 Q1785.63 235.277 1780.56 235.277 Q1775.49 235.277 1772.57 239.304 Q1769.69 243.298 1769.69 250.346 Q1769.69 257.395 1772.57 261.422 Q1775.49 265.415 1780.56 265.415 Q1785.63 265.415 1788.51 261.422 Q1791.43 257.395 1791.43 250.346 Z" fill="#000000" fill-rule="nonzero" fill-opacity="1" /><path clip-path="url(#clip250)" d="M1808.65 215.728 L1815.04 215.728 L1815.04 269.756 L1808.65 269.756 L1808.65 215.728 Z" fill="#000000" fill-rule="nonzero" fill-opacity="1" /><path clip-path="url(#clip250)" d="M1861.67 248.714 L1861.67 251.839 L1832.3 251.839 Q1832.71 258.436 1836.25 261.909 Q1839.83 265.346 1846.18 265.346 Q1849.86 265.346 1853.3 264.443 Q1856.77 263.54 1860.18 261.735 L1860.18 267.777 Q1856.74 269.235 1853.13 269.999 Q1849.52 270.763 1845.8 270.763 Q1836.5 270.763 1831.05 265.346 Q1825.63 259.929 1825.63 250.693 Q1825.63 241.145 1830.77 235.555 Q1835.94 229.93 1844.69 229.93 Q1852.54 229.93 1857.09 234.999 Q1861.67 240.034 1861.67 248.714 M1855.28 246.839 Q1855.21 241.596 1852.33 238.471 Q1849.48 235.346 1844.76 235.346 Q1839.41 235.346 1836.18 238.367 Q1832.99 241.388 1832.5 246.874 L1855.28 246.839 Z" fill="#000000" fill-rule="nonzero" fill-opacity="1" /><path clip-path="url(#clip250)" d="M1872.43 217.916 L1902.23 217.916 L1902.23 223.818 L1879.45 223.818 L1879.45 239.096 L1900 239.096 L1900 244.999 L1879.45 244.999 L1879.45 269.756 L1872.43 269.756 L1872.43 217.916 Z" fill="#000000" fill-rule="nonzero" fill-opacity="1" /><path clip-path="url(#clip250)" d="M1913.34 217.916 L1923.79 217.916 L1937.02 253.193 L1950.32 217.916 L1960.77 217.916 L1960.77 269.756 L1953.93 269.756 L1953.93 224.235 L1940.56 259.79 L1933.51 259.79 L1920.14 224.235 L1920.14 269.756 L1913.34 269.756 L1913.34 217.916 Z" fill="#000000" fill-rule="nonzero" fill-opacity="1" /><path clip-path="url(#clip250)" d="M1973.89 217.916 L1980.94 217.916 L1980.94 249.409 Q1980.94 257.742 1983.96 261.422 Q1986.98 265.068 1993.75 265.068 Q2000.49 265.068 2003.51 261.422 Q2006.53 257.742 2006.53 249.409 L2006.53 217.916 L2013.58 217.916 L2013.58 250.277 Q2013.58 260.415 2008.54 265.589 Q2003.54 270.763 1993.75 270.763 Q1983.93 270.763 1978.89 265.589 Q1973.89 260.415 1973.89 250.277 L1973.89 217.916 Z" fill="#000000" fill-rule="nonzero" fill-opacity="1" /><polyline clip-path="url(#clip250)" style="stroke:#e26f46; stroke-linecap:round; stroke-linejoin:round; stroke-width:12; stroke-opacity:1; fill:none" points="1468.84,321.596 1604.69,321.596 "/>
<path clip-path="url(#clip250)" d="M1650.11 314.599 Q1649.03 313.974 1647.75 313.696 Q1646.5 313.384 1644.97 313.384 Q1639.55 313.384 1636.64 316.926 Q1633.75 320.433 1633.75 327.03 L1633.75 347.516 L1627.33 347.516 L1627.33 308.627 L1633.75 308.627 L1633.75 314.669 Q1635.77 311.127 1639 309.426 Q1642.23 307.69 1646.84 307.69 Q1647.5 307.69 1648.3 307.794 Q1649.1 307.863 1650.07 308.037 L1650.11 314.599 Z" fill="#000000" fill-rule="nonzero" fill-opacity="1" /><path clip-path="url(#clip250)" d="M1688.51 326.474 L1688.51 329.599 L1659.14 329.599 Q1659.55 336.196 1663.09 339.669 Q1666.67 343.106 1673.03 343.106 Q1676.71 343.106 1680.14 342.203 Q1683.62 341.3 1687.02 339.495 L1687.02 345.537 Q1683.58 346.995 1679.97 347.759 Q1676.36 348.523 1672.64 348.523 Q1663.34 348.523 1657.89 343.106 Q1652.47 337.689 1652.47 328.453 Q1652.47 318.905 1657.61 313.315 Q1662.78 307.69 1671.53 307.69 Q1679.38 307.69 1683.93 312.759 Q1688.51 317.794 1688.51 326.474 M1682.12 324.599 Q1682.05 319.356 1679.17 316.231 Q1676.32 313.106 1671.6 313.106 Q1666.25 313.106 1663.03 316.127 Q1659.83 319.148 1659.34 324.634 L1682.12 324.599 Z" fill="#000000" fill-rule="nonzero" fill-opacity="1" /><path clip-path="url(#clip250)" d="M1718.68 293.488 L1718.68 298.801 L1712.57 298.801 Q1709.14 298.801 1707.78 300.19 Q1706.46 301.578 1706.46 305.19 L1706.46 308.627 L1716.98 308.627 L1716.98 313.592 L1706.46 313.592 L1706.46 347.516 L1700.04 347.516 L1700.04 313.592 L1693.93 313.592 L1693.93 308.627 L1700.04 308.627 L1700.04 305.919 Q1700.04 299.426 1703.06 296.474 Q1706.08 293.488 1712.64 293.488 L1718.68 293.488 Z" fill="#000000" fill-rule="nonzero" fill-opacity="1" /><path clip-path="url(#clip250)" d="M1757.3 326.474 L1757.3 329.599 L1727.92 329.599 Q1728.34 336.196 1731.88 339.669 Q1735.46 343.106 1741.81 343.106 Q1745.49 343.106 1748.93 342.203 Q1752.4 341.3 1755.8 339.495 L1755.8 345.537 Q1752.37 346.995 1748.75 347.759 Q1745.14 348.523 1741.43 348.523 Q1732.12 348.523 1726.67 343.106 Q1721.25 337.689 1721.25 328.453 Q1721.25 318.905 1726.39 313.315 Q1731.57 307.69 1740.32 307.69 Q1748.16 307.69 1752.71 312.759 Q1757.3 317.794 1757.3 326.474 M1750.91 324.599 Q1750.84 319.356 1747.96 316.231 Q1745.11 313.106 1740.39 313.106 Q1735.04 313.106 1731.81 316.127 Q1728.62 319.148 1728.13 324.634 L1750.91 324.599 Z" fill="#000000" fill-rule="nonzero" fill-opacity="1" /><path clip-path="url(#clip250)" d="M1790.32 314.599 Q1789.24 313.974 1787.96 313.696 Q1786.71 313.384 1785.18 313.384 Q1779.76 313.384 1776.84 316.926 Q1773.96 320.433 1773.96 327.03 L1773.96 347.516 L1767.54 347.516 L1767.54 308.627 L1773.96 308.627 L1773.96 314.669 Q1775.98 311.127 1779.21 309.426 Q1782.43 307.69 1787.05 307.69 Q1787.71 307.69 1788.51 307.794 Q1789.31 307.863 1790.28 308.037 L1790.32 314.599 Z" fill="#000000" fill-rule="nonzero" fill-opacity="1" /><path clip-path="url(#clip250)" d="M1828.72 326.474 L1828.72 329.599 L1799.34 329.599 Q1799.76 336.196 1803.3 339.669 Q1806.88 343.106 1813.23 343.106 Q1816.91 343.106 1820.35 342.203 Q1823.82 341.3 1827.23 339.495 L1827.23 345.537 Q1823.79 346.995 1820.18 347.759 Q1816.57 348.523 1812.85 348.523 Q1803.55 348.523 1798.09 343.106 Q1792.68 337.689 1792.68 328.453 Q1792.68 318.905 1797.82 313.315 Q1802.99 307.69 1811.74 307.69 Q1819.59 307.69 1824.14 312.759 Q1828.72 317.794 1828.72 326.474 M1822.33 324.599 Q1822.26 319.356 1819.38 316.231 Q1816.53 313.106 1811.81 313.106 Q1806.46 313.106 1803.23 316.127 Q1800.04 319.148 1799.55 324.634 L1822.33 324.599 Z" fill="#000000" fill-rule="nonzero" fill-opacity="1" /><path clip-path="url(#clip250)" d="M1871.53 324.044 L1871.53 347.516 L1865.14 347.516 L1865.14 324.252 Q1865.14 318.731 1862.99 315.988 Q1860.84 313.245 1856.53 313.245 Q1851.36 313.245 1848.37 316.544 Q1845.39 319.842 1845.39 325.537 L1845.39 347.516 L1838.96 347.516 L1838.96 308.627 L1845.39 308.627 L1845.39 314.669 Q1847.68 311.162 1850.77 309.426 Q1853.89 307.69 1857.95 307.69 Q1864.66 307.69 1868.09 311.856 Q1871.53 315.988 1871.53 324.044 Z" fill="#000000" fill-rule="nonzero" fill-opacity="1" /><path clip-path="url(#clip250)" d="M1912.26 310.12 L1912.26 316.092 Q1909.55 314.599 1906.81 313.87 Q1904.1 313.106 1901.32 313.106 Q1895.11 313.106 1891.67 317.064 Q1888.23 320.988 1888.23 328.106 Q1888.23 335.224 1891.67 339.182 Q1895.11 343.106 1901.32 343.106 Q1904.1 343.106 1906.81 342.377 Q1909.55 341.613 1912.26 340.12 L1912.26 346.023 Q1909.59 347.273 1906.7 347.898 Q1903.86 348.523 1900.63 348.523 Q1891.84 348.523 1886.67 343.002 Q1881.5 337.481 1881.5 328.106 Q1881.5 318.592 1886.7 313.141 Q1891.95 307.69 1901.04 307.69 Q1904 307.69 1906.81 308.315 Q1909.62 308.905 1912.26 310.12 Z" fill="#000000" fill-rule="nonzero" fill-opacity="1" /><path clip-path="url(#clip250)" d="M1956.63 326.474 L1956.63 329.599 L1927.26 329.599 Q1927.68 336.196 1931.22 339.669 Q1934.79 343.106 1941.15 343.106 Q1944.83 343.106 1948.27 342.203 Q1951.74 341.3 1955.14 339.495 L1955.14 345.537 Q1951.7 346.995 1948.09 347.759 Q1944.48 348.523 1940.77 348.523 Q1931.46 348.523 1926.01 343.106 Q1920.59 337.689 1920.59 328.453 Q1920.59 318.905 1925.73 313.315 Q1930.91 307.69 1939.66 307.69 Q1947.5 307.69 1952.05 312.759 Q1956.63 317.794 1956.63 326.474 M1950.25 324.599 Q1950.18 319.356 1947.29 316.231 Q1944.45 313.106 1939.73 313.106 Q1934.38 313.106 1931.15 316.127 Q1927.95 319.148 1927.47 324.634 L1950.25 324.599 Z" fill="#000000" fill-rule="nonzero" fill-opacity="1" /><polyline clip-path="url(#clip250)" style="stroke:#008000; stroke-linecap:round; stroke-linejoin:round; stroke-width:12; stroke-opacity:1; fill:none" stroke-dasharray="6, 12" points="1468.84,399.356 1604.69,399.356 "/>
<path clip-path="url(#clip250)" d="M1627.33 373.436 L1636.78 373.436 L1659.76 416.804 L1659.76 373.436 L1666.57 373.436 L1666.57 425.276 L1657.12 425.276 L1634.14 381.908 L1634.14 425.276 L1627.33 425.276 L1627.33 373.436 Z" fill="#000000" fill-rule="nonzero" fill-opacity="1" /><path clip-path="url(#clip250)" d="M1713.51 404.234 L1713.51 407.359 L1684.14 407.359 Q1684.55 413.956 1688.09 417.429 Q1691.67 420.866 1698.03 420.866 Q1701.71 420.866 1705.14 419.963 Q1708.62 419.06 1712.02 417.255 L1712.02 423.297 Q1708.58 424.755 1704.97 425.519 Q1701.36 426.283 1697.64 426.283 Q1688.34 426.283 1682.89 420.866 Q1677.47 415.449 1677.47 406.213 Q1677.47 396.665 1682.61 391.075 Q1687.78 385.45 1696.53 385.45 Q1704.38 385.45 1708.93 390.519 Q1713.51 395.554 1713.51 404.234 M1707.12 402.359 Q1707.05 397.116 1704.17 393.991 Q1701.32 390.866 1696.6 390.866 Q1691.25 390.866 1688.03 393.887 Q1684.83 396.908 1684.34 402.394 L1707.12 402.359 Z" fill="#000000" fill-rule="nonzero" fill-opacity="1" /><path clip-path="url(#clip250)" d="M1723.34 409.929 L1723.34 386.387 L1729.73 386.387 L1729.73 409.686 Q1729.73 415.206 1731.88 417.984 Q1734.03 420.727 1738.34 420.727 Q1743.51 420.727 1746.5 417.429 Q1749.52 414.13 1749.52 408.436 L1749.52 386.387 L1755.91 386.387 L1755.91 425.276 L1749.52 425.276 L1749.52 419.304 Q1747.19 422.845 1744.1 424.581 Q1741.05 426.283 1736.98 426.283 Q1730.28 426.283 1726.81 422.116 Q1723.34 417.949 1723.34 409.929 M1739.41 385.45 L1739.41 385.45 Z" fill="#000000" fill-rule="nonzero" fill-opacity="1" /><path clip-path="url(#clip250)" d="M1791.6 392.359 Q1790.52 391.734 1789.24 391.456 Q1787.99 391.144 1786.46 391.144 Q1781.05 391.144 1778.13 394.686 Q1775.25 398.193 1775.25 404.79 L1775.25 425.276 L1768.82 425.276 L1768.82 386.387 L1775.25 386.387 L1775.25 392.429 Q1777.26 388.887 1780.49 387.186 Q1783.72 385.45 1788.34 385.45 Q1789 385.45 1789.8 385.554 Q1790.59 385.623 1791.57 385.797 L1791.6 392.359 Z" fill="#000000" fill-rule="nonzero" fill-opacity="1" /><path clip-path="url(#clip250)" d="M1815.98 405.727 Q1808.23 405.727 1805.25 407.498 Q1802.26 409.269 1802.26 413.54 Q1802.26 416.942 1804.48 418.956 Q1806.74 420.935 1810.59 420.935 Q1815.91 420.935 1819.1 417.185 Q1822.33 413.401 1822.33 407.151 L1822.33 405.727 L1815.98 405.727 M1828.72 403.088 L1828.72 425.276 L1822.33 425.276 L1822.33 419.373 Q1820.14 422.915 1816.88 424.616 Q1813.61 426.283 1808.89 426.283 Q1802.92 426.283 1799.38 422.949 Q1795.87 419.581 1795.87 413.956 Q1795.87 407.394 1800.25 404.061 Q1804.66 400.727 1813.37 400.727 L1822.33 400.727 L1822.33 400.102 Q1822.33 395.693 1819.41 393.297 Q1816.53 390.866 1811.29 390.866 Q1807.96 390.866 1804.8 391.665 Q1801.64 392.463 1798.72 394.061 L1798.72 388.158 Q1802.23 386.804 1805.52 386.144 Q1808.82 385.45 1811.95 385.45 Q1820.39 385.45 1824.55 389.825 Q1828.72 394.199 1828.72 403.088 Z" fill="#000000" fill-rule="nonzero" fill-opacity="1" /><path clip-path="url(#clip250)" d="M1841.88 371.248 L1848.27 371.248 L1848.27 425.276 L1841.88 425.276 L1841.88 371.248 Z" fill="#000000" fill-rule="nonzero" fill-opacity="1" /><path clip-path="url(#clip250)" d="M1861.91 373.436 L1891.7 373.436 L1891.7 379.338 L1868.93 379.338 L1868.93 394.616 L1889.48 394.616 L1889.48 400.519 L1868.93 400.519 L1868.93 425.276 L1861.91 425.276 L1861.91 373.436 Z" fill="#000000" fill-rule="nonzero" fill-opacity="1" /><path clip-path="url(#clip250)" d="M1902.82 373.436 L1913.27 373.436 L1926.5 408.713 L1939.79 373.436 L1950.25 373.436 L1950.25 425.276 L1943.41 425.276 L1943.41 379.755 L1930.04 415.31 L1922.99 415.31 L1909.62 379.755 L1909.62 425.276 L1902.82 425.276 L1902.82 373.436 Z" fill="#000000" fill-rule="nonzero" fill-opacity="1" /><path clip-path="url(#clip250)" d="M1963.37 373.436 L1970.42 373.436 L1970.42 404.929 Q1970.42 413.262 1973.44 416.942 Q1976.46 420.588 1983.23 420.588 Q1989.97 420.588 1992.99 416.942 Q1996.01 413.262 1996.01 404.929 L1996.01 373.436 L2003.06 373.436 L2003.06 405.797 Q2003.06 415.935 1998.02 421.109 Q1993.02 426.283 1983.23 426.283 Q1973.41 426.283 1968.37 421.109 Q1963.37 415.935 1963.37 405.797 L1963.37 373.436 Z" fill="#000000" fill-rule="nonzero" fill-opacity="1" /><path clip-path="url(#clip250)" d="M2053.89 371.318 Q2049.24 379.304 2046.98 387.116 Q2044.72 394.929 2044.72 402.949 Q2044.72 410.97 2046.98 418.852 Q2049.27 426.699 2053.89 434.651 L2048.34 434.651 Q2043.13 426.491 2040.52 418.609 Q2037.95 410.727 2037.95 402.949 Q2037.95 395.206 2040.52 387.359 Q2043.09 379.512 2048.34 371.318 L2053.89 371.318 Z" fill="#000000" fill-rule="nonzero" fill-opacity="1" /><path clip-path="url(#clip250)" d="M2073.23 419.373 L2097.71 419.373 L2097.71 425.276 L2064.79 425.276 L2064.79 419.373 Q2068.79 415.241 2075.66 408.297 Q2082.57 401.318 2084.34 399.304 Q2087.71 395.519 2089.03 392.915 Q2090.38 390.276 2090.38 387.741 Q2090.38 383.609 2087.47 381.005 Q2084.59 378.401 2079.93 378.401 Q2076.63 378.401 2072.95 379.547 Q2069.31 380.693 2065.14 383.019 L2065.14 375.936 Q2069.38 374.234 2073.06 373.366 Q2076.74 372.498 2079.79 372.498 Q2087.85 372.498 2092.64 376.526 Q2097.43 380.554 2097.43 387.29 Q2097.43 390.484 2096.22 393.366 Q2095.04 396.213 2091.88 400.102 Q2091.01 401.109 2086.36 405.936 Q2081.7 410.727 2073.23 419.373 Z" fill="#000000" fill-rule="nonzero" fill-opacity="1" /><path clip-path="url(#clip250)" d="M2112.5 373.436 L2140.04 373.436 L2140.04 379.338 L2118.93 379.338 L2118.93 392.047 Q2120.45 391.526 2121.98 391.283 Q2123.51 391.005 2125.04 391.005 Q2133.72 391.005 2138.79 395.762 Q2143.86 400.519 2143.86 408.644 Q2143.86 417.012 2138.65 421.665 Q2133.44 426.283 2123.96 426.283 Q2120.7 426.283 2117.29 425.727 Q2113.93 425.172 2110.31 424.06 L2110.31 417.012 Q2113.44 418.713 2116.77 419.547 Q2120.11 420.38 2123.82 420.38 Q2129.83 420.38 2133.34 417.22 Q2136.84 414.06 2136.84 408.644 Q2136.84 403.227 2133.34 400.068 Q2129.83 396.908 2123.82 396.908 Q2121.01 396.908 2118.2 397.533 Q2115.42 398.158 2112.5 399.477 L2112.5 373.436 Z" fill="#000000" fill-rule="nonzero" fill-opacity="1" /><path clip-path="url(#clip250)" d="M2172.68 378.054 Q2167.26 378.054 2164.52 383.401 Q2161.81 388.713 2161.81 399.408 Q2161.81 410.067 2164.52 415.415 Q2167.26 420.727 2172.68 420.727 Q2178.13 420.727 2180.84 415.415 Q2183.58 410.067 2183.58 399.408 Q2183.58 388.713 2180.84 383.401 Q2178.13 378.054 2172.68 378.054 M2172.68 372.498 Q2181.39 372.498 2185.97 379.408 Q2190.59 386.283 2190.59 399.408 Q2190.59 412.498 2185.97 419.408 Q2181.39 426.283 2172.68 426.283 Q2163.96 426.283 2159.34 419.408 Q2154.76 412.498 2154.76 399.408 Q2154.76 386.283 2159.34 379.408 Q2163.96 372.498 2172.68 372.498 Z" fill="#000000" fill-rule="nonzero" fill-opacity="1" /><path clip-path="url(#clip250)" d="M2217.92 378.054 Q2212.5 378.054 2209.76 383.401 Q2207.05 388.713 2207.05 399.408 Q2207.05 410.067 2209.76 415.415 Q2212.5 420.727 2217.92 420.727 Q2223.37 420.727 2226.08 415.415 Q2228.82 410.067 2228.82 399.408 Q2228.82 388.713 2226.08 383.401 Q2223.37 378.054 2217.92 378.054 M2217.92 372.498 Q2226.63 372.498 2231.22 379.408 Q2235.83 386.283 2235.83 399.408 Q2235.83 412.498 2231.22 419.408 Q2226.63 426.283 2217.92 426.283 Q2209.2 426.283 2204.58 419.408 Q2200 412.498 2200 399.408 Q2200 386.283 2204.58 379.408 Q2209.2 372.498 2217.92 372.498 Z" fill="#000000" fill-rule="nonzero" fill-opacity="1" /><path clip-path="url(#clip250)" d="M2246.25 371.318 L2251.81 371.318 Q2257.02 379.512 2259.58 387.359 Q2262.19 395.206 2262.19 402.949 Q2262.19 410.727 2259.58 418.609 Q2257.02 426.491 2251.81 434.651 L2246.25 434.651 Q2250.87 426.699 2253.13 418.852 Q2255.42 410.97 2255.42 402.949 Q2255.42 394.929 2253.13 387.116 Q2250.87 379.304 2246.25 371.318 Z" fill="#000000" fill-rule="nonzero" fill-opacity="1" /><polyline clip-path="url(#clip250)" style="stroke:#008000; stroke-linecap:round; stroke-linejoin:round; stroke-width:12; stroke-opacity:1; fill:none" points="1468.84,477.116 1604.69,477.116 "/>
<path clip-path="url(#clip250)" d="M1627.33 451.196 L1636.78 451.196 L1659.76 494.564 L1659.76 451.196 L1666.57 451.196 L1666.57 503.036 L1657.12 503.036 L1634.14 459.668 L1634.14 503.036 L1627.33 503.036 L1627.33 451.196 Z" fill="#000000" fill-rule="nonzero" fill-opacity="1" /><path clip-path="url(#clip250)" d="M1713.51 481.994 L1713.51 485.119 L1684.14 485.119 Q1684.55 491.716 1688.09 495.189 Q1691.67 498.626 1698.03 498.626 Q1701.71 498.626 1705.14 497.723 Q1708.62 496.82 1712.02 495.015 L1712.02 501.057 Q1708.58 502.515 1704.97 503.279 Q1701.36 504.043 1697.64 504.043 Q1688.34 504.043 1682.89 498.626 Q1677.47 493.209 1677.47 483.973 Q1677.47 474.425 1682.61 468.835 Q1687.78 463.21 1696.53 463.21 Q1704.38 463.21 1708.93 468.279 Q1713.51 473.314 1713.51 481.994 M1707.12 480.119 Q1707.05 474.876 1704.17 471.751 Q1701.32 468.626 1696.6 468.626 Q1691.25 468.626 1688.03 471.647 Q1684.83 474.668 1684.34 480.154 L1707.12 480.119 Z" fill="#000000" fill-rule="nonzero" fill-opacity="1" /><path clip-path="url(#clip250)" d="M1723.34 487.689 L1723.34 464.147 L1729.73 464.147 L1729.73 487.446 Q1729.73 492.966 1731.88 495.744 Q1734.03 498.487 1738.34 498.487 Q1743.51 498.487 1746.5 495.189 Q1749.52 491.89 1749.52 486.196 L1749.52 464.147 L1755.91 464.147 L1755.91 503.036 L1749.52 503.036 L1749.52 497.064 Q1747.19 500.605 1744.1 502.341 Q1741.05 504.043 1736.98 504.043 Q1730.28 504.043 1726.81 499.876 Q1723.34 495.709 1723.34 487.689 M1739.41 463.21 L1739.41 463.21 Z" fill="#000000" fill-rule="nonzero" fill-opacity="1" /><path clip-path="url(#clip250)" d="M1791.6 470.119 Q1790.52 469.494 1789.24 469.216 Q1787.99 468.904 1786.46 468.904 Q1781.05 468.904 1778.13 472.446 Q1775.25 475.953 1775.25 482.55 L1775.25 503.036 L1768.82 503.036 L1768.82 464.147 L1775.25 464.147 L1775.25 470.189 Q1777.26 466.647 1780.49 464.946 Q1783.72 463.21 1788.34 463.21 Q1789 463.21 1789.8 463.314 Q1790.59 463.383 1791.57 463.557 L1791.6 470.119 Z" fill="#000000" fill-rule="nonzero" fill-opacity="1" /><path clip-path="url(#clip250)" d="M1815.98 483.487 Q1808.23 483.487 1805.25 485.258 Q1802.26 487.029 1802.26 491.3 Q1802.26 494.702 1804.48 496.716 Q1806.74 498.695 1810.59 498.695 Q1815.91 498.695 1819.1 494.945 Q1822.33 491.161 1822.33 484.911 L1822.33 483.487 L1815.98 483.487 M1828.72 480.848 L1828.72 503.036 L1822.33 503.036 L1822.33 497.133 Q1820.14 500.675 1816.88 502.376 Q1813.61 504.043 1808.89 504.043 Q1802.92 504.043 1799.38 500.709 Q1795.87 497.341 1795.87 491.716 Q1795.87 485.154 1800.25 481.821 Q1804.66 478.487 1813.37 478.487 L1822.33 478.487 L1822.33 477.862 Q1822.33 473.453 1819.41 471.057 Q1816.53 468.626 1811.29 468.626 Q1807.96 468.626 1804.8 469.425 Q1801.64 470.223 1798.72 471.821 L1798.72 465.918 Q1802.23 464.564 1805.52 463.904 Q1808.82 463.21 1811.95 463.21 Q1820.39 463.21 1824.55 467.585 Q1828.72 471.959 1828.72 480.848 Z" fill="#000000" fill-rule="nonzero" fill-opacity="1" /><path clip-path="url(#clip250)" d="M1841.88 449.008 L1848.27 449.008 L1848.27 503.036 L1841.88 503.036 L1841.88 449.008 Z" fill="#000000" fill-rule="nonzero" fill-opacity="1" /><path clip-path="url(#clip250)" d="M1861.91 451.196 L1891.7 451.196 L1891.7 457.098 L1868.93 457.098 L1868.93 472.376 L1889.48 472.376 L1889.48 478.279 L1868.93 478.279 L1868.93 503.036 L1861.91 503.036 L1861.91 451.196 Z" fill="#000000" fill-rule="nonzero" fill-opacity="1" /><path clip-path="url(#clip250)" d="M1902.82 451.196 L1913.27 451.196 L1926.5 486.473 L1939.79 451.196 L1950.25 451.196 L1950.25 503.036 L1943.41 503.036 L1943.41 457.515 L1930.04 493.07 L1922.99 493.07 L1909.62 457.515 L1909.62 503.036 L1902.82 503.036 L1902.82 451.196 Z" fill="#000000" fill-rule="nonzero" fill-opacity="1" /><path clip-path="url(#clip250)" d="M1963.37 451.196 L1970.42 451.196 L1970.42 482.689 Q1970.42 491.022 1973.44 494.702 Q1976.46 498.348 1983.23 498.348 Q1989.97 498.348 1992.99 494.702 Q1996.01 491.022 1996.01 482.689 L1996.01 451.196 L2003.06 451.196 L2003.06 483.557 Q2003.06 493.695 1998.02 498.869 Q1993.02 504.043 1983.23 504.043 Q1973.41 504.043 1968.37 498.869 Q1963.37 493.695 1963.37 483.557 L1963.37 451.196 Z" fill="#000000" fill-rule="nonzero" fill-opacity="1" /><path clip-path="url(#clip250)" d="M2053.89 449.078 Q2049.24 457.064 2046.98 464.876 Q2044.72 472.689 2044.72 480.709 Q2044.72 488.73 2046.98 496.612 Q2049.27 504.459 2053.89 512.411 L2048.34 512.411 Q2043.13 504.251 2040.52 496.369 Q2037.95 488.487 2037.95 480.709 Q2037.95 472.966 2040.52 465.119 Q2043.09 457.272 2048.34 449.078 L2053.89 449.078 Z" fill="#000000" fill-rule="nonzero" fill-opacity="1" /><path clip-path="url(#clip250)" d="M2067.26 451.196 L2094.79 451.196 L2094.79 457.098 L2073.68 457.098 L2073.68 469.807 Q2075.21 469.286 2076.74 469.043 Q2078.27 468.765 2079.79 468.765 Q2088.47 468.765 2093.54 473.522 Q2098.61 478.279 2098.61 486.404 Q2098.61 494.772 2093.4 499.425 Q2088.2 504.043 2078.72 504.043 Q2075.45 504.043 2072.05 503.487 Q2068.68 502.932 2065.07 501.82 L2065.07 494.772 Q2068.2 496.473 2071.53 497.307 Q2074.86 498.14 2078.58 498.14 Q2084.59 498.14 2088.09 494.98 Q2091.6 491.82 2091.6 486.404 Q2091.6 480.987 2088.09 477.828 Q2084.59 474.668 2078.58 474.668 Q2075.77 474.668 2072.95 475.293 Q2070.18 475.918 2067.26 477.237 L2067.26 451.196 Z" fill="#000000" fill-rule="nonzero" fill-opacity="1" /><path clip-path="url(#clip250)" d="M2127.43 455.814 Q2122.02 455.814 2119.27 461.161 Q2116.56 466.473 2116.56 477.168 Q2116.56 487.827 2119.27 493.175 Q2122.02 498.487 2127.43 498.487 Q2132.88 498.487 2135.59 493.175 Q2138.34 487.827 2138.34 477.168 Q2138.34 466.473 2135.59 461.161 Q2132.88 455.814 2127.43 455.814 M2127.43 450.258 Q2136.15 450.258 2140.73 457.168 Q2145.35 464.043 2145.35 477.168 Q2145.35 490.258 2140.73 497.168 Q2136.15 504.043 2127.43 504.043 Q2118.72 504.043 2114.1 497.168 Q2109.52 490.258 2109.52 477.168 Q2109.52 464.043 2114.1 457.168 Q2118.72 450.258 2127.43 450.258 Z" fill="#000000" fill-rule="nonzero" fill-opacity="1" /><path clip-path="url(#clip250)" d="M2172.68 455.814 Q2167.26 455.814 2164.52 461.161 Q2161.81 466.473 2161.81 477.168 Q2161.81 487.827 2164.52 493.175 Q2167.26 498.487 2172.68 498.487 Q2178.13 498.487 2180.84 493.175 Q2183.58 487.827 2183.58 477.168 Q2183.58 466.473 2180.84 461.161 Q2178.13 455.814 2172.68 455.814 M2172.68 450.258 Q2181.39 450.258 2185.97 457.168 Q2190.59 464.043 2190.59 477.168 Q2190.59 490.258 2185.97 497.168 Q2181.39 504.043 2172.68 504.043 Q2163.96 504.043 2159.34 497.168 Q2154.76 490.258 2154.76 477.168 Q2154.76 464.043 2159.34 457.168 Q2163.96 450.258 2172.68 450.258 Z" fill="#000000" fill-rule="nonzero" fill-opacity="1" /><path clip-path="url(#clip250)" d="M2217.92 455.814 Q2212.5 455.814 2209.76 461.161 Q2207.05 466.473 2207.05 477.168 Q2207.05 487.827 2209.76 493.175 Q2212.5 498.487 2217.92 498.487 Q2223.37 498.487 2226.08 493.175 Q2228.82 487.827 2228.82 477.168 Q2228.82 466.473 2226.08 461.161 Q2223.37 455.814 2217.92 455.814 M2217.92 450.258 Q2226.63 450.258 2231.22 457.168 Q2235.83 464.043 2235.83 477.168 Q2235.83 490.258 2231.22 497.168 Q2226.63 504.043 2217.92 504.043 Q2209.2 504.043 2204.58 497.168 Q2200 490.258 2200 477.168 Q2200 464.043 2204.58 457.168 Q2209.2 450.258 2217.92 450.258 Z" fill="#000000" fill-rule="nonzero" fill-opacity="1" /><path clip-path="url(#clip250)" d="M2246.25 449.078 L2251.81 449.078 Q2257.02 457.272 2259.58 465.119 Q2262.19 472.966 2262.19 480.709 Q2262.19 488.487 2259.58 496.369 Q2257.02 504.251 2251.81 512.411 L2246.25 512.411 Q2250.87 504.459 2253.13 496.612 Q2255.42 488.73 2255.42 480.709 Q2255.42 472.689 2253.13 464.876 Q2250.87 457.064 2246.25 449.078 Z" fill="#000000" fill-rule="nonzero" fill-opacity="1" /></svg>
