<?xml version="1.0" encoding="utf-8"?>
<svg xmlns="http://www.w3.org/2000/svg" xmlns:xlink="http://www.w3.org/1999/xlink" width="600" height="400" viewBox="0 0 2400 1600">
<defs>
  <clipPath id="clip340">
    <rect x="0" y="0" width="2400" height="1600"/>
  </clipPath>
</defs>
<path clip-path="url(#clip340)" d="M0 1600 L2400 1600 L2400 0 L0 0  Z" fill="#ffffff" fill-rule="evenodd" fill-opacity="1"/>
<defs>
  <clipPath id="clip341">
    <rect x="480" y="0" width="1681" height="1600"/>
  </clipPath>
</defs>
<path clip-path="url(#clip340)" d="M314.996 1401.58 L2352.76 1401.58 L2352.76 123.472 L314.996 123.472  Z" fill="#ffffff" fill-rule="evenodd" fill-opacity="1"/>
<defs>
  <clipPath id="clip342">
    <rect x="314" y="123" width="2039" height="1279"/>
  </clipPath>
</defs>
<polyline clip-path="url(#clip342)" style="stroke:#000000; stroke-linecap:round; stroke-linejoin:round; stroke-width:2; stroke-opacity:0.1; fill:none" points="372.668,1401.58 372.668,123.472 "/>
<polyline clip-path="url(#clip342)" style="stroke:#000000; stroke-linecap:round; stroke-linejoin:round; stroke-width:2; stroke-opacity:0.1; fill:none" points="853.272,1401.58 853.272,123.472 "/>
<polyline clip-path="url(#clip342)" style="stroke:#000000; stroke-linecap:round; stroke-linejoin:round; stroke-width:2; stroke-opacity:0.1; fill:none" points="1333.88,1401.58 1333.88,123.472 "/>
<polyline clip-path="url(#clip342)" style="stroke:#000000; stroke-linecap:round; stroke-linejoin:round; stroke-width:2; stroke-opacity:0.1; fill:none" points="1814.48,1401.58 1814.48,123.472 "/>
<polyline clip-path="url(#clip342)" style="stroke:#000000; stroke-linecap:round; stroke-linejoin:round; stroke-width:2; stroke-opacity:0.1; fill:none" points="2295.08,1401.58 2295.08,123.472 "/>
<polyline clip-path="url(#clip342)" style="stroke:#000000; stroke-linecap:round; stroke-linejoin:round; stroke-width:2; stroke-opacity:0.1; fill:none" points="314.996,1352.44 2352.76,1352.44 "/>
<polyline clip-path="url(#clip342)" style="stroke:#000000; stroke-linecap:round; stroke-linejoin:round; stroke-width:2; stroke-opacity:0.1; fill:none" points="314.996,1155.8 2352.76,1155.8 "/>
<polyline clip-path="url(#clip342)" style="stroke:#000000; stroke-linecap:round; stroke-linejoin:round; stroke-width:2; stroke-opacity:0.1; fill:none" points="314.996,959.162 2352.76,959.162 "/>
<polyline clip-path="url(#clip342)" style="stroke:#000000; stroke-linecap:round; stroke-linejoin:round; stroke-width:2; stroke-opacity:0.1; fill:none" points="314.996,762.521 2352.76,762.521 "/>
<polyline clip-path="url(#clip342)" style="stroke:#000000; stroke-linecap:round; stroke-linejoin:round; stroke-width:2; stroke-opacity:0.1; fill:none" points="314.996,565.879 2352.76,565.879 "/>
<polyline clip-path="url(#clip342)" style="stroke:#000000; stroke-linecap:round; stroke-linejoin:round; stroke-width:2; stroke-opacity:0.1; fill:none" points="314.996,369.238 2352.76,369.238 "/>
<polyline clip-path="url(#clip342)" style="stroke:#000000; stroke-linecap:round; stroke-linejoin:round; stroke-width:2; stroke-opacity:0.1; fill:none" points="314.996,172.597 2352.76,172.597 "/>
<polyline clip-path="url(#clip340)" style="stroke:#000000; stroke-linecap:round; stroke-linejoin:round; stroke-width:4; stroke-opacity:1; fill:none" points="314.996,1401.58 2352.76,1401.58 "/>
<polyline clip-path="url(#clip340)" style="stroke:#000000; stroke-linecap:round; stroke-linejoin:round; stroke-width:4; stroke-opacity:1; fill:none" points="372.668,1401.58 372.668,1382.68 "/>
<polyline clip-path="url(#clip340)" style="stroke:#000000; stroke-linecap:round; stroke-linejoin:round; stroke-width:4; stroke-opacity:1; fill:none" points="853.272,1401.58 853.272,1382.68 "/>
<polyline clip-path="url(#clip340)" style="stroke:#000000; stroke-linecap:round; stroke-linejoin:round; stroke-width:4; stroke-opacity:1; fill:none" points="1333.88,1401.58 1333.88,1382.68 "/>
<polyline clip-path="url(#clip340)" style="stroke:#000000; stroke-linecap:round; stroke-linejoin:round; stroke-width:4; stroke-opacity:1; fill:none" points="1814.48,1401.58 1814.48,1382.68 "/>
<polyline clip-path="url(#clip340)" style="stroke:#000000; stroke-linecap:round; stroke-linejoin:round; stroke-width:4; stroke-opacity:1; fill:none" points="2295.08,1401.58 2295.08,1382.68 "/>
<path clip-path="url(#clip340)" d="M372.668 1438.36 Q367.252 1438.36 364.509 1443.71 Q361.8 1449.02 361.8 1459.71 Q361.8 1470.37 364.509 1475.72 Q367.252 1481.03 372.668 1481.03 Q378.12 1481.03 380.828 1475.72 Q383.571 1470.37 383.571 1459.71 Q383.571 1449.02 380.828 1443.71 Q378.12 1438.36 372.668 1438.36 M372.668 1432.8 Q381.384 1432.8 385.967 1439.71 Q390.585 1446.59 390.585 1459.71 Q390.585 1472.8 385.967 1479.71 Q381.384 1486.59 372.668 1486.59 Q363.953 1486.59 359.335 1479.71 Q354.752 1472.8 354.752 1459.71 Q354.752 1446.59 359.335 1439.71 Q363.953 1432.8 372.668 1432.8 Z" fill="#000000" fill-rule="nonzero" fill-opacity="1" /><path clip-path="url(#clip340)" d="M838.845 1479.68 L850.303 1479.68 L850.303 1440.13 L837.838 1442.63 L837.838 1436.24 L850.234 1433.74 L857.248 1433.74 L857.248 1479.68 L868.706 1479.68 L868.706 1485.58 L838.845 1485.58 L838.845 1479.68 Z" fill="#000000" fill-rule="nonzero" fill-opacity="1" /><path clip-path="url(#clip340)" d="M1325.86 1479.68 L1350.33 1479.68 L1350.33 1485.58 L1317.42 1485.58 L1317.42 1479.68 Q1321.41 1475.55 1328.29 1468.6 Q1335.2 1461.62 1336.97 1459.61 Q1340.33 1455.82 1341.65 1453.22 Q1343.01 1450.58 1343.01 1448.05 Q1343.01 1443.91 1340.09 1441.31 Q1337.21 1438.71 1332.56 1438.71 Q1329.26 1438.71 1325.58 1439.85 Q1321.93 1441 1317.76 1443.32 L1317.76 1436.24 Q1322 1434.54 1325.68 1433.67 Q1329.36 1432.8 1332.42 1432.8 Q1340.47 1432.8 1345.26 1436.83 Q1350.06 1440.86 1350.06 1447.59 Q1350.06 1450.79 1348.84 1453.67 Q1347.66 1456.52 1344.5 1460.41 Q1343.63 1461.41 1338.98 1466.24 Q1334.33 1471.03 1325.86 1479.68 Z" fill="#000000" fill-rule="nonzero" fill-opacity="1" /><path clip-path="url(#clip340)" d="M1820.85 1457.63 Q1825.89 1458.7 1828.7 1462.11 Q1831.55 1465.51 1831.55 1470.51 Q1831.55 1478.18 1826.27 1482.39 Q1820.99 1486.59 1811.27 1486.59 Q1808 1486.59 1804.53 1485.93 Q1801.09 1485.3 1797.41 1484.02 L1797.41 1477.25 Q1800.33 1478.95 1803.8 1479.82 Q1807.27 1480.68 1811.06 1480.68 Q1817.66 1480.68 1821.09 1478.08 Q1824.57 1475.48 1824.57 1470.51 Q1824.57 1465.93 1821.34 1463.36 Q1818.14 1460.75 1812.41 1460.75 L1806.37 1460.75 L1806.37 1454.99 L1812.69 1454.99 Q1817.87 1454.99 1820.61 1452.94 Q1823.35 1450.86 1823.35 1446.97 Q1823.35 1442.98 1820.5 1440.86 Q1817.69 1438.71 1812.41 1438.71 Q1809.53 1438.71 1806.23 1439.33 Q1802.93 1439.96 1798.98 1441.27 L1798.98 1435.02 Q1802.97 1433.91 1806.44 1433.36 Q1809.95 1432.8 1813.04 1432.8 Q1821.02 1432.8 1825.68 1436.45 Q1830.33 1440.06 1830.33 1446.24 Q1830.33 1450.55 1827.87 1453.53 Q1825.4 1456.48 1820.85 1457.63 Z" fill="#000000" fill-rule="nonzero" fill-opacity="1" /><path clip-path="url(#clip340)" d="M2299.6 1439.85 L2281.89 1467.52 L2299.6 1467.52 L2299.6 1439.85 M2297.76 1433.74 L2306.58 1433.74 L2306.58 1467.52 L2313.97 1467.52 L2313.97 1473.36 L2306.58 1473.36 L2306.58 1485.58 L2299.6 1485.58 L2299.6 1473.36 L2276.19 1473.36 L2276.19 1466.59 L2297.76 1433.74 Z" fill="#000000" fill-rule="nonzero" fill-opacity="1" /><path clip-path="url(#clip340)" d="M1277.49 1527.62 L1277.49 1538.66 L1290.65 1538.66 L1290.65 1543.62 L1277.49 1543.62 L1277.49 1564.74 Q1277.49 1569.49 1278.77 1570.85 Q1280.09 1572.2 1284.08 1572.2 L1290.65 1572.2 L1290.65 1577.55 L1284.08 1577.55 Q1276.69 1577.55 1273.88 1574.8 Q1271.06 1572.03 1271.06 1564.74 L1271.06 1543.62 L1266.38 1543.62 L1266.38 1538.66 L1271.06 1538.66 L1271.06 1527.62 L1277.49 1527.62 Z" fill="#000000" fill-rule="nonzero" fill-opacity="1" /><path clip-path="url(#clip340)" d="M1321.06 1523.52 L1335.79 1523.52 L1335.79 1528.49 L1327.45 1528.49 L1327.45 1581.96 L1335.79 1581.96 L1335.79 1586.92 L1321.06 1586.92 L1321.06 1523.52 Z" fill="#000000" fill-rule="nonzero" fill-opacity="1" /><path clip-path="url(#clip340)" d="M1374.19 1539.8 L1374.19 1545.85 Q1371.48 1544.46 1368.56 1543.76 Q1365.65 1543.07 1362.52 1543.07 Q1357.76 1543.07 1355.37 1544.53 Q1353.01 1545.99 1353.01 1548.9 Q1353.01 1551.12 1354.71 1552.41 Q1356.41 1553.66 1361.55 1554.8 L1363.74 1555.29 Q1370.54 1556.75 1373.39 1559.42 Q1376.27 1562.06 1376.27 1566.82 Q1376.27 1572.24 1371.97 1575.4 Q1367.7 1578.55 1360.2 1578.55 Q1357.07 1578.55 1353.67 1577.93 Q1350.3 1577.34 1346.55 1576.12 L1346.55 1569.53 Q1350.09 1571.37 1353.53 1572.3 Q1356.97 1573.21 1360.33 1573.21 Q1364.85 1573.21 1367.28 1571.68 Q1369.71 1570.12 1369.71 1567.3 Q1369.71 1564.7 1367.94 1563.31 Q1366.2 1561.92 1360.26 1560.64 L1358.04 1560.12 Q1352.11 1558.87 1349.47 1556.3 Q1346.83 1553.69 1346.83 1549.18 Q1346.83 1543.69 1350.72 1540.71 Q1354.6 1537.72 1361.76 1537.72 Q1365.3 1537.72 1368.42 1538.24 Q1371.55 1538.76 1374.19 1539.8 Z" fill="#000000" fill-rule="nonzero" fill-opacity="1" /><path clip-path="url(#clip340)" d="M1401.38 1523.52 L1401.38 1586.92 L1386.65 1586.92 L1386.65 1581.96 L1394.95 1581.96 L1394.95 1528.49 L1386.65 1528.49 L1386.65 1523.52 L1401.38 1523.52 Z" fill="#000000" fill-rule="nonzero" fill-opacity="1" /><polyline clip-path="url(#clip340)" style="stroke:#000000; stroke-linecap:round; stroke-linejoin:round; stroke-width:4; stroke-opacity:1; fill:none" points="314.996,1401.58 314.996,123.472 "/>
<polyline clip-path="url(#clip340)" style="stroke:#000000; stroke-linecap:round; stroke-linejoin:round; stroke-width:4; stroke-opacity:1; fill:none" points="314.996,1352.44 333.894,1352.44 "/>
<polyline clip-path="url(#clip340)" style="stroke:#000000; stroke-linecap:round; stroke-linejoin:round; stroke-width:4; stroke-opacity:1; fill:none" points="314.996,1155.8 333.894,1155.8 "/>
<polyline clip-path="url(#clip340)" style="stroke:#000000; stroke-linecap:round; stroke-linejoin:round; stroke-width:4; stroke-opacity:1; fill:none" points="314.996,959.162 333.894,959.162 "/>
<polyline clip-path="url(#clip340)" style="stroke:#000000; stroke-linecap:round; stroke-linejoin:round; stroke-width:4; stroke-opacity:1; fill:none" points="314.996,762.521 333.894,762.521 "/>
<polyline clip-path="url(#clip340)" style="stroke:#000000; stroke-linecap:round; stroke-linejoin:round; stroke-width:4; stroke-opacity:1; fill:none" points="314.996,565.879 333.894,565.879 "/>
<polyline clip-path="url(#clip340)" style="stroke:#000000; stroke-linecap:round; stroke-linejoin:round; stroke-width:4; stroke-opacity:1; fill:none" points="314.996,369.238 333.894,369.238 "/>
<polyline clip-path="url(#clip340)" style="stroke:#000000; stroke-linecap:round; stroke-linejoin:round; stroke-width:4; stroke-opacity:1; fill:none" points="314.996,172.597 333.894,172.597 "/>
<path clip-path="url(#clip340)" d="M120.073 1353.12 L164.587 1353.12 L164.587 1359.02 L120.073 1359.02 L120.073 1353.12 Z" fill="#000000" fill-rule="nonzero" fill-opacity="1" /><path clip-path="url(#clip340)" d="M180.941 1372.46 L192.399 1372.46 L192.399 1332.91 L179.934 1335.41 L179.934 1329.02 L192.33 1326.52 L199.344 1326.52 L199.344 1372.46 L210.802 1372.46 L210.802 1378.36 L180.941 1378.36 L180.941 1372.46 Z" fill="#000000" fill-rule="nonzero" fill-opacity="1" /><path clip-path="url(#clip340)" d="M224.968 1369.55 L232.295 1369.55 L232.295 1378.36 L224.968 1378.36 L224.968 1369.55 Z" fill="#000000" fill-rule="nonzero" fill-opacity="1" /><path clip-path="url(#clip340)" d="M247.642 1326.52 L275.177 1326.52 L275.177 1332.43 L254.066 1332.43 L254.066 1345.14 Q255.593 1344.61 257.121 1344.37 Q258.649 1344.09 260.177 1344.09 Q268.857 1344.09 273.927 1348.85 Q278.996 1353.61 278.996 1361.73 Q278.996 1370.1 273.788 1374.75 Q268.579 1379.37 259.1 1379.37 Q255.836 1379.37 252.434 1378.82 Q249.066 1378.26 245.454 1377.15 L245.454 1370.1 Q248.579 1371.8 251.913 1372.64 Q255.246 1373.47 258.961 1373.47 Q264.968 1373.47 268.475 1370.31 Q271.982 1367.15 271.982 1361.73 Q271.982 1356.32 268.475 1353.16 Q264.968 1350 258.961 1350 Q256.149 1350 253.336 1350.62 Q250.559 1351.25 247.642 1352.57 L247.642 1326.52 Z" fill="#000000" fill-rule="nonzero" fill-opacity="1" /><path clip-path="url(#clip340)" d="M118.58 1156.48 L163.094 1156.48 L163.094 1162.38 L118.58 1162.38 L118.58 1156.48 Z" fill="#000000" fill-rule="nonzero" fill-opacity="1" /><path clip-path="url(#clip340)" d="M179.448 1175.82 L190.906 1175.82 L190.906 1136.27 L178.441 1138.77 L178.441 1132.38 L190.837 1129.88 L197.851 1129.88 L197.851 1175.82 L209.309 1175.82 L209.309 1181.72 L179.448 1181.72 L179.448 1175.82 Z" fill="#000000" fill-rule="nonzero" fill-opacity="1" /><path clip-path="url(#clip340)" d="M223.475 1172.9 L230.802 1172.9 L230.802 1181.72 L223.475 1181.72 L223.475 1172.9 Z" fill="#000000" fill-rule="nonzero" fill-opacity="1" /><path clip-path="url(#clip340)" d="M261.079 1134.5 Q255.663 1134.5 252.92 1139.85 Q250.211 1145.16 250.211 1155.86 Q250.211 1166.51 252.92 1171.86 Q255.663 1177.17 261.079 1177.17 Q266.531 1177.17 269.239 1171.86 Q271.982 1166.51 271.982 1155.86 Q271.982 1145.16 269.239 1139.85 Q266.531 1134.5 261.079 1134.5 M261.079 1128.95 Q269.795 1128.95 274.378 1135.86 Q278.996 1142.73 278.996 1155.86 Q278.996 1168.95 274.378 1175.86 Q269.795 1182.73 261.079 1182.73 Q252.364 1182.73 247.746 1175.86 Q243.163 1168.95 243.163 1155.86 Q243.163 1142.73 247.746 1135.86 Q252.364 1128.95 261.079 1128.95 Z" fill="#000000" fill-rule="nonzero" fill-opacity="1" /><path clip-path="url(#clip340)" d="M120.073 959.839 L164.587 959.839 L164.587 965.742 L120.073 965.742 L120.073 959.839 Z" fill="#000000" fill-rule="nonzero" fill-opacity="1" /><path clip-path="url(#clip340)" d="M194.726 937.86 Q189.309 937.86 186.566 943.207 Q183.858 948.52 183.858 959.214 Q183.858 969.874 186.566 975.221 Q189.309 980.533 194.726 980.533 Q200.177 980.533 202.885 975.221 Q205.628 969.874 205.628 959.214 Q205.628 948.52 202.885 943.207 Q200.177 937.86 194.726 937.86 M194.726 932.304 Q203.441 932.304 208.024 939.214 Q212.642 946.089 212.642 959.214 Q212.642 972.304 208.024 979.214 Q203.441 986.089 194.726 986.089 Q186.01 986.089 181.392 979.214 Q176.809 972.304 176.809 959.214 Q176.809 946.089 181.392 939.214 Q186.01 932.304 194.726 932.304 Z" fill="#000000" fill-rule="nonzero" fill-opacity="1" /><path clip-path="url(#clip340)" d="M224.968 976.263 L232.295 976.263 L232.295 985.082 L224.968 985.082 L224.968 976.263 Z" fill="#000000" fill-rule="nonzero" fill-opacity="1" /><path clip-path="url(#clip340)" d="M247.642 933.242 L275.177 933.242 L275.177 939.145 L254.066 939.145 L254.066 951.853 Q255.593 951.332 257.121 951.089 Q258.649 950.811 260.177 950.811 Q268.857 950.811 273.927 955.568 Q278.996 960.325 278.996 968.45 Q278.996 976.818 273.788 981.471 Q268.579 986.089 259.1 986.089 Q255.836 986.089 252.434 985.533 Q249.066 984.978 245.454 983.867 L245.454 976.818 Q248.579 978.519 251.913 979.353 Q255.246 980.186 258.961 980.186 Q264.968 980.186 268.475 977.026 Q271.982 973.867 271.982 968.45 Q271.982 963.033 268.475 959.874 Q264.968 956.714 258.961 956.714 Q256.149 956.714 253.336 957.339 Q250.559 957.964 247.642 959.283 L247.642 933.242 Z" fill="#000000" fill-rule="nonzero" fill-opacity="1" /><path clip-path="url(#clip340)" d="M193.233 741.219 Q187.816 741.219 185.073 746.566 Q182.365 751.878 182.365 762.573 Q182.365 773.232 185.073 778.58 Q187.816 783.892 193.233 783.892 Q198.684 783.892 201.392 778.58 Q204.135 773.232 204.135 762.573 Q204.135 751.878 201.392 746.566 Q198.684 741.219 193.233 741.219 M193.233 735.663 Q201.948 735.663 206.531 742.573 Q211.149 749.448 211.149 762.573 Q211.149 775.663 206.531 782.573 Q201.948 789.448 193.233 789.448 Q184.517 789.448 179.899 782.573 Q175.316 775.663 175.316 762.573 Q175.316 749.448 179.899 742.573 Q184.517 735.663 193.233 735.663 Z" fill="#000000" fill-rule="nonzero" fill-opacity="1" /><path clip-path="url(#clip340)" d="M223.475 779.621 L230.802 779.621 L230.802 788.441 L223.475 788.441 L223.475 779.621 Z" fill="#000000" fill-rule="nonzero" fill-opacity="1" /><path clip-path="url(#clip340)" d="M261.079 741.219 Q255.663 741.219 252.92 746.566 Q250.211 751.878 250.211 762.573 Q250.211 773.232 252.92 778.58 Q255.663 783.892 261.079 783.892 Q266.531 783.892 269.239 778.58 Q271.982 773.232 271.982 762.573 Q271.982 751.878 269.239 746.566 Q266.531 741.219 261.079 741.219 M261.079 735.663 Q269.795 735.663 274.378 742.573 Q278.996 749.448 278.996 762.573 Q278.996 775.663 274.378 782.573 Q269.795 789.448 261.079 789.448 Q252.364 789.448 247.746 782.573 Q243.163 775.663 243.163 762.573 Q243.163 749.448 247.746 742.573 Q252.364 735.663 261.079 735.663 Z" fill="#000000" fill-rule="nonzero" fill-opacity="1" /><path clip-path="url(#clip340)" d="M194.726 544.577 Q189.309 544.577 186.566 549.925 Q183.858 555.237 183.858 565.931 Q183.858 576.591 186.566 581.938 Q189.309 587.251 194.726 587.251 Q200.177 587.251 202.885 581.938 Q205.628 576.591 205.628 565.931 Q205.628 555.237 202.885 549.925 Q200.177 544.577 194.726 544.577 M194.726 539.022 Q203.441 539.022 208.024 545.931 Q212.642 552.806 212.642 565.931 Q212.642 579.022 208.024 585.931 Q203.441 592.806 194.726 592.806 Q186.01 592.806 181.392 585.931 Q176.809 579.022 176.809 565.931 Q176.809 552.806 181.392 545.931 Q186.01 539.022 194.726 539.022 Z" fill="#000000" fill-rule="nonzero" fill-opacity="1" /><path clip-path="url(#clip340)" d="M224.968 582.98 L232.295 582.98 L232.295 591.799 L224.968 591.799 L224.968 582.98 Z" fill="#000000" fill-rule="nonzero" fill-opacity="1" /><path clip-path="url(#clip340)" d="M247.642 539.959 L275.177 539.959 L275.177 545.862 L254.066 545.862 L254.066 558.57 Q255.593 558.049 257.121 557.806 Q258.649 557.529 260.177 557.529 Q268.857 557.529 273.927 562.286 Q278.996 567.042 278.996 575.167 Q278.996 583.535 273.788 588.188 Q268.579 592.806 259.1 592.806 Q255.836 592.806 252.434 592.251 Q249.066 591.695 245.454 590.584 L245.454 583.535 Q248.579 585.237 251.913 586.07 Q255.246 586.903 258.961 586.903 Q264.968 586.903 268.475 583.744 Q271.982 580.584 271.982 575.167 Q271.982 569.751 268.475 566.591 Q264.968 563.431 258.961 563.431 Q256.149 563.431 253.336 564.056 Q250.559 564.681 247.642 566.001 L247.642 539.959 Z" fill="#000000" fill-rule="nonzero" fill-opacity="1" /><path clip-path="url(#clip340)" d="M179.448 389.255 L190.906 389.255 L190.906 349.707 L178.441 352.207 L178.441 345.818 L190.837 343.318 L197.851 343.318 L197.851 389.255 L209.309 389.255 L209.309 395.158 L179.448 395.158 L179.448 389.255 Z" fill="#000000" fill-rule="nonzero" fill-opacity="1" /><path clip-path="url(#clip340)" d="M223.475 386.339 L230.802 386.339 L230.802 395.158 L223.475 395.158 L223.475 386.339 Z" fill="#000000" fill-rule="nonzero" fill-opacity="1" /><path clip-path="url(#clip340)" d="M261.079 347.936 Q255.663 347.936 252.92 353.283 Q250.211 358.596 250.211 369.29 Q250.211 379.95 252.92 385.297 Q255.663 390.609 261.079 390.609 Q266.531 390.609 269.239 385.297 Q271.982 379.95 271.982 369.29 Q271.982 358.596 269.239 353.283 Q266.531 347.936 261.079 347.936 M261.079 342.381 Q269.795 342.381 274.378 349.29 Q278.996 356.165 278.996 369.29 Q278.996 382.38 274.378 389.29 Q269.795 396.165 261.079 396.165 Q252.364 396.165 247.746 389.29 Q243.163 382.38 243.163 369.29 Q243.163 356.165 247.746 349.29 Q252.364 342.381 261.079 342.381 Z" fill="#000000" fill-rule="nonzero" fill-opacity="1" /><path clip-path="url(#clip340)" d="M180.941 192.614 L192.399 192.614 L192.399 153.066 L179.934 155.566 L179.934 149.177 L192.33 146.677 L199.344 146.677 L199.344 192.614 L210.802 192.614 L210.802 198.517 L180.941 198.517 L180.941 192.614 Z" fill="#000000" fill-rule="nonzero" fill-opacity="1" /><path clip-path="url(#clip340)" d="M224.968 189.697 L232.295 189.697 L232.295 198.517 L224.968 198.517 L224.968 189.697 Z" fill="#000000" fill-rule="nonzero" fill-opacity="1" /><path clip-path="url(#clip340)" d="M247.642 146.677 L275.177 146.677 L275.177 152.579 L254.066 152.579 L254.066 165.288 Q255.593 164.767 257.121 164.524 Q258.649 164.246 260.177 164.246 Q268.857 164.246 273.927 169.003 Q278.996 173.76 278.996 181.885 Q278.996 190.253 273.788 194.906 Q268.579 199.524 259.1 199.524 Q255.836 199.524 252.434 198.968 Q249.066 198.413 245.454 197.301 L245.454 190.253 Q248.579 191.954 251.913 192.788 Q255.246 193.621 258.961 193.621 Q264.968 193.621 268.475 190.461 Q271.982 187.301 271.982 181.885 Q271.982 176.468 268.475 173.308 Q264.968 170.149 258.961 170.149 Q256.149 170.149 253.336 170.774 Q250.559 171.399 247.642 172.718 L247.642 146.677 Z" fill="#000000" fill-rule="nonzero" fill-opacity="1" /><path clip-path="url(#clip340)" d="M35.6047 1073.64 Q31.2992 1071.24 29.2506 1067.91 Q27.202 1064.57 27.202 1060.06 Q27.202 1053.98 31.4728 1050.68 Q35.7089 1047.39 43.5561 1047.39 L67.0282 1047.39 L67.0282 1053.81 L43.7644 1053.81 Q38.1741 1053.81 35.4658 1055.79 Q32.7575 1057.77 32.7575 1061.83 Q32.7575 1066.8 36.0561 1069.68 Q39.3547 1072.56 45.0491 1072.56 L67.0282 1072.56 L67.0282 1078.98 L43.7644 1078.98 Q38.1394 1078.98 35.4658 1080.96 Q32.7575 1082.94 32.7575 1087.07 Q32.7575 1091.97 36.0908 1094.85 Q39.3894 1097.73 45.0491 1097.73 L67.0282 1097.73 L67.0282 1104.16 L28.1395 1104.16 L28.1395 1097.73 L34.1811 1097.73 Q30.6047 1095.55 28.9034 1092.49 Q27.202 1089.43 27.202 1085.23 Q27.202 1081 29.3547 1078.05 Q31.5075 1075.06 35.6047 1073.64 Z" fill="#000000" fill-rule="nonzero" fill-opacity="1" /><path clip-path="url(#clip340)" d="M47.4797 1016.97 Q47.4797 1024.71 49.2505 1027.7 Q51.0213 1030.68 55.2921 1030.68 Q58.6949 1030.68 60.7087 1028.46 Q62.6879 1026.21 62.6879 1022.35 Q62.6879 1017.04 58.9379 1013.84 Q55.1532 1010.61 48.9033 1010.61 L47.4797 1010.61 L47.4797 1016.97 M44.8408 1004.23 L67.0282 1004.23 L67.0282 1010.61 L61.1254 1010.61 Q64.6671 1012.8 66.3684 1016.07 Q68.0351 1019.33 68.0351 1024.05 Q68.0351 1030.02 64.7018 1033.57 Q61.3337 1037.07 55.7088 1037.07 Q49.1463 1037.07 45.813 1032.7 Q42.4797 1028.29 42.4797 1019.57 L42.4797 1010.61 L41.8547 1010.61 Q37.445 1010.61 35.0492 1013.53 Q32.6186 1016.41 32.6186 1021.66 Q32.6186 1024.99 33.4172 1028.15 Q34.2158 1031.31 35.813 1034.23 L29.9103 1034.23 Q28.5561 1030.72 27.8964 1027.42 Q27.202 1024.12 27.202 1021 Q27.202 1012.56 31.577 1008.39 Q35.9519 1004.23 44.8408 1004.23 Z" fill="#000000" fill-rule="nonzero" fill-opacity="1" /><path clip-path="url(#clip340)" d="M29.2853 966.275 L35.3269 966.275 Q33.9381 968.983 33.2436 971.9 Q32.5492 974.817 32.5492 977.941 Q32.5492 982.698 34.0075 985.094 Q35.4658 987.455 38.3825 987.455 Q40.6047 987.455 41.8894 985.754 Q43.1394 984.053 44.2852 978.914 L44.7713 976.726 Q46.2297 969.921 48.9033 967.073 Q51.5421 964.192 56.299 964.192 Q61.7157 964.192 64.8754 968.497 Q68.0351 972.768 68.0351 980.268 Q68.0351 983.393 67.4101 986.796 Q66.8198 990.164 65.6046 993.914 L59.0074 993.914 Q60.8476 990.372 61.7851 986.935 Q62.6879 983.497 62.6879 980.129 Q62.6879 975.615 61.1601 973.185 Q59.5976 970.754 56.7852 970.754 Q54.181 970.754 52.7921 972.525 Q51.4032 974.261 50.1185 980.198 L49.5977 982.421 Q48.3477 988.358 45.7783 990.997 Q43.1741 993.636 38.6603 993.636 Q33.1742 993.636 30.1881 989.747 Q27.202 985.858 27.202 978.705 Q27.202 975.164 27.7228 972.039 Q28.2436 968.914 29.2853 966.275 Z" fill="#000000" fill-rule="nonzero" fill-opacity="1" /><path clip-path="url(#clip340)" d="M29.2853 929.226 L35.3269 929.226 Q33.9381 931.935 33.2436 934.851 Q32.5492 937.768 32.5492 940.893 Q32.5492 945.65 34.0075 948.046 Q35.4658 950.407 38.3825 950.407 Q40.6047 950.407 41.8894 948.706 Q43.1394 947.004 44.2852 941.865 L44.7713 939.678 Q46.2297 932.872 48.9033 930.025 Q51.5421 927.143 56.299 927.143 Q61.7157 927.143 64.8754 931.449 Q68.0351 935.72 68.0351 943.219 Q68.0351 946.344 67.4101 949.747 Q66.8198 953.115 65.6046 956.865 L59.0074 956.865 Q60.8476 953.324 61.7851 949.886 Q62.6879 946.449 62.6879 943.081 Q62.6879 938.567 61.1601 936.136 Q59.5976 933.706 56.7852 933.706 Q54.181 933.706 52.7921 935.476 Q51.4032 937.213 50.1185 943.15 L49.5977 945.372 Q48.3477 951.31 45.7783 953.949 Q43.1741 956.587 38.6603 956.587 Q33.1742 956.587 30.1881 952.699 Q27.202 948.81 27.202 941.657 Q27.202 938.115 27.7228 934.99 Q28.2436 931.865 29.2853 929.226 Z" fill="#000000" fill-rule="nonzero" fill-opacity="1" /><path clip-path="url(#clip340)" d="M28.1395 898.949 L28.1395 892.178 L60.7782 880.025 L28.1395 867.873 L28.1395 861.102 L67.0282 875.685 L67.0282 884.366 L28.1395 898.949 Z" fill="#000000" fill-rule="nonzero" fill-opacity="1" /><path clip-path="url(#clip340)" d="M45.9866 819.019 L49.1116 819.019 L49.1116 848.394 Q55.7088 847.977 59.181 844.435 Q62.6185 840.859 62.6185 834.505 Q62.6185 830.824 61.7157 827.387 Q60.8129 823.915 59.0074 820.512 L65.049 820.512 Q66.5073 823.949 67.2712 827.56 Q68.0351 831.171 68.0351 834.887 Q68.0351 844.192 62.6185 849.644 Q57.2018 855.06 47.9658 855.06 Q38.4172 855.06 32.827 849.921 Q27.202 844.748 27.202 835.998 Q27.202 828.151 32.2714 823.602 Q37.3061 819.019 45.9866 819.019 M44.1116 825.408 Q38.8686 825.477 35.7436 828.359 Q32.6186 831.206 32.6186 835.928 Q32.6186 841.276 35.6394 844.505 Q38.6603 847.699 44.1463 848.185 L44.1116 825.408 Z" fill="#000000" fill-rule="nonzero" fill-opacity="1" /><path clip-path="url(#clip340)" d="M13.0007 808.533 L13.0007 802.144 L67.0282 802.144 L67.0282 808.533 L13.0007 808.533 Z" fill="#000000" fill-rule="nonzero" fill-opacity="1" /><path clip-path="url(#clip340)" d="M32.6186 773.706 Q32.6186 778.845 36.6464 781.831 Q40.6394 784.818 47.6185 784.818 Q54.5977 784.818 58.6254 781.866 Q62.6185 778.88 62.6185 773.706 Q62.6185 768.602 58.5907 765.616 Q54.5629 762.63 47.6185 762.63 Q40.7089 762.63 36.6811 765.616 Q32.6186 768.602 32.6186 773.706 M27.202 773.706 Q27.202 765.373 32.6186 760.616 Q38.0353 755.859 47.6185 755.859 Q57.1671 755.859 62.6185 760.616 Q68.0351 765.373 68.0351 773.706 Q68.0351 782.074 62.6185 786.831 Q57.1671 791.554 47.6185 791.554 Q38.0353 791.554 32.6186 786.831 Q27.202 782.074 27.202 773.706 Z" fill="#000000" fill-rule="nonzero" fill-opacity="1" /><path clip-path="url(#clip340)" d="M29.6325 717.283 L35.6047 717.283 Q34.1117 719.991 33.3825 722.735 Q32.6186 725.443 32.6186 728.221 Q32.6186 734.436 36.5769 737.873 Q40.5005 741.311 47.6185 741.311 Q54.7366 741.311 58.6949 737.873 Q62.6185 734.436 62.6185 728.221 Q62.6185 725.443 61.8893 722.735 Q61.1254 719.991 59.6324 717.283 L65.5351 717.283 Q66.7851 719.957 67.4101 722.839 Q68.0351 725.686 68.0351 728.915 Q68.0351 737.7 62.5143 742.873 Q56.9935 748.047 47.6185 748.047 Q38.1047 748.047 32.6533 742.839 Q27.202 737.596 27.202 728.498 Q27.202 725.547 27.827 722.735 Q28.4173 719.922 29.6325 717.283 Z" fill="#000000" fill-rule="nonzero" fill-opacity="1" /><path clip-path="url(#clip340)" d="M28.1395 706.172 L28.1395 699.783 L67.0282 699.783 L67.0282 706.172 L28.1395 706.172 M13.0007 706.172 L13.0007 699.783 L21.0909 699.783 L21.0909 706.172 L13.0007 706.172 Z" fill="#000000" fill-rule="nonzero" fill-opacity="1" /><path clip-path="url(#clip340)" d="M17.0979 680.096 L28.1395 680.096 L28.1395 666.936 L33.1047 666.936 L33.1047 680.096 L54.2157 680.096 Q58.9726 680.096 60.3268 678.811 Q61.681 677.492 61.681 673.499 L61.681 666.936 L67.0282 666.936 L67.0282 673.499 Q67.0282 680.894 64.2851 683.707 Q61.5074 686.519 54.2157 686.519 L33.1047 686.519 L33.1047 691.207 L28.1395 691.207 L28.1395 686.519 L17.0979 686.519 L17.0979 680.096 Z" fill="#000000" fill-rule="nonzero" fill-opacity="1" /><path clip-path="url(#clip340)" d="M70.6392 642.353 Q77.5837 645.061 79.7017 647.631 Q81.8197 650.2 81.8197 654.506 L81.8197 659.61 L76.4726 659.61 L76.4726 655.86 Q76.4726 653.221 75.2226 651.763 Q73.9726 650.304 69.3198 648.534 L66.4032 647.388 L28.1395 663.117 L28.1395 656.346 L58.556 644.193 L28.1395 632.041 L28.1395 625.27 L70.6392 642.353 Z" fill="#000000" fill-rule="nonzero" fill-opacity="1" /><path clip-path="url(#clip340)" d="M13.0007 594.437 L13.0007 579.714 L17.9659 579.714 L17.9659 588.048 L71.4379 588.048 L71.4379 579.714 L76.4031 579.714 L76.4031 594.437 L13.0007 594.437 Z" fill="#000000" fill-rule="nonzero" fill-opacity="1" /><path clip-path="url(#clip340)" d="M35.6047 535.826 Q31.2992 533.43 29.2506 530.097 Q27.202 526.763 27.202 522.249 Q27.202 516.173 31.4728 512.875 Q35.7089 509.576 43.5561 509.576 L67.0282 509.576 L67.0282 516 L43.7644 516 Q38.1741 516 35.4658 517.979 Q32.7575 519.958 32.7575 524.02 Q32.7575 528.986 36.0561 531.867 Q39.3547 534.749 45.0491 534.749 L67.0282 534.749 L67.0282 541.173 L43.7644 541.173 Q38.1394 541.173 35.4658 543.152 Q32.7575 545.131 32.7575 549.263 Q32.7575 554.159 36.0908 557.041 Q39.3894 559.923 45.0491 559.923 L67.0282 559.923 L67.0282 566.346 L28.1395 566.346 L28.1395 559.923 L34.1811 559.923 Q30.6047 557.735 28.9034 554.68 Q27.202 551.624 27.202 547.423 Q27.202 543.187 29.3547 540.236 Q31.5075 537.249 35.6047 535.826 Z" fill="#000000" fill-rule="nonzero" fill-opacity="1" /><path clip-path="url(#clip340)" d="M15.1882 485.479 L15.1882 479.576 L73.6253 497.632 L73.6253 503.534 L15.1882 485.479 Z" fill="#000000" fill-rule="nonzero" fill-opacity="1" /><path clip-path="url(#clip340)" d="M29.2853 448.083 L35.3269 448.083 Q33.9381 450.792 33.2436 453.708 Q32.5492 456.625 32.5492 459.75 Q32.5492 464.507 34.0075 466.903 Q35.4658 469.264 38.3825 469.264 Q40.6047 469.264 41.8894 467.562 Q43.1394 465.861 44.2852 460.722 L44.7713 458.535 Q46.2297 451.729 48.9033 448.882 Q51.5421 446 56.299 446 Q61.7157 446 64.8754 450.305 Q68.0351 454.576 68.0351 462.076 Q68.0351 465.201 67.4101 468.604 Q66.8198 471.972 65.6046 475.722 L59.0074 475.722 Q60.8476 472.18 61.7851 468.743 Q62.6879 465.305 62.6879 461.937 Q62.6879 457.423 61.1601 454.993 Q59.5976 452.562 56.7852 452.562 Q54.181 452.562 52.7921 454.333 Q51.4032 456.069 50.1185 462.007 L49.5977 464.229 Q48.3477 470.166 45.7783 472.805 Q43.1741 475.444 38.6603 475.444 Q33.1742 475.444 30.1881 471.555 Q27.202 467.666 27.202 460.514 Q27.202 456.972 27.7228 453.847 Q28.2436 450.722 29.2853 448.083 Z" fill="#000000" fill-rule="nonzero" fill-opacity="1" /><path clip-path="url(#clip340)" d="M13.0007 420.896 L76.4031 420.896 L76.4031 435.618 L71.4379 435.618 L71.4379 427.319 L17.9659 427.319 L17.9659 435.618 L13.0007 435.618 L13.0007 420.896 Z" fill="#000000" fill-rule="nonzero" fill-opacity="1" /><path clip-path="url(#clip340)" d="M600.602 12.096 L612.795 12.096 L628.229 53.2532 L643.744 12.096 L655.937 12.096 L655.937 72.576 L647.957 72.576 L647.957 19.4686 L632.361 60.9499 L624.137 60.9499 L608.541 19.4686 L608.541 72.576 L600.602 72.576 L600.602 12.096 Z" fill="#000000" fill-rule="nonzero" fill-opacity="1" /><path clip-path="url(#clip340)" d="M689.438 32.4315 Q683.442 32.4315 679.959 37.1306 Q676.475 41.7891 676.475 49.9314 Q676.475 58.0738 679.918 62.7728 Q683.402 67.4314 689.438 67.4314 Q695.393 67.4314 698.876 62.7323 Q702.36 58.0333 702.36 49.9314 Q702.36 41.8701 698.876 37.1711 Q695.393 32.4315 689.438 32.4315 M689.438 26.1121 Q699.16 26.1121 704.71 32.4315 Q710.259 38.7509 710.259 49.9314 Q710.259 61.0714 704.71 67.4314 Q699.16 73.7508 689.438 73.7508 Q679.675 73.7508 674.125 67.4314 Q668.616 61.0714 668.616 49.9314 Q668.616 38.7509 674.125 32.4315 Q679.675 26.1121 689.438 26.1121 Z" fill="#000000" fill-rule="nonzero" fill-opacity="1" /><path clip-path="url(#clip340)" d="M752.47 34.0924 L752.47 9.54393 L759.924 9.54393 L759.924 72.576 L752.47 72.576 L752.47 65.7705 Q750.12 69.8214 746.515 71.8063 Q742.95 73.7508 737.927 73.7508 Q729.704 73.7508 724.519 67.1883 Q719.374 60.6258 719.374 49.9314 Q719.374 39.2371 724.519 32.6746 Q729.704 26.1121 737.927 26.1121 Q742.95 26.1121 746.515 28.0971 Q750.12 30.0415 752.47 34.0924 M727.071 49.9314 Q727.071 58.1548 730.433 62.8538 Q733.836 67.5124 739.75 67.5124 Q745.664 67.5124 749.067 62.8538 Q752.47 58.1548 752.47 49.9314 Q752.47 41.7081 749.067 37.0496 Q745.664 32.3505 739.75 32.3505 Q733.836 32.3505 730.433 37.0496 Q727.071 41.7081 727.071 49.9314 Z" fill="#000000" fill-rule="nonzero" fill-opacity="1" /><path clip-path="url(#clip340)" d="M775.276 27.2059 L782.73 27.2059 L782.73 72.576 L775.276 72.576 L775.276 27.2059 M775.276 9.54393 L782.73 9.54393 L782.73 18.9825 L775.276 18.9825 L775.276 9.54393 Z" fill="#000000" fill-rule="nonzero" fill-opacity="1" /><path clip-path="url(#clip340)" d="M821.295 9.54393 L821.295 15.7418 L814.165 15.7418 Q810.155 15.7418 808.575 17.3622 Q807.036 18.9825 807.036 23.1955 L807.036 27.2059 L819.31 27.2059 L819.31 32.9987 L807.036 32.9987 L807.036 72.576 L799.541 72.576 L799.541 32.9987 L792.412 32.9987 L792.412 27.2059 L799.541 27.2059 L799.541 24.0462 Q799.541 16.471 803.066 13.0277 Q806.59 9.54393 814.246 9.54393 L821.295 9.54393 Z" fill="#000000" fill-rule="nonzero" fill-opacity="1" /><path clip-path="url(#clip340)" d="M827.533 27.2059 L834.987 27.2059 L834.987 72.576 L827.533 72.576 L827.533 27.2059 M827.533 9.54393 L834.987 9.54393 L834.987 18.9825 L827.533 18.9825 L827.533 9.54393 Z" fill="#000000" fill-rule="nonzero" fill-opacity="1" /><path clip-path="url(#clip340)" d="M889.39 48.0275 L889.39 51.6733 L855.12 51.6733 Q855.606 59.3701 859.738 63.421 Q863.91 67.4314 871.323 67.4314 Q875.617 67.4314 879.628 66.3781 Q883.679 65.3249 887.649 63.2184 L887.649 70.267 Q883.638 71.9684 879.425 72.8596 Q875.212 73.7508 870.878 73.7508 Q860.021 73.7508 853.661 67.4314 Q847.342 61.1119 847.342 50.3365 Q847.342 39.1965 853.337 32.6746 Q859.373 26.1121 869.582 26.1121 Q878.737 26.1121 884.043 32.0264 Q889.39 37.9003 889.39 48.0275 M881.937 45.84 Q881.856 39.7232 878.494 36.0774 Q875.172 32.4315 869.663 32.4315 Q863.424 32.4315 859.657 35.9558 Q855.93 39.4801 855.363 45.8805 L881.937 45.84 Z" fill="#000000" fill-rule="nonzero" fill-opacity="1" /><path clip-path="url(#clip340)" d="M931.479 34.0924 L931.479 9.54393 L938.933 9.54393 L938.933 72.576 L931.479 72.576 L931.479 65.7705 Q929.13 69.8214 925.525 71.8063 Q921.96 73.7508 916.937 73.7508 Q908.713 73.7508 903.528 67.1883 Q898.383 60.6258 898.383 49.9314 Q898.383 39.2371 903.528 32.6746 Q908.713 26.1121 916.937 26.1121 Q921.96 26.1121 925.525 28.0971 Q929.13 30.0415 931.479 34.0924 M906.08 49.9314 Q906.08 58.1548 909.442 62.8538 Q912.845 67.5124 918.76 67.5124 Q924.674 67.5124 928.077 62.8538 Q931.479 58.1548 931.479 49.9314 Q931.479 41.7081 928.077 37.0496 Q924.674 32.3505 918.76 32.3505 Q912.845 32.3505 909.442 37.0496 Q906.08 41.7081 906.08 49.9314 Z" fill="#000000" fill-rule="nonzero" fill-opacity="1" /><path clip-path="url(#clip340)" d="M956.19 62.2867 L964.737 62.2867 L964.737 72.576 L956.19 72.576 L956.19 62.2867 M956.19 29.6769 L964.737 29.6769 L964.737 39.9662 L956.19 39.9662 L956.19 29.6769 Z" fill="#000000" fill-rule="nonzero" fill-opacity="1" /><path clip-path="url(#clip340)" d="M1008.93 12.096 L1021.13 12.096 L1036.56 53.2532 L1052.07 12.096 L1064.27 12.096 L1064.27 72.576 L1056.29 72.576 L1056.29 19.4686 L1040.69 60.9499 L1032.47 60.9499 L1016.87 19.4686 L1016.87 72.576 L1008.93 72.576 L1008.93 12.096 Z" fill="#000000" fill-rule="nonzero" fill-opacity="1" /><path clip-path="url(#clip340)" d="M1100.81 49.7694 Q1091.77 49.7694 1088.29 51.8354 Q1084.81 53.9013 1084.81 58.8839 Q1084.81 62.8538 1087.4 65.2034 Q1090.03 67.5124 1094.53 67.5124 Q1100.73 67.5124 1104.45 63.1374 Q1108.22 58.7219 1108.22 51.4303 L1108.22 49.7694 L1100.81 49.7694 M1115.67 46.6907 L1115.67 72.576 L1108.22 72.576 L1108.22 65.6895 Q1105.67 69.8214 1101.86 71.8063 Q1098.05 73.7508 1092.54 73.7508 Q1085.58 73.7508 1081.44 69.8619 Q1077.35 65.9325 1077.35 59.3701 Q1077.35 51.7138 1082.46 47.825 Q1087.6 43.9361 1097.77 43.9361 L1108.22 43.9361 L1108.22 43.2069 Q1108.22 38.0623 1104.82 35.2672 Q1101.46 32.4315 1095.34 32.4315 Q1091.45 32.4315 1087.76 33.3632 Q1084.08 34.295 1080.67 36.1584 L1080.67 29.2718 Q1084.77 27.692 1088.61 26.9223 Q1092.46 26.1121 1096.11 26.1121 Q1105.95 26.1121 1110.81 31.2163 Q1115.67 36.3204 1115.67 46.6907 Z" fill="#000000" fill-rule="nonzero" fill-opacity="1" /><path clip-path="url(#clip340)" d="M1159.95 28.5427 L1159.95 35.5912 Q1156.79 33.9709 1153.39 33.1607 Q1149.99 32.3505 1146.34 32.3505 Q1140.79 32.3505 1137.99 34.0519 Q1135.24 35.7533 1135.24 39.156 Q1135.24 41.7486 1137.22 43.2475 Q1139.21 44.7058 1145.21 46.0426 L1147.76 46.6097 Q1155.7 48.3111 1159.02 51.4303 Q1162.38 54.509 1162.38 60.0587 Q1162.38 66.3781 1157.36 70.0644 Q1152.38 73.7508 1143.63 73.7508 Q1139.98 73.7508 1136.01 73.0216 Q1132.08 72.3329 1127.71 70.9151 L1127.71 63.2184 Q1131.84 65.3654 1135.85 66.4591 Q1139.86 67.5124 1143.79 67.5124 Q1149.05 67.5124 1151.89 65.73 Q1154.72 63.9071 1154.72 60.6258 Q1154.72 57.5877 1152.66 55.9673 Q1150.63 54.3469 1143.71 52.8481 L1141.11 52.2405 Q1134.19 50.7821 1131.11 47.7845 Q1128.03 44.7463 1128.03 39.4801 Q1128.03 33.0797 1132.57 29.5959 Q1137.1 26.1121 1145.45 26.1121 Q1149.58 26.1121 1153.23 26.7198 Q1156.87 27.3274 1159.95 28.5427 Z" fill="#000000" fill-rule="nonzero" fill-opacity="1" /><path clip-path="url(#clip340)" d="M1203.17 28.5427 L1203.17 35.5912 Q1200.01 33.9709 1196.61 33.1607 Q1193.21 32.3505 1189.56 32.3505 Q1184.01 32.3505 1181.22 34.0519 Q1178.46 35.7533 1178.46 39.156 Q1178.46 41.7486 1180.45 43.2475 Q1182.43 44.7058 1188.43 46.0426 L1190.98 46.6097 Q1198.92 48.3111 1202.24 51.4303 Q1205.6 54.509 1205.6 60.0587 Q1205.6 66.3781 1200.58 70.0644 Q1195.6 73.7508 1186.85 73.7508 Q1183.2 73.7508 1179.23 73.0216 Q1175.3 72.3329 1170.93 70.9151 L1170.93 63.2184 Q1175.06 65.3654 1179.07 66.4591 Q1183.08 67.5124 1187.01 67.5124 Q1192.28 67.5124 1195.11 65.73 Q1197.95 63.9071 1197.95 60.6258 Q1197.95 57.5877 1195.88 55.9673 Q1193.86 54.3469 1186.93 52.8481 L1184.34 52.2405 Q1177.41 50.7821 1174.33 47.7845 Q1171.25 44.7463 1171.25 39.4801 Q1171.25 33.0797 1175.79 29.5959 Q1180.33 26.1121 1188.67 26.1121 Q1192.8 26.1121 1196.45 26.7198 Q1200.09 27.3274 1203.17 28.5427 Z" fill="#000000" fill-rule="nonzero" fill-opacity="1" /><path clip-path="url(#clip340)" d="M1238.5 27.2059 L1246.4 27.2059 L1260.57 65.2844 L1274.75 27.2059 L1282.65 27.2059 L1265.64 72.576 L1255.51 72.576 L1238.5 27.2059 Z" fill="#000000" fill-rule="nonzero" fill-opacity="1" /><path clip-path="url(#clip340)" d="M1331.75 48.0275 L1331.75 51.6733 L1297.48 51.6733 Q1297.96 59.3701 1302.1 63.421 Q1306.27 67.4314 1313.68 67.4314 Q1317.98 67.4314 1321.99 66.3781 Q1326.04 65.3249 1330.01 63.2184 L1330.01 70.267 Q1326 71.9684 1321.78 72.8596 Q1317.57 73.7508 1313.24 73.7508 Q1302.38 73.7508 1296.02 67.4314 Q1289.7 61.1119 1289.7 50.3365 Q1289.7 39.1965 1295.7 32.6746 Q1301.73 26.1121 1311.94 26.1121 Q1321.1 26.1121 1326.4 32.0264 Q1331.75 37.9003 1331.75 48.0275 M1324.3 45.84 Q1324.21 39.7232 1320.85 36.0774 Q1317.53 32.4315 1312.02 32.4315 Q1305.78 32.4315 1302.02 35.9558 Q1298.29 39.4801 1297.72 45.8805 L1324.3 45.84 Z" fill="#000000" fill-rule="nonzero" fill-opacity="1" /><path clip-path="url(#clip340)" d="M1343.98 9.54393 L1351.44 9.54393 L1351.44 72.576 L1343.98 72.576 L1343.98 9.54393 Z" fill="#000000" fill-rule="nonzero" fill-opacity="1" /><path clip-path="url(#clip340)" d="M1384.61 32.4315 Q1378.62 32.4315 1375.13 37.1306 Q1371.65 41.7891 1371.65 49.9314 Q1371.65 58.0738 1375.09 62.7728 Q1378.58 67.4314 1384.61 67.4314 Q1390.57 67.4314 1394.05 62.7323 Q1397.54 58.0333 1397.54 49.9314 Q1397.54 41.8701 1394.05 37.1711 Q1390.57 32.4315 1384.61 32.4315 M1384.61 26.1121 Q1394.34 26.1121 1399.89 32.4315 Q1405.44 38.7509 1405.44 49.9314 Q1405.44 61.0714 1399.89 67.4314 Q1394.34 73.7508 1384.61 73.7508 Q1374.85 73.7508 1369.3 67.4314 Q1363.79 61.0714 1363.79 49.9314 Q1363.79 38.7509 1369.3 32.4315 Q1374.85 26.1121 1384.61 26.1121 Z" fill="#000000" fill-rule="nonzero" fill-opacity="1" /><path clip-path="url(#clip340)" d="M1450.44 28.9478 L1450.44 35.9153 Q1447.28 34.1734 1444.08 33.3227 Q1440.92 32.4315 1437.68 32.4315 Q1430.43 32.4315 1426.42 37.0496 Q1422.41 41.6271 1422.41 49.9314 Q1422.41 58.2358 1426.42 62.8538 Q1430.43 67.4314 1437.68 67.4314 Q1440.92 67.4314 1444.08 66.5807 Q1447.28 65.6895 1450.44 63.9476 L1450.44 70.8341 Q1447.32 72.2924 1443.96 73.0216 Q1440.64 73.7508 1436.87 73.7508 Q1426.62 73.7508 1420.59 67.3098 Q1414.55 60.8689 1414.55 49.9314 Q1414.55 38.832 1420.63 32.472 Q1426.74 26.1121 1437.36 26.1121 Q1440.8 26.1121 1444.08 26.8413 Q1447.36 27.5299 1450.44 28.9478 Z" fill="#000000" fill-rule="nonzero" fill-opacity="1" /><path clip-path="url(#clip340)" d="M1463.4 27.2059 L1470.86 27.2059 L1470.86 72.576 L1463.4 72.576 L1463.4 27.2059 M1463.4 9.54393 L1470.86 9.54393 L1470.86 18.9825 L1463.4 18.9825 L1463.4 9.54393 Z" fill="#000000" fill-rule="nonzero" fill-opacity="1" /><path clip-path="url(#clip340)" d="M1493.83 14.324 L1493.83 27.2059 L1509.18 27.2059 L1509.18 32.9987 L1493.83 32.9987 L1493.83 57.6282 Q1493.83 63.1779 1495.32 64.7578 Q1496.86 66.3376 1501.52 66.3376 L1509.18 66.3376 L1509.18 72.576 L1501.52 72.576 Q1492.89 72.576 1489.61 69.3758 Q1486.33 66.1351 1486.33 57.6282 L1486.33 32.9987 L1480.86 32.9987 L1480.86 27.2059 L1486.33 27.2059 L1486.33 14.324 L1493.83 14.324 Z" fill="#000000" fill-rule="nonzero" fill-opacity="1" /><path clip-path="url(#clip340)" d="M1537.86 76.7889 Q1534.7 84.8907 1531.7 87.3618 Q1528.7 89.8329 1523.68 89.8329 L1517.73 89.8329 L1517.73 83.5945 L1522.1 83.5945 Q1525.18 83.5945 1526.88 82.1361 Q1528.58 80.6778 1530.65 75.2496 L1531.99 71.8468 L1513.63 27.2059 L1521.53 27.2059 L1535.71 62.6918 L1549.89 27.2059 L1557.79 27.2059 L1537.86 76.7889 Z" fill="#000000" fill-rule="nonzero" fill-opacity="1" /><path clip-path="url(#clip340)" d="M1615.07 49.7694 Q1606.04 49.7694 1602.55 51.8354 Q1599.07 53.9013 1599.07 58.8839 Q1599.07 62.8538 1601.66 65.2034 Q1604.29 67.5124 1608.79 67.5124 Q1614.99 67.5124 1618.72 63.1374 Q1622.48 58.7219 1622.48 51.4303 L1622.48 49.7694 L1615.07 49.7694 M1629.94 46.6907 L1629.94 72.576 L1622.48 72.576 L1622.48 65.6895 Q1619.93 69.8214 1616.12 71.8063 Q1612.31 73.7508 1606.81 73.7508 Q1599.84 73.7508 1595.71 69.8619 Q1591.61 65.9325 1591.61 59.3701 Q1591.61 51.7138 1596.72 47.825 Q1601.86 43.9361 1612.03 43.9361 L1622.48 43.9361 L1622.48 43.2069 Q1622.48 38.0623 1619.08 35.2672 Q1615.72 32.4315 1609.6 32.4315 Q1605.71 32.4315 1602.03 33.3632 Q1598.34 34.295 1594.94 36.1584 L1594.94 29.2718 Q1599.03 27.692 1602.88 26.9223 Q1606.72 26.1121 1610.37 26.1121 Q1620.21 26.1121 1625.08 31.2163 Q1629.94 36.3204 1629.94 46.6907 Z" fill="#000000" fill-rule="nonzero" fill-opacity="1" /><path clip-path="url(#clip340)" d="M1668.26 9.54393 L1668.26 15.7418 L1661.13 15.7418 Q1657.12 15.7418 1655.54 17.3622 Q1654 18.9825 1654 23.1955 L1654 27.2059 L1666.27 27.2059 L1666.27 32.9987 L1654 32.9987 L1654 72.576 L1646.5 72.576 L1646.5 32.9987 L1639.37 32.9987 L1639.37 27.2059 L1646.5 27.2059 L1646.5 24.0462 Q1646.5 16.471 1650.03 13.0277 Q1653.55 9.54393 1661.21 9.54393 L1668.26 9.54393 Z" fill="#000000" fill-rule="nonzero" fill-opacity="1" /><path clip-path="url(#clip340)" d="M1680.41 14.324 L1680.41 27.2059 L1695.76 27.2059 L1695.76 32.9987 L1680.41 32.9987 L1680.41 57.6282 Q1680.41 63.1779 1681.91 64.7578 Q1683.45 66.3376 1688.11 66.3376 L1695.76 66.3376 L1695.76 72.576 L1688.11 72.576 Q1679.48 72.576 1676.2 69.3758 Q1672.92 66.1351 1672.92 57.6282 L1672.92 32.9987 L1667.45 32.9987 L1667.45 27.2059 L1672.92 27.2059 L1672.92 14.324 L1680.41 14.324 Z" fill="#000000" fill-rule="nonzero" fill-opacity="1" /><path clip-path="url(#clip340)" d="M1744.37 48.0275 L1744.37 51.6733 L1710.1 51.6733 Q1710.59 59.3701 1714.72 63.421 Q1718.89 67.4314 1726.31 67.4314 Q1730.6 67.4314 1734.61 66.3781 Q1738.66 65.3249 1742.63 63.2184 L1742.63 70.267 Q1738.62 71.9684 1734.41 72.8596 Q1730.2 73.7508 1725.86 73.7508 Q1715.01 73.7508 1708.65 67.4314 Q1702.33 61.1119 1702.33 50.3365 Q1702.33 39.1965 1708.32 32.6746 Q1714.36 26.1121 1724.57 26.1121 Q1733.72 26.1121 1739.03 32.0264 Q1744.37 37.9003 1744.37 48.0275 M1736.92 45.84 Q1736.84 39.7232 1733.48 36.0774 Q1730.16 32.4315 1724.65 32.4315 Q1718.41 32.4315 1714.64 35.9558 Q1710.91 39.4801 1710.35 45.8805 L1736.92 45.84 Z" fill="#000000" fill-rule="nonzero" fill-opacity="1" /><path clip-path="url(#clip340)" d="M1782.9 34.1734 Q1781.64 33.4443 1780.14 33.1202 Q1778.69 32.7556 1776.9 32.7556 Q1770.58 32.7556 1767.18 36.8875 Q1763.82 40.9789 1763.82 48.6757 L1763.82 72.576 L1756.32 72.576 L1756.32 27.2059 L1763.82 27.2059 L1763.82 34.2544 Q1766.17 30.1225 1769.94 28.1376 Q1773.7 26.1121 1779.09 26.1121 Q1779.86 26.1121 1780.79 26.2337 Q1781.72 26.3147 1782.86 26.5172 L1782.9 34.1734 Z" fill="#000000" fill-rule="nonzero" fill-opacity="1" /><path clip-path="url(#clip340)" d="M1846.09 44.2197 Q1848.73 45.1109 1851.2 48.0275 Q1853.71 50.9442 1856.22 56.0483 L1864.52 72.576 L1855.73 72.576 L1848 57.061 Q1845 50.9847 1842.16 48.9997 Q1839.37 47.0148 1834.51 47.0148 L1825.59 47.0148 L1825.59 72.576 L1817.41 72.576 L1817.41 12.096 L1835.88 12.096 Q1846.25 12.096 1851.36 16.4305 Q1856.46 20.7649 1856.46 29.5149 Q1856.46 35.2267 1853.79 38.994 Q1851.16 42.7613 1846.09 44.2197 M1825.59 18.8205 L1825.59 40.2903 L1835.88 40.2903 Q1841.8 40.2903 1844.8 37.5762 Q1847.83 34.8216 1847.83 29.5149 Q1847.83 24.2082 1844.8 21.5346 Q1841.8 18.8205 1835.88 18.8205 L1825.59 18.8205 Z" fill="#000000" fill-rule="nonzero" fill-opacity="1" /><path clip-path="url(#clip340)" d="M1870.24 54.671 L1870.24 27.2059 L1877.69 27.2059 L1877.69 54.3874 Q1877.69 60.8284 1880.2 64.0691 Q1882.71 67.2693 1887.74 67.2693 Q1893.77 67.2693 1897.26 63.421 Q1900.78 59.5726 1900.78 52.9291 L1900.78 27.2059 L1908.23 27.2059 L1908.23 72.576 L1900.78 72.576 L1900.78 65.6084 Q1898.07 69.7404 1894.46 71.7658 Q1890.9 73.7508 1886.16 73.7508 Q1878.34 73.7508 1874.29 68.8897 Q1870.24 64.0286 1870.24 54.671 M1888.99 26.1121 L1888.99 26.1121 Z" fill="#000000" fill-rule="nonzero" fill-opacity="1" /><path clip-path="url(#clip340)" d="M1961.3 45.1919 L1961.3 72.576 L1953.85 72.576 L1953.85 45.4349 Q1953.85 38.994 1951.34 35.7938 Q1948.82 32.5936 1943.8 32.5936 Q1937.76 32.5936 1934.28 36.4419 Q1930.8 40.2903 1930.8 46.9338 L1930.8 72.576 L1923.3 72.576 L1923.3 27.2059 L1930.8 27.2059 L1930.8 34.2544 Q1933.47 30.163 1937.08 28.1376 Q1940.72 26.1121 1945.46 26.1121 Q1953.28 26.1121 1957.29 30.9732 Q1961.3 35.7938 1961.3 45.1919 Z" fill="#000000" fill-rule="nonzero" fill-opacity="1" /><path clip-path="url(#clip340)" d="M1978.07 62.2867 L1986.62 62.2867 L1986.62 72.576 L1978.07 72.576 L1978.07 62.2867 M1978.07 29.6769 L1986.62 29.6769 L1986.62 39.9662 L1978.07 39.9662 L1978.07 29.6769 Z" fill="#000000" fill-rule="nonzero" fill-opacity="1" /><path clip-path="url(#clip340)" d="M2038.59 65.6895 L2067.15 65.6895 L2067.15 72.576 L2028.75 72.576 L2028.75 65.6895 Q2033.41 60.8689 2041.43 52.7671 Q2049.49 44.6248 2051.55 42.2752 Q2055.48 37.8598 2057.02 34.8216 Q2058.6 31.7429 2058.6 28.7857 Q2058.6 23.9651 2055.2 20.927 Q2051.84 17.8888 2046.41 17.8888 Q2042.56 17.8888 2038.27 19.2256 Q2034.01 20.5624 2029.15 23.2765 L2029.15 15.0127 Q2034.09 13.0277 2038.39 12.015 Q2042.68 11.0023 2046.25 11.0023 Q2055.65 11.0023 2061.24 15.7013 Q2066.83 20.4004 2066.83 28.2591 Q2066.83 31.9859 2065.41 35.3482 Q2064.03 38.6699 2060.34 43.2069 Q2059.33 44.3817 2053.9 50.0125 Q2048.48 55.6027 2038.59 65.6895 Z" fill="#000000" fill-rule="nonzero" fill-opacity="1" /><polyline clip-path="url(#clip342)" style="stroke:#009af9; stroke-linecap:round; stroke-linejoin:round; stroke-width:8; stroke-opacity:1; fill:none" points="372.668,1352.44 377.474,1348.22 382.28,1343.4 387.087,1338.01 391.893,1332.04 396.699,1325.5 401.505,1318.4 406.311,1310.74 411.117,1302.54 415.923,1293.79 420.729,1284.52 425.535,1274.72 430.341,1264.41 435.147,1253.6 439.953,1242.29 444.759,1230.51 449.565,1218.26 454.371,1205.55 459.177,1192.4 463.983,1178.82 468.789,1164.82 473.595,1150.43 478.401,1135.64 483.207,1120.48 488.013,1104.96 492.819,1089.1 497.625,1072.92 502.431,1056.42 507.237,1039.63 512.044,1022.56 516.85,1005.23 521.656,987.664 526.462,969.869 531.268,951.866 536.074,933.674 540.88,915.311 545.686,896.795 550.492,878.144 555.298,859.378 560.104,840.516 564.91,821.575 569.716,802.575 574.522,783.535 579.328,764.475 584.134,745.412 588.94,726.366 593.746,707.357 598.552,688.402 603.358,669.522 608.164,650.735 612.97,632.059 617.776,613.514 622.582,595.118 627.388,576.889 632.194,558.846 637,541.007 641.807,523.389 646.613,506.01 651.419,488.888 656.225,472.039 661.031,455.481 665.837,439.23 670.643,423.302 675.449,407.713 680.255,392.479 685.061,377.615 689.867,363.136 694.673,349.057 699.479,335.39 704.285,322.151 709.091,309.352 713.897,297.006 718.703,285.126 723.509,273.723 728.315,262.809 733.121,252.395 737.927,242.49 742.733,233.106 747.539,224.251 752.345,215.934 757.151,208.164 761.957,200.948 766.763,194.293 771.57,188.207 776.376,182.695 781.182,177.763 785.988,173.415 790.794,169.657 795.6,166.491 800.406,163.921 805.212,161.95 810.018,160.58 814.824,159.811 819.63,159.645 824.436,160.082 829.242,161.121 834.048,162.761 838.854,165.002 843.66,167.839 848.466,171.272 853.272,175.295 858.078,179.906 862.884,185.099 867.69,190.87 872.496,197.212 877.302,204.12 882.108,211.585 886.914,219.602 891.72,228.162 896.527,237.256 901.333,246.875 906.139,257.01 910.945,267.65 915.751,278.785 920.557,290.404 925.363,302.495 930.169,315.045 934.975,328.044 939.781,341.476 944.587,355.33 949.393,369.591 954.199,384.245 959.005,399.277 963.811,414.672 968.617,430.415 973.423,446.49 978.229,462.881 983.035,479.572 987.841,496.546 992.647,513.785 997.453,531.274 1002.26,548.993 1007.07,566.926 1011.87,585.055 1016.68,603.361 1021.48,621.826 1026.29,640.432 1031.1,659.16 1035.9,677.991 1040.71,696.907 1045.51,715.889 1050.32,734.917 1055.13,753.973 1059.93,773.037 1064.74,792.091 1069.54,811.115 1074.35,830.09 1079.16,848.998 1083.96,867.82 1088.77,886.536 1093.57,905.129 1098.38,923.578 1103.19,941.867 1107.99,959.976 1112.8,977.888 1117.6,995.584 1122.41,1013.05 1127.22,1030.26 1132.02,1047.21 1136.83,1063.87 1141.63,1080.23 1146.44,1096.27 1151.25,1111.98 1156.05,1127.33 1160.86,1142.33 1165.66,1156.94 1170.47,1171.16 1175.28,1184.97 1180.08,1198.36 1184.89,1211.31 1189.69,1223.82 1194.5,1235.86 1199.31,1247.43 1204.11,1258.51 1208.92,1269.1 1213.72,1279.18 1218.53,1288.75 1223.34,1297.79 1228.14,1306.29 1232.95,1314.25 1237.76,1321.66 1242.56,1328.51 1247.37,1334.79 1252.17,1340.51 1256.98,1345.64 1261.79,1350.19 1266.59,1354.15 1271.4,1357.52 1276.2,1360.3 1281.01,1362.48 1285.82,1364.06 1290.62,1365.03 1295.43,1365.41 1300.23,1365.18 1305.04,1364.35 1309.85,1362.92 1314.65,1360.88 1319.46,1358.25 1324.26,1355.02 1329.07,1351.2 1333.88,1346.8 1338.68,1341.8 1343.49,1336.23 1348.29,1330.09 1353.1,1323.37 1357.91,1316.1 1362.71,1308.27 1367.52,1299.9 1372.32,1290.99 1377.13,1281.55 1381.94,1271.59 1386.74,1261.13 1391.55,1250.16 1396.35,1238.71 1401.16,1226.78 1405.97,1214.39 1410.77,1201.54 1415.58,1188.26 1420.38,1174.55 1425.19,1160.43 1430,1145.91 1434.8,1131.01 1439.61,1115.73 1444.41,1100.11 1449.22,1084.15 1454.03,1067.86 1458.83,1051.28 1463.64,1034.4 1468.44,1017.25 1473.25,999.844 1478.06,982.202 1482.86,964.341 1487.67,946.278 1492.48,928.031 1497.28,909.619 1502.09,891.059 1506.89,872.371 1511.7,853.574 1516.51,834.685 1521.31,815.724 1526.12,796.71 1530.92,777.661 1535.73,758.598 1540.54,739.538 1545.34,720.502 1550.15,701.507 1554.95,682.574 1559.76,663.72 1564.57,644.965 1569.37,626.328 1574.18,607.827 1578.98,589.481 1583.79,571.307 1588.6,553.325 1593.4,535.552 1598.21,518.006 1603.01,500.705 1607.82,483.665 1612.63,466.904 1617.43,450.439 1622.24,434.285 1627.04,418.46 1631.85,402.979 1636.66,387.858 1641.46,373.111 1646.27,358.753 1651.07,344.799 1655.88,331.263 1660.69,318.158 1665.49,305.498 1670.3,293.294 1675.1,281.56 1679.91,270.307 1684.72,259.545 1689.52,249.287 1694.33,239.542 1699.13,230.32 1703.94,221.629 1708.75,213.48 1713.55,205.88 1718.36,198.836 1723.16,192.356 1727.97,186.446 1732.78,181.113 1737.58,176.36 1742.39,172.194 1747.2,168.618 1752,165.635 1756.81,163.25 1761.61,161.464 1766.42,160.279 1771.23,159.696 1776.03,159.715 1780.84,160.338 1785.64,161.563 1790.45,163.388 1795.26,165.813 1800.06,168.834 1804.87,172.449 1809.67,176.654 1814.48,181.445 1819.29,186.817 1824.09,192.764 1828.9,199.281 1833.7,206.362 1838.51,213.998 1843.32,222.183 1848.12,230.908 1852.93,240.165 1857.73,249.944 1862.54,260.236 1867.35,271.03 1872.15,282.315 1876.96,294.081 1881.76,306.315 1886.57,319.005 1891.38,332.138 1896.18,345.702 1900.99,359.683 1905.79,374.067 1910.6,388.838 1915.41,403.984 1920.21,419.488 1925.02,435.335 1929.82,451.51 1934.63,467.995 1939.44,484.774 1944.24,501.832 1949.05,519.15 1953.85,536.712 1958.66,554.499 1963.47,572.494 1968.27,590.679 1973.08,609.036 1977.88,627.547 1982.69,646.193 1987.5,664.954 1992.3,683.814 1997.11,702.752 2001.92,721.75 2006.72,740.789 2011.53,759.849 2016.33,778.912 2021.14,797.959 2025.95,816.97 2030.75,835.927 2035.56,854.81 2040.36,873.601 2045.17,892.281 2049.98,910.831 2054.78,929.233 2059.59,947.469 2064.39,965.519 2069.2,983.366 2074.01,1000.99 2078.81,1018.38 2083.62,1035.51 2088.42,1052.37 2093.23,1068.94 2098.04,1085.21 2102.84,1101.15 2107.65,1116.75 2112.45,1131.99 2117.26,1146.87 2122.07,1161.37 2126.87,1175.46 2131.68,1189.14 2136.48,1202.4 2141.29,1215.22 2146.1,1227.58 2150.9,1239.48 2155.71,1250.9 2160.51,1261.83 2165.32,1272.26 2170.13,1282.19 2174.93,1291.59 2179.74,1300.47 2184.54,1308.8 2189.35,1316.6 2194.16,1323.83 2198.96,1330.51 2203.77,1336.62 2208.57,1342.15 2213.38,1347.1 2218.19,1351.47 2222.99,1355.25 2227.8,1358.44 2232.6,1361.03 2237.41,1363.03 2242.22,1364.42 2247.02,1365.21 2251.83,1365.4 2256.64,1364.99 2261.44,1363.97 2266.25,1362.35 2271.05,1360.13 2275.86,1357.32 2280.67,1353.91 2285.47,1349.91 2290.28,1345.32 2295.08,1340.15 "/>
<polyline clip-path="url(#clip342)" style="stroke:#e26f46; stroke-linecap:round; stroke-linejoin:round; stroke-width:8; stroke-opacity:1; fill:none" points="372.668,1352.44 377.474,1350.77 382.28,1348.51 387.087,1345.67 391.893,1342.24 396.699,1338.23 401.505,1333.65 406.311,1328.5 411.117,1322.77 415.923,1316.49 420.729,1309.66 425.535,1302.27 430.341,1294.35 435.147,1285.89 439.953,1276.9 444.759,1267.4 449.565,1257.4 454.371,1246.89 459.177,1235.9 463.983,1224.43 468.789,1212.49 473.595,1200.09 478.401,1187.25 483.207,1173.98 488.013,1160.29 492.819,1146.18 497.625,1131.68 502.431,1116.8 507.237,1101.54 512.044,1085.93 516.85,1069.97 521.656,1053.67 526.462,1037.06 531.268,1020.13 536.074,1002.92 540.88,985.417 545.686,967.646 550.492,949.616 555.298,931.337 560.104,912.821 564.91,894.077 569.716,875.114 574.522,855.941 579.328,836.564 584.134,816.988 588.94,797.219 593.746,777.258 598.552,758.726 603.358,744.333 608.164,729.834 612.97,715.251 617.776,700.608 622.582,685.927 627.388,671.231 632.194,656.541 637,641.878 641.807,627.264 646.613,612.72 651.419,598.264 656.225,583.918 661.031,569.7 665.837,555.628 670.643,541.722 675.449,527.998 680.255,514.474 685.061,501.167 689.867,488.092 694.673,475.267 699.479,462.706 704.285,450.423 709.091,438.434 713.897,426.752 718.703,415.391 723.509,404.363 728.315,393.682 733.121,383.358 737.927,373.403 742.733,363.829 747.539,354.647 752.345,345.865 757.151,337.493 761.957,329.542 766.763,322.018 771.57,314.931 776.376,308.288 781.182,302.096 785.988,296.362 790.794,291.091 795.6,286.29 800.406,281.963 805.212,278.115 810.018,274.75 814.824,271.872 819.63,269.483 824.436,267.587 829.242,266.185 834.048,265.279 838.854,264.871 843.66,264.959 848.466,265.546 853.272,266.629 858.078,268.209 862.884,270.284 867.69,272.851 872.496,275.91 877.302,279.455 882.108,283.486 886.914,287.997 891.72,292.984 896.527,298.443 901.333,304.368 906.139,310.755 910.945,317.596 915.751,324.886 920.557,332.619 925.363,340.786 930.169,349.38 934.975,358.394 939.781,367.819 944.587,377.647 949.393,387.869 954.199,398.476 959.005,409.458 963.811,420.807 968.617,432.512 973.423,444.563 978.229,456.95 983.035,469.662 987.841,482.691 992.647,496.024 997.453,509.652 1002.26,523.564 1007.07,537.749 1011.87,552.198 1016.68,566.9 1021.48,581.845 1026.29,597.023 1031.1,612.425 1035.9,628.041 1040.71,643.864 1045.51,659.884 1050.32,676.095 1055.13,692.489 1059.93,709.061 1064.74,725.804 1069.54,742.716 1074.35,759.792 1079.16,772.038 1083.96,783.451 1088.77,794.941 1093.57,806.49 1098.38,818.082 1103.19,829.7 1107.99,841.327 1112.8,852.948 1117.6,864.546 1122.41,876.105 1127.22,887.61 1132.02,899.044 1136.83,910.393 1141.63,921.642 1146.44,932.776 1151.25,943.781 1156.05,954.643 1160.86,965.348 1165.66,975.882 1170.47,986.234 1175.28,996.389 1180.08,1006.34 1184.89,1016.06 1189.69,1025.56 1194.5,1034.81 1199.31,1043.81 1204.11,1052.54 1208.92,1061 1213.72,1069.18 1218.53,1077.06 1223.34,1084.63 1228.14,1091.9 1232.95,1098.85 1237.76,1105.47 1242.56,1111.75 1247.37,1117.69 1252.17,1123.29 1256.98,1128.53 1261.79,1133.41 1266.59,1137.92 1271.4,1142.06 1276.2,1145.83 1281.01,1149.21 1285.82,1152.22 1290.62,1154.83 1295.43,1157.06 1300.23,1158.89 1305.04,1160.33 1309.85,1161.37 1314.65,1162.01 1319.46,1162.25 1324.26,1162.09 1329.07,1161.54 1333.88,1160.58 1338.68,1159.23 1343.49,1157.47 1348.29,1155.32 1353.1,1152.78 1357.91,1149.84 1362.71,1146.52 1367.52,1142.8 1372.32,1138.7 1377.13,1134.23 1381.94,1129.37 1386.74,1124.14 1391.55,1118.55 1396.35,1112.59 1401.16,1106.28 1405.97,1099.61 1410.77,1092.6 1415.58,1085.25 1420.38,1077.56 1425.19,1069.55 1430,1061.22 1434.8,1052.57 1439.61,1043.62 1444.41,1034.37 1449.22,1024.83 1454.03,1015.01 1458.83,1004.91 1463.64,994.543 1468.44,983.918 1473.25,973.043 1478.06,961.924 1482.86,950.572 1487.67,938.993 1492.48,927.195 1497.28,915.188 1502.09,902.978 1506.89,890.573 1511.7,877.982 1516.51,865.211 1521.31,852.267 1526.12,839.157 1530.92,825.888 1535.73,812.466 1540.54,798.896 1545.34,785.182 1550.15,771.33 1554.95,759.524 1559.76,751.357 1564.57,743.127 1569.37,734.845 1574.18,726.524 1578.98,718.173 1583.79,709.804 1588.6,701.428 1593.4,693.056 1598.21,684.698 1603.01,676.367 1607.82,668.072 1612.63,659.825 1617.43,651.635 1622.24,643.514 1627.04,635.472 1631.85,627.519 1636.66,619.665 1641.46,611.921 1646.27,604.295 1651.07,596.797 1655.88,589.436 1660.69,582.222 1665.49,575.163 1670.3,568.269 1675.1,561.546 1679.91,555.004 1684.72,548.65 1689.52,542.492 1694.33,536.538 1699.13,530.793 1703.94,525.266 1708.75,519.963 1713.55,514.889 1718.36,510.052 1723.16,505.456 1727.97,501.108 1732.78,497.012 1737.58,493.173 1742.39,489.595 1747.2,486.284 1752,483.243 1756.81,480.476 1761.61,477.985 1766.42,475.775 1771.23,473.848 1776.03,472.206 1780.84,470.851 1785.64,469.787 1790.45,469.013 1795.26,468.531 1800.06,468.344 1804.87,468.45 1809.67,468.85 1814.48,469.546 1819.29,470.535 1824.09,471.819 1828.9,473.396 1833.7,475.265 1838.51,477.425 1843.32,479.874 1848.12,482.611 1852.93,485.633 1857.73,488.938 1862.54,492.524 1867.35,496.387 1872.15,500.525 1876.96,504.933 1881.76,509.61 1886.57,514.55 1891.38,519.749 1896.18,525.205 1900.99,530.911 1905.79,536.865 1910.6,543.06 1915.41,549.492 1920.21,556.156 1925.02,563.047 1929.82,570.159 1934.63,577.487 1939.44,585.025 1944.24,592.768 1949.05,600.71 1953.85,608.845 1958.66,617.167 1963.47,625.671 1968.27,634.35 1973.08,643.198 1977.88,652.21 1982.69,661.379 1987.5,670.701 1992.3,680.168 1997.11,689.776 2001.92,699.518 2006.72,709.39 2011.53,719.386 2016.33,729.501 2021.14,739.729 2025.95,750.067 2030.75,760.51 2035.56,766.265 2040.36,770.931 2045.17,775.631 2049.98,780.36 2054.78,785.112 2059.59,789.882 2064.39,794.663 2069.2,799.451 2074.01,804.238 2078.81,809.021 2083.62,813.792 2088.42,818.546 2093.23,823.278 2098.04,827.981 2102.84,832.65 2107.65,837.279 2112.45,841.862 2117.26,846.395 2122.07,850.87 2126.87,855.283 2131.68,859.629 2136.48,863.902 2141.29,868.097 2146.1,872.208 2150.9,876.231 2155.71,880.16 2160.51,883.991 2165.32,887.719 2170.13,891.34 2174.93,894.849 2179.74,898.241 2184.54,901.512 2189.35,904.659 2194.16,907.677 2198.96,910.562 2203.77,913.312 2208.57,915.921 2213.38,918.388 2218.19,920.708 2222.99,922.88 2227.8,924.899 2232.6,926.763 2237.41,928.47 2242.22,930.017 2247.02,931.402 2251.83,932.623 2256.64,933.678 2261.44,934.566 2266.25,935.285 2271.05,935.833 2275.86,936.209 2280.67,936.413 2285.47,936.444 2290.28,936.3 2295.08,935.982 "/>
<polyline clip-path="url(#clip342)" style="stroke:#008000; stroke-linecap:round; stroke-linejoin:round; stroke-width:8; stroke-opacity:1; fill:none" stroke-dasharray="4, 8" points="372.668,1352.44 377.474,1350.78 382.28,1348.73 387.087,1346.31 391.893,1343.52 396.699,1340.37 401.505,1336.86 406.311,1332.99 411.117,1328.76 415.923,1324.19 420.729,1319.27 425.535,1314.01 430.341,1308.4 435.147,1302.46 439.953,1296.19 444.759,1289.58 449.565,1282.64 454.371,1275.38 459.177,1267.79 463.983,1259.88 468.789,1251.66 473.595,1243.12 478.401,1234.28 483.207,1225.12 488.013,1215.67 492.819,1205.92 497.625,1195.87 502.431,1185.54 507.237,1174.93 512.044,1164.04 516.85,1152.87 521.656,1141.44 526.462,1129.75 531.268,1117.8 536.074,1105.6 540.88,1093.16 545.686,1080.48 550.492,1067.57 555.298,1054.43 560.104,1041.08 564.91,1027.51 569.716,1013.73 574.522,999.76 579.328,985.593 584.134,971.237 588.94,956.701 593.746,941.99 598.552,927.111 603.358,912.071 608.164,896.876 612.97,881.534 617.776,866.051 622.582,850.434 627.388,834.69 632.194,818.827 637,802.852 641.807,786.771 646.613,770.594 651.419,754.326 656.225,737.977 661.031,721.555 665.837,705.069 670.643,688.53 675.449,671.949 680.255,655.338 685.061,638.708 689.867,622.075 694.673,605.451 699.479,588.852 704.285,572.293 709.091,555.791 713.897,539.363 718.703,523.027 723.509,506.801 728.315,490.706 733.121,474.761 737.927,458.988 742.733,443.409 747.539,428.045 752.345,412.921 757.151,398.054 761.957,383.408 766.763,369.056 771.57,355.095 776.376,341.613 781.182,328.684 785.988,316.374 790.794,304.735 795.6,293.809 800.406,283.625 805.212,274.204 810.018,265.551 814.824,257.664 819.63,250.526 824.436,244.112 829.242,238.384 834.048,233.292 838.854,228.777 843.66,224.843 848.466,221.505 853.272,218.76 858.078,216.603 862.884,215.03 867.69,214.036 872.496,213.616 877.302,213.765 882.108,214.476 886.914,215.745 891.72,217.565 896.527,219.93 901.333,222.832 906.139,226.265 910.945,230.221 915.751,234.693 920.557,239.673 925.363,245.152 930.169,251.124 934.975,257.576 939.781,264.493 944.587,271.862 949.393,279.669 954.199,287.899 959.005,296.54 963.811,305.578 968.617,314.999 973.423,324.791 978.229,334.94 983.035,345.433 987.841,356.258 992.647,367.402 997.453,378.852 1002.26,390.596 1007.07,402.622 1011.87,414.918 1016.68,427.471 1021.48,440.27 1026.29,453.303 1031.1,466.559 1035.9,480.026 1040.71,493.693 1045.51,507.549 1050.32,521.583 1055.13,535.783 1059.93,550.123 1064.74,564.547 1069.54,579.061 1074.35,593.672 1079.16,608.386 1083.96,623.206 1088.77,638.13 1093.57,653.156 1098.38,668.276 1103.19,683.482 1107.99,698.762 1112.8,714.1 1117.6,729.479 1122.41,744.878 1127.22,760.272 1132.02,775.636 1136.83,790.94 1141.63,806.152 1146.44,821.236 1151.25,836.153 1156.05,850.864 1160.86,865.324 1165.66,879.486 1170.47,893.301 1175.28,906.715 1180.08,919.674 1184.89,932.146 1189.69,944.255 1194.5,956.04 1199.31,967.514 1204.11,978.688 1208.92,989.573 1213.72,1000.18 1218.53,1010.51 1223.34,1020.57 1228.14,1030.36 1232.95,1039.89 1237.76,1049.16 1242.56,1058.16 1247.37,1066.89 1252.17,1075.35 1256.98,1083.54 1261.79,1091.43 1266.59,1099.03 1271.4,1106.31 1276.2,1113.28 1281.01,1119.92 1285.82,1126.22 1290.62,1132.19 1295.43,1137.81 1300.23,1143.09 1305.04,1148.01 1309.85,1152.57 1314.65,1156.77 1319.46,1160.61 1324.26,1164.08 1329.07,1167.18 1333.88,1169.91 1338.68,1172.26 1343.49,1174.24 1348.29,1175.84 1353.1,1177.07 1357.91,1177.92 1362.71,1178.4 1367.52,1178.5 1372.32,1178.24 1377.13,1177.6 1381.94,1176.59 1386.74,1175.22 1391.55,1173.49 1396.35,1171.4 1401.16,1168.96 1405.97,1166.17 1410.77,1163.04 1415.58,1159.57 1420.38,1155.77 1425.19,1151.64 1430,1147.19 1434.8,1142.43 1439.61,1137.35 1444.41,1131.95 1449.22,1126.25 1454.03,1120.23 1458.83,1113.91 1463.64,1107.29 1468.44,1100.37 1473.25,1093.17 1478.06,1085.67 1482.86,1077.9 1487.67,1069.85 1492.48,1061.52 1497.28,1052.93 1502.09,1044.08 1506.89,1034.98 1511.7,1025.63 1516.51,1016.03 1521.31,1006.19 1526.12,996.126 1530.92,985.835 1535.73,975.326 1540.54,964.606 1545.34,953.681 1550.15,942.557 1554.95,931.242 1559.76,919.742 1564.57,908.063 1569.37,896.215 1574.18,884.205 1578.98,872.04 1583.79,859.731 1588.6,847.285 1593.4,834.712 1598.21,822.022 1603.01,809.225 1607.82,796.331 1612.63,783.351 1617.43,770.296 1622.24,757.177 1627.04,744.005 1631.85,730.794 1636.66,717.555 1641.46,704.301 1646.27,691.046 1651.07,677.802 1655.88,664.583 1660.69,651.404 1665.49,638.279 1670.3,625.223 1675.1,612.25 1679.91,599.377 1684.72,586.622 1689.52,574.009 1694.33,561.56 1699.13,549.301 1703.94,537.255 1708.75,525.449 1713.55,513.908 1718.36,502.66 1723.16,491.73 1727.97,481.148 1732.78,470.941 1737.58,461.14 1742.39,451.774 1747.2,442.874 1752,434.471 1756.81,426.596 1761.61,419.283 1766.42,412.564 1771.23,406.474 1776.03,401.046 1780.84,396.315 1785.64,392.244 1790.45,388.786 1795.26,385.923 1800.06,383.636 1804.87,381.907 1809.67,380.719 1814.48,380.056 1819.29,379.902 1824.09,380.241 1828.9,381.059 1833.7,382.342 1838.51,384.077 1843.32,386.25 1848.12,388.849 1852.93,391.862 1857.73,395.279 1862.54,399.089 1867.35,403.282 1872.15,407.848 1876.96,412.78 1881.76,418.069 1886.57,423.707 1891.38,429.689 1896.18,436.007 1900.99,442.654 1905.79,449.618 1910.6,456.886 1915.41,464.444 1920.21,472.28 1925.02,480.381 1929.82,488.733 1934.63,497.325 1939.44,506.142 1944.24,515.172 1949.05,524.402 1953.85,533.82 1958.66,543.413 1963.47,553.168 1968.27,563.072 1973.08,573.113 1977.88,583.279 1982.69,593.556 1987.5,603.933 1992.3,614.397 1997.11,624.935 2001.92,635.536 2006.72,646.187 2011.53,656.875 2016.33,667.588 2021.14,678.31 2025.95,689.017 2030.75,699.684 2035.56,710.291 2040.36,720.819 2045.17,731.249 2049.98,741.565 2054.78,751.754 2059.59,761.802 2064.39,771.699 2069.2,781.435 2074.01,791.005 2078.81,800.401 2083.62,809.621 2088.42,818.663 2093.23,827.526 2098.04,836.212 2102.84,844.725 2107.65,853.069 2112.45,861.252 2117.26,869.282 2122.07,877.163 2126.87,884.881 2131.68,892.433 2136.48,899.817 2141.29,907.031 2146.1,914.073 2150.9,920.94 2155.71,927.629 2160.51,934.137 2165.32,940.461 2170.13,946.596 2174.93,952.539 2179.74,958.285 2184.54,963.831 2189.35,969.171 2194.16,974.301 2198.96,979.215 2203.77,983.907 2208.57,988.373 2213.38,992.605 2218.19,996.599 2222.99,1000.35 2227.8,1003.84 2232.6,1007.09 2237.41,1010.08 2242.22,1012.81 2247.02,1015.27 2251.83,1017.48 2256.64,1019.41 2261.44,1021.08 2266.25,1022.47 2271.05,1023.59 2275.86,1024.43 2280.67,1025 2285.47,1025.29 2290.28,1025.31 2295.08,1025.05 "/>
<polyline clip-path="url(#clip342)" style="stroke:#008000; stroke-linecap:round; stroke-linejoin:round; stroke-width:8; stroke-opacity:1; fill:none" points="372.668,1352.44 377.474,1349.46 382.28,1346 387.087,1342.06 391.893,1337.65 396.699,1332.79 401.505,1327.47 406.311,1321.71 411.117,1315.51 415.923,1308.88 420.729,1301.84 425.535,1294.38 430.341,1286.52 435.147,1278.26 439.953,1269.62 444.759,1260.6 449.565,1251.21 454.371,1241.46 459.177,1231.36 463.983,1220.91 468.789,1210.14 473.595,1199.04 478.401,1187.63 483.207,1175.91 488.013,1163.9 492.819,1151.61 497.625,1139.04 502.431,1126.21 507.237,1113.13 512.044,1099.8 516.85,1086.24 521.656,1072.46 526.462,1058.46 531.268,1044.26 536.074,1029.86 540.88,1015.28 545.686,1000.53 550.492,985.619 555.298,970.552 560.104,955.343 564.91,940.001 569.716,924.536 574.522,908.959 579.328,893.279 584.134,877.506 588.94,861.652 593.746,845.726 598.552,829.739 603.358,813.701 608.164,797.624 612.97,781.518 617.776,765.394 622.582,749.262 627.388,733.135 632.194,717.022 637,700.935 641.807,684.886 646.613,668.883 651.419,652.922 656.225,637.014 661.031,621.179 665.837,605.436 670.643,589.804 675.449,574.306 680.255,558.962 685.061,543.793 689.867,528.824 694.673,514.078 699.479,499.578 704.285,485.349 709.091,471.418 713.897,457.811 718.703,444.554 723.509,431.675 728.315,419.203 733.121,407.168 737.927,395.608 742.733,384.651 747.539,374.284 752.345,364.456 757.151,355.122 761.957,346.243 766.763,337.789 771.57,329.736 776.376,322.065 781.182,314.766 785.988,307.833 790.794,301.27 795.6,295.084 800.406,289.29 805.212,283.889 810.018,278.899 814.824,274.335 819.63,270.213 824.436,266.548 829.242,263.353 834.048,260.641 838.854,258.422 843.66,256.708 848.466,255.506 853.272,254.825 858.078,254.672 862.884,255.053 867.69,255.972 872.496,257.433 877.302,259.439 882.108,261.99 886.914,265.088 891.72,268.732 896.527,272.92 901.333,277.648 906.139,282.907 910.945,288.69 915.751,294.987 920.557,301.789 925.363,309.086 930.169,316.867 934.975,325.122 939.781,333.837 944.587,343.001 949.393,352.601 954.199,362.623 959.005,373.053 963.811,383.875 968.617,395.075 973.423,406.637 978.229,418.543 983.035,430.777 987.841,443.32 992.647,456.159 997.453,469.283 1002.26,482.676 1007.07,496.322 1011.87,510.204 1016.68,524.305 1021.48,538.608 1026.29,553.096 1031.1,567.751 1035.9,582.557 1040.71,597.495 1045.51,612.549 1050.32,627.7 1055.13,642.931 1059.93,658.225 1064.74,673.563 1069.54,688.927 1074.35,704.3 1079.16,719.663 1083.96,734.998 1088.77,750.286 1093.57,765.51 1098.38,780.663 1103.19,795.712 1107.99,810.593 1112.8,825.253 1117.6,839.644 1122.41,853.729 1127.22,867.476 1132.02,880.862 1136.83,893.874 1141.63,906.505 1146.44,918.755 1151.25,930.635 1156.05,942.161 1160.86,953.36 1165.66,964.264 1170.47,974.916 1175.28,985.364 1180.08,995.666 1184.89,1005.89 1189.69,1016.01 1194.5,1025.91 1199.31,1035.57 1204.11,1044.99 1208.92,1054.15 1213.72,1063.04 1218.53,1071.64 1223.34,1079.95 1228.14,1087.94 1232.95,1095.62 1237.76,1102.97 1242.56,1109.98 1247.37,1116.64 1252.17,1122.93 1256.98,1128.86 1261.79,1134.39 1266.59,1139.54 1271.4,1144.28 1276.2,1148.62 1281.01,1152.55 1285.82,1156.06 1290.62,1159.16 1295.43,1161.83 1300.23,1164.08 1305.04,1165.91 1309.85,1167.31 1314.65,1168.28 1319.46,1168.83 1324.26,1168.96 1329.07,1168.66 1333.88,1167.94 1338.68,1166.81 1343.49,1165.25 1348.29,1163.29 1353.1,1160.92 1357.91,1158.16 1362.71,1154.99 1367.52,1151.44 1372.32,1147.5 1377.13,1143.19 1381.94,1138.52 1386.74,1133.48 1391.55,1128.1 1396.35,1122.37 1401.16,1116.29 1405.97,1109.89 1410.77,1103.15 1415.58,1096.11 1420.38,1088.75 1425.19,1081.09 1430,1073.14 1434.8,1064.9 1439.61,1056.39 1444.41,1047.62 1449.22,1038.59 1454.03,1029.3 1458.83,1019.78 1463.64,1010.04 1468.44,1000.07 1473.25,989.889 1478.06,979.512 1482.86,968.945 1487.67,958.199 1492.48,947.285 1497.28,936.21 1502.09,924.985 1506.89,913.619 1511.7,902.122 1516.51,890.507 1521.31,878.782 1526.12,866.961 1530.92,855.053 1535.73,843.071 1540.54,831.026 1545.34,818.93 1550.15,806.795 1554.95,794.633 1559.76,782.456 1564.57,770.278 1569.37,758.11 1574.18,745.965 1578.98,733.858 1583.79,721.8 1588.6,709.805 1593.4,697.887 1598.21,686.06 1603.01,674.337 1607.82,662.733 1612.63,651.262 1617.43,639.938 1622.24,628.776 1627.04,617.79 1631.85,606.991 1636.66,596.366 1641.46,585.956 1646.27,575.81 1651.07,565.971 1655.88,556.476 1660.69,547.357 1665.49,538.641 1670.3,530.35 1675.1,522.5 1679.91,515.104 1684.72,508.168 1689.52,501.692 1694.33,495.672 1699.13,490.099 1703.94,484.959 1708.75,480.232 1713.55,475.892 1718.36,471.911 1723.16,468.251 1727.97,464.874 1732.78,461.764 1737.58,458.945 1742.39,456.415 1747.2,454.172 1752,452.214 1756.81,450.54 1761.61,449.147 1766.42,448.036 1771.23,447.205 1776.03,446.653 1780.84,446.381 1785.64,446.387 1790.45,446.673 1795.26,447.238 1800.06,448.083 1804.87,449.209 1809.67,450.617 1814.48,452.308 1819.29,454.284 1824.09,456.546 1828.9,459.095 1833.7,461.927 1838.51,465.037 1843.32,468.42 1848.12,472.072 1852.93,475.986 1857.73,480.158 1862.54,484.581 1867.35,489.249 1872.15,494.156 1876.96,499.295 1881.76,504.659 1886.57,510.24 1891.38,516.032 1896.18,522.025 1900.99,528.213 1905.79,534.586 1910.6,541.136 1915.41,547.854 1920.21,554.731 1925.02,561.757 1929.82,568.922 1934.63,576.216 1939.44,583.629 1944.24,591.15 1949.05,598.763 1953.85,606.452 1958.66,614.202 1963.47,621.999 1968.27,629.827 1973.08,637.673 1977.88,645.523 1982.69,653.364 1987.5,661.185 1992.3,668.973 1997.11,676.717 2001.92,684.406 2006.72,692.029 2011.53,699.578 2016.33,707.042 2021.14,714.412 2025.95,721.682 2030.75,728.841 2035.56,735.885 2040.36,742.805 2045.17,749.595 2049.98,756.257 2054.78,762.812 2059.59,769.271 2064.39,775.64 2069.2,781.928 2074.01,788.139 2078.81,794.281 2083.62,800.358 2088.42,806.374 2093.23,812.334 2098.04,818.24 2102.84,824.094 2107.65,829.899 2112.45,835.654 2117.26,841.361 2122.07,847.018 2126.87,852.625 2131.68,858.18 2136.48,863.681 2141.29,869.123 2146.1,874.504 2150.9,879.819 2155.71,885.061 2160.51,890.223 2165.32,895.298 2170.13,900.28 2174.93,905.161 2179.74,909.937 2184.54,914.6 2189.35,919.144 2194.16,923.562 2198.96,927.849 2203.77,931.999 2208.57,936.005 2213.38,939.862 2218.19,943.563 2222.99,947.103 2227.8,950.476 2232.6,953.676 2237.41,956.697 2242.22,959.534 2247.02,962.182 2251.83,964.634 2256.64,966.889 2261.44,968.943 2266.25,970.792 2271.05,972.432 2275.86,973.862 2280.67,975.079 2285.47,976.08 2290.28,976.864 2295.08,977.429 "/>
<path clip-path="url(#clip340)" d="M1446.2 554.876 L2284.83 554.876 L2284.83 166.076 L1446.2 166.076  Z" fill="#ffffff" fill-rule="evenodd" fill-opacity="1"/>
<polyline clip-path="url(#clip340)" style="stroke:#000000; stroke-linecap:round; stroke-linejoin:round; stroke-width:4; stroke-opacity:1; fill:none" points="1446.2,554.876 2284.83,554.876 2284.83,166.076 1446.2,166.076 1446.2,554.876 "/>
<polyline clip-path="url(#clip340)" style="stroke:#009af9; stroke-linecap:round; stroke-linejoin:round; stroke-width:12; stroke-opacity:1; fill:none" points="1468.84,243.836 1604.69,243.836 "/>
<path clip-path="url(#clip340)" d="M1660.7 219.617 L1660.7 226.457 Q1656.71 224.548 1653.16 223.61 Q1649.62 222.673 1646.32 222.673 Q1640.59 222.673 1637.47 224.895 Q1634.38 227.117 1634.38 231.214 Q1634.38 234.652 1636.43 236.423 Q1638.51 238.159 1644.28 239.235 L1648.51 240.103 Q1656.36 241.596 1660.07 245.381 Q1663.82 249.131 1663.82 255.45 Q1663.82 262.985 1658.75 266.874 Q1653.72 270.763 1643.96 270.763 Q1640.28 270.763 1636.12 269.929 Q1631.98 269.096 1627.54 267.464 L1627.54 260.242 Q1631.81 262.638 1635.91 263.853 Q1640 265.068 1643.96 265.068 Q1649.97 265.068 1653.23 262.707 Q1656.5 260.346 1656.5 255.971 Q1656.5 252.152 1654.14 249.999 Q1651.81 247.846 1646.46 246.77 L1642.19 245.936 Q1634.34 244.374 1630.84 241.041 Q1627.33 237.707 1627.33 231.77 Q1627.33 224.895 1632.16 220.937 Q1637.02 216.978 1645.53 216.978 Q1649.17 216.978 1652.96 217.638 Q1656.74 218.298 1660.7 219.617 Z" fill="#000000" fill-rule="nonzero" fill-opacity="1" /><path clip-path="url(#clip340)" d="M1674.48 230.867 L1680.87 230.867 L1680.87 269.756 L1674.48 269.756 L1674.48 230.867 M1674.48 215.728 L1680.87 215.728 L1680.87 223.818 L1674.48 223.818 L1674.48 215.728 Z" fill="#000000" fill-rule="nonzero" fill-opacity="1" /><path clip-path="url(#clip340)" d="M1724.52 238.332 Q1726.91 234.027 1730.25 231.978 Q1733.58 229.93 1738.09 229.93 Q1744.17 229.93 1747.47 234.2 Q1750.77 238.436 1750.77 246.284 L1750.77 269.756 L1744.34 269.756 L1744.34 246.492 Q1744.34 240.902 1742.37 238.193 Q1740.39 235.485 1736.32 235.485 Q1731.36 235.485 1728.48 238.784 Q1725.59 242.082 1725.59 247.777 L1725.59 269.756 L1719.17 269.756 L1719.17 246.492 Q1719.17 240.867 1717.19 238.193 Q1715.21 235.485 1711.08 235.485 Q1706.18 235.485 1703.3 238.818 Q1700.42 242.117 1700.42 247.777 L1700.42 269.756 L1694 269.756 L1694 230.867 L1700.42 230.867 L1700.42 236.909 Q1702.61 233.332 1705.66 231.631 Q1708.72 229.93 1712.92 229.93 Q1717.16 229.93 1720.11 232.082 Q1723.09 234.235 1724.52 238.332 Z" fill="#000000" fill-rule="nonzero" fill-opacity="1" /><path clip-path="url(#clip340)" d="M1769.69 263.922 L1769.69 284.547 L1763.27 284.547 L1763.27 230.867 L1769.69 230.867 L1769.69 236.77 Q1771.71 233.298 1774.76 231.631 Q1777.85 229.93 1782.12 229.93 Q1789.21 229.93 1793.61 235.555 Q1798.06 241.179 1798.06 250.346 Q1798.06 259.513 1793.61 265.138 Q1789.21 270.763 1782.12 270.763 Q1777.85 270.763 1774.76 269.096 Q1771.71 267.395 1769.69 263.922 M1791.43 250.346 Q1791.43 243.298 1788.51 239.304 Q1785.63 235.277 1780.56 235.277 Q1775.49 235.277 1772.57 239.304 Q1769.69 243.298 1769.69 250.346 Q1769.69 257.395 1772.57 261.422 Q1775.49 265.415 1780.56 265.415 Q1785.63 265.415 1788.51 261.422 Q1791.43 257.395 1791.43 250.346 Z" fill="#000000" fill-rule="nonzero" fill-opacity="1" /><path clip-path="url(#clip340)" d="M1808.65 215.728 L1815.04 215.728 L1815.04 269.756 L1808.65 269.756 L1808.65 215.728 Z" fill="#000000" fill-rule="nonzero" fill-opacity="1" /><path clip-path="url(#clip340)" d="M1861.67 248.714 L1861.67 251.839 L1832.3 251.839 Q1832.71 258.436 1836.25 261.909 Q1839.83 265.346 1846.18 265.346 Q1849.86 265.346 1853.3 264.443 Q1856.77 263.54 1860.18 261.735 L1860.18 267.777 Q1856.74 269.235 1853.13 269.999 Q1849.52 270.763 1845.8 270.763 Q1836.5 270.763 1831.05 265.346 Q1825.63 259.929 1825.63 250.693 Q1825.63 241.145 1830.77 235.555 Q1835.94 229.93 1844.69 229.93 Q1852.54 229.93 1857.09 234.999 Q1861.67 240.034 1861.67 248.714 M1855.28 246.839 Q1855.21 241.596 1852.33 238.471 Q1849.48 235.346 1844.76 235.346 Q1839.41 235.346 1836.18 238.367 Q1832.99 241.388 1832.5 246.874 L1855.28 246.839 Z" fill="#000000" fill-rule="nonzero" fill-opacity="1" /><path clip-path="url(#clip340)" d="M1872.43 217.916 L1902.23 217.916 L1902.23 223.818 L1879.45 223.818 L1879.45 239.096 L1900 239.096 L1900 244.999 L1879.45 244.999 L1879.45 269.756 L1872.43 269.756 L1872.43 217.916 Z" fill="#000000" fill-rule="nonzero" fill-opacity="1" /><path clip-path="url(#clip340)" d="M1913.34 217.916 L1923.79 217.916 L1937.02 253.193 L1950.32 217.916 L1960.77 217.916 L1960.77 269.756 L1953.93 269.756 L1953.93 224.235 L1940.56 259.79 L1933.51 259.79 L1920.14 224.235 L1920.14 269.756 L1913.34 269.756 L1913.34 217.916 Z" fill="#000000" fill-rule="nonzero" fill-opacity="1" /><path clip-path="url(#clip340)" d="M1973.89 217.916 L1980.94 217.916 L1980.94 249.409 Q1980.94 257.742 1983.96 261.422 Q1986.98 265.068 1993.75 265.068 Q2000.49 265.068 2003.51 261.422 Q2006.53 257.742 2006.53 249.409 L2006.53 217.916 L2013.58 217.916 L2013.58 250.277 Q2013.58 260.415 2008.54 265.589 Q2003.54 270.763 1993.75 270.763 Q1983.93 270.763 1978.89 265.589 Q1973.89 260.415 1973.89 250.277 L1973.89 217.916 Z" fill="#000000" fill-rule="nonzero" fill-opacity="1" /><polyline clip-path="url(#clip340)" style="stroke:#e26f46; stroke-linecap:round; stroke-linejoin:round; stroke-width:12; stroke-opacity:1; fill:none" points="1468.84,321.596 1604.69,321.596 "/>
<path clip-path="url(#clip340)" d="M1651.91 323.21 Q1654.17 323.974 1656.29 326.474 Q1658.44 328.974 1660.59 333.349 L1667.71 347.516 L1660.18 347.516 L1653.55 334.217 Q1650.98 329.009 1648.55 327.307 Q1646.15 325.606 1641.98 325.606 L1634.34 325.606 L1634.34 347.516 L1627.33 347.516 L1627.33 295.676 L1643.16 295.676 Q1652.05 295.676 1656.43 299.391 Q1660.8 303.106 1660.8 310.606 Q1660.8 315.502 1658.51 318.731 Q1656.25 321.96 1651.91 323.21 M1634.34 301.44 L1634.34 319.842 L1643.16 319.842 Q1648.23 319.842 1650.8 317.516 Q1653.41 315.155 1653.41 310.606 Q1653.41 306.058 1650.8 303.766 Q1648.23 301.44 1643.16 301.44 L1634.34 301.44 Z" fill="#000000" fill-rule="nonzero" fill-opacity="1" /><path clip-path="url(#clip340)" d="M1706.53 326.474 L1706.53 329.599 L1677.16 329.599 Q1677.57 336.196 1681.12 339.669 Q1684.69 343.106 1691.05 343.106 Q1694.73 343.106 1698.16 342.203 Q1701.64 341.3 1705.04 339.495 L1705.04 345.537 Q1701.6 346.995 1697.99 347.759 Q1694.38 348.523 1690.66 348.523 Q1681.36 348.523 1675.91 343.106 Q1670.49 337.689 1670.49 328.453 Q1670.49 318.905 1675.63 313.315 Q1680.8 307.69 1689.55 307.69 Q1697.4 307.69 1701.95 312.759 Q1706.53 317.794 1706.53 326.474 M1700.14 324.599 Q1700.07 319.356 1697.19 316.231 Q1694.34 313.106 1689.62 313.106 Q1684.28 313.106 1681.05 316.127 Q1677.85 319.148 1677.37 324.634 L1700.14 324.599 Z" fill="#000000" fill-rule="nonzero" fill-opacity="1" /><path clip-path="url(#clip340)" d="M1736.71 293.488 L1736.71 298.801 L1730.59 298.801 Q1727.16 298.801 1725.8 300.19 Q1724.48 301.578 1724.48 305.19 L1724.48 308.627 L1735 308.627 L1735 313.592 L1724.48 313.592 L1724.48 347.516 L1718.06 347.516 L1718.06 313.592 L1711.95 313.592 L1711.95 308.627 L1718.06 308.627 L1718.06 305.919 Q1718.06 299.426 1721.08 296.474 Q1724.1 293.488 1730.66 293.488 L1736.71 293.488 Z" fill="#000000" fill-rule="nonzero" fill-opacity="1" /><path clip-path="url(#clip340)" d="M1775.32 326.474 L1775.32 329.599 L1745.94 329.599 Q1746.36 336.196 1749.9 339.669 Q1753.48 343.106 1759.83 343.106 Q1763.51 343.106 1766.95 342.203 Q1770.42 341.3 1773.82 339.495 L1773.82 345.537 Q1770.39 346.995 1766.77 347.759 Q1763.16 348.523 1759.45 348.523 Q1750.14 348.523 1744.69 343.106 Q1739.27 337.689 1739.27 328.453 Q1739.27 318.905 1744.41 313.315 Q1749.59 307.69 1758.34 307.69 Q1766.18 307.69 1770.73 312.759 Q1775.32 317.794 1775.32 326.474 M1768.93 324.599 Q1768.86 319.356 1765.98 316.231 Q1763.13 313.106 1758.41 313.106 Q1753.06 313.106 1749.83 316.127 Q1746.64 319.148 1746.15 324.634 L1768.93 324.599 Z" fill="#000000" fill-rule="nonzero" fill-opacity="1" /><path clip-path="url(#clip340)" d="M1808.34 314.599 Q1807.26 313.974 1805.98 313.696 Q1804.73 313.384 1803.2 313.384 Q1797.78 313.384 1794.86 316.926 Q1791.98 320.433 1791.98 327.03 L1791.98 347.516 L1785.56 347.516 L1785.56 308.627 L1791.98 308.627 L1791.98 314.669 Q1794 311.127 1797.23 309.426 Q1800.46 307.69 1805.07 307.69 Q1805.73 307.69 1806.53 307.794 Q1807.33 307.863 1808.3 308.037 L1808.34 314.599 Z" fill="#000000" fill-rule="nonzero" fill-opacity="1" /><path clip-path="url(#clip340)" d="M1846.74 326.474 L1846.74 329.599 L1817.36 329.599 Q1817.78 336.196 1821.32 339.669 Q1824.9 343.106 1831.25 343.106 Q1834.93 343.106 1838.37 342.203 Q1841.84 341.3 1845.25 339.495 L1845.25 345.537 Q1841.81 346.995 1838.2 347.759 Q1834.59 348.523 1830.87 348.523 Q1821.57 348.523 1816.11 343.106 Q1810.7 337.689 1810.7 328.453 Q1810.7 318.905 1815.84 313.315 Q1821.01 307.69 1829.76 307.69 Q1837.61 307.69 1842.16 312.759 Q1846.74 317.794 1846.74 326.474 M1840.35 324.599 Q1840.28 319.356 1837.4 316.231 Q1834.55 313.106 1829.83 313.106 Q1824.48 313.106 1821.25 316.127 Q1818.06 319.148 1817.57 324.634 L1840.35 324.599 Z" fill="#000000" fill-rule="nonzero" fill-opacity="1" /><path clip-path="url(#clip340)" d="M1889.55 324.044 L1889.55 347.516 L1883.16 347.516 L1883.16 324.252 Q1883.16 318.731 1881.01 315.988 Q1878.86 313.245 1874.55 313.245 Q1869.38 313.245 1866.39 316.544 Q1863.41 319.842 1863.41 325.537 L1863.41 347.516 L1856.98 347.516 L1856.98 308.627 L1863.41 308.627 L1863.41 314.669 Q1865.7 311.162 1868.79 309.426 Q1871.91 307.69 1875.98 307.69 Q1882.68 307.69 1886.11 311.856 Q1889.55 315.988 1889.55 324.044 Z" fill="#000000" fill-rule="nonzero" fill-opacity="1" /><path clip-path="url(#clip340)" d="M1930.28 310.12 L1930.28 316.092 Q1927.57 314.599 1924.83 313.87 Q1922.12 313.106 1919.34 313.106 Q1913.13 313.106 1909.69 317.064 Q1906.25 320.988 1906.25 328.106 Q1906.25 335.224 1909.69 339.182 Q1913.13 343.106 1919.34 343.106 Q1922.12 343.106 1924.83 342.377 Q1927.57 341.613 1930.28 340.12 L1930.28 346.023 Q1927.61 347.273 1924.73 347.898 Q1921.88 348.523 1918.65 348.523 Q1909.86 348.523 1904.69 343.002 Q1899.52 337.481 1899.52 328.106 Q1899.52 318.592 1904.73 313.141 Q1909.97 307.69 1919.07 307.69 Q1922.02 307.69 1924.83 308.315 Q1927.64 308.905 1930.28 310.12 Z" fill="#000000" fill-rule="nonzero" fill-opacity="1" /><path clip-path="url(#clip340)" d="M1974.66 326.474 L1974.66 329.599 L1945.28 329.599 Q1945.7 336.196 1949.24 339.669 Q1952.82 343.106 1959.17 343.106 Q1962.85 343.106 1966.29 342.203 Q1969.76 341.3 1973.16 339.495 L1973.16 345.537 Q1969.73 346.995 1966.11 347.759 Q1962.5 348.523 1958.79 348.523 Q1949.48 348.523 1944.03 343.106 Q1938.61 337.689 1938.61 328.453 Q1938.61 318.905 1943.75 313.315 Q1948.93 307.69 1957.68 307.69 Q1965.52 307.69 1970.07 312.759 Q1974.66 317.794 1974.66 326.474 M1968.27 324.599 Q1968.2 319.356 1965.32 316.231 Q1962.47 313.106 1957.75 313.106 Q1952.4 313.106 1949.17 316.127 Q1945.98 319.148 1945.49 324.634 L1968.27 324.599 Z" fill="#000000" fill-rule="nonzero" fill-opacity="1" /><polyline clip-path="url(#clip340)" style="stroke:#008000; stroke-linecap:round; stroke-linejoin:round; stroke-width:12; stroke-opacity:1; fill:none" stroke-dasharray="6, 12" points="1468.84,399.356 1604.69,399.356 "/>
<path clip-path="url(#clip340)" d="M1627.33 373.436 L1636.78 373.436 L1659.76 416.804 L1659.76 373.436 L1666.57 373.436 L1666.57 425.276 L1657.12 425.276 L1634.14 381.908 L1634.14 425.276 L1627.33 425.276 L1627.33 373.436 Z" fill="#000000" fill-rule="nonzero" fill-opacity="1" /><path clip-path="url(#clip340)" d="M1713.51 404.234 L1713.51 407.359 L1684.14 407.359 Q1684.55 413.956 1688.09 417.429 Q1691.67 420.866 1698.03 420.866 Q1701.71 420.866 1705.14 419.963 Q1708.62 419.06 1712.02 417.255 L1712.02 423.297 Q1708.58 424.755 1704.97 425.519 Q1701.36 426.283 1697.64 426.283 Q1688.34 426.283 1682.89 420.866 Q1677.47 415.449 1677.47 406.213 Q1677.47 396.665 1682.61 391.075 Q1687.78 385.45 1696.53 385.45 Q1704.38 385.45 1708.93 390.519 Q1713.51 395.554 1713.51 404.234 M1707.12 402.359 Q1707.05 397.116 1704.17 393.991 Q1701.32 390.866 1696.6 390.866 Q1691.25 390.866 1688.03 393.887 Q1684.83 396.908 1684.34 402.394 L1707.12 402.359 Z" fill="#000000" fill-rule="nonzero" fill-opacity="1" /><path clip-path="url(#clip340)" d="M1723.34 409.929 L1723.34 386.387 L1729.73 386.387 L1729.73 409.686 Q1729.73 415.206 1731.88 417.984 Q1734.03 420.727 1738.34 420.727 Q1743.51 420.727 1746.5 417.429 Q1749.52 414.13 1749.52 408.436 L1749.52 386.387 L1755.91 386.387 L1755.91 425.276 L1749.52 425.276 L1749.52 419.304 Q1747.19 422.845 1744.1 424.581 Q1741.05 426.283 1736.98 426.283 Q1730.28 426.283 1726.81 422.116 Q1723.34 417.949 1723.34 409.929 M1739.41 385.45 L1739.41 385.45 Z" fill="#000000" fill-rule="nonzero" fill-opacity="1" /><path clip-path="url(#clip340)" d="M1791.6 392.359 Q1790.52 391.734 1789.24 391.456 Q1787.99 391.144 1786.46 391.144 Q1781.05 391.144 1778.13 394.686 Q1775.25 398.193 1775.25 404.79 L1775.25 425.276 L1768.82 425.276 L1768.82 386.387 L1775.25 386.387 L1775.25 392.429 Q1777.26 388.887 1780.49 387.186 Q1783.72 385.45 1788.34 385.45 Q1789 385.45 1789.8 385.554 Q1790.59 385.623 1791.57 385.797 L1791.6 392.359 Z" fill="#000000" fill-rule="nonzero" fill-opacity="1" /><path clip-path="url(#clip340)" d="M1815.98 405.727 Q1808.23 405.727 1805.25 407.498 Q1802.26 409.269 1802.26 413.54 Q1802.26 416.942 1804.48 418.956 Q1806.74 420.935 1810.59 420.935 Q1815.91 420.935 1819.1 417.185 Q1822.33 413.401 1822.33 407.151 L1822.33 405.727 L1815.98 405.727 M1828.72 403.088 L1828.72 425.276 L1822.33 425.276 L1822.33 419.373 Q1820.14 422.915 1816.88 424.616 Q1813.61 426.283 1808.89 426.283 Q1802.92 426.283 1799.38 422.949 Q1795.87 419.581 1795.87 413.956 Q1795.87 407.394 1800.25 404.061 Q1804.66 400.727 1813.37 400.727 L1822.33 400.727 L1822.33 400.102 Q1822.33 395.693 1819.41 393.297 Q1816.53 390.866 1811.29 390.866 Q1807.96 390.866 1804.8 391.665 Q1801.64 392.463 1798.72 394.061 L1798.72 388.158 Q1802.23 386.804 1805.52 386.144 Q1808.82 385.45 1811.95 385.45 Q1820.39 385.45 1824.55 389.825 Q1828.72 394.199 1828.72 403.088 Z" fill="#000000" fill-rule="nonzero" fill-opacity="1" /><path clip-path="url(#clip340)" d="M1841.88 371.248 L1848.27 371.248 L1848.27 425.276 L1841.88 425.276 L1841.88 371.248 Z" fill="#000000" fill-rule="nonzero" fill-opacity="1" /><path clip-path="url(#clip340)" d="M1861.91 373.436 L1891.7 373.436 L1891.7 379.338 L1868.93 379.338 L1868.93 394.616 L1889.48 394.616 L1889.48 400.519 L1868.93 400.519 L1868.93 425.276 L1861.91 425.276 L1861.91 373.436 Z" fill="#000000" fill-rule="nonzero" fill-opacity="1" /><path clip-path="url(#clip340)" d="M1902.82 373.436 L1913.27 373.436 L1926.5 408.713 L1939.79 373.436 L1950.25 373.436 L1950.25 425.276 L1943.41 425.276 L1943.41 379.755 L1930.04 415.31 L1922.99 415.31 L1909.62 379.755 L1909.62 425.276 L1902.82 425.276 L1902.82 373.436 Z" fill="#000000" fill-rule="nonzero" fill-opacity="1" /><path clip-path="url(#clip340)" d="M1963.37 373.436 L1970.42 373.436 L1970.42 404.929 Q1970.42 413.262 1973.44 416.942 Q1976.46 420.588 1983.23 420.588 Q1989.97 420.588 1992.99 416.942 Q1996.01 413.262 1996.01 404.929 L1996.01 373.436 L2003.06 373.436 L2003.06 405.797 Q2003.06 415.935 1998.02 421.109 Q1993.02 426.283 1983.23 426.283 Q1973.41 426.283 1968.37 421.109 Q1963.37 415.935 1963.37 405.797 L1963.37 373.436 Z" fill="#000000" fill-rule="nonzero" fill-opacity="1" /><path clip-path="url(#clip340)" d="M2053.89 371.318 Q2049.24 379.304 2046.98 387.116 Q2044.72 394.929 2044.72 402.949 Q2044.72 410.97 2046.98 418.852 Q2049.27 426.699 2053.89 434.651 L2048.34 434.651 Q2043.13 426.491 2040.52 418.609 Q2037.95 410.727 2037.95 402.949 Q2037.95 395.206 2040.52 387.359 Q2043.09 379.512 2048.34 371.318 L2053.89 371.318 Z" fill="#000000" fill-rule="nonzero" fill-opacity="1" /><path clip-path="url(#clip340)" d="M2073.23 419.373 L2097.71 419.373 L2097.71 425.276 L2064.79 425.276 L2064.79 419.373 Q2068.79 415.241 2075.66 408.297 Q2082.57 401.318 2084.34 399.304 Q2087.71 395.519 2089.03 392.915 Q2090.38 390.276 2090.38 387.741 Q2090.38 383.609 2087.47 381.005 Q2084.59 378.401 2079.93 378.401 Q2076.63 378.401 2072.95 379.547 Q2069.31 380.693 2065.14 383.019 L2065.14 375.936 Q2069.38 374.234 2073.06 373.366 Q2076.74 372.498 2079.79 372.498 Q2087.85 372.498 2092.64 376.526 Q2097.43 380.554 2097.43 387.29 Q2097.43 390.484 2096.22 393.366 Q2095.04 396.213 2091.88 400.102 Q2091.01 401.109 2086.36 405.936 Q2081.7 410.727 2073.23 419.373 Z" fill="#000000" fill-rule="nonzero" fill-opacity="1" /><path clip-path="url(#clip340)" d="M2112.5 373.436 L2140.04 373.436 L2140.04 379.338 L2118.93 379.338 L2118.93 392.047 Q2120.45 391.526 2121.98 391.283 Q2123.51 391.005 2125.04 391.005 Q2133.72 391.005 2138.79 395.762 Q2143.86 400.519 2143.86 408.644 Q2143.86 417.012 2138.65 421.665 Q2133.44 426.283 2123.96 426.283 Q2120.7 426.283 2117.29 425.727 Q2113.93 425.172 2110.31 424.06 L2110.31 417.012 Q2113.44 418.713 2116.77 419.547 Q2120.11 420.38 2123.82 420.38 Q2129.83 420.38 2133.34 417.22 Q2136.84 414.06 2136.84 408.644 Q2136.84 403.227 2133.34 400.068 Q2129.83 396.908 2123.82 396.908 Q2121.01 396.908 2118.2 397.533 Q2115.42 398.158 2112.5 399.477 L2112.5 373.436 Z" fill="#000000" fill-rule="nonzero" fill-opacity="1" /><path clip-path="url(#clip340)" d="M2172.68 378.054 Q2167.26 378.054 2164.52 383.401 Q2161.81 388.713 2161.81 399.408 Q2161.81 410.067 2164.52 415.415 Q2167.26 420.727 2172.68 420.727 Q2178.13 420.727 2180.84 415.415 Q2183.58 410.067 2183.58 399.408 Q2183.58 388.713 2180.84 383.401 Q2178.13 378.054 2172.68 378.054 M2172.68 372.498 Q2181.39 372.498 2185.97 379.408 Q2190.59 386.283 2190.59 399.408 Q2190.59 412.498 2185.97 419.408 Q2181.39 426.283 2172.68 426.283 Q2163.96 426.283 2159.34 419.408 Q2154.76 412.498 2154.76 399.408 Q2154.76 386.283 2159.34 379.408 Q2163.96 372.498 2172.68 372.498 Z" fill="#000000" fill-rule="nonzero" fill-opacity="1" /><path clip-path="url(#clip340)" d="M2217.92 378.054 Q2212.5 378.054 2209.76 383.401 Q2207.05 388.713 2207.05 399.408 Q2207.05 410.067 2209.76 415.415 Q2212.5 420.727 2217.92 420.727 Q2223.37 420.727 2226.08 415.415 Q2228.82 410.067 2228.82 399.408 Q2228.82 388.713 2226.08 383.401 Q2223.37 378.054 2217.92 378.054 M2217.92 372.498 Q2226.63 372.498 2231.22 379.408 Q2235.83 386.283 2235.83 399.408 Q2235.83 412.498 2231.22 419.408 Q2226.63 426.283 2217.92 426.283 Q2209.2 426.283 2204.58 419.408 Q2200 412.498 2200 399.408 Q2200 386.283 2204.58 379.408 Q2209.2 372.498 2217.92 372.498 Z" fill="#000000" fill-rule="nonzero" fill-opacity="1" /><path clip-path="url(#clip340)" d="M2246.25 371.318 L2251.81 371.318 Q2257.02 379.512 2259.58 387.359 Q2262.19 395.206 2262.19 402.949 Q2262.19 410.727 2259.58 418.609 Q2257.02 426.491 2251.81 434.651 L2246.25 434.651 Q2250.87 426.699 2253.13 418.852 Q2255.42 410.97 2255.42 402.949 Q2255.42 394.929 2253.13 387.116 Q2250.87 379.304 2246.25 371.318 Z" fill="#000000" fill-rule="nonzero" fill-opacity="1" /><polyline clip-path="url(#clip340)" style="stroke:#008000; stroke-linecap:round; stroke-linejoin:round; stroke-width:12; stroke-opacity:1; fill:none" points="1468.84,477.116 1604.69,477.116 "/>
<path clip-path="url(#clip340)" d="M1627.33 451.196 L1636.78 451.196 L1659.76 494.564 L1659.76 451.196 L1666.57 451.196 L1666.57 503.036 L1657.12 503.036 L1634.14 459.668 L1634.14 503.036 L1627.33 503.036 L1627.33 451.196 Z" fill="#000000" fill-rule="nonzero" fill-opacity="1" /><path clip-path="url(#clip340)" d="M1713.51 481.994 L1713.51 485.119 L1684.14 485.119 Q1684.55 491.716 1688.09 495.189 Q1691.67 498.626 1698.03 498.626 Q1701.71 498.626 1705.14 497.723 Q1708.62 496.82 1712.02 495.015 L1712.02 501.057 Q1708.58 502.515 1704.97 503.279 Q1701.36 504.043 1697.64 504.043 Q1688.34 504.043 1682.89 498.626 Q1677.47 493.209 1677.47 483.973 Q1677.47 474.425 1682.61 468.835 Q1687.78 463.21 1696.53 463.21 Q1704.38 463.21 1708.93 468.279 Q1713.51 473.314 1713.51 481.994 M1707.12 480.119 Q1707.05 474.876 1704.17 471.751 Q1701.32 468.626 1696.6 468.626 Q1691.25 468.626 1688.03 471.647 Q1684.83 474.668 1684.34 480.154 L1707.12 480.119 Z" fill="#000000" fill-rule="nonzero" fill-opacity="1" /><path clip-path="url(#clip340)" d="M1723.34 487.689 L1723.34 464.147 L1729.73 464.147 L1729.73 487.446 Q1729.73 492.966 1731.88 495.744 Q1734.03 498.487 1738.34 498.487 Q1743.51 498.487 1746.5 495.189 Q1749.52 491.89 1749.52 486.196 L1749.52 464.147 L1755.91 464.147 L1755.91 503.036 L1749.52 503.036 L1749.52 497.064 Q1747.19 500.605 1744.1 502.341 Q1741.05 504.043 1736.98 504.043 Q1730.28 504.043 1726.81 499.876 Q1723.34 495.709 1723.34 487.689 M1739.41 463.21 L1739.41 463.21 Z" fill="#000000" fill-rule="nonzero" fill-opacity="1" /><path clip-path="url(#clip340)" d="M1791.6 470.119 Q1790.52 469.494 1789.24 469.216 Q1787.99 468.904 1786.46 468.904 Q1781.05 468.904 1778.13 472.446 Q1775.25 475.953 1775.25 482.55 L1775.25 503.036 L1768.82 503.036 L1768.82 464.147 L1775.25 464.147 L1775.25 470.189 Q1777.26 466.647 1780.49 464.946 Q1783.72 463.21 1788.34 463.21 Q1789 463.21 1789.8 463.314 Q1790.59 463.383 1791.57 463.557 L1791.6 470.119 Z" fill="#000000" fill-rule="nonzero" fill-opacity="1" /><path clip-path="url(#clip340)" d="M1815.98 483.487 Q1808.23 483.487 1805.25 485.258 Q1802.26 487.029 1802.26 491.3 Q1802.26 494.702 1804.48 496.716 Q1806.74 498.695 1810.59 498.695 Q1815.91 498.695 1819.1 494.945 Q1822.33 491.161 1822.33 484.911 L1822.33 483.487 L1815.98 483.487 M1828.72 480.848 L1828.72 503.036 L1822.33 503.036 L1822.33 497.133 Q1820.14 500.675 1816.88 502.376 Q1813.61 504.043 1808.89 504.043 Q1802.92 504.043 1799.38 500.709 Q1795.87 497.341 1795.87 491.716 Q1795.87 485.154 1800.25 481.821 Q1804.66 478.487 1813.37 478.487 L1822.33 478.487 L1822.33 477.862 Q1822.33 473.453 1819.41 471.057 Q1816.53 468.626 1811.29 468.626 Q1807.96 468.626 1804.8 469.425 Q1801.64 470.223 1798.72 471.821 L1798.72 465.918 Q1802.23 464.564 1805.52 463.904 Q1808.82 463.21 1811.95 463.21 Q1820.39 463.21 1824.55 467.585 Q1828.72 471.959 1828.72 480.848 Z" fill="#000000" fill-rule="nonzero" fill-opacity="1" /><path clip-path="url(#clip340)" d="M1841.88 449.008 L1848.27 449.008 L1848.27 503.036 L1841.88 503.036 L1841.88 449.008 Z" fill="#000000" fill-rule="nonzero" fill-opacity="1" /><path clip-path="url(#clip340)" d="M1861.91 451.196 L1891.7 451.196 L1891.7 457.098 L1868.93 457.098 L1868.93 472.376 L1889.48 472.376 L1889.48 478.279 L1868.93 478.279 L1868.93 503.036 L1861.91 503.036 L1861.91 451.196 Z" fill="#000000" fill-rule="nonzero" fill-opacity="1" /><path clip-path="url(#clip340)" d="M1902.82 451.196 L1913.27 451.196 L1926.5 486.473 L1939.79 451.196 L1950.25 451.196 L1950.25 503.036 L1943.41 503.036 L1943.41 457.515 L1930.04 493.07 L1922.99 493.07 L1909.62 457.515 L1909.62 503.036 L1902.82 503.036 L1902.82 451.196 Z" fill="#000000" fill-rule="nonzero" fill-opacity="1" /><path clip-path="url(#clip340)" d="M1963.37 451.196 L1970.42 451.196 L1970.42 482.689 Q1970.42 491.022 1973.44 494.702 Q1976.46 498.348 1983.23 498.348 Q1989.97 498.348 1992.99 494.702 Q1996.01 491.022 1996.01 482.689 L1996.01 451.196 L2003.06 451.196 L2003.06 483.557 Q2003.06 493.695 1998.02 498.869 Q1993.02 504.043 1983.23 504.043 Q1973.41 504.043 1968.37 498.869 Q1963.37 493.695 1963.37 483.557 L1963.37 451.196 Z" fill="#000000" fill-rule="nonzero" fill-opacity="1" /><path clip-path="url(#clip340)" d="M2053.89 449.078 Q2049.24 457.064 2046.98 464.876 Q2044.72 472.689 2044.72 480.709 Q2044.72 488.73 2046.98 496.612 Q2049.27 504.459 2053.89 512.411 L2048.34 512.411 Q2043.13 504.251 2040.52 496.369 Q2037.95 488.487 2037.95 480.709 Q2037.95 472.966 2040.52 465.119 Q2043.09 457.272 2048.34 449.078 L2053.89 449.078 Z" fill="#000000" fill-rule="nonzero" fill-opacity="1" /><path clip-path="url(#clip340)" d="M2067.26 451.196 L2094.79 451.196 L2094.79 457.098 L2073.68 457.098 L2073.68 469.807 Q2075.21 469.286 2076.74 469.043 Q2078.27 468.765 2079.79 468.765 Q2088.47 468.765 2093.54 473.522 Q2098.61 478.279 2098.61 486.404 Q2098.61 494.772 2093.4 499.425 Q2088.2 504.043 2078.72 504.043 Q2075.45 504.043 2072.05 503.487 Q2068.68 502.932 2065.07 501.82 L2065.07 494.772 Q2068.2 496.473 2071.53 497.307 Q2074.86 498.14 2078.58 498.14 Q2084.59 498.14 2088.09 494.98 Q2091.6 491.82 2091.6 486.404 Q2091.6 480.987 2088.09 477.828 Q2084.59 474.668 2078.58 474.668 Q2075.77 474.668 2072.95 475.293 Q2070.18 475.918 2067.26 477.237 L2067.26 451.196 Z" fill="#000000" fill-rule="nonzero" fill-opacity="1" /><path clip-path="url(#clip340)" d="M2127.43 455.814 Q2122.02 455.814 2119.27 461.161 Q2116.56 466.473 2116.56 477.168 Q2116.56 487.827 2119.27 493.175 Q2122.02 498.487 2127.43 498.487 Q2132.88 498.487 2135.59 493.175 Q2138.34 487.827 2138.34 477.168 Q2138.34 466.473 2135.59 461.161 Q2132.88 455.814 2127.43 455.814 M2127.43 450.258 Q2136.15 450.258 2140.73 457.168 Q2145.35 464.043 2145.35 477.168 Q2145.35 490.258 2140.73 497.168 Q2136.15 504.043 2127.43 504.043 Q2118.72 504.043 2114.1 497.168 Q2109.52 490.258 2109.52 477.168 Q2109.52 464.043 2114.1 457.168 Q2118.72 450.258 2127.43 450.258 Z" fill="#000000" fill-rule="nonzero" fill-opacity="1" /><path clip-path="url(#clip340)" d="M2172.68 455.814 Q2167.26 455.814 2164.52 461.161 Q2161.81 466.473 2161.81 477.168 Q2161.81 487.827 2164.52 493.175 Q2167.26 498.487 2172.68 498.487 Q2178.13 498.487 2180.84 493.175 Q2183.58 487.827 2183.58 477.168 Q2183.58 466.473 2180.84 461.161 Q2178.13 455.814 2172.68 455.814 M2172.68 450.258 Q2181.39 450.258 2185.97 457.168 Q2190.59 464.043 2190.59 477.168 Q2190.59 490.258 2185.97 497.168 Q2181.39 504.043 2172.68 504.043 Q2163.96 504.043 2159.34 497.168 Q2154.76 490.258 2154.76 477.168 Q2154.76 464.043 2159.34 457.168 Q2163.96 450.258 2172.68 450.258 Z" fill="#000000" fill-rule="nonzero" fill-opacity="1" /><path clip-path="url(#clip340)" d="M2217.92 455.814 Q2212.5 455.814 2209.76 461.161 Q2207.05 466.473 2207.05 477.168 Q2207.05 487.827 2209.76 493.175 Q2212.5 498.487 2217.92 498.487 Q2223.37 498.487 2226.08 493.175 Q2228.82 487.827 2228.82 477.168 Q2228.82 466.473 2226.08 461.161 Q2223.37 455.814 2217.92 455.814 M2217.92 450.258 Q2226.63 450.258 2231.22 457.168 Q2235.83 464.043 2235.83 477.168 Q2235.83 490.258 2231.22 497.168 Q2226.63 504.043 2217.92 504.043 Q2209.2 504.043 2204.58 497.168 Q2200 490.258 2200 477.168 Q2200 464.043 2204.58 457.168 Q2209.2 450.258 2217.92 450.258 Z" fill="#000000" fill-rule="nonzero" fill-opacity="1" /><path clip-path="url(#clip340)" d="M2246.25 449.078 L2251.81 449.078 Q2257.02 457.272 2259.58 465.119 Q2262.19 472.966 2262.19 480.709 Q2262.19 488.487 2259.58 496.369 Q2257.02 504.251 2251.81 512.411 L2246.25 512.411 Q2250.87 504.459 2253.13 496.612 Q2255.42 488.73 2255.42 480.709 Q2255.42 472.689 2253.13 464.876 Q2250.87 457.064 2246.25 449.078 Z" fill="#000000" fill-rule="nonzero" fill-opacity="1" /></svg>
