<?xml version="1.0" encoding="utf-8"?>
<svg xmlns="http://www.w3.org/2000/svg" xmlns:xlink="http://www.w3.org/1999/xlink" width="600" height="400" viewBox="0 0 2400 1600">
<defs>
  <clipPath id="clip980">
    <rect x="0" y="0" width="2400" height="1600"/>
  </clipPath>
</defs>
<path clip-path="url(#clip980)" d="M0 1600 L2400 1600 L2400 0 L0 0  Z" fill="#ffffff" fill-rule="evenodd" fill-opacity="1"/>
<defs>
  <clipPath id="clip981">
    <rect x="480" y="0" width="1681" height="1600"/>
  </clipPath>
</defs>
<path clip-path="url(#clip980)" d="M303.503 1401.58 L2352.76 1401.58 L2352.76 123.472 L303.503 123.472  Z" fill="#ffffff" fill-rule="evenodd" fill-opacity="1"/>
<defs>
  <clipPath id="clip982">
    <rect x="303" y="123" width="2050" height="1279"/>
  </clipPath>
</defs>
<polyline clip-path="url(#clip982)" style="stroke:#000000; stroke-linecap:round; stroke-linejoin:round; stroke-width:2; stroke-opacity:0.1; fill:none" points="361.501,1401.58 361.501,123.472 "/>
<polyline clip-path="url(#clip982)" style="stroke:#000000; stroke-linecap:round; stroke-linejoin:round; stroke-width:2; stroke-opacity:0.1; fill:none" points="844.815,1401.58 844.815,123.472 "/>
<polyline clip-path="url(#clip982)" style="stroke:#000000; stroke-linecap:round; stroke-linejoin:round; stroke-width:2; stroke-opacity:0.1; fill:none" points="1328.13,1401.58 1328.13,123.472 "/>
<polyline clip-path="url(#clip982)" style="stroke:#000000; stroke-linecap:round; stroke-linejoin:round; stroke-width:2; stroke-opacity:0.1; fill:none" points="1811.44,1401.58 1811.44,123.472 "/>
<polyline clip-path="url(#clip982)" style="stroke:#000000; stroke-linecap:round; stroke-linejoin:round; stroke-width:2; stroke-opacity:0.1; fill:none" points="2294.76,1401.58 2294.76,123.472 "/>
<polyline clip-path="url(#clip982)" style="stroke:#000000; stroke-linecap:round; stroke-linejoin:round; stroke-width:2; stroke-opacity:0.1; fill:none" points="303.503,1390.29 2352.76,1390.29 "/>
<polyline clip-path="url(#clip982)" style="stroke:#000000; stroke-linecap:round; stroke-linejoin:round; stroke-width:2; stroke-opacity:0.1; fill:none" points="303.503,1106.67 2352.76,1106.67 "/>
<polyline clip-path="url(#clip982)" style="stroke:#000000; stroke-linecap:round; stroke-linejoin:round; stroke-width:2; stroke-opacity:0.1; fill:none" points="303.503,823.05 2352.76,823.05 "/>
<polyline clip-path="url(#clip982)" style="stroke:#000000; stroke-linecap:round; stroke-linejoin:round; stroke-width:2; stroke-opacity:0.1; fill:none" points="303.503,539.429 2352.76,539.429 "/>
<polyline clip-path="url(#clip982)" style="stroke:#000000; stroke-linecap:round; stroke-linejoin:round; stroke-width:2; stroke-opacity:0.1; fill:none" points="303.503,255.808 2352.76,255.808 "/>
<polyline clip-path="url(#clip980)" style="stroke:#000000; stroke-linecap:round; stroke-linejoin:round; stroke-width:4; stroke-opacity:1; fill:none" points="303.503,1401.58 2352.76,1401.58 "/>
<polyline clip-path="url(#clip980)" style="stroke:#000000; stroke-linecap:round; stroke-linejoin:round; stroke-width:4; stroke-opacity:1; fill:none" points="361.501,1401.58 361.501,1382.68 "/>
<polyline clip-path="url(#clip980)" style="stroke:#000000; stroke-linecap:round; stroke-linejoin:round; stroke-width:4; stroke-opacity:1; fill:none" points="844.815,1401.58 844.815,1382.68 "/>
<polyline clip-path="url(#clip980)" style="stroke:#000000; stroke-linecap:round; stroke-linejoin:round; stroke-width:4; stroke-opacity:1; fill:none" points="1328.13,1401.58 1328.13,1382.68 "/>
<polyline clip-path="url(#clip980)" style="stroke:#000000; stroke-linecap:round; stroke-linejoin:round; stroke-width:4; stroke-opacity:1; fill:none" points="1811.44,1401.58 1811.44,1382.68 "/>
<polyline clip-path="url(#clip980)" style="stroke:#000000; stroke-linecap:round; stroke-linejoin:round; stroke-width:4; stroke-opacity:1; fill:none" points="2294.76,1401.58 2294.76,1382.68 "/>
<path clip-path="url(#clip980)" d="M361.501 1438.36 Q356.084 1438.36 353.341 1443.71 Q350.633 1449.02 350.633 1459.71 Q350.633 1470.37 353.341 1475.72 Q356.084 1481.03 361.501 1481.03 Q366.952 1481.03 369.66 1475.72 Q372.403 1470.37 372.403 1459.71 Q372.403 1449.02 369.66 1443.71 Q366.952 1438.36 361.501 1438.36 M361.501 1432.8 Q370.216 1432.8 374.799 1439.71 Q379.417 1446.59 379.417 1459.71 Q379.417 1472.8 374.799 1479.71 Q370.216 1486.59 361.501 1486.59 Q352.785 1486.59 348.167 1479.71 Q343.584 1472.8 343.584 1459.71 Q343.584 1446.59 348.167 1439.71 Q352.785 1432.8 361.501 1432.8 Z" fill="#000000" fill-rule="nonzero" fill-opacity="1" /><path clip-path="url(#clip980)" d="M830.388 1479.68 L841.846 1479.68 L841.846 1440.13 L829.381 1442.63 L829.381 1436.24 L841.777 1433.74 L848.791 1433.74 L848.791 1479.68 L860.249 1479.68 L860.249 1485.58 L830.388 1485.58 L830.388 1479.68 Z" fill="#000000" fill-rule="nonzero" fill-opacity="1" /><path clip-path="url(#clip980)" d="M1320.11 1479.68 L1344.59 1479.68 L1344.59 1485.58 L1311.67 1485.58 L1311.67 1479.68 Q1315.66 1475.55 1322.54 1468.6 Q1329.45 1461.62 1331.22 1459.61 Q1334.59 1455.82 1335.91 1453.22 Q1337.26 1450.58 1337.26 1448.05 Q1337.26 1443.91 1334.34 1441.31 Q1331.46 1438.71 1326.81 1438.71 Q1323.51 1438.71 1319.83 1439.85 Q1316.19 1441 1312.02 1443.32 L1312.02 1436.24 Q1316.25 1434.54 1319.94 1433.67 Q1323.62 1432.8 1326.67 1432.8 Q1334.73 1432.8 1339.52 1436.83 Q1344.31 1440.86 1344.31 1447.59 Q1344.31 1450.79 1343.09 1453.67 Q1341.91 1456.52 1338.75 1460.41 Q1337.89 1461.41 1333.23 1466.24 Q1328.58 1471.03 1320.11 1479.68 Z" fill="#000000" fill-rule="nonzero" fill-opacity="1" /><path clip-path="url(#clip980)" d="M1817.82 1457.63 Q1822.85 1458.7 1825.66 1462.11 Q1828.51 1465.51 1828.51 1470.51 Q1828.51 1478.18 1823.23 1482.39 Q1817.95 1486.59 1808.23 1486.59 Q1804.97 1486.59 1801.5 1485.93 Q1798.06 1485.3 1794.38 1484.02 L1794.38 1477.25 Q1797.29 1478.95 1800.77 1479.82 Q1804.24 1480.68 1808.02 1480.68 Q1814.62 1480.68 1818.06 1478.08 Q1821.53 1475.48 1821.53 1470.51 Q1821.53 1465.93 1818.3 1463.36 Q1815.11 1460.75 1809.38 1460.75 L1803.34 1460.75 L1803.34 1454.99 L1809.66 1454.99 Q1814.83 1454.99 1817.57 1452.94 Q1820.32 1450.86 1820.32 1446.97 Q1820.32 1442.98 1817.47 1440.86 Q1814.66 1438.71 1809.38 1438.71 Q1806.5 1438.71 1803.2 1439.33 Q1799.9 1439.96 1795.94 1441.27 L1795.94 1435.02 Q1799.93 1433.91 1803.41 1433.36 Q1806.91 1432.8 1810 1432.8 Q1817.99 1432.8 1822.64 1436.45 Q1827.29 1440.06 1827.29 1446.24 Q1827.29 1450.55 1824.83 1453.53 Q1822.36 1456.48 1817.82 1457.63 Z" fill="#000000" fill-rule="nonzero" fill-opacity="1" /><path clip-path="url(#clip980)" d="M2299.27 1439.85 L2281.56 1467.52 L2299.27 1467.52 L2299.27 1439.85 M2297.43 1433.74 L2306.25 1433.74 L2306.25 1467.52 L2313.65 1467.52 L2313.65 1473.36 L2306.25 1473.36 L2306.25 1485.58 L2299.27 1485.58 L2299.27 1473.36 L2275.87 1473.36 L2275.87 1466.59 L2297.43 1433.74 Z" fill="#000000" fill-rule="nonzero" fill-opacity="1" /><path clip-path="url(#clip980)" d="M1271.74 1527.62 L1271.74 1538.66 L1284.9 1538.66 L1284.9 1543.62 L1271.74 1543.62 L1271.74 1564.74 Q1271.74 1569.49 1273.03 1570.85 Q1274.35 1572.2 1278.34 1572.2 L1284.9 1572.2 L1284.9 1577.55 L1278.34 1577.55 Q1270.94 1577.55 1268.13 1574.8 Q1265.32 1572.03 1265.32 1564.74 L1265.32 1543.62 L1260.63 1543.62 L1260.63 1538.66 L1265.32 1538.66 L1265.32 1527.62 L1271.74 1527.62 Z" fill="#000000" fill-rule="nonzero" fill-opacity="1" /><path clip-path="url(#clip980)" d="M1315.32 1523.52 L1330.04 1523.52 L1330.04 1528.49 L1321.71 1528.49 L1321.71 1581.96 L1330.04 1581.96 L1330.04 1586.92 L1315.32 1586.92 L1315.32 1523.52 Z" fill="#000000" fill-rule="nonzero" fill-opacity="1" /><path clip-path="url(#clip980)" d="M1368.44 1539.8 L1368.44 1545.85 Q1365.73 1544.46 1362.82 1543.76 Q1359.9 1543.07 1356.78 1543.07 Q1352.02 1543.07 1349.62 1544.53 Q1347.26 1545.99 1347.26 1548.9 Q1347.26 1551.12 1348.96 1552.41 Q1350.66 1553.66 1355.8 1554.8 L1357.99 1555.29 Q1364.8 1556.75 1367.64 1559.42 Q1370.53 1562.06 1370.53 1566.82 Q1370.53 1572.24 1366.22 1575.4 Q1361.95 1578.55 1354.45 1578.55 Q1351.32 1578.55 1347.92 1577.93 Q1344.55 1577.34 1340.8 1576.12 L1340.8 1569.53 Q1344.34 1571.37 1347.78 1572.3 Q1351.22 1573.21 1354.59 1573.21 Q1359.1 1573.21 1361.53 1571.68 Q1363.96 1570.12 1363.96 1567.3 Q1363.96 1564.7 1362.19 1563.31 Q1360.46 1561.92 1354.52 1560.64 L1352.3 1560.12 Q1346.36 1558.87 1343.72 1556.3 Q1341.08 1553.69 1341.08 1549.18 Q1341.08 1543.69 1344.97 1540.71 Q1348.86 1537.72 1356.01 1537.72 Q1359.55 1537.72 1362.68 1538.24 Q1365.8 1538.76 1368.44 1539.8 Z" fill="#000000" fill-rule="nonzero" fill-opacity="1" /><path clip-path="url(#clip980)" d="M1395.63 1523.52 L1395.63 1586.92 L1380.91 1586.92 L1380.91 1581.96 L1389.21 1581.96 L1389.21 1528.49 L1380.91 1528.49 L1380.91 1523.52 L1395.63 1523.52 Z" fill="#000000" fill-rule="nonzero" fill-opacity="1" /><polyline clip-path="url(#clip980)" style="stroke:#000000; stroke-linecap:round; stroke-linejoin:round; stroke-width:4; stroke-opacity:1; fill:none" points="303.503,1401.58 303.503,123.472 "/>
<polyline clip-path="url(#clip980)" style="stroke:#000000; stroke-linecap:round; stroke-linejoin:round; stroke-width:4; stroke-opacity:1; fill:none" points="303.503,1390.29 322.401,1390.29 "/>
<polyline clip-path="url(#clip980)" style="stroke:#000000; stroke-linecap:round; stroke-linejoin:round; stroke-width:4; stroke-opacity:1; fill:none" points="303.503,1106.67 322.401,1106.67 "/>
<polyline clip-path="url(#clip980)" style="stroke:#000000; stroke-linecap:round; stroke-linejoin:round; stroke-width:4; stroke-opacity:1; fill:none" points="303.503,823.05 322.401,823.05 "/>
<polyline clip-path="url(#clip980)" style="stroke:#000000; stroke-linecap:round; stroke-linejoin:round; stroke-width:4; stroke-opacity:1; fill:none" points="303.503,539.429 322.401,539.429 "/>
<polyline clip-path="url(#clip980)" style="stroke:#000000; stroke-linecap:round; stroke-linejoin:round; stroke-width:4; stroke-opacity:1; fill:none" points="303.503,255.808 322.401,255.808 "/>
<path clip-path="url(#clip980)" d="M136.497 1368.99 Q131.08 1368.99 128.337 1374.34 Q125.629 1379.65 125.629 1390.34 Q125.629 1401 128.337 1406.35 Q131.08 1411.66 136.497 1411.66 Q141.948 1411.66 144.656 1406.35 Q147.399 1401 147.399 1390.34 Q147.399 1379.65 144.656 1374.34 Q141.948 1368.99 136.497 1368.99 M136.497 1363.43 Q145.212 1363.43 149.795 1370.34 Q154.413 1377.22 154.413 1390.34 Q154.413 1403.43 149.795 1410.34 Q145.212 1417.22 136.497 1417.22 Q127.781 1417.22 123.163 1410.34 Q118.58 1403.43 118.58 1390.34 Q118.58 1377.22 123.163 1370.34 Q127.781 1363.43 136.497 1363.43 Z" fill="#000000" fill-rule="nonzero" fill-opacity="1" /><path clip-path="url(#clip980)" d="M166.74 1407.39 L174.066 1407.39 L174.066 1416.21 L166.74 1416.21 L166.74 1407.39 Z" fill="#000000" fill-rule="nonzero" fill-opacity="1" /><path clip-path="url(#clip980)" d="M189.413 1364.37 L216.948 1364.37 L216.948 1370.27 L195.837 1370.27 L195.837 1382.98 Q197.364 1382.46 198.892 1382.22 Q200.42 1381.94 201.948 1381.94 Q210.628 1381.94 215.698 1386.7 Q220.767 1391.45 220.767 1399.58 Q220.767 1407.95 215.559 1412.6 Q210.35 1417.22 200.871 1417.22 Q197.608 1417.22 194.205 1416.66 Q190.837 1416.11 187.226 1415 L187.226 1407.95 Q190.351 1409.65 193.684 1410.48 Q197.017 1411.32 200.732 1411.32 Q206.739 1411.32 210.246 1408.16 Q213.753 1405 213.753 1399.58 Q213.753 1394.16 210.246 1391 Q206.739 1387.84 200.732 1387.84 Q197.92 1387.84 195.108 1388.47 Q192.33 1389.09 189.413 1390.41 L189.413 1364.37 Z" fill="#000000" fill-rule="nonzero" fill-opacity="1" /><path clip-path="url(#clip980)" d="M249.586 1368.99 Q244.17 1368.99 241.427 1374.34 Q238.718 1379.65 238.718 1390.34 Q238.718 1401 241.427 1406.35 Q244.17 1411.66 249.586 1411.66 Q255.038 1411.66 257.746 1406.35 Q260.489 1401 260.489 1390.34 Q260.489 1379.65 257.746 1374.34 Q255.038 1368.99 249.586 1368.99 M249.586 1363.43 Q258.302 1363.43 262.885 1370.34 Q267.503 1377.22 267.503 1390.34 Q267.503 1403.43 262.885 1410.34 Q258.302 1417.22 249.586 1417.22 Q240.871 1417.22 236.253 1410.34 Q231.67 1403.43 231.67 1390.34 Q231.67 1377.22 236.253 1370.34 Q240.871 1363.43 249.586 1363.43 Z" fill="#000000" fill-rule="nonzero" fill-opacity="1" /><path clip-path="url(#clip980)" d="M137.99 1085.37 Q132.573 1085.37 129.83 1090.72 Q127.122 1096.03 127.122 1106.72 Q127.122 1117.38 129.83 1122.73 Q132.573 1128.04 137.99 1128.04 Q143.441 1128.04 146.149 1122.73 Q148.892 1117.38 148.892 1106.72 Q148.892 1096.03 146.149 1090.72 Q143.441 1085.37 137.99 1085.37 M137.99 1079.81 Q146.705 1079.81 151.288 1086.72 Q155.906 1093.6 155.906 1106.72 Q155.906 1119.81 151.288 1126.72 Q146.705 1133.6 137.99 1133.6 Q129.275 1133.6 124.657 1126.72 Q120.073 1119.81 120.073 1106.72 Q120.073 1093.6 124.657 1086.72 Q129.275 1079.81 137.99 1079.81 Z" fill="#000000" fill-rule="nonzero" fill-opacity="1" /><path clip-path="url(#clip980)" d="M168.233 1123.77 L175.559 1123.77 L175.559 1132.59 L168.233 1132.59 L168.233 1123.77 Z" fill="#000000" fill-rule="nonzero" fill-opacity="1" /><path clip-path="url(#clip980)" d="M189.066 1080.75 L222.399 1080.75 L222.399 1083.74 L203.58 1132.59 L196.253 1132.59 L213.962 1086.65 L189.066 1086.65 L189.066 1080.75 Z" fill="#000000" fill-rule="nonzero" fill-opacity="1" /><path clip-path="url(#clip980)" d="M236.149 1080.75 L263.684 1080.75 L263.684 1086.65 L242.573 1086.65 L242.573 1099.36 Q244.1 1098.84 245.628 1098.6 Q247.156 1098.32 248.684 1098.32 Q257.364 1098.32 262.434 1103.08 Q267.503 1107.83 267.503 1115.96 Q267.503 1124.33 262.295 1128.98 Q257.086 1133.6 247.607 1133.6 Q244.343 1133.6 240.941 1133.04 Q237.573 1132.49 233.961 1131.38 L233.961 1124.33 Q237.086 1126.03 240.42 1126.86 Q243.753 1127.69 247.468 1127.69 Q253.475 1127.69 256.982 1124.54 Q260.489 1121.38 260.489 1115.96 Q260.489 1110.54 256.982 1107.38 Q253.475 1104.22 247.468 1104.22 Q244.656 1104.22 241.843 1104.85 Q239.066 1105.47 236.149 1106.79 L236.149 1080.75 Z" fill="#000000" fill-rule="nonzero" fill-opacity="1" /><path clip-path="url(#clip980)" d="M122.712 843.067 L134.17 843.067 L134.17 803.519 L121.705 806.018 L121.705 799.63 L134.101 797.13 L141.115 797.13 L141.115 843.067 L152.573 843.067 L152.573 848.97 L122.712 848.97 L122.712 843.067 Z" fill="#000000" fill-rule="nonzero" fill-opacity="1" /><path clip-path="url(#clip980)" d="M166.74 840.15 L174.066 840.15 L174.066 848.97 L166.74 848.97 L166.74 840.15 Z" fill="#000000" fill-rule="nonzero" fill-opacity="1" /><path clip-path="url(#clip980)" d="M204.344 801.748 Q198.927 801.748 196.184 807.095 Q193.476 812.407 193.476 823.102 Q193.476 833.761 196.184 839.109 Q198.927 844.421 204.344 844.421 Q209.795 844.421 212.503 839.109 Q215.246 833.761 215.246 823.102 Q215.246 812.407 212.503 807.095 Q209.795 801.748 204.344 801.748 M204.344 796.192 Q213.059 796.192 217.642 803.102 Q222.26 809.977 222.26 823.102 Q222.26 836.192 217.642 843.102 Q213.059 849.977 204.344 849.977 Q195.628 849.977 191.01 843.102 Q186.427 836.192 186.427 823.102 Q186.427 809.977 191.01 803.102 Q195.628 796.192 204.344 796.192 Z" fill="#000000" fill-rule="nonzero" fill-opacity="1" /><path clip-path="url(#clip980)" d="M249.586 801.748 Q244.17 801.748 241.427 807.095 Q238.718 812.407 238.718 823.102 Q238.718 833.761 241.427 839.109 Q244.17 844.421 249.586 844.421 Q255.038 844.421 257.746 839.109 Q260.489 833.761 260.489 823.102 Q260.489 812.407 257.746 807.095 Q255.038 801.748 249.586 801.748 M249.586 796.192 Q258.302 796.192 262.885 803.102 Q267.503 809.977 267.503 823.102 Q267.503 836.192 262.885 843.102 Q258.302 849.977 249.586 849.977 Q240.871 849.977 236.253 843.102 Q231.67 836.192 231.67 823.102 Q231.67 809.977 236.253 803.102 Q240.871 796.192 249.586 796.192 Z" fill="#000000" fill-rule="nonzero" fill-opacity="1" /><path clip-path="url(#clip980)" d="M124.205 559.446 L135.663 559.446 L135.663 519.897 L123.198 522.397 L123.198 516.009 L135.594 513.509 L142.608 513.509 L142.608 559.446 L154.066 559.446 L154.066 565.349 L124.205 565.349 L124.205 559.446 Z" fill="#000000" fill-rule="nonzero" fill-opacity="1" /><path clip-path="url(#clip980)" d="M168.233 556.529 L175.559 556.529 L175.559 565.349 L168.233 565.349 L168.233 556.529 Z" fill="#000000" fill-rule="nonzero" fill-opacity="1" /><path clip-path="url(#clip980)" d="M196.878 559.446 L221.357 559.446 L221.357 565.349 L188.441 565.349 L188.441 559.446 Q192.434 555.314 199.309 548.37 Q206.219 541.39 207.989 539.377 Q211.357 535.592 212.677 532.988 Q214.031 530.349 214.031 527.814 Q214.031 523.682 211.114 521.078 Q208.232 518.474 203.58 518.474 Q200.281 518.474 196.601 519.62 Q192.955 520.765 188.788 523.092 L188.788 516.009 Q193.024 514.307 196.705 513.439 Q200.385 512.571 203.441 512.571 Q211.496 512.571 216.288 516.599 Q221.08 520.627 221.08 527.363 Q221.08 530.557 219.864 533.439 Q218.684 536.286 215.524 540.175 Q214.656 541.182 210.003 546.008 Q205.351 550.8 196.878 559.446 Z" fill="#000000" fill-rule="nonzero" fill-opacity="1" /><path clip-path="url(#clip980)" d="M236.149 513.509 L263.684 513.509 L263.684 519.411 L242.573 519.411 L242.573 532.12 Q244.1 531.599 245.628 531.356 Q247.156 531.078 248.684 531.078 Q257.364 531.078 262.434 535.835 Q267.503 540.592 267.503 548.717 Q267.503 557.085 262.295 561.737 Q257.086 566.356 247.607 566.356 Q244.343 566.356 240.941 565.8 Q237.573 565.244 233.961 564.133 L233.961 557.085 Q237.086 558.786 240.42 559.619 Q243.753 560.453 247.468 560.453 Q253.475 560.453 256.982 557.293 Q260.489 554.133 260.489 548.717 Q260.489 543.3 256.982 540.14 Q253.475 536.981 247.468 536.981 Q244.656 536.981 241.843 537.606 Q239.066 538.231 236.149 539.55 L236.149 513.509 Z" fill="#000000" fill-rule="nonzero" fill-opacity="1" /><path clip-path="url(#clip980)" d="M122.712 275.825 L134.17 275.825 L134.17 236.276 L121.705 238.776 L121.705 232.388 L134.101 229.888 L141.115 229.888 L141.115 275.825 L152.573 275.825 L152.573 281.728 L122.712 281.728 L122.712 275.825 Z" fill="#000000" fill-rule="nonzero" fill-opacity="1" /><path clip-path="url(#clip980)" d="M166.74 272.908 L174.066 272.908 L174.066 281.728 L166.74 281.728 L166.74 272.908 Z" fill="#000000" fill-rule="nonzero" fill-opacity="1" /><path clip-path="url(#clip980)" d="M189.413 229.888 L216.948 229.888 L216.948 235.79 L195.837 235.79 L195.837 248.499 Q197.364 247.978 198.892 247.735 Q200.42 247.457 201.948 247.457 Q210.628 247.457 215.698 252.214 Q220.767 256.971 220.767 265.096 Q220.767 273.464 215.559 278.116 Q210.35 282.734 200.871 282.734 Q197.608 282.734 194.205 282.179 Q190.837 281.623 187.226 280.512 L187.226 273.464 Q190.351 275.165 193.684 275.998 Q197.017 276.832 200.732 276.832 Q206.739 276.832 210.246 273.672 Q213.753 270.512 213.753 265.096 Q213.753 259.679 210.246 256.519 Q206.739 253.36 200.732 253.36 Q197.92 253.36 195.108 253.985 Q192.33 254.61 189.413 255.929 L189.413 229.888 Z" fill="#000000" fill-rule="nonzero" fill-opacity="1" /><path clip-path="url(#clip980)" d="M249.586 234.506 Q244.17 234.506 241.427 239.853 Q238.718 245.165 238.718 255.86 Q238.718 266.519 241.427 271.866 Q244.17 277.179 249.586 277.179 Q255.038 277.179 257.746 271.866 Q260.489 266.519 260.489 255.86 Q260.489 245.165 257.746 239.853 Q255.038 234.506 249.586 234.506 M249.586 228.95 Q258.302 228.95 262.885 235.86 Q267.503 242.735 267.503 255.86 Q267.503 268.95 262.885 275.86 Q258.302 282.734 249.586 282.734 Q240.871 282.734 236.253 275.86 Q231.67 268.95 231.67 255.86 Q231.67 242.735 236.253 235.86 Q240.871 228.95 249.586 228.95 Z" fill="#000000" fill-rule="nonzero" fill-opacity="1" /><path clip-path="url(#clip980)" d="M35.6047 1045.01 Q31.2992 1042.61 29.2506 1039.28 Q27.202 1035.94 27.202 1031.43 Q27.202 1025.35 31.4728 1022.06 Q35.7089 1018.76 43.5561 1018.76 L67.0282 1018.76 L67.0282 1025.18 L43.7644 1025.18 Q38.1741 1025.18 35.4658 1027.16 Q32.7575 1029.14 32.7575 1033.2 Q32.7575 1038.17 36.0561 1041.05 Q39.3547 1043.93 45.0491 1043.93 L67.0282 1043.93 L67.0282 1050.35 L43.7644 1050.35 Q38.1394 1050.35 35.4658 1052.33 Q32.7575 1054.31 32.7575 1058.44 Q32.7575 1063.34 36.0908 1066.22 Q39.3894 1069.1 45.0491 1069.1 L67.0282 1069.1 L67.0282 1075.53 L28.1395 1075.53 L28.1395 1069.1 L34.1811 1069.1 Q30.6047 1066.92 28.9034 1063.86 Q27.202 1060.81 27.202 1056.6 Q27.202 1052.37 29.3547 1049.42 Q31.5075 1046.43 35.6047 1045.01 Z" fill="#000000" fill-rule="nonzero" fill-opacity="1" /><path clip-path="url(#clip980)" d="M47.4797 988.341 Q47.4797 996.084 49.2505 999.07 Q51.0213 1002.06 55.2921 1002.06 Q58.6949 1002.06 60.7087 999.834 Q62.6879 997.577 62.6879 993.723 Q62.6879 988.41 58.9379 985.216 Q55.1532 981.987 48.9033 981.987 L47.4797 981.987 L47.4797 988.341 M44.8408 975.598 L67.0282 975.598 L67.0282 981.987 L61.1254 981.987 Q64.6671 984.174 66.3684 987.438 Q68.0351 990.702 68.0351 995.424 Q68.0351 1001.4 64.7018 1004.94 Q61.3337 1008.44 55.7088 1008.44 Q49.1463 1008.44 45.813 1004.07 Q42.4797 999.66 42.4797 990.945 L42.4797 981.987 L41.8547 981.987 Q37.445 981.987 35.0492 984.903 Q32.6186 987.785 32.6186 993.028 Q32.6186 996.362 33.4172 999.521 Q34.2158 1002.68 35.813 1005.6 L29.9103 1005.6 Q28.5561 1002.09 27.8964 998.792 Q27.202 995.493 27.202 992.369 Q27.202 983.931 31.577 979.764 Q35.9519 975.598 44.8408 975.598 Z" fill="#000000" fill-rule="nonzero" fill-opacity="1" /><path clip-path="url(#clip980)" d="M29.2853 937.647 L35.3269 937.647 Q33.9381 940.355 33.2436 943.272 Q32.5492 946.188 32.5492 949.313 Q32.5492 954.07 34.0075 956.466 Q35.4658 958.827 38.3825 958.827 Q40.6047 958.827 41.8894 957.126 Q43.1394 955.424 44.2852 950.285 L44.7713 948.098 Q46.2297 941.292 48.9033 938.445 Q51.5421 935.563 56.299 935.563 Q61.7157 935.563 64.8754 939.869 Q68.0351 944.14 68.0351 951.64 Q68.0351 954.765 67.4101 958.167 Q66.8198 961.535 65.6046 965.285 L59.0074 965.285 Q60.8476 961.744 61.7851 958.306 Q62.6879 954.869 62.6879 951.501 Q62.6879 946.987 61.1601 944.556 Q59.5976 942.126 56.7852 942.126 Q54.181 942.126 52.7921 943.897 Q51.4032 945.633 50.1185 951.57 L49.5977 953.792 Q48.3477 959.73 45.7783 962.369 Q43.1741 965.008 38.6603 965.008 Q33.1742 965.008 30.1881 961.119 Q27.202 957.23 27.202 950.077 Q27.202 946.535 27.7228 943.41 Q28.2436 940.285 29.2853 937.647 Z" fill="#000000" fill-rule="nonzero" fill-opacity="1" /><path clip-path="url(#clip980)" d="M29.2853 900.598 L35.3269 900.598 Q33.9381 903.306 33.2436 906.223 Q32.5492 909.14 32.5492 912.265 Q32.5492 917.022 34.0075 919.418 Q35.4658 921.779 38.3825 921.779 Q40.6047 921.779 41.8894 920.077 Q43.1394 918.376 44.2852 913.237 L44.7713 911.049 Q46.2297 904.244 48.9033 901.397 Q51.5421 898.515 56.299 898.515 Q61.7157 898.515 64.8754 902.82 Q68.0351 907.091 68.0351 914.591 Q68.0351 917.716 67.4101 921.119 Q66.8198 924.487 65.6046 928.237 L59.0074 928.237 Q60.8476 924.695 61.7851 921.258 Q62.6879 917.82 62.6879 914.452 Q62.6879 909.938 61.1601 907.508 Q59.5976 905.077 56.7852 905.077 Q54.181 905.077 52.7921 906.848 Q51.4032 908.584 50.1185 914.522 L49.5977 916.744 Q48.3477 922.681 45.7783 925.32 Q43.1741 927.959 38.6603 927.959 Q33.1742 927.959 30.1881 924.07 Q27.202 920.181 27.202 913.029 Q27.202 909.487 27.7228 906.362 Q28.2436 903.237 29.2853 900.598 Z" fill="#000000" fill-rule="nonzero" fill-opacity="1" /><path clip-path="url(#clip980)" d="M61.1949 859.557 L81.8197 859.557 L81.8197 865.98 L28.1395 865.98 L28.1395 859.557 L34.0422 859.557 Q30.57 857.543 28.9034 854.487 Q27.202 851.397 27.202 847.126 Q27.202 840.043 32.827 835.633 Q38.4519 831.189 47.6185 831.189 Q56.7852 831.189 62.4101 835.633 Q68.0351 840.043 68.0351 847.126 Q68.0351 851.397 66.3684 854.487 Q64.6671 857.543 61.1949 859.557 M47.6185 837.821 Q40.57 837.821 36.5769 840.737 Q32.5492 843.619 32.5492 848.689 Q32.5492 853.758 36.5769 856.675 Q40.57 859.557 47.6185 859.557 Q54.6671 859.557 58.6949 856.675 Q62.6879 853.758 62.6879 848.689 Q62.6879 843.619 58.6949 840.737 Q54.6671 837.821 47.6185 837.821 Z" fill="#000000" fill-rule="nonzero" fill-opacity="1" /><path clip-path="url(#clip980)" d="M32.6186 805.529 Q32.6186 810.668 36.6464 813.654 Q40.6394 816.64 47.6185 816.64 Q54.5977 816.64 58.6254 813.689 Q62.6185 810.703 62.6185 805.529 Q62.6185 800.425 58.5907 797.439 Q54.5629 794.453 47.6185 794.453 Q40.7089 794.453 36.6811 797.439 Q32.6186 800.425 32.6186 805.529 M27.202 805.529 Q27.202 797.196 32.6186 792.439 Q38.0353 787.682 47.6185 787.682 Q57.1671 787.682 62.6185 792.439 Q68.0351 797.196 68.0351 805.529 Q68.0351 813.897 62.6185 818.654 Q57.1671 823.376 47.6185 823.376 Q38.0353 823.376 32.6186 818.654 Q27.202 813.897 27.202 805.529 Z" fill="#000000" fill-rule="nonzero" fill-opacity="1" /><path clip-path="url(#clip980)" d="M29.2853 752.3 L35.3269 752.3 Q33.9381 755.009 33.2436 757.925 Q32.5492 760.842 32.5492 763.967 Q32.5492 768.724 34.0075 771.12 Q35.4658 773.481 38.3825 773.481 Q40.6047 773.481 41.8894 771.779 Q43.1394 770.078 44.2852 764.939 L44.7713 762.752 Q46.2297 755.946 48.9033 753.099 Q51.5421 750.217 56.299 750.217 Q61.7157 750.217 64.8754 754.523 Q68.0351 758.793 68.0351 766.293 Q68.0351 769.418 67.4101 772.821 Q66.8198 776.189 65.6046 779.939 L59.0074 779.939 Q60.8476 776.397 61.7851 772.96 Q62.6879 769.522 62.6879 766.154 Q62.6879 761.641 61.1601 759.21 Q59.5976 756.779 56.7852 756.779 Q54.181 756.779 52.7921 758.55 Q51.4032 760.286 50.1185 766.224 L49.5977 768.446 Q48.3477 774.384 45.7783 777.022 Q43.1741 779.661 38.6603 779.661 Q33.1742 779.661 30.1881 775.772 Q27.202 771.884 27.202 764.731 Q27.202 761.189 27.7228 758.064 Q28.2436 754.939 29.2853 752.3 Z" fill="#000000" fill-rule="nonzero" fill-opacity="1" /><path clip-path="url(#clip980)" d="M28.1395 740.043 L28.1395 733.655 L67.0282 733.655 L67.0282 740.043 L28.1395 740.043 M13.0007 740.043 L13.0007 733.655 L21.0909 733.655 L21.0909 740.043 L13.0007 740.043 Z" fill="#000000" fill-rule="nonzero" fill-opacity="1" /><path clip-path="url(#clip980)" d="M17.0979 713.967 L28.1395 713.967 L28.1395 700.808 L33.1047 700.808 L33.1047 713.967 L54.2157 713.967 Q58.9726 713.967 60.3268 712.683 Q61.681 711.363 61.681 707.37 L61.681 700.808 L67.0282 700.808 L67.0282 707.37 Q67.0282 714.766 64.2851 717.578 Q61.5074 720.391 54.2157 720.391 L33.1047 720.391 L33.1047 725.078 L28.1395 725.078 L28.1395 720.391 L17.0979 720.391 L17.0979 713.967 Z" fill="#000000" fill-rule="nonzero" fill-opacity="1" /><path clip-path="url(#clip980)" d="M28.1395 692.405 L28.1395 686.016 L67.0282 686.016 L67.0282 692.405 L28.1395 692.405 M13.0007 692.405 L13.0007 686.016 L21.0909 686.016 L21.0909 692.405 L13.0007 692.405 Z" fill="#000000" fill-rule="nonzero" fill-opacity="1" /><path clip-path="url(#clip980)" d="M32.6186 657.579 Q32.6186 662.717 36.6464 665.704 Q40.6394 668.69 47.6185 668.69 Q54.5977 668.69 58.6254 665.738 Q62.6185 662.752 62.6185 657.579 Q62.6185 652.474 58.5907 649.488 Q54.5629 646.502 47.6185 646.502 Q40.7089 646.502 36.6811 649.488 Q32.6186 652.474 32.6186 657.579 M27.202 657.579 Q27.202 649.245 32.6186 644.488 Q38.0353 639.732 47.6185 639.732 Q57.1671 639.732 62.6185 644.488 Q68.0351 649.245 68.0351 657.579 Q68.0351 665.947 62.6185 670.704 Q57.1671 675.426 47.6185 675.426 Q38.0353 675.426 32.6186 670.704 Q27.202 665.947 27.202 657.579 Z" fill="#000000" fill-rule="nonzero" fill-opacity="1" /><path clip-path="url(#clip980)" d="M43.5561 596.815 L67.0282 596.815 L67.0282 603.204 L43.7644 603.204 Q38.2436 603.204 35.5005 605.357 Q32.7575 607.509 32.7575 611.815 Q32.7575 616.989 36.0561 619.975 Q39.3547 622.961 45.0491 622.961 L67.0282 622.961 L67.0282 629.384 L28.1395 629.384 L28.1395 622.961 L34.1811 622.961 Q30.6742 620.669 28.9381 617.579 Q27.202 614.454 27.202 610.391 Q27.202 603.69 31.3686 600.253 Q35.5005 596.815 43.5561 596.815 Z" fill="#000000" fill-rule="nonzero" fill-opacity="1" /><path clip-path="url(#clip980)" d="M13.0007 562.058 L13.0007 547.336 L17.9659 547.336 L17.9659 555.669 L71.4379 555.669 L71.4379 547.336 L76.4031 547.336 L76.4031 562.058 L13.0007 562.058 Z" fill="#000000" fill-rule="nonzero" fill-opacity="1" /><path clip-path="url(#clip980)" d="M35.6047 503.448 Q31.2992 501.052 29.2506 497.718 Q27.202 494.385 27.202 489.871 Q27.202 483.795 31.4728 480.496 Q35.7089 477.198 43.5561 477.198 L67.0282 477.198 L67.0282 483.621 L43.7644 483.621 Q38.1741 483.621 35.4658 485.6 Q32.7575 487.58 32.7575 491.642 Q32.7575 496.607 36.0561 499.489 Q39.3547 502.371 45.0491 502.371 L67.0282 502.371 L67.0282 508.795 L43.7644 508.795 Q38.1394 508.795 35.4658 510.774 Q32.7575 512.753 32.7575 516.885 Q32.7575 521.781 36.0908 524.663 Q39.3894 527.545 45.0491 527.545 L67.0282 527.545 L67.0282 533.968 L28.1395 533.968 L28.1395 527.545 L34.1811 527.545 Q30.6047 525.357 28.9034 522.302 Q27.202 519.246 27.202 515.045 Q27.202 510.809 29.3547 507.857 Q31.5075 504.871 35.6047 503.448 Z" fill="#000000" fill-rule="nonzero" fill-opacity="1" /><path clip-path="url(#clip980)" d="M13.0007 449.524 L76.4031 449.524 L76.4031 464.246 L71.4379 464.246 L71.4379 455.948 L17.9659 455.948 L17.9659 464.246 L13.0007 464.246 L13.0007 449.524 Z" fill="#000000" fill-rule="nonzero" fill-opacity="1" /><path clip-path="url(#clip980)" d="M592.668 12.096 L604.861 12.096 L620.295 53.2532 L635.81 12.096 L648.003 12.096 L648.003 72.576 L640.023 72.576 L640.023 19.4686 L624.427 60.9499 L616.203 60.9499 L600.607 19.4686 L600.607 72.576 L592.668 72.576 L592.668 12.096 Z" fill="#000000" fill-rule="nonzero" fill-opacity="1" /><path clip-path="url(#clip980)" d="M681.504 32.4315 Q675.509 32.4315 672.025 37.1306 Q668.541 41.7891 668.541 49.9314 Q668.541 58.0738 671.984 62.7728 Q675.468 67.4314 681.504 67.4314 Q687.459 67.4314 690.942 62.7323 Q694.426 58.0333 694.426 49.9314 Q694.426 41.8701 690.942 37.1711 Q687.459 32.4315 681.504 32.4315 M681.504 26.1121 Q691.226 26.1121 696.776 32.4315 Q702.325 38.7509 702.325 49.9314 Q702.325 61.0714 696.776 67.4314 Q691.226 73.7508 681.504 73.7508 Q671.741 73.7508 666.191 67.4314 Q660.682 61.0714 660.682 49.9314 Q660.682 38.7509 666.191 32.4315 Q671.741 26.1121 681.504 26.1121 Z" fill="#000000" fill-rule="nonzero" fill-opacity="1" /><path clip-path="url(#clip980)" d="M744.536 34.0924 L744.536 9.54393 L751.99 9.54393 L751.99 72.576 L744.536 72.576 L744.536 65.7705 Q742.186 69.8214 738.581 71.8063 Q735.016 73.7508 729.993 73.7508 Q721.77 73.7508 716.585 67.1883 Q711.44 60.6258 711.44 49.9314 Q711.44 39.2371 716.585 32.6746 Q721.77 26.1121 729.993 26.1121 Q735.016 26.1121 738.581 28.0971 Q742.186 30.0415 744.536 34.0924 M719.137 49.9314 Q719.137 58.1548 722.499 62.8538 Q725.902 67.5124 731.816 67.5124 Q737.73 67.5124 741.133 62.8538 Q744.536 58.1548 744.536 49.9314 Q744.536 41.7081 741.133 37.0496 Q737.73 32.3505 731.816 32.3505 Q725.902 32.3505 722.499 37.0496 Q719.137 41.7081 719.137 49.9314 Z" fill="#000000" fill-rule="nonzero" fill-opacity="1" /><path clip-path="url(#clip980)" d="M767.343 27.2059 L774.796 27.2059 L774.796 72.576 L767.343 72.576 L767.343 27.2059 M767.343 9.54393 L774.796 9.54393 L774.796 18.9825 L767.343 18.9825 L767.343 9.54393 Z" fill="#000000" fill-rule="nonzero" fill-opacity="1" /><path clip-path="url(#clip980)" d="M813.361 9.54393 L813.361 15.7418 L806.231 15.7418 Q802.221 15.7418 800.641 17.3622 Q799.102 18.9825 799.102 23.1955 L799.102 27.2059 L811.376 27.2059 L811.376 32.9987 L799.102 32.9987 L799.102 72.576 L791.607 72.576 L791.607 32.9987 L784.478 32.9987 L784.478 27.2059 L791.607 27.2059 L791.607 24.0462 Q791.607 16.471 795.132 13.0277 Q798.656 9.54393 806.312 9.54393 L813.361 9.54393 Z" fill="#000000" fill-rule="nonzero" fill-opacity="1" /><path clip-path="url(#clip980)" d="M819.599 27.2059 L827.053 27.2059 L827.053 72.576 L819.599 72.576 L819.599 27.2059 M819.599 9.54393 L827.053 9.54393 L827.053 18.9825 L819.599 18.9825 L819.599 9.54393 Z" fill="#000000" fill-rule="nonzero" fill-opacity="1" /><path clip-path="url(#clip980)" d="M881.456 48.0275 L881.456 51.6733 L847.186 51.6733 Q847.672 59.3701 851.804 63.421 Q855.976 67.4314 863.389 67.4314 Q867.683 67.4314 871.694 66.3781 Q875.745 65.3249 879.715 63.2184 L879.715 70.267 Q875.704 71.9684 871.491 72.8596 Q867.278 73.7508 862.944 73.7508 Q852.087 73.7508 845.728 67.4314 Q839.408 61.1119 839.408 50.3365 Q839.408 39.1965 845.403 32.6746 Q851.439 26.1121 861.648 26.1121 Q870.803 26.1121 876.109 32.0264 Q881.456 37.9003 881.456 48.0275 M874.003 45.84 Q873.922 39.7232 870.56 36.0774 Q867.238 32.4315 861.729 32.4315 Q855.49 32.4315 851.723 35.9558 Q847.996 39.4801 847.429 45.8805 L874.003 45.84 Z" fill="#000000" fill-rule="nonzero" fill-opacity="1" /><path clip-path="url(#clip980)" d="M923.545 34.0924 L923.545 9.54393 L930.999 9.54393 L930.999 72.576 L923.545 72.576 L923.545 65.7705 Q921.196 69.8214 917.591 71.8063 Q914.026 73.7508 909.003 73.7508 Q900.779 73.7508 895.594 67.1883 Q890.449 60.6258 890.449 49.9314 Q890.449 39.2371 895.594 32.6746 Q900.779 26.1121 909.003 26.1121 Q914.026 26.1121 917.591 28.0971 Q921.196 30.0415 923.545 34.0924 M898.146 49.9314 Q898.146 58.1548 901.508 62.8538 Q904.911 67.5124 910.826 67.5124 Q916.74 67.5124 920.143 62.8538 Q923.545 58.1548 923.545 49.9314 Q923.545 41.7081 920.143 37.0496 Q916.74 32.3505 910.826 32.3505 Q904.911 32.3505 901.508 37.0496 Q898.146 41.7081 898.146 49.9314 Z" fill="#000000" fill-rule="nonzero" fill-opacity="1" /><path clip-path="url(#clip980)" d="M948.256 62.2867 L956.803 62.2867 L956.803 72.576 L948.256 72.576 L948.256 62.2867 M948.256 29.6769 L956.803 29.6769 L956.803 39.9662 L948.256 39.9662 L948.256 29.6769 Z" fill="#000000" fill-rule="nonzero" fill-opacity="1" /><path clip-path="url(#clip980)" d="M1001 12.096 L1013.19 12.096 L1028.63 53.2532 L1044.14 12.096 L1056.33 12.096 L1056.33 72.576 L1048.35 72.576 L1048.35 19.4686 L1032.76 60.9499 L1024.53 60.9499 L1008.94 19.4686 L1008.94 72.576 L1001 72.576 L1001 12.096 Z" fill="#000000" fill-rule="nonzero" fill-opacity="1" /><path clip-path="url(#clip980)" d="M1092.87 49.7694 Q1083.84 49.7694 1080.36 51.8354 Q1076.87 53.9013 1076.87 58.8839 Q1076.87 62.8538 1079.46 65.2034 Q1082.1 67.5124 1086.59 67.5124 Q1092.79 67.5124 1096.52 63.1374 Q1100.29 58.7219 1100.29 51.4303 L1100.29 49.7694 L1092.87 49.7694 M1107.74 46.6907 L1107.74 72.576 L1100.29 72.576 L1100.29 65.6895 Q1097.73 69.8214 1093.93 71.8063 Q1090.12 73.7508 1084.61 73.7508 Q1077.64 73.7508 1073.51 69.8619 Q1069.42 65.9325 1069.42 59.3701 Q1069.42 51.7138 1074.52 47.825 Q1079.67 43.9361 1089.83 43.9361 L1100.29 43.9361 L1100.29 43.2069 Q1100.29 38.0623 1096.88 35.2672 Q1093.52 32.4315 1087.4 32.4315 Q1083.52 32.4315 1079.83 33.3632 Q1076.14 34.295 1072.74 36.1584 L1072.74 29.2718 Q1076.83 27.692 1080.68 26.9223 Q1084.53 26.1121 1088.17 26.1121 Q1098.02 26.1121 1102.88 31.2163 Q1107.74 36.3204 1107.74 46.6907 Z" fill="#000000" fill-rule="nonzero" fill-opacity="1" /><path clip-path="url(#clip980)" d="M1152.02 28.5427 L1152.02 35.5912 Q1148.86 33.9709 1145.45 33.1607 Q1142.05 32.3505 1138.41 32.3505 Q1132.86 32.3505 1130.06 34.0519 Q1127.31 35.7533 1127.31 39.156 Q1127.31 41.7486 1129.29 43.2475 Q1131.28 44.7058 1137.27 46.0426 L1139.82 46.6097 Q1147.76 48.3111 1151.08 51.4303 Q1154.45 54.509 1154.45 60.0587 Q1154.45 66.3781 1149.42 70.0644 Q1144.44 73.7508 1135.69 73.7508 Q1132.05 73.7508 1128.08 73.0216 Q1124.15 72.3329 1119.77 70.9151 L1119.77 63.2184 Q1123.9 65.3654 1127.91 66.4591 Q1131.92 67.5124 1135.85 67.5124 Q1141.12 67.5124 1143.96 65.73 Q1146.79 63.9071 1146.79 60.6258 Q1146.79 57.5877 1144.72 55.9673 Q1142.7 54.3469 1135.77 52.8481 L1133.18 52.2405 Q1126.25 50.7821 1123.17 47.7845 Q1120.1 44.7463 1120.1 39.4801 Q1120.1 33.0797 1124.63 29.5959 Q1129.17 26.1121 1137.51 26.1121 Q1141.65 26.1121 1145.29 26.7198 Q1148.94 27.3274 1152.02 28.5427 Z" fill="#000000" fill-rule="nonzero" fill-opacity="1" /><path clip-path="url(#clip980)" d="M1195.24 28.5427 L1195.24 35.5912 Q1192.08 33.9709 1188.68 33.1607 Q1185.27 32.3505 1181.63 32.3505 Q1176.08 32.3505 1173.28 34.0519 Q1170.53 35.7533 1170.53 39.156 Q1170.53 41.7486 1172.51 43.2475 Q1174.5 44.7058 1180.49 46.0426 L1183.05 46.6097 Q1190.99 48.3111 1194.31 51.4303 Q1197.67 54.509 1197.67 60.0587 Q1197.67 66.3781 1192.65 70.0644 Q1187.66 73.7508 1178.91 73.7508 Q1175.27 73.7508 1171.3 73.0216 Q1167.37 72.3329 1162.99 70.9151 L1162.99 63.2184 Q1167.13 65.3654 1171.14 66.4591 Q1175.15 67.5124 1179.08 67.5124 Q1184.34 67.5124 1187.18 65.73 Q1190.01 63.9071 1190.01 60.6258 Q1190.01 57.5877 1187.95 55.9673 Q1185.92 54.3469 1179 52.8481 L1176.4 52.2405 Q1169.48 50.7821 1166.4 47.7845 Q1163.32 44.7463 1163.32 39.4801 Q1163.32 33.0797 1167.86 29.5959 Q1172.39 26.1121 1180.74 26.1121 Q1184.87 26.1121 1188.52 26.7198 Q1192.16 27.3274 1195.24 28.5427 Z" fill="#000000" fill-rule="nonzero" fill-opacity="1" /><path clip-path="url(#clip980)" d="M1243.12 65.7705 L1243.12 89.8329 L1235.63 89.8329 L1235.63 27.2059 L1243.12 27.2059 L1243.12 34.0924 Q1245.47 30.0415 1249.04 28.0971 Q1252.64 26.1121 1257.62 26.1121 Q1265.89 26.1121 1271.03 32.6746 Q1276.22 39.2371 1276.22 49.9314 Q1276.22 60.6258 1271.03 67.1883 Q1265.89 73.7508 1257.62 73.7508 Q1252.64 73.7508 1249.04 71.8063 Q1245.47 69.8214 1243.12 65.7705 M1268.48 49.9314 Q1268.48 41.7081 1265.08 37.0496 Q1261.71 32.3505 1255.8 32.3505 Q1249.89 32.3505 1246.48 37.0496 Q1243.12 41.7081 1243.12 49.9314 Q1243.12 58.1548 1246.48 62.8538 Q1249.89 67.5124 1255.8 67.5124 Q1261.71 67.5124 1265.08 62.8538 Q1268.48 58.1548 1268.48 49.9314 Z" fill="#000000" fill-rule="nonzero" fill-opacity="1" /><path clip-path="url(#clip980)" d="M1306.15 32.4315 Q1300.16 32.4315 1296.67 37.1306 Q1293.19 41.7891 1293.19 49.9314 Q1293.19 58.0738 1296.63 62.7728 Q1300.12 67.4314 1306.15 67.4314 Q1312.11 67.4314 1315.59 62.7323 Q1319.08 58.0333 1319.08 49.9314 Q1319.08 41.8701 1315.59 37.1711 Q1312.11 32.4315 1306.15 32.4315 M1306.15 26.1121 Q1315.88 26.1121 1321.43 32.4315 Q1326.97 38.7509 1326.97 49.9314 Q1326.97 61.0714 1321.43 67.4314 Q1315.88 73.7508 1306.15 73.7508 Q1296.39 73.7508 1290.84 67.4314 Q1285.33 61.0714 1285.33 49.9314 Q1285.33 38.7509 1290.84 32.4315 Q1296.39 26.1121 1306.15 26.1121 Z" fill="#000000" fill-rule="nonzero" fill-opacity="1" /><path clip-path="url(#clip980)" d="M1368.25 28.5427 L1368.25 35.5912 Q1365.09 33.9709 1361.69 33.1607 Q1358.29 32.3505 1354.64 32.3505 Q1349.09 32.3505 1346.3 34.0519 Q1343.54 35.7533 1343.54 39.156 Q1343.54 41.7486 1345.53 43.2475 Q1347.51 44.7058 1353.51 46.0426 L1356.06 46.6097 Q1364 48.3111 1367.32 51.4303 Q1370.68 54.509 1370.68 60.0587 Q1370.68 66.3781 1365.66 70.0644 Q1360.68 73.7508 1351.93 73.7508 Q1348.28 73.7508 1344.31 73.0216 Q1340.38 72.3329 1336.01 70.9151 L1336.01 63.2184 Q1340.14 65.3654 1344.15 66.4591 Q1348.16 67.5124 1352.09 67.5124 Q1357.36 67.5124 1360.19 65.73 Q1363.03 63.9071 1363.03 60.6258 Q1363.03 57.5877 1360.96 55.9673 Q1358.94 54.3469 1352.01 52.8481 L1349.42 52.2405 Q1342.49 50.7821 1339.41 47.7845 Q1336.33 44.7463 1336.33 39.4801 Q1336.33 33.0797 1340.87 29.5959 Q1345.41 26.1121 1353.75 26.1121 Q1357.88 26.1121 1361.53 26.7198 Q1365.17 27.3274 1368.25 28.5427 Z" fill="#000000" fill-rule="nonzero" fill-opacity="1" /><path clip-path="url(#clip980)" d="M1382.55 27.2059 L1390.01 27.2059 L1390.01 72.576 L1382.55 72.576 L1382.55 27.2059 M1382.55 9.54393 L1390.01 9.54393 L1390.01 18.9825 L1382.55 18.9825 L1382.55 9.54393 Z" fill="#000000" fill-rule="nonzero" fill-opacity="1" /><path clip-path="url(#clip980)" d="M1412.98 14.324 L1412.98 27.2059 L1428.33 27.2059 L1428.33 32.9987 L1412.98 32.9987 L1412.98 57.6282 Q1412.98 63.1779 1414.47 64.7578 Q1416.01 66.3376 1420.67 66.3376 L1428.33 66.3376 L1428.33 72.576 L1420.67 72.576 Q1412.04 72.576 1408.76 69.3758 Q1405.48 66.1351 1405.48 57.6282 L1405.48 32.9987 L1400.01 32.9987 L1400.01 27.2059 L1405.48 27.2059 L1405.48 14.324 L1412.98 14.324 Z" fill="#000000" fill-rule="nonzero" fill-opacity="1" /><path clip-path="url(#clip980)" d="M1438.13 27.2059 L1445.59 27.2059 L1445.59 72.576 L1438.13 72.576 L1438.13 27.2059 M1438.13 9.54393 L1445.59 9.54393 L1445.59 18.9825 L1438.13 18.9825 L1438.13 9.54393 Z" fill="#000000" fill-rule="nonzero" fill-opacity="1" /><path clip-path="url(#clip980)" d="M1478.76 32.4315 Q1472.77 32.4315 1469.28 37.1306 Q1465.8 41.7891 1465.8 49.9314 Q1465.8 58.0738 1469.24 62.7728 Q1472.73 67.4314 1478.76 67.4314 Q1484.72 67.4314 1488.2 62.7323 Q1491.68 58.0333 1491.68 49.9314 Q1491.68 41.8701 1488.2 37.1711 Q1484.72 32.4315 1478.76 32.4315 M1478.76 26.1121 Q1488.48 26.1121 1494.03 32.4315 Q1499.58 38.7509 1499.58 49.9314 Q1499.58 61.0714 1494.03 67.4314 Q1488.48 73.7508 1478.76 73.7508 Q1469 73.7508 1463.45 67.4314 Q1457.94 61.0714 1457.94 49.9314 Q1457.94 38.7509 1463.45 32.4315 Q1469 26.1121 1478.76 26.1121 Z" fill="#000000" fill-rule="nonzero" fill-opacity="1" /><path clip-path="url(#clip980)" d="M1549.65 45.1919 L1549.65 72.576 L1542.2 72.576 L1542.2 45.4349 Q1542.2 38.994 1539.69 35.7938 Q1537.18 32.5936 1532.15 32.5936 Q1526.12 32.5936 1522.63 36.4419 Q1519.15 40.2903 1519.15 46.9338 L1519.15 72.576 L1511.66 72.576 L1511.66 27.2059 L1519.15 27.2059 L1519.15 34.2544 Q1521.82 30.163 1525.43 28.1376 Q1529.07 26.1121 1533.81 26.1121 Q1541.63 26.1121 1545.64 30.9732 Q1549.65 35.7938 1549.65 45.1919 Z" fill="#000000" fill-rule="nonzero" fill-opacity="1" /><path clip-path="url(#clip980)" d="M1611.51 49.7694 Q1602.48 49.7694 1598.99 51.8354 Q1595.51 53.9013 1595.51 58.8839 Q1595.51 62.8538 1598.1 65.2034 Q1600.74 67.5124 1605.23 67.5124 Q1611.43 67.5124 1615.16 63.1374 Q1618.92 58.7219 1618.92 51.4303 L1618.92 49.7694 L1611.51 49.7694 M1626.38 46.6907 L1626.38 72.576 L1618.92 72.576 L1618.92 65.6895 Q1616.37 69.8214 1612.56 71.8063 Q1608.76 73.7508 1603.25 73.7508 Q1596.28 73.7508 1592.15 69.8619 Q1588.06 65.9325 1588.06 59.3701 Q1588.06 51.7138 1593.16 47.825 Q1598.3 43.9361 1608.47 43.9361 L1618.92 43.9361 L1618.92 43.2069 Q1618.92 38.0623 1615.52 35.2672 Q1612.16 32.4315 1606.04 32.4315 Q1602.15 32.4315 1598.47 33.3632 Q1594.78 34.295 1591.38 36.1584 L1591.38 29.2718 Q1595.47 27.692 1599.32 26.9223 Q1603.17 26.1121 1606.81 26.1121 Q1616.66 26.1121 1621.52 31.2163 Q1626.38 36.3204 1626.38 46.6907 Z" fill="#000000" fill-rule="nonzero" fill-opacity="1" /><path clip-path="url(#clip980)" d="M1664.7 9.54393 L1664.7 15.7418 L1657.57 15.7418 Q1653.56 15.7418 1651.98 17.3622 Q1650.44 18.9825 1650.44 23.1955 L1650.44 27.2059 L1662.71 27.2059 L1662.71 32.9987 L1650.44 32.9987 L1650.44 72.576 L1642.95 72.576 L1642.95 32.9987 L1635.82 32.9987 L1635.82 27.2059 L1642.95 27.2059 L1642.95 24.0462 Q1642.95 16.471 1646.47 13.0277 Q1649.99 9.54393 1657.65 9.54393 L1664.7 9.54393 Z" fill="#000000" fill-rule="nonzero" fill-opacity="1" /><path clip-path="url(#clip980)" d="M1676.85 14.324 L1676.85 27.2059 L1692.2 27.2059 L1692.2 32.9987 L1676.85 32.9987 L1676.85 57.6282 Q1676.85 63.1779 1678.35 64.7578 Q1679.89 66.3376 1684.55 66.3376 L1692.2 66.3376 L1692.2 72.576 L1684.55 72.576 Q1675.92 72.576 1672.64 69.3758 Q1669.36 66.1351 1669.36 57.6282 L1669.36 32.9987 L1663.89 32.9987 L1663.89 27.2059 L1669.36 27.2059 L1669.36 14.324 L1676.85 14.324 Z" fill="#000000" fill-rule="nonzero" fill-opacity="1" /><path clip-path="url(#clip980)" d="M1740.82 48.0275 L1740.82 51.6733 L1706.54 51.6733 Q1707.03 59.3701 1711.16 63.421 Q1715.34 67.4314 1722.75 67.4314 Q1727.04 67.4314 1731.05 66.3781 Q1735.1 65.3249 1739.07 63.2184 L1739.07 70.267 Q1735.06 71.9684 1730.85 72.8596 Q1726.64 73.7508 1722.3 73.7508 Q1711.45 73.7508 1705.09 67.4314 Q1698.77 61.1119 1698.77 50.3365 Q1698.77 39.1965 1704.76 32.6746 Q1710.8 26.1121 1721.01 26.1121 Q1730.16 26.1121 1735.47 32.0264 Q1740.82 37.9003 1740.82 48.0275 M1733.36 45.84 Q1733.28 39.7232 1729.92 36.0774 Q1726.6 32.4315 1721.09 32.4315 Q1714.85 32.4315 1711.08 35.9558 Q1707.35 39.4801 1706.79 45.8805 L1733.36 45.84 Z" fill="#000000" fill-rule="nonzero" fill-opacity="1" /><path clip-path="url(#clip980)" d="M1779.34 34.1734 Q1778.08 33.4443 1776.58 33.1202 Q1775.13 32.7556 1773.34 32.7556 Q1767.02 32.7556 1763.62 36.8875 Q1760.26 40.9789 1760.26 48.6757 L1760.26 72.576 L1752.77 72.576 L1752.77 27.2059 L1760.26 27.2059 L1760.26 34.2544 Q1762.61 30.1225 1766.38 28.1376 Q1770.14 26.1121 1775.53 26.1121 Q1776.3 26.1121 1777.23 26.2337 Q1778.16 26.3147 1779.3 26.5172 L1779.34 34.1734 Z" fill="#000000" fill-rule="nonzero" fill-opacity="1" /><path clip-path="url(#clip980)" d="M1842.53 44.2197 Q1845.17 45.1109 1847.64 48.0275 Q1850.15 50.9442 1852.66 56.0483 L1860.97 72.576 L1852.17 72.576 L1844.44 57.061 Q1841.44 50.9847 1838.6 48.9997 Q1835.81 47.0148 1830.95 47.0148 L1822.04 47.0148 L1822.04 72.576 L1813.85 72.576 L1813.85 12.096 L1832.33 12.096 Q1842.7 12.096 1847.8 16.4305 Q1852.9 20.7649 1852.9 29.5149 Q1852.9 35.2267 1850.23 38.994 Q1847.6 42.7613 1842.53 44.2197 M1822.04 18.8205 L1822.04 40.2903 L1832.33 40.2903 Q1838.24 40.2903 1841.24 37.5762 Q1844.28 34.8216 1844.28 29.5149 Q1844.28 24.2082 1841.24 21.5346 Q1838.24 18.8205 1832.33 18.8205 L1822.04 18.8205 Z" fill="#000000" fill-rule="nonzero" fill-opacity="1" /><path clip-path="url(#clip980)" d="M1866.68 54.671 L1866.68 27.2059 L1874.13 27.2059 L1874.13 54.3874 Q1874.13 60.8284 1876.64 64.0691 Q1879.15 67.2693 1884.18 67.2693 Q1890.21 67.2693 1893.7 63.421 Q1897.22 59.5726 1897.22 52.9291 L1897.22 27.2059 L1904.67 27.2059 L1904.67 72.576 L1897.22 72.576 L1897.22 65.6084 Q1894.51 69.7404 1890.9 71.7658 Q1887.34 73.7508 1882.6 73.7508 Q1874.78 73.7508 1870.73 68.8897 Q1866.68 64.0286 1866.68 54.671 M1885.43 26.1121 L1885.43 26.1121 Z" fill="#000000" fill-rule="nonzero" fill-opacity="1" /><path clip-path="url(#clip980)" d="M1957.74 45.1919 L1957.74 72.576 L1950.29 72.576 L1950.29 45.4349 Q1950.29 38.994 1947.78 35.7938 Q1945.26 32.5936 1940.24 32.5936 Q1934.21 32.5936 1930.72 36.4419 Q1927.24 40.2903 1927.24 46.9338 L1927.24 72.576 L1919.74 72.576 L1919.74 27.2059 L1927.24 27.2059 L1927.24 34.2544 Q1929.91 30.163 1933.52 28.1376 Q1937.16 26.1121 1941.9 26.1121 Q1949.72 26.1121 1953.73 30.9732 Q1957.74 35.7938 1957.74 45.1919 Z" fill="#000000" fill-rule="nonzero" fill-opacity="1" /><path clip-path="url(#clip980)" d="M1974.51 62.2867 L1983.06 62.2867 L1983.06 72.576 L1974.51 72.576 L1974.51 62.2867 M1974.51 29.6769 L1983.06 29.6769 L1983.06 39.9662 L1974.51 39.9662 L1974.51 29.6769 Z" fill="#000000" fill-rule="nonzero" fill-opacity="1" /><path clip-path="url(#clip980)" d="M2035.03 65.6895 L2063.59 65.6895 L2063.59 72.576 L2025.19 72.576 L2025.19 65.6895 Q2029.85 60.8689 2037.87 52.7671 Q2045.93 44.6248 2048 42.2752 Q2051.92 37.8598 2053.46 34.8216 Q2055.04 31.7429 2055.04 28.7857 Q2055.04 23.9651 2051.64 20.927 Q2048.28 17.8888 2042.85 17.8888 Q2039 17.8888 2034.71 19.2256 Q2030.45 20.5624 2025.59 23.2765 L2025.59 15.0127 Q2030.54 13.0277 2034.83 12.015 Q2039.12 11.0023 2042.69 11.0023 Q2052.09 11.0023 2057.68 15.7013 Q2063.27 20.4004 2063.27 28.2591 Q2063.27 31.9859 2061.85 35.3482 Q2060.47 38.6699 2056.79 43.2069 Q2055.77 44.3817 2050.34 50.0125 Q2044.92 55.6027 2035.03 65.6895 Z" fill="#000000" fill-rule="nonzero" fill-opacity="1" /><polyline clip-path="url(#clip982)" style="stroke:#009af9; stroke-linecap:round; stroke-linejoin:round; stroke-width:8; stroke-opacity:1; fill:none" points="361.501,823.05 366.334,840.007 371.167,856.835 376,873.515 380.833,890.031 385.666,906.367 390.5,922.506 395.333,938.432 400.166,954.129 404.999,969.582 409.832,984.775 414.665,999.693 419.498,1014.32 424.332,1028.64 429.165,1042.65 433.998,1056.32 438.831,1069.64 443.664,1082.61 448.497,1095.2 453.33,1107.4 458.164,1119.21 462.997,1130.61 467.83,1141.59 472.663,1152.13 477.496,1162.24 482.329,1171.89 487.162,1181.07 491.996,1189.79 496.829,1198.03 501.662,1205.78 506.495,1213.03 511.328,1219.78 516.161,1226.01 520.994,1231.74 525.828,1236.94 530.661,1241.61 535.494,1245.75 540.327,1249.35 545.16,1252.42 549.993,1254.94 554.826,1256.92 559.66,1258.35 564.493,1259.23 569.326,1259.56 574.159,1259.34 578.992,1258.57 583.825,1257.26 588.658,1255.39 593.492,1252.98 598.325,1250.03 603.158,1246.53 607.991,1242.5 612.824,1237.94 617.657,1232.84 622.49,1227.23 627.324,1221.1 632.157,1214.45 636.99,1207.3 641.823,1199.66 646.656,1191.52 651.489,1182.9 656.322,1173.81 661.156,1164.25 665.989,1154.24 670.822,1143.78 675.655,1132.89 680.488,1121.58 685.321,1109.86 690.154,1097.73 694.988,1085.22 699.821,1072.33 704.654,1059.08 709.487,1045.48 714.32,1031.54 719.153,1017.28 723.986,1002.72 728.82,987.856 733.653,972.718 738.486,957.317 743.319,941.669 748.152,925.788 752.985,909.691 757.818,893.395 762.652,876.914 767.485,860.266 772.318,843.468 777.151,826.535 781.984,809.486 786.817,792.337 791.65,775.105 796.484,757.808 801.317,740.462 806.15,723.086 810.983,705.696 815.816,688.31 820.649,670.945 825.482,653.619 830.316,636.349 835.149,619.152 839.982,602.045 844.815,585.047 849.648,568.172 854.481,551.439 859.314,534.865 864.148,518.465 868.981,502.256 873.814,486.254 878.647,470.476 883.48,454.937 888.313,439.652 893.147,424.638 897.98,409.908 902.813,395.478 907.646,381.362 912.479,367.574 917.312,354.129 922.145,341.038 926.979,328.317 931.812,315.976 936.645,304.029 941.478,292.488 946.311,281.364 951.144,270.668 955.977,260.411 960.811,250.603 965.644,241.254 970.477,232.373 975.31,223.97 980.143,216.052 984.976,208.627 989.809,201.704 994.643,195.288 999.476,189.387 1004.31,184.006 1009.14,179.15 1013.98,174.825 1018.81,171.034 1023.64,167.782 1028.47,165.072 1033.31,162.906 1038.14,161.287 1042.97,160.216 1047.81,159.695 1052.64,159.723 1057.47,160.301 1062.31,161.429 1067.14,163.105 1071.97,165.327 1076.81,168.093 1081.64,171.401 1086.47,175.247 1091.31,179.627 1096.14,184.537 1100.97,189.972 1105.8,195.927 1110.64,202.395 1115.47,209.371 1120.3,216.847 1125.14,224.815 1129.97,233.268 1134.8,242.198 1139.64,251.595 1144.47,261.449 1149.3,271.752 1154.14,282.493 1158.97,293.661 1163.8,305.245 1168.64,317.233 1173.47,329.613 1178.3,342.373 1183.14,355.501 1187.97,368.982 1192.8,382.805 1197.63,396.954 1202.47,411.415 1207.3,426.175 1212.13,441.218 1216.97,456.53 1221.8,472.094 1226.63,487.896 1231.47,503.92 1236.3,520.149 1241.13,536.568 1245.97,553.16 1250.8,569.908 1255.63,586.796 1260.47,603.807 1265.3,620.924 1270.13,638.129 1274.96,655.406 1279.8,672.737 1284.63,690.104 1289.46,707.491 1294.3,724.881 1299.13,742.255 1303.96,759.596 1308.8,776.888 1313.63,794.112 1318.46,811.252 1323.3,828.289 1328.13,845.209 1332.96,861.993 1337.8,878.624 1342.63,895.086 1347.46,911.363 1352.3,927.438 1357.13,943.296 1361.96,958.919 1366.79,974.293 1371.63,989.403 1376.46,1004.23 1381.29,1018.77 1386.13,1032.99 1390.96,1046.9 1395.79,1060.46 1400.63,1073.68 1405.46,1086.53 1410.29,1099 1415.13,1111.09 1419.96,1122.77 1424.79,1134.04 1429.63,1144.88 1434.46,1155.29 1439.29,1165.26 1444.12,1174.77 1448.96,1183.81 1453.79,1192.38 1458.62,1200.47 1463.46,1208.06 1468.29,1215.16 1473.12,1221.75 1477.96,1227.83 1482.79,1233.39 1487.62,1238.43 1492.46,1242.94 1497.29,1246.92 1502.12,1250.36 1506.96,1253.25 1511.79,1255.61 1516.62,1257.42 1521.46,1258.68 1526.29,1259.39 1531.12,1259.55 1535.95,1259.16 1540.79,1258.23 1545.62,1256.74 1550.45,1254.71 1555.29,1252.13 1560.12,1249.01 1564.95,1245.35 1569.79,1241.15 1574.62,1236.42 1579.45,1231.17 1584.29,1225.39 1589.12,1219.1 1593.95,1212.3 1598.79,1205 1603.62,1197.2 1608.45,1188.91 1613.28,1180.15 1618.12,1170.91 1622.95,1161.21 1627.78,1151.06 1632.62,1140.47 1637.45,1129.45 1642.28,1118.01 1647.12,1106.16 1651.95,1093.92 1656.78,1081.28 1661.62,1068.28 1666.45,1054.92 1671.28,1041.22 1676.12,1027.18 1680.95,1012.82 1685.78,998.165 1690.62,983.219 1695.45,967.998 1700.28,952.519 1705.11,936.798 1709.95,920.849 1714.78,904.689 1719.61,888.334 1724.45,871.8 1729.28,855.104 1734.11,838.262 1738.95,821.292 1743.78,804.21 1748.61,787.033 1753.45,769.78 1758.28,752.465 1763.11,735.108 1767.95,717.726 1772.78,700.335 1777.61,682.954 1782.44,665.599 1787.28,648.289 1792.11,631.039 1796.94,613.869 1801.78,596.794 1806.61,579.831 1811.44,562.999 1816.28,546.313 1821.11,529.79 1825.94,513.447 1830.78,497.301 1835.61,481.366 1840.44,465.66 1845.28,450.198 1850.11,434.995 1854.94,420.066 1859.78,405.427 1864.61,391.093 1869.44,377.077 1874.27,363.393 1879.11,350.055 1883.94,337.077 1888.77,324.472 1893.61,312.251 1898.44,300.428 1903.27,289.014 1908.11,278.021 1912.94,267.459 1917.77,257.339 1922.61,247.672 1927.44,238.466 1932.27,229.732 1937.11,221.477 1941.94,213.71 1946.77,206.439 1951.6,199.672 1956.44,193.414 1961.27,187.672 1966.1,182.453 1970.94,177.76 1975.77,173.599 1980.6,169.974 1985.44,166.889 1990.27,164.346 1995.1,162.349 1999.94,160.899 2004.77,159.997 2009.6,159.645 2014.44,159.843 2019.27,160.59 2024.1,161.887 2028.94,163.731 2033.77,166.121 2038.6,169.055 2043.43,172.529 2048.27,176.54 2053.1,181.084 2057.93,186.157 2062.77,191.752 2067.6,197.866 2072.43,204.492 2077.27,211.622 2082.1,219.251 2086.93,227.369 2091.77,235.97 2096.6,245.045 2101.43,254.584 2106.27,264.578 2111.1,275.017 2115.93,285.89 2120.77,297.188 2125.6,308.897 2130.43,321.007 2135.26,333.506 2140.1,346.381 2144.93,359.619 2149.76,373.207 2154.6,387.132 2159.43,401.379 2164.26,415.934 2169.1,430.782 2173.93,445.91 2178.76,461.301 2183.6,476.94 2188.43,492.812 2193.26,508.901 2198.1,525.191 2202.93,541.665 2207.76,558.307 2212.59,575.1 2217.43,592.027 2222.26,609.073 2227.09,626.218 2231.93,643.447 2236.76,660.743 2241.59,678.087 2246.43,695.462 2251.26,712.852 2256.09,730.239 2260.93,747.604 2265.76,764.932 2270.59,782.205 2275.43,799.405 2280.26,816.515 2285.09,833.518 2289.93,850.397 2294.76,867.136 "/>
<polyline clip-path="url(#clip982)" style="stroke:#e26f46; stroke-linecap:round; stroke-linejoin:round; stroke-width:8; stroke-opacity:1; fill:none" points="361.501,823.05 366.334,840.044 371.167,856.982 376,873.846 380.833,890.62 385.666,907.287 390.5,923.829 395.333,940.231 400.166,956.477 404.999,972.549 409.832,988.432 414.665,1004.11 419.498,1019.57 424.332,1034.79 429.165,1049.76 433.998,1064.46 438.831,1078.88 443.664,1093 448.497,1106.82 453.33,1120.31 458.164,1133.46 462.997,1146.27 467.83,1158.7 472.663,1170.77 477.496,1182.44 482.329,1193.71 487.162,1204.57 491.996,1215 496.829,1225.01 501.662,1234.56 506.495,1243.66 511.328,1252.29 516.161,1260.45 520.994,1268.13 525.828,1275.31 530.661,1282 535.494,1288.17 540.327,1293.83 545.16,1298.96 549.993,1303.57 554.826,1307.63 559.66,1311.15 564.493,1314.13 569.326,1316.54 574.159,1318.4 578.992,1319.68 583.825,1320.4 588.658,1320.54 593.492,1320.22 598.325,1319.49 603.158,1318.33 607.991,1316.76 612.824,1314.76 617.657,1312.34 622.49,1309.5 627.324,1306.23 632.157,1302.54 636.99,1298.42 641.823,1293.89 646.656,1288.95 651.489,1283.59 656.322,1277.83 661.156,1271.66 665.989,1265.09 670.822,1258.13 675.655,1250.78 680.488,1243.05 685.321,1234.95 690.154,1226.48 694.988,1217.66 699.821,1208.48 704.654,1198.96 709.487,1189.11 714.32,1178.94 719.153,1168.45 723.986,1157.66 728.82,1146.58 733.653,1135.22 738.486,1123.58 743.319,1111.69 748.152,1099.55 752.985,1087.17 757.818,1074.57 762.652,1061.76 767.485,1048.75 772.318,1035.56 777.151,1022.19 781.984,1008.67 786.817,995 791.65,981.199 796.484,967.28 801.317,953.256 806.15,939.143 810.983,924.954 815.816,910.703 820.649,896.405 825.482,882.073 830.316,867.722 835.149,853.367 839.982,839.021 844.815,824.699 849.648,810.416 854.481,796.186 859.314,782.022 864.148,767.94 868.981,753.953 873.814,740.075 878.647,726.32 883.48,712.703 888.313,699.236 893.147,685.933 897.98,672.808 902.813,659.874 907.646,647.143 912.479,634.63 917.312,622.345 922.145,610.303 926.979,598.514 931.812,586.991 936.645,575.746 941.478,564.79 946.311,554.135 951.144,543.791 955.977,533.769 960.811,524.08 965.644,514.734 970.477,505.739 975.31,497.107 980.143,488.847 984.976,480.966 989.809,473.474 994.643,466.38 999.476,459.691 1004.31,453.415 1009.14,447.559 1013.98,442.131 1018.81,437.138 1023.64,432.585 1028.47,428.48 1033.31,424.829 1038.14,421.636 1042.97,418.909 1047.81,416.652 1052.64,414.87 1057.47,413.569 1062.31,412.754 1067.14,412.428 1071.97,412.537 1076.81,412.976 1081.64,413.746 1086.47,414.847 1091.31,416.283 1096.14,418.053 1100.97,420.159 1105.8,422.6 1110.64,425.375 1115.47,428.485 1120.3,431.928 1125.14,435.701 1129.97,439.804 1134.8,444.232 1139.64,448.983 1144.47,454.053 1149.3,459.439 1154.14,465.136 1158.97,471.139 1163.8,477.443 1168.64,484.044 1173.47,490.934 1178.3,498.108 1183.14,505.559 1187.97,513.281 1192.8,521.266 1197.63,529.507 1202.47,537.996 1207.3,546.724 1212.13,555.685 1216.97,564.868 1221.8,574.265 1226.63,583.868 1231.47,593.666 1236.3,603.65 1241.13,613.811 1245.97,624.138 1250.8,634.621 1255.63,645.251 1260.47,656.016 1265.3,666.905 1270.13,677.909 1274.96,689.016 1279.8,700.215 1284.63,711.495 1289.46,722.845 1294.3,734.253 1299.13,745.708 1303.96,757.2 1308.8,768.715 1313.63,780.243 1318.46,791.773 1323.3,803.292 1328.13,814.79 1332.96,826.254 1337.8,837.673 1342.63,849.036 1347.46,860.331 1352.3,871.548 1357.13,882.673 1361.96,893.698 1366.79,904.609 1371.63,915.397 1376.46,926.05 1381.29,936.558 1386.13,946.91 1390.96,957.095 1395.79,967.103 1400.63,976.924 1405.46,986.548 1410.29,995.964 1415.13,1005.16 1419.96,1014.14 1424.79,1022.87 1429.63,1031.37 1434.46,1039.6 1439.29,1047.58 1444.12,1055.29 1448.96,1062.71 1453.79,1069.85 1458.62,1076.69 1463.46,1083.23 1468.29,1089.46 1473.12,1095.38 1477.96,1100.97 1482.79,1106.22 1487.62,1111.14 1492.46,1115.72 1497.29,1119.95 1502.12,1123.82 1506.96,1127.34 1511.79,1130.48 1516.62,1133.26 1521.46,1135.66 1526.29,1137.68 1531.12,1139.31 1535.95,1140.56 1540.79,1141.41 1545.62,1141.87 1550.45,1141.93 1555.29,1141.73 1560.12,1141.29 1564.95,1140.61 1569.79,1139.69 1574.62,1138.53 1579.45,1137.13 1584.29,1135.49 1589.12,1133.61 1593.95,1131.48 1598.79,1129.12 1603.62,1126.51 1608.45,1123.67 1613.28,1120.59 1618.12,1117.27 1622.95,1113.72 1627.78,1109.94 1632.62,1105.93 1637.45,1101.7 1642.28,1097.25 1647.12,1092.57 1651.95,1087.69 1656.78,1082.59 1661.62,1077.29 1666.45,1071.78 1671.28,1066.08 1676.12,1060.19 1680.95,1054.11 1685.78,1047.85 1690.62,1041.42 1695.45,1034.82 1700.28,1028.05 1705.11,1021.13 1709.95,1014.06 1714.78,1006.85 1719.61,999.496 1724.45,992.017 1729.28,984.416 1734.11,976.701 1738.95,968.879 1743.78,960.958 1748.61,952.945 1753.45,944.848 1758.28,936.676 1763.11,928.435 1767.95,920.135 1772.78,911.784 1777.61,903.389 1782.44,894.959 1787.28,886.503 1792.11,878.029 1796.94,869.545 1801.78,861.059 1806.61,852.582 1811.44,844.119 1816.28,835.682 1821.11,827.277 1825.94,818.913 1830.78,810.599 1835.61,802.343 1840.44,794.154 1845.28,786.039 1850.11,778.008 1854.94,770.067 1859.78,762.227 1864.61,754.493 1869.44,746.875 1874.27,739.38 1879.11,732.017 1883.94,724.792 1888.77,717.713 1893.61,710.788 1898.44,704.024 1903.27,697.428 1908.11,691.007 1912.94,684.769 1917.77,678.719 1922.61,672.865 1927.44,667.213 1932.27,661.77 1937.11,656.54 1941.94,651.531 1946.77,646.749 1951.6,642.198 1956.44,637.884 1961.27,633.814 1966.1,629.991 1970.94,626.421 1975.77,623.108 1980.6,620.058 1985.44,617.275 1990.27,614.762 1995.1,612.525 1999.94,610.566 2004.77,608.891 2009.6,607.502 2014.44,606.404 2019.27,605.598 2024.1,605.09 2028.94,604.881 2033.77,604.919 2038.6,605.094 2043.43,605.405 2048.27,605.851 2053.1,606.434 2057.93,607.155 2062.77,608.013 2067.6,609.009 2072.43,610.143 2077.27,611.416 2082.1,612.826 2086.93,614.374 2091.77,616.058 2096.6,617.879 2101.43,619.834 2106.27,621.924 2111.1,624.147 2115.93,626.501 2120.77,628.985 2125.6,631.598 2130.43,634.336 2135.26,637.199 2140.1,640.185 2144.93,643.29 2149.76,646.512 2154.6,649.849 2159.43,653.298 2164.26,656.856 2169.1,660.52 2173.93,664.287 2178.76,668.153 2183.6,672.116 2188.43,676.171 2193.26,680.315 2198.1,684.544 2202.93,688.855 2207.76,693.243 2212.59,697.704 2217.43,702.234 2222.26,706.828 2227.09,711.484 2231.93,716.195 2236.76,720.958 2241.59,725.768 2246.43,730.62 2251.26,735.509 2256.09,740.432 2260.93,745.382 2265.76,750.356 2270.59,755.348 2275.43,760.353 2280.26,765.367 2285.09,770.384 2289.93,775.4 2294.76,780.408 "/>
<polyline clip-path="url(#clip982)" style="stroke:#008000; stroke-linecap:round; stroke-linejoin:round; stroke-width:8; stroke-opacity:1; fill:none" stroke-dasharray="4, 8" points="361.501,823.05 366.334,837.968 371.167,852.866 376,867.73 380.833,882.549 385.666,897.311 390.5,912.004 395.333,926.617 400.166,941.138 404.999,955.557 409.832,969.863 414.665,984.045 419.498,998.094 424.332,1012 429.165,1025.75 433.998,1039.34 438.831,1052.76 443.664,1066 448.497,1079.06 453.33,1091.91 458.164,1104.57 462.997,1117.01 467.83,1129.23 472.663,1141.23 477.496,1153 482.329,1164.52 487.162,1175.8 491.996,1186.83 496.829,1197.61 501.662,1208.11 506.495,1218.35 511.328,1228.31 516.161,1237.98 520.994,1247.36 525.828,1256.44 530.661,1265.22 535.494,1273.69 540.327,1281.84 545.16,1289.66 549.993,1297.15 554.826,1304.3 559.66,1311.1 564.493,1317.55 569.326,1323.63 574.159,1329.34 578.992,1334.66 583.825,1339.59 588.658,1344.12 593.492,1348.25 598.325,1351.95 603.158,1355.23 607.991,1358.07 612.824,1360.46 617.657,1362.4 622.49,1363.87 627.324,1364.87 632.157,1365.38 636.99,1365.41 641.823,1364.93 646.656,1363.95 651.489,1362.45 656.322,1360.42 661.156,1357.85 665.989,1354.74 670.822,1351.08 675.655,1346.87 680.488,1342.09 685.321,1336.76 690.154,1330.85 694.988,1324.39 699.821,1317.35 704.654,1309.74 709.487,1301.58 714.32,1292.85 719.153,1283.56 723.986,1273.72 728.82,1263.33 733.653,1252.4 738.486,1240.93 743.319,1228.95 748.152,1216.43 752.985,1203.28 757.818,1189.58 762.652,1175.46 767.485,1161.04 772.318,1146.44 777.151,1131.75 781.984,1117.04 786.817,1102.38 791.65,1087.82 796.484,1073.39 801.317,1059.1 806.15,1044.98 810.983,1030.99 815.816,1017.12 820.649,1003.33 825.482,989.563 830.316,975.749 835.149,961.876 839.982,947.96 844.815,934.001 849.648,920.005 854.481,905.974 859.314,891.916 864.148,877.835 868.981,863.74 873.814,849.64 878.647,835.545 883.48,821.464 888.313,807.411 893.147,793.397 897.98,779.438 902.813,765.549 907.646,751.745 912.479,738.043 917.312,724.463 922.145,711.016 926.979,697.712 931.812,684.564 936.645,671.584 941.478,658.782 946.311,646.171 951.144,633.762 955.977,621.566 960.811,609.596 965.644,597.862 970.477,586.375 975.31,575.147 980.143,564.188 984.976,553.511 989.809,543.125 994.643,533.042 999.476,523.273 1004.31,513.828 1009.14,504.718 1013.98,495.955 1018.81,487.547 1023.64,479.507 1028.47,471.844 1033.31,464.569 1038.14,457.692 1042.97,451.224 1047.81,445.174 1052.64,439.521 1057.47,434.19 1062.31,429.223 1067.14,424.667 1071.97,420.563 1076.81,416.946 1081.64,413.845 1086.47,411.284 1091.31,409.281 1096.14,407.847 1100.97,406.99 1105.8,406.709 1110.64,407 1115.47,407.85 1120.3,409.244 1125.14,411.158 1129.97,413.563 1134.8,416.427 1139.64,419.707 1144.47,423.359 1149.3,427.331 1154.14,431.565 1158.97,435.998 1163.8,440.561 1168.64,445.18 1173.47,449.772 1178.3,454.286 1183.14,458.869 1187.97,463.574 1192.8,468.425 1197.63,473.445 1202.47,478.655 1207.3,484.072 1212.13,489.712 1216.97,495.59 1221.8,501.718 1226.63,508.104 1231.47,514.757 1236.3,521.683 1241.13,528.884 1245.97,536.361 1250.8,544.115 1255.63,552.142 1260.47,560.437 1265.3,568.993 1270.13,577.8 1274.96,586.853 1279.8,596.151 1284.63,605.681 1289.46,615.435 1294.3,625.4 1299.13,635.566 1303.96,645.922 1308.8,656.457 1313.63,667.16 1318.46,678.019 1323.3,689.024 1328.13,700.162 1332.96,711.423 1337.8,722.795 1342.63,734.267 1347.46,745.826 1352.3,757.461 1357.13,769.16 1361.96,780.912 1366.79,792.704 1371.63,804.525 1376.46,816.361 1381.29,828.202 1386.13,840.034 1390.96,851.845 1395.79,863.624 1400.63,875.357 1405.46,887.032 1410.29,898.636 1415.13,910.156 1419.96,921.58 1424.79,932.895 1429.63,944.093 1434.46,955.166 1439.29,966.103 1444.12,976.895 1448.96,987.532 1453.79,998.003 1458.62,1008.3 1463.46,1018.41 1468.29,1028.32 1473.12,1038.03 1477.96,1047.53 1482.79,1056.8 1487.62,1065.84 1492.46,1074.65 1497.29,1083.2 1502.12,1091.49 1506.96,1099.52 1511.79,1107.27 1516.62,1114.74 1521.46,1121.92 1526.29,1128.8 1531.12,1135.38 1535.95,1141.64 1540.79,1147.59 1545.62,1153.21 1550.45,1158.5 1555.29,1163.45 1560.12,1168.04 1564.95,1172.27 1569.79,1176.12 1574.62,1179.59 1579.45,1182.67 1584.29,1185.35 1589.12,1187.61 1593.95,1189.47 1598.79,1190.89 1603.62,1191.89 1608.45,1192.45 1613.28,1192.57 1618.12,1192.24 1622.95,1191.46 1627.78,1190.23 1632.62,1188.53 1637.45,1186.37 1642.28,1183.74 1647.12,1180.64 1651.95,1177.07 1656.78,1173.02 1661.62,1168.5 1666.45,1163.5 1671.28,1158.02 1676.12,1152.07 1680.95,1145.64 1685.78,1138.75 1690.62,1131.39 1695.45,1123.57 1700.28,1115.3 1705.11,1106.59 1709.95,1097.45 1714.78,1087.91 1719.61,1077.99 1724.45,1067.71 1729.28,1057.11 1734.11,1046.22 1738.95,1035.07 1743.78,1023.72 1748.61,1012.21 1753.45,1000.58 1758.28,988.889 1763.11,977.194 1767.95,965.555 1772.78,954.037 1777.61,942.705 1782.44,931.542 1787.28,920.508 1792.11,909.592 1796.94,898.787 1801.78,888.086 1806.61,877.483 1811.44,866.973 1816.28,856.553 1821.11,846.219 1825.94,835.97 1830.78,825.807 1835.61,815.73 1840.44,805.74 1845.28,795.842 1850.11,786.038 1854.94,776.335 1859.78,766.738 1864.61,757.256 1869.44,747.897 1874.27,738.671 1879.11,729.588 1883.94,720.661 1888.77,711.903 1893.61,703.327 1898.44,694.938 1903.27,686.748 1908.11,678.766 1912.94,671.004 1917.77,663.47 1922.61,656.176 1927.44,649.128 1932.27,642.337 1937.11,635.809 1941.94,629.552 1946.77,623.572 1951.6,617.876 1956.44,612.47 1961.27,607.358 1966.1,602.544 1970.94,598.034 1975.77,593.83 1980.6,589.936 1985.44,586.353 1990.27,583.084 1995.1,580.13 1999.94,577.492 2004.77,575.17 2009.6,573.163 2014.44,571.473 2019.27,570.1 2024.1,569.025 2028.94,568.221 2033.77,567.668 2038.6,567.345 2043.43,567.233 2048.27,567.317 2053.1,567.582 2057.93,568.016 2062.77,568.608 2067.6,569.352 2072.43,570.24 2077.27,571.268 2082.1,572.435 2086.93,573.741 2091.77,575.186 2096.6,576.777 2101.43,578.517 2106.27,580.416 2111.1,582.484 2115.93,584.732 2120.77,587.17 2125.6,589.793 2130.43,592.606 2135.26,595.614 2140.1,598.821 2144.93,602.23 2149.76,605.844 2154.6,609.664 2159.43,613.692 2164.26,617.928 2169.1,622.373 2173.93,627.024 2178.76,631.882 2183.6,636.943 2188.43,642.205 2193.26,647.663 2198.1,653.314 2202.93,659.153 2207.76,665.173 2212.59,671.369 2217.43,677.733 2222.26,684.257 2227.09,690.935 2231.93,697.759 2236.76,704.723 2241.59,711.817 2246.43,719.035 2251.26,726.367 2256.09,733.805 2260.93,741.339 2265.76,748.962 2270.59,756.664 2275.43,764.435 2280.26,772.267 2285.09,780.15 2289.93,788.073 2294.76,796.027 "/>
<polyline clip-path="url(#clip982)" style="stroke:#008000; stroke-linecap:round; stroke-linejoin:round; stroke-width:8; stroke-opacity:1; fill:none" points="361.501,823.05 366.334,839.625 371.167,856.129 376,872.543 380.833,888.848 385.666,905.027 390.5,921.064 395.333,936.943 400.166,952.648 404.999,968.165 409.832,983.48 414.665,998.579 419.498,1013.45 424.332,1028.08 429.165,1042.46 433.998,1056.58 438.831,1070.43 443.664,1084 448.497,1097.27 453.33,1110.25 458.164,1122.92 462.997,1135.27 467.83,1147.3 472.663,1159.01 477.496,1170.38 482.329,1181.4 487.162,1192.08 491.996,1202.41 496.829,1212.38 501.662,1221.98 506.495,1231.21 511.328,1240.07 516.161,1248.54 520.994,1256.63 525.828,1264.33 530.661,1271.63 535.494,1278.52 540.327,1285.01 545.16,1291.09 549.993,1296.75 554.826,1301.98 559.66,1306.79 564.493,1311.15 569.326,1315.07 574.159,1318.54 578.992,1321.56 583.825,1324.1 588.658,1326.18 593.492,1327.77 598.325,1328.87 603.158,1329.47 607.991,1329.56 612.824,1329.14 617.657,1328.19 622.49,1326.7 627.324,1324.66 632.157,1322.06 636.99,1318.9 641.823,1315.19 646.656,1310.91 651.489,1306 656.322,1300.44 661.156,1294.2 665.989,1287.27 670.822,1279.65 675.655,1271.34 680.488,1262.37 685.321,1252.76 690.154,1242.55 694.988,1231.8 699.821,1220.55 704.654,1208.88 709.487,1196.86 714.32,1184.59 719.153,1172.16 723.986,1159.69 728.82,1147.32 733.653,1135.6 738.486,1124.5 743.319,1113.89 748.152,1103.6 752.985,1093.52 757.818,1083.53 762.652,1073.54 767.485,1063.45 772.318,1053.22 777.151,1042.77 781.984,1032.09 786.817,1021.14 791.65,1009.92 796.484,998.427 801.317,986.676 806.15,974.678 810.983,962.444 815.816,949.988 820.649,937.324 825.482,924.466 830.316,911.429 835.149,898.227 839.982,884.878 844.815,871.396 849.648,857.799 854.481,844.104 859.314,830.329 864.148,816.491 868.981,802.611 873.814,788.706 878.647,774.797 883.48,760.904 888.313,747.044 893.147,733.235 897.98,719.495 902.813,705.843 907.646,692.297 912.479,678.875 917.312,665.595 922.145,652.476 926.979,639.536 931.812,626.791 936.645,614.261 941.478,601.962 946.311,589.912 951.144,578.129 955.977,566.63 960.811,555.433 965.644,544.554 970.477,534.011 975.31,523.82 980.143,513.999 984.976,504.564 989.809,495.532 994.643,486.923 999.476,478.753 1004.31,471.041 1009.14,463.805 1013.98,457.059 1018.81,450.82 1023.64,445.103 1028.47,439.921 1033.31,435.289 1038.14,431.219 1042.97,427.723 1047.81,424.812 1052.64,422.498 1057.47,420.79 1062.31,419.698 1067.14,419.23 1071.97,419.395 1076.81,420.199 1081.64,421.65 1086.47,423.753 1091.31,426.641 1096.14,430.313 1100.97,434.531 1105.8,439.085 1110.64,443.793 1115.47,448.502 1120.3,453.088 1125.14,457.455 1129.97,461.536 1134.8,465.294 1139.64,468.719 1144.47,471.831 1149.3,474.678 1154.14,477.337 1158.97,479.913 1163.8,482.541 1168.64,485.385 1173.47,488.636 1178.3,492.514 1183.14,497.028 1187.97,501.92 1192.8,507.189 1197.63,512.834 1202.47,518.855 1207.3,525.251 1212.13,532.017 1216.97,539.149 1221.8,546.64 1226.63,554.485 1231.47,562.674 1236.3,571.197 1241.13,580.044 1245.97,589.201 1250.8,598.655 1255.63,608.391 1260.47,618.393 1265.3,628.648 1270.13,639.146 1274.96,649.869 1279.8,660.799 1284.63,671.921 1289.46,683.217 1294.3,694.669 1299.13,706.261 1303.96,717.976 1308.8,729.798 1313.63,741.709 1318.46,753.693 1323.3,765.734 1328.13,777.814 1332.96,789.919 1337.8,802.031 1342.63,814.134 1347.46,826.212 1352.3,838.25 1357.13,850.23 1361.96,862.138 1366.79,873.957 1371.63,885.672 1376.46,897.267 1381.29,908.726 1386.13,920.038 1390.96,931.191 1395.79,942.173 1400.63,952.972 1405.46,963.575 1410.29,973.973 1415.13,984.152 1419.96,994.102 1424.79,1003.81 1429.63,1013.27 1434.46,1022.48 1439.29,1031.41 1444.12,1040.07 1448.96,1048.43 1453.79,1056.51 1458.62,1064.28 1463.46,1071.74 1468.29,1078.88 1473.12,1085.69 1477.96,1092.17 1482.79,1098.32 1487.62,1104.12 1492.46,1109.57 1497.29,1114.67 1502.12,1119.41 1506.96,1123.78 1511.79,1127.77 1516.62,1131.37 1521.46,1134.58 1526.29,1137.38 1531.12,1139.77 1535.95,1141.75 1540.79,1143.29 1545.62,1144.41 1550.45,1145.09 1555.29,1145.32 1560.12,1145.11 1564.95,1144.44 1569.79,1143.32 1574.62,1141.73 1579.45,1139.67 1584.29,1137.15 1589.12,1134.15 1593.95,1130.68 1598.79,1126.72 1603.62,1122.29 1608.45,1117.37 1613.28,1111.97 1618.12,1106.09 1622.95,1099.71 1627.78,1092.82 1632.62,1085.17 1637.45,1076.89 1642.28,1068.11 1647.12,1059 1651.95,1049.68 1656.78,1040.26 1661.62,1030.85 1666.45,1021.54 1671.28,1012.39 1676.12,1003.47 1680.95,994.818 1685.78,986.471 1690.62,978.442 1695.45,970.733 1700.28,963.331 1705.11,956.21 1709.95,949.329 1714.78,942.632 1719.61,936.05 1724.45,929.5 1729.28,922.927 1734.11,916.348 1738.95,909.752 1743.78,903.132 1748.61,896.479 1753.45,889.788 1758.28,883.055 1763.11,876.277 1767.95,869.452 1772.78,862.58 1777.61,855.662 1782.44,848.702 1787.28,841.703 1792.11,834.672 1796.94,827.615 1801.78,820.54 1806.61,813.458 1811.44,806.38 1816.28,799.318 1821.11,792.288 1825.94,785.303 1830.78,778.375 1835.61,771.513 1840.44,764.727 1845.28,758.024 1850.11,751.417 1854.94,744.913 1859.78,738.522 1864.61,732.255 1869.44,726.122 1874.27,720.132 1879.11,714.295 1883.94,708.622 1888.77,703.123 1893.61,697.808 1898.44,692.688 1903.27,687.773 1908.11,683.075 1912.94,678.603 1917.77,674.369 1922.61,670.384 1927.44,666.658 1932.27,663.203 1937.11,660.031 1941.94,657.149 1946.77,654.557 1951.6,652.253 1956.44,650.229 1961.27,648.48 1966.1,646.995 1970.94,645.764 1975.77,644.773 1980.6,644.01 1985.44,643.456 1990.27,643.095 1995.1,642.906 1999.94,642.867 2004.77,642.956 2009.6,643.147 2014.44,643.413 2019.27,643.725 2024.1,644.053 2028.94,644.364 2033.77,644.624 2038.6,644.797 2043.43,644.846 2048.27,644.752 2053.1,644.564 2057.93,644.298 2062.77,643.969 2067.6,643.591 2072.43,643.178 2077.27,642.743 2082.1,642.303 2086.93,641.87 2091.77,641.46 2096.6,641.086 2101.43,640.763 2106.27,640.507 2111.1,640.331 2115.93,640.25 2120.77,640.279 2125.6,640.433 2130.43,640.727 2135.26,641.175 2140.1,641.793 2144.93,642.595 2149.76,643.597 2154.6,644.8 2159.43,646.19 2164.26,647.769 2169.1,649.539 2173.93,651.501 2178.76,653.658 2183.6,656.008 2188.43,658.552 2193.26,661.289 2198.1,664.218 2202.93,667.337 2207.76,670.642 2212.59,674.132 2217.43,677.802 2222.26,681.647 2227.09,685.664 2231.93,689.846 2236.76,694.187 2241.59,698.681 2246.43,703.32 2251.26,708.097 2256.09,713.006 2260.93,718.039 2265.76,723.191 2270.59,728.452 2275.43,733.815 2280.26,739.271 2285.09,744.813 2289.93,750.432 2294.76,756.119 "/>
<path clip-path="url(#clip980)" d="M1444.66 554.876 L2284.45 554.876 L2284.45 166.076 L1444.66 166.076  Z" fill="#ffffff" fill-rule="evenodd" fill-opacity="1"/>
<polyline clip-path="url(#clip980)" style="stroke:#000000; stroke-linecap:round; stroke-linejoin:round; stroke-width:4; stroke-opacity:1; fill:none" points="1444.66,554.876 2284.45,554.876 2284.45,166.076 1444.66,166.076 1444.66,554.876 "/>
<polyline clip-path="url(#clip980)" style="stroke:#009af9; stroke-linecap:round; stroke-linejoin:round; stroke-width:12; stroke-opacity:1; fill:none" points="1467.43,243.836 1604.05,243.836 "/>
<path clip-path="url(#clip980)" d="M1660.19 219.617 L1660.19 226.457 Q1656.2 224.548 1652.65 223.61 Q1649.11 222.673 1645.81 222.673 Q1640.08 222.673 1636.96 224.895 Q1633.87 227.117 1633.87 231.214 Q1633.87 234.652 1635.92 236.423 Q1638 238.159 1643.76 239.235 L1648 240.103 Q1655.85 241.596 1659.56 245.381 Q1663.31 249.131 1663.31 255.45 Q1663.31 262.985 1658.24 266.874 Q1653.21 270.763 1643.45 270.763 Q1639.77 270.763 1635.6 269.929 Q1631.47 269.096 1627.03 267.464 L1627.03 260.242 Q1631.3 262.638 1635.4 263.853 Q1639.49 265.068 1643.45 265.068 Q1649.46 265.068 1652.72 262.707 Q1655.99 260.346 1655.99 255.971 Q1655.99 252.152 1653.63 249.999 Q1651.3 247.846 1645.95 246.77 L1641.68 245.936 Q1633.83 244.374 1630.33 241.041 Q1626.82 237.707 1626.82 231.77 Q1626.82 224.895 1631.65 220.937 Q1636.51 216.978 1645.01 216.978 Q1648.66 216.978 1652.45 217.638 Q1656.23 218.298 1660.19 219.617 Z" fill="#000000" fill-rule="nonzero" fill-opacity="1" /><path clip-path="url(#clip980)" d="M1673.97 230.867 L1680.36 230.867 L1680.36 269.756 L1673.97 269.756 L1673.97 230.867 M1673.97 215.728 L1680.36 215.728 L1680.36 223.818 L1673.97 223.818 L1673.97 215.728 Z" fill="#000000" fill-rule="nonzero" fill-opacity="1" /><path clip-path="url(#clip980)" d="M1724.01 238.332 Q1726.4 234.027 1729.74 231.978 Q1733.07 229.93 1737.58 229.93 Q1743.66 229.93 1746.96 234.2 Q1750.26 238.436 1750.26 246.284 L1750.26 269.756 L1743.83 269.756 L1743.83 246.492 Q1743.83 240.902 1741.85 238.193 Q1739.88 235.485 1735.81 235.485 Q1730.85 235.485 1727.97 238.784 Q1725.08 242.082 1725.08 247.777 L1725.08 269.756 L1718.66 269.756 L1718.66 246.492 Q1718.66 240.867 1716.68 238.193 Q1714.7 235.485 1710.57 235.485 Q1705.67 235.485 1702.79 238.818 Q1699.91 242.117 1699.91 247.777 L1699.91 269.756 L1693.49 269.756 L1693.49 230.867 L1699.91 230.867 L1699.91 236.909 Q1702.1 233.332 1705.15 231.631 Q1708.21 229.93 1712.41 229.93 Q1716.65 229.93 1719.6 232.082 Q1722.58 234.235 1724.01 238.332 Z" fill="#000000" fill-rule="nonzero" fill-opacity="1" /><path clip-path="url(#clip980)" d="M1769.18 263.922 L1769.18 284.547 L1762.76 284.547 L1762.76 230.867 L1769.18 230.867 L1769.18 236.77 Q1771.19 233.298 1774.25 231.631 Q1777.34 229.93 1781.61 229.93 Q1788.69 229.93 1793.1 235.555 Q1797.55 241.179 1797.55 250.346 Q1797.55 259.513 1793.1 265.138 Q1788.69 270.763 1781.61 270.763 Q1777.34 270.763 1774.25 269.096 Q1771.19 267.395 1769.18 263.922 M1790.92 250.346 Q1790.92 243.298 1788 239.304 Q1785.12 235.277 1780.05 235.277 Q1774.98 235.277 1772.06 239.304 Q1769.18 243.298 1769.18 250.346 Q1769.18 257.395 1772.06 261.422 Q1774.98 265.415 1780.05 265.415 Q1785.12 265.415 1788 261.422 Q1790.92 257.395 1790.92 250.346 Z" fill="#000000" fill-rule="nonzero" fill-opacity="1" /><path clip-path="url(#clip980)" d="M1808.14 215.728 L1814.53 215.728 L1814.53 269.756 L1808.14 269.756 L1808.14 215.728 Z" fill="#000000" fill-rule="nonzero" fill-opacity="1" /><path clip-path="url(#clip980)" d="M1861.16 248.714 L1861.16 251.839 L1831.78 251.839 Q1832.2 258.436 1835.74 261.909 Q1839.32 265.346 1845.67 265.346 Q1849.35 265.346 1852.79 264.443 Q1856.26 263.54 1859.67 261.735 L1859.67 267.777 Q1856.23 269.235 1852.62 269.999 Q1849.01 270.763 1845.29 270.763 Q1835.99 270.763 1830.53 265.346 Q1825.12 259.929 1825.12 250.693 Q1825.12 241.145 1830.26 235.555 Q1835.43 229.93 1844.18 229.93 Q1852.03 229.93 1856.58 234.999 Q1861.16 240.034 1861.16 248.714 M1854.77 246.839 Q1854.7 241.596 1851.82 238.471 Q1848.97 235.346 1844.25 235.346 Q1838.9 235.346 1835.67 238.367 Q1832.48 241.388 1831.99 246.874 L1854.77 246.839 Z" fill="#000000" fill-rule="nonzero" fill-opacity="1" /><path clip-path="url(#clip980)" d="M1871.92 217.916 L1901.71 217.916 L1901.71 223.818 L1878.94 223.818 L1878.94 239.096 L1899.49 239.096 L1899.49 244.999 L1878.94 244.999 L1878.94 269.756 L1871.92 269.756 L1871.92 217.916 Z" fill="#000000" fill-rule="nonzero" fill-opacity="1" /><path clip-path="url(#clip980)" d="M1912.83 217.916 L1923.28 217.916 L1936.51 253.193 L1949.8 217.916 L1960.26 217.916 L1960.26 269.756 L1953.42 269.756 L1953.42 224.235 L1940.05 259.79 L1933 259.79 L1919.63 224.235 L1919.63 269.756 L1912.83 269.756 L1912.83 217.916 Z" fill="#000000" fill-rule="nonzero" fill-opacity="1" /><path clip-path="url(#clip980)" d="M1973.38 217.916 L1980.43 217.916 L1980.43 249.409 Q1980.43 257.742 1983.45 261.422 Q1986.47 265.068 1993.24 265.068 Q1999.98 265.068 2003 261.422 Q2006.02 257.742 2006.02 249.409 L2006.02 217.916 L2013.07 217.916 L2013.07 250.277 Q2013.07 260.415 2008.03 265.589 Q2003.03 270.763 1993.24 270.763 Q1983.42 270.763 1978.38 265.589 Q1973.38 260.415 1973.38 250.277 L1973.38 217.916 Z" fill="#000000" fill-rule="nonzero" fill-opacity="1" /><polyline clip-path="url(#clip980)" style="stroke:#e26f46; stroke-linecap:round; stroke-linejoin:round; stroke-width:12; stroke-opacity:1; fill:none" points="1467.43,321.596 1604.05,321.596 "/>
<path clip-path="url(#clip980)" d="M1651.4 323.21 Q1653.66 323.974 1655.78 326.474 Q1657.93 328.974 1660.08 333.349 L1667.2 347.516 L1659.67 347.516 L1653.04 334.217 Q1650.47 329.009 1648.04 327.307 Q1645.64 325.606 1641.47 325.606 L1633.83 325.606 L1633.83 347.516 L1626.82 347.516 L1626.82 295.676 L1642.65 295.676 Q1651.54 295.676 1655.92 299.391 Q1660.29 303.106 1660.29 310.606 Q1660.29 315.502 1658 318.731 Q1655.74 321.96 1651.4 323.21 M1633.83 301.44 L1633.83 319.842 L1642.65 319.842 Q1647.72 319.842 1650.29 317.516 Q1652.9 315.155 1652.9 310.606 Q1652.9 306.058 1650.29 303.766 Q1647.72 301.44 1642.65 301.44 L1633.83 301.44 Z" fill="#000000" fill-rule="nonzero" fill-opacity="1" /><path clip-path="url(#clip980)" d="M1706.02 326.474 L1706.02 329.599 L1676.65 329.599 Q1677.06 336.196 1680.6 339.669 Q1684.18 343.106 1690.54 343.106 Q1694.22 343.106 1697.65 342.203 Q1701.13 341.3 1704.53 339.495 L1704.53 345.537 Q1701.09 346.995 1697.48 347.759 Q1693.87 348.523 1690.15 348.523 Q1680.85 348.523 1675.4 343.106 Q1669.98 337.689 1669.98 328.453 Q1669.98 318.905 1675.12 313.315 Q1680.29 307.69 1689.04 307.69 Q1696.89 307.69 1701.44 312.759 Q1706.02 317.794 1706.02 326.474 M1699.63 324.599 Q1699.56 319.356 1696.68 316.231 Q1693.83 313.106 1689.11 313.106 Q1683.76 313.106 1680.54 316.127 Q1677.34 319.148 1676.85 324.634 L1699.63 324.599 Z" fill="#000000" fill-rule="nonzero" fill-opacity="1" /><path clip-path="url(#clip980)" d="M1736.19 293.488 L1736.19 298.801 L1730.08 298.801 Q1726.65 298.801 1725.29 300.19 Q1723.97 301.578 1723.97 305.19 L1723.97 308.627 L1734.49 308.627 L1734.49 313.592 L1723.97 313.592 L1723.97 347.516 L1717.55 347.516 L1717.55 313.592 L1711.44 313.592 L1711.44 308.627 L1717.55 308.627 L1717.55 305.919 Q1717.55 299.426 1720.57 296.474 Q1723.59 293.488 1730.15 293.488 L1736.19 293.488 Z" fill="#000000" fill-rule="nonzero" fill-opacity="1" /><path clip-path="url(#clip980)" d="M1774.81 326.474 L1774.81 329.599 L1745.43 329.599 Q1745.85 336.196 1749.39 339.669 Q1752.97 343.106 1759.32 343.106 Q1763 343.106 1766.44 342.203 Q1769.91 341.3 1773.31 339.495 L1773.31 345.537 Q1769.88 346.995 1766.26 347.759 Q1762.65 348.523 1758.94 348.523 Q1749.63 348.523 1744.18 343.106 Q1738.76 337.689 1738.76 328.453 Q1738.76 318.905 1743.9 313.315 Q1749.08 307.69 1757.83 307.69 Q1765.67 307.69 1770.22 312.759 Q1774.81 317.794 1774.81 326.474 M1768.42 324.599 Q1768.35 319.356 1765.47 316.231 Q1762.62 313.106 1757.9 313.106 Q1752.55 313.106 1749.32 316.127 Q1746.13 319.148 1745.64 324.634 L1768.42 324.599 Z" fill="#000000" fill-rule="nonzero" fill-opacity="1" /><path clip-path="url(#clip980)" d="M1807.83 314.599 Q1806.75 313.974 1805.47 313.696 Q1804.22 313.384 1802.69 313.384 Q1797.27 313.384 1794.35 316.926 Q1791.47 320.433 1791.47 327.03 L1791.47 347.516 L1785.05 347.516 L1785.05 308.627 L1791.47 308.627 L1791.47 314.669 Q1793.49 311.127 1796.72 309.426 Q1799.94 307.69 1804.56 307.69 Q1805.22 307.69 1806.02 307.794 Q1806.82 307.863 1807.79 308.037 L1807.83 314.599 Z" fill="#000000" fill-rule="nonzero" fill-opacity="1" /><path clip-path="url(#clip980)" d="M1846.23 326.474 L1846.23 329.599 L1816.85 329.599 Q1817.27 336.196 1820.81 339.669 Q1824.39 343.106 1830.74 343.106 Q1834.42 343.106 1837.86 342.203 Q1841.33 341.3 1844.74 339.495 L1844.74 345.537 Q1841.3 346.995 1837.69 347.759 Q1834.08 348.523 1830.36 348.523 Q1821.06 348.523 1815.6 343.106 Q1810.19 337.689 1810.19 328.453 Q1810.19 318.905 1815.33 313.315 Q1820.5 307.69 1829.25 307.69 Q1837.1 307.69 1841.65 312.759 Q1846.23 317.794 1846.23 326.474 M1839.84 324.599 Q1839.77 319.356 1836.89 316.231 Q1834.04 313.106 1829.32 313.106 Q1823.97 313.106 1820.74 316.127 Q1817.55 319.148 1817.06 324.634 L1839.84 324.599 Z" fill="#000000" fill-rule="nonzero" fill-opacity="1" /><path clip-path="url(#clip980)" d="M1889.04 324.044 L1889.04 347.516 L1882.65 347.516 L1882.65 324.252 Q1882.65 318.731 1880.5 315.988 Q1878.35 313.245 1874.04 313.245 Q1868.87 313.245 1865.88 316.544 Q1862.9 319.842 1862.9 325.537 L1862.9 347.516 L1856.47 347.516 L1856.47 308.627 L1862.9 308.627 L1862.9 314.669 Q1865.19 311.162 1868.28 309.426 Q1871.4 307.69 1875.46 307.69 Q1882.17 307.69 1885.6 311.856 Q1889.04 315.988 1889.04 324.044 Z" fill="#000000" fill-rule="nonzero" fill-opacity="1" /><path clip-path="url(#clip980)" d="M1929.77 310.12 L1929.77 316.092 Q1927.06 314.599 1924.32 313.87 Q1921.61 313.106 1918.83 313.106 Q1912.62 313.106 1909.18 317.064 Q1905.74 320.988 1905.74 328.106 Q1905.74 335.224 1909.18 339.182 Q1912.62 343.106 1918.83 343.106 Q1921.61 343.106 1924.32 342.377 Q1927.06 341.613 1929.77 340.12 L1929.77 346.023 Q1927.1 347.273 1924.21 347.898 Q1921.37 348.523 1918.14 348.523 Q1909.35 348.523 1904.18 343.002 Q1899.01 337.481 1899.01 328.106 Q1899.01 318.592 1904.21 313.141 Q1909.46 307.69 1918.55 307.69 Q1921.51 307.69 1924.32 308.315 Q1927.13 308.905 1929.77 310.12 Z" fill="#000000" fill-rule="nonzero" fill-opacity="1" /><path clip-path="url(#clip980)" d="M1974.14 326.474 L1974.14 329.599 L1944.77 329.599 Q1945.19 336.196 1948.73 339.669 Q1952.3 343.106 1958.66 343.106 Q1962.34 343.106 1965.78 342.203 Q1969.25 341.3 1972.65 339.495 L1972.65 345.537 Q1969.21 346.995 1965.6 347.759 Q1961.99 348.523 1958.28 348.523 Q1948.97 348.523 1943.52 343.106 Q1938.1 337.689 1938.1 328.453 Q1938.1 318.905 1943.24 313.315 Q1948.42 307.69 1957.17 307.69 Q1965.01 307.69 1969.56 312.759 Q1974.14 317.794 1974.14 326.474 M1967.76 324.599 Q1967.69 319.356 1964.8 316.231 Q1961.96 313.106 1957.24 313.106 Q1951.89 313.106 1948.66 316.127 Q1945.46 319.148 1944.98 324.634 L1967.76 324.599 Z" fill="#000000" fill-rule="nonzero" fill-opacity="1" /><polyline clip-path="url(#clip980)" style="stroke:#008000; stroke-linecap:round; stroke-linejoin:round; stroke-width:12; stroke-opacity:1; fill:none" stroke-dasharray="6, 12" points="1467.43,399.356 1604.05,399.356 "/>
<path clip-path="url(#clip980)" d="M1626.82 373.436 L1636.26 373.436 L1659.25 416.804 L1659.25 373.436 L1666.06 373.436 L1666.06 425.276 L1656.61 425.276 L1633.63 381.908 L1633.63 425.276 L1626.82 425.276 L1626.82 373.436 Z" fill="#000000" fill-rule="nonzero" fill-opacity="1" /><path clip-path="url(#clip980)" d="M1713 404.234 L1713 407.359 L1683.63 407.359 Q1684.04 413.956 1687.58 417.429 Q1691.16 420.866 1697.51 420.866 Q1701.19 420.866 1704.63 419.963 Q1708.1 419.06 1711.51 417.255 L1711.51 423.297 Q1708.07 424.755 1704.46 425.519 Q1700.85 426.283 1697.13 426.283 Q1687.83 426.283 1682.38 420.866 Q1676.96 415.449 1676.96 406.213 Q1676.96 396.665 1682.1 391.075 Q1687.27 385.45 1696.02 385.45 Q1703.87 385.45 1708.42 390.519 Q1713 395.554 1713 404.234 M1706.61 402.359 Q1706.54 397.116 1703.66 393.991 Q1700.81 390.866 1696.09 390.866 Q1690.74 390.866 1687.51 393.887 Q1684.32 396.908 1683.83 402.394 L1706.61 402.359 Z" fill="#000000" fill-rule="nonzero" fill-opacity="1" /><path clip-path="url(#clip980)" d="M1722.83 409.929 L1722.83 386.387 L1729.22 386.387 L1729.22 409.686 Q1729.22 415.206 1731.37 417.984 Q1733.52 420.727 1737.83 420.727 Q1743 420.727 1745.99 417.429 Q1749.01 414.13 1749.01 408.436 L1749.01 386.387 L1755.4 386.387 L1755.4 425.276 L1749.01 425.276 L1749.01 419.304 Q1746.68 422.845 1743.59 424.581 Q1740.53 426.283 1736.47 426.283 Q1729.77 426.283 1726.3 422.116 Q1722.83 417.949 1722.83 409.929 M1738.9 385.45 L1738.9 385.45 Z" fill="#000000" fill-rule="nonzero" fill-opacity="1" /><path clip-path="url(#clip980)" d="M1791.09 392.359 Q1790.01 391.734 1788.73 391.456 Q1787.48 391.144 1785.95 391.144 Q1780.53 391.144 1777.62 394.686 Q1774.74 398.193 1774.74 404.79 L1774.74 425.276 L1768.31 425.276 L1768.31 386.387 L1774.74 386.387 L1774.74 392.429 Q1776.75 388.887 1779.98 387.186 Q1783.21 385.45 1787.83 385.45 Q1788.49 385.45 1789.28 385.554 Q1790.08 385.623 1791.06 385.797 L1791.09 392.359 Z" fill="#000000" fill-rule="nonzero" fill-opacity="1" /><path clip-path="url(#clip980)" d="M1815.47 405.727 Q1807.72 405.727 1804.74 407.498 Q1801.75 409.269 1801.75 413.54 Q1801.75 416.942 1803.97 418.956 Q1806.23 420.935 1810.08 420.935 Q1815.4 420.935 1818.59 417.185 Q1821.82 413.401 1821.82 407.151 L1821.82 405.727 L1815.47 405.727 M1828.21 403.088 L1828.21 425.276 L1821.82 425.276 L1821.82 419.373 Q1819.63 422.915 1816.37 424.616 Q1813.1 426.283 1808.38 426.283 Q1802.41 426.283 1798.87 422.949 Q1795.36 419.581 1795.36 413.956 Q1795.36 407.394 1799.74 404.061 Q1804.15 400.727 1812.86 400.727 L1821.82 400.727 L1821.82 400.102 Q1821.82 395.693 1818.9 393.297 Q1816.02 390.866 1810.78 390.866 Q1807.44 390.866 1804.28 391.665 Q1801.12 392.463 1798.21 394.061 L1798.21 388.158 Q1801.72 386.804 1805.01 386.144 Q1808.31 385.45 1811.44 385.45 Q1819.87 385.45 1824.04 389.825 Q1828.21 394.199 1828.21 403.088 Z" fill="#000000" fill-rule="nonzero" fill-opacity="1" /><path clip-path="url(#clip980)" d="M1841.37 371.248 L1847.76 371.248 L1847.76 425.276 L1841.37 425.276 L1841.37 371.248 Z" fill="#000000" fill-rule="nonzero" fill-opacity="1" /><path clip-path="url(#clip980)" d="M1861.4 373.436 L1891.19 373.436 L1891.19 379.338 L1868.42 379.338 L1868.42 394.616 L1888.97 394.616 L1888.97 400.519 L1868.42 400.519 L1868.42 425.276 L1861.4 425.276 L1861.4 373.436 Z" fill="#000000" fill-rule="nonzero" fill-opacity="1" /><path clip-path="url(#clip980)" d="M1902.3 373.436 L1912.76 373.436 L1925.99 408.713 L1939.28 373.436 L1949.74 373.436 L1949.74 425.276 L1942.89 425.276 L1942.89 379.755 L1929.53 415.31 L1922.48 415.31 L1909.11 379.755 L1909.11 425.276 L1902.3 425.276 L1902.3 373.436 Z" fill="#000000" fill-rule="nonzero" fill-opacity="1" /><path clip-path="url(#clip980)" d="M1962.86 373.436 L1969.91 373.436 L1969.91 404.929 Q1969.91 413.262 1972.93 416.942 Q1975.95 420.588 1982.72 420.588 Q1989.46 420.588 1992.48 416.942 Q1995.5 413.262 1995.5 404.929 L1995.5 373.436 L2002.55 373.436 L2002.55 405.797 Q2002.55 415.935 1997.51 421.109 Q1992.51 426.283 1982.72 426.283 Q1972.89 426.283 1967.86 421.109 Q1962.86 415.935 1962.86 405.797 L1962.86 373.436 Z" fill="#000000" fill-rule="nonzero" fill-opacity="1" /><path clip-path="url(#clip980)" d="M2053.38 371.318 Q2048.73 379.304 2046.47 387.116 Q2044.21 394.929 2044.21 402.949 Q2044.21 410.97 2046.47 418.852 Q2048.76 426.699 2053.38 434.651 L2047.82 434.651 Q2042.62 426.491 2040.01 418.609 Q2037.44 410.727 2037.44 402.949 Q2037.44 395.206 2040.01 387.359 Q2042.58 379.512 2047.82 371.318 L2053.38 371.318 Z" fill="#000000" fill-rule="nonzero" fill-opacity="1" /><path clip-path="url(#clip980)" d="M2072.72 419.373 L2097.2 419.373 L2097.2 425.276 L2064.28 425.276 L2064.28 419.373 Q2068.28 415.241 2075.15 408.297 Q2082.06 401.318 2083.83 399.304 Q2087.2 395.519 2088.52 392.915 Q2089.87 390.276 2089.87 387.741 Q2089.87 383.609 2086.96 381.005 Q2084.07 378.401 2079.42 378.401 Q2076.12 378.401 2072.44 379.547 Q2068.8 380.693 2064.63 383.019 L2064.63 375.936 Q2068.87 374.234 2072.55 373.366 Q2076.23 372.498 2079.28 372.498 Q2087.34 372.498 2092.13 376.526 Q2096.92 380.554 2096.92 387.29 Q2096.92 390.484 2095.71 393.366 Q2094.53 396.213 2091.37 400.102 Q2090.5 401.109 2085.85 405.936 Q2081.19 410.727 2072.72 419.373 Z" fill="#000000" fill-rule="nonzero" fill-opacity="1" /><path clip-path="url(#clip980)" d="M2111.99 373.436 L2139.53 373.436 L2139.53 379.338 L2118.41 379.338 L2118.41 392.047 Q2119.94 391.526 2121.47 391.283 Q2123 391.005 2124.53 391.005 Q2133.21 391.005 2138.28 395.762 Q2143.35 400.519 2143.35 408.644 Q2143.35 417.012 2138.14 421.665 Q2132.93 426.283 2123.45 426.283 Q2120.19 426.283 2116.78 425.727 Q2113.41 425.172 2109.8 424.06 L2109.8 417.012 Q2112.93 418.713 2116.26 419.547 Q2119.6 420.38 2123.31 420.38 Q2129.32 420.38 2132.82 417.22 Q2136.33 414.06 2136.33 408.644 Q2136.33 403.227 2132.82 400.068 Q2129.32 396.908 2123.31 396.908 Q2120.5 396.908 2117.69 397.533 Q2114.91 398.158 2111.99 399.477 L2111.99 373.436 Z" fill="#000000" fill-rule="nonzero" fill-opacity="1" /><path clip-path="url(#clip980)" d="M2172.16 378.054 Q2166.75 378.054 2164 383.401 Q2161.3 388.713 2161.3 399.408 Q2161.3 410.067 2164 415.415 Q2166.75 420.727 2172.16 420.727 Q2177.62 420.727 2180.32 415.415 Q2183.07 410.067 2183.07 399.408 Q2183.07 388.713 2180.32 383.401 Q2177.62 378.054 2172.16 378.054 M2172.16 372.498 Q2180.88 372.498 2185.46 379.408 Q2190.08 386.283 2190.08 399.408 Q2190.08 412.498 2185.46 419.408 Q2180.88 426.283 2172.16 426.283 Q2163.45 426.283 2158.83 419.408 Q2154.25 412.498 2154.25 399.408 Q2154.25 386.283 2158.83 379.408 Q2163.45 372.498 2172.16 372.498 Z" fill="#000000" fill-rule="nonzero" fill-opacity="1" /><path clip-path="url(#clip980)" d="M2217.41 378.054 Q2211.99 378.054 2209.25 383.401 Q2206.54 388.713 2206.54 399.408 Q2206.54 410.067 2209.25 415.415 Q2211.99 420.727 2217.41 420.727 Q2222.86 420.727 2225.57 415.415 Q2228.31 410.067 2228.31 399.408 Q2228.31 388.713 2225.57 383.401 Q2222.86 378.054 2217.41 378.054 M2217.41 372.498 Q2226.12 372.498 2230.71 379.408 Q2235.32 386.283 2235.32 399.408 Q2235.32 412.498 2230.71 419.408 Q2226.12 426.283 2217.41 426.283 Q2208.69 426.283 2204.07 419.408 Q2199.49 412.498 2199.49 399.408 Q2199.49 386.283 2204.07 379.408 Q2208.69 372.498 2217.41 372.498 Z" fill="#000000" fill-rule="nonzero" fill-opacity="1" /><path clip-path="url(#clip980)" d="M2245.74 371.318 L2251.3 371.318 Q2256.5 379.512 2259.07 387.359 Q2261.68 395.206 2261.68 402.949 Q2261.68 410.727 2259.07 418.609 Q2256.5 426.491 2251.3 434.651 L2245.74 434.651 Q2250.36 426.699 2252.62 418.852 Q2254.91 410.97 2254.91 402.949 Q2254.91 394.929 2252.62 387.116 Q2250.36 379.304 2245.74 371.318 Z" fill="#000000" fill-rule="nonzero" fill-opacity="1" /><polyline clip-path="url(#clip980)" style="stroke:#008000; stroke-linecap:round; stroke-linejoin:round; stroke-width:12; stroke-opacity:1; fill:none" points="1467.43,477.116 1604.05,477.116 "/>
<path clip-path="url(#clip980)" d="M1626.82 451.196 L1636.26 451.196 L1659.25 494.564 L1659.25 451.196 L1666.06 451.196 L1666.06 503.036 L1656.61 503.036 L1633.63 459.668 L1633.63 503.036 L1626.82 503.036 L1626.82 451.196 Z" fill="#000000" fill-rule="nonzero" fill-opacity="1" /><path clip-path="url(#clip980)" d="M1713 481.994 L1713 485.119 L1683.63 485.119 Q1684.04 491.716 1687.58 495.189 Q1691.16 498.626 1697.51 498.626 Q1701.19 498.626 1704.63 497.723 Q1708.1 496.82 1711.51 495.015 L1711.51 501.057 Q1708.07 502.515 1704.46 503.279 Q1700.85 504.043 1697.13 504.043 Q1687.83 504.043 1682.38 498.626 Q1676.96 493.209 1676.96 483.973 Q1676.96 474.425 1682.1 468.835 Q1687.27 463.21 1696.02 463.21 Q1703.87 463.21 1708.42 468.279 Q1713 473.314 1713 481.994 M1706.61 480.119 Q1706.54 474.876 1703.66 471.751 Q1700.81 468.626 1696.09 468.626 Q1690.74 468.626 1687.51 471.647 Q1684.32 474.668 1683.83 480.154 L1706.61 480.119 Z" fill="#000000" fill-rule="nonzero" fill-opacity="1" /><path clip-path="url(#clip980)" d="M1722.83 487.689 L1722.83 464.147 L1729.22 464.147 L1729.22 487.446 Q1729.22 492.966 1731.37 495.744 Q1733.52 498.487 1737.83 498.487 Q1743 498.487 1745.99 495.189 Q1749.01 491.89 1749.01 486.196 L1749.01 464.147 L1755.4 464.147 L1755.4 503.036 L1749.01 503.036 L1749.01 497.064 Q1746.68 500.605 1743.59 502.341 Q1740.53 504.043 1736.47 504.043 Q1729.77 504.043 1726.3 499.876 Q1722.83 495.709 1722.83 487.689 M1738.9 463.21 L1738.9 463.21 Z" fill="#000000" fill-rule="nonzero" fill-opacity="1" /><path clip-path="url(#clip980)" d="M1791.09 470.119 Q1790.01 469.494 1788.73 469.216 Q1787.48 468.904 1785.95 468.904 Q1780.53 468.904 1777.62 472.446 Q1774.74 475.953 1774.74 482.55 L1774.74 503.036 L1768.31 503.036 L1768.31 464.147 L1774.74 464.147 L1774.74 470.189 Q1776.75 466.647 1779.98 464.946 Q1783.21 463.21 1787.83 463.21 Q1788.49 463.21 1789.28 463.314 Q1790.08 463.383 1791.06 463.557 L1791.09 470.119 Z" fill="#000000" fill-rule="nonzero" fill-opacity="1" /><path clip-path="url(#clip980)" d="M1815.47 483.487 Q1807.72 483.487 1804.74 485.258 Q1801.75 487.029 1801.75 491.3 Q1801.75 494.702 1803.97 496.716 Q1806.23 498.695 1810.08 498.695 Q1815.4 498.695 1818.59 494.945 Q1821.82 491.161 1821.82 484.911 L1821.82 483.487 L1815.47 483.487 M1828.21 480.848 L1828.21 503.036 L1821.82 503.036 L1821.82 497.133 Q1819.63 500.675 1816.37 502.376 Q1813.1 504.043 1808.38 504.043 Q1802.41 504.043 1798.87 500.709 Q1795.36 497.341 1795.36 491.716 Q1795.36 485.154 1799.74 481.821 Q1804.15 478.487 1812.86 478.487 L1821.82 478.487 L1821.82 477.862 Q1821.82 473.453 1818.9 471.057 Q1816.02 468.626 1810.78 468.626 Q1807.44 468.626 1804.28 469.425 Q1801.12 470.223 1798.21 471.821 L1798.21 465.918 Q1801.72 464.564 1805.01 463.904 Q1808.31 463.21 1811.44 463.21 Q1819.87 463.21 1824.04 467.585 Q1828.21 471.959 1828.21 480.848 Z" fill="#000000" fill-rule="nonzero" fill-opacity="1" /><path clip-path="url(#clip980)" d="M1841.37 449.008 L1847.76 449.008 L1847.76 503.036 L1841.37 503.036 L1841.37 449.008 Z" fill="#000000" fill-rule="nonzero" fill-opacity="1" /><path clip-path="url(#clip980)" d="M1861.4 451.196 L1891.19 451.196 L1891.19 457.098 L1868.42 457.098 L1868.42 472.376 L1888.97 472.376 L1888.97 478.279 L1868.42 478.279 L1868.42 503.036 L1861.4 503.036 L1861.4 451.196 Z" fill="#000000" fill-rule="nonzero" fill-opacity="1" /><path clip-path="url(#clip980)" d="M1902.3 451.196 L1912.76 451.196 L1925.99 486.473 L1939.28 451.196 L1949.74 451.196 L1949.74 503.036 L1942.89 503.036 L1942.89 457.515 L1929.53 493.07 L1922.48 493.07 L1909.11 457.515 L1909.11 503.036 L1902.3 503.036 L1902.3 451.196 Z" fill="#000000" fill-rule="nonzero" fill-opacity="1" /><path clip-path="url(#clip980)" d="M1962.86 451.196 L1969.91 451.196 L1969.91 482.689 Q1969.91 491.022 1972.93 494.702 Q1975.95 498.348 1982.72 498.348 Q1989.46 498.348 1992.48 494.702 Q1995.5 491.022 1995.5 482.689 L1995.5 451.196 L2002.55 451.196 L2002.55 483.557 Q2002.55 493.695 1997.51 498.869 Q1992.51 504.043 1982.72 504.043 Q1972.89 504.043 1967.86 498.869 Q1962.86 493.695 1962.86 483.557 L1962.86 451.196 Z" fill="#000000" fill-rule="nonzero" fill-opacity="1" /><path clip-path="url(#clip980)" d="M2053.38 449.078 Q2048.73 457.064 2046.47 464.876 Q2044.21 472.689 2044.21 480.709 Q2044.21 488.73 2046.47 496.612 Q2048.76 504.459 2053.38 512.411 L2047.82 512.411 Q2042.62 504.251 2040.01 496.369 Q2037.44 488.487 2037.44 480.709 Q2037.44 472.966 2040.01 465.119 Q2042.58 457.272 2047.82 449.078 L2053.38 449.078 Z" fill="#000000" fill-rule="nonzero" fill-opacity="1" /><path clip-path="url(#clip980)" d="M2066.75 451.196 L2094.28 451.196 L2094.28 457.098 L2073.17 457.098 L2073.17 469.807 Q2074.7 469.286 2076.23 469.043 Q2077.76 468.765 2079.28 468.765 Q2087.96 468.765 2093.03 473.522 Q2098.1 478.279 2098.1 486.404 Q2098.1 494.772 2092.89 499.425 Q2087.69 504.043 2078.21 504.043 Q2074.94 504.043 2071.54 503.487 Q2068.17 502.932 2064.56 501.82 L2064.56 494.772 Q2067.69 496.473 2071.02 497.307 Q2074.35 498.14 2078.07 498.14 Q2084.07 498.14 2087.58 494.98 Q2091.09 491.82 2091.09 486.404 Q2091.09 480.987 2087.58 477.828 Q2084.07 474.668 2078.07 474.668 Q2075.26 474.668 2072.44 475.293 Q2069.67 475.918 2066.75 477.237 L2066.75 451.196 Z" fill="#000000" fill-rule="nonzero" fill-opacity="1" /><path clip-path="url(#clip980)" d="M2126.92 455.814 Q2121.51 455.814 2118.76 461.161 Q2116.05 466.473 2116.05 477.168 Q2116.05 487.827 2118.76 493.175 Q2121.51 498.487 2126.92 498.487 Q2132.37 498.487 2135.08 493.175 Q2137.82 487.827 2137.82 477.168 Q2137.82 466.473 2135.08 461.161 Q2132.37 455.814 2126.92 455.814 M2126.92 450.258 Q2135.64 450.258 2140.22 457.168 Q2144.84 464.043 2144.84 477.168 Q2144.84 490.258 2140.22 497.168 Q2135.64 504.043 2126.92 504.043 Q2118.21 504.043 2113.59 497.168 Q2109.01 490.258 2109.01 477.168 Q2109.01 464.043 2113.59 457.168 Q2118.21 450.258 2126.92 450.258 Z" fill="#000000" fill-rule="nonzero" fill-opacity="1" /><path clip-path="url(#clip980)" d="M2172.16 455.814 Q2166.75 455.814 2164 461.161 Q2161.3 466.473 2161.3 477.168 Q2161.3 487.827 2164 493.175 Q2166.75 498.487 2172.16 498.487 Q2177.62 498.487 2180.32 493.175 Q2183.07 487.827 2183.07 477.168 Q2183.07 466.473 2180.32 461.161 Q2177.62 455.814 2172.16 455.814 M2172.16 450.258 Q2180.88 450.258 2185.46 457.168 Q2190.08 464.043 2190.08 477.168 Q2190.08 490.258 2185.46 497.168 Q2180.88 504.043 2172.16 504.043 Q2163.45 504.043 2158.83 497.168 Q2154.25 490.258 2154.25 477.168 Q2154.25 464.043 2158.83 457.168 Q2163.45 450.258 2172.16 450.258 Z" fill="#000000" fill-rule="nonzero" fill-opacity="1" /><path clip-path="url(#clip980)" d="M2217.41 455.814 Q2211.99 455.814 2209.25 461.161 Q2206.54 466.473 2206.54 477.168 Q2206.54 487.827 2209.25 493.175 Q2211.99 498.487 2217.41 498.487 Q2222.86 498.487 2225.57 493.175 Q2228.31 487.827 2228.31 477.168 Q2228.31 466.473 2225.57 461.161 Q2222.86 455.814 2217.41 455.814 M2217.41 450.258 Q2226.12 450.258 2230.71 457.168 Q2235.32 464.043 2235.32 477.168 Q2235.32 490.258 2230.71 497.168 Q2226.12 504.043 2217.41 504.043 Q2208.69 504.043 2204.07 497.168 Q2199.49 490.258 2199.49 477.168 Q2199.49 464.043 2204.07 457.168 Q2208.69 450.258 2217.41 450.258 Z" fill="#000000" fill-rule="nonzero" fill-opacity="1" /><path clip-path="url(#clip980)" d="M2245.74 449.078 L2251.3 449.078 Q2256.5 457.272 2259.07 465.119 Q2261.68 472.966 2261.68 480.709 Q2261.68 488.487 2259.07 496.369 Q2256.5 504.251 2251.3 512.411 L2245.74 512.411 Q2250.36 504.459 2252.62 496.612 Q2254.91 488.73 2254.91 480.709 Q2254.91 472.689 2252.62 464.876 Q2250.36 457.064 2245.74 449.078 Z" fill="#000000" fill-rule="nonzero" fill-opacity="1" /></svg>
