<?xml version="1.0" encoding="utf-8"?>
<svg xmlns="http://www.w3.org/2000/svg" xmlns:xlink="http://www.w3.org/1999/xlink" width="600" height="400" viewBox="0 0 2400 1600">
<defs>
  <clipPath id="clip650">
    <rect x="0" y="0" width="2400" height="1600"/>
  </clipPath>
</defs>
<path clip-path="url(#clip650)" d="M0 1600 L2400 1600 L2400 0 L0 0  Z" fill="#ffffff" fill-rule="evenodd" fill-opacity="1"/>
<defs>
  <clipPath id="clip651">
    <rect x="480" y="0" width="1681" height="1600"/>
  </clipPath>
</defs>
<path clip-path="url(#clip650)" d="M303.503 1401.58 L2352.76 1401.58 L2352.76 123.472 L303.503 123.472  Z" fill="#ffffff" fill-rule="evenodd" fill-opacity="1"/>
<defs>
  <clipPath id="clip652">
    <rect x="303" y="123" width="2050" height="1279"/>
  </clipPath>
</defs>
<polyline clip-path="url(#clip652)" style="stroke:#000000; stroke-linecap:round; stroke-linejoin:round; stroke-width:2; stroke-opacity:0.1; fill:none" points="361.501,1401.58 361.501,123.472 "/>
<polyline clip-path="url(#clip652)" style="stroke:#000000; stroke-linecap:round; stroke-linejoin:round; stroke-width:2; stroke-opacity:0.1; fill:none" points="844.815,1401.58 844.815,123.472 "/>
<polyline clip-path="url(#clip652)" style="stroke:#000000; stroke-linecap:round; stroke-linejoin:round; stroke-width:2; stroke-opacity:0.1; fill:none" points="1328.13,1401.58 1328.13,123.472 "/>
<polyline clip-path="url(#clip652)" style="stroke:#000000; stroke-linecap:round; stroke-linejoin:round; stroke-width:2; stroke-opacity:0.1; fill:none" points="1811.44,1401.58 1811.44,123.472 "/>
<polyline clip-path="url(#clip652)" style="stroke:#000000; stroke-linecap:round; stroke-linejoin:round; stroke-width:2; stroke-opacity:0.1; fill:none" points="2294.76,1401.58 2294.76,123.472 "/>
<polyline clip-path="url(#clip650)" style="stroke:#000000; stroke-linecap:round; stroke-linejoin:round; stroke-width:4; stroke-opacity:1; fill:none" points="303.503,1401.58 2352.76,1401.58 "/>
<polyline clip-path="url(#clip650)" style="stroke:#000000; stroke-linecap:round; stroke-linejoin:round; stroke-width:4; stroke-opacity:1; fill:none" points="361.501,1401.58 361.501,1382.68 "/>
<polyline clip-path="url(#clip650)" style="stroke:#000000; stroke-linecap:round; stroke-linejoin:round; stroke-width:4; stroke-opacity:1; fill:none" points="844.815,1401.58 844.815,1382.68 "/>
<polyline clip-path="url(#clip650)" style="stroke:#000000; stroke-linecap:round; stroke-linejoin:round; stroke-width:4; stroke-opacity:1; fill:none" points="1328.13,1401.58 1328.13,1382.68 "/>
<polyline clip-path="url(#clip650)" style="stroke:#000000; stroke-linecap:round; stroke-linejoin:round; stroke-width:4; stroke-opacity:1; fill:none" points="1811.44,1401.58 1811.44,1382.68 "/>
<polyline clip-path="url(#clip650)" style="stroke:#000000; stroke-linecap:round; stroke-linejoin:round; stroke-width:4; stroke-opacity:1; fill:none" points="2294.76,1401.58 2294.76,1382.68 "/>
<path clip-path="url(#clip650)" d="M361.501 1438.36 Q356.084 1438.36 353.341 1443.71 Q350.633 1449.02 350.633 1459.71 Q350.633 1470.37 353.341 1475.72 Q356.084 1481.03 361.501 1481.03 Q366.952 1481.03 369.66 1475.72 Q372.403 1470.37 372.403 1459.71 Q372.403 1449.02 369.66 1443.71 Q366.952 1438.36 361.501 1438.36 M361.501 1432.8 Q370.216 1432.8 374.799 1439.71 Q379.417 1446.59 379.417 1459.71 Q379.417 1472.8 374.799 1479.71 Q370.216 1486.59 361.501 1486.59 Q352.785 1486.59 348.167 1479.71 Q343.584 1472.8 343.584 1459.71 Q343.584 1446.59 348.167 1439.71 Q352.785 1432.8 361.501 1432.8 Z" fill="#000000" fill-rule="nonzero" fill-opacity="1" /><path clip-path="url(#clip650)" d="M830.388 1479.68 L841.846 1479.68 L841.846 1440.13 L829.381 1442.63 L829.381 1436.24 L841.777 1433.74 L848.791 1433.74 L848.791 1479.68 L860.249 1479.68 L860.249 1485.58 L830.388 1485.58 L830.388 1479.68 Z" fill="#000000" fill-rule="nonzero" fill-opacity="1" /><path clip-path="url(#clip650)" d="M1320.11 1479.68 L1344.59 1479.68 L1344.59 1485.58 L1311.67 1485.58 L1311.67 1479.68 Q1315.66 1475.55 1322.54 1468.6 Q1329.45 1461.62 1331.22 1459.61 Q1334.59 1455.82 1335.91 1453.22 Q1337.26 1450.58 1337.26 1448.05 Q1337.26 1443.91 1334.34 1441.31 Q1331.46 1438.71 1326.81 1438.71 Q1323.51 1438.71 1319.83 1439.85 Q1316.19 1441 1312.02 1443.32 L1312.02 1436.24 Q1316.25 1434.54 1319.94 1433.67 Q1323.62 1432.8 1326.67 1432.8 Q1334.73 1432.8 1339.52 1436.83 Q1344.31 1440.86 1344.31 1447.59 Q1344.31 1450.79 1343.09 1453.67 Q1341.91 1456.52 1338.75 1460.41 Q1337.89 1461.41 1333.23 1466.24 Q1328.58 1471.03 1320.11 1479.68 Z" fill="#000000" fill-rule="nonzero" fill-opacity="1" /><path clip-path="url(#clip650)" d="M1817.82 1457.63 Q1822.85 1458.7 1825.66 1462.11 Q1828.51 1465.51 1828.51 1470.51 Q1828.51 1478.18 1823.23 1482.39 Q1817.95 1486.59 1808.23 1486.59 Q1804.97 1486.59 1801.5 1485.93 Q1798.06 1485.3 1794.38 1484.02 L1794.38 1477.25 Q1797.29 1478.95 1800.77 1479.82 Q1804.24 1480.68 1808.02 1480.68 Q1814.62 1480.68 1818.06 1478.08 Q1821.53 1475.48 1821.53 1470.51 Q1821.53 1465.93 1818.3 1463.36 Q1815.11 1460.75 1809.38 1460.75 L1803.34 1460.75 L1803.34 1454.99 L1809.66 1454.99 Q1814.83 1454.99 1817.57 1452.94 Q1820.32 1450.86 1820.32 1446.97 Q1820.32 1442.98 1817.47 1440.86 Q1814.66 1438.71 1809.38 1438.71 Q1806.5 1438.71 1803.2 1439.33 Q1799.9 1439.96 1795.94 1441.27 L1795.94 1435.02 Q1799.93 1433.91 1803.41 1433.36 Q1806.91 1432.8 1810 1432.8 Q1817.99 1432.8 1822.64 1436.45 Q1827.29 1440.06 1827.29 1446.24 Q1827.29 1450.55 1824.83 1453.53 Q1822.36 1456.48 1817.82 1457.63 Z" fill="#000000" fill-rule="nonzero" fill-opacity="1" /><path clip-path="url(#clip650)" d="M2299.27 1439.85 L2281.56 1467.52 L2299.27 1467.52 L2299.27 1439.85 M2297.43 1433.74 L2306.25 1433.74 L2306.25 1467.52 L2313.65 1467.52 L2313.65 1473.36 L2306.25 1473.36 L2306.25 1485.58 L2299.27 1485.58 L2299.27 1473.36 L2275.87 1473.36 L2275.87 1466.59 L2297.43 1433.74 Z" fill="#000000" fill-rule="nonzero" fill-opacity="1" /><path clip-path="url(#clip650)" d="M1271.74 1527.62 L1271.74 1538.66 L1284.9 1538.66 L1284.9 1543.62 L1271.74 1543.62 L1271.74 1564.74 Q1271.74 1569.49 1273.03 1570.85 Q1274.35 1572.2 1278.34 1572.2 L1284.9 1572.2 L1284.9 1577.55 L1278.34 1577.55 Q1270.94 1577.55 1268.13 1574.8 Q1265.32 1572.03 1265.32 1564.74 L1265.32 1543.62 L1260.63 1543.62 L1260.63 1538.66 L1265.32 1538.66 L1265.32 1527.62 L1271.74 1527.62 Z" fill="#000000" fill-rule="nonzero" fill-opacity="1" /><path clip-path="url(#clip650)" d="M1315.32 1523.52 L1330.04 1523.52 L1330.04 1528.49 L1321.71 1528.49 L1321.71 1581.96 L1330.04 1581.96 L1330.04 1586.92 L1315.32 1586.92 L1315.32 1523.52 Z" fill="#000000" fill-rule="nonzero" fill-opacity="1" /><path clip-path="url(#clip650)" d="M1368.44 1539.8 L1368.44 1545.85 Q1365.73 1544.46 1362.82 1543.76 Q1359.9 1543.07 1356.78 1543.07 Q1352.02 1543.07 1349.62 1544.53 Q1347.26 1545.99 1347.26 1548.9 Q1347.26 1551.12 1348.96 1552.41 Q1350.66 1553.66 1355.8 1554.8 L1357.99 1555.29 Q1364.8 1556.75 1367.64 1559.42 Q1370.53 1562.06 1370.53 1566.82 Q1370.53 1572.24 1366.22 1575.4 Q1361.95 1578.55 1354.45 1578.55 Q1351.32 1578.55 1347.92 1577.93 Q1344.55 1577.34 1340.8 1576.12 L1340.8 1569.53 Q1344.34 1571.37 1347.78 1572.3 Q1351.22 1573.21 1354.59 1573.21 Q1359.1 1573.21 1361.53 1571.68 Q1363.96 1570.12 1363.96 1567.3 Q1363.96 1564.7 1362.19 1563.31 Q1360.46 1561.92 1354.52 1560.64 L1352.3 1560.12 Q1346.36 1558.87 1343.72 1556.3 Q1341.08 1553.69 1341.08 1549.18 Q1341.08 1543.69 1344.97 1540.71 Q1348.86 1537.72 1356.01 1537.72 Q1359.55 1537.72 1362.68 1538.24 Q1365.8 1538.76 1368.44 1539.8 Z" fill="#000000" fill-rule="nonzero" fill-opacity="1" /><path clip-path="url(#clip650)" d="M1395.63 1523.52 L1395.63 1586.92 L1380.91 1586.92 L1380.91 1581.96 L1389.21 1581.96 L1389.21 1528.49 L1380.91 1528.49 L1380.91 1523.52 L1395.63 1523.52 Z" fill="#000000" fill-rule="nonzero" fill-opacity="1" /><polyline clip-path="url(#clip652)" style="stroke:#000000; stroke-linecap:round; stroke-linejoin:round; stroke-width:2; stroke-opacity:0.1; fill:none" points="303.503,1391.97 2352.76,1391.97 "/>
<polyline clip-path="url(#clip652)" style="stroke:#000000; stroke-linecap:round; stroke-linejoin:round; stroke-width:2; stroke-opacity:0.1; fill:none" points="303.503,1108.01 2352.76,1108.01 "/>
<polyline clip-path="url(#clip652)" style="stroke:#000000; stroke-linecap:round; stroke-linejoin:round; stroke-width:2; stroke-opacity:0.1; fill:none" points="303.503,824.046 2352.76,824.046 "/>
<polyline clip-path="url(#clip652)" style="stroke:#000000; stroke-linecap:round; stroke-linejoin:round; stroke-width:2; stroke-opacity:0.1; fill:none" points="303.503,540.085 2352.76,540.085 "/>
<polyline clip-path="url(#clip652)" style="stroke:#000000; stroke-linecap:round; stroke-linejoin:round; stroke-width:2; stroke-opacity:0.1; fill:none" points="303.503,256.124 2352.76,256.124 "/>
<polyline clip-path="url(#clip650)" style="stroke:#000000; stroke-linecap:round; stroke-linejoin:round; stroke-width:4; stroke-opacity:1; fill:none" points="303.503,1401.58 303.503,123.472 "/>
<polyline clip-path="url(#clip650)" style="stroke:#000000; stroke-linecap:round; stroke-linejoin:round; stroke-width:4; stroke-opacity:1; fill:none" points="303.503,1391.97 322.401,1391.97 "/>
<polyline clip-path="url(#clip650)" style="stroke:#000000; stroke-linecap:round; stroke-linejoin:round; stroke-width:4; stroke-opacity:1; fill:none" points="303.503,1108.01 322.401,1108.01 "/>
<polyline clip-path="url(#clip650)" style="stroke:#000000; stroke-linecap:round; stroke-linejoin:round; stroke-width:4; stroke-opacity:1; fill:none" points="303.503,824.046 322.401,824.046 "/>
<polyline clip-path="url(#clip650)" style="stroke:#000000; stroke-linecap:round; stroke-linejoin:round; stroke-width:4; stroke-opacity:1; fill:none" points="303.503,540.085 322.401,540.085 "/>
<polyline clip-path="url(#clip650)" style="stroke:#000000; stroke-linecap:round; stroke-linejoin:round; stroke-width:4; stroke-opacity:1; fill:none" points="303.503,256.124 322.401,256.124 "/>
<path clip-path="url(#clip650)" d="M136.497 1370.67 Q131.08 1370.67 128.337 1376.01 Q125.629 1381.33 125.629 1392.02 Q125.629 1402.68 128.337 1408.03 Q131.08 1413.34 136.497 1413.34 Q141.948 1413.34 144.656 1408.03 Q147.399 1402.68 147.399 1392.02 Q147.399 1381.33 144.656 1376.01 Q141.948 1370.67 136.497 1370.67 M136.497 1365.11 Q145.212 1365.11 149.795 1372.02 Q154.413 1378.9 154.413 1392.02 Q154.413 1405.11 149.795 1412.02 Q145.212 1418.9 136.497 1418.9 Q127.781 1418.9 123.163 1412.02 Q118.58 1405.11 118.58 1392.02 Q118.58 1378.9 123.163 1372.02 Q127.781 1365.11 136.497 1365.11 Z" fill="#000000" fill-rule="nonzero" fill-opacity="1" /><path clip-path="url(#clip650)" d="M166.74 1409.07 L174.066 1409.07 L174.066 1417.89 L166.74 1417.89 L166.74 1409.07 Z" fill="#000000" fill-rule="nonzero" fill-opacity="1" /><path clip-path="url(#clip650)" d="M189.413 1366.05 L216.948 1366.05 L216.948 1371.95 L195.837 1371.95 L195.837 1384.66 Q197.364 1384.14 198.892 1383.9 Q200.42 1383.62 201.948 1383.62 Q210.628 1383.62 215.698 1388.38 Q220.767 1393.13 220.767 1401.26 Q220.767 1409.63 215.559 1414.28 Q210.35 1418.9 200.871 1418.9 Q197.608 1418.9 194.205 1418.34 Q190.837 1417.78 187.226 1416.67 L187.226 1409.63 Q190.351 1411.33 193.684 1412.16 Q197.017 1412.99 200.732 1412.99 Q206.739 1412.99 210.246 1409.83 Q213.753 1406.67 213.753 1401.26 Q213.753 1395.84 210.246 1392.68 Q206.739 1389.52 200.732 1389.52 Q197.92 1389.52 195.108 1390.15 Q192.33 1390.77 189.413 1392.09 L189.413 1366.05 Z" fill="#000000" fill-rule="nonzero" fill-opacity="1" /><path clip-path="url(#clip650)" d="M249.586 1370.67 Q244.17 1370.67 241.427 1376.01 Q238.718 1381.33 238.718 1392.02 Q238.718 1402.68 241.427 1408.03 Q244.17 1413.34 249.586 1413.34 Q255.038 1413.34 257.746 1408.03 Q260.489 1402.68 260.489 1392.02 Q260.489 1381.33 257.746 1376.01 Q255.038 1370.67 249.586 1370.67 M249.586 1365.11 Q258.302 1365.11 262.885 1372.02 Q267.503 1378.9 267.503 1392.02 Q267.503 1405.11 262.885 1412.02 Q258.302 1418.9 249.586 1418.9 Q240.871 1418.9 236.253 1412.02 Q231.67 1405.11 231.67 1392.02 Q231.67 1378.9 236.253 1372.02 Q240.871 1365.11 249.586 1365.11 Z" fill="#000000" fill-rule="nonzero" fill-opacity="1" /><path clip-path="url(#clip650)" d="M137.99 1086.71 Q132.573 1086.71 129.83 1092.05 Q127.122 1097.37 127.122 1108.06 Q127.122 1118.72 129.83 1124.07 Q132.573 1129.38 137.99 1129.38 Q143.441 1129.38 146.149 1124.07 Q148.892 1118.72 148.892 1108.06 Q148.892 1097.37 146.149 1092.05 Q143.441 1086.71 137.99 1086.71 M137.99 1081.15 Q146.705 1081.15 151.288 1088.06 Q155.906 1094.93 155.906 1108.06 Q155.906 1121.15 151.288 1128.06 Q146.705 1134.93 137.99 1134.93 Q129.275 1134.93 124.657 1128.06 Q120.073 1121.15 120.073 1108.06 Q120.073 1094.93 124.657 1088.06 Q129.275 1081.15 137.99 1081.15 Z" fill="#000000" fill-rule="nonzero" fill-opacity="1" /><path clip-path="url(#clip650)" d="M168.233 1125.11 L175.559 1125.11 L175.559 1133.93 L168.233 1133.93 L168.233 1125.11 Z" fill="#000000" fill-rule="nonzero" fill-opacity="1" /><path clip-path="url(#clip650)" d="M189.066 1082.09 L222.399 1082.09 L222.399 1085.07 L203.58 1133.93 L196.253 1133.93 L213.962 1087.99 L189.066 1087.99 L189.066 1082.09 Z" fill="#000000" fill-rule="nonzero" fill-opacity="1" /><path clip-path="url(#clip650)" d="M236.149 1082.09 L263.684 1082.09 L263.684 1087.99 L242.573 1087.99 L242.573 1100.7 Q244.1 1100.18 245.628 1099.93 Q247.156 1099.66 248.684 1099.66 Q257.364 1099.66 262.434 1104.41 Q267.503 1109.17 267.503 1117.3 Q267.503 1125.66 262.295 1130.32 Q257.086 1134.93 247.607 1134.93 Q244.343 1134.93 240.941 1134.38 Q237.573 1133.82 233.961 1132.71 L233.961 1125.66 Q237.086 1127.37 240.42 1128.2 Q243.753 1129.03 247.468 1129.03 Q253.475 1129.03 256.982 1125.87 Q260.489 1122.71 260.489 1117.3 Q260.489 1111.88 256.982 1108.72 Q253.475 1105.56 247.468 1105.56 Q244.656 1105.56 241.843 1106.18 Q239.066 1106.81 236.149 1108.13 L236.149 1082.09 Z" fill="#000000" fill-rule="nonzero" fill-opacity="1" /><path clip-path="url(#clip650)" d="M122.712 844.064 L134.17 844.064 L134.17 804.515 L121.705 807.015 L121.705 800.626 L134.101 798.126 L141.115 798.126 L141.115 844.064 L152.573 844.064 L152.573 849.966 L122.712 849.966 L122.712 844.064 Z" fill="#000000" fill-rule="nonzero" fill-opacity="1" /><path clip-path="url(#clip650)" d="M166.74 841.147 L174.066 841.147 L174.066 849.966 L166.74 849.966 L166.74 841.147 Z" fill="#000000" fill-rule="nonzero" fill-opacity="1" /><path clip-path="url(#clip650)" d="M204.344 802.744 Q198.927 802.744 196.184 808.092 Q193.476 813.404 193.476 824.098 Q193.476 834.758 196.184 840.105 Q198.927 845.418 204.344 845.418 Q209.795 845.418 212.503 840.105 Q215.246 834.758 215.246 824.098 Q215.246 813.404 212.503 808.092 Q209.795 802.744 204.344 802.744 M204.344 797.189 Q213.059 797.189 217.642 804.099 Q222.26 810.974 222.26 824.098 Q222.26 837.189 217.642 844.098 Q213.059 850.973 204.344 850.973 Q195.628 850.973 191.01 844.098 Q186.427 837.189 186.427 824.098 Q186.427 810.974 191.01 804.099 Q195.628 797.189 204.344 797.189 Z" fill="#000000" fill-rule="nonzero" fill-opacity="1" /><path clip-path="url(#clip650)" d="M249.586 802.744 Q244.17 802.744 241.427 808.092 Q238.718 813.404 238.718 824.098 Q238.718 834.758 241.427 840.105 Q244.17 845.418 249.586 845.418 Q255.038 845.418 257.746 840.105 Q260.489 834.758 260.489 824.098 Q260.489 813.404 257.746 808.092 Q255.038 802.744 249.586 802.744 M249.586 797.189 Q258.302 797.189 262.885 804.099 Q267.503 810.974 267.503 824.098 Q267.503 837.189 262.885 844.098 Q258.302 850.973 249.586 850.973 Q240.871 850.973 236.253 844.098 Q231.67 837.189 231.67 824.098 Q231.67 810.974 236.253 804.099 Q240.871 797.189 249.586 797.189 Z" fill="#000000" fill-rule="nonzero" fill-opacity="1" /><path clip-path="url(#clip650)" d="M124.205 560.102 L135.663 560.102 L135.663 520.554 L123.198 523.054 L123.198 516.665 L135.594 514.165 L142.608 514.165 L142.608 560.102 L154.066 560.102 L154.066 566.005 L124.205 566.005 L124.205 560.102 Z" fill="#000000" fill-rule="nonzero" fill-opacity="1" /><path clip-path="url(#clip650)" d="M168.233 557.186 L175.559 557.186 L175.559 566.005 L168.233 566.005 L168.233 557.186 Z" fill="#000000" fill-rule="nonzero" fill-opacity="1" /><path clip-path="url(#clip650)" d="M196.878 560.102 L221.357 560.102 L221.357 566.005 L188.441 566.005 L188.441 560.102 Q192.434 555.97 199.309 549.026 Q206.219 542.047 207.989 540.033 Q211.357 536.248 212.677 533.644 Q214.031 531.005 214.031 528.471 Q214.031 524.339 211.114 521.734 Q208.232 519.13 203.58 519.13 Q200.281 519.13 196.601 520.276 Q192.955 521.422 188.788 523.748 L188.788 516.665 Q193.024 514.964 196.705 514.096 Q200.385 513.228 203.441 513.228 Q211.496 513.228 216.288 517.255 Q221.08 521.283 221.08 528.019 Q221.08 531.214 219.864 534.095 Q218.684 536.943 215.524 540.832 Q214.656 541.839 210.003 546.665 Q205.351 551.457 196.878 560.102 Z" fill="#000000" fill-rule="nonzero" fill-opacity="1" /><path clip-path="url(#clip650)" d="M236.149 514.165 L263.684 514.165 L263.684 520.068 L242.573 520.068 L242.573 532.776 Q244.1 532.255 245.628 532.012 Q247.156 531.734 248.684 531.734 Q257.364 531.734 262.434 536.491 Q267.503 541.248 267.503 549.373 Q267.503 557.741 262.295 562.394 Q257.086 567.012 247.607 567.012 Q244.343 567.012 240.941 566.456 Q237.573 565.901 233.961 564.79 L233.961 557.741 Q237.086 559.443 240.42 560.276 Q243.753 561.109 247.468 561.109 Q253.475 561.109 256.982 557.95 Q260.489 554.79 260.489 549.373 Q260.489 543.957 256.982 540.797 Q253.475 537.637 247.468 537.637 Q244.656 537.637 241.843 538.262 Q239.066 538.887 236.149 540.207 L236.149 514.165 Z" fill="#000000" fill-rule="nonzero" fill-opacity="1" /><path clip-path="url(#clip650)" d="M122.712 276.141 L134.17 276.141 L134.17 236.593 L121.705 239.093 L121.705 232.704 L134.101 230.204 L141.115 230.204 L141.115 276.141 L152.573 276.141 L152.573 282.044 L122.712 282.044 L122.712 276.141 Z" fill="#000000" fill-rule="nonzero" fill-opacity="1" /><path clip-path="url(#clip650)" d="M166.74 273.224 L174.066 273.224 L174.066 282.044 L166.74 282.044 L166.74 273.224 Z" fill="#000000" fill-rule="nonzero" fill-opacity="1" /><path clip-path="url(#clip650)" d="M189.413 230.204 L216.948 230.204 L216.948 236.106 L195.837 236.106 L195.837 248.815 Q197.364 248.294 198.892 248.051 Q200.42 247.773 201.948 247.773 Q210.628 247.773 215.698 252.53 Q220.767 257.287 220.767 265.412 Q220.767 273.78 215.559 278.433 Q210.35 283.051 200.871 283.051 Q197.608 283.051 194.205 282.495 Q190.837 281.94 187.226 280.828 L187.226 273.78 Q190.351 275.481 193.684 276.315 Q197.017 277.148 200.732 277.148 Q206.739 277.148 210.246 273.988 Q213.753 270.828 213.753 265.412 Q213.753 259.995 210.246 256.836 Q206.739 253.676 200.732 253.676 Q197.92 253.676 195.108 254.301 Q192.33 254.926 189.413 256.245 L189.413 230.204 Z" fill="#000000" fill-rule="nonzero" fill-opacity="1" /><path clip-path="url(#clip650)" d="M249.586 234.822 Q244.17 234.822 241.427 240.169 Q238.718 245.481 238.718 256.176 Q238.718 266.835 241.427 272.183 Q244.17 277.495 249.586 277.495 Q255.038 277.495 257.746 272.183 Q260.489 266.835 260.489 256.176 Q260.489 245.481 257.746 240.169 Q255.038 234.822 249.586 234.822 M249.586 229.266 Q258.302 229.266 262.885 236.176 Q267.503 243.051 267.503 256.176 Q267.503 269.266 262.885 276.176 Q258.302 283.051 249.586 283.051 Q240.871 283.051 236.253 276.176 Q231.67 269.266 231.67 256.176 Q231.67 243.051 236.253 236.176 Q240.871 229.266 249.586 229.266 Z" fill="#000000" fill-rule="nonzero" fill-opacity="1" /><path clip-path="url(#clip650)" d="M35.6047 1045.01 Q31.2992 1042.61 29.2506 1039.28 Q27.202 1035.94 27.202 1031.43 Q27.202 1025.35 31.4728 1022.06 Q35.7089 1018.76 43.5561 1018.76 L67.0282 1018.76 L67.0282 1025.18 L43.7644 1025.18 Q38.1741 1025.18 35.4658 1027.16 Q32.7575 1029.14 32.7575 1033.2 Q32.7575 1038.17 36.0561 1041.05 Q39.3547 1043.93 45.0491 1043.93 L67.0282 1043.93 L67.0282 1050.35 L43.7644 1050.35 Q38.1394 1050.35 35.4658 1052.33 Q32.7575 1054.31 32.7575 1058.44 Q32.7575 1063.34 36.0908 1066.22 Q39.3894 1069.1 45.0491 1069.1 L67.0282 1069.1 L67.0282 1075.53 L28.1395 1075.53 L28.1395 1069.1 L34.1811 1069.1 Q30.6047 1066.92 28.9034 1063.86 Q27.202 1060.81 27.202 1056.6 Q27.202 1052.37 29.3547 1049.42 Q31.5075 1046.43 35.6047 1045.01 Z" fill="#000000" fill-rule="nonzero" fill-opacity="1" /><path clip-path="url(#clip650)" d="M47.4797 988.341 Q47.4797 996.084 49.2505 999.07 Q51.0213 1002.06 55.2921 1002.06 Q58.6949 1002.06 60.7087 999.834 Q62.6879 997.577 62.6879 993.723 Q62.6879 988.41 58.9379 985.216 Q55.1532 981.987 48.9033 981.987 L47.4797 981.987 L47.4797 988.341 M44.8408 975.598 L67.0282 975.598 L67.0282 981.987 L61.1254 981.987 Q64.6671 984.174 66.3684 987.438 Q68.0351 990.702 68.0351 995.424 Q68.0351 1001.4 64.7018 1004.94 Q61.3337 1008.44 55.7088 1008.44 Q49.1463 1008.44 45.813 1004.07 Q42.4797 999.66 42.4797 990.945 L42.4797 981.987 L41.8547 981.987 Q37.445 981.987 35.0492 984.903 Q32.6186 987.785 32.6186 993.028 Q32.6186 996.362 33.4172 999.521 Q34.2158 1002.68 35.813 1005.6 L29.9103 1005.6 Q28.5561 1002.09 27.8964 998.792 Q27.202 995.493 27.202 992.369 Q27.202 983.931 31.577 979.764 Q35.9519 975.598 44.8408 975.598 Z" fill="#000000" fill-rule="nonzero" fill-opacity="1" /><path clip-path="url(#clip650)" d="M29.2853 937.647 L35.3269 937.647 Q33.9381 940.355 33.2436 943.272 Q32.5492 946.188 32.5492 949.313 Q32.5492 954.07 34.0075 956.466 Q35.4658 958.827 38.3825 958.827 Q40.6047 958.827 41.8894 957.126 Q43.1394 955.424 44.2852 950.285 L44.7713 948.098 Q46.2297 941.292 48.9033 938.445 Q51.5421 935.563 56.299 935.563 Q61.7157 935.563 64.8754 939.869 Q68.0351 944.14 68.0351 951.64 Q68.0351 954.765 67.4101 958.167 Q66.8198 961.535 65.6046 965.285 L59.0074 965.285 Q60.8476 961.744 61.7851 958.306 Q62.6879 954.869 62.6879 951.501 Q62.6879 946.987 61.1601 944.556 Q59.5976 942.126 56.7852 942.126 Q54.181 942.126 52.7921 943.897 Q51.4032 945.633 50.1185 951.57 L49.5977 953.792 Q48.3477 959.73 45.7783 962.369 Q43.1741 965.008 38.6603 965.008 Q33.1742 965.008 30.1881 961.119 Q27.202 957.23 27.202 950.077 Q27.202 946.535 27.7228 943.41 Q28.2436 940.285 29.2853 937.647 Z" fill="#000000" fill-rule="nonzero" fill-opacity="1" /><path clip-path="url(#clip650)" d="M29.2853 900.598 L35.3269 900.598 Q33.9381 903.306 33.2436 906.223 Q32.5492 909.14 32.5492 912.265 Q32.5492 917.022 34.0075 919.418 Q35.4658 921.779 38.3825 921.779 Q40.6047 921.779 41.8894 920.077 Q43.1394 918.376 44.2852 913.237 L44.7713 911.049 Q46.2297 904.244 48.9033 901.397 Q51.5421 898.515 56.299 898.515 Q61.7157 898.515 64.8754 902.82 Q68.0351 907.091 68.0351 914.591 Q68.0351 917.716 67.4101 921.119 Q66.8198 924.487 65.6046 928.237 L59.0074 928.237 Q60.8476 924.695 61.7851 921.258 Q62.6879 917.82 62.6879 914.452 Q62.6879 909.938 61.1601 907.508 Q59.5976 905.077 56.7852 905.077 Q54.181 905.077 52.7921 906.848 Q51.4032 908.584 50.1185 914.522 L49.5977 916.744 Q48.3477 922.681 45.7783 925.32 Q43.1741 927.959 38.6603 927.959 Q33.1742 927.959 30.1881 924.07 Q27.202 920.181 27.202 913.029 Q27.202 909.487 27.7228 906.362 Q28.2436 903.237 29.2853 900.598 Z" fill="#000000" fill-rule="nonzero" fill-opacity="1" /><path clip-path="url(#clip650)" d="M61.1949 859.557 L81.8197 859.557 L81.8197 865.98 L28.1395 865.98 L28.1395 859.557 L34.0422 859.557 Q30.57 857.543 28.9034 854.487 Q27.202 851.397 27.202 847.126 Q27.202 840.043 32.827 835.633 Q38.4519 831.189 47.6185 831.189 Q56.7852 831.189 62.4101 835.633 Q68.0351 840.043 68.0351 847.126 Q68.0351 851.397 66.3684 854.487 Q64.6671 857.543 61.1949 859.557 M47.6185 837.821 Q40.57 837.821 36.5769 840.737 Q32.5492 843.619 32.5492 848.689 Q32.5492 853.758 36.5769 856.675 Q40.57 859.557 47.6185 859.557 Q54.6671 859.557 58.6949 856.675 Q62.6879 853.758 62.6879 848.689 Q62.6879 843.619 58.6949 840.737 Q54.6671 837.821 47.6185 837.821 Z" fill="#000000" fill-rule="nonzero" fill-opacity="1" /><path clip-path="url(#clip650)" d="M32.6186 805.529 Q32.6186 810.668 36.6464 813.654 Q40.6394 816.64 47.6185 816.64 Q54.5977 816.64 58.6254 813.689 Q62.6185 810.703 62.6185 805.529 Q62.6185 800.425 58.5907 797.439 Q54.5629 794.453 47.6185 794.453 Q40.7089 794.453 36.6811 797.439 Q32.6186 800.425 32.6186 805.529 M27.202 805.529 Q27.202 797.196 32.6186 792.439 Q38.0353 787.682 47.6185 787.682 Q57.1671 787.682 62.6185 792.439 Q68.0351 797.196 68.0351 805.529 Q68.0351 813.897 62.6185 818.654 Q57.1671 823.376 47.6185 823.376 Q38.0353 823.376 32.6186 818.654 Q27.202 813.897 27.202 805.529 Z" fill="#000000" fill-rule="nonzero" fill-opacity="1" /><path clip-path="url(#clip650)" d="M29.2853 752.3 L35.3269 752.3 Q33.9381 755.009 33.2436 757.925 Q32.5492 760.842 32.5492 763.967 Q32.5492 768.724 34.0075 771.12 Q35.4658 773.481 38.3825 773.481 Q40.6047 773.481 41.8894 771.779 Q43.1394 770.078 44.2852 764.939 L44.7713 762.752 Q46.2297 755.946 48.9033 753.099 Q51.5421 750.217 56.299 750.217 Q61.7157 750.217 64.8754 754.523 Q68.0351 758.793 68.0351 766.293 Q68.0351 769.418 67.4101 772.821 Q66.8198 776.189 65.6046 779.939 L59.0074 779.939 Q60.8476 776.397 61.7851 772.96 Q62.6879 769.522 62.6879 766.154 Q62.6879 761.641 61.1601 759.21 Q59.5976 756.779 56.7852 756.779 Q54.181 756.779 52.7921 758.55 Q51.4032 760.286 50.1185 766.224 L49.5977 768.446 Q48.3477 774.384 45.7783 777.022 Q43.1741 779.661 38.6603 779.661 Q33.1742 779.661 30.1881 775.772 Q27.202 771.884 27.202 764.731 Q27.202 761.189 27.7228 758.064 Q28.2436 754.939 29.2853 752.3 Z" fill="#000000" fill-rule="nonzero" fill-opacity="1" /><path clip-path="url(#clip650)" d="M28.1395 740.043 L28.1395 733.655 L67.0282 733.655 L67.0282 740.043 L28.1395 740.043 M13.0007 740.043 L13.0007 733.655 L21.0909 733.655 L21.0909 740.043 L13.0007 740.043 Z" fill="#000000" fill-rule="nonzero" fill-opacity="1" /><path clip-path="url(#clip650)" d="M17.0979 713.967 L28.1395 713.967 L28.1395 700.808 L33.1047 700.808 L33.1047 713.967 L54.2157 713.967 Q58.9726 713.967 60.3268 712.683 Q61.681 711.363 61.681 707.37 L61.681 700.808 L67.0282 700.808 L67.0282 707.37 Q67.0282 714.766 64.2851 717.578 Q61.5074 720.391 54.2157 720.391 L33.1047 720.391 L33.1047 725.078 L28.1395 725.078 L28.1395 720.391 L17.0979 720.391 L17.0979 713.967 Z" fill="#000000" fill-rule="nonzero" fill-opacity="1" /><path clip-path="url(#clip650)" d="M28.1395 692.405 L28.1395 686.016 L67.0282 686.016 L67.0282 692.405 L28.1395 692.405 M13.0007 692.405 L13.0007 686.016 L21.0909 686.016 L21.0909 692.405 L13.0007 692.405 Z" fill="#000000" fill-rule="nonzero" fill-opacity="1" /><path clip-path="url(#clip650)" d="M32.6186 657.579 Q32.6186 662.717 36.6464 665.704 Q40.6394 668.69 47.6185 668.69 Q54.5977 668.69 58.6254 665.738 Q62.6185 662.752 62.6185 657.579 Q62.6185 652.474 58.5907 649.488 Q54.5629 646.502 47.6185 646.502 Q40.7089 646.502 36.6811 649.488 Q32.6186 652.474 32.6186 657.579 M27.202 657.579 Q27.202 649.245 32.6186 644.488 Q38.0353 639.732 47.6185 639.732 Q57.1671 639.732 62.6185 644.488 Q68.0351 649.245 68.0351 657.579 Q68.0351 665.947 62.6185 670.704 Q57.1671 675.426 47.6185 675.426 Q38.0353 675.426 32.6186 670.704 Q27.202 665.947 27.202 657.579 Z" fill="#000000" fill-rule="nonzero" fill-opacity="1" /><path clip-path="url(#clip650)" d="M43.5561 596.815 L67.0282 596.815 L67.0282 603.204 L43.7644 603.204 Q38.2436 603.204 35.5005 605.357 Q32.7575 607.509 32.7575 611.815 Q32.7575 616.989 36.0561 619.975 Q39.3547 622.961 45.0491 622.961 L67.0282 622.961 L67.0282 629.384 L28.1395 629.384 L28.1395 622.961 L34.1811 622.961 Q30.6742 620.669 28.9381 617.579 Q27.202 614.454 27.202 610.391 Q27.202 603.69 31.3686 600.253 Q35.5005 596.815 43.5561 596.815 Z" fill="#000000" fill-rule="nonzero" fill-opacity="1" /><path clip-path="url(#clip650)" d="M13.0007 562.058 L13.0007 547.336 L17.9659 547.336 L17.9659 555.669 L71.4379 555.669 L71.4379 547.336 L76.4031 547.336 L76.4031 562.058 L13.0007 562.058 Z" fill="#000000" fill-rule="nonzero" fill-opacity="1" /><path clip-path="url(#clip650)" d="M35.6047 503.448 Q31.2992 501.052 29.2506 497.718 Q27.202 494.385 27.202 489.871 Q27.202 483.795 31.4728 480.496 Q35.7089 477.198 43.5561 477.198 L67.0282 477.198 L67.0282 483.621 L43.7644 483.621 Q38.1741 483.621 35.4658 485.6 Q32.7575 487.58 32.7575 491.642 Q32.7575 496.607 36.0561 499.489 Q39.3547 502.371 45.0491 502.371 L67.0282 502.371 L67.0282 508.795 L43.7644 508.795 Q38.1394 508.795 35.4658 510.774 Q32.7575 512.753 32.7575 516.885 Q32.7575 521.781 36.0908 524.663 Q39.3894 527.545 45.0491 527.545 L67.0282 527.545 L67.0282 533.968 L28.1395 533.968 L28.1395 527.545 L34.1811 527.545 Q30.6047 525.357 28.9034 522.302 Q27.202 519.246 27.202 515.045 Q27.202 510.809 29.3547 507.857 Q31.5075 504.871 35.6047 503.448 Z" fill="#000000" fill-rule="nonzero" fill-opacity="1" /><path clip-path="url(#clip650)" d="M13.0007 449.524 L76.4031 449.524 L76.4031 464.246 L71.4379 464.246 L71.4379 455.948 L17.9659 455.948 L17.9659 464.246 L13.0007 464.246 L13.0007 449.524 Z" fill="#000000" fill-rule="nonzero" fill-opacity="1" /><path clip-path="url(#clip650)" d="M592.668 12.096 L604.861 12.096 L620.295 53.2532 L635.81 12.096 L648.003 12.096 L648.003 72.576 L640.023 72.576 L640.023 19.4686 L624.427 60.9499 L616.203 60.9499 L600.607 19.4686 L600.607 72.576 L592.668 72.576 L592.668 12.096 Z" fill="#000000" fill-rule="nonzero" fill-opacity="1" /><path clip-path="url(#clip650)" d="M681.504 32.4315 Q675.509 32.4315 672.025 37.1306 Q668.541 41.7891 668.541 49.9314 Q668.541 58.0738 671.984 62.7728 Q675.468 67.4314 681.504 67.4314 Q687.459 67.4314 690.942 62.7323 Q694.426 58.0333 694.426 49.9314 Q694.426 41.8701 690.942 37.1711 Q687.459 32.4315 681.504 32.4315 M681.504 26.1121 Q691.226 26.1121 696.776 32.4315 Q702.325 38.7509 702.325 49.9314 Q702.325 61.0714 696.776 67.4314 Q691.226 73.7508 681.504 73.7508 Q671.741 73.7508 666.191 67.4314 Q660.682 61.0714 660.682 49.9314 Q660.682 38.7509 666.191 32.4315 Q671.741 26.1121 681.504 26.1121 Z" fill="#000000" fill-rule="nonzero" fill-opacity="1" /><path clip-path="url(#clip650)" d="M744.536 34.0924 L744.536 9.54393 L751.99 9.54393 L751.99 72.576 L744.536 72.576 L744.536 65.7705 Q742.186 69.8214 738.581 71.8063 Q735.016 73.7508 729.993 73.7508 Q721.77 73.7508 716.585 67.1883 Q711.44 60.6258 711.44 49.9314 Q711.44 39.2371 716.585 32.6746 Q721.77 26.1121 729.993 26.1121 Q735.016 26.1121 738.581 28.0971 Q742.186 30.0415 744.536 34.0924 M719.137 49.9314 Q719.137 58.1548 722.499 62.8538 Q725.902 67.5124 731.816 67.5124 Q737.73 67.5124 741.133 62.8538 Q744.536 58.1548 744.536 49.9314 Q744.536 41.7081 741.133 37.0496 Q737.73 32.3505 731.816 32.3505 Q725.902 32.3505 722.499 37.0496 Q719.137 41.7081 719.137 49.9314 Z" fill="#000000" fill-rule="nonzero" fill-opacity="1" /><path clip-path="url(#clip650)" d="M767.343 27.2059 L774.796 27.2059 L774.796 72.576 L767.343 72.576 L767.343 27.2059 M767.343 9.54393 L774.796 9.54393 L774.796 18.9825 L767.343 18.9825 L767.343 9.54393 Z" fill="#000000" fill-rule="nonzero" fill-opacity="1" /><path clip-path="url(#clip650)" d="M813.361 9.54393 L813.361 15.7418 L806.231 15.7418 Q802.221 15.7418 800.641 17.3622 Q799.102 18.9825 799.102 23.1955 L799.102 27.2059 L811.376 27.2059 L811.376 32.9987 L799.102 32.9987 L799.102 72.576 L791.607 72.576 L791.607 32.9987 L784.478 32.9987 L784.478 27.2059 L791.607 27.2059 L791.607 24.0462 Q791.607 16.471 795.132 13.0277 Q798.656 9.54393 806.312 9.54393 L813.361 9.54393 Z" fill="#000000" fill-rule="nonzero" fill-opacity="1" /><path clip-path="url(#clip650)" d="M819.599 27.2059 L827.053 27.2059 L827.053 72.576 L819.599 72.576 L819.599 27.2059 M819.599 9.54393 L827.053 9.54393 L827.053 18.9825 L819.599 18.9825 L819.599 9.54393 Z" fill="#000000" fill-rule="nonzero" fill-opacity="1" /><path clip-path="url(#clip650)" d="M881.456 48.0275 L881.456 51.6733 L847.186 51.6733 Q847.672 59.3701 851.804 63.421 Q855.976 67.4314 863.389 67.4314 Q867.683 67.4314 871.694 66.3781 Q875.745 65.3249 879.715 63.2184 L879.715 70.267 Q875.704 71.9684 871.491 72.8596 Q867.278 73.7508 862.944 73.7508 Q852.087 73.7508 845.728 67.4314 Q839.408 61.1119 839.408 50.3365 Q839.408 39.1965 845.403 32.6746 Q851.439 26.1121 861.648 26.1121 Q870.803 26.1121 876.109 32.0264 Q881.456 37.9003 881.456 48.0275 M874.003 45.84 Q873.922 39.7232 870.56 36.0774 Q867.238 32.4315 861.729 32.4315 Q855.49 32.4315 851.723 35.9558 Q847.996 39.4801 847.429 45.8805 L874.003 45.84 Z" fill="#000000" fill-rule="nonzero" fill-opacity="1" /><path clip-path="url(#clip650)" d="M923.545 34.0924 L923.545 9.54393 L930.999 9.54393 L930.999 72.576 L923.545 72.576 L923.545 65.7705 Q921.196 69.8214 917.591 71.8063 Q914.026 73.7508 909.003 73.7508 Q900.779 73.7508 895.594 67.1883 Q890.449 60.6258 890.449 49.9314 Q890.449 39.2371 895.594 32.6746 Q900.779 26.1121 909.003 26.1121 Q914.026 26.1121 917.591 28.0971 Q921.196 30.0415 923.545 34.0924 M898.146 49.9314 Q898.146 58.1548 901.508 62.8538 Q904.911 67.5124 910.826 67.5124 Q916.74 67.5124 920.143 62.8538 Q923.545 58.1548 923.545 49.9314 Q923.545 41.7081 920.143 37.0496 Q916.74 32.3505 910.826 32.3505 Q904.911 32.3505 901.508 37.0496 Q898.146 41.7081 898.146 49.9314 Z" fill="#000000" fill-rule="nonzero" fill-opacity="1" /><path clip-path="url(#clip650)" d="M948.256 62.2867 L956.803 62.2867 L956.803 72.576 L948.256 72.576 L948.256 62.2867 M948.256 29.6769 L956.803 29.6769 L956.803 39.9662 L948.256 39.9662 L948.256 29.6769 Z" fill="#000000" fill-rule="nonzero" fill-opacity="1" /><path clip-path="url(#clip650)" d="M1001 12.096 L1013.19 12.096 L1028.63 53.2532 L1044.14 12.096 L1056.33 12.096 L1056.33 72.576 L1048.35 72.576 L1048.35 19.4686 L1032.76 60.9499 L1024.53 60.9499 L1008.94 19.4686 L1008.94 72.576 L1001 72.576 L1001 12.096 Z" fill="#000000" fill-rule="nonzero" fill-opacity="1" /><path clip-path="url(#clip650)" d="M1092.87 49.7694 Q1083.84 49.7694 1080.36 51.8354 Q1076.87 53.9013 1076.87 58.8839 Q1076.87 62.8538 1079.46 65.2034 Q1082.1 67.5124 1086.59 67.5124 Q1092.79 67.5124 1096.52 63.1374 Q1100.29 58.7219 1100.29 51.4303 L1100.29 49.7694 L1092.87 49.7694 M1107.74 46.6907 L1107.74 72.576 L1100.29 72.576 L1100.29 65.6895 Q1097.73 69.8214 1093.93 71.8063 Q1090.12 73.7508 1084.61 73.7508 Q1077.64 73.7508 1073.51 69.8619 Q1069.42 65.9325 1069.42 59.3701 Q1069.42 51.7138 1074.52 47.825 Q1079.67 43.9361 1089.83 43.9361 L1100.29 43.9361 L1100.29 43.2069 Q1100.29 38.0623 1096.88 35.2672 Q1093.52 32.4315 1087.4 32.4315 Q1083.52 32.4315 1079.83 33.3632 Q1076.14 34.295 1072.74 36.1584 L1072.74 29.2718 Q1076.83 27.692 1080.68 26.9223 Q1084.53 26.1121 1088.17 26.1121 Q1098.02 26.1121 1102.88 31.2163 Q1107.74 36.3204 1107.74 46.6907 Z" fill="#000000" fill-rule="nonzero" fill-opacity="1" /><path clip-path="url(#clip650)" d="M1152.02 28.5427 L1152.02 35.5912 Q1148.86 33.9709 1145.45 33.1607 Q1142.05 32.3505 1138.41 32.3505 Q1132.86 32.3505 1130.06 34.0519 Q1127.31 35.7533 1127.31 39.156 Q1127.31 41.7486 1129.29 43.2475 Q1131.28 44.7058 1137.27 46.0426 L1139.82 46.6097 Q1147.76 48.3111 1151.08 51.4303 Q1154.45 54.509 1154.45 60.0587 Q1154.45 66.3781 1149.42 70.0644 Q1144.44 73.7508 1135.69 73.7508 Q1132.05 73.7508 1128.08 73.0216 Q1124.15 72.3329 1119.77 70.9151 L1119.77 63.2184 Q1123.9 65.3654 1127.91 66.4591 Q1131.92 67.5124 1135.85 67.5124 Q1141.12 67.5124 1143.96 65.73 Q1146.79 63.9071 1146.79 60.6258 Q1146.79 57.5877 1144.72 55.9673 Q1142.7 54.3469 1135.77 52.8481 L1133.18 52.2405 Q1126.25 50.7821 1123.17 47.7845 Q1120.1 44.7463 1120.1 39.4801 Q1120.1 33.0797 1124.63 29.5959 Q1129.17 26.1121 1137.51 26.1121 Q1141.65 26.1121 1145.29 26.7198 Q1148.94 27.3274 1152.02 28.5427 Z" fill="#000000" fill-rule="nonzero" fill-opacity="1" /><path clip-path="url(#clip650)" d="M1195.24 28.5427 L1195.24 35.5912 Q1192.08 33.9709 1188.68 33.1607 Q1185.27 32.3505 1181.63 32.3505 Q1176.08 32.3505 1173.28 34.0519 Q1170.53 35.7533 1170.53 39.156 Q1170.53 41.7486 1172.51 43.2475 Q1174.5 44.7058 1180.49 46.0426 L1183.05 46.6097 Q1190.99 48.3111 1194.31 51.4303 Q1197.67 54.509 1197.67 60.0587 Q1197.67 66.3781 1192.65 70.0644 Q1187.66 73.7508 1178.91 73.7508 Q1175.27 73.7508 1171.3 73.0216 Q1167.37 72.3329 1162.99 70.9151 L1162.99 63.2184 Q1167.13 65.3654 1171.14 66.4591 Q1175.15 67.5124 1179.08 67.5124 Q1184.34 67.5124 1187.18 65.73 Q1190.01 63.9071 1190.01 60.6258 Q1190.01 57.5877 1187.95 55.9673 Q1185.92 54.3469 1179 52.8481 L1176.4 52.2405 Q1169.48 50.7821 1166.4 47.7845 Q1163.32 44.7463 1163.32 39.4801 Q1163.32 33.0797 1167.86 29.5959 Q1172.39 26.1121 1180.74 26.1121 Q1184.87 26.1121 1188.52 26.7198 Q1192.16 27.3274 1195.24 28.5427 Z" fill="#000000" fill-rule="nonzero" fill-opacity="1" /><path clip-path="url(#clip650)" d="M1243.12 65.7705 L1243.12 89.8329 L1235.63 89.8329 L1235.63 27.2059 L1243.12 27.2059 L1243.12 34.0924 Q1245.47 30.0415 1249.04 28.0971 Q1252.64 26.1121 1257.62 26.1121 Q1265.89 26.1121 1271.03 32.6746 Q1276.22 39.2371 1276.22 49.9314 Q1276.22 60.6258 1271.03 67.1883 Q1265.89 73.7508 1257.62 73.7508 Q1252.64 73.7508 1249.04 71.8063 Q1245.47 69.8214 1243.12 65.7705 M1268.48 49.9314 Q1268.48 41.7081 1265.08 37.0496 Q1261.71 32.3505 1255.8 32.3505 Q1249.89 32.3505 1246.48 37.0496 Q1243.12 41.7081 1243.12 49.9314 Q1243.12 58.1548 1246.48 62.8538 Q1249.89 67.5124 1255.8 67.5124 Q1261.71 67.5124 1265.08 62.8538 Q1268.48 58.1548 1268.48 49.9314 Z" fill="#000000" fill-rule="nonzero" fill-opacity="1" /><path clip-path="url(#clip650)" d="M1306.15 32.4315 Q1300.16 32.4315 1296.67 37.1306 Q1293.19 41.7891 1293.19 49.9314 Q1293.19 58.0738 1296.63 62.7728 Q1300.12 67.4314 1306.15 67.4314 Q1312.11 67.4314 1315.59 62.7323 Q1319.08 58.0333 1319.08 49.9314 Q1319.08 41.8701 1315.59 37.1711 Q1312.11 32.4315 1306.15 32.4315 M1306.15 26.1121 Q1315.88 26.1121 1321.43 32.4315 Q1326.97 38.7509 1326.97 49.9314 Q1326.97 61.0714 1321.43 67.4314 Q1315.88 73.7508 1306.15 73.7508 Q1296.39 73.7508 1290.84 67.4314 Q1285.33 61.0714 1285.33 49.9314 Q1285.33 38.7509 1290.84 32.4315 Q1296.39 26.1121 1306.15 26.1121 Z" fill="#000000" fill-rule="nonzero" fill-opacity="1" /><path clip-path="url(#clip650)" d="M1368.25 28.5427 L1368.25 35.5912 Q1365.09 33.9709 1361.69 33.1607 Q1358.29 32.3505 1354.64 32.3505 Q1349.09 32.3505 1346.3 34.0519 Q1343.54 35.7533 1343.54 39.156 Q1343.54 41.7486 1345.53 43.2475 Q1347.51 44.7058 1353.51 46.0426 L1356.06 46.6097 Q1364 48.3111 1367.32 51.4303 Q1370.68 54.509 1370.68 60.0587 Q1370.68 66.3781 1365.66 70.0644 Q1360.68 73.7508 1351.93 73.7508 Q1348.28 73.7508 1344.31 73.0216 Q1340.38 72.3329 1336.01 70.9151 L1336.01 63.2184 Q1340.14 65.3654 1344.15 66.4591 Q1348.16 67.5124 1352.09 67.5124 Q1357.36 67.5124 1360.19 65.73 Q1363.03 63.9071 1363.03 60.6258 Q1363.03 57.5877 1360.96 55.9673 Q1358.94 54.3469 1352.01 52.8481 L1349.42 52.2405 Q1342.49 50.7821 1339.41 47.7845 Q1336.33 44.7463 1336.33 39.4801 Q1336.33 33.0797 1340.87 29.5959 Q1345.41 26.1121 1353.75 26.1121 Q1357.88 26.1121 1361.53 26.7198 Q1365.17 27.3274 1368.25 28.5427 Z" fill="#000000" fill-rule="nonzero" fill-opacity="1" /><path clip-path="url(#clip650)" d="M1382.55 27.2059 L1390.01 27.2059 L1390.01 72.576 L1382.55 72.576 L1382.55 27.2059 M1382.55 9.54393 L1390.01 9.54393 L1390.01 18.9825 L1382.55 18.9825 L1382.55 9.54393 Z" fill="#000000" fill-rule="nonzero" fill-opacity="1" /><path clip-path="url(#clip650)" d="M1412.98 14.324 L1412.98 27.2059 L1428.33 27.2059 L1428.33 32.9987 L1412.98 32.9987 L1412.98 57.6282 Q1412.98 63.1779 1414.47 64.7578 Q1416.01 66.3376 1420.67 66.3376 L1428.33 66.3376 L1428.33 72.576 L1420.67 72.576 Q1412.04 72.576 1408.76 69.3758 Q1405.48 66.1351 1405.48 57.6282 L1405.48 32.9987 L1400.01 32.9987 L1400.01 27.2059 L1405.48 27.2059 L1405.48 14.324 L1412.98 14.324 Z" fill="#000000" fill-rule="nonzero" fill-opacity="1" /><path clip-path="url(#clip650)" d="M1438.13 27.2059 L1445.59 27.2059 L1445.59 72.576 L1438.13 72.576 L1438.13 27.2059 M1438.13 9.54393 L1445.59 9.54393 L1445.59 18.9825 L1438.13 18.9825 L1438.13 9.54393 Z" fill="#000000" fill-rule="nonzero" fill-opacity="1" /><path clip-path="url(#clip650)" d="M1478.76 32.4315 Q1472.77 32.4315 1469.28 37.1306 Q1465.8 41.7891 1465.8 49.9314 Q1465.8 58.0738 1469.24 62.7728 Q1472.73 67.4314 1478.76 67.4314 Q1484.72 67.4314 1488.2 62.7323 Q1491.68 58.0333 1491.68 49.9314 Q1491.68 41.8701 1488.2 37.1711 Q1484.72 32.4315 1478.76 32.4315 M1478.76 26.1121 Q1488.48 26.1121 1494.03 32.4315 Q1499.58 38.7509 1499.58 49.9314 Q1499.58 61.0714 1494.03 67.4314 Q1488.48 73.7508 1478.76 73.7508 Q1469 73.7508 1463.45 67.4314 Q1457.94 61.0714 1457.94 49.9314 Q1457.94 38.7509 1463.45 32.4315 Q1469 26.1121 1478.76 26.1121 Z" fill="#000000" fill-rule="nonzero" fill-opacity="1" /><path clip-path="url(#clip650)" d="M1549.65 45.1919 L1549.65 72.576 L1542.2 72.576 L1542.2 45.4349 Q1542.2 38.994 1539.69 35.7938 Q1537.18 32.5936 1532.15 32.5936 Q1526.12 32.5936 1522.63 36.4419 Q1519.15 40.2903 1519.15 46.9338 L1519.15 72.576 L1511.66 72.576 L1511.66 27.2059 L1519.15 27.2059 L1519.15 34.2544 Q1521.82 30.163 1525.43 28.1376 Q1529.07 26.1121 1533.81 26.1121 Q1541.63 26.1121 1545.64 30.9732 Q1549.65 35.7938 1549.65 45.1919 Z" fill="#000000" fill-rule="nonzero" fill-opacity="1" /><path clip-path="url(#clip650)" d="M1611.51 49.7694 Q1602.48 49.7694 1598.99 51.8354 Q1595.51 53.9013 1595.51 58.8839 Q1595.51 62.8538 1598.1 65.2034 Q1600.74 67.5124 1605.23 67.5124 Q1611.43 67.5124 1615.16 63.1374 Q1618.92 58.7219 1618.92 51.4303 L1618.92 49.7694 L1611.51 49.7694 M1626.38 46.6907 L1626.38 72.576 L1618.92 72.576 L1618.92 65.6895 Q1616.37 69.8214 1612.56 71.8063 Q1608.76 73.7508 1603.25 73.7508 Q1596.28 73.7508 1592.15 69.8619 Q1588.06 65.9325 1588.06 59.3701 Q1588.06 51.7138 1593.16 47.825 Q1598.3 43.9361 1608.47 43.9361 L1618.92 43.9361 L1618.92 43.2069 Q1618.92 38.0623 1615.52 35.2672 Q1612.16 32.4315 1606.04 32.4315 Q1602.15 32.4315 1598.47 33.3632 Q1594.78 34.295 1591.38 36.1584 L1591.38 29.2718 Q1595.47 27.692 1599.32 26.9223 Q1603.17 26.1121 1606.81 26.1121 Q1616.66 26.1121 1621.52 31.2163 Q1626.38 36.3204 1626.38 46.6907 Z" fill="#000000" fill-rule="nonzero" fill-opacity="1" /><path clip-path="url(#clip650)" d="M1664.7 9.54393 L1664.7 15.7418 L1657.57 15.7418 Q1653.56 15.7418 1651.98 17.3622 Q1650.44 18.9825 1650.44 23.1955 L1650.44 27.2059 L1662.71 27.2059 L1662.71 32.9987 L1650.44 32.9987 L1650.44 72.576 L1642.95 72.576 L1642.95 32.9987 L1635.82 32.9987 L1635.82 27.2059 L1642.95 27.2059 L1642.95 24.0462 Q1642.95 16.471 1646.47 13.0277 Q1649.99 9.54393 1657.65 9.54393 L1664.7 9.54393 Z" fill="#000000" fill-rule="nonzero" fill-opacity="1" /><path clip-path="url(#clip650)" d="M1676.85 14.324 L1676.85 27.2059 L1692.2 27.2059 L1692.2 32.9987 L1676.85 32.9987 L1676.85 57.6282 Q1676.85 63.1779 1678.35 64.7578 Q1679.89 66.3376 1684.55 66.3376 L1692.2 66.3376 L1692.2 72.576 L1684.55 72.576 Q1675.92 72.576 1672.64 69.3758 Q1669.36 66.1351 1669.36 57.6282 L1669.36 32.9987 L1663.89 32.9987 L1663.89 27.2059 L1669.36 27.2059 L1669.36 14.324 L1676.85 14.324 Z" fill="#000000" fill-rule="nonzero" fill-opacity="1" /><path clip-path="url(#clip650)" d="M1740.82 48.0275 L1740.82 51.6733 L1706.54 51.6733 Q1707.03 59.3701 1711.16 63.421 Q1715.34 67.4314 1722.75 67.4314 Q1727.04 67.4314 1731.05 66.3781 Q1735.1 65.3249 1739.07 63.2184 L1739.07 70.267 Q1735.06 71.9684 1730.85 72.8596 Q1726.64 73.7508 1722.3 73.7508 Q1711.45 73.7508 1705.09 67.4314 Q1698.77 61.1119 1698.77 50.3365 Q1698.77 39.1965 1704.76 32.6746 Q1710.8 26.1121 1721.01 26.1121 Q1730.16 26.1121 1735.47 32.0264 Q1740.82 37.9003 1740.82 48.0275 M1733.36 45.84 Q1733.28 39.7232 1729.92 36.0774 Q1726.6 32.4315 1721.09 32.4315 Q1714.85 32.4315 1711.08 35.9558 Q1707.35 39.4801 1706.79 45.8805 L1733.36 45.84 Z" fill="#000000" fill-rule="nonzero" fill-opacity="1" /><path clip-path="url(#clip650)" d="M1779.34 34.1734 Q1778.08 33.4443 1776.58 33.1202 Q1775.13 32.7556 1773.34 32.7556 Q1767.02 32.7556 1763.62 36.8875 Q1760.26 40.9789 1760.26 48.6757 L1760.26 72.576 L1752.77 72.576 L1752.77 27.2059 L1760.26 27.2059 L1760.26 34.2544 Q1762.61 30.1225 1766.38 28.1376 Q1770.14 26.1121 1775.53 26.1121 Q1776.3 26.1121 1777.23 26.2337 Q1778.16 26.3147 1779.3 26.5172 L1779.34 34.1734 Z" fill="#000000" fill-rule="nonzero" fill-opacity="1" /><path clip-path="url(#clip650)" d="M1842.53 44.2197 Q1845.17 45.1109 1847.64 48.0275 Q1850.15 50.9442 1852.66 56.0483 L1860.97 72.576 L1852.17 72.576 L1844.44 57.061 Q1841.44 50.9847 1838.6 48.9997 Q1835.81 47.0148 1830.95 47.0148 L1822.04 47.0148 L1822.04 72.576 L1813.85 72.576 L1813.85 12.096 L1832.33 12.096 Q1842.7 12.096 1847.8 16.4305 Q1852.9 20.7649 1852.9 29.5149 Q1852.9 35.2267 1850.23 38.994 Q1847.6 42.7613 1842.53 44.2197 M1822.04 18.8205 L1822.04 40.2903 L1832.33 40.2903 Q1838.24 40.2903 1841.24 37.5762 Q1844.28 34.8216 1844.28 29.5149 Q1844.28 24.2082 1841.24 21.5346 Q1838.24 18.8205 1832.33 18.8205 L1822.04 18.8205 Z" fill="#000000" fill-rule="nonzero" fill-opacity="1" /><path clip-path="url(#clip650)" d="M1866.68 54.671 L1866.68 27.2059 L1874.13 27.2059 L1874.13 54.3874 Q1874.13 60.8284 1876.64 64.0691 Q1879.15 67.2693 1884.18 67.2693 Q1890.21 67.2693 1893.7 63.421 Q1897.22 59.5726 1897.22 52.9291 L1897.22 27.2059 L1904.67 27.2059 L1904.67 72.576 L1897.22 72.576 L1897.22 65.6084 Q1894.51 69.7404 1890.9 71.7658 Q1887.34 73.7508 1882.6 73.7508 Q1874.78 73.7508 1870.73 68.8897 Q1866.68 64.0286 1866.68 54.671 M1885.43 26.1121 L1885.43 26.1121 Z" fill="#000000" fill-rule="nonzero" fill-opacity="1" /><path clip-path="url(#clip650)" d="M1957.74 45.1919 L1957.74 72.576 L1950.29 72.576 L1950.29 45.4349 Q1950.29 38.994 1947.78 35.7938 Q1945.26 32.5936 1940.24 32.5936 Q1934.21 32.5936 1930.72 36.4419 Q1927.24 40.2903 1927.24 46.9338 L1927.24 72.576 L1919.74 72.576 L1919.74 27.2059 L1927.24 27.2059 L1927.24 34.2544 Q1929.91 30.163 1933.52 28.1376 Q1937.16 26.1121 1941.9 26.1121 Q1949.72 26.1121 1953.73 30.9732 Q1957.74 35.7938 1957.74 45.1919 Z" fill="#000000" fill-rule="nonzero" fill-opacity="1" /><path clip-path="url(#clip650)" d="M1974.51 62.2867 L1983.06 62.2867 L1983.06 72.576 L1974.51 72.576 L1974.51 62.2867 M1974.51 29.6769 L1983.06 29.6769 L1983.06 39.9662 L1974.51 39.9662 L1974.51 29.6769 Z" fill="#000000" fill-rule="nonzero" fill-opacity="1" /><path clip-path="url(#clip650)" d="M2035.03 65.6895 L2063.59 65.6895 L2063.59 72.576 L2025.19 72.576 L2025.19 65.6895 Q2029.85 60.8689 2037.87 52.7671 Q2045.93 44.6248 2048 42.2752 Q2051.92 37.8598 2053.46 34.8216 Q2055.04 31.7429 2055.04 28.7857 Q2055.04 23.9651 2051.64 20.927 Q2048.28 17.8888 2042.85 17.8888 Q2039 17.8888 2034.71 19.2256 Q2030.45 20.5624 2025.59 23.2765 L2025.59 15.0127 Q2030.54 13.0277 2034.83 12.015 Q2039.12 11.0023 2042.69 11.0023 Q2052.09 11.0023 2057.68 15.7013 Q2063.27 20.4004 2063.27 28.2591 Q2063.27 31.9859 2061.85 35.3482 Q2060.47 38.6699 2056.79 43.2069 Q2055.77 44.3817 2050.34 50.0125 Q2044.92 55.6027 2035.03 65.6895 Z" fill="#000000" fill-rule="nonzero" fill-opacity="1" /><polyline clip-path="url(#clip652)" style="stroke:#009af9; stroke-linecap:round; stroke-linejoin:round; stroke-width:8; stroke-opacity:1; fill:none" points="361.501,824.046 366.334,841.004 371.167,857.841 376,874.532 380.833,891.057 385.666,907.382 390.5,923.523 395.333,939.437 400.166,955.131 404.999,970.575 409.832,985.761 414.665,1000.67 419.498,1015.29 424.332,1029.62 429.165,1043.61 433.998,1057.28 438.831,1070.6 443.664,1083.55 448.497,1096.15 453.33,1108.36 458.164,1120.18 462.997,1131.59 467.83,1142.58 472.663,1153.15 477.496,1163.28 482.329,1172.95 487.162,1182.16 491.996,1190.91 496.829,1199.17 501.662,1206.94 506.495,1214.22 511.328,1221 516.161,1227.27 520.994,1233.01 525.828,1238.24 530.661,1242.94 535.494,1247.11 540.327,1250.74 545.16,1253.83 549.993,1256.37 554.826,1258.37 559.66,1259.83 564.493,1260.73 569.326,1261.08 574.159,1260.88 578.992,1260.14 583.825,1258.84 588.658,1256.99 593.492,1254.6 598.325,1251.67 603.158,1248.19 607.991,1244.17 612.824,1239.63 617.657,1234.55 622.49,1228.95 627.324,1222.83 632.157,1216.2 636.99,1209.06 641.823,1201.42 646.656,1193.29 651.489,1184.69 656.322,1175.6 661.156,1166.06 665.989,1156.05 670.822,1145.6 675.655,1134.71 680.488,1123.41 685.321,1111.68 690.154,1099.55 694.988,1087.03 699.821,1074.14 704.654,1060.88 709.487,1047.27 714.32,1033.32 719.153,1019.05 723.986,1004.47 728.82,989.592 733.653,974.435 738.486,959.015 743.319,943.347 748.152,927.445 752.985,911.324 757.818,895.003 762.652,878.497 767.485,861.824 772.318,845.001 777.151,828.041 781.984,810.963 786.817,793.785 791.65,776.525 796.484,759.199 801.317,741.824 806.15,724.417 810.983,706.995 815.816,689.578 820.649,672.182 825.482,654.825 830.316,637.52 835.149,620.286 839.982,603.142 844.815,586.104 849.648,569.19 854.481,552.419 859.314,535.807 864.148,519.372 868.981,503.124 873.814,487.077 878.647,471.254 883.48,455.668 888.313,440.338 893.147,425.28 897.98,410.508 902.813,396.04 907.646,381.891 912.479,368.061 917.312,354.573 922.145,341.442 926.979,328.68 931.812,316.302 936.645,304.319 941.478,292.745 946.311,281.592 951.144,270.869 955.977,260.583 960.811,250.749 965.644,241.376 970.477,232.473 975.31,224.048 980.143,216.111 984.976,208.669 989.809,201.728 994.643,195.299 999.476,189.386 1004.31,183.996 1009.14,179.132 1013.98,174.8 1018.81,171.003 1023.64,167.745 1028.47,165.028 1033.31,162.856 1038.14,161.236 1042.97,160.165 1047.81,159.645 1052.64,159.675 1057.47,160.256 1062.31,161.385 1067.14,163.063 1071.97,165.287 1076.81,168.056 1081.64,171.37 1086.47,175.223 1091.31,179.611 1096.14,184.529 1100.97,189.973 1105.8,195.936 1110.64,202.414 1115.47,209.397 1120.3,216.885 1125.14,224.867 1129.97,233.334 1134.8,242.278 1139.64,251.69 1144.47,261.56 1149.3,271.879 1154.14,282.635 1158.97,293.819 1163.8,305.422 1168.64,317.431 1173.47,329.833 1178.3,342.615 1183.14,355.764 1187.97,369.268 1192.8,383.112 1197.63,397.281 1202.47,411.766 1207.3,426.551 1212.13,441.62 1216.97,456.958 1221.8,472.549 1226.63,488.377 1231.47,504.426 1236.3,520.68 1241.13,537.123 1245.97,553.742 1250.8,570.518 1255.63,587.434 1260.47,604.472 1265.3,621.615 1270.13,638.847 1274.96,656.15 1279.8,673.506 1284.63,690.899 1289.46,708.312 1294.3,725.728 1299.13,743.128 1303.96,760.494 1308.8,777.811 1313.63,795.06 1318.46,812.223 1323.3,829.284 1328.13,846.226 1332.96,863.033 1337.8,879.687 1342.63,896.172 1347.46,912.47 1352.3,928.566 1357.13,944.444 1361.96,960.088 1366.79,975.481 1371.63,990.61 1376.46,1005.46 1381.29,1020.01 1386.13,1034.25 1390.96,1048.17 1395.79,1061.75 1400.63,1074.98 1405.46,1087.85 1410.29,1100.34 1415.13,1112.43 1419.96,1124.13 1424.79,1135.41 1429.63,1146.26 1434.46,1156.68 1439.29,1166.66 1444.12,1176.18 1448.96,1185.23 1453.79,1193.8 1458.62,1201.9 1463.46,1209.5 1468.29,1216.6 1473.12,1223.19 1477.96,1229.27 1482.79,1234.84 1487.62,1239.88 1492.46,1244.39 1497.29,1248.36 1502.12,1251.8 1506.96,1254.7 1511.79,1257.05 1516.62,1258.85 1521.46,1260.11 1526.29,1260.82 1531.12,1260.97 1535.95,1260.58 1540.79,1259.63 1545.62,1258.14 1550.45,1256.09 1555.29,1253.51 1560.12,1250.38 1564.95,1246.71 1569.79,1242.5 1574.62,1237.76 1579.45,1232.5 1584.29,1226.71 1589.12,1220.4 1593.95,1213.59 1598.79,1206.27 1603.62,1198.45 1608.45,1190.15 1613.28,1181.37 1618.12,1172.12 1622.95,1162.41 1627.78,1152.24 1632.62,1141.63 1637.45,1130.59 1642.28,1119.13 1647.12,1107.27 1651.95,1095.01 1656.78,1082.36 1661.62,1069.34 1666.45,1055.96 1671.28,1042.23 1676.12,1028.18 1680.95,1013.8 1685.78,999.127 1690.62,984.162 1695.45,968.925 1700.28,953.43 1705.11,937.689 1709.95,921.721 1714.78,905.542 1719.61,889.168 1724.45,872.616 1729.28,855.903 1734.11,839.045 1738.95,822.06 1743.78,804.962 1748.61,787.768 1753.45,770.498 1758.28,753.167 1763.11,735.795 1767.95,718.397 1772.78,700.992 1777.61,683.598 1782.44,666.231 1787.28,648.907 1792.11,631.644 1796.94,614.461 1801.78,597.374 1806.61,580.4 1811.44,563.557 1816.28,546.862 1821.11,530.33 1825.94,513.979 1830.78,497.824 1835.61,481.881 1840.44,466.168 1845.28,450.699 1850.11,435.491 1854.94,420.557 1859.78,405.914 1864.61,391.575 1869.44,377.556 1874.27,363.87 1879.11,350.53 1883.94,337.551 1888.77,324.946 1893.61,312.725 1898.44,300.902 1903.27,289.489 1908.11,278.497 1912.94,267.938 1917.77,257.822 1922.61,248.159 1927.44,238.959 1932.27,230.23 1937.11,221.98 1941.94,214.219 1946.77,206.954 1951.6,200.194 1956.44,193.945 1961.27,188.213 1966.1,183.003 1970.94,178.32 1975.77,174.17 1980.6,170.555 1985.44,167.479 1990.27,164.946 1995.1,162.962 1999.94,161.525 2004.77,160.637 2009.6,160.299 2014.44,160.511 2019.27,161.273 2024.1,162.582 2028.94,164.439 2033.77,166.843 2038.6,169.792 2043.43,173.283 2048.27,177.31 2053.1,181.871 2057.93,186.959 2062.77,192.571 2067.6,198.699 2072.43,205.337 2077.27,212.485 2082.1,220.131 2086.93,228.267 2091.77,236.885 2096.6,245.976 2101.43,255.532 2106.27,265.541 2111.1,275.994 2115.93,286.881 2120.77,298.195 2125.6,309.921 2130.43,322.048 2135.26,334.562 2140.1,347.452 2144.93,360.705 2149.76,374.306 2154.6,388.241 2159.43,402.501 2164.26,417.071 2169.1,431.933 2173.93,447.074 2178.76,462.477 2183.6,478.128 2188.43,494.011 2193.26,510.109 2198.1,526.406 2202.93,542.89 2207.76,559.542 2212.59,576.344 2217.43,593.28 2222.26,610.333 2227.09,627.485 2231.93,644.72 2236.76,662.019 2241.59,679.367 2246.43,696.747 2251.26,714.141 2256.09,731.531 2260.93,748.899 2265.76,766.229 2270.59,783.502 2275.43,800.702 2280.26,817.81 2285.09,834.812 2289.93,851.69 2294.76,868.426 "/>
<polyline clip-path="url(#clip652)" style="stroke:#e26f46; stroke-linecap:round; stroke-linejoin:round; stroke-width:8; stroke-opacity:1; fill:none" points="361.501,824.046 366.334,841.052 371.167,858.002 376,874.878 380.833,891.662 385.666,908.32 390.5,924.866 395.333,941.256 400.166,957.501 404.999,973.562 409.832,989.443 414.665,1005.12 419.498,1020.57 424.332,1035.81 429.165,1050.8 433.998,1065.53 438.831,1079.97 443.664,1094.13 448.497,1107.98 453.33,1121.5 458.164,1134.67 462.997,1147.5 467.83,1159.96 472.663,1172.04 477.496,1183.73 482.329,1195.01 487.162,1205.88 491.996,1216.33 496.829,1226.34 501.662,1235.91 506.495,1245.02 511.328,1253.66 516.161,1261.84 520.994,1269.53 525.828,1276.72 530.661,1283.42 535.494,1289.61 540.327,1295.28 545.16,1300.43 549.993,1305.04 554.826,1309.12 559.66,1312.65 564.493,1315.63 569.326,1318.05 574.159,1319.91 578.992,1321.19 583.825,1321.91 588.658,1322.04 593.492,1321.71 598.325,1320.97 603.158,1319.81 607.991,1318.23 612.824,1316.23 617.657,1313.81 622.49,1310.97 627.324,1307.7 632.157,1304.01 636.99,1299.91 641.823,1295.38 646.656,1290.44 651.489,1285.09 656.322,1279.33 661.156,1273.16 665.989,1266.6 670.822,1259.64 675.655,1252.3 680.488,1244.57 685.321,1236.48 690.154,1228.01 694.988,1219.19 699.821,1210.01 704.654,1200.5 709.487,1190.65 714.32,1180.48 719.153,1169.99 723.986,1159.21 728.82,1148.13 733.653,1136.78 738.486,1125.15 743.319,1113.26 748.152,1101.12 752.985,1088.74 757.818,1076.14 762.652,1063.34 767.485,1050.34 772.318,1037.14 777.151,1023.78 781.984,1010.25 786.817,996.561 791.65,982.743 796.484,968.81 801.317,954.77 806.15,940.637 810.983,926.425 815.816,912.148 820.649,897.82 825.482,883.458 830.316,869.071 835.149,854.677 839.982,840.29 844.815,825.926 849.648,811.6 854.481,797.328 859.314,783.125 864.148,769 868.981,754.964 873.814,741.036 878.647,727.231 883.48,713.565 888.313,700.052 893.147,686.706 897.98,673.543 902.813,660.561 907.646,647.783 912.479,635.222 917.312,622.892 922.145,610.807 926.979,598.979 931.812,587.42 936.645,576.14 941.478,565.144 946.311,554.451 951.144,544.07 955.977,534.014 960.811,524.293 965.644,514.918 970.477,505.899 975.31,497.238 980.143,488.951 984.976,481.045 989.809,473.53 994.643,466.414 999.476,459.707 1004.31,453.415 1009.14,447.546 1013.98,442.105 1018.81,437.1 1023.64,432.539 1028.47,428.427 1033.31,424.771 1038.14,421.577 1042.97,418.85 1047.81,416.596 1052.64,414.819 1057.47,413.524 1062.31,412.716 1067.14,412.397 1071.97,412.561 1076.81,413.025 1081.64,413.808 1086.47,414.923 1091.31,416.37 1096.14,418.151 1100.97,420.267 1105.8,422.718 1110.64,425.503 1115.47,428.623 1120.3,432.074 1125.14,435.857 1129.97,439.969 1134.8,444.406 1139.64,449.168 1144.47,454.25 1149.3,459.647 1154.14,465.357 1158.97,471.37 1163.8,477.686 1168.64,484.299 1173.47,491.204 1178.3,498.39 1183.14,505.854 1187.97,513.592 1192.8,521.595 1197.63,529.85 1202.47,538.356 1207.3,547.104 1212.13,556.084 1216.97,565.283 1221.8,574.696 1226.63,584.314 1231.47,594.13 1236.3,604.135 1241.13,614.32 1245.97,624.671 1250.8,635.174 1255.63,645.824 1260.47,656.612 1265.3,667.527 1270.13,678.559 1274.96,689.698 1279.8,700.93 1284.63,712.243 1289.46,723.628 1294.3,735.073 1299.13,746.566 1303.96,758.096 1308.8,769.651 1313.63,781.221 1318.46,792.795 1323.3,804.36 1328.13,815.902 1332.96,827.412 1337.8,838.874 1342.63,850.279 1347.46,861.62 1352.3,872.884 1357.13,884.056 1361.96,895.126 1366.79,906.082 1371.63,916.912 1376.46,927.604 1381.29,938.155 1386.13,948.549 1390.96,958.776 1395.79,968.824 1400.63,978.683 1405.46,988.342 1410.29,997.791 1415.13,1007.03 1419.96,1016.03 1424.79,1024.8 1429.63,1033.33 1434.46,1041.6 1439.29,1049.6 1444.12,1057.33 1448.96,1064.78 1453.79,1071.94 1458.62,1078.81 1463.46,1085.37 1468.29,1091.62 1473.12,1097.55 1477.96,1103.16 1482.79,1108.43 1487.62,1113.36 1492.46,1117.95 1497.29,1122.19 1502.12,1126.07 1506.96,1129.59 1511.79,1132.74 1516.62,1135.51 1521.46,1137.91 1526.29,1139.93 1531.12,1141.56 1535.95,1142.8 1540.79,1143.64 1545.62,1144.09 1550.45,1144.11 1555.29,1143.85 1560.12,1143.38 1564.95,1142.68 1569.79,1141.74 1574.62,1140.57 1579.45,1139.16 1584.29,1137.5 1589.12,1135.6 1593.95,1133.46 1598.79,1131.08 1603.62,1128.46 1608.45,1125.6 1613.28,1122.5 1618.12,1119.17 1622.95,1115.6 1627.78,1111.8 1632.62,1107.78 1637.45,1103.52 1642.28,1099.05 1647.12,1094.37 1651.95,1089.46 1656.78,1084.34 1661.62,1079.02 1666.45,1073.5 1671.28,1067.78 1676.12,1061.87 1680.95,1055.77 1685.78,1049.49 1690.62,1043.03 1695.45,1036.41 1700.28,1029.62 1705.11,1022.68 1709.95,1015.58 1714.78,1008.33 1719.61,1000.96 1724.45,993.45 1729.28,985.819 1734.11,978.071 1738.95,970.212 1743.78,962.254 1748.61,954.207 1753.45,946.074 1758.28,937.864 1763.11,929.583 1767.95,921.239 1772.78,912.848 1777.61,904.412 1782.44,895.94 1787.28,887.44 1792.11,878.92 1796.94,870.39 1801.78,861.859 1806.61,853.335 1811.44,844.826 1816.28,836.341 1821.11,827.887 1825.94,819.475 1830.78,811.112 1835.61,802.806 1840.44,794.567 1845.28,786.403 1850.11,778.322 1854.94,770.331 1859.78,762.44 1864.61,754.656 1869.44,746.989 1874.27,739.446 1879.11,732.032 1883.94,724.756 1888.77,717.628 1893.61,710.654 1898.44,703.843 1903.27,697.202 1908.11,690.733 1912.94,684.446 1917.77,678.35 1922.61,672.452 1927.44,666.758 1932.27,661.272 1937.11,655.998 1941.94,650.947 1946.77,646.124 1951.6,641.536 1956.44,637.19 1961.27,633.08 1966.1,629.221 1970.94,625.616 1975.77,622.273 1980.6,619.196 1985.44,616.386 1990.27,613.844 1995.1,611.58 1999.94,609.599 2004.77,607.905 2009.6,606.502 2014.44,605.391 2019.27,604.576 2024.1,604.061 2028.94,603.848 2033.77,603.93 2038.6,604.146 2043.43,604.478 2048.27,604.942 2053.1,605.54 2057.93,606.273 2062.77,607.144 2067.6,608.154 2072.43,609.303 2077.27,610.591 2082.1,612.018 2086.93,613.584 2091.77,615.288 2096.6,617.129 2101.43,619.107 2106.27,621.22 2111.1,623.469 2115.93,625.849 2120.77,628.361 2125.6,631.004 2130.43,633.775 2135.26,636.671 2140.1,639.691 2144.93,642.832 2149.76,646.086 2154.6,649.456 2159.43,652.939 2164.26,656.533 2169.1,660.236 2173.93,664.046 2178.76,667.956 2183.6,671.955 2188.43,676.048 2193.26,680.232 2198.1,684.505 2202.93,688.863 2207.76,693.304 2212.59,697.818 2217.43,702.395 2222.26,707.039 2227.09,711.745 2231.93,716.51 2236.76,721.331 2241.59,726.204 2246.43,731.12 2251.26,736.068 2256.09,741.051 2260.93,746.065 2265.76,751.103 2270.59,756.163 2275.43,761.24 2280.26,766.326 2285.09,771.412 2289.93,776.498 2294.76,781.579 "/>
<polyline clip-path="url(#clip652)" style="stroke:#008000; stroke-linecap:round; stroke-linejoin:round; stroke-width:8; stroke-opacity:1; fill:none" stroke-dasharray="4, 8" points="361.501,824.046 366.334,837.784 371.167,851.455 376,865.053 380.833,878.569 385.666,891.998 390.5,905.331 395.333,918.563 400.166,931.687 404.999,944.696 409.832,957.583 414.665,970.342 419.498,982.968 424.332,995.454 429.165,1007.79 433.998,1019.98 438.831,1032.01 443.664,1043.88 448.497,1055.59 453.33,1067.12 458.164,1078.47 462.997,1089.64 467.83,1100.63 472.663,1111.43 477.496,1122.03 482.329,1132.44 487.162,1142.65 491.996,1152.65 496.829,1162.45 501.662,1172.03 506.495,1181.41 511.328,1190.57 516.161,1199.51 520.994,1208.23 525.828,1216.73 530.661,1225 535.494,1233.05 540.327,1240.87 545.16,1248.46 549.993,1255.82 554.826,1262.95 559.66,1269.85 564.493,1276.51 569.326,1282.94 574.159,1289.13 578.992,1295.09 583.825,1300.81 588.658,1306.29 593.492,1311.54 598.325,1316.55 603.158,1321.32 607.991,1325.85 612.824,1330.15 617.657,1334.2 622.49,1338.01 627.324,1341.58 632.157,1344.91 636.99,1348 641.823,1350.84 646.656,1353.44 651.489,1355.79 656.322,1357.9 661.156,1359.77 665.989,1361.39 670.822,1362.76 675.655,1363.85 680.488,1364.64 685.321,1365.16 690.154,1365.41 694.988,1365.38 699.821,1365.06 704.654,1364.45 709.487,1363.53 714.32,1362.27 719.153,1360.63 723.986,1358.59 728.82,1356.1 733.653,1353.1 738.486,1349.55 743.319,1345.38 748.152,1340.52 752.985,1334.91 757.818,1328.46 762.652,1321.08 767.485,1312.69 772.318,1303.19 777.151,1292.46 781.984,1280.3 786.817,1266.8 791.65,1252.13 796.484,1236.44 801.317,1219.88 806.15,1202.61 810.983,1184.76 815.816,1166.47 820.649,1147.87 825.482,1129.08 830.316,1110.23 835.149,1091.43 839.982,1072.78 844.815,1054.4 849.648,1036.37 854.481,1018.79 859.314,1001.75 864.148,985.105 868.981,968.737 873.814,952.611 878.647,936.7 883.48,920.981 888.313,905.433 893.147,890.04 897.98,874.789 902.813,859.67 907.646,844.676 912.479,829.805 917.312,815.058 922.145,800.439 926.979,785.956 931.812,771.619 936.645,757.445 941.478,743.436 946.311,729.593 951.144,715.921 955.977,702.424 960.811,689.107 965.644,675.973 970.477,663.027 975.31,650.272 980.143,637.714 984.976,625.356 989.809,613.201 994.643,601.254 999.476,589.519 1004.31,577.998 1009.14,566.696 1013.98,555.616 1018.81,544.762 1023.64,534.136 1028.47,523.743 1033.31,513.584 1038.14,503.665 1042.97,493.988 1047.81,484.568 1052.64,475.407 1057.47,466.507 1062.31,457.872 1067.14,449.508 1071.97,441.423 1076.81,433.624 1081.64,426.124 1086.47,418.936 1091.31,412.073 1096.14,405.554 1100.97,399.394 1105.8,393.616 1110.64,388.241 1115.47,383.292 1120.3,378.795 1125.14,374.777 1129.97,371.268 1134.8,368.298 1139.64,365.9 1144.47,364.109 1149.3,362.961 1154.14,362.493 1158.97,362.747 1163.8,363.764 1168.64,365.587 1173.47,368.261 1178.3,371.835 1183.14,376.233 1187.97,381.229 1192.8,386.778 1197.63,392.837 1202.47,399.37 1207.3,406.339 1212.13,413.71 1216.97,421.452 1221.8,429.535 1226.63,437.93 1231.47,446.613 1236.3,455.56 1241.13,464.75 1245.97,474.163 1250.8,483.783 1255.63,493.594 1260.47,503.584 1265.3,513.742 1270.13,524.061 1274.96,534.532 1279.8,545.153 1284.63,555.921 1289.46,566.836 1294.3,577.886 1299.13,589.061 1303.96,600.35 1308.8,611.745 1313.63,623.235 1318.46,634.812 1323.3,646.466 1328.13,658.187 1332.96,669.968 1337.8,681.798 1342.63,693.67 1347.46,705.574 1352.3,717.501 1357.13,729.444 1361.96,741.394 1366.79,753.342 1371.63,765.28 1376.46,777.201 1381.29,789.095 1386.13,800.956 1390.96,812.777 1395.79,824.55 1400.63,836.269 1405.46,847.924 1410.29,859.508 1415.13,871.013 1419.96,882.432 1424.79,893.756 1429.63,904.979 1434.46,916.094 1439.29,927.095 1444.12,937.973 1448.96,948.724 1453.79,959.341 1458.62,969.819 1463.46,980.151 1468.29,990.332 1473.12,1000.36 1477.96,1010.22 1482.79,1019.92 1487.62,1029.45 1492.46,1038.8 1497.29,1047.97 1502.12,1056.96 1506.96,1065.77 1511.79,1074.38 1516.62,1082.8 1521.46,1091.02 1526.29,1099.05 1531.12,1106.87 1535.95,1114.48 1540.79,1121.89 1545.62,1129.07 1550.45,1136.03 1555.29,1142.77 1560.12,1149.29 1564.95,1155.6 1569.79,1161.69 1574.62,1167.56 1579.45,1173.21 1584.29,1178.64 1589.12,1183.84 1593.95,1188.83 1598.79,1193.59 1603.62,1198.11 1608.45,1202.41 1613.28,1206.47 1618.12,1210.3 1622.95,1213.88 1627.78,1217.21 1632.62,1220.29 1637.45,1223.11 1642.28,1225.68 1647.12,1227.97 1651.95,1229.99 1656.78,1231.72 1661.62,1233.17 1666.45,1234.33 1671.28,1235.18 1676.12,1235.72 1680.95,1235.94 1685.78,1235.85 1690.62,1235.47 1695.45,1234.74 1700.28,1233.59 1705.11,1231.95 1709.95,1229.78 1714.78,1227 1719.61,1223.58 1724.45,1219.46 1729.28,1214.61 1734.11,1208.98 1738.95,1202.53 1743.78,1195.25 1748.61,1187.1 1753.45,1178.06 1758.28,1168.12 1763.11,1157.25 1767.95,1145.44 1772.78,1132.7 1777.61,1119.01 1782.44,1104.37 1787.28,1088.82 1792.11,1072.59 1796.94,1055.92 1801.78,1039.01 1806.61,1022.04 1811.44,1005.17 1816.28,988.52 1821.11,972.179 1825.94,956.217 1830.78,940.671 1835.61,925.549 1840.44,910.833 1845.28,896.473 1850.11,882.394 1854.94,868.49 1859.78,854.643 1864.61,840.947 1869.44,827.447 1874.27,814.138 1879.11,801.014 1883.94,788.073 1888.77,775.311 1893.61,762.726 1898.44,750.319 1903.27,738.088 1908.11,726.034 1912.94,714.161 1917.77,702.471 1922.61,690.968 1927.44,679.656 1932.27,668.542 1937.11,657.633 1941.94,646.94 1946.77,636.471 1951.6,626.224 1956.44,616.202 1961.27,606.407 1966.1,596.843 1970.94,587.514 1975.77,578.426 1980.6,569.586 1985.44,561.002 1990.27,552.683 1995.1,544.64 1999.94,536.884 2004.77,529.428 2009.6,522.285 2014.44,515.47 2019.27,509 2024.1,502.89 2028.94,497.16 2033.77,491.83 2038.6,486.918 2043.43,482.448 2048.27,478.441 2053.1,474.922 2057.93,471.925 2062.77,469.559 2067.6,467.838 2072.43,466.743 2077.27,466.255 2082.1,466.355 2086.93,467.026 2091.77,468.249 2096.6,470.006 2101.43,472.279 2106.27,475.051 2111.1,478.303 2115.93,482.018 2120.77,486.179 2125.6,490.769 2130.43,495.771 2135.26,501.167 2140.1,506.941 2144.93,513.077 2149.76,519.557 2154.6,526.366 2159.43,533.486 2164.26,540.903 2169.1,548.601 2173.93,556.563 2178.76,564.776 2183.6,573.225 2188.43,581.895 2193.26,590.77 2198.1,599.836 2202.93,609.078 2207.76,618.482 2212.59,628.034 2217.43,637.723 2222.26,647.534 2227.09,657.456 2231.93,667.477 2236.76,677.585 2241.59,687.77 2246.43,698.022 2251.26,708.33 2256.09,718.685 2260.93,729.077 2265.76,739.498 2270.59,749.938 2275.43,760.388 2280.26,770.839 2285.09,781.283 2289.93,791.711 2294.76,802.114 "/>
<polyline clip-path="url(#clip652)" style="stroke:#008000; stroke-linecap:round; stroke-linejoin:round; stroke-width:8; stroke-opacity:1; fill:none" points="361.501,824.046 366.334,840.672 371.167,857.211 376,873.645 380.833,889.957 385.666,906.132 390.5,922.154 395.333,938.007 400.166,953.677 404.999,969.151 409.832,984.417 414.665,999.461 419.498,1014.27 424.332,1028.84 429.165,1043.16 433.998,1057.21 438.831,1070.98 443.664,1084.48 448.497,1097.68 453.33,1110.59 458.164,1123.19 462.997,1135.48 467.83,1147.45 472.663,1159.1 477.496,1170.42 482.329,1181.4 487.162,1192.03 491.996,1202.32 496.829,1212.26 501.662,1221.83 506.495,1231.05 511.328,1239.89 516.161,1248.36 520.994,1256.45 525.828,1264.16 530.661,1271.47 535.494,1278.39 540.327,1284.91 545.16,1291.02 549.993,1296.73 554.826,1302.01 559.66,1306.87 564.493,1311.29 569.326,1315.28 574.159,1318.82 578.992,1321.91 583.825,1324.53 588.658,1326.69 593.492,1328.36 598.325,1329.55 603.158,1330.24 607.991,1330.43 612.824,1330.1 617.657,1329.24 622.49,1327.85 627.324,1325.91 632.157,1323.42 636.99,1320.36 641.823,1316.72 646.656,1312.49 651.489,1307.63 656.322,1302.13 661.156,1295.97 665.989,1289.14 670.822,1281.65 675.655,1273.51 680.488,1264.74 685.321,1255.35 690.154,1245.39 694.988,1234.89 699.821,1223.9 704.654,1212.47 709.487,1200.67 714.32,1188.56 719.153,1176.22 723.986,1163.74 728.82,1151.54 733.653,1140.1 738.486,1129.25 743.319,1118.82 748.152,1108.65 752.985,1098.62 757.818,1088.61 762.652,1078.53 767.485,1068.29 772.318,1057.84 777.151,1047.14 781.984,1036.15 786.817,1024.89 791.65,1013.33 796.484,1001.5 801.317,989.395 806.15,977.043 810.983,964.455 815.816,951.646 820.649,938.631 825.482,925.427 830.316,912.049 835.149,898.514 839.982,884.84 844.815,871.045 849.648,857.145 854.481,843.161 859.314,829.109 864.148,815.011 868.981,800.885 873.814,786.752 878.647,772.632 883.48,758.544 888.313,744.505 893.147,730.535 897.98,716.65 902.813,702.871 907.646,689.215 912.479,675.699 917.312,662.344 922.145,649.165 926.979,636.181 931.812,623.41 936.645,610.869 941.478,598.576 946.311,586.547 951.144,574.801 955.977,563.354 960.811,552.223 965.644,541.425 970.477,530.977 975.31,520.895 980.143,511.195 984.976,501.893 989.809,493.006 994.643,484.553 999.476,476.55 1004.31,469.014 1009.14,461.96 1013.98,455.404 1018.81,449.361 1023.64,443.845 1028.47,438.868 1033.31,434.443 1038.14,430.584 1042.97,427.3 1047.81,424.603 1052.64,422.503 1057.47,421.01 1062.31,420.133 1067.14,419.879 1071.97,420.257 1076.81,421.274 1081.64,422.938 1086.47,425.506 1091.31,428.926 1096.14,432.927 1100.97,437.27 1105.8,441.749 1110.64,446.191 1115.47,450.455 1120.3,454.434 1125.14,458.054 1129.97,461.272 1134.8,464.079 1139.64,466.5 1144.47,468.591 1149.3,470.442 1154.14,472.175 1158.97,473.945 1163.8,475.941 1168.64,478.385 1173.47,481.528 1178.3,485.604 1183.14,490.223 1187.97,495.243 1192.8,500.662 1197.63,506.478 1202.47,512.687 1207.3,519.282 1212.13,526.26 1216.97,533.612 1221.8,541.33 1226.63,549.406 1231.47,557.829 1236.3,566.588 1241.13,575.671 1245.97,585.064 1250.8,594.753 1255.63,604.723 1260.47,614.959 1265.3,625.451 1270.13,636.182 1274.96,647.136 1279.8,658.294 1284.63,669.639 1289.46,681.153 1294.3,692.82 1299.13,704.621 1303.96,716.54 1308.8,728.56 1313.63,740.665 1318.46,752.837 1323.3,765.059 1328.13,777.316 1332.96,789.591 1337.8,801.868 1342.63,814.13 1347.46,826.363 1352.3,838.549 1357.13,850.673 1361.96,862.719 1366.79,874.672 1371.63,886.517 1376.46,898.238 1381.29,909.82 1386.13,921.254 1390.96,932.529 1395.79,943.63 1400.63,954.548 1405.46,965.271 1410.29,975.787 1415.13,986.086 1419.96,996.157 1424.79,1005.99 1429.63,1015.58 1434.46,1024.91 1439.29,1033.97 1444.12,1042.76 1448.96,1051.26 1453.79,1059.47 1458.62,1067.39 1463.46,1075 1468.29,1082.29 1473.12,1089.26 1477.96,1095.91 1482.79,1102.23 1487.62,1108.2 1492.46,1113.84 1497.29,1119.13 1502.12,1124.06 1506.96,1128.63 1511.79,1132.83 1516.62,1136.65 1521.46,1140.07 1526.29,1143.11 1531.12,1145.73 1535.95,1147.95 1540.79,1149.75 1545.62,1151.13 1550.45,1152.08 1555.29,1152.59 1560.12,1152.67 1564.95,1152.3 1569.79,1151.48 1574.62,1150.21 1579.45,1148.47 1584.29,1146.28 1589.12,1143.62 1593.95,1140.5 1598.79,1136.9 1603.62,1132.83 1608.45,1128.29 1613.28,1123.26 1618.12,1117.76 1622.95,1111.78 1627.78,1105.21 1632.62,1097.83 1637.45,1089.77 1642.28,1081.21 1647.12,1072.28 1651.95,1063.12 1656.78,1053.84 1661.62,1044.55 1666.45,1035.33 1671.28,1026.26 1676.12,1017.39 1680.95,1008.78 1685.78,1000.46 1690.62,992.439 1695.45,984.724 1700.28,977.304 1705.11,970.154 1709.95,963.235 1714.78,956.493 1719.61,949.861 1724.45,943.258 1729.28,936.617 1734.11,929.96 1738.95,923.278 1743.78,916.563 1748.61,909.808 1753.45,903.008 1758.28,896.158 1763.11,889.255 1767.95,882.297 1772.78,875.285 1777.61,868.22 1782.44,861.104 1787.28,853.94 1792.11,846.735 1796.94,839.495 1801.78,832.226 1806.61,824.94 1811.44,817.646 1816.28,810.356 1821.11,803.084 1825.94,795.844 1830.78,788.652 1835.61,781.522 1840.44,774.462 1845.28,767.483 1850.11,760.594 1854.94,753.807 1859.78,747.131 1864.61,740.575 1869.44,734.151 1874.27,727.867 1879.11,721.736 1883.94,715.766 1888.77,709.968 1893.61,704.352 1898.44,698.93 1903.27,693.71 1908.11,688.704 1912.94,683.922 1917.77,679.375 1922.61,675.074 1927.44,671.028 1932.27,667.248 1937.11,663.746 1941.94,660.532 1946.77,657.623 1951.6,655.03 1956.44,652.742 1961.27,650.747 1966.1,649.031 1970.94,647.58 1975.77,646.377 1980.6,645.407 1985.44,644.649 1990.27,644.085 1995.1,643.694 1999.94,643.453 2004.77,643.339 2009.6,643.328 2014.44,643.395 2019.27,643.51 2024.1,643.648 2028.94,643.778 2033.77,643.869 2038.6,643.889 2043.43,643.806 2048.27,643.584 2053.1,643.189 2057.93,642.606 2062.77,641.935 2067.6,641.209 2072.43,640.448 2077.27,639.672 2082.1,638.9 2086.93,638.149 2091.77,637.438 2096.6,636.783 2101.43,636.2 2106.27,635.705 2111.1,635.314 2115.93,635.039 2120.77,634.895 2125.6,634.895 2130.43,635.051 2135.26,635.375 2140.1,635.877 2144.93,636.569 2149.76,637.46 2154.6,638.559 2159.43,639.875 2164.26,641.415 2169.1,643.184 2173.93,645.169 2178.76,647.365 2183.6,649.771 2188.43,652.385 2193.26,655.204 2198.1,658.227 2202.93,661.45 2207.76,664.869 2212.59,668.481 2217.43,672.282 2222.26,676.267 2227.09,680.431 2231.93,684.767 2236.76,689.271 2241.59,693.937 2246.43,698.756 2251.26,703.722 2256.09,708.828 2260.93,714.065 2265.76,719.426 2270.59,724.901 2275.43,730.48 2280.26,736.158 2285.09,741.926 2289.93,747.775 2294.76,753.698 "/>
<path clip-path="url(#clip650)" d="M1444.66 554.876 L2284.45 554.876 L2284.45 166.076 L1444.66 166.076  Z" fill="#ffffff" fill-rule="evenodd" fill-opacity="1"/>
<polyline clip-path="url(#clip650)" style="stroke:#000000; stroke-linecap:round; stroke-linejoin:round; stroke-width:4; stroke-opacity:1; fill:none" points="1444.66,554.876 2284.45,554.876 2284.45,166.076 1444.66,166.076 1444.66,554.876 "/>
<polyline clip-path="url(#clip650)" style="stroke:#009af9; stroke-linecap:round; stroke-linejoin:round; stroke-width:12; stroke-opacity:1; fill:none" points="1467.43,243.836 1604.05,243.836 "/>
<path clip-path="url(#clip650)" d="M1660.19 219.617 L1660.19 226.457 Q1656.2 224.548 1652.65 223.61 Q1649.11 222.673 1645.81 222.673 Q1640.08 222.673 1636.96 224.895 Q1633.87 227.117 1633.87 231.214 Q1633.87 234.652 1635.92 236.423 Q1638 238.159 1643.76 239.235 L1648 240.103 Q1655.85 241.596 1659.56 245.381 Q1663.31 249.131 1663.31 255.45 Q1663.31 262.985 1658.24 266.874 Q1653.21 270.763 1643.45 270.763 Q1639.77 270.763 1635.6 269.929 Q1631.47 269.096 1627.03 267.464 L1627.03 260.242 Q1631.3 262.638 1635.4 263.853 Q1639.49 265.068 1643.45 265.068 Q1649.46 265.068 1652.72 262.707 Q1655.99 260.346 1655.99 255.971 Q1655.99 252.152 1653.63 249.999 Q1651.3 247.846 1645.95 246.77 L1641.68 245.936 Q1633.83 244.374 1630.33 241.041 Q1626.82 237.707 1626.82 231.77 Q1626.82 224.895 1631.65 220.937 Q1636.51 216.978 1645.01 216.978 Q1648.66 216.978 1652.45 217.638 Q1656.23 218.298 1660.19 219.617 Z" fill="#000000" fill-rule="nonzero" fill-opacity="1" /><path clip-path="url(#clip650)" d="M1673.97 230.867 L1680.36 230.867 L1680.36 269.756 L1673.97 269.756 L1673.97 230.867 M1673.97 215.728 L1680.36 215.728 L1680.36 223.818 L1673.97 223.818 L1673.97 215.728 Z" fill="#000000" fill-rule="nonzero" fill-opacity="1" /><path clip-path="url(#clip650)" d="M1724.01 238.332 Q1726.4 234.027 1729.74 231.978 Q1733.07 229.93 1737.58 229.93 Q1743.66 229.93 1746.96 234.2 Q1750.26 238.436 1750.26 246.284 L1750.26 269.756 L1743.83 269.756 L1743.83 246.492 Q1743.83 240.902 1741.85 238.193 Q1739.88 235.485 1735.81 235.485 Q1730.85 235.485 1727.97 238.784 Q1725.08 242.082 1725.08 247.777 L1725.08 269.756 L1718.66 269.756 L1718.66 246.492 Q1718.66 240.867 1716.68 238.193 Q1714.7 235.485 1710.57 235.485 Q1705.67 235.485 1702.79 238.818 Q1699.91 242.117 1699.91 247.777 L1699.91 269.756 L1693.49 269.756 L1693.49 230.867 L1699.91 230.867 L1699.91 236.909 Q1702.1 233.332 1705.15 231.631 Q1708.21 229.93 1712.41 229.93 Q1716.65 229.93 1719.6 232.082 Q1722.58 234.235 1724.01 238.332 Z" fill="#000000" fill-rule="nonzero" fill-opacity="1" /><path clip-path="url(#clip650)" d="M1769.18 263.922 L1769.18 284.547 L1762.76 284.547 L1762.76 230.867 L1769.18 230.867 L1769.18 236.77 Q1771.19 233.298 1774.25 231.631 Q1777.34 229.93 1781.61 229.93 Q1788.69 229.93 1793.1 235.555 Q1797.55 241.179 1797.55 250.346 Q1797.55 259.513 1793.1 265.138 Q1788.69 270.763 1781.61 270.763 Q1777.34 270.763 1774.25 269.096 Q1771.19 267.395 1769.18 263.922 M1790.92 250.346 Q1790.92 243.298 1788 239.304 Q1785.12 235.277 1780.05 235.277 Q1774.98 235.277 1772.06 239.304 Q1769.18 243.298 1769.18 250.346 Q1769.18 257.395 1772.06 261.422 Q1774.98 265.415 1780.05 265.415 Q1785.12 265.415 1788 261.422 Q1790.92 257.395 1790.92 250.346 Z" fill="#000000" fill-rule="nonzero" fill-opacity="1" /><path clip-path="url(#clip650)" d="M1808.14 215.728 L1814.53 215.728 L1814.53 269.756 L1808.14 269.756 L1808.14 215.728 Z" fill="#000000" fill-rule="nonzero" fill-opacity="1" /><path clip-path="url(#clip650)" d="M1861.16 248.714 L1861.16 251.839 L1831.78 251.839 Q1832.2 258.436 1835.74 261.909 Q1839.32 265.346 1845.67 265.346 Q1849.35 265.346 1852.79 264.443 Q1856.26 263.54 1859.67 261.735 L1859.67 267.777 Q1856.23 269.235 1852.62 269.999 Q1849.01 270.763 1845.29 270.763 Q1835.99 270.763 1830.53 265.346 Q1825.12 259.929 1825.12 250.693 Q1825.12 241.145 1830.26 235.555 Q1835.43 229.93 1844.18 229.93 Q1852.03 229.93 1856.58 234.999 Q1861.16 240.034 1861.16 248.714 M1854.77 246.839 Q1854.7 241.596 1851.82 238.471 Q1848.97 235.346 1844.25 235.346 Q1838.9 235.346 1835.67 238.367 Q1832.48 241.388 1831.99 246.874 L1854.77 246.839 Z" fill="#000000" fill-rule="nonzero" fill-opacity="1" /><path clip-path="url(#clip650)" d="M1871.92 217.916 L1901.71 217.916 L1901.71 223.818 L1878.94 223.818 L1878.94 239.096 L1899.49 239.096 L1899.49 244.999 L1878.94 244.999 L1878.94 269.756 L1871.92 269.756 L1871.92 217.916 Z" fill="#000000" fill-rule="nonzero" fill-opacity="1" /><path clip-path="url(#clip650)" d="M1912.83 217.916 L1923.28 217.916 L1936.51 253.193 L1949.8 217.916 L1960.26 217.916 L1960.26 269.756 L1953.42 269.756 L1953.42 224.235 L1940.05 259.79 L1933 259.79 L1919.63 224.235 L1919.63 269.756 L1912.83 269.756 L1912.83 217.916 Z" fill="#000000" fill-rule="nonzero" fill-opacity="1" /><path clip-path="url(#clip650)" d="M1973.38 217.916 L1980.43 217.916 L1980.43 249.409 Q1980.43 257.742 1983.45 261.422 Q1986.47 265.068 1993.24 265.068 Q1999.98 265.068 2003 261.422 Q2006.02 257.742 2006.02 249.409 L2006.02 217.916 L2013.07 217.916 L2013.07 250.277 Q2013.07 260.415 2008.03 265.589 Q2003.03 270.763 1993.24 270.763 Q1983.42 270.763 1978.38 265.589 Q1973.38 260.415 1973.38 250.277 L1973.38 217.916 Z" fill="#000000" fill-rule="nonzero" fill-opacity="1" /><polyline clip-path="url(#clip650)" style="stroke:#e26f46; stroke-linecap:round; stroke-linejoin:round; stroke-width:12; stroke-opacity:1; fill:none" points="1467.43,321.596 1604.05,321.596 "/>
<path clip-path="url(#clip650)" d="M1651.4 323.21 Q1653.66 323.974 1655.78 326.474 Q1657.93 328.974 1660.08 333.349 L1667.2 347.516 L1659.67 347.516 L1653.04 334.217 Q1650.47 329.009 1648.04 327.307 Q1645.64 325.606 1641.47 325.606 L1633.83 325.606 L1633.83 347.516 L1626.82 347.516 L1626.82 295.676 L1642.65 295.676 Q1651.54 295.676 1655.92 299.391 Q1660.29 303.106 1660.29 310.606 Q1660.29 315.502 1658 318.731 Q1655.74 321.96 1651.4 323.21 M1633.83 301.44 L1633.83 319.842 L1642.65 319.842 Q1647.72 319.842 1650.29 317.516 Q1652.9 315.155 1652.9 310.606 Q1652.9 306.058 1650.29 303.766 Q1647.72 301.44 1642.65 301.44 L1633.83 301.44 Z" fill="#000000" fill-rule="nonzero" fill-opacity="1" /><path clip-path="url(#clip650)" d="M1706.02 326.474 L1706.02 329.599 L1676.65 329.599 Q1677.06 336.196 1680.6 339.669 Q1684.18 343.106 1690.54 343.106 Q1694.22 343.106 1697.65 342.203 Q1701.13 341.3 1704.53 339.495 L1704.53 345.537 Q1701.09 346.995 1697.48 347.759 Q1693.87 348.523 1690.15 348.523 Q1680.85 348.523 1675.4 343.106 Q1669.98 337.689 1669.98 328.453 Q1669.98 318.905 1675.12 313.315 Q1680.29 307.69 1689.04 307.69 Q1696.89 307.69 1701.44 312.759 Q1706.02 317.794 1706.02 326.474 M1699.63 324.599 Q1699.56 319.356 1696.68 316.231 Q1693.83 313.106 1689.11 313.106 Q1683.76 313.106 1680.54 316.127 Q1677.34 319.148 1676.85 324.634 L1699.63 324.599 Z" fill="#000000" fill-rule="nonzero" fill-opacity="1" /><path clip-path="url(#clip650)" d="M1736.19 293.488 L1736.19 298.801 L1730.08 298.801 Q1726.65 298.801 1725.29 300.19 Q1723.97 301.578 1723.97 305.19 L1723.97 308.627 L1734.49 308.627 L1734.49 313.592 L1723.97 313.592 L1723.97 347.516 L1717.55 347.516 L1717.55 313.592 L1711.44 313.592 L1711.44 308.627 L1717.55 308.627 L1717.55 305.919 Q1717.55 299.426 1720.57 296.474 Q1723.59 293.488 1730.15 293.488 L1736.19 293.488 Z" fill="#000000" fill-rule="nonzero" fill-opacity="1" /><path clip-path="url(#clip650)" d="M1774.81 326.474 L1774.81 329.599 L1745.43 329.599 Q1745.85 336.196 1749.39 339.669 Q1752.97 343.106 1759.32 343.106 Q1763 343.106 1766.44 342.203 Q1769.91 341.3 1773.31 339.495 L1773.31 345.537 Q1769.88 346.995 1766.26 347.759 Q1762.65 348.523 1758.94 348.523 Q1749.63 348.523 1744.18 343.106 Q1738.76 337.689 1738.76 328.453 Q1738.76 318.905 1743.9 313.315 Q1749.08 307.69 1757.83 307.69 Q1765.67 307.69 1770.22 312.759 Q1774.81 317.794 1774.81 326.474 M1768.42 324.599 Q1768.35 319.356 1765.47 316.231 Q1762.62 313.106 1757.9 313.106 Q1752.55 313.106 1749.32 316.127 Q1746.13 319.148 1745.64 324.634 L1768.42 324.599 Z" fill="#000000" fill-rule="nonzero" fill-opacity="1" /><path clip-path="url(#clip650)" d="M1807.83 314.599 Q1806.75 313.974 1805.47 313.696 Q1804.22 313.384 1802.69 313.384 Q1797.27 313.384 1794.35 316.926 Q1791.47 320.433 1791.47 327.03 L1791.47 347.516 L1785.05 347.516 L1785.05 308.627 L1791.47 308.627 L1791.47 314.669 Q1793.49 311.127 1796.72 309.426 Q1799.94 307.69 1804.56 307.69 Q1805.22 307.69 1806.02 307.794 Q1806.82 307.863 1807.79 308.037 L1807.83 314.599 Z" fill="#000000" fill-rule="nonzero" fill-opacity="1" /><path clip-path="url(#clip650)" d="M1846.23 326.474 L1846.23 329.599 L1816.85 329.599 Q1817.27 336.196 1820.81 339.669 Q1824.39 343.106 1830.74 343.106 Q1834.42 343.106 1837.86 342.203 Q1841.33 341.3 1844.74 339.495 L1844.74 345.537 Q1841.3 346.995 1837.69 347.759 Q1834.08 348.523 1830.36 348.523 Q1821.06 348.523 1815.6 343.106 Q1810.19 337.689 1810.19 328.453 Q1810.19 318.905 1815.33 313.315 Q1820.5 307.69 1829.25 307.69 Q1837.1 307.69 1841.65 312.759 Q1846.23 317.794 1846.23 326.474 M1839.84 324.599 Q1839.77 319.356 1836.89 316.231 Q1834.04 313.106 1829.32 313.106 Q1823.97 313.106 1820.74 316.127 Q1817.55 319.148 1817.06 324.634 L1839.84 324.599 Z" fill="#000000" fill-rule="nonzero" fill-opacity="1" /><path clip-path="url(#clip650)" d="M1889.04 324.044 L1889.04 347.516 L1882.65 347.516 L1882.65 324.252 Q1882.65 318.731 1880.5 315.988 Q1878.35 313.245 1874.04 313.245 Q1868.87 313.245 1865.88 316.544 Q1862.9 319.842 1862.9 325.537 L1862.9 347.516 L1856.47 347.516 L1856.47 308.627 L1862.9 308.627 L1862.9 314.669 Q1865.19 311.162 1868.28 309.426 Q1871.4 307.69 1875.46 307.69 Q1882.17 307.69 1885.6 311.856 Q1889.04 315.988 1889.04 324.044 Z" fill="#000000" fill-rule="nonzero" fill-opacity="1" /><path clip-path="url(#clip650)" d="M1929.77 310.12 L1929.77 316.092 Q1927.06 314.599 1924.32 313.87 Q1921.61 313.106 1918.83 313.106 Q1912.62 313.106 1909.18 317.064 Q1905.74 320.988 1905.74 328.106 Q1905.74 335.224 1909.18 339.182 Q1912.62 343.106 1918.83 343.106 Q1921.61 343.106 1924.32 342.377 Q1927.06 341.613 1929.77 340.12 L1929.77 346.023 Q1927.1 347.273 1924.21 347.898 Q1921.37 348.523 1918.14 348.523 Q1909.35 348.523 1904.18 343.002 Q1899.01 337.481 1899.01 328.106 Q1899.01 318.592 1904.21 313.141 Q1909.46 307.69 1918.55 307.69 Q1921.51 307.69 1924.32 308.315 Q1927.13 308.905 1929.77 310.12 Z" fill="#000000" fill-rule="nonzero" fill-opacity="1" /><path clip-path="url(#clip650)" d="M1974.14 326.474 L1974.14 329.599 L1944.77 329.599 Q1945.19 336.196 1948.73 339.669 Q1952.3 343.106 1958.66 343.106 Q1962.34 343.106 1965.78 342.203 Q1969.25 341.3 1972.65 339.495 L1972.65 345.537 Q1969.21 346.995 1965.6 347.759 Q1961.99 348.523 1958.28 348.523 Q1948.97 348.523 1943.52 343.106 Q1938.1 337.689 1938.1 328.453 Q1938.1 318.905 1943.24 313.315 Q1948.42 307.69 1957.17 307.69 Q1965.01 307.69 1969.56 312.759 Q1974.14 317.794 1974.14 326.474 M1967.76 324.599 Q1967.69 319.356 1964.8 316.231 Q1961.96 313.106 1957.24 313.106 Q1951.89 313.106 1948.66 316.127 Q1945.46 319.148 1944.98 324.634 L1967.76 324.599 Z" fill="#000000" fill-rule="nonzero" fill-opacity="1" /><polyline clip-path="url(#clip650)" style="stroke:#008000; stroke-linecap:round; stroke-linejoin:round; stroke-width:12; stroke-opacity:1; fill:none" stroke-dasharray="6, 12" points="1467.43,399.356 1604.05,399.356 "/>
<path clip-path="url(#clip650)" d="M1626.82 373.436 L1636.26 373.436 L1659.25 416.804 L1659.25 373.436 L1666.06 373.436 L1666.06 425.276 L1656.61 425.276 L1633.63 381.908 L1633.63 425.276 L1626.82 425.276 L1626.82 373.436 Z" fill="#000000" fill-rule="nonzero" fill-opacity="1" /><path clip-path="url(#clip650)" d="M1713 404.234 L1713 407.359 L1683.63 407.359 Q1684.04 413.956 1687.58 417.429 Q1691.16 420.866 1697.51 420.866 Q1701.19 420.866 1704.63 419.963 Q1708.1 419.06 1711.51 417.255 L1711.51 423.297 Q1708.07 424.755 1704.46 425.519 Q1700.85 426.283 1697.13 426.283 Q1687.83 426.283 1682.38 420.866 Q1676.96 415.449 1676.96 406.213 Q1676.96 396.665 1682.1 391.075 Q1687.27 385.45 1696.02 385.45 Q1703.87 385.45 1708.42 390.519 Q1713 395.554 1713 404.234 M1706.61 402.359 Q1706.54 397.116 1703.66 393.991 Q1700.81 390.866 1696.09 390.866 Q1690.74 390.866 1687.51 393.887 Q1684.32 396.908 1683.83 402.394 L1706.61 402.359 Z" fill="#000000" fill-rule="nonzero" fill-opacity="1" /><path clip-path="url(#clip650)" d="M1722.83 409.929 L1722.83 386.387 L1729.22 386.387 L1729.22 409.686 Q1729.22 415.206 1731.37 417.984 Q1733.52 420.727 1737.83 420.727 Q1743 420.727 1745.99 417.429 Q1749.01 414.13 1749.01 408.436 L1749.01 386.387 L1755.4 386.387 L1755.4 425.276 L1749.01 425.276 L1749.01 419.304 Q1746.68 422.845 1743.59 424.581 Q1740.53 426.283 1736.47 426.283 Q1729.77 426.283 1726.3 422.116 Q1722.83 417.949 1722.83 409.929 M1738.9 385.45 L1738.9 385.45 Z" fill="#000000" fill-rule="nonzero" fill-opacity="1" /><path clip-path="url(#clip650)" d="M1791.09 392.359 Q1790.01 391.734 1788.73 391.456 Q1787.48 391.144 1785.95 391.144 Q1780.53 391.144 1777.62 394.686 Q1774.74 398.193 1774.74 404.79 L1774.74 425.276 L1768.31 425.276 L1768.31 386.387 L1774.74 386.387 L1774.74 392.429 Q1776.75 388.887 1779.98 387.186 Q1783.21 385.45 1787.83 385.45 Q1788.49 385.45 1789.28 385.554 Q1790.08 385.623 1791.06 385.797 L1791.09 392.359 Z" fill="#000000" fill-rule="nonzero" fill-opacity="1" /><path clip-path="url(#clip650)" d="M1815.47 405.727 Q1807.72 405.727 1804.74 407.498 Q1801.75 409.269 1801.75 413.54 Q1801.75 416.942 1803.97 418.956 Q1806.23 420.935 1810.08 420.935 Q1815.4 420.935 1818.59 417.185 Q1821.82 413.401 1821.82 407.151 L1821.82 405.727 L1815.47 405.727 M1828.21 403.088 L1828.21 425.276 L1821.82 425.276 L1821.82 419.373 Q1819.63 422.915 1816.37 424.616 Q1813.1 426.283 1808.38 426.283 Q1802.41 426.283 1798.87 422.949 Q1795.36 419.581 1795.36 413.956 Q1795.36 407.394 1799.74 404.061 Q1804.15 400.727 1812.86 400.727 L1821.82 400.727 L1821.82 400.102 Q1821.82 395.693 1818.9 393.297 Q1816.02 390.866 1810.78 390.866 Q1807.44 390.866 1804.28 391.665 Q1801.12 392.463 1798.21 394.061 L1798.21 388.158 Q1801.72 386.804 1805.01 386.144 Q1808.31 385.45 1811.44 385.45 Q1819.87 385.45 1824.04 389.825 Q1828.21 394.199 1828.21 403.088 Z" fill="#000000" fill-rule="nonzero" fill-opacity="1" /><path clip-path="url(#clip650)" d="M1841.37 371.248 L1847.76 371.248 L1847.76 425.276 L1841.37 425.276 L1841.37 371.248 Z" fill="#000000" fill-rule="nonzero" fill-opacity="1" /><path clip-path="url(#clip650)" d="M1861.4 373.436 L1891.19 373.436 L1891.19 379.338 L1868.42 379.338 L1868.42 394.616 L1888.97 394.616 L1888.97 400.519 L1868.42 400.519 L1868.42 425.276 L1861.4 425.276 L1861.4 373.436 Z" fill="#000000" fill-rule="nonzero" fill-opacity="1" /><path clip-path="url(#clip650)" d="M1902.3 373.436 L1912.76 373.436 L1925.99 408.713 L1939.28 373.436 L1949.74 373.436 L1949.74 425.276 L1942.89 425.276 L1942.89 379.755 L1929.53 415.31 L1922.48 415.31 L1909.11 379.755 L1909.11 425.276 L1902.3 425.276 L1902.3 373.436 Z" fill="#000000" fill-rule="nonzero" fill-opacity="1" /><path clip-path="url(#clip650)" d="M1962.86 373.436 L1969.91 373.436 L1969.91 404.929 Q1969.91 413.262 1972.93 416.942 Q1975.95 420.588 1982.72 420.588 Q1989.46 420.588 1992.48 416.942 Q1995.5 413.262 1995.5 404.929 L1995.5 373.436 L2002.55 373.436 L2002.55 405.797 Q2002.55 415.935 1997.51 421.109 Q1992.51 426.283 1982.72 426.283 Q1972.89 426.283 1967.86 421.109 Q1962.86 415.935 1962.86 405.797 L1962.86 373.436 Z" fill="#000000" fill-rule="nonzero" fill-opacity="1" /><path clip-path="url(#clip650)" d="M2053.38 371.318 Q2048.73 379.304 2046.47 387.116 Q2044.21 394.929 2044.21 402.949 Q2044.21 410.97 2046.47 418.852 Q2048.76 426.699 2053.38 434.651 L2047.82 434.651 Q2042.62 426.491 2040.01 418.609 Q2037.44 410.727 2037.44 402.949 Q2037.44 395.206 2040.01 387.359 Q2042.58 379.512 2047.82 371.318 L2053.38 371.318 Z" fill="#000000" fill-rule="nonzero" fill-opacity="1" /><path clip-path="url(#clip650)" d="M2072.72 419.373 L2097.2 419.373 L2097.2 425.276 L2064.28 425.276 L2064.28 419.373 Q2068.28 415.241 2075.15 408.297 Q2082.06 401.318 2083.83 399.304 Q2087.2 395.519 2088.52 392.915 Q2089.87 390.276 2089.87 387.741 Q2089.87 383.609 2086.96 381.005 Q2084.07 378.401 2079.42 378.401 Q2076.12 378.401 2072.44 379.547 Q2068.8 380.693 2064.63 383.019 L2064.63 375.936 Q2068.87 374.234 2072.55 373.366 Q2076.23 372.498 2079.28 372.498 Q2087.34 372.498 2092.13 376.526 Q2096.92 380.554 2096.92 387.29 Q2096.92 390.484 2095.71 393.366 Q2094.53 396.213 2091.37 400.102 Q2090.5 401.109 2085.85 405.936 Q2081.19 410.727 2072.72 419.373 Z" fill="#000000" fill-rule="nonzero" fill-opacity="1" /><path clip-path="url(#clip650)" d="M2111.99 373.436 L2139.53 373.436 L2139.53 379.338 L2118.41 379.338 L2118.41 392.047 Q2119.94 391.526 2121.47 391.283 Q2123 391.005 2124.53 391.005 Q2133.21 391.005 2138.28 395.762 Q2143.35 400.519 2143.35 408.644 Q2143.35 417.012 2138.14 421.665 Q2132.93 426.283 2123.45 426.283 Q2120.19 426.283 2116.78 425.727 Q2113.41 425.172 2109.8 424.06 L2109.8 417.012 Q2112.93 418.713 2116.26 419.547 Q2119.6 420.38 2123.31 420.38 Q2129.32 420.38 2132.82 417.22 Q2136.33 414.06 2136.33 408.644 Q2136.33 403.227 2132.82 400.068 Q2129.32 396.908 2123.31 396.908 Q2120.5 396.908 2117.69 397.533 Q2114.91 398.158 2111.99 399.477 L2111.99 373.436 Z" fill="#000000" fill-rule="nonzero" fill-opacity="1" /><path clip-path="url(#clip650)" d="M2172.16 378.054 Q2166.75 378.054 2164 383.401 Q2161.3 388.713 2161.3 399.408 Q2161.3 410.067 2164 415.415 Q2166.75 420.727 2172.16 420.727 Q2177.62 420.727 2180.32 415.415 Q2183.07 410.067 2183.07 399.408 Q2183.07 388.713 2180.32 383.401 Q2177.62 378.054 2172.16 378.054 M2172.16 372.498 Q2180.88 372.498 2185.46 379.408 Q2190.08 386.283 2190.08 399.408 Q2190.08 412.498 2185.46 419.408 Q2180.88 426.283 2172.16 426.283 Q2163.45 426.283 2158.83 419.408 Q2154.25 412.498 2154.25 399.408 Q2154.25 386.283 2158.83 379.408 Q2163.45 372.498 2172.16 372.498 Z" fill="#000000" fill-rule="nonzero" fill-opacity="1" /><path clip-path="url(#clip650)" d="M2217.41 378.054 Q2211.99 378.054 2209.25 383.401 Q2206.54 388.713 2206.54 399.408 Q2206.54 410.067 2209.25 415.415 Q2211.99 420.727 2217.41 420.727 Q2222.86 420.727 2225.57 415.415 Q2228.31 410.067 2228.31 399.408 Q2228.31 388.713 2225.57 383.401 Q2222.86 378.054 2217.41 378.054 M2217.41 372.498 Q2226.12 372.498 2230.71 379.408 Q2235.32 386.283 2235.32 399.408 Q2235.32 412.498 2230.71 419.408 Q2226.12 426.283 2217.41 426.283 Q2208.69 426.283 2204.07 419.408 Q2199.49 412.498 2199.49 399.408 Q2199.49 386.283 2204.07 379.408 Q2208.69 372.498 2217.41 372.498 Z" fill="#000000" fill-rule="nonzero" fill-opacity="1" /><path clip-path="url(#clip650)" d="M2245.74 371.318 L2251.3 371.318 Q2256.5 379.512 2259.07 387.359 Q2261.68 395.206 2261.68 402.949 Q2261.68 410.727 2259.07 418.609 Q2256.5 426.491 2251.3 434.651 L2245.74 434.651 Q2250.36 426.699 2252.62 418.852 Q2254.91 410.97 2254.91 402.949 Q2254.91 394.929 2252.62 387.116 Q2250.36 379.304 2245.74 371.318 Z" fill="#000000" fill-rule="nonzero" fill-opacity="1" /><polyline clip-path="url(#clip650)" style="stroke:#008000; stroke-linecap:round; stroke-linejoin:round; stroke-width:12; stroke-opacity:1; fill:none" points="1467.43,477.116 1604.05,477.116 "/>
<path clip-path="url(#clip650)" d="M1626.82 451.196 L1636.26 451.196 L1659.25 494.564 L1659.25 451.196 L1666.06 451.196 L1666.06 503.036 L1656.61 503.036 L1633.63 459.668 L1633.63 503.036 L1626.82 503.036 L1626.82 451.196 Z" fill="#000000" fill-rule="nonzero" fill-opacity="1" /><path clip-path="url(#clip650)" d="M1713 481.994 L1713 485.119 L1683.63 485.119 Q1684.04 491.716 1687.58 495.189 Q1691.16 498.626 1697.51 498.626 Q1701.19 498.626 1704.63 497.723 Q1708.1 496.82 1711.51 495.015 L1711.51 501.057 Q1708.07 502.515 1704.46 503.279 Q1700.85 504.043 1697.13 504.043 Q1687.83 504.043 1682.38 498.626 Q1676.96 493.209 1676.96 483.973 Q1676.96 474.425 1682.1 468.835 Q1687.27 463.21 1696.02 463.21 Q1703.87 463.21 1708.42 468.279 Q1713 473.314 1713 481.994 M1706.61 480.119 Q1706.54 474.876 1703.66 471.751 Q1700.81 468.626 1696.09 468.626 Q1690.74 468.626 1687.51 471.647 Q1684.32 474.668 1683.83 480.154 L1706.61 480.119 Z" fill="#000000" fill-rule="nonzero" fill-opacity="1" /><path clip-path="url(#clip650)" d="M1722.83 487.689 L1722.83 464.147 L1729.22 464.147 L1729.22 487.446 Q1729.22 492.966 1731.37 495.744 Q1733.52 498.487 1737.83 498.487 Q1743 498.487 1745.99 495.189 Q1749.01 491.89 1749.01 486.196 L1749.01 464.147 L1755.4 464.147 L1755.4 503.036 L1749.01 503.036 L1749.01 497.064 Q1746.68 500.605 1743.59 502.341 Q1740.53 504.043 1736.47 504.043 Q1729.77 504.043 1726.3 499.876 Q1722.83 495.709 1722.83 487.689 M1738.9 463.21 L1738.9 463.21 Z" fill="#000000" fill-rule="nonzero" fill-opacity="1" /><path clip-path="url(#clip650)" d="M1791.09 470.119 Q1790.01 469.494 1788.73 469.216 Q1787.48 468.904 1785.95 468.904 Q1780.53 468.904 1777.62 472.446 Q1774.74 475.953 1774.74 482.55 L1774.74 503.036 L1768.31 503.036 L1768.31 464.147 L1774.74 464.147 L1774.74 470.189 Q1776.75 466.647 1779.98 464.946 Q1783.21 463.21 1787.83 463.21 Q1788.49 463.21 1789.28 463.314 Q1790.08 463.383 1791.06 463.557 L1791.09 470.119 Z" fill="#000000" fill-rule="nonzero" fill-opacity="1" /><path clip-path="url(#clip650)" d="M1815.47 483.487 Q1807.72 483.487 1804.74 485.258 Q1801.75 487.029 1801.75 491.3 Q1801.75 494.702 1803.97 496.716 Q1806.23 498.695 1810.08 498.695 Q1815.4 498.695 1818.59 494.945 Q1821.82 491.161 1821.82 484.911 L1821.82 483.487 L1815.47 483.487 M1828.21 480.848 L1828.21 503.036 L1821.82 503.036 L1821.82 497.133 Q1819.63 500.675 1816.37 502.376 Q1813.1 504.043 1808.38 504.043 Q1802.41 504.043 1798.87 500.709 Q1795.36 497.341 1795.36 491.716 Q1795.36 485.154 1799.74 481.821 Q1804.15 478.487 1812.86 478.487 L1821.82 478.487 L1821.82 477.862 Q1821.82 473.453 1818.9 471.057 Q1816.02 468.626 1810.78 468.626 Q1807.44 468.626 1804.28 469.425 Q1801.12 470.223 1798.21 471.821 L1798.21 465.918 Q1801.72 464.564 1805.01 463.904 Q1808.31 463.21 1811.44 463.21 Q1819.87 463.21 1824.04 467.585 Q1828.21 471.959 1828.21 480.848 Z" fill="#000000" fill-rule="nonzero" fill-opacity="1" /><path clip-path="url(#clip650)" d="M1841.37 449.008 L1847.76 449.008 L1847.76 503.036 L1841.37 503.036 L1841.37 449.008 Z" fill="#000000" fill-rule="nonzero" fill-opacity="1" /><path clip-path="url(#clip650)" d="M1861.4 451.196 L1891.19 451.196 L1891.19 457.098 L1868.42 457.098 L1868.42 472.376 L1888.97 472.376 L1888.97 478.279 L1868.42 478.279 L1868.42 503.036 L1861.4 503.036 L1861.4 451.196 Z" fill="#000000" fill-rule="nonzero" fill-opacity="1" /><path clip-path="url(#clip650)" d="M1902.3 451.196 L1912.76 451.196 L1925.99 486.473 L1939.28 451.196 L1949.74 451.196 L1949.74 503.036 L1942.89 503.036 L1942.89 457.515 L1929.53 493.07 L1922.48 493.07 L1909.11 457.515 L1909.11 503.036 L1902.3 503.036 L1902.3 451.196 Z" fill="#000000" fill-rule="nonzero" fill-opacity="1" /><path clip-path="url(#clip650)" d="M1962.86 451.196 L1969.91 451.196 L1969.91 482.689 Q1969.91 491.022 1972.93 494.702 Q1975.95 498.348 1982.72 498.348 Q1989.46 498.348 1992.48 494.702 Q1995.5 491.022 1995.5 482.689 L1995.5 451.196 L2002.55 451.196 L2002.55 483.557 Q2002.55 493.695 1997.51 498.869 Q1992.51 504.043 1982.72 504.043 Q1972.89 504.043 1967.86 498.869 Q1962.86 493.695 1962.86 483.557 L1962.86 451.196 Z" fill="#000000" fill-rule="nonzero" fill-opacity="1" /><path clip-path="url(#clip650)" d="M2053.38 449.078 Q2048.73 457.064 2046.47 464.876 Q2044.21 472.689 2044.21 480.709 Q2044.21 488.73 2046.47 496.612 Q2048.76 504.459 2053.38 512.411 L2047.82 512.411 Q2042.62 504.251 2040.01 496.369 Q2037.44 488.487 2037.44 480.709 Q2037.44 472.966 2040.01 465.119 Q2042.58 457.272 2047.82 449.078 L2053.38 449.078 Z" fill="#000000" fill-rule="nonzero" fill-opacity="1" /><path clip-path="url(#clip650)" d="M2066.75 451.196 L2094.28 451.196 L2094.28 457.098 L2073.17 457.098 L2073.17 469.807 Q2074.7 469.286 2076.23 469.043 Q2077.76 468.765 2079.28 468.765 Q2087.96 468.765 2093.03 473.522 Q2098.1 478.279 2098.1 486.404 Q2098.1 494.772 2092.89 499.425 Q2087.69 504.043 2078.21 504.043 Q2074.94 504.043 2071.54 503.487 Q2068.17 502.932 2064.56 501.82 L2064.56 494.772 Q2067.69 496.473 2071.02 497.307 Q2074.35 498.14 2078.07 498.14 Q2084.07 498.14 2087.58 494.98 Q2091.09 491.82 2091.09 486.404 Q2091.09 480.987 2087.58 477.828 Q2084.07 474.668 2078.07 474.668 Q2075.26 474.668 2072.44 475.293 Q2069.67 475.918 2066.75 477.237 L2066.75 451.196 Z" fill="#000000" fill-rule="nonzero" fill-opacity="1" /><path clip-path="url(#clip650)" d="M2126.92 455.814 Q2121.51 455.814 2118.76 461.161 Q2116.05 466.473 2116.05 477.168 Q2116.05 487.827 2118.76 493.175 Q2121.51 498.487 2126.92 498.487 Q2132.37 498.487 2135.08 493.175 Q2137.82 487.827 2137.82 477.168 Q2137.82 466.473 2135.08 461.161 Q2132.37 455.814 2126.92 455.814 M2126.92 450.258 Q2135.64 450.258 2140.22 457.168 Q2144.84 464.043 2144.84 477.168 Q2144.84 490.258 2140.22 497.168 Q2135.64 504.043 2126.92 504.043 Q2118.21 504.043 2113.59 497.168 Q2109.01 490.258 2109.01 477.168 Q2109.01 464.043 2113.59 457.168 Q2118.21 450.258 2126.92 450.258 Z" fill="#000000" fill-rule="nonzero" fill-opacity="1" /><path clip-path="url(#clip650)" d="M2172.16 455.814 Q2166.75 455.814 2164 461.161 Q2161.3 466.473 2161.3 477.168 Q2161.3 487.827 2164 493.175 Q2166.75 498.487 2172.16 498.487 Q2177.62 498.487 2180.32 493.175 Q2183.07 487.827 2183.07 477.168 Q2183.07 466.473 2180.32 461.161 Q2177.62 455.814 2172.16 455.814 M2172.16 450.258 Q2180.88 450.258 2185.46 457.168 Q2190.08 464.043 2190.08 477.168 Q2190.08 490.258 2185.46 497.168 Q2180.88 504.043 2172.16 504.043 Q2163.45 504.043 2158.83 497.168 Q2154.25 490.258 2154.25 477.168 Q2154.25 464.043 2158.83 457.168 Q2163.45 450.258 2172.16 450.258 Z" fill="#000000" fill-rule="nonzero" fill-opacity="1" /><path clip-path="url(#clip650)" d="M2217.41 455.814 Q2211.99 455.814 2209.25 461.161 Q2206.54 466.473 2206.54 477.168 Q2206.54 487.827 2209.25 493.175 Q2211.99 498.487 2217.41 498.487 Q2222.86 498.487 2225.57 493.175 Q2228.31 487.827 2228.31 477.168 Q2228.31 466.473 2225.57 461.161 Q2222.86 455.814 2217.41 455.814 M2217.41 450.258 Q2226.12 450.258 2230.71 457.168 Q2235.32 464.043 2235.32 477.168 Q2235.32 490.258 2230.71 497.168 Q2226.12 504.043 2217.41 504.043 Q2208.69 504.043 2204.07 497.168 Q2199.49 490.258 2199.49 477.168 Q2199.49 464.043 2204.07 457.168 Q2208.69 450.258 2217.41 450.258 Z" fill="#000000" fill-rule="nonzero" fill-opacity="1" /><path clip-path="url(#clip650)" d="M2245.74 449.078 L2251.3 449.078 Q2256.5 457.272 2259.07 465.119 Q2261.68 472.966 2261.68 480.709 Q2261.68 488.487 2259.07 496.369 Q2256.5 504.251 2251.3 512.411 L2245.74 512.411 Q2250.36 504.459 2252.62 496.612 Q2254.91 488.73 2254.91 480.709 Q2254.91 472.689 2252.62 464.876 Q2250.36 457.064 2245.74 449.078 Z" fill="#000000" fill-rule="nonzero" fill-opacity="1" /></svg>
