<?xml version="1.0" encoding="utf-8"?>
<svg xmlns="http://www.w3.org/2000/svg" xmlns:xlink="http://www.w3.org/1999/xlink" width="600" height="400" viewBox="0 0 2400 1600">
<defs>
  <clipPath id="clip530">
    <rect x="0" y="0" width="2400" height="1600"/>
  </clipPath>
</defs>
<path clip-path="url(#clip530)" d="M0 1600 L2400 1600 L2400 0 L0 0  Z" fill="#ffffff" fill-rule="evenodd" fill-opacity="1"/>
<defs>
  <clipPath id="clip531">
    <rect x="480" y="0" width="1681" height="1600"/>
  </clipPath>
</defs>
<path clip-path="url(#clip530)" d="M247.878 1401.58 L2352.76 1401.58 L2352.76 123.472 L247.878 123.472  Z" fill="#ffffff" fill-rule="evenodd" fill-opacity="1"/>
<defs>
  <clipPath id="clip532">
    <rect x="247" y="123" width="2106" height="1279"/>
  </clipPath>
</defs>
<polyline clip-path="url(#clip532)" style="stroke:#000000; stroke-linecap:round; stroke-linejoin:round; stroke-width:2; stroke-opacity:0.1; fill:none" points="458.366,1401.58 458.366,123.472 "/>
<polyline clip-path="url(#clip532)" style="stroke:#000000; stroke-linecap:round; stroke-linejoin:round; stroke-width:2; stroke-opacity:0.1; fill:none" points="879.342,1401.58 879.342,123.472 "/>
<polyline clip-path="url(#clip532)" style="stroke:#000000; stroke-linecap:round; stroke-linejoin:round; stroke-width:2; stroke-opacity:0.1; fill:none" points="1300.32,1401.58 1300.32,123.472 "/>
<polyline clip-path="url(#clip532)" style="stroke:#000000; stroke-linecap:round; stroke-linejoin:round; stroke-width:2; stroke-opacity:0.1; fill:none" points="1721.29,1401.58 1721.29,123.472 "/>
<polyline clip-path="url(#clip532)" style="stroke:#000000; stroke-linecap:round; stroke-linejoin:round; stroke-width:2; stroke-opacity:0.1; fill:none" points="2142.27,1401.58 2142.27,123.472 "/>
<polyline clip-path="url(#clip530)" style="stroke:#000000; stroke-linecap:round; stroke-linejoin:round; stroke-width:4; stroke-opacity:1; fill:none" points="247.878,1401.58 2352.76,1401.58 "/>
<polyline clip-path="url(#clip530)" style="stroke:#000000; stroke-linecap:round; stroke-linejoin:round; stroke-width:4; stroke-opacity:1; fill:none" points="458.366,1401.58 458.366,1382.68 "/>
<polyline clip-path="url(#clip530)" style="stroke:#000000; stroke-linecap:round; stroke-linejoin:round; stroke-width:4; stroke-opacity:1; fill:none" points="879.342,1401.58 879.342,1382.68 "/>
<polyline clip-path="url(#clip530)" style="stroke:#000000; stroke-linecap:round; stroke-linejoin:round; stroke-width:4; stroke-opacity:1; fill:none" points="1300.32,1401.58 1300.32,1382.68 "/>
<polyline clip-path="url(#clip530)" style="stroke:#000000; stroke-linecap:round; stroke-linejoin:round; stroke-width:4; stroke-opacity:1; fill:none" points="1721.29,1401.58 1721.29,1382.68 "/>
<polyline clip-path="url(#clip530)" style="stroke:#000000; stroke-linecap:round; stroke-linejoin:round; stroke-width:4; stroke-opacity:1; fill:none" points="2142.27,1401.58 2142.27,1382.68 "/>
<path clip-path="url(#clip530)" d="M378.158 1460.34 L422.672 1460.34 L422.672 1466.24 L378.158 1466.24 L378.158 1460.34 Z" fill="#000000" fill-rule="nonzero" fill-opacity="1" /><path clip-path="url(#clip530)" d="M439.026 1479.68 L450.484 1479.68 L450.484 1440.13 L438.019 1442.63 L438.019 1436.24 L450.415 1433.74 L457.429 1433.74 L457.429 1479.68 L468.887 1479.68 L468.887 1485.58 L439.026 1485.58 L439.026 1479.68 Z" fill="#000000" fill-rule="nonzero" fill-opacity="1" /><path clip-path="url(#clip530)" d="M483.053 1476.76 L490.38 1476.76 L490.38 1485.58 L483.053 1485.58 L483.053 1476.76 Z" fill="#000000" fill-rule="nonzero" fill-opacity="1" /><path clip-path="url(#clip530)" d="M520.657 1438.36 Q515.241 1438.36 512.498 1443.71 Q509.789 1449.02 509.789 1459.71 Q509.789 1470.37 512.498 1475.72 Q515.241 1481.03 520.657 1481.03 Q526.109 1481.03 528.817 1475.72 Q531.56 1470.37 531.56 1459.71 Q531.56 1449.02 528.817 1443.71 Q526.109 1438.36 520.657 1438.36 M520.657 1432.8 Q529.373 1432.8 533.956 1439.71 Q538.574 1446.59 538.574 1459.71 Q538.574 1472.8 533.956 1479.71 Q529.373 1486.59 520.657 1486.59 Q511.942 1486.59 507.324 1479.71 Q502.741 1472.8 502.741 1459.71 Q502.741 1446.59 507.324 1439.71 Q511.942 1432.8 520.657 1432.8 Z" fill="#000000" fill-rule="nonzero" fill-opacity="1" /><path clip-path="url(#clip530)" d="M799.88 1460.34 L844.394 1460.34 L844.394 1466.24 L799.88 1466.24 L799.88 1460.34 Z" fill="#000000" fill-rule="nonzero" fill-opacity="1" /><path clip-path="url(#clip530)" d="M874.533 1438.36 Q869.116 1438.36 866.373 1443.71 Q863.665 1449.02 863.665 1459.71 Q863.665 1470.37 866.373 1475.72 Q869.116 1481.03 874.533 1481.03 Q879.984 1481.03 882.692 1475.72 Q885.435 1470.37 885.435 1459.71 Q885.435 1449.02 882.692 1443.71 Q879.984 1438.36 874.533 1438.36 M874.533 1432.8 Q883.248 1432.8 887.831 1439.71 Q892.449 1446.59 892.449 1459.71 Q892.449 1472.8 887.831 1479.71 Q883.248 1486.59 874.533 1486.59 Q865.817 1486.59 861.199 1479.71 Q856.616 1472.8 856.616 1459.71 Q856.616 1446.59 861.199 1439.71 Q865.817 1432.8 874.533 1432.8 Z" fill="#000000" fill-rule="nonzero" fill-opacity="1" /><path clip-path="url(#clip530)" d="M904.775 1476.76 L912.102 1476.76 L912.102 1485.58 L904.775 1485.58 L904.775 1476.76 Z" fill="#000000" fill-rule="nonzero" fill-opacity="1" /><path clip-path="url(#clip530)" d="M927.449 1433.74 L954.984 1433.74 L954.984 1439.64 L933.873 1439.64 L933.873 1452.35 Q935.4 1451.83 936.928 1451.59 Q938.456 1451.31 939.984 1451.31 Q948.664 1451.31 953.734 1456.07 Q958.803 1460.82 958.803 1468.95 Q958.803 1477.32 953.595 1481.97 Q948.386 1486.59 938.907 1486.59 Q935.643 1486.59 932.241 1486.03 Q928.873 1485.48 925.261 1484.36 L925.261 1477.32 Q928.386 1479.02 931.72 1479.85 Q935.053 1480.68 938.768 1480.68 Q944.775 1480.68 948.282 1477.52 Q951.789 1474.36 951.789 1468.95 Q951.789 1463.53 948.282 1460.37 Q944.775 1457.21 938.768 1457.21 Q935.956 1457.21 933.143 1457.84 Q930.366 1458.46 927.449 1459.78 L927.449 1433.74 Z" fill="#000000" fill-rule="nonzero" fill-opacity="1" /><path clip-path="url(#clip530)" d="M1266.39 1438.36 Q1260.98 1438.36 1258.23 1443.71 Q1255.53 1449.02 1255.53 1459.71 Q1255.53 1470.37 1258.23 1475.72 Q1260.98 1481.03 1266.39 1481.03 Q1271.85 1481.03 1274.55 1475.72 Q1277.3 1470.37 1277.3 1459.71 Q1277.3 1449.02 1274.55 1443.71 Q1271.85 1438.36 1266.39 1438.36 M1266.39 1432.8 Q1275.11 1432.8 1279.69 1439.71 Q1284.31 1446.59 1284.31 1459.71 Q1284.31 1472.8 1279.69 1479.71 Q1275.11 1486.59 1266.39 1486.59 Q1257.68 1486.59 1253.06 1479.71 Q1248.48 1472.8 1248.48 1459.71 Q1248.48 1446.59 1253.06 1439.71 Q1257.68 1432.8 1266.39 1432.8 Z" fill="#000000" fill-rule="nonzero" fill-opacity="1" /><path clip-path="url(#clip530)" d="M1296.64 1476.76 L1303.96 1476.76 L1303.96 1485.58 L1296.64 1485.58 L1296.64 1476.76 Z" fill="#000000" fill-rule="nonzero" fill-opacity="1" /><path clip-path="url(#clip530)" d="M1334.24 1438.36 Q1328.82 1438.36 1326.08 1443.71 Q1323.37 1449.02 1323.37 1459.71 Q1323.37 1470.37 1326.08 1475.72 Q1328.82 1481.03 1334.24 1481.03 Q1339.69 1481.03 1342.4 1475.72 Q1345.14 1470.37 1345.14 1459.71 Q1345.14 1449.02 1342.4 1443.71 Q1339.69 1438.36 1334.24 1438.36 M1334.24 1432.8 Q1342.96 1432.8 1347.54 1439.71 Q1352.16 1446.59 1352.16 1459.71 Q1352.16 1472.8 1347.54 1479.71 Q1342.96 1486.59 1334.24 1486.59 Q1325.53 1486.59 1320.91 1479.71 Q1316.32 1472.8 1316.32 1459.71 Q1316.32 1446.59 1320.91 1439.71 Q1325.53 1432.8 1334.24 1432.8 Z" fill="#000000" fill-rule="nonzero" fill-opacity="1" /><path clip-path="url(#clip530)" d="M1688.12 1438.36 Q1682.7 1438.36 1679.96 1443.71 Q1677.25 1449.02 1677.25 1459.71 Q1677.25 1470.37 1679.96 1475.72 Q1682.7 1481.03 1688.12 1481.03 Q1693.57 1481.03 1696.28 1475.72 Q1699.02 1470.37 1699.02 1459.71 Q1699.02 1449.02 1696.28 1443.71 Q1693.57 1438.36 1688.12 1438.36 M1688.12 1432.8 Q1696.83 1432.8 1701.41 1439.71 Q1706.03 1446.59 1706.03 1459.71 Q1706.03 1472.8 1701.41 1479.71 Q1696.83 1486.59 1688.12 1486.59 Q1679.4 1486.59 1674.78 1479.71 Q1670.2 1472.8 1670.2 1459.71 Q1670.2 1446.59 1674.78 1439.71 Q1679.4 1432.8 1688.12 1432.8 Z" fill="#000000" fill-rule="nonzero" fill-opacity="1" /><path clip-path="url(#clip530)" d="M1718.36 1476.76 L1725.68 1476.76 L1725.68 1485.58 L1718.36 1485.58 L1718.36 1476.76 Z" fill="#000000" fill-rule="nonzero" fill-opacity="1" /><path clip-path="url(#clip530)" d="M1741.03 1433.74 L1768.57 1433.74 L1768.57 1439.64 L1747.46 1439.64 L1747.46 1452.35 Q1748.98 1451.83 1750.51 1451.59 Q1752.04 1451.31 1753.57 1451.31 Q1762.25 1451.31 1767.32 1456.07 Q1772.39 1460.82 1772.39 1468.95 Q1772.39 1477.32 1767.18 1481.97 Q1761.97 1486.59 1752.49 1486.59 Q1749.23 1486.59 1745.82 1486.03 Q1742.46 1485.48 1738.84 1484.36 L1738.84 1477.32 Q1741.97 1479.02 1745.3 1479.85 Q1748.64 1480.68 1752.35 1480.68 Q1758.36 1480.68 1761.87 1477.52 Q1765.37 1474.36 1765.37 1468.95 Q1765.37 1463.53 1761.87 1460.37 Q1758.36 1457.21 1752.35 1457.21 Q1749.54 1457.21 1746.73 1457.84 Q1743.95 1458.46 1741.03 1459.78 L1741.03 1433.74 Z" fill="#000000" fill-rule="nonzero" fill-opacity="1" /><path clip-path="url(#clip530)" d="M2093 1479.68 L2104.46 1479.68 L2104.46 1440.13 L2091.99 1442.63 L2091.99 1436.24 L2104.39 1433.74 L2111.4 1433.74 L2111.4 1479.68 L2122.86 1479.68 L2122.86 1485.58 L2093 1485.58 L2093 1479.68 Z" fill="#000000" fill-rule="nonzero" fill-opacity="1" /><path clip-path="url(#clip530)" d="M2137.03 1476.76 L2144.35 1476.76 L2144.35 1485.58 L2137.03 1485.58 L2137.03 1476.76 Z" fill="#000000" fill-rule="nonzero" fill-opacity="1" /><path clip-path="url(#clip530)" d="M2174.63 1438.36 Q2169.21 1438.36 2166.47 1443.71 Q2163.76 1449.02 2163.76 1459.71 Q2163.76 1470.37 2166.47 1475.72 Q2169.21 1481.03 2174.63 1481.03 Q2180.08 1481.03 2182.79 1475.72 Q2185.53 1470.37 2185.53 1459.71 Q2185.53 1449.02 2182.79 1443.71 Q2180.08 1438.36 2174.63 1438.36 M2174.63 1432.8 Q2183.34 1432.8 2187.93 1439.71 Q2192.55 1446.59 2192.55 1459.71 Q2192.55 1472.8 2187.93 1479.71 Q2183.34 1486.59 2174.63 1486.59 Q2165.91 1486.59 2161.3 1479.71 Q2156.71 1472.8 2156.71 1459.71 Q2156.71 1446.59 2161.3 1439.71 Q2165.91 1432.8 2174.63 1432.8 Z" fill="#000000" fill-rule="nonzero" fill-opacity="1" /><path clip-path="url(#clip530)" d="M1179.21 1538.66 L1185.98 1538.66 L1198.13 1571.3 L1210.28 1538.66 L1217.05 1538.66 L1202.47 1577.55 L1193.79 1577.55 L1179.21 1538.66 Z" fill="#000000" fill-rule="nonzero" fill-opacity="1" /><path clip-path="url(#clip530)" d="M1247.89 1523.52 L1262.61 1523.52 L1262.61 1528.49 L1254.28 1528.49 L1254.28 1581.96 L1262.61 1581.96 L1262.61 1586.92 L1247.89 1586.92 L1247.89 1523.52 Z" fill="#000000" fill-rule="nonzero" fill-opacity="1" /><path clip-path="url(#clip530)" d="M1306.5 1546.12 Q1308.89 1541.82 1312.23 1539.77 Q1315.56 1537.72 1320.07 1537.72 Q1326.15 1537.72 1329.45 1541.99 Q1332.75 1546.23 1332.75 1554.08 L1332.75 1577.55 L1326.32 1577.55 L1326.32 1554.28 Q1326.32 1548.69 1324.34 1545.99 Q1322.37 1543.28 1318.3 1543.28 Q1313.34 1543.28 1310.46 1546.58 Q1307.57 1549.87 1307.57 1555.57 L1307.57 1577.55 L1301.15 1577.55 L1301.15 1554.28 Q1301.15 1548.66 1299.17 1545.99 Q1297.19 1543.28 1293.06 1543.28 Q1288.16 1543.28 1285.28 1546.61 Q1282.4 1549.91 1282.4 1555.57 L1282.4 1577.55 L1275.98 1577.55 L1275.98 1538.66 L1282.4 1538.66 L1282.4 1544.7 Q1284.59 1541.12 1287.64 1539.42 Q1290.7 1537.72 1294.9 1537.72 Q1299.14 1537.72 1302.09 1539.87 Q1305.07 1542.03 1306.5 1546.12 Z" fill="#000000" fill-rule="nonzero" fill-opacity="1" /><path clip-path="url(#clip530)" d="M1356.84 1525.71 L1362.75 1525.71 L1344.69 1584.15 L1338.79 1584.15 L1356.84 1525.71 Z" fill="#000000" fill-rule="nonzero" fill-opacity="1" /><path clip-path="url(#clip530)" d="M1394.24 1539.8 L1394.24 1545.85 Q1391.53 1544.46 1388.62 1543.76 Q1385.7 1543.07 1382.57 1543.07 Q1377.82 1543.07 1375.42 1544.53 Q1373.06 1545.99 1373.06 1548.9 Q1373.06 1551.12 1374.76 1552.41 Q1376.46 1553.66 1381.6 1554.8 L1383.79 1555.29 Q1390.59 1556.75 1393.44 1559.42 Q1396.32 1562.06 1396.32 1566.82 Q1396.32 1572.24 1392.02 1575.4 Q1387.75 1578.55 1380.25 1578.55 Q1377.12 1578.55 1373.72 1577.93 Q1370.35 1577.34 1366.6 1576.12 L1366.6 1569.53 Q1370.14 1571.37 1373.58 1572.3 Q1377.02 1573.21 1380.39 1573.21 Q1384.9 1573.21 1387.33 1571.68 Q1389.76 1570.12 1389.76 1567.3 Q1389.76 1564.7 1387.99 1563.31 Q1386.25 1561.92 1380.32 1560.64 L1378.09 1560.12 Q1372.16 1558.87 1369.52 1556.3 Q1366.88 1553.69 1366.88 1549.18 Q1366.88 1543.69 1370.77 1540.71 Q1374.66 1537.72 1381.81 1537.72 Q1385.35 1537.72 1388.48 1538.24 Q1391.6 1538.76 1394.24 1539.8 Z" fill="#000000" fill-rule="nonzero" fill-opacity="1" /><path clip-path="url(#clip530)" d="M1421.43 1523.52 L1421.43 1586.92 L1406.71 1586.92 L1406.71 1581.96 L1415 1581.96 L1415 1528.49 L1406.71 1528.49 L1406.71 1523.52 L1421.43 1523.52 Z" fill="#000000" fill-rule="nonzero" fill-opacity="1" /><polyline clip-path="url(#clip532)" style="stroke:#000000; stroke-linecap:round; stroke-linejoin:round; stroke-width:2; stroke-opacity:0.1; fill:none" points="247.878,1335.37 2352.76,1335.37 "/>
<polyline clip-path="url(#clip532)" style="stroke:#000000; stroke-linecap:round; stroke-linejoin:round; stroke-width:2; stroke-opacity:0.1; fill:none" points="247.878,1079.58 2352.76,1079.58 "/>
<polyline clip-path="url(#clip532)" style="stroke:#000000; stroke-linecap:round; stroke-linejoin:round; stroke-width:2; stroke-opacity:0.1; fill:none" points="247.878,823.794 2352.76,823.794 "/>
<polyline clip-path="url(#clip532)" style="stroke:#000000; stroke-linecap:round; stroke-linejoin:round; stroke-width:2; stroke-opacity:0.1; fill:none" points="247.878,568.005 2352.76,568.005 "/>
<polyline clip-path="url(#clip532)" style="stroke:#000000; stroke-linecap:round; stroke-linejoin:round; stroke-width:2; stroke-opacity:0.1; fill:none" points="247.878,312.216 2352.76,312.216 "/>
<polyline clip-path="url(#clip530)" style="stroke:#000000; stroke-linecap:round; stroke-linejoin:round; stroke-width:4; stroke-opacity:1; fill:none" points="247.878,1401.58 247.878,123.472 "/>
<polyline clip-path="url(#clip530)" style="stroke:#000000; stroke-linecap:round; stroke-linejoin:round; stroke-width:4; stroke-opacity:1; fill:none" points="247.878,1335.37 266.776,1335.37 "/>
<polyline clip-path="url(#clip530)" style="stroke:#000000; stroke-linecap:round; stroke-linejoin:round; stroke-width:4; stroke-opacity:1; fill:none" points="247.878,1079.58 266.776,1079.58 "/>
<polyline clip-path="url(#clip530)" style="stroke:#000000; stroke-linecap:round; stroke-linejoin:round; stroke-width:4; stroke-opacity:1; fill:none" points="247.878,823.794 266.776,823.794 "/>
<polyline clip-path="url(#clip530)" style="stroke:#000000; stroke-linecap:round; stroke-linejoin:round; stroke-width:4; stroke-opacity:1; fill:none" points="247.878,568.005 266.776,568.005 "/>
<polyline clip-path="url(#clip530)" style="stroke:#000000; stroke-linecap:round; stroke-linejoin:round; stroke-width:4; stroke-opacity:1; fill:none" points="247.878,312.216 266.776,312.216 "/>
<path clip-path="url(#clip530)" d="M118.58 1336.05 L163.094 1336.05 L163.094 1341.95 L118.58 1341.95 L118.58 1336.05 Z" fill="#000000" fill-rule="nonzero" fill-opacity="1" /><path clip-path="url(#clip530)" d="M197.503 1315.56 L179.795 1343.24 L197.503 1343.24 L197.503 1315.56 M195.663 1309.45 L204.482 1309.45 L204.482 1343.24 L211.878 1343.24 L211.878 1349.07 L204.482 1349.07 L204.482 1361.29 L197.503 1361.29 L197.503 1349.07 L174.101 1349.07 L174.101 1342.3 L195.663 1309.45 Z" fill="#000000" fill-rule="nonzero" fill-opacity="1" /><path clip-path="url(#clip530)" d="M121.705 1080.26 L166.219 1080.26 L166.219 1086.16 L121.705 1086.16 L121.705 1080.26 Z" fill="#000000" fill-rule="nonzero" fill-opacity="1" /><path clip-path="url(#clip530)" d="M187.399 1099.6 L211.878 1099.6 L211.878 1105.5 L178.962 1105.5 L178.962 1099.6 Q182.955 1095.47 189.83 1088.52 Q196.739 1081.54 198.51 1079.53 Q201.878 1075.75 203.198 1073.14 Q204.552 1070.5 204.552 1067.97 Q204.552 1063.84 201.635 1061.23 Q198.753 1058.63 194.101 1058.63 Q190.802 1058.63 187.121 1059.77 Q183.476 1060.92 179.309 1063.25 L179.309 1056.16 Q183.545 1054.46 187.226 1053.59 Q190.906 1052.73 193.962 1052.73 Q202.017 1052.73 206.809 1056.75 Q211.6 1060.78 211.6 1067.52 Q211.6 1070.71 210.385 1073.59 Q209.205 1076.44 206.045 1080.33 Q205.177 1081.34 200.524 1086.16 Q195.871 1090.95 187.399 1099.6 Z" fill="#000000" fill-rule="nonzero" fill-opacity="1" /><path clip-path="url(#clip530)" d="M193.962 802.492 Q188.545 802.492 185.802 807.839 Q183.094 813.151 183.094 823.846 Q183.094 834.505 185.802 839.853 Q188.545 845.165 193.962 845.165 Q199.413 845.165 202.121 839.853 Q204.864 834.505 204.864 823.846 Q204.864 813.151 202.121 807.839 Q199.413 802.492 193.962 802.492 M193.962 796.936 Q202.677 796.936 207.26 803.846 Q211.878 810.721 211.878 823.846 Q211.878 836.936 207.26 843.846 Q202.677 850.721 193.962 850.721 Q185.246 850.721 180.628 843.846 Q176.045 836.936 176.045 823.846 Q176.045 810.721 180.628 803.846 Q185.246 796.936 193.962 796.936 Z" fill="#000000" fill-rule="nonzero" fill-opacity="1" /><path clip-path="url(#clip530)" d="M187.399 588.022 L211.878 588.022 L211.878 593.925 L178.962 593.925 L178.962 588.022 Q182.955 583.89 189.83 576.946 Q196.739 569.966 198.51 567.953 Q201.878 564.168 203.198 561.564 Q204.552 558.925 204.552 556.39 Q204.552 552.258 201.635 549.654 Q198.753 547.05 194.101 547.05 Q190.802 547.05 187.121 548.196 Q183.476 549.342 179.309 551.668 L179.309 544.585 Q183.545 542.883 187.226 542.015 Q190.906 541.147 193.962 541.147 Q202.017 541.147 206.809 545.175 Q211.6 549.203 211.6 555.939 Q211.6 559.133 210.385 562.015 Q209.205 564.862 206.045 568.751 Q205.177 569.758 200.524 574.584 Q195.871 579.376 187.399 588.022 Z" fill="#000000" fill-rule="nonzero" fill-opacity="1" /><path clip-path="url(#clip530)" d="M197.503 292.407 L179.795 320.08 L197.503 320.08 L197.503 292.407 M195.663 286.296 L204.482 286.296 L204.482 320.08 L211.878 320.08 L211.878 325.913 L204.482 325.913 L204.482 338.136 L197.503 338.136 L197.503 325.913 L174.101 325.913 L174.101 319.143 L195.663 286.296 Z" fill="#000000" fill-rule="nonzero" fill-opacity="1" /><path clip-path="url(#clip530)" d="M13.0007 1025.04 L18.3131 1025.04 L18.3131 1031.15 Q18.3131 1034.59 19.702 1035.94 Q21.0909 1037.26 24.702 1037.26 L28.1395 1037.26 L28.1395 1026.74 L33.1047 1026.74 L33.1047 1037.26 L67.0282 1037.26 L67.0282 1043.69 L33.1047 1043.69 L33.1047 1049.8 L28.1395 1049.8 L28.1395 1043.69 L25.4312 1043.69 Q18.9381 1043.69 15.9868 1040.67 Q13.0007 1037.65 13.0007 1031.08 L13.0007 1025.04 Z" fill="#000000" fill-rule="nonzero" fill-opacity="1" /><path clip-path="url(#clip530)" d="M34.1117 997.16 Q33.4867 998.237 33.2089 999.521 Q32.8964 1000.77 32.8964 1002.3 Q32.8964 1007.72 36.438 1010.63 Q39.945 1013.51 46.5422 1013.51 L67.0282 1013.51 L67.0282 1019.94 L28.1395 1019.94 L28.1395 1013.51 L34.1811 1013.51 Q30.6395 1011.5 28.9381 1008.27 Q27.202 1005.04 27.202 1000.42 Q27.202 999.764 27.3061 998.966 Q27.3756 998.167 27.5492 997.195 L34.1117 997.16 Z" fill="#000000" fill-rule="nonzero" fill-opacity="1" /><path clip-path="url(#clip530)" d="M28.1395 990.459 L28.1395 984.07 L67.0282 984.07 L67.0282 990.459 L28.1395 990.459 M13.0007 990.459 L13.0007 984.07 L21.0909 984.07 L21.0909 990.459 L13.0007 990.459 Z" fill="#000000" fill-rule="nonzero" fill-opacity="1" /><path clip-path="url(#clip530)" d="M29.6325 942.716 L35.6047 942.716 Q34.1117 945.424 33.3825 948.167 Q32.6186 950.876 32.6186 953.653 Q32.6186 959.869 36.5769 963.306 Q40.5005 966.744 47.6185 966.744 Q54.7366 966.744 58.6949 963.306 Q62.6185 959.869 62.6185 953.653 Q62.6185 950.876 61.8893 948.167 Q61.1254 945.424 59.6324 942.716 L65.5351 942.716 Q66.7851 945.39 67.4101 948.272 Q68.0351 951.119 68.0351 954.348 Q68.0351 963.133 62.5143 968.306 Q56.9935 973.48 47.6185 973.48 Q38.1047 973.48 32.6533 968.271 Q27.202 963.028 27.202 953.931 Q27.202 950.98 27.827 948.167 Q28.4173 945.355 29.6325 942.716 Z" fill="#000000" fill-rule="nonzero" fill-opacity="1" /><path clip-path="url(#clip530)" d="M17.0979 925.286 L28.1395 925.286 L28.1395 912.126 L33.1047 912.126 L33.1047 925.286 L54.2157 925.286 Q58.9726 925.286 60.3268 924.001 Q61.681 922.681 61.681 918.688 L61.681 912.126 L67.0282 912.126 L67.0282 918.688 Q67.0282 926.084 64.2851 928.897 Q61.5074 931.709 54.2157 931.709 L33.1047 931.709 L33.1047 936.397 L28.1395 936.397 L28.1395 931.709 L17.0979 931.709 L17.0979 925.286 Z" fill="#000000" fill-rule="nonzero" fill-opacity="1" /><path clip-path="url(#clip530)" d="M28.1395 903.723 L28.1395 897.334 L67.0282 897.334 L67.0282 903.723 L28.1395 903.723 M13.0007 903.723 L13.0007 897.334 L21.0909 897.334 L21.0909 903.723 L13.0007 903.723 Z" fill="#000000" fill-rule="nonzero" fill-opacity="1" /><path clip-path="url(#clip530)" d="M32.6186 868.897 Q32.6186 874.036 36.6464 877.022 Q40.6394 880.008 47.6185 880.008 Q54.5977 880.008 58.6254 877.057 Q62.6185 874.071 62.6185 868.897 Q62.6185 863.793 58.5907 860.807 Q54.5629 857.821 47.6185 857.821 Q40.7089 857.821 36.6811 860.807 Q32.6186 863.793 32.6186 868.897 M27.202 868.897 Q27.202 860.564 32.6186 855.807 Q38.0353 851.05 47.6185 851.05 Q57.1671 851.05 62.6185 855.807 Q68.0351 860.564 68.0351 868.897 Q68.0351 877.265 62.6185 882.022 Q57.1671 886.744 47.6185 886.744 Q38.0353 886.744 32.6186 882.022 Q27.202 877.265 27.202 868.897 Z" fill="#000000" fill-rule="nonzero" fill-opacity="1" /><path clip-path="url(#clip530)" d="M43.5561 808.133 L67.0282 808.133 L67.0282 814.522 L43.7644 814.522 Q38.2436 814.522 35.5005 816.675 Q32.7575 818.828 32.7575 823.133 Q32.7575 828.307 36.0561 831.293 Q39.3547 834.279 45.0491 834.279 L67.0282 834.279 L67.0282 840.703 L28.1395 840.703 L28.1395 834.279 L34.1811 834.279 Q30.6742 831.987 28.9381 828.897 Q27.202 825.772 27.202 821.71 Q27.202 815.008 31.3686 811.571 Q35.5005 808.133 43.5561 808.133 Z" fill="#000000" fill-rule="nonzero" fill-opacity="1" /><path clip-path="url(#clip530)" d="M13.0007 753.099 L18.3131 753.099 L18.3131 759.21 Q18.3131 762.648 19.702 764.002 Q21.0909 765.321 24.702 765.321 L28.1395 765.321 L28.1395 754.8 L33.1047 754.8 L33.1047 765.321 L67.0282 765.321 L67.0282 771.745 L33.1047 771.745 L33.1047 777.856 L28.1395 777.856 L28.1395 771.745 L25.4312 771.745 Q18.9381 771.745 15.9868 768.724 Q13.0007 765.703 13.0007 759.141 L13.0007 753.099 Z" fill="#000000" fill-rule="nonzero" fill-opacity="1" /><path clip-path="url(#clip530)" d="M32.6186 732.682 Q32.6186 737.821 36.6464 740.807 Q40.6394 743.793 47.6185 743.793 Q54.5977 743.793 58.6254 740.842 Q62.6185 737.856 62.6185 732.682 Q62.6185 727.578 58.5907 724.592 Q54.5629 721.606 47.6185 721.606 Q40.7089 721.606 36.6811 724.592 Q32.6186 727.578 32.6186 732.682 M27.202 732.682 Q27.202 724.349 32.6186 719.592 Q38.0353 714.835 47.6185 714.835 Q57.1671 714.835 62.6185 719.592 Q68.0351 724.349 68.0351 732.682 Q68.0351 741.05 62.6185 745.807 Q57.1671 750.53 47.6185 750.53 Q38.0353 750.53 32.6186 745.807 Q27.202 741.05 27.202 732.682 Z" fill="#000000" fill-rule="nonzero" fill-opacity="1" /><path clip-path="url(#clip530)" d="M34.1117 681.71 Q33.4867 682.787 33.2089 684.072 Q32.8964 685.322 32.8964 686.849 Q32.8964 692.266 36.438 695.183 Q39.945 698.065 46.5422 698.065 L67.0282 698.065 L67.0282 704.488 L28.1395 704.488 L28.1395 698.065 L34.1811 698.065 Q30.6395 696.051 28.9381 692.821 Q27.202 689.592 27.202 684.974 Q27.202 684.315 27.3061 683.516 Q27.3756 682.717 27.5492 681.745 L34.1117 681.71 Z" fill="#000000" fill-rule="nonzero" fill-opacity="1" /><path clip-path="url(#clip530)" d="M29.6325 648.586 L35.6047 648.586 Q34.1117 651.294 33.3825 654.037 Q32.6186 656.745 32.6186 659.523 Q32.6186 665.738 36.5769 669.176 Q40.5005 672.613 47.6185 672.613 Q54.7366 672.613 58.6949 669.176 Q62.6185 665.738 62.6185 659.523 Q62.6185 656.745 61.8893 654.037 Q61.1254 651.294 59.6324 648.586 L65.5351 648.586 Q66.7851 651.259 67.4101 654.141 Q68.0351 656.988 68.0351 660.218 Q68.0351 669.002 62.5143 674.176 Q56.9935 679.349 47.6185 679.349 Q38.1047 679.349 32.6533 674.141 Q27.202 668.898 27.202 659.801 Q27.202 656.849 27.827 654.037 Q28.4173 651.224 29.6325 648.586 Z" fill="#000000" fill-rule="nonzero" fill-opacity="1" /><path clip-path="url(#clip530)" d="M45.9866 604.211 L49.1116 604.211 L49.1116 633.586 Q55.7088 633.169 59.181 629.627 Q62.6185 626.051 62.6185 619.697 Q62.6185 616.016 61.7157 612.579 Q60.8129 609.107 59.0074 605.704 L65.049 605.704 Q66.5073 609.141 67.2712 612.752 Q68.0351 616.364 68.0351 620.079 Q68.0351 629.384 62.6185 634.836 Q57.2018 640.252 47.9658 640.252 Q38.4172 640.252 32.827 635.113 Q27.202 629.94 27.202 621.19 Q27.202 613.343 32.2714 608.794 Q37.3061 604.211 45.9866 604.211 M44.1116 610.6 Q38.8686 610.669 35.7436 613.551 Q32.6186 616.398 32.6186 621.12 Q32.6186 626.468 35.6394 629.697 Q38.6603 632.891 44.1463 633.377 L44.1116 610.6 Z" fill="#000000" fill-rule="nonzero" fill-opacity="1" /><path clip-path="url(#clip530)" d="M13.0007 571.711 L13.0007 556.989 L17.9659 556.989 L17.9659 565.322 L71.4379 565.322 L71.4379 556.989 L76.4031 556.989 L76.4031 571.711 L13.0007 571.711 Z" fill="#000000" fill-rule="nonzero" fill-opacity="1" /><path clip-path="url(#clip530)" d="M15.1882 543.1 L15.1882 533.656 L58.556 510.67 L15.1882 510.67 L15.1882 503.864 L67.0282 503.864 L67.0282 513.309 L23.6603 536.295 L67.0282 536.295 L67.0282 543.1 L15.1882 543.1 Z" fill="#000000" fill-rule="nonzero" fill-opacity="1" /><path clip-path="url(#clip530)" d="M13.0007 475.253 L76.4031 475.253 L76.4031 489.975 L71.4379 489.975 L71.4379 481.677 L17.9659 481.677 L17.9659 489.975 L13.0007 489.975 L13.0007 475.253 Z" fill="#000000" fill-rule="nonzero" fill-opacity="1" /><path clip-path="url(#clip530)" d="M974.604 12.096 L1009.36 12.096 L1009.36 18.9825 L982.787 18.9825 L982.787 36.8065 L1006.77 36.8065 L1006.77 43.6931 L982.787 43.6931 L982.787 72.576 L974.604 72.576 L974.604 12.096 Z" fill="#000000" fill-rule="nonzero" fill-opacity="1" /><path clip-path="url(#clip530)" d="M1042.25 34.1734 Q1041 33.4443 1039.5 33.1202 Q1038.04 32.7556 1036.26 32.7556 Q1029.94 32.7556 1026.54 36.8875 Q1023.17 40.9789 1023.17 48.6757 L1023.17 72.576 L1015.68 72.576 L1015.68 27.2059 L1023.17 27.2059 L1023.17 34.2544 Q1025.52 30.1225 1029.29 28.1376 Q1033.06 26.1121 1038.45 26.1121 Q1039.22 26.1121 1040.15 26.2337 Q1041.08 26.3147 1042.21 26.5172 L1042.25 34.1734 Z" fill="#000000" fill-rule="nonzero" fill-opacity="1" /><path clip-path="url(#clip530)" d="M1050.07 27.2059 L1057.53 27.2059 L1057.53 72.576 L1050.07 72.576 L1050.07 27.2059 M1050.07 9.54393 L1057.53 9.54393 L1057.53 18.9825 L1050.07 18.9825 L1050.07 9.54393 Z" fill="#000000" fill-rule="nonzero" fill-opacity="1" /><path clip-path="url(#clip530)" d="M1105.77 28.9478 L1105.77 35.9153 Q1102.61 34.1734 1099.41 33.3227 Q1096.25 32.4315 1093.01 32.4315 Q1085.76 32.4315 1081.75 37.0496 Q1077.74 41.6271 1077.74 49.9314 Q1077.74 58.2358 1081.75 62.8538 Q1085.76 67.4314 1093.01 67.4314 Q1096.25 67.4314 1099.41 66.5807 Q1102.61 65.6895 1105.77 63.9476 L1105.77 70.8341 Q1102.65 72.2924 1099.29 73.0216 Q1095.97 73.7508 1092.2 73.7508 Q1081.95 73.7508 1075.92 67.3098 Q1069.88 60.8689 1069.88 49.9314 Q1069.88 38.832 1075.96 32.472 Q1082.07 26.1121 1092.69 26.1121 Q1096.13 26.1121 1099.41 26.8413 Q1102.69 27.5299 1105.77 28.9478 Z" fill="#000000" fill-rule="nonzero" fill-opacity="1" /><path clip-path="url(#clip530)" d="M1126.11 14.324 L1126.11 27.2059 L1141.46 27.2059 L1141.46 32.9987 L1126.11 32.9987 L1126.11 57.6282 Q1126.11 63.1779 1127.61 64.7578 Q1129.15 66.3376 1133.8 66.3376 L1141.46 66.3376 L1141.46 72.576 L1133.8 72.576 Q1125.18 72.576 1121.9 69.3758 Q1118.61 66.1351 1118.61 57.6282 L1118.61 32.9987 L1113.15 32.9987 L1113.15 27.2059 L1118.61 27.2059 L1118.61 14.324 L1126.11 14.324 Z" fill="#000000" fill-rule="nonzero" fill-opacity="1" /><path clip-path="url(#clip530)" d="M1151.26 27.2059 L1158.72 27.2059 L1158.72 72.576 L1151.26 72.576 L1151.26 27.2059 M1151.26 9.54393 L1158.72 9.54393 L1158.72 18.9825 L1151.26 18.9825 L1151.26 9.54393 Z" fill="#000000" fill-rule="nonzero" fill-opacity="1" /><path clip-path="url(#clip530)" d="M1191.89 32.4315 Q1185.9 32.4315 1182.42 37.1306 Q1178.93 41.7891 1178.93 49.9314 Q1178.93 58.0738 1182.38 62.7728 Q1185.86 67.4314 1191.89 67.4314 Q1197.85 67.4314 1201.33 62.7323 Q1204.82 58.0333 1204.82 49.9314 Q1204.82 41.8701 1201.33 37.1711 Q1197.85 32.4315 1191.89 32.4315 M1191.89 26.1121 Q1201.62 26.1121 1207.17 32.4315 Q1212.72 38.7509 1212.72 49.9314 Q1212.72 61.0714 1207.17 67.4314 Q1201.62 73.7508 1191.89 73.7508 Q1182.13 73.7508 1176.58 67.4314 Q1171.07 61.0714 1171.07 49.9314 Q1171.07 38.7509 1176.58 32.4315 Q1182.13 26.1121 1191.89 26.1121 Z" fill="#000000" fill-rule="nonzero" fill-opacity="1" /><path clip-path="url(#clip530)" d="M1262.79 45.1919 L1262.79 72.576 L1255.33 72.576 L1255.33 45.4349 Q1255.33 38.994 1252.82 35.7938 Q1250.31 32.5936 1245.29 32.5936 Q1239.25 32.5936 1235.77 36.4419 Q1232.28 40.2903 1232.28 46.9338 L1232.28 72.576 L1224.79 72.576 L1224.79 27.2059 L1232.28 27.2059 L1232.28 34.2544 Q1234.96 30.163 1238.56 28.1376 Q1242.21 26.1121 1246.95 26.1121 Q1254.76 26.1121 1258.78 30.9732 Q1262.79 35.7938 1262.79 45.1919 Z" fill="#000000" fill-rule="nonzero" fill-opacity="1" /><path clip-path="url(#clip530)" d="M1339.35 35.9153 Q1342.14 30.8922 1346.03 28.5022 Q1349.92 26.1121 1355.19 26.1121 Q1362.28 26.1121 1366.12 31.0947 Q1369.97 36.0368 1369.97 45.1919 L1369.97 72.576 L1362.48 72.576 L1362.48 45.4349 Q1362.48 38.913 1360.17 35.7533 Q1357.86 32.5936 1353.12 32.5936 Q1347.33 32.5936 1343.97 36.4419 Q1340.6 40.2903 1340.6 46.9338 L1340.6 72.576 L1333.11 72.576 L1333.11 45.4349 Q1333.11 38.8725 1330.8 35.7533 Q1328.49 32.5936 1323.67 32.5936 Q1317.96 32.5936 1314.6 36.4824 Q1311.23 40.3308 1311.23 46.9338 L1311.23 72.576 L1303.74 72.576 L1303.74 27.2059 L1311.23 27.2059 L1311.23 34.2544 Q1313.79 30.082 1317.35 28.0971 Q1320.92 26.1121 1325.82 26.1121 Q1330.76 26.1121 1334.2 28.6237 Q1337.69 31.1352 1339.35 35.9153 Z" fill="#000000" fill-rule="nonzero" fill-opacity="1" /><path clip-path="url(#clip530)" d="M1402.42 32.4315 Q1396.42 32.4315 1392.94 37.1306 Q1389.46 41.7891 1389.46 49.9314 Q1389.46 58.0738 1392.9 62.7728 Q1396.38 67.4314 1402.42 67.4314 Q1408.37 67.4314 1411.86 62.7323 Q1415.34 58.0333 1415.34 49.9314 Q1415.34 41.8701 1411.86 37.1711 Q1408.37 32.4315 1402.42 32.4315 M1402.42 26.1121 Q1412.14 26.1121 1417.69 32.4315 Q1423.24 38.7509 1423.24 49.9314 Q1423.24 61.0714 1417.69 67.4314 Q1412.14 73.7508 1402.42 73.7508 Q1392.66 73.7508 1387.11 67.4314 Q1381.6 61.0714 1381.6 49.9314 Q1381.6 38.7509 1387.11 32.4315 Q1392.66 26.1121 1402.42 26.1121 Z" fill="#000000" fill-rule="nonzero" fill-opacity="1" /><path clip-path="url(#clip530)" d="M1465.45 34.0924 L1465.45 9.54393 L1472.91 9.54393 L1472.91 72.576 L1465.45 72.576 L1465.45 65.7705 Q1463.1 69.8214 1459.5 71.8063 Q1455.93 73.7508 1450.91 73.7508 Q1442.69 73.7508 1437.5 67.1883 Q1432.36 60.6258 1432.36 49.9314 Q1432.36 39.2371 1437.5 32.6746 Q1442.69 26.1121 1450.91 26.1121 Q1455.93 26.1121 1459.5 28.0971 Q1463.1 30.0415 1465.45 34.0924 M1440.05 49.9314 Q1440.05 58.1548 1443.42 62.8538 Q1446.82 67.5124 1452.73 67.5124 Q1458.65 67.5124 1462.05 62.8538 Q1465.45 58.1548 1465.45 49.9314 Q1465.45 41.7081 1462.05 37.0496 Q1458.65 32.3505 1452.73 32.3505 Q1446.82 32.3505 1443.42 37.0496 Q1440.05 41.7081 1440.05 49.9314 Z" fill="#000000" fill-rule="nonzero" fill-opacity="1" /><path clip-path="url(#clip530)" d="M1527.07 48.0275 L1527.07 51.6733 L1492.8 51.6733 Q1493.28 59.3701 1497.41 63.421 Q1501.59 67.4314 1509 67.4314 Q1513.29 67.4314 1517.3 66.3781 Q1521.35 65.3249 1525.32 63.2184 L1525.32 70.267 Q1521.31 71.9684 1517.1 72.8596 Q1512.89 73.7508 1508.55 73.7508 Q1497.7 73.7508 1491.34 67.4314 Q1485.02 61.1119 1485.02 50.3365 Q1485.02 39.1965 1491.01 32.6746 Q1497.05 26.1121 1507.26 26.1121 Q1516.41 26.1121 1521.72 32.0264 Q1527.07 37.9003 1527.07 48.0275 M1519.61 45.84 Q1519.53 39.7232 1516.17 36.0774 Q1512.85 32.4315 1507.34 32.4315 Q1501.1 32.4315 1497.33 35.9558 Q1493.61 39.4801 1493.04 45.8805 L1519.61 45.84 Z" fill="#000000" fill-rule="nonzero" fill-opacity="1" /><path clip-path="url(#clip530)" d="M1539.3 9.54393 L1546.75 9.54393 L1546.75 72.576 L1539.3 72.576 L1539.3 9.54393 Z" fill="#000000" fill-rule="nonzero" fill-opacity="1" /><path clip-path="url(#clip530)" d="M1591.19 65.6895 L1604.56 65.6895 L1604.56 19.5497 L1590.02 22.4663 L1590.02 15.0127 L1604.48 12.096 L1612.66 12.096 L1612.66 65.6895 L1626.03 65.6895 L1626.03 72.576 L1591.19 72.576 L1591.19 65.6895 Z" fill="#000000" fill-rule="nonzero" fill-opacity="1" /><polyline clip-path="url(#clip532)" style="stroke:#009af9; stroke-linecap:round; stroke-linejoin:round; stroke-width:8; stroke-opacity:1; fill:none" points="1300.32,823.794 1336.26,823.794 1372.46,823.794 1408.86,823.794 1445.4,823.794 1482.05,823.794 1518.74,823.794 1555.39,823.794 1591.98,823.794 1628.45,823.794 1664.76,823.794 1700.83,823.794 1736.64,823.794 1772.13,823.794 1807.24,823.794 1841.95,823.794 1876.19,823.794 1909.93,823.794 1943.12,823.794 1975.73,823.794 2007.71,823.794 2039.02,823.794 2069.64,823.794 2099.53,823.794 2128.63,823.794 2156.95,823.794 2184.45,823.794 2211.09,823.794 2236.83,823.794 2261.65,823.794 2285.52,823.794 2308.4,823.794 2330.32,823.794 2351.22,823.794 2371.08,823.794 2389.86,823.794 2407.55,823.794 2424.12,823.794 2439.58,823.794 2453.92,823.794 2467.1,823.794 2479.12,823.794 2489.95,823.794 2499.58,823.794 2508.01,823.794 2515.24,823.794 2521.25,823.794 2526.04,823.794 2529.6,823.794 2531.93,823.794 2533.02,823.794 2532.88,823.794 2531.5,823.794 2528.89,823.794 2525.05,823.794 2519.98,823.794 2513.7,823.794 2506.2,823.794 2497.48,823.794 2487.57,823.794 2476.47,823.794 2464.2,823.794 2450.75,823.794 2436.16,823.794 2420.42,823.794 2403.56,823.794 2385.59,823.794 2366.53,823.794 2346.4,823.794 2325.22,823.794 2303,823.794 2279.77,823.794 2255.54,823.794 2230.34,823.794 2204.2,823.794 2177.14,823.794 2149.18,823.794 2120.35,823.794 2090.66,823.794 2060.15,823.794 2028.85,823.794 1996.77,823.794 1963.96,823.794 1930.43,823.794 1896.21,823.794 1861.31,823.794 1825.77,823.794 1789.63,823.794 1752.9,823.794 1715.62,823.794 1677.81,823.794 1639.45,823.794 1600.59,823.794 1561.26,823.794 1521.48,823.794 1481.27,823.794 1440.66,823.794 1399.66,823.794 1358.31,823.794 1316.61,823.794 1282.19,823.794 1252.38,823.794 1222.38,823.794 1192.23,823.794 1161.97,823.794 1131.65,823.794 1101.32,823.794 1070.99,823.794 1040.74,823.794 1010.59,823.794 980.589,823.794 950.779,823.794 921.203,823.794 891.895,823.794 862.886,823.794 834.222,823.794 805.944,823.794 778.094,823.794 750.699,823.794 723.766,823.794 697.354,823.794 671.501,823.794 646.243,823.794 621.604,823.794 597.576,823.794 574.216,823.794 551.558,823.794 529.632,823.794 508.464,823.794 488.033,823.794 468.396,823.794 449.578,823.794 431.605,823.794 414.503,823.794 398.24,823.794 382.868,823.794 368.408,823.794 354.881,823.794 342.308,823.794 330.657,823.794 319.965,823.794 310.253,823.794 301.536,823.794 293.83,823.794 287.104,823.794 281.379,823.794 276.675,823.794 273.002,823.794 270.37,823.794 268.751,823.794 268.149,823.794 268.583,823.794 270.057,823.794 272.577,823.794 276.116,823.794 280.663,823.794 286.235,823.794 292.832,823.794 300.453,823.794 309.073,823.794 318.669,823.794 329.254,823.794 340.824,823.794 353.372,823.794 366.875,823.794 381.3,823.794 396.655,823.794 412.932,823.794 430.12,823.794 448.197,823.794 467.121,823.794 486.898,823.794 507.513,823.794 528.953,823.794 551.198,823.794 574.2,823.794 597.961,823.794 622.463,823.794 647.688,823.794 673.617,823.794 700.207,823.794 727.451,823.794 755.329,823.794 783.821,823.794 812.906,823.794 842.555,823.794 872.75,823.794 903.472,823.794 934.698,823.794 966.408,823.794 998.592,823.794 1031.23,823.794 1064.29,823.794 1097.76,823.794 1131.61,823.794 1165.81,823.794 1200.34,823.794 1235.17,823.794 1270.28,823.794 1303.8,823.794 1327.1,823.794 1350.54,823.794 1374.12,823.794 1397.8,823.794 1421.56,823.794 1445.35,823.794 1469.16,823.794 1492.94,823.794 1516.67,823.794 1540.32,823.794 1563.84,823.794 1587.22,823.794 1610.43,823.794 1633.43,823.794 1656.2,823.794 1678.7,823.794 1700.91,823.794 1722.79,823.794 1744.32,823.794 1765.47,823.794 1786.22,823.794 1806.54,823.794 1826.41,823.794 1845.8,823.794 1864.68,823.794 1883.06,823.794 1900.88,823.794 1918.14,823.794 1934.81,823.794 1950.87,823.794 1966.32,823.794 1981.12,823.794 1995.26,823.794 2008.71,823.794 2021.5,823.794 2033.57,823.794 2044.93,823.794 2055.55,823.794 2065.43,823.794 2074.58,823.794 2082.96,823.794 2090.58,823.794 2097.41,823.794 2103.45,823.794 2108.67,823.794 2113.08,823.794 2116.72,823.794 2119.55,823.794 2121.56,823.794 2122.75,823.794 2123.11,823.794 2122.64,823.794 2121.33,823.794 2119.2,823.794 2116.26,823.794 2112.5,823.794 2107.93,823.794 2102.54,823.794 2096.33,823.794 2089.32,823.794 2081.51,823.794 2072.91,823.794 2063.52,823.794 2053.35,823.794 2042.41,823.794 2030.72,823.794 2018.28,823.794 2005.1,823.794 1991.19,823.794 1976.57,823.794 1961.25,823.794 1945.23,823.794 1928.54,823.794 1911.2,823.794 1893.21,823.794 1874.59,823.794 1855.37,823.794 1835.52,823.794 1815.1,823.794 1794.11,823.794 1772.57,823.794 1750.5,823.794 1727.91,823.794 1704.84,823.794 1681.27,823.794 1657.23,823.794 1632.73,823.794 1607.8,823.794 1582.45,823.794 1556.71,823.794 1530.6,823.794 1504.12,823.794 1477.3,823.794 1450.15,823.794 1422.7,823.794 1394.96,823.794 1366.95,823.794 1338.7,823.794 1310.22,823.794 1289.61,823.794 1273.15,823.794 1256.58,823.794 1239.93,823.794 1223.21,823.794 1206.45,823.794 1189.64,823.794 1172.83,823.794 1156.04,823.794 1139.28,823.794 1122.57,823.794 1105.94,823.794 1089.4,823.794 1072.97,823.794 1056.69,823.794 1040.56,823.794 1024.61,823.794 1008.86,823.794 993.324,823.794 978.029,823.794 962.983,823.794 948.212,823.794 933.736,823.794 919.575,823.794 905.75,823.794 892.27,823.794 879.133,823.794 866.374,823.794 854.012,823.794 842.063,823.794 830.547,823.794 819.475,823.794 808.823,823.794 798.634,823.794 788.923,823.794 779.703,823.794 770.991,823.794 762.799,823.794 755.092,823.794 747.912,823.794 741.27,823.794 735.179,823.794 729.649,823.794 724.692,823.794 720.273,823.794 716.417,823.794 713.14,823.794 710.45,823.794 708.353,823.794 706.858,823.794 705.935,823.794 705.59,823.794 705.842,823.794 706.695,823.794 708.152,823.794 710.218,823.794 712.868,823.794 716.092,823.794 719.91,823.794 724.32,823.794 729.324,823.794 734.923,823.794 741.098,823.794 747.823,823.794 755.117,823.794 762.978,823.794 771.403,823.794 780.388,823.794 789.92,823.794 799.963,823.794 810.534,823.794 821.627,823.794 833.237,823.794 845.356,823.794 857.977,823.794 871.055,823.794 884.606,823.794 898.62,823.794 913.09,823.794 928.006,823.794 943.36,823.794 959.114,823.794 975.273,823.794 991.828,823.794 1008.77,823.794 1026.08,823.794 1043.76,823.794 1061.78,823.794 1080.13,823.794 1098.81,823.794 1117.79,823.794 1137.08,823.794 1156.66,823.794 1176.51,823.794 1196.63,823.794 1217.01,823.794 1237.63,823.794 1258.48,823.794 1279.54,823.794 1300.49,823.794 1309.29,823.794 1318.15,823.794 "/>
<polyline clip-path="url(#clip532)" style="stroke:#e26f46; stroke-linecap:round; stroke-linejoin:round; stroke-width:8; stroke-opacity:1; fill:none" points="1300.32,727.873 1336.26,732.833 1372.46,737.395 1408.86,741.582 1445.4,745.413 1482.05,748.912 1518.74,752.099 1555.39,754.995 1591.98,757.621 1628.45,759.998 1664.76,762.146 1700.83,764.082 1736.64,765.824 1772.13,767.388 1807.24,768.789 1841.95,770.044 1876.19,771.164 1909.93,772.161 1943.12,773.049 1975.73,773.836 2007.71,774.534 2039.02,775.15 2069.64,775.693 2099.53,776.171 2128.63,776.59 2156.95,776.956 2184.45,777.276 2211.09,777.553 2236.83,777.794 2261.65,778.001 2285.52,778.179 2308.4,778.331 2330.32,778.461 2351.22,778.57 2371.08,778.662 2389.86,778.739 2407.55,778.802 2424.12,778.854 2439.58,778.896 2453.92,778.93 2467.1,778.958 2479.12,778.979 2489.95,778.995 2499.58,779.008 2508.01,779.017 2515.24,779.024 2521.25,779.029 2526.04,779.033 2529.6,779.035 2531.93,779.036 2533.02,779.037 2532.88,779.037 2531.5,779.036 2528.89,779.034 2525.05,779.032 2519.98,779.028 2513.7,779.023 2506.2,779.015 2497.48,779.005 2487.57,778.992 2476.47,778.974 2464.2,778.952 2450.75,778.923 2436.16,778.887 2420.42,778.843 2403.56,778.788 2385.59,778.722 2366.53,778.642 2346.4,778.546 2325.22,778.432 2303,778.297 2279.77,778.138 2255.54,777.952 2230.34,777.736 2204.2,777.485 2177.14,777.194 2149.18,776.859 2120.35,776.475 2090.66,776.034 2060.15,775.531 2028.85,774.956 1996.77,774.303 1963.96,773.561 1930.43,772.72 1896.21,771.767 1861.31,770.691 1825.77,769.475 1789.63,768.104 1752.9,766.559 1715.62,764.822 1677.81,762.868 1639.45,760.671 1600.59,758.203 1561.26,755.433 1521.48,752.325 1481.27,748.841 1440.66,744.935 1399.66,740.56 1358.31,735.661 1316.61,730.177 1282.19,917.158 1252.38,913.196 1222.38,909.499 1192.23,906.055 1161.97,902.854 1131.65,899.885 1101.32,897.138 1070.99,894.598 1040.74,892.256 1010.59,890.099 980.589,888.117 950.779,886.298 921.203,884.631 891.895,883.106 862.886,881.713 834.222,880.441 805.944,879.283 778.094,878.23 750.699,877.272 723.766,876.403 697.354,875.615 671.501,874.902 646.243,874.257 621.604,873.676 597.576,873.151 574.216,872.678 551.558,872.253 529.632,871.871 508.464,871.529 488.033,871.223 468.396,870.949 449.578,870.704 431.605,870.487 414.503,870.293 398.24,870.121 382.868,869.969 368.408,869.834 354.881,869.716 342.308,869.613 330.657,869.522 319.965,869.443 310.253,869.374 301.536,869.316 293.83,869.266 287.104,869.224 281.379,869.19 276.675,869.163 273.002,869.142 270.37,869.127 268.751,869.118 268.149,869.115 268.583,869.117 270.057,869.125 272.577,869.139 276.116,869.159 280.663,869.186 286.235,869.219 292.832,869.26 300.453,869.309 309.073,869.366 318.669,869.433 329.254,869.511 340.824,869.601 353.372,869.703 366.875,869.821 381.3,869.954 396.655,870.105 412.932,870.276 430.12,870.469 448.197,870.687 467.121,870.932 486.898,871.206 507.513,871.515 528.953,871.86 551.198,872.246 574.2,872.678 597.961,873.159 622.463,873.695 647.688,874.293 673.617,874.958 700.207,875.697 727.451,876.518 755.329,877.429 783.821,878.439 812.906,879.56 842.555,880.8 872.75,882.174 903.472,883.694 934.698,885.375 966.408,887.233 998.592,889.287 1031.23,891.557 1064.29,894.063 1097.76,896.829 1131.61,899.882 1165.81,903.247 1200.34,906.955 1235.17,911.04 1270.28,915.538 1303.8,728.373 1327.1,731.61 1350.54,734.683 1374.12,737.596 1397.8,740.351 1421.56,742.954 1445.35,745.408 1469.16,747.719 1492.94,749.89 1516.67,751.928 1540.32,753.838 1563.84,755.624 1587.22,757.293 1610.43,758.852 1633.43,760.305 1656.2,761.658 1678.7,762.917 1700.91,764.085 1722.79,765.17 1744.32,766.175 1765.47,767.106 1786.22,767.967 1806.54,768.763 1826.41,769.498 1845.8,770.175 1864.68,770.8 1883.06,771.375 1900.88,771.904 1918.14,772.389 1934.81,772.835 1950.87,773.243 1966.32,773.617 1981.12,773.959 1995.26,774.27 2008.71,774.554 2021.5,774.813 2033.57,775.047 2044.93,775.259 2055.55,775.45 2065.43,775.622 2074.58,775.775 2082.96,775.912 2090.58,776.033 2097.41,776.139 2103.45,776.23 2108.67,776.307 2113.08,776.371 2116.72,776.423 2119.55,776.464 2121.56,776.492 2122.75,776.508 2123.11,776.514 2122.64,776.507 2121.33,776.489 2119.2,776.459 2116.26,776.417 2112.5,776.363 2107.93,776.296 2102.54,776.216 2096.33,776.122 2089.32,776.013 2081.51,775.889 2072.91,775.748 2063.52,775.589 2053.35,775.411 2042.41,775.213 2030.72,774.992 2018.28,774.749 2005.1,774.479 1991.19,774.182 1976.57,773.855 1961.25,773.496 1945.23,773.102 1928.54,772.67 1911.2,772.197 1893.21,771.679 1874.59,771.114 1855.37,770.496 1835.52,769.821 1815.1,769.084 1794.11,768.281 1772.57,767.406 1750.5,766.453 1727.91,765.415 1704.84,764.285 1681.27,763.056 1657.23,761.717 1632.73,760.262 1607.8,758.68 1582.45,756.961 1556.71,755.094 1530.6,753.066 1504.12,750.865 1477.3,748.476 1450.15,745.885 1422.7,743.075 1394.96,740.029 1366.95,736.728 1338.7,733.154 1310.22,729.285 1289.61,918.19 1273.15,915.924 1256.58,913.737 1239.93,911.628 1223.21,909.598 1206.45,907.646 1189.64,905.772 1172.83,903.975 1156.04,902.255 1139.28,900.611 1122.57,899.04 1105.94,897.543 1089.4,896.116 1072.97,894.758 1056.69,893.467 1040.56,892.242 1024.61,891.08 1008.86,889.98 993.324,888.939 978.029,887.955 962.983,887.025 948.212,886.148 933.736,885.321 919.575,884.543 905.75,883.812 892.27,883.125 879.133,882.479 866.374,881.874 854.012,881.308 842.063,880.779 830.547,880.285 819.475,879.826 808.823,879.397 798.634,878.998 788.923,878.629 779.703,878.288 770.991,877.974 762.799,877.686 755.092,877.421 747.912,877.179 741.27,876.96 735.179,876.763 729.649,876.587 724.692,876.432 720.273,876.295 716.417,876.177 713.14,876.078 710.45,875.998 708.353,875.935 706.858,875.891 705.935,875.864 705.59,875.854 705.842,875.861 706.695,875.886 708.152,875.93 710.218,875.991 712.868,876.07 716.092,876.167 719.91,876.284 724.32,876.42 729.324,876.577 734.923,876.755 741.098,876.954 747.823,877.176 755.117,877.422 762.978,877.692 771.403,877.989 780.388,878.313 789.92,878.667 799.963,879.05 810.534,879.465 821.627,879.914 833.237,880.399 845.356,880.923 857.977,881.488 871.055,882.094 884.606,882.746 898.62,883.445 913.09,884.197 928.006,885.003 943.36,885.867 959.114,886.792 975.273,887.782 991.828,888.841 1008.77,889.974 1026.08,891.186 1043.76,892.481 1061.78,893.865 1080.13,895.342 1098.81,896.92 1117.79,898.604 1137.08,900.4 1156.66,902.317 1176.51,904.362 1196.63,906.542 1217.01,908.866 1237.63,911.343 1258.48,913.982 1279.54,916.793 1300.49,727.898 1309.29,729.153 1318.15,730.389 "/>
<polyline clip-path="url(#clip532)" style="stroke:#008000; stroke-linecap:round; stroke-linejoin:round; stroke-width:8; stroke-opacity:1; fill:none" stroke-dasharray="4, 8" points="1300.32,488.739 1336.26,513.698 1372.46,539.917 1408.86,567.353 1445.4,595.91 1482.05,625.505 1518.74,656.017 1555.39,687.284 1591.98,719.169 1628.45,751.485 1664.76,784.062 1700.83,816.689 1736.64,849.177 1772.13,881.324 1807.24,912.94 1841.95,943.856 1876.19,973.904 1909.93,1002.94 1943.12,1030.85 1975.73,1057.55 2007.71,1082.95 2039.02,1107 2069.64,1129.7 2099.53,1151.02 2128.63,1170.98 2156.95,1189.61 2184.45,1206.94 2211.09,1223.03 2236.83,1237.9 2261.65,1251.63 2285.52,1264.26 2308.4,1275.86 2330.32,1286.51 2351.22,1296.26 2371.08,1305.15 2389.86,1313.24 2407.55,1320.58 2424.12,1327.21 2439.58,1333.19 2453.92,1338.57 2467.1,1343.37 2479.12,1347.63 2489.95,1351.37 2499.58,1354.63 2508.01,1357.42 2515.24,1359.78 2521.25,1361.71 2526.04,1363.22 2529.6,1364.34 2531.93,1365.07 2533.02,1365.41 2532.88,1365.36 2531.5,1364.93 2528.89,1364.12 2525.05,1362.91 2519.98,1361.3 2513.7,1359.28 2506.2,1356.82 2497.48,1353.93 2487.57,1350.56 2476.47,1346.7 2464.2,1342.33 2450.75,1337.4 2436.16,1331.89 2420.42,1325.75 2403.56,1318.94 2385.59,1311.43 2366.53,1303.14 2346.4,1294.05 2325.22,1284.07 2303,1273.17 2279.77,1261.27 2255.54,1248.3 2230.34,1234.21 2204.2,1218.94 2177.14,1202.41 2149.18,1184.58 2120.35,1165.39 2090.66,1144.79 2060.15,1122.76 2028.85,1099.28 1996.77,1074.35 1963.96,1048 1930.43,1020.27 1896.21,991.205 1861.31,960.907 1825.77,929.496 1789.63,897.113 1752.9,863.92 1715.62,830.101 1677.81,795.843 1639.45,761.316 1600.59,726.751 1561.26,692.355 1521.48,658.33 1481.27,624.867 1440.66,592.144 1399.66,560.321 1358.31,529.539 1316.61,499.919 1282.19,476.572 1252.38,457.172 1222.38,438.427 1192.23,420.377 1161.97,403.052 1131.65,386.481 1101.32,370.681 1070.99,355.655 1040.74,341.41 1010.59,327.938 980.589,315.232 950.779,303.276 921.203,292.051 891.895,281.532 862.886,271.689 834.222,262.499 805.944,253.932 778.094,245.96 750.699,238.548 723.766,231.659 697.354,225.269 671.501,219.349 646.243,213.871 621.604,208.805 597.576,204.117 574.216,199.788 551.558,195.794 529.632,192.114 508.464,188.725 488.033,185.601 468.396,182.729 449.578,180.092 431.605,177.674 414.503,175.463 398.24,173.437 382.868,171.588 368.408,169.907 354.881,168.383 342.308,167.008 330.657,165.768 319.965,164.658 310.253,163.673 301.536,162.807 293.83,162.056 287.104,161.411 281.379,160.869 276.675,160.43 273.002,160.09 270.37,159.848 268.751,159.7 268.149,159.645 268.583,159.685 270.057,159.819 272.577,160.051 276.116,160.378 280.663,160.802 286.235,161.328 292.832,161.96 300.453,162.701 309.073,163.555 318.669,164.525 329.254,165.62 340.824,166.848 353.372,168.216 366.875,169.732 381.3,171.403 396.655,173.243 412.932,175.264 430.12,177.479 448.197,179.903 467.121,182.547 486.898,185.432 507.513,188.576 528.953,192.003 551.198,195.732 574.2,199.785 597.961,204.191 622.463,208.977 647.688,214.177 673.617,219.821 700.207,225.942 727.451,232.579 755.329,239.771 783.821,247.563 812.906,255.997 842.555,265.117 872.75,274.974 903.472,285.616 934.698,297.095 966.408,309.463 998.592,322.774 1031.23,337.081 1064.29,352.433 1097.76,368.878 1131.61,386.461 1165.81,405.208 1200.34,425.152 1235.17,446.319 1270.28,468.724 1303.8,491.109 1327.1,507.23 1350.54,523.915 1374.12,541.152 1397.8,558.907 1421.56,577.164 1445.35,595.867 1469.16,614.992 1492.94,634.479 1516.67,654.278 1540.32,674.344 1563.84,694.592 1587.22,714.985 1610.43,735.458 1633.43,755.934 1656.2,776.355 1678.7,796.65 1700.91,816.755 1722.79,836.604 1744.32,856.139 1765.47,875.301 1786.22,894.041 1806.54,912.313 1826.41,930.067 1845.8,947.262 1864.68,963.862 1883.06,979.86 1900.88,995.216 1918.14,1009.91 1934.81,1023.93 1950.87,1037.26 1966.32,1049.92 1981.12,1061.88 1995.26,1073.15 2008.71,1083.73 2021.5,1093.64 2033.57,1102.88 2044.93,1111.45 2055.55,1119.36 2065.43,1126.63 2074.58,1133.28 2082.96,1139.31 2090.58,1144.73 2097.41,1149.54 2103.45,1153.76 2108.67,1157.38 2113.08,1160.42 2116.72,1162.91 2119.55,1164.84 2121.56,1166.21 2122.75,1167.01 2123.11,1167.26 2122.64,1166.94 2121.33,1166.05 2119.2,1164.6 2116.26,1162.6 2112.5,1160.02 2107.93,1156.87 2102.54,1153.13 2096.33,1148.79 2089.32,1143.84 2081.51,1138.27 2072.91,1132.07 2063.52,1125.23 2053.35,1117.73 2042.41,1109.56 2030.72,1100.7 2018.28,1091.16 2005.1,1080.9 1991.19,1069.93 1976.57,1058.22 1961.25,1045.78 1945.23,1032.6 1928.54,1018.68 1911.2,1004.02 1893.21,988.624 1874.59,972.51 1855.37,955.69 1835.52,938.164 1815.1,919.972 1794.11,901.145 1772.57,881.72 1750.5,861.741 1727.91,841.255 1704.84,820.319 1681.27,798.976 1657.23,777.279 1632.73,755.306 1607.8,733.125 1582.45,710.807 1556.71,688.426 1530.6,666.053 1504.12,643.761 1477.3,621.617 1450.15,599.689 1422.7,578.047 1394.96,556.752 1366.95,535.862 1338.7,515.432 1310.22,495.509 1289.61,481.516 1273.15,470.603 1256.58,459.86 1239.93,449.3 1223.21,438.937 1206.45,428.788 1189.64,418.863 1172.83,409.178 1156.04,399.747 1139.28,390.578 1122.57,381.669 1105.94,373.039 1089.4,364.686 1072.97,356.612 1056.69,348.826 1040.56,341.326 1024.61,334.112 1008.86,327.185 993.324,320.542 978.029,314.179 962.983,308.092 948.212,302.277 933.736,296.731 919.575,291.451 905.75,286.431 892.27,281.662 879.133,277.133 866.374,272.844 854.012,268.788 842.063,264.962 830.547,261.358 819.475,257.971 808.823,254.783 798.634,251.796 788.923,249.006 779.703,246.408 770.991,243.998 762.799,241.77 755.092,239.708 747.912,237.817 741.27,236.092 735.179,234.531 729.649,233.131 724.692,231.889 720.273,230.793 716.417,229.845 713.14,229.045 710.45,228.393 708.353,227.887 706.858,227.527 705.935,227.306 705.59,227.224 705.842,227.284 706.695,227.488 708.152,227.839 710.218,228.337 712.868,228.979 716.092,229.766 719.91,230.704 724.32,231.797 729.324,233.049 734.923,234.466 741.098,236.048 747.823,237.794 755.117,239.715 762.978,241.819 771.403,244.111 780.388,246.599 789.92,249.29 799.963,252.182 810.534,255.29 821.627,258.624 833.237,262.192 845.356,266.007 857.977,270.078 871.055,274.405 884.606,279.006 898.62,283.893 913.09,289.08 928.006,294.578 943.36,300.401 959.114,306.553 975.273,313.052 991.828,319.912 1008.77,327.147 1026.08,334.771 1043.76,342.799 1061.78,351.238 1080.13,360.103 1098.81,369.409 1117.79,379.167 1137.08,389.391 1156.66,400.091 1176.51,411.278 1196.63,422.963 1217.01,435.153 1237.63,447.855 1258.48,461.075 1279.54,474.816 1300.49,488.857 1309.29,494.865 1318.15,500.983 "/>
<path clip-path="url(#clip530)" d="M1437.25 477.116 L2282.59 477.116 L2282.59 166.076 L1437.25 166.076  Z" fill="#ffffff" fill-rule="evenodd" fill-opacity="1"/>
<polyline clip-path="url(#clip530)" style="stroke:#000000; stroke-linecap:round; stroke-linejoin:round; stroke-width:4; stroke-opacity:1; fill:none" points="1437.25,477.116 2282.59,477.116 2282.59,166.076 1437.25,166.076 1437.25,477.116 "/>
<polyline clip-path="url(#clip530)" style="stroke:#009af9; stroke-linecap:round; stroke-linejoin:round; stroke-width:12; stroke-opacity:1; fill:none" points="1460.64,243.836 1600.96,243.836 "/>
<path clip-path="url(#clip530)" d="M1657.72 219.617 L1657.72 226.457 Q1653.72 224.548 1650.18 223.61 Q1646.64 222.673 1643.34 222.673 Q1637.61 222.673 1634.49 224.895 Q1631.4 227.117 1631.4 231.214 Q1631.4 234.652 1633.45 236.423 Q1635.53 238.159 1641.29 239.235 L1645.53 240.103 Q1653.38 241.596 1657.09 245.381 Q1660.84 249.131 1660.84 255.45 Q1660.84 262.985 1655.77 266.874 Q1650.74 270.763 1640.98 270.763 Q1637.3 270.763 1633.13 269.929 Q1629 269.096 1624.56 267.464 L1624.56 260.242 Q1628.83 262.638 1632.92 263.853 Q1637.02 265.068 1640.98 265.068 Q1646.99 265.068 1650.25 262.707 Q1653.51 260.346 1653.51 255.971 Q1653.51 252.152 1651.15 249.999 Q1648.83 247.846 1643.48 246.77 L1639.21 245.936 Q1631.36 244.374 1627.86 241.041 Q1624.35 237.707 1624.35 231.77 Q1624.35 224.895 1629.17 220.937 Q1634.04 216.978 1642.54 216.978 Q1646.19 216.978 1649.97 217.638 Q1653.76 218.298 1657.72 219.617 Z" fill="#000000" fill-rule="nonzero" fill-opacity="1" /><path clip-path="url(#clip530)" d="M1671.5 230.867 L1677.89 230.867 L1677.89 269.756 L1671.5 269.756 L1671.5 230.867 M1671.5 215.728 L1677.89 215.728 L1677.89 223.818 L1671.5 223.818 L1671.5 215.728 Z" fill="#000000" fill-rule="nonzero" fill-opacity="1" /><path clip-path="url(#clip530)" d="M1721.54 238.332 Q1723.93 234.027 1727.26 231.978 Q1730.6 229.93 1735.11 229.93 Q1741.19 229.93 1744.49 234.2 Q1747.78 238.436 1747.78 246.284 L1747.78 269.756 L1741.36 269.756 L1741.36 246.492 Q1741.36 240.902 1739.38 238.193 Q1737.4 235.485 1733.34 235.485 Q1728.38 235.485 1725.49 238.784 Q1722.61 242.082 1722.61 247.777 L1722.61 269.756 L1716.19 269.756 L1716.19 246.492 Q1716.19 240.867 1714.21 238.193 Q1712.23 235.485 1708.1 235.485 Q1703.2 235.485 1700.32 238.818 Q1697.44 242.117 1697.44 247.777 L1697.44 269.756 L1691.01 269.756 L1691.01 230.867 L1697.44 230.867 L1697.44 236.909 Q1699.63 233.332 1702.68 231.631 Q1705.74 229.93 1709.94 229.93 Q1714.17 229.93 1717.13 232.082 Q1720.11 234.235 1721.54 238.332 Z" fill="#000000" fill-rule="nonzero" fill-opacity="1" /><path clip-path="url(#clip530)" d="M1766.71 263.922 L1766.71 284.547 L1760.28 284.547 L1760.28 230.867 L1766.71 230.867 L1766.71 236.77 Q1768.72 233.298 1771.78 231.631 Q1774.87 229.93 1779.14 229.93 Q1786.22 229.93 1790.63 235.555 Q1795.08 241.179 1795.08 250.346 Q1795.08 259.513 1790.63 265.138 Q1786.22 270.763 1779.14 270.763 Q1774.87 270.763 1771.78 269.096 Q1768.72 267.395 1766.71 263.922 M1788.44 250.346 Q1788.44 243.298 1785.53 239.304 Q1782.65 235.277 1777.58 235.277 Q1772.51 235.277 1769.59 239.304 Q1766.71 243.298 1766.71 250.346 Q1766.71 257.395 1769.59 261.422 Q1772.51 265.415 1777.58 265.415 Q1782.65 265.415 1785.53 261.422 Q1788.44 257.395 1788.44 250.346 Z" fill="#000000" fill-rule="nonzero" fill-opacity="1" /><path clip-path="url(#clip530)" d="M1805.67 215.728 L1812.06 215.728 L1812.06 269.756 L1805.67 269.756 L1805.67 215.728 Z" fill="#000000" fill-rule="nonzero" fill-opacity="1" /><path clip-path="url(#clip530)" d="M1858.69 248.714 L1858.69 251.839 L1829.31 251.839 Q1829.73 258.436 1833.27 261.909 Q1836.85 265.346 1843.2 265.346 Q1846.88 265.346 1850.32 264.443 Q1853.79 263.54 1857.19 261.735 L1857.19 267.777 Q1853.76 269.235 1850.15 269.999 Q1846.53 270.763 1842.82 270.763 Q1833.51 270.763 1828.06 265.346 Q1822.65 259.929 1822.65 250.693 Q1822.65 241.145 1827.78 235.555 Q1832.96 229.93 1841.71 229.93 Q1849.56 229.93 1854.1 234.999 Q1858.69 240.034 1858.69 248.714 M1852.3 246.839 Q1852.23 241.596 1849.35 238.471 Q1846.5 235.346 1841.78 235.346 Q1836.43 235.346 1833.2 238.367 Q1830.01 241.388 1829.52 246.874 L1852.3 246.839 Z" fill="#000000" fill-rule="nonzero" fill-opacity="1" /><path clip-path="url(#clip530)" d="M1869.45 217.916 L1899.24 217.916 L1899.24 223.818 L1876.46 223.818 L1876.46 239.096 L1897.02 239.096 L1897.02 244.999 L1876.46 244.999 L1876.46 269.756 L1869.45 269.756 L1869.45 217.916 Z" fill="#000000" fill-rule="nonzero" fill-opacity="1" /><path clip-path="url(#clip530)" d="M1910.35 217.916 L1920.8 217.916 L1934.03 253.193 L1947.33 217.916 L1957.78 217.916 L1957.78 269.756 L1950.94 269.756 L1950.94 224.235 L1937.58 259.79 L1930.53 259.79 L1917.16 224.235 L1917.16 269.756 L1910.35 269.756 L1910.35 217.916 Z" fill="#000000" fill-rule="nonzero" fill-opacity="1" /><path clip-path="url(#clip530)" d="M1970.91 217.916 L1977.96 217.916 L1977.96 249.409 Q1977.96 257.742 1980.98 261.422 Q1984 265.068 1990.77 265.068 Q1997.51 265.068 2000.53 261.422 Q2003.55 257.742 2003.55 249.409 L2003.55 217.916 L2010.6 217.916 L2010.6 250.277 Q2010.6 260.415 2005.56 265.589 Q2000.56 270.763 1990.77 270.763 Q1980.94 270.763 1975.91 265.589 Q1970.91 260.415 1970.91 250.277 L1970.91 217.916 Z" fill="#000000" fill-rule="nonzero" fill-opacity="1" /><polyline clip-path="url(#clip530)" style="stroke:#e26f46; stroke-linecap:round; stroke-linejoin:round; stroke-width:12; stroke-opacity:1; fill:none" points="1460.64,321.596 1600.96,321.596 "/>
<path clip-path="url(#clip530)" d="M1647.13 314.599 Q1646.05 313.974 1644.76 313.696 Q1643.51 313.384 1641.99 313.384 Q1636.57 313.384 1633.65 316.926 Q1630.77 320.433 1630.77 327.03 L1630.77 347.516 L1624.35 347.516 L1624.35 308.627 L1630.77 308.627 L1630.77 314.669 Q1632.79 311.127 1636.01 309.426 Q1639.24 307.69 1643.86 307.69 Q1644.52 307.69 1645.32 307.794 Q1646.12 307.863 1647.09 308.037 L1647.13 314.599 Z" fill="#000000" fill-rule="nonzero" fill-opacity="1" /><path clip-path="url(#clip530)" d="M1685.53 326.474 L1685.53 329.599 L1656.15 329.599 Q1656.57 336.196 1660.11 339.669 Q1663.69 343.106 1670.04 343.106 Q1673.72 343.106 1677.16 342.203 Q1680.63 341.3 1684.04 339.495 L1684.04 345.537 Q1680.6 346.995 1676.99 347.759 Q1673.38 348.523 1669.66 348.523 Q1660.35 348.523 1654.9 343.106 Q1649.49 337.689 1649.49 328.453 Q1649.49 318.905 1654.63 313.315 Q1659.8 307.69 1668.55 307.69 Q1676.4 307.69 1680.94 312.759 Q1685.53 317.794 1685.53 326.474 M1679.14 324.599 Q1679.07 319.356 1676.19 316.231 Q1673.34 313.106 1668.62 313.106 Q1663.27 313.106 1660.04 316.127 Q1656.85 319.148 1656.36 324.634 L1679.14 324.599 Z" fill="#000000" fill-rule="nonzero" fill-opacity="1" /><path clip-path="url(#clip530)" d="M1715.7 293.488 L1715.7 298.801 L1709.59 298.801 Q1706.15 298.801 1704.8 300.19 Q1703.48 301.578 1703.48 305.19 L1703.48 308.627 L1714 308.627 L1714 313.592 L1703.48 313.592 L1703.48 347.516 L1697.06 347.516 L1697.06 313.592 L1690.94 313.592 L1690.94 308.627 L1697.06 308.627 L1697.06 305.919 Q1697.06 299.426 1700.08 296.474 Q1703.1 293.488 1709.66 293.488 L1715.7 293.488 Z" fill="#000000" fill-rule="nonzero" fill-opacity="1" /><path clip-path="url(#clip530)" d="M1754.31 326.474 L1754.31 329.599 L1724.94 329.599 Q1725.35 336.196 1728.9 339.669 Q1732.47 343.106 1738.83 343.106 Q1742.51 343.106 1745.94 342.203 Q1749.42 341.3 1752.82 339.495 L1752.82 345.537 Q1749.38 346.995 1745.77 347.759 Q1742.16 348.523 1738.44 348.523 Q1729.14 348.523 1723.69 343.106 Q1718.27 337.689 1718.27 328.453 Q1718.27 318.905 1723.41 313.315 Q1728.58 307.69 1737.33 307.69 Q1745.18 307.69 1749.73 312.759 Q1754.31 317.794 1754.31 326.474 M1747.92 324.599 Q1747.85 319.356 1744.97 316.231 Q1742.13 313.106 1737.4 313.106 Q1732.06 313.106 1728.83 316.127 Q1725.63 319.148 1725.15 324.634 L1747.92 324.599 Z" fill="#000000" fill-rule="nonzero" fill-opacity="1" /><path clip-path="url(#clip530)" d="M1787.33 314.599 Q1786.26 313.974 1784.97 313.696 Q1783.72 313.384 1782.19 313.384 Q1776.78 313.384 1773.86 316.926 Q1770.98 320.433 1770.98 327.03 L1770.98 347.516 L1764.56 347.516 L1764.56 308.627 L1770.98 308.627 L1770.98 314.669 Q1772.99 311.127 1776.22 309.426 Q1779.45 307.69 1784.07 307.69 Q1784.73 307.69 1785.53 307.794 Q1786.33 307.863 1787.3 308.037 L1787.33 314.599 Z" fill="#000000" fill-rule="nonzero" fill-opacity="1" /><path clip-path="url(#clip530)" d="M1825.74 326.474 L1825.74 329.599 L1796.36 329.599 Q1796.78 336.196 1800.32 339.669 Q1803.9 343.106 1810.25 343.106 Q1813.93 343.106 1817.37 342.203 Q1820.84 341.3 1824.24 339.495 L1824.24 345.537 Q1820.81 346.995 1817.19 347.759 Q1813.58 348.523 1809.87 348.523 Q1800.56 348.523 1795.11 343.106 Q1789.69 337.689 1789.69 328.453 Q1789.69 318.905 1794.83 313.315 Q1800.01 307.69 1808.76 307.69 Q1816.6 307.69 1821.15 312.759 Q1825.74 317.794 1825.74 326.474 M1819.35 324.599 Q1819.28 319.356 1816.4 316.231 Q1813.55 313.106 1808.83 313.106 Q1803.48 313.106 1800.25 316.127 Q1797.06 319.148 1796.57 324.634 L1819.35 324.599 Z" fill="#000000" fill-rule="nonzero" fill-opacity="1" /><path clip-path="url(#clip530)" d="M1868.55 324.044 L1868.55 347.516 L1862.16 347.516 L1862.16 324.252 Q1862.16 318.731 1860.01 315.988 Q1857.85 313.245 1853.55 313.245 Q1848.37 313.245 1845.39 316.544 Q1842.4 319.842 1842.4 325.537 L1842.4 347.516 L1835.98 347.516 L1835.98 308.627 L1842.4 308.627 L1842.4 314.669 Q1844.69 311.162 1847.78 309.426 Q1850.91 307.69 1854.97 307.69 Q1861.67 307.69 1865.11 311.856 Q1868.55 315.988 1868.55 324.044 Z" fill="#000000" fill-rule="nonzero" fill-opacity="1" /><path clip-path="url(#clip530)" d="M1909.28 310.12 L1909.28 316.092 Q1906.57 314.599 1903.83 313.87 Q1901.12 313.106 1898.34 313.106 Q1892.12 313.106 1888.69 317.064 Q1885.25 320.988 1885.25 328.106 Q1885.25 335.224 1888.69 339.182 Q1892.12 343.106 1898.34 343.106 Q1901.12 343.106 1903.83 342.377 Q1906.57 341.613 1909.28 340.12 L1909.28 346.023 Q1906.6 347.273 1903.72 347.898 Q1900.87 348.523 1897.65 348.523 Q1888.86 348.523 1883.69 343.002 Q1878.51 337.481 1878.51 328.106 Q1878.51 318.592 1883.72 313.141 Q1888.96 307.69 1898.06 307.69 Q1901.01 307.69 1903.83 308.315 Q1906.64 308.905 1909.28 310.12 Z" fill="#000000" fill-rule="nonzero" fill-opacity="1" /><path clip-path="url(#clip530)" d="M1953.65 326.474 L1953.65 329.599 L1924.28 329.599 Q1924.69 336.196 1928.24 339.669 Q1931.81 343.106 1938.17 343.106 Q1941.85 343.106 1945.28 342.203 Q1948.76 341.3 1952.16 339.495 L1952.16 345.537 Q1948.72 346.995 1945.11 347.759 Q1941.5 348.523 1937.78 348.523 Q1928.48 348.523 1923.03 343.106 Q1917.61 337.689 1917.61 328.453 Q1917.61 318.905 1922.75 313.315 Q1927.92 307.69 1936.67 307.69 Q1944.52 307.69 1949.07 312.759 Q1953.65 317.794 1953.65 326.474 M1947.26 324.599 Q1947.19 319.356 1944.31 316.231 Q1941.46 313.106 1936.74 313.106 Q1931.4 313.106 1928.17 316.127 Q1924.97 319.148 1924.49 324.634 L1947.26 324.599 Z" fill="#000000" fill-rule="nonzero" fill-opacity="1" /><polyline clip-path="url(#clip530)" style="stroke:#008000; stroke-linecap:round; stroke-linejoin:round; stroke-width:12; stroke-opacity:1; fill:none" stroke-dasharray="6, 12" points="1460.64,399.356 1600.96,399.356 "/>
<path clip-path="url(#clip530)" d="M1624.35 373.436 L1633.79 373.436 L1656.78 416.804 L1656.78 373.436 L1663.58 373.436 L1663.58 425.276 L1654.14 425.276 L1631.15 381.908 L1631.15 425.276 L1624.35 425.276 L1624.35 373.436 Z" fill="#000000" fill-rule="nonzero" fill-opacity="1" /><path clip-path="url(#clip530)" d="M1710.53 404.234 L1710.53 407.359 L1681.15 407.359 Q1681.57 413.956 1685.11 417.429 Q1688.69 420.866 1695.04 420.866 Q1698.72 420.866 1702.16 419.963 Q1705.63 419.06 1709.04 417.255 L1709.04 423.297 Q1705.6 424.755 1701.99 425.519 Q1698.38 426.283 1694.66 426.283 Q1685.35 426.283 1679.9 420.866 Q1674.49 415.449 1674.49 406.213 Q1674.49 396.665 1679.63 391.075 Q1684.8 385.45 1693.55 385.45 Q1701.4 385.45 1705.94 390.519 Q1710.53 395.554 1710.53 404.234 M1704.14 402.359 Q1704.07 397.116 1701.19 393.991 Q1698.34 390.866 1693.62 390.866 Q1688.27 390.866 1685.04 393.887 Q1681.85 396.908 1681.36 402.394 L1704.14 402.359 Z" fill="#000000" fill-rule="nonzero" fill-opacity="1" /><path clip-path="url(#clip530)" d="M1720.35 409.929 L1720.35 386.387 L1726.74 386.387 L1726.74 409.686 Q1726.74 415.206 1728.9 417.984 Q1731.05 420.727 1735.35 420.727 Q1740.53 420.727 1743.51 417.429 Q1746.53 414.13 1746.53 408.436 L1746.53 386.387 L1752.92 386.387 L1752.92 425.276 L1746.53 425.276 L1746.53 419.304 Q1744.21 422.845 1741.12 424.581 Q1738.06 426.283 1734 426.283 Q1727.3 426.283 1723.83 422.116 Q1720.35 417.949 1720.35 409.929 M1736.43 385.45 L1736.43 385.45 Z" fill="#000000" fill-rule="nonzero" fill-opacity="1" /><path clip-path="url(#clip530)" d="M1788.62 392.359 Q1787.54 391.734 1786.26 391.456 Q1785.01 391.144 1783.48 391.144 Q1778.06 391.144 1775.15 394.686 Q1772.26 398.193 1772.26 404.79 L1772.26 425.276 L1765.84 425.276 L1765.84 386.387 L1772.26 386.387 L1772.26 392.429 Q1774.28 388.887 1777.51 387.186 Q1780.74 385.45 1785.35 385.45 Q1786.01 385.45 1786.81 385.554 Q1787.61 385.623 1788.58 385.797 L1788.62 392.359 Z" fill="#000000" fill-rule="nonzero" fill-opacity="1" /><path clip-path="url(#clip530)" d="M1812.99 405.727 Q1805.25 405.727 1802.26 407.498 Q1799.28 409.269 1799.28 413.54 Q1799.28 416.942 1801.5 418.956 Q1803.76 420.935 1807.61 420.935 Q1812.92 420.935 1816.12 417.185 Q1819.35 413.401 1819.35 407.151 L1819.35 405.727 L1812.99 405.727 M1825.74 403.088 L1825.74 425.276 L1819.35 425.276 L1819.35 419.373 Q1817.16 422.915 1813.9 424.616 Q1810.63 426.283 1805.91 426.283 Q1799.94 426.283 1796.4 422.949 Q1792.89 419.581 1792.89 413.956 Q1792.89 407.394 1797.26 404.061 Q1801.67 400.727 1810.39 400.727 L1819.35 400.727 L1819.35 400.102 Q1819.35 395.693 1816.43 393.297 Q1813.55 390.866 1808.31 390.866 Q1804.97 390.866 1801.81 391.665 Q1798.65 392.463 1795.74 394.061 L1795.74 388.158 Q1799.24 386.804 1802.54 386.144 Q1805.84 385.45 1808.97 385.45 Q1817.4 385.45 1821.57 389.825 Q1825.74 394.199 1825.74 403.088 Z" fill="#000000" fill-rule="nonzero" fill-opacity="1" /><path clip-path="url(#clip530)" d="M1838.9 371.248 L1845.28 371.248 L1845.28 425.276 L1838.9 425.276 L1838.9 371.248 Z" fill="#000000" fill-rule="nonzero" fill-opacity="1" /><path clip-path="url(#clip530)" d="M1858.93 373.436 L1888.72 373.436 L1888.72 379.338 L1865.94 379.338 L1865.94 394.616 L1886.5 394.616 L1886.5 400.519 L1865.94 400.519 L1865.94 425.276 L1858.93 425.276 L1858.93 373.436 Z" fill="#000000" fill-rule="nonzero" fill-opacity="1" /><path clip-path="url(#clip530)" d="M1899.83 373.436 L1910.28 373.436 L1923.51 408.713 L1936.81 373.436 L1947.26 373.436 L1947.26 425.276 L1940.42 425.276 L1940.42 379.755 L1927.05 415.31 L1920.01 415.31 L1906.64 379.755 L1906.64 425.276 L1899.83 425.276 L1899.83 373.436 Z" fill="#000000" fill-rule="nonzero" fill-opacity="1" /><path clip-path="url(#clip530)" d="M1960.39 373.436 L1967.44 373.436 L1967.44 404.929 Q1967.44 413.262 1970.46 416.942 Q1973.48 420.588 1980.25 420.588 Q1986.99 420.588 1990.01 416.942 Q1993.03 413.262 1993.03 404.929 L1993.03 373.436 L2000.08 373.436 L2000.08 405.797 Q2000.08 415.935 1995.04 421.109 Q1990.04 426.283 1980.25 426.283 Q1970.42 426.283 1965.39 421.109 Q1960.39 415.935 1960.39 405.797 L1960.39 373.436 Z" fill="#000000" fill-rule="nonzero" fill-opacity="1" /><path clip-path="url(#clip530)" d="M2050.91 371.318 Q2046.26 379.304 2044 387.116 Q2041.74 394.929 2041.74 402.949 Q2041.74 410.97 2044 418.852 Q2046.29 426.699 2050.91 434.651 L2045.35 434.651 Q2040.14 426.491 2037.54 418.609 Q2034.97 410.727 2034.97 402.949 Q2034.97 395.206 2037.54 387.359 Q2040.11 379.512 2045.35 371.318 L2050.91 371.318 Z" fill="#000000" fill-rule="nonzero" fill-opacity="1" /><path clip-path="url(#clip530)" d="M2070.25 419.373 L2094.73 419.373 L2094.73 425.276 L2061.81 425.276 L2061.81 419.373 Q2065.8 415.241 2072.68 408.297 Q2079.59 401.318 2081.36 399.304 Q2084.73 395.519 2086.05 392.915 Q2087.4 390.276 2087.4 387.741 Q2087.4 383.609 2084.48 381.005 Q2081.6 378.401 2076.95 378.401 Q2073.65 378.401 2069.97 379.547 Q2066.32 380.693 2062.16 383.019 L2062.16 375.936 Q2066.39 374.234 2070.07 373.366 Q2073.76 372.498 2076.81 372.498 Q2084.87 372.498 2089.66 376.526 Q2094.45 380.554 2094.45 387.29 Q2094.45 390.484 2093.23 393.366 Q2092.05 396.213 2088.89 400.102 Q2088.03 401.109 2083.37 405.936 Q2078.72 410.727 2070.25 419.373 Z" fill="#000000" fill-rule="nonzero" fill-opacity="1" /><path clip-path="url(#clip530)" d="M2109.52 373.436 L2137.05 373.436 L2137.05 379.338 L2115.94 379.338 L2115.94 392.047 Q2117.47 391.526 2119 391.283 Q2120.53 391.005 2122.05 391.005 Q2130.73 391.005 2135.8 395.762 Q2140.87 400.519 2140.87 408.644 Q2140.87 417.012 2135.66 421.665 Q2130.46 426.283 2120.98 426.283 Q2117.71 426.283 2114.31 425.727 Q2110.94 425.172 2107.33 424.06 L2107.33 417.012 Q2110.46 418.713 2113.79 419.547 Q2117.12 420.38 2120.84 420.38 Q2126.85 420.38 2130.35 417.22 Q2133.86 414.06 2133.86 408.644 Q2133.86 403.227 2130.35 400.068 Q2126.85 396.908 2120.84 396.908 Q2118.03 396.908 2115.21 397.533 Q2112.44 398.158 2109.52 399.477 L2109.52 373.436 Z" fill="#000000" fill-rule="nonzero" fill-opacity="1" /><path clip-path="url(#clip530)" d="M2169.69 378.054 Q2164.28 378.054 2161.53 383.401 Q2158.82 388.713 2158.82 399.408 Q2158.82 410.067 2161.53 415.415 Q2164.28 420.727 2169.69 420.727 Q2175.14 420.727 2177.85 415.415 Q2180.6 410.067 2180.6 399.408 Q2180.6 388.713 2177.85 383.401 Q2175.14 378.054 2169.69 378.054 M2169.69 372.498 Q2178.41 372.498 2182.99 379.408 Q2187.61 386.283 2187.61 399.408 Q2187.61 412.498 2182.99 419.408 Q2178.41 426.283 2169.69 426.283 Q2160.98 426.283 2156.36 419.408 Q2151.78 412.498 2151.78 399.408 Q2151.78 386.283 2156.36 379.408 Q2160.98 372.498 2169.69 372.498 Z" fill="#000000" fill-rule="nonzero" fill-opacity="1" /><path clip-path="url(#clip530)" d="M2214.94 378.054 Q2209.52 378.054 2206.78 383.401 Q2204.07 388.713 2204.07 399.408 Q2204.07 410.067 2206.78 415.415 Q2209.52 420.727 2214.94 420.727 Q2220.39 420.727 2223.09 415.415 Q2225.84 410.067 2225.84 399.408 Q2225.84 388.713 2223.09 383.401 Q2220.39 378.054 2214.94 378.054 M2214.94 372.498 Q2223.65 372.498 2228.23 379.408 Q2232.85 386.283 2232.85 399.408 Q2232.85 412.498 2228.23 419.408 Q2223.65 426.283 2214.94 426.283 Q2206.22 426.283 2201.6 419.408 Q2197.02 412.498 2197.02 399.408 Q2197.02 386.283 2201.6 379.408 Q2206.22 372.498 2214.94 372.498 Z" fill="#000000" fill-rule="nonzero" fill-opacity="1" /><path clip-path="url(#clip530)" d="M2243.27 371.318 L2248.82 371.318 Q2254.03 379.512 2256.6 387.359 Q2259.21 395.206 2259.21 402.949 Q2259.21 410.727 2256.6 418.609 Q2254.03 426.491 2248.82 434.651 L2243.27 434.651 Q2247.89 426.699 2250.14 418.852 Q2252.43 410.97 2252.43 402.949 Q2252.43 394.929 2250.14 387.116 Q2247.89 379.304 2243.27 371.318 Z" fill="#000000" fill-rule="nonzero" fill-opacity="1" /></svg>
