<?xml version="1.0" encoding="utf-8"?>
<svg xmlns="http://www.w3.org/2000/svg" xmlns:xlink="http://www.w3.org/1999/xlink" width="600" height="400" viewBox="0 0 2400 1600">
<defs>
  <clipPath id="clip510">
    <rect x="0" y="0" width="2400" height="1600"/>
  </clipPath>
</defs>
<path clip-path="url(#clip510)" d="M0 1600 L2400 1600 L2400 0 L0 0  Z" fill="#ffffff" fill-rule="evenodd" fill-opacity="1"/>
<defs>
  <clipPath id="clip511">
    <rect x="480" y="0" width="1681" height="1600"/>
  </clipPath>
</defs>
<path clip-path="url(#clip510)" d="M193.936 1423.18 L2352.76 1423.18 L2352.76 47.2441 L193.936 47.2441  Z" fill="#ffffff" fill-rule="evenodd" fill-opacity="1"/>
<defs>
  <clipPath id="clip512">
    <rect x="193" y="47" width="2160" height="1377"/>
  </clipPath>
</defs>
<polyline clip-path="url(#clip512)" style="stroke:#000000; stroke-linecap:round; stroke-linejoin:round; stroke-width:2; stroke-opacity:0.1; fill:none" points="255.035,1423.18 255.035,47.2441 "/>
<polyline clip-path="url(#clip512)" style="stroke:#000000; stroke-linecap:round; stroke-linejoin:round; stroke-width:2; stroke-opacity:0.1; fill:none" points="764.19,1423.18 764.19,47.2441 "/>
<polyline clip-path="url(#clip512)" style="stroke:#000000; stroke-linecap:round; stroke-linejoin:round; stroke-width:2; stroke-opacity:0.1; fill:none" points="1273.35,1423.18 1273.35,47.2441 "/>
<polyline clip-path="url(#clip512)" style="stroke:#000000; stroke-linecap:round; stroke-linejoin:round; stroke-width:2; stroke-opacity:0.1; fill:none" points="1782.5,1423.18 1782.5,47.2441 "/>
<polyline clip-path="url(#clip512)" style="stroke:#000000; stroke-linecap:round; stroke-linejoin:round; stroke-width:2; stroke-opacity:0.1; fill:none" points="2291.66,1423.18 2291.66,47.2441 "/>
<polyline clip-path="url(#clip512)" style="stroke:#000000; stroke-linecap:round; stroke-linejoin:round; stroke-width:2; stroke-opacity:0.1; fill:none" points="193.936,1409.24 2352.76,1409.24 "/>
<polyline clip-path="url(#clip512)" style="stroke:#000000; stroke-linecap:round; stroke-linejoin:round; stroke-width:2; stroke-opacity:0.1; fill:none" points="193.936,1200.72 2352.76,1200.72 "/>
<polyline clip-path="url(#clip512)" style="stroke:#000000; stroke-linecap:round; stroke-linejoin:round; stroke-width:2; stroke-opacity:0.1; fill:none" points="193.936,992.193 2352.76,992.193 "/>
<polyline clip-path="url(#clip512)" style="stroke:#000000; stroke-linecap:round; stroke-linejoin:round; stroke-width:2; stroke-opacity:0.1; fill:none" points="193.936,783.668 2352.76,783.668 "/>
<polyline clip-path="url(#clip512)" style="stroke:#000000; stroke-linecap:round; stroke-linejoin:round; stroke-width:2; stroke-opacity:0.1; fill:none" points="193.936,575.144 2352.76,575.144 "/>
<polyline clip-path="url(#clip512)" style="stroke:#000000; stroke-linecap:round; stroke-linejoin:round; stroke-width:2; stroke-opacity:0.1; fill:none" points="193.936,366.619 2352.76,366.619 "/>
<polyline clip-path="url(#clip512)" style="stroke:#000000; stroke-linecap:round; stroke-linejoin:round; stroke-width:2; stroke-opacity:0.1; fill:none" points="193.936,158.095 2352.76,158.095 "/>
<polyline clip-path="url(#clip510)" style="stroke:#000000; stroke-linecap:round; stroke-linejoin:round; stroke-width:4; stroke-opacity:1; fill:none" points="193.936,1423.18 2352.76,1423.18 "/>
<polyline clip-path="url(#clip510)" style="stroke:#000000; stroke-linecap:round; stroke-linejoin:round; stroke-width:4; stroke-opacity:1; fill:none" points="255.035,1423.18 255.035,1404.28 "/>
<polyline clip-path="url(#clip510)" style="stroke:#000000; stroke-linecap:round; stroke-linejoin:round; stroke-width:4; stroke-opacity:1; fill:none" points="764.19,1423.18 764.19,1404.28 "/>
<polyline clip-path="url(#clip510)" style="stroke:#000000; stroke-linecap:round; stroke-linejoin:round; stroke-width:4; stroke-opacity:1; fill:none" points="1273.35,1423.18 1273.35,1404.28 "/>
<polyline clip-path="url(#clip510)" style="stroke:#000000; stroke-linecap:round; stroke-linejoin:round; stroke-width:4; stroke-opacity:1; fill:none" points="1782.5,1423.18 1782.5,1404.28 "/>
<polyline clip-path="url(#clip510)" style="stroke:#000000; stroke-linecap:round; stroke-linejoin:round; stroke-width:4; stroke-opacity:1; fill:none" points="2291.66,1423.18 2291.66,1404.28 "/>
<path clip-path="url(#clip510)" d="M255.035 1454.1 Q251.424 1454.1 249.595 1457.66 Q247.789 1461.2 247.789 1468.33 Q247.789 1475.44 249.595 1479.01 Q251.424 1482.55 255.035 1482.55 Q258.669 1482.55 260.474 1479.01 Q262.303 1475.44 262.303 1468.33 Q262.303 1461.2 260.474 1457.66 Q258.669 1454.1 255.035 1454.1 M255.035 1450.39 Q260.845 1450.39 263.9 1455 Q266.979 1459.58 266.979 1468.33 Q266.979 1477.06 263.9 1481.67 Q260.845 1486.25 255.035 1486.25 Q249.225 1486.25 246.146 1481.67 Q243.09 1477.06 243.09 1468.33 Q243.09 1459.58 246.146 1455 Q249.225 1450.39 255.035 1450.39 Z" fill="#000000" fill-rule="nonzero" fill-opacity="1" /><path clip-path="url(#clip510)" d="M754.572 1481.64 L762.211 1481.64 L762.211 1455.28 L753.901 1456.95 L753.901 1452.69 L762.165 1451.02 L766.841 1451.02 L766.841 1481.64 L774.48 1481.64 L774.48 1485.58 L754.572 1485.58 L754.572 1481.64 Z" fill="#000000" fill-rule="nonzero" fill-opacity="1" /><path clip-path="url(#clip510)" d="M1268 1481.64 L1284.32 1481.64 L1284.32 1485.58 L1262.37 1485.58 L1262.37 1481.64 Q1265.04 1478.89 1269.62 1474.26 Q1274.23 1469.61 1275.41 1468.27 Q1277.65 1465.74 1278.53 1464.01 Q1279.43 1462.25 1279.43 1460.56 Q1279.43 1457.8 1277.49 1456.07 Q1275.57 1454.33 1272.47 1454.33 Q1270.27 1454.33 1267.81 1455.09 Q1265.38 1455.86 1262.61 1457.41 L1262.61 1452.69 Q1265.43 1451.55 1267.88 1450.97 Q1270.34 1450.39 1272.37 1450.39 Q1277.74 1450.39 1280.94 1453.08 Q1284.13 1455.77 1284.13 1460.26 Q1284.13 1462.39 1283.32 1464.31 Q1282.54 1466.2 1280.43 1468.8 Q1279.85 1469.47 1276.75 1472.69 Q1273.65 1475.88 1268 1481.64 Z" fill="#000000" fill-rule="nonzero" fill-opacity="1" /><path clip-path="url(#clip510)" d="M1786.75 1466.95 Q1790.11 1467.66 1791.98 1469.93 Q1793.88 1472.2 1793.88 1475.53 Q1793.88 1480.65 1790.36 1483.45 Q1786.84 1486.25 1780.36 1486.25 Q1778.18 1486.25 1775.87 1485.81 Q1773.58 1485.39 1771.12 1484.54 L1771.12 1480.02 Q1773.07 1481.16 1775.38 1481.74 Q1777.7 1482.32 1780.22 1482.32 Q1784.62 1482.32 1786.91 1480.58 Q1789.23 1478.84 1789.23 1475.53 Q1789.23 1472.48 1787.07 1470.77 Q1784.94 1469.03 1781.12 1469.03 L1777.1 1469.03 L1777.1 1465.19 L1781.31 1465.19 Q1784.76 1465.19 1786.59 1463.82 Q1788.42 1462.43 1788.42 1459.84 Q1788.42 1457.18 1786.52 1455.77 Q1784.64 1454.33 1781.12 1454.33 Q1779.2 1454.33 1777 1454.75 Q1774.8 1455.16 1772.17 1456.04 L1772.17 1451.88 Q1774.83 1451.14 1777.14 1450.77 Q1779.48 1450.39 1781.54 1450.39 Q1786.86 1450.39 1789.97 1452.83 Q1793.07 1455.23 1793.07 1459.35 Q1793.07 1462.22 1791.43 1464.21 Q1789.78 1466.18 1786.75 1466.95 Z" fill="#000000" fill-rule="nonzero" fill-opacity="1" /><path clip-path="url(#clip510)" d="M2294.67 1455.09 L2282.86 1473.54 L2294.67 1473.54 L2294.67 1455.09 M2293.44 1451.02 L2299.32 1451.02 L2299.32 1473.54 L2304.25 1473.54 L2304.25 1477.43 L2299.32 1477.43 L2299.32 1485.58 L2294.67 1485.58 L2294.67 1477.43 L2279.06 1477.43 L2279.06 1472.92 L2293.44 1451.02 Z" fill="#000000" fill-rule="nonzero" fill-opacity="1" /><path clip-path="url(#clip510)" d="M1221.66 1522.27 L1221.66 1532.4 L1233.72 1532.4 L1233.72 1536.95 L1221.66 1536.95 L1221.66 1556.3 Q1221.66 1560.66 1222.83 1561.9 Q1224.04 1563.14 1227.7 1563.14 L1233.72 1563.14 L1233.72 1568.04 L1227.7 1568.04 Q1220.92 1568.04 1218.35 1565.53 Q1215.77 1562.98 1215.77 1556.3 L1215.77 1536.95 L1211.47 1536.95 L1211.47 1532.4 L1215.77 1532.4 L1215.77 1522.27 L1221.66 1522.27 Z" fill="#000000" fill-rule="nonzero" fill-opacity="1" /><path clip-path="url(#clip510)" d="M1261.6 1518.52 L1275.1 1518.52 L1275.1 1523.07 L1267.46 1523.07 L1267.46 1572.09 L1275.1 1572.09 L1275.1 1576.64 L1261.6 1576.64 L1261.6 1518.52 Z" fill="#000000" fill-rule="nonzero" fill-opacity="1" /><path clip-path="url(#clip510)" d="M1310.3 1533.45 L1310.3 1538.98 Q1307.82 1537.71 1305.14 1537.07 Q1302.47 1536.44 1299.6 1536.44 Q1295.24 1536.44 1293.05 1537.77 Q1290.88 1539.11 1290.88 1541.79 Q1290.88 1543.82 1292.44 1545 Q1294 1546.15 1298.71 1547.2 L1300.72 1547.64 Q1306.96 1548.98 1309.57 1551.43 Q1312.21 1553.85 1312.21 1558.21 Q1312.21 1563.17 1308.26 1566.07 Q1304.35 1568.97 1297.47 1568.97 Q1294.61 1568.97 1291.49 1568.39 Q1288.4 1567.85 1284.96 1566.74 L1284.96 1560.69 Q1288.21 1562.38 1291.36 1563.24 Q1294.51 1564.07 1297.6 1564.07 Q1301.74 1564.07 1303.97 1562.66 Q1306.19 1561.23 1306.19 1558.65 Q1306.19 1556.27 1304.57 1554.99 Q1302.98 1553.72 1297.54 1552.54 L1295.5 1552.07 Q1290.06 1550.92 1287.64 1548.56 Q1285.22 1546.18 1285.22 1542.04 Q1285.22 1537.01 1288.78 1534.27 Q1292.35 1531.54 1298.9 1531.54 Q1302.15 1531.54 1305.02 1532.01 Q1307.88 1532.49 1310.3 1533.45 Z" fill="#000000" fill-rule="nonzero" fill-opacity="1" /><path clip-path="url(#clip510)" d="M1335.22 1518.52 L1335.22 1576.64 L1321.73 1576.64 L1321.73 1572.09 L1329.33 1572.09 L1329.33 1523.07 L1321.73 1523.07 L1321.73 1518.52 L1335.22 1518.52 Z" fill="#000000" fill-rule="nonzero" fill-opacity="1" /><polyline clip-path="url(#clip510)" style="stroke:#000000; stroke-linecap:round; stroke-linejoin:round; stroke-width:4; stroke-opacity:1; fill:none" points="193.936,1423.18 193.936,47.2441 "/>
<polyline clip-path="url(#clip510)" style="stroke:#000000; stroke-linecap:round; stroke-linejoin:round; stroke-width:4; stroke-opacity:1; fill:none" points="193.936,1409.24 212.834,1409.24 "/>
<polyline clip-path="url(#clip510)" style="stroke:#000000; stroke-linecap:round; stroke-linejoin:round; stroke-width:4; stroke-opacity:1; fill:none" points="193.936,1200.72 212.834,1200.72 "/>
<polyline clip-path="url(#clip510)" style="stroke:#000000; stroke-linecap:round; stroke-linejoin:round; stroke-width:4; stroke-opacity:1; fill:none" points="193.936,992.193 212.834,992.193 "/>
<polyline clip-path="url(#clip510)" style="stroke:#000000; stroke-linecap:round; stroke-linejoin:round; stroke-width:4; stroke-opacity:1; fill:none" points="193.936,783.668 212.834,783.668 "/>
<polyline clip-path="url(#clip510)" style="stroke:#000000; stroke-linecap:round; stroke-linejoin:round; stroke-width:4; stroke-opacity:1; fill:none" points="193.936,575.144 212.834,575.144 "/>
<polyline clip-path="url(#clip510)" style="stroke:#000000; stroke-linecap:round; stroke-linejoin:round; stroke-width:4; stroke-opacity:1; fill:none" points="193.936,366.619 212.834,366.619 "/>
<polyline clip-path="url(#clip510)" style="stroke:#000000; stroke-linecap:round; stroke-linejoin:round; stroke-width:4; stroke-opacity:1; fill:none" points="193.936,158.095 212.834,158.095 "/>
<path clip-path="url(#clip510)" d="M51.9875 1409.69 L81.6633 1409.69 L81.6633 1413.63 L51.9875 1413.63 L51.9875 1409.69 Z" fill="#000000" fill-rule="nonzero" fill-opacity="1" /><path clip-path="url(#clip510)" d="M95.7836 1422.59 L112.103 1422.59 L112.103 1426.52 L90.1586 1426.52 L90.1586 1422.59 Q92.8206 1419.83 97.4039 1415.2 Q102.01 1410.55 103.191 1409.21 Q105.436 1406.68 106.316 1404.95 Q107.219 1403.19 107.219 1401.5 Q107.219 1398.74 105.274 1397.01 Q103.353 1395.27 100.251 1395.27 Q98.0521 1395.27 95.5984 1396.04 Q93.1678 1396.8 90.3901 1398.35 L90.3901 1393.63 Q93.2141 1392.49 95.6678 1391.92 Q98.1215 1391.34 100.159 1391.34 Q105.529 1391.34 108.723 1394.02 Q111.918 1396.71 111.918 1401.2 Q111.918 1403.33 111.108 1405.25 Q110.321 1407.15 108.214 1409.74 Q107.635 1410.41 104.534 1413.63 Q101.432 1416.82 95.7836 1422.59 Z" fill="#000000" fill-rule="nonzero" fill-opacity="1" /><path clip-path="url(#clip510)" d="M121.918 1420.64 L126.802 1420.64 L126.802 1426.52 L121.918 1426.52 L121.918 1420.64 Z" fill="#000000" fill-rule="nonzero" fill-opacity="1" /><path clip-path="url(#clip510)" d="M137.033 1391.96 L155.39 1391.96 L155.39 1395.9 L141.316 1395.9 L141.316 1404.37 Q142.334 1404.02 143.353 1403.86 Q144.371 1403.67 145.39 1403.67 Q151.177 1403.67 154.556 1406.85 Q157.936 1410.02 157.936 1415.43 Q157.936 1421.01 154.464 1424.11 Q150.992 1427.19 144.672 1427.19 Q142.496 1427.19 140.228 1426.82 Q137.982 1426.45 135.575 1425.71 L135.575 1421.01 Q137.658 1422.15 139.881 1422.7 Q142.103 1423.26 144.58 1423.26 Q148.584 1423.26 150.922 1421.15 Q153.26 1419.04 153.26 1415.43 Q153.26 1411.82 150.922 1409.72 Q148.584 1407.61 144.58 1407.61 Q142.705 1407.61 140.83 1408.03 Q138.978 1408.44 137.033 1409.32 L137.033 1391.96 Z" fill="#000000" fill-rule="nonzero" fill-opacity="1" /><path clip-path="url(#clip510)" d="M50.9921 1201.17 L80.6679 1201.17 L80.6679 1205.1 L50.9921 1205.1 L50.9921 1201.17 Z" fill="#000000" fill-rule="nonzero" fill-opacity="1" /><path clip-path="url(#clip510)" d="M94.7882 1214.06 L111.108 1214.06 L111.108 1218 L89.1632 1218 L89.1632 1214.06 Q91.8252 1211.31 96.4085 1206.68 Q101.015 1202.03 102.196 1200.68 Q104.441 1198.16 105.321 1196.42 Q106.223 1194.66 106.223 1192.97 Q106.223 1190.22 104.279 1188.48 Q102.358 1186.75 99.2558 1186.75 Q97.0567 1186.75 94.603 1187.51 Q92.1725 1188.28 89.3947 1189.83 L89.3947 1185.1 Q92.2188 1183.97 94.6724 1183.39 Q97.1261 1182.81 99.1632 1182.81 Q104.534 1182.81 107.728 1185.5 Q110.922 1188.18 110.922 1192.67 Q110.922 1194.8 110.112 1196.72 Q109.325 1198.62 107.219 1201.21 Q106.64 1201.89 103.538 1205.1 Q100.436 1208.3 94.7882 1214.06 Z" fill="#000000" fill-rule="nonzero" fill-opacity="1" /><path clip-path="url(#clip510)" d="M120.922 1212.12 L125.807 1212.12 L125.807 1218 L120.922 1218 L120.922 1212.12 Z" fill="#000000" fill-rule="nonzero" fill-opacity="1" /><path clip-path="url(#clip510)" d="M145.992 1186.52 Q142.381 1186.52 140.552 1190.08 Q138.746 1193.62 138.746 1200.75 Q138.746 1207.86 140.552 1211.42 Q142.381 1214.96 145.992 1214.96 Q149.626 1214.96 151.431 1211.42 Q153.26 1207.86 153.26 1200.75 Q153.26 1193.62 151.431 1190.08 Q149.626 1186.52 145.992 1186.52 M145.992 1182.81 Q151.802 1182.81 154.857 1187.42 Q157.936 1192 157.936 1200.75 Q157.936 1209.48 154.857 1214.09 Q151.802 1218.67 145.992 1218.67 Q140.181 1218.67 137.103 1214.09 Q134.047 1209.48 134.047 1200.75 Q134.047 1192 137.103 1187.42 Q140.181 1182.81 145.992 1182.81 Z" fill="#000000" fill-rule="nonzero" fill-opacity="1" /><path clip-path="url(#clip510)" d="M51.9875 992.644 L81.6633 992.644 L81.6633 996.579 L51.9875 996.579 L51.9875 992.644 Z" fill="#000000" fill-rule="nonzero" fill-opacity="1" /><path clip-path="url(#clip510)" d="M92.566 1005.54 L100.205 1005.54 L100.205 979.172 L91.8947 980.839 L91.8947 976.579 L100.159 974.913 L104.834 974.913 L104.834 1005.54 L112.473 1005.54 L112.473 1009.47 L92.566 1009.47 L92.566 1005.54 Z" fill="#000000" fill-rule="nonzero" fill-opacity="1" /><path clip-path="url(#clip510)" d="M121.918 1003.59 L126.802 1003.59 L126.802 1009.47 L121.918 1009.47 L121.918 1003.59 Z" fill="#000000" fill-rule="nonzero" fill-opacity="1" /><path clip-path="url(#clip510)" d="M137.033 974.913 L155.39 974.913 L155.39 978.848 L141.316 978.848 L141.316 987.32 Q142.334 986.973 143.353 986.811 Q144.371 986.626 145.39 986.626 Q151.177 986.626 154.556 989.797 Q157.936 992.968 157.936 998.385 Q157.936 1003.96 154.464 1007.07 Q150.992 1010.14 144.672 1010.14 Q142.496 1010.14 140.228 1009.77 Q137.982 1009.4 135.575 1008.66 L135.575 1003.96 Q137.658 1005.1 139.881 1005.65 Q142.103 1006.21 144.58 1006.21 Q148.584 1006.21 150.922 1004.1 Q153.26 1002 153.26 998.385 Q153.26 994.774 150.922 992.667 Q148.584 990.561 144.58 990.561 Q142.705 990.561 140.83 990.977 Q138.978 991.394 137.033 992.274 L137.033 974.913 Z" fill="#000000" fill-rule="nonzero" fill-opacity="1" /><path clip-path="url(#clip510)" d="M50.9921 784.12 L80.6679 784.12 L80.6679 788.055 L50.9921 788.055 L50.9921 784.12 Z" fill="#000000" fill-rule="nonzero" fill-opacity="1" /><path clip-path="url(#clip510)" d="M91.5706 797.013 L99.2095 797.013 L99.2095 770.647 L90.8993 772.314 L90.8993 768.055 L99.1632 766.388 L103.839 766.388 L103.839 797.013 L111.478 797.013 L111.478 800.948 L91.5706 800.948 L91.5706 797.013 Z" fill="#000000" fill-rule="nonzero" fill-opacity="1" /><path clip-path="url(#clip510)" d="M120.922 795.069 L125.807 795.069 L125.807 800.948 L120.922 800.948 L120.922 795.069 Z" fill="#000000" fill-rule="nonzero" fill-opacity="1" /><path clip-path="url(#clip510)" d="M145.992 769.467 Q142.381 769.467 140.552 773.032 Q138.746 776.573 138.746 783.703 Q138.746 790.809 140.552 794.374 Q142.381 797.916 145.992 797.916 Q149.626 797.916 151.431 794.374 Q153.26 790.809 153.26 783.703 Q153.26 776.573 151.431 773.032 Q149.626 769.467 145.992 769.467 M145.992 765.763 Q151.802 765.763 154.857 770.37 Q157.936 774.953 157.936 783.703 Q157.936 792.43 154.857 797.036 Q151.802 801.619 145.992 801.619 Q140.181 801.619 137.103 797.036 Q134.047 792.43 134.047 783.703 Q134.047 774.953 137.103 770.37 Q140.181 765.763 145.992 765.763 Z" fill="#000000" fill-rule="nonzero" fill-opacity="1" /><path clip-path="url(#clip510)" d="M51.9875 575.595 L81.6633 575.595 L81.6633 579.53 L51.9875 579.53 L51.9875 575.595 Z" fill="#000000" fill-rule="nonzero" fill-opacity="1" /><path clip-path="url(#clip510)" d="M101.756 560.942 Q98.1447 560.942 96.316 564.507 Q94.5104 568.049 94.5104 575.178 Q94.5104 582.285 96.316 585.85 Q98.1447 589.391 101.756 589.391 Q105.39 589.391 107.196 585.85 Q109.024 582.285 109.024 575.178 Q109.024 568.049 107.196 564.507 Q105.39 560.942 101.756 560.942 M101.756 557.239 Q107.566 557.239 110.621 561.845 Q113.7 566.428 113.7 575.178 Q113.7 583.905 110.621 588.512 Q107.566 593.095 101.756 593.095 Q95.9456 593.095 92.8669 588.512 Q89.8114 583.905 89.8114 575.178 Q89.8114 566.428 92.8669 561.845 Q95.9456 557.239 101.756 557.239 Z" fill="#000000" fill-rule="nonzero" fill-opacity="1" /><path clip-path="url(#clip510)" d="M121.918 586.544 L126.802 586.544 L126.802 592.424 L121.918 592.424 L121.918 586.544 Z" fill="#000000" fill-rule="nonzero" fill-opacity="1" /><path clip-path="url(#clip510)" d="M137.033 557.864 L155.39 557.864 L155.39 561.799 L141.316 561.799 L141.316 570.271 Q142.334 569.924 143.353 569.762 Q144.371 569.577 145.39 569.577 Q151.177 569.577 154.556 572.748 Q157.936 575.919 157.936 581.336 Q157.936 586.914 154.464 590.016 Q150.992 593.095 144.672 593.095 Q142.496 593.095 140.228 592.725 Q137.982 592.354 135.575 591.613 L135.575 586.914 Q137.658 588.049 139.881 588.604 Q142.103 589.16 144.58 589.16 Q148.584 589.16 150.922 587.053 Q153.26 584.947 153.26 581.336 Q153.26 577.725 150.922 575.618 Q148.584 573.512 144.58 573.512 Q142.705 573.512 140.83 573.928 Q138.978 574.345 137.033 575.225 L137.033 557.864 Z" fill="#000000" fill-rule="nonzero" fill-opacity="1" /><path clip-path="url(#clip510)" d="M100.76 352.418 Q97.1493 352.418 95.3206 355.983 Q93.515 359.524 93.515 366.654 Q93.515 373.76 95.3206 377.325 Q97.1493 380.867 100.76 380.867 Q104.395 380.867 106.2 377.325 Q108.029 373.76 108.029 366.654 Q108.029 359.524 106.2 355.983 Q104.395 352.418 100.76 352.418 M100.76 348.714 Q106.571 348.714 109.626 353.321 Q112.705 357.904 112.705 366.654 Q112.705 375.381 109.626 379.987 Q106.571 384.57 100.76 384.57 Q94.9502 384.57 91.8715 379.987 Q88.816 375.381 88.816 366.654 Q88.816 357.904 91.8715 353.321 Q94.9502 348.714 100.76 348.714 Z" fill="#000000" fill-rule="nonzero" fill-opacity="1" /><path clip-path="url(#clip510)" d="M120.922 378.019 L125.807 378.019 L125.807 383.899 L120.922 383.899 L120.922 378.019 Z" fill="#000000" fill-rule="nonzero" fill-opacity="1" /><path clip-path="url(#clip510)" d="M145.992 352.418 Q142.381 352.418 140.552 355.983 Q138.746 359.524 138.746 366.654 Q138.746 373.76 140.552 377.325 Q142.381 380.867 145.992 380.867 Q149.626 380.867 151.431 377.325 Q153.26 373.76 153.26 366.654 Q153.26 359.524 151.431 355.983 Q149.626 352.418 145.992 352.418 M145.992 348.714 Q151.802 348.714 154.857 353.321 Q157.936 357.904 157.936 366.654 Q157.936 375.381 154.857 379.987 Q151.802 384.57 145.992 384.57 Q140.181 384.57 137.103 379.987 Q134.047 375.381 134.047 366.654 Q134.047 357.904 137.103 353.321 Q140.181 348.714 145.992 348.714 Z" fill="#000000" fill-rule="nonzero" fill-opacity="1" /><path clip-path="url(#clip510)" d="M101.756 143.893 Q98.1447 143.893 96.316 147.458 Q94.5104 151 94.5104 158.129 Q94.5104 165.236 96.316 168.8 Q98.1447 172.342 101.756 172.342 Q105.39 172.342 107.196 168.8 Q109.024 165.236 109.024 158.129 Q109.024 151 107.196 147.458 Q105.39 143.893 101.756 143.893 M101.756 140.19 Q107.566 140.19 110.621 144.796 Q113.7 149.379 113.7 158.129 Q113.7 166.856 110.621 171.463 Q107.566 176.046 101.756 176.046 Q95.9456 176.046 92.8669 171.463 Q89.8114 166.856 89.8114 158.129 Q89.8114 149.379 92.8669 144.796 Q95.9456 140.19 101.756 140.19 Z" fill="#000000" fill-rule="nonzero" fill-opacity="1" /><path clip-path="url(#clip510)" d="M121.918 169.495 L126.802 169.495 L126.802 175.375 L121.918 175.375 L121.918 169.495 Z" fill="#000000" fill-rule="nonzero" fill-opacity="1" /><path clip-path="url(#clip510)" d="M137.033 140.815 L155.39 140.815 L155.39 144.75 L141.316 144.75 L141.316 153.222 Q142.334 152.875 143.353 152.713 Q144.371 152.527 145.39 152.527 Q151.177 152.527 154.556 155.699 Q157.936 158.87 157.936 164.287 Q157.936 169.865 154.464 172.967 Q150.992 176.046 144.672 176.046 Q142.496 176.046 140.228 175.675 Q137.982 175.305 135.575 174.564 L135.575 169.865 Q137.658 171 139.881 171.555 Q142.103 172.111 144.58 172.111 Q148.584 172.111 150.922 170.004 Q153.26 167.898 153.26 164.287 Q153.26 160.676 150.922 158.569 Q148.584 156.463 144.58 156.463 Q142.705 156.463 140.83 156.879 Q138.978 157.296 137.033 158.176 L137.033 140.815 Z" fill="#000000" fill-rule="nonzero" fill-opacity="1" /><polyline clip-path="url(#clip512)" style="stroke:#009af9; stroke-linecap:round; stroke-linejoin:round; stroke-width:4; stroke-opacity:1; fill:none" points="255.035,158.095 260.126,156.819 265.218,155.549 270.309,154.285 275.401,153.026 280.492,151.772 285.584,150.523 290.676,149.279 295.767,148.041 300.859,146.807 305.95,145.579 311.042,144.355 316.133,143.136 321.225,141.921 326.316,140.711 331.408,139.506 336.5,138.305 341.591,137.109 346.683,135.916 351.774,134.728 356.866,133.544 361.957,132.364 367.049,131.188 372.14,130.016 377.232,128.848 382.324,127.684 387.415,126.523 392.507,125.366 397.598,124.212 402.69,123.062 407.781,121.915 412.873,120.772 417.964,119.633 423.056,118.497 428.148,117.366 433.239,116.238 438.331,115.115 443.422,113.996 448.514,112.882 453.605,111.773 458.697,110.67 463.788,109.572 468.88,108.481 473.972,107.395 479.063,106.317 484.155,105.247 489.246,104.187 494.338,103.136 499.429,102.096 504.521,101.069 509.612,100.057 514.704,99.0601 519.796,98.0811 524.887,97.1218 529.979,96.1843 535.07,95.271 540.162,94.3844 545.253,93.5272 550.345,92.702 555.437,91.9119 560.528,91.1599 565.62,90.4494 570.711,89.7838 575.803,89.1667 580.894,88.6017 585.986,88.0919 591.077,87.6382 596.169,87.2428 601.261,86.9077 606.352,86.6347 611.444,86.425 616.535,86.2799 621.627,86.1999 626.718,86.1857 631.81,86.2372 636.901,86.3542 641.993,86.5364 647.085,86.7828 652.176,87.0922 657.268,87.4634 662.359,87.8944 667.451,88.3832 672.542,88.9274 677.634,89.5243 682.725,90.1708 687.817,90.8637 692.909,91.5992 698,92.3734 703.092,93.1819 708.183,94.0217 713.275,94.8935 718.366,95.7959 723.458,96.7279 728.549,97.6878 733.641,98.6745 738.733,99.6865 743.824,100.722 748.916,101.781 754.007,102.86 759.099,103.96 764.19,105.077 769.282,106.211 774.373,107.361 779.465,108.524 784.557,109.699 789.648,110.885 794.74,112.08 799.831,113.283 804.923,114.493 810.014,115.709 815.106,116.931 820.197,118.16 825.289,119.395 830.381,120.635 835.472,121.881 840.564,123.131 845.655,124.386 850.747,125.646 855.838,126.909 860.93,128.176 866.021,129.446 871.113,130.718 876.205,131.993 881.296,133.269 886.388,134.547 891.479,135.825 896.571,137.103 901.662,138.382 906.754,139.66 911.845,140.936 916.937,142.213 922.029,143.489 927.12,144.765 932.212,146.04 937.303,147.316 942.395,148.59 947.486,149.864 952.578,151.138 957.669,152.411 962.761,153.684 967.853,154.955 972.944,156.226 978.036,157.496 983.127,158.765 988.219,160.033 993.31,161.3 998.402,162.565 1003.49,163.829 1008.59,165.091 1013.68,166.352 1018.77,167.611 1023.86,168.868 1028.95,170.122 1034.04,171.375 1039.13,172.626 1044.23,173.875 1049.32,175.122 1054.41,176.367 1059.5,177.611 1064.59,178.853 1069.68,180.093 1074.78,181.331 1079.87,182.568 1084.96,183.803 1090.05,185.036 1095.14,186.267 1100.23,187.497 1105.32,188.724 1110.42,189.95 1115.51,191.175 1120.6,192.397 1125.69,193.617 1130.78,194.836 1135.87,196.053 1140.97,197.268 1146.06,198.48 1151.15,199.691 1156.24,200.9 1161.33,202.106 1166.42,203.311 1171.51,204.513 1176.61,205.714 1181.7,206.912 1186.79,208.108 1191.88,209.302 1196.97,210.494 1202.06,211.684 1207.16,212.872 1212.25,214.058 1217.34,215.242 1222.43,216.424 1227.52,217.605 1232.61,218.783 1237.71,219.959 1242.8,221.133 1247.89,222.306 1252.98,223.476 1258.07,224.644 1263.16,225.811 1268.25,226.975 1273.35,228.138 1278.44,229.299 1283.53,230.457 1288.62,231.614 1293.71,232.769 1298.8,233.921 1303.9,235.072 1308.99,236.221 1314.08,237.368 1319.17,238.512 1324.26,239.655 1329.35,240.796 1334.44,241.934 1339.54,243.071 1344.63,244.206 1349.72,245.338 1354.81,246.469 1359.9,247.597 1364.99,248.724 1370.09,249.848 1375.18,250.97 1380.27,252.091 1385.36,253.209 1390.45,254.326 1395.54,255.44 1400.63,256.553 1405.73,257.663 1410.82,258.772 1415.91,259.879 1421,260.983 1426.09,262.086 1431.18,263.187 1436.28,264.285 1441.37,265.382 1446.46,266.477 1451.55,267.57 1456.64,268.661 1461.73,269.75 1466.83,270.837 1471.92,271.922 1477.01,273.005 1482.1,274.086 1487.19,275.166 1492.28,276.243 1497.37,277.318 1502.47,278.392 1507.56,279.463 1512.65,280.533 1517.74,281.6 1522.83,282.666 1527.92,283.73 1533.02,284.791 1538.11,285.851 1543.2,286.909 1548.29,287.965 1553.38,289.019 1558.47,290.071 1563.56,291.121 1568.66,292.169 1573.75,293.215 1578.84,294.259 1583.93,295.302 1589.02,296.342 1594.11,297.38 1599.21,298.417 1604.3,299.451 1609.39,300.484 1614.48,301.515 1619.57,302.544 1624.66,303.571 1629.75,304.596 1634.85,305.619 1639.94,306.64 1645.03,307.659 1650.12,308.677 1655.21,309.692 1660.3,310.706 1665.4,311.718 1670.49,312.727 1675.58,313.735 1680.67,314.741 1685.76,315.745 1690.85,316.748 1695.95,317.748 1701.04,318.746 1706.13,319.743 1711.22,320.737 1716.31,321.73 1721.4,322.721 1726.49,323.71 1731.59,324.697 1736.68,325.682 1741.77,326.665 1746.86,327.647 1751.95,328.626 1757.04,329.604 1762.14,330.579 1767.23,331.553 1772.32,332.525 1777.41,333.495 1782.5,334.463 1787.59,335.43 1792.68,336.394 1797.78,337.357 1802.87,338.318 1807.96,339.276 1813.05,340.233 1818.14,341.189 1823.23,342.142 1828.33,343.094 1833.42,344.043 1838.51,344.991 1843.6,345.937 1848.69,346.882 1853.78,347.824 1858.87,348.765 1863.97,349.703 1869.06,350.64 1874.15,351.576 1879.24,352.509 1884.33,353.441 1889.42,354.371 1894.52,355.299 1899.61,356.225 1904.7,357.15 1909.79,358.073 1914.88,358.995 1919.97,359.915 1925.07,360.834 1930.16,361.751 1935.25,362.666 1940.34,363.579 1945.43,364.491 1950.52,365.401 1955.61,366.309 1960.71,367.215 1965.8,368.12 1970.89,369.023 1975.98,369.924 1981.07,370.823 1986.16,371.72 1991.26,372.615 1996.35,373.508 2001.44,374.4 2006.53,375.289 2011.62,376.177 2016.71,377.063 2021.8,377.947 2026.9,378.828 2031.99,379.708 2037.08,380.586 2042.17,381.462 2047.26,382.336 2052.35,383.208 2057.45,384.079 2062.54,384.947 2067.63,385.813 2072.72,386.678 2077.81,387.54 2082.9,388.401 2087.99,389.26 2093.09,390.117 2098.18,390.972 2103.27,391.825 2108.36,392.676 2113.45,393.526 2118.54,394.373 2123.64,395.219 2128.73,396.064 2133.82,396.906 2138.91,397.747 2144,398.586 2149.09,399.423 2154.19,400.259 2159.28,401.093 2164.37,401.926 2169.46,402.757 2174.55,403.587 2179.64,404.415 2184.73,405.241 2189.83,406.067 2194.92,406.89 2200.01,407.713 2205.1,408.534 2210.19,409.354 2215.28,410.173 2220.38,410.99 2225.47,411.807 2230.56,412.622 2235.65,413.435 2240.74,414.247 2245.83,415.057 2250.92,415.865 2256.02,416.671 2261.11,417.476 2266.2,418.279 2271.29,419.08 2276.38,419.879 2281.47,420.677 2286.57,421.473 2291.66,422.267 "/>
<polyline clip-path="url(#clip512)" style="stroke:#e26f46; stroke-linecap:round; stroke-linejoin:round; stroke-width:4; stroke-opacity:1; fill:none" points="255.035,366.619 260.126,375.064 265.218,383.501 270.309,391.929 275.401,400.348 280.492,408.758 285.584,417.159 290.676,425.551 295.767,433.932 300.859,442.304 305.95,450.666 311.042,459.017 316.133,467.358 321.225,475.688 326.316,484.006 331.408,492.313 336.5,500.608 341.591,508.891 346.683,517.161 351.774,525.418 356.866,533.662 361.957,541.892 367.049,550.107 372.14,558.307 377.232,566.491 382.324,574.659 387.415,582.811 392.507,590.946 397.598,599.063 402.69,607.161 407.781,615.24 412.873,623.299 417.964,631.335 423.056,639.349 428.148,647.339 433.239,655.303 438.331,663.241 443.422,671.149 448.514,679.027 453.605,686.873 458.697,694.685 463.788,702.461 468.88,710.199 473.972,717.897 479.063,725.552 484.155,733.162 489.246,740.723 494.338,748.23 499.429,755.679 504.521,763.065 509.612,770.384 514.704,777.632 519.796,784.802 524.887,791.89 529.979,798.89 535.07,805.798 540.162,812.609 545.253,819.315 550.345,825.912 555.437,832.395 560.528,838.756 565.62,844.99 570.711,851.091 575.803,857.052 580.894,862.867 585.986,868.532 591.077,874.045 596.169,879.407 601.261,884.617 606.352,889.674 611.444,894.578 616.535,899.331 621.627,903.934 626.718,908.388 631.81,912.696 636.901,916.859 641.993,920.881 647.085,924.766 652.176,928.517 657.268,932.139 662.359,935.637 667.451,939.015 672.542,942.281 677.634,945.439 682.725,948.497 687.817,951.461 692.909,954.34 698,957.141 703.092,959.873 708.183,962.542 713.275,965.146 718.366,967.688 723.458,970.17 728.549,972.595 733.641,974.965 738.733,977.284 743.824,979.553 748.916,981.775 754.007,983.954 759.099,986.091 764.19,988.189 769.282,990.251 774.373,992.281 779.465,994.28 784.557,996.251 789.648,998.197 794.74,1000.12 799.831,1002.03 804.923,1003.92 810.014,1005.79 815.106,1007.64 820.197,1009.47 825.289,1011.29 830.381,1013.1 835.472,1014.88 840.564,1016.66 845.655,1018.41 850.747,1020.16 855.838,1021.89 860.93,1023.61 866.021,1025.32 871.113,1027.02 876.205,1028.71 881.296,1030.38 886.388,1032.06 891.479,1033.72 896.571,1035.38 901.662,1037.03 906.754,1038.67 911.845,1040.31 916.937,1041.95 922.029,1043.58 927.12,1045.21 932.212,1046.83 937.303,1048.44 942.395,1050.05 947.486,1051.65 952.578,1053.25 957.669,1054.85 962.761,1056.44 967.853,1058.02 972.944,1059.6 978.036,1061.17 983.127,1062.75 988.219,1064.31 993.31,1065.87 998.402,1067.43 1003.49,1068.99 1008.59,1070.54 1013.68,1072.09 1018.77,1073.64 1023.86,1075.18 1028.95,1076.72 1034.04,1078.26 1039.13,1079.8 1044.23,1081.33 1049.32,1082.86 1054.41,1084.39 1059.5,1085.91 1064.59,1087.44 1069.68,1088.95 1074.78,1090.47 1079.87,1091.98 1084.96,1093.49 1090.05,1095 1095.14,1096.5 1100.23,1098.01 1105.32,1099.5 1110.42,1101 1115.51,1102.49 1120.6,1103.98 1125.69,1105.47 1130.78,1106.95 1135.87,1108.43 1140.97,1109.91 1146.06,1111.39 1151.15,1112.86 1156.24,1114.34 1161.33,1115.8 1166.42,1117.27 1171.51,1118.74 1176.61,1120.2 1181.7,1121.66 1186.79,1123.12 1191.88,1124.57 1196.97,1126.03 1202.06,1127.48 1207.16,1128.92 1212.25,1130.37 1217.34,1131.81 1222.43,1133.25 1227.52,1134.69 1232.61,1136.13 1237.71,1137.56 1242.8,1138.99 1247.89,1140.42 1252.98,1141.84 1258.07,1143.27 1263.16,1144.69 1268.25,1146.1 1273.35,1147.52 1278.44,1148.93 1283.53,1150.34 1288.62,1151.75 1293.71,1153.16 1298.8,1154.56 1303.9,1155.96 1308.99,1157.36 1314.08,1158.75 1319.17,1160.15 1324.26,1161.54 1329.35,1162.92 1334.44,1164.31 1339.54,1165.69 1344.63,1167.08 1349.72,1168.45 1354.81,1169.83 1359.9,1171.21 1364.99,1172.58 1370.09,1173.95 1375.18,1175.32 1380.27,1176.68 1385.36,1178.04 1390.45,1179.4 1395.54,1180.76 1400.63,1182.12 1405.73,1183.47 1410.82,1184.82 1415.91,1186.17 1421,1187.51 1426.09,1188.86 1431.18,1190.2 1436.28,1191.54 1441.37,1192.87 1446.46,1194.21 1451.55,1195.54 1456.64,1196.87 1461.73,1198.19 1466.83,1199.52 1471.92,1200.84 1477.01,1202.16 1482.1,1203.48 1487.19,1204.79 1492.28,1206.1 1497.37,1207.41 1502.47,1208.72 1507.56,1210.03 1512.65,1211.33 1517.74,1212.63 1522.83,1213.93 1527.92,1215.22 1533.02,1216.52 1538.11,1217.81 1543.2,1219.1 1548.29,1220.38 1553.38,1221.67 1558.47,1222.95 1563.56,1224.23 1568.66,1225.5 1573.75,1226.78 1578.84,1228.05 1583.93,1229.32 1589.02,1230.59 1594.11,1231.86 1599.21,1233.12 1604.3,1234.38 1609.39,1235.64 1614.48,1236.89 1619.57,1238.15 1624.66,1239.4 1629.75,1240.65 1634.85,1241.9 1639.94,1243.14 1645.03,1244.38 1650.12,1245.62 1655.21,1246.86 1660.3,1248.09 1665.4,1249.33 1670.49,1250.56 1675.58,1251.79 1680.67,1253.01 1685.76,1254.24 1690.85,1255.46 1695.95,1256.68 1701.04,1257.89 1706.13,1259.11 1711.22,1260.32 1716.31,1261.53 1721.4,1262.74 1726.49,1263.95 1731.59,1265.15 1736.68,1266.35 1741.77,1267.55 1746.86,1268.75 1751.95,1269.94 1757.04,1271.13 1762.14,1272.32 1767.23,1273.51 1772.32,1274.7 1777.41,1275.88 1782.5,1277.06 1787.59,1278.24 1792.68,1279.42 1797.78,1280.59 1802.87,1281.76 1807.96,1282.93 1813.05,1284.1 1818.14,1285.27 1823.23,1286.43 1828.33,1287.59 1833.42,1288.75 1838.51,1289.91 1843.6,1291.06 1848.69,1292.21 1853.78,1293.36 1858.87,1294.51 1863.97,1295.66 1869.06,1296.8 1874.15,1297.94 1879.24,1299.08 1884.33,1300.22 1889.42,1301.35 1894.52,1302.48 1899.61,1303.61 1904.7,1304.74 1909.79,1305.86 1914.88,1306.98 1919.97,1308.1 1925.07,1309.22 1930.16,1310.33 1935.25,1311.44 1940.34,1312.55 1945.43,1313.66 1950.52,1314.76 1955.61,1315.87 1960.71,1316.97 1965.8,1318.07 1970.89,1319.16 1975.98,1320.26 1981.07,1321.35 1986.16,1322.44 1991.26,1323.53 1996.35,1324.61 2001.44,1325.7 2006.53,1326.78 2011.62,1327.86 2016.71,1328.94 2021.8,1330.02 2026.9,1331.09 2031.99,1332.16 2037.08,1333.24 2042.17,1334.31 2047.26,1335.37 2052.35,1336.44 2057.45,1337.51 2062.54,1338.57 2067.63,1339.63 2072.72,1340.69 2077.81,1341.75 2082.9,1342.8 2087.99,1343.86 2093.09,1344.91 2098.18,1345.96 2103.27,1347.01 2108.36,1348.05 2113.45,1349.1 2118.54,1350.14 2123.64,1351.18 2128.73,1352.22 2133.82,1353.26 2138.91,1354.29 2144,1355.33 2149.09,1356.36 2154.19,1357.38 2159.28,1358.41 2164.37,1359.43 2169.46,1360.46 2174.55,1361.48 2179.64,1362.49 2184.73,1363.51 2189.83,1364.52 2194.92,1365.53 2200.01,1366.53 2205.1,1367.54 2210.19,1368.54 2215.28,1369.54 2220.38,1370.53 2225.47,1371.52 2230.56,1372.51 2235.65,1373.5 2240.74,1374.48 2245.83,1375.47 2250.92,1376.45 2256.02,1377.43 2261.11,1378.41 2266.2,1379.38 2271.29,1380.36 2276.38,1381.33 2281.47,1382.3 2286.57,1383.27 2291.66,1384.24 "/>
<path clip-path="url(#clip510)" d="M265.897 1377.32 L934.508 1377.32 L934.508 1221.8 L265.897 1221.8  Z" fill="#ffffff" fill-rule="evenodd" fill-opacity="1"/>
<polyline clip-path="url(#clip510)" style="stroke:#000000; stroke-linecap:round; stroke-linejoin:round; stroke-width:4; stroke-opacity:1; fill:none" points="265.897,1377.32 934.508,1377.32 934.508,1221.8 265.897,1221.8 265.897,1377.32 "/>
<polyline clip-path="url(#clip510)" style="stroke:#009af9; stroke-linecap:round; stroke-linejoin:round; stroke-width:4; stroke-opacity:1; fill:none" points="289.884,1273.64 433.805,1273.64 "/>
<path clip-path="url(#clip510)" d="M478.139 1269.97 Q479.736 1267.1 481.958 1265.73 Q484.181 1264.36 487.19 1264.36 Q491.241 1264.36 493.44 1267.21 Q495.639 1270.04 495.639 1275.27 L495.639 1290.92 L491.356 1290.92 L491.356 1275.41 Q491.356 1271.68 490.037 1269.87 Q488.718 1268.07 486.009 1268.07 Q482.699 1268.07 480.778 1270.27 Q478.856 1272.47 478.856 1276.26 L478.856 1290.92 L474.574 1290.92 L474.574 1275.41 Q474.574 1271.66 473.255 1269.87 Q471.935 1268.07 469.181 1268.07 Q465.917 1268.07 463.995 1270.29 Q462.074 1272.49 462.074 1276.26 L462.074 1290.92 L457.792 1290.92 L457.792 1264.99 L462.074 1264.99 L462.074 1269.02 Q463.532 1266.63 465.57 1265.5 Q467.607 1264.36 470.407 1264.36 Q473.231 1264.36 475.199 1265.8 Q477.19 1267.23 478.139 1269.97 Z" fill="#000000" fill-rule="nonzero" fill-opacity="1" /><path clip-path="url(#clip510)" d="M515.916 1277.88 Q510.754 1277.88 508.764 1279.06 Q506.773 1280.24 506.773 1283.09 Q506.773 1285.36 508.254 1286.7 Q509.759 1288.02 512.329 1288.02 Q515.87 1288.02 518 1285.52 Q520.153 1283 520.153 1278.83 L520.153 1277.88 L515.916 1277.88 M524.412 1276.12 L524.412 1290.92 L520.153 1290.92 L520.153 1286.98 Q518.694 1289.34 516.518 1290.48 Q514.342 1291.59 511.194 1291.59 Q507.213 1291.59 504.852 1289.36 Q502.514 1287.12 502.514 1283.37 Q502.514 1278.99 505.43 1276.77 Q508.37 1274.55 514.18 1274.55 L520.153 1274.55 L520.153 1274.13 Q520.153 1271.19 518.208 1269.6 Q516.287 1267.98 512.791 1267.98 Q510.569 1267.98 508.463 1268.51 Q506.356 1269.04 504.412 1270.11 L504.412 1266.17 Q506.75 1265.27 508.949 1264.83 Q511.148 1264.36 513.231 1264.36 Q518.856 1264.36 521.634 1267.28 Q524.412 1270.2 524.412 1276.12 Z" fill="#000000" fill-rule="nonzero" fill-opacity="1" /><path clip-path="url(#clip510)" d="M549.713 1265.75 L549.713 1269.78 Q547.907 1268.86 545.963 1268.39 Q544.018 1267.93 541.935 1267.93 Q538.764 1267.93 537.166 1268.9 Q535.592 1269.87 535.592 1271.82 Q535.592 1273.3 536.727 1274.16 Q537.861 1274.99 541.287 1275.75 L542.745 1276.08 Q547.282 1277.05 549.18 1278.83 Q551.101 1280.59 551.101 1283.76 Q551.101 1287.37 548.231 1289.48 Q545.384 1291.59 540.384 1291.59 Q538.301 1291.59 536.032 1291.17 Q533.787 1290.78 531.287 1289.97 L531.287 1285.57 Q533.648 1286.79 535.939 1287.42 Q538.231 1288.02 540.477 1288.02 Q543.486 1288.02 545.106 1287 Q546.726 1285.96 546.726 1284.09 Q546.726 1282.35 545.546 1281.42 Q544.389 1280.5 540.43 1279.64 L538.949 1279.3 Q534.99 1278.46 533.231 1276.75 Q531.472 1275.01 531.472 1272 Q531.472 1268.35 534.065 1266.36 Q536.657 1264.36 541.426 1264.36 Q543.787 1264.36 545.87 1264.71 Q547.953 1265.06 549.713 1265.75 Z" fill="#000000" fill-rule="nonzero" fill-opacity="1" /><path clip-path="url(#clip510)" d="M574.412 1265.75 L574.412 1269.78 Q572.606 1268.86 570.662 1268.39 Q568.717 1267.93 566.634 1267.93 Q563.462 1267.93 561.865 1268.9 Q560.291 1269.87 560.291 1271.82 Q560.291 1273.3 561.425 1274.16 Q562.56 1274.99 565.986 1275.75 L567.444 1276.08 Q571.981 1277.05 573.879 1278.83 Q575.8 1280.59 575.8 1283.76 Q575.8 1287.37 572.93 1289.48 Q570.083 1291.59 565.083 1291.59 Q563 1291.59 560.731 1291.17 Q558.486 1290.78 555.986 1289.97 L555.986 1285.57 Q558.347 1286.79 560.638 1287.42 Q562.93 1288.02 565.175 1288.02 Q568.185 1288.02 569.805 1287 Q571.425 1285.96 571.425 1284.09 Q571.425 1282.35 570.245 1281.42 Q569.087 1280.5 565.129 1279.64 L563.648 1279.3 Q559.689 1278.46 557.93 1276.75 Q556.171 1275.01 556.171 1272 Q556.171 1268.35 558.763 1266.36 Q561.356 1264.36 566.125 1264.36 Q568.486 1264.36 570.569 1264.71 Q572.652 1265.06 574.412 1265.75 Z" fill="#000000" fill-rule="nonzero" fill-opacity="1" /><path clip-path="url(#clip510)" d="M583.185 1285.04 L588.069 1285.04 L588.069 1290.92 L583.185 1290.92 L583.185 1285.04 Z" fill="#000000" fill-rule="nonzero" fill-opacity="1" /><path clip-path="url(#clip510)" d="M614.18 1265.75 L614.18 1269.78 Q612.374 1268.86 610.43 1268.39 Q608.485 1267.93 606.402 1267.93 Q603.231 1267.93 601.634 1268.9 Q600.06 1269.87 600.06 1271.82 Q600.06 1273.3 601.194 1274.16 Q602.328 1274.99 605.754 1275.75 L607.212 1276.08 Q611.749 1277.05 613.647 1278.83 Q615.569 1280.59 615.569 1283.76 Q615.569 1287.37 612.698 1289.48 Q609.851 1291.59 604.851 1291.59 Q602.768 1291.59 600.499 1291.17 Q598.254 1290.78 595.754 1289.97 L595.754 1285.57 Q598.115 1286.79 600.407 1287.42 Q602.698 1288.02 604.944 1288.02 Q607.953 1288.02 609.573 1287 Q611.194 1285.96 611.194 1284.09 Q611.194 1282.35 610.013 1281.42 Q608.856 1280.5 604.897 1279.64 L603.416 1279.3 Q599.458 1278.46 597.698 1276.75 Q595.939 1275.01 595.939 1272 Q595.939 1268.35 598.532 1266.36 Q601.124 1264.36 605.893 1264.36 Q608.254 1264.36 610.337 1264.71 Q612.421 1265.06 614.18 1265.75 Z" fill="#000000" fill-rule="nonzero" fill-opacity="1" /><path clip-path="url(#clip510)" d="M647.652 1254.94 Q644.55 1260.27 643.045 1265.48 Q641.541 1270.68 641.541 1276.03 Q641.541 1281.38 643.045 1286.63 Q644.573 1291.86 647.652 1297.17 L643.948 1297.17 Q640.476 1291.73 638.74 1286.47 Q637.027 1281.22 637.027 1276.03 Q637.027 1270.87 638.74 1265.64 Q640.453 1260.41 643.948 1254.94 L647.652 1254.94 Z" fill="#000000" fill-rule="nonzero" fill-opacity="1" /><path clip-path="url(#clip510)" d="M670.684 1272.28 Q674.041 1273 675.916 1275.27 Q677.814 1277.54 677.814 1280.87 Q677.814 1285.98 674.295 1288.79 Q670.777 1291.59 664.295 1291.59 Q662.119 1291.59 659.805 1291.15 Q657.513 1290.73 655.059 1289.87 L655.059 1285.36 Q657.004 1286.49 659.318 1287.07 Q661.633 1287.65 664.156 1287.65 Q668.555 1287.65 670.846 1285.92 Q673.161 1284.18 673.161 1280.87 Q673.161 1277.81 671.008 1276.1 Q668.879 1274.36 665.059 1274.36 L661.031 1274.36 L661.031 1270.52 L665.244 1270.52 Q668.693 1270.52 670.522 1269.16 Q672.351 1267.77 672.351 1265.17 Q672.351 1262.51 670.453 1261.1 Q668.578 1259.67 665.059 1259.67 Q663.138 1259.67 660.939 1260.08 Q658.74 1260.5 656.101 1261.38 L656.101 1257.21 Q658.763 1256.47 661.078 1256.1 Q663.416 1255.73 665.476 1255.73 Q670.8 1255.73 673.902 1258.16 Q677.004 1260.57 677.004 1264.69 Q677.004 1267.56 675.36 1269.55 Q673.717 1271.52 670.684 1272.28 Z" fill="#000000" fill-rule="nonzero" fill-opacity="1" /><path clip-path="url(#clip510)" d="M700.846 1272.28 Q704.202 1273 706.077 1275.27 Q707.976 1277.54 707.976 1280.87 Q707.976 1285.98 704.457 1288.79 Q700.939 1291.59 694.457 1291.59 Q692.281 1291.59 689.966 1291.15 Q687.675 1290.73 685.221 1289.87 L685.221 1285.36 Q687.166 1286.49 689.48 1287.07 Q691.795 1287.65 694.318 1287.65 Q698.716 1287.65 701.008 1285.92 Q703.323 1284.18 703.323 1280.87 Q703.323 1277.81 701.17 1276.1 Q699.04 1274.36 695.221 1274.36 L691.193 1274.36 L691.193 1270.52 L695.406 1270.52 Q698.855 1270.52 700.684 1269.16 Q702.513 1267.77 702.513 1265.17 Q702.513 1262.51 700.615 1261.1 Q698.74 1259.67 695.221 1259.67 Q693.3 1259.67 691.101 1260.08 Q688.902 1260.5 686.263 1261.38 L686.263 1257.21 Q688.925 1256.47 691.24 1256.1 Q693.578 1255.73 695.638 1255.73 Q700.962 1255.73 704.064 1258.16 Q707.165 1260.57 707.165 1264.69 Q707.165 1267.56 705.522 1269.55 Q703.878 1271.52 700.846 1272.28 Z" fill="#000000" fill-rule="nonzero" fill-opacity="1" /><path clip-path="url(#clip510)" d="M716.888 1256.36 L735.244 1256.36 L735.244 1260.29 L721.17 1260.29 L721.17 1268.76 Q722.188 1268.42 723.207 1268.25 Q724.226 1268.07 725.244 1268.07 Q731.031 1268.07 734.411 1271.24 Q737.79 1274.41 737.79 1279.83 Q737.79 1285.41 734.318 1288.51 Q730.846 1291.59 724.526 1291.59 Q722.351 1291.59 720.082 1291.22 Q717.837 1290.85 715.429 1290.11 L715.429 1285.41 Q717.513 1286.54 719.735 1287.1 Q721.957 1287.65 724.434 1287.65 Q728.438 1287.65 730.776 1285.54 Q733.114 1283.44 733.114 1279.83 Q733.114 1276.22 730.776 1274.11 Q728.438 1272 724.434 1272 Q722.559 1272 720.684 1272.42 Q718.832 1272.84 716.888 1273.72 L716.888 1256.36 Z" fill="#000000" fill-rule="nonzero" fill-opacity="1" /><path clip-path="url(#clip510)" d="M747.049 1256.36 L765.406 1256.36 L765.406 1260.29 L751.332 1260.29 L751.332 1268.76 Q752.35 1268.42 753.369 1268.25 Q754.387 1268.07 755.406 1268.07 Q761.193 1268.07 764.573 1271.24 Q767.952 1274.41 767.952 1279.83 Q767.952 1285.41 764.48 1288.51 Q761.008 1291.59 754.688 1291.59 Q752.512 1291.59 750.244 1291.22 Q747.999 1290.85 745.591 1290.11 L745.591 1285.41 Q747.674 1286.54 749.897 1287.1 Q752.119 1287.65 754.596 1287.65 Q758.6 1287.65 760.938 1285.54 Q763.276 1283.44 763.276 1279.83 Q763.276 1276.22 760.938 1274.11 Q758.6 1272 754.596 1272 Q752.721 1272 750.846 1272.42 Q748.994 1272.84 747.049 1273.72 L747.049 1256.36 Z" fill="#000000" fill-rule="nonzero" fill-opacity="1" /><path clip-path="url(#clip510)" d="M790.012 1260.43 L778.207 1278.88 L790.012 1278.88 L790.012 1260.43 M788.785 1256.36 L794.665 1256.36 L794.665 1278.88 L799.595 1278.88 L799.595 1282.77 L794.665 1282.77 L794.665 1290.92 L790.012 1290.92 L790.012 1282.77 L774.41 1282.77 L774.41 1278.25 L788.785 1256.36 Z" fill="#000000" fill-rule="nonzero" fill-opacity="1" /><path clip-path="url(#clip510)" d="M820.174 1260.43 L808.369 1278.88 L820.174 1278.88 L820.174 1260.43 M818.947 1256.36 L824.827 1256.36 L824.827 1278.88 L829.757 1278.88 L829.757 1282.77 L824.827 1282.77 L824.827 1290.92 L820.174 1290.92 L820.174 1282.77 L804.572 1282.77 L804.572 1278.25 L818.947 1256.36 Z" fill="#000000" fill-rule="nonzero" fill-opacity="1" /><path clip-path="url(#clip510)" d="M851.655 1272.28 Q855.012 1273 856.887 1275.27 Q858.785 1277.54 858.785 1280.87 Q858.785 1285.98 855.266 1288.79 Q851.748 1291.59 845.267 1291.59 Q843.091 1291.59 840.776 1291.15 Q838.484 1290.73 836.03 1289.87 L836.03 1285.36 Q837.975 1286.49 840.29 1287.07 Q842.605 1287.65 845.128 1287.65 Q849.526 1287.65 851.817 1285.92 Q854.132 1284.18 854.132 1280.87 Q854.132 1277.81 851.979 1276.1 Q849.85 1274.36 846.03 1274.36 L842.003 1274.36 L842.003 1270.52 L846.216 1270.52 Q849.665 1270.52 851.493 1269.16 Q853.322 1267.77 853.322 1265.17 Q853.322 1262.51 851.424 1261.1 Q849.549 1259.67 846.03 1259.67 Q844.109 1259.67 841.91 1260.08 Q839.711 1260.5 837.072 1261.38 L837.072 1257.21 Q839.734 1256.47 842.049 1256.1 Q844.387 1255.73 846.447 1255.73 Q851.771 1255.73 854.873 1258.16 Q857.975 1260.57 857.975 1264.69 Q857.975 1267.56 856.331 1269.55 Q854.688 1271.52 851.655 1272.28 Z" fill="#000000" fill-rule="nonzero" fill-opacity="1" /><path clip-path="url(#clip510)" d="M871.678 1286.98 L887.998 1286.98 L887.998 1290.92 L866.053 1290.92 L866.053 1286.98 Q868.715 1284.23 873.299 1279.6 Q877.905 1274.94 879.086 1273.6 Q881.331 1271.08 882.211 1269.34 Q883.114 1267.58 883.114 1265.89 Q883.114 1263.14 881.169 1261.4 Q879.248 1259.67 876.146 1259.67 Q873.947 1259.67 871.493 1260.43 Q869.063 1261.19 866.285 1262.74 L866.285 1258.02 Q869.109 1256.89 871.563 1256.31 Q874.016 1255.73 876.053 1255.73 Q881.424 1255.73 884.618 1258.42 Q887.813 1261.1 887.813 1265.59 Q887.813 1267.72 887.002 1269.64 Q886.215 1271.54 884.109 1274.13 Q883.53 1274.8 880.428 1278.02 Q877.327 1281.22 871.678 1286.98 Z" fill="#000000" fill-rule="nonzero" fill-opacity="1" /><path clip-path="url(#clip510)" d="M896.539 1254.94 L900.243 1254.94 Q903.715 1260.41 905.428 1265.64 Q907.164 1270.87 907.164 1276.03 Q907.164 1281.22 905.428 1286.47 Q903.715 1291.73 900.243 1297.17 L896.539 1297.17 Q899.618 1291.86 901.123 1286.63 Q902.65 1281.38 902.65 1276.03 Q902.65 1270.68 901.123 1265.48 Q899.618 1260.27 896.539 1254.94 Z" fill="#000000" fill-rule="nonzero" fill-opacity="1" /><polyline clip-path="url(#clip510)" style="stroke:#e26f46; stroke-linecap:round; stroke-linejoin:round; stroke-width:4; stroke-opacity:1; fill:none" points="289.884,1325.48 433.805,1325.48 "/>
<path clip-path="url(#clip510)" d="M478.139 1321.81 Q479.736 1318.94 481.958 1317.57 Q484.181 1316.2 487.19 1316.2 Q491.241 1316.2 493.44 1319.05 Q495.639 1321.88 495.639 1327.11 L495.639 1342.76 L491.356 1342.76 L491.356 1327.25 Q491.356 1323.52 490.037 1321.71 Q488.718 1319.91 486.009 1319.91 Q482.699 1319.91 480.778 1322.11 Q478.856 1324.31 478.856 1328.1 L478.856 1342.76 L474.574 1342.76 L474.574 1327.25 Q474.574 1323.5 473.255 1321.71 Q471.935 1319.91 469.181 1319.91 Q465.917 1319.91 463.995 1322.13 Q462.074 1324.33 462.074 1328.1 L462.074 1342.76 L457.792 1342.76 L457.792 1316.83 L462.074 1316.83 L462.074 1320.86 Q463.532 1318.47 465.57 1317.34 Q467.607 1316.2 470.407 1316.2 Q473.231 1316.2 475.199 1317.64 Q477.19 1319.07 478.139 1321.81 Z" fill="#000000" fill-rule="nonzero" fill-opacity="1" /><path clip-path="url(#clip510)" d="M515.916 1329.72 Q510.754 1329.72 508.764 1330.9 Q506.773 1332.08 506.773 1334.93 Q506.773 1337.2 508.254 1338.54 Q509.759 1339.86 512.329 1339.86 Q515.87 1339.86 518 1337.36 Q520.153 1334.84 520.153 1330.67 L520.153 1329.72 L515.916 1329.72 M524.412 1327.96 L524.412 1342.76 L520.153 1342.76 L520.153 1338.82 Q518.694 1341.18 516.518 1342.32 Q514.342 1343.43 511.194 1343.43 Q507.213 1343.43 504.852 1341.2 Q502.514 1338.96 502.514 1335.21 Q502.514 1330.83 505.43 1328.61 Q508.37 1326.39 514.18 1326.39 L520.153 1326.39 L520.153 1325.97 Q520.153 1323.03 518.208 1321.44 Q516.287 1319.82 512.791 1319.82 Q510.569 1319.82 508.463 1320.35 Q506.356 1320.88 504.412 1321.95 L504.412 1318.01 Q506.75 1317.11 508.949 1316.67 Q511.148 1316.2 513.231 1316.2 Q518.856 1316.2 521.634 1319.12 Q524.412 1322.04 524.412 1327.96 Z" fill="#000000" fill-rule="nonzero" fill-opacity="1" /><path clip-path="url(#clip510)" d="M549.713 1317.59 L549.713 1321.62 Q547.907 1320.7 545.963 1320.23 Q544.018 1319.77 541.935 1319.77 Q538.764 1319.77 537.166 1320.74 Q535.592 1321.71 535.592 1323.66 Q535.592 1325.14 536.727 1326 Q537.861 1326.83 541.287 1327.59 L542.745 1327.92 Q547.282 1328.89 549.18 1330.67 Q551.101 1332.43 551.101 1335.6 Q551.101 1339.21 548.231 1341.32 Q545.384 1343.43 540.384 1343.43 Q538.301 1343.43 536.032 1343.01 Q533.787 1342.62 531.287 1341.81 L531.287 1337.41 Q533.648 1338.63 535.939 1339.26 Q538.231 1339.86 540.477 1339.86 Q543.486 1339.86 545.106 1338.84 Q546.726 1337.8 546.726 1335.93 Q546.726 1334.19 545.546 1333.26 Q544.389 1332.34 540.43 1331.48 L538.949 1331.14 Q534.99 1330.3 533.231 1328.59 Q531.472 1326.85 531.472 1323.84 Q531.472 1320.19 534.065 1318.2 Q536.657 1316.2 541.426 1316.2 Q543.787 1316.2 545.87 1316.55 Q547.953 1316.9 549.713 1317.59 Z" fill="#000000" fill-rule="nonzero" fill-opacity="1" /><path clip-path="url(#clip510)" d="M574.412 1317.59 L574.412 1321.62 Q572.606 1320.7 570.662 1320.23 Q568.717 1319.77 566.634 1319.77 Q563.462 1319.77 561.865 1320.74 Q560.291 1321.71 560.291 1323.66 Q560.291 1325.14 561.425 1326 Q562.56 1326.83 565.986 1327.59 L567.444 1327.92 Q571.981 1328.89 573.879 1330.67 Q575.8 1332.43 575.8 1335.6 Q575.8 1339.21 572.93 1341.32 Q570.083 1343.43 565.083 1343.43 Q563 1343.43 560.731 1343.01 Q558.486 1342.62 555.986 1341.81 L555.986 1337.41 Q558.347 1338.63 560.638 1339.26 Q562.93 1339.86 565.175 1339.86 Q568.185 1339.86 569.805 1338.84 Q571.425 1337.8 571.425 1335.93 Q571.425 1334.19 570.245 1333.26 Q569.087 1332.34 565.129 1331.48 L563.648 1331.14 Q559.689 1330.3 557.93 1328.59 Q556.171 1326.85 556.171 1323.84 Q556.171 1320.19 558.763 1318.2 Q561.356 1316.2 566.125 1316.2 Q568.486 1316.2 570.569 1316.55 Q572.652 1316.9 574.412 1317.59 Z" fill="#000000" fill-rule="nonzero" fill-opacity="1" /><path clip-path="url(#clip510)" d="M583.185 1336.88 L588.069 1336.88 L588.069 1342.76 L583.185 1342.76 L583.185 1336.88 Z" fill="#000000" fill-rule="nonzero" fill-opacity="1" /><path clip-path="url(#clip510)" d="M594.597 1316.83 L599.11 1316.83 L607.212 1338.59 L615.314 1316.83 L619.828 1316.83 L610.106 1342.76 L604.319 1342.76 L594.597 1316.83 Z" fill="#000000" fill-rule="nonzero" fill-opacity="1" /><path clip-path="url(#clip510)" d="M651.008 1306.78 Q647.906 1312.11 646.402 1317.32 Q644.897 1322.52 644.897 1327.87 Q644.897 1333.22 646.402 1338.47 Q647.93 1343.7 651.008 1349.01 L647.305 1349.01 Q643.832 1343.57 642.096 1338.31 Q640.383 1333.06 640.383 1327.87 Q640.383 1322.71 642.096 1317.48 Q643.809 1312.25 647.305 1306.78 L651.008 1306.78 Z" fill="#000000" fill-rule="nonzero" fill-opacity="1" /><path clip-path="url(#clip510)" d="M674.041 1324.12 Q677.397 1324.84 679.272 1327.11 Q681.17 1329.38 681.17 1332.71 Q681.17 1337.82 677.652 1340.63 Q674.133 1343.43 667.652 1343.43 Q665.476 1343.43 663.161 1342.99 Q660.869 1342.57 658.416 1341.71 L658.416 1337.2 Q660.36 1338.33 662.675 1338.91 Q664.99 1339.49 667.513 1339.49 Q671.911 1339.49 674.203 1337.76 Q676.517 1336.02 676.517 1332.71 Q676.517 1329.65 674.365 1327.94 Q672.235 1326.2 668.416 1326.2 L664.388 1326.2 L664.388 1322.36 L668.601 1322.36 Q672.05 1322.36 673.879 1321 Q675.707 1319.61 675.707 1317.01 Q675.707 1314.35 673.809 1312.94 Q671.934 1311.51 668.416 1311.51 Q666.494 1311.51 664.295 1311.92 Q662.096 1312.34 659.457 1313.22 L659.457 1309.05 Q662.119 1308.31 664.434 1307.94 Q666.772 1307.57 668.832 1307.57 Q674.156 1307.57 677.258 1310 Q680.36 1312.41 680.36 1316.53 Q680.36 1319.4 678.717 1321.39 Q677.073 1323.36 674.041 1324.12 Z" fill="#000000" fill-rule="nonzero" fill-opacity="1" /><path clip-path="url(#clip510)" d="M704.202 1324.12 Q707.559 1324.84 709.434 1327.11 Q711.332 1329.38 711.332 1332.71 Q711.332 1337.82 707.814 1340.63 Q704.295 1343.43 697.814 1343.43 Q695.638 1343.43 693.323 1342.99 Q691.031 1342.57 688.578 1341.71 L688.578 1337.2 Q690.522 1338.33 692.837 1338.91 Q695.152 1339.49 697.675 1339.49 Q702.073 1339.49 704.365 1337.76 Q706.679 1336.02 706.679 1332.71 Q706.679 1329.65 704.527 1327.94 Q702.397 1326.2 698.578 1326.2 L694.55 1326.2 L694.55 1322.36 L698.763 1322.36 Q702.212 1322.36 704.04 1321 Q705.869 1319.61 705.869 1317.01 Q705.869 1314.35 703.971 1312.94 Q702.096 1311.51 698.578 1311.51 Q696.656 1311.51 694.457 1311.92 Q692.258 1312.34 689.619 1313.22 L689.619 1309.05 Q692.281 1308.31 694.596 1307.94 Q696.934 1307.57 698.994 1307.57 Q704.318 1307.57 707.42 1310 Q710.522 1312.41 710.522 1316.53 Q710.522 1319.4 708.878 1321.39 Q707.235 1323.36 704.202 1324.12 Z" fill="#000000" fill-rule="nonzero" fill-opacity="1" /><path clip-path="url(#clip510)" d="M720.244 1308.2 L738.6 1308.2 L738.6 1312.13 L724.526 1312.13 L724.526 1320.6 Q725.545 1320.26 726.563 1320.09 Q727.582 1319.91 728.6 1319.91 Q734.388 1319.91 737.767 1323.08 Q741.147 1326.25 741.147 1331.67 Q741.147 1337.25 737.675 1340.35 Q734.202 1343.43 727.883 1343.43 Q725.707 1343.43 723.438 1343.06 Q721.193 1342.69 718.786 1341.95 L718.786 1337.25 Q720.869 1338.38 723.091 1338.94 Q725.313 1339.49 727.79 1339.49 Q731.795 1339.49 734.133 1337.38 Q736.471 1335.28 736.471 1331.67 Q736.471 1328.06 734.133 1325.95 Q731.795 1323.84 727.79 1323.84 Q725.915 1323.84 724.04 1324.26 Q722.188 1324.68 720.244 1325.56 L720.244 1308.2 Z" fill="#000000" fill-rule="nonzero" fill-opacity="1" /><path clip-path="url(#clip510)" d="M750.406 1308.2 L768.762 1308.2 L768.762 1312.13 L754.688 1312.13 L754.688 1320.6 Q755.707 1320.26 756.725 1320.09 Q757.744 1319.91 758.762 1319.91 Q764.549 1319.91 767.929 1323.08 Q771.309 1326.25 771.309 1331.67 Q771.309 1337.25 767.836 1340.35 Q764.364 1343.43 758.045 1343.43 Q755.869 1343.43 753.6 1343.06 Q751.355 1342.69 748.948 1341.95 L748.948 1337.25 Q751.031 1338.38 753.253 1338.94 Q755.475 1339.49 757.952 1339.49 Q761.957 1339.49 764.295 1337.38 Q766.633 1335.28 766.633 1331.67 Q766.633 1328.06 764.295 1325.95 Q761.957 1323.84 757.952 1323.84 Q756.077 1323.84 754.202 1324.26 Q752.35 1324.68 750.406 1325.56 L750.406 1308.2 Z" fill="#000000" fill-rule="nonzero" fill-opacity="1" /><path clip-path="url(#clip510)" d="M793.369 1312.27 L781.563 1330.72 L793.369 1330.72 L793.369 1312.27 M792.142 1308.2 L798.021 1308.2 L798.021 1330.72 L802.952 1330.72 L802.952 1334.61 L798.021 1334.61 L798.021 1342.76 L793.369 1342.76 L793.369 1334.61 L777.767 1334.61 L777.767 1330.09 L792.142 1308.2 Z" fill="#000000" fill-rule="nonzero" fill-opacity="1" /><path clip-path="url(#clip510)" d="M823.531 1312.27 L811.725 1330.72 L823.531 1330.72 L823.531 1312.27 M822.304 1308.2 L828.183 1308.2 L828.183 1330.72 L833.114 1330.72 L833.114 1334.61 L828.183 1334.61 L828.183 1342.76 L823.531 1342.76 L823.531 1334.61 L807.929 1334.61 L807.929 1330.09 L822.304 1308.2 Z" fill="#000000" fill-rule="nonzero" fill-opacity="1" /><path clip-path="url(#clip510)" d="M855.012 1324.12 Q858.368 1324.84 860.243 1327.11 Q862.141 1329.38 862.141 1332.71 Q862.141 1337.82 858.623 1340.63 Q855.104 1343.43 848.623 1343.43 Q846.447 1343.43 844.132 1342.99 Q841.841 1342.57 839.387 1341.71 L839.387 1337.2 Q841.331 1338.33 843.646 1338.91 Q845.961 1339.49 848.484 1339.49 Q852.882 1339.49 855.174 1337.76 Q857.489 1336.02 857.489 1332.71 Q857.489 1329.65 855.336 1327.94 Q853.206 1326.2 849.387 1326.2 L845.359 1326.2 L845.359 1322.36 L849.572 1322.36 Q853.021 1322.36 854.85 1321 Q856.679 1319.61 856.679 1317.01 Q856.679 1314.35 854.78 1312.94 Q852.905 1311.51 849.387 1311.51 Q847.466 1311.51 845.267 1311.92 Q843.067 1312.34 840.429 1313.22 L840.429 1309.05 Q843.091 1308.31 845.405 1307.94 Q847.743 1307.57 849.804 1307.57 Q855.128 1307.57 858.229 1310 Q861.331 1312.41 861.331 1316.53 Q861.331 1319.4 859.688 1321.39 Q858.044 1323.36 855.012 1324.12 Z" fill="#000000" fill-rule="nonzero" fill-opacity="1" /><path clip-path="url(#clip510)" d="M885.174 1324.12 Q888.53 1324.84 890.405 1327.11 Q892.303 1329.38 892.303 1332.71 Q892.303 1337.82 888.785 1340.63 Q885.266 1343.43 878.785 1343.43 Q876.609 1343.43 874.294 1342.99 Q872.003 1342.57 869.549 1341.71 L869.549 1337.2 Q871.493 1338.33 873.808 1338.91 Q876.123 1339.49 878.646 1339.49 Q883.044 1339.49 885.336 1337.76 Q887.651 1336.02 887.651 1332.71 Q887.651 1329.65 885.498 1327.94 Q883.368 1326.2 879.549 1326.2 L875.521 1326.2 L875.521 1322.36 L879.734 1322.36 Q883.183 1322.36 885.012 1321 Q886.84 1319.61 886.84 1317.01 Q886.84 1314.35 884.942 1312.94 Q883.067 1311.51 879.549 1311.51 Q877.627 1311.51 875.428 1311.92 Q873.229 1312.34 870.59 1313.22 L870.59 1309.05 Q873.253 1308.31 875.567 1307.94 Q877.905 1307.57 879.965 1307.57 Q885.289 1307.57 888.391 1310 Q891.493 1312.41 891.493 1316.53 Q891.493 1319.4 889.85 1321.39 Q888.206 1323.36 885.174 1324.12 Z" fill="#000000" fill-rule="nonzero" fill-opacity="1" /><path clip-path="url(#clip510)" d="M899.896 1306.78 L903.6 1306.78 Q907.072 1312.25 908.785 1317.48 Q910.521 1322.71 910.521 1327.87 Q910.521 1333.06 908.785 1338.31 Q907.072 1343.57 903.6 1349.01 L899.896 1349.01 Q902.975 1343.7 904.479 1338.47 Q906.007 1333.22 906.007 1327.87 Q906.007 1322.52 904.479 1317.32 Q902.975 1312.11 899.896 1306.78 Z" fill="#000000" fill-rule="nonzero" fill-opacity="1" /></svg>
